<?xml version="1.0" encoding="UTF-8" standalone="no"?>
<!DOCTYPE svg PUBLIC "-//W3C//DTD SVG 1.1//EN"
 "http://www.w3.org/Graphics/SVG/1.1/DTD/svg11.dtd">
<!-- Generated by graphviz version 2.43.0 (0)
 -->
<!-- Title: adc_interpolation.hpp Pages: 1 -->
<svg width="1996pt" height="431pt"
 viewBox="0.00 0.00 1995.61 431.00" xmlns="http://www.w3.org/2000/svg" xmlns:xlink="http://www.w3.org/1999/xlink">
<g id="graph0" class="graph" transform="scale(1 1) rotate(0) translate(4 427)">
<title>adc_interpolation.hpp</title>
<!-- Node1 -->
<g id="node1" class="node">
<title>Node1</title>
<g id="a_node1"><a xlink:title="ADC Interpolation Utility.">
<polygon fill="#bfbfbf" stroke="black" points="1660.11,-403.5 1660.11,-422.5 1782.11,-422.5 1782.11,-403.5 1660.11,-403.5"/>
<text text-anchor="middle" x="1721.11" y="-410.5" font-family="Helvetica,sans-Serif" font-size="10.00">adc_interpolation.hpp</text>
</a>
</g>
</g>
<!-- Node2 -->
<g id="node2" class="node">
<title>Node2</title>
<g id="a_node2"><a xlink:title=" ">
<polygon fill="none" stroke="#bfbfbf" points="1418.61,-118 1418.61,-137 1511.61,-137 1511.61,-118 1418.61,-118"/>
<text text-anchor="middle" x="1465.11" y="-125" font-family="Helvetica,sans-Serif" font-size="10.00">unordered_map</text>
</a>
</g>
</g>
<!-- Node1&#45;&gt;Node2 -->
<g id="edge1" class="edge">
<title>Node1&#45;&gt;Node2</title>
<path fill="none" stroke="midnightblue" d="M1749.49,-403.42C1789.62,-389.34 1858.11,-357.21 1858.11,-302 1858.11,-302 1858.11,-302 1858.11,-244 1858.11,-213.9 1861.92,-198.63 1839.11,-179 1833.13,-173.86 1625,-147.94 1521.87,-135.36"/>
<polygon fill="midnightblue" stroke="midnightblue" points="1522.28,-131.89 1511.93,-134.15 1521.43,-138.83 1522.28,-131.89"/>
</g>
<!-- Node3 -->
<g id="node3" class="node">
<title>Node3</title>
<g id="a_node3"><a xlink:href="configuration_8hpp.html" target="_top" xlink:title=" ">
<polygon fill="none" stroke="black" points="1886.61,-347.5 1886.61,-366.5 1987.61,-366.5 1987.61,-347.5 1886.61,-347.5"/>
<text text-anchor="middle" x="1937.11" y="-354.5" font-family="Helvetica,sans-Serif" font-size="10.00">configuration.hpp</text>
</a>
</g>
</g>
<!-- Node1&#45;&gt;Node3 -->
<g id="edge2" class="edge">
<title>Node1&#45;&gt;Node3</title>
<path fill="none" stroke="midnightblue" d="M1755.33,-403.44C1792.62,-394.12 1852.37,-379.18 1893.12,-369"/>
<polygon fill="midnightblue" stroke="midnightblue" points="1894.19,-372.34 1903.04,-366.52 1892.49,-365.55 1894.19,-372.34"/>
</g>
<!-- Node4 -->
<g id="node4" class="node">
<title>Node4</title>
<g id="a_node4"><a xlink:href="logger_8hpp.html" target="_top" xlink:title="A simple logger class so difference classes have access to the same logger.">
<polygon fill="none" stroke="black" points="1369.11,-347.5 1369.11,-366.5 1437.11,-366.5 1437.11,-347.5 1369.11,-347.5"/>
<text text-anchor="middle" x="1403.11" y="-354.5" font-family="Helvetica,sans-Serif" font-size="10.00">logger.hpp</text>
</a>
</g>
</g>
<!-- Node1&#45;&gt;Node4 -->
<g id="edge3" class="edge">
<title>Node1&#45;&gt;Node4</title>
<path fill="none" stroke="midnightblue" d="M1670.72,-403.44C1609.09,-392.98 1505.77,-375.43 1447.18,-365.48"/>
<polygon fill="midnightblue" stroke="midnightblue" points="1447.57,-362 1437.12,-363.78 1446.4,-368.9 1447.57,-362"/>
</g>
<!-- Node5 -->
<g id="node5" class="node">
<title>Node5</title>
<g id="a_node5"><a xlink:href="shared__data_8hpp.html" target="_top" xlink:title="Contains the SharedData struct, used across all modules and extensions.">
<polygon fill="none" stroke="black" points="1182.11,-291.5 1182.11,-310.5 1280.11,-310.5 1280.11,-291.5 1182.11,-291.5"/>
<text text-anchor="middle" x="1231.11" y="-298.5" font-family="Helvetica,sans-Serif" font-size="10.00">shared_data.hpp</text>
</a>
</g>
</g>
<!-- Node1&#45;&gt;Node5 -->
<g id="edge67" class="edge">
<title>Node1&#45;&gt;Node5</title>
<path fill="none" stroke="midnightblue" d="M1686.01,-403.4C1633.8,-390.67 1532.54,-366.26 1446.11,-347 1390.68,-334.65 1326.99,-321.44 1283.41,-312.55"/>
<polygon fill="midnightblue" stroke="midnightblue" points="1284.1,-309.12 1273.6,-310.56 1282.7,-315.98 1284.1,-309.12"/>
</g>
<!-- Node4&#45;&gt;Node5 -->
<g id="edge4" class="edge">
<title>Node4&#45;&gt;Node5</title>
<path fill="none" stroke="midnightblue" d="M1375.85,-347.44C1346.66,-338.28 1300.18,-323.69 1267.8,-313.52"/>
<polygon fill="midnightblue" stroke="midnightblue" points="1268.82,-310.17 1258.23,-310.52 1266.72,-316.85 1268.82,-310.17"/>
</g>
<!-- Node6 -->
<g id="node6" class="node">
<title>Node6</title>
<g id="a_node6"><a xlink:title=" ">
<polygon fill="none" stroke="#bfbfbf" points="841.61,-56.5 841.61,-75.5 966.61,-75.5 966.61,-56.5 841.61,-56.5"/>
<text text-anchor="middle" x="904.11" y="-63.5" font-family="Helvetica,sans-Serif" font-size="10.00">BoosterSeat/clock.hpp</text>
</a>
</g>
</g>
<!-- Node5&#45;&gt;Node6 -->
<g id="edge5" class="edge">
<title>Node5&#45;&gt;Node6</title>
<path fill="none" stroke="midnightblue" d="M1189.8,-291.44C1122.43,-275.17 989.86,-233.05 924.11,-143 911.82,-126.17 907.07,-102.37 905.24,-85.9"/>
<polygon fill="midnightblue" stroke="midnightblue" points="908.72,-85.52 904.39,-75.85 901.75,-86.11 908.72,-85.52"/>
</g>
<!-- Node7 -->
<g id="node7" class="node">
<title>Node7</title>
<g id="a_node7"><a xlink:title=" ">
<polygon fill="none" stroke="#bfbfbf" points="1282.11,-56.5 1282.11,-75.5 1404.11,-75.5 1404.11,-56.5 1282.11,-56.5"/>
<text text-anchor="middle" x="1343.11" y="-63.5" font-family="Helvetica,sans-Serif" font-size="10.00">BoosterSeat/time.hpp</text>
</a>
</g>
</g>
<!-- Node5&#45;&gt;Node7 -->
<g id="edge6" class="edge">
<title>Node5&#45;&gt;Node7</title>
<path fill="none" stroke="midnightblue" d="M1279.09,-291.48C1348.87,-276.08 1474.95,-236.12 1520.11,-143 1526.12,-130.6 1528.56,-122.88 1520.11,-112 1506.83,-94.93 1457.47,-83.28 1414.24,-76.11"/>
<polygon fill="midnightblue" stroke="midnightblue" points="1414.69,-72.64 1404.27,-74.52 1413.59,-79.56 1414.69,-72.64"/>
</g>
<!-- Node8 -->
<g id="node8" class="node">
<title>Node8</title>
<g id="a_node8"><a xlink:href="blocks_8hpp.html" target="_top" xlink:title=" ">
<polygon fill="none" stroke="black" points="1102.61,-179.5 1102.61,-198.5 1171.61,-198.5 1171.61,-179.5 1102.61,-179.5"/>
<text text-anchor="middle" x="1137.11" y="-186.5" font-family="Helvetica,sans-Serif" font-size="10.00">blocks.hpp</text>
</a>
</g>
</g>
<!-- Node5&#45;&gt;Node8 -->
<g id="edge7" class="edge">
<title>Node5&#45;&gt;Node8</title>
<path fill="none" stroke="midnightblue" d="M1223.73,-291.37C1208.08,-273.05 1171.33,-230.05 1151.09,-206.36"/>
<polygon fill="midnightblue" stroke="midnightblue" points="1153.6,-203.92 1144.45,-198.59 1148.28,-208.47 1153.6,-203.92"/>
</g>
<!-- Node18 -->
<g id="node18" class="node">
<title>Node18</title>
<g id="a_node18"><a xlink:href="error__frame_8hpp.html" target="_top" xlink:title="The error frame.">
<polygon fill="none" stroke="black" points="694.61,-235.5 694.61,-254.5 789.61,-254.5 789.61,-235.5 694.61,-235.5"/>
<text text-anchor="middle" x="742.11" y="-242.5" font-family="Helvetica,sans-Serif" font-size="10.00">error_frame.hpp</text>
</a>
</g>
</g>
<!-- Node5&#45;&gt;Node18 -->
<g id="edge26" class="edge">
<title>Node5&#45;&gt;Node18</title>
<path fill="none" stroke="midnightblue" d="M1182,-295.2C1103.25,-287.41 943.89,-271.24 809.11,-255 806.06,-254.63 802.93,-254.25 799.78,-253.85"/>
<polygon fill="midnightblue" stroke="midnightblue" points="800.03,-250.35 789.67,-252.55 799.14,-257.3 800.03,-250.35"/>
</g>
<!-- Node19 -->
<g id="node19" class="node">
<title>Node19</title>
<g id="a_node19"><a xlink:href="frame_8hpp.html" target="_top" xlink:title=" ">
<polygon fill="none" stroke="black" points="770.61,-179.5 770.61,-198.5 837.61,-198.5 837.61,-179.5 770.61,-179.5"/>
<text text-anchor="middle" x="804.11" y="-186.5" font-family="Helvetica,sans-Serif" font-size="10.00">frame.hpp</text>
</a>
</g>
</g>
<!-- Node5&#45;&gt;Node19 -->
<g id="edge60" class="edge">
<title>Node5&#45;&gt;Node19</title>
<path fill="none" stroke="midnightblue" d="M1181.85,-298.95C1092.31,-296.27 907.03,-286.92 852.11,-255 833.58,-244.23 820.07,-223.17 812.19,-207.94"/>
<polygon fill="midnightblue" stroke="midnightblue" points="815.14,-206 807.64,-198.52 808.84,-209.04 815.14,-206"/>
</g>
<!-- Node21 -->
<g id="node21" class="node">
<title>Node21</title>
<g id="a_node21"><a xlink:href="streams_8hpp.html" target="_top" xlink:title="The header file for the data streams.">
<polygon fill="none" stroke="black" points="534.61,-179.5 534.61,-198.5 611.61,-198.5 611.61,-179.5 534.61,-179.5"/>
<text text-anchor="middle" x="573.11" y="-186.5" font-family="Helvetica,sans-Serif" font-size="10.00">streams.hpp</text>
</a>
</g>
</g>
<!-- Node5&#45;&gt;Node21 -->
<g id="edge66" class="edge">
<title>Node5&#45;&gt;Node21</title>
<path fill="none" stroke="midnightblue" d="M1182,-298.72C1065.86,-295.24 777.1,-283.87 685.11,-255 649.82,-243.93 613.64,-220.25 592.28,-204.73"/>
<polygon fill="midnightblue" stroke="midnightblue" points="594.19,-201.8 584.08,-198.64 590.02,-207.42 594.19,-201.8"/>
</g>
<!-- Node29 -->
<g id="node29" class="node">
<title>Node29</title>
<g id="a_node29"><a xlink:href="flight__data_8hpp.html" target="_top" xlink:title=" ">
<polygon fill="none" stroke="black" points="1478.61,-235.5 1478.61,-254.5 1567.61,-254.5 1567.61,-235.5 1478.61,-235.5"/>
<text text-anchor="middle" x="1523.11" y="-242.5" font-family="Helvetica,sans-Serif" font-size="10.00">flight_data.hpp</text>
</a>
</g>
</g>
<!-- Node5&#45;&gt;Node29 -->
<g id="edge49" class="edge">
<title>Node5&#45;&gt;Node29</title>
<path fill="none" stroke="midnightblue" d="M1277.37,-291.44C1329.3,-281.84 1413.47,-266.28 1468.56,-256.09"/>
<polygon fill="midnightblue" stroke="midnightblue" points="1469.29,-259.51 1478.49,-254.25 1468.02,-252.63 1469.29,-259.51"/>
</g>
<!-- Node30 -->
<g id="node30" class="node">
<title>Node30</title>
<g id="a_node30"><a xlink:href="flight__phase_8hpp.html" target="_top" xlink:title="Contains the flight phase enum and related functions.">
<polygon fill="none" stroke="black" points="1732.61,-179.5 1732.61,-198.5 1829.61,-198.5 1829.61,-179.5 1732.61,-179.5"/>
<text text-anchor="middle" x="1781.11" y="-186.5" font-family="Helvetica,sans-Serif" font-size="10.00">flight_phase.hpp</text>
</a>
</g>
</g>
<!-- Node5&#45;&gt;Node30 -->
<g id="edge59" class="edge">
<title>Node5&#45;&gt;Node30</title>
<path fill="none" stroke="midnightblue" d="M1280.29,-296.39C1347.82,-290.81 1472.74,-278.22 1577.11,-255 1639.32,-241.16 1709.71,-216.7 1749.42,-202.05"/>
<polygon fill="midnightblue" stroke="midnightblue" points="1750.67,-205.32 1758.83,-198.55 1748.23,-198.76 1750.67,-205.32"/>
</g>
<!-- Node32 -->
<g id="node32" class="node">
<title>Node32</title>
<g id="a_node32"><a xlink:href="log__container_8hpp.html" target="_top" xlink:title="A simple logging system for debugging.">
<polygon fill="none" stroke="black" points="209.61,-235.5 209.61,-254.5 312.61,-254.5 312.61,-235.5 209.61,-235.5"/>
<text text-anchor="middle" x="261.11" y="-242.5" font-family="Helvetica,sans-Serif" font-size="10.00">log_container.hpp</text>
</a>
</g>
</g>
<!-- Node5&#45;&gt;Node32 -->
<g id="edge61" class="edge">
<title>Node5&#45;&gt;Node32</title>
<path fill="none" stroke="midnightblue" d="M1182,-297.27C1019.93,-288.24 502.15,-259.42 322.89,-249.44"/>
<polygon fill="midnightblue" stroke="midnightblue" points="323.02,-245.94 312.84,-248.88 322.63,-252.93 323.02,-245.94"/>
</g>
<!-- Node34 -->
<g id="node34" class="node">
<title>Node34</title>
<g id="a_node34"><a xlink:href="status__led_8hpp.html" target="_top" xlink:title="RGB Status LED extension header file.">
<polygon fill="none" stroke="black" points="1281.11,-235.5 1281.11,-254.5 1369.11,-254.5 1369.11,-235.5 1281.11,-235.5"/>
<text text-anchor="middle" x="1325.11" y="-242.5" font-family="Helvetica,sans-Serif" font-size="10.00">status_led.hpp</text>
</a>
</g>
</g>
<!-- Node5&#45;&gt;Node34 -->
<g id="edge64" class="edge">
<title>Node5&#45;&gt;Node34</title>
<path fill="none" stroke="midnightblue" d="M1246.21,-291.32C1261.01,-282.82 1283.8,-269.73 1301.09,-259.8"/>
<polygon fill="midnightblue" stroke="midnightblue" points="1303.11,-262.67 1310.04,-254.65 1299.63,-256.6 1303.11,-262.67"/>
</g>
<!-- Node8&#45;&gt;Node6 -->
<g id="edge9" class="edge">
<title>Node8&#45;&gt;Node6</title>
<path fill="none" stroke="midnightblue" d="M1102.54,-180.41C1073.75,-173.24 1032.26,-160.9 999.11,-143 982.8,-134.2 944.22,-101.76 921.56,-82.22"/>
<polygon fill="midnightblue" stroke="midnightblue" points="923.85,-79.58 914,-75.67 919.27,-84.87 923.85,-79.58"/>
</g>
<!-- Node8&#45;&gt;Node7 -->
<g id="edge11" class="edge">
<title>Node8&#45;&gt;Node7</title>
<path fill="none" stroke="midnightblue" d="M1171.94,-186.38C1208.02,-183.05 1264.32,-173.01 1302.11,-143 1320.77,-128.18 1332.07,-102.45 1337.95,-85.08"/>
<polygon fill="midnightblue" stroke="midnightblue" points="1341.29,-86.11 1340.93,-75.52 1334.61,-84.03 1341.29,-86.11"/>
</g>
<!-- Node8&#45;&gt;Node8 -->
<g id="edge12" class="edge">
<title>Node8&#45;&gt;Node8</title>
<path fill="none" stroke="midnightblue" d="M1159.5,-198.53C1174.71,-201.31 1189.61,-198.13 1189.61,-189 1189.61,-181.94 1180.7,-178.44 1169.62,-178.5"/>
<polygon fill="midnightblue" stroke="midnightblue" points="1169.12,-175.03 1159.5,-179.47 1169.79,-182 1169.12,-175.03"/>
</g>
<!-- Node9 -->
<g id="node9" class="node">
<title>Node9</title>
<g id="a_node9"><a xlink:title=" ">
<polygon fill="none" stroke="#bfbfbf" points="528.11,-56.5 528.11,-75.5 576.11,-75.5 576.11,-56.5 528.11,-56.5"/>
<text text-anchor="middle" x="552.11" y="-63.5" font-family="Helvetica,sans-Serif" font-size="10.00">mutex</text>
</a>
</g>
</g>
<!-- Node8&#45;&gt;Node9 -->
<g id="edge8" class="edge">
<title>Node8&#45;&gt;Node9</title>
<path fill="none" stroke="midnightblue" d="M1102.4,-182.96C1052.84,-175.53 959.02,-160.6 880.11,-143 828.86,-131.57 817.15,-124.3 766.11,-112 702.99,-96.8 628.7,-81.82 586.34,-73.56"/>
<polygon fill="midnightblue" stroke="midnightblue" points="586.76,-70.08 576.28,-71.61 585.43,-76.95 586.76,-70.08"/>
</g>
<!-- Node10 -->
<g id="node10" class="node">
<title>Node10</title>
<g id="a_node10"><a xlink:title=" ">
<polygon fill="none" stroke="#bfbfbf" points="1150.61,-118 1150.61,-137 1293.61,-137 1293.61,-118 1150.61,-118"/>
<text text-anchor="middle" x="1222.11" y="-125" font-family="Helvetica,sans-Serif" font-size="10.00">BoosterSeat/numbers.hpp</text>
</a>
</g>
</g>
<!-- Node8&#45;&gt;Node10 -->
<g id="edge10" class="edge">
<title>Node8&#45;&gt;Node10</title>
<path fill="none" stroke="midnightblue" d="M1149.28,-179.48C1162.92,-169.93 1185.24,-154.31 1201.58,-142.87"/>
<polygon fill="midnightblue" stroke="midnightblue" points="1203.76,-145.61 1209.95,-137.01 1199.75,-139.88 1203.76,-145.61"/>
</g>
<!-- Node11 -->
<g id="node11" class="node">
<title>Node11</title>
<g id="a_node11"><a xlink:href="json_8hpp.html" target="_top" xlink:title="Simple wrapper around nlohmann/json.hpp to provide a common interface.">
<polygon fill="none" stroke="black" points="1606.11,-118 1606.11,-137 1664.11,-137 1664.11,-118 1606.11,-118"/>
<text text-anchor="middle" x="1635.11" y="-125" font-family="Helvetica,sans-Serif" font-size="10.00">json.hpp</text>
</a>
</g>
</g>
<!-- Node8&#45;&gt;Node11 -->
<g id="edge13" class="edge">
<title>Node8&#45;&gt;Node11</title>
<path fill="none" stroke="midnightblue" d="M1171.71,-184.03C1238.89,-176.31 1391.67,-158.64 1520.11,-143 1545.28,-139.93 1573.54,-136.37 1595.75,-133.55"/>
<polygon fill="midnightblue" stroke="midnightblue" points="1596.33,-137 1605.81,-132.26 1595.45,-130.06 1596.33,-137"/>
</g>
<!-- Node14 -->
<g id="node14" class="node">
<title>Node14</title>
<g id="a_node14"><a xlink:href="node_8hpp.html" target="_top" xlink:title="Contains structures that are used to identify components of the flight system.">
<polygon fill="none" stroke="black" points="761.11,-56.5 761.11,-75.5 823.11,-75.5 823.11,-56.5 761.11,-56.5"/>
<text text-anchor="middle" x="792.11" y="-63.5" font-family="Helvetica,sans-Serif" font-size="10.00">node.hpp</text>
</a>
</g>
</g>
<!-- Node8&#45;&gt;Node14 -->
<g id="edge16" class="edge">
<title>Node8&#45;&gt;Node14</title>
<path fill="none" stroke="midnightblue" d="M1102.51,-181.44C1065.65,-173.99 1005.88,-160.54 956.11,-143 905.14,-125.04 848.54,-96.86 816.94,-80.33"/>
<polygon fill="midnightblue" stroke="midnightblue" points="818.45,-77.17 807.97,-75.6 815.19,-83.36 818.45,-77.17"/>
</g>
<!-- Node17 -->
<g id="node17" class="node">
<title>Node17</title>
<g id="a_node17"><a xlink:href="positional_8hpp.html" target="_top" xlink:title="Positional data for the flight system (gps/imu data)">
<polygon fill="none" stroke="black" points="1008.11,-118 1008.11,-137 1094.11,-137 1094.11,-118 1008.11,-118"/>
<text text-anchor="middle" x="1051.11" y="-125" font-family="Helvetica,sans-Serif" font-size="10.00">positional.hpp</text>
</a>
</g>
</g>
<!-- Node8&#45;&gt;Node17 -->
<g id="edge19" class="edge">
<title>Node8&#45;&gt;Node17</title>
<path fill="none" stroke="midnightblue" d="M1124.78,-179.48C1110.99,-169.93 1088.41,-154.31 1071.87,-142.87"/>
<polygon fill="midnightblue" stroke="midnightblue" points="1073.62,-139.82 1063.4,-137.01 1069.64,-145.58 1073.62,-139.82"/>
</g>
<!-- Node12 -->
<g id="node12" class="node">
<title>Node12</title>
<g id="a_node12"><a xlink:title=" ">
<polygon fill="none" stroke="#bfbfbf" points="1443.11,-56.5 1443.11,-75.5 1553.11,-75.5 1553.11,-56.5 1443.11,-56.5"/>
<text text-anchor="middle" x="1498.11" y="-63.5" font-family="Helvetica,sans-Serif" font-size="10.00">nlohmann/json.hpp</text>
</a>
</g>
</g>
<!-- Node11&#45;&gt;Node12 -->
<g id="edge14" class="edge">
<title>Node11&#45;&gt;Node12</title>
<path fill="none" stroke="midnightblue" d="M1615.48,-117.98C1592.28,-107.9 1553.49,-91.05 1526.89,-79.5"/>
<polygon fill="midnightblue" stroke="midnightblue" points="1528.26,-76.28 1517.7,-75.51 1525.48,-82.7 1528.26,-76.28"/>
</g>
<!-- Node13 -->
<g id="node13" class="node">
<title>Node13</title>
<g id="a_node13"><a xlink:title=" ">
<polygon fill="none" stroke="#bfbfbf" points="1613.11,-56.5 1613.11,-75.5 1657.11,-75.5 1657.11,-56.5 1613.11,-56.5"/>
<text text-anchor="middle" x="1635.11" y="-63.5" font-family="Helvetica,sans-Serif" font-size="10.00">string</text>
</a>
</g>
</g>
<!-- Node11&#45;&gt;Node13 -->
<g id="edge15" class="edge">
<title>Node11&#45;&gt;Node13</title>
<path fill="none" stroke="midnightblue" d="M1635.11,-117.98C1635.11,-109.58 1635.11,-96.48 1635.11,-85.66"/>
<polygon fill="midnightblue" stroke="midnightblue" points="1638.61,-85.51 1635.11,-75.51 1631.61,-85.51 1638.61,-85.51"/>
</g>
<!-- Node15 -->
<g id="node15" class="node">
<title>Node15</title>
<g id="a_node15"><a xlink:title=" ">
<polygon fill="none" stroke="#bfbfbf" points="861.11,-0.5 861.11,-19.5 911.11,-19.5 911.11,-0.5 861.11,-0.5"/>
<text text-anchor="middle" x="886.11" y="-7.5" font-family="Helvetica,sans-Serif" font-size="10.00">cstdint</text>
</a>
</g>
</g>
<!-- Node14&#45;&gt;Node15 -->
<g id="edge17" class="edge">
<title>Node14&#45;&gt;Node15</title>
<path fill="none" stroke="midnightblue" d="M807.21,-56.32C822.01,-47.82 844.8,-34.73 862.09,-24.8"/>
<polygon fill="midnightblue" stroke="midnightblue" points="864.11,-27.67 871.04,-19.65 860.63,-21.6 864.11,-27.67"/>
</g>
<!-- Node16 -->
<g id="node16" class="node">
<title>Node16</title>
<g id="a_node16"><a xlink:title=" ">
<polygon fill="none" stroke="#bfbfbf" points="976.11,-0.5 976.11,-19.5 1014.11,-19.5 1014.11,-0.5 976.11,-0.5"/>
<text text-anchor="middle" x="995.11" y="-7.5" font-family="Helvetica,sans-Serif" font-size="10.00">map</text>
</a>
</g>
</g>
<!-- Node14&#45;&gt;Node16 -->
<g id="edge18" class="edge">
<title>Node14&#45;&gt;Node16</title>
<path fill="none" stroke="midnightblue" d="M823.38,-56.68C862.32,-46.32 928.29,-28.77 966.13,-18.71"/>
<polygon fill="midnightblue" stroke="midnightblue" points="967.24,-22.03 976.01,-16.08 965.44,-15.27 967.24,-22.03"/>
</g>
<!-- Node17&#45;&gt;Node6 -->
<g id="edge24" class="edge">
<title>Node17&#45;&gt;Node6</title>
<path fill="none" stroke="midnightblue" d="M1030.04,-117.98C1005.05,-107.86 963.16,-90.9 934.62,-79.35"/>
<polygon fill="midnightblue" stroke="midnightblue" points="935.71,-76.02 925.13,-75.51 933.08,-82.51 935.71,-76.02"/>
</g>
<!-- Node17&#45;&gt;Node7 -->
<g id="edge25" class="edge">
<title>Node17&#45;&gt;Node7</title>
<path fill="none" stroke="midnightblue" d="M1083.28,-117.96C1091.36,-115.91 1100.03,-113.8 1108.11,-112 1167.6,-98.75 1236.1,-85.9 1283.73,-77.35"/>
<polygon fill="midnightblue" stroke="midnightblue" points="1284.64,-80.75 1293.87,-75.54 1283.41,-73.86 1284.64,-80.75"/>
</g>
<!-- Node17&#45;&gt;Node12 -->
<g id="edge23" class="edge">
<title>Node17&#45;&gt;Node12</title>
<path fill="none" stroke="midnightblue" d="M1081.41,-117.99C1089.99,-115.8 1099.37,-113.61 1108.11,-112 1139.2,-106.28 1330.15,-85.21 1432.85,-74.04"/>
<polygon fill="midnightblue" stroke="midnightblue" points="1433.25,-77.52 1442.81,-72.96 1432.49,-70.56 1433.25,-77.52"/>
</g>
<!-- Node17&#45;&gt;Node13 -->
<g id="edge22" class="edge">
<title>Node17&#45;&gt;Node13</title>
<path fill="none" stroke="midnightblue" d="M1080.78,-117.93C1089.52,-115.69 1099.14,-113.48 1108.11,-112 1307.8,-78.93 1360.72,-96.39 1562.11,-76 1575.51,-74.64 1590.25,-72.88 1602.97,-71.27"/>
<polygon fill="midnightblue" stroke="midnightblue" points="1603.62,-74.71 1613.09,-69.97 1602.73,-67.77 1603.62,-74.71"/>
</g>
<!-- Node17&#45;&gt;Node15 -->
<g id="edge20" class="edge">
<title>Node17&#45;&gt;Node15</title>
<path fill="none" stroke="midnightblue" d="M1043.33,-117.86C1030.25,-103.67 1002.58,-75.12 975.11,-56 956.76,-43.23 934.28,-31.9 916.51,-23.8"/>
<polygon fill="midnightblue" stroke="midnightblue" points="917.73,-20.51 907.17,-19.64 914.89,-26.91 917.73,-20.51"/>
</g>
<!-- Node17&#45;&gt;Node16 -->
<g id="edge21" class="edge">
<title>Node17&#45;&gt;Node16</title>
<path fill="none" stroke="midnightblue" d="M1046.9,-117.82C1037.78,-99.01 1016.03,-54.15 1003.81,-28.96"/>
<polygon fill="midnightblue" stroke="midnightblue" points="1006.88,-27.25 999.36,-19.78 1000.58,-30.31 1006.88,-27.25"/>
</g>
<!-- Node18&#45;&gt;Node6 -->
<g id="edge27" class="edge">
<title>Node18&#45;&gt;Node6</title>
<path fill="none" stroke="midnightblue" d="M743.57,-235.19C745.95,-222.3 751.39,-197.8 761.11,-179 778.53,-145.27 784.64,-135.95 814.11,-112 831.03,-98.24 852.86,-87.2 870.78,-79.49"/>
<polygon fill="midnightblue" stroke="midnightblue" points="872.38,-82.62 880.28,-75.56 869.7,-76.15 872.38,-82.62"/>
</g>
<!-- Node18&#45;&gt;Node19 -->
<g id="edge28" class="edge">
<title>Node18&#45;&gt;Node19</title>
<path fill="none" stroke="midnightblue" d="M752.07,-235.32C761.23,-227.34 775.04,-215.31 786.13,-205.65"/>
<polygon fill="midnightblue" stroke="midnightblue" points="788.72,-208.04 793.96,-198.83 784.12,-202.76 788.72,-208.04"/>
</g>
<!-- Node20 -->
<g id="node20" class="node">
<title>Node20</title>
<g id="a_node20"><a xlink:href="giraffe__diagnostic__ids_8hpp.html" target="_top" xlink:title=" ">
<polygon fill="none" stroke="black" points="620.11,-112.5 620.11,-142.5 724.11,-142.5 724.11,-112.5 620.11,-112.5"/>
<text text-anchor="start" x="628.11" y="-130.5" font-family="Helvetica,sans-Serif" font-size="10.00">giraffe_diagnostic</text>
<text text-anchor="middle" x="672.11" y="-119.5" font-family="Helvetica,sans-Serif" font-size="10.00">_ids.hpp</text>
</a>
</g>
</g>
<!-- Node18&#45;&gt;Node20 -->
<g id="edge31" class="edge">
<title>Node18&#45;&gt;Node20</title>
<path fill="none" stroke="midnightblue" d="M736.84,-235.32C726.14,-217.66 701.52,-177.04 685.92,-151.29"/>
<polygon fill="midnightblue" stroke="midnightblue" points="688.79,-149.28 680.62,-142.55 682.81,-152.91 688.79,-149.28"/>
</g>
<!-- Node18&#45;&gt;Node21 -->
<g id="edge32" class="edge">
<title>Node18&#45;&gt;Node21</title>
<path fill="none" stroke="midnightblue" d="M715.33,-235.44C686.77,-226.32 641.37,-211.81 609.57,-201.65"/>
<polygon fill="midnightblue" stroke="midnightblue" points="610.35,-198.23 599.76,-198.52 608.22,-204.89 610.35,-198.23"/>
</g>
<!-- Node19&#45;&gt;Node2 -->
<g id="edge30" class="edge">
<title>Node19&#45;&gt;Node2</title>
<path fill="none" stroke="midnightblue" d="M837.8,-187.6C929.93,-186.07 1193.48,-178.64 1409.11,-143 1414.68,-142.08 1420.51,-140.86 1426.21,-139.52"/>
<polygon fill="midnightblue" stroke="midnightblue" points="1427.39,-142.84 1436.25,-137.02 1425.7,-136.04 1427.39,-142.84"/>
</g>
<!-- Node19&#45;&gt;Node9 -->
<g id="edge29" class="edge">
<title>Node19&#45;&gt;Node9</title>
<path fill="none" stroke="midnightblue" d="M798.62,-179.42C787.99,-163.54 762.99,-129.57 733.11,-112 686.8,-84.77 624.49,-73.94 586.38,-69.68"/>
<polygon fill="midnightblue" stroke="midnightblue" points="586.6,-66.19 576.3,-68.65 585.89,-73.15 586.6,-66.19"/>
</g>
<!-- Node21&#45;&gt;Node6 -->
<g id="edge38" class="edge">
<title>Node21&#45;&gt;Node6</title>
<path fill="none" stroke="midnightblue" d="M574.75,-179.25C578.29,-163.09 588.22,-128.68 611.11,-112 619.99,-105.53 747.45,-87.66 831.31,-76.48"/>
<polygon fill="midnightblue" stroke="midnightblue" points="831.85,-79.94 841.31,-75.16 830.93,-73 831.85,-79.94"/>
</g>
<!-- Node21&#45;&gt;Node9 -->
<g id="edge35" class="edge">
<title>Node21&#45;&gt;Node9</title>
<path fill="none" stroke="midnightblue" d="M564.09,-179.34C556.03,-170.93 544.81,-157.36 540.11,-143 533.83,-123.81 539.14,-100.8 544.55,-85.15"/>
<polygon fill="midnightblue" stroke="midnightblue" points="547.89,-86.23 548.17,-75.64 541.34,-83.74 547.89,-86.23"/>
</g>
<!-- Node21&#45;&gt;Node13 -->
<g id="edge37" class="edge">
<title>Node21&#45;&gt;Node13</title>
<path fill="none" stroke="midnightblue" d="M611.88,-186.03C726.4,-180.04 1057.9,-161.29 1103.11,-143 1123.31,-134.82 1120.9,-120.18 1141.11,-112 1228.14,-76.75 1468.72,-85.75 1562.11,-76 1575.5,-74.6 1590.25,-72.83 1602.96,-71.23"/>
<polygon fill="midnightblue" stroke="midnightblue" points="1603.61,-74.67 1613.09,-69.93 1602.73,-67.73 1603.61,-74.67"/>
</g>
<!-- Node21&#45;&gt;Node14 -->
<g id="edge47" class="edge">
<title>Node21&#45;&gt;Node14</title>
<path fill="none" stroke="midnightblue" d="M570.65,-179.23C566.86,-163.65 561.64,-130.98 578.11,-112 600.25,-86.47 695.09,-74.69 750.8,-69.88"/>
<polygon fill="midnightblue" stroke="midnightblue" points="751.38,-73.34 761.06,-69.03 750.81,-66.36 751.38,-73.34"/>
</g>
<!-- Node21&#45;&gt;Node17 -->
<g id="edge48" class="edge">
<title>Node21&#45;&gt;Node17</title>
<path fill="none" stroke="midnightblue" d="M611.82,-183.18C696.95,-172.58 900.57,-147.24 997.74,-135.14"/>
<polygon fill="midnightblue" stroke="midnightblue" points="998.44,-138.58 1007.93,-133.87 997.57,-131.64 998.44,-138.58"/>
</g>
<!-- Node21&#45;&gt;Node20 -->
<g id="edge46" class="edge">
<title>Node21&#45;&gt;Node20</title>
<path fill="none" stroke="midnightblue" d="M587.29,-179.48C600.95,-171.27 622.09,-158.56 639.85,-147.88"/>
<polygon fill="midnightblue" stroke="midnightblue" points="642.01,-150.67 648.77,-142.52 638.4,-144.67 642.01,-150.67"/>
</g>
<!-- Node22 -->
<g id="node22" class="node">
<title>Node22</title>
<g id="a_node22"><a xlink:title=" ">
<polygon fill="none" stroke="#bfbfbf" points="1350.11,-118 1350.11,-137 1400.11,-137 1400.11,-118 1350.11,-118"/>
<text text-anchor="middle" x="1375.11" y="-125" font-family="Helvetica,sans-Serif" font-size="10.00">atomic</text>
</a>
</g>
</g>
<!-- Node21&#45;&gt;Node22 -->
<g id="edge33" class="edge">
<title>Node21&#45;&gt;Node22</title>
<path fill="none" stroke="midnightblue" d="M611.99,-185.91C753.12,-178.27 1233.57,-151.88 1302.11,-143 1314.49,-141.39 1327.94,-138.93 1339.87,-136.49"/>
<polygon fill="midnightblue" stroke="midnightblue" points="1340.84,-139.86 1349.91,-134.37 1339.4,-133.02 1340.84,-139.86"/>
</g>
<!-- Node23 -->
<g id="node23" class="node">
<title>Node23</title>
<g id="a_node23"><a xlink:title=" ">
<polygon fill="none" stroke="#bfbfbf" points="286.11,-118 286.11,-137 346.11,-137 346.11,-118 286.11,-118"/>
<text text-anchor="middle" x="316.11" y="-125" font-family="Helvetica,sans-Serif" font-size="10.00">iostream</text>
</a>
</g>
</g>
<!-- Node21&#45;&gt;Node23 -->
<g id="edge34" class="edge">
<title>Node21&#45;&gt;Node23</title>
<path fill="none" stroke="midnightblue" d="M534.32,-181.14C491.4,-173.23 420.32,-159.23 360.11,-143 356.92,-142.14 353.63,-141.19 350.34,-140.19"/>
<polygon fill="midnightblue" stroke="midnightblue" points="351.22,-136.79 340.63,-137.11 349.11,-143.47 351.22,-136.79"/>
</g>
<!-- Node24 -->
<g id="node24" class="node">
<title>Node24</title>
<g id="a_node24"><a xlink:title=" ">
<polygon fill="none" stroke="#bfbfbf" points="338.61,-56.5 338.61,-75.5 385.61,-75.5 385.61,-56.5 338.61,-56.5"/>
<text text-anchor="middle" x="362.11" y="-63.5" font-family="Helvetica,sans-Serif" font-size="10.00">queue</text>
</a>
</g>
</g>
<!-- Node21&#45;&gt;Node24 -->
<g id="edge36" class="edge">
<title>Node21&#45;&gt;Node24</title>
<path fill="none" stroke="midnightblue" d="M534.44,-188.1C494.52,-186.18 432.66,-177.29 393.11,-143 376.15,-128.3 368.32,-102.92 364.81,-85.57"/>
<polygon fill="midnightblue" stroke="midnightblue" points="368.23,-84.77 363.07,-75.51 361.33,-85.96 368.23,-84.77"/>
</g>
<!-- Node25 -->
<g id="node25" class="node">
<title>Node25</title>
<g id="a_node25"><a xlink:title=" ">
<polygon fill="none" stroke="#bfbfbf" points="23.11,-118 23.11,-137 171.11,-137 171.11,-118 23.11,-118"/>
<text text-anchor="middle" x="97.11" y="-125" font-family="Helvetica,sans-Serif" font-size="10.00">BoosterSeat/exception.hpp</text>
</a>
</g>
</g>
<!-- Node21&#45;&gt;Node25 -->
<g id="edge39" class="edge">
<title>Node21&#45;&gt;Node25</title>
<path fill="none" stroke="midnightblue" d="M534.52,-184.34C463.99,-177.49 309.59,-161.71 180.11,-143 171.37,-141.74 162.15,-140.27 153.15,-138.75"/>
<polygon fill="midnightblue" stroke="midnightblue" points="153.57,-135.28 143.13,-137.04 152.39,-142.17 153.57,-135.28"/>
</g>
<!-- Node26 -->
<g id="node26" class="node">
<title>Node26</title>
<g id="a_node26"><a xlink:href="command_8hpp.html" target="_top" xlink:title="The command/queue system for the flight system.">
<polygon fill="none" stroke="black" points="402.11,-118 402.11,-137 488.11,-137 488.11,-118 402.11,-118"/>
<text text-anchor="middle" x="445.11" y="-125" font-family="Helvetica,sans-Serif" font-size="10.00">command.hpp</text>
</a>
</g>
</g>
<!-- Node21&#45;&gt;Node26 -->
<g id="edge40" class="edge">
<title>Node21&#45;&gt;Node26</title>
<path fill="none" stroke="midnightblue" d="M554.77,-179.48C533.29,-169.49 497.48,-152.85 472.66,-141.31"/>
<polygon fill="midnightblue" stroke="midnightblue" points="473.95,-138.05 463.41,-137.01 471,-144.4 473.95,-138.05"/>
</g>
<!-- Node28 -->
<g id="node28" class="node">
<title>Node28</title>
<g id="a_node28"><a xlink:href="data__ids_8hpp.html" target="_top" xlink:title=" ">
<polygon fill="none" stroke="black" points="189.61,-118 189.61,-137 268.61,-137 268.61,-118 189.61,-118"/>
<text text-anchor="middle" x="229.11" y="-125" font-family="Helvetica,sans-Serif" font-size="10.00">data_ids.hpp</text>
</a>
</g>
</g>
<!-- Node21&#45;&gt;Node28 -->
<g id="edge45" class="edge">
<title>Node21&#45;&gt;Node28</title>
<path fill="none" stroke="midnightblue" d="M534.46,-183.91C477.63,-177.49 368.37,-163.61 277.11,-143 273,-142.07 268.73,-140.98 264.51,-139.81"/>
<polygon fill="midnightblue" stroke="midnightblue" points="265.41,-136.43 254.83,-137.01 263.46,-143.15 265.41,-136.43"/>
</g>
<!-- Node26&#45;&gt;Node9 -->
<g id="edge41" class="edge">
<title>Node26&#45;&gt;Node9</title>
<path fill="none" stroke="midnightblue" d="M460.44,-117.98C478.08,-108.17 507.27,-91.93 527.96,-80.42"/>
<polygon fill="midnightblue" stroke="midnightblue" points="529.76,-83.43 536.8,-75.51 526.36,-77.31 529.76,-83.43"/>
</g>
<!-- Node26&#45;&gt;Node14 -->
<g id="edge44" class="edge">
<title>Node26&#45;&gt;Node14</title>
<path fill="none" stroke="midnightblue" d="M488.35,-119.08C555.61,-107.55 684.4,-85.47 750.59,-74.12"/>
<polygon fill="midnightblue" stroke="midnightblue" points="751.39,-77.53 760.65,-72.39 750.21,-70.63 751.39,-77.53"/>
</g>
<!-- Node26&#45;&gt;Node24 -->
<g id="edge42" class="edge">
<title>Node26&#45;&gt;Node24</title>
<path fill="none" stroke="midnightblue" d="M433.21,-117.98C419.9,-108.43 398.11,-92.81 382.15,-81.37"/>
<polygon fill="midnightblue" stroke="midnightblue" points="384.14,-78.49 373.98,-75.51 380.06,-84.18 384.14,-78.49"/>
</g>
<!-- Node27 -->
<g id="node27" class="node">
<title>Node27</title>
<g id="a_node27"><a xlink:href="command__ids_8hpp.html" target="_top" xlink:title=" ">
<polygon fill="none" stroke="black" points="404.11,-56.5 404.11,-75.5 510.11,-75.5 510.11,-56.5 404.11,-56.5"/>
<text text-anchor="middle" x="457.11" y="-63.5" font-family="Helvetica,sans-Serif" font-size="10.00">command_ids.hpp</text>
</a>
</g>
</g>
<!-- Node26&#45;&gt;Node27 -->
<g id="edge43" class="edge">
<title>Node26&#45;&gt;Node27</title>
<path fill="none" stroke="midnightblue" d="M446.82,-117.98C448.54,-109.49 451.22,-96.2 453.41,-85.32"/>
<polygon fill="midnightblue" stroke="midnightblue" points="456.84,-86 455.39,-75.51 449.98,-84.62 456.84,-86"/>
</g>
<!-- Node29&#45;&gt;Node6 -->
<g id="edge52" class="edge">
<title>Node29&#45;&gt;Node6</title>
<path fill="none" stroke="midnightblue" d="M1478.36,-240.9C1383.56,-234.08 1165.31,-216.95 1093.11,-199 1028.47,-182.93 1005.64,-185.19 954.11,-143 934.88,-127.26 920.4,-102.16 912.09,-85.15"/>
<polygon fill="midnightblue" stroke="midnightblue" points="915.12,-83.36 907.73,-75.76 908.77,-86.3 915.12,-83.36"/>
</g>
<!-- Node29&#45;&gt;Node7 -->
<g id="edge53" class="edge">
<title>Node29&#45;&gt;Node7</title>
<path fill="none" stroke="midnightblue" d="M1525.34,-235.11C1528.55,-222.53 1534.78,-198.86 1541.11,-179 1546.27,-162.79 1551.17,-159.76 1554.11,-143 1556.48,-129.43 1562.77,-122.71 1554.11,-112 1544.93,-100.66 1468.83,-86.47 1410.63,-77.08"/>
<polygon fill="midnightblue" stroke="midnightblue" points="1411.15,-73.62 1400.72,-75.51 1410.04,-80.54 1411.15,-73.62"/>
</g>
<!-- Node29&#45;&gt;Node11 -->
<g id="edge58" class="edge">
<title>Node29&#45;&gt;Node11</title>
<path fill="none" stroke="midnightblue" d="M1526.73,-235.21C1532.52,-221.91 1544.88,-196.4 1561.11,-179 1574.99,-164.12 1594.01,-151.25 1609.29,-142.24"/>
<polygon fill="midnightblue" stroke="midnightblue" points="1611.29,-145.13 1618.24,-137.13 1607.82,-139.04 1611.29,-145.13"/>
</g>
<!-- Node29&#45;&gt;Node13 -->
<g id="edge51" class="edge">
<title>Node29&#45;&gt;Node13</title>
<path fill="none" stroke="midnightblue" d="M1563.53,-235.43C1609.03,-225.38 1677.62,-208.85 1685.11,-199 1696.45,-184.07 1694.16,-156.81 1673.11,-112 1668.02,-101.17 1659.64,-90.84 1652.05,-82.82"/>
<polygon fill="midnightblue" stroke="midnightblue" points="1654.41,-80.23 1644.87,-75.63 1649.46,-85.17 1654.41,-80.23"/>
</g>
<!-- Node29&#45;&gt;Node22 -->
<g id="edge50" class="edge">
<title>Node29&#45;&gt;Node22</title>
<path fill="none" stroke="midnightblue" d="M1511.98,-235.32C1486.91,-215.75 1425.74,-168.02 1394.36,-143.53"/>
<polygon fill="midnightblue" stroke="midnightblue" points="1396.4,-140.68 1386.36,-137.28 1392.09,-146.19 1396.4,-140.68"/>
</g>
<!-- Node29&#45;&gt;Node30 -->
<g id="edge54" class="edge">
<title>Node29&#45;&gt;Node30</title>
<path fill="none" stroke="midnightblue" d="M1563.99,-235.44C1609.09,-226 1681.72,-210.8 1730.41,-200.61"/>
<polygon fill="midnightblue" stroke="midnightblue" points="1731.35,-203.99 1740.42,-198.52 1729.91,-197.14 1731.35,-203.99"/>
</g>
<!-- Node31 -->
<g id="node31" class="node">
<title>Node31</title>
<g id="a_node31"><a xlink:href="i__built__in__test_8hpp.html" target="_top" xlink:title=" ">
<polygon fill="none" stroke="black" points="1570.11,-179.5 1570.11,-198.5 1676.11,-198.5 1676.11,-179.5 1570.11,-179.5"/>
<text text-anchor="middle" x="1623.11" y="-186.5" font-family="Helvetica,sans-Serif" font-size="10.00">i_built_in_test.hpp</text>
</a>
</g>
</g>
<!-- Node29&#45;&gt;Node31 -->
<g id="edge56" class="edge">
<title>Node29&#45;&gt;Node31</title>
<path fill="none" stroke="midnightblue" d="M1539.17,-235.32C1555.06,-226.74 1579.61,-213.49 1598.06,-203.52"/>
<polygon fill="midnightblue" stroke="midnightblue" points="1599.94,-206.49 1607.08,-198.65 1596.62,-200.33 1599.94,-206.49"/>
</g>
<!-- Node30&#45;&gt;Node13 -->
<g id="edge55" class="edge">
<title>Node30&#45;&gt;Node13</title>
<path fill="none" stroke="midnightblue" d="M1775.4,-179.09C1765.31,-163.85 1743,-132.45 1718.11,-112 1702.12,-98.87 1681.72,-87.74 1665.14,-79.84"/>
<polygon fill="midnightblue" stroke="midnightblue" points="1666.43,-76.58 1655.89,-75.57 1663.5,-82.94 1666.43,-76.58"/>
</g>
<!-- Node31&#45;&gt;Node11 -->
<g id="edge57" class="edge">
<title>Node31&#45;&gt;Node11</title>
<path fill="none" stroke="midnightblue" d="M1624.82,-179.48C1626.54,-170.99 1629.22,-157.7 1631.41,-146.82"/>
<polygon fill="midnightblue" stroke="midnightblue" points="1634.84,-147.5 1633.39,-137.01 1627.98,-146.12 1634.84,-147.5"/>
</g>
<!-- Node32&#45;&gt;Node9 -->
<g id="edge63" class="edge">
<title>Node32&#45;&gt;Node9</title>
<path fill="none" stroke="midnightblue" d="M209.53,-236C119.9,-220.09 -49.27,-180.05 14.11,-112 50.8,-72.6 429,-84.29 517.91,-75.46"/>
<polygon fill="midnightblue" stroke="midnightblue" points="518.61,-78.89 528.08,-74.14 517.71,-71.95 518.61,-78.89"/>
</g>
<!-- Node33 -->
<g id="node33" class="node">
<title>Node33</title>
<g id="a_node33"><a xlink:title=" ">
<polygon fill="none" stroke="#bfbfbf" points="237.61,-179.5 237.61,-198.5 284.61,-198.5 284.61,-179.5 237.61,-179.5"/>
<text text-anchor="middle" x="261.11" y="-186.5" font-family="Helvetica,sans-Serif" font-size="10.00">deque</text>
</a>
</g>
</g>
<!-- Node32&#45;&gt;Node33 -->
<g id="edge62" class="edge">
<title>Node32&#45;&gt;Node33</title>
<path fill="none" stroke="midnightblue" d="M261.11,-235.08C261.11,-228.01 261.11,-217.86 261.11,-208.99"/>
<polygon fill="midnightblue" stroke="midnightblue" points="264.61,-208.75 261.11,-198.75 257.61,-208.75 264.61,-208.75"/>
</g>
<!-- Node34&#45;&gt;Node22 -->
<g id="edge65" class="edge">
<title>Node34&#45;&gt;Node22</title>
<path fill="none" stroke="midnightblue" d="M1328.86,-235.32C1336.97,-216.59 1356.25,-172.05 1367.19,-146.79"/>
<polygon fill="midnightblue" stroke="midnightblue" points="1370.54,-147.85 1371.3,-137.28 1364.12,-145.07 1370.54,-147.85"/>
</g>
</g>
</svg>
