<?xml version="1.0" encoding="UTF-8" standalone="no"?>
<!DOCTYPE svg PUBLIC "-//W3C//DTD SVG 1.1//EN"
 "http://www.w3.org/Graphics/SVG/1.1/DTD/svg11.dtd">
<!-- Generated by graphviz version 2.43.0 (0)
 -->
<!-- Title: aprs_manager.hpp Pages: 1 -->
<svg width="2242pt" height="431pt"
 viewBox="0.00 0.00 2242.00 431.00" xmlns="http://www.w3.org/2000/svg" xmlns:xlink="http://www.w3.org/1999/xlink">
<g id="graph0" class="graph" transform="scale(1 1) rotate(0) translate(4 427)">
<title>aprs_manager.hpp</title>
<!-- Node1 -->
<g id="node1" class="node">
<title>Node1</title>
<g id="a_node1"><a xlink:title=" ">
<polygon fill="#bfbfbf" stroke="black" points="429.5,-403.5 429.5,-422.5 536.5,-422.5 536.5,-403.5 429.5,-403.5"/>
<text text-anchor="middle" x="483" y="-410.5" font-family="Helvetica,sans-Serif" font-size="10.00">aprs_manager.hpp</text>
</a>
</g>
</g>
<!-- Node2 -->
<g id="node2" class="node">
<title>Node2</title>
<g id="a_node2"><a xlink:title=" ">
<polygon fill="none" stroke="#bfbfbf" points="19.5,-347.5 19.5,-366.5 144.5,-366.5 144.5,-347.5 19.5,-347.5"/>
<text text-anchor="middle" x="82" y="-354.5" font-family="Helvetica,sans-Serif" font-size="10.00">BoosterSeat/timer.hpp</text>
</a>
</g>
</g>
<!-- Node1&#45;&gt;Node2 -->
<g id="edge1" class="edge">
<title>Node1&#45;&gt;Node2</title>
<path fill="none" stroke="midnightblue" d="M429.34,-404.77C358.67,-395.26 234.12,-378.49 154.95,-367.82"/>
<polygon fill="midnightblue" stroke="midnightblue" points="154.95,-364.29 144.57,-366.43 154.02,-371.23 154.95,-364.29"/>
</g>
<!-- Node3 -->
<g id="node3" class="node">
<title>Node3</title>
<g id="a_node3"><a xlink:href="i__giraffe__data__link_8hpp.html" target="_top" xlink:title=" ">
<polygon fill="none" stroke="black" points="55,-179.5 55,-198.5 183,-198.5 183,-179.5 55,-179.5"/>
<text text-anchor="middle" x="119" y="-186.5" font-family="Helvetica,sans-Serif" font-size="10.00">i_giraffe_data_link.hpp</text>
</a>
</g>
</g>
<!-- Node1&#45;&gt;Node3 -->
<g id="edge2" class="edge">
<title>Node1&#45;&gt;Node3</title>
<path fill="none" stroke="midnightblue" d="M464.55,-403.42C418.01,-381.44 292.71,-320.25 197,-255 174.63,-239.75 151.03,-219.41 135.73,-205.57"/>
<polygon fill="midnightblue" stroke="midnightblue" points="137.88,-202.79 128.14,-198.62 133.15,-207.96 137.88,-202.79"/>
</g>
<!-- Node11 -->
<g id="node11" class="node">
<title>Node11</title>
<g id="a_node11"><a xlink:href="configuration_8hpp.html" target="_top" xlink:title=" ">
<polygon fill="none" stroke="black" points="597.5,-347.5 597.5,-366.5 698.5,-366.5 698.5,-347.5 597.5,-347.5"/>
<text text-anchor="middle" x="648" y="-354.5" font-family="Helvetica,sans-Serif" font-size="10.00">configuration.hpp</text>
</a>
</g>
</g>
<!-- Node1&#45;&gt;Node11 -->
<g id="edge11" class="edge">
<title>Node1&#45;&gt;Node11</title>
<path fill="none" stroke="midnightblue" d="M509.14,-403.44C537.02,-394.32 581.35,-379.81 612.4,-369.65"/>
<polygon fill="midnightblue" stroke="midnightblue" points="613.56,-372.95 621.98,-366.52 611.38,-366.3 613.56,-372.95"/>
</g>
<!-- Node12 -->
<g id="node12" class="node">
<title>Node12</title>
<g id="a_node12"><a xlink:href="logger_8hpp.html" target="_top" xlink:title="A simple logger class so difference classes have access to the same logger.">
<polygon fill="none" stroke="black" points="511,-347.5 511,-366.5 579,-366.5 579,-347.5 511,-347.5"/>
<text text-anchor="middle" x="545" y="-354.5" font-family="Helvetica,sans-Serif" font-size="10.00">logger.hpp</text>
</a>
</g>
</g>
<!-- Node1&#45;&gt;Node12 -->
<g id="edge12" class="edge">
<title>Node1&#45;&gt;Node12</title>
<path fill="none" stroke="midnightblue" d="M492.96,-403.32C502.13,-395.34 515.94,-383.31 527.03,-373.65"/>
<polygon fill="midnightblue" stroke="midnightblue" points="529.62,-376.04 534.86,-366.83 525.02,-370.76 529.62,-376.04"/>
</g>
<!-- Node13 -->
<g id="node13" class="node">
<title>Node13</title>
<g id="a_node13"><a xlink:href="shared__data_8hpp.html" target="_top" xlink:title="Contains the SharedData struct, used across all modules and extensions.">
<polygon fill="none" stroke="black" points="837,-291.5 837,-310.5 935,-310.5 935,-291.5 837,-291.5"/>
<text text-anchor="middle" x="886" y="-298.5" font-family="Helvetica,sans-Serif" font-size="10.00">shared_data.hpp</text>
</a>
</g>
</g>
<!-- Node1&#45;&gt;Node13 -->
<g id="edge76" class="edge">
<title>Node1&#45;&gt;Node13</title>
<path fill="none" stroke="midnightblue" d="M482.74,-403.24C482.84,-389.03 485.3,-361.11 502,-347 549.74,-306.67 731.21,-301.2 826.59,-301.22"/>
<polygon fill="midnightblue" stroke="midnightblue" points="826.66,-304.72 836.67,-301.24 826.68,-297.72 826.66,-304.72"/>
</g>
<!-- Node4 -->
<g id="node4" class="node">
<title>Node4</title>
<g id="a_node4"><a xlink:title=" ">
<polygon fill="none" stroke="#bfbfbf" points="902,-0.5 902,-19.5 952,-19.5 952,-0.5 902,-0.5"/>
<text text-anchor="middle" x="927" y="-7.5" font-family="Helvetica,sans-Serif" font-size="10.00">cstdint</text>
</a>
</g>
</g>
<!-- Node3&#45;&gt;Node4 -->
<g id="edge3" class="edge">
<title>Node3&#45;&gt;Node4</title>
<path fill="none" stroke="midnightblue" d="M120.67,-179.25C125.86,-154.74 144.19,-85.31 190,-56 249.53,-17.92 753.3,-12.05 891.86,-11.16"/>
<polygon fill="midnightblue" stroke="midnightblue" points="891.95,-14.66 901.93,-11.1 891.91,-7.66 891.95,-14.66"/>
</g>
<!-- Node5 -->
<g id="node5" class="node">
<title>Node5</title>
<g id="a_node5"><a xlink:title=" ">
<polygon fill="none" stroke="#bfbfbf" points="0,-118 0,-137 118,-137 118,-118 0,-118"/>
<text text-anchor="middle" x="59" y="-125" font-family="Helvetica,sans-Serif" font-size="10.00">SignalEasel/aprs.hpp</text>
</a>
</g>
</g>
<!-- Node3&#45;&gt;Node5 -->
<g id="edge4" class="edge">
<title>Node3&#45;&gt;Node5</title>
<path fill="none" stroke="midnightblue" d="M110.4,-179.48C101.14,-170.28 86.18,-155.46 74.79,-144.16"/>
<polygon fill="midnightblue" stroke="midnightblue" points="77.15,-141.57 67.58,-137.01 72.22,-146.54 77.15,-141.57"/>
</g>
<!-- Node6 -->
<g id="node6" class="node">
<title>Node6</title>
<g id="a_node6"><a xlink:href="gdl__config__and__stats_8hpp.html" target="_top" xlink:title=" ">
<polygon fill="none" stroke="black" points="288,-118 288,-137 428,-137 428,-118 288,-118"/>
<text text-anchor="middle" x="358" y="-125" font-family="Helvetica,sans-Serif" font-size="10.00">gdl_config_and_stats.hpp</text>
</a>
</g>
</g>
<!-- Node3&#45;&gt;Node6 -->
<g id="edge5" class="edge">
<title>Node3&#45;&gt;Node6</title>
<path fill="none" stroke="midnightblue" d="M153.24,-179.48C195.57,-168.94 267.68,-150.99 314.05,-139.44"/>
<polygon fill="midnightblue" stroke="midnightblue" points="314.96,-142.82 323.82,-137.01 313.27,-136.03 314.96,-142.82"/>
</g>
<!-- Node6&#45;&gt;Node4 -->
<g id="edge8" class="edge">
<title>Node6&#45;&gt;Node4</title>
<path fill="none" stroke="midnightblue" d="M393.91,-117.95C452.42,-104.15 572.04,-76.43 674,-56 751.43,-40.48 842.74,-24.91 891.72,-16.78"/>
<polygon fill="midnightblue" stroke="midnightblue" points="892.5,-20.2 901.79,-15.11 891.36,-13.29 892.5,-20.2"/>
</g>
<!-- Node7 -->
<g id="node7" class="node">
<title>Node7</title>
<g id="a_node7"><a xlink:title=" ">
<polygon fill="none" stroke="#bfbfbf" points="199,-56.5 199,-75.5 321,-75.5 321,-56.5 199,-56.5"/>
<text text-anchor="middle" x="260" y="-63.5" font-family="Helvetica,sans-Serif" font-size="10.00">BoosterSeat/time.hpp</text>
</a>
</g>
</g>
<!-- Node6&#45;&gt;Node7 -->
<g id="edge6" class="edge">
<title>Node6&#45;&gt;Node7</title>
<path fill="none" stroke="midnightblue" d="M343.96,-117.98C327.95,-108.25 301.55,-92.23 282.63,-80.74"/>
<polygon fill="midnightblue" stroke="midnightblue" points="284.38,-77.71 274.01,-75.51 280.75,-83.69 284.38,-77.71"/>
</g>
<!-- Node8 -->
<g id="node8" class="node">
<title>Node8</title>
<g id="a_node8"><a xlink:title=" ">
<polygon fill="none" stroke="#bfbfbf" points="2018,-56.5 2018,-75.5 2068,-75.5 2068,-56.5 2018,-56.5"/>
<text text-anchor="middle" x="2043" y="-63.5" font-family="Helvetica,sans-Serif" font-size="10.00">atomic</text>
</a>
</g>
</g>
<!-- Node6&#45;&gt;Node8 -->
<g id="edge7" class="edge">
<title>Node6&#45;&gt;Node8</title>
<path fill="none" stroke="midnightblue" d="M417.92,-117.98C436.5,-115.65 457.06,-113.39 476,-112 1136.64,-63.55 1305.22,-122.5 1966,-76 1979.67,-75.04 1994.64,-73.42 2007.72,-71.82"/>
<polygon fill="midnightblue" stroke="midnightblue" points="2008.26,-75.28 2017.74,-70.55 2007.38,-68.33 2008.26,-75.28"/>
</g>
<!-- Node9 -->
<g id="node9" class="node">
<title>Node9</title>
<g id="a_node9"><a xlink:title=" ">
<polygon fill="none" stroke="#bfbfbf" points="683,-56.5 683,-75.5 731,-75.5 731,-56.5 683,-56.5"/>
<text text-anchor="middle" x="707" y="-63.5" font-family="Helvetica,sans-Serif" font-size="10.00">mutex</text>
</a>
</g>
</g>
<!-- Node6&#45;&gt;Node9 -->
<g id="edge9" class="edge">
<title>Node6&#45;&gt;Node9</title>
<path fill="none" stroke="midnightblue" d="M407.3,-117.97C418.69,-116 430.77,-113.92 442,-112 524.88,-97.81 622.37,-81.3 672.85,-72.77"/>
<polygon fill="midnightblue" stroke="midnightblue" points="673.6,-76.19 682.88,-71.07 672.44,-69.29 673.6,-76.19"/>
</g>
<!-- Node10 -->
<g id="node10" class="node">
<title>Node10</title>
<g id="a_node10"><a xlink:title=" ">
<polygon fill="none" stroke="#bfbfbf" points="1913,-56.5 1913,-75.5 1957,-75.5 1957,-56.5 1913,-56.5"/>
<text text-anchor="middle" x="1935" y="-63.5" font-family="Helvetica,sans-Serif" font-size="10.00">string</text>
</a>
</g>
</g>
<!-- Node6&#45;&gt;Node10 -->
<g id="edge10" class="edge">
<title>Node6&#45;&gt;Node10</title>
<path fill="none" stroke="midnightblue" d="M417.92,-117.99C436.5,-115.67 457.06,-113.4 476,-112 789.33,-88.85 1574.01,-123.92 1902.73,-75.71"/>
<polygon fill="midnightblue" stroke="midnightblue" points="1903.44,-79.14 1912.8,-74.19 1902.39,-72.22 1903.44,-79.14"/>
</g>
<!-- Node12&#45;&gt;Node13 -->
<g id="edge13" class="edge">
<title>Node12&#45;&gt;Node13</title>
<path fill="none" stroke="midnightblue" d="M579.08,-348.85C582.43,-348.2 585.78,-347.57 589,-347 671.27,-332.36 766.9,-318.42 826.94,-310.04"/>
<polygon fill="midnightblue" stroke="midnightblue" points="827.58,-313.48 837,-308.64 826.61,-306.55 827.58,-313.48"/>
</g>
<!-- Node13&#45;&gt;Node7 -->
<g id="edge15" class="edge">
<title>Node13&#45;&gt;Node7</title>
<path fill="none" stroke="midnightblue" d="M836.84,-295.98C774.05,-290.18 662.33,-277.58 569,-255 421.32,-219.27 334.1,-266.79 246,-143 233.89,-125.98 241.69,-101.55 249.66,-85.02"/>
<polygon fill="midnightblue" stroke="midnightblue" points="252.9,-86.37 254.47,-75.89 246.71,-83.11 252.9,-86.37"/>
</g>
<!-- Node14 -->
<g id="node14" class="node">
<title>Node14</title>
<g id="a_node14"><a xlink:title=" ">
<polygon fill="none" stroke="#bfbfbf" points="1641.5,-56.5 1641.5,-75.5 1766.5,-75.5 1766.5,-56.5 1641.5,-56.5"/>
<text text-anchor="middle" x="1704" y="-63.5" font-family="Helvetica,sans-Serif" font-size="10.00">BoosterSeat/clock.hpp</text>
</a>
</g>
</g>
<!-- Node13&#45;&gt;Node14 -->
<g id="edge14" class="edge">
<title>Node13&#45;&gt;Node14</title>
<path fill="none" stroke="midnightblue" d="M935,-294.76C1043.38,-282.63 1311.23,-249.74 1531,-199 1613.46,-179.96 1662.72,-211.08 1713,-143 1725.42,-126.18 1719.17,-101.33 1712.51,-84.67"/>
<polygon fill="midnightblue" stroke="midnightblue" points="1715.71,-83.24 1708.48,-75.5 1709.3,-86.06 1715.71,-83.24"/>
</g>
<!-- Node15 -->
<g id="node15" class="node">
<title>Node15</title>
<g id="a_node15"><a xlink:href="blocks_8hpp.html" target="_top" xlink:title=" ">
<polygon fill="none" stroke="black" points="809.5,-179.5 809.5,-198.5 878.5,-198.5 878.5,-179.5 809.5,-179.5"/>
<text text-anchor="middle" x="844" y="-186.5" font-family="Helvetica,sans-Serif" font-size="10.00">blocks.hpp</text>
</a>
</g>
</g>
<!-- Node13&#45;&gt;Node15 -->
<g id="edge16" class="edge">
<title>Node13&#45;&gt;Node15</title>
<path fill="none" stroke="midnightblue" d="M882.7,-291.37C875.87,-273.46 860.01,-231.92 850.85,-207.95"/>
<polygon fill="midnightblue" stroke="midnightblue" points="854.12,-206.69 847.28,-198.59 847.58,-209.18 854.12,-206.69"/>
</g>
<!-- Node22 -->
<g id="node22" class="node">
<title>Node22</title>
<g id="a_node22"><a xlink:href="error__frame_8hpp.html" target="_top" xlink:title="The error frame.">
<polygon fill="none" stroke="black" points="877.5,-235.5 877.5,-254.5 972.5,-254.5 972.5,-235.5 877.5,-235.5"/>
<text text-anchor="middle" x="925" y="-242.5" font-family="Helvetica,sans-Serif" font-size="10.00">error_frame.hpp</text>
</a>
</g>
</g>
<!-- Node13&#45;&gt;Node22 -->
<g id="edge35" class="edge">
<title>Node13&#45;&gt;Node22</title>
<path fill="none" stroke="midnightblue" d="M892.44,-291.08C897.95,-283.46 906.03,-272.26 912.76,-262.94"/>
<polygon fill="midnightblue" stroke="midnightblue" points="915.66,-264.91 918.68,-254.75 909.99,-260.81 915.66,-264.91"/>
</g>
<!-- Node23 -->
<g id="node23" class="node">
<title>Node23</title>
<g id="a_node23"><a xlink:href="frame_8hpp.html" target="_top" xlink:title=" ">
<polygon fill="none" stroke="black" points="504.5,-179.5 504.5,-198.5 571.5,-198.5 571.5,-179.5 504.5,-179.5"/>
<text text-anchor="middle" x="538" y="-186.5" font-family="Helvetica,sans-Serif" font-size="10.00">frame.hpp</text>
</a>
</g>
</g>
<!-- Node13&#45;&gt;Node23 -->
<g id="edge69" class="edge">
<title>Node13&#45;&gt;Node23</title>
<path fill="none" stroke="midnightblue" d="M836.73,-296.23C765.64,-290.13 638.41,-276.56 598,-255 577.13,-243.86 559.65,-222.6 549.04,-207.42"/>
<polygon fill="midnightblue" stroke="midnightblue" points="551.82,-205.28 543.35,-198.91 546,-209.17 551.82,-205.28"/>
</g>
<!-- Node26 -->
<g id="node26" class="node">
<title>Node26</title>
<g id="a_node26"><a xlink:href="streams_8hpp.html" target="_top" xlink:title="The header file for the data streams.">
<polygon fill="none" stroke="black" points="1243.5,-179.5 1243.5,-198.5 1320.5,-198.5 1320.5,-179.5 1243.5,-179.5"/>
<text text-anchor="middle" x="1282" y="-186.5" font-family="Helvetica,sans-Serif" font-size="10.00">streams.hpp</text>
</a>
</g>
</g>
<!-- Node13&#45;&gt;Node26 -->
<g id="edge75" class="edge">
<title>Node13&#45;&gt;Node26</title>
<path fill="none" stroke="midnightblue" d="M916.74,-291.46C987.58,-271.78 1162.29,-223.25 1241.63,-201.21"/>
<polygon fill="midnightblue" stroke="midnightblue" points="1242.58,-204.58 1251.28,-198.53 1240.7,-197.84 1242.58,-204.58"/>
</g>
<!-- Node33 -->
<g id="node33" class="node">
<title>Node33</title>
<g id="a_node33"><a xlink:href="flight__data_8hpp.html" target="_top" xlink:title=" ">
<polygon fill="none" stroke="black" points="1877.5,-235.5 1877.5,-254.5 1966.5,-254.5 1966.5,-235.5 1877.5,-235.5"/>
<text text-anchor="middle" x="1922" y="-242.5" font-family="Helvetica,sans-Serif" font-size="10.00">flight_data.hpp</text>
</a>
</g>
</g>
<!-- Node13&#45;&gt;Node33 -->
<g id="edge58" class="edge">
<title>Node13&#45;&gt;Node33</title>
<path fill="none" stroke="midnightblue" d="M935.34,-297.94C1072.1,-292.15 1467.59,-274.85 1796,-255 1819.34,-253.59 1845.09,-251.79 1867.2,-250.18"/>
<polygon fill="midnightblue" stroke="midnightblue" points="1867.69,-253.65 1877.41,-249.42 1867.18,-246.67 1867.69,-253.65"/>
</g>
<!-- Node34 -->
<g id="node34" class="node">
<title>Node34</title>
<g id="a_node34"><a xlink:href="flight__phase_8hpp.html" target="_top" xlink:title="Contains the flight phase enum and related functions.">
<polygon fill="none" stroke="black" points="2086.5,-179.5 2086.5,-198.5 2183.5,-198.5 2183.5,-179.5 2086.5,-179.5"/>
<text text-anchor="middle" x="2135" y="-186.5" font-family="Helvetica,sans-Serif" font-size="10.00">flight_phase.hpp</text>
</a>
</g>
</g>
<!-- Node13&#45;&gt;Node34 -->
<g id="edge68" class="edge">
<title>Node13&#45;&gt;Node34</title>
<path fill="none" stroke="midnightblue" d="M935.03,-300.22C1119.74,-300.7 1773.37,-299.18 1976,-255 2025.69,-244.17 2079.74,-218.92 2110.29,-203.27"/>
<polygon fill="midnightblue" stroke="midnightblue" points="2112.09,-206.28 2119.34,-198.56 2108.86,-200.07 2112.09,-206.28"/>
</g>
<!-- Node36 -->
<g id="node36" class="node">
<title>Node36</title>
<g id="a_node36"><a xlink:href="log__container_8hpp.html" target="_top" xlink:title="A simple logging system for debugging.">
<polygon fill="none" stroke="black" points="606.5,-235.5 606.5,-254.5 709.5,-254.5 709.5,-235.5 606.5,-235.5"/>
<text text-anchor="middle" x="658" y="-242.5" font-family="Helvetica,sans-Serif" font-size="10.00">log_container.hpp</text>
</a>
</g>
</g>
<!-- Node13&#45;&gt;Node36 -->
<g id="edge70" class="edge">
<title>Node13&#45;&gt;Node36</title>
<path fill="none" stroke="midnightblue" d="M849.87,-291.44C810.35,-282.08 746.9,-267.06 703.89,-256.87"/>
<polygon fill="midnightblue" stroke="midnightblue" points="704.5,-253.42 693.96,-254.52 702.88,-260.23 704.5,-253.42"/>
</g>
<!-- Node38 -->
<g id="node38" class="node">
<title>Node38</title>
<g id="a_node38"><a xlink:href="status__led_8hpp.html" target="_top" xlink:title="RGB Status LED extension header file.">
<polygon fill="none" stroke="black" points="2146,-235.5 2146,-254.5 2234,-254.5 2234,-235.5 2146,-235.5"/>
<text text-anchor="middle" x="2190" y="-242.5" font-family="Helvetica,sans-Serif" font-size="10.00">status_led.hpp</text>
</a>
</g>
</g>
<!-- Node13&#45;&gt;Node38 -->
<g id="edge73" class="edge">
<title>Node13&#45;&gt;Node38</title>
<path fill="none" stroke="midnightblue" d="M935.03,-299.07C1098.73,-295.78 1641.33,-283.3 2089,-255 2104.13,-254.04 2120.51,-252.71 2135.59,-251.37"/>
<polygon fill="midnightblue" stroke="midnightblue" points="2136.15,-254.83 2145.79,-250.44 2135.51,-247.86 2136.15,-254.83"/>
</g>
<!-- Node15&#45;&gt;Node7 -->
<g id="edge20" class="edge">
<title>Node15&#45;&gt;Node7</title>
<path fill="none" stroke="midnightblue" d="M809.26,-185.37C686.67,-176.06 281.55,-145.16 279,-143 262.65,-129.16 259.23,-103.58 259.01,-85.95"/>
<polygon fill="midnightblue" stroke="midnightblue" points="262.52,-85.78 259.23,-75.71 255.52,-85.63 262.52,-85.78"/>
</g>
<!-- Node15&#45;&gt;Node9 -->
<g id="edge17" class="edge">
<title>Node15&#45;&gt;Node9</title>
<path fill="none" stroke="midnightblue" d="M839.01,-179.09C830.13,-163.85 810.31,-132.44 787,-112 772.12,-98.95 752.84,-87.97 736.94,-80.12"/>
<polygon fill="midnightblue" stroke="midnightblue" points="738.08,-76.79 727.54,-75.65 735.07,-83.11 738.08,-76.79"/>
</g>
<!-- Node15&#45;&gt;Node14 -->
<g id="edge18" class="edge">
<title>Node15&#45;&gt;Node14</title>
<path fill="none" stroke="midnightblue" d="M878.55,-186.87C966.81,-183.6 1198.54,-172.36 1269,-143 1289.12,-134.61 1286.91,-120.46 1307,-112 1363.8,-88.08 1533.05,-75.68 1631.26,-70.34"/>
<polygon fill="midnightblue" stroke="midnightblue" points="1631.61,-73.83 1641.41,-69.8 1631.24,-66.84 1631.61,-73.83"/>
</g>
<!-- Node15&#45;&gt;Node15 -->
<g id="edge21" class="edge">
<title>Node15&#45;&gt;Node15</title>
<path fill="none" stroke="midnightblue" d="M866.39,-198.53C881.61,-201.31 896.5,-198.13 896.5,-189 896.5,-181.94 887.59,-178.44 876.51,-178.5"/>
<polygon fill="midnightblue" stroke="midnightblue" points="876.01,-175.03 866.39,-179.47 876.68,-182 876.01,-175.03"/>
</g>
<!-- Node16 -->
<g id="node16" class="node">
<title>Node16</title>
<g id="a_node16"><a xlink:title=" ">
<polygon fill="none" stroke="#bfbfbf" points="634.5,-118 634.5,-137 777.5,-137 777.5,-118 634.5,-118"/>
<text text-anchor="middle" x="706" y="-125" font-family="Helvetica,sans-Serif" font-size="10.00">BoosterSeat/numbers.hpp</text>
</a>
</g>
</g>
<!-- Node15&#45;&gt;Node16 -->
<g id="edge19" class="edge">
<title>Node15&#45;&gt;Node16</title>
<path fill="none" stroke="midnightblue" d="M824.23,-179.48C800.86,-169.4 761.79,-152.55 735,-141"/>
<polygon fill="midnightblue" stroke="midnightblue" points="736.3,-137.75 725.74,-137.01 733.53,-144.18 736.3,-137.75"/>
</g>
<!-- Node17 -->
<g id="node17" class="node">
<title>Node17</title>
<g id="a_node17"><a xlink:href="json_8hpp.html" target="_top" xlink:title="Simple wrapper around nlohmann/json.hpp to provide a common interface.">
<polygon fill="none" stroke="black" points="1848,-118 1848,-137 1906,-137 1906,-118 1848,-118"/>
<text text-anchor="middle" x="1877" y="-125" font-family="Helvetica,sans-Serif" font-size="10.00">json.hpp</text>
</a>
</g>
</g>
<!-- Node15&#45;&gt;Node17 -->
<g id="edge22" class="edge">
<title>Node15&#45;&gt;Node17</title>
<path fill="none" stroke="midnightblue" d="M878.53,-186.16C990.05,-180.22 1350.69,-160.82 1649,-143 1715.3,-139.04 1792.42,-134.06 1837.84,-131.08"/>
<polygon fill="midnightblue" stroke="midnightblue" points="1838.1,-134.57 1847.85,-130.43 1837.64,-127.59 1838.1,-134.57"/>
</g>
<!-- Node19 -->
<g id="node19" class="node">
<title>Node19</title>
<g id="a_node19"><a xlink:href="node_8hpp.html" target="_top" xlink:title="Contains structures that are used to identify components of the flight system.">
<polygon fill="none" stroke="black" points="972,-56.5 972,-75.5 1034,-75.5 1034,-56.5 972,-56.5"/>
<text text-anchor="middle" x="1003" y="-63.5" font-family="Helvetica,sans-Serif" font-size="10.00">node.hpp</text>
</a>
</g>
</g>
<!-- Node15&#45;&gt;Node19 -->
<g id="edge25" class="edge">
<title>Node15&#45;&gt;Node19</title>
<path fill="none" stroke="midnightblue" d="M843.62,-179.21C843.43,-163.59 845.34,-130.87 863,-112 888.47,-84.79 930.42,-73.98 961.77,-69.71"/>
<polygon fill="midnightblue" stroke="midnightblue" points="962.44,-73.16 971.96,-68.5 961.62,-66.21 962.44,-73.16"/>
</g>
<!-- Node21 -->
<g id="node21" class="node">
<title>Node21</title>
<g id="a_node21"><a xlink:href="positional_8hpp.html" target="_top" xlink:title="Positional data for the flight system (gps/imu data)">
<polygon fill="none" stroke="black" points="1174,-118 1174,-137 1260,-137 1260,-118 1174,-118"/>
<text text-anchor="middle" x="1217" y="-125" font-family="Helvetica,sans-Serif" font-size="10.00">positional.hpp</text>
</a>
</g>
</g>
<!-- Node15&#45;&gt;Node21 -->
<g id="edge28" class="edge">
<title>Node15&#45;&gt;Node21</title>
<path fill="none" stroke="midnightblue" d="M878.94,-184.64C938.19,-178.59 1061.98,-164.48 1165,-143 1169.68,-142.02 1174.57,-140.86 1179.39,-139.62"/>
<polygon fill="midnightblue" stroke="midnightblue" points="1180.35,-142.99 1189.1,-137.01 1178.54,-136.23 1180.35,-142.99"/>
</g>
<!-- Node17&#45;&gt;Node10 -->
<g id="edge24" class="edge">
<title>Node17&#45;&gt;Node10</title>
<path fill="none" stroke="midnightblue" d="M1885.31,-117.98C1894.18,-108.87 1908.45,-94.24 1919.42,-82.98"/>
<polygon fill="midnightblue" stroke="midnightblue" points="1922.23,-85.11 1926.71,-75.51 1917.22,-80.23 1922.23,-85.11"/>
</g>
<!-- Node18 -->
<g id="node18" class="node">
<title>Node18</title>
<g id="a_node18"><a xlink:title=" ">
<polygon fill="none" stroke="#bfbfbf" points="1785,-56.5 1785,-75.5 1895,-75.5 1895,-56.5 1785,-56.5"/>
<text text-anchor="middle" x="1840" y="-63.5" font-family="Helvetica,sans-Serif" font-size="10.00">nlohmann/json.hpp</text>
</a>
</g>
</g>
<!-- Node17&#45;&gt;Node18 -->
<g id="edge23" class="edge">
<title>Node17&#45;&gt;Node18</title>
<path fill="none" stroke="midnightblue" d="M1871.7,-117.98C1866.26,-109.23 1857.64,-95.37 1850.76,-84.31"/>
<polygon fill="midnightblue" stroke="midnightblue" points="1853.54,-82.15 1845.29,-75.51 1847.6,-85.85 1853.54,-82.15"/>
</g>
<!-- Node19&#45;&gt;Node4 -->
<g id="edge26" class="edge">
<title>Node19&#45;&gt;Node4</title>
<path fill="none" stroke="midnightblue" d="M990.79,-56.32C979.22,-48.11 961.62,-35.6 947.84,-25.81"/>
<polygon fill="midnightblue" stroke="midnightblue" points="949.61,-22.77 939.43,-19.83 945.56,-28.48 949.61,-22.77"/>
</g>
<!-- Node20 -->
<g id="node20" class="node">
<title>Node20</title>
<g id="a_node20"><a xlink:title=" ">
<polygon fill="none" stroke="#bfbfbf" points="1060,-0.5 1060,-19.5 1098,-19.5 1098,-0.5 1060,-0.5"/>
<text text-anchor="middle" x="1079" y="-7.5" font-family="Helvetica,sans-Serif" font-size="10.00">map</text>
</a>
</g>
</g>
<!-- Node19&#45;&gt;Node20 -->
<g id="edge27" class="edge">
<title>Node19&#45;&gt;Node20</title>
<path fill="none" stroke="midnightblue" d="M1015.21,-56.32C1026.78,-48.11 1044.38,-35.6 1058.16,-25.81"/>
<polygon fill="midnightblue" stroke="midnightblue" points="1060.44,-28.48 1066.57,-19.83 1056.39,-22.77 1060.44,-28.48"/>
</g>
<!-- Node21&#45;&gt;Node4 -->
<g id="edge29" class="edge">
<title>Node21&#45;&gt;Node4</title>
<path fill="none" stroke="midnightblue" d="M1213.53,-117.92C1206.92,-102.76 1191.01,-71.38 1167,-56 1133.56,-34.58 1020.54,-20.41 962.32,-14.35"/>
<polygon fill="midnightblue" stroke="midnightblue" points="962.42,-10.85 952.11,-13.32 961.71,-17.81 962.42,-10.85"/>
</g>
<!-- Node21&#45;&gt;Node7 -->
<g id="edge34" class="edge">
<title>Node21&#45;&gt;Node7</title>
<path fill="none" stroke="midnightblue" d="M1190.8,-117.97C1182.62,-115.64 1173.51,-113.38 1165,-112 1004.88,-86.03 515.44,-72.7 331.17,-68.5"/>
<polygon fill="midnightblue" stroke="midnightblue" points="331.13,-64.99 321.05,-68.27 330.97,-71.99 331.13,-64.99"/>
</g>
<!-- Node21&#45;&gt;Node10 -->
<g id="edge31" class="edge">
<title>Node21&#45;&gt;Node10</title>
<path fill="none" stroke="midnightblue" d="M1260.37,-118.62C1275.12,-116.17 1291.74,-113.69 1307,-112 1567.86,-83.19 1640.25,-120.37 1902.57,-75.85"/>
<polygon fill="midnightblue" stroke="midnightblue" points="1903.53,-79.24 1912.79,-74.09 1902.34,-72.34 1903.53,-79.24"/>
</g>
<!-- Node21&#45;&gt;Node14 -->
<g id="edge33" class="edge">
<title>Node21&#45;&gt;Node14</title>
<path fill="none" stroke="midnightblue" d="M1247.29,-117.93C1255.87,-115.74 1265.25,-113.56 1274,-112 1398.44,-89.78 1545.24,-77.32 1631.13,-71.4"/>
<polygon fill="midnightblue" stroke="midnightblue" points="1631.55,-74.88 1641.29,-70.71 1631.08,-67.89 1631.55,-74.88"/>
</g>
<!-- Node21&#45;&gt;Node18 -->
<g id="edge32" class="edge">
<title>Node21&#45;&gt;Node18</title>
<path fill="none" stroke="midnightblue" d="M1260.39,-118.76C1275.14,-116.33 1291.76,-113.81 1307,-112 1511.36,-87.74 1566.45,-98.23 1774.83,-76.06"/>
<polygon fill="midnightblue" stroke="midnightblue" points="1775.3,-79.53 1784.87,-74.98 1774.55,-72.57 1775.3,-79.53"/>
</g>
<!-- Node21&#45;&gt;Node20 -->
<g id="edge30" class="edge">
<title>Node21&#45;&gt;Node20</title>
<path fill="none" stroke="midnightblue" d="M1217.36,-117.97C1217.51,-103.43 1215.71,-73.71 1200,-56 1176.5,-29.51 1135.9,-18.57 1108.28,-14.09"/>
<polygon fill="midnightblue" stroke="midnightblue" points="1108.42,-10.57 1098.03,-12.62 1107.43,-17.5 1108.42,-10.57"/>
</g>
<!-- Node22&#45;&gt;Node14 -->
<g id="edge36" class="edge">
<title>Node22&#45;&gt;Node14</title>
<path fill="none" stroke="midnightblue" d="M972.75,-241.08C1132.64,-230.86 1642.01,-194.47 1693,-143 1707.7,-128.16 1708.53,-103.02 1706.96,-85.74"/>
<polygon fill="midnightblue" stroke="midnightblue" points="1710.42,-85.2 1705.7,-75.71 1703.47,-86.07 1710.42,-85.2"/>
</g>
<!-- Node22&#45;&gt;Node23 -->
<g id="edge37" class="edge">
<title>Node22&#45;&gt;Node23</title>
<path fill="none" stroke="midnightblue" d="M877.16,-237.32C801.41,-226.75 654.97,-206.32 581.81,-196.11"/>
<polygon fill="midnightblue" stroke="midnightblue" points="581.96,-192.6 571.57,-194.68 580.99,-199.53 581.96,-192.6"/>
</g>
<!-- Node25 -->
<g id="node25" class="node">
<title>Node25</title>
<g id="a_node25"><a xlink:href="giraffe__diagnostic__ids_8hpp.html" target="_top" xlink:title=" ">
<polygon fill="none" stroke="black" points="872,-112.5 872,-142.5 976,-142.5 976,-112.5 872,-112.5"/>
<text text-anchor="start" x="880" y="-130.5" font-family="Helvetica,sans-Serif" font-size="10.00">giraffe_diagnostic</text>
<text text-anchor="middle" x="924" y="-119.5" font-family="Helvetica,sans-Serif" font-size="10.00">_ids.hpp</text>
</a>
</g>
</g>
<!-- Node22&#45;&gt;Node25 -->
<g id="edge40" class="edge">
<title>Node22&#45;&gt;Node25</title>
<path fill="none" stroke="midnightblue" d="M924.92,-235.32C924.77,-217.97 924.43,-178.46 924.21,-152.66"/>
<polygon fill="midnightblue" stroke="midnightblue" points="927.71,-152.51 924.12,-142.55 920.71,-152.58 927.71,-152.51"/>
</g>
<!-- Node22&#45;&gt;Node26 -->
<g id="edge41" class="edge">
<title>Node22&#45;&gt;Node26</title>
<path fill="none" stroke="midnightblue" d="M972.78,-236.77C1040.73,-226.5 1164.63,-207.75 1233.16,-197.39"/>
<polygon fill="midnightblue" stroke="midnightblue" points="1233.89,-200.82 1243.26,-195.86 1232.85,-193.9 1233.89,-200.82"/>
</g>
<!-- Node23&#45;&gt;Node9 -->
<g id="edge38" class="edge">
<title>Node23&#45;&gt;Node9</title>
<path fill="none" stroke="midnightblue" d="M517.78,-179.49C503.23,-172.17 484.7,-160.06 476,-143 469.74,-130.73 467.24,-122.63 476,-112 500.52,-82.24 614.46,-71.9 672.63,-68.52"/>
<polygon fill="midnightblue" stroke="midnightblue" points="673.01,-72.01 682.81,-67.97 672.63,-65.02 673.01,-72.01"/>
</g>
<!-- Node24 -->
<g id="node24" class="node">
<title>Node24</title>
<g id="a_node24"><a xlink:title=" ">
<polygon fill="none" stroke="#bfbfbf" points="484.5,-118 484.5,-137 577.5,-137 577.5,-118 484.5,-118"/>
<text text-anchor="middle" x="531" y="-125" font-family="Helvetica,sans-Serif" font-size="10.00">unordered_map</text>
</a>
</g>
</g>
<!-- Node23&#45;&gt;Node24 -->
<g id="edge39" class="edge">
<title>Node23&#45;&gt;Node24</title>
<path fill="none" stroke="midnightblue" d="M537,-179.48C536.01,-171.08 534.47,-157.98 533.2,-147.16"/>
<polygon fill="midnightblue" stroke="midnightblue" points="536.65,-146.53 532,-137.01 529.69,-147.35 536.65,-146.53"/>
</g>
<!-- Node26&#45;&gt;Node8 -->
<g id="edge42" class="edge">
<title>Node26&#45;&gt;Node8</title>
<path fill="none" stroke="midnightblue" d="M1320.7,-188.1C1443.41,-187.97 1822.51,-184.19 1937,-143 1973.17,-129.99 2007.98,-100.82 2027.33,-82.64"/>
<polygon fill="midnightblue" stroke="midnightblue" points="2029.86,-85.06 2034.63,-75.6 2025,-80.02 2029.86,-85.06"/>
</g>
<!-- Node26&#45;&gt;Node9 -->
<g id="edge44" class="edge">
<title>Node26&#45;&gt;Node9</title>
<path fill="none" stroke="midnightblue" d="M1243.31,-186.99C1191.51,-184.37 1097.71,-175.15 1025,-143 1004.43,-133.9 1005.63,-120.96 985,-112 902.6,-76.2 795.27,-68.61 741.24,-67.17"/>
<polygon fill="midnightblue" stroke="midnightblue" points="741.24,-63.67 731.17,-66.96 741.1,-70.67 741.24,-63.67"/>
</g>
<!-- Node26&#45;&gt;Node10 -->
<g id="edge46" class="edge">
<title>Node26&#45;&gt;Node10</title>
<path fill="none" stroke="midnightblue" d="M1320.63,-187.83C1451.02,-186.89 1869.25,-180.93 1915,-143 1931.62,-129.22 1935.34,-103.43 1935.75,-85.75"/>
<polygon fill="midnightblue" stroke="midnightblue" points="1939.25,-85.71 1935.66,-75.74 1932.25,-85.77 1939.25,-85.71"/>
</g>
<!-- Node26&#45;&gt;Node14 -->
<g id="edge47" class="edge">
<title>Node26&#45;&gt;Node14</title>
<path fill="none" stroke="midnightblue" d="M1320.81,-188.13C1407.39,-187.7 1613.04,-182.42 1668,-143 1686.86,-129.47 1696.18,-103.43 1700.54,-85.64"/>
<polygon fill="midnightblue" stroke="midnightblue" points="1703.97,-86.32 1702.65,-75.81 1697.12,-84.85 1703.97,-86.32"/>
</g>
<!-- Node26&#45;&gt;Node19 -->
<g id="edge56" class="edge">
<title>Node26&#45;&gt;Node19</title>
<path fill="none" stroke="midnightblue" d="M1243.44,-188.16C1196.81,-186.64 1117.57,-178.46 1061,-143 1038.43,-128.85 1021.36,-102.57 1011.77,-84.93"/>
<polygon fill="midnightblue" stroke="midnightblue" points="1014.7,-82.98 1007,-75.7 1008.48,-86.19 1014.7,-82.98"/>
</g>
<!-- Node26&#45;&gt;Node21 -->
<g id="edge57" class="edge">
<title>Node26&#45;&gt;Node21</title>
<path fill="none" stroke="midnightblue" d="M1272.69,-179.48C1262.55,-170.2 1246.14,-155.17 1233.75,-143.83"/>
<polygon fill="midnightblue" stroke="midnightblue" points="1236.04,-141.18 1226.3,-137.01 1231.31,-146.34 1236.04,-141.18"/>
</g>
<!-- Node26&#45;&gt;Node25 -->
<g id="edge55" class="edge">
<title>Node26&#45;&gt;Node25</title>
<path fill="none" stroke="midnightblue" d="M1243.14,-182.81C1187.05,-175.14 1080.25,-159.85 990,-143 988.74,-142.76 987.46,-142.52 986.17,-142.27"/>
<polygon fill="midnightblue" stroke="midnightblue" points="986.67,-138.8 976.18,-140.28 985.3,-145.67 986.67,-138.8"/>
</g>
<!-- Node27 -->
<g id="node27" class="node">
<title>Node27</title>
<g id="a_node27"><a xlink:title=" ">
<polygon fill="none" stroke="#bfbfbf" points="1316,-118 1316,-137 1376,-137 1376,-118 1316,-118"/>
<text text-anchor="middle" x="1346" y="-125" font-family="Helvetica,sans-Serif" font-size="10.00">iostream</text>
</a>
</g>
</g>
<!-- Node26&#45;&gt;Node27 -->
<g id="edge43" class="edge">
<title>Node26&#45;&gt;Node27</title>
<path fill="none" stroke="midnightblue" d="M1291.17,-179.48C1301.15,-170.2 1317.31,-155.17 1329.51,-143.83"/>
<polygon fill="midnightblue" stroke="midnightblue" points="1331.91,-146.38 1336.85,-137.01 1327.14,-141.25 1331.91,-146.38"/>
</g>
<!-- Node28 -->
<g id="node28" class="node">
<title>Node28</title>
<g id="a_node28"><a xlink:title=" ">
<polygon fill="none" stroke="#bfbfbf" points="1411.5,-56.5 1411.5,-75.5 1458.5,-75.5 1458.5,-56.5 1411.5,-56.5"/>
<text text-anchor="middle" x="1435" y="-63.5" font-family="Helvetica,sans-Serif" font-size="10.00">queue</text>
</a>
</g>
</g>
<!-- Node26&#45;&gt;Node28 -->
<g id="edge45" class="edge">
<title>Node26&#45;&gt;Node28</title>
<path fill="none" stroke="midnightblue" d="M1320.56,-186.11C1410.36,-181.33 1627.46,-167.34 1649,-143 1701.29,-83.9 1541,-70.76 1468.57,-67.83"/>
<polygon fill="midnightblue" stroke="midnightblue" points="1468.68,-64.34 1458.56,-67.47 1468.43,-71.33 1468.68,-64.34"/>
</g>
<!-- Node29 -->
<g id="node29" class="node">
<title>Node29</title>
<g id="a_node29"><a xlink:title=" ">
<polygon fill="none" stroke="#bfbfbf" points="1394,-118 1394,-137 1542,-137 1542,-118 1394,-118"/>
<text text-anchor="middle" x="1468" y="-125" font-family="Helvetica,sans-Serif" font-size="10.00">BoosterSeat/exception.hpp</text>
</a>
</g>
</g>
<!-- Node26&#45;&gt;Node29 -->
<g id="edge48" class="edge">
<title>Node26&#45;&gt;Node29</title>
<path fill="none" stroke="midnightblue" d="M1308.65,-179.48C1340.97,-169.14 1395.6,-151.66 1431.73,-140.1"/>
<polygon fill="midnightblue" stroke="midnightblue" points="1432.94,-143.39 1441.4,-137.01 1430.81,-136.72 1432.94,-143.39"/>
</g>
<!-- Node30 -->
<g id="node30" class="node">
<title>Node30</title>
<g id="a_node30"><a xlink:href="command_8hpp.html" target="_top" xlink:title="The command/queue system for the flight system.">
<polygon fill="none" stroke="black" points="1070,-118 1070,-137 1156,-137 1156,-118 1070,-118"/>
<text text-anchor="middle" x="1113" y="-125" font-family="Helvetica,sans-Serif" font-size="10.00">command.hpp</text>
</a>
</g>
</g>
<!-- Node26&#45;&gt;Node30 -->
<g id="edge49" class="edge">
<title>Node26&#45;&gt;Node30</title>
<path fill="none" stroke="midnightblue" d="M1257.79,-179.48C1228.67,-169.22 1179.63,-151.96 1146.8,-140.4"/>
<polygon fill="midnightblue" stroke="midnightblue" points="1147.76,-137.03 1137.17,-137.01 1145.44,-143.63 1147.76,-137.03"/>
</g>
<!-- Node32 -->
<g id="node32" class="node">
<title>Node32</title>
<g id="a_node32"><a xlink:href="data__ids_8hpp.html" target="_top" xlink:title=" ">
<polygon fill="none" stroke="black" points="1560.5,-118 1560.5,-137 1639.5,-137 1639.5,-118 1560.5,-118"/>
<text text-anchor="middle" x="1600" y="-125" font-family="Helvetica,sans-Serif" font-size="10.00">data_ids.hpp</text>
</a>
</g>
</g>
<!-- Node26&#45;&gt;Node32 -->
<g id="edge54" class="edge">
<title>Node26&#45;&gt;Node32</title>
<path fill="none" stroke="midnightblue" d="M1320.6,-183.05C1373.1,-175.98 1469.8,-161.73 1551,-143 1555.08,-142.06 1559.33,-140.97 1563.54,-139.82"/>
<polygon fill="midnightblue" stroke="midnightblue" points="1564.54,-143.18 1573.2,-137.07 1562.62,-136.44 1564.54,-143.18"/>
</g>
<!-- Node30&#45;&gt;Node9 -->
<g id="edge50" class="edge">
<title>Node30&#45;&gt;Node9</title>
<path fill="none" stroke="midnightblue" d="M1069.98,-119.86C1053.7,-117.37 1035,-114.53 1018,-112 917.42,-97.05 798.43,-80.01 741.16,-71.85"/>
<polygon fill="midnightblue" stroke="midnightblue" points="741.6,-68.38 731.2,-70.44 740.61,-75.31 741.6,-68.38"/>
</g>
<!-- Node30&#45;&gt;Node19 -->
<g id="edge53" class="edge">
<title>Node30&#45;&gt;Node19</title>
<path fill="none" stroke="midnightblue" d="M1097.24,-117.98C1079.02,-108.12 1048.83,-91.79 1027.53,-80.27"/>
<polygon fill="midnightblue" stroke="midnightblue" points="1029.19,-77.19 1018.73,-75.51 1025.86,-83.35 1029.19,-77.19"/>
</g>
<!-- Node30&#45;&gt;Node28 -->
<g id="edge51" class="edge">
<title>Node30&#45;&gt;Node28</title>
<path fill="none" stroke="midnightblue" d="M1141.47,-117.97C1149.07,-115.85 1157.31,-113.71 1165,-112 1249.24,-93.29 1349.82,-78.48 1401.17,-71.45"/>
<polygon fill="midnightblue" stroke="midnightblue" points="1401.92,-74.88 1411.36,-70.07 1400.98,-67.95 1401.92,-74.88"/>
</g>
<!-- Node31 -->
<g id="node31" class="node">
<title>Node31</title>
<g id="a_node31"><a xlink:href="command__ids_8hpp.html" target="_top" xlink:title=" ">
<polygon fill="none" stroke="black" points="1052,-56.5 1052,-75.5 1158,-75.5 1158,-56.5 1052,-56.5"/>
<text text-anchor="middle" x="1105" y="-63.5" font-family="Helvetica,sans-Serif" font-size="10.00">command_ids.hpp</text>
</a>
</g>
</g>
<!-- Node30&#45;&gt;Node31 -->
<g id="edge52" class="edge">
<title>Node30&#45;&gt;Node31</title>
<path fill="none" stroke="midnightblue" d="M1111.85,-117.98C1110.73,-109.58 1108.96,-96.48 1107.51,-85.66"/>
<polygon fill="midnightblue" stroke="midnightblue" points="1110.95,-84.95 1106.14,-75.51 1104.01,-85.89 1110.95,-84.95"/>
</g>
<!-- Node33&#45;&gt;Node7 -->
<g id="edge62" class="edge">
<title>Node33&#45;&gt;Node7</title>
<path fill="none" stroke="midnightblue" d="M1877.24,-244.44C1725.6,-245.46 1217.48,-244.99 801,-199 751.61,-193.55 740.26,-185.52 691,-179 643.25,-172.68 291.61,-178.44 259,-143 245,-127.79 248.51,-102.73 253.34,-85.57"/>
<polygon fill="midnightblue" stroke="midnightblue" points="256.81,-86.21 256.54,-75.62 250.15,-84.07 256.81,-86.21"/>
</g>
<!-- Node33&#45;&gt;Node8 -->
<g id="edge59" class="edge">
<title>Node33&#45;&gt;Node8</title>
<path fill="none" stroke="midnightblue" d="M1942.93,-235.46C1958.9,-227.97 1980.4,-215.68 1994,-199 2021.84,-164.85 2034.77,-113.35 2039.98,-85.86"/>
<polygon fill="midnightblue" stroke="midnightblue" points="2043.49,-86.13 2041.76,-75.67 2036.59,-84.92 2043.49,-86.13"/>
</g>
<!-- Node33&#45;&gt;Node10 -->
<g id="edge60" class="edge">
<title>Node33&#45;&gt;Node10</title>
<path fill="none" stroke="midnightblue" d="M1939.5,-235.46C1952.79,-227.92 1970.08,-215.53 1978,-199 1997.01,-159.34 1967.07,-109.15 1948.3,-83.59"/>
<polygon fill="midnightblue" stroke="midnightblue" points="1951.08,-81.46 1942.23,-75.64 1945.52,-85.71 1951.08,-81.46"/>
</g>
<!-- Node33&#45;&gt;Node14 -->
<g id="edge61" class="edge">
<title>Node33&#45;&gt;Node14</title>
<path fill="none" stroke="midnightblue" d="M1897.64,-235.46C1879.59,-228.12 1855.37,-216 1839,-199 1809.08,-167.93 1826.56,-142.44 1796,-112 1781.12,-97.18 1760.38,-86.45 1742.36,-79.2"/>
<polygon fill="midnightblue" stroke="midnightblue" points="1743.28,-75.81 1732.69,-75.53 1740.79,-82.35 1743.28,-75.81"/>
</g>
<!-- Node33&#45;&gt;Node17 -->
<g id="edge67" class="edge">
<title>Node33&#45;&gt;Node17</title>
<path fill="none" stroke="midnightblue" d="M1934.39,-235.31C1950.37,-222.98 1974.8,-199.61 1963,-179 1952.77,-161.12 1933.47,-148.96 1915.75,-141.05"/>
<polygon fill="midnightblue" stroke="midnightblue" points="1916.71,-137.66 1906.13,-137.09 1914.04,-144.13 1916.71,-137.66"/>
</g>
<!-- Node33&#45;&gt;Node34 -->
<g id="edge63" class="edge">
<title>Node33&#45;&gt;Node34</title>
<path fill="none" stroke="midnightblue" d="M1955.75,-235.44C1992.52,-226.12 2051.45,-211.18 2091.62,-201"/>
<polygon fill="midnightblue" stroke="midnightblue" points="2092.57,-204.37 2101.41,-198.52 2090.85,-197.58 2092.57,-204.37"/>
</g>
<!-- Node35 -->
<g id="node35" class="node">
<title>Node35</title>
<g id="a_node35"><a xlink:href="i__built__in__test_8hpp.html" target="_top" xlink:title=" ">
<polygon fill="none" stroke="black" points="1848,-179.5 1848,-198.5 1954,-198.5 1954,-179.5 1848,-179.5"/>
<text text-anchor="middle" x="1901" y="-186.5" font-family="Helvetica,sans-Serif" font-size="10.00">i_built_in_test.hpp</text>
</a>
</g>
</g>
<!-- Node33&#45;&gt;Node35 -->
<g id="edge65" class="edge">
<title>Node33&#45;&gt;Node35</title>
<path fill="none" stroke="midnightblue" d="M1918.53,-235.08C1915.69,-227.77 1911.57,-217.18 1908.04,-208.1"/>
<polygon fill="midnightblue" stroke="midnightblue" points="1911.29,-206.8 1904.4,-198.75 1904.77,-209.34 1911.29,-206.8"/>
</g>
<!-- Node34&#45;&gt;Node10 -->
<g id="edge64" class="edge">
<title>Node34&#45;&gt;Node10</title>
<path fill="none" stroke="midnightblue" d="M2123.66,-179.49C2103.94,-164.86 2061.79,-134.36 2024,-112 2004.13,-100.25 1980.82,-88.53 1963.04,-80"/>
<polygon fill="midnightblue" stroke="midnightblue" points="1964.33,-76.74 1953.79,-75.61 1961.32,-83.06 1964.33,-76.74"/>
</g>
<!-- Node35&#45;&gt;Node17 -->
<g id="edge66" class="edge">
<title>Node35&#45;&gt;Node17</title>
<path fill="none" stroke="midnightblue" d="M1897.56,-179.48C1894.1,-170.9 1888.67,-157.43 1884.25,-146.48"/>
<polygon fill="midnightblue" stroke="midnightblue" points="1887.42,-144.97 1880.43,-137.01 1880.93,-147.59 1887.42,-144.97"/>
</g>
<!-- Node36&#45;&gt;Node9 -->
<g id="edge72" class="edge">
<title>Node36&#45;&gt;Node9</title>
<path fill="none" stroke="midnightblue" d="M649.25,-235.29C641.44,-226.84 630.55,-213.25 626,-199 614.24,-162.17 606.39,-145.33 626,-112 636.16,-94.73 655.61,-83.61 672.9,-76.75"/>
<polygon fill="midnightblue" stroke="midnightblue" points="674.54,-79.88 682.75,-73.19 672.15,-73.3 674.54,-79.88"/>
</g>
<!-- Node37 -->
<g id="node37" class="node">
<title>Node37</title>
<g id="a_node37"><a xlink:title=" ">
<polygon fill="none" stroke="#bfbfbf" points="634.5,-179.5 634.5,-198.5 681.5,-198.5 681.5,-179.5 634.5,-179.5"/>
<text text-anchor="middle" x="658" y="-186.5" font-family="Helvetica,sans-Serif" font-size="10.00">deque</text>
</a>
</g>
</g>
<!-- Node36&#45;&gt;Node37 -->
<g id="edge71" class="edge">
<title>Node36&#45;&gt;Node37</title>
<path fill="none" stroke="midnightblue" d="M658,-235.08C658,-228.01 658,-217.86 658,-208.99"/>
<polygon fill="midnightblue" stroke="midnightblue" points="661.5,-208.75 658,-198.75 654.5,-208.75 661.5,-208.75"/>
</g>
<!-- Node38&#45;&gt;Node8 -->
<g id="edge74" class="edge">
<title>Node38&#45;&gt;Node8</title>
<path fill="none" stroke="midnightblue" d="M2192.92,-235.45C2196.81,-222.48 2202.21,-197.38 2193,-179 2168.2,-129.53 2110.02,-96.32 2073.85,-79.62"/>
<polygon fill="midnightblue" stroke="midnightblue" points="2075.27,-76.43 2064.71,-75.54 2072.42,-82.82 2075.27,-76.43"/>
</g>
</g>
</svg>
