<?xml version="1.0" encoding="UTF-8" standalone="no"?>
<!DOCTYPE svg PUBLIC "-//W3C//DTD SVG 1.1//EN"
 "http://www.w3.org/Graphics/SVG/1.1/DTD/svg11.dtd">
<!-- Generated by graphviz version 2.43.0 (0)
 -->
<!-- Title: blocks.hpp Pages: 1 -->
<svg width="2205pt" height="421pt"
 viewBox="0.00 0.00 2205.00 420.53" xmlns="http://www.w3.org/2000/svg" xmlns:xlink="http://www.w3.org/1999/xlink">
<g id="graph0" class="graph" transform="scale(1 1) rotate(0) translate(4 416.53)">
<title>blocks.hpp</title>
<!-- Node1 -->
<g id="node1" class="node">
<title>Node1</title>
<g id="a_node1"><a xlink:title=" ">
<polygon fill="#bfbfbf" stroke="black" points="1082,-392.5 1082,-411.5 1151,-411.5 1151,-392.5 1082,-392.5"/>
<text text-anchor="middle" x="1116.5" y="-399.5" font-family="Helvetica,sans-Serif" font-size="10.00">blocks.hpp</text>
</a>
</g>
</g>
<!-- Node1&#45;&gt;Node1 -->
<g id="edge2" class="edge">
<title>Node1&#45;&gt;Node1</title>
<path fill="none" stroke="midnightblue" d="M1149.01,-412.5C1160.09,-412.56 1169,-409.06 1169,-402 1169,-392.87 1154.11,-389.69 1138.89,-392.47"/>
<polygon fill="midnightblue" stroke="midnightblue" points="1149.18,-409 1138.89,-411.53 1148.51,-415.97 1149.18,-409"/>
</g>
<!-- Node2 -->
<g id="node2" class="node">
<title>Node2</title>
<g id="a_node2"><a xlink:href="influxdb_8cpp.html" target="_top" xlink:title=" ">
<polygon fill="none" stroke="black" points="877.5,-224.5 877.5,-243.5 953.5,-243.5 953.5,-224.5 877.5,-224.5"/>
<text text-anchor="middle" x="915.5" y="-231.5" font-family="Helvetica,sans-Serif" font-size="10.00">influxdb.cpp</text>
</a>
</g>
</g>
<!-- Node1&#45;&gt;Node2 -->
<g id="edge1" class="edge">
<title>Node1&#45;&gt;Node2</title>
<path fill="none" stroke="midnightblue" d="M1091.75,-387.35C1060.79,-369.6 1007.02,-336.52 967.5,-300 948.18,-282.15 930.05,-256.83 921.18,-243.68"/>
<polygon fill="midnightblue" stroke="midnightblue" points="1090.17,-390.48 1100.59,-392.36 1093.61,-384.38 1090.17,-390.48"/>
</g>
<!-- Node3 -->
<g id="node3" class="node">
<title>Node3</title>
<g id="a_node3"><a xlink:href="shared__data_8hpp.html" target="_top" xlink:title="Contains the SharedData struct, used across all modules and extensions.">
<polygon fill="none" stroke="black" points="1287.5,-336.5 1287.5,-355.5 1385.5,-355.5 1385.5,-336.5 1287.5,-336.5"/>
<text text-anchor="middle" x="1336.5" y="-343.5" font-family="Helvetica,sans-Serif" font-size="10.00">shared_data.hpp</text>
</a>
</g>
</g>
<!-- Node1&#45;&gt;Node3 -->
<g id="edge3" class="edge">
<title>Node1&#45;&gt;Node3</title>
<path fill="none" stroke="midnightblue" d="M1161.22,-390.02C1202.78,-379.82 1263.81,-364.84 1301.8,-355.52"/>
<polygon fill="midnightblue" stroke="midnightblue" points="1160.24,-386.66 1151.36,-392.44 1161.91,-393.46 1160.24,-386.66"/>
</g>
<!-- Node4 -->
<g id="node4" class="node">
<title>Node4</title>
<g id="a_node4"><a xlink:href="cfg__section_8hpp.html" target="_top" xlink:title="This file contains the base class for all configuration sections.">
<polygon fill="none" stroke="black" points="1610,-280.5 1610,-299.5 1703,-299.5 1703,-280.5 1610,-280.5"/>
<text text-anchor="middle" x="1656.5" y="-287.5" font-family="Helvetica,sans-Serif" font-size="10.00">cfg_section.hpp</text>
</a>
</g>
</g>
<!-- Node3&#45;&gt;Node4 -->
<g id="edge4" class="edge">
<title>Node3&#45;&gt;Node4</title>
<path fill="none" stroke="midnightblue" d="M1395.79,-334.99C1457.57,-324.57 1553.09,-308.45 1609.75,-298.89"/>
<polygon fill="midnightblue" stroke="midnightblue" points="1395.08,-331.57 1385.8,-336.68 1396.24,-338.47 1395.08,-331.57"/>
</g>
<!-- Node7 -->
<g id="node7" class="node">
<title>Node7</title>
<g id="a_node7"><a xlink:href="extension__base_8hpp.html" target="_top" xlink:title="The new implementation of the extension system.">
<polygon fill="none" stroke="black" points="572.5,-168.5 572.5,-187.5 686.5,-187.5 686.5,-168.5 572.5,-168.5"/>
<text text-anchor="middle" x="629.5" y="-175.5" font-family="Helvetica,sans-Serif" font-size="10.00">extension_base.hpp</text>
</a>
</g>
</g>
<!-- Node3&#45;&gt;Node7 -->
<g id="edge28" class="edge">
<title>Node3&#45;&gt;Node7</title>
<path fill="none" stroke="midnightblue" d="M1277.17,-344.78C1217.79,-342.5 1125.08,-333.22 1052.5,-300 1004.89,-278.21 1010.35,-245.24 962.5,-224 914.38,-202.64 768.57,-189.03 686.75,-182.86"/>
<polygon fill="midnightblue" stroke="midnightblue" points="1277.38,-348.29 1287.49,-345.12 1277.61,-341.29 1277.38,-348.29"/>
</g>
<!-- Node22 -->
<g id="node22" class="node">
<title>Node22</title>
<g id="a_node22"><a xlink:href="flight__runner_8hpp.html" target="_top" xlink:title=" ">
<polygon fill="none" stroke="black" points="1315.5,-56.5 1315.5,-75.5 1413.5,-75.5 1413.5,-56.5 1315.5,-56.5"/>
<text text-anchor="middle" x="1364.5" y="-63.5" font-family="Helvetica,sans-Serif" font-size="10.00">flight_runner.hpp</text>
</a>
</g>
</g>
<!-- Node3&#45;&gt;Node22 -->
<g id="edge29" class="edge">
<title>Node3&#45;&gt;Node22</title>
<path fill="none" stroke="midnightblue" d="M1334.27,-326.36C1330.09,-286.22 1323.4,-189.02 1345.5,-112 1349.24,-98.96 1355.73,-84.64 1360.07,-75.74"/>
<polygon fill="midnightblue" stroke="midnightblue" points="1330.79,-326.75 1335.38,-336.3 1337.75,-325.98 1330.79,-326.75"/>
</g>
<!-- Node26 -->
<g id="node26" class="node">
<title>Node26</title>
<g id="a_node26"><a xlink:href="console__pages_8hpp.html" target="_top" xlink:title=" ">
<polygon fill="none" stroke="black" points="1960.5,-224.5 1960.5,-243.5 2070.5,-243.5 2070.5,-224.5 1960.5,-224.5"/>
<text text-anchor="middle" x="2015.5" y="-231.5" font-family="Helvetica,sans-Serif" font-size="10.00">console_pages.hpp</text>
</a>
</g>
</g>
<!-- Node3&#45;&gt;Node26 -->
<g id="edge30" class="edge">
<title>Node3&#45;&gt;Node26</title>
<path fill="none" stroke="midnightblue" d="M1395.77,-339.61C1470.07,-332.47 1601.17,-318.56 1712.5,-300 1810.41,-283.67 1924.57,-257.12 1980.71,-243.56"/>
<polygon fill="midnightblue" stroke="midnightblue" points="1395.3,-336.14 1385.68,-340.57 1395.96,-343.11 1395.3,-336.14"/>
</g>
<!-- Node32 -->
<g id="node32" class="node">
<title>Node32</title>
<g id="a_node32"><a xlink:href="data__formatting_8hpp.html" target="_top" xlink:title="This file contains the DataFormatter class, which is used to format data for the data and log files.">
<polygon fill="none" stroke="black" points="1173.5,-280.5 1173.5,-299.5 1289.5,-299.5 1289.5,-280.5 1173.5,-280.5"/>
<text text-anchor="middle" x="1231.5" y="-287.5" font-family="Helvetica,sans-Serif" font-size="10.00">data_formatting.hpp</text>
</a>
</g>
</g>
<!-- Node3&#45;&gt;Node32 -->
<g id="edge38" class="edge">
<title>Node3&#45;&gt;Node32</title>
<path fill="none" stroke="midnightblue" d="M1310.69,-331.73C1291.25,-321.73 1265.15,-308.31 1248.33,-299.65"/>
<polygon fill="midnightblue" stroke="midnightblue" points="1309.14,-334.86 1319.63,-336.32 1312.34,-328.64 1309.14,-334.86"/>
</g>
<!-- Node34 -->
<g id="node34" class="node">
<title>Node34</title>
<g id="a_node34"><a xlink:href="data__log_8hpp.html" target="_top" xlink:title="The data log is responsible for writing data to files and managing the file system.">
<polygon fill="none" stroke="black" points="1009.5,-224.5 1009.5,-243.5 1089.5,-243.5 1089.5,-224.5 1009.5,-224.5"/>
<text text-anchor="middle" x="1049.5" y="-231.5" font-family="Helvetica,sans-Serif" font-size="10.00">data_log.hpp</text>
</a>
</g>
</g>
<!-- Node3&#45;&gt;Node34 -->
<g id="edge45" class="edge">
<title>Node3&#45;&gt;Node34</title>
<path fill="none" stroke="midnightblue" d="M1277.13,-342.25C1207.76,-337.84 1098.61,-326.75 1068.5,-300 1052.15,-285.48 1049.53,-257.74 1049.32,-243.66"/>
<polygon fill="midnightblue" stroke="midnightblue" points="1277.29,-345.77 1287.49,-342.88 1277.72,-338.78 1277.29,-345.77"/>
</g>
<!-- Node38 -->
<g id="node38" class="node">
<title>Node38</title>
<g id="a_node38"><a xlink:href="influxdb_8hpp.html" target="_top" xlink:title=" ">
<polygon fill="none" stroke="black" points="1078,-280.5 1078,-299.5 1155,-299.5 1155,-280.5 1078,-280.5"/>
<text text-anchor="middle" x="1116.5" y="-287.5" font-family="Helvetica,sans-Serif" font-size="10.00">influxdb.hpp</text>
</a>
</g>
</g>
<!-- Node3&#45;&gt;Node38 -->
<g id="edge46" class="edge">
<title>Node3&#45;&gt;Node38</title>
<path fill="none" stroke="midnightblue" d="M1291.78,-334.02C1250.22,-323.82 1189.19,-308.84 1151.2,-299.52"/>
<polygon fill="midnightblue" stroke="midnightblue" points="1291.09,-337.46 1301.64,-336.44 1292.76,-330.66 1291.09,-337.46"/>
</g>
<!-- Node39 -->
<g id="node39" class="node">
<title>Node39</title>
<g id="a_node39"><a xlink:href="module_8hpp.html" target="_top" xlink:title="The header file for the base module class.">
<polygon fill="none" stroke="black" points="1345.5,-168.5 1345.5,-187.5 1419.5,-187.5 1419.5,-168.5 1345.5,-168.5"/>
<text text-anchor="middle" x="1382.5" y="-175.5" font-family="Helvetica,sans-Serif" font-size="10.00">module.hpp</text>
</a>
</g>
</g>
<!-- Node3&#45;&gt;Node39 -->
<g id="edge49" class="edge">
<title>Node3&#45;&gt;Node39</title>
<path fill="none" stroke="midnightblue" d="M1341.66,-326.39C1351.58,-290.59 1372.98,-213.34 1380.13,-187.57"/>
<polygon fill="midnightblue" stroke="midnightblue" points="1338.27,-325.5 1338.97,-336.08 1345.02,-327.37 1338.27,-325.5"/>
</g>
<!-- Node47 -->
<g id="node47" class="node">
<title>Node47</title>
<g id="a_node47"><a xlink:href="request__handler_8hpp.html" target="_top" xlink:title="The request handler class header.">
<polygon fill="none" stroke="black" points="1417.5,-224.5 1417.5,-243.5 1533.5,-243.5 1533.5,-224.5 1417.5,-224.5"/>
<text text-anchor="middle" x="1475.5" y="-231.5" font-family="Helvetica,sans-Serif" font-size="10.00">request_handler.hpp</text>
</a>
</g>
</g>
<!-- Node3&#45;&gt;Node47 -->
<g id="edge63" class="edge">
<title>Node3&#45;&gt;Node47</title>
<path fill="none" stroke="midnightblue" d="M1353.68,-329.55C1368.86,-316.09 1391.73,-296.25 1412.5,-280 1429.44,-266.75 1449.81,-252.48 1462.71,-243.65"/>
<polygon fill="midnightblue" stroke="midnightblue" points="1351.24,-327.04 1346.11,-336.31 1355.9,-332.26 1351.24,-327.04"/>
</g>
<!-- Node49 -->
<g id="node49" class="node">
<title>Node49</title>
<g id="a_node49"><a xlink:href="logger_8hpp.html" target="_top" xlink:title="A simple logger class so difference classes have access to the same logger.">
<polygon fill="none" stroke="black" points="1421.5,-280.5 1421.5,-299.5 1489.5,-299.5 1489.5,-280.5 1421.5,-280.5"/>
<text text-anchor="middle" x="1455.5" y="-287.5" font-family="Helvetica,sans-Serif" font-size="10.00">logger.hpp</text>
</a>
</g>
</g>
<!-- Node3&#45;&gt;Node49 -->
<g id="edge66" class="edge">
<title>Node3&#45;&gt;Node49</title>
<path fill="none" stroke="midnightblue" d="M1364.64,-332.23C1386.9,-322.13 1417.36,-308.31 1436.73,-299.52"/>
<polygon fill="midnightblue" stroke="midnightblue" points="1363.02,-329.12 1355.36,-336.44 1365.91,-335.5 1363.02,-329.12"/>
</g>
<!-- Node50 -->
<g id="node50" class="node">
<title>Node50</title>
<g id="a_node50"><a xlink:href="to__json_8cpp.html" target="_top" xlink:title=" ">
<polygon fill="none" stroke="black" points="1507.5,-280.5 1507.5,-299.5 1579.5,-299.5 1579.5,-280.5 1507.5,-280.5"/>
<text text-anchor="middle" x="1543.5" y="-287.5" font-family="Helvetica,sans-Serif" font-size="10.00">to_json.cpp</text>
</a>
</g>
</g>
<!-- Node3&#45;&gt;Node50 -->
<g id="edge68" class="edge">
<title>Node3&#45;&gt;Node50</title>
<path fill="none" stroke="midnightblue" d="M1379.32,-333.83C1418.41,-323.63 1475.33,-308.78 1510.85,-299.52"/>
<polygon fill="midnightblue" stroke="midnightblue" points="1378.09,-330.53 1369.3,-336.44 1379.86,-337.31 1378.09,-330.53"/>
</g>
<!-- Node5 -->
<g id="node5" class="node">
<title>Node5</title>
<g id="a_node5"><a xlink:href="cfg__extensions_8hpp.html" target="_top" xlink:title="The header file for the extensions section of the configuration.">
<polygon fill="none" stroke="black" points="1613,-224.5 1613,-243.5 1724,-243.5 1724,-224.5 1613,-224.5"/>
<text text-anchor="middle" x="1668.5" y="-231.5" font-family="Helvetica,sans-Serif" font-size="10.00">cfg_extensions.hpp</text>
</a>
</g>
</g>
<!-- Node4&#45;&gt;Node5 -->
<g id="edge5" class="edge">
<title>Node4&#45;&gt;Node5</title>
<path fill="none" stroke="midnightblue" d="M1660.7,-270.1C1662.69,-261.14 1664.98,-250.86 1666.56,-243.75"/>
<polygon fill="midnightblue" stroke="midnightblue" points="1657.23,-269.56 1658.48,-280.08 1664.07,-271.08 1657.23,-269.56"/>
</g>
<!-- Node6 -->
<g id="node6" class="node">
<title>Node6</title>
<g id="a_node6"><a xlink:href="cfg__extensions_8cpp.html" target="_top" xlink:title="Implements the extensions section of the configuration.">
<polygon fill="none" stroke="black" points="1791.5,-168.5 1791.5,-187.5 1901.5,-187.5 1901.5,-168.5 1791.5,-168.5"/>
<text text-anchor="middle" x="1846.5" y="-175.5" font-family="Helvetica,sans-Serif" font-size="10.00">cfg_extensions.cpp</text>
</a>
</g>
</g>
<!-- Node5&#45;&gt;Node6 -->
<g id="edge6" class="edge">
<title>Node5&#45;&gt;Node6</title>
<path fill="none" stroke="midnightblue" d="M1706.62,-221.44C1740.18,-211.26 1788.27,-196.66 1818.43,-187.52"/>
<polygon fill="midnightblue" stroke="midnightblue" points="1705.26,-218.19 1696.7,-224.44 1707.29,-224.89 1705.26,-218.19"/>
</g>
<!-- Node5&#45;&gt;Node7 -->
<g id="edge7" class="edge">
<title>Node5&#45;&gt;Node7</title>
<path fill="none" stroke="midnightblue" d="M1602.47,-228.01C1583.15,-226.62 1561.98,-225.18 1542.5,-224 1218.95,-204.47 830.5,-187.46 686.68,-181.38"/>
<polygon fill="midnightblue" stroke="midnightblue" points="1602.47,-231.52 1612.69,-228.75 1602.97,-224.54 1602.47,-231.52"/>
</g>
<!-- Node25 -->
<g id="node25" class="node">
<title>Node25</title>
<g id="a_node25"><a xlink:href="preconfigured__extensions_8hpp.html" target="_top" xlink:title="This file contains preconfigured extension metadata.">
<polygon fill="none" stroke="black" points="1610,-168.5 1610,-187.5 1773,-187.5 1773,-168.5 1610,-168.5"/>
<text text-anchor="middle" x="1691.5" y="-175.5" font-family="Helvetica,sans-Serif" font-size="10.00">preconfigured_extensions.hpp</text>
</a>
</g>
</g>
<!-- Node5&#45;&gt;Node25 -->
<g id="edge27" class="edge">
<title>Node5&#45;&gt;Node25</title>
<path fill="none" stroke="midnightblue" d="M1676.3,-214.69C1680.18,-205.59 1684.68,-195.01 1687.77,-187.75"/>
<polygon fill="midnightblue" stroke="midnightblue" points="1673,-213.51 1672.3,-224.08 1679.44,-216.25 1673,-213.51"/>
</g>
<!-- Node8 -->
<g id="node8" class="node">
<title>Node8</title>
<g id="a_node8"><a xlink:href="adc__extension__base_8hpp.html" target="_top" xlink:title="Generic ADC Extension Wrapper.">
<polygon fill="none" stroke="black" points="196,-112.5 196,-131.5 333,-131.5 333,-112.5 196,-112.5"/>
<text text-anchor="middle" x="264.5" y="-119.5" font-family="Helvetica,sans-Serif" font-size="10.00">adc_extension_base.hpp</text>
</a>
</g>
</g>
<!-- Node7&#45;&gt;Node8 -->
<g id="edge8" class="edge">
<title>Node7&#45;&gt;Node8</title>
<path fill="none" stroke="midnightblue" d="M562.15,-167.04C493.21,-156.84 387.18,-141.15 322.03,-131.51"/>
<polygon fill="midnightblue" stroke="midnightblue" points="562.06,-170.56 572.47,-168.56 563.09,-163.64 562.06,-170.56"/>
</g>
<!-- Node11 -->
<g id="node11" class="node">
<title>Node11</title>
<g id="a_node11"><a xlink:href="bme280_8hpp.html" target="_top" xlink:title="The BME280 sensor extension.">
<polygon fill="none" stroke="black" points="647,-112.5 647,-131.5 724,-131.5 724,-112.5 647,-112.5"/>
<text text-anchor="middle" x="685.5" y="-119.5" font-family="Helvetica,sans-Serif" font-size="10.00">bme280.hpp</text>
</a>
</g>
</g>
<!-- Node7&#45;&gt;Node11 -->
<g id="edge11" class="edge">
<title>Node7&#45;&gt;Node11</title>
<path fill="none" stroke="midnightblue" d="M645.83,-161.25C655.76,-151.67 668.09,-139.79 676.34,-131.83"/>
<polygon fill="midnightblue" stroke="midnightblue" points="643.27,-158.86 638.5,-168.32 648.13,-163.9 643.27,-158.86"/>
</g>
<!-- Node13 -->
<g id="node13" class="node">
<title>Node13</title>
<g id="a_node13"><a xlink:href="ds18b20_8hpp.html" target="_top" xlink:title="DS18B20 extension header file.">
<polygon fill="none" stroke="black" points="0,-112.5 0,-131.5 79,-131.5 79,-112.5 0,-112.5"/>
<text text-anchor="middle" x="39.5" y="-119.5" font-family="Helvetica,sans-Serif" font-size="10.00">ds18b20.hpp</text>
</a>
</g>
</g>
<!-- Node7&#45;&gt;Node13 -->
<g id="edge13" class="edge">
<title>Node7&#45;&gt;Node13</title>
<path fill="none" stroke="midnightblue" d="M562.23,-173.54C459.7,-167.79 258.31,-154.6 88.5,-132 85.41,-131.59 82.23,-131.12 79.03,-130.61"/>
<polygon fill="midnightblue" stroke="midnightblue" points="562.26,-177.05 572.44,-174.11 562.65,-170.06 562.26,-177.05"/>
</g>
<!-- Node15 -->
<g id="node15" class="node">
<title>Node15</title>
<g id="a_node15"><a xlink:href="extension__base_8cpp.html" target="_top" xlink:title="The new implementation of the extension system.">
<polygon fill="none" stroke="black" points="516,-112.5 516,-131.5 629,-131.5 629,-112.5 516,-112.5"/>
<text text-anchor="middle" x="572.5" y="-119.5" font-family="Helvetica,sans-Serif" font-size="10.00">extension_base.cpp</text>
</a>
</g>
</g>
<!-- Node7&#45;&gt;Node15 -->
<g id="edge15" class="edge">
<title>Node7&#45;&gt;Node15</title>
<path fill="none" stroke="midnightblue" d="M612.88,-161.25C602.77,-151.67 590.22,-139.79 581.82,-131.83"/>
<polygon fill="midnightblue" stroke="midnightblue" points="610.68,-163.99 620.34,-168.32 615.49,-158.91 610.68,-163.99"/>
</g>
<!-- Node16 -->
<g id="node16" class="node">
<title>Node16</title>
<g id="a_node16"><a xlink:href="i2c__extension__adapter_8hpp.html" target="_top" xlink:title="Adapter for I2C Extensions.">
<polygon fill="none" stroke="black" points="351,-112.5 351,-131.5 498,-131.5 498,-112.5 351,-112.5"/>
<text text-anchor="middle" x="424.5" y="-119.5" font-family="Helvetica,sans-Serif" font-size="10.00">i2c_extension_adapter.hpp</text>
</a>
</g>
</g>
<!-- Node7&#45;&gt;Node16 -->
<g id="edge16" class="edge">
<title>Node7&#45;&gt;Node16</title>
<path fill="none" stroke="midnightblue" d="M587.09,-165.83C548.39,-155.63 492.01,-140.78 456.83,-131.52"/>
<polygon fill="midnightblue" stroke="midnightblue" points="586.46,-169.28 597.02,-168.44 588.24,-162.51 586.46,-169.28"/>
</g>
<!-- Node17 -->
<g id="node17" class="node">
<title>Node17</title>
<g id="a_node17"><a xlink:href="samm8q_8hpp.html" target="_top" xlink:title="SAM&#45;M8Q GPS extension (I2C).">
<polygon fill="none" stroke="black" points="97.5,-112.5 97.5,-131.5 177.5,-131.5 177.5,-112.5 97.5,-112.5"/>
<text text-anchor="middle" x="137.5" y="-119.5" font-family="Helvetica,sans-Serif" font-size="10.00">samm8q.hpp</text>
</a>
</g>
</g>
<!-- Node7&#45;&gt;Node17 -->
<g id="edge18" class="edge">
<title>Node7&#45;&gt;Node17</title>
<path fill="none" stroke="midnightblue" d="M562.33,-171.87C475.36,-164.84 319.2,-150.9 186.5,-132 183.59,-131.59 180.59,-131.12 177.57,-130.63"/>
<polygon fill="midnightblue" stroke="midnightblue" points="562.08,-175.36 572.33,-172.67 562.64,-168.38 562.08,-175.36"/>
</g>
<!-- Node19 -->
<g id="node19" class="node">
<title>Node19</title>
<g id="a_node19"><a xlink:href="simulated__extensions_8hpp.html" target="_top" xlink:title="This contains the simulated extensions for testing the flight system.">
<polygon fill="none" stroke="black" points="742,-112.5 742,-131.5 887,-131.5 887,-112.5 742,-112.5"/>
<text text-anchor="middle" x="814.5" y="-119.5" font-family="Helvetica,sans-Serif" font-size="10.00">simulated_extensions.hpp</text>
</a>
</g>
</g>
<!-- Node7&#45;&gt;Node19 -->
<g id="edge20" class="edge">
<title>Node7&#45;&gt;Node19</title>
<path fill="none" stroke="midnightblue" d="M668.67,-165.57C703.57,-155.38 753.85,-140.7 785.32,-131.52"/>
<polygon fill="midnightblue" stroke="midnightblue" points="667.43,-162.28 658.81,-168.44 669.39,-169 667.43,-162.28"/>
</g>
<!-- Node21 -->
<g id="node21" class="node">
<title>Node21</title>
<g id="a_node21"><a xlink:href="extension__module_8hpp.html" target="_top" xlink:title="This is the header file for the new extension module.">
<polygon fill="none" stroke="black" points="1024.5,-112.5 1024.5,-131.5 1152.5,-131.5 1152.5,-112.5 1024.5,-112.5"/>
<text text-anchor="middle" x="1088.5" y="-119.5" font-family="Helvetica,sans-Serif" font-size="10.00">extension_module.hpp</text>
</a>
</g>
</g>
<!-- Node7&#45;&gt;Node21 -->
<g id="edge22" class="edge">
<title>Node7&#45;&gt;Node21</title>
<path fill="none" stroke="midnightblue" d="M696.61,-169.25C773.44,-160.36 903.07,-145.29 1014.5,-132 1017.71,-131.62 1021,-131.22 1024.33,-130.82"/>
<polygon fill="midnightblue" stroke="midnightblue" points="696.12,-165.79 686.59,-170.41 696.92,-172.74 696.12,-165.79"/>
</g>
<!-- Node9 -->
<g id="node9" class="node">
<title>Node9</title>
<g id="a_node9"><a xlink:href="mcp3021_8hpp.html" target="_top" xlink:title="MCP3021 I2C ADC Driver.">
<polygon fill="none" stroke="black" points="303,-56.5 303,-75.5 386,-75.5 386,-56.5 303,-56.5"/>
<text text-anchor="middle" x="344.5" y="-63.5" font-family="Helvetica,sans-Serif" font-size="10.00">mcp3021.hpp</text>
</a>
</g>
</g>
<!-- Node8&#45;&gt;Node9 -->
<g id="edge9" class="edge">
<title>Node8&#45;&gt;Node9</title>
<path fill="none" stroke="midnightblue" d="M285.8,-106.62C300.42,-96.76 319.33,-83.99 331.68,-75.65"/>
<polygon fill="midnightblue" stroke="midnightblue" points="283.68,-103.83 277.35,-112.32 287.6,-109.63 283.68,-103.83"/>
</g>
<!-- Node10 -->
<g id="node10" class="node">
<title>Node10</title>
<g id="a_node10"><a xlink:href="mcp3021_8cpp.html" target="_top" xlink:title="MCP3021 I2C ADC Driver.">
<polygon fill="none" stroke="black" points="303.5,-0.5 303.5,-19.5 385.5,-19.5 385.5,-0.5 303.5,-0.5"/>
<text text-anchor="middle" x="344.5" y="-7.5" font-family="Helvetica,sans-Serif" font-size="10.00">mcp3021.cpp</text>
</a>
</g>
</g>
<!-- Node9&#45;&gt;Node10 -->
<g id="edge10" class="edge">
<title>Node9&#45;&gt;Node10</title>
<path fill="none" stroke="midnightblue" d="M344.5,-45.8C344.5,-36.91 344.5,-26.78 344.5,-19.75"/>
<polygon fill="midnightblue" stroke="midnightblue" points="341,-46.08 344.5,-56.08 348,-46.08 341,-46.08"/>
</g>
<!-- Node12 -->
<g id="node12" class="node">
<title>Node12</title>
<g id="a_node12"><a xlink:href="bme280_8cpp.html" target="_top" xlink:title="BME280 sensor extension.">
<polygon fill="none" stroke="black" points="647,-56.5 647,-75.5 724,-75.5 724,-56.5 647,-56.5"/>
<text text-anchor="middle" x="685.5" y="-63.5" font-family="Helvetica,sans-Serif" font-size="10.00">bme280.cpp</text>
</a>
</g>
</g>
<!-- Node11&#45;&gt;Node12 -->
<g id="edge12" class="edge">
<title>Node11&#45;&gt;Node12</title>
<path fill="none" stroke="midnightblue" d="M685.5,-101.8C685.5,-92.91 685.5,-82.78 685.5,-75.75"/>
<polygon fill="midnightblue" stroke="midnightblue" points="682,-102.08 685.5,-112.08 689,-102.08 682,-102.08"/>
</g>
<!-- Node14 -->
<g id="node14" class="node">
<title>Node14</title>
<g id="a_node14"><a xlink:href="ds18b20_8cpp.html" target="_top" xlink:title="DS18B20 extension.">
<polygon fill="none" stroke="black" points="0.5,-56.5 0.5,-75.5 78.5,-75.5 78.5,-56.5 0.5,-56.5"/>
<text text-anchor="middle" x="39.5" y="-63.5" font-family="Helvetica,sans-Serif" font-size="10.00">ds18b20.cpp</text>
</a>
</g>
</g>
<!-- Node13&#45;&gt;Node14 -->
<g id="edge14" class="edge">
<title>Node13&#45;&gt;Node14</title>
<path fill="none" stroke="midnightblue" d="M39.5,-101.8C39.5,-92.91 39.5,-82.78 39.5,-75.75"/>
<polygon fill="midnightblue" stroke="midnightblue" points="36,-102.08 39.5,-112.08 43,-102.08 36,-102.08"/>
</g>
<!-- Node16&#45;&gt;Node9 -->
<g id="edge17" class="edge">
<title>Node16&#45;&gt;Node9</title>
<path fill="none" stroke="midnightblue" d="M403.2,-106.62C388.58,-96.76 369.67,-83.99 357.32,-75.65"/>
<polygon fill="midnightblue" stroke="midnightblue" points="401.4,-109.63 411.65,-112.32 405.32,-103.83 401.4,-109.63"/>
</g>
<!-- Node18 -->
<g id="node18" class="node">
<title>Node18</title>
<g id="a_node18"><a xlink:href="samm8q_8cpp.html" target="_top" xlink:title="The SAM&#45;M8Q GPS extension (I2C).">
<polygon fill="none" stroke="black" points="97.5,-56.5 97.5,-75.5 177.5,-75.5 177.5,-56.5 97.5,-56.5"/>
<text text-anchor="middle" x="137.5" y="-63.5" font-family="Helvetica,sans-Serif" font-size="10.00">samm8q.cpp</text>
</a>
</g>
</g>
<!-- Node17&#45;&gt;Node18 -->
<g id="edge19" class="edge">
<title>Node17&#45;&gt;Node18</title>
<path fill="none" stroke="midnightblue" d="M137.5,-101.8C137.5,-92.91 137.5,-82.78 137.5,-75.75"/>
<polygon fill="midnightblue" stroke="midnightblue" points="134,-102.08 137.5,-112.08 141,-102.08 134,-102.08"/>
</g>
<!-- Node20 -->
<g id="node20" class="node">
<title>Node20</title>
<g id="a_node20"><a xlink:href="extension__module_8cpp.html" target="_top" xlink:title="The implementation of the new extension module.">
<polygon fill="none" stroke="black" points="1024,-56.5 1024,-75.5 1151,-75.5 1151,-56.5 1024,-56.5"/>
<text text-anchor="middle" x="1087.5" y="-63.5" font-family="Helvetica,sans-Serif" font-size="10.00">extension_module.cpp</text>
</a>
</g>
</g>
<!-- Node19&#45;&gt;Node20 -->
<g id="edge21" class="edge">
<title>Node19&#45;&gt;Node20</title>
<path fill="none" stroke="midnightblue" d="M867.72,-110.47C919.31,-100.27 996.6,-84.98 1044.44,-75.52"/>
<polygon fill="midnightblue" stroke="midnightblue" points="866.89,-107.07 857.76,-112.44 868.25,-113.94 866.89,-107.07"/>
</g>
<!-- Node21&#45;&gt;Node20 -->
<g id="edge26" class="edge">
<title>Node21&#45;&gt;Node20</title>
<path fill="none" stroke="midnightblue" d="M1088.14,-101.8C1087.98,-92.91 1087.79,-82.78 1087.66,-75.75"/>
<polygon fill="midnightblue" stroke="midnightblue" points="1084.65,-102.15 1088.33,-112.08 1091.65,-102.02 1084.65,-102.15"/>
</g>
<!-- Node21&#45;&gt;Node22 -->
<g id="edge23" class="edge">
<title>Node21&#45;&gt;Node22</title>
<path fill="none" stroke="midnightblue" d="M1142.3,-110.47C1194.46,-100.27 1272.61,-84.98 1320.97,-75.52"/>
<polygon fill="midnightblue" stroke="midnightblue" points="1141.37,-107.09 1132.23,-112.44 1142.72,-113.96 1141.37,-107.09"/>
</g>
<!-- Node23 -->
<g id="node23" class="node">
<title>Node23</title>
<g id="a_node23"><a xlink:href="flight__runner_8cpp.html" target="_top" xlink:title="The implementation of the flight runner, where everything comes together.">
<polygon fill="none" stroke="black" points="1266.5,-0.5 1266.5,-19.5 1364.5,-19.5 1364.5,-0.5 1266.5,-0.5"/>
<text text-anchor="middle" x="1315.5" y="-7.5" font-family="Helvetica,sans-Serif" font-size="10.00">flight_runner.cpp</text>
</a>
</g>
</g>
<!-- Node22&#45;&gt;Node23 -->
<g id="edge24" class="edge">
<title>Node22&#45;&gt;Node23</title>
<path fill="none" stroke="midnightblue" d="M1349.47,-48.43C1340.88,-38.97 1330.46,-27.48 1323.44,-19.75"/>
<polygon fill="midnightblue" stroke="midnightblue" points="1347.1,-51.03 1356.41,-56.08 1352.28,-46.33 1347.1,-51.03"/>
</g>
<!-- Node24 -->
<g id="node24" class="node">
<title>Node24</title>
<g id="a_node24"><a xlink:href="flight__system_2main_8cpp.html" target="_top" xlink:title="Defines the entry point/main function of the Flight Computer software.">
<polygon fill="none" stroke="black" points="1382.5,-0.5 1382.5,-19.5 1444.5,-19.5 1444.5,-0.5 1382.5,-0.5"/>
<text text-anchor="middle" x="1413.5" y="-7.5" font-family="Helvetica,sans-Serif" font-size="10.00">main.cpp</text>
</a>
</g>
</g>
<!-- Node22&#45;&gt;Node24 -->
<g id="edge25" class="edge">
<title>Node22&#45;&gt;Node24</title>
<path fill="none" stroke="midnightblue" d="M1379.53,-48.43C1388.12,-38.97 1398.54,-27.48 1405.56,-19.75"/>
<polygon fill="midnightblue" stroke="midnightblue" points="1376.72,-46.33 1372.59,-56.08 1381.9,-51.03 1376.72,-46.33"/>
</g>
<!-- Node27 -->
<g id="node27" class="node">
<title>Node27</title>
<g id="a_node27"><a xlink:href="console__module_8hpp.html" target="_top" xlink:title=" ">
<polygon fill="none" stroke="black" points="1817,-112.5 1817,-131.5 1934,-131.5 1934,-112.5 1817,-112.5"/>
<text text-anchor="middle" x="1875.5" y="-119.5" font-family="Helvetica,sans-Serif" font-size="10.00">console_module.hpp</text>
</a>
</g>
</g>
<!-- Node26&#45;&gt;Node27 -->
<g id="edge31" class="edge">
<title>Node26&#45;&gt;Node27</title>
<path fill="none" stroke="midnightblue" d="M2029.8,-215.95C2039.7,-201.96 2049.33,-182.22 2038.5,-168 2025.65,-151.12 1975.37,-138.96 1934.02,-131.57"/>
<polygon fill="midnightblue" stroke="midnightblue" points="2026.78,-214.13 2023.46,-224.19 2032.33,-218.4 2026.78,-214.13"/>
</g>
<!-- Node29 -->
<g id="node29" class="node">
<title>Node29</title>
<g id="a_node29"><a xlink:href="console__pages_8cpp.html" target="_top" xlink:title=" ">
<polygon fill="none" stroke="black" points="1920,-168.5 1920,-187.5 2029,-187.5 2029,-168.5 1920,-168.5"/>
<text text-anchor="middle" x="1974.5" y="-175.5" font-family="Helvetica,sans-Serif" font-size="10.00">console_pages.cpp</text>
</a>
</g>
</g>
<!-- Node26&#45;&gt;Node29 -->
<g id="edge34" class="edge">
<title>Node26&#45;&gt;Node29</title>
<path fill="none" stroke="midnightblue" d="M2002.48,-215.86C1995.38,-206.5 1986.9,-195.33 1981.14,-187.75"/>
<polygon fill="midnightblue" stroke="midnightblue" points="1999.89,-218.24 2008.73,-224.08 2005.47,-214 1999.89,-218.24"/>
</g>
<!-- Node30 -->
<g id="node30" class="node">
<title>Node30</title>
<g id="a_node30"><a xlink:href="curses__utilities_8hpp.html" target="_top" xlink:title=" ">
<polygon fill="none" stroke="black" points="2086,-168.5 2086,-187.5 2197,-187.5 2197,-168.5 2086,-168.5"/>
<text text-anchor="middle" x="2141.5" y="-175.5" font-family="Helvetica,sans-Serif" font-size="10.00">curses_utilities.hpp</text>
</a>
</g>
</g>
<!-- Node26&#45;&gt;Node30 -->
<g id="edge35" class="edge">
<title>Node26&#45;&gt;Node30</title>
<path fill="none" stroke="midnightblue" d="M2044.66,-220.5C2068.28,-210.38 2100.93,-196.39 2121.63,-187.52"/>
<polygon fill="midnightblue" stroke="midnightblue" points="2043.28,-217.29 2035.47,-224.44 2046.04,-223.72 2043.28,-217.29"/>
</g>
<!-- Node27&#45;&gt;Node22 -->
<g id="edge32" class="edge">
<title>Node27&#45;&gt;Node22</title>
<path fill="none" stroke="midnightblue" d="M1806.62,-114.3C1720.48,-105.84 1568.51,-90.6 1438.5,-76 1430.53,-75.1 1422.07,-74.12 1413.84,-73.13"/>
<polygon fill="midnightblue" stroke="midnightblue" points="1806.5,-117.81 1816.8,-115.3 1807.19,-110.84 1806.5,-117.81"/>
</g>
<!-- Node28 -->
<g id="node28" class="node">
<title>Node28</title>
<g id="a_node28"><a xlink:href="console__module_8cpp.html" target="_top" xlink:title=" ">
<polygon fill="none" stroke="black" points="1817.5,-56.5 1817.5,-75.5 1933.5,-75.5 1933.5,-56.5 1817.5,-56.5"/>
<text text-anchor="middle" x="1875.5" y="-63.5" font-family="Helvetica,sans-Serif" font-size="10.00">console_module.cpp</text>
</a>
</g>
</g>
<!-- Node27&#45;&gt;Node28 -->
<g id="edge33" class="edge">
<title>Node27&#45;&gt;Node28</title>
<path fill="none" stroke="midnightblue" d="M1875.5,-101.8C1875.5,-92.91 1875.5,-82.78 1875.5,-75.75"/>
<polygon fill="midnightblue" stroke="midnightblue" points="1872,-102.08 1875.5,-112.08 1879,-102.08 1872,-102.08"/>
</g>
<!-- Node30&#45;&gt;Node27 -->
<g id="edge36" class="edge">
<title>Node30&#45;&gt;Node27</title>
<path fill="none" stroke="midnightblue" d="M2089.33,-166.41C2039.06,-156.2 1963.97,-140.96 1917.45,-131.52"/>
<polygon fill="midnightblue" stroke="midnightblue" points="2088.86,-169.88 2099.35,-168.44 2090.25,-163.02 2088.86,-169.88"/>
</g>
<!-- Node31 -->
<g id="node31" class="node">
<title>Node31</title>
<g id="a_node31"><a xlink:href="curses__utilities_8cpp.html" target="_top" xlink:title=" ">
<polygon fill="none" stroke="black" points="2086.5,-112.5 2086.5,-131.5 2196.5,-131.5 2196.5,-112.5 2086.5,-112.5"/>
<text text-anchor="middle" x="2141.5" y="-119.5" font-family="Helvetica,sans-Serif" font-size="10.00">curses_utilities.cpp</text>
</a>
</g>
</g>
<!-- Node30&#45;&gt;Node31 -->
<g id="edge37" class="edge">
<title>Node30&#45;&gt;Node31</title>
<path fill="none" stroke="midnightblue" d="M2141.5,-157.8C2141.5,-148.91 2141.5,-138.78 2141.5,-131.75"/>
<polygon fill="midnightblue" stroke="midnightblue" points="2138,-158.08 2141.5,-168.08 2145,-158.08 2138,-158.08"/>
</g>
<!-- Node33 -->
<g id="node33" class="node">
<title>Node33</title>
<g id="a_node33"><a xlink:href="data__formatting_8cpp.html" target="_top" xlink:title="Implementation of the DataFormatter class.">
<polygon fill="none" stroke="black" points="1173.5,-224.5 1173.5,-243.5 1289.5,-243.5 1289.5,-224.5 1173.5,-224.5"/>
<text text-anchor="middle" x="1231.5" y="-231.5" font-family="Helvetica,sans-Serif" font-size="10.00">data_formatting.cpp</text>
</a>
</g>
</g>
<!-- Node32&#45;&gt;Node33 -->
<g id="edge39" class="edge">
<title>Node32&#45;&gt;Node33</title>
<path fill="none" stroke="midnightblue" d="M1231.5,-269.8C1231.5,-260.91 1231.5,-250.78 1231.5,-243.75"/>
<polygon fill="midnightblue" stroke="midnightblue" points="1228,-270.08 1231.5,-280.08 1235,-270.08 1228,-270.08"/>
</g>
<!-- Node32&#45;&gt;Node34 -->
<g id="edge40" class="edge">
<title>Node32&#45;&gt;Node34</title>
<path fill="none" stroke="midnightblue" d="M1192.97,-277.57C1158.64,-267.38 1109.17,-252.7 1078.2,-243.52"/>
<polygon fill="midnightblue" stroke="midnightblue" points="1192.08,-280.95 1202.66,-280.44 1194.07,-274.24 1192.08,-280.95"/>
</g>
<!-- Node35 -->
<g id="node35" class="node">
<title>Node35</title>
<g id="a_node35"><a xlink:href="data__log_8cpp.html" target="_top" xlink:title="The implementation of the data log class.">
<polygon fill="none" stroke="black" points="1010,-168.5 1010,-187.5 1089,-187.5 1089,-168.5 1010,-168.5"/>
<text text-anchor="middle" x="1049.5" y="-175.5" font-family="Helvetica,sans-Serif" font-size="10.00">data_log.cpp</text>
</a>
</g>
</g>
<!-- Node34&#45;&gt;Node35 -->
<g id="edge41" class="edge">
<title>Node34&#45;&gt;Node35</title>
<path fill="none" stroke="midnightblue" d="M1049.5,-213.8C1049.5,-204.91 1049.5,-194.78 1049.5,-187.75"/>
<polygon fill="midnightblue" stroke="midnightblue" points="1046,-214.08 1049.5,-224.08 1053,-214.08 1046,-214.08"/>
</g>
<!-- Node36 -->
<g id="node36" class="node">
<title>Node36</title>
<g id="a_node36"><a xlink:href="data__module_8hpp.html" target="_top" xlink:title="The data module header file.">
<polygon fill="none" stroke="black" points="905,-112.5 905,-131.5 1006,-131.5 1006,-112.5 905,-112.5"/>
<text text-anchor="middle" x="955.5" y="-119.5" font-family="Helvetica,sans-Serif" font-size="10.00">data_module.hpp</text>
</a>
</g>
</g>
<!-- Node34&#45;&gt;Node36 -->
<g id="edge42" class="edge">
<title>Node34&#45;&gt;Node36</title>
<path fill="none" stroke="midnightblue" d="M1030.94,-217.69C1021.36,-209.38 1009.77,-198.64 1000.5,-188 984.27,-169.37 968.62,-144.81 960.75,-131.86"/>
<polygon fill="midnightblue" stroke="midnightblue" points="1028.84,-220.51 1038.73,-224.31 1033.37,-215.17 1028.84,-220.51"/>
</g>
<!-- Node36&#45;&gt;Node22 -->
<g id="edge43" class="edge">
<title>Node36&#45;&gt;Node22</title>
<path fill="none" stroke="midnightblue" d="M1016.18,-111.94C1146.28,-94.31 1180.58,-93.55 1306.5,-76 1309.43,-75.59 1312.43,-75.16 1315.47,-74.72"/>
<polygon fill="midnightblue" stroke="midnightblue" points="1015.66,-108.48 1006.23,-113.3 1016.61,-115.41 1015.66,-108.48"/>
</g>
<!-- Node37 -->
<g id="node37" class="node">
<title>Node37</title>
<g id="a_node37"><a xlink:href="data__module_8cpp.html" target="_top" xlink:title=" ">
<polygon fill="none" stroke="black" points="905,-56.5 905,-75.5 1006,-75.5 1006,-56.5 905,-56.5"/>
<text text-anchor="middle" x="955.5" y="-63.5" font-family="Helvetica,sans-Serif" font-size="10.00">data_module.cpp</text>
</a>
</g>
</g>
<!-- Node36&#45;&gt;Node37 -->
<g id="edge44" class="edge">
<title>Node36&#45;&gt;Node37</title>
<path fill="none" stroke="midnightblue" d="M955.5,-101.8C955.5,-92.91 955.5,-82.78 955.5,-75.75"/>
<polygon fill="midnightblue" stroke="midnightblue" points="952,-102.08 955.5,-112.08 959,-102.08 952,-102.08"/>
</g>
<!-- Node38&#45;&gt;Node2 -->
<g id="edge48" class="edge">
<title>Node38&#45;&gt;Node2</title>
<path fill="none" stroke="midnightblue" d="M1074.92,-277.83C1036.97,-267.63 981.69,-252.78 947.2,-243.52"/>
<polygon fill="midnightblue" stroke="midnightblue" points="1074.09,-281.23 1084.65,-280.44 1075.9,-274.47 1074.09,-281.23"/>
</g>
<!-- Node38&#45;&gt;Node36 -->
<g id="edge47" class="edge">
<title>Node38&#45;&gt;Node36</title>
<path fill="none" stroke="midnightblue" d="M1119.13,-270.39C1121.71,-244.3 1122.25,-196.8 1097.5,-168 1084.52,-152.9 1035.77,-139.68 998.98,-131.55"/>
<polygon fill="midnightblue" stroke="midnightblue" points="1115.64,-270.1 1117.92,-280.44 1122.59,-270.93 1115.64,-270.1"/>
</g>
<!-- Node39&#45;&gt;Node21 -->
<g id="edge52" class="edge">
<title>Node39&#45;&gt;Node21</title>
<path fill="none" stroke="midnightblue" d="M1335.41,-168.35C1280.3,-158.23 1189.64,-141.58 1134.86,-131.51"/>
<polygon fill="midnightblue" stroke="midnightblue" points="1334.8,-171.8 1345.26,-170.16 1336.06,-164.91 1334.8,-171.8"/>
</g>
<!-- Node39&#45;&gt;Node27 -->
<g id="edge50" class="edge">
<title>Node39&#45;&gt;Node27</title>
<path fill="none" stroke="midnightblue" d="M1429.65,-168.12C1575.04,-147.21 1733.31,-133.68 1816.85,-127.25"/>
<polygon fill="midnightblue" stroke="midnightblue" points="1429.04,-164.67 1419.65,-169.57 1430.05,-171.6 1429.04,-164.67"/>
</g>
<!-- Node39&#45;&gt;Node36 -->
<g id="edge51" class="edge">
<title>Node39&#45;&gt;Node36</title>
<path fill="none" stroke="midnightblue" d="M1335.23,-171.62C1265.29,-163.56 1130.15,-147.62 1015.5,-132 1012.47,-131.59 1009.36,-131.15 1006.23,-130.71"/>
<polygon fill="midnightblue" stroke="midnightblue" points="1335.14,-175.13 1345.47,-172.79 1335.94,-168.17 1335.14,-175.13"/>
</g>
<!-- Node40 -->
<g id="node40" class="node">
<title>Node40</title>
<g id="a_node40"><a xlink:href="module_8cpp.html" target="_top" xlink:title="Implementation of the module base class.">
<polygon fill="none" stroke="black" points="1354.5,-112.5 1354.5,-131.5 1428.5,-131.5 1428.5,-112.5 1354.5,-112.5"/>
<text text-anchor="middle" x="1391.5" y="-119.5" font-family="Helvetica,sans-Serif" font-size="10.00">module.cpp</text>
</a>
</g>
</g>
<!-- Node39&#45;&gt;Node40 -->
<g id="edge53" class="edge">
<title>Node39&#45;&gt;Node40</title>
<path fill="none" stroke="midnightblue" d="M1385.65,-158.1C1387.14,-149.14 1388.86,-138.86 1390.04,-131.75"/>
<polygon fill="midnightblue" stroke="midnightblue" points="1382.18,-157.64 1383.99,-168.08 1389.08,-158.79 1382.18,-157.64"/>
</g>
<!-- Node41 -->
<g id="node41" class="node">
<title>Node41</title>
<g id="a_node41"><a xlink:href="server__module_8hpp.html" target="_top" xlink:title="Header file for the server module.">
<polygon fill="none" stroke="black" points="1580.5,-112.5 1580.5,-131.5 1690.5,-131.5 1690.5,-112.5 1580.5,-112.5"/>
<text text-anchor="middle" x="1635.5" y="-119.5" font-family="Helvetica,sans-Serif" font-size="10.00">server_module.hpp</text>
</a>
</g>
</g>
<!-- Node39&#45;&gt;Node41 -->
<g id="edge54" class="edge">
<title>Node39&#45;&gt;Node41</title>
<path fill="none" stroke="midnightblue" d="M1429.64,-166.94C1477.37,-156.75 1550.38,-141.17 1595.41,-131.56"/>
<polygon fill="midnightblue" stroke="midnightblue" points="1428.61,-163.58 1419.56,-169.09 1430.07,-170.43 1428.61,-163.58"/>
</g>
<!-- Node43 -->
<g id="node43" class="node">
<title>Node43</title>
<g id="a_node43"><a xlink:href="system__module_8hpp.html" target="_top" xlink:title=" ">
<polygon fill="none" stroke="black" points="1446.5,-112.5 1446.5,-131.5 1562.5,-131.5 1562.5,-112.5 1446.5,-112.5"/>
<text text-anchor="middle" x="1504.5" y="-119.5" font-family="Helvetica,sans-Serif" font-size="10.00">system_module.hpp</text>
</a>
</g>
</g>
<!-- Node39&#45;&gt;Node43 -->
<g id="edge57" class="edge">
<title>Node39&#45;&gt;Node43</title>
<path fill="none" stroke="midnightblue" d="M1411.04,-164.37C1433.89,-154.26 1465.31,-140.35 1485.26,-131.52"/>
<polygon fill="midnightblue" stroke="midnightblue" points="1409.56,-161.2 1401.83,-168.44 1412.39,-167.6 1409.56,-161.2"/>
</g>
<!-- Node45 -->
<g id="node45" class="node">
<title>Node45</title>
<g id="a_node45"><a xlink:href="telemetry__module_8hpp.html" target="_top" xlink:title="The telemetry module.">
<polygon fill="none" stroke="black" points="1170.5,-112.5 1170.5,-131.5 1298.5,-131.5 1298.5,-112.5 1170.5,-112.5"/>
<text text-anchor="middle" x="1234.5" y="-119.5" font-family="Helvetica,sans-Serif" font-size="10.00">telemetry_module.hpp</text>
</a>
</g>
</g>
<!-- Node39&#45;&gt;Node45 -->
<g id="edge60" class="edge">
<title>Node39&#45;&gt;Node45</title>
<path fill="none" stroke="midnightblue" d="M1349.35,-164.91C1321.53,-154.75 1282.48,-140.51 1257.84,-131.52"/>
<polygon fill="midnightblue" stroke="midnightblue" points="1348.46,-168.3 1359.05,-168.44 1350.85,-161.73 1348.46,-168.3"/>
</g>
<!-- Node41&#45;&gt;Node22 -->
<g id="edge55" class="edge">
<title>Node41&#45;&gt;Node22</title>
<path fill="none" stroke="midnightblue" d="M1582.67,-110.47C1531.46,-100.27 1454.73,-84.98 1407.24,-75.52"/>
<polygon fill="midnightblue" stroke="midnightblue" points="1582.07,-113.92 1592.56,-112.44 1583.44,-107.06 1582.07,-113.92"/>
</g>
<!-- Node42 -->
<g id="node42" class="node">
<title>Node42</title>
<g id="a_node42"><a xlink:href="server__module_8cpp.html" target="_top" xlink:title="The server module class implementation.">
<polygon fill="none" stroke="black" points="1580.5,-56.5 1580.5,-75.5 1690.5,-75.5 1690.5,-56.5 1580.5,-56.5"/>
<text text-anchor="middle" x="1635.5" y="-63.5" font-family="Helvetica,sans-Serif" font-size="10.00">server_module.cpp</text>
</a>
</g>
</g>
<!-- Node41&#45;&gt;Node42 -->
<g id="edge56" class="edge">
<title>Node41&#45;&gt;Node42</title>
<path fill="none" stroke="midnightblue" d="M1635.5,-101.8C1635.5,-92.91 1635.5,-82.78 1635.5,-75.75"/>
<polygon fill="midnightblue" stroke="midnightblue" points="1632,-102.08 1635.5,-112.08 1639,-102.08 1632,-102.08"/>
</g>
<!-- Node43&#45;&gt;Node22 -->
<g id="edge58" class="edge">
<title>Node43&#45;&gt;Node22</title>
<path fill="none" stroke="midnightblue" d="M1472.8,-108.77C1446.5,-98.63 1409.78,-84.47 1386.58,-75.52"/>
<polygon fill="midnightblue" stroke="midnightblue" points="1471.73,-112.11 1482.32,-112.44 1474.25,-105.58 1471.73,-112.11"/>
</g>
<!-- Node44 -->
<g id="node44" class="node">
<title>Node44</title>
<g id="a_node44"><a xlink:href="system__module_8cpp.html" target="_top" xlink:title=" ">
<polygon fill="none" stroke="black" points="1447,-56.5 1447,-75.5 1562,-75.5 1562,-56.5 1447,-56.5"/>
<text text-anchor="middle" x="1504.5" y="-63.5" font-family="Helvetica,sans-Serif" font-size="10.00">system_module.cpp</text>
</a>
</g>
</g>
<!-- Node43&#45;&gt;Node44 -->
<g id="edge59" class="edge">
<title>Node43&#45;&gt;Node44</title>
<path fill="none" stroke="midnightblue" d="M1504.5,-101.8C1504.5,-92.91 1504.5,-82.78 1504.5,-75.75"/>
<polygon fill="midnightblue" stroke="midnightblue" points="1501,-102.08 1504.5,-112.08 1508,-102.08 1501,-102.08"/>
</g>
<!-- Node45&#45;&gt;Node22 -->
<g id="edge61" class="edge">
<title>Node45&#45;&gt;Node22</title>
<path fill="none" stroke="midnightblue" d="M1264.59,-108.5C1288.96,-98.38 1322.64,-84.39 1344,-75.52"/>
<polygon fill="midnightblue" stroke="midnightblue" points="1262.99,-105.38 1255.1,-112.44 1265.68,-111.84 1262.99,-105.38"/>
</g>
<!-- Node46 -->
<g id="node46" class="node">
<title>Node46</title>
<g id="a_node46"><a xlink:href="telemetry__module_8cpp.html" target="_top" xlink:title="The telemetry module.">
<polygon fill="none" stroke="black" points="1170,-56.5 1170,-75.5 1297,-75.5 1297,-56.5 1170,-56.5"/>
<text text-anchor="middle" x="1233.5" y="-63.5" font-family="Helvetica,sans-Serif" font-size="10.00">telemetry_module.cpp</text>
</a>
</g>
</g>
<!-- Node45&#45;&gt;Node46 -->
<g id="edge62" class="edge">
<title>Node45&#45;&gt;Node46</title>
<path fill="none" stroke="midnightblue" d="M1234.14,-101.8C1233.98,-92.91 1233.79,-82.78 1233.66,-75.75"/>
<polygon fill="midnightblue" stroke="midnightblue" points="1230.65,-102.15 1234.33,-112.08 1237.65,-102.02 1230.65,-102.15"/>
</g>
<!-- Node47&#45;&gt;Node41 -->
<g id="edge65" class="edge">
<title>Node47&#45;&gt;Node41</title>
<path fill="none" stroke="midnightblue" d="M1504.43,-220.28C1521.87,-212.07 1544.18,-200.6 1562.5,-188 1587.95,-170.5 1614.11,-145.03 1627.11,-131.77"/>
<polygon fill="midnightblue" stroke="midnightblue" points="1502.91,-217.12 1495.3,-224.49 1505.85,-223.48 1502.91,-217.12"/>
</g>
<!-- Node48 -->
<g id="node48" class="node">
<title>Node48</title>
<g id="a_node48"><a xlink:href="request__handler_8cpp.html" target="_top" xlink:title="The request handler class implementation.">
<polygon fill="none" stroke="black" points="1438,-168.5 1438,-187.5 1553,-187.5 1553,-168.5 1438,-168.5"/>
<text text-anchor="middle" x="1495.5" y="-175.5" font-family="Helvetica,sans-Serif" font-size="10.00">request_handler.cpp</text>
</a>
</g>
</g>
<!-- Node47&#45;&gt;Node48 -->
<g id="edge64" class="edge">
<title>Node47&#45;&gt;Node48</title>
<path fill="none" stroke="midnightblue" d="M1482.28,-214.69C1485.65,-205.59 1489.57,-195.01 1492.26,-187.75"/>
<polygon fill="midnightblue" stroke="midnightblue" points="1478.99,-213.49 1478.8,-224.08 1485.56,-215.92 1478.99,-213.49"/>
</g>
<!-- Node49&#45;&gt;Node47 -->
<g id="edge67" class="edge">
<title>Node49&#45;&gt;Node47</title>
<path fill="none" stroke="midnightblue" d="M1462.28,-270.69C1465.65,-261.59 1469.57,-251.01 1472.26,-243.75"/>
<polygon fill="midnightblue" stroke="midnightblue" points="1458.99,-269.49 1458.8,-280.08 1465.56,-271.92 1458.99,-269.49"/>
</g>
</g>
</svg>
