<?xml version="1.0" encoding="UTF-8" standalone="no"?>
<!DOCTYPE svg PUBLIC "-//W3C//DTD SVG 1.1//EN"
 "http://www.w3.org/Graphics/SVG/1.1/DTD/svg11.dtd">
<!-- Generated by graphviz version 2.43.0 (0)
 -->
<!-- Title: bmi088.hpp Pages: 1 -->
<svg width="2248pt" height="610pt"
 viewBox="0.00 0.00 2247.50 610.00" xmlns="http://www.w3.org/2000/svg" xmlns:xlink="http://www.w3.org/1999/xlink">
<g id="graph0" class="graph" transform="scale(1 1) rotate(0) translate(4 606)">
<title>bmi088.hpp</title>
<!-- Node1 -->
<g id="node1" class="node">
<title>Node1</title>
<g id="a_node1"><a xlink:title="Extension for the Bosch BMI088 IMU.">
<polygon fill="#bfbfbf" stroke="black" points="1721,-582.5 1721,-601.5 1795,-601.5 1795,-582.5 1721,-582.5"/>
<text text-anchor="middle" x="1758" y="-589.5" font-family="Helvetica,sans-Serif" font-size="10.00">bmi088.hpp</text>
</a>
</g>
</g>
<!-- Node2 -->
<g id="node2" class="node">
<title>Node2</title>
<g id="a_node2"><a xlink:href="extension__base_8hpp.html" target="_top" xlink:title="The new implementation of the extension system.">
<polygon fill="none" stroke="black" points="870,-465 870,-484 984,-484 984,-465 870,-465"/>
<text text-anchor="middle" x="927" y="-472" font-family="Helvetica,sans-Serif" font-size="10.00">extension_base.hpp</text>
</a>
</g>
</g>
<!-- Node1&#45;&gt;Node2 -->
<g id="edge1" class="edge">
<title>Node1&#45;&gt;Node2</title>
<path fill="none" stroke="midnightblue" d="M1720.95,-585.85C1591.93,-567.92 1161.15,-508.04 994.05,-484.82"/>
<polygon fill="midnightblue" stroke="midnightblue" points="994.53,-481.35 984.14,-483.44 993.57,-488.29 994.53,-481.35"/>
</g>
<!-- Node36 -->
<g id="node36" class="node">
<title>Node36</title>
<g id="a_node36"><a xlink:href="imu__extension__base_8hpp.html" target="_top" xlink:title="Base IMU Extension.">
<polygon fill="none" stroke="black" points="1794,-526.5 1794,-545.5 1932,-545.5 1932,-526.5 1794,-526.5"/>
<text text-anchor="middle" x="1863" y="-533.5" font-family="Helvetica,sans-Serif" font-size="10.00">imu_extension_base.hpp</text>
</a>
</g>
</g>
<!-- Node1&#45;&gt;Node36 -->
<g id="edge63" class="edge">
<title>Node1&#45;&gt;Node36</title>
<path fill="none" stroke="midnightblue" d="M1774.87,-582.32C1791.71,-573.66 1817.81,-560.24 1837.24,-550.25"/>
<polygon fill="midnightblue" stroke="midnightblue" points="1838.88,-553.34 1846.17,-545.65 1835.68,-547.12 1838.88,-553.34"/>
</g>
<!-- Node39 -->
<g id="node39" class="node">
<title>Node39</title>
<g id="a_node39"><a xlink:title=" ">
<polygon fill="none" stroke="#bfbfbf" points="2114.5,-465 2114.5,-484 2239.5,-484 2239.5,-465 2114.5,-465"/>
<text text-anchor="middle" x="2177" y="-472" font-family="Helvetica,sans-Serif" font-size="10.00">BoosterSeat/timer.hpp</text>
</a>
</g>
</g>
<!-- Node1&#45;&gt;Node39 -->
<g id="edge74" class="edge">
<title>Node1&#45;&gt;Node39</title>
<path fill="none" stroke="midnightblue" d="M1794.94,-582.48C1832,-573.8 1890.65,-559.7 1941,-546 2011.92,-526.7 2094,-501.53 2140.28,-487.08"/>
<polygon fill="midnightblue" stroke="midnightblue" points="2141.37,-490.41 2149.87,-484.08 2139.28,-483.73 2141.37,-490.41"/>
</g>
<!-- Node43 -->
<g id="node43" class="node">
<title>Node43</title>
<g id="a_node43"><a xlink:href="spi__interface_8hpp.html" target="_top" xlink:title="Contains the SPI interface class for the Giraffe flight system.">
<polygon fill="none" stroke="black" points="1660.5,-118 1660.5,-137 1761.5,-137 1761.5,-118 1660.5,-118"/>
<text text-anchor="middle" x="1711" y="-125" font-family="Helvetica,sans-Serif" font-size="10.00">spi_interface.hpp</text>
</a>
</g>
</g>
<!-- Node1&#45;&gt;Node43 -->
<g id="edge71" class="edge">
<title>Node1&#45;&gt;Node43</title>
<path fill="none" stroke="midnightblue" d="M1751.53,-582.24C1738.42,-563.61 1710,-518.28 1710,-475.5 1710,-475.5 1710,-475.5 1710,-244 1710,-209.86 1710.44,-170.05 1710.74,-147.21"/>
<polygon fill="midnightblue" stroke="midnightblue" points="1714.24,-147.24 1710.87,-137.19 1707.24,-147.15 1714.24,-147.24"/>
</g>
<!-- Node3 -->
<g id="node3" class="node">
<title>Node3</title>
<g id="a_node3"><a xlink:title=" ">
<polygon fill="none" stroke="#bfbfbf" points="0,-118 0,-137 50,-137 50,-118 0,-118"/>
<text text-anchor="middle" x="25" y="-125" font-family="Helvetica,sans-Serif" font-size="10.00">atomic</text>
</a>
</g>
</g>
<!-- Node2&#45;&gt;Node3 -->
<g id="edge2" class="edge">
<title>Node2&#45;&gt;Node3</title>
<path fill="none" stroke="midnightblue" d="M869.91,-472.13C673.26,-466.66 36,-442.43 36,-358 36,-358 36,-358 36,-244 36,-209.71 31.14,-169.95 27.88,-147.16"/>
<polygon fill="midnightblue" stroke="midnightblue" points="31.32,-146.54 26.39,-137.17 24.4,-147.57 31.32,-146.54"/>
</g>
<!-- Node4 -->
<g id="node4" class="node">
<title>Node4</title>
<g id="a_node4"><a xlink:title=" ">
<polygon fill="none" stroke="#bfbfbf" points="813,-403.5 813,-422.5 861,-422.5 861,-403.5 813,-403.5"/>
<text text-anchor="middle" x="837" y="-410.5" font-family="Helvetica,sans-Serif" font-size="10.00">thread</text>
</a>
</g>
</g>
<!-- Node2&#45;&gt;Node4 -->
<g id="edge3" class="edge">
<title>Node2&#45;&gt;Node4</title>
<path fill="none" stroke="midnightblue" d="M914.11,-464.98C899.54,-455.34 875.6,-439.52 858.25,-428.05"/>
<polygon fill="midnightblue" stroke="midnightblue" points="860.14,-425.1 849.87,-422.51 856.28,-430.94 860.14,-425.1"/>
</g>
<!-- Node5 -->
<g id="node5" class="node">
<title>Node5</title>
<g id="a_node5"><a xlink:href="cfg__extensions_8hpp.html" target="_top" xlink:title="The header file for the extensions section of the configuration.">
<polygon fill="none" stroke="black" points="955.5,-403.5 955.5,-422.5 1110.5,-422.5 1110.5,-403.5 955.5,-403.5"/>
<text text-anchor="middle" x="1033" y="-410.5" font-family="Helvetica,sans-Serif" font-size="10.00">sections/cfg_extensions.hpp</text>
</a>
</g>
</g>
<!-- Node2&#45;&gt;Node5 -->
<g id="edge4" class="edge">
<title>Node2&#45;&gt;Node5</title>
<path fill="none" stroke="midnightblue" d="M942.19,-464.98C959.66,-455.17 988.58,-438.93 1009.08,-427.42"/>
<polygon fill="midnightblue" stroke="midnightblue" points="1010.83,-430.46 1017.84,-422.51 1007.41,-424.35 1010.83,-430.46"/>
</g>
<!-- Node8 -->
<g id="node8" class="node">
<title>Node8</title>
<g id="a_node8"><a xlink:href="shared__data_8hpp.html" target="_top" xlink:title="Contains the SharedData struct, used across all modules and extensions.">
<polygon fill="none" stroke="black" points="946,-291.5 946,-310.5 1044,-310.5 1044,-291.5 946,-291.5"/>
<text text-anchor="middle" x="995" y="-298.5" font-family="Helvetica,sans-Serif" font-size="10.00">shared_data.hpp</text>
</a>
</g>
</g>
<!-- Node2&#45;&gt;Node8 -->
<g id="edge61" class="edge">
<title>Node2&#45;&gt;Node8</title>
<path fill="none" stroke="midnightblue" d="M926.4,-464.91C925.3,-443.58 924.74,-387.01 946,-347 952.37,-335.01 963.23,-324.54 973.1,-316.73"/>
<polygon fill="midnightblue" stroke="midnightblue" points="975.45,-319.34 981.39,-310.57 971.27,-313.72 975.45,-319.34"/>
</g>
<!-- Node35 -->
<g id="node35" class="node">
<title>Node35</title>
<g id="a_node35"><a xlink:href="status__led_8hpp.html" target="_top" xlink:title="RGB Status LED extension header file.">
<polygon fill="none" stroke="black" points="548,-235.5 548,-254.5 636,-254.5 636,-235.5 548,-235.5"/>
<text text-anchor="middle" x="592" y="-242.5" font-family="Helvetica,sans-Serif" font-size="10.00">status_led.hpp</text>
</a>
</g>
</g>
<!-- Node2&#45;&gt;Node35 -->
<g id="edge62" class="edge">
<title>Node2&#45;&gt;Node35</title>
<path fill="none" stroke="midnightblue" d="M921.56,-464.81C912.31,-450.56 892.34,-421.92 870,-403 789.75,-335.06 675.79,-281.6 622.14,-258.47"/>
<polygon fill="midnightblue" stroke="midnightblue" points="623.42,-255.21 612.84,-254.51 620.67,-261.65 623.42,-255.21"/>
</g>
<!-- Node6 -->
<g id="node6" class="node">
<title>Node6</title>
<g id="a_node6"><a xlink:href="configuration__enums_8hpp.html" target="_top" xlink:title=" ">
<polygon fill="none" stroke="black" points="1111,-347.5 1111,-366.5 1251,-366.5 1251,-347.5 1111,-347.5"/>
<text text-anchor="middle" x="1181" y="-354.5" font-family="Helvetica,sans-Serif" font-size="10.00">configuration_enums.hpp</text>
</a>
</g>
</g>
<!-- Node5&#45;&gt;Node6 -->
<g id="edge5" class="edge">
<title>Node5&#45;&gt;Node6</title>
<path fill="none" stroke="midnightblue" d="M1056.45,-403.44C1081.13,-394.44 1120.19,-380.19 1147.98,-370.05"/>
<polygon fill="midnightblue" stroke="midnightblue" points="1149.46,-373.23 1157.66,-366.52 1147.06,-366.66 1149.46,-373.23"/>
</g>
<!-- Node7 -->
<g id="node7" class="node">
<title>Node7</title>
<g id="a_node7"><a xlink:href="cfg__section_8hpp.html" target="_top" xlink:title="This file contains the base class for all configuration sections.">
<polygon fill="none" stroke="black" points="955.5,-347.5 955.5,-366.5 1092.5,-366.5 1092.5,-347.5 955.5,-347.5"/>
<text text-anchor="middle" x="1024" y="-354.5" font-family="Helvetica,sans-Serif" font-size="10.00">sections/cfg_section.hpp</text>
</a>
</g>
</g>
<!-- Node5&#45;&gt;Node7 -->
<g id="edge6" class="edge">
<title>Node5&#45;&gt;Node7</title>
<path fill="none" stroke="midnightblue" d="M1031.51,-403.08C1030.32,-395.93 1028.61,-385.64 1027.12,-376.69"/>
<polygon fill="midnightblue" stroke="midnightblue" points="1030.55,-376.04 1025.46,-366.75 1023.65,-377.19 1030.55,-376.04"/>
</g>
<!-- Node7&#45;&gt;Node8 -->
<g id="edge7" class="edge">
<title>Node7&#45;&gt;Node8</title>
<path fill="none" stroke="midnightblue" d="M1019.21,-347.08C1015.24,-339.69 1009.47,-328.95 1004.57,-319.81"/>
<polygon fill="midnightblue" stroke="midnightblue" points="1007.51,-317.91 999.7,-310.75 1001.35,-321.22 1007.51,-317.91"/>
</g>
<!-- Node9 -->
<g id="node9" class="node">
<title>Node9</title>
<g id="a_node9"><a xlink:title=" ">
<polygon fill="none" stroke="#bfbfbf" points="999.5,-56.5 999.5,-75.5 1124.5,-75.5 1124.5,-56.5 999.5,-56.5"/>
<text text-anchor="middle" x="1062" y="-63.5" font-family="Helvetica,sans-Serif" font-size="10.00">BoosterSeat/clock.hpp</text>
</a>
</g>
</g>
<!-- Node8&#45;&gt;Node9 -->
<g id="edge8" class="edge">
<title>Node8&#45;&gt;Node9</title>
<path fill="none" stroke="midnightblue" d="M1000.03,-291.42C1009.76,-274.4 1031.16,-234.92 1042,-199 1053.84,-159.74 1058.87,-111.71 1060.84,-85.77"/>
<polygon fill="midnightblue" stroke="midnightblue" points="1064.35,-85.74 1061.55,-75.52 1057.37,-85.26 1064.35,-85.74"/>
</g>
<!-- Node10 -->
<g id="node10" class="node">
<title>Node10</title>
<g id="a_node10"><a xlink:title=" ">
<polygon fill="none" stroke="#bfbfbf" points="1347,-56.5 1347,-75.5 1469,-75.5 1469,-56.5 1347,-56.5"/>
<text text-anchor="middle" x="1408" y="-63.5" font-family="Helvetica,sans-Serif" font-size="10.00">BoosterSeat/time.hpp</text>
</a>
</g>
</g>
<!-- Node8&#45;&gt;Node10 -->
<g id="edge9" class="edge">
<title>Node8&#45;&gt;Node10</title>
<path fill="none" stroke="midnightblue" d="M1044.24,-294.24C1172,-278.19 1508.66,-228.41 1574,-143 1582.37,-132.06 1582.37,-122.94 1574,-112 1562,-96.31 1518.07,-84.82 1478.42,-77.38"/>
<polygon fill="midnightblue" stroke="midnightblue" points="1478.92,-73.91 1468.46,-75.57 1477.67,-80.8 1478.92,-73.91"/>
</g>
<!-- Node11 -->
<g id="node11" class="node">
<title>Node11</title>
<g id="a_node11"><a xlink:href="blocks_8hpp.html" target="_top" xlink:title=" ">
<polygon fill="none" stroke="black" points="1147.5,-179.5 1147.5,-198.5 1216.5,-198.5 1216.5,-179.5 1147.5,-179.5"/>
<text text-anchor="middle" x="1182" y="-186.5" font-family="Helvetica,sans-Serif" font-size="10.00">blocks.hpp</text>
</a>
</g>
</g>
<!-- Node8&#45;&gt;Node11 -->
<g id="edge10" class="edge">
<title>Node8&#45;&gt;Node11</title>
<path fill="none" stroke="midnightblue" d="M1010.95,-291.4C1027.36,-282.49 1053.63,-268.06 1076,-255 1105.23,-237.93 1138.42,-217.39 1159.75,-204.03"/>
<polygon fill="midnightblue" stroke="midnightblue" points="1161.78,-206.88 1168.39,-198.6 1158.06,-200.96 1161.78,-206.88"/>
</g>
<!-- Node21 -->
<g id="node21" class="node">
<title>Node21</title>
<g id="a_node21"><a xlink:href="error__frame_8hpp.html" target="_top" xlink:title="The error frame.">
<polygon fill="none" stroke="black" points="692.5,-235.5 692.5,-254.5 787.5,-254.5 787.5,-235.5 692.5,-235.5"/>
<text text-anchor="middle" x="740" y="-242.5" font-family="Helvetica,sans-Serif" font-size="10.00">error_frame.hpp</text>
</a>
</g>
</g>
<!-- Node8&#45;&gt;Node21 -->
<g id="edge29" class="edge">
<title>Node8&#45;&gt;Node21</title>
<path fill="none" stroke="midnightblue" d="M954.59,-291.44C910.02,-282 838.23,-266.8 790.11,-256.61"/>
<polygon fill="midnightblue" stroke="midnightblue" points="790.72,-253.16 780.22,-254.52 789.27,-260.01 790.72,-253.16"/>
</g>
<!-- Node22 -->
<g id="node22" class="node">
<title>Node22</title>
<g id="a_node22"><a xlink:href="frame_8hpp.html" target="_top" xlink:title=" ">
<polygon fill="none" stroke="black" points="132.5,-179.5 132.5,-198.5 199.5,-198.5 199.5,-179.5 132.5,-179.5"/>
<text text-anchor="middle" x="166" y="-186.5" font-family="Helvetica,sans-Serif" font-size="10.00">frame.hpp</text>
</a>
</g>
</g>
<!-- Node8&#45;&gt;Node22 -->
<g id="edge54" class="edge">
<title>Node8&#45;&gt;Node22</title>
<path fill="none" stroke="midnightblue" d="M945.9,-294.98C870.74,-286.95 730.82,-270.52 683,-255 664.85,-249.11 663.32,-240.35 645,-235 460.47,-181.16 404.49,-224.75 214,-199 212.7,-198.82 211.38,-198.64 210.05,-198.44"/>
<polygon fill="midnightblue" stroke="midnightblue" points="210.19,-194.92 199.76,-196.78 209.07,-201.83 210.19,-194.92"/>
</g>
<!-- Node25 -->
<g id="node25" class="node">
<title>Node25</title>
<g id="a_node25"><a xlink:href="streams_8hpp.html" target="_top" xlink:title="The header file for the data streams.">
<polygon fill="none" stroke="black" points="686.5,-179.5 686.5,-198.5 763.5,-198.5 763.5,-179.5 686.5,-179.5"/>
<text text-anchor="middle" x="725" y="-186.5" font-family="Helvetica,sans-Serif" font-size="10.00">streams.hpp</text>
</a>
</g>
</g>
<!-- Node8&#45;&gt;Node25 -->
<g id="edge60" class="edge">
<title>Node8&#45;&gt;Node25</title>
<path fill="none" stroke="midnightblue" d="M995.02,-291.35C994.55,-277.28 991.43,-249.57 975,-235 945.93,-209.23 838.45,-197.62 774.27,-192.88"/>
<polygon fill="midnightblue" stroke="midnightblue" points="774.19,-189.37 763.97,-192.15 773.7,-196.35 774.19,-189.37"/>
</g>
<!-- Node32 -->
<g id="node32" class="node">
<title>Node32</title>
<g id="a_node32"><a xlink:href="flight__phase_8hpp.html" target="_top" xlink:title="Contains the flight phase enum and related functions.">
<polygon fill="none" stroke="black" points="1584.5,-235.5 1584.5,-254.5 1681.5,-254.5 1681.5,-235.5 1584.5,-235.5"/>
<text text-anchor="middle" x="1633" y="-242.5" font-family="Helvetica,sans-Serif" font-size="10.00">flight_phase.hpp</text>
</a>
</g>
</g>
<!-- Node8&#45;&gt;Node32 -->
<g id="edge52" class="edge">
<title>Node8&#45;&gt;Node32</title>
<path fill="none" stroke="midnightblue" d="M1044.33,-297.2C1143.89,-291.32 1375.92,-276.43 1570,-255 1571.3,-254.86 1572.61,-254.71 1573.93,-254.55"/>
<polygon fill="midnightblue" stroke="midnightblue" points="1574.7,-257.98 1584.2,-253.28 1573.85,-251.04 1574.7,-257.98"/>
</g>
<!-- Node33 -->
<g id="node33" class="node">
<title>Node33</title>
<g id="a_node33"><a xlink:href="log__container_8hpp.html" target="_top" xlink:title="A simple logging system for debugging.">
<polygon fill="none" stroke="black" points="863.5,-235.5 863.5,-254.5 966.5,-254.5 966.5,-235.5 863.5,-235.5"/>
<text text-anchor="middle" x="915" y="-242.5" font-family="Helvetica,sans-Serif" font-size="10.00">log_container.hpp</text>
</a>
</g>
</g>
<!-- Node8&#45;&gt;Node33 -->
<g id="edge55" class="edge">
<title>Node8&#45;&gt;Node33</title>
<path fill="none" stroke="midnightblue" d="M982.15,-291.32C969.78,-282.98 950.87,-270.21 936.26,-260.35"/>
<polygon fill="midnightblue" stroke="midnightblue" points="938.07,-257.35 927.82,-254.65 934.15,-263.15 938.07,-257.35"/>
</g>
<!-- Node8&#45;&gt;Node35 -->
<g id="edge58" class="edge">
<title>Node8&#45;&gt;Node35</title>
<path fill="none" stroke="midnightblue" d="M945.82,-293.97C878.84,-285.66 755.24,-270.03 650,-255 648.72,-254.82 647.43,-254.63 646.13,-254.44"/>
<polygon fill="midnightblue" stroke="midnightblue" points="646.41,-250.95 636,-252.94 645.38,-257.87 646.41,-250.95"/>
</g>
<!-- Node11&#45;&gt;Node9 -->
<g id="edge12" class="edge">
<title>Node11&#45;&gt;Node9</title>
<path fill="none" stroke="midnightblue" d="M1174.79,-179.24C1162.74,-164.75 1137.48,-135.09 1114,-112 1103.36,-101.54 1090.71,-90.56 1080.56,-82.07"/>
<polygon fill="midnightblue" stroke="midnightblue" points="1082.65,-79.26 1072.71,-75.59 1078.19,-84.65 1082.65,-79.26"/>
</g>
<!-- Node11&#45;&gt;Node10 -->
<g id="edge14" class="edge">
<title>Node11&#45;&gt;Node10</title>
<path fill="none" stroke="midnightblue" d="M1216.8,-183.35C1249.71,-177.74 1299.52,-166.03 1337,-143 1361.79,-127.77 1383.51,-101.59 1396.19,-84.29"/>
<polygon fill="midnightblue" stroke="midnightblue" points="1399.34,-85.9 1402.28,-75.72 1393.64,-81.85 1399.34,-85.9"/>
</g>
<!-- Node11&#45;&gt;Node11 -->
<g id="edge15" class="edge">
<title>Node11&#45;&gt;Node11</title>
<path fill="none" stroke="midnightblue" d="M1204.39,-198.53C1219.61,-201.31 1234.5,-198.13 1234.5,-189 1234.5,-181.94 1225.59,-178.44 1214.51,-178.5"/>
<polygon fill="midnightblue" stroke="midnightblue" points="1214.01,-175.03 1204.39,-179.47 1214.68,-182 1214.01,-175.03"/>
</g>
<!-- Node12 -->
<g id="node12" class="node">
<title>Node12</title>
<g id="a_node12"><a xlink:title=" ">
<polygon fill="none" stroke="#bfbfbf" points="350,-56.5 350,-75.5 398,-75.5 398,-56.5 350,-56.5"/>
<text text-anchor="middle" x="374" y="-63.5" font-family="Helvetica,sans-Serif" font-size="10.00">mutex</text>
</a>
</g>
</g>
<!-- Node11&#45;&gt;Node12 -->
<g id="edge11" class="edge">
<title>Node11&#45;&gt;Node12</title>
<path fill="none" stroke="midnightblue" d="M1155.77,-179.47C1105.05,-163.35 989.73,-128.56 890,-112 680.86,-77.28 620.95,-111.42 407.96,-75.82"/>
<polygon fill="midnightblue" stroke="midnightblue" points="408.48,-72.36 398.03,-74.13 407.3,-79.26 408.48,-72.36"/>
</g>
<!-- Node13 -->
<g id="node13" class="node">
<title>Node13</title>
<g id="a_node13"><a xlink:title=" ">
<polygon fill="none" stroke="#bfbfbf" points="1422.5,-118 1422.5,-137 1565.5,-137 1565.5,-118 1422.5,-118"/>
<text text-anchor="middle" x="1494" y="-125" font-family="Helvetica,sans-Serif" font-size="10.00">BoosterSeat/numbers.hpp</text>
</a>
</g>
</g>
<!-- Node11&#45;&gt;Node13 -->
<g id="edge13" class="edge">
<title>Node11&#45;&gt;Node13</title>
<path fill="none" stroke="midnightblue" d="M1216.58,-181.41C1270.5,-171.12 1375.05,-151.18 1439.27,-138.94"/>
<polygon fill="midnightblue" stroke="midnightblue" points="1440.05,-142.35 1449.22,-137.04 1438.74,-135.48 1440.05,-142.35"/>
</g>
<!-- Node14 -->
<g id="node14" class="node">
<title>Node14</title>
<g id="a_node14"><a xlink:href="json_8hpp.html" target="_top" xlink:title="Simple wrapper around nlohmann/json.hpp to provide a common interface.">
<polygon fill="none" stroke="black" points="1270,-118 1270,-137 1328,-137 1328,-118 1270,-118"/>
<text text-anchor="middle" x="1299" y="-125" font-family="Helvetica,sans-Serif" font-size="10.00">json.hpp</text>
</a>
</g>
</g>
<!-- Node11&#45;&gt;Node14 -->
<g id="edge16" class="edge">
<title>Node11&#45;&gt;Node14</title>
<path fill="none" stroke="midnightblue" d="M1198.76,-179.48C1218.22,-169.58 1250.55,-153.14 1273.21,-141.62"/>
<polygon fill="midnightblue" stroke="midnightblue" points="1274.94,-144.66 1282.27,-137.01 1271.77,-138.42 1274.94,-144.66"/>
</g>
<!-- Node17 -->
<g id="node17" class="node">
<title>Node17</title>
<g id="a_node17"><a xlink:href="node_8hpp.html" target="_top" xlink:title="Contains structures that are used to identify components of the flight system.">
<polygon fill="none" stroke="black" points="919,-56.5 919,-75.5 981,-75.5 981,-56.5 919,-56.5"/>
<text text-anchor="middle" x="950" y="-63.5" font-family="Helvetica,sans-Serif" font-size="10.00">node.hpp</text>
</a>
</g>
</g>
<!-- Node11&#45;&gt;Node17 -->
<g id="edge19" class="edge">
<title>Node11&#45;&gt;Node17</title>
<path fill="none" stroke="midnightblue" d="M1166.05,-179.5C1139.53,-165.38 1084.66,-136.24 1038,-112 1017.19,-101.19 993.51,-89.09 975.96,-80.17"/>
<polygon fill="midnightblue" stroke="midnightblue" points="977.4,-76.97 966.9,-75.56 974.23,-83.21 977.4,-76.97"/>
</g>
<!-- Node20 -->
<g id="node20" class="node">
<title>Node20</title>
<g id="a_node20"><a xlink:href="positional_8hpp.html" target="_top" xlink:title="Positional data for the flight system (gps/imu data)">
<polygon fill="none" stroke="black" points="1166,-118 1166,-137 1252,-137 1252,-118 1166,-118"/>
<text text-anchor="middle" x="1209" y="-125" font-family="Helvetica,sans-Serif" font-size="10.00">positional.hpp</text>
</a>
</g>
</g>
<!-- Node11&#45;&gt;Node20 -->
<g id="edge22" class="edge">
<title>Node11&#45;&gt;Node20</title>
<path fill="none" stroke="midnightblue" d="M1185.87,-179.48C1189.8,-170.82 1196,-157.15 1200.99,-146.15"/>
<polygon fill="midnightblue" stroke="midnightblue" points="1204.19,-147.56 1205.14,-137.01 1197.82,-144.67 1204.19,-147.56"/>
</g>
<!-- Node15 -->
<g id="node15" class="node">
<title>Node15</title>
<g id="a_node15"><a xlink:title=" ">
<polygon fill="none" stroke="#bfbfbf" points="1219,-56.5 1219,-75.5 1329,-75.5 1329,-56.5 1219,-56.5"/>
<text text-anchor="middle" x="1274" y="-63.5" font-family="Helvetica,sans-Serif" font-size="10.00">nlohmann/json.hpp</text>
</a>
</g>
</g>
<!-- Node14&#45;&gt;Node15 -->
<g id="edge17" class="edge">
<title>Node14&#45;&gt;Node15</title>
<path fill="none" stroke="midnightblue" d="M1295.42,-117.98C1291.82,-109.4 1286.15,-95.93 1281.56,-84.98"/>
<polygon fill="midnightblue" stroke="midnightblue" points="1284.68,-83.37 1277.58,-75.51 1278.22,-86.08 1284.68,-83.37"/>
</g>
<!-- Node16 -->
<g id="node16" class="node">
<title>Node16</title>
<g id="a_node16"><a xlink:title=" ">
<polygon fill="none" stroke="#bfbfbf" points="1487,-56.5 1487,-75.5 1531,-75.5 1531,-56.5 1487,-56.5"/>
<text text-anchor="middle" x="1509" y="-63.5" font-family="Helvetica,sans-Serif" font-size="10.00">string</text>
</a>
</g>
</g>
<!-- Node14&#45;&gt;Node16 -->
<g id="edge18" class="edge">
<title>Node14&#45;&gt;Node16</title>
<path fill="none" stroke="midnightblue" d="M1328.16,-118.35C1361.74,-108.94 1418.8,-92.91 1477.22,-76.21"/>
<polygon fill="midnightblue" stroke="midnightblue" points="1478.34,-79.53 1486.99,-73.41 1476.41,-72.8 1478.34,-79.53"/>
</g>
<!-- Node18 -->
<g id="node18" class="node">
<title>Node18</title>
<g id="a_node18"><a xlink:title=" ">
<polygon fill="none" stroke="#bfbfbf" points="1166,-0.5 1166,-19.5 1216,-19.5 1216,-0.5 1166,-0.5"/>
<text text-anchor="middle" x="1191" y="-7.5" font-family="Helvetica,sans-Serif" font-size="10.00">cstdint</text>
</a>
</g>
</g>
<!-- Node17&#45;&gt;Node18 -->
<g id="edge20" class="edge">
<title>Node17&#45;&gt;Node18</title>
<path fill="none" stroke="midnightblue" d="M981.01,-58.02C984.05,-57.34 987.08,-56.65 990,-56 1048.26,-42.92 1116.02,-27.76 1156.11,-18.8"/>
<polygon fill="midnightblue" stroke="midnightblue" points="1156.93,-22.2 1165.93,-16.6 1155.41,-15.37 1156.93,-22.2"/>
</g>
<!-- Node19 -->
<g id="node19" class="node">
<title>Node19</title>
<g id="a_node19"><a xlink:title=" ">
<polygon fill="none" stroke="#bfbfbf" points="1021,-0.5 1021,-19.5 1059,-19.5 1059,-0.5 1021,-0.5"/>
<text text-anchor="middle" x="1040" y="-7.5" font-family="Helvetica,sans-Serif" font-size="10.00">map</text>
</a>
</g>
</g>
<!-- Node17&#45;&gt;Node19 -->
<g id="edge21" class="edge">
<title>Node17&#45;&gt;Node19</title>
<path fill="none" stroke="midnightblue" d="M964.46,-56.32C978.5,-47.9 1000.05,-34.97 1016.54,-25.07"/>
<polygon fill="midnightblue" stroke="midnightblue" points="1018.8,-27.8 1025.58,-19.65 1015.2,-21.8 1018.8,-27.8"/>
</g>
<!-- Node20&#45;&gt;Node9 -->
<g id="edge27" class="edge">
<title>Node20&#45;&gt;Node9</title>
<path fill="none" stroke="midnightblue" d="M1187.94,-117.98C1162.94,-107.86 1121.06,-90.9 1092.51,-79.35"/>
<polygon fill="midnightblue" stroke="midnightblue" points="1093.61,-76.02 1083.02,-75.51 1090.98,-82.51 1093.61,-76.02"/>
</g>
<!-- Node20&#45;&gt;Node10 -->
<g id="edge28" class="edge">
<title>Node20&#45;&gt;Node10</title>
<path fill="none" stroke="midnightblue" d="M1237.51,-117.98C1272.24,-107.59 1331.04,-90.01 1369.69,-78.45"/>
<polygon fill="midnightblue" stroke="midnightblue" points="1370.96,-81.73 1379.54,-75.51 1368.96,-75.02 1370.96,-81.73"/>
</g>
<!-- Node20&#45;&gt;Node15 -->
<g id="edge26" class="edge">
<title>Node20&#45;&gt;Node15</title>
<path fill="none" stroke="midnightblue" d="M1218.31,-117.98C1228.45,-108.7 1244.86,-93.67 1257.25,-82.33"/>
<polygon fill="midnightblue" stroke="midnightblue" points="1259.69,-84.84 1264.7,-75.51 1254.96,-79.68 1259.69,-84.84"/>
</g>
<!-- Node20&#45;&gt;Node16 -->
<g id="edge25" class="edge">
<title>Node20&#45;&gt;Node16</title>
<path fill="none" stroke="midnightblue" d="M1237.47,-117.97C1245.07,-115.85 1253.31,-113.7 1261,-112 1353.37,-91.52 1380.91,-97.26 1476.91,-76.02"/>
<polygon fill="midnightblue" stroke="midnightblue" points="1477.74,-79.42 1486.73,-73.81 1476.21,-72.59 1477.74,-79.42"/>
</g>
<!-- Node20&#45;&gt;Node18 -->
<g id="edge23" class="edge">
<title>Node20&#45;&gt;Node18</title>
<path fill="none" stroke="midnightblue" d="M1207.65,-117.82C1204.75,-99.26 1197.91,-55.34 1193.96,-29.97"/>
<polygon fill="midnightblue" stroke="midnightblue" points="1197.37,-29.12 1192.37,-19.78 1190.45,-30.2 1197.37,-29.12"/>
</g>
<!-- Node20&#45;&gt;Node19 -->
<g id="edge24" class="edge">
<title>Node20&#45;&gt;Node19</title>
<path fill="none" stroke="midnightblue" d="M1201.26,-117.8C1188.24,-103.54 1160.64,-74.88 1133,-56 1112.69,-42.13 1087.46,-30.21 1068.41,-22.13"/>
<polygon fill="midnightblue" stroke="midnightblue" points="1069.64,-18.85 1059.06,-18.26 1066.97,-25.32 1069.64,-18.85"/>
</g>
<!-- Node21&#45;&gt;Node9 -->
<g id="edge30" class="edge">
<title>Node21&#45;&gt;Node9</title>
<path fill="none" stroke="midnightblue" d="M762.76,-235.5C803.75,-219.77 892.13,-183.99 961,-143 992.05,-124.52 1024.93,-98.38 1044.45,-82.07"/>
<polygon fill="midnightblue" stroke="midnightblue" points="1046.81,-84.66 1052.19,-75.53 1042.29,-79.31 1046.81,-84.66"/>
</g>
<!-- Node21&#45;&gt;Node22 -->
<g id="edge31" class="edge">
<title>Node21&#45;&gt;Node22</title>
<path fill="none" stroke="midnightblue" d="M692.31,-236.75C687.48,-236.11 682.65,-235.52 678,-235 472.43,-212.13 419.06,-226.1 214,-199 212.7,-198.83 211.38,-198.64 210.05,-198.45"/>
<polygon fill="midnightblue" stroke="midnightblue" points="210.18,-194.93 199.76,-196.8 209.08,-201.84 210.18,-194.93"/>
</g>
<!-- Node24 -->
<g id="node24" class="node">
<title>Node24</title>
<g id="a_node24"><a xlink:href="giraffe__diagnostic__ids_8hpp.html" target="_top" xlink:title=" ">
<polygon fill="none" stroke="black" points="256,-112.5 256,-142.5 360,-142.5 360,-112.5 256,-112.5"/>
<text text-anchor="start" x="264" y="-130.5" font-family="Helvetica,sans-Serif" font-size="10.00">giraffe_diagnostic</text>
<text text-anchor="middle" x="308" y="-119.5" font-family="Helvetica,sans-Serif" font-size="10.00">_ids.hpp</text>
</a>
</g>
</g>
<!-- Node21&#45;&gt;Node24 -->
<g id="edge34" class="edge">
<title>Node21&#45;&gt;Node24</title>
<path fill="none" stroke="midnightblue" d="M707.88,-235.41C636.47,-216.32 463.49,-170.07 370.16,-145.12"/>
<polygon fill="midnightblue" stroke="midnightblue" points="370.85,-141.68 360.29,-142.48 369.04,-148.44 370.85,-141.68"/>
</g>
<!-- Node21&#45;&gt;Node25 -->
<g id="edge35" class="edge">
<title>Node21&#45;&gt;Node25</title>
<path fill="none" stroke="midnightblue" d="M737.52,-235.08C735.51,-227.85 732.61,-217.41 730.11,-208.4"/>
<polygon fill="midnightblue" stroke="midnightblue" points="733.48,-207.45 727.43,-198.75 726.74,-209.32 733.48,-207.45"/>
</g>
<!-- Node22&#45;&gt;Node12 -->
<g id="edge32" class="edge">
<title>Node22&#45;&gt;Node12</title>
<path fill="none" stroke="midnightblue" d="M169,-179.48C174.99,-163.71 189.98,-129.91 214,-112 251.31,-84.17 305.13,-73.55 339.84,-69.49"/>
<polygon fill="midnightblue" stroke="midnightblue" points="340.38,-72.96 349.96,-68.43 339.65,-65.99 340.38,-72.96"/>
</g>
<!-- Node23 -->
<g id="node23" class="node">
<title>Node23</title>
<g id="a_node23"><a xlink:title=" ">
<polygon fill="none" stroke="#bfbfbf" points="68.5,-118 68.5,-137 161.5,-137 161.5,-118 68.5,-118"/>
<text text-anchor="middle" x="115" y="-125" font-family="Helvetica,sans-Serif" font-size="10.00">unordered_map</text>
</a>
</g>
</g>
<!-- Node22&#45;&gt;Node23 -->
<g id="edge33" class="edge">
<title>Node22&#45;&gt;Node23</title>
<path fill="none" stroke="midnightblue" d="M158.69,-179.48C150.97,-170.46 138.59,-156.02 128.98,-144.81"/>
<polygon fill="midnightblue" stroke="midnightblue" points="131.46,-142.32 122.29,-137.01 126.14,-146.88 131.46,-142.32"/>
</g>
<!-- Node25&#45;&gt;Node3 -->
<g id="edge36" class="edge">
<title>Node25&#45;&gt;Node3</title>
<path fill="none" stroke="midnightblue" d="M686.41,-187.09C563.06,-183.9 179.44,-171.87 59,-143 56.49,-142.4 53.93,-141.63 51.39,-140.75"/>
<polygon fill="midnightblue" stroke="midnightblue" points="52.5,-137.43 41.91,-137.03 49.94,-143.95 52.5,-137.43"/>
</g>
<!-- Node25&#45;&gt;Node9 -->
<g id="edge41" class="edge">
<title>Node25&#45;&gt;Node9</title>
<path fill="none" stroke="midnightblue" d="M763.68,-182.87C804.03,-176.65 868.6,-164.29 921,-143 945.57,-133.02 948.78,-124.83 972,-112 992.64,-100.59 1016.54,-88.7 1034.52,-80.01"/>
<polygon fill="midnightblue" stroke="midnightblue" points="1036.34,-83.02 1043.84,-75.53 1033.31,-76.71 1036.34,-83.02"/>
</g>
<!-- Node25&#45;&gt;Node12 -->
<g id="edge38" class="edge">
<title>Node25&#45;&gt;Node12</title>
<path fill="none" stroke="midnightblue" d="M686.34,-185.76C616.47,-181.11 472.46,-168.66 430,-143 407.38,-129.33 391.04,-102.73 382.04,-84.91"/>
<polygon fill="midnightblue" stroke="midnightblue" points="385.17,-83.34 377.7,-75.82 378.85,-86.36 385.17,-83.34"/>
</g>
<!-- Node25&#45;&gt;Node16 -->
<g id="edge40" class="edge">
<title>Node25&#45;&gt;Node16</title>
<path fill="none" stroke="midnightblue" d="M763.73,-186.88C880.45,-183.24 1227.57,-170.33 1337,-143 1351.79,-139.31 1436.57,-100.54 1481.33,-79.85"/>
<polygon fill="midnightblue" stroke="midnightblue" points="1482.89,-82.99 1490.49,-75.61 1479.95,-76.63 1482.89,-82.99"/>
</g>
<!-- Node25&#45;&gt;Node17 -->
<g id="edge50" class="edge">
<title>Node25&#45;&gt;Node17</title>
<path fill="none" stroke="midnightblue" d="M763.52,-184.42C798.89,-179.6 851.49,-168.47 890,-143 912.5,-128.11 930.37,-102.02 940.58,-84.62"/>
<polygon fill="midnightblue" stroke="midnightblue" points="943.83,-85.97 945.67,-75.54 937.73,-82.55 943.83,-85.97"/>
</g>
<!-- Node25&#45;&gt;Node20 -->
<g id="edge51" class="edge">
<title>Node25&#45;&gt;Node20</title>
<path fill="none" stroke="midnightblue" d="M763.79,-183.23C850.02,-172.63 1057.72,-147.1 1155.89,-135.03"/>
<polygon fill="midnightblue" stroke="midnightblue" points="1156.39,-138.49 1165.89,-133.8 1155.54,-131.55 1156.39,-138.49"/>
</g>
<!-- Node25&#45;&gt;Node24 -->
<g id="edge49" class="edge">
<title>Node25&#45;&gt;Node24</title>
<path fill="none" stroke="midnightblue" d="M686.4,-184.18C621.58,-177.52 486.89,-162.6 374,-143 372.73,-142.78 371.45,-142.55 370.16,-142.32"/>
<polygon fill="midnightblue" stroke="midnightblue" points="370.63,-138.84 360.15,-140.41 369.32,-145.72 370.63,-138.84"/>
</g>
<!-- Node26 -->
<g id="node26" class="node">
<title>Node26</title>
<g id="a_node26"><a xlink:title=" ">
<polygon fill="none" stroke="#bfbfbf" points="558,-118 558,-137 618,-137 618,-118 558,-118"/>
<text text-anchor="middle" x="588" y="-125" font-family="Helvetica,sans-Serif" font-size="10.00">iostream</text>
</a>
</g>
</g>
<!-- Node25&#45;&gt;Node26 -->
<g id="edge37" class="edge">
<title>Node25&#45;&gt;Node26</title>
<path fill="none" stroke="midnightblue" d="M705.37,-179.48C682.18,-169.4 643.38,-152.55 616.79,-141"/>
<polygon fill="midnightblue" stroke="midnightblue" points="618.16,-137.78 607.59,-137.01 615.37,-144.2 618.16,-137.78"/>
</g>
<!-- Node27 -->
<g id="node27" class="node">
<title>Node27</title>
<g id="a_node27"><a xlink:title=" ">
<polygon fill="none" stroke="#bfbfbf" points="416.5,-56.5 416.5,-75.5 463.5,-75.5 463.5,-56.5 416.5,-56.5"/>
<text text-anchor="middle" x="440" y="-63.5" font-family="Helvetica,sans-Serif" font-size="10.00">queue</text>
</a>
</g>
</g>
<!-- Node25&#45;&gt;Node27 -->
<g id="edge39" class="edge">
<title>Node25&#45;&gt;Node27</title>
<path fill="none" stroke="midnightblue" d="M686.41,-187.5C617.31,-185.73 476.7,-177.81 445,-143 431.05,-127.68 432.3,-102.64 435.38,-85.52"/>
<polygon fill="midnightblue" stroke="midnightblue" points="438.83,-86.11 437.51,-75.6 431.99,-84.64 438.83,-86.11"/>
</g>
<!-- Node28 -->
<g id="node28" class="node">
<title>Node28</title>
<g id="a_node28"><a xlink:title=" ">
<polygon fill="none" stroke="#bfbfbf" points="636,-118 636,-137 784,-137 784,-118 636,-118"/>
<text text-anchor="middle" x="710" y="-125" font-family="Helvetica,sans-Serif" font-size="10.00">BoosterSeat/exception.hpp</text>
</a>
</g>
</g>
<!-- Node25&#45;&gt;Node28 -->
<g id="edge42" class="edge">
<title>Node25&#45;&gt;Node28</title>
<path fill="none" stroke="midnightblue" d="M722.85,-179.48C720.71,-170.99 717.36,-157.7 714.62,-146.82"/>
<polygon fill="midnightblue" stroke="midnightblue" points="717.98,-145.85 712.15,-137.01 711.2,-147.56 717.98,-145.85"/>
</g>
<!-- Node29 -->
<g id="node29" class="node">
<title>Node29</title>
<g id="a_node29"><a xlink:href="command_8hpp.html" target="_top" xlink:title="The command/queue system for the flight system.">
<polygon fill="none" stroke="black" points="454,-118 454,-137 540,-137 540,-118 454,-118"/>
<text text-anchor="middle" x="497" y="-125" font-family="Helvetica,sans-Serif" font-size="10.00">command.hpp</text>
</a>
</g>
</g>
<!-- Node25&#45;&gt;Node29 -->
<g id="edge43" class="edge">
<title>Node25&#45;&gt;Node29</title>
<path fill="none" stroke="midnightblue" d="M690.54,-179.42C655.02,-170.53 598.06,-156.11 549,-143 545.14,-141.97 541.12,-140.88 537.1,-139.78"/>
<polygon fill="midnightblue" stroke="midnightblue" points="537.79,-136.33 527.22,-137.04 535.92,-143.08 537.79,-136.33"/>
</g>
<!-- Node31 -->
<g id="node31" class="node">
<title>Node31</title>
<g id="a_node31"><a xlink:href="data__ids_8hpp.html" target="_top" xlink:title=" ">
<polygon fill="none" stroke="black" points="802.5,-118 802.5,-137 881.5,-137 881.5,-118 802.5,-118"/>
<text text-anchor="middle" x="842" y="-125" font-family="Helvetica,sans-Serif" font-size="10.00">data_ids.hpp</text>
</a>
</g>
</g>
<!-- Node25&#45;&gt;Node31 -->
<g id="edge48" class="edge">
<title>Node25&#45;&gt;Node31</title>
<path fill="none" stroke="midnightblue" d="M741.76,-179.48C761.22,-169.58 793.55,-153.14 816.21,-141.62"/>
<polygon fill="midnightblue" stroke="midnightblue" points="817.94,-144.66 825.27,-137.01 814.77,-138.42 817.94,-144.66"/>
</g>
<!-- Node29&#45;&gt;Node12 -->
<g id="edge44" class="edge">
<title>Node29&#45;&gt;Node12</title>
<path fill="none" stroke="midnightblue" d="M479.38,-117.98C458.83,-108.03 424.64,-91.49 400.79,-79.96"/>
<polygon fill="midnightblue" stroke="midnightblue" points="402.12,-76.71 391.59,-75.51 399.07,-83.01 402.12,-76.71"/>
</g>
<!-- Node29&#45;&gt;Node17 -->
<g id="edge47" class="edge">
<title>Node29&#45;&gt;Node17</title>
<path fill="none" stroke="midnightblue" d="M524.33,-117.99C532.23,-115.78 540.9,-113.57 549,-112 678.95,-86.76 835.53,-74.26 908.63,-69.45"/>
<polygon fill="midnightblue" stroke="midnightblue" points="909.05,-72.93 918.8,-68.79 908.6,-65.94 909.05,-72.93"/>
</g>
<!-- Node29&#45;&gt;Node27 -->
<g id="edge45" class="edge">
<title>Node29&#45;&gt;Node27</title>
<path fill="none" stroke="midnightblue" d="M488.83,-117.98C480.11,-108.87 466.1,-94.24 455.31,-82.98"/>
<polygon fill="midnightblue" stroke="midnightblue" points="457.6,-80.31 448.15,-75.51 452.54,-85.15 457.6,-80.31"/>
</g>
<!-- Node30 -->
<g id="node30" class="node">
<title>Node30</title>
<g id="a_node30"><a xlink:href="command__ids_8hpp.html" target="_top" xlink:title=" ">
<polygon fill="none" stroke="black" points="482,-56.5 482,-75.5 588,-75.5 588,-56.5 482,-56.5"/>
<text text-anchor="middle" x="535" y="-63.5" font-family="Helvetica,sans-Serif" font-size="10.00">command_ids.hpp</text>
</a>
</g>
</g>
<!-- Node29&#45;&gt;Node30 -->
<g id="edge46" class="edge">
<title>Node29&#45;&gt;Node30</title>
<path fill="none" stroke="midnightblue" d="M502.44,-117.98C508.09,-109.14 517.06,-95.09 524.16,-83.98"/>
<polygon fill="midnightblue" stroke="midnightblue" points="527.13,-85.82 529.57,-75.51 521.23,-82.05 527.13,-85.82"/>
</g>
<!-- Node32&#45;&gt;Node16 -->
<g id="edge53" class="edge">
<title>Node32&#45;&gt;Node16</title>
<path fill="none" stroke="midnightblue" d="M1633.91,-235.19C1635.78,-212.23 1637.67,-149.79 1608,-112 1599.2,-100.79 1566.35,-87.15 1540.88,-77.85"/>
<polygon fill="midnightblue" stroke="midnightblue" points="1541.79,-74.46 1531.2,-74.39 1539.44,-81.05 1541.79,-74.46"/>
</g>
<!-- Node33&#45;&gt;Node12 -->
<g id="edge57" class="edge">
<title>Node33&#45;&gt;Node12</title>
<path fill="none" stroke="midnightblue" d="M863.28,-240.02C713.46,-227.97 287.27,-189.82 247,-143 216.64,-107.7 292.89,-84.3 340.04,-73.63"/>
<polygon fill="midnightblue" stroke="midnightblue" points="340.86,-77.03 349.89,-71.49 339.38,-70.19 340.86,-77.03"/>
</g>
<!-- Node34 -->
<g id="node34" class="node">
<title>Node34</title>
<g id="a_node34"><a xlink:title=" ">
<polygon fill="none" stroke="#bfbfbf" points="986.5,-179.5 986.5,-198.5 1033.5,-198.5 1033.5,-179.5 986.5,-179.5"/>
<text text-anchor="middle" x="1010" y="-186.5" font-family="Helvetica,sans-Serif" font-size="10.00">deque</text>
</a>
</g>
</g>
<!-- Node33&#45;&gt;Node34 -->
<g id="edge56" class="edge">
<title>Node33&#45;&gt;Node34</title>
<path fill="none" stroke="midnightblue" d="M930.26,-235.32C945.22,-226.82 968.25,-213.73 985.73,-203.8"/>
<polygon fill="midnightblue" stroke="midnightblue" points="987.81,-206.64 994.77,-198.65 984.35,-200.55 987.81,-206.64"/>
</g>
<!-- Node35&#45;&gt;Node3 -->
<g id="edge59" class="edge">
<title>Node35&#45;&gt;Node3</title>
<path fill="none" stroke="midnightblue" d="M547.77,-242.69C446.41,-239.23 200.14,-228 123,-199 90.51,-186.78 59.04,-160.86 40.87,-144.09"/>
<polygon fill="midnightblue" stroke="midnightblue" points="43.16,-141.44 33.5,-137.1 38.35,-146.52 43.16,-141.44"/>
</g>
<!-- Node36&#45;&gt;Node2 -->
<g id="edge67" class="edge">
<title>Node36&#45;&gt;Node2</title>
<path fill="none" stroke="midnightblue" d="M1793.79,-530.6C1619.93,-519.55 1166.44,-490.72 994.46,-479.79"/>
<polygon fill="midnightblue" stroke="midnightblue" points="994.48,-476.28 984.28,-479.14 994.04,-483.27 994.48,-476.28"/>
</g>
<!-- Node37 -->
<g id="node37" class="node">
<title>Node37</title>
<g id="a_node37"><a xlink:title=" ">
<polygon fill="none" stroke="#bfbfbf" points="1738,-459.5 1738,-489.5 1848,-489.5 1848,-459.5 1738,-459.5"/>
<text text-anchor="start" x="1746" y="-477.5" font-family="Helvetica,sans-Serif" font-size="10.00">BoosterSeat/rolling</text>
<text text-anchor="middle" x="1793" y="-466.5" font-family="Helvetica,sans-Serif" font-size="10.00">_average.hpp</text>
</a>
</g>
</g>
<!-- Node36&#45;&gt;Node37 -->
<g id="edge64" class="edge">
<title>Node36&#45;&gt;Node37</title>
<path fill="none" stroke="midnightblue" d="M1852.97,-526.48C1843.67,-518.57 1829.45,-506.48 1817.2,-496.07"/>
<polygon fill="midnightblue" stroke="midnightblue" points="1819.38,-493.33 1809.5,-489.52 1814.85,-498.67 1819.38,-493.33"/>
</g>
<!-- Node38 -->
<g id="node38" class="node">
<title>Node38</title>
<g id="a_node38"><a xlink:title=" ">
<polygon fill="none" stroke="#bfbfbf" points="1866.5,-459.5 1866.5,-489.5 1973.5,-489.5 1973.5,-459.5 1866.5,-459.5"/>
<text text-anchor="start" x="1874.5" y="-477.5" font-family="Helvetica,sans-Serif" font-size="10.00">BoosterSeat/string</text>
<text text-anchor="middle" x="1920" y="-466.5" font-family="Helvetica,sans-Serif" font-size="10.00">_utils.hpp</text>
</a>
</g>
</g>
<!-- Node36&#45;&gt;Node38 -->
<g id="edge65" class="edge">
<title>Node36&#45;&gt;Node38</title>
<path fill="none" stroke="midnightblue" d="M1871.17,-526.48C1878.53,-518.79 1889.66,-507.17 1899.44,-496.96"/>
<polygon fill="midnightblue" stroke="midnightblue" points="1902.18,-499.17 1906.57,-489.52 1897.12,-494.32 1902.18,-499.17"/>
</g>
<!-- Node36&#45;&gt;Node39 -->
<g id="edge66" class="edge">
<title>Node36&#45;&gt;Node39</title>
<path fill="none" stroke="midnightblue" d="M1909.88,-526.5C1958.66,-517.6 2037.24,-503.12 2105,-490 2111.56,-488.73 2118.45,-487.37 2125.26,-486.02"/>
<polygon fill="midnightblue" stroke="midnightblue" points="2126.02,-489.43 2135.14,-484.04 2124.65,-482.57 2126.02,-489.43"/>
</g>
<!-- Node40 -->
<g id="node40" class="node">
<title>Node40</title>
<g id="a_node40"><a xlink:href="giraffe__assert_8hpp.html" target="_top" xlink:title="For absolute failures in the code.">
<polygon fill="none" stroke="black" points="1992,-465 1992,-484 2096,-484 2096,-465 1992,-465"/>
<text text-anchor="middle" x="2044" y="-472" font-family="Helvetica,sans-Serif" font-size="10.00">giraffe_assert.hpp</text>
</a>
</g>
</g>
<!-- Node36&#45;&gt;Node40 -->
<g id="edge68" class="edge">
<title>Node36&#45;&gt;Node40</title>
<path fill="none" stroke="midnightblue" d="M1888.93,-526.48C1920.25,-516.18 1973.09,-498.81 2008.26,-487.25"/>
<polygon fill="midnightblue" stroke="midnightblue" points="2009.71,-490.46 2018.12,-484.01 2007.52,-483.81 2009.71,-490.46"/>
</g>
<!-- Node41 -->
<g id="node41" class="node">
<title>Node41</title>
<g id="a_node41"><a xlink:title=" ">
<polygon fill="none" stroke="#bfbfbf" points="1973.5,-403.5 1973.5,-422.5 2038.5,-422.5 2038.5,-403.5 1973.5,-403.5"/>
<text text-anchor="middle" x="2006" y="-410.5" font-family="Helvetica,sans-Serif" font-size="10.00">exception</text>
</a>
</g>
</g>
<!-- Node40&#45;&gt;Node41 -->
<g id="edge69" class="edge">
<title>Node40&#45;&gt;Node41</title>
<path fill="none" stroke="midnightblue" d="M2038.56,-464.98C2032.91,-456.14 2023.94,-442.09 2016.84,-430.98"/>
<polygon fill="midnightblue" stroke="midnightblue" points="2019.77,-429.05 2011.43,-422.51 2013.87,-432.82 2019.77,-429.05"/>
</g>
<!-- Node42 -->
<g id="node42" class="node">
<title>Node42</title>
<g id="a_node42"><a xlink:title=" ">
<polygon fill="none" stroke="#bfbfbf" points="2057,-403.5 2057,-422.5 2107,-422.5 2107,-403.5 2057,-403.5"/>
<text text-anchor="middle" x="2082" y="-410.5" font-family="Helvetica,sans-Serif" font-size="10.00">stdio.h</text>
</a>
</g>
</g>
<!-- Node40&#45;&gt;Node42 -->
<g id="edge70" class="edge">
<title>Node40&#45;&gt;Node42</title>
<path fill="none" stroke="midnightblue" d="M2049.44,-464.98C2055.09,-456.14 2064.06,-442.09 2071.16,-430.98"/>
<polygon fill="midnightblue" stroke="midnightblue" points="2074.13,-432.82 2076.57,-422.51 2068.23,-429.05 2074.13,-432.82"/>
</g>
<!-- Node43&#45;&gt;Node16 -->
<g id="edge73" class="edge">
<title>Node43&#45;&gt;Node16</title>
<path fill="none" stroke="midnightblue" d="M1682.06,-117.98C1644.61,-106.94 1579.57,-87.79 1540.78,-76.36"/>
<polygon fill="midnightblue" stroke="midnightblue" points="1541.63,-72.96 1531.05,-73.49 1539.65,-79.68 1541.63,-72.96"/>
</g>
<!-- Node43&#45;&gt;Node18 -->
<g id="edge72" class="edge">
<title>Node43&#45;&gt;Node18</title>
<path fill="none" stroke="midnightblue" d="M1694.52,-117.98C1664.6,-102.91 1598.97,-71.66 1540,-56 1428.09,-26.27 1290.59,-15.9 1226.73,-12.51"/>
<polygon fill="midnightblue" stroke="midnightblue" points="1226.57,-9 1216.41,-11.99 1226.22,-15.99 1226.57,-9"/>
</g>
</g>
</svg>
