<?xml version="1.0" encoding="UTF-8" standalone="no"?>
<!DOCTYPE svg PUBLIC "-//W3C//DTD SVG 1.1//EN"
 "http://www.w3.org/Graphics/SVG/1.1/DTD/svg11.dtd">
<!-- Generated by graphviz version 2.43.0 (0)
 -->
<!-- Title: cfg_section.hpp Pages: 1 -->
<svg width="1390pt" height="308pt"
 viewBox="0.00 0.00 1390.00 308.00" xmlns="http://www.w3.org/2000/svg" xmlns:xlink="http://www.w3.org/1999/xlink">
<g id="graph0" class="graph" transform="scale(1 1) rotate(0) translate(4 304)">
<title>cfg_section.hpp</title>
<!-- Node1 -->
<g id="node1" class="node">
<title>Node1</title>
<g id="a_node1"><a xlink:title="This file contains the base class for all configuration sections.">
<polygon fill="#bfbfbf" stroke="black" points="554,-280.5 554,-299.5 647,-299.5 647,-280.5 554,-280.5"/>
<text text-anchor="middle" x="600.5" y="-287.5" font-family="Helvetica,sans-Serif" font-size="10.00">cfg_section.hpp</text>
</a>
</g>
</g>
<!-- Node2 -->
<g id="node2" class="node">
<title>Node2</title>
<g id="a_node2"><a xlink:href="cfg__extensions_8hpp.html" target="_top" xlink:title="The header file for the extensions section of the configuration.">
<polygon fill="none" stroke="black" points="545,-224.5 545,-243.5 656,-243.5 656,-224.5 545,-224.5"/>
<text text-anchor="middle" x="600.5" y="-231.5" font-family="Helvetica,sans-Serif" font-size="10.00">cfg_extensions.hpp</text>
</a>
</g>
</g>
<!-- Node1&#45;&gt;Node2 -->
<g id="edge1" class="edge">
<title>Node1&#45;&gt;Node2</title>
<path fill="none" stroke="midnightblue" d="M600.5,-269.8C600.5,-260.91 600.5,-250.78 600.5,-243.75"/>
<polygon fill="midnightblue" stroke="midnightblue" points="597,-270.08 600.5,-280.08 604,-270.08 597,-270.08"/>
</g>
<!-- Node3 -->
<g id="node3" class="node">
<title>Node3</title>
<g id="a_node3"><a xlink:href="cfg__extensions_8cpp.html" target="_top" xlink:title="Implements the extensions section of the configuration.">
<polygon fill="none" stroke="black" points="415.5,-168.5 415.5,-187.5 525.5,-187.5 525.5,-168.5 415.5,-168.5"/>
<text text-anchor="middle" x="470.5" y="-175.5" font-family="Helvetica,sans-Serif" font-size="10.00">cfg_extensions.cpp</text>
</a>
</g>
</g>
<!-- Node2&#45;&gt;Node3 -->
<g id="edge2" class="edge">
<title>Node2&#45;&gt;Node3</title>
<path fill="none" stroke="midnightblue" d="M570.41,-220.5C546.04,-210.38 512.36,-196.39 491,-187.52"/>
<polygon fill="midnightblue" stroke="midnightblue" points="569.32,-223.84 579.9,-224.44 572.01,-217.38 569.32,-223.84"/>
</g>
<!-- Node4 -->
<g id="node4" class="node">
<title>Node4</title>
<g id="a_node4"><a xlink:href="extension__base_8hpp.html" target="_top" xlink:title="The new implementation of the extension system.">
<polygon fill="none" stroke="black" points="543.5,-168.5 543.5,-187.5 657.5,-187.5 657.5,-168.5 543.5,-168.5"/>
<text text-anchor="middle" x="600.5" y="-175.5" font-family="Helvetica,sans-Serif" font-size="10.00">extension_base.hpp</text>
</a>
</g>
</g>
<!-- Node2&#45;&gt;Node4 -->
<g id="edge3" class="edge">
<title>Node2&#45;&gt;Node4</title>
<path fill="none" stroke="midnightblue" d="M600.5,-213.8C600.5,-204.91 600.5,-194.78 600.5,-187.75"/>
<polygon fill="midnightblue" stroke="midnightblue" points="597,-214.08 600.5,-224.08 604,-214.08 597,-214.08"/>
</g>
<!-- Node33 -->
<g id="node33" class="node">
<title>Node33</title>
<g id="a_node33"><a xlink:href="preconfigured__extensions_8hpp.html" target="_top" xlink:title="This file contains preconfigured extension metadata.">
<polygon fill="none" stroke="black" points="676,-168.5 676,-187.5 839,-187.5 839,-168.5 676,-168.5"/>
<text text-anchor="middle" x="757.5" y="-175.5" font-family="Helvetica,sans-Serif" font-size="10.00">preconfigured_extensions.hpp</text>
</a>
</g>
</g>
<!-- Node2&#45;&gt;Node33 -->
<g id="edge47" class="edge">
<title>Node2&#45;&gt;Node33</title>
<path fill="none" stroke="midnightblue" d="M634.89,-221.17C664.45,-211 706.37,-196.59 732.74,-187.52"/>
<polygon fill="midnightblue" stroke="midnightblue" points="633.7,-217.88 625.38,-224.44 635.97,-224.5 633.7,-217.88"/>
</g>
<!-- Node5 -->
<g id="node5" class="node">
<title>Node5</title>
<g id="a_node5"><a xlink:href="adc__extension__base_8hpp.html" target="_top" xlink:title="Generic ADC Extension Wrapper.">
<polygon fill="none" stroke="black" points="0,-112.5 0,-131.5 137,-131.5 137,-112.5 0,-112.5"/>
<text text-anchor="middle" x="68.5" y="-119.5" font-family="Helvetica,sans-Serif" font-size="10.00">adc_extension_base.hpp</text>
</a>
</g>
</g>
<!-- Node4&#45;&gt;Node5 -->
<g id="edge4" class="edge">
<title>Node4&#45;&gt;Node5</title>
<path fill="none" stroke="midnightblue" d="M533.33,-167.91C360.33,-148.33 314.98,-149.74 145.5,-132 142.82,-131.72 140.09,-131.43 137.34,-131.13"/>
<polygon fill="midnightblue" stroke="midnightblue" points="532.95,-171.39 543.28,-169.04 533.74,-164.43 532.95,-171.39"/>
</g>
<!-- Node10 -->
<g id="node10" class="node">
<title>Node10</title>
<g id="a_node10"><a xlink:href="bme280_8hpp.html" target="_top" xlink:title="The BME280 sensor extension.">
<polygon fill="none" stroke="black" points="522,-56.5 522,-75.5 599,-75.5 599,-56.5 522,-56.5"/>
<text text-anchor="middle" x="560.5" y="-63.5" font-family="Helvetica,sans-Serif" font-size="10.00">bme280.hpp</text>
</a>
</g>
</g>
<!-- Node4&#45;&gt;Node10 -->
<g id="edge9" class="edge">
<title>Node4&#45;&gt;Node10</title>
<path fill="none" stroke="midnightblue" d="M593.84,-158.67C585.09,-134.62 570.1,-93.39 563.62,-75.59"/>
<polygon fill="midnightblue" stroke="midnightblue" points="590.65,-160.17 597.36,-168.37 597.23,-157.77 590.65,-160.17"/>
</g>
<!-- Node12 -->
<g id="node12" class="node">
<title>Node12</title>
<g id="a_node12"><a xlink:href="bmi088_8hpp.html" target="_top" xlink:title="Extension for the Bosch BMI088 IMU.">
<polygon fill="none" stroke="black" points="293.5,-56.5 293.5,-75.5 367.5,-75.5 367.5,-56.5 293.5,-56.5"/>
<text text-anchor="middle" x="330.5" y="-63.5" font-family="Helvetica,sans-Serif" font-size="10.00">bmi088.hpp</text>
</a>
</g>
</g>
<!-- Node4&#45;&gt;Node12 -->
<g id="edge13" class="edge">
<title>Node4&#45;&gt;Node12</title>
<path fill="none" stroke="midnightblue" d="M534.49,-166.92C462.47,-155.67 356.42,-138.22 349.5,-132 333.23,-117.39 330.57,-89.69 330.34,-75.64"/>
<polygon fill="midnightblue" stroke="midnightblue" points="533.99,-170.39 544.41,-168.47 535.06,-163.47 533.99,-170.39"/>
</g>
<!-- Node14 -->
<g id="node14" class="node">
<title>Node14</title>
<g id="a_node14"><a xlink:href="ds18b20_8hpp.html" target="_top" xlink:title="DS18B20 extension header file.">
<polygon fill="none" stroke="black" points="386,-56.5 386,-75.5 465,-75.5 465,-56.5 386,-56.5"/>
<text text-anchor="middle" x="425.5" y="-63.5" font-family="Helvetica,sans-Serif" font-size="10.00">ds18b20.hpp</text>
</a>
</g>
</g>
<!-- Node4&#45;&gt;Node14 -->
<g id="edge17" class="edge">
<title>Node4&#45;&gt;Node14</title>
<path fill="none" stroke="midnightblue" d="M580.55,-162.59C561.56,-149.06 532.02,-128.49 505.5,-112 483.85,-98.54 458.01,-84.33 441.68,-75.56"/>
<polygon fill="midnightblue" stroke="midnightblue" points="578.56,-165.47 588.73,-168.45 582.63,-159.78 578.56,-165.47"/>
</g>
<!-- Node16 -->
<g id="node16" class="node">
<title>Node16</title>
<g id="a_node16"><a xlink:href="extension__base_8cpp.html" target="_top" xlink:title="The new implementation of the extension system.">
<polygon fill="none" stroke="black" points="1106,-112.5 1106,-131.5 1219,-131.5 1219,-112.5 1106,-112.5"/>
<text text-anchor="middle" x="1162.5" y="-119.5" font-family="Helvetica,sans-Serif" font-size="10.00">extension_base.cpp</text>
</a>
</g>
</g>
<!-- Node4&#45;&gt;Node16 -->
<g id="edge21" class="edge">
<title>Node4&#45;&gt;Node16</title>
<path fill="none" stroke="midnightblue" d="M667.81,-167.91C858.84,-147.23 909.13,-152.6 1096.5,-132 1099.6,-131.66 1102.79,-131.29 1106,-130.9"/>
<polygon fill="midnightblue" stroke="midnightblue" points="667.28,-164.45 657.71,-169.01 668.04,-171.41 667.28,-164.45"/>
</g>
<!-- Node17 -->
<g id="node17" class="node">
<title>Node17</title>
<g id="a_node17"><a xlink:href="i2c__extension__adapter_8hpp.html" target="_top" xlink:title="Adapter for I2C Extensions.">
<polygon fill="none" stroke="black" points="155,-112.5 155,-131.5 302,-131.5 302,-112.5 155,-112.5"/>
<text text-anchor="middle" x="228.5" y="-119.5" font-family="Helvetica,sans-Serif" font-size="10.00">i2c_extension_adapter.hpp</text>
</a>
</g>
</g>
<!-- Node4&#45;&gt;Node17 -->
<g id="edge22" class="edge">
<title>Node4&#45;&gt;Node17</title>
<path fill="none" stroke="midnightblue" d="M533.12,-167.22C462.87,-157.02 353.89,-141.2 287.1,-131.51"/>
<polygon fill="midnightblue" stroke="midnightblue" points="532.79,-170.71 543.19,-168.68 533.8,-163.78 532.79,-170.71"/>
</g>
<!-- Node18 -->
<g id="node18" class="node">
<title>Node18</title>
<g id="a_node18"><a xlink:href="imu__extension__base_8hpp.html" target="_top" xlink:title="Base IMU Extension.">
<polygon fill="none" stroke="black" points="358.5,-112.5 358.5,-131.5 496.5,-131.5 496.5,-112.5 358.5,-112.5"/>
<text text-anchor="middle" x="427.5" y="-119.5" font-family="Helvetica,sans-Serif" font-size="10.00">imu_extension_base.hpp</text>
</a>
</g>
</g>
<!-- Node4&#45;&gt;Node18 -->
<g id="edge24" class="edge">
<title>Node4&#45;&gt;Node18</title>
<path fill="none" stroke="midnightblue" d="M563.45,-165.44C530.84,-155.26 484.09,-140.66 454.78,-131.52"/>
<polygon fill="midnightblue" stroke="midnightblue" points="562.5,-168.8 573.09,-168.44 564.58,-162.12 562.5,-168.8"/>
</g>
<!-- Node19 -->
<g id="node19" class="node">
<title>Node19</title>
<g id="a_node19"><a xlink:href="pi__camera_8hpp.html" target="_top" xlink:title="Raspberry Pi Camera Extension.">
<polygon fill="none" stroke="black" points="813,-112.5 813,-131.5 902,-131.5 902,-112.5 813,-112.5"/>
<text text-anchor="middle" x="857.5" y="-119.5" font-family="Helvetica,sans-Serif" font-size="10.00">pi_camera.hpp</text>
</a>
</g>
</g>
<!-- Node4&#45;&gt;Node19 -->
<g id="edge26" class="edge">
<title>Node4&#45;&gt;Node19</title>
<path fill="none" stroke="midnightblue" d="M651.21,-166.35C699.78,-156.14 772.12,-140.94 816.97,-131.52"/>
<polygon fill="midnightblue" stroke="midnightblue" points="650.29,-162.96 641.22,-168.44 651.73,-169.81 650.29,-162.96"/>
</g>
<!-- Node21 -->
<g id="node21" class="node">
<title>Node21</title>
<g id="a_node21"><a xlink:href="rgb__status__led_8hpp.html" target="_top" xlink:title=" ">
<polygon fill="none" stroke="black" points="617,-56.5 617,-75.5 726,-75.5 726,-56.5 617,-56.5"/>
<text text-anchor="middle" x="671.5" y="-63.5" font-family="Helvetica,sans-Serif" font-size="10.00">rgb_status_led.hpp</text>
</a>
</g>
</g>
<!-- Node4&#45;&gt;Node21 -->
<g id="edge29" class="edge">
<title>Node4&#45;&gt;Node21</title>
<path fill="none" stroke="midnightblue" d="M604.95,-158.36C608.76,-144.77 615.12,-126.3 624.5,-112 634.04,-97.45 649.11,-84.12 659.61,-75.81"/>
<polygon fill="midnightblue" stroke="midnightblue" points="601.46,-157.88 602.35,-168.44 608.24,-159.63 601.46,-157.88"/>
</g>
<!-- Node23 -->
<g id="node23" class="node">
<title>Node23</title>
<g id="a_node23"><a xlink:href="samm8q_8hpp.html" target="_top" xlink:title="SAM&#45;M8Q GPS extension (I2C).">
<polygon fill="none" stroke="black" points="744.5,-56.5 744.5,-75.5 824.5,-75.5 824.5,-56.5 744.5,-56.5"/>
<text text-anchor="middle" x="784.5" y="-63.5" font-family="Helvetica,sans-Serif" font-size="10.00">samm8q.hpp</text>
</a>
</g>
</g>
<!-- Node4&#45;&gt;Node23 -->
<g id="edge33" class="edge">
<title>Node4&#45;&gt;Node23</title>
<path fill="none" stroke="midnightblue" d="M611.95,-159.57C622.29,-145.03 638.75,-124.71 657.5,-112 683.93,-94.08 718.28,-82.48 744.59,-75.55"/>
<polygon fill="midnightblue" stroke="midnightblue" points="608.83,-157.92 606.07,-168.14 614.61,-161.87 608.83,-157.92"/>
</g>
<!-- Node25 -->
<g id="node25" class="node">
<title>Node25</title>
<g id="a_node25"><a xlink:href="extension__module_8hpp.html" target="_top" xlink:title="This is the header file for the new extension module.">
<polygon fill="none" stroke="black" points="666.5,-112.5 666.5,-131.5 794.5,-131.5 794.5,-112.5 666.5,-112.5"/>
<text text-anchor="middle" x="730.5" y="-119.5" font-family="Helvetica,sans-Serif" font-size="10.00">extension_module.hpp</text>
</a>
</g>
</g>
<!-- Node4&#45;&gt;Node25 -->
<g id="edge37" class="edge">
<title>Node4&#45;&gt;Node25</title>
<path fill="none" stroke="midnightblue" d="M630.59,-164.5C654.96,-154.38 688.64,-140.39 710,-131.52"/>
<polygon fill="midnightblue" stroke="midnightblue" points="628.99,-161.38 621.1,-168.44 631.68,-167.84 628.99,-161.38"/>
</g>
<!-- Node30 -->
<g id="node30" class="node">
<title>Node30</title>
<g id="a_node30"><a xlink:href="extension__test__framework_8hpp.html" target="_top" xlink:title="Basic helpers for unit testing extensions on the host.">
<polygon fill="none" stroke="black" points="919.5,-112.5 919.5,-131.5 1087.5,-131.5 1087.5,-112.5 919.5,-112.5"/>
<text text-anchor="middle" x="1003.5" y="-119.5" font-family="Helvetica,sans-Serif" font-size="10.00">extension_test_framework.hpp</text>
</a>
</g>
</g>
<!-- Node4&#45;&gt;Node30 -->
<g id="edge43" class="edge">
<title>Node4&#45;&gt;Node30</title>
<path fill="none" stroke="midnightblue" d="M667.78,-167.83C768.45,-154.25 873.57,-140.25 939.2,-131.53"/>
<polygon fill="midnightblue" stroke="midnightblue" points="667.18,-164.38 657.74,-169.19 668.11,-171.32 667.18,-164.38"/>
</g>
<!-- Node32 -->
<g id="node32" class="node">
<title>Node32</title>
<g id="a_node32"><a xlink:href="simulated__extensions_8hpp.html" target="_top" xlink:title="This contains the simulated extensions for testing the flight system.">
<polygon fill="none" stroke="black" points="1237,-112.5 1237,-131.5 1382,-131.5 1382,-112.5 1237,-112.5"/>
<text text-anchor="middle" x="1309.5" y="-119.5" font-family="Helvetica,sans-Serif" font-size="10.00">simulated_extensions.hpp</text>
</a>
</g>
</g>
<!-- Node4&#45;&gt;Node32 -->
<g id="edge46" class="edge">
<title>Node4&#45;&gt;Node32</title>
<path fill="none" stroke="midnightblue" d="M667.81,-167.94C917.26,-143.35 982.45,-153.54 1228.5,-132 1231.18,-131.77 1233.9,-131.52 1236.66,-131.26"/>
<polygon fill="midnightblue" stroke="midnightblue" points="667.31,-164.47 657.71,-168.94 668.01,-171.44 667.31,-164.47"/>
</g>
<!-- Node6 -->
<g id="node6" class="node">
<title>Node6</title>
<g id="a_node6"><a xlink:href="mcp3021_8hpp.html" target="_top" xlink:title="MCP3021 I2C ADC Driver.">
<polygon fill="none" stroke="black" points="187,-56.5 187,-75.5 270,-75.5 270,-56.5 187,-56.5"/>
<text text-anchor="middle" x="228.5" y="-63.5" font-family="Helvetica,sans-Serif" font-size="10.00">mcp3021.hpp</text>
</a>
</g>
</g>
<!-- Node5&#45;&gt;Node6 -->
<g id="edge5" class="edge">
<title>Node5&#45;&gt;Node6</title>
<path fill="none" stroke="midnightblue" d="M103.55,-109.17C133.67,-99 176.4,-84.59 203.27,-75.52"/>
<polygon fill="midnightblue" stroke="midnightblue" points="102.21,-105.93 93.85,-112.44 104.45,-112.56 102.21,-105.93"/>
</g>
<!-- Node7 -->
<g id="node7" class="node">
<title>Node7</title>
<g id="a_node7"><a xlink:href="mcp3021_8cpp.html" target="_top" xlink:title="MCP3021 I2C ADC Driver.">
<polygon fill="none" stroke="black" points="87.5,-0.5 87.5,-19.5 169.5,-19.5 169.5,-0.5 87.5,-0.5"/>
<text text-anchor="middle" x="128.5" y="-7.5" font-family="Helvetica,sans-Serif" font-size="10.00">mcp3021.cpp</text>
</a>
</g>
</g>
<!-- Node6&#45;&gt;Node7 -->
<g id="edge6" class="edge">
<title>Node6&#45;&gt;Node7</title>
<path fill="none" stroke="midnightblue" d="M203.41,-51.45C184.95,-41.48 160.4,-28.23 144.53,-19.65"/>
<polygon fill="midnightblue" stroke="midnightblue" points="201.97,-54.65 212.43,-56.32 205.3,-48.49 201.97,-54.65"/>
</g>
<!-- Node8 -->
<g id="node8" class="node">
<title>Node8</title>
<g id="a_node8"><a xlink:href="extension__module_8cpp.html" target="_top" xlink:title="The implementation of the new extension module.">
<polygon fill="none" stroke="black" points="376,-0.5 376,-19.5 503,-19.5 503,-0.5 376,-0.5"/>
<text text-anchor="middle" x="439.5" y="-7.5" font-family="Helvetica,sans-Serif" font-size="10.00">extension_module.cpp</text>
</a>
</g>
</g>
<!-- Node6&#45;&gt;Node8 -->
<g id="edge7" class="edge">
<title>Node6&#45;&gt;Node8</title>
<path fill="none" stroke="midnightblue" d="M271.64,-53.96C311.49,-43.76 369.86,-28.82 406.22,-19.52"/>
<polygon fill="midnightblue" stroke="midnightblue" points="270.75,-50.57 261.93,-56.44 272.49,-57.35 270.75,-50.57"/>
</g>
<!-- Node9 -->
<g id="node9" class="node">
<title>Node9</title>
<g id="a_node9"><a xlink:href="test__extensions_8cpp.html" target="_top" xlink:title=" ">
<polygon fill="none" stroke="black" points="616.5,-0.5 616.5,-19.5 730.5,-19.5 730.5,-0.5 616.5,-0.5"/>
<text text-anchor="middle" x="673.5" y="-7.5" font-family="Helvetica,sans-Serif" font-size="10.00">test_extensions.cpp</text>
</a>
</g>
</g>
<!-- Node6&#45;&gt;Node9 -->
<g id="edge8" class="edge">
<title>Node6&#45;&gt;Node9</title>
<path fill="none" stroke="midnightblue" d="M280.05,-56.62C281.55,-56.41 283.04,-56.2 284.5,-56 427.19,-36.57 463.58,-37.59 606.5,-20 609.76,-19.6 613.11,-19.18 616.49,-18.75"/>
<polygon fill="midnightblue" stroke="midnightblue" points="279.44,-53.17 270.06,-58.09 280.46,-60.1 279.44,-53.17"/>
</g>
<!-- Node10&#45;&gt;Node8 -->
<g id="edge11" class="edge">
<title>Node10&#45;&gt;Node8</title>
<path fill="none" stroke="midnightblue" d="M532.19,-52.37C509.53,-42.26 478.37,-28.35 458.58,-19.52"/>
<polygon fill="midnightblue" stroke="midnightblue" points="530.77,-55.56 541.33,-56.44 533.62,-49.17 530.77,-55.56"/>
</g>
<!-- Node10&#45;&gt;Node9 -->
<g id="edge12" class="edge">
<title>Node10&#45;&gt;Node9</title>
<path fill="none" stroke="midnightblue" d="M587.5,-52.1C608.61,-42.01 637.36,-28.27 655.68,-19.52"/>
<polygon fill="midnightblue" stroke="midnightblue" points="585.92,-48.97 578.41,-56.44 588.94,-55.29 585.92,-48.97"/>
</g>
<!-- Node11 -->
<g id="node11" class="node">
<title>Node11</title>
<g id="a_node11"><a xlink:href="bme280_8cpp.html" target="_top" xlink:title="BME280 sensor extension.">
<polygon fill="none" stroke="black" points="521,-0.5 521,-19.5 598,-19.5 598,-0.5 521,-0.5"/>
<text text-anchor="middle" x="559.5" y="-7.5" font-family="Helvetica,sans-Serif" font-size="10.00">bme280.cpp</text>
</a>
</g>
</g>
<!-- Node10&#45;&gt;Node11 -->
<g id="edge10" class="edge">
<title>Node10&#45;&gt;Node11</title>
<path fill="none" stroke="midnightblue" d="M560.14,-45.8C559.98,-36.91 559.79,-26.78 559.66,-19.75"/>
<polygon fill="midnightblue" stroke="midnightblue" points="556.65,-46.15 560.33,-56.08 563.65,-46.02 556.65,-46.15"/>
</g>
<!-- Node12&#45;&gt;Node8 -->
<g id="edge15" class="edge">
<title>Node12&#45;&gt;Node8</title>
<path fill="none" stroke="midnightblue" d="M357.02,-51.86C377.23,-41.85 404.49,-28.35 422.03,-19.65"/>
<polygon fill="midnightblue" stroke="midnightblue" points="355.42,-48.75 348.01,-56.32 358.53,-55.02 355.42,-48.75"/>
</g>
<!-- Node12&#45;&gt;Node9 -->
<g id="edge16" class="edge">
<title>Node12&#45;&gt;Node9</title>
<path fill="none" stroke="midnightblue" d="M377.63,-55.86C466.69,-40.54 558.73,-27.07 616.45,-18.9"/>
<polygon fill="midnightblue" stroke="midnightblue" points="376.89,-52.44 367.63,-57.59 378.08,-59.34 376.89,-52.44"/>
</g>
<!-- Node13 -->
<g id="node13" class="node">
<title>Node13</title>
<g id="a_node13"><a xlink:href="bmi088_8cpp.html" target="_top" xlink:title="Implementation of the BMI088 extension.">
<polygon fill="none" stroke="black" points="187.5,-0.5 187.5,-19.5 261.5,-19.5 261.5,-0.5 187.5,-0.5"/>
<text text-anchor="middle" x="224.5" y="-7.5" font-family="Helvetica,sans-Serif" font-size="10.00">bmi088.cpp</text>
</a>
</g>
</g>
<!-- Node12&#45;&gt;Node13 -->
<g id="edge14" class="edge">
<title>Node12&#45;&gt;Node13</title>
<path fill="none" stroke="midnightblue" d="M304.44,-51.73C284.82,-41.73 258.47,-28.31 241.49,-19.65"/>
<polygon fill="midnightblue" stroke="midnightblue" points="302.97,-54.9 313.47,-56.32 306.15,-48.67 302.97,-54.9"/>
</g>
<!-- Node14&#45;&gt;Node8 -->
<g id="edge19" class="edge">
<title>Node14&#45;&gt;Node8</title>
<path fill="none" stroke="midnightblue" d="M430.32,-46.4C432.67,-37.36 435.37,-26.94 437.23,-19.75"/>
<polygon fill="midnightblue" stroke="midnightblue" points="426.93,-45.52 427.81,-56.08 433.71,-47.28 426.93,-45.52"/>
</g>
<!-- Node14&#45;&gt;Node9 -->
<g id="edge20" class="edge">
<title>Node14&#45;&gt;Node9</title>
<path fill="none" stroke="midnightblue" d="M474.73,-54.28C521.59,-44.08 591.2,-28.92 634.39,-19.52"/>
<polygon fill="midnightblue" stroke="midnightblue" points="473.82,-50.9 464.8,-56.44 475.31,-57.74 473.82,-50.9"/>
</g>
<!-- Node15 -->
<g id="node15" class="node">
<title>Node15</title>
<g id="a_node15"><a xlink:href="ds18b20_8cpp.html" target="_top" xlink:title="DS18B20 extension.">
<polygon fill="none" stroke="black" points="279.5,-0.5 279.5,-19.5 357.5,-19.5 357.5,-0.5 279.5,-0.5"/>
<text text-anchor="middle" x="318.5" y="-7.5" font-family="Helvetica,sans-Serif" font-size="10.00">ds18b20.cpp</text>
</a>
</g>
</g>
<!-- Node14&#45;&gt;Node15 -->
<g id="edge18" class="edge">
<title>Node14&#45;&gt;Node15</title>
<path fill="none" stroke="midnightblue" d="M399.2,-51.73C379.39,-41.73 352.79,-28.31 335.65,-19.65"/>
<polygon fill="midnightblue" stroke="midnightblue" points="397.8,-54.94 408.31,-56.32 400.96,-48.69 397.8,-54.94"/>
</g>
<!-- Node17&#45;&gt;Node6 -->
<g id="edge23" class="edge">
<title>Node17&#45;&gt;Node6</title>
<path fill="none" stroke="midnightblue" d="M228.5,-101.8C228.5,-92.91 228.5,-82.78 228.5,-75.75"/>
<polygon fill="midnightblue" stroke="midnightblue" points="225,-102.08 228.5,-112.08 232,-102.08 225,-102.08"/>
</g>
<!-- Node18&#45;&gt;Node12 -->
<g id="edge25" class="edge">
<title>Node18&#45;&gt;Node12</title>
<path fill="none" stroke="midnightblue" d="M403.16,-107.45C385.26,-97.48 361.45,-84.23 346.05,-75.65"/>
<polygon fill="midnightblue" stroke="midnightblue" points="401.48,-110.52 411.92,-112.32 404.88,-104.4 401.48,-110.52"/>
</g>
<!-- Node19&#45;&gt;Node9 -->
<g id="edge28" class="edge">
<title>Node19&#45;&gt;Node9</title>
<path fill="none" stroke="midnightblue" d="M855.29,-102.57C852.57,-87.97 846.6,-68.1 833.5,-56 817.18,-40.93 762.59,-27.7 721.69,-19.56"/>
<polygon fill="midnightblue" stroke="midnightblue" points="851.83,-103.12 856.79,-112.48 858.75,-102.07 851.83,-103.12"/>
</g>
<!-- Node20 -->
<g id="node20" class="node">
<title>Node20</title>
<g id="a_node20"><a xlink:href="pi__camera_8cpp.html" target="_top" xlink:title="Raspberry Pi Camera Extension.">
<polygon fill="none" stroke="black" points="880.5,-56.5 880.5,-75.5 968.5,-75.5 968.5,-56.5 880.5,-56.5"/>
<text text-anchor="middle" x="924.5" y="-63.5" font-family="Helvetica,sans-Serif" font-size="10.00">pi_camera.cpp</text>
</a>
</g>
</g>
<!-- Node19&#45;&gt;Node20 -->
<g id="edge27" class="edge">
<title>Node19&#45;&gt;Node20</title>
<path fill="none" stroke="midnightblue" d="M876.33,-105.82C888.34,-96.15 903.47,-83.95 913.54,-75.83"/>
<polygon fill="midnightblue" stroke="midnightblue" points="873.85,-103.32 868.26,-112.32 878.25,-108.77 873.85,-103.32"/>
</g>
<!-- Node21&#45;&gt;Node8 -->
<g id="edge31" class="edge">
<title>Node21&#45;&gt;Node8</title>
<path fill="none" stroke="midnightblue" d="M624.9,-54.15C581.06,-43.95 516.32,-28.88 476.09,-19.52"/>
<polygon fill="midnightblue" stroke="midnightblue" points="624.21,-57.59 634.74,-56.44 625.79,-50.77 624.21,-57.59"/>
</g>
<!-- Node21&#45;&gt;Node9 -->
<g id="edge32" class="edge">
<title>Node21&#45;&gt;Node9</title>
<path fill="none" stroke="midnightblue" d="M672.21,-45.8C672.54,-36.91 672.92,-26.78 673.18,-19.75"/>
<polygon fill="midnightblue" stroke="midnightblue" points="668.7,-45.96 671.83,-56.08 675.7,-46.22 668.7,-45.96"/>
</g>
<!-- Node22 -->
<g id="node22" class="node">
<title>Node22</title>
<g id="a_node22"><a xlink:href="rgb__status__led_8cpp.html" target="_top" xlink:title="RGB Status LED extension source file.">
<polygon fill="none" stroke="black" points="748.5,-0.5 748.5,-19.5 856.5,-19.5 856.5,-0.5 748.5,-0.5"/>
<text text-anchor="middle" x="802.5" y="-7.5" font-family="Helvetica,sans-Serif" font-size="10.00">rgb_status_led.cpp</text>
</a>
</g>
</g>
<!-- Node21&#45;&gt;Node22 -->
<g id="edge30" class="edge">
<title>Node21&#45;&gt;Node22</title>
<path fill="none" stroke="midnightblue" d="M701.82,-52.5C726.38,-42.38 760.32,-28.39 781.84,-19.52"/>
<polygon fill="midnightblue" stroke="midnightblue" points="700.17,-49.4 692.26,-56.44 702.84,-55.87 700.17,-49.4"/>
</g>
<!-- Node23&#45;&gt;Node8 -->
<g id="edge35" class="edge">
<title>Node23&#45;&gt;Node8</title>
<path fill="none" stroke="midnightblue" d="M734.8,-56.05C734.7,-56.03 734.6,-56.02 734.5,-56 652.73,-42.41 557.94,-28.23 498.34,-19.5"/>
<polygon fill="midnightblue" stroke="midnightblue" points="733.95,-59.46 744.4,-57.68 735.13,-52.56 733.95,-59.46"/>
</g>
<!-- Node23&#45;&gt;Node9 -->
<g id="edge36" class="edge">
<title>Node23&#45;&gt;Node9</title>
<path fill="none" stroke="midnightblue" d="M757.49,-51.86C736.91,-41.85 709.16,-28.35 691.29,-19.65"/>
<polygon fill="midnightblue" stroke="midnightblue" points="756.14,-55.1 766.67,-56.32 759.2,-48.8 756.14,-55.1"/>
</g>
<!-- Node24 -->
<g id="node24" class="node">
<title>Node24</title>
<g id="a_node24"><a xlink:href="samm8q_8cpp.html" target="_top" xlink:title="The SAM&#45;M8Q GPS extension (I2C).">
<polygon fill="none" stroke="black" points="874.5,-0.5 874.5,-19.5 954.5,-19.5 954.5,-0.5 874.5,-0.5"/>
<text text-anchor="middle" x="914.5" y="-7.5" font-family="Helvetica,sans-Serif" font-size="10.00">samm8q.cpp</text>
</a>
</g>
</g>
<!-- Node23&#45;&gt;Node24 -->
<g id="edge34" class="edge">
<title>Node23&#45;&gt;Node24</title>
<path fill="none" stroke="midnightblue" d="M814.59,-52.5C838.96,-42.38 872.64,-28.39 894,-19.52"/>
<polygon fill="midnightblue" stroke="midnightblue" points="812.99,-49.38 805.1,-56.44 815.68,-55.84 812.99,-49.38"/>
</g>
<!-- Node25&#45;&gt;Node8 -->
<g id="edge42" class="edge">
<title>Node25&#45;&gt;Node8</title>
<path fill="none" stroke="midnightblue" d="M656.09,-115.34C612.41,-109.7 557.19,-98.45 512.5,-76 484.3,-61.83 458.54,-33.94 446.56,-19.74"/>
<polygon fill="midnightblue" stroke="midnightblue" points="655.73,-118.82 666.08,-116.56 656.58,-111.87 655.73,-118.82"/>
</g>
<!-- Node26 -->
<g id="node26" class="node">
<title>Node26</title>
<g id="a_node26"><a xlink:href="flight__runner_8hpp.html" target="_top" xlink:title="The main class for the flight system.">
<polygon fill="none" stroke="black" points="1024.5,-56.5 1024.5,-75.5 1122.5,-75.5 1122.5,-56.5 1024.5,-56.5"/>
<text text-anchor="middle" x="1073.5" y="-63.5" font-family="Helvetica,sans-Serif" font-size="10.00">flight_runner.hpp</text>
</a>
</g>
</g>
<!-- Node25&#45;&gt;Node26 -->
<g id="edge38" class="edge">
<title>Node25&#45;&gt;Node26</title>
<path fill="none" stroke="midnightblue" d="M794.81,-110.88C861.42,-100.39 964.04,-84.23 1024.41,-74.73"/>
<polygon fill="midnightblue" stroke="midnightblue" points="794.18,-107.43 784.85,-112.44 795.27,-114.35 794.18,-107.43"/>
</g>
<!-- Node27 -->
<g id="node27" class="node">
<title>Node27</title>
<g id="a_node27"><a xlink:href="flight__logic_8cpp.html" target="_top" xlink:title="The implementation of the flight logic within the flight runner.">
<polygon fill="none" stroke="black" points="972.5,-0.5 972.5,-19.5 1062.5,-19.5 1062.5,-0.5 972.5,-0.5"/>
<text text-anchor="middle" x="1017.5" y="-7.5" font-family="Helvetica,sans-Serif" font-size="10.00">flight_logic.cpp</text>
</a>
</g>
</g>
<!-- Node26&#45;&gt;Node27 -->
<g id="edge39" class="edge">
<title>Node26&#45;&gt;Node27</title>
<path fill="none" stroke="midnightblue" d="M1057.17,-49.25C1047.24,-39.67 1034.91,-27.79 1026.66,-19.83"/>
<polygon fill="midnightblue" stroke="midnightblue" points="1054.87,-51.9 1064.5,-56.32 1059.73,-46.86 1054.87,-51.9"/>
</g>
<!-- Node28 -->
<g id="node28" class="node">
<title>Node28</title>
<g id="a_node28"><a xlink:href="flight__runner_8cpp.html" target="_top" xlink:title="The implementation of the flight runner, where everything comes together.">
<polygon fill="none" stroke="black" points="1080.5,-0.5 1080.5,-19.5 1178.5,-19.5 1178.5,-0.5 1080.5,-0.5"/>
<text text-anchor="middle" x="1129.5" y="-7.5" font-family="Helvetica,sans-Serif" font-size="10.00">flight_runner.cpp</text>
</a>
</g>
</g>
<!-- Node26&#45;&gt;Node28 -->
<g id="edge40" class="edge">
<title>Node26&#45;&gt;Node28</title>
<path fill="none" stroke="midnightblue" d="M1089.83,-49.25C1099.76,-39.67 1112.09,-27.79 1120.34,-19.83"/>
<polygon fill="midnightblue" stroke="midnightblue" points="1087.27,-46.86 1082.5,-56.32 1092.13,-51.9 1087.27,-46.86"/>
</g>
<!-- Node29 -->
<g id="node29" class="node">
<title>Node29</title>
<g id="a_node29"><a xlink:href="src_2flight__system_2main_8cpp.html" target="_top" xlink:title="Defines the entry point/main function of the Flight Computer software.">
<polygon fill="none" stroke="black" points="1196.5,-0.5 1196.5,-19.5 1258.5,-19.5 1258.5,-0.5 1196.5,-0.5"/>
<text text-anchor="middle" x="1227.5" y="-7.5" font-family="Helvetica,sans-Serif" font-size="10.00">main.cpp</text>
</a>
</g>
</g>
<!-- Node26&#45;&gt;Node29 -->
<g id="edge41" class="edge">
<title>Node26&#45;&gt;Node29</title>
<path fill="none" stroke="midnightblue" d="M1107.61,-53.04C1136.59,-42.88 1177.46,-28.55 1203.21,-19.52"/>
<polygon fill="midnightblue" stroke="midnightblue" points="1106.18,-49.83 1097.9,-56.44 1108.5,-56.44 1106.18,-49.83"/>
</g>
<!-- Node30&#45;&gt;Node9 -->
<g id="edge45" class="edge">
<title>Node30&#45;&gt;Node9</title>
<path fill="none" stroke="midnightblue" d="M1001.07,-102.07C998.12,-87.19 991.64,-67.17 977.5,-56 975.09,-54.09 818.25,-31.56 730.83,-19.12"/>
<polygon fill="midnightblue" stroke="midnightblue" points="997.66,-102.91 1002.71,-112.22 1004.57,-101.79 997.66,-102.91"/>
</g>
<!-- Node31 -->
<g id="node31" class="node">
<title>Node31</title>
<g id="a_node31"><a xlink:href="extension__test__framework_8cpp.html" target="_top" xlink:title="Test framework for testing extensions on the host.">
<polygon fill="none" stroke="black" points="1141,-56.5 1141,-75.5 1308,-75.5 1308,-56.5 1141,-56.5"/>
<text text-anchor="middle" x="1224.5" y="-63.5" font-family="Helvetica,sans-Serif" font-size="10.00">extension_test_framework.cpp</text>
</a>
</g>
</g>
<!-- Node30&#45;&gt;Node31 -->
<g id="edge44" class="edge">
<title>Node30&#45;&gt;Node31</title>
<path fill="none" stroke="midnightblue" d="M1048.42,-110.02C1090.17,-99.82 1151.48,-84.84 1189.65,-75.52"/>
<polygon fill="midnightblue" stroke="midnightblue" points="1047.4,-106.67 1038.52,-112.44 1049.06,-113.47 1047.4,-106.67"/>
</g>
</g>
</svg>
