<?xml version="1.0" encoding="UTF-8" standalone="no"?>
<!DOCTYPE svg PUBLIC "-//W3C//DTD SVG 1.1//EN"
 "http://www.w3.org/Graphics/SVG/1.1/DTD/svg11.dtd">
<!-- Generated by graphviz version 2.43.0 (0)
 -->
<!-- Title: cfg_section.hpp Pages: 1 -->
<svg width="1567pt" height="375pt"
 viewBox="0.00 0.00 1566.71 375.00" xmlns="http://www.w3.org/2000/svg" xmlns:xlink="http://www.w3.org/1999/xlink">
<g id="graph0" class="graph" transform="scale(1 1) rotate(0) translate(4 371)">
<title>cfg_section.hpp</title>
<!-- Node1 -->
<g id="node1" class="node">
<title>Node1</title>
<g id="a_node1"><a xlink:title="This file contains the base class for all configuration sections.">
<polygon fill="#bfbfbf" stroke="black" points="682.21,-347.5 682.21,-366.5 775.21,-366.5 775.21,-347.5 682.21,-347.5"/>
<text text-anchor="middle" x="728.71" y="-354.5" font-family="Helvetica,sans-Serif" font-size="10.00">cfg_section.hpp</text>
</a>
</g>
</g>
<!-- Node2 -->
<g id="node2" class="node">
<title>Node2</title>
<g id="a_node2"><a xlink:href="shared__data_8hpp.html" target="_top" xlink:title="Contains the SharedData struct, used across all modules and extensions.">
<polygon fill="none" stroke="black" points="679.71,-291.5 679.71,-310.5 777.71,-310.5 777.71,-291.5 679.71,-291.5"/>
<text text-anchor="middle" x="728.71" y="-298.5" font-family="Helvetica,sans-Serif" font-size="10.00">shared_data.hpp</text>
</a>
</g>
</g>
<!-- Node1&#45;&gt;Node2 -->
<g id="edge1" class="edge">
<title>Node1&#45;&gt;Node2</title>
<path fill="none" stroke="midnightblue" d="M728.71,-347.08C728.71,-340.01 728.71,-329.86 728.71,-320.99"/>
<polygon fill="midnightblue" stroke="midnightblue" points="732.21,-320.75 728.71,-310.75 725.21,-320.75 732.21,-320.75"/>
</g>
<!-- Node3 -->
<g id="node3" class="node">
<title>Node3</title>
<g id="a_node3"><a xlink:title=" ">
<polygon fill="none" stroke="#bfbfbf" points="177.21,-56.5 177.21,-75.5 302.21,-75.5 302.21,-56.5 177.21,-56.5"/>
<text text-anchor="middle" x="239.71" y="-63.5" font-family="Helvetica,sans-Serif" font-size="10.00">BoosterSeat/clock.hpp</text>
</a>
</g>
</g>
<!-- Node2&#45;&gt;Node3 -->
<g id="edge2" class="edge">
<title>Node2&#45;&gt;Node3</title>
<path fill="none" stroke="midnightblue" d="M679.48,-297.76C530.25,-289.76 88.8,-256.68 17.71,-143 10.41,-131.32 8.99,-122.67 17.71,-112 27.35,-100.21 106.58,-86.22 167.67,-77"/>
<polygon fill="midnightblue" stroke="midnightblue" points="168.32,-80.44 177.69,-75.51 167.29,-73.52 168.32,-80.44"/>
</g>
<!-- Node4 -->
<g id="node4" class="node">
<title>Node4</title>
<g id="a_node4"><a xlink:title=" ">
<polygon fill="none" stroke="#bfbfbf" points="36.71,-56.5 36.71,-75.5 158.71,-75.5 158.71,-56.5 36.71,-56.5"/>
<text text-anchor="middle" x="97.71" y="-63.5" font-family="Helvetica,sans-Serif" font-size="10.00">BoosterSeat/time.hpp</text>
</a>
</g>
</g>
<!-- Node2&#45;&gt;Node4 -->
<g id="edge3" class="edge">
<title>Node2&#45;&gt;Node4</title>
<path fill="none" stroke="midnightblue" d="M679.37,-300.15C585.82,-299.46 376.68,-293.32 205.71,-255 135.87,-239.35 113.22,-240.23 54.71,-199 18.79,-173.69 -15.39,-149.38 7.71,-112 17.39,-96.35 34.34,-85.96 50.94,-79.15"/>
<polygon fill="midnightblue" stroke="midnightblue" points="52.46,-82.32 60.61,-75.54 50.02,-75.76 52.46,-82.32"/>
</g>
<!-- Node5 -->
<g id="node5" class="node">
<title>Node5</title>
<g id="a_node5"><a xlink:href="blocks_8hpp.html" target="_top" xlink:title=" ">
<polygon fill="none" stroke="black" points="366.21,-179.5 366.21,-198.5 435.21,-198.5 435.21,-179.5 366.21,-179.5"/>
<text text-anchor="middle" x="400.71" y="-186.5" font-family="Helvetica,sans-Serif" font-size="10.00">blocks.hpp</text>
</a>
</g>
</g>
<!-- Node2&#45;&gt;Node5 -->
<g id="edge4" class="edge">
<title>Node2&#45;&gt;Node5</title>
<path fill="none" stroke="midnightblue" d="M703.25,-291.46C645.12,-271.97 502.57,-224.16 436.02,-201.84"/>
<polygon fill="midnightblue" stroke="midnightblue" points="436.98,-198.47 426.39,-198.61 434.76,-205.11 436.98,-198.47"/>
</g>
<!-- Node15 -->
<g id="node15" class="node">
<title>Node15</title>
<g id="a_node15"><a xlink:href="error__frame_8hpp.html" target="_top" xlink:title="The error frame.">
<polygon fill="none" stroke="black" points="719.21,-235.5 719.21,-254.5 814.21,-254.5 814.21,-235.5 719.21,-235.5"/>
<text text-anchor="middle" x="766.71" y="-242.5" font-family="Helvetica,sans-Serif" font-size="10.00">error_frame.hpp</text>
</a>
</g>
</g>
<!-- Node2&#45;&gt;Node15 -->
<g id="edge23" class="edge">
<title>Node2&#45;&gt;Node15</title>
<path fill="none" stroke="midnightblue" d="M734.99,-291.08C740.36,-283.46 748.23,-272.26 754.79,-262.94"/>
<polygon fill="midnightblue" stroke="midnightblue" points="757.66,-264.94 760.56,-254.75 751.94,-260.91 757.66,-264.94"/>
</g>
<!-- Node16 -->
<g id="node16" class="node">
<title>Node16</title>
<g id="a_node16"><a xlink:href="frame_8hpp.html" target="_top" xlink:title=" ">
<polygon fill="none" stroke="black" points="657.21,-179.5 657.21,-198.5 724.21,-198.5 724.21,-179.5 657.21,-179.5"/>
<text text-anchor="middle" x="690.71" y="-186.5" font-family="Helvetica,sans-Serif" font-size="10.00">frame.hpp</text>
</a>
</g>
</g>
<!-- Node2&#45;&gt;Node16 -->
<g id="edge46" class="edge">
<title>Node2&#45;&gt;Node16</title>
<path fill="none" stroke="midnightblue" d="M725.05,-291.45C721.26,-282.46 715.25,-267.85 710.71,-255 705.25,-239.52 699.82,-221.68 696,-208.61"/>
<polygon fill="midnightblue" stroke="midnightblue" points="699.34,-207.55 693.2,-198.91 692.61,-209.48 699.34,-207.55"/>
</g>
<!-- Node19 -->
<g id="node19" class="node">
<title>Node19</title>
<g id="a_node19"><a xlink:href="streams_8hpp.html" target="_top" xlink:title="The header file for the data streams.">
<polygon fill="none" stroke="black" points="879.21,-179.5 879.21,-198.5 956.21,-198.5 956.21,-179.5 879.21,-179.5"/>
<text text-anchor="middle" x="917.71" y="-186.5" font-family="Helvetica,sans-Serif" font-size="10.00">streams.hpp</text>
</a>
</g>
</g>
<!-- Node2&#45;&gt;Node19 -->
<g id="edge52" class="edge">
<title>Node2&#45;&gt;Node19</title>
<path fill="none" stroke="midnightblue" d="M749.22,-291.44C768.79,-283.01 798.9,-269.33 823.71,-255 850.59,-239.48 879.71,-218.66 898.3,-204.81"/>
<polygon fill="midnightblue" stroke="midnightblue" points="900.64,-207.43 906.53,-198.63 896.43,-201.84 900.64,-207.43"/>
</g>
<!-- Node27 -->
<g id="node27" class="node">
<title>Node27</title>
<g id="a_node27"><a xlink:href="log__container_8hpp.html" target="_top" xlink:title="A simple logging system for debugging.">
<polygon fill="none" stroke="black" points="1349.21,-235.5 1349.21,-254.5 1452.21,-254.5 1452.21,-235.5 1349.21,-235.5"/>
<text text-anchor="middle" x="1400.71" y="-242.5" font-family="Helvetica,sans-Serif" font-size="10.00">log_container.hpp</text>
</a>
</g>
</g>
<!-- Node2&#45;&gt;Node27 -->
<g id="edge47" class="edge">
<title>Node2&#45;&gt;Node27</title>
<path fill="none" stroke="midnightblue" d="M777.86,-296.05C898.02,-286.39 1206.54,-261.6 1338.89,-250.97"/>
<polygon fill="midnightblue" stroke="midnightblue" points="1339.19,-254.46 1348.87,-250.17 1338.63,-247.48 1339.19,-254.46"/>
</g>
<!-- Node29 -->
<g id="node29" class="node">
<title>Node29</title>
<g id="a_node29"><a xlink:href="status__led_8hpp.html" target="_top" xlink:title="RGB Status LED extension header file.">
<polygon fill="none" stroke="black" points="1470.71,-235.5 1470.71,-254.5 1558.71,-254.5 1558.71,-235.5 1470.71,-235.5"/>
<text text-anchor="middle" x="1514.71" y="-242.5" font-family="Helvetica,sans-Serif" font-size="10.00">status_led.hpp</text>
</a>
</g>
</g>
<!-- Node2&#45;&gt;Node29 -->
<g id="edge50" class="edge">
<title>Node2&#45;&gt;Node29</title>
<path fill="none" stroke="midnightblue" d="M777.77,-298.8C894.37,-295.56 1197.41,-284.84 1460.39,-255.03"/>
<polygon fill="midnightblue" stroke="midnightblue" points="1460.98,-258.48 1470.52,-253.87 1460.18,-251.53 1460.98,-258.48"/>
</g>
<!-- Node5&#45;&gt;Node3 -->
<g id="edge6" class="edge">
<title>Node5&#45;&gt;Node3</title>
<path fill="none" stroke="midnightblue" d="M365.97,-183.97C337.15,-178.93 296.81,-167.72 270.71,-143 254.51,-127.65 246.53,-102.62 242.77,-85.51"/>
<polygon fill="midnightblue" stroke="midnightblue" points="246.19,-84.75 240.87,-75.59 239.32,-86.07 246.19,-84.75"/>
</g>
<!-- Node5&#45;&gt;Node4 -->
<g id="edge8" class="edge">
<title>Node5&#45;&gt;Node4</title>
<path fill="none" stroke="midnightblue" d="M366.02,-179.89C334.57,-172.04 287.23,-159.01 247.71,-143 220.26,-131.88 215.1,-125.46 188.71,-112 167.25,-101.06 142.77,-88.97 124.6,-80.08"/>
<polygon fill="midnightblue" stroke="midnightblue" points="125.74,-76.74 115.22,-75.5 122.67,-83.03 125.74,-76.74"/>
</g>
<!-- Node5&#45;&gt;Node5 -->
<g id="edge9" class="edge">
<title>Node5&#45;&gt;Node5</title>
<path fill="none" stroke="midnightblue" d="M423.11,-198.53C438.32,-201.31 453.21,-198.13 453.21,-189 453.21,-181.94 444.3,-178.44 433.23,-178.5"/>
<polygon fill="midnightblue" stroke="midnightblue" points="432.72,-175.03 423.11,-179.47 433.39,-182 432.72,-175.03"/>
</g>
<!-- Node6 -->
<g id="node6" class="node">
<title>Node6</title>
<g id="a_node6"><a xlink:title=" ">
<polygon fill="none" stroke="#bfbfbf" points="980.71,-56.5 980.71,-75.5 1028.71,-75.5 1028.71,-56.5 980.71,-56.5"/>
<text text-anchor="middle" x="1004.71" y="-63.5" font-family="Helvetica,sans-Serif" font-size="10.00">mutex</text>
</a>
</g>
</g>
<!-- Node5&#45;&gt;Node6 -->
<g id="edge5" class="edge">
<title>Node5&#45;&gt;Node6</title>
<path fill="none" stroke="midnightblue" d="M430.11,-179.48C454.84,-171.71 490.71,-159.01 519.71,-143 539.71,-131.96 539.45,-120.35 560.71,-112 635.37,-82.68 879.71,-71.35 970.41,-68.09"/>
<polygon fill="midnightblue" stroke="midnightblue" points="970.57,-71.59 980.44,-67.74 970.33,-64.59 970.57,-71.59"/>
</g>
<!-- Node7 -->
<g id="node7" class="node">
<title>Node7</title>
<g id="a_node7"><a xlink:title=" ">
<polygon fill="none" stroke="#bfbfbf" points="37.21,-118 37.21,-137 180.21,-137 180.21,-118 37.21,-118"/>
<text text-anchor="middle" x="108.71" y="-125" font-family="Helvetica,sans-Serif" font-size="10.00">BoosterSeat/numbers.hpp</text>
</a>
</g>
</g>
<!-- Node5&#45;&gt;Node7 -->
<g id="edge7" class="edge">
<title>Node5&#45;&gt;Node7</title>
<path fill="none" stroke="midnightblue" d="M366.07,-180.94C315.23,-170.58 220.04,-151.18 160.76,-139.11"/>
<polygon fill="midnightblue" stroke="midnightblue" points="161.35,-135.65 150.85,-137.09 159.95,-142.51 161.35,-135.65"/>
</g>
<!-- Node8 -->
<g id="node8" class="node">
<title>Node8</title>
<g id="a_node8"><a xlink:href="json_8hpp.html" target="_top" xlink:title="Simple wrapper around nlohmann/json.hpp to provide a common interface.">
<polygon fill="none" stroke="black" points="416.71,-118 416.71,-137 474.71,-137 474.71,-118 416.71,-118"/>
<text text-anchor="middle" x="445.71" y="-125" font-family="Helvetica,sans-Serif" font-size="10.00">json.hpp</text>
</a>
</g>
</g>
<!-- Node5&#45;&gt;Node8 -->
<g id="edge10" class="edge">
<title>Node5&#45;&gt;Node8</title>
<path fill="none" stroke="midnightblue" d="M407.16,-179.48C413.91,-170.55 424.68,-156.31 433.13,-145.14"/>
<polygon fill="midnightblue" stroke="midnightblue" points="436.04,-147.1 439.28,-137.01 430.45,-142.87 436.04,-147.1"/>
</g>
<!-- Node11 -->
<g id="node11" class="node">
<title>Node11</title>
<g id="a_node11"><a xlink:href="node_8hpp.html" target="_top" xlink:title="Contains structures that are used to identify components of the flight system.">
<polygon fill="none" stroke="black" points="586.71,-56.5 586.71,-75.5 648.71,-75.5 648.71,-56.5 586.71,-56.5"/>
<text text-anchor="middle" x="617.71" y="-63.5" font-family="Helvetica,sans-Serif" font-size="10.00">node.hpp</text>
</a>
</g>
</g>
<!-- Node5&#45;&gt;Node11 -->
<g id="edge13" class="edge">
<title>Node5&#45;&gt;Node11</title>
<path fill="none" stroke="midnightblue" d="M417.93,-179.48C434.97,-170.86 461.64,-156.86 483.71,-143 503.67,-130.47 506.53,-124.15 526.71,-112 546.81,-99.9 570.6,-88.22 588.82,-79.79"/>
<polygon fill="midnightblue" stroke="midnightblue" points="590.4,-82.92 598.05,-75.58 587.5,-76.55 590.4,-82.92"/>
</g>
<!-- Node14 -->
<g id="node14" class="node">
<title>Node14</title>
<g id="a_node14"><a xlink:href="positional_8hpp.html" target="_top" xlink:title="Positional data for the flight system (gps/imu data)">
<polygon fill="none" stroke="black" points="312.71,-118 312.71,-137 398.71,-137 398.71,-118 312.71,-118"/>
<text text-anchor="middle" x="355.71" y="-125" font-family="Helvetica,sans-Serif" font-size="10.00">positional.hpp</text>
</a>
</g>
</g>
<!-- Node5&#45;&gt;Node14 -->
<g id="edge16" class="edge">
<title>Node5&#45;&gt;Node14</title>
<path fill="none" stroke="midnightblue" d="M394.27,-179.48C387.52,-170.55 376.74,-156.31 368.3,-145.14"/>
<polygon fill="midnightblue" stroke="midnightblue" points="370.97,-142.87 362.15,-137.01 365.39,-147.1 370.97,-142.87"/>
</g>
<!-- Node9 -->
<g id="node9" class="node">
<title>Node9</title>
<g id="a_node9"><a xlink:title=" ">
<polygon fill="none" stroke="#bfbfbf" points="396.71,-56.5 396.71,-75.5 506.71,-75.5 506.71,-56.5 396.71,-56.5"/>
<text text-anchor="middle" x="451.71" y="-63.5" font-family="Helvetica,sans-Serif" font-size="10.00">nlohmann/json.hpp</text>
</a>
</g>
</g>
<!-- Node8&#45;&gt;Node9 -->
<g id="edge11" class="edge">
<title>Node8&#45;&gt;Node9</title>
<path fill="none" stroke="midnightblue" d="M446.57,-117.98C447.42,-109.58 448.74,-96.48 449.83,-85.66"/>
<polygon fill="midnightblue" stroke="midnightblue" points="453.33,-85.81 450.86,-75.51 446.37,-85.11 453.33,-85.81"/>
</g>
<!-- Node10 -->
<g id="node10" class="node">
<title>Node10</title>
<g id="a_node10"><a xlink:title=" ">
<polygon fill="none" stroke="#bfbfbf" points="524.71,-56.5 524.71,-75.5 568.71,-75.5 568.71,-56.5 524.71,-56.5"/>
<text text-anchor="middle" x="546.71" y="-63.5" font-family="Helvetica,sans-Serif" font-size="10.00">string</text>
</a>
</g>
</g>
<!-- Node8&#45;&gt;Node10 -->
<g id="edge12" class="edge">
<title>Node8&#45;&gt;Node10</title>
<path fill="none" stroke="midnightblue" d="M460.18,-117.98C476.68,-108.25 503.89,-92.23 523.4,-80.74"/>
<polygon fill="midnightblue" stroke="midnightblue" points="525.43,-83.6 532.27,-75.51 521.88,-77.57 525.43,-83.6"/>
</g>
<!-- Node12 -->
<g id="node12" class="node">
<title>Node12</title>
<g id="a_node12"><a xlink:title=" ">
<polygon fill="none" stroke="#bfbfbf" points="417.71,-0.5 417.71,-19.5 467.71,-19.5 467.71,-0.5 417.71,-0.5"/>
<text text-anchor="middle" x="442.71" y="-7.5" font-family="Helvetica,sans-Serif" font-size="10.00">cstdint</text>
</a>
</g>
</g>
<!-- Node11&#45;&gt;Node12 -->
<g id="edge14" class="edge">
<title>Node11&#45;&gt;Node12</title>
<path fill="none" stroke="midnightblue" d="M589.98,-56.44C559.5,-47.04 510.48,-31.91 477.46,-21.72"/>
<polygon fill="midnightblue" stroke="midnightblue" points="478.35,-18.33 467.76,-18.73 476.29,-25.02 478.35,-18.33"/>
</g>
<!-- Node13 -->
<g id="node13" class="node">
<title>Node13</title>
<g id="a_node13"><a xlink:title=" ">
<polygon fill="none" stroke="#bfbfbf" points="541.71,-0.5 541.71,-19.5 579.71,-19.5 579.71,-0.5 541.71,-0.5"/>
<text text-anchor="middle" x="560.71" y="-7.5" font-family="Helvetica,sans-Serif" font-size="10.00">map</text>
</a>
</g>
</g>
<!-- Node11&#45;&gt;Node13 -->
<g id="edge15" class="edge">
<title>Node11&#45;&gt;Node13</title>
<path fill="none" stroke="midnightblue" d="M608.56,-56.32C600.21,-48.42 587.68,-36.55 577.54,-26.94"/>
<polygon fill="midnightblue" stroke="midnightblue" points="579.71,-24.17 570.04,-19.83 574.89,-29.25 579.71,-24.17"/>
</g>
<!-- Node14&#45;&gt;Node3 -->
<g id="edge21" class="edge">
<title>Node14&#45;&gt;Node3</title>
<path fill="none" stroke="midnightblue" d="M339.09,-117.98C319.8,-108.08 287.75,-91.64 265.28,-80.12"/>
<polygon fill="midnightblue" stroke="midnightblue" points="266.8,-76.96 256.3,-75.51 263.6,-83.19 266.8,-76.96"/>
</g>
<!-- Node14&#45;&gt;Node4 -->
<g id="edge22" class="edge">
<title>Node14&#45;&gt;Node4</title>
<path fill="none" stroke="midnightblue" d="M318.75,-117.98C272.86,-107.39 194.56,-89.34 144.53,-77.8"/>
<polygon fill="midnightblue" stroke="midnightblue" points="145.14,-74.35 134.61,-75.51 143.57,-81.17 145.14,-74.35"/>
</g>
<!-- Node14&#45;&gt;Node9 -->
<g id="edge20" class="edge">
<title>Node14&#45;&gt;Node9</title>
<path fill="none" stroke="midnightblue" d="M369.47,-117.98C385.08,-108.3 410.78,-92.37 429.3,-80.89"/>
<polygon fill="midnightblue" stroke="midnightblue" points="431.33,-83.75 437.98,-75.51 427.64,-77.8 431.33,-83.75"/>
</g>
<!-- Node14&#45;&gt;Node10 -->
<g id="edge19" class="edge">
<title>Node14&#45;&gt;Node10</title>
<path fill="none" stroke="midnightblue" d="M383.08,-117.98C417.87,-107.14 477.84,-88.46 514.71,-76.97"/>
<polygon fill="midnightblue" stroke="midnightblue" points="515.95,-80.25 524.46,-73.93 513.87,-73.57 515.95,-80.25"/>
</g>
<!-- Node14&#45;&gt;Node12 -->
<g id="edge17" class="edge">
<title>Node14&#45;&gt;Node12</title>
<path fill="none" stroke="midnightblue" d="M352.87,-117.93C348.74,-103.84 342.83,-75.42 354.71,-56 366.31,-37.05 388.67,-25.76 407.95,-19.23"/>
<polygon fill="midnightblue" stroke="midnightblue" points="409.16,-22.52 417.68,-16.23 407.1,-15.83 409.16,-22.52"/>
</g>
<!-- Node14&#45;&gt;Node13 -->
<g id="edge18" class="edge">
<title>Node14&#45;&gt;Node13</title>
<path fill="none" stroke="midnightblue" d="M357.2,-117.66C360.18,-102.67 368.38,-72.27 387.71,-56 409.38,-37.77 488.04,-22.67 531.45,-15.49"/>
<polygon fill="midnightblue" stroke="midnightblue" points="532.1,-18.93 541.41,-13.88 530.98,-12.02 532.1,-18.93"/>
</g>
<!-- Node15&#45;&gt;Node3 -->
<g id="edge24" class="edge">
<title>Node15&#45;&gt;Node3</title>
<path fill="none" stroke="midnightblue" d="M719.1,-241.13C562.77,-231.23 72.58,-196.15 27.71,-143 18.83,-132.47 19.04,-122.71 27.71,-112 36.92,-100.63 113.17,-86.47 171.61,-77.1"/>
<polygon fill="midnightblue" stroke="midnightblue" points="172.23,-80.55 181.56,-75.53 171.13,-73.64 172.23,-80.55"/>
</g>
<!-- Node15&#45;&gt;Node16 -->
<g id="edge25" class="edge">
<title>Node15&#45;&gt;Node16</title>
<path fill="none" stroke="midnightblue" d="M754.5,-235.32C742.94,-227.11 725.34,-214.6 711.55,-204.81"/>
<polygon fill="midnightblue" stroke="midnightblue" points="713.33,-201.77 703.15,-198.83 709.27,-207.48 713.33,-201.77"/>
</g>
<!-- Node18 -->
<g id="node18" class="node">
<title>Node18</title>
<g id="a_node18"><a xlink:href="giraffe__diagnostic__ids_8hpp.html" target="_top" xlink:title=" ">
<polygon fill="none" stroke="black" points="718.71,-112.5 718.71,-142.5 822.71,-142.5 822.71,-112.5 718.71,-112.5"/>
<text text-anchor="start" x="726.71" y="-130.5" font-family="Helvetica,sans-Serif" font-size="10.00">giraffe_diagnostic</text>
<text text-anchor="middle" x="770.71" y="-119.5" font-family="Helvetica,sans-Serif" font-size="10.00">_ids.hpp</text>
</a>
</g>
</g>
<!-- Node15&#45;&gt;Node18 -->
<g id="edge28" class="edge">
<title>Node15&#45;&gt;Node18</title>
<path fill="none" stroke="midnightblue" d="M767.01,-235.32C767.62,-217.97 768.98,-178.46 769.88,-152.66"/>
<polygon fill="midnightblue" stroke="midnightblue" points="773.38,-152.66 770.23,-142.55 766.38,-152.42 773.38,-152.66"/>
</g>
<!-- Node15&#45;&gt;Node19 -->
<g id="edge29" class="edge">
<title>Node15&#45;&gt;Node19</title>
<path fill="none" stroke="midnightblue" d="M790.64,-235.44C815.93,-226.4 856.02,-212.06 884.39,-201.92"/>
<polygon fill="midnightblue" stroke="midnightblue" points="885.66,-205.18 893.9,-198.52 883.3,-198.59 885.66,-205.18"/>
</g>
<!-- Node16&#45;&gt;Node6 -->
<g id="edge26" class="edge">
<title>Node16&#45;&gt;Node6</title>
<path fill="none" stroke="midnightblue" d="M690.06,-179.42C689.37,-163.54 690.41,-129.58 709.71,-112 747.34,-77.75 900.89,-69.56 970.33,-67.61"/>
<polygon fill="midnightblue" stroke="midnightblue" points="970.42,-71.11 980.33,-67.36 970.24,-64.11 970.42,-71.11"/>
</g>
<!-- Node17 -->
<g id="node17" class="node">
<title>Node17</title>
<g id="a_node17"><a xlink:title=" ">
<polygon fill="none" stroke="#bfbfbf" points="569.21,-118 569.21,-137 662.21,-137 662.21,-118 569.21,-118"/>
<text text-anchor="middle" x="615.71" y="-125" font-family="Helvetica,sans-Serif" font-size="10.00">unordered_map</text>
</a>
</g>
</g>
<!-- Node16&#45;&gt;Node17 -->
<g id="edge27" class="edge">
<title>Node16&#45;&gt;Node17</title>
<path fill="none" stroke="midnightblue" d="M679.97,-179.48C668.16,-170.11 648.97,-154.88 634.63,-143.51"/>
<polygon fill="midnightblue" stroke="midnightblue" points="636.45,-140.48 626.44,-137.01 632.1,-145.97 636.45,-140.48"/>
</g>
<!-- Node19&#45;&gt;Node3 -->
<g id="edge35" class="edge">
<title>Node19&#45;&gt;Node3</title>
<path fill="none" stroke="midnightblue" d="M878.86,-185.98C747.89,-179.08 329.39,-156.11 303.71,-143 290.52,-136.27 266.24,-104.38 251.67,-84.1"/>
<polygon fill="midnightblue" stroke="midnightblue" points="254.38,-81.87 245.74,-75.74 248.67,-85.92 254.38,-81.87"/>
</g>
<!-- Node19&#45;&gt;Node6 -->
<g id="edge32" class="edge">
<title>Node19&#45;&gt;Node6</title>
<path fill="none" stroke="midnightblue" d="M938.3,-179.41C953.62,-171.97 973.86,-159.76 985.71,-143 997.71,-126.04 1002.16,-102.26 1003.79,-85.84"/>
<polygon fill="midnightblue" stroke="midnightblue" points="1007.28,-86.05 1004.53,-75.82 1000.3,-85.53 1007.28,-86.05"/>
</g>
<!-- Node19&#45;&gt;Node10 -->
<g id="edge34" class="edge">
<title>Node19&#45;&gt;Node10</title>
<path fill="none" stroke="midnightblue" d="M907.02,-179.19C896.22,-170.23 879.12,-155.87 864.71,-143 849.71,-129.59 849.86,-120.71 831.71,-112 731.83,-64.06 691.49,-97.91 578.99,-75.94"/>
<polygon fill="midnightblue" stroke="midnightblue" points="579.47,-72.46 568.97,-73.87 578.06,-79.32 579.47,-72.46"/>
</g>
<!-- Node19&#45;&gt;Node11 -->
<g id="edge44" class="edge">
<title>Node19&#45;&gt;Node11</title>
<path fill="none" stroke="midnightblue" d="M914.3,-179.25C907.52,-163.1 890.7,-128.69 864.71,-112 831.26,-90.51 720.04,-76.79 658.88,-70.69"/>
<polygon fill="midnightblue" stroke="midnightblue" points="659.09,-67.19 648.8,-69.7 658.41,-74.16 659.09,-67.19"/>
</g>
<!-- Node19&#45;&gt;Node14 -->
<g id="edge45" class="edge">
<title>Node19&#45;&gt;Node14</title>
<path fill="none" stroke="midnightblue" d="M879.13,-185.52C776.48,-178.77 498.33,-159.49 407.71,-143 402.84,-142.11 397.76,-140.98 392.78,-139.73"/>
<polygon fill="midnightblue" stroke="midnightblue" points="393.32,-136.25 382.75,-137.05 391.51,-143.01 393.32,-136.25"/>
</g>
<!-- Node19&#45;&gt;Node18 -->
<g id="edge43" class="edge">
<title>Node19&#45;&gt;Node18</title>
<path fill="none" stroke="midnightblue" d="M896.65,-179.48C875.35,-170.85 841.78,-157.26 814.65,-146.29"/>
<polygon fill="midnightblue" stroke="midnightblue" points="815.94,-143.03 805.36,-142.52 813.32,-149.52 815.94,-143.03"/>
</g>
<!-- Node20 -->
<g id="node20" class="node">
<title>Node20</title>
<g id="a_node20"><a xlink:title=" ">
<polygon fill="none" stroke="#bfbfbf" points="1483.71,-118 1483.71,-137 1533.71,-137 1533.71,-118 1483.71,-118"/>
<text text-anchor="middle" x="1508.71" y="-125" font-family="Helvetica,sans-Serif" font-size="10.00">atomic</text>
</a>
</g>
</g>
<!-- Node19&#45;&gt;Node20 -->
<g id="edge30" class="edge">
<title>Node19&#45;&gt;Node20</title>
<path fill="none" stroke="midnightblue" d="M956.44,-187.75C1046.28,-186.54 1275.46,-179.76 1462.71,-143 1466.87,-142.18 1471.19,-141.12 1475.43,-139.95"/>
<polygon fill="midnightblue" stroke="midnightblue" points="1476.52,-143.27 1485.1,-137.05 1474.52,-136.57 1476.52,-143.27"/>
</g>
<!-- Node21 -->
<g id="node21" class="node">
<title>Node21</title>
<g id="a_node21"><a xlink:title=" ">
<polygon fill="none" stroke="#bfbfbf" points="916.71,-118 916.71,-137 976.71,-137 976.71,-118 916.71,-118"/>
<text text-anchor="middle" x="946.71" y="-125" font-family="Helvetica,sans-Serif" font-size="10.00">iostream</text>
</a>
</g>
</g>
<!-- Node19&#45;&gt;Node21 -->
<g id="edge31" class="edge">
<title>Node19&#45;&gt;Node21</title>
<path fill="none" stroke="midnightblue" d="M921.87,-179.48C926.09,-170.82 932.75,-157.15 938.11,-146.15"/>
<polygon fill="midnightblue" stroke="midnightblue" points="941.33,-147.53 942.57,-137.01 935.04,-144.46 941.33,-147.53"/>
</g>
<!-- Node22 -->
<g id="node22" class="node">
<title>Node22</title>
<g id="a_node22"><a xlink:title=" ">
<polygon fill="none" stroke="#bfbfbf" points="1418.21,-56.5 1418.21,-75.5 1465.21,-75.5 1465.21,-56.5 1418.21,-56.5"/>
<text text-anchor="middle" x="1441.71" y="-63.5" font-family="Helvetica,sans-Serif" font-size="10.00">queue</text>
</a>
</g>
</g>
<!-- Node19&#45;&gt;Node22 -->
<g id="edge33" class="edge">
<title>Node19&#45;&gt;Node22</title>
<path fill="none" stroke="midnightblue" d="M956.55,-188.55C1056.29,-189.29 1318.76,-186.9 1391.71,-143 1413.43,-129.93 1427.57,-103.37 1435.1,-85.38"/>
<polygon fill="midnightblue" stroke="midnightblue" points="1438.41,-86.53 1438.77,-75.94 1431.88,-83.99 1438.41,-86.53"/>
</g>
<!-- Node23 -->
<g id="node23" class="node">
<title>Node23</title>
<g id="a_node23"><a xlink:title=" ">
<polygon fill="none" stroke="#bfbfbf" points="1032.71,-118 1032.71,-137 1180.71,-137 1180.71,-118 1032.71,-118"/>
<text text-anchor="middle" x="1106.71" y="-125" font-family="Helvetica,sans-Serif" font-size="10.00">BoosterSeat/exception.hpp</text>
</a>
</g>
</g>
<!-- Node19&#45;&gt;Node23 -->
<g id="edge36" class="edge">
<title>Node19&#45;&gt;Node23</title>
<path fill="none" stroke="midnightblue" d="M944.79,-179.48C977.63,-169.14 1033.14,-151.66 1069.86,-140.1"/>
<polygon fill="midnightblue" stroke="midnightblue" points="1071.2,-143.35 1079.69,-137.01 1069.1,-136.67 1071.2,-143.35"/>
</g>
<!-- Node24 -->
<g id="node24" class="node">
<title>Node24</title>
<g id="a_node24"><a xlink:href="command_8hpp.html" target="_top" xlink:title="The command/queue system for the flight system.">
<polygon fill="none" stroke="black" points="1296.71,-118 1296.71,-137 1382.71,-137 1382.71,-118 1296.71,-118"/>
<text text-anchor="middle" x="1339.71" y="-125" font-family="Helvetica,sans-Serif" font-size="10.00">command.hpp</text>
</a>
</g>
</g>
<!-- Node19&#45;&gt;Node24 -->
<g id="edge37" class="edge">
<title>Node19&#45;&gt;Node24</title>
<path fill="none" stroke="midnightblue" d="M956.37,-185.23C1024.02,-179.96 1168.08,-166.81 1287.71,-143 1292.46,-142.05 1297.41,-140.9 1302.29,-139.66"/>
<polygon fill="midnightblue" stroke="midnightblue" points="1303.35,-143 1312.1,-137.03 1301.54,-136.24 1303.35,-143"/>
</g>
<!-- Node26 -->
<g id="node26" class="node">
<title>Node26</title>
<g id="a_node26"><a xlink:href="data__ids_8hpp.html" target="_top" xlink:title=" ">
<polygon fill="none" stroke="black" points="1199.21,-118 1199.21,-137 1278.21,-137 1278.21,-118 1199.21,-118"/>
<text text-anchor="middle" x="1238.71" y="-125" font-family="Helvetica,sans-Serif" font-size="10.00">data_ids.hpp</text>
</a>
</g>
</g>
<!-- Node19&#45;&gt;Node26 -->
<g id="edge42" class="edge">
<title>Node19&#45;&gt;Node26</title>
<path fill="none" stroke="midnightblue" d="M956.3,-183.15C1009.28,-176.14 1107.38,-161.92 1189.71,-143 1193.85,-142.05 1198.15,-140.95 1202.41,-139.79"/>
<polygon fill="midnightblue" stroke="midnightblue" points="1203.51,-143.11 1212.17,-137.01 1201.59,-136.38 1203.51,-143.11"/>
</g>
<!-- Node24&#45;&gt;Node6 -->
<g id="edge38" class="edge">
<title>Node24&#45;&gt;Node6</title>
<path fill="none" stroke="midnightblue" d="M1311.25,-117.93C1303.65,-115.82 1295.41,-113.68 1287.71,-112 1198.63,-92.56 1092.04,-77.89 1038.68,-71.13"/>
<polygon fill="midnightblue" stroke="midnightblue" points="1039.1,-67.65 1028.74,-69.88 1038.23,-74.6 1039.1,-67.65"/>
</g>
<!-- Node24&#45;&gt;Node11 -->
<g id="edge41" class="edge">
<title>Node24&#45;&gt;Node11</title>
<path fill="none" stroke="midnightblue" d="M1313.23,-117.99C1305.12,-115.69 1296.12,-113.44 1287.71,-112 1052.47,-71.74 765.01,-67.09 659.28,-66.85"/>
<polygon fill="midnightblue" stroke="midnightblue" points="659.04,-63.35 649.04,-66.84 659.03,-70.35 659.04,-63.35"/>
</g>
<!-- Node24&#45;&gt;Node22 -->
<g id="edge39" class="edge">
<title>Node24&#45;&gt;Node22</title>
<path fill="none" stroke="midnightblue" d="M1354.33,-117.98C1371.07,-108.21 1398.72,-92.08 1418.43,-80.58"/>
<polygon fill="midnightblue" stroke="midnightblue" points="1420.25,-83.57 1427.13,-75.51 1416.73,-77.52 1420.25,-83.57"/>
</g>
<!-- Node25 -->
<g id="node25" class="node">
<title>Node25</title>
<g id="a_node25"><a xlink:href="command__ids_8hpp.html" target="_top" xlink:title=" ">
<polygon fill="none" stroke="black" points="1286.71,-56.5 1286.71,-75.5 1392.71,-75.5 1392.71,-56.5 1286.71,-56.5"/>
<text text-anchor="middle" x="1339.71" y="-63.5" font-family="Helvetica,sans-Serif" font-size="10.00">command_ids.hpp</text>
</a>
</g>
</g>
<!-- Node24&#45;&gt;Node25 -->
<g id="edge40" class="edge">
<title>Node24&#45;&gt;Node25</title>
<path fill="none" stroke="midnightblue" d="M1339.71,-117.98C1339.71,-109.58 1339.71,-96.48 1339.71,-85.66"/>
<polygon fill="midnightblue" stroke="midnightblue" points="1343.21,-85.51 1339.71,-75.51 1336.21,-85.51 1343.21,-85.51"/>
</g>
<!-- Node27&#45;&gt;Node6 -->
<g id="edge49" class="edge">
<title>Node27&#45;&gt;Node6</title>
<path fill="none" stroke="midnightblue" d="M1403.36,-235.47C1410.02,-212.11 1424.68,-146.58 1391.71,-112 1367.55,-86.66 1129.25,-72.87 1039.06,-68.53"/>
<polygon fill="midnightblue" stroke="midnightblue" points="1038.97,-65.02 1028.82,-68.04 1038.64,-72.01 1038.97,-65.02"/>
</g>
<!-- Node28 -->
<g id="node28" class="node">
<title>Node28</title>
<g id="a_node28"><a xlink:title=" ">
<polygon fill="none" stroke="#bfbfbf" points="1439.21,-179.5 1439.21,-198.5 1486.21,-198.5 1486.21,-179.5 1439.21,-179.5"/>
<text text-anchor="middle" x="1462.71" y="-186.5" font-family="Helvetica,sans-Serif" font-size="10.00">deque</text>
</a>
</g>
</g>
<!-- Node27&#45;&gt;Node28 -->
<g id="edge48" class="edge">
<title>Node27&#45;&gt;Node28</title>
<path fill="none" stroke="midnightblue" d="M1410.68,-235.32C1419.84,-227.34 1433.65,-215.31 1444.74,-205.65"/>
<polygon fill="midnightblue" stroke="midnightblue" points="1447.33,-208.04 1452.57,-198.83 1442.73,-202.76 1447.33,-208.04"/>
</g>
<!-- Node29&#45;&gt;Node20 -->
<g id="edge51" class="edge">
<title>Node29&#45;&gt;Node20</title>
<path fill="none" stroke="midnightblue" d="M1514.26,-235.32C1513.3,-216.76 1511.02,-172.84 1509.7,-147.47"/>
<polygon fill="midnightblue" stroke="midnightblue" points="1513.18,-147.09 1509.17,-137.28 1506.19,-147.45 1513.18,-147.09"/>
</g>
</g>
</svg>
