<?xml version="1.0" encoding="UTF-8" standalone="no"?>
<!DOCTYPE svg PUBLIC "-//W3C//DTD SVG 1.1//EN"
 "http://www.w3.org/Graphics/SVG/1.1/DTD/svg11.dtd">
<!-- Generated by graphviz version 2.43.0 (0)
 -->
<!-- Title: cfg_extensions.hpp Pages: 1 -->
<svg width="1310pt" height="252pt"
 viewBox="0.00 0.00 1309.50 252.00" xmlns="http://www.w3.org/2000/svg" xmlns:xlink="http://www.w3.org/1999/xlink">
<g id="graph0" class="graph" transform="scale(1 1) rotate(0) translate(4 248)">
<title>cfg_extensions.hpp</title>
<!-- Node1 -->
<g id="node1" class="node">
<title>Node1</title>
<g id="a_node1"><a xlink:title="The header file for the extensions section of the configuration.">
<polygon fill="#bfbfbf" stroke="black" points="564.5,-224.5 564.5,-243.5 675.5,-243.5 675.5,-224.5 564.5,-224.5"/>
<text text-anchor="middle" x="620" y="-231.5" font-family="Helvetica,sans-Serif" font-size="10.00">cfg_extensions.hpp</text>
</a>
</g>
</g>
<!-- Node2 -->
<g id="node2" class="node">
<title>Node2</title>
<g id="a_node2"><a xlink:href="cfg__extensions_8cpp.html" target="_top" xlink:title="Implements the extensions section of the configuration.">
<polygon fill="none" stroke="black" points="435,-168.5 435,-187.5 545,-187.5 545,-168.5 435,-168.5"/>
<text text-anchor="middle" x="490" y="-175.5" font-family="Helvetica,sans-Serif" font-size="10.00">cfg_extensions.cpp</text>
</a>
</g>
</g>
<!-- Node1&#45;&gt;Node2 -->
<g id="edge1" class="edge">
<title>Node1&#45;&gt;Node2</title>
<path fill="none" stroke="midnightblue" d="M589.91,-220.5C565.54,-210.38 531.86,-196.39 510.5,-187.52"/>
<polygon fill="midnightblue" stroke="midnightblue" points="588.82,-223.84 599.4,-224.44 591.51,-217.38 588.82,-223.84"/>
</g>
<!-- Node3 -->
<g id="node3" class="node">
<title>Node3</title>
<g id="a_node3"><a xlink:href="extension__base_8hpp.html" target="_top" xlink:title="The new implementation of the extension system.">
<polygon fill="none" stroke="black" points="563,-168.5 563,-187.5 677,-187.5 677,-168.5 563,-168.5"/>
<text text-anchor="middle" x="620" y="-175.5" font-family="Helvetica,sans-Serif" font-size="10.00">extension_base.hpp</text>
</a>
</g>
</g>
<!-- Node1&#45;&gt;Node3 -->
<g id="edge2" class="edge">
<title>Node1&#45;&gt;Node3</title>
<path fill="none" stroke="midnightblue" d="M620,-213.8C620,-204.91 620,-194.78 620,-187.75"/>
<polygon fill="midnightblue" stroke="midnightblue" points="616.5,-214.08 620,-224.08 623.5,-214.08 616.5,-214.08"/>
</g>
<!-- Node31 -->
<g id="node31" class="node">
<title>Node31</title>
<g id="a_node31"><a xlink:href="preconfigured__extensions_8hpp.html" target="_top" xlink:title="This file contains preconfigured extension metadata.">
<polygon fill="none" stroke="black" points="695.5,-168.5 695.5,-187.5 858.5,-187.5 858.5,-168.5 695.5,-168.5"/>
<text text-anchor="middle" x="777" y="-175.5" font-family="Helvetica,sans-Serif" font-size="10.00">preconfigured_extensions.hpp</text>
</a>
</g>
</g>
<!-- Node1&#45;&gt;Node31 -->
<g id="edge44" class="edge">
<title>Node1&#45;&gt;Node31</title>
<path fill="none" stroke="midnightblue" d="M654.39,-221.17C683.95,-211 725.87,-196.59 752.24,-187.52"/>
<polygon fill="midnightblue" stroke="midnightblue" points="653.2,-217.88 644.88,-224.44 655.47,-224.5 653.2,-217.88"/>
</g>
<!-- Node4 -->
<g id="node4" class="node">
<title>Node4</title>
<g id="a_node4"><a xlink:href="adc__extension__base_8hpp.html" target="_top" xlink:title="Generic ADC Extension Wrapper.">
<polygon fill="none" stroke="black" points="151.5,-112.5 151.5,-131.5 288.5,-131.5 288.5,-112.5 151.5,-112.5"/>
<text text-anchor="middle" x="220" y="-119.5" font-family="Helvetica,sans-Serif" font-size="10.00">adc_extension_base.hpp</text>
</a>
</g>
</g>
<!-- Node3&#45;&gt;Node4 -->
<g id="edge3" class="edge">
<title>Node3&#45;&gt;Node4</title>
<path fill="none" stroke="midnightblue" d="M552.79,-167.84C452.79,-154.29 348.43,-140.25 283.41,-131.51"/>
<polygon fill="midnightblue" stroke="midnightblue" points="552.38,-171.31 562.76,-169.19 553.32,-164.38 552.38,-171.31"/>
</g>
<!-- Node9 -->
<g id="node9" class="node">
<title>Node9</title>
<g id="a_node9"><a xlink:href="bme280_8hpp.html" target="_top" xlink:title="The BME280 sensor extension.">
<polygon fill="none" stroke="black" points="193.5,-56.5 193.5,-75.5 270.5,-75.5 270.5,-56.5 193.5,-56.5"/>
<text text-anchor="middle" x="232" y="-63.5" font-family="Helvetica,sans-Serif" font-size="10.00">bme280.hpp</text>
</a>
</g>
</g>
<!-- Node3&#45;&gt;Node9 -->
<g id="edge8" class="edge">
<title>Node3&#45;&gt;Node9</title>
<path fill="none" stroke="midnightblue" d="M552.39,-168.16C475.06,-163.1 171.47,-164.16 142,-132 119.6,-107.56 167.93,-86.62 202.05,-75.51"/>
<polygon fill="midnightblue" stroke="midnightblue" points="552.53,-171.68 562.78,-169.03 553.11,-164.7 552.53,-171.68"/>
</g>
<!-- Node11 -->
<g id="node11" class="node">
<title>Node11</title>
<g id="a_node11"><a xlink:href="bmi088_8hpp.html" target="_top" xlink:title="Extension for the Bosch BMI088 IMU.">
<polygon fill="none" stroke="black" points="445,-56.5 445,-75.5 519,-75.5 519,-56.5 445,-56.5"/>
<text text-anchor="middle" x="482" y="-63.5" font-family="Helvetica,sans-Serif" font-size="10.00">bmi088.hpp</text>
</a>
</g>
</g>
<!-- Node3&#45;&gt;Node11 -->
<g id="edge12" class="edge">
<title>Node3&#45;&gt;Node11</title>
<path fill="none" stroke="midnightblue" d="M558.89,-165.58C538.06,-158.92 516.22,-148.44 501,-132 486.3,-116.12 482.92,-89.49 482.18,-75.77"/>
<polygon fill="midnightblue" stroke="midnightblue" points="558.09,-168.99 568.68,-168.46 560.07,-162.28 558.09,-168.99"/>
</g>
<!-- Node13 -->
<g id="node13" class="node">
<title>Node13</title>
<g id="a_node13"><a xlink:href="ds18b20_8hpp.html" target="_top" xlink:title="DS18B20 extension header file.">
<polygon fill="none" stroke="black" points="79.5,-56.5 79.5,-75.5 158.5,-75.5 158.5,-56.5 79.5,-56.5"/>
<text text-anchor="middle" x="119" y="-63.5" font-family="Helvetica,sans-Serif" font-size="10.00">ds18b20.hpp</text>
</a>
</g>
</g>
<!-- Node3&#45;&gt;Node13 -->
<g id="edge16" class="edge">
<title>Node3&#45;&gt;Node13</title>
<path fill="none" stroke="midnightblue" d="M552.7,-168.15C474.95,-162.77 166.51,-161.51 133,-132 116.89,-117.81 116.8,-89.93 117.95,-75.74"/>
<polygon fill="midnightblue" stroke="midnightblue" points="552.52,-171.65 562.78,-169.02 553.12,-164.68 552.52,-171.65"/>
</g>
<!-- Node15 -->
<g id="node15" class="node">
<title>Node15</title>
<g id="a_node15"><a xlink:href="extension__base_8cpp.html" target="_top" xlink:title="The new implementation of the extension system.">
<polygon fill="none" stroke="black" points="1025.5,-112.5 1025.5,-131.5 1138.5,-131.5 1138.5,-112.5 1025.5,-112.5"/>
<text text-anchor="middle" x="1082" y="-119.5" font-family="Helvetica,sans-Serif" font-size="10.00">extension_base.cpp</text>
</a>
</g>
</g>
<!-- Node3&#45;&gt;Node15 -->
<g id="edge20" class="edge">
<title>Node3&#45;&gt;Node15</title>
<path fill="none" stroke="midnightblue" d="M687.51,-167.84C834.16,-150.02 872.85,-149.57 1016,-132 1019.1,-131.62 1022.28,-131.22 1025.49,-130.81"/>
<polygon fill="midnightblue" stroke="midnightblue" points="686.73,-164.41 677.23,-169.1 687.58,-171.36 686.73,-164.41"/>
</g>
<!-- Node16 -->
<g id="node16" class="node">
<title>Node16</title>
<g id="a_node16"><a xlink:href="i2c__extension__adapter_8hpp.html" target="_top" xlink:title="Adapter for I2C Extensions.">
<polygon fill="none" stroke="black" points="306.5,-112.5 306.5,-131.5 453.5,-131.5 453.5,-112.5 306.5,-112.5"/>
<text text-anchor="middle" x="380" y="-119.5" font-family="Helvetica,sans-Serif" font-size="10.00">i2c_extension_adapter.hpp</text>
</a>
</g>
</g>
<!-- Node3&#45;&gt;Node16 -->
<g id="edge21" class="edge">
<title>Node3&#45;&gt;Node16</title>
<path fill="none" stroke="midnightblue" d="M572.08,-166.22C526.73,-156.01 459.56,-140.9 417.85,-131.52"/>
<polygon fill="midnightblue" stroke="midnightblue" points="571.45,-169.66 581.97,-168.44 572.98,-162.83 571.45,-169.66"/>
</g>
<!-- Node17 -->
<g id="node17" class="node">
<title>Node17</title>
<g id="a_node17"><a xlink:href="pi__camera_8hpp.html" target="_top" xlink:title="Raspberry Pi Camera Extension.">
<polygon fill="none" stroke="black" points="732.5,-112.5 732.5,-131.5 821.5,-131.5 821.5,-112.5 732.5,-112.5"/>
<text text-anchor="middle" x="777" y="-119.5" font-family="Helvetica,sans-Serif" font-size="10.00">pi_camera.hpp</text>
</a>
</g>
</g>
<!-- Node3&#45;&gt;Node17 -->
<g id="edge23" class="edge">
<title>Node3&#45;&gt;Node17</title>
<path fill="none" stroke="midnightblue" d="M654.39,-165.17C683.95,-155 725.87,-140.59 752.24,-131.52"/>
<polygon fill="midnightblue" stroke="midnightblue" points="653.2,-161.88 644.88,-168.44 655.47,-168.5 653.2,-161.88"/>
</g>
<!-- Node19 -->
<g id="node19" class="node">
<title>Node19</title>
<g id="a_node19"><a xlink:href="rgb__status__led_8hpp.html" target="_top" xlink:title=" ">
<polygon fill="none" stroke="black" points="637.5,-56.5 637.5,-75.5 746.5,-75.5 746.5,-56.5 637.5,-56.5"/>
<text text-anchor="middle" x="692" y="-63.5" font-family="Helvetica,sans-Serif" font-size="10.00">rgb_status_led.hpp</text>
</a>
</g>
</g>
<!-- Node3&#45;&gt;Node19 -->
<g id="edge26" class="edge">
<title>Node3&#45;&gt;Node19</title>
<path fill="none" stroke="midnightblue" d="M637.45,-161.45C645.92,-153.28 655.79,-142.74 663,-132 675.4,-113.53 684.7,-88.9 689.13,-75.9"/>
<polygon fill="midnightblue" stroke="midnightblue" points="634.82,-159.12 629.9,-168.5 639.6,-164.24 634.82,-159.12"/>
</g>
<!-- Node21 -->
<g id="node21" class="node">
<title>Node21</title>
<g id="a_node21"><a xlink:href="samm8q_8hpp.html" target="_top" xlink:title="SAM&#45;M8Q GPS extension (I2C).">
<polygon fill="none" stroke="black" points="539,-56.5 539,-75.5 619,-75.5 619,-56.5 539,-56.5"/>
<text text-anchor="middle" x="579" y="-63.5" font-family="Helvetica,sans-Serif" font-size="10.00">samm8q.hpp</text>
</a>
</g>
</g>
<!-- Node3&#45;&gt;Node21 -->
<g id="edge30" class="edge">
<title>Node3&#45;&gt;Node21</title>
<path fill="none" stroke="midnightblue" d="M635,-160.47C645.25,-147.08 655.54,-127.89 647,-112 637.62,-94.54 618.16,-82.72 602.45,-75.59"/>
<polygon fill="midnightblue" stroke="midnightblue" points="632.17,-158.41 628.48,-168.34 637.56,-162.87 632.17,-158.41"/>
</g>
<!-- Node23 -->
<g id="node23" class="node">
<title>Node23</title>
<g id="a_node23"><a xlink:href="extension__module_8hpp.html" target="_top" xlink:title="This is the header file for the new extension module.">
<polygon fill="none" stroke="black" points="510,-112.5 510,-131.5 638,-131.5 638,-112.5 510,-112.5"/>
<text text-anchor="middle" x="574" y="-119.5" font-family="Helvetica,sans-Serif" font-size="10.00">extension_module.hpp</text>
</a>
</g>
</g>
<!-- Node3&#45;&gt;Node23 -->
<g id="edge34" class="edge">
<title>Node3&#45;&gt;Node23</title>
<path fill="none" stroke="midnightblue" d="M605.89,-160.43C597.82,-150.97 588.04,-139.48 581.45,-131.75"/>
<polygon fill="midnightblue" stroke="midnightblue" points="603.25,-162.74 612.4,-168.08 608.58,-158.2 603.25,-162.74"/>
</g>
<!-- Node28 -->
<g id="node28" class="node">
<title>Node28</title>
<g id="a_node28"><a xlink:href="extension__test__framework_8hpp.html" target="_top" xlink:title="Basic helpers for unit testing extensions on the host.">
<polygon fill="none" stroke="black" points="839,-112.5 839,-131.5 1007,-131.5 1007,-112.5 839,-112.5"/>
<text text-anchor="middle" x="923" y="-119.5" font-family="Helvetica,sans-Serif" font-size="10.00">extension_test_framework.hpp</text>
</a>
</g>
</g>
<!-- Node3&#45;&gt;Node28 -->
<g id="edge40" class="edge">
<title>Node3&#45;&gt;Node28</title>
<path fill="none" stroke="midnightblue" d="M678,-166.66C735.26,-156.46 821.78,-141.04 875.21,-131.52"/>
<polygon fill="midnightblue" stroke="midnightblue" points="677.24,-163.24 668.01,-168.44 678.47,-170.13 677.24,-163.24"/>
</g>
<!-- Node30 -->
<g id="node30" class="node">
<title>Node30</title>
<g id="a_node30"><a xlink:href="simulated__extensions_8hpp.html" target="_top" xlink:title="This contains the simulated extensions for testing the flight system.">
<polygon fill="none" stroke="black" points="1156.5,-112.5 1156.5,-131.5 1301.5,-131.5 1301.5,-112.5 1156.5,-112.5"/>
<text text-anchor="middle" x="1229" y="-119.5" font-family="Helvetica,sans-Serif" font-size="10.00">simulated_extensions.hpp</text>
</a>
</g>
</g>
<!-- Node3&#45;&gt;Node30 -->
<g id="edge43" class="edge">
<title>Node3&#45;&gt;Node30</title>
<path fill="none" stroke="midnightblue" d="M687.41,-167.91C892.51,-146.24 946.26,-151.06 1148,-132 1150.68,-131.75 1153.4,-131.48 1156.15,-131.21"/>
<polygon fill="midnightblue" stroke="midnightblue" points="686.79,-164.45 677.21,-168.99 687.53,-171.41 686.79,-164.45"/>
</g>
<!-- Node5 -->
<g id="node5" class="node">
<title>Node5</title>
<g id="a_node5"><a xlink:href="mcp3021_8hpp.html" target="_top" xlink:title="MCP3021 I2C ADC Driver.">
<polygon fill="none" stroke="black" points="305.5,-56.5 305.5,-75.5 388.5,-75.5 388.5,-56.5 305.5,-56.5"/>
<text text-anchor="middle" x="347" y="-63.5" font-family="Helvetica,sans-Serif" font-size="10.00">mcp3021.hpp</text>
</a>
</g>
</g>
<!-- Node4&#45;&gt;Node5 -->
<g id="edge4" class="edge">
<title>Node4&#45;&gt;Node5</title>
<path fill="none" stroke="midnightblue" d="M249.39,-108.5C273.2,-98.38 306.11,-84.39 326.97,-75.52"/>
<polygon fill="midnightblue" stroke="midnightblue" points="247.96,-105.31 240.12,-112.44 250.7,-111.75 247.96,-105.31"/>
</g>
<!-- Node6 -->
<g id="node6" class="node">
<title>Node6</title>
<g id="a_node6"><a xlink:href="mcp3021_8cpp.html" target="_top" xlink:title="MCP3021 I2C ADC Driver.">
<polygon fill="none" stroke="black" points="192,-0.5 192,-19.5 274,-19.5 274,-0.5 192,-0.5"/>
<text text-anchor="middle" x="233" y="-7.5" font-family="Helvetica,sans-Serif" font-size="10.00">mcp3021.cpp</text>
</a>
</g>
</g>
<!-- Node5&#45;&gt;Node6 -->
<g id="edge5" class="edge">
<title>Node5&#45;&gt;Node6</title>
<path fill="none" stroke="midnightblue" d="M319.76,-52.1C298.46,-42.01 269.46,-28.27 250.98,-19.52"/>
<polygon fill="midnightblue" stroke="midnightblue" points="318.4,-55.33 328.94,-56.44 321.4,-49 318.4,-55.33"/>
</g>
<!-- Node7 -->
<g id="node7" class="node">
<title>Node7</title>
<g id="a_node7"><a xlink:href="extension__module_8cpp.html" target="_top" xlink:title="The implementation of the new extension module.">
<polygon fill="none" stroke="black" points="292.5,-0.5 292.5,-19.5 419.5,-19.5 419.5,-0.5 292.5,-0.5"/>
<text text-anchor="middle" x="356" y="-7.5" font-family="Helvetica,sans-Serif" font-size="10.00">extension_module.cpp</text>
</a>
</g>
</g>
<!-- Node5&#45;&gt;Node7 -->
<g id="edge6" class="edge">
<title>Node5&#45;&gt;Node7</title>
<path fill="none" stroke="midnightblue" d="M350.15,-46.1C351.64,-37.14 353.36,-26.86 354.54,-19.75"/>
<polygon fill="midnightblue" stroke="midnightblue" points="346.68,-45.64 348.49,-56.08 353.58,-46.79 346.68,-45.64"/>
</g>
<!-- Node8 -->
<g id="node8" class="node">
<title>Node8</title>
<g id="a_node8"><a xlink:href="test__extensions_8cpp.html" target="_top" xlink:title=" ">
<polygon fill="none" stroke="black" points="530,-0.5 530,-19.5 644,-19.5 644,-0.5 530,-0.5"/>
<text text-anchor="middle" x="587" y="-7.5" font-family="Helvetica,sans-Serif" font-size="10.00">test_extensions.cpp</text>
</a>
</g>
</g>
<!-- Node5&#45;&gt;Node8 -->
<g id="edge7" class="edge">
<title>Node5&#45;&gt;Node8</title>
<path fill="none" stroke="midnightblue" d="M394.92,-54.22C440.27,-44.01 507.44,-28.9 549.15,-19.52"/>
<polygon fill="midnightblue" stroke="midnightblue" points="394.02,-50.83 385.03,-56.44 395.55,-57.66 394.02,-50.83"/>
</g>
<!-- Node9&#45;&gt;Node7 -->
<g id="edge10" class="edge">
<title>Node9&#45;&gt;Node7</title>
<path fill="none" stroke="midnightblue" d="M261.01,-52.37C284.23,-42.26 316.16,-28.35 336.44,-19.52"/>
<polygon fill="midnightblue" stroke="midnightblue" points="259.42,-49.24 251.65,-56.44 262.21,-55.66 259.42,-49.24"/>
</g>
<!-- Node9&#45;&gt;Node8 -->
<g id="edge11" class="edge">
<title>Node9&#45;&gt;Node8</title>
<path fill="none" stroke="midnightblue" d="M280.71,-57.59C346.1,-47.64 461.98,-30.02 530.92,-19.53"/>
<polygon fill="midnightblue" stroke="midnightblue" points="280.03,-54.15 270.67,-59.12 281.08,-61.07 280.03,-54.15"/>
</g>
<!-- Node10 -->
<g id="node10" class="node">
<title>Node10</title>
<g id="a_node10"><a xlink:href="bme280_8cpp.html" target="_top" xlink:title="BME280 sensor extension.">
<polygon fill="none" stroke="black" points="96.5,-0.5 96.5,-19.5 173.5,-19.5 173.5,-0.5 96.5,-0.5"/>
<text text-anchor="middle" x="135" y="-7.5" font-family="Helvetica,sans-Serif" font-size="10.00">bme280.cpp</text>
</a>
</g>
</g>
<!-- Node9&#45;&gt;Node10 -->
<g id="edge9" class="edge">
<title>Node9&#45;&gt;Node10</title>
<path fill="none" stroke="midnightblue" d="M207.66,-51.45C189.76,-41.48 165.95,-28.23 150.55,-19.65"/>
<polygon fill="midnightblue" stroke="midnightblue" points="205.98,-54.52 216.42,-56.32 209.38,-48.4 205.98,-54.52"/>
</g>
<!-- Node11&#45;&gt;Node7 -->
<g id="edge14" class="edge">
<title>Node11&#45;&gt;Node7</title>
<path fill="none" stroke="midnightblue" d="M452.84,-52.5C429.22,-42.38 396.57,-28.39 375.87,-19.52"/>
<polygon fill="midnightblue" stroke="midnightblue" points="451.46,-55.72 462.03,-56.44 454.22,-49.29 451.46,-55.72"/>
</g>
<!-- Node11&#45;&gt;Node8 -->
<g id="edge15" class="edge">
<title>Node11&#45;&gt;Node8</title>
<path fill="none" stroke="midnightblue" d="M507.81,-51.73C527.25,-41.73 553.35,-28.31 570.17,-19.65"/>
<polygon fill="midnightblue" stroke="midnightblue" points="506.16,-48.64 498.87,-56.32 509.36,-54.86 506.16,-48.64"/>
</g>
<!-- Node12 -->
<g id="node12" class="node">
<title>Node12</title>
<g id="a_node12"><a xlink:href="bmi088_8cpp.html" target="_top" xlink:title="Implementation of the BMI088 extension.">
<polygon fill="none" stroke="black" points="438,-0.5 438,-19.5 512,-19.5 512,-0.5 438,-0.5"/>
<text text-anchor="middle" x="475" y="-7.5" font-family="Helvetica,sans-Serif" font-size="10.00">bmi088.cpp</text>
</a>
</g>
</g>
<!-- Node11&#45;&gt;Node12 -->
<g id="edge13" class="edge">
<title>Node11&#45;&gt;Node12</title>
<path fill="none" stroke="midnightblue" d="M479.55,-46.1C478.39,-37.14 477.06,-26.86 476.13,-19.75"/>
<polygon fill="midnightblue" stroke="midnightblue" points="476.09,-46.62 480.84,-56.08 483.03,-45.72 476.09,-46.62"/>
</g>
<!-- Node13&#45;&gt;Node7 -->
<g id="edge18" class="edge">
<title>Node13&#45;&gt;Node7</title>
<path fill="none" stroke="midnightblue" d="M166.32,-54.22C211.11,-44.01 277.44,-28.9 318.62,-19.52"/>
<polygon fill="midnightblue" stroke="midnightblue" points="165.53,-50.81 156.55,-56.44 167.08,-57.63 165.53,-50.81"/>
</g>
<!-- Node13&#45;&gt;Node8 -->
<g id="edge19" class="edge">
<title>Node13&#45;&gt;Node8</title>
<path fill="none" stroke="midnightblue" d="M168.49,-57.98C173.73,-57.29 178.97,-56.62 184,-56 333.51,-37.67 371.47,-38.18 521,-20 523.87,-19.65 526.81,-19.28 529.78,-18.91"/>
<polygon fill="midnightblue" stroke="midnightblue" points="167.95,-54.53 158.5,-59.33 168.88,-61.46 167.95,-54.53"/>
</g>
<!-- Node14 -->
<g id="node14" class="node">
<title>Node14</title>
<g id="a_node14"><a xlink:href="ds18b20_8cpp.html" target="_top" xlink:title="DS18B20 extension.">
<polygon fill="none" stroke="black" points="0,-0.5 0,-19.5 78,-19.5 78,-0.5 0,-0.5"/>
<text text-anchor="middle" x="39" y="-7.5" font-family="Helvetica,sans-Serif" font-size="10.00">ds18b20.cpp</text>
</a>
</g>
</g>
<!-- Node13&#45;&gt;Node14 -->
<g id="edge17" class="edge">
<title>Node13&#45;&gt;Node14</title>
<path fill="none" stroke="midnightblue" d="M97.7,-50.62C83.08,-40.76 64.17,-27.99 51.82,-19.65"/>
<polygon fill="midnightblue" stroke="midnightblue" points="95.9,-53.63 106.15,-56.32 99.82,-47.83 95.9,-53.63"/>
</g>
<!-- Node16&#45;&gt;Node5 -->
<g id="edge22" class="edge">
<title>Node16&#45;&gt;Node5</title>
<path fill="none" stroke="midnightblue" d="M369.17,-103.27C363.53,-94.05 356.88,-83.17 352.35,-75.75"/>
<polygon fill="midnightblue" stroke="midnightblue" points="366.35,-105.38 374.55,-112.08 372.32,-101.73 366.35,-105.38"/>
</g>
<!-- Node17&#45;&gt;Node8 -->
<g id="edge25" class="edge">
<title>Node17&#45;&gt;Node8</title>
<path fill="none" stroke="midnightblue" d="M775.37,-102.13C773.12,-87.57 767.76,-67.96 755,-56 738.31,-40.36 682.54,-27.47 639.79,-19.55"/>
<polygon fill="midnightblue" stroke="midnightblue" points="771.94,-102.96 776.59,-112.48 778.89,-102.14 771.94,-102.96"/>
</g>
<!-- Node18 -->
<g id="node18" class="node">
<title>Node18</title>
<g id="a_node18"><a xlink:href="pi__camera_8cpp.html" target="_top" xlink:title="Raspberry Pi Camera Extension.">
<polygon fill="none" stroke="black" points="803,-56.5 803,-75.5 891,-75.5 891,-56.5 803,-56.5"/>
<text text-anchor="middle" x="847" y="-63.5" font-family="Helvetica,sans-Serif" font-size="10.00">pi_camera.cpp</text>
</a>
</g>
</g>
<!-- Node17&#45;&gt;Node18 -->
<g id="edge24" class="edge">
<title>Node17&#45;&gt;Node18</title>
<path fill="none" stroke="midnightblue" d="M796.31,-106.1C808.91,-96.38 824.93,-84.03 835.55,-75.83"/>
<polygon fill="midnightblue" stroke="midnightblue" points="794.03,-103.44 788.25,-112.32 798.3,-108.99 794.03,-103.44"/>
</g>
<!-- Node19&#45;&gt;Node7 -->
<g id="edge28" class="edge">
<title>Node19&#45;&gt;Node7</title>
<path fill="none" stroke="midnightblue" d="M628.87,-54.85C565.38,-44.65 468.61,-29.1 408.99,-19.52"/>
<polygon fill="midnightblue" stroke="midnightblue" points="628.33,-58.31 638.76,-56.44 629.44,-51.4 628.33,-58.31"/>
</g>
<!-- Node19&#45;&gt;Node8 -->
<g id="edge29" class="edge">
<title>Node19&#45;&gt;Node8</title>
<path fill="none" stroke="midnightblue" d="M666.19,-51.73C646.75,-41.73 620.65,-28.31 603.83,-19.65"/>
<polygon fill="midnightblue" stroke="midnightblue" points="664.64,-54.86 675.13,-56.32 667.84,-48.64 664.64,-54.86"/>
</g>
<!-- Node20 -->
<g id="node20" class="node">
<title>Node20</title>
<g id="a_node20"><a xlink:href="rgb__status__led_8cpp.html" target="_top" xlink:title="RGB Status LED extension source file.">
<polygon fill="none" stroke="black" points="760,-0.5 760,-19.5 868,-19.5 868,-0.5 760,-0.5"/>
<text text-anchor="middle" x="814" y="-7.5" font-family="Helvetica,sans-Serif" font-size="10.00">rgb_status_led.cpp</text>
</a>
</g>
</g>
<!-- Node19&#45;&gt;Node20 -->
<g id="edge27" class="edge">
<title>Node19&#45;&gt;Node20</title>
<path fill="none" stroke="midnightblue" d="M720.54,-52.37C743.39,-42.26 774.81,-28.35 794.76,-19.52"/>
<polygon fill="midnightblue" stroke="midnightblue" points="719.06,-49.2 711.33,-56.44 721.89,-55.6 719.06,-49.2"/>
</g>
<!-- Node21&#45;&gt;Node7 -->
<g id="edge32" class="edge">
<title>Node21&#45;&gt;Node7</title>
<path fill="none" stroke="midnightblue" d="M533.94,-54.09C491.81,-43.89 429.76,-28.86 391.17,-19.52"/>
<polygon fill="midnightblue" stroke="midnightblue" points="533.12,-57.49 543.66,-56.44 534.77,-50.69 533.12,-57.49"/>
</g>
<!-- Node21&#45;&gt;Node8 -->
<g id="edge33" class="edge">
<title>Node21&#45;&gt;Node8</title>
<path fill="none" stroke="midnightblue" d="M581.8,-46.1C583.13,-37.14 584.65,-26.86 585.7,-19.75"/>
<polygon fill="midnightblue" stroke="midnightblue" points="578.32,-45.68 580.32,-56.08 585.25,-46.7 578.32,-45.68"/>
</g>
<!-- Node22 -->
<g id="node22" class="node">
<title>Node22</title>
<g id="a_node22"><a xlink:href="samm8q_8cpp.html" target="_top" xlink:title="The SAM&#45;M8Q GPS extension (I2C).">
<polygon fill="none" stroke="black" points="662,-0.5 662,-19.5 742,-19.5 742,-0.5 662,-0.5"/>
<text text-anchor="middle" x="702" y="-7.5" font-family="Helvetica,sans-Serif" font-size="10.00">samm8q.cpp</text>
</a>
</g>
</g>
<!-- Node21&#45;&gt;Node22 -->
<g id="edge31" class="edge">
<title>Node21&#45;&gt;Node22</title>
<path fill="none" stroke="midnightblue" d="M607.77,-52.37C630.81,-42.26 662.48,-28.35 682.6,-19.52"/>
<polygon fill="midnightblue" stroke="midnightblue" points="606.24,-49.22 598.49,-56.44 609.05,-55.63 606.24,-49.22"/>
</g>
<!-- Node23&#45;&gt;Node7 -->
<g id="edge39" class="edge">
<title>Node23&#45;&gt;Node7</title>
<path fill="none" stroke="midnightblue" d="M525.55,-109.88C498.24,-102.49 464.09,-91.3 436,-76 407.08,-60.25 378.41,-33.56 364.56,-19.79"/>
<polygon fill="midnightblue" stroke="midnightblue" points="524.71,-113.28 535.27,-112.44 526.49,-106.51 524.71,-113.28"/>
</g>
<!-- Node24 -->
<g id="node24" class="node">
<title>Node24</title>
<g id="a_node24"><a xlink:href="flight__runner_8hpp.html" target="_top" xlink:title="The main class for the flight system.">
<polygon fill="none" stroke="black" points="947,-56.5 947,-75.5 1045,-75.5 1045,-56.5 947,-56.5"/>
<text text-anchor="middle" x="996" y="-63.5" font-family="Helvetica,sans-Serif" font-size="10.00">flight_runner.hpp</text>
</a>
</g>
</g>
<!-- Node23&#45;&gt;Node24 -->
<g id="edge35" class="edge">
<title>Node23&#45;&gt;Node24</title>
<path fill="none" stroke="midnightblue" d="M648.04,-111.53C733.96,-100.53 873.23,-82.71 946.82,-73.29"/>
<polygon fill="midnightblue" stroke="midnightblue" points="647.57,-108.06 638.09,-112.8 648.46,-115 647.57,-108.06"/>
</g>
<!-- Node25 -->
<g id="node25" class="node">
<title>Node25</title>
<g id="a_node25"><a xlink:href="flight__logic_8cpp.html" target="_top" xlink:title="The implementation of the flight logic within the flight runner.">
<polygon fill="none" stroke="black" points="966,-0.5 966,-19.5 1056,-19.5 1056,-0.5 966,-0.5"/>
<text text-anchor="middle" x="1011" y="-7.5" font-family="Helvetica,sans-Serif" font-size="10.00">flight_logic.cpp</text>
</a>
</g>
</g>
<!-- Node24&#45;&gt;Node25 -->
<g id="edge36" class="edge">
<title>Node24&#45;&gt;Node25</title>
<path fill="none" stroke="midnightblue" d="M1001.17,-46.4C1003.68,-37.36 1006.57,-26.94 1008.57,-19.75"/>
<polygon fill="midnightblue" stroke="midnightblue" points="997.78,-45.51 998.48,-56.08 1004.53,-47.38 997.78,-45.51"/>
</g>
<!-- Node26 -->
<g id="node26" class="node">
<title>Node26</title>
<g id="a_node26"><a xlink:href="flight__runner_8cpp.html" target="_top" xlink:title="The implementation of the flight runner, where everything comes together.">
<polygon fill="none" stroke="black" points="1074,-0.5 1074,-19.5 1172,-19.5 1172,-0.5 1074,-0.5"/>
<text text-anchor="middle" x="1123" y="-7.5" font-family="Helvetica,sans-Serif" font-size="10.00">flight_runner.cpp</text>
</a>
</g>
</g>
<!-- Node24&#45;&gt;Node26 -->
<g id="edge37" class="edge">
<title>Node24&#45;&gt;Node26</title>
<path fill="none" stroke="midnightblue" d="M1025.39,-52.5C1049.2,-42.38 1082.11,-28.39 1102.97,-19.52"/>
<polygon fill="midnightblue" stroke="midnightblue" points="1023.96,-49.31 1016.12,-56.44 1026.7,-55.75 1023.96,-49.31"/>
</g>
<!-- Node27 -->
<g id="node27" class="node">
<title>Node27</title>
<g id="a_node27"><a xlink:href="src_2flight__system_2main_8cpp.html" target="_top" xlink:title="Defines the entry point/main function of the Flight Computer software.">
<polygon fill="none" stroke="black" points="886,-0.5 886,-19.5 948,-19.5 948,-0.5 886,-0.5"/>
<text text-anchor="middle" x="917" y="-7.5" font-family="Helvetica,sans-Serif" font-size="10.00">main.cpp</text>
</a>
</g>
</g>
<!-- Node24&#45;&gt;Node27 -->
<g id="edge38" class="edge">
<title>Node24&#45;&gt;Node27</title>
<path fill="none" stroke="midnightblue" d="M974.97,-50.62C960.53,-40.76 941.86,-27.99 929.66,-19.65"/>
<polygon fill="midnightblue" stroke="midnightblue" points="973.08,-53.57 983.31,-56.32 977.03,-47.79 973.08,-53.57"/>
</g>
<!-- Node28&#45;&gt;Node8 -->
<g id="edge42" class="edge">
<title>Node28&#45;&gt;Node8</title>
<path fill="none" stroke="midnightblue" d="M921.5,-102.12C919.26,-87.26 913.72,-67.25 900,-56 897.54,-53.98 733.86,-31.2 644.22,-18.85"/>
<polygon fill="midnightblue" stroke="midnightblue" points="918.04,-102.7 922.64,-112.24 925,-101.91 918.04,-102.7"/>
</g>
<!-- Node29 -->
<g id="node29" class="node">
<title>Node29</title>
<g id="a_node29"><a xlink:href="extension__test__framework_8cpp.html" target="_top" xlink:title="Test framework for testing extensions on the host.">
<polygon fill="none" stroke="black" points="1063.5,-56.5 1063.5,-75.5 1230.5,-75.5 1230.5,-56.5 1063.5,-56.5"/>
<text text-anchor="middle" x="1147" y="-63.5" font-family="Helvetica,sans-Serif" font-size="10.00">extension_test_framework.cpp</text>
</a>
</g>
</g>
<!-- Node28&#45;&gt;Node29 -->
<g id="edge41" class="edge">
<title>Node28&#45;&gt;Node29</title>
<path fill="none" stroke="midnightblue" d="M968.26,-110.09C1010.58,-99.89 1072.91,-84.86 1111.67,-75.52"/>
<polygon fill="midnightblue" stroke="midnightblue" points="967.39,-106.7 958.49,-112.44 969.04,-113.5 967.39,-106.7"/>
</g>
</g>
</svg>
