<?xml version="1.0" encoding="UTF-8" standalone="no"?>
<!DOCTYPE svg PUBLIC "-//W3C//DTD SVG 1.1//EN"
 "http://www.w3.org/Graphics/SVG/1.1/DTD/svg11.dtd">
<!-- Generated by graphviz version 2.43.0 (0)
 -->
<!-- Title: cfg_adcmappings.cpp Pages: 1 -->
<svg width="1838pt" height="487pt"
 viewBox="0.00 0.00 1837.52 487.00" xmlns="http://www.w3.org/2000/svg" xmlns:xlink="http://www.w3.org/1999/xlink">
<g id="graph0" class="graph" transform="scale(1 1) rotate(0) translate(4 483)">
<title>cfg_adcmappings.cpp</title>
<!-- Node1 -->
<g id="node1" class="node">
<title>Node1</title>
<g id="a_node1"><a xlink:title="ADC Mapping configuration section.">
<polygon fill="#bfbfbf" stroke="black" points="875.85,-459.5 875.85,-478.5 997.85,-478.5 997.85,-459.5 875.85,-459.5"/>
<text text-anchor="middle" x="936.85" y="-466.5" font-family="Helvetica,sans-Serif" font-size="10.00">cfg_adcmappings.cpp</text>
</a>
</g>
</g>
<!-- Node2 -->
<g id="node2" class="node">
<title>Node2</title>
<g id="a_node2"><a xlink:href="cfg__adcmappings_8hpp.html" target="_top" xlink:title=" ">
<polygon fill="none" stroke="black" points="827.35,-403.5 827.35,-422.5 950.35,-422.5 950.35,-403.5 827.35,-403.5"/>
<text text-anchor="middle" x="888.85" y="-410.5" font-family="Helvetica,sans-Serif" font-size="10.00">cfg_adcmappings.hpp</text>
</a>
</g>
</g>
<!-- Node1&#45;&gt;Node2 -->
<g id="edge1" class="edge">
<title>Node1&#45;&gt;Node2</title>
<path fill="none" stroke="midnightblue" d="M928.92,-459.08C922,-451.3 911.78,-439.8 903.4,-430.37"/>
<polygon fill="midnightblue" stroke="midnightblue" points="905.89,-427.9 896.63,-422.75 900.65,-432.55 905.89,-427.9"/>
</g>
<!-- Node36 -->
<g id="node36" class="node">
<title>Node36</title>
<g id="a_node36"><a xlink:href="validation_8hpp.html" target="_top" xlink:title=" ">
<polygon fill="none" stroke="black" points="1037.85,-235.5 1037.85,-254.5 1123.85,-254.5 1123.85,-235.5 1037.85,-235.5"/>
<text text-anchor="middle" x="1080.85" y="-242.5" font-family="Helvetica,sans-Serif" font-size="10.00">validation.hpp</text>
</a>
</g>
</g>
<!-- Node1&#45;&gt;Node36 -->
<g id="edge67" class="edge">
<title>Node1&#45;&gt;Node36</title>
<path fill="none" stroke="midnightblue" d="M942.49,-459.3C963.91,-426.29 1040.37,-308.4 1069.48,-263.52"/>
<polygon fill="midnightblue" stroke="midnightblue" points="1072.58,-265.18 1075.09,-254.88 1066.71,-261.37 1072.58,-265.18"/>
</g>
<!-- Node3 -->
<g id="node3" class="node">
<title>Node3</title>
<g id="a_node3"><a xlink:href="configuration__enums_8hpp.html" target="_top" xlink:title=" ">
<polygon fill="none" stroke="black" points="661.85,-347.5 661.85,-366.5 801.85,-366.5 801.85,-347.5 661.85,-347.5"/>
<text text-anchor="middle" x="731.85" y="-354.5" font-family="Helvetica,sans-Serif" font-size="10.00">configuration_enums.hpp</text>
</a>
</g>
</g>
<!-- Node2&#45;&gt;Node3 -->
<g id="edge2" class="edge">
<title>Node2&#45;&gt;Node3</title>
<path fill="none" stroke="midnightblue" d="M863.97,-403.44C837.56,-394.36 795.63,-379.94 766.11,-369.78"/>
<polygon fill="midnightblue" stroke="midnightblue" points="767.2,-366.46 756.61,-366.52 764.93,-373.08 767.2,-366.46"/>
</g>
<!-- Node4 -->
<g id="node4" class="node">
<title>Node4</title>
<g id="a_node4"><a xlink:href="cfg__section_8hpp.html" target="_top" xlink:title="This file contains the base class for all configuration sections.">
<polygon fill="none" stroke="black" points="820.35,-347.5 820.35,-366.5 957.35,-366.5 957.35,-347.5 820.35,-347.5"/>
<text text-anchor="middle" x="888.85" y="-354.5" font-family="Helvetica,sans-Serif" font-size="10.00">sections/cfg_section.hpp</text>
</a>
</g>
</g>
<!-- Node2&#45;&gt;Node4 -->
<g id="edge3" class="edge">
<title>Node2&#45;&gt;Node4</title>
<path fill="none" stroke="midnightblue" d="M888.85,-403.08C888.85,-396.01 888.85,-385.86 888.85,-376.99"/>
<polygon fill="midnightblue" stroke="midnightblue" points="892.35,-376.75 888.85,-366.75 885.35,-376.75 892.35,-376.75"/>
</g>
<!-- Node5 -->
<g id="node5" class="node">
<title>Node5</title>
<g id="a_node5"><a xlink:href="shared__data_8hpp.html" target="_top" xlink:title="Contains the SharedData struct, used across all modules and extensions.">
<polygon fill="none" stroke="black" points="808.85,-291.5 808.85,-310.5 906.85,-310.5 906.85,-291.5 808.85,-291.5"/>
<text text-anchor="middle" x="857.85" y="-298.5" font-family="Helvetica,sans-Serif" font-size="10.00">shared_data.hpp</text>
</a>
</g>
</g>
<!-- Node4&#45;&gt;Node5 -->
<g id="edge4" class="edge">
<title>Node4&#45;&gt;Node5</title>
<path fill="none" stroke="midnightblue" d="M883.73,-347.08C879.44,-339.61 873.19,-328.72 867.91,-319.52"/>
<polygon fill="midnightblue" stroke="midnightblue" points="870.89,-317.68 862.87,-310.75 864.81,-321.17 870.89,-317.68"/>
</g>
<!-- Node6 -->
<g id="node6" class="node">
<title>Node6</title>
<g id="a_node6"><a xlink:title=" ">
<polygon fill="none" stroke="#bfbfbf" points="671.35,-56.5 671.35,-75.5 796.35,-75.5 796.35,-56.5 671.35,-56.5"/>
<text text-anchor="middle" x="733.85" y="-63.5" font-family="Helvetica,sans-Serif" font-size="10.00">BoosterSeat/clock.hpp</text>
</a>
</g>
</g>
<!-- Node5&#45;&gt;Node6 -->
<g id="edge5" class="edge">
<title>Node5&#45;&gt;Node6</title>
<path fill="none" stroke="midnightblue" d="M859.75,-291.45C865.62,-262.81 880.59,-168.85 838.85,-112 826.95,-95.8 808.02,-85.37 789.49,-78.69"/>
<polygon fill="midnightblue" stroke="midnightblue" points="790.47,-75.33 779.88,-75.52 788.28,-81.98 790.47,-75.33"/>
</g>
<!-- Node7 -->
<g id="node7" class="node">
<title>Node7</title>
<g id="a_node7"><a xlink:title=" ">
<polygon fill="none" stroke="#bfbfbf" points="79.85,-56.5 79.85,-75.5 201.85,-75.5 201.85,-56.5 79.85,-56.5"/>
<text text-anchor="middle" x="140.85" y="-63.5" font-family="Helvetica,sans-Serif" font-size="10.00">BoosterSeat/time.hpp</text>
</a>
</g>
</g>
<!-- Node5&#45;&gt;Node7 -->
<g id="edge6" class="edge">
<title>Node5&#45;&gt;Node7</title>
<path fill="none" stroke="midnightblue" d="M808.47,-298.33C673.5,-293.49 300.44,-278.36 179.85,-255 101.34,-239.79 55.78,-263.75 8.85,-199 -26.9,-149.67 61.01,-101.62 110.26,-79.56"/>
<polygon fill="midnightblue" stroke="midnightblue" points="111.79,-82.71 119.55,-75.5 108.98,-76.3 111.79,-82.71"/>
</g>
<!-- Node8 -->
<g id="node8" class="node">
<title>Node8</title>
<g id="a_node8"><a xlink:href="blocks_8hpp.html" target="_top" xlink:title=" ">
<polygon fill="none" stroke="black" points="666.35,-179.5 666.35,-198.5 735.35,-198.5 735.35,-179.5 666.35,-179.5"/>
<text text-anchor="middle" x="700.85" y="-186.5" font-family="Helvetica,sans-Serif" font-size="10.00">blocks.hpp</text>
</a>
</g>
</g>
<!-- Node5&#45;&gt;Node8 -->
<g id="edge7" class="edge">
<title>Node5&#45;&gt;Node8</title>
<path fill="none" stroke="midnightblue" d="M808.81,-291.49C783.68,-285.03 754,-273.91 732.85,-255 719.1,-242.71 710.6,-223.17 705.85,-208.73"/>
<polygon fill="midnightblue" stroke="midnightblue" points="709.13,-207.46 702.92,-198.87 702.42,-209.46 709.13,-207.46"/>
</g>
<!-- Node18 -->
<g id="node18" class="node">
<title>Node18</title>
<g id="a_node18"><a xlink:href="error__frame_8hpp.html" target="_top" xlink:title="The error frame.">
<polygon fill="none" stroke="black" points="886.35,-235.5 886.35,-254.5 981.35,-254.5 981.35,-235.5 886.35,-235.5"/>
<text text-anchor="middle" x="933.85" y="-242.5" font-family="Helvetica,sans-Serif" font-size="10.00">error_frame.hpp</text>
</a>
</g>
</g>
<!-- Node5&#45;&gt;Node18 -->
<g id="edge26" class="edge">
<title>Node5&#45;&gt;Node18</title>
<path fill="none" stroke="midnightblue" d="M870.06,-291.32C881.62,-283.11 899.22,-270.6 913.01,-260.81"/>
<polygon fill="midnightblue" stroke="midnightblue" points="915.29,-263.48 921.41,-254.83 911.24,-257.77 915.29,-263.48"/>
</g>
<!-- Node19 -->
<g id="node19" class="node">
<title>Node19</title>
<g id="a_node19"><a xlink:href="frame_8hpp.html" target="_top" xlink:title=" ">
<polygon fill="none" stroke="black" points="1132.35,-179.5 1132.35,-198.5 1199.35,-198.5 1199.35,-179.5 1132.35,-179.5"/>
<text text-anchor="middle" x="1165.85" y="-186.5" font-family="Helvetica,sans-Serif" font-size="10.00">frame.hpp</text>
</a>
</g>
</g>
<!-- Node5&#45;&gt;Node19 -->
<g id="edge60" class="edge">
<title>Node5&#45;&gt;Node19</title>
<path fill="none" stroke="midnightblue" d="M906.88,-297.25C976.03,-292.51 1097.71,-280.71 1132.85,-255 1148.14,-243.82 1156.83,-223.49 1161.41,-208.54"/>
<polygon fill="midnightblue" stroke="midnightblue" points="1164.81,-209.37 1164.06,-198.8 1158.06,-207.54 1164.81,-209.37"/>
</g>
<!-- Node22 -->
<g id="node22" class="node">
<title>Node22</title>
<g id="a_node22"><a xlink:href="streams_8hpp.html" target="_top" xlink:title="The header file for the data streams.">
<polygon fill="none" stroke="black" points="1037.35,-179.5 1037.35,-198.5 1114.35,-198.5 1114.35,-179.5 1037.35,-179.5"/>
<text text-anchor="middle" x="1075.85" y="-186.5" font-family="Helvetica,sans-Serif" font-size="10.00">streams.hpp</text>
</a>
</g>
</g>
<!-- Node5&#45;&gt;Node22 -->
<g id="edge66" class="edge">
<title>Node5&#45;&gt;Node22</title>
<path fill="none" stroke="midnightblue" d="M892.44,-291.47C919.82,-283.96 958.52,-271.63 989.85,-255 1015.75,-241.25 1042.16,-219.98 1058.76,-205.55"/>
<polygon fill="midnightblue" stroke="midnightblue" points="1061.32,-207.95 1066.48,-198.7 1056.68,-202.72 1061.32,-207.95"/>
</g>
<!-- Node30 -->
<g id="node30" class="node">
<title>Node30</title>
<g id="a_node30"><a xlink:href="flight__data_8hpp.html" target="_top" xlink:title=" ">
<polygon fill="none" stroke="black" points="259.35,-235.5 259.35,-254.5 348.35,-254.5 348.35,-235.5 259.35,-235.5"/>
<text text-anchor="middle" x="303.85" y="-242.5" font-family="Helvetica,sans-Serif" font-size="10.00">flight_data.hpp</text>
</a>
</g>
</g>
<!-- Node5&#45;&gt;Node30 -->
<g id="edge49" class="edge">
<title>Node5&#45;&gt;Node30</title>
<path fill="none" stroke="midnightblue" d="M808.68,-295.21C705.43,-285.14 466.65,-261.87 358.65,-251.34"/>
<polygon fill="midnightblue" stroke="midnightblue" points="358.91,-247.85 348.62,-250.36 358.23,-254.82 358.91,-247.85"/>
</g>
<!-- Node31 -->
<g id="node31" class="node">
<title>Node31</title>
<g id="a_node31"><a xlink:href="flight__phase_8hpp.html" target="_top" xlink:title="Contains the flight phase enum and related functions.">
<polygon fill="none" stroke="black" points="18.35,-179.5 18.35,-198.5 115.35,-198.5 115.35,-179.5 18.35,-179.5"/>
<text text-anchor="middle" x="66.85" y="-186.5" font-family="Helvetica,sans-Serif" font-size="10.00">flight_phase.hpp</text>
</a>
</g>
</g>
<!-- Node5&#45;&gt;Node31 -->
<g id="edge59" class="edge">
<title>Node5&#45;&gt;Node31</title>
<path fill="none" stroke="midnightblue" d="M808.76,-300.78C704.58,-301.47 454.14,-298.03 249.85,-255 193.15,-243.06 130.11,-217.86 94.79,-202.58"/>
<polygon fill="midnightblue" stroke="midnightblue" points="96.16,-199.36 85.6,-198.56 93.35,-205.77 96.16,-199.36"/>
</g>
<!-- Node33 -->
<g id="node33" class="node">
<title>Node33</title>
<g id="a_node33"><a xlink:href="log__container_8hpp.html" target="_top" xlink:title="A simple logging system for debugging.">
<polygon fill="none" stroke="black" points="1516.35,-235.5 1516.35,-254.5 1619.35,-254.5 1619.35,-235.5 1516.35,-235.5"/>
<text text-anchor="middle" x="1567.85" y="-242.5" font-family="Helvetica,sans-Serif" font-size="10.00">log_container.hpp</text>
</a>
</g>
</g>
<!-- Node5&#45;&gt;Node33 -->
<g id="edge61" class="edge">
<title>Node5&#45;&gt;Node33</title>
<path fill="none" stroke="midnightblue" d="M906.93,-296.27C1032.79,-286.69 1366.86,-261.29 1505.84,-250.72"/>
<polygon fill="midnightblue" stroke="midnightblue" points="1506.19,-254.2 1515.9,-249.95 1505.66,-247.22 1506.19,-254.2"/>
</g>
<!-- Node35 -->
<g id="node35" class="node">
<title>Node35</title>
<g id="a_node35"><a xlink:href="status__led_8hpp.html" target="_top" xlink:title="RGB Status LED extension header file.">
<polygon fill="none" stroke="black" points="741.85,-235.5 741.85,-254.5 829.85,-254.5 829.85,-235.5 741.85,-235.5"/>
<text text-anchor="middle" x="785.85" y="-242.5" font-family="Helvetica,sans-Serif" font-size="10.00">status_led.hpp</text>
</a>
</g>
</g>
<!-- Node5&#45;&gt;Node35 -->
<g id="edge64" class="edge">
<title>Node5&#45;&gt;Node35</title>
<path fill="none" stroke="midnightblue" d="M846.28,-291.32C835.43,-283.18 818.97,-270.84 805.96,-261.09"/>
<polygon fill="midnightblue" stroke="midnightblue" points="807.73,-258.03 797.63,-254.83 803.53,-263.63 807.73,-258.03"/>
</g>
<!-- Node8&#45;&gt;Node6 -->
<g id="edge9" class="edge">
<title>Node8&#45;&gt;Node6</title>
<path fill="none" stroke="midnightblue" d="M703.22,-179.3C708.55,-159.76 721.56,-112.06 728.79,-85.55"/>
<polygon fill="midnightblue" stroke="midnightblue" points="732.24,-86.19 731.5,-75.62 725.49,-84.35 732.24,-86.19"/>
</g>
<!-- Node8&#45;&gt;Node7 -->
<g id="edge11" class="edge">
<title>Node8&#45;&gt;Node7</title>
<path fill="none" stroke="midnightblue" d="M666.09,-181.34C661.32,-180.51 656.47,-179.7 651.85,-179 519.52,-158.9 476.02,-195.38 352.85,-143 332.79,-134.47 334.29,-121.85 314.85,-112 281.8,-95.27 241.98,-84.38 208.78,-77.51"/>
<polygon fill="midnightblue" stroke="midnightblue" points="209.2,-74.02 198.71,-75.5 207.83,-80.89 209.2,-74.02"/>
</g>
<!-- Node8&#45;&gt;Node8 -->
<g id="edge12" class="edge">
<title>Node8&#45;&gt;Node8</title>
<path fill="none" stroke="midnightblue" d="M723.24,-198.53C738.45,-201.31 753.35,-198.13 753.35,-189 753.35,-181.94 744.44,-178.44 733.36,-178.5"/>
<polygon fill="midnightblue" stroke="midnightblue" points="732.86,-175.03 723.24,-179.47 733.53,-182 732.86,-175.03"/>
</g>
<!-- Node9 -->
<g id="node9" class="node">
<title>Node9</title>
<g id="a_node9"><a xlink:title=" ">
<polygon fill="none" stroke="#bfbfbf" points="1629.85,-56.5 1629.85,-75.5 1677.85,-75.5 1677.85,-56.5 1629.85,-56.5"/>
<text text-anchor="middle" x="1653.85" y="-63.5" font-family="Helvetica,sans-Serif" font-size="10.00">mutex</text>
</a>
</g>
</g>
<!-- Node8&#45;&gt;Node9 -->
<g id="edge8" class="edge">
<title>Node8&#45;&gt;Node9</title>
<path fill="none" stroke="midnightblue" d="M735.36,-186.78C890.78,-181.22 1519.77,-157.87 1558.85,-143 1592.06,-130.36 1622.65,-101.51 1639.72,-83.22"/>
<polygon fill="midnightblue" stroke="midnightblue" points="1642.45,-85.41 1646.57,-75.65 1637.26,-80.71 1642.45,-85.41"/>
</g>
<!-- Node10 -->
<g id="node10" class="node">
<title>Node10</title>
<g id="a_node10"><a xlink:title=" ">
<polygon fill="none" stroke="#bfbfbf" points="362.35,-118 362.35,-137 505.35,-137 505.35,-118 362.35,-118"/>
<text text-anchor="middle" x="433.85" y="-125" font-family="Helvetica,sans-Serif" font-size="10.00">BoosterSeat/numbers.hpp</text>
</a>
</g>
</g>
<!-- Node8&#45;&gt;Node10 -->
<g id="edge10" class="edge">
<title>Node8&#45;&gt;Node10</title>
<path fill="none" stroke="midnightblue" d="M666.22,-180.28C619.29,-169.83 535.29,-151.11 482.17,-139.27"/>
<polygon fill="midnightblue" stroke="midnightblue" points="482.83,-135.83 472.31,-137.07 481.3,-142.66 482.83,-135.83"/>
</g>
<!-- Node11 -->
<g id="node11" class="node">
<title>Node11</title>
<g id="a_node11"><a xlink:href="json_8hpp.html" target="_top" xlink:title="Simple wrapper around nlohmann/json.hpp to provide a common interface.">
<polygon fill="none" stroke="black" points="247.85,-118 247.85,-137 305.85,-137 305.85,-118 247.85,-118"/>
<text text-anchor="middle" x="276.85" y="-125" font-family="Helvetica,sans-Serif" font-size="10.00">json.hpp</text>
</a>
</g>
</g>
<!-- Node8&#45;&gt;Node11 -->
<g id="edge13" class="edge">
<title>Node8&#45;&gt;Node11</title>
<path fill="none" stroke="midnightblue" d="M666.1,-181.29C661.32,-180.46 656.47,-179.67 651.85,-179 504.98,-157.58 464.8,-174.9 319.85,-143 316.36,-142.23 312.75,-141.28 309.18,-140.23"/>
<polygon fill="midnightblue" stroke="midnightblue" points="309.94,-136.8 299.35,-137.11 307.82,-143.47 309.94,-136.8"/>
</g>
<!-- Node14 -->
<g id="node14" class="node">
<title>Node14</title>
<g id="a_node14"><a xlink:href="node_8hpp.html" target="_top" xlink:title="Contains structures that are used to identify components of the flight system.">
<polygon fill="none" stroke="black" points="814.85,-56.5 814.85,-75.5 876.85,-75.5 876.85,-56.5 814.85,-56.5"/>
<text text-anchor="middle" x="845.85" y="-63.5" font-family="Helvetica,sans-Serif" font-size="10.00">node.hpp</text>
</a>
</g>
</g>
<!-- Node8&#45;&gt;Node14 -->
<g id="edge16" class="edge">
<title>Node8&#45;&gt;Node14</title>
<path fill="none" stroke="midnightblue" d="M707.51,-179.27C719.2,-164.3 744.7,-133.3 770.85,-112 785.82,-99.81 804.42,-88.63 819.35,-80.46"/>
<polygon fill="midnightblue" stroke="midnightblue" points="821.38,-83.34 828.56,-75.55 818.09,-77.17 821.38,-83.34"/>
</g>
<!-- Node17 -->
<g id="node17" class="node">
<title>Node17</title>
<g id="a_node17"><a xlink:href="positional_8hpp.html" target="_top" xlink:title="Positional data for the flight system (gps/imu data)">
<polygon fill="none" stroke="black" points="561.85,-118 561.85,-137 647.85,-137 647.85,-118 561.85,-118"/>
<text text-anchor="middle" x="604.85" y="-125" font-family="Helvetica,sans-Serif" font-size="10.00">positional.hpp</text>
</a>
</g>
</g>
<!-- Node8&#45;&gt;Node17 -->
<g id="edge19" class="edge">
<title>Node8&#45;&gt;Node17</title>
<path fill="none" stroke="midnightblue" d="M687.09,-179.48C671.48,-169.8 645.78,-153.87 627.27,-142.39"/>
<polygon fill="midnightblue" stroke="midnightblue" points="628.92,-139.3 618.58,-137.01 625.23,-145.25 628.92,-139.3"/>
</g>
<!-- Node12 -->
<g id="node12" class="node">
<title>Node12</title>
<g id="a_node12"><a xlink:title=" ">
<polygon fill="none" stroke="#bfbfbf" points="363.85,-56.5 363.85,-75.5 473.85,-75.5 473.85,-56.5 363.85,-56.5"/>
<text text-anchor="middle" x="418.85" y="-63.5" font-family="Helvetica,sans-Serif" font-size="10.00">nlohmann/json.hpp</text>
</a>
</g>
</g>
<!-- Node11&#45;&gt;Node12 -->
<g id="edge14" class="edge">
<title>Node11&#45;&gt;Node12</title>
<path fill="none" stroke="midnightblue" d="M297.19,-117.98C321.23,-107.9 361.45,-91.05 389.01,-79.5"/>
<polygon fill="midnightblue" stroke="midnightblue" points="390.67,-82.6 398.54,-75.51 387.96,-76.15 390.67,-82.6"/>
</g>
<!-- Node13 -->
<g id="node13" class="node">
<title>Node13</title>
<g id="a_node13"><a xlink:title=" ">
<polygon fill="none" stroke="#bfbfbf" points="225.85,-56.5 225.85,-75.5 269.85,-75.5 269.85,-56.5 225.85,-56.5"/>
<text text-anchor="middle" x="247.85" y="-63.5" font-family="Helvetica,sans-Serif" font-size="10.00">string</text>
</a>
</g>
</g>
<!-- Node11&#45;&gt;Node13 -->
<g id="edge15" class="edge">
<title>Node11&#45;&gt;Node13</title>
<path fill="none" stroke="midnightblue" d="M272.69,-117.98C268.47,-109.32 261.81,-95.65 256.45,-84.65"/>
<polygon fill="midnightblue" stroke="midnightblue" points="259.52,-82.96 252,-75.51 253.23,-86.03 259.52,-82.96"/>
</g>
<!-- Node15 -->
<g id="node15" class="node">
<title>Node15</title>
<g id="a_node15"><a xlink:title=" ">
<polygon fill="none" stroke="#bfbfbf" points="775.85,-0.5 775.85,-19.5 825.85,-19.5 825.85,-0.5 775.85,-0.5"/>
<text text-anchor="middle" x="800.85" y="-7.5" font-family="Helvetica,sans-Serif" font-size="10.00">cstdint</text>
</a>
</g>
</g>
<!-- Node14&#45;&gt;Node15 -->
<g id="edge17" class="edge">
<title>Node14&#45;&gt;Node15</title>
<path fill="none" stroke="midnightblue" d="M838.42,-56.08C832,-48.38 822.54,-37.03 814.73,-27.65"/>
<polygon fill="midnightblue" stroke="midnightblue" points="817.23,-25.19 808.14,-19.75 811.85,-29.67 817.23,-25.19"/>
</g>
<!-- Node16 -->
<g id="node16" class="node">
<title>Node16</title>
<g id="a_node16"><a xlink:title=" ">
<polygon fill="none" stroke="#bfbfbf" points="674.85,-0.5 674.85,-19.5 712.85,-19.5 712.85,-0.5 674.85,-0.5"/>
<text text-anchor="middle" x="693.85" y="-7.5" font-family="Helvetica,sans-Serif" font-size="10.00">map</text>
</a>
</g>
</g>
<!-- Node14&#45;&gt;Node16 -->
<g id="edge18" class="edge">
<title>Node14&#45;&gt;Node16</title>
<path fill="none" stroke="midnightblue" d="M821.76,-56.44C794.81,-46.87 751.16,-31.36 722.48,-21.17"/>
<polygon fill="midnightblue" stroke="midnightblue" points="723.6,-17.86 713.01,-17.81 721.26,-24.45 723.6,-17.86"/>
</g>
<!-- Node17&#45;&gt;Node6 -->
<g id="edge24" class="edge">
<title>Node17&#45;&gt;Node6</title>
<path fill="none" stroke="midnightblue" d="M623.33,-117.98C644.98,-107.99 681.06,-91.35 706.08,-79.81"/>
<polygon fill="midnightblue" stroke="midnightblue" points="707.78,-82.88 715.4,-75.51 704.85,-76.52 707.78,-82.88"/>
</g>
<!-- Node17&#45;&gt;Node7 -->
<g id="edge25" class="edge">
<title>Node17&#45;&gt;Node7</title>
<path fill="none" stroke="midnightblue" d="M561.85,-119.3C546.7,-116.86 529.53,-114.19 513.85,-112 484.77,-107.93 312.06,-87.32 212.16,-75.45"/>
<polygon fill="midnightblue" stroke="midnightblue" points="212.47,-71.97 202.13,-74.26 211.65,-78.92 212.47,-71.97"/>
</g>
<!-- Node17&#45;&gt;Node12 -->
<g id="edge23" class="edge">
<title>Node17&#45;&gt;Node12</title>
<path fill="none" stroke="midnightblue" d="M578.2,-117.98C545.88,-107.64 491.25,-90.16 455.12,-78.6"/>
<polygon fill="midnightblue" stroke="midnightblue" points="456.04,-75.22 445.45,-75.51 453.91,-81.89 456.04,-75.22"/>
</g>
<!-- Node17&#45;&gt;Node13 -->
<g id="edge22" class="edge">
<title>Node17&#45;&gt;Node13</title>
<path fill="none" stroke="midnightblue" d="M573.62,-117.96C565.28,-115.84 556.26,-113.7 547.85,-112 451.29,-92.53 335.69,-77.49 280.41,-70.8"/>
<polygon fill="midnightblue" stroke="midnightblue" points="280.53,-67.29 270.19,-69.57 279.7,-74.24 280.53,-67.29"/>
</g>
<!-- Node17&#45;&gt;Node15 -->
<g id="edge20" class="edge">
<title>Node17&#45;&gt;Node15</title>
<path fill="none" stroke="midnightblue" d="M609.61,-117.77C618.15,-102.92 637.46,-72.76 661.85,-56 693.45,-34.29 736.2,-22.52 765.91,-16.53"/>
<polygon fill="midnightblue" stroke="midnightblue" points="766.67,-19.95 775.84,-14.65 765.36,-13.08 766.67,-19.95"/>
</g>
<!-- Node17&#45;&gt;Node16 -->
<g id="edge21" class="edge">
<title>Node17&#45;&gt;Node16</title>
<path fill="none" stroke="midnightblue" d="M606,-117.87C608.25,-103.71 614.36,-75.19 628.85,-56 638.7,-42.95 653.45,-32.31 666.41,-24.65"/>
<polygon fill="midnightblue" stroke="midnightblue" points="668.41,-27.54 675.44,-19.61 665,-21.43 668.41,-27.54"/>
</g>
<!-- Node18&#45;&gt;Node6 -->
<g id="edge27" class="edge">
<title>Node18&#45;&gt;Node6</title>
<path fill="none" stroke="midnightblue" d="M932.29,-235.5C927.58,-212.21 911.32,-146.86 871.85,-112 852.84,-95.21 827.45,-84.67 803.63,-78.06"/>
<polygon fill="midnightblue" stroke="midnightblue" points="804.46,-74.65 793.9,-75.54 802.71,-81.43 804.46,-74.65"/>
</g>
<!-- Node18&#45;&gt;Node19 -->
<g id="edge28" class="edge">
<title>Node18&#45;&gt;Node19</title>
<path fill="none" stroke="midnightblue" d="M970.61,-235.44C1011.86,-225.84 1078.72,-210.28 1122.49,-200.09"/>
<polygon fill="midnightblue" stroke="midnightblue" points="1123.33,-203.49 1132.27,-197.82 1121.74,-196.67 1123.33,-203.49"/>
</g>
<!-- Node21 -->
<g id="node21" class="node">
<title>Node21</title>
<g id="a_node21"><a xlink:href="giraffe__diagnostic__ids_8hpp.html" target="_top" xlink:title=" ">
<polygon fill="none" stroke="black" points="923.85,-112.5 923.85,-142.5 1027.85,-142.5 1027.85,-112.5 923.85,-112.5"/>
<text text-anchor="start" x="931.85" y="-130.5" font-family="Helvetica,sans-Serif" font-size="10.00">giraffe_diagnostic</text>
<text text-anchor="middle" x="975.85" y="-119.5" font-family="Helvetica,sans-Serif" font-size="10.00">_ids.hpp</text>
</a>
</g>
</g>
<!-- Node18&#45;&gt;Node21 -->
<g id="edge31" class="edge">
<title>Node18&#45;&gt;Node21</title>
<path fill="none" stroke="midnightblue" d="M937,-235.32C943.37,-217.81 957.94,-177.75 967.31,-151.97"/>
<polygon fill="midnightblue" stroke="midnightblue" points="970.61,-153.14 970.74,-142.55 964.03,-150.75 970.61,-153.14"/>
</g>
<!-- Node18&#45;&gt;Node22 -->
<g id="edge32" class="edge">
<title>Node18&#45;&gt;Node22</title>
<path fill="none" stroke="midnightblue" d="M956.35,-235.44C979.93,-226.48 1017.17,-212.31 1043.81,-202.18"/>
<polygon fill="midnightblue" stroke="midnightblue" points="1045.35,-205.34 1053.45,-198.52 1042.86,-198.8 1045.35,-205.34"/>
</g>
<!-- Node19&#45;&gt;Node9 -->
<g id="edge29" class="edge">
<title>Node19&#45;&gt;Node9</title>
<path fill="none" stroke="midnightblue" d="M1199.6,-181.2C1204.37,-180.38 1209.23,-179.61 1213.85,-179 1264.01,-172.33 1633.51,-180.17 1667.85,-143 1682.38,-127.27 1673.34,-101.59 1664.48,-84.5"/>
<polygon fill="midnightblue" stroke="midnightblue" points="1667.41,-82.57 1659.46,-75.57 1661.31,-86 1667.41,-82.57"/>
</g>
<!-- Node20 -->
<g id="node20" class="node">
<title>Node20</title>
<g id="a_node20"><a xlink:title=" ">
<polygon fill="none" stroke="#bfbfbf" points="1720.35,-118 1720.35,-137 1813.35,-137 1813.35,-118 1720.35,-118"/>
<text text-anchor="middle" x="1766.85" y="-125" font-family="Helvetica,sans-Serif" font-size="10.00">unordered_map</text>
</a>
</g>
</g>
<!-- Node19&#45;&gt;Node20 -->
<g id="edge30" class="edge">
<title>Node19&#45;&gt;Node20</title>
<path fill="none" stroke="midnightblue" d="M1199.6,-181.18C1204.37,-180.36 1209.22,-179.6 1213.85,-179 1431.27,-150.75 1489.16,-176.46 1705.85,-143 1712.13,-142.03 1718.72,-140.75 1725.15,-139.35"/>
<polygon fill="midnightblue" stroke="midnightblue" points="1726.1,-142.72 1735.06,-137.07 1724.53,-135.9 1726.1,-142.72"/>
</g>
<!-- Node22&#45;&gt;Node6 -->
<g id="edge38" class="edge">
<title>Node22&#45;&gt;Node6</title>
<path fill="none" stroke="midnightblue" d="M1074.09,-179.24C1070.36,-163.05 1059.99,-128.59 1036.85,-112 1027.53,-105.32 893.31,-87.23 806.67,-76.12"/>
<polygon fill="midnightblue" stroke="midnightblue" points="806.97,-72.63 796.61,-74.84 806.09,-79.58 806.97,-72.63"/>
</g>
<!-- Node22&#45;&gt;Node9 -->
<g id="edge35" class="edge">
<title>Node22&#45;&gt;Node9</title>
<path fill="none" stroke="midnightblue" d="M1114.56,-180.35C1117.7,-179.85 1120.82,-179.39 1123.85,-179 1179.75,-171.79 1585.6,-177.91 1629.85,-143 1647.04,-129.44 1652.15,-103.6 1653.54,-85.85"/>
<polygon fill="midnightblue" stroke="midnightblue" points="1657.04,-85.94 1654.01,-75.79 1650.05,-85.62 1657.04,-85.94"/>
</g>
<!-- Node22&#45;&gt;Node13 -->
<g id="edge37" class="edge">
<title>Node22&#45;&gt;Node13</title>
<path fill="none" stroke="midnightblue" d="M1037.25,-187.55C931.83,-185.87 641.02,-178.08 552.85,-143 532.27,-134.81 534.07,-121.02 513.85,-112 472.49,-93.55 341.82,-77.3 280.38,-70.45"/>
<polygon fill="midnightblue" stroke="midnightblue" points="280.42,-66.93 270.09,-69.32 279.65,-73.89 280.42,-66.93"/>
</g>
<!-- Node22&#45;&gt;Node14 -->
<g id="edge47" class="edge">
<title>Node22&#45;&gt;Node14</title>
<path fill="none" stroke="midnightblue" d="M1078.18,-179.2C1081.76,-163.56 1086.54,-130.81 1069.85,-112 1046.18,-85.32 945.25,-73.92 887.27,-69.5"/>
<polygon fill="midnightblue" stroke="midnightblue" points="887.2,-65.98 876.98,-68.75 886.7,-72.96 887.2,-65.98"/>
</g>
<!-- Node22&#45;&gt;Node17 -->
<g id="edge48" class="edge">
<title>Node22&#45;&gt;Node17</title>
<path fill="none" stroke="midnightblue" d="M1037.3,-183.13C953.36,-172.53 753.87,-147.33 658.04,-135.22"/>
<polygon fill="midnightblue" stroke="midnightblue" points="658.35,-131.73 647.99,-133.95 657.47,-138.68 658.35,-131.73"/>
</g>
<!-- Node22&#45;&gt;Node21 -->
<g id="edge46" class="edge">
<title>Node22&#45;&gt;Node21</title>
<path fill="none" stroke="midnightblue" d="M1061.52,-179.48C1047.72,-171.27 1026.37,-158.56 1008.43,-147.88"/>
<polygon fill="midnightblue" stroke="midnightblue" points="1009.8,-144.63 999.42,-142.52 1006.22,-150.64 1009.8,-144.63"/>
</g>
<!-- Node23 -->
<g id="node23" class="node">
<title>Node23</title>
<g id="a_node23"><a xlink:title=" ">
<polygon fill="none" stroke="#bfbfbf" points="779.85,-118 779.85,-137 829.85,-137 829.85,-118 779.85,-118"/>
<text text-anchor="middle" x="804.85" y="-125" font-family="Helvetica,sans-Serif" font-size="10.00">atomic</text>
</a>
</g>
</g>
<!-- Node22&#45;&gt;Node23 -->
<g id="edge33" class="edge">
<title>Node22&#45;&gt;Node23</title>
<path fill="none" stroke="midnightblue" d="M1037.31,-179.54C984.54,-167.95 890.56,-147.32 839.76,-136.17"/>
<polygon fill="midnightblue" stroke="midnightblue" points="840.42,-132.73 829.91,-134 838.92,-139.56 840.42,-132.73"/>
</g>
<!-- Node24 -->
<g id="node24" class="node">
<title>Node24</title>
<g id="a_node24"><a xlink:title=" ">
<polygon fill="none" stroke="#bfbfbf" points="1121.85,-118 1121.85,-137 1181.85,-137 1181.85,-118 1121.85,-118"/>
<text text-anchor="middle" x="1151.85" y="-125" font-family="Helvetica,sans-Serif" font-size="10.00">iostream</text>
</a>
</g>
</g>
<!-- Node22&#45;&gt;Node24 -->
<g id="edge34" class="edge">
<title>Node22&#45;&gt;Node24</title>
<path fill="none" stroke="midnightblue" d="M1086.74,-179.48C1098.81,-170.02 1118.52,-154.6 1133.09,-143.19"/>
<polygon fill="midnightblue" stroke="midnightblue" points="1135.26,-145.93 1140.98,-137.01 1130.95,-140.42 1135.26,-145.93"/>
</g>
<!-- Node25 -->
<g id="node25" class="node">
<title>Node25</title>
<g id="a_node25"><a xlink:title=" ">
<polygon fill="none" stroke="#bfbfbf" points="1554.35,-56.5 1554.35,-75.5 1601.35,-75.5 1601.35,-56.5 1554.35,-56.5"/>
<text text-anchor="middle" x="1577.85" y="-63.5" font-family="Helvetica,sans-Serif" font-size="10.00">queue</text>
</a>
</g>
</g>
<!-- Node22&#45;&gt;Node25 -->
<g id="edge36" class="edge">
<title>Node22&#45;&gt;Node25</title>
<path fill="none" stroke="midnightblue" d="M1114.57,-180.39C1117.7,-179.88 1120.82,-179.41 1123.85,-179 1171.91,-172.52 1521.89,-174.4 1558.85,-143 1575.17,-129.13 1578.6,-103.56 1578.82,-85.94"/>
<polygon fill="midnightblue" stroke="midnightblue" points="1582.32,-85.63 1578.61,-75.71 1575.32,-85.78 1582.32,-85.63"/>
</g>
<!-- Node26 -->
<g id="node26" class="node">
<title>Node26</title>
<g id="a_node26"><a xlink:title=" ">
<polygon fill="none" stroke="#bfbfbf" points="1199.85,-118 1199.85,-137 1347.85,-137 1347.85,-118 1199.85,-118"/>
<text text-anchor="middle" x="1273.85" y="-125" font-family="Helvetica,sans-Serif" font-size="10.00">BoosterSeat/exception.hpp</text>
</a>
</g>
</g>
<!-- Node22&#45;&gt;Node26 -->
<g id="edge39" class="edge">
<title>Node22&#45;&gt;Node26</title>
<path fill="none" stroke="midnightblue" d="M1104.22,-179.48C1138.77,-169.09 1197.27,-151.51 1235.73,-139.95"/>
<polygon fill="midnightblue" stroke="midnightblue" points="1236.96,-143.24 1245.53,-137.01 1234.95,-136.54 1236.96,-143.24"/>
</g>
<!-- Node27 -->
<g id="node27" class="node">
<title>Node27</title>
<g id="a_node27"><a xlink:href="command_8hpp.html" target="_top" xlink:title="The command/queue system for the flight system.">
<polygon fill="none" stroke="black" points="1463.85,-118 1463.85,-137 1549.85,-137 1549.85,-118 1463.85,-118"/>
<text text-anchor="middle" x="1506.85" y="-125" font-family="Helvetica,sans-Serif" font-size="10.00">command.hpp</text>
</a>
</g>
</g>
<!-- Node22&#45;&gt;Node27 -->
<g id="edge40" class="edge">
<title>Node22&#45;&gt;Node27</title>
<path fill="none" stroke="midnightblue" d="M1114.58,-180.47C1117.71,-179.95 1120.83,-179.45 1123.85,-179 1270.23,-157.35 1309.54,-170.97 1454.85,-143 1459.66,-142.07 1464.67,-140.92 1469.6,-139.68"/>
<polygon fill="midnightblue" stroke="midnightblue" points="1470.76,-142.99 1479.52,-137.02 1468.96,-136.23 1470.76,-142.99"/>
</g>
<!-- Node29 -->
<g id="node29" class="node">
<title>Node29</title>
<g id="a_node29"><a xlink:href="data__ids_8hpp.html" target="_top" xlink:title=" ">
<polygon fill="none" stroke="black" points="1366.35,-118 1366.35,-137 1445.35,-137 1445.35,-118 1366.35,-118"/>
<text text-anchor="middle" x="1405.85" y="-125" font-family="Helvetica,sans-Serif" font-size="10.00">data_ids.hpp</text>
</a>
</g>
</g>
<!-- Node22&#45;&gt;Node29 -->
<g id="edge45" class="edge">
<title>Node22&#45;&gt;Node29</title>
<path fill="none" stroke="midnightblue" d="M1114.6,-180.62C1117.73,-180.06 1120.84,-179.51 1123.85,-179 1227.13,-161.34 1254.6,-165.92 1356.85,-143 1360.99,-142.07 1365.29,-140.99 1369.55,-139.83"/>
<polygon fill="midnightblue" stroke="midnightblue" points="1370.65,-143.16 1379.32,-137.06 1368.74,-136.42 1370.65,-143.16"/>
</g>
<!-- Node27&#45;&gt;Node9 -->
<g id="edge41" class="edge">
<title>Node27&#45;&gt;Node9</title>
<path fill="none" stroke="midnightblue" d="M1527.91,-117.98C1552.91,-107.86 1594.79,-90.9 1623.33,-79.35"/>
<polygon fill="midnightblue" stroke="midnightblue" points="1624.87,-82.51 1632.83,-75.51 1622.24,-76.02 1624.87,-82.51"/>
</g>
<!-- Node27&#45;&gt;Node14 -->
<g id="edge44" class="edge">
<title>Node27&#45;&gt;Node14</title>
<path fill="none" stroke="midnightblue" d="M1480.09,-117.95C1472.05,-115.67 1463.16,-113.45 1454.85,-112 1243.49,-75.1 985.71,-68.42 887,-67.24"/>
<polygon fill="midnightblue" stroke="midnightblue" points="886.88,-63.74 876.85,-67.13 886.81,-70.74 886.88,-63.74"/>
</g>
<!-- Node27&#45;&gt;Node25 -->
<g id="edge42" class="edge">
<title>Node27&#45;&gt;Node25</title>
<path fill="none" stroke="midnightblue" d="M1517.02,-117.98C1528.2,-108.61 1546.36,-93.38 1559.94,-82.01"/>
<polygon fill="midnightblue" stroke="midnightblue" points="1562.28,-84.61 1567.69,-75.51 1557.78,-79.25 1562.28,-84.61"/>
</g>
<!-- Node28 -->
<g id="node28" class="node">
<title>Node28</title>
<g id="a_node28"><a xlink:href="command__ids_8hpp.html" target="_top" xlink:title=" ">
<polygon fill="none" stroke="black" points="1429.85,-56.5 1429.85,-75.5 1535.85,-75.5 1535.85,-56.5 1429.85,-56.5"/>
<text text-anchor="middle" x="1482.85" y="-63.5" font-family="Helvetica,sans-Serif" font-size="10.00">command_ids.hpp</text>
</a>
</g>
</g>
<!-- Node27&#45;&gt;Node28 -->
<g id="edge43" class="edge">
<title>Node27&#45;&gt;Node28</title>
<path fill="none" stroke="midnightblue" d="M1503.41,-117.98C1499.95,-109.4 1494.52,-95.93 1490.1,-84.98"/>
<polygon fill="midnightblue" stroke="midnightblue" points="1493.27,-83.47 1486.28,-75.51 1486.78,-86.09 1493.27,-83.47"/>
</g>
<!-- Node30&#45;&gt;Node6 -->
<g id="edge52" class="edge">
<title>Node30&#45;&gt;Node6</title>
<path fill="none" stroke="midnightblue" d="M348.45,-238.48C418.27,-228.32 555.85,-202.01 656.85,-143 683.23,-127.59 707.17,-101.08 721.12,-83.8"/>
<polygon fill="midnightblue" stroke="midnightblue" points="724.05,-85.74 727.47,-75.71 718.54,-81.42 724.05,-85.74"/>
</g>
<!-- Node30&#45;&gt;Node7 -->
<g id="edge53" class="edge">
<title>Node30&#45;&gt;Node7</title>
<path fill="none" stroke="midnightblue" d="M259.19,-235.56C235.86,-229.08 208.39,-217.92 189.85,-199 158.72,-167.23 147.09,-113.95 142.96,-85.78"/>
<polygon fill="midnightblue" stroke="midnightblue" points="146.41,-85.15 141.65,-75.68 139.47,-86.05 146.41,-85.15"/>
</g>
<!-- Node30&#45;&gt;Node11 -->
<g id="edge58" class="edge">
<title>Node30&#45;&gt;Node11</title>
<path fill="none" stroke="midnightblue" d="M310.39,-235.46C319.17,-222.91 332.77,-198.82 324.85,-179 319.25,-165 307.72,-152.65 297.37,-143.68"/>
<polygon fill="midnightblue" stroke="midnightblue" points="299.41,-140.83 289.45,-137.23 294.99,-146.26 299.41,-140.83"/>
</g>
<!-- Node30&#45;&gt;Node13 -->
<g id="edge51" class="edge">
<title>Node30&#45;&gt;Node13</title>
<path fill="none" stroke="midnightblue" d="M259.18,-236.22C237.69,-229.98 213.83,-218.84 200.85,-199 192.38,-186.06 184.73,-160.23 205.85,-112 210.85,-100.58 220.02,-90.22 228.52,-82.32"/>
<polygon fill="midnightblue" stroke="midnightblue" points="231.05,-84.76 236.3,-75.56 226.46,-79.48 231.05,-84.76"/>
</g>
<!-- Node30&#45;&gt;Node23 -->
<g id="edge50" class="edge">
<title>Node30&#45;&gt;Node23</title>
<path fill="none" stroke="midnightblue" d="M348.39,-244.57C449.68,-245.09 693.75,-241.74 761.85,-199 780.77,-187.12 792.59,-163.57 798.94,-146.97"/>
<polygon fill="midnightblue" stroke="midnightblue" points="802.34,-147.85 802.35,-137.25 795.74,-145.53 802.34,-147.85"/>
</g>
<!-- Node30&#45;&gt;Node31 -->
<g id="edge54" class="edge">
<title>Node30&#45;&gt;Node31</title>
<path fill="none" stroke="midnightblue" d="M266.29,-235.44C225.04,-226.04 158.7,-210.93 113.98,-200.74"/>
<polygon fill="midnightblue" stroke="midnightblue" points="114.75,-197.33 104.23,-198.52 113.2,-204.15 114.75,-197.33"/>
</g>
<!-- Node32 -->
<g id="node32" class="node">
<title>Node32</title>
<g id="a_node32"><a xlink:href="i__built__in__test_8hpp.html" target="_top" xlink:title=" ">
<polygon fill="none" stroke="black" points="209.85,-179.5 209.85,-198.5 315.85,-198.5 315.85,-179.5 209.85,-179.5"/>
<text text-anchor="middle" x="262.85" y="-186.5" font-family="Helvetica,sans-Serif" font-size="10.00">i_built_in_test.hpp</text>
</a>
</g>
</g>
<!-- Node30&#45;&gt;Node32 -->
<g id="edge56" class="edge">
<title>Node30&#45;&gt;Node32</title>
<path fill="none" stroke="midnightblue" d="M297.08,-235.08C291.29,-227.46 282.79,-216.26 275.71,-206.94"/>
<polygon fill="midnightblue" stroke="midnightblue" points="278.33,-204.6 269.49,-198.75 272.75,-208.83 278.33,-204.6"/>
</g>
<!-- Node31&#45;&gt;Node13 -->
<g id="edge55" class="edge">
<title>Node31&#45;&gt;Node13</title>
<path fill="none" stroke="midnightblue" d="M77.42,-179.3C95.44,-164.65 133.49,-134.45 167.85,-112 185.41,-100.52 206.07,-88.95 222,-80.41"/>
<polygon fill="midnightblue" stroke="midnightblue" points="224.03,-83.29 231.23,-75.52 220.76,-77.11 224.03,-83.29"/>
</g>
<!-- Node32&#45;&gt;Node11 -->
<g id="edge57" class="edge">
<title>Node32&#45;&gt;Node11</title>
<path fill="none" stroke="midnightblue" d="M264.85,-179.48C266.85,-170.99 269.98,-157.7 272.54,-146.82"/>
<polygon fill="midnightblue" stroke="midnightblue" points="275.96,-147.54 274.85,-137.01 269.15,-145.94 275.96,-147.54"/>
</g>
<!-- Node33&#45;&gt;Node9 -->
<g id="edge63" class="edge">
<title>Node33&#45;&gt;Node9</title>
<path fill="none" stroke="midnightblue" d="M1619.44,-240.13C1679.83,-232.52 1777.35,-209.95 1822.85,-143 1857.3,-92.29 1746.82,-74.97 1688.09,-69.42"/>
<polygon fill="midnightblue" stroke="midnightblue" points="1688.38,-65.93 1678.11,-68.54 1687.77,-72.9 1688.38,-65.93"/>
</g>
<!-- Node34 -->
<g id="node34" class="node">
<title>Node34</title>
<g id="a_node34"><a xlink:title=" ">
<polygon fill="none" stroke="#bfbfbf" points="1544.35,-179.5 1544.35,-198.5 1591.35,-198.5 1591.35,-179.5 1544.35,-179.5"/>
<text text-anchor="middle" x="1567.85" y="-186.5" font-family="Helvetica,sans-Serif" font-size="10.00">deque</text>
</a>
</g>
</g>
<!-- Node33&#45;&gt;Node34 -->
<g id="edge62" class="edge">
<title>Node33&#45;&gt;Node34</title>
<path fill="none" stroke="midnightblue" d="M1567.85,-235.08C1567.85,-228.01 1567.85,-217.86 1567.85,-208.99"/>
<polygon fill="midnightblue" stroke="midnightblue" points="1571.35,-208.75 1567.85,-198.75 1564.35,-208.75 1571.35,-208.75"/>
</g>
<!-- Node35&#45;&gt;Node23 -->
<g id="edge65" class="edge">
<title>Node35&#45;&gt;Node23</title>
<path fill="none" stroke="midnightblue" d="M788,-235.42C790.21,-226.4 793.62,-211.77 795.85,-199 798.9,-181.54 801.36,-161.49 802.93,-147.24"/>
<polygon fill="midnightblue" stroke="midnightblue" points="806.42,-147.54 803.99,-137.22 799.46,-146.79 806.42,-147.54"/>
</g>
<!-- Node36&#45;&gt;Node11 -->
<g id="edge71" class="edge">
<title>Node36&#45;&gt;Node11</title>
<path fill="none" stroke="midnightblue" d="M1037.66,-239.72C945.02,-230.49 729.76,-208.76 656.85,-199 502.45,-178.33 460.48,-186.32 310.85,-143 308.56,-142.34 306.22,-141.56 303.89,-140.72"/>
<polygon fill="midnightblue" stroke="midnightblue" points="305.13,-137.45 294.55,-137.01 302.55,-143.95 305.13,-137.45"/>
</g>
<!-- Node36&#45;&gt;Node13 -->
<g id="edge69" class="edge">
<title>Node36&#45;&gt;Node13</title>
<path fill="none" stroke="midnightblue" d="M1037.82,-239.49C1022.67,-237.97 1005.51,-236.33 989.85,-235 762.99,-215.79 703.97,-232.97 478.85,-199 451.77,-194.91 255.87,-164.45 238.85,-143 225.85,-126.62 232.23,-101.67 239.08,-84.87"/>
<polygon fill="midnightblue" stroke="midnightblue" points="242.33,-86.16 243.23,-75.61 235.95,-83.3 242.33,-86.16"/>
</g>
<!-- Node36&#45;&gt;Node20 -->
<g id="edge70" class="edge">
<title>Node36&#45;&gt;Node20</title>
<path fill="none" stroke="midnightblue" d="M1108.76,-235.49C1135,-227.19 1175.17,-213.69 1208.85,-199 1226.34,-191.37 1228.52,-184.33 1246.85,-179 1434.39,-124.41 1491.14,-168.03 1684.85,-143 1694.01,-141.82 1703.7,-140.32 1713.1,-138.74"/>
<polygon fill="midnightblue" stroke="midnightblue" points="1713.87,-142.16 1723.13,-137.01 1712.68,-135.26 1713.87,-142.16"/>
</g>
<!-- Node36&#45;&gt;Node22 -->
<g id="edge72" class="edge">
<title>Node36&#45;&gt;Node22</title>
<path fill="none" stroke="midnightblue" d="M1080.02,-235.08C1079.37,-228.01 1078.43,-217.86 1077.61,-208.99"/>
<polygon fill="midnightblue" stroke="midnightblue" points="1081.07,-208.39 1076.66,-198.75 1074.1,-209.03 1081.07,-208.39"/>
</g>
<!-- Node37 -->
<g id="node37" class="node">
<title>Node37</title>
<g id="a_node37"><a xlink:title=" ">
<polygon fill="none" stroke="#bfbfbf" points="1255.85,-179.5 1255.85,-198.5 1299.85,-198.5 1299.85,-179.5 1255.85,-179.5"/>
<text text-anchor="middle" x="1277.85" y="-186.5" font-family="Helvetica,sans-Serif" font-size="10.00">regex</text>
</a>
</g>
</g>
<!-- Node36&#45;&gt;Node37 -->
<g id="edge68" class="edge">
<title>Node36&#45;&gt;Node37</title>
<path fill="none" stroke="midnightblue" d="M1112.06,-235.44C1148.66,-225.41 1208.98,-208.88 1245.89,-198.76"/>
<polygon fill="midnightblue" stroke="midnightblue" points="1246.92,-202.11 1255.64,-196.09 1245.07,-195.35 1246.92,-202.11"/>
</g>
</g>
</svg>
