<?xml version="1.0" encoding="UTF-8" standalone="no"?>
<!DOCTYPE svg PUBLIC "-//W3C//DTD SVG 1.1//EN"
 "http://www.w3.org/Graphics/SVG/1.1/DTD/svg11.dtd">
<!-- Generated by graphviz version 2.43.0 (0)
 -->
<!-- Title: FlightPhaseManager::requestLaunch Pages: 1 -->
<svg width="702pt" height="76pt"
 viewBox="0.00 0.00 702.00 75.50" xmlns="http://www.w3.org/2000/svg" xmlns:xlink="http://www.w3.org/1999/xlink">
<g id="graph0" class="graph" transform="scale(1 1) rotate(0) translate(4 71.5)">
<title>FlightPhaseManager::requestLaunch</title>
<!-- Node1 -->
<g id="Node000001" class="node">
<title>Node1</title>
<g id="a_Node000001"><a xlink:title="Request that the flight phase be changed to launch. Only valid if the current phase is pre&#45;launch.">
<polygon fill="#999999" stroke="#666666" points="694,-45.5 578,-45.5 578,-15.5 694,-15.5 694,-45.5"/>
<text text-anchor="start" x="586" y="-33.5" font-family="Helvetica,sans-Serif" font-size="10.00">FlightPhaseManager</text>
<text text-anchor="middle" x="636" y="-22.5" font-family="Helvetica,sans-Serif" font-size="10.00">::requestLaunch</text>
</a>
</g>
</g>
<!-- Node2 -->
<g id="Node000002" class="node">
<title>Node2</title>
<g id="a_Node000002"><a xlink:href="classFlightPhaseManagerTest.html#a9e109b11c6b9fe47b66a5abe660fb142" target="_top" xlink:title=" ">
<polygon fill="white" stroke="#666666" points="523.5,-67.5 387.5,-67.5 387.5,-37.5 523.5,-37.5 523.5,-67.5"/>
<text text-anchor="start" x="395.5" y="-55.5" font-family="Helvetica,sans-Serif" font-size="10.00">FlightPhaseManagerTest</text>
<text text-anchor="middle" x="455.5" y="-44.5" font-family="Helvetica,sans-Serif" font-size="10.00">::bringToLaunch</text>
</a>
</g>
</g>
<!-- Node1&#45;&gt;Node2 -->
<g id="edge1_Node000001_Node000002" class="edge">
<title>Node1&#45;&gt;Node2</title>
<g id="a_edge1_Node000001_Node000002"><a xlink:title=" ">
<path fill="none" stroke="#63b8ff" d="M567.32,-38.84C553.07,-40.6 538.04,-42.45 523.81,-44.2"/>
<polygon fill="#63b8ff" stroke="#63b8ff" points="568.04,-42.28 577.54,-37.58 567.19,-35.33 568.04,-42.28"/>
</a>
</g>
</g>
<!-- Node5 -->
<g id="Node000005" class="node">
<title>Node5</title>
<g id="a_Node000005"><a xlink:href="classFlightRunner.html#ad17d6bcd13dcb824062d97b36ec7fa96" target="_top" xlink:title="Process commands that are sent to the flight runner.">
<polygon fill="white" stroke="#666666" points="542,-19 369,-19 369,0 542,0 542,-19"/>
<text text-anchor="middle" x="455.5" y="-7" font-family="Helvetica,sans-Serif" font-size="10.00">FlightRunner::processCommand</text>
</a>
</g>
</g>
<!-- Node1&#45;&gt;Node5 -->
<g id="edge4_Node000001_Node000005" class="edge">
<title>Node1&#45;&gt;Node5</title>
<g id="a_edge4_Node000001_Node000005"><a xlink:title=" ">
<path fill="none" stroke="#63b8ff" d="M567.43,-22.55C557.57,-21.39 547.34,-20.19 537.26,-19"/>
<polygon fill="#63b8ff" stroke="#63b8ff" points="567.2,-26.05 577.54,-23.74 568.02,-19.1 567.2,-26.05"/>
</a>
</g>
</g>
<!-- Node3 -->
<g id="Node000003" class="node">
<title>Node3</title>
<g id="a_Node000003"><a xlink:href="classFlightPhaseManagerTest.html#aaab5ea1894a4a238ea30e821247b9c10" target="_top" xlink:title=" ">
<polygon fill="white" stroke="#666666" points="320.5,-67.5 184.5,-67.5 184.5,-37.5 320.5,-37.5 320.5,-67.5"/>
<text text-anchor="start" x="192.5" y="-55.5" font-family="Helvetica,sans-Serif" font-size="10.00">FlightPhaseManagerTest</text>
<text text-anchor="middle" x="252.5" y="-44.5" font-family="Helvetica,sans-Serif" font-size="10.00">::bringToAscent</text>
</a>
</g>
</g>
<!-- Node2&#45;&gt;Node3 -->
<g id="edge2_Node000002_Node000003" class="edge">
<title>Node2&#45;&gt;Node3</title>
<g id="a_edge2_Node000002_Node000003"><a xlink:title=" ">
<path fill="none" stroke="#63b8ff" d="M377.08,-52.5C358.47,-52.5 338.75,-52.5 320.65,-52.5"/>
<polygon fill="#63b8ff" stroke="#63b8ff" points="377.29,-56 387.29,-52.5 377.29,-49 377.29,-56"/>
</a>
</g>
</g>
<!-- Node4 -->
<g id="Node000004" class="node">
<title>Node4</title>
<g id="a_Node000004"><a xlink:href="classFlightPhaseManagerTest.html#a9b4298134e734c7d0e4b219999098819" target="_top" xlink:title=" ">
<polygon fill="white" stroke="#666666" points="136,-67.5 0,-67.5 0,-37.5 136,-37.5 136,-67.5"/>
<text text-anchor="start" x="8" y="-55.5" font-family="Helvetica,sans-Serif" font-size="10.00">FlightPhaseManagerTest</text>
<text text-anchor="middle" x="68" y="-44.5" font-family="Helvetica,sans-Serif" font-size="10.00">::bringToDescent</text>
</a>
</g>
</g>
<!-- Node3&#45;&gt;Node4 -->
<g id="edge3_Node000003_Node000004" class="edge">
<title>Node3&#45;&gt;Node4</title>
<g id="a_edge3_Node000003_Node000004"><a xlink:title=" ">
<path fill="none" stroke="#63b8ff" d="M174.23,-52.5C161.53,-52.5 148.46,-52.5 136.04,-52.5"/>
<polygon fill="#63b8ff" stroke="#63b8ff" points="174.32,-56 184.32,-52.5 174.32,-49 174.32,-56"/>
</a>
</g>
</g>
<!-- Node6 -->
<g id="Node000006" class="node">
<title>Node6</title>
<g id="a_Node000006"><a xlink:href="classFlightRunner.html#a6407ba5e7fca2d91a216ab35e58fd7b3" target="_top" xlink:title="Sends a command to the proper module.">
<polygon fill="white" stroke="#666666" points="333,-19 172,-19 172,0 333,0 333,-19"/>
<text text-anchor="middle" x="252.5" y="-7" font-family="Helvetica,sans-Serif" font-size="10.00">FlightRunner::routeCommand</text>
</a>
</g>
</g>
<!-- Node5&#45;&gt;Node6 -->
<g id="edge5_Node000005_Node000006" class="edge">
<title>Node5&#45;&gt;Node6</title>
<g id="a_edge5_Node000005_Node000006"><a xlink:title=" ">
<path fill="none" stroke="#63b8ff" d="M358.91,-9.5C350.31,-9.5 341.66,-9.5 333.21,-9.5"/>
<polygon fill="#63b8ff" stroke="#63b8ff" points="358.97,-13 368.97,-9.5 358.97,-6 358.97,-13"/>
</a>
</g>
</g>
</g>
</svg>
