<?xml version="1.0" encoding="UTF-8" standalone="no"?>
<!DOCTYPE svg PUBLIC "-//W3C//DTD SVG 1.1//EN"
 "http://www.w3.org/Graphics/SVG/1.1/DTD/svg11.dtd">
<!-- Generated by graphviz version 2.43.0 (0)
 -->
<!-- Title: data::ErrorFrame::getActiveErrorIds Pages: 1 -->
<svg width="699pt" height="39pt"
 viewBox="0.00 0.00 699.00 39.00" xmlns="http://www.w3.org/2000/svg" xmlns:xlink="http://www.w3.org/1999/xlink">
<g id="graph0" class="graph" transform="scale(1 1) rotate(0) translate(4 35)">
<title>data::ErrorFrame::getActiveErrorIds</title>
<!-- Node1 -->
<g id="node1" class="node">
<title>Node1</title>
<g id="a_node1"><a xlink:title="Get all active error ids that are currently in the frame.">
<polygon fill="#bfbfbf" stroke="black" points="540,-0.5 540,-30.5 691,-30.5 691,-0.5 540,-0.5"/>
<text text-anchor="start" x="548" y="-18.5" font-family="Helvetica,sans-Serif" font-size="10.00">data::ErrorFrame::getActive</text>
<text text-anchor="middle" x="615.5" y="-7.5" font-family="Helvetica,sans-Serif" font-size="10.00">ErrorIds</text>
</a>
</g>
</g>
<!-- Node2 -->
<g id="node2" class="node">
<title>Node2</title>
<g id="a_node2"><a xlink:href="request__handler__data_8cpp.html#a9cbb54ee75e9c708cbe614a2719224d5" target="_top" xlink:title=" ">
<polygon fill="none" stroke="black" points="394,-6 394,-25 504,-25 504,-6 394,-6"/>
<text text-anchor="middle" x="449" y="-13" font-family="Helvetica,sans-Serif" font-size="10.00">getErrorFrameData</text>
</a>
</g>
</g>
<!-- Node1&#45;&gt;Node2 -->
<g id="edge1" class="edge">
<title>Node1&#45;&gt;Node2</title>
<path fill="none" stroke="midnightblue" d="M529.74,-15.5C521.03,-15.5 512.36,-15.5 504.12,-15.5"/>
<polygon fill="midnightblue" stroke="midnightblue" points="529.95,-19 539.95,-15.5 529.95,-12 529.95,-19"/>
</g>
<!-- Node3 -->
<g id="node3" class="node">
<title>Node3</title>
<g id="a_node3"><a xlink:href="group__ServerModule.html#a483e4efc0deb643ee4fdef7cb88f66b7" target="_top" xlink:title="This function responds to data requests.">
<polygon fill="none" stroke="black" points="207,-0.5 207,-30.5 358,-30.5 358,-0.5 207,-0.5"/>
<text text-anchor="start" x="215" y="-18.5" font-family="Helvetica,sans-Serif" font-size="10.00">RequestRouter::handleData</text>
<text text-anchor="middle" x="282.5" y="-7.5" font-family="Helvetica,sans-Serif" font-size="10.00">Request</text>
</a>
</g>
</g>
<!-- Node2&#45;&gt;Node3 -->
<g id="edge2" class="edge">
<title>Node2&#45;&gt;Node3</title>
<path fill="none" stroke="midnightblue" d="M383.6,-15.5C375.21,-15.5 366.56,-15.5 358.02,-15.5"/>
<polygon fill="midnightblue" stroke="midnightblue" points="383.68,-19 393.68,-15.5 383.68,-12 383.68,-19"/>
</g>
<!-- Node4 -->
<g id="node4" class="node">
<title>Node4</title>
<g id="a_node4"><a xlink:href="group__ServerModule.html#ad77e0ae3d2cd0daba1388e7d7ffa1393" target="_top" xlink:title="This function is responsible for parsing a request and routing it to the right place.">
<polygon fill="none" stroke="black" points="0,-6 0,-25 171,-25 171,-6 0,-6"/>
<text text-anchor="middle" x="85.5" y="-13" font-family="Helvetica,sans-Serif" font-size="10.00">RequestRouter::handleMessage</text>
</a>
</g>
</g>
<!-- Node3&#45;&gt;Node4 -->
<g id="edge3" class="edge">
<title>Node3&#45;&gt;Node4</title>
<path fill="none" stroke="midnightblue" d="M196.68,-15.5C188.2,-15.5 179.59,-15.5 171.11,-15.5"/>
<polygon fill="midnightblue" stroke="midnightblue" points="196.94,-19 206.94,-15.5 196.94,-12 196.94,-19"/>
</g>
</g>
</svg>
