<?xml version="1.0" encoding="UTF-8" standalone="no"?>
<!DOCTYPE svg PUBLIC "-//W3C//DTD SVG 1.1//EN"
 "http://www.w3.org/Graphics/SVG/1.1/DTD/svg11.dtd">
<!-- Generated by graphviz version 2.43.0 (0)
 -->
<!-- Title: extension::SamM8q::handshake Pages: 1 -->
<svg width="507pt" height="39pt"
 viewBox="0.00 0.00 507.00 39.00" xmlns="http://www.w3.org/2000/svg" xmlns:xlink="http://www.w3.org/1999/xlink">
<g id="graph0" class="graph" transform="scale(1 1) rotate(0) translate(4 35)">
<title>extension::SamM8q::handshake</title>
<!-- Node1 -->
<g id="node1" class="node">
<title>Node1</title>
<g id="a_node1"><a xlink:title=" ">
<polygon fill="#bfbfbf" stroke="black" points="0,-0.5 0,-30.5 119,-30.5 119,-0.5 0,-0.5"/>
<text text-anchor="start" x="8" y="-18.5" font-family="Helvetica,sans-Serif" font-size="10.00">extension::SamM8q::</text>
<text text-anchor="middle" x="59.5" y="-7.5" font-family="Helvetica,sans-Serif" font-size="10.00">handshake</text>
</a>
</g>
</g>
<!-- Node2 -->
<g id="node2" class="node">
<title>Node2</title>
<g id="a_node2"><a xlink:href="classI2cInterface.html#ad067c20fef20b8338d0e4ec12dc94ec6" target="_top" xlink:title="Read a single byte from the device at the specified register.">
<polygon fill="none" stroke="black" points="155,-6 155,-25 323,-25 323,-6 155,-6"/>
<text text-anchor="middle" x="239" y="-13" font-family="Helvetica,sans-Serif" font-size="10.00">I2cInterface::readByteFromReg</text>
</a>
</g>
</g>
<!-- Node1&#45;&gt;Node2 -->
<g id="edge1" class="edge">
<title>Node1&#45;&gt;Node2</title>
<path fill="none" stroke="midnightblue" d="M119.11,-15.5C127.31,-15.5 135.9,-15.5 144.56,-15.5"/>
<polygon fill="midnightblue" stroke="midnightblue" points="144.72,-19 154.72,-15.5 144.72,-12 144.72,-19"/>
</g>
<!-- Node3 -->
<g id="node3" class="node">
<title>Node3</title>
<g id="a_node3"><a xlink:href="classI2cInterface.html#a13c00b7b0597cc2223a9a0765afcbf85" target="_top" xlink:title="Checks the file descriptor to see if it&#39;s connected to the bus.">
<polygon fill="none" stroke="black" points="359,-6 359,-25 499,-25 499,-6 359,-6"/>
<text text-anchor="middle" x="429" y="-13" font-family="Helvetica,sans-Serif" font-size="10.00">I2cInterface::isConnected</text>
</a>
</g>
</g>
<!-- Node2&#45;&gt;Node3 -->
<g id="edge2" class="edge">
<title>Node2&#45;&gt;Node3</title>
<path fill="none" stroke="midnightblue" d="M323.01,-15.5C331.54,-15.5 340.19,-15.5 348.68,-15.5"/>
<polygon fill="midnightblue" stroke="midnightblue" points="348.94,-19 358.94,-15.5 348.94,-12 348.94,-19"/>
</g>
</g>
</svg>
