<?xml version="1.0" encoding="UTF-8" standalone="no"?>
<!DOCTYPE svg PUBLIC "-//W3C//DTD SVG 1.1//EN"
 "http://www.w3.org/Graphics/SVG/1.1/DTD/svg11.dtd">
<!-- Generated by graphviz version 2.43.0 (0)
 -->
<!-- Title: giraffe::Gpio::releasePin Pages: 1 -->
<svg width="300pt" height="64pt"
 viewBox="0.00 0.00 300.00 64.00" xmlns="http://www.w3.org/2000/svg" xmlns:xlink="http://www.w3.org/1999/xlink">
<g id="graph0" class="graph" transform="scale(1 1) rotate(0) translate(4 60)">
<title>giraffe::Gpio::releasePin</title>
<!-- Node1 -->
<g id="Node000001" class="node">
<title>Node1</title>
<g id="a_Node000001"><a xlink:title="Release a pin for use by another instance.">
<polygon fill="#999999" stroke="#666666" points="134,-37 0,-37 0,-18 134,-18 134,-37"/>
<text text-anchor="middle" x="67" y="-25" font-family="Helvetica,sans-Serif" font-size="10.00">giraffe::Gpio::releasePin</text>
</a>
</g>
</g>
<!-- Node2 -->
<g id="Node000002" class="node">
<title>Node2</title>
<g id="a_Node000002"><a xlink:href="classgiraffe_1_1Gpio.html#a9a44f3d040cf48ed6d6229617e25117a" target="_top" xlink:title="A function to check if the current instance owns a reserved pin.">
<polygon fill="white" stroke="#666666" points="292,-56 170,-56 170,-37 292,-37 292,-56"/>
<text text-anchor="middle" x="231" y="-44" font-family="Helvetica,sans-Serif" font-size="10.00">giraffe::Gpio::isOwner</text>
</a>
</g>
</g>
<!-- Node1&#45;&gt;Node2 -->
<g id="edge1_Node000001_Node000002" class="edge">
<title>Node1&#45;&gt;Node2</title>
<g id="a_edge1_Node000001_Node000002"><a xlink:title=" ">
<path fill="none" stroke="#63b8ff" d="M134.36,-35.28C142.75,-36.27 151.35,-37.28 159.79,-38.27"/>
<polygon fill="#63b8ff" stroke="#63b8ff" points="159.65,-41.77 169.99,-39.46 160.46,-34.82 159.65,-41.77"/>
</a>
</g>
</g>
<!-- Node3 -->
<g id="Node000003" class="node">
<title>Node3</title>
<g id="a_Node000003"><a xlink:href="gpio_8cpp.html#a3a9d33e33fe014c025aef94a0f9c64a5" target="_top" xlink:title="A function to check if the BCM GPIO registers have been mapped.">
<polygon fill="white" stroke="#666666" points="277,-19 185,-19 185,0 277,0 277,-19"/>
<text text-anchor="middle" x="231" y="-7" font-family="Helvetica,sans-Serif" font-size="10.00">verifyInitialized</text>
</a>
</g>
</g>
<!-- Node1&#45;&gt;Node3 -->
<g id="edge2_Node000001_Node000003" class="edge">
<title>Node1&#45;&gt;Node3</title>
<g id="a_edge2_Node000001_Node000003"><a xlink:title=" ">
<path fill="none" stroke="#63b8ff" d="M134.36,-20.13C147.73,-18.64 161.66,-17.09 174.61,-15.65"/>
<polygon fill="#63b8ff" stroke="#63b8ff" points="175.21,-19.11 184.76,-14.53 174.44,-12.15 175.21,-19.11"/>
</a>
</g>
</g>
</g>
</svg>
