<?xml version="1.0" encoding="UTF-8" standalone="no"?>
<!DOCTYPE svg PUBLIC "-//W3C//DTD SVG 1.1//EN"
 "http://www.w3.org/Graphics/SVG/1.1/DTD/svg11.dtd">
<!-- Generated by graphviz version 2.43.0 (0)
 -->
<!-- Title: modules::ServerModule Pages: 1 -->
<svg width="142pt" height="682pt"
 viewBox="0.00 0.00 142.00 682.00" xmlns="http://www.w3.org/2000/svg" xmlns:xlink="http://www.w3.org/1999/xlink">
<g id="graph0" class="graph" transform="scale(1 1) rotate(0) translate(4 678)">
<title>modules::ServerModule</title>
<!-- Node1 -->
<g id="Node000001" class="node">
<title>Node1</title>
<g id="a_Node000001"><a xlink:title="The server module. Provides a network interface for interacting with the flight system.">
<polygon fill="#999999" stroke="transparent" points="134,-184 0,-184 0,0 134,0 134,-184"/>
<text text-anchor="start" x="9" y="-172" font-family="Helvetica,sans-Serif" font-size="10.00">modules::ServerModule</text>
<text text-anchor="start" x="6.5" y="-157" font-family="Helvetica,sans-Serif" font-size="10.00">&#45;</text>
<text text-anchor="start" x="17" y="-157" font-family="Helvetica,sans-Serif" font-size="10.00">connected_timeout_</text>
<text text-anchor="start" x="6.5" y="-142" font-family="Helvetica,sans-Serif" font-size="10.00">&#45;</text>
<text text-anchor="start" x="17" y="-142" font-family="Helvetica,sans-Serif" font-size="10.00">request_router_</text>
<text text-anchor="start" x="6.5" y="-127" font-family="Helvetica,sans-Serif" font-size="10.00">&#45;</text>
<text text-anchor="start" x="17" y="-127" font-family="Helvetica,sans-Serif" font-size="10.00">rolling_average_timer_</text>
<text text-anchor="start" x="6.5" y="-112" font-family="Helvetica,sans-Serif" font-size="10.00">&#45;</text>
<text text-anchor="start" x="17" y="-112" font-family="Helvetica,sans-Serif" font-size="10.00">server_socket_</text>
<text text-anchor="start" x="6.5" y="-97" font-family="Helvetica,sans-Serif" font-size="10.00">&#45;</text>
<text text-anchor="start" x="17" y="-97" font-family="Helvetica,sans-Serif" font-size="10.00">stats_</text>
<text text-anchor="start" x="4" y="-82" font-family="Helvetica,sans-Serif" font-size="10.00">+</text>
<text text-anchor="start" x="17" y="-82" font-family="Helvetica,sans-Serif" font-size="10.00">ServerModule()</text>
<text text-anchor="start" x="4" y="-67" font-family="Helvetica,sans-Serif" font-size="10.00">+</text>
<text text-anchor="start" x="17" y="-67" font-family="Helvetica,sans-Serif" font-size="10.00">~ServerModule()</text>
<text text-anchor="start" x="6.5" y="-52" font-family="Helvetica,sans-Serif" font-size="10.00">&#45;</text>
<text text-anchor="start" x="17" y="-52" font-family="Helvetica,sans-Serif" font-size="10.00">loop()</text>
<text text-anchor="start" x="6.5" y="-37" font-family="Helvetica,sans-Serif" font-size="10.00">&#45;</text>
<text text-anchor="start" x="17" y="-37" font-family="Helvetica,sans-Serif" font-size="10.00">processCommand()</text>
<text text-anchor="start" x="6.5" y="-22" font-family="Helvetica,sans-Serif" font-size="10.00">&#45;</text>
<text text-anchor="start" x="17" y="-22" font-family="Helvetica,sans-Serif" font-size="10.00">shutdown()</text>
<text text-anchor="start" x="6.5" y="-7" font-family="Helvetica,sans-Serif" font-size="10.00">&#45;</text>
<text text-anchor="start" x="17" y="-7" font-family="Helvetica,sans-Serif" font-size="10.00">startup()</text>
<polygon fill="#666666" stroke="#666666" points="0,-167 0,-167 134,-167 134,-167 0,-167"/>
<polygon fill="#666666" stroke="#666666" points="0,-92 0,-92 15,-92 15,-92 0,-92"/>
<polygon fill="#666666" stroke="#666666" points="15,-92 15,-92 134,-92 134,-92 15,-92"/>
<polygon fill="none" stroke="#666666" points="0,0 0,-184 134,-184 134,0 0,0"/>
</a>
</g>
</g>
<!-- Node2 -->
<g id="Node000002" class="node">
<title>Node2</title>
<g id="a_Node000002"><a xlink:href="classmodules_1_1Module.html" target="_top" xlink:title=" ">
<polygon fill="white" stroke="transparent" points="126.5,-674 7.5,-674 7.5,-220 126.5,-220 126.5,-674"/>
<text text-anchor="start" x="25" y="-662" font-family="Helvetica,sans-Serif" font-size="10.00">modules::Module</text>
<text text-anchor="start" x="12" y="-647" font-family="Helvetica,sans-Serif" font-size="10.00">#</text>
<text text-anchor="start" x="25" y="-647" font-family="Helvetica,sans-Serif" font-size="10.00">configuration_</text>
<text text-anchor="start" x="12" y="-632" font-family="Helvetica,sans-Serif" font-size="10.00">#</text>
<text text-anchor="start" x="25" y="-632" font-family="Helvetica,sans-Serif" font-size="10.00">metadata_</text>
<text text-anchor="start" x="12" y="-617" font-family="Helvetica,sans-Serif" font-size="10.00">#</text>
<text text-anchor="start" x="25" y="-617" font-family="Helvetica,sans-Serif" font-size="10.00">shared_data_</text>
<text text-anchor="start" x="14.5" y="-602" font-family="Helvetica,sans-Serif" font-size="10.00">&#45;</text>
<text text-anchor="start" x="25" y="-602" font-family="Helvetica,sans-Serif" font-size="10.00">command_queue_</text>
<text text-anchor="start" x="14.5" y="-587" font-family="Helvetica,sans-Serif" font-size="10.00">&#45;</text>
<text text-anchor="start" x="25" y="-587" font-family="Helvetica,sans-Serif" font-size="10.00">runner_thread_</text>
<text text-anchor="start" x="14.5" y="-572" font-family="Helvetica,sans-Serif" font-size="10.00">&#45;</text>
<text text-anchor="start" x="25" y="-572" font-family="Helvetica,sans-Serif" font-size="10.00">status_</text>
<text text-anchor="start" x="14.5" y="-557" font-family="Helvetica,sans-Serif" font-size="10.00">&#45;</text>
<text text-anchor="start" x="25" y="-557" font-family="Helvetica,sans-Serif" font-size="10.00">stop_flag_</text>
<text text-anchor="start" x="12" y="-542" font-family="Helvetica,sans-Serif" font-size="10.00">+</text>
<text text-anchor="start" x="25" y="-542" font-family="Helvetica,sans-Serif" font-size="10.00">Module()</text>
<text text-anchor="start" x="12" y="-527" font-family="Helvetica,sans-Serif" font-size="10.00">+</text>
<text text-anchor="start" x="25" y="-527" font-family="Helvetica,sans-Serif" font-size="10.00">Module()</text>
<text text-anchor="start" x="12" y="-512" font-family="Helvetica,sans-Serif" font-size="10.00">+</text>
<text text-anchor="start" x="25" y="-512" font-family="Helvetica,sans-Serif" font-size="10.00">~Module()</text>
<text text-anchor="start" x="12" y="-497" font-family="Helvetica,sans-Serif" font-size="10.00">+</text>
<text text-anchor="start" x="25" y="-497" font-family="Helvetica,sans-Serif" font-size="10.00">addCommand()</text>
<text text-anchor="start" x="12" y="-482" font-family="Helvetica,sans-Serif" font-size="10.00">+</text>
<text text-anchor="start" x="25" y="-482" font-family="Helvetica,sans-Serif" font-size="10.00">getStatus()</text>
<text text-anchor="start" x="12" y="-467" font-family="Helvetica,sans-Serif" font-size="10.00">+</text>
<text text-anchor="start" x="25" y="-467" font-family="Helvetica,sans-Serif" font-size="10.00">operator=()</text>
<text text-anchor="start" x="12" y="-452" font-family="Helvetica,sans-Serif" font-size="10.00">+</text>
<text text-anchor="start" x="25" y="-452" font-family="Helvetica,sans-Serif" font-size="10.00">start()</text>
<text text-anchor="start" x="12" y="-437" font-family="Helvetica,sans-Serif" font-size="10.00">+</text>
<text text-anchor="start" x="25" y="-437" font-family="Helvetica,sans-Serif" font-size="10.00">stop()</text>
<text text-anchor="start" x="12" y="-422" font-family="Helvetica,sans-Serif" font-size="10.00">#</text>
<text text-anchor="start" x="25" y="-422" font-family="Helvetica,sans-Serif" font-size="10.00">data()</text>
<text text-anchor="start" x="12" y="-407" font-family="Helvetica,sans-Serif" font-size="10.00">#</text>
<text text-anchor="start" x="25" y="-407" font-family="Helvetica,sans-Serif" font-size="10.00">debug()</text>
<text text-anchor="start" x="12" y="-392" font-family="Helvetica,sans-Serif" font-size="10.00">#</text>
<text text-anchor="start" x="25" y="-392" font-family="Helvetica,sans-Serif" font-size="10.00">error()</text>
<text text-anchor="start" x="12" y="-377" font-family="Helvetica,sans-Serif" font-size="10.00">#</text>
<text text-anchor="start" x="25" y="-377" font-family="Helvetica,sans-Serif" font-size="10.00">error()</text>
<text text-anchor="start" x="12" y="-362" font-family="Helvetica,sans-Serif" font-size="10.00">#</text>
<text text-anchor="start" x="25" y="-362" font-family="Helvetica,sans-Serif" font-size="10.00">info()</text>
<text text-anchor="start" x="12" y="-347" font-family="Helvetica,sans-Serif" font-size="10.00">#</text>
<text text-anchor="start" x="25" y="-347" font-family="Helvetica,sans-Serif" font-size="10.00">loop()</text>
<text text-anchor="start" x="12" y="-332" font-family="Helvetica,sans-Serif" font-size="10.00">#</text>
<text text-anchor="start" x="25" y="-332" font-family="Helvetica,sans-Serif" font-size="10.00">processCommand()</text>
<text text-anchor="start" x="12" y="-317" font-family="Helvetica,sans-Serif" font-size="10.00">#</text>
<text text-anchor="start" x="25" y="-317" font-family="Helvetica,sans-Serif" font-size="10.00">setStatus()</text>
<text text-anchor="start" x="12" y="-302" font-family="Helvetica,sans-Serif" font-size="10.00">#</text>
<text text-anchor="start" x="25" y="-302" font-family="Helvetica,sans-Serif" font-size="10.00">shutdown()</text>
<text text-anchor="start" x="12" y="-287" font-family="Helvetica,sans-Serif" font-size="10.00">#</text>
<text text-anchor="start" x="25" y="-287" font-family="Helvetica,sans-Serif" font-size="10.00">sleep()</text>
<text text-anchor="start" x="12" y="-272" font-family="Helvetica,sans-Serif" font-size="10.00">#</text>
<text text-anchor="start" x="25" y="-272" font-family="Helvetica,sans-Serif" font-size="10.00">startup()</text>
<text text-anchor="start" x="12" y="-257" font-family="Helvetica,sans-Serif" font-size="10.00">#</text>
<text text-anchor="start" x="25" y="-257" font-family="Helvetica,sans-Serif" font-size="10.00">stopRequested()</text>
<text text-anchor="start" x="12" y="-242" font-family="Helvetica,sans-Serif" font-size="10.00">#</text>
<text text-anchor="start" x="25" y="-242" font-family="Helvetica,sans-Serif" font-size="10.00">updateLocalConfig()</text>
<text text-anchor="start" x="14.5" y="-227" font-family="Helvetica,sans-Serif" font-size="10.00">&#45;</text>
<text text-anchor="start" x="25" y="-227" font-family="Helvetica,sans-Serif" font-size="10.00">runner()</text>
<polygon fill="#666666" stroke="#666666" points="8,-657 8,-657 127,-657 127,-657 8,-657"/>
<polygon fill="#666666" stroke="#666666" points="8,-552 8,-552 23,-552 23,-552 8,-552"/>
<polygon fill="#666666" stroke="#666666" points="23,-552 23,-552 127,-552 127,-552 23,-552"/>
<polygon fill="none" stroke="#666666" points="7.5,-220 7.5,-674 126.5,-674 126.5,-220 7.5,-220"/>
</a>
</g>
</g>
<!-- Node2&#45;&gt;Node1 -->
<g id="edge1_Node000001_Node000002" class="edge">
<title>Node2&#45;&gt;Node1</title>
<g id="a_edge1_Node000001_Node000002"><a xlink:title=" ">
<path fill="none" stroke="#63b8ff" d="M67,-209.86C67,-201.01 67,-192.39 67,-184.1"/>
<polygon fill="none" stroke="#63b8ff" points="63.5,-209.94 67,-219.94 70.5,-209.94 63.5,-209.94"/>
</a>
</g>
</g>
</g>
</svg>
