<?xml version="1.0" encoding="UTF-8" standalone="no"?>
<!DOCTYPE svg PUBLIC "-//W3C//DTD SVG 1.1//EN"
 "http://www.w3.org/Graphics/SVG/1.1/DTD/svg11.dtd">
<!-- Generated by graphviz version 2.43.0 (0)
 -->
<!-- Title: giraffe::gdl::GdlServer::loadConfig Pages: 1 -->
<svg width="700pt" height="810pt"
 viewBox="0.00 0.00 700.00 810.00" xmlns="http://www.w3.org/2000/svg" xmlns:xlink="http://www.w3.org/1999/xlink">
<g id="graph0" class="graph" transform="scale(1 1) rotate(0) translate(4 806)">
<title>giraffe::gdl::GdlServer::loadConfig</title>
<!-- Node1 -->
<g id="node1" class="node">
<title>Node1</title>
<g id="a_node1"><a xlink:title=" ">
<polygon fill="#bfbfbf" stroke="black" points="0,-450.5 0,-480.5 123,-480.5 123,-450.5 0,-450.5"/>
<text text-anchor="start" x="8" y="-468.5" font-family="Helvetica,sans-Serif" font-size="10.00">giraffe::gdl::GdlServer</text>
<text text-anchor="middle" x="61.5" y="-457.5" font-family="Helvetica,sans-Serif" font-size="10.00">::loadConfig</text>
</a>
</g>
</g>
<!-- Node2 -->
<g id="node2" class="node">
<title>Node2</title>
<g id="a_node2"><a xlink:href="namespacegiraffe_1_1file__paths.html#a3cebf8089cfb107e6b610ffc51ea7afa" target="_top" xlink:title="Creates the Giraffe directory if it does not exist. Throws a GiraffeException if it cannot be created...">
<polygon fill="none" stroke="black" points="159,-690.5 159,-720.5 313,-720.5 313,-690.5 159,-690.5"/>
<text text-anchor="start" x="167" y="-708.5" font-family="Helvetica,sans-Serif" font-size="10.00">giraffe::file_paths</text>
<text text-anchor="middle" x="236" y="-697.5" font-family="Helvetica,sans-Serif" font-size="10.00">::createGiraffeDirIfNotExists</text>
</a>
</g>
</g>
<!-- Node1&#45;&gt;Node2 -->
<g id="edge1" class="edge">
<title>Node1&#45;&gt;Node2</title>
<path fill="none" stroke="midnightblue" d="M73.29,-480.51C102.45,-521.09 183.01,-633.17 218.19,-682.12"/>
<polygon fill="midnightblue" stroke="midnightblue" points="215.53,-684.42 224.21,-690.49 221.22,-680.33 215.53,-684.42"/>
</g>
<!-- Node4 -->
<g id="node4" class="node">
<title>Node4</title>
<g id="a_node4"><a xlink:href="classgiraffe_1_1CommonLogger.html#a452095d327c721f1ac8afc35f9744b8c" target="_top" xlink:title=" ">
<polygon fill="none" stroke="black" points="361,-480.5 361,-510.5 492,-510.5 492,-480.5 361,-480.5"/>
<text text-anchor="start" x="369" y="-498.5" font-family="Helvetica,sans-Serif" font-size="10.00">giraffe::CommonLogger</text>
<text text-anchor="middle" x="426.5" y="-487.5" font-family="Helvetica,sans-Serif" font-size="10.00">::debug</text>
</a>
</g>
</g>
<!-- Node1&#45;&gt;Node4 -->
<g id="edge3" class="edge">
<title>Node1&#45;&gt;Node4</title>
<path fill="none" stroke="midnightblue" d="M123.26,-470.52C185.84,-475.69 283.48,-483.76 350.76,-489.32"/>
<polygon fill="midnightblue" stroke="midnightblue" points="350.61,-492.82 360.87,-490.16 351.19,-485.85 350.61,-492.82"/>
</g>
<!-- Node6 -->
<g id="node6" class="node">
<title>Node6</title>
<g id="a_node6"><a xlink:href="classgiraffe_1_1CommonLogger.html#a0d6317e157230c5dd6e9d658b8263ca2" target="_top" xlink:title=" ">
<polygon fill="none" stroke="black" points="361,-431.5 361,-461.5 492,-461.5 492,-431.5 361,-431.5"/>
<text text-anchor="start" x="369" y="-449.5" font-family="Helvetica,sans-Serif" font-size="10.00">giraffe::CommonLogger</text>
<text text-anchor="middle" x="426.5" y="-438.5" font-family="Helvetica,sans-Serif" font-size="10.00">::error</text>
</a>
</g>
</g>
<!-- Node1&#45;&gt;Node6 -->
<g id="edge5" class="edge">
<title>Node1&#45;&gt;Node6</title>
<path fill="none" stroke="midnightblue" d="M123.26,-462.32C185.84,-459.04 283.48,-453.93 350.76,-450.41"/>
<polygon fill="midnightblue" stroke="midnightblue" points="351.06,-453.9 360.87,-449.88 350.7,-446.91 351.06,-453.9"/>
</g>
<!-- Node7 -->
<g id="node7" class="node">
<title>Node7</title>
<g id="a_node7"><a xlink:href="namespacegiraffe_1_1file__paths.html#a55797c39fca8c9ee503e4c9dab0e6007" target="_top" xlink:title="Returns the path to the Giraffe config file.">
<polygon fill="none" stroke="black" points="349,-578.5 349,-608.5 504,-608.5 504,-578.5 349,-578.5"/>
<text text-anchor="start" x="357" y="-596.5" font-family="Helvetica,sans-Serif" font-size="10.00">giraffe::file_paths</text>
<text text-anchor="middle" x="426.5" y="-585.5" font-family="Helvetica,sans-Serif" font-size="10.00">::getGdlServerConfigFilePath</text>
</a>
</g>
</g>
<!-- Node1&#45;&gt;Node7 -->
<g id="edge7" class="edge">
<title>Node1&#45;&gt;Node7</title>
<path fill="none" stroke="midnightblue" d="M74.37,-480.69C90.97,-500.74 123.13,-535.48 159,-552.5 215.12,-579.14 284.66,-589.17 338.64,-592.67"/>
<polygon fill="midnightblue" stroke="midnightblue" points="338.69,-596.17 348.87,-593.26 339.09,-589.19 338.69,-596.17"/>
</g>
<!-- Node8 -->
<g id="node8" class="node">
<title>Node8</title>
<g id="a_node8"><a xlink:href="classgiraffe_1_1CommonLogger.html#a74487cf5682cfcef361413c6552be9f1" target="_top" xlink:title=" ">
<polygon fill="none" stroke="black" points="170.5,-387.5 170.5,-417.5 301.5,-417.5 301.5,-387.5 170.5,-387.5"/>
<text text-anchor="start" x="178.5" y="-405.5" font-family="Helvetica,sans-Serif" font-size="10.00">giraffe::CommonLogger</text>
<text text-anchor="middle" x="236" y="-394.5" font-family="Helvetica,sans-Serif" font-size="10.00">::info</text>
</a>
</g>
</g>
<!-- Node1&#45;&gt;Node8 -->
<g id="edge9" class="edge">
<title>Node1&#45;&gt;Node8</title>
<path fill="none" stroke="midnightblue" d="M103.82,-450.41C127.95,-441.6 158.58,-430.41 184.18,-421.06"/>
<polygon fill="midnightblue" stroke="midnightblue" points="185.53,-424.29 193.72,-417.58 183.13,-417.72 185.53,-424.29"/>
</g>
<!-- Node9 -->
<g id="node9" class="node">
<title>Node9</title>
<g id="a_node9"><a xlink:href="classgiraffe_1_1gdl_1_1GdlServer.html#a27ff3bf1c99f70b8475390d9d05e7f5c" target="_top" xlink:title="Attempts to save the current configuration to the config file.">
<polygon fill="none" stroke="black" points="174.5,-513.5 174.5,-543.5 297.5,-543.5 297.5,-513.5 174.5,-513.5"/>
<text text-anchor="start" x="182.5" y="-531.5" font-family="Helvetica,sans-Serif" font-size="10.00">giraffe::gdl::GdlServer</text>
<text text-anchor="middle" x="236" y="-520.5" font-family="Helvetica,sans-Serif" font-size="10.00">::saveConfig</text>
</a>
</g>
</g>
<!-- Node1&#45;&gt;Node9 -->
<g id="edge11" class="edge">
<title>Node1&#45;&gt;Node9</title>
<path fill="none" stroke="midnightblue" d="M103.82,-480.59C127.95,-489.4 158.58,-500.59 184.18,-509.94"/>
<polygon fill="midnightblue" stroke="midnightblue" points="183.13,-513.28 193.72,-513.42 185.53,-506.71 183.13,-513.28"/>
</g>
<!-- Node19 -->
<g id="node19" class="node">
<title>Node19</title>
<g id="a_node19"><a xlink:href="classgiraffe_1_1gdl_1_1GdlServer.html#a8b439d61223361eda2365f3bf94fb9a6" target="_top" xlink:title="Set the configuration from a JSON object. Will use default values for any missing fields.">
<polygon fill="none" stroke="black" points="174.5,-196.5 174.5,-226.5 297.5,-226.5 297.5,-196.5 174.5,-196.5"/>
<text text-anchor="start" x="182.5" y="-214.5" font-family="Helvetica,sans-Serif" font-size="10.00">giraffe::gdl::GdlServer</text>
<text text-anchor="middle" x="236" y="-203.5" font-family="Helvetica,sans-Serif" font-size="10.00">::setConfigFromJson</text>
</a>
</g>
</g>
<!-- Node1&#45;&gt;Node19 -->
<g id="edge24" class="edge">
<title>Node1&#45;&gt;Node19</title>
<path fill="none" stroke="midnightblue" d="M72.77,-450.37C101.72,-407.75 184.09,-286.47 219.02,-235.03"/>
<polygon fill="midnightblue" stroke="midnightblue" points="222.06,-236.79 224.78,-226.55 216.27,-232.86 222.06,-236.79"/>
</g>
<!-- Node27 -->
<g id="node27" class="node">
<title>Node27</title>
<g id="a_node27"><a xlink:href="classgiraffe_1_1CommonLogger.html#a008aac905e59c9aaa273c06578acc590" target="_top" xlink:title=" ">
<polygon fill="none" stroke="black" points="361,-343.5 361,-373.5 492,-373.5 492,-343.5 361,-343.5"/>
<text text-anchor="start" x="369" y="-361.5" font-family="Helvetica,sans-Serif" font-size="10.00">giraffe::CommonLogger</text>
<text text-anchor="middle" x="426.5" y="-350.5" font-family="Helvetica,sans-Serif" font-size="10.00">::warn</text>
</a>
</g>
</g>
<!-- Node1&#45;&gt;Node27 -->
<g id="edge34" class="edge">
<title>Node1&#45;&gt;Node27</title>
<path fill="none" stroke="midnightblue" d="M73.59,-450.4C89.74,-429.74 121.91,-393.41 159,-377.5 219.8,-351.42 295.57,-348.5 350.76,-351.03"/>
<polygon fill="midnightblue" stroke="midnightblue" points="350.65,-354.53 360.82,-351.56 351.02,-347.54 350.65,-354.53"/>
</g>
<!-- Node3 -->
<g id="node3" class="node">
<title>Node3</title>
<g id="a_node3"><a xlink:href="namespacegiraffe_1_1file__paths.html#a65c87720fa2bacbdc5af2ce04c03ebff" target="_top" xlink:title="Get the Giraffe Directory Path.">
<polygon fill="none" stroke="black" points="547.5,-771.5 547.5,-801.5 684.5,-801.5 684.5,-771.5 547.5,-771.5"/>
<text text-anchor="start" x="555.5" y="-789.5" font-family="Helvetica,sans-Serif" font-size="10.00">giraffe::file_paths</text>
<text text-anchor="middle" x="616" y="-778.5" font-family="Helvetica,sans-Serif" font-size="10.00">::getGiraffeDirectoryPath</text>
</a>
</g>
</g>
<!-- Node2&#45;&gt;Node3 -->
<g id="edge2" class="edge">
<title>Node2&#45;&gt;Node3</title>
<path fill="none" stroke="midnightblue" d="M307.21,-720.55C372.5,-734.54 469.6,-755.34 537.22,-769.83"/>
<polygon fill="midnightblue" stroke="midnightblue" points="536.88,-773.34 547.39,-772.01 538.34,-766.49 536.88,-773.34"/>
</g>
<!-- Node5 -->
<g id="node5" class="node">
<title>Node5</title>
<g id="a_node5"><a xlink:href="classgiraffe_1_1CommonLogger.html#a0430441609c79cc5174b9b10d26d5fe8" target="_top" xlink:title=" ">
<polygon fill="none" stroke="black" points="540,-351 540,-370 692,-370 692,-351 540,-351"/>
<text text-anchor="middle" x="616" y="-358" font-family="Helvetica,sans-Serif" font-size="10.00">giraffe::CommonLogger::log</text>
</a>
</g>
</g>
<!-- Node4&#45;&gt;Node5 -->
<g id="edge4" class="edge">
<title>Node4&#45;&gt;Node5</title>
<path fill="none" stroke="midnightblue" d="M490.29,-480.32C495.26,-477.57 499.93,-474.33 504,-470.5 535.68,-440.69 507.33,-408.22 540,-379.5 541.76,-377.95 543.63,-376.52 545.59,-375.21"/>
<polygon fill="midnightblue" stroke="midnightblue" points="547.62,-378.09 554.65,-370.15 544.21,-371.97 547.62,-378.09"/>
</g>
<!-- Node6&#45;&gt;Node5 -->
<g id="edge6" class="edge">
<title>Node6&#45;&gt;Node5</title>
<path fill="none" stroke="midnightblue" d="M475.19,-431.43C485.11,-427.31 495.21,-422.34 504,-416.5 523.11,-403.8 520.13,-390.97 540,-379.5 543.9,-377.25 548.07,-375.26 552.36,-373.51"/>
<polygon fill="midnightblue" stroke="midnightblue" points="553.72,-376.74 561.91,-370.03 551.32,-370.16 553.72,-376.74"/>
</g>
<!-- Node7&#45;&gt;Node3 -->
<g id="edge8" class="edge">
<title>Node7&#45;&gt;Node3</title>
<path fill="none" stroke="midnightblue" d="M433.42,-608.62C447.09,-641.56 484.02,-720.24 540,-762.5 541.86,-763.91 543.81,-765.23 545.82,-766.48"/>
<polygon fill="midnightblue" stroke="midnightblue" points="544.55,-769.77 555,-771.48 547.89,-763.62 544.55,-769.77"/>
</g>
<!-- Node8&#45;&gt;Node5 -->
<g id="edge10" class="edge">
<title>Node8&#45;&gt;Node5</title>
<path fill="none" stroke="midnightblue" d="M301.7,-399.85C355.92,-397.1 435.26,-391.85 504,-382.5 523.46,-379.85 544.66,-375.92 563.26,-372.1"/>
<polygon fill="midnightblue" stroke="midnightblue" points="564.22,-375.48 573.3,-370.01 562.79,-368.62 564.22,-375.48"/>
</g>
<!-- Node9&#45;&gt;Node4 -->
<g id="edge12" class="edge">
<title>Node9&#45;&gt;Node4</title>
<path fill="none" stroke="midnightblue" d="M297.68,-517.88C314.5,-514.93 332.97,-511.7 350.51,-508.63"/>
<polygon fill="midnightblue" stroke="midnightblue" points="351.46,-512.02 360.71,-506.84 350.25,-505.12 351.46,-512.02"/>
</g>
<!-- Node9&#45;&gt;Node6 -->
<g id="edge13" class="edge">
<title>Node9&#45;&gt;Node6</title>
<path fill="none" stroke="midnightblue" d="M263.09,-513.34C285.4,-500.78 318.63,-483.02 349,-470.5 353.71,-468.56 358.63,-466.69 363.61,-464.9"/>
<polygon fill="midnightblue" stroke="midnightblue" points="364.91,-468.15 373.22,-461.57 362.62,-461.53 364.91,-468.15"/>
</g>
<!-- Node9&#45;&gt;Node7 -->
<g id="edge23" class="edge">
<title>Node9&#45;&gt;Node7</title>
<path fill="none" stroke="midnightblue" d="M276.75,-543.57C298.09,-551.52 324.88,-561.31 349,-569.5 354.66,-571.42 360.57,-573.37 366.49,-575.29"/>
<polygon fill="midnightblue" stroke="midnightblue" points="365.83,-578.75 376.42,-578.48 367.96,-572.09 365.83,-578.75"/>
</g>
<!-- Node10 -->
<g id="node10" class="node">
<title>Node10</title>
<g id="a_node10"><a xlink:href="classgiraffe_1_1gdl_1_1GdlServer.html#a591424c144ee17a258f248ce1b953b5b" target="_top" xlink:title=" ">
<polygon fill="none" stroke="black" points="365,-529.5 365,-559.5 488,-559.5 488,-529.5 365,-529.5"/>
<text text-anchor="start" x="373" y="-547.5" font-family="Helvetica,sans-Serif" font-size="10.00">giraffe::gdl::GdlServer</text>
<text text-anchor="middle" x="426.5" y="-536.5" font-family="Helvetica,sans-Serif" font-size="10.00">::getConfigJson</text>
</a>
</g>
</g>
<!-- Node9&#45;&gt;Node10 -->
<g id="edge14" class="edge">
<title>Node9&#45;&gt;Node10</title>
<path fill="none" stroke="midnightblue" d="M297.68,-533.65C315.93,-535.2 336.1,-536.91 354.93,-538.51"/>
<polygon fill="midnightblue" stroke="midnightblue" points="354.67,-542 364.93,-539.36 355.27,-535.03 354.67,-542"/>
</g>
<!-- Node11 -->
<g id="node11" class="node">
<title>Node11</title>
<g id="a_node11"><a xlink:href="classgiraffe_1_1gdl_1_1Config.html#aed911ca37add8a6519900eef34bb4fcc" target="_top" xlink:title=" ">
<polygon fill="none" stroke="black" points="563,-438.5 563,-468.5 669,-468.5 669,-438.5 563,-438.5"/>
<text text-anchor="start" x="571" y="-456.5" font-family="Helvetica,sans-Serif" font-size="10.00">giraffe::gdl::Config</text>
<text text-anchor="middle" x="616" y="-445.5" font-family="Helvetica,sans-Serif" font-size="10.00">::getCallSign</text>
</a>
</g>
</g>
<!-- Node10&#45;&gt;Node11 -->
<g id="edge15" class="edge">
<title>Node10&#45;&gt;Node11</title>
<path fill="none" stroke="midnightblue" d="M485.06,-529.46C491.7,-526.64 498.17,-523.35 504,-519.5 524.24,-506.15 519.8,-491.91 540,-478.5 544.25,-475.68 548.85,-473.15 553.6,-470.89"/>
<polygon fill="midnightblue" stroke="midnightblue" points="555.11,-474.05 562.89,-466.86 552.32,-467.63 555.11,-474.05"/>
</g>
<!-- Node12 -->
<g id="node12" class="node">
<title>Node12</title>
<g id="a_node12"><a xlink:href="classgiraffe_1_1CommonLogger.html#a5895d20e66f05bb5e56c8d505fb4185b" target="_top" xlink:title=" ">
<polygon fill="none" stroke="black" points="550.5,-389.5 550.5,-419.5 681.5,-419.5 681.5,-389.5 550.5,-389.5"/>
<text text-anchor="start" x="558.5" y="-407.5" font-family="Helvetica,sans-Serif" font-size="10.00">giraffe::CommonLogger</text>
<text text-anchor="middle" x="616" y="-396.5" font-family="Helvetica,sans-Serif" font-size="10.00">::getLevel</text>
</a>
</g>
</g>
<!-- Node10&#45;&gt;Node12 -->
<g id="edge16" class="edge">
<title>Node10&#45;&gt;Node12</title>
<path fill="none" stroke="midnightblue" d="M488.03,-530.52C493.85,-527.53 499.32,-523.9 504,-519.5 535.68,-489.69 508.23,-458.21 540,-428.5 541.27,-427.31 542.6,-426.18 543.98,-425.11"/>
<polygon fill="midnightblue" stroke="midnightblue" points="545.96,-428 552.36,-419.56 542.09,-422.16 545.96,-428"/>
</g>
<!-- Node13 -->
<g id="node13" class="node">
<title>Node13</title>
<g id="a_node13"><a xlink:href="classgiraffe_1_1CommonLogger.html#a2d55b55548ce25c3a138c795cb8d9bc6" target="_top" xlink:title=" ">
<polygon fill="none" stroke="black" points="550.5,-722.5 550.5,-752.5 681.5,-752.5 681.5,-722.5 550.5,-722.5"/>
<text text-anchor="start" x="558.5" y="-740.5" font-family="Helvetica,sans-Serif" font-size="10.00">giraffe::CommonLogger</text>
<text text-anchor="middle" x="616" y="-729.5" font-family="Helvetica,sans-Serif" font-size="10.00">::getPrintToStdout</text>
</a>
</g>
</g>
<!-- Node10&#45;&gt;Node13 -->
<g id="edge17" class="edge">
<title>Node10&#45;&gt;Node13</title>
<path fill="none" stroke="midnightblue" d="M488.26,-557.67C494.11,-560.81 499.52,-564.69 504,-569.5 548.97,-617.77 494.89,-665.37 540,-713.5 540.89,-714.45 541.83,-715.37 542.79,-716.25"/>
<polygon fill="midnightblue" stroke="midnightblue" points="540.7,-719.06 550.79,-722.31 544.93,-713.48 540.7,-719.06"/>
</g>
<!-- Node14 -->
<g id="node14" class="node">
<title>Node14</title>
<g id="a_node14"><a xlink:href="classgiraffe_1_1gdl_1_1Config.html#a0a58a6ed60187dc17cc79c4d103d4cc7" target="_top" xlink:title=" ">
<polygon fill="none" stroke="black" points="549.5,-673.5 549.5,-703.5 682.5,-703.5 682.5,-673.5 549.5,-673.5"/>
<text text-anchor="start" x="557.5" y="-691.5" font-family="Helvetica,sans-Serif" font-size="10.00">giraffe::gdl::Config</text>
<text text-anchor="middle" x="616" y="-680.5" font-family="Helvetica,sans-Serif" font-size="10.00">::getProactiveKeepAlive</text>
</a>
</g>
</g>
<!-- Node10&#45;&gt;Node14 -->
<g id="edge18" class="edge">
<title>Node10&#45;&gt;Node14</title>
<path fill="none" stroke="midnightblue" d="M488.09,-558.41C493.9,-561.41 499.35,-565.06 504,-569.5 536.66,-600.68 507.25,-633.42 540,-664.5 541.12,-665.56 542.28,-666.57 543.48,-667.54"/>
<polygon fill="midnightblue" stroke="midnightblue" points="541.71,-670.56 551.94,-673.3 545.64,-664.78 541.71,-670.56"/>
</g>
<!-- Node15 -->
<g id="node15" class="node">
<title>Node15</title>
<g id="a_node15"><a xlink:href="classgiraffe_1_1gdl_1_1Config.html#a1fd00187a8f0cf9632db5d0d068e4ce3" target="_top" xlink:title=" ">
<polygon fill="none" stroke="black" points="558,-624.5 558,-654.5 674,-654.5 674,-624.5 558,-624.5"/>
<text text-anchor="start" x="566" y="-642.5" font-family="Helvetica,sans-Serif" font-size="10.00">giraffe::gdl::Config</text>
<text text-anchor="middle" x="616" y="-631.5" font-family="Helvetica,sans-Serif" font-size="10.00">::getRemoteCallSign</text>
</a>
</g>
</g>
<!-- Node10&#45;&gt;Node15 -->
<g id="edge19" class="edge">
<title>Node10&#45;&gt;Node15</title>
<path fill="none" stroke="midnightblue" d="M486.06,-559.57C492.39,-562.37 498.51,-565.65 504,-569.5 525.26,-584.4 518.69,-600.67 540,-615.5 542.83,-617.47 545.84,-619.29 548.96,-620.97"/>
<polygon fill="midnightblue" stroke="midnightblue" points="547.45,-624.12 557.97,-625.31 550.48,-617.82 547.45,-624.12"/>
</g>
<!-- Node16 -->
<g id="node16" class="node">
<title>Node16</title>
<g id="a_node16"><a xlink:href="classgiraffe_1_1gdl_1_1Config.html#ab4b666bf725f3ab5756dc5b5135640ae" target="_top" xlink:title=" ">
<polygon fill="none" stroke="black" points="563,-575.5 563,-605.5 669,-605.5 669,-575.5 563,-575.5"/>
<text text-anchor="start" x="571" y="-593.5" font-family="Helvetica,sans-Serif" font-size="10.00">giraffe::gdl::Config</text>
<text text-anchor="middle" x="616" y="-582.5" font-family="Helvetica,sans-Serif" font-size="10.00">::getRemoteSSID</text>
</a>
</g>
</g>
<!-- Node10&#45;&gt;Node16 -->
<g id="edge20" class="edge">
<title>Node10&#45;&gt;Node16</title>
<path fill="none" stroke="midnightblue" d="M488.12,-559.37C508.9,-564.47 532.17,-570.18 553.06,-575.3"/>
<polygon fill="midnightblue" stroke="midnightblue" points="552.24,-578.71 562.78,-577.69 553.91,-571.91 552.24,-578.71"/>
</g>
<!-- Node17 -->
<g id="node17" class="node">
<title>Node17</title>
<g id="a_node17"><a xlink:href="classgiraffe_1_1gdl_1_1Config.html#a36b504a087c8434d0dcbbdcdc8edc639" target="_top" xlink:title=" ">
<polygon fill="none" stroke="black" points="563,-526.5 563,-556.5 669,-556.5 669,-526.5 563,-526.5"/>
<text text-anchor="start" x="571" y="-544.5" font-family="Helvetica,sans-Serif" font-size="10.00">giraffe::gdl::Config</text>
<text text-anchor="middle" x="616" y="-533.5" font-family="Helvetica,sans-Serif" font-size="10.00">::getSSID</text>
</a>
</g>
</g>
<!-- Node10&#45;&gt;Node17 -->
<g id="edge21" class="edge">
<title>Node10&#45;&gt;Node17</title>
<path fill="none" stroke="midnightblue" d="M488.12,-543.53C508.81,-543.2 531.96,-542.83 552.78,-542.5"/>
<polygon fill="midnightblue" stroke="midnightblue" points="552.84,-546 562.78,-542.34 552.73,-539 552.84,-546"/>
</g>
<!-- Node18 -->
<g id="node18" class="node">
<title>Node18</title>
<g id="a_node18"><a xlink:href="namespacegiraffe.html#a6c8d7898d64c0982d482f960a46bb8c5" target="_top" xlink:title=" ">
<polygon fill="none" stroke="black" points="567.5,-488 567.5,-507 664.5,-507 664.5,-488 567.5,-488"/>
<text text-anchor="middle" x="616" y="-495" font-family="Helvetica,sans-Serif" font-size="10.00">giraffe::to_string</text>
</a>
</g>
</g>
<!-- Node10&#45;&gt;Node18 -->
<g id="edge22" class="edge">
<title>Node10&#45;&gt;Node18</title>
<path fill="none" stroke="midnightblue" d="M487.34,-529.5C513.15,-523.03 542.92,-515.57 567.22,-509.48"/>
<polygon fill="midnightblue" stroke="midnightblue" points="568.08,-512.87 576.93,-507.04 566.38,-506.08 568.08,-512.87"/>
</g>
<!-- Node20 -->
<g id="node20" class="node">
<title>Node20</title>
<g id="a_node20"><a xlink:href="classgiraffe_1_1gdl_1_1Config.html#ab24467d926cb3bdcea43319fcc05c3f4" target="_top" xlink:title=" ">
<polygon fill="none" stroke="black" points="373.5,-294.5 373.5,-324.5 479.5,-324.5 479.5,-294.5 373.5,-294.5"/>
<text text-anchor="start" x="381.5" y="-312.5" font-family="Helvetica,sans-Serif" font-size="10.00">giraffe::gdl::Config</text>
<text text-anchor="middle" x="426.5" y="-301.5" font-family="Helvetica,sans-Serif" font-size="10.00">::setCallSign</text>
</a>
</g>
</g>
<!-- Node19&#45;&gt;Node20 -->
<g id="edge25" class="edge">
<title>Node19&#45;&gt;Node20</title>
<path fill="none" stroke="midnightblue" d="M256.7,-226.64C278.36,-242.72 314.67,-268.05 349,-284.5 353.68,-286.74 358.62,-288.86 363.64,-290.85"/>
<polygon fill="midnightblue" stroke="midnightblue" points="362.75,-294.25 373.34,-294.49 365.21,-287.7 362.75,-294.25"/>
</g>
<!-- Node21 -->
<g id="node21" class="node">
<title>Node21</title>
<g id="a_node21"><a xlink:href="classgiraffe_1_1CommonLogger.html#a7edf0967161b8ed7fb74d8fad85b399c" target="_top" xlink:title=" ">
<polygon fill="none" stroke="black" points="361,-245.5 361,-275.5 492,-275.5 492,-245.5 361,-245.5"/>
<text text-anchor="start" x="369" y="-263.5" font-family="Helvetica,sans-Serif" font-size="10.00">giraffe::CommonLogger</text>
<text text-anchor="middle" x="426.5" y="-252.5" font-family="Helvetica,sans-Serif" font-size="10.00">::setLevel</text>
</a>
</g>
</g>
<!-- Node19&#45;&gt;Node21 -->
<g id="edge26" class="edge">
<title>Node19&#45;&gt;Node21</title>
<path fill="none" stroke="midnightblue" d="M294.84,-226.53C314.74,-231.71 337.2,-237.55 357.82,-242.91"/>
<polygon fill="midnightblue" stroke="midnightblue" points="357.21,-246.37 367.77,-245.49 358.97,-239.59 357.21,-246.37"/>
</g>
<!-- Node22 -->
<g id="node22" class="node">
<title>Node22</title>
<g id="a_node22"><a xlink:href="classgiraffe_1_1CommonLogger.html#a00d13a9691133b030b12ea3fc02a6a2d" target="_top" xlink:title=" ">
<polygon fill="none" stroke="black" points="361,-196.5 361,-226.5 492,-226.5 492,-196.5 361,-196.5"/>
<text text-anchor="start" x="369" y="-214.5" font-family="Helvetica,sans-Serif" font-size="10.00">giraffe::CommonLogger</text>
<text text-anchor="middle" x="426.5" y="-203.5" font-family="Helvetica,sans-Serif" font-size="10.00">::setPrintToStdout</text>
</a>
</g>
</g>
<!-- Node19&#45;&gt;Node22 -->
<g id="edge27" class="edge">
<title>Node19&#45;&gt;Node22</title>
<path fill="none" stroke="midnightblue" d="M297.68,-211.5C314.5,-211.5 332.97,-211.5 350.51,-211.5"/>
<polygon fill="midnightblue" stroke="midnightblue" points="350.71,-215 360.71,-211.5 350.71,-208 350.71,-215"/>
</g>
<!-- Node23 -->
<g id="node23" class="node">
<title>Node23</title>
<g id="a_node23"><a xlink:href="classgiraffe_1_1gdl_1_1Config.html#a06c36fb2045f5092051809e942a4aa63" target="_top" xlink:title=" ">
<polygon fill="none" stroke="black" points="360.5,-147.5 360.5,-177.5 492.5,-177.5 492.5,-147.5 360.5,-147.5"/>
<text text-anchor="start" x="368.5" y="-165.5" font-family="Helvetica,sans-Serif" font-size="10.00">giraffe::gdl::Config</text>
<text text-anchor="middle" x="426.5" y="-154.5" font-family="Helvetica,sans-Serif" font-size="10.00">::setProactiveKeepAlive</text>
</a>
</g>
</g>
<!-- Node19&#45;&gt;Node23 -->
<g id="edge28" class="edge">
<title>Node19&#45;&gt;Node23</title>
<path fill="none" stroke="midnightblue" d="M294.84,-196.47C314.74,-191.29 337.2,-185.45 357.82,-180.09"/>
<polygon fill="midnightblue" stroke="midnightblue" points="358.97,-183.41 367.77,-177.51 357.21,-176.63 358.97,-183.41"/>
</g>
<!-- Node24 -->
<g id="node24" class="node">
<title>Node24</title>
<g id="a_node24"><a xlink:href="classgiraffe_1_1gdl_1_1Config.html#a4b863dc5b7093712bd9febc68e218267" target="_top" xlink:title=" ">
<polygon fill="none" stroke="black" points="368.5,-98.5 368.5,-128.5 484.5,-128.5 484.5,-98.5 368.5,-98.5"/>
<text text-anchor="start" x="376.5" y="-116.5" font-family="Helvetica,sans-Serif" font-size="10.00">giraffe::gdl::Config</text>
<text text-anchor="middle" x="426.5" y="-105.5" font-family="Helvetica,sans-Serif" font-size="10.00">::setRemoteCallSign</text>
</a>
</g>
</g>
<!-- Node19&#45;&gt;Node24 -->
<g id="edge29" class="edge">
<title>Node19&#45;&gt;Node24</title>
<path fill="none" stroke="midnightblue" d="M256.23,-196.36C277.78,-179.98 314.27,-154.02 349,-137.5 353,-135.6 357.18,-133.8 361.44,-132.11"/>
<polygon fill="midnightblue" stroke="midnightblue" points="362.73,-135.36 370.86,-128.57 360.27,-128.81 362.73,-135.36"/>
</g>
<!-- Node25 -->
<g id="node25" class="node">
<title>Node25</title>
<g id="a_node25"><a xlink:href="classgiraffe_1_1gdl_1_1Config.html#addd841387e422f20cf932f6ff03a51c7" target="_top" xlink:title=" ">
<polygon fill="none" stroke="black" points="373.5,-49.5 373.5,-79.5 479.5,-79.5 479.5,-49.5 373.5,-49.5"/>
<text text-anchor="start" x="381.5" y="-67.5" font-family="Helvetica,sans-Serif" font-size="10.00">giraffe::gdl::Config</text>
<text text-anchor="middle" x="426.5" y="-56.5" font-family="Helvetica,sans-Serif" font-size="10.00">::setRemoteSSID</text>
</a>
</g>
</g>
<!-- Node19&#45;&gt;Node25 -->
<g id="edge30" class="edge">
<title>Node19&#45;&gt;Node25</title>
<path fill="none" stroke="midnightblue" d="M246.82,-196.26C264.28,-170.35 303.23,-117.71 349,-88.5 353.62,-85.55 358.63,-82.94 363.8,-80.64"/>
<polygon fill="midnightblue" stroke="midnightblue" points="365.27,-83.81 373.22,-76.81 362.64,-77.33 365.27,-83.81"/>
</g>
<!-- Node26 -->
<g id="node26" class="node">
<title>Node26</title>
<g id="a_node26"><a xlink:href="classgiraffe_1_1gdl_1_1Config.html#acb892777b90da2a63beb0ead9d84b325" target="_top" xlink:title=" ">
<polygon fill="none" stroke="black" points="373.5,-0.5 373.5,-30.5 479.5,-30.5 479.5,-0.5 373.5,-0.5"/>
<text text-anchor="start" x="381.5" y="-18.5" font-family="Helvetica,sans-Serif" font-size="10.00">giraffe::gdl::Config</text>
<text text-anchor="middle" x="426.5" y="-7.5" font-family="Helvetica,sans-Serif" font-size="10.00">::setSSID</text>
</a>
</g>
</g>
<!-- Node19&#45;&gt;Node26 -->
<g id="edge31" class="edge">
<title>Node19&#45;&gt;Node26</title>
<path fill="none" stroke="midnightblue" d="M242.68,-196.34C255.98,-162.92 292.36,-82.45 349,-39.5 353.62,-36 358.76,-33 364.13,-30.43"/>
<polygon fill="midnightblue" stroke="midnightblue" points="365.5,-33.65 373.33,-26.51 362.76,-27.21 365.5,-33.65"/>
</g>
<!-- Node19&#45;&gt;Node27 -->
<g id="edge32" class="edge">
<title>Node19&#45;&gt;Node27</title>
<path fill="none" stroke="midnightblue" d="M246.89,-226.56C264.45,-252.16 303.55,-304.24 349,-333.5 352.12,-335.51 355.42,-337.37 358.82,-339.09"/>
<polygon fill="midnightblue" stroke="midnightblue" points="357.48,-342.33 368.03,-343.33 360.41,-335.97 357.48,-342.33"/>
</g>
<!-- Node27&#45;&gt;Node5 -->
<g id="edge33" class="edge">
<title>Node27&#45;&gt;Node5</title>
<path fill="none" stroke="midnightblue" d="M492.03,-359.19C504.15,-359.32 516.99,-359.45 529.63,-359.59"/>
<polygon fill="midnightblue" stroke="midnightblue" points="529.67,-363.09 539.71,-359.7 529.74,-356.09 529.67,-363.09"/>
</g>
</g>
</svg>
