<?xml version="1.0" encoding="UTF-8" standalone="no"?>
<!DOCTYPE svg PUBLIC "-//W3C//DTD SVG 1.1//EN"
 "http://www.w3.org/Graphics/SVG/1.1/DTD/svg11.dtd">
<!-- Generated by graphviz version 2.43.0 (0)
 -->
<!-- Title: extension::Extension::stopRequested Pages: 1 -->
<svg width="634pt" height="186pt"
 viewBox="0.00 0.00 634.00 186.00" xmlns="http://www.w3.org/2000/svg" xmlns:xlink="http://www.w3.org/1999/xlink">
<g id="graph0" class="graph" transform="scale(1 1) rotate(0) translate(4 182)">
<title>extension::Extension::stopRequested</title>
<!-- Node1 -->
<g id="node1" class="node">
<title>Node1</title>
<g id="a_node1"><a xlink:title="Returns true if the extension has been requested to stop.">
<polygon fill="#bfbfbf" stroke="black" points="507,-73.5 507,-103.5 626,-103.5 626,-73.5 507,-73.5"/>
<text text-anchor="start" x="515" y="-91.5" font-family="Helvetica,sans-Serif" font-size="10.00">extension::Extension</text>
<text text-anchor="middle" x="566.5" y="-80.5" font-family="Helvetica,sans-Serif" font-size="10.00">::stopRequested</text>
</a>
</g>
</g>
<!-- Node2 -->
<g id="node2" class="node">
<title>Node2</title>
<g id="a_node2"><a xlink:href="classextension_1_1Extension.html#a041069086cf7b981e4999150e7b7469d" target="_top" xlink:title=" ">
<polygon fill="none" stroke="black" points="331,-147.5 331,-177.5 450,-177.5 450,-147.5 331,-147.5"/>
<text text-anchor="start" x="339" y="-165.5" font-family="Helvetica,sans-Serif" font-size="10.00">extension::Extension</text>
<text text-anchor="middle" x="390.5" y="-154.5" font-family="Helvetica,sans-Serif" font-size="10.00">::sleep</text>
</a>
</g>
</g>
<!-- Node1&#45;&gt;Node2 -->
<g id="edge1" class="edge">
<title>Node1&#45;&gt;Node2</title>
<path fill="none" stroke="midnightblue" d="M531.3,-108.66C513.68,-118.5 491.61,-130.03 471,-138.5 463.13,-141.73 454.67,-144.75 446.3,-147.48"/>
<polygon fill="midnightblue" stroke="midnightblue" points="533.1,-111.66 540.08,-103.68 529.65,-105.57 533.1,-111.66"/>
</g>
<!-- Node5 -->
<g id="node5" class="node">
<title>Node5</title>
<g id="a_node5"><a xlink:href="classextension_1_1Bme280Extension.html#a8ddf780160059241fa4069d2426145c6" target="_top" xlink:title=" ">
<polygon fill="none" stroke="black" points="311,-98.5 311,-128.5 470,-128.5 470,-98.5 311,-98.5"/>
<text text-anchor="start" x="319" y="-116.5" font-family="Helvetica,sans-Serif" font-size="10.00">extension::Bme280Extension</text>
<text text-anchor="middle" x="390.5" y="-105.5" font-family="Helvetica,sans-Serif" font-size="10.00">::startup</text>
</a>
</g>
</g>
<!-- Node1&#45;&gt;Node5 -->
<g id="edge4" class="edge">
<title>Node1&#45;&gt;Node5</title>
<path fill="none" stroke="midnightblue" d="M496.53,-98.41C487.85,-99.66 478.91,-100.94 470.09,-102.21"/>
<polygon fill="midnightblue" stroke="midnightblue" points="497.19,-101.85 506.59,-96.96 496.2,-94.92 497.19,-101.85"/>
</g>
<!-- Node6 -->
<g id="node6" class="node">
<title>Node6</title>
<g id="a_node6"><a xlink:href="classextension_1_1Ds18b20Extension.html#a07f16533bc914dd5f3172b22680bdf8e" target="_top" xlink:title=" ">
<polygon fill="none" stroke="black" points="310,-49.5 310,-79.5 471,-79.5 471,-49.5 310,-49.5"/>
<text text-anchor="start" x="318" y="-67.5" font-family="Helvetica,sans-Serif" font-size="10.00">extension::Ds18b20Extension</text>
<text text-anchor="middle" x="390.5" y="-56.5" font-family="Helvetica,sans-Serif" font-size="10.00">::startup</text>
</a>
</g>
</g>
<!-- Node1&#45;&gt;Node6 -->
<g id="edge5" class="edge">
<title>Node1&#45;&gt;Node6</title>
<path fill="none" stroke="midnightblue" d="M496.51,-78.98C488.14,-77.83 479.53,-76.64 471.02,-75.47"/>
<polygon fill="midnightblue" stroke="midnightblue" points="496.21,-82.48 506.59,-80.37 497.16,-75.54 496.21,-82.48"/>
</g>
<!-- Node7 -->
<g id="node7" class="node">
<title>Node7</title>
<g id="a_node7"><a xlink:href="classextension_1_1SamM8qExtension.html#a38b81447c461ed78fbbf433779c2040e" target="_top" xlink:title="Startup the extension.">
<polygon fill="none" stroke="black" points="310,-0.5 310,-30.5 471,-30.5 471,-0.5 310,-0.5"/>
<text text-anchor="start" x="318" y="-18.5" font-family="Helvetica,sans-Serif" font-size="10.00">extension::SamM8qExtension</text>
<text text-anchor="middle" x="390.5" y="-7.5" font-family="Helvetica,sans-Serif" font-size="10.00">::startup</text>
</a>
</g>
</g>
<!-- Node1&#45;&gt;Node7 -->
<g id="edge6" class="edge">
<title>Node1&#45;&gt;Node7</title>
<path fill="none" stroke="midnightblue" d="M529.55,-68.47C512.18,-59.25 490.84,-48.59 471,-40.5 462.29,-36.95 452.88,-33.59 443.69,-30.55"/>
<polygon fill="midnightblue" stroke="midnightblue" points="528.3,-71.77 538.76,-73.42 531.61,-65.6 528.3,-71.77"/>
</g>
<!-- Node3 -->
<g id="node3" class="node">
<title>Node3</title>
<g id="a_node3"><a xlink:href="classextension_1_1Extension.html#a2aa3ac844b4d83d427e0f633f803a027" target="_top" xlink:title=" ">
<polygon fill="none" stroke="black" points="155,-147.5 155,-177.5 274,-177.5 274,-147.5 155,-147.5"/>
<text text-anchor="start" x="163" y="-165.5" font-family="Helvetica,sans-Serif" font-size="10.00">extension::Extension</text>
<text text-anchor="middle" x="214.5" y="-154.5" font-family="Helvetica,sans-Serif" font-size="10.00">::runner</text>
</a>
</g>
</g>
<!-- Node2&#45;&gt;Node3 -->
<g id="edge2" class="edge">
<title>Node2&#45;&gt;Node3</title>
<path fill="none" stroke="midnightblue" d="M320.16,-162.5C304.89,-162.5 288.85,-162.5 274.05,-162.5"/>
<polygon fill="midnightblue" stroke="midnightblue" points="320.59,-166 330.59,-162.5 320.59,-159 320.59,-166"/>
</g>
<!-- Node4 -->
<g id="node4" class="node">
<title>Node4</title>
<g id="a_node4"><a xlink:href="classextension_1_1Extension.html#a65da188590e7f56c25fdc86370f5c10c" target="_top" xlink:title="Starts the extension.">
<polygon fill="none" stroke="black" points="0,-147.5 0,-177.5 119,-177.5 119,-147.5 0,-147.5"/>
<text text-anchor="start" x="8" y="-165.5" font-family="Helvetica,sans-Serif" font-size="10.00">extension::Extension</text>
<text text-anchor="middle" x="59.5" y="-154.5" font-family="Helvetica,sans-Serif" font-size="10.00">::start</text>
</a>
</g>
</g>
<!-- Node3&#45;&gt;Node4 -->
<g id="edge3" class="edge">
<title>Node3&#45;&gt;Node4</title>
<path fill="none" stroke="midnightblue" d="M144.51,-162.5C136.01,-162.5 127.38,-162.5 119.06,-162.5"/>
<polygon fill="midnightblue" stroke="midnightblue" points="144.78,-166 154.78,-162.5 144.78,-159 144.78,-166"/>
</g>
</g>
</svg>
