<?xml version="1.0" encoding="UTF-8" standalone="no"?>
<!DOCTYPE svg PUBLIC "-//W3C//DTD SVG 1.1//EN"
 "http://www.w3.org/Graphics/SVG/1.1/DTD/svg11.dtd">
<!-- Generated by graphviz version 2.43.0 (0)
 -->
<!-- Title: gdl::PhysicalLayer::update Pages: 1 -->
<svg width="969pt" height="78pt"
 viewBox="0.00 0.00 969.00 77.50" xmlns="http://www.w3.org/2000/svg" xmlns:xlink="http://www.w3.org/1999/xlink">
<g id="graph0" class="graph" transform="scale(1 1) rotate(0) translate(4 73.5)">
<title>gdl::PhysicalLayer::update</title>
<!-- Node1 -->
<g id="node1" class="node">
<title>Node1</title>
<g id="a_node1"><a xlink:title=" ">
<polygon fill="#bfbfbf" stroke="black" points="856,-22.5 856,-52.5 961,-52.5 961,-22.5 856,-22.5"/>
<text text-anchor="start" x="864" y="-40.5" font-family="Helvetica,sans-Serif" font-size="10.00">gdl::PhysicalLayer</text>
<text text-anchor="middle" x="908.5" y="-29.5" font-family="Helvetica,sans-Serif" font-size="10.00">::update</text>
</a>
</g>
</g>
<!-- Node2 -->
<g id="node2" class="node">
<title>Node2</title>
<g id="a_node2"><a xlink:href="classgdl_1_1NetworkLayer.html#ad37a9e79ca3fd66b6e91f041aa9eb1b0" target="_top" xlink:title=" ">
<polygon fill="none" stroke="black" points="708,-22.5 708,-52.5 820,-52.5 820,-22.5 708,-22.5"/>
<text text-anchor="start" x="716" y="-40.5" font-family="Helvetica,sans-Serif" font-size="10.00">gdl::NetworkLayer::</text>
<text text-anchor="middle" x="764" y="-29.5" font-family="Helvetica,sans-Serif" font-size="10.00">update</text>
</a>
</g>
</g>
<!-- Node1&#45;&gt;Node2 -->
<g id="edge1" class="edge">
<title>Node1&#45;&gt;Node2</title>
<path fill="none" stroke="midnightblue" d="M845.56,-37.5C837.2,-37.5 828.66,-37.5 820.41,-37.5"/>
<polygon fill="midnightblue" stroke="midnightblue" points="845.65,-41 855.65,-37.5 845.65,-34 845.65,-41"/>
</g>
<!-- Node3 -->
<g id="node3" class="node">
<title>Node3</title>
<g id="a_node3"><a xlink:href="classgdl_1_1TransportLayer.html#ad25cbf683abe2cffc22dec9c6de34e81" target="_top" xlink:title=" ">
<polygon fill="none" stroke="black" points="562,-22.5 562,-52.5 672,-52.5 672,-22.5 562,-22.5"/>
<text text-anchor="start" x="570" y="-40.5" font-family="Helvetica,sans-Serif" font-size="10.00">gdl::TransportLayer</text>
<text text-anchor="middle" x="617" y="-29.5" font-family="Helvetica,sans-Serif" font-size="10.00">::update</text>
</a>
</g>
</g>
<!-- Node2&#45;&gt;Node3 -->
<g id="edge2" class="edge">
<title>Node2&#45;&gt;Node3</title>
<path fill="none" stroke="midnightblue" d="M697.51,-37.5C689.02,-37.5 680.4,-37.5 672.12,-37.5"/>
<polygon fill="midnightblue" stroke="midnightblue" points="697.77,-41 707.77,-37.5 697.77,-34 697.77,-41"/>
</g>
<!-- Node4 -->
<g id="node4" class="node">
<title>Node4</title>
<g id="a_node4"><a xlink:href="classgdl_1_1GiraffeDataLink.html#a9a57e98fe17bc1ccfc6592d1f2eca165" target="_top" xlink:title="The main thread function for GDL.">
<polygon fill="none" stroke="black" points="412,-22.5 412,-52.5 526,-52.5 526,-22.5 412,-22.5"/>
<text text-anchor="start" x="420" y="-40.5" font-family="Helvetica,sans-Serif" font-size="10.00">gdl::GiraffeDataLink</text>
<text text-anchor="middle" x="469" y="-29.5" font-family="Helvetica,sans-Serif" font-size="10.00">::gdlThread</text>
</a>
</g>
</g>
<!-- Node3&#45;&gt;Node4 -->
<g id="edge3" class="edge">
<title>Node3&#45;&gt;Node4</title>
<path fill="none" stroke="midnightblue" d="M551.52,-37.5C543.13,-37.5 534.6,-37.5 526.36,-37.5"/>
<polygon fill="midnightblue" stroke="midnightblue" points="551.64,-41 561.63,-37.5 551.63,-34 551.64,-41"/>
</g>
<!-- Node5 -->
<g id="node5" class="node">
<title>Node5</title>
<g id="a_node5"><a xlink:href="classgdl_1_1GiraffeDataLink.html#a20218eadd5c073513f558077239fba2e" target="_top" xlink:title="Start the GDL instance.">
<polygon fill="none" stroke="black" points="262,-22.5 262,-52.5 376,-52.5 376,-22.5 262,-22.5"/>
<text text-anchor="start" x="270" y="-40.5" font-family="Helvetica,sans-Serif" font-size="10.00">gdl::GiraffeDataLink</text>
<text text-anchor="middle" x="319" y="-29.5" font-family="Helvetica,sans-Serif" font-size="10.00">::start</text>
</a>
</g>
</g>
<!-- Node4&#45;&gt;Node5 -->
<g id="edge4" class="edge">
<title>Node4&#45;&gt;Node5</title>
<path fill="none" stroke="midnightblue" d="M401.44,-37.5C393.02,-37.5 384.46,-37.5 376.22,-37.5"/>
<polygon fill="midnightblue" stroke="midnightblue" points="401.63,-41 411.63,-37.5 401.63,-34 401.63,-41"/>
</g>
<!-- Node6 -->
<g id="node6" class="node">
<title>Node6</title>
<g id="a_node6"><a xlink:href="classGdlTerminal.html#a6c4ec1ac757e27bf891453c72d49ff06" target="_top" xlink:title=" ">
<polygon fill="none" stroke="black" points="103,-50 103,-69 200,-69 200,-50 103,-50"/>
<text text-anchor="middle" x="151.5" y="-57" font-family="Helvetica,sans-Serif" font-size="10.00">GdlTerminal::run</text>
</a>
</g>
</g>
<!-- Node5&#45;&gt;Node6 -->
<g id="edge5" class="edge">
<title>Node5&#45;&gt;Node6</title>
<path fill="none" stroke="midnightblue" d="M251.93,-46.28C234.63,-48.58 216.32,-51.02 200.19,-53.16"/>
<polygon fill="midnightblue" stroke="midnightblue" points="252.52,-49.74 261.97,-44.95 251.6,-42.8 252.52,-49.74"/>
</g>
<!-- Node8 -->
<g id="node8" class="node">
<title>Node8</title>
<g id="a_node8"><a xlink:href="classmodules_1_1TelemetryModule.html#afb1a52e1e90b33ad72a84f8646a9633b" target="_top" xlink:title="This function is called when the module is started.">
<polygon fill="none" stroke="black" points="77,-0.5 77,-30.5 226,-30.5 226,-0.5 77,-0.5"/>
<text text-anchor="start" x="85" y="-18.5" font-family="Helvetica,sans-Serif" font-size="10.00">modules::TelemetryModule</text>
<text text-anchor="middle" x="151.5" y="-7.5" font-family="Helvetica,sans-Serif" font-size="10.00">::startup</text>
</a>
</g>
</g>
<!-- Node5&#45;&gt;Node8 -->
<g id="edge7" class="edge">
<title>Node5&#45;&gt;Node8</title>
<path fill="none" stroke="midnightblue" d="M251.8,-28.7C243.34,-27.58 234.64,-26.42 226.08,-25.28"/>
<polygon fill="midnightblue" stroke="midnightblue" points="251.6,-32.2 261.97,-30.05 252.52,-25.26 251.6,-32.2"/>
</g>
<!-- Node7 -->
<g id="node7" class="node">
<title>Node7</title>
<g id="a_node7"><a xlink:href="gdl__terminal_8cpp.html#ae66f6b31b5ad750f1fe042a706a4e3d4" target="_top" xlink:title=" ">
<polygon fill="none" stroke="black" points="0,-50 0,-69 41,-69 41,-50 0,-50"/>
<text text-anchor="middle" x="20.5" y="-57" font-family="Helvetica,sans-Serif" font-size="10.00">main</text>
</a>
</g>
</g>
<!-- Node6&#45;&gt;Node7 -->
<g id="edge6" class="edge">
<title>Node6&#45;&gt;Node7</title>
<path fill="none" stroke="midnightblue" d="M92.65,-59.5C74.12,-59.5 54.84,-59.5 41.04,-59.5"/>
<polygon fill="midnightblue" stroke="midnightblue" points="92.83,-63 102.83,-59.5 92.83,-56 92.83,-63"/>
</g>
</g>
</svg>
