<?xml version="1.0" encoding="UTF-8" standalone="no"?>
<!DOCTYPE svg PUBLIC "-//W3C//DTD SVG 1.1//EN"
 "http://www.w3.org/Graphics/SVG/1.1/DTD/svg11.dtd">
<!-- Generated by graphviz version 2.43.0 (0)
 -->
<!-- Title: gfs_sim::BalloonPhysics::statePreLaunch Pages: 1 -->
<svg width="313pt" height="86pt"
 viewBox="0.00 0.00 313.00 86.00" xmlns="http://www.w3.org/2000/svg" xmlns:xlink="http://www.w3.org/1999/xlink">
<g id="graph0" class="graph" transform="scale(1 1) rotate(0) translate(4 82)">
<title>gfs_sim::BalloonPhysics::statePreLaunch</title>
<!-- Node1 -->
<g id="Node000001" class="node">
<title>Node1</title>
<g id="a_Node000001"><a xlink:title=" ">
<polygon fill="#999999" stroke="#666666" points="134,-54 0,-54 0,-24 134,-24 134,-54"/>
<text text-anchor="start" x="8" y="-42" font-family="Helvetica,sans-Serif" font-size="10.00">gfs_sim::BalloonPhysics</text>
<text text-anchor="middle" x="67" y="-31" font-family="Helvetica,sans-Serif" font-size="10.00">::statePreLaunch</text>
</a>
</g>
</g>
<!-- Node2 -->
<g id="Node000002" class="node">
<title>Node2</title>
<g id="a_Node000002"><a xlink:href="classgfs__sim_1_1BalloonPhysics.html#ae352cef7b58c5ed04d7fb968f1835f40" target="_top" xlink:title=" ">
<polygon fill="white" stroke="#666666" points="304.5,-78 170.5,-78 170.5,-48 304.5,-48 304.5,-78"/>
<text text-anchor="start" x="178.5" y="-66" font-family="Helvetica,sans-Serif" font-size="10.00">gfs_sim::BalloonPhysics</text>
<text text-anchor="middle" x="237.5" y="-55" font-family="Helvetica,sans-Serif" font-size="10.00">::setHorizontalSpeed</text>
</a>
</g>
</g>
<!-- Node1&#45;&gt;Node2 -->
<g id="edge1_Node000001_Node000002" class="edge">
<title>Node1&#45;&gt;Node2</title>
<g id="a_edge1_Node000001_Node000002"><a xlink:title=" ">
<path fill="none" stroke="#63b8ff" d="M134.11,-48.42C142.66,-49.63 151.47,-50.89 160.17,-52.13"/>
<polygon fill="#63b8ff" stroke="#63b8ff" points="159.91,-55.63 170.3,-53.57 160.9,-48.7 159.91,-55.63"/>
</a>
</g>
</g>
<!-- Node3 -->
<g id="Node000003" class="node">
<title>Node3</title>
<g id="a_Node000003"><a xlink:href="classgfs__sim_1_1BalloonPhysics.html#ad636cde7b1f43b24ddb3a5f75a8abbf6" target="_top" xlink:title=" ">
<polygon fill="white" stroke="#666666" points="305,-30 170,-30 170,0 305,0 305,-30"/>
<text text-anchor="start" x="178" y="-18" font-family="Helvetica,sans-Serif" font-size="10.00">gfs_sim::BalloonPhysics</text>
<text text-anchor="middle" x="237.5" y="-7" font-family="Helvetica,sans-Serif" font-size="10.00">::setVerticalAcceleration</text>
</a>
</g>
</g>
<!-- Node1&#45;&gt;Node3 -->
<g id="edge2_Node000001_Node000003" class="edge">
<title>Node1&#45;&gt;Node3</title>
<g id="a_edge2_Node000001_Node000003"><a xlink:title=" ">
<path fill="none" stroke="#63b8ff" d="M134.11,-29.58C142.53,-28.38 151.2,-27.15 159.76,-25.93"/>
<polygon fill="#63b8ff" stroke="#63b8ff" points="160.34,-29.38 169.75,-24.51 159.35,-22.45 160.34,-29.38"/>
</a>
</g>
</g>
</g>
</svg>
