<?xml version="1.0" encoding="UTF-8" standalone="no"?>
<!DOCTYPE svg PUBLIC "-//W3C//DTD SVG 1.1//EN"
 "http://www.w3.org/Graphics/SVG/1.1/DTD/svg11.dtd">
<!-- Generated by graphviz version 2.43.0 (0)
 -->
<!-- Title: extension::Ds18b20Extension Pages: 1 -->
<svg width="1378pt" height="1431pt"
 viewBox="0.00 0.00 1377.50 1431.00" xmlns="http://www.w3.org/2000/svg" xmlns:xlink="http://www.w3.org/1999/xlink">
<g id="graph0" class="graph" transform="scale(1 1) rotate(0) translate(4 1427)">
<title>extension::Ds18b20Extension</title>
<!-- Node1 -->
<g id="node1" class="node">
<title>Node1</title>
<g id="a_node1"><a xlink:title=" ">
<polygon fill="#bfbfbf" stroke="black" points="1020,-0.5 1020,-101.5 1181,-101.5 1181,-0.5 1020,-0.5"/>
<text text-anchor="middle" x="1100.5" y="-89.5" font-family="Helvetica,sans-Serif" font-size="10.00">extension::Ds18b20Extension</text>
<polyline fill="none" stroke="black" points="1020,-82.5 1181,-82.5 "/>
<text text-anchor="middle" x="1100.5" y="-70.5" font-family="Helvetica,sans-Serif" font-size="10.00"> </text>
<polyline fill="none" stroke="black" points="1020,-63.5 1181,-63.5 "/>
<text text-anchor="start" x="1028" y="-51.5" font-family="Helvetica,sans-Serif" font-size="10.00">+ Ds18b20Extension()</text>
<text text-anchor="start" x="1028" y="-40.5" font-family="Helvetica,sans-Serif" font-size="10.00">+ loop()</text>
<text text-anchor="start" x="1028" y="-29.5" font-family="Helvetica,sans-Serif" font-size="10.00">+ startup()</text>
<text text-anchor="start" x="1028" y="-18.5" font-family="Helvetica,sans-Serif" font-size="10.00">&#45; init()</text>
<text text-anchor="start" x="1028" y="-7.5" font-family="Helvetica,sans-Serif" font-size="10.00">&#45; readData()</text>
</a>
</g>
</g>
<!-- Node2 -->
<g id="node2" class="node">
<title>Node2</title>
<g id="a_node2"><a xlink:href="classextension_1_1Extension.html" target="_top" xlink:title=" ">
<polygon fill="none" stroke="black" points="754,-160.5 754,-481.5 873,-481.5 873,-160.5 754,-160.5"/>
<text text-anchor="middle" x="813.5" y="-469.5" font-family="Helvetica,sans-Serif" font-size="10.00">extension::Extension</text>
<polyline fill="none" stroke="black" points="754,-462.5 873,-462.5 "/>
<text text-anchor="middle" x="813.5" y="-450.5" font-family="Helvetica,sans-Serif" font-size="10.00"> </text>
<polyline fill="none" stroke="black" points="754,-443.5 873,-443.5 "/>
<text text-anchor="start" x="762" y="-431.5" font-family="Helvetica,sans-Serif" font-size="10.00">+ Extension()</text>
<text text-anchor="start" x="762" y="-420.5" font-family="Helvetica,sans-Serif" font-size="10.00">+ Extension()</text>
<text text-anchor="start" x="762" y="-409.5" font-family="Helvetica,sans-Serif" font-size="10.00">+ ~Extension()</text>
<text text-anchor="start" x="762" y="-398.5" font-family="Helvetica,sans-Serif" font-size="10.00">+ getFaultCode()</text>
<text text-anchor="start" x="762" y="-387.5" font-family="Helvetica,sans-Serif" font-size="10.00">+ getStatus()</text>
<text text-anchor="start" x="762" y="-376.5" font-family="Helvetica,sans-Serif" font-size="10.00">+ isFaulted()</text>
<text text-anchor="start" x="762" y="-365.5" font-family="Helvetica,sans-Serif" font-size="10.00">+ operator=()</text>
<text text-anchor="start" x="762" y="-354.5" font-family="Helvetica,sans-Serif" font-size="10.00">+ reset()</text>
<text text-anchor="start" x="762" y="-343.5" font-family="Helvetica,sans-Serif" font-size="10.00">+ start()</text>
<text text-anchor="start" x="762" y="-332.5" font-family="Helvetica,sans-Serif" font-size="10.00">+ stop()</text>
<text text-anchor="start" x="762" y="-321.5" font-family="Helvetica,sans-Serif" font-size="10.00"># data()</text>
<text text-anchor="start" x="762" y="-310.5" font-family="Helvetica,sans-Serif" font-size="10.00"># data()</text>
<text text-anchor="start" x="762" y="-299.5" font-family="Helvetica,sans-Serif" font-size="10.00"># data()</text>
<text text-anchor="start" x="762" y="-288.5" font-family="Helvetica,sans-Serif" font-size="10.00"># debug()</text>
<text text-anchor="start" x="762" y="-277.5" font-family="Helvetica,sans-Serif" font-size="10.00"># error()</text>
<text text-anchor="start" x="762" y="-266.5" font-family="Helvetica,sans-Serif" font-size="10.00"># error()</text>
<text text-anchor="start" x="762" y="-255.5" font-family="Helvetica,sans-Serif" font-size="10.00"># extSleep()</text>
<text text-anchor="start" x="762" y="-244.5" font-family="Helvetica,sans-Serif" font-size="10.00"># info()</text>
<text text-anchor="start" x="762" y="-233.5" font-family="Helvetica,sans-Serif" font-size="10.00"># loop()</text>
<text text-anchor="start" x="762" y="-222.5" font-family="Helvetica,sans-Serif" font-size="10.00"># raiseFault()</text>
<text text-anchor="start" x="762" y="-211.5" font-family="Helvetica,sans-Serif" font-size="10.00"># shutdown()</text>
<text text-anchor="start" x="762" y="-200.5" font-family="Helvetica,sans-Serif" font-size="10.00"># startup()</text>
<text text-anchor="start" x="762" y="-189.5" font-family="Helvetica,sans-Serif" font-size="10.00"># stopRequested()</text>
<text text-anchor="start" x="762" y="-178.5" font-family="Helvetica,sans-Serif" font-size="10.00">&#45; runner()</text>
<text text-anchor="start" x="762" y="-167.5" font-family="Helvetica,sans-Serif" font-size="10.00">&#45; sleep()</text>
</a>
</g>
</g>
<!-- Node2&#45;&gt;Node1 -->
<g id="edge1" class="edge">
<title>Node2&#45;&gt;Node1</title>
<path fill="none" stroke="midnightblue" d="M880.48,-245.71C916.92,-206.77 963.62,-159.15 1008.5,-120 1015.53,-113.86 1023.09,-107.69 1030.73,-101.7"/>
<polygon fill="none" stroke="midnightblue" points="877.59,-243.68 873.33,-253.38 882.71,-248.45 877.59,-243.68"/>
</g>
<!-- Node3 -->
<g id="node3" class="node">
<title>Node3</title>
<g id="a_node3"><a xlink:href="structextension_1_1ExtensionResources.html" target="_top" xlink:title="This contains objects that are shared between all extensions.">
<polygon fill="none" stroke="black" points="275,-637 275,-694 444,-694 444,-637 275,-637"/>
<text text-anchor="middle" x="359.5" y="-682" font-family="Helvetica,sans-Serif" font-size="10.00">extension::ExtensionResources</text>
<polyline fill="none" stroke="black" points="275,-675 444,-675 "/>
<text text-anchor="middle" x="359.5" y="-663" font-family="Helvetica,sans-Serif" font-size="10.00"> </text>
<polyline fill="none" stroke="black" points="275,-656 444,-656 "/>
<text text-anchor="start" x="283" y="-644" font-family="Helvetica,sans-Serif" font-size="10.00">+ ExtensionResources()</text>
</a>
</g>
</g>
<!-- Node3&#45;&gt;Node2 -->
<g id="edge2" class="edge">
<title>Node3&#45;&gt;Node2</title>
<path fill="none" stroke="#404040" d="M377.59,-636.79C401.47,-601.75 446.27,-541.06 495.5,-500 572.13,-436.09 675.04,-383.36 742.77,-352.3"/>
<polygon fill="none" stroke="#404040" points="742.81,-352.28 746.62,-346.16 753.74,-347.32 749.93,-353.44 742.81,-352.28"/>
<text text-anchor="middle" x="526" y="-554" font-family="Helvetica,sans-Serif" font-size="10.00"> &#45;interfaces_</text>
</g>
<!-- Node4 -->
<g id="node4" class="node">
<title>Node4</title>
<g id="a_node4"><a xlink:href="namespacedata.html#structdata_1_1Streams" target="_top" xlink:title=" ">
<polygon fill="none" stroke="black" points="360,-758.5 360,-815.5 445,-815.5 445,-758.5 360,-758.5"/>
<text text-anchor="middle" x="402.5" y="-803.5" font-family="Helvetica,sans-Serif" font-size="10.00">data::Streams</text>
<polyline fill="none" stroke="black" points="360,-796.5 445,-796.5 "/>
<text text-anchor="middle" x="402.5" y="-784.5" font-family="Helvetica,sans-Serif" font-size="10.00"> </text>
<polyline fill="none" stroke="black" points="360,-777.5 445,-777.5 "/>
<text text-anchor="middle" x="402.5" y="-765.5" font-family="Helvetica,sans-Serif" font-size="10.00"> </text>
</a>
</g>
</g>
<!-- Node4&#45;&gt;Node3 -->
<g id="edge3" class="edge">
<title>Node4&#45;&gt;Node3</title>
<path fill="none" stroke="#404040" d="M392.53,-758.28C386.88,-742.6 379.73,-722.73 373.53,-705.49"/>
<polygon fill="none" stroke="#404040" points="373.48,-705.36 367.69,-701.07 369.42,-694.07 375.21,-698.36 373.48,-705.36"/>
<text text-anchor="middle" x="411.5" y="-726.5" font-family="Helvetica,sans-Serif" font-size="10.00"> +streams</text>
</g>
<!-- Node5 -->
<g id="node5" class="node">
<title>Node5</title>
<g id="a_node5"><a xlink:href="classdata_1_1LogStream.html" target="_top" xlink:title=" ">
<polygon fill="none" stroke="black" points="365.5,-863.5 365.5,-964.5 531.5,-964.5 531.5,-863.5 365.5,-863.5"/>
<text text-anchor="middle" x="448.5" y="-952.5" font-family="Helvetica,sans-Serif" font-size="10.00">data::LogStream</text>
<polyline fill="none" stroke="black" points="365.5,-945.5 531.5,-945.5 "/>
<text text-anchor="middle" x="448.5" y="-933.5" font-family="Helvetica,sans-Serif" font-size="10.00"> </text>
<polyline fill="none" stroke="black" points="365.5,-926.5 531.5,-926.5 "/>
<text text-anchor="start" x="373.5" y="-914.5" font-family="Helvetica,sans-Serif" font-size="10.00">+ debug()</text>
<text text-anchor="start" x="373.5" y="-903.5" font-family="Helvetica,sans-Serif" font-size="10.00">+ error()</text>
<text text-anchor="start" x="373.5" y="-892.5" font-family="Helvetica,sans-Serif" font-size="10.00">+ errorBoosterSeatException()</text>
<text text-anchor="start" x="373.5" y="-881.5" font-family="Helvetica,sans-Serif" font-size="10.00">+ errorStdException()</text>
<text text-anchor="start" x="373.5" y="-870.5" font-family="Helvetica,sans-Serif" font-size="10.00">+ info()</text>
</a>
</g>
</g>
<!-- Node5&#45;&gt;Node4 -->
<g id="edge4" class="edge">
<title>Node5&#45;&gt;Node4</title>
<path fill="none" stroke="#404040" d="M430.19,-863.24C425.76,-851.21 421.09,-838.53 416.88,-827.07"/>
<polygon fill="none" stroke="#404040" points="416.82,-826.92 411,-822.67 412.68,-815.66 418.5,-819.91 416.82,-826.92"/>
<text text-anchor="middle" x="437" y="-837" font-family="Helvetica,sans-Serif" font-size="10.00"> +log</text>
</g>
<!-- Node6 -->
<g id="node6" class="node">
<title>Node6</title>
<g id="a_node6"><a xlink:href="classdata_1_1Stream.html" target="_top" xlink:title=" ">
<polygon fill="none" stroke="black" points="376,-1012.5 376,-1157.5 527,-1157.5 527,-1012.5 376,-1012.5"/>
<text text-anchor="middle" x="451.5" y="-1145.5" font-family="Helvetica,sans-Serif" font-size="10.00">data::Stream&lt; LogPacket &gt;</text>
<polyline fill="none" stroke="black" points="376,-1138.5 527,-1138.5 "/>
<text text-anchor="start" x="384" y="-1126.5" font-family="Helvetica,sans-Serif" font-size="10.00">&#45; current_packets_</text>
<text text-anchor="start" x="384" y="-1115.5" font-family="Helvetica,sans-Serif" font-size="10.00">&#45; packet_queue_</text>
<text text-anchor="start" x="384" y="-1104.5" font-family="Helvetica,sans-Serif" font-size="10.00">&#45; stream_mutex_</text>
<text text-anchor="start" x="384" y="-1093.5" font-family="Helvetica,sans-Serif" font-size="10.00">&#45; total_packets_</text>
<polyline fill="none" stroke="black" points="376,-1086.5 527,-1086.5 "/>
<text text-anchor="start" x="384" y="-1074.5" font-family="Helvetica,sans-Serif" font-size="10.00">+ Stream()</text>
<text text-anchor="start" x="384" y="-1063.5" font-family="Helvetica,sans-Serif" font-size="10.00">+ addPacket()</text>
<text text-anchor="start" x="384" y="-1052.5" font-family="Helvetica,sans-Serif" font-size="10.00">+ getNumPackets()</text>
<text text-anchor="start" x="384" y="-1041.5" font-family="Helvetica,sans-Serif" font-size="10.00">+ getPacket()</text>
<text text-anchor="start" x="384" y="-1030.5" font-family="Helvetica,sans-Serif" font-size="10.00">+ getTotalPackets()</text>
<text text-anchor="start" x="384" y="-1019.5" font-family="Helvetica,sans-Serif" font-size="10.00">+ reset()</text>
</a>
</g>
</g>
<!-- Node6&#45;&gt;Node5 -->
<g id="edge5" class="edge">
<title>Node6&#45;&gt;Node5</title>
<path fill="none" stroke="midnightblue" d="M450.05,-1002.08C449.82,-989.24 449.59,-976.33 449.38,-964.52"/>
<polygon fill="none" stroke="midnightblue" points="446.55,-1002.39 450.23,-1012.33 453.55,-1002.27 446.55,-1002.39"/>
</g>
<!-- Node7 -->
<g id="node7" class="node">
<title>Node7</title>
<g id="a_node7"><a xlink:href="classdata_1_1Stream.html" target="_top" xlink:title=" ">
<polygon fill="none" stroke="black" points="393,-1205.5 393,-1317.5 504,-1317.5 504,-1205.5 393,-1205.5"/>
<text text-anchor="middle" x="448.5" y="-1305.5" font-family="Helvetica,sans-Serif" font-size="10.00">data::Stream&lt; T &gt;</text>
<polyline fill="none" stroke="black" points="393,-1298.5 504,-1298.5 "/>
<text text-anchor="middle" x="448.5" y="-1286.5" font-family="Helvetica,sans-Serif" font-size="10.00"> </text>
<polyline fill="none" stroke="black" points="393,-1279.5 504,-1279.5 "/>
<text text-anchor="start" x="401" y="-1267.5" font-family="Helvetica,sans-Serif" font-size="10.00">+ Stream()</text>
<text text-anchor="start" x="401" y="-1256.5" font-family="Helvetica,sans-Serif" font-size="10.00">+ addPacket()</text>
<text text-anchor="start" x="401" y="-1245.5" font-family="Helvetica,sans-Serif" font-size="10.00">+ getNumPackets()</text>
<text text-anchor="start" x="401" y="-1234.5" font-family="Helvetica,sans-Serif" font-size="10.00">+ getPacket()</text>
<text text-anchor="start" x="401" y="-1223.5" font-family="Helvetica,sans-Serif" font-size="10.00">+ getTotalPackets()</text>
<text text-anchor="start" x="401" y="-1212.5" font-family="Helvetica,sans-Serif" font-size="10.00">+ reset()</text>
</a>
</g>
</g>
<!-- Node7&#45;&gt;Node6 -->
<g id="edge6" class="edge">
<title>Node7&#45;&gt;Node6</title>
<path fill="none" stroke="orange" d="M449.62,-1195.2C449.83,-1183 450.05,-1170.18 450.27,-1157.79"/>
<polygon fill="orange" stroke="orange" points="446.12,-1195.23 449.45,-1205.29 453.12,-1195.35 446.12,-1195.23"/>
<text text-anchor="middle" x="488" y="-1179" font-family="Helvetica,sans-Serif" font-size="10.00"> &lt; LogPacket &gt;</text>
</g>
<!-- Node13 -->
<g id="node13" class="node">
<title>Node13</title>
<g id="a_node13"><a xlink:href="classdata_1_1Stream.html" target="_top" xlink:title=" ">
<polygon fill="none" stroke="black" points="545,-1012.5 545,-1157.5 728,-1157.5 728,-1012.5 545,-1012.5"/>
<text text-anchor="middle" x="636.5" y="-1145.5" font-family="Helvetica,sans-Serif" font-size="10.00">data::Stream&lt; ImuFramePacket &gt;</text>
<polyline fill="none" stroke="black" points="545,-1138.5 728,-1138.5 "/>
<text text-anchor="start" x="553" y="-1126.5" font-family="Helvetica,sans-Serif" font-size="10.00">&#45; current_packets_</text>
<text text-anchor="start" x="553" y="-1115.5" font-family="Helvetica,sans-Serif" font-size="10.00">&#45; packet_queue_</text>
<text text-anchor="start" x="553" y="-1104.5" font-family="Helvetica,sans-Serif" font-size="10.00">&#45; stream_mutex_</text>
<text text-anchor="start" x="553" y="-1093.5" font-family="Helvetica,sans-Serif" font-size="10.00">&#45; total_packets_</text>
<polyline fill="none" stroke="black" points="545,-1086.5 728,-1086.5 "/>
<text text-anchor="start" x="553" y="-1074.5" font-family="Helvetica,sans-Serif" font-size="10.00">+ Stream()</text>
<text text-anchor="start" x="553" y="-1063.5" font-family="Helvetica,sans-Serif" font-size="10.00">+ addPacket()</text>
<text text-anchor="start" x="553" y="-1052.5" font-family="Helvetica,sans-Serif" font-size="10.00">+ getNumPackets()</text>
<text text-anchor="start" x="553" y="-1041.5" font-family="Helvetica,sans-Serif" font-size="10.00">+ getPacket()</text>
<text text-anchor="start" x="553" y="-1030.5" font-family="Helvetica,sans-Serif" font-size="10.00">+ getTotalPackets()</text>
<text text-anchor="start" x="553" y="-1019.5" font-family="Helvetica,sans-Serif" font-size="10.00">+ reset()</text>
</a>
</g>
</g>
<!-- Node7&#45;&gt;Node13 -->
<g id="edge13" class="edge">
<title>Node7&#45;&gt;Node13</title>
<path fill="none" stroke="orange" d="M511.94,-1203.15C517.89,-1197.71 523.82,-1192.26 529.5,-1187 539.72,-1177.54 550.43,-1167.54 560.97,-1157.64"/>
<polygon fill="orange" stroke="orange" points="509.43,-1200.71 504.4,-1210.03 514.15,-1205.87 509.43,-1200.71"/>
<text text-anchor="middle" x="595" y="-1179" font-family="Helvetica,sans-Serif" font-size="10.00"> &lt; ImuFramePacket &gt;</text>
</g>
<!-- Node15 -->
<g id="node15" class="node">
<title>Node15</title>
<g id="a_node15"><a xlink:href="classdata_1_1Stream.html" target="_top" xlink:title=" ">
<polygon fill="none" stroke="black" points="0,-1012.5 0,-1157.5 157,-1157.5 157,-1012.5 0,-1012.5"/>
<text text-anchor="middle" x="78.5" y="-1145.5" font-family="Helvetica,sans-Serif" font-size="10.00">data::Stream&lt; DataPacket &gt;</text>
<polyline fill="none" stroke="black" points="0,-1138.5 157,-1138.5 "/>
<text text-anchor="start" x="8" y="-1126.5" font-family="Helvetica,sans-Serif" font-size="10.00">&#45; current_packets_</text>
<text text-anchor="start" x="8" y="-1115.5" font-family="Helvetica,sans-Serif" font-size="10.00">&#45; packet_queue_</text>
<text text-anchor="start" x="8" y="-1104.5" font-family="Helvetica,sans-Serif" font-size="10.00">&#45; stream_mutex_</text>
<text text-anchor="start" x="8" y="-1093.5" font-family="Helvetica,sans-Serif" font-size="10.00">&#45; total_packets_</text>
<polyline fill="none" stroke="black" points="0,-1086.5 157,-1086.5 "/>
<text text-anchor="start" x="8" y="-1074.5" font-family="Helvetica,sans-Serif" font-size="10.00">+ Stream()</text>
<text text-anchor="start" x="8" y="-1063.5" font-family="Helvetica,sans-Serif" font-size="10.00">+ addPacket()</text>
<text text-anchor="start" x="8" y="-1052.5" font-family="Helvetica,sans-Serif" font-size="10.00">+ getNumPackets()</text>
<text text-anchor="start" x="8" y="-1041.5" font-family="Helvetica,sans-Serif" font-size="10.00">+ getPacket()</text>
<text text-anchor="start" x="8" y="-1030.5" font-family="Helvetica,sans-Serif" font-size="10.00">+ getTotalPackets()</text>
<text text-anchor="start" x="8" y="-1019.5" font-family="Helvetica,sans-Serif" font-size="10.00">+ reset()</text>
</a>
</g>
</g>
<!-- Node7&#45;&gt;Node15 -->
<g id="edge16" class="edge">
<title>Node7&#45;&gt;Node15</title>
<path fill="none" stroke="orange" d="M382.89,-1243.71C323.67,-1226.96 235.39,-1197.98 165.5,-1158 162.69,-1156.39 159.88,-1154.7 157.09,-1152.92"/>
<polygon fill="orange" stroke="orange" points="382.29,-1247.17 392.86,-1246.49 384.17,-1240.43 382.29,-1247.17"/>
<text text-anchor="middle" x="258" y="-1179" font-family="Helvetica,sans-Serif" font-size="10.00"> &lt; DataPacket &gt;</text>
</g>
<!-- Node17 -->
<g id="node17" class="node">
<title>Node17</title>
<g id="a_node17"><a xlink:href="classdata_1_1Stream.html" target="_top" xlink:title=" ">
<polygon fill="none" stroke="black" points="175,-1012.5 175,-1157.5 358,-1157.5 358,-1012.5 175,-1012.5"/>
<text text-anchor="middle" x="266.5" y="-1145.5" font-family="Helvetica,sans-Serif" font-size="10.00">data::Stream&lt; GpsFramePacket &gt;</text>
<polyline fill="none" stroke="black" points="175,-1138.5 358,-1138.5 "/>
<text text-anchor="start" x="183" y="-1126.5" font-family="Helvetica,sans-Serif" font-size="10.00">&#45; current_packets_</text>
<text text-anchor="start" x="183" y="-1115.5" font-family="Helvetica,sans-Serif" font-size="10.00">&#45; packet_queue_</text>
<text text-anchor="start" x="183" y="-1104.5" font-family="Helvetica,sans-Serif" font-size="10.00">&#45; stream_mutex_</text>
<text text-anchor="start" x="183" y="-1093.5" font-family="Helvetica,sans-Serif" font-size="10.00">&#45; total_packets_</text>
<polyline fill="none" stroke="black" points="175,-1086.5 358,-1086.5 "/>
<text text-anchor="start" x="183" y="-1074.5" font-family="Helvetica,sans-Serif" font-size="10.00">+ Stream()</text>
<text text-anchor="start" x="183" y="-1063.5" font-family="Helvetica,sans-Serif" font-size="10.00">+ addPacket()</text>
<text text-anchor="start" x="183" y="-1052.5" font-family="Helvetica,sans-Serif" font-size="10.00">+ getNumPackets()</text>
<text text-anchor="start" x="183" y="-1041.5" font-family="Helvetica,sans-Serif" font-size="10.00">+ getPacket()</text>
<text text-anchor="start" x="183" y="-1030.5" font-family="Helvetica,sans-Serif" font-size="10.00">+ getTotalPackets()</text>
<text text-anchor="start" x="183" y="-1019.5" font-family="Helvetica,sans-Serif" font-size="10.00">+ reset()</text>
</a>
</g>
</g>
<!-- Node7&#45;&gt;Node17 -->
<g id="edge19" class="edge">
<title>Node7&#45;&gt;Node17</title>
<path fill="none" stroke="orange" d="M384.43,-1222.77C368.9,-1212.19 352.92,-1199.99 339.5,-1187 330.33,-1178.12 321.51,-1167.97 313.36,-1157.61"/>
<polygon fill="orange" stroke="orange" points="382.74,-1225.85 393,-1228.48 386.62,-1220.02 382.74,-1225.85"/>
<text text-anchor="middle" x="393" y="-1179" font-family="Helvetica,sans-Serif" font-size="10.00"> &lt; GpsFramePacket &gt;</text>
</g>
<!-- Node8 -->
<g id="node8" class="node">
<title>Node8</title>
<g id="a_node8"><a xlink:title=" ">
<polygon fill="none" stroke="#bfbfbf" points="546.5,-1365.5 546.5,-1422.5 594.5,-1422.5 594.5,-1365.5 546.5,-1365.5"/>
<text text-anchor="middle" x="570.5" y="-1410.5" font-family="Helvetica,sans-Serif" font-size="10.00">mutex</text>
<polyline fill="none" stroke="#bfbfbf" points="546.5,-1403.5 594.5,-1403.5 "/>
<text text-anchor="middle" x="570.5" y="-1391.5" font-family="Helvetica,sans-Serif" font-size="10.00"> </text>
<polyline fill="none" stroke="#bfbfbf" points="546.5,-1384.5 594.5,-1384.5 "/>
<text text-anchor="middle" x="570.5" y="-1372.5" font-family="Helvetica,sans-Serif" font-size="10.00"> </text>
</a>
</g>
</g>
<!-- Node8&#45;&gt;Node3 -->
<g id="edge21" class="edge">
<title>Node8&#45;&gt;Node3</title>
<path fill="none" stroke="#404040" d="M594.77,-1389.81C637.52,-1383.68 723.59,-1368.91 743.5,-1347 769.1,-1318.83 757.5,-1300.57 757.5,-1262.5 757.5,-1262.5 757.5,-1262.5 757.5,-786 757.5,-645.59 587.26,-742.7 453.5,-700 451.39,-699.33 449.27,-698.64 447.12,-697.94"/>
<polygon fill="none" stroke="#404040" points="446.92,-697.87 439.97,-699.77 435.54,-694.08 442.49,-692.18 446.92,-697.87"/>
<text text-anchor="middle" x="794.5" y="-986" font-family="Helvetica,sans-Serif" font-size="10.00"> +i2c_bus_lock</text>
</g>
<!-- Node8&#45;&gt;Node7 -->
<g id="edge7" class="edge">
<title>Node8&#45;&gt;Node7</title>
<path fill="none" stroke="#404040" d="M548.6,-1365.25C540.88,-1355.78 532,-1345.26 523.5,-1336 519.94,-1332.12 516.22,-1328.17 512.44,-1324.23"/>
<polygon fill="none" stroke="#404040" points="512.43,-1324.23 505.38,-1322.73 504.06,-1315.64 511.11,-1317.14 512.43,-1324.23"/>
<text text-anchor="middle" x="575.5" y="-1339" font-family="Helvetica,sans-Serif" font-size="10.00"> &#45;stream_mutex_</text>
</g>
<!-- Node9 -->
<g id="node9" class="node">
<title>Node9</title>
<g id="a_node9"><a xlink:title=" ">
<polygon fill="none" stroke="#bfbfbf" points="817,-1365.5 817,-1422.5 846,-1422.5 846,-1365.5 817,-1365.5"/>
<text text-anchor="middle" x="831.5" y="-1410.5" font-family="Helvetica,sans-Serif" font-size="10.00">int</text>
<polyline fill="none" stroke="#bfbfbf" points="817,-1403.5 846,-1403.5 "/>
<text text-anchor="middle" x="831.5" y="-1391.5" font-family="Helvetica,sans-Serif" font-size="10.00"> </text>
<polyline fill="none" stroke="#bfbfbf" points="817,-1384.5 846,-1384.5 "/>
<text text-anchor="middle" x="831.5" y="-1372.5" font-family="Helvetica,sans-Serif" font-size="10.00"> </text>
</a>
</g>
</g>
<!-- Node9&#45;&gt;Node7 -->
<g id="edge8" class="edge">
<title>Node9&#45;&gt;Node7</title>
<path fill="none" stroke="#404040" d="M816.95,-1388.04C768.14,-1371.41 608.09,-1316.88 515.77,-1285.42"/>
<polygon fill="none" stroke="#404040" points="515.68,-1285.39 508.71,-1287.24 504.32,-1281.52 511.29,-1279.67 515.68,-1285.39"/>
<text text-anchor="middle" x="731.5" y="-1339" font-family="Helvetica,sans-Serif" font-size="10.00"> &#45;current_packets_</text>
</g>
<!-- Node23 -->
<g id="node23" class="node">
<title>Node23</title>
<g id="a_node23"><a xlink:href="structcfg_1_1ExtensionMetadata.html" target="_top" xlink:title="The metadata for an extension.">
<polygon fill="none" stroke="black" points="944.5,-631.5 944.5,-699.5 1076.5,-699.5 1076.5,-631.5 944.5,-631.5"/>
<text text-anchor="middle" x="1010.5" y="-687.5" font-family="Helvetica,sans-Serif" font-size="10.00">cfg::ExtensionMetadata</text>
<polyline fill="none" stroke="black" points="944.5,-680.5 1076.5,-680.5 "/>
<text text-anchor="middle" x="1010.5" y="-668.5" font-family="Helvetica,sans-Serif" font-size="10.00"> </text>
<polyline fill="none" stroke="black" points="944.5,-661.5 1076.5,-661.5 "/>
<text text-anchor="start" x="952.5" y="-649.5" font-family="Helvetica,sans-Serif" font-size="10.00">+ getJson()</text>
<text text-anchor="start" x="952.5" y="-638.5" font-family="Helvetica,sans-Serif" font-size="10.00">+ setFromJson()</text>
</a>
</g>
</g>
<!-- Node9&#45;&gt;Node23 -->
<g id="edge28" class="edge">
<title>Node9&#45;&gt;Node23</title>
<path fill="none" stroke="#404040" d="M846.23,-1389.87C889.22,-1379.79 1011.5,-1343.94 1011.5,-1262.5 1011.5,-1262.5 1011.5,-1262.5 1011.5,-786 1011.5,-761.52 1011.29,-734.22 1011.06,-711.9"/>
<polygon fill="none" stroke="#404040" points="1011.06,-711.72 1006.99,-705.77 1010.93,-699.72 1014.99,-705.68 1011.06,-711.72"/>
<text text-anchor="middle" x="1055.5" y="-986" font-family="Helvetica,sans-Serif" font-size="10.00"> +update_interval</text>
</g>
<!-- Node10 -->
<g id="node10" class="node">
<title>Node10</title>
<g id="a_node10"><a xlink:title=" ">
<polygon fill="none" stroke="#bfbfbf" points="304,-1365.5 304,-1422.5 379,-1422.5 379,-1365.5 304,-1365.5"/>
<text text-anchor="middle" x="341.5" y="-1410.5" font-family="Helvetica,sans-Serif" font-size="10.00">queue&lt; T &gt;</text>
<polyline fill="none" stroke="#bfbfbf" points="304,-1403.5 379,-1403.5 "/>
<text text-anchor="middle" x="341.5" y="-1391.5" font-family="Helvetica,sans-Serif" font-size="10.00"> </text>
<polyline fill="none" stroke="#bfbfbf" points="304,-1384.5 379,-1384.5 "/>
<text text-anchor="middle" x="341.5" y="-1372.5" font-family="Helvetica,sans-Serif" font-size="10.00"> </text>
</a>
</g>
</g>
<!-- Node10&#45;&gt;Node7 -->
<g id="edge9" class="edge">
<title>Node10&#45;&gt;Node7</title>
<path fill="none" stroke="#404040" d="M347.92,-1365.5C351.02,-1355.65 355.43,-1344.81 361.5,-1336 367.76,-1326.91 375.43,-1318.29 383.59,-1310.37"/>
<polygon fill="none" stroke="#404040" points="383.78,-1310.2 385.48,-1303.19 392.6,-1302.06 390.9,-1309.07 383.78,-1310.2"/>
<text text-anchor="middle" x="401.5" y="-1339" font-family="Helvetica,sans-Serif" font-size="10.00"> &#45;packet_queue_</text>
</g>
<!-- Node11 -->
<g id="node11" class="node">
<title>Node11</title>
<g id="a_node11"><a xlink:title=" ">
<polygon fill="none" stroke="#bfbfbf" points="401.5,-1365.5 401.5,-1422.5 487.5,-1422.5 487.5,-1365.5 401.5,-1365.5"/>
<text text-anchor="middle" x="444.5" y="-1410.5" font-family="Helvetica,sans-Serif" font-size="10.00">atomic&lt; int &gt;</text>
<polyline fill="none" stroke="#bfbfbf" points="401.5,-1403.5 487.5,-1403.5 "/>
<text text-anchor="middle" x="444.5" y="-1391.5" font-family="Helvetica,sans-Serif" font-size="10.00"> </text>
<polyline fill="none" stroke="#bfbfbf" points="401.5,-1384.5 487.5,-1384.5 "/>
<text text-anchor="middle" x="444.5" y="-1372.5" font-family="Helvetica,sans-Serif" font-size="10.00"> </text>
</a>
</g>
</g>
<!-- Node11&#45;&gt;Node7 -->
<g id="edge10" class="edge">
<title>Node11&#45;&gt;Node7</title>
<path fill="none" stroke="#404040" d="M444.85,-1365.45C445.01,-1356.1 445.22,-1345.6 445.5,-1336 445.56,-1334.07 445.62,-1332.12 445.68,-1330.14"/>
<polygon fill="none" stroke="#404040" points="445.69,-1329.87 441.9,-1323.74 446.1,-1317.88 449.89,-1324.01 445.69,-1329.87"/>
<text text-anchor="middle" x="484.5" y="-1339" font-family="Helvetica,sans-Serif" font-size="10.00"> &#45;total_packets_</text>
</g>
<!-- Node12 -->
<g id="node12" class="node">
<title>Node12</title>
<g id="a_node12"><a xlink:href="classdata_1_1ImuFrameStream.html" target="_top" xlink:title=" ">
<polygon fill="none" stroke="black" points="557,-885.5 557,-942.5 686,-942.5 686,-885.5 557,-885.5"/>
<text text-anchor="middle" x="621.5" y="-930.5" font-family="Helvetica,sans-Serif" font-size="10.00">data::ImuFrameStream</text>
<polyline fill="none" stroke="black" points="557,-923.5 686,-923.5 "/>
<text text-anchor="middle" x="621.5" y="-911.5" font-family="Helvetica,sans-Serif" font-size="10.00"> </text>
<polyline fill="none" stroke="black" points="557,-904.5 686,-904.5 "/>
<text text-anchor="start" x="565" y="-892.5" font-family="Helvetica,sans-Serif" font-size="10.00">+ addFrame()</text>
</a>
</g>
</g>
<!-- Node12&#45;&gt;Node4 -->
<g id="edge11" class="edge">
<title>Node12&#45;&gt;Node4</title>
<path fill="none" stroke="#404040" d="M577.63,-885.31C565.66,-877.92 552.65,-870.05 540.5,-863 512.84,-846.96 481.57,-829.88 455.8,-816.08"/>
<polygon fill="none" stroke="#404040" points="455.7,-816.03 448.52,-816.73 445.11,-810.38 452.29,-809.68 455.7,-816.03"/>
<text text-anchor="middle" x="523" y="-837" font-family="Helvetica,sans-Serif" font-size="10.00"> +imu</text>
</g>
<!-- Node13&#45;&gt;Node12 -->
<g id="edge12" class="edge">
<title>Node13&#45;&gt;Node12</title>
<path fill="none" stroke="midnightblue" d="M629.24,-1002.16C627.33,-980.66 625.4,-958.94 623.95,-942.56"/>
<polygon fill="none" stroke="midnightblue" points="625.77,-1002.68 630.14,-1012.33 632.74,-1002.06 625.77,-1002.68"/>
</g>
<!-- Node14 -->
<g id="node14" class="node">
<title>Node14</title>
<g id="a_node14"><a xlink:href="classdata_1_1DataStream.html" target="_top" xlink:title=" ">
<polygon fill="none" stroke="black" points="70,-880 70,-948 173,-948 173,-880 70,-880"/>
<text text-anchor="middle" x="121.5" y="-936" font-family="Helvetica,sans-Serif" font-size="10.00">data::DataStream</text>
<polyline fill="none" stroke="black" points="70,-929 173,-929 "/>
<text text-anchor="middle" x="121.5" y="-917" font-family="Helvetica,sans-Serif" font-size="10.00"> </text>
<polyline fill="none" stroke="black" points="70,-910 173,-910 "/>
<text text-anchor="start" x="78" y="-898" font-family="Helvetica,sans-Serif" font-size="10.00">+ addData()</text>
<text text-anchor="start" x="78" y="-887" font-family="Helvetica,sans-Serif" font-size="10.00">+ reportStatus()</text>
</a>
</g>
</g>
<!-- Node14&#45;&gt;Node4 -->
<g id="edge14" class="edge">
<title>Node14&#45;&gt;Node4</title>
<path fill="none" stroke="#404040" d="M168.61,-879.96C178.54,-873.82 189.15,-867.82 199.5,-863 259.85,-834.89 283.22,-842.3 348.64,-816.39"/>
<polygon fill="none" stroke="#404040" points="348.87,-816.29 352.9,-810.32 359.97,-811.74 355.94,-817.72 348.87,-816.29"/>
<text text-anchor="middle" x="310.5" y="-837" font-family="Helvetica,sans-Serif" font-size="10.00"> +data</text>
</g>
<!-- Node15&#45;&gt;Node14 -->
<g id="edge15" class="edge">
<title>Node15&#45;&gt;Node14</title>
<path fill="none" stroke="midnightblue" d="M99.21,-1002.6C104.12,-983.32 109.07,-963.84 113.07,-948.15"/>
<polygon fill="none" stroke="midnightblue" points="95.81,-1001.77 96.74,-1012.33 102.59,-1003.5 95.81,-1001.77"/>
</g>
<!-- Node16 -->
<g id="node16" class="node">
<title>Node16</title>
<g id="a_node16"><a xlink:href="classdata_1_1GpsFrameStream.html" target="_top" xlink:title=" ">
<polygon fill="none" stroke="black" points="209,-885.5 209,-942.5 338,-942.5 338,-885.5 209,-885.5"/>
<text text-anchor="middle" x="273.5" y="-930.5" font-family="Helvetica,sans-Serif" font-size="10.00">data::GpsFrameStream</text>
<polyline fill="none" stroke="black" points="209,-923.5 338,-923.5 "/>
<text text-anchor="middle" x="273.5" y="-911.5" font-family="Helvetica,sans-Serif" font-size="10.00"> </text>
<polyline fill="none" stroke="black" points="209,-904.5 338,-904.5 "/>
<text text-anchor="start" x="217" y="-892.5" font-family="Helvetica,sans-Serif" font-size="10.00">+ addFrame()</text>
</a>
</g>
</g>
<!-- Node16&#45;&gt;Node4 -->
<g id="edge17" class="edge">
<title>Node16&#45;&gt;Node4</title>
<path fill="none" stroke="#404040" d="M302.13,-885.26C320.67,-867.29 345,-843.71 365.07,-824.27"/>
<polygon fill="none" stroke="#404040" points="365.33,-824.01 366.86,-816.97 373.95,-815.66 372.43,-822.71 365.33,-824.01"/>
<text text-anchor="middle" x="368" y="-837" font-family="Helvetica,sans-Serif" font-size="10.00"> +gps</text>
</g>
<!-- Node17&#45;&gt;Node16 -->
<g id="edge18" class="edge">
<title>Node17&#45;&gt;Node16</title>
<path fill="none" stroke="midnightblue" d="M269.89,-1002.16C270.78,-980.66 271.68,-958.94 272.36,-942.56"/>
<polygon fill="none" stroke="midnightblue" points="266.39,-1002.19 269.47,-1012.33 273.38,-1002.48 266.39,-1002.19"/>
</g>
<!-- Node18 -->
<g id="node18" class="node">
<title>Node18</title>
<g id="a_node18"><a xlink:title=" ">
<polygon fill="none" stroke="#bfbfbf" points="291.5,-758.5 291.5,-815.5 341.5,-815.5 341.5,-758.5 291.5,-758.5"/>
<text text-anchor="middle" x="316.5" y="-803.5" font-family="Helvetica,sans-Serif" font-size="10.00">I2CBus</text>
<polyline fill="none" stroke="#bfbfbf" points="291.5,-796.5 341.5,-796.5 "/>
<text text-anchor="middle" x="316.5" y="-784.5" font-family="Helvetica,sans-Serif" font-size="10.00"> </text>
<polyline fill="none" stroke="#bfbfbf" points="291.5,-777.5 341.5,-777.5 "/>
<text text-anchor="middle" x="316.5" y="-765.5" font-family="Helvetica,sans-Serif" font-size="10.00"> </text>
</a>
</g>
</g>
<!-- Node18&#45;&gt;Node3 -->
<g id="edge20" class="edge">
<title>Node18&#45;&gt;Node3</title>
<path fill="none" stroke="#404040" d="M317.35,-758.18C318.44,-745.59 320.75,-730.72 325.5,-718 327.18,-713.5 329.32,-709 331.7,-704.63"/>
<polygon fill="none" stroke="#404040" points="331.82,-704.42 331.48,-697.22 337.99,-694.13 338.34,-701.33 331.82,-704.42"/>
<text text-anchor="middle" x="350" y="-726.5" font-family="Helvetica,sans-Serif" font-size="10.00"> +i2c_bus</text>
</g>
<!-- Node19 -->
<g id="node19" class="node">
<title>Node19</title>
<g id="a_node19"><a xlink:title=" ">
<polygon fill="none" stroke="#bfbfbf" points="462.5,-637 462.5,-694 596.5,-694 596.5,-637 462.5,-637"/>
<text text-anchor="middle" x="529.5" y="-682" font-family="Helvetica,sans-Serif" font-size="10.00">atomic&lt; DiagnosticId &gt;</text>
<polyline fill="none" stroke="#bfbfbf" points="462.5,-675 596.5,-675 "/>
<text text-anchor="middle" x="529.5" y="-663" font-family="Helvetica,sans-Serif" font-size="10.00"> </text>
<polyline fill="none" stroke="#bfbfbf" points="462.5,-656 596.5,-656 "/>
<text text-anchor="middle" x="529.5" y="-644" font-family="Helvetica,sans-Serif" font-size="10.00"> </text>
</a>
</g>
</g>
<!-- Node19&#45;&gt;Node2 -->
<g id="edge22" class="edge">
<title>Node19&#45;&gt;Node2</title>
<path fill="none" stroke="#404040" d="M545.12,-636.83C564.65,-603.15 599.99,-545.18 636.5,-500 669.44,-459.24 710.49,-417.49 744.76,-384.69"/>
<polygon fill="none" stroke="#404040" points="745.08,-384.38 746.67,-377.35 753.78,-376.11 752.18,-383.14 745.08,-384.38"/>
<text text-anchor="middle" x="668.5" y="-554" font-family="Helvetica,sans-Serif" font-size="10.00"> &#45;fault_code_</text>
</g>
<!-- Node20 -->
<g id="node20" class="node">
<title>Node20</title>
<g id="a_node20"><a xlink:title=" ">
<polygon fill="none" stroke="#bfbfbf" points="614.5,-637 614.5,-694 748.5,-694 748.5,-637 614.5,-637"/>
<text text-anchor="middle" x="681.5" y="-682" font-family="Helvetica,sans-Serif" font-size="10.00">atomic&lt; node::Status &gt;</text>
<polyline fill="none" stroke="#bfbfbf" points="614.5,-675 748.5,-675 "/>
<text text-anchor="middle" x="681.5" y="-663" font-family="Helvetica,sans-Serif" font-size="10.00"> </text>
<polyline fill="none" stroke="#bfbfbf" points="614.5,-656 748.5,-656 "/>
<text text-anchor="middle" x="681.5" y="-644" font-family="Helvetica,sans-Serif" font-size="10.00"> </text>
</a>
</g>
</g>
<!-- Node20&#45;&gt;Node2 -->
<g id="edge23" class="edge">
<title>Node20&#45;&gt;Node2</title>
<path fill="none" stroke="#404040" d="M692.19,-636.76C704.96,-603.62 727.4,-545.41 749.53,-487.99"/>
<polygon fill="none" stroke="#404040" points="749.63,-487.72 748.06,-480.68 753.95,-476.52 755.52,-483.56 749.63,-487.72"/>
<text text-anchor="middle" x="766" y="-554" font-family="Helvetica,sans-Serif" font-size="10.00"> &#45;status_</text>
</g>
<!-- Node21 -->
<g id="node21" class="node">
<title>Node21</title>
<g id="a_node21"><a xlink:title=" ">
<polygon fill="none" stroke="#bfbfbf" points="766.5,-637 766.5,-694 860.5,-694 860.5,-637 766.5,-637"/>
<text text-anchor="middle" x="813.5" y="-682" font-family="Helvetica,sans-Serif" font-size="10.00">atomic&lt; bool &gt;</text>
<polyline fill="none" stroke="#bfbfbf" points="766.5,-675 860.5,-675 "/>
<text text-anchor="middle" x="813.5" y="-663" font-family="Helvetica,sans-Serif" font-size="10.00"> </text>
<polyline fill="none" stroke="#bfbfbf" points="766.5,-656 860.5,-656 "/>
<text text-anchor="middle" x="813.5" y="-644" font-family="Helvetica,sans-Serif" font-size="10.00"> </text>
</a>
</g>
</g>
<!-- Node21&#45;&gt;Node2 -->
<g id="edge24" class="edge">
<title>Node21&#45;&gt;Node2</title>
<path fill="none" stroke="#404040" d="M813.5,-636.76C813.5,-604.79 813.5,-549.49 813.5,-494.08"/>
<polygon fill="none" stroke="#404040" points="813.5,-493.89 809.5,-487.89 813.5,-481.89 817.5,-487.89 813.5,-493.89"/>
<text text-anchor="middle" x="842.5" y="-559.5" font-family="Helvetica,sans-Serif" font-size="10.00"> &#45;fault_flag_</text>
<text text-anchor="middle" x="842.5" y="-548.5" font-family="Helvetica,sans-Serif" font-size="10.00">&#45;stop_flag_</text>
</g>
<!-- Node22 -->
<g id="node22" class="node">
<title>Node22</title>
<g id="a_node22"><a xlink:title=" ">
<polygon fill="none" stroke="#bfbfbf" points="878.5,-637 878.5,-694 926.5,-694 926.5,-637 878.5,-637"/>
<text text-anchor="middle" x="902.5" y="-682" font-family="Helvetica,sans-Serif" font-size="10.00">thread</text>
<polyline fill="none" stroke="#bfbfbf" points="878.5,-675 926.5,-675 "/>
<text text-anchor="middle" x="902.5" y="-663" font-family="Helvetica,sans-Serif" font-size="10.00"> </text>
<polyline fill="none" stroke="#bfbfbf" points="878.5,-656 926.5,-656 "/>
<text text-anchor="middle" x="902.5" y="-644" font-family="Helvetica,sans-Serif" font-size="10.00"> </text>
</a>
</g>
</g>
<!-- Node22&#45;&gt;Node2 -->
<g id="edge25" class="edge">
<title>Node22&#45;&gt;Node2</title>
<path fill="none" stroke="#404040" d="M898.67,-636.89C893.83,-604 884.65,-547.53 872.5,-500 871.95,-497.85 871.39,-495.68 870.81,-493.51"/>
<polygon fill="none" stroke="#404040" points="870.78,-493.38 865.35,-488.63 867.63,-481.79 873.07,-486.54 870.78,-493.38"/>
<text text-anchor="middle" x="935" y="-554" font-family="Helvetica,sans-Serif" font-size="10.00"> &#45;runner_thread_</text>
</g>
<!-- Node23&#45;&gt;Node2 -->
<g id="edge26" class="edge">
<title>Node23&#45;&gt;Node2</title>
<path fill="none" stroke="#404040" d="M999.47,-631.45C997.65,-625.35 995.91,-619.02 994.5,-613 982.93,-563.48 998.61,-545.8 976.5,-500 954.18,-453.75 915.87,-410.99 882.01,-378.98"/>
<polygon fill="none" stroke="#404040" points="881.84,-378.83 874.72,-377.68 873.05,-370.66 880.16,-371.81 881.84,-378.83"/>
<text text-anchor="middle" x="1026.5" y="-554" font-family="Helvetica,sans-Serif" font-size="10.00"> #metadata_</text>
</g>
<!-- Node24 -->
<g id="node24" class="node">
<title>Node24</title>
<g id="a_node24"><a xlink:title=" ">
<polygon fill="none" stroke="#bfbfbf" points="896,-758.5 896,-815.5 983,-815.5 983,-758.5 896,-758.5"/>
<text text-anchor="middle" x="939.5" y="-803.5" font-family="Helvetica,sans-Serif" font-size="10.00">ExtensionType</text>
<polyline fill="none" stroke="#bfbfbf" points="896,-796.5 983,-796.5 "/>
<text text-anchor="middle" x="939.5" y="-784.5" font-family="Helvetica,sans-Serif" font-size="10.00"> </text>
<polyline fill="none" stroke="#bfbfbf" points="896,-777.5 983,-777.5 "/>
<text text-anchor="middle" x="939.5" y="-765.5" font-family="Helvetica,sans-Serif" font-size="10.00"> </text>
</a>
</g>
</g>
<!-- Node24&#45;&gt;Node23 -->
<g id="edge27" class="edge">
<title>Node24&#45;&gt;Node23</title>
<path fill="none" stroke="#404040" d="M946.49,-758.41C950.41,-745.59 956.04,-730.46 963.5,-718 965.28,-715.03 967.25,-712.08 969.34,-709.19"/>
<polygon fill="none" stroke="#404040" points="969.45,-709.05 969.99,-701.86 976.84,-699.59 976.29,-706.78 969.45,-709.05"/>
<text text-anchor="middle" x="980.5" y="-726.5" font-family="Helvetica,sans-Serif" font-size="10.00"> +type</text>
</g>
<!-- Node25 -->
<g id="node25" class="node">
<title>Node25</title>
<g id="a_node25"><a xlink:title=" ">
<polygon fill="none" stroke="#bfbfbf" points="839.5,-758.5 839.5,-815.5 877.5,-815.5 877.5,-758.5 839.5,-758.5"/>
<text text-anchor="middle" x="858.5" y="-803.5" font-family="Helvetica,sans-Serif" font-size="10.00">bool</text>
<polyline fill="none" stroke="#bfbfbf" points="839.5,-796.5 877.5,-796.5 "/>
<text text-anchor="middle" x="858.5" y="-784.5" font-family="Helvetica,sans-Serif" font-size="10.00"> </text>
<polyline fill="none" stroke="#bfbfbf" points="839.5,-777.5 877.5,-777.5 "/>
<text text-anchor="middle" x="858.5" y="-765.5" font-family="Helvetica,sans-Serif" font-size="10.00"> </text>
</a>
</g>
</g>
<!-- Node25&#45;&gt;Node23 -->
<g id="edge29" class="edge">
<title>Node25&#45;&gt;Node23</title>
<path fill="none" stroke="#404040" d="M871.38,-758.22C878.71,-744.74 888.94,-729.1 901.5,-718 904.76,-715.11 917.44,-708.65 933.06,-701.25"/>
<polygon fill="none" stroke="#404040" points="933.39,-701.1 937.13,-694.93 944.26,-696.01 940.52,-702.18 933.39,-701.1"/>
<text text-anchor="middle" x="925.5" y="-732" font-family="Helvetica,sans-Serif" font-size="10.00"> +critical</text>
<text text-anchor="middle" x="925.5" y="-721" font-family="Helvetica,sans-Serif" font-size="10.00">+enabled</text>
</g>
<!-- Node26 -->
<g id="node26" class="node">
<title>Node26</title>
<g id="a_node26"><a xlink:title=" ">
<polygon fill="none" stroke="#bfbfbf" points="1074.5,-758.5 1074.5,-815.5 1118.5,-815.5 1118.5,-758.5 1074.5,-758.5"/>
<text text-anchor="middle" x="1096.5" y="-803.5" font-family="Helvetica,sans-Serif" font-size="10.00">string</text>
<polyline fill="none" stroke="#bfbfbf" points="1074.5,-796.5 1118.5,-796.5 "/>
<text text-anchor="middle" x="1096.5" y="-784.5" font-family="Helvetica,sans-Serif" font-size="10.00"> </text>
<polyline fill="none" stroke="#bfbfbf" points="1074.5,-777.5 1118.5,-777.5 "/>
<text text-anchor="middle" x="1096.5" y="-765.5" font-family="Helvetica,sans-Serif" font-size="10.00"> </text>
</a>
</g>
</g>
<!-- Node26&#45;&gt;Node23 -->
<g id="edge30" class="edge">
<title>Node26&#45;&gt;Node23</title>
<path fill="none" stroke="#404040" d="M1074.4,-767.66C1065.67,-759.73 1055.96,-749.98 1048.5,-740 1041.74,-730.96 1035.55,-720.54 1030.22,-710.45"/>
<polygon fill="none" stroke="#404040" points="1030.2,-710.41 1023.92,-706.86 1024.78,-699.7 1031.06,-703.25 1030.2,-710.41"/>
<text text-anchor="middle" x="1080.5" y="-732" font-family="Helvetica,sans-Serif" font-size="10.00"> +extra_args</text>
<text text-anchor="middle" x="1080.5" y="-721" font-family="Helvetica,sans-Serif" font-size="10.00">+name</text>
</g>
<!-- Node29 -->
<g id="node29" class="node">
<title>Node29</title>
<g id="a_node29"><a xlink:href="classOneWireInterface.html" target="_top" xlink:title=" ">
<polygon fill="none" stroke="black" points="1067.5,-500.5 1067.5,-612.5 1203.5,-612.5 1203.5,-500.5 1067.5,-500.5"/>
<text text-anchor="middle" x="1135.5" y="-600.5" font-family="Helvetica,sans-Serif" font-size="10.00">OneWireInterface</text>
<polyline fill="none" stroke="black" points="1067.5,-593.5 1203.5,-593.5 "/>
<text text-anchor="middle" x="1135.5" y="-581.5" font-family="Helvetica,sans-Serif" font-size="10.00"> </text>
<polyline fill="none" stroke="black" points="1067.5,-574.5 1203.5,-574.5 "/>
<text text-anchor="start" x="1075.5" y="-562.5" font-family="Helvetica,sans-Serif" font-size="10.00">+ OneWireInterface()</text>
<text text-anchor="start" x="1075.5" y="-551.5" font-family="Helvetica,sans-Serif" font-size="10.00">+ ~OneWireInterface()</text>
<text text-anchor="start" x="1075.5" y="-540.5" font-family="Helvetica,sans-Serif" font-size="10.00">+ deviceExists()</text>
<text text-anchor="start" x="1075.5" y="-529.5" font-family="Helvetica,sans-Serif" font-size="10.00">+ readTemperatureFile()</text>
<text text-anchor="start" x="1075.5" y="-518.5" font-family="Helvetica,sans-Serif" font-size="10.00">+ readW1SlaveFile()</text>
<text text-anchor="start" x="1075.5" y="-507.5" font-family="Helvetica,sans-Serif" font-size="10.00">+ setDeviceId()</text>
</a>
</g>
</g>
<!-- Node26&#45;&gt;Node29 -->
<g id="edge34" class="edge">
<title>Node26&#45;&gt;Node29</title>
<path fill="none" stroke="#404040" d="M1107.26,-758.06C1109.24,-752.16 1111.11,-745.93 1112.5,-740 1121.29,-702.48 1126.9,-659.78 1130.38,-625.12"/>
<polygon fill="none" stroke="#404040" points="1130.42,-624.68 1127.01,-618.33 1131.57,-612.74 1134.98,-619.09 1130.42,-624.68"/>
<text text-anchor="middle" x="1133.5" y="-726.5" font-family="Helvetica,sans-Serif" font-size="10.00"> &#45;path_</text>
</g>
<!-- Node27 -->
<g id="node27" class="node">
<title>Node27</title>
<g id="a_node27"><a xlink:title=" ">
<polygon fill="none" stroke="#bfbfbf" points="1086,-292.5 1086,-349.5 1163,-349.5 1163,-292.5 1086,-292.5"/>
<text text-anchor="middle" x="1124.5" y="-337.5" font-family="Helvetica,sans-Serif" font-size="10.00">DiagnosticId</text>
<polyline fill="none" stroke="#bfbfbf" points="1086,-330.5 1163,-330.5 "/>
<text text-anchor="middle" x="1124.5" y="-318.5" font-family="Helvetica,sans-Serif" font-size="10.00"> </text>
<polyline fill="none" stroke="#bfbfbf" points="1086,-311.5 1163,-311.5 "/>
<text text-anchor="middle" x="1124.5" y="-299.5" font-family="Helvetica,sans-Serif" font-size="10.00"> </text>
</a>
</g>
</g>
<!-- Node27&#45;&gt;Node1 -->
<g id="edge31" class="edge">
<title>Node27&#45;&gt;Node1</title>
<path fill="none" stroke="#404040" d="M1119.9,-292.35C1114.34,-257.44 1105.24,-195.46 1101.5,-142 1100.86,-132.9 1100.47,-123.26 1100.23,-113.81"/>
<polygon fill="none" stroke="#404040" points="1100.23,-113.55 1096.12,-107.63 1100.01,-101.56 1104.12,-107.48 1100.23,-113.55"/>
<text text-anchor="middle" x="1154.5" y="-128.5" font-family="Helvetica,sans-Serif" font-size="10.00"> &#45;read_timeout_fault_</text>
</g>
<!-- Node28 -->
<g id="node28" class="node">
<title>Node28</title>
<g id="a_node28"><a xlink:title=" ">
<polygon fill="none" stroke="#bfbfbf" points="1204.5,-292.5 1204.5,-349.5 1254.5,-349.5 1254.5,-292.5 1204.5,-292.5"/>
<text text-anchor="middle" x="1229.5" y="-337.5" font-family="Helvetica,sans-Serif" font-size="10.00">double</text>
<polyline fill="none" stroke="#bfbfbf" points="1204.5,-330.5 1254.5,-330.5 "/>
<text text-anchor="middle" x="1229.5" y="-318.5" font-family="Helvetica,sans-Serif" font-size="10.00"> </text>
<polyline fill="none" stroke="#bfbfbf" points="1204.5,-311.5 1254.5,-311.5 "/>
<text text-anchor="middle" x="1229.5" y="-299.5" font-family="Helvetica,sans-Serif" font-size="10.00"> </text>
</a>
</g>
</g>
<!-- Node28&#45;&gt;Node1 -->
<g id="edge32" class="edge">
<title>Node28&#45;&gt;Node1</title>
<path fill="none" stroke="#404040" d="M1233.55,-292.38C1238.09,-251.42 1240.93,-173.67 1207.5,-120 1202.82,-112.49 1196.97,-105.66 1190.43,-99.48"/>
<polygon fill="none" stroke="#404040" points="1190.22,-99.3 1183.06,-98.4 1181.13,-91.46 1188.29,-92.35 1190.22,-99.3"/>
<text text-anchor="middle" x="1254" y="-128.5" font-family="Helvetica,sans-Serif" font-size="10.00"> &#45;temperature_</text>
</g>
<!-- Node29&#45;&gt;Node1 -->
<g id="edge33" class="edge">
<title>Node29&#45;&gt;Node1</title>
<path fill="none" stroke="#404040" d="M1067.28,-503.27C1065.68,-502.16 1064.08,-501.07 1062.5,-500 1049.62,-491.28 1040.16,-495.53 1032.5,-482 961.99,-357.46 992.82,-297.5 1032.5,-160 1037.27,-143.47 1045.4,-127.03 1054.42,-112.15"/>
<polygon fill="none" stroke="#404040" points="1054.68,-111.74 1054.52,-104.53 1061.11,-101.61 1061.27,-108.82 1054.68,-111.74"/>
<text text-anchor="middle" x="1055" y="-318.5" font-family="Helvetica,sans-Serif" font-size="10.00"> &#45;device_</text>
</g>
<!-- Node30 -->
<g id="node30" class="node">
<title>Node30</title>
<g id="a_node30"><a xlink:title=" ">
<polygon fill="none" stroke="#bfbfbf" points="1303,-292.5 1303,-349.5 1348,-349.5 1348,-292.5 1303,-292.5"/>
<text text-anchor="middle" x="1325.5" y="-337.5" font-family="Helvetica,sans-Serif" font-size="10.00">Timer</text>
<polyline fill="none" stroke="#bfbfbf" points="1303,-330.5 1348,-330.5 "/>
<text text-anchor="middle" x="1325.5" y="-318.5" font-family="Helvetica,sans-Serif" font-size="10.00"> </text>
<polyline fill="none" stroke="#bfbfbf" points="1303,-311.5 1348,-311.5 "/>
<text text-anchor="middle" x="1325.5" y="-299.5" font-family="Helvetica,sans-Serif" font-size="10.00"> </text>
</a>
</g>
</g>
<!-- Node30&#45;&gt;Node1 -->
<g id="edge35" class="edge">
<title>Node30&#45;&gt;Node1</title>
<path fill="none" stroke="#404040" d="M1329.44,-292.2C1333.8,-249.95 1335.5,-169.3 1294.5,-120 1269.38,-89.79 1229.99,-72.99 1193.25,-63.65"/>
<polygon fill="none" stroke="#404040" points="1193.11,-63.62 1186.36,-66.14 1181.43,-60.87 1188.19,-58.35 1193.11,-63.62"/>
<text text-anchor="middle" x="1338" y="-134" font-family="Helvetica,sans-Serif" font-size="10.00"> &#45;init_timer_</text>
<text text-anchor="middle" x="1338" y="-123" font-family="Helvetica,sans-Serif" font-size="10.00">&#45;read_timer_</text>
</g>
</g>
</svg>
