<?xml version="1.0" encoding="UTF-8" standalone="no"?>
<!DOCTYPE svg PUBLIC "-//W3C//DTD SVG 1.1//EN"
 "http://www.w3.org/Graphics/SVG/1.1/DTD/svg11.dtd">
<!-- Generated by graphviz version 2.43.0 (0)
 -->
<!-- Title: giraffe::gdl::NetworkLayer::txSstvImage Pages: 1 -->
<svg width="306pt" height="86pt"
 viewBox="0.00 0.00 306.00 86.00" xmlns="http://www.w3.org/2000/svg" xmlns:xlink="http://www.w3.org/1999/xlink">
<g id="graph0" class="graph" transform="scale(1 1) rotate(0) translate(4 82)">
<title>giraffe::gdl::NetworkLayer::txSstvImage</title>
<!-- Node1 -->
<g id="Node000001" class="node">
<title>Node1</title>
<g id="a_Node000001"><a xlink:title="Broadcast an SSTV image.">
<polygon fill="#999999" stroke="#666666" points="143,-54 0,-54 0,-24 143,-24 143,-54"/>
<text text-anchor="start" x="8" y="-42" font-family="Helvetica,sans-Serif" font-size="10.00">giraffe::gdl::NetworkLayer</text>
<text text-anchor="middle" x="71.5" y="-31" font-family="Helvetica,sans-Serif" font-size="10.00">::txSstvImage</text>
</a>
</g>
</g>
<!-- Node2 -->
<g id="Node000002" class="node">
<title>Node2</title>
<g id="a_Node000002"><a xlink:href="classgiraffe_1_1gdl_1_1Config.html#aed911ca37add8a6519900eef34bb4fcc" target="_top" xlink:title=" ">
<polygon fill="white" stroke="#666666" points="291.5,-78 185.5,-78 185.5,-48 291.5,-48 291.5,-78"/>
<text text-anchor="start" x="193.5" y="-66" font-family="Helvetica,sans-Serif" font-size="10.00">giraffe::gdl::Config</text>
<text text-anchor="middle" x="238.5" y="-55" font-family="Helvetica,sans-Serif" font-size="10.00">::getCallSign</text>
</a>
</g>
</g>
<!-- Node1&#45;&gt;Node2 -->
<g id="edge1_Node000001_Node000002" class="edge">
<title>Node1&#45;&gt;Node2</title>
<g id="a_edge1_Node000001_Node000002"><a xlink:title=" ">
<path fill="none" stroke="#63b8ff" d="M143.43,-49.32C153.91,-50.84 164.65,-52.4 174.94,-53.9"/>
<polygon fill="#63b8ff" stroke="#63b8ff" points="174.67,-57.4 185.07,-55.37 175.67,-50.47 174.67,-57.4"/>
</a>
</g>
</g>
<!-- Node3 -->
<g id="Node000003" class="node">
<title>Node3</title>
<g id="a_Node000003"><a xlink:href="classgiraffe_1_1gdl_1_1Message.html#ab19b90512b2e9c4b3093d38a5539d920" target="_top" xlink:title=" ">
<polygon fill="white" stroke="#666666" points="298,-30 179,-30 179,0 298,0 298,-30"/>
<text text-anchor="start" x="187" y="-18" font-family="Helvetica,sans-Serif" font-size="10.00">giraffe::gdl::Message</text>
<text text-anchor="middle" x="238.5" y="-7" font-family="Helvetica,sans-Serif" font-size="10.00">::getImage</text>
</a>
</g>
</g>
<!-- Node1&#45;&gt;Node3 -->
<g id="edge2_Node000001_Node000003" class="edge">
<title>Node1&#45;&gt;Node3</title>
<g id="a_edge2_Node000001_Node000003"><a xlink:title=" ">
<path fill="none" stroke="#63b8ff" d="M143.43,-28.68C151.82,-27.46 160.36,-26.22 168.71,-25.01"/>
<polygon fill="#63b8ff" stroke="#63b8ff" points="169.39,-28.44 178.78,-23.54 168.38,-21.52 169.39,-28.44"/>
</a>
</g>
</g>
</g>
</svg>
