<?xml version="1.0" encoding="UTF-8" standalone="no"?>
<!DOCTYPE svg PUBLIC "-//W3C//DTD SVG 1.1//EN"
 "http://www.w3.org/Graphics/SVG/1.1/DTD/svg11.dtd">
<!-- Generated by graphviz version 2.43.0 (0)
 -->
<!-- Title: FlightPhaseManager::forceRecovery Pages: 1 -->
<svg width="800pt" height="293pt"
 viewBox="0.00 0.00 800.00 292.50" xmlns="http://www.w3.org/2000/svg" xmlns:xlink="http://www.w3.org/1999/xlink">
<g id="graph0" class="graph" transform="scale(1 1) rotate(0) translate(4 288.5)">
<title>FlightPhaseManager::forceRecovery</title>
<!-- Node1 -->
<g id="Node000001" class="node">
<title>Node1</title>
<g id="a_Node000001"><a xlink:title=" ">
<polygon fill="#999999" stroke="#666666" points="116,-178 0,-178 0,-148 116,-148 116,-178"/>
<text text-anchor="start" x="8" y="-166" font-family="Helvetica,sans-Serif" font-size="10.00">FlightPhaseManager</text>
<text text-anchor="middle" x="58" y="-155" font-family="Helvetica,sans-Serif" font-size="10.00">::forceRecovery</text>
</a>
</g>
</g>
<!-- Node2 -->
<g id="Node000002" class="node">
<title>Node2</title>
<g id="a_Node000002"><a xlink:href="classgiraffe_1_1Logger.html#a2947dae610f76345978c81132ea84edc" target="_top" xlink:title=" ">
<polygon fill="white" stroke="#666666" points="268,-228.5 152,-228.5 152,-209.5 268,-209.5 268,-228.5"/>
<text text-anchor="middle" x="210" y="-216.5" font-family="Helvetica,sans-Serif" font-size="10.00">giraffe::Logger::error</text>
</a>
</g>
</g>
<!-- Node1&#45;&gt;Node2 -->
<g id="edge1_Node000001_Node000002" class="edge">
<title>Node1&#45;&gt;Node2</title>
<g id="a_edge1_Node000001_Node000002"><a xlink:title=" ">
<path fill="none" stroke="#63b8ff" d="M99.2,-178.01C122.48,-186.7 151.51,-197.54 173.88,-205.89"/>
<polygon fill="#63b8ff" stroke="#63b8ff" points="172.73,-209.2 183.33,-209.42 175.18,-202.64 172.73,-209.2"/>
</a>
</g>
</g>
<!-- Node8 -->
<g id="Node000008" class="node">
<title>Node8</title>
<g id="a_Node000008"><a xlink:href="classFlightPhaseManager.html#a85ff07e3141863f505d562e7672d995f" target="_top" xlink:title=" ">
<polygon fill="white" stroke="#666666" points="425,-121 309,-121 309,-91 425,-91 425,-121"/>
<text text-anchor="start" x="317" y="-109" font-family="Helvetica,sans-Serif" font-size="10.00">FlightPhaseManager</text>
<text text-anchor="middle" x="367" y="-98" font-family="Helvetica,sans-Serif" font-size="10.00">::setFlightPhase</text>
</a>
</g>
</g>
<!-- Node1&#45;&gt;Node8 -->
<g id="edge11_Node000001_Node000008" class="edge">
<title>Node1&#45;&gt;Node8</title>
<g id="a_edge11_Node000001_Node000008"><a xlink:title=" ">
<path fill="none" stroke="#63b8ff" d="M116.02,-152.41C167.77,-142.8 244.12,-128.63 298.81,-118.47"/>
<polygon fill="#63b8ff" stroke="#63b8ff" points="299.57,-121.89 308.76,-116.63 298.29,-115.01 299.57,-121.89"/>
</a>
</g>
</g>
<!-- Node3 -->
<g id="Node000003" class="node">
<title>Node3</title>
<g id="a_Node000003"><a xlink:href="classdata_1_1LogStream.html#a18af3025ca8f1e60e5bd795f10b6c8b1" target="_top" xlink:title=" ">
<polygon fill="white" stroke="#666666" points="430,-228.5 304,-228.5 304,-209.5 430,-209.5 430,-228.5"/>
<text text-anchor="middle" x="367" y="-216.5" font-family="Helvetica,sans-Serif" font-size="10.00">data::LogStream::error</text>
</a>
</g>
</g>
<!-- Node2&#45;&gt;Node3 -->
<g id="edge2_Node000002_Node000003" class="edge">
<title>Node2&#45;&gt;Node3</title>
<g id="a_edge2_Node000002_Node000003"><a xlink:title=" ">
<path fill="none" stroke="#63b8ff" d="M268.28,-219C276.49,-219 285.03,-219 293.49,-219"/>
<polygon fill="#63b8ff" stroke="#63b8ff" points="293.75,-222.5 303.75,-219 293.75,-215.5 293.75,-222.5"/>
</a>
</g>
</g>
<!-- Node7 -->
<g id="Node000007" class="node">
<title>Node7</title>
<g id="a_Node000007"><a xlink:href="classgiraffe_1_1Logger.html#af8465c2895fd50680183e36e093e66e3" target="_top" xlink:title=" ">
<polygon fill="white" stroke="#666666" points="423,-265.5 311,-265.5 311,-246.5 423,-246.5 423,-265.5"/>
<text text-anchor="middle" x="367" y="-253.5" font-family="Helvetica,sans-Serif" font-size="10.00">giraffe::Logger::info</text>
</a>
</g>
</g>
<!-- Node2&#45;&gt;Node7 -->
<g id="edge9_Node000002_Node000007" class="edge">
<title>Node2&#45;&gt;Node7</title>
<g id="a_edge9_Node000002_Node000007"><a xlink:title=" ">
<path fill="none" stroke="#63b8ff" d="M250.92,-228.53C270.82,-233.28 295.08,-239.07 316.19,-244.11"/>
<polygon fill="#63b8ff" stroke="#63b8ff" points="315.41,-247.52 325.95,-246.44 317.04,-240.71 315.41,-247.52"/>
</a>
</g>
</g>
<!-- Node4 -->
<g id="Node000004" class="node">
<title>Node4</title>
<g id="a_Node000004"><a xlink:href="classdata_1_1Stream.html#a1ff9a93190dbecdc2ffa27deaaa4266a" target="_top" xlink:title=" ">
<polygon fill="white" stroke="#666666" points="792,-172 652,-172 652,-142 792,-142 792,-172"/>
<text text-anchor="start" x="660" y="-160" font-family="Helvetica,sans-Serif" font-size="10.00">data::Stream&lt; LogPacket</text>
<text text-anchor="middle" x="722" y="-149" font-family="Helvetica,sans-Serif" font-size="10.00"> &gt;::addPacket</text>
</a>
</g>
</g>
<!-- Node3&#45;&gt;Node4 -->
<g id="edge3_Node000003_Node000004" class="edge">
<title>Node3&#45;&gt;Node4</title>
<g id="a_edge3_Node000003_Node000004"><a xlink:title=" ">
<path fill="none" stroke="#63b8ff" d="M422.38,-209.45C481.06,-199.14 575.07,-182.63 641.92,-170.89"/>
<polygon fill="#63b8ff" stroke="#63b8ff" points="642.75,-174.3 651.99,-169.12 641.54,-167.4 642.75,-174.3"/>
</a>
</g>
</g>
<!-- Node5 -->
<g id="Node000005" class="node">
<title>Node5</title>
<g id="a_Node000005"><a xlink:href="classdata_1_1LogStream.html#a02c18d6e5c9697b4943ba9fb630ca0c9" target="_top" xlink:title=" ">
<polygon fill="white" stroke="#666666" points="602,-266.5 480,-266.5 480,-247.5 602,-247.5 602,-266.5"/>
<text text-anchor="middle" x="541" y="-254.5" font-family="Helvetica,sans-Serif" font-size="10.00">data::LogStream::info</text>
</a>
</g>
</g>
<!-- Node3&#45;&gt;Node5 -->
<g id="edge4_Node000003_Node000005" class="edge">
<title>Node3&#45;&gt;Node5</title>
<g id="a_edge4_Node000003_Node000005"><a xlink:title=" ">
<path fill="none" stroke="#63b8ff" d="M411.4,-228.59C434.41,-233.67 462.85,-239.96 487.13,-245.32"/>
<polygon fill="#63b8ff" stroke="#63b8ff" points="486.39,-248.74 496.91,-247.48 487.9,-241.91 486.39,-248.74"/>
</a>
</g>
</g>
<!-- Node6 -->
<g id="Node000006" class="node">
<title>Node6</title>
<g id="a_Node000006"><a xlink:href="structdata_1_1BaseStreamPacket.html#a140b2f54f93715d9229e1847bc1219b2" target="_top" xlink:title=" ">
<polygon fill="white" stroke="#666666" points="789.5,-234 654.5,-234 654.5,-204 789.5,-204 789.5,-234"/>
<text text-anchor="start" x="662.5" y="-222" font-family="Helvetica,sans-Serif" font-size="10.00">data::BaseStreamPacket</text>
<text text-anchor="middle" x="722" y="-211" font-family="Helvetica,sans-Serif" font-size="10.00">::resetTime</text>
</a>
</g>
</g>
<!-- Node3&#45;&gt;Node6 -->
<g id="edge8_Node000003_Node000006" class="edge">
<title>Node3&#45;&gt;Node6</title>
<g id="a_edge8_Node000003_Node000006"><a xlink:title=" ">
<path fill="none" stroke="#63b8ff" d="M430.3,-219C489.95,-219 580.1,-219 644.17,-219"/>
<polygon fill="#63b8ff" stroke="#63b8ff" points="644.22,-222.5 654.22,-219 644.22,-215.5 644.22,-222.5"/>
</a>
</g>
</g>
<!-- Node5&#45;&gt;Node4 -->
<g id="edge5_Node000005_Node000004" class="edge">
<title>Node5&#45;&gt;Node4</title>
<g id="a_edge5_Node000005_Node000004"><a xlink:title=" ">
<path fill="none" stroke="#63b8ff" d="M558.74,-247.5C580.28,-235.28 618.87,-213.46 652,-195 662.53,-189.13 674,-182.8 684.5,-177.01"/>
<polygon fill="#63b8ff" stroke="#63b8ff" points="686.36,-179.99 693.43,-172.1 682.98,-173.85 686.36,-179.99"/>
</a>
</g>
</g>
<!-- Node5&#45;&gt;Node5 -->
<g id="edge6_Node000005_Node000005" class="edge">
<title>Node5&#45;&gt;Node5</title>
<g id="a_edge6_Node000005_Node000005"><a xlink:title=" ">
<path fill="none" stroke="#63b8ff" d="M514.18,-266.58C501.13,-275.23 510.07,-284.5 541,-284.5 561.78,-284.5 572.63,-280.32 573.56,-274.95"/>
<polygon fill="#63b8ff" stroke="#63b8ff" points="576.36,-272.85 567.82,-266.58 570.59,-276.81 576.36,-272.85"/>
</a>
</g>
</g>
<!-- Node5&#45;&gt;Node6 -->
<g id="edge7_Node000005_Node000006" class="edge">
<title>Node5&#45;&gt;Node6</title>
<g id="a_edge7_Node000005_Node000006"><a xlink:title=" ">
<path fill="none" stroke="#63b8ff" d="M587.17,-247.41C604.53,-243.72 624.88,-239.41 644.39,-235.26"/>
<polygon fill="#63b8ff" stroke="#63b8ff" points="645.13,-238.68 654.19,-233.18 643.68,-231.84 645.13,-238.68"/>
</a>
</g>
</g>
<!-- Node7&#45;&gt;Node5 -->
<g id="edge10_Node000007_Node000005" class="edge">
<title>Node7&#45;&gt;Node5</title>
<g id="a_edge10_Node000007_Node000005"><a xlink:title=" ">
<path fill="none" stroke="#63b8ff" d="M423.37,-256.32C438.19,-256.41 454.41,-256.5 469.92,-256.59"/>
<polygon fill="#63b8ff" stroke="#63b8ff" points="469.96,-260.09 479.98,-256.65 470,-253.09 469.96,-260.09"/>
</a>
</g>
</g>
<!-- Node9 -->
<g id="Node000009" class="node">
<title>Node9</title>
<g id="a_Node000009"><a xlink:href="classdata_1_1CommandStream.html#aeacbc84ac96a098ef5836fcbd5187be8" target="_top" xlink:title=" ">
<polygon fill="white" stroke="#666666" points="606,-30 476,-30 476,0 606,0 606,-30"/>
<text text-anchor="start" x="484" y="-18" font-family="Helvetica,sans-Serif" font-size="10.00">data::CommandStream</text>
<text text-anchor="middle" x="541" y="-7" font-family="Helvetica,sans-Serif" font-size="10.00">::addCommand</text>
</a>
</g>
</g>
<!-- Node8&#45;&gt;Node9 -->
<g id="edge12_Node000008_Node000009" class="edge">
<title>Node8&#45;&gt;Node9</title>
<g id="a_edge12_Node000008_Node000009"><a xlink:title=" ">
<path fill="none" stroke="#63b8ff" d="M386.52,-90.94C405.52,-76.08 436.4,-53.54 466,-39 469.75,-37.16 473.67,-35.41 477.68,-33.76"/>
<polygon fill="#63b8ff" stroke="#63b8ff" points="479.06,-36.98 487.11,-30.09 476.52,-30.46 479.06,-36.98"/>
</a>
</g>
</g>
<!-- Node10 -->
<g id="Node000010" class="node">
<title>Node10</title>
<g id="a_Node000010"><a xlink:href="classdata_1_1DataStream.html#a0eef16fa96084fe72dcc3f3ef8cf0bac" target="_top" xlink:title=" ">
<polygon fill="white" stroke="#666666" points="616,-152.5 466,-152.5 466,-133.5 616,-133.5 616,-152.5"/>
<text text-anchor="middle" x="541" y="-140.5" font-family="Helvetica,sans-Serif" font-size="10.00">data::DataStream::addData</text>
</a>
</g>
</g>
<!-- Node8&#45;&gt;Node10 -->
<g id="edge14_Node000008_Node000010" class="edge">
<title>Node8&#45;&gt;Node10</title>
<g id="a_edge14_Node000008_Node000010"><a xlink:title=" ">
<path fill="none" stroke="#63b8ff" d="M425.27,-118.32C444.83,-122.53 466.63,-127.22 485.92,-131.37"/>
<polygon fill="#63b8ff" stroke="#63b8ff" points="485.25,-134.8 495.76,-133.48 486.72,-127.96 485.25,-134.8"/>
</a>
</g>
</g>
<!-- Node11 -->
<g id="Node000011" class="node">
<title>Node11</title>
<g id="a_Node000011"><a xlink:href="classdata_1_1FlightData.html#aab39bdf65e13f5c215e7871dae587233" target="_top" xlink:title=" ">
<polygon fill="white" stroke="#666666" points="613,-78 469,-78 469,-48 613,-48 613,-78"/>
<text text-anchor="start" x="477" y="-66" font-family="Helvetica,sans-Serif" font-size="10.00">data::FlightData::setFlight</text>
<text text-anchor="middle" x="541" y="-55" font-family="Helvetica,sans-Serif" font-size="10.00">Phase</text>
</a>
</g>
</g>
<!-- Node8&#45;&gt;Node11 -->
<g id="edge17_Node000008_Node000011" class="edge">
<title>Node8&#45;&gt;Node11</title>
<g id="a_edge17_Node000008_Node000011"><a xlink:title=" ">
<path fill="none" stroke="#63b8ff" d="M425.27,-91.68C439.49,-88.13 454.88,-84.28 469.64,-80.59"/>
<polygon fill="#63b8ff" stroke="#63b8ff" points="470.88,-83.89 479.74,-78.07 469.18,-77.1 470.88,-83.89"/>
</a>
</g>
</g>
<!-- Node12 -->
<g id="Node000012" class="node">
<title>Node12</title>
<g id="a_Node000012"><a xlink:href="namespaceutil.html#a8e9635f6a41c035d331ddaeb62259ba6" target="_top" xlink:title="Converts a flight phase to a string.">
<polygon fill="white" stroke="#666666" points="581.5,-115.5 500.5,-115.5 500.5,-96.5 581.5,-96.5 581.5,-115.5"/>
<text text-anchor="middle" x="541" y="-103.5" font-family="Helvetica,sans-Serif" font-size="10.00">util::to_string</text>
</a>
</g>
</g>
<!-- Node8&#45;&gt;Node12 -->
<g id="edge18_Node000008_Node000012" class="edge">
<title>Node8&#45;&gt;Node12</title>
<g id="a_edge18_Node000008_Node000012"><a xlink:title=" ">
<path fill="none" stroke="#63b8ff" d="M425.27,-106C446.24,-106 469.79,-106 490.07,-106"/>
<polygon fill="#63b8ff" stroke="#63b8ff" points="490.34,-109.5 500.34,-106 490.34,-102.5 490.34,-109.5"/>
</a>
</g>
</g>
<!-- Node9&#45;&gt;Node4 -->
<g id="edge13_Node000009_Node000004" class="edge">
<title>Node9&#45;&gt;Node4</title>
<g id="a_edge13_Node000009_Node000004"><a xlink:title=" ">
<path fill="none" stroke="#63b8ff" d="M599.19,-30.09C605.08,-32.65 610.8,-35.6 616,-39 654.37,-64.06 687.38,-106.68 705.69,-133.26"/>
<polygon fill="#63b8ff" stroke="#63b8ff" points="702.83,-135.28 711.32,-141.61 708.63,-131.37 702.83,-135.28"/>
</a>
</g>
</g>
<!-- Node10&#45;&gt;Node4 -->
<g id="edge15_Node000010_Node000004" class="edge">
<title>Node10&#45;&gt;Node4</title>
<g id="a_edge15_Node000010_Node000004"><a xlink:title=" ">
<path fill="none" stroke="#63b8ff" d="M616.1,-148.8C624.6,-149.46 633.3,-150.14 641.86,-150.81"/>
<polygon fill="#63b8ff" stroke="#63b8ff" points="641.6,-154.3 651.84,-151.59 642.14,-147.32 641.6,-154.3"/>
</a>
</g>
</g>
<!-- Node10&#45;&gt;Node6 -->
<g id="edge16_Node000010_Node000006" class="edge">
<title>Node10&#45;&gt;Node6</title>
<g id="a_edge16_Node000010_Node000006"><a xlink:title=" ">
<path fill="none" stroke="#63b8ff" d="M564.67,-152.63C592.53,-164.45 640.47,-184.81 675.93,-199.86"/>
<polygon fill="#63b8ff" stroke="#63b8ff" points="675,-203.27 685.58,-203.96 677.74,-196.83 675,-203.27"/>
</a>
</g>
</g>
</g>
</svg>
