<?xml version="1.0" encoding="UTF-8" standalone="no"?>
<!DOCTYPE svg PUBLIC "-//W3C//DTD SVG 1.1//EN"
 "http://www.w3.org/Graphics/SVG/1.1/DTD/svg11.dtd">
<!-- Generated by graphviz version 2.43.0 (0)
 -->
<!-- Title: data::LogStream::debug Pages: 1 -->
<svg width="539pt" height="66pt"
 viewBox="0.00 0.00 539.00 66.00" xmlns="http://www.w3.org/2000/svg" xmlns:xlink="http://www.w3.org/1999/xlink">
<g id="graph0" class="graph" transform="scale(1 1) rotate(0) translate(4 62)">
<title>data::LogStream::debug</title>
<!-- Node1 -->
<g id="node1" class="node">
<title>Node1</title>
<g id="a_node1"><a xlink:title=" ">
<polygon fill="#bfbfbf" stroke="black" points="398,-19.5 398,-38.5 531,-38.5 531,-19.5 398,-19.5"/>
<text text-anchor="middle" x="464.5" y="-26.5" font-family="Helvetica,sans-Serif" font-size="10.00">data::LogStream::debug</text>
</a>
</g>
</g>
<!-- Node2 -->
<g id="node2" class="node">
<title>Node2</title>
<g id="a_node2"><a xlink:href="classgiraffe_1_1Logger.html#a33d3b3b0d74e2a642fd6234915744ea2" target="_top" xlink:title=" ">
<polygon fill="none" stroke="black" points="223,-38.5 223,-57.5 346,-57.5 346,-38.5 223,-38.5"/>
<text text-anchor="middle" x="284.5" y="-45.5" font-family="Helvetica,sans-Serif" font-size="10.00">giraffe::Logger::debug</text>
</a>
</g>
</g>
<!-- Node1&#45;&gt;Node2 -->
<g id="edge1" class="edge">
<title>Node1&#45;&gt;Node2</title>
<path fill="none" stroke="midnightblue" d="M387.93,-37.07C373.98,-38.56 359.59,-40.09 346.16,-41.52"/>
<polygon fill="midnightblue" stroke="midnightblue" points="388.41,-40.54 397.98,-35.99 387.66,-33.58 388.41,-40.54"/>
</g>
<!-- Node4 -->
<g id="node4" class="node">
<title>Node4</title>
<g id="a_node4"><a xlink:href="structdata_1_1SharedData.html#a314804de3d094be829eb7f60b187c355" target="_top" xlink:title="Used to log debug messages when the program is not in release mode.">
<polygon fill="none" stroke="black" points="207,-0.5 207,-19.5 362,-19.5 362,-0.5 207,-0.5"/>
<text text-anchor="middle" x="284.5" y="-7.5" font-family="Helvetica,sans-Serif" font-size="10.00">data::SharedData::debugLog</text>
</a>
</g>
</g>
<!-- Node1&#45;&gt;Node4 -->
<g id="edge3" class="edge">
<title>Node1&#45;&gt;Node4</title>
<path fill="none" stroke="midnightblue" d="M387.99,-20.94C379.4,-20.02 370.63,-19.09 362.03,-18.17"/>
<polygon fill="midnightblue" stroke="midnightblue" points="387.66,-24.42 397.98,-22.01 388.41,-17.46 387.66,-24.42"/>
</g>
<!-- Node3 -->
<g id="node3" class="node">
<title>Node3</title>
<g id="a_node3"><a xlink:href="group__ServerModule.html#ad77e0ae3d2cd0daba1388e7d7ffa1393" target="_top" xlink:title="This function is responsible for parsing a request and routing it to the right place.">
<polygon fill="none" stroke="black" points="0,-38.5 0,-57.5 171,-57.5 171,-38.5 0,-38.5"/>
<text text-anchor="middle" x="85.5" y="-45.5" font-family="Helvetica,sans-Serif" font-size="10.00">RequestRouter::handleMessage</text>
</a>
</g>
</g>
<!-- Node2&#45;&gt;Node3 -->
<g id="edge2" class="edge">
<title>Node2&#45;&gt;Node3</title>
<path fill="none" stroke="midnightblue" d="M212.68,-48C199.26,-48 185.08,-48 171.28,-48"/>
<polygon fill="midnightblue" stroke="midnightblue" points="212.79,-51.5 222.79,-48 212.79,-44.5 212.79,-51.5"/>
</g>
</g>
</svg>
