<?xml version="1.0" encoding="UTF-8" standalone="no"?>
<!DOCTYPE svg PUBLIC "-//W3C//DTD SVG 1.1//EN"
 "http://www.w3.org/Graphics/SVG/1.1/DTD/svg11.dtd">
<!-- Generated by graphviz version 2.43.0 (0)
 -->
<!-- Title: data::LogStream::error Pages: 1 -->
<svg width="1312pt" height="679pt"
 viewBox="0.00 0.00 1312.00 678.50" xmlns="http://www.w3.org/2000/svg" xmlns:xlink="http://www.w3.org/1999/xlink">
<g id="graph0" class="graph" transform="scale(1 1) rotate(0) translate(4 674.5)">
<title>data::LogStream::error</title>
<!-- Node1 -->
<g id="node1" class="node">
<title>Node1</title>
<g id="a_node1"><a xlink:title=" ">
<polygon fill="#bfbfbf" stroke="black" points="1178,-133.5 1178,-152.5 1304,-152.5 1304,-133.5 1178,-133.5"/>
<text text-anchor="middle" x="1241" y="-140.5" font-family="Helvetica,sans-Serif" font-size="10.00">data::LogStream::error</text>
</a>
</g>
</g>
<!-- Node2 -->
<g id="node2" class="node">
<title>Node2</title>
<g id="a_node2"><a xlink:href="classcfg_1_1CfgSection.html#a3e0d985ac655cf1a00357995f9983942" target="_top" xlink:title="Logs a debug message.">
<polygon fill="none" stroke="black" points="993.5,-456.5 993.5,-475.5 1112.5,-475.5 1112.5,-456.5 993.5,-456.5"/>
<text text-anchor="middle" x="1053" y="-463.5" font-family="Helvetica,sans-Serif" font-size="10.00">cfg::CfgSection::error</text>
</a>
</g>
</g>
<!-- Node1&#45;&gt;Node2 -->
<g id="edge1" class="edge">
<title>Node1&#45;&gt;Node2</title>
<path fill="none" stroke="midnightblue" d="M1229.35,-161.49C1194.64,-221.78 1085.44,-411.41 1059.54,-456.37"/>
<polygon fill="midnightblue" stroke="midnightblue" points="1232.48,-163.08 1234.43,-152.67 1226.41,-159.59 1232.48,-163.08"/>
</g>
<!-- Node12 -->
<g id="node12" class="node">
<title>Node12</title>
<g id="a_node12"><a xlink:href="classgiraffe_1_1Logger.html#a2947dae610f76345978c81132ea84edc" target="_top" xlink:title=" ">
<polygon fill="none" stroke="black" points="995,-240.5 995,-259.5 1111,-259.5 1111,-240.5 995,-240.5"/>
<text text-anchor="middle" x="1053" y="-247.5" font-family="Helvetica,sans-Serif" font-size="10.00">giraffe::Logger::error</text>
</a>
</g>
</g>
<!-- Node1&#45;&gt;Node12 -->
<g id="edge11" class="edge">
<title>Node1&#45;&gt;Node12</title>
<path fill="none" stroke="midnightblue" d="M1225.62,-160.54C1208.05,-180.75 1176.39,-213.44 1142,-231 1132.53,-235.83 1121.89,-239.44 1111.36,-242.13"/>
<polygon fill="midnightblue" stroke="midnightblue" points="1228.46,-162.61 1232.26,-152.72 1223.12,-158.08 1228.46,-162.61"/>
</g>
<!-- Node21 -->
<g id="node21" class="node">
<title>Node21</title>
<g id="a_node21"><a xlink:href="group__ServerModule.html#a959bc2e0cb68a835d4304e1204f64c69" target="_top" xlink:title="This function parses a command request, sends it to the command queue and sends a simple response bac...">
<polygon fill="none" stroke="black" points="964,-191 964,-221 1142,-221 1142,-191 964,-191"/>
<text text-anchor="start" x="972" y="-209" font-family="Helvetica,sans-Serif" font-size="10.00">RequestRouter::handleCommand</text>
<text text-anchor="middle" x="1053" y="-198" font-family="Helvetica,sans-Serif" font-size="10.00">Request</text>
</a>
</g>
</g>
<!-- Node1&#45;&gt;Node21 -->
<g id="edge21" class="edge">
<title>Node1&#45;&gt;Node21</title>
<path fill="none" stroke="midnightblue" d="M1202.06,-155.85C1172.05,-166.02 1130.07,-180.23 1098.48,-190.93"/>
<polygon fill="midnightblue" stroke="midnightblue" points="1203.4,-159.09 1211.75,-152.57 1201.16,-152.46 1203.4,-159.09"/>
</g>
<!-- Node23 -->
<g id="node23" class="node">
<title>Node23</title>
<g id="a_node23"><a xlink:href="classFlightRunner.html#ad17d6bcd13dcb824062d97b36ec7fa96" target="_top" xlink:title="Process commands that are sent to the flight runner.">
<polygon fill="none" stroke="black" points="747.5,-114.5 747.5,-133.5 920.5,-133.5 920.5,-114.5 747.5,-114.5"/>
<text text-anchor="middle" x="834" y="-121.5" font-family="Helvetica,sans-Serif" font-size="10.00">FlightRunner::processCommand</text>
</a>
</g>
</g>
<!-- Node1&#45;&gt;Node23 -->
<g id="edge23" class="edge">
<title>Node1&#45;&gt;Node23</title>
<path fill="none" stroke="midnightblue" d="M1167.84,-145.88C1112.1,-147.41 1033.06,-148.06 964,-143 938.71,-141.15 910.86,-137.28 887.53,-133.51"/>
<polygon fill="midnightblue" stroke="midnightblue" points="1168.08,-149.37 1177.97,-145.58 1167.87,-142.38 1168.08,-149.37"/>
</g>
<!-- Node24 -->
<g id="node24" class="node">
<title>Node24</title>
<g id="a_node24"><a xlink:href="classFlightRunner.html#a6407ba5e7fca2d91a216ab35e58fd7b3" target="_top" xlink:title="Sends a command to the proper module.">
<polygon fill="none" stroke="black" points="529.5,-95.5 529.5,-114.5 690.5,-114.5 690.5,-95.5 529.5,-95.5"/>
<text text-anchor="middle" x="610" y="-102.5" font-family="Helvetica,sans-Serif" font-size="10.00">FlightRunner::routeCommand</text>
</a>
</g>
</g>
<!-- Node1&#45;&gt;Node24 -->
<g id="edge25" class="edge">
<title>Node1&#45;&gt;Node24</title>
<path fill="none" stroke="midnightblue" d="M1212.4,-129.12C1193.19,-120.27 1166.7,-109.62 1142,-105 984.1,-75.46 795.14,-86.13 690.56,-95.96"/>
<polygon fill="midnightblue" stroke="midnightblue" points="1210.92,-132.3 1221.46,-133.42 1213.92,-125.97 1210.92,-132.3"/>
</g>
<!-- Node25 -->
<g id="node25" class="node">
<title>Node25</title>
<g id="a_node25"><a xlink:href="classFlightRunner.html#aa9506cddd9057a4fc3f1b43a15f4d8f9" target="_top" xlink:title="Called when transitioning from pre&#45;launch to launch phase. Sets the launch position in shared data an...">
<polygon fill="none" stroke="black" points="966.5,-114.5 966.5,-133.5 1139.5,-133.5 1139.5,-114.5 966.5,-114.5"/>
<text text-anchor="middle" x="1053" y="-121.5" font-family="Helvetica,sans-Serif" font-size="10.00">FlightRunner::setLaunchPosition</text>
</a>
</g>
</g>
<!-- Node1&#45;&gt;Node25 -->
<g id="edge26" class="edge">
<title>Node1&#45;&gt;Node25</title>
<path fill="none" stroke="midnightblue" d="M1167.6,-135.6C1158.43,-134.67 1148.98,-133.7 1139.64,-132.75"/>
<polygon fill="midnightblue" stroke="midnightblue" points="1167.5,-139.11 1177.81,-136.65 1168.21,-132.15 1167.5,-139.11"/>
</g>
<!-- Node26 -->
<g id="node26" class="node">
<title>Node26</title>
<g id="a_node26"><a xlink:href="namespacevalidation.html#a5638f0062469ca458e1850ea9c8de396" target="_top" xlink:title=" ">
<polygon fill="none" stroke="black" points="984,-38.5 984,-57.5 1122,-57.5 1122,-38.5 984,-38.5"/>
<text text-anchor="middle" x="1053" y="-45.5" font-family="Helvetica,sans-Serif" font-size="10.00">validation::setValidEnum</text>
</a>
</g>
</g>
<!-- Node1&#45;&gt;Node26 -->
<g id="edge28" class="edge">
<title>Node1&#45;&gt;Node26</title>
<path fill="none" stroke="midnightblue" d="M1221.63,-126.53C1202.85,-110.49 1172.24,-86.48 1142,-72 1129.29,-65.91 1114.78,-61.16 1101.26,-57.54"/>
<polygon fill="midnightblue" stroke="midnightblue" points="1219.54,-129.35 1229.38,-133.27 1224.13,-124.07 1219.54,-129.35"/>
</g>
<!-- Node27 -->
<g id="node27" class="node">
<title>Node27</title>
<g id="a_node27"><a xlink:href="namespacevalidation.html#a4028a1e71c060c780241b72af38e27e8" target="_top" xlink:title=" ">
<polygon fill="none" stroke="black" points="984.5,-0.5 984.5,-19.5 1121.5,-19.5 1121.5,-0.5 984.5,-0.5"/>
<text text-anchor="middle" x="1053" y="-7.5" font-family="Helvetica,sans-Serif" font-size="10.00">validation::setValidValue</text>
</a>
</g>
</g>
<!-- Node1&#45;&gt;Node27 -->
<g id="edge29" class="edge">
<title>Node1&#45;&gt;Node27</title>
<path fill="none" stroke="midnightblue" d="M1229.43,-124.41C1213.79,-98.71 1181.98,-52.78 1142,-29 1135.55,-25.16 1128.43,-22.1 1121.11,-19.65"/>
<polygon fill="midnightblue" stroke="midnightblue" points="1226.52,-126.36 1234.62,-133.19 1232.54,-122.8 1226.52,-126.36"/>
</g>
<!-- Node3 -->
<g id="node3" class="node">
<title>Node3</title>
<g id="a_node3"><a xlink:href="classcfg_1_1AdcMappings.html#a50978d833ec6672505f87b17c140f483" target="_top" xlink:title=" ">
<polygon fill="none" stroke="black" points="761.5,-640 761.5,-670 906.5,-670 906.5,-640 761.5,-640"/>
<text text-anchor="start" x="769.5" y="-658" font-family="Helvetica,sans-Serif" font-size="10.00">cfg::AdcMappings::addAdc</text>
<text text-anchor="middle" x="834" y="-647" font-family="Helvetica,sans-Serif" font-size="10.00">Config</text>
</a>
</g>
</g>
<!-- Node2&#45;&gt;Node3 -->
<g id="edge2" class="edge">
<title>Node2&#45;&gt;Node3</title>
<path fill="none" stroke="midnightblue" d="M1043.07,-484.86C1025.83,-519.19 984.6,-591.86 928,-630 921.48,-634.39 914.23,-638.01 906.72,-641"/>
<polygon fill="midnightblue" stroke="midnightblue" points="1046.39,-486.04 1047.64,-475.52 1040.1,-482.96 1046.39,-486.04"/>
</g>
<!-- Node4 -->
<g id="node4" class="node">
<title>Node4</title>
<g id="a_node4"><a xlink:href="classcfg_1_1Extensions.html#a3d483d303ba16bd2c41dbafb6d0db151" target="_top" xlink:title="Add an extension to the configuration.">
<polygon fill="none" stroke="black" points="752.5,-601.5 752.5,-620.5 915.5,-620.5 915.5,-601.5 752.5,-601.5"/>
<text text-anchor="middle" x="834" y="-608.5" font-family="Helvetica,sans-Serif" font-size="10.00">cfg::Extensions::addExtension</text>
</a>
</g>
</g>
<!-- Node2&#45;&gt;Node4 -->
<g id="edge3" class="edge">
<title>Node2&#45;&gt;Node4</title>
<path fill="none" stroke="midnightblue" d="M1039.63,-484.23C1019.64,-512.17 977.43,-565.16 928,-592 920.9,-595.85 913.12,-598.93 905.16,-601.38"/>
<polygon fill="midnightblue" stroke="midnightblue" points="1042.67,-485.99 1045.54,-475.79 1036.94,-481.97 1042.67,-485.99"/>
</g>
<!-- Node5 -->
<g id="node5" class="node">
<title>Node5</title>
<g id="a_node5"><a xlink:href="classcfg_1_1AdcMappings.html#abf24990803afb5198cbffb1a42ceac68" target="_top" xlink:title=" ">
<polygon fill="none" stroke="black" points="761,-552 761,-582 907,-582 907,-552 761,-552"/>
<text text-anchor="start" x="769" y="-570" font-family="Helvetica,sans-Serif" font-size="10.00">cfg::AdcMappings::remove</text>
<text text-anchor="middle" x="834" y="-559" font-family="Helvetica,sans-Serif" font-size="10.00">AdcConfig</text>
</a>
</g>
</g>
<!-- Node2&#45;&gt;Node5 -->
<g id="edge4" class="edge">
<title>Node2&#45;&gt;Node5</title>
<path fill="none" stroke="midnightblue" d="M1031,-481.49C1007.12,-498.46 966.46,-525.46 928,-542 919.25,-545.77 909.78,-549.09 900.35,-551.99"/>
<polygon fill="midnightblue" stroke="midnightblue" points="1033.22,-484.21 1039.28,-475.52 1029.12,-478.52 1033.22,-484.21"/>
</g>
<!-- Node6 -->
<g id="node6" class="node">
<title>Node6</title>
<g id="a_node6"><a xlink:href="classcfg_1_1Extensions.html#abb7d7973769eda4b355e1e6bdd778f1e" target="_top" xlink:title="Remove an extension from the configuration by name.">
<polygon fill="none" stroke="black" points="743,-513.5 743,-532.5 925,-532.5 925,-513.5 743,-513.5"/>
<text text-anchor="middle" x="834" y="-520.5" font-family="Helvetica,sans-Serif" font-size="10.00">cfg::Extensions::removeExtension</text>
</a>
</g>
</g>
<!-- Node2&#45;&gt;Node6 -->
<g id="edge5" class="edge">
<title>Node2&#45;&gt;Node6</title>
<path fill="none" stroke="midnightblue" d="M1014.05,-478.66C989.64,-486.55 957.15,-496.57 928,-504 914.59,-507.42 899.96,-510.64 886.37,-513.42"/>
<polygon fill="midnightblue" stroke="midnightblue" points="1015.23,-481.96 1023.65,-475.54 1013.06,-475.3 1015.23,-481.96"/>
</g>
<!-- Node7 -->
<g id="node7" class="node">
<title>Node7</title>
<g id="a_node7"><a xlink:href="classcfg_1_1AdcMappings.html#a45d9c766a012ea127e8612d262e720ac" target="_top" xlink:title=" ">
<polygon fill="none" stroke="black" points="749.5,-475.5 749.5,-494.5 918.5,-494.5 918.5,-475.5 749.5,-475.5"/>
<text text-anchor="middle" x="834" y="-482.5" font-family="Helvetica,sans-Serif" font-size="10.00">cfg::AdcMappings::setFromJson</text>
</a>
</g>
</g>
<!-- Node2&#45;&gt;Node7 -->
<g id="edge6" class="edge">
<title>Node2&#45;&gt;Node7</title>
<path fill="none" stroke="midnightblue" d="M983.1,-472.03C962.61,-473.83 939.94,-475.81 918.62,-477.68"/>
<polygon fill="midnightblue" stroke="midnightblue" points="983.62,-475.5 993.28,-471.14 983.01,-468.53 983.62,-475.5"/>
</g>
<!-- Node8 -->
<g id="node8" class="node">
<title>Node8</title>
<g id="a_node8"><a xlink:href="classcfg_1_1Extensions.html#aab673cffeff4bb60bf1a11d83a39736b" target="_top" xlink:title=" ">
<polygon fill="none" stroke="black" points="755.5,-437.5 755.5,-456.5 912.5,-456.5 912.5,-437.5 755.5,-437.5"/>
<text text-anchor="middle" x="834" y="-444.5" font-family="Helvetica,sans-Serif" font-size="10.00">cfg::Extensions::setFromJson</text>
</a>
</g>
</g>
<!-- Node2&#45;&gt;Node8 -->
<g id="edge7" class="edge">
<title>Node2&#45;&gt;Node8</title>
<path fill="none" stroke="midnightblue" d="M983.16,-459.97C960.69,-458 935.59,-455.81 912.53,-453.79"/>
<polygon fill="midnightblue" stroke="midnightblue" points="983.01,-463.47 993.28,-460.86 983.62,-456.5 983.01,-463.47"/>
</g>
<!-- Node9 -->
<g id="node9" class="node">
<title>Node9</title>
<g id="a_node9"><a xlink:href="classcfg_1_1Extensions.html#a28c4e7fad5dbfc8f72d1628ff59ac2ec" target="_top" xlink:title="Enable or disable an extension by name.">
<polygon fill="none" stroke="black" points="746,-399.5 746,-418.5 922,-418.5 922,-399.5 746,-399.5"/>
<text text-anchor="middle" x="834" y="-406.5" font-family="Helvetica,sans-Serif" font-size="10.00">cfg::Extensions::toggleExtension</text>
</a>
</g>
</g>
<!-- Node2&#45;&gt;Node9 -->
<g id="edge8" class="edge">
<title>Node2&#45;&gt;Node9</title>
<path fill="none" stroke="midnightblue" d="M1014.05,-453.34C989.64,-445.45 957.15,-435.43 928,-428 914.59,-424.58 899.96,-421.36 886.37,-418.58"/>
<polygon fill="midnightblue" stroke="midnightblue" points="1013.06,-456.7 1023.65,-456.46 1015.23,-450.04 1013.06,-456.7"/>
</g>
<!-- Node10 -->
<g id="node10" class="node">
<title>Node10</title>
<g id="a_node10"><a xlink:href="classcfg_1_1AdcMappings.html#a7704b7b0f66cfbad9f14b00613347e5b" target="_top" xlink:title=" ">
<polygon fill="none" stroke="black" points="762.5,-350 762.5,-380 905.5,-380 905.5,-350 762.5,-350"/>
<text text-anchor="start" x="770.5" y="-368" font-family="Helvetica,sans-Serif" font-size="10.00">cfg::AdcMappings::update</text>
<text text-anchor="middle" x="834" y="-357" font-family="Helvetica,sans-Serif" font-size="10.00">AdcConfig</text>
</a>
</g>
</g>
<!-- Node2&#45;&gt;Node10 -->
<g id="edge9" class="edge">
<title>Node2&#45;&gt;Node10</title>
<path fill="none" stroke="midnightblue" d="M1031,-450.51C1007.12,-433.54 966.46,-406.54 928,-390 919.25,-386.23 909.78,-382.91 900.35,-380.01"/>
<polygon fill="midnightblue" stroke="midnightblue" points="1029.12,-453.48 1039.28,-456.48 1033.22,-447.79 1029.12,-453.48"/>
</g>
<!-- Node11 -->
<g id="node11" class="node">
<title>Node11</title>
<g id="a_node11"><a xlink:href="classcfg_1_1Extensions.html#a4af55964085d036357551e795bb435b5" target="_top" xlink:title="Update an extension given its name and new metadata.">
<polygon fill="none" stroke="black" points="744.5,-311.5 744.5,-330.5 923.5,-330.5 923.5,-311.5 744.5,-311.5"/>
<text text-anchor="middle" x="834" y="-318.5" font-family="Helvetica,sans-Serif" font-size="10.00">cfg::Extensions::updateExtension</text>
</a>
</g>
</g>
<!-- Node2&#45;&gt;Node11 -->
<g id="edge10" class="edge">
<title>Node2&#45;&gt;Node11</title>
<path fill="none" stroke="midnightblue" d="M1039.57,-447.98C1019.48,-420.35 977.15,-367.89 928,-341 920.03,-336.64 911.19,-333.23 902.23,-330.56"/>
<polygon fill="midnightblue" stroke="midnightblue" points="1036.85,-450.21 1045.5,-456.33 1042.56,-446.15 1036.85,-450.21"/>
</g>
<!-- Node13 -->
<g id="node13" class="node">
<title>Node13</title>
<g id="a_node13"><a xlink:href="classFlightPhaseManager.html#a38e97741fd5bdd0b80a3172d3e73322d" target="_top" xlink:title=" ">
<polygon fill="none" stroke="black" points="776,-262 776,-292 892,-292 892,-262 776,-262"/>
<text text-anchor="start" x="784" y="-280" font-family="Helvetica,sans-Serif" font-size="10.00">FlightPhaseManager</text>
<text text-anchor="middle" x="834" y="-269" font-family="Helvetica,sans-Serif" font-size="10.00">::flightPhaseUpdate</text>
</a>
</g>
</g>
<!-- Node12&#45;&gt;Node13 -->
<g id="edge12" class="edge">
<title>Node12&#45;&gt;Node13</title>
<path fill="none" stroke="midnightblue" d="M984.7,-258.37C954.98,-262.07 920.43,-266.37 892.01,-269.91"/>
<polygon fill="midnightblue" stroke="midnightblue" points="985.49,-261.8 994.99,-257.09 984.63,-254.86 985.49,-261.8"/>
</g>
<!-- Node19 -->
<g id="node19" class="node">
<title>Node19</title>
<g id="a_node19"><a xlink:href="classdata__middleware_1_1AdcInterpolation.html#afe9137948458156c46370b562db1fc82" target="_top" xlink:title="Returns the ADC channel configuration for the given key. If one does not exist, an error is logged an...">
<polygon fill="none" stroke="black" points="740,-213 740,-243 928,-243 928,-213 740,-213"/>
<text text-anchor="start" x="748" y="-231" font-family="Helvetica,sans-Serif" font-size="10.00">data_middleware::AdcInterpolation</text>
<text text-anchor="middle" x="834" y="-220" font-family="Helvetica,sans-Serif" font-size="10.00">::getAdcConfig</text>
</a>
</g>
</g>
<!-- Node12&#45;&gt;Node19 -->
<g id="edge19" class="edge">
<title>Node12&#45;&gt;Node19</title>
<path fill="none" stroke="midnightblue" d="M984.92,-243.2C966.97,-241.38 947.23,-239.38 928.13,-237.44"/>
<polygon fill="midnightblue" stroke="midnightblue" points="984.68,-246.69 994.99,-244.22 985.39,-239.73 984.68,-246.69"/>
</g>
<!-- Node14 -->
<g id="node14" class="node">
<title>Node14</title>
<g id="a_node14"><a xlink:href="classFlightPhaseManager.html#a547cb144c9ad196b910bc3a111aec286" target="_top" xlink:title="Update the flight phase manager.">
<polygon fill="none" stroke="black" points="552,-262 552,-292 668,-292 668,-262 552,-262"/>
<text text-anchor="start" x="560" y="-280" font-family="Helvetica,sans-Serif" font-size="10.00">FlightPhaseManager</text>
<text text-anchor="middle" x="610" y="-269" font-family="Helvetica,sans-Serif" font-size="10.00">::update</text>
</a>
</g>
</g>
<!-- Node13&#45;&gt;Node14 -->
<g id="edge13" class="edge">
<title>Node13&#45;&gt;Node14</title>
<path fill="none" stroke="midnightblue" d="M765.53,-277C734.49,-277 698.05,-277 668.36,-277"/>
<polygon fill="midnightblue" stroke="midnightblue" points="765.83,-280.5 775.83,-277 765.83,-273.5 765.83,-280.5"/>
</g>
<!-- Node15 -->
<g id="node15" class="node">
<title>Node15</title>
<g id="a_node15"><a xlink:href="classFlightRunner.html#a91b3c262d2ab68bbf687b92d5acaf618" target="_top" xlink:title="The main flight logic function. Called in the flight loop.">
<polygon fill="none" stroke="black" points="344.5,-289.5 344.5,-308.5 479.5,-308.5 479.5,-289.5 344.5,-289.5"/>
<text text-anchor="middle" x="412" y="-296.5" font-family="Helvetica,sans-Serif" font-size="10.00">FlightRunner::flightLogic</text>
</a>
</g>
</g>
<!-- Node14&#45;&gt;Node15 -->
<g id="edge14" class="edge">
<title>Node14&#45;&gt;Node15</title>
<path fill="none" stroke="midnightblue" d="M541.78,-284.54C521.69,-286.8 499.68,-289.27 479.62,-291.52"/>
<polygon fill="midnightblue" stroke="midnightblue" points="542.23,-288.02 551.78,-283.42 541.45,-281.06 542.23,-288.02"/>
</g>
<!-- Node16 -->
<g id="node16" class="node">
<title>Node16</title>
<g id="a_node16"><a xlink:href="classFlightPhaseManagerTest.html#adb308f82112e0a026b62fd8a1b1182ac" target="_top" xlink:title=" ">
<polygon fill="none" stroke="black" points="344,-240 344,-270 480,-270 480,-240 344,-240"/>
<text text-anchor="start" x="352" y="-258" font-family="Helvetica,sans-Serif" font-size="10.00">FlightPhaseManagerTest</text>
<text text-anchor="middle" x="412" y="-247" font-family="Helvetica,sans-Serif" font-size="10.00">::tick</text>
</a>
</g>
</g>
<!-- Node14&#45;&gt;Node16 -->
<g id="edge15" class="edge">
<title>Node14&#45;&gt;Node16</title>
<path fill="none" stroke="midnightblue" d="M541.61,-269.44C521.8,-267.21 500.13,-264.78 480.33,-262.56"/>
<polygon fill="midnightblue" stroke="midnightblue" points="541.45,-272.94 551.78,-270.58 542.23,-265.98 541.45,-272.94"/>
</g>
<!-- Node17 -->
<g id="node17" class="node">
<title>Node17</title>
<g id="a_node17"><a xlink:href="classFlightPhaseManagerTest.html#aaab5ea1894a4a238ea30e821247b9c10" target="_top" xlink:title=" ">
<polygon fill="none" stroke="black" points="172,-262 172,-292 308,-292 308,-262 172,-262"/>
<text text-anchor="start" x="180" y="-280" font-family="Helvetica,sans-Serif" font-size="10.00">FlightPhaseManagerTest</text>
<text text-anchor="middle" x="240" y="-269" font-family="Helvetica,sans-Serif" font-size="10.00">::bringToAscent</text>
</a>
</g>
</g>
<!-- Node16&#45;&gt;Node17 -->
<g id="edge16" class="edge">
<title>Node16&#45;&gt;Node17</title>
<path fill="none" stroke="midnightblue" d="M333.85,-264.98C325.31,-266.09 316.66,-267.21 308.26,-268.3"/>
<polygon fill="midnightblue" stroke="midnightblue" points="334.34,-268.45 343.81,-263.69 333.44,-261.51 334.34,-268.45"/>
</g>
<!-- Node18 -->
<g id="node18" class="node">
<title>Node18</title>
<g id="a_node18"><a xlink:href="classFlightPhaseManagerTest.html#a9b4298134e734c7d0e4b219999098819" target="_top" xlink:title=" ">
<polygon fill="none" stroke="black" points="0,-240 0,-270 136,-270 136,-240 0,-240"/>
<text text-anchor="start" x="8" y="-258" font-family="Helvetica,sans-Serif" font-size="10.00">FlightPhaseManagerTest</text>
<text text-anchor="middle" x="68" y="-247" font-family="Helvetica,sans-Serif" font-size="10.00">::bringToDescent</text>
</a>
</g>
</g>
<!-- Node16&#45;&gt;Node18 -->
<g id="edge18" class="edge">
<title>Node16&#45;&gt;Node18</title>
<path fill="none" stroke="midnightblue" d="M333.79,-253.34C325.09,-253.2 316.36,-253.08 308,-253 247.56,-252.41 232.44,-252.41 172,-253 160.38,-253.11 148.01,-253.3 136.04,-253.51"/>
<polygon fill="midnightblue" stroke="midnightblue" points="333.9,-256.84 343.96,-253.51 334.02,-249.84 333.9,-256.84"/>
</g>
<!-- Node17&#45;&gt;Node18 -->
<g id="edge17" class="edge">
<title>Node17&#45;&gt;Node18</title>
<path fill="none" stroke="midnightblue" d="M161.85,-267.02C153.31,-265.91 144.66,-264.79 136.26,-263.7"/>
<polygon fill="midnightblue" stroke="midnightblue" points="161.44,-270.49 171.81,-268.31 162.34,-263.55 161.44,-270.49"/>
</g>
<!-- Node20 -->
<g id="node20" class="node">
<title>Node20</title>
<g id="a_node20"><a xlink:href="classdata__middleware_1_1AdcInterpolation.html#a33bed24d36248ab62815595bf30c2d3c" target="_top" xlink:title="Takes in a data packet containing raw ADC data and processes it according to the ADC configuration.">
<polygon fill="none" stroke="black" points="516,-213 516,-243 704,-243 704,-213 516,-213"/>
<text text-anchor="start" x="524" y="-231" font-family="Helvetica,sans-Serif" font-size="10.00">data_middleware::AdcInterpolation</text>
<text text-anchor="middle" x="610" y="-220" font-family="Helvetica,sans-Serif" font-size="10.00">::processDataPacket</text>
</a>
</g>
</g>
<!-- Node19&#45;&gt;Node20 -->
<g id="edge20" class="edge">
<title>Node19&#45;&gt;Node20</title>
<path fill="none" stroke="midnightblue" d="M729.57,-228C721.14,-228 712.65,-228 704.3,-228"/>
<polygon fill="midnightblue" stroke="midnightblue" points="729.82,-231.5 739.82,-228 729.82,-224.5 729.82,-231.5"/>
</g>
<!-- Node22 -->
<g id="node22" class="node">
<title>Node22</title>
<g id="a_node22"><a xlink:href="group__ServerModule.html#ad77e0ae3d2cd0daba1388e7d7ffa1393" target="_top" xlink:title="This function is responsible for parsing a request and routing it to the right place.">
<polygon fill="none" stroke="black" points="748.5,-174.5 748.5,-193.5 919.5,-193.5 919.5,-174.5 748.5,-174.5"/>
<text text-anchor="middle" x="834" y="-181.5" font-family="Helvetica,sans-Serif" font-size="10.00">RequestRouter::handleMessage</text>
</a>
</g>
</g>
<!-- Node21&#45;&gt;Node22 -->
<g id="edge22" class="edge">
<title>Node21&#45;&gt;Node22</title>
<path fill="none" stroke="midnightblue" d="M953.78,-196.04C942.4,-194.89 930.86,-193.72 919.67,-192.58"/>
<polygon fill="midnightblue" stroke="midnightblue" points="953.44,-199.53 963.74,-197.05 954.14,-192.56 953.44,-199.53"/>
</g>
<!-- Node23&#45;&gt;Node24 -->
<g id="edge24" class="edge">
<title>Node23&#45;&gt;Node24</title>
<path fill="none" stroke="midnightblue" d="M737.33,-115.81C721.76,-114.48 705.78,-113.11 690.64,-111.82"/>
<polygon fill="midnightblue" stroke="midnightblue" points="737.22,-119.32 747.49,-116.68 737.82,-112.34 737.22,-119.32"/>
</g>
<!-- Node25&#45;&gt;Node23 -->
<g id="edge27" class="edge">
<title>Node25&#45;&gt;Node23</title>
<path fill="none" stroke="midnightblue" d="M956.01,-124C944.3,-124 932.4,-124 920.85,-124"/>
<polygon fill="midnightblue" stroke="midnightblue" points="956.24,-127.5 966.24,-124 956.24,-120.5 956.24,-127.5"/>
</g>
</g>
</svg>
