<?xml version="1.0" encoding="UTF-8" standalone="no"?>
<!DOCTYPE svg PUBLIC "-//W3C//DTD SVG 1.1//EN"
 "http://www.w3.org/Graphics/SVG/1.1/DTD/svg11.dtd">
<!-- Generated by graphviz version 2.43.0 (0)
 -->
<!-- Title: giraffe::StatusLedChannel Pages: 1 -->
<svg width="279pt" height="430pt"
 viewBox="0.00 0.00 279.00 430.00" xmlns="http://www.w3.org/2000/svg" xmlns:xlink="http://www.w3.org/1999/xlink">
<g id="graph0" class="graph" transform="scale(1 1) rotate(0) translate(4 426)">
<title>giraffe::StatusLedChannel</title>
<!-- Node1 -->
<g id="node1" class="node">
<title>Node1</title>
<g id="a_node1"><a xlink:title=" ">
<polygon fill="#bfbfbf" stroke="black" points="50,-0.5 50,-112.5 192,-112.5 192,-0.5 50,-0.5"/>
<text text-anchor="middle" x="121" y="-100.5" font-family="Helvetica,sans-Serif" font-size="10.00">giraffe::StatusLedChannel</text>
<polyline fill="none" stroke="black" points="50,-93.5 192,-93.5 "/>
<text text-anchor="middle" x="121" y="-81.5" font-family="Helvetica,sans-Serif" font-size="10.00"> </text>
<polyline fill="none" stroke="black" points="50,-74.5 192,-74.5 "/>
<text text-anchor="start" x="58" y="-62.5" font-family="Helvetica,sans-Serif" font-size="10.00">+ StatusLedChannel()</text>
<text text-anchor="start" x="58" y="-51.5" font-family="Helvetica,sans-Serif" font-size="10.00">+ blink()</text>
<text text-anchor="start" x="58" y="-40.5" font-family="Helvetica,sans-Serif" font-size="10.00">+ getState()</text>
<text text-anchor="start" x="58" y="-29.5" font-family="Helvetica,sans-Serif" font-size="10.00">+ off()</text>
<text text-anchor="start" x="58" y="-18.5" font-family="Helvetica,sans-Serif" font-size="10.00">+ on()</text>
<text text-anchor="start" x="58" y="-7.5" font-family="Helvetica,sans-Serif" font-size="10.00">&#45; set()</text>
</a>
</g>
</g>
<!-- Node2 -->
<g id="node2" class="node">
<title>Node2</title>
<g id="a_node2"><a xlink:title=" ">
<polygon fill="none" stroke="#bfbfbf" points="0,-199 0,-256 42,-256 42,-199 0,-199"/>
<text text-anchor="middle" x="21" y="-244" font-family="Helvetica,sans-Serif" font-size="10.00">State</text>
<polyline fill="none" stroke="#bfbfbf" points="0,-237 42,-237 "/>
<text text-anchor="middle" x="21" y="-225" font-family="Helvetica,sans-Serif" font-size="10.00"> </text>
<polyline fill="none" stroke="#bfbfbf" points="0,-218 42,-218 "/>
<text text-anchor="middle" x="21" y="-206" font-family="Helvetica,sans-Serif" font-size="10.00"> </text>
</a>
</g>
</g>
<!-- Node2&#45;&gt;Node1 -->
<g id="edge1" class="edge">
<title>Node2&#45;&gt;Node1</title>
<path fill="none" stroke="#404040" d="M32.21,-198.79C37.45,-186.64 44.06,-172.37 51,-160 57.92,-147.67 65.89,-134.92 73.93,-122.79"/>
<polygon fill="none" stroke="#404040" points="73.97,-122.72 74,-115.51 80.66,-112.76 80.64,-119.97 73.97,-122.72"/>
<text text-anchor="middle" x="85.5" y="-134" font-family="Helvetica,sans-Serif" font-size="10.00"> &#45;state_</text>
</g>
<!-- Node3 -->
<g id="node3" class="node">
<title>Node3</title>
<g id="a_node3"><a xlink:href="classgiraffe_1_1StatusLedState.html" target="_top" xlink:title=" ">
<polygon fill="none" stroke="black" points="60,-160.5 60,-294.5 188,-294.5 188,-160.5 60,-160.5"/>
<text text-anchor="middle" x="124" y="-282.5" font-family="Helvetica,sans-Serif" font-size="10.00">giraffe::StatusLedState</text>
<polyline fill="none" stroke="black" points="60,-275.5 188,-275.5 "/>
<text text-anchor="middle" x="124" y="-263.5" font-family="Helvetica,sans-Serif" font-size="10.00"> </text>
<polyline fill="none" stroke="black" points="60,-256.5 188,-256.5 "/>
<text text-anchor="start" x="68" y="-244.5" font-family="Helvetica,sans-Serif" font-size="10.00">+ StatusLedState()</text>
<text text-anchor="start" x="68" y="-233.5" font-family="Helvetica,sans-Serif" font-size="10.00">+ ~StatusLedState()</text>
<text text-anchor="start" x="68" y="-222.5" font-family="Helvetica,sans-Serif" font-size="10.00">+ getBlueState()</text>
<text text-anchor="start" x="68" y="-211.5" font-family="Helvetica,sans-Serif" font-size="10.00">+ getGreenState()</text>
<text text-anchor="start" x="68" y="-200.5" font-family="Helvetica,sans-Serif" font-size="10.00">+ getRedState()</text>
<text text-anchor="start" x="68" y="-189.5" font-family="Helvetica,sans-Serif" font-size="10.00">+ setBlue()</text>
<text text-anchor="start" x="68" y="-178.5" font-family="Helvetica,sans-Serif" font-size="10.00">+ setGreen()</text>
<text text-anchor="start" x="68" y="-167.5" font-family="Helvetica,sans-Serif" font-size="10.00">+ setRed()</text>
</a>
</g>
</g>
<!-- Node3&#45;&gt;Node1 -->
<g id="edge2" class="edge">
<title>Node3&#45;&gt;Node1</title>
<path fill="none" stroke="#404040" d="M122.35,-160.08C122.22,-153.97 122.1,-147.87 122,-142 121.9,-136.34 121.81,-130.46 121.72,-124.57"/>
<polygon fill="none" stroke="#404040" points="121.72,-124.5 117.64,-118.55 121.56,-112.5 125.64,-118.45 121.72,-124.5"/>
<text text-anchor="middle" x="168.5" y="-134" font-family="Helvetica,sans-Serif" font-size="10.00"> &#45;status_led_state_</text>
</g>
<!-- Node4 -->
<g id="node4" class="node">
<title>Node4</title>
<g id="a_node4"><a xlink:title=" ">
<polygon fill="none" stroke="#bfbfbf" points="75,-364.5 75,-421.5 173,-421.5 173,-364.5 75,-364.5"/>
<text text-anchor="middle" x="124" y="-409.5" font-family="Helvetica,sans-Serif" font-size="10.00">atomic&lt; State &gt;</text>
<polyline fill="none" stroke="#bfbfbf" points="75,-402.5 173,-402.5 "/>
<text text-anchor="middle" x="124" y="-390.5" font-family="Helvetica,sans-Serif" font-size="10.00"> </text>
<polyline fill="none" stroke="#bfbfbf" points="75,-383.5 173,-383.5 "/>
<text text-anchor="middle" x="124" y="-371.5" font-family="Helvetica,sans-Serif" font-size="10.00"> </text>
</a>
</g>
</g>
<!-- Node4&#45;&gt;Node3 -->
<g id="edge3" class="edge">
<title>Node4&#45;&gt;Node3</title>
<path fill="none" stroke="#404040" d="M124,-364.26C124,-348.27 124,-327.28 124,-306.61"/>
<polygon fill="none" stroke="#404040" points="124,-306.51 120,-300.51 124,-294.51 128,-300.51 124,-306.51"/>
<text text-anchor="middle" x="148.5" y="-338" font-family="Helvetica,sans-Serif" font-size="10.00"> &#45;b_state_</text>
<text text-anchor="middle" x="148.5" y="-327" font-family="Helvetica,sans-Serif" font-size="10.00">&#45;g_state_</text>
<text text-anchor="middle" x="148.5" y="-316" font-family="Helvetica,sans-Serif" font-size="10.00">&#45;r_state_</text>
</g>
<!-- Node5 -->
<g id="node5" class="node">
<title>Node5</title>
<g id="a_node5"><a xlink:title=" ">
<polygon fill="none" stroke="#bfbfbf" points="209,-199 209,-256 265,-256 265,-199 209,-199"/>
<text text-anchor="middle" x="237" y="-244" font-family="Helvetica,sans-Serif" font-size="10.00">Channel</text>
<polyline fill="none" stroke="#bfbfbf" points="209,-237 265,-237 "/>
<text text-anchor="middle" x="237" y="-225" font-family="Helvetica,sans-Serif" font-size="10.00"> </text>
<polyline fill="none" stroke="#bfbfbf" points="209,-218 265,-218 "/>
<text text-anchor="middle" x="237" y="-206" font-family="Helvetica,sans-Serif" font-size="10.00"> </text>
</a>
</g>
</g>
<!-- Node5&#45;&gt;Node1 -->
<g id="edge4" class="edge">
<title>Node5&#45;&gt;Node1</title>
<path fill="none" stroke="#404040" d="M235.51,-198.68C233.32,-178.54 227.97,-151.38 215,-131 210.91,-124.58 206.06,-118.48 200.75,-112.76"/>
<polygon fill="none" stroke="#404040" points="200.55,-112.56 193.48,-111.14 192.07,-104.07 199.14,-105.49 200.55,-112.56"/>
<text text-anchor="middle" x="245.5" y="-134" font-family="Helvetica,sans-Serif" font-size="10.00"> &#45;channel_</text>
</g>
</g>
</svg>
