<?xml version="1.0" encoding="UTF-8" standalone="no"?>
<!DOCTYPE svg PUBLIC "-//W3C//DTD SVG 1.1//EN"
 "http://www.w3.org/Graphics/SVG/1.1/DTD/svg11.dtd">
<!-- Generated by graphviz version 2.43.0 (0)
 -->
<!-- Title: data::blocks::Block&lt; T &gt; Pages: 1 -->
<svg width="2127pt" height="336pt"
 viewBox="0.00 0.00 2127.00 336.00" xmlns="http://www.w3.org/2000/svg" xmlns:xlink="http://www.w3.org/1999/xlink">
<g id="graph0" class="graph" transform="scale(1 1) rotate(0) translate(4 332)">
<title>data::blocks::Block&lt; T &gt;</title>
<!-- Node1 -->
<g id="Node000001" class="node">
<title>Node1</title>
<g id="a_Node000001"><a xlink:title="Simple Struct Container with a mutex. The struct must have a valid default constructor.">
<polygon fill="#999999" stroke="transparent" points="1112,-328 981,-328 981,-204 1112,-204 1112,-328"/>
<text text-anchor="start" x="986.5" y="-316" font-family="Helvetica,sans-Serif" font-size="10.00">data::blocks::Block&lt; T &gt;</text>
<text text-anchor="start" x="998" y="-301" font-family="Helvetica,sans-Serif" font-size="10.00">&#45;</text>
<text text-anchor="start" x="1018.5" y="-301" font-family="Helvetica,sans-Serif" font-size="10.00">data_</text>
<text text-anchor="start" x="998" y="-286" font-family="Helvetica,sans-Serif" font-size="10.00">&#45;</text>
<text text-anchor="start" x="1018.5" y="-286" font-family="Helvetica,sans-Serif" font-size="10.00">last_updated_</text>
<text text-anchor="start" x="998" y="-271" font-family="Helvetica,sans-Serif" font-size="10.00">&#45;</text>
<text text-anchor="start" x="1018.5" y="-271" font-family="Helvetica,sans-Serif" font-size="10.00">mutex_</text>
<text text-anchor="start" x="995.5" y="-256" font-family="Helvetica,sans-Serif" font-size="10.00">+</text>
<text text-anchor="start" x="1018.5" y="-256" font-family="Helvetica,sans-Serif" font-size="10.00">get()</text>
<text text-anchor="start" x="995.5" y="-241" font-family="Helvetica,sans-Serif" font-size="10.00">+</text>
<text text-anchor="start" x="1018.5" y="-241" font-family="Helvetica,sans-Serif" font-size="10.00">getAgeMs()</text>
<text text-anchor="start" x="995.5" y="-226" font-family="Helvetica,sans-Serif" font-size="10.00">+</text>
<text text-anchor="start" x="1018.5" y="-226" font-family="Helvetica,sans-Serif" font-size="10.00">getAgeSec()</text>
<text text-anchor="start" x="995.5" y="-211" font-family="Helvetica,sans-Serif" font-size="10.00">+</text>
<text text-anchor="start" x="1018.5" y="-211" font-family="Helvetica,sans-Serif" font-size="10.00">set()</text>
<polygon fill="#666666" stroke="#666666" points="981.5,-311 981.5,-311 1112.5,-311 1112.5,-311 981.5,-311"/>
<polygon fill="#666666" stroke="#666666" points="981.5,-266 981.5,-266 1016.5,-266 1016.5,-266 981.5,-266"/>
<polygon fill="#666666" stroke="#666666" points="1016.5,-266 1016.5,-266 1112.5,-266 1112.5,-266 1016.5,-266"/>
<polygon fill="none" stroke="#666666" points="981,-204 981,-328 1112,-328 1112,-204 981,-204"/>
</a>
</g>
</g>
<!-- Node2 -->
<g id="Node000002" class="node">
<title>Node2</title>
<g id="a_Node000002"><a xlink:href="classdata_1_1blocks_1_1Block.html" target="_top" xlink:title=" ">
<polygon fill="white" stroke="transparent" points="139,-146 0,-146 0,0 139,0 139,-146"/>
<text text-anchor="start" x="5.5" y="-134" font-family="Helvetica,sans-Serif" font-size="10.00">data::blocks::Block</text>
<text text-anchor="start" x="5.5" y="-123" font-family="Helvetica,sans-Serif" font-size="10.00">&lt; data::blocks::Calculated</text>
<text text-anchor="start" x="52.5" y="-112" font-family="Helvetica,sans-Serif" font-size="10.00">Data &gt;</text>
<text text-anchor="start" x="19" y="-97" font-family="Helvetica,sans-Serif" font-size="10.00">&#45;</text>
<text text-anchor="start" x="41.5" y="-97" font-family="Helvetica,sans-Serif" font-size="10.00">data_</text>
<text text-anchor="start" x="19" y="-82" font-family="Helvetica,sans-Serif" font-size="10.00">&#45;</text>
<text text-anchor="start" x="41.5" y="-82" font-family="Helvetica,sans-Serif" font-size="10.00">last_updated_</text>
<text text-anchor="start" x="19" y="-67" font-family="Helvetica,sans-Serif" font-size="10.00">&#45;</text>
<text text-anchor="start" x="41.5" y="-67" font-family="Helvetica,sans-Serif" font-size="10.00">mutex_</text>
<text text-anchor="start" x="16.5" y="-52" font-family="Helvetica,sans-Serif" font-size="10.00">+</text>
<text text-anchor="start" x="41.5" y="-52" font-family="Helvetica,sans-Serif" font-size="10.00">get()</text>
<text text-anchor="start" x="16.5" y="-37" font-family="Helvetica,sans-Serif" font-size="10.00">+</text>
<text text-anchor="start" x="41.5" y="-37" font-family="Helvetica,sans-Serif" font-size="10.00">getAgeMs()</text>
<text text-anchor="start" x="16.5" y="-22" font-family="Helvetica,sans-Serif" font-size="10.00">+</text>
<text text-anchor="start" x="41.5" y="-22" font-family="Helvetica,sans-Serif" font-size="10.00">getAgeSec()</text>
<text text-anchor="start" x="16.5" y="-7" font-family="Helvetica,sans-Serif" font-size="10.00">+</text>
<text text-anchor="start" x="41.5" y="-7" font-family="Helvetica,sans-Serif" font-size="10.00">set()</text>
<polygon fill="#666666" stroke="#666666" points="0.5,-107 0.5,-107 139.5,-107 139.5,-107 0.5,-107"/>
<polygon fill="#666666" stroke="#666666" points="0.5,-62 0.5,-62 39.5,-62 39.5,-62 0.5,-62"/>
<polygon fill="#666666" stroke="#666666" points="39.5,-62 39.5,-62 139.5,-62 139.5,-62 39.5,-62"/>
<polygon fill="none" stroke="#666666" points="0,0 0,-146 139,-146 139,0 0,0"/>
</a>
</g>
</g>
<!-- Node1&#45;&gt;Node2 -->
<g id="edge1_Node000001_Node000002" class="edge">
<title>Node1&#45;&gt;Node2</title>
<g id="a_edge1_Node000001_Node000002"><a xlink:title=" ">
<path fill="none" stroke="orange" d="M970.67,-261.97C767.07,-253.34 218.99,-226.56 148.5,-186 131.9,-176.45 117.92,-161.83 106.57,-146.27"/>
<polygon fill="orange" stroke="orange" points="970.55,-265.47 980.69,-262.4 970.84,-258.48 970.55,-265.47"/>
</a>
</g>
<text text-anchor="start" x="148.5" y="-178" font-family="Helvetica,sans-Serif" font-size="10.00" fill="grey"> &lt; data::blocks::Calculated</text>
<text text-anchor="middle" x="214.5" y="-167" font-family="Helvetica,sans-Serif" font-size="10.00" fill="grey">Data &gt;</text>
</g>
<!-- Node3 -->
<g id="Node000003" class="node">
<title>Node3</title>
<g id="a_Node000003"><a xlink:href="classdata_1_1blocks_1_1Block.html" target="_top" xlink:title=" ">
<polygon fill="white" stroke="transparent" points="320,-140.5 157,-140.5 157,-5.5 320,-5.5 320,-140.5"/>
<text text-anchor="start" x="162.5" y="-128" font-family="Helvetica,sans-Serif" font-size="10.00">data::blocks::Block</text>
<text text-anchor="start" x="162.5" y="-117" font-family="Helvetica,sans-Serif" font-size="10.00">&lt; data::blocks::LocationData &gt;</text>
<text text-anchor="start" x="182" y="-102" font-family="Helvetica,sans-Serif" font-size="10.00">&#45;</text>
<text text-anchor="start" x="210.5" y="-102" font-family="Helvetica,sans-Serif" font-size="10.00">data_</text>
<text text-anchor="start" x="182" y="-87" font-family="Helvetica,sans-Serif" font-size="10.00">&#45;</text>
<text text-anchor="start" x="210.5" y="-87" font-family="Helvetica,sans-Serif" font-size="10.00">last_updated_</text>
<text text-anchor="start" x="182" y="-72" font-family="Helvetica,sans-Serif" font-size="10.00">&#45;</text>
<text text-anchor="start" x="210.5" y="-72" font-family="Helvetica,sans-Serif" font-size="10.00">mutex_</text>
<text text-anchor="start" x="179.5" y="-57" font-family="Helvetica,sans-Serif" font-size="10.00">+</text>
<text text-anchor="start" x="210.5" y="-57" font-family="Helvetica,sans-Serif" font-size="10.00">get()</text>
<text text-anchor="start" x="179.5" y="-42" font-family="Helvetica,sans-Serif" font-size="10.00">+</text>
<text text-anchor="start" x="210.5" y="-42" font-family="Helvetica,sans-Serif" font-size="10.00">getAgeMs()</text>
<text text-anchor="start" x="179.5" y="-27" font-family="Helvetica,sans-Serif" font-size="10.00">+</text>
<text text-anchor="start" x="210.5" y="-27" font-family="Helvetica,sans-Serif" font-size="10.00">getAgeSec()</text>
<text text-anchor="start" x="179.5" y="-12" font-family="Helvetica,sans-Serif" font-size="10.00">+</text>
<text text-anchor="start" x="210.5" y="-12" font-family="Helvetica,sans-Serif" font-size="10.00">set()</text>
<polygon fill="#666666" stroke="#666666" points="157.5,-112 157.5,-112 320.5,-112 320.5,-112 157.5,-112"/>
<polygon fill="#666666" stroke="#666666" points="157.5,-67 157.5,-67 208.5,-67 208.5,-67 157.5,-67"/>
<polygon fill="#666666" stroke="#666666" points="208.5,-67 208.5,-67 320.5,-67 320.5,-67 208.5,-67"/>
<polygon fill="none" stroke="#666666" points="157,-5.5 157,-140.5 320,-140.5 320,-5.5 157,-5.5"/>
</a>
</g>
</g>
<!-- Node1&#45;&gt;Node3 -->
<g id="edge2_Node000001_Node000003" class="edge">
<title>Node1&#45;&gt;Node3</title>
<g id="a_edge2_Node000001_Node000003"><a xlink:title=" ">
<path fill="none" stroke="orange" d="M970.62,-265.12C805.06,-264.09 417.48,-254.24 308.5,-186 291.11,-175.11 277.32,-158.14 266.74,-140.68"/>
<polygon fill="orange" stroke="orange" points="970.71,-268.62 980.72,-265.18 970.74,-261.62 970.71,-268.62"/>
</a>
</g>
<text text-anchor="start" x="308.5" y="-178" font-family="Helvetica,sans-Serif" font-size="10.00" fill="grey"> &lt; data::blocks::Location</text>
<text text-anchor="middle" x="369" y="-167" font-family="Helvetica,sans-Serif" font-size="10.00" fill="grey">Data &gt;</text>
</g>
<!-- Node4 -->
<g id="Node000004" class="node">
<title>Node4</title>
<g id="a_Node000004"><a xlink:href="classdata_1_1blocks_1_1Block.html" target="_top" xlink:title=" ">
<polygon fill="white" stroke="transparent" points="478.5,-140.5 338.5,-140.5 338.5,-5.5 478.5,-5.5 478.5,-140.5"/>
<text text-anchor="start" x="343.5" y="-128" font-family="Helvetica,sans-Serif" font-size="10.00">data::blocks::Block</text>
<text text-anchor="start" x="343.5" y="-117" font-family="Helvetica,sans-Serif" font-size="10.00">&lt; data::blocks::ImuData &gt;</text>
<text text-anchor="start" x="357.5" y="-102" font-family="Helvetica,sans-Serif" font-size="10.00">&#45;</text>
<text text-anchor="start" x="380.5" y="-102" font-family="Helvetica,sans-Serif" font-size="10.00">data_</text>
<text text-anchor="start" x="357.5" y="-87" font-family="Helvetica,sans-Serif" font-size="10.00">&#45;</text>
<text text-anchor="start" x="380.5" y="-87" font-family="Helvetica,sans-Serif" font-size="10.00">last_updated_</text>
<text text-anchor="start" x="357.5" y="-72" font-family="Helvetica,sans-Serif" font-size="10.00">&#45;</text>
<text text-anchor="start" x="380.5" y="-72" font-family="Helvetica,sans-Serif" font-size="10.00">mutex_</text>
<text text-anchor="start" x="355" y="-57" font-family="Helvetica,sans-Serif" font-size="10.00">+</text>
<text text-anchor="start" x="380.5" y="-57" font-family="Helvetica,sans-Serif" font-size="10.00">get()</text>
<text text-anchor="start" x="355" y="-42" font-family="Helvetica,sans-Serif" font-size="10.00">+</text>
<text text-anchor="start" x="380.5" y="-42" font-family="Helvetica,sans-Serif" font-size="10.00">getAgeMs()</text>
<text text-anchor="start" x="355" y="-27" font-family="Helvetica,sans-Serif" font-size="10.00">+</text>
<text text-anchor="start" x="380.5" y="-27" font-family="Helvetica,sans-Serif" font-size="10.00">getAgeSec()</text>
<text text-anchor="start" x="355" y="-12" font-family="Helvetica,sans-Serif" font-size="10.00">+</text>
<text text-anchor="start" x="380.5" y="-12" font-family="Helvetica,sans-Serif" font-size="10.00">set()</text>
<polygon fill="#666666" stroke="#666666" points="338.5,-112 338.5,-112 478.5,-112 478.5,-112 338.5,-112"/>
<polygon fill="#666666" stroke="#666666" points="338.5,-67 338.5,-67 378.5,-67 378.5,-67 338.5,-67"/>
<polygon fill="#666666" stroke="#666666" points="378.5,-67 378.5,-67 478.5,-67 478.5,-67 378.5,-67"/>
<polygon fill="none" stroke="#666666" points="338.5,-5.5 338.5,-140.5 478.5,-140.5 478.5,-5.5 338.5,-5.5"/>
</a>
</g>
</g>
<!-- Node1&#45;&gt;Node4 -->
<g id="edge3_Node000001_Node000004" class="edge">
<title>Node1&#45;&gt;Node4</title>
<g id="a_edge3_Node000001_Node000004"><a xlink:title=" ">
<path fill="none" stroke="orange" d="M970.57,-264.32C828.67,-261.57 530.46,-248.31 451.5,-186 437.11,-174.65 427.53,-157.86 421.16,-140.73"/>
<polygon fill="orange" stroke="orange" points="970.86,-267.83 980.92,-264.51 970.99,-260.83 970.86,-267.83"/>
</a>
</g>
<text text-anchor="middle" x="518" y="-172.5" font-family="Helvetica,sans-Serif" font-size="10.00" fill="grey"> &lt; data::blocks::ImuData &gt;</text>
</g>
<!-- Node5 -->
<g id="Node000005" class="node">
<title>Node5</title>
<g id="a_Node000005"><a xlink:href="classdata_1_1blocks_1_1Block.html" target="_top" xlink:title=" ">
<polygon fill="white" stroke="transparent" points="660.5,-140.5 496.5,-140.5 496.5,-5.5 660.5,-5.5 660.5,-140.5"/>
<text text-anchor="start" x="501.5" y="-128" font-family="Helvetica,sans-Serif" font-size="10.00">data::blocks::Block</text>
<text text-anchor="start" x="501.5" y="-117" font-family="Helvetica,sans-Serif" font-size="10.00">&lt; data::blocks::StreamsStats &gt;</text>
<text text-anchor="start" x="521.5" y="-102" font-family="Helvetica,sans-Serif" font-size="10.00">&#45;</text>
<text text-anchor="start" x="550.5" y="-102" font-family="Helvetica,sans-Serif" font-size="10.00">data_</text>
<text text-anchor="start" x="521.5" y="-87" font-family="Helvetica,sans-Serif" font-size="10.00">&#45;</text>
<text text-anchor="start" x="550.5" y="-87" font-family="Helvetica,sans-Serif" font-size="10.00">last_updated_</text>
<text text-anchor="start" x="521.5" y="-72" font-family="Helvetica,sans-Serif" font-size="10.00">&#45;</text>
<text text-anchor="start" x="550.5" y="-72" font-family="Helvetica,sans-Serif" font-size="10.00">mutex_</text>
<text text-anchor="start" x="519" y="-57" font-family="Helvetica,sans-Serif" font-size="10.00">+</text>
<text text-anchor="start" x="550.5" y="-57" font-family="Helvetica,sans-Serif" font-size="10.00">get()</text>
<text text-anchor="start" x="519" y="-42" font-family="Helvetica,sans-Serif" font-size="10.00">+</text>
<text text-anchor="start" x="550.5" y="-42" font-family="Helvetica,sans-Serif" font-size="10.00">getAgeMs()</text>
<text text-anchor="start" x="519" y="-27" font-family="Helvetica,sans-Serif" font-size="10.00">+</text>
<text text-anchor="start" x="550.5" y="-27" font-family="Helvetica,sans-Serif" font-size="10.00">getAgeSec()</text>
<text text-anchor="start" x="519" y="-12" font-family="Helvetica,sans-Serif" font-size="10.00">+</text>
<text text-anchor="start" x="550.5" y="-12" font-family="Helvetica,sans-Serif" font-size="10.00">set()</text>
<polygon fill="#666666" stroke="#666666" points="496.5,-112 496.5,-112 660.5,-112 660.5,-112 496.5,-112"/>
<polygon fill="#666666" stroke="#666666" points="496.5,-67 496.5,-67 548.5,-67 548.5,-67 496.5,-67"/>
<polygon fill="#666666" stroke="#666666" points="548.5,-67 548.5,-67 660.5,-67 660.5,-67 548.5,-67"/>
<polygon fill="none" stroke="#666666" points="496.5,-5.5 496.5,-140.5 660.5,-140.5 660.5,-5.5 496.5,-5.5"/>
</a>
</g>
</g>
<!-- Node1&#45;&gt;Node5 -->
<g id="edge4_Node000001_Node000005" class="edge">
<title>Node1&#45;&gt;Node5</title>
<g id="a_edge4_Node000001_Node000005"><a xlink:title=" ">
<path fill="none" stroke="orange" d="M970.52,-261.48C857.77,-254.66 653.91,-235.64 602.5,-186 590.13,-174.05 583.37,-157.39 579.86,-140.57"/>
<polygon fill="orange" stroke="orange" points="970.62,-264.99 980.81,-262.09 971.03,-258 970.62,-264.99"/>
</a>
</g>
<text text-anchor="middle" x="681" y="-172.5" font-family="Helvetica,sans-Serif" font-size="10.00" fill="grey"> &lt; data::blocks::StreamsStats &gt;</text>
</g>
<!-- Node6 -->
<g id="Node000006" class="node">
<title>Node6</title>
<g id="a_Node000006"><a xlink:href="classdata_1_1blocks_1_1Block.html" target="_top" xlink:title=" ">
<polygon fill="white" stroke="transparent" points="860.5,-140.5 678.5,-140.5 678.5,-5.5 860.5,-5.5 860.5,-140.5"/>
<text text-anchor="start" x="683.5" y="-128" font-family="Helvetica,sans-Serif" font-size="10.00">data::blocks::Block</text>
<text text-anchor="start" x="683.5" y="-117" font-family="Helvetica,sans-Serif" font-size="10.00">&lt; data::blocks::ModulesStatuses &gt;</text>
<text text-anchor="start" x="708" y="-102" font-family="Helvetica,sans-Serif" font-size="10.00">&#45;</text>
<text text-anchor="start" x="741.5" y="-102" font-family="Helvetica,sans-Serif" font-size="10.00">data_</text>
<text text-anchor="start" x="708" y="-87" font-family="Helvetica,sans-Serif" font-size="10.00">&#45;</text>
<text text-anchor="start" x="741.5" y="-87" font-family="Helvetica,sans-Serif" font-size="10.00">last_updated_</text>
<text text-anchor="start" x="708" y="-72" font-family="Helvetica,sans-Serif" font-size="10.00">&#45;</text>
<text text-anchor="start" x="741.5" y="-72" font-family="Helvetica,sans-Serif" font-size="10.00">mutex_</text>
<text text-anchor="start" x="705.5" y="-57" font-family="Helvetica,sans-Serif" font-size="10.00">+</text>
<text text-anchor="start" x="741.5" y="-57" font-family="Helvetica,sans-Serif" font-size="10.00">get()</text>
<text text-anchor="start" x="705.5" y="-42" font-family="Helvetica,sans-Serif" font-size="10.00">+</text>
<text text-anchor="start" x="741.5" y="-42" font-family="Helvetica,sans-Serif" font-size="10.00">getAgeMs()</text>
<text text-anchor="start" x="705.5" y="-27" font-family="Helvetica,sans-Serif" font-size="10.00">+</text>
<text text-anchor="start" x="741.5" y="-27" font-family="Helvetica,sans-Serif" font-size="10.00">getAgeSec()</text>
<text text-anchor="start" x="705.5" y="-12" font-family="Helvetica,sans-Serif" font-size="10.00">+</text>
<text text-anchor="start" x="741.5" y="-12" font-family="Helvetica,sans-Serif" font-size="10.00">set()</text>
<polygon fill="#666666" stroke="#666666" points="678.5,-112 678.5,-112 860.5,-112 860.5,-112 678.5,-112"/>
<polygon fill="#666666" stroke="#666666" points="678.5,-67 678.5,-67 739.5,-67 739.5,-67 678.5,-67"/>
<polygon fill="#666666" stroke="#666666" points="739.5,-67 739.5,-67 860.5,-67 860.5,-67 739.5,-67"/>
<polygon fill="none" stroke="#666666" points="678.5,-5.5 678.5,-140.5 860.5,-140.5 860.5,-5.5 678.5,-5.5"/>
</a>
</g>
</g>
<!-- Node1&#45;&gt;Node6 -->
<g id="edge5_Node000001_Node000006" class="edge">
<title>Node1&#45;&gt;Node6</title>
<g id="a_edge5_Node000001_Node000006"><a xlink:title=" ">
<path fill="none" stroke="orange" d="M970.97,-253.24C898.92,-240.33 797.84,-217.21 773.5,-186 763.51,-173.19 759.61,-156.82 758.89,-140.58"/>
<polygon fill="orange" stroke="orange" points="970.48,-256.71 980.94,-255 971.7,-249.82 970.48,-256.71"/>
</a>
</g>
<text text-anchor="middle" x="861" y="-172.5" font-family="Helvetica,sans-Serif" font-size="10.00" fill="grey"> &lt; data::blocks::ModulesStatuses &gt;</text>
</g>
<!-- Node7 -->
<g id="Node000007" class="node">
<title>Node7</title>
<g id="a_Node000007"><a xlink:href="classdata_1_1blocks_1_1Block.html" target="_top" xlink:title=" ">
<polygon fill="white" stroke="transparent" points="1034,-146 879,-146 879,0 1034,0 1034,-146"/>
<text text-anchor="start" x="884.5" y="-134" font-family="Helvetica,sans-Serif" font-size="10.00">data::blocks::Block</text>
<text text-anchor="start" x="884.5" y="-123" font-family="Helvetica,sans-Serif" font-size="10.00">&lt; data::blocks::ServerModule</text>
<text text-anchor="start" x="938.5" y="-112" font-family="Helvetica,sans-Serif" font-size="10.00">Stats &gt;</text>
<text text-anchor="start" x="902" y="-97" font-family="Helvetica,sans-Serif" font-size="10.00">&#45;</text>
<text text-anchor="start" x="928.5" y="-97" font-family="Helvetica,sans-Serif" font-size="10.00">data_</text>
<text text-anchor="start" x="902" y="-82" font-family="Helvetica,sans-Serif" font-size="10.00">&#45;</text>
<text text-anchor="start" x="928.5" y="-82" font-family="Helvetica,sans-Serif" font-size="10.00">last_updated_</text>
<text text-anchor="start" x="902" y="-67" font-family="Helvetica,sans-Serif" font-size="10.00">&#45;</text>
<text text-anchor="start" x="928.5" y="-67" font-family="Helvetica,sans-Serif" font-size="10.00">mutex_</text>
<text text-anchor="start" x="899.5" y="-52" font-family="Helvetica,sans-Serif" font-size="10.00">+</text>
<text text-anchor="start" x="928.5" y="-52" font-family="Helvetica,sans-Serif" font-size="10.00">get()</text>
<text text-anchor="start" x="899.5" y="-37" font-family="Helvetica,sans-Serif" font-size="10.00">+</text>
<text text-anchor="start" x="928.5" y="-37" font-family="Helvetica,sans-Serif" font-size="10.00">getAgeMs()</text>
<text text-anchor="start" x="899.5" y="-22" font-family="Helvetica,sans-Serif" font-size="10.00">+</text>
<text text-anchor="start" x="928.5" y="-22" font-family="Helvetica,sans-Serif" font-size="10.00">getAgeSec()</text>
<text text-anchor="start" x="899.5" y="-7" font-family="Helvetica,sans-Serif" font-size="10.00">+</text>
<text text-anchor="start" x="928.5" y="-7" font-family="Helvetica,sans-Serif" font-size="10.00">set()</text>
<polygon fill="#666666" stroke="#666666" points="879.5,-107 879.5,-107 1034.5,-107 1034.5,-107 879.5,-107"/>
<polygon fill="#666666" stroke="#666666" points="879.5,-62 879.5,-62 926.5,-62 926.5,-62 879.5,-62"/>
<polygon fill="#666666" stroke="#666666" points="926.5,-62 926.5,-62 1034.5,-62 1034.5,-62 926.5,-62"/>
<polygon fill="none" stroke="#666666" points="879,0 879,-146 1034,-146 1034,0 879,0"/>
</a>
</g>
</g>
<!-- Node1&#45;&gt;Node7 -->
<g id="edge6_Node000001_Node000007" class="edge">
<title>Node1&#45;&gt;Node7</title>
<g id="a_edge6_Node000001_Node000007"><a xlink:title=" ">
<path fill="none" stroke="orange" d="M973.74,-209.85C967.67,-202.48 962.38,-194.5 958.5,-186 952.88,-173.71 950.17,-159.83 949.2,-146.14"/>
<polygon fill="orange" stroke="orange" points="971.35,-212.43 980.6,-217.6 976.59,-207.79 971.35,-212.43"/>
</a>
</g>
<text text-anchor="start" x="958.5" y="-178" font-family="Helvetica,sans-Serif" font-size="10.00" fill="grey"> &lt; data::blocks::ServerModule</text>
<text text-anchor="middle" x="1032.5" y="-167" font-family="Helvetica,sans-Serif" font-size="10.00" fill="grey">Stats &gt;</text>
</g>
<!-- Node8 -->
<g id="Node000008" class="node">
<title>Node8</title>
<g id="a_Node000008"><a xlink:href="classdata_1_1blocks_1_1Block.html" target="_top" xlink:title=" ">
<polygon fill="white" stroke="transparent" points="1216.5,-140.5 1052.5,-140.5 1052.5,-5.5 1216.5,-5.5 1216.5,-140.5"/>
<text text-anchor="start" x="1057.5" y="-128" font-family="Helvetica,sans-Serif" font-size="10.00">data::blocks::Block</text>
<text text-anchor="start" x="1057.5" y="-117" font-family="Helvetica,sans-Serif" font-size="10.00">&lt; data::blocks::DataLogStats &gt;</text>
<text text-anchor="start" x="1077.5" y="-102" font-family="Helvetica,sans-Serif" font-size="10.00">&#45;</text>
<text text-anchor="start" x="1106.5" y="-102" font-family="Helvetica,sans-Serif" font-size="10.00">data_</text>
<text text-anchor="start" x="1077.5" y="-87" font-family="Helvetica,sans-Serif" font-size="10.00">&#45;</text>
<text text-anchor="start" x="1106.5" y="-87" font-family="Helvetica,sans-Serif" font-size="10.00">last_updated_</text>
<text text-anchor="start" x="1077.5" y="-72" font-family="Helvetica,sans-Serif" font-size="10.00">&#45;</text>
<text text-anchor="start" x="1106.5" y="-72" font-family="Helvetica,sans-Serif" font-size="10.00">mutex_</text>
<text text-anchor="start" x="1075" y="-57" font-family="Helvetica,sans-Serif" font-size="10.00">+</text>
<text text-anchor="start" x="1106.5" y="-57" font-family="Helvetica,sans-Serif" font-size="10.00">get()</text>
<text text-anchor="start" x="1075" y="-42" font-family="Helvetica,sans-Serif" font-size="10.00">+</text>
<text text-anchor="start" x="1106.5" y="-42" font-family="Helvetica,sans-Serif" font-size="10.00">getAgeMs()</text>
<text text-anchor="start" x="1075" y="-27" font-family="Helvetica,sans-Serif" font-size="10.00">+</text>
<text text-anchor="start" x="1106.5" y="-27" font-family="Helvetica,sans-Serif" font-size="10.00">getAgeSec()</text>
<text text-anchor="start" x="1075" y="-12" font-family="Helvetica,sans-Serif" font-size="10.00">+</text>
<text text-anchor="start" x="1106.5" y="-12" font-family="Helvetica,sans-Serif" font-size="10.00">set()</text>
<polygon fill="#666666" stroke="#666666" points="1052.5,-112 1052.5,-112 1216.5,-112 1216.5,-112 1052.5,-112"/>
<polygon fill="#666666" stroke="#666666" points="1052.5,-67 1052.5,-67 1104.5,-67 1104.5,-67 1052.5,-67"/>
<polygon fill="#666666" stroke="#666666" points="1104.5,-67 1104.5,-67 1216.5,-67 1216.5,-67 1104.5,-67"/>
<polygon fill="none" stroke="#666666" points="1052.5,-5.5 1052.5,-140.5 1216.5,-140.5 1216.5,-5.5 1052.5,-5.5"/>
</a>
</g>
</g>
<!-- Node1&#45;&gt;Node8 -->
<g id="edge7_Node000001_Node000008" class="edge">
<title>Node1&#45;&gt;Node8</title>
<g id="a_edge7_Node000001_Node000008"><a xlink:title=" ">
<path fill="none" stroke="orange" d="M1105.62,-195.3C1107.37,-192.23 1109.01,-189.12 1110.5,-186 1117.23,-171.92 1122.09,-155.94 1125.6,-140.55"/>
<polygon fill="orange" stroke="orange" points="1102.61,-193.51 1100.39,-203.87 1108.59,-197.15 1102.61,-193.51"/>
</a>
</g>
<text text-anchor="middle" x="1198" y="-172.5" font-family="Helvetica,sans-Serif" font-size="10.00" fill="grey"> &lt; data::blocks::DataLogStats &gt;</text>
</g>
<!-- Node9 -->
<g id="Node000009" class="node">
<title>Node9</title>
<g id="a_Node000009"><a xlink:href="classdata_1_1blocks_1_1Block.html" target="_top" xlink:title=" ">
<polygon fill="white" stroke="transparent" points="1388.5,-140.5 1234.5,-140.5 1234.5,-5.5 1388.5,-5.5 1388.5,-140.5"/>
<text text-anchor="start" x="1239.5" y="-128" font-family="Helvetica,sans-Serif" font-size="10.00">data::blocks::Block</text>
<text text-anchor="start" x="1239.5" y="-117" font-family="Helvetica,sans-Serif" font-size="10.00">&lt; data::blocks::SystemInfo &gt;</text>
<text text-anchor="start" x="1257" y="-102" font-family="Helvetica,sans-Serif" font-size="10.00">&#45;</text>
<text text-anchor="start" x="1283.5" y="-102" font-family="Helvetica,sans-Serif" font-size="10.00">data_</text>
<text text-anchor="start" x="1257" y="-87" font-family="Helvetica,sans-Serif" font-size="10.00">&#45;</text>
<text text-anchor="start" x="1283.5" y="-87" font-family="Helvetica,sans-Serif" font-size="10.00">last_updated_</text>
<text text-anchor="start" x="1257" y="-72" font-family="Helvetica,sans-Serif" font-size="10.00">&#45;</text>
<text text-anchor="start" x="1283.5" y="-72" font-family="Helvetica,sans-Serif" font-size="10.00">mutex_</text>
<text text-anchor="start" x="1254.5" y="-57" font-family="Helvetica,sans-Serif" font-size="10.00">+</text>
<text text-anchor="start" x="1283.5" y="-57" font-family="Helvetica,sans-Serif" font-size="10.00">get()</text>
<text text-anchor="start" x="1254.5" y="-42" font-family="Helvetica,sans-Serif" font-size="10.00">+</text>
<text text-anchor="start" x="1283.5" y="-42" font-family="Helvetica,sans-Serif" font-size="10.00">getAgeMs()</text>
<text text-anchor="start" x="1254.5" y="-27" font-family="Helvetica,sans-Serif" font-size="10.00">+</text>
<text text-anchor="start" x="1283.5" y="-27" font-family="Helvetica,sans-Serif" font-size="10.00">getAgeSec()</text>
<text text-anchor="start" x="1254.5" y="-12" font-family="Helvetica,sans-Serif" font-size="10.00">+</text>
<text text-anchor="start" x="1283.5" y="-12" font-family="Helvetica,sans-Serif" font-size="10.00">set()</text>
<polygon fill="#666666" stroke="#666666" points="1234.5,-112 1234.5,-112 1388.5,-112 1388.5,-112 1234.5,-112"/>
<polygon fill="#666666" stroke="#666666" points="1234.5,-67 1234.5,-67 1281.5,-67 1281.5,-67 1234.5,-67"/>
<polygon fill="#666666" stroke="#666666" points="1281.5,-67 1281.5,-67 1388.5,-67 1388.5,-67 1281.5,-67"/>
<polygon fill="none" stroke="#666666" points="1234.5,-5.5 1234.5,-140.5 1388.5,-140.5 1388.5,-5.5 1234.5,-5.5"/>
</a>
</g>
</g>
<!-- Node1&#45;&gt;Node9 -->
<g id="edge8_Node000001_Node000009" class="edge">
<title>Node1&#45;&gt;Node9</title>
<g id="a_edge8_Node000001_Node000009"><a xlink:title=" ">
<path fill="none" stroke="orange" d="M1122.29,-257.8C1173.65,-248.99 1239.41,-229.44 1280.5,-186 1292.22,-173.61 1299.57,-157.2 1304.18,-140.77"/>
<polygon fill="orange" stroke="orange" points="1121.54,-254.37 1112.22,-259.42 1122.65,-261.28 1121.54,-254.37"/>
</a>
</g>
<text text-anchor="middle" x="1369" y="-172.5" font-family="Helvetica,sans-Serif" font-size="10.00" fill="grey"> &lt; data::blocks::SystemInfo &gt;</text>
</g>
<!-- Node10 -->
<g id="Node000010" class="node">
<title>Node10</title>
<g id="a_Node000010"><a xlink:href="classdata_1_1blocks_1_1Block.html" target="_top" xlink:title=" ">
<polygon fill="white" stroke="transparent" points="1578,-146 1407,-146 1407,0 1578,0 1578,-146"/>
<text text-anchor="start" x="1412.5" y="-134" font-family="Helvetica,sans-Serif" font-size="10.00">data::blocks::Block</text>
<text text-anchor="start" x="1412.5" y="-123" font-family="Helvetica,sans-Serif" font-size="10.00">&lt; data::blocks::ExtensionModule</text>
<text text-anchor="start" x="1474.5" y="-112" font-family="Helvetica,sans-Serif" font-size="10.00">Stats &gt;</text>
<text text-anchor="start" x="1434" y="-97" font-family="Helvetica,sans-Serif" font-size="10.00">&#45;</text>
<text text-anchor="start" x="1464.5" y="-97" font-family="Helvetica,sans-Serif" font-size="10.00">data_</text>
<text text-anchor="start" x="1434" y="-82" font-family="Helvetica,sans-Serif" font-size="10.00">&#45;</text>
<text text-anchor="start" x="1464.5" y="-82" font-family="Helvetica,sans-Serif" font-size="10.00">last_updated_</text>
<text text-anchor="start" x="1434" y="-67" font-family="Helvetica,sans-Serif" font-size="10.00">&#45;</text>
<text text-anchor="start" x="1464.5" y="-67" font-family="Helvetica,sans-Serif" font-size="10.00">mutex_</text>
<text text-anchor="start" x="1431.5" y="-52" font-family="Helvetica,sans-Serif" font-size="10.00">+</text>
<text text-anchor="start" x="1464.5" y="-52" font-family="Helvetica,sans-Serif" font-size="10.00">get()</text>
<text text-anchor="start" x="1431.5" y="-37" font-family="Helvetica,sans-Serif" font-size="10.00">+</text>
<text text-anchor="start" x="1464.5" y="-37" font-family="Helvetica,sans-Serif" font-size="10.00">getAgeMs()</text>
<text text-anchor="start" x="1431.5" y="-22" font-family="Helvetica,sans-Serif" font-size="10.00">+</text>
<text text-anchor="start" x="1464.5" y="-22" font-family="Helvetica,sans-Serif" font-size="10.00">getAgeSec()</text>
<text text-anchor="start" x="1431.5" y="-7" font-family="Helvetica,sans-Serif" font-size="10.00">+</text>
<text text-anchor="start" x="1464.5" y="-7" font-family="Helvetica,sans-Serif" font-size="10.00">set()</text>
<polygon fill="#666666" stroke="#666666" points="1407.5,-107 1407.5,-107 1578.5,-107 1578.5,-107 1407.5,-107"/>
<polygon fill="#666666" stroke="#666666" points="1407.5,-62 1407.5,-62 1462.5,-62 1462.5,-62 1407.5,-62"/>
<polygon fill="#666666" stroke="#666666" points="1462.5,-62 1462.5,-62 1578.5,-62 1578.5,-62 1462.5,-62"/>
<polygon fill="none" stroke="#666666" points="1407,0 1407,-146 1578,-146 1578,0 1407,0"/>
</a>
</g>
</g>
<!-- Node1&#45;&gt;Node10 -->
<g id="edge9_Node000001_Node000010" class="edge">
<title>Node1&#45;&gt;Node10</title>
<g id="a_edge9_Node000001_Node000010"><a xlink:title=" ">
<path fill="none" stroke="orange" d="M1122.32,-258.55C1224.15,-248.48 1397.93,-225.93 1446.5,-186 1459.17,-175.59 1468.38,-161.12 1475.08,-146.04"/>
<polygon fill="orange" stroke="orange" points="1121.71,-255.09 1112.09,-259.54 1122.38,-262.06 1121.71,-255.09"/>
</a>
</g>
<text text-anchor="start" x="1466.5" y="-178" font-family="Helvetica,sans-Serif" font-size="10.00" fill="grey"> &lt; data::blocks::Extension</text>
<text text-anchor="middle" x="1530.5" y="-167" font-family="Helvetica,sans-Serif" font-size="10.00" fill="grey">ModuleStats &gt;</text>
</g>
<!-- Node11 -->
<g id="Node000011" class="node">
<title>Node11</title>
<g id="a_Node000011"><a xlink:href="classdata_1_1blocks_1_1Block.html" target="_top" xlink:title=" ">
<polygon fill="white" stroke="transparent" points="1769,-140.5 1596,-140.5 1596,-5.5 1769,-5.5 1769,-140.5"/>
<text text-anchor="start" x="1601.5" y="-128" font-family="Helvetica,sans-Serif" font-size="10.00">data::blocks::Block</text>
<text text-anchor="start" x="1601.5" y="-117" font-family="Helvetica,sans-Serif" font-size="10.00">&lt; data::blocks::CameraImages &gt;</text>
<text text-anchor="start" x="1623.5" y="-102" font-family="Helvetica,sans-Serif" font-size="10.00">&#45;</text>
<text text-anchor="start" x="1654.5" y="-102" font-family="Helvetica,sans-Serif" font-size="10.00">data_</text>
<text text-anchor="start" x="1623.5" y="-87" font-family="Helvetica,sans-Serif" font-size="10.00">&#45;</text>
<text text-anchor="start" x="1654.5" y="-87" font-family="Helvetica,sans-Serif" font-size="10.00">last_updated_</text>
<text text-anchor="start" x="1623.5" y="-72" font-family="Helvetica,sans-Serif" font-size="10.00">&#45;</text>
<text text-anchor="start" x="1654.5" y="-72" font-family="Helvetica,sans-Serif" font-size="10.00">mutex_</text>
<text text-anchor="start" x="1621" y="-57" font-family="Helvetica,sans-Serif" font-size="10.00">+</text>
<text text-anchor="start" x="1654.5" y="-57" font-family="Helvetica,sans-Serif" font-size="10.00">get()</text>
<text text-anchor="start" x="1621" y="-42" font-family="Helvetica,sans-Serif" font-size="10.00">+</text>
<text text-anchor="start" x="1654.5" y="-42" font-family="Helvetica,sans-Serif" font-size="10.00">getAgeMs()</text>
<text text-anchor="start" x="1621" y="-27" font-family="Helvetica,sans-Serif" font-size="10.00">+</text>
<text text-anchor="start" x="1654.5" y="-27" font-family="Helvetica,sans-Serif" font-size="10.00">getAgeSec()</text>
<text text-anchor="start" x="1621" y="-12" font-family="Helvetica,sans-Serif" font-size="10.00">+</text>
<text text-anchor="start" x="1654.5" y="-12" font-family="Helvetica,sans-Serif" font-size="10.00">set()</text>
<polygon fill="#666666" stroke="#666666" points="1596.5,-112 1596.5,-112 1769.5,-112 1769.5,-112 1596.5,-112"/>
<polygon fill="#666666" stroke="#666666" points="1596.5,-67 1596.5,-67 1652.5,-67 1652.5,-67 1596.5,-67"/>
<polygon fill="#666666" stroke="#666666" points="1652.5,-67 1652.5,-67 1769.5,-67 1769.5,-67 1652.5,-67"/>
<polygon fill="none" stroke="#666666" points="1596,-5.5 1596,-140.5 1769,-140.5 1769,-5.5 1596,-5.5"/>
</a>
</g>
</g>
<!-- Node1&#45;&gt;Node11 -->
<g id="edge10_Node000001_Node000011" class="edge">
<title>Node1&#45;&gt;Node11</title>
<g id="a_edge10_Node000001_Node000011"><a xlink:title=" ">
<path fill="none" stroke="orange" d="M1122.28,-261.28C1254.18,-253.64 1519.45,-232.82 1598.5,-186 1617.11,-174.98 1632.94,-158.08 1645.66,-140.73"/>
<polygon fill="orange" stroke="orange" points="1122.03,-257.79 1112.25,-261.85 1122.43,-264.77 1122.03,-257.79"/>
</a>
</g>
<text text-anchor="middle" x="1708.5" y="-172.5" font-family="Helvetica,sans-Serif" font-size="10.00" fill="grey"> &lt; data::blocks::CameraImages &gt;</text>
</g>
<!-- Node12 -->
<g id="Node000012" class="node">
<title>Node12</title>
<g id="a_Node000012"><a xlink:href="classdata_1_1blocks_1_1Block.html" target="_top" xlink:title=" ">
<polygon fill="white" stroke="transparent" points="1959.5,-146 1787.5,-146 1787.5,0 1959.5,0 1959.5,-146"/>
<text text-anchor="start" x="1792.5" y="-134" font-family="Helvetica,sans-Serif" font-size="10.00">data::blocks::Block</text>
<text text-anchor="start" x="1792.5" y="-123" font-family="Helvetica,sans-Serif" font-size="10.00">&lt; data::blocks::TelemetryModule</text>
<text text-anchor="start" x="1855" y="-112" font-family="Helvetica,sans-Serif" font-size="10.00">Stats &gt;</text>
<text text-anchor="start" x="1814.5" y="-97" font-family="Helvetica,sans-Serif" font-size="10.00">&#45;</text>
<text text-anchor="start" x="1845.5" y="-97" font-family="Helvetica,sans-Serif" font-size="10.00">data_</text>
<text text-anchor="start" x="1814.5" y="-82" font-family="Helvetica,sans-Serif" font-size="10.00">&#45;</text>
<text text-anchor="start" x="1845.5" y="-82" font-family="Helvetica,sans-Serif" font-size="10.00">last_updated_</text>
<text text-anchor="start" x="1814.5" y="-67" font-family="Helvetica,sans-Serif" font-size="10.00">&#45;</text>
<text text-anchor="start" x="1845.5" y="-67" font-family="Helvetica,sans-Serif" font-size="10.00">mutex_</text>
<text text-anchor="start" x="1812" y="-52" font-family="Helvetica,sans-Serif" font-size="10.00">+</text>
<text text-anchor="start" x="1845.5" y="-52" font-family="Helvetica,sans-Serif" font-size="10.00">get()</text>
<text text-anchor="start" x="1812" y="-37" font-family="Helvetica,sans-Serif" font-size="10.00">+</text>
<text text-anchor="start" x="1845.5" y="-37" font-family="Helvetica,sans-Serif" font-size="10.00">getAgeMs()</text>
<text text-anchor="start" x="1812" y="-22" font-family="Helvetica,sans-Serif" font-size="10.00">+</text>
<text text-anchor="start" x="1845.5" y="-22" font-family="Helvetica,sans-Serif" font-size="10.00">getAgeSec()</text>
<text text-anchor="start" x="1812" y="-7" font-family="Helvetica,sans-Serif" font-size="10.00">+</text>
<text text-anchor="start" x="1845.5" y="-7" font-family="Helvetica,sans-Serif" font-size="10.00">set()</text>
<polygon fill="#666666" stroke="#666666" points="1787.5,-107 1787.5,-107 1959.5,-107 1959.5,-107 1787.5,-107"/>
<polygon fill="#666666" stroke="#666666" points="1787.5,-62 1787.5,-62 1843.5,-62 1843.5,-62 1787.5,-62"/>
<polygon fill="#666666" stroke="#666666" points="1843.5,-62 1843.5,-62 1959.5,-62 1959.5,-62 1843.5,-62"/>
<polygon fill="none" stroke="#666666" points="1787.5,0 1787.5,-146 1959.5,-146 1959.5,0 1787.5,0"/>
</a>
</g>
</g>
<!-- Node1&#45;&gt;Node12 -->
<g id="edge11_Node000001_Node000012" class="edge">
<title>Node1&#45;&gt;Node12</title>
<g id="a_edge11_Node000001_Node000012"><a xlink:title=" ">
<path fill="none" stroke="orange" d="M1122.34,-264.86C1289.34,-263.32 1682.97,-252.51 1795.5,-186 1811.92,-176.3 1825.73,-161.62 1836.94,-146.06"/>
<polygon fill="orange" stroke="orange" points="1122.12,-261.36 1112.15,-264.95 1122.18,-268.36 1122.12,-261.36"/>
</a>
</g>
<text text-anchor="start" x="1821.5" y="-178" font-family="Helvetica,sans-Serif" font-size="10.00" fill="grey"> &lt; data::blocks::Telemetry</text>
<text text-anchor="middle" x="1886" y="-167" font-family="Helvetica,sans-Serif" font-size="10.00" fill="grey">ModuleStats &gt;</text>
</g>
<!-- Node13 -->
<g id="Node000013" class="node">
<title>Node13</title>
<g id="a_Node000013"><a xlink:href="classdata_1_1blocks_1_1Block.html" target="_top" xlink:title=" ">
<polygon fill="white" stroke="transparent" points="2119,-146 1978,-146 1978,0 2119,0 2119,-146"/>
<text text-anchor="start" x="1983.5" y="-134" font-family="Helvetica,sans-Serif" font-size="10.00">data::blocks::Block</text>
<text text-anchor="start" x="1983.5" y="-123" font-family="Helvetica,sans-Serif" font-size="10.00">&lt; data::blocks::FileSystem</text>
<text text-anchor="start" x="2031.5" y="-112" font-family="Helvetica,sans-Serif" font-size="10.00">Data &gt;</text>
<text text-anchor="start" x="1997.5" y="-97" font-family="Helvetica,sans-Serif" font-size="10.00">&#45;</text>
<text text-anchor="start" x="2020.5" y="-97" font-family="Helvetica,sans-Serif" font-size="10.00">data_</text>
<text text-anchor="start" x="1997.5" y="-82" font-family="Helvetica,sans-Serif" font-size="10.00">&#45;</text>
<text text-anchor="start" x="2020.5" y="-82" font-family="Helvetica,sans-Serif" font-size="10.00">last_updated_</text>
<text text-anchor="start" x="1997.5" y="-67" font-family="Helvetica,sans-Serif" font-size="10.00">&#45;</text>
<text text-anchor="start" x="2020.5" y="-67" font-family="Helvetica,sans-Serif" font-size="10.00">mutex_</text>
<text text-anchor="start" x="1995" y="-52" font-family="Helvetica,sans-Serif" font-size="10.00">+</text>
<text text-anchor="start" x="2020.5" y="-52" font-family="Helvetica,sans-Serif" font-size="10.00">get()</text>
<text text-anchor="start" x="1995" y="-37" font-family="Helvetica,sans-Serif" font-size="10.00">+</text>
<text text-anchor="start" x="2020.5" y="-37" font-family="Helvetica,sans-Serif" font-size="10.00">getAgeMs()</text>
<text text-anchor="start" x="1995" y="-22" font-family="Helvetica,sans-Serif" font-size="10.00">+</text>
<text text-anchor="start" x="2020.5" y="-22" font-family="Helvetica,sans-Serif" font-size="10.00">getAgeSec()</text>
<text text-anchor="start" x="1995" y="-7" font-family="Helvetica,sans-Serif" font-size="10.00">+</text>
<text text-anchor="start" x="2020.5" y="-7" font-family="Helvetica,sans-Serif" font-size="10.00">set()</text>
<polygon fill="#666666" stroke="#666666" points="1978.5,-107 1978.5,-107 2119.5,-107 2119.5,-107 1978.5,-107"/>
<polygon fill="#666666" stroke="#666666" points="1978.5,-62 1978.5,-62 2018.5,-62 2018.5,-62 1978.5,-62"/>
<polygon fill="#666666" stroke="#666666" points="2018.5,-62 2018.5,-62 2119.5,-62 2119.5,-62 2018.5,-62"/>
<polygon fill="none" stroke="#666666" points="1978,0 1978,-146 2119,-146 2119,0 1978,0"/>
</a>
</g>
</g>
<!-- Node1&#45;&gt;Node13 -->
<g id="edge12_Node000001_Node000013" class="edge">
<title>Node1&#45;&gt;Node13</title>
<g id="a_edge12_Node000001_Node000013"><a xlink:title=" ">
<path fill="none" stroke="orange" d="M1122.49,-265.75C1313.83,-266.49 1810.46,-260.93 1954.5,-186 1972.74,-176.51 1988.85,-161.81 2002.35,-146.15"/>
<polygon fill="orange" stroke="orange" points="1122.26,-262.25 1112.25,-265.71 1122.23,-269.25 1122.26,-262.25"/>
</a>
</g>
<text text-anchor="start" x="1982.5" y="-178" font-family="Helvetica,sans-Serif" font-size="10.00" fill="grey"> &lt; data::blocks::FileSystem</text>
<text text-anchor="middle" x="2049.5" y="-167" font-family="Helvetica,sans-Serif" font-size="10.00" fill="grey">Data &gt;</text>
</g>
</g>
</svg>
