<?xml version="1.0" encoding="UTF-8" standalone="no"?>
<!DOCTYPE svg PUBLIC "-//W3C//DTD SVG 1.1//EN"
 "http://www.w3.org/Graphics/SVG/1.1/DTD/svg11.dtd">
<!-- Generated by graphviz version 2.43.0 (0)
 -->
<!-- Title: FlightRunner::processCommand Pages: 1 -->
<svg width="1157pt" height="722pt"
 viewBox="0.00 0.00 1157.00 722.00" xmlns="http://www.w3.org/2000/svg" xmlns:xlink="http://www.w3.org/1999/xlink">
<g id="graph0" class="graph" transform="scale(1 1) rotate(0) translate(4 718)">
<title>FlightRunner::processCommand</title>
<!-- Node1 -->
<g id="Node000001" class="node">
<title>Node1</title>
<g id="a_Node000001"><a xlink:title="Process commands that are sent to the flight runner.">
<polygon fill="#999999" stroke="#666666" points="173,-332 0,-332 0,-313 173,-313 173,-332"/>
<text text-anchor="middle" x="86.5" y="-320" font-family="Helvetica,sans-Serif" font-size="10.00">FlightRunner::processCommand</text>
</a>
</g>
</g>
<!-- Node2 -->
<g id="Node000002" class="node">
<title>Node2</title>
<g id="a_Node000002"><a xlink:href="classdata_1_1LogStream.html#a18af3025ca8f1e60e5bd795f10b6c8b1" target="_top" xlink:title=" ">
<polygon fill="white" stroke="#666666" points="767.5,-276 641.5,-276 641.5,-257 767.5,-257 767.5,-276"/>
<text text-anchor="middle" x="704.5" y="-264" font-family="Helvetica,sans-Serif" font-size="10.00">data::LogStream::error</text>
</a>
</g>
</g>
<!-- Node1&#45;&gt;Node2 -->
<g id="edge1_Node000001_Node000002" class="edge">
<title>Node1&#45;&gt;Node2</title>
<g id="a_edge1_Node000001_Node000002"><a xlink:title=" ">
<path fill="none" stroke="#63b8ff" d="M95.51,-312.97C113.84,-291.6 161,-239.07 209,-205.5 293.7,-146.26 317.29,-126.76 418,-103.5 490.75,-86.69 519.53,-69.48 586,-103.5 645.92,-134.17 682.26,-211.21 696.53,-247.29"/>
<polygon fill="#63b8ff" stroke="#63b8ff" points="693.28,-248.6 700.11,-256.7 699.83,-246.11 693.28,-248.6"/>
</a>
</g>
</g>
<!-- Node6 -->
<g id="Node000006" class="node">
<title>Node6</title>
<g id="a_Node000006"><a xlink:href="classFlightRunner.html#ace57cc70e225e6d6d9b141e75589e775" target="_top" xlink:title=" ">
<polygon fill="white" stroke="#666666" points="586,-602 418,-602 418,-583 586,-583 586,-602"/>
<text text-anchor="middle" x="502" y="-590" font-family="Helvetica,sans-Serif" font-size="10.00">FlightRunner::fl_phaseChanged</text>
</a>
</g>
</g>
<!-- Node1&#45;&gt;Node6 -->
<g id="edge8_Node000001_Node000006" class="edge">
<title>Node1&#45;&gt;Node6</title>
<g id="a_edge8_Node000001_Node000006"><a xlink:title=" ">
<path fill="none" stroke="#63b8ff" d="M91.13,-332.1C103.04,-362.33 143.97,-456.34 209,-504.5 267.44,-547.78 347.23,-569.95 408.63,-581.2"/>
<polygon fill="#63b8ff" stroke="#63b8ff" points="408.26,-584.69 418.71,-582.98 409.47,-577.8 408.26,-584.69"/>
</a>
</g>
</g>
<!-- Node13 -->
<g id="Node000013" class="node">
<title>Node13</title>
<g id="a_Node000013"><a xlink:href="classFlightPhaseManager.html#af0192410de435610b083e723959fc6d7" target="_top" xlink:title="Get the current flight phase. This is the phase that the entire system will use.">
<polygon fill="white" stroke="#666666" points="361,-447.5 230,-447.5 230,-417.5 361,-417.5 361,-447.5"/>
<text text-anchor="start" x="238" y="-435.5" font-family="Helvetica,sans-Serif" font-size="10.00">FlightPhaseManager</text>
<text text-anchor="middle" x="295.5" y="-424.5" font-family="Helvetica,sans-Serif" font-size="10.00">::getCurrentFlightPhase</text>
</a>
</g>
</g>
<!-- Node1&#45;&gt;Node13 -->
<g id="edge16_Node000001_Node000013" class="edge">
<title>Node1&#45;&gt;Node13</title>
<g id="a_edge16_Node000001_Node000013"><a xlink:title=" ">
<path fill="none" stroke="#63b8ff" d="M98.4,-332.21C118.74,-349.84 164.44,-387.26 209,-408.5 213.1,-410.46 217.4,-412.28 221.78,-413.98"/>
<polygon fill="#63b8ff" stroke="#63b8ff" points="220.89,-417.38 231.48,-417.49 223.27,-410.79 220.89,-417.38"/>
</a>
</g>
</g>
<!-- Node14 -->
<g id="Node000014" class="node">
<title>Node14</title>
<g id="a_Node000014"><a xlink:href="classFlightPhaseManager.html#aaeda08c0192943de07649ee8e85fd064" target="_top" xlink:title="Request that the flight phase be changed to launch. Only valid if the current phase is pre&#45;launch.">
<polygon fill="white" stroke="#666666" points="353.5,-495.5 237.5,-495.5 237.5,-465.5 353.5,-465.5 353.5,-495.5"/>
<text text-anchor="start" x="245.5" y="-483.5" font-family="Helvetica,sans-Serif" font-size="10.00">FlightPhaseManager</text>
<text text-anchor="middle" x="295.5" y="-472.5" font-family="Helvetica,sans-Serif" font-size="10.00">::requestLaunch</text>
</a>
</g>
</g>
<!-- Node1&#45;&gt;Node14 -->
<g id="edge17_Node000001_Node000014" class="edge">
<title>Node1&#45;&gt;Node14</title>
<g id="a_edge17_Node000001_Node000014"><a xlink:title=" ">
<path fill="none" stroke="#63b8ff" d="M93.53,-332.3C109.27,-357.08 154.25,-422.63 209,-456.5 214.81,-460.1 221.18,-463.17 227.73,-465.79"/>
<polygon fill="#63b8ff" stroke="#63b8ff" points="226.82,-469.18 237.42,-469.31 229.22,-462.6 226.82,-469.18"/>
</a>
</g>
</g>
<!-- Node18 -->
<g id="Node000018" class="node">
<title>Node18</title>
<g id="a_Node000018"><a xlink:href="classbit_1_1BuiltInTest.html#a9bb6b9b9d355a2988e21a79c1d154f77" target="_top" xlink:title="Reset the BIT system to it&#39;s initial state.">
<polygon fill="white" stroke="#666666" points="354,-351 237,-351 237,-332 354,-332 354,-351"/>
<text text-anchor="middle" x="295.5" y="-339" font-family="Helvetica,sans-Serif" font-size="10.00">bit::BuiltInTest::reset</text>
</a>
</g>
</g>
<!-- Node1&#45;&gt;Node18 -->
<g id="edge25_Node000001_Node000018" class="edge">
<title>Node1&#45;&gt;Node18</title>
<g id="a_edge25_Node000001_Node000018"><a xlink:title=" ">
<path fill="none" stroke="#63b8ff" d="M173.19,-330.37C190.97,-332 209.47,-333.69 226.5,-335.26"/>
<polygon fill="#63b8ff" stroke="#63b8ff" points="226.63,-338.78 236.91,-336.21 227.27,-331.81 226.63,-338.78"/>
</a>
</g>
</g>
<!-- Node23 -->
<g id="Node000023" class="node">
<title>Node23</title>
<g id="a_Node000023"><a xlink:href="classFlightRunner.html#aa9506cddd9057a4fc3f1b43a15f4d8f9" target="_top" xlink:title="Called when transitioning from pre&#45;launch to launch phase. Sets the launch position in shared data an...">
<polygon fill="white" stroke="#666666" points="382,-233 209,-233 209,-214 382,-214 382,-233"/>
<text text-anchor="middle" x="295.5" y="-221" font-family="Helvetica,sans-Serif" font-size="10.00">FlightRunner::setLaunchPosition</text>
</a>
</g>
</g>
<!-- Node1&#45;&gt;Node23 -->
<g id="edge33_Node000001_Node000023" class="edge">
<title>Node1&#45;&gt;Node23</title>
<g id="a_edge33_Node000001_Node000023"><a xlink:title=" ">
<path fill="none" stroke="#63b8ff" d="M101.11,-312.79C122.96,-297.55 167.62,-267.89 209,-249.5 220.75,-244.28 233.85,-239.72 246.19,-235.93"/>
<polygon fill="#63b8ff" stroke="#63b8ff" points="247.29,-239.25 255.89,-233.06 245.31,-232.54 247.29,-239.25"/>
</a>
</g>
</g>
<!-- Node27 -->
<g id="Node000027" class="node">
<title>Node27</title>
<g id="a_Node000027"><a xlink:href="classFlightPhaseManager.html#a639bfe7ca534d0904f57e4851f766aa2" target="_top" xlink:title="Set the flight phase to pre&#45;launch.">
<polygon fill="white" stroke="#666666" points="353.5,-399.5 237.5,-399.5 237.5,-369.5 353.5,-369.5 353.5,-399.5"/>
<text text-anchor="start" x="245.5" y="-387.5" font-family="Helvetica,sans-Serif" font-size="10.00">FlightPhaseManager</text>
<text text-anchor="middle" x="295.5" y="-376.5" font-family="Helvetica,sans-Serif" font-size="10.00">::setPreLaunch</text>
</a>
</g>
</g>
<!-- Node1&#45;&gt;Node27 -->
<g id="edge38_Node000001_Node000027" class="edge">
<title>Node1&#45;&gt;Node27</title>
<g id="a_edge38_Node000001_Node000027"><a xlink:title=" ">
<path fill="none" stroke="#63b8ff" d="M117.38,-332.12C141.93,-339.95 177.64,-351.2 209,-360.5 215.81,-362.52 222.93,-364.59 230.04,-366.63"/>
<polygon fill="#63b8ff" stroke="#63b8ff" points="229.12,-370 239.7,-369.38 231.04,-363.27 229.12,-370"/>
</a>
</g>
</g>
<!-- Node28 -->
<g id="Node000028" class="node">
<title>Node28</title>
<g id="a_Node000028"><a xlink:href="classbit_1_1BuiltInTest.html#ae58833032b255dc341c86e89fa595f3f" target="_top" xlink:title=" ">
<polygon fill="white" stroke="#666666" points="353,-314 238,-314 238,-295 353,-295 353,-314"/>
<text text-anchor="middle" x="295.5" y="-302" font-family="Helvetica,sans-Serif" font-size="10.00">bit::BuiltInTest::start</text>
</a>
</g>
</g>
<!-- Node1&#45;&gt;Node28 -->
<g id="edge40_Node000001_Node000028" class="edge">
<title>Node1&#45;&gt;Node28</title>
<g id="a_edge40_Node000001_Node000028"><a xlink:title=" ">
<path fill="none" stroke="#63b8ff" d="M173.19,-315.05C191.41,-313.46 210.4,-311.81 227.79,-310.3"/>
<polygon fill="#63b8ff" stroke="#63b8ff" points="228.16,-313.78 237.82,-309.43 227.56,-306.81 228.16,-313.78"/>
</a>
</g>
</g>
<!-- Node30 -->
<g id="Node000030" class="node">
<title>Node30</title>
<g id="a_Node000030"><a xlink:href="classbit_1_1BuiltInTest.html#aa2c036f9a685264aa639c9ac8b059739" target="_top" xlink:title=" ">
<polygon fill="white" stroke="#666666" points="352,-277 239,-277 239,-258 352,-258 352,-277"/>
<text text-anchor="middle" x="295.5" y="-265" font-family="Helvetica,sans-Serif" font-size="10.00">bit::BuiltInTest::stop</text>
</a>
</g>
</g>
<!-- Node1&#45;&gt;Node30 -->
<g id="edge44_Node000001_Node000030" class="edge">
<title>Node1&#45;&gt;Node30</title>
<g id="a_edge44_Node000001_Node000030"><a xlink:title=" ">
<path fill="none" stroke="#63b8ff" d="M117.55,-312.96C142.04,-305.35 177.59,-294.63 209,-286.5 218.61,-284.01 228.87,-281.56 238.83,-279.28"/>
<polygon fill="#63b8ff" stroke="#63b8ff" points="239.67,-282.68 248.66,-277.07 238.13,-275.85 239.67,-282.68"/>
</a>
</g>
</g>
<!-- Node31 -->
<g id="Node000031" class="node">
<title>Node31</title>
<g id="a_Node000031"><a xlink:href="classFlightRunner.html#aa479b87f758cf8bac5fa323cc282c77c" target="_top" xlink:title=" ">
<polygon fill="white" stroke="#666666" points="371.5,-56 219.5,-56 219.5,-37 371.5,-37 371.5,-56"/>
<text text-anchor="middle" x="295.5" y="-44" font-family="Helvetica,sans-Serif" font-size="10.00">FlightRunner::toggleModule</text>
</a>
</g>
</g>
<!-- Node1&#45;&gt;Node31 -->
<g id="edge46_Node000001_Node000031" class="edge">
<title>Node1&#45;&gt;Node31</title>
<g id="a_edge46_Node000001_Node000031"><a xlink:title=" ">
<path fill="none" stroke="#63b8ff" d="M89.22,-312.77C96.38,-275.29 127.3,-138.98 209,-70.5 213.96,-66.34 219.6,-62.9 225.55,-60.05"/>
<polygon fill="#63b8ff" stroke="#63b8ff" points="227.24,-63.14 235.12,-56.05 224.54,-56.68 227.24,-63.14"/>
</a>
</g>
</g>
<!-- Node3 -->
<g id="Node000003" class="node">
<title>Node3</title>
<g id="a_Node000003"><a xlink:href="classdata_1_1Stream.html#a1ff9a93190dbecdc2ffa27deaaa4266a" target="_top" xlink:title=" ">
<polygon fill="white" stroke="#666666" points="1149,-395.5 1009,-395.5 1009,-365.5 1149,-365.5 1149,-395.5"/>
<text text-anchor="start" x="1017" y="-383.5" font-family="Helvetica,sans-Serif" font-size="10.00">data::Stream&lt; LogPacket</text>
<text text-anchor="middle" x="1079" y="-372.5" font-family="Helvetica,sans-Serif" font-size="10.00"> &gt;::addPacket</text>
</a>
</g>
</g>
<!-- Node2&#45;&gt;Node3 -->
<g id="edge2_Node000002_Node000003" class="edge">
<title>Node2&#45;&gt;Node3</title>
<g id="a_edge2_Node000002_Node000003"><a xlink:title=" ">
<path fill="none" stroke="#63b8ff" d="M767.76,-258.14C824.39,-253.46 908.69,-253.96 973,-286.5 994.94,-297.6 991.08,-311.67 1009,-328.5 1020.82,-339.6 1034.95,-350.59 1047.34,-359.59"/>
<polygon fill="#63b8ff" stroke="#63b8ff" points="1045.42,-362.52 1055.59,-365.48 1049.49,-356.82 1045.42,-362.52"/>
</a>
</g>
</g>
<!-- Node4 -->
<g id="Node000004" class="node">
<title>Node4</title>
<g id="a_Node000004"><a xlink:href="classdata_1_1LogStream.html#a02c18d6e5c9697b4943ba9fb630ca0c9" target="_top" xlink:title=" ">
<polygon fill="white" stroke="#666666" points="959,-314 837,-314 837,-295 959,-295 959,-314"/>
<text text-anchor="middle" x="898" y="-302" font-family="Helvetica,sans-Serif" font-size="10.00">data::LogStream::info</text>
</a>
</g>
</g>
<!-- Node2&#45;&gt;Node4 -->
<g id="edge3_Node000002_Node000004" class="edge">
<title>Node2&#45;&gt;Node4</title>
<g id="a_edge3_Node000002_Node000004"><a xlink:title=" ">
<path fill="none" stroke="#63b8ff" d="M753.82,-276.09C779.66,-281.22 811.67,-287.57 838.86,-292.96"/>
<polygon fill="#63b8ff" stroke="#63b8ff" points="838.53,-296.47 849.02,-294.98 839.9,-289.6 838.53,-296.47"/>
</a>
</g>
</g>
<!-- Node5 -->
<g id="Node000005" class="node">
<title>Node5</title>
<g id="a_Node000005"><a xlink:href="structdata_1_1BaseStreamPacket.html#a140b2f54f93715d9229e1847bc1219b2" target="_top" xlink:title=" ">
<polygon fill="white" stroke="#666666" points="1146.5,-319.5 1011.5,-319.5 1011.5,-289.5 1146.5,-289.5 1146.5,-319.5"/>
<text text-anchor="start" x="1019.5" y="-307.5" font-family="Helvetica,sans-Serif" font-size="10.00">data::BaseStreamPacket</text>
<text text-anchor="middle" x="1079" y="-296.5" font-family="Helvetica,sans-Serif" font-size="10.00">::resetTime</text>
</a>
</g>
</g>
<!-- Node2&#45;&gt;Node5 -->
<g id="edge7_Node000002_Node000005" class="edge">
<title>Node2&#45;&gt;Node5</title>
<g id="a_edge7_Node000002_Node000005"><a xlink:title=" ">
<path fill="none" stroke="#63b8ff" d="M748.31,-256.99C801.68,-246.78 895.34,-234.32 973,-252.5 999.28,-258.65 1026.52,-272.39 1046.67,-284.21"/>
<polygon fill="#63b8ff" stroke="#63b8ff" points="1045.03,-287.3 1055.4,-289.46 1048.64,-281.31 1045.03,-287.3"/>
</a>
</g>
</g>
<!-- Node4&#45;&gt;Node3 -->
<g id="edge4_Node000004_Node000003" class="edge">
<title>Node4&#45;&gt;Node3</title>
<g id="a_edge4_Node000004_Node000003"><a xlink:title=" ">
<path fill="none" stroke="#63b8ff" d="M921.67,-314.13C949.53,-325.95 997.47,-346.31 1032.93,-361.36"/>
<polygon fill="#63b8ff" stroke="#63b8ff" points="1032,-364.77 1042.58,-365.46 1034.74,-358.33 1032,-364.77"/>
</a>
</g>
</g>
<!-- Node4&#45;&gt;Node4 -->
<g id="edge5_Node000004_Node000004" class="edge">
<title>Node4&#45;&gt;Node4</title>
<g id="a_edge5_Node000004_Node000004"><a xlink:title=" ">
<path fill="none" stroke="#63b8ff" d="M870.26,-314.08C856.76,-322.73 866.01,-332 898,-332 919.49,-332 930.72,-327.82 931.68,-322.45"/>
<polygon fill="#63b8ff" stroke="#63b8ff" points="934.39,-320.21 925.74,-314.08 928.68,-324.26 934.39,-320.21"/>
</a>
</g>
</g>
<!-- Node4&#45;&gt;Node5 -->
<g id="edge6_Node000004_Node000005" class="edge">
<title>Node4&#45;&gt;Node5</title>
<g id="a_edge6_Node000004_Node000005"><a xlink:title=" ">
<path fill="none" stroke="#63b8ff" d="M959.1,-304.5C972.59,-304.5 987.07,-304.5 1001.14,-304.5"/>
<polygon fill="#63b8ff" stroke="#63b8ff" points="1001.28,-308 1011.28,-304.5 1001.28,-301 1001.28,-308"/>
</a>
</g>
</g>
<!-- Node7 -->
<g id="Node000007" class="node">
<title>Node7</title>
<g id="a_Node000007"><a xlink:href="classFlightRunner.html#acc2f1a518af2fac43a9320db2854521a" target="_top" xlink:title=" ">
<polygon fill="white" stroke="#666666" points="787,-714 622,-714 622,-695 787,-695 787,-714"/>
<text text-anchor="middle" x="704.5" y="-702" font-family="Helvetica,sans-Serif" font-size="10.00">FlightRunner::fl_reportDescent</text>
</a>
</g>
</g>
<!-- Node6&#45;&gt;Node7 -->
<g id="edge9_Node000006_Node000007" class="edge">
<title>Node6&#45;&gt;Node7</title>
<g id="a_edge9_Node000006_Node000007"><a xlink:title=" ">
<path fill="none" stroke="#63b8ff" d="M512.19,-602.07C530.97,-621.02 575.88,-663.44 622,-685.5 627,-687.89 632.31,-689.99 637.74,-691.83"/>
<polygon fill="#63b8ff" stroke="#63b8ff" points="637.01,-695.27 647.59,-694.88 639.07,-688.58 637.01,-695.27"/>
</a>
</g>
</g>
<!-- Node9 -->
<g id="Node000009" class="node">
<title>Node9</title>
<g id="a_Node000009"><a xlink:href="classdata_1_1FlightData.html#a66c0ae403e8e6959292ee73dbd2ea34d" target="_top" xlink:title="Get the current flight phase.">
<polygon fill="white" stroke="#666666" points="970.5,-466.5 825.5,-466.5 825.5,-436.5 970.5,-436.5 970.5,-466.5"/>
<text text-anchor="start" x="833.5" y="-454.5" font-family="Helvetica,sans-Serif" font-size="10.00">data::FlightData::getFlight</text>
<text text-anchor="middle" x="898" y="-443.5" font-family="Helvetica,sans-Serif" font-size="10.00">Phase</text>
</a>
</g>
</g>
<!-- Node6&#45;&gt;Node9 -->
<g id="edge12_Node000006_Node000009" class="edge">
<title>Node6&#45;&gt;Node9</title>
<g id="a_edge12_Node000006_Node000009"><a xlink:title=" ">
<path fill="none" stroke="#63b8ff" d="M586.23,-589.1C658.38,-584.62 755.94,-574.43 787,-551.5 817.07,-529.3 794.93,-500.17 823,-475.5 824.48,-474.2 826.04,-472.96 827.65,-471.8"/>
<polygon fill="#63b8ff" stroke="#63b8ff" points="829.52,-474.76 836.16,-466.5 825.82,-468.82 829.52,-474.76"/>
</a>
</g>
</g>
<!-- Node10 -->
<g id="Node000010" class="node">
<title>Node10</title>
<g id="a_Node000010"><a xlink:href="classgiraffe_1_1FlightRunnerData.html#ac2b08f44adf4ed3ab384cd8e5c947578" target="_top" xlink:title=" ">
<polygon fill="white" stroke="#666666" points="774.5,-676.5 634.5,-676.5 634.5,-646.5 774.5,-646.5 774.5,-676.5"/>
<text text-anchor="start" x="642.5" y="-664.5" font-family="Helvetica,sans-Serif" font-size="10.00">giraffe::FlightRunnerData</text>
<text text-anchor="middle" x="704.5" y="-653.5" font-family="Helvetica,sans-Serif" font-size="10.00">::setFlightPhase</text>
</a>
</g>
</g>
<!-- Node6&#45;&gt;Node10 -->
<g id="edge13_Node000006_Node000010" class="edge">
<title>Node6&#45;&gt;Node10</title>
<g id="a_edge13_Node000006_Node000010"><a xlink:title=" ">
<path fill="none" stroke="#63b8ff" d="M526.97,-602.17C550.87,-611.67 588.71,-626.32 622,-637.5 627.96,-639.5 634.2,-641.5 640.46,-643.45"/>
<polygon fill="#63b8ff" stroke="#63b8ff" points="639.69,-646.87 650.27,-646.45 641.73,-640.18 639.69,-646.87"/>
</a>
</g>
</g>
<!-- Node11 -->
<g id="Node000011" class="node">
<title>Node11</title>
<g id="a_Node000011"><a xlink:href="classgiraffe_1_1StatusLedState.html#a33c2fe6fdb8008af2710221ef5640c30" target="_top" xlink:title=" ">
<polygon fill="white" stroke="#666666" points="768.5,-628.5 640.5,-628.5 640.5,-598.5 768.5,-598.5 768.5,-628.5"/>
<text text-anchor="start" x="648.5" y="-616.5" font-family="Helvetica,sans-Serif" font-size="10.00">giraffe::StatusLedState</text>
<text text-anchor="middle" x="704.5" y="-605.5" font-family="Helvetica,sans-Serif" font-size="10.00">::setGreen</text>
</a>
</g>
</g>
<!-- Node6&#45;&gt;Node11 -->
<g id="edge14_Node000006_Node000011" class="edge">
<title>Node6&#45;&gt;Node11</title>
<g id="a_edge14_Node000006_Node000011"><a xlink:title=" ">
<path fill="none" stroke="#63b8ff" d="M586.29,-601.22C600.83,-602.75 615.87,-604.32 630.12,-605.81"/>
<polygon fill="#63b8ff" stroke="#63b8ff" points="630.03,-609.32 640.34,-606.89 630.76,-602.36 630.03,-609.32"/>
</a>
</g>
</g>
<!-- Node12 -->
<g id="Node000012" class="node">
<title>Node12</title>
<g id="a_Node000012"><a xlink:href="namespaceutil.html#a8e9635f6a41c035d331ddaeb62259ba6" target="_top" xlink:title="Converts a flight phase to a string.">
<polygon fill="white" stroke="#666666" points="745,-542 664,-542 664,-523 745,-523 745,-542"/>
<text text-anchor="middle" x="704.5" y="-530" font-family="Helvetica,sans-Serif" font-size="10.00">util::to_string</text>
</a>
</g>
</g>
<!-- Node6&#45;&gt;Node12 -->
<g id="edge15_Node000006_Node000012" class="edge">
<title>Node6&#45;&gt;Node12</title>
<g id="a_edge15_Node000006_Node000012"><a xlink:title=" ">
<path fill="none" stroke="#63b8ff" d="M534.3,-582.96C558.29,-575.67 592.22,-565.39 622,-556.5 634.71,-552.7 648.56,-548.61 661.16,-544.9"/>
<polygon fill="#63b8ff" stroke="#63b8ff" points="662.36,-548.2 670.96,-542.02 660.38,-541.48 662.36,-548.2"/>
</a>
</g>
</g>
<!-- Node8 -->
<g id="Node000008" class="node">
<title>Node8</title>
<g id="a_Node000008"><a xlink:href="classdata_1_1CommandStream.html#aeacbc84ac96a098ef5836fcbd5187be8" target="_top" xlink:title=" ">
<polygon fill="white" stroke="#666666" points="963,-514.5 833,-514.5 833,-484.5 963,-484.5 963,-514.5"/>
<text text-anchor="start" x="841" y="-502.5" font-family="Helvetica,sans-Serif" font-size="10.00">data::CommandStream</text>
<text text-anchor="middle" x="898" y="-491.5" font-family="Helvetica,sans-Serif" font-size="10.00">::addCommand</text>
</a>
</g>
</g>
<!-- Node7&#45;&gt;Node8 -->
<g id="edge10_Node000007_Node000008" class="edge">
<title>Node7&#45;&gt;Node8</title>
<g id="a_edge10_Node000007_Node000008"><a xlink:title=" ">
<path fill="none" stroke="#63b8ff" d="M769.59,-694.94C775.79,-692.46 781.73,-689.37 787,-685.5 843.35,-644.16 875.94,-564.5 889.51,-524.17"/>
<polygon fill="#63b8ff" stroke="#63b8ff" points="892.86,-525.18 892.62,-514.59 886.2,-523.02 892.86,-525.18"/>
</a>
</g>
</g>
<!-- Node8&#45;&gt;Node3 -->
<g id="edge11_Node000008_Node000003" class="edge">
<title>Node8&#45;&gt;Node3</title>
<g id="a_edge11_Node000008_Node000003"><a xlink:title=" ">
<path fill="none" stroke="#63b8ff" d="M954.28,-484.46C960.77,-481.86 967.15,-478.88 973,-475.5 1006.4,-456.18 1038.31,-424.84 1058.01,-403.48"/>
<polygon fill="#63b8ff" stroke="#63b8ff" points="1060.82,-405.59 1064.93,-395.83 1055.63,-400.89 1060.82,-405.59"/>
</a>
</g>
</g>
<!-- Node15 -->
<g id="Node000015" class="node">
<title>Node15</title>
<g id="a_Node000015"><a xlink:href="classFlightPhaseManager.html#a85ff07e3141863f505d562e7672d995f" target="_top" xlink:title=" ">
<polygon fill="white" stroke="#666666" points="560,-481.5 444,-481.5 444,-451.5 560,-451.5 560,-481.5"/>
<text text-anchor="start" x="452" y="-469.5" font-family="Helvetica,sans-Serif" font-size="10.00">FlightPhaseManager</text>
<text text-anchor="middle" x="502" y="-458.5" font-family="Helvetica,sans-Serif" font-size="10.00">::setFlightPhase</text>
</a>
</g>
</g>
<!-- Node14&#45;&gt;Node15 -->
<g id="edge18_Node000014_Node000015" class="edge">
<title>Node14&#45;&gt;Node15</title>
<g id="a_edge18_Node000014_Node000015"><a xlink:title=" ">
<path fill="none" stroke="#63b8ff" d="M353.74,-476.58C378.56,-474.88 407.81,-472.88 433.68,-471.11"/>
<polygon fill="#63b8ff" stroke="#63b8ff" points="434.04,-474.59 443.78,-470.42 433.56,-467.61 434.04,-474.59"/>
</a>
</g>
</g>
<!-- Node15&#45;&gt;Node8 -->
<g id="edge19_Node000015_Node000008" class="edge">
<title>Node15&#45;&gt;Node8</title>
<g id="a_edge19_Node000015_Node000008"><a xlink:title=" ">
<path fill="none" stroke="#63b8ff" d="M560.29,-471.3C629.64,-477.11 746.57,-486.9 822.76,-493.28"/>
<polygon fill="#63b8ff" stroke="#63b8ff" points="822.51,-496.77 832.77,-494.12 823.09,-489.8 822.51,-496.77"/>
</a>
</g>
</g>
<!-- Node15&#45;&gt;Node12 -->
<g id="edge24_Node000015_Node000012" class="edge">
<title>Node15&#45;&gt;Node12</title>
<g id="a_edge24_Node000015_Node000012"><a xlink:title=" ">
<path fill="none" stroke="#63b8ff" d="M543.85,-481.52C566.73,-489.78 595.84,-500.04 622,-508.5 634.29,-512.48 647.71,-516.54 660.05,-520.17"/>
<polygon fill="#63b8ff" stroke="#63b8ff" points="659.09,-523.53 669.67,-522.97 661.05,-516.81 659.09,-523.53"/>
</a>
</g>
</g>
<!-- Node16 -->
<g id="Node000016" class="node">
<title>Node16</title>
<g id="a_Node000016"><a xlink:href="classdata_1_1DataStream.html#a0eef16fa96084fe72dcc3f3ef8cf0bac" target="_top" xlink:title=" ">
<polygon fill="white" stroke="#666666" points="973,-418 823,-418 823,-399 973,-399 973,-418"/>
<text text-anchor="middle" x="898" y="-406" font-family="Helvetica,sans-Serif" font-size="10.00">data::DataStream::addData</text>
</a>
</g>
</g>
<!-- Node15&#45;&gt;Node16 -->
<g id="edge20_Node000015_Node000016" class="edge">
<title>Node15&#45;&gt;Node16</title>
<g id="a_edge20_Node000015_Node000016"><a xlink:title=" ">
<path fill="none" stroke="#63b8ff" d="M540.68,-451.49C563.77,-442.97 594.15,-432.94 622,-427.5 685.23,-415.15 758.01,-410.54 812.8,-408.94"/>
<polygon fill="#63b8ff" stroke="#63b8ff" points="812.92,-412.43 822.82,-408.67 812.73,-405.44 812.92,-412.43"/>
</a>
</g>
</g>
<!-- Node17 -->
<g id="Node000017" class="node">
<title>Node17</title>
<g id="a_Node000017"><a xlink:href="classdata_1_1FlightData.html#aab39bdf65e13f5c215e7871dae587233" target="_top" xlink:title=" ">
<polygon fill="white" stroke="#666666" points="776.5,-466.5 632.5,-466.5 632.5,-436.5 776.5,-436.5 776.5,-466.5"/>
<text text-anchor="start" x="640.5" y="-454.5" font-family="Helvetica,sans-Serif" font-size="10.00">data::FlightData::setFlight</text>
<text text-anchor="middle" x="704.5" y="-443.5" font-family="Helvetica,sans-Serif" font-size="10.00">Phase</text>
</a>
</g>
</g>
<!-- Node15&#45;&gt;Node17 -->
<g id="edge23_Node000015_Node000017" class="edge">
<title>Node15&#45;&gt;Node17</title>
<g id="a_edge23_Node000015_Node000017"><a xlink:title=" ">
<path fill="none" stroke="#63b8ff" d="M560.19,-462.22C579.48,-460.78 601.41,-459.14 622.21,-457.58"/>
<polygon fill="#63b8ff" stroke="#63b8ff" points="622.6,-461.06 632.31,-456.83 622.07,-454.08 622.6,-461.06"/>
</a>
</g>
</g>
<!-- Node16&#45;&gt;Node3 -->
<g id="edge21_Node000016_Node000003" class="edge">
<title>Node16&#45;&gt;Node3</title>
<g id="a_edge21_Node000016_Node000003"><a xlink:title=" ">
<path fill="none" stroke="#63b8ff" d="M959.85,-398.98C972.37,-397.02 985.72,-394.93 998.78,-392.89"/>
<polygon fill="#63b8ff" stroke="#63b8ff" points="999.35,-396.34 1008.69,-391.34 998.27,-389.43 999.35,-396.34"/>
</a>
</g>
</g>
<!-- Node16&#45;&gt;Node5 -->
<g id="edge22_Node000016_Node000005" class="edge">
<title>Node16&#45;&gt;Node5</title>
<g id="a_edge22_Node000016_Node000005"><a xlink:title=" ">
<path fill="none" stroke="#63b8ff" d="M950.02,-398.93C957.96,-396.45 965.89,-393.36 973,-389.5 992.08,-379.16 992.31,-370.38 1009,-356.5 1021.65,-345.98 1036.13,-334.93 1048.54,-325.73"/>
<polygon fill="#63b8ff" stroke="#63b8ff" points="1050.78,-328.43 1056.76,-319.69 1046.63,-322.79 1050.78,-328.43"/>
</a>
</g>
</g>
<!-- Node19 -->
<g id="Node000019" class="node">
<title>Node19</title>
<g id="a_Node000019"><a xlink:href="classgiraffe_1_1Logger.html#a2947dae610f76345978c81132ea84edc" target="_top" xlink:title=" ">
<polygon fill="white" stroke="#666666" points="560,-314 444,-314 444,-295 560,-295 560,-314"/>
<text text-anchor="middle" x="502" y="-302" font-family="Helvetica,sans-Serif" font-size="10.00">giraffe::Logger::error</text>
</a>
</g>
</g>
<!-- Node18&#45;&gt;Node19 -->
<g id="edge26_Node000018_Node000019" class="edge">
<title>Node18&#45;&gt;Node19</title>
<g id="a_edge26_Node000018_Node000019"><a xlink:title=" ">
<path fill="none" stroke="#63b8ff" d="M349.16,-331.97C376.37,-327.05 409.76,-321.01 438.29,-315.85"/>
<polygon fill="#63b8ff" stroke="#63b8ff" points="438.94,-319.28 448.16,-314.06 437.7,-312.4 438.94,-319.28"/>
</a>
</g>
</g>
<!-- Node21 -->
<g id="Node000021" class="node">
<title>Node21</title>
<g id="a_Node000021"><a xlink:href="classbit_1_1BuiltInTest.html#a5b74cbccfb47539b32796b03598403e3" target="_top" xlink:title=" ">
<polygon fill="white" stroke="#666666" points="767.5,-380.5 641.5,-380.5 641.5,-350.5 767.5,-350.5 767.5,-380.5"/>
<text text-anchor="start" x="649.5" y="-368.5" font-family="Helvetica,sans-Serif" font-size="10.00">bit::BuiltInTest::update</text>
<text text-anchor="middle" x="704.5" y="-357.5" font-family="Helvetica,sans-Serif" font-size="10.00">BitTestData</text>
</a>
</g>
</g>
<!-- Node18&#45;&gt;Node21 -->
<g id="edge30_Node000018_Node000021" class="edge">
<title>Node18&#45;&gt;Node21</title>
<g id="a_edge30_Node000018_Node000021"><a xlink:title=" ">
<path fill="none" stroke="#63b8ff" d="M342.36,-351C355.24,-353.86 369.21,-357.13 382,-360.5 398.18,-364.76 401.45,-369.03 418,-371.5 491.85,-382.53 511.36,-373.4 586,-371.5 600.6,-371.13 616.21,-370.5 631.13,-369.78"/>
<polygon fill="#63b8ff" stroke="#63b8ff" points="631.51,-373.26 641.32,-369.27 631.16,-366.27 631.51,-373.26"/>
</a>
</g>
</g>
<!-- Node19&#45;&gt;Node2 -->
<g id="edge27_Node000019_Node000002" class="edge">
<title>Node19&#45;&gt;Node2</title>
<g id="a_edge27_Node000019_Node000002"><a xlink:title=" ">
<path fill="none" stroke="#63b8ff" d="M553.34,-294.96C580.63,-289.79 614.54,-283.36 643.23,-277.92"/>
<polygon fill="#63b8ff" stroke="#63b8ff" points="643.97,-281.34 653.14,-276.04 642.67,-274.47 643.97,-281.34"/>
</a>
</g>
</g>
<!-- Node20 -->
<g id="Node000020" class="node">
<title>Node20</title>
<g id="a_Node000020"><a xlink:href="classgiraffe_1_1Logger.html#af8465c2895fd50680183e36e093e66e3" target="_top" xlink:title=" ">
<polygon fill="white" stroke="#666666" points="760.5,-314 648.5,-314 648.5,-295 760.5,-295 760.5,-314"/>
<text text-anchor="middle" x="704.5" y="-302" font-family="Helvetica,sans-Serif" font-size="10.00">giraffe::Logger::info</text>
</a>
</g>
</g>
<!-- Node19&#45;&gt;Node20 -->
<g id="edge28_Node000019_Node000020" class="edge">
<title>Node19&#45;&gt;Node20</title>
<g id="a_edge28_Node000019_Node000020"><a xlink:title=" ">
<path fill="none" stroke="#63b8ff" d="M560.19,-304.5C584.5,-304.5 612.99,-304.5 638.13,-304.5"/>
<polygon fill="#63b8ff" stroke="#63b8ff" points="638.31,-308 648.31,-304.5 638.31,-301 638.31,-308"/>
</a>
</g>
</g>
<!-- Node20&#45;&gt;Node4 -->
<g id="edge29_Node000020_Node000004" class="edge">
<title>Node20&#45;&gt;Node4</title>
<g id="a_edge29_Node000020_Node000004"><a xlink:title=" ">
<path fill="none" stroke="#63b8ff" d="M760.63,-304.5C781.24,-304.5 804.92,-304.5 826.71,-304.5"/>
<polygon fill="#63b8ff" stroke="#63b8ff" points="826.9,-308 836.9,-304.5 826.9,-301 826.9,-308"/>
</a>
</g>
</g>
<!-- Node21&#45;&gt;Node9 -->
<g id="edge31_Node000021_Node000009" class="edge">
<title>Node21&#45;&gt;Node9</title>
<g id="a_edge31_Node000021_Node000009"><a xlink:title=" ">
<path fill="none" stroke="#63b8ff" d="M731.01,-380.6C754.4,-394.05 790.28,-413.68 823,-427.5 827.43,-429.37 832.06,-431.19 836.75,-432.93"/>
<polygon fill="#63b8ff" stroke="#63b8ff" points="835.82,-436.31 846.42,-436.38 838.18,-429.72 835.82,-436.31"/>
</a>
</g>
</g>
<!-- Node22 -->
<g id="Node000022" class="node">
<title>Node22</title>
<g id="a_Node000022"><a xlink:href="classdata_1_1FlightData.html#a312127c867c9f4538b4d3cb24303a6e7" target="_top" xlink:title=" ">
<polygon fill="white" stroke="#666666" points="963,-380.5 833,-380.5 833,-350.5 963,-350.5 963,-380.5"/>
<text text-anchor="start" x="841" y="-368.5" font-family="Helvetica,sans-Serif" font-size="10.00">data::FlightData::setBit</text>
<text text-anchor="middle" x="898" y="-357.5" font-family="Helvetica,sans-Serif" font-size="10.00">TestData</text>
</a>
</g>
</g>
<!-- Node21&#45;&gt;Node22 -->
<g id="edge32_Node000021_Node000022" class="edge">
<title>Node21&#45;&gt;Node22</title>
<g id="a_edge32_Node000021_Node000022"><a xlink:title=" ">
<path fill="none" stroke="#63b8ff" d="M767.67,-365.5C785.19,-365.5 804.43,-365.5 822.59,-365.5"/>
<polygon fill="#63b8ff" stroke="#63b8ff" points="822.84,-369 832.84,-365.5 822.84,-362 822.84,-369"/>
</a>
</g>
</g>
<!-- Node23&#45;&gt;Node2 -->
<g id="edge35_Node000023_Node000002" class="edge">
<title>Node23&#45;&gt;Node2</title>
<g id="a_edge35_Node000023_Node000002"><a xlink:title=" ">
<path fill="none" stroke="#63b8ff" d="M337.89,-233.05C361.29,-238.1 391.14,-243.97 418,-247.5 490.25,-257 573.44,-261.85 631.31,-264.26"/>
<polygon fill="#63b8ff" stroke="#63b8ff" points="631.32,-267.77 641.46,-264.67 631.6,-260.77 631.32,-267.77"/>
</a>
</g>
</g>
<!-- Node24 -->
<g id="Node000024" class="node">
<title>Node24</title>
<g id="a_Node000024"><a xlink:href="classgiraffe_1_1FlightRunnerData.html#ad522ef22add361da8fd8dda6dda7930a" target="_top" xlink:title="Clears the launch position/set it to invalid.">
<polygon fill="white" stroke="#666666" points="572,-238.5 432,-238.5 432,-208.5 572,-208.5 572,-238.5"/>
<text text-anchor="start" x="440" y="-226.5" font-family="Helvetica,sans-Serif" font-size="10.00">giraffe::FlightRunnerData</text>
<text text-anchor="middle" x="502" y="-215.5" font-family="Helvetica,sans-Serif" font-size="10.00">::clearLaunchPosition</text>
</a>
</g>
</g>
<!-- Node23&#45;&gt;Node24 -->
<g id="edge34_Node000023_Node000024" class="edge">
<title>Node23&#45;&gt;Node24</title>
<g id="a_edge34_Node000023_Node000024"><a xlink:title=" ">
<path fill="none" stroke="#63b8ff" d="M382.04,-223.5C395.17,-223.5 408.67,-223.5 421.66,-223.5"/>
<polygon fill="#63b8ff" stroke="#63b8ff" points="421.94,-227 431.94,-223.5 421.94,-220 421.94,-227"/>
</a>
</g>
</g>
<!-- Node25 -->
<g id="Node000025" class="node">
<title>Node25</title>
<g id="a_Node000025"><a xlink:href="classgiraffe_1_1FlightRunnerData.html#aec5ac065bece8131a74452bd55615b02" target="_top" xlink:title="Set the launch position. Called on the transition from pre&#45;launch to launch.">
<polygon fill="white" stroke="#666666" points="572,-190.5 432,-190.5 432,-160.5 572,-160.5 572,-190.5"/>
<text text-anchor="start" x="440" y="-178.5" font-family="Helvetica,sans-Serif" font-size="10.00">giraffe::FlightRunnerData</text>
<text text-anchor="middle" x="502" y="-167.5" font-family="Helvetica,sans-Serif" font-size="10.00">::setLaunchPosition</text>
</a>
</g>
</g>
<!-- Node23&#45;&gt;Node25 -->
<g id="edge36_Node000023_Node000025" class="edge">
<title>Node23&#45;&gt;Node25</title>
<g id="a_edge36_Node000023_Node000025"><a xlink:title=" ">
<path fill="none" stroke="#63b8ff" d="M337.39,-213.9C362.94,-207.9 396.61,-200 426.75,-192.93"/>
<polygon fill="#63b8ff" stroke="#63b8ff" points="427.89,-196.26 436.83,-190.56 426.29,-189.44 427.89,-196.26"/>
</a>
</g>
</g>
<!-- Node26 -->
<g id="Node000026" class="node">
<title>Node26</title>
<g id="a_Node000026"><a xlink:href="classdata_1_1FlightData.html#af8689e42e3dcf4e6813bb608ed36a441" target="_top" xlink:title=" ">
<polygon fill="white" stroke="#666666" points="577.5,-142.5 426.5,-142.5 426.5,-112.5 577.5,-112.5 577.5,-142.5"/>
<text text-anchor="start" x="434.5" y="-130.5" font-family="Helvetica,sans-Serif" font-size="10.00">data::FlightData::setLaunch</text>
<text text-anchor="middle" x="502" y="-119.5" font-family="Helvetica,sans-Serif" font-size="10.00">Position</text>
</a>
</g>
</g>
<!-- Node23&#45;&gt;Node26 -->
<g id="edge37_Node000023_Node000026" class="edge">
<title>Node23&#45;&gt;Node26</title>
<g id="a_edge37_Node000023_Node000026"><a xlink:title=" ">
<path fill="none" stroke="#63b8ff" d="M310.1,-213.87C331.94,-198.77 376.59,-169.41 418,-151.5 422.61,-149.5 427.44,-147.62 432.35,-145.85"/>
<polygon fill="#63b8ff" stroke="#63b8ff" points="433.53,-149.15 441.85,-142.6 431.26,-142.53 433.53,-149.15"/>
</a>
</g>
</g>
<!-- Node27&#45;&gt;Node15 -->
<g id="edge39_Node000027_Node000015" class="edge">
<title>Node27&#45;&gt;Node15</title>
<g id="a_edge39_Node000027_Node000015"><a xlink:title=" ">
<path fill="none" stroke="#63b8ff" d="M353.54,-398.97C363.13,-401.84 372.92,-405.05 382,-408.5 410.51,-419.35 441.44,-434.54 464.62,-446.65"/>
<polygon fill="#63b8ff" stroke="#63b8ff" points="463.26,-449.89 473.73,-451.46 466.53,-443.7 463.26,-449.89"/>
</a>
</g>
</g>
<!-- Node28&#45;&gt;Node19 -->
<g id="edge43_Node000028_Node000019" class="edge">
<title>Node28&#45;&gt;Node19</title>
<g id="a_edge43_Node000028_Node000019"><a xlink:title=" ">
<path fill="none" stroke="#63b8ff" d="M353.19,-304.5C378.13,-304.5 407.62,-304.5 433.67,-304.5"/>
<polygon fill="#63b8ff" stroke="#63b8ff" points="433.84,-308 443.84,-304.5 433.84,-301 433.84,-308"/>
</a>
</g>
</g>
<!-- Node29 -->
<g id="Node000029" class="node">
<title>Node29</title>
<g id="a_Node000029"><a xlink:href="classbit_1_1BuiltInTest.html#a700c0d8395116af33dd6e11165bf71f3" target="_top" xlink:title=" ">
<polygon fill="white" stroke="#666666" points="564.5,-362.5 439.5,-362.5 439.5,-332.5 564.5,-332.5 564.5,-362.5"/>
<text text-anchor="start" x="447.5" y="-350.5" font-family="Helvetica,sans-Serif" font-size="10.00">bit::BuiltInTest::bitTest</text>
<text text-anchor="middle" x="502" y="-339.5" font-family="Helvetica,sans-Serif" font-size="10.00">Runner</text>
</a>
</g>
</g>
<!-- Node28&#45;&gt;Node29 -->
<g id="edge41_Node000028_Node000029" class="edge">
<title>Node28&#45;&gt;Node29</title>
<g id="a_edge41_Node000028_Node000029"><a xlink:title=" ">
<path fill="none" stroke="#63b8ff" d="M341.89,-314.04C367.57,-319.44 400.27,-326.32 429.34,-332.43"/>
<polygon fill="#63b8ff" stroke="#63b8ff" points="428.95,-335.93 439.45,-334.56 430.39,-329.08 428.95,-335.93"/>
</a>
</g>
</g>
<!-- Node29&#45;&gt;Node21 -->
<g id="edge42_Node000029_Node000021" class="edge">
<title>Node29&#45;&gt;Node21</title>
<g id="a_edge42_Node000029_Node000021"><a xlink:title=" ">
<path fill="none" stroke="#63b8ff" d="M564.52,-353.02C585.59,-354.91 609.35,-357.05 631.19,-359.01"/>
<polygon fill="#63b8ff" stroke="#63b8ff" points="631.13,-362.52 641.41,-359.93 631.76,-355.55 631.13,-362.52"/>
</a>
</g>
</g>
<!-- Node30&#45;&gt;Node19 -->
<g id="edge45_Node000030_Node000019" class="edge">
<title>Node30&#45;&gt;Node19</title>
<g id="a_edge45_Node000030_Node000019"><a xlink:title=" ">
<path fill="none" stroke="#63b8ff" d="M349.16,-277.03C376.37,-281.95 409.76,-287.99 438.29,-293.15"/>
<polygon fill="#63b8ff" stroke="#63b8ff" points="437.7,-296.6 448.16,-294.94 438.94,-289.72 437.7,-296.6"/>
</a>
</g>
</g>
<!-- Node32 -->
<g id="Node000032" class="node">
<title>Node32</title>
<g id="a_Node000032"><a xlink:href="classmodules_1_1Module.html#afa712a59eff6e99405e70ae61f7510cd" target="_top" xlink:title="Starts a thread to run the module.">
<polygon fill="white" stroke="#666666" points="566.5,-56 437.5,-56 437.5,-37 566.5,-37 566.5,-56"/>
<text text-anchor="middle" x="502" y="-44" font-family="Helvetica,sans-Serif" font-size="10.00">modules::Module::start</text>
</a>
</g>
</g>
<!-- Node31&#45;&gt;Node32 -->
<g id="edge47_Node000031_Node000032" class="edge">
<title>Node31&#45;&gt;Node32</title>
<g id="a_edge47_Node000031_Node000032"><a xlink:title=" ">
<path fill="none" stroke="#63b8ff" d="M371.78,-46.5C389.85,-46.5 409.14,-46.5 427.15,-46.5"/>
<polygon fill="#63b8ff" stroke="#63b8ff" points="427.3,-50 437.3,-46.5 427.3,-43 427.3,-50"/>
</a>
</g>
</g>
<!-- Node34 -->
<g id="Node000034" class="node">
<title>Node34</title>
<g id="a_Node000034"><a xlink:href="classmodules_1_1Module.html#aefe65d4f674e804a1891b250ed2887a4" target="_top" xlink:title="Stops the module by setting the stop flag to true and joining the runner thread.">
<polygon fill="white" stroke="#666666" points="566,-19 438,-19 438,0 566,0 566,-19"/>
<text text-anchor="middle" x="502" y="-7" font-family="Helvetica,sans-Serif" font-size="10.00">modules::Module::stop</text>
</a>
</g>
</g>
<!-- Node31&#45;&gt;Node34 -->
<g id="edge49_Node000031_Node000034" class="edge">
<title>Node31&#45;&gt;Node34</title>
<g id="a_edge49_Node000031_Node000034"><a xlink:title=" ">
<path fill="none" stroke="#63b8ff" d="M349.16,-36.97C376.37,-32.05 409.76,-26.01 438.29,-20.85"/>
<polygon fill="#63b8ff" stroke="#63b8ff" points="438.94,-24.28 448.16,-19.06 437.7,-17.4 438.94,-24.28"/>
</a>
</g>
</g>
<!-- Node33 -->
<g id="Node000033" class="node">
<title>Node33</title>
<g id="a_Node000033"><a xlink:href="classmodules_1_1Module.html#a3d879001e471093d48fcbd2f8c406f51" target="_top" xlink:title="This is the main function for each module.">
<polygon fill="white" stroke="#666666" points="773.5,-56 635.5,-56 635.5,-37 773.5,-37 773.5,-56"/>
<text text-anchor="middle" x="704.5" y="-44" font-family="Helvetica,sans-Serif" font-size="10.00">modules::Module::runner</text>
</a>
</g>
</g>
<!-- Node32&#45;&gt;Node33 -->
<g id="edge48_Node000032_Node000033" class="edge">
<title>Node32&#45;&gt;Node33</title>
<g id="a_edge48_Node000032_Node000033"><a xlink:title=" ">
<path fill="none" stroke="#63b8ff" d="M566.71,-46.5C585.37,-46.5 605.97,-46.5 625.41,-46.5"/>
<polygon fill="#63b8ff" stroke="#63b8ff" points="625.45,-50 635.45,-46.5 625.45,-43 625.45,-50"/>
</a>
</g>
</g>
</g>
</svg>
