<?xml version="1.0" encoding="UTF-8" standalone="no"?>
<!DOCTYPE svg PUBLIC "-//W3C//DTD SVG 1.1//EN"
 "http://www.w3.org/Graphics/SVG/1.1/DTD/svg11.dtd">
<!-- Generated by graphviz version 2.43.0 (0)
 -->
<!-- Title: FlightPhaseManager::update Pages: 1 -->
<svg width="1226pt" height="509pt"
 viewBox="0.00 0.00 1226.00 509.44" xmlns="http://www.w3.org/2000/svg" xmlns:xlink="http://www.w3.org/1999/xlink">
<g id="graph0" class="graph" transform="scale(1 1) rotate(0) translate(4 505.44)">
<title>FlightPhaseManager::update</title>
<!-- Node1 -->
<g id="node1" class="node">
<title>Node1</title>
<g id="a_node1"><a xlink:title="Update the flight phase manager.">
<polygon fill="#bfbfbf" stroke="black" points="0,-283 0,-313 116,-313 116,-283 0,-283"/>
<text text-anchor="start" x="8" y="-301" font-family="Helvetica,sans-Serif" font-size="10.00">FlightPhaseManager</text>
<text text-anchor="middle" x="58" y="-290" font-family="Helvetica,sans-Serif" font-size="10.00">::update</text>
</a>
</g>
</g>
<!-- Node2 -->
<g id="node2" class="node">
<title>Node2</title>
<g id="a_node2"><a xlink:href="classFlightPhaseManager.html#a38e97741fd5bdd0b80a3172d3e73322d" target="_top" xlink:title=" ">
<polygon fill="none" stroke="black" points="167,-382 167,-412 283,-412 283,-382 167,-382"/>
<text text-anchor="start" x="175" y="-400" font-family="Helvetica,sans-Serif" font-size="10.00">FlightPhaseManager</text>
<text text-anchor="middle" x="225" y="-389" font-family="Helvetica,sans-Serif" font-size="10.00">::flightPhaseUpdate</text>
</a>
</g>
</g>
<!-- Node1&#45;&gt;Node2 -->
<g id="edge1" class="edge">
<title>Node1&#45;&gt;Node2</title>
<path fill="none" stroke="midnightblue" d="M74.59,-313.18C92.16,-329.59 122.17,-355.58 152,-372 155.89,-374.14 159.99,-376.15 164.19,-378.02"/>
<polygon fill="midnightblue" stroke="midnightblue" points="162.9,-381.28 173.48,-381.91 165.61,-374.82 162.9,-381.28"/>
</g>
<!-- Node19 -->
<g id="node19" class="node">
<title>Node19</title>
<g id="a_node19"><a xlink:href="classFlightPhasePredictor.html#aa56a7eeb78fb0ce2407ea537236bdcd3" target="_top" xlink:title="Get the phase probabilities structure.">
<polygon fill="none" stroke="black" points="165,-332 165,-362 285,-362 285,-332 165,-332"/>
<text text-anchor="start" x="173" y="-350" font-family="Helvetica,sans-Serif" font-size="10.00">FlightPhasePredictor</text>
<text text-anchor="middle" x="225" y="-339" font-family="Helvetica,sans-Serif" font-size="10.00">::getPhaseProbability</text>
</a>
</g>
</g>
<!-- Node1&#45;&gt;Node19 -->
<g id="edge29" class="edge">
<title>Node1&#45;&gt;Node19</title>
<path fill="none" stroke="midnightblue" d="M109.85,-313.1C126.87,-318.16 146,-323.84 163.67,-329.08"/>
<polygon fill="midnightblue" stroke="midnightblue" points="162.73,-332.46 173.32,-331.95 164.73,-325.75 162.73,-332.46"/>
</g>
<!-- Node20 -->
<g id="node20" class="node">
<title>Node20</title>
<g id="a_node20"><a xlink:href="classFlightPhasePredictor.html#a7f865ee9e6f156605ac2d92241ab2b0f" target="_top" xlink:title="Get the predicted flight phase.">
<polygon fill="none" stroke="black" points="166.5,-283 166.5,-313 283.5,-313 283.5,-283 166.5,-283"/>
<text text-anchor="start" x="174.5" y="-301" font-family="Helvetica,sans-Serif" font-size="10.00">FlightPhasePredictor</text>
<text text-anchor="middle" x="225" y="-290" font-family="Helvetica,sans-Serif" font-size="10.00">::getPredictedPhase</text>
</a>
</g>
</g>
<!-- Node1&#45;&gt;Node20 -->
<g id="edge30" class="edge">
<title>Node1&#45;&gt;Node20</title>
<path fill="none" stroke="midnightblue" d="M116.25,-298C129.15,-298 142.97,-298 156.26,-298"/>
<polygon fill="midnightblue" stroke="midnightblue" points="156.3,-301.5 166.3,-298 156.3,-294.5 156.3,-301.5"/>
</g>
<!-- Node21 -->
<g id="node21" class="node">
<title>Node21</title>
<g id="a_node21"><a xlink:href="classdata_1_1FlightData.html#a3aaa12475187e63a50a331fe629a52b4" target="_top" xlink:title=" ">
<polygon fill="none" stroke="black" points="152,-234 152,-264 298,-264 298,-234 152,-234"/>
<text text-anchor="start" x="160" y="-252" font-family="Helvetica,sans-Serif" font-size="10.00">data::FlightData::setPhase</text>
<text text-anchor="middle" x="225" y="-241" font-family="Helvetica,sans-Serif" font-size="10.00">Prediction</text>
</a>
</g>
</g>
<!-- Node1&#45;&gt;Node21 -->
<g id="edge31" class="edge">
<title>Node1&#45;&gt;Node21</title>
<path fill="none" stroke="midnightblue" d="M109.85,-282.9C126.87,-277.84 146,-272.16 163.67,-266.92"/>
<polygon fill="midnightblue" stroke="midnightblue" points="164.73,-270.25 173.32,-264.05 162.73,-263.54 164.73,-270.25"/>
</g>
<!-- Node22 -->
<g id="node22" class="node">
<title>Node22</title>
<g id="a_node22"><a xlink:href="classFlightPhasePredictor.html#a325f1d196644bc5ef1e635ef855f3d87" target="_top" xlink:title="Update the flight phase predictor.">
<polygon fill="none" stroke="black" points="166.5,-184 166.5,-214 283.5,-214 283.5,-184 166.5,-184"/>
<text text-anchor="start" x="174.5" y="-202" font-family="Helvetica,sans-Serif" font-size="10.00">FlightPhasePredictor</text>
<text text-anchor="middle" x="225" y="-191" font-family="Helvetica,sans-Serif" font-size="10.00">::update</text>
</a>
</g>
</g>
<!-- Node1&#45;&gt;Node22 -->
<g id="edge32" class="edge">
<title>Node1&#45;&gt;Node22</title>
<path fill="none" stroke="midnightblue" d="M74.99,-282.81C92.67,-266.69 122.56,-241.32 152,-225 156.46,-222.53 161.21,-220.21 166.05,-218.06"/>
<polygon fill="midnightblue" stroke="midnightblue" points="167.55,-221.22 175.42,-214.13 164.85,-214.77 167.55,-221.22"/>
</g>
<!-- Node3 -->
<g id="node3" class="node">
<title>Node3</title>
<g id="a_node3"><a xlink:href="classgiraffe_1_1Logger.html#a2947dae610f76345978c81132ea84edc" target="_top" xlink:title=" ">
<polygon fill="none" stroke="black" points="540.5,-276.5 540.5,-295.5 656.5,-295.5 656.5,-276.5 540.5,-276.5"/>
<text text-anchor="middle" x="598.5" y="-283.5" font-family="Helvetica,sans-Serif" font-size="10.00">giraffe::Logger::error</text>
</a>
</g>
</g>
<!-- Node2&#45;&gt;Node3 -->
<g id="edge2" class="edge">
<title>Node2&#45;&gt;Node3</title>
<path fill="none" stroke="midnightblue" d="M279.84,-381.89C286.21,-379.08 292.42,-375.8 298,-372 318.32,-358.15 312.59,-342.08 334,-330 394.46,-295.88 474.3,-286.62 530.19,-284.81"/>
<polygon fill="midnightblue" stroke="midnightblue" points="530.43,-288.3 540.34,-284.55 530.25,-281.31 530.43,-288.3"/>
</g>
<!-- Node9 -->
<g id="node9" class="node">
<title>Node9</title>
<g id="a_node9"><a xlink:href="classFlightPhaseManager.html#a665ab1eb769c7879dc0529395d8fa9b1" target="_top" xlink:title=" ">
<polygon fill="none" stroke="black" points="351.5,-339 351.5,-369 467.5,-369 467.5,-339 351.5,-339"/>
<text text-anchor="start" x="359.5" y="-357" font-family="Helvetica,sans-Serif" font-size="10.00">FlightPhaseManager</text>
<text text-anchor="middle" x="409.5" y="-346" font-family="Helvetica,sans-Serif" font-size="10.00">::forceRecovery</text>
</a>
</g>
</g>
<!-- Node2&#45;&gt;Node9 -->
<g id="edge11" class="edge">
<title>Node2&#45;&gt;Node9</title>
<path fill="none" stroke="midnightblue" d="M283.24,-383.51C301.76,-379.15 322.45,-374.27 341.61,-369.76"/>
<polygon fill="midnightblue" stroke="midnightblue" points="342.53,-373.14 351.46,-367.44 340.92,-366.33 342.53,-373.14"/>
</g>
<!-- Node10 -->
<g id="node10" class="node">
<title>Node10</title>
<g id="a_node10"><a xlink:href="classFlightPhaseManager.html#a85ff07e3141863f505d562e7672d995f" target="_top" xlink:title=" ">
<polygon fill="none" stroke="black" points="540.5,-386 540.5,-416 656.5,-416 656.5,-386 540.5,-386"/>
<text text-anchor="start" x="548.5" y="-404" font-family="Helvetica,sans-Serif" font-size="10.00">FlightPhaseManager</text>
<text text-anchor="middle" x="598.5" y="-393" font-family="Helvetica,sans-Serif" font-size="10.00">::setFlightPhase</text>
</a>
</g>
</g>
<!-- Node2&#45;&gt;Node10 -->
<g id="edge27" class="edge">
<title>Node2&#45;&gt;Node10</title>
<path fill="none" stroke="midnightblue" d="M283.23,-397.62C349.77,-398.33 459.47,-399.51 530.08,-400.27"/>
<polygon fill="midnightblue" stroke="midnightblue" points="530.17,-403.78 540.2,-400.38 530.24,-396.78 530.17,-403.78"/>
</g>
<!-- Node14 -->
<g id="node14" class="node">
<title>Node14</title>
<g id="a_node14"><a xlink:href="namespaceutil.html#a8e9635f6a41c035d331ddaeb62259ba6" target="_top" xlink:title="Converts a flight phase to a string.">
<polygon fill="none" stroke="black" points="743.5,-478.5 743.5,-497.5 824.5,-497.5 824.5,-478.5 743.5,-478.5"/>
<text text-anchor="middle" x="784" y="-485.5" font-family="Helvetica,sans-Serif" font-size="10.00">util::to_string</text>
</a>
</g>
</g>
<!-- Node2&#45;&gt;Node14 -->
<g id="edge28" class="edge">
<title>Node2&#45;&gt;Node14</title>
<path fill="none" stroke="midnightblue" d="M242.84,-412.06C262.92,-428.96 298.26,-455.52 334,-467 473.08,-511.69 648.83,-502.25 733.27,-493.95"/>
<polygon fill="midnightblue" stroke="midnightblue" points="733.75,-497.42 743.35,-492.92 733.04,-490.45 733.75,-497.42"/>
</g>
<!-- Node15 -->
<g id="node15" class="node">
<title>Node15</title>
<g id="a_node15"><a xlink:href="classFlightPhaseManager.html#aaf8eab144ba58f98f7fde9038752ebba" target="_top" xlink:title=" ">
<polygon fill="none" stroke="black" points="334,-427 334,-457 485,-457 485,-427 334,-427"/>
<text text-anchor="start" x="342" y="-445" font-family="Helvetica,sans-Serif" font-size="10.00">FlightPhaseManager</text>
<text text-anchor="middle" x="409.5" y="-434" font-family="Helvetica,sans-Serif" font-size="10.00">::reportPhaseChangeInvalid</text>
</a>
</g>
</g>
<!-- Node2&#45;&gt;Node15 -->
<g id="edge21" class="edge">
<title>Node2&#45;&gt;Node15</title>
<path fill="none" stroke="midnightblue" d="M283.24,-411.11C300.44,-415.36 319.52,-420.06 337.5,-424.49"/>
<polygon fill="midnightblue" stroke="midnightblue" points="336.81,-427.93 347.35,-426.92 338.48,-421.13 336.81,-427.93"/>
</g>
<!-- Node4 -->
<g id="node4" class="node">
<title>Node4</title>
<g id="a_node4"><a xlink:href="classdata_1_1LogStream.html#a18af3025ca8f1e60e5bd795f10b6c8b1" target="_top" xlink:title=" ">
<polygon fill="none" stroke="black" points="721,-276.5 721,-295.5 847,-295.5 847,-276.5 721,-276.5"/>
<text text-anchor="middle" x="784" y="-283.5" font-family="Helvetica,sans-Serif" font-size="10.00">data::LogStream::error</text>
</a>
</g>
</g>
<!-- Node3&#45;&gt;Node4 -->
<g id="edge3" class="edge">
<title>Node3&#45;&gt;Node4</title>
<path fill="none" stroke="midnightblue" d="M656.55,-286C673.7,-286 692.73,-286 710.72,-286"/>
<polygon fill="midnightblue" stroke="midnightblue" points="710.88,-289.5 720.88,-286 710.88,-282.5 710.88,-289.5"/>
</g>
<!-- Node8 -->
<g id="node8" class="node">
<title>Node8</title>
<g id="a_node8"><a xlink:href="classgiraffe_1_1Logger.html#af8465c2895fd50680183e36e093e66e3" target="_top" xlink:title=" ">
<polygon fill="none" stroke="black" points="728,-238.5 728,-257.5 840,-257.5 840,-238.5 728,-238.5"/>
<text text-anchor="middle" x="784" y="-245.5" font-family="Helvetica,sans-Serif" font-size="10.00">giraffe::Logger::info</text>
</a>
</g>
</g>
<!-- Node3&#45;&gt;Node8 -->
<g id="edge9" class="edge">
<title>Node3&#45;&gt;Node8</title>
<path fill="none" stroke="midnightblue" d="M645.8,-276.41C670.46,-271.31 700.96,-264.99 726.94,-259.61"/>
<polygon fill="midnightblue" stroke="midnightblue" points="727.95,-262.98 737.03,-257.52 726.53,-256.12 727.95,-262.98"/>
</g>
<!-- Node5 -->
<g id="node5" class="node">
<title>Node5</title>
<g id="a_node5"><a xlink:href="classdata_1_1Stream.html#a1ff9a93190dbecdc2ffa27deaaa4266a" target="_top" xlink:title=" ">
<polygon fill="none" stroke="black" points="1078,-323 1078,-353 1218,-353 1218,-323 1078,-323"/>
<text text-anchor="start" x="1086" y="-341" font-family="Helvetica,sans-Serif" font-size="10.00">data::Stream&lt; LogPacket</text>
<text text-anchor="middle" x="1148" y="-330" font-family="Helvetica,sans-Serif" font-size="10.00"> &gt;::addPacket</text>
</a>
</g>
</g>
<!-- Node4&#45;&gt;Node5 -->
<g id="edge4" class="edge">
<title>Node4&#45;&gt;Node5</title>
<path fill="none" stroke="midnightblue" d="M847.07,-290.73C899.3,-295.19 975.83,-302.87 1042,-314 1053.27,-315.89 1065.14,-318.25 1076.68,-320.74"/>
<polygon fill="midnightblue" stroke="midnightblue" points="1076.2,-324.22 1086.72,-322.96 1077.71,-317.39 1076.2,-324.22"/>
</g>
<!-- Node6 -->
<g id="node6" class="node">
<title>Node6</title>
<g id="a_node6"><a xlink:href="classdata_1_1LogStream.html#a02c18d6e5c9697b4943ba9fb630ca0c9" target="_top" xlink:title=" ">
<polygon fill="none" stroke="black" points="906,-247.5 906,-266.5 1028,-266.5 1028,-247.5 906,-247.5"/>
<text text-anchor="middle" x="967" y="-254.5" font-family="Helvetica,sans-Serif" font-size="10.00">data::LogStream::info</text>
</a>
</g>
</g>
<!-- Node4&#45;&gt;Node6 -->
<g id="edge5" class="edge">
<title>Node4&#45;&gt;Node6</title>
<path fill="none" stroke="midnightblue" d="M844.52,-276.46C861.14,-273.8 879.35,-270.88 896.5,-268.14"/>
<polygon fill="midnightblue" stroke="midnightblue" points="897.13,-271.58 906.45,-266.54 896.02,-264.67 897.13,-271.58"/>
</g>
<!-- Node7 -->
<g id="node7" class="node">
<title>Node7</title>
<g id="a_node7"><a xlink:href="structdata_1_1BaseStreamPacket.html#a140b2f54f93715d9229e1847bc1219b2" target="_top" xlink:title=" ">
<polygon fill="none" stroke="black" points="1080.5,-242 1080.5,-272 1215.5,-272 1215.5,-242 1080.5,-242"/>
<text text-anchor="start" x="1088.5" y="-260" font-family="Helvetica,sans-Serif" font-size="10.00">data::BaseStreamPacket</text>
<text text-anchor="middle" x="1148" y="-249" font-family="Helvetica,sans-Serif" font-size="10.00">::resetTime</text>
</a>
</g>
</g>
<!-- Node4&#45;&gt;Node7 -->
<g id="edge8" class="edge">
<title>Node4&#45;&gt;Node7</title>
<path fill="none" stroke="midnightblue" d="M831.87,-276.44C840.13,-273.92 848.49,-270.81 856,-267 874.32,-257.7 872.62,-244.83 892,-238 956.31,-215.32 1035.25,-226.7 1088.11,-239.43"/>
<polygon fill="midnightblue" stroke="midnightblue" points="1087.44,-242.87 1097.99,-241.9 1089.14,-236.08 1087.44,-242.87"/>
</g>
<!-- Node6&#45;&gt;Node5 -->
<g id="edge6" class="edge">
<title>Node6&#45;&gt;Node5</title>
<path fill="none" stroke="midnightblue" d="M1002,-266.59C1014.74,-270.56 1029.22,-275.51 1042,-281 1066.63,-291.57 1093.14,-305.99 1113.37,-317.68"/>
<polygon fill="midnightblue" stroke="midnightblue" points="1111.79,-320.81 1122.19,-322.84 1115.32,-314.77 1111.79,-320.81"/>
</g>
<!-- Node6&#45;&gt;Node7 -->
<g id="edge7" class="edge">
<title>Node6&#45;&gt;Node7</title>
<path fill="none" stroke="midnightblue" d="M1028.1,-257C1041.59,-257 1056.07,-257 1070.14,-257"/>
<polygon fill="midnightblue" stroke="midnightblue" points="1070.28,-260.5 1080.28,-257 1070.28,-253.5 1070.28,-260.5"/>
</g>
<!-- Node8&#45;&gt;Node6 -->
<g id="edge10" class="edge">
<title>Node8&#45;&gt;Node6</title>
<path fill="none" stroke="midnightblue" d="M840.29,-250.75C857.75,-251.62 877.27,-252.59 895.63,-253.5"/>
<polygon fill="midnightblue" stroke="midnightblue" points="895.53,-257 905.69,-254 895.88,-250.01 895.53,-257"/>
</g>
<!-- Node9&#45;&gt;Node3 -->
<g id="edge12" class="edge">
<title>Node9&#45;&gt;Node3</title>
<path fill="none" stroke="midnightblue" d="M441.9,-338.82C463.74,-328.64 493.72,-315.43 521,-306 529.11,-303.2 537.83,-300.57 546.36,-298.2"/>
<polygon fill="midnightblue" stroke="midnightblue" points="547.51,-301.52 556.26,-295.54 545.69,-294.76 547.51,-301.52"/>
</g>
<!-- Node9&#45;&gt;Node10 -->
<g id="edge13" class="edge">
<title>Node9&#45;&gt;Node10</title>
<path fill="none" stroke="midnightblue" d="M467.62,-368.36C487.47,-373.34 509.9,-378.98 530.48,-384.15"/>
<polygon fill="midnightblue" stroke="midnightblue" points="529.85,-387.61 540.41,-386.65 531.56,-380.82 529.85,-387.61"/>
</g>
<!-- Node11 -->
<g id="node11" class="node">
<title>Node11</title>
<g id="a_node11"><a xlink:href="classdata_1_1CommandStream.html#aeacbc84ac96a098ef5836fcbd5187be8" target="_top" xlink:title=" ">
<polygon fill="none" stroke="black" points="902,-422 902,-452 1032,-452 1032,-422 902,-422"/>
<text text-anchor="start" x="910" y="-440" font-family="Helvetica,sans-Serif" font-size="10.00">data::CommandStream</text>
<text text-anchor="middle" x="967" y="-429" font-family="Helvetica,sans-Serif" font-size="10.00">::addCommand</text>
</a>
</g>
</g>
<!-- Node10&#45;&gt;Node11 -->
<g id="edge14" class="edge">
<title>Node10&#45;&gt;Node11</title>
<path fill="none" stroke="midnightblue" d="M646.06,-416.07C666.12,-421.87 689.99,-427.85 712,-431 772.05,-439.59 840.88,-440.68 891.73,-439.85"/>
<polygon fill="midnightblue" stroke="midnightblue" points="892.05,-443.35 901.98,-439.66 891.91,-436.35 892.05,-443.35"/>
</g>
<!-- Node12 -->
<g id="node12" class="node">
<title>Node12</title>
<g id="a_node12"><a xlink:href="classdata_1_1DataStream.html#a0eef16fa96084fe72dcc3f3ef8cf0bac" target="_top" xlink:title=" ">
<polygon fill="none" stroke="black" points="892,-361.5 892,-380.5 1042,-380.5 1042,-361.5 892,-361.5"/>
<text text-anchor="middle" x="967" y="-368.5" font-family="Helvetica,sans-Serif" font-size="10.00">data::DataStream::addData</text>
</a>
</g>
</g>
<!-- Node10&#45;&gt;Node12 -->
<g id="edge16" class="edge">
<title>Node10&#45;&gt;Node12</title>
<path fill="none" stroke="midnightblue" d="M656.54,-389.96C674.25,-386.91 693.88,-383.92 712,-382 768.46,-376.03 832.32,-373.28 881.88,-372.03"/>
<polygon fill="midnightblue" stroke="midnightblue" points="881.99,-375.53 891.91,-371.79 881.83,-368.53 881.99,-375.53"/>
</g>
<!-- Node13 -->
<g id="node13" class="node">
<title>Node13</title>
<g id="a_node13"><a xlink:href="classdata_1_1FlightData.html#aab39bdf65e13f5c215e7871dae587233" target="_top" xlink:title=" ">
<polygon fill="none" stroke="black" points="712,-391 712,-421 856,-421 856,-391 712,-391"/>
<text text-anchor="start" x="720" y="-409" font-family="Helvetica,sans-Serif" font-size="10.00">data::FlightData::setFlight</text>
<text text-anchor="middle" x="784" y="-398" font-family="Helvetica,sans-Serif" font-size="10.00">Phase</text>
</a>
</g>
</g>
<!-- Node10&#45;&gt;Node13 -->
<g id="edge19" class="edge">
<title>Node10&#45;&gt;Node13</title>
<path fill="none" stroke="midnightblue" d="M656.55,-402.55C670.74,-402.94 686.23,-403.36 701.35,-403.78"/>
<polygon fill="midnightblue" stroke="midnightblue" points="701.65,-407.28 711.74,-404.06 701.84,-400.29 701.65,-407.28"/>
</g>
<!-- Node10&#45;&gt;Node14 -->
<g id="edge20" class="edge">
<title>Node10&#45;&gt;Node14</title>
<path fill="none" stroke="midnightblue" d="M640.29,-416.03C652.16,-421.08 664.91,-427.18 676,-434 693.74,-444.9 693.83,-453.83 712,-464 719.59,-468.25 728.06,-471.91 736.42,-475.01"/>
<polygon fill="midnightblue" stroke="midnightblue" points="735.55,-478.41 746.14,-478.39 737.85,-471.8 735.55,-478.41"/>
</g>
<!-- Node11&#45;&gt;Node5 -->
<g id="edge15" class="edge">
<title>Node11&#45;&gt;Node5</title>
<path fill="none" stroke="midnightblue" d="M995.19,-421.96C1026.03,-404.91 1076.47,-377.01 1110.67,-358.09"/>
<polygon fill="midnightblue" stroke="midnightblue" points="1112.79,-360.92 1119.85,-353.01 1109.41,-354.79 1112.79,-360.92"/>
</g>
<!-- Node12&#45;&gt;Node5 -->
<g id="edge17" class="edge">
<title>Node12&#45;&gt;Node5</title>
<path fill="none" stroke="midnightblue" d="M1019.77,-361.46C1034.74,-358.7 1051.42,-355.62 1067.66,-352.63"/>
<polygon fill="midnightblue" stroke="midnightblue" points="1068.49,-356.03 1077.69,-350.78 1067.22,-349.15 1068.49,-356.03"/>
</g>
<!-- Node12&#45;&gt;Node7 -->
<g id="edge18" class="edge">
<title>Node12&#45;&gt;Node7</title>
<path fill="none" stroke="midnightblue" d="M1020.43,-361.49C1027.95,-359.01 1035.37,-355.9 1042,-352 1062.05,-340.2 1061,-329.88 1078,-314 1091.13,-301.73 1106.48,-288.91 1119.37,-278.55"/>
<polygon fill="midnightblue" stroke="midnightblue" points="1121.79,-281.09 1127.43,-272.12 1117.43,-275.62 1121.79,-281.09"/>
</g>
<!-- Node15&#45;&gt;Node14 -->
<g id="edge26" class="edge">
<title>Node15&#45;&gt;Node14</title>
<path fill="none" stroke="midnightblue" d="M485.23,-450.26C538.46,-456.26 611.67,-464.74 676,-473 694.75,-475.41 715.32,-478.25 733.37,-480.8"/>
<polygon fill="midnightblue" stroke="midnightblue" points="733,-484.28 743.39,-482.23 733.99,-477.35 733,-484.28"/>
</g>
<!-- Node16 -->
<g id="node16" class="node">
<title>Node16</title>
<g id="a_node16"><a xlink:href="classdata_1_1ErrorReporter.html#a3358515a710ff6876c2a41dd84413738" target="_top" xlink:title=" ">
<polygon fill="none" stroke="black" points="543.5,-315 543.5,-345 653.5,-345 653.5,-315 543.5,-315"/>
<text text-anchor="start" x="551.5" y="-333" font-family="Helvetica,sans-Serif" font-size="10.00">data::ErrorReporter</text>
<text text-anchor="middle" x="598.5" y="-322" font-family="Helvetica,sans-Serif" font-size="10.00">::reportError</text>
</a>
</g>
</g>
<!-- Node15&#45;&gt;Node16 -->
<g id="edge22" class="edge">
<title>Node15&#45;&gt;Node16</title>
<path fill="none" stroke="midnightblue" d="M435.72,-426.9C468.71,-407.13 526.65,-372.43 563.5,-350.37"/>
<polygon fill="midnightblue" stroke="midnightblue" points="565.6,-353.18 572.38,-345.04 562,-347.18 565.6,-353.18"/>
</g>
<!-- Node16&#45;&gt;Node4 -->
<g id="edge23" class="edge">
<title>Node16&#45;&gt;Node4</title>
<path fill="none" stroke="midnightblue" d="M653.56,-317.04C678.84,-310.98 708.73,-303.81 733.41,-297.89"/>
<polygon fill="midnightblue" stroke="midnightblue" points="734.39,-301.26 743.3,-295.52 732.76,-294.45 734.39,-301.26"/>
</g>
<!-- Node17 -->
<g id="node17" class="node">
<title>Node17</title>
<g id="a_node17"><a xlink:href="classdata_1_1ErrorFrame.html#a22f1f4d05d659df20e4cba62fda5846b" target="_top" xlink:title="Returns true if the error is active in the frame.">
<polygon fill="none" stroke="black" points="712.5,-314.5 712.5,-333.5 855.5,-333.5 855.5,-314.5 712.5,-314.5"/>
<text text-anchor="middle" x="784" y="-321.5" font-family="Helvetica,sans-Serif" font-size="10.00">data::ErrorFrame::isActive</text>
</a>
</g>
</g>
<!-- Node16&#45;&gt;Node17 -->
<g id="edge24" class="edge">
<title>Node16&#45;&gt;Node17</title>
<path fill="none" stroke="midnightblue" d="M653.56,-328.23C668.8,-327.73 685.71,-327.18 702.15,-326.64"/>
<polygon fill="midnightblue" stroke="midnightblue" points="702.42,-330.14 712.3,-326.31 702.19,-323.14 702.42,-330.14"/>
</g>
<!-- Node18 -->
<g id="node18" class="node">
<title>Node18</title>
<g id="a_node18"><a xlink:href="classdata_1_1Frame.html#a05fa938229ef8080c2d5336f245d8763" target="_top" xlink:title="Returns true if an item is in the frame, false if it is not.">
<polygon fill="none" stroke="black" points="922,-323.5 922,-342.5 1012,-342.5 1012,-323.5 922,-323.5"/>
<text text-anchor="middle" x="967" y="-330.5" font-family="Helvetica,sans-Serif" font-size="10.00">data::Frame::in</text>
</a>
</g>
</g>
<!-- Node17&#45;&gt;Node18 -->
<g id="edge25" class="edge">
<title>Node17&#45;&gt;Node18</title>
<path fill="none" stroke="midnightblue" d="M855.76,-327.52C874.41,-328.45 894.23,-329.43 911.85,-330.31"/>
<polygon fill="midnightblue" stroke="midnightblue" points="911.78,-333.81 921.94,-330.81 912.13,-326.82 911.78,-333.81"/>
</g>
<!-- Node23 -->
<g id="node23" class="node">
<title>Node23</title>
<g id="a_node23"><a xlink:href="classFlightPhasePredictor.html#a67c51546dbc5964234cd0a4f654693eb" target="_top" xlink:title="Using the probabilities, determine the current flight phase.">
<polygon fill="none" stroke="black" points="351,-230 351,-260 468,-260 468,-230 351,-230"/>
<text text-anchor="start" x="359" y="-248" font-family="Helvetica,sans-Serif" font-size="10.00">FlightPhasePredictor</text>
<text text-anchor="middle" x="409.5" y="-237" font-family="Helvetica,sans-Serif" font-size="10.00">::predictFlightPhase</text>
</a>
</g>
</g>
<!-- Node22&#45;&gt;Node23 -->
<g id="edge33" class="edge">
<title>Node22&#45;&gt;Node23</title>
<path fill="none" stroke="midnightblue" d="M283.74,-213.55C301.97,-218.15 322.28,-223.27 341.12,-228.02"/>
<polygon fill="midnightblue" stroke="midnightblue" points="340.27,-231.41 350.82,-230.46 341.98,-224.62 340.27,-231.41"/>
</g>
<!-- Node24 -->
<g id="node24" class="node">
<title>Node24</title>
<g id="a_node24"><a xlink:href="classFlightPhasePredictor.html#a279cdca168c55a7a87984270930e773c" target="_top" xlink:title="Process all rule sets of every phase and calculate the probabilities.">
<polygon fill="none" stroke="black" points="351,-181 351,-211 468,-211 468,-181 351,-181"/>
<text text-anchor="start" x="359" y="-199" font-family="Helvetica,sans-Serif" font-size="10.00">FlightPhasePredictor</text>
<text text-anchor="middle" x="409.5" y="-188" font-family="Helvetica,sans-Serif" font-size="10.00">::processAllRules</text>
</a>
</g>
</g>
<!-- Node22&#45;&gt;Node24 -->
<g id="edge34" class="edge">
<title>Node22&#45;&gt;Node24</title>
<path fill="none" stroke="midnightblue" d="M283.74,-198.05C301.81,-197.75 321.9,-197.42 340.6,-197.12"/>
<polygon fill="midnightblue" stroke="midnightblue" points="340.88,-200.61 350.82,-196.95 340.76,-193.61 340.88,-200.61"/>
</g>
<!-- Node29 -->
<g id="node29" class="node">
<title>Node29</title>
<g id="a_node29"><a xlink:href="classPredictionParameters.html#a653d146841619901d7634f36420ff82c" target="_top" xlink:title="Updates all of the parameters.">
<polygon fill="none" stroke="black" points="349,-88 349,-118 470,-118 470,-88 349,-88"/>
<text text-anchor="start" x="357" y="-106" font-family="Helvetica,sans-Serif" font-size="10.00">PredictionParameters</text>
<text text-anchor="middle" x="409.5" y="-95" font-family="Helvetica,sans-Serif" font-size="10.00">::updateParameters</text>
</a>
</g>
</g>
<!-- Node22&#45;&gt;Node29 -->
<g id="edge39" class="edge">
<title>Node22&#45;&gt;Node29</title>
<path fill="none" stroke="midnightblue" d="M254.92,-183.79C286.15,-167.36 336.06,-141.11 370.45,-123.01"/>
<polygon fill="midnightblue" stroke="midnightblue" points="372.5,-125.89 379.72,-118.14 369.24,-119.7 372.5,-125.89"/>
</g>
<!-- Node25 -->
<g id="node25" class="node">
<title>Node25</title>
<g id="a_node25"><a xlink:href="prediction__model_8cpp.html#ab8ef2fff1f82ac60205ea16e5537774a" target="_top" xlink:title="A function to get the entire rules map.">
<polygon fill="none" stroke="black" points="538.5,-186.5 538.5,-205.5 658.5,-205.5 658.5,-186.5 538.5,-186.5"/>
<text text-anchor="middle" x="598.5" y="-193.5" font-family="Helvetica,sans-Serif" font-size="10.00">getPhaseRuleSetMap</text>
</a>
</g>
</g>
<!-- Node24&#45;&gt;Node25 -->
<g id="edge35" class="edge">
<title>Node24&#45;&gt;Node25</title>
<path fill="none" stroke="midnightblue" d="M468.13,-196C487.14,-196 508.48,-196 528.26,-196"/>
<polygon fill="midnightblue" stroke="midnightblue" points="528.44,-199.5 538.44,-196 528.44,-192.5 528.44,-199.5"/>
</g>
<!-- Node26 -->
<g id="node26" class="node">
<title>Node26</title>
<g id="a_node26"><a xlink:href="classFlightPhasePredictor.html#a0e7d6889689ccc30275b9be9b60db30a" target="_top" xlink:title="Get the probability points from a rule set.">
<polygon fill="none" stroke="black" points="533,-225 533,-255 664,-255 664,-225 533,-225"/>
<text text-anchor="start" x="541" y="-243" font-family="Helvetica,sans-Serif" font-size="10.00">FlightPhasePredictor</text>
<text text-anchor="middle" x="598.5" y="-232" font-family="Helvetica,sans-Serif" font-size="10.00">::getPointsFromRuleSet</text>
</a>
</g>
</g>
<!-- Node24&#45;&gt;Node26 -->
<g id="edge36" class="edge">
<title>Node24&#45;&gt;Node26</title>
<path fill="none" stroke="midnightblue" d="M468.13,-209.56C485.69,-213.69 505.23,-218.29 523.7,-222.64"/>
<polygon fill="midnightblue" stroke="midnightblue" points="523,-226.07 533.54,-224.95 524.61,-219.25 523,-226.07"/>
</g>
<!-- Node27 -->
<g id="node27" class="node">
<title>Node27</title>
<g id="a_node27"><a xlink:href="classFlightPhasePredictor.html#a4e55b025bca64f4116b1518669d10233" target="_top" xlink:title="Get the probability points from a rule.">
<polygon fill="none" stroke="black" points="725.5,-170 725.5,-200 842.5,-200 842.5,-170 725.5,-170"/>
<text text-anchor="start" x="733.5" y="-188" font-family="Helvetica,sans-Serif" font-size="10.00">FlightPhasePredictor</text>
<text text-anchor="middle" x="784" y="-177" font-family="Helvetica,sans-Serif" font-size="10.00">::getPointsFromRule</text>
</a>
</g>
</g>
<!-- Node26&#45;&gt;Node27 -->
<g id="edge37" class="edge">
<title>Node26&#45;&gt;Node27</title>
<path fill="none" stroke="midnightblue" d="M649.64,-224.97C672.4,-218.15 699.49,-210.03 723.29,-202.9"/>
<polygon fill="midnightblue" stroke="midnightblue" points="724.34,-206.23 732.92,-200.01 722.33,-199.53 724.34,-206.23"/>
</g>
<!-- Node28 -->
<g id="node28" class="node">
<title>Node28</title>
<g id="a_node28"><a xlink:href="classPredictionParameters.html#af92ad5644fdbd46359ca3771cd9f6453" target="_top" xlink:title="Get a parameter by its ID.">
<polygon fill="none" stroke="black" points="906.5,-160 906.5,-190 1027.5,-190 1027.5,-160 906.5,-160"/>
<text text-anchor="start" x="914.5" y="-178" font-family="Helvetica,sans-Serif" font-size="10.00">PredictionParameters</text>
<text text-anchor="middle" x="967" y="-167" font-family="Helvetica,sans-Serif" font-size="10.00">::getParameter</text>
</a>
</g>
</g>
<!-- Node27&#45;&gt;Node28 -->
<g id="edge38" class="edge">
<title>Node27&#45;&gt;Node28</title>
<path fill="none" stroke="midnightblue" d="M842.77,-181.81C859.72,-180.87 878.44,-179.84 896.06,-178.86"/>
<polygon fill="midnightblue" stroke="midnightblue" points="896.5,-182.35 906.29,-178.3 896.11,-175.36 896.5,-182.35"/>
</g>
<!-- Node30 -->
<g id="node30" class="node">
<title>Node30</title>
<g id="a_node30"><a xlink:href="classdata_1_1blocks_1_1Block.html#a2237ade9275911c4fd9d0d264accfa7b" target="_top" xlink:title=" ">
<polygon fill="none" stroke="black" points="533,-0.5 533,-19.5 664,-19.5 664,-0.5 533,-0.5"/>
<text text-anchor="middle" x="598.5" y="-7.5" font-family="Helvetica,sans-Serif" font-size="10.00">data::blocks::Block::get</text>
</a>
</g>
</g>
<!-- Node29&#45;&gt;Node30 -->
<g id="edge40" class="edge">
<title>Node29&#45;&gt;Node30</title>
<path fill="none" stroke="midnightblue" d="M428.87,-87.75C449.9,-71.02 485.95,-44.51 521,-29 526.45,-26.59 532.26,-24.44 538.15,-22.55"/>
<polygon fill="midnightblue" stroke="midnightblue" points="539.5,-25.8 548.09,-19.6 537.51,-19.09 539.5,-25.8"/>
</g>
<!-- Node31 -->
<g id="node31" class="node">
<title>Node31</title>
<g id="a_node31"><a xlink:href="classdata_1_1FlightData.html#a7a9f92a351f196a88523a992af33bdc6" target="_top" xlink:title="Get the mission clock time in seconds. May be negative or positive. A negative value is in the future...">
<polygon fill="none" stroke="black" points="521,-137 521,-167 676,-167 676,-137 521,-137"/>
<text text-anchor="start" x="529" y="-155" font-family="Helvetica,sans-Serif" font-size="10.00">data::FlightData::getMission</text>
<text text-anchor="middle" x="598.5" y="-144" font-family="Helvetica,sans-Serif" font-size="10.00">ClockSeconds</text>
</a>
</g>
</g>
<!-- Node29&#45;&gt;Node31 -->
<g id="edge41" class="edge">
<title>Node29&#45;&gt;Node31</title>
<path fill="none" stroke="midnightblue" d="M467.88,-118.03C487.62,-123.21 509.91,-129.05 530.36,-134.41"/>
<polygon fill="midnightblue" stroke="midnightblue" points="529.67,-137.84 540.23,-136.99 531.45,-131.07 529.67,-137.84"/>
</g>
<!-- Node32 -->
<g id="node32" class="node">
<title>Node32</title>
<g id="a_node32"><a xlink:href="classdata_1_1FlightData.html#a768e08b7bfbc117f31838a9220e18ada" target="_top" xlink:title="The number of seconds since the flight runner was started.">
<polygon fill="none" stroke="black" points="522,-88 522,-118 675,-118 675,-88 522,-88"/>
<text text-anchor="start" x="530" y="-106" font-family="Helvetica,sans-Serif" font-size="10.00">data::FlightData::getUptime</text>
<text text-anchor="middle" x="598.5" y="-95" font-family="Helvetica,sans-Serif" font-size="10.00">Seconds</text>
</a>
</g>
</g>
<!-- Node29&#45;&gt;Node32 -->
<g id="edge42" class="edge">
<title>Node29&#45;&gt;Node32</title>
<path fill="none" stroke="midnightblue" d="M470.18,-103C483.43,-103 497.72,-103 511.78,-103"/>
<polygon fill="midnightblue" stroke="midnightblue" points="511.95,-106.5 521.95,-103 511.95,-99.5 511.95,-106.5"/>
</g>
<!-- Node33 -->
<g id="node33" class="node">
<title>Node33</title>
<g id="a_node33"><a xlink:href="classPredictionParameters.html#ade567365801b428c507ec91ee05c89e0" target="_top" xlink:title="Validates, filters, and updates a parameter&#39;s value.">
<polygon fill="none" stroke="black" points="538,-39 538,-69 659,-69 659,-39 538,-39"/>
<text text-anchor="start" x="546" y="-57" font-family="Helvetica,sans-Serif" font-size="10.00">PredictionParameters</text>
<text text-anchor="middle" x="598.5" y="-46" font-family="Helvetica,sans-Serif" font-size="10.00">::updateParameter</text>
</a>
</g>
</g>
<!-- Node29&#45;&gt;Node33 -->
<g id="edge43" class="edge">
<title>Node29&#45;&gt;Node33</title>
<path fill="none" stroke="midnightblue" d="M467.88,-87.97C487.62,-82.79 509.91,-76.95 530.36,-71.59"/>
<polygon fill="midnightblue" stroke="midnightblue" points="531.45,-74.93 540.23,-69.01 529.67,-68.16 531.45,-74.93"/>
</g>
<!-- Node34 -->
<g id="node34" class="node">
<title>Node34</title>
<g id="a_node34"><a xlink:href="classPredictionParameters.html#a87733a1be1951e372c291dc4cb130ad4" target="_top" xlink:title="Applies a filter to a parameter. Does not update the parameter. or care if it&#39;s valid.">
<polygon fill="none" stroke="black" points="723.5,-14 723.5,-44 844.5,-44 844.5,-14 723.5,-14"/>
<text text-anchor="start" x="731.5" y="-32" font-family="Helvetica,sans-Serif" font-size="10.00">PredictionParameters</text>
<text text-anchor="middle" x="784" y="-21" font-family="Helvetica,sans-Serif" font-size="10.00">::applyInvalidFilter</text>
</a>
</g>
</g>
<!-- Node33&#45;&gt;Node34 -->
<g id="edge44" class="edge">
<title>Node33&#45;&gt;Node34</title>
<path fill="none" stroke="midnightblue" d="M659.08,-45.88C676.31,-43.54 695.28,-40.95 713.08,-38.53"/>
<polygon fill="midnightblue" stroke="midnightblue" points="713.97,-41.94 723.41,-37.12 713.03,-35 713.97,-41.94"/>
</g>
<!-- Node35 -->
<g id="node35" class="node">
<title>Node35</title>
<g id="a_node35"><a xlink:href="classPredictionParameters.html#aabfeefcd2cc0a9cb1e47510d62ffd0f8" target="_top" xlink:title="Validates a parameter.">
<polygon fill="none" stroke="black" points="723.5,-63 723.5,-93 844.5,-93 844.5,-63 723.5,-63"/>
<text text-anchor="start" x="731.5" y="-81" font-family="Helvetica,sans-Serif" font-size="10.00">PredictionParameters</text>
<text text-anchor="middle" x="784" y="-70" font-family="Helvetica,sans-Serif" font-size="10.00">::validateParameter</text>
</a>
</g>
</g>
<!-- Node33&#45;&gt;Node35 -->
<g id="edge45" class="edge">
<title>Node33&#45;&gt;Node35</title>
<path fill="none" stroke="midnightblue" d="M659.08,-61.79C676.31,-64.05 695.28,-66.53 713.08,-68.86"/>
<polygon fill="midnightblue" stroke="midnightblue" points="713.04,-72.38 723.41,-70.21 713.95,-65.44 713.04,-72.38"/>
</g>
</g>
</svg>
