<?xml version="1.0" encoding="UTF-8" standalone="no"?>
<!DOCTYPE svg PUBLIC "-//W3C//DTD SVG 1.1//EN"
 "http://www.w3.org/Graphics/SVG/1.1/DTD/svg11.dtd">
<!-- Generated by graphviz version 2.43.0 (0)
 -->
<!-- Title: gdl::PhysicalLayer Pages: 1 -->
<svg width="182pt" height="281pt"
 viewBox="0.00 0.00 182.00 281.00" xmlns="http://www.w3.org/2000/svg" xmlns:xlink="http://www.w3.org/1999/xlink">
<g id="graph0" class="graph" transform="scale(1 1) rotate(0) translate(4 277)">
<title>gdl::PhysicalLayer</title>
<!-- Node1 -->
<g id="node1" class="node">
<title>Node1</title>
<g id="a_node1"><a xlink:title=" ">
<polygon fill="#bfbfbf" stroke="black" points="25,-149.5 25,-272.5 149,-272.5 149,-149.5 25,-149.5"/>
<text text-anchor="middle" x="87" y="-260.5" font-family="Helvetica,sans-Serif" font-size="10.00">gdl::PhysicalLayer</text>
<polyline fill="none" stroke="black" points="25,-253.5 149,-253.5 "/>
<text text-anchor="start" x="33" y="-241.5" font-family="Helvetica,sans-Serif" font-size="10.00"># state_</text>
<polyline fill="none" stroke="black" points="25,-234.5 149,-234.5 "/>
<text text-anchor="start" x="33" y="-222.5" font-family="Helvetica,sans-Serif" font-size="10.00">+ ~PhysicalLayer()</text>
<text text-anchor="start" x="33" y="-211.5" font-family="Helvetica,sans-Serif" font-size="10.00">+ disable()</text>
<text text-anchor="start" x="33" y="-200.5" font-family="Helvetica,sans-Serif" font-size="10.00">+ enable()</text>
<text text-anchor="start" x="33" y="-189.5" font-family="Helvetica,sans-Serif" font-size="10.00">+ getBytesAvailable()</text>
<text text-anchor="start" x="33" y="-178.5" font-family="Helvetica,sans-Serif" font-size="10.00">+ getState()</text>
<text text-anchor="start" x="33" y="-167.5" font-family="Helvetica,sans-Serif" font-size="10.00">+ receiveBytes()</text>
<text text-anchor="start" x="33" y="-156.5" font-family="Helvetica,sans-Serif" font-size="10.00">+ transmitBytes()</text>
</a>
</g>
</g>
<!-- Node2 -->
<g id="node2" class="node">
<title>Node2</title>
<g id="a_node2"><a xlink:href="classgdl_1_1SimulatedLoopbackPhysicalLayer.html" target="_top" xlink:title="A simple simulated physical layer for testing.">
<polygon fill="none" stroke="black" points="0,-0.5 0,-112.5 174,-112.5 174,-0.5 0,-0.5"/>
<text text-anchor="start" x="8" y="-100.5" font-family="Helvetica,sans-Serif" font-size="10.00">gdl::SimulatedLoopbackPhysical</text>
<text text-anchor="middle" x="87" y="-89.5" font-family="Helvetica,sans-Serif" font-size="10.00">Layer</text>
<polyline fill="none" stroke="black" points="0,-82.5 174,-82.5 "/>
<text text-anchor="start" x="8" y="-70.5" font-family="Helvetica,sans-Serif" font-size="10.00">&#45; received_bytes_</text>
<polyline fill="none" stroke="black" points="0,-63.5 174,-63.5 "/>
<text text-anchor="start" x="8" y="-51.5" font-family="Helvetica,sans-Serif" font-size="10.00">+ disable()</text>
<text text-anchor="start" x="8" y="-40.5" font-family="Helvetica,sans-Serif" font-size="10.00">+ enable()</text>
<text text-anchor="start" x="8" y="-29.5" font-family="Helvetica,sans-Serif" font-size="10.00">+ getBytesAvailable()</text>
<text text-anchor="start" x="8" y="-18.5" font-family="Helvetica,sans-Serif" font-size="10.00">+ receiveBytes()</text>
<text text-anchor="start" x="8" y="-7.5" font-family="Helvetica,sans-Serif" font-size="10.00">+ transmitBytes()</text>
</a>
</g>
</g>
<!-- Node1&#45;&gt;Node2 -->
<g id="edge1" class="edge">
<title>Node1&#45;&gt;Node2</title>
<path fill="none" stroke="midnightblue" d="M87,-139.25C87,-130.29 87,-121.23 87,-112.56"/>
<polygon fill="none" stroke="midnightblue" points="83.5,-139.29 87,-149.29 90.5,-139.29 83.5,-139.29"/>
</g>
</g>
</svg>
