<?xml version="1.0" encoding="UTF-8" standalone="no"?>
<!DOCTYPE svg PUBLIC "-//W3C//DTD SVG 1.1//EN"
 "http://www.w3.org/Graphics/SVG/1.1/DTD/svg11.dtd">
<!-- Generated by graphviz version 2.43.0 (0)
 -->
<!-- Title: FlightRunner::setLaunchPosition Pages: 1 -->
<svg width="702pt" height="215pt"
 viewBox="0.00 0.00 702.00 214.50" xmlns="http://www.w3.org/2000/svg" xmlns:xlink="http://www.w3.org/1999/xlink">
<g id="graph0" class="graph" transform="scale(1 1) rotate(0) translate(4 210.5)">
<title>FlightRunner::setLaunchPosition</title>
<!-- Node1 -->
<g id="node1" class="node">
<title>Node1</title>
<g id="a_node1"><a xlink:title="Called when transitioning from pre&#45;launch to launch phase. Sets the launch position in shared data an...">
<polygon fill="#bfbfbf" stroke="black" points="0,-93.5 0,-112.5 173,-112.5 173,-93.5 0,-93.5"/>
<text text-anchor="middle" x="86.5" y="-100.5" font-family="Helvetica,sans-Serif" font-size="10.00">FlightRunner::setLaunchPosition</text>
</a>
</g>
</g>
<!-- Node2 -->
<g id="node2" class="node">
<title>Node2</title>
<g id="a_node2"><a xlink:href="classgiraffe_1_1FlightRunnerData.html#ad522ef22add361da8fd8dda6dda7930a" target="_top" xlink:title="Clears the launch position/set it to invalid.">
<polygon fill="none" stroke="black" points="214.5,-176 214.5,-206 354.5,-206 354.5,-176 214.5,-176"/>
<text text-anchor="start" x="222.5" y="-194" font-family="Helvetica,sans-Serif" font-size="10.00">giraffe::FlightRunnerData</text>
<text text-anchor="middle" x="284.5" y="-183" font-family="Helvetica,sans-Serif" font-size="10.00">::clearLaunchPosition</text>
</a>
</g>
</g>
<!-- Node1&#45;&gt;Node2 -->
<g id="edge1" class="edge">
<title>Node1&#45;&gt;Node2</title>
<path fill="none" stroke="midnightblue" d="M104.01,-112.61C127.02,-125.75 170.28,-149.58 209,-166 214.31,-168.25 219.9,-170.44 225.53,-172.53"/>
<polygon fill="midnightblue" stroke="midnightblue" points="224.41,-175.84 235,-175.94 226.78,-169.26 224.41,-175.84"/>
</g>
<!-- Node3 -->
<g id="node3" class="node">
<title>Node3</title>
<g id="a_node3"><a xlink:href="classdata_1_1LogStream.html#a18af3025ca8f1e60e5bd795f10b6c8b1" target="_top" xlink:title=" ">
<polygon fill="none" stroke="black" points="221.5,-137.5 221.5,-156.5 347.5,-156.5 347.5,-137.5 221.5,-137.5"/>
<text text-anchor="middle" x="284.5" y="-144.5" font-family="Helvetica,sans-Serif" font-size="10.00">data::LogStream::error</text>
</a>
</g>
</g>
<!-- Node1&#45;&gt;Node3 -->
<g id="edge2" class="edge">
<title>Node1&#45;&gt;Node3</title>
<path fill="none" stroke="midnightblue" d="M130.03,-112.55C159.69,-119.21 199.47,-128.14 231.1,-135.24"/>
<polygon fill="midnightblue" stroke="midnightblue" points="230.53,-138.7 241.05,-137.47 232.06,-131.87 230.53,-138.7"/>
</g>
<!-- Node7 -->
<g id="node7" class="node">
<title>Node7</title>
<g id="a_node7"><a xlink:href="classgiraffe_1_1FlightRunnerData.html#aec5ac065bece8131a74452bd55615b02" target="_top" xlink:title="Set the launch position. Called on the transition from pre&#45;launch to launch.">
<polygon fill="none" stroke="black" points="214.5,-88 214.5,-118 354.5,-118 354.5,-88 214.5,-88"/>
<text text-anchor="start" x="222.5" y="-106" font-family="Helvetica,sans-Serif" font-size="10.00">giraffe::FlightRunnerData</text>
<text text-anchor="middle" x="284.5" y="-95" font-family="Helvetica,sans-Serif" font-size="10.00">::setLaunchPosition</text>
</a>
</g>
</g>
<!-- Node1&#45;&gt;Node7 -->
<g id="edge8" class="edge">
<title>Node1&#45;&gt;Node7</title>
<path fill="none" stroke="midnightblue" d="M173.18,-103C183.54,-103 194.07,-103 204.33,-103"/>
<polygon fill="midnightblue" stroke="midnightblue" points="204.47,-106.5 214.47,-103 204.47,-99.5 204.47,-106.5"/>
</g>
<!-- Node8 -->
<g id="node8" class="node">
<title>Node8</title>
<g id="a_node8"><a xlink:href="classdata_1_1FlightData.html#af8689e42e3dcf4e6813bb608ed36a441" target="_top" xlink:title=" ">
<polygon fill="none" stroke="black" points="209,-39 209,-69 360,-69 360,-39 209,-39"/>
<text text-anchor="start" x="217" y="-57" font-family="Helvetica,sans-Serif" font-size="10.00">data::FlightData::setLaunch</text>
<text text-anchor="middle" x="284.5" y="-46" font-family="Helvetica,sans-Serif" font-size="10.00">Position</text>
</a>
</g>
</g>
<!-- Node1&#45;&gt;Node8 -->
<g id="edge9" class="edge">
<title>Node1&#45;&gt;Node8</title>
<path fill="none" stroke="midnightblue" d="M125.76,-93.44C150.68,-87.21 183.94,-78.89 213.49,-71.5"/>
<polygon fill="midnightblue" stroke="midnightblue" points="214.5,-74.86 223.35,-69.04 212.8,-68.07 214.5,-74.86"/>
</g>
<!-- Node9 -->
<g id="node9" class="node">
<title>Node9</title>
<g id="a_node9"><a xlink:href="namespaceutil.html#a8e9635f6a41c035d331ddaeb62259ba6" target="_top" xlink:title="Converts a flight phase to a string.">
<polygon fill="none" stroke="black" points="244,-0.5 244,-19.5 325,-19.5 325,-0.5 244,-0.5"/>
<text text-anchor="middle" x="284.5" y="-7.5" font-family="Helvetica,sans-Serif" font-size="10.00">util::to_string</text>
</a>
</g>
</g>
<!-- Node1&#45;&gt;Node9 -->
<g id="edge10" class="edge">
<title>Node1&#45;&gt;Node9</title>
<path fill="none" stroke="midnightblue" d="M100.29,-93.42C121.71,-77.81 166.66,-46.82 209,-29 216.87,-25.69 225.46,-22.84 233.92,-20.44"/>
<polygon fill="midnightblue" stroke="midnightblue" points="234.97,-23.78 243.73,-17.82 233.17,-17.02 234.97,-23.78"/>
</g>
<!-- Node4 -->
<g id="node4" class="node">
<title>Node4</title>
<g id="a_node4"><a xlink:href="classdata_1_1Stream.html#a1ff9a93190dbecdc2ffa27deaaa4266a" target="_top" xlink:title=" ">
<polygon fill="none" stroke="black" points="554,-163 554,-193 694,-193 694,-163 554,-163"/>
<text text-anchor="start" x="562" y="-181" font-family="Helvetica,sans-Serif" font-size="10.00">data::Stream&lt; LogPacket</text>
<text text-anchor="middle" x="624" y="-170" font-family="Helvetica,sans-Serif" font-size="10.00"> &gt;::addPacket</text>
</a>
</g>
</g>
<!-- Node3&#45;&gt;Node4 -->
<g id="edge3" class="edge">
<title>Node3&#45;&gt;Node4</title>
<path fill="none" stroke="midnightblue" d="M333.46,-156.51C352.81,-160.02 375.4,-163.69 396,-166 444.84,-171.47 499.87,-174.46 543.52,-176.08"/>
<polygon fill="midnightblue" stroke="midnightblue" points="543.67,-179.59 553.78,-176.45 543.92,-172.6 543.67,-179.59"/>
</g>
<!-- Node5 -->
<g id="node5" class="node">
<title>Node5</title>
<g id="a_node5"><a xlink:href="classdata_1_1LogStream.html#a02c18d6e5c9697b4943ba9fb630ca0c9" target="_top" xlink:title=" ">
<polygon fill="none" stroke="black" points="396,-137.5 396,-156.5 518,-156.5 518,-137.5 396,-137.5"/>
<text text-anchor="middle" x="457" y="-144.5" font-family="Helvetica,sans-Serif" font-size="10.00">data::LogStream::info</text>
</a>
</g>
</g>
<!-- Node3&#45;&gt;Node5 -->
<g id="edge4" class="edge">
<title>Node3&#45;&gt;Node5</title>
<path fill="none" stroke="midnightblue" d="M347.54,-147C359.93,-147 373.04,-147 385.69,-147"/>
<polygon fill="midnightblue" stroke="midnightblue" points="385.72,-150.5 395.72,-147 385.72,-143.5 385.72,-150.5"/>
</g>
<!-- Node6 -->
<g id="node6" class="node">
<title>Node6</title>
<g id="a_node6"><a xlink:href="structdata_1_1BaseStreamPacket.html#a140b2f54f93715d9229e1847bc1219b2" target="_top" xlink:title=" ">
<polygon fill="none" stroke="black" points="556.5,-107 556.5,-137 691.5,-137 691.5,-107 556.5,-107"/>
<text text-anchor="start" x="564.5" y="-125" font-family="Helvetica,sans-Serif" font-size="10.00">data::BaseStreamPacket</text>
<text text-anchor="middle" x="624" y="-114" font-family="Helvetica,sans-Serif" font-size="10.00">::resetTime</text>
</a>
</g>
</g>
<!-- Node3&#45;&gt;Node6 -->
<g id="edge7" class="edge">
<title>Node3&#45;&gt;Node6</title>
<path fill="none" stroke="midnightblue" d="M332.07,-137.46C351.72,-133.84 374.89,-130.08 396,-128 445.86,-123.08 502.17,-121.57 546.23,-121.29"/>
<polygon fill="midnightblue" stroke="midnightblue" points="546.31,-124.79 556.29,-121.25 546.28,-117.79 546.31,-124.79"/>
</g>
<!-- Node5&#45;&gt;Node4 -->
<g id="edge5" class="edge">
<title>Node5&#45;&gt;Node4</title>
<path fill="none" stroke="midnightblue" d="M508.85,-156.55C519.95,-158.64 531.94,-160.89 543.85,-163.13"/>
<polygon fill="midnightblue" stroke="midnightblue" points="543.33,-166.59 553.8,-165 544.62,-159.71 543.33,-166.59"/>
</g>
<!-- Node5&#45;&gt;Node6 -->
<g id="edge6" class="edge">
<title>Node5&#45;&gt;Node6</title>
<path fill="none" stroke="midnightblue" d="M518.04,-137.9C527.17,-136.52 536.7,-135.08 546.14,-133.65"/>
<polygon fill="midnightblue" stroke="midnightblue" points="546.95,-137.06 556.31,-132.1 545.9,-130.14 546.95,-137.06"/>
</g>
</g>
</svg>
