<?xml version="1.0" encoding="UTF-8" standalone="no"?>
<!DOCTYPE svg PUBLIC "-//W3C//DTD SVG 1.1//EN"
 "http://www.w3.org/Graphics/SVG/1.1/DTD/svg11.dtd">
<!-- Generated by graphviz version 2.43.0 (0)
 -->
<!-- Title: DataStream_Utility Pages: 1 -->
<svg width="212pt" height="182pt"
 viewBox="0.00 0.00 212.00 182.00" xmlns="http://www.w3.org/2000/svg" xmlns:xlink="http://www.w3.org/1999/xlink">
<g id="graph0" class="graph" transform="scale(1 1) rotate(0) translate(4 178)">
<title>DataStream_Utility</title>
<!-- Node1 -->
<g id="node1" class="node">
<title>Node1</title>
<g id="a_node1"><a xlink:title=" ">
<polygon fill="#bfbfbf" stroke="black" points="32,-0.5 32,-68.5 142,-68.5 142,-0.5 32,-0.5"/>
<text text-anchor="middle" x="87" y="-56.5" font-family="Helvetica,sans-Serif" font-size="10.00">DataStream_Utility</text>
<polyline fill="none" stroke="black" points="32,-49.5 142,-49.5 "/>
<text text-anchor="middle" x="87" y="-37.5" font-family="Helvetica,sans-Serif" font-size="10.00"> </text>
<polyline fill="none" stroke="black" points="32,-30.5 142,-30.5 "/>
<text text-anchor="start" x="40" y="-18.5" font-family="Helvetica,sans-Serif" font-size="10.00"># SetUp()</text>
<text text-anchor="start" x="40" y="-7.5" font-family="Helvetica,sans-Serif" font-size="10.00"># TearDown()</text>
</a>
</g>
</g>
<!-- Node2 -->
<g id="node2" class="node">
<title>Node2</title>
<g id="a_node2"><a xlink:title=" ">
<polygon fill="none" stroke="#bfbfbf" points="0,-116.5 0,-173.5 76,-173.5 76,-116.5 0,-116.5"/>
<text text-anchor="middle" x="38" y="-161.5" font-family="Helvetica,sans-Serif" font-size="10.00">testing::Test</text>
<polyline fill="none" stroke="#bfbfbf" points="0,-154.5 76,-154.5 "/>
<text text-anchor="middle" x="38" y="-142.5" font-family="Helvetica,sans-Serif" font-size="10.00"> </text>
<polyline fill="none" stroke="#bfbfbf" points="0,-135.5 76,-135.5 "/>
<text text-anchor="middle" x="38" y="-123.5" font-family="Helvetica,sans-Serif" font-size="10.00"> </text>
</a>
</g>
</g>
<!-- Node2&#45;&gt;Node1 -->
<g id="edge1" class="edge">
<title>Node2&#45;&gt;Node1</title>
<path fill="none" stroke="midnightblue" d="M54.67,-107.09C60.32,-94.59 66.59,-80.7 72.09,-68.52"/>
<polygon fill="none" stroke="midnightblue" points="51.42,-105.79 50.49,-116.34 57.8,-108.67 51.42,-105.79"/>
</g>
<!-- Node3 -->
<g id="node3" class="node">
<title>Node3</title>
<g id="a_node3"><a xlink:title=" ">
<polygon fill="none" stroke="#bfbfbf" points="94.5,-116.5 94.5,-173.5 177.5,-173.5 177.5,-116.5 94.5,-116.5"/>
<text text-anchor="middle" x="136" y="-161.5" font-family="Helvetica,sans-Serif" font-size="10.00">DataStream *</text>
<polyline fill="none" stroke="#bfbfbf" points="94.5,-154.5 177.5,-154.5 "/>
<text text-anchor="middle" x="136" y="-142.5" font-family="Helvetica,sans-Serif" font-size="10.00"> </text>
<polyline fill="none" stroke="#bfbfbf" points="94.5,-135.5 177.5,-135.5 "/>
<text text-anchor="middle" x="136" y="-123.5" font-family="Helvetica,sans-Serif" font-size="10.00"> </text>
</a>
</g>
</g>
<!-- Node3&#45;&gt;Node1 -->
<g id="edge2" class="edge">
<title>Node3&#45;&gt;Node1</title>
<path fill="none" stroke="#404040" d="M123.51,-116.34C118.47,-105.19 112.54,-92.04 106.93,-79.63"/>
<polygon fill="none" stroke="#404040" points="106.85,-79.46 100.74,-75.63 101.91,-68.52 108.03,-72.34 106.85,-79.46"/>
<text text-anchor="middle" x="159" y="-90" font-family="Helvetica,sans-Serif" font-size="10.00"> #p_data_stream_</text>
</g>
</g>
</svg>
