<?xml version="1.0" encoding="UTF-8" standalone="no"?>
<!DOCTYPE svg PUBLIC "-//W3C//DTD SVG 1.1//EN"
 "http://www.w3.org/Graphics/SVG/1.1/DTD/svg11.dtd">
<!-- Generated by graphviz version 2.43.0 (0)
 -->
<!-- Title: extension::Bme280Extension::startup Pages: 1 -->
<svg width="750pt" height="323pt"
 viewBox="0.00 0.00 750.00 323.00" xmlns="http://www.w3.org/2000/svg" xmlns:xlink="http://www.w3.org/1999/xlink">
<g id="graph0" class="graph" transform="scale(1 1) rotate(0) translate(4 319)">
<title>extension::Bme280Extension::startup</title>
<!-- Node1 -->
<g id="node1" class="node">
<title>Node1</title>
<g id="a_node1"><a xlink:title=" ">
<polygon fill="#bfbfbf" stroke="black" points="0,-147.5 0,-177.5 159,-177.5 159,-147.5 0,-147.5"/>
<text text-anchor="start" x="8" y="-165.5" font-family="Helvetica,sans-Serif" font-size="10.00">extension::Bme280Extension</text>
<text text-anchor="middle" x="79.5" y="-154.5" font-family="Helvetica,sans-Serif" font-size="10.00">::startup</text>
</a>
</g>
</g>
<!-- Node2 -->
<g id="node2" class="node">
<title>Node2</title>
<g id="a_node2"><a xlink:href="classextension_1_1Bme280Extension.html#ae9ee268a19ab036aa3fe40fe20f878af" target="_top" xlink:title="Configures the BME280. (Weather Monitoring config, Section 3.5.1)">
<polygon fill="none" stroke="black" points="195,-147.5 195,-177.5 354,-177.5 354,-147.5 195,-147.5"/>
<text text-anchor="start" x="203" y="-165.5" font-family="Helvetica,sans-Serif" font-size="10.00">extension::Bme280Extension</text>
<text text-anchor="middle" x="274.5" y="-154.5" font-family="Helvetica,sans-Serif" font-size="10.00">::configureSensor</text>
</a>
</g>
</g>
<!-- Node1&#45;&gt;Node2 -->
<g id="edge1" class="edge">
<title>Node1&#45;&gt;Node2</title>
<path fill="none" stroke="midnightblue" d="M159,-162.5C167.48,-162.5 176.14,-162.5 184.73,-162.5"/>
<polygon fill="midnightblue" stroke="midnightblue" points="184.76,-166 194.76,-162.5 184.76,-159 184.76,-166"/>
</g>
<!-- Node5 -->
<g id="node5" class="node">
<title>Node5</title>
<g id="a_node5"><a xlink:href="classI2cInterface.html#a98edf9a116cb2f865adb2a19f59728e3" target="_top" xlink:title="Connect to the bus. If it&#39;s already connected, disconnect and reconnect.">
<polygon fill="none" stroke="black" points="215,-246 215,-265 334,-265 334,-246 215,-246"/>
<text text-anchor="middle" x="274.5" y="-253" font-family="Helvetica,sans-Serif" font-size="10.00">I2cInterface::connect</text>
</a>
</g>
</g>
<!-- Node1&#45;&gt;Node5 -->
<g id="edge4" class="edge">
<title>Node1&#45;&gt;Node5</title>
<path fill="none" stroke="midnightblue" d="M99.62,-177.76C121.47,-194.48 158.9,-221 195,-236.5 200.75,-238.97 206.88,-241.15 213.08,-243.08"/>
<polygon fill="midnightblue" stroke="midnightblue" points="212.27,-246.49 222.85,-245.9 214.21,-239.76 212.27,-246.49"/>
</g>
<!-- Node6 -->
<g id="node6" class="node">
<title>Node6</title>
<g id="a_node6"><a xlink:href="classextension_1_1Extension.html#a00ef6cd65250307287af24071c862a42" target="_top" xlink:title="Sleep internally for a given number of milliseconds.">
<polygon fill="none" stroke="black" points="215,-196.5 215,-226.5 334,-226.5 334,-196.5 215,-196.5"/>
<text text-anchor="start" x="223" y="-214.5" font-family="Helvetica,sans-Serif" font-size="10.00">extension::Extension</text>
<text text-anchor="middle" x="274.5" y="-203.5" font-family="Helvetica,sans-Serif" font-size="10.00">::extSleep</text>
</a>
</g>
</g>
<!-- Node1&#45;&gt;Node6 -->
<g id="edge5" class="edge">
<title>Node1&#45;&gt;Node6</title>
<path fill="none" stroke="midnightblue" d="M139.72,-177.53C160.28,-182.76 183.52,-188.66 204.79,-194.06"/>
<polygon fill="midnightblue" stroke="midnightblue" points="204.17,-197.51 214.73,-196.58 205.89,-190.72 204.17,-197.51"/>
</g>
<!-- Node7 -->
<g id="node7" class="node">
<title>Node7</title>
<g id="a_node7"><a xlink:href="classextension_1_1Bme280Extension.html#a50644c3bfee18b64f60cee4efb23c7f8" target="_top" xlink:title="Reads the &#39;ID&#39; register on the BME280, which should return 0x60.">
<polygon fill="none" stroke="black" points="195,-98.5 195,-128.5 354,-128.5 354,-98.5 195,-98.5"/>
<text text-anchor="start" x="203" y="-116.5" font-family="Helvetica,sans-Serif" font-size="10.00">extension::Bme280Extension</text>
<text text-anchor="middle" x="274.5" y="-105.5" font-family="Helvetica,sans-Serif" font-size="10.00">::handshake</text>
</a>
</g>
</g>
<!-- Node1&#45;&gt;Node7 -->
<g id="edge6" class="edge">
<title>Node1&#45;&gt;Node7</title>
<path fill="none" stroke="midnightblue" d="M139.72,-147.47C160.19,-142.27 183.3,-136.4 204.49,-131.02"/>
<polygon fill="midnightblue" stroke="midnightblue" points="205.56,-134.36 214.39,-128.51 203.84,-127.57 205.56,-134.36"/>
</g>
<!-- Node9 -->
<g id="node9" class="node">
<title>Node9</title>
<g id="a_node9"><a xlink:href="classextension_1_1Extension.html#a39712025900988f7bd4e15637f4a28ba" target="_top" xlink:title="Used internally to raise a fault. This will stop an extension.">
<polygon fill="none" stroke="black" points="215,-49.5 215,-79.5 334,-79.5 334,-49.5 215,-49.5"/>
<text text-anchor="start" x="223" y="-67.5" font-family="Helvetica,sans-Serif" font-size="10.00">extension::Extension</text>
<text text-anchor="middle" x="274.5" y="-56.5" font-family="Helvetica,sans-Serif" font-size="10.00">::raiseFault</text>
</a>
</g>
</g>
<!-- Node1&#45;&gt;Node9 -->
<g id="edge9" class="edge">
<title>Node1&#45;&gt;Node9</title>
<path fill="none" stroke="midnightblue" d="M100.19,-147.34C122.26,-130.95 159.59,-104.97 195,-88.5 199.11,-86.59 203.41,-84.78 207.79,-83.08"/>
<polygon fill="midnightblue" stroke="midnightblue" points="209.27,-86.27 217.46,-79.54 206.86,-79.7 209.27,-86.27"/>
</g>
<!-- Node12 -->
<g id="node12" class="node">
<title>Node12</title>
<g id="a_node12"><a xlink:href="classextension_1_1Bme280Extension.html#a421a720a012ceebd0b80d5f04377e444" target="_top" xlink:title="Reads and stores the compensation data from the BME280.">
<polygon fill="none" stroke="black" points="195,-284.5 195,-314.5 354,-314.5 354,-284.5 195,-284.5"/>
<text text-anchor="start" x="203" y="-302.5" font-family="Helvetica,sans-Serif" font-size="10.00">extension::Bme280Extension</text>
<text text-anchor="middle" x="274.5" y="-291.5" font-family="Helvetica,sans-Serif" font-size="10.00">::readCompensationData</text>
</a>
</g>
</g>
<!-- Node1&#45;&gt;Node12 -->
<g id="edge12" class="edge">
<title>Node1&#45;&gt;Node12</title>
<path fill="none" stroke="midnightblue" d="M92.17,-177.84C111.18,-201.81 151.15,-248.14 195,-274.5 198.59,-276.66 202.38,-278.65 206.28,-280.48"/>
<polygon fill="midnightblue" stroke="midnightblue" points="204.98,-283.73 215.54,-284.48 207.75,-277.3 204.98,-283.73"/>
</g>
<!-- Node14 -->
<g id="node14" class="node">
<title>Node14</title>
<g id="a_node14"><a xlink:href="classextension_1_1Extension.html#a6d4f564b9ee0aefea0837e87541ee05b" target="_top" xlink:title="Returns true if the extension has been requested to stop.">
<polygon fill="none" stroke="black" points="215,-0.5 215,-30.5 334,-30.5 334,-0.5 215,-0.5"/>
<text text-anchor="start" x="223" y="-18.5" font-family="Helvetica,sans-Serif" font-size="10.00">extension::Extension</text>
<text text-anchor="middle" x="274.5" y="-7.5" font-family="Helvetica,sans-Serif" font-size="10.00">::stopRequested</text>
</a>
</g>
</g>
<!-- Node1&#45;&gt;Node14 -->
<g id="edge15" class="edge">
<title>Node1&#45;&gt;Node14</title>
<path fill="none" stroke="midnightblue" d="M90.6,-147.23C108.55,-121.29 148.5,-68.59 195,-39.5 198.37,-37.39 201.94,-35.46 205.62,-33.69"/>
<polygon fill="midnightblue" stroke="midnightblue" points="207.2,-36.82 214.96,-29.61 204.39,-30.4 207.2,-36.82"/>
</g>
<!-- Node3 -->
<g id="node3" class="node">
<title>Node3</title>
<g id="a_node3"><a xlink:href="classI2cInterface.html#aee981ceb5e70afe9ba9fe3427783ef89" target="_top" xlink:title="Write a single byte to the device at the specified register.">
<polygon fill="none" stroke="black" points="399.5,-153 399.5,-172 556.5,-172 556.5,-153 399.5,-153"/>
<text text-anchor="middle" x="478" y="-160" font-family="Helvetica,sans-Serif" font-size="10.00">I2cInterface::writeByteToReg</text>
</a>
</g>
</g>
<!-- Node2&#45;&gt;Node3 -->
<g id="edge2" class="edge">
<title>Node2&#45;&gt;Node3</title>
<path fill="none" stroke="midnightblue" d="M354.27,-162.5C365.71,-162.5 377.55,-162.5 389.15,-162.5"/>
<polygon fill="midnightblue" stroke="midnightblue" points="389.28,-166 399.28,-162.5 389.28,-159 389.28,-166"/>
</g>
<!-- Node4 -->
<g id="node4" class="node">
<title>Node4</title>
<g id="a_node4"><a xlink:href="classI2cInterface.html#a13c00b7b0597cc2223a9a0765afcbf85" target="_top" xlink:title="Checks the file descriptor to see if it&#39;s connected to the bus.">
<polygon fill="none" stroke="black" points="602,-153 602,-172 742,-172 742,-153 602,-153"/>
<text text-anchor="middle" x="672" y="-160" font-family="Helvetica,sans-Serif" font-size="10.00">I2cInterface::isConnected</text>
</a>
</g>
</g>
<!-- Node3&#45;&gt;Node4 -->
<g id="edge3" class="edge">
<title>Node3&#45;&gt;Node4</title>
<path fill="none" stroke="midnightblue" d="M556.54,-162.5C568.13,-162.5 580.1,-162.5 591.72,-162.5"/>
<polygon fill="midnightblue" stroke="midnightblue" points="591.84,-166 601.84,-162.5 591.84,-159 591.84,-166"/>
</g>
<!-- Node8 -->
<g id="node8" class="node">
<title>Node8</title>
<g id="a_node8"><a xlink:href="classI2cInterface.html#ad067c20fef20b8338d0e4ec12dc94ec6" target="_top" xlink:title="Read a single byte from the device at the specified register.">
<polygon fill="none" stroke="black" points="394,-109 394,-128 562,-128 562,-109 394,-109"/>
<text text-anchor="middle" x="478" y="-116" font-family="Helvetica,sans-Serif" font-size="10.00">I2cInterface::readByteFromReg</text>
</a>
</g>
</g>
<!-- Node7&#45;&gt;Node8 -->
<g id="edge7" class="edge">
<title>Node7&#45;&gt;Node8</title>
<path fill="none" stroke="midnightblue" d="M354.27,-115.45C363.94,-115.69 373.89,-115.94 383.74,-116.19"/>
<polygon fill="midnightblue" stroke="midnightblue" points="383.88,-119.69 393.96,-116.44 384.05,-112.69 383.88,-119.69"/>
</g>
<!-- Node8&#45;&gt;Node4 -->
<g id="edge8" class="edge">
<title>Node8&#45;&gt;Node4</title>
<path fill="none" stroke="midnightblue" d="M520.66,-128.05C549.72,-134.71 588.69,-143.64 619.67,-150.74"/>
<polygon fill="midnightblue" stroke="midnightblue" points="618.89,-154.15 629.42,-152.97 620.45,-147.33 618.89,-154.15"/>
</g>
<!-- Node10 -->
<g id="node10" class="node">
<title>Node10</title>
<g id="a_node10"><a xlink:href="classextension_1_1Extension.html#a947a643d302b5c5f9cef1a54d5038c06" target="_top" xlink:title=" ">
<polygon fill="none" stroke="black" points="418.5,-49.5 418.5,-79.5 537.5,-79.5 537.5,-49.5 418.5,-49.5"/>
<text text-anchor="start" x="426.5" y="-67.5" font-family="Helvetica,sans-Serif" font-size="10.00">extension::Extension</text>
<text text-anchor="middle" x="478" y="-56.5" font-family="Helvetica,sans-Serif" font-size="10.00">::error</text>
</a>
</g>
</g>
<!-- Node9&#45;&gt;Node10 -->
<g id="edge10" class="edge">
<title>Node9&#45;&gt;Node10</title>
<path fill="none" stroke="midnightblue" d="M334.05,-64.5C357.23,-64.5 384.05,-64.5 408.16,-64.5"/>
<polygon fill="midnightblue" stroke="midnightblue" points="408.3,-68 418.3,-64.5 408.3,-61 408.3,-68"/>
</g>
<!-- Node11 -->
<g id="node11" class="node">
<title>Node11</title>
<g id="a_node11"><a xlink:href="classdata_1_1Stream.html#a1ff9a93190dbecdc2ffa27deaaa4266a" target="_top" xlink:title=" ">
<polygon fill="none" stroke="black" points="604.5,-55 604.5,-74 739.5,-74 739.5,-55 604.5,-55"/>
<text text-anchor="middle" x="672" y="-62" font-family="Helvetica,sans-Serif" font-size="10.00">data::Stream::addPacket</text>
</a>
</g>
</g>
<!-- Node10&#45;&gt;Node11 -->
<g id="edge11" class="edge">
<title>Node10&#45;&gt;Node11</title>
<path fill="none" stroke="midnightblue" d="M537.65,-64.5C555.5,-64.5 575.4,-64.5 594.26,-64.5"/>
<polygon fill="midnightblue" stroke="midnightblue" points="594.32,-68 604.32,-64.5 594.32,-61 594.32,-68"/>
</g>
<!-- Node13 -->
<g id="node13" class="node">
<title>Node13</title>
<g id="a_node13"><a xlink:href="classI2cInterface.html#a6d5b6e7730132098f302a33f90e0b19d" target="_top" xlink:title="Read a chunk of data from the device at the specified register.">
<polygon fill="none" stroke="black" points="390,-240 390,-259 566,-259 566,-240 390,-240"/>
<text text-anchor="middle" x="478" y="-247" font-family="Helvetica,sans-Serif" font-size="10.00">I2cInterface::readChunkFromReg</text>
</a>
</g>
</g>
<!-- Node12&#45;&gt;Node13 -->
<g id="edge13" class="edge">
<title>Node12&#45;&gt;Node13</title>
<path fill="none" stroke="midnightblue" d="M335.96,-284.5C365.59,-277.15 400.79,-268.41 428.61,-261.51"/>
<polygon fill="midnightblue" stroke="midnightblue" points="429.64,-264.86 438.5,-259.05 427.95,-258.06 429.64,-264.86"/>
</g>
<!-- Node13&#45;&gt;Node4 -->
<g id="edge14" class="edge">
<title>Node13&#45;&gt;Node4</title>
<path fill="none" stroke="midnightblue" d="M500.28,-239.86C534.39,-224.4 601.45,-194.02 640.6,-176.27"/>
<polygon fill="midnightblue" stroke="midnightblue" points="642.25,-179.37 649.92,-172.05 639.36,-172.99 642.25,-179.37"/>
</g>
</g>
</svg>
