<?xml version="1.0" encoding="UTF-8" standalone="no"?>
<!DOCTYPE svg PUBLIC "-//W3C//DTD SVG 1.1//EN"
 "http://www.w3.org/Graphics/SVG/1.1/DTD/svg11.dtd">
<!-- Generated by graphviz version 2.43.0 (0)
 -->
<!-- Title: giraffe::StatusLedChannel::off Pages: 1 -->
<svg width="532pt" height="134pt"
 viewBox="0.00 0.00 532.00 134.00" xmlns="http://www.w3.org/2000/svg" xmlns:xlink="http://www.w3.org/1999/xlink">
<g id="graph0" class="graph" transform="scale(1 1) rotate(0) translate(4 130)">
<title>giraffe::StatusLedChannel::off</title>
<!-- Node1 -->
<g id="Node000001" class="node">
<title>Node1</title>
<g id="a_Node000001"><a xlink:title=" ">
<polygon fill="#999999" stroke="#666666" points="161,-72.5 0,-72.5 0,-53.5 161,-53.5 161,-72.5"/>
<text text-anchor="middle" x="80.5" y="-60.5" font-family="Helvetica,sans-Serif" font-size="10.00">giraffe::StatusLedChannel::off</text>
</a>
</g>
</g>
<!-- Node2 -->
<g id="Node000002" class="node">
<title>Node2</title>
<g id="a_Node000002"><a xlink:href="classgiraffe_1_1StatusLedChannel.html#a7c4625ba5c1ee3f5deec9eee26a80571" target="_top" xlink:title=" ">
<polygon fill="white" stroke="#666666" points="360,-72.5 197,-72.5 197,-53.5 360,-53.5 360,-72.5"/>
<text text-anchor="middle" x="278.5" y="-60.5" font-family="Helvetica,sans-Serif" font-size="10.00">giraffe::StatusLedChannel::set</text>
</a>
</g>
</g>
<!-- Node1&#45;&gt;Node2 -->
<g id="edge1_Node000001_Node000002" class="edge">
<title>Node1&#45;&gt;Node2</title>
<g id="a_edge1_Node000001_Node000002"><a xlink:title=" ">
<path fill="none" stroke="#63b8ff" d="M161.22,-63C169.68,-63 178.32,-63 186.89,-63"/>
<polygon fill="#63b8ff" stroke="#63b8ff" points="186.9,-66.5 196.9,-63 186.9,-59.5 186.9,-66.5"/>
</a>
</g>
</g>
<!-- Node3 -->
<g id="Node000003" class="node">
<title>Node3</title>
<g id="a_Node000003"><a xlink:href="classgiraffe_1_1StatusLedState.html#a689922cb21411c5fbc7eab9a7a800daf" target="_top" xlink:title=" ">
<polygon fill="white" stroke="#666666" points="524,-126 396,-126 396,-96 524,-96 524,-126"/>
<text text-anchor="start" x="404" y="-114" font-family="Helvetica,sans-Serif" font-size="10.00">giraffe::StatusLedState</text>
<text text-anchor="middle" x="460" y="-103" font-family="Helvetica,sans-Serif" font-size="10.00">::setBlue</text>
</a>
</g>
</g>
<!-- Node2&#45;&gt;Node3 -->
<g id="edge2_Node000002_Node000003" class="edge">
<title>Node2&#45;&gt;Node3</title>
<g id="a_edge2_Node000002_Node000003"><a xlink:title=" ">
<path fill="none" stroke="#63b8ff" d="M315.39,-72.6C337.53,-78.52 366.6,-86.29 392.79,-93.3"/>
<polygon fill="#63b8ff" stroke="#63b8ff" points="392.11,-96.73 402.67,-95.94 393.91,-89.97 392.11,-96.73"/>
</a>
</g>
</g>
<!-- Node4 -->
<g id="Node000004" class="node">
<title>Node4</title>
<g id="a_Node000004"><a xlink:href="classgiraffe_1_1StatusLedState.html#a33c2fe6fdb8008af2710221ef5640c30" target="_top" xlink:title=" ">
<polygon fill="white" stroke="#666666" points="524,-78 396,-78 396,-48 524,-48 524,-78"/>
<text text-anchor="start" x="404" y="-66" font-family="Helvetica,sans-Serif" font-size="10.00">giraffe::StatusLedState</text>
<text text-anchor="middle" x="460" y="-55" font-family="Helvetica,sans-Serif" font-size="10.00">::setGreen</text>
</a>
</g>
</g>
<!-- Node2&#45;&gt;Node4 -->
<g id="edge3_Node000002_Node000004" class="edge">
<title>Node2&#45;&gt;Node4</title>
<g id="a_edge3_Node000002_Node000004"><a xlink:title=" ">
<path fill="none" stroke="#63b8ff" d="M360.06,-63C368.61,-63 377.27,-63 385.73,-63"/>
<polygon fill="#63b8ff" stroke="#63b8ff" points="385.92,-66.5 395.92,-63 385.92,-59.5 385.92,-66.5"/>
</a>
</g>
</g>
<!-- Node5 -->
<g id="Node000005" class="node">
<title>Node5</title>
<g id="a_Node000005"><a xlink:href="classgiraffe_1_1StatusLedState.html#a1ca6c4aece1a154bf2499680b56f4cf5" target="_top" xlink:title=" ">
<polygon fill="white" stroke="#666666" points="524,-30 396,-30 396,0 524,0 524,-30"/>
<text text-anchor="start" x="404" y="-18" font-family="Helvetica,sans-Serif" font-size="10.00">giraffe::StatusLedState</text>
<text text-anchor="middle" x="460" y="-7" font-family="Helvetica,sans-Serif" font-size="10.00">::setRed</text>
</a>
</g>
</g>
<!-- Node2&#45;&gt;Node5 -->
<g id="edge4_Node000002_Node000005" class="edge">
<title>Node2&#45;&gt;Node5</title>
<g id="a_edge4_Node000002_Node000005"><a xlink:title=" ">
<path fill="none" stroke="#63b8ff" d="M315.39,-53.4C337.53,-47.48 366.6,-39.71 392.79,-32.7"/>
<polygon fill="#63b8ff" stroke="#63b8ff" points="393.91,-36.03 402.67,-30.06 392.11,-29.27 393.91,-36.03"/>
</a>
</g>
</g>
</g>
</svg>
