<?xml version="1.0" encoding="UTF-8" standalone="no"?>
<!DOCTYPE svg PUBLIC "-//W3C//DTD SVG 1.1//EN"
 "http://www.w3.org/Graphics/SVG/1.1/DTD/svg11.dtd">
<!-- Generated by graphviz version 2.43.0 (0)
 -->
<!-- Title: gfs_sim::GfsSimulator Pages: 1 -->
<svg width="927pt" height="1366pt"
 viewBox="0.00 0.00 927.41 1366.00" xmlns="http://www.w3.org/2000/svg" xmlns:xlink="http://www.w3.org/1999/xlink">
<g id="graph0" class="graph" transform="scale(1 1) rotate(0) translate(4 1362)">
<title>gfs_sim::GfsSimulator</title>
<!-- Node1 -->
<g id="node1" class="node">
<title>Node1</title>
<g id="a_node1"><a xlink:title=" ">
<polygon fill="#bfbfbf" stroke="black" points="353.41,-0.5 353.41,-266.5 486.41,-266.5 486.41,-0.5 353.41,-0.5"/>
<text text-anchor="middle" x="419.91" y="-254.5" font-family="Helvetica,sans-Serif" font-size="10.00">gfs_sim::GfsSimulator</text>
<polyline fill="none" stroke="black" points="353.41,-247.5 486.41,-247.5 "/>
<text text-anchor="middle" x="419.91" y="-235.5" font-family="Helvetica,sans-Serif" font-size="10.00"> </text>
<polyline fill="none" stroke="black" points="353.41,-228.5 486.41,-228.5 "/>
<text text-anchor="start" x="361.41" y="-216.5" font-family="Helvetica,sans-Serif" font-size="10.00">+ GfsSimulator()</text>
<text text-anchor="start" x="361.41" y="-205.5" font-family="Helvetica,sans-Serif" font-size="10.00">+ ~GfsSimulator()</text>
<text text-anchor="start" x="361.41" y="-194.5" font-family="Helvetica,sans-Serif" font-size="10.00">+ getAltitudeM()</text>
<text text-anchor="start" x="361.41" y="-183.5" font-family="Helvetica,sans-Serif" font-size="10.00">+ getBatteryVoltage()</text>
<text text-anchor="start" x="361.41" y="-172.5" font-family="Helvetica,sans-Serif" font-size="10.00">+ getHeadingDeg()</text>
<text text-anchor="start" x="361.41" y="-161.5" font-family="Helvetica,sans-Serif" font-size="10.00">+ getHorzVelocityMps()</text>
<text text-anchor="start" x="361.41" y="-150.5" font-family="Helvetica,sans-Serif" font-size="10.00">+ getHumidityPercent()</text>
<text text-anchor="start" x="361.41" y="-139.5" font-family="Helvetica,sans-Serif" font-size="10.00">+ getLatitudeDeg()</text>
<text text-anchor="start" x="361.41" y="-128.5" font-family="Helvetica,sans-Serif" font-size="10.00">+ getLongitudeDeg()</text>
<text text-anchor="start" x="361.41" y="-117.5" font-family="Helvetica,sans-Serif" font-size="10.00">+ getPressureMbar()</text>
<text text-anchor="start" x="361.41" y="-106.5" font-family="Helvetica,sans-Serif" font-size="10.00">and 7 more...</text>
<text text-anchor="start" x="361.41" y="-95.5" font-family="Helvetica,sans-Serif" font-size="10.00">&#45; printData()</text>
<text text-anchor="start" x="361.41" y="-84.5" font-family="Helvetica,sans-Serif" font-size="10.00">&#45; run()</text>
<text text-anchor="start" x="361.41" y="-73.5" font-family="Helvetica,sans-Serif" font-size="10.00">&#45; stateAscent()</text>
<text text-anchor="start" x="361.41" y="-62.5" font-family="Helvetica,sans-Serif" font-size="10.00">&#45; stateDescent()</text>
<text text-anchor="start" x="361.41" y="-51.5" font-family="Helvetica,sans-Serif" font-size="10.00">&#45; stateLanded()</text>
<text text-anchor="start" x="361.41" y="-40.5" font-family="Helvetica,sans-Serif" font-size="10.00">&#45; stateLanding()</text>
<text text-anchor="start" x="361.41" y="-29.5" font-family="Helvetica,sans-Serif" font-size="10.00">&#45; stateMachine()</text>
<text text-anchor="start" x="361.41" y="-18.5" font-family="Helvetica,sans-Serif" font-size="10.00">&#45; statePop()</text>
<text text-anchor="start" x="361.41" y="-7.5" font-family="Helvetica,sans-Serif" font-size="10.00">&#45; statePreLaunch()</text>
</a>
</g>
</g>
<!-- Node2 -->
<g id="node2" class="node">
<title>Node2</title>
<g id="a_node2"><a xlink:href="classgfs__sim_1_1SimElectrical.html" target="_top" xlink:title=" ">
<polygon fill="none" stroke="black" points="44.41,-694.5 44.41,-773.5 169.41,-773.5 169.41,-694.5 44.41,-694.5"/>
<text text-anchor="middle" x="106.91" y="-761.5" font-family="Helvetica,sans-Serif" font-size="10.00">gfs_sim::SimElectrical</text>
<polyline fill="none" stroke="black" points="44.41,-754.5 169.41,-754.5 "/>
<text text-anchor="middle" x="106.91" y="-742.5" font-family="Helvetica,sans-Serif" font-size="10.00"> </text>
<polyline fill="none" stroke="black" points="44.41,-735.5 169.41,-735.5 "/>
<text text-anchor="start" x="52.41" y="-723.5" font-family="Helvetica,sans-Serif" font-size="10.00">+ SimElectrical()</text>
<text text-anchor="start" x="52.41" y="-712.5" font-family="Helvetica,sans-Serif" font-size="10.00">+ ~SimElectrical()</text>
<text text-anchor="start" x="52.41" y="-701.5" font-family="Helvetica,sans-Serif" font-size="10.00">+ update()</text>
</a>
</g>
</g>
<!-- Node2&#45;&gt;Node1 -->
<g id="edge1" class="edge">
<title>Node2&#45;&gt;Node1</title>
<path fill="none" stroke="#404040" d="M97.43,-694.32C80.97,-618.18 54.83,-445.78 120.91,-325 167.47,-239.92 269.99,-187.4 341.94,-159.6"/>
<polygon fill="none" stroke="#404040" points="341.99,-159.58 346.19,-153.72 353.22,-155.35 349.01,-161.21 341.99,-159.58"/>
<text text-anchor="middle" x="149.91" y="-472.5" font-family="Helvetica,sans-Serif" font-size="10.00"> &#45;electrical_</text>
</g>
<!-- Node3 -->
<g id="node3" class="node">
<title>Node3</title>
<g id="a_node3"><a xlink:title=" ">
<polygon fill="none" stroke="#bfbfbf" points="374.91,-1300.5 374.91,-1357.5 424.91,-1357.5 424.91,-1300.5 374.91,-1300.5"/>
<text text-anchor="middle" x="399.91" y="-1345.5" font-family="Helvetica,sans-Serif" font-size="10.00">double</text>
<polyline fill="none" stroke="#bfbfbf" points="374.91,-1338.5 424.91,-1338.5 "/>
<text text-anchor="middle" x="399.91" y="-1326.5" font-family="Helvetica,sans-Serif" font-size="10.00"> </text>
<polyline fill="none" stroke="#bfbfbf" points="374.91,-1319.5 424.91,-1319.5 "/>
<text text-anchor="middle" x="399.91" y="-1307.5" font-family="Helvetica,sans-Serif" font-size="10.00"> </text>
</a>
</g>
</g>
<!-- Node3&#45;&gt;Node1 -->
<g id="edge5" class="edge">
<title>Node3&#45;&gt;Node1</title>
<path fill="none" stroke="#404040" d="M389.26,-1300.43C367.14,-1242.08 316.13,-1101.37 289.91,-979 261.14,-844.67 310.31,-797.27 253.91,-672 242.41,-646.46 221.9,-651.17 211.91,-625 164.36,-500.43 191.05,-456.69 211.91,-325 223.01,-254.95 288.14,-203.18 342.6,-171.44"/>
<polygon fill="none" stroke="#404040" points="342.89,-171.27 346.14,-164.83 353.33,-165.35 350.08,-171.79 342.89,-171.27"/>
<text text-anchor="middle" x="330.91" y="-731.5" font-family="Helvetica,sans-Serif" font-size="10.00"> &#45;elapsed_seconds_</text>
</g>
<!-- Node3&#45;&gt;Node2 -->
<g id="edge2" class="edge">
<title>Node3&#45;&gt;Node2</title>
<path fill="none" stroke="#404040" d="M374.83,-1325.55C344.72,-1321.41 294.24,-1310.45 261.91,-1282 100.55,-1139.99 199.45,-1020.54 139.91,-814 137.16,-804.46 133.6,-794.51 129.83,-785.02"/>
<polygon fill="none" stroke="#404040" points="129.76,-784.83 123.77,-780.81 125.18,-773.74 131.17,-777.76 129.76,-784.83"/>
<text text-anchor="middle" x="204.41" y="-1111.5" font-family="Helvetica,sans-Serif" font-size="10.00"> &#45;adc_ch0_</text>
<text text-anchor="middle" x="204.41" y="-1100.5" font-family="Helvetica,sans-Serif" font-size="10.00">&#45;adc_ch1_</text>
<text text-anchor="middle" x="204.41" y="-1089.5" font-family="Helvetica,sans-Serif" font-size="10.00">&#45;adc_ch2_</text>
<text text-anchor="middle" x="204.41" y="-1078.5" font-family="Helvetica,sans-Serif" font-size="10.00">&#45;adc_ch3_</text>
<text text-anchor="middle" x="204.41" y="-1067.5" font-family="Helvetica,sans-Serif" font-size="10.00">&#45;adc_ch4_</text>
<text text-anchor="middle" x="204.41" y="-1056.5" font-family="Helvetica,sans-Serif" font-size="10.00">&#45;adc_ch5_</text>
<text text-anchor="middle" x="204.41" y="-1045.5" font-family="Helvetica,sans-Serif" font-size="10.00">&#45;adc_ch6_</text>
<text text-anchor="middle" x="204.41" y="-1034.5" font-family="Helvetica,sans-Serif" font-size="10.00">&#45;adc_ch7_</text>
<text text-anchor="middle" x="204.41" y="-1023.5" font-family="Helvetica,sans-Serif" font-size="10.00">&#45;battery_soc_</text>
</g>
<!-- Node9 -->
<g id="node9" class="node">
<title>Node9</title>
<g id="a_node9"><a xlink:href="classgfs__sim_1_1BalloonPhysics.html" target="_top" xlink:title=" ">
<polygon fill="none" stroke="black" points="482.91,-325.5 482.91,-624.5 654.91,-624.5 654.91,-325.5 482.91,-325.5"/>
<text text-anchor="middle" x="568.91" y="-612.5" font-family="Helvetica,sans-Serif" font-size="10.00">gfs_sim::BalloonPhysics</text>
<polyline fill="none" stroke="black" points="482.91,-605.5 654.91,-605.5 "/>
<text text-anchor="middle" x="568.91" y="-593.5" font-family="Helvetica,sans-Serif" font-size="10.00"> </text>
<polyline fill="none" stroke="black" points="482.91,-586.5 654.91,-586.5 "/>
<text text-anchor="start" x="490.91" y="-574.5" font-family="Helvetica,sans-Serif" font-size="10.00">+ BalloonPhysics()</text>
<text text-anchor="start" x="490.91" y="-563.5" font-family="Helvetica,sans-Serif" font-size="10.00">+ getAltitude()</text>
<text text-anchor="start" x="490.91" y="-552.5" font-family="Helvetica,sans-Serif" font-size="10.00">+ getDirectionOfTravel()</text>
<text text-anchor="start" x="490.91" y="-541.5" font-family="Helvetica,sans-Serif" font-size="10.00">+ getHorizontalSpeed()</text>
<text text-anchor="start" x="490.91" y="-530.5" font-family="Helvetica,sans-Serif" font-size="10.00">+ getTotalDistance()</text>
<text text-anchor="start" x="490.91" y="-519.5" font-family="Helvetica,sans-Serif" font-size="10.00">+ getVerticalAcceleration()</text>
<text text-anchor="start" x="490.91" y="-508.5" font-family="Helvetica,sans-Serif" font-size="10.00">+ getVerticalSpeed()</text>
<text text-anchor="start" x="490.91" y="-497.5" font-family="Helvetica,sans-Serif" font-size="10.00">+ launch()</text>
<text text-anchor="start" x="490.91" y="-486.5" font-family="Helvetica,sans-Serif" font-size="10.00">+ update()</text>
<text text-anchor="start" x="490.91" y="-475.5" font-family="Helvetica,sans-Serif" font-size="10.00">&#45; setDirectionOfTravel()</text>
<text text-anchor="start" x="490.91" y="-464.5" font-family="Helvetica,sans-Serif" font-size="10.00">&#45; setHorizontalSpeed()</text>
<text text-anchor="start" x="490.91" y="-453.5" font-family="Helvetica,sans-Serif" font-size="10.00">&#45; setVerticalAcceleration()</text>
<text text-anchor="start" x="490.91" y="-442.5" font-family="Helvetica,sans-Serif" font-size="10.00">&#45; stateAscent()</text>
<text text-anchor="start" x="490.91" y="-431.5" font-family="Helvetica,sans-Serif" font-size="10.00">&#45; stateDescent()</text>
<text text-anchor="start" x="490.91" y="-420.5" font-family="Helvetica,sans-Serif" font-size="10.00">&#45; stateLanded()</text>
<text text-anchor="start" x="490.91" y="-409.5" font-family="Helvetica,sans-Serif" font-size="10.00">&#45; stateLanding()</text>
<text text-anchor="start" x="490.91" y="-398.5" font-family="Helvetica,sans-Serif" font-size="10.00">&#45; stateMachine()</text>
<text text-anchor="start" x="490.91" y="-387.5" font-family="Helvetica,sans-Serif" font-size="10.00">&#45; statePop()</text>
<text text-anchor="start" x="490.91" y="-376.5" font-family="Helvetica,sans-Serif" font-size="10.00">&#45; statePreLaunch()</text>
<text text-anchor="start" x="490.91" y="-365.5" font-family="Helvetica,sans-Serif" font-size="10.00">&#45; stopTravel()</text>
<text text-anchor="start" x="490.91" y="-354.5" font-family="Helvetica,sans-Serif" font-size="10.00">&#45; updateCoordinates()</text>
<text text-anchor="start" x="490.91" y="-343.5" font-family="Helvetica,sans-Serif" font-size="10.00">&#45; updateHorizontal()</text>
<text text-anchor="start" x="490.91" y="-332.5" font-family="Helvetica,sans-Serif" font-size="10.00">&#45; verticalAccelerationVariation()</text>
</a>
</g>
</g>
<!-- Node3&#45;&gt;Node9 -->
<g id="edge11" class="edge">
<title>Node3&#45;&gt;Node9</title>
<path fill="none" stroke="#404040" d="M398.33,-1300.28C392.48,-1190.53 374.93,-786.85 425.91,-672 438.03,-644.71 455.1,-648.18 473.91,-625 474.38,-624.42 474.85,-623.84 475.32,-623.26"/>
<polygon fill="none" stroke="#404040" points="475.45,-623.1 476,-615.91 482.85,-613.65 482.3,-620.84 475.45,-623.1"/>
<text text-anchor="middle" x="450.91" y="-971" font-family="Helvetica,sans-Serif" font-size="10.00"> &#45;altitude_</text>
<text text-anchor="start" x="397.91" y="-960" font-family="Helvetica,sans-Serif" font-size="10.00">&#45;direction_of_travel</text>
<text text-anchor="middle" x="450.91" y="-949" font-family="Helvetica,sans-Serif" font-size="10.00">_</text>
<text text-anchor="start" x="397.91" y="-938" font-family="Helvetica,sans-Serif" font-size="10.00">&#45;distance_since</text>
<text text-anchor="start" x="397.91" y="-927" font-family="Helvetica,sans-Serif" font-size="10.00">_last_coordinate</text>
<text text-anchor="middle" x="450.91" y="-916" font-family="Helvetica,sans-Serif" font-size="10.00">_</text>
<text text-anchor="start" x="397.91" y="-905" font-family="Helvetica,sans-Serif" font-size="10.00">&#45;horizontal_speed</text>
<text text-anchor="middle" x="450.91" y="-894" font-family="Helvetica,sans-Serif" font-size="10.00">_</text>
<text text-anchor="middle" x="450.91" y="-883" font-family="Helvetica,sans-Serif" font-size="10.00">&#45;latitude_</text>
<text text-anchor="middle" x="450.91" y="-872" font-family="Helvetica,sans-Serif" font-size="10.00">&#45;longitude_</text>
<text text-anchor="start" x="397.91" y="-861" font-family="Helvetica,sans-Serif" font-size="10.00">&#45;total_distance</text>
<text text-anchor="middle" x="450.91" y="-850" font-family="Helvetica,sans-Serif" font-size="10.00">_</text>
<text text-anchor="start" x="397.91" y="-839" font-family="Helvetica,sans-Serif" font-size="10.00">&#45;vertical_acceleration</text>
<text text-anchor="middle" x="450.91" y="-828" font-family="Helvetica,sans-Serif" font-size="10.00">_</text>
<text text-anchor="middle" x="450.91" y="-817" font-family="Helvetica,sans-Serif" font-size="10.00">&#45;vertical_speed_</text>
</g>
<!-- Node12 -->
<g id="node12" class="node">
<title>Node12</title>
<g id="a_node12"><a xlink:href="classgfs__sim_1_1SimEnvironmental.html" target="_top" xlink:title=" ">
<polygon fill="none" stroke="black" points="580.41,-672.5 580.41,-795.5 753.41,-795.5 753.41,-672.5 580.41,-672.5"/>
<text text-anchor="middle" x="666.91" y="-783.5" font-family="Helvetica,sans-Serif" font-size="10.00">gfs_sim::SimEnvironmental</text>
<polyline fill="none" stroke="black" points="580.41,-776.5 753.41,-776.5 "/>
<text text-anchor="middle" x="666.91" y="-764.5" font-family="Helvetica,sans-Serif" font-size="10.00"> </text>
<polyline fill="none" stroke="black" points="580.41,-757.5 753.41,-757.5 "/>
<text text-anchor="start" x="588.41" y="-745.5" font-family="Helvetica,sans-Serif" font-size="10.00">+ SimEnvironmental()</text>
<text text-anchor="start" x="588.41" y="-734.5" font-family="Helvetica,sans-Serif" font-size="10.00">+ getPressureMillibars()</text>
<text text-anchor="start" x="588.41" y="-723.5" font-family="Helvetica,sans-Serif" font-size="10.00">+ getRelativeHumidityPercent()</text>
<text text-anchor="start" x="588.41" y="-712.5" font-family="Helvetica,sans-Serif" font-size="10.00">+ getTemperatureCelsius()</text>
<text text-anchor="start" x="588.41" y="-701.5" font-family="Helvetica,sans-Serif" font-size="10.00">+ getWindDirectionDegrees()</text>
<text text-anchor="start" x="588.41" y="-690.5" font-family="Helvetica,sans-Serif" font-size="10.00">+ getWindSpeedMPS()</text>
<text text-anchor="start" x="588.41" y="-679.5" font-family="Helvetica,sans-Serif" font-size="10.00">+ setAltitudeMeters()</text>
</a>
</g>
</g>
<!-- Node3&#45;&gt;Node12 -->
<g id="edge16" class="edge">
<title>Node3&#45;&gt;Node12</title>
<path fill="none" stroke="#404040" d="M409.71,-1300.12C430.17,-1242.63 479.69,-1107.09 529.91,-997 559.9,-931.28 598.32,-858.63 626.84,-806.54"/>
<polygon fill="none" stroke="#404040" points="626.99,-806.26 626.38,-799.08 632.77,-795.74 633.39,-802.93 626.99,-806.26"/>
<text text-anchor="middle" x="574.91" y="-1067.5" font-family="Helvetica,sans-Serif" font-size="10.00"> &#45;altitude_meters_</text>
</g>
<!-- Node13 -->
<g id="node13" class="node">
<title>Node13</title>
<g id="a_node13"><a xlink:href="namespacegfs__sim.html#structgfs__sim_1_1EnvData" target="_top" xlink:title=" ">
<polygon fill="none" stroke="black" points="628.91,-1041.5 628.91,-1098.5 730.91,-1098.5 730.91,-1041.5 628.91,-1041.5"/>
<text text-anchor="middle" x="679.91" y="-1086.5" font-family="Helvetica,sans-Serif" font-size="10.00">gfs_sim::EnvData</text>
<polyline fill="none" stroke="black" points="628.91,-1079.5 730.91,-1079.5 "/>
<text text-anchor="middle" x="679.91" y="-1067.5" font-family="Helvetica,sans-Serif" font-size="10.00"> </text>
<polyline fill="none" stroke="black" points="628.91,-1060.5 730.91,-1060.5 "/>
<text text-anchor="middle" x="679.91" y="-1048.5" font-family="Helvetica,sans-Serif" font-size="10.00"> </text>
</a>
</g>
</g>
<!-- Node3&#45;&gt;Node13 -->
<g id="edge18" class="edge">
<title>Node3&#45;&gt;Node13</title>
<path fill="none" stroke="#404040" d="M425.05,-1324.34C453.98,-1319.09 501.76,-1307.13 534.91,-1282 595.62,-1235.99 640.03,-1157.03 662.75,-1109.85"/>
<polygon fill="none" stroke="#404040" points="662.81,-1109.72 661.75,-1102.58 667.93,-1098.86 668.99,-1105.99 662.81,-1109.72"/>
<text text-anchor="middle" x="696.91" y="-1252" font-family="Helvetica,sans-Serif" font-size="10.00"> +altitude_meters</text>
<text text-anchor="middle" x="696.91" y="-1241" font-family="Helvetica,sans-Serif" font-size="10.00">+pressure_millibars</text>
<text text-anchor="start" x="634.91" y="-1230" font-family="Helvetica,sans-Serif" font-size="10.00">+relative_humidity</text>
<text text-anchor="middle" x="696.91" y="-1219" font-family="Helvetica,sans-Serif" font-size="10.00">_percent</text>
<text text-anchor="middle" x="696.91" y="-1208" font-family="Helvetica,sans-Serif" font-size="10.00">+temperature_celsius</text>
<text text-anchor="middle" x="696.91" y="-1197" font-family="Helvetica,sans-Serif" font-size="10.00">+wind_direction_degrees</text>
<text text-anchor="middle" x="696.91" y="-1186" font-family="Helvetica,sans-Serif" font-size="10.00">+wind_speed_mps</text>
</g>
<!-- Node4 -->
<g id="node4" class="node">
<title>Node4</title>
<g id="a_node4"><a xlink:href="namespacegfs__sim.html#structgfs__sim_1_1SimData" target="_top" xlink:title=" ">
<polygon fill="none" stroke="black" points="25.41,-997.5 25.41,-1142.5 144.41,-1142.5 144.41,-997.5 25.41,-997.5"/>
<text text-anchor="middle" x="84.91" y="-1130.5" font-family="Helvetica,sans-Serif" font-size="10.00">gfs_sim::SimData</text>
<polyline fill="none" stroke="black" points="25.41,-1123.5 144.41,-1123.5 "/>
<text text-anchor="start" x="33.41" y="-1111.5" font-family="Helvetica,sans-Serif" font-size="10.00">+ heading_deg</text>
<text text-anchor="start" x="33.41" y="-1100.5" font-family="Helvetica,sans-Serif" font-size="10.00">+ horz_velocity_mps</text>
<text text-anchor="start" x="33.41" y="-1089.5" font-family="Helvetica,sans-Serif" font-size="10.00">+ humidity_percent</text>
<text text-anchor="start" x="33.41" y="-1078.5" font-family="Helvetica,sans-Serif" font-size="10.00">+ latitude_deg</text>
<text text-anchor="start" x="33.41" y="-1067.5" font-family="Helvetica,sans-Serif" font-size="10.00">+ longitude_deg</text>
<text text-anchor="start" x="33.41" y="-1056.5" font-family="Helvetica,sans-Serif" font-size="10.00">+ pressure_mbar</text>
<text text-anchor="start" x="33.41" y="-1045.5" font-family="Helvetica,sans-Serif" font-size="10.00">+ temperature_c</text>
<text text-anchor="start" x="33.41" y="-1034.5" font-family="Helvetica,sans-Serif" font-size="10.00">+ vert_accel_mps2</text>
<text text-anchor="start" x="33.41" y="-1023.5" font-family="Helvetica,sans-Serif" font-size="10.00">+ vert_velocity_mps</text>
<polyline fill="none" stroke="black" points="25.41,-1016.5 144.41,-1016.5 "/>
<text text-anchor="middle" x="84.91" y="-1004.5" font-family="Helvetica,sans-Serif" font-size="10.00"> </text>
</a>
</g>
</g>
<!-- Node4&#45;&gt;Node1 -->
<g id="edge8" class="edge">
<title>Node4&#45;&gt;Node1</title>
<path fill="none" stroke="#404040" d="M60.55,-997.35C17.38,-856.56 -56.28,-538.9 74.91,-325 133.7,-229.15 259.19,-177.85 341.52,-153.41"/>
<polygon fill="none" stroke="#404040" points="341.56,-153.4 346.21,-147.89 353.08,-150.07 348.43,-155.58 341.56,-153.4"/>
<text text-anchor="middle" x="29.91" y="-646" font-family="Helvetica,sans-Serif" font-size="10.00"> &#45;sim_data_</text>
</g>
<!-- Node4&#45;&gt;Node2 -->
<g id="edge3" class="edge">
<title>Node4&#45;&gt;Node2</title>
<path fill="none" stroke="#404040" d="M89.63,-997.35C93.82,-933.73 99.84,-842.35 103.56,-785.93"/>
<polygon fill="none" stroke="#404040" points="103.57,-785.73 99.97,-779.48 104.36,-773.76 107.96,-780.01 103.57,-785.73"/>
<text text-anchor="middle" x="118.91" y="-894" font-family="Helvetica,sans-Serif" font-size="10.00"> &#45;data_</text>
</g>
<!-- Node4&#45;&gt;Node9 -->
<g id="edge12" class="edge">
<title>Node4&#45;&gt;Node9</title>
<path fill="none" stroke="#404040" d="M131.25,-997.28C134.4,-991.21 137.34,-985.07 139.91,-979 153.7,-946.56 194.11,-696.01 219.91,-672 239.24,-654.01 417.82,-642.92 471.77,-623.66"/>
<polygon fill="none" stroke="#404040" points="471.99,-623.56 475.71,-617.38 482.84,-618.44 479.12,-624.62 471.99,-623.56"/>
<text text-anchor="middle" x="236.91" y="-731.5" font-family="Helvetica,sans-Serif" font-size="10.00"> &#45;data_</text>
</g>
<!-- Node4&#45;&gt;Node12 -->
<g id="edge19" class="edge">
<title>Node4&#45;&gt;Node12</title>
<path fill="none" stroke="#404040" d="M144.81,-1006.41C149.4,-1002.99 154.12,-999.81 158.91,-997 183.31,-982.73 196.69,-995.12 219.91,-979 295.28,-926.7 263.53,-858.2 343.91,-814 385.48,-791.14 506.44,-809.42 568.57,-795.74"/>
<polygon fill="none" stroke="#404040" points="568.6,-795.74 573.33,-790.29 580.17,-792.56 575.44,-798.01 568.6,-795.74"/>
<text text-anchor="middle" x="360.91" y="-894" font-family="Helvetica,sans-Serif" font-size="10.00"> &#45;data_</text>
</g>
<!-- Node5 -->
<g id="node5" class="node">
<title>Node5</title>
<g id="a_node5"><a xlink:title=" ">
<polygon fill="none" stroke="#bfbfbf" points="26.91,-1300.5 26.91,-1357.5 132.91,-1357.5 132.91,-1300.5 26.91,-1300.5"/>
<text text-anchor="middle" x="79.91" y="-1345.5" font-family="Helvetica,sans-Serif" font-size="10.00">atomic&lt; double &gt;</text>
<polyline fill="none" stroke="#bfbfbf" points="26.91,-1338.5 132.91,-1338.5 "/>
<text text-anchor="middle" x="79.91" y="-1326.5" font-family="Helvetica,sans-Serif" font-size="10.00"> </text>
<polyline fill="none" stroke="#bfbfbf" points="26.91,-1319.5 132.91,-1319.5 "/>
<text text-anchor="middle" x="79.91" y="-1307.5" font-family="Helvetica,sans-Serif" font-size="10.00"> </text>
</a>
</g>
</g>
<!-- Node5&#45;&gt;Node4 -->
<g id="edge4" class="edge">
<title>Node5&#45;&gt;Node4</title>
<path fill="none" stroke="#404040" d="M79.75,-1300.22C79.64,-1267.07 79.68,-1209.98 80.91,-1161 80.96,-1158.96 81.02,-1156.89 81.08,-1154.8"/>
<polygon fill="none" stroke="#404040" points="81.09,-1154.71 77.28,-1148.58 81.48,-1142.71 85.28,-1148.84 81.09,-1154.71"/>
<text text-anchor="middle" x="123.91" y="-1274" font-family="Helvetica,sans-Serif" font-size="10.00"> +adc_ch_0</text>
<text text-anchor="middle" x="123.91" y="-1263" font-family="Helvetica,sans-Serif" font-size="10.00">+adc_ch_1</text>
<text text-anchor="middle" x="123.91" y="-1252" font-family="Helvetica,sans-Serif" font-size="10.00">+adc_ch_2</text>
<text text-anchor="middle" x="123.91" y="-1241" font-family="Helvetica,sans-Serif" font-size="10.00">+adc_ch_3</text>
<text text-anchor="middle" x="123.91" y="-1230" font-family="Helvetica,sans-Serif" font-size="10.00">+adc_ch_4</text>
<text text-anchor="middle" x="123.91" y="-1219" font-family="Helvetica,sans-Serif" font-size="10.00">+adc_ch_5</text>
<text text-anchor="middle" x="123.91" y="-1208" font-family="Helvetica,sans-Serif" font-size="10.00">+adc_ch_6</text>
<text text-anchor="middle" x="123.91" y="-1197" font-family="Helvetica,sans-Serif" font-size="10.00">+adc_ch_7</text>
<text text-anchor="middle" x="123.91" y="-1186" font-family="Helvetica,sans-Serif" font-size="10.00">+altitude_m</text>
<text text-anchor="middle" x="123.91" y="-1175" font-family="Helvetica,sans-Serif" font-size="10.00">+battery_voltage</text>
<text text-anchor="middle" x="123.91" y="-1164" font-family="Helvetica,sans-Serif" font-size="10.00">...</text>
</g>
<!-- Node6 -->
<g id="node6" class="node">
<title>Node6</title>
<g id="a_node6"><a xlink:title=" ">
<polygon fill="none" stroke="#bfbfbf" points="221.41,-446.5 221.41,-503.5 266.41,-503.5 266.41,-446.5 221.41,-446.5"/>
<text text-anchor="middle" x="243.91" y="-491.5" font-family="Helvetica,sans-Serif" font-size="10.00">Timer</text>
<polyline fill="none" stroke="#bfbfbf" points="221.41,-484.5 266.41,-484.5 "/>
<text text-anchor="middle" x="243.91" y="-472.5" font-family="Helvetica,sans-Serif" font-size="10.00"> </text>
<polyline fill="none" stroke="#bfbfbf" points="221.41,-465.5 266.41,-465.5 "/>
<text text-anchor="middle" x="243.91" y="-453.5" font-family="Helvetica,sans-Serif" font-size="10.00"> </text>
</a>
</g>
</g>
<!-- Node6&#45;&gt;Node1 -->
<g id="edge6" class="edge">
<title>Node6&#45;&gt;Node1</title>
<path fill="none" stroke="#404040" d="M235.07,-446.44C224.45,-408.17 210.95,-337.68 235.91,-285 258.19,-238 303.13,-200.8 343.01,-175.14"/>
<polygon fill="none" stroke="#404040" points="343.13,-175.07 346.09,-168.5 353.3,-168.71 350.33,-175.28 343.13,-175.07"/>
<text text-anchor="middle" x="292.41" y="-299" font-family="Helvetica,sans-Serif" font-size="10.00"> &#45;print_timer_</text>
<text text-anchor="middle" x="292.41" y="-288" font-family="Helvetica,sans-Serif" font-size="10.00">&#45;state_machine_timer_</text>
</g>
<!-- Node7 -->
<g id="node7" class="node">
<title>Node7</title>
<g id="a_node7"><a xlink:title=" ">
<polygon fill="none" stroke="#bfbfbf" points="284.91,-446.5 284.91,-503.5 352.91,-503.5 352.91,-446.5 284.91,-446.5"/>
<text text-anchor="middle" x="318.91" y="-491.5" font-family="Helvetica,sans-Serif" font-size="10.00">Stopwatch</text>
<polyline fill="none" stroke="#bfbfbf" points="284.91,-484.5 352.91,-484.5 "/>
<text text-anchor="middle" x="318.91" y="-472.5" font-family="Helvetica,sans-Serif" font-size="10.00"> </text>
<polyline fill="none" stroke="#bfbfbf" points="284.91,-465.5 352.91,-465.5 "/>
<text text-anchor="middle" x="318.91" y="-453.5" font-family="Helvetica,sans-Serif" font-size="10.00"> </text>
</a>
</g>
</g>
<!-- Node7&#45;&gt;Node1 -->
<g id="edge7" class="edge">
<title>Node7&#45;&gt;Node1</title>
<path fill="none" stroke="#404040" d="M323.18,-446.39C329.29,-409.22 341.7,-341.29 358.91,-285 359.61,-282.73 360.33,-280.44 361.06,-278.14"/>
<polygon fill="none" stroke="#404040" points="361.11,-277.97 359.2,-271.02 364.87,-266.58 366.79,-273.53 361.11,-277.97"/>
<text text-anchor="middle" x="405.41" y="-293.5" font-family="Helvetica,sans-Serif" font-size="10.00"> &#45;flight_stopwatch_</text>
</g>
<!-- Node8 -->
<g id="node8" class="node">
<title>Node8</title>
<g id="a_node8"><a xlink:title=" ">
<polygon fill="none" stroke="#bfbfbf" points="370.91,-446.5 370.91,-503.5 464.91,-503.5 464.91,-446.5 370.91,-446.5"/>
<text text-anchor="middle" x="417.91" y="-491.5" font-family="Helvetica,sans-Serif" font-size="10.00">atomic&lt; bool &gt;</text>
<polyline fill="none" stroke="#bfbfbf" points="370.91,-484.5 464.91,-484.5 "/>
<text text-anchor="middle" x="417.91" y="-472.5" font-family="Helvetica,sans-Serif" font-size="10.00"> </text>
<polyline fill="none" stroke="#bfbfbf" points="370.91,-465.5 464.91,-465.5 "/>
<text text-anchor="middle" x="417.91" y="-453.5" font-family="Helvetica,sans-Serif" font-size="10.00"> </text>
</a>
</g>
</g>
<!-- Node8&#45;&gt;Node1 -->
<g id="edge9" class="edge">
<title>Node8&#45;&gt;Node1</title>
<path fill="none" stroke="#404040" d="M429.1,-446.37C442.61,-409.75 462.75,-343 455.91,-285 455.67,-282.94 455.41,-280.86 455.13,-278.77"/>
<polygon fill="none" stroke="#404040" points="455.11,-278.61 450.28,-273.25 453.36,-266.73 458.19,-272.09 455.11,-278.61"/>
<text text-anchor="middle" x="485.41" y="-293.5" font-family="Helvetica,sans-Serif" font-size="10.00"> &#45;stop_flag_</text>
</g>
<!-- Node9&#45;&gt;Node1 -->
<g id="edge10" class="edge">
<title>Node9&#45;&gt;Node1</title>
<path fill="none" stroke="#404040" d="M533.62,-325.41C528.9,-311.54 523.67,-297.88 517.91,-285 510.83,-269.16 502.2,-253.09 493.02,-237.64"/>
<polygon fill="none" stroke="#404040" points="492.82,-237.32 486.29,-234.27 486.59,-227.06 493.12,-230.11 492.82,-237.32"/>
<text text-anchor="middle" x="550.41" y="-293.5" font-family="Helvetica,sans-Serif" font-size="10.00"> &#45;physics_</text>
</g>
<!-- Node10 -->
<g id="node10" class="node">
<title>Node10</title>
<g id="a_node10"><a xlink:title=" ">
<polygon fill="none" stroke="#bfbfbf" points="434.41,-705.5 434.41,-762.5 505.41,-762.5 505.41,-705.5 434.41,-705.5"/>
<text text-anchor="middle" x="469.91" y="-750.5" font-family="Helvetica,sans-Serif" font-size="10.00">SimState &amp;</text>
<polyline fill="none" stroke="#bfbfbf" points="434.41,-743.5 505.41,-743.5 "/>
<text text-anchor="middle" x="469.91" y="-731.5" font-family="Helvetica,sans-Serif" font-size="10.00"> </text>
<polyline fill="none" stroke="#bfbfbf" points="434.41,-724.5 505.41,-724.5 "/>
<text text-anchor="middle" x="469.91" y="-712.5" font-family="Helvetica,sans-Serif" font-size="10.00"> </text>
</a>
</g>
</g>
<!-- Node10&#45;&gt;Node9 -->
<g id="edge13" class="edge">
<title>Node10&#45;&gt;Node9</title>
<path fill="none" stroke="#404040" d="M479.43,-705.32C485.65,-687.47 494.05,-663.78 501.91,-643 502.76,-640.75 503.62,-638.49 504.49,-636.22"/>
<polygon fill="none" stroke="#404040" points="504.59,-635.96 503,-628.92 508.88,-624.75 510.47,-631.79 504.59,-635.96"/>
<text text-anchor="middle" x="520.41" y="-646" font-family="Helvetica,sans-Serif" font-size="10.00"> &#45;state_</text>
</g>
<!-- Node11 -->
<g id="node11" class="node">
<title>Node11</title>
<g id="a_node11"><a xlink:title=" ">
<polygon fill="none" stroke="#bfbfbf" points="523.91,-705.5 523.91,-762.5 561.91,-762.5 561.91,-705.5 523.91,-705.5"/>
<text text-anchor="middle" x="542.91" y="-750.5" font-family="Helvetica,sans-Serif" font-size="10.00">bool</text>
<polyline fill="none" stroke="#bfbfbf" points="523.91,-743.5 561.91,-743.5 "/>
<text text-anchor="middle" x="542.91" y="-731.5" font-family="Helvetica,sans-Serif" font-size="10.00"> </text>
<polyline fill="none" stroke="#bfbfbf" points="523.91,-724.5 561.91,-724.5 "/>
<text text-anchor="middle" x="542.91" y="-712.5" font-family="Helvetica,sans-Serif" font-size="10.00"> </text>
</a>
</g>
</g>
<!-- Node11&#45;&gt;Node9 -->
<g id="edge14" class="edge">
<title>Node11&#45;&gt;Node9</title>
<path fill="none" stroke="#404040" d="M542.24,-705.38C542.05,-687.55 542.24,-663.87 543.91,-643 544.08,-640.94 544.25,-638.87 544.44,-636.78"/>
<polygon fill="none" stroke="#404040" points="544.44,-636.7 541.03,-630.34 545.59,-624.75 549,-631.1 544.44,-636.7"/>
<text text-anchor="middle" x="583.41" y="-646" font-family="Helvetica,sans-Serif" font-size="10.00"> &#45;launch_signal_</text>
</g>
<!-- Node12&#45;&gt;Node1 -->
<g id="edge21" class="edge">
<title>Node12&#45;&gt;Node1</title>
<path fill="none" stroke="#404040" d="M672.9,-672.18C681.54,-573.62 693.44,-384.09 663.91,-325 628.93,-255 554.8,-202.99 497.38,-171.16"/>
<polygon fill="none" stroke="#404040" points="497.04,-170.98 489.86,-171.64 486.5,-165.26 493.68,-164.61 497.04,-170.98"/>
<text text-anchor="middle" x="719.41" y="-472.5" font-family="Helvetica,sans-Serif" font-size="10.00"> &#45;environment_</text>
</g>
<!-- Node12&#45;&gt;Node9 -->
<g id="edge15" class="edge">
<title>Node12&#45;&gt;Node9</title>
<path fill="none" stroke="#404040" d="M643.81,-672.42C639.48,-661.06 634.77,-648.7 629.89,-635.9"/>
<polygon fill="none" stroke="#404040" points="629.83,-635.76 623.96,-631.58 625.56,-624.55 631.43,-628.73 629.83,-635.76"/>
<text text-anchor="middle" x="650.41" y="-646" font-family="Helvetica,sans-Serif" font-size="10.00"> &#45;env_</text>
</g>
<!-- Node13&#45;&gt;Node12 -->
<g id="edge17" class="edge">
<title>Node13&#45;&gt;Node12</title>
<path fill="none" stroke="#404040" d="M678.84,-1041.38C676.87,-990.71 672.61,-881.34 669.75,-807.94"/>
<polygon fill="none" stroke="#404040" points="669.74,-807.57 665.51,-801.74 669.27,-795.58 673.5,-801.42 669.74,-807.57"/>
<text text-anchor="middle" x="704.91" y="-894" font-family="Helvetica,sans-Serif" font-size="10.00"> &#45;env_data_</text>
</g>
<!-- Node14 -->
<g id="node14" class="node">
<title>Node14</title>
<g id="a_node14"><a xlink:title=" ">
<polygon fill="none" stroke="#bfbfbf" points="783.91,-446.5 783.91,-503.5 831.91,-503.5 831.91,-446.5 783.91,-446.5"/>
<text text-anchor="middle" x="807.91" y="-491.5" font-family="Helvetica,sans-Serif" font-size="10.00">thread</text>
<polyline fill="none" stroke="#bfbfbf" points="783.91,-484.5 831.91,-484.5 "/>
<text text-anchor="middle" x="807.91" y="-472.5" font-family="Helvetica,sans-Serif" font-size="10.00"> </text>
<polyline fill="none" stroke="#bfbfbf" points="783.91,-465.5 831.91,-465.5 "/>
<text text-anchor="middle" x="807.91" y="-453.5" font-family="Helvetica,sans-Serif" font-size="10.00"> </text>
</a>
</g>
</g>
<!-- Node14&#45;&gt;Node1 -->
<g id="edge20" class="edge">
<title>Node14&#45;&gt;Node1</title>
<path fill="none" stroke="#404040" d="M806.97,-446.38C804.6,-414.32 796.58,-361.23 769.91,-325 702.98,-234.05 579.12,-181.64 498.13,-155.59"/>
<polygon fill="none" stroke="#404040" points="497.95,-155.54 491.03,-157.55 486.5,-151.94 493.43,-149.92 497.95,-155.54"/>
<text text-anchor="middle" x="782.41" y="-293.5" font-family="Helvetica,sans-Serif" font-size="10.00"> &#45;sim_thread_</text>
</g>
<!-- Node15 -->
<g id="node15" class="node">
<title>Node15</title>
<g id="a_node15"><a xlink:title=" ">
<polygon fill="none" stroke="#bfbfbf" points="858.41,-446.5 858.41,-503.5 919.41,-503.5 919.41,-446.5 858.41,-446.5"/>
<text text-anchor="middle" x="888.91" y="-491.5" font-family="Helvetica,sans-Serif" font-size="10.00">SimState</text>
<polyline fill="none" stroke="#bfbfbf" points="858.41,-484.5 919.41,-484.5 "/>
<text text-anchor="middle" x="888.91" y="-472.5" font-family="Helvetica,sans-Serif" font-size="10.00"> </text>
<polyline fill="none" stroke="#bfbfbf" points="858.41,-465.5 919.41,-465.5 "/>
<text text-anchor="middle" x="888.91" y="-453.5" font-family="Helvetica,sans-Serif" font-size="10.00"> </text>
</a>
</g>
</g>
<!-- Node15&#45;&gt;Node1 -->
<g id="edge22" class="edge">
<title>Node15&#45;&gt;Node1</title>
<path fill="none" stroke="#404040" d="M886.89,-446.3C882.33,-404.86 867.56,-327.09 819.91,-285 727.37,-203.24 586.11,-164.18 498.57,-146.86"/>
<polygon fill="none" stroke="#404040" points="498.37,-146.82 491.73,-149.61 486.59,-144.55 493.24,-141.76 498.37,-146.82"/>
<text text-anchor="middle" x="856.41" y="-293.5" font-family="Helvetica,sans-Serif" font-size="10.00"> &#45;state_</text>
</g>
</g>
</svg>
