<?xml version="1.0" encoding="UTF-8" standalone="no"?>
<!DOCTYPE svg PUBLIC "-//W3C//DTD SVG 1.1//EN"
 "http://www.w3.org/Graphics/SVG/1.1/DTD/svg11.dtd">
<!-- Generated by graphviz version 2.43.0 (0)
 -->
<!-- Title: bit::BuiltInTest::start Pages: 1 -->
<svg width="529pt" height="27pt"
 viewBox="0.00 0.00 529.00 27.00" xmlns="http://www.w3.org/2000/svg" xmlns:xlink="http://www.w3.org/1999/xlink">
<g id="graph0" class="graph" transform="scale(1 1) rotate(0) translate(4 23)">
<title>bit::BuiltInTest::start</title>
<!-- Node1 -->
<g id="Node000001" class="node">
<title>Node1</title>
<g id="a_Node000001"><a xlink:title=" ">
<polygon fill="#999999" stroke="#666666" points="521,-19 406,-19 406,0 521,0 521,-19"/>
<text text-anchor="middle" x="463.5" y="-7" font-family="Helvetica,sans-Serif" font-size="10.00">bit::BuiltInTest::start</text>
</a>
</g>
</g>
<!-- Node2 -->
<g id="Node000002" class="node">
<title>Node2</title>
<g id="a_Node000002"><a xlink:href="classFlightRunner.html#ad17d6bcd13dcb824062d97b36ec7fa96" target="_top" xlink:title="Process commands that are sent to the flight runner.">
<polygon fill="white" stroke="#666666" points="370,-19 197,-19 197,0 370,0 370,-19"/>
<text text-anchor="middle" x="283.5" y="-7" font-family="Helvetica,sans-Serif" font-size="10.00">FlightRunner::processCommand</text>
</a>
</g>
</g>
<!-- Node1&#45;&gt;Node2 -->
<g id="edge1_Node000001_Node000002" class="edge">
<title>Node1&#45;&gt;Node2</title>
<g id="a_edge1_Node000001_Node000002"><a xlink:title=" ">
<path fill="none" stroke="#63b8ff" d="M395.44,-9.5C387.22,-9.5 378.74,-9.5 370.29,-9.5"/>
<polygon fill="#63b8ff" stroke="#63b8ff" points="395.69,-13 405.69,-9.5 395.69,-6 395.69,-13"/>
</a>
</g>
</g>
<!-- Node3 -->
<g id="Node000003" class="node">
<title>Node3</title>
<g id="a_Node000003"><a xlink:href="classFlightRunner.html#a6407ba5e7fca2d91a216ab35e58fd7b3" target="_top" xlink:title="Sends a command to the proper module.">
<polygon fill="white" stroke="#666666" points="161,-19 0,-19 0,0 161,0 161,-19"/>
<text text-anchor="middle" x="80.5" y="-7" font-family="Helvetica,sans-Serif" font-size="10.00">FlightRunner::routeCommand</text>
</a>
</g>
</g>
<!-- Node2&#45;&gt;Node3 -->
<g id="edge2_Node000002_Node000003" class="edge">
<title>Node2&#45;&gt;Node3</title>
<g id="a_edge2_Node000002_Node000003"><a xlink:title=" ">
<path fill="none" stroke="#63b8ff" d="M186.91,-9.5C178.31,-9.5 169.66,-9.5 161.21,-9.5"/>
<polygon fill="#63b8ff" stroke="#63b8ff" points="186.97,-13 196.97,-9.5 186.97,-6 186.97,-13"/>
</a>
</g>
</g>
</g>
</svg>
