<?xml version="1.0" encoding="UTF-8" standalone="no"?>
<!DOCTYPE svg PUBLIC "-//W3C//DTD SVG 1.1//EN"
 "http://www.w3.org/Graphics/SVG/1.1/DTD/svg11.dtd">
<!-- Generated by graphviz version 2.43.0 (0)
 -->
<!-- Title: giraffe::gdl::PhysicalLayer Pages: 1 -->
<svg width="375pt" height="595pt"
 viewBox="0.00 0.00 375.00 595.00" xmlns="http://www.w3.org/2000/svg" xmlns:xlink="http://www.w3.org/1999/xlink">
<g id="graph0" class="graph" transform="scale(1 1) rotate(0) translate(4 591)">
<title>giraffe::gdl::PhysicalLayer</title>
<!-- Node1 -->
<g id="node1" class="node">
<title>Node1</title>
<g id="a_node1"><a xlink:title="The physical layer of the Giraffe Data Link.">
<polygon fill="#bfbfbf" stroke="black" points="84.5,-375.5 84.5,-586.5 227.5,-586.5 227.5,-375.5 84.5,-375.5"/>
<text text-anchor="middle" x="156" y="-574.5" font-family="Helvetica,sans-Serif" font-size="10.00">giraffe::gdl::PhysicalLayer</text>
<polyline fill="none" stroke="black" points="84.5,-567.5 227.5,-567.5 "/>
<text text-anchor="start" x="92.5" y="-555.5" font-family="Helvetica,sans-Serif" font-size="10.00"># config_</text>
<text text-anchor="start" x="92.5" y="-544.5" font-family="Helvetica,sans-Serif" font-size="10.00">&#45; mode_</text>
<text text-anchor="start" x="92.5" y="-533.5" font-family="Helvetica,sans-Serif" font-size="10.00">&#45; state_</text>
<polyline fill="none" stroke="black" points="84.5,-526.5 227.5,-526.5 "/>
<text text-anchor="start" x="92.5" y="-514.5" font-family="Helvetica,sans-Serif" font-size="10.00">+ PhysicalLayer()</text>
<text text-anchor="start" x="92.5" y="-503.5" font-family="Helvetica,sans-Serif" font-size="10.00">+ ~PhysicalLayer()</text>
<text text-anchor="start" x="92.5" y="-492.5" font-family="Helvetica,sans-Serif" font-size="10.00">+ changeMode()</text>
<text text-anchor="start" x="92.5" y="-481.5" font-family="Helvetica,sans-Serif" font-size="10.00">+ disable()</text>
<text text-anchor="start" x="92.5" y="-470.5" font-family="Helvetica,sans-Serif" font-size="10.00">+ enable()</text>
<text text-anchor="start" x="92.5" y="-459.5" font-family="Helvetica,sans-Serif" font-size="10.00">+ getMode()</text>
<text text-anchor="start" x="92.5" y="-448.5" font-family="Helvetica,sans-Serif" font-size="10.00">+ getRssi()</text>
<text text-anchor="start" x="92.5" y="-437.5" font-family="Helvetica,sans-Serif" font-size="10.00">+ getState()</text>
<text text-anchor="start" x="92.5" y="-426.5" font-family="Helvetica,sans-Serif" font-size="10.00">+ startTransmit()</text>
<text text-anchor="start" x="92.5" y="-415.5" font-family="Helvetica,sans-Serif" font-size="10.00">+ stopTransmit()</text>
<text text-anchor="start" x="92.5" y="-404.5" font-family="Helvetica,sans-Serif" font-size="10.00">+ update()</text>
<text text-anchor="start" x="92.5" y="-393.5" font-family="Helvetica,sans-Serif" font-size="10.00"># setMode()</text>
<text text-anchor="start" x="92.5" y="-382.5" font-family="Helvetica,sans-Serif" font-size="10.00"># setState()</text>
</a>
</g>
</g>
<!-- Node2 -->
<g id="node2" class="node">
<title>Node2</title>
<g id="a_node2"><a xlink:href="classgiraffe_1_1gdl_1_1SoftwarePhysicalLayer.html" target="_top" xlink:title=" ">
<polygon fill="none" stroke="black" points="0,-182.5 0,-338.5 158,-338.5 158,-182.5 0,-182.5"/>
<text text-anchor="start" x="8" y="-326.5" font-family="Helvetica,sans-Serif" font-size="10.00">giraffe::gdl::SoftwarePhysical</text>
<text text-anchor="middle" x="79" y="-315.5" font-family="Helvetica,sans-Serif" font-size="10.00">Layer</text>
<polyline fill="none" stroke="black" points="0,-308.5 158,-308.5 "/>
<text text-anchor="middle" x="79" y="-296.5" font-family="Helvetica,sans-Serif" font-size="10.00"> </text>
<polyline fill="none" stroke="black" points="0,-289.5 158,-289.5 "/>
<text text-anchor="start" x="8" y="-277.5" font-family="Helvetica,sans-Serif" font-size="10.00">+ SoftwarePhysicalLayer()</text>
<text text-anchor="start" x="8" y="-266.5" font-family="Helvetica,sans-Serif" font-size="10.00">+ ~SoftwarePhysicalLayer()</text>
<text text-anchor="start" x="8" y="-255.5" font-family="Helvetica,sans-Serif" font-size="10.00">+ changeMode()</text>
<text text-anchor="start" x="8" y="-244.5" font-family="Helvetica,sans-Serif" font-size="10.00">+ disable()</text>
<text text-anchor="start" x="8" y="-233.5" font-family="Helvetica,sans-Serif" font-size="10.00">+ enable()</text>
<text text-anchor="start" x="8" y="-222.5" font-family="Helvetica,sans-Serif" font-size="10.00">+ getRssi()</text>
<text text-anchor="start" x="8" y="-211.5" font-family="Helvetica,sans-Serif" font-size="10.00">+ startTransmit()</text>
<text text-anchor="start" x="8" y="-200.5" font-family="Helvetica,sans-Serif" font-size="10.00">+ stopTransmit()</text>
<text text-anchor="start" x="8" y="-189.5" font-family="Helvetica,sans-Serif" font-size="10.00">+ update()</text>
</a>
</g>
</g>
<!-- Node1&#45;&gt;Node2 -->
<g id="edge1" class="edge">
<title>Node1&#45;&gt;Node2</title>
<path fill="none" stroke="midnightblue" d="M115.7,-365.65C112.47,-356.47 109.25,-347.33 106.14,-338.51"/>
<polygon fill="none" stroke="midnightblue" points="112.45,-366.96 119.08,-375.23 119.06,-364.64 112.45,-366.96"/>
</g>
<!-- Node3 -->
<g id="node3" class="node">
<title>Node3</title>
<g id="a_node3"><a xlink:href="classgiraffe_1_1radio_1_1Radio.html" target="_top" xlink:title=" ">
<polygon fill="none" stroke="black" points="176.5,-188 176.5,-333 289.5,-333 289.5,-188 176.5,-188"/>
<text text-anchor="middle" x="233" y="-321" font-family="Helvetica,sans-Serif" font-size="10.00">giraffe::radio::Radio</text>
<polyline fill="none" stroke="black" points="176.5,-314 289.5,-314 "/>
<text text-anchor="middle" x="233" y="-302" font-family="Helvetica,sans-Serif" font-size="10.00"> </text>
<polyline fill="none" stroke="black" points="176.5,-295 289.5,-295 "/>
<text text-anchor="start" x="184.5" y="-283" font-family="Helvetica,sans-Serif" font-size="10.00">+ Radio()</text>
<text text-anchor="start" x="184.5" y="-272" font-family="Helvetica,sans-Serif" font-size="10.00">+ ~Radio()</text>
<text text-anchor="start" x="184.5" y="-261" font-family="Helvetica,sans-Serif" font-size="10.00">+ changeMode()</text>
<text text-anchor="start" x="184.5" y="-250" font-family="Helvetica,sans-Serif" font-size="10.00">+ disable()</text>
<text text-anchor="start" x="184.5" y="-239" font-family="Helvetica,sans-Serif" font-size="10.00">+ enable()</text>
<text text-anchor="start" x="184.5" y="-228" font-family="Helvetica,sans-Serif" font-size="10.00">+ getRssi()</text>
<text text-anchor="start" x="184.5" y="-217" font-family="Helvetica,sans-Serif" font-size="10.00">+ startTransmit()</text>
<text text-anchor="start" x="184.5" y="-206" font-family="Helvetica,sans-Serif" font-size="10.00">+ stopTransmit()</text>
<text text-anchor="start" x="184.5" y="-195" font-family="Helvetica,sans-Serif" font-size="10.00">+ update()</text>
</a>
</g>
</g>
<!-- Node1&#45;&gt;Node3 -->
<g id="edge2" class="edge">
<title>Node1&#45;&gt;Node3</title>
<path fill="none" stroke="midnightblue" d="M196.33,-365.55C200.21,-354.54 204.07,-343.6 207.74,-333.18"/>
<polygon fill="none" stroke="midnightblue" points="192.94,-364.64 192.92,-375.23 199.55,-366.96 192.94,-364.64"/>
</g>
<!-- Node4 -->
<g id="node4" class="node">
<title>Node4</title>
<g id="a_node4"><a xlink:href="classgiraffe_1_1radio_1_1Sa868.html" target="_top" xlink:title=" ">
<polygon fill="none" stroke="black" points="105.5,-22.5 105.5,-123.5 220.5,-123.5 220.5,-22.5 105.5,-22.5"/>
<text text-anchor="middle" x="163" y="-111.5" font-family="Helvetica,sans-Serif" font-size="10.00">giraffe::radio::Sa868</text>
<polyline fill="none" stroke="black" points="105.5,-104.5 220.5,-104.5 "/>
<text text-anchor="middle" x="163" y="-92.5" font-family="Helvetica,sans-Serif" font-size="10.00"> </text>
<polyline fill="none" stroke="black" points="105.5,-85.5 220.5,-85.5 "/>
<text text-anchor="start" x="113.5" y="-73.5" font-family="Helvetica,sans-Serif" font-size="10.00">+ Sa868()</text>
<text text-anchor="start" x="113.5" y="-62.5" font-family="Helvetica,sans-Serif" font-size="10.00">+ ~Sa868()</text>
<text text-anchor="start" x="113.5" y="-51.5" font-family="Helvetica,sans-Serif" font-size="10.00">+ disable()</text>
<text text-anchor="start" x="113.5" y="-40.5" font-family="Helvetica,sans-Serif" font-size="10.00">+ enable()</text>
<text text-anchor="start" x="113.5" y="-29.5" font-family="Helvetica,sans-Serif" font-size="10.00">+ update()</text>
</a>
</g>
</g>
<!-- Node3&#45;&gt;Node4 -->
<g id="edge3" class="edge">
<title>Node3&#45;&gt;Node4</title>
<path fill="none" stroke="midnightblue" d="M202.4,-178.41C195.38,-159.8 188.11,-140.54 181.76,-123.71"/>
<polygon fill="none" stroke="midnightblue" points="199.13,-179.66 205.94,-187.78 205.68,-177.19 199.13,-179.66"/>
</g>
<!-- Node5 -->
<g id="node5" class="node">
<title>Node5</title>
<g id="a_node5"><a xlink:href="classgiraffe_1_1radio_1_1SoftwareRadio.html" target="_top" xlink:title=" ">
<polygon fill="none" stroke="black" points="239,-0.5 239,-145.5 367,-145.5 367,-0.5 239,-0.5"/>
<text text-anchor="start" x="247" y="-133.5" font-family="Helvetica,sans-Serif" font-size="10.00">giraffe::radio::Software</text>
<text text-anchor="middle" x="303" y="-122.5" font-family="Helvetica,sans-Serif" font-size="10.00">Radio</text>
<polyline fill="none" stroke="black" points="239,-115.5 367,-115.5 "/>
<text text-anchor="middle" x="303" y="-103.5" font-family="Helvetica,sans-Serif" font-size="10.00"> </text>
<polyline fill="none" stroke="black" points="239,-96.5 367,-96.5 "/>
<text text-anchor="start" x="247" y="-84.5" font-family="Helvetica,sans-Serif" font-size="10.00">+ SoftwareRadio()</text>
<text text-anchor="start" x="247" y="-73.5" font-family="Helvetica,sans-Serif" font-size="10.00">+ ~SoftwareRadio()</text>
<text text-anchor="start" x="247" y="-62.5" font-family="Helvetica,sans-Serif" font-size="10.00">+ changeMode()</text>
<text text-anchor="start" x="247" y="-51.5" font-family="Helvetica,sans-Serif" font-size="10.00">+ disable()</text>
<text text-anchor="start" x="247" y="-40.5" font-family="Helvetica,sans-Serif" font-size="10.00">+ enable()</text>
<text text-anchor="start" x="247" y="-29.5" font-family="Helvetica,sans-Serif" font-size="10.00">+ startTransmit()</text>
<text text-anchor="start" x="247" y="-18.5" font-family="Helvetica,sans-Serif" font-size="10.00">+ stopTransmit()</text>
<text text-anchor="start" x="247" y="-7.5" font-family="Helvetica,sans-Serif" font-size="10.00">+ update()</text>
</a>
</g>
</g>
<!-- Node3&#45;&gt;Node5 -->
<g id="edge4" class="edge">
<title>Node3&#45;&gt;Node5</title>
<path fill="none" stroke="midnightblue" d="M263.65,-178.27C267.77,-167.37 271.96,-156.25 276.01,-145.53"/>
<polygon fill="none" stroke="midnightblue" points="260.32,-177.19 260.06,-187.78 266.87,-179.66 260.32,-177.19"/>
</g>
</g>
</svg>
