<?xml version="1.0" encoding="UTF-8" standalone="no"?>
<!DOCTYPE svg PUBLIC "-//W3C//DTD SVG 1.1//EN"
 "http://www.w3.org/Graphics/SVG/1.1/DTD/svg11.dtd">
<!-- Generated by graphviz version 2.43.0 (0)
 -->
<!-- Title: extension::Ds18b20::init Pages: 1 -->
<svg width="323pt" height="127pt"
 viewBox="0.00 0.00 323.00 127.00" xmlns="http://www.w3.org/2000/svg" xmlns:xlink="http://www.w3.org/1999/xlink">
<g id="graph0" class="graph" transform="scale(1 1) rotate(0) translate(4 123)">
<title>extension::Ds18b20::init</title>
<!-- Node1 -->
<g id="node1" class="node">
<title>Node1</title>
<g id="a_node1"><a xlink:title=" ">
<polygon fill="#bfbfbf" stroke="black" points="0,-44.5 0,-74.5 113,-74.5 113,-44.5 0,-44.5"/>
<text text-anchor="start" x="8" y="-62.5" font-family="Helvetica,sans-Serif" font-size="10.00">extension::Ds18b20</text>
<text text-anchor="middle" x="56.5" y="-51.5" font-family="Helvetica,sans-Serif" font-size="10.00">::init</text>
</a>
</g>
</g>
<!-- Node2 -->
<g id="node2" class="node">
<title>Node2</title>
<g id="a_node2"><a xlink:href="classOneWireInterface.html#a91e22e95253f29ef31c534d4540409c7" target="_top" xlink:title=" ">
<polygon fill="none" stroke="black" points="162,-88.5 162,-118.5 302,-118.5 302,-88.5 162,-88.5"/>
<text text-anchor="start" x="170" y="-106.5" font-family="Helvetica,sans-Serif" font-size="10.00">OneWireInterface::device</text>
<text text-anchor="middle" x="232" y="-95.5" font-family="Helvetica,sans-Serif" font-size="10.00">Exists</text>
</a>
</g>
</g>
<!-- Node1&#45;&gt;Node2 -->
<g id="edge1" class="edge">
<title>Node1&#45;&gt;Node2</title>
<path fill="none" stroke="midnightblue" d="M113.35,-73.66C128.77,-77.58 145.7,-81.87 161.78,-85.95"/>
<polygon fill="midnightblue" stroke="midnightblue" points="161.11,-89.39 171.66,-88.45 162.83,-82.6 161.11,-89.39"/>
</g>
<!-- Node3 -->
<g id="node3" class="node">
<title>Node3</title>
<g id="a_node3"><a xlink:href="classOneWireInterface.html#ac2359dc488e64622d6e07173e07316b1" target="_top" xlink:title=" ">
<polygon fill="none" stroke="black" points="149,-50 149,-69 315,-69 315,-50 149,-50"/>
<text text-anchor="middle" x="232" y="-57" font-family="Helvetica,sans-Serif" font-size="10.00">OneWireInterface::setDeviceId</text>
</a>
</g>
</g>
<!-- Node1&#45;&gt;Node3 -->
<g id="edge2" class="edge">
<title>Node1&#45;&gt;Node3</title>
<path fill="none" stroke="midnightblue" d="M113.35,-59.5C121.47,-59.5 130,-59.5 138.61,-59.5"/>
<polygon fill="midnightblue" stroke="midnightblue" points="138.72,-63 148.72,-59.5 138.72,-56 138.72,-63"/>
</g>
<!-- Node4 -->
<g id="node4" class="node">
<title>Node4</title>
<g id="a_node4"><a xlink:href="namespaceextension.html#a9d808790534fe424f5ecb8bedb284af6" target="_top" xlink:title=" ">
<polygon fill="none" stroke="black" points="163,-0.5 163,-30.5 301,-30.5 301,-0.5 163,-0.5"/>
<text text-anchor="start" x="171" y="-18.5" font-family="Helvetica,sans-Serif" font-size="10.00">extension::validateSerial</text>
<text text-anchor="middle" x="232" y="-7.5" font-family="Helvetica,sans-Serif" font-size="10.00">Number</text>
</a>
</g>
</g>
<!-- Node1&#45;&gt;Node4 -->
<g id="edge3" class="edge">
<title>Node1&#45;&gt;Node4</title>
<path fill="none" stroke="midnightblue" d="M113.35,-45.34C128.77,-41.42 145.7,-37.13 161.78,-33.05"/>
<polygon fill="midnightblue" stroke="midnightblue" points="162.83,-36.4 171.66,-30.55 161.11,-29.61 162.83,-36.4"/>
</g>
</g>
</svg>
