<?xml version="1.0" encoding="UTF-8" standalone="no"?>
<!DOCTYPE svg PUBLIC "-//W3C//DTD SVG 1.1//EN"
 "http://www.w3.org/Graphics/SVG/1.1/DTD/svg11.dtd">
<!-- Generated by graphviz version 2.43.0 (0)
 -->
<!-- Title: GfsMetaData::validateSettingMetadata Pages: 1 -->
<svg width="360pt" height="235pt"
 viewBox="0.00 0.00 360.00 235.00" xmlns="http://www.w3.org/2000/svg" xmlns:xlink="http://www.w3.org/1999/xlink">
<g id="graph0" class="graph" transform="scale(1 1) rotate(0) translate(4 231)">
<title>GfsMetaData::validateSettingMetadata</title>
<!-- Node1 -->
<g id="node1" class="node">
<title>Node1</title>
<g id="a_node1"><a xlink:title=" ">
<polygon fill="#bfbfbf" stroke="black" points="0,-98.5 0,-128.5 161,-128.5 161,-98.5 0,-98.5"/>
<text text-anchor="start" x="8" y="-116.5" font-family="Helvetica,sans-Serif" font-size="10.00">GfsMetaData::validateSetting</text>
<text text-anchor="middle" x="80.5" y="-105.5" font-family="Helvetica,sans-Serif" font-size="10.00">Metadata</text>
</a>
</g>
</g>
<!-- Node2 -->
<g id="node2" class="node">
<title>Node2</title>
<g id="a_node2"><a xlink:href="classGfsMetaData.html#a754c1b21d5b69eeccef6f4d5ab94b544" target="_top" xlink:title=" ">
<polygon fill="none" stroke="black" points="200,-196.5 200,-226.5 349,-226.5 349,-196.5 200,-196.5"/>
<text text-anchor="start" x="208" y="-214.5" font-family="Helvetica,sans-Serif" font-size="10.00">GfsMetaData::validateBool</text>
<text text-anchor="middle" x="274.5" y="-203.5" font-family="Helvetica,sans-Serif" font-size="10.00">TypeSetting</text>
</a>
</g>
</g>
<!-- Node1&#45;&gt;Node2 -->
<g id="edge1" class="edge">
<title>Node1&#45;&gt;Node2</title>
<path fill="none" stroke="midnightblue" d="M101.41,-128.6C123.71,-144.94 161.4,-170.87 197,-187.5 201.08,-189.41 205.36,-191.22 209.71,-192.92"/>
<polygon fill="midnightblue" stroke="midnightblue" points="208.72,-196.29 219.31,-196.48 211.15,-189.72 208.72,-196.29"/>
</g>
<!-- Node3 -->
<g id="node3" class="node">
<title>Node3</title>
<g id="a_node3"><a xlink:href="classGfsMetaData.html#a450e90cea00e21b8d32a0be7b06ec701" target="_top" xlink:title=" ">
<polygon fill="none" stroke="black" points="197,-147.5 197,-177.5 352,-177.5 352,-147.5 197,-147.5"/>
<text text-anchor="start" x="205" y="-165.5" font-family="Helvetica,sans-Serif" font-size="10.00">GfsMetaData::validateEnum</text>
<text text-anchor="middle" x="274.5" y="-154.5" font-family="Helvetica,sans-Serif" font-size="10.00">TypeSetting</text>
</a>
</g>
</g>
<!-- Node1&#45;&gt;Node3 -->
<g id="edge2" class="edge">
<title>Node1&#45;&gt;Node3</title>
<path fill="none" stroke="midnightblue" d="M140.41,-128.53C160.78,-133.73 183.77,-139.6 204.85,-144.98"/>
<polygon fill="midnightblue" stroke="midnightblue" points="204.15,-148.41 214.7,-147.49 205.88,-141.63 204.15,-148.41"/>
</g>
<!-- Node4 -->
<g id="node4" class="node">
<title>Node4</title>
<g id="a_node4"><a xlink:href="classGfsMetaData.html#ac9b274b3a5672a4be4b16b437a1b7162" target="_top" xlink:title=" ">
<polygon fill="none" stroke="black" points="198.5,-98.5 198.5,-128.5 350.5,-128.5 350.5,-98.5 198.5,-98.5"/>
<text text-anchor="start" x="206.5" y="-116.5" font-family="Helvetica,sans-Serif" font-size="10.00">GfsMetaData::validateFloat</text>
<text text-anchor="middle" x="274.5" y="-105.5" font-family="Helvetica,sans-Serif" font-size="10.00">TypeSetting</text>
</a>
</g>
</g>
<!-- Node1&#45;&gt;Node4 -->
<g id="edge3" class="edge">
<title>Node1&#45;&gt;Node4</title>
<path fill="none" stroke="midnightblue" d="M161.26,-113.5C170.17,-113.5 179.27,-113.5 188.24,-113.5"/>
<polygon fill="midnightblue" stroke="midnightblue" points="188.3,-117 198.3,-113.5 188.3,-110 188.3,-117"/>
</g>
<!-- Node5 -->
<g id="node5" class="node">
<title>Node5</title>
<g id="a_node5"><a xlink:href="classGfsMetaData.html#ae25f887681d06aa90fe485cbbe7f61c1" target="_top" xlink:title=" ">
<polygon fill="none" stroke="black" points="204.5,-49.5 204.5,-79.5 344.5,-79.5 344.5,-49.5 204.5,-49.5"/>
<text text-anchor="start" x="212.5" y="-67.5" font-family="Helvetica,sans-Serif" font-size="10.00">GfsMetaData::validateInt</text>
<text text-anchor="middle" x="274.5" y="-56.5" font-family="Helvetica,sans-Serif" font-size="10.00">TypeSetting</text>
</a>
</g>
</g>
<!-- Node1&#45;&gt;Node5 -->
<g id="edge4" class="edge">
<title>Node1&#45;&gt;Node5</title>
<path fill="none" stroke="midnightblue" d="M140.41,-98.47C160.78,-93.27 183.77,-87.4 204.85,-82.02"/>
<polygon fill="midnightblue" stroke="midnightblue" points="205.88,-85.37 214.7,-79.51 204.15,-78.59 205.88,-85.37"/>
</g>
<!-- Node6 -->
<g id="node6" class="node">
<title>Node6</title>
<g id="a_node6"><a xlink:href="classGfsMetaData.html#a7e42aa23dd932ee6fe32848278b5489c" target="_top" xlink:title=" ">
<polygon fill="none" stroke="black" points="197,-0.5 197,-30.5 352,-30.5 352,-0.5 197,-0.5"/>
<text text-anchor="start" x="205" y="-18.5" font-family="Helvetica,sans-Serif" font-size="10.00">GfsMetaData::validateString</text>
<text text-anchor="middle" x="274.5" y="-7.5" font-family="Helvetica,sans-Serif" font-size="10.00">TypeSetting</text>
</a>
</g>
</g>
<!-- Node1&#45;&gt;Node6 -->
<g id="edge5" class="edge">
<title>Node1&#45;&gt;Node6</title>
<path fill="none" stroke="midnightblue" d="M101.89,-98.41C124.3,-82.36 161.8,-57.06 197,-40.5 201.7,-38.29 206.65,-36.19 211.67,-34.23"/>
<polygon fill="midnightblue" stroke="midnightblue" points="213.24,-37.38 221.38,-30.6 210.79,-30.82 213.24,-37.38"/>
</g>
</g>
</svg>
