<?xml version="1.0" encoding="UTF-8" standalone="no"?>
<!DOCTYPE svg PUBLIC "-//W3C//DTD SVG 1.1//EN"
 "http://www.w3.org/Graphics/SVG/1.1/DTD/svg11.dtd">
<!-- Generated by graphviz version 2.43.0 (0)
 -->
<!-- Title: FakeSharedData::hasLogItems Pages: 1 -->
<svg width="860pt" height="110pt"
 viewBox="0.00 0.00 860.00 110.00" xmlns="http://www.w3.org/2000/svg" xmlns:xlink="http://www.w3.org/1999/xlink">
<g id="graph0" class="graph" transform="scale(1 1) rotate(0) translate(4 106)">
<title>FakeSharedData::hasLogItems</title>
<!-- Node1 -->
<g id="node1" class="node">
<title>Node1</title>
<g id="a_node1"><a xlink:title=" ">
<polygon fill="#bfbfbf" stroke="black" points="688,-52 688,-71 852,-71 852,-52 688,-52"/>
<text text-anchor="middle" x="770" y="-59" font-family="Helvetica,sans-Serif" font-size="10.00">FakeSharedData::hasLogItems</text>
</a>
</g>
</g>
<!-- Node2 -->
<g id="node2" class="node">
<title>Node2</title>
<g id="a_node2"><a xlink:href="classFlightPhaseManagerTest.html#a0808c616cf926a2aa7d25deb64d5f7f0" target="_top" xlink:title=" ">
<polygon fill="none" stroke="black" points="516,-71.5 516,-101.5 652,-101.5 652,-71.5 516,-71.5"/>
<text text-anchor="start" x="524" y="-89.5" font-family="Helvetica,sans-Serif" font-size="10.00">FlightPhaseManagerTest</text>
<text text-anchor="middle" x="584" y="-78.5" font-family="Helvetica,sans-Serif" font-size="10.00">::validateHasError</text>
</a>
</g>
</g>
<!-- Node1&#45;&gt;Node2 -->
<g id="edge1" class="edge">
<title>Node1&#45;&gt;Node2</title>
<path fill="none" stroke="midnightblue" d="M688.74,-72.4C676.54,-74.06 664.05,-75.76 652.16,-77.37"/>
<polygon fill="midnightblue" stroke="midnightblue" points="689.47,-75.84 698.91,-71.02 688.53,-68.9 689.47,-75.84"/>
</g>
<!-- Node3 -->
<g id="node3" class="node">
<title>Node3</title>
<g id="a_node3"><a xlink:href="classFlightPhaseManagerTest.html#a85dcebc22ec4dd5ccd2af1024f302df1" target="_top" xlink:title=" ">
<polygon fill="none" stroke="black" points="516,-22.5 516,-52.5 652,-52.5 652,-22.5 516,-22.5"/>
<text text-anchor="start" x="524" y="-40.5" font-family="Helvetica,sans-Serif" font-size="10.00">FlightPhaseManagerTest</text>
<text text-anchor="middle" x="584" y="-29.5" font-family="Helvetica,sans-Serif" font-size="10.00">::validateNoError</text>
</a>
</g>
</g>
<!-- Node1&#45;&gt;Node3 -->
<g id="edge2" class="edge">
<title>Node1&#45;&gt;Node3</title>
<path fill="none" stroke="midnightblue" d="M685.77,-50.64C674.53,-49.18 663.12,-47.69 652.22,-46.27"/>
<polygon fill="midnightblue" stroke="midnightblue" points="685.65,-54.16 696.01,-51.98 686.55,-47.22 685.65,-54.16"/>
</g>
<!-- Node4 -->
<g id="node4" class="node">
<title>Node4</title>
<g id="a_node4"><a xlink:href="classFlightPhaseManagerTest.html#aaab5ea1894a4a238ea30e821247b9c10" target="_top" xlink:title=" ">
<polygon fill="none" stroke="black" points="172,-22.5 172,-52.5 308,-52.5 308,-22.5 172,-22.5"/>
<text text-anchor="start" x="180" y="-40.5" font-family="Helvetica,sans-Serif" font-size="10.00">FlightPhaseManagerTest</text>
<text text-anchor="middle" x="240" y="-29.5" font-family="Helvetica,sans-Serif" font-size="10.00">::bringToAscent</text>
</a>
</g>
</g>
<!-- Node3&#45;&gt;Node4 -->
<g id="edge3" class="edge">
<title>Node3&#45;&gt;Node4</title>
<path fill="none" stroke="midnightblue" d="M521.8,-54.88C508.15,-58.05 493.67,-60.86 480,-62.5 419.98,-69.68 404.02,-69.68 344,-62.5 327.01,-60.47 308.77,-56.61 292.43,-52.53"/>
<polygon fill="midnightblue" stroke="midnightblue" points="522.67,-58.27 531.57,-52.53 521.03,-51.47 522.67,-58.27"/>
</g>
<!-- Node5 -->
<g id="node5" class="node">
<title>Node5</title>
<g id="a_node5"><a xlink:href="classFlightPhaseManagerTest.html#a9b4298134e734c7d0e4b219999098819" target="_top" xlink:title=" ">
<polygon fill="none" stroke="black" points="0,-0.5 0,-30.5 136,-30.5 136,-0.5 0,-0.5"/>
<text text-anchor="start" x="8" y="-18.5" font-family="Helvetica,sans-Serif" font-size="10.00">FlightPhaseManagerTest</text>
<text text-anchor="middle" x="68" y="-7.5" font-family="Helvetica,sans-Serif" font-size="10.00">::bringToDescent</text>
</a>
</g>
</g>
<!-- Node3&#45;&gt;Node5 -->
<g id="edge5" class="edge">
<title>Node3&#45;&gt;Node5</title>
<path fill="none" stroke="midnightblue" d="M518.8,-20.16C506.04,-17.39 492.67,-14.96 480,-13.5 359.49,0.35 217.79,-5.07 136.19,-10.28"/>
<polygon fill="midnightblue" stroke="midnightblue" points="518.36,-23.65 528.88,-22.44 519.9,-16.82 518.36,-23.65"/>
</g>
<!-- Node6 -->
<g id="node6" class="node">
<title>Node6</title>
<g id="a_node6"><a xlink:href="classFlightPhaseManagerTest.html#a9e109b11c6b9fe47b66a5abe660fb142" target="_top" xlink:title=" ">
<polygon fill="none" stroke="black" points="344,-22.5 344,-52.5 480,-52.5 480,-22.5 344,-22.5"/>
<text text-anchor="start" x="352" y="-40.5" font-family="Helvetica,sans-Serif" font-size="10.00">FlightPhaseManagerTest</text>
<text text-anchor="middle" x="412" y="-29.5" font-family="Helvetica,sans-Serif" font-size="10.00">::bringToLaunch</text>
</a>
</g>
</g>
<!-- Node3&#45;&gt;Node6 -->
<g id="edge6" class="edge">
<title>Node3&#45;&gt;Node6</title>
<path fill="none" stroke="midnightblue" d="M505.58,-37.5C497.12,-37.5 488.57,-37.5 480.26,-37.5"/>
<polygon fill="midnightblue" stroke="midnightblue" points="505.81,-41 515.81,-37.5 505.81,-34 505.81,-41"/>
</g>
<!-- Node4&#45;&gt;Node5 -->
<g id="edge4" class="edge">
<title>Node4&#45;&gt;Node5</title>
<path fill="none" stroke="midnightblue" d="M161.85,-27.52C153.31,-26.41 144.66,-25.29 136.26,-24.2"/>
<polygon fill="midnightblue" stroke="midnightblue" points="161.44,-30.99 171.81,-28.81 162.34,-24.05 161.44,-30.99"/>
</g>
<!-- Node6&#45;&gt;Node4 -->
<g id="edge7" class="edge">
<title>Node6&#45;&gt;Node4</title>
<path fill="none" stroke="midnightblue" d="M333.58,-37.5C325.12,-37.5 316.57,-37.5 308.26,-37.5"/>
<polygon fill="midnightblue" stroke="midnightblue" points="333.81,-41 343.81,-37.5 333.81,-34 333.81,-41"/>
</g>
</g>
</svg>
