<?xml version="1.0" encoding="UTF-8" standalone="no"?>
<!DOCTYPE svg PUBLIC "-//W3C//DTD SVG 1.1//EN"
 "http://www.w3.org/Graphics/SVG/1.1/DTD/svg11.dtd">
<!-- Generated by graphviz version 2.43.0 (0)
 -->
<!-- Title: giraffe::gdl::TransportLayer::sendPingResponse Pages: 1 -->
<svg width="668pt" height="410pt"
 viewBox="0.00 0.00 668.00 410.00" xmlns="http://www.w3.org/2000/svg" xmlns:xlink="http://www.w3.org/1999/xlink">
<g id="graph0" class="graph" transform="scale(1 1) rotate(0) translate(4 406)">
<title>giraffe::gdl::TransportLayer::sendPingResponse</title>
<!-- Node1 -->
<g id="node1" class="node">
<title>Node1</title>
<g id="a_node1"><a xlink:title=" ">
<polygon fill="#bfbfbf" stroke="black" points="0,-229.5 0,-259.5 147,-259.5 147,-229.5 0,-229.5"/>
<text text-anchor="start" x="8" y="-247.5" font-family="Helvetica,sans-Serif" font-size="10.00">giraffe::gdl::TransportLayer</text>
<text text-anchor="middle" x="73.5" y="-236.5" font-family="Helvetica,sans-Serif" font-size="10.00">::sendPingResponse</text>
</a>
</g>
</g>
<!-- Node2 -->
<g id="node2" class="node">
<title>Node2</title>
<g id="a_node2"><a xlink:href="classgiraffe_1_1gdl_1_1Message.html#ab8132240bc763dd84dd9556e87c42bbc" target="_top" xlink:title=" ">
<polygon fill="none" stroke="black" points="195,-278.5 195,-308.5 314,-308.5 314,-278.5 195,-278.5"/>
<text text-anchor="start" x="203" y="-296.5" font-family="Helvetica,sans-Serif" font-size="10.00">giraffe::gdl::Message</text>
<text text-anchor="middle" x="254.5" y="-285.5" font-family="Helvetica,sans-Serif" font-size="10.00">::setIdentifier</text>
</a>
</g>
</g>
<!-- Node1&#45;&gt;Node2 -->
<g id="edge1" class="edge">
<title>Node1&#45;&gt;Node2</title>
<path fill="none" stroke="midnightblue" d="M129.67,-259.6C148.38,-264.73 169.46,-270.5 188.85,-275.8"/>
<polygon fill="midnightblue" stroke="midnightblue" points="187.95,-279.18 198.52,-278.45 189.79,-272.43 187.95,-279.18"/>
</g>
<!-- Node3 -->
<g id="node3" class="node">
<title>Node3</title>
<g id="a_node3"><a xlink:href="classgiraffe_1_1gdl_1_1Packet.html#a230dd4dc8894d107f481540d31c42fce" target="_top" xlink:title=" ">
<polygon fill="none" stroke="black" points="201,-229.5 201,-259.5 308,-259.5 308,-229.5 201,-229.5"/>
<text text-anchor="start" x="209" y="-247.5" font-family="Helvetica,sans-Serif" font-size="10.00">giraffe::gdl::Packet</text>
<text text-anchor="middle" x="254.5" y="-236.5" font-family="Helvetica,sans-Serif" font-size="10.00">::setPacketType</text>
</a>
</g>
</g>
<!-- Node1&#45;&gt;Node3 -->
<g id="edge2" class="edge">
<title>Node1&#45;&gt;Node3</title>
<path fill="none" stroke="midnightblue" d="M147.05,-244.5C161.55,-244.5 176.67,-244.5 190.81,-244.5"/>
<polygon fill="midnightblue" stroke="midnightblue" points="190.91,-248 200.91,-244.5 190.91,-241 190.91,-248"/>
</g>
<!-- Node4 -->
<g id="node4" class="node">
<title>Node4</title>
<g id="a_node4"><a xlink:href="classgiraffe_1_1gdl_1_1NetworkLayer.html#a0c426dad58678f33b713e4c8d00bf1eb" target="_top" xlink:title=" ">
<polygon fill="none" stroke="black" points="183,-180.5 183,-210.5 326,-210.5 326,-180.5 183,-180.5"/>
<text text-anchor="start" x="191" y="-198.5" font-family="Helvetica,sans-Serif" font-size="10.00">giraffe::gdl::NetworkLayer</text>
<text text-anchor="middle" x="254.5" y="-187.5" font-family="Helvetica,sans-Serif" font-size="10.00">::txPacket</text>
</a>
</g>
</g>
<!-- Node1&#45;&gt;Node4 -->
<g id="edge3" class="edge">
<title>Node1&#45;&gt;Node4</title>
<path fill="none" stroke="midnightblue" d="M129.67,-229.4C148.38,-224.27 169.46,-218.5 188.85,-213.2"/>
<polygon fill="midnightblue" stroke="midnightblue" points="189.79,-216.57 198.52,-210.55 187.95,-209.82 189.79,-216.57"/>
</g>
<!-- Node5 -->
<g id="node5" class="node">
<title>Node5</title>
<g id="a_node5"><a xlink:href="classgiraffe_1_1gdl_1_1Config.html#aed911ca37add8a6519900eef34bb4fcc" target="_top" xlink:title=" ">
<polygon fill="none" stroke="black" points="547.5,-322.5 547.5,-352.5 653.5,-352.5 653.5,-322.5 547.5,-322.5"/>
<text text-anchor="start" x="555.5" y="-340.5" font-family="Helvetica,sans-Serif" font-size="10.00">giraffe::gdl::Config</text>
<text text-anchor="middle" x="600.5" y="-329.5" font-family="Helvetica,sans-Serif" font-size="10.00">::getCallSign</text>
</a>
</g>
</g>
<!-- Node4&#45;&gt;Node5 -->
<g id="edge4" class="edge">
<title>Node4&#45;&gt;Node5</title>
<path fill="none" stroke="midnightblue" d="M313.09,-210.62C317.74,-213.14 322.12,-216.08 326,-219.5 353.42,-243.7 332.9,-271.35 362,-293.5 412.21,-331.72 485.44,-340.21 537.29,-340.72"/>
<polygon fill="midnightblue" stroke="midnightblue" points="537.36,-344.22 547.36,-340.72 537.36,-337.22 537.36,-344.22"/>
</g>
<!-- Node6 -->
<g id="node6" class="node">
<title>Node6</title>
<g id="a_node6"><a xlink:href="classgiraffe_1_1gdl_1_1Message.html#ab2a7d2d07b27a823840bd1f77131f7a6" target="_top" xlink:title=" ">
<polygon fill="none" stroke="black" points="374,-98.5 374,-128.5 493,-128.5 493,-98.5 374,-98.5"/>
<text text-anchor="start" x="382" y="-116.5" font-family="Helvetica,sans-Serif" font-size="10.00">giraffe::gdl::Message</text>
<text text-anchor="middle" x="433.5" y="-105.5" font-family="Helvetica,sans-Serif" font-size="10.00">::getData</text>
</a>
</g>
</g>
<!-- Node4&#45;&gt;Node6 -->
<g id="edge5" class="edge">
<title>Node4&#45;&gt;Node6</title>
<path fill="none" stroke="midnightblue" d="M285.6,-180.29C306.82,-169.69 335.98,-155.38 362,-143.5 370,-139.85 378.57,-136.08 386.88,-132.5"/>
<polygon fill="midnightblue" stroke="midnightblue" points="388.29,-135.71 396.11,-128.56 385.54,-129.27 388.29,-135.71"/>
</g>
<!-- Node7 -->
<g id="node7" class="node">
<title>Node7</title>
<g id="a_node7"><a xlink:href="classgiraffe_1_1gdl_1_1Message.html#adde3219ff3c8add5738786654da1b3f0" target="_top" xlink:title=" ">
<polygon fill="none" stroke="black" points="374,-49.5 374,-79.5 493,-79.5 493,-49.5 374,-49.5"/>
<text text-anchor="start" x="382" y="-67.5" font-family="Helvetica,sans-Serif" font-size="10.00">giraffe::gdl::Message</text>
<text text-anchor="middle" x="433.5" y="-56.5" font-family="Helvetica,sans-Serif" font-size="10.00">::getIdentifierString</text>
</a>
</g>
</g>
<!-- Node4&#45;&gt;Node7 -->
<g id="edge6" class="edge">
<title>Node4&#45;&gt;Node7</title>
<path fill="none" stroke="midnightblue" d="M266.91,-180.18C284.78,-157.18 321.53,-113.75 362,-88.5 364.6,-86.88 367.33,-85.35 370.13,-83.91"/>
<polygon fill="midnightblue" stroke="midnightblue" points="371.73,-87.03 379.3,-79.62 368.76,-80.69 371.73,-87.03"/>
</g>
<!-- Node8 -->
<g id="node8" class="node">
<title>Node8</title>
<g id="a_node8"><a xlink:href="classgiraffe_1_1gdl_1_1Packet.html#a30b91d18f37e7cc83455c0ecd9198e1c" target="_top" xlink:title=" ">
<polygon fill="none" stroke="black" points="380,-0.5 380,-30.5 487,-30.5 487,-0.5 380,-0.5"/>
<text text-anchor="start" x="388" y="-18.5" font-family="Helvetica,sans-Serif" font-size="10.00">giraffe::gdl::Packet</text>
<text text-anchor="middle" x="433.5" y="-7.5" font-family="Helvetica,sans-Serif" font-size="10.00">::getPacketType</text>
</a>
</g>
</g>
<!-- Node4&#45;&gt;Node8 -->
<g id="edge7" class="edge">
<title>Node4&#45;&gt;Node8</title>
<path fill="none" stroke="midnightblue" d="M261.88,-180.22C275.59,-149.18 310.83,-78.4 362,-39.5 364.76,-37.4 367.71,-35.48 370.79,-33.72"/>
<polygon fill="midnightblue" stroke="midnightblue" points="372.41,-36.83 379.74,-29.18 369.24,-30.58 372.41,-36.83"/>
</g>
<!-- Node9 -->
<g id="node9" class="node">
<title>Node9</title>
<g id="a_node9"><a xlink:href="classgiraffe_1_1gdl_1_1Config.html#a1fd00187a8f0cf9632db5d0d068e4ce3" target="_top" xlink:title=" ">
<polygon fill="none" stroke="black" points="542.5,-273.5 542.5,-303.5 658.5,-303.5 658.5,-273.5 542.5,-273.5"/>
<text text-anchor="start" x="550.5" y="-291.5" font-family="Helvetica,sans-Serif" font-size="10.00">giraffe::gdl::Config</text>
<text text-anchor="middle" x="600.5" y="-280.5" font-family="Helvetica,sans-Serif" font-size="10.00">::getRemoteCallSign</text>
</a>
</g>
</g>
<!-- Node4&#45;&gt;Node9 -->
<g id="edge8" class="edge">
<title>Node4&#45;&gt;Node9</title>
<path fill="none" stroke="midnightblue" d="M310.12,-210.61C315.71,-213.16 321.11,-216.11 326,-219.5 346.76,-233.9 339.77,-251.5 362,-263.5 414.22,-291.69 482.3,-296.17 532.17,-294.64"/>
<polygon fill="midnightblue" stroke="midnightblue" points="532.35,-298.14 542.21,-294.25 532.08,-291.15 532.35,-298.14"/>
</g>
<!-- Node10 -->
<g id="node10" class="node">
<title>Node10</title>
<g id="a_node10"><a xlink:href="classgiraffe_1_1gdl_1_1Config.html#ab4b666bf725f3ab5756dc5b5135640ae" target="_top" xlink:title=" ">
<polygon fill="none" stroke="black" points="547.5,-175.5 547.5,-205.5 653.5,-205.5 653.5,-175.5 547.5,-175.5"/>
<text text-anchor="start" x="555.5" y="-193.5" font-family="Helvetica,sans-Serif" font-size="10.00">giraffe::gdl::Config</text>
<text text-anchor="middle" x="600.5" y="-182.5" font-family="Helvetica,sans-Serif" font-size="10.00">::getRemoteSSID</text>
</a>
</g>
</g>
<!-- Node4&#45;&gt;Node10 -->
<g id="edge9" class="edge">
<title>Node4&#45;&gt;Node10</title>
<path fill="none" stroke="midnightblue" d="M326.36,-194.47C388.42,-193.57 477.74,-192.27 537.14,-191.41"/>
<polygon fill="midnightblue" stroke="midnightblue" points="537.55,-194.9 547.5,-191.26 537.45,-187.9 537.55,-194.9"/>
</g>
<!-- Node11 -->
<g id="node11" class="node">
<title>Node11</title>
<g id="a_node11"><a xlink:href="classgiraffe_1_1gdl_1_1Config.html#a36b504a087c8434d0dcbbdcdc8edc639" target="_top" xlink:title=" ">
<polygon fill="none" stroke="black" points="547.5,-126.5 547.5,-156.5 653.5,-156.5 653.5,-126.5 547.5,-126.5"/>
<text text-anchor="start" x="555.5" y="-144.5" font-family="Helvetica,sans-Serif" font-size="10.00">giraffe::gdl::Config</text>
<text text-anchor="middle" x="600.5" y="-133.5" font-family="Helvetica,sans-Serif" font-size="10.00">::getSSID</text>
</a>
</g>
</g>
<!-- Node4&#45;&gt;Node11 -->
<g id="edge10" class="edge">
<title>Node4&#45;&gt;Node11</title>
<path fill="none" stroke="midnightblue" d="M326.36,-184.38C388.55,-174.61 478.11,-160.56 537.5,-151.23"/>
<polygon fill="midnightblue" stroke="midnightblue" points="538.16,-154.67 547.5,-149.66 537.08,-147.76 538.16,-154.67"/>
</g>
<!-- Node12 -->
<g id="node12" class="node">
<title>Node12</title>
<g id="a_node12"><a xlink:href="classgiraffe_1_1gdl_1_1NetworkLayer.html#a36141d40a8b69472cc96aeada41be8aa" target="_top" xlink:title=" ">
<polygon fill="none" stroke="black" points="362,-224.5 362,-254.5 505,-254.5 505,-224.5 362,-224.5"/>
<text text-anchor="start" x="370" y="-242.5" font-family="Helvetica,sans-Serif" font-size="10.00">giraffe::gdl::NetworkLayer</text>
<text text-anchor="middle" x="433.5" y="-231.5" font-family="Helvetica,sans-Serif" font-size="10.00">::txAprsPositionPacket</text>
</a>
</g>
</g>
<!-- Node4&#45;&gt;Node12 -->
<g id="edge11" class="edge">
<title>Node4&#45;&gt;Node12</title>
<path fill="none" stroke="midnightblue" d="M315.92,-210.52C330.79,-214.22 346.84,-218.21 362.13,-222.01"/>
<polygon fill="midnightblue" stroke="midnightblue" points="361.5,-225.46 372.05,-224.47 363.19,-218.66 361.5,-225.46"/>
</g>
<!-- Node14 -->
<g id="node14" class="node">
<title>Node14</title>
<g id="a_node14"><a xlink:href="classgiraffe_1_1gdl_1_1NetworkLayer.html#af14790c432f5d6c172e9aad02cd824d2" target="_top" xlink:title="Broadcast an SSTV image.">
<polygon fill="none" stroke="black" points="362,-350.5 362,-380.5 505,-380.5 505,-350.5 362,-350.5"/>
<text text-anchor="start" x="370" y="-368.5" font-family="Helvetica,sans-Serif" font-size="10.00">giraffe::gdl::NetworkLayer</text>
<text text-anchor="middle" x="433.5" y="-357.5" font-family="Helvetica,sans-Serif" font-size="10.00">::txSstvImage</text>
</a>
</g>
</g>
<!-- Node4&#45;&gt;Node14 -->
<g id="edge17" class="edge">
<title>Node4&#45;&gt;Node14</title>
<path fill="none" stroke="midnightblue" d="M314.68,-210.61C318.82,-213.13 322.66,-216.07 326,-219.5 363.65,-258.19 325.81,-295.44 362,-335.5 365.28,-339.13 369.08,-342.34 373.17,-345.17"/>
<polygon fill="midnightblue" stroke="midnightblue" points="371.56,-348.29 381.93,-350.47 375.18,-342.3 371.56,-348.29"/>
</g>
<!-- Node12&#45;&gt;Node5 -->
<g id="edge12" class="edge">
<title>Node12&#45;&gt;Node5</title>
<path fill="none" stroke="midnightblue" d="M454.16,-254.73C474.98,-270.43 509.17,-295.01 541,-312.5 544.49,-314.42 548.17,-316.29 551.9,-318.1"/>
<polygon fill="midnightblue" stroke="midnightblue" points="550.67,-321.39 561.22,-322.43 553.62,-315.04 550.67,-321.39"/>
</g>
<!-- Node12&#45;&gt;Node9 -->
<g id="edge14" class="edge">
<title>Node12&#45;&gt;Node9</title>
<path fill="none" stroke="midnightblue" d="M485.35,-254.6C502.37,-259.66 521.5,-265.34 539.17,-270.58"/>
<polygon fill="midnightblue" stroke="midnightblue" points="538.23,-273.96 548.82,-273.45 540.23,-267.25 538.23,-273.96"/>
</g>
<!-- Node12&#45;&gt;Node10 -->
<g id="edge15" class="edge">
<title>Node12&#45;&gt;Node10</title>
<path fill="none" stroke="midnightblue" d="M485.35,-224.4C502.37,-219.34 521.5,-213.66 539.17,-208.42"/>
<polygon fill="midnightblue" stroke="midnightblue" points="540.23,-211.75 548.82,-205.55 538.23,-205.04 540.23,-211.75"/>
</g>
<!-- Node12&#45;&gt;Node11 -->
<g id="edge16" class="edge">
<title>Node12&#45;&gt;Node11</title>
<path fill="none" stroke="midnightblue" d="M453.69,-224.24C474.4,-208.24 508.76,-183.04 541,-165.5 543.89,-163.93 546.91,-162.39 549.99,-160.91"/>
<polygon fill="midnightblue" stroke="midnightblue" points="551.68,-163.98 559.31,-156.63 548.76,-157.62 551.68,-163.98"/>
</g>
<!-- Node13 -->
<g id="node13" class="node">
<title>Node13</title>
<g id="a_node13"><a xlink:href="classgiraffe_1_1gdl_1_1Message.html#a058458ec43b44d02141e79f986a1a79d" target="_top" xlink:title=" ">
<polygon fill="none" stroke="black" points="541,-224.5 541,-254.5 660,-254.5 660,-224.5 541,-224.5"/>
<text text-anchor="start" x="549" y="-242.5" font-family="Helvetica,sans-Serif" font-size="10.00">giraffe::gdl::Message</text>
<text text-anchor="middle" x="600.5" y="-231.5" font-family="Helvetica,sans-Serif" font-size="10.00">::getLocation</text>
</a>
</g>
</g>
<!-- Node12&#45;&gt;Node13 -->
<g id="edge13" class="edge">
<title>Node12&#45;&gt;Node13</title>
<path fill="none" stroke="midnightblue" d="M505.43,-239.5C513.82,-239.5 522.36,-239.5 530.71,-239.5"/>
<polygon fill="midnightblue" stroke="midnightblue" points="530.78,-243 540.78,-239.5 530.78,-236 530.78,-243"/>
</g>
<!-- Node14&#45;&gt;Node5 -->
<g id="edge18" class="edge">
<title>Node14&#45;&gt;Node5</title>
<path fill="none" stroke="midnightblue" d="M505.43,-353.46C515.91,-351.68 526.65,-349.86 536.94,-348.12"/>
<polygon fill="midnightblue" stroke="midnightblue" points="537.79,-351.52 547.07,-346.4 536.62,-344.62 537.79,-351.52"/>
</g>
<!-- Node15 -->
<g id="node15" class="node">
<title>Node15</title>
<g id="a_node15"><a xlink:href="classgiraffe_1_1gdl_1_1Message.html#ab19b90512b2e9c4b3093d38a5539d920" target="_top" xlink:title=" ">
<polygon fill="none" stroke="black" points="541,-371.5 541,-401.5 660,-401.5 660,-371.5 541,-371.5"/>
<text text-anchor="start" x="549" y="-389.5" font-family="Helvetica,sans-Serif" font-size="10.00">giraffe::gdl::Message</text>
<text text-anchor="middle" x="600.5" y="-378.5" font-family="Helvetica,sans-Serif" font-size="10.00">::getImage</text>
</a>
</g>
</g>
<!-- Node14&#45;&gt;Node15 -->
<g id="edge19" class="edge">
<title>Node14&#45;&gt;Node15</title>
<path fill="none" stroke="midnightblue" d="M505.43,-374.53C513.82,-375.59 522.36,-376.68 530.71,-377.75"/>
<polygon fill="midnightblue" stroke="midnightblue" points="530.42,-381.24 540.78,-379.03 531.3,-374.29 530.42,-381.24"/>
</g>
</g>
</svg>
