<?xml version="1.0" encoding="UTF-8" standalone="no"?>
<!DOCTYPE svg PUBLIC "-//W3C//DTD SVG 1.1//EN"
 "http://www.w3.org/Graphics/SVG/1.1/DTD/svg11.dtd">
<!-- Generated by graphviz version 2.43.0 (0)
 -->
<!-- Title: extension::Extension::extSleep Pages: 1 -->
<svg width="480pt" height="284pt"
 viewBox="0.00 0.00 480.00 284.00" xmlns="http://www.w3.org/2000/svg" xmlns:xlink="http://www.w3.org/1999/xlink">
<g id="graph0" class="graph" transform="scale(1 1) rotate(0) translate(4 280)">
<title>extension::Extension::extSleep</title>
<!-- Node1 -->
<g id="node1" class="node">
<title>Node1</title>
<g id="a_node1"><a xlink:title="Sleep internally for a given number of milliseconds.">
<polygon fill="#bfbfbf" stroke="black" points="353,-122.5 353,-152.5 472,-152.5 472,-122.5 353,-122.5"/>
<text text-anchor="start" x="361" y="-140.5" font-family="Helvetica,sans-Serif" font-size="10.00">extension::Extension</text>
<text text-anchor="middle" x="412.5" y="-129.5" font-family="Helvetica,sans-Serif" font-size="10.00">::extSleep</text>
</a>
</g>
</g>
<!-- Node2 -->
<g id="node2" class="node">
<title>Node2</title>
<g id="a_node2"><a xlink:href="classextension_1_1Bmi088.html#ac5aab7f11c050aa15c30ac83456d129c" target="_top" xlink:title=" ">
<polygon fill="none" stroke="black" points="176,-245.5 176,-275.5 317,-275.5 317,-245.5 176,-245.5"/>
<text text-anchor="start" x="184" y="-263.5" font-family="Helvetica,sans-Serif" font-size="10.00">extension::Bmi088::</text>
<text text-anchor="middle" x="246.5" y="-252.5" font-family="Helvetica,sans-Serif" font-size="10.00">accelerometerHandshake</text>
</a>
</g>
</g>
<!-- Node1&#45;&gt;Node2 -->
<g id="edge1" class="edge">
<title>Node1&#45;&gt;Node2</title>
<path fill="none" stroke="midnightblue" d="M394.46,-160.99C377.2,-183.25 348.6,-216.22 317,-236.5 311.74,-239.88 305.94,-242.84 300.01,-245.43"/>
<polygon fill="midnightblue" stroke="midnightblue" points="397.45,-162.83 400.71,-152.75 391.88,-158.6 397.45,-162.83"/>
</g>
<!-- Node4 -->
<g id="node4" class="node">
<title>Node4</title>
<g id="a_node4"><a xlink:href="classextension_1_1Bmi088.html#ad8637664c91292301c0b513ce610b415" target="_top" xlink:title=" ">
<polygon fill="none" stroke="black" points="189.5,-196.5 189.5,-226.5 303.5,-226.5 303.5,-196.5 189.5,-196.5"/>
<text text-anchor="start" x="197.5" y="-214.5" font-family="Helvetica,sans-Serif" font-size="10.00">extension::Bmi088::</text>
<text text-anchor="middle" x="246.5" y="-203.5" font-family="Helvetica,sans-Serif" font-size="10.00">gyroHandshake</text>
</a>
</g>
</g>
<!-- Node1&#45;&gt;Node4 -->
<g id="edge3" class="edge">
<title>Node1&#45;&gt;Node4</title>
<path fill="none" stroke="midnightblue" d="M376.78,-157.52C359.19,-167.24 337.3,-178.69 317,-187.5 309.74,-190.65 301.92,-193.68 294.24,-196.47"/>
<polygon fill="midnightblue" stroke="midnightblue" points="378.53,-160.55 385.56,-152.62 375.12,-154.44 378.53,-160.55"/>
</g>
<!-- Node5 -->
<g id="node5" class="node">
<title>Node5</title>
<g id="a_node5"><a xlink:href="classextension_1_1Bme280.html#ae62191b9e4f93e4549998a8772e7b455" target="_top" xlink:title=" ">
<polygon fill="none" stroke="black" points="188,-147.5 188,-177.5 305,-177.5 305,-147.5 188,-147.5"/>
<text text-anchor="start" x="196" y="-165.5" font-family="Helvetica,sans-Serif" font-size="10.00">extension::Bme280::</text>
<text text-anchor="middle" x="246.5" y="-154.5" font-family="Helvetica,sans-Serif" font-size="10.00">startup</text>
</a>
</g>
</g>
<!-- Node1&#45;&gt;Node5 -->
<g id="edge5" class="edge">
<title>Node1&#45;&gt;Node5</title>
<path fill="none" stroke="midnightblue" d="M342.79,-147.97C330.21,-149.89 317.21,-151.87 305.01,-153.73"/>
<polygon fill="midnightblue" stroke="midnightblue" points="343.4,-151.42 352.76,-146.45 342.34,-144.5 343.4,-151.42"/>
</g>
<!-- Node6 -->
<g id="node6" class="node">
<title>Node6</title>
<g id="a_node6"><a xlink:href="classextension_1_1Ds18b20.html#a4e5fac3093a35bf9837c476954f28e21" target="_top" xlink:title=" ">
<polygon fill="none" stroke="black" points="190,-98.5 190,-128.5 303,-128.5 303,-98.5 190,-98.5"/>
<text text-anchor="start" x="198" y="-116.5" font-family="Helvetica,sans-Serif" font-size="10.00">extension::Ds18b20</text>
<text text-anchor="middle" x="246.5" y="-105.5" font-family="Helvetica,sans-Serif" font-size="10.00">::startup</text>
</a>
</g>
</g>
<!-- Node1&#45;&gt;Node6 -->
<g id="edge6" class="edge">
<title>Node1&#45;&gt;Node6</title>
<path fill="none" stroke="midnightblue" d="M342.76,-127.44C329.53,-125.51 315.84,-123.5 303.09,-121.64"/>
<polygon fill="midnightblue" stroke="midnightblue" points="342.35,-130.92 352.76,-128.9 343.37,-123.99 342.35,-130.92"/>
</g>
<!-- Node7 -->
<g id="node7" class="node">
<title>Node7</title>
<g id="a_node7"><a xlink:href="classextension_1_1SamM8q.html#a58948f60001940a5235104b2f9b09c74" target="_top" xlink:title="Startup the extension.">
<polygon fill="none" stroke="black" points="187,-49.5 187,-79.5 306,-79.5 306,-49.5 187,-49.5"/>
<text text-anchor="start" x="195" y="-67.5" font-family="Helvetica,sans-Serif" font-size="10.00">extension::SamM8q::</text>
<text text-anchor="middle" x="246.5" y="-56.5" font-family="Helvetica,sans-Serif" font-size="10.00">startup</text>
</a>
</g>
</g>
<!-- Node1&#45;&gt;Node7 -->
<g id="edge7" class="edge">
<title>Node1&#45;&gt;Node7</title>
<path fill="none" stroke="midnightblue" d="M374.64,-117.43C357.38,-108.38 336.39,-97.87 317,-89.5 308.99,-86.04 300.34,-82.66 291.94,-79.55"/>
<polygon fill="midnightblue" stroke="midnightblue" points="373.34,-120.7 383.82,-122.29 376.62,-114.52 373.34,-120.7"/>
</g>
<!-- Node8 -->
<g id="node8" class="node">
<title>Node8</title>
<g id="a_node8"><a xlink:href="group__SAMM8QState.html#gab11516e268a094d0dedc47caf5f25a9d" target="_top" xlink:title=" ">
<polygon fill="none" stroke="black" points="187,-0.5 187,-30.5 306,-30.5 306,-0.5 187,-0.5"/>
<text text-anchor="start" x="195" y="-18.5" font-family="Helvetica,sans-Serif" font-size="10.00">extension::SamM8q::</text>
<text text-anchor="middle" x="246.5" y="-7.5" font-family="Helvetica,sans-Serif" font-size="10.00">stateRead</text>
</a>
</g>
</g>
<!-- Node1&#45;&gt;Node8 -->
<g id="edge8" class="edge">
<title>Node1&#45;&gt;Node8</title>
<path fill="none" stroke="midnightblue" d="M394.4,-114.25C377.11,-92.22 348.48,-59.59 317,-39.5 311.73,-36.13 305.93,-33.18 299.99,-30.6"/>
<polygon fill="midnightblue" stroke="midnightblue" points="391.81,-116.62 400.67,-122.41 397.36,-112.35 391.81,-116.62"/>
</g>
<!-- Node3 -->
<g id="node3" class="node">
<title>Node3</title>
<g id="a_node3"><a xlink:href="classextension_1_1Bmi088.html#ae97880621fee99f214cc73916b8a159c" target="_top" xlink:title=" ">
<polygon fill="none" stroke="black" points="13,-220.5 13,-250.5 127,-250.5 127,-220.5 13,-220.5"/>
<text text-anchor="start" x="21" y="-238.5" font-family="Helvetica,sans-Serif" font-size="10.00">extension::Bmi088::</text>
<text text-anchor="middle" x="70" y="-227.5" font-family="Helvetica,sans-Serif" font-size="10.00">startup</text>
</a>
</g>
</g>
<!-- Node2&#45;&gt;Node3 -->
<g id="edge2" class="edge">
<title>Node2&#45;&gt;Node3</title>
<path fill="none" stroke="midnightblue" d="M165.86,-249.09C152.81,-247.22 139.53,-245.32 127.2,-243.55"/>
<polygon fill="midnightblue" stroke="midnightblue" points="165.39,-252.56 175.78,-250.51 166.38,-245.63 165.39,-252.56"/>
</g>
<!-- Node4&#45;&gt;Node3 -->
<g id="edge4" class="edge">
<title>Node4&#45;&gt;Node3</title>
<path fill="none" stroke="midnightblue" d="M179.34,-220.6C162.11,-222.97 143.72,-225.5 127.07,-227.79"/>
<polygon fill="midnightblue" stroke="midnightblue" points="179.9,-224.06 189.33,-219.23 178.94,-217.12 179.9,-224.06"/>
</g>
<!-- Node9 -->
<g id="node9" class="node">
<title>Node9</title>
<g id="a_node9"><a xlink:href="classextension_1_1SamM8q.html#a07c59e7e854347253d743501e8cb5878" target="_top" xlink:title="Contains a simple state machine that will configure, reset, and read data from the sensor....">
<polygon fill="none" stroke="black" points="0,-6 0,-25 140,-25 140,-6 0,-6"/>
<text text-anchor="middle" x="70" y="-13" font-family="Helvetica,sans-Serif" font-size="10.00">extension::SamM8q::loop</text>
</a>
</g>
</g>
<!-- Node8&#45;&gt;Node9 -->
<g id="edge9" class="edge">
<title>Node8&#45;&gt;Node9</title>
<path fill="none" stroke="midnightblue" d="M176.87,-15.5C164.75,-15.5 152.13,-15.5 140.01,-15.5"/>
<polygon fill="midnightblue" stroke="midnightblue" points="176.91,-19 186.91,-15.5 176.91,-12 176.91,-19"/>
</g>
</g>
</svg>
