<?xml version="1.0" encoding="UTF-8" standalone="no"?>
<!DOCTYPE svg PUBLIC "-//W3C//DTD SVG 1.1//EN"
 "http://www.w3.org/Graphics/SVG/1.1/DTD/svg11.dtd">
<!-- Generated by graphviz version 2.43.0 (0)
 -->
<!-- Title: extension::Bme280Extension::readEnvironmentalData Pages: 1 -->
<svg width="555pt" height="107pt"
 viewBox="0.00 0.00 555.00 107.00" xmlns="http://www.w3.org/2000/svg" xmlns:xlink="http://www.w3.org/1999/xlink">
<g id="graph0" class="graph" transform="scale(1 1) rotate(0) translate(4 103)">
<title>extension::Bme280Extension::readEnvironmentalData</title>
<!-- Node1 -->
<g id="node1" class="node">
<title>Node1</title>
<g id="a_node1"><a xlink:title="Reads the raw environmental data from the BME280.">
<polygon fill="#bfbfbf" stroke="black" points="0,-17 0,-47 159,-47 159,-17 0,-17"/>
<text text-anchor="start" x="8" y="-35" font-family="Helvetica,sans-Serif" font-size="10.00">extension::Bme280Extension</text>
<text text-anchor="middle" x="79.5" y="-24" font-family="Helvetica,sans-Serif" font-size="10.00">::readEnvironmentalData</text>
</a>
</g>
</g>
<!-- Node2 -->
<g id="node2" class="node">
<title>Node2</title>
<g id="a_node2"><a xlink:href="classextension_1_1Extension.html#aa7ec0098dfde16a54eb616c73ba3046e" target="_top" xlink:title=" ">
<polygon fill="none" stroke="black" points="223.5,-39 223.5,-69 342.5,-69 342.5,-39 223.5,-39"/>
<text text-anchor="start" x="231.5" y="-57" font-family="Helvetica,sans-Serif" font-size="10.00">extension::Extension</text>
<text text-anchor="middle" x="283" y="-46" font-family="Helvetica,sans-Serif" font-size="10.00">::data</text>
</a>
</g>
</g>
<!-- Node1&#45;&gt;Node2 -->
<g id="edge1" class="edge">
<title>Node1&#45;&gt;Node2</title>
<path fill="none" stroke="midnightblue" d="M159.27,-40.6C177.08,-42.54 195.85,-44.59 213.21,-46.49"/>
<polygon fill="midnightblue" stroke="midnightblue" points="212.93,-49.98 223.25,-47.59 213.69,-43.02 212.93,-49.98"/>
</g>
<!-- Node5 -->
<g id="node5" class="node">
<title>Node5</title>
<g id="a_node5"><a xlink:href="classI2cInterface.html#a6d5b6e7730132098f302a33f90e0b19d" target="_top" xlink:title="Read a chunk of data from the device at the specified register.">
<polygon fill="none" stroke="black" points="195,-0.5 195,-19.5 371,-19.5 371,-0.5 195,-0.5"/>
<text text-anchor="middle" x="283" y="-7.5" font-family="Helvetica,sans-Serif" font-size="10.00">I2cInterface::readChunkFromReg</text>
</a>
</g>
</g>
<!-- Node1&#45;&gt;Node5 -->
<g id="edge4" class="edge">
<title>Node1&#45;&gt;Node5</title>
<path fill="none" stroke="midnightblue" d="M159.27,-23.4C167.68,-22.48 176.3,-21.54 184.89,-20.6"/>
<polygon fill="midnightblue" stroke="midnightblue" points="185.38,-24.07 194.95,-19.5 184.62,-17.11 185.38,-24.07"/>
</g>
<!-- Node3 -->
<g id="node3" class="node">
<title>Node3</title>
<g id="a_node3"><a xlink:href="classdata_1_1Stream.html#a1ff9a93190dbecdc2ffa27deaaa4266a" target="_top" xlink:title=" ">
<polygon fill="none" stroke="black" points="409.5,-79.5 409.5,-98.5 544.5,-98.5 544.5,-79.5 409.5,-79.5"/>
<text text-anchor="middle" x="477" y="-86.5" font-family="Helvetica,sans-Serif" font-size="10.00">data::Stream::addPacket</text>
</a>
</g>
</g>
<!-- Node2&#45;&gt;Node3 -->
<g id="edge2" class="edge">
<title>Node2&#45;&gt;Node3</title>
<path fill="none" stroke="midnightblue" d="M342.65,-64.69C365.13,-68.79 390.84,-73.48 413.66,-77.64"/>
<polygon fill="midnightblue" stroke="midnightblue" points="413.11,-81.09 423.57,-79.44 414.36,-74.21 413.11,-81.09"/>
</g>
<!-- Node4 -->
<g id="node4" class="node">
<title>Node4</title>
<g id="a_node4"><a xlink:href="namespaceutil.html#a1b719a9f1cb3fb7e7550bf723015fe9e" target="_top" xlink:title=" ">
<polygon fill="none" stroke="black" points="436.5,-41.5 436.5,-60.5 517.5,-60.5 517.5,-41.5 436.5,-41.5"/>
<text text-anchor="middle" x="477" y="-48.5" font-family="Helvetica,sans-Serif" font-size="10.00">util::to_string</text>
</a>
</g>
</g>
<!-- Node2&#45;&gt;Node4 -->
<g id="edge3" class="edge">
<title>Node2&#45;&gt;Node4</title>
<path fill="none" stroke="midnightblue" d="M342.65,-53.08C369.3,-52.67 400.51,-52.18 426.03,-51.78"/>
<polygon fill="midnightblue" stroke="midnightblue" points="426.28,-55.28 436.23,-51.62 426.17,-48.28 426.28,-55.28"/>
</g>
<!-- Node6 -->
<g id="node6" class="node">
<title>Node6</title>
<g id="a_node6"><a xlink:href="classI2cInterface.html#a13c00b7b0597cc2223a9a0765afcbf85" target="_top" xlink:title="Checks the file descriptor to see if it&#39;s connected to the bus.">
<polygon fill="none" stroke="black" points="407,-0.5 407,-19.5 547,-19.5 547,-0.5 407,-0.5"/>
<text text-anchor="middle" x="477" y="-7.5" font-family="Helvetica,sans-Serif" font-size="10.00">I2cInterface::isConnected</text>
</a>
</g>
</g>
<!-- Node5&#45;&gt;Node6 -->
<g id="edge5" class="edge">
<title>Node5&#45;&gt;Node6</title>
<path fill="none" stroke="midnightblue" d="M371.01,-10C379.55,-10 388.18,-10 396.63,-10"/>
<polygon fill="midnightblue" stroke="midnightblue" points="396.84,-13.5 406.84,-10 396.84,-6.5 396.84,-13.5"/>
</g>
</g>
</svg>
