<?xml version="1.0" encoding="UTF-8" standalone="no"?>
<!DOCTYPE svg PUBLIC "-//W3C//DTD SVG 1.1//EN"
 "http://www.w3.org/Graphics/SVG/1.1/DTD/svg11.dtd">
<!-- Generated by graphviz version 2.43.0 (0)
 -->
<!-- Title: giraffe::gdl::DataLink::~DataLink Pages: 1 -->
<svg width="437pt" height="134pt"
 viewBox="0.00 0.00 437.00 134.00" xmlns="http://www.w3.org/2000/svg" xmlns:xlink="http://www.w3.org/1999/xlink">
<g id="graph0" class="graph" transform="scale(1 1) rotate(0) translate(4 130)">
<title>giraffe::gdl::DataLink::~DataLink</title>
<!-- Node1 -->
<g id="Node000001" class="node">
<title>Node1</title>
<g id="a_Node000001"><a xlink:title="Destructor for the Giraffe Data Link. Stops the background thread if it is running.">
<polygon fill="#999999" stroke="#666666" points="119,-78 0,-78 0,-48 119,-48 119,-78"/>
<text text-anchor="start" x="8" y="-66" font-family="Helvetica,sans-Serif" font-size="10.00">giraffe::gdl::DataLink</text>
<text text-anchor="middle" x="59.5" y="-55" font-family="Helvetica,sans-Serif" font-size="10.00">::~DataLink</text>
</a>
</g>
</g>
<!-- Node2 -->
<g id="Node000002" class="node">
<title>Node2</title>
<g id="a_Node000002"><a xlink:href="classgiraffe_1_1gdl_1_1DataLink.html#af2abf8909cea23f020779dfdeea6cfc3" target="_top" xlink:title="Disable the Data Link. Stops the background thread.">
<polygon fill="white" stroke="#666666" points="274,-78 155,-78 155,-48 274,-48 274,-78"/>
<text text-anchor="start" x="163" y="-66" font-family="Helvetica,sans-Serif" font-size="10.00">giraffe::gdl::DataLink</text>
<text text-anchor="middle" x="214.5" y="-55" font-family="Helvetica,sans-Serif" font-size="10.00">::disable</text>
</a>
</g>
</g>
<!-- Node1&#45;&gt;Node2 -->
<g id="edge1_Node000001_Node000002" class="edge">
<title>Node1&#45;&gt;Node2</title>
<g id="a_edge1_Node000001_Node000002"><a xlink:title=" ">
<path fill="none" stroke="#63b8ff" d="M119.22,-63C127.54,-63 136.17,-63 144.67,-63"/>
<polygon fill="#63b8ff" stroke="#63b8ff" points="144.94,-66.5 154.94,-63 144.94,-59.5 144.94,-66.5"/>
</a>
</g>
</g>
<!-- Node3 -->
<g id="Node000003" class="node">
<title>Node3</title>
<g id="a_Node000003"><a xlink:href="classgiraffe_1_1gdl_1_1DataLink.html#a8cd697b9f74bcd17d9a48e259eb7e345" target="_top" xlink:title="Check if the Data Link is enabled.">
<polygon fill="white" stroke="#666666" points="429,-126 310,-126 310,-96 429,-96 429,-126"/>
<text text-anchor="start" x="318" y="-114" font-family="Helvetica,sans-Serif" font-size="10.00">giraffe::gdl::DataLink</text>
<text text-anchor="middle" x="369.5" y="-103" font-family="Helvetica,sans-Serif" font-size="10.00">::isEnabled</text>
</a>
</g>
</g>
<!-- Node2&#45;&gt;Node3 -->
<g id="edge2_Node000002_Node000003" class="edge">
<title>Node2&#45;&gt;Node3</title>
<g id="a_edge2_Node000002_Node000003"><a xlink:title=" ">
<path fill="none" stroke="#63b8ff" d="M263.49,-78.06C278.59,-82.79 295.41,-88.07 311.09,-92.99"/>
<polygon fill="#63b8ff" stroke="#63b8ff" points="310.09,-96.34 320.68,-96 312.19,-89.66 310.09,-96.34"/>
</a>
</g>
</g>
<!-- Node4 -->
<g id="Node000004" class="node">
<title>Node4</title>
<g id="a_Node000004"><a xlink:href="classgiraffe_1_1gdl_1_1DataLink.html#a271f07d75f8c7a86244f2d276809e962" target="_top" xlink:title=" ">
<polygon fill="white" stroke="#666666" points="429,-78 310,-78 310,-48 429,-48 429,-78"/>
<text text-anchor="start" x="318" y="-66" font-family="Helvetica,sans-Serif" font-size="10.00">giraffe::gdl::DataLink</text>
<text text-anchor="middle" x="369.5" y="-55" font-family="Helvetica,sans-Serif" font-size="10.00">::isRunning</text>
</a>
</g>
</g>
<!-- Node2&#45;&gt;Node4 -->
<g id="edge3_Node000002_Node000004" class="edge">
<title>Node2&#45;&gt;Node4</title>
<g id="a_edge3_Node000002_Node000004"><a xlink:title=" ">
<path fill="none" stroke="#63b8ff" d="M274.22,-63C282.54,-63 291.17,-63 299.67,-63"/>
<polygon fill="#63b8ff" stroke="#63b8ff" points="299.94,-66.5 309.94,-63 299.94,-59.5 299.94,-66.5"/>
</a>
</g>
</g>
<!-- Node5 -->
<g id="Node000005" class="node">
<title>Node5</title>
<g id="a_Node000005"><a xlink:href="classgiraffe_1_1gdl_1_1DataLink.html#a533c0e638f752a5656734721c7437c2f" target="_top" xlink:title=" ">
<polygon fill="white" stroke="#666666" points="429,-30 310,-30 310,0 429,0 429,-30"/>
<text text-anchor="start" x="318" y="-18" font-family="Helvetica,sans-Serif" font-size="10.00">giraffe::gdl::DataLink</text>
<text text-anchor="middle" x="369.5" y="-7" font-family="Helvetica,sans-Serif" font-size="10.00">::setStatus</text>
</a>
</g>
</g>
<!-- Node2&#45;&gt;Node5 -->
<g id="edge4_Node000002_Node000005" class="edge">
<title>Node2&#45;&gt;Node5</title>
<g id="a_edge4_Node000002_Node000005"><a xlink:title=" ">
<path fill="none" stroke="#63b8ff" d="M263.49,-47.94C278.59,-43.21 295.41,-37.93 311.09,-33.01"/>
<polygon fill="#63b8ff" stroke="#63b8ff" points="312.19,-36.34 320.68,-30 310.09,-29.66 312.19,-36.34"/>
</a>
</g>
</g>
</g>
</svg>
