<?xml version="1.0" encoding="UTF-8" standalone="no"?>
<!DOCTYPE svg PUBLIC "-//W3C//DTD SVG 1.1//EN"
 "http://www.w3.org/Graphics/SVG/1.1/DTD/svg11.dtd">
<!-- Generated by graphviz version 2.43.0 (0)
 -->
<!-- Title: extension::Extension::dataWithSecondaryIdentifier Pages: 1 -->
<svg width="668pt" height="86pt"
 viewBox="0.00 0.00 668.00 86.00" xmlns="http://www.w3.org/2000/svg" xmlns:xlink="http://www.w3.org/1999/xlink">
<g id="graph0" class="graph" transform="scale(1 1) rotate(0) translate(4 82)">
<title>extension::Extension::dataWithSecondaryIdentifier</title>
<!-- Node1 -->
<g id="Node000001" class="node">
<title>Node1</title>
<g id="a_Node000001"><a xlink:title=" ">
<polygon fill="#999999" stroke="#666666" points="660,-54 499,-54 499,-24 660,-24 660,-54"/>
<text text-anchor="start" x="507" y="-42" font-family="Helvetica,sans-Serif" font-size="10.00">extension::Extension</text>
<text text-anchor="middle" x="579.5" y="-31" font-family="Helvetica,sans-Serif" font-size="10.00">::dataWithSecondaryIdentifier</text>
</a>
</g>
</g>
<!-- Node2 -->
<g id="Node000002" class="node">
<title>Node2</title>
<g id="a_Node000002"><a xlink:href="classextension_1_1SimAdcSensor.html#af57a2ce70d1102f841fc3e595c5e68fb" target="_top" xlink:title=" ">
<polygon fill="white" stroke="#666666" points="452.5,-78 312.5,-78 312.5,-48 452.5,-48 452.5,-78"/>
<text text-anchor="start" x="320.5" y="-66" font-family="Helvetica,sans-Serif" font-size="10.00">extension::SimAdcSensor</text>
<text text-anchor="middle" x="382.5" y="-55" font-family="Helvetica,sans-Serif" font-size="10.00">::loop</text>
</a>
</g>
</g>
<!-- Node1&#45;&gt;Node2 -->
<g id="edge1_Node000001_Node000002" class="edge">
<title>Node1&#45;&gt;Node2</title>
<g id="a_edge1_Node000001_Node000002"><a xlink:title=" ">
<path fill="none" stroke="#63b8ff" d="M488.74,-50.05C476.58,-51.54 464.26,-53.06 452.53,-54.5"/>
<polygon fill="#63b8ff" stroke="#63b8ff" points="489.41,-53.49 498.9,-48.8 488.55,-46.54 489.41,-53.49"/>
</a>
</g>
</g>
<!-- Node3 -->
<g id="Node000003" class="node">
<title>Node3</title>
<g id="a_Node000003"><a xlink:href="classextension_1_1AdcExtensionBase.html#a85d69527733d432f6c74c24c7aa47d42" target="_top" xlink:title=" ">
<polygon fill="white" stroke="#666666" points="463,-30 302,-30 302,0 463,0 463,-30"/>
<text text-anchor="start" x="310" y="-18" font-family="Helvetica,sans-Serif" font-size="10.00">extension::AdcExtensionBase</text>
<text text-anchor="middle" x="382.5" y="-7" font-family="Helvetica,sans-Serif" font-size="10.00">::reportAdcData</text>
</a>
</g>
</g>
<!-- Node1&#45;&gt;Node3 -->
<g id="edge2_Node000001_Node000003" class="edge">
<title>Node1&#45;&gt;Node3</title>
<g id="a_edge2_Node000001_Node000003"><a xlink:title=" ">
<path fill="none" stroke="#63b8ff" d="M488.88,-27.97C480.3,-26.91 471.64,-25.85 463.16,-24.8"/>
<polygon fill="#63b8ff" stroke="#63b8ff" points="488.55,-31.46 498.9,-29.2 489.41,-24.51 488.55,-31.46"/>
</a>
</g>
</g>
<!-- Node4 -->
<g id="Node000004" class="node">
<title>Node4</title>
<g id="a_Node000004"><a xlink:href="classextension_1_1Mcp3021.html#a51dc6f0aef0765bceaf401578288cd67" target="_top" xlink:title=" ">
<polygon fill="white" stroke="#666666" points="266,-30 151,-30 151,0 266,0 266,-30"/>
<text text-anchor="start" x="159" y="-18" font-family="Helvetica,sans-Serif" font-size="10.00">extension::Mcp3021</text>
<text text-anchor="middle" x="208.5" y="-7" font-family="Helvetica,sans-Serif" font-size="10.00">::readAdc</text>
</a>
</g>
</g>
<!-- Node3&#45;&gt;Node4 -->
<g id="edge3_Node000003_Node000004" class="edge">
<title>Node3&#45;&gt;Node4</title>
<g id="a_edge3_Node000003_Node000004"><a xlink:title=" ">
<path fill="none" stroke="#63b8ff" d="M291.69,-15C283.09,-15 274.54,-15 266.38,-15"/>
<polygon fill="#63b8ff" stroke="#63b8ff" points="291.79,-18.5 301.79,-15 291.79,-11.5 291.79,-18.5"/>
</a>
</g>
</g>
<!-- Node5 -->
<g id="Node000005" class="node">
<title>Node5</title>
<g id="a_Node000005"><a xlink:href="classextension_1_1Mcp3021.html#a34a36fefe55e92ad7b915f8758f66b9f" target="_top" xlink:title=" ">
<polygon fill="white" stroke="#666666" points="115,-30 0,-30 0,0 115,0 115,-30"/>
<text text-anchor="start" x="8" y="-18" font-family="Helvetica,sans-Serif" font-size="10.00">extension::Mcp3021</text>
<text text-anchor="middle" x="57.5" y="-7" font-family="Helvetica,sans-Serif" font-size="10.00">::i2cHandshake</text>
</a>
</g>
</g>
<!-- Node4&#45;&gt;Node5 -->
<g id="edge4_Node000004_Node000005" class="edge">
<title>Node4&#45;&gt;Node5</title>
<g id="a_edge4_Node000004_Node000005"><a xlink:title=" ">
<path fill="none" stroke="#63b8ff" d="M140.49,-15C132.01,-15 123.4,-15 115.1,-15"/>
<polygon fill="#63b8ff" stroke="#63b8ff" points="140.74,-18.5 150.74,-15 140.74,-11.5 140.74,-18.5"/>
</a>
</g>
</g>
</g>
</svg>
