<?xml version="1.0" encoding="UTF-8" standalone="no"?>
<!DOCTYPE svg PUBLIC "-//W3C//DTD SVG 1.1//EN"
 "http://www.w3.org/Graphics/SVG/1.1/DTD/svg11.dtd">
<!-- Generated by graphviz version 2.43.0 (0)
 -->
<!-- Title: cfg::CfgSection Pages: 1 -->
<svg width="256pt" height="292pt"
 viewBox="0.00 0.00 256.00 292.00" xmlns="http://www.w3.org/2000/svg" xmlns:xlink="http://www.w3.org/1999/xlink">
<g id="graph0" class="graph" transform="scale(1 1) rotate(0) translate(4 288)">
<title>cfg::CfgSection</title>
<!-- Node1 -->
<g id="Node000001" class="node">
<title>Node1</title>
<g id="a_Node000001"><a xlink:title="This is the base class for all configuration sections.">
<polygon fill="#999999" stroke="transparent" points="165.5,-284 81.5,-284 81.5,-205 165.5,-205 165.5,-284"/>
<text text-anchor="start" x="86.5" y="-271.5" font-family="Helvetica,sans-Serif" font-size="10.00">cfg::CfgSection</text>
<text text-anchor="start" x="86" y="-256.5" font-family="Helvetica,sans-Serif" font-size="10.00">#</text>
<text text-anchor="start" x="99.5" y="-256.5" font-family="Helvetica,sans-Serif" font-size="10.00">cfg_lock_</text>
<text text-anchor="start" x="86" y="-241.5" font-family="Helvetica,sans-Serif" font-size="10.00">#</text>
<text text-anchor="start" x="99.5" y="-241.5" font-family="Helvetica,sans-Serif" font-size="10.00">streams_</text>
<text text-anchor="start" x="86" y="-226.5" font-family="Helvetica,sans-Serif" font-size="10.00">+</text>
<text text-anchor="start" x="99.5" y="-226.5" font-family="Helvetica,sans-Serif" font-size="10.00">CfgSection()</text>
<text text-anchor="start" x="86" y="-211.5" font-family="Helvetica,sans-Serif" font-size="10.00">#</text>
<text text-anchor="start" x="99.5" y="-211.5" font-family="Helvetica,sans-Serif" font-size="10.00">error()</text>
<polygon fill="#666666" stroke="#666666" points="81.5,-266.5 81.5,-266.5 165.5,-266.5 165.5,-266.5 81.5,-266.5"/>
<polygon fill="#666666" stroke="#666666" points="81.5,-236.5 81.5,-236.5 97.5,-236.5 97.5,-236.5 81.5,-236.5"/>
<polygon fill="#666666" stroke="#666666" points="97.5,-236.5 97.5,-236.5 165.5,-236.5 165.5,-236.5 97.5,-236.5"/>
<polygon fill="none" stroke="#666666" points="81.5,-205 81.5,-284 165.5,-284 165.5,-205 81.5,-205"/>
</a>
</g>
</g>
<!-- Node2 -->
<g id="Node000002" class="node">
<title>Node2</title>
<g id="a_Node000002"><a xlink:href="classcfg_1_1AdcMappings.html" target="_top" xlink:title=" ">
<polygon fill="white" stroke="transparent" points="115,-161.5 0,-161.5 0,-7.5 115,-7.5 115,-161.5"/>
<text text-anchor="start" x="14.5" y="-149.5" font-family="Helvetica,sans-Serif" font-size="10.00">cfg::AdcMappings</text>
<text text-anchor="start" x="7" y="-134.5" font-family="Helvetica,sans-Serif" font-size="10.00">&#45;</text>
<text text-anchor="start" x="17.5" y="-134.5" font-family="Helvetica,sans-Serif" font-size="10.00">adc_configs_</text>
<text text-anchor="start" x="4.5" y="-119.5" font-family="Helvetica,sans-Serif" font-size="10.00">+</text>
<text text-anchor="start" x="17.5" y="-119.5" font-family="Helvetica,sans-Serif" font-size="10.00">AdcMappings()</text>
<text text-anchor="start" x="4.5" y="-104.5" font-family="Helvetica,sans-Serif" font-size="10.00">+</text>
<text text-anchor="start" x="17.5" y="-104.5" font-family="Helvetica,sans-Serif" font-size="10.00">addAdcConfig()</text>
<text text-anchor="start" x="4.5" y="-89.5" font-family="Helvetica,sans-Serif" font-size="10.00">+</text>
<text text-anchor="start" x="17.5" y="-89.5" font-family="Helvetica,sans-Serif" font-size="10.00">getAdcConfigs()</text>
<text text-anchor="start" x="4.5" y="-74.5" font-family="Helvetica,sans-Serif" font-size="10.00">+</text>
<text text-anchor="start" x="17.5" y="-74.5" font-family="Helvetica,sans-Serif" font-size="10.00">getJson()</text>
<text text-anchor="start" x="4.5" y="-59.5" font-family="Helvetica,sans-Serif" font-size="10.00">+</text>
<text text-anchor="start" x="17.5" y="-59.5" font-family="Helvetica,sans-Serif" font-size="10.00">removeAdcConfig()</text>
<text text-anchor="start" x="4.5" y="-44.5" font-family="Helvetica,sans-Serif" font-size="10.00">+</text>
<text text-anchor="start" x="17.5" y="-44.5" font-family="Helvetica,sans-Serif" font-size="10.00">setFromJson()</text>
<text text-anchor="start" x="4.5" y="-29.5" font-family="Helvetica,sans-Serif" font-size="10.00">+</text>
<text text-anchor="start" x="17.5" y="-29.5" font-family="Helvetica,sans-Serif" font-size="10.00">updateAdcConfig()</text>
<text text-anchor="start" x="7" y="-14.5" font-family="Helvetica,sans-Serif" font-size="10.00">&#45;</text>
<text text-anchor="start" x="17.5" y="-14.5" font-family="Helvetica,sans-Serif" font-size="10.00">doesLabelExist()</text>
<polygon fill="#666666" stroke="#666666" points="0.5,-144.5 0.5,-144.5 115.5,-144.5 115.5,-144.5 0.5,-144.5"/>
<polygon fill="#666666" stroke="#666666" points="0.5,-129.5 0.5,-129.5 15.5,-129.5 15.5,-129.5 0.5,-129.5"/>
<polygon fill="#666666" stroke="#666666" points="15.5,-129.5 15.5,-129.5 115.5,-129.5 115.5,-129.5 15.5,-129.5"/>
<polygon fill="none" stroke="#666666" points="0,-7.5 0,-161.5 115,-161.5 115,-7.5 0,-7.5"/>
</a>
</g>
</g>
<!-- Node1&#45;&gt;Node2 -->
<g id="edge1_Node000001_Node000002" class="edge">
<title>Node1&#45;&gt;Node2</title>
<g id="a_edge1_Node000001_Node000002"><a xlink:title=" ">
<path fill="none" stroke="#63b8ff" d="M103.39,-195.36C98.95,-184.72 94.14,-173.2 89.36,-161.76"/>
<polygon fill="none" stroke="#63b8ff" points="100.27,-196.97 107.35,-204.85 106.73,-194.27 100.27,-196.97"/>
</a>
</g>
</g>
<!-- Node3 -->
<g id="Node000003" class="node">
<title>Node3</title>
<g id="a_Node000003"><a xlink:href="classcfg_1_1Extensions.html" target="_top" xlink:title="The extensions section of the configuration.">
<polygon fill="white" stroke="transparent" points="248,-169 133,-169 133,0 248,0 248,-169"/>
<text text-anchor="start" x="153.5" y="-156.5" font-family="Helvetica,sans-Serif" font-size="10.00">cfg::Extensions</text>
<text text-anchor="start" x="140" y="-141.5" font-family="Helvetica,sans-Serif" font-size="10.00">&#45;</text>
<text text-anchor="start" x="150.5" y="-141.5" font-family="Helvetica,sans-Serif" font-size="10.00">extensions_</text>
<text text-anchor="start" x="137.5" y="-126.5" font-family="Helvetica,sans-Serif" font-size="10.00">+</text>
<text text-anchor="start" x="150.5" y="-126.5" font-family="Helvetica,sans-Serif" font-size="10.00">Extensions()</text>
<text text-anchor="start" x="137.5" y="-111.5" font-family="Helvetica,sans-Serif" font-size="10.00">+</text>
<text text-anchor="start" x="150.5" y="-111.5" font-family="Helvetica,sans-Serif" font-size="10.00">addExtension()</text>
<text text-anchor="start" x="137.5" y="-96.5" font-family="Helvetica,sans-Serif" font-size="10.00">+</text>
<text text-anchor="start" x="150.5" y="-96.5" font-family="Helvetica,sans-Serif" font-size="10.00">getExtensions()</text>
<text text-anchor="start" x="137.5" y="-81.5" font-family="Helvetica,sans-Serif" font-size="10.00">+</text>
<text text-anchor="start" x="150.5" y="-81.5" font-family="Helvetica,sans-Serif" font-size="10.00">getJson()</text>
<text text-anchor="start" x="137.5" y="-66.5" font-family="Helvetica,sans-Serif" font-size="10.00">+</text>
<text text-anchor="start" x="150.5" y="-66.5" font-family="Helvetica,sans-Serif" font-size="10.00">removeExtension()</text>
<text text-anchor="start" x="137.5" y="-51.5" font-family="Helvetica,sans-Serif" font-size="10.00">+</text>
<text text-anchor="start" x="150.5" y="-51.5" font-family="Helvetica,sans-Serif" font-size="10.00">setFromJson()</text>
<text text-anchor="start" x="137.5" y="-36.5" font-family="Helvetica,sans-Serif" font-size="10.00">+</text>
<text text-anchor="start" x="150.5" y="-36.5" font-family="Helvetica,sans-Serif" font-size="10.00">toggleExtension()</text>
<text text-anchor="start" x="137.5" y="-21.5" font-family="Helvetica,sans-Serif" font-size="10.00">+</text>
<text text-anchor="start" x="150.5" y="-21.5" font-family="Helvetica,sans-Serif" font-size="10.00">updateExtension()</text>
<text text-anchor="start" x="140" y="-6.5" font-family="Helvetica,sans-Serif" font-size="10.00">&#45;</text>
<text text-anchor="start" x="150.5" y="-6.5" font-family="Helvetica,sans-Serif" font-size="10.00">doesNameExist()</text>
<polygon fill="#666666" stroke="#666666" points="133.5,-151.5 133.5,-151.5 248.5,-151.5 248.5,-151.5 133.5,-151.5"/>
<polygon fill="#666666" stroke="#666666" points="133.5,-136.5 133.5,-136.5 148.5,-136.5 148.5,-136.5 133.5,-136.5"/>
<polygon fill="#666666" stroke="#666666" points="148.5,-136.5 148.5,-136.5 248.5,-136.5 248.5,-136.5 148.5,-136.5"/>
<polygon fill="none" stroke="#666666" points="133,0 133,-169 248,-169 248,0 133,0"/>
</a>
</g>
</g>
<!-- Node1&#45;&gt;Node3 -->
<g id="edge2_Node000001_Node000003" class="edge">
<title>Node1&#45;&gt;Node3</title>
<g id="a_edge2_Node000001_Node000003"><a xlink:title=" ">
<path fill="none" stroke="#63b8ff" d="M143.91,-195.37C147.43,-187.07 151.18,-178.22 154.97,-169.29"/>
<polygon fill="none" stroke="#63b8ff" points="140.57,-194.28 139.89,-204.85 147.02,-197.01 140.57,-194.28"/>
</a>
</g>
</g>
</g>
</svg>
