<?xml version="1.0" encoding="UTF-8" standalone="no"?>
<!DOCTYPE svg PUBLIC "-//W3C//DTD SVG 1.1//EN"
 "http://www.w3.org/Graphics/SVG/1.1/DTD/svg11.dtd">
<!-- Generated by graphviz version 2.43.0 (0)
 -->
<!-- Title: gfs_sim::SimEnvironmental Pages: 1 -->
<svg width="382pt" height="529pt"
 viewBox="0.00 0.00 381.53 529.00" xmlns="http://www.w3.org/2000/svg" xmlns:xlink="http://www.w3.org/1999/xlink">
<g id="graph0" class="graph" transform="scale(1 1) rotate(0) translate(4 525)">
<title>gfs_sim::SimEnvironmental</title>
<!-- Node1 -->
<g id="node1" class="node">
<title>Node1</title>
<g id="a_node1"><a xlink:title=" ">
<polygon fill="#bfbfbf" stroke="black" points="87.03,-0.5 87.03,-123.5 260.03,-123.5 260.03,-0.5 87.03,-0.5"/>
<text text-anchor="middle" x="173.53" y="-111.5" font-family="Helvetica,sans-Serif" font-size="10.00">gfs_sim::SimEnvironmental</text>
<polyline fill="none" stroke="black" points="87.03,-104.5 260.03,-104.5 "/>
<text text-anchor="middle" x="173.53" y="-92.5" font-family="Helvetica,sans-Serif" font-size="10.00"> </text>
<polyline fill="none" stroke="black" points="87.03,-85.5 260.03,-85.5 "/>
<text text-anchor="start" x="95.03" y="-73.5" font-family="Helvetica,sans-Serif" font-size="10.00">+ SimEnvironmental()</text>
<text text-anchor="start" x="95.03" y="-62.5" font-family="Helvetica,sans-Serif" font-size="10.00">+ getPressureMillibars()</text>
<text text-anchor="start" x="95.03" y="-51.5" font-family="Helvetica,sans-Serif" font-size="10.00">+ getRelativeHumidityPercent()</text>
<text text-anchor="start" x="95.03" y="-40.5" font-family="Helvetica,sans-Serif" font-size="10.00">+ getTemperatureCelsius()</text>
<text text-anchor="start" x="95.03" y="-29.5" font-family="Helvetica,sans-Serif" font-size="10.00">+ getWindDirectionDegrees()</text>
<text text-anchor="start" x="95.03" y="-18.5" font-family="Helvetica,sans-Serif" font-size="10.00">+ getWindSpeedMPS()</text>
<text text-anchor="start" x="95.03" y="-7.5" font-family="Helvetica,sans-Serif" font-size="10.00">+ setAltitudeMeters()</text>
</a>
</g>
</g>
<!-- Node2 -->
<g id="node2" class="node">
<title>Node2</title>
<g id="a_node2"><a xlink:title=" ">
<polygon fill="none" stroke="#bfbfbf" points="25.53,-463.5 25.53,-520.5 75.53,-520.5 75.53,-463.5 25.53,-463.5"/>
<text text-anchor="middle" x="50.53" y="-508.5" font-family="Helvetica,sans-Serif" font-size="10.00">double</text>
<polyline fill="none" stroke="#bfbfbf" points="25.53,-501.5 75.53,-501.5 "/>
<text text-anchor="middle" x="50.53" y="-489.5" font-family="Helvetica,sans-Serif" font-size="10.00"> </text>
<polyline fill="none" stroke="#bfbfbf" points="25.53,-482.5 75.53,-482.5 "/>
<text text-anchor="middle" x="50.53" y="-470.5" font-family="Helvetica,sans-Serif" font-size="10.00"> </text>
</a>
</g>
</g>
<!-- Node2&#45;&gt;Node1 -->
<g id="edge1" class="edge">
<title>Node2&#45;&gt;Node1</title>
<path fill="none" stroke="#404040" d="M38.91,-463.42C16.44,-405.56 -26.54,-268.75 23.53,-171 35.58,-147.47 55.41,-127.9 76.77,-112.18"/>
<polygon fill="none" stroke="#404040" points="76.84,-112.12 79.45,-105.4 86.66,-105.23 84.05,-111.95 76.84,-112.12"/>
<text text-anchor="middle" x="68.53" y="-236" font-family="Helvetica,sans-Serif" font-size="10.00"> &#45;altitude_meters_</text>
</g>
<!-- Node3 -->
<g id="node3" class="node">
<title>Node3</title>
<g id="a_node3"><a xlink:href="namespacegfs__sim.html#structgfs__sim_1_1EnvData" target="_top" xlink:title=" ">
<polygon fill="none" stroke="black" points="122.53,-210 122.53,-267 224.53,-267 224.53,-210 122.53,-210"/>
<text text-anchor="middle" x="173.53" y="-255" font-family="Helvetica,sans-Serif" font-size="10.00">gfs_sim::EnvData</text>
<polyline fill="none" stroke="black" points="122.53,-248 224.53,-248 "/>
<text text-anchor="middle" x="173.53" y="-236" font-family="Helvetica,sans-Serif" font-size="10.00"> </text>
<polyline fill="none" stroke="black" points="122.53,-229 224.53,-229 "/>
<text text-anchor="middle" x="173.53" y="-217" font-family="Helvetica,sans-Serif" font-size="10.00"> </text>
</a>
</g>
</g>
<!-- Node2&#45;&gt;Node3 -->
<g id="edge3" class="edge">
<title>Node2&#45;&gt;Node3</title>
<path fill="none" stroke="#404040" d="M64.17,-463.12C86.2,-418.06 129.71,-329.11 154.69,-278.02"/>
<polygon fill="none" stroke="#404040" points="154.75,-277.9 153.8,-270.75 160.03,-267.12 160.98,-274.26 154.75,-277.9"/>
<text text-anchor="middle" x="192.53" y="-415" font-family="Helvetica,sans-Serif" font-size="10.00"> +altitude_meters</text>
<text text-anchor="middle" x="192.53" y="-404" font-family="Helvetica,sans-Serif" font-size="10.00">+pressure_millibars</text>
<text text-anchor="start" x="130.53" y="-393" font-family="Helvetica,sans-Serif" font-size="10.00">+relative_humidity</text>
<text text-anchor="middle" x="192.53" y="-382" font-family="Helvetica,sans-Serif" font-size="10.00">_percent</text>
<text text-anchor="middle" x="192.53" y="-371" font-family="Helvetica,sans-Serif" font-size="10.00">+temperature_celsius</text>
<text text-anchor="middle" x="192.53" y="-360" font-family="Helvetica,sans-Serif" font-size="10.00">+wind_direction_degrees</text>
<text text-anchor="middle" x="192.53" y="-349" font-family="Helvetica,sans-Serif" font-size="10.00">+wind_speed_mps</text>
</g>
<!-- Node3&#45;&gt;Node1 -->
<g id="edge2" class="edge">
<title>Node3&#45;&gt;Node1</title>
<path fill="none" stroke="#404040" d="M173.53,-209.85C173.53,-189.94 173.53,-162.1 173.53,-136"/>
<polygon fill="none" stroke="#404040" points="173.53,-135.77 169.53,-129.77 173.53,-123.77 177.53,-129.77 173.53,-135.77"/>
<text text-anchor="middle" x="202.53" y="-145" font-family="Helvetica,sans-Serif" font-size="10.00"> &#45;env_data_</text>
</g>
<!-- Node4 -->
<g id="node4" class="node">
<title>Node4</title>
<g id="a_node4"><a xlink:href="namespacegfs__sim.html#structgfs__sim_1_1SimData" target="_top" xlink:title=" ">
<polygon fill="none" stroke="black" points="243.03,-171.5 243.03,-305.5 362.03,-305.5 362.03,-171.5 243.03,-171.5"/>
<text text-anchor="middle" x="302.53" y="-293.5" font-family="Helvetica,sans-Serif" font-size="10.00">gfs_sim::SimData</text>
<polyline fill="none" stroke="black" points="243.03,-286.5 362.03,-286.5 "/>
<text text-anchor="start" x="251.03" y="-274.5" font-family="Helvetica,sans-Serif" font-size="10.00">+ horz_velocity_mps</text>
<text text-anchor="start" x="251.03" y="-263.5" font-family="Helvetica,sans-Serif" font-size="10.00">+ humidity_percent</text>
<text text-anchor="start" x="251.03" y="-252.5" font-family="Helvetica,sans-Serif" font-size="10.00">+ latitude_deg</text>
<text text-anchor="start" x="251.03" y="-241.5" font-family="Helvetica,sans-Serif" font-size="10.00">+ longitude_deg</text>
<text text-anchor="start" x="251.03" y="-230.5" font-family="Helvetica,sans-Serif" font-size="10.00">+ pressure_mbar</text>
<text text-anchor="start" x="251.03" y="-219.5" font-family="Helvetica,sans-Serif" font-size="10.00">+ temperature_c</text>
<text text-anchor="start" x="251.03" y="-208.5" font-family="Helvetica,sans-Serif" font-size="10.00">+ vert_accel_mps2</text>
<text text-anchor="start" x="251.03" y="-197.5" font-family="Helvetica,sans-Serif" font-size="10.00">+ vert_velocity_mps</text>
<polyline fill="none" stroke="black" points="243.03,-190.5 362.03,-190.5 "/>
<text text-anchor="middle" x="302.53" y="-178.5" font-family="Helvetica,sans-Serif" font-size="10.00"> </text>
</a>
</g>
</g>
<!-- Node4&#45;&gt;Node1 -->
<g id="edge4" class="edge">
<title>Node4&#45;&gt;Node1</title>
<path fill="none" stroke="#404040" d="M256.86,-171.41C249.8,-161.49 242.53,-151.43 235.53,-142 233.37,-139.08 231.15,-136.12 228.89,-133.13"/>
<polygon fill="none" stroke="#404040" points="228.87,-133.1 222.05,-130.76 221.59,-123.56 228.41,-125.91 228.87,-133.1"/>
<text text-anchor="middle" x="260.53" y="-145" font-family="Helvetica,sans-Serif" font-size="10.00"> &#45;data_</text>
</g>
<!-- Node5 -->
<g id="node5" class="node">
<title>Node5</title>
<g id="a_node5"><a xlink:title=" ">
<polygon fill="none" stroke="#bfbfbf" points="249.53,-463.5 249.53,-520.5 355.53,-520.5 355.53,-463.5 249.53,-463.5"/>
<text text-anchor="middle" x="302.53" y="-508.5" font-family="Helvetica,sans-Serif" font-size="10.00">atomic&lt; double &gt;</text>
<polyline fill="none" stroke="#bfbfbf" points="249.53,-501.5 355.53,-501.5 "/>
<text text-anchor="middle" x="302.53" y="-489.5" font-family="Helvetica,sans-Serif" font-size="10.00"> </text>
<polyline fill="none" stroke="#bfbfbf" points="249.53,-482.5 355.53,-482.5 "/>
<text text-anchor="middle" x="302.53" y="-470.5" font-family="Helvetica,sans-Serif" font-size="10.00"> </text>
</a>
</g>
</g>
<!-- Node5&#45;&gt;Node4 -->
<g id="edge5" class="edge">
<title>Node5&#45;&gt;Node4</title>
<path fill="none" stroke="#404040" d="M302.53,-463.12C302.53,-428.34 302.53,-367.42 302.53,-317.94"/>
<polygon fill="none" stroke="#404040" points="302.53,-317.63 298.53,-311.63 302.53,-305.63 306.53,-311.63 302.53,-317.63"/>
<text text-anchor="middle" x="338.03" y="-437" font-family="Helvetica,sans-Serif" font-size="10.00"> +adc_ch_0</text>
<text text-anchor="middle" x="338.03" y="-426" font-family="Helvetica,sans-Serif" font-size="10.00">+adc_ch_1</text>
<text text-anchor="middle" x="338.03" y="-415" font-family="Helvetica,sans-Serif" font-size="10.00">+adc_ch_2</text>
<text text-anchor="middle" x="338.03" y="-404" font-family="Helvetica,sans-Serif" font-size="10.00">+adc_ch_3</text>
<text text-anchor="middle" x="338.03" y="-393" font-family="Helvetica,sans-Serif" font-size="10.00">+adc_ch_4</text>
<text text-anchor="middle" x="338.03" y="-382" font-family="Helvetica,sans-Serif" font-size="10.00">+adc_ch_5</text>
<text text-anchor="middle" x="338.03" y="-371" font-family="Helvetica,sans-Serif" font-size="10.00">+adc_ch_6</text>
<text text-anchor="middle" x="338.03" y="-360" font-family="Helvetica,sans-Serif" font-size="10.00">+adc_ch_7</text>
<text text-anchor="middle" x="338.03" y="-349" font-family="Helvetica,sans-Serif" font-size="10.00">+altitude_m</text>
<text text-anchor="middle" x="338.03" y="-338" font-family="Helvetica,sans-Serif" font-size="10.00">+heading_deg</text>
<text text-anchor="middle" x="338.03" y="-327" font-family="Helvetica,sans-Serif" font-size="10.00">...</text>
</g>
</g>
</svg>
