<?xml version="1.0" encoding="UTF-8" standalone="no"?>
<!DOCTYPE svg PUBLIC "-//W3C//DTD SVG 1.1//EN"
 "http://www.w3.org/Graphics/SVG/1.1/DTD/svg11.dtd">
<!-- Generated by graphviz version 2.43.0 (0)
 -->
<!-- Title: GiraffeException Pages: 1 -->
<svg width="273pt" height="204pt"
 viewBox="0.00 0.00 273.00 204.00" xmlns="http://www.w3.org/2000/svg" xmlns:xlink="http://www.w3.org/1999/xlink">
<g id="graph0" class="graph" transform="scale(1 1) rotate(0) translate(4 200)">
<title>GiraffeException</title>
<!-- Node1 -->
<g id="node1" class="node">
<title>Node1</title>
<g id="a_node1"><a xlink:title=" ">
<polygon fill="#bfbfbf" stroke="black" points="85,-0.5 85,-90.5 201,-90.5 201,-0.5 85,-0.5"/>
<text text-anchor="middle" x="143" y="-78.5" font-family="Helvetica,sans-Serif" font-size="10.00">GiraffeException</text>
<polyline fill="none" stroke="black" points="85,-71.5 201,-71.5 "/>
<text text-anchor="middle" x="143" y="-59.5" font-family="Helvetica,sans-Serif" font-size="10.00"> </text>
<polyline fill="none" stroke="black" points="85,-52.5 201,-52.5 "/>
<text text-anchor="start" x="93" y="-40.5" font-family="Helvetica,sans-Serif" font-size="10.00">+ GiraffeException()</text>
<text text-anchor="start" x="93" y="-29.5" font-family="Helvetica,sans-Serif" font-size="10.00">+ id()</text>
<text text-anchor="start" x="93" y="-18.5" font-family="Helvetica,sans-Serif" font-size="10.00">+ info()</text>
<text text-anchor="start" x="93" y="-7.5" font-family="Helvetica,sans-Serif" font-size="10.00">+ what()</text>
</a>
</g>
</g>
<!-- Node2 -->
<g id="node2" class="node">
<title>Node2</title>
<g id="a_node2"><a xlink:title=" ">
<polygon fill="none" stroke="#bfbfbf" points="0,-138.5 0,-195.5 86,-195.5 86,-138.5 0,-138.5"/>
<text text-anchor="middle" x="43" y="-183.5" font-family="Helvetica,sans-Serif" font-size="10.00">std::exception</text>
<polyline fill="none" stroke="#bfbfbf" points="0,-176.5 86,-176.5 "/>
<text text-anchor="middle" x="43" y="-164.5" font-family="Helvetica,sans-Serif" font-size="10.00"> </text>
<polyline fill="none" stroke="#bfbfbf" points="0,-157.5 86,-157.5 "/>
<text text-anchor="middle" x="43" y="-145.5" font-family="Helvetica,sans-Serif" font-size="10.00"> </text>
</a>
</g>
</g>
<!-- Node2&#45;&gt;Node1 -->
<g id="edge1" class="edge">
<title>Node2&#45;&gt;Node1</title>
<path fill="none" stroke="midnightblue" d="M72.79,-130.4C83.16,-118.01 94.94,-103.94 105.83,-90.91"/>
<polygon fill="none" stroke="midnightblue" points="69.93,-128.37 66.19,-138.28 75.3,-132.86 69.93,-128.37"/>
</g>
<!-- Node3 -->
<g id="node3" class="node">
<title>Node3</title>
<g id="a_node3"><a xlink:title=" ">
<polygon fill="none" stroke="#bfbfbf" points="104.5,-138.5 104.5,-195.5 181.5,-195.5 181.5,-138.5 104.5,-138.5"/>
<text text-anchor="middle" x="143" y="-183.5" font-family="Helvetica,sans-Serif" font-size="10.00">DiagnosticId</text>
<polyline fill="none" stroke="#bfbfbf" points="104.5,-176.5 181.5,-176.5 "/>
<text text-anchor="middle" x="143" y="-164.5" font-family="Helvetica,sans-Serif" font-size="10.00"> </text>
<polyline fill="none" stroke="#bfbfbf" points="104.5,-157.5 181.5,-157.5 "/>
<text text-anchor="middle" x="143" y="-145.5" font-family="Helvetica,sans-Serif" font-size="10.00"> </text>
</a>
</g>
</g>
<!-- Node3&#45;&gt;Node1 -->
<g id="edge2" class="edge">
<title>Node3&#45;&gt;Node1</title>
<path fill="none" stroke="#404040" d="M143,-138.28C143,-127.73 143,-115.29 143,-103.03"/>
<polygon fill="none" stroke="#404040" points="143,-102.91 139,-96.91 143,-90.91 147,-96.91 143,-102.91"/>
<text text-anchor="middle" x="181.5" y="-112" font-family="Helvetica,sans-Serif" font-size="10.00"> &#45;diagnostic_id_</text>
</g>
<!-- Node4 -->
<g id="node4" class="node">
<title>Node4</title>
<g id="a_node4"><a xlink:title=" ">
<polygon fill="none" stroke="#bfbfbf" points="221,-138.5 221,-195.5 265,-195.5 265,-138.5 221,-138.5"/>
<text text-anchor="middle" x="243" y="-183.5" font-family="Helvetica,sans-Serif" font-size="10.00">string</text>
<polyline fill="none" stroke="#bfbfbf" points="221,-176.5 265,-176.5 "/>
<text text-anchor="middle" x="243" y="-164.5" font-family="Helvetica,sans-Serif" font-size="10.00"> </text>
<polyline fill="none" stroke="#bfbfbf" points="221,-157.5 265,-157.5 "/>
<text text-anchor="middle" x="243" y="-145.5" font-family="Helvetica,sans-Serif" font-size="10.00"> </text>
</a>
</g>
</g>
<!-- Node4&#45;&gt;Node1 -->
<g id="edge3" class="edge">
<title>Node4&#45;&gt;Node1</title>
<path fill="none" stroke="#404040" d="M235.63,-138.41C232.18,-128.55 227.39,-117.73 221,-109 217.65,-104.43 213.89,-100 209.87,-95.77"/>
<polygon fill="none" stroke="#404040" points="209.87,-95.76 202.79,-94.4 201.32,-87.34 208.4,-88.7 209.87,-95.76"/>
<text text-anchor="middle" x="242.5" y="-112" font-family="Helvetica,sans-Serif" font-size="10.00"> &#45;info_</text>
</g>
</g>
</svg>
