<?xml version="1.0" encoding="UTF-8" standalone="no"?>
<!DOCTYPE svg PUBLIC "-//W3C//DTD SVG 1.1//EN"
 "http://www.w3.org/Graphics/SVG/1.1/DTD/svg11.dtd">
<!-- Generated by graphviz version 2.43.0 (0)
 -->
<!-- Title: data_middleware::InfluxDb::logLogPacket Pages: 1 -->
<svg width="273pt" height="66pt"
 viewBox="0.00 0.00 273.00 66.00" xmlns="http://www.w3.org/2000/svg" xmlns:xlink="http://www.w3.org/1999/xlink">
<g id="graph0" class="graph" transform="scale(1 1) rotate(0) translate(4 62)">
<title>data_middleware::InfluxDb::logLogPacket</title>
<!-- Node1 -->
<g id="node1" class="node">
<title>Node1</title>
<g id="a_node1"><a xlink:title=" ">
<polygon fill="#bfbfbf" stroke="black" points="0,-14 0,-44 148,-44 148,-14 0,-14"/>
<text text-anchor="start" x="8" y="-32" font-family="Helvetica,sans-Serif" font-size="10.00">data_middleware::InfluxDb</text>
<text text-anchor="middle" x="74" y="-21" font-family="Helvetica,sans-Serif" font-size="10.00">::logLogPacket</text>
</a>
</g>
</g>
<!-- Node2 -->
<g id="node2" class="node">
<title>Node2</title>
<g id="a_node2"><a xlink:href="influxdb_8cpp.html#ac41b8578c641f672b4d068264e386345" target="_top" xlink:title=" ">
<polygon fill="none" stroke="black" points="208.5,-38.5 208.5,-57.5 240.5,-57.5 240.5,-38.5 208.5,-38.5"/>
<text text-anchor="middle" x="224.5" y="-45.5" font-family="Helvetica,sans-Serif" font-size="10.00">qte</text>
</a>
</g>
</g>
<!-- Node1&#45;&gt;Node2 -->
<g id="edge1" class="edge">
<title>Node1&#45;&gt;Node2</title>
<path fill="none" stroke="midnightblue" d="M148.38,-38.39C166.25,-40.68 184.2,-42.97 198.06,-44.75"/>
<polygon fill="midnightblue" stroke="midnightblue" points="197.86,-48.25 208.23,-46.05 198.75,-41.3 197.86,-48.25"/>
</g>
<!-- Node3 -->
<g id="node3" class="node">
<title>Node3</title>
<g id="a_node3"><a xlink:href="namespaceutil.html#a1b719a9f1cb3fb7e7550bf723015fe9e" target="_top" xlink:title=" ">
<polygon fill="none" stroke="black" points="184,-0.5 184,-19.5 265,-19.5 265,-0.5 184,-0.5"/>
<text text-anchor="middle" x="224.5" y="-7.5" font-family="Helvetica,sans-Serif" font-size="10.00">util::to_string</text>
</a>
</g>
</g>
<!-- Node1&#45;&gt;Node3 -->
<g id="edge2" class="edge">
<title>Node1&#45;&gt;Node3</title>
<path fill="none" stroke="midnightblue" d="M148.38,-19.61C157.01,-18.51 165.66,-17.4 173.86,-16.35"/>
<polygon fill="midnightblue" stroke="midnightblue" points="174.49,-19.8 183.96,-15.06 173.6,-12.86 174.49,-19.8"/>
</g>
</g>
</svg>
