<?xml version="1.0" encoding="UTF-8" standalone="no"?>
<!DOCTYPE svg PUBLIC "-//W3C//DTD SVG 1.1//EN"
 "http://www.w3.org/Graphics/SVG/1.1/DTD/svg11.dtd">
<!-- Generated by graphviz version 2.43.0 (0)
 -->
<!-- Title: giraffe::gdl::TransportLayer::send Pages: 1 -->
<svg width="338pt" height="186pt"
 viewBox="0.00 0.00 338.00 186.00" xmlns="http://www.w3.org/2000/svg" xmlns:xlink="http://www.w3.org/1999/xlink">
<g id="graph0" class="graph" transform="scale(1 1) rotate(0) translate(4 182)">
<title>giraffe::gdl::TransportLayer::send</title>
<!-- Node1 -->
<g id="node1" class="node">
<title>Node1</title>
<g id="a_node1"><a xlink:title="Send a message to the remote node.">
<polygon fill="#bfbfbf" stroke="black" points="0,-73.5 0,-103.5 147,-103.5 147,-73.5 0,-73.5"/>
<text text-anchor="start" x="8" y="-91.5" font-family="Helvetica,sans-Serif" font-size="10.00">giraffe::gdl::TransportLayer</text>
<text text-anchor="middle" x="73.5" y="-80.5" font-family="Helvetica,sans-Serif" font-size="10.00">::send</text>
</a>
</g>
</g>
<!-- Node2 -->
<g id="node2" class="node">
<title>Node2</title>
<g id="a_node2"><a xlink:href="classgiraffe_1_1gdl_1_1Message.html#a0de98de7c4866d92efd28c7ec2115e04" target="_top" xlink:title=" ">
<polygon fill="none" stroke="black" points="197,-147.5 197,-177.5 316,-177.5 316,-147.5 197,-147.5"/>
<text text-anchor="start" x="205" y="-165.5" font-family="Helvetica,sans-Serif" font-size="10.00">giraffe::gdl::Message</text>
<text text-anchor="middle" x="256.5" y="-154.5" font-family="Helvetica,sans-Serif" font-size="10.00">::getType</text>
</a>
</g>
</g>
<!-- Node1&#45;&gt;Node2 -->
<g id="edge1" class="edge">
<title>Node1&#45;&gt;Node2</title>
<path fill="none" stroke="midnightblue" d="M104.97,-103.66C126.5,-114.09 156.18,-127.92 183,-138.5 187.73,-140.37 192.68,-142.22 197.67,-144.01"/>
<polygon fill="midnightblue" stroke="midnightblue" points="196.67,-147.36 207.26,-147.37 198.98,-140.76 196.67,-147.36"/>
</g>
<!-- Node3 -->
<g id="node3" class="node">
<title>Node3</title>
<g id="a_node3"><a xlink:href="classgiraffe_1_1gdl_1_1TransportLayer.html#a796c86f2cd82e0dba810fd51da7d7374" target="_top" xlink:title=" ">
<polygon fill="none" stroke="black" points="183,-98.5 183,-128.5 330,-128.5 330,-98.5 183,-98.5"/>
<text text-anchor="start" x="191" y="-116.5" font-family="Helvetica,sans-Serif" font-size="10.00">giraffe::gdl::TransportLayer</text>
<text text-anchor="middle" x="256.5" y="-105.5" font-family="Helvetica,sans-Serif" font-size="10.00">::isConnected</text>
</a>
</g>
</g>
<!-- Node1&#45;&gt;Node3 -->
<g id="edge2" class="edge">
<title>Node1&#45;&gt;Node3</title>
<path fill="none" stroke="midnightblue" d="M147.08,-98.52C155.56,-99.7 164.26,-100.9 172.87,-102.09"/>
<polygon fill="midnightblue" stroke="midnightblue" points="172.52,-105.57 182.91,-103.47 173.48,-98.64 172.52,-105.57"/>
</g>
<!-- Node4 -->
<g id="node4" class="node">
<title>Node4</title>
<g id="a_node4"><a xlink:href="classgiraffe_1_1gdl_1_1TransportLayer.html#a7a77c02664ac9a237db2bb6da4b3106a" target="_top" xlink:title="Check if the transport layer is ready to send a message (true) or if it is busy with the previous mes...">
<polygon fill="none" stroke="black" points="183,-49.5 183,-79.5 330,-79.5 330,-49.5 183,-49.5"/>
<text text-anchor="start" x="191" y="-67.5" font-family="Helvetica,sans-Serif" font-size="10.00">giraffe::gdl::TransportLayer</text>
<text text-anchor="middle" x="256.5" y="-56.5" font-family="Helvetica,sans-Serif" font-size="10.00">::isReadyToSend</text>
</a>
</g>
</g>
<!-- Node1&#45;&gt;Node4 -->
<g id="edge3" class="edge">
<title>Node1&#45;&gt;Node4</title>
<path fill="none" stroke="midnightblue" d="M147.08,-78.88C155.56,-77.75 164.26,-76.6 172.87,-75.46"/>
<polygon fill="midnightblue" stroke="midnightblue" points="173.45,-78.91 182.91,-74.13 172.53,-71.97 173.45,-78.91"/>
</g>
<!-- Node5 -->
<g id="node5" class="node">
<title>Node5</title>
<g id="a_node5"><a xlink:href="classgiraffe_1_1gdl_1_1Packet.html#a230dd4dc8894d107f481540d31c42fce" target="_top" xlink:title=" ">
<polygon fill="none" stroke="black" points="203,-0.5 203,-30.5 310,-30.5 310,-0.5 203,-0.5"/>
<text text-anchor="start" x="211" y="-18.5" font-family="Helvetica,sans-Serif" font-size="10.00">giraffe::gdl::Packet</text>
<text text-anchor="middle" x="256.5" y="-7.5" font-family="Helvetica,sans-Serif" font-size="10.00">::setPacketType</text>
</a>
</g>
</g>
<!-- Node1&#45;&gt;Node5 -->
<g id="edge4" class="edge">
<title>Node1&#45;&gt;Node5</title>
<path fill="none" stroke="midnightblue" d="M106.48,-73.5C127.93,-63.65 156.93,-50.74 183,-40.5 188.56,-38.32 194.39,-36.13 200.24,-34.01"/>
<polygon fill="midnightblue" stroke="midnightblue" points="201.79,-37.17 210.04,-30.52 199.44,-30.58 201.79,-37.17"/>
</g>
</g>
</svg>
