<?xml version="1.0" encoding="UTF-8" standalone="no"?>
<!DOCTYPE svg PUBLIC "-//W3C//DTD SVG 1.1//EN"
 "http://www.w3.org/Graphics/SVG/1.1/DTD/svg11.dtd">
<!-- Generated by graphviz version 2.43.0 (0)
 -->
<!-- Title: giraffe::radio::SoftwareRadio Pages: 1 -->
<svg width="545pt" height="917pt"
 viewBox="0.00 0.00 545.00 917.00" xmlns="http://www.w3.org/2000/svg" xmlns:xlink="http://www.w3.org/1999/xlink">
<g id="graph0" class="graph" transform="scale(1 1) rotate(0) translate(4 913)">
<title>giraffe::radio::SoftwareRadio</title>
<!-- Node1 -->
<g id="node1" class="node">
<title>Node1</title>
<g id="a_node1"><a xlink:title=" ">
<polygon fill="#bfbfbf" stroke="black" points="160,-0.5 160,-145.5 288,-145.5 288,-0.5 160,-0.5"/>
<text text-anchor="start" x="168" y="-133.5" font-family="Helvetica,sans-Serif" font-size="10.00">giraffe::radio::Software</text>
<text text-anchor="middle" x="224" y="-122.5" font-family="Helvetica,sans-Serif" font-size="10.00">Radio</text>
<polyline fill="none" stroke="black" points="160,-115.5 288,-115.5 "/>
<text text-anchor="middle" x="224" y="-103.5" font-family="Helvetica,sans-Serif" font-size="10.00"> </text>
<polyline fill="none" stroke="black" points="160,-96.5 288,-96.5 "/>
<text text-anchor="start" x="168" y="-84.5" font-family="Helvetica,sans-Serif" font-size="10.00">+ SoftwareRadio()</text>
<text text-anchor="start" x="168" y="-73.5" font-family="Helvetica,sans-Serif" font-size="10.00">+ ~SoftwareRadio()</text>
<text text-anchor="start" x="168" y="-62.5" font-family="Helvetica,sans-Serif" font-size="10.00">+ changeMode()</text>
<text text-anchor="start" x="168" y="-51.5" font-family="Helvetica,sans-Serif" font-size="10.00">+ disable()</text>
<text text-anchor="start" x="168" y="-40.5" font-family="Helvetica,sans-Serif" font-size="10.00">+ enable()</text>
<text text-anchor="start" x="168" y="-29.5" font-family="Helvetica,sans-Serif" font-size="10.00">+ startTransmit()</text>
<text text-anchor="start" x="168" y="-18.5" font-family="Helvetica,sans-Serif" font-size="10.00">+ stopTransmit()</text>
<text text-anchor="start" x="168" y="-7.5" font-family="Helvetica,sans-Serif" font-size="10.00">+ update()</text>
</a>
</g>
</g>
<!-- Node2 -->
<g id="node2" class="node">
<title>Node2</title>
<g id="a_node2"><a xlink:href="classgiraffe_1_1radio_1_1Radio.html" target="_top" xlink:title=" ">
<polygon fill="none" stroke="black" points="167.5,-183.5 167.5,-328.5 280.5,-328.5 280.5,-183.5 167.5,-183.5"/>
<text text-anchor="middle" x="224" y="-316.5" font-family="Helvetica,sans-Serif" font-size="10.00">giraffe::radio::Radio</text>
<polyline fill="none" stroke="black" points="167.5,-309.5 280.5,-309.5 "/>
<text text-anchor="middle" x="224" y="-297.5" font-family="Helvetica,sans-Serif" font-size="10.00"> </text>
<polyline fill="none" stroke="black" points="167.5,-290.5 280.5,-290.5 "/>
<text text-anchor="start" x="175.5" y="-278.5" font-family="Helvetica,sans-Serif" font-size="10.00">+ Radio()</text>
<text text-anchor="start" x="175.5" y="-267.5" font-family="Helvetica,sans-Serif" font-size="10.00">+ ~Radio()</text>
<text text-anchor="start" x="175.5" y="-256.5" font-family="Helvetica,sans-Serif" font-size="10.00">+ changeMode()</text>
<text text-anchor="start" x="175.5" y="-245.5" font-family="Helvetica,sans-Serif" font-size="10.00">+ disable()</text>
<text text-anchor="start" x="175.5" y="-234.5" font-family="Helvetica,sans-Serif" font-size="10.00">+ enable()</text>
<text text-anchor="start" x="175.5" y="-223.5" font-family="Helvetica,sans-Serif" font-size="10.00">+ getRssi()</text>
<text text-anchor="start" x="175.5" y="-212.5" font-family="Helvetica,sans-Serif" font-size="10.00">+ startTransmit()</text>
<text text-anchor="start" x="175.5" y="-201.5" font-family="Helvetica,sans-Serif" font-size="10.00">+ stopTransmit()</text>
<text text-anchor="start" x="175.5" y="-190.5" font-family="Helvetica,sans-Serif" font-size="10.00">+ update()</text>
</a>
</g>
</g>
<!-- Node2&#45;&gt;Node1 -->
<g id="edge1" class="edge">
<title>Node2&#45;&gt;Node1</title>
<path fill="none" stroke="midnightblue" d="M224,-173.46C224,-164.17 224,-154.75 224,-145.61"/>
<polygon fill="none" stroke="midnightblue" points="220.5,-173.46 224,-183.46 227.5,-173.46 220.5,-173.46"/>
</g>
<!-- Node3 -->
<g id="node3" class="node">
<title>Node3</title>
<g id="a_node3"><a xlink:href="classgiraffe_1_1gdl_1_1PhysicalLayer.html" target="_top" xlink:title="The physical layer of the Giraffe Data Link.">
<polygon fill="none" stroke="black" points="152.5,-366.5 152.5,-555.5 295.5,-555.5 295.5,-366.5 152.5,-366.5"/>
<text text-anchor="middle" x="224" y="-543.5" font-family="Helvetica,sans-Serif" font-size="10.00">giraffe::gdl::PhysicalLayer</text>
<polyline fill="none" stroke="black" points="152.5,-536.5 295.5,-536.5 "/>
<text text-anchor="middle" x="224" y="-524.5" font-family="Helvetica,sans-Serif" font-size="10.00"> </text>
<polyline fill="none" stroke="black" points="152.5,-517.5 295.5,-517.5 "/>
<text text-anchor="start" x="160.5" y="-505.5" font-family="Helvetica,sans-Serif" font-size="10.00">+ PhysicalLayer()</text>
<text text-anchor="start" x="160.5" y="-494.5" font-family="Helvetica,sans-Serif" font-size="10.00">+ ~PhysicalLayer()</text>
<text text-anchor="start" x="160.5" y="-483.5" font-family="Helvetica,sans-Serif" font-size="10.00">+ changeMode()</text>
<text text-anchor="start" x="160.5" y="-472.5" font-family="Helvetica,sans-Serif" font-size="10.00">+ disable()</text>
<text text-anchor="start" x="160.5" y="-461.5" font-family="Helvetica,sans-Serif" font-size="10.00">+ enable()</text>
<text text-anchor="start" x="160.5" y="-450.5" font-family="Helvetica,sans-Serif" font-size="10.00">+ getMode()</text>
<text text-anchor="start" x="160.5" y="-439.5" font-family="Helvetica,sans-Serif" font-size="10.00">+ getRssi()</text>
<text text-anchor="start" x="160.5" y="-428.5" font-family="Helvetica,sans-Serif" font-size="10.00">+ getState()</text>
<text text-anchor="start" x="160.5" y="-417.5" font-family="Helvetica,sans-Serif" font-size="10.00">+ startTransmit()</text>
<text text-anchor="start" x="160.5" y="-406.5" font-family="Helvetica,sans-Serif" font-size="10.00">+ stopTransmit()</text>
<text text-anchor="start" x="160.5" y="-395.5" font-family="Helvetica,sans-Serif" font-size="10.00">+ update()</text>
<text text-anchor="start" x="160.5" y="-384.5" font-family="Helvetica,sans-Serif" font-size="10.00"># setMode()</text>
<text text-anchor="start" x="160.5" y="-373.5" font-family="Helvetica,sans-Serif" font-size="10.00"># setState()</text>
</a>
</g>
</g>
<!-- Node3&#45;&gt;Node2 -->
<g id="edge2" class="edge">
<title>Node3&#45;&gt;Node2</title>
<path fill="none" stroke="midnightblue" d="M224,-356.11C224,-346.78 224,-337.47 224,-328.51"/>
<polygon fill="none" stroke="midnightblue" points="220.5,-356.22 224,-366.22 227.5,-356.22 220.5,-356.22"/>
</g>
<!-- Node4 -->
<g id="node4" class="node">
<title>Node4</title>
<g id="a_node4"><a xlink:title=" ">
<polygon fill="none" stroke="#bfbfbf" points="89,-669.5 89,-726.5 133,-726.5 133,-669.5 89,-669.5"/>
<text text-anchor="middle" x="111" y="-714.5" font-family="Helvetica,sans-Serif" font-size="10.00">Mode</text>
<polyline fill="none" stroke="#bfbfbf" points="89,-707.5 133,-707.5 "/>
<text text-anchor="middle" x="111" y="-695.5" font-family="Helvetica,sans-Serif" font-size="10.00"> </text>
<polyline fill="none" stroke="#bfbfbf" points="89,-688.5 133,-688.5 "/>
<text text-anchor="middle" x="111" y="-676.5" font-family="Helvetica,sans-Serif" font-size="10.00"> </text>
</a>
</g>
</g>
<!-- Node4&#45;&gt;Node3 -->
<g id="edge3" class="edge">
<title>Node4&#45;&gt;Node3</title>
<path fill="none" stroke="#404040" d="M118.49,-669.28C124.02,-650.25 132.27,-624.63 142,-603 147.44,-590.92 153.62,-578.54 160.11,-566.38"/>
<polygon fill="none" stroke="#404040" points="160.15,-566.31 159.49,-559.13 165.87,-555.76 166.52,-562.94 160.15,-566.31"/>
<text text-anchor="middle" x="176" y="-577" font-family="Helvetica,sans-Serif" font-size="10.00"> &#45;mode_</text>
</g>
<!-- Node5 -->
<g id="node5" class="node">
<title>Node5</title>
<g id="a_node5"><a xlink:href="classgiraffe_1_1gdl_1_1Config.html" target="_top" xlink:title="Data Link Configuration.">
<polygon fill="none" stroke="black" points="151,-603.5 151,-792.5 297,-792.5 297,-603.5 151,-603.5"/>
<text text-anchor="middle" x="224" y="-780.5" font-family="Helvetica,sans-Serif" font-size="10.00">giraffe::gdl::Config</text>
<polyline fill="none" stroke="black" points="151,-773.5 297,-773.5 "/>
<text text-anchor="middle" x="224" y="-761.5" font-family="Helvetica,sans-Serif" font-size="10.00"> </text>
<polyline fill="none" stroke="black" points="151,-754.5 297,-754.5 "/>
<text text-anchor="start" x="159" y="-742.5" font-family="Helvetica,sans-Serif" font-size="10.00">+ Config()</text>
<text text-anchor="start" x="159" y="-731.5" font-family="Helvetica,sans-Serif" font-size="10.00">+ ~Config()</text>
<text text-anchor="start" x="159" y="-720.5" font-family="Helvetica,sans-Serif" font-size="10.00">+ getCallSign()</text>
<text text-anchor="start" x="159" y="-709.5" font-family="Helvetica,sans-Serif" font-size="10.00">+ getProactiveKeepAlive()</text>
<text text-anchor="start" x="159" y="-698.5" font-family="Helvetica,sans-Serif" font-size="10.00">+ getRemoteCallSign()</text>
<text text-anchor="start" x="159" y="-687.5" font-family="Helvetica,sans-Serif" font-size="10.00">+ getRemoteSSID()</text>
<text text-anchor="start" x="159" y="-676.5" font-family="Helvetica,sans-Serif" font-size="10.00">+ getSSID()</text>
<text text-anchor="start" x="159" y="-665.5" font-family="Helvetica,sans-Serif" font-size="10.00">+ isController()</text>
<text text-anchor="start" x="159" y="-654.5" font-family="Helvetica,sans-Serif" font-size="10.00">+ setCallSign()</text>
<text text-anchor="start" x="159" y="-643.5" font-family="Helvetica,sans-Serif" font-size="10.00">+ setProactiveKeepAlive()</text>
<text text-anchor="start" x="159" y="-632.5" font-family="Helvetica,sans-Serif" font-size="10.00">+ setRemoteCallSign()</text>
<text text-anchor="start" x="159" y="-621.5" font-family="Helvetica,sans-Serif" font-size="10.00">+ setRemoteSSID()</text>
<text text-anchor="start" x="159" y="-610.5" font-family="Helvetica,sans-Serif" font-size="10.00">+ setSSID()</text>
</a>
</g>
</g>
<!-- Node5&#45;&gt;Node3 -->
<g id="edge4" class="edge">
<title>Node5&#45;&gt;Node3</title>
<path fill="none" stroke="#404040" d="M224,-603.45C224,-591.76 224,-579.75 224,-567.89"/>
<polygon fill="none" stroke="#404040" points="224,-567.62 220,-561.62 224,-555.62 228,-561.62 224,-567.62"/>
<text text-anchor="middle" x="247" y="-577" font-family="Helvetica,sans-Serif" font-size="10.00"> #config_</text>
</g>
<!-- Node6 -->
<g id="node6" class="node">
<title>Node6</title>
<g id="a_node6"><a xlink:title=" ">
<polygon fill="none" stroke="#bfbfbf" points="0,-851.5 0,-908.5 48,-908.5 48,-851.5 0,-851.5"/>
<text text-anchor="middle" x="24" y="-896.5" font-family="Helvetica,sans-Serif" font-size="10.00">mutex</text>
<polyline fill="none" stroke="#bfbfbf" points="0,-889.5 48,-889.5 "/>
<text text-anchor="middle" x="24" y="-877.5" font-family="Helvetica,sans-Serif" font-size="10.00"> </text>
<polyline fill="none" stroke="#bfbfbf" points="0,-870.5 48,-870.5 "/>
<text text-anchor="middle" x="24" y="-858.5" font-family="Helvetica,sans-Serif" font-size="10.00"> </text>
</a>
</g>
</g>
<!-- Node6&#45;&gt;Node5 -->
<g id="edge5" class="edge">
<title>Node6&#45;&gt;Node5</title>
<path fill="none" stroke="#404040" d="M29.77,-851.42C34.12,-837.31 41.54,-821.04 54,-811 82.41,-788.1 103.59,-808.82 140.09,-792.88"/>
<polygon fill="none" stroke="#404040" points="140.15,-792.85 143.65,-786.54 150.81,-787.34 147.32,-793.65 140.15,-792.85"/>
<text text-anchor="middle" x="94.5" y="-819.5" font-family="Helvetica,sans-Serif" font-size="10.00"> &#45;call_sign_lock_</text>
</g>
<!-- Node7 -->
<g id="node7" class="node">
<title>Node7</title>
<g id="a_node7"><a xlink:title=" ">
<polygon fill="none" stroke="#bfbfbf" points="74.5,-851.5 74.5,-908.5 181.5,-908.5 181.5,-851.5 74.5,-851.5"/>
<text text-anchor="middle" x="128" y="-896.5" font-family="Helvetica,sans-Serif" font-size="10.00">atomic&lt; uint8_t &gt;</text>
<polyline fill="none" stroke="#bfbfbf" points="74.5,-889.5 181.5,-889.5 "/>
<text text-anchor="middle" x="128" y="-877.5" font-family="Helvetica,sans-Serif" font-size="10.00"> </text>
<polyline fill="none" stroke="#bfbfbf" points="74.5,-870.5 181.5,-870.5 "/>
<text text-anchor="middle" x="128" y="-858.5" font-family="Helvetica,sans-Serif" font-size="10.00"> </text>
</a>
</g>
</g>
<!-- Node7&#45;&gt;Node5 -->
<g id="edge6" class="edge">
<title>Node7&#45;&gt;Node5</title>
<path fill="none" stroke="#404040" d="M133.51,-851.46C136.59,-838.79 141.03,-823.77 147,-811 148.16,-808.53 149.37,-806.05 150.62,-803.57"/>
<polygon fill="none" stroke="#404040" points="150.76,-803.3 150.05,-796.13 156.4,-792.71 157.11,-799.89 150.76,-803.3"/>
<text text-anchor="middle" x="183.5" y="-825" font-family="Helvetica,sans-Serif" font-size="10.00"> &#45;remote_ssid_</text>
<text text-anchor="middle" x="183.5" y="-814" font-family="Helvetica,sans-Serif" font-size="10.00">&#45;ssid_</text>
</g>
<!-- Node8 -->
<g id="node8" class="node">
<title>Node8</title>
<g id="a_node8"><a xlink:title=" ">
<polygon fill="none" stroke="#bfbfbf" points="202,-851.5 202,-908.5 246,-908.5 246,-851.5 202,-851.5"/>
<text text-anchor="middle" x="224" y="-896.5" font-family="Helvetica,sans-Serif" font-size="10.00">string</text>
<polyline fill="none" stroke="#bfbfbf" points="202,-889.5 246,-889.5 "/>
<text text-anchor="middle" x="224" y="-877.5" font-family="Helvetica,sans-Serif" font-size="10.00"> </text>
<polyline fill="none" stroke="#bfbfbf" points="202,-870.5 246,-870.5 "/>
<text text-anchor="middle" x="224" y="-858.5" font-family="Helvetica,sans-Serif" font-size="10.00"> </text>
</a>
</g>
</g>
<!-- Node8&#45;&gt;Node5 -->
<g id="edge7" class="edge">
<title>Node8&#45;&gt;Node5</title>
<path fill="none" stroke="#404040" d="M224,-851.27C224,-838.41 224,-822.23 224,-805.26"/>
<polygon fill="none" stroke="#404040" points="224,-804.79 220,-798.79 224,-792.79 228,-798.79 224,-804.79"/>
<text text-anchor="middle" x="270.5" y="-825" font-family="Helvetica,sans-Serif" font-size="10.00"> &#45;call_sign_</text>
<text text-anchor="middle" x="270.5" y="-814" font-family="Helvetica,sans-Serif" font-size="10.00">&#45;remote_call_sign_</text>
</g>
<!-- Node9 -->
<g id="node9" class="node">
<title>Node9</title>
<g id="a_node9"><a xlink:title=" ">
<polygon fill="none" stroke="#bfbfbf" points="321,-851.5 321,-908.5 359,-908.5 359,-851.5 321,-851.5"/>
<text text-anchor="middle" x="340" y="-896.5" font-family="Helvetica,sans-Serif" font-size="10.00">bool</text>
<polyline fill="none" stroke="#bfbfbf" points="321,-889.5 359,-889.5 "/>
<text text-anchor="middle" x="340" y="-877.5" font-family="Helvetica,sans-Serif" font-size="10.00"> </text>
<polyline fill="none" stroke="#bfbfbf" points="321,-870.5 359,-870.5 "/>
<text text-anchor="middle" x="340" y="-858.5" font-family="Helvetica,sans-Serif" font-size="10.00"> </text>
</a>
</g>
</g>
<!-- Node9&#45;&gt;Node5 -->
<g id="edge8" class="edge">
<title>Node9&#45;&gt;Node5</title>
<path fill="none" stroke="#404040" d="M333.62,-851.2C330.05,-838.47 324.91,-823.48 318,-811 315.22,-805.97 310.48,-799.22 304.56,-791.51"/>
<polygon fill="none" stroke="#404040" points="304.54,-791.49 297.69,-789.25 297.12,-782.06 303.97,-784.3 304.54,-791.49"/>
<text text-anchor="middle" x="363.5" y="-819.5" font-family="Helvetica,sans-Serif" font-size="10.00"> &#45;is_controller_</text>
</g>
<!-- Node10 -->
<g id="node10" class="node">
<title>Node10</title>
<g id="a_node10"><a xlink:title=" ">
<polygon fill="none" stroke="#bfbfbf" points="389,-851.5 389,-908.5 483,-908.5 483,-851.5 389,-851.5"/>
<text text-anchor="middle" x="436" y="-896.5" font-family="Helvetica,sans-Serif" font-size="10.00">atomic&lt; bool &gt;</text>
<polyline fill="none" stroke="#bfbfbf" points="389,-889.5 483,-889.5 "/>
<text text-anchor="middle" x="436" y="-877.5" font-family="Helvetica,sans-Serif" font-size="10.00"> </text>
<polyline fill="none" stroke="#bfbfbf" points="389,-870.5 483,-870.5 "/>
<text text-anchor="middle" x="436" y="-858.5" font-family="Helvetica,sans-Serif" font-size="10.00"> </text>
</a>
</g>
</g>
<!-- Node10&#45;&gt;Node5 -->
<g id="edge9" class="edge">
<title>Node10&#45;&gt;Node5</title>
<path fill="none" stroke="#404040" d="M429.47,-851.28C424.73,-837.13 416.82,-820.87 404,-811 371.73,-786.14 348.47,-810.33 308.09,-792.96"/>
<polygon fill="none" stroke="#404040" points="307.85,-792.84 300.69,-793.7 297.14,-787.42 304.3,-786.56 307.85,-792.84"/>
<text text-anchor="middle" x="479" y="-819.5" font-family="Helvetica,sans-Serif" font-size="10.00"> &#45;proactive_keep_alive_</text>
</g>
<!-- Node11 -->
<g id="node11" class="node">
<title>Node11</title>
<g id="a_node11"><a xlink:title=" ">
<polygon fill="none" stroke="#bfbfbf" points="315,-669.5 315,-726.5 357,-726.5 357,-669.5 315,-669.5"/>
<text text-anchor="middle" x="336" y="-714.5" font-family="Helvetica,sans-Serif" font-size="10.00">State</text>
<polyline fill="none" stroke="#bfbfbf" points="315,-707.5 357,-707.5 "/>
<text text-anchor="middle" x="336" y="-695.5" font-family="Helvetica,sans-Serif" font-size="10.00"> </text>
<polyline fill="none" stroke="#bfbfbf" points="315,-688.5 357,-688.5 "/>
<text text-anchor="middle" x="336" y="-676.5" font-family="Helvetica,sans-Serif" font-size="10.00"> </text>
</a>
</g>
</g>
<!-- Node11&#45;&gt;Node3 -->
<g id="edge10" class="edge">
<title>Node11&#45;&gt;Node3</title>
<path fill="none" stroke="#404040" d="M328.87,-669.27C323.56,-650.23 315.59,-624.61 306,-603 300.62,-590.89 294.47,-578.49 288.01,-566.33"/>
<polygon fill="none" stroke="#404040" points="287.97,-566.26 281.6,-562.88 282.26,-555.7 288.64,-559.08 287.97,-566.26"/>
<text text-anchor="middle" x="314.5" y="-577" font-family="Helvetica,sans-Serif" font-size="10.00"> &#45;state_</text>
</g>
</g>
</svg>
