<?xml version="1.0" encoding="UTF-8" standalone="no"?>
<!DOCTYPE svg PUBLIC "-//W3C//DTD SVG 1.1//EN"
 "http://www.w3.org/Graphics/SVG/1.1/DTD/svg11.dtd">
<!-- Generated by graphviz version 2.43.0 (0)
 -->
<!-- Title: extension::Extension::raiseFault Pages: 1 -->
<svg width="500pt" height="764pt"
 viewBox="0.00 0.00 500.00 764.00" xmlns="http://www.w3.org/2000/svg" xmlns:xlink="http://www.w3.org/1999/xlink">
<g id="graph0" class="graph" transform="scale(1 1) rotate(0) translate(4 760)">
<title>extension::Extension::raiseFault</title>
<!-- Node1 -->
<g id="node1" class="node">
<title>Node1</title>
<g id="a_node1"><a xlink:title="Used internally to raise a fault. This will stop an extension.">
<polygon fill="#bfbfbf" stroke="black" points="373,-367.5 373,-397.5 492,-397.5 492,-367.5 373,-367.5"/>
<text text-anchor="start" x="381" y="-385.5" font-family="Helvetica,sans-Serif" font-size="10.00">extension::Extension</text>
<text text-anchor="middle" x="432.5" y="-374.5" font-family="Helvetica,sans-Serif" font-size="10.00">::raiseFault</text>
</a>
</g>
</g>
<!-- Node2 -->
<g id="node2" class="node">
<title>Node2</title>
<g id="a_node2"><a xlink:href="classextension_1_1Bmi088.html#a21f2e4aca209eb184f28f1897a2d2249" target="_top" xlink:title=" ">
<polygon fill="none" stroke="black" points="199.5,-725.5 199.5,-755.5 313.5,-755.5 313.5,-725.5 199.5,-725.5"/>
<text text-anchor="start" x="207.5" y="-743.5" font-family="Helvetica,sans-Serif" font-size="10.00">extension::Bmi088::</text>
<text text-anchor="middle" x="256.5" y="-732.5" font-family="Helvetica,sans-Serif" font-size="10.00">Bmi088</text>
</a>
</g>
</g>
<!-- Node1&#45;&gt;Node2 -->
<g id="edge1" class="edge">
<title>Node1&#45;&gt;Node2</title>
<path fill="none" stroke="midnightblue" d="M432.05,-407.99C431.96,-469.81 422.89,-629.1 337,-716.5 330.53,-723.08 322.33,-727.87 313.66,-731.36"/>
<polygon fill="midnightblue" stroke="midnightblue" points="435.55,-407.59 431.98,-397.61 428.55,-407.64 435.55,-407.59"/>
</g>
<!-- Node3 -->
<g id="node3" class="node">
<title>Node3</title>
<g id="a_node3"><a xlink:href="classextension_1_1RgbStatusLed.html#a6bd44653c1e3b8f607e72015b92b39df" target="_top" xlink:title=" ">
<polygon fill="none" stroke="black" points="188,-676.5 188,-706.5 325,-706.5 325,-676.5 188,-676.5"/>
<text text-anchor="start" x="196" y="-694.5" font-family="Helvetica,sans-Serif" font-size="10.00">extension::RgbStatusLed</text>
<text text-anchor="middle" x="256.5" y="-683.5" font-family="Helvetica,sans-Serif" font-size="10.00">::RgbStatusLed</text>
</a>
</g>
</g>
<!-- Node1&#45;&gt;Node3 -->
<g id="edge2" class="edge">
<title>Node1&#45;&gt;Node3</title>
<path fill="none" stroke="midnightblue" d="M430.58,-408C427.17,-463.32 411.26,-595.22 337,-667.5 333.49,-670.92 329.51,-673.85 325.24,-676.37"/>
<polygon fill="midnightblue" stroke="midnightblue" points="434.09,-407.87 431.12,-397.7 427.1,-407.5 434.09,-407.87"/>
</g>
<!-- Node4 -->
<g id="node4" class="node">
<title>Node4</title>
<g id="a_node4"><a xlink:href="classextension_1_1Mcp3021.html#a62b663f2e0629940438589b7ba132cba" target="_top" xlink:title=" ">
<polygon fill="none" stroke="black" points="199,-627.5 199,-657.5 314,-657.5 314,-627.5 199,-627.5"/>
<text text-anchor="start" x="207" y="-645.5" font-family="Helvetica,sans-Serif" font-size="10.00">extension::Mcp3021</text>
<text text-anchor="middle" x="256.5" y="-634.5" font-family="Helvetica,sans-Serif" font-size="10.00">::adcStartup</text>
</a>
</g>
</g>
<!-- Node1&#45;&gt;Node4 -->
<g id="edge3" class="edge">
<title>Node1&#45;&gt;Node4</title>
<path fill="none" stroke="midnightblue" d="M428.56,-407.91C421.62,-456.08 399.8,-560.98 337,-618.5 330.51,-624.44 322.61,-628.91 314.32,-632.28"/>
<polygon fill="midnightblue" stroke="midnightblue" points="432.06,-408.12 429.92,-397.74 425.12,-407.19 432.06,-408.12"/>
</g>
<!-- Node5 -->
<g id="node5" class="node">
<title>Node5</title>
<g id="a_node5"><a xlink:href="classextension_1_1Bmi088.html#ae48a834e3578a93acef45729a07495f1" target="_top" xlink:title=" ">
<polygon fill="none" stroke="black" points="199.5,-578.5 199.5,-608.5 313.5,-608.5 313.5,-578.5 199.5,-578.5"/>
<text text-anchor="start" x="207.5" y="-596.5" font-family="Helvetica,sans-Serif" font-size="10.00">extension::Bmi088::</text>
<text text-anchor="middle" x="256.5" y="-585.5" font-family="Helvetica,sans-Serif" font-size="10.00">imuStartup</text>
</a>
</g>
</g>
<!-- Node1&#45;&gt;Node5 -->
<g id="edge4" class="edge">
<title>Node1&#45;&gt;Node5</title>
<path fill="none" stroke="midnightblue" d="M425.7,-407.41C415.07,-447.49 388.67,-526.15 337,-569.5 330.26,-575.15 322.22,-579.47 313.88,-582.78"/>
<polygon fill="midnightblue" stroke="midnightblue" points="429.11,-408.2 428.17,-397.65 422.32,-406.48 429.11,-408.2"/>
</g>
<!-- Node6 -->
<g id="node6" class="node">
<title>Node6</title>
<g id="a_node6"><a xlink:href="classextension_1_1AdcExtensionBase.html#a634b78f4a3a91ca4e3fa003565de24a6" target="_top" xlink:title=" ">
<polygon fill="none" stroke="black" points="176,-529.5 176,-559.5 337,-559.5 337,-529.5 176,-529.5"/>
<text text-anchor="start" x="184" y="-547.5" font-family="Helvetica,sans-Serif" font-size="10.00">extension::AdcExtensionBase</text>
<text text-anchor="middle" x="256.5" y="-536.5" font-family="Helvetica,sans-Serif" font-size="10.00">::loop</text>
</a>
</g>
</g>
<!-- Node1&#45;&gt;Node6 -->
<g id="edge5" class="edge">
<title>Node1&#45;&gt;Node6</title>
<path fill="none" stroke="midnightblue" d="M420.89,-406.87C406.32,-437.54 377.28,-489.77 337,-519.5 331.76,-523.37 325.91,-526.65 319.82,-529.43"/>
<polygon fill="midnightblue" stroke="midnightblue" points="424.09,-408.28 425.1,-397.73 417.74,-405.34 424.09,-408.28"/>
</g>
<!-- Node7 -->
<g id="node7" class="node">
<title>Node7</title>
<g id="a_node7"><a xlink:href="classextension_1_1Bme280.html#a3c31fc1c62a5c723129f386ff9bba2d4" target="_top" xlink:title=" ">
<polygon fill="none" stroke="black" points="187.5,-491 187.5,-510 325.5,-510 325.5,-491 187.5,-491"/>
<text text-anchor="middle" x="256.5" y="-498" font-family="Helvetica,sans-Serif" font-size="10.00">extension::Bme280::loop</text>
</a>
</g>
</g>
<!-- Node1&#45;&gt;Node7 -->
<g id="edge6" class="edge">
<title>Node1&#45;&gt;Node7</title>
<path fill="none" stroke="midnightblue" d="M415.38,-406C398.5,-428.79 369.88,-462.6 337,-481.5 330.23,-485.39 322.7,-488.48 315.05,-490.95"/>
<polygon fill="midnightblue" stroke="midnightblue" points="418.24,-408.02 421.26,-397.86 412.57,-403.92 418.24,-408.02"/>
</g>
<!-- Node8 -->
<g id="node8" class="node">
<title>Node8</title>
<g id="a_node8"><a xlink:href="classextension_1_1Ds18b20.html#acf4b0d0523885df4b2e9ec2bf35f4b9c" target="_top" xlink:title=" ">
<polygon fill="none" stroke="black" points="200,-441.5 200,-471.5 313,-471.5 313,-441.5 200,-441.5"/>
<text text-anchor="start" x="208" y="-459.5" font-family="Helvetica,sans-Serif" font-size="10.00">extension::Ds18b20</text>
<text text-anchor="middle" x="256.5" y="-448.5" font-family="Helvetica,sans-Serif" font-size="10.00">::loop</text>
</a>
</g>
</g>
<!-- Node1&#45;&gt;Node8 -->
<g id="edge7" class="edge">
<title>Node1&#45;&gt;Node8</title>
<path fill="none" stroke="midnightblue" d="M397.3,-402.66C379.68,-412.5 357.61,-424.03 337,-432.5 329.13,-435.73 320.67,-438.75 312.3,-441.48"/>
<polygon fill="midnightblue" stroke="midnightblue" points="399.1,-405.66 406.08,-397.68 395.65,-399.57 399.1,-405.66"/>
</g>
<!-- Node9 -->
<g id="node9" class="node">
<title>Node9</title>
<g id="a_node9"><a xlink:href="classextension_1_1ImuExtensionBase.html#a20dfe1a1df8a3887deb7a64bc38b42e4" target="_top" xlink:title=" ">
<polygon fill="none" stroke="black" points="176,-392.5 176,-422.5 337,-422.5 337,-392.5 176,-392.5"/>
<text text-anchor="start" x="184" y="-410.5" font-family="Helvetica,sans-Serif" font-size="10.00">extension::ImuExtensionBase</text>
<text text-anchor="middle" x="256.5" y="-399.5" font-family="Helvetica,sans-Serif" font-size="10.00">::loop</text>
</a>
</g>
</g>
<!-- Node1&#45;&gt;Node9 -->
<g id="edge8" class="edge">
<title>Node1&#45;&gt;Node9</title>
<path fill="none" stroke="midnightblue" d="M362.51,-392.41C354.14,-393.61 345.53,-394.85 337.02,-396.07"/>
<polygon fill="midnightblue" stroke="midnightblue" points="363.19,-395.85 372.59,-390.96 362.2,-388.92 363.19,-395.85"/>
</g>
<!-- Node10 -->
<g id="node10" class="node">
<title>Node10</title>
<g id="a_node10"><a xlink:href="classextension_1_1PiCamera.html#a2e7468202c0c0cc42271cb4f9b04c6f7" target="_top" xlink:title=" ">
<polygon fill="none" stroke="black" points="197.5,-343.5 197.5,-373.5 315.5,-373.5 315.5,-343.5 197.5,-343.5"/>
<text text-anchor="start" x="205.5" y="-361.5" font-family="Helvetica,sans-Serif" font-size="10.00">extension::PiCamera</text>
<text text-anchor="middle" x="256.5" y="-350.5" font-family="Helvetica,sans-Serif" font-size="10.00">::loop</text>
</a>
</g>
</g>
<!-- Node1&#45;&gt;Node10 -->
<g id="edge9" class="edge">
<title>Node1&#45;&gt;Node10</title>
<path fill="none" stroke="midnightblue" d="M362.55,-372.99C347.05,-370.85 330.76,-368.61 315.76,-366.54"/>
<polygon fill="midnightblue" stroke="midnightblue" points="362.21,-376.48 372.59,-374.37 363.16,-369.54 362.21,-376.48"/>
</g>
<!-- Node11 -->
<g id="node11" class="node">
<title>Node11</title>
<g id="a_node11"><a xlink:href="classextension_1_1RgbStatusLed.html#a66ec9a2dcb73c5d2320398b069179aa0" target="_top" xlink:title=" ">
<polygon fill="none" stroke="black" points="188,-294.5 188,-324.5 325,-324.5 325,-294.5 188,-294.5"/>
<text text-anchor="start" x="196" y="-312.5" font-family="Helvetica,sans-Serif" font-size="10.00">extension::RgbStatusLed</text>
<text text-anchor="middle" x="256.5" y="-301.5" font-family="Helvetica,sans-Serif" font-size="10.00">::shutdown</text>
</a>
</g>
</g>
<!-- Node1&#45;&gt;Node11 -->
<g id="edge10" class="edge">
<title>Node1&#45;&gt;Node11</title>
<path fill="none" stroke="midnightblue" d="M395.55,-362.47C378.18,-353.25 356.84,-342.59 337,-334.5 328.29,-330.95 318.88,-327.59 309.69,-324.55"/>
<polygon fill="midnightblue" stroke="midnightblue" points="394.3,-365.77 404.76,-367.42 397.61,-359.6 394.3,-365.77"/>
</g>
<!-- Node12 -->
<g id="node12" class="node">
<title>Node12</title>
<g id="a_node12"><a xlink:href="classextension_1_1Bme280.html#ae62191b9e4f93e4549998a8772e7b455" target="_top" xlink:title=" ">
<polygon fill="none" stroke="black" points="198,-245.5 198,-275.5 315,-275.5 315,-245.5 198,-245.5"/>
<text text-anchor="start" x="206" y="-263.5" font-family="Helvetica,sans-Serif" font-size="10.00">extension::Bme280::</text>
<text text-anchor="middle" x="256.5" y="-252.5" font-family="Helvetica,sans-Serif" font-size="10.00">startup</text>
</a>
</g>
</g>
<!-- Node1&#45;&gt;Node12 -->
<g id="edge11" class="edge">
<title>Node1&#45;&gt;Node12</title>
<path fill="none" stroke="midnightblue" d="M414.47,-359.31C397.23,-337.36 368.64,-304.97 337,-285.5 330.22,-281.33 322.69,-277.8 315.03,-274.82"/>
<polygon fill="midnightblue" stroke="midnightblue" points="411.85,-361.64 420.72,-367.44 417.4,-357.38 411.85,-361.64"/>
</g>
<!-- Node13 -->
<g id="node13" class="node">
<title>Node13</title>
<g id="a_node13"><a xlink:href="classextension_1_1Ds18b20.html#a4e5fac3093a35bf9837c476954f28e21" target="_top" xlink:title=" ">
<polygon fill="none" stroke="black" points="200,-196.5 200,-226.5 313,-226.5 313,-196.5 200,-196.5"/>
<text text-anchor="start" x="208" y="-214.5" font-family="Helvetica,sans-Serif" font-size="10.00">extension::Ds18b20</text>
<text text-anchor="middle" x="256.5" y="-203.5" font-family="Helvetica,sans-Serif" font-size="10.00">::startup</text>
</a>
</g>
</g>
<!-- Node1&#45;&gt;Node13 -->
<g id="edge12" class="edge">
<title>Node1&#45;&gt;Node13</title>
<path fill="none" stroke="midnightblue" d="M421.93,-357.96C408.03,-325.5 379.24,-268.65 337,-236.5 329.98,-231.16 321.79,-226.94 313.38,-223.61"/>
<polygon fill="midnightblue" stroke="midnightblue" points="418.69,-359.3 425.76,-367.2 425.16,-356.62 418.69,-359.3"/>
</g>
<!-- Node14 -->
<g id="node14" class="node">
<title>Node14</title>
<g id="a_node14"><a xlink:href="classextension_1_1PiCamera.html#abe7dc219785211e3a0d86a50d481cd41" target="_top" xlink:title=" ">
<polygon fill="none" stroke="black" points="197.5,-147.5 197.5,-177.5 315.5,-177.5 315.5,-147.5 197.5,-147.5"/>
<text text-anchor="start" x="205.5" y="-165.5" font-family="Helvetica,sans-Serif" font-size="10.00">extension::PiCamera</text>
<text text-anchor="middle" x="256.5" y="-154.5" font-family="Helvetica,sans-Serif" font-size="10.00">::startup</text>
</a>
</g>
</g>
<!-- Node1&#45;&gt;Node14 -->
<g id="edge13" class="edge">
<title>Node1&#45;&gt;Node14</title>
<path fill="none" stroke="midnightblue" d="M426.17,-357.49C416.06,-316.1 390.18,-233.41 337,-187.5 330.76,-182.11 323.35,-177.88 315.61,-174.56"/>
<polygon fill="midnightblue" stroke="midnightblue" points="422.78,-358.36 428.46,-367.3 429.6,-356.77 422.78,-358.36"/>
</g>
<!-- Node15 -->
<g id="node15" class="node">
<title>Node15</title>
<g id="a_node15"><a xlink:href="classextension_1_1RgbStatusLed.html#a1e87d52291490190be9331a3f00be2f6" target="_top" xlink:title=" ">
<polygon fill="none" stroke="black" points="188,-98.5 188,-128.5 325,-128.5 325,-98.5 188,-98.5"/>
<text text-anchor="start" x="196" y="-116.5" font-family="Helvetica,sans-Serif" font-size="10.00">extension::RgbStatusLed</text>
<text text-anchor="middle" x="256.5" y="-105.5" font-family="Helvetica,sans-Serif" font-size="10.00">::startup</text>
</a>
</g>
</g>
<!-- Node1&#45;&gt;Node15 -->
<g id="edge14" class="edge">
<title>Node1&#45;&gt;Node15</title>
<path fill="none" stroke="midnightblue" d="M428.9,-357.33C422.48,-308.16 401.4,-198.86 337,-138.5 332.88,-134.64 328.17,-131.38 323.15,-128.62"/>
<polygon fill="midnightblue" stroke="midnightblue" points="425.44,-357.9 430.12,-367.41 432.39,-357.06 425.44,-357.9"/>
</g>
<!-- Node16 -->
<g id="node16" class="node">
<title>Node16</title>
<g id="a_node16"><a xlink:href="classextension_1_1SamM8q.html#a58948f60001940a5235104b2f9b09c74" target="_top" xlink:title="Startup the extension.">
<polygon fill="none" stroke="black" points="197,-49.5 197,-79.5 316,-79.5 316,-49.5 197,-49.5"/>
<text text-anchor="start" x="205" y="-67.5" font-family="Helvetica,sans-Serif" font-size="10.00">extension::SamM8q::</text>
<text text-anchor="middle" x="256.5" y="-56.5" font-family="Helvetica,sans-Serif" font-size="10.00">startup</text>
</a>
</g>
</g>
<!-- Node1&#45;&gt;Node16 -->
<g id="edge15" class="edge">
<title>Node1&#45;&gt;Node16</title>
<path fill="none" stroke="midnightblue" d="M430.79,-357.12C427.82,-300.85 412.74,-164.69 337,-89.5 331.15,-83.69 323.96,-79.23 316.32,-75.8"/>
<polygon fill="midnightblue" stroke="midnightblue" points="427.3,-357.43 431.24,-367.27 434.29,-357.12 427.3,-357.43"/>
</g>
<!-- Node17 -->
<g id="node17" class="node">
<title>Node17</title>
<g id="a_node17"><a xlink:href="group__SAMM8QState.html#ga7c0542f4da8c084fa7b22d632f8e6dba" target="_top" xlink:title=" ">
<polygon fill="none" stroke="black" points="197,-0.5 197,-30.5 316,-30.5 316,-0.5 197,-0.5"/>
<text text-anchor="start" x="205" y="-18.5" font-family="Helvetica,sans-Serif" font-size="10.00">extension::SamM8q::</text>
<text text-anchor="middle" x="256.5" y="-7.5" font-family="Helvetica,sans-Serif" font-size="10.00">stateReset</text>
</a>
</g>
</g>
<!-- Node1&#45;&gt;Node17 -->
<g id="edge16" class="edge">
<title>Node1&#45;&gt;Node17</title>
<path fill="none" stroke="midnightblue" d="M432.19,-357.31C432.49,-294.78 424.39,-131.01 337,-40.5 331.17,-34.46 323.9,-29.88 316.15,-26.4"/>
<polygon fill="midnightblue" stroke="midnightblue" points="428.69,-357.39 432.06,-367.44 435.69,-357.48 428.69,-357.39"/>
</g>
<!-- Node18 -->
<g id="node18" class="node">
<title>Node18</title>
<g id="a_node18"><a xlink:href="classextension_1_1SamM8q.html#a07c59e7e854347253d743501e8cb5878" target="_top" xlink:title="Contains a simple state machine that will configure, reset, and read data from the sensor....">
<polygon fill="none" stroke="black" points="0,-6 0,-25 140,-25 140,-6 0,-6"/>
<text text-anchor="middle" x="70" y="-13" font-family="Helvetica,sans-Serif" font-size="10.00">extension::SamM8q::loop</text>
</a>
</g>
</g>
<!-- Node17&#45;&gt;Node18 -->
<g id="edge17" class="edge">
<title>Node17&#45;&gt;Node18</title>
<path fill="none" stroke="midnightblue" d="M186.53,-15.5C171.36,-15.5 155.29,-15.5 140.12,-15.5"/>
<polygon fill="midnightblue" stroke="midnightblue" points="186.87,-19 196.87,-15.5 186.87,-12 186.87,-19"/>
</g>
</g>
</svg>
