<?xml version="1.0" encoding="UTF-8" standalone="no"?>
<!DOCTYPE svg PUBLIC "-//W3C//DTD SVG 1.1//EN"
 "http://www.w3.org/Graphics/SVG/1.1/DTD/svg11.dtd">
<!-- Generated by graphviz version 2.43.0 (0)
 -->
<!-- Title: giraffe::gdl::MessageQueue::push Pages: 1 -->
<svg width="1067pt" height="168pt"
 viewBox="0.00 0.00 1067.00 167.50" xmlns="http://www.w3.org/2000/svg" xmlns:xlink="http://www.w3.org/1999/xlink">
<g id="graph0" class="graph" transform="scale(1 1) rotate(0) translate(4 163.5)">
<title>giraffe::gdl::MessageQueue::push</title>
<!-- Node1 -->
<g id="node1" class="node">
<title>Node1</title>
<g id="a_node1"><a xlink:title="Push a message onto the queue.">
<polygon fill="#bfbfbf" stroke="black" points="909,-49.5 909,-79.5 1059,-79.5 1059,-49.5 909,-49.5"/>
<text text-anchor="start" x="917" y="-67.5" font-family="Helvetica,sans-Serif" font-size="10.00">giraffe::gdl::MessageQueue</text>
<text text-anchor="middle" x="984" y="-56.5" font-family="Helvetica,sans-Serif" font-size="10.00">::push</text>
</a>
</g>
</g>
<!-- Node2 -->
<g id="node2" class="node">
<title>Node2</title>
<g id="a_node2"><a xlink:href="classgiraffe_1_1gdl_1_1DataLink.html#a2f6c5032357d005d854f969a93c360de" target="_top" xlink:title="The main thread function for GDL.">
<polygon fill="none" stroke="black" points="754,-98.5 754,-128.5 873,-128.5 873,-98.5 754,-98.5"/>
<text text-anchor="start" x="762" y="-116.5" font-family="Helvetica,sans-Serif" font-size="10.00">giraffe::gdl::DataLink</text>
<text text-anchor="middle" x="813.5" y="-105.5" font-family="Helvetica,sans-Serif" font-size="10.00">::gdlThread</text>
</a>
</g>
</g>
<!-- Node1&#45;&gt;Node2 -->
<g id="edge1" class="edge">
<title>Node1&#45;&gt;Node2</title>
<path fill="none" stroke="midnightblue" d="M921.47,-82.39C903.34,-87.66 883.7,-93.38 866.26,-98.45"/>
<polygon fill="midnightblue" stroke="midnightblue" points="922.44,-85.75 931.07,-79.6 920.49,-79.03 922.44,-85.75"/>
</g>
<!-- Node7 -->
<g id="node7" class="node">
<title>Node7</title>
<g id="a_node7"><a xlink:href="classgiraffe_1_1gdl_1_1DataLink.html#a534ce7787534f0920e11232464b5086a" target="_top" xlink:title=" ">
<polygon fill="none" stroke="black" points="754,-49.5 754,-79.5 873,-79.5 873,-49.5 754,-49.5"/>
<text text-anchor="start" x="762" y="-67.5" font-family="Helvetica,sans-Serif" font-size="10.00">giraffe::gdl::DataLink</text>
<text text-anchor="middle" x="813.5" y="-56.5" font-family="Helvetica,sans-Serif" font-size="10.00">::sendMessage</text>
</a>
</g>
</g>
<!-- Node1&#45;&gt;Node7 -->
<g id="edge6" class="edge">
<title>Node1&#45;&gt;Node7</title>
<path fill="none" stroke="midnightblue" d="M898.52,-64.5C889.91,-64.5 881.31,-64.5 873.07,-64.5"/>
<polygon fill="midnightblue" stroke="midnightblue" points="898.6,-68 908.6,-64.5 898.6,-61 898.6,-68"/>
</g>
<!-- Node12 -->
<g id="node12" class="node">
<title>Node12</title>
<g id="a_node12"><a xlink:href="classgiraffe_1_1gdl_1_1DataLink.html#a089374ddeb5601b859264baa5986304f" target="_top" xlink:title=" ">
<polygon fill="none" stroke="black" points="754,-0.5 754,-30.5 873,-30.5 873,-0.5 754,-0.5"/>
<text text-anchor="start" x="762" y="-18.5" font-family="Helvetica,sans-Serif" font-size="10.00">giraffe::gdl::DataLink</text>
<text text-anchor="middle" x="813.5" y="-7.5" font-family="Helvetica,sans-Serif" font-size="10.00">::sendText</text>
</a>
</g>
</g>
<!-- Node1&#45;&gt;Node12 -->
<g id="edge13" class="edge">
<title>Node1&#45;&gt;Node12</title>
<path fill="none" stroke="midnightblue" d="M921.47,-46.61C903.34,-41.34 883.7,-35.62 866.26,-30.55"/>
<polygon fill="midnightblue" stroke="midnightblue" points="920.49,-49.97 931.07,-49.4 922.44,-43.25 920.49,-49.97"/>
</g>
<!-- Node3 -->
<g id="node3" class="node">
<title>Node3</title>
<g id="a_node3"><a xlink:href="classgiraffe_1_1gdl_1_1DataLink.html#aadf2f53eec8c20e6d7085a1de24b4946" target="_top" xlink:title=" ">
<polygon fill="none" stroke="black" points="597,-98.5 597,-128.5 716,-128.5 716,-98.5 597,-98.5"/>
<text text-anchor="start" x="605" y="-116.5" font-family="Helvetica,sans-Serif" font-size="10.00">giraffe::gdl::DataLink</text>
<text text-anchor="middle" x="656.5" y="-105.5" font-family="Helvetica,sans-Serif" font-size="10.00">::enable</text>
</a>
</g>
</g>
<!-- Node2&#45;&gt;Node3 -->
<g id="edge2" class="edge">
<title>Node2&#45;&gt;Node3</title>
<path fill="none" stroke="midnightblue" d="M743.65,-113.5C734.48,-113.5 725.15,-113.5 716.18,-113.5"/>
<polygon fill="midnightblue" stroke="midnightblue" points="743.9,-117 753.9,-113.5 743.9,-110 743.9,-117"/>
</g>
<!-- Node4 -->
<g id="node4" class="node">
<title>Node4</title>
<g id="a_node4"><a xlink:href="gdl__terminal_8cpp.html#a3c04138a5bfe5d72780bb7e82a18e627" target="_top" xlink:title=" ">
<polygon fill="none" stroke="black" points="467.5,-140 467.5,-159 508.5,-159 508.5,-140 467.5,-140"/>
<text text-anchor="middle" x="488" y="-147" font-family="Helvetica,sans-Serif" font-size="10.00">main</text>
</a>
</g>
</g>
<!-- Node3&#45;&gt;Node4 -->
<g id="edge3" class="edge">
<title>Node3&#45;&gt;Node4</title>
<path fill="none" stroke="midnightblue" d="M586.94,-128.32C558.73,-134.42 528.2,-141.02 508.86,-145.21"/>
<polygon fill="midnightblue" stroke="midnightblue" points="587.76,-131.73 596.8,-126.19 586.28,-124.88 587.76,-131.73"/>
</g>
<!-- Node5 -->
<g id="node5" class="node">
<title>Node5</title>
<g id="a_node5"><a xlink:href="classgiraffe_1_1gdl_1_1GdlServer.html#a7982a27f1e9ee790d196a5cd8cba6217" target="_top" xlink:title=" ">
<polygon fill="none" stroke="black" points="77,-80 77,-99 222,-99 222,-80 77,-80"/>
<text text-anchor="middle" x="149.5" y="-87" font-family="Helvetica,sans-Serif" font-size="10.00">giraffe::gdl::GdlServer::run</text>
</a>
</g>
</g>
<!-- Node3&#45;&gt;Node5 -->
<g id="edge4" class="edge">
<title>Node3&#45;&gt;Node5</title>
<path fill="none" stroke="midnightblue" d="M586.44,-110.22C490.81,-105.67 318.93,-97.5 222.01,-92.9"/>
<polygon fill="midnightblue" stroke="midnightblue" points="586.43,-113.72 596.58,-110.7 586.76,-106.73 586.43,-113.72"/>
</g>
<!-- Node6 -->
<g id="node6" class="node">
<title>Node6</title>
<g id="a_node6"><a xlink:href="src_2data__link_2server_2main_8cpp.html#ae66f6b31b5ad750f1fe042a706a4e3d4" target="_top" xlink:title=" ">
<polygon fill="none" stroke="black" points="0,-80 0,-99 41,-99 41,-80 0,-80"/>
<text text-anchor="middle" x="20.5" y="-87" font-family="Helvetica,sans-Serif" font-size="10.00">main</text>
</a>
</g>
</g>
<!-- Node5&#45;&gt;Node6 -->
<g id="edge5" class="edge">
<title>Node5&#45;&gt;Node6</title>
<path fill="none" stroke="midnightblue" d="M66.79,-89.5C57.31,-89.5 48.43,-89.5 41.08,-89.5"/>
<polygon fill="midnightblue" stroke="midnightblue" points="66.83,-93 76.83,-89.5 66.83,-86 66.83,-93"/>
</g>
<!-- Node8 -->
<g id="node8" class="node">
<title>Node8</title>
<g id="a_node8"><a xlink:href="classgiraffe_1_1gdl_1_1GdlServer.html#aca89933b2ccac49e9e29482cff7b8d4f" target="_top" xlink:title=" ">
<polygon fill="none" stroke="black" points="595,-49.5 595,-79.5 718,-79.5 718,-49.5 595,-49.5"/>
<text text-anchor="start" x="603" y="-67.5" font-family="Helvetica,sans-Serif" font-size="10.00">giraffe::gdl::GdlServer</text>
<text text-anchor="middle" x="656.5" y="-56.5" font-family="Helvetica,sans-Serif" font-size="10.00">::sendMessage</text>
</a>
</g>
</g>
<!-- Node7&#45;&gt;Node8 -->
<g id="edge7" class="edge">
<title>Node7&#45;&gt;Node8</title>
<path fill="none" stroke="midnightblue" d="M743.67,-64.5C735.2,-64.5 726.58,-64.5 718.25,-64.5"/>
<polygon fill="midnightblue" stroke="midnightblue" points="743.9,-68 753.9,-64.5 743.9,-61 743.9,-68"/>
</g>
<!-- Node9 -->
<g id="node9" class="node">
<title>Node9</title>
<g id="a_node9"><a xlink:href="classgiraffe_1_1gdl_1_1GdlServer.html#a53b271c9f0602706839489ac0994b763" target="_top" xlink:title=" ">
<polygon fill="none" stroke="black" points="417,-52.5 417,-82.5 559,-82.5 559,-52.5 417,-52.5"/>
<text text-anchor="start" x="425" y="-70.5" font-family="Helvetica,sans-Serif" font-size="10.00">giraffe::gdl::GdlServer</text>
<text text-anchor="middle" x="488" y="-59.5" font-family="Helvetica,sans-Serif" font-size="10.00">::handleSetNewBroadcast</text>
</a>
</g>
</g>
<!-- Node8&#45;&gt;Node9 -->
<g id="edge8" class="edge">
<title>Node8&#45;&gt;Node9</title>
<path fill="none" stroke="midnightblue" d="M584.7,-65.78C576.24,-65.93 567.6,-66.08 559.14,-66.24"/>
<polygon fill="midnightblue" stroke="midnightblue" points="584.98,-69.27 594.92,-65.59 584.86,-62.27 584.98,-69.27"/>
</g>
<!-- Node11 -->
<g id="node11" class="node">
<title>Node11</title>
<g id="a_node11"><a xlink:href="classgiraffe_1_1gdl_1_1GdlServer.html#a565558716f0334d5a8785457da0155fc" target="_top" xlink:title=" ">
<polygon fill="none" stroke="black" points="418,-3.5 418,-33.5 558,-33.5 558,-3.5 418,-3.5"/>
<text text-anchor="start" x="426" y="-21.5" font-family="Helvetica,sans-Serif" font-size="10.00">giraffe::gdl::GdlServer</text>
<text text-anchor="middle" x="488" y="-10.5" font-family="Helvetica,sans-Serif" font-size="10.00">::handleSetNewExchange</text>
</a>
</g>
</g>
<!-- Node8&#45;&gt;Node11 -->
<g id="edge11" class="edge">
<title>Node8&#45;&gt;Node11</title>
<path fill="none" stroke="midnightblue" d="M591.28,-46.76C575.45,-42.39 558.66,-37.75 543.36,-33.52"/>
<polygon fill="midnightblue" stroke="midnightblue" points="590.41,-50.15 600.98,-49.44 592.27,-43.4 590.41,-50.15"/>
</g>
<!-- Node10 -->
<g id="node10" class="node">
<title>Node10</title>
<g id="a_node10"><a xlink:href="classgiraffe_1_1gdl_1_1GdlServer.html#a7a640a9a945bb13a494c175f857fc719" target="_top" xlink:title=" ">
<polygon fill="none" stroke="black" points="258,-52.5 258,-82.5 381,-82.5 381,-52.5 258,-52.5"/>
<text text-anchor="start" x="266" y="-70.5" font-family="Helvetica,sans-Serif" font-size="10.00">giraffe::gdl::GdlServer</text>
<text text-anchor="middle" x="319.5" y="-59.5" font-family="Helvetica,sans-Serif" font-size="10.00">::routeSet</text>
</a>
</g>
</g>
<!-- Node9&#45;&gt;Node10 -->
<g id="edge9" class="edge">
<title>Node9&#45;&gt;Node10</title>
<path fill="none" stroke="midnightblue" d="M406.76,-67.5C398.11,-67.5 389.41,-67.5 381.05,-67.5"/>
<polygon fill="midnightblue" stroke="midnightblue" points="406.87,-71 416.87,-67.5 406.87,-64 406.87,-71"/>
</g>
<!-- Node10&#45;&gt;Node5 -->
<g id="edge10" class="edge">
<title>Node10&#45;&gt;Node5</title>
<path fill="none" stroke="midnightblue" d="M247.69,-76.77C239.26,-77.88 230.66,-79 222.22,-80.11"/>
<polygon fill="midnightblue" stroke="midnightblue" points="248.39,-80.21 257.85,-75.44 247.48,-73.27 248.39,-80.21"/>
</g>
<!-- Node11&#45;&gt;Node10 -->
<g id="edge12" class="edge">
<title>Node11&#45;&gt;Node10</title>
<path fill="none" stroke="midnightblue" d="M425.95,-36.47C408.11,-41.72 388.8,-47.4 371.64,-52.45"/>
<polygon fill="midnightblue" stroke="midnightblue" points="427.08,-39.78 435.69,-33.6 425.1,-33.07 427.08,-39.78"/>
</g>
</g>
</svg>
