<?xml version="1.0" encoding="UTF-8" standalone="no"?>
<!DOCTYPE svg PUBLIC "-//W3C//DTD SVG 1.1//EN"
 "http://www.w3.org/Graphics/SVG/1.1/DTD/svg11.dtd">
<!-- Generated by graphviz version 2.43.0 (0)
 -->
<!-- Title: giraffe::SpiInterface::transfer Pages: 1 -->
<svg width="740pt" height="459pt"
 viewBox="0.00 0.00 740.00 459.00" xmlns="http://www.w3.org/2000/svg" xmlns:xlink="http://www.w3.org/1999/xlink">
<g id="graph0" class="graph" transform="scale(1 1) rotate(0) translate(4 455)">
<title>giraffe::SpiInterface::transfer</title>
<!-- Node1 -->
<g id="node1" class="node">
<title>Node1</title>
<g id="a_node1"><a xlink:title="SPI transfer function. Returns true if the transfer was successful, false otherwise.">
<polygon fill="#bfbfbf" stroke="black" points="619,-142.5 619,-172.5 732,-172.5 732,-142.5 619,-142.5"/>
<text text-anchor="start" x="627" y="-160.5" font-family="Helvetica,sans-Serif" font-size="10.00">giraffe::SpiInterface</text>
<text text-anchor="middle" x="675.5" y="-149.5" font-family="Helvetica,sans-Serif" font-size="10.00">::transfer</text>
</a>
</g>
</g>
<!-- Node2 -->
<g id="node2" class="node">
<title>Node2</title>
<g id="a_node2"><a xlink:href="classextension_1_1Bmi088.html#a2d2331ad0ef489d33189c3173ef403e7" target="_top" xlink:title=" ">
<polygon fill="none" stroke="black" points="319,-420.5 319,-450.5 433,-450.5 433,-420.5 319,-420.5"/>
<text text-anchor="start" x="327" y="-438.5" font-family="Helvetica,sans-Serif" font-size="10.00">extension::Bmi088::</text>
<text text-anchor="middle" x="376" y="-427.5" font-family="Helvetica,sans-Serif" font-size="10.00">accHandshake</text>
</a>
</g>
</g>
<!-- Node1&#45;&gt;Node2 -->
<g id="edge1" class="edge">
<title>Node1&#45;&gt;Node2</title>
<path fill="none" stroke="midnightblue" d="M664.4,-182.07C650.01,-214.89 621.08,-273.54 583,-313.5 534.54,-364.35 460.29,-401.23 415.41,-420.43"/>
<polygon fill="midnightblue" stroke="midnightblue" points="667.67,-183.33 668.39,-172.76 661.23,-180.57 667.67,-183.33"/>
</g>
<!-- Node5 -->
<g id="node5" class="node">
<title>Node5</title>
<g id="a_node5"><a xlink:href="classextension_1_1Bmi088.html#aa843603e86c0b68c9cf212df6de8abbb" target="_top" xlink:title=" ">
<polygon fill="none" stroke="black" points="469,-273.5 469,-303.5 583,-303.5 583,-273.5 469,-273.5"/>
<text text-anchor="start" x="477" y="-291.5" font-family="Helvetica,sans-Serif" font-size="10.00">extension::Bmi088::</text>
<text text-anchor="middle" x="526" y="-280.5" font-family="Helvetica,sans-Serif" font-size="10.00">accWriteByte</text>
</a>
</g>
</g>
<!-- Node1&#45;&gt;Node5 -->
<g id="edge5" class="edge">
<title>Node1&#45;&gt;Node5</title>
<path fill="none" stroke="midnightblue" d="M650.07,-179.19C620.18,-205.75 570.31,-250.03 544.18,-273.24"/>
<polygon fill="midnightblue" stroke="midnightblue" points="652.43,-181.78 657.58,-172.53 647.78,-176.55 652.43,-181.78"/>
</g>
<!-- Node10 -->
<g id="node10" class="node">
<title>Node10</title>
<g id="a_node10"><a xlink:href="classextension_1_1Bmi088.html#ae0822f94de46f127633943bdb8aaaa45" target="_top" xlink:title=" ">
<polygon fill="none" stroke="black" points="159.5,-240.5 159.5,-270.5 273.5,-270.5 273.5,-240.5 159.5,-240.5"/>
<text text-anchor="start" x="167.5" y="-258.5" font-family="Helvetica,sans-Serif" font-size="10.00">extension::Bmi088::</text>
<text text-anchor="middle" x="216.5" y="-247.5" font-family="Helvetica,sans-Serif" font-size="10.00">configureGyro</text>
</a>
</g>
</g>
<!-- Node1&#45;&gt;Node10 -->
<g id="edge14" class="edge">
<title>Node1&#45;&gt;Node10</title>
<path fill="none" stroke="midnightblue" d="M609.25,-174.87C600.46,-176.92 591.53,-178.87 583,-180.5 466.75,-202.74 433.57,-185.8 319,-215.5 295.16,-221.68 269.36,-231.9 249.74,-240.46"/>
<polygon fill="midnightblue" stroke="midnightblue" points="610.17,-178.25 619.08,-172.51 608.54,-171.44 610.17,-178.25"/>
</g>
<!-- Node11 -->
<g id="node11" class="node">
<title>Node11</title>
<g id="a_node11"><a xlink:href="classextension_1_1Bmi088.html#a5b4a136587ab7b318264c5c97c1d50b2" target="_top" xlink:title=" ">
<polygon fill="none" stroke="black" points="159.5,-175.5 159.5,-205.5 273.5,-205.5 273.5,-175.5 159.5,-175.5"/>
<text text-anchor="start" x="167.5" y="-193.5" font-family="Helvetica,sans-Serif" font-size="10.00">extension::Bmi088::</text>
<text text-anchor="middle" x="216.5" y="-182.5" font-family="Helvetica,sans-Serif" font-size="10.00">gyroHandshake</text>
</a>
</g>
</g>
<!-- Node1&#45;&gt;Node11 -->
<g id="edge16" class="edge">
<title>Node1&#45;&gt;Node11</title>
<path fill="none" stroke="midnightblue" d="M608.56,-161.54C537.16,-166 419.96,-173.62 319,-181.5 304.27,-182.65 288.35,-184.01 273.59,-185.31"/>
<polygon fill="midnightblue" stroke="midnightblue" points="608.99,-165.02 618.75,-160.9 608.55,-158.03 608.99,-165.02"/>
</g>
<!-- Node12 -->
<g id="node12" class="node">
<title>Node12</title>
<g id="a_node12"><a xlink:href="classextension_1_1Bmi088.html#a9da18eaefe2ba7c09241a21f0a0f5c0a" target="_top" xlink:title=" ">
<polygon fill="none" stroke="black" points="469,-98.5 469,-128.5 583,-128.5 583,-98.5 469,-98.5"/>
<text text-anchor="start" x="477" y="-116.5" font-family="Helvetica,sans-Serif" font-size="10.00">extension::Bmi088::</text>
<text text-anchor="middle" x="526" y="-105.5" font-family="Helvetica,sans-Serif" font-size="10.00">gyroWriteByte</text>
</a>
</g>
</g>
<!-- Node1&#45;&gt;Node12 -->
<g id="edge18" class="edge">
<title>Node1&#45;&gt;Node12</title>
<path fill="none" stroke="midnightblue" d="M614.42,-139.58C602.12,-135.91 589.29,-132.08 577.37,-128.53"/>
<polygon fill="midnightblue" stroke="midnightblue" points="613.57,-142.98 624.15,-142.48 615.57,-136.27 613.57,-142.98"/>
</g>
<!-- Node13 -->
<g id="node13" class="node">
<title>Node13</title>
<g id="a_node13"><a xlink:href="classextension_1_1Bmi088.html#a33e6089d835e44f98bac792d815817c6" target="_top" xlink:title=" ">
<polygon fill="none" stroke="black" points="469,-49.5 469,-79.5 583,-79.5 583,-49.5 469,-49.5"/>
<text text-anchor="start" x="477" y="-67.5" font-family="Helvetica,sans-Serif" font-size="10.00">extension::Bmi088::</text>
<text text-anchor="middle" x="526" y="-56.5" font-family="Helvetica,sans-Serif" font-size="10.00">readAccelData</text>
</a>
</g>
</g>
<!-- Node1&#45;&gt;Node13 -->
<g id="edge19" class="edge">
<title>Node1&#45;&gt;Node13</title>
<path fill="none" stroke="midnightblue" d="M649.05,-135.66C631.31,-121.11 606.67,-102.22 583,-88.5 577.51,-85.32 571.52,-82.31 565.56,-79.56"/>
<polygon fill="midnightblue" stroke="midnightblue" points="647.24,-138.7 657.17,-142.4 651.71,-133.32 647.24,-138.7"/>
</g>
<!-- Node15 -->
<g id="node15" class="node">
<title>Node15</title>
<g id="a_node15"><a xlink:href="classextension_1_1Bmi088.html#a1755ea339eb317a6af46e2578a00c1d5" target="_top" xlink:title=" ">
<polygon fill="none" stroke="black" points="469,-0.5 469,-30.5 583,-30.5 583,-0.5 469,-0.5"/>
<text text-anchor="start" x="477" y="-18.5" font-family="Helvetica,sans-Serif" font-size="10.00">extension::Bmi088::</text>
<text text-anchor="middle" x="526" y="-7.5" font-family="Helvetica,sans-Serif" font-size="10.00">readGyroData</text>
</a>
</g>
</g>
<!-- Node1&#45;&gt;Node15 -->
<g id="edge21" class="edge">
<title>Node1&#45;&gt;Node15</title>
<path fill="none" stroke="midnightblue" d="M661.05,-133.6C645.29,-107.45 616.98,-65.76 583,-39.5 578.65,-36.14 573.75,-33.15 568.72,-30.52"/>
<polygon fill="midnightblue" stroke="midnightblue" points="658.19,-135.63 666.27,-142.47 664.22,-132.08 658.19,-135.63"/>
</g>
<!-- Node3 -->
<g id="node3" class="node">
<title>Node3</title>
<g id="a_node3"><a xlink:href="classextension_1_1Bmi088.html#a79100b177f3b73c0c1ba818587716649" target="_top" xlink:title=" ">
<polygon fill="none" stroke="black" points="150,-297.5 150,-327.5 283,-327.5 283,-297.5 150,-297.5"/>
<text text-anchor="start" x="158" y="-315.5" font-family="Helvetica,sans-Serif" font-size="10.00">extension::Bmi088::</text>
<text text-anchor="middle" x="216.5" y="-304.5" font-family="Helvetica,sans-Serif" font-size="10.00">configureAccelerometer</text>
</a>
</g>
</g>
<!-- Node2&#45;&gt;Node3 -->
<g id="edge2" class="edge">
<title>Node2&#45;&gt;Node3</title>
<path fill="none" stroke="midnightblue" d="M325.73,-415.65C323.41,-414.32 321.15,-412.94 319,-411.5 282.57,-387.16 247.73,-348.81 229.88,-327.69"/>
<polygon fill="midnightblue" stroke="midnightblue" points="324.41,-418.91 334.89,-420.47 327.67,-412.71 324.41,-418.91"/>
</g>
<!-- Node4 -->
<g id="node4" class="node">
<title>Node4</title>
<g id="a_node4"><a xlink:href="classextension_1_1Bmi088.html#ae48a834e3578a93acef45729a07495f1" target="_top" xlink:title=" ">
<polygon fill="none" stroke="black" points="0,-264.5 0,-294.5 114,-294.5 114,-264.5 0,-264.5"/>
<text text-anchor="start" x="8" y="-282.5" font-family="Helvetica,sans-Serif" font-size="10.00">extension::Bmi088::</text>
<text text-anchor="middle" x="57" y="-271.5" font-family="Helvetica,sans-Serif" font-size="10.00">imuStartup</text>
</a>
</g>
</g>
<!-- Node2&#45;&gt;Node4 -->
<g id="edge4" class="edge">
<title>Node2&#45;&gt;Node4</title>
<path fill="none" stroke="midnightblue" d="M330.28,-416.37C326.46,-414.73 322.66,-413.09 319,-411.5 243.76,-378.91 222.44,-375.92 150,-337.5 125.15,-324.32 98.06,-306.83 79.76,-294.52"/>
<polygon fill="midnightblue" stroke="midnightblue" points="329.16,-419.7 339.73,-420.43 331.93,-413.27 329.16,-419.7"/>
</g>
<!-- Node3&#45;&gt;Node4 -->
<g id="edge3" class="edge">
<title>Node3&#45;&gt;Node4</title>
<path fill="none" stroke="midnightblue" d="M139.59,-296.6C131.01,-294.8 122.39,-292.99 114.12,-291.26"/>
<polygon fill="midnightblue" stroke="midnightblue" points="139.11,-300.07 149.62,-298.7 140.55,-293.22 139.11,-300.07"/>
</g>
<!-- Node6 -->
<g id="node6" class="node">
<title>Node6</title>
<g id="a_node6"><a xlink:href="classextension_1_1Bmi088.html#a2e9712302803677db22ef9669f0d8936" target="_top" xlink:title=" ">
<polygon fill="none" stroke="black" points="319,-371.5 319,-401.5 433,-401.5 433,-371.5 319,-371.5"/>
<text text-anchor="start" x="327" y="-389.5" font-family="Helvetica,sans-Serif" font-size="10.00">extension::Bmi088::</text>
<text text-anchor="middle" x="376" y="-378.5" font-family="Helvetica,sans-Serif" font-size="10.00">accSetConf</text>
</a>
</g>
</g>
<!-- Node5&#45;&gt;Node6 -->
<g id="edge6" class="edge">
<title>Node5&#45;&gt;Node6</title>
<path fill="none" stroke="midnightblue" d="M501.44,-310.46C483.6,-326.31 457.99,-347.48 433,-362.5 427.65,-365.71 421.79,-368.72 415.94,-371.45"/>
<polygon fill="midnightblue" stroke="midnightblue" points="503.98,-312.89 509.06,-303.59 499.29,-307.69 503.98,-312.89"/>
</g>
<!-- Node7 -->
<g id="node7" class="node">
<title>Node7</title>
<g id="a_node7"><a xlink:href="classextension_1_1Bmi088.html#a2cd3afb968d1a397a628c706f2167962" target="_top" xlink:title=" ">
<polygon fill="none" stroke="black" points="319,-322.5 319,-352.5 433,-352.5 433,-322.5 319,-322.5"/>
<text text-anchor="start" x="327" y="-340.5" font-family="Helvetica,sans-Serif" font-size="10.00">extension::Bmi088::</text>
<text text-anchor="middle" x="376" y="-329.5" font-family="Helvetica,sans-Serif" font-size="10.00">accSetPower</text>
</a>
</g>
</g>
<!-- Node5&#45;&gt;Node7 -->
<g id="edge8" class="edge">
<title>Node5&#45;&gt;Node7</title>
<path fill="none" stroke="midnightblue" d="M469.85,-306.76C454.24,-311.93 437.43,-317.49 422.46,-322.45"/>
<polygon fill="midnightblue" stroke="midnightblue" points="470.99,-310.07 479.39,-303.6 468.79,-303.42 470.99,-310.07"/>
</g>
<!-- Node8 -->
<g id="node8" class="node">
<title>Node8</title>
<g id="a_node8"><a xlink:href="classextension_1_1Bmi088.html#af6b50746d49b420137560514f0164a26" target="_top" xlink:title=" ">
<polygon fill="none" stroke="black" points="319,-273.5 319,-303.5 433,-303.5 433,-273.5 319,-273.5"/>
<text text-anchor="start" x="327" y="-291.5" font-family="Helvetica,sans-Serif" font-size="10.00">extension::Bmi088::</text>
<text text-anchor="middle" x="376" y="-280.5" font-family="Helvetica,sans-Serif" font-size="10.00">accSetRange</text>
</a>
</g>
</g>
<!-- Node5&#45;&gt;Node8 -->
<g id="edge10" class="edge">
<title>Node5&#45;&gt;Node8</title>
<path fill="none" stroke="midnightblue" d="M458.44,-288.5C450.02,-288.5 441.46,-288.5 433.22,-288.5"/>
<polygon fill="midnightblue" stroke="midnightblue" points="458.63,-292 468.63,-288.5 458.63,-285 458.63,-292"/>
</g>
<!-- Node9 -->
<g id="node9" class="node">
<title>Node9</title>
<g id="a_node9"><a xlink:href="classextension_1_1Bmi088.html#a4a243e58f87fda37f45f60e002aca8c4" target="_top" xlink:title=" ">
<polygon fill="none" stroke="black" points="319,-224.5 319,-254.5 433,-254.5 433,-224.5 319,-224.5"/>
<text text-anchor="start" x="327" y="-242.5" font-family="Helvetica,sans-Serif" font-size="10.00">extension::Bmi088::</text>
<text text-anchor="middle" x="376" y="-231.5" font-family="Helvetica,sans-Serif" font-size="10.00">accSoftReset</text>
</a>
</g>
</g>
<!-- Node5&#45;&gt;Node9 -->
<g id="edge12" class="edge">
<title>Node5&#45;&gt;Node9</title>
<path fill="none" stroke="midnightblue" d="M469.85,-270.24C454.24,-265.07 437.43,-259.51 422.46,-254.55"/>
<polygon fill="midnightblue" stroke="midnightblue" points="468.79,-273.58 479.39,-273.4 470.99,-266.93 468.79,-273.58"/>
</g>
<!-- Node6&#45;&gt;Node3 -->
<g id="edge7" class="edge">
<title>Node6&#45;&gt;Node3</title>
<path fill="none" stroke="midnightblue" d="M329.55,-367.26C325.97,-365.67 322.42,-364.07 319,-362.5 294.55,-351.25 267.2,-337.72 247.06,-327.57"/>
<polygon fill="midnightblue" stroke="midnightblue" points="328.46,-370.61 339.03,-371.42 331.27,-364.2 328.46,-370.61"/>
</g>
<!-- Node7&#45;&gt;Node3 -->
<g id="edge9" class="edge">
<title>Node7&#45;&gt;Node3</title>
<path fill="none" stroke="midnightblue" d="M308.49,-326.94C300.11,-325.61 291.54,-324.25 283.18,-322.93"/>
<polygon fill="midnightblue" stroke="midnightblue" points="308.16,-330.43 318.58,-328.55 309.26,-323.52 308.16,-330.43"/>
</g>
<!-- Node8&#45;&gt;Node3 -->
<g id="edge11" class="edge">
<title>Node8&#45;&gt;Node3</title>
<path fill="none" stroke="midnightblue" d="M308.49,-298.64C300.11,-299.91 291.54,-301.22 283.18,-302.49"/>
<polygon fill="midnightblue" stroke="midnightblue" points="309.23,-302.06 318.58,-297.1 308.17,-295.14 309.23,-302.06"/>
</g>
<!-- Node9&#45;&gt;Node3 -->
<g id="edge13" class="edge">
<title>Node9&#45;&gt;Node3</title>
<path fill="none" stroke="midnightblue" d="M331.61,-258.76C327.34,-260.69 323.08,-262.62 319,-264.5 295.44,-275.33 268.97,-287.86 248.96,-297.4"/>
<polygon fill="midnightblue" stroke="midnightblue" points="333.21,-261.88 340.89,-254.59 330.33,-255.49 333.21,-261.88"/>
</g>
<!-- Node10&#45;&gt;Node4 -->
<g id="edge15" class="edge">
<title>Node10&#45;&gt;Node4</title>
<path fill="none" stroke="midnightblue" d="M148.98,-265.64C137.34,-267.41 125.34,-269.24 114.02,-270.96"/>
<polygon fill="midnightblue" stroke="midnightblue" points="149.73,-269.06 159.08,-264.1 148.67,-262.14 149.73,-269.06"/>
</g>
<!-- Node11&#45;&gt;Node4 -->
<g id="edge17" class="edge">
<title>Node11&#45;&gt;Node4</title>
<path fill="none" stroke="midnightblue" d="M179.81,-210.67C150.88,-227.01 110.75,-249.69 84.59,-264.48"/>
<polygon fill="midnightblue" stroke="midnightblue" points="181.8,-213.56 188.78,-205.6 178.35,-207.47 181.8,-213.56"/>
</g>
<!-- Node14 -->
<g id="node14" class="node">
<title>Node14</title>
<g id="a_node14"><a xlink:href="classextension_1_1Bmi088.html#ac2a25bc2a2549e2b84e637840718d3e9" target="_top" xlink:title=" ">
<polygon fill="none" stroke="black" points="319,-25.5 319,-55.5 433,-55.5 433,-25.5 319,-25.5"/>
<text text-anchor="start" x="327" y="-43.5" font-family="Helvetica,sans-Serif" font-size="10.00">extension::Bmi088::</text>
<text text-anchor="middle" x="376" y="-32.5" font-family="Helvetica,sans-Serif" font-size="10.00">readImu</text>
</a>
</g>
</g>
<!-- Node13&#45;&gt;Node14 -->
<g id="edge20" class="edge">
<title>Node13&#45;&gt;Node14</title>
<path fill="none" stroke="midnightblue" d="M458.72,-53.75C450.2,-52.37 441.55,-50.97 433.22,-49.62"/>
<polygon fill="midnightblue" stroke="midnightblue" points="458.19,-57.21 468.63,-55.36 459.31,-50.3 458.19,-57.21"/>
</g>
<!-- Node15&#45;&gt;Node14 -->
<g id="edge22" class="edge">
<title>Node15&#45;&gt;Node14</title>
<path fill="none" stroke="midnightblue" d="M458.72,-26.7C450.2,-28.13 441.55,-29.6 433.22,-31"/>
<polygon fill="midnightblue" stroke="midnightblue" points="459.35,-30.14 468.63,-25.02 458.18,-23.24 459.35,-30.14"/>
</g>
</g>
</svg>
