<?xml version="1.0" encoding="UTF-8" standalone="no"?>
<!DOCTYPE svg PUBLIC "-//W3C//DTD SVG 1.1//EN"
 "http://www.w3.org/Graphics/SVG/1.1/DTD/svg11.dtd">
<!-- Generated by graphviz version 2.43.0 (0)
 -->
<!-- Title: modules::Module::stop Pages: 1 -->
<svg width="733pt" height="66pt"
 viewBox="0.00 0.00 733.00 66.00" xmlns="http://www.w3.org/2000/svg" xmlns:xlink="http://www.w3.org/1999/xlink">
<g id="graph0" class="graph" transform="scale(1 1) rotate(0) translate(4 62)">
<title>modules::Module::stop</title>
<!-- Node1 -->
<g id="node1" class="node">
<title>Node1</title>
<g id="a_node1"><a xlink:title="Stops the module by setting the stop flag to true and joining the runner thread.">
<polygon fill="#bfbfbf" stroke="black" points="597,-19.5 597,-38.5 725,-38.5 725,-19.5 597,-19.5"/>
<text text-anchor="middle" x="661" y="-26.5" font-family="Helvetica,sans-Serif" font-size="10.00">modules::Module::stop</text>
</a>
</g>
</g>
<!-- Node2 -->
<g id="node2" class="node">
<title>Node2</title>
<g id="a_node2"><a xlink:href="classFlightRunner.html#a6904cac87e21bb4d2957eab383a4f597" target="_top" xlink:title=" ">
<polygon fill="none" stroke="black" points="406,-38.5 406,-57.5 561,-57.5 561,-38.5 406,-38.5"/>
<text text-anchor="middle" x="483.5" y="-45.5" font-family="Helvetica,sans-Serif" font-size="10.00">FlightRunner::~FlightRunner</text>
</a>
</g>
</g>
<!-- Node1&#45;&gt;Node2 -->
<g id="edge1" class="edge">
<title>Node1&#45;&gt;Node2</title>
<path fill="none" stroke="midnightblue" d="M586.55,-36.95C578.18,-37.86 569.64,-38.78 561.24,-39.69"/>
<polygon fill="midnightblue" stroke="midnightblue" points="587.08,-40.42 596.64,-35.86 586.32,-33.46 587.08,-40.42"/>
</g>
<!-- Node3 -->
<g id="node3" class="node">
<title>Node3</title>
<g id="a_node3"><a xlink:href="classFlightRunner.html#aa479b87f758cf8bac5fa323cc282c77c" target="_top" xlink:title=" ">
<polygon fill="none" stroke="black" points="407.5,-0.5 407.5,-19.5 559.5,-19.5 559.5,-0.5 407.5,-0.5"/>
<text text-anchor="middle" x="483.5" y="-7.5" font-family="Helvetica,sans-Serif" font-size="10.00">FlightRunner::toggleModule</text>
</a>
</g>
</g>
<!-- Node1&#45;&gt;Node3 -->
<g id="edge2" class="edge">
<title>Node1&#45;&gt;Node3</title>
<path fill="none" stroke="midnightblue" d="M586.69,-21.06C577.78,-20.1 568.66,-19.11 559.72,-18.14"/>
<polygon fill="midnightblue" stroke="midnightblue" points="586.32,-24.54 596.64,-22.14 587.08,-17.58 586.32,-24.54"/>
</g>
<!-- Node4 -->
<g id="node4" class="node">
<title>Node4</title>
<g id="a_node4"><a xlink:href="classFlightRunner.html#ad17d6bcd13dcb824062d97b36ec7fa96" target="_top" xlink:title="Process commands that are sent to the flight runner.">
<polygon fill="none" stroke="black" points="197,-0.5 197,-19.5 370,-19.5 370,-0.5 197,-0.5"/>
<text text-anchor="middle" x="283.5" y="-7.5" font-family="Helvetica,sans-Serif" font-size="10.00">FlightRunner::processCommand</text>
</a>
</g>
</g>
<!-- Node3&#45;&gt;Node4 -->
<g id="edge3" class="edge">
<title>Node3&#45;&gt;Node4</title>
<path fill="none" stroke="midnightblue" d="M397.3,-10C388.32,-10 379.18,-10 370.2,-10"/>
<polygon fill="midnightblue" stroke="midnightblue" points="397.36,-13.5 407.36,-10 397.36,-6.5 397.36,-13.5"/>
</g>
<!-- Node5 -->
<g id="node5" class="node">
<title>Node5</title>
<g id="a_node5"><a xlink:href="classFlightRunner.html#a6407ba5e7fca2d91a216ab35e58fd7b3" target="_top" xlink:title="Sends a command to the proper module.">
<polygon fill="none" stroke="black" points="0,-0.5 0,-19.5 161,-19.5 161,-0.5 0,-0.5"/>
<text text-anchor="middle" x="80.5" y="-7.5" font-family="Helvetica,sans-Serif" font-size="10.00">FlightRunner::routeCommand</text>
</a>
</g>
</g>
<!-- Node4&#45;&gt;Node5 -->
<g id="edge4" class="edge">
<title>Node4&#45;&gt;Node5</title>
<path fill="none" stroke="midnightblue" d="M186.91,-10C178.31,-10 169.66,-10 161.21,-10"/>
<polygon fill="midnightblue" stroke="midnightblue" points="186.97,-13.5 196.97,-10 186.97,-6.5 186.97,-13.5"/>
</g>
</g>
</svg>
