<?xml version="1.0" encoding="UTF-8" standalone="no"?>
<!DOCTYPE svg PUBLIC "-//W3C//DTD SVG 1.1//EN"
 "http://www.w3.org/Graphics/SVG/1.1/DTD/svg11.dtd">
<!-- Generated by graphviz version 2.43.0 (0)
 -->
<!-- Title: giraffe::Gpio::isOwner Pages: 1 -->
<svg width="273pt" height="66pt"
 viewBox="0.00 0.00 273.00 66.00" xmlns="http://www.w3.org/2000/svg" xmlns:xlink="http://www.w3.org/1999/xlink">
<g id="graph0" class="graph" transform="scale(1 1) rotate(0) translate(4 62)">
<title>giraffe::Gpio::isOwner</title>
<!-- Node1 -->
<g id="node1" class="node">
<title>Node1</title>
<g id="a_node1"><a xlink:title="A function to check if the current instance owns a reserved pin.">
<polygon fill="#bfbfbf" stroke="black" points="143,-19.5 143,-38.5 265,-38.5 265,-19.5 143,-19.5"/>
<text text-anchor="middle" x="204" y="-26.5" font-family="Helvetica,sans-Serif" font-size="10.00">giraffe::Gpio::isOwner</text>
</a>
</g>
</g>
<!-- Node2 -->
<g id="node2" class="node">
<title>Node2</title>
<g id="a_node2"><a xlink:href="classgiraffe_1_1Gpio.html#ad9bd7030420bdbf1979b3664dff68ff7" target="_top" xlink:title="Read the value of an input pin.">
<polygon fill="none" stroke="black" points="1.5,-38.5 1.5,-57.5 105.5,-57.5 105.5,-38.5 1.5,-38.5"/>
<text text-anchor="middle" x="53.5" y="-45.5" font-family="Helvetica,sans-Serif" font-size="10.00">giraffe::Gpio::read</text>
</a>
</g>
</g>
<!-- Node1&#45;&gt;Node2 -->
<g id="edge1" class="edge">
<title>Node1&#45;&gt;Node2</title>
<path fill="none" stroke="midnightblue" d="M132.5,-38.02C123.5,-39.17 114.43,-40.33 105.81,-41.43"/>
<polygon fill="midnightblue" stroke="midnightblue" points="133.12,-41.47 142.6,-36.73 132.24,-34.53 133.12,-41.47"/>
</g>
<!-- Node3 -->
<g id="node3" class="node">
<title>Node3</title>
<g id="a_node3"><a xlink:href="classgiraffe_1_1Gpio.html#a9e87bc845dcd7e6f819591291baa73ef" target="_top" xlink:title="Write a value to an output pin pin (HIGH or LOW)">
<polygon fill="none" stroke="black" points="0,-0.5 0,-19.5 107,-19.5 107,-0.5 0,-0.5"/>
<text text-anchor="middle" x="53.5" y="-7.5" font-family="Helvetica,sans-Serif" font-size="10.00">giraffe::Gpio::write</text>
</a>
</g>
</g>
<!-- Node1&#45;&gt;Node3 -->
<g id="edge2" class="edge">
<title>Node1&#45;&gt;Node3</title>
<path fill="none" stroke="midnightblue" d="M132.62,-20C124.07,-18.9 115.45,-17.8 107.22,-16.75"/>
<polygon fill="midnightblue" stroke="midnightblue" points="132.24,-23.47 142.6,-21.27 133.12,-16.53 132.24,-23.47"/>
</g>
</g>
</svg>
