<?xml version="1.0" encoding="UTF-8" standalone="no"?>
<!DOCTYPE svg PUBLIC "-//W3C//DTD SVG 1.1//EN"
 "http://www.w3.org/Graphics/SVG/1.1/DTD/svg11.dtd">
<!-- Generated by graphviz version 2.43.0 (0)
 -->
<!-- Title: extension::Bmi088::gyroHandshake Pages: 1 -->
<svg width="277pt" height="88pt"
 viewBox="0.00 0.00 277.00 88.00" xmlns="http://www.w3.org/2000/svg" xmlns:xlink="http://www.w3.org/1999/xlink">
<g id="graph0" class="graph" transform="scale(1 1) rotate(0) translate(4 84)">
<title>extension::Bmi088::gyroHandshake</title>
<!-- Node1 -->
<g id="node1" class="node">
<title>Node1</title>
<g id="a_node1"><a xlink:title=" ">
<polygon fill="#bfbfbf" stroke="black" points="0,-24.5 0,-54.5 114,-54.5 114,-24.5 0,-24.5"/>
<text text-anchor="start" x="8" y="-42.5" font-family="Helvetica,sans-Serif" font-size="10.00">extension::Bmi088::</text>
<text text-anchor="middle" x="57" y="-31.5" font-family="Helvetica,sans-Serif" font-size="10.00">gyroHandshake</text>
</a>
</g>
</g>
<!-- Node2 -->
<g id="node2" class="node">
<title>Node2</title>
<g id="a_node2"><a xlink:href="classextension_1_1Extension.html#a00ef6cd65250307287af24071c862a42" target="_top" xlink:title="Sleep internally for a given number of milliseconds.">
<polygon fill="none" stroke="black" points="150,-49.5 150,-79.5 269,-79.5 269,-49.5 150,-49.5"/>
<text text-anchor="start" x="158" y="-67.5" font-family="Helvetica,sans-Serif" font-size="10.00">extension::Extension</text>
<text text-anchor="middle" x="209.5" y="-56.5" font-family="Helvetica,sans-Serif" font-size="10.00">::extSleep</text>
</a>
</g>
</g>
<!-- Node1&#45;&gt;Node2 -->
<g id="edge1" class="edge">
<title>Node1&#45;&gt;Node2</title>
<path fill="none" stroke="midnightblue" d="M114.04,-48.81C122.45,-50.21 131.2,-51.66 139.84,-53.09"/>
<polygon fill="midnightblue" stroke="midnightblue" points="139.46,-56.58 149.9,-54.77 140.6,-49.67 139.46,-56.58"/>
</g>
<!-- Node3 -->
<g id="node3" class="node">
<title>Node3</title>
<g id="a_node3"><a xlink:href="classgiraffe_1_1SpiInterface.html#a146b865b9d5d9a41c82283565b91ff80" target="_top" xlink:title="SPI transfer function. Returns true if the transfer was successful, false otherwise.">
<polygon fill="none" stroke="black" points="153,-0.5 153,-30.5 266,-30.5 266,-0.5 153,-0.5"/>
<text text-anchor="start" x="161" y="-18.5" font-family="Helvetica,sans-Serif" font-size="10.00">giraffe::SpiInterface</text>
<text text-anchor="middle" x="209.5" y="-7.5" font-family="Helvetica,sans-Serif" font-size="10.00">::transfer</text>
</a>
</g>
</g>
<!-- Node1&#45;&gt;Node3 -->
<g id="edge2" class="edge">
<title>Node1&#45;&gt;Node3</title>
<path fill="none" stroke="midnightblue" d="M114.04,-30.56C123.47,-29.06 133.33,-27.49 142.97,-25.95"/>
<polygon fill="midnightblue" stroke="midnightblue" points="143.59,-29.4 152.91,-24.36 142.49,-22.48 143.59,-29.4"/>
</g>
</g>
</svg>
