<?xml version="1.0" encoding="UTF-8" standalone="no"?>
<!DOCTYPE svg PUBLIC "-//W3C//DTD SVG 1.1//EN"
 "http://www.w3.org/Graphics/SVG/1.1/DTD/svg11.dtd">
<!-- Generated by graphviz version 2.43.0 (0)
 -->
<!-- Title: giraffe::CommonLogger::error Pages: 1 -->
<svg width="891pt" height="159pt"
 viewBox="0.00 0.00 891.00 159.09" xmlns="http://www.w3.org/2000/svg" xmlns:xlink="http://www.w3.org/1999/xlink">
<g id="graph0" class="graph" transform="scale(1 1) rotate(0) translate(4 155.09)">
<title>giraffe::CommonLogger::error</title>
<!-- Node1 -->
<g id="node1" class="node">
<title>Node1</title>
<g id="a_node1"><a xlink:title=" ">
<polygon fill="#bfbfbf" stroke="black" points="752,-68.5 752,-98.5 883,-98.5 883,-68.5 752,-68.5"/>
<text text-anchor="start" x="760" y="-86.5" font-family="Helvetica,sans-Serif" font-size="10.00">giraffe::CommonLogger</text>
<text text-anchor="middle" x="817.5" y="-75.5" font-family="Helvetica,sans-Serif" font-size="10.00">::error</text>
</a>
</g>
</g>
<!-- Node2 -->
<g id="node2" class="node">
<title>Node2</title>
<g id="a_node2"><a xlink:href="classgiraffe_1_1gdl_1_1GdlServer.html#a565558716f0334d5a8785457da0155fc" target="_top" xlink:title=" ">
<polygon fill="none" stroke="black" points="576,-93.5 576,-123.5 716,-123.5 716,-93.5 576,-93.5"/>
<text text-anchor="start" x="584" y="-111.5" font-family="Helvetica,sans-Serif" font-size="10.00">giraffe::gdl::GdlServer</text>
<text text-anchor="middle" x="646" y="-100.5" font-family="Helvetica,sans-Serif" font-size="10.00">::handleSetNewExchange</text>
</a>
</g>
</g>
<!-- Node1&#45;&gt;Node2 -->
<g id="edge1" class="edge">
<title>Node1&#45;&gt;Node2</title>
<path fill="none" stroke="midnightblue" d="M741.96,-94.49C733.39,-95.76 724.68,-97.04 716.18,-98.3"/>
<polygon fill="midnightblue" stroke="midnightblue" points="742.55,-97.94 751.94,-93.02 741.53,-91.02 742.55,-97.94"/>
</g>
<!-- Node4 -->
<g id="node4" class="node">
<title>Node4</title>
<g id="a_node4"><a xlink:href="classgiraffe_1_1gdl_1_1GdlServer.html#a7982a27f1e9ee790d196a5cd8cba6217" target="_top" xlink:title=" ">
<polygon fill="none" stroke="black" points="77,-77 77,-96 222,-96 222,-77 77,-77"/>
<text text-anchor="middle" x="149.5" y="-84" font-family="Helvetica,sans-Serif" font-size="10.00">giraffe::gdl::GdlServer::run</text>
</a>
</g>
</g>
<!-- Node1&#45;&gt;Node4 -->
<g id="edge7" class="edge">
<title>Node1&#45;&gt;Node4</title>
<path fill="none" stroke="midnightblue" d="M785.13,-103.83C765.99,-115 740.57,-127.73 716,-133.5 517.24,-180.21 269.67,-120.49 182.59,-96.05"/>
<polygon fill="midnightblue" stroke="midnightblue" points="786.94,-106.83 793.71,-98.68 783.34,-100.82 786.94,-106.83"/>
</g>
<!-- Node6 -->
<g id="node6" class="node">
<title>Node6</title>
<g id="a_node6"><a xlink:href="classgiraffe_1_1gdl_1_1GdlServer.html#a38bb766c005f9060bf13aeb5c553dd05" target="_top" xlink:title=" ">
<polygon fill="none" stroke="black" points="417,-0.5 417,-30.5 540,-30.5 540,-0.5 417,-0.5"/>
<text text-anchor="start" x="425" y="-18.5" font-family="Helvetica,sans-Serif" font-size="10.00">giraffe::gdl::GdlServer</text>
<text text-anchor="middle" x="478.5" y="-7.5" font-family="Helvetica,sans-Serif" font-size="10.00">::loadConfig</text>
</a>
</g>
</g>
<!-- Node1&#45;&gt;Node6 -->
<g id="edge5" class="edge">
<title>Node1&#45;&gt;Node6</title>
<path fill="none" stroke="midnightblue" d="M783.08,-63.28C764.1,-52.82 739.49,-40.92 716,-34.5 657.79,-18.58 588.75,-14.66 540.34,-14.22"/>
<polygon fill="midnightblue" stroke="midnightblue" points="781.49,-66.41 791.92,-68.27 784.93,-60.31 781.49,-66.41"/>
</g>
<!-- Node7 -->
<g id="node7" class="node">
<title>Node7</title>
<g id="a_node7"><a xlink:href="classgiraffe_1_1gdl_1_1GdlServer.html#a27ff3bf1c99f70b8475390d9d05e7f5c" target="_top" xlink:title="Attempts to save the current configuration to the config file.">
<polygon fill="none" stroke="black" points="584.5,-44.5 584.5,-74.5 707.5,-74.5 707.5,-44.5 584.5,-44.5"/>
<text text-anchor="start" x="592.5" y="-62.5" font-family="Helvetica,sans-Serif" font-size="10.00">giraffe::gdl::GdlServer</text>
<text text-anchor="middle" x="646" y="-51.5" font-family="Helvetica,sans-Serif" font-size="10.00">::saveConfig</text>
</a>
</g>
</g>
<!-- Node1&#45;&gt;Node7 -->
<g id="edge8" class="edge">
<title>Node1&#45;&gt;Node7</title>
<path fill="none" stroke="midnightblue" d="M741.97,-72.95C730.54,-71.33 718.85,-69.67 707.76,-68.1"/>
<polygon fill="midnightblue" stroke="midnightblue" points="741.54,-76.42 751.94,-74.36 742.53,-69.49 741.54,-76.42"/>
</g>
<!-- Node3 -->
<g id="node3" class="node">
<title>Node3</title>
<g id="a_node3"><a xlink:href="classgiraffe_1_1gdl_1_1GdlServer.html#a7a640a9a945bb13a494c175f857fc719" target="_top" xlink:title=" ">
<polygon fill="none" stroke="black" points="258,-71.5 258,-101.5 381,-101.5 381,-71.5 258,-71.5"/>
<text text-anchor="start" x="266" y="-89.5" font-family="Helvetica,sans-Serif" font-size="10.00">giraffe::gdl::GdlServer</text>
<text text-anchor="middle" x="319.5" y="-78.5" font-family="Helvetica,sans-Serif" font-size="10.00">::routeSet</text>
</a>
</g>
</g>
<!-- Node2&#45;&gt;Node3 -->
<g id="edge2" class="edge">
<title>Node2&#45;&gt;Node3</title>
<path fill="none" stroke="midnightblue" d="M565.74,-103.13C508.83,-99.27 433.28,-94.15 381.14,-90.61"/>
<polygon fill="midnightblue" stroke="midnightblue" points="565.57,-106.62 575.78,-103.81 566.04,-99.64 565.57,-106.62"/>
</g>
<!-- Node3&#45;&gt;Node4 -->
<g id="edge3" class="edge">
<title>Node3&#45;&gt;Node4</title>
<path fill="none" stroke="midnightblue" d="M247.69,-86.5C239.26,-86.5 230.66,-86.5 222.22,-86.5"/>
<polygon fill="midnightblue" stroke="midnightblue" points="247.85,-90 257.85,-86.5 247.85,-83 247.85,-90"/>
</g>
<!-- Node5 -->
<g id="node5" class="node">
<title>Node5</title>
<g id="a_node5"><a xlink:href="data__link_2server_2main_8cpp.html#ae66f6b31b5ad750f1fe042a706a4e3d4" target="_top" xlink:title=" ">
<polygon fill="none" stroke="black" points="0,-77 0,-96 41,-96 41,-77 0,-77"/>
<text text-anchor="middle" x="20.5" y="-84" font-family="Helvetica,sans-Serif" font-size="10.00">main</text>
</a>
</g>
</g>
<!-- Node4&#45;&gt;Node5 -->
<g id="edge4" class="edge">
<title>Node4&#45;&gt;Node5</title>
<path fill="none" stroke="midnightblue" d="M66.79,-86.5C57.31,-86.5 48.43,-86.5 41.08,-86.5"/>
<polygon fill="midnightblue" stroke="midnightblue" points="66.83,-90 76.83,-86.5 66.83,-83 66.83,-90"/>
</g>
<!-- Node6&#45;&gt;Node4 -->
<g id="edge6" class="edge">
<title>Node6&#45;&gt;Node4</title>
<path fill="none" stroke="midnightblue" d="M407.09,-30.41C364.02,-39.58 307.8,-51.61 258,-62.5 236.52,-67.2 212.64,-72.52 192.86,-76.95"/>
<polygon fill="midnightblue" stroke="midnightblue" points="407.86,-33.83 416.91,-28.33 406.4,-26.98 407.86,-33.83"/>
</g>
<!-- Node7&#45;&gt;Node6 -->
<g id="edge11" class="edge">
<title>Node7&#45;&gt;Node6</title>
<path fill="none" stroke="midnightblue" d="M578.82,-41.91C564.65,-38.14 549.79,-34.19 536.02,-30.53"/>
<polygon fill="midnightblue" stroke="midnightblue" points="577.94,-45.29 588.51,-44.48 579.74,-38.53 577.94,-45.29"/>
</g>
<!-- Node8 -->
<g id="node8" class="node">
<title>Node8</title>
<g id="a_node8"><a xlink:href="classgiraffe_1_1gdl_1_1GdlServer.html#a4d192ae2860673d135f68e680765a2ef" target="_top" xlink:title=" ">
<polygon fill="none" stroke="black" points="417,-49.5 417,-79.5 540,-79.5 540,-49.5 417,-49.5"/>
<text text-anchor="start" x="425" y="-67.5" font-family="Helvetica,sans-Serif" font-size="10.00">giraffe::gdl::GdlServer</text>
<text text-anchor="middle" x="478.5" y="-56.5" font-family="Helvetica,sans-Serif" font-size="10.00">::handleSetConfig</text>
</a>
</g>
</g>
<!-- Node7&#45;&gt;Node8 -->
<g id="edge9" class="edge">
<title>Node7&#45;&gt;Node8</title>
<path fill="none" stroke="midnightblue" d="M574.06,-61.64C562.78,-61.98 551.2,-62.33 540.18,-62.67"/>
<polygon fill="midnightblue" stroke="midnightblue" points="574.42,-65.13 584.31,-61.33 574.21,-58.14 574.42,-65.13"/>
</g>
<!-- Node8&#45;&gt;Node3 -->
<g id="edge10" class="edge">
<title>Node8&#45;&gt;Node3</title>
<path fill="none" stroke="midnightblue" d="M406.79,-74.41C398.19,-75.61 389.47,-76.84 381.04,-78.02"/>
<polygon fill="midnightblue" stroke="midnightblue" points="407.38,-77.86 416.8,-73.01 406.41,-70.93 407.38,-77.86"/>
</g>
</g>
</svg>
