<?xml version="1.0" encoding="UTF-8" standalone="no"?>
<!DOCTYPE svg PUBLIC "-//W3C//DTD SVG 1.1//EN"
 "http://www.w3.org/Graphics/SVG/1.1/DTD/svg11.dtd">
<!-- Generated by graphviz version 2.43.0 (0)
 -->
<!-- Title: giraffe::gdl::Message::getLocation Pages: 1 -->
<svg width="1835pt" height="293pt"
 viewBox="0.00 0.00 1835.00 293.00" xmlns="http://www.w3.org/2000/svg" xmlns:xlink="http://www.w3.org/1999/xlink">
<g id="graph0" class="graph" transform="scale(1 1) rotate(0) translate(4 289)">
<title>giraffe::gdl::Message::getLocation</title>
<!-- Node1 -->
<g id="Node000001" class="node">
<title>Node1</title>
<g id="a_Node000001"><a xlink:title=" ">
<polygon fill="#999999" stroke="#666666" points="1827,-190 1708,-190 1708,-160 1827,-160 1827,-190"/>
<text text-anchor="start" x="1716" y="-178" font-family="Helvetica,sans-Serif" font-size="10.00">giraffe::gdl::Message</text>
<text text-anchor="middle" x="1767.5" y="-167" font-family="Helvetica,sans-Serif" font-size="10.00">::getLocation</text>
</a>
</g>
</g>
<!-- Node2 -->
<g id="Node000002" class="node">
<title>Node2</title>
<g id="a_Node000002"><a xlink:href="classgiraffe_1_1gdl_1_1Message.html#a2caa405581e45381c50ed8d19b35bce7" target="_top" xlink:title=" ">
<polygon fill="white" stroke="#666666" points="1660,-237 1541,-237 1541,-207 1660,-207 1660,-237"/>
<text text-anchor="start" x="1549" y="-225" font-family="Helvetica,sans-Serif" font-size="10.00">giraffe::gdl::Message</text>
<text text-anchor="middle" x="1600.5" y="-214" font-family="Helvetica,sans-Serif" font-size="10.00">::getJson</text>
</a>
</g>
</g>
<!-- Node1&#45;&gt;Node2 -->
<g id="edge1_Node000001_Node000002" class="edge">
<title>Node1&#45;&gt;Node2</title>
<g id="a_edge1_Node000001_Node000002"><a xlink:title=" ">
<path fill="none" stroke="#63b8ff" d="M1703.82,-192.85C1687.47,-197.51 1670.01,-202.49 1654.23,-206.98"/>
<polygon fill="#63b8ff" stroke="#63b8ff" points="1705.18,-196.11 1713.84,-190 1703.26,-189.37 1705.18,-196.11"/>
</a>
</g>
</g>
<!-- Node8 -->
<g id="Node000008" class="node">
<title>Node8</title>
<g id="a_Node000008"><a xlink:href="test__gdl__message_8cpp.html#a80f16a4debb19d366834ab273298cbe8" target="_top" xlink:title=" ">
<polygon fill="white" stroke="#666666" points="1621,-184.5 1580,-184.5 1580,-165.5 1621,-165.5 1621,-184.5"/>
<text text-anchor="middle" x="1600.5" y="-172.5" font-family="Helvetica,sans-Serif" font-size="10.00">TEST</text>
</a>
</g>
</g>
<!-- Node1&#45;&gt;Node8 -->
<g id="edge8_Node000001_Node000008" class="edge">
<title>Node1&#45;&gt;Node8</title>
<g id="a_edge8_Node000001_Node000008"><a xlink:title=" ">
<path fill="none" stroke="#63b8ff" d="M1697.75,-175C1669.97,-175 1640.04,-175 1621.07,-175"/>
<polygon fill="#63b8ff" stroke="#63b8ff" points="1697.86,-178.5 1707.86,-175 1697.86,-171.5 1697.86,-178.5"/>
</a>
</g>
</g>
<!-- Node9 -->
<g id="Node000009" class="node">
<title>Node9</title>
<g id="a_Node000009"><a xlink:href="classgiraffe_1_1gdl_1_1NetworkLayer.html#a36141d40a8b69472cc96aeada41be8aa" target="_top" xlink:title=" ">
<polygon fill="white" stroke="#666666" points="1672,-139 1529,-139 1529,-109 1672,-109 1672,-139"/>
<text text-anchor="start" x="1537" y="-127" font-family="Helvetica,sans-Serif" font-size="10.00">giraffe::gdl::NetworkLayer</text>
<text text-anchor="middle" x="1600.5" y="-116" font-family="Helvetica,sans-Serif" font-size="10.00">::txAprsPositionPacket</text>
</a>
</g>
</g>
<!-- Node1&#45;&gt;Node9 -->
<g id="edge9_Node000001_Node000009" class="edge">
<title>Node1&#45;&gt;Node9</title>
<g id="a_edge9_Node000001_Node000009"><a xlink:title=" ">
<path fill="none" stroke="#63b8ff" d="M1708.14,-156.96C1689.14,-151.09 1668.26,-144.63 1650.05,-139.01"/>
<polygon fill="#63b8ff" stroke="#63b8ff" points="1707.3,-160.36 1717.89,-159.97 1709.37,-153.68 1707.3,-160.36"/>
</a>
</g>
</g>
<!-- Node3 -->
<g id="Node000003" class="node">
<title>Node3</title>
<g id="a_Node000003"><a xlink:href="classgiraffe_1_1gdl_1_1GdlServer.html#ab6878a1f3f5cc89ec02b45f749526db7" target="_top" xlink:title=" ">
<polygon fill="white" stroke="#666666" points="1493,-285 1304,-285 1304,-255 1493,-255 1493,-285"/>
<text text-anchor="start" x="1312" y="-273" font-family="Helvetica,sans-Serif" font-size="10.00">giraffe::gdl::GdlServer</text>
<text text-anchor="middle" x="1398.5" y="-262" font-family="Helvetica,sans-Serif" font-size="10.00">::handleRequestReceivedMessages</text>
</a>
</g>
</g>
<!-- Node2&#45;&gt;Node3 -->
<g id="edge2_Node000002_Node000003" class="edge">
<title>Node2&#45;&gt;Node3</title>
<g id="a_edge2_Node000002_Node000003"><a xlink:title=" ">
<path fill="none" stroke="#63b8ff" d="M1531.12,-238.41C1508.83,-243.76 1484.2,-249.67 1462.34,-254.92"/>
<polygon fill="#63b8ff" stroke="#63b8ff" points="1531.94,-241.81 1540.84,-236.08 1530.3,-235.01 1531.94,-241.81"/>
</a>
</g>
</g>
<!-- Node7 -->
<g id="Node000007" class="node">
<title>Node7</title>
<g id="a_Node000007"><a xlink:href="classgiraffe_1_1gdl_1_1GdlServer.html#aff9e02d8e689385ccf8ad741e6951076" target="_top" xlink:title=" ">
<polygon fill="white" stroke="#666666" points="1481.5,-237 1315.5,-237 1315.5,-207 1481.5,-207 1481.5,-237"/>
<text text-anchor="start" x="1323.5" y="-225" font-family="Helvetica,sans-Serif" font-size="10.00">giraffe::gdl::GdlServer</text>
<text text-anchor="middle" x="1398.5" y="-214" font-family="Helvetica,sans-Serif" font-size="10.00">::handleRequestSentMessages</text>
</a>
</g>
</g>
<!-- Node2&#45;&gt;Node7 -->
<g id="edge6_Node000002_Node000007" class="edge">
<title>Node2&#45;&gt;Node7</title>
<g id="a_edge6_Node000002_Node000007"><a xlink:title=" ">
<path fill="none" stroke="#63b8ff" d="M1530.64,-222C1514.82,-222 1497.85,-222 1481.54,-222"/>
<polygon fill="#63b8ff" stroke="#63b8ff" points="1530.84,-225.5 1540.84,-222 1530.84,-218.5 1530.84,-225.5"/>
</a>
</g>
</g>
<!-- Node4 -->
<g id="Node000004" class="node">
<title>Node4</title>
<g id="a_Node000004"><a xlink:href="classgiraffe_1_1gdl_1_1GdlServer.html#a26729c50039ce0fcc47376ca3d5b0720" target="_top" xlink:title=" ">
<polygon fill="white" stroke="#666666" points="1256,-285 1133,-285 1133,-255 1256,-255 1256,-285"/>
<text text-anchor="start" x="1141" y="-273" font-family="Helvetica,sans-Serif" font-size="10.00">giraffe::gdl::GdlServer</text>
<text text-anchor="middle" x="1194.5" y="-262" font-family="Helvetica,sans-Serif" font-size="10.00">::routeRequest</text>
</a>
</g>
</g>
<!-- Node3&#45;&gt;Node4 -->
<g id="edge3_Node000003_Node000004" class="edge">
<title>Node3&#45;&gt;Node4</title>
<g id="a_edge3_Node000003_Node000004"><a xlink:title=" ">
<path fill="none" stroke="#63b8ff" d="M1293.62,-270C1280.81,-270 1268.06,-270 1256.2,-270"/>
<polygon fill="#63b8ff" stroke="#63b8ff" points="1293.89,-273.5 1303.89,-270 1293.89,-266.5 1293.89,-273.5"/>
</a>
</g>
</g>
<!-- Node5 -->
<g id="Node000005" class="node">
<title>Node5</title>
<g id="a_Node000005"><a xlink:href="classgiraffe_1_1gdl_1_1GdlServer.html#a7982a27f1e9ee790d196a5cd8cba6217" target="_top" xlink:title=" ">
<polygon fill="white" stroke="#666666" points="224,-280.5 79,-280.5 79,-261.5 224,-261.5 224,-280.5"/>
<text text-anchor="middle" x="151.5" y="-268.5" font-family="Helvetica,sans-Serif" font-size="10.00">giraffe::gdl::GdlServer::run</text>
</a>
</g>
</g>
<!-- Node4&#45;&gt;Node5 -->
<g id="edge4_Node000004_Node000005" class="edge">
<title>Node4&#45;&gt;Node5</title>
<g id="a_edge4_Node000004_Node000005"><a xlink:title=" ">
<path fill="none" stroke="#63b8ff" d="M1122.91,-270C1049.58,-270 931.5,-270 829.5,-270 829.5,-270 829.5,-270 475.5,-270 389,-270 289.47,-270.36 224.02,-270.65"/>
<polygon fill="#63b8ff" stroke="#63b8ff" points="1122.96,-273.5 1132.96,-270 1122.96,-266.5 1122.96,-273.5"/>
</a>
</g>
</g>
<!-- Node6 -->
<g id="Node000006" class="node">
<title>Node6</title>
<g id="a_Node000006"><a xlink:href="src_2data__link_2server_2main_8cpp.html#ae66f6b31b5ad750f1fe042a706a4e3d4" target="_top" xlink:title=" ">
<polygon fill="white" stroke="#666666" points="41,-280.5 0,-280.5 0,-261.5 41,-261.5 41,-280.5"/>
<text text-anchor="middle" x="20.5" y="-268.5" font-family="Helvetica,sans-Serif" font-size="10.00">main</text>
</a>
</g>
</g>
<!-- Node5&#45;&gt;Node6 -->
<g id="edge5_Node000005_Node000006" class="edge">
<title>Node5&#45;&gt;Node6</title>
<g id="a_edge5_Node000005_Node000006"><a xlink:title=" ">
<path fill="none" stroke="#63b8ff" d="M68.52,-271C58.37,-271 48.85,-271 41.07,-271"/>
<polygon fill="#63b8ff" stroke="#63b8ff" points="68.83,-274.5 78.83,-271 68.83,-267.5 68.83,-274.5"/>
</a>
</g>
</g>
<!-- Node7&#45;&gt;Node4 -->
<g id="edge7_Node000007_Node000004" class="edge">
<title>Node7&#45;&gt;Node4</title>
<g id="a_edge7_Node000007_Node000004"><a xlink:title=" ">
<path fill="none" stroke="#63b8ff" d="M1324.36,-239.38C1302,-244.69 1277.66,-250.48 1256.22,-255.57"/>
<polygon fill="#63b8ff" stroke="#63b8ff" points="1325.22,-242.77 1334.14,-237.06 1323.6,-235.96 1325.22,-242.77"/>
</a>
</g>
</g>
<!-- Node10 -->
<g id="Node000010" class="node">
<title>Node10</title>
<g id="a_Node000010"><a xlink:href="classgiraffe_1_1gdl_1_1NetworkLayer.html#a0c426dad58678f33b713e4c8d00bf1eb" target="_top" xlink:title=" ">
<polygon fill="white" stroke="#666666" points="1470,-123 1327,-123 1327,-93 1470,-93 1470,-123"/>
<text text-anchor="start" x="1335" y="-111" font-family="Helvetica,sans-Serif" font-size="10.00">giraffe::gdl::NetworkLayer</text>
<text text-anchor="middle" x="1398.5" y="-100" font-family="Helvetica,sans-Serif" font-size="10.00">::txPacket</text>
</a>
</g>
</g>
<!-- Node9&#45;&gt;Node10 -->
<g id="edge10_Node000009_Node000010" class="edge">
<title>Node9&#45;&gt;Node10</title>
<g id="a_edge10_Node000009_Node000010"><a xlink:title=" ">
<path fill="none" stroke="#63b8ff" d="M1519.01,-117.56C1502.8,-116.26 1485.88,-114.91 1470.05,-113.64"/>
<polygon fill="#63b8ff" stroke="#63b8ff" points="1518.74,-121.05 1528.99,-118.36 1519.3,-114.07 1518.74,-121.05"/>
</a>
</g>
</g>
<!-- Node11 -->
<g id="Node000011" class="node">
<title>Node11</title>
<g id="a_Node000011"><a xlink:href="classgiraffe_1_1gdl_1_1TransportLayer.html#a92073a724987a293787cbd3382615bc1" target="_top" xlink:title=" ">
<polygon fill="white" stroke="#666666" points="1085,-207 938,-207 938,-177 1085,-177 1085,-207"/>
<text text-anchor="start" x="946" y="-195" font-family="Helvetica,sans-Serif" font-size="10.00">giraffe::gdl::TransportLayer</text>
<text text-anchor="middle" x="1011.5" y="-184" font-family="Helvetica,sans-Serif" font-size="10.00">::broadcastState</text>
</a>
</g>
</g>
<!-- Node10&#45;&gt;Node11 -->
<g id="edge11_Node000010_Node000011" class="edge">
<title>Node10&#45;&gt;Node11</title>
<g id="a_edge11_Node000010_Node000011"><a xlink:title=" ">
<path fill="none" stroke="#63b8ff" d="M1359.56,-127.56C1334.27,-139.72 1299.94,-154.59 1268,-163 1207.56,-178.91 1136.81,-186.09 1085.11,-189.33"/>
<polygon fill="#63b8ff" stroke="#63b8ff" points="1361.33,-130.59 1368.78,-123.05 1358.26,-124.3 1361.33,-130.59"/>
</a>
</g>
</g>
<!-- Node21 -->
<g id="Node000021" class="node">
<title>Node21</title>
<g id="a_Node000021"><a xlink:href="classgiraffe_1_1gdl_1_1TransportLayer.html#a709e614e408ba20b8057fd728ab93da5" target="_top" xlink:title=" ">
<polygon fill="white" stroke="#666666" points="902,-164 755,-164 755,-134 902,-134 902,-164"/>
<text text-anchor="start" x="763" y="-152" font-family="Helvetica,sans-Serif" font-size="10.00">giraffe::gdl::TransportLayer</text>
<text text-anchor="middle" x="828.5" y="-141" font-family="Helvetica,sans-Serif" font-size="10.00">::exchangeSendState</text>
</a>
</g>
</g>
<!-- Node10&#45;&gt;Node21 -->
<g id="edge22_Node000010_Node000021" class="edge">
<title>Node10&#45;&gt;Node21</title>
<g id="a_edge22_Node000010_Node000021"><a xlink:title=" ">
<path fill="none" stroke="#63b8ff" d="M1316.99,-116.54C1300.78,-118.13 1283.85,-119.7 1268,-121 1139.32,-131.56 989.12,-140.4 902.11,-145.17"/>
<polygon fill="#63b8ff" stroke="#63b8ff" points="1317.37,-120.02 1326.97,-115.55 1316.67,-113.05 1317.37,-120.02"/>
</a>
</g>
</g>
<!-- Node22 -->
<g id="Node000022" class="node">
<title>Node22</title>
<g id="a_Node000022"><a xlink:href="classgiraffe_1_1gdl_1_1TransportLayer.html#a14bea5bfc1ce848c4edf6ab2476ddc01" target="_top" xlink:title=" ">
<polygon fill="white" stroke="#666666" points="1085,-121 938,-121 938,-91 1085,-91 1085,-121"/>
<text text-anchor="start" x="946" y="-109" font-family="Helvetica,sans-Serif" font-size="10.00">giraffe::gdl::TransportLayer</text>
<text text-anchor="middle" x="1011.5" y="-98" font-family="Helvetica,sans-Serif" font-size="10.00">::sendAck</text>
</a>
</g>
</g>
<!-- Node10&#45;&gt;Node22 -->
<g id="edge24_Node000010_Node000022" class="edge">
<title>Node10&#45;&gt;Node22</title>
<g id="a_edge24_Node000010_Node000022"><a xlink:title=" ">
<path fill="none" stroke="#63b8ff" d="M1316.59,-107.58C1248.24,-107.22 1151.22,-106.72 1085.28,-106.38"/>
<polygon fill="#63b8ff" stroke="#63b8ff" points="1316.87,-111.08 1326.89,-107.63 1316.9,-104.08 1316.87,-111.08"/>
</a>
</g>
</g>
<!-- Node24 -->
<g id="Node000024" class="node">
<title>Node24</title>
<g id="a_Node000024"><a xlink:href="classgiraffe_1_1gdl_1_1TransportLayer.html#ad16a08e8eb9d3452bf5e9ba7d0836365" target="_top" xlink:title=" ">
<polygon fill="white" stroke="#666666" points="1268,-78 1121,-78 1121,-48 1268,-48 1268,-78"/>
<text text-anchor="start" x="1129" y="-66" font-family="Helvetica,sans-Serif" font-size="10.00">giraffe::gdl::TransportLayer</text>
<text text-anchor="middle" x="1194.5" y="-55" font-family="Helvetica,sans-Serif" font-size="10.00">::sendPing</text>
</a>
</g>
</g>
<!-- Node10&#45;&gt;Node24 -->
<g id="edge27_Node000010_Node000024" class="edge">
<title>Node10&#45;&gt;Node24</title>
<g id="a_edge27_Node000010_Node000024"><a xlink:title=" ">
<path fill="none" stroke="#63b8ff" d="M1319.96,-90.73C1301.18,-86.54 1281.25,-82.1 1262.98,-78.03"/>
<polygon fill="#63b8ff" stroke="#63b8ff" points="1319.43,-94.19 1329.96,-92.95 1320.96,-87.36 1319.43,-94.19"/>
</a>
</g>
</g>
<!-- Node26 -->
<g id="Node000026" class="node">
<title>Node26</title>
<g id="a_Node000026"><a xlink:href="classgiraffe_1_1gdl_1_1TransportLayer.html#acb5bd2ffdb91c8823c000cecd3e472f9" target="_top" xlink:title=" ">
<polygon fill="white" stroke="#666666" points="1268,-30 1121,-30 1121,0 1268,0 1268,-30"/>
<text text-anchor="start" x="1129" y="-18" font-family="Helvetica,sans-Serif" font-size="10.00">giraffe::gdl::TransportLayer</text>
<text text-anchor="middle" x="1194.5" y="-7" font-family="Helvetica,sans-Serif" font-size="10.00">::sendPingResponse</text>
</a>
</g>
</g>
<!-- Node10&#45;&gt;Node26 -->
<g id="edge30_Node000010_Node000026" class="edge">
<title>Node10&#45;&gt;Node26</title>
<g id="a_edge30_Node000010_Node000026"><a xlink:title=" ">
<path fill="none" stroke="#63b8ff" d="M1363.38,-87.76C1337.72,-73.05 1301.37,-53.29 1268,-39 1260.57,-35.82 1252.56,-32.79 1244.67,-30.02"/>
<polygon fill="#63b8ff" stroke="#63b8ff" points="1361.92,-90.96 1372.33,-92.94 1365.43,-84.9 1361.92,-90.96"/>
</a>
</g>
</g>
<!-- Node12 -->
<g id="Node000012" class="node">
<title>Node12</title>
<g id="a_Node000012"><a xlink:href="classgiraffe_1_1gdl_1_1TransportLayer.html#ab520e1f30f0fa8d1d17fc3d627386d2f" target="_top" xlink:title=" ">
<polygon fill="white" stroke="#666666" points="719,-163 572,-163 572,-133 719,-133 719,-163"/>
<text text-anchor="start" x="580" y="-151" font-family="Helvetica,sans-Serif" font-size="10.00">giraffe::gdl::TransportLayer</text>
<text text-anchor="middle" x="645.5" y="-140" font-family="Helvetica,sans-Serif" font-size="10.00">::update</text>
</a>
</g>
</g>
<!-- Node11&#45;&gt;Node12 -->
<g id="edge12_Node000011_Node000012" class="edge">
<title>Node11&#45;&gt;Node12</title>
<g id="a_edge12_Node000011_Node000012"><a xlink:title=" ">
<path fill="none" stroke="#63b8ff" d="M927.61,-189.03C877.44,-186.45 812.29,-181.68 755,-173 738.37,-170.48 720.52,-166.79 704.18,-163.01"/>
<polygon fill="#63b8ff" stroke="#63b8ff" points="927.6,-192.54 937.76,-189.54 927.95,-185.55 927.6,-192.54"/>
</a>
</g>
</g>
<!-- Node13 -->
<g id="Node000013" class="node">
<title>Node13</title>
<g id="a_Node000013"><a xlink:href="classgiraffe_1_1gdl_1_1DataLink.html#a2f6c5032357d005d854f969a93c360de" target="_top" xlink:title="The function that runs in the background thread.">
<polygon fill="white" stroke="#666666" points="536,-163 417,-163 417,-133 536,-133 536,-163"/>
<text text-anchor="start" x="425" y="-151" font-family="Helvetica,sans-Serif" font-size="10.00">giraffe::gdl::DataLink</text>
<text text-anchor="middle" x="476.5" y="-140" font-family="Helvetica,sans-Serif" font-size="10.00">::gdlThread</text>
</a>
</g>
</g>
<!-- Node12&#45;&gt;Node13 -->
<g id="edge13_Node000012_Node000013" class="edge">
<title>Node12&#45;&gt;Node13</title>
<g id="a_edge13_Node000012_Node000013"><a xlink:title=" ">
<path fill="none" stroke="#63b8ff" d="M561.68,-148C553.09,-148 544.48,-148 536.24,-148"/>
<polygon fill="#63b8ff" stroke="#63b8ff" points="561.74,-151.5 571.74,-148 561.74,-144.5 561.74,-151.5"/>
</a>
</g>
</g>
<!-- Node14 -->
<g id="Node000014" class="node">
<title>Node14</title>
<g id="a_Node000014"><a xlink:href="classgiraffe_1_1gdl_1_1DataLink.html#af813250da8347a200ddca5d532b7ef90" target="_top" xlink:title="Enable the Data Link. Starts the background thread.">
<polygon fill="white" stroke="#666666" points="381,-163 262,-163 262,-133 381,-133 381,-163"/>
<text text-anchor="start" x="270" y="-151" font-family="Helvetica,sans-Serif" font-size="10.00">giraffe::gdl::DataLink</text>
<text text-anchor="middle" x="321.5" y="-140" font-family="Helvetica,sans-Serif" font-size="10.00">::enable</text>
</a>
</g>
</g>
<!-- Node13&#45;&gt;Node14 -->
<g id="edge14_Node000013_Node000014" class="edge">
<title>Node13&#45;&gt;Node14</title>
<g id="a_edge14_Node000013_Node000014"><a xlink:title=" ">
<path fill="none" stroke="#63b8ff" d="M406.51,-148C398.01,-148 389.38,-148 381.06,-148"/>
<polygon fill="#63b8ff" stroke="#63b8ff" points="406.78,-151.5 416.78,-148 406.78,-144.5 406.78,-151.5"/>
</a>
</g>
</g>
<!-- Node14&#45;&gt;Node5 -->
<g id="edge16_Node000014_Node000005" class="edge">
<title>Node14&#45;&gt;Node5</title>
<g id="a_edge16_Node000014_Node000005"><a xlink:title=" ">
<path fill="none" stroke="#63b8ff" d="M305.51,-171.7C288.98,-195.85 260.15,-232.57 226,-253 220.25,-256.44 213.87,-259.22 207.35,-261.48"/>
<polygon fill="#63b8ff" stroke="#63b8ff" points="308.59,-173.39 311.23,-163.12 302.77,-169.5 308.59,-173.39"/>
</a>
</g>
</g>
<!-- Node15 -->
<g id="Node000015" class="node">
<title>Node15</title>
<g id="a_Node000015"><a xlink:href="gdl__terminal_8cpp.html#a3c04138a5bfe5d72780bb7e82a18e627" target="_top" xlink:title=" ">
<polygon fill="white" stroke="#666666" points="172,-243.5 131,-243.5 131,-224.5 172,-224.5 172,-243.5"/>
<text text-anchor="middle" x="151.5" y="-231.5" font-family="Helvetica,sans-Serif" font-size="10.00">main</text>
</a>
</g>
</g>
<!-- Node14&#45;&gt;Node15 -->
<g id="edge15_Node000014_Node000015" class="edge">
<title>Node14&#45;&gt;Node15</title>
<g id="a_edge15_Node000014_Node000015"><a xlink:title=" ">
<path fill="none" stroke="#63b8ff" d="M295.45,-169.62C277.26,-184.32 251.47,-203.17 226,-215 208.67,-223.05 187.39,-228.08 172.2,-230.92"/>
<polygon fill="#63b8ff" stroke="#63b8ff" points="297.76,-172.26 303.25,-163.2 293.31,-166.85 297.76,-172.26"/>
</a>
</g>
</g>
<!-- Node16 -->
<g id="Node000016" class="node">
<title>Node16</title>
<g id="a_Node000016"><a xlink:href="classmodules_1_1TelemetryModule.html#afb1a52e1e90b33ad72a84f8646a9633b" target="_top" xlink:title="This function is called when the module is started.">
<polygon fill="white" stroke="#666666" points="226,-206 77,-206 77,-176 226,-176 226,-206"/>
<text text-anchor="start" x="85" y="-194" font-family="Helvetica,sans-Serif" font-size="10.00">modules::TelemetryModule</text>
<text text-anchor="middle" x="151.5" y="-183" font-family="Helvetica,sans-Serif" font-size="10.00">::startup</text>
</a>
</g>
</g>
<!-- Node14&#45;&gt;Node16 -->
<g id="edge17_Node000014_Node000016" class="edge">
<title>Node14&#45;&gt;Node16</title>
<g id="a_edge17_Node000014_Node000016"><a xlink:title=" ">
<path fill="none" stroke="#63b8ff" d="M252.01,-165.53C238.48,-168.99 224.4,-172.6 211.23,-175.97"/>
<polygon fill="#63b8ff" stroke="#63b8ff" points="252.92,-168.91 261.74,-163.04 251.19,-162.13 252.92,-168.91"/>
</a>
</g>
</g>
<!-- Node17 -->
<g id="Node000017" class="node">
<title>Node17</title>
<g id="a_Node000017"><a xlink:href="test__application__layer_8cpp.html#aa2ac1248e8fd45617911ed0b118ac867" target="_top" xlink:title=" ">
<polygon fill="white" stroke="#666666" points="172,-157.5 131,-157.5 131,-138.5 172,-138.5 172,-157.5"/>
<text text-anchor="middle" x="151.5" y="-145.5" font-family="Helvetica,sans-Serif" font-size="10.00">TEST</text>
</a>
</g>
</g>
<!-- Node14&#45;&gt;Node17 -->
<g id="edge18_Node000014_Node000017" class="edge">
<title>Node14&#45;&gt;Node17</title>
<g id="a_edge18_Node000014_Node000017"><a xlink:title=" ">
<path fill="none" stroke="#63b8ff" d="M251.71,-148C223.01,-148 191.85,-148 172.26,-148"/>
<polygon fill="#63b8ff" stroke="#63b8ff" points="251.74,-151.5 261.74,-148 251.74,-144.5 251.74,-151.5"/>
</a>
</g>
</g>
<!-- Node18 -->
<g id="Node000018" class="node">
<title>Node18</title>
<g id="a_Node000018"><a xlink:href="test__application__layer_8cpp.html#ac24fe56893d3fd67b81bb4aacc7c8320" target="_top" xlink:title=" ">
<polygon fill="white" stroke="#666666" points="172,-120.5 131,-120.5 131,-101.5 172,-101.5 172,-120.5"/>
<text text-anchor="middle" x="151.5" y="-108.5" font-family="Helvetica,sans-Serif" font-size="10.00">TEST</text>
</a>
</g>
</g>
<!-- Node14&#45;&gt;Node18 -->
<g id="edge19_Node000014_Node000018" class="edge">
<title>Node14&#45;&gt;Node18</title>
<g id="a_edge19_Node000014_Node000018"><a xlink:title=" ">
<path fill="none" stroke="#63b8ff" d="M251.71,-132.85C223.01,-126.53 191.85,-119.67 172.26,-115.35"/>
<polygon fill="#63b8ff" stroke="#63b8ff" points="251.22,-136.33 261.74,-135.06 252.73,-129.49 251.22,-136.33"/>
</a>
</g>
</g>
<!-- Node19 -->
<g id="Node000019" class="node">
<title>Node19</title>
<g id="a_Node000019"><a xlink:href="test__gdl__with__audio_8cpp.html#a0f6fd1dc912f411387b1e9cf45b8c24a" target="_top" xlink:title=" ">
<polygon fill="white" stroke="#666666" points="172,-83.5 131,-83.5 131,-64.5 172,-64.5 172,-83.5"/>
<text text-anchor="middle" x="151.5" y="-71.5" font-family="Helvetica,sans-Serif" font-size="10.00">TEST</text>
</a>
</g>
</g>
<!-- Node14&#45;&gt;Node19 -->
<g id="edge20_Node000014_Node000019" class="edge">
<title>Node14&#45;&gt;Node19</title>
<g id="a_edge20_Node000014_Node000019"><a xlink:title=" ">
<path fill="none" stroke="#63b8ff" d="M290.94,-127.4C272.88,-115.61 248.91,-101.35 226,-92 208.36,-84.8 187.13,-79.98 172.02,-77.16"/>
<polygon fill="#63b8ff" stroke="#63b8ff" points="289.04,-130.34 299.3,-132.96 292.91,-124.51 289.04,-130.34"/>
</a>
</g>
</g>
<!-- Node20 -->
<g id="Node000020" class="node">
<title>Node20</title>
<g id="a_Node000020"><a xlink:href="test__gdl__with__audio_8cpp.html#af3909c6936a57cb5c17074206688ee2c" target="_top" xlink:title=" ">
<polygon fill="white" stroke="#666666" points="172,-46.5 131,-46.5 131,-27.5 172,-27.5 172,-46.5"/>
<text text-anchor="middle" x="151.5" y="-34.5" font-family="Helvetica,sans-Serif" font-size="10.00">TEST</text>
</a>
</g>
</g>
<!-- Node14&#45;&gt;Node20 -->
<g id="edge21_Node000014_Node000020" class="edge">
<title>Node14&#45;&gt;Node20</title>
<g id="a_edge21_Node000014_Node000020"><a xlink:title=" ">
<path fill="none" stroke="#63b8ff" d="M303.24,-124.99C286,-103.65 257.59,-72.62 226,-55 209.25,-45.66 187.7,-41.12 172.27,-38.94"/>
<polygon fill="#63b8ff" stroke="#63b8ff" points="300.55,-127.23 309.49,-132.92 306.05,-122.9 300.55,-127.23"/>
</a>
</g>
</g>
<!-- Node21&#45;&gt;Node12 -->
<g id="edge23_Node000021_Node000012" class="edge">
<title>Node21&#45;&gt;Node12</title>
<g id="a_edge23_Node000021_Node000012"><a xlink:title=" ">
<path fill="none" stroke="#63b8ff" d="M744.88,-148.54C736.28,-148.5 727.58,-148.45 719.09,-148.4"/>
<polygon fill="#63b8ff" stroke="#63b8ff" points="744.9,-152.04 754.92,-148.6 744.94,-145.04 744.9,-152.04"/>
</a>
</g>
</g>
<!-- Node23 -->
<g id="Node000023" class="node">
<title>Node23</title>
<g id="a_Node000023"><a xlink:href="classgiraffe_1_1gdl_1_1TransportLayer.html#ab025e1d35369c1eb47ab9aa5b7a1c859" target="_top" xlink:title=" ">
<polygon fill="white" stroke="#666666" points="902,-95 755,-95 755,-65 902,-65 902,-95"/>
<text text-anchor="start" x="763" y="-83" font-family="Helvetica,sans-Serif" font-size="10.00">giraffe::gdl::TransportLayer</text>
<text text-anchor="middle" x="828.5" y="-72" font-family="Helvetica,sans-Serif" font-size="10.00">::idleState</text>
</a>
</g>
</g>
<!-- Node22&#45;&gt;Node23 -->
<g id="edge25_Node000022_Node000023" class="edge">
<title>Node22&#45;&gt;Node23</title>
<g id="a_edge25_Node000022_Node000023"><a xlink:title=" ">
<path fill="none" stroke="#63b8ff" d="M927.88,-94.13C919.28,-92.9 910.58,-91.65 902.09,-90.43"/>
<polygon fill="#63b8ff" stroke="#63b8ff" points="927.53,-97.62 937.92,-95.57 928.52,-90.69 927.53,-97.62"/>
</a>
</g>
</g>
<!-- Node23&#45;&gt;Node12 -->
<g id="edge26_Node000023_Node000012" class="edge">
<title>Node23&#45;&gt;Node12</title>
<g id="a_edge26_Node000023_Node000012"><a xlink:title=" ">
<path fill="none" stroke="#63b8ff" d="M777.88,-98.64C749.16,-109.43 713.48,-122.84 686.56,-132.95"/>
<polygon fill="#63b8ff" stroke="#63b8ff" points="779.2,-101.88 787.33,-95.09 776.74,-95.33 779.2,-101.88"/>
</a>
</g>
</g>
<!-- Node25 -->
<g id="Node000025" class="node">
<title>Node25</title>
<g id="a_Node000025"><a xlink:href="classgiraffe_1_1gdl_1_1TransportLayer.html#af2a2d4c6be71a80328a7fab410c3a790" target="_top" xlink:title=" ">
<polygon fill="white" stroke="#666666" points="1085,-73 938,-73 938,-43 1085,-43 1085,-73"/>
<text text-anchor="start" x="946" y="-61" font-family="Helvetica,sans-Serif" font-size="10.00">giraffe::gdl::TransportLayer</text>
<text text-anchor="middle" x="1011.5" y="-50" font-family="Helvetica,sans-Serif" font-size="10.00">::controllerIdleState</text>
</a>
</g>
</g>
<!-- Node24&#45;&gt;Node25 -->
<g id="edge28_Node000024_Node000025" class="edge">
<title>Node24&#45;&gt;Node25</title>
<g id="a_edge28_Node000024_Node000025"><a xlink:title=" ">
<path fill="none" stroke="#63b8ff" d="M1110.88,-60.72C1102.28,-60.48 1093.58,-60.24 1085.09,-60.01"/>
<polygon fill="#63b8ff" stroke="#63b8ff" points="1110.83,-64.22 1120.92,-61 1111.02,-57.22 1110.83,-64.22"/>
</a>
</g>
</g>
<!-- Node25&#45;&gt;Node23 -->
<g id="edge29_Node000025_Node000023" class="edge">
<title>Node25&#45;&gt;Node23</title>
<g id="a_edge29_Node000025_Node000023"><a xlink:title=" ">
<path fill="none" stroke="#63b8ff" d="M927.88,-68.04C919.28,-69.09 910.58,-70.15 902.09,-71.18"/>
<polygon fill="#63b8ff" stroke="#63b8ff" points="928.42,-71.5 937.92,-66.82 927.57,-64.55 928.42,-71.5"/>
</a>
</g>
</g>
<!-- Node26&#45;&gt;Node23 -->
<g id="edge31_Node000026_Node000023" class="edge">
<title>Node26&#45;&gt;Node23</title>
<g id="a_edge31_Node000026_Node000023"><a xlink:title=" ">
<path fill="none" stroke="#63b8ff" d="M1110.72,-14.36C1060.19,-15.63 994.62,-20.29 938,-34 909.76,-40.84 879.47,-54.24 858.09,-64.83"/>
<polygon fill="#63b8ff" stroke="#63b8ff" points="1111.02,-17.85 1120.94,-14.14 1110.87,-10.85 1111.02,-17.85"/>
</a>
</g>
</g>
</g>
</svg>
