<?xml version="1.0" encoding="UTF-8" standalone="no"?>
<!DOCTYPE svg PUBLIC "-//W3C//DTD SVG 1.1//EN"
 "http://www.w3.org/Graphics/SVG/1.1/DTD/svg11.dtd">
<!-- Generated by graphviz version 2.43.0 (0)
 -->
<!-- Title: cfg::AdcMappings::doesLabelExist Pages: 1 -->
<svg width="371pt" height="78pt"
 viewBox="0.00 0.00 371.00 77.50" xmlns="http://www.w3.org/2000/svg" xmlns:xlink="http://www.w3.org/1999/xlink">
<g id="graph0" class="graph" transform="scale(1 1) rotate(0) translate(4 73.5)">
<title>cfg::AdcMappings::doesLabelExist</title>
<!-- Node1 -->
<g id="node1" class="node">
<title>Node1</title>
<g id="a_node1"><a xlink:title=" ">
<polygon fill="#bfbfbf" stroke="black" points="205,-17 205,-47 363,-47 363,-17 205,-17"/>
<text text-anchor="start" x="213" y="-35" font-family="Helvetica,sans-Serif" font-size="10.00">cfg::AdcMappings::doesLabel</text>
<text text-anchor="middle" x="284" y="-24" font-family="Helvetica,sans-Serif" font-size="10.00">Exist</text>
</a>
</g>
</g>
<!-- Node2 -->
<g id="node2" class="node">
<title>Node2</title>
<g id="a_node2"><a xlink:href="classcfg_1_1AdcMappings.html#a50978d833ec6672505f87b17c140f483" target="_top" xlink:title=" ">
<polygon fill="none" stroke="black" points="12,-39 12,-69 157,-69 157,-39 12,-39"/>
<text text-anchor="start" x="20" y="-57" font-family="Helvetica,sans-Serif" font-size="10.00">cfg::AdcMappings::addAdc</text>
<text text-anchor="middle" x="84.5" y="-46" font-family="Helvetica,sans-Serif" font-size="10.00">Config</text>
</a>
</g>
</g>
<!-- Node1&#45;&gt;Node2 -->
<g id="edge1" class="edge">
<title>Node1&#45;&gt;Node2</title>
<path fill="none" stroke="midnightblue" d="M194.9,-41.81C182.29,-43.22 169.45,-44.65 157.21,-46.01"/>
<polygon fill="midnightblue" stroke="midnightblue" points="195.39,-45.28 204.94,-40.69 194.62,-38.32 195.39,-45.28"/>
</g>
<!-- Node3 -->
<g id="node3" class="node">
<title>Node3</title>
<g id="a_node3"><a xlink:href="classcfg_1_1AdcMappings.html#a45d9c766a012ea127e8612d262e720ac" target="_top" xlink:title=" ">
<polygon fill="none" stroke="black" points="0,-0.5 0,-19.5 169,-19.5 169,-0.5 0,-0.5"/>
<text text-anchor="middle" x="84.5" y="-7.5" font-family="Helvetica,sans-Serif" font-size="10.00">cfg::AdcMappings::setFromJson</text>
</a>
</g>
</g>
<!-- Node1&#45;&gt;Node3 -->
<g id="edge2" class="edge">
<title>Node1&#45;&gt;Node3</title>
<path fill="none" stroke="midnightblue" d="M194.95,-22.19C186.37,-21.24 177.69,-20.27 169.16,-19.32"/>
<polygon fill="midnightblue" stroke="midnightblue" points="194.62,-25.68 204.94,-23.31 195.39,-18.72 194.62,-25.68"/>
</g>
</g>
</svg>
