<?xml version="1.0" encoding="UTF-8" standalone="no"?>
<!DOCTYPE svg PUBLIC "-//W3C//DTD SVG 1.1//EN"
 "http://www.w3.org/Graphics/SVG/1.1/DTD/svg11.dtd">
<!-- Generated by graphviz version 2.43.0 (0)
 -->
<!-- Title: extension::AdcExtensionBase::AdcExtensionBase Pages: 1 -->
<svg width="756pt" height="180pt"
 viewBox="0.00 0.00 756.00 180.00" xmlns="http://www.w3.org/2000/svg" xmlns:xlink="http://www.w3.org/1999/xlink">
<g id="graph0" class="graph" transform="scale(1 1) rotate(0) translate(4 176)">
<title>extension::AdcExtensionBase::AdcExtensionBase</title>
<!-- Node1 -->
<g id="node1" class="node">
<title>Node1</title>
<g id="a_node1"><a xlink:title=" ">
<polygon fill="#bfbfbf" stroke="black" points="0,-93 0,-123 161,-123 161,-93 0,-93"/>
<text text-anchor="start" x="8" y="-111" font-family="Helvetica,sans-Serif" font-size="10.00">extension::AdcExtensionBase</text>
<text text-anchor="middle" x="80.5" y="-100" font-family="Helvetica,sans-Serif" font-size="10.00">::AdcExtensionBase</text>
</a>
</g>
</g>
<!-- Node2 -->
<g id="node2" class="node">
<title>Node2</title>
<g id="a_node2"><a xlink:href="classextension_1_1Extension.html#a947a643d302b5c5f9cef1a54d5038c06" target="_top" xlink:title=" ">
<polygon fill="none" stroke="black" points="210.5,-131 210.5,-161 329.5,-161 329.5,-131 210.5,-131"/>
<text text-anchor="start" x="218.5" y="-149" font-family="Helvetica,sans-Serif" font-size="10.00">extension::Extension</text>
<text text-anchor="middle" x="270" y="-138" font-family="Helvetica,sans-Serif" font-size="10.00">::error</text>
</a>
</g>
</g>
<!-- Node1&#45;&gt;Node2 -->
<g id="edge1" class="edge">
<title>Node1&#45;&gt;Node2</title>
<path fill="none" stroke="midnightblue" d="M155.6,-123.02C170.41,-126.02 185.9,-129.16 200.5,-132.12"/>
<polygon fill="midnightblue" stroke="midnightblue" points="199.96,-135.58 210.45,-134.13 201.35,-128.72 199.96,-135.58"/>
</g>
<!-- Node4 -->
<g id="node4" class="node">
<title>Node4</title>
<g id="a_node4"><a xlink:href="namespaceextension.html#aea2ae2212bc3fa9298548a9262b08d53" target="_top" xlink:title="Parse an ADC config string into an AdcConfig struct.">
<polygon fill="none" stroke="black" points="197,-76.5 197,-95.5 343,-95.5 343,-76.5 197,-76.5"/>
<text text-anchor="middle" x="270" y="-83.5" font-family="Helvetica,sans-Serif" font-size="10.00">extension::parseAdcConfig</text>
</a>
</g>
</g>
<!-- Node1&#45;&gt;Node4 -->
<g id="edge3" class="edge">
<title>Node1&#45;&gt;Node4</title>
<path fill="none" stroke="midnightblue" d="M161.02,-98.67C169.55,-97.67 178.25,-96.65 186.82,-95.64"/>
<polygon fill="midnightblue" stroke="midnightblue" points="187.27,-99.11 196.8,-94.47 186.46,-92.16 187.27,-99.11"/>
</g>
<!-- Node3 -->
<g id="node3" class="node">
<title>Node3</title>
<g id="a_node3"><a xlink:href="classdata_1_1Stream.html#a1ff9a93190dbecdc2ffa27deaaa4266a" target="_top" xlink:title=" ">
<polygon fill="none" stroke="black" points="412.5,-152.5 412.5,-171.5 547.5,-171.5 547.5,-152.5 412.5,-152.5"/>
<text text-anchor="middle" x="480" y="-159.5" font-family="Helvetica,sans-Serif" font-size="10.00">data::Stream::addPacket</text>
</a>
</g>
</g>
<!-- Node2&#45;&gt;Node3 -->
<g id="edge2" class="edge">
<title>Node2&#45;&gt;Node3</title>
<path fill="none" stroke="midnightblue" d="M329.77,-150.52C352.27,-152.25 378.27,-154.25 402.2,-156.09"/>
<polygon fill="midnightblue" stroke="midnightblue" points="402.08,-159.59 412.31,-156.87 402.61,-152.61 402.08,-159.59"/>
</g>
<!-- Node5 -->
<g id="node5" class="node">
<title>Node5</title>
<g id="a_node5"><a xlink:href="namespaceextension.html#a03e33fdaf5af44bd62474a0518c4836f" target="_top" xlink:title=" ">
<polygon fill="none" stroke="black" points="617,-57.5 617,-76.5 748,-76.5 748,-57.5 617,-57.5"/>
<text text-anchor="middle" x="682.5" y="-64.5" font-family="Helvetica,sans-Serif" font-size="10.00">extension::getKeyValue</text>
</a>
</g>
</g>
<!-- Node4&#45;&gt;Node5 -->
<g id="edge4" class="edge">
<title>Node4&#45;&gt;Node5</title>
<path fill="none" stroke="midnightblue" d="M316.07,-95.5C376.76,-106.77 487.91,-122.01 581,-105 606.27,-100.38 633.44,-89.73 653.15,-80.88"/>
<polygon fill="midnightblue" stroke="midnightblue" points="654.84,-83.95 662.46,-76.58 651.91,-77.6 654.84,-83.95"/>
</g>
<!-- Node6 -->
<g id="node6" class="node">
<title>Node6</title>
<g id="a_node6"><a xlink:href="namespaceextension.html#a1c70792cc81ee38bdd6565121b80d73f" target="_top" xlink:title=" ">
<polygon fill="none" stroke="black" points="404,-76.5 404,-95.5 556,-95.5 556,-76.5 404,-76.5"/>
<text text-anchor="middle" x="480" y="-83.5" font-family="Helvetica,sans-Serif" font-size="10.00">extension::parsePercentAdc</text>
</a>
</g>
</g>
<!-- Node4&#45;&gt;Node6 -->
<g id="edge5" class="edge">
<title>Node4&#45;&gt;Node6</title>
<path fill="none" stroke="midnightblue" d="M343.16,-86C359.39,-86 376.76,-86 393.48,-86"/>
<polygon fill="midnightblue" stroke="midnightblue" points="393.78,-89.5 403.78,-86 393.78,-82.5 393.78,-89.5"/>
</g>
<!-- Node7 -->
<g id="node7" class="node">
<title>Node7</title>
<g id="a_node7"><a xlink:href="namespaceextension.html#a1d505eb064779b189f0e0aea26f233f8" target="_top" xlink:title=" ">
<polygon fill="none" stroke="black" points="386,-38.5 386,-57.5 574,-57.5 574,-38.5 386,-38.5"/>
<text text-anchor="middle" x="480" y="-45.5" font-family="Helvetica,sans-Serif" font-size="10.00">extension::parseVoltageDividerAdc</text>
</a>
</g>
</g>
<!-- Node4&#45;&gt;Node7 -->
<g id="edge7" class="edge">
<title>Node4&#45;&gt;Node7</title>
<path fill="none" stroke="midnightblue" d="M323.22,-76.46C351.65,-71.27 387.02,-64.8 416.87,-59.35"/>
<polygon fill="midnightblue" stroke="midnightblue" points="417.55,-62.78 426.76,-57.54 416.29,-55.9 417.55,-62.78"/>
</g>
<!-- Node8 -->
<g id="node8" class="node">
<title>Node8</title>
<g id="a_node8"><a xlink:href="namespaceextension.html#a9b3e7eed87dd75bdeae23c40767b5412" target="_top" xlink:title=" ">
<polygon fill="none" stroke="black" points="379,-0.5 379,-19.5 581,-19.5 581,-0.5 379,-0.5"/>
<text text-anchor="middle" x="480" y="-7.5" font-family="Helvetica,sans-Serif" font-size="10.00">extension::parseVoltageReferenceAdc</text>
</a>
</g>
</g>
<!-- Node4&#45;&gt;Node8 -->
<g id="edge9" class="edge">
<title>Node4&#45;&gt;Node8</title>
<path fill="none" stroke="midnightblue" d="M285.73,-76.39C305.94,-63.65 343.78,-41.33 379,-29 386.85,-26.25 395.2,-23.87 403.59,-21.82"/>
<polygon fill="midnightblue" stroke="midnightblue" points="404.48,-25.2 413.44,-19.55 402.91,-18.38 404.48,-25.2"/>
</g>
<!-- Node6&#45;&gt;Node5 -->
<g id="edge6" class="edge">
<title>Node6&#45;&gt;Node5</title>
<path fill="none" stroke="midnightblue" d="M556.23,-78.87C572.7,-77.31 590.14,-75.66 606.59,-74.1"/>
<polygon fill="midnightblue" stroke="midnightblue" points="607.07,-77.57 616.7,-73.14 606.41,-70.6 607.07,-77.57"/>
</g>
<!-- Node7&#45;&gt;Node5 -->
<g id="edge8" class="edge">
<title>Node7&#45;&gt;Node5</title>
<path fill="none" stroke="midnightblue" d="M574.21,-56.83C585.13,-57.87 596.17,-58.91 606.8,-59.92"/>
<polygon fill="midnightblue" stroke="midnightblue" points="606.56,-63.41 616.85,-60.87 607.22,-56.45 606.56,-63.41"/>
</g>
<!-- Node8&#45;&gt;Node5 -->
<g id="edge10" class="edge">
<title>Node8&#45;&gt;Node5</title>
<path fill="none" stroke="midnightblue" d="M540.36,-19.52C553.82,-22.16 567.99,-25.33 581,-29 604.65,-35.66 630.58,-45.53 650.17,-53.54"/>
<polygon fill="midnightblue" stroke="midnightblue" points="648.94,-56.82 659.52,-57.42 651.62,-50.36 648.94,-56.82"/>
</g>
</g>
</svg>
