<?xml version="1.0" encoding="UTF-8" standalone="no"?>
<!DOCTYPE svg PUBLIC "-//W3C//DTD SVG 1.1//EN"
 "http://www.w3.org/Graphics/SVG/1.1/DTD/svg11.dtd">
<!-- Generated by graphviz version 2.43.0 (0)
 -->
<!-- Title: giraffe::Logger::error Pages: 1 -->
<svg width="1088pt" height="105pt"
 viewBox="0.00 0.00 1088.00 104.50" xmlns="http://www.w3.org/2000/svg" xmlns:xlink="http://www.w3.org/1999/xlink">
<g id="graph0" class="graph" transform="scale(1 1) rotate(0) translate(4 100.5)">
<title>giraffe::Logger::error</title>
<!-- Node1 -->
<g id="node1" class="node">
<title>Node1</title>
<g id="a_node1"><a xlink:title=" ">
<polygon fill="#bfbfbf" stroke="black" points="964,-30 964,-49 1080,-49 1080,-30 964,-30"/>
<text text-anchor="middle" x="1022" y="-37" font-family="Helvetica,sans-Serif" font-size="10.00">giraffe::Logger::error</text>
</a>
</g>
</g>
<!-- Node2 -->
<g id="node2" class="node">
<title>Node2</title>
<g id="a_node2"><a xlink:href="classFlightPhaseManager.html#a38e97741fd5bdd0b80a3172d3e73322d" target="_top" xlink:title=" ">
<polygon fill="none" stroke="black" points="776,-49.5 776,-79.5 892,-79.5 892,-49.5 776,-49.5"/>
<text text-anchor="start" x="784" y="-67.5" font-family="Helvetica,sans-Serif" font-size="10.00">FlightPhaseManager</text>
<text text-anchor="middle" x="834" y="-56.5" font-family="Helvetica,sans-Serif" font-size="10.00">::flightPhaseUpdate</text>
</a>
</g>
</g>
<!-- Node1&#45;&gt;Node2 -->
<g id="edge1" class="edge">
<title>Node1&#45;&gt;Node2</title>
<path fill="none" stroke="midnightblue" d="M953.88,-48.52C933.7,-51.23 911.76,-54.18 892.28,-56.8"/>
<polygon fill="midnightblue" stroke="midnightblue" points="954.49,-51.97 963.93,-47.17 953.55,-45.03 954.49,-51.97"/>
</g>
<!-- Node8 -->
<g id="node8" class="node">
<title>Node8</title>
<g id="a_node8"><a xlink:href="classdata__middleware_1_1AdcInterpolation.html#afe9137948458156c46370b562db1fc82" target="_top" xlink:title="Returns the ADC channel configuration for the given key. If one does not exist, an error is logged an...">
<polygon fill="none" stroke="black" points="740,-0.5 740,-30.5 928,-30.5 928,-0.5 740,-0.5"/>
<text text-anchor="start" x="748" y="-18.5" font-family="Helvetica,sans-Serif" font-size="10.00">data_middleware::AdcInterpolation</text>
<text text-anchor="middle" x="834" y="-7.5" font-family="Helvetica,sans-Serif" font-size="10.00">::getAdcConfig</text>
</a>
</g>
</g>
<!-- Node1&#45;&gt;Node8 -->
<g id="edge8" class="edge">
<title>Node1&#45;&gt;Node8</title>
<path fill="none" stroke="midnightblue" d="M953.92,-30.84C945.58,-29.77 936.94,-28.65 928.29,-27.54"/>
<polygon fill="midnightblue" stroke="midnightblue" points="953.56,-34.33 963.93,-32.14 954.46,-27.39 953.56,-34.33"/>
</g>
<!-- Node3 -->
<g id="node3" class="node">
<title>Node3</title>
<g id="a_node3"><a xlink:href="classFlightPhaseManager.html#a547cb144c9ad196b910bc3a111aec286" target="_top" xlink:title="Update the flight phase manager.">
<polygon fill="none" stroke="black" points="552,-49.5 552,-79.5 668,-79.5 668,-49.5 552,-49.5"/>
<text text-anchor="start" x="560" y="-67.5" font-family="Helvetica,sans-Serif" font-size="10.00">FlightPhaseManager</text>
<text text-anchor="middle" x="610" y="-56.5" font-family="Helvetica,sans-Serif" font-size="10.00">::update</text>
</a>
</g>
</g>
<!-- Node2&#45;&gt;Node3 -->
<g id="edge2" class="edge">
<title>Node2&#45;&gt;Node3</title>
<path fill="none" stroke="midnightblue" d="M765.53,-64.5C734.49,-64.5 698.05,-64.5 668.36,-64.5"/>
<polygon fill="midnightblue" stroke="midnightblue" points="765.83,-68 775.83,-64.5 765.83,-61 765.83,-68"/>
</g>
<!-- Node4 -->
<g id="node4" class="node">
<title>Node4</title>
<g id="a_node4"><a xlink:href="classFlightRunner.html#a91b3c262d2ab68bbf687b92d5acaf618" target="_top" xlink:title="The main flight logic function. Called in the flight loop.">
<polygon fill="none" stroke="black" points="344.5,-77 344.5,-96 479.5,-96 479.5,-77 344.5,-77"/>
<text text-anchor="middle" x="412" y="-84" font-family="Helvetica,sans-Serif" font-size="10.00">FlightRunner::flightLogic</text>
</a>
</g>
</g>
<!-- Node3&#45;&gt;Node4 -->
<g id="edge3" class="edge">
<title>Node3&#45;&gt;Node4</title>
<path fill="none" stroke="midnightblue" d="M541.78,-72.04C521.69,-74.3 499.68,-76.77 479.62,-79.02"/>
<polygon fill="midnightblue" stroke="midnightblue" points="542.23,-75.52 551.78,-70.92 541.45,-68.56 542.23,-75.52"/>
</g>
<!-- Node5 -->
<g id="node5" class="node">
<title>Node5</title>
<g id="a_node5"><a xlink:href="classFlightPhaseManagerTest.html#adb308f82112e0a026b62fd8a1b1182ac" target="_top" xlink:title=" ">
<polygon fill="none" stroke="black" points="344,-27.5 344,-57.5 480,-57.5 480,-27.5 344,-27.5"/>
<text text-anchor="start" x="352" y="-45.5" font-family="Helvetica,sans-Serif" font-size="10.00">FlightPhaseManagerTest</text>
<text text-anchor="middle" x="412" y="-34.5" font-family="Helvetica,sans-Serif" font-size="10.00">::tick</text>
</a>
</g>
</g>
<!-- Node3&#45;&gt;Node5 -->
<g id="edge4" class="edge">
<title>Node3&#45;&gt;Node5</title>
<path fill="none" stroke="midnightblue" d="M541.61,-56.94C521.8,-54.71 500.13,-52.28 480.33,-50.06"/>
<polygon fill="midnightblue" stroke="midnightblue" points="541.45,-60.44 551.78,-58.08 542.23,-53.48 541.45,-60.44"/>
</g>
<!-- Node6 -->
<g id="node6" class="node">
<title>Node6</title>
<g id="a_node6"><a xlink:href="classFlightPhaseManagerTest.html#aaab5ea1894a4a238ea30e821247b9c10" target="_top" xlink:title=" ">
<polygon fill="none" stroke="black" points="172,-49.5 172,-79.5 308,-79.5 308,-49.5 172,-49.5"/>
<text text-anchor="start" x="180" y="-67.5" font-family="Helvetica,sans-Serif" font-size="10.00">FlightPhaseManagerTest</text>
<text text-anchor="middle" x="240" y="-56.5" font-family="Helvetica,sans-Serif" font-size="10.00">::bringToAscent</text>
</a>
</g>
</g>
<!-- Node5&#45;&gt;Node6 -->
<g id="edge5" class="edge">
<title>Node5&#45;&gt;Node6</title>
<path fill="none" stroke="midnightblue" d="M333.85,-52.48C325.31,-53.59 316.66,-54.71 308.26,-55.8"/>
<polygon fill="midnightblue" stroke="midnightblue" points="334.34,-55.95 343.81,-51.19 333.44,-49.01 334.34,-55.95"/>
</g>
<!-- Node7 -->
<g id="node7" class="node">
<title>Node7</title>
<g id="a_node7"><a xlink:href="classFlightPhaseManagerTest.html#a9b4298134e734c7d0e4b219999098819" target="_top" xlink:title=" ">
<polygon fill="none" stroke="black" points="0,-27.5 0,-57.5 136,-57.5 136,-27.5 0,-27.5"/>
<text text-anchor="start" x="8" y="-45.5" font-family="Helvetica,sans-Serif" font-size="10.00">FlightPhaseManagerTest</text>
<text text-anchor="middle" x="68" y="-34.5" font-family="Helvetica,sans-Serif" font-size="10.00">::bringToDescent</text>
</a>
</g>
</g>
<!-- Node5&#45;&gt;Node7 -->
<g id="edge7" class="edge">
<title>Node5&#45;&gt;Node7</title>
<path fill="none" stroke="midnightblue" d="M333.79,-40.84C325.09,-40.7 316.36,-40.58 308,-40.5 247.56,-39.91 232.44,-39.91 172,-40.5 160.38,-40.61 148.01,-40.8 136.04,-41.01"/>
<polygon fill="midnightblue" stroke="midnightblue" points="333.9,-44.34 343.96,-41.01 334.02,-37.34 333.9,-44.34"/>
</g>
<!-- Node6&#45;&gt;Node7 -->
<g id="edge6" class="edge">
<title>Node6&#45;&gt;Node7</title>
<path fill="none" stroke="midnightblue" d="M161.85,-54.52C153.31,-53.41 144.66,-52.29 136.26,-51.2"/>
<polygon fill="midnightblue" stroke="midnightblue" points="161.44,-57.99 171.81,-55.81 162.34,-51.05 161.44,-57.99"/>
</g>
<!-- Node9 -->
<g id="node9" class="node">
<title>Node9</title>
<g id="a_node9"><a xlink:href="classdata__middleware_1_1AdcInterpolation.html#a33bed24d36248ab62815595bf30c2d3c" target="_top" xlink:title="Takes in a data packet containing raw ADC data and processes it according to the ADC configuration.">
<polygon fill="none" stroke="black" points="516,-0.5 516,-30.5 704,-30.5 704,-0.5 516,-0.5"/>
<text text-anchor="start" x="524" y="-18.5" font-family="Helvetica,sans-Serif" font-size="10.00">data_middleware::AdcInterpolation</text>
<text text-anchor="middle" x="610" y="-7.5" font-family="Helvetica,sans-Serif" font-size="10.00">::processDataPacket</text>
</a>
</g>
</g>
<!-- Node8&#45;&gt;Node9 -->
<g id="edge9" class="edge">
<title>Node8&#45;&gt;Node9</title>
<path fill="none" stroke="midnightblue" d="M729.57,-15.5C721.14,-15.5 712.65,-15.5 704.3,-15.5"/>
<polygon fill="midnightblue" stroke="midnightblue" points="729.82,-19 739.82,-15.5 729.82,-12 729.82,-19"/>
</g>
</g>
</svg>
