<?xml version="1.0" encoding="UTF-8" standalone="no"?>
<!DOCTYPE svg PUBLIC "-//W3C//DTD SVG 1.1//EN"
 "http://www.w3.org/Graphics/SVG/1.1/DTD/svg11.dtd">
<!-- Generated by graphviz version 2.43.0 (0)
 -->
<!-- Title: ax25::ReassemblerStateMachine Pages: 1 -->
<svg width="302pt" height="739pt"
 viewBox="0.00 0.00 301.50 739.00" xmlns="http://www.w3.org/2000/svg" xmlns:xlink="http://www.w3.org/1999/xlink">
<g id="graph0" class="graph" transform="scale(1 1) rotate(0) translate(4 735)">
<title>ax25::ReassemblerStateMachine</title>
<!-- Node1 -->
<g id="node1" class="node">
<title>Node1</title>
<g id="a_node1"><a xlink:title=" ">
<polygon fill="#bfbfbf" stroke="black" points="101.5,-0.5 101.5,-145.5 293.5,-145.5 293.5,-0.5 101.5,-0.5"/>
<text text-anchor="middle" x="197.5" y="-133.5" font-family="Helvetica,sans-Serif" font-size="10.00">ax25::ReassemblerStateMachine</text>
<polyline fill="none" stroke="black" points="101.5,-126.5 293.5,-126.5 "/>
<text text-anchor="middle" x="197.5" y="-114.5" font-family="Helvetica,sans-Serif" font-size="10.00"> </text>
<polyline fill="none" stroke="black" points="101.5,-107.5 293.5,-107.5 "/>
<text text-anchor="start" x="109.5" y="-95.5" font-family="Helvetica,sans-Serif" font-size="10.00">+ ReassemblerStateMachine()</text>
<text text-anchor="start" x="109.5" y="-84.5" font-family="Helvetica,sans-Serif" font-size="10.00">+ ~ReassemblerStateMachine()</text>
<text text-anchor="start" x="109.5" y="-73.5" font-family="Helvetica,sans-Serif" font-size="10.00">+ getCurrentState()</text>
<text text-anchor="start" x="109.5" y="-62.5" font-family="Helvetica,sans-Serif" font-size="10.00">+ receive()</text>
<text text-anchor="start" x="109.5" y="-51.5" font-family="Helvetica,sans-Serif" font-size="10.00">&#45; set_state()</text>
<text text-anchor="start" x="109.5" y="-40.5" font-family="Helvetica,sans-Serif" font-size="10.00">&#45; state_null()</text>
<text text-anchor="start" x="109.5" y="-29.5" font-family="Helvetica,sans-Serif" font-size="10.00">&#45; state_reassemblingData()</text>
<text text-anchor="start" x="109.5" y="-18.5" font-family="Helvetica,sans-Serif" font-size="10.00">&#45; state_reassemblingUnitData()</text>
<text text-anchor="start" x="109.5" y="-7.5" font-family="Helvetica,sans-Serif" font-size="10.00">&#45; subroutine_initiateN1Notification()</text>
</a>
</g>
</g>
<!-- Node2 -->
<g id="node2" class="node">
<title>Node2</title>
<g id="a_node2"><a xlink:href="classax25_1_1BaseAX25StateMachine.html" target="_top" xlink:title=" ">
<polygon fill="none" stroke="black" points="0,-193.5 0,-283.5 163,-283.5 163,-193.5 0,-193.5"/>
<text text-anchor="middle" x="81.5" y="-271.5" font-family="Helvetica,sans-Serif" font-size="10.00">ax25::BaseAX25StateMachine</text>
<polyline fill="none" stroke="black" points="0,-264.5 163,-264.5 "/>
<text text-anchor="middle" x="81.5" y="-252.5" font-family="Helvetica,sans-Serif" font-size="10.00"> </text>
<polyline fill="none" stroke="black" points="0,-245.5 163,-245.5 "/>
<text text-anchor="start" x="8" y="-233.5" font-family="Helvetica,sans-Serif" font-size="10.00">+ BaseAX25StateMachine()</text>
<text text-anchor="start" x="8" y="-222.5" font-family="Helvetica,sans-Serif" font-size="10.00"># generateSignal()</text>
<text text-anchor="start" x="8" y="-211.5" font-family="Helvetica,sans-Serif" font-size="10.00"># indicateError()</text>
<text text-anchor="start" x="8" y="-200.5" font-family="Helvetica,sans-Serif" font-size="10.00"># isSignalPresent()</text>
</a>
</g>
</g>
<!-- Node2&#45;&gt;Node1 -->
<g id="edge1" class="edge">
<title>Node2&#45;&gt;Node1</title>
<path fill="none" stroke="midnightblue" d="M118.88,-184.81C127.72,-172.35 137.3,-158.85 146.63,-145.7"/>
<polygon fill="none" stroke="midnightblue" points="115.82,-183.07 112.89,-193.25 121.53,-187.12 115.82,-183.07"/>
</g>
<!-- Node3 -->
<g id="node3" class="node">
<title>Node3</title>
<g id="a_node3"><a xlink:href="namespaceax25.html#structax25_1_1StateMachineData" target="_top" xlink:title="Data that is shared between the state machines.">
<polygon fill="none" stroke="black" points="13,-331.5 13,-388.5 150,-388.5 150,-331.5 13,-331.5"/>
<text text-anchor="middle" x="81.5" y="-376.5" font-family="Helvetica,sans-Serif" font-size="10.00">ax25::StateMachineData</text>
<polyline fill="none" stroke="black" points="13,-369.5 150,-369.5 "/>
<text text-anchor="middle" x="81.5" y="-357.5" font-family="Helvetica,sans-Serif" font-size="10.00"> </text>
<polyline fill="none" stroke="black" points="13,-350.5 150,-350.5 "/>
<text text-anchor="middle" x="81.5" y="-338.5" font-family="Helvetica,sans-Serif" font-size="10.00"> </text>
</a>
</g>
</g>
<!-- Node3&#45;&gt;Node2 -->
<g id="edge2" class="edge">
<title>Node3&#45;&gt;Node2</title>
<path fill="none" stroke="#404040" d="M81.5,-331.28C81.5,-320.73 81.5,-308.29 81.5,-296.03"/>
<polygon fill="none" stroke="#404040" points="81.5,-295.91 77.5,-289.91 81.5,-283.91 85.5,-289.91 81.5,-295.91"/>
<text text-anchor="middle" x="101" y="-305" font-family="Helvetica,sans-Serif" font-size="10.00"> #data_</text>
</g>
<!-- Node4 -->
<g id="node4" class="node">
<title>Node4</title>
<g id="a_node4"><a xlink:href="namespaceax25.html#structax25_1_1Timers" target="_top" xlink:title="Timers for the state machines. See 6.7 of the AX.25 2.2 specification.">
<polygon fill="none" stroke="black" points="41.5,-436.5 41.5,-515.5 121.5,-515.5 121.5,-436.5 41.5,-436.5"/>
<text text-anchor="middle" x="81.5" y="-503.5" font-family="Helvetica,sans-Serif" font-size="10.00">ax25::Timers</text>
<polyline fill="none" stroke="black" points="41.5,-496.5 121.5,-496.5 "/>
<text text-anchor="start" x="49.5" y="-484.5" font-family="Helvetica,sans-Serif" font-size="10.00">+ t2</text>
<text text-anchor="start" x="49.5" y="-473.5" font-family="Helvetica,sans-Serif" font-size="10.00">+ t3</text>
<text text-anchor="start" x="49.5" y="-462.5" font-family="Helvetica,sans-Serif" font-size="10.00">+ tr210</text>
<polyline fill="none" stroke="black" points="41.5,-455.5 121.5,-455.5 "/>
<text text-anchor="middle" x="81.5" y="-443.5" font-family="Helvetica,sans-Serif" font-size="10.00"> </text>
</a>
</g>
</g>
<!-- Node4&#45;&gt;Node3 -->
<g id="edge3" class="edge">
<title>Node4&#45;&gt;Node3</title>
<path fill="none" stroke="#404040" d="M81.5,-436.4C81.5,-424.93 81.5,-412.33 81.5,-400.78"/>
<polygon fill="none" stroke="#404040" points="81.5,-400.75 77.5,-394.75 81.5,-388.75 85.5,-394.75 81.5,-400.75"/>
<text text-anchor="middle" x="103" y="-410" font-family="Helvetica,sans-Serif" font-size="10.00"> +timers</text>
</g>
<!-- Node5 -->
<g id="node5" class="node">
<title>Node5</title>
<g id="a_node5"><a xlink:title=" ">
<polygon fill="none" stroke="#bfbfbf" points="59,-673.5 59,-730.5 104,-730.5 104,-673.5 59,-673.5"/>
<text text-anchor="middle" x="81.5" y="-718.5" font-family="Helvetica,sans-Serif" font-size="10.00">Timer</text>
<polyline fill="none" stroke="#bfbfbf" points="59,-711.5 104,-711.5 "/>
<text text-anchor="middle" x="81.5" y="-699.5" font-family="Helvetica,sans-Serif" font-size="10.00"> </text>
<polyline fill="none" stroke="#bfbfbf" points="59,-692.5 104,-692.5 "/>
<text text-anchor="middle" x="81.5" y="-680.5" font-family="Helvetica,sans-Serif" font-size="10.00"> </text>
</a>
</g>
</g>
<!-- Node5&#45;&gt;Node4 -->
<g id="edge4" class="edge">
<title>Node5&#45;&gt;Node4</title>
<path fill="none" stroke="#404040" d="M81.5,-673.08C81.5,-636.85 81.5,-572.95 81.5,-527.96"/>
<polygon fill="none" stroke="#404040" points="81.5,-527.81 77.5,-521.81 81.5,-515.81 85.5,-521.81 81.5,-527.81"/>
<text text-anchor="middle" x="97" y="-647" font-family="Helvetica,sans-Serif" font-size="10.00"> +t1</text>
<text text-anchor="middle" x="97" y="-636" font-family="Helvetica,sans-Serif" font-size="10.00">+t100</text>
<text text-anchor="middle" x="97" y="-625" font-family="Helvetica,sans-Serif" font-size="10.00">+t101</text>
<text text-anchor="middle" x="97" y="-614" font-family="Helvetica,sans-Serif" font-size="10.00">+t102</text>
<text text-anchor="middle" x="97" y="-603" font-family="Helvetica,sans-Serif" font-size="10.00">+t103</text>
<text text-anchor="middle" x="97" y="-592" font-family="Helvetica,sans-Serif" font-size="10.00">+t104</text>
<text text-anchor="middle" x="97" y="-581" font-family="Helvetica,sans-Serif" font-size="10.00">+t105</text>
<text text-anchor="middle" x="97" y="-570" font-family="Helvetica,sans-Serif" font-size="10.00">+t106</text>
<text text-anchor="middle" x="97" y="-559" font-family="Helvetica,sans-Serif" font-size="10.00">+t107</text>
<text text-anchor="middle" x="97" y="-548" font-family="Helvetica,sans-Serif" font-size="10.00">+t108</text>
<text text-anchor="middle" x="97" y="-537" font-family="Helvetica,sans-Serif" font-size="10.00">...</text>
</g>
<!-- Node6 -->
<g id="node6" class="node">
<title>Node6</title>
<g id="a_node6"><a xlink:title=" ">
<polygon fill="none" stroke="#bfbfbf" points="181,-210 181,-267 292,-267 292,-210 181,-210"/>
<text text-anchor="middle" x="236.5" y="-255" font-family="Helvetica,sans-Serif" font-size="10.00">ReassemblerStates</text>
<polyline fill="none" stroke="#bfbfbf" points="181,-248 292,-248 "/>
<text text-anchor="middle" x="236.5" y="-236" font-family="Helvetica,sans-Serif" font-size="10.00"> </text>
<polyline fill="none" stroke="#bfbfbf" points="181,-229 292,-229 "/>
<text text-anchor="middle" x="236.5" y="-217" font-family="Helvetica,sans-Serif" font-size="10.00"> </text>
</a>
</g>
</g>
<!-- Node6&#45;&gt;Node1 -->
<g id="edge5" class="edge">
<title>Node6&#45;&gt;Node1</title>
<path fill="none" stroke="#404040" d="M229.88,-209.76C226.39,-195.13 221.9,-176.31 217.39,-157.37"/>
<polygon fill="none" stroke="#404040" points="217.36,-157.28 212.08,-152.37 214.58,-145.61 219.86,-150.51 217.36,-157.28"/>
<text text-anchor="middle" x="238" y="-167" font-family="Helvetica,sans-Serif" font-size="10.00"> &#45;state_</text>
</g>
</g>
</svg>
