<?xml version="1.0" encoding="UTF-8" standalone="no"?>
<!DOCTYPE svg PUBLIC "-//W3C//DTD SVG 1.1//EN"
 "http://www.w3.org/Graphics/SVG/1.1/DTD/svg11.dtd">
<!-- Generated by graphviz version 2.43.0 (0)
 -->
<!-- Title: giraffe::gdl::Config::setAprsTelemetryDataIntervalMs Pages: 1 -->
<svg width="674pt" height="39pt"
 viewBox="0.00 0.00 674.00 39.00" xmlns="http://www.w3.org/2000/svg" xmlns:xlink="http://www.w3.org/1999/xlink">
<g id="graph0" class="graph" transform="scale(1 1) rotate(0) translate(4 35)">
<title>giraffe::gdl::Config::setAprsTelemetryDataIntervalMs</title>
<!-- Node1 -->
<g id="node1" class="node">
<title>Node1</title>
<g id="a_node1"><a xlink:title=" ">
<polygon fill="#bfbfbf" stroke="black" points="483,-0.5 483,-30.5 666,-30.5 666,-0.5 483,-0.5"/>
<text text-anchor="start" x="491" y="-18.5" font-family="Helvetica,sans-Serif" font-size="10.00">giraffe::gdl::Config</text>
<text text-anchor="middle" x="574.5" y="-7.5" font-family="Helvetica,sans-Serif" font-size="10.00">::setAprsTelemetryDataIntervalMs</text>
</a>
</g>
</g>
<!-- Node2 -->
<g id="node2" class="node">
<title>Node2</title>
<g id="a_node2"><a xlink:href="classgiraffe_1_1AprsManager.html#a6a162f30ddbbc37c18265dd9b9c56072" target="_top" xlink:title="Initializes the APRS Telemetry data from the configuration.">
<polygon fill="none" stroke="black" points="310,-0.5 310,-30.5 447,-30.5 447,-0.5 310,-0.5"/>
<text text-anchor="start" x="318" y="-18.5" font-family="Helvetica,sans-Serif" font-size="10.00">giraffe::AprsManager</text>
<text text-anchor="middle" x="378.5" y="-7.5" font-family="Helvetica,sans-Serif" font-size="10.00">::initializeTelemetryData</text>
</a>
</g>
</g>
<!-- Node1&#45;&gt;Node2 -->
<g id="edge1" class="edge">
<title>Node1&#45;&gt;Node2</title>
<path fill="none" stroke="midnightblue" d="M472.58,-15.5C463.93,-15.5 455.31,-15.5 447.01,-15.5"/>
<polygon fill="midnightblue" stroke="midnightblue" points="472.75,-19 482.75,-15.5 472.75,-12 472.75,-19"/>
</g>
<!-- Node3 -->
<g id="node3" class="node">
<title>Node3</title>
<g id="a_node3"><a xlink:href="classgiraffe_1_1AprsManager.html#a733faf5f8cb193988e799bbbfc721173" target="_top" xlink:title="Force a configuration reload.">
<polygon fill="none" stroke="black" points="155,-0.5 155,-30.5 274,-30.5 274,-0.5 155,-0.5"/>
<text text-anchor="start" x="163" y="-18.5" font-family="Helvetica,sans-Serif" font-size="10.00">giraffe::AprsManager</text>
<text text-anchor="middle" x="214.5" y="-7.5" font-family="Helvetica,sans-Serif" font-size="10.00">::loadConfiguration</text>
</a>
</g>
</g>
<!-- Node2&#45;&gt;Node3 -->
<g id="edge2" class="edge">
<title>Node2&#45;&gt;Node3</title>
<path fill="none" stroke="midnightblue" d="M299.72,-15.5C291.15,-15.5 282.53,-15.5 274.24,-15.5"/>
<polygon fill="midnightblue" stroke="midnightblue" points="299.74,-19 309.74,-15.5 299.74,-12 299.74,-19"/>
</g>
<!-- Node4 -->
<g id="node4" class="node">
<title>Node4</title>
<g id="a_node4"><a xlink:href="classgiraffe_1_1AprsManager.html#ae1043caeea2da6d4da54c9af887dad3a" target="_top" xlink:title="Constructor.">
<polygon fill="none" stroke="black" points="0,-0.5 0,-30.5 119,-30.5 119,-0.5 0,-0.5"/>
<text text-anchor="start" x="8" y="-18.5" font-family="Helvetica,sans-Serif" font-size="10.00">giraffe::AprsManager</text>
<text text-anchor="middle" x="59.5" y="-7.5" font-family="Helvetica,sans-Serif" font-size="10.00">::AprsManager</text>
</a>
</g>
</g>
<!-- Node3&#45;&gt;Node4 -->
<g id="edge3" class="edge">
<title>Node3&#45;&gt;Node4</title>
<path fill="none" stroke="midnightblue" d="M144.51,-15.5C136.01,-15.5 127.38,-15.5 119.06,-15.5"/>
<polygon fill="midnightblue" stroke="midnightblue" points="144.78,-19 154.78,-15.5 144.78,-12 144.78,-19"/>
</g>
</g>
</svg>
