<?xml version="1.0" encoding="UTF-8" standalone="no"?>
<!DOCTYPE svg PUBLIC "-//W3C//DTD SVG 1.1//EN"
 "http://www.w3.org/Graphics/SVG/1.1/DTD/svg11.dtd">
<!-- Generated by graphviz version 2.43.0 (0)
 -->
<!-- Title: giraffe::gdl::AprsTelemetrySender::update Pages: 1 -->
<svg width="598pt" height="259pt"
 viewBox="0.00 0.00 598.00 259.00" xmlns="http://www.w3.org/2000/svg" xmlns:xlink="http://www.w3.org/1999/xlink">
<g id="graph0" class="graph" transform="scale(1 1) rotate(0) translate(4 255)">
<title>giraffe::gdl::AprsTelemetrySender::update</title>
<!-- Node1 -->
<g id="node1" class="node">
<title>Node1</title>
<g id="a_node1"><a xlink:title="Periodic update function for the telemetry sender.">
<polygon fill="#bfbfbf" stroke="black" points="0,-122.5 0,-152.5 146,-152.5 146,-122.5 0,-122.5"/>
<text text-anchor="start" x="8" y="-140.5" font-family="Helvetica,sans-Serif" font-size="10.00">giraffe::gdl::AprsTelemetry</text>
<text text-anchor="middle" x="73" y="-129.5" font-family="Helvetica,sans-Serif" font-size="10.00">Sender::update</text>
</a>
</g>
</g>
<!-- Node2 -->
<g id="node2" class="node">
<title>Node2</title>
<g id="a_node2"><a xlink:href="classgiraffe_1_1gdl_1_1Config.html#a9815875b0219bea6fc2ef01cd639d92d" target="_top" xlink:title=" ">
<polygon fill="none" stroke="black" points="186.5,-220.5 186.5,-250.5 370.5,-250.5 370.5,-220.5 186.5,-220.5"/>
<text text-anchor="start" x="194.5" y="-238.5" font-family="Helvetica,sans-Serif" font-size="10.00">giraffe::gdl::Config</text>
<text text-anchor="middle" x="278.5" y="-227.5" font-family="Helvetica,sans-Serif" font-size="10.00">::getAprsTelemetryDataIntervalMs</text>
</a>
</g>
</g>
<!-- Node1&#45;&gt;Node2 -->
<g id="edge1" class="edge">
<title>Node1&#45;&gt;Node2</title>
<path fill="none" stroke="midnightblue" d="M91.91,-152.76C112.4,-169.48 147.6,-196 182,-211.5 186.61,-213.58 191.42,-215.49 196.34,-217.26"/>
<polygon fill="midnightblue" stroke="midnightblue" points="195.29,-220.6 205.88,-220.47 197.52,-213.97 195.29,-220.6"/>
</g>
<!-- Node3 -->
<g id="node3" class="node">
<title>Node3</title>
<g id="a_node3"><a xlink:href="classgiraffe_1_1gdl_1_1AprsTelemetrySender.html#ab45d9e228345e21a5c73c9fd5326c565" target="_top" xlink:title="Get the next sequence number for the telemetry data packet.">
<polygon fill="none" stroke="black" points="187.5,-171.5 187.5,-201.5 369.5,-201.5 369.5,-171.5 187.5,-171.5"/>
<text text-anchor="start" x="195.5" y="-189.5" font-family="Helvetica,sans-Serif" font-size="10.00">giraffe::gdl::AprsTelemetry</text>
<text text-anchor="middle" x="278.5" y="-178.5" font-family="Helvetica,sans-Serif" font-size="10.00">Sender::getNextSequenceNumber</text>
</a>
</g>
</g>
<!-- Node1&#45;&gt;Node3 -->
<g id="edge2" class="edge">
<title>Node1&#45;&gt;Node3</title>
<path fill="none" stroke="midnightblue" d="M136.44,-152.53C158.22,-157.78 182.84,-163.71 205.34,-169.13"/>
<polygon fill="midnightblue" stroke="midnightblue" points="204.64,-172.56 215.18,-171.49 206.28,-165.75 204.64,-172.56"/>
</g>
<!-- Node4 -->
<g id="node4" class="node">
<title>Node4</title>
<g id="a_node4"><a xlink:href="classgiraffe_1_1gdl_1_1Config.html#ae73eb03f8e513787154829d5fe228044" target="_top" xlink:title=" ">
<polygon fill="none" stroke="black" points="191.5,-122.5 191.5,-152.5 365.5,-152.5 365.5,-122.5 191.5,-122.5"/>
<text text-anchor="start" x="199.5" y="-140.5" font-family="Helvetica,sans-Serif" font-size="10.00">giraffe::gdl::Config</text>
<text text-anchor="middle" x="278.5" y="-129.5" font-family="Helvetica,sans-Serif" font-size="10.00">::isAprsTelemetrySenderEnabled</text>
</a>
</g>
</g>
<!-- Node1&#45;&gt;Node4 -->
<g id="edge3" class="edge">
<title>Node1&#45;&gt;Node4</title>
<path fill="none" stroke="midnightblue" d="M146.03,-137.5C157.35,-137.5 169.21,-137.5 180.97,-137.5"/>
<polygon fill="midnightblue" stroke="midnightblue" points="181.27,-141 191.27,-137.5 181.27,-134 181.27,-141"/>
</g>
<!-- Node5 -->
<g id="node5" class="node">
<title>Node5</title>
<g id="a_node5"><a xlink:href="classgiraffe_1_1gdl_1_1AprsTelemetrySender.html#a3eaeb0cbef0a945f85a45af4067d698d" target="_top" xlink:title="Handles sending telemetry metadata. Implemented with a simple state machine.">
<polygon fill="none" stroke="black" points="182,-73.5 182,-103.5 375,-103.5 375,-73.5 182,-73.5"/>
<text text-anchor="start" x="190" y="-91.5" font-family="Helvetica,sans-Serif" font-size="10.00">giraffe::gdl::AprsTelemetry</text>
<text text-anchor="middle" x="278.5" y="-80.5" font-family="Helvetica,sans-Serif" font-size="10.00">Sender::sendMetadataStateMachine</text>
</a>
</g>
</g>
<!-- Node1&#45;&gt;Node5 -->
<g id="edge4" class="edge">
<title>Node1&#45;&gt;Node5</title>
<path fill="none" stroke="midnightblue" d="M136.44,-122.47C158.22,-117.22 182.84,-111.29 205.34,-105.87"/>
<polygon fill="midnightblue" stroke="midnightblue" points="206.28,-109.25 215.18,-103.51 204.64,-102.44 206.28,-109.25"/>
</g>
<!-- Node10 -->
<g id="node10" class="node">
<title>Node10</title>
<g id="a_node10"><a xlink:href="classgiraffe_1_1gdl_1_1IDataLink.html#ae55590210910b6ff0fd434880c72690f" target="_top" xlink:title=" ">
<polygon fill="none" stroke="black" points="217.5,-24.5 217.5,-54.5 339.5,-54.5 339.5,-24.5 217.5,-24.5"/>
<text text-anchor="start" x="225.5" y="-42.5" font-family="Helvetica,sans-Serif" font-size="10.00">giraffe::gdl::IDataLink</text>
<text text-anchor="middle" x="278.5" y="-31.5" font-family="Helvetica,sans-Serif" font-size="10.00">::sendTelemetryData</text>
</a>
</g>
</g>
<!-- Node1&#45;&gt;Node10 -->
<g id="edge9" class="edge">
<title>Node1&#45;&gt;Node10</title>
<path fill="none" stroke="midnightblue" d="M92.34,-122.22C112.95,-105.78 147.98,-79.9 182,-64.5 190.05,-60.85 198.74,-57.66 207.48,-54.89"/>
<polygon fill="midnightblue" stroke="midnightblue" points="208.76,-58.16 217.33,-51.93 206.75,-51.45 208.76,-58.16"/>
</g>
<!-- Node6 -->
<g id="node6" class="node">
<title>Node6</title>
<g id="a_node6"><a xlink:href="classgiraffe_1_1gdl_1_1IDataLink.html#af8cf0ced48d9bfac0ccfa62ec8f97851" target="_top" xlink:title=" ">
<polygon fill="none" stroke="black" points="432,-147.5 432,-177.5 569,-177.5 569,-147.5 432,-147.5"/>
<text text-anchor="start" x="440" y="-165.5" font-family="Helvetica,sans-Serif" font-size="10.00">giraffe::gdl::IDataLink</text>
<text text-anchor="middle" x="500.5" y="-154.5" font-family="Helvetica,sans-Serif" font-size="10.00">::sendTelemetryBitSense</text>
</a>
</g>
</g>
<!-- Node5&#45;&gt;Node6 -->
<g id="edge5" class="edge">
<title>Node5&#45;&gt;Node6</title>
<path fill="none" stroke="midnightblue" d="M348.85,-103.56C357.82,-106.4 366.75,-109.7 375,-113.5 392.69,-121.65 393.34,-130.28 411,-138.5 415.28,-140.5 419.76,-142.35 424.34,-144.07"/>
<polygon fill="midnightblue" stroke="midnightblue" points="423.23,-147.39 433.83,-147.42 425.56,-140.79 423.23,-147.39"/>
</g>
<!-- Node7 -->
<g id="node7" class="node">
<title>Node7</title>
<g id="a_node7"><a xlink:href="classgiraffe_1_1gdl_1_1IDataLink.html#ab6e2dd57089b03593b35f45e0e793944" target="_top" xlink:title=" ">
<polygon fill="none" stroke="black" points="424.5,-98.5 424.5,-128.5 576.5,-128.5 576.5,-98.5 424.5,-98.5"/>
<text text-anchor="start" x="432.5" y="-116.5" font-family="Helvetica,sans-Serif" font-size="10.00">giraffe::gdl::IDataLink</text>
<text text-anchor="middle" x="500.5" y="-105.5" font-family="Helvetica,sans-Serif" font-size="10.00">::sendTelemetryCoefficients</text>
</a>
</g>
</g>
<!-- Node5&#45;&gt;Node7 -->
<g id="edge6" class="edge">
<title>Node5&#45;&gt;Node7</title>
<path fill="none" stroke="midnightblue" d="M375.04,-99.36C388.03,-100.83 401.3,-102.34 414.09,-103.79"/>
<polygon fill="midnightblue" stroke="midnightblue" points="413.91,-107.3 424.24,-104.95 414.7,-100.34 413.91,-107.3"/>
</g>
<!-- Node8 -->
<g id="node8" class="node">
<title>Node8</title>
<g id="a_node8"><a xlink:href="classgiraffe_1_1gdl_1_1IDataLink.html#a0c8e773bdc5042576a072965e5a14f58" target="_top" xlink:title=" ">
<polygon fill="none" stroke="black" points="411,-49.5 411,-79.5 590,-79.5 590,-49.5 411,-49.5"/>
<text text-anchor="start" x="419" y="-67.5" font-family="Helvetica,sans-Serif" font-size="10.00">giraffe::gdl::IDataLink</text>
<text text-anchor="middle" x="500.5" y="-56.5" font-family="Helvetica,sans-Serif" font-size="10.00">::sendTelemetryParameterNames</text>
</a>
</g>
</g>
<!-- Node5&#45;&gt;Node8 -->
<g id="edge7" class="edge">
<title>Node5&#45;&gt;Node8</title>
<path fill="none" stroke="midnightblue" d="M375.04,-78.08C383.62,-77.14 392.32,-76.19 400.93,-75.25"/>
<polygon fill="midnightblue" stroke="midnightblue" points="401.42,-78.72 410.99,-74.16 400.66,-71.76 401.42,-78.72"/>
</g>
<!-- Node9 -->
<g id="node9" class="node">
<title>Node9</title>
<g id="a_node9"><a xlink:href="classgiraffe_1_1gdl_1_1IDataLink.html#acf2248a3fda82da2156b1d244b9247de" target="_top" xlink:title=" ">
<polygon fill="none" stroke="black" points="415.5,-0.5 415.5,-30.5 585.5,-30.5 585.5,-0.5 415.5,-0.5"/>
<text text-anchor="start" x="423.5" y="-18.5" font-family="Helvetica,sans-Serif" font-size="10.00">giraffe::gdl::IDataLink</text>
<text text-anchor="middle" x="500.5" y="-7.5" font-family="Helvetica,sans-Serif" font-size="10.00">::sendTelemetryUnitsAndLabels</text>
</a>
</g>
</g>
<!-- Node5&#45;&gt;Node9 -->
<g id="edge8" class="edge">
<title>Node5&#45;&gt;Node9</title>
<path fill="none" stroke="midnightblue" d="M350.82,-73.46C359.12,-70.87 367.34,-67.89 375,-64.5 392.58,-56.71 393.53,-48.55 411,-40.5 416.2,-38.1 421.68,-35.89 427.27,-33.85"/>
<polygon fill="midnightblue" stroke="midnightblue" points="428.41,-37.16 436.72,-30.59 426.13,-30.54 428.41,-37.16"/>
</g>
</g>
</svg>
