<?xml version="1.0" encoding="UTF-8" standalone="no"?>
<!DOCTYPE svg PUBLIC "-//W3C//DTD SVG 1.1//EN"
 "http://www.w3.org/Graphics/SVG/1.1/DTD/svg11.dtd">
<!-- Generated by graphviz version 2.43.0 (0)
 -->
<!-- Title: cfg::AdcMappings::doesLabelExist Pages: 1 -->
<svg width="371pt" height="76pt"
 viewBox="0.00 0.00 371.00 75.50" xmlns="http://www.w3.org/2000/svg" xmlns:xlink="http://www.w3.org/1999/xlink">
<g id="graph0" class="graph" transform="scale(1 1) rotate(0) translate(4 71.5)">
<title>cfg::AdcMappings::doesLabelExist</title>
<!-- Node1 -->
<g id="Node000001" class="node">
<title>Node1</title>
<g id="a_Node000001"><a xlink:title=" ">
<polygon fill="#999999" stroke="#666666" points="363,-45.5 205,-45.5 205,-15.5 363,-15.5 363,-45.5"/>
<text text-anchor="start" x="213" y="-33.5" font-family="Helvetica,sans-Serif" font-size="10.00">cfg::AdcMappings::doesLabel</text>
<text text-anchor="middle" x="284" y="-22.5" font-family="Helvetica,sans-Serif" font-size="10.00">Exist</text>
</a>
</g>
</g>
<!-- Node2 -->
<g id="Node000002" class="node">
<title>Node2</title>
<g id="a_Node000002"><a xlink:href="classcfg_1_1AdcMappings.html#a50978d833ec6672505f87b17c140f483" target="_top" xlink:title=" ">
<polygon fill="white" stroke="#666666" points="157,-67.5 12,-67.5 12,-37.5 157,-37.5 157,-67.5"/>
<text text-anchor="start" x="20" y="-55.5" font-family="Helvetica,sans-Serif" font-size="10.00">cfg::AdcMappings::addAdc</text>
<text text-anchor="middle" x="84.5" y="-44.5" font-family="Helvetica,sans-Serif" font-size="10.00">Config</text>
</a>
</g>
</g>
<!-- Node1&#45;&gt;Node2 -->
<g id="edge1_Node000001_Node000002" class="edge">
<title>Node1&#45;&gt;Node2</title>
<g id="a_edge1_Node000001_Node000002"><a xlink:title=" ">
<path fill="none" stroke="#63b8ff" d="M194.9,-40.31C182.29,-41.72 169.45,-43.15 157.21,-44.51"/>
<polygon fill="#63b8ff" stroke="#63b8ff" points="195.39,-43.78 204.94,-39.19 194.62,-36.82 195.39,-43.78"/>
</a>
</g>
</g>
<!-- Node3 -->
<g id="Node000003" class="node">
<title>Node3</title>
<g id="a_Node000003"><a xlink:href="classcfg_1_1AdcMappings.html#a45d9c766a012ea127e8612d262e720ac" target="_top" xlink:title=" ">
<polygon fill="white" stroke="#666666" points="169,-19 0,-19 0,0 169,0 169,-19"/>
<text text-anchor="middle" x="84.5" y="-7" font-family="Helvetica,sans-Serif" font-size="10.00">cfg::AdcMappings::setFromJson</text>
</a>
</g>
</g>
<!-- Node1&#45;&gt;Node3 -->
<g id="edge2_Node000001_Node000003" class="edge">
<title>Node1&#45;&gt;Node3</title>
<g id="a_edge2_Node000001_Node000003"><a xlink:title=" ">
<path fill="none" stroke="#63b8ff" d="M194.95,-21.14C186.37,-20.23 177.69,-19.3 169.16,-18.4"/>
<polygon fill="#63b8ff" stroke="#63b8ff" points="194.63,-24.62 204.94,-22.2 195.37,-17.66 194.63,-24.62"/>
</a>
</g>
</g>
</g>
</svg>
