<?xml version="1.0" encoding="UTF-8" standalone="no"?>
<!DOCTYPE svg PUBLIC "-//W3C//DTD SVG 1.1//EN"
 "http://www.w3.org/Graphics/SVG/1.1/DTD/svg11.dtd">
<!-- Generated by graphviz version 2.43.0 (0)
 -->
<!-- Title: giraffe::gdl::IDataLink::updateTelemetryData Pages: 1 -->
<svg width="644pt" height="38pt"
 viewBox="0.00 0.00 644.00 38.00" xmlns="http://www.w3.org/2000/svg" xmlns:xlink="http://www.w3.org/1999/xlink">
<g id="graph0" class="graph" transform="scale(1 1) rotate(0) translate(4 34)">
<title>giraffe::gdl::IDataLink::updateTelemetryData</title>
<!-- Node1 -->
<g id="Node000001" class="node">
<title>Node1</title>
<g id="a_Node000001"><a xlink:title=" ">
<polygon fill="#999999" stroke="#666666" points="636,-30 508,-30 508,0 636,0 636,-30"/>
<text text-anchor="start" x="516" y="-18" font-family="Helvetica,sans-Serif" font-size="10.00">giraffe::gdl::IDataLink</text>
<text text-anchor="middle" x="572" y="-7" font-family="Helvetica,sans-Serif" font-size="10.00">::updateTelemetryData</text>
</a>
</g>
</g>
<!-- Node2 -->
<g id="Node000002" class="node">
<title>Node2</title>
<g id="a_Node000002"><a xlink:href="classgiraffe_1_1AprsManager.html#aa910a687bb93c714489245c032af2c38" target="_top" xlink:title=" ">
<polygon fill="white" stroke="#666666" points="472,-30 344,-30 344,0 472,0 472,-30"/>
<text text-anchor="start" x="352" y="-18" font-family="Helvetica,sans-Serif" font-size="10.00">giraffe::AprsManager</text>
<text text-anchor="middle" x="408" y="-7" font-family="Helvetica,sans-Serif" font-size="10.00">::updateTelemetryData</text>
</a>
</g>
</g>
<!-- Node1&#45;&gt;Node2 -->
<g id="edge1_Node000001_Node000002" class="edge">
<title>Node1&#45;&gt;Node2</title>
<g id="a_edge1_Node000001_Node000002"><a xlink:title=" ">
<path fill="none" stroke="#63b8ff" d="M497.63,-15C489.14,-15 480.53,-15 472.19,-15"/>
<polygon fill="#63b8ff" stroke="#63b8ff" points="497.9,-18.5 507.9,-15 497.9,-11.5 497.9,-18.5"/>
</a>
</g>
</g>
<!-- Node3 -->
<g id="Node000003" class="node">
<title>Node3</title>
<g id="a_Node000003"><a xlink:href="classgiraffe_1_1AprsManager.html#a1218355c0bb8c0097a69c85642da8953" target="_top" xlink:title="This method handles everything that needs to be done. It must be called at least at the rate of the c...">
<polygon fill="white" stroke="#666666" points="308,-30 189,-30 189,0 308,0 308,-30"/>
<text text-anchor="start" x="197" y="-18" font-family="Helvetica,sans-Serif" font-size="10.00">giraffe::AprsManager</text>
<text text-anchor="middle" x="248.5" y="-7" font-family="Helvetica,sans-Serif" font-size="10.00">::update</text>
</a>
</g>
</g>
<!-- Node2&#45;&gt;Node3 -->
<g id="edge2_Node000002_Node000003" class="edge">
<title>Node2&#45;&gt;Node3</title>
<g id="a_edge2_Node000002_Node000003"><a xlink:title=" ">
<path fill="none" stroke="#63b8ff" d="M333.79,-15C325.17,-15 316.46,-15 308.07,-15"/>
<polygon fill="#63b8ff" stroke="#63b8ff" points="333.85,-18.5 343.85,-15 333.85,-11.5 333.85,-18.5"/>
</a>
</g>
</g>
<!-- Node4 -->
<g id="Node000004" class="node">
<title>Node4</title>
<g id="a_Node000004"><a xlink:href="classAprsTelemetryDataManagerTest.html#a392cac52bd5ed842d7f3b037122f2049" target="_top" xlink:title=" ">
<polygon fill="white" stroke="#666666" points="153,-30 0,-30 0,0 153,0 153,-30"/>
<text text-anchor="start" x="8" y="-18" font-family="Helvetica,sans-Serif" font-size="10.00">AprsTelemetryDataManager</text>
<text text-anchor="middle" x="76.5" y="-7" font-family="Helvetica,sans-Serif" font-size="10.00">Test::causeDataUpdate</text>
</a>
</g>
</g>
<!-- Node3&#45;&gt;Node4 -->
<g id="edge3_Node000003_Node000004" class="edge">
<title>Node3&#45;&gt;Node4</title>
<g id="a_edge3_Node000003_Node000004"><a xlink:title=" ">
<path fill="none" stroke="#63b8ff" d="M178.84,-15C170.41,-15 161.75,-15 153.22,-15"/>
<polygon fill="#63b8ff" stroke="#63b8ff" points="179,-18.5 189,-15 179,-11.5 179,-18.5"/>
</a>
</g>
</g>
</g>
</svg>
