<?xml version="1.0" encoding="UTF-8" standalone="no"?>
<!DOCTYPE svg PUBLIC "-//W3C//DTD SVG 1.1//EN"
 "http://www.w3.org/Graphics/SVG/1.1/DTD/svg11.dtd">
<!-- Generated by graphviz version 2.43.0 (0)
 -->
<!-- Title: gfs_sim::GfsSimulator::stateLanding Pages: 1 -->
<svg width="714pt" height="39pt"
 viewBox="0.00 0.00 714.00 39.00" xmlns="http://www.w3.org/2000/svg" xmlns:xlink="http://www.w3.org/1999/xlink">
<g id="graph0" class="graph" transform="scale(1 1) rotate(0) translate(4 35)">
<title>gfs_sim::GfsSimulator::stateLanding</title>
<!-- Node1 -->
<g id="node1" class="node">
<title>Node1</title>
<g id="a_node1"><a xlink:title=" ">
<polygon fill="#bfbfbf" stroke="black" points="581,-0.5 581,-30.5 706,-30.5 706,-0.5 581,-0.5"/>
<text text-anchor="start" x="589" y="-18.5" font-family="Helvetica,sans-Serif" font-size="10.00">gfs_sim::GfsSimulator</text>
<text text-anchor="middle" x="643.5" y="-7.5" font-family="Helvetica,sans-Serif" font-size="10.00">::stateLanding</text>
</a>
</g>
</g>
<!-- Node2 -->
<g id="node2" class="node">
<title>Node2</title>
<g id="a_node2"><a xlink:href="classgfs__sim_1_1GfsSimulator.html#ac29a56aba288ef2a5aa96885c8826ffb" target="_top" xlink:title=" ">
<polygon fill="none" stroke="black" points="420,-0.5 420,-30.5 545,-30.5 545,-0.5 420,-0.5"/>
<text text-anchor="start" x="428" y="-18.5" font-family="Helvetica,sans-Serif" font-size="10.00">gfs_sim::GfsSimulator</text>
<text text-anchor="middle" x="482.5" y="-7.5" font-family="Helvetica,sans-Serif" font-size="10.00">::stateMachine</text>
</a>
</g>
</g>
<!-- Node1&#45;&gt;Node2 -->
<g id="edge1" class="edge">
<title>Node1&#45;&gt;Node2</title>
<path fill="none" stroke="midnightblue" d="M570.41,-15.5C562.01,-15.5 553.5,-15.5 545.26,-15.5"/>
<polygon fill="midnightblue" stroke="midnightblue" points="570.57,-19 580.57,-15.5 570.57,-12 570.57,-19"/>
</g>
<!-- Node3 -->
<g id="node3" class="node">
<title>Node3</title>
<g id="a_node3"><a xlink:href="classgfs__sim_1_1GfsSimulator.html#ada138779165690488655ea0856e38d40" target="_top" xlink:title=" ">
<polygon fill="none" stroke="black" points="238,-6 238,-25 384,-25 384,-6 238,-6"/>
<text text-anchor="middle" x="311" y="-13" font-family="Helvetica,sans-Serif" font-size="10.00">gfs_sim::GfsSimulator::run</text>
</a>
</g>
</g>
<!-- Node2&#45;&gt;Node3 -->
<g id="edge2" class="edge">
<title>Node2&#45;&gt;Node3</title>
<path fill="none" stroke="midnightblue" d="M409.68,-15.5C401.27,-15.5 392.69,-15.5 384.28,-15.5"/>
<polygon fill="midnightblue" stroke="midnightblue" points="409.83,-19 419.83,-15.5 409.83,-12 409.83,-19"/>
</g>
<!-- Node4 -->
<g id="node4" class="node">
<title>Node4</title>
<g id="a_node4"><a xlink:href="classgfs__sim_1_1GfsSimulator.html#ad1380276142d2172f5516d481b2a365a" target="_top" xlink:title=" ">
<polygon fill="none" stroke="black" points="77,-0.5 77,-30.5 202,-30.5 202,-0.5 77,-0.5"/>
<text text-anchor="start" x="85" y="-18.5" font-family="Helvetica,sans-Serif" font-size="10.00">gfs_sim::GfsSimulator</text>
<text text-anchor="middle" x="139.5" y="-7.5" font-family="Helvetica,sans-Serif" font-size="10.00">::start</text>
</a>
</g>
</g>
<!-- Node3&#45;&gt;Node4 -->
<g id="edge3" class="edge">
<title>Node3&#45;&gt;Node4</title>
<path fill="none" stroke="midnightblue" d="M227.62,-15.5C219.07,-15.5 210.49,-15.5 202.22,-15.5"/>
<polygon fill="midnightblue" stroke="midnightblue" points="227.63,-19 237.63,-15.5 227.63,-12 227.63,-19"/>
</g>
<!-- Node5 -->
<g id="node5" class="node">
<title>Node5</title>
<g id="a_node5"><a xlink:href="tests_2simulator_2main_8cpp.html#ae66f6b31b5ad750f1fe042a706a4e3d4" target="_top" xlink:title=" ">
<polygon fill="none" stroke="black" points="0,-6 0,-25 41,-25 41,-6 0,-6"/>
<text text-anchor="middle" x="20.5" y="-13" font-family="Helvetica,sans-Serif" font-size="10.00">main</text>
</a>
</g>
</g>
<!-- Node4&#45;&gt;Node5 -->
<g id="edge4" class="edge">
<title>Node4&#45;&gt;Node5</title>
<path fill="none" stroke="midnightblue" d="M66.65,-15.5C57.33,-15.5 48.48,-15.5 41.12,-15.5"/>
<polygon fill="midnightblue" stroke="midnightblue" points="66.92,-19 76.92,-15.5 66.92,-12 66.92,-19"/>
</g>
</g>
</svg>
