<?xml version="1.0" encoding="UTF-8" standalone="no"?>
<!DOCTYPE svg PUBLIC "-//W3C//DTD SVG 1.1//EN"
 "http://www.w3.org/Graphics/SVG/1.1/DTD/svg11.dtd">
<!-- Generated by graphviz version 2.43.0 (0)
 -->
<!-- Title: bit::BuiltInTest::bitTestRunner Pages: 1 -->
<svg width="476pt" height="86pt"
 viewBox="0.00 0.00 476.00 86.00" xmlns="http://www.w3.org/2000/svg" xmlns:xlink="http://www.w3.org/1999/xlink">
<g id="graph0" class="graph" transform="scale(1 1) rotate(0) translate(4 82)">
<title>bit::BuiltInTest::bitTestRunner</title>
<!-- Node1 -->
<g id="Node000001" class="node">
<title>Node1</title>
<g id="a_Node000001"><a xlink:title=" ">
<polygon fill="#999999" stroke="#666666" points="125,-54 0,-54 0,-24 125,-24 125,-54"/>
<text text-anchor="start" x="8" y="-42" font-family="Helvetica,sans-Serif" font-size="10.00">bit::BuiltInTest::bitTest</text>
<text text-anchor="middle" x="62.5" y="-31" font-family="Helvetica,sans-Serif" font-size="10.00">Runner</text>
</a>
</g>
</g>
<!-- Node2 -->
<g id="Node000002" class="node">
<title>Node2</title>
<g id="a_Node000002"><a xlink:href="classbit_1_1BuiltInTest.html#a5b74cbccfb47539b32796b03598403e3" target="_top" xlink:title=" ">
<polygon fill="white" stroke="#666666" points="287,-54 161,-54 161,-24 287,-24 287,-54"/>
<text text-anchor="start" x="169" y="-42" font-family="Helvetica,sans-Serif" font-size="10.00">bit::BuiltInTest::update</text>
<text text-anchor="middle" x="224" y="-31" font-family="Helvetica,sans-Serif" font-size="10.00">BitTestData</text>
</a>
</g>
</g>
<!-- Node1&#45;&gt;Node2 -->
<g id="edge1_Node000001_Node000002" class="edge">
<title>Node1&#45;&gt;Node2</title>
<g id="a_edge1_Node000001_Node000002"><a xlink:title=" ">
<path fill="none" stroke="#63b8ff" d="M125.17,-39C133.61,-39 142.34,-39 150.95,-39"/>
<polygon fill="#63b8ff" stroke="#63b8ff" points="150.97,-42.5 160.97,-39 150.97,-35.5 150.97,-42.5"/>
</a>
</g>
</g>
<!-- Node3 -->
<g id="Node000003" class="node">
<title>Node3</title>
<g id="a_Node000003"><a xlink:href="classdata_1_1FlightData.html#a66c0ae403e8e6959292ee73dbd2ea34d" target="_top" xlink:title="Get the current flight phase.">
<polygon fill="white" stroke="#666666" points="468,-78 323,-78 323,-48 468,-48 468,-78"/>
<text text-anchor="start" x="331" y="-66" font-family="Helvetica,sans-Serif" font-size="10.00">data::FlightData::getFlight</text>
<text text-anchor="middle" x="395.5" y="-55" font-family="Helvetica,sans-Serif" font-size="10.00">Phase</text>
</a>
</g>
</g>
<!-- Node2&#45;&gt;Node3 -->
<g id="edge2_Node000002_Node000003" class="edge">
<title>Node2&#45;&gt;Node3</title>
<g id="a_edge2_Node000002_Node000003"><a xlink:title=" ">
<path fill="none" stroke="#63b8ff" d="M287.15,-47.8C295.51,-48.98 304.17,-50.21 312.8,-51.43"/>
<polygon fill="#63b8ff" stroke="#63b8ff" points="312.5,-54.92 322.89,-52.86 313.48,-47.99 312.5,-54.92"/>
</a>
</g>
</g>
<!-- Node4 -->
<g id="Node000004" class="node">
<title>Node4</title>
<g id="a_Node000004"><a xlink:href="classdata_1_1FlightData.html#a312127c867c9f4538b4d3cb24303a6e7" target="_top" xlink:title=" ">
<polygon fill="white" stroke="#666666" points="460.5,-30 330.5,-30 330.5,0 460.5,0 460.5,-30"/>
<text text-anchor="start" x="338.5" y="-18" font-family="Helvetica,sans-Serif" font-size="10.00">data::FlightData::setBit</text>
<text text-anchor="middle" x="395.5" y="-7" font-family="Helvetica,sans-Serif" font-size="10.00">TestData</text>
</a>
</g>
</g>
<!-- Node2&#45;&gt;Node4 -->
<g id="edge3_Node000002_Node000004" class="edge">
<title>Node2&#45;&gt;Node4</title>
<g id="a_edge3_Node000002_Node000004"><a xlink:title=" ">
<path fill="none" stroke="#63b8ff" d="M287.15,-30.2C297.93,-28.67 309.24,-27.07 320.3,-25.51"/>
<polygon fill="#63b8ff" stroke="#63b8ff" points="320.95,-28.95 330.36,-24.08 319.97,-22.02 320.95,-28.95"/>
</a>
</g>
</g>
</g>
</svg>
