<?xml version="1.0" encoding="UTF-8" standalone="no"?>
<!DOCTYPE svg PUBLIC "-//W3C//DTD SVG 1.1//EN"
 "http://www.w3.org/Graphics/SVG/1.1/DTD/svg11.dtd">
<!-- Generated by graphviz version 2.43.0 (0)
 -->
<!-- Title: FlightPhaseManager::setFlightPhase Pages: 1 -->
<svg width="519pt" height="162pt"
 viewBox="0.00 0.00 519.00 161.50" xmlns="http://www.w3.org/2000/svg" xmlns:xlink="http://www.w3.org/1999/xlink">
<g id="graph0" class="graph" transform="scale(1 1) rotate(0) translate(4 157.5)">
<title>FlightPhaseManager::setFlightPhase</title>
<!-- Node1 -->
<g id="Node000001" class="node">
<title>Node1</title>
<g id="a_Node000001"><a xlink:title=" ">
<polygon fill="#999999" stroke="#666666" points="116,-88.5 0,-88.5 0,-58.5 116,-58.5 116,-88.5"/>
<text text-anchor="start" x="8" y="-76.5" font-family="Helvetica,sans-Serif" font-size="10.00">FlightPhaseManager</text>
<text text-anchor="middle" x="58" y="-65.5" font-family="Helvetica,sans-Serif" font-size="10.00">::setFlightPhase</text>
</a>
</g>
</g>
<!-- Node2 -->
<g id="Node000002" class="node">
<title>Node2</title>
<g id="a_Node000002"><a xlink:href="classdata_1_1CommandStream.html#aeacbc84ac96a098ef5836fcbd5187be8" target="_top" xlink:title=" ">
<polygon fill="white" stroke="#666666" points="292,-153.5 162,-153.5 162,-123.5 292,-123.5 292,-153.5"/>
<text text-anchor="start" x="170" y="-141.5" font-family="Helvetica,sans-Serif" font-size="10.00">data::CommandStream</text>
<text text-anchor="middle" x="227" y="-130.5" font-family="Helvetica,sans-Serif" font-size="10.00">::addCommand</text>
</a>
</g>
</g>
<!-- Node1&#45;&gt;Node2 -->
<g id="edge1_Node000001_Node000002" class="edge">
<title>Node1&#45;&gt;Node2</title>
<g id="a_edge1_Node000001_Node000002"><a xlink:title=" ">
<path fill="none" stroke="#63b8ff" d="M92.31,-88.6C109.92,-96.38 131.98,-105.83 152,-113.5 157.82,-115.73 163.93,-117.96 170.04,-120.13"/>
<polygon fill="#63b8ff" stroke="#63b8ff" points="169.02,-123.48 179.61,-123.47 171.32,-116.87 169.02,-123.48"/>
</a>
</g>
</g>
<!-- Node4 -->
<g id="Node000004" class="node">
<title>Node4</title>
<g id="a_Node000004"><a xlink:href="classdata_1_1DataStream.html#a0eef16fa96084fe72dcc3f3ef8cf0bac" target="_top" xlink:title=" ">
<polygon fill="white" stroke="#666666" points="302,-105 152,-105 152,-86 302,-86 302,-105"/>
<text text-anchor="middle" x="227" y="-93" font-family="Helvetica,sans-Serif" font-size="10.00">data::DataStream::addData</text>
</a>
</g>
</g>
<!-- Node1&#45;&gt;Node4 -->
<g id="edge3_Node000001_Node000004" class="edge">
<title>Node1&#45;&gt;Node4</title>
<g id="a_edge3_Node000001_Node000004"><a xlink:title=" ">
<path fill="none" stroke="#63b8ff" d="M116,-81.01C124.89,-82.18 134.22,-83.41 143.53,-84.64"/>
<polygon fill="#63b8ff" stroke="#63b8ff" points="143.23,-88.13 153.6,-85.96 144.14,-81.19 143.23,-88.13"/>
</a>
</g>
</g>
<!-- Node6 -->
<g id="Node000006" class="node">
<title>Node6</title>
<g id="a_Node000006"><a xlink:href="classdata_1_1FlightData.html#aab39bdf65e13f5c215e7871dae587233" target="_top" xlink:title=" ">
<polygon fill="white" stroke="#666666" points="299,-67.5 155,-67.5 155,-37.5 299,-37.5 299,-67.5"/>
<text text-anchor="start" x="163" y="-55.5" font-family="Helvetica,sans-Serif" font-size="10.00">data::FlightData::setFlight</text>
<text text-anchor="middle" x="227" y="-44.5" font-family="Helvetica,sans-Serif" font-size="10.00">Phase</text>
</a>
</g>
</g>
<!-- Node1&#45;&gt;Node6 -->
<g id="edge6_Node000001_Node000006" class="edge">
<title>Node1&#45;&gt;Node6</title>
<g id="a_edge6_Node000001_Node000006"><a xlink:title=" ">
<path fill="none" stroke="#63b8ff" d="M116,-66.33C125.26,-65.17 135,-63.94 144.71,-62.72"/>
<polygon fill="#63b8ff" stroke="#63b8ff" points="145.29,-66.18 154.78,-61.46 144.42,-59.23 145.29,-66.18"/>
</a>
</g>
</g>
<!-- Node7 -->
<g id="Node000007" class="node">
<title>Node7</title>
<g id="a_Node000007"><a xlink:href="namespaceutil.html#a8e9635f6a41c035d331ddaeb62259ba6" target="_top" xlink:title="Converts a flight phase to a string.">
<polygon fill="white" stroke="#666666" points="267.5,-19 186.5,-19 186.5,0 267.5,0 267.5,-19"/>
<text text-anchor="middle" x="227" y="-7" font-family="Helvetica,sans-Serif" font-size="10.00">util::to_string</text>
</a>
</g>
</g>
<!-- Node1&#45;&gt;Node7 -->
<g id="edge7_Node000001_Node000007" class="edge">
<title>Node1&#45;&gt;Node7</title>
<g id="a_edge7_Node000001_Node000007"><a xlink:title=" ">
<path fill="none" stroke="#63b8ff" d="M86.45,-58.42C104.64,-48.88 129.26,-36.83 152,-28.5 159.79,-25.65 168.2,-23.05 176.45,-20.76"/>
<polygon fill="#63b8ff" stroke="#63b8ff" points="177.62,-24.07 186.38,-18.12 175.82,-17.31 177.62,-24.07"/>
</a>
</g>
</g>
<!-- Node3 -->
<g id="Node000003" class="node">
<title>Node3</title>
<g id="a_Node000003"><a xlink:href="classdata_1_1Stream.html#a1ff9a93190dbecdc2ffa27deaaa4266a" target="_top" xlink:title=" ">
<polygon fill="white" stroke="#666666" points="511,-153.5 338,-153.5 338,-123.5 511,-123.5 511,-153.5"/>
<text text-anchor="start" x="346" y="-141.5" font-family="Helvetica,sans-Serif" font-size="10.00">data::Stream&lt; CommandPacket</text>
<text text-anchor="middle" x="424.5" y="-130.5" font-family="Helvetica,sans-Serif" font-size="10.00"> &gt;::addPacket</text>
</a>
</g>
</g>
<!-- Node2&#45;&gt;Node3 -->
<g id="edge2_Node000002_Node000003" class="edge">
<title>Node2&#45;&gt;Node3</title>
<g id="a_edge2_Node000002_Node000003"><a xlink:title=" ">
<path fill="none" stroke="#63b8ff" d="M292.01,-138.5C303.41,-138.5 315.51,-138.5 327.56,-138.5"/>
<polygon fill="#63b8ff" stroke="#63b8ff" points="327.67,-142 337.67,-138.5 327.67,-135 327.67,-142"/>
</a>
</g>
</g>
<!-- Node4&#45;&gt;Node3 -->
<g id="edge4_Node000004_Node000003" class="edge">
<title>Node4&#45;&gt;Node3</title>
<g id="a_edge4_Node000004_Node000003"><a xlink:title=" ">
<path fill="none" stroke="#63b8ff" d="M271.39,-105.04C293.14,-109.83 320.15,-115.77 345.35,-121.31"/>
<polygon fill="#63b8ff" stroke="#63b8ff" points="344.76,-124.76 355.27,-123.49 346.26,-117.93 344.76,-124.76"/>
</a>
</g>
</g>
<!-- Node5 -->
<g id="Node000005" class="node">
<title>Node5</title>
<g id="a_Node000005"><a xlink:href="structdata_1_1BaseStreamPacket.html#a140b2f54f93715d9229e1847bc1219b2" target="_top" xlink:title=" ">
<polygon fill="white" stroke="#666666" points="492,-105.5 357,-105.5 357,-75.5 492,-75.5 492,-105.5"/>
<text text-anchor="start" x="365" y="-93.5" font-family="Helvetica,sans-Serif" font-size="10.00">data::BaseStreamPacket</text>
<text text-anchor="middle" x="424.5" y="-82.5" font-family="Helvetica,sans-Serif" font-size="10.00">::resetTime</text>
</a>
</g>
</g>
<!-- Node4&#45;&gt;Node5 -->
<g id="edge5_Node000004_Node000005" class="edge">
<title>Node4&#45;&gt;Node5</title>
<g id="a_edge5_Node000004_Node000005"><a xlink:title=" ">
<path fill="none" stroke="#63b8ff" d="M302.19,-93.6C316.76,-93.23 332.07,-92.84 346.72,-92.46"/>
<polygon fill="#63b8ff" stroke="#63b8ff" points="346.84,-95.96 356.74,-92.21 346.66,-88.96 346.84,-95.96"/>
</a>
</g>
</g>
</g>
</svg>
