<?xml version="1.0" encoding="UTF-8" standalone="no"?>
<!DOCTYPE svg PUBLIC "-//W3C//DTD SVG 1.1//EN"
 "http://www.w3.org/Graphics/SVG/1.1/DTD/svg11.dtd">
<!-- Generated by graphviz version 2.43.0 (0)
 -->
<!-- Title: giraffe::gdl::GdlServer::saveConfig Pages: 1 -->
<svg width="510pt" height="460pt"
 viewBox="0.00 0.00 510.00 459.50" xmlns="http://www.w3.org/2000/svg" xmlns:xlink="http://www.w3.org/1999/xlink">
<g id="graph0" class="graph" transform="scale(1 1) rotate(0) translate(4 455.5)">
<title>giraffe::gdl::GdlServer::saveConfig</title>
<!-- Node1 -->
<g id="node1" class="node">
<title>Node1</title>
<g id="a_node1"><a xlink:title="Attempts to save the current configuration to the config file.">
<polygon fill="#bfbfbf" stroke="black" points="0,-259.5 0,-289.5 123,-289.5 123,-259.5 0,-259.5"/>
<text text-anchor="start" x="8" y="-277.5" font-family="Helvetica,sans-Serif" font-size="10.00">giraffe::gdl::GdlServer</text>
<text text-anchor="middle" x="61.5" y="-266.5" font-family="Helvetica,sans-Serif" font-size="10.00">::saveConfig</text>
</a>
</g>
</g>
<!-- Node2 -->
<g id="node2" class="node">
<title>Node2</title>
<g id="a_node2"><a xlink:href="classgiraffe_1_1CommonLogger.html#a364f4ba232bd54940d234fbefa0fc932" target="_top" xlink:title=" ">
<polygon fill="none" stroke="black" points="171,-402.5 171,-432.5 302,-432.5 302,-402.5 171,-402.5"/>
<text text-anchor="start" x="179" y="-420.5" font-family="Helvetica,sans-Serif" font-size="10.00">giraffe::CommonLogger</text>
<text text-anchor="middle" x="236.5" y="-409.5" font-family="Helvetica,sans-Serif" font-size="10.00">::debug</text>
</a>
</g>
</g>
<!-- Node1&#45;&gt;Node2 -->
<g id="edge1" class="edge">
<title>Node1&#45;&gt;Node2</title>
<path fill="none" stroke="midnightblue" d="M75.61,-289.57C93.34,-309.45 126.5,-344.92 159,-370.5 171.34,-380.21 185.82,-389.56 198.84,-397.33"/>
<polygon fill="midnightblue" stroke="midnightblue" points="197.17,-400.41 207.57,-402.43 200.71,-394.37 197.17,-400.41"/>
</g>
<!-- Node4 -->
<g id="node4" class="node">
<title>Node4</title>
<g id="a_node4"><a xlink:href="classgiraffe_1_1CommonLogger.html#aa809939432e88f6590c9244c1defcac3" target="_top" xlink:title=" ">
<polygon fill="none" stroke="black" points="171,-330.5 171,-360.5 302,-360.5 302,-330.5 171,-330.5"/>
<text text-anchor="start" x="179" y="-348.5" font-family="Helvetica,sans-Serif" font-size="10.00">giraffe::CommonLogger</text>
<text text-anchor="middle" x="236.5" y="-337.5" font-family="Helvetica,sans-Serif" font-size="10.00">::error</text>
</a>
</g>
</g>
<!-- Node1&#45;&gt;Node4 -->
<g id="edge3" class="edge">
<title>Node1&#45;&gt;Node4</title>
<path fill="none" stroke="midnightblue" d="M99.19,-289.56C125.57,-300.38 161.32,-315.05 189.59,-326.66"/>
<polygon fill="midnightblue" stroke="midnightblue" points="188.28,-329.91 198.86,-330.46 190.94,-323.43 188.28,-329.91"/>
</g>
<!-- Node5 -->
<g id="node5" class="node">
<title>Node5</title>
<g id="a_node5"><a xlink:href="classgiraffe_1_1gdl_1_1GdlServer.html#a591424c144ee17a258f248ce1b953b5b" target="_top" xlink:title=" ">
<polygon fill="none" stroke="black" points="175,-235.5 175,-265.5 298,-265.5 298,-235.5 175,-235.5"/>
<text text-anchor="start" x="183" y="-253.5" font-family="Helvetica,sans-Serif" font-size="10.00">giraffe::gdl::GdlServer</text>
<text text-anchor="middle" x="236.5" y="-242.5" font-family="Helvetica,sans-Serif" font-size="10.00">::getConfigJson</text>
</a>
</g>
</g>
<!-- Node1&#45;&gt;Node5 -->
<g id="edge5" class="edge">
<title>Node1&#45;&gt;Node5</title>
<path fill="none" stroke="midnightblue" d="M123.01,-266.11C136.49,-264.24 150.91,-262.24 164.76,-260.31"/>
<polygon fill="midnightblue" stroke="midnightblue" points="165.31,-263.77 174.73,-258.93 164.35,-256.84 165.31,-263.77"/>
</g>
<!-- Node14 -->
<g id="node14" class="node">
<title>Node14</title>
<g id="a_node14"><a xlink:href="namespacegiraffe_1_1file__paths.html#a55797c39fca8c9ee503e4c9dab0e6007" target="_top" xlink:title="Returns the path to the Giraffe config file.">
<polygon fill="none" stroke="black" points="159,-93.5 159,-123.5 314,-123.5 314,-93.5 159,-93.5"/>
<text text-anchor="start" x="167" y="-111.5" font-family="Helvetica,sans-Serif" font-size="10.00">giraffe::file_paths</text>
<text text-anchor="middle" x="236.5" y="-100.5" font-family="Helvetica,sans-Serif" font-size="10.00">::getGdlServerConfigFilePath</text>
</a>
</g>
</g>
<!-- Node1&#45;&gt;Node14 -->
<g id="edge14" class="edge">
<title>Node1&#45;&gt;Node14</title>
<path fill="none" stroke="midnightblue" d="M78.16,-259.48C108.7,-230.17 176.37,-165.23 212.2,-130.86"/>
<polygon fill="midnightblue" stroke="midnightblue" points="214.96,-133.06 219.75,-123.61 210.11,-128.01 214.96,-133.06"/>
</g>
<!-- Node3 -->
<g id="node3" class="node">
<title>Node3</title>
<g id="a_node3"><a xlink:href="classgiraffe_1_1CommonLogger.html#a0430441609c79cc5174b9b10d26d5fe8" target="_top" xlink:title=" ">
<polygon fill="none" stroke="black" points="350,-432 350,-451 502,-451 502,-432 350,-432"/>
<text text-anchor="middle" x="426" y="-439" font-family="Helvetica,sans-Serif" font-size="10.00">giraffe::CommonLogger::log</text>
</a>
</g>
</g>
<!-- Node2&#45;&gt;Node3 -->
<g id="edge2" class="edge">
<title>Node2&#45;&gt;Node3</title>
<path fill="none" stroke="midnightblue" d="M302.03,-425.76C314.4,-427.34 327.52,-429.02 340.41,-430.67"/>
<polygon fill="midnightblue" stroke="midnightblue" points="340.32,-434.19 350.68,-431.99 341.21,-427.25 340.32,-434.19"/>
</g>
<!-- Node4&#45;&gt;Node3 -->
<g id="edge4" class="edge">
<title>Node4&#45;&gt;Node3</title>
<path fill="none" stroke="midnightblue" d="M263.14,-360.55C278.23,-369.66 297.53,-381.76 314,-393.5 330.73,-405.43 331.62,-413.32 350,-422.5 354.69,-424.84 359.69,-426.91 364.79,-428.73"/>
<polygon fill="midnightblue" stroke="midnightblue" points="364.11,-432.19 374.7,-431.95 366.27,-425.53 364.11,-432.19"/>
</g>
<!-- Node6 -->
<g id="node6" class="node">
<title>Node6</title>
<g id="a_node6"><a xlink:href="classgiraffe_1_1gdl_1_1Config.html#aed911ca37add8a6519900eef34bb4fcc" target="_top" xlink:title=" ">
<polygon fill="none" stroke="black" points="373,-382.5 373,-412.5 479,-412.5 479,-382.5 373,-382.5"/>
<text text-anchor="start" x="381" y="-400.5" font-family="Helvetica,sans-Serif" font-size="10.00">giraffe::gdl::Config</text>
<text text-anchor="middle" x="426" y="-389.5" font-family="Helvetica,sans-Serif" font-size="10.00">::getCallSign</text>
</a>
</g>
</g>
<!-- Node5&#45;&gt;Node6 -->
<g id="edge6" class="edge">
<title>Node5&#45;&gt;Node6</title>
<path fill="none" stroke="midnightblue" d="M255.87,-265.56C272.06,-279.28 295.84,-300.55 314,-321.5 332.41,-342.74 327.41,-356.77 350,-373.5 354.15,-376.57 358.71,-379.26 363.47,-381.62"/>
<polygon fill="midnightblue" stroke="midnightblue" points="362.24,-384.9 372.8,-385.73 365.06,-378.49 362.24,-384.9"/>
</g>
<!-- Node7 -->
<g id="node7" class="node">
<title>Node7</title>
<g id="a_node7"><a xlink:href="classgiraffe_1_1CommonLogger.html#a5895d20e66f05bb5e56c8d505fb4185b" target="_top" xlink:title=" ">
<polygon fill="none" stroke="black" points="360.5,-333.5 360.5,-363.5 491.5,-363.5 491.5,-333.5 360.5,-333.5"/>
<text text-anchor="start" x="368.5" y="-351.5" font-family="Helvetica,sans-Serif" font-size="10.00">giraffe::CommonLogger</text>
<text text-anchor="middle" x="426" y="-340.5" font-family="Helvetica,sans-Serif" font-size="10.00">::getLevel</text>
</a>
</g>
</g>
<!-- Node5&#45;&gt;Node7 -->
<g id="edge7" class="edge">
<title>Node5&#45;&gt;Node7</title>
<path fill="none" stroke="midnightblue" d="M256.85,-265.6C278.52,-281.94 315.2,-307.87 350,-324.5 353.99,-326.41 358.18,-328.22 362.44,-329.92"/>
<polygon fill="midnightblue" stroke="midnightblue" points="361.25,-333.22 371.84,-333.49 363.73,-326.67 361.25,-333.22"/>
</g>
<!-- Node8 -->
<g id="node8" class="node">
<title>Node8</title>
<g id="a_node8"><a xlink:href="classgiraffe_1_1CommonLogger.html#a2d55b55548ce25c3a138c795cb8d9bc6" target="_top" xlink:title=" ">
<polygon fill="none" stroke="black" points="360.5,-284.5 360.5,-314.5 491.5,-314.5 491.5,-284.5 360.5,-284.5"/>
<text text-anchor="start" x="368.5" y="-302.5" font-family="Helvetica,sans-Serif" font-size="10.00">giraffe::CommonLogger</text>
<text text-anchor="middle" x="426" y="-291.5" font-family="Helvetica,sans-Serif" font-size="10.00">::getPrintToStdout</text>
</a>
</g>
</g>
<!-- Node5&#45;&gt;Node8 -->
<g id="edge8" class="edge">
<title>Node5&#45;&gt;Node8</title>
<path fill="none" stroke="midnightblue" d="M295.03,-265.53C314.83,-270.71 337.17,-276.55 357.68,-281.91"/>
<polygon fill="midnightblue" stroke="midnightblue" points="357.02,-285.35 367.58,-284.49 358.79,-278.58 357.02,-285.35"/>
</g>
<!-- Node9 -->
<g id="node9" class="node">
<title>Node9</title>
<g id="a_node9"><a xlink:href="classgiraffe_1_1gdl_1_1Config.html#a0a58a6ed60187dc17cc79c4d103d4cc7" target="_top" xlink:title=" ">
<polygon fill="none" stroke="black" points="359.5,-235.5 359.5,-265.5 492.5,-265.5 492.5,-235.5 359.5,-235.5"/>
<text text-anchor="start" x="367.5" y="-253.5" font-family="Helvetica,sans-Serif" font-size="10.00">giraffe::gdl::Config</text>
<text text-anchor="middle" x="426" y="-242.5" font-family="Helvetica,sans-Serif" font-size="10.00">::getProactiveKeepAlive</text>
</a>
</g>
</g>
<!-- Node5&#45;&gt;Node9 -->
<g id="edge9" class="edge">
<title>Node5&#45;&gt;Node9</title>
<path fill="none" stroke="midnightblue" d="M298.12,-250.5C314.33,-250.5 332.06,-250.5 348.99,-250.5"/>
<polygon fill="midnightblue" stroke="midnightblue" points="349.41,-254 359.41,-250.5 349.41,-247 349.41,-254"/>
</g>
<!-- Node10 -->
<g id="node10" class="node">
<title>Node10</title>
<g id="a_node10"><a xlink:href="classgiraffe_1_1gdl_1_1Config.html#a1fd00187a8f0cf9632db5d0d068e4ce3" target="_top" xlink:title=" ">
<polygon fill="none" stroke="black" points="368,-186.5 368,-216.5 484,-216.5 484,-186.5 368,-186.5"/>
<text text-anchor="start" x="376" y="-204.5" font-family="Helvetica,sans-Serif" font-size="10.00">giraffe::gdl::Config</text>
<text text-anchor="middle" x="426" y="-193.5" font-family="Helvetica,sans-Serif" font-size="10.00">::getRemoteCallSign</text>
</a>
</g>
</g>
<!-- Node5&#45;&gt;Node10 -->
<g id="edge10" class="edge">
<title>Node5&#45;&gt;Node10</title>
<path fill="none" stroke="midnightblue" d="M295.03,-235.47C314.92,-230.27 337.38,-224.4 357.97,-219.02"/>
<polygon fill="midnightblue" stroke="midnightblue" points="359.11,-222.34 367.9,-216.42 357.34,-215.56 359.11,-222.34"/>
</g>
<!-- Node11 -->
<g id="node11" class="node">
<title>Node11</title>
<g id="a_node11"><a xlink:href="classgiraffe_1_1gdl_1_1Config.html#ab4b666bf725f3ab5756dc5b5135640ae" target="_top" xlink:title=" ">
<polygon fill="none" stroke="black" points="373,-137.5 373,-167.5 479,-167.5 479,-137.5 373,-137.5"/>
<text text-anchor="start" x="381" y="-155.5" font-family="Helvetica,sans-Serif" font-size="10.00">giraffe::gdl::Config</text>
<text text-anchor="middle" x="426" y="-144.5" font-family="Helvetica,sans-Serif" font-size="10.00">::getRemoteSSID</text>
</a>
</g>
</g>
<!-- Node5&#45;&gt;Node11 -->
<g id="edge11" class="edge">
<title>Node5&#45;&gt;Node11</title>
<path fill="none" stroke="midnightblue" d="M257.32,-235.41C279.1,-219.36 315.6,-194.06 350,-177.5 354.6,-175.29 359.44,-173.19 364.36,-171.22"/>
<polygon fill="midnightblue" stroke="midnightblue" points="365.78,-174.43 373.88,-167.6 363.29,-167.89 365.78,-174.43"/>
</g>
<!-- Node12 -->
<g id="node12" class="node">
<title>Node12</title>
<g id="a_node12"><a xlink:href="classgiraffe_1_1gdl_1_1Config.html#a36b504a087c8434d0dcbbdcdc8edc639" target="_top" xlink:title=" ">
<polygon fill="none" stroke="black" points="373,-88.5 373,-118.5 479,-118.5 479,-88.5 373,-88.5"/>
<text text-anchor="start" x="381" y="-106.5" font-family="Helvetica,sans-Serif" font-size="10.00">giraffe::gdl::Config</text>
<text text-anchor="middle" x="426" y="-95.5" font-family="Helvetica,sans-Serif" font-size="10.00">::getSSID</text>
</a>
</g>
</g>
<!-- Node5&#45;&gt;Node12 -->
<g id="edge12" class="edge">
<title>Node5&#45;&gt;Node12</title>
<path fill="none" stroke="midnightblue" d="M247.47,-235.47C265.16,-209.92 304.51,-157.9 350,-128.5 354.28,-125.73 358.91,-123.24 363.68,-121"/>
<polygon fill="midnightblue" stroke="midnightblue" points="365.18,-124.17 372.98,-117.01 362.41,-117.73 365.18,-124.17"/>
</g>
<!-- Node13 -->
<g id="node13" class="node">
<title>Node13</title>
<g id="a_node13"><a xlink:href="namespacegiraffe.html#a6c8d7898d64c0982d482f960a46bb8c5" target="_top" xlink:title=" ">
<polygon fill="none" stroke="black" points="377.5,-50 377.5,-69 474.5,-69 474.5,-50 377.5,-50"/>
<text text-anchor="middle" x="426" y="-57" font-family="Helvetica,sans-Serif" font-size="10.00">giraffe::to_string</text>
</a>
</g>
</g>
<!-- Node5&#45;&gt;Node13 -->
<g id="edge13" class="edge">
<title>Node5&#45;&gt;Node13</title>
<path fill="none" stroke="midnightblue" d="M247.39,-235.39C274.67,-193.72 349.06,-80.18 350,-79.5 355.43,-75.58 361.59,-72.43 367.97,-69.9"/>
<polygon fill="midnightblue" stroke="midnightblue" points="369.14,-73.2 377.44,-66.61 366.85,-66.58 369.14,-73.2"/>
</g>
<!-- Node15 -->
<g id="node15" class="node">
<title>Node15</title>
<g id="a_node15"><a xlink:href="namespacegiraffe_1_1file__paths.html#a65c87720fa2bacbdc5af2ce04c03ebff" target="_top" xlink:title="Get the Giraffe Directory Path.">
<polygon fill="none" stroke="black" points="357.5,-0.5 357.5,-30.5 494.5,-30.5 494.5,-0.5 357.5,-0.5"/>
<text text-anchor="start" x="365.5" y="-18.5" font-family="Helvetica,sans-Serif" font-size="10.00">giraffe::file_paths</text>
<text text-anchor="middle" x="426" y="-7.5" font-family="Helvetica,sans-Serif" font-size="10.00">::getGiraffeDirectoryPath</text>
</a>
</g>
</g>
<!-- Node14&#45;&gt;Node15 -->
<g id="edge15" class="edge">
<title>Node14&#45;&gt;Node15</title>
<path fill="none" stroke="midnightblue" d="M259.11,-93.44C281.19,-78.55 316.85,-55.81 350,-40.5 354.91,-38.23 360.08,-36.07 365.32,-34.04"/>
<polygon fill="midnightblue" stroke="midnightblue" points="366.62,-37.29 374.78,-30.52 364.18,-30.73 366.62,-37.29"/>
</g>
</g>
</svg>
