<?xml version="1.0" encoding="UTF-8" standalone="no"?>
<!DOCTYPE svg PUBLIC "-//W3C//DTD SVG 1.1//EN"
 "http://www.w3.org/Graphics/SVG/1.1/DTD/svg11.dtd">
<!-- Generated by graphviz version 2.43.0 (0)
 -->
<!-- Title: FlightRunner::flightLoop Pages: 1 -->
<svg width="474pt" height="39pt"
 viewBox="0.00 0.00 474.00 39.00" xmlns="http://www.w3.org/2000/svg" xmlns:xlink="http://www.w3.org/1999/xlink">
<g id="graph0" class="graph" transform="scale(1 1) rotate(0) translate(4 35)">
<title>FlightRunner::flightLoop</title>
<!-- Node1 -->
<g id="node1" class="node">
<title>Node1</title>
<g id="a_node1"><a xlink:title=" ">
<polygon fill="#bfbfbf" stroke="black" points="0,-6 0,-25 133,-25 133,-6 0,-6"/>
<text text-anchor="middle" x="66.5" y="-13" font-family="Helvetica,sans-Serif" font-size="10.00">FlightRunner::flightLoop</text>
</a>
</g>
</g>
<!-- Node2 -->
<g id="node2" class="node">
<title>Node2</title>
<g id="a_node2"><a xlink:href="namespacegiraffe_1_1file__paths.html#af135930ce8485d772c69735520b7fad1" target="_top" xlink:title="Returns the path to the Flight Software config file.">
<polygon fill="none" stroke="black" points="169,-0.5 169,-30.5 293,-30.5 293,-0.5 169,-0.5"/>
<text text-anchor="start" x="177" y="-18.5" font-family="Helvetica,sans-Serif" font-size="10.00">giraffe::file_paths</text>
<text text-anchor="middle" x="231" y="-7.5" font-family="Helvetica,sans-Serif" font-size="10.00">::getGfsConfigFilePath</text>
</a>
</g>
</g>
<!-- Node1&#45;&gt;Node2 -->
<g id="edge1" class="edge">
<title>Node1&#45;&gt;Node2</title>
<path fill="none" stroke="midnightblue" d="M133.13,-15.5C141.52,-15.5 150.14,-15.5 158.62,-15.5"/>
<polygon fill="midnightblue" stroke="midnightblue" points="158.86,-19 168.86,-15.5 158.86,-12 158.86,-19"/>
</g>
<!-- Node3 -->
<g id="node3" class="node">
<title>Node3</title>
<g id="a_node3"><a xlink:href="namespacegiraffe_1_1file__paths.html#a65c87720fa2bacbdc5af2ce04c03ebff" target="_top" xlink:title="Get the Giraffe Directory Path.">
<polygon fill="none" stroke="black" points="329,-0.5 329,-30.5 466,-30.5 466,-0.5 329,-0.5"/>
<text text-anchor="start" x="337" y="-18.5" font-family="Helvetica,sans-Serif" font-size="10.00">giraffe::file_paths</text>
<text text-anchor="middle" x="397.5" y="-7.5" font-family="Helvetica,sans-Serif" font-size="10.00">::getGiraffeDirectoryPath</text>
</a>
</g>
</g>
<!-- Node2&#45;&gt;Node3 -->
<g id="edge2" class="edge">
<title>Node2&#45;&gt;Node3</title>
<path fill="none" stroke="midnightblue" d="M293.25,-15.5C301.59,-15.5 310.24,-15.5 318.82,-15.5"/>
<polygon fill="midnightblue" stroke="midnightblue" points="318.84,-19 328.84,-15.5 318.84,-12 318.84,-19"/>
</g>
</g>
</svg>
