<?xml version="1.0" encoding="UTF-8" standalone="no"?>
<!DOCTYPE svg PUBLIC "-//W3C//DTD SVG 1.1//EN"
 "http://www.w3.org/Graphics/SVG/1.1/DTD/svg11.dtd">
<!-- Generated by graphviz version 2.43.0 (0)
 -->
<!-- Title: giraffe::CommonLogger::getLevel Pages: 1 -->
<svg width="1036pt" height="135pt"
 viewBox="0.00 0.00 1036.00 135.00" xmlns="http://www.w3.org/2000/svg" xmlns:xlink="http://www.w3.org/1999/xlink">
<g id="graph0" class="graph" transform="scale(1 1) rotate(0) translate(4 131)">
<title>giraffe::CommonLogger::getLevel</title>
<!-- Node1 -->
<g id="node1" class="node">
<title>Node1</title>
<g id="a_node1"><a xlink:title=" ">
<polygon fill="#bfbfbf" stroke="black" points="897,-71.5 897,-101.5 1028,-101.5 1028,-71.5 897,-71.5"/>
<text text-anchor="start" x="905" y="-89.5" font-family="Helvetica,sans-Serif" font-size="10.00">giraffe::CommonLogger</text>
<text text-anchor="middle" x="962.5" y="-78.5" font-family="Helvetica,sans-Serif" font-size="10.00">::getLevel</text>
</a>
</g>
</g>
<!-- Node2 -->
<g id="node2" class="node">
<title>Node2</title>
<g id="a_node2"><a xlink:href="classgiraffe_1_1gdl_1_1GdlServer.html#a591424c144ee17a258f248ce1b953b5b" target="_top" xlink:title=" ">
<polygon fill="none" stroke="black" points="738,-71.5 738,-101.5 861,-101.5 861,-71.5 738,-71.5"/>
<text text-anchor="start" x="746" y="-89.5" font-family="Helvetica,sans-Serif" font-size="10.00">giraffe::gdl::GdlServer</text>
<text text-anchor="middle" x="799.5" y="-78.5" font-family="Helvetica,sans-Serif" font-size="10.00">::getConfigJson</text>
</a>
</g>
</g>
<!-- Node1&#45;&gt;Node2 -->
<g id="edge1" class="edge">
<title>Node1&#45;&gt;Node2</title>
<path fill="none" stroke="midnightblue" d="M886.89,-86.5C878.27,-86.5 869.56,-86.5 861.15,-86.5"/>
<polygon fill="midnightblue" stroke="midnightblue" points="886.94,-90 896.94,-86.5 886.94,-83 886.94,-90"/>
</g>
<!-- Node3 -->
<g id="node3" class="node">
<title>Node3</title>
<g id="a_node3"><a xlink:href="classgiraffe_1_1gdl_1_1GdlServer.html#a18f226e3bc271111f787cfb99a00eb59" target="_top" xlink:title=" ">
<polygon fill="none" stroke="black" points="576,-96.5 576,-126.5 702,-126.5 702,-96.5 576,-96.5"/>
<text text-anchor="start" x="584" y="-114.5" font-family="Helvetica,sans-Serif" font-size="10.00">giraffe::gdl::GdlServer</text>
<text text-anchor="middle" x="639" y="-103.5" font-family="Helvetica,sans-Serif" font-size="10.00">::handleRequestConfig</text>
</a>
</g>
</g>
<!-- Node2&#45;&gt;Node3 -->
<g id="edge2" class="edge">
<title>Node2&#45;&gt;Node3</title>
<path fill="none" stroke="midnightblue" d="M727.77,-97.66C719.26,-99 710.61,-100.36 702.24,-101.68"/>
<polygon fill="midnightblue" stroke="midnightblue" points="728.34,-101.11 737.67,-96.09 727.25,-94.2 728.34,-101.11"/>
</g>
<!-- Node7 -->
<g id="node7" class="node">
<title>Node7</title>
<g id="a_node7"><a xlink:href="classgiraffe_1_1gdl_1_1GdlServer.html#a27ff3bf1c99f70b8475390d9d05e7f5c" target="_top" xlink:title="Attempts to save the current configuration to the config file.">
<polygon fill="none" stroke="black" points="577.5,-47.5 577.5,-77.5 700.5,-77.5 700.5,-47.5 577.5,-47.5"/>
<text text-anchor="start" x="585.5" y="-65.5" font-family="Helvetica,sans-Serif" font-size="10.00">giraffe::gdl::GdlServer</text>
<text text-anchor="middle" x="639" y="-54.5" font-family="Helvetica,sans-Serif" font-size="10.00">::saveConfig</text>
</a>
</g>
</g>
<!-- Node2&#45;&gt;Node7 -->
<g id="edge6" class="edge">
<title>Node2&#45;&gt;Node7</title>
<path fill="none" stroke="midnightblue" d="M727.61,-75.77C718.61,-74.4 709.48,-73.02 700.66,-71.69"/>
<polygon fill="midnightblue" stroke="midnightblue" points="727.26,-79.25 737.67,-77.29 728.31,-72.33 727.26,-79.25"/>
</g>
<!-- Node4 -->
<g id="node4" class="node">
<title>Node4</title>
<g id="a_node4"><a xlink:href="classgiraffe_1_1gdl_1_1GdlServer.html#a26729c50039ce0fcc47376ca3d5b0720" target="_top" xlink:title=" ">
<polygon fill="none" stroke="black" points="258,-96.5 258,-126.5 381,-126.5 381,-96.5 258,-96.5"/>
<text text-anchor="start" x="266" y="-114.5" font-family="Helvetica,sans-Serif" font-size="10.00">giraffe::gdl::GdlServer</text>
<text text-anchor="middle" x="319.5" y="-103.5" font-family="Helvetica,sans-Serif" font-size="10.00">::routeRequest</text>
</a>
</g>
</g>
<!-- Node3&#45;&gt;Node4 -->
<g id="edge3" class="edge">
<title>Node3&#45;&gt;Node4</title>
<path fill="none" stroke="midnightblue" d="M565.49,-111.5C509.74,-111.5 433.61,-111.5 381.09,-111.5"/>
<polygon fill="midnightblue" stroke="midnightblue" points="565.65,-115 575.65,-111.5 565.65,-108 565.65,-115"/>
</g>
<!-- Node5 -->
<g id="node5" class="node">
<title>Node5</title>
<g id="a_node5"><a xlink:href="classgiraffe_1_1gdl_1_1GdlServer.html#a7982a27f1e9ee790d196a5cd8cba6217" target="_top" xlink:title=" ">
<polygon fill="none" stroke="black" points="77,-53 77,-72 222,-72 222,-53 77,-53"/>
<text text-anchor="middle" x="149.5" y="-60" font-family="Helvetica,sans-Serif" font-size="10.00">giraffe::gdl::GdlServer::run</text>
</a>
</g>
</g>
<!-- Node4&#45;&gt;Node5 -->
<g id="edge4" class="edge">
<title>Node4&#45;&gt;Node5</title>
<path fill="none" stroke="midnightblue" d="M256.93,-93.54C231.91,-86.25 204.03,-78.11 183.08,-72"/>
<polygon fill="midnightblue" stroke="midnightblue" points="256.14,-96.96 266.72,-96.4 258.1,-90.24 256.14,-96.96"/>
</g>
<!-- Node6 -->
<g id="node6" class="node">
<title>Node6</title>
<g id="a_node6"><a xlink:href="src_2data__link_2server_2main_8cpp.html#ae66f6b31b5ad750f1fe042a706a4e3d4" target="_top" xlink:title=" ">
<polygon fill="none" stroke="black" points="0,-53 0,-72 41,-72 41,-53 0,-53"/>
<text text-anchor="middle" x="20.5" y="-60" font-family="Helvetica,sans-Serif" font-size="10.00">main</text>
</a>
</g>
</g>
<!-- Node5&#45;&gt;Node6 -->
<g id="edge5" class="edge">
<title>Node5&#45;&gt;Node6</title>
<path fill="none" stroke="midnightblue" d="M66.79,-62.5C57.31,-62.5 48.43,-62.5 41.08,-62.5"/>
<polygon fill="midnightblue" stroke="midnightblue" points="66.83,-66 76.83,-62.5 66.83,-59 66.83,-66"/>
</g>
<!-- Node8 -->
<g id="node8" class="node">
<title>Node8</title>
<g id="a_node8"><a xlink:href="classgiraffe_1_1gdl_1_1GdlServer.html#a4d192ae2860673d135f68e680765a2ef" target="_top" xlink:title=" ">
<polygon fill="none" stroke="black" points="417,-49.5 417,-79.5 540,-79.5 540,-49.5 417,-49.5"/>
<text text-anchor="start" x="425" y="-67.5" font-family="Helvetica,sans-Serif" font-size="10.00">giraffe::gdl::GdlServer</text>
<text text-anchor="middle" x="478.5" y="-56.5" font-family="Helvetica,sans-Serif" font-size="10.00">::handleSetConfig</text>
</a>
</g>
</g>
<!-- Node7&#45;&gt;Node8 -->
<g id="edge7" class="edge">
<title>Node7&#45;&gt;Node8</title>
<path fill="none" stroke="midnightblue" d="M567.11,-63.39C558.11,-63.51 548.98,-63.62 540.16,-63.73"/>
<polygon fill="midnightblue" stroke="midnightblue" points="567.22,-66.89 577.17,-63.27 567.13,-59.89 567.22,-66.89"/>
</g>
<!-- Node10 -->
<g id="node10" class="node">
<title>Node10</title>
<g id="a_node10"><a xlink:href="classgiraffe_1_1gdl_1_1GdlServer.html#a38bb766c005f9060bf13aeb5c553dd05" target="_top" xlink:title=" ">
<polygon fill="none" stroke="black" points="417,-0.5 417,-30.5 540,-30.5 540,-0.5 417,-0.5"/>
<text text-anchor="start" x="425" y="-18.5" font-family="Helvetica,sans-Serif" font-size="10.00">giraffe::gdl::GdlServer</text>
<text text-anchor="middle" x="478.5" y="-7.5" font-family="Helvetica,sans-Serif" font-size="10.00">::loadConfig</text>
</a>
</g>
</g>
<!-- Node7&#45;&gt;Node10 -->
<g id="edge10" class="edge">
<title>Node7&#45;&gt;Node10</title>
<path fill="none" stroke="midnightblue" d="M577.79,-44.65C562.08,-39.99 545.31,-35.01 530.15,-30.52"/>
<polygon fill="midnightblue" stroke="midnightblue" points="576.83,-48.01 587.41,-47.5 578.82,-41.3 576.83,-48.01"/>
</g>
<!-- Node9 -->
<g id="node9" class="node">
<title>Node9</title>
<g id="a_node9"><a xlink:href="classgiraffe_1_1gdl_1_1GdlServer.html#a7a640a9a945bb13a494c175f857fc719" target="_top" xlink:title=" ">
<polygon fill="none" stroke="black" points="258,-47.5 258,-77.5 381,-77.5 381,-47.5 258,-47.5"/>
<text text-anchor="start" x="266" y="-65.5" font-family="Helvetica,sans-Serif" font-size="10.00">giraffe::gdl::GdlServer</text>
<text text-anchor="middle" x="319.5" y="-54.5" font-family="Helvetica,sans-Serif" font-size="10.00">::routeSet</text>
</a>
</g>
</g>
<!-- Node8&#45;&gt;Node9 -->
<g id="edge8" class="edge">
<title>Node8&#45;&gt;Node9</title>
<path fill="none" stroke="midnightblue" d="M406.79,-63.6C398.19,-63.49 389.47,-63.38 381.04,-63.27"/>
<polygon fill="midnightblue" stroke="midnightblue" points="406.76,-67.1 416.8,-63.73 406.85,-60.1 406.76,-67.1"/>
</g>
<!-- Node9&#45;&gt;Node5 -->
<g id="edge9" class="edge">
<title>Node9&#45;&gt;Node5</title>
<path fill="none" stroke="midnightblue" d="M247.69,-62.5C239.26,-62.5 230.66,-62.5 222.22,-62.5"/>
<polygon fill="midnightblue" stroke="midnightblue" points="247.85,-66 257.85,-62.5 247.85,-59 247.85,-66"/>
</g>
<!-- Node10&#45;&gt;Node5 -->
<g id="edge11" class="edge">
<title>Node10&#45;&gt;Node5</title>
<path fill="none" stroke="midnightblue" d="M406.55,-20.28C363.41,-23.77 307.32,-29.33 258,-37.5 233.99,-41.48 207.35,-47.66 186.59,-52.88"/>
<polygon fill="midnightblue" stroke="midnightblue" points="406.97,-23.76 416.66,-19.49 406.42,-16.78 406.97,-23.76"/>
</g>
</g>
</svg>
