<?xml version="1.0" encoding="UTF-8" standalone="no"?>
<!DOCTYPE svg PUBLIC "-//W3C//DTD SVG 1.1//EN"
 "http://www.w3.org/Graphics/SVG/1.1/DTD/svg11.dtd">
<!-- Generated by graphviz version 2.43.0 (0)
 -->
<!-- Title: modules::DataModule::processStream Pages: 1 -->
<svg width="329pt" height="104pt"
 viewBox="0.00 0.00 329.00 104.00" xmlns="http://www.w3.org/2000/svg" xmlns:xlink="http://www.w3.org/1999/xlink">
<g id="graph0" class="graph" transform="scale(1 1) rotate(0) translate(4 100)">
<title>modules::DataModule::processStream</title>
<!-- Node1 -->
<g id="node1" class="node">
<title>Node1</title>
<g id="a_node1"><a xlink:title="Used to process shared streams.">
<polygon fill="#bfbfbf" stroke="black" points="0,-33 0,-63 124,-63 124,-33 0,-33"/>
<text text-anchor="start" x="8" y="-51" font-family="Helvetica,sans-Serif" font-size="10.00">modules::DataModule</text>
<text text-anchor="middle" x="62" y="-40" font-family="Helvetica,sans-Serif" font-size="10.00">::processStream</text>
</a>
</g>
</g>
<!-- Node2 -->
<g id="node2" class="node">
<title>Node2</title>
<g id="a_node2"><a xlink:href="classdata_1_1Stream.html#a1e7307f7c8cbbe4304654a293d86bd9c" target="_top" xlink:title=" ">
<polygon fill="none" stroke="black" points="160,-76.5 160,-95.5 321,-95.5 321,-76.5 160,-76.5"/>
<text text-anchor="middle" x="240.5" y="-83.5" font-family="Helvetica,sans-Serif" font-size="10.00">data::Stream::getNumPackets</text>
</a>
</g>
</g>
<!-- Node1&#45;&gt;Node2 -->
<g id="edge1" class="edge">
<title>Node1&#45;&gt;Node2</title>
<path fill="none" stroke="midnightblue" d="M124.24,-61.18C144.16,-65.47 166.12,-70.2 185.48,-74.37"/>
<polygon fill="midnightblue" stroke="midnightblue" points="184.83,-77.81 195.34,-76.49 186.3,-70.97 184.83,-77.81"/>
</g>
<!-- Node3 -->
<g id="node3" class="node">
<title>Node3</title>
<g id="a_node3"><a xlink:href="classdata_1_1Stream.html#a0314b3695dc80b18b19be92965777234" target="_top" xlink:title=" ">
<polygon fill="none" stroke="black" points="174,-38.5 174,-57.5 307,-57.5 307,-38.5 174,-38.5"/>
<text text-anchor="middle" x="240.5" y="-45.5" font-family="Helvetica,sans-Serif" font-size="10.00">data::Stream::getPacket</text>
</a>
</g>
</g>
<!-- Node1&#45;&gt;Node3 -->
<g id="edge2" class="edge">
<title>Node1&#45;&gt;Node3</title>
<path fill="none" stroke="midnightblue" d="M124.24,-48C137.01,-48 150.62,-48 163.84,-48"/>
<polygon fill="midnightblue" stroke="midnightblue" points="163.86,-51.5 173.86,-48 163.86,-44.5 163.86,-51.5"/>
</g>
<!-- Node4 -->
<g id="node4" class="node">
<title>Node4</title>
<g id="a_node4"><a xlink:href="classdata_1_1Stream.html#ace050b78da0acc49b3baccc8018a387e" target="_top" xlink:title=" ">
<polygon fill="none" stroke="black" points="160,-0.5 160,-19.5 321,-19.5 321,-0.5 160,-0.5"/>
<text text-anchor="middle" x="240.5" y="-7.5" font-family="Helvetica,sans-Serif" font-size="10.00">data::Stream::getTotalPackets</text>
</a>
</g>
</g>
<!-- Node1&#45;&gt;Node4 -->
<g id="edge3" class="edge">
<title>Node1&#45;&gt;Node4</title>
<path fill="none" stroke="midnightblue" d="M124.24,-34.82C144.16,-30.53 166.12,-25.8 185.48,-21.63"/>
<polygon fill="midnightblue" stroke="midnightblue" points="186.3,-25.03 195.34,-19.51 184.83,-18.19 186.3,-25.03"/>
</g>
</g>
</svg>
