<?xml version="1.0" encoding="UTF-8" standalone="no"?>
<!DOCTYPE svg PUBLIC "-//W3C//DTD SVG 1.1//EN"
 "http://www.w3.org/Graphics/SVG/1.1/DTD/svg11.dtd">
<!-- Generated by graphviz version 2.43.0 (0)
 -->
<!-- Title: giraffe::radio::Sa868 Pages: 1 -->
<svg width="545pt" height="873pt"
 viewBox="0.00 0.00 545.00 873.00" xmlns="http://www.w3.org/2000/svg" xmlns:xlink="http://www.w3.org/1999/xlink">
<g id="graph0" class="graph" transform="scale(1 1) rotate(0) translate(4 869)">
<title>giraffe::radio::Sa868</title>
<!-- Node1 -->
<g id="node1" class="node">
<title>Node1</title>
<g id="a_node1"><a xlink:title=" ">
<polygon fill="#bfbfbf" stroke="black" points="166.5,-0.5 166.5,-101.5 281.5,-101.5 281.5,-0.5 166.5,-0.5"/>
<text text-anchor="middle" x="224" y="-89.5" font-family="Helvetica,sans-Serif" font-size="10.00">giraffe::radio::Sa868</text>
<polyline fill="none" stroke="black" points="166.5,-82.5 281.5,-82.5 "/>
<text text-anchor="middle" x="224" y="-70.5" font-family="Helvetica,sans-Serif" font-size="10.00"> </text>
<polyline fill="none" stroke="black" points="166.5,-63.5 281.5,-63.5 "/>
<text text-anchor="start" x="174.5" y="-51.5" font-family="Helvetica,sans-Serif" font-size="10.00">+ Sa868()</text>
<text text-anchor="start" x="174.5" y="-40.5" font-family="Helvetica,sans-Serif" font-size="10.00">+ ~Sa868()</text>
<text text-anchor="start" x="174.5" y="-29.5" font-family="Helvetica,sans-Serif" font-size="10.00">+ disable()</text>
<text text-anchor="start" x="174.5" y="-18.5" font-family="Helvetica,sans-Serif" font-size="10.00">+ enable()</text>
<text text-anchor="start" x="174.5" y="-7.5" font-family="Helvetica,sans-Serif" font-size="10.00">+ update()</text>
</a>
</g>
</g>
<!-- Node2 -->
<g id="node2" class="node">
<title>Node2</title>
<g id="a_node2"><a xlink:href="classgiraffe_1_1radio_1_1Radio.html" target="_top" xlink:title=" ">
<polygon fill="none" stroke="black" points="167.5,-139.5 167.5,-284.5 280.5,-284.5 280.5,-139.5 167.5,-139.5"/>
<text text-anchor="middle" x="224" y="-272.5" font-family="Helvetica,sans-Serif" font-size="10.00">giraffe::radio::Radio</text>
<polyline fill="none" stroke="black" points="167.5,-265.5 280.5,-265.5 "/>
<text text-anchor="middle" x="224" y="-253.5" font-family="Helvetica,sans-Serif" font-size="10.00"> </text>
<polyline fill="none" stroke="black" points="167.5,-246.5 280.5,-246.5 "/>
<text text-anchor="start" x="175.5" y="-234.5" font-family="Helvetica,sans-Serif" font-size="10.00">+ Radio()</text>
<text text-anchor="start" x="175.5" y="-223.5" font-family="Helvetica,sans-Serif" font-size="10.00">+ ~Radio()</text>
<text text-anchor="start" x="175.5" y="-212.5" font-family="Helvetica,sans-Serif" font-size="10.00">+ changeMode()</text>
<text text-anchor="start" x="175.5" y="-201.5" font-family="Helvetica,sans-Serif" font-size="10.00">+ disable()</text>
<text text-anchor="start" x="175.5" y="-190.5" font-family="Helvetica,sans-Serif" font-size="10.00">+ enable()</text>
<text text-anchor="start" x="175.5" y="-179.5" font-family="Helvetica,sans-Serif" font-size="10.00">+ getRssi()</text>
<text text-anchor="start" x="175.5" y="-168.5" font-family="Helvetica,sans-Serif" font-size="10.00">+ startTransmit()</text>
<text text-anchor="start" x="175.5" y="-157.5" font-family="Helvetica,sans-Serif" font-size="10.00">+ stopTransmit()</text>
<text text-anchor="start" x="175.5" y="-146.5" font-family="Helvetica,sans-Serif" font-size="10.00">+ update()</text>
</a>
</g>
</g>
<!-- Node2&#45;&gt;Node1 -->
<g id="edge1" class="edge">
<title>Node2&#45;&gt;Node1</title>
<path fill="none" stroke="midnightblue" d="M224,-129.26C224,-119.9 224,-110.58 224,-101.82"/>
<polygon fill="none" stroke="midnightblue" points="220.5,-129.41 224,-139.41 227.5,-129.41 220.5,-129.41"/>
</g>
<!-- Node3 -->
<g id="node3" class="node">
<title>Node3</title>
<g id="a_node3"><a xlink:href="classgiraffe_1_1gdl_1_1PhysicalLayer.html" target="_top" xlink:title="The physical layer of the Giraffe Data Link.">
<polygon fill="none" stroke="black" points="152.5,-322.5 152.5,-511.5 295.5,-511.5 295.5,-322.5 152.5,-322.5"/>
<text text-anchor="middle" x="224" y="-499.5" font-family="Helvetica,sans-Serif" font-size="10.00">giraffe::gdl::PhysicalLayer</text>
<polyline fill="none" stroke="black" points="152.5,-492.5 295.5,-492.5 "/>
<text text-anchor="middle" x="224" y="-480.5" font-family="Helvetica,sans-Serif" font-size="10.00"> </text>
<polyline fill="none" stroke="black" points="152.5,-473.5 295.5,-473.5 "/>
<text text-anchor="start" x="160.5" y="-461.5" font-family="Helvetica,sans-Serif" font-size="10.00">+ PhysicalLayer()</text>
<text text-anchor="start" x="160.5" y="-450.5" font-family="Helvetica,sans-Serif" font-size="10.00">+ ~PhysicalLayer()</text>
<text text-anchor="start" x="160.5" y="-439.5" font-family="Helvetica,sans-Serif" font-size="10.00">+ changeMode()</text>
<text text-anchor="start" x="160.5" y="-428.5" font-family="Helvetica,sans-Serif" font-size="10.00">+ disable()</text>
<text text-anchor="start" x="160.5" y="-417.5" font-family="Helvetica,sans-Serif" font-size="10.00">+ enable()</text>
<text text-anchor="start" x="160.5" y="-406.5" font-family="Helvetica,sans-Serif" font-size="10.00">+ getMode()</text>
<text text-anchor="start" x="160.5" y="-395.5" font-family="Helvetica,sans-Serif" font-size="10.00">+ getRssi()</text>
<text text-anchor="start" x="160.5" y="-384.5" font-family="Helvetica,sans-Serif" font-size="10.00">+ getState()</text>
<text text-anchor="start" x="160.5" y="-373.5" font-family="Helvetica,sans-Serif" font-size="10.00">+ startTransmit()</text>
<text text-anchor="start" x="160.5" y="-362.5" font-family="Helvetica,sans-Serif" font-size="10.00">+ stopTransmit()</text>
<text text-anchor="start" x="160.5" y="-351.5" font-family="Helvetica,sans-Serif" font-size="10.00">+ update()</text>
<text text-anchor="start" x="160.5" y="-340.5" font-family="Helvetica,sans-Serif" font-size="10.00"># setMode()</text>
<text text-anchor="start" x="160.5" y="-329.5" font-family="Helvetica,sans-Serif" font-size="10.00"># setState()</text>
</a>
</g>
</g>
<!-- Node3&#45;&gt;Node2 -->
<g id="edge2" class="edge">
<title>Node3&#45;&gt;Node2</title>
<path fill="none" stroke="midnightblue" d="M224,-312.11C224,-302.78 224,-293.47 224,-284.51"/>
<polygon fill="none" stroke="midnightblue" points="220.5,-312.22 224,-322.22 227.5,-312.22 220.5,-312.22"/>
</g>
<!-- Node4 -->
<g id="node4" class="node">
<title>Node4</title>
<g id="a_node4"><a xlink:title=" ">
<polygon fill="none" stroke="#bfbfbf" points="89,-625.5 89,-682.5 133,-682.5 133,-625.5 89,-625.5"/>
<text text-anchor="middle" x="111" y="-670.5" font-family="Helvetica,sans-Serif" font-size="10.00">Mode</text>
<polyline fill="none" stroke="#bfbfbf" points="89,-663.5 133,-663.5 "/>
<text text-anchor="middle" x="111" y="-651.5" font-family="Helvetica,sans-Serif" font-size="10.00"> </text>
<polyline fill="none" stroke="#bfbfbf" points="89,-644.5 133,-644.5 "/>
<text text-anchor="middle" x="111" y="-632.5" font-family="Helvetica,sans-Serif" font-size="10.00"> </text>
</a>
</g>
</g>
<!-- Node4&#45;&gt;Node3 -->
<g id="edge3" class="edge">
<title>Node4&#45;&gt;Node3</title>
<path fill="none" stroke="#404040" d="M118.49,-625.28C124.02,-606.25 132.27,-580.63 142,-559 147.44,-546.92 153.62,-534.54 160.11,-522.38"/>
<polygon fill="none" stroke="#404040" points="160.15,-522.31 159.49,-515.13 165.87,-511.76 166.52,-518.94 160.15,-522.31"/>
<text text-anchor="middle" x="176" y="-533" font-family="Helvetica,sans-Serif" font-size="10.00"> &#45;mode_</text>
</g>
<!-- Node5 -->
<g id="node5" class="node">
<title>Node5</title>
<g id="a_node5"><a xlink:href="classgiraffe_1_1gdl_1_1Config.html" target="_top" xlink:title="Data Link Configuration.">
<polygon fill="none" stroke="black" points="151,-559.5 151,-748.5 297,-748.5 297,-559.5 151,-559.5"/>
<text text-anchor="middle" x="224" y="-736.5" font-family="Helvetica,sans-Serif" font-size="10.00">giraffe::gdl::Config</text>
<polyline fill="none" stroke="black" points="151,-729.5 297,-729.5 "/>
<text text-anchor="middle" x="224" y="-717.5" font-family="Helvetica,sans-Serif" font-size="10.00"> </text>
<polyline fill="none" stroke="black" points="151,-710.5 297,-710.5 "/>
<text text-anchor="start" x="159" y="-698.5" font-family="Helvetica,sans-Serif" font-size="10.00">+ Config()</text>
<text text-anchor="start" x="159" y="-687.5" font-family="Helvetica,sans-Serif" font-size="10.00">+ ~Config()</text>
<text text-anchor="start" x="159" y="-676.5" font-family="Helvetica,sans-Serif" font-size="10.00">+ getCallSign()</text>
<text text-anchor="start" x="159" y="-665.5" font-family="Helvetica,sans-Serif" font-size="10.00">+ getProactiveKeepAlive()</text>
<text text-anchor="start" x="159" y="-654.5" font-family="Helvetica,sans-Serif" font-size="10.00">+ getRemoteCallSign()</text>
<text text-anchor="start" x="159" y="-643.5" font-family="Helvetica,sans-Serif" font-size="10.00">+ getRemoteSSID()</text>
<text text-anchor="start" x="159" y="-632.5" font-family="Helvetica,sans-Serif" font-size="10.00">+ getSSID()</text>
<text text-anchor="start" x="159" y="-621.5" font-family="Helvetica,sans-Serif" font-size="10.00">+ isController()</text>
<text text-anchor="start" x="159" y="-610.5" font-family="Helvetica,sans-Serif" font-size="10.00">+ setCallSign()</text>
<text text-anchor="start" x="159" y="-599.5" font-family="Helvetica,sans-Serif" font-size="10.00">+ setProactiveKeepAlive()</text>
<text text-anchor="start" x="159" y="-588.5" font-family="Helvetica,sans-Serif" font-size="10.00">+ setRemoteCallSign()</text>
<text text-anchor="start" x="159" y="-577.5" font-family="Helvetica,sans-Serif" font-size="10.00">+ setRemoteSSID()</text>
<text text-anchor="start" x="159" y="-566.5" font-family="Helvetica,sans-Serif" font-size="10.00">+ setSSID()</text>
</a>
</g>
</g>
<!-- Node5&#45;&gt;Node3 -->
<g id="edge4" class="edge">
<title>Node5&#45;&gt;Node3</title>
<path fill="none" stroke="#404040" d="M224,-559.45C224,-547.76 224,-535.75 224,-523.89"/>
<polygon fill="none" stroke="#404040" points="224,-523.62 220,-517.62 224,-511.62 228,-517.62 224,-523.62"/>
<text text-anchor="middle" x="247" y="-533" font-family="Helvetica,sans-Serif" font-size="10.00"> #config_</text>
</g>
<!-- Node6 -->
<g id="node6" class="node">
<title>Node6</title>
<g id="a_node6"><a xlink:title=" ">
<polygon fill="none" stroke="#bfbfbf" points="0,-807.5 0,-864.5 48,-864.5 48,-807.5 0,-807.5"/>
<text text-anchor="middle" x="24" y="-852.5" font-family="Helvetica,sans-Serif" font-size="10.00">mutex</text>
<polyline fill="none" stroke="#bfbfbf" points="0,-845.5 48,-845.5 "/>
<text text-anchor="middle" x="24" y="-833.5" font-family="Helvetica,sans-Serif" font-size="10.00"> </text>
<polyline fill="none" stroke="#bfbfbf" points="0,-826.5 48,-826.5 "/>
<text text-anchor="middle" x="24" y="-814.5" font-family="Helvetica,sans-Serif" font-size="10.00"> </text>
</a>
</g>
</g>
<!-- Node6&#45;&gt;Node5 -->
<g id="edge5" class="edge">
<title>Node6&#45;&gt;Node5</title>
<path fill="none" stroke="#404040" d="M29.77,-807.42C34.12,-793.31 41.54,-777.04 54,-767 82.41,-744.1 103.59,-764.82 140.09,-748.88"/>
<polygon fill="none" stroke="#404040" points="140.15,-748.85 143.65,-742.54 150.81,-743.34 147.32,-749.65 140.15,-748.85"/>
<text text-anchor="middle" x="94.5" y="-775.5" font-family="Helvetica,sans-Serif" font-size="10.00"> &#45;call_sign_lock_</text>
</g>
<!-- Node7 -->
<g id="node7" class="node">
<title>Node7</title>
<g id="a_node7"><a xlink:title=" ">
<polygon fill="none" stroke="#bfbfbf" points="74.5,-807.5 74.5,-864.5 181.5,-864.5 181.5,-807.5 74.5,-807.5"/>
<text text-anchor="middle" x="128" y="-852.5" font-family="Helvetica,sans-Serif" font-size="10.00">atomic&lt; uint8_t &gt;</text>
<polyline fill="none" stroke="#bfbfbf" points="74.5,-845.5 181.5,-845.5 "/>
<text text-anchor="middle" x="128" y="-833.5" font-family="Helvetica,sans-Serif" font-size="10.00"> </text>
<polyline fill="none" stroke="#bfbfbf" points="74.5,-826.5 181.5,-826.5 "/>
<text text-anchor="middle" x="128" y="-814.5" font-family="Helvetica,sans-Serif" font-size="10.00"> </text>
</a>
</g>
</g>
<!-- Node7&#45;&gt;Node5 -->
<g id="edge6" class="edge">
<title>Node7&#45;&gt;Node5</title>
<path fill="none" stroke="#404040" d="M133.51,-807.46C136.59,-794.79 141.03,-779.77 147,-767 148.16,-764.53 149.37,-762.05 150.62,-759.57"/>
<polygon fill="none" stroke="#404040" points="150.76,-759.3 150.05,-752.13 156.4,-748.71 157.11,-755.89 150.76,-759.3"/>
<text text-anchor="middle" x="183.5" y="-781" font-family="Helvetica,sans-Serif" font-size="10.00"> &#45;remote_ssid_</text>
<text text-anchor="middle" x="183.5" y="-770" font-family="Helvetica,sans-Serif" font-size="10.00">&#45;ssid_</text>
</g>
<!-- Node8 -->
<g id="node8" class="node">
<title>Node8</title>
<g id="a_node8"><a xlink:title=" ">
<polygon fill="none" stroke="#bfbfbf" points="202,-807.5 202,-864.5 246,-864.5 246,-807.5 202,-807.5"/>
<text text-anchor="middle" x="224" y="-852.5" font-family="Helvetica,sans-Serif" font-size="10.00">string</text>
<polyline fill="none" stroke="#bfbfbf" points="202,-845.5 246,-845.5 "/>
<text text-anchor="middle" x="224" y="-833.5" font-family="Helvetica,sans-Serif" font-size="10.00"> </text>
<polyline fill="none" stroke="#bfbfbf" points="202,-826.5 246,-826.5 "/>
<text text-anchor="middle" x="224" y="-814.5" font-family="Helvetica,sans-Serif" font-size="10.00"> </text>
</a>
</g>
</g>
<!-- Node8&#45;&gt;Node5 -->
<g id="edge7" class="edge">
<title>Node8&#45;&gt;Node5</title>
<path fill="none" stroke="#404040" d="M224,-807.27C224,-794.41 224,-778.23 224,-761.26"/>
<polygon fill="none" stroke="#404040" points="224,-760.79 220,-754.79 224,-748.79 228,-754.79 224,-760.79"/>
<text text-anchor="middle" x="270.5" y="-781" font-family="Helvetica,sans-Serif" font-size="10.00"> &#45;call_sign_</text>
<text text-anchor="middle" x="270.5" y="-770" font-family="Helvetica,sans-Serif" font-size="10.00">&#45;remote_call_sign_</text>
</g>
<!-- Node9 -->
<g id="node9" class="node">
<title>Node9</title>
<g id="a_node9"><a xlink:title=" ">
<polygon fill="none" stroke="#bfbfbf" points="321,-807.5 321,-864.5 359,-864.5 359,-807.5 321,-807.5"/>
<text text-anchor="middle" x="340" y="-852.5" font-family="Helvetica,sans-Serif" font-size="10.00">bool</text>
<polyline fill="none" stroke="#bfbfbf" points="321,-845.5 359,-845.5 "/>
<text text-anchor="middle" x="340" y="-833.5" font-family="Helvetica,sans-Serif" font-size="10.00"> </text>
<polyline fill="none" stroke="#bfbfbf" points="321,-826.5 359,-826.5 "/>
<text text-anchor="middle" x="340" y="-814.5" font-family="Helvetica,sans-Serif" font-size="10.00"> </text>
</a>
</g>
</g>
<!-- Node9&#45;&gt;Node5 -->
<g id="edge8" class="edge">
<title>Node9&#45;&gt;Node5</title>
<path fill="none" stroke="#404040" d="M333.62,-807.2C330.05,-794.47 324.91,-779.48 318,-767 315.22,-761.97 310.48,-755.22 304.56,-747.51"/>
<polygon fill="none" stroke="#404040" points="304.54,-747.49 297.69,-745.25 297.12,-738.06 303.97,-740.3 304.54,-747.49"/>
<text text-anchor="middle" x="363.5" y="-775.5" font-family="Helvetica,sans-Serif" font-size="10.00"> &#45;is_controller_</text>
</g>
<!-- Node10 -->
<g id="node10" class="node">
<title>Node10</title>
<g id="a_node10"><a xlink:title=" ">
<polygon fill="none" stroke="#bfbfbf" points="389,-807.5 389,-864.5 483,-864.5 483,-807.5 389,-807.5"/>
<text text-anchor="middle" x="436" y="-852.5" font-family="Helvetica,sans-Serif" font-size="10.00">atomic&lt; bool &gt;</text>
<polyline fill="none" stroke="#bfbfbf" points="389,-845.5 483,-845.5 "/>
<text text-anchor="middle" x="436" y="-833.5" font-family="Helvetica,sans-Serif" font-size="10.00"> </text>
<polyline fill="none" stroke="#bfbfbf" points="389,-826.5 483,-826.5 "/>
<text text-anchor="middle" x="436" y="-814.5" font-family="Helvetica,sans-Serif" font-size="10.00"> </text>
</a>
</g>
</g>
<!-- Node10&#45;&gt;Node5 -->
<g id="edge9" class="edge">
<title>Node10&#45;&gt;Node5</title>
<path fill="none" stroke="#404040" d="M429.47,-807.28C424.73,-793.13 416.82,-776.87 404,-767 371.73,-742.14 348.47,-766.33 308.09,-748.96"/>
<polygon fill="none" stroke="#404040" points="307.85,-748.84 300.69,-749.7 297.14,-743.42 304.3,-742.56 307.85,-748.84"/>
<text text-anchor="middle" x="479" y="-775.5" font-family="Helvetica,sans-Serif" font-size="10.00"> &#45;proactive_keep_alive_</text>
</g>
<!-- Node11 -->
<g id="node11" class="node">
<title>Node11</title>
<g id="a_node11"><a xlink:title=" ">
<polygon fill="none" stroke="#bfbfbf" points="315,-625.5 315,-682.5 357,-682.5 357,-625.5 315,-625.5"/>
<text text-anchor="middle" x="336" y="-670.5" font-family="Helvetica,sans-Serif" font-size="10.00">State</text>
<polyline fill="none" stroke="#bfbfbf" points="315,-663.5 357,-663.5 "/>
<text text-anchor="middle" x="336" y="-651.5" font-family="Helvetica,sans-Serif" font-size="10.00"> </text>
<polyline fill="none" stroke="#bfbfbf" points="315,-644.5 357,-644.5 "/>
<text text-anchor="middle" x="336" y="-632.5" font-family="Helvetica,sans-Serif" font-size="10.00"> </text>
</a>
</g>
</g>
<!-- Node11&#45;&gt;Node3 -->
<g id="edge10" class="edge">
<title>Node11&#45;&gt;Node3</title>
<path fill="none" stroke="#404040" d="M328.87,-625.27C323.56,-606.23 315.59,-580.61 306,-559 300.62,-546.89 294.47,-534.49 288.01,-522.33"/>
<polygon fill="none" stroke="#404040" points="287.97,-522.26 281.6,-518.88 282.26,-511.7 288.64,-515.08 287.97,-522.26"/>
<text text-anchor="middle" x="314.5" y="-533" font-family="Helvetica,sans-Serif" font-size="10.00"> &#45;state_</text>
</g>
</g>
</svg>
