<?xml version="1.0" encoding="UTF-8" standalone="no"?>
<!DOCTYPE svg PUBLIC "-//W3C//DTD SVG 1.1//EN"
 "http://www.w3.org/Graphics/SVG/1.1/DTD/svg11.dtd">
<!-- Generated by graphviz version 2.43.0 (0)
 -->
<!-- Title: giraffe::gdl::Message::getIdentifier Pages: 1 -->
<svg width="1079pt" height="137pt"
 viewBox="0.00 0.00 1079.00 137.00" xmlns="http://www.w3.org/2000/svg" xmlns:xlink="http://www.w3.org/1999/xlink">
<g id="graph0" class="graph" transform="scale(1 1) rotate(0) translate(4 133)">
<title>giraffe::gdl::Message::getIdentifier</title>
<!-- Node1 -->
<g id="node1" class="node">
<title>Node1</title>
<g id="a_node1"><a xlink:title=" ">
<polygon fill="#bfbfbf" stroke="black" points="952,-49.5 952,-79.5 1071,-79.5 1071,-49.5 952,-49.5"/>
<text text-anchor="start" x="960" y="-67.5" font-family="Helvetica,sans-Serif" font-size="10.00">giraffe::gdl::Message</text>
<text text-anchor="middle" x="1011.5" y="-56.5" font-family="Helvetica,sans-Serif" font-size="10.00">::getIdentifier</text>
</a>
</g>
</g>
<!-- Node2 -->
<g id="node2" class="node">
<title>Node2</title>
<g id="a_node2"><a xlink:href="classgiraffe_1_1gdl_1_1TransportLayer.html#a709e614e408ba20b8057fd728ab93da5" target="_top" xlink:title=" ">
<polygon fill="none" stroke="black" points="760,-98.5 760,-128.5 907,-128.5 907,-98.5 760,-98.5"/>
<text text-anchor="start" x="768" y="-116.5" font-family="Helvetica,sans-Serif" font-size="10.00">giraffe::gdl::TransportLayer</text>
<text text-anchor="middle" x="833.5" y="-105.5" font-family="Helvetica,sans-Serif" font-size="10.00">::exchangeSendState</text>
</a>
</g>
</g>
<!-- Node1&#45;&gt;Node2 -->
<g id="edge1" class="edge">
<title>Node1&#45;&gt;Node2</title>
<path fill="none" stroke="midnightblue" d="M946.49,-82.32C927.49,-87.61 906.87,-93.35 888.56,-98.45"/>
<polygon fill="midnightblue" stroke="midnightblue" points="947.56,-85.66 956.26,-79.6 945.69,-78.91 947.56,-85.66"/>
</g>
<!-- Node9 -->
<g id="node9" class="node">
<title>Node9</title>
<g id="a_node9"><a xlink:href="classgiraffe_1_1gdl_1_1TransportLayer.html#a6261bac3c4a33276136fa514168200ca" target="_top" xlink:title=" ">
<polygon fill="none" stroke="black" points="751,-49.5 751,-79.5 916,-79.5 916,-49.5 751,-49.5"/>
<text text-anchor="start" x="759" y="-67.5" font-family="Helvetica,sans-Serif" font-size="10.00">giraffe::gdl::TransportLayer</text>
<text text-anchor="middle" x="833.5" y="-56.5" font-family="Helvetica,sans-Serif" font-size="10.00">::exchangeWaitingForAckState</text>
</a>
</g>
</g>
<!-- Node1&#45;&gt;Node9 -->
<g id="edge8" class="edge">
<title>Node1&#45;&gt;Node9</title>
<path fill="none" stroke="midnightblue" d="M941.75,-64.5C933.32,-64.5 924.64,-64.5 916.05,-64.5"/>
<polygon fill="midnightblue" stroke="midnightblue" points="941.89,-68 951.89,-64.5 941.89,-61 941.89,-68"/>
</g>
<!-- Node10 -->
<g id="node10" class="node">
<title>Node10</title>
<g id="a_node10"><a xlink:href="classgiraffe_1_1gdl_1_1TransportLayer.html#ab025e1d35369c1eb47ab9aa5b7a1c859" target="_top" xlink:title=" ">
<polygon fill="none" stroke="black" points="760,-0.5 760,-30.5 907,-30.5 907,-0.5 760,-0.5"/>
<text text-anchor="start" x="768" y="-18.5" font-family="Helvetica,sans-Serif" font-size="10.00">giraffe::gdl::TransportLayer</text>
<text text-anchor="middle" x="833.5" y="-7.5" font-family="Helvetica,sans-Serif" font-size="10.00">::idleState</text>
</a>
</g>
</g>
<!-- Node1&#45;&gt;Node10 -->
<g id="edge10" class="edge">
<title>Node1&#45;&gt;Node10</title>
<path fill="none" stroke="midnightblue" d="M946.49,-46.68C927.49,-41.39 906.87,-35.65 888.56,-30.55"/>
<polygon fill="midnightblue" stroke="midnightblue" points="945.69,-50.09 956.26,-49.4 947.56,-43.34 945.69,-50.09"/>
</g>
<!-- Node3 -->
<g id="node3" class="node">
<title>Node3</title>
<g id="a_node3"><a xlink:href="classgiraffe_1_1gdl_1_1TransportLayer.html#ab520e1f30f0fa8d1d17fc3d627386d2f" target="_top" xlink:title=" ">
<polygon fill="none" stroke="black" points="568,-49.5 568,-79.5 715,-79.5 715,-49.5 568,-49.5"/>
<text text-anchor="start" x="576" y="-67.5" font-family="Helvetica,sans-Serif" font-size="10.00">giraffe::gdl::TransportLayer</text>
<text text-anchor="middle" x="641.5" y="-56.5" font-family="Helvetica,sans-Serif" font-size="10.00">::update</text>
</a>
</g>
</g>
<!-- Node2&#45;&gt;Node3 -->
<g id="edge2" class="edge">
<title>Node2&#45;&gt;Node3</title>
<path fill="none" stroke="midnightblue" d="M764.45,-95.95C743.59,-90.57 720.83,-84.7 700.69,-79.51"/>
<polygon fill="midnightblue" stroke="midnightblue" points="763.65,-99.36 774.2,-98.47 765.39,-92.58 763.65,-99.36"/>
</g>
<!-- Node4 -->
<g id="node4" class="node">
<title>Node4</title>
<g id="a_node4"><a xlink:href="classgiraffe_1_1gdl_1_1DataLink.html#a2f6c5032357d005d854f969a93c360de" target="_top" xlink:title="The main thread function for GDL.">
<polygon fill="none" stroke="black" points="413,-49.5 413,-79.5 532,-79.5 532,-49.5 413,-49.5"/>
<text text-anchor="start" x="421" y="-67.5" font-family="Helvetica,sans-Serif" font-size="10.00">giraffe::gdl::DataLink</text>
<text text-anchor="middle" x="472.5" y="-56.5" font-family="Helvetica,sans-Serif" font-size="10.00">::gdlThread</text>
</a>
</g>
</g>
<!-- Node3&#45;&gt;Node4 -->
<g id="edge3" class="edge">
<title>Node3&#45;&gt;Node4</title>
<path fill="none" stroke="midnightblue" d="M557.68,-64.5C549.09,-64.5 540.48,-64.5 532.24,-64.5"/>
<polygon fill="midnightblue" stroke="midnightblue" points="557.74,-68 567.74,-64.5 557.74,-61 557.74,-68"/>
</g>
<!-- Node5 -->
<g id="node5" class="node">
<title>Node5</title>
<g id="a_node5"><a xlink:href="classgiraffe_1_1gdl_1_1DataLink.html#aadf2f53eec8c20e6d7085a1de24b4946" target="_top" xlink:title=" ">
<polygon fill="none" stroke="black" points="258,-49.5 258,-79.5 377,-79.5 377,-49.5 258,-49.5"/>
<text text-anchor="start" x="266" y="-67.5" font-family="Helvetica,sans-Serif" font-size="10.00">giraffe::gdl::DataLink</text>
<text text-anchor="middle" x="317.5" y="-56.5" font-family="Helvetica,sans-Serif" font-size="10.00">::enable</text>
</a>
</g>
</g>
<!-- Node4&#45;&gt;Node5 -->
<g id="edge4" class="edge">
<title>Node4&#45;&gt;Node5</title>
<path fill="none" stroke="midnightblue" d="M402.51,-64.5C394.01,-64.5 385.38,-64.5 377.06,-64.5"/>
<polygon fill="midnightblue" stroke="midnightblue" points="402.78,-68 412.78,-64.5 402.78,-61 402.78,-68"/>
</g>
<!-- Node6 -->
<g id="node6" class="node">
<title>Node6</title>
<g id="a_node6"><a xlink:href="gdl__terminal_8cpp.html#a3c04138a5bfe5d72780bb7e82a18e627" target="_top" xlink:title=" ">
<polygon fill="none" stroke="black" points="129,-74 129,-93 170,-93 170,-74 129,-74"/>
<text text-anchor="middle" x="149.5" y="-81" font-family="Helvetica,sans-Serif" font-size="10.00">main</text>
</a>
</g>
</g>
<!-- Node5&#45;&gt;Node6 -->
<g id="edge5" class="edge">
<title>Node5&#45;&gt;Node6</title>
<path fill="none" stroke="midnightblue" d="M247.78,-72.37C219.76,-75.57 189.5,-79.04 170.3,-81.23"/>
<polygon fill="midnightblue" stroke="midnightblue" points="248.44,-75.81 257.97,-71.2 247.64,-68.86 248.44,-75.81"/>
</g>
<!-- Node7 -->
<g id="node7" class="node">
<title>Node7</title>
<g id="a_node7"><a xlink:href="classgiraffe_1_1gdl_1_1GdlServer.html#a7982a27f1e9ee790d196a5cd8cba6217" target="_top" xlink:title=" ">
<polygon fill="none" stroke="black" points="77,-36 77,-55 222,-55 222,-36 77,-36"/>
<text text-anchor="middle" x="149.5" y="-43" font-family="Helvetica,sans-Serif" font-size="10.00">giraffe::gdl::GdlServer::run</text>
</a>
</g>
</g>
<!-- Node5&#45;&gt;Node7 -->
<g id="edge6" class="edge">
<title>Node5&#45;&gt;Node7</title>
<path fill="none" stroke="midnightblue" d="M247.79,-56.64C239.33,-55.67 230.67,-54.68 222.17,-53.7"/>
<polygon fill="midnightblue" stroke="midnightblue" points="247.64,-60.14 257.97,-57.8 248.44,-53.19 247.64,-60.14"/>
</g>
<!-- Node8 -->
<g id="node8" class="node">
<title>Node8</title>
<g id="a_node8"><a xlink:href="data__link_2server_2main_8cpp.html#ae66f6b31b5ad750f1fe042a706a4e3d4" target="_top" xlink:title=" ">
<polygon fill="none" stroke="black" points="0,-36 0,-55 41,-55 41,-36 0,-36"/>
<text text-anchor="middle" x="20.5" y="-43" font-family="Helvetica,sans-Serif" font-size="10.00">main</text>
</a>
</g>
</g>
<!-- Node7&#45;&gt;Node8 -->
<g id="edge7" class="edge">
<title>Node7&#45;&gt;Node8</title>
<path fill="none" stroke="midnightblue" d="M66.79,-45.5C57.31,-45.5 48.43,-45.5 41.08,-45.5"/>
<polygon fill="midnightblue" stroke="midnightblue" points="66.83,-49 76.83,-45.5 66.83,-42 66.83,-49"/>
</g>
<!-- Node9&#45;&gt;Node3 -->
<g id="edge9" class="edge">
<title>Node9&#45;&gt;Node3</title>
<path fill="none" stroke="midnightblue" d="M740.76,-64.5C732.15,-64.5 723.52,-64.5 715.13,-64.5"/>
<polygon fill="midnightblue" stroke="midnightblue" points="740.82,-68 750.82,-64.5 740.82,-61 740.82,-68"/>
</g>
<!-- Node10&#45;&gt;Node3 -->
<g id="edge11" class="edge">
<title>Node10&#45;&gt;Node3</title>
<path fill="none" stroke="midnightblue" d="M764.45,-33.05C743.59,-38.43 720.83,-44.3 700.69,-49.49"/>
<polygon fill="midnightblue" stroke="midnightblue" points="765.39,-36.42 774.2,-30.53 763.65,-29.64 765.39,-36.42"/>
</g>
</g>
</svg>
