<?xml version="1.0" encoding="UTF-8" standalone="no"?>
<!DOCTYPE svg PUBLIC "-//W3C//DTD SVG 1.1//EN"
 "http://www.w3.org/Graphics/SVG/1.1/DTD/svg11.dtd">
<!-- Generated by graphviz version 2.43.0 (0)
 -->
<!-- Title: modules::Module Pages: 1 -->
<svg width="1082pt" height="963pt"
 viewBox="0.00 0.00 1082.00 963.00" xmlns="http://www.w3.org/2000/svg" xmlns:xlink="http://www.w3.org/1999/xlink">
<g id="graph0" class="graph" transform="scale(1 1) rotate(0) translate(4 959)">
<title>modules::Module</title>
<!-- Node1 -->
<g id="Node000001" class="node">
<title>Node1</title>
<g id="a_Node000001"><a xlink:title=" ">
<polygon fill="#999999" stroke="transparent" points="596.5,-955 477.5,-955 477.5,-501 596.5,-501 596.5,-955"/>
<text text-anchor="start" x="495" y="-943" font-family="Helvetica,sans-Serif" font-size="10.00">modules::Module</text>
<text text-anchor="start" x="482" y="-928" font-family="Helvetica,sans-Serif" font-size="10.00">#</text>
<text text-anchor="start" x="495" y="-928" font-family="Helvetica,sans-Serif" font-size="10.00">configuration_</text>
<text text-anchor="start" x="482" y="-913" font-family="Helvetica,sans-Serif" font-size="10.00">#</text>
<text text-anchor="start" x="495" y="-913" font-family="Helvetica,sans-Serif" font-size="10.00">metadata_</text>
<text text-anchor="start" x="482" y="-898" font-family="Helvetica,sans-Serif" font-size="10.00">#</text>
<text text-anchor="start" x="495" y="-898" font-family="Helvetica,sans-Serif" font-size="10.00">shared_data_</text>
<text text-anchor="start" x="484.5" y="-883" font-family="Helvetica,sans-Serif" font-size="10.00">&#45;</text>
<text text-anchor="start" x="495" y="-883" font-family="Helvetica,sans-Serif" font-size="10.00">command_queue_</text>
<text text-anchor="start" x="484.5" y="-868" font-family="Helvetica,sans-Serif" font-size="10.00">&#45;</text>
<text text-anchor="start" x="495" y="-868" font-family="Helvetica,sans-Serif" font-size="10.00">runner_thread_</text>
<text text-anchor="start" x="484.5" y="-853" font-family="Helvetica,sans-Serif" font-size="10.00">&#45;</text>
<text text-anchor="start" x="495" y="-853" font-family="Helvetica,sans-Serif" font-size="10.00">status_</text>
<text text-anchor="start" x="484.5" y="-838" font-family="Helvetica,sans-Serif" font-size="10.00">&#45;</text>
<text text-anchor="start" x="495" y="-838" font-family="Helvetica,sans-Serif" font-size="10.00">stop_flag_</text>
<text text-anchor="start" x="482" y="-823" font-family="Helvetica,sans-Serif" font-size="10.00">+</text>
<text text-anchor="start" x="495" y="-823" font-family="Helvetica,sans-Serif" font-size="10.00">Module()</text>
<text text-anchor="start" x="482" y="-808" font-family="Helvetica,sans-Serif" font-size="10.00">+</text>
<text text-anchor="start" x="495" y="-808" font-family="Helvetica,sans-Serif" font-size="10.00">Module()</text>
<text text-anchor="start" x="482" y="-793" font-family="Helvetica,sans-Serif" font-size="10.00">+</text>
<text text-anchor="start" x="495" y="-793" font-family="Helvetica,sans-Serif" font-size="10.00">~Module()</text>
<text text-anchor="start" x="482" y="-778" font-family="Helvetica,sans-Serif" font-size="10.00">+</text>
<text text-anchor="start" x="495" y="-778" font-family="Helvetica,sans-Serif" font-size="10.00">addCommand()</text>
<text text-anchor="start" x="482" y="-763" font-family="Helvetica,sans-Serif" font-size="10.00">+</text>
<text text-anchor="start" x="495" y="-763" font-family="Helvetica,sans-Serif" font-size="10.00">getStatus()</text>
<text text-anchor="start" x="482" y="-748" font-family="Helvetica,sans-Serif" font-size="10.00">+</text>
<text text-anchor="start" x="495" y="-748" font-family="Helvetica,sans-Serif" font-size="10.00">operator=()</text>
<text text-anchor="start" x="482" y="-733" font-family="Helvetica,sans-Serif" font-size="10.00">+</text>
<text text-anchor="start" x="495" y="-733" font-family="Helvetica,sans-Serif" font-size="10.00">start()</text>
<text text-anchor="start" x="482" y="-718" font-family="Helvetica,sans-Serif" font-size="10.00">+</text>
<text text-anchor="start" x="495" y="-718" font-family="Helvetica,sans-Serif" font-size="10.00">stop()</text>
<text text-anchor="start" x="482" y="-703" font-family="Helvetica,sans-Serif" font-size="10.00">#</text>
<text text-anchor="start" x="495" y="-703" font-family="Helvetica,sans-Serif" font-size="10.00">data()</text>
<text text-anchor="start" x="482" y="-688" font-family="Helvetica,sans-Serif" font-size="10.00">#</text>
<text text-anchor="start" x="495" y="-688" font-family="Helvetica,sans-Serif" font-size="10.00">debug()</text>
<text text-anchor="start" x="482" y="-673" font-family="Helvetica,sans-Serif" font-size="10.00">#</text>
<text text-anchor="start" x="495" y="-673" font-family="Helvetica,sans-Serif" font-size="10.00">error()</text>
<text text-anchor="start" x="482" y="-658" font-family="Helvetica,sans-Serif" font-size="10.00">#</text>
<text text-anchor="start" x="495" y="-658" font-family="Helvetica,sans-Serif" font-size="10.00">error()</text>
<text text-anchor="start" x="482" y="-643" font-family="Helvetica,sans-Serif" font-size="10.00">#</text>
<text text-anchor="start" x="495" y="-643" font-family="Helvetica,sans-Serif" font-size="10.00">info()</text>
<text text-anchor="start" x="482" y="-628" font-family="Helvetica,sans-Serif" font-size="10.00">#</text>
<text text-anchor="start" x="495" y="-628" font-family="Helvetica,sans-Serif" font-size="10.00">loop()</text>
<text text-anchor="start" x="482" y="-613" font-family="Helvetica,sans-Serif" font-size="10.00">#</text>
<text text-anchor="start" x="495" y="-613" font-family="Helvetica,sans-Serif" font-size="10.00">processCommand()</text>
<text text-anchor="start" x="482" y="-598" font-family="Helvetica,sans-Serif" font-size="10.00">#</text>
<text text-anchor="start" x="495" y="-598" font-family="Helvetica,sans-Serif" font-size="10.00">setStatus()</text>
<text text-anchor="start" x="482" y="-583" font-family="Helvetica,sans-Serif" font-size="10.00">#</text>
<text text-anchor="start" x="495" y="-583" font-family="Helvetica,sans-Serif" font-size="10.00">shutdown()</text>
<text text-anchor="start" x="482" y="-568" font-family="Helvetica,sans-Serif" font-size="10.00">#</text>
<text text-anchor="start" x="495" y="-568" font-family="Helvetica,sans-Serif" font-size="10.00">sleep()</text>
<text text-anchor="start" x="482" y="-553" font-family="Helvetica,sans-Serif" font-size="10.00">#</text>
<text text-anchor="start" x="495" y="-553" font-family="Helvetica,sans-Serif" font-size="10.00">startup()</text>
<text text-anchor="start" x="482" y="-538" font-family="Helvetica,sans-Serif" font-size="10.00">#</text>
<text text-anchor="start" x="495" y="-538" font-family="Helvetica,sans-Serif" font-size="10.00">stopRequested()</text>
<text text-anchor="start" x="482" y="-523" font-family="Helvetica,sans-Serif" font-size="10.00">#</text>
<text text-anchor="start" x="495" y="-523" font-family="Helvetica,sans-Serif" font-size="10.00">updateLocalConfig()</text>
<text text-anchor="start" x="484.5" y="-508" font-family="Helvetica,sans-Serif" font-size="10.00">&#45;</text>
<text text-anchor="start" x="495" y="-508" font-family="Helvetica,sans-Serif" font-size="10.00">runner()</text>
<polygon fill="#666666" stroke="#666666" points="478,-938 478,-938 597,-938 597,-938 478,-938"/>
<polygon fill="#666666" stroke="#666666" points="478,-833 478,-833 493,-833 493,-833 478,-833"/>
<polygon fill="#666666" stroke="#666666" points="493,-833 493,-833 597,-833 597,-833 493,-833"/>
<polygon fill="none" stroke="#666666" points="477.5,-501 477.5,-955 596.5,-955 596.5,-501 477.5,-501"/>
</a>
</g>
</g>
<!-- Node2 -->
<g id="Node000002" class="node">
<title>Node2</title>
<g id="a_Node000002"><a xlink:href="classmodules_1_1ConsoleModule.html" target="_top" xlink:title="The console module is a module that provides a console interface for the flight system.">
<polygon fill="white" stroke="transparent" points="134,-332 0,-332 0,-133 134,-133 134,-332"/>
<text text-anchor="start" x="5" y="-319.5" font-family="Helvetica,sans-Serif" font-size="10.00">modules::ConsoleModule</text>
<text text-anchor="start" x="10.5" y="-304.5" font-family="Helvetica,sans-Serif" font-size="10.00">&#45;</text>
<text text-anchor="start" x="25" y="-304.5" font-family="Helvetica,sans-Serif" font-size="10.00">ncurs_env_</text>
<text text-anchor="start" x="10.5" y="-289.5" font-family="Helvetica,sans-Serif" font-size="10.00">&#45;</text>
<text text-anchor="start" x="25" y="-289.5" font-family="Helvetica,sans-Serif" font-size="10.00">pages_</text>
<text text-anchor="start" x="8" y="-274.5" font-family="Helvetica,sans-Serif" font-size="10.00">+</text>
<text text-anchor="start" x="25" y="-274.5" font-family="Helvetica,sans-Serif" font-size="10.00">ConsoleModule()</text>
<text text-anchor="start" x="8" y="-259.5" font-family="Helvetica,sans-Serif" font-size="10.00">+</text>
<text text-anchor="start" x="25" y="-259.5" font-family="Helvetica,sans-Serif" font-size="10.00">ConsoleModule()</text>
<text text-anchor="start" x="8" y="-244.5" font-family="Helvetica,sans-Serif" font-size="10.00">+</text>
<text text-anchor="start" x="25" y="-244.5" font-family="Helvetica,sans-Serif" font-size="10.00">~ConsoleModule()</text>
<text text-anchor="start" x="8" y="-229.5" font-family="Helvetica,sans-Serif" font-size="10.00">+</text>
<text text-anchor="start" x="25" y="-229.5" font-family="Helvetica,sans-Serif" font-size="10.00">operator=()</text>
<text text-anchor="start" x="10.5" y="-214.5" font-family="Helvetica,sans-Serif" font-size="10.00">&#45;</text>
<text text-anchor="start" x="25" y="-214.5" font-family="Helvetica,sans-Serif" font-size="10.00">configSection()</text>
<text text-anchor="start" x="10.5" y="-199.5" font-family="Helvetica,sans-Serif" font-size="10.00">&#45;</text>
<text text-anchor="start" x="25" y="-199.5" font-family="Helvetica,sans-Serif" font-size="10.00">loop()</text>
<text text-anchor="start" x="10.5" y="-184.5" font-family="Helvetica,sans-Serif" font-size="10.00">&#45;</text>
<text text-anchor="start" x="25" y="-184.5" font-family="Helvetica,sans-Serif" font-size="10.00">processCommand()</text>
<text text-anchor="start" x="10.5" y="-169.5" font-family="Helvetica,sans-Serif" font-size="10.00">&#45;</text>
<text text-anchor="start" x="25" y="-169.5" font-family="Helvetica,sans-Serif" font-size="10.00">shutdown()</text>
<text text-anchor="start" x="10.5" y="-154.5" font-family="Helvetica,sans-Serif" font-size="10.00">&#45;</text>
<text text-anchor="start" x="25" y="-154.5" font-family="Helvetica,sans-Serif" font-size="10.00">startup()</text>
<text text-anchor="start" x="10.5" y="-139.5" font-family="Helvetica,sans-Serif" font-size="10.00">&#45;</text>
<text text-anchor="start" x="25" y="-139.5" font-family="Helvetica,sans-Serif" font-size="10.00">status()</text>
<polygon fill="#666666" stroke="#666666" points="0,-314.5 0,-314.5 134,-314.5 134,-314.5 0,-314.5"/>
<polygon fill="#666666" stroke="#666666" points="0,-284.5 0,-284.5 23,-284.5 23,-284.5 0,-284.5"/>
<polygon fill="#666666" stroke="#666666" points="23,-284.5 23,-284.5 134,-284.5 134,-284.5 23,-284.5"/>
<polygon fill="none" stroke="#666666" points="0,-133 0,-332 134,-332 134,-133 0,-133"/>
</a>
</g>
</g>
<!-- Node1&#45;&gt;Node2 -->
<g id="edge1_Node000001_Node000002" class="edge">
<title>Node1&#45;&gt;Node2</title>
<g id="a_edge1_Node000001_Node000002"><a xlink:title=" ">
<path fill="none" stroke="#63b8ff" d="M468.14,-698.53C380.33,-658.82 229.53,-578.68 143,-465 113.67,-426.46 95.37,-376.08 84.1,-332.17"/>
<polygon fill="none" stroke="#63b8ff" points="466.92,-701.82 477.48,-702.7 469.78,-695.43 466.92,-701.82"/>
</a>
</g>
</g>
<!-- Node3 -->
<g id="Node000003" class="node">
<title>Node3</title>
<g id="a_Node000003"><a xlink:href="classmodules_1_1DataModule.html" target="_top" xlink:title="A major module of the Giraffe Flight System that handles data flow through the system.">
<polygon fill="white" stroke="transparent" points="354,-465 152,-465 152,0 354,0 354,-465"/>
<text text-anchor="start" x="199" y="-452.5" font-family="Helvetica,sans-Serif" font-size="10.00">modules::DataModule</text>
<text text-anchor="start" x="158.5" y="-437.5" font-family="Helvetica,sans-Serif" font-size="10.00">&#45;</text>
<text text-anchor="start" x="169" y="-437.5" font-family="Helvetica,sans-Serif" font-size="10.00">adc_interpolation_</text>
<text text-anchor="start" x="158.5" y="-422.5" font-family="Helvetica,sans-Serif" font-size="10.00">&#45;</text>
<text text-anchor="start" x="169" y="-422.5" font-family="Helvetica,sans-Serif" font-size="10.00">calculated_data_</text>
<text text-anchor="start" x="158.5" y="-407.5" font-family="Helvetica,sans-Serif" font-size="10.00">&#45;</text>
<text text-anchor="start" x="169" y="-407.5" font-family="Helvetica,sans-Serif" font-size="10.00">console_module_enabled_</text>
<text text-anchor="start" x="158.5" y="-392.5" font-family="Helvetica,sans-Serif" font-size="10.00">&#45;</text>
<text text-anchor="start" x="169" y="-392.5" font-family="Helvetica,sans-Serif" font-size="10.00">data_file_enabled_</text>
<text text-anchor="start" x="158.5" y="-377.5" font-family="Helvetica,sans-Serif" font-size="10.00">&#45;</text>
<text text-anchor="start" x="169" y="-377.5" font-family="Helvetica,sans-Serif" font-size="10.00">data_file_logging_strategy_</text>
<text text-anchor="start" x="158.5" y="-362.5" font-family="Helvetica,sans-Serif" font-size="10.00">&#45;</text>
<text text-anchor="start" x="169" y="-362.5" font-family="Helvetica,sans-Serif" font-size="10.00">data_log_</text>
<text text-anchor="start" x="158.5" y="-347.5" font-family="Helvetica,sans-Serif" font-size="10.00">&#45;</text>
<text text-anchor="start" x="169" y="-347.5" font-family="Helvetica,sans-Serif" font-size="10.00">error_file_logging</text>
<text text-anchor="start" x="169" y="-336.5" font-family="Helvetica,sans-Serif" font-size="10.00">_strategy_</text>
<text text-anchor="start" x="158.5" y="-321.5" font-family="Helvetica,sans-Serif" font-size="10.00">&#45;</text>
<text text-anchor="start" x="169" y="-321.5" font-family="Helvetica,sans-Serif" font-size="10.00">file_system_</text>
<text text-anchor="start" x="158.5" y="-306.5" font-family="Helvetica,sans-Serif" font-size="10.00">&#45;</text>
<text text-anchor="start" x="169" y="-306.5" font-family="Helvetica,sans-Serif" font-size="10.00">influxdb_</text>
<text text-anchor="start" x="158.5" y="-291.5" font-family="Helvetica,sans-Serif" font-size="10.00">&#45;</text>
<text text-anchor="start" x="169" y="-291.5" font-family="Helvetica,sans-Serif" font-size="10.00">influxdb_enabled_</text>
<text text-anchor="start" x="158.5" y="-276.5" font-family="Helvetica,sans-Serif" font-size="10.00">&#45;</text>
<text text-anchor="start" x="169" y="-276.5" font-family="Helvetica,sans-Serif" font-size="10.00">influxdb_write_rate_ms_</text>
<text text-anchor="start" x="158.5" y="-261.5" font-family="Helvetica,sans-Serif" font-size="10.00">&#45;</text>
<text text-anchor="start" x="169" y="-261.5" font-family="Helvetica,sans-Serif" font-size="10.00">log_file_enabled_</text>
<text text-anchor="start" x="158.5" y="-246.5" font-family="Helvetica,sans-Serif" font-size="10.00">&#45;</text>
<text text-anchor="start" x="169" y="-246.5" font-family="Helvetica,sans-Serif" font-size="10.00">print_errors_to_console_</text>
<text text-anchor="start" x="156" y="-231.5" font-family="Helvetica,sans-Serif" font-size="10.00">+</text>
<text text-anchor="start" x="169" y="-231.5" font-family="Helvetica,sans-Serif" font-size="10.00">DataModule()</text>
<text text-anchor="start" x="156" y="-216.5" font-family="Helvetica,sans-Serif" font-size="10.00">+</text>
<text text-anchor="start" x="169" y="-216.5" font-family="Helvetica,sans-Serif" font-size="10.00">~DataModule()</text>
<text text-anchor="start" x="158.5" y="-201.5" font-family="Helvetica,sans-Serif" font-size="10.00">&#45;</text>
<text text-anchor="start" x="169" y="-201.5" font-family="Helvetica,sans-Serif" font-size="10.00">loop()</text>
<text text-anchor="start" x="158.5" y="-186.5" font-family="Helvetica,sans-Serif" font-size="10.00">&#45;</text>
<text text-anchor="start" x="169" y="-186.5" font-family="Helvetica,sans-Serif" font-size="10.00">parseCameraNewImageDataPacket()</text>
<text text-anchor="start" x="158.5" y="-171.5" font-family="Helvetica,sans-Serif" font-size="10.00">&#45;</text>
<text text-anchor="start" x="169" y="-171.5" font-family="Helvetica,sans-Serif" font-size="10.00">parseExtensionDataPacket()</text>
<text text-anchor="start" x="158.5" y="-156.5" font-family="Helvetica,sans-Serif" font-size="10.00">&#45;</text>
<text text-anchor="start" x="169" y="-156.5" font-family="Helvetica,sans-Serif" font-size="10.00">parseGeneralDataPacket()</text>
<text text-anchor="start" x="158.5" y="-141.5" font-family="Helvetica,sans-Serif" font-size="10.00">&#45;</text>
<text text-anchor="start" x="169" y="-141.5" font-family="Helvetica,sans-Serif" font-size="10.00">parseStatusDataPacket()</text>
<text text-anchor="start" x="158.5" y="-126.5" font-family="Helvetica,sans-Serif" font-size="10.00">&#45;</text>
<text text-anchor="start" x="169" y="-126.5" font-family="Helvetica,sans-Serif" font-size="10.00">processAllStreams()</text>
<text text-anchor="start" x="158.5" y="-111.5" font-family="Helvetica,sans-Serif" font-size="10.00">&#45;</text>
<text text-anchor="start" x="169" y="-111.5" font-family="Helvetica,sans-Serif" font-size="10.00">processCommand()</text>
<text text-anchor="start" x="158.5" y="-96.5" font-family="Helvetica,sans-Serif" font-size="10.00">&#45;</text>
<text text-anchor="start" x="169" y="-96.5" font-family="Helvetica,sans-Serif" font-size="10.00">processDataPacket()</text>
<text text-anchor="start" x="158.5" y="-81.5" font-family="Helvetica,sans-Serif" font-size="10.00">&#45;</text>
<text text-anchor="start" x="169" y="-81.5" font-family="Helvetica,sans-Serif" font-size="10.00">processGpsFramePacket()</text>
<text text-anchor="start" x="158.5" y="-66.5" font-family="Helvetica,sans-Serif" font-size="10.00">&#45;</text>
<text text-anchor="start" x="169" y="-66.5" font-family="Helvetica,sans-Serif" font-size="10.00">processImuFramePacket()</text>
<text text-anchor="start" x="158.5" y="-51.5" font-family="Helvetica,sans-Serif" font-size="10.00">&#45;</text>
<text text-anchor="start" x="169" y="-51.5" font-family="Helvetica,sans-Serif" font-size="10.00">processLogPacket()</text>
<text text-anchor="start" x="158.5" y="-36.5" font-family="Helvetica,sans-Serif" font-size="10.00">&#45;</text>
<text text-anchor="start" x="169" y="-36.5" font-family="Helvetica,sans-Serif" font-size="10.00">processStream()</text>
<text text-anchor="start" x="158.5" y="-21.5" font-family="Helvetica,sans-Serif" font-size="10.00">&#45;</text>
<text text-anchor="start" x="169" y="-21.5" font-family="Helvetica,sans-Serif" font-size="10.00">shutdown()</text>
<text text-anchor="start" x="158.5" y="-6.5" font-family="Helvetica,sans-Serif" font-size="10.00">&#45;</text>
<text text-anchor="start" x="169" y="-6.5" font-family="Helvetica,sans-Serif" font-size="10.00">startup()</text>
<polygon fill="#666666" stroke="#666666" points="152,-447.5 152,-447.5 354,-447.5 354,-447.5 152,-447.5"/>
<polygon fill="#666666" stroke="#666666" points="152,-241.5 152,-241.5 167,-241.5 167,-241.5 152,-241.5"/>
<polygon fill="#666666" stroke="#666666" points="167,-241.5 167,-241.5 354,-241.5 354,-241.5 167,-241.5"/>
<polygon fill="none" stroke="#666666" points="152,0 152,-465 354,-465 354,0 152,0"/>
</a>
</g>
</g>
<!-- Node1&#45;&gt;Node3 -->
<g id="edge2_Node000001_Node000003" class="edge">
<title>Node1&#45;&gt;Node3</title>
<g id="a_edge2_Node000001_Node000003"><a xlink:title=" ">
<path fill="none" stroke="#63b8ff" d="M471.6,-635.53C437.46,-586.11 396.05,-523.4 363,-465 360.04,-459.77 357.09,-454.45 354.15,-449.06"/>
<polygon fill="none" stroke="#63b8ff" points="468.87,-637.74 477.44,-643.97 474.63,-633.76 468.87,-637.74"/>
</a>
</g>
</g>
<!-- Node4 -->
<g id="Node000004" class="node">
<title>Node4</title>
<g id="a_Node000004"><a xlink:href="classmodules_1_1ExtensionModule.html" target="_top" xlink:title=" ">
<polygon fill="white" stroke="transparent" points="535.5,-422 372.5,-422 372.5,-43 535.5,-43 535.5,-422"/>
<text text-anchor="start" x="388" y="-409.5" font-family="Helvetica,sans-Serif" font-size="10.00">modules::ExtensionModule</text>
<text text-anchor="start" x="379.5" y="-394.5" font-family="Helvetica,sans-Serif" font-size="10.00">&#45;</text>
<text text-anchor="start" x="390" y="-394.5" font-family="Helvetica,sans-Serif" font-size="10.00">extension_metadata_</text>
<text text-anchor="start" x="379.5" y="-379.5" font-family="Helvetica,sans-Serif" font-size="10.00">&#45;</text>
<text text-anchor="start" x="390" y="-379.5" font-family="Helvetica,sans-Serif" font-size="10.00">extension_resources_</text>
<text text-anchor="start" x="379.5" y="-364.5" font-family="Helvetica,sans-Serif" font-size="10.00">&#45;</text>
<text text-anchor="start" x="390" y="-364.5" font-family="Helvetica,sans-Serif" font-size="10.00">extensions_</text>
<text text-anchor="start" x="379.5" y="-349.5" font-family="Helvetica,sans-Serif" font-size="10.00">&#45;</text>
<text text-anchor="start" x="390" y="-349.5" font-family="Helvetica,sans-Serif" font-size="10.00">max_restart_attempts_</text>
<text text-anchor="start" x="379.5" y="-334.5" font-family="Helvetica,sans-Serif" font-size="10.00">&#45;</text>
<text text-anchor="start" x="390" y="-334.5" font-family="Helvetica,sans-Serif" font-size="10.00">max_startup_attempts_</text>
<text text-anchor="start" x="379.5" y="-319.5" font-family="Helvetica,sans-Serif" font-size="10.00">&#45;</text>
<text text-anchor="start" x="390" y="-319.5" font-family="Helvetica,sans-Serif" font-size="10.00">restart_delay_</text>
<text text-anchor="start" x="379.5" y="-304.5" font-family="Helvetica,sans-Serif" font-size="10.00">&#45;</text>
<text text-anchor="start" x="390" y="-304.5" font-family="Helvetica,sans-Serif" font-size="10.00">startup_timeout_</text>
<text text-anchor="start" x="379.5" y="-289.5" font-family="Helvetica,sans-Serif" font-size="10.00">&#45;</text>
<text text-anchor="start" x="390" y="-289.5" font-family="Helvetica,sans-Serif" font-size="10.00">stats_</text>
<text text-anchor="start" x="379.5" y="-274.5" font-family="Helvetica,sans-Serif" font-size="10.00">&#45;</text>
<text text-anchor="start" x="390" y="-274.5" font-family="Helvetica,sans-Serif" font-size="10.00">status_polling_interval_</text>
<text text-anchor="start" x="379.5" y="-259.5" font-family="Helvetica,sans-Serif" font-size="10.00">&#45;</text>
<text text-anchor="start" x="390" y="-259.5" font-family="Helvetica,sans-Serif" font-size="10.00">status_polling_timer_</text>
<text text-anchor="start" x="377" y="-244.5" font-family="Helvetica,sans-Serif" font-size="10.00">+</text>
<text text-anchor="start" x="390" y="-244.5" font-family="Helvetica,sans-Serif" font-size="10.00">ExtensionModule()</text>
<text text-anchor="start" x="377" y="-229.5" font-family="Helvetica,sans-Serif" font-size="10.00">+</text>
<text text-anchor="start" x="390" y="-229.5" font-family="Helvetica,sans-Serif" font-size="10.00">~ExtensionModule()</text>
<text text-anchor="start" x="379.5" y="-214.5" font-family="Helvetica,sans-Serif" font-size="10.00">&#45;</text>
<text text-anchor="start" x="390" y="-214.5" font-family="Helvetica,sans-Serif" font-size="10.00">addExtension()</text>
<text text-anchor="start" x="379.5" y="-199.5" font-family="Helvetica,sans-Serif" font-size="10.00">&#45;</text>
<text text-anchor="start" x="390" y="-199.5" font-family="Helvetica,sans-Serif" font-size="10.00">addPreConfiguredExtension()</text>
<text text-anchor="start" x="379.5" y="-184.5" font-family="Helvetica,sans-Serif" font-size="10.00">&#45;</text>
<text text-anchor="start" x="390" y="-184.5" font-family="Helvetica,sans-Serif" font-size="10.00">createExtension()</text>
<text text-anchor="start" x="379.5" y="-169.5" font-family="Helvetica,sans-Serif" font-size="10.00">&#45;</text>
<text text-anchor="start" x="390" y="-169.5" font-family="Helvetica,sans-Serif" font-size="10.00">disableState()</text>
<text text-anchor="start" x="379.5" y="-154.5" font-family="Helvetica,sans-Serif" font-size="10.00">&#45;</text>
<text text-anchor="start" x="390" y="-154.5" font-family="Helvetica,sans-Serif" font-size="10.00">errorDisableState()</text>
<text text-anchor="start" x="379.5" y="-139.5" font-family="Helvetica,sans-Serif" font-size="10.00">&#45;</text>
<text text-anchor="start" x="390" y="-139.5" font-family="Helvetica,sans-Serif" font-size="10.00">errorRestartState()</text>
<text text-anchor="start" x="379.5" y="-124.5" font-family="Helvetica,sans-Serif" font-size="10.00">&#45;</text>
<text text-anchor="start" x="390" y="-124.5" font-family="Helvetica,sans-Serif" font-size="10.00">errorStartState()</text>
<text text-anchor="start" x="379.5" y="-109.5" font-family="Helvetica,sans-Serif" font-size="10.00">&#45;</text>
<text text-anchor="start" x="390" y="-109.5" font-family="Helvetica,sans-Serif" font-size="10.00">loop()</text>
<text text-anchor="start" x="379.5" y="-94.5" font-family="Helvetica,sans-Serif" font-size="10.00">&#45;</text>
<text text-anchor="start" x="390" y="-94.5" font-family="Helvetica,sans-Serif" font-size="10.00">processCommand()</text>
<text text-anchor="start" x="379.5" y="-79.5" font-family="Helvetica,sans-Serif" font-size="10.00">&#45;</text>
<text text-anchor="start" x="390" y="-79.5" font-family="Helvetica,sans-Serif" font-size="10.00">restartState()</text>
<text text-anchor="start" x="390" y="-64.5" font-family="Helvetica,sans-Serif" font-size="10.00">and 8 more...</text>
<text text-anchor="start" x="379.5" y="-49.5" font-family="Helvetica,sans-Serif" font-size="10.00">&#45;</text>
<text text-anchor="start" x="390" y="-49.5" font-family="Helvetica,sans-Serif" font-size="10.00">actionToString()</text>
<polygon fill="#666666" stroke="#666666" points="373,-404.5 373,-404.5 536,-404.5 536,-404.5 373,-404.5"/>
<polygon fill="#666666" stroke="#666666" points="373,-254.5 373,-254.5 388,-254.5 388,-254.5 373,-254.5"/>
<polygon fill="#666666" stroke="#666666" points="388,-254.5 388,-254.5 536,-254.5 536,-254.5 388,-254.5"/>
<polygon fill="none" stroke="#666666" points="372.5,-43 372.5,-422 535.5,-422 535.5,-43 372.5,-43"/>
</a>
</g>
</g>
<!-- Node1&#45;&gt;Node4 -->
<g id="edge3_Node000001_Node000004" class="edge">
<title>Node1&#45;&gt;Node4</title>
<g id="a_edge3_Node000001_Node000004"><a xlink:title=" ">
<path fill="none" stroke="#63b8ff" d="M497.25,-490.67C493.4,-467.75 489.52,-444.72 485.76,-422.35"/>
<polygon fill="none" stroke="#63b8ff" points="493.85,-491.55 498.96,-500.83 500.75,-490.39 493.85,-491.55"/>
</a>
</g>
</g>
<!-- Node5 -->
<g id="Node000005" class="node">
<title>Node5</title>
<g id="a_Node000005"><a xlink:href="group__ServerModule.html#classmodules_1_1ServerModule" target="_top" xlink:title="The server module. Provides a network interface for interacting with the flight system.">
<polygon fill="white" stroke="transparent" points="688,-324.5 554,-324.5 554,-140.5 688,-140.5 688,-324.5"/>
<text text-anchor="start" x="563" y="-312.5" font-family="Helvetica,sans-Serif" font-size="10.00">modules::ServerModule</text>
<text text-anchor="start" x="560.5" y="-297.5" font-family="Helvetica,sans-Serif" font-size="10.00">&#45;</text>
<text text-anchor="start" x="571" y="-297.5" font-family="Helvetica,sans-Serif" font-size="10.00">connected_timeout_</text>
<text text-anchor="start" x="560.5" y="-282.5" font-family="Helvetica,sans-Serif" font-size="10.00">&#45;</text>
<text text-anchor="start" x="571" y="-282.5" font-family="Helvetica,sans-Serif" font-size="10.00">request_router_</text>
<text text-anchor="start" x="560.5" y="-267.5" font-family="Helvetica,sans-Serif" font-size="10.00">&#45;</text>
<text text-anchor="start" x="571" y="-267.5" font-family="Helvetica,sans-Serif" font-size="10.00">rolling_average_timer_</text>
<text text-anchor="start" x="560.5" y="-252.5" font-family="Helvetica,sans-Serif" font-size="10.00">&#45;</text>
<text text-anchor="start" x="571" y="-252.5" font-family="Helvetica,sans-Serif" font-size="10.00">server_socket_</text>
<text text-anchor="start" x="560.5" y="-237.5" font-family="Helvetica,sans-Serif" font-size="10.00">&#45;</text>
<text text-anchor="start" x="571" y="-237.5" font-family="Helvetica,sans-Serif" font-size="10.00">stats_</text>
<text text-anchor="start" x="558" y="-222.5" font-family="Helvetica,sans-Serif" font-size="10.00">+</text>
<text text-anchor="start" x="571" y="-222.5" font-family="Helvetica,sans-Serif" font-size="10.00">ServerModule()</text>
<text text-anchor="start" x="558" y="-207.5" font-family="Helvetica,sans-Serif" font-size="10.00">+</text>
<text text-anchor="start" x="571" y="-207.5" font-family="Helvetica,sans-Serif" font-size="10.00">~ServerModule()</text>
<text text-anchor="start" x="560.5" y="-192.5" font-family="Helvetica,sans-Serif" font-size="10.00">&#45;</text>
<text text-anchor="start" x="571" y="-192.5" font-family="Helvetica,sans-Serif" font-size="10.00">loop()</text>
<text text-anchor="start" x="560.5" y="-177.5" font-family="Helvetica,sans-Serif" font-size="10.00">&#45;</text>
<text text-anchor="start" x="571" y="-177.5" font-family="Helvetica,sans-Serif" font-size="10.00">processCommand()</text>
<text text-anchor="start" x="560.5" y="-162.5" font-family="Helvetica,sans-Serif" font-size="10.00">&#45;</text>
<text text-anchor="start" x="571" y="-162.5" font-family="Helvetica,sans-Serif" font-size="10.00">shutdown()</text>
<text text-anchor="start" x="560.5" y="-147.5" font-family="Helvetica,sans-Serif" font-size="10.00">&#45;</text>
<text text-anchor="start" x="571" y="-147.5" font-family="Helvetica,sans-Serif" font-size="10.00">startup()</text>
<polygon fill="#666666" stroke="#666666" points="554,-307.5 554,-307.5 688,-307.5 688,-307.5 554,-307.5"/>
<polygon fill="#666666" stroke="#666666" points="554,-232.5 554,-232.5 569,-232.5 569,-232.5 554,-232.5"/>
<polygon fill="#666666" stroke="#666666" points="569,-232.5 569,-232.5 688,-232.5 688,-232.5 569,-232.5"/>
<polygon fill="none" stroke="#666666" points="554,-140.5 554,-324.5 688,-324.5 688,-140.5 554,-140.5"/>
</a>
</g>
</g>
<!-- Node1&#45;&gt;Node5 -->
<g id="edge4_Node000001_Node000005" class="edge">
<title>Node1&#45;&gt;Node5</title>
<g id="a_edge4_Node000001_Node000005"><a xlink:title=" ">
<path fill="none" stroke="#63b8ff" d="M577.18,-490.97C587.24,-431.86 597.44,-371.93 605.46,-324.78"/>
<polygon fill="none" stroke="#63b8ff" points="573.72,-490.39 575.5,-500.83 580.63,-491.56 573.72,-490.39"/>
</a>
</g>
</g>
<!-- Node6 -->
<g id="Node000006" class="node">
<title>Node6</title>
<g id="a_Node000006"><a xlink:href="classmodules_1_1SystemModule.html" target="_top" xlink:title=" ">
<polygon fill="white" stroke="transparent" points="866,-324.5 706,-324.5 706,-140.5 866,-140.5 866,-324.5"/>
<text text-anchor="start" x="725.5" y="-312.5" font-family="Helvetica,sans-Serif" font-size="10.00">modules::SystemModule</text>
<text text-anchor="start" x="712.5" y="-297.5" font-family="Helvetica,sans-Serif" font-size="10.00">&#45;</text>
<text text-anchor="start" x="723" y="-297.5" font-family="Helvetica,sans-Serif" font-size="10.00">data_</text>
<text text-anchor="start" x="710" y="-282.5" font-family="Helvetica,sans-Serif" font-size="10.00">+</text>
<text text-anchor="start" x="723" y="-282.5" font-family="Helvetica,sans-Serif" font-size="10.00">SystemModule()</text>
<text text-anchor="start" x="710" y="-267.5" font-family="Helvetica,sans-Serif" font-size="10.00">+</text>
<text text-anchor="start" x="723" y="-267.5" font-family="Helvetica,sans-Serif" font-size="10.00">~SystemModule()</text>
<text text-anchor="start" x="712.5" y="-252.5" font-family="Helvetica,sans-Serif" font-size="10.00">&#45;</text>
<text text-anchor="start" x="723" y="-252.5" font-family="Helvetica,sans-Serif" font-size="10.00">loop()</text>
<text text-anchor="start" x="712.5" y="-237.5" font-family="Helvetica,sans-Serif" font-size="10.00">&#45;</text>
<text text-anchor="start" x="723" y="-237.5" font-family="Helvetica,sans-Serif" font-size="10.00">processCommand()</text>
<text text-anchor="start" x="712.5" y="-222.5" font-family="Helvetica,sans-Serif" font-size="10.00">&#45;</text>
<text text-anchor="start" x="723" y="-222.5" font-family="Helvetica,sans-Serif" font-size="10.00">shutdown()</text>
<text text-anchor="start" x="712.5" y="-207.5" font-family="Helvetica,sans-Serif" font-size="10.00">&#45;</text>
<text text-anchor="start" x="723" y="-207.5" font-family="Helvetica,sans-Serif" font-size="10.00">startup()</text>
<text text-anchor="start" x="712.5" y="-192.5" font-family="Helvetica,sans-Serif" font-size="10.00">&#45;</text>
<text text-anchor="start" x="723" y="-192.5" font-family="Helvetica,sans-Serif" font-size="10.00">updateCpuAndMemoryInfo()</text>
<text text-anchor="start" x="712.5" y="-177.5" font-family="Helvetica,sans-Serif" font-size="10.00">&#45;</text>
<text text-anchor="start" x="723" y="-177.5" font-family="Helvetica,sans-Serif" font-size="10.00">updateCpuTemp()</text>
<text text-anchor="start" x="712.5" y="-162.5" font-family="Helvetica,sans-Serif" font-size="10.00">&#45;</text>
<text text-anchor="start" x="723" y="-162.5" font-family="Helvetica,sans-Serif" font-size="10.00">updateDiskInfo()</text>
<text text-anchor="start" x="712.5" y="-147.5" font-family="Helvetica,sans-Serif" font-size="10.00">&#45;</text>
<text text-anchor="start" x="723" y="-147.5" font-family="Helvetica,sans-Serif" font-size="10.00">updateNetworkInfo()</text>
<polygon fill="#666666" stroke="#666666" points="706,-307.5 706,-307.5 866,-307.5 866,-307.5 706,-307.5"/>
<polygon fill="#666666" stroke="#666666" points="706,-292.5 706,-292.5 721,-292.5 721,-292.5 706,-292.5"/>
<polygon fill="#666666" stroke="#666666" points="721,-292.5 721,-292.5 866,-292.5 866,-292.5 721,-292.5"/>
<polygon fill="none" stroke="#666666" points="706,-140.5 706,-324.5 866,-324.5 866,-140.5 706,-140.5"/>
</a>
</g>
</g>
<!-- Node1&#45;&gt;Node6 -->
<g id="edge5_Node000001_Node000006" class="edge">
<title>Node1&#45;&gt;Node6</title>
<g id="a_edge5_Node000001_Node000006"><a xlink:title=" ">
<path fill="none" stroke="#63b8ff" d="M602.2,-629.77C633.1,-581.41 669.23,-521.38 697,-465 719.16,-420 739.59,-368.01 755.26,-324.72"/>
<polygon fill="none" stroke="#63b8ff" points="599.14,-628.04 596.69,-638.35 605.04,-631.82 599.14,-628.04"/>
</a>
</g>
</g>
<!-- Node7 -->
<g id="Node000007" class="node">
<title>Node7</title>
<g id="a_Node000007"><a xlink:href="classmodules_1_1TelemetryModule.html" target="_top" xlink:title=" ">
<polygon fill="white" stroke="transparent" points="1074,-410.5 884,-410.5 884,-54.5 1074,-54.5 1074,-410.5"/>
<text text-anchor="start" x="912.5" y="-398.5" font-family="Helvetica,sans-Serif" font-size="10.00">modules::TelemetryModule</text>
<text text-anchor="start" x="890.5" y="-383.5" font-family="Helvetica,sans-Serif" font-size="10.00">&#45;</text>
<text text-anchor="start" x="901" y="-383.5" font-family="Helvetica,sans-Serif" font-size="10.00">aprs_manager_data_update</text>
<text text-anchor="start" x="901" y="-372.5" font-family="Helvetica,sans-Serif" font-size="10.00">_timer_</text>
<text text-anchor="start" x="890.5" y="-357.5" font-family="Helvetica,sans-Serif" font-size="10.00">&#45;</text>
<text text-anchor="start" x="901" y="-357.5" font-family="Helvetica,sans-Serif" font-size="10.00">aprs_position_packet</text>
<text text-anchor="start" x="901" y="-346.5" font-family="Helvetica,sans-Serif" font-size="10.00">_timer_</text>
<text text-anchor="start" x="890.5" y="-331.5" font-family="Helvetica,sans-Serif" font-size="10.00">&#45;</text>
<text text-anchor="start" x="901" y="-331.5" font-family="Helvetica,sans-Serif" font-size="10.00">aprs_telemetry_manager_</text>
<text text-anchor="start" x="890.5" y="-316.5" font-family="Helvetica,sans-Serif" font-size="10.00">&#45;</text>
<text text-anchor="start" x="901" y="-316.5" font-family="Helvetica,sans-Serif" font-size="10.00">gdl_</text>
<text text-anchor="start" x="890.5" y="-301.5" font-family="Helvetica,sans-Serif" font-size="10.00">&#45;</text>
<text text-anchor="start" x="901" y="-301.5" font-family="Helvetica,sans-Serif" font-size="10.00">gdl_config_</text>
<text text-anchor="start" x="890.5" y="-286.5" font-family="Helvetica,sans-Serif" font-size="10.00">&#45;</text>
<text text-anchor="start" x="901" y="-286.5" font-family="Helvetica,sans-Serif" font-size="10.00">last_received_message_</text>
<text text-anchor="start" x="890.5" y="-271.5" font-family="Helvetica,sans-Serif" font-size="10.00">&#45;</text>
<text text-anchor="start" x="901" y="-271.5" font-family="Helvetica,sans-Serif" font-size="10.00">message_id_</text>
<text text-anchor="start" x="890.5" y="-256.5" font-family="Helvetica,sans-Serif" font-size="10.00">&#45;</text>
<text text-anchor="start" x="901" y="-256.5" font-family="Helvetica,sans-Serif" font-size="10.00">physical_layer_</text>
<text text-anchor="start" x="890.5" y="-241.5" font-family="Helvetica,sans-Serif" font-size="10.00">&#45;</text>
<text text-anchor="start" x="901" y="-241.5" font-family="Helvetica,sans-Serif" font-size="10.00">total_messages_received_</text>
<text text-anchor="start" x="890.5" y="-226.5" font-family="Helvetica,sans-Serif" font-size="10.00">&#45;</text>
<text text-anchor="start" x="901" y="-226.5" font-family="Helvetica,sans-Serif" font-size="10.00">total_messages_sent_</text>
<text text-anchor="start" x="888" y="-211.5" font-family="Helvetica,sans-Serif" font-size="10.00">+</text>
<text text-anchor="start" x="901" y="-211.5" font-family="Helvetica,sans-Serif" font-size="10.00">TelemetryModule()</text>
<text text-anchor="start" x="888" y="-196.5" font-family="Helvetica,sans-Serif" font-size="10.00">+</text>
<text text-anchor="start" x="901" y="-196.5" font-family="Helvetica,sans-Serif" font-size="10.00">~TelemetryModule()</text>
<text text-anchor="start" x="890.5" y="-181.5" font-family="Helvetica,sans-Serif" font-size="10.00">&#45;</text>
<text text-anchor="start" x="901" y="-181.5" font-family="Helvetica,sans-Serif" font-size="10.00">getNextMessageId()</text>
<text text-anchor="start" x="890.5" y="-166.5" font-family="Helvetica,sans-Serif" font-size="10.00">&#45;</text>
<text text-anchor="start" x="901" y="-166.5" font-family="Helvetica,sans-Serif" font-size="10.00">loop()</text>
<text text-anchor="start" x="890.5" y="-151.5" font-family="Helvetica,sans-Serif" font-size="10.00">&#45;</text>
<text text-anchor="start" x="901" y="-151.5" font-family="Helvetica,sans-Serif" font-size="10.00">processCommand()</text>
<text text-anchor="start" x="890.5" y="-136.5" font-family="Helvetica,sans-Serif" font-size="10.00">&#45;</text>
<text text-anchor="start" x="901" y="-136.5" font-family="Helvetica,sans-Serif" font-size="10.00">processTelemetryMessageQueue()</text>
<text text-anchor="start" x="890.5" y="-121.5" font-family="Helvetica,sans-Serif" font-size="10.00">&#45;</text>
<text text-anchor="start" x="901" y="-121.5" font-family="Helvetica,sans-Serif" font-size="10.00">reportDescent()</text>
<text text-anchor="start" x="890.5" y="-106.5" font-family="Helvetica,sans-Serif" font-size="10.00">&#45;</text>
<text text-anchor="start" x="901" y="-106.5" font-family="Helvetica,sans-Serif" font-size="10.00">sendAprsPositionPacket()</text>
<text text-anchor="start" x="890.5" y="-91.5" font-family="Helvetica,sans-Serif" font-size="10.00">&#45;</text>
<text text-anchor="start" x="901" y="-91.5" font-family="Helvetica,sans-Serif" font-size="10.00">sendSstvImage()</text>
<text text-anchor="start" x="890.5" y="-76.5" font-family="Helvetica,sans-Serif" font-size="10.00">&#45;</text>
<text text-anchor="start" x="901" y="-76.5" font-family="Helvetica,sans-Serif" font-size="10.00">shutdown()</text>
<text text-anchor="start" x="890.5" y="-61.5" font-family="Helvetica,sans-Serif" font-size="10.00">&#45;</text>
<text text-anchor="start" x="901" y="-61.5" font-family="Helvetica,sans-Serif" font-size="10.00">startup()</text>
<polygon fill="#666666" stroke="#666666" points="884,-393.5 884,-393.5 1074,-393.5 1074,-393.5 884,-393.5"/>
<polygon fill="#666666" stroke="#666666" points="884,-221.5 884,-221.5 899,-221.5 899,-221.5 884,-221.5"/>
<polygon fill="#666666" stroke="#666666" points="899,-221.5 899,-221.5 1074,-221.5 1074,-221.5 899,-221.5"/>
<polygon fill="none" stroke="#666666" points="884,-54.5 884,-410.5 1074,-410.5 1074,-54.5 884,-54.5"/>
</a>
</g>
</g>
<!-- Node1&#45;&gt;Node7 -->
<g id="edge6_Node000001_Node000007" class="edge">
<title>Node1&#45;&gt;Node7</title>
<g id="a_edge6_Node000001_Node000007"><a xlink:title=" ">
<path fill="none" stroke="#63b8ff" d="M605.66,-687.94C680.32,-642.55 799.1,-561.43 875,-465 888.08,-448.38 899.91,-429.86 910.5,-410.72"/>
<polygon fill="none" stroke="#63b8ff" points="603.54,-685.14 596.78,-693.3 607.15,-691.13 603.54,-685.14"/>
</a>
</g>
</g>
</g>
</svg>
