<?xml version="1.0" encoding="UTF-8" standalone="no"?>
<!DOCTYPE svg PUBLIC "-//W3C//DTD SVG 1.1//EN"
 "http://www.w3.org/Graphics/SVG/1.1/DTD/svg11.dtd">
<!-- Generated by graphviz version 2.43.0 (0)
 -->
<!-- Title: data_middleware::DataFormatter::logPacketToJsonString Pages: 1 -->
<svg width="402pt" height="76pt"
 viewBox="0.00 0.00 402.00 75.50" xmlns="http://www.w3.org/2000/svg" xmlns:xlink="http://www.w3.org/1999/xlink">
<g id="graph0" class="graph" transform="scale(1 1) rotate(0) translate(4 71.5)">
<title>data_middleware::DataFormatter::logPacketToJsonString</title>
<!-- Node1 -->
<g id="Node000001" class="node">
<title>Node1</title>
<g id="a_Node000001"><a xlink:title=" ">
<polygon fill="#999999" stroke="#666666" points="179,-45.5 0,-45.5 0,-15.5 179,-15.5 179,-45.5"/>
<text text-anchor="start" x="8" y="-33.5" font-family="Helvetica,sans-Serif" font-size="10.00">data_middleware::DataFormatter</text>
<text text-anchor="middle" x="89.5" y="-22.5" font-family="Helvetica,sans-Serif" font-size="10.00">::logPacketToJsonString</text>
</a>
</g>
</g>
<!-- Node2 -->
<g id="Node000002" class="node">
<title>Node2</title>
<g id="a_Node000002"><a xlink:href="classdata__middleware_1_1DataFormatter.html#af2d795c2cc5fcff3ba2e17b2c5b2d3fb" target="_top" xlink:title="Generates a timestamp based off of the current configuration.">
<polygon fill="white" stroke="#666666" points="394,-67.5 215,-67.5 215,-37.5 394,-37.5 394,-67.5"/>
<text text-anchor="start" x="223" y="-55.5" font-family="Helvetica,sans-Serif" font-size="10.00">data_middleware::DataFormatter</text>
<text text-anchor="middle" x="304.5" y="-44.5" font-family="Helvetica,sans-Serif" font-size="10.00">::generateTimestamp</text>
</a>
</g>
</g>
<!-- Node1&#45;&gt;Node2 -->
<g id="edge1_Node000001_Node000002" class="edge">
<title>Node1&#45;&gt;Node2</title>
<g id="a_edge1_Node000001_Node000002"><a xlink:title=" ">
<path fill="none" stroke="#63b8ff" d="M179.29,-39.67C187.74,-40.54 196.34,-41.43 204.88,-42.31"/>
<polygon fill="#63b8ff" stroke="#63b8ff" points="204.55,-45.8 214.86,-43.34 205.27,-38.84 204.55,-45.8"/>
</a>
</g>
</g>
<!-- Node3 -->
<g id="Node000003" class="node">
<title>Node3</title>
<g id="a_Node000003"><a xlink:href="namespaceutil.html#a8e9635f6a41c035d331ddaeb62259ba6" target="_top" xlink:title="Converts a flight phase to a string.">
<polygon fill="white" stroke="#666666" points="345,-19 264,-19 264,0 345,0 345,-19"/>
<text text-anchor="middle" x="304.5" y="-7" font-family="Helvetica,sans-Serif" font-size="10.00">util::to_string</text>
</a>
</g>
</g>
<!-- Node1&#45;&gt;Node3 -->
<g id="edge2_Node000001_Node000003" class="edge">
<title>Node1&#45;&gt;Node3</title>
<g id="a_edge2_Node000001_Node000003"><a xlink:title=" ">
<path fill="none" stroke="#63b8ff" d="M179.29,-21.75C204.71,-19.24 231.52,-16.6 253.7,-14.41"/>
<polygon fill="#63b8ff" stroke="#63b8ff" points="254.26,-17.87 263.87,-13.41 253.57,-10.91 254.26,-17.87"/>
</a>
</g>
</g>
</g>
</svg>
