<?xml version="1.0" encoding="UTF-8" standalone="no"?>
<!DOCTYPE svg PUBLIC "-//W3C//DTD SVG 1.1//EN"
 "http://www.w3.org/Graphics/SVG/1.1/DTD/svg11.dtd">
<!-- Generated by graphviz version 2.43.0 (0)
 -->
<!-- Title: data::blocks::Block&lt; T &gt; Pages: 1 -->
<svg width="224pt" height="204pt"
 viewBox="0.00 0.00 224.00 204.00" xmlns="http://www.w3.org/2000/svg" xmlns:xlink="http://www.w3.org/1999/xlink">
<g id="graph0" class="graph" transform="scale(1 1) rotate(0) translate(4 200)">
<title>data::blocks::Block&lt; T &gt;</title>
<!-- Node1 -->
<g id="node1" class="node">
<title>Node1</title>
<g id="a_node1"><a xlink:title="Simple Struct Container with a mutex. The struct must have a valid default constructor.">
<polygon fill="#bfbfbf" stroke="black" points="30.5,-0.5 30.5,-90.5 167.5,-90.5 167.5,-0.5 30.5,-0.5"/>
<text text-anchor="middle" x="99" y="-78.5" font-family="Helvetica,sans-Serif" font-size="10.00">data::blocks::Block&lt; T &gt;</text>
<polyline fill="none" stroke="black" points="30.5,-71.5 167.5,-71.5 "/>
<text text-anchor="middle" x="99" y="-59.5" font-family="Helvetica,sans-Serif" font-size="10.00"> </text>
<polyline fill="none" stroke="black" points="30.5,-52.5 167.5,-52.5 "/>
<text text-anchor="start" x="38.5" y="-40.5" font-family="Helvetica,sans-Serif" font-size="10.00">+ get()</text>
<text text-anchor="start" x="38.5" y="-29.5" font-family="Helvetica,sans-Serif" font-size="10.00">+ getAgeMs()</text>
<text text-anchor="start" x="38.5" y="-18.5" font-family="Helvetica,sans-Serif" font-size="10.00">+ getAgeSec()</text>
<text text-anchor="start" x="38.5" y="-7.5" font-family="Helvetica,sans-Serif" font-size="10.00">+ set()</text>
</a>
</g>
</g>
<!-- Node2 -->
<g id="node2" class="node">
<title>Node2</title>
<g id="a_node2"><a xlink:title=" ">
<polygon fill="none" stroke="#bfbfbf" points="0,-138.5 0,-195.5 48,-195.5 48,-138.5 0,-138.5"/>
<text text-anchor="middle" x="24" y="-183.5" font-family="Helvetica,sans-Serif" font-size="10.00">mutex</text>
<polyline fill="none" stroke="#bfbfbf" points="0,-176.5 48,-176.5 "/>
<text text-anchor="middle" x="24" y="-164.5" font-family="Helvetica,sans-Serif" font-size="10.00"> </text>
<polyline fill="none" stroke="#bfbfbf" points="0,-157.5 48,-157.5 "/>
<text text-anchor="middle" x="24" y="-145.5" font-family="Helvetica,sans-Serif" font-size="10.00"> </text>
</a>
</g>
</g>
<!-- Node2&#45;&gt;Node1 -->
<g id="edge1" class="edge">
<title>Node2&#45;&gt;Node1</title>
<path fill="none" stroke="#404040" d="M35.63,-138.42C40.03,-128.87 45.35,-118.25 51,-109 52.68,-106.25 54.46,-103.48 56.3,-100.71"/>
<polygon fill="none" stroke="#404040" points="56.37,-100.61 56.5,-93.4 63.21,-90.75 63.08,-97.96 56.37,-100.61"/>
<text text-anchor="middle" x="73" y="-112" font-family="Helvetica,sans-Serif" font-size="10.00"> &#45;mutex_</text>
</g>
<!-- Node3 -->
<g id="node3" class="node">
<title>Node3</title>
<g id="a_node3"><a xlink:title=" ">
<polygon fill="none" stroke="#bfbfbf" points="66,-138.5 66,-195.5 132,-195.5 132,-138.5 66,-138.5"/>
<text text-anchor="middle" x="99" y="-183.5" font-family="Helvetica,sans-Serif" font-size="10.00">TimePoint</text>
<polyline fill="none" stroke="#bfbfbf" points="66,-176.5 132,-176.5 "/>
<text text-anchor="middle" x="99" y="-164.5" font-family="Helvetica,sans-Serif" font-size="10.00"> </text>
<polyline fill="none" stroke="#bfbfbf" points="66,-157.5 132,-157.5 "/>
<text text-anchor="middle" x="99" y="-145.5" font-family="Helvetica,sans-Serif" font-size="10.00"> </text>
</a>
</g>
</g>
<!-- Node3&#45;&gt;Node1 -->
<g id="edge2" class="edge">
<title>Node3&#45;&gt;Node1</title>
<path fill="none" stroke="#404040" d="M99,-138.28C99,-127.73 99,-115.29 99,-103.03"/>
<polygon fill="none" stroke="#404040" points="99,-102.91 95,-96.91 99,-90.91 103,-96.91 99,-102.91"/>
<text text-anchor="middle" x="137" y="-112" font-family="Helvetica,sans-Serif" font-size="10.00"> &#45;last_updated_</text>
</g>
<!-- Node4 -->
<g id="node4" class="node">
<title>Node4</title>
<g id="a_node4"><a xlink:title=" ">
<polygon fill="none" stroke="#bfbfbf" points="183.5,-138.5 183.5,-195.5 212.5,-195.5 212.5,-138.5 183.5,-138.5"/>
<text text-anchor="middle" x="198" y="-183.5" font-family="Helvetica,sans-Serif" font-size="10.00">T</text>
<polyline fill="none" stroke="#bfbfbf" points="183.5,-176.5 212.5,-176.5 "/>
<text text-anchor="middle" x="198" y="-164.5" font-family="Helvetica,sans-Serif" font-size="10.00"> </text>
<polyline fill="none" stroke="#bfbfbf" points="183.5,-157.5 212.5,-157.5 "/>
<text text-anchor="middle" x="198" y="-145.5" font-family="Helvetica,sans-Serif" font-size="10.00"> </text>
</a>
</g>
</g>
<!-- Node4&#45;&gt;Node1 -->
<g id="edge3" class="edge">
<title>Node4&#45;&gt;Node1</title>
<path fill="none" stroke="#404040" d="M190.6,-138.44C187.15,-128.58 182.36,-117.75 176,-109 173.67,-105.8 171.14,-102.67 168.46,-99.62"/>
<polygon fill="none" stroke="#404040" points="168.29,-99.44 161.26,-97.85 160.03,-90.74 167.06,-92.34 168.29,-99.44"/>
<text text-anchor="middle" x="199" y="-112" font-family="Helvetica,sans-Serif" font-size="10.00"> &#45;data_</text>
</g>
</g>
</svg>
