<?xml version="1.0" encoding="UTF-8" standalone="no"?>
<!DOCTYPE svg PUBLIC "-//W3C//DTD SVG 1.1//EN"
 "http://www.w3.org/Graphics/SVG/1.1/DTD/svg11.dtd">
<!-- Generated by graphviz version 2.43.0 (0)
 -->
<!-- Title: extension::Extension::info Pages: 1 -->
<svg width="786pt" height="528pt"
 viewBox="0.00 0.00 786.00 528.46" xmlns="http://www.w3.org/2000/svg" xmlns:xlink="http://www.w3.org/1999/xlink">
<g id="graph0" class="graph" transform="scale(1 1) rotate(0) translate(4 524.46)">
<title>extension::Extension::info</title>
<!-- Node1 -->
<g id="Node000001" class="node">
<title>Node1</title>
<g id="a_Node000001"><a xlink:title=" ">
<polygon fill="#999999" stroke="#666666" points="778,-242.46 659,-242.46 659,-212.46 778,-212.46 778,-242.46"/>
<text text-anchor="start" x="667" y="-230.46" font-family="Helvetica,sans-Serif" font-size="10.00">extension::Extension</text>
<text text-anchor="middle" x="718.5" y="-219.46" font-family="Helvetica,sans-Serif" font-size="10.00">::info</text>
</a>
</g>
</g>
<!-- Node1&#45;&gt;Node1 -->
<g id="edge23_Node000001_Node000001" class="edge">
<title>Node1&#45;&gt;Node1</title>
<g id="a_edge23_Node000001_Node000001"><a xlink:title=" ">
<path fill="none" stroke="#63b8ff" d="M745.46,-253.06C741.77,-257.43 732.79,-260.46 718.5,-260.46 694.44,-260.46 685.41,-251.87 691.43,-242.74"/>
<polygon fill="#63b8ff" stroke="#63b8ff" points="748.96,-252.78 745.57,-242.74 741.96,-252.7 748.96,-252.78"/>
</a>
</g>
</g>
<!-- Node2 -->
<g id="Node000002" class="node">
<title>Node2</title>
<g id="a_Node000002"><a xlink:href="classextension_1_1Extension.html#a19983e8b5715a6e3db8d1aee4c7df5f6" target="_top" xlink:title=" ">
<polygon fill="white" stroke="#666666" points="623,-266.46 504,-266.46 504,-236.46 623,-236.46 623,-266.46"/>
<text text-anchor="start" x="512" y="-254.46" font-family="Helvetica,sans-Serif" font-size="10.00">extension::Extension</text>
<text text-anchor="middle" x="563.5" y="-243.46" font-family="Helvetica,sans-Serif" font-size="10.00">::debug</text>
</a>
</g>
</g>
<!-- Node1&#45;&gt;Node2 -->
<g id="edge1_Node000001_Node000002" class="edge">
<title>Node1&#45;&gt;Node2</title>
<g id="a_edge1_Node000001_Node000002"><a xlink:title=" ">
<path fill="none" stroke="#63b8ff" d="M648.79,-238.24C640.2,-239.59 631.47,-240.96 623.06,-242.28"/>
<polygon fill="#63b8ff" stroke="#63b8ff" points="649.45,-241.68 658.78,-236.67 648.36,-234.76 649.45,-241.68"/>
</a>
</g>
</g>
<!-- Node17 -->
<g id="Node000017" class="node">
<title>Node17</title>
<g id="a_Node000017"><a xlink:href="classextension_1_1Extension.html#aaae6a7d91b77ac86a6e597bf0071889d" target="_top" xlink:title=" ">
<polygon fill="white" stroke="#666666" points="623,-218.46 504,-218.46 504,-188.46 623,-188.46 623,-218.46"/>
<text text-anchor="start" x="512" y="-206.46" font-family="Helvetica,sans-Serif" font-size="10.00">extension::Extension</text>
<text text-anchor="middle" x="563.5" y="-195.46" font-family="Helvetica,sans-Serif" font-size="10.00">::error</text>
</a>
</g>
</g>
<!-- Node1&#45;&gt;Node17 -->
<g id="edge22_Node000001_Node000017" class="edge">
<title>Node1&#45;&gt;Node17</title>
<g id="a_edge22_Node000001_Node000017"><a xlink:title=" ">
<path fill="none" stroke="#63b8ff" d="M648.79,-216.68C640.2,-215.34 631.47,-213.97 623.06,-212.65"/>
<polygon fill="#63b8ff" stroke="#63b8ff" points="648.36,-220.16 658.78,-218.25 649.45,-213.24 648.36,-220.16"/>
</a>
</g>
</g>
<!-- Node3 -->
<g id="Node000003" class="node">
<title>Node3</title>
<g id="a_Node000003"><a xlink:href="classextension_1_1RgbStatusLed.html#a6bd44653c1e3b8f607e72015b92b39df" target="_top" xlink:title=" ">
<polygon fill="white" stroke="#666666" points="468,-520.46 331,-520.46 331,-490.46 468,-490.46 468,-520.46"/>
<text text-anchor="start" x="339" y="-508.46" font-family="Helvetica,sans-Serif" font-size="10.00">extension::RgbStatusLed</text>
<text text-anchor="middle" x="399.5" y="-497.46" font-family="Helvetica,sans-Serif" font-size="10.00">::RgbStatusLed</text>
</a>
</g>
</g>
<!-- Node2&#45;&gt;Node3 -->
<g id="edge2_Node000002_Node000003" class="edge">
<title>Node2&#45;&gt;Node3</title>
<g id="a_edge2_Node000002_Node000003"><a xlink:title=" ">
<path fill="none" stroke="#63b8ff" d="M558.99,-276.65C551.17,-323.45 528.02,-424.27 468,-481.46 464.4,-484.89 460.27,-487.84 455.88,-490.37"/>
<polygon fill="#63b8ff" stroke="#63b8ff" points="562.45,-277.16 560.55,-266.74 555.54,-276.07 562.45,-277.16"/>
</a>
</g>
</g>
<!-- Node4 -->
<g id="Node000004" class="node">
<title>Node4</title>
<g id="a_Node000004"><a xlink:href="classextension_1_1Mcp3021.html#a62b663f2e0629940438589b7ba132cba" target="_top" xlink:title=" ">
<polygon fill="white" stroke="#666666" points="457,-472.46 342,-472.46 342,-442.46 457,-442.46 457,-472.46"/>
<text text-anchor="start" x="350" y="-460.46" font-family="Helvetica,sans-Serif" font-size="10.00">extension::Mcp3021</text>
<text text-anchor="middle" x="399.5" y="-449.46" font-family="Helvetica,sans-Serif" font-size="10.00">::adcStartup</text>
</a>
</g>
</g>
<!-- Node2&#45;&gt;Node4 -->
<g id="edge3_Node000002_Node000004" class="edge">
<title>Node2&#45;&gt;Node4</title>
<g id="a_edge3_Node000002_Node000004"><a xlink:title=" ">
<path fill="none" stroke="#63b8ff" d="M555.15,-276.31C542.86,-313.92 514.78,-385.48 468,-428.46 461.99,-433.98 454.76,-438.56 447.31,-442.31"/>
<polygon fill="#63b8ff" stroke="#63b8ff" points="558.53,-277.24 558.2,-266.65 551.85,-275.13 558.53,-277.24"/>
</a>
</g>
</g>
<!-- Node5 -->
<g id="Node000005" class="node">
<title>Node5</title>
<g id="a_Node000005"><a xlink:href="classextension_1_1Ds18b20.html#a1106e4fc9a110d11eeb65b7e85ba3d42" target="_top" xlink:title=" ">
<polygon fill="white" stroke="#666666" points="456,-386.46 343,-386.46 343,-356.46 456,-356.46 456,-386.46"/>
<text text-anchor="start" x="351" y="-374.46" font-family="Helvetica,sans-Serif" font-size="10.00">extension::Ds18b20</text>
<text text-anchor="middle" x="399.5" y="-363.46" font-family="Helvetica,sans-Serif" font-size="10.00">::init</text>
</a>
</g>
</g>
<!-- Node2&#45;&gt;Node5 -->
<g id="edge4_Node000002_Node000005" class="edge">
<title>Node2&#45;&gt;Node5</title>
<g id="a_edge4_Node000002_Node000005"><a xlink:title=" ">
<path fill="none" stroke="#63b8ff" d="M544.97,-274.52C527.54,-296.03 498.99,-327.71 468,-347.46 462.76,-350.8 456.99,-353.76 451.09,-356.34"/>
<polygon fill="#63b8ff" stroke="#63b8ff" points="547.83,-276.54 551.3,-266.54 542.35,-272.19 547.83,-276.54"/>
</a>
</g>
</g>
<!-- Node6 -->
<g id="Node000006" class="node">
<title>Node6</title>
<g id="a_Node000006"><a xlink:href="classextension_1_1Ds18b20.html#a4e5fac3093a35bf9837c476954f28e21" target="_top" xlink:title=" ">
<polygon fill="white" stroke="#666666" points="292,-407.46 179,-407.46 179,-377.46 292,-377.46 292,-407.46"/>
<text text-anchor="start" x="187" y="-395.46" font-family="Helvetica,sans-Serif" font-size="10.00">extension::Ds18b20</text>
<text text-anchor="middle" x="235.5" y="-384.46" font-family="Helvetica,sans-Serif" font-size="10.00">::startup</text>
</a>
</g>
</g>
<!-- Node2&#45;&gt;Node6 -->
<g id="edge10_Node000002_Node000006" class="edge">
<title>Node2&#45;&gt;Node6</title>
<g id="a_edge10_Node000002_Node000006"><a xlink:title=" ">
<path fill="none" stroke="#63b8ff" d="M554.49,-276.59C542.11,-310.69 514.74,-370.23 468,-395.46 413.53,-424.87 340.82,-417.81 291.53,-407.52"/>
<polygon fill="#63b8ff" stroke="#63b8ff" points="557.89,-277.49 557.86,-266.9 551.27,-275.2 557.89,-277.49"/>
</a>
</g>
</g>
<!-- Node7 -->
<g id="Node000007" class="node">
<title>Node7</title>
<g id="a_Node000007"><a xlink:href="classextension_1_1Ds18b20.html#acf4b0d0523885df4b2e9ec2bf35f4b9c" target="_top" xlink:title=" ">
<polygon fill="white" stroke="#666666" points="456,-338.46 343,-338.46 343,-308.46 456,-308.46 456,-338.46"/>
<text text-anchor="start" x="351" y="-326.46" font-family="Helvetica,sans-Serif" font-size="10.00">extension::Ds18b20</text>
<text text-anchor="middle" x="399.5" y="-315.46" font-family="Helvetica,sans-Serif" font-size="10.00">::loop</text>
</a>
</g>
</g>
<!-- Node2&#45;&gt;Node7 -->
<g id="edge6_Node000002_Node000007" class="edge">
<title>Node2&#45;&gt;Node7</title>
<g id="a_edge6_Node000002_Node000007"><a xlink:title=" ">
<path fill="none" stroke="#63b8ff" d="M526.04,-271.36C508.7,-280.46 487.54,-291.07 468,-299.46 460.8,-302.55 453.06,-305.58 445.47,-308.38"/>
<polygon fill="#63b8ff" stroke="#63b8ff" points="528.04,-274.26 535.24,-266.48 524.77,-268.08 528.04,-274.26"/>
</a>
</g>
</g>
<!-- Node8 -->
<g id="Node000008" class="node">
<title>Node8</title>
<g id="a_Node000008"><a xlink:href="classextension_1_1PiCamera.html#a2e7468202c0c0cc42271cb4f9b04c6f7" target="_top" xlink:title=" ">
<polygon fill="white" stroke="#666666" points="458.5,-290.46 340.5,-290.46 340.5,-260.46 458.5,-260.46 458.5,-290.46"/>
<text text-anchor="start" x="348.5" y="-278.46" font-family="Helvetica,sans-Serif" font-size="10.00">extension::PiCamera</text>
<text text-anchor="middle" x="399.5" y="-267.46" font-family="Helvetica,sans-Serif" font-size="10.00">::loop</text>
</a>
</g>
</g>
<!-- Node2&#45;&gt;Node8 -->
<g id="edge7_Node000002_Node000008" class="edge">
<title>Node2&#45;&gt;Node8</title>
<g id="a_edge7_Node000002_Node000008"><a xlink:title=" ">
<path fill="none" stroke="#63b8ff" d="M493.46,-261.69C481.84,-263.41 469.89,-265.18 458.59,-266.86"/>
<polygon fill="#63b8ff" stroke="#63b8ff" points="494.18,-265.12 503.56,-260.19 493.15,-258.2 494.18,-265.12"/>
</a>
</g>
</g>
<!-- Node9 -->
<g id="Node000009" class="node">
<title>Node9</title>
<g id="a_Node000009"><a xlink:href="classextension_1_1Mcp3021.html#a51dc6f0aef0765bceaf401578288cd67" target="_top" xlink:title=" ">
<polygon fill="white" stroke="#666666" points="457,-242.46 342,-242.46 342,-212.46 457,-212.46 457,-242.46"/>
<text text-anchor="start" x="350" y="-230.46" font-family="Helvetica,sans-Serif" font-size="10.00">extension::Mcp3021</text>
<text text-anchor="middle" x="399.5" y="-219.46" font-family="Helvetica,sans-Serif" font-size="10.00">::readAdc</text>
</a>
</g>
</g>
<!-- Node2&#45;&gt;Node9 -->
<g id="edge8_Node000002_Node000009" class="edge">
<title>Node2&#45;&gt;Node9</title>
<g id="a_edge8_Node000002_Node000009"><a xlink:title=" ">
<path fill="none" stroke="#63b8ff" d="M493.51,-241.24C481.41,-239.45 468.95,-237.6 457.24,-235.87"/>
<polygon fill="#63b8ff" stroke="#63b8ff" points="493.15,-244.73 503.56,-242.73 494.18,-237.8 493.15,-244.73"/>
</a>
</g>
</g>
<!-- Node11 -->
<g id="Node000011" class="node">
<title>Node11</title>
<g id="a_Node000011"><a xlink:href="classextension_1_1SamM8q.html#a58948f60001940a5235104b2f9b09c74" target="_top" xlink:title="Startup the extension.">
<polygon fill="white" stroke="#666666" points="459,-194.46 340,-194.46 340,-164.46 459,-164.46 459,-194.46"/>
<text text-anchor="start" x="348" y="-182.46" font-family="Helvetica,sans-Serif" font-size="10.00">extension::SamM8q::</text>
<text text-anchor="middle" x="399.5" y="-171.46" font-family="Helvetica,sans-Serif" font-size="10.00">startup</text>
</a>
</g>
</g>
<!-- Node2&#45;&gt;Node11 -->
<g id="edge11_Node000002_Node000011" class="edge">
<title>Node2&#45;&gt;Node11</title>
<g id="a_edge11_Node000002_Node000011"><a xlink:title=" ">
<path fill="none" stroke="#63b8ff" d="M513.47,-232.2C510.23,-230.67 507.05,-229.08 504,-227.46 487.02,-218.43 485.19,-212.08 468,-203.46 461.55,-200.23 454.56,-197.23 447.6,-194.52"/>
<polygon fill="#63b8ff" stroke="#63b8ff" points="512.12,-235.43 522.67,-236.37 515.01,-229.06 512.12,-235.43"/>
</a>
</g>
</g>
<!-- Node12 -->
<g id="Node000012" class="node">
<title>Node12</title>
<g id="a_Node000012"><a xlink:href="group__SAMM8QState.html#ga0d1392d5f89b5a24663ab1d47d4f1f15" target="_top" xlink:title=" ">
<polygon fill="white" stroke="#666666" points="295,-137.46 176,-137.46 176,-107.46 295,-107.46 295,-137.46"/>
<text text-anchor="start" x="184" y="-125.46" font-family="Helvetica,sans-Serif" font-size="10.00">extension::SamM8q::</text>
<text text-anchor="middle" x="235.5" y="-114.46" font-family="Helvetica,sans-Serif" font-size="10.00">stateConfigure</text>
</a>
</g>
</g>
<!-- Node2&#45;&gt;Node12 -->
<g id="edge12_Node000002_Node000012" class="edge">
<title>Node2&#45;&gt;Node12</title>
<g id="a_edge12_Node000002_Node000012"><a xlink:title=" ">
<path fill="none" stroke="#63b8ff" d="M508,-230.84C506.61,-229.77 505.27,-228.64 504,-227.46 477.78,-203.12 497.03,-176.38 468,-155.46 417.93,-119.39 345.71,-114.52 295.29,-116.51"/>
<polygon fill="#63b8ff" stroke="#63b8ff" points="506.19,-233.84 516.46,-236.44 510.05,-228 506.19,-233.84"/>
</a>
</g>
</g>
<!-- Node14 -->
<g id="Node000014" class="node">
<title>Node14</title>
<g id="a_Node000014"><a xlink:href="group__SAMM8QState.html#gab11516e268a094d0dedc47caf5f25a9d" target="_top" xlink:title=" ">
<polygon fill="white" stroke="#666666" points="295,-89.46 176,-89.46 176,-59.46 295,-59.46 295,-89.46"/>
<text text-anchor="start" x="184" y="-77.46" font-family="Helvetica,sans-Serif" font-size="10.00">extension::SamM8q::</text>
<text text-anchor="middle" x="235.5" y="-66.46" font-family="Helvetica,sans-Serif" font-size="10.00">stateRead</text>
</a>
</g>
</g>
<!-- Node2&#45;&gt;Node14 -->
<g id="edge14_Node000002_Node000014" class="edge">
<title>Node2&#45;&gt;Node14</title>
<g id="a_edge14_Node000002_Node000014"><a xlink:title=" ">
<path fill="none" stroke="#63b8ff" d="M506.76,-230.22C505.8,-229.34 504.88,-228.42 504,-227.46 467.79,-188 508.44,-147.58 468,-112.46 442.82,-90.6 355.14,-81.16 295.21,-77.19"/>
<polygon fill="#63b8ff" stroke="#63b8ff" points="504.67,-233.03 514.74,-236.31 508.91,-227.46 504.67,-233.03"/>
</a>
</g>
</g>
<!-- Node15 -->
<g id="Node000015" class="node">
<title>Node15</title>
<g id="a_Node000015"><a xlink:href="group__SAMM8QState.html#ga7c0542f4da8c084fa7b22d632f8e6dba" target="_top" xlink:title=" ">
<polygon fill="white" stroke="#666666" points="295,-41.46 176,-41.46 176,-11.46 295,-11.46 295,-41.46"/>
<text text-anchor="start" x="184" y="-29.46" font-family="Helvetica,sans-Serif" font-size="10.00">extension::SamM8q::</text>
<text text-anchor="middle" x="235.5" y="-18.46" font-family="Helvetica,sans-Serif" font-size="10.00">stateReset</text>
</a>
</g>
</g>
<!-- Node2&#45;&gt;Node15 -->
<g id="edge16_Node000002_Node000015" class="edge">
<title>Node2&#45;&gt;Node15</title>
<g id="a_edge16_Node000002_Node000015"><a xlink:title=" ">
<path fill="none" stroke="#63b8ff" d="M505.89,-229.63C505.24,-228.93 504.61,-228.21 504,-227.46 448.2,-158.68 535.43,-88.88 468,-31.46 417.8,11.28 336.91,1.31 285.26,-11.37"/>
<polygon fill="#63b8ff" stroke="#63b8ff" points="503.86,-232.5 513.75,-236.32 508.4,-227.17 503.86,-232.5"/>
</a>
</g>
</g>
<!-- Node16 -->
<g id="Node000016" class="node">
<title>Node16</title>
<g id="a_Node000016"><a xlink:href="group__SAMM8QState.html#ga5f1d24365206316560eb6979a46032dd" target="_top" xlink:title=" ">
<polygon fill="white" stroke="#666666" points="459,-70.46 340,-70.46 340,-40.46 459,-40.46 459,-70.46"/>
<text text-anchor="start" x="348" y="-58.46" font-family="Helvetica,sans-Serif" font-size="10.00">extension::SamM8q::</text>
<text text-anchor="middle" x="399.5" y="-47.46" font-family="Helvetica,sans-Serif" font-size="10.00">transitionState</text>
</a>
</g>
</g>
<!-- Node2&#45;&gt;Node16 -->
<g id="edge18_Node000002_Node000016" class="edge">
<title>Node2&#45;&gt;Node16</title>
<g id="a_edge18_Node000002_Node000016"><a xlink:title=" ">
<path fill="none" stroke="#63b8ff" d="M506.31,-229.92C505.51,-229.13 504.74,-228.31 504,-227.46 461.08,-177.93 510.51,-134.34 468,-84.46 463.2,-78.83 457.11,-74.26 450.56,-70.57"/>
<polygon fill="#63b8ff" stroke="#63b8ff" points="504.27,-232.77 514.26,-236.31 508.65,-227.32 504.27,-232.77"/>
</a>
</g>
</g>
<!-- Node5&#45;&gt;Node6 -->
<g id="edge5_Node000005_Node000006" class="edge">
<title>Node5&#45;&gt;Node6</title>
<g id="a_edge5_Node000005_Node000006"><a xlink:title=" ">
<path fill="none" stroke="#63b8ff" d="M332.6,-380C319.15,-381.75 305.13,-383.57 292.08,-385.26"/>
<polygon fill="#63b8ff" stroke="#63b8ff" points="333.28,-383.45 342.75,-378.69 332.38,-376.5 333.28,-383.45"/>
</a>
</g>
</g>
<!-- Node10 -->
<g id="Node000010" class="node">
<title>Node10</title>
<g id="a_Node000010"><a xlink:href="classextension_1_1Mcp3021.html#a34a36fefe55e92ad7b915f8758f66b9f" target="_top" xlink:title=" ">
<polygon fill="white" stroke="#666666" points="293,-242.46 178,-242.46 178,-212.46 293,-212.46 293,-242.46"/>
<text text-anchor="start" x="186" y="-230.46" font-family="Helvetica,sans-Serif" font-size="10.00">extension::Mcp3021</text>
<text text-anchor="middle" x="235.5" y="-219.46" font-family="Helvetica,sans-Serif" font-size="10.00">::i2cHandshake</text>
</a>
</g>
</g>
<!-- Node9&#45;&gt;Node10 -->
<g id="edge9_Node000009_Node000010" class="edge">
<title>Node9&#45;&gt;Node10</title>
<g id="a_edge9_Node000009_Node000010"><a xlink:title=" ">
<path fill="none" stroke="#63b8ff" d="M331.7,-227.46C318.88,-227.46 305.58,-227.46 293.13,-227.46"/>
<polygon fill="#63b8ff" stroke="#63b8ff" points="331.84,-230.96 341.84,-227.46 331.84,-223.96 331.84,-230.96"/>
</a>
</g>
</g>
<!-- Node13 -->
<g id="Node000013" class="node">
<title>Node13</title>
<g id="a_Node000013"><a xlink:href="classextension_1_1SamM8q.html#a07c59e7e854347253d743501e8cb5878" target="_top" xlink:title="Contains a simple state machine that will configure, reset, and read data from the sensor....">
<polygon fill="white" stroke="#666666" points="140,-83.96 0,-83.96 0,-64.96 140,-64.96 140,-83.96"/>
<text text-anchor="middle" x="70" y="-71.96" font-family="Helvetica,sans-Serif" font-size="10.00">extension::SamM8q::loop</text>
</a>
</g>
</g>
<!-- Node12&#45;&gt;Node13 -->
<g id="edge13_Node000012_Node000013" class="edge">
<title>Node12&#45;&gt;Node13</title>
<g id="a_edge13_Node000012_Node000013"><a xlink:title=" ">
<path fill="none" stroke="#63b8ff" d="M173.57,-104.57C149.83,-97.6 123.58,-89.9 103.58,-84.03"/>
<polygon fill="#63b8ff" stroke="#63b8ff" points="172.64,-107.95 183.22,-107.41 174.61,-101.23 172.64,-107.95"/>
</a>
</g>
</g>
<!-- Node14&#45;&gt;Node13 -->
<g id="edge15_Node000014_Node000013" class="edge">
<title>Node14&#45;&gt;Node13</title>
<g id="a_edge15_Node000014_Node000013"><a xlink:title=" ">
<path fill="none" stroke="#63b8ff" d="M165.7,-74.46C157.21,-74.46 148.52,-74.46 140.03,-74.46"/>
<polygon fill="#63b8ff" stroke="#63b8ff" points="165.93,-77.96 175.93,-74.46 165.93,-70.96 165.93,-77.96"/>
</a>
</g>
</g>
<!-- Node15&#45;&gt;Node13 -->
<g id="edge17_Node000015_Node000013" class="edge">
<title>Node15&#45;&gt;Node13</title>
<g id="a_edge17_Node000015_Node000013"><a xlink:title=" ">
<path fill="none" stroke="#63b8ff" d="M173.57,-44.35C149.83,-51.32 123.58,-59.03 103.58,-64.9"/>
<polygon fill="#63b8ff" stroke="#63b8ff" points="174.61,-47.69 183.22,-41.52 172.64,-40.98 174.61,-47.69"/>
</a>
</g>
</g>
<!-- Node16&#45;&gt;Node12 -->
<g id="edge19_Node000016_Node000012" class="edge">
<title>Node16&#45;&gt;Node12</title>
<g id="a_edge19_Node000016_Node000012"><a xlink:title=" ">
<path fill="none" stroke="#63b8ff" d="M352.47,-74.64C334.54,-82.09 313.82,-90.69 295,-98.46 288,-101.35 280.52,-104.43 273.33,-107.38"/>
<polygon fill="#63b8ff" stroke="#63b8ff" points="354.22,-77.7 362.11,-70.63 351.54,-71.23 354.22,-77.7"/>
</a>
</g>
</g>
<!-- Node16&#45;&gt;Node14 -->
<g id="edge20_Node000016_Node000014" class="edge">
<title>Node16&#45;&gt;Node14</title>
<g id="a_edge20_Node000016_Node000014"><a xlink:title=" ">
<path fill="none" stroke="#63b8ff" d="M329.58,-63.54C318.11,-64.89 306.31,-66.27 295.13,-67.59"/>
<polygon fill="#63b8ff" stroke="#63b8ff" points="330.03,-67.02 339.56,-62.37 329.22,-60.06 330.03,-67.02"/>
</a>
</g>
</g>
<!-- Node16&#45;&gt;Node15 -->
<g id="edge21_Node000016_Node000015" class="edge">
<title>Node16&#45;&gt;Node15</title>
<g id="a_edge21_Node000016_Node000015"><a xlink:title=" ">
<path fill="none" stroke="#63b8ff" d="M329.58,-43.13C318.11,-41.07 306.31,-38.96 295.13,-36.96"/>
<polygon fill="#63b8ff" stroke="#63b8ff" points="329.1,-46.59 339.56,-44.91 330.33,-39.7 329.1,-46.59"/>
</a>
</g>
</g>
</g>
</svg>
