<?xml version="1.0" encoding="UTF-8" standalone="no"?>
<!DOCTYPE svg PUBLIC "-//W3C//DTD SVG 1.1//EN"
 "http://www.w3.org/Graphics/SVG/1.1/DTD/svg11.dtd">
<!-- Generated by graphviz version 2.43.0 (0)
 -->
<!-- Title: CurlRequest::setMethod Pages: 1 -->
<svg width="326pt" height="78pt"
 viewBox="0.00 0.00 326.00 77.50" xmlns="http://www.w3.org/2000/svg" xmlns:xlink="http://www.w3.org/1999/xlink">
<g id="graph0" class="graph" transform="scale(1 1) rotate(0) translate(4 73.5)">
<title>CurlRequest::setMethod</title>
<!-- Node1 -->
<g id="node1" class="node">
<title>Node1</title>
<g id="a_node1"><a xlink:title=" ">
<polygon fill="#bfbfbf" stroke="black" points="184,-28 184,-47 318,-47 318,-28 184,-28"/>
<text text-anchor="middle" x="251" y="-35" font-family="Helvetica,sans-Serif" font-size="10.00">CurlRequest::setMethod</text>
</a>
</g>
</g>
<!-- Node2 -->
<g id="node2" class="node">
<title>Node2</title>
<g id="a_node2"><a xlink:href="curl__test_8cpp.html#ae66f6b31b5ad750f1fe042a706a4e3d4" target="_top" xlink:title=" ">
<polygon fill="none" stroke="black" points="53.5,-50 53.5,-69 94.5,-69 94.5,-50 53.5,-50"/>
<text text-anchor="middle" x="74" y="-57" font-family="Helvetica,sans-Serif" font-size="10.00">main</text>
</a>
</g>
</g>
<!-- Node1&#45;&gt;Node2 -->
<g id="edge1" class="edge">
<title>Node1&#45;&gt;Node2</title>
<path fill="none" stroke="midnightblue" d="M173.68,-47.09C144.71,-50.74 114.08,-54.59 94.77,-57.02"/>
<polygon fill="midnightblue" stroke="midnightblue" points="174.35,-50.54 183.84,-45.82 173.48,-43.59 174.35,-50.54"/>
</g>
<!-- Node3 -->
<g id="node3" class="node">
<title>Node3</title>
<g id="a_node3"><a xlink:href="classdata__middleware_1_1InfluxDb.html#a1e38c0c28d3f93307d307198b9506ff0" target="_top" xlink:title=" ">
<polygon fill="none" stroke="black" points="0,-0.5 0,-30.5 148,-30.5 148,-0.5 0,-0.5"/>
<text text-anchor="start" x="8" y="-18.5" font-family="Helvetica,sans-Serif" font-size="10.00">data_middleware::InfluxDb</text>
<text text-anchor="middle" x="74" y="-7.5" font-family="Helvetica,sans-Serif" font-size="10.00">::writeFrames</text>
</a>
</g>
</g>
<!-- Node1&#45;&gt;Node3 -->
<g id="edge2" class="edge">
<title>Node1&#45;&gt;Node3</title>
<path fill="none" stroke="midnightblue" d="M173.66,-27.9C165.23,-26.84 156.67,-25.77 148.28,-24.71"/>
<polygon fill="midnightblue" stroke="midnightblue" points="173.48,-31.41 183.84,-29.18 174.35,-24.46 173.48,-31.41"/>
</g>
</g>
</svg>
