<?xml version="1.0" encoding="UTF-8" standalone="no"?>
<!DOCTYPE svg PUBLIC "-//W3C//DTD SVG 1.1//EN"
 "http://www.w3.org/Graphics/SVG/1.1/DTD/svg11.dtd">
<!-- Generated by graphviz version 2.43.0 (0)
 -->
<!-- Title: FlightPhasePredictorTest::tick Pages: 1 -->
<svg width="963pt" height="298pt"
 viewBox="0.00 0.00 963.00 298.00" xmlns="http://www.w3.org/2000/svg" xmlns:xlink="http://www.w3.org/1999/xlink">
<g id="graph0" class="graph" transform="scale(1 1) rotate(0) translate(4 294)">
<title>FlightPhasePredictorTest::tick</title>
<!-- Node1 -->
<g id="node1" class="node">
<title>Node1</title>
<g id="a_node1"><a xlink:title=" ">
<polygon fill="#bfbfbf" stroke="black" points="0,-234.5 0,-264.5 137,-264.5 137,-234.5 0,-234.5"/>
<text text-anchor="start" x="8" y="-252.5" font-family="Helvetica,sans-Serif" font-size="10.00">FlightPhasePredictorTest</text>
<text text-anchor="middle" x="68.5" y="-241.5" font-family="Helvetica,sans-Serif" font-size="10.00">::tick</text>
</a>
</g>
</g>
<!-- Node2 -->
<g id="node2" class="node">
<title>Node2</title>
<g id="a_node2"><a xlink:href="classFlightPhasePredictor.html#aa56a7eeb78fb0ce2407ea537236bdcd3" target="_top" xlink:title="Get the phase probabilities structure.">
<polygon fill="none" stroke="black" points="173,-259.5 173,-289.5 293,-289.5 293,-259.5 173,-259.5"/>
<text text-anchor="start" x="181" y="-277.5" font-family="Helvetica,sans-Serif" font-size="10.00">FlightPhasePredictor</text>
<text text-anchor="middle" x="233" y="-266.5" font-family="Helvetica,sans-Serif" font-size="10.00">::getPhaseProbability</text>
</a>
</g>
</g>
<!-- Node1&#45;&gt;Node2 -->
<g id="edge1" class="edge">
<title>Node1&#45;&gt;Node2</title>
<path fill="none" stroke="midnightblue" d="M137,-259.89C145.59,-261.21 154.39,-262.56 163,-263.88"/>
<polygon fill="midnightblue" stroke="midnightblue" points="162.58,-267.36 172.99,-265.42 163.64,-260.44 162.58,-267.36"/>
</g>
<!-- Node3 -->
<g id="node3" class="node">
<title>Node3</title>
<g id="a_node3"><a xlink:href="classFlightPhasePredictor.html#a325f1d196644bc5ef1e635ef855f3d87" target="_top" xlink:title="Update the flight phase predictor.">
<polygon fill="none" stroke="black" points="174.5,-210.5 174.5,-240.5 291.5,-240.5 291.5,-210.5 174.5,-210.5"/>
<text text-anchor="start" x="182.5" y="-228.5" font-family="Helvetica,sans-Serif" font-size="10.00">FlightPhasePredictor</text>
<text text-anchor="middle" x="233" y="-217.5" font-family="Helvetica,sans-Serif" font-size="10.00">::update</text>
</a>
</g>
</g>
<!-- Node1&#45;&gt;Node3 -->
<g id="edge2" class="edge">
<title>Node1&#45;&gt;Node3</title>
<path fill="none" stroke="midnightblue" d="M137,-239.53C146,-238.2 155.23,-236.84 164.23,-235.51"/>
<polygon fill="midnightblue" stroke="midnightblue" points="164.89,-238.95 174.27,-234.03 163.87,-232.02 164.89,-238.95"/>
</g>
<!-- Node4 -->
<g id="node4" class="node">
<title>Node4</title>
<g id="a_node4"><a xlink:href="classFlightPhasePredictor.html#a67c51546dbc5964234cd0a4f654693eb" target="_top" xlink:title="Using the probabilities, determine the current flight phase.">
<polygon fill="none" stroke="black" points="331,-259.5 331,-289.5 448,-289.5 448,-259.5 331,-259.5"/>
<text text-anchor="start" x="339" y="-277.5" font-family="Helvetica,sans-Serif" font-size="10.00">FlightPhasePredictor</text>
<text text-anchor="middle" x="389.5" y="-266.5" font-family="Helvetica,sans-Serif" font-size="10.00">::predictFlightPhase</text>
</a>
</g>
</g>
<!-- Node3&#45;&gt;Node4 -->
<g id="edge3" class="edge">
<title>Node3&#45;&gt;Node4</title>
<path fill="none" stroke="midnightblue" d="M281.62,-240.6C297.26,-245.56 314.8,-251.13 331.09,-256.29"/>
<polygon fill="midnightblue" stroke="midnightblue" points="330.45,-259.76 341.04,-259.45 332.57,-253.09 330.45,-259.76"/>
</g>
<!-- Node5 -->
<g id="node5" class="node">
<title>Node5</title>
<g id="a_node5"><a xlink:href="classFlightPhasePredictor.html#a279cdca168c55a7a87984270930e773c" target="_top" xlink:title="Process all rule sets of every phase and calculate the probabilities.">
<polygon fill="none" stroke="black" points="331,-210.5 331,-240.5 448,-240.5 448,-210.5 331,-210.5"/>
<text text-anchor="start" x="339" y="-228.5" font-family="Helvetica,sans-Serif" font-size="10.00">FlightPhasePredictor</text>
<text text-anchor="middle" x="389.5" y="-217.5" font-family="Helvetica,sans-Serif" font-size="10.00">::processAllRules</text>
</a>
</g>
</g>
<!-- Node3&#45;&gt;Node5 -->
<g id="edge4" class="edge">
<title>Node3&#45;&gt;Node5</title>
<path fill="none" stroke="midnightblue" d="M291.53,-225.5C301.08,-225.5 311.06,-225.5 320.84,-225.5"/>
<polygon fill="midnightblue" stroke="midnightblue" points="320.92,-229 330.92,-225.5 320.92,-222 320.92,-229"/>
</g>
<!-- Node10 -->
<g id="node10" class="node">
<title>Node10</title>
<g id="a_node10"><a xlink:href="classPredictionParameters.html#a653d146841619901d7634f36420ff82c" target="_top" xlink:title="Updates all of the parameters.">
<polygon fill="none" stroke="black" points="329,-122.5 329,-152.5 450,-152.5 450,-122.5 329,-122.5"/>
<text text-anchor="start" x="337" y="-140.5" font-family="Helvetica,sans-Serif" font-size="10.00">PredictionParameters</text>
<text text-anchor="middle" x="389.5" y="-129.5" font-family="Helvetica,sans-Serif" font-size="10.00">::updateParameters</text>
</a>
</g>
</g>
<!-- Node3&#45;&gt;Node10 -->
<g id="edge9" class="edge">
<title>Node3&#45;&gt;Node10</title>
<path fill="none" stroke="midnightblue" d="M260.56,-210.37C286.17,-195.78 325.1,-173.61 353.28,-157.56"/>
<polygon fill="midnightblue" stroke="midnightblue" points="355.07,-160.57 362.03,-152.58 351.61,-154.49 355.07,-160.57"/>
</g>
<!-- Node6 -->
<g id="node6" class="node">
<title>Node6</title>
<g id="a_node6"><a xlink:href="prediction__model_8cpp.html#ab8ef2fff1f82ac60205ea16e5537774a" target="_top" xlink:title="A function to get the entire rules map.">
<polygon fill="none" stroke="black" points="503.5,-260 503.5,-279 623.5,-279 623.5,-260 503.5,-260"/>
<text text-anchor="middle" x="563.5" y="-267" font-family="Helvetica,sans-Serif" font-size="10.00">getPhaseRuleSetMap</text>
</a>
</g>
</g>
<!-- Node5&#45;&gt;Node6 -->
<g id="edge5" class="edge">
<title>Node5&#45;&gt;Node6</title>
<path fill="none" stroke="midnightblue" d="M447.53,-240.56C460.19,-243.86 473.54,-247.32 486,-250.5 494.96,-252.79 504.52,-255.19 513.73,-257.49"/>
<polygon fill="midnightblue" stroke="midnightblue" points="513.01,-260.91 523.56,-259.93 514.7,-254.12 513.01,-260.91"/>
</g>
<!-- Node7 -->
<g id="node7" class="node">
<title>Node7</title>
<g id="a_node7"><a xlink:href="classFlightPhasePredictor.html#a0e7d6889689ccc30275b9be9b60db30a" target="_top" xlink:title="Get the probability points from a rule set.">
<polygon fill="none" stroke="black" points="498,-210.5 498,-240.5 629,-240.5 629,-210.5 498,-210.5"/>
<text text-anchor="start" x="506" y="-228.5" font-family="Helvetica,sans-Serif" font-size="10.00">FlightPhasePredictor</text>
<text text-anchor="middle" x="563.5" y="-217.5" font-family="Helvetica,sans-Serif" font-size="10.00">::getPointsFromRuleSet</text>
</a>
</g>
</g>
<!-- Node5&#45;&gt;Node7 -->
<g id="edge6" class="edge">
<title>Node5&#45;&gt;Node7</title>
<path fill="none" stroke="midnightblue" d="M448.25,-225.5C460.93,-225.5 474.53,-225.5 487.76,-225.5"/>
<polygon fill="midnightblue" stroke="midnightblue" points="487.79,-229 497.79,-225.5 487.79,-222 487.79,-229"/>
</g>
<!-- Node8 -->
<g id="node8" class="node">
<title>Node8</title>
<g id="a_node8"><a xlink:href="classFlightPhasePredictor.html#a4e55b025bca64f4116b1518669d10233" target="_top" xlink:title="Get the probability points from a rule.">
<polygon fill="none" stroke="black" points="679,-210.5 679,-240.5 796,-240.5 796,-210.5 679,-210.5"/>
<text text-anchor="start" x="687" y="-228.5" font-family="Helvetica,sans-Serif" font-size="10.00">FlightPhasePredictor</text>
<text text-anchor="middle" x="737.5" y="-217.5" font-family="Helvetica,sans-Serif" font-size="10.00">::getPointsFromRule</text>
</a>
</g>
</g>
<!-- Node7&#45;&gt;Node8 -->
<g id="edge7" class="edge">
<title>Node7&#45;&gt;Node8</title>
<path fill="none" stroke="midnightblue" d="M629.04,-225.5C641.97,-225.5 655.6,-225.5 668.65,-225.5"/>
<polygon fill="midnightblue" stroke="midnightblue" points="668.96,-229 678.96,-225.5 668.96,-222 668.96,-229"/>
</g>
<!-- Node9 -->
<g id="node9" class="node">
<title>Node9</title>
<g id="a_node9"><a xlink:href="classPredictionParameters.html#af92ad5644fdbd46359ca3771cd9f6453" target="_top" xlink:title="Get a parameter by its ID.">
<polygon fill="none" stroke="black" points="834,-210.5 834,-240.5 955,-240.5 955,-210.5 834,-210.5"/>
<text text-anchor="start" x="842" y="-228.5" font-family="Helvetica,sans-Serif" font-size="10.00">PredictionParameters</text>
<text text-anchor="middle" x="894.5" y="-217.5" font-family="Helvetica,sans-Serif" font-size="10.00">::getParameter</text>
</a>
</g>
</g>
<!-- Node8&#45;&gt;Node9 -->
<g id="edge8" class="edge">
<title>Node8&#45;&gt;Node9</title>
<path fill="none" stroke="midnightblue" d="M796.22,-225.5C805.16,-225.5 814.48,-225.5 823.65,-225.5"/>
<polygon fill="midnightblue" stroke="midnightblue" points="823.92,-229 833.92,-225.5 823.92,-222 823.92,-229"/>
</g>
<!-- Node11 -->
<g id="node11" class="node">
<title>Node11</title>
<g id="a_node11"><a xlink:href="classdata_1_1blocks_1_1Block.html#a2237ade9275911c4fd9d0d264accfa7b" target="_top" xlink:title=" ">
<polygon fill="none" stroke="black" points="498,-172 498,-191 629,-191 629,-172 498,-172"/>
<text text-anchor="middle" x="563.5" y="-179" font-family="Helvetica,sans-Serif" font-size="10.00">data::blocks::Block::get</text>
</a>
</g>
</g>
<!-- Node10&#45;&gt;Node11 -->
<g id="edge10" class="edge">
<title>Node10&#45;&gt;Node11</title>
<path fill="none" stroke="midnightblue" d="M447.53,-152.56C460.19,-155.86 473.54,-159.32 486,-162.5 494.96,-164.79 504.52,-167.19 513.73,-169.49"/>
<polygon fill="midnightblue" stroke="midnightblue" points="513.01,-172.91 523.56,-171.93 514.7,-166.12 513.01,-172.91"/>
</g>
<!-- Node12 -->
<g id="node12" class="node">
<title>Node12</title>
<g id="a_node12"><a xlink:href="classdata_1_1FlightData.html#a7a9f92a351f196a88523a992af33bdc6" target="_top" xlink:title="Get the mission clock time in seconds. May be negative or positive. A negative value is in the future...">
<polygon fill="none" stroke="black" points="486,-122.5 486,-152.5 641,-152.5 641,-122.5 486,-122.5"/>
<text text-anchor="start" x="494" y="-140.5" font-family="Helvetica,sans-Serif" font-size="10.00">data::FlightData::getMission</text>
<text text-anchor="middle" x="563.5" y="-129.5" font-family="Helvetica,sans-Serif" font-size="10.00">ClockSeconds</text>
</a>
</g>
</g>
<!-- Node10&#45;&gt;Node12 -->
<g id="edge11" class="edge">
<title>Node10&#45;&gt;Node12</title>
<path fill="none" stroke="midnightblue" d="M450.17,-137.5C458.47,-137.5 467.13,-137.5 475.8,-137.5"/>
<polygon fill="midnightblue" stroke="midnightblue" points="475.97,-141 485.97,-137.5 475.97,-134 475.97,-141"/>
</g>
<!-- Node13 -->
<g id="node13" class="node">
<title>Node13</title>
<g id="a_node13"><a xlink:href="classdata_1_1FlightData.html#a768e08b7bfbc117f31838a9220e18ada" target="_top" xlink:title="The number of seconds since the flight runner was started.">
<polygon fill="none" stroke="black" points="487,-73.5 487,-103.5 640,-103.5 640,-73.5 487,-73.5"/>
<text text-anchor="start" x="495" y="-91.5" font-family="Helvetica,sans-Serif" font-size="10.00">data::FlightData::getUptime</text>
<text text-anchor="middle" x="563.5" y="-80.5" font-family="Helvetica,sans-Serif" font-size="10.00">Seconds</text>
</a>
</g>
</g>
<!-- Node10&#45;&gt;Node13 -->
<g id="edge12" class="edge">
<title>Node10&#45;&gt;Node13</title>
<path fill="none" stroke="midnightblue" d="M443.51,-122.4C461.33,-117.32 481.38,-111.61 499.87,-106.34"/>
<polygon fill="midnightblue" stroke="midnightblue" points="501.01,-109.66 509.67,-103.55 499.09,-102.93 501.01,-109.66"/>
</g>
<!-- Node14 -->
<g id="node14" class="node">
<title>Node14</title>
<g id="a_node14"><a xlink:href="classPredictionParameters.html#ade567365801b428c507ec91ee05c89e0" target="_top" xlink:title="Validates, filters, and updates a parameter&#39;s value.">
<polygon fill="none" stroke="black" points="503,-24.5 503,-54.5 624,-54.5 624,-24.5 503,-24.5"/>
<text text-anchor="start" x="511" y="-42.5" font-family="Helvetica,sans-Serif" font-size="10.00">PredictionParameters</text>
<text text-anchor="middle" x="563.5" y="-31.5" font-family="Helvetica,sans-Serif" font-size="10.00">::updateParameter</text>
</a>
</g>
</g>
<!-- Node10&#45;&gt;Node14 -->
<g id="edge13" class="edge">
<title>Node10&#45;&gt;Node14</title>
<path fill="none" stroke="midnightblue" d="M406.17,-122.47C424.15,-105.95 455.14,-79.63 486,-63.5 489.51,-61.67 493.18,-59.94 496.94,-58.33"/>
<polygon fill="midnightblue" stroke="midnightblue" points="498.42,-61.51 506.41,-54.54 495.82,-55.01 498.42,-61.51"/>
</g>
<!-- Node15 -->
<g id="node15" class="node">
<title>Node15</title>
<g id="a_node15"><a xlink:href="classPredictionParameters.html#a87733a1be1951e372c291dc4cb130ad4" target="_top" xlink:title="Applies a filter to a parameter. Does not update the parameter. or care if it&#39;s valid.">
<polygon fill="none" stroke="black" points="677,-49.5 677,-79.5 798,-79.5 798,-49.5 677,-49.5"/>
<text text-anchor="start" x="685" y="-67.5" font-family="Helvetica,sans-Serif" font-size="10.00">PredictionParameters</text>
<text text-anchor="middle" x="737.5" y="-56.5" font-family="Helvetica,sans-Serif" font-size="10.00">::applyInvalidFilter</text>
</a>
</g>
</g>
<!-- Node14&#45;&gt;Node15 -->
<g id="edge14" class="edge">
<title>Node14&#45;&gt;Node15</title>
<path fill="none" stroke="midnightblue" d="M624.17,-48.17C637.92,-50.17 652.65,-52.31 666.78,-54.37"/>
<polygon fill="midnightblue" stroke="midnightblue" points="666.53,-57.87 676.93,-55.84 667.54,-50.94 666.53,-57.87"/>
</g>
<!-- Node16 -->
<g id="node16" class="node">
<title>Node16</title>
<g id="a_node16"><a xlink:href="classPredictionParameters.html#aabfeefcd2cc0a9cb1e47510d62ffd0f8" target="_top" xlink:title="Validates a parameter.">
<polygon fill="none" stroke="black" points="677,-0.5 677,-30.5 798,-30.5 798,-0.5 677,-0.5"/>
<text text-anchor="start" x="685" y="-18.5" font-family="Helvetica,sans-Serif" font-size="10.00">PredictionParameters</text>
<text text-anchor="middle" x="737.5" y="-7.5" font-family="Helvetica,sans-Serif" font-size="10.00">::validateParameter</text>
</a>
</g>
</g>
<!-- Node14&#45;&gt;Node16 -->
<g id="edge15" class="edge">
<title>Node14&#45;&gt;Node16</title>
<path fill="none" stroke="midnightblue" d="M624.17,-31.17C637.92,-29.26 652.65,-27.2 666.78,-25.23"/>
<polygon fill="midnightblue" stroke="midnightblue" points="667.51,-28.66 676.93,-23.81 666.54,-21.73 667.51,-28.66"/>
</g>
</g>
</svg>
