<?xml version="1.0" encoding="UTF-8" standalone="no"?>
<!DOCTYPE svg PUBLIC "-//W3C//DTD SVG 1.1//EN"
 "http://www.w3.org/Graphics/SVG/1.1/DTD/svg11.dtd">
<!-- Generated by graphviz version 2.43.0 (0)
 -->
<!-- Title: modules::ExtensionModule::startup Pages: 1 -->
<svg width="527pt" height="252pt"
 viewBox="0.00 0.00 527.00 252.00" xmlns="http://www.w3.org/2000/svg" xmlns:xlink="http://www.w3.org/1999/xlink">
<g id="graph0" class="graph" transform="scale(1 1) rotate(0) translate(4 248)">
<title>modules::ExtensionModule::startup</title>
<!-- Node1 -->
<g id="node1" class="node">
<title>Node1</title>
<g id="a_node1"><a xlink:title="This function is called when the module is started.">
<polygon fill="#bfbfbf" stroke="black" points="0,-112.5 0,-142.5 149,-142.5 149,-112.5 0,-112.5"/>
<text text-anchor="start" x="8" y="-130.5" font-family="Helvetica,sans-Serif" font-size="10.00">modules::ExtensionModule</text>
<text text-anchor="middle" x="74.5" y="-119.5" font-family="Helvetica,sans-Serif" font-size="10.00">::startup</text>
</a>
</g>
</g>
<!-- Node2 -->
<g id="node2" class="node">
<title>Node2</title>
<g id="a_node2"><a xlink:href="classmodules_1_1ExtensionModule.html#a23eea974aaf3f625091381f8753f0a4b" target="_top" xlink:title=" ">
<polygon fill="none" stroke="black" points="185,-175.5 185,-205.5 334,-205.5 334,-175.5 185,-175.5"/>
<text text-anchor="start" x="193" y="-193.5" font-family="Helvetica,sans-Serif" font-size="10.00">modules::ExtensionModule</text>
<text text-anchor="middle" x="259.5" y="-182.5" font-family="Helvetica,sans-Serif" font-size="10.00">::addExtension</text>
</a>
</g>
</g>
<!-- Node1&#45;&gt;Node2 -->
<g id="edge1" class="edge">
<title>Node1&#45;&gt;Node2</title>
<path fill="none" stroke="midnightblue" d="M119.33,-142.59C145.04,-151.44 177.72,-162.69 204.95,-172.06"/>
<polygon fill="midnightblue" stroke="midnightblue" points="204.11,-175.48 214.71,-175.42 206.39,-168.86 204.11,-175.48"/>
</g>
<!-- Node3 -->
<g id="node3" class="node">
<title>Node3</title>
<g id="a_node3"><a xlink:href="classmodules_1_1ExtensionModule.html#aac4d67e03d9fa7029bf15a3ac79ca9c5" target="_top" xlink:title=" ">
<polygon fill="none" stroke="black" points="370,-213.5 370,-243.5 519,-243.5 519,-213.5 370,-213.5"/>
<text text-anchor="start" x="378" y="-231.5" font-family="Helvetica,sans-Serif" font-size="10.00">modules::ExtensionModule</text>
<text text-anchor="middle" x="444.5" y="-220.5" font-family="Helvetica,sans-Serif" font-size="10.00">::createExtension</text>
</a>
</g>
</g>
<!-- Node1&#45;&gt;Node3 -->
<g id="edge5" class="edge">
<title>Node1&#45;&gt;Node3</title>
<path fill="none" stroke="midnightblue" d="M88.5,-142.73C107.34,-163.55 144.43,-200.06 185,-215.5 240.52,-236.62 307.62,-239.4 359.55,-237.14"/>
<polygon fill="midnightblue" stroke="midnightblue" points="359.91,-240.63 369.72,-236.63 359.56,-233.64 359.91,-240.63"/>
</g>
<!-- Node4 -->
<g id="node4" class="node">
<title>Node4</title>
<g id="a_node4"><a xlink:href="classmodules_1_1Module.html#a62806f82a3b853d0d2de55efbf5649bc" target="_top" xlink:title="Used internally in the module. This function adds an error to the log stream. It is used to log error...">
<polygon fill="none" stroke="black" points="379.5,-170 379.5,-189 509.5,-189 509.5,-170 379.5,-170"/>
<text text-anchor="middle" x="444.5" y="-177" font-family="Helvetica,sans-Serif" font-size="10.00">modules::Module::error</text>
</a>
</g>
</g>
<!-- Node1&#45;&gt;Node4 -->
<g id="edge6" class="edge">
<title>Node1&#45;&gt;Node4</title>
<path fill="none" stroke="midnightblue" d="M149.09,-137.9C213,-146.93 305.11,-159.94 369.22,-169"/>
<polygon fill="midnightblue" stroke="midnightblue" points="368.87,-172.49 379.26,-170.42 369.85,-165.56 368.87,-172.49"/>
</g>
<!-- Node5 -->
<g id="node5" class="node">
<title>Node5</title>
<g id="a_node5"><a xlink:href="classmodules_1_1Module.html#abcfa8274b894b6a2a131254e76cd9fb3" target="_top" xlink:title="Used internally in the module. This function adds a info message to the log stream.">
<polygon fill="none" stroke="black" points="382,-121 382,-140 507,-140 507,-121 382,-121"/>
<text text-anchor="middle" x="444.5" y="-128" font-family="Helvetica,sans-Serif" font-size="10.00">modules::Module::info</text>
</a>
</g>
</g>
<!-- Node1&#45;&gt;Node5 -->
<g id="edge7" class="edge">
<title>Node1&#45;&gt;Node5</title>
<path fill="none" stroke="midnightblue" d="M149.09,-128.1C213.89,-128.63 307.7,-129.39 371.9,-129.92"/>
<polygon fill="midnightblue" stroke="midnightblue" points="371.91,-133.42 381.94,-130 371.97,-126.42 371.91,-133.42"/>
</g>
<!-- Node6 -->
<g id="node6" class="node">
<title>Node6</title>
<g id="a_node6"><a xlink:href="classgiraffe_1_1StatusLedState.html#a689922cb21411c5fbc7eab9a7a800daf" target="_top" xlink:title=" ">
<polygon fill="none" stroke="black" points="195.5,-49.5 195.5,-79.5 323.5,-79.5 323.5,-49.5 195.5,-49.5"/>
<text text-anchor="start" x="203.5" y="-67.5" font-family="Helvetica,sans-Serif" font-size="10.00">giraffe::StatusLedState</text>
<text text-anchor="middle" x="259.5" y="-56.5" font-family="Helvetica,sans-Serif" font-size="10.00">::setBlue</text>
</a>
</g>
</g>
<!-- Node1&#45;&gt;Node6 -->
<g id="edge8" class="edge">
<title>Node1&#45;&gt;Node6</title>
<path fill="none" stroke="midnightblue" d="M119.33,-112.41C145.04,-103.56 177.72,-92.31 204.95,-82.94"/>
<polygon fill="midnightblue" stroke="midnightblue" points="206.39,-86.14 214.71,-79.58 204.11,-79.52 206.39,-86.14"/>
</g>
<!-- Node7 -->
<g id="node7" class="node">
<title>Node7</title>
<g id="a_node7"><a xlink:href="classmodules_1_1ExtensionModule.html#a1cd2eee245baf8ca152049ee0d6966c0" target="_top" xlink:title=" ">
<polygon fill="none" stroke="black" points="185,-0.5 185,-30.5 334,-30.5 334,-0.5 185,-0.5"/>
<text text-anchor="start" x="193" y="-18.5" font-family="Helvetica,sans-Serif" font-size="10.00">modules::ExtensionModule</text>
<text text-anchor="middle" x="259.5" y="-7.5" font-family="Helvetica,sans-Serif" font-size="10.00">::updateLocalConfig</text>
</a>
</g>
</g>
<!-- Node1&#45;&gt;Node7 -->
<g id="edge9" class="edge">
<title>Node1&#45;&gt;Node7</title>
<path fill="none" stroke="midnightblue" d="M90.52,-112.42C110.51,-93.1 147.68,-59.71 185,-39.5 188.26,-37.73 191.67,-36.07 195.17,-34.51"/>
<polygon fill="midnightblue" stroke="midnightblue" points="196.67,-37.67 204.56,-30.6 193.98,-31.21 196.67,-37.67"/>
</g>
<!-- Node2&#45;&gt;Node3 -->
<g id="edge2" class="edge">
<title>Node2&#45;&gt;Node3</title>
<path fill="none" stroke="midnightblue" d="M332.83,-205.52C342.17,-207.46 351.79,-209.46 361.28,-211.43"/>
<polygon fill="midnightblue" stroke="midnightblue" points="360.6,-214.86 371.1,-213.47 362.02,-208.01 360.6,-214.86"/>
</g>
<!-- Node2&#45;&gt;Node4 -->
<g id="edge3" class="edge">
<title>Node2&#45;&gt;Node4</title>
<path fill="none" stroke="midnightblue" d="M334.14,-186.07C345.74,-185.38 357.74,-184.66 369.35,-183.96"/>
<polygon fill="midnightblue" stroke="midnightblue" points="369.66,-187.44 379.43,-183.35 369.24,-180.46 369.66,-187.44"/>
</g>
<!-- Node2&#45;&gt;Node5 -->
<g id="edge4" class="edge">
<title>Node2&#45;&gt;Node5</title>
<path fill="none" stroke="midnightblue" d="M306.68,-175.36C336.99,-165.42 376.17,-152.57 404.84,-143.18"/>
<polygon fill="midnightblue" stroke="midnightblue" points="406.09,-146.45 414.5,-140.01 403.91,-139.8 406.09,-146.45"/>
</g>
</g>
</svg>
