<?xml version="1.0" encoding="UTF-8" standalone="no"?>
<!DOCTYPE svg PUBLIC "-//W3C//DTD SVG 1.1//EN"
 "http://www.w3.org/Graphics/SVG/1.1/DTD/svg11.dtd">
<!-- Generated by graphviz version 2.43.0 (0)
 -->
<!-- Title: data::FlightData Pages: 1 -->
<svg width="679pt" height="435pt"
 viewBox="0.00 0.00 679.00 435.00" xmlns="http://www.w3.org/2000/svg" xmlns:xlink="http://www.w3.org/1999/xlink">
<g id="graph0" class="graph" transform="scale(1 1) rotate(0) translate(4 431)">
<title>data::FlightData</title>
<!-- Node1 -->
<g id="node1" class="node">
<title>Node1</title>
<g id="a_node1"><a xlink:title=" ">
<polygon fill="#bfbfbf" stroke="black" points="201,-0.5 201,-167.5 357,-167.5 357,-0.5 201,-0.5"/>
<text text-anchor="middle" x="279" y="-155.5" font-family="Helvetica,sans-Serif" font-size="10.00">data::FlightData</text>
<polyline fill="none" stroke="black" points="201,-148.5 357,-148.5 "/>
<text text-anchor="middle" x="279" y="-136.5" font-family="Helvetica,sans-Serif" font-size="10.00"> </text>
<polyline fill="none" stroke="black" points="201,-129.5 357,-129.5 "/>
<text text-anchor="start" x="209" y="-117.5" font-family="Helvetica,sans-Serif" font-size="10.00">+ getFlightPhase()</text>
<text text-anchor="start" x="209" y="-106.5" font-family="Helvetica,sans-Serif" font-size="10.00">+ getLaunchPosition()</text>
<text text-anchor="start" x="209" y="-95.5" font-family="Helvetica,sans-Serif" font-size="10.00">+ getMissionClockSeconds()</text>
<text text-anchor="start" x="209" y="-84.5" font-family="Helvetica,sans-Serif" font-size="10.00">+ getPredictedPhase()</text>
<text text-anchor="start" x="209" y="-73.5" font-family="Helvetica,sans-Serif" font-size="10.00">+ getSystemTimeUtc()</text>
<text text-anchor="start" x="209" y="-62.5" font-family="Helvetica,sans-Serif" font-size="10.00">+ getUptimeSeconds()</text>
<text text-anchor="start" x="209" y="-51.5" font-family="Helvetica,sans-Serif" font-size="10.00">+ getUptimeString()</text>
<text text-anchor="start" x="209" y="-40.5" font-family="Helvetica,sans-Serif" font-size="10.00">+ setLaunchPosition()</text>
<text text-anchor="start" x="209" y="-29.5" font-family="Helvetica,sans-Serif" font-size="10.00">+ toJson()</text>
<text text-anchor="start" x="209" y="-18.5" font-family="Helvetica,sans-Serif" font-size="10.00">&#45; setFlightPhase()</text>
<text text-anchor="start" x="209" y="-7.5" font-family="Helvetica,sans-Serif" font-size="10.00">&#45; setPhasePrediction()</text>
</a>
</g>
</g>
<!-- Node2 -->
<g id="node2" class="node">
<title>Node2</title>
<g id="a_node2"><a xlink:title=" ">
<polygon fill="none" stroke="#bfbfbf" points="0,-369.5 0,-426.5 130,-426.5 130,-369.5 0,-369.5"/>
<text text-anchor="middle" x="65" y="-414.5" font-family="Helvetica,sans-Serif" font-size="10.00">atomic&lt; FlightPhase &gt;</text>
<polyline fill="none" stroke="#bfbfbf" points="0,-407.5 130,-407.5 "/>
<text text-anchor="middle" x="65" y="-395.5" font-family="Helvetica,sans-Serif" font-size="10.00"> </text>
<polyline fill="none" stroke="#bfbfbf" points="0,-388.5 130,-388.5 "/>
<text text-anchor="middle" x="65" y="-376.5" font-family="Helvetica,sans-Serif" font-size="10.00"> </text>
</a>
</g>
</g>
<!-- Node2&#45;&gt;Node1 -->
<g id="edge1" class="edge">
<title>Node2&#45;&gt;Node1</title>
<path fill="none" stroke="#404040" d="M60.18,-369.28C54.23,-326.11 49.11,-241.96 87,-186 111.02,-150.53 151.59,-126.64 189.27,-111.04"/>
<polygon fill="none" stroke="#404040" points="189.69,-110.88 193.8,-104.95 200.85,-106.47 196.74,-112.39 189.69,-110.88"/>
<text text-anchor="middle" x="132" y="-271.5" font-family="Helvetica,sans-Serif" font-size="10.00"> &#45;flight_phase_</text>
<text text-anchor="middle" x="132" y="-260.5" font-family="Helvetica,sans-Serif" font-size="10.00">&#45;predicted_phase_</text>
</g>
<!-- Node3 -->
<g id="node3" class="node">
<title>Node3</title>
<g id="a_node3"><a xlink:title=" ">
<polygon fill="none" stroke="#bfbfbf" points="148,-369.5 148,-426.5 214,-426.5 214,-369.5 148,-369.5"/>
<text text-anchor="middle" x="181" y="-414.5" font-family="Helvetica,sans-Serif" font-size="10.00">TimePoint</text>
<polyline fill="none" stroke="#bfbfbf" points="148,-407.5 214,-407.5 "/>
<text text-anchor="middle" x="181" y="-395.5" font-family="Helvetica,sans-Serif" font-size="10.00"> </text>
<polyline fill="none" stroke="#bfbfbf" points="148,-388.5 214,-388.5 "/>
<text text-anchor="middle" x="181" y="-376.5" font-family="Helvetica,sans-Serif" font-size="10.00"> </text>
</a>
</g>
</g>
<!-- Node3&#45;&gt;Node1 -->
<g id="edge2" class="edge">
<title>Node3&#45;&gt;Node1</title>
<path fill="none" stroke="#404040" d="M180.59,-369.34C180.87,-328.03 184.88,-248.38 209,-186 209.97,-183.49 211.01,-180.99 212.12,-178.49"/>
<polygon fill="none" stroke="#404040" points="212.15,-178.43 211.15,-171.29 217.36,-167.62 218.36,-174.76 212.15,-178.43"/>
<text text-anchor="middle" x="240.5" y="-266" font-family="Helvetica,sans-Serif" font-size="10.00"> &#45;start_time_</text>
</g>
<!-- Node4 -->
<g id="node4" class="node">
<title>Node4</title>
<g id="a_node4"><a xlink:title=" ">
<polygon fill="none" stroke="#bfbfbf" points="232,-369.5 232,-426.5 338,-426.5 338,-369.5 232,-369.5"/>
<text text-anchor="middle" x="285" y="-414.5" font-family="Helvetica,sans-Serif" font-size="10.00">atomic&lt; double &gt;</text>
<polyline fill="none" stroke="#bfbfbf" points="232,-407.5 338,-407.5 "/>
<text text-anchor="middle" x="285" y="-395.5" font-family="Helvetica,sans-Serif" font-size="10.00"> </text>
<polyline fill="none" stroke="#bfbfbf" points="232,-388.5 338,-388.5 "/>
<text text-anchor="middle" x="285" y="-376.5" font-family="Helvetica,sans-Serif" font-size="10.00"> </text>
</a>
</g>
</g>
<!-- Node4&#45;&gt;Node1 -->
<g id="edge3" class="edge">
<title>Node4&#45;&gt;Node1</title>
<path fill="none" stroke="#404040" d="M281.52,-369.31C280.89,-363.28 280.33,-356.94 280,-351 276.82,-294.35 276.47,-230.8 276.95,-180.03"/>
<polygon fill="none" stroke="#404040" points="276.96,-179.74 273.02,-173.7 277.09,-167.74 281.02,-173.78 276.96,-179.74"/>
<text text-anchor="start" x="280" y="-343" font-family="Helvetica,sans-Serif" font-size="10.00"> &#45;ascent_prediction</text>
<text text-anchor="middle" x="333" y="-332" font-family="Helvetica,sans-Serif" font-size="10.00">_</text>
<text text-anchor="start" x="280" y="-321" font-family="Helvetica,sans-Serif" font-size="10.00">&#45;descent_prediction</text>
<text text-anchor="middle" x="333" y="-310" font-family="Helvetica,sans-Serif" font-size="10.00">_</text>
<text text-anchor="start" x="280" y="-299" font-family="Helvetica,sans-Serif" font-size="10.00">&#45;launch_altitude</text>
<text text-anchor="middle" x="333" y="-288" font-family="Helvetica,sans-Serif" font-size="10.00">_</text>
<text text-anchor="start" x="280" y="-277" font-family="Helvetica,sans-Serif" font-size="10.00">&#45;launch_position</text>
<text text-anchor="middle" x="333" y="-266" font-family="Helvetica,sans-Serif" font-size="10.00">_latitude_</text>
<text text-anchor="start" x="280" y="-255" font-family="Helvetica,sans-Serif" font-size="10.00">&#45;launch_position</text>
<text text-anchor="middle" x="333" y="-244" font-family="Helvetica,sans-Serif" font-size="10.00">_longitude_</text>
<text text-anchor="start" x="280" y="-233" font-family="Helvetica,sans-Serif" font-size="10.00">&#45;launch_prediction</text>
<text text-anchor="middle" x="333" y="-222" font-family="Helvetica,sans-Serif" font-size="10.00">_</text>
<text text-anchor="start" x="280" y="-211" font-family="Helvetica,sans-Serif" font-size="10.00">&#45;prediction_quality</text>
<text text-anchor="middle" x="333" y="-200" font-family="Helvetica,sans-Serif" font-size="10.00">_</text>
<text text-anchor="middle" x="333" y="-189" font-family="Helvetica,sans-Serif" font-size="10.00">&#45;recovery_prediction_</text>
</g>
<!-- Node5 -->
<g id="node5" class="node">
<title>Node5</title>
<g id="a_node5"><a xlink:title=" ">
<polygon fill="none" stroke="#bfbfbf" points="361,-369.5 361,-426.5 455,-426.5 455,-369.5 361,-369.5"/>
<text text-anchor="middle" x="408" y="-414.5" font-family="Helvetica,sans-Serif" font-size="10.00">atomic&lt; bool &gt;</text>
<polyline fill="none" stroke="#bfbfbf" points="361,-407.5 455,-407.5 "/>
<text text-anchor="middle" x="408" y="-395.5" font-family="Helvetica,sans-Serif" font-size="10.00"> </text>
<polyline fill="none" stroke="#bfbfbf" points="361,-388.5 455,-388.5 "/>
<text text-anchor="middle" x="408" y="-376.5" font-family="Helvetica,sans-Serif" font-size="10.00"> </text>
</a>
</g>
</g>
<!-- Node5&#45;&gt;Node1 -->
<g id="edge4" class="edge">
<title>Node5&#45;&gt;Node1</title>
<path fill="none" stroke="#404040" d="M407.48,-369.2C406.16,-319.47 401.59,-217.53 386,-186 380.51,-174.89 373.26,-164.37 365.11,-154.61"/>
<polygon fill="none" stroke="#404040" points="365,-154.48 358.03,-152.63 357.06,-145.49 364.03,-147.34 365,-154.48"/>
<text text-anchor="middle" x="465" y="-266" font-family="Helvetica,sans-Serif" font-size="10.00"> &#45;have_launch_position_</text>
</g>
<!-- Node6 -->
<g id="node6" class="node">
<title>Node6</title>
<g id="a_node6"><a xlink:title=" ">
<polygon fill="none" stroke="#bfbfbf" points="526.5,-369.5 526.5,-426.5 571.5,-426.5 571.5,-369.5 526.5,-369.5"/>
<text text-anchor="middle" x="549" y="-414.5" font-family="Helvetica,sans-Serif" font-size="10.00">friend</text>
<polyline fill="none" stroke="#bfbfbf" points="526.5,-407.5 571.5,-407.5 "/>
<text text-anchor="middle" x="549" y="-395.5" font-family="Helvetica,sans-Serif" font-size="10.00"> </text>
<polyline fill="none" stroke="#bfbfbf" points="526.5,-388.5 571.5,-388.5 "/>
<text text-anchor="middle" x="549" y="-376.5" font-family="Helvetica,sans-Serif" font-size="10.00"> </text>
</a>
</g>
</g>
<!-- Node6&#45;&gt;Node1 -->
<g id="edge5" class="edge">
<title>Node6&#45;&gt;Node1</title>
<path fill="none" stroke="#404040" d="M554.41,-369.18C561.25,-325.49 567.69,-240.2 527,-186 489.62,-136.21 423.48,-110.87 368.9,-98.03"/>
<polygon fill="none" stroke="#404040" points="368.8,-98.01 362.07,-100.61 357.09,-95.4 363.81,-92.8 368.8,-98.01"/>
<text text-anchor="middle" x="615" y="-266" font-family="Helvetica,sans-Serif" font-size="10.00"> +FlightPhaseManager</text>
</g>
</g>
</svg>
