<?xml version="1.0" encoding="UTF-8" standalone="no"?>
<!DOCTYPE svg PUBLIC "-//W3C//DTD SVG 1.1//EN"
 "http://www.w3.org/Graphics/SVG/1.1/DTD/svg11.dtd">
<!-- Generated by graphviz version 2.43.0 (0)
 -->
<!-- Title: cfg::CfgSection::error Pages: 1 -->
<svg width="345pt" height="359pt"
 viewBox="0.00 0.00 345.00 358.50" xmlns="http://www.w3.org/2000/svg" xmlns:xlink="http://www.w3.org/1999/xlink">
<g id="graph0" class="graph" transform="scale(1 1) rotate(0) translate(4 354.5)">
<title>cfg::CfgSection::error</title>
<!-- Node1 -->
<g id="Node000001" class="node">
<title>Node1</title>
<g id="a_Node000001"><a xlink:title="Logs a debug message.">
<polygon fill="#999999" stroke="#666666" points="337,-179 218,-179 218,-160 337,-160 337,-179"/>
<text text-anchor="middle" x="277.5" y="-167" font-family="Helvetica,sans-Serif" font-size="10.00">cfg::CfgSection::error</text>
</a>
</g>
</g>
<!-- Node2 -->
<g id="Node000002" class="node">
<title>Node2</title>
<g id="a_Node000002"><a xlink:href="classcfg_1_1AdcMappings.html#a50978d833ec6672505f87b17c140f483" target="_top" xlink:title=" ">
<polygon fill="white" stroke="#666666" points="163.5,-350.5 18.5,-350.5 18.5,-320.5 163.5,-320.5 163.5,-350.5"/>
<text text-anchor="start" x="26.5" y="-338.5" font-family="Helvetica,sans-Serif" font-size="10.00">cfg::AdcMappings::addAdc</text>
<text text-anchor="middle" x="91" y="-327.5" font-family="Helvetica,sans-Serif" font-size="10.00">Config</text>
</a>
</g>
</g>
<!-- Node1&#45;&gt;Node2 -->
<g id="edge1_Node000001_Node000002" class="edge">
<title>Node1&#45;&gt;Node2</title>
<g id="a_edge1_Node000001_Node000002"><a xlink:title=" ">
<path fill="none" stroke="#63b8ff" d="M269.03,-188.76C256.1,-219.53 226.56,-279.55 182,-311.5 176.48,-315.46 170.35,-318.76 163.96,-321.52"/>
<polygon fill="#63b8ff" stroke="#63b8ff" points="272.4,-189.77 272.91,-179.19 265.91,-187.14 272.4,-189.77"/>
</a>
</g>
</g>
<!-- Node3 -->
<g id="Node000003" class="node">
<title>Node3</title>
<g id="a_Node000003"><a xlink:href="classcfg_1_1Extensions.html#a3d483d303ba16bd2c41dbafb6d0db151" target="_top" xlink:title="Add an extension to the configuration.">
<polygon fill="white" stroke="#666666" points="172.5,-302 9.5,-302 9.5,-283 172.5,-283 172.5,-302"/>
<text text-anchor="middle" x="91" y="-290" font-family="Helvetica,sans-Serif" font-size="10.00">cfg::Extensions::addExtension</text>
</a>
</g>
</g>
<!-- Node1&#45;&gt;Node3 -->
<g id="edge2_Node000001_Node000003" class="edge">
<title>Node1&#45;&gt;Node3</title>
<g id="a_edge2_Node000001_Node000003"><a xlink:title=" ">
<path fill="none" stroke="#63b8ff" d="M265.2,-187.81C249.56,-211.51 219.02,-252.27 182,-273.5 175.21,-277.39 167.72,-280.49 160.06,-282.96"/>
<polygon fill="#63b8ff" stroke="#63b8ff" points="268.35,-189.39 270.8,-179.08 262.45,-185.61 268.35,-189.39"/>
</a>
</g>
</g>
<!-- Node4 -->
<g id="Node000004" class="node">
<title>Node4</title>
<g id="a_Node000004"><a xlink:href="classcfg_1_1AdcMappings.html#abf24990803afb5198cbffb1a42ceac68" target="_top" xlink:title=" ">
<polygon fill="white" stroke="#666666" points="164,-264.5 18,-264.5 18,-234.5 164,-234.5 164,-264.5"/>
<text text-anchor="start" x="26" y="-252.5" font-family="Helvetica,sans-Serif" font-size="10.00">cfg::AdcMappings::remove</text>
<text text-anchor="middle" x="91" y="-241.5" font-family="Helvetica,sans-Serif" font-size="10.00">AdcConfig</text>
</a>
</g>
</g>
<!-- Node1&#45;&gt;Node4 -->
<g id="edge3_Node000001_Node000004" class="edge">
<title>Node1&#45;&gt;Node4</title>
<g id="a_edge3_Node000001_Node000004"><a xlink:title=" ">
<path fill="none" stroke="#63b8ff" d="M254.7,-184.77C236.11,-197.21 208.29,-214.45 182,-225.5 174.1,-228.82 165.61,-231.79 157.12,-234.42"/>
<polygon fill="#63b8ff" stroke="#63b8ff" points="256.74,-187.62 263.04,-179.1 252.8,-181.83 256.74,-187.62"/>
</a>
</g>
</g>
<!-- Node5 -->
<g id="Node000005" class="node">
<title>Node5</title>
<g id="a_Node000005"><a xlink:href="classcfg_1_1Extensions.html#abb7d7973769eda4b355e1e6bdd778f1e" target="_top" xlink:title="Remove an extension from the configuration by name.">
<polygon fill="white" stroke="#666666" points="182,-216 0,-216 0,-197 182,-197 182,-216"/>
<text text-anchor="middle" x="91" y="-204" font-family="Helvetica,sans-Serif" font-size="10.00">cfg::Extensions::removeExtension</text>
</a>
</g>
</g>
<!-- Node1&#45;&gt;Node5 -->
<g id="edge4_Node000001_Node000005" class="edge">
<title>Node1&#45;&gt;Node5</title>
<g id="a_edge4_Node000001_Node000005"><a xlink:title=" ">
<path fill="none" stroke="#63b8ff" d="M218.86,-181.1C206.69,-183.55 193.92,-186.11 182,-188.5 168.25,-191.26 153.32,-194.25 139.64,-196.98"/>
<polygon fill="#63b8ff" stroke="#63b8ff" points="219.8,-184.48 228.91,-179.08 218.42,-177.62 219.8,-184.48"/>
</a>
</g>
</g>
<!-- Node6 -->
<g id="Node000006" class="node">
<title>Node6</title>
<g id="a_Node000006"><a xlink:href="classcfg_1_1AdcMappings.html#a45d9c766a012ea127e8612d262e720ac" target="_top" xlink:title=" ">
<polygon fill="white" stroke="#666666" points="175.5,-179 6.5,-179 6.5,-160 175.5,-160 175.5,-179"/>
<text text-anchor="middle" x="91" y="-167" font-family="Helvetica,sans-Serif" font-size="10.00">cfg::AdcMappings::setFromJson</text>
</a>
</g>
</g>
<!-- Node1&#45;&gt;Node6 -->
<g id="edge5_Node000001_Node000006" class="edge">
<title>Node1&#45;&gt;Node6</title>
<g id="a_edge5_Node000001_Node000006"><a xlink:title=" ">
<path fill="none" stroke="#63b8ff" d="M207.63,-169.5C197.24,-169.5 186.42,-169.5 175.75,-169.5"/>
<polygon fill="#63b8ff" stroke="#63b8ff" points="207.87,-173 217.87,-169.5 207.87,-166 207.87,-173"/>
</a>
</g>
</g>
<!-- Node7 -->
<g id="Node000007" class="node">
<title>Node7</title>
<g id="a_Node000007"><a xlink:href="classcfg_1_1Extensions.html#aab673cffeff4bb60bf1a11d83a39736b" target="_top" xlink:title=" ">
<polygon fill="white" stroke="#666666" points="169.5,-142 12.5,-142 12.5,-123 169.5,-123 169.5,-142"/>
<text text-anchor="middle" x="91" y="-130" font-family="Helvetica,sans-Serif" font-size="10.00">cfg::Extensions::setFromJson</text>
</a>
</g>
</g>
<!-- Node1&#45;&gt;Node7 -->
<g id="edge6_Node000001_Node000007" class="edge">
<title>Node1&#45;&gt;Node7</title>
<g id="a_edge6_Node000001_Node000007"><a xlink:title=" ">
<path fill="none" stroke="#63b8ff" d="M219.08,-157.98C193.58,-152.87 163.92,-146.92 139.67,-142.06"/>
<polygon fill="#63b8ff" stroke="#63b8ff" points="218.49,-161.44 228.99,-159.97 219.87,-154.57 218.49,-161.44"/>
</a>
</g>
</g>
<!-- Node8 -->
<g id="Node000008" class="node">
<title>Node8</title>
<g id="a_Node000008"><a xlink:href="classcfg_1_1Extensions.html#a28c4e7fad5dbfc8f72d1628ff59ac2ec" target="_top" xlink:title="Enable or disable an extension by name.">
<polygon fill="white" stroke="#666666" points="179,-105 3,-105 3,-86 179,-86 179,-105"/>
<text text-anchor="middle" x="91" y="-93" font-family="Helvetica,sans-Serif" font-size="10.00">cfg::Extensions::toggleExtension</text>
</a>
</g>
</g>
<!-- Node1&#45;&gt;Node8 -->
<g id="edge7_Node000001_Node000008" class="edge">
<title>Node1&#45;&gt;Node8</title>
<g id="a_edge7_Node000001_Node000008"><a xlink:title=" ">
<path fill="none" stroke="#63b8ff" d="M254.8,-154.17C236.27,-141.75 208.49,-124.7 182,-114.5 172.16,-110.71 161.42,-107.62 150.88,-105.1"/>
<polygon fill="#63b8ff" stroke="#63b8ff" points="252.88,-157.09 263.11,-159.84 256.83,-151.31 252.88,-157.09"/>
</a>
</g>
</g>
<!-- Node9 -->
<g id="Node000009" class="node">
<title>Node9</title>
<g id="a_Node000009"><a xlink:href="classcfg_1_1AdcMappings.html#a7704b7b0f66cfbad9f14b00613347e5b" target="_top" xlink:title=" ">
<polygon fill="white" stroke="#666666" points="162.5,-67.5 19.5,-67.5 19.5,-37.5 162.5,-37.5 162.5,-67.5"/>
<text text-anchor="start" x="27.5" y="-55.5" font-family="Helvetica,sans-Serif" font-size="10.00">cfg::AdcMappings::update</text>
<text text-anchor="middle" x="91" y="-44.5" font-family="Helvetica,sans-Serif" font-size="10.00">AdcConfig</text>
</a>
</g>
</g>
<!-- Node1&#45;&gt;Node9 -->
<g id="edge8_Node000001_Node000009" class="edge">
<title>Node1&#45;&gt;Node9</title>
<g id="a_edge8_Node000001_Node000009"><a xlink:title=" ">
<path fill="none" stroke="#63b8ff" d="M263.02,-151.8C246.26,-131 215.7,-96.86 182,-77.5 175.25,-73.62 167.87,-70.32 160.33,-67.51"/>
<polygon fill="#63b8ff" stroke="#63b8ff" points="260.4,-154.12 269.33,-159.82 265.9,-149.8 260.4,-154.12"/>
</a>
</g>
</g>
<!-- Node10 -->
<g id="Node000010" class="node">
<title>Node10</title>
<g id="a_Node000010"><a xlink:href="classcfg_1_1Extensions.html#a4af55964085d036357551e795bb435b5" target="_top" xlink:title="Update an extension given its name and new metadata.">
<polygon fill="white" stroke="#666666" points="180.5,-19 1.5,-19 1.5,0 180.5,0 180.5,-19"/>
<text text-anchor="middle" x="91" y="-7" font-family="Helvetica,sans-Serif" font-size="10.00">cfg::Extensions::updateExtension</text>
</a>
</g>
</g>
<!-- Node1&#45;&gt;Node10 -->
<g id="edge9_Node000001_Node000010" class="edge">
<title>Node1&#45;&gt;Node10</title>
<g id="a_edge9_Node000001_Node000010"><a xlink:title=" ">
<path fill="none" stroke="#63b8ff" d="M269.18,-150.11C256.46,-119.17 227.21,-59.05 182,-28.5 176.31,-24.66 169.99,-21.57 163.42,-19.09"/>
<polygon fill="#63b8ff" stroke="#63b8ff" points="266.06,-151.72 272.99,-159.73 272.57,-149.15 266.06,-151.72"/>
</a>
</g>
</g>
</g>
</svg>
