<?xml version="1.0" encoding="UTF-8" standalone="no"?>
<!DOCTYPE svg PUBLIC "-//W3C//DTD SVG 1.1//EN"
 "http://www.w3.org/Graphics/SVG/1.1/DTD/svg11.dtd">
<!-- Generated by graphviz version 2.43.0 (0)
 -->
<!-- Title: giraffe::radio::Radio Pages: 1 -->
<svg width="258pt" height="673pt"
 viewBox="0.00 0.00 257.50 673.00" xmlns="http://www.w3.org/2000/svg" xmlns:xlink="http://www.w3.org/1999/xlink">
<g id="graph0" class="graph" transform="scale(1 1) rotate(0) translate(4 669)">
<title>giraffe::radio::Radio</title>
<!-- Node1 -->
<g id="Node000001" class="node">
<title>Node1</title>
<g id="a_Node000001"><a xlink:title=" ">
<polygon fill="#999999" stroke="transparent" points="175,-370 68,-370 68,-201 175,-201 175,-370"/>
<text text-anchor="start" x="73.5" y="-357.5" font-family="Helvetica,sans-Serif" font-size="10.00">giraffe::radio::Radio</text>
<text text-anchor="start" x="120" y="-342.5" font-family="Helvetica,sans-Serif" font-size="10.00"> </text>
<text text-anchor="start" x="75.5" y="-327.5" font-family="Helvetica,sans-Serif" font-size="10.00">+</text>
<text text-anchor="start" x="91.5" y="-327.5" font-family="Helvetica,sans-Serif" font-size="10.00">Radio()</text>
<text text-anchor="start" x="75.5" y="-312.5" font-family="Helvetica,sans-Serif" font-size="10.00">+</text>
<text text-anchor="start" x="91.5" y="-312.5" font-family="Helvetica,sans-Serif" font-size="10.00">~Radio()</text>
<text text-anchor="start" x="75.5" y="-297.5" font-family="Helvetica,sans-Serif" font-size="10.00">+</text>
<text text-anchor="start" x="91.5" y="-297.5" font-family="Helvetica,sans-Serif" font-size="10.00">changeMode()</text>
<text text-anchor="start" x="75.5" y="-282.5" font-family="Helvetica,sans-Serif" font-size="10.00">+</text>
<text text-anchor="start" x="91.5" y="-282.5" font-family="Helvetica,sans-Serif" font-size="10.00">disable()</text>
<text text-anchor="start" x="75.5" y="-267.5" font-family="Helvetica,sans-Serif" font-size="10.00">+</text>
<text text-anchor="start" x="91.5" y="-267.5" font-family="Helvetica,sans-Serif" font-size="10.00">enable()</text>
<text text-anchor="start" x="75.5" y="-252.5" font-family="Helvetica,sans-Serif" font-size="10.00">+</text>
<text text-anchor="start" x="91.5" y="-252.5" font-family="Helvetica,sans-Serif" font-size="10.00">getRssi()</text>
<text text-anchor="start" x="75.5" y="-237.5" font-family="Helvetica,sans-Serif" font-size="10.00">+</text>
<text text-anchor="start" x="91.5" y="-237.5" font-family="Helvetica,sans-Serif" font-size="10.00">startTransmit()</text>
<text text-anchor="start" x="75.5" y="-222.5" font-family="Helvetica,sans-Serif" font-size="10.00">+</text>
<text text-anchor="start" x="91.5" y="-222.5" font-family="Helvetica,sans-Serif" font-size="10.00">stopTransmit()</text>
<text text-anchor="start" x="75.5" y="-207.5" font-family="Helvetica,sans-Serif" font-size="10.00">+</text>
<text text-anchor="start" x="91.5" y="-207.5" font-family="Helvetica,sans-Serif" font-size="10.00">update()</text>
<polygon fill="#666666" stroke="#666666" points="68.5,-352.5 68.5,-352.5 175.5,-352.5 175.5,-352.5 68.5,-352.5"/>
<polygon fill="#666666" stroke="#666666" points="68.5,-337.5 68.5,-337.5 175.5,-337.5 175.5,-337.5 68.5,-337.5"/>
<polygon fill="none" stroke="#666666" points="68,-201 68,-370 175,-370 175,-201 68,-201"/>
</a>
</g>
</g>
<!-- Node3 -->
<g id="Node000003" class="node">
<title>Node3</title>
<g id="a_Node000003"><a xlink:href="classgiraffe_1_1radio_1_1Sa868.html" target="_top" xlink:title=" ">
<polygon fill="white" stroke="transparent" points="109,-137 0,-137 0,-28 109,-28 109,-137"/>
<text text-anchor="start" x="5.5" y="-124.5" font-family="Helvetica,sans-Serif" font-size="10.00">giraffe::radio::Sa868</text>
<text text-anchor="start" x="53" y="-109.5" font-family="Helvetica,sans-Serif" font-size="10.00"> </text>
<text text-anchor="start" x="15" y="-94.5" font-family="Helvetica,sans-Serif" font-size="10.00">+</text>
<text text-anchor="start" x="38.5" y="-94.5" font-family="Helvetica,sans-Serif" font-size="10.00">Sa868()</text>
<text text-anchor="start" x="15" y="-79.5" font-family="Helvetica,sans-Serif" font-size="10.00">+</text>
<text text-anchor="start" x="38.5" y="-79.5" font-family="Helvetica,sans-Serif" font-size="10.00">~Sa868()</text>
<text text-anchor="start" x="15" y="-64.5" font-family="Helvetica,sans-Serif" font-size="10.00">+</text>
<text text-anchor="start" x="38.5" y="-64.5" font-family="Helvetica,sans-Serif" font-size="10.00">disable()</text>
<text text-anchor="start" x="15" y="-49.5" font-family="Helvetica,sans-Serif" font-size="10.00">+</text>
<text text-anchor="start" x="38.5" y="-49.5" font-family="Helvetica,sans-Serif" font-size="10.00">enable()</text>
<text text-anchor="start" x="15" y="-34.5" font-family="Helvetica,sans-Serif" font-size="10.00">+</text>
<text text-anchor="start" x="38.5" y="-34.5" font-family="Helvetica,sans-Serif" font-size="10.00">update()</text>
<polygon fill="#666666" stroke="#666666" points="0.5,-119.5 0.5,-119.5 109.5,-119.5 109.5,-119.5 0.5,-119.5"/>
<polygon fill="#666666" stroke="#666666" points="0.5,-104.5 0.5,-104.5 109.5,-104.5 109.5,-104.5 0.5,-104.5"/>
<polygon fill="none" stroke="#666666" points="0,-28 0,-137 109,-137 109,-28 0,-28"/>
</a>
</g>
</g>
<!-- Node1&#45;&gt;Node3 -->
<g id="edge2_Node000001_Node000003" class="edge">
<title>Node1&#45;&gt;Node3</title>
<g id="a_edge2_Node000001_Node000003"><a xlink:title=" ">
<path fill="none" stroke="#63b8ff" d="M90.35,-191.06C84.18,-172.53 77.89,-153.67 72.34,-137.03"/>
<polygon fill="none" stroke="#63b8ff" points="87.09,-192.33 93.57,-200.71 93.73,-190.12 87.09,-192.33"/>
</a>
</g>
</g>
<!-- Node4 -->
<g id="Node000004" class="node">
<title>Node4</title>
<g id="a_Node000004"><a xlink:href="classgiraffe_1_1radio_1_1SoftwareRadio.html" target="_top" xlink:title=" ">
<polygon fill="white" stroke="transparent" points="249.5,-165 127.5,-165 127.5,0 249.5,0 249.5,-165"/>
<text text-anchor="start" x="132.5" y="-152.5" font-family="Helvetica,sans-Serif" font-size="10.00">giraffe::radio::Software</text>
<text text-anchor="start" x="174.5" y="-141.5" font-family="Helvetica,sans-Serif" font-size="10.00">Radio</text>
<text text-anchor="start" x="186.5" y="-126.5" font-family="Helvetica,sans-Serif" font-size="10.00"> </text>
<text text-anchor="start" x="135" y="-111.5" font-family="Helvetica,sans-Serif" font-size="10.00">+</text>
<text text-anchor="start" x="151.5" y="-111.5" font-family="Helvetica,sans-Serif" font-size="10.00">SoftwareRadio()</text>
<text text-anchor="start" x="135" y="-96.5" font-family="Helvetica,sans-Serif" font-size="10.00">+</text>
<text text-anchor="start" x="151.5" y="-96.5" font-family="Helvetica,sans-Serif" font-size="10.00">~SoftwareRadio()</text>
<text text-anchor="start" x="135" y="-81.5" font-family="Helvetica,sans-Serif" font-size="10.00">+</text>
<text text-anchor="start" x="151.5" y="-81.5" font-family="Helvetica,sans-Serif" font-size="10.00">changeMode()</text>
<text text-anchor="start" x="135" y="-66.5" font-family="Helvetica,sans-Serif" font-size="10.00">+</text>
<text text-anchor="start" x="151.5" y="-66.5" font-family="Helvetica,sans-Serif" font-size="10.00">disable()</text>
<text text-anchor="start" x="135" y="-51.5" font-family="Helvetica,sans-Serif" font-size="10.00">+</text>
<text text-anchor="start" x="151.5" y="-51.5" font-family="Helvetica,sans-Serif" font-size="10.00">enable()</text>
<text text-anchor="start" x="135" y="-36.5" font-family="Helvetica,sans-Serif" font-size="10.00">+</text>
<text text-anchor="start" x="151.5" y="-36.5" font-family="Helvetica,sans-Serif" font-size="10.00">startTransmit()</text>
<text text-anchor="start" x="135" y="-21.5" font-family="Helvetica,sans-Serif" font-size="10.00">+</text>
<text text-anchor="start" x="151.5" y="-21.5" font-family="Helvetica,sans-Serif" font-size="10.00">stopTransmit()</text>
<text text-anchor="start" x="135" y="-6.5" font-family="Helvetica,sans-Serif" font-size="10.00">+</text>
<text text-anchor="start" x="151.5" y="-6.5" font-family="Helvetica,sans-Serif" font-size="10.00">update()</text>
<polygon fill="#666666" stroke="#666666" points="127.5,-136.5 127.5,-136.5 249.5,-136.5 249.5,-136.5 127.5,-136.5"/>
<polygon fill="#666666" stroke="#666666" points="127.5,-121.5 127.5,-121.5 249.5,-121.5 249.5,-121.5 127.5,-121.5"/>
<polygon fill="none" stroke="#666666" points="127.5,0 127.5,-165 249.5,-165 249.5,0 127.5,0"/>
</a>
</g>
</g>
<!-- Node1&#45;&gt;Node4 -->
<g id="edge3_Node000001_Node000004" class="edge">
<title>Node1&#45;&gt;Node4</title>
<g id="a_edge3_Node000001_Node000004"><a xlink:title=" ">
<path fill="none" stroke="#63b8ff" d="M152.66,-191.03C155.53,-182.41 158.43,-173.72 161.26,-165.22"/>
<polygon fill="none" stroke="#63b8ff" points="149.27,-190.12 149.43,-200.71 155.91,-192.33 149.27,-190.12"/>
</a>
</g>
</g>
<!-- Node2 -->
<g id="Node000002" class="node">
<title>Node2</title>
<g id="a_Node000002"><a xlink:href="classgiraffe_1_1gdl_1_1PhysicalLayer.html" target="_top" xlink:title="The physical layer of the Giraffe Data Link.">
<polygon fill="white" stroke="transparent" points="190,-665 53,-665 53,-406 190,-406 190,-665"/>
<text text-anchor="start" x="58.5" y="-652.5" font-family="Helvetica,sans-Serif" font-size="10.00">giraffe::gdl::PhysicalLayer</text>
<text text-anchor="start" x="65.5" y="-637.5" font-family="Helvetica,sans-Serif" font-size="10.00">#</text>
<text text-anchor="start" x="86.5" y="-637.5" font-family="Helvetica,sans-Serif" font-size="10.00">config_</text>
<text text-anchor="start" x="68" y="-622.5" font-family="Helvetica,sans-Serif" font-size="10.00">&#45;</text>
<text text-anchor="start" x="86.5" y="-622.5" font-family="Helvetica,sans-Serif" font-size="10.00">mode_</text>
<text text-anchor="start" x="68" y="-607.5" font-family="Helvetica,sans-Serif" font-size="10.00">&#45;</text>
<text text-anchor="start" x="86.5" y="-607.5" font-family="Helvetica,sans-Serif" font-size="10.00">state_</text>
<text text-anchor="start" x="65.5" y="-592.5" font-family="Helvetica,sans-Serif" font-size="10.00">+</text>
<text text-anchor="start" x="86.5" y="-592.5" font-family="Helvetica,sans-Serif" font-size="10.00">PhysicalLayer()</text>
<text text-anchor="start" x="65.5" y="-577.5" font-family="Helvetica,sans-Serif" font-size="10.00">+</text>
<text text-anchor="start" x="86.5" y="-577.5" font-family="Helvetica,sans-Serif" font-size="10.00">~PhysicalLayer()</text>
<text text-anchor="start" x="65.5" y="-562.5" font-family="Helvetica,sans-Serif" font-size="10.00">+</text>
<text text-anchor="start" x="86.5" y="-562.5" font-family="Helvetica,sans-Serif" font-size="10.00">changeMode()</text>
<text text-anchor="start" x="65.5" y="-547.5" font-family="Helvetica,sans-Serif" font-size="10.00">+</text>
<text text-anchor="start" x="86.5" y="-547.5" font-family="Helvetica,sans-Serif" font-size="10.00">disable()</text>
<text text-anchor="start" x="65.5" y="-532.5" font-family="Helvetica,sans-Serif" font-size="10.00">+</text>
<text text-anchor="start" x="86.5" y="-532.5" font-family="Helvetica,sans-Serif" font-size="10.00">enable()</text>
<text text-anchor="start" x="65.5" y="-517.5" font-family="Helvetica,sans-Serif" font-size="10.00">+</text>
<text text-anchor="start" x="86.5" y="-517.5" font-family="Helvetica,sans-Serif" font-size="10.00">getMode()</text>
<text text-anchor="start" x="65.5" y="-502.5" font-family="Helvetica,sans-Serif" font-size="10.00">+</text>
<text text-anchor="start" x="86.5" y="-502.5" font-family="Helvetica,sans-Serif" font-size="10.00">getRssi()</text>
<text text-anchor="start" x="65.5" y="-487.5" font-family="Helvetica,sans-Serif" font-size="10.00">+</text>
<text text-anchor="start" x="86.5" y="-487.5" font-family="Helvetica,sans-Serif" font-size="10.00">getState()</text>
<text text-anchor="start" x="65.5" y="-472.5" font-family="Helvetica,sans-Serif" font-size="10.00">+</text>
<text text-anchor="start" x="86.5" y="-472.5" font-family="Helvetica,sans-Serif" font-size="10.00">startTransmit()</text>
<text text-anchor="start" x="65.5" y="-457.5" font-family="Helvetica,sans-Serif" font-size="10.00">+</text>
<text text-anchor="start" x="86.5" y="-457.5" font-family="Helvetica,sans-Serif" font-size="10.00">stopTransmit()</text>
<text text-anchor="start" x="65.5" y="-442.5" font-family="Helvetica,sans-Serif" font-size="10.00">+</text>
<text text-anchor="start" x="86.5" y="-442.5" font-family="Helvetica,sans-Serif" font-size="10.00">update()</text>
<text text-anchor="start" x="65.5" y="-427.5" font-family="Helvetica,sans-Serif" font-size="10.00">#</text>
<text text-anchor="start" x="86.5" y="-427.5" font-family="Helvetica,sans-Serif" font-size="10.00">setMode()</text>
<text text-anchor="start" x="65.5" y="-412.5" font-family="Helvetica,sans-Serif" font-size="10.00">#</text>
<text text-anchor="start" x="86.5" y="-412.5" font-family="Helvetica,sans-Serif" font-size="10.00">setState()</text>
<polygon fill="#666666" stroke="#666666" points="53.5,-647.5 53.5,-647.5 190.5,-647.5 190.5,-647.5 53.5,-647.5"/>
<polygon fill="#666666" stroke="#666666" points="53.5,-602.5 53.5,-602.5 84.5,-602.5 84.5,-602.5 53.5,-602.5"/>
<polygon fill="#666666" stroke="#666666" points="84.5,-602.5 84.5,-602.5 190.5,-602.5 190.5,-602.5 84.5,-602.5"/>
<polygon fill="none" stroke="#666666" points="53,-406 53,-665 190,-665 190,-406 53,-406"/>
</a>
</g>
</g>
<!-- Node2&#45;&gt;Node1 -->
<g id="edge1_Node000001_Node000002" class="edge">
<title>Node2&#45;&gt;Node1</title>
<g id="a_edge1_Node000001_Node000002"><a xlink:title=" ">
<path fill="none" stroke="#63b8ff" d="M121.5,-395.65C121.5,-387.06 121.5,-378.55 121.5,-370.32"/>
<polygon fill="none" stroke="#63b8ff" points="118,-395.78 121.5,-405.78 125,-395.78 118,-395.78"/>
</a>
</g>
</g>
</g>
</svg>
