<?xml version="1.0" encoding="UTF-8" standalone="no"?>
<!DOCTYPE svg PUBLIC "-//W3C//DTD SVG 1.1//EN"
 "http://www.w3.org/Graphics/SVG/1.1/DTD/svg11.dtd">
<!-- Generated by graphviz version 2.43.0 (0)
 -->
<!-- Title: giraffe::gdl::Message::setBroadcastMessage Pages: 1 -->
<svg width="733pt" height="165pt"
 viewBox="0.00 0.00 733.00 164.50" xmlns="http://www.w3.org/2000/svg" xmlns:xlink="http://www.w3.org/1999/xlink">
<g id="graph0" class="graph" transform="scale(1 1) rotate(0) translate(4 160.5)">
<title>giraffe::gdl::Message::setBroadcastMessage</title>
<!-- Node1 -->
<g id="node1" class="node">
<title>Node1</title>
<g id="a_node1"><a xlink:title=" ">
<polygon fill="#bfbfbf" stroke="black" points="595,-55 595,-85 725,-85 725,-55 595,-55"/>
<text text-anchor="start" x="603" y="-73" font-family="Helvetica,sans-Serif" font-size="10.00">giraffe::gdl::Message</text>
<text text-anchor="middle" x="660" y="-62" font-family="Helvetica,sans-Serif" font-size="10.00">::setBroadcastMessage</text>
</a>
</g>
</g>
<!-- Node2 -->
<g id="node2" class="node">
<title>Node2</title>
<g id="a_node2"><a xlink:href="classgiraffe_1_1gdl_1_1DataLink.html#a1fc0f45450322b44cb275b1df159f5fb" target="_top" xlink:title="Broadcast a text message over the Data Link.">
<polygon fill="none" stroke="black" points="428.5,-126 428.5,-156 547.5,-156 547.5,-126 428.5,-126"/>
<text text-anchor="start" x="436.5" y="-144" font-family="Helvetica,sans-Serif" font-size="10.00">giraffe::gdl::DataLink</text>
<text text-anchor="middle" x="488" y="-133" font-family="Helvetica,sans-Serif" font-size="10.00">::broadcastText</text>
</a>
</g>
</g>
<!-- Node1&#45;&gt;Node2 -->
<g id="edge1" class="edge">
<title>Node1&#45;&gt;Node2</title>
<path fill="none" stroke="midnightblue" d="M620,-89.54C601.69,-98.4 579.44,-108.72 559,-117 551.38,-120.09 543.19,-123.13 535.2,-125.96"/>
<polygon fill="midnightblue" stroke="midnightblue" points="621.73,-92.59 629.18,-85.06 618.66,-86.3 621.73,-92.59"/>
</g>
<!-- Node3 -->
<g id="node3" class="node">
<title>Node3</title>
<g id="a_node3"><a xlink:href="classgiraffe_1_1gdl_1_1GdlServer.html#a53b271c9f0602706839489ac0994b763" target="_top" xlink:title=" ">
<polygon fill="none" stroke="black" points="417,-77 417,-107 559,-107 559,-77 417,-77"/>
<text text-anchor="start" x="425" y="-95" font-family="Helvetica,sans-Serif" font-size="10.00">giraffe::gdl::GdlServer</text>
<text text-anchor="middle" x="488" y="-84" font-family="Helvetica,sans-Serif" font-size="10.00">::handleSetNewBroadcast</text>
</a>
</g>
</g>
<!-- Node1&#45;&gt;Node3 -->
<g id="edge2" class="edge">
<title>Node1&#45;&gt;Node3</title>
<path fill="none" stroke="midnightblue" d="M584.78,-79.6C576.23,-80.71 567.53,-81.84 559.04,-82.94"/>
<polygon fill="midnightblue" stroke="midnightblue" points="585.26,-83.07 594.73,-78.32 584.36,-76.13 585.26,-83.07"/>
</g>
<!-- Node7 -->
<g id="node7" class="node">
<title>Node7</title>
<g id="a_node7"><a xlink:href="gdl__terminal_8cpp.html#a3c04138a5bfe5d72780bb7e82a18e627" target="_top" xlink:title=" ">
<polygon fill="none" stroke="black" points="467.5,-38.5 467.5,-57.5 508.5,-57.5 508.5,-38.5 467.5,-38.5"/>
<text text-anchor="middle" x="488" y="-45.5" font-family="Helvetica,sans-Serif" font-size="10.00">main</text>
</a>
</g>
</g>
<!-- Node1&#45;&gt;Node7 -->
<g id="edge6" class="edge">
<title>Node1&#45;&gt;Node7</title>
<path fill="none" stroke="midnightblue" d="M584.56,-60.37C556.7,-56.76 527.3,-52.96 508.59,-50.53"/>
<polygon fill="midnightblue" stroke="midnightblue" points="584.36,-63.87 594.73,-61.68 585.26,-56.93 584.36,-63.87"/>
</g>
<!-- Node8 -->
<g id="node8" class="node">
<title>Node8</title>
<g id="a_node8"><a xlink:href="test__gdl__message_8cpp.html#aa3bc09233b28d567b8c2922818bc5f1c" target="_top" xlink:title=" ">
<polygon fill="none" stroke="black" points="467.5,-0.5 467.5,-19.5 508.5,-19.5 508.5,-0.5 467.5,-0.5"/>
<text text-anchor="middle" x="488" y="-7.5" font-family="Helvetica,sans-Serif" font-size="10.00">TEST</text>
</a>
</g>
</g>
<!-- Node1&#45;&gt;Node8 -->
<g id="edge7" class="edge">
<title>Node1&#45;&gt;Node8</title>
<path fill="none" stroke="midnightblue" d="M615.79,-50.91C598.34,-43.57 577.89,-35.41 559,-29 542.19,-23.3 522.66,-18.11 508.51,-14.6"/>
<polygon fill="midnightblue" stroke="midnightblue" points="614.58,-54.2 625.15,-54.9 617.32,-47.76 614.58,-54.2"/>
</g>
<!-- Node4 -->
<g id="node4" class="node">
<title>Node4</title>
<g id="a_node4"><a xlink:href="classgiraffe_1_1gdl_1_1GdlServer.html#a7a640a9a945bb13a494c175f857fc719" target="_top" xlink:title=" ">
<polygon fill="none" stroke="black" points="258,-77 258,-107 381,-107 381,-77 258,-77"/>
<text text-anchor="start" x="266" y="-95" font-family="Helvetica,sans-Serif" font-size="10.00">giraffe::gdl::GdlServer</text>
<text text-anchor="middle" x="319.5" y="-84" font-family="Helvetica,sans-Serif" font-size="10.00">::routeSet</text>
</a>
</g>
</g>
<!-- Node3&#45;&gt;Node4 -->
<g id="edge3" class="edge">
<title>Node3&#45;&gt;Node4</title>
<path fill="none" stroke="midnightblue" d="M406.76,-92C398.11,-92 389.41,-92 381.05,-92"/>
<polygon fill="midnightblue" stroke="midnightblue" points="406.87,-95.5 416.87,-92 406.87,-88.5 406.87,-95.5"/>
</g>
<!-- Node5 -->
<g id="node5" class="node">
<title>Node5</title>
<g id="a_node5"><a xlink:href="classgiraffe_1_1gdl_1_1GdlServer.html#a7982a27f1e9ee790d196a5cd8cba6217" target="_top" xlink:title=" ">
<polygon fill="none" stroke="black" points="77,-82.5 77,-101.5 222,-101.5 222,-82.5 77,-82.5"/>
<text text-anchor="middle" x="149.5" y="-89.5" font-family="Helvetica,sans-Serif" font-size="10.00">giraffe::gdl::GdlServer::run</text>
</a>
</g>
</g>
<!-- Node4&#45;&gt;Node5 -->
<g id="edge4" class="edge">
<title>Node4&#45;&gt;Node5</title>
<path fill="none" stroke="midnightblue" d="M247.69,-92C239.26,-92 230.66,-92 222.22,-92"/>
<polygon fill="midnightblue" stroke="midnightblue" points="247.85,-95.5 257.85,-92 247.85,-88.5 247.85,-95.5"/>
</g>
<!-- Node6 -->
<g id="node6" class="node">
<title>Node6</title>
<g id="a_node6"><a xlink:href="src_2data__link_2server_2main_8cpp.html#ae66f6b31b5ad750f1fe042a706a4e3d4" target="_top" xlink:title=" ">
<polygon fill="none" stroke="black" points="0,-82.5 0,-101.5 41,-101.5 41,-82.5 0,-82.5"/>
<text text-anchor="middle" x="20.5" y="-89.5" font-family="Helvetica,sans-Serif" font-size="10.00">main</text>
</a>
</g>
</g>
<!-- Node5&#45;&gt;Node6 -->
<g id="edge5" class="edge">
<title>Node5&#45;&gt;Node6</title>
<path fill="none" stroke="midnightblue" d="M66.79,-92C57.31,-92 48.43,-92 41.08,-92"/>
<polygon fill="midnightblue" stroke="midnightblue" points="66.83,-95.5 76.83,-92 66.83,-88.5 66.83,-95.5"/>
</g>
</g>
</svg>
