<?xml version="1.0" encoding="UTF-8" standalone="no"?>
<!DOCTYPE svg PUBLIC "-//W3C//DTD SVG 1.1//EN"
 "http://www.w3.org/Graphics/SVG/1.1/DTD/svg11.dtd">
<!-- Generated by graphviz version 2.43.0 (0)
 -->
<!-- Title: giraffe::gdl::Packet Pages: 1 -->
<svg width="355pt" height="474pt"
 viewBox="0.00 0.00 354.91 474.00" xmlns="http://www.w3.org/2000/svg" xmlns:xlink="http://www.w3.org/1999/xlink">
<g id="graph0" class="graph" transform="scale(1 1) rotate(0) translate(4 470)">
<title>giraffe::gdl::Packet</title>
<!-- Node1 -->
<g id="node1" class="node">
<title>Node1</title>
<g id="a_node1"><a xlink:title="The packet class is used in the transport and network layers. It contains some extra information.">
<polygon fill="#bfbfbf" stroke="black" points="109.41,-0.5 109.41,-112.5 263.41,-112.5 263.41,-0.5 109.41,-0.5"/>
<text text-anchor="middle" x="186.41" y="-100.5" font-family="Helvetica,sans-Serif" font-size="10.00">giraffe::gdl::Packet</text>
<polyline fill="none" stroke="black" points="109.41,-93.5 263.41,-93.5 "/>
<text text-anchor="middle" x="186.41" y="-81.5" font-family="Helvetica,sans-Serif" font-size="10.00"> </text>
<polyline fill="none" stroke="black" points="109.41,-74.5 263.41,-74.5 "/>
<text text-anchor="start" x="117.41" y="-62.5" font-family="Helvetica,sans-Serif" font-size="10.00">+ Packet()</text>
<text text-anchor="start" x="117.41" y="-51.5" font-family="Helvetica,sans-Serif" font-size="10.00">+ Packet()</text>
<text text-anchor="start" x="117.41" y="-40.5" font-family="Helvetica,sans-Serif" font-size="10.00">+ getPacketType()</text>
<text text-anchor="start" x="117.41" y="-29.5" font-family="Helvetica,sans-Serif" font-size="10.00">+ getSendAttempts()</text>
<text text-anchor="start" x="117.41" y="-18.5" font-family="Helvetica,sans-Serif" font-size="10.00">+ incrementSendAttempts()</text>
<text text-anchor="start" x="117.41" y="-7.5" font-family="Helvetica,sans-Serif" font-size="10.00">+ setPacketType()</text>
</a>
</g>
</g>
<!-- Node2 -->
<g id="node2" class="node">
<title>Node2</title>
<g id="a_node2"><a xlink:href="classgiraffe_1_1gdl_1_1Message.html" target="_top" xlink:title="A message that can be sent via GDL.">
<polygon fill="none" stroke="black" points="114.91,-160.5 114.91,-327.5 257.91,-327.5 257.91,-160.5 114.91,-160.5"/>
<text text-anchor="middle" x="186.41" y="-315.5" font-family="Helvetica,sans-Serif" font-size="10.00">giraffe::gdl::Message</text>
<polyline fill="none" stroke="black" points="114.91,-308.5 257.91,-308.5 "/>
<text text-anchor="middle" x="186.41" y="-296.5" font-family="Helvetica,sans-Serif" font-size="10.00"> </text>
<polyline fill="none" stroke="black" points="114.91,-289.5 257.91,-289.5 "/>
<text text-anchor="start" x="122.91" y="-277.5" font-family="Helvetica,sans-Serif" font-size="10.00">+ Message()</text>
<text text-anchor="start" x="122.91" y="-266.5" font-family="Helvetica,sans-Serif" font-size="10.00">+ getData()</text>
<text text-anchor="start" x="122.91" y="-255.5" font-family="Helvetica,sans-Serif" font-size="10.00">+ getIdentifier()</text>
<text text-anchor="start" x="122.91" y="-244.5" font-family="Helvetica,sans-Serif" font-size="10.00">+ getIdentifierString()</text>
<text text-anchor="start" x="122.91" y="-233.5" font-family="Helvetica,sans-Serif" font-size="10.00">+ getImage()</text>
<text text-anchor="start" x="122.91" y="-222.5" font-family="Helvetica,sans-Serif" font-size="10.00">+ getJson()</text>
<text text-anchor="start" x="122.91" y="-211.5" font-family="Helvetica,sans-Serif" font-size="10.00">+ getLocation()</text>
<text text-anchor="start" x="122.91" y="-200.5" font-family="Helvetica,sans-Serif" font-size="10.00">+ getType()</text>
<text text-anchor="start" x="122.91" y="-189.5" font-family="Helvetica,sans-Serif" font-size="10.00">+ setBroadcastMessage()</text>
<text text-anchor="start" x="122.91" y="-178.5" font-family="Helvetica,sans-Serif" font-size="10.00">+ setData()</text>
<text text-anchor="start" x="122.91" y="-167.5" font-family="Helvetica,sans-Serif" font-size="10.00">and 8 more...</text>
</a>
</g>
</g>
<!-- Node2&#45;&gt;Node1 -->
<g id="edge1" class="edge">
<title>Node2&#45;&gt;Node1</title>
<path fill="none" stroke="midnightblue" d="M186.41,-150.04C186.41,-137.24 186.41,-124.45 186.41,-112.64"/>
<polygon fill="none" stroke="midnightblue" points="182.91,-150.29 186.41,-160.29 189.91,-150.29 182.91,-150.29"/>
</g>
<!-- Node3 -->
<g id="node3" class="node">
<title>Node3</title>
<g id="a_node3"><a xlink:title=" ">
<polygon fill="none" stroke="#bfbfbf" points="15.41,-392 15.41,-449 71.41,-449 71.41,-392 15.41,-392"/>
<text text-anchor="middle" x="43.41" y="-437" font-family="Helvetica,sans-Serif" font-size="10.00">uint32_t</text>
<polyline fill="none" stroke="#bfbfbf" points="15.41,-430 71.41,-430 "/>
<text text-anchor="middle" x="43.41" y="-418" font-family="Helvetica,sans-Serif" font-size="10.00"> </text>
<polyline fill="none" stroke="#bfbfbf" points="15.41,-411 71.41,-411 "/>
<text text-anchor="middle" x="43.41" y="-399" font-family="Helvetica,sans-Serif" font-size="10.00"> </text>
</a>
</g>
</g>
<!-- Node3&#45;&gt;Node1 -->
<g id="edge6" class="edge">
<title>Node3&#45;&gt;Node1</title>
<path fill="none" stroke="#404040" d="M31.26,-391.61C11.49,-341.64 -21.45,-235.05 20.41,-160 37.53,-129.31 68.04,-106.66 98.28,-90.57"/>
<polygon fill="none" stroke="#404040" points="98.68,-90.37 102.22,-84.09 109.38,-84.94 105.84,-91.22 98.68,-90.37"/>
<text text-anchor="middle" x="62.91" y="-241.5" font-family="Helvetica,sans-Serif" font-size="10.00"> &#45;send_attempts_</text>
</g>
<!-- Node3&#45;&gt;Node2 -->
<g id="edge2" class="edge">
<title>Node3&#45;&gt;Node2</title>
<path fill="none" stroke="#404040" d="M66.07,-391.85C78.44,-376.75 94.55,-357.09 110.94,-337.09"/>
<polygon fill="none" stroke="#404040" points="111.13,-336.86 111.84,-329.68 118.74,-327.58 118.03,-334.75 111.13,-336.86"/>
<text text-anchor="middle" x="130.41" y="-349" font-family="Helvetica,sans-Serif" font-size="10.00"> &#45;identifier_</text>
</g>
<!-- Node4 -->
<g id="node4" class="node">
<title>Node4</title>
<g id="a_node4"><a xlink:title=" ">
<polygon fill="none" stroke="#bfbfbf" points="150.91,-392 150.91,-449 189.91,-449 189.91,-392 150.91,-392"/>
<text text-anchor="middle" x="170.41" y="-437" font-family="Helvetica,sans-Serif" font-size="10.00">Type</text>
<polyline fill="none" stroke="#bfbfbf" points="150.91,-430 189.91,-430 "/>
<text text-anchor="middle" x="170.41" y="-418" font-family="Helvetica,sans-Serif" font-size="10.00"> </text>
<polyline fill="none" stroke="#bfbfbf" points="150.91,-411 189.91,-411 "/>
<text text-anchor="middle" x="170.41" y="-399" font-family="Helvetica,sans-Serif" font-size="10.00"> </text>
</a>
</g>
</g>
<!-- Node4&#45;&gt;Node2 -->
<g id="edge3" class="edge">
<title>Node4&#45;&gt;Node2</title>
<path fill="none" stroke="#404040" d="M172.94,-391.85C174.27,-377.37 175.99,-358.68 177.74,-339.53"/>
<polygon fill="none" stroke="#404040" points="177.74,-339.53 174.31,-333.19 178.84,-327.58 182.27,-333.92 177.74,-339.53"/>
<text text-anchor="middle" x="194.41" y="-349" font-family="Helvetica,sans-Serif" font-size="10.00"> &#45;type_</text>
</g>
<!-- Node5 -->
<g id="node5" class="node">
<title>Node5</title>
<g id="a_node5"><a xlink:title=" ">
<polygon fill="none" stroke="#bfbfbf" points="208.41,-375.5 208.41,-465.5 330.41,-465.5 330.41,-375.5 208.41,-375.5"/>
<text text-anchor="start" x="216.41" y="-453.5" font-family="Helvetica,sans-Serif" font-size="10.00">variant&lt; std::string,</text>
<text text-anchor="start" x="216.41" y="-442.5" font-family="Helvetica,sans-Serif" font-size="10.00"> giraffe::gdl::Message</text>
<text text-anchor="start" x="216.41" y="-431.5" font-family="Helvetica,sans-Serif" font-size="10.00">::Location, giraffe::gdl</text>
<text text-anchor="middle" x="269.41" y="-420.5" font-family="Helvetica,sans-Serif" font-size="10.00">::Message::Image &gt;</text>
<polyline fill="none" stroke="#bfbfbf" points="208.41,-413.5 330.41,-413.5 "/>
<text text-anchor="middle" x="269.41" y="-401.5" font-family="Helvetica,sans-Serif" font-size="10.00"> </text>
<polyline fill="none" stroke="#bfbfbf" points="208.41,-394.5 330.41,-394.5 "/>
<text text-anchor="middle" x="269.41" y="-382.5" font-family="Helvetica,sans-Serif" font-size="10.00"> </text>
</a>
</g>
</g>
<!-- Node5&#45;&gt;Node2 -->
<g id="edge4" class="edge">
<title>Node5&#45;&gt;Node2</title>
<path fill="none" stroke="#404040" d="M248.46,-375.47C243.12,-364.22 237.16,-351.69 231.11,-338.98"/>
<polygon fill="none" stroke="#404040" points="230.94,-338.62 224.75,-334.91 225.78,-327.78 231.97,-331.48 230.94,-338.62"/>
<text text-anchor="middle" x="265.91" y="-349" font-family="Helvetica,sans-Serif" font-size="10.00"> &#45;contents_</text>
</g>
<!-- Node6 -->
<g id="node6" class="node">
<title>Node6</title>
<g id="a_node6"><a xlink:title=" ">
<polygon fill="none" stroke="#bfbfbf" points="275.91,-215.5 275.91,-272.5 346.91,-272.5 346.91,-215.5 275.91,-215.5"/>
<text text-anchor="middle" x="311.41" y="-260.5" font-family="Helvetica,sans-Serif" font-size="10.00">PacketType</text>
<polyline fill="none" stroke="#bfbfbf" points="275.91,-253.5 346.91,-253.5 "/>
<text text-anchor="middle" x="311.41" y="-241.5" font-family="Helvetica,sans-Serif" font-size="10.00"> </text>
<polyline fill="none" stroke="#bfbfbf" points="275.91,-234.5 346.91,-234.5 "/>
<text text-anchor="middle" x="311.41" y="-222.5" font-family="Helvetica,sans-Serif" font-size="10.00"> </text>
</a>
</g>
</g>
<!-- Node6&#45;&gt;Node1 -->
<g id="edge5" class="edge">
<title>Node6&#45;&gt;Node1</title>
<path fill="none" stroke="#404040" d="M298.34,-215.38C290.16,-198.88 278.99,-177.76 267.41,-160 259.19,-147.41 249.8,-134.47 240.4,-122.2"/>
<polygon fill="none" stroke="#404040" points="240.24,-122 233.4,-119.72 232.87,-112.53 239.71,-114.81 240.24,-122"/>
<text text-anchor="middle" x="288.41" y="-134" font-family="Helvetica,sans-Serif" font-size="10.00"> &#45;packet_type_</text>
</g>
</g>
</svg>
