<?xml version="1.0" encoding="UTF-8" standalone="no"?>
<!DOCTYPE svg PUBLIC "-//W3C//DTD SVG 1.1//EN"
 "http://www.w3.org/Graphics/SVG/1.1/DTD/svg11.dtd">
<!-- Generated by graphviz version 2.43.0 (0)
 -->
<!-- Title: data::Frame::insert Pages: 1 -->
<svg width="565pt" height="100pt"
 viewBox="0.00 0.00 565.00 99.50" xmlns="http://www.w3.org/2000/svg" xmlns:xlink="http://www.w3.org/1999/xlink">
<g id="graph0" class="graph" transform="scale(1 1) rotate(0) translate(4 95.5)">
<title>data::Frame::insert</title>
<!-- Node1 -->
<g id="node1" class="node">
<title>Node1</title>
<g id="a_node1"><a xlink:title="Insert or replace an item.">
<polygon fill="#bfbfbf" stroke="black" points="448,-28 448,-47 557,-47 557,-28 448,-28"/>
<text text-anchor="middle" x="502.5" y="-35" font-family="Helvetica,sans-Serif" font-size="10.00">data::Frame::insert</text>
</a>
</g>
</g>
<!-- Node2 -->
<g id="node2" class="node">
<title>Node2</title>
<g id="a_node2"><a xlink:href="classdata_1_1ErrorFrame.html#a3546a5c7f2517c7f25425e29e0f406d4" target="_top" xlink:title="Add an error (LogPacket) to the error frame.">
<polygon fill="none" stroke="black" points="245,-72 245,-91 391,-91 391,-72 245,-72"/>
<text text-anchor="middle" x="318" y="-79" font-family="Helvetica,sans-Serif" font-size="10.00">data::ErrorFrame::addError</text>
</a>
</g>
</g>
<!-- Node1&#45;&gt;Node2 -->
<g id="edge1" class="edge">
<title>Node1&#45;&gt;Node2</title>
<path fill="none" stroke="midnightblue" d="M459.38,-49.93C444.47,-54.15 427.54,-58.75 412,-62.5 398.06,-65.87 382.86,-69.14 368.86,-71.99"/>
<polygon fill="midnightblue" stroke="midnightblue" points="460.68,-53.2 469.33,-47.08 458.75,-46.47 460.68,-53.2"/>
</g>
<!-- Node3 -->
<g id="node3" class="node">
<title>Node3</title>
<g id="a_node3"><a xlink:href="classdata__middleware_1_1AdcInterpolation.html#acdfd4851787a5f151cba1dc944701f5f" target="_top" xlink:title="Takes in the raw ADC value and the ADC Value Configuration and inserts a calculated voltage divider v...">
<polygon fill="none" stroke="black" points="224,-22.5 224,-52.5 412,-52.5 412,-22.5 224,-22.5"/>
<text text-anchor="start" x="232" y="-40.5" font-family="Helvetica,sans-Serif" font-size="10.00">data_middleware::AdcInterpolation</text>
<text text-anchor="middle" x="318" y="-29.5" font-family="Helvetica,sans-Serif" font-size="10.00">::insertVoltageDividerValue</text>
</a>
</g>
</g>
<!-- Node1&#45;&gt;Node3 -->
<g id="edge2" class="edge">
<title>Node1&#45;&gt;Node3</title>
<path fill="none" stroke="midnightblue" d="M437.49,-37.5C429.25,-37.5 420.68,-37.5 412.1,-37.5"/>
<polygon fill="midnightblue" stroke="midnightblue" points="437.73,-41 447.73,-37.5 437.73,-34 437.73,-41"/>
</g>
<!-- Node4 -->
<g id="node4" class="node">
<title>Node4</title>
<g id="a_node4"><a xlink:href="classdata__middleware_1_1AdcInterpolation.html#a33bed24d36248ab62815595bf30c2d3c" target="_top" xlink:title="Takes in a data packet containing raw ADC data and processes it according to the ADC configuration.">
<polygon fill="none" stroke="black" points="0,-0.5 0,-30.5 188,-30.5 188,-0.5 0,-0.5"/>
<text text-anchor="start" x="8" y="-18.5" font-family="Helvetica,sans-Serif" font-size="10.00">data_middleware::AdcInterpolation</text>
<text text-anchor="middle" x="94" y="-7.5" font-family="Helvetica,sans-Serif" font-size="10.00">::processDataPacket</text>
</a>
</g>
</g>
<!-- Node1&#45;&gt;Node4 -->
<g id="edge4" class="edge">
<title>Node1&#45;&gt;Node4</title>
<path fill="none" stroke="midnightblue" d="M463.38,-24.92C447.66,-20.35 429.14,-15.76 412,-13.5 337.11,-3.63 251.4,-4.92 188.01,-8.24"/>
<polygon fill="midnightblue" stroke="midnightblue" points="462.68,-28.36 473.27,-27.89 464.7,-21.66 462.68,-28.36"/>
</g>
<!-- Node3&#45;&gt;Node4 -->
<g id="edge3" class="edge">
<title>Node3&#45;&gt;Node4</title>
<path fill="none" stroke="midnightblue" d="M213.85,-27.28C205.33,-26.43 196.74,-25.58 188.3,-24.75"/>
<polygon fill="midnightblue" stroke="midnightblue" points="213.52,-30.76 223.82,-28.27 214.21,-23.8 213.52,-30.76"/>
</g>
</g>
</svg>
