<?xml version="1.0" encoding="UTF-8" standalone="no"?>
<!DOCTYPE svg PUBLIC "-//W3C//DTD SVG 1.1//EN"
 "http://www.w3.org/Graphics/SVG/1.1/DTD/svg11.dtd">
<!-- Generated by graphviz version 2.43.0 (0)
 -->
<!-- Title: PredictionParameters::updateParameter Pages: 1 -->
<svg width="286pt" height="86pt"
 viewBox="0.00 0.00 286.00 86.00" xmlns="http://www.w3.org/2000/svg" xmlns:xlink="http://www.w3.org/1999/xlink">
<g id="graph0" class="graph" transform="scale(1 1) rotate(0) translate(4 82)">
<title>PredictionParameters::updateParameter</title>
<!-- Node1 -->
<g id="Node000001" class="node">
<title>Node1</title>
<g id="a_Node000001"><a xlink:title="Validates, filters, and updates a parameter&#39;s value.">
<polygon fill="#999999" stroke="#666666" points="121,-54 0,-54 0,-24 121,-24 121,-54"/>
<text text-anchor="start" x="8" y="-42" font-family="Helvetica,sans-Serif" font-size="10.00">PredictionParameters</text>
<text text-anchor="middle" x="60.5" y="-31" font-family="Helvetica,sans-Serif" font-size="10.00">::updateParameter</text>
</a>
</g>
</g>
<!-- Node2 -->
<g id="Node000002" class="node">
<title>Node2</title>
<g id="a_Node000002"><a xlink:href="classPredictionParameters.html#a87733a1be1951e372c291dc4cb130ad4" target="_top" xlink:title="Applies a filter to a parameter. Does not update the parameter. or care if it&#39;s valid.">
<polygon fill="white" stroke="#666666" points="278,-78 157,-78 157,-48 278,-48 278,-78"/>
<text text-anchor="start" x="165" y="-66" font-family="Helvetica,sans-Serif" font-size="10.00">PredictionParameters</text>
<text text-anchor="middle" x="217.5" y="-55" font-family="Helvetica,sans-Serif" font-size="10.00">::applyInvalidFilter</text>
</a>
</g>
</g>
<!-- Node1&#45;&gt;Node2 -->
<g id="edge1_Node000001_Node000002" class="edge">
<title>Node1&#45;&gt;Node2</title>
<g id="a_edge1_Node000001_Node000002"><a xlink:title=" ">
<path fill="none" stroke="#63b8ff" d="M121.43,-48.28C129.82,-49.58 138.49,-50.92 147.04,-52.24"/>
<polygon fill="#63b8ff" stroke="#63b8ff" points="146.57,-55.71 156.99,-53.79 147.64,-48.8 146.57,-55.71"/>
</a>
</g>
</g>
<!-- Node3 -->
<g id="Node000003" class="node">
<title>Node3</title>
<g id="a_Node000003"><a xlink:href="classPredictionParameters.html#aabfeefcd2cc0a9cb1e47510d62ffd0f8" target="_top" xlink:title="Validates a parameter.">
<polygon fill="white" stroke="#666666" points="278,-30 157,-30 157,0 278,0 278,-30"/>
<text text-anchor="start" x="165" y="-18" font-family="Helvetica,sans-Serif" font-size="10.00">PredictionParameters</text>
<text text-anchor="middle" x="217.5" y="-7" font-family="Helvetica,sans-Serif" font-size="10.00">::validateParameter</text>
</a>
</g>
</g>
<!-- Node1&#45;&gt;Node3 -->
<g id="edge2_Node000001_Node000003" class="edge">
<title>Node1&#45;&gt;Node3</title>
<g id="a_edge2_Node000001_Node000003"><a xlink:title=" ">
<path fill="none" stroke="#63b8ff" d="M121.43,-29.72C129.82,-28.42 138.49,-27.08 147.04,-25.76"/>
<polygon fill="#63b8ff" stroke="#63b8ff" points="147.64,-29.2 156.99,-24.21 146.57,-22.29 147.64,-29.2"/>
</a>
</g>
</g>
</g>
</svg>
