<?xml version="1.0" encoding="UTF-8" standalone="no"?>
<!DOCTYPE svg PUBLIC "-//W3C//DTD SVG 1.1//EN"
 "http://www.w3.org/Graphics/SVG/1.1/DTD/svg11.dtd">
<!-- Generated by graphviz version 2.43.0 (0)
 -->
<!-- Title: extension::Extension::data Pages: 1 -->
<svg width="521pt" height="449pt"
 viewBox="0.00 0.00 521.00 448.55" xmlns="http://www.w3.org/2000/svg" xmlns:xlink="http://www.w3.org/1999/xlink">
<g id="graph0" class="graph" transform="scale(1 1) rotate(0) translate(4 444.55)">
<title>extension::Extension::data</title>
<!-- Node1 -->
<g id="node1" class="node">
<title>Node1</title>
<g id="a_node1"><a xlink:title=" ">
<polygon fill="#bfbfbf" stroke="black" points="394,-210.5 394,-240.5 513,-240.5 513,-210.5 394,-210.5"/>
<text text-anchor="start" x="402" y="-228.5" font-family="Helvetica,sans-Serif" font-size="10.00">extension::Extension</text>
<text text-anchor="middle" x="453.5" y="-217.5" font-family="Helvetica,sans-Serif" font-size="10.00">::data</text>
</a>
</g>
</g>
<!-- Node2 -->
<g id="node2" class="node">
<title>Node2</title>
<g id="a_node2"><a xlink:href="classextension_1_1AdcExtensionBase.html#ab11b609d90a14f558df951d28bc42d85" target="_top" xlink:title=" ">
<polygon fill="none" stroke="black" points="0,-120.5 0,-150.5 161,-150.5 161,-120.5 0,-120.5"/>
<text text-anchor="start" x="8" y="-138.5" font-family="Helvetica,sans-Serif" font-size="10.00">extension::AdcExtensionBase</text>
<text text-anchor="middle" x="80.5" y="-127.5" font-family="Helvetica,sans-Serif" font-size="10.00">::loop</text>
</a>
</g>
</g>
<!-- Node1&#45;&gt;Node2 -->
<g id="edge1" class="edge">
<title>Node1&#45;&gt;Node2</title>
<path fill="none" stroke="midnightblue" d="M419.4,-205.39C401.76,-195.54 379.34,-184.34 358,-177.5 293.5,-156.81 217.19,-146.2 161.1,-140.83"/>
<polygon fill="midnightblue" stroke="midnightblue" points="417.74,-208.48 428.16,-210.4 421.22,-202.4 417.74,-208.48"/>
</g>
<!-- Node3 -->
<g id="node3" class="node">
<title>Node3</title>
<g id="a_node3"><a xlink:href="classextension_1_1Bme280.html#a3c31fc1c62a5c723129f386ff9bba2d4" target="_top" xlink:title=" ">
<polygon fill="none" stroke="black" points="11.5,-400 11.5,-419 149.5,-419 149.5,-400 11.5,-400"/>
<text text-anchor="middle" x="80.5" y="-407" font-family="Helvetica,sans-Serif" font-size="10.00">extension::Bme280::loop</text>
</a>
</g>
</g>
<!-- Node1&#45;&gt;Node3 -->
<g id="edge2" class="edge">
<title>Node1&#45;&gt;Node3</title>
<path fill="none" stroke="midnightblue" d="M448.32,-250.72C439.82,-292.92 416.14,-376.74 358,-412.5 279.49,-460.79 163.21,-434.96 109.98,-419.02"/>
<polygon fill="midnightblue" stroke="midnightblue" points="451.8,-251.18 450.21,-240.7 444.92,-249.88 451.8,-251.18"/>
</g>
<!-- Node4 -->
<g id="node4" class="node">
<title>Node4</title>
<g id="a_node4"><a xlink:href="classextension_1_1Bmi088.html#a785010dddb7e8d5335d8e44bbbc92905" target="_top" xlink:title=" ">
<polygon fill="none" stroke="black" points="210,-334 210,-353 345,-353 345,-334 210,-334"/>
<text text-anchor="middle" x="277.5" y="-341" font-family="Helvetica,sans-Serif" font-size="10.00">extension::Bmi088::loop</text>
</a>
</g>
</g>
<!-- Node1&#45;&gt;Node4 -->
<g id="edge3" class="edge">
<title>Node1&#45;&gt;Node4</title>
<path fill="none" stroke="midnightblue" d="M436.38,-249C419.5,-271.79 390.88,-305.6 358,-324.5 351.23,-328.39 343.7,-331.48 336.05,-333.95"/>
<polygon fill="midnightblue" stroke="midnightblue" points="439.24,-251.02 442.26,-240.86 433.57,-246.92 439.24,-251.02"/>
</g>
<!-- Node5 -->
<g id="node5" class="node">
<title>Node5</title>
<g id="a_node5"><a xlink:href="classextension_1_1Ds18b20.html#acf4b0d0523885df4b2e9ec2bf35f4b9c" target="_top" xlink:title=" ">
<polygon fill="none" stroke="black" points="221,-284.5 221,-314.5 334,-314.5 334,-284.5 221,-284.5"/>
<text text-anchor="start" x="229" y="-302.5" font-family="Helvetica,sans-Serif" font-size="10.00">extension::Ds18b20</text>
<text text-anchor="middle" x="277.5" y="-291.5" font-family="Helvetica,sans-Serif" font-size="10.00">::loop</text>
</a>
</g>
</g>
<!-- Node1&#45;&gt;Node5 -->
<g id="edge4" class="edge">
<title>Node1&#45;&gt;Node5</title>
<path fill="none" stroke="midnightblue" d="M418.3,-245.66C400.68,-255.5 378.61,-267.03 358,-275.5 350.13,-278.73 341.67,-281.75 333.3,-284.48"/>
<polygon fill="midnightblue" stroke="midnightblue" points="420.1,-248.66 427.08,-240.68 416.65,-242.57 420.1,-248.66"/>
</g>
<!-- Node6 -->
<g id="node6" class="node">
<title>Node6</title>
<g id="a_node6"><a xlink:href="classextension_1_1PiCamera.html#a2e7468202c0c0cc42271cb4f9b04c6f7" target="_top" xlink:title=" ">
<polygon fill="none" stroke="black" points="218.5,-235.5 218.5,-265.5 336.5,-265.5 336.5,-235.5 218.5,-235.5"/>
<text text-anchor="start" x="226.5" y="-253.5" font-family="Helvetica,sans-Serif" font-size="10.00">extension::PiCamera</text>
<text text-anchor="middle" x="277.5" y="-242.5" font-family="Helvetica,sans-Serif" font-size="10.00">::loop</text>
</a>
</g>
</g>
<!-- Node1&#45;&gt;Node6 -->
<g id="edge5" class="edge">
<title>Node1&#45;&gt;Node6</title>
<path fill="none" stroke="midnightblue" d="M383.55,-235.41C368.05,-237.63 351.76,-239.97 336.76,-242.13"/>
<polygon fill="midnightblue" stroke="midnightblue" points="384.19,-238.85 393.59,-233.96 383.2,-231.92 384.19,-238.85"/>
</g>
<!-- Node7 -->
<g id="node7" class="node">
<title>Node7</title>
<g id="a_node7"><a xlink:href="classextension_1_1AdcExtensionBase.html#acc1cba94f6676036181990cb2e0296d3" target="_top" xlink:title=" ">
<polygon fill="none" stroke="black" points="197,-49.5 197,-79.5 358,-79.5 358,-49.5 197,-49.5"/>
<text text-anchor="start" x="205" y="-67.5" font-family="Helvetica,sans-Serif" font-size="10.00">extension::AdcExtensionBase</text>
<text text-anchor="middle" x="277.5" y="-56.5" font-family="Helvetica,sans-Serif" font-size="10.00">::percentage</text>
</a>
</g>
</g>
<!-- Node1&#45;&gt;Node7 -->
<g id="edge6" class="edge">
<title>Node1&#45;&gt;Node7</title>
<path fill="none" stroke="midnightblue" d="M441.84,-201.31C427.22,-170.87 398.13,-119.01 358,-89.5 352.75,-85.64 346.9,-82.37 340.8,-79.59"/>
<polygon fill="midnightblue" stroke="midnightblue" points="438.67,-202.8 446.07,-210.38 445.02,-199.84 438.67,-202.8"/>
</g>
<!-- Node8 -->
<g id="node8" class="node">
<title>Node8</title>
<g id="a_node8"><a xlink:href="classextension_1_1Bme280.html#a216c4ae77daca7a479a9eba281e8dbd4" target="_top" xlink:title="Reads the raw environmental data from the BME280.">
<polygon fill="none" stroke="black" points="211,-372.5 211,-402.5 344,-402.5 344,-372.5 211,-372.5"/>
<text text-anchor="start" x="219" y="-390.5" font-family="Helvetica,sans-Serif" font-size="10.00">extension::Bme280::</text>
<text text-anchor="middle" x="277.5" y="-379.5" font-family="Helvetica,sans-Serif" font-size="10.00">readEnvironmentalData</text>
</a>
</g>
</g>
<!-- Node1&#45;&gt;Node8 -->
<g id="edge8" class="edge">
<title>Node1&#45;&gt;Node8</title>
<path fill="none" stroke="midnightblue" d="M441.89,-249.87C427.32,-280.54 398.28,-332.77 358,-362.5 352.76,-366.37 346.91,-369.65 340.82,-372.43"/>
<polygon fill="midnightblue" stroke="midnightblue" points="445.09,-251.28 446.1,-240.73 438.74,-248.34 445.09,-251.28"/>
</g>
<!-- Node9 -->
<g id="node9" class="node">
<title>Node9</title>
<g id="a_node9"><a xlink:href="group__SAMM8QState.html#gab11516e268a094d0dedc47caf5f25a9d" target="_top" xlink:title=" ">
<polygon fill="none" stroke="black" points="218,-0.5 218,-30.5 337,-30.5 337,-0.5 218,-0.5"/>
<text text-anchor="start" x="226" y="-18.5" font-family="Helvetica,sans-Serif" font-size="10.00">extension::SamM8q::</text>
<text text-anchor="middle" x="277.5" y="-7.5" font-family="Helvetica,sans-Serif" font-size="10.00">stateRead</text>
</a>
</g>
</g>
<!-- Node1&#45;&gt;Node9 -->
<g id="edge10" class="edge">
<title>Node1&#45;&gt;Node9</title>
<path fill="none" stroke="midnightblue" d="M446.66,-200.72C435.97,-160.86 409.5,-82.61 358,-39.5 351.92,-34.41 344.78,-30.4 337.32,-27.24"/>
<polygon fill="midnightblue" stroke="midnightblue" points="443.27,-201.62 449.15,-210.43 450.05,-199.88 443.27,-201.62"/>
</g>
<!-- Node11 -->
<g id="node11" class="node">
<title>Node11</title>
<g id="a_node11"><a xlink:href="classextension_1_1AdcExtensionBase.html#ad0be2808763e50886aeecd7de1e344a0" target="_top" xlink:title=" ">
<polygon fill="none" stroke="black" points="197,-186.5 197,-216.5 358,-216.5 358,-186.5 197,-186.5"/>
<text text-anchor="start" x="205" y="-204.5" font-family="Helvetica,sans-Serif" font-size="10.00">extension::AdcExtensionBase</text>
<text text-anchor="middle" x="277.5" y="-193.5" font-family="Helvetica,sans-Serif" font-size="10.00">::voltageDivider</text>
</a>
</g>
</g>
<!-- Node1&#45;&gt;Node11 -->
<g id="edge12" class="edge">
<title>Node1&#45;&gt;Node11</title>
<path fill="none" stroke="midnightblue" d="M383.51,-215.98C375.14,-214.83 366.53,-213.64 358.02,-212.47"/>
<polygon fill="midnightblue" stroke="midnightblue" points="383.21,-219.48 393.59,-217.37 384.16,-212.54 383.21,-219.48"/>
</g>
<!-- Node12 -->
<g id="node12" class="node">
<title>Node12</title>
<g id="a_node12"><a xlink:href="classextension_1_1AdcExtensionBase.html#a8dfeb20998d7257afac6e381e5351d30" target="_top" xlink:title=" ">
<polygon fill="none" stroke="black" points="197,-98.5 197,-128.5 358,-128.5 358,-98.5 197,-98.5"/>
<text text-anchor="start" x="205" y="-116.5" font-family="Helvetica,sans-Serif" font-size="10.00">extension::AdcExtensionBase</text>
<text text-anchor="middle" x="277.5" y="-105.5" font-family="Helvetica,sans-Serif" font-size="10.00">::voltageReference</text>
</a>
</g>
</g>
<!-- Node1&#45;&gt;Node12 -->
<g id="edge14" class="edge">
<title>Node1&#45;&gt;Node12</title>
<path fill="none" stroke="midnightblue" d="M431.25,-203.1C413.16,-185.05 385.75,-160.05 358,-143.5 348.37,-137.76 337.45,-132.78 326.86,-128.62"/>
<polygon fill="midnightblue" stroke="midnightblue" points="428.9,-205.69 438.41,-210.36 433.88,-200.78 428.9,-205.69"/>
</g>
<!-- Node7&#45;&gt;Node2 -->
<g id="edge7" class="edge">
<title>Node7&#45;&gt;Node2</title>
<path fill="none" stroke="midnightblue" d="M216.88,-82.72C210.15,-84.93 203.41,-87.22 197,-89.5 170.06,-99.09 140.06,-111.07 117.39,-120.41"/>
<polygon fill="midnightblue" stroke="midnightblue" points="218.26,-85.95 226.69,-79.54 216.1,-79.29 218.26,-85.95"/>
</g>
<!-- Node8&#45;&gt;Node3 -->
<g id="edge9" class="edge">
<title>Node8&#45;&gt;Node3</title>
<path fill="none" stroke="midnightblue" d="M200.45,-396.08C183.69,-397.97 166.05,-399.96 149.62,-401.81"/>
<polygon fill="midnightblue" stroke="midnightblue" points="201.21,-399.52 210.75,-394.92 200.42,-392.56 201.21,-399.52"/>
</g>
<!-- Node10 -->
<g id="node10" class="node">
<title>Node10</title>
<g id="a_node10"><a xlink:href="classextension_1_1SamM8q.html#a07c59e7e854347253d743501e8cb5878" target="_top" xlink:title="Contains a simple state machine that will configure, reset, and read data from the sensor....">
<polygon fill="none" stroke="black" points="10.5,-6 10.5,-25 150.5,-25 150.5,-6 10.5,-6"/>
<text text-anchor="middle" x="80.5" y="-13" font-family="Helvetica,sans-Serif" font-size="10.00">extension::SamM8q::loop</text>
</a>
</g>
</g>
<!-- Node9&#45;&gt;Node10 -->
<g id="edge11" class="edge">
<title>Node9&#45;&gt;Node10</title>
<path fill="none" stroke="midnightblue" d="M207.86,-15.5C189.3,-15.5 169.2,-15.5 150.61,-15.5"/>
<polygon fill="midnightblue" stroke="midnightblue" points="207.99,-19 217.99,-15.5 207.99,-12 207.99,-19"/>
</g>
<!-- Node11&#45;&gt;Node2 -->
<g id="edge13" class="edge">
<title>Node11&#45;&gt;Node2</title>
<path fill="none" stroke="midnightblue" d="M222.19,-183.12C191.88,-172.86 154.6,-160.24 126.03,-150.57"/>
<polygon fill="midnightblue" stroke="midnightblue" points="221.17,-186.47 231.76,-186.36 223.41,-179.84 221.17,-186.47"/>
</g>
<!-- Node12&#45;&gt;Node2 -->
<g id="edge15" class="edge">
<title>Node12&#45;&gt;Node2</title>
<path fill="none" stroke="midnightblue" d="M186.88,-123.61C178.3,-124.58 169.64,-125.56 161.16,-126.51"/>
<polygon fill="midnightblue" stroke="midnightblue" points="187.36,-127.08 196.9,-122.48 186.58,-120.12 187.36,-127.08"/>
</g>
</g>
</svg>
