<?xml version="1.0" encoding="UTF-8" standalone="no"?>
<!DOCTYPE svg PUBLIC "-//W3C//DTD SVG 1.1//EN"
 "http://www.w3.org/Graphics/SVG/1.1/DTD/svg11.dtd">
<!-- Generated by graphviz version 2.43.0 (0)
 -->
<!-- Title: gfs_sim::GfsSimulator::start Pages: 1 -->
<svg width="1042pt" height="926pt"
 viewBox="0.00 0.00 1042.00 926.00" xmlns="http://www.w3.org/2000/svg" xmlns:xlink="http://www.w3.org/1999/xlink">
<g id="graph0" class="graph" transform="scale(1 1) rotate(0) translate(4 922)">
<title>gfs_sim::GfsSimulator::start</title>
<!-- Node1 -->
<g id="Node000001" class="node">
<title>Node1</title>
<g id="a_Node000001"><a xlink:title=" ">
<polygon fill="#999999" stroke="#666666" points="125,-270 0,-270 0,-240 125,-240 125,-270"/>
<text text-anchor="start" x="8" y="-258" font-family="Helvetica,sans-Serif" font-size="10.00">gfs_sim::GfsSimulator</text>
<text text-anchor="middle" x="62.5" y="-247" font-family="Helvetica,sans-Serif" font-size="10.00">::start</text>
</a>
</g>
</g>
<!-- Node2 -->
<g id="Node000002" class="node">
<title>Node2</title>
<g id="a_Node000002"><a xlink:href="classgfs__sim_1_1GfsSimulator.html#ada138779165690488655ea0856e38d40" target="_top" xlink:title=" ">
<polygon fill="white" stroke="#666666" points="307,-264.5 161,-264.5 161,-245.5 307,-245.5 307,-264.5"/>
<text text-anchor="middle" x="234" y="-252.5" font-family="Helvetica,sans-Serif" font-size="10.00">gfs_sim::GfsSimulator::run</text>
</a>
</g>
</g>
<!-- Node1&#45;&gt;Node2 -->
<g id="edge1_Node000001_Node000002" class="edge">
<title>Node1&#45;&gt;Node2</title>
<g id="a_edge1_Node000001_Node000002"><a xlink:title=" ">
<path fill="none" stroke="#63b8ff" d="M125.17,-255C133.47,-255 142.09,-255 150.68,-255"/>
<polygon fill="#63b8ff" stroke="#63b8ff" points="150.72,-258.5 160.72,-255 150.72,-251.5 150.72,-258.5"/>
</a>
</g>
</g>
<!-- Node3 -->
<g id="Node000003" class="node">
<title>Node3</title>
<g id="a_Node000003"><a xlink:href="classgfs__sim_1_1GfsSimulator.html#aca8946f8987e20a268ca79708ad9006f" target="_top" xlink:title=" ">
<polygon fill="white" stroke="#666666" points="829.5,-678 704.5,-678 704.5,-648 829.5,-648 829.5,-678"/>
<text text-anchor="start" x="712.5" y="-666" font-family="Helvetica,sans-Serif" font-size="10.00">gfs_sim::GfsSimulator</text>
<text text-anchor="middle" x="767" y="-655" font-family="Helvetica,sans-Serif" font-size="10.00">::printData</text>
</a>
</g>
</g>
<!-- Node2&#45;&gt;Node3 -->
<g id="edge2_Node000002_Node000003" class="edge">
<title>Node2&#45;&gt;Node3</title>
<g id="a_edge2_Node000002_Node000003"><a xlink:title=" ">
<path fill="none" stroke="#63b8ff" d="M245.15,-264.59C263.98,-282.24 305.77,-320.83 343,-351 485.43,-466.43 664.83,-592.84 735.45,-641.91"/>
<polygon fill="#63b8ff" stroke="#63b8ff" points="733.69,-644.95 743.9,-647.77 737.68,-639.2 733.69,-644.95"/>
</a>
</g>
</g>
<!-- Node14 -->
<g id="Node000014" class="node">
<title>Node14</title>
<g id="a_Node000014"><a xlink:href="classgfs__sim_1_1GfsSimulator.html#ac29a56aba288ef2a5aa96885c8826ffb" target="_top" xlink:title=" ">
<polygon fill="white" stroke="#666666" points="472.5,-198 347.5,-198 347.5,-168 472.5,-168 472.5,-198"/>
<text text-anchor="start" x="355.5" y="-186" font-family="Helvetica,sans-Serif" font-size="10.00">gfs_sim::GfsSimulator</text>
<text text-anchor="middle" x="410" y="-175" font-family="Helvetica,sans-Serif" font-size="10.00">::stateMachine</text>
</a>
</g>
</g>
<!-- Node2&#45;&gt;Node14 -->
<g id="edge13_Node000002_Node000014" class="edge">
<title>Node2&#45;&gt;Node14</title>
<g id="a_edge13_Node000002_Node000014"><a xlink:title=" ">
<path fill="none" stroke="#63b8ff" d="M258.11,-245.44C284.69,-234.44 329.03,-216.09 362.78,-202.13"/>
<polygon fill="#63b8ff" stroke="#63b8ff" points="364.53,-205.19 372.43,-198.13 361.86,-198.72 364.53,-205.19"/>
</a>
</g>
</g>
<!-- Node21 -->
<g id="Node000021" class="node">
<title>Node21</title>
<g id="a_Node000021"><a xlink:href="classgfs__sim_1_1SimElectrical.html#aca92a422db7c911f71322e5230166620" target="_top" xlink:title=" ">
<polygon fill="white" stroke="#666666" points="472.5,-150 347.5,-150 347.5,-120 472.5,-120 472.5,-150"/>
<text text-anchor="start" x="355.5" y="-138" font-family="Helvetica,sans-Serif" font-size="10.00">gfs_sim::SimElectrical</text>
<text text-anchor="middle" x="410" y="-127" font-family="Helvetica,sans-Serif" font-size="10.00">::update</text>
</a>
</g>
</g>
<!-- Node2&#45;&gt;Node21 -->
<g id="edge20_Node000002_Node000021" class="edge">
<title>Node2&#45;&gt;Node21</title>
<g id="a_edge20_Node000002_Node000021"><a xlink:title=" ">
<path fill="none" stroke="#63b8ff" d="M243.58,-245.22C260.73,-226.2 301.2,-183.93 343,-159 345.78,-157.35 348.68,-155.78 351.67,-154.29"/>
<polygon fill="#63b8ff" stroke="#63b8ff" points="353.16,-157.46 360.79,-150.1 350.24,-151.1 353.16,-157.46"/>
</a>
</g>
</g>
<!-- Node22 -->
<g id="Node000022" class="node">
<title>Node22</title>
<g id="a_Node000022"><a xlink:href="classgfs__sim_1_1BalloonPhysics.html#a2311e27b7bd0683ae15f8b524b3e5948" target="_top" xlink:title=" ">
<polygon fill="white" stroke="#666666" points="477,-342 343,-342 343,-312 477,-312 477,-342"/>
<text text-anchor="start" x="351" y="-330" font-family="Helvetica,sans-Serif" font-size="10.00">gfs_sim::BalloonPhysics</text>
<text text-anchor="middle" x="410" y="-319" font-family="Helvetica,sans-Serif" font-size="10.00">::update</text>
</a>
</g>
</g>
<!-- Node2&#45;&gt;Node22 -->
<g id="edge21_Node000002_Node000022" class="edge">
<title>Node2&#45;&gt;Node22</title>
<g id="a_edge21_Node000002_Node000022"><a xlink:title=" ">
<path fill="none" stroke="#63b8ff" d="M258.11,-264.56C284.69,-275.56 329.03,-293.91 362.78,-307.87"/>
<polygon fill="#63b8ff" stroke="#63b8ff" points="361.86,-311.28 372.43,-311.87 364.53,-304.81 361.86,-311.28"/>
</a>
</g>
</g>
<!-- Node4 -->
<g id="Node000004" class="node">
<title>Node4</title>
<g id="a_Node000004"><a xlink:href="classgfs__sim_1_1BalloonPhysics.html#aabdd9d725af901bdcb61a302330e6ced" target="_top" xlink:title=" ">
<polygon fill="white" stroke="#666666" points="1019,-342 885,-342 885,-312 1019,-312 1019,-342"/>
<text text-anchor="start" x="893" y="-330" font-family="Helvetica,sans-Serif" font-size="10.00">gfs_sim::BalloonPhysics</text>
<text text-anchor="middle" x="952" y="-319" font-family="Helvetica,sans-Serif" font-size="10.00">::getAltitude</text>
</a>
</g>
</g>
<!-- Node3&#45;&gt;Node4 -->
<g id="edge3_Node000003_Node000004" class="edge">
<title>Node3&#45;&gt;Node4</title>
<g id="a_edge3_Node000003_Node000004"><a xlink:title=" ">
<path fill="none" stroke="#63b8ff" d="M778.42,-647.84C793.1,-625.77 819.64,-583.07 834,-543 863.29,-461.27 811.84,-415.46 870,-351 871.98,-348.81 874.15,-346.81 876.47,-344.99"/>
<polygon fill="#63b8ff" stroke="#63b8ff" points="878.43,-347.89 884.86,-339.47 874.58,-342.04 878.43,-347.89"/>
</a>
</g>
</g>
<!-- Node5 -->
<g id="Node000005" class="node">
<title>Node5</title>
<g id="a_Node000005"><a xlink:href="classgfs__sim_1_1BalloonPhysics.html#a1e22851cff5a1fa38bfe4233ef9b8846" target="_top" xlink:title=" ">
<polygon fill="white" stroke="#666666" points="1019,-630 885,-630 885,-600 1019,-600 1019,-630"/>
<text text-anchor="start" x="893" y="-618" font-family="Helvetica,sans-Serif" font-size="10.00">gfs_sim::BalloonPhysics</text>
<text text-anchor="middle" x="952" y="-607" font-family="Helvetica,sans-Serif" font-size="10.00">::getDirectionOfTravel</text>
</a>
</g>
</g>
<!-- Node3&#45;&gt;Node5 -->
<g id="edge4_Node000003_Node000005" class="edge">
<title>Node3&#45;&gt;Node5</title>
<g id="a_edge4_Node000003_Node000005"><a xlink:title=" ">
<path fill="none" stroke="#63b8ff" d="M825.4,-647.94C843.97,-643.07 864.72,-637.63 883.92,-632.59"/>
<polygon fill="#63b8ff" stroke="#63b8ff" points="885.02,-635.93 893.8,-630 883.24,-629.15 885.02,-635.93"/>
</a>
</g>
</g>
<!-- Node6 -->
<g id="Node000006" class="node">
<title>Node6</title>
<g id="a_Node000006"><a xlink:href="classgfs__sim_1_1BalloonPhysics.html#a2702d7d83f4580c3822df584d7dc917a" target="_top" xlink:title=" ">
<polygon fill="white" stroke="#666666" points="1019,-822 885,-822 885,-792 1019,-792 1019,-822"/>
<text text-anchor="start" x="893" y="-810" font-family="Helvetica,sans-Serif" font-size="10.00">gfs_sim::BalloonPhysics</text>
<text text-anchor="middle" x="952" y="-799" font-family="Helvetica,sans-Serif" font-size="10.00">::getHorizontalSpeed</text>
</a>
</g>
</g>
<!-- Node3&#45;&gt;Node6 -->
<g id="edge5_Node000003_Node000006" class="edge">
<title>Node3&#45;&gt;Node6</title>
<g id="a_edge5_Node000003_Node000006"><a xlink:title=" ">
<path fill="none" stroke="#63b8ff" d="M776.9,-678.37C792.48,-703.93 827.15,-755.1 870,-783 872.56,-784.67 875.24,-786.22 878,-787.67"/>
<polygon fill="#63b8ff" stroke="#63b8ff" points="876.53,-790.84 887.06,-791.95 879.52,-784.52 876.53,-790.84"/>
</a>
</g>
</g>
<!-- Node7 -->
<g id="Node000007" class="node">
<title>Node7</title>
<g id="a_Node000007"><a xlink:href="classgfs__sim_1_1SimEnvironmental.html#a24c00e7745858312a0f1a8c8a2c09ee9" target="_top" xlink:title=" ">
<polygon fill="white" stroke="#666666" points="1027.5,-774 876.5,-774 876.5,-744 1027.5,-744 1027.5,-774"/>
<text text-anchor="start" x="884.5" y="-762" font-family="Helvetica,sans-Serif" font-size="10.00">gfs_sim::SimEnvironmental</text>
<text text-anchor="middle" x="952" y="-751" font-family="Helvetica,sans-Serif" font-size="10.00">::getPressureMillibars</text>
</a>
</g>
</g>
<!-- Node3&#45;&gt;Node7 -->
<g id="edge6_Node000003_Node000007" class="edge">
<title>Node3&#45;&gt;Node7</title>
<g id="a_edge6_Node000003_Node000007"><a xlink:title=" ">
<path fill="none" stroke="#63b8ff" d="M785.66,-678.21C805.15,-694.31 838.01,-719.49 870,-735 873.97,-736.92 878.12,-738.73 882.36,-740.41"/>
<polygon fill="#63b8ff" stroke="#63b8ff" points="881.15,-743.69 891.74,-743.91 883.59,-737.13 881.15,-743.69"/>
</a>
</g>
</g>
<!-- Node8 -->
<g id="Node000008" class="node">
<title>Node8</title>
<g id="a_Node000008"><a xlink:href="classgfs__sim_1_1SimEnvironmental.html#a9b9207d81e7270fbb059a921bcbda57a" target="_top" xlink:title=" ">
<polygon fill="white" stroke="#666666" points="1032.5,-726 871.5,-726 871.5,-696 1032.5,-696 1032.5,-726"/>
<text text-anchor="start" x="879.5" y="-714" font-family="Helvetica,sans-Serif" font-size="10.00">gfs_sim::SimEnvironmental</text>
<text text-anchor="middle" x="952" y="-703" font-family="Helvetica,sans-Serif" font-size="10.00">::getRelativeHumidityPercent</text>
</a>
</g>
</g>
<!-- Node3&#45;&gt;Node8 -->
<g id="edge7_Node000003_Node000008" class="edge">
<title>Node3&#45;&gt;Node8</title>
<g id="a_edge7_Node000003_Node000008"><a xlink:title=" ">
<path fill="none" stroke="#63b8ff" d="M825.4,-678.06C843.97,-682.93 864.72,-688.37 883.92,-693.41"/>
<polygon fill="#63b8ff" stroke="#63b8ff" points="883.24,-696.85 893.8,-696 885.02,-690.07 883.24,-696.85"/>
</a>
</g>
</g>
<!-- Node9 -->
<g id="Node000009" class="node">
<title>Node9</title>
<g id="a_Node000009"><a xlink:href="classgfs__sim_1_1SimEnvironmental.html#a23a9b78b67fa0f2c6397209ec57aaa7e" target="_top" xlink:title=" ">
<polygon fill="white" stroke="#666666" points="1027.5,-918 876.5,-918 876.5,-888 1027.5,-888 1027.5,-918"/>
<text text-anchor="start" x="884.5" y="-906" font-family="Helvetica,sans-Serif" font-size="10.00">gfs_sim::SimEnvironmental</text>
<text text-anchor="middle" x="952" y="-895" font-family="Helvetica,sans-Serif" font-size="10.00">::getTemperatureCelsius</text>
</a>
</g>
</g>
<!-- Node3&#45;&gt;Node9 -->
<g id="edge8_Node000003_Node000009" class="edge">
<title>Node3&#45;&gt;Node9</title>
<g id="a_edge8_Node000003_Node000009"><a xlink:title=" ">
<path fill="none" stroke="#63b8ff" d="M770.73,-678.14C778.62,-717.41 805.15,-823.39 870,-879 871.5,-880.29 873.07,-881.51 874.7,-882.66"/>
<polygon fill="#63b8ff" stroke="#63b8ff" points="872.88,-885.65 883.24,-887.91 876.55,-879.69 872.88,-885.65"/>
</a>
</g>
</g>
<!-- Node10 -->
<g id="Node000010" class="node">
<title>Node10</title>
<g id="a_Node000010"><a xlink:href="classgfs__sim_1_1BalloonPhysics.html#a513c05c3d4636406b00788a0a630895f" target="_top" xlink:title=" ">
<polygon fill="white" stroke="#666666" points="1019,-870 885,-870 885,-840 1019,-840 1019,-870"/>
<text text-anchor="start" x="893" y="-858" font-family="Helvetica,sans-Serif" font-size="10.00">gfs_sim::BalloonPhysics</text>
<text text-anchor="middle" x="952" y="-847" font-family="Helvetica,sans-Serif" font-size="10.00">::getTotalDistance</text>
</a>
</g>
</g>
<!-- Node3&#45;&gt;Node10 -->
<g id="edge9_Node000003_Node000010" class="edge">
<title>Node3&#45;&gt;Node10</title>
<g id="a_edge9_Node000003_Node000010"><a xlink:title=" ">
<path fill="none" stroke="#63b8ff" d="M772.92,-678.11C784.41,-711.03 816.22,-789.55 870,-831 871.84,-832.42 873.76,-833.75 875.75,-835.01"/>
<polygon fill="#63b8ff" stroke="#63b8ff" points="874.39,-838.25 884.83,-840.03 877.77,-832.13 874.39,-838.25"/>
</a>
</g>
</g>
<!-- Node11 -->
<g id="Node000011" class="node">
<title>Node11</title>
<g id="a_Node000011"><a xlink:href="classgfs__sim_1_1BalloonPhysics.html#a6b793714900239ce5f4f89295c771671" target="_top" xlink:title=" ">
<polygon fill="white" stroke="#666666" points="1019,-246 885,-246 885,-216 1019,-216 1019,-246"/>
<text text-anchor="start" x="893" y="-234" font-family="Helvetica,sans-Serif" font-size="10.00">gfs_sim::BalloonPhysics</text>
<text text-anchor="middle" x="952" y="-223" font-family="Helvetica,sans-Serif" font-size="10.00">::getVerticalSpeed</text>
</a>
</g>
</g>
<!-- Node3&#45;&gt;Node11 -->
<g id="edge10_Node000003_Node000011" class="edge">
<title>Node3&#45;&gt;Node11</title>
<g id="a_edge10_Node000003_Node000011"><a xlink:title=" ">
<path fill="none" stroke="#63b8ff" d="M778.76,-647.95C793.83,-626.02 820.87,-583.48 834,-543 853.9,-481.65 828.27,-304.18 870,-255 871.96,-252.69 874.12,-250.6 876.46,-248.71"/>
<polygon fill="#63b8ff" stroke="#63b8ff" points="878.6,-251.48 884.95,-242.99 874.7,-245.67 878.6,-251.48"/>
</a>
</g>
</g>
<!-- Node12 -->
<g id="Node000012" class="node">
<title>Node12</title>
<g id="a_Node000012"><a xlink:href="classgfs__sim_1_1SimEnvironmental.html#acecfda79bf510b82d285b8c76f249c64" target="_top" xlink:title=" ">
<polygon fill="white" stroke="#666666" points="1027.5,-582 876.5,-582 876.5,-552 1027.5,-552 1027.5,-582"/>
<text text-anchor="start" x="884.5" y="-570" font-family="Helvetica,sans-Serif" font-size="10.00">gfs_sim::SimEnvironmental</text>
<text text-anchor="middle" x="952" y="-559" font-family="Helvetica,sans-Serif" font-size="10.00">::getWindDirectionDegrees</text>
</a>
</g>
</g>
<!-- Node3&#45;&gt;Node12 -->
<g id="edge11_Node000003_Node000012" class="edge">
<title>Node3&#45;&gt;Node12</title>
<g id="a_edge11_Node000003_Node000012"><a xlink:title=" ">
<path fill="none" stroke="#63b8ff" d="M785.66,-647.79C805.15,-631.69 838.01,-606.51 870,-591 873.97,-589.08 878.12,-587.27 882.36,-585.59"/>
<polygon fill="#63b8ff" stroke="#63b8ff" points="883.59,-588.87 891.74,-582.09 881.15,-582.31 883.59,-588.87"/>
</a>
</g>
</g>
<!-- Node13 -->
<g id="Node000013" class="node">
<title>Node13</title>
<g id="a_Node000013"><a xlink:href="classgfs__sim_1_1SimEnvironmental.html#a9b9c0345d347eb6f2ff42d67dd929226" target="_top" xlink:title=" ">
<polygon fill="white" stroke="#666666" points="1027.5,-678 876.5,-678 876.5,-648 1027.5,-648 1027.5,-678"/>
<text text-anchor="start" x="884.5" y="-666" font-family="Helvetica,sans-Serif" font-size="10.00">gfs_sim::SimEnvironmental</text>
<text text-anchor="middle" x="952" y="-655" font-family="Helvetica,sans-Serif" font-size="10.00">::getWindSpeedMPS</text>
</a>
</g>
</g>
<!-- Node3&#45;&gt;Node13 -->
<g id="edge12_Node000003_Node000013" class="edge">
<title>Node3&#45;&gt;Node13</title>
<g id="a_edge12_Node000003_Node000013"><a xlink:title=" ">
<path fill="none" stroke="#63b8ff" d="M829.7,-663C841.37,-663 853.77,-663 866.02,-663"/>
<polygon fill="#63b8ff" stroke="#63b8ff" points="866.25,-666.5 876.25,-663 866.25,-659.5 866.25,-666.5"/>
</a>
</g>
</g>
<!-- Node15 -->
<g id="Node000015" class="node">
<title>Node15</title>
<g id="a_Node000015"><a xlink:href="classgfs__sim_1_1GfsSimulator.html#a36c7cd87e9dd3381d2d68f9c2da890b1" target="_top" xlink:title=" ">
<polygon fill="white" stroke="#666666" points="651,-174 526,-174 526,-144 651,-144 651,-174"/>
<text text-anchor="start" x="534" y="-162" font-family="Helvetica,sans-Serif" font-size="10.00">gfs_sim::GfsSimulator</text>
<text text-anchor="middle" x="588.5" y="-151" font-family="Helvetica,sans-Serif" font-size="10.00">::stateAscent</text>
</a>
</g>
</g>
<!-- Node14&#45;&gt;Node15 -->
<g id="edge14_Node000014_Node000015" class="edge">
<title>Node14&#45;&gt;Node15</title>
<g id="a_edge14_Node000014_Node000015"><a xlink:title=" ">
<path fill="none" stroke="#63b8ff" d="M472.73,-174.61C486.57,-172.72 501.37,-170.71 515.58,-168.78"/>
<polygon fill="#63b8ff" stroke="#63b8ff" points="516.37,-172.2 525.8,-167.39 515.42,-165.27 516.37,-172.2"/>
</a>
</g>
</g>
<!-- Node16 -->
<g id="Node000016" class="node">
<title>Node16</title>
<g id="a_Node000016"><a xlink:href="classgfs__sim_1_1GfsSimulator.html#aef8c9e54de8a0a20fe00bdb5e85222a6" target="_top" xlink:title=" ">
<polygon fill="white" stroke="#666666" points="651,-126 526,-126 526,-96 651,-96 651,-126"/>
<text text-anchor="start" x="534" y="-114" font-family="Helvetica,sans-Serif" font-size="10.00">gfs_sim::GfsSimulator</text>
<text text-anchor="middle" x="588.5" y="-103" font-family="Helvetica,sans-Serif" font-size="10.00">::stateDescent</text>
</a>
</g>
</g>
<!-- Node14&#45;&gt;Node16 -->
<g id="edge15_Node000014_Node000016" class="edge">
<title>Node14&#45;&gt;Node16</title>
<g id="a_edge15_Node000014_Node000016"><a xlink:title=" ">
<path fill="none" stroke="#63b8ff" d="M457.05,-167.87C463.85,-165.17 470.69,-162.19 477,-159 494.16,-150.32 495.68,-143.36 513,-135 516.79,-133.17 520.74,-131.44 524.78,-129.79"/>
<polygon fill="#63b8ff" stroke="#63b8ff" points="526.21,-133 534.29,-126.14 523.7,-126.46 526.21,-133"/>
</a>
</g>
</g>
<!-- Node17 -->
<g id="Node000017" class="node">
<title>Node17</title>
<g id="a_Node000017"><a xlink:href="classgfs__sim_1_1GfsSimulator.html#a1a556e3ae187c94b33e88e791830dead" target="_top" xlink:title=" ">
<polygon fill="white" stroke="#666666" points="651,-78 526,-78 526,-48 651,-48 651,-78"/>
<text text-anchor="start" x="534" y="-66" font-family="Helvetica,sans-Serif" font-size="10.00">gfs_sim::GfsSimulator</text>
<text text-anchor="middle" x="588.5" y="-55" font-family="Helvetica,sans-Serif" font-size="10.00">::stateLanded</text>
</a>
</g>
</g>
<!-- Node14&#45;&gt;Node17 -->
<g id="edge16_Node000014_Node000017" class="edge">
<title>Node14&#45;&gt;Node17</title>
<g id="a_edge16_Node000014_Node000017"><a xlink:title=" ">
<path fill="none" stroke="#63b8ff" d="M464.24,-167.87C468.83,-165.34 473.18,-162.41 477,-159 503.71,-135.2 485.85,-110.3 513,-87 514.51,-85.71 516.09,-84.48 517.72,-83.32"/>
<polygon fill="#63b8ff" stroke="#63b8ff" points="519.62,-86.26 526.33,-78.06 515.97,-80.29 519.62,-86.26"/>
</a>
</g>
</g>
<!-- Node18 -->
<g id="Node000018" class="node">
<title>Node18</title>
<g id="a_Node000018"><a xlink:href="classgfs__sim_1_1GfsSimulator.html#a37ba325fd084e6aef34e085469711d01" target="_top" xlink:title=" ">
<polygon fill="white" stroke="#666666" points="651,-30 526,-30 526,0 651,0 651,-30"/>
<text text-anchor="start" x="534" y="-18" font-family="Helvetica,sans-Serif" font-size="10.00">gfs_sim::GfsSimulator</text>
<text text-anchor="middle" x="588.5" y="-7" font-family="Helvetica,sans-Serif" font-size="10.00">::stateLanding</text>
</a>
</g>
</g>
<!-- Node14&#45;&gt;Node18 -->
<g id="edge17_Node000014_Node000018" class="edge">
<title>Node14&#45;&gt;Node18</title>
<g id="a_edge17_Node000014_Node000018"><a xlink:title=" ">
<path fill="none" stroke="#63b8ff" d="M465.83,-167.95C469.93,-165.42 473.74,-162.46 477,-159 515.23,-118.52 474.03,-78.77 513,-39 514.28,-37.7 515.62,-36.47 517.03,-35.3"/>
<polygon fill="#63b8ff" stroke="#63b8ff" points="519.42,-37.9 525.66,-29.34 515.44,-32.15 519.42,-37.9"/>
</a>
</g>
</g>
<!-- Node19 -->
<g id="Node000019" class="node">
<title>Node19</title>
<g id="a_Node000019"><a xlink:href="classgfs__sim_1_1GfsSimulator.html#a8e6ab345c1dca70e226c628486c09e9c" target="_top" xlink:title=" ">
<polygon fill="white" stroke="#666666" points="651,-270 526,-270 526,-240 651,-240 651,-270"/>
<text text-anchor="start" x="534" y="-258" font-family="Helvetica,sans-Serif" font-size="10.00">gfs_sim::GfsSimulator</text>
<text text-anchor="middle" x="588.5" y="-247" font-family="Helvetica,sans-Serif" font-size="10.00">::statePop</text>
</a>
</g>
</g>
<!-- Node14&#45;&gt;Node19 -->
<g id="edge18_Node000014_Node000019" class="edge">
<title>Node14&#45;&gt;Node19</title>
<g id="a_edge18_Node000014_Node000019"><a xlink:title=" ">
<path fill="none" stroke="#63b8ff" d="M440.46,-198.09C460.6,-208.11 488.06,-221.16 513,-231 517.78,-232.88 522.76,-234.73 527.8,-236.52"/>
<polygon fill="#63b8ff" stroke="#63b8ff" points="526.9,-239.91 537.49,-239.87 529.18,-233.3 526.9,-239.91"/>
</a>
</g>
</g>
<!-- Node20 -->
<g id="Node000020" class="node">
<title>Node20</title>
<g id="a_Node000020"><a xlink:href="classgfs__sim_1_1GfsSimulator.html#afc02d0812770cccd5a8013757504c60f" target="_top" xlink:title=" ">
<polygon fill="white" stroke="#666666" points="651,-222 526,-222 526,-192 651,-192 651,-222"/>
<text text-anchor="start" x="534" y="-210" font-family="Helvetica,sans-Serif" font-size="10.00">gfs_sim::GfsSimulator</text>
<text text-anchor="middle" x="588.5" y="-199" font-family="Helvetica,sans-Serif" font-size="10.00">::statePreLaunch</text>
</a>
</g>
</g>
<!-- Node14&#45;&gt;Node20 -->
<g id="edge19_Node000014_Node000020" class="edge">
<title>Node14&#45;&gt;Node20</title>
<g id="a_edge19_Node000014_Node000020"><a xlink:title=" ">
<path fill="none" stroke="#63b8ff" d="M472.73,-191.39C486.57,-193.28 501.37,-195.29 515.58,-197.22"/>
<polygon fill="#63b8ff" stroke="#63b8ff" points="515.42,-200.73 525.8,-198.61 516.37,-193.8 515.42,-200.73"/>
</a>
</g>
</g>
<!-- Node23 -->
<g id="Node000023" class="node">
<title>Node23</title>
<g id="a_Node000023"><a xlink:href="classgfs__sim_1_1SimEnvironmental.html#a9a1c7ebde413a1dce4b885201b33ab23" target="_top" xlink:title=" ">
<polygon fill="white" stroke="#666666" points="664,-318 513,-318 513,-288 664,-288 664,-318"/>
<text text-anchor="start" x="521" y="-306" font-family="Helvetica,sans-Serif" font-size="10.00">gfs_sim::SimEnvironmental</text>
<text text-anchor="middle" x="588.5" y="-295" font-family="Helvetica,sans-Serif" font-size="10.00">::setAltitudeMeters</text>
</a>
</g>
</g>
<!-- Node22&#45;&gt;Node23 -->
<g id="edge22_Node000022_Node000023" class="edge">
<title>Node22&#45;&gt;Node23</title>
<g id="a_edge22_Node000022_Node000023"><a xlink:title=" ">
<path fill="none" stroke="#63b8ff" d="M477.22,-318C485.59,-316.86 494.24,-315.68 502.84,-314.51"/>
<polygon fill="#63b8ff" stroke="#63b8ff" points="503.46,-317.96 512.9,-313.14 502.52,-311.02 503.46,-317.96"/>
</a>
</g>
</g>
<!-- Node24 -->
<g id="Node000024" class="node">
<title>Node24</title>
<g id="a_Node000024"><a xlink:href="classgfs__sim_1_1BalloonPhysics.html#a242364cba2c68659179bf3c27993e8d8" target="_top" xlink:title=" ">
<polygon fill="white" stroke="#666666" points="655.5,-366 521.5,-366 521.5,-336 655.5,-336 655.5,-366"/>
<text text-anchor="start" x="529.5" y="-354" font-family="Helvetica,sans-Serif" font-size="10.00">gfs_sim::BalloonPhysics</text>
<text text-anchor="middle" x="588.5" y="-343" font-family="Helvetica,sans-Serif" font-size="10.00">::stateMachine</text>
</a>
</g>
</g>
<!-- Node22&#45;&gt;Node24 -->
<g id="edge23_Node000022_Node000024" class="edge">
<title>Node22&#45;&gt;Node24</title>
<g id="a_edge23_Node000022_Node000024"><a xlink:title=" ">
<path fill="none" stroke="#63b8ff" d="M477.22,-336C488.42,-337.53 500.12,-339.12 511.55,-340.67"/>
<polygon fill="#63b8ff" stroke="#63b8ff" points="511.11,-344.14 521.49,-342.02 512.05,-337.21 511.11,-344.14"/>
</a>
</g>
</g>
<!-- Node35 -->
<g id="Node000035" class="node">
<title>Node35</title>
<g id="a_Node000035"><a xlink:href="classgfs__sim_1_1BalloonPhysics.html#a7a8a298ba5dad0d454a165bce45dd889" target="_top" xlink:title=" ">
<polygon fill="white" stroke="#666666" points="834,-534 700,-534 700,-504 834,-504 834,-534"/>
<text text-anchor="start" x="708" y="-522" font-family="Helvetica,sans-Serif" font-size="10.00">gfs_sim::BalloonPhysics</text>
<text text-anchor="middle" x="767" y="-511" font-family="Helvetica,sans-Serif" font-size="10.00">::updateHorizontal</text>
</a>
</g>
</g>
<!-- Node22&#45;&gt;Node35 -->
<g id="edge43_Node000022_Node000035" class="edge">
<title>Node22&#45;&gt;Node35</title>
<g id="a_edge43_Node000022_Node000035"><a xlink:title=" ">
<path fill="none" stroke="#63b8ff" d="M438.86,-342.07C502.21,-376.33 657.13,-460.12 728.67,-498.81"/>
<polygon fill="#63b8ff" stroke="#63b8ff" points="727.32,-502.06 737.78,-503.74 730.65,-495.9 727.32,-502.06"/>
</a>
</g>
</g>
<!-- Node25 -->
<g id="Node000025" class="node">
<title>Node25</title>
<g id="a_Node000025"><a xlink:href="classgfs__sim_1_1BalloonPhysics.html#a1dc559b4facb82e597e4af3f5b1c1968" target="_top" xlink:title=" ">
<polygon fill="white" stroke="#666666" points="834,-246 700,-246 700,-216 834,-216 834,-246"/>
<text text-anchor="start" x="708" y="-234" font-family="Helvetica,sans-Serif" font-size="10.00">gfs_sim::BalloonPhysics</text>
<text text-anchor="middle" x="767" y="-223" font-family="Helvetica,sans-Serif" font-size="10.00">::stateAscent</text>
</a>
</g>
</g>
<!-- Node24&#45;&gt;Node25 -->
<g id="edge24_Node000024_Node000025" class="edge">
<title>Node24&#45;&gt;Node25</title>
<g id="a_edge24_Node000024_Node000025"><a xlink:title=" ">
<path fill="none" stroke="#63b8ff" d="M650.67,-335.94C655.45,-333.41 659.98,-330.45 664,-327 691.15,-303.7 673.29,-278.8 700,-255 701.31,-253.83 702.69,-252.71 704.12,-251.65"/>
<polygon fill="#63b8ff" stroke="#63b8ff" points="706.22,-254.46 712.76,-246.13 702.45,-248.56 706.22,-254.46"/>
</a>
</g>
</g>
<!-- Node28 -->
<g id="Node000028" class="node">
<title>Node28</title>
<g id="a_Node000028"><a xlink:href="classgfs__sim_1_1BalloonPhysics.html#af6b050e0a9fd0383f3124925a83d3b3d" target="_top" xlink:title=" ">
<polygon fill="white" stroke="#666666" points="834,-294 700,-294 700,-264 834,-264 834,-294"/>
<text text-anchor="start" x="708" y="-282" font-family="Helvetica,sans-Serif" font-size="10.00">gfs_sim::BalloonPhysics</text>
<text text-anchor="middle" x="767" y="-271" font-family="Helvetica,sans-Serif" font-size="10.00">::stateDescent</text>
</a>
</g>
</g>
<!-- Node24&#45;&gt;Node28 -->
<g id="edge29_Node000024_Node000028" class="edge">
<title>Node24&#45;&gt;Node28</title>
<g id="a_edge29_Node000024_Node000028"><a xlink:title=" ">
<path fill="none" stroke="#63b8ff" d="M642.71,-335.86C649.99,-333.21 657.27,-330.25 664,-327 681.32,-318.64 682.84,-311.68 700,-303 703.35,-301.3 706.85,-299.67 710.42,-298.1"/>
<polygon fill="#63b8ff" stroke="#63b8ff" points="712.07,-301.21 719.95,-294.13 709.38,-294.75 712.07,-301.21"/>
</a>
</g>
</g>
<!-- Node29 -->
<g id="Node000029" class="node">
<title>Node29</title>
<g id="a_Node000029"><a xlink:href="classgfs__sim_1_1BalloonPhysics.html#ad607d67a29e5250131d2c4a35b604ee6" target="_top" xlink:title=" ">
<polygon fill="white" stroke="#666666" points="834,-390 700,-390 700,-360 834,-360 834,-390"/>
<text text-anchor="start" x="708" y="-378" font-family="Helvetica,sans-Serif" font-size="10.00">gfs_sim::BalloonPhysics</text>
<text text-anchor="middle" x="767" y="-367" font-family="Helvetica,sans-Serif" font-size="10.00">::stateLanded</text>
</a>
</g>
</g>
<!-- Node24&#45;&gt;Node29 -->
<g id="edge33_Node000024_Node000029" class="edge">
<title>Node24&#45;&gt;Node29</title>
<g id="a_edge33_Node000024_Node000029"><a xlink:title=" ">
<path fill="none" stroke="#63b8ff" d="M655.72,-360C666.92,-361.53 678.62,-363.12 690.05,-364.67"/>
<polygon fill="#63b8ff" stroke="#63b8ff" points="689.61,-368.14 699.99,-366.02 690.55,-361.21 689.61,-368.14"/>
</a>
</g>
</g>
<!-- Node30 -->
<g id="Node000030" class="node">
<title>Node30</title>
<g id="a_Node000030"><a xlink:href="classgfs__sim_1_1BalloonPhysics.html#a62a1d94e39dd51c69e2eae2c37c30967" target="_top" xlink:title=" ">
<polygon fill="white" stroke="#666666" points="834,-342 700,-342 700,-312 834,-312 834,-342"/>
<text text-anchor="start" x="708" y="-330" font-family="Helvetica,sans-Serif" font-size="10.00">gfs_sim::BalloonPhysics</text>
<text text-anchor="middle" x="767" y="-319" font-family="Helvetica,sans-Serif" font-size="10.00">::stateLanding</text>
</a>
</g>
</g>
<!-- Node24&#45;&gt;Node30 -->
<g id="edge34_Node000024_Node000030" class="edge">
<title>Node24&#45;&gt;Node30</title>
<g id="a_edge34_Node000024_Node000030"><a xlink:title=" ">
<path fill="none" stroke="#63b8ff" d="M655.72,-342C666.92,-340.47 678.62,-338.88 690.05,-337.33"/>
<polygon fill="#63b8ff" stroke="#63b8ff" points="690.55,-340.79 699.99,-335.98 689.61,-333.86 690.55,-340.79"/>
</a>
</g>
</g>
<!-- Node32 -->
<g id="Node000032" class="node">
<title>Node32</title>
<g id="a_Node000032"><a xlink:href="classgfs__sim_1_1BalloonPhysics.html#a803f6d0ee287028463d00df0ed0bfa5a" target="_top" xlink:title=" ">
<polygon fill="white" stroke="#666666" points="834,-198 700,-198 700,-168 834,-168 834,-198"/>
<text text-anchor="start" x="708" y="-186" font-family="Helvetica,sans-Serif" font-size="10.00">gfs_sim::BalloonPhysics</text>
<text text-anchor="middle" x="767" y="-175" font-family="Helvetica,sans-Serif" font-size="10.00">::statePop</text>
</a>
</g>
</g>
<!-- Node24&#45;&gt;Node32 -->
<g id="edge37_Node000024_Node000032" class="edge">
<title>Node24&#45;&gt;Node32</title>
<g id="a_edge37_Node000024_Node000032"><a xlink:title=" ">
<path fill="none" stroke="#63b8ff" d="M652.76,-335.82C656.86,-333.31 660.67,-330.4 664,-327 702.97,-287.23 661.77,-247.48 700,-207 700.92,-206.03 701.88,-205.09 702.88,-204.2"/>
<polygon fill="#63b8ff" stroke="#63b8ff" points="705.22,-206.82 711.17,-198.05 701.05,-201.2 705.22,-206.82"/>
</a>
</g>
</g>
<!-- Node33 -->
<g id="Node000033" class="node">
<title>Node33</title>
<g id="a_Node000033"><a xlink:href="classgfs__sim_1_1BalloonPhysics.html#a318667569547ad8d1668bc0bf8e49faa" target="_top" xlink:title=" ">
<polygon fill="white" stroke="#666666" points="834,-438 700,-438 700,-408 834,-408 834,-438"/>
<text text-anchor="start" x="708" y="-426" font-family="Helvetica,sans-Serif" font-size="10.00">gfs_sim::BalloonPhysics</text>
<text text-anchor="middle" x="767" y="-415" font-family="Helvetica,sans-Serif" font-size="10.00">::statePreLaunch</text>
</a>
</g>
</g>
<!-- Node24&#45;&gt;Node33 -->
<g id="edge40_Node000024_Node000033" class="edge">
<title>Node24&#45;&gt;Node33</title>
<g id="a_edge40_Node000024_Node000033"><a xlink:title=" ">
<path fill="none" stroke="#63b8ff" d="M622.64,-366.03C644.48,-375.77 673.77,-388.55 700,-399 704.44,-400.77 709.06,-402.56 713.72,-404.32"/>
<polygon fill="#63b8ff" stroke="#63b8ff" points="712.66,-407.66 723.25,-407.89 715.11,-401.11 712.66,-407.66"/>
</a>
</g>
</g>
<!-- Node25&#45;&gt;Node4 -->
<g id="edge25_Node000025_Node000004" class="edge">
<title>Node25&#45;&gt;Node4</title>
<g id="a_edge25_Node000025_Node000004"><a xlink:title=" ">
<path fill="none" stroke="#63b8ff" d="M818.94,-246.05C824.26,-248.62 829.4,-251.59 834,-255 855.42,-270.88 848.11,-287.77 870,-303 872.16,-304.5 874.41,-305.91 876.74,-307.23"/>
<polygon fill="#63b8ff" stroke="#63b8ff" points="875.51,-310.53 886.01,-311.91 878.66,-304.28 875.51,-310.53"/>
</a>
</g>
</g>
<!-- Node25&#45;&gt;Node11 -->
<g id="edge26_Node000025_Node000011" class="edge">
<title>Node25&#45;&gt;Node11</title>
<g id="a_edge26_Node000025_Node000011"><a xlink:title=" ">
<path fill="none" stroke="#63b8ff" d="M834.07,-231C847.2,-231 861.1,-231 874.55,-231"/>
<polygon fill="#63b8ff" stroke="#63b8ff" points="874.72,-234.5 884.72,-231 874.72,-227.5 874.72,-234.5"/>
</a>
</g>
</g>
<!-- Node26 -->
<g id="Node000026" class="node">
<title>Node26</title>
<g id="a_Node000026"><a xlink:href="classgfs__sim_1_1BalloonPhysics.html#ad636cde7b1f43b24ddb3a5f75a8abbf6" target="_top" xlink:title=" ">
<polygon fill="white" stroke="#666666" points="1019.5,-294 884.5,-294 884.5,-264 1019.5,-264 1019.5,-294"/>
<text text-anchor="start" x="892.5" y="-282" font-family="Helvetica,sans-Serif" font-size="10.00">gfs_sim::BalloonPhysics</text>
<text text-anchor="middle" x="952" y="-271" font-family="Helvetica,sans-Serif" font-size="10.00">::setVerticalAcceleration</text>
</a>
</g>
</g>
<!-- Node25&#45;&gt;Node26 -->
<g id="edge27_Node000025_Node000026" class="edge">
<title>Node25&#45;&gt;Node26</title>
<g id="a_edge27_Node000025_Node000026"><a xlink:title=" ">
<path fill="none" stroke="#63b8ff" d="M825.4,-246.06C843.97,-250.93 864.72,-256.37 883.92,-261.41"/>
<polygon fill="#63b8ff" stroke="#63b8ff" points="883.24,-264.85 893.8,-264 885.02,-258.07 883.24,-264.85"/>
</a>
</g>
</g>
<!-- Node27 -->
<g id="Node000027" class="node">
<title>Node27</title>
<g id="a_Node000027"><a xlink:href="classgfs__sim_1_1BalloonPhysics.html#a7689e5f5bcb82007f89131b6c4fb9b07" target="_top" xlink:title=" ">
<polygon fill="white" stroke="#666666" points="1034,-198 870,-198 870,-168 1034,-168 1034,-198"/>
<text text-anchor="start" x="878" y="-186" font-family="Helvetica,sans-Serif" font-size="10.00">gfs_sim::BalloonPhysics</text>
<text text-anchor="middle" x="952" y="-175" font-family="Helvetica,sans-Serif" font-size="10.00">::verticalAccelerationVariation</text>
</a>
</g>
</g>
<!-- Node25&#45;&gt;Node27 -->
<g id="edge28_Node000025_Node000027" class="edge">
<title>Node25&#45;&gt;Node27</title>
<g id="a_edge28_Node000025_Node000027"><a xlink:title=" ">
<path fill="none" stroke="#63b8ff" d="M825.4,-215.94C843.97,-211.07 864.72,-205.63 883.92,-200.59"/>
<polygon fill="#63b8ff" stroke="#63b8ff" points="885.02,-203.93 893.8,-198 883.24,-197.15 885.02,-203.93"/>
</a>
</g>
</g>
<!-- Node28&#45;&gt;Node4 -->
<g id="edge30_Node000028_Node000004" class="edge">
<title>Node28&#45;&gt;Node4</title>
<g id="a_edge30_Node000028_Node000004"><a xlink:title=" ">
<path fill="none" stroke="#63b8ff" d="M825.4,-294.06C843.97,-298.93 864.72,-304.37 883.92,-309.41"/>
<polygon fill="#63b8ff" stroke="#63b8ff" points="883.24,-312.85 893.8,-312 885.02,-306.07 883.24,-312.85"/>
</a>
</g>
</g>
<!-- Node28&#45;&gt;Node11 -->
<g id="edge31_Node000028_Node000011" class="edge">
<title>Node28&#45;&gt;Node11</title>
<g id="a_edge31_Node000028_Node000011"><a xlink:title=" ">
<path fill="none" stroke="#63b8ff" d="M825.4,-263.94C843.97,-259.07 864.72,-253.63 883.92,-248.59"/>
<polygon fill="#63b8ff" stroke="#63b8ff" points="885.02,-251.93 893.8,-246 883.24,-245.15 885.02,-251.93"/>
</a>
</g>
</g>
<!-- Node28&#45;&gt;Node26 -->
<g id="edge32_Node000028_Node000026" class="edge">
<title>Node28&#45;&gt;Node26</title>
<g id="a_edge32_Node000028_Node000026"><a xlink:title=" ">
<path fill="none" stroke="#63b8ff" d="M834.07,-279C847.12,-279 860.92,-279 874.29,-279"/>
<polygon fill="#63b8ff" stroke="#63b8ff" points="874.42,-282.5 884.42,-279 874.42,-275.5 874.42,-282.5"/>
</a>
</g>
</g>
<!-- Node30&#45;&gt;Node4 -->
<g id="edge35_Node000030_Node000004" class="edge">
<title>Node30&#45;&gt;Node4</title>
<g id="a_edge35_Node000030_Node000004"><a xlink:title=" ">
<path fill="none" stroke="#63b8ff" d="M834.07,-327C847.2,-327 861.1,-327 874.55,-327"/>
<polygon fill="#63b8ff" stroke="#63b8ff" points="874.72,-330.5 884.72,-327 874.72,-323.5 874.72,-330.5"/>
</a>
</g>
</g>
<!-- Node31 -->
<g id="Node000031" class="node">
<title>Node31</title>
<g id="a_Node000031"><a xlink:href="classgfs__sim_1_1BalloonPhysics.html#af1282403eca3d3215ec1fb16edd11742" target="_top" xlink:title=" ">
<polygon fill="white" stroke="#666666" points="1019,-390 885,-390 885,-360 1019,-360 1019,-390"/>
<text text-anchor="start" x="893" y="-378" font-family="Helvetica,sans-Serif" font-size="10.00">gfs_sim::BalloonPhysics</text>
<text text-anchor="middle" x="952" y="-367" font-family="Helvetica,sans-Serif" font-size="10.00">::stopTravel</text>
</a>
</g>
</g>
<!-- Node30&#45;&gt;Node31 -->
<g id="edge36_Node000030_Node000031" class="edge">
<title>Node30&#45;&gt;Node31</title>
<g id="a_edge36_Node000030_Node000031"><a xlink:title=" ">
<path fill="none" stroke="#63b8ff" d="M825.4,-342.06C843.97,-346.93 864.72,-352.37 883.92,-357.41"/>
<polygon fill="#63b8ff" stroke="#63b8ff" points="883.24,-360.85 893.8,-360 885.02,-354.07 883.24,-360.85"/>
</a>
</g>
</g>
<!-- Node32&#45;&gt;Node11 -->
<g id="edge38_Node000032_Node000011" class="edge">
<title>Node32&#45;&gt;Node11</title>
<g id="a_edge38_Node000032_Node000011"><a xlink:title=" ">
<path fill="none" stroke="#63b8ff" d="M825.4,-198.06C843.97,-202.93 864.72,-208.37 883.92,-213.41"/>
<polygon fill="#63b8ff" stroke="#63b8ff" points="883.24,-216.85 893.8,-216 885.02,-210.07 883.24,-216.85"/>
</a>
</g>
</g>
<!-- Node32&#45;&gt;Node27 -->
<g id="edge39_Node000032_Node000027" class="edge">
<title>Node32&#45;&gt;Node27</title>
<g id="a_edge39_Node000032_Node000027"><a xlink:title=" ">
<path fill="none" stroke="#63b8ff" d="M834.07,-183C842.38,-183 851,-183 859.62,-183"/>
<polygon fill="#63b8ff" stroke="#63b8ff" points="859.72,-186.5 869.72,-183 859.72,-179.5 859.72,-186.5"/>
</a>
</g>
</g>
<!-- Node33&#45;&gt;Node26 -->
<g id="edge42_Node000033_Node000026" class="edge">
<title>Node33&#45;&gt;Node26</title>
<g id="a_edge42_Node000033_Node000026"><a xlink:title=" ">
<path fill="none" stroke="#63b8ff" d="M822.27,-407.9C826.54,-405.38 830.53,-402.43 834,-399 866.38,-366.94 836.66,-334.06 870,-303 871.74,-301.38 873.59,-299.86 875.53,-298.45"/>
<polygon fill="#63b8ff" stroke="#63b8ff" points="877.83,-301.13 884.48,-292.88 874.14,-295.19 877.83,-301.13"/>
</a>
</g>
</g>
<!-- Node34 -->
<g id="Node000034" class="node">
<title>Node34</title>
<g id="a_Node000034"><a xlink:href="classgfs__sim_1_1BalloonPhysics.html#ae352cef7b58c5ed04d7fb968f1835f40" target="_top" xlink:title=" ">
<polygon fill="white" stroke="#666666" points="1019,-438 885,-438 885,-408 1019,-408 1019,-438"/>
<text text-anchor="start" x="893" y="-426" font-family="Helvetica,sans-Serif" font-size="10.00">gfs_sim::BalloonPhysics</text>
<text text-anchor="middle" x="952" y="-415" font-family="Helvetica,sans-Serif" font-size="10.00">::setHorizontalSpeed</text>
</a>
</g>
</g>
<!-- Node33&#45;&gt;Node34 -->
<g id="edge41_Node000033_Node000034" class="edge">
<title>Node33&#45;&gt;Node34</title>
<g id="a_edge41_Node000033_Node000034"><a xlink:title=" ">
<path fill="none" stroke="#63b8ff" d="M834.07,-423C847.2,-423 861.1,-423 874.55,-423"/>
<polygon fill="#63b8ff" stroke="#63b8ff" points="874.72,-426.5 884.72,-423 874.72,-419.5 874.72,-426.5"/>
</a>
</g>
</g>
<!-- Node35&#45;&gt;Node5 -->
<g id="edge44_Node000035_Node000005" class="edge">
<title>Node35&#45;&gt;Node5</title>
<g id="a_edge44_Node000035_Node000005"><a xlink:title=" ">
<path fill="none" stroke="#63b8ff" d="M785.66,-534.21C805.15,-550.31 838.01,-575.49 870,-591 873.97,-592.92 878.12,-594.73 882.36,-596.41"/>
<polygon fill="#63b8ff" stroke="#63b8ff" points="881.15,-599.69 891.74,-599.91 883.59,-593.13 881.15,-599.69"/>
</a>
</g>
</g>
<!-- Node35&#45;&gt;Node12 -->
<g id="edge45_Node000035_Node000012" class="edge">
<title>Node35&#45;&gt;Node12</title>
<g id="a_edge45_Node000035_Node000012"><a xlink:title=" ">
<path fill="none" stroke="#63b8ff" d="M825.4,-534.06C843.97,-538.93 864.72,-544.37 883.92,-549.41"/>
<polygon fill="#63b8ff" stroke="#63b8ff" points="883.24,-552.85 893.8,-552 885.02,-546.07 883.24,-552.85"/>
</a>
</g>
</g>
<!-- Node35&#45;&gt;Node13 -->
<g id="edge46_Node000035_Node000013" class="edge">
<title>Node35&#45;&gt;Node13</title>
<g id="a_edge46_Node000035_Node000013"><a xlink:title=" ">
<path fill="none" stroke="#63b8ff" d="M776.9,-534.37C792.48,-559.93 827.15,-611.1 870,-639 872.56,-640.67 875.24,-642.22 878,-643.67"/>
<polygon fill="#63b8ff" stroke="#63b8ff" points="876.53,-646.84 887.06,-647.95 879.52,-640.52 876.53,-646.84"/>
</a>
</g>
</g>
<!-- Node35&#45;&gt;Node34 -->
<g id="edge48_Node000035_Node000034" class="edge">
<title>Node35&#45;&gt;Node34</title>
<g id="a_edge48_Node000035_Node000034"><a xlink:title=" ">
<path fill="none" stroke="#63b8ff" d="M785.66,-503.79C805.15,-487.69 838.01,-462.51 870,-447 873.97,-445.08 878.12,-443.27 882.36,-441.59"/>
<polygon fill="#63b8ff" stroke="#63b8ff" points="883.59,-444.87 891.74,-438.09 881.15,-438.31 883.59,-444.87"/>
</a>
</g>
</g>
<!-- Node36 -->
<g id="Node000036" class="node">
<title>Node36</title>
<g id="a_Node000036"><a xlink:href="classgfs__sim_1_1BalloonPhysics.html#adb274a97919fc528f0e73dd6520fb360" target="_top" xlink:title=" ">
<polygon fill="white" stroke="#666666" points="1019,-534 885,-534 885,-504 1019,-504 1019,-534"/>
<text text-anchor="start" x="893" y="-522" font-family="Helvetica,sans-Serif" font-size="10.00">gfs_sim::BalloonPhysics</text>
<text text-anchor="middle" x="952" y="-511" font-family="Helvetica,sans-Serif" font-size="10.00">::setDirectionOfTravel</text>
</a>
</g>
</g>
<!-- Node35&#45;&gt;Node36 -->
<g id="edge47_Node000035_Node000036" class="edge">
<title>Node35&#45;&gt;Node36</title>
<g id="a_edge47_Node000035_Node000036"><a xlink:title=" ">
<path fill="none" stroke="#63b8ff" d="M834.07,-519C847.2,-519 861.1,-519 874.55,-519"/>
<polygon fill="#63b8ff" stroke="#63b8ff" points="874.72,-522.5 884.72,-519 874.72,-515.5 874.72,-522.5"/>
</a>
</g>
</g>
<!-- Node37 -->
<g id="Node000037" class="node">
<title>Node37</title>
<g id="a_Node000037"><a xlink:href="classgfs__sim_1_1BalloonPhysics.html#a84c09390b1051a5aef8c128277fcda19" target="_top" xlink:title=" ">
<polygon fill="white" stroke="#666666" points="1019,-486 885,-486 885,-456 1019,-456 1019,-486"/>
<text text-anchor="start" x="893" y="-474" font-family="Helvetica,sans-Serif" font-size="10.00">gfs_sim::BalloonPhysics</text>
<text text-anchor="middle" x="952" y="-463" font-family="Helvetica,sans-Serif" font-size="10.00">::updateCoordinates</text>
</a>
</g>
</g>
<!-- Node35&#45;&gt;Node37 -->
<g id="edge49_Node000035_Node000037" class="edge">
<title>Node35&#45;&gt;Node37</title>
<g id="a_edge49_Node000035_Node000037"><a xlink:title=" ">
<path fill="none" stroke="#63b8ff" d="M825.4,-503.94C843.97,-499.07 864.72,-493.63 883.92,-488.59"/>
<polygon fill="#63b8ff" stroke="#63b8ff" points="885.02,-491.93 893.8,-486 883.24,-485.15 885.02,-491.93"/>
</a>
</g>
</g>
</g>
</svg>
