<?xml version="1.0" encoding="UTF-8" standalone="no"?>
<!DOCTYPE svg PUBLIC "-//W3C//DTD SVG 1.1//EN"
 "http://www.w3.org/Graphics/SVG/1.1/DTD/svg11.dtd">
<!-- Generated by graphviz version 2.43.0 (0)
 -->
<!-- Title: FlightRunner::processCommand Pages: 1 -->
<svg width="736pt" height="278pt"
 viewBox="0.00 0.00 736.00 278.26" xmlns="http://www.w3.org/2000/svg" xmlns:xlink="http://www.w3.org/1999/xlink">
<g id="graph0" class="graph" transform="scale(1 1) rotate(0) translate(4 274.26)">
<title>FlightRunner::processCommand</title>
<!-- Node1 -->
<g id="node1" class="node">
<title>Node1</title>
<g id="a_node1"><a xlink:title="Process commands that are sent to the flight runner.">
<polygon fill="#bfbfbf" stroke="black" points="0,-142.5 0,-161.5 173,-161.5 173,-142.5 0,-142.5"/>
<text text-anchor="middle" x="86.5" y="-149.5" font-family="Helvetica,sans-Serif" font-size="10.00">FlightRunner::processCommand</text>
</a>
</g>
</g>
<!-- Node2 -->
<g id="node2" class="node">
<title>Node2</title>
<g id="a_node2"><a xlink:href="classdata_1_1LogStream.html#a18af3025ca8f1e60e5bd795f10b6c8b1" target="_top" xlink:title=" ">
<polygon fill="none" stroke="black" points="224.5,-221.5 224.5,-240.5 350.5,-240.5 350.5,-221.5 224.5,-221.5"/>
<text text-anchor="middle" x="287.5" y="-228.5" font-family="Helvetica,sans-Serif" font-size="10.00">data::LogStream::error</text>
</a>
</g>
</g>
<!-- Node1&#45;&gt;Node2 -->
<g id="edge1" class="edge">
<title>Node1&#45;&gt;Node2</title>
<path fill="none" stroke="midnightblue" d="M111.5,-161.53C146.84,-175.56 212.99,-201.82 253.06,-217.73"/>
<polygon fill="midnightblue" stroke="midnightblue" points="251.82,-221 262.41,-221.44 254.41,-214.49 251.82,-221"/>
</g>
<!-- Node6 -->
<g id="node6" class="node">
<title>Node6</title>
<g id="a_node6"><a xlink:href="classFlightRunner.html#a9a583807049320acfbeebaf634430f88" target="_top" xlink:title=" ">
<polygon fill="none" stroke="black" points="209,-142.5 209,-161.5 366,-161.5 366,-142.5 209,-142.5"/>
<text text-anchor="middle" x="287.5" y="-149.5" font-family="Helvetica,sans-Serif" font-size="10.00">FlightRunner::setFlightPhase</text>
</a>
</g>
</g>
<!-- Node1&#45;&gt;Node6 -->
<g id="edge7" class="edge">
<title>Node1&#45;&gt;Node6</title>
<path fill="none" stroke="midnightblue" d="M173.05,-152C181.51,-152 190.11,-152 198.6,-152"/>
<polygon fill="midnightblue" stroke="midnightblue" points="198.88,-155.5 208.88,-152 198.88,-148.5 198.88,-155.5"/>
</g>
<!-- Node10 -->
<g id="node10" class="node">
<title>Node10</title>
<g id="a_node10"><a xlink:href="classFlightRunner.html#aa479b87f758cf8bac5fa323cc282c77c" target="_top" xlink:title=" ">
<polygon fill="none" stroke="black" points="211.5,-38.5 211.5,-57.5 363.5,-57.5 363.5,-38.5 211.5,-38.5"/>
<text text-anchor="middle" x="287.5" y="-45.5" font-family="Helvetica,sans-Serif" font-size="10.00">FlightRunner::toggleModule</text>
</a>
</g>
</g>
<!-- Node1&#45;&gt;Node10 -->
<g id="edge14" class="edge">
<title>Node1&#45;&gt;Node10</title>
<path fill="none" stroke="midnightblue" d="M105.86,-142.4C141.04,-124.02 218.05,-83.77 259.24,-62.24"/>
<polygon fill="midnightblue" stroke="midnightblue" points="260.94,-65.31 268.18,-57.57 257.7,-59.1 260.94,-65.31"/>
</g>
<!-- Node3 -->
<g id="node3" class="node">
<title>Node3</title>
<g id="a_node3"><a xlink:href="classdata_1_1Stream.html#a1ff9a93190dbecdc2ffa27deaaa4266a" target="_top" xlink:title=" ">
<polygon fill="none" stroke="black" points="588,-178 588,-208 728,-208 728,-178 588,-178"/>
<text text-anchor="start" x="596" y="-196" font-family="Helvetica,sans-Serif" font-size="10.00">data::Stream&lt; LogPacket</text>
<text text-anchor="middle" x="658" y="-185" font-family="Helvetica,sans-Serif" font-size="10.00"> &gt;::addPacket</text>
</a>
</g>
</g>
<!-- Node2&#45;&gt;Node3 -->
<g id="edge2" class="edge">
<title>Node2&#45;&gt;Node3</title>
<path fill="none" stroke="midnightblue" d="M350.52,-237C404.25,-240.78 483.85,-242.95 552,-231 552.19,-230.97 579.1,-221.23 605.62,-211.62"/>
<polygon fill="midnightblue" stroke="midnightblue" points="607.11,-214.8 615.32,-208.11 604.73,-208.22 607.11,-214.8"/>
</g>
<!-- Node4 -->
<g id="node4" class="node">
<title>Node4</title>
<g id="a_node4"><a xlink:href="classdata_1_1LogStream.html#a02c18d6e5c9697b4943ba9fb630ca0c9" target="_top" xlink:title=" ">
<polygon fill="none" stroke="black" points="416,-202.5 416,-221.5 538,-221.5 538,-202.5 416,-202.5"/>
<text text-anchor="middle" x="477" y="-209.5" font-family="Helvetica,sans-Serif" font-size="10.00">data::LogStream::info</text>
</a>
</g>
</g>
<!-- Node2&#45;&gt;Node4 -->
<g id="edge3" class="edge">
<title>Node2&#45;&gt;Node4</title>
<path fill="none" stroke="midnightblue" d="M350.67,-224.7C368.31,-222.91 387.64,-220.95 405.72,-219.12"/>
<polygon fill="midnightblue" stroke="midnightblue" points="406.31,-222.58 415.9,-218.09 405.6,-215.62 406.31,-222.58"/>
</g>
<!-- Node5 -->
<g id="node5" class="node">
<title>Node5</title>
<g id="a_node5"><a xlink:href="structdata_1_1BaseStreamPacket.html#a140b2f54f93715d9229e1847bc1219b2" target="_top" xlink:title=" ">
<polygon fill="none" stroke="black" points="590.5,-227 590.5,-257 725.5,-257 725.5,-227 590.5,-227"/>
<text text-anchor="start" x="598.5" y="-245" font-family="Helvetica,sans-Serif" font-size="10.00">data::BaseStreamPacket</text>
<text text-anchor="middle" x="658" y="-234" font-family="Helvetica,sans-Serif" font-size="10.00">::resetTime</text>
</a>
</g>
</g>
<!-- Node2&#45;&gt;Node5 -->
<g id="edge6" class="edge">
<title>Node2&#45;&gt;Node5</title>
<path fill="none" stroke="midnightblue" d="M313.74,-240.58C336.45,-248.65 370.92,-259.57 402,-264 468,-273.4 485.69,-270.87 552,-264 563.1,-262.85 574.77,-261.03 586.11,-258.92"/>
<polygon fill="midnightblue" stroke="midnightblue" points="586.84,-262.35 595.98,-257 585.5,-255.48 586.84,-262.35"/>
</g>
<!-- Node4&#45;&gt;Node3 -->
<g id="edge4" class="edge">
<title>Node4&#45;&gt;Node3</title>
<path fill="none" stroke="midnightblue" d="M538.1,-205.62C550.81,-204.27 564.41,-202.83 577.7,-201.42"/>
<polygon fill="midnightblue" stroke="midnightblue" points="578.21,-204.88 587.78,-200.35 577.47,-197.92 578.21,-204.88"/>
</g>
<!-- Node4&#45;&gt;Node5 -->
<g id="edge5" class="edge">
<title>Node4&#45;&gt;Node5</title>
<path fill="none" stroke="midnightblue" d="M535.13,-221.57C549.56,-223.99 565.3,-226.63 580.52,-229.18"/>
<polygon fill="midnightblue" stroke="midnightblue" points="579.99,-232.64 590.43,-230.84 581.15,-225.74 579.99,-232.64"/>
</g>
<!-- Node6&#45;&gt;Node4 -->
<g id="edge11" class="edge">
<title>Node6&#45;&gt;Node4</title>
<path fill="none" stroke="midnightblue" d="M313.07,-161.64C335.9,-170.42 370.97,-183.43 402,-193 409.75,-195.39 418.02,-197.72 426.12,-199.89"/>
<polygon fill="midnightblue" stroke="midnightblue" points="425.3,-203.29 435.86,-202.44 427.08,-196.52 425.3,-203.29"/>
</g>
<!-- Node7 -->
<g id="node7" class="node">
<title>Node7</title>
<g id="a_node7"><a xlink:href="classdata_1_1DataStream.html#a0eef16fa96084fe72dcc3f3ef8cf0bac" target="_top" xlink:title=" ">
<polygon fill="none" stroke="black" points="402,-164.5 402,-183.5 552,-183.5 552,-164.5 402,-164.5"/>
<text text-anchor="middle" x="477" y="-171.5" font-family="Helvetica,sans-Serif" font-size="10.00">data::DataStream::addData</text>
</a>
</g>
</g>
<!-- Node6&#45;&gt;Node7 -->
<g id="edge8" class="edge">
<title>Node6&#45;&gt;Node7</title>
<path fill="none" stroke="midnightblue" d="M366.12,-161.11C374.59,-162.1 383.24,-163.12 391.79,-164.12"/>
<polygon fill="midnightblue" stroke="midnightblue" points="391.42,-167.6 401.76,-165.29 392.23,-160.65 391.42,-167.6"/>
</g>
<!-- Node8 -->
<g id="node8" class="node">
<title>Node8</title>
<g id="a_node8"><a xlink:href="classgiraffe_1_1FlightRunnerData.html#ac2b08f44adf4ed3ab384cd8e5c947578" target="_top" xlink:title=" ">
<polygon fill="none" stroke="black" points="407,-115 407,-145 547,-145 547,-115 407,-115"/>
<text text-anchor="start" x="415" y="-133" font-family="Helvetica,sans-Serif" font-size="10.00">giraffe::FlightRunnerData</text>
<text text-anchor="middle" x="477" y="-122" font-family="Helvetica,sans-Serif" font-size="10.00">::setFlightPhase</text>
</a>
</g>
</g>
<!-- Node6&#45;&gt;Node8 -->
<g id="edge12" class="edge">
<title>Node6&#45;&gt;Node8</title>
<path fill="none" stroke="midnightblue" d="M366.12,-142.89C376.24,-141.7 386.63,-140.49 396.78,-139.3"/>
<polygon fill="midnightblue" stroke="midnightblue" points="397.31,-142.76 406.83,-138.12 396.49,-135.8 397.31,-142.76"/>
</g>
<!-- Node9 -->
<g id="node9" class="node">
<title>Node9</title>
<g id="a_node9"><a xlink:href="namespaceutil.html#a8e9635f6a41c035d331ddaeb62259ba6" target="_top" xlink:title="Converts a flight phase to a string.">
<polygon fill="none" stroke="black" points="436.5,-76.5 436.5,-95.5 517.5,-95.5 517.5,-76.5 436.5,-76.5"/>
<text text-anchor="middle" x="477" y="-83.5" font-family="Helvetica,sans-Serif" font-size="10.00">util::to_string</text>
</a>
</g>
</g>
<!-- Node6&#45;&gt;Node9 -->
<g id="edge13" class="edge">
<title>Node6&#45;&gt;Node9</title>
<path fill="none" stroke="midnightblue" d="M309.97,-142.39C332.57,-132.49 369.35,-116.98 402,-106 410.16,-103.26 418.92,-100.62 427.46,-98.22"/>
<polygon fill="midnightblue" stroke="midnightblue" points="428.61,-101.53 437.33,-95.51 426.76,-94.78 428.61,-101.53"/>
</g>
<!-- Node7&#45;&gt;Node3 -->
<g id="edge9" class="edge">
<title>Node7&#45;&gt;Node3</title>
<path fill="none" stroke="midnightblue" d="M552.1,-181.87C560.6,-182.77 569.3,-183.69 577.86,-184.6"/>
<polygon fill="midnightblue" stroke="midnightblue" points="577.52,-188.08 587.84,-185.66 578.26,-181.12 577.52,-188.08"/>
</g>
<!-- Node7&#45;&gt;Node5 -->
<g id="edge10" class="edge">
<title>Node7&#45;&gt;Node5</title>
<path fill="none" stroke="midnightblue" d="M525.45,-183.51C534.47,-186.06 543.68,-189.19 552,-193 569.71,-201.11 570.64,-209.16 588,-218 591.52,-219.79 595.21,-221.51 598.97,-223.13"/>
<polygon fill="midnightblue" stroke="midnightblue" points="597.84,-226.45 608.42,-226.98 600.48,-219.97 597.84,-226.45"/>
</g>
<!-- Node11 -->
<g id="node11" class="node">
<title>Node11</title>
<g id="a_node11"><a xlink:href="classmodules_1_1Module.html#afa712a59eff6e99405e70ae61f7510cd" target="_top" xlink:title="Starts a thread to run the module.">
<polygon fill="none" stroke="black" points="412.5,-38.5 412.5,-57.5 541.5,-57.5 541.5,-38.5 412.5,-38.5"/>
<text text-anchor="middle" x="477" y="-45.5" font-family="Helvetica,sans-Serif" font-size="10.00">modules::Module::start</text>
</a>
</g>
</g>
<!-- Node10&#45;&gt;Node11 -->
<g id="edge15" class="edge">
<title>Node10&#45;&gt;Node11</title>
<path fill="none" stroke="midnightblue" d="M363.68,-48C376.38,-48 389.56,-48 402.23,-48"/>
<polygon fill="midnightblue" stroke="midnightblue" points="402.26,-51.5 412.26,-48 402.26,-44.5 402.26,-51.5"/>
</g>
<!-- Node13 -->
<g id="node13" class="node">
<title>Node13</title>
<g id="a_node13"><a xlink:href="classmodules_1_1Module.html#aefe65d4f674e804a1891b250ed2887a4" target="_top" xlink:title="Stops the module by setting the stop flag to true and joining the runner thread.">
<polygon fill="none" stroke="black" points="413,-0.5 413,-19.5 541,-19.5 541,-0.5 413,-0.5"/>
<text text-anchor="middle" x="477" y="-7.5" font-family="Helvetica,sans-Serif" font-size="10.00">modules::Module::stop</text>
</a>
</g>
</g>
<!-- Node10&#45;&gt;Node13 -->
<g id="edge17" class="edge">
<title>Node10&#45;&gt;Node13</title>
<path fill="none" stroke="midnightblue" d="M335.81,-38.41C361.11,-33.28 392.45,-26.93 419.07,-21.54"/>
<polygon fill="midnightblue" stroke="midnightblue" points="419.92,-24.94 429.03,-19.52 418.53,-18.08 419.92,-24.94"/>
</g>
<!-- Node12 -->
<g id="node12" class="node">
<title>Node12</title>
<g id="a_node12"><a xlink:href="classmodules_1_1Module.html#a3d879001e471093d48fcbd2f8c406f51" target="_top" xlink:title="This is the main function for each module.">
<polygon fill="none" stroke="black" points="589,-38.5 589,-57.5 727,-57.5 727,-38.5 589,-38.5"/>
<text text-anchor="middle" x="658" y="-45.5" font-family="Helvetica,sans-Serif" font-size="10.00">modules::Module::runner</text>
</a>
</g>
</g>
<!-- Node11&#45;&gt;Node12 -->
<g id="edge16" class="edge">
<title>Node11&#45;&gt;Node12</title>
<path fill="none" stroke="midnightblue" d="M541.61,-48C553.55,-48 566.15,-48 578.47,-48"/>
<polygon fill="midnightblue" stroke="midnightblue" points="578.74,-51.5 588.74,-48 578.74,-44.5 578.74,-51.5"/>
</g>
</g>
</svg>
