<?xml version="1.0" encoding="UTF-8" standalone="no"?>
<!DOCTYPE svg PUBLIC "-//W3C//DTD SVG 1.1//EN"
 "http://www.w3.org/Graphics/SVG/1.1/DTD/svg11.dtd">
<!-- Generated by graphviz version 2.43.0 (0)
 -->
<!-- Title: gfs_sim::BalloonPhysics::setHorizontalSpeed Pages: 1 -->
<svg width="1072pt" height="88pt"
 viewBox="0.00 0.00 1072.00 88.00" xmlns="http://www.w3.org/2000/svg" xmlns:xlink="http://www.w3.org/1999/xlink">
<g id="graph0" class="graph" transform="scale(1 1) rotate(0) translate(4 84)">
<title>gfs_sim::BalloonPhysics::setHorizontalSpeed</title>
<!-- Node1 -->
<g id="node1" class="node">
<title>Node1</title>
<g id="a_node1"><a xlink:title=" ">
<polygon fill="#bfbfbf" stroke="black" points="930,-24.5 930,-54.5 1064,-54.5 1064,-24.5 930,-24.5"/>
<text text-anchor="start" x="938" y="-42.5" font-family="Helvetica,sans-Serif" font-size="10.00">gfs_sim::BalloonPhysics</text>
<text text-anchor="middle" x="997" y="-31.5" font-family="Helvetica,sans-Serif" font-size="10.00">::setHorizontalSpeed</text>
</a>
</g>
</g>
<!-- Node2 -->
<g id="node2" class="node">
<title>Node2</title>
<g id="a_node2"><a xlink:href="classgfs__sim_1_1BalloonPhysics.html#a318667569547ad8d1668bc0bf8e49faa" target="_top" xlink:title=" ">
<polygon fill="none" stroke="black" points="760,-47.5 760,-77.5 894,-77.5 894,-47.5 760,-47.5"/>
<text text-anchor="start" x="768" y="-65.5" font-family="Helvetica,sans-Serif" font-size="10.00">gfs_sim::BalloonPhysics</text>
<text text-anchor="middle" x="827" y="-54.5" font-family="Helvetica,sans-Serif" font-size="10.00">::statePreLaunch</text>
</a>
</g>
</g>
<!-- Node1&#45;&gt;Node2 -->
<g id="edge1" class="edge">
<title>Node1&#45;&gt;Node2</title>
<path fill="none" stroke="midnightblue" d="M919.68,-49.95C911.17,-51.11 902.56,-52.29 894.19,-53.44"/>
<polygon fill="midnightblue" stroke="midnightblue" points="920.17,-53.41 929.6,-48.59 919.22,-46.48 920.17,-53.41"/>
</g>
<!-- Node8 -->
<g id="node8" class="node">
<title>Node8</title>
<g id="a_node8"><a xlink:href="classgfs__sim_1_1BalloonPhysics.html#a7a8a298ba5dad0d454a165bce45dd889" target="_top" xlink:title=" ">
<polygon fill="none" stroke="black" points="590,-0.5 590,-30.5 724,-30.5 724,-0.5 590,-0.5"/>
<text text-anchor="start" x="598" y="-18.5" font-family="Helvetica,sans-Serif" font-size="10.00">gfs_sim::BalloonPhysics</text>
<text text-anchor="middle" x="657" y="-7.5" font-family="Helvetica,sans-Serif" font-size="10.00">::updateHorizontal</text>
</a>
</g>
</g>
<!-- Node1&#45;&gt;Node8 -->
<g id="edge7" class="edge">
<title>Node1&#45;&gt;Node8</title>
<path fill="none" stroke="midnightblue" d="M919.64,-34.08C860.82,-29.9 780.34,-24.19 724.22,-20.2"/>
<polygon fill="midnightblue" stroke="midnightblue" points="919.4,-37.57 929.63,-34.79 919.9,-30.59 919.4,-37.57"/>
</g>
<!-- Node3 -->
<g id="node3" class="node">
<title>Node3</title>
<g id="a_node3"><a xlink:href="classgfs__sim_1_1BalloonPhysics.html#a242364cba2c68659179bf3c27993e8d8" target="_top" xlink:title=" ">
<polygon fill="none" stroke="black" points="590,-49.5 590,-79.5 724,-79.5 724,-49.5 590,-49.5"/>
<text text-anchor="start" x="598" y="-67.5" font-family="Helvetica,sans-Serif" font-size="10.00">gfs_sim::BalloonPhysics</text>
<text text-anchor="middle" x="657" y="-56.5" font-family="Helvetica,sans-Serif" font-size="10.00">::stateMachine</text>
</a>
</g>
</g>
<!-- Node2&#45;&gt;Node3 -->
<g id="edge2" class="edge">
<title>Node2&#45;&gt;Node3</title>
<path fill="none" stroke="midnightblue" d="M749.41,-63.41C740.99,-63.51 732.47,-63.61 724.19,-63.71"/>
<polygon fill="midnightblue" stroke="midnightblue" points="749.64,-66.91 759.6,-63.29 749.56,-59.91 749.64,-66.91"/>
</g>
<!-- Node4 -->
<g id="node4" class="node">
<title>Node4</title>
<g id="a_node4"><a xlink:href="classgfs__sim_1_1BalloonPhysics.html#a2311e27b7bd0683ae15f8b524b3e5948" target="_top" xlink:title=" ">
<polygon fill="none" stroke="black" points="420,-24.5 420,-54.5 554,-54.5 554,-24.5 420,-24.5"/>
<text text-anchor="start" x="428" y="-42.5" font-family="Helvetica,sans-Serif" font-size="10.00">gfs_sim::BalloonPhysics</text>
<text text-anchor="middle" x="487" y="-31.5" font-family="Helvetica,sans-Serif" font-size="10.00">::update</text>
</a>
</g>
</g>
<!-- Node3&#45;&gt;Node4 -->
<g id="edge3" class="edge">
<title>Node3&#45;&gt;Node4</title>
<path fill="none" stroke="midnightblue" d="M579.68,-53.14C571.17,-51.88 562.56,-50.6 554.19,-49.35"/>
<polygon fill="midnightblue" stroke="midnightblue" points="579.2,-56.61 589.6,-54.62 580.23,-49.69 579.2,-56.61"/>
</g>
<!-- Node5 -->
<g id="node5" class="node">
<title>Node5</title>
<g id="a_node5"><a xlink:href="classgfs__sim_1_1GfsSimulator.html#ada138779165690488655ea0856e38d40" target="_top" xlink:title=" ">
<polygon fill="none" stroke="black" points="238,-30 238,-49 384,-49 384,-30 238,-30"/>
<text text-anchor="middle" x="311" y="-37" font-family="Helvetica,sans-Serif" font-size="10.00">gfs_sim::GfsSimulator::run</text>
</a>
</g>
</g>
<!-- Node4&#45;&gt;Node5 -->
<g id="edge4" class="edge">
<title>Node4&#45;&gt;Node5</title>
<path fill="none" stroke="midnightblue" d="M409.53,-39.5C401.11,-39.5 392.55,-39.5 384.18,-39.5"/>
<polygon fill="midnightblue" stroke="midnightblue" points="409.72,-43 419.72,-39.5 409.72,-36 409.72,-43"/>
</g>
<!-- Node6 -->
<g id="node6" class="node">
<title>Node6</title>
<g id="a_node6"><a xlink:href="classgfs__sim_1_1GfsSimulator.html#ad1380276142d2172f5516d481b2a365a" target="_top" xlink:title=" ">
<polygon fill="none" stroke="black" points="77,-24.5 77,-54.5 202,-54.5 202,-24.5 77,-24.5"/>
<text text-anchor="start" x="85" y="-42.5" font-family="Helvetica,sans-Serif" font-size="10.00">gfs_sim::GfsSimulator</text>
<text text-anchor="middle" x="139.5" y="-31.5" font-family="Helvetica,sans-Serif" font-size="10.00">::start</text>
</a>
</g>
</g>
<!-- Node5&#45;&gt;Node6 -->
<g id="edge5" class="edge">
<title>Node5&#45;&gt;Node6</title>
<path fill="none" stroke="midnightblue" d="M227.62,-39.5C219.07,-39.5 210.49,-39.5 202.22,-39.5"/>
<polygon fill="midnightblue" stroke="midnightblue" points="227.63,-43 237.63,-39.5 227.63,-36 227.63,-43"/>
</g>
<!-- Node7 -->
<g id="node7" class="node">
<title>Node7</title>
<g id="a_node7"><a xlink:href="tests_2simulator_2main_8cpp.html#ae66f6b31b5ad750f1fe042a706a4e3d4" target="_top" xlink:title=" ">
<polygon fill="none" stroke="black" points="0,-30 0,-49 41,-49 41,-30 0,-30"/>
<text text-anchor="middle" x="20.5" y="-37" font-family="Helvetica,sans-Serif" font-size="10.00">main</text>
</a>
</g>
</g>
<!-- Node6&#45;&gt;Node7 -->
<g id="edge6" class="edge">
<title>Node6&#45;&gt;Node7</title>
<path fill="none" stroke="midnightblue" d="M66.65,-39.5C57.33,-39.5 48.48,-39.5 41.12,-39.5"/>
<polygon fill="midnightblue" stroke="midnightblue" points="66.92,-43 76.92,-39.5 66.92,-36 66.92,-43"/>
</g>
<!-- Node8&#45;&gt;Node4 -->
<g id="edge8" class="edge">
<title>Node8&#45;&gt;Node4</title>
<path fill="none" stroke="midnightblue" d="M579.68,-26.4C571.17,-27.62 562.56,-28.85 554.19,-30.04"/>
<polygon fill="midnightblue" stroke="midnightblue" points="580.2,-29.86 589.6,-24.99 579.21,-22.93 580.2,-29.86"/>
</g>
</g>
</svg>
