<?xml version="1.0" encoding="UTF-8" standalone="no"?>
<!DOCTYPE svg PUBLIC "-//W3C//DTD SVG 1.1//EN"
 "http://www.w3.org/Graphics/SVG/1.1/DTD/svg11.dtd">
<!-- Generated by graphviz version 2.43.0 (0)
 -->
<!-- Title: bit::BuiltInTest::stop Pages: 1 -->
<svg width="769pt" height="97pt"
 viewBox="0.00 0.00 769.00 96.50" xmlns="http://www.w3.org/2000/svg" xmlns:xlink="http://www.w3.org/1999/xlink">
<g id="graph0" class="graph" transform="scale(1 1) rotate(0) translate(4 92.5)">
<title>bit::BuiltInTest::stop</title>
<!-- Node1 -->
<g id="node1" class="node">
<title>Node1</title>
<g id="a_node1"><a xlink:title=" ">
<polygon fill="#bfbfbf" stroke="black" points="0,-50 0,-69 113,-69 113,-50 0,-50"/>
<text text-anchor="middle" x="56.5" y="-57" font-family="Helvetica,sans-Serif" font-size="10.00">bit::BuiltInTest::stop</text>
</a>
</g>
</g>
<!-- Node2 -->
<g id="node2" class="node">
<title>Node2</title>
<g id="a_node2"><a xlink:href="classgiraffe_1_1Logger.html#a2947dae610f76345978c81132ea84edc" target="_top" xlink:title=" ">
<polygon fill="none" stroke="black" points="149,-50 149,-69 265,-69 265,-50 149,-50"/>
<text text-anchor="middle" x="207" y="-57" font-family="Helvetica,sans-Serif" font-size="10.00">giraffe::Logger::error</text>
</a>
</g>
</g>
<!-- Node1&#45;&gt;Node2 -->
<g id="edge1" class="edge">
<title>Node1&#45;&gt;Node2</title>
<path fill="none" stroke="midnightblue" d="M113.22,-59.5C121.62,-59.5 130.36,-59.5 138.96,-59.5"/>
<polygon fill="midnightblue" stroke="midnightblue" points="138.98,-63 148.98,-59.5 138.98,-56 138.98,-63"/>
</g>
<!-- Node3 -->
<g id="node3" class="node">
<title>Node3</title>
<g id="a_node3"><a xlink:href="classdata_1_1LogStream.html#a18af3025ca8f1e60e5bd795f10b6c8b1" target="_top" xlink:title=" ">
<polygon fill="none" stroke="black" points="301,-31 301,-50 427,-50 427,-31 301,-31"/>
<text text-anchor="middle" x="364" y="-38" font-family="Helvetica,sans-Serif" font-size="10.00">data::LogStream::error</text>
</a>
</g>
</g>
<!-- Node2&#45;&gt;Node3 -->
<g id="edge2" class="edge">
<title>Node2&#45;&gt;Node3</title>
<path fill="none" stroke="midnightblue" d="M265.28,-52.48C273.58,-51.46 282.22,-50.4 290.77,-49.35"/>
<polygon fill="midnightblue" stroke="midnightblue" points="291.25,-52.82 300.75,-48.13 290.4,-45.87 291.25,-52.82"/>
</g>
<!-- Node7 -->
<g id="node7" class="node">
<title>Node7</title>
<g id="a_node7"><a xlink:href="classgiraffe_1_1Logger.html#af8465c2895fd50680183e36e093e66e3" target="_top" xlink:title=" ">
<polygon fill="none" stroke="black" points="308,-69 308,-88 420,-88 420,-69 308,-69"/>
<text text-anchor="middle" x="364" y="-76" font-family="Helvetica,sans-Serif" font-size="10.00">giraffe::Logger::info</text>
</a>
</g>
</g>
<!-- Node2&#45;&gt;Node7 -->
<g id="edge8" class="edge">
<title>Node2&#45;&gt;Node7</title>
<path fill="none" stroke="midnightblue" d="M265.28,-66.52C275.8,-67.81 286.85,-69.17 297.59,-70.48"/>
<polygon fill="midnightblue" stroke="midnightblue" points="297.41,-73.99 307.76,-71.73 298.26,-67.04 297.41,-73.99"/>
</g>
<!-- Node4 -->
<g id="node4" class="node">
<title>Node4</title>
<g id="a_node4"><a xlink:href="classdata_1_1Stream.html#a1ff9a93190dbecdc2ffa27deaaa4266a" target="_top" xlink:title=" ">
<polygon fill="none" stroke="black" points="621,-0.5 621,-30.5 761,-30.5 761,-0.5 621,-0.5"/>
<text text-anchor="start" x="629" y="-18.5" font-family="Helvetica,sans-Serif" font-size="10.00">data::Stream&lt; LogPacket</text>
<text text-anchor="middle" x="691" y="-7.5" font-family="Helvetica,sans-Serif" font-size="10.00"> &gt;::addPacket</text>
</a>
</g>
</g>
<!-- Node3&#45;&gt;Node4 -->
<g id="edge3" class="edge">
<title>Node3&#45;&gt;Node4</title>
<path fill="none" stroke="midnightblue" d="M425.27,-30.99C437.72,-29.28 450.77,-27.67 463,-26.5 511.91,-21.83 566.94,-19.1 610.57,-17.53"/>
<polygon fill="midnightblue" stroke="midnightblue" points="610.96,-21.02 620.84,-17.17 610.72,-14.02 610.96,-21.02"/>
</g>
<!-- Node5 -->
<g id="node5" class="node">
<title>Node5</title>
<g id="a_node5"><a xlink:href="classdata_1_1LogStream.html#a02c18d6e5c9697b4943ba9fb630ca0c9" target="_top" xlink:title=" ">
<polygon fill="none" stroke="black" points="463,-69 463,-88 585,-88 585,-69 463,-69"/>
<text text-anchor="middle" x="524" y="-76" font-family="Helvetica,sans-Serif" font-size="10.00">data::LogStream::info</text>
</a>
</g>
</g>
<!-- Node3&#45;&gt;Node5 -->
<g id="edge4" class="edge">
<title>Node3&#45;&gt;Node5</title>
<path fill="none" stroke="midnightblue" d="M404.87,-50.09C425.72,-55.1 451.43,-61.29 473.54,-66.61"/>
<polygon fill="midnightblue" stroke="midnightblue" points="472.88,-70.04 483.42,-68.98 474.51,-63.24 472.88,-70.04"/>
</g>
<!-- Node6 -->
<g id="node6" class="node">
<title>Node6</title>
<g id="a_node6"><a xlink:href="structdata_1_1BaseStreamPacket.html#a140b2f54f93715d9229e1847bc1219b2" target="_top" xlink:title=" ">
<polygon fill="none" stroke="black" points="623.5,-56.5 623.5,-86.5 758.5,-86.5 758.5,-56.5 623.5,-56.5"/>
<text text-anchor="start" x="631.5" y="-74.5" font-family="Helvetica,sans-Serif" font-size="10.00">data::BaseStreamPacket</text>
<text text-anchor="middle" x="691" y="-63.5" font-family="Helvetica,sans-Serif" font-size="10.00">::resetTime</text>
</a>
</g>
</g>
<!-- Node3&#45;&gt;Node6 -->
<g id="edge7" class="edge">
<title>Node3&#45;&gt;Node6</title>
<path fill="none" stroke="midnightblue" d="M427.16,-45.41C471.24,-49 531.79,-54.16 585,-59.5 594.12,-60.41 603.67,-61.43 613.15,-62.47"/>
<polygon fill="midnightblue" stroke="midnightblue" points="613.05,-65.98 623.37,-63.6 613.82,-59.02 613.05,-65.98"/>
</g>
<!-- Node5&#45;&gt;Node4 -->
<g id="edge5" class="edge">
<title>Node5&#45;&gt;Node4</title>
<path fill="none" stroke="midnightblue" d="M550.06,-68.93C574.14,-59.74 611.18,-45.6 641.1,-34.17"/>
<polygon fill="midnightblue" stroke="midnightblue" points="642.45,-37.4 650.54,-30.57 639.95,-30.86 642.45,-37.4"/>
</g>
<!-- Node5&#45;&gt;Node6 -->
<g id="edge6" class="edge">
<title>Node5&#45;&gt;Node6</title>
<path fill="none" stroke="midnightblue" d="M585.04,-75.95C594.17,-75.57 603.7,-75.16 613.14,-74.76"/>
<polygon fill="midnightblue" stroke="midnightblue" points="613.47,-78.25 623.31,-74.33 613.17,-71.26 613.47,-78.25"/>
</g>
<!-- Node7&#45;&gt;Node5 -->
<g id="edge9" class="edge">
<title>Node7&#45;&gt;Node5</title>
<path fill="none" stroke="midnightblue" d="M420.26,-78.5C430.71,-78.5 441.78,-78.5 452.62,-78.5"/>
<polygon fill="midnightblue" stroke="midnightblue" points="452.93,-82 462.93,-78.5 452.93,-75 452.93,-82"/>
</g>
</g>
</svg>
