<?xml version="1.0" encoding="UTF-8" standalone="no"?>
<!DOCTYPE svg PUBLIC "-//W3C//DTD SVG 1.1//EN"
 "http://www.w3.org/Graphics/SVG/1.1/DTD/svg11.dtd">
<!-- Generated by graphviz version 2.43.0 (0)
 -->
<!-- Title: gfs_sim::GfsSimulator::printData Pages: 1 -->
<svg width="330pt" height="480pt"
 viewBox="0.00 0.00 330.00 480.00" xmlns="http://www.w3.org/2000/svg" xmlns:xlink="http://www.w3.org/1999/xlink">
<g id="graph0" class="graph" transform="scale(1 1) rotate(0) translate(4 476)">
<title>gfs_sim::GfsSimulator::printData</title>
<!-- Node1 -->
<g id="node1" class="node">
<title>Node1</title>
<g id="a_node1"><a xlink:title=" ">
<polygon fill="#bfbfbf" stroke="black" points="0,-220.5 0,-250.5 125,-250.5 125,-220.5 0,-220.5"/>
<text text-anchor="start" x="8" y="-238.5" font-family="Helvetica,sans-Serif" font-size="10.00">gfs_sim::GfsSimulator</text>
<text text-anchor="middle" x="62.5" y="-227.5" font-family="Helvetica,sans-Serif" font-size="10.00">::printData</text>
</a>
</g>
</g>
<!-- Node2 -->
<g id="node2" class="node">
<title>Node2</title>
<g id="a_node2"><a xlink:href="classgfs__sim_1_1BalloonPhysics.html#aabdd9d725af901bdcb61a302330e6ced" target="_top" xlink:title=" ">
<polygon fill="none" stroke="black" points="174.5,-441.5 174.5,-471.5 308.5,-471.5 308.5,-441.5 174.5,-441.5"/>
<text text-anchor="start" x="182.5" y="-459.5" font-family="Helvetica,sans-Serif" font-size="10.00">gfs_sim::BalloonPhysics</text>
<text text-anchor="middle" x="241.5" y="-448.5" font-family="Helvetica,sans-Serif" font-size="10.00">::getAltitude</text>
</a>
</g>
</g>
<!-- Node1&#45;&gt;Node2 -->
<g id="edge1" class="edge">
<title>Node1&#45;&gt;Node2</title>
<path fill="none" stroke="midnightblue" d="M66.64,-250.63C75.07,-287.44 101.71,-382.34 161,-432.5 162.53,-433.79 164.12,-435.01 165.77,-436.17"/>
<polygon fill="midnightblue" stroke="midnightblue" points="164.08,-439.24 174.44,-441.42 167.7,-433.25 164.08,-439.24"/>
</g>
<!-- Node3 -->
<g id="node3" class="node">
<title>Node3</title>
<g id="a_node3"><a xlink:href="classgfs__sim_1_1BalloonPhysics.html#a1e22851cff5a1fa38bfe4233ef9b8846" target="_top" xlink:title=" ">
<polygon fill="none" stroke="black" points="174.5,-392.5 174.5,-422.5 308.5,-422.5 308.5,-392.5 174.5,-392.5"/>
<text text-anchor="start" x="182.5" y="-410.5" font-family="Helvetica,sans-Serif" font-size="10.00">gfs_sim::BalloonPhysics</text>
<text text-anchor="middle" x="241.5" y="-399.5" font-family="Helvetica,sans-Serif" font-size="10.00">::getDirectionOfTravel</text>
</a>
</g>
</g>
<!-- Node1&#45;&gt;Node3 -->
<g id="edge2" class="edge">
<title>Node1&#45;&gt;Node3</title>
<path fill="none" stroke="midnightblue" d="M69.28,-250.6C81.51,-280.54 112.9,-347.63 161,-383.5 162.88,-384.9 164.84,-386.22 166.86,-387.46"/>
<polygon fill="midnightblue" stroke="midnightblue" points="165.63,-390.77 176.09,-392.44 168.95,-384.61 165.63,-390.77"/>
</g>
<!-- Node4 -->
<g id="node4" class="node">
<title>Node4</title>
<g id="a_node4"><a xlink:href="classgfs__sim_1_1BalloonPhysics.html#a2702d7d83f4580c3822df584d7dc917a" target="_top" xlink:title=" ">
<polygon fill="none" stroke="black" points="174.5,-343.5 174.5,-373.5 308.5,-373.5 308.5,-343.5 174.5,-343.5"/>
<text text-anchor="start" x="182.5" y="-361.5" font-family="Helvetica,sans-Serif" font-size="10.00">gfs_sim::BalloonPhysics</text>
<text text-anchor="middle" x="241.5" y="-350.5" font-family="Helvetica,sans-Serif" font-size="10.00">::getHorizontalSpeed</text>
</a>
</g>
</g>
<!-- Node1&#45;&gt;Node4 -->
<g id="edge3" class="edge">
<title>Node1&#45;&gt;Node4</title>
<path fill="none" stroke="midnightblue" d="M74.35,-250.56C90.73,-272.23 123.83,-312.06 161,-334.5 163.84,-336.21 166.81,-337.81 169.86,-339.31"/>
<polygon fill="midnightblue" stroke="midnightblue" points="168.68,-342.61 179.24,-343.47 171.52,-336.21 168.68,-342.61"/>
</g>
<!-- Node5 -->
<g id="node5" class="node">
<title>Node5</title>
<g id="a_node5"><a xlink:href="classgfs__sim_1_1SimEnvironmental.html#a24c00e7745858312a0f1a8c8a2c09ee9" target="_top" xlink:title=" ">
<polygon fill="none" stroke="black" points="166,-294.5 166,-324.5 317,-324.5 317,-294.5 166,-294.5"/>
<text text-anchor="start" x="174" y="-312.5" font-family="Helvetica,sans-Serif" font-size="10.00">gfs_sim::SimEnvironmental</text>
<text text-anchor="middle" x="241.5" y="-301.5" font-family="Helvetica,sans-Serif" font-size="10.00">::getPressureMillibars</text>
</a>
</g>
</g>
<!-- Node1&#45;&gt;Node5 -->
<g id="edge4" class="edge">
<title>Node1&#45;&gt;Node5</title>
<path fill="none" stroke="midnightblue" d="M89.79,-250.63C109.07,-261.31 136.13,-275.46 161,-285.5 165.81,-287.44 170.83,-289.31 175.92,-291.09"/>
<polygon fill="midnightblue" stroke="midnightblue" points="175.14,-294.52 185.74,-294.39 177.37,-287.88 175.14,-294.52"/>
</g>
<!-- Node6 -->
<g id="node6" class="node">
<title>Node6</title>
<g id="a_node6"><a xlink:href="classgfs__sim_1_1SimEnvironmental.html#a9b9207d81e7270fbb059a921bcbda57a" target="_top" xlink:title=" ">
<polygon fill="none" stroke="black" points="161,-245.5 161,-275.5 322,-275.5 322,-245.5 161,-245.5"/>
<text text-anchor="start" x="169" y="-263.5" font-family="Helvetica,sans-Serif" font-size="10.00">gfs_sim::SimEnvironmental</text>
<text text-anchor="middle" x="241.5" y="-252.5" font-family="Helvetica,sans-Serif" font-size="10.00">::getRelativeHumidityPercent</text>
</a>
</g>
</g>
<!-- Node1&#45;&gt;Node6 -->
<g id="edge5" class="edge">
<title>Node1&#45;&gt;Node6</title>
<path fill="none" stroke="midnightblue" d="M125.41,-244.24C133.65,-245.41 142.23,-246.62 150.82,-247.83"/>
<polygon fill="midnightblue" stroke="midnightblue" points="150.5,-251.32 160.9,-249.26 151.48,-244.39 150.5,-251.32"/>
</g>
<!-- Node7 -->
<g id="node7" class="node">
<title>Node7</title>
<g id="a_node7"><a xlink:href="classgfs__sim_1_1SimEnvironmental.html#a23a9b78b67fa0f2c6397209ec57aaa7e" target="_top" xlink:title=" ">
<polygon fill="none" stroke="black" points="166,-196.5 166,-226.5 317,-226.5 317,-196.5 166,-196.5"/>
<text text-anchor="start" x="174" y="-214.5" font-family="Helvetica,sans-Serif" font-size="10.00">gfs_sim::SimEnvironmental</text>
<text text-anchor="middle" x="241.5" y="-203.5" font-family="Helvetica,sans-Serif" font-size="10.00">::getTemperatureCelsius</text>
</a>
</g>
</g>
<!-- Node1&#45;&gt;Node7 -->
<g id="edge6" class="edge">
<title>Node1&#45;&gt;Node7</title>
<path fill="none" stroke="midnightblue" d="M125.41,-227.11C135.2,-225.78 145.47,-224.38 155.68,-223"/>
<polygon fill="midnightblue" stroke="midnightblue" points="156.41,-226.43 165.85,-221.62 155.47,-219.5 156.41,-226.43"/>
</g>
<!-- Node8 -->
<g id="node8" class="node">
<title>Node8</title>
<g id="a_node8"><a xlink:href="classgfs__sim_1_1BalloonPhysics.html#a513c05c3d4636406b00788a0a630895f" target="_top" xlink:title=" ">
<polygon fill="none" stroke="black" points="174.5,-147.5 174.5,-177.5 308.5,-177.5 308.5,-147.5 174.5,-147.5"/>
<text text-anchor="start" x="182.5" y="-165.5" font-family="Helvetica,sans-Serif" font-size="10.00">gfs_sim::BalloonPhysics</text>
<text text-anchor="middle" x="241.5" y="-154.5" font-family="Helvetica,sans-Serif" font-size="10.00">::getTotalDistance</text>
</a>
</g>
</g>
<!-- Node1&#45;&gt;Node8 -->
<g id="edge7" class="edge">
<title>Node1&#45;&gt;Node8</title>
<path fill="none" stroke="midnightblue" d="M91.14,-220.48C110.39,-210.38 136.83,-197.18 161,-187.5 166.82,-185.17 172.94,-182.91 179.1,-180.77"/>
<polygon fill="midnightblue" stroke="midnightblue" points="180.42,-184.02 188.78,-177.5 178.18,-177.39 180.42,-184.02"/>
</g>
<!-- Node9 -->
<g id="node9" class="node">
<title>Node9</title>
<g id="a_node9"><a xlink:href="classgfs__sim_1_1BalloonPhysics.html#a6b793714900239ce5f4f89295c771671" target="_top" xlink:title=" ">
<polygon fill="none" stroke="black" points="174.5,-98.5 174.5,-128.5 308.5,-128.5 308.5,-98.5 174.5,-98.5"/>
<text text-anchor="start" x="182.5" y="-116.5" font-family="Helvetica,sans-Serif" font-size="10.00">gfs_sim::BalloonPhysics</text>
<text text-anchor="middle" x="241.5" y="-105.5" font-family="Helvetica,sans-Serif" font-size="10.00">::getVerticalSpeed</text>
</a>
</g>
</g>
<!-- Node1&#45;&gt;Node9 -->
<g id="edge8" class="edge">
<title>Node1&#45;&gt;Node9</title>
<path fill="none" stroke="midnightblue" d="M74.73,-220.45C91.33,-199.23 124.42,-160.61 161,-138.5 164.55,-136.35 168.31,-134.37 172.17,-132.55"/>
<polygon fill="midnightblue" stroke="midnightblue" points="173.57,-135.76 181.36,-128.57 170.79,-129.33 173.57,-135.76"/>
</g>
<!-- Node10 -->
<g id="node10" class="node">
<title>Node10</title>
<g id="a_node10"><a xlink:href="classgfs__sim_1_1SimEnvironmental.html#acecfda79bf510b82d285b8c76f249c64" target="_top" xlink:title=" ">
<polygon fill="none" stroke="black" points="166,-49.5 166,-79.5 317,-79.5 317,-49.5 166,-49.5"/>
<text text-anchor="start" x="174" y="-67.5" font-family="Helvetica,sans-Serif" font-size="10.00">gfs_sim::SimEnvironmental</text>
<text text-anchor="middle" x="241.5" y="-56.5" font-family="Helvetica,sans-Serif" font-size="10.00">::getWindDirectionDegrees</text>
</a>
</g>
</g>
<!-- Node1&#45;&gt;Node10 -->
<g id="edge9" class="edge">
<title>Node1&#45;&gt;Node10</title>
<path fill="none" stroke="midnightblue" d="M69.56,-220.2C82.09,-190.53 113.69,-124.97 161,-89.5 163.47,-87.65 166.07,-85.94 168.78,-84.35"/>
<polygon fill="midnightblue" stroke="midnightblue" points="170.47,-87.41 177.72,-79.68 167.23,-81.21 170.47,-87.41"/>
</g>
<!-- Node11 -->
<g id="node11" class="node">
<title>Node11</title>
<g id="a_node11"><a xlink:href="classgfs__sim_1_1SimEnvironmental.html#a9b9c0345d347eb6f2ff42d67dd929226" target="_top" xlink:title=" ">
<polygon fill="none" stroke="black" points="166,-0.5 166,-30.5 317,-30.5 317,-0.5 166,-0.5"/>
<text text-anchor="start" x="174" y="-18.5" font-family="Helvetica,sans-Serif" font-size="10.00">gfs_sim::SimEnvironmental</text>
<text text-anchor="middle" x="241.5" y="-7.5" font-family="Helvetica,sans-Serif" font-size="10.00">::getWindSpeedMPS</text>
</a>
</g>
</g>
<!-- Node1&#45;&gt;Node11 -->
<g id="edge10" class="edge">
<title>Node1&#45;&gt;Node11</title>
<path fill="none" stroke="midnightblue" d="M66.79,-220.3C75.48,-183.76 102.53,-90.35 161,-40.5 162.98,-38.82 165.06,-37.25 167.24,-35.78"/>
<polygon fill="midnightblue" stroke="midnightblue" points="169.16,-38.71 176.02,-30.64 165.62,-32.67 169.16,-38.71"/>
</g>
</g>
</svg>
