<?xml version="1.0" encoding="UTF-8" standalone="no"?>
<!DOCTYPE svg PUBLIC "-//W3C//DTD SVG 1.1//EN"
 "http://www.w3.org/Graphics/SVG/1.1/DTD/svg11.dtd">
<!-- Generated by graphviz version 2.43.0 (0)
 -->
<!-- Title: giraffe::gdl::PhysicalLayer Pages: 1 -->
<svg width="717pt" height="540pt"
 viewBox="0.00 0.00 716.50 540.00" xmlns="http://www.w3.org/2000/svg" xmlns:xlink="http://www.w3.org/1999/xlink">
<g id="graph0" class="graph" transform="scale(1 1) rotate(0) translate(4 536)">
<title>giraffe::gdl::PhysicalLayer</title>
<!-- Node1 -->
<g id="node1" class="node">
<title>Node1</title>
<g id="a_node1"><a xlink:title="The physical layer of the Giraffe Data Link.">
<polygon fill="#bfbfbf" stroke="black" points="269,-0.5 269,-189.5 412,-189.5 412,-0.5 269,-0.5"/>
<text text-anchor="middle" x="340.5" y="-177.5" font-family="Helvetica,sans-Serif" font-size="10.00">giraffe::gdl::PhysicalLayer</text>
<polyline fill="none" stroke="black" points="269,-170.5 412,-170.5 "/>
<text text-anchor="middle" x="340.5" y="-158.5" font-family="Helvetica,sans-Serif" font-size="10.00"> </text>
<polyline fill="none" stroke="black" points="269,-151.5 412,-151.5 "/>
<text text-anchor="start" x="277" y="-139.5" font-family="Helvetica,sans-Serif" font-size="10.00">+ PhysicalLayer()</text>
<text text-anchor="start" x="277" y="-128.5" font-family="Helvetica,sans-Serif" font-size="10.00">+ ~PhysicalLayer()</text>
<text text-anchor="start" x="277" y="-117.5" font-family="Helvetica,sans-Serif" font-size="10.00">+ changeMode()</text>
<text text-anchor="start" x="277" y="-106.5" font-family="Helvetica,sans-Serif" font-size="10.00">+ disable()</text>
<text text-anchor="start" x="277" y="-95.5" font-family="Helvetica,sans-Serif" font-size="10.00">+ enable()</text>
<text text-anchor="start" x="277" y="-84.5" font-family="Helvetica,sans-Serif" font-size="10.00">+ getMode()</text>
<text text-anchor="start" x="277" y="-73.5" font-family="Helvetica,sans-Serif" font-size="10.00">+ getRssi()</text>
<text text-anchor="start" x="277" y="-62.5" font-family="Helvetica,sans-Serif" font-size="10.00">+ getState()</text>
<text text-anchor="start" x="277" y="-51.5" font-family="Helvetica,sans-Serif" font-size="10.00">+ startTransmit()</text>
<text text-anchor="start" x="277" y="-40.5" font-family="Helvetica,sans-Serif" font-size="10.00">+ stopTransmit()</text>
<text text-anchor="start" x="277" y="-29.5" font-family="Helvetica,sans-Serif" font-size="10.00">+ update()</text>
<text text-anchor="start" x="277" y="-18.5" font-family="Helvetica,sans-Serif" font-size="10.00"># setMode()</text>
<text text-anchor="start" x="277" y="-7.5" font-family="Helvetica,sans-Serif" font-size="10.00"># setState()</text>
</a>
</g>
</g>
<!-- Node2 -->
<g id="node2" class="node">
<title>Node2</title>
<g id="a_node2"><a xlink:title=" ">
<polygon fill="none" stroke="#bfbfbf" points="179.5,-292.5 179.5,-349.5 223.5,-349.5 223.5,-292.5 179.5,-292.5"/>
<text text-anchor="middle" x="201.5" y="-337.5" font-family="Helvetica,sans-Serif" font-size="10.00">Mode</text>
<polyline fill="none" stroke="#bfbfbf" points="179.5,-330.5 223.5,-330.5 "/>
<text text-anchor="middle" x="201.5" y="-318.5" font-family="Helvetica,sans-Serif" font-size="10.00"> </text>
<polyline fill="none" stroke="#bfbfbf" points="179.5,-311.5 223.5,-311.5 "/>
<text text-anchor="middle" x="201.5" y="-299.5" font-family="Helvetica,sans-Serif" font-size="10.00"> </text>
</a>
</g>
</g>
<!-- Node2&#45;&gt;Node1 -->
<g id="edge1" class="edge">
<title>Node2&#45;&gt;Node1</title>
<path fill="none" stroke="#404040" d="M209.6,-292.19C214.97,-275.63 222.82,-254.5 232.5,-237 240.99,-221.66 251.04,-206.17 261.54,-191.36"/>
<polygon fill="none" stroke="#404040" points="261.83,-190.96 262.11,-183.75 268.86,-181.23 268.59,-188.44 261.83,-190.96"/>
<text text-anchor="middle" x="270.5" y="-211" font-family="Helvetica,sans-Serif" font-size="10.00"> &#45;mode_</text>
</g>
<!-- Node3 -->
<g id="node3" class="node">
<title>Node3</title>
<g id="a_node3"><a xlink:href="classgiraffe_1_1gdl_1_1Config.html" target="_top" xlink:title="Data Link Configuration.">
<polygon fill="none" stroke="black" points="242,-237.5 242,-404.5 439,-404.5 439,-237.5 242,-237.5"/>
<text text-anchor="middle" x="340.5" y="-392.5" font-family="Helvetica,sans-Serif" font-size="10.00">giraffe::gdl::Config</text>
<polyline fill="none" stroke="black" points="242,-385.5 439,-385.5 "/>
<text text-anchor="middle" x="340.5" y="-373.5" font-family="Helvetica,sans-Serif" font-size="10.00"> </text>
<polyline fill="none" stroke="black" points="242,-366.5 439,-366.5 "/>
<text text-anchor="start" x="250" y="-354.5" font-family="Helvetica,sans-Serif" font-size="10.00">+ Config()</text>
<text text-anchor="start" x="250" y="-343.5" font-family="Helvetica,sans-Serif" font-size="10.00">+ ~Config()</text>
<text text-anchor="start" x="250" y="-332.5" font-family="Helvetica,sans-Serif" font-size="10.00">+ getAprsTelemetryDataIntervalMs()</text>
<text text-anchor="start" x="250" y="-321.5" font-family="Helvetica,sans-Serif" font-size="10.00">+ getCallSign()</text>
<text text-anchor="start" x="250" y="-310.5" font-family="Helvetica,sans-Serif" font-size="10.00">+ getProactiveKeepAlive()</text>
<text text-anchor="start" x="250" y="-299.5" font-family="Helvetica,sans-Serif" font-size="10.00">+ getRemoteCallSign()</text>
<text text-anchor="start" x="250" y="-288.5" font-family="Helvetica,sans-Serif" font-size="10.00">+ getRemoteSSID()</text>
<text text-anchor="start" x="250" y="-277.5" font-family="Helvetica,sans-Serif" font-size="10.00">+ getSSID()</text>
<text text-anchor="start" x="250" y="-266.5" font-family="Helvetica,sans-Serif" font-size="10.00">+ isAprsTelemetrySenderEnabled()</text>
<text text-anchor="start" x="250" y="-255.5" font-family="Helvetica,sans-Serif" font-size="10.00">+ isController()</text>
<text text-anchor="start" x="250" y="-244.5" font-family="Helvetica,sans-Serif" font-size="10.00">and 7 more...</text>
</a>
</g>
</g>
<!-- Node3&#45;&gt;Node1 -->
<g id="edge2" class="edge">
<title>Node3&#45;&gt;Node1</title>
<path fill="none" stroke="#404040" d="M340.5,-237.23C340.5,-225.76 340.5,-213.85 340.5,-202.03"/>
<polygon fill="none" stroke="#404040" points="340.5,-201.76 336.5,-195.76 340.5,-189.76 344.5,-195.76 340.5,-201.76"/>
<text text-anchor="middle" x="363.5" y="-211" font-family="Helvetica,sans-Serif" font-size="10.00"> #config_</text>
</g>
<!-- Node4 -->
<g id="node4" class="node">
<title>Node4</title>
<g id="a_node4"><a xlink:title=" ">
<polygon fill="none" stroke="#bfbfbf" points="0,-474.5 0,-531.5 113,-531.5 113,-474.5 0,-474.5"/>
<text text-anchor="middle" x="56.5" y="-519.5" font-family="Helvetica,sans-Serif" font-size="10.00">atomic&lt; uint32_t &gt;</text>
<polyline fill="none" stroke="#bfbfbf" points="0,-512.5 113,-512.5 "/>
<text text-anchor="middle" x="56.5" y="-500.5" font-family="Helvetica,sans-Serif" font-size="10.00"> </text>
<polyline fill="none" stroke="#bfbfbf" points="0,-493.5 113,-493.5 "/>
<text text-anchor="middle" x="56.5" y="-481.5" font-family="Helvetica,sans-Serif" font-size="10.00"> </text>
</a>
</g>
</g>
<!-- Node4&#45;&gt;Node3 -->
<g id="edge3" class="edge">
<title>Node4&#45;&gt;Node3</title>
<path fill="none" stroke="#404040" d="M57.15,-474.47C59.11,-457.06 64.67,-435.55 79.5,-423 103.44,-402.74 185.29,-415.31 230.53,-404.42"/>
<polygon fill="none" stroke="#404040" points="230.54,-404.41 235.05,-398.79 241.98,-400.78 237.47,-406.41 230.54,-404.41"/>
<text text-anchor="start" x="79.5" y="-442.5" font-family="Helvetica,sans-Serif" font-size="10.00"> &#45;aprs_telemetry_data</text>
<text text-anchor="middle" x="134" y="-431.5" font-family="Helvetica,sans-Serif" font-size="10.00">_interval_ms_</text>
</g>
<!-- Node5 -->
<g id="node5" class="node">
<title>Node5</title>
<g id="a_node5"><a xlink:title=" ">
<polygon fill="none" stroke="#bfbfbf" points="164.5,-474.5 164.5,-531.5 212.5,-531.5 212.5,-474.5 164.5,-474.5"/>
<text text-anchor="middle" x="188.5" y="-519.5" font-family="Helvetica,sans-Serif" font-size="10.00">mutex</text>
<polyline fill="none" stroke="#bfbfbf" points="164.5,-512.5 212.5,-512.5 "/>
<text text-anchor="middle" x="188.5" y="-500.5" font-family="Helvetica,sans-Serif" font-size="10.00"> </text>
<polyline fill="none" stroke="#bfbfbf" points="164.5,-493.5 212.5,-493.5 "/>
<text text-anchor="middle" x="188.5" y="-481.5" font-family="Helvetica,sans-Serif" font-size="10.00"> </text>
</a>
</g>
</g>
<!-- Node5&#45;&gt;Node3 -->
<g id="edge4" class="edge">
<title>Node5&#45;&gt;Node3</title>
<path fill="none" stroke="#404040" d="M189.35,-474.38C191.02,-458.22 195.24,-438.08 205.5,-423 212.15,-413.22 218.17,-413.02 231.74,-404.91"/>
<polygon fill="none" stroke="#404040" points="231.81,-404.87 234.61,-398.22 241.82,-398.26 239.02,-404.9 231.81,-404.87"/>
<text text-anchor="middle" x="246" y="-437" font-family="Helvetica,sans-Serif" font-size="10.00"> &#45;call_sign_lock_</text>
</g>
<!-- Node6 -->
<g id="node6" class="node">
<title>Node6</title>
<g id="a_node6"><a xlink:title=" ">
<polygon fill="none" stroke="#bfbfbf" points="239,-474.5 239,-531.5 346,-531.5 346,-474.5 239,-474.5"/>
<text text-anchor="middle" x="292.5" y="-519.5" font-family="Helvetica,sans-Serif" font-size="10.00">atomic&lt; uint8_t &gt;</text>
<polyline fill="none" stroke="#bfbfbf" points="239,-512.5 346,-512.5 "/>
<text text-anchor="middle" x="292.5" y="-500.5" font-family="Helvetica,sans-Serif" font-size="10.00"> </text>
<polyline fill="none" stroke="#bfbfbf" points="239,-493.5 346,-493.5 "/>
<text text-anchor="middle" x="292.5" y="-481.5" font-family="Helvetica,sans-Serif" font-size="10.00"> </text>
</a>
</g>
</g>
<!-- Node6&#45;&gt;Node3 -->
<g id="edge5" class="edge">
<title>Node6&#45;&gt;Node3</title>
<path fill="none" stroke="#404040" d="M290.02,-474.24C289.36,-458.94 289.69,-439.72 293.5,-423 294.02,-420.7 294.6,-418.39 295.23,-416.08"/>
<polygon fill="none" stroke="#404040" points="295.26,-415.99 293.19,-409.08 298.77,-404.52 300.84,-411.42 295.26,-415.99"/>
<text text-anchor="middle" x="330" y="-442.5" font-family="Helvetica,sans-Serif" font-size="10.00"> &#45;remote_ssid_</text>
<text text-anchor="middle" x="330" y="-431.5" font-family="Helvetica,sans-Serif" font-size="10.00">&#45;ssid_</text>
</g>
<!-- Node7 -->
<g id="node7" class="node">
<title>Node7</title>
<g id="a_node7"><a xlink:title=" ">
<polygon fill="none" stroke="#bfbfbf" points="366.5,-474.5 366.5,-531.5 410.5,-531.5 410.5,-474.5 366.5,-474.5"/>
<text text-anchor="middle" x="388.5" y="-519.5" font-family="Helvetica,sans-Serif" font-size="10.00">string</text>
<polyline fill="none" stroke="#bfbfbf" points="366.5,-512.5 410.5,-512.5 "/>
<text text-anchor="middle" x="388.5" y="-500.5" font-family="Helvetica,sans-Serif" font-size="10.00"> </text>
<polyline fill="none" stroke="#bfbfbf" points="366.5,-493.5 410.5,-493.5 "/>
<text text-anchor="middle" x="388.5" y="-481.5" font-family="Helvetica,sans-Serif" font-size="10.00"> </text>
</a>
</g>
</g>
<!-- Node7&#45;&gt;Node3 -->
<g id="edge6" class="edge">
<title>Node7&#45;&gt;Node3</title>
<path fill="none" stroke="#404040" d="M381.11,-474.27C376.89,-458.46 371.33,-437.62 365.69,-416.46"/>
<polygon fill="none" stroke="#404040" points="365.64,-416.29 360.23,-411.52 362.55,-404.69 367.96,-409.46 365.64,-416.29"/>
<text text-anchor="middle" x="422" y="-442.5" font-family="Helvetica,sans-Serif" font-size="10.00"> &#45;call_sign_</text>
<text text-anchor="middle" x="422" y="-431.5" font-family="Helvetica,sans-Serif" font-size="10.00">&#45;remote_call_sign_</text>
</g>
<!-- Node8 -->
<g id="node8" class="node">
<title>Node8</title>
<g id="a_node8"><a xlink:title=" ">
<polygon fill="none" stroke="#bfbfbf" points="485.5,-474.5 485.5,-531.5 523.5,-531.5 523.5,-474.5 485.5,-474.5"/>
<text text-anchor="middle" x="504.5" y="-519.5" font-family="Helvetica,sans-Serif" font-size="10.00">bool</text>
<polyline fill="none" stroke="#bfbfbf" points="485.5,-512.5 523.5,-512.5 "/>
<text text-anchor="middle" x="504.5" y="-500.5" font-family="Helvetica,sans-Serif" font-size="10.00"> </text>
<polyline fill="none" stroke="#bfbfbf" points="485.5,-493.5 523.5,-493.5 "/>
<text text-anchor="middle" x="504.5" y="-481.5" font-family="Helvetica,sans-Serif" font-size="10.00"> </text>
</a>
</g>
</g>
<!-- Node8&#45;&gt;Node3 -->
<g id="edge7" class="edge">
<title>Node8&#45;&gt;Node3</title>
<path fill="none" stroke="#404040" d="M497.29,-474.13C492.18,-458.07 484.14,-438.13 472.5,-423 465.89,-414.42 461.19,-413.22 448.89,-404.9"/>
<polygon fill="none" stroke="#404040" points="448.79,-404.82 441.59,-404.57 439.05,-397.81 446.26,-398.07 448.79,-404.82"/>
<text text-anchor="middle" x="526" y="-437" font-family="Helvetica,sans-Serif" font-size="10.00"> &#45;is_controller_</text>
</g>
<!-- Node9 -->
<g id="node9" class="node">
<title>Node9</title>
<g id="a_node9"><a xlink:title=" ">
<polygon fill="none" stroke="#bfbfbf" points="553.5,-474.5 553.5,-531.5 647.5,-531.5 647.5,-474.5 553.5,-474.5"/>
<text text-anchor="middle" x="600.5" y="-519.5" font-family="Helvetica,sans-Serif" font-size="10.00">atomic&lt; bool &gt;</text>
<polyline fill="none" stroke="#bfbfbf" points="553.5,-512.5 647.5,-512.5 "/>
<text text-anchor="middle" x="600.5" y="-500.5" font-family="Helvetica,sans-Serif" font-size="10.00"> </text>
<polyline fill="none" stroke="#bfbfbf" points="553.5,-493.5 647.5,-493.5 "/>
<text text-anchor="middle" x="600.5" y="-481.5" font-family="Helvetica,sans-Serif" font-size="10.00"> </text>
</a>
</g>
</g>
<!-- Node9&#45;&gt;Node3 -->
<g id="edge8" class="edge">
<title>Node9&#45;&gt;Node3</title>
<path fill="none" stroke="#404040" d="M595.68,-474.38C591.16,-456.94 582.57,-435.42 566.5,-423 527.39,-392.78 501.09,-421.32 450.6,-405"/>
<polygon fill="none" stroke="#404040" points="450.3,-404.88 443.28,-406.5 439.08,-400.64 446.11,-399.02 450.3,-404.88"/>
<text text-anchor="start" x="588.5" y="-448" font-family="Helvetica,sans-Serif" font-size="10.00"> &#45;aprs_telemetry_sender</text>
<text text-anchor="middle" x="648.5" y="-437" font-family="Helvetica,sans-Serif" font-size="10.00">_enabled_</text>
<text text-anchor="middle" x="648.5" y="-426" font-family="Helvetica,sans-Serif" font-size="10.00">&#45;proactive_keep_alive_</text>
</g>
<!-- Node10 -->
<g id="node10" class="node">
<title>Node10</title>
<g id="a_node10"><a xlink:title=" ">
<polygon fill="none" stroke="#bfbfbf" points="457.5,-292.5 457.5,-349.5 499.5,-349.5 499.5,-292.5 457.5,-292.5"/>
<text text-anchor="middle" x="478.5" y="-337.5" font-family="Helvetica,sans-Serif" font-size="10.00">State</text>
<polyline fill="none" stroke="#bfbfbf" points="457.5,-330.5 499.5,-330.5 "/>
<text text-anchor="middle" x="478.5" y="-318.5" font-family="Helvetica,sans-Serif" font-size="10.00"> </text>
<polyline fill="none" stroke="#bfbfbf" points="457.5,-311.5 499.5,-311.5 "/>
<text text-anchor="middle" x="478.5" y="-299.5" font-family="Helvetica,sans-Serif" font-size="10.00"> </text>
</a>
</g>
</g>
<!-- Node10&#45;&gt;Node1 -->
<g id="edge9" class="edge">
<title>Node10&#45;&gt;Node1</title>
<path fill="none" stroke="#404040" d="M470.79,-292.17C465.64,-275.61 458.05,-254.48 448.5,-237 439.95,-221.35 429.75,-205.58 419.08,-190.54"/>
<polygon fill="none" stroke="#404040" points="419.05,-190.49 412.29,-187.97 412.02,-180.76 418.77,-183.28 419.05,-190.49"/>
<text text-anchor="middle" x="454" y="-211" font-family="Helvetica,sans-Serif" font-size="10.00"> &#45;state_</text>
</g>
</g>
</svg>
