<?xml version="1.0" encoding="UTF-8" standalone="no"?>
<!DOCTYPE svg PUBLIC "-//W3C//DTD SVG 1.1//EN"
 "http://www.w3.org/Graphics/SVG/1.1/DTD/svg11.dtd">
<!-- Generated by graphviz version 2.43.0 (0)
 -->
<!-- Title: extension::SimCamera::loop Pages: 1 -->
<svg width="626pt" height="38pt"
 viewBox="0.00 0.00 626.00 38.00" xmlns="http://www.w3.org/2000/svg" xmlns:xlink="http://www.w3.org/1999/xlink">
<g id="graph0" class="graph" transform="scale(1 1) rotate(0) translate(4 34)">
<title>extension::SimCamera::loop</title>
<!-- Node1 -->
<g id="Node000001" class="node">
<title>Node1</title>
<g id="a_Node000001"><a xlink:title=" ">
<polygon fill="#999999" stroke="#666666" points="128,-30 0,-30 0,0 128,0 128,-30"/>
<text text-anchor="start" x="8" y="-18" font-family="Helvetica,sans-Serif" font-size="10.00">extension::SimCamera</text>
<text text-anchor="middle" x="64" y="-7" font-family="Helvetica,sans-Serif" font-size="10.00">::loop</text>
</a>
</g>
</g>
<!-- Node2 -->
<g id="Node000002" class="node">
<title>Node2</title>
<g id="a_Node000002"><a xlink:href="classextension_1_1SimCamera.html#a7004e033f46b9491b4c0f3f200bbff74" target="_top" xlink:title=" ">
<polygon fill="white" stroke="#666666" points="292,-30 164,-30 164,0 292,0 292,-30"/>
<text text-anchor="start" x="172" y="-18" font-family="Helvetica,sans-Serif" font-size="10.00">extension::SimCamera</text>
<text text-anchor="middle" x="228" y="-7" font-family="Helvetica,sans-Serif" font-size="10.00">::copySampleImage</text>
</a>
</g>
</g>
<!-- Node1&#45;&gt;Node2 -->
<g id="edge1_Node000001_Node000002" class="edge">
<title>Node1&#45;&gt;Node2</title>
<g id="a_edge1_Node000001_Node000002"><a xlink:title=" ">
<path fill="none" stroke="#63b8ff" d="M128.1,-15C136.43,-15 145.04,-15 153.53,-15"/>
<polygon fill="#63b8ff" stroke="#63b8ff" points="153.81,-18.5 163.81,-15 153.81,-11.5 153.81,-18.5"/>
</a>
</g>
</g>
<!-- Node3 -->
<g id="Node000003" class="node">
<title>Node3</title>
<g id="a_Node000003"><a xlink:href="classextension_1_1Extension.html#a947a643d302b5c5f9cef1a54d5038c06" target="_top" xlink:title=" ">
<polygon fill="white" stroke="#666666" points="447,-30 328,-30 328,0 447,0 447,-30"/>
<text text-anchor="start" x="336" y="-18" font-family="Helvetica,sans-Serif" font-size="10.00">extension::Extension</text>
<text text-anchor="middle" x="387.5" y="-7" font-family="Helvetica,sans-Serif" font-size="10.00">::error</text>
</a>
</g>
</g>
<!-- Node2&#45;&gt;Node3 -->
<g id="edge2_Node000002_Node000003" class="edge">
<title>Node2&#45;&gt;Node3</title>
<g id="a_edge2_Node000002_Node000003"><a xlink:title=" ">
<path fill="none" stroke="#63b8ff" d="M292.15,-15C300.55,-15 309.19,-15 317.68,-15"/>
<polygon fill="#63b8ff" stroke="#63b8ff" points="317.93,-18.5 327.93,-15 317.93,-11.5 317.93,-18.5"/>
</a>
</g>
</g>
<!-- Node4 -->
<g id="Node000004" class="node">
<title>Node4</title>
<g id="a_Node000004"><a xlink:href="classdata_1_1Stream.html#a1ff9a93190dbecdc2ffa27deaaa4266a" target="_top" xlink:title=" ">
<polygon fill="white" stroke="#666666" points="618,-24.5 483,-24.5 483,-5.5 618,-5.5 618,-24.5"/>
<text text-anchor="middle" x="550.5" y="-12.5" font-family="Helvetica,sans-Serif" font-size="10.00">data::Stream::addPacket</text>
</a>
</g>
</g>
<!-- Node3&#45;&gt;Node4 -->
<g id="edge3_Node000003_Node000004" class="edge">
<title>Node3&#45;&gt;Node4</title>
<g id="a_edge3_Node000003_Node000004"><a xlink:title=" ">
<path fill="none" stroke="#63b8ff" d="M447.08,-15C455.42,-15 464.09,-15 472.71,-15"/>
<polygon fill="#63b8ff" stroke="#63b8ff" points="472.78,-18.5 482.78,-15 472.78,-11.5 472.78,-18.5"/>
</a>
</g>
</g>
</g>
</svg>
