<?xml version="1.0" encoding="UTF-8" standalone="no"?>
<!DOCTYPE svg PUBLIC "-//W3C//DTD SVG 1.1//EN"
 "http://www.w3.org/Graphics/SVG/1.1/DTD/svg11.dtd">
<!-- Generated by graphviz version 2.43.0 (0)
 -->
<!-- Title: FlightPhaseManagerTest::setParamsRecovery Pages: 1 -->
<svg width="332pt" height="64pt"
 viewBox="0.00 0.00 332.00 64.00" xmlns="http://www.w3.org/2000/svg" xmlns:xlink="http://www.w3.org/1999/xlink">
<g id="graph0" class="graph" transform="scale(1 1) rotate(0) translate(4 60)">
<title>FlightPhaseManagerTest::setParamsRecovery</title>
<!-- Node1 -->
<g id="Node000001" class="node">
<title>Node1</title>
<g id="a_Node000001"><a xlink:title=" ">
<polygon fill="#999999" stroke="#666666" points="136,-42.5 0,-42.5 0,-12.5 136,-12.5 136,-42.5"/>
<text text-anchor="start" x="8" y="-30.5" font-family="Helvetica,sans-Serif" font-size="10.00">FlightPhaseManagerTest</text>
<text text-anchor="middle" x="68" y="-19.5" font-family="Helvetica,sans-Serif" font-size="10.00">::setParamsRecovery</text>
</a>
</g>
</g>
<!-- Node2 -->
<g id="Node000002" class="node">
<title>Node2</title>
<g id="a_Node000002"><a xlink:href="shared__data__helpers_8hpp.html#a8d97c6bf20283f8b3c4e00c2c4ae865b" target="_top" xlink:title=" ">
<polygon fill="white" stroke="#666666" points="324,-56 172,-56 172,-37 324,-37 324,-56"/>
<text text-anchor="middle" x="248" y="-44" font-family="Helvetica,sans-Serif" font-size="10.00">setCalculatedDataRecovery</text>
</a>
</g>
</g>
<!-- Node1&#45;&gt;Node2 -->
<g id="edge1_Node000001_Node000002" class="edge">
<title>Node1&#45;&gt;Node2</title>
<g id="a_edge1_Node000001_Node000002"><a xlink:title=" ">
<path fill="none" stroke="#63b8ff" d="M136.04,-34.66C144.47,-35.56 153.18,-36.49 161.84,-37.41"/>
<polygon fill="#63b8ff" stroke="#63b8ff" points="161.65,-40.91 171.96,-38.49 162.39,-33.95 161.65,-40.91"/>
</a>
</g>
</g>
<!-- Node3 -->
<g id="Node000003" class="node">
<title>Node3</title>
<g id="a_Node000003"><a xlink:href="shared__data__helpers_8hpp.html#a7571208332466f206272d835712b7e93" target="_top" xlink:title=" ">
<polygon fill="white" stroke="#666666" points="319,-19 177,-19 177,0 319,0 319,-19"/>
<text text-anchor="middle" x="248" y="-7" font-family="Helvetica,sans-Serif" font-size="10.00">setLocationDataRecovery</text>
</a>
</g>
</g>
<!-- Node1&#45;&gt;Node3 -->
<g id="edge2_Node000001_Node000003" class="edge">
<title>Node1&#45;&gt;Node3</title>
<g id="a_edge2_Node000001_Node000003"><a xlink:title=" ">
<path fill="none" stroke="#63b8ff" d="M136.04,-20.72C146.02,-19.71 156.39,-18.66 166.61,-17.63"/>
<polygon fill="#63b8ff" stroke="#63b8ff" points="167.16,-21.09 176.76,-16.6 166.45,-14.13 167.16,-21.09"/>
</a>
</g>
</g>
</g>
</svg>
