<?xml version="1.0" encoding="UTF-8" standalone="no"?>
<!DOCTYPE svg PUBLIC "-//W3C//DTD SVG 1.1//EN"
 "http://www.w3.org/Graphics/SVG/1.1/DTD/svg11.dtd">
<!-- Generated by graphviz version 2.43.0 (0)
 -->
<!-- Title: FlightPhaseManagerTest::tick Pages: 1 -->
<svg width="1188pt" height="550pt"
 viewBox="0.00 0.00 1188.00 549.50" xmlns="http://www.w3.org/2000/svg" xmlns:xlink="http://www.w3.org/1999/xlink">
<g id="graph0" class="graph" transform="scale(1 1) rotate(0) translate(4 545.5)">
<title>FlightPhaseManagerTest::tick</title>
<!-- Node1 -->
<g id="node1" class="node">
<title>Node1</title>
<g id="a_node1"><a xlink:title=" ">
<polygon fill="#bfbfbf" stroke="black" points="0,-279.5 0,-309.5 136,-309.5 136,-279.5 0,-279.5"/>
<text text-anchor="start" x="8" y="-297.5" font-family="Helvetica,sans-Serif" font-size="10.00">FlightPhaseManagerTest</text>
<text text-anchor="middle" x="68" y="-286.5" font-family="Helvetica,sans-Serif" font-size="10.00">::tick</text>
</a>
</g>
</g>
<!-- Node2 -->
<g id="node2" class="node">
<title>Node2</title>
<g id="a_node2"><a xlink:href="classFlightPhaseManager.html#a547cb144c9ad196b910bc3a111aec286" target="_top" xlink:title="Update the flight phase manager.">
<polygon fill="none" stroke="black" points="172,-279.5 172,-309.5 288,-309.5 288,-279.5 172,-279.5"/>
<text text-anchor="start" x="180" y="-297.5" font-family="Helvetica,sans-Serif" font-size="10.00">FlightPhaseManager</text>
<text text-anchor="middle" x="230" y="-286.5" font-family="Helvetica,sans-Serif" font-size="10.00">::update</text>
</a>
</g>
</g>
<!-- Node1&#45;&gt;Node2 -->
<g id="edge1" class="edge">
<title>Node1&#45;&gt;Node2</title>
<path fill="none" stroke="midnightblue" d="M136.39,-294.5C144.77,-294.5 153.34,-294.5 161.72,-294.5"/>
<polygon fill="midnightblue" stroke="midnightblue" points="161.81,-298 171.81,-294.5 161.81,-291 161.81,-298"/>
</g>
<!-- Node3 -->
<g id="node3" class="node">
<title>Node3</title>
<g id="a_node3"><a xlink:href="classFlightPhaseManager.html#a38e97741fd5bdd0b80a3172d3e73322d" target="_top" xlink:title=" ">
<polygon fill="none" stroke="black" points="339,-377.5 339,-407.5 455,-407.5 455,-377.5 339,-377.5"/>
<text text-anchor="start" x="347" y="-395.5" font-family="Helvetica,sans-Serif" font-size="10.00">FlightPhaseManager</text>
<text text-anchor="middle" x="397" y="-384.5" font-family="Helvetica,sans-Serif" font-size="10.00">::flightPhaseUpdate</text>
</a>
</g>
</g>
<!-- Node2&#45;&gt;Node3 -->
<g id="edge2" class="edge">
<title>Node2&#45;&gt;Node3</title>
<path fill="none" stroke="midnightblue" d="M246.55,-309.75C264.09,-326.22 294.07,-352.27 324,-368.5 327.26,-370.27 330.68,-371.94 334.17,-373.51"/>
<polygon fill="midnightblue" stroke="midnightblue" points="332.98,-376.81 343.56,-377.44 335.69,-370.35 332.98,-376.81"/>
</g>
<!-- Node14 -->
<g id="node14" class="node">
<title>Node14</title>
<g id="a_node14"><a xlink:href="classFlightPhasePredictor.html#aa56a7eeb78fb0ce2407ea537236bdcd3" target="_top" xlink:title="Get the phase probabilities structure.">
<polygon fill="none" stroke="black" points="337,-328.5 337,-358.5 457,-358.5 457,-328.5 337,-328.5"/>
<text text-anchor="start" x="345" y="-346.5" font-family="Helvetica,sans-Serif" font-size="10.00">FlightPhasePredictor</text>
<text text-anchor="middle" x="397" y="-335.5" font-family="Helvetica,sans-Serif" font-size="10.00">::getPhaseProbability</text>
</a>
</g>
</g>
<!-- Node2&#45;&gt;Node14 -->
<g id="edge19" class="edge">
<title>Node2&#45;&gt;Node14</title>
<path fill="none" stroke="midnightblue" d="M281.85,-309.6C298.87,-314.66 318,-320.34 335.67,-325.58"/>
<polygon fill="midnightblue" stroke="midnightblue" points="334.73,-328.96 345.32,-328.45 336.73,-322.25 334.73,-328.96"/>
</g>
<!-- Node15 -->
<g id="node15" class="node">
<title>Node15</title>
<g id="a_node15"><a xlink:href="classFlightPhasePredictor.html#a7f865ee9e6f156605ac2d92241ab2b0f" target="_top" xlink:title="Get the predicted flight phase.">
<polygon fill="none" stroke="black" points="338.5,-279.5 338.5,-309.5 455.5,-309.5 455.5,-279.5 338.5,-279.5"/>
<text text-anchor="start" x="346.5" y="-297.5" font-family="Helvetica,sans-Serif" font-size="10.00">FlightPhasePredictor</text>
<text text-anchor="middle" x="397" y="-286.5" font-family="Helvetica,sans-Serif" font-size="10.00">::getPredictedPhase</text>
</a>
</g>
</g>
<!-- Node2&#45;&gt;Node15 -->
<g id="edge20" class="edge">
<title>Node2&#45;&gt;Node15</title>
<path fill="none" stroke="midnightblue" d="M288.25,-294.5C301.15,-294.5 314.97,-294.5 328.26,-294.5"/>
<polygon fill="midnightblue" stroke="midnightblue" points="328.3,-298 338.3,-294.5 328.3,-291 328.3,-298"/>
</g>
<!-- Node16 -->
<g id="node16" class="node">
<title>Node16</title>
<g id="a_node16"><a xlink:href="classdata_1_1FlightData.html#a3aaa12475187e63a50a331fe629a52b4" target="_top" xlink:title=" ">
<polygon fill="none" stroke="black" points="324,-230.5 324,-260.5 470,-260.5 470,-230.5 324,-230.5"/>
<text text-anchor="start" x="332" y="-248.5" font-family="Helvetica,sans-Serif" font-size="10.00">data::FlightData::setPhase</text>
<text text-anchor="middle" x="397" y="-237.5" font-family="Helvetica,sans-Serif" font-size="10.00">Prediction</text>
</a>
</g>
</g>
<!-- Node2&#45;&gt;Node16 -->
<g id="edge21" class="edge">
<title>Node2&#45;&gt;Node16</title>
<path fill="none" stroke="midnightblue" d="M281.85,-279.4C298.87,-274.34 318,-268.66 335.67,-263.42"/>
<polygon fill="midnightblue" stroke="midnightblue" points="336.73,-266.75 345.32,-260.55 334.73,-260.04 336.73,-266.75"/>
</g>
<!-- Node17 -->
<g id="node17" class="node">
<title>Node17</title>
<g id="a_node17"><a xlink:href="classFlightPhasePredictor.html#a325f1d196644bc5ef1e635ef855f3d87" target="_top" xlink:title="Update the flight phase predictor.">
<polygon fill="none" stroke="black" points="338.5,-181.5 338.5,-211.5 455.5,-211.5 455.5,-181.5 338.5,-181.5"/>
<text text-anchor="start" x="346.5" y="-199.5" font-family="Helvetica,sans-Serif" font-size="10.00">FlightPhasePredictor</text>
<text text-anchor="middle" x="397" y="-188.5" font-family="Helvetica,sans-Serif" font-size="10.00">::update</text>
</a>
</g>
</g>
<!-- Node2&#45;&gt;Node17 -->
<g id="edge22" class="edge">
<title>Node2&#45;&gt;Node17</title>
<path fill="none" stroke="midnightblue" d="M246.95,-279.24C264.6,-263.06 294.46,-237.63 324,-221.5 327.89,-219.37 332,-217.38 336.2,-215.51"/>
<polygon fill="midnightblue" stroke="midnightblue" points="337.62,-218.71 345.5,-211.63 334.92,-212.25 337.62,-218.71"/>
</g>
<!-- Node4 -->
<g id="node4" class="node">
<title>Node4</title>
<g id="a_node4"><a xlink:href="classgiraffe_1_1Logger.html#a2947dae610f76345978c81132ea84edc" target="_top" xlink:title=" ">
<polygon fill="none" stroke="black" points="508.5,-484 508.5,-503 624.5,-503 624.5,-484 508.5,-484"/>
<text text-anchor="middle" x="566.5" y="-491" font-family="Helvetica,sans-Serif" font-size="10.00">giraffe::Logger::error</text>
</a>
</g>
</g>
<!-- Node3&#45;&gt;Node4 -->
<g id="edge3" class="edge">
<title>Node3&#45;&gt;Node4</title>
<path fill="none" stroke="midnightblue" d="M423.08,-407.62C454.81,-426.75 509.12,-459.5 540.71,-478.55"/>
<polygon fill="midnightblue" stroke="midnightblue" points="538.99,-481.6 549.36,-483.77 542.6,-475.61 538.99,-481.6"/>
</g>
<!-- Node10 -->
<g id="node10" class="node">
<title>Node10</title>
<g id="a_node10"><a xlink:href="classFlightPhaseManager.html#a85ff07e3141863f505d562e7672d995f" target="_top" xlink:title=" ">
<polygon fill="none" stroke="black" points="508.5,-377.5 508.5,-407.5 624.5,-407.5 624.5,-377.5 508.5,-377.5"/>
<text text-anchor="start" x="516.5" y="-395.5" font-family="Helvetica,sans-Serif" font-size="10.00">FlightPhaseManager</text>
<text text-anchor="middle" x="566.5" y="-384.5" font-family="Helvetica,sans-Serif" font-size="10.00">::setFlightPhase</text>
</a>
</g>
</g>
<!-- Node3&#45;&gt;Node10 -->
<g id="edge12" class="edge">
<title>Node3&#45;&gt;Node10</title>
<path fill="none" stroke="midnightblue" d="M455.18,-392.5C468.98,-392.5 483.86,-392.5 498.08,-392.5"/>
<polygon fill="midnightblue" stroke="midnightblue" points="498.3,-396 508.3,-392.5 498.3,-389 498.3,-396"/>
</g>
<!-- Node13 -->
<g id="node13" class="node">
<title>Node13</title>
<g id="a_node13"><a xlink:href="namespaceutil.html#a8e9635f6a41c035d331ddaeb62259ba6" target="_top" xlink:title="Converts a flight phase to a string.">
<polygon fill="none" stroke="black" points="700,-339 700,-358 781,-358 781,-339 700,-339"/>
<text text-anchor="middle" x="740.5" y="-346" font-family="Helvetica,sans-Serif" font-size="10.00">util::to_string</text>
</a>
</g>
</g>
<!-- Node3&#45;&gt;Node13 -->
<g id="edge18" class="edge">
<title>Node3&#45;&gt;Node13</title>
<path fill="none" stroke="midnightblue" d="M455.18,-378.3C471.51,-374.65 489.39,-371.05 506,-368.5 568.95,-358.85 642.2,-353.53 689.64,-350.84"/>
<polygon fill="midnightblue" stroke="midnightblue" points="689.85,-354.34 699.65,-350.29 689.47,-347.35 689.85,-354.34"/>
</g>
<!-- Node5 -->
<g id="node5" class="node">
<title>Node5</title>
<g id="a_node5"><a xlink:href="classdata_1_1LogStream.html#a18af3025ca8f1e60e5bd795f10b6c8b1" target="_top" xlink:title=" ">
<polygon fill="none" stroke="black" points="677.5,-484 677.5,-503 803.5,-503 803.5,-484 677.5,-484"/>
<text text-anchor="middle" x="740.5" y="-491" font-family="Helvetica,sans-Serif" font-size="10.00">data::LogStream::error</text>
</a>
</g>
</g>
<!-- Node4&#45;&gt;Node5 -->
<g id="edge4" class="edge">
<title>Node4&#45;&gt;Node5</title>
<path fill="none" stroke="midnightblue" d="M624.77,-493.5C638.38,-493.5 653.07,-493.5 667.24,-493.5"/>
<polygon fill="midnightblue" stroke="midnightblue" points="667.45,-497 677.45,-493.5 667.45,-490 667.45,-497"/>
</g>
<!-- Node9 -->
<g id="node9" class="node">
<title>Node9</title>
<g id="a_node9"><a xlink:href="classgiraffe_1_1Logger.html#af8465c2895fd50680183e36e093e66e3" target="_top" xlink:title=" ">
<polygon fill="none" stroke="black" points="684.5,-522 684.5,-541 796.5,-541 796.5,-522 684.5,-522"/>
<text text-anchor="middle" x="740.5" y="-529" font-family="Helvetica,sans-Serif" font-size="10.00">giraffe::Logger::info</text>
</a>
</g>
</g>
<!-- Node4&#45;&gt;Node9 -->
<g id="edge10" class="edge">
<title>Node4&#45;&gt;Node9</title>
<path fill="none" stroke="midnightblue" d="M610.9,-503.09C633.91,-508.17 662.35,-514.46 686.63,-519.82"/>
<polygon fill="midnightblue" stroke="midnightblue" points="685.89,-523.24 696.41,-521.98 687.4,-516.41 685.89,-523.24"/>
</g>
<!-- Node6 -->
<g id="node6" class="node">
<title>Node6</title>
<g id="a_node6"><a xlink:href="classdata_1_1Stream.html#a1ff9a93190dbecdc2ffa27deaaa4266a" target="_top" xlink:title=" ">
<polygon fill="none" stroke="black" points="1040,-483.5 1040,-513.5 1180,-513.5 1180,-483.5 1040,-483.5"/>
<text text-anchor="start" x="1048" y="-501.5" font-family="Helvetica,sans-Serif" font-size="10.00">data::Stream&lt; LogPacket</text>
<text text-anchor="middle" x="1110" y="-490.5" font-family="Helvetica,sans-Serif" font-size="10.00"> &gt;::addPacket</text>
</a>
</g>
</g>
<!-- Node5&#45;&gt;Node6 -->
<g id="edge5" class="edge">
<title>Node5&#45;&gt;Node6</title>
<path fill="none" stroke="midnightblue" d="M803.84,-494.35C866.08,-495.19 961.94,-496.5 1029.59,-497.42"/>
<polygon fill="midnightblue" stroke="midnightblue" points="1029.73,-500.92 1039.77,-497.56 1029.82,-493.92 1029.73,-500.92"/>
</g>
<!-- Node7 -->
<g id="node7" class="node">
<title>Node7</title>
<g id="a_node7"><a xlink:href="classdata_1_1LogStream.html#a02c18d6e5c9697b4943ba9fb630ca0c9" target="_top" xlink:title=" ">
<polygon fill="none" stroke="black" points="868,-522 868,-541 990,-541 990,-522 868,-522"/>
<text text-anchor="middle" x="929" y="-529" font-family="Helvetica,sans-Serif" font-size="10.00">data::LogStream::info</text>
</a>
</g>
</g>
<!-- Node5&#45;&gt;Node7 -->
<g id="edge6" class="edge">
<title>Node5&#45;&gt;Node7</title>
<path fill="none" stroke="midnightblue" d="M788.56,-503.09C813.73,-508.22 844.9,-514.57 871.38,-519.96"/>
<polygon fill="midnightblue" stroke="midnightblue" points="870.78,-523.41 881.28,-521.98 872.18,-516.55 870.78,-523.41"/>
</g>
<!-- Node8 -->
<g id="node8" class="node">
<title>Node8</title>
<g id="a_node8"><a xlink:href="structdata_1_1BaseStreamPacket.html#a140b2f54f93715d9229e1847bc1219b2" target="_top" xlink:title=" ">
<polygon fill="none" stroke="black" points="1042.5,-434.5 1042.5,-464.5 1177.5,-464.5 1177.5,-434.5 1042.5,-434.5"/>
<text text-anchor="start" x="1050.5" y="-452.5" font-family="Helvetica,sans-Serif" font-size="10.00">data::BaseStreamPacket</text>
<text text-anchor="middle" x="1110" y="-441.5" font-family="Helvetica,sans-Serif" font-size="10.00">::resetTime</text>
</a>
</g>
</g>
<!-- Node5&#45;&gt;Node8 -->
<g id="edge9" class="edge">
<title>Node5&#45;&gt;Node8</title>
<path fill="none" stroke="midnightblue" d="M803.84,-486.04C866.85,-478.49 964.35,-466.82 1032.11,-458.71"/>
<polygon fill="midnightblue" stroke="midnightblue" points="1032.79,-462.15 1042.31,-457.49 1031.96,-455.2 1032.79,-462.15"/>
</g>
<!-- Node7&#45;&gt;Node6 -->
<g id="edge7" class="edge">
<title>Node7&#45;&gt;Node6</title>
<path fill="none" stroke="midnightblue" d="M981.77,-521.96C996.74,-519.2 1013.42,-516.12 1029.66,-513.13"/>
<polygon fill="midnightblue" stroke="midnightblue" points="1030.49,-516.53 1039.69,-511.28 1029.22,-509.65 1030.49,-516.53"/>
</g>
<!-- Node7&#45;&gt;Node8 -->
<g id="edge8" class="edge">
<title>Node7&#45;&gt;Node8</title>
<path fill="none" stroke="midnightblue" d="M946.81,-521.91C968.11,-509.97 1006.11,-489.34 1040,-474.5 1044.96,-472.33 1050.17,-470.19 1055.42,-468.13"/>
<polygon fill="midnightblue" stroke="midnightblue" points="1056.77,-471.36 1064.86,-464.52 1054.27,-464.82 1056.77,-471.36"/>
</g>
<!-- Node9&#45;&gt;Node7 -->
<g id="edge11" class="edge">
<title>Node9&#45;&gt;Node7</title>
<path fill="none" stroke="midnightblue" d="M796.7,-531.5C815.81,-531.5 837.5,-531.5 857.66,-531.5"/>
<polygon fill="midnightblue" stroke="midnightblue" points="857.73,-535 867.73,-531.5 857.73,-528 857.73,-535"/>
</g>
<!-- Node11 -->
<g id="node11" class="node">
<title>Node11</title>
<g id="a_node11"><a xlink:href="classdata_1_1DataStream.html#a0eef16fa96084fe72dcc3f3ef8cf0bac" target="_top" xlink:title=" ">
<polygon fill="none" stroke="black" points="854,-408 854,-427 1004,-427 1004,-408 854,-408"/>
<text text-anchor="middle" x="929" y="-415" font-family="Helvetica,sans-Serif" font-size="10.00">data::DataStream::addData</text>
</a>
</g>
</g>
<!-- Node10&#45;&gt;Node11 -->
<g id="edge13" class="edge">
<title>Node10&#45;&gt;Node11</title>
<path fill="none" stroke="midnightblue" d="M615.12,-407.52C630.27,-411.61 647.19,-415.47 663,-417.5 723.1,-425.24 791.51,-425.01 843.77,-422.97"/>
<polygon fill="midnightblue" stroke="midnightblue" points="844.15,-426.46 854,-422.54 843.86,-419.46 844.15,-426.46"/>
</g>
<!-- Node12 -->
<g id="node12" class="node">
<title>Node12</title>
<g id="a_node12"><a xlink:href="classdata_1_1FlightData.html#aab39bdf65e13f5c215e7871dae587233" target="_top" xlink:title=" ">
<polygon fill="none" stroke="black" points="668.5,-377.5 668.5,-407.5 812.5,-407.5 812.5,-377.5 668.5,-377.5"/>
<text text-anchor="start" x="676.5" y="-395.5" font-family="Helvetica,sans-Serif" font-size="10.00">data::FlightData::setFlight</text>
<text text-anchor="middle" x="740.5" y="-384.5" font-family="Helvetica,sans-Serif" font-size="10.00">Phase</text>
</a>
</g>
</g>
<!-- Node10&#45;&gt;Node12 -->
<g id="edge16" class="edge">
<title>Node10&#45;&gt;Node12</title>
<path fill="none" stroke="midnightblue" d="M624.77,-392.5C635.47,-392.5 646.84,-392.5 658.11,-392.5"/>
<polygon fill="midnightblue" stroke="midnightblue" points="658.4,-396 668.4,-392.5 658.4,-389 658.4,-396"/>
</g>
<!-- Node10&#45;&gt;Node13 -->
<g id="edge17" class="edge">
<title>Node10&#45;&gt;Node13</title>
<path fill="none" stroke="midnightblue" d="M624.77,-377.85C646.69,-372.24 671.42,-365.91 692.3,-360.57"/>
<polygon fill="midnightblue" stroke="midnightblue" points="693.39,-363.91 702.21,-358.04 691.65,-357.13 693.39,-363.91"/>
</g>
<!-- Node11&#45;&gt;Node6 -->
<g id="edge14" class="edge">
<title>Node11&#45;&gt;Node6</title>
<path fill="none" stroke="midnightblue" d="M946.78,-427.16C968.04,-439.17 1006.02,-459.88 1040,-474.5 1044.18,-476.3 1048.53,-478.06 1052.94,-479.77"/>
<polygon fill="midnightblue" stroke="midnightblue" points="1052.03,-483.16 1062.63,-483.4 1054.49,-476.61 1052.03,-483.16"/>
</g>
<!-- Node11&#45;&gt;Node8 -->
<g id="edge15" class="edge">
<title>Node11&#45;&gt;Node8</title>
<path fill="none" stroke="midnightblue" d="M983.22,-427.01C998.58,-429.76 1015.66,-432.81 1032.15,-435.76"/>
<polygon fill="midnightblue" stroke="midnightblue" points="1031.87,-439.27 1042.33,-437.58 1033.1,-432.38 1031.87,-439.27"/>
</g>
<!-- Node18 -->
<g id="node18" class="node">
<title>Node18</title>
<g id="a_node18"><a xlink:href="classFlightPhasePredictor.html#a67c51546dbc5964234cd0a4f654693eb" target="_top" xlink:title="Using the probabilities, determine the current flight phase.">
<polygon fill="none" stroke="black" points="508,-230.5 508,-260.5 625,-260.5 625,-230.5 508,-230.5"/>
<text text-anchor="start" x="516" y="-248.5" font-family="Helvetica,sans-Serif" font-size="10.00">FlightPhasePredictor</text>
<text text-anchor="middle" x="566.5" y="-237.5" font-family="Helvetica,sans-Serif" font-size="10.00">::predictFlightPhase</text>
</a>
</g>
</g>
<!-- Node17&#45;&gt;Node18 -->
<g id="edge23" class="edge">
<title>Node17&#45;&gt;Node18</title>
<path fill="none" stroke="midnightblue" d="M449.62,-211.6C466.9,-216.66 486.32,-222.34 504.26,-227.58"/>
<polygon fill="midnightblue" stroke="midnightblue" points="503.47,-231 514.05,-230.45 505.43,-224.28 503.47,-231"/>
</g>
<!-- Node19 -->
<g id="node19" class="node">
<title>Node19</title>
<g id="a_node19"><a xlink:href="classFlightPhasePredictor.html#a279cdca168c55a7a87984270930e773c" target="_top" xlink:title="Process all rule sets of every phase and calculate the probabilities.">
<polygon fill="none" stroke="black" points="508,-181.5 508,-211.5 625,-211.5 625,-181.5 508,-181.5"/>
<text text-anchor="start" x="516" y="-199.5" font-family="Helvetica,sans-Serif" font-size="10.00">FlightPhasePredictor</text>
<text text-anchor="middle" x="566.5" y="-188.5" font-family="Helvetica,sans-Serif" font-size="10.00">::processAllRules</text>
</a>
</g>
</g>
<!-- Node17&#45;&gt;Node19 -->
<g id="edge24" class="edge">
<title>Node17&#45;&gt;Node19</title>
<path fill="none" stroke="midnightblue" d="M455.64,-196.5C469.2,-196.5 483.77,-196.5 497.72,-196.5"/>
<polygon fill="midnightblue" stroke="midnightblue" points="497.75,-200 507.75,-196.5 497.75,-193 497.75,-200"/>
</g>
<!-- Node24 -->
<g id="node24" class="node">
<title>Node24</title>
<g id="a_node24"><a xlink:href="classPredictionParameters.html#a653d146841619901d7634f36420ff82c" target="_top" xlink:title="Updates all of the parameters.">
<polygon fill="none" stroke="black" points="506,-93.5 506,-123.5 627,-123.5 627,-93.5 506,-93.5"/>
<text text-anchor="start" x="514" y="-111.5" font-family="Helvetica,sans-Serif" font-size="10.00">PredictionParameters</text>
<text text-anchor="middle" x="566.5" y="-100.5" font-family="Helvetica,sans-Serif" font-size="10.00">::updateParameters</text>
</a>
</g>
</g>
<!-- Node17&#45;&gt;Node24 -->
<g id="edge29" class="edge">
<title>Node17&#45;&gt;Node24</title>
<path fill="none" stroke="midnightblue" d="M426.79,-181.37C454.68,-166.72 497.13,-144.42 527.72,-128.35"/>
<polygon fill="midnightblue" stroke="midnightblue" points="529.58,-131.33 536.8,-123.58 526.32,-125.13 529.58,-131.33"/>
</g>
<!-- Node20 -->
<g id="node20" class="node">
<title>Node20</title>
<g id="a_node20"><a xlink:href="prediction__model_8cpp.html#ab8ef2fff1f82ac60205ea16e5537774a" target="_top" xlink:title="A function to get the entire rules map.">
<polygon fill="none" stroke="black" points="680.5,-187 680.5,-206 800.5,-206 800.5,-187 680.5,-187"/>
<text text-anchor="middle" x="740.5" y="-194" font-family="Helvetica,sans-Serif" font-size="10.00">getPhaseRuleSetMap</text>
</a>
</g>
</g>
<!-- Node19&#45;&gt;Node20 -->
<g id="edge25" class="edge">
<title>Node19&#45;&gt;Node20</title>
<path fill="none" stroke="midnightblue" d="M625.25,-196.5C639.68,-196.5 655.31,-196.5 670.24,-196.5"/>
<polygon fill="midnightblue" stroke="midnightblue" points="670.43,-200 680.43,-196.5 670.43,-193 670.43,-200"/>
</g>
<!-- Node21 -->
<g id="node21" class="node">
<title>Node21</title>
<g id="a_node21"><a xlink:href="classFlightPhasePredictor.html#a0e7d6889689ccc30275b9be9b60db30a" target="_top" xlink:title="Get the probability points from a rule set.">
<polygon fill="none" stroke="black" points="675,-225.5 675,-255.5 806,-255.5 806,-225.5 675,-225.5"/>
<text text-anchor="start" x="683" y="-243.5" font-family="Helvetica,sans-Serif" font-size="10.00">FlightPhasePredictor</text>
<text text-anchor="middle" x="740.5" y="-232.5" font-family="Helvetica,sans-Serif" font-size="10.00">::getPointsFromRuleSet</text>
</a>
</g>
</g>
<!-- Node19&#45;&gt;Node21 -->
<g id="edge26" class="edge">
<title>Node19&#45;&gt;Node21</title>
<path fill="none" stroke="midnightblue" d="M625.25,-211.27C639.9,-215.02 655.78,-219.08 670.91,-222.95"/>
<polygon fill="midnightblue" stroke="midnightblue" points="670.17,-226.38 680.73,-225.47 671.91,-219.6 670.17,-226.38"/>
</g>
<!-- Node22 -->
<g id="node22" class="node">
<title>Node22</title>
<g id="a_node22"><a xlink:href="classFlightPhasePredictor.html#a4e55b025bca64f4116b1518669d10233" target="_top" xlink:title="Get the probability points from a rule.">
<polygon fill="none" stroke="black" points="870.5,-225.5 870.5,-255.5 987.5,-255.5 987.5,-225.5 870.5,-225.5"/>
<text text-anchor="start" x="878.5" y="-243.5" font-family="Helvetica,sans-Serif" font-size="10.00">FlightPhasePredictor</text>
<text text-anchor="middle" x="929" y="-232.5" font-family="Helvetica,sans-Serif" font-size="10.00">::getPointsFromRule</text>
</a>
</g>
</g>
<!-- Node21&#45;&gt;Node22 -->
<g id="edge27" class="edge">
<title>Node21&#45;&gt;Node22</title>
<path fill="none" stroke="midnightblue" d="M806.21,-240.5C823.62,-240.5 842.5,-240.5 860.08,-240.5"/>
<polygon fill="midnightblue" stroke="midnightblue" points="860.27,-244 870.27,-240.5 860.27,-237 860.27,-244"/>
</g>
<!-- Node23 -->
<g id="node23" class="node">
<title>Node23</title>
<g id="a_node23"><a xlink:href="classPredictionParameters.html#af92ad5644fdbd46359ca3771cd9f6453" target="_top" xlink:title="Get a parameter by its ID.">
<polygon fill="none" stroke="black" points="1049.5,-225.5 1049.5,-255.5 1170.5,-255.5 1170.5,-225.5 1049.5,-225.5"/>
<text text-anchor="start" x="1057.5" y="-243.5" font-family="Helvetica,sans-Serif" font-size="10.00">PredictionParameters</text>
<text text-anchor="middle" x="1110" y="-232.5" font-family="Helvetica,sans-Serif" font-size="10.00">::getParameter</text>
</a>
</g>
</g>
<!-- Node22&#45;&gt;Node23 -->
<g id="edge28" class="edge">
<title>Node22&#45;&gt;Node23</title>
<path fill="none" stroke="midnightblue" d="M987.62,-240.5C1003.96,-240.5 1021.92,-240.5 1038.91,-240.5"/>
<polygon fill="midnightblue" stroke="midnightblue" points="1039.33,-244 1049.33,-240.5 1039.33,-237 1039.33,-244"/>
</g>
<!-- Node25 -->
<g id="node25" class="node">
<title>Node25</title>
<g id="a_node25"><a xlink:href="classdata_1_1blocks_1_1Block.html#a2237ade9275911c4fd9d0d264accfa7b" target="_top" xlink:title=" ">
<polygon fill="none" stroke="black" points="675,-99 675,-118 806,-118 806,-99 675,-99"/>
<text text-anchor="middle" x="740.5" y="-106" font-family="Helvetica,sans-Serif" font-size="10.00">data::blocks::Block::get</text>
</a>
</g>
</g>
<!-- Node24&#45;&gt;Node25 -->
<g id="edge30" class="edge">
<title>Node24&#45;&gt;Node25</title>
<path fill="none" stroke="midnightblue" d="M627.17,-108.5C639.35,-108.5 652.3,-108.5 664.92,-108.5"/>
<polygon fill="midnightblue" stroke="midnightblue" points="664.94,-112 674.94,-108.5 664.94,-105 664.94,-112"/>
</g>
<!-- Node26 -->
<g id="node26" class="node">
<title>Node26</title>
<g id="a_node26"><a xlink:href="classdata_1_1FlightData.html#a7a9f92a351f196a88523a992af33bdc6" target="_top" xlink:title="Get the mission clock time in seconds. May be negative or positive. A negative value is in the future...">
<polygon fill="none" stroke="black" points="663,-49.5 663,-79.5 818,-79.5 818,-49.5 663,-49.5"/>
<text text-anchor="start" x="671" y="-67.5" font-family="Helvetica,sans-Serif" font-size="10.00">data::FlightData::getMission</text>
<text text-anchor="middle" x="740.5" y="-56.5" font-family="Helvetica,sans-Serif" font-size="10.00">ClockSeconds</text>
</a>
</g>
</g>
<!-- Node24&#45;&gt;Node26 -->
<g id="edge31" class="edge">
<title>Node24&#45;&gt;Node26</title>
<path fill="none" stroke="midnightblue" d="M626.21,-93.48C640.52,-89.82 655.96,-85.87 670.69,-82.1"/>
<polygon fill="midnightblue" stroke="midnightblue" points="671.94,-85.4 680.76,-79.53 670.21,-78.61 671.94,-85.4"/>
</g>
<!-- Node27 -->
<g id="node27" class="node">
<title>Node27</title>
<g id="a_node27"><a xlink:href="classdata_1_1FlightData.html#a768e08b7bfbc117f31838a9220e18ada" target="_top" xlink:title="The number of seconds since the flight runner was started.">
<polygon fill="none" stroke="black" points="664,-0.5 664,-30.5 817,-30.5 817,-0.5 664,-0.5"/>
<text text-anchor="start" x="672" y="-18.5" font-family="Helvetica,sans-Serif" font-size="10.00">data::FlightData::getUptime</text>
<text text-anchor="middle" x="740.5" y="-7.5" font-family="Helvetica,sans-Serif" font-size="10.00">Seconds</text>
</a>
</g>
</g>
<!-- Node24&#45;&gt;Node27 -->
<g id="edge32" class="edge">
<title>Node24&#45;&gt;Node27</title>
<path fill="none" stroke="midnightblue" d="M584.69,-93.43C603,-78.04 633.38,-54.35 663,-39.5 666.71,-37.64 670.59,-35.89 674.56,-34.24"/>
<polygon fill="midnightblue" stroke="midnightblue" points="675.87,-37.49 683.92,-30.6 673.33,-30.96 675.87,-37.49"/>
</g>
<!-- Node28 -->
<g id="node28" class="node">
<title>Node28</title>
<g id="a_node28"><a xlink:href="classPredictionParameters.html#ade567365801b428c507ec91ee05c89e0" target="_top" xlink:title="Validates, filters, and updates a parameter&#39;s value.">
<polygon fill="none" stroke="black" points="680,-137.5 680,-167.5 801,-167.5 801,-137.5 680,-137.5"/>
<text text-anchor="start" x="688" y="-155.5" font-family="Helvetica,sans-Serif" font-size="10.00">PredictionParameters</text>
<text text-anchor="middle" x="740.5" y="-144.5" font-family="Helvetica,sans-Serif" font-size="10.00">::updateParameter</text>
</a>
</g>
</g>
<!-- Node24&#45;&gt;Node28 -->
<g id="edge33" class="edge">
<title>Node24&#45;&gt;Node28</title>
<path fill="none" stroke="midnightblue" d="M626.21,-123.52C640.52,-127.18 655.96,-131.13 670.69,-134.9"/>
<polygon fill="midnightblue" stroke="midnightblue" points="670.21,-138.39 680.76,-137.47 671.94,-131.6 670.21,-138.39"/>
</g>
<!-- Node29 -->
<g id="node29" class="node">
<title>Node29</title>
<g id="a_node29"><a xlink:href="classPredictionParameters.html#a87733a1be1951e372c291dc4cb130ad4" target="_top" xlink:title="Applies a filter to a parameter. Does not update the parameter. or care if it&#39;s valid.">
<polygon fill="none" stroke="black" points="868.5,-107.5 868.5,-137.5 989.5,-137.5 989.5,-107.5 868.5,-107.5"/>
<text text-anchor="start" x="876.5" y="-125.5" font-family="Helvetica,sans-Serif" font-size="10.00">PredictionParameters</text>
<text text-anchor="middle" x="929" y="-114.5" font-family="Helvetica,sans-Serif" font-size="10.00">::applyInvalidFilter</text>
</a>
</g>
</g>
<!-- Node28&#45;&gt;Node29 -->
<g id="edge34" class="edge">
<title>Node28&#45;&gt;Node29</title>
<path fill="none" stroke="midnightblue" d="M801.02,-142.93C819.28,-139.99 839.52,-136.73 858.39,-133.7"/>
<polygon fill="midnightblue" stroke="midnightblue" points="859.09,-137.13 868.4,-132.09 857.97,-130.22 859.09,-137.13"/>
</g>
<!-- Node30 -->
<g id="node30" class="node">
<title>Node30</title>
<g id="a_node30"><a xlink:href="classPredictionParameters.html#aabfeefcd2cc0a9cb1e47510d62ffd0f8" target="_top" xlink:title="Validates a parameter.">
<polygon fill="none" stroke="black" points="868.5,-156.5 868.5,-186.5 989.5,-186.5 989.5,-156.5 868.5,-156.5"/>
<text text-anchor="start" x="876.5" y="-174.5" font-family="Helvetica,sans-Serif" font-size="10.00">PredictionParameters</text>
<text text-anchor="middle" x="929" y="-163.5" font-family="Helvetica,sans-Serif" font-size="10.00">::validateParameter</text>
</a>
</g>
</g>
<!-- Node28&#45;&gt;Node30 -->
<g id="edge35" class="edge">
<title>Node28&#45;&gt;Node30</title>
<path fill="none" stroke="midnightblue" d="M801.02,-158.56C819.28,-160.42 839.52,-162.49 858.39,-164.41"/>
<polygon fill="midnightblue" stroke="midnightblue" points="858.1,-167.9 868.4,-165.43 858.81,-160.93 858.1,-167.9"/>
</g>
</g>
</svg>
