<?xml version="1.0" encoding="UTF-8" standalone="no"?>
<!DOCTYPE svg PUBLIC "-//W3C//DTD SVG 1.1//EN"
 "http://www.w3.org/Graphics/SVG/1.1/DTD/svg11.dtd">
<!-- Generated by graphviz version 2.43.0 (0)
 -->
<!-- Title: FlightPhaseManagerTest::validateHasDataItem Pages: 1 -->
<svg width="547pt" height="104pt"
 viewBox="0.00 0.00 547.00 104.00" xmlns="http://www.w3.org/2000/svg" xmlns:xlink="http://www.w3.org/1999/xlink">
<g id="graph0" class="graph" transform="scale(1 1) rotate(0) translate(4 100)">
<title>FlightPhaseManagerTest::validateHasDataItem</title>
<!-- Node1 -->
<g id="node1" class="node">
<title>Node1</title>
<g id="a_node1"><a xlink:title=" ">
<polygon fill="#bfbfbf" stroke="black" points="0,-33 0,-63 136,-63 136,-33 0,-33"/>
<text text-anchor="start" x="8" y="-51" font-family="Helvetica,sans-Serif" font-size="10.00">FlightPhaseManagerTest</text>
<text text-anchor="middle" x="68" y="-40" font-family="Helvetica,sans-Serif" font-size="10.00">::validateHasDataItem</text>
</a>
</g>
</g>
<!-- Node2 -->
<g id="node2" class="node">
<title>Node2</title>
<g id="a_node2"><a xlink:href="classdata_1_1Stream.html#a0314b3695dc80b18b19be92965777234" target="_top" xlink:title=" ">
<polygon fill="none" stroke="black" points="190.5,-76.5 190.5,-95.5 323.5,-95.5 323.5,-76.5 190.5,-76.5"/>
<text text-anchor="middle" x="257" y="-83.5" font-family="Helvetica,sans-Serif" font-size="10.00">data::Stream::getPacket</text>
</a>
</g>
</g>
<!-- Node1&#45;&gt;Node2 -->
<g id="edge1" class="edge">
<title>Node1&#45;&gt;Node2</title>
<path fill="none" stroke="midnightblue" d="M136.25,-61.67C156.94,-65.87 179.5,-70.45 199.4,-74.5"/>
<polygon fill="midnightblue" stroke="midnightblue" points="198.74,-77.94 209.24,-76.5 200.13,-71.08 198.74,-77.94"/>
</g>
<!-- Node3 -->
<g id="node3" class="node">
<title>Node3</title>
<g id="a_node3"><a xlink:href="classFakeSharedData.html#a7d8de2b428a1e3790f6168a573194ab8" target="_top" xlink:title=" ">
<polygon fill="none" stroke="black" points="172,-38.5 172,-57.5 342,-57.5 342,-38.5 172,-38.5"/>
<text text-anchor="middle" x="257" y="-45.5" font-family="Helvetica,sans-Serif" font-size="10.00">FakeSharedData::hasDataItems</text>
</a>
</g>
</g>
<!-- Node1&#45;&gt;Node3 -->
<g id="edge2" class="edge">
<title>Node1&#45;&gt;Node3</title>
<path fill="none" stroke="midnightblue" d="M136.25,-48C144.53,-48 153.1,-48 161.69,-48"/>
<polygon fill="midnightblue" stroke="midnightblue" points="161.76,-51.5 171.76,-48 161.76,-44.5 161.76,-51.5"/>
</g>
<!-- Node5 -->
<g id="node5" class="node">
<title>Node5</title>
<g id="a_node5"><a xlink:href="namespaceutil.html#a8e9635f6a41c035d331ddaeb62259ba6" target="_top" xlink:title="Converts a flight phase to a string.">
<polygon fill="none" stroke="black" points="216.5,-0.5 216.5,-19.5 297.5,-19.5 297.5,-0.5 216.5,-0.5"/>
<text text-anchor="middle" x="257" y="-7.5" font-family="Helvetica,sans-Serif" font-size="10.00">util::to_string</text>
</a>
</g>
</g>
<!-- Node1&#45;&gt;Node5 -->
<g id="edge4" class="edge">
<title>Node1&#45;&gt;Node5</title>
<path fill="none" stroke="midnightblue" d="M136.25,-34.33C159.48,-29.61 185.06,-24.42 206.6,-20.04"/>
<polygon fill="midnightblue" stroke="midnightblue" points="207.4,-23.45 216.5,-18.03 206,-16.59 207.4,-23.45"/>
</g>
<!-- Node4 -->
<g id="node4" class="node">
<title>Node4</title>
<g id="a_node4"><a xlink:href="classdata_1_1Stream.html#a1e7307f7c8cbbe4304654a293d86bd9c" target="_top" xlink:title=" ">
<polygon fill="none" stroke="black" points="378,-38.5 378,-57.5 539,-57.5 539,-38.5 378,-38.5"/>
<text text-anchor="middle" x="458.5" y="-45.5" font-family="Helvetica,sans-Serif" font-size="10.00">data::Stream::getNumPackets</text>
</a>
</g>
</g>
<!-- Node3&#45;&gt;Node4 -->
<g id="edge3" class="edge">
<title>Node3&#45;&gt;Node4</title>
<path fill="none" stroke="midnightblue" d="M342.03,-48C350.43,-48 358.99,-48 367.45,-48"/>
<polygon fill="midnightblue" stroke="midnightblue" points="367.71,-51.5 377.71,-48 367.71,-44.5 367.71,-51.5"/>
</g>
</g>
</svg>
