<?xml version="1.0" encoding="UTF-8" standalone="no"?>
<!DOCTYPE svg PUBLIC "-//W3C//DTD SVG 1.1//EN"
 "http://www.w3.org/Graphics/SVG/1.1/DTD/svg11.dtd">
<!-- Generated by graphviz version 2.43.0 (0)
 -->
<!-- Title: FlightPhasePredictor Pages: 1 -->
<svg width="1370pt" height="1135pt"
 viewBox="0.00 0.00 1370.00 1135.00" xmlns="http://www.w3.org/2000/svg" xmlns:xlink="http://www.w3.org/1999/xlink">
<g id="graph0" class="graph" transform="scale(1 1) rotate(0) translate(4 1131)">
<title>FlightPhasePredictor</title>
<!-- Node1 -->
<g id="node1" class="node">
<title>Node1</title>
<g id="a_node1"><a xlink:title="Uses data provided by PredictionParameters to predict the current flight phase.">
<polygon fill="#bfbfbf" stroke="black" points="674,-0.5 674,-178.5 818,-178.5 818,-0.5 674,-0.5"/>
<text text-anchor="middle" x="746" y="-166.5" font-family="Helvetica,sans-Serif" font-size="10.00">FlightPhasePredictor</text>
<polyline fill="none" stroke="black" points="674,-159.5 818,-159.5 "/>
<text text-anchor="middle" x="746" y="-147.5" font-family="Helvetica,sans-Serif" font-size="10.00"> </text>
<polyline fill="none" stroke="black" points="674,-140.5 818,-140.5 "/>
<text text-anchor="start" x="682" y="-128.5" font-family="Helvetica,sans-Serif" font-size="10.00">+ FlightPhasePredictor()</text>
<text text-anchor="start" x="682" y="-117.5" font-family="Helvetica,sans-Serif" font-size="10.00">+ FlightPhasePredictor()</text>
<text text-anchor="start" x="682" y="-106.5" font-family="Helvetica,sans-Serif" font-size="10.00">+ FlightPhasePredictor()</text>
<text text-anchor="start" x="682" y="-95.5" font-family="Helvetica,sans-Serif" font-size="10.00">+ ~FlightPhasePredictor()</text>
<text text-anchor="start" x="682" y="-84.5" font-family="Helvetica,sans-Serif" font-size="10.00">+ getPhaseProbability()</text>
<text text-anchor="start" x="682" y="-73.5" font-family="Helvetica,sans-Serif" font-size="10.00">+ getPredictedPhase()</text>
<text text-anchor="start" x="682" y="-62.5" font-family="Helvetica,sans-Serif" font-size="10.00">+ operator=()</text>
<text text-anchor="start" x="682" y="-51.5" font-family="Helvetica,sans-Serif" font-size="10.00">+ update()</text>
<text text-anchor="start" x="682" y="-40.5" font-family="Helvetica,sans-Serif" font-size="10.00">&#45; getPointsFromRule()</text>
<text text-anchor="start" x="682" y="-29.5" font-family="Helvetica,sans-Serif" font-size="10.00">&#45; getPointsFromRuleSet()</text>
<text text-anchor="start" x="682" y="-18.5" font-family="Helvetica,sans-Serif" font-size="10.00">&#45; predictFlightPhase()</text>
<text text-anchor="start" x="682" y="-7.5" font-family="Helvetica,sans-Serif" font-size="10.00">&#45; processAllRules()</text>
</a>
</g>
</g>
<!-- Node2 -->
<g id="node2" class="node">
<title>Node2</title>
<g id="a_node2"><a xlink:title=" ">
<polygon fill="none" stroke="#bfbfbf" points="464,-524 464,-581 514,-581 514,-524 464,-524"/>
<text text-anchor="middle" x="489" y="-569" font-family="Helvetica,sans-Serif" font-size="10.00">double</text>
<polyline fill="none" stroke="#bfbfbf" points="464,-562 514,-562 "/>
<text text-anchor="middle" x="489" y="-550" font-family="Helvetica,sans-Serif" font-size="10.00"> </text>
<polyline fill="none" stroke="#bfbfbf" points="464,-543 514,-543 "/>
<text text-anchor="middle" x="489" y="-531" font-family="Helvetica,sans-Serif" font-size="10.00"> </text>
</a>
</g>
</g>
<!-- Node2&#45;&gt;Node1 -->
<g id="edge1" class="edge">
<title>Node2&#45;&gt;Node1</title>
<path fill="none" stroke="#404040" d="M500.7,-523.83C507.1,-507.56 514.6,-486.43 519,-467 541.69,-366.76 491.5,-325.94 543,-237 570.41,-189.66 619.94,-153.45 663.22,-128.88"/>
<polygon fill="none" stroke="#404040" points="663.28,-128.85 666.59,-122.44 673.78,-123.04 670.46,-129.44 663.28,-128.85"/>
<text text-anchor="start" x="543" y="-324" font-family="Helvetica,sans-Serif" font-size="10.00"> &#45;num_invalid_parameters</text>
<text text-anchor="middle" x="607.5" y="-313" font-family="Helvetica,sans-Serif" font-size="10.00">_</text>
<text text-anchor="middle" x="607.5" y="-302" font-family="Helvetica,sans-Serif" font-size="10.00">&#45;num_total_parameters_</text>
</g>
<!-- Node3 -->
<g id="node3" class="node">
<title>Node3</title>
<g id="a_node3"><a xlink:href="classFlightPhasePredictor.html#structFlightPhasePredictor_1_1Probability" target="_top" xlink:title="A stucture that contains the probabilities of being in each phase. The probabilities range from 0 to ...">
<polygon fill="none" stroke="black" points="369.5,-281.5 369.5,-349.5 486.5,-349.5 486.5,-281.5 369.5,-281.5"/>
<text text-anchor="start" x="377.5" y="-337.5" font-family="Helvetica,sans-Serif" font-size="10.00">FlightPhasePredictor</text>
<text text-anchor="middle" x="428" y="-326.5" font-family="Helvetica,sans-Serif" font-size="10.00">::Probability</text>
<polyline fill="none" stroke="black" points="369.5,-319.5 486.5,-319.5 "/>
<text text-anchor="middle" x="428" y="-307.5" font-family="Helvetica,sans-Serif" font-size="10.00"> </text>
<polyline fill="none" stroke="black" points="369.5,-300.5 486.5,-300.5 "/>
<text text-anchor="middle" x="428" y="-288.5" font-family="Helvetica,sans-Serif" font-size="10.00"> </text>
</a>
</g>
</g>
<!-- Node2&#45;&gt;Node3 -->
<g id="edge3" class="edge">
<title>Node2&#45;&gt;Node3</title>
<path fill="none" stroke="#404040" d="M473.26,-523.8C464.79,-507.7 454.9,-486.75 449,-467 438.72,-432.61 433.44,-392.26 430.74,-362"/>
<polygon fill="none" stroke="#404040" points="430.71,-361.66 426.24,-356 429.74,-349.7 434.21,-355.35 430.71,-361.66"/>
<text text-anchor="middle" x="484" y="-459" font-family="Helvetica,sans-Serif" font-size="10.00"> +ascent</text>
<text text-anchor="middle" x="484" y="-448" font-family="Helvetica,sans-Serif" font-size="10.00">+data_quality</text>
<text text-anchor="middle" x="484" y="-437" font-family="Helvetica,sans-Serif" font-size="10.00">+descent</text>
<text text-anchor="middle" x="484" y="-426" font-family="Helvetica,sans-Serif" font-size="10.00">+launch</text>
<text text-anchor="middle" x="484" y="-415" font-family="Helvetica,sans-Serif" font-size="10.00">+recovery</text>
</g>
<!-- Node3&#45;&gt;Node1 -->
<g id="edge2" class="edge">
<title>Node3&#45;&gt;Node1</title>
<path fill="none" stroke="#404040" d="M414.72,-281.45C406.85,-255.99 401.45,-221.17 419,-197 474.02,-121.21 584.38,-98.32 661.61,-91.95"/>
<polygon fill="none" stroke="#404040" points="661.74,-91.94 667.43,-87.51 673.71,-91.06 668.02,-95.49 661.74,-91.94"/>
<text text-anchor="middle" x="469" y="-205.5" font-family="Helvetica,sans-Serif" font-size="10.00"> &#45;phase_probability_</text>
</g>
<!-- Node4 -->
<g id="node4" class="node">
<title>Node4</title>
<g id="a_node4"><a xlink:title=" ">
<polygon fill="none" stroke="#bfbfbf" points="680.5,-287 680.5,-344 811.5,-344 811.5,-287 680.5,-287"/>
<text text-anchor="middle" x="746" y="-332" font-family="Helvetica,sans-Serif" font-size="10.00">static constexpr double</text>
<polyline fill="none" stroke="#bfbfbf" points="680.5,-325 811.5,-325 "/>
<text text-anchor="middle" x="746" y="-313" font-family="Helvetica,sans-Serif" font-size="10.00"> </text>
<polyline fill="none" stroke="#bfbfbf" points="680.5,-306 811.5,-306 "/>
<text text-anchor="middle" x="746" y="-294" font-family="Helvetica,sans-Serif" font-size="10.00"> </text>
</a>
</g>
</g>
<!-- Node4&#45;&gt;Node1 -->
<g id="edge4" class="edge">
<title>Node4&#45;&gt;Node1</title>
<path fill="none" stroke="#404040" d="M746,-286.58C746,-262.4 746,-225.9 746,-190.91"/>
<polygon fill="none" stroke="#404040" points="746,-190.63 742,-184.63 746,-178.63 750,-184.63 746,-190.63"/>
<text text-anchor="start" x="746" y="-211" font-family="Helvetica,sans-Serif" font-size="10.00"> +MINIMUM_PROBABILITY</text>
<text text-anchor="middle" x="810.5" y="-200" font-family="Helvetica,sans-Serif" font-size="10.00">_QUALITY</text>
</g>
<!-- Node5 -->
<g id="node5" class="node">
<title>Node5</title>
<g id="a_node5"><a xlink:href="classPredictionParameters.html" target="_top" xlink:title="A class that contains and updates the parameters used to detect the flight phase.">
<polygon fill="none" stroke="black" points="830,-237.5 830,-393.5 978,-393.5 978,-237.5 830,-237.5"/>
<text text-anchor="middle" x="904" y="-381.5" font-family="Helvetica,sans-Serif" font-size="10.00">PredictionParameters</text>
<polyline fill="none" stroke="black" points="830,-374.5 978,-374.5 "/>
<text text-anchor="middle" x="904" y="-362.5" font-family="Helvetica,sans-Serif" font-size="10.00"> </text>
<polyline fill="none" stroke="black" points="830,-355.5 978,-355.5 "/>
<text text-anchor="start" x="838" y="-343.5" font-family="Helvetica,sans-Serif" font-size="10.00">+ PredictionParameters()</text>
<text text-anchor="start" x="838" y="-332.5" font-family="Helvetica,sans-Serif" font-size="10.00">+ PredictionParameters()</text>
<text text-anchor="start" x="838" y="-321.5" font-family="Helvetica,sans-Serif" font-size="10.00">+ PredictionParameters()</text>
<text text-anchor="start" x="838" y="-310.5" font-family="Helvetica,sans-Serif" font-size="10.00">+ ~PredictionParameters()</text>
<text text-anchor="start" x="838" y="-299.5" font-family="Helvetica,sans-Serif" font-size="10.00">+ getParameter()</text>
<text text-anchor="start" x="838" y="-288.5" font-family="Helvetica,sans-Serif" font-size="10.00">+ operator=()</text>
<text text-anchor="start" x="838" y="-277.5" font-family="Helvetica,sans-Serif" font-size="10.00">+ updateParameters()</text>
<text text-anchor="start" x="838" y="-266.5" font-family="Helvetica,sans-Serif" font-size="10.00">&#45; applyInvalidFilter()</text>
<text text-anchor="start" x="838" y="-255.5" font-family="Helvetica,sans-Serif" font-size="10.00">&#45; updateParameter()</text>
<text text-anchor="start" x="838" y="-244.5" font-family="Helvetica,sans-Serif" font-size="10.00">&#45; validateParameter()</text>
</a>
</g>
</g>
<!-- Node5&#45;&gt;Node1 -->
<g id="edge5" class="edge">
<title>Node5&#45;&gt;Node1</title>
<path fill="none" stroke="#404040" d="M895.48,-237.31C891.78,-223.23 886.5,-209.16 879,-197 865.92,-175.8 847.06,-157.02 827.62,-141.36"/>
<polygon fill="none" stroke="#404040" points="827.54,-141.29 820.34,-140.77 818.06,-133.93 825.25,-134.45 827.54,-141.29"/>
<text text-anchor="middle" x="931.5" y="-205.5" font-family="Helvetica,sans-Serif" font-size="10.00"> &#45;detection_data_</text>
</g>
<!-- Node6 -->
<g id="node6" class="node">
<title>Node6</title>
<g id="a_node6"><a xlink:href="classdata_1_1blocks_1_1Block.html" target="_top" xlink:title=" ">
<polygon fill="none" stroke="black" points="1171.5,-485.5 1171.5,-619.5 1316.5,-619.5 1316.5,-485.5 1171.5,-485.5"/>
<text text-anchor="start" x="1179.5" y="-607.5" font-family="Helvetica,sans-Serif" font-size="10.00">data::blocks::Block</text>
<text text-anchor="start" x="1179.5" y="-596.5" font-family="Helvetica,sans-Serif" font-size="10.00">&lt; data::blocks::Calculated</text>
<text text-anchor="middle" x="1244" y="-585.5" font-family="Helvetica,sans-Serif" font-size="10.00">Data &gt;</text>
<polyline fill="none" stroke="black" points="1171.5,-578.5 1316.5,-578.5 "/>
<text text-anchor="start" x="1179.5" y="-566.5" font-family="Helvetica,sans-Serif" font-size="10.00">&#45; data_</text>
<text text-anchor="start" x="1179.5" y="-555.5" font-family="Helvetica,sans-Serif" font-size="10.00">&#45; last_updated_</text>
<text text-anchor="start" x="1179.5" y="-544.5" font-family="Helvetica,sans-Serif" font-size="10.00">&#45; mutex_</text>
<polyline fill="none" stroke="black" points="1171.5,-537.5 1316.5,-537.5 "/>
<text text-anchor="start" x="1179.5" y="-525.5" font-family="Helvetica,sans-Serif" font-size="10.00">+ get()</text>
<text text-anchor="start" x="1179.5" y="-514.5" font-family="Helvetica,sans-Serif" font-size="10.00">+ getAgeMs()</text>
<text text-anchor="start" x="1179.5" y="-503.5" font-family="Helvetica,sans-Serif" font-size="10.00">+ getAgeSec()</text>
<text text-anchor="start" x="1179.5" y="-492.5" font-family="Helvetica,sans-Serif" font-size="10.00">+ set()</text>
</a>
</g>
</g>
<!-- Node6&#45;&gt;Node5 -->
<g id="edge6" class="edge">
<title>Node6&#45;&gt;Node5</title>
<path fill="none" stroke="#404040" d="M1184.9,-485.36C1157.42,-458.56 1122.71,-429.8 1086,-412 1048.91,-394.01 1030.03,-410.95 989.04,-394.13"/>
<polygon fill="none" stroke="#404040" points="989.01,-394.12 981.89,-395.23 978.12,-389.09 985.24,-387.97 989.01,-394.12"/>
<text text-anchor="middle" x="1206" y="-437" font-family="Helvetica,sans-Serif" font-size="10.00"> &#45;calculated_data_</text>
</g>
<!-- Node7 -->
<g id="node7" class="node">
<title>Node7</title>
<g id="a_node7"><a xlink:href="classdata_1_1blocks_1_1Block.html" target="_top" xlink:title="Simple Struct Container with a mutex. The struct must have a valid default constructor.">
<polygon fill="none" stroke="black" points="1019.5,-728 1019.5,-818 1156.5,-818 1156.5,-728 1019.5,-728"/>
<text text-anchor="middle" x="1088" y="-806" font-family="Helvetica,sans-Serif" font-size="10.00">data::blocks::Block&lt; T &gt;</text>
<polyline fill="none" stroke="black" points="1019.5,-799 1156.5,-799 "/>
<text text-anchor="middle" x="1088" y="-787" font-family="Helvetica,sans-Serif" font-size="10.00"> </text>
<polyline fill="none" stroke="black" points="1019.5,-780 1156.5,-780 "/>
<text text-anchor="start" x="1027.5" y="-768" font-family="Helvetica,sans-Serif" font-size="10.00">+ get()</text>
<text text-anchor="start" x="1027.5" y="-757" font-family="Helvetica,sans-Serif" font-size="10.00">+ getAgeMs()</text>
<text text-anchor="start" x="1027.5" y="-746" font-family="Helvetica,sans-Serif" font-size="10.00">+ getAgeSec()</text>
<text text-anchor="start" x="1027.5" y="-735" font-family="Helvetica,sans-Serif" font-size="10.00">+ set()</text>
</a>
</g>
</g>
<!-- Node7&#45;&gt;Node6 -->
<g id="edge7" class="edge">
<title>Node7&#45;&gt;Node6</title>
<path fill="none" stroke="orange" d="M1164.24,-721.49C1185.11,-704.26 1205.85,-683.37 1220,-660 1227.36,-647.84 1232.47,-633.66 1236.01,-619.7"/>
<polygon fill="orange" stroke="orange" points="1161.86,-718.92 1156.25,-727.91 1166.24,-724.37 1161.86,-718.92"/>
<text text-anchor="start" x="1230" y="-652" font-family="Helvetica,sans-Serif" font-size="10.00"> &lt; data::blocks::Calculated</text>
<text text-anchor="middle" x="1296" y="-641" font-family="Helvetica,sans-Serif" font-size="10.00">Data &gt;</text>
</g>
<!-- Node11 -->
<g id="node11" class="node">
<title>Node11</title>
<g id="a_node11"><a xlink:href="classdata_1_1blocks_1_1Block.html" target="_top" xlink:title=" ">
<polygon fill="none" stroke="black" points="819.5,-491 819.5,-614 988.5,-614 988.5,-491 819.5,-491"/>
<text text-anchor="start" x="827.5" y="-602" font-family="Helvetica,sans-Serif" font-size="10.00">data::blocks::Block</text>
<text text-anchor="middle" x="904" y="-591" font-family="Helvetica,sans-Serif" font-size="10.00">&lt; data::blocks::LocationData &gt;</text>
<polyline fill="none" stroke="black" points="819.5,-584 988.5,-584 "/>
<text text-anchor="start" x="827.5" y="-572" font-family="Helvetica,sans-Serif" font-size="10.00">&#45; data_</text>
<text text-anchor="start" x="827.5" y="-561" font-family="Helvetica,sans-Serif" font-size="10.00">&#45; last_updated_</text>
<text text-anchor="start" x="827.5" y="-550" font-family="Helvetica,sans-Serif" font-size="10.00">&#45; mutex_</text>
<polyline fill="none" stroke="black" points="819.5,-543 988.5,-543 "/>
<text text-anchor="start" x="827.5" y="-531" font-family="Helvetica,sans-Serif" font-size="10.00">+ get()</text>
<text text-anchor="start" x="827.5" y="-520" font-family="Helvetica,sans-Serif" font-size="10.00">+ getAgeMs()</text>
<text text-anchor="start" x="827.5" y="-509" font-family="Helvetica,sans-Serif" font-size="10.00">+ getAgeSec()</text>
<text text-anchor="start" x="827.5" y="-498" font-family="Helvetica,sans-Serif" font-size="10.00">+ set()</text>
</a>
</g>
</g>
<!-- Node7&#45;&gt;Node11 -->
<g id="edge12" class="edge">
<title>Node7&#45;&gt;Node11</title>
<path fill="none" stroke="orange" d="M1019.33,-721.43C997.99,-703.58 975.51,-682.35 958,-660 947.13,-646.13 937.53,-629.73 929.55,-614.01"/>
<polygon fill="orange" stroke="orange" points="1017.18,-724.19 1027.12,-727.85 1021.63,-718.79 1017.18,-724.19"/>
<text text-anchor="start" x="958" y="-652" font-family="Helvetica,sans-Serif" font-size="10.00"> &lt; data::blocks::Location</text>
<text text-anchor="middle" x="1018.5" y="-641" font-family="Helvetica,sans-Serif" font-size="10.00">Data &gt;</text>
</g>
<!-- Node13 -->
<g id="node13" class="node">
<title>Node13</title>
<g id="a_node13"><a xlink:href="classdata_1_1blocks_1_1Block.html" target="_top" xlink:title=" ">
<polygon fill="none" stroke="black" points="1007,-491 1007,-614 1153,-614 1153,-491 1007,-491"/>
<text text-anchor="start" x="1015" y="-602" font-family="Helvetica,sans-Serif" font-size="10.00">data::blocks::Block</text>
<text text-anchor="middle" x="1080" y="-591" font-family="Helvetica,sans-Serif" font-size="10.00">&lt; data::blocks::ImuData &gt;</text>
<polyline fill="none" stroke="black" points="1007,-584 1153,-584 "/>
<text text-anchor="start" x="1015" y="-572" font-family="Helvetica,sans-Serif" font-size="10.00">&#45; data_</text>
<text text-anchor="start" x="1015" y="-561" font-family="Helvetica,sans-Serif" font-size="10.00">&#45; last_updated_</text>
<text text-anchor="start" x="1015" y="-550" font-family="Helvetica,sans-Serif" font-size="10.00">&#45; mutex_</text>
<polyline fill="none" stroke="black" points="1007,-543 1153,-543 "/>
<text text-anchor="start" x="1015" y="-531" font-family="Helvetica,sans-Serif" font-size="10.00">+ get()</text>
<text text-anchor="start" x="1015" y="-520" font-family="Helvetica,sans-Serif" font-size="10.00">+ getAgeMs()</text>
<text text-anchor="start" x="1015" y="-509" font-family="Helvetica,sans-Serif" font-size="10.00">+ getAgeSec()</text>
<text text-anchor="start" x="1015" y="-498" font-family="Helvetica,sans-Serif" font-size="10.00">+ set()</text>
</a>
</g>
</g>
<!-- Node7&#45;&gt;Node13 -->
<g id="edge15" class="edge">
<title>Node7&#45;&gt;Node13</title>
<path fill="none" stroke="orange" d="M1086,-717.47C1084.85,-686.09 1083.41,-646.58 1082.22,-614.21"/>
<polygon fill="orange" stroke="orange" points="1082.52,-717.92 1086.38,-727.78 1089.51,-717.66 1082.52,-717.92"/>
<text text-anchor="middle" x="1149.5" y="-646.5" font-family="Helvetica,sans-Serif" font-size="10.00"> &lt; data::blocks::ImuData &gt;</text>
</g>
<!-- Node8 -->
<g id="node8" class="node">
<title>Node8</title>
<g id="a_node8"><a xlink:title=" ">
<polygon fill="none" stroke="#bfbfbf" points="1017,-1069.5 1017,-1126.5 1083,-1126.5 1083,-1069.5 1017,-1069.5"/>
<text text-anchor="middle" x="1050" y="-1114.5" font-family="Helvetica,sans-Serif" font-size="10.00">TimePoint</text>
<polyline fill="none" stroke="#bfbfbf" points="1017,-1107.5 1083,-1107.5 "/>
<text text-anchor="middle" x="1050" y="-1095.5" font-family="Helvetica,sans-Serif" font-size="10.00"> </text>
<polyline fill="none" stroke="#bfbfbf" points="1017,-1088.5 1083,-1088.5 "/>
<text text-anchor="middle" x="1050" y="-1076.5" font-family="Helvetica,sans-Serif" font-size="10.00"> </text>
</a>
</g>
</g>
<!-- Node8&#45;&gt;Node7 -->
<g id="edge8" class="edge">
<title>Node8&#45;&gt;Node7</title>
<path fill="none" stroke="#404040" d="M1064.58,-1069.37C1067.14,-1063.45 1069.47,-1057.13 1071,-1051 1089.62,-976.47 1091.64,-887.33 1090.51,-830.69"/>
<polygon fill="none" stroke="#404040" points="1090.51,-830.41 1086.36,-824.51 1090.21,-818.41 1094.36,-824.31 1090.51,-830.41"/>
<text text-anchor="middle" x="1128" y="-966" font-family="Helvetica,sans-Serif" font-size="10.00"> &#45;last_updated_</text>
</g>
<!-- Node14 -->
<g id="node14" class="node">
<title>Node14</title>
<g id="a_node14"><a xlink:href="classdata_1_1FlightData.html" target="_top" xlink:title=" ">
<polygon fill="none" stroke="black" points="486,-678.5 486,-867.5 642,-867.5 642,-678.5 486,-678.5"/>
<text text-anchor="middle" x="564" y="-855.5" font-family="Helvetica,sans-Serif" font-size="10.00">data::FlightData</text>
<polyline fill="none" stroke="black" points="486,-848.5 642,-848.5 "/>
<text text-anchor="middle" x="564" y="-836.5" font-family="Helvetica,sans-Serif" font-size="10.00"> </text>
<polyline fill="none" stroke="black" points="486,-829.5 642,-829.5 "/>
<text text-anchor="start" x="494" y="-817.5" font-family="Helvetica,sans-Serif" font-size="10.00">+ getBitTestData()</text>
<text text-anchor="start" x="494" y="-806.5" font-family="Helvetica,sans-Serif" font-size="10.00">+ getFlightPhase()</text>
<text text-anchor="start" x="494" y="-795.5" font-family="Helvetica,sans-Serif" font-size="10.00">+ getLaunchPosition()</text>
<text text-anchor="start" x="494" y="-784.5" font-family="Helvetica,sans-Serif" font-size="10.00">+ getMissionClockSeconds()</text>
<text text-anchor="start" x="494" y="-773.5" font-family="Helvetica,sans-Serif" font-size="10.00">+ getPredictedPhase()</text>
<text text-anchor="start" x="494" y="-762.5" font-family="Helvetica,sans-Serif" font-size="10.00">+ getSystemTimeUtc()</text>
<text text-anchor="start" x="494" y="-751.5" font-family="Helvetica,sans-Serif" font-size="10.00">+ getUptimeSeconds()</text>
<text text-anchor="start" x="494" y="-740.5" font-family="Helvetica,sans-Serif" font-size="10.00">+ getUptimeString()</text>
<text text-anchor="start" x="494" y="-729.5" font-family="Helvetica,sans-Serif" font-size="10.00">+ setBitTestData()</text>
<text text-anchor="start" x="494" y="-718.5" font-family="Helvetica,sans-Serif" font-size="10.00">+ setLaunchPosition()</text>
<text text-anchor="start" x="494" y="-707.5" font-family="Helvetica,sans-Serif" font-size="10.00">+ toJson()</text>
<text text-anchor="start" x="494" y="-696.5" font-family="Helvetica,sans-Serif" font-size="10.00">&#45; setFlightPhase()</text>
<text text-anchor="start" x="494" y="-685.5" font-family="Helvetica,sans-Serif" font-size="10.00">&#45; setPhasePrediction()</text>
</a>
</g>
</g>
<!-- Node8&#45;&gt;Node14 -->
<g id="edge19" class="edge">
<title>Node8&#45;&gt;Node14</title>
<path fill="none" stroke="#404040" d="M1016.95,-1069.69C1011.87,-1064.02 1007.24,-1057.71 1004,-1051 987.95,-1017.77 1009.13,-913.92 985,-886 942.22,-836.5 764.97,-802.75 654.55,-786.07"/>
<polygon fill="none" stroke="#404040" points="654.29,-786.03 647.77,-789.11 642.42,-784.27 648.95,-781.19 654.29,-786.03"/>
<text text-anchor="middle" x="1035.5" y="-966" font-family="Helvetica,sans-Serif" font-size="10.00"> &#45;start_time_</text>
</g>
<!-- Node9 -->
<g id="node9" class="node">
<title>Node9</title>
<g id="a_node9"><a xlink:title=" ">
<polygon fill="none" stroke="#bfbfbf" points="558,-1069.5 558,-1126.5 606,-1126.5 606,-1069.5 558,-1069.5"/>
<text text-anchor="middle" x="582" y="-1114.5" font-family="Helvetica,sans-Serif" font-size="10.00">mutex</text>
<polyline fill="none" stroke="#bfbfbf" points="558,-1107.5 606,-1107.5 "/>
<text text-anchor="middle" x="582" y="-1095.5" font-family="Helvetica,sans-Serif" font-size="10.00"> </text>
<polyline fill="none" stroke="#bfbfbf" points="558,-1088.5 606,-1088.5 "/>
<text text-anchor="middle" x="582" y="-1076.5" font-family="Helvetica,sans-Serif" font-size="10.00"> </text>
</a>
</g>
</g>
<!-- Node9&#45;&gt;Node7 -->
<g id="edge9" class="edge">
<title>Node9&#45;&gt;Node7</title>
<path fill="none" stroke="#404040" d="M606.03,-1081.28C614.27,-1076.58 623.75,-1071.92 633,-1069 668.18,-1057.91 771.84,-1077 798,-1051 850.35,-998.96 772.52,-944.91 817,-886 862.15,-826.2 944.97,-798.14 1007.21,-785.09"/>
<polygon fill="none" stroke="#404040" points="1007.6,-785.02 1012.71,-779.92 1019.37,-782.68 1014.26,-787.77 1007.6,-785.02"/>
<text text-anchor="middle" x="839" y="-966" font-family="Helvetica,sans-Serif" font-size="10.00"> &#45;mutex_</text>
</g>
<!-- Node9&#45;&gt;Node14 -->
<g id="edge20" class="edge">
<title>Node9&#45;&gt;Node14</title>
<path fill="none" stroke="#404040" d="M569.97,-1069.22C567.91,-1063.31 566.09,-1057.03 565,-1051 554.9,-995.14 553.91,-931.9 555.76,-879.97"/>
<polygon fill="none" stroke="#404040" points="555.77,-879.69 552.02,-873.54 556.26,-867.7 560.01,-873.86 555.77,-879.69"/>
<text text-anchor="middle" x="625" y="-966" font-family="Helvetica,sans-Serif" font-size="10.00"> &#45;bit_test_buffer_mutex_</text>
</g>
<!-- Node10 -->
<g id="node10" class="node">
<title>Node10</title>
<g id="a_node10"><a xlink:title=" ">
<polygon fill="none" stroke="#bfbfbf" points="1177.5,-1069.5 1177.5,-1126.5 1206.5,-1126.5 1206.5,-1069.5 1177.5,-1069.5"/>
<text text-anchor="middle" x="1192" y="-1114.5" font-family="Helvetica,sans-Serif" font-size="10.00">T</text>
<polyline fill="none" stroke="#bfbfbf" points="1177.5,-1107.5 1206.5,-1107.5 "/>
<text text-anchor="middle" x="1192" y="-1095.5" font-family="Helvetica,sans-Serif" font-size="10.00"> </text>
<polyline fill="none" stroke="#bfbfbf" points="1177.5,-1088.5 1206.5,-1088.5 "/>
<text text-anchor="middle" x="1192" y="-1076.5" font-family="Helvetica,sans-Serif" font-size="10.00"> </text>
</a>
</g>
</g>
<!-- Node10&#45;&gt;Node7 -->
<g id="edge10" class="edge">
<title>Node10&#45;&gt;Node7</title>
<path fill="none" stroke="#404040" d="M1193.62,-1069.3C1195.05,-1027.92 1193.98,-948.2 1170,-886 1162.1,-865.51 1149.44,-845.42 1136.4,-828.04"/>
<polygon fill="none" stroke="#404040" points="1136.07,-827.61 1129.23,-825.33 1128.72,-818.13 1135.55,-820.42 1136.07,-827.61"/>
<text text-anchor="middle" x="1211" y="-966" font-family="Helvetica,sans-Serif" font-size="10.00"> &#45;data_</text>
</g>
<!-- Node11&#45;&gt;Node5 -->
<g id="edge11" class="edge">
<title>Node11&#45;&gt;Node5</title>
<path fill="none" stroke="#404040" d="M904,-490.98C904,-465.04 904,-434.21 904,-405.74"/>
<polygon fill="none" stroke="#404040" points="904,-405.7 900,-399.7 904,-393.7 908,-399.7 904,-405.7"/>
<text text-anchor="middle" x="943.5" y="-437" font-family="Helvetica,sans-Serif" font-size="10.00"> &#45;location_data_</text>
</g>
<!-- Node12 -->
<g id="node12" class="node">
<title>Node12</title>
<g id="a_node12"><a xlink:title=" ">
<polygon fill="none" stroke="#bfbfbf" points="678.5,-524 678.5,-581 801.5,-581 801.5,-524 678.5,-524"/>
<text text-anchor="middle" x="740" y="-569" font-family="Helvetica,sans-Serif" font-size="10.00">NUM_PARAMETERS)&gt;</text>
<polyline fill="none" stroke="#bfbfbf" points="678.5,-562 801.5,-562 "/>
<text text-anchor="middle" x="740" y="-550" font-family="Helvetica,sans-Serif" font-size="10.00"> </text>
<polyline fill="none" stroke="#bfbfbf" points="678.5,-543 801.5,-543 "/>
<text text-anchor="middle" x="740" y="-531" font-family="Helvetica,sans-Serif" font-size="10.00"> </text>
</a>
</g>
</g>
<!-- Node12&#45;&gt;Node5 -->
<g id="edge13" class="edge">
<title>Node12&#45;&gt;Node5</title>
<path fill="none" stroke="#404040" d="M757.19,-523.83C775.06,-495.39 804.13,-450.02 831,-412 833,-409.16 835.06,-406.29 837.14,-403.4"/>
<polygon fill="none" stroke="#404040" points="837.27,-403.23 837.57,-396.03 844.34,-393.54 844.04,-400.74 837.27,-403.23"/>
<text text-anchor="middle" x="865.5" y="-437" font-family="Helvetica,sans-Serif" font-size="10.00"> &#45;parameters_</text>
</g>
<!-- Node13&#45;&gt;Node5 -->
<g id="edge14" class="edge">
<title>Node13&#45;&gt;Node5</title>
<path fill="none" stroke="#404040" d="M1042.03,-490.94C1025.78,-465.99 1006.16,-437.11 987,-412 984.77,-409.08 982.48,-406.14 980.15,-403.18"/>
<polygon fill="none" stroke="#404040" points="980.07,-403.09 973.2,-400.92 972.56,-393.73 979.44,-395.91 980.07,-403.09"/>
<text text-anchor="middle" x="1053" y="-437" font-family="Helvetica,sans-Serif" font-size="10.00"> &#45;imu_data_</text>
</g>
<!-- Node14&#45;&gt;Node5 -->
<g id="edge16" class="edge">
<title>Node14&#45;&gt;Node5</title>
<path fill="none" stroke="#404040" d="M555.44,-678.33C554.82,-617.38 563.97,-539.39 606,-485 667.15,-405.86 729.31,-447.23 819.61,-394.26"/>
<polygon fill="none" stroke="#404040" points="819.69,-394.21 822.68,-387.65 829.89,-387.89 826.9,-394.45 819.69,-394.21"/>
<text text-anchor="middle" x="638" y="-550" font-family="Helvetica,sans-Serif" font-size="10.00"> &#45;flight_data_</text>
</g>
<!-- Node15 -->
<g id="node15" class="node">
<title>Node15</title>
<g id="a_node15"><a xlink:title=" ">
<polygon fill="none" stroke="#bfbfbf" points="418,-1069.5 418,-1126.5 498,-1126.5 498,-1069.5 418,-1069.5"/>
<text text-anchor="middle" x="458" y="-1114.5" font-family="Helvetica,sans-Serif" font-size="10.00">ordered_json</text>
<polyline fill="none" stroke="#bfbfbf" points="418,-1107.5 498,-1107.5 "/>
<text text-anchor="middle" x="458" y="-1095.5" font-family="Helvetica,sans-Serif" font-size="10.00"> </text>
<polyline fill="none" stroke="#bfbfbf" points="418,-1088.5 498,-1088.5 "/>
<text text-anchor="middle" x="458" y="-1076.5" font-family="Helvetica,sans-Serif" font-size="10.00"> </text>
</a>
</g>
</g>
<!-- Node15&#45;&gt;Node14 -->
<g id="edge17" class="edge">
<title>Node15&#45;&gt;Node14</title>
<path fill="none" stroke="#404040" d="M453.97,-1069.17C449.15,-1027.64 444.51,-947.71 469,-886 471.84,-878.85 475.33,-871.82 479.28,-865"/>
<polygon fill="none" stroke="#404040" points="479.5,-864.64 479.27,-857.43 485.83,-854.44 486.06,-861.65 479.5,-864.64"/>
<text text-anchor="middle" x="510.5" y="-966" font-family="Helvetica,sans-Serif" font-size="10.00"> &#45;bit_test_buffer_</text>
</g>
<!-- Node16 -->
<g id="node16" class="node">
<title>Node16</title>
<g id="a_node16"><a xlink:title=" ">
<polygon fill="none" stroke="#bfbfbf" points="642,-1069.5 642,-1126.5 772,-1126.5 772,-1069.5 642,-1069.5"/>
<text text-anchor="middle" x="707" y="-1114.5" font-family="Helvetica,sans-Serif" font-size="10.00">atomic&lt; FlightPhase &gt;</text>
<polyline fill="none" stroke="#bfbfbf" points="642,-1107.5 772,-1107.5 "/>
<text text-anchor="middle" x="707" y="-1095.5" font-family="Helvetica,sans-Serif" font-size="10.00"> </text>
<polyline fill="none" stroke="#bfbfbf" points="642,-1088.5 772,-1088.5 "/>
<text text-anchor="middle" x="707" y="-1076.5" font-family="Helvetica,sans-Serif" font-size="10.00"> </text>
</a>
</g>
</g>
<!-- Node16&#45;&gt;Node14 -->
<g id="edge18" class="edge">
<title>Node16&#45;&gt;Node14</title>
<path fill="none" stroke="#404040" d="M706.51,-1069.18C705.24,-1019.43 700.74,-917.46 685,-886 676.46,-868.93 664.16,-853.16 650.65,-839.17"/>
<polygon fill="none" stroke="#404040" points="650.61,-839.14 643.54,-837.75 642.09,-830.69 649.17,-832.07 650.61,-839.14"/>
<text text-anchor="middle" x="750" y="-971.5" font-family="Helvetica,sans-Serif" font-size="10.00"> &#45;flight_phase_</text>
<text text-anchor="middle" x="750" y="-960.5" font-family="Helvetica,sans-Serif" font-size="10.00">&#45;predicted_phase_</text>
</g>
<!-- Node17 -->
<g id="node17" class="node">
<title>Node17</title>
<g id="a_node17"><a xlink:title=" ">
<polygon fill="none" stroke="#bfbfbf" points="868,-1069.5 868,-1126.5 906,-1126.5 906,-1069.5 868,-1069.5"/>
<text text-anchor="middle" x="887" y="-1114.5" font-family="Helvetica,sans-Serif" font-size="10.00">bool</text>
<polyline fill="none" stroke="#bfbfbf" points="868,-1107.5 906,-1107.5 "/>
<text text-anchor="middle" x="887" y="-1095.5" font-family="Helvetica,sans-Serif" font-size="10.00"> </text>
<polyline fill="none" stroke="#bfbfbf" points="868,-1088.5 906,-1088.5 "/>
<text text-anchor="middle" x="887" y="-1076.5" font-family="Helvetica,sans-Serif" font-size="10.00"> </text>
</a>
</g>
</g>
<!-- Node17&#45;&gt;Node14 -->
<g id="edge21" class="edge">
<title>Node17&#45;&gt;Node14</title>
<path fill="none" stroke="#404040" d="M887.62,-1069.27C888.2,-1018.66 886.66,-913.95 865,-886 814.9,-821.35 723.38,-794.01 654.37,-782.46"/>
<polygon fill="none" stroke="#404040" points="654.05,-782.41 647.5,-785.43 642.19,-780.54 648.74,-777.52 654.05,-782.41"/>
<text text-anchor="middle" x="935.5" y="-966" font-family="Helvetica,sans-Serif" font-size="10.00"> +K_IN_SIMULATOR</text>
</g>
<!-- Node18 -->
<g id="node18" class="node">
<title>Node18</title>
<g id="a_node18"><a xlink:title=" ">
<polygon fill="none" stroke="#bfbfbf" points="0,-1069.5 0,-1126.5 106,-1126.5 106,-1069.5 0,-1069.5"/>
<text text-anchor="middle" x="53" y="-1114.5" font-family="Helvetica,sans-Serif" font-size="10.00">atomic&lt; double &gt;</text>
<polyline fill="none" stroke="#bfbfbf" points="0,-1107.5 106,-1107.5 "/>
<text text-anchor="middle" x="53" y="-1095.5" font-family="Helvetica,sans-Serif" font-size="10.00"> </text>
<polyline fill="none" stroke="#bfbfbf" points="0,-1088.5 106,-1088.5 "/>
<text text-anchor="middle" x="53" y="-1076.5" font-family="Helvetica,sans-Serif" font-size="10.00"> </text>
</a>
</g>
</g>
<!-- Node18&#45;&gt;Node14 -->
<g id="edge22" class="edge">
<title>Node18&#45;&gt;Node14</title>
<path fill="none" stroke="#404040" d="M42.82,-1069.49C28.47,-1025.47 8.49,-938.79 51,-886 103.08,-821.32 340.85,-791.98 473.64,-780.43"/>
<polygon fill="none" stroke="#404040" points="473.8,-780.42 479.44,-775.93 485.76,-779.4 480.12,-783.9 473.8,-780.42"/>
<text text-anchor="start" x="51" y="-1043" font-family="Helvetica,sans-Serif" font-size="10.00"> &#45;ascent_prediction</text>
<text text-anchor="middle" x="104" y="-1032" font-family="Helvetica,sans-Serif" font-size="10.00">_</text>
<text text-anchor="start" x="51" y="-1021" font-family="Helvetica,sans-Serif" font-size="10.00">&#45;descent_prediction</text>
<text text-anchor="middle" x="104" y="-1010" font-family="Helvetica,sans-Serif" font-size="10.00">_</text>
<text text-anchor="start" x="51" y="-999" font-family="Helvetica,sans-Serif" font-size="10.00">&#45;launch_altitude</text>
<text text-anchor="middle" x="104" y="-988" font-family="Helvetica,sans-Serif" font-size="10.00">_</text>
<text text-anchor="start" x="51" y="-977" font-family="Helvetica,sans-Serif" font-size="10.00">&#45;launch_position</text>
<text text-anchor="middle" x="104" y="-966" font-family="Helvetica,sans-Serif" font-size="10.00">_latitude_</text>
<text text-anchor="start" x="51" y="-955" font-family="Helvetica,sans-Serif" font-size="10.00">&#45;launch_position</text>
<text text-anchor="middle" x="104" y="-944" font-family="Helvetica,sans-Serif" font-size="10.00">_longitude_</text>
<text text-anchor="start" x="51" y="-933" font-family="Helvetica,sans-Serif" font-size="10.00">&#45;launch_prediction</text>
<text text-anchor="middle" x="104" y="-922" font-family="Helvetica,sans-Serif" font-size="10.00">_</text>
<text text-anchor="start" x="51" y="-911" font-family="Helvetica,sans-Serif" font-size="10.00">&#45;prediction_quality</text>
<text text-anchor="middle" x="104" y="-900" font-family="Helvetica,sans-Serif" font-size="10.00">_</text>
<text text-anchor="middle" x="104" y="-889" font-family="Helvetica,sans-Serif" font-size="10.00">&#45;recovery_prediction_</text>
</g>
<!-- Node19 -->
<g id="node19" class="node">
<title>Node19</title>
<g id="a_node19"><a xlink:title=" ">
<polygon fill="none" stroke="#bfbfbf" points="135,-1069.5 135,-1126.5 229,-1126.5 229,-1069.5 135,-1069.5"/>
<text text-anchor="middle" x="182" y="-1114.5" font-family="Helvetica,sans-Serif" font-size="10.00">atomic&lt; bool &gt;</text>
<polyline fill="none" stroke="#bfbfbf" points="135,-1107.5 229,-1107.5 "/>
<text text-anchor="middle" x="182" y="-1095.5" font-family="Helvetica,sans-Serif" font-size="10.00"> </text>
<polyline fill="none" stroke="#bfbfbf" points="135,-1088.5 229,-1088.5 "/>
<text text-anchor="middle" x="182" y="-1076.5" font-family="Helvetica,sans-Serif" font-size="10.00"> </text>
</a>
</g>
</g>
<!-- Node19&#45;&gt;Node14 -->
<g id="edge23" class="edge">
<title>Node19&#45;&gt;Node14</title>
<path fill="none" stroke="#404040" d="M173.34,-1069.38C161.46,-1025.59 145.93,-939.7 187,-886 221.92,-840.33 374.04,-806.28 474.05,-788.32"/>
<polygon fill="none" stroke="#404040" points="474.17,-788.31 479.38,-783.32 485.98,-786.21 480.77,-791.2 474.17,-788.31"/>
<text text-anchor="middle" x="246" y="-966" font-family="Helvetica,sans-Serif" font-size="10.00"> &#45;have_launch_position_</text>
</g>
<!-- Node20 -->
<g id="node20" class="node">
<title>Node20</title>
<g id="a_node20"><a xlink:title=" ">
<polygon fill="none" stroke="#bfbfbf" points="300.5,-1069.5 300.5,-1126.5 345.5,-1126.5 345.5,-1069.5 300.5,-1069.5"/>
<text text-anchor="middle" x="323" y="-1114.5" font-family="Helvetica,sans-Serif" font-size="10.00">friend</text>
<polyline fill="none" stroke="#bfbfbf" points="300.5,-1107.5 345.5,-1107.5 "/>
<text text-anchor="middle" x="323" y="-1095.5" font-family="Helvetica,sans-Serif" font-size="10.00"> </text>
<polyline fill="none" stroke="#bfbfbf" points="300.5,-1088.5 345.5,-1088.5 "/>
<text text-anchor="middle" x="323" y="-1076.5" font-family="Helvetica,sans-Serif" font-size="10.00"> </text>
</a>
</g>
</g>
<!-- Node20&#45;&gt;Node14 -->
<g id="edge24" class="edge">
<title>Node20&#45;&gt;Node14</title>
<path fill="none" stroke="#404040" d="M316.38,-1069.31C307.73,-1026.18 297.74,-942.08 335,-886 366.57,-838.48 424.42,-810.41 474.07,-794.26"/>
<polygon fill="none" stroke="#404040" points="474.38,-794.17 478.92,-788.57 485.83,-790.61 481.29,-796.21 474.38,-794.17"/>
<text text-anchor="middle" x="391" y="-966" font-family="Helvetica,sans-Serif" font-size="10.00"> +FlightPhaseManager</text>
</g>
<!-- Node21 -->
<g id="node21" class="node">
<title>Node21</title>
<g id="a_node21"><a xlink:title=" ">
<polygon fill="none" stroke="#bfbfbf" points="996,-287 996,-344 1070,-344 1070,-287 996,-287"/>
<text text-anchor="middle" x="1033" y="-332" font-family="Helvetica,sans-Serif" font-size="10.00">FlightPhase</text>
<polyline fill="none" stroke="#bfbfbf" points="996,-325 1070,-325 "/>
<text text-anchor="middle" x="1033" y="-313" font-family="Helvetica,sans-Serif" font-size="10.00"> </text>
<polyline fill="none" stroke="#bfbfbf" points="996,-306 1070,-306 "/>
<text text-anchor="middle" x="1033" y="-294" font-family="Helvetica,sans-Serif" font-size="10.00"> </text>
</a>
</g>
</g>
<!-- Node21&#45;&gt;Node1 -->
<g id="edge25" class="edge">
<title>Node21&#45;&gt;Node1</title>
<path fill="none" stroke="#404040" d="M1025.95,-286.55C1018.1,-260.46 1003.1,-221.91 978,-197 937.09,-156.39 877.86,-129.55 829.48,-112.98"/>
<polygon fill="none" stroke="#404040" points="829.46,-112.97 822.51,-114.87 818.07,-109.19 825.03,-107.28 829.46,-112.97"/>
<text text-anchor="middle" x="1041.5" y="-205.5" font-family="Helvetica,sans-Serif" font-size="10.00"> &#45;predicted_phase_</text>
</g>
</g>
</svg>
