<?xml version="1.0" encoding="UTF-8" standalone="no"?>
<!DOCTYPE svg PUBLIC "-//W3C//DTD SVG 1.1//EN"
 "http://www.w3.org/Graphics/SVG/1.1/DTD/svg11.dtd">
<!-- Generated by graphviz version 2.43.0 (0)
 -->
<!-- Title: gdl::TransportLayer Pages: 1 -->
<svg width="158pt" height="502pt"
 viewBox="0.00 0.00 158.00 502.00" xmlns="http://www.w3.org/2000/svg" xmlns:xlink="http://www.w3.org/1999/xlink">
<g id="graph0" class="graph" transform="scale(1 1) rotate(0) translate(4 498)">
<title>gdl::TransportLayer</title>
<!-- Node1 -->
<g id="node1" class="node">
<title>Node1</title>
<g id="a_node1"><a xlink:title=" ">
<polygon fill="#bfbfbf" stroke="black" points="4,-0.5 4,-90.5 120,-90.5 120,-0.5 4,-0.5"/>
<text text-anchor="middle" x="62" y="-78.5" font-family="Helvetica,sans-Serif" font-size="10.00">gdl::TransportLayer</text>
<polyline fill="none" stroke="black" points="4,-71.5 120,-71.5 "/>
<text text-anchor="middle" x="62" y="-59.5" font-family="Helvetica,sans-Serif" font-size="10.00"> </text>
<polyline fill="none" stroke="black" points="4,-52.5 120,-52.5 "/>
<text text-anchor="start" x="12" y="-40.5" font-family="Helvetica,sans-Serif" font-size="10.00">+ TransportLayer()</text>
<text text-anchor="start" x="12" y="-29.5" font-family="Helvetica,sans-Serif" font-size="10.00">+ ~TransportLayer()</text>
<text text-anchor="start" x="12" y="-18.5" font-family="Helvetica,sans-Serif" font-size="10.00">+ receive()</text>
<text text-anchor="start" x="12" y="-7.5" font-family="Helvetica,sans-Serif" font-size="10.00">+ send()</text>
</a>
</g>
</g>
<!-- Node2 -->
<g id="node2" class="node">
<title>Node2</title>
<g id="a_node2"><a xlink:href="classgdl_1_1NetworkLayer.html" target="_top" xlink:title=" ">
<polygon fill="none" stroke="black" points="9,-138.5 9,-217.5 115,-217.5 115,-138.5 9,-138.5"/>
<text text-anchor="middle" x="62" y="-205.5" font-family="Helvetica,sans-Serif" font-size="10.00">gdl::NetworkLayer</text>
<polyline fill="none" stroke="black" points="9,-198.5 115,-198.5 "/>
<text text-anchor="middle" x="62" y="-186.5" font-family="Helvetica,sans-Serif" font-size="10.00"> </text>
<polyline fill="none" stroke="black" points="9,-179.5 115,-179.5 "/>
<text text-anchor="start" x="17" y="-167.5" font-family="Helvetica,sans-Serif" font-size="10.00">+ NetworkLayer()</text>
<text text-anchor="start" x="17" y="-156.5" font-family="Helvetica,sans-Serif" font-size="10.00">+ rxMessage()</text>
<text text-anchor="start" x="17" y="-145.5" font-family="Helvetica,sans-Serif" font-size="10.00">+ txMessage()</text>
</a>
</g>
</g>
<!-- Node2&#45;&gt;Node1 -->
<g id="edge1" class="edge">
<title>Node2&#45;&gt;Node1</title>
<path fill="none" stroke="#404040" d="M62,-138.2C62,-127.16 62,-114.9 62,-103.04"/>
<polygon fill="none" stroke="#404040" points="62,-102.88 58,-96.88 62,-90.88 66,-96.88 62,-102.88"/>
<text text-anchor="middle" x="103" y="-112" font-family="Helvetica,sans-Serif" font-size="10.00"> &#45;network_layer_</text>
</g>
<!-- Node3 -->
<g id="node3" class="node">
<title>Node3</title>
<g id="a_node3"><a xlink:href="classgdl_1_1PhysicalLayer.html" target="_top" xlink:title=" ">
<polygon fill="none" stroke="black" points="0,-265.5 0,-388.5 124,-388.5 124,-265.5 0,-265.5"/>
<text text-anchor="middle" x="62" y="-376.5" font-family="Helvetica,sans-Serif" font-size="10.00">gdl::PhysicalLayer</text>
<polyline fill="none" stroke="black" points="0,-369.5 124,-369.5 "/>
<text text-anchor="middle" x="62" y="-357.5" font-family="Helvetica,sans-Serif" font-size="10.00"> </text>
<polyline fill="none" stroke="black" points="0,-350.5 124,-350.5 "/>
<text text-anchor="start" x="8" y="-338.5" font-family="Helvetica,sans-Serif" font-size="10.00">+ ~PhysicalLayer()</text>
<text text-anchor="start" x="8" y="-327.5" font-family="Helvetica,sans-Serif" font-size="10.00">+ disable()</text>
<text text-anchor="start" x="8" y="-316.5" font-family="Helvetica,sans-Serif" font-size="10.00">+ enable()</text>
<text text-anchor="start" x="8" y="-305.5" font-family="Helvetica,sans-Serif" font-size="10.00">+ getBytesAvailable()</text>
<text text-anchor="start" x="8" y="-294.5" font-family="Helvetica,sans-Serif" font-size="10.00">+ getState()</text>
<text text-anchor="start" x="8" y="-283.5" font-family="Helvetica,sans-Serif" font-size="10.00">+ receiveBytes()</text>
<text text-anchor="start" x="8" y="-272.5" font-family="Helvetica,sans-Serif" font-size="10.00">+ transmitBytes()</text>
</a>
</g>
</g>
<!-- Node3&#45;&gt;Node2 -->
<g id="edge2" class="edge">
<title>Node3&#45;&gt;Node2</title>
<path fill="none" stroke="#404040" d="M62,-265.36C62,-253.51 62,-241.2 62,-229.72"/>
<polygon fill="none" stroke="#404040" points="62,-229.64 58,-223.64 62,-217.64 66,-223.64 62,-229.64"/>
<text text-anchor="middle" x="106" y="-239" font-family="Helvetica,sans-Serif" font-size="10.00"> #physical_layer_</text>
</g>
<!-- Node4 -->
<g id="node4" class="node">
<title>Node4</title>
<g id="a_node4"><a xlink:title=" ">
<polygon fill="none" stroke="#bfbfbf" points="41,-436.5 41,-493.5 83,-493.5 83,-436.5 41,-436.5"/>
<text text-anchor="middle" x="62" y="-481.5" font-family="Helvetica,sans-Serif" font-size="10.00">State</text>
<polyline fill="none" stroke="#bfbfbf" points="41,-474.5 83,-474.5 "/>
<text text-anchor="middle" x="62" y="-462.5" font-family="Helvetica,sans-Serif" font-size="10.00"> </text>
<polyline fill="none" stroke="#bfbfbf" points="41,-455.5 83,-455.5 "/>
<text text-anchor="middle" x="62" y="-443.5" font-family="Helvetica,sans-Serif" font-size="10.00"> </text>
</a>
</g>
</g>
<!-- Node4&#45;&gt;Node3 -->
<g id="edge3" class="edge">
<title>Node4&#45;&gt;Node3</title>
<path fill="none" stroke="#404040" d="M62,-436.48C62,-426.01 62,-413.53 62,-400.82"/>
<polygon fill="none" stroke="#404040" points="62,-400.62 58,-394.62 62,-388.62 66,-394.62 62,-400.62"/>
<text text-anchor="middle" x="83" y="-410" font-family="Helvetica,sans-Serif" font-size="10.00"> #state_</text>
</g>
</g>
</svg>
