<?xml version="1.0" encoding="UTF-8" standalone="no"?>
<!DOCTYPE svg PUBLIC "-//W3C//DTD SVG 1.1//EN"
 "http://www.w3.org/Graphics/SVG/1.1/DTD/svg11.dtd">
<!-- Generated by graphviz version 2.43.0 (0)
 -->
<!-- Title: FlightRunner::detectFlightPhase Pages: 1 -->
<svg width="1102pt" height="423pt"
 viewBox="0.00 0.00 1102.00 422.50" xmlns="http://www.w3.org/2000/svg" xmlns:xlink="http://www.w3.org/1999/xlink">
<g id="graph0" class="graph" transform="scale(1 1) rotate(0) translate(4 418.5)">
<title>FlightRunner::detectFlightPhase</title>
<!-- Node1 -->
<g id="node1" class="node">
<title>Node1</title>
<g id="a_node1"><a xlink:title="Detects the current flight phase and sets it in the shared data. flight_phase.hpp.">
<polygon fill="#bfbfbf" stroke="black" points="0,-283 0,-313 143,-313 143,-283 0,-283"/>
<text text-anchor="start" x="8" y="-301" font-family="Helvetica,sans-Serif" font-size="10.00">FlightRunner::detectFlight</text>
<text text-anchor="middle" x="71.5" y="-290" font-family="Helvetica,sans-Serif" font-size="10.00">Phase</text>
</a>
</g>
</g>
<!-- Node2 -->
<g id="node2" class="node">
<title>Node2</title>
<g id="a_node2"><a xlink:href="classgiraffe_1_1FlightRunnerData.html#a6adac9db38e843c2805cad0d212956ef" target="_top" xlink:title=" ">
<polygon fill="none" stroke="black" points="187.5,-384 187.5,-414 327.5,-414 327.5,-384 187.5,-384"/>
<text text-anchor="start" x="195.5" y="-402" font-family="Helvetica,sans-Serif" font-size="10.00">giraffe::FlightRunnerData</text>
<text text-anchor="middle" x="257.5" y="-391" font-family="Helvetica,sans-Serif" font-size="10.00">::getFlightPhase</text>
</a>
</g>
</g>
<!-- Node1&#45;&gt;Node2 -->
<g id="edge1" class="edge">
<title>Node1&#45;&gt;Node2</title>
<path fill="none" stroke="midnightblue" d="M92.49,-313.27C113.31,-328.69 147.24,-352.52 179,-369 186.72,-373.01 195.11,-376.79 203.41,-380.24"/>
<polygon fill="midnightblue" stroke="midnightblue" points="202.14,-383.49 212.72,-383.97 204.74,-377 202.14,-383.49"/>
</g>
<!-- Node3 -->
<g id="node3" class="node">
<title>Node3</title>
<g id="a_node3"><a xlink:href="classdata_1_1FlightData.html#a66c0ae403e8e6959292ee73dbd2ea34d" target="_top" xlink:title="Get the current flight phase.">
<polygon fill="none" stroke="black" points="386,-258 386,-288 531,-288 531,-258 386,-258"/>
<text text-anchor="start" x="394" y="-276" font-family="Helvetica,sans-Serif" font-size="10.00">data::FlightData::getFlight</text>
<text text-anchor="middle" x="458.5" y="-265" font-family="Helvetica,sans-Serif" font-size="10.00">Phase</text>
</a>
</g>
</g>
<!-- Node1&#45;&gt;Node3 -->
<g id="edge2" class="edge">
<title>Node1&#45;&gt;Node3</title>
<path fill="none" stroke="midnightblue" d="M143.11,-293.41C208.67,-289.16 306.27,-282.82 375.3,-278.34"/>
<polygon fill="midnightblue" stroke="midnightblue" points="375.95,-281.8 385.7,-277.66 375.5,-274.82 375.95,-281.8"/>
</g>
<!-- Node4 -->
<g id="node4" class="node">
<title>Node4</title>
<g id="a_node4"><a xlink:href="classdata_1_1LogStream.html#a02c18d6e5c9697b4943ba9fb630ca0c9" target="_top" xlink:title=" ">
<polygon fill="none" stroke="black" points="782,-238.5 782,-257.5 904,-257.5 904,-238.5 782,-238.5"/>
<text text-anchor="middle" x="843" y="-245.5" font-family="Helvetica,sans-Serif" font-size="10.00">data::LogStream::info</text>
</a>
</g>
</g>
<!-- Node1&#45;&gt;Node4 -->
<g id="edge3" class="edge">
<title>Node1&#45;&gt;Node4</title>
<path fill="none" stroke="midnightblue" d="M120.62,-313.07C231.97,-345.36 514.48,-412.3 732,-336 771.93,-321.99 808.14,-286.72 827.41,-265.32"/>
<polygon fill="midnightblue" stroke="midnightblue" points="830.2,-267.45 834.16,-257.62 824.94,-262.84 830.2,-267.45"/>
</g>
<!-- Node7 -->
<g id="node7" class="node">
<title>Node7</title>
<g id="a_node7"><a xlink:href="classFlightRunner.html#a9a583807049320acfbeebaf634430f88" target="_top" xlink:title="This method defines the transitions of the flight phase state machine.">
<polygon fill="none" stroke="black" points="179,-170.5 179,-189.5 336,-189.5 336,-170.5 179,-170.5"/>
<text text-anchor="middle" x="257.5" y="-177.5" font-family="Helvetica,sans-Serif" font-size="10.00">FlightRunner::setFlightPhase</text>
</a>
</g>
</g>
<!-- Node1&#45;&gt;Node7 -->
<g id="edge6" class="edge">
<title>Node1&#45;&gt;Node7</title>
<path fill="none" stroke="midnightblue" d="M96.18,-282.82C131.46,-260.19 197.46,-217.86 232.77,-195.22"/>
<polygon fill="midnightblue" stroke="midnightblue" points="234.93,-197.99 241.46,-189.65 231.15,-192.1 234.93,-197.99"/>
</g>
<!-- Node18 -->
<g id="node18" class="node">
<title>Node18</title>
<g id="a_node18"><a xlink:href="namespaceutil.html#a8e9635f6a41c035d331ddaeb62259ba6" target="_top" xlink:title="Converts a flight phase to a string.">
<polygon fill="none" stroke="black" points="616,-307.5 616,-326.5 697,-326.5 697,-307.5 616,-307.5"/>
<text text-anchor="middle" x="656.5" y="-314.5" font-family="Helvetica,sans-Serif" font-size="10.00">util::to_string</text>
</a>
</g>
</g>
<!-- Node1&#45;&gt;Node18 -->
<g id="edge27" class="edge">
<title>Node1&#45;&gt;Node18</title>
<path fill="none" stroke="midnightblue" d="M143.11,-300.3C262.69,-304.2 502.14,-312 605.79,-315.38"/>
<polygon fill="midnightblue" stroke="midnightblue" points="605.87,-318.88 615.98,-315.71 606.09,-311.89 605.87,-318.88"/>
</g>
<!-- Node19 -->
<g id="node19" class="node">
<title>Node19</title>
<g id="a_node19"><a xlink:href="classdata_1_1FlightData.html#a91bd9a19e444354fd8a26477ce88dbf8" target="_top" xlink:title=" ">
<polygon fill="none" stroke="black" points="184.5,-121 184.5,-151 330.5,-151 330.5,-121 184.5,-121"/>
<text text-anchor="start" x="192.5" y="-139" font-family="Helvetica,sans-Serif" font-size="10.00">data::FlightData::setPhase</text>
<text text-anchor="middle" x="257.5" y="-128" font-family="Helvetica,sans-Serif" font-size="10.00">Prediction</text>
</a>
</g>
</g>
<!-- Node1&#45;&gt;Node19 -->
<g id="edge26" class="edge">
<title>Node1&#45;&gt;Node19</title>
<path fill="none" stroke="midnightblue" d="M80.26,-282.82C95.41,-254.65 131.62,-194.18 179,-161 181.72,-159.09 184.6,-157.33 187.57,-155.69"/>
<polygon fill="midnightblue" stroke="midnightblue" points="189.34,-158.72 196.76,-151.16 186.24,-152.44 189.34,-158.72"/>
</g>
<!-- Node5 -->
<g id="node5" class="node">
<title>Node5</title>
<g id="a_node5"><a xlink:href="classdata_1_1Stream.html#a1ff9a93190dbecdc2ffa27deaaa4266a" target="_top" xlink:title=" ">
<polygon fill="none" stroke="black" points="954,-133 954,-163 1094,-163 1094,-133 954,-133"/>
<text text-anchor="start" x="962" y="-151" font-family="Helvetica,sans-Serif" font-size="10.00">data::Stream&lt; LogPacket</text>
<text text-anchor="middle" x="1024" y="-140" font-family="Helvetica,sans-Serif" font-size="10.00"> &gt;::addPacket</text>
</a>
</g>
</g>
<!-- Node4&#45;&gt;Node5 -->
<g id="edge4" class="edge">
<title>Node4&#45;&gt;Node5</title>
<path fill="none" stroke="midnightblue" d="M860.74,-238.5C882.28,-226.28 920.87,-204.46 954,-186 964.53,-180.13 976,-173.8 986.5,-168.01"/>
<polygon fill="midnightblue" stroke="midnightblue" points="988.36,-170.99 995.43,-163.1 984.98,-164.85 988.36,-170.99"/>
</g>
<!-- Node6 -->
<g id="node6" class="node">
<title>Node6</title>
<g id="a_node6"><a xlink:href="structdata_1_1BaseStreamPacket.html#a140b2f54f93715d9229e1847bc1219b2" target="_top" xlink:title=" ">
<polygon fill="none" stroke="black" points="956.5,-195 956.5,-225 1091.5,-225 1091.5,-195 956.5,-195"/>
<text text-anchor="start" x="964.5" y="-213" font-family="Helvetica,sans-Serif" font-size="10.00">data::BaseStreamPacket</text>
<text text-anchor="middle" x="1024" y="-202" font-family="Helvetica,sans-Serif" font-size="10.00">::resetTime</text>
</a>
</g>
</g>
<!-- Node4&#45;&gt;Node6 -->
<g id="edge5" class="edge">
<title>Node4&#45;&gt;Node6</title>
<path fill="none" stroke="midnightblue" d="M889.17,-238.41C906.53,-234.72 926.88,-230.41 946.39,-226.26"/>
<polygon fill="midnightblue" stroke="midnightblue" points="947.13,-229.68 956.19,-224.18 945.68,-222.84 947.13,-229.68"/>
</g>
<!-- Node7&#45;&gt;Node3 -->
<g id="edge13" class="edge">
<title>Node7&#45;&gt;Node3</title>
<path fill="none" stroke="midnightblue" d="M271.48,-189.53C291.93,-204.15 333.3,-232.18 372,-249 376.65,-251.02 381.52,-252.92 386.48,-254.69"/>
<polygon fill="midnightblue" stroke="midnightblue" points="385.48,-258.05 396.07,-257.95 387.73,-251.42 385.48,-258.05"/>
</g>
<!-- Node8 -->
<g id="node8" class="node">
<title>Node8</title>
<g id="a_node8"><a xlink:href="classdata_1_1DataStream.html#a0eef16fa96084fe72dcc3f3ef8cf0bac" target="_top" xlink:title=" ">
<polygon fill="none" stroke="black" points="768,-124.5 768,-143.5 918,-143.5 918,-124.5 768,-124.5"/>
<text text-anchor="middle" x="843" y="-131.5" font-family="Helvetica,sans-Serif" font-size="10.00">data::DataStream::addData</text>
</a>
</g>
</g>
<!-- Node7&#45;&gt;Node8 -->
<g id="edge7" class="edge">
<title>Node7&#45;&gt;Node8</title>
<path fill="none" stroke="midnightblue" d="M311.73,-170.4C320.16,-167.73 328.55,-164.32 336,-160 355.84,-148.48 351.13,-132.53 372,-123 517.91,-56.4 716.76,-98.53 801.29,-121.7"/>
<polygon fill="midnightblue" stroke="midnightblue" points="800.45,-125.1 811.03,-124.43 802.34,-118.36 800.45,-125.1"/>
</g>
<!-- Node9 -->
<g id="node9" class="node">
<title>Node9</title>
<g id="a_node9"><a xlink:href="classFlightRunner.html#acc2f1a518af2fac43a9320db2854521a" target="_top" xlink:title=" ">
<polygon fill="none" stroke="black" points="376,-0.5 376,-19.5 541,-19.5 541,-0.5 376,-0.5"/>
<text text-anchor="middle" x="458.5" y="-7.5" font-family="Helvetica,sans-Serif" font-size="10.00">FlightRunner::fl_reportDescent</text>
</a>
</g>
</g>
<!-- Node7&#45;&gt;Node9 -->
<g id="edge10" class="edge">
<title>Node7&#45;&gt;Node9</title>
<path fill="none" stroke="midnightblue" d="M320.95,-170.39C326.49,-167.7 331.64,-164.29 336,-160 379.03,-117.64 328.26,-70.63 372,-29 373.49,-27.58 375.05,-26.27 376.69,-25.04"/>
<polygon fill="midnightblue" stroke="midnightblue" points="378.75,-27.88 385.38,-19.62 375.05,-21.94 378.75,-27.88"/>
</g>
<!-- Node11 -->
<g id="node11" class="node">
<title>Node11</title>
<g id="a_node11"><a xlink:href="classgiraffe_1_1FlightRunnerData.html#ac2b08f44adf4ed3ab384cd8e5c947578" target="_top" xlink:title=" ">
<polygon fill="none" stroke="black" points="388.5,-39 388.5,-69 528.5,-69 528.5,-39 388.5,-39"/>
<text text-anchor="start" x="396.5" y="-57" font-family="Helvetica,sans-Serif" font-size="10.00">giraffe::FlightRunnerData</text>
<text text-anchor="middle" x="458.5" y="-46" font-family="Helvetica,sans-Serif" font-size="10.00">::setFlightPhase</text>
</a>
</g>
</g>
<!-- Node7&#45;&gt;Node11 -->
<g id="edge14" class="edge">
<title>Node7&#45;&gt;Node11</title>
<path fill="none" stroke="midnightblue" d="M318.27,-170.42C324.67,-167.75 330.75,-164.34 336,-160 364.81,-136.19 344.22,-109.01 372,-84 376.34,-80.09 381.23,-76.68 386.4,-73.71"/>
<polygon fill="midnightblue" stroke="midnightblue" points="388.05,-76.8 395.35,-69.12 384.85,-70.58 388.05,-76.8"/>
</g>
<!-- Node12 -->
<g id="node12" class="node">
<title>Node12</title>
<g id="a_node12"><a xlink:href="classgiraffe_1_1StatusLedState.html#a33c2fe6fdb8008af2710221ef5640c30" target="_top" xlink:title=" ">
<polygon fill="none" stroke="black" points="394.5,-209 394.5,-239 522.5,-239 522.5,-209 394.5,-209"/>
<text text-anchor="start" x="402.5" y="-227" font-family="Helvetica,sans-Serif" font-size="10.00">giraffe::StatusLedState</text>
<text text-anchor="middle" x="458.5" y="-216" font-family="Helvetica,sans-Serif" font-size="10.00">::setGreen</text>
</a>
</g>
</g>
<!-- Node7&#45;&gt;Node12 -->
<g id="edge15" class="edge">
<title>Node7&#45;&gt;Node12</title>
<path fill="none" stroke="midnightblue" d="M301.68,-189.55C325.81,-194.88 356.53,-201.67 384.3,-207.81"/>
<polygon fill="midnightblue" stroke="midnightblue" points="383.86,-211.3 394.38,-210.04 385.37,-204.47 383.86,-211.3"/>
</g>
<!-- Node13 -->
<g id="node13" class="node">
<title>Node13</title>
<g id="a_node13"><a xlink:href="classFlightRunner.html#aa9506cddd9057a4fc3f1b43a15f4d8f9" target="_top" xlink:title="Called when transitioning from pre&#45;launch to launch phase. Sets the launch position in shared data an...">
<polygon fill="none" stroke="black" points="372,-132.5 372,-151.5 545,-151.5 545,-132.5 372,-132.5"/>
<text text-anchor="middle" x="458.5" y="-139.5" font-family="Helvetica,sans-Serif" font-size="10.00">FlightRunner::setLaunchPosition</text>
</a>
</g>
</g>
<!-- Node7&#45;&gt;Node13 -->
<g id="edge16" class="edge">
<title>Node7&#45;&gt;Node13</title>
<path fill="none" stroke="midnightblue" d="M308.46,-170.46C335.55,-165.29 369.21,-158.86 397.68,-153.42"/>
<polygon fill="midnightblue" stroke="midnightblue" points="398.35,-156.86 407.52,-151.54 397.04,-149.98 398.35,-156.86"/>
</g>
<!-- Node7&#45;&gt;Node18 -->
<g id="edge25" class="edge">
<title>Node7&#45;&gt;Node18</title>
<path fill="none" stroke="midnightblue" d="M336.04,-176.21C409.49,-174.23 513.16,-176.08 545,-200 582.1,-227.87 546.55,-266.91 581,-298 587.99,-304.31 596.77,-308.58 605.84,-311.46"/>
<polygon fill="midnightblue" stroke="midnightblue" points="605.16,-314.9 615.72,-314.07 606.95,-308.13 605.16,-314.9"/>
</g>
<!-- Node8&#45;&gt;Node5 -->
<g id="edge8" class="edge">
<title>Node8&#45;&gt;Node5</title>
<path fill="none" stroke="midnightblue" d="M918.1,-139.8C926.6,-140.46 935.3,-141.14 943.86,-141.81"/>
<polygon fill="midnightblue" stroke="midnightblue" points="943.6,-145.3 953.84,-142.59 944.14,-138.32 943.6,-145.3"/>
</g>
<!-- Node8&#45;&gt;Node6 -->
<g id="edge9" class="edge">
<title>Node8&#45;&gt;Node6</title>
<path fill="none" stroke="midnightblue" d="M866.67,-143.63C894.53,-155.45 942.47,-175.81 977.93,-190.86"/>
<polygon fill="midnightblue" stroke="midnightblue" points="977,-194.27 987.58,-194.96 979.74,-187.83 977,-194.27"/>
</g>
<!-- Node10 -->
<g id="node10" class="node">
<title>Node10</title>
<g id="a_node10"><a xlink:href="classdata_1_1CommandStream.html#aeacbc84ac96a098ef5836fcbd5187be8" target="_top" xlink:title=" ">
<polygon fill="none" stroke="black" points="778,-67 778,-97 908,-97 908,-67 778,-67"/>
<text text-anchor="start" x="786" y="-85" font-family="Helvetica,sans-Serif" font-size="10.00">data::CommandStream</text>
<text text-anchor="middle" x="843" y="-74" font-family="Helvetica,sans-Serif" font-size="10.00">::addCommand</text>
</a>
</g>
</g>
<!-- Node9&#45;&gt;Node10 -->
<g id="edge11" class="edge">
<title>Node9&#45;&gt;Node10</title>
<path fill="none" stroke="midnightblue" d="M510.29,-19.56C576.32,-31.99 692.13,-53.79 767.95,-68.06"/>
<polygon fill="midnightblue" stroke="midnightblue" points="767.43,-71.53 777.91,-69.94 768.73,-64.65 767.43,-71.53"/>
</g>
<!-- Node10&#45;&gt;Node5 -->
<g id="edge12" class="edge">
<title>Node10&#45;&gt;Node5</title>
<path fill="none" stroke="midnightblue" d="M885.07,-97.14C911.1,-106.74 944.97,-119.23 972.62,-129.43"/>
<polygon fill="midnightblue" stroke="midnightblue" points="971.53,-132.75 982.12,-132.93 973.95,-126.19 971.53,-132.75"/>
</g>
<!-- Node14 -->
<g id="node14" class="node">
<title>Node14</title>
<g id="a_node14"><a xlink:href="classgiraffe_1_1FlightRunnerData.html#ad522ef22add361da8fd8dda6dda7930a" target="_top" xlink:title="Clears the launch position/set it to invalid.">
<polygon fill="none" stroke="black" points="586.5,-258 586.5,-288 726.5,-288 726.5,-258 586.5,-258"/>
<text text-anchor="start" x="594.5" y="-276" font-family="Helvetica,sans-Serif" font-size="10.00">giraffe::FlightRunnerData</text>
<text text-anchor="middle" x="656.5" y="-265" font-family="Helvetica,sans-Serif" font-size="10.00">::clearLaunchPosition</text>
</a>
</g>
</g>
<!-- Node13&#45;&gt;Node14 -->
<g id="edge17" class="edge">
<title>Node13&#45;&gt;Node14</title>
<path fill="none" stroke="midnightblue" d="M519.95,-151.66C529.05,-155.09 537.78,-159.73 545,-166 575.04,-192.11 551.62,-221.15 581,-248 582.72,-249.57 584.54,-251.04 586.44,-252.42"/>
<polygon fill="midnightblue" stroke="midnightblue" points="584.89,-255.58 595.22,-257.9 588.59,-249.64 584.89,-255.58"/>
</g>
<!-- Node15 -->
<g id="node15" class="node">
<title>Node15</title>
<g id="a_node15"><a xlink:href="classdata_1_1LogStream.html#a18af3025ca8f1e60e5bd795f10b6c8b1" target="_top" xlink:title=" ">
<polygon fill="none" stroke="black" points="593.5,-219.5 593.5,-238.5 719.5,-238.5 719.5,-219.5 593.5,-219.5"/>
<text text-anchor="middle" x="656.5" y="-226.5" font-family="Helvetica,sans-Serif" font-size="10.00">data::LogStream::error</text>
</a>
</g>
</g>
<!-- Node13&#45;&gt;Node15 -->
<g id="edge18" class="edge">
<title>Node13&#45;&gt;Node15</title>
<path fill="none" stroke="midnightblue" d="M512.77,-151.53C523.98,-154.99 535.32,-159.67 545,-166 566.14,-179.83 559.69,-196.42 581,-210 584.32,-212.12 587.87,-214 591.55,-215.67"/>
<polygon fill="midnightblue" stroke="midnightblue" points="590.32,-218.95 600.9,-219.42 592.92,-212.45 590.32,-218.95"/>
</g>
<!-- Node16 -->
<g id="node16" class="node">
<title>Node16</title>
<g id="a_node16"><a xlink:href="classgiraffe_1_1FlightRunnerData.html#aec5ac065bece8131a74452bd55615b02" target="_top" xlink:title="Set the launch position. Called on the transition from pre&#45;launch to launch.">
<polygon fill="none" stroke="black" points="586.5,-170 586.5,-200 726.5,-200 726.5,-170 586.5,-170"/>
<text text-anchor="start" x="594.5" y="-188" font-family="Helvetica,sans-Serif" font-size="10.00">giraffe::FlightRunnerData</text>
<text text-anchor="middle" x="656.5" y="-177" font-family="Helvetica,sans-Serif" font-size="10.00">::setLaunchPosition</text>
</a>
</g>
</g>
<!-- Node13&#45;&gt;Node16 -->
<g id="edge22" class="edge">
<title>Node13&#45;&gt;Node16</title>
<path fill="none" stroke="midnightblue" d="M503,-151.54C524.8,-156.33 551.89,-162.27 577.15,-167.81"/>
<polygon fill="midnightblue" stroke="midnightblue" points="576.58,-171.27 587.1,-169.99 578.08,-164.43 576.58,-171.27"/>
</g>
<!-- Node17 -->
<g id="node17" class="node">
<title>Node17</title>
<g id="a_node17"><a xlink:href="classdata_1_1FlightData.html#af8689e42e3dcf4e6813bb608ed36a441" target="_top" xlink:title=" ">
<polygon fill="none" stroke="black" points="581,-121 581,-151 732,-151 732,-121 581,-121"/>
<text text-anchor="start" x="589" y="-139" font-family="Helvetica,sans-Serif" font-size="10.00">data::FlightData::setLaunch</text>
<text text-anchor="middle" x="656.5" y="-128" font-family="Helvetica,sans-Serif" font-size="10.00">Position</text>
</a>
</g>
</g>
<!-- Node13&#45;&gt;Node17 -->
<g id="edge23" class="edge">
<title>Node13&#45;&gt;Node17</title>
<path fill="none" stroke="midnightblue" d="M545.18,-139.38C553.61,-139.12 562.15,-138.86 570.56,-138.6"/>
<polygon fill="midnightblue" stroke="midnightblue" points="570.86,-142.09 580.75,-138.29 570.64,-135.1 570.86,-142.09"/>
</g>
<!-- Node13&#45;&gt;Node18 -->
<g id="edge24" class="edge">
<title>Node13&#45;&gt;Node18</title>
<path fill="none" stroke="midnightblue" d="M522.95,-151.65C531.14,-155.11 538.81,-159.76 545,-166 587.84,-209.16 537.65,-255.36 581,-298 587.85,-304.74 596.74,-309.19 605.98,-312.11"/>
<polygon fill="midnightblue" stroke="midnightblue" points="605.11,-315.5 615.66,-314.62 606.87,-308.72 605.11,-315.5"/>
</g>
<!-- Node15&#45;&gt;Node4 -->
<g id="edge20" class="edge">
<title>Node15&#45;&gt;Node4</title>
<path fill="none" stroke="midnightblue" d="M719.71,-235.41C736.5,-237.14 754.78,-239.02 771.97,-240.79"/>
<polygon fill="midnightblue" stroke="midnightblue" points="771.63,-244.27 781.94,-241.81 772.35,-237.31 771.63,-244.27"/>
</g>
<!-- Node15&#45;&gt;Node5 -->
<g id="edge19" class="edge">
<title>Node15&#45;&gt;Node5</title>
<path fill="none" stroke="midnightblue" d="M700.5,-219.47C760.55,-206.16 870.53,-181.79 945.18,-165.25"/>
<polygon fill="midnightblue" stroke="midnightblue" points="946.01,-168.65 955.01,-163.07 944.49,-161.81 946.01,-168.65"/>
</g>
<!-- Node15&#45;&gt;Node6 -->
<g id="edge21" class="edge">
<title>Node15&#45;&gt;Node6</title>
<path fill="none" stroke="midnightblue" d="M719.5,-225.78C782.08,-222.52 878.83,-217.49 946.22,-213.99"/>
<polygon fill="midnightblue" stroke="midnightblue" points="946.55,-217.48 956.36,-213.46 946.19,-210.49 946.55,-217.48"/>
</g>
</g>
</svg>
