<?xml version="1.0" encoding="UTF-8" standalone="no"?>
<!DOCTYPE svg PUBLIC "-//W3C//DTD SVG 1.1//EN"
 "http://www.w3.org/Graphics/SVG/1.1/DTD/svg11.dtd">
<!-- Generated by graphviz version 2.43.0 (0)
 -->
<!-- Title: giraffe::gdl::DataLink::updateTelemetryData Pages: 1 -->
<svg width="318pt" height="86pt"
 viewBox="0.00 0.00 318.00 86.00" xmlns="http://www.w3.org/2000/svg" xmlns:xlink="http://www.w3.org/1999/xlink">
<g id="graph0" class="graph" transform="scale(1 1) rotate(0) translate(4 82)">
<title>giraffe::gdl::DataLink::updateTelemetryData</title>
<!-- Node1 -->
<g id="Node000001" class="node">
<title>Node1</title>
<g id="a_Node000001"><a xlink:title="Update the telemetry data for the data link telemetry sender.">
<polygon fill="#999999" stroke="#666666" points="128,-54 0,-54 0,-24 128,-24 128,-54"/>
<text text-anchor="start" x="8" y="-42" font-family="Helvetica,sans-Serif" font-size="10.00">giraffe::gdl::DataLink</text>
<text text-anchor="middle" x="64" y="-31" font-family="Helvetica,sans-Serif" font-size="10.00">::updateTelemetryData</text>
</a>
</g>
</g>
<!-- Node2 -->
<g id="Node000002" class="node">
<title>Node2</title>
<g id="a_Node000002"><a xlink:href="classgiraffe_1_1gdl_1_1AprsTelemetrySender.html#a1ab20f7e3c28f51fff5aef2ef7e9917a" target="_top" xlink:title="Add new telemetry data to the telemetry sender. If the telemetry sender is enabled,...">
<polygon fill="white" stroke="#666666" points="310,-78 164,-78 164,-48 310,-48 310,-78"/>
<text text-anchor="start" x="172" y="-66" font-family="Helvetica,sans-Serif" font-size="10.00">giraffe::gdl::AprsTelemetry</text>
<text text-anchor="middle" x="237" y="-55" font-family="Helvetica,sans-Serif" font-size="10.00">Sender::addNewData</text>
</a>
</g>
</g>
<!-- Node1&#45;&gt;Node2 -->
<g id="edge1_Node000001_Node000002" class="edge">
<title>Node1&#45;&gt;Node2</title>
<g id="a_edge1_Node000001_Node000002"><a xlink:title=" ">
<path fill="none" stroke="#63b8ff" d="M128.19,-47.87C136.53,-49.04 145.18,-50.25 153.78,-51.46"/>
<polygon fill="#63b8ff" stroke="#63b8ff" points="153.45,-54.95 163.84,-52.87 154.42,-48.02 153.45,-54.95"/>
</a>
</g>
</g>
<!-- Node3 -->
<g id="Node000003" class="node">
<title>Node3</title>
<g id="a_Node000003"><a xlink:href="classgiraffe_1_1gdl_1_1Config.html#a7d67a270c0ee3c509756b5600122f77e" target="_top" xlink:title=" ">
<polygon fill="white" stroke="#666666" points="290,-30 184,-30 184,0 290,0 290,-30"/>
<text text-anchor="start" x="192" y="-18" font-family="Helvetica,sans-Serif" font-size="10.00">giraffe::gdl::Config</text>
<text text-anchor="middle" x="237" y="-7" font-family="Helvetica,sans-Serif" font-size="10.00">::isController</text>
</a>
</g>
</g>
<!-- Node1&#45;&gt;Node3 -->
<g id="edge2_Node000001_Node000003" class="edge">
<title>Node1&#45;&gt;Node3</title>
<g id="a_edge2_Node000001_Node000003"><a xlink:title=" ">
<path fill="none" stroke="#63b8ff" d="M128.19,-30.13C143.11,-28.04 159,-25.81 173.87,-23.72"/>
<polygon fill="#63b8ff" stroke="#63b8ff" points="174.56,-27.16 183.98,-22.3 173.59,-20.22 174.56,-27.16"/>
</a>
</g>
</g>
</g>
</svg>
