<?xml version="1.0" encoding="UTF-8" standalone="no"?>
<!DOCTYPE svg PUBLIC "-//W3C//DTD SVG 1.1//EN"
 "http://www.w3.org/Graphics/SVG/1.1/DTD/svg11.dtd">
<!-- Generated by graphviz version 2.43.0 (0)
 -->
<!-- Title: bit::TestGroup::setGroupStatus Pages: 1 -->
<svg width="481pt" height="141pt"
 viewBox="0.00 0.00 481.00 141.00" xmlns="http://www.w3.org/2000/svg" xmlns:xlink="http://www.w3.org/1999/xlink">
<g id="graph0" class="graph" transform="scale(1 1) rotate(0) translate(4 137)">
<title>bit::TestGroup::setGroupStatus</title>
<!-- Node1 -->
<g id="Node000001" class="node">
<title>Node1</title>
<g id="a_Node000001"><a xlink:title=" ">
<polygon fill="#999999" stroke="#666666" points="473,-81.5 339,-81.5 339,-51.5 473,-51.5 473,-81.5"/>
<text text-anchor="start" x="347" y="-69.5" font-family="Helvetica,sans-Serif" font-size="10.00">bit::TestGroup::setGroup</text>
<text text-anchor="middle" x="406" y="-58.5" font-family="Helvetica,sans-Serif" font-size="10.00">Status</text>
</a>
</g>
</g>
<!-- Node2 -->
<g id="Node000002" class="node">
<title>Node2</title>
<g id="a_Node000002"><a xlink:href="classbit_1_1TestGroup.html#ac197766975306b14edd500762488f9e0" target="_top" xlink:title=" ">
<polygon fill="white" stroke="#666666" points="303,-133 151,-133 151,-114 303,-114 303,-133"/>
<text text-anchor="middle" x="227" y="-121" font-family="Helvetica,sans-Serif" font-size="10.00">bit::TestGroup::groupRunner</text>
</a>
</g>
</g>
<!-- Node1&#45;&gt;Node2 -->
<g id="edge1_Node000001_Node000002" class="edge">
<title>Node1&#45;&gt;Node2</title>
<g id="a_edge1_Node000001_Node000002"><a xlink:title=" ">
<path fill="none" stroke="#63b8ff" d="M348.94,-84.67C334.01,-89.5 317.9,-94.71 303,-99.5 288.16,-104.27 271.67,-109.56 257.93,-113.95"/>
<polygon fill="#63b8ff" stroke="#63b8ff" points="350.11,-87.97 358.55,-81.56 347.96,-81.31 350.11,-87.97"/>
</a>
</g>
</g>
<!-- Node3 -->
<g id="Node000003" class="node">
<title>Node3</title>
<g id="a_Node000003"><a xlink:href="classbit_1_1TestGroup.html#a758e1e5dde0f057bbeb0ded0f3d6b916" target="_top" xlink:title=" ">
<polygon fill="white" stroke="#666666" points="114,-114 1,-114 1,-95 114,-95 114,-114"/>
<text text-anchor="middle" x="57.5" y="-102" font-family="Helvetica,sans-Serif" font-size="10.00">bit::TestGroup::start</text>
</a>
</g>
</g>
<!-- Node1&#45;&gt;Node3 -->
<g id="edge4_Node000001_Node000003" class="edge">
<title>Node1&#45;&gt;Node3</title>
<g id="a_edge4_Node000001_Node000003"><a xlink:title=" ">
<path fill="none" stroke="#63b8ff" d="M328.43,-74.9C263.58,-82.01 172.15,-92.04 114.1,-98.4"/>
<polygon fill="#63b8ff" stroke="#63b8ff" points="329.04,-78.35 338.6,-73.78 328.28,-71.39 329.04,-78.35"/>
</a>
</g>
</g>
<!-- Node4 -->
<g id="Node000004" class="node">
<title>Node4</title>
<g id="a_Node000004"><a xlink:href="classbit_1_1TestGroup.html#a31704c506e1806f1b5981e828ee911d9" target="_top" xlink:title=" ">
<polygon fill="white" stroke="#666666" points="115,-38 0,-38 0,-19 115,-19 115,-38"/>
<text text-anchor="middle" x="57.5" y="-26" font-family="Helvetica,sans-Serif" font-size="10.00">bit::TestGroup::reset</text>
</a>
</g>
</g>
<!-- Node1&#45;&gt;Node4 -->
<g id="edge3_Node000001_Node000004" class="edge">
<title>Node1&#45;&gt;Node4</title>
<g id="a_edge3_Node000001_Node000004"><a xlink:title=" ">
<path fill="none" stroke="#63b8ff" d="M328.49,-58.11C264.05,-51.04 173.33,-41.09 115.21,-34.72"/>
<polygon fill="#63b8ff" stroke="#63b8ff" points="328.28,-61.61 338.6,-59.22 329.04,-54.65 328.28,-61.61"/>
</a>
</g>
</g>
<!-- Node5 -->
<g id="Node000005" class="node">
<title>Node5</title>
<g id="a_Node000005"><a xlink:href="classbit_1_1TestGroup.html#ab0cdcea1f77d0e45ce07cefccf6874bb" target="_top" xlink:title=" ">
<polygon fill="white" stroke="#666666" points="282.5,-19 171.5,-19 171.5,0 282.5,0 282.5,-19"/>
<text text-anchor="middle" x="227" y="-7" font-family="Helvetica,sans-Serif" font-size="10.00">bit::TestGroup::stop</text>
</a>
</g>
</g>
<!-- Node1&#45;&gt;Node5 -->
<g id="edge5_Node000001_Node000005" class="edge">
<title>Node1&#45;&gt;Node5</title>
<g id="a_edge5_Node000001_Node000005"><a xlink:title=" ">
<path fill="none" stroke="#63b8ff" d="M348.94,-48.33C334.01,-43.5 317.9,-38.29 303,-33.5 288.16,-28.73 271.67,-23.44 257.93,-19.05"/>
<polygon fill="#63b8ff" stroke="#63b8ff" points="347.96,-51.69 358.55,-51.44 350.11,-45.03 347.96,-51.69"/>
</a>
</g>
</g>
<!-- Node2&#45;&gt;Node3 -->
<g id="edge2_Node000002_Node000003" class="edge">
<title>Node2&#45;&gt;Node3</title>
<g id="a_edge2_Node000002_Node000003"><a xlink:title=" ">
<path fill="none" stroke="#63b8ff" d="M140.58,-113.81C131.71,-112.8 122.86,-111.8 114.44,-110.85"/>
<polygon fill="#63b8ff" stroke="#63b8ff" points="140.25,-117.3 150.58,-114.94 141.04,-110.34 140.25,-117.3"/>
</a>
</g>
</g>
<!-- Node5&#45;&gt;Node4 -->
<g id="edge6_Node000005_Node000004" class="edge">
<title>Node5&#45;&gt;Node4</title>
<g id="a_edge6_Node000005_Node000004"><a xlink:title=" ">
<path fill="none" stroke="#63b8ff" d="M160.88,-16.89C145.8,-18.6 129.88,-20.4 115.19,-22.07"/>
<polygon fill="#63b8ff" stroke="#63b8ff" points="161.61,-20.33 171.15,-15.72 160.82,-13.37 161.61,-20.33"/>
</a>
</g>
</g>
</g>
</svg>
