<?xml version="1.0" encoding="UTF-8" standalone="no"?>
<!DOCTYPE svg PUBLIC "-//W3C//DTD SVG 1.1//EN"
 "http://www.w3.org/Graphics/SVG/1.1/DTD/svg11.dtd">
<!-- Generated by graphviz version 2.43.0 (0)
 -->
<!-- Title: GiraffeException::id Pages: 1 -->
<svg width="275pt" height="76pt"
 viewBox="0.00 0.00 275.00 75.50" xmlns="http://www.w3.org/2000/svg" xmlns:xlink="http://www.w3.org/1999/xlink">
<g id="graph0" class="graph" transform="scale(1 1) rotate(0) translate(4 71.5)">
<title>GiraffeException::id</title>
<!-- Node1 -->
<g id="Node000001" class="node">
<title>Node1</title>
<g id="a_Node000001"><a xlink:title=" ">
<polygon fill="#999999" stroke="#666666" points="267,-40 154,-40 154,-21 267,-21 267,-40"/>
<text text-anchor="middle" x="210.5" y="-28" font-family="Helvetica,sans-Serif" font-size="10.00">GiraffeException::id</text>
</a>
</g>
</g>
<!-- Node2 -->
<g id="Node000002" class="node">
<title>Node2</title>
<g id="a_Node000002"><a xlink:href="classextension_1_1PiCamera.html#ac8a13f4e53f230df60ccbf7baee29a87" target="_top" xlink:title=" ">
<polygon fill="white" stroke="#666666" points="118,-67.5 0,-67.5 0,-37.5 118,-37.5 118,-67.5"/>
<text text-anchor="start" x="8" y="-55.5" font-family="Helvetica,sans-Serif" font-size="10.00">extension::PiCamera</text>
<text text-anchor="middle" x="59" y="-44.5" font-family="Helvetica,sans-Serif" font-size="10.00">::PiCamera</text>
</a>
</g>
</g>
<!-- Node1&#45;&gt;Node2 -->
<g id="edge1_Node000001_Node000002" class="edge">
<title>Node1&#45;&gt;Node2</title>
<g id="a_edge1_Node000001_Node000002"><a xlink:title=" ">
<path fill="none" stroke="#63b8ff" d="M143.9,-40.15C135.35,-41.41 126.63,-42.69 118.22,-43.93"/>
<polygon fill="#63b8ff" stroke="#63b8ff" points="144.45,-43.61 153.83,-38.69 143.43,-36.69 144.45,-43.61"/>
</a>
</g>
</g>
<!-- Node3 -->
<g id="Node000003" class="node">
<title>Node3</title>
<g id="a_Node000003"><a xlink:href="test__diagnostics_8cpp.html#ac11d97bf8abd2570b344169a8f2a9155" target="_top" xlink:title=" ">
<polygon fill="white" stroke="#666666" points="79.5,-19 38.5,-19 38.5,0 79.5,0 79.5,-19"/>
<text text-anchor="middle" x="59" y="-7" font-family="Helvetica,sans-Serif" font-size="10.00">TEST</text>
</a>
</g>
</g>
<!-- Node1&#45;&gt;Node3 -->
<g id="edge2_Node000001_Node000003" class="edge">
<title>Node1&#45;&gt;Node3</title>
<g id="a_edge2_Node000001_Node000003"><a xlink:title=" ">
<path fill="none" stroke="#63b8ff" d="M143.93,-21.29C120.58,-18.01 96.03,-14.56 79.55,-12.25"/>
<polygon fill="#63b8ff" stroke="#63b8ff" points="143.44,-24.76 153.83,-22.68 144.42,-17.82 143.44,-24.76"/>
</a>
</g>
</g>
</g>
</svg>
