<?xml version="1.0" encoding="UTF-8" standalone="no"?>
<!DOCTYPE svg PUBLIC "-//W3C//DTD SVG 1.1//EN"
 "http://www.w3.org/Graphics/SVG/1.1/DTD/svg11.dtd">
<!-- Generated by graphviz version 2.43.0 (0)
 -->
<!-- Title: extension::Ds18b20::startup Pages: 1 -->
<svg width="649pt" height="203pt"
 viewBox="0.00 0.00 649.00 203.00" xmlns="http://www.w3.org/2000/svg" xmlns:xlink="http://www.w3.org/1999/xlink">
<g id="graph0" class="graph" transform="scale(1 1) rotate(0) translate(4 199)">
<title>extension::Ds18b20::startup</title>
<!-- Node1 -->
<g id="node1" class="node">
<title>Node1</title>
<g id="a_node1"><a xlink:title=" ">
<polygon fill="#bfbfbf" stroke="black" points="0,-73.5 0,-103.5 113,-103.5 113,-73.5 0,-73.5"/>
<text text-anchor="start" x="8" y="-91.5" font-family="Helvetica,sans-Serif" font-size="10.00">extension::Ds18b20</text>
<text text-anchor="middle" x="56.5" y="-80.5" font-family="Helvetica,sans-Serif" font-size="10.00">::startup</text>
</a>
</g>
</g>
<!-- Node2 -->
<g id="node2" class="node">
<title>Node2</title>
<g id="a_node2"><a xlink:href="classextension_1_1Extension.html#a00ef6cd65250307287af24071c862a42" target="_top" xlink:title="Sleep internally for a given number of milliseconds.">
<polygon fill="none" stroke="black" points="149,-147.5 149,-177.5 268,-177.5 268,-147.5 149,-147.5"/>
<text text-anchor="start" x="157" y="-165.5" font-family="Helvetica,sans-Serif" font-size="10.00">extension::Extension</text>
<text text-anchor="middle" x="208.5" y="-154.5" font-family="Helvetica,sans-Serif" font-size="10.00">::extSleep</text>
</a>
</g>
</g>
<!-- Node1&#45;&gt;Node2 -->
<g id="edge1" class="edge">
<title>Node1&#45;&gt;Node2</title>
<path fill="none" stroke="midnightblue" d="M83.13,-103.5C101.26,-113.86 126.29,-127.68 149,-138.5 152.52,-140.18 156.2,-141.85 159.91,-143.49"/>
<polygon fill="midnightblue" stroke="midnightblue" points="158.59,-146.74 169.16,-147.48 161.36,-140.31 158.59,-146.74"/>
</g>
<!-- Node3 -->
<g id="node3" class="node">
<title>Node3</title>
<g id="a_node3"><a xlink:href="classextension_1_1Ds18b20.html#a1106e4fc9a110d11eeb65b7e85ba3d42" target="_top" xlink:title=" ">
<polygon fill="none" stroke="black" points="152,-98.5 152,-128.5 265,-128.5 265,-98.5 152,-98.5"/>
<text text-anchor="start" x="160" y="-116.5" font-family="Helvetica,sans-Serif" font-size="10.00">extension::Ds18b20</text>
<text text-anchor="middle" x="208.5" y="-105.5" font-family="Helvetica,sans-Serif" font-size="10.00">::init</text>
</a>
</g>
</g>
<!-- Node1&#45;&gt;Node3 -->
<g id="edge2" class="edge">
<title>Node1&#45;&gt;Node3</title>
<path fill="none" stroke="midnightblue" d="M113.35,-97.81C122.59,-99.35 132.24,-100.96 141.7,-102.53"/>
<polygon fill="midnightblue" stroke="midnightblue" points="141.41,-106.03 151.85,-104.22 142.56,-99.13 141.41,-106.03"/>
</g>
<!-- Node7 -->
<g id="node7" class="node">
<title>Node7</title>
<g id="a_node7"><a xlink:href="classextension_1_1Extension.html#a39712025900988f7bd4e15637f4a28ba" target="_top" xlink:title="Used internally to raise a fault. This will stop an extension.">
<polygon fill="none" stroke="black" points="149,-49.5 149,-79.5 268,-79.5 268,-49.5 149,-49.5"/>
<text text-anchor="start" x="157" y="-67.5" font-family="Helvetica,sans-Serif" font-size="10.00">extension::Extension</text>
<text text-anchor="middle" x="208.5" y="-56.5" font-family="Helvetica,sans-Serif" font-size="10.00">::raiseFault</text>
</a>
</g>
</g>
<!-- Node1&#45;&gt;Node7 -->
<g id="edge6" class="edge">
<title>Node1&#45;&gt;Node7</title>
<path fill="none" stroke="midnightblue" d="M113.35,-79.56C121.68,-78.23 130.33,-76.85 138.88,-75.48"/>
<polygon fill="midnightblue" stroke="midnightblue" points="139.52,-78.92 148.84,-73.89 138.41,-72.01 139.52,-78.92"/>
</g>
<!-- Node10 -->
<g id="node10" class="node">
<title>Node10</title>
<g id="a_node10"><a xlink:href="classextension_1_1Extension.html#a6d4f564b9ee0aefea0837e87541ee05b" target="_top" xlink:title="Returns true if the extension has been requested to stop.">
<polygon fill="none" stroke="black" points="149,-0.5 149,-30.5 268,-30.5 268,-0.5 149,-0.5"/>
<text text-anchor="start" x="157" y="-18.5" font-family="Helvetica,sans-Serif" font-size="10.00">extension::Extension</text>
<text text-anchor="middle" x="208.5" y="-7.5" font-family="Helvetica,sans-Serif" font-size="10.00">::stopRequested</text>
</a>
</g>
</g>
<!-- Node1&#45;&gt;Node10 -->
<g id="edge9" class="edge">
<title>Node1&#45;&gt;Node10</title>
<path fill="none" stroke="midnightblue" d="M83.96,-73.4C102.03,-63.32 126.67,-50.03 149,-39.5 152.53,-37.84 156.21,-36.17 159.92,-34.54"/>
<polygon fill="midnightblue" stroke="midnightblue" points="161.37,-37.73 169.18,-30.56 158.61,-31.29 161.37,-37.73"/>
</g>
<!-- Node4 -->
<g id="node4" class="node">
<title>Node4</title>
<g id="a_node4"><a xlink:href="classOneWireInterface.html#a91e22e95253f29ef31c534d4540409c7" target="_top" xlink:title=" ">
<polygon fill="none" stroke="black" points="317,-164.5 317,-194.5 457,-194.5 457,-164.5 317,-164.5"/>
<text text-anchor="start" x="325" y="-182.5" font-family="Helvetica,sans-Serif" font-size="10.00">OneWireInterface::device</text>
<text text-anchor="middle" x="387" y="-171.5" font-family="Helvetica,sans-Serif" font-size="10.00">Exists</text>
</a>
</g>
</g>
<!-- Node3&#45;&gt;Node4 -->
<g id="edge3" class="edge">
<title>Node3&#45;&gt;Node4</title>
<path fill="none" stroke="midnightblue" d="M245.11,-128.62C252.68,-131.86 260.61,-135.28 268,-138.5 284.05,-145.5 287.6,-148.38 304,-154.5 310.28,-156.84 316.88,-159.13 323.51,-161.32"/>
<polygon fill="midnightblue" stroke="midnightblue" points="322.6,-164.7 333.19,-164.44 324.74,-158.04 322.6,-164.7"/>
</g>
<!-- Node5 -->
<g id="node5" class="node">
<title>Node5</title>
<g id="a_node5"><a xlink:href="classOneWireInterface.html#ac2359dc488e64622d6e07173e07316b1" target="_top" xlink:title=" ">
<polygon fill="none" stroke="black" points="304,-126 304,-145 470,-145 470,-126 304,-126"/>
<text text-anchor="middle" x="387" y="-133" font-family="Helvetica,sans-Serif" font-size="10.00">OneWireInterface::setDeviceId</text>
</a>
</g>
</g>
<!-- Node3&#45;&gt;Node5 -->
<g id="edge4" class="edge">
<title>Node3&#45;&gt;Node5</title>
<path fill="none" stroke="midnightblue" d="M265.35,-120.46C276.2,-121.81 287.82,-123.26 299.4,-124.71"/>
<polygon fill="midnightblue" stroke="midnightblue" points="299.19,-128.21 309.55,-125.97 300.06,-121.26 299.19,-128.21"/>
</g>
<!-- Node6 -->
<g id="node6" class="node">
<title>Node6</title>
<g id="a_node6"><a xlink:href="namespaceextension.html#a9d808790534fe424f5ecb8bedb284af6" target="_top" xlink:title=" ">
<polygon fill="none" stroke="black" points="318,-76.5 318,-106.5 456,-106.5 456,-76.5 318,-76.5"/>
<text text-anchor="start" x="326" y="-94.5" font-family="Helvetica,sans-Serif" font-size="10.00">extension::validateSerial</text>
<text text-anchor="middle" x="387" y="-83.5" font-family="Helvetica,sans-Serif" font-size="10.00">Number</text>
</a>
</g>
</g>
<!-- Node3&#45;&gt;Node6 -->
<g id="edge5" class="edge">
<title>Node3&#45;&gt;Node6</title>
<path fill="none" stroke="midnightblue" d="M265.35,-106.54C278.76,-104.87 293.32,-103.05 307.55,-101.28"/>
<polygon fill="midnightblue" stroke="midnightblue" points="308.33,-104.71 317.82,-100 307.47,-97.76 308.33,-104.71"/>
</g>
<!-- Node8 -->
<g id="node8" class="node">
<title>Node8</title>
<g id="a_node8"><a xlink:href="classextension_1_1Extension.html#a947a643d302b5c5f9cef1a54d5038c06" target="_top" xlink:title=" ">
<polygon fill="none" stroke="black" points="327.5,-27.5 327.5,-57.5 446.5,-57.5 446.5,-27.5 327.5,-27.5"/>
<text text-anchor="start" x="335.5" y="-45.5" font-family="Helvetica,sans-Serif" font-size="10.00">extension::Extension</text>
<text text-anchor="middle" x="387" y="-34.5" font-family="Helvetica,sans-Serif" font-size="10.00">::error</text>
</a>
</g>
</g>
<!-- Node7&#45;&gt;Node8 -->
<g id="edge7" class="edge">
<title>Node7&#45;&gt;Node8</title>
<path fill="none" stroke="midnightblue" d="M268.27,-57.17C284.05,-55.21 301.25,-53.06 317.51,-51.04"/>
<polygon fill="midnightblue" stroke="midnightblue" points="317.99,-54.5 327.48,-49.79 317.13,-47.56 317.99,-54.5"/>
</g>
<!-- Node9 -->
<g id="node9" class="node">
<title>Node9</title>
<g id="a_node9"><a xlink:href="classdata_1_1Stream.html#a1ff9a93190dbecdc2ffa27deaaa4266a" target="_top" xlink:title=" ">
<polygon fill="none" stroke="black" points="506,-33 506,-52 641,-52 641,-33 506,-33"/>
<text text-anchor="middle" x="573.5" y="-40" font-family="Helvetica,sans-Serif" font-size="10.00">data::Stream::addPacket</text>
</a>
</g>
</g>
<!-- Node8&#45;&gt;Node9 -->
<g id="edge8" class="edge">
<title>Node8&#45;&gt;Node9</title>
<path fill="none" stroke="midnightblue" d="M446.63,-42.5C462.27,-42.5 479.41,-42.5 495.86,-42.5"/>
<polygon fill="midnightblue" stroke="midnightblue" points="496,-46 506,-42.5 496,-39 496,-46"/>
</g>
</g>
</svg>
