<?xml version="1.0" encoding="UTF-8" standalone="no"?>
<!DOCTYPE svg PUBLIC "-//W3C//DTD SVG 1.1//EN"
 "http://www.w3.org/Graphics/SVG/1.1/DTD/svg11.dtd">
<!-- Generated by graphviz version 2.43.0 (0)
 -->
<!-- Title: extension::Extension Pages: 1 -->
<svg width="2291pt" height="1002pt"
 viewBox="0.00 0.00 2291.00 1002.00" xmlns="http://www.w3.org/2000/svg" xmlns:xlink="http://www.w3.org/1999/xlink">
<g id="graph0" class="graph" transform="scale(1 1) rotate(0) translate(4 998)">
<title>extension::Extension</title>
<!-- Node1 -->
<g id="node1" class="node">
<title>Node1</title>
<g id="a_node1"><a xlink:title=" ">
<polygon fill="#bfbfbf" stroke="black" points="1042.5,-595.5 1042.5,-993.5 1216.5,-993.5 1216.5,-595.5 1042.5,-595.5"/>
<text text-anchor="middle" x="1129.5" y="-981.5" font-family="Helvetica,sans-Serif" font-size="10.00">extension::Extension</text>
<polyline fill="none" stroke="black" points="1042.5,-974.5 1216.5,-974.5 "/>
<text text-anchor="start" x="1050.5" y="-962.5" font-family="Helvetica,sans-Serif" font-size="10.00"># metadata_</text>
<text text-anchor="start" x="1050.5" y="-951.5" font-family="Helvetica,sans-Serif" font-size="10.00">&#45; fault_code_</text>
<text text-anchor="start" x="1050.5" y="-940.5" font-family="Helvetica,sans-Serif" font-size="10.00">&#45; fault_flag_</text>
<text text-anchor="start" x="1050.5" y="-929.5" font-family="Helvetica,sans-Serif" font-size="10.00">&#45; interfaces_</text>
<text text-anchor="start" x="1050.5" y="-918.5" font-family="Helvetica,sans-Serif" font-size="10.00">&#45; runner_thread_</text>
<text text-anchor="start" x="1050.5" y="-907.5" font-family="Helvetica,sans-Serif" font-size="10.00">&#45; status_</text>
<text text-anchor="start" x="1050.5" y="-896.5" font-family="Helvetica,sans-Serif" font-size="10.00">&#45; stop_flag_</text>
<polyline fill="none" stroke="black" points="1042.5,-889.5 1216.5,-889.5 "/>
<text text-anchor="start" x="1050.5" y="-877.5" font-family="Helvetica,sans-Serif" font-size="10.00">+ Extension()</text>
<text text-anchor="start" x="1050.5" y="-866.5" font-family="Helvetica,sans-Serif" font-size="10.00">+ Extension()</text>
<text text-anchor="start" x="1050.5" y="-855.5" font-family="Helvetica,sans-Serif" font-size="10.00">+ ~Extension()</text>
<text text-anchor="start" x="1050.5" y="-844.5" font-family="Helvetica,sans-Serif" font-size="10.00">+ getFaultCode()</text>
<text text-anchor="start" x="1050.5" y="-833.5" font-family="Helvetica,sans-Serif" font-size="10.00">+ getStatus()</text>
<text text-anchor="start" x="1050.5" y="-822.5" font-family="Helvetica,sans-Serif" font-size="10.00">+ isFaulted()</text>
<text text-anchor="start" x="1050.5" y="-811.5" font-family="Helvetica,sans-Serif" font-size="10.00">+ operator=()</text>
<text text-anchor="start" x="1050.5" y="-800.5" font-family="Helvetica,sans-Serif" font-size="10.00">+ reset()</text>
<text text-anchor="start" x="1050.5" y="-789.5" font-family="Helvetica,sans-Serif" font-size="10.00">+ start()</text>
<text text-anchor="start" x="1050.5" y="-778.5" font-family="Helvetica,sans-Serif" font-size="10.00">+ stop()</text>
<text text-anchor="start" x="1050.5" y="-767.5" font-family="Helvetica,sans-Serif" font-size="10.00"># data()</text>
<text text-anchor="start" x="1050.5" y="-756.5" font-family="Helvetica,sans-Serif" font-size="10.00"># data()</text>
<text text-anchor="start" x="1050.5" y="-745.5" font-family="Helvetica,sans-Serif" font-size="10.00"># data()</text>
<text text-anchor="start" x="1050.5" y="-734.5" font-family="Helvetica,sans-Serif" font-size="10.00"># dataWithSecondaryIdentifier()</text>
<text text-anchor="start" x="1050.5" y="-723.5" font-family="Helvetica,sans-Serif" font-size="10.00"># debug()</text>
<text text-anchor="start" x="1050.5" y="-712.5" font-family="Helvetica,sans-Serif" font-size="10.00"># error()</text>
<text text-anchor="start" x="1050.5" y="-701.5" font-family="Helvetica,sans-Serif" font-size="10.00"># error()</text>
<text text-anchor="start" x="1050.5" y="-690.5" font-family="Helvetica,sans-Serif" font-size="10.00"># extSleep()</text>
<text text-anchor="start" x="1050.5" y="-679.5" font-family="Helvetica,sans-Serif" font-size="10.00"># info()</text>
<text text-anchor="start" x="1050.5" y="-668.5" font-family="Helvetica,sans-Serif" font-size="10.00"># loop()</text>
<text text-anchor="start" x="1050.5" y="-657.5" font-family="Helvetica,sans-Serif" font-size="10.00"># raiseFault()</text>
<text text-anchor="start" x="1050.5" y="-646.5" font-family="Helvetica,sans-Serif" font-size="10.00"># shutdown()</text>
<text text-anchor="start" x="1050.5" y="-635.5" font-family="Helvetica,sans-Serif" font-size="10.00"># startup()</text>
<text text-anchor="start" x="1050.5" y="-624.5" font-family="Helvetica,sans-Serif" font-size="10.00"># stopRequested()</text>
<text text-anchor="start" x="1050.5" y="-613.5" font-family="Helvetica,sans-Serif" font-size="10.00">&#45; runner()</text>
<text text-anchor="start" x="1050.5" y="-602.5" font-family="Helvetica,sans-Serif" font-size="10.00">&#45; sleep()</text>
</a>
</g>
</g>
<!-- Node2 -->
<g id="node2" class="node">
<title>Node2</title>
<g id="a_node2"><a xlink:href="classextension_1_1AdcExtensionBase.html" target="_top" xlink:title=" ">
<polygon fill="none" stroke="black" points="0,-369.5 0,-503.5 161,-503.5 161,-369.5 0,-369.5"/>
<text text-anchor="middle" x="80.5" y="-491.5" font-family="Helvetica,sans-Serif" font-size="10.00">extension::AdcExtensionBase</text>
<polyline fill="none" stroke="black" points="0,-484.5 161,-484.5 "/>
<text text-anchor="start" x="8" y="-472.5" font-family="Helvetica,sans-Serif" font-size="10.00">&#45; adc_watchdog_</text>
<polyline fill="none" stroke="black" points="0,-465.5 161,-465.5 "/>
<text text-anchor="start" x="8" y="-453.5" font-family="Helvetica,sans-Serif" font-size="10.00">+ AdcExtensionBase()</text>
<text text-anchor="start" x="8" y="-442.5" font-family="Helvetica,sans-Serif" font-size="10.00"># adcShutdown()</text>
<text text-anchor="start" x="8" y="-431.5" font-family="Helvetica,sans-Serif" font-size="10.00"># adcStartup()</text>
<text text-anchor="start" x="8" y="-420.5" font-family="Helvetica,sans-Serif" font-size="10.00"># readAdc()</text>
<text text-anchor="start" x="8" y="-409.5" font-family="Helvetica,sans-Serif" font-size="10.00"># reportAdcData()</text>
<text text-anchor="start" x="8" y="-398.5" font-family="Helvetica,sans-Serif" font-size="10.00">&#45; loop()</text>
<text text-anchor="start" x="8" y="-387.5" font-family="Helvetica,sans-Serif" font-size="10.00">&#45; shutdown()</text>
<text text-anchor="start" x="8" y="-376.5" font-family="Helvetica,sans-Serif" font-size="10.00">&#45; startup()</text>
</a>
</g>
</g>
<!-- Node1&#45;&gt;Node2 -->
<g id="edge1" class="edge">
<title>Node1&#45;&gt;Node2</title>
<path fill="none" stroke="midnightblue" d="M1032.25,-791.24C848.48,-782.62 444.08,-742.48 169.5,-559 148.41,-544.91 130.53,-524.05 116.45,-503.58"/>
<polygon fill="none" stroke="midnightblue" points="1032.29,-794.75 1042.43,-791.7 1032.6,-787.75 1032.29,-794.75"/>
</g>
<!-- Node4 -->
<g id="node4" class="node">
<title>Node4</title>
<g id="a_node4"><a xlink:href="classextension_1_1Bme280.html" target="_top" xlink:title=" ">
<polygon fill="none" stroke="black" points="179,-314.5 179,-558.5 342,-558.5 342,-314.5 179,-314.5"/>
<text text-anchor="middle" x="260.5" y="-546.5" font-family="Helvetica,sans-Serif" font-size="10.00">extension::Bme280</text>
<polyline fill="none" stroke="black" points="179,-539.5 342,-539.5 "/>
<text text-anchor="start" x="187" y="-527.5" font-family="Helvetica,sans-Serif" font-size="10.00">&#45; comp_data_</text>
<text text-anchor="start" x="187" y="-516.5" font-family="Helvetica,sans-Serif" font-size="10.00">&#45; compensation_timer_</text>
<text text-anchor="start" x="187" y="-505.5" font-family="Helvetica,sans-Serif" font-size="10.00">&#45; humidity_</text>
<text text-anchor="start" x="187" y="-494.5" font-family="Helvetica,sans-Serif" font-size="10.00">&#45; i2c_</text>
<text text-anchor="start" x="187" y="-483.5" font-family="Helvetica,sans-Serif" font-size="10.00">&#45; pressure_</text>
<text text-anchor="start" x="187" y="-472.5" font-family="Helvetica,sans-Serif" font-size="10.00">&#45; raw_humidity_</text>
<text text-anchor="start" x="187" y="-461.5" font-family="Helvetica,sans-Serif" font-size="10.00">&#45; raw_pressure_</text>
<text text-anchor="start" x="187" y="-450.5" font-family="Helvetica,sans-Serif" font-size="10.00">&#45; raw_temperature_</text>
<text text-anchor="start" x="187" y="-439.5" font-family="Helvetica,sans-Serif" font-size="10.00">&#45; read_timer_</text>
<text text-anchor="start" x="187" y="-428.5" font-family="Helvetica,sans-Serif" font-size="10.00">&#45; temperature_</text>
<polyline fill="none" stroke="black" points="179,-421.5 342,-421.5 "/>
<text text-anchor="start" x="187" y="-409.5" font-family="Helvetica,sans-Serif" font-size="10.00">+ Bme280()</text>
<text text-anchor="start" x="187" y="-398.5" font-family="Helvetica,sans-Serif" font-size="10.00">+ loop()</text>
<text text-anchor="start" x="187" y="-387.5" font-family="Helvetica,sans-Serif" font-size="10.00">+ startup()</text>
<text text-anchor="start" x="187" y="-376.5" font-family="Helvetica,sans-Serif" font-size="10.00">&#45; configureSensor()</text>
<text text-anchor="start" x="187" y="-365.5" font-family="Helvetica,sans-Serif" font-size="10.00">&#45; handshake()</text>
<text text-anchor="start" x="187" y="-354.5" font-family="Helvetica,sans-Serif" font-size="10.00">&#45; processEnvironmentalData()</text>
<text text-anchor="start" x="187" y="-343.5" font-family="Helvetica,sans-Serif" font-size="10.00">&#45; readCompensationData()</text>
<text text-anchor="start" x="187" y="-332.5" font-family="Helvetica,sans-Serif" font-size="10.00">&#45; readEnvironmentalData()</text>
<text text-anchor="start" x="187" y="-321.5" font-family="Helvetica,sans-Serif" font-size="10.00">&#45; resetSensor()</text>
</a>
</g>
</g>
<!-- Node1&#45;&gt;Node4 -->
<g id="edge3" class="edge">
<title>Node1&#45;&gt;Node4</title>
<path fill="none" stroke="midnightblue" d="M1032.36,-783.89C876.22,-764.4 565.29,-708.54 351.5,-559 348.37,-556.81 345.3,-554.48 342.3,-552.03"/>
<polygon fill="none" stroke="midnightblue" points="1032.07,-787.38 1042.42,-785.12 1032.92,-780.43 1032.07,-787.38"/>
</g>
<!-- Node5 -->
<g id="node5" class="node">
<title>Node5</title>
<g id="a_node5"><a xlink:href="classextension_1_1Ds18b20.html" target="_top" xlink:title=" ">
<polygon fill="none" stroke="black" points="360.5,-364 360.5,-509 482.5,-509 482.5,-364 360.5,-364"/>
<text text-anchor="middle" x="421.5" y="-497" font-family="Helvetica,sans-Serif" font-size="10.00">extension::Ds18b20</text>
<polyline fill="none" stroke="black" points="360.5,-490 482.5,-490 "/>
<text text-anchor="start" x="368.5" y="-478" font-family="Helvetica,sans-Serif" font-size="10.00">&#45; device_</text>
<text text-anchor="start" x="368.5" y="-467" font-family="Helvetica,sans-Serif" font-size="10.00">&#45; init_timer_</text>
<text text-anchor="start" x="368.5" y="-456" font-family="Helvetica,sans-Serif" font-size="10.00">&#45; read_timeout_fault_</text>
<text text-anchor="start" x="368.5" y="-445" font-family="Helvetica,sans-Serif" font-size="10.00">&#45; read_timer_</text>
<text text-anchor="start" x="368.5" y="-434" font-family="Helvetica,sans-Serif" font-size="10.00">&#45; temperature_</text>
<polyline fill="none" stroke="black" points="360.5,-427 482.5,-427 "/>
<text text-anchor="start" x="368.5" y="-415" font-family="Helvetica,sans-Serif" font-size="10.00">+ Ds18b20()</text>
<text text-anchor="start" x="368.5" y="-404" font-family="Helvetica,sans-Serif" font-size="10.00">+ loop()</text>
<text text-anchor="start" x="368.5" y="-393" font-family="Helvetica,sans-Serif" font-size="10.00">+ startup()</text>
<text text-anchor="start" x="368.5" y="-382" font-family="Helvetica,sans-Serif" font-size="10.00">&#45; init()</text>
<text text-anchor="start" x="368.5" y="-371" font-family="Helvetica,sans-Serif" font-size="10.00">&#45; readData()</text>
</a>
</g>
</g>
<!-- Node1&#45;&gt;Node5 -->
<g id="edge4" class="edge">
<title>Node1&#45;&gt;Node5</title>
<path fill="none" stroke="midnightblue" d="M1032.46,-778.89C897.9,-754.32 653.12,-693.56 492.5,-559 476.39,-545.51 463.1,-527.37 452.54,-509.23"/>
<polygon fill="none" stroke="midnightblue" points="1031.89,-782.34 1042.35,-780.67 1033.13,-775.46 1031.89,-782.34"/>
</g>
<!-- Node6 -->
<g id="node6" class="node">
<title>Node6</title>
<g id="a_node6"><a xlink:href="classextension_1_1ImuExtensionBase.html" target="_top" xlink:title=" ">
<polygon fill="none" stroke="black" points="501,-320 501,-553 662,-553 662,-320 501,-320"/>
<text text-anchor="middle" x="581.5" y="-541" font-family="Helvetica,sans-Serif" font-size="10.00">extension::ImuExtensionBase</text>
<polyline fill="none" stroke="black" points="501,-534 662,-534 "/>
<text text-anchor="start" x="509" y="-522" font-family="Helvetica,sans-Serif" font-size="10.00">&#45; accel_x_</text>
<text text-anchor="start" x="509" y="-511" font-family="Helvetica,sans-Serif" font-size="10.00">&#45; accel_y_</text>
<text text-anchor="start" x="509" y="-500" font-family="Helvetica,sans-Serif" font-size="10.00">&#45; accel_z_</text>
<text text-anchor="start" x="509" y="-489" font-family="Helvetica,sans-Serif" font-size="10.00">&#45; data_report_counter_</text>
<text text-anchor="start" x="509" y="-478" font-family="Helvetica,sans-Serif" font-size="10.00">&#45; data_report_interval_</text>
<text text-anchor="start" x="509" y="-467" font-family="Helvetica,sans-Serif" font-size="10.00">&#45; gyro_x_</text>
<text text-anchor="start" x="509" y="-456" font-family="Helvetica,sans-Serif" font-size="10.00">&#45; gyro_y_</text>
<text text-anchor="start" x="509" y="-445" font-family="Helvetica,sans-Serif" font-size="10.00">&#45; gyro_z_</text>
<text text-anchor="start" x="509" y="-434" font-family="Helvetica,sans-Serif" font-size="10.00">&#45; imu_watchdog_</text>
<polyline fill="none" stroke="black" points="501,-427 662,-427 "/>
<text text-anchor="start" x="509" y="-415" font-family="Helvetica,sans-Serif" font-size="10.00">+ ImuExtensionBase()</text>
<text text-anchor="start" x="509" y="-404" font-family="Helvetica,sans-Serif" font-size="10.00"># imuShutdown()</text>
<text text-anchor="start" x="509" y="-393" font-family="Helvetica,sans-Serif" font-size="10.00"># imuStartup()</text>
<text text-anchor="start" x="509" y="-382" font-family="Helvetica,sans-Serif" font-size="10.00"># readImu()</text>
<text text-anchor="start" x="509" y="-371" font-family="Helvetica,sans-Serif" font-size="10.00"># reportAccelData()</text>
<text text-anchor="start" x="509" y="-360" font-family="Helvetica,sans-Serif" font-size="10.00"># reportGyroData()</text>
<text text-anchor="start" x="509" y="-349" font-family="Helvetica,sans-Serif" font-size="10.00">&#45; loop()</text>
<text text-anchor="start" x="509" y="-338" font-family="Helvetica,sans-Serif" font-size="10.00">&#45; shutdown()</text>
<text text-anchor="start" x="509" y="-327" font-family="Helvetica,sans-Serif" font-size="10.00">&#45; startup()</text>
</a>
</g>
</g>
<!-- Node1&#45;&gt;Node6 -->
<g id="edge5" class="edge">
<title>Node1&#45;&gt;Node6</title>
<path fill="none" stroke="midnightblue" d="M1032.96,-759.22C934.63,-721.03 781.4,-652.18 671.5,-559 668.3,-556.28 665.14,-553.43 662.04,-550.47"/>
<polygon fill="none" stroke="midnightblue" points="1031.71,-762.49 1042.3,-762.82 1034.23,-755.96 1031.71,-762.49"/>
</g>
<!-- Node8 -->
<g id="node8" class="node">
<title>Node8</title>
<g id="a_node8"><a xlink:href="classextension_1_1PiCamera.html" target="_top" xlink:title="The PiCamera class is a simple extension that wraps around the libcamera&#45;apps executables.">
<polygon fill="none" stroke="black" points="680.5,-380.5 680.5,-492.5 798.5,-492.5 798.5,-380.5 680.5,-380.5"/>
<text text-anchor="middle" x="739.5" y="-480.5" font-family="Helvetica,sans-Serif" font-size="10.00">extension::PiCamera</text>
<polyline fill="none" stroke="black" points="680.5,-473.5 798.5,-473.5 "/>
<text text-anchor="start" x="688.5" y="-461.5" font-family="Helvetica,sans-Serif" font-size="10.00">&#45; capture_failures_</text>
<text text-anchor="start" x="688.5" y="-450.5" font-family="Helvetica,sans-Serif" font-size="10.00">&#45; image_dir_</text>
<polyline fill="none" stroke="black" points="680.5,-443.5 798.5,-443.5 "/>
<text text-anchor="start" x="688.5" y="-431.5" font-family="Helvetica,sans-Serif" font-size="10.00">+ PiCamera()</text>
<text text-anchor="start" x="688.5" y="-420.5" font-family="Helvetica,sans-Serif" font-size="10.00">+ loop()</text>
<text text-anchor="start" x="688.5" y="-409.5" font-family="Helvetica,sans-Serif" font-size="10.00">+ shutdown()</text>
<text text-anchor="start" x="688.5" y="-398.5" font-family="Helvetica,sans-Serif" font-size="10.00">+ startup()</text>
<text text-anchor="start" x="688.5" y="-387.5" font-family="Helvetica,sans-Serif" font-size="10.00">&#45; getImageName()</text>
</a>
</g>
</g>
<!-- Node1&#45;&gt;Node8 -->
<g id="edge7" class="edge">
<title>Node1&#45;&gt;Node8</title>
<path fill="none" stroke="midnightblue" d="M1033.58,-738.65C964.95,-696.02 873.58,-631.99 808.5,-559 791.06,-539.45 776.06,-514.77 764.54,-492.77"/>
<polygon fill="none" stroke="midnightblue" points="1031.91,-741.73 1042.25,-744 1035.58,-735.77 1031.91,-741.73"/>
</g>
<!-- Node9 -->
<g id="node9" class="node">
<title>Node9</title>
<g id="a_node9"><a xlink:href="classextension_1_1RgbStatusLed.html" target="_top" xlink:title="A simple extension to control an RGB status LED.">
<polygon fill="none" stroke="black" points="817,-347.5 817,-525.5 954,-525.5 954,-347.5 817,-347.5"/>
<text text-anchor="middle" x="885.5" y="-513.5" font-family="Helvetica,sans-Serif" font-size="10.00">extension::RgbStatusLed</text>
<polyline fill="none" stroke="black" points="817,-506.5 954,-506.5 "/>
<text text-anchor="start" x="825" y="-494.5" font-family="Helvetica,sans-Serif" font-size="10.00">&#45; blue_pin_</text>
<text text-anchor="start" x="825" y="-483.5" font-family="Helvetica,sans-Serif" font-size="10.00">&#45; current_blue_state_</text>
<text text-anchor="start" x="825" y="-472.5" font-family="Helvetica,sans-Serif" font-size="10.00">&#45; current_green_state_</text>
<text text-anchor="start" x="825" y="-461.5" font-family="Helvetica,sans-Serif" font-size="10.00">&#45; current_red_state_</text>
<text text-anchor="start" x="825" y="-450.5" font-family="Helvetica,sans-Serif" font-size="10.00">&#45; gpio_</text>
<text text-anchor="start" x="825" y="-439.5" font-family="Helvetica,sans-Serif" font-size="10.00">&#45; green_pin_</text>
<text text-anchor="start" x="825" y="-428.5" font-family="Helvetica,sans-Serif" font-size="10.00">&#45; red_pin_</text>
<text text-anchor="start" x="825" y="-417.5" font-family="Helvetica,sans-Serif" font-size="10.00">&#45; status_led_</text>
<polyline fill="none" stroke="black" points="817,-410.5 954,-410.5 "/>
<text text-anchor="start" x="825" y="-398.5" font-family="Helvetica,sans-Serif" font-size="10.00">+ RgbStatusLed()</text>
<text text-anchor="start" x="825" y="-387.5" font-family="Helvetica,sans-Serif" font-size="10.00">+ ~RgbStatusLed()</text>
<text text-anchor="start" x="825" y="-376.5" font-family="Helvetica,sans-Serif" font-size="10.00">+ loop()</text>
<text text-anchor="start" x="825" y="-365.5" font-family="Helvetica,sans-Serif" font-size="10.00">+ shutdown()</text>
<text text-anchor="start" x="825" y="-354.5" font-family="Helvetica,sans-Serif" font-size="10.00">+ startup()</text>
</a>
</g>
</g>
<!-- Node1&#45;&gt;Node9 -->
<g id="edge8" class="edge">
<title>Node1&#45;&gt;Node9</title>
<path fill="none" stroke="midnightblue" d="M1036.22,-663.95C1012.22,-630.01 986.64,-593.31 963.5,-559 956.28,-548.3 948.81,-536.98 941.48,-525.74"/>
<polygon fill="none" stroke="midnightblue" points="1033.65,-666.38 1042.29,-672.52 1039.36,-662.34 1033.65,-666.38"/>
</g>
<!-- Node10 -->
<g id="node10" class="node">
<title>Node10</title>
<g id="a_node10"><a xlink:href="classextension_1_1SamM8q.html" target="_top" xlink:title=" ">
<polygon fill="none" stroke="black" points="972,-314.5 972,-558.5 1123,-558.5 1123,-314.5 972,-314.5"/>
<text text-anchor="middle" x="1047.5" y="-546.5" font-family="Helvetica,sans-Serif" font-size="10.00">extension::SamM8q</text>
<polyline fill="none" stroke="black" points="972,-539.5 1123,-539.5 "/>
<text text-anchor="start" x="980" y="-527.5" font-family="Helvetica,sans-Serif" font-size="10.00">&#45; configure_attempts_</text>
<text text-anchor="start" x="980" y="-516.5" font-family="Helvetica,sans-Serif" font-size="10.00">&#45; i2c_</text>
<text text-anchor="start" x="980" y="-505.5" font-family="Helvetica,sans-Serif" font-size="10.00">&#45; primary_watchdog_timer_</text>
<text text-anchor="start" x="980" y="-494.5" font-family="Helvetica,sans-Serif" font-size="10.00">&#45; read_state_</text>
<text text-anchor="start" x="980" y="-483.5" font-family="Helvetica,sans-Serif" font-size="10.00">&#45; read_watchdog_timer_</text>
<text text-anchor="start" x="980" y="-472.5" font-family="Helvetica,sans-Serif" font-size="10.00">&#45; reset_attempts_</text>
<text text-anchor="start" x="980" y="-461.5" font-family="Helvetica,sans-Serif" font-size="10.00">&#45; reset_state_</text>
<text text-anchor="start" x="980" y="-450.5" font-family="Helvetica,sans-Serif" font-size="10.00">&#45; reset_wait_timer_</text>
<text text-anchor="start" x="980" y="-439.5" font-family="Helvetica,sans-Serif" font-size="10.00">&#45; state_</text>
<polyline fill="none" stroke="black" points="972,-432.5 1123,-432.5 "/>
<text text-anchor="start" x="980" y="-420.5" font-family="Helvetica,sans-Serif" font-size="10.00">+ SamM8q()</text>
<text text-anchor="start" x="980" y="-409.5" font-family="Helvetica,sans-Serif" font-size="10.00">+ loop()</text>
<text text-anchor="start" x="980" y="-398.5" font-family="Helvetica,sans-Serif" font-size="10.00">+ shutdown()</text>
<text text-anchor="start" x="980" y="-387.5" font-family="Helvetica,sans-Serif" font-size="10.00">+ startup()</text>
<text text-anchor="start" x="980" y="-376.5" font-family="Helvetica,sans-Serif" font-size="10.00">&#45; handshake()</text>
<text text-anchor="start" x="980" y="-365.5" font-family="Helvetica,sans-Serif" font-size="10.00">&#45; resetSensor()</text>
<text text-anchor="start" x="980" y="-354.5" font-family="Helvetica,sans-Serif" font-size="10.00">&#45; stateConfigure()</text>
<text text-anchor="start" x="980" y="-343.5" font-family="Helvetica,sans-Serif" font-size="10.00">&#45; stateRead()</text>
<text text-anchor="start" x="980" y="-332.5" font-family="Helvetica,sans-Serif" font-size="10.00">&#45; stateReset()</text>
<text text-anchor="start" x="980" y="-321.5" font-family="Helvetica,sans-Serif" font-size="10.00">&#45; transitionState()</text>
</a>
</g>
</g>
<!-- Node1&#45;&gt;Node10 -->
<g id="edge9" class="edge">
<title>Node1&#45;&gt;Node10</title>
<path fill="none" stroke="midnightblue" d="M1081.6,-585.56C1079.51,-576.47 1077.44,-567.48 1075.42,-558.7"/>
<polygon fill="none" stroke="midnightblue" points="1078.23,-586.5 1083.88,-595.46 1085.05,-584.93 1078.23,-586.5"/>
</g>
<!-- Node11 -->
<g id="node11" class="node">
<title>Node11</title>
<g id="a_node11"><a xlink:href="classextension_1_1SimAdcSensor.html" target="_top" xlink:title=" ">
<polygon fill="none" stroke="black" points="1141.5,-402.5 1141.5,-470.5 1281.5,-470.5 1281.5,-402.5 1141.5,-402.5"/>
<text text-anchor="middle" x="1211.5" y="-458.5" font-family="Helvetica,sans-Serif" font-size="10.00">extension::SimAdcSensor</text>
<polyline fill="none" stroke="black" points="1141.5,-451.5 1281.5,-451.5 "/>
<text text-anchor="middle" x="1211.5" y="-439.5" font-family="Helvetica,sans-Serif" font-size="10.00"> </text>
<polyline fill="none" stroke="black" points="1141.5,-432.5 1281.5,-432.5 "/>
<text text-anchor="start" x="1149.5" y="-420.5" font-family="Helvetica,sans-Serif" font-size="10.00">+ SimAdcSensor()</text>
<text text-anchor="start" x="1149.5" y="-409.5" font-family="Helvetica,sans-Serif" font-size="10.00">+ loop()</text>
</a>
</g>
</g>
<!-- Node1&#45;&gt;Node11 -->
<g id="edge10" class="edge">
<title>Node1&#45;&gt;Node11</title>
<path fill="none" stroke="midnightblue" d="M1177.4,-585.56C1187.72,-540.76 1197.44,-498.56 1203.84,-470.76"/>
<polygon fill="none" stroke="midnightblue" points="1173.95,-584.93 1175.12,-595.46 1180.77,-586.5 1173.95,-584.93"/>
</g>
<!-- Node12 -->
<g id="node12" class="node">
<title>Node12</title>
<g id="a_node12"><a xlink:href="classextension_1_1SimCamera.html" target="_top" xlink:title=" ">
<polygon fill="none" stroke="black" points="1299.5,-402.5 1299.5,-470.5 1427.5,-470.5 1427.5,-402.5 1299.5,-402.5"/>
<text text-anchor="middle" x="1363.5" y="-458.5" font-family="Helvetica,sans-Serif" font-size="10.00">extension::SimCamera</text>
<polyline fill="none" stroke="black" points="1299.5,-451.5 1427.5,-451.5 "/>
<text text-anchor="start" x="1307.5" y="-439.5" font-family="Helvetica,sans-Serif" font-size="10.00">&#45; image_dir_</text>
<polyline fill="none" stroke="black" points="1299.5,-432.5 1427.5,-432.5 "/>
<text text-anchor="start" x="1307.5" y="-420.5" font-family="Helvetica,sans-Serif" font-size="10.00">+ SimCamera()</text>
<text text-anchor="start" x="1307.5" y="-409.5" font-family="Helvetica,sans-Serif" font-size="10.00">+ loop()</text>
</a>
</g>
</g>
<!-- Node1&#45;&gt;Node12 -->
<g id="edge11" class="edge">
<title>Node1&#45;&gt;Node12</title>
<path fill="none" stroke="midnightblue" d="M1222.3,-661.33C1245.01,-628.18 1268.96,-592.51 1290.5,-559 1309.46,-529.5 1329.93,-495.2 1344.36,-470.58"/>
<polygon fill="none" stroke="midnightblue" points="1219.33,-659.47 1216.56,-669.7 1225.11,-663.43 1219.33,-659.47"/>
</g>
<!-- Node13 -->
<g id="node13" class="node">
<title>Node13</title>
<g id="a_node13"><a xlink:href="classextension_1_1SimGpsSensor.html" target="_top" xlink:title=" ">
<polygon fill="none" stroke="black" points="1446,-402.5 1446,-470.5 1587,-470.5 1587,-402.5 1446,-402.5"/>
<text text-anchor="middle" x="1516.5" y="-458.5" font-family="Helvetica,sans-Serif" font-size="10.00">extension::SimGpsSensor</text>
<polyline fill="none" stroke="black" points="1446,-451.5 1587,-451.5 "/>
<text text-anchor="middle" x="1516.5" y="-439.5" font-family="Helvetica,sans-Serif" font-size="10.00"> </text>
<polyline fill="none" stroke="black" points="1446,-432.5 1587,-432.5 "/>
<text text-anchor="start" x="1454" y="-420.5" font-family="Helvetica,sans-Serif" font-size="10.00">+ SimGpsSensor()</text>
<text text-anchor="start" x="1454" y="-409.5" font-family="Helvetica,sans-Serif" font-size="10.00">+ loop()</text>
</a>
</g>
</g>
<!-- Node1&#45;&gt;Node13 -->
<g id="edge12" class="edge">
<title>Node1&#45;&gt;Node13</title>
<path fill="none" stroke="midnightblue" d="M1225.08,-732.93C1289.33,-689.38 1373.47,-626.6 1436.5,-559 1461.64,-532.03 1484.13,-496.3 1498.81,-470.58"/>
<polygon fill="none" stroke="midnightblue" points="1222.89,-730.19 1216.55,-738.68 1226.8,-736 1222.89,-730.19"/>
</g>
<!-- Node14 -->
<g id="node14" class="node">
<title>Node14</title>
<g id="a_node14"><a xlink:href="classextension_1_1SimHumiditySensor.html" target="_top" xlink:title=" ">
<polygon fill="none" stroke="black" points="1605,-402.5 1605,-470.5 1772,-470.5 1772,-402.5 1605,-402.5"/>
<text text-anchor="middle" x="1688.5" y="-458.5" font-family="Helvetica,sans-Serif" font-size="10.00">extension::SimHumiditySensor</text>
<polyline fill="none" stroke="black" points="1605,-451.5 1772,-451.5 "/>
<text text-anchor="middle" x="1688.5" y="-439.5" font-family="Helvetica,sans-Serif" font-size="10.00"> </text>
<polyline fill="none" stroke="black" points="1605,-432.5 1772,-432.5 "/>
<text text-anchor="start" x="1613" y="-420.5" font-family="Helvetica,sans-Serif" font-size="10.00">+ SimHumiditySensor()</text>
<text text-anchor="start" x="1613" y="-409.5" font-family="Helvetica,sans-Serif" font-size="10.00">+ loop()</text>
</a>
</g>
</g>
<!-- Node1&#45;&gt;Node14 -->
<g id="edge13" class="edge">
<title>Node1&#45;&gt;Node14</title>
<path fill="none" stroke="midnightblue" d="M1226.41,-759.91C1326.48,-721.96 1483.51,-653.02 1596.5,-559 1626.6,-533.95 1652.65,-497.26 1669.27,-470.75"/>
<polygon fill="none" stroke="midnightblue" points="1225.04,-756.69 1216.91,-763.48 1227.5,-763.24 1225.04,-756.69"/>
</g>
<!-- Node15 -->
<g id="node15" class="node">
<title>Node15</title>
<g id="a_node15"><a xlink:href="classextension_1_1SimImuSensor.html" target="_top" xlink:title=" ">
<polygon fill="none" stroke="black" points="1790,-402.5 1790,-470.5 1931,-470.5 1931,-402.5 1790,-402.5"/>
<text text-anchor="middle" x="1860.5" y="-458.5" font-family="Helvetica,sans-Serif" font-size="10.00">extension::SimImuSensor</text>
<polyline fill="none" stroke="black" points="1790,-451.5 1931,-451.5 "/>
<text text-anchor="start" x="1798" y="-439.5" font-family="Helvetica,sans-Serif" font-size="10.00">&#45; increasing_</text>
<polyline fill="none" stroke="black" points="1790,-432.5 1931,-432.5 "/>
<text text-anchor="start" x="1798" y="-420.5" font-family="Helvetica,sans-Serif" font-size="10.00">+ SimImuSensor()</text>
<text text-anchor="start" x="1798" y="-409.5" font-family="Helvetica,sans-Serif" font-size="10.00">+ loop()</text>
</a>
</g>
</g>
<!-- Node1&#45;&gt;Node15 -->
<g id="edge14" class="edge">
<title>Node1&#45;&gt;Node15</title>
<path fill="none" stroke="midnightblue" d="M1226.79,-778.6C1363.18,-753.57 1613.36,-692.14 1781.5,-559 1811.09,-535.57 1833.12,-497.88 1846.3,-470.69"/>
<polygon fill="none" stroke="midnightblue" points="1225.98,-775.19 1216.76,-780.41 1227.23,-782.08 1225.98,-775.19"/>
</g>
<!-- Node16 -->
<g id="node16" class="node">
<title>Node16</title>
<g id="a_node16"><a xlink:href="classextension_1_1SimPressureSensor.html" target="_top" xlink:title=" ">
<polygon fill="none" stroke="black" points="1949.5,-402.5 1949.5,-470.5 2113.5,-470.5 2113.5,-402.5 1949.5,-402.5"/>
<text text-anchor="middle" x="2031.5" y="-458.5" font-family="Helvetica,sans-Serif" font-size="10.00">extension::SimPressureSensor</text>
<polyline fill="none" stroke="black" points="1949.5,-451.5 2113.5,-451.5 "/>
<text text-anchor="middle" x="2031.5" y="-439.5" font-family="Helvetica,sans-Serif" font-size="10.00"> </text>
<polyline fill="none" stroke="black" points="1949.5,-432.5 2113.5,-432.5 "/>
<text text-anchor="start" x="1957.5" y="-420.5" font-family="Helvetica,sans-Serif" font-size="10.00">+ SimPressureSensor()</text>
<text text-anchor="start" x="1957.5" y="-409.5" font-family="Helvetica,sans-Serif" font-size="10.00">+ loop()</text>
</a>
</g>
</g>
<!-- Node1&#45;&gt;Node16 -->
<g id="edge15" class="edge">
<title>Node1&#45;&gt;Node16</title>
<path fill="none" stroke="midnightblue" d="M1227.2,-785.33C1388.73,-767.71 1715.89,-714.23 1940.5,-559 1973.24,-536.38 1999.02,-498.17 2014.65,-470.63"/>
<polygon fill="none" stroke="midnightblue" points="1226.38,-781.9 1216.81,-786.44 1227.12,-788.86 1226.38,-781.9"/>
</g>
<!-- Node17 -->
<g id="node17" class="node">
<title>Node17</title>
<g id="a_node17"><a xlink:href="classextension_1_1SimTemperatureSensor.html" target="_top" xlink:title=" ">
<polygon fill="none" stroke="black" points="2132,-397 2132,-476 2283,-476 2283,-397 2132,-397"/>
<text text-anchor="start" x="2140" y="-464" font-family="Helvetica,sans-Serif" font-size="10.00">extension::SimTemperature</text>
<text text-anchor="middle" x="2207.5" y="-453" font-family="Helvetica,sans-Serif" font-size="10.00">Sensor</text>
<polyline fill="none" stroke="black" points="2132,-446 2283,-446 "/>
<text text-anchor="middle" x="2207.5" y="-434" font-family="Helvetica,sans-Serif" font-size="10.00"> </text>
<polyline fill="none" stroke="black" points="2132,-427 2283,-427 "/>
<text text-anchor="start" x="2140" y="-415" font-family="Helvetica,sans-Serif" font-size="10.00">+ SimTemperatureSensor()</text>
<text text-anchor="start" x="2140" y="-404" font-family="Helvetica,sans-Serif" font-size="10.00">+ loop()</text>
</a>
</g>
</g>
<!-- Node1&#45;&gt;Node17 -->
<g id="edge16" class="edge">
<title>Node1&#45;&gt;Node17</title>
<path fill="none" stroke="midnightblue" d="M1226.9,-792.82C1415.87,-787.01 1838.59,-751.63 2122.5,-559 2152.75,-538.48 2175.59,-503.34 2189.94,-476.11"/>
<polygon fill="none" stroke="midnightblue" points="1226.6,-789.33 1216.71,-793.11 1226.8,-796.32 1226.6,-789.33"/>
</g>
<!-- Node3 -->
<g id="node3" class="node">
<title>Node3</title>
<g id="a_node3"><a xlink:href="classextension_1_1Mcp3021.html" target="_top" xlink:title=" ">
<polygon fill="none" stroke="black" points="23,-94 23,-184 138,-184 138,-94 23,-94"/>
<text text-anchor="middle" x="80.5" y="-172" font-family="Helvetica,sans-Serif" font-size="10.00">extension::Mcp3021</text>
<polyline fill="none" stroke="black" points="23,-165 138,-165 "/>
<text text-anchor="middle" x="80.5" y="-153" font-family="Helvetica,sans-Serif" font-size="10.00"> </text>
<polyline fill="none" stroke="black" points="23,-146 138,-146 "/>
<text text-anchor="start" x="31" y="-134" font-family="Helvetica,sans-Serif" font-size="10.00">+ Mcp3021()</text>
<text text-anchor="start" x="31" y="-123" font-family="Helvetica,sans-Serif" font-size="10.00">&#45; adcStartup()</text>
<text text-anchor="start" x="31" y="-112" font-family="Helvetica,sans-Serif" font-size="10.00">&#45; i2cHandshake()</text>
<text text-anchor="start" x="31" y="-101" font-family="Helvetica,sans-Serif" font-size="10.00">&#45; readAdc()</text>
</a>
</g>
</g>
<!-- Node2&#45;&gt;Node3 -->
<g id="edge2" class="edge">
<title>Node2&#45;&gt;Node3</title>
<path fill="none" stroke="midnightblue" d="M80.5,-359.03C80.5,-303.47 80.5,-230.23 80.5,-184.11"/>
<polygon fill="none" stroke="midnightblue" points="77,-359.18 80.5,-369.18 84,-359.18 77,-359.18"/>
</g>
<!-- Node7 -->
<g id="node7" class="node">
<title>Node7</title>
<g id="a_node7"><a xlink:href="classextension_1_1Bmi088.html" target="_top" xlink:title="The BMI088 extension.">
<polygon fill="none" stroke="black" points="508,-0.5 508,-277.5 655,-277.5 655,-0.5 508,-0.5"/>
<text text-anchor="middle" x="581.5" y="-265.5" font-family="Helvetica,sans-Serif" font-size="10.00">extension::Bmi088</text>
<polyline fill="none" stroke="black" points="508,-258.5 655,-258.5 "/>
<text text-anchor="start" x="516" y="-246.5" font-family="Helvetica,sans-Serif" font-size="10.00">&#45; acc_range_</text>
<text text-anchor="start" x="516" y="-235.5" font-family="Helvetica,sans-Serif" font-size="10.00">&#45; acc_range_value_</text>
<text text-anchor="start" x="516" y="-224.5" font-family="Helvetica,sans-Serif" font-size="10.00">&#45; accel_address_</text>
<text text-anchor="start" x="516" y="-213.5" font-family="Helvetica,sans-Serif" font-size="10.00">&#45; gyro_address_</text>
<text text-anchor="start" x="516" y="-202.5" font-family="Helvetica,sans-Serif" font-size="10.00">&#45; spi_accel_</text>
<text text-anchor="start" x="516" y="-191.5" font-family="Helvetica,sans-Serif" font-size="10.00">&#45; spi_gyro_</text>
<polyline fill="none" stroke="black" points="508,-184.5 655,-184.5 "/>
<text text-anchor="start" x="516" y="-172.5" font-family="Helvetica,sans-Serif" font-size="10.00">+ Bmi088()</text>
<text text-anchor="start" x="516" y="-161.5" font-family="Helvetica,sans-Serif" font-size="10.00">+ ~Bmi088()</text>
<text text-anchor="start" x="516" y="-150.5" font-family="Helvetica,sans-Serif" font-size="10.00">+ imuStartup()</text>
<text text-anchor="start" x="516" y="-139.5" font-family="Helvetica,sans-Serif" font-size="10.00">+ readImu()</text>
<text text-anchor="start" x="516" y="-128.5" font-family="Helvetica,sans-Serif" font-size="10.00">&#45; accHandshake()</text>
<text text-anchor="start" x="516" y="-117.5" font-family="Helvetica,sans-Serif" font-size="10.00">&#45; accSetConf()</text>
<text text-anchor="start" x="516" y="-106.5" font-family="Helvetica,sans-Serif" font-size="10.00">&#45; accSetPower()</text>
<text text-anchor="start" x="516" y="-95.5" font-family="Helvetica,sans-Serif" font-size="10.00">&#45; accSetRange()</text>
<text text-anchor="start" x="516" y="-84.5" font-family="Helvetica,sans-Serif" font-size="10.00">&#45; accSoftReset()</text>
<text text-anchor="start" x="516" y="-73.5" font-family="Helvetica,sans-Serif" font-size="10.00">&#45; accWriteByte()</text>
<text text-anchor="start" x="516" y="-62.5" font-family="Helvetica,sans-Serif" font-size="10.00">&#45; configureAccelerometer()</text>
<text text-anchor="start" x="516" y="-51.5" font-family="Helvetica,sans-Serif" font-size="10.00">&#45; configureGyro()</text>
<text text-anchor="start" x="516" y="-40.5" font-family="Helvetica,sans-Serif" font-size="10.00">&#45; gyroHandshake()</text>
<text text-anchor="start" x="516" y="-29.5" font-family="Helvetica,sans-Serif" font-size="10.00">&#45; gyroWriteByte()</text>
<text text-anchor="start" x="516" y="-18.5" font-family="Helvetica,sans-Serif" font-size="10.00">&#45; readAccelData()</text>
<text text-anchor="start" x="516" y="-7.5" font-family="Helvetica,sans-Serif" font-size="10.00">&#45; readGyroData()</text>
</a>
</g>
</g>
<!-- Node6&#45;&gt;Node7 -->
<g id="edge6" class="edge">
<title>Node6&#45;&gt;Node7</title>
<path fill="none" stroke="midnightblue" d="M581.5,-309.8C581.5,-299.13 581.5,-288.3 581.5,-277.54"/>
<polygon fill="none" stroke="midnightblue" points="578,-309.98 581.5,-319.98 585,-309.98 578,-309.98"/>
</g>
</g>
</svg>
