<?xml version="1.0" encoding="UTF-8" standalone="no"?>
<!DOCTYPE svg PUBLIC "-//W3C//DTD SVG 1.1//EN"
 "http://www.w3.org/Graphics/SVG/1.1/DTD/svg11.dtd">
<!-- Generated by graphviz version 2.43.0 (0)
 -->
<!-- Title: data::LogStream::info Pages: 1 -->
<svg width="1477pt" height="649pt"
 viewBox="0.00 0.00 1477.00 648.50" xmlns="http://www.w3.org/2000/svg" xmlns:xlink="http://www.w3.org/1999/xlink">
<g id="graph0" class="graph" transform="scale(1 1) rotate(0) translate(4 644.5)">
<title>data::LogStream::info</title>
<!-- Node1 -->
<g id="node1" class="node">
<title>Node1</title>
<g id="a_node1"><a xlink:title=" ">
<polygon fill="#bfbfbf" stroke="black" points="1347,-480.5 1347,-499.5 1469,-499.5 1469,-480.5 1347,-480.5"/>
<text text-anchor="middle" x="1408" y="-487.5" font-family="Helvetica,sans-Serif" font-size="10.00">data::LogStream::info</text>
</a>
</g>
</g>
<!-- Node2 -->
<g id="node2" class="node">
<title>Node2</title>
<g id="a_node2"><a xlink:href="classdata_1_1LogStream.html#ad1cf22d3ef9249fd5818bd00a41b4425" target="_top" xlink:title=" ">
<polygon fill="none" stroke="black" points="1178,-480.5 1178,-499.5 1311,-499.5 1311,-480.5 1178,-480.5"/>
<text text-anchor="middle" x="1244.5" y="-487.5" font-family="Helvetica,sans-Serif" font-size="10.00">data::LogStream::debug</text>
</a>
</g>
</g>
<!-- Node1&#45;&gt;Node2 -->
<g id="edge1" class="edge">
<title>Node1&#45;&gt;Node2</title>
<path fill="none" stroke="midnightblue" d="M1336.62,-490C1328.15,-490 1319.51,-490 1311.11,-490"/>
<polygon fill="midnightblue" stroke="midnightblue" points="1336.86,-493.5 1346.86,-490 1336.86,-486.5 1336.86,-493.5"/>
</g>
<!-- Node7 -->
<g id="node7" class="node">
<title>Node7</title>
<g id="a_node7"><a xlink:href="classdata_1_1LogStream.html#a18af3025ca8f1e60e5bd795f10b6c8b1" target="_top" xlink:title=" ">
<polygon fill="none" stroke="black" points="1181.5,-249.5 1181.5,-268.5 1307.5,-268.5 1307.5,-249.5 1181.5,-249.5"/>
<text text-anchor="middle" x="1244.5" y="-256.5" font-family="Helvetica,sans-Serif" font-size="10.00">data::LogStream::error</text>
</a>
</g>
</g>
<!-- Node1&#45;&gt;Node7 -->
<g id="edge6" class="edge">
<title>Node1&#45;&gt;Node7</title>
<path fill="none" stroke="midnightblue" d="M1394.36,-471.92C1361.99,-425.61 1276.88,-303.89 1252.26,-268.67"/>
<polygon fill="midnightblue" stroke="midnightblue" points="1391.67,-474.18 1400.27,-480.37 1397.4,-470.17 1391.67,-474.18"/>
</g>
<!-- Node33 -->
<g id="node33" class="node">
<title>Node33</title>
<g id="a_node33"><a xlink:href="classgiraffe_1_1Logger.html#af8465c2895fd50680183e36e093e66e3" target="_top" xlink:title=" ">
<polygon fill="none" stroke="black" points="1188.5,-532.5 1188.5,-551.5 1300.5,-551.5 1300.5,-532.5 1188.5,-532.5"/>
<text text-anchor="middle" x="1244.5" y="-539.5" font-family="Helvetica,sans-Serif" font-size="10.00">giraffe::Logger::info</text>
</a>
</g>
</g>
<!-- Node1&#45;&gt;Node33 -->
<g id="edge36" class="edge">
<title>Node1&#45;&gt;Node33</title>
<path fill="none" stroke="midnightblue" d="M1367.72,-502.65C1339.21,-511.83 1301.22,-524.06 1275.21,-532.43"/>
<polygon fill="midnightblue" stroke="midnightblue" points="1368.93,-505.93 1377.38,-499.54 1366.79,-499.27 1368.93,-505.93"/>
</g>
<!-- Node3 -->
<g id="node3" class="node">
<title>Node3</title>
<g id="a_node3"><a xlink:href="classgiraffe_1_1Logger.html#a33d3b3b0d74e2a642fd6234915744ea2" target="_top" xlink:title=" ">
<polygon fill="none" stroke="black" points="991.5,-480.5 991.5,-499.5 1114.5,-499.5 1114.5,-480.5 991.5,-480.5"/>
<text text-anchor="middle" x="1053" y="-487.5" font-family="Helvetica,sans-Serif" font-size="10.00">giraffe::Logger::debug</text>
</a>
</g>
</g>
<!-- Node2&#45;&gt;Node3 -->
<g id="edge2" class="edge">
<title>Node2&#45;&gt;Node3</title>
<path fill="none" stroke="midnightblue" d="M1167.51,-490C1149.9,-490 1131.39,-490 1114.55,-490"/>
<polygon fill="midnightblue" stroke="midnightblue" points="1167.75,-493.5 1177.75,-490 1167.75,-486.5 1167.75,-493.5"/>
</g>
<!-- Node4 -->
<g id="node4" class="node">
<title>Node4</title>
<g id="a_node4"><a xlink:href="classdata__middleware_1_1CalculatedData.html#a21515bd355a6df0c8888d61862588ca1" target="_top" xlink:title="Calculate the distance traveled and the distance from the launch. Called by updatePositionalData()">
<polygon fill="none" stroke="black" points="754.5,-512 754.5,-542 913.5,-542 913.5,-512 754.5,-512"/>
<text text-anchor="start" x="762.5" y="-530" font-family="Helvetica,sans-Serif" font-size="10.00">data_middleware::Calculated</text>
<text text-anchor="middle" x="834" y="-519" font-family="Helvetica,sans-Serif" font-size="10.00">Data::calculateDistanceData</text>
</a>
</g>
</g>
<!-- Node3&#45;&gt;Node4 -->
<g id="edge3" class="edge">
<title>Node3&#45;&gt;Node4</title>
<path fill="none" stroke="midnightblue" d="M986.17,-501.22C963.29,-505.13 937.4,-509.54 913.59,-513.6"/>
<polygon fill="midnightblue" stroke="midnightblue" points="986.85,-504.66 996.12,-499.53 985.67,-497.76 986.85,-504.66"/>
</g>
<!-- Node6 -->
<g id="node6" class="node">
<title>Node6</title>
<g id="a_node6"><a xlink:href="group__ServerModule.html#ad77e0ae3d2cd0daba1388e7d7ffa1393" target="_top" xlink:title="This function is responsible for parsing a request and routing it to the right place.">
<polygon fill="none" stroke="black" points="748.5,-473.5 748.5,-492.5 919.5,-492.5 919.5,-473.5 748.5,-473.5"/>
<text text-anchor="middle" x="834" y="-480.5" font-family="Helvetica,sans-Serif" font-size="10.00">RequestRouter::handleMessage</text>
</a>
</g>
</g>
<!-- Node3&#45;&gt;Node6 -->
<g id="edge5" class="edge">
<title>Node3&#45;&gt;Node6</title>
<path fill="none" stroke="midnightblue" d="M981.18,-487.72C961.53,-487.08 940,-486.39 919.65,-485.73"/>
<polygon fill="midnightblue" stroke="midnightblue" points="981.16,-491.22 991.26,-488.04 981.38,-484.22 981.16,-491.22"/>
</g>
<!-- Node5 -->
<g id="node5" class="node">
<title>Node5</title>
<g id="a_node5"><a xlink:href="classdata__middleware_1_1CalculatedData.html#a5cb61a2d8469642c34b8f63c0f86d3fe" target="_top" xlink:title="Update the calculated data and store it in the shared data.">
<polygon fill="none" stroke="black" points="530.5,-512 530.5,-542 689.5,-542 689.5,-512 530.5,-512"/>
<text text-anchor="start" x="538.5" y="-530" font-family="Helvetica,sans-Serif" font-size="10.00">data_middleware::Calculated</text>
<text text-anchor="middle" x="610" y="-519" font-family="Helvetica,sans-Serif" font-size="10.00">Data::addPositionalData</text>
</a>
</g>
</g>
<!-- Node4&#45;&gt;Node5 -->
<g id="edge4" class="edge">
<title>Node4&#45;&gt;Node5</title>
<path fill="none" stroke="midnightblue" d="M744.23,-527C726.25,-527 707.46,-527 689.85,-527"/>
<polygon fill="midnightblue" stroke="midnightblue" points="744.42,-530.5 754.42,-527 744.42,-523.5 744.42,-530.5"/>
</g>
<!-- Node8 -->
<g id="node8" class="node">
<title>Node8</title>
<g id="a_node8"><a xlink:href="classcfg_1_1CfgSection.html#a3e0d985ac655cf1a00357995f9983942" target="_top" xlink:title="Logs a debug message.">
<polygon fill="none" stroke="black" points="993.5,-249.5 993.5,-268.5 1112.5,-268.5 1112.5,-249.5 993.5,-249.5"/>
<text text-anchor="middle" x="1053" y="-256.5" font-family="Helvetica,sans-Serif" font-size="10.00">cfg::CfgSection::error</text>
</a>
</g>
</g>
<!-- Node7&#45;&gt;Node8 -->
<g id="edge7" class="edge">
<title>Node7&#45;&gt;Node8</title>
<path fill="none" stroke="midnightblue" d="M1171.44,-259C1152.01,-259 1131.24,-259 1112.65,-259"/>
<polygon fill="midnightblue" stroke="midnightblue" points="1171.45,-262.5 1181.45,-259 1171.45,-255.5 1171.45,-262.5"/>
</g>
<!-- Node18 -->
<g id="node18" class="node">
<title>Node18</title>
<g id="a_node18"><a xlink:href="classgiraffe_1_1Logger.html#a2947dae610f76345978c81132ea84edc" target="_top" xlink:title=" ">
<polygon fill="none" stroke="black" points="995,-559.5 995,-578.5 1111,-578.5 1111,-559.5 995,-559.5"/>
<text text-anchor="middle" x="1053" y="-566.5" font-family="Helvetica,sans-Serif" font-size="10.00">giraffe::Logger::error</text>
</a>
</g>
</g>
<!-- Node7&#45;&gt;Node18 -->
<g id="edge17" class="edge">
<title>Node7&#45;&gt;Node18</title>
<path fill="none" stroke="midnightblue" d="M1239.64,-278.53C1229.97,-323.43 1201.12,-435.74 1142,-509 1123.65,-531.74 1094.43,-549.26 1074.75,-559.35"/>
<polygon fill="midnightblue" stroke="midnightblue" points="1243.09,-279.14 1241.69,-268.64 1236.24,-277.72 1243.09,-279.14"/>
</g>
<!-- Node27 -->
<g id="node27" class="node">
<title>Node27</title>
<g id="a_node27"><a xlink:href="group__ServerModule.html#a959bc2e0cb68a835d4304e1204f64c69" target="_top" xlink:title="This function parses a command request, sends it to the command queue and sends a simple response bac...">
<polygon fill="none" stroke="black" points="964,-288 964,-318 1142,-318 1142,-288 964,-288"/>
<text text-anchor="start" x="972" y="-306" font-family="Helvetica,sans-Serif" font-size="10.00">RequestRouter::handleCommand</text>
<text text-anchor="middle" x="1053" y="-295" font-family="Helvetica,sans-Serif" font-size="10.00">Request</text>
</a>
</g>
</g>
<!-- Node7&#45;&gt;Node27 -->
<g id="edge27" class="edge">
<title>Node7&#45;&gt;Node27</title>
<path fill="none" stroke="midnightblue" d="M1192.62,-270.81C1169.95,-276.08 1142.98,-282.34 1118.88,-287.93"/>
<polygon fill="midnightblue" stroke="midnightblue" points="1193.43,-274.22 1202.38,-268.55 1191.85,-267.4 1193.43,-274.22"/>
</g>
<!-- Node28 -->
<g id="node28" class="node">
<title>Node28</title>
<g id="a_node28"><a xlink:href="classFlightRunner.html#ad17d6bcd13dcb824062d97b36ec7fa96" target="_top" xlink:title="Process commands that are sent to the flight runner.">
<polygon fill="none" stroke="black" points="747.5,-19.5 747.5,-38.5 920.5,-38.5 920.5,-19.5 747.5,-19.5"/>
<text text-anchor="middle" x="834" y="-26.5" font-family="Helvetica,sans-Serif" font-size="10.00">FlightRunner::processCommand</text>
</a>
</g>
</g>
<!-- Node7&#45;&gt;Node28 -->
<g id="edge29" class="edge">
<title>Node7&#45;&gt;Node28</title>
<path fill="none" stroke="midnightblue" d="M1239.49,-239.54C1230.16,-199.7 1203,-109.07 1142,-67 1107.13,-42.95 998.66,-34.11 920.54,-30.87"/>
<polygon fill="midnightblue" stroke="midnightblue" points="1236.08,-240.34 1241.66,-249.34 1242.91,-238.82 1236.08,-240.34"/>
</g>
<!-- Node29 -->
<g id="node29" class="node">
<title>Node29</title>
<g id="a_node29"><a xlink:href="classFlightRunner.html#a6407ba5e7fca2d91a216ab35e58fd7b3" target="_top" xlink:title="Sends a command to the proper module.">
<polygon fill="none" stroke="black" points="529.5,-38.5 529.5,-57.5 690.5,-57.5 690.5,-38.5 529.5,-38.5"/>
<text text-anchor="middle" x="610" y="-45.5" font-family="Helvetica,sans-Serif" font-size="10.00">FlightRunner::routeCommand</text>
</a>
</g>
</g>
<!-- Node7&#45;&gt;Node29 -->
<g id="edge31" class="edge">
<title>Node7&#45;&gt;Node29</title>
<path fill="none" stroke="midnightblue" d="M1217,-244.38C1141.74,-202.88 931.9,-87.25 928,-86 849.75,-60.9 755.82,-52.13 690.62,-49.19"/>
<polygon fill="midnightblue" stroke="midnightblue" points="1215.44,-247.52 1225.89,-249.28 1218.82,-241.39 1215.44,-247.52"/>
</g>
<!-- Node30 -->
<g id="node30" class="node">
<title>Node30</title>
<g id="a_node30"><a xlink:href="classFlightRunner.html#aa9506cddd9057a4fc3f1b43a15f4d8f9" target="_top" xlink:title="Called when transitioning from pre&#45;launch to launch phase. Sets the launch position in shared data an...">
<polygon fill="none" stroke="black" points="966.5,-0.5 966.5,-19.5 1139.5,-19.5 1139.5,-0.5 966.5,-0.5"/>
<text text-anchor="middle" x="1053" y="-7.5" font-family="Helvetica,sans-Serif" font-size="10.00">FlightRunner::setLaunchPosition</text>
</a>
</g>
</g>
<!-- Node7&#45;&gt;Node30 -->
<g id="edge32" class="edge">
<title>Node7&#45;&gt;Node30</title>
<path fill="none" stroke="midnightblue" d="M1240.37,-239.15C1232.37,-195.28 1207.06,-89.54 1142,-34 1134.65,-27.73 1125.81,-23.08 1116.6,-19.64"/>
<polygon fill="midnightblue" stroke="midnightblue" points="1236.94,-239.86 1242.07,-249.13 1243.84,-238.68 1236.94,-239.86"/>
</g>
<!-- Node31 -->
<g id="node31" class="node">
<title>Node31</title>
<g id="a_node31"><a xlink:href="namespacevalidation.html#a5638f0062469ca458e1850ea9c8de396" target="_top" xlink:title=" ">
<polygon fill="none" stroke="black" points="984,-76.5 984,-95.5 1122,-95.5 1122,-76.5 984,-76.5"/>
<text text-anchor="middle" x="1053" y="-83.5" font-family="Helvetica,sans-Serif" font-size="10.00">validation::setValidEnum</text>
</a>
</g>
</g>
<!-- Node7&#45;&gt;Node31 -->
<g id="edge34" class="edge">
<title>Node7&#45;&gt;Node31</title>
<path fill="none" stroke="midnightblue" d="M1235.71,-239.7C1221.8,-207.74 1189.62,-143.96 1142,-110 1133.1,-103.66 1122.61,-98.99 1112.03,-95.55"/>
<polygon fill="midnightblue" stroke="midnightblue" points="1232.62,-241.38 1239.72,-249.24 1239.07,-238.66 1232.62,-241.38"/>
</g>
<!-- Node32 -->
<g id="node32" class="node">
<title>Node32</title>
<g id="a_node32"><a xlink:href="namespacevalidation.html#a4028a1e71c060c780241b72af38e27e8" target="_top" xlink:title=" ">
<polygon fill="none" stroke="black" points="984.5,-337.5 984.5,-356.5 1121.5,-356.5 1121.5,-337.5 984.5,-337.5"/>
<text text-anchor="middle" x="1053" y="-344.5" font-family="Helvetica,sans-Serif" font-size="10.00">validation::setValidValue</text>
</a>
</g>
</g>
<!-- Node7&#45;&gt;Node32 -->
<g id="edge35" class="edge">
<title>Node7&#45;&gt;Node32</title>
<path fill="none" stroke="midnightblue" d="M1224.71,-275.08C1205.26,-290.89 1173.39,-314.55 1142,-328 1132.95,-331.88 1123.02,-335 1113.2,-337.5"/>
<polygon fill="midnightblue" stroke="midnightblue" points="1227.02,-277.72 1232.48,-268.64 1222.55,-272.33 1227.02,-277.72"/>
</g>
<!-- Node9 -->
<g id="node9" class="node">
<title>Node9</title>
<g id="a_node9"><a xlink:href="classcfg_1_1AdcMappings.html#a50978d833ec6672505f87b17c140f483" target="_top" xlink:title=" ">
<polygon fill="none" stroke="black" points="761.5,-222 761.5,-252 906.5,-252 906.5,-222 761.5,-222"/>
<text text-anchor="start" x="769.5" y="-240" font-family="Helvetica,sans-Serif" font-size="10.00">cfg::AdcMappings::addAdc</text>
<text text-anchor="middle" x="834" y="-229" font-family="Helvetica,sans-Serif" font-size="10.00">Config</text>
</a>
</g>
</g>
<!-- Node8&#45;&gt;Node9 -->
<g id="edge8" class="edge">
<title>Node8&#45;&gt;Node9</title>
<path fill="none" stroke="midnightblue" d="M983.03,-252.01C958.63,-249.53 931.14,-246.75 906.54,-244.25"/>
<polygon fill="midnightblue" stroke="midnightblue" points="982.97,-255.52 993.28,-253.05 983.68,-248.56 982.97,-255.52"/>
</g>
<!-- Node10 -->
<g id="node10" class="node">
<title>Node10</title>
<g id="a_node10"><a xlink:href="classcfg_1_1Extensions.html#a3d483d303ba16bd2c41dbafb6d0db151" target="_top" xlink:title="Add an extension to the configuration.">
<polygon fill="none" stroke="black" points="752.5,-183.5 752.5,-202.5 915.5,-202.5 915.5,-183.5 752.5,-183.5"/>
<text text-anchor="middle" x="834" y="-190.5" font-family="Helvetica,sans-Serif" font-size="10.00">cfg::Extensions::addExtension</text>
</a>
</g>
</g>
<!-- Node8&#45;&gt;Node10 -->
<g id="edge9" class="edge">
<title>Node8&#45;&gt;Node10</title>
<path fill="none" stroke="midnightblue" d="M1019.74,-245.58C994.96,-235.63 959.72,-222.24 928,-213 914.52,-209.07 899.74,-205.55 886.01,-202.59"/>
<polygon fill="midnightblue" stroke="midnightblue" points="1018.44,-248.83 1029.02,-249.34 1021.07,-242.34 1018.44,-248.83"/>
</g>
<!-- Node11 -->
<g id="node11" class="node">
<title>Node11</title>
<g id="a_node11"><a xlink:href="classcfg_1_1AdcMappings.html#abf24990803afb5198cbffb1a42ceac68" target="_top" xlink:title=" ">
<polygon fill="none" stroke="black" points="761,-134 761,-164 907,-164 907,-134 761,-134"/>
<text text-anchor="start" x="769" y="-152" font-family="Helvetica,sans-Serif" font-size="10.00">cfg::AdcMappings::remove</text>
<text text-anchor="middle" x="834" y="-141" font-family="Helvetica,sans-Serif" font-size="10.00">AdcConfig</text>
</a>
</g>
</g>
<!-- Node8&#45;&gt;Node11 -->
<g id="edge10" class="edge">
<title>Node8&#45;&gt;Node11</title>
<path fill="none" stroke="midnightblue" d="M1033.11,-242.99C1009.81,-224 968.32,-192.58 928,-174 919.8,-170.22 910.92,-166.93 902.02,-164.08"/>
<polygon fill="midnightblue" stroke="midnightblue" points="1030.9,-245.7 1040.83,-249.38 1035.36,-240.31 1030.9,-245.7"/>
</g>
<!-- Node12 -->
<g id="node12" class="node">
<title>Node12</title>
<g id="a_node12"><a xlink:href="classcfg_1_1Extensions.html#abb7d7973769eda4b355e1e6bdd778f1e" target="_top" xlink:title="Remove an extension from the configuration by name.">
<polygon fill="none" stroke="black" points="743,-95.5 743,-114.5 925,-114.5 925,-95.5 743,-95.5"/>
<text text-anchor="middle" x="834" y="-102.5" font-family="Helvetica,sans-Serif" font-size="10.00">cfg::Extensions::removeExtension</text>
</a>
</g>
</g>
<!-- Node8&#45;&gt;Node12 -->
<g id="edge11" class="edge">
<title>Node8&#45;&gt;Node12</title>
<path fill="none" stroke="midnightblue" d="M1040.71,-240.91C1021.42,-211.63 979.19,-154.17 928,-125 920.4,-120.67 911.95,-117.27 903.35,-114.61"/>
<polygon fill="midnightblue" stroke="midnightblue" points="1037.79,-242.85 1046.15,-249.36 1043.68,-239.06 1037.79,-242.85"/>
</g>
<!-- Node13 -->
<g id="node13" class="node">
<title>Node13</title>
<g id="a_node13"><a xlink:href="classcfg_1_1AdcMappings.html#a45d9c766a012ea127e8612d262e720ac" target="_top" xlink:title=" ">
<polygon fill="none" stroke="black" points="749.5,-435.5 749.5,-454.5 918.5,-454.5 918.5,-435.5 749.5,-435.5"/>
<text text-anchor="middle" x="834" y="-442.5" font-family="Helvetica,sans-Serif" font-size="10.00">cfg::AdcMappings::setFromJson</text>
</a>
</g>
</g>
<!-- Node8&#45;&gt;Node13 -->
<g id="edge12" class="edge">
<title>Node8&#45;&gt;Node13</title>
<path fill="none" stroke="midnightblue" d="M983.88,-266.22C976.51,-269.29 969.66,-273.44 964,-279 916.04,-326.16 976.47,-379.36 928,-426 924.08,-429.77 919.63,-432.88 914.84,-435.45"/>
<polygon fill="midnightblue" stroke="midnightblue" points="985.15,-269.49 993.43,-262.89 982.84,-262.88 985.15,-269.49"/>
</g>
<!-- Node14 -->
<g id="node14" class="node">
<title>Node14</title>
<g id="a_node14"><a xlink:href="classcfg_1_1Extensions.html#aab673cffeff4bb60bf1a11d83a39736b" target="_top" xlink:title=" ">
<polygon fill="none" stroke="black" points="755.5,-397.5 755.5,-416.5 912.5,-416.5 912.5,-397.5 755.5,-397.5"/>
<text text-anchor="middle" x="834" y="-404.5" font-family="Helvetica,sans-Serif" font-size="10.00">cfg::Extensions::setFromJson</text>
</a>
</g>
</g>
<!-- Node8&#45;&gt;Node14 -->
<g id="edge13" class="edge">
<title>Node8&#45;&gt;Node14</title>
<path fill="none" stroke="midnightblue" d="M983.99,-266.79C976.67,-269.77 969.79,-273.74 964,-279 926.24,-313.31 966.13,-354.1 928,-388 923.44,-392.05 918.26,-395.33 912.73,-397.97"/>
<polygon fill="midnightblue" stroke="midnightblue" points="985.14,-270.09 993.45,-263.52 982.85,-263.48 985.14,-270.09"/>
</g>
<!-- Node15 -->
<g id="node15" class="node">
<title>Node15</title>
<g id="a_node15"><a xlink:href="classcfg_1_1Extensions.html#a28c4e7fad5dbfc8f72d1628ff59ac2ec" target="_top" xlink:title="Enable or disable an extension by name.">
<polygon fill="none" stroke="black" points="746,-359.5 746,-378.5 922,-378.5 922,-359.5 746,-359.5"/>
<text text-anchor="middle" x="834" y="-366.5" font-family="Helvetica,sans-Serif" font-size="10.00">cfg::Extensions::toggleExtension</text>
</a>
</g>
</g>
<!-- Node8&#45;&gt;Node15 -->
<g id="edge14" class="edge">
<title>Node8&#45;&gt;Node15</title>
<path fill="none" stroke="midnightblue" d="M983.61,-268.09C976.57,-270.86 969.86,-274.43 964,-279 936.1,-300.76 956.13,-328.55 928,-350 923.02,-353.8 917.47,-356.89 911.63,-359.39"/>
<polygon fill="midnightblue" stroke="midnightblue" points="985.03,-271.31 993.38,-264.78 982.78,-264.68 985.03,-271.31"/>
</g>
<!-- Node16 -->
<g id="node16" class="node">
<title>Node16</title>
<g id="a_node16"><a xlink:href="classcfg_1_1AdcMappings.html#a7704b7b0f66cfbad9f14b00613347e5b" target="_top" xlink:title=" ">
<polygon fill="none" stroke="black" points="762.5,-310 762.5,-340 905.5,-340 905.5,-310 762.5,-310"/>
<text text-anchor="start" x="770.5" y="-328" font-family="Helvetica,sans-Serif" font-size="10.00">cfg::AdcMappings::update</text>
<text text-anchor="middle" x="834" y="-317" font-family="Helvetica,sans-Serif" font-size="10.00">AdcConfig</text>
</a>
</g>
</g>
<!-- Node8&#45;&gt;Node16 -->
<g id="edge15" class="edge">
<title>Node8&#45;&gt;Node16</title>
<path fill="none" stroke="midnightblue" d="M988.41,-271.01C980.08,-273.29 971.75,-275.94 964,-279 946.77,-285.8 945.09,-292.87 928,-300 919.05,-303.73 909.38,-307.06 899.78,-309.97"/>
<polygon fill="midnightblue" stroke="midnightblue" points="989.35,-274.38 998.16,-268.5 987.6,-267.6 989.35,-274.38"/>
</g>
<!-- Node17 -->
<g id="node17" class="node">
<title>Node17</title>
<g id="a_node17"><a xlink:href="classcfg_1_1Extensions.html#a4af55964085d036357551e795bb435b5" target="_top" xlink:title="Update an extension given its name and new metadata.">
<polygon fill="none" stroke="black" points="744.5,-271.5 744.5,-290.5 923.5,-290.5 923.5,-271.5 744.5,-271.5"/>
<text text-anchor="middle" x="834" y="-278.5" font-family="Helvetica,sans-Serif" font-size="10.00">cfg::Extensions::updateExtension</text>
</a>
</g>
</g>
<!-- Node8&#45;&gt;Node17 -->
<g id="edge16" class="edge">
<title>Node8&#45;&gt;Node17</title>
<path fill="none" stroke="midnightblue" d="M983.25,-265.97C964.29,-267.89 943.45,-270 923.54,-272.02"/>
<polygon fill="midnightblue" stroke="midnightblue" points="983.68,-269.44 993.28,-264.95 982.97,-262.48 983.68,-269.44"/>
</g>
<!-- Node19 -->
<g id="node19" class="node">
<title>Node19</title>
<g id="a_node19"><a xlink:href="classFlightPhaseManager.html#a38e97741fd5bdd0b80a3172d3e73322d" target="_top" xlink:title=" ">
<polygon fill="none" stroke="black" points="776,-561 776,-591 892,-591 892,-561 776,-561"/>
<text text-anchor="start" x="784" y="-579" font-family="Helvetica,sans-Serif" font-size="10.00">FlightPhaseManager</text>
<text text-anchor="middle" x="834" y="-568" font-family="Helvetica,sans-Serif" font-size="10.00">::flightPhaseUpdate</text>
</a>
</g>
</g>
<!-- Node18&#45;&gt;Node19 -->
<g id="edge18" class="edge">
<title>Node18&#45;&gt;Node19</title>
<path fill="none" stroke="midnightblue" d="M984.7,-571.17C954.98,-572.13 920.43,-573.24 892.01,-574.16"/>
<polygon fill="midnightblue" stroke="midnightblue" points="985.1,-574.66 994.99,-570.84 984.88,-567.66 985.1,-574.66"/>
</g>
<!-- Node25 -->
<g id="node25" class="node">
<title>Node25</title>
<g id="a_node25"><a xlink:href="classdata__middleware_1_1AdcInterpolation.html#afe9137948458156c46370b562db1fc82" target="_top" xlink:title="Returns the ADC channel configuration for the given key. If one does not exist, an error is logged an...">
<polygon fill="none" stroke="black" points="740,-610 740,-640 928,-640 928,-610 740,-610"/>
<text text-anchor="start" x="748" y="-628" font-family="Helvetica,sans-Serif" font-size="10.00">data_middleware::AdcInterpolation</text>
<text text-anchor="middle" x="834" y="-617" font-family="Helvetica,sans-Serif" font-size="10.00">::getAdcConfig</text>
</a>
</g>
</g>
<!-- Node18&#45;&gt;Node25 -->
<g id="edge25" class="edge">
<title>Node18&#45;&gt;Node25</title>
<path fill="none" stroke="midnightblue" d="M1004.92,-581.15C972.21,-589.59 928.39,-600.9 893.44,-609.92"/>
<polygon fill="midnightblue" stroke="midnightblue" points="1005.89,-584.51 1014.7,-578.63 1004.14,-577.74 1005.89,-584.51"/>
</g>
<!-- Node20 -->
<g id="node20" class="node">
<title>Node20</title>
<g id="a_node20"><a xlink:href="classFlightPhaseManager.html#a547cb144c9ad196b910bc3a111aec286" target="_top" xlink:title="Update the flight phase manager.">
<polygon fill="none" stroke="black" points="552,-561 552,-591 668,-591 668,-561 552,-561"/>
<text text-anchor="start" x="560" y="-579" font-family="Helvetica,sans-Serif" font-size="10.00">FlightPhaseManager</text>
<text text-anchor="middle" x="610" y="-568" font-family="Helvetica,sans-Serif" font-size="10.00">::update</text>
</a>
</g>
</g>
<!-- Node19&#45;&gt;Node20 -->
<g id="edge19" class="edge">
<title>Node19&#45;&gt;Node20</title>
<path fill="none" stroke="midnightblue" d="M765.53,-576C734.49,-576 698.05,-576 668.36,-576"/>
<polygon fill="midnightblue" stroke="midnightblue" points="765.83,-579.5 775.83,-576 765.83,-572.5 765.83,-579.5"/>
</g>
<!-- Node21 -->
<g id="node21" class="node">
<title>Node21</title>
<g id="a_node21"><a xlink:href="classFlightRunner.html#a91b3c262d2ab68bbf687b92d5acaf618" target="_top" xlink:title="The main flight logic function. Called in the flight loop.">
<polygon fill="none" stroke="black" points="344.5,-588.5 344.5,-607.5 479.5,-607.5 479.5,-588.5 344.5,-588.5"/>
<text text-anchor="middle" x="412" y="-595.5" font-family="Helvetica,sans-Serif" font-size="10.00">FlightRunner::flightLogic</text>
</a>
</g>
</g>
<!-- Node20&#45;&gt;Node21 -->
<g id="edge20" class="edge">
<title>Node20&#45;&gt;Node21</title>
<path fill="none" stroke="midnightblue" d="M541.78,-583.54C521.69,-585.8 499.68,-588.27 479.62,-590.52"/>
<polygon fill="midnightblue" stroke="midnightblue" points="542.23,-587.02 551.78,-582.42 541.45,-580.06 542.23,-587.02"/>
</g>
<!-- Node22 -->
<g id="node22" class="node">
<title>Node22</title>
<g id="a_node22"><a xlink:href="classFlightPhaseManagerTest.html#adb308f82112e0a026b62fd8a1b1182ac" target="_top" xlink:title=" ">
<polygon fill="none" stroke="black" points="344,-539 344,-569 480,-569 480,-539 344,-539"/>
<text text-anchor="start" x="352" y="-557" font-family="Helvetica,sans-Serif" font-size="10.00">FlightPhaseManagerTest</text>
<text text-anchor="middle" x="412" y="-546" font-family="Helvetica,sans-Serif" font-size="10.00">::tick</text>
</a>
</g>
</g>
<!-- Node20&#45;&gt;Node22 -->
<g id="edge21" class="edge">
<title>Node20&#45;&gt;Node22</title>
<path fill="none" stroke="midnightblue" d="M541.61,-568.44C521.8,-566.21 500.13,-563.78 480.33,-561.56"/>
<polygon fill="midnightblue" stroke="midnightblue" points="541.45,-571.94 551.78,-569.58 542.23,-564.98 541.45,-571.94"/>
</g>
<!-- Node23 -->
<g id="node23" class="node">
<title>Node23</title>
<g id="a_node23"><a xlink:href="classFlightPhaseManagerTest.html#aaab5ea1894a4a238ea30e821247b9c10" target="_top" xlink:title=" ">
<polygon fill="none" stroke="black" points="172,-517 172,-547 308,-547 308,-517 172,-517"/>
<text text-anchor="start" x="180" y="-535" font-family="Helvetica,sans-Serif" font-size="10.00">FlightPhaseManagerTest</text>
<text text-anchor="middle" x="240" y="-524" font-family="Helvetica,sans-Serif" font-size="10.00">::bringToAscent</text>
</a>
</g>
</g>
<!-- Node22&#45;&gt;Node23 -->
<g id="edge22" class="edge">
<title>Node22&#45;&gt;Node23</title>
<path fill="none" stroke="midnightblue" d="M333.85,-544.02C325.31,-542.91 316.66,-541.79 308.26,-540.7"/>
<polygon fill="midnightblue" stroke="midnightblue" points="333.44,-547.49 343.81,-545.31 334.34,-540.55 333.44,-547.49"/>
</g>
<!-- Node24 -->
<g id="node24" class="node">
<title>Node24</title>
<g id="a_node24"><a xlink:href="classFlightPhaseManagerTest.html#a9b4298134e734c7d0e4b219999098819" target="_top" xlink:title=" ">
<polygon fill="none" stroke="black" points="0,-539 0,-569 136,-569 136,-539 0,-539"/>
<text text-anchor="start" x="8" y="-557" font-family="Helvetica,sans-Serif" font-size="10.00">FlightPhaseManagerTest</text>
<text text-anchor="middle" x="68" y="-546" font-family="Helvetica,sans-Serif" font-size="10.00">::bringToDescent</text>
</a>
</g>
</g>
<!-- Node22&#45;&gt;Node24 -->
<g id="edge24" class="edge">
<title>Node22&#45;&gt;Node24</title>
<path fill="none" stroke="midnightblue" d="M333.79,-556.49C325.09,-556.7 316.36,-556.88 308,-557 247.56,-557.88 232.44,-557.88 172,-557 160.37,-556.83 148.01,-556.55 136.03,-556.24"/>
<polygon fill="midnightblue" stroke="midnightblue" points="334.06,-559.99 343.97,-556.24 333.88,-552.99 334.06,-559.99"/>
</g>
<!-- Node23&#45;&gt;Node24 -->
<g id="edge23" class="edge">
<title>Node23&#45;&gt;Node24</title>
<path fill="none" stroke="midnightblue" d="M161.85,-541.98C153.31,-543.09 144.66,-544.21 136.26,-545.3"/>
<polygon fill="midnightblue" stroke="midnightblue" points="162.34,-545.45 171.81,-540.69 161.44,-538.51 162.34,-545.45"/>
</g>
<!-- Node26 -->
<g id="node26" class="node">
<title>Node26</title>
<g id="a_node26"><a xlink:href="classdata__middleware_1_1AdcInterpolation.html#a33bed24d36248ab62815595bf30c2d3c" target="_top" xlink:title="Takes in a data packet containing raw ADC data and processes it according to the ADC configuration.">
<polygon fill="none" stroke="black" points="516,-610 516,-640 704,-640 704,-610 516,-610"/>
<text text-anchor="start" x="524" y="-628" font-family="Helvetica,sans-Serif" font-size="10.00">data_middleware::AdcInterpolation</text>
<text text-anchor="middle" x="610" y="-617" font-family="Helvetica,sans-Serif" font-size="10.00">::processDataPacket</text>
</a>
</g>
</g>
<!-- Node25&#45;&gt;Node26 -->
<g id="edge26" class="edge">
<title>Node25&#45;&gt;Node26</title>
<path fill="none" stroke="midnightblue" d="M729.57,-625C721.14,-625 712.65,-625 704.3,-625"/>
<polygon fill="midnightblue" stroke="midnightblue" points="729.82,-628.5 739.82,-625 729.82,-621.5 729.82,-628.5"/>
</g>
<!-- Node27&#45;&gt;Node6 -->
<g id="edge28" class="edge">
<title>Node27&#45;&gt;Node6</title>
<path fill="none" stroke="midnightblue" d="M968.48,-323.91C966.91,-325.19 965.42,-326.56 964,-328 920.19,-372.61 973.46,-421.07 928,-464 924.05,-467.73 919.57,-470.82 914.76,-473.37"/>
<polygon fill="midnightblue" stroke="midnightblue" points="970.59,-326.7 976.78,-318.1 966.58,-320.96 970.59,-326.7"/>
</g>
<!-- Node28&#45;&gt;Node29 -->
<g id="edge30" class="edge">
<title>Node28&#45;&gt;Node29</title>
<path fill="none" stroke="midnightblue" d="M737.33,-37.19C721.76,-38.52 705.78,-39.89 690.64,-41.18"/>
<polygon fill="midnightblue" stroke="midnightblue" points="737.82,-40.66 747.49,-36.32 737.22,-33.68 737.82,-40.66"/>
</g>
<!-- Node30&#45;&gt;Node28 -->
<g id="edge33" class="edge">
<title>Node30&#45;&gt;Node28</title>
<path fill="none" stroke="midnightblue" d="M956.01,-18.4C944.3,-19.43 932.4,-20.47 920.85,-21.48"/>
<polygon fill="midnightblue" stroke="midnightblue" points="956.58,-21.87 966.24,-17.51 955.97,-14.89 956.58,-21.87"/>
</g>
<!-- Node33&#45;&gt;Node18 -->
<g id="edge37" class="edge">
<title>Node33&#45;&gt;Node18</title>
<path fill="none" stroke="midnightblue" d="M1178.27,-551.29C1156.46,-554.4 1132.33,-557.84 1111.18,-560.85"/>
<polygon fill="midnightblue" stroke="midnightblue" points="1179.03,-554.72 1188.43,-549.85 1178.04,-547.79 1179.03,-554.72"/>
</g>
</g>
</svg>
