<?xml version="1.0" encoding="UTF-8" standalone="no"?>
<!DOCTYPE svg PUBLIC "-//W3C//DTD SVG 1.1//EN"
 "http://www.w3.org/Graphics/SVG/1.1/DTD/svg11.dtd">
<!-- Generated by graphviz version 2.43.0 (0)
 -->
<!-- Title: FlightRunner::processCommand Pages: 1 -->
<svg width="939pt" height="425pt"
 viewBox="0.00 0.00 939.00 425.24" xmlns="http://www.w3.org/2000/svg" xmlns:xlink="http://www.w3.org/1999/xlink">
<g id="graph0" class="graph" transform="scale(1 1) rotate(0) translate(4 421.24)">
<title>FlightRunner::processCommand</title>
<!-- Node1 -->
<g id="node1" class="node">
<title>Node1</title>
<g id="a_node1"><a xlink:title="Process commands that are sent to the flight runner.">
<polygon fill="#bfbfbf" stroke="black" points="0,-202.5 0,-221.5 173,-221.5 173,-202.5 0,-202.5"/>
<text text-anchor="middle" x="86.5" y="-209.5" font-family="Helvetica,sans-Serif" font-size="10.00">FlightRunner::processCommand</text>
</a>
</g>
</g>
<!-- Node2 -->
<g id="node2" class="node">
<title>Node2</title>
<g id="a_node2"><a xlink:href="classdata_1_1LogStream.html#a18af3025ca8f1e60e5bd795f10b6c8b1" target="_top" xlink:title=" ">
<polygon fill="none" stroke="black" points="430.5,-341.5 430.5,-360.5 556.5,-360.5 556.5,-341.5 430.5,-341.5"/>
<text text-anchor="middle" x="493.5" y="-348.5" font-family="Helvetica,sans-Serif" font-size="10.00">data::LogStream::error</text>
</a>
</g>
</g>
<!-- Node1&#45;&gt;Node2 -->
<g id="edge1" class="edge">
<title>Node1&#45;&gt;Node2</title>
<path fill="none" stroke="midnightblue" d="M96.15,-221.59C114.66,-241.43 160.42,-286.91 209,-308 276.63,-337.36 360.9,-347.14 419.92,-350.17"/>
<polygon fill="midnightblue" stroke="midnightblue" points="420.11,-353.68 430.26,-350.65 420.43,-346.69 420.11,-353.68"/>
</g>
<!-- Node6 -->
<g id="node6" class="node">
<title>Node6</title>
<g id="a_node6"><a xlink:href="classFlightPhaseManager.html#af0192410de435610b083e723959fc6d7" target="_top" xlink:title="Get the current flight phase. This is the phase that the entire system will use.">
<polygon fill="none" stroke="black" points="230,-131 230,-161 361,-161 361,-131 230,-131"/>
<text text-anchor="start" x="238" y="-149" font-family="Helvetica,sans-Serif" font-size="10.00">FlightPhaseManager</text>
<text text-anchor="middle" x="295.5" y="-138" font-family="Helvetica,sans-Serif" font-size="10.00">::getCurrentFlightPhase</text>
</a>
</g>
</g>
<!-- Node1&#45;&gt;Node6 -->
<g id="edge7" class="edge">
<title>Node1&#45;&gt;Node6</title>
<path fill="none" stroke="midnightblue" d="M114.9,-202.4C139.46,-193.87 176.51,-181.23 209,-171 216.36,-168.68 224.11,-166.32 231.8,-164.01"/>
<polygon fill="midnightblue" stroke="midnightblue" points="232.9,-167.34 241.49,-161.13 230.91,-160.63 232.9,-167.34"/>
</g>
<!-- Node7 -->
<g id="node7" class="node">
<title>Node7</title>
<g id="a_node7"><a xlink:href="classFlightPhaseManager.html#aaeda08c0192943de07649ee8e85fd064" target="_top" xlink:title="Request that the flight phase be changed to launch. Only valid if the current phase is pre&#45;launch.">
<polygon fill="none" stroke="black" points="237.5,-268 237.5,-298 353.5,-298 353.5,-268 237.5,-268"/>
<text text-anchor="start" x="245.5" y="-286" font-family="Helvetica,sans-Serif" font-size="10.00">FlightPhaseManager</text>
<text text-anchor="middle" x="295.5" y="-275" font-family="Helvetica,sans-Serif" font-size="10.00">::requestLaunch</text>
</a>
</g>
</g>
<!-- Node1&#45;&gt;Node7 -->
<g id="edge8" class="edge">
<title>Node1&#45;&gt;Node7</title>
<path fill="none" stroke="midnightblue" d="M110.55,-221.68C134.82,-231.68 174.24,-247.43 209,-259 215.05,-261.01 221.37,-263 227.73,-264.92"/>
<polygon fill="midnightblue" stroke="midnightblue" points="227.12,-268.39 237.7,-267.88 229.11,-261.68 227.12,-268.39"/>
</g>
<!-- Node12 -->
<g id="node12" class="node">
<title>Node12</title>
<g id="a_node12"><a xlink:href="classFlightRunner.html#aa9506cddd9057a4fc3f1b43a15f4d8f9" target="_top" xlink:title="Called when transitioning from pre&#45;launch to launch phase. Sets the launch position in shared data an...">
<polygon fill="none" stroke="black" points="209,-180.5 209,-199.5 382,-199.5 382,-180.5 209,-180.5"/>
<text text-anchor="middle" x="295.5" y="-187.5" font-family="Helvetica,sans-Serif" font-size="10.00">FlightRunner::setLaunchPosition</text>
</a>
</g>
</g>
<!-- Node1&#45;&gt;Node12 -->
<g id="edge15" class="edge">
<title>Node1&#45;&gt;Node12</title>
<path fill="none" stroke="midnightblue" d="M173.19,-202.89C181.66,-201.99 190.3,-201.07 198.87,-200.16"/>
<polygon fill="midnightblue" stroke="midnightblue" points="199.3,-203.64 208.88,-199.1 198.56,-196.68 199.3,-203.64"/>
</g>
<!-- Node16 -->
<g id="node16" class="node">
<title>Node16</title>
<g id="a_node16"><a xlink:href="classFlightPhaseManager.html#a639bfe7ca534d0904f57e4851f766aa2" target="_top" xlink:title="Set the flight phase to pre&#45;launch.">
<polygon fill="none" stroke="black" points="237.5,-219 237.5,-249 353.5,-249 353.5,-219 237.5,-219"/>
<text text-anchor="start" x="245.5" y="-237" font-family="Helvetica,sans-Serif" font-size="10.00">FlightPhaseManager</text>
<text text-anchor="middle" x="295.5" y="-226" font-family="Helvetica,sans-Serif" font-size="10.00">::setPreLaunch</text>
</a>
</g>
</g>
<!-- Node1&#45;&gt;Node16 -->
<g id="edge21" class="edge">
<title>Node1&#45;&gt;Node16</title>
<path fill="none" stroke="midnightblue" d="M173.19,-221.11C191.23,-223.02 210.01,-225.02 227.25,-226.85"/>
<polygon fill="midnightblue" stroke="midnightblue" points="226.9,-230.33 237.21,-227.91 227.64,-223.37 226.9,-230.33"/>
</g>
<!-- Node17 -->
<g id="node17" class="node">
<title>Node17</title>
<g id="a_node17"><a xlink:href="classFlightRunner.html#aa479b87f758cf8bac5fa323cc282c77c" target="_top" xlink:title=" ">
<polygon fill="none" stroke="black" points="219.5,-38.5 219.5,-57.5 371.5,-57.5 371.5,-38.5 219.5,-38.5"/>
<text text-anchor="middle" x="295.5" y="-45.5" font-family="Helvetica,sans-Serif" font-size="10.00">FlightRunner::toggleModule</text>
</a>
</g>
</g>
<!-- Node1&#45;&gt;Node17 -->
<g id="edge23" class="edge">
<title>Node1&#45;&gt;Node17</title>
<path fill="none" stroke="midnightblue" d="M99.52,-202.47C133.75,-175.36 231.98,-97.54 274.49,-63.85"/>
<polygon fill="midnightblue" stroke="midnightblue" points="276.78,-66.51 282.44,-57.55 272.43,-61.02 276.78,-66.51"/>
</g>
<!-- Node3 -->
<g id="node3" class="node">
<title>Node3</title>
<g id="a_node3"><a xlink:href="classdata_1_1Stream.html#a1ff9a93190dbecdc2ffa27deaaa4266a" target="_top" xlink:title=" ">
<polygon fill="none" stroke="black" points="791,-379 791,-409 931,-409 931,-379 791,-379"/>
<text text-anchor="start" x="799" y="-397" font-family="Helvetica,sans-Serif" font-size="10.00">data::Stream&lt; LogPacket</text>
<text text-anchor="middle" x="861" y="-386" font-family="Helvetica,sans-Serif" font-size="10.00"> &gt;::addPacket</text>
</a>
</g>
</g>
<!-- Node2&#45;&gt;Node3 -->
<g id="edge2" class="edge">
<title>Node2&#45;&gt;Node3</title>
<path fill="none" stroke="midnightblue" d="M507.95,-360.67C527.95,-374.38 567.24,-398.84 605,-408 662.76,-422.02 729.96,-417.52 780.87,-410.05"/>
<polygon fill="midnightblue" stroke="midnightblue" points="781.47,-413.49 790.82,-408.52 780.41,-406.58 781.47,-413.49"/>
</g>
<!-- Node4 -->
<g id="node4" class="node">
<title>Node4</title>
<g id="a_node4"><a xlink:href="classdata_1_1LogStream.html#a02c18d6e5c9697b4943ba9fb630ca0c9" target="_top" xlink:title=" ">
<polygon fill="none" stroke="black" points="619,-379.5 619,-398.5 741,-398.5 741,-379.5 619,-379.5"/>
<text text-anchor="middle" x="680" y="-386.5" font-family="Helvetica,sans-Serif" font-size="10.00">data::LogStream::info</text>
</a>
</g>
</g>
<!-- Node2&#45;&gt;Node4 -->
<g id="edge3" class="edge">
<title>Node2&#45;&gt;Node4</title>
<path fill="none" stroke="midnightblue" d="M541.06,-360.59C565.84,-365.69 596.52,-372.01 622.64,-377.39"/>
<polygon fill="midnightblue" stroke="midnightblue" points="622.28,-380.89 632.78,-379.48 623.69,-374.03 622.28,-380.89"/>
</g>
<!-- Node5 -->
<g id="node5" class="node">
<title>Node5</title>
<g id="a_node5"><a xlink:href="structdata_1_1BaseStreamPacket.html#a140b2f54f93715d9229e1847bc1219b2" target="_top" xlink:title=" ">
<polygon fill="none" stroke="black" points="793.5,-330 793.5,-360 928.5,-360 928.5,-330 793.5,-330"/>
<text text-anchor="start" x="801.5" y="-348" font-family="Helvetica,sans-Serif" font-size="10.00">data::BaseStreamPacket</text>
<text text-anchor="middle" x="861" y="-337" font-family="Helvetica,sans-Serif" font-size="10.00">::resetTime</text>
</a>
</g>
</g>
<!-- Node2&#45;&gt;Node5 -->
<g id="edge6" class="edge">
<title>Node2&#45;&gt;Node5</title>
<path fill="none" stroke="midnightblue" d="M556.5,-349.98C619.08,-348.95 715.83,-347.37 783.22,-346.26"/>
<polygon fill="midnightblue" stroke="midnightblue" points="783.42,-349.76 793.36,-346.09 783.3,-342.76 783.42,-349.76"/>
</g>
<!-- Node4&#45;&gt;Node3 -->
<g id="edge4" class="edge">
<title>Node4&#45;&gt;Node3</title>
<path fill="none" stroke="midnightblue" d="M741.1,-390.68C753.81,-391.03 767.41,-391.41 780.7,-391.78"/>
<polygon fill="midnightblue" stroke="midnightblue" points="780.69,-395.29 790.78,-392.07 780.88,-388.29 780.69,-395.29"/>
</g>
<!-- Node4&#45;&gt;Node5 -->
<g id="edge5" class="edge">
<title>Node4&#45;&gt;Node5</title>
<path fill="none" stroke="midnightblue" d="M719.84,-379.45C739.99,-374.5 765.26,-368.29 788.76,-362.51"/>
<polygon fill="midnightblue" stroke="midnightblue" points="789.84,-365.85 798.71,-360.07 788.16,-359.05 789.84,-365.85"/>
</g>
<!-- Node8 -->
<g id="node8" class="node">
<title>Node8</title>
<g id="a_node8"><a xlink:href="classFlightPhaseManager.html#a85ff07e3141863f505d562e7672d995f" target="_top" xlink:title=" ">
<polygon fill="none" stroke="black" points="435.5,-263 435.5,-293 551.5,-293 551.5,-263 435.5,-263"/>
<text text-anchor="start" x="443.5" y="-281" font-family="Helvetica,sans-Serif" font-size="10.00">FlightPhaseManager</text>
<text text-anchor="middle" x="493.5" y="-270" font-family="Helvetica,sans-Serif" font-size="10.00">::setFlightPhase</text>
</a>
</g>
</g>
<!-- Node7&#45;&gt;Node8 -->
<g id="edge9" class="edge">
<title>Node7&#45;&gt;Node8</title>
<path fill="none" stroke="midnightblue" d="M353.72,-281.54C376.06,-280.97 401.85,-280.31 425.08,-279.72"/>
<polygon fill="midnightblue" stroke="midnightblue" points="425.3,-283.22 435.21,-279.46 425.12,-276.22 425.3,-283.22"/>
</g>
<!-- Node9 -->
<g id="node9" class="node">
<title>Node9</title>
<g id="a_node9"><a xlink:href="classdata_1_1DataStream.html#a0eef16fa96084fe72dcc3f3ef8cf0bac" target="_top" xlink:title=" ">
<polygon fill="none" stroke="black" points="605,-303.5 605,-322.5 755,-322.5 755,-303.5 605,-303.5"/>
<text text-anchor="middle" x="680" y="-310.5" font-family="Helvetica,sans-Serif" font-size="10.00">data::DataStream::addData</text>
</a>
</g>
</g>
<!-- Node8&#45;&gt;Node9 -->
<g id="edge10" class="edge">
<title>Node8&#45;&gt;Node9</title>
<path fill="none" stroke="midnightblue" d="M551.61,-288.83C572.9,-292.87 597.12,-297.47 618.69,-301.56"/>
<polygon fill="midnightblue" stroke="midnightblue" points="618.24,-305.04 628.71,-303.46 619.54,-298.16 618.24,-305.04"/>
</g>
<!-- Node10 -->
<g id="node10" class="node">
<title>Node10</title>
<g id="a_node10"><a xlink:href="classdata_1_1FlightData.html#aab39bdf65e13f5c215e7871dae587233" target="_top" xlink:title=" ">
<polygon fill="none" stroke="black" points="608,-254 608,-284 752,-284 752,-254 608,-254"/>
<text text-anchor="start" x="616" y="-272" font-family="Helvetica,sans-Serif" font-size="10.00">data::FlightData::setFlight</text>
<text text-anchor="middle" x="680" y="-261" font-family="Helvetica,sans-Serif" font-size="10.00">Phase</text>
</a>
</g>
</g>
<!-- Node8&#45;&gt;Node10 -->
<g id="edge13" class="edge">
<title>Node8&#45;&gt;Node10</title>
<path fill="none" stroke="midnightblue" d="M551.61,-275.21C566.2,-274.5 582.16,-273.72 597.7,-272.97"/>
<polygon fill="midnightblue" stroke="midnightblue" points="598.02,-276.45 607.84,-272.47 597.68,-269.46 598.02,-276.45"/>
</g>
<!-- Node11 -->
<g id="node11" class="node">
<title>Node11</title>
<g id="a_node11"><a xlink:href="namespaceutil.html#a8e9635f6a41c035d331ddaeb62259ba6" target="_top" xlink:title="Converts a flight phase to a string.">
<polygon fill="none" stroke="black" points="639.5,-215.5 639.5,-234.5 720.5,-234.5 720.5,-215.5 639.5,-215.5"/>
<text text-anchor="middle" x="680" y="-222.5" font-family="Helvetica,sans-Serif" font-size="10.00">util::to_string</text>
</a>
</g>
</g>
<!-- Node8&#45;&gt;Node11 -->
<g id="edge14" class="edge">
<title>Node8&#45;&gt;Node11</title>
<path fill="none" stroke="midnightblue" d="M543.93,-262.94C562.98,-257.21 584.97,-250.7 605,-245 614.02,-242.43 623.69,-239.76 632.96,-237.24"/>
<polygon fill="midnightblue" stroke="midnightblue" points="634.08,-240.57 642.81,-234.58 632.25,-233.81 634.08,-240.57"/>
</g>
<!-- Node9&#45;&gt;Node3 -->
<g id="edge11" class="edge">
<title>Node9&#45;&gt;Node3</title>
<path fill="none" stroke="midnightblue" d="M697.78,-322.66C719.04,-334.67 757.02,-355.38 791,-370 795.18,-371.8 799.53,-373.56 803.94,-375.27"/>
<polygon fill="midnightblue" stroke="midnightblue" points="803.03,-378.66 813.63,-378.9 805.49,-372.11 803.03,-378.66"/>
</g>
<!-- Node9&#45;&gt;Node5 -->
<g id="edge12" class="edge">
<title>Node9&#45;&gt;Node5</title>
<path fill="none" stroke="midnightblue" d="M734.22,-322.51C749.58,-325.26 766.66,-328.31 783.15,-331.26"/>
<polygon fill="midnightblue" stroke="midnightblue" points="782.87,-334.77 793.33,-333.08 784.1,-327.88 782.87,-334.77"/>
</g>
<!-- Node12&#45;&gt;Node2 -->
<g id="edge17" class="edge">
<title>Node12&#45;&gt;Node2</title>
<path fill="none" stroke="midnightblue" d="M365.3,-199.56C371.36,-202.28 377.05,-205.7 382,-210 415.45,-239.08 390,-268.64 418,-303 429.59,-317.22 446.55,-328.61 461.36,-336.72"/>
<polygon fill="midnightblue" stroke="midnightblue" points="459.75,-339.83 470.24,-341.34 462.98,-333.62 459.75,-339.83"/>
</g>
<!-- Node12&#45;&gt;Node11 -->
<g id="edge20" class="edge">
<title>Node12&#45;&gt;Node11</title>
<path fill="none" stroke="midnightblue" d="M334.54,-199.51C358.36,-205.04 389.78,-211.58 418,-215 491.22,-223.87 576.76,-225.51 629.41,-225.52"/>
<polygon fill="midnightblue" stroke="midnightblue" points="629.49,-229.02 639.49,-225.5 629.48,-222.02 629.49,-229.02"/>
</g>
<!-- Node13 -->
<g id="node13" class="node">
<title>Node13</title>
<g id="a_node13"><a xlink:href="classgiraffe_1_1FlightRunnerData.html#ad522ef22add361da8fd8dda6dda7930a" target="_top" xlink:title="Clears the launch position/set it to invalid.">
<polygon fill="none" stroke="black" points="423.5,-175 423.5,-205 563.5,-205 563.5,-175 423.5,-175"/>
<text text-anchor="start" x="431.5" y="-193" font-family="Helvetica,sans-Serif" font-size="10.00">giraffe::FlightRunnerData</text>
<text text-anchor="middle" x="493.5" y="-182" font-family="Helvetica,sans-Serif" font-size="10.00">::clearLaunchPosition</text>
</a>
</g>
</g>
<!-- Node12&#45;&gt;Node13 -->
<g id="edge16" class="edge">
<title>Node12&#45;&gt;Node13</title>
<path fill="none" stroke="midnightblue" d="M382.18,-190C392.54,-190 403.07,-190 413.33,-190"/>
<polygon fill="midnightblue" stroke="midnightblue" points="413.47,-193.5 423.47,-190 413.47,-186.5 413.47,-193.5"/>
</g>
<!-- Node14 -->
<g id="node14" class="node">
<title>Node14</title>
<g id="a_node14"><a xlink:href="classgiraffe_1_1FlightRunnerData.html#aec5ac065bece8131a74452bd55615b02" target="_top" xlink:title="Set the launch position. Called on the transition from pre&#45;launch to launch.">
<polygon fill="none" stroke="black" points="423.5,-126 423.5,-156 563.5,-156 563.5,-126 423.5,-126"/>
<text text-anchor="start" x="431.5" y="-144" font-family="Helvetica,sans-Serif" font-size="10.00">giraffe::FlightRunnerData</text>
<text text-anchor="middle" x="493.5" y="-133" font-family="Helvetica,sans-Serif" font-size="10.00">::setLaunchPosition</text>
</a>
</g>
</g>
<!-- Node12&#45;&gt;Node14 -->
<g id="edge18" class="edge">
<title>Node12&#45;&gt;Node14</title>
<path fill="none" stroke="midnightblue" d="M341.41,-180.43C354.52,-177.53 368.86,-174.24 382,-171 397.28,-167.23 413.67,-162.92 429.03,-158.77"/>
<polygon fill="midnightblue" stroke="midnightblue" points="430.22,-162.08 438.96,-156.07 428.39,-155.32 430.22,-162.08"/>
</g>
<!-- Node15 -->
<g id="node15" class="node">
<title>Node15</title>
<g id="a_node15"><a xlink:href="classdata_1_1FlightData.html#af8689e42e3dcf4e6813bb608ed36a441" target="_top" xlink:title=" ">
<polygon fill="none" stroke="black" points="418,-77 418,-107 569,-107 569,-77 418,-77"/>
<text text-anchor="start" x="426" y="-95" font-family="Helvetica,sans-Serif" font-size="10.00">data::FlightData::setLaunch</text>
<text text-anchor="middle" x="493.5" y="-84" font-family="Helvetica,sans-Serif" font-size="10.00">Position</text>
</a>
</g>
</g>
<!-- Node12&#45;&gt;Node15 -->
<g id="edge19" class="edge">
<title>Node12&#45;&gt;Node15</title>
<path fill="none" stroke="midnightblue" d="M363.5,-180.44C370.05,-177.96 376.36,-174.87 382,-171 405.79,-154.7 395.09,-134.53 418,-117 420.34,-115.21 422.81,-113.55 425.37,-112"/>
<polygon fill="midnightblue" stroke="midnightblue" points="427.24,-114.97 434.41,-107.17 423.94,-108.8 427.24,-114.97"/>
</g>
<!-- Node16&#45;&gt;Node8 -->
<g id="edge22" class="edge">
<title>Node16&#45;&gt;Node8</title>
<path fill="none" stroke="midnightblue" d="M353.72,-246.84C376.16,-251.88 402.08,-257.7 425.39,-262.94"/>
<polygon fill="midnightblue" stroke="midnightblue" points="424.69,-266.36 435.21,-265.14 426.22,-259.53 424.69,-266.36"/>
</g>
<!-- Node18 -->
<g id="node18" class="node">
<title>Node18</title>
<g id="a_node18"><a xlink:href="classmodules_1_1Module.html#afa712a59eff6e99405e70ae61f7510cd" target="_top" xlink:title="Starts a thread to run the module.">
<polygon fill="none" stroke="black" points="429,-38.5 429,-57.5 558,-57.5 558,-38.5 429,-38.5"/>
<text text-anchor="middle" x="493.5" y="-45.5" font-family="Helvetica,sans-Serif" font-size="10.00">modules::Module::start</text>
</a>
</g>
</g>
<!-- Node17&#45;&gt;Node18 -->
<g id="edge24" class="edge">
<title>Node17&#45;&gt;Node18</title>
<path fill="none" stroke="midnightblue" d="M371.72,-48C387.22,-48 403.52,-48 418.96,-48"/>
<polygon fill="midnightblue" stroke="midnightblue" points="418.96,-51.5 428.96,-48 418.96,-44.5 418.96,-51.5"/>
</g>
<!-- Node20 -->
<g id="node20" class="node">
<title>Node20</title>
<g id="a_node20"><a xlink:href="classmodules_1_1Module.html#aefe65d4f674e804a1891b250ed2887a4" target="_top" xlink:title="Stops the module by setting the stop flag to true and joining the runner thread.">
<polygon fill="none" stroke="black" points="429.5,-0.5 429.5,-19.5 557.5,-19.5 557.5,-0.5 429.5,-0.5"/>
<text text-anchor="middle" x="493.5" y="-7.5" font-family="Helvetica,sans-Serif" font-size="10.00">modules::Module::stop</text>
</a>
</g>
</g>
<!-- Node17&#45;&gt;Node20 -->
<g id="edge26" class="edge">
<title>Node17&#45;&gt;Node20</title>
<path fill="none" stroke="midnightblue" d="M345.71,-38.46C372.27,-33.31 405.25,-26.92 433.22,-21.49"/>
<polygon fill="midnightblue" stroke="midnightblue" points="434.12,-24.88 443.27,-19.54 432.79,-18.01 434.12,-24.88"/>
</g>
<!-- Node19 -->
<g id="node19" class="node">
<title>Node19</title>
<g id="a_node19"><a xlink:href="classmodules_1_1Module.html#a3d879001e471093d48fcbd2f8c406f51" target="_top" xlink:title="This is the main function for each module.">
<polygon fill="none" stroke="black" points="611,-38.5 611,-57.5 749,-57.5 749,-38.5 611,-38.5"/>
<text text-anchor="middle" x="680" y="-45.5" font-family="Helvetica,sans-Serif" font-size="10.00">modules::Module::runner</text>
</a>
</g>
</g>
<!-- Node18&#45;&gt;Node19 -->
<g id="edge25" class="edge">
<title>Node18&#45;&gt;Node19</title>
<path fill="none" stroke="midnightblue" d="M558.25,-48C571.91,-48 586.5,-48 600.64,-48"/>
<polygon fill="midnightblue" stroke="midnightblue" points="600.84,-51.5 610.84,-48 600.84,-44.5 600.84,-51.5"/>
</g>
</g>
</svg>
