<?xml version="1.0" encoding="UTF-8" standalone="no"?>
<!DOCTYPE svg PUBLIC "-//W3C//DTD SVG 1.1//EN"
 "http://www.w3.org/Graphics/SVG/1.1/DTD/svg11.dtd">
<!-- Generated by graphviz version 2.43.0 (0)
 -->
<!-- Title: extension::Bmi088::accelerometerHandshake Pages: 1 -->
<svg width="304pt" height="88pt"
 viewBox="0.00 0.00 304.00 88.00" xmlns="http://www.w3.org/2000/svg" xmlns:xlink="http://www.w3.org/1999/xlink">
<g id="graph0" class="graph" transform="scale(1 1) rotate(0) translate(4 84)">
<title>extension::Bmi088::accelerometerHandshake</title>
<!-- Node1 -->
<g id="node1" class="node">
<title>Node1</title>
<g id="a_node1"><a xlink:title=" ">
<polygon fill="#bfbfbf" stroke="black" points="0,-24.5 0,-54.5 141,-54.5 141,-24.5 0,-24.5"/>
<text text-anchor="start" x="8" y="-42.5" font-family="Helvetica,sans-Serif" font-size="10.00">extension::Bmi088::</text>
<text text-anchor="middle" x="70.5" y="-31.5" font-family="Helvetica,sans-Serif" font-size="10.00">accelerometerHandshake</text>
</a>
</g>
</g>
<!-- Node2 -->
<g id="node2" class="node">
<title>Node2</title>
<g id="a_node2"><a xlink:href="classextension_1_1Extension.html#a00ef6cd65250307287af24071c862a42" target="_top" xlink:title="Sleep internally for a given number of milliseconds.">
<polygon fill="none" stroke="black" points="177,-49.5 177,-79.5 296,-79.5 296,-49.5 177,-49.5"/>
<text text-anchor="start" x="185" y="-67.5" font-family="Helvetica,sans-Serif" font-size="10.00">extension::Extension</text>
<text text-anchor="middle" x="236.5" y="-56.5" font-family="Helvetica,sans-Serif" font-size="10.00">::extSleep</text>
</a>
</g>
</g>
<!-- Node1&#45;&gt;Node2 -->
<g id="edge1" class="edge">
<title>Node1&#45;&gt;Node2</title>
<path fill="none" stroke="midnightblue" d="M141.05,-50.1C149.65,-51.41 158.43,-52.75 167.01,-54.06"/>
<polygon fill="midnightblue" stroke="midnightblue" points="166.55,-57.53 176.97,-55.58 167.61,-50.61 166.55,-57.53"/>
</g>
<!-- Node3 -->
<g id="node3" class="node">
<title>Node3</title>
<g id="a_node3"><a xlink:href="classgiraffe_1_1SpiInterface.html#a146b865b9d5d9a41c82283565b91ff80" target="_top" xlink:title="SPI transfer function. Returns true if the transfer was successful, false otherwise.">
<polygon fill="none" stroke="black" points="180,-0.5 180,-30.5 293,-30.5 293,-0.5 180,-0.5"/>
<text text-anchor="start" x="188" y="-18.5" font-family="Helvetica,sans-Serif" font-size="10.00">giraffe::SpiInterface</text>
<text text-anchor="middle" x="236.5" y="-7.5" font-family="Helvetica,sans-Serif" font-size="10.00">::transfer</text>
</a>
</g>
</g>
<!-- Node1&#45;&gt;Node3 -->
<g id="edge2" class="edge">
<title>Node1&#45;&gt;Node3</title>
<path fill="none" stroke="midnightblue" d="M141.05,-29.32C150.54,-27.93 160.26,-26.51 169.68,-25.13"/>
<polygon fill="midnightblue" stroke="midnightblue" points="170.37,-28.57 179.76,-23.66 169.35,-21.64 170.37,-28.57"/>
</g>
</g>
</svg>
