<?xml version="1.0" encoding="UTF-8" standalone="no"?>
<!DOCTYPE svg PUBLIC "-//W3C//DTD SVG 1.1//EN"
 "http://www.w3.org/Graphics/SVG/1.1/DTD/svg11.dtd">
<!-- Generated by graphviz version 2.43.0 (0)
 -->
<!-- Title: giraffe::gdl::GdlServer::saveConfig Pages: 1 -->
<svg width="510pt" height="450pt"
 viewBox="0.00 0.00 510.00 449.50" xmlns="http://www.w3.org/2000/svg" xmlns:xlink="http://www.w3.org/1999/xlink">
<g id="graph0" class="graph" transform="scale(1 1) rotate(0) translate(4 445.5)">
<title>giraffe::gdl::GdlServer::saveConfig</title>
<!-- Node1 -->
<g id="Node000001" class="node">
<title>Node1</title>
<g id="a_Node000001"><a xlink:title="Attempts to save the current configuration to the config file.">
<polygon fill="#999999" stroke="#666666" points="123,-284 0,-284 0,-254 123,-254 123,-284"/>
<text text-anchor="start" x="8" y="-272" font-family="Helvetica,sans-Serif" font-size="10.00">giraffe::gdl::GdlServer</text>
<text text-anchor="middle" x="61.5" y="-261" font-family="Helvetica,sans-Serif" font-size="10.00">::saveConfig</text>
</a>
</g>
</g>
<!-- Node2 -->
<g id="Node000002" class="node">
<title>Node2</title>
<g id="a_Node000002"><a xlink:href="classgiraffe_1_1CommonLogger.html#a364f4ba232bd54940d234fbefa0fc932" target="_top" xlink:title=" ">
<polygon fill="white" stroke="#666666" points="302,-424 171,-424 171,-394 302,-394 302,-424"/>
<text text-anchor="start" x="179" y="-412" font-family="Helvetica,sans-Serif" font-size="10.00">giraffe::CommonLogger</text>
<text text-anchor="middle" x="236.5" y="-401" font-family="Helvetica,sans-Serif" font-size="10.00">::debug</text>
</a>
</g>
</g>
<!-- Node1&#45;&gt;Node2 -->
<g id="edge1_Node000001_Node000002" class="edge">
<title>Node1&#45;&gt;Node2</title>
<g id="a_edge1_Node000001_Node000002"><a xlink:title=" ">
<path fill="none" stroke="#63b8ff" d="M76.32,-284.22C94.29,-303.55 127.17,-337.35 159,-362 171.42,-371.62 185.91,-380.94 198.92,-388.72"/>
<polygon fill="#63b8ff" stroke="#63b8ff" points="197.25,-391.8 207.65,-393.84 200.79,-385.76 197.25,-391.8"/>
</a>
</g>
</g>
<!-- Node4 -->
<g id="Node000004" class="node">
<title>Node4</title>
<g id="a_Node000004"><a xlink:href="classgiraffe_1_1CommonLogger.html#aa809939432e88f6590c9244c1defcac3" target="_top" xlink:title=" ">
<polygon fill="white" stroke="#666666" points="302,-353 171,-353 171,-323 302,-323 302,-353"/>
<text text-anchor="start" x="179" y="-341" font-family="Helvetica,sans-Serif" font-size="10.00">giraffe::CommonLogger</text>
<text text-anchor="middle" x="236.5" y="-330" font-family="Helvetica,sans-Serif" font-size="10.00">::error</text>
</a>
</g>
</g>
<!-- Node1&#45;&gt;Node4 -->
<g id="edge3_Node000001_Node000004" class="edge">
<title>Node1&#45;&gt;Node4</title>
<g id="a_edge3_Node000001_Node000004"><a xlink:title=" ">
<path fill="none" stroke="#63b8ff" d="M100.47,-284.14C126.27,-294.43 160.59,-308.12 188.17,-319.12"/>
<polygon fill="#63b8ff" stroke="#63b8ff" points="187.04,-322.44 197.62,-322.89 189.63,-315.94 187.04,-322.44"/>
</a>
</g>
</g>
<!-- Node5 -->
<g id="Node000005" class="node">
<title>Node5</title>
<g id="a_Node000005"><a xlink:href="classgiraffe_1_1gdl_1_1GdlServer.html#a591424c144ee17a258f248ce1b953b5b" target="_top" xlink:title=" ">
<polygon fill="white" stroke="#666666" points="298,-260 175,-260 175,-230 298,-230 298,-260"/>
<text text-anchor="start" x="183" y="-248" font-family="Helvetica,sans-Serif" font-size="10.00">giraffe::gdl::GdlServer</text>
<text text-anchor="middle" x="236.5" y="-237" font-family="Helvetica,sans-Serif" font-size="10.00">::getConfigJson</text>
</a>
</g>
</g>
<!-- Node1&#45;&gt;Node5 -->
<g id="edge5_Node000001_Node000005" class="edge">
<title>Node1&#45;&gt;Node5</title>
<g id="a_edge5_Node000001_Node000005"><a xlink:title=" ">
<path fill="none" stroke="#63b8ff" d="M123.01,-260.61C136.49,-258.74 150.91,-256.74 164.76,-254.81"/>
<polygon fill="#63b8ff" stroke="#63b8ff" points="165.31,-258.27 174.73,-253.43 164.35,-251.34 165.31,-258.27"/>
</a>
</g>
</g>
<!-- Node14 -->
<g id="Node000014" class="node">
<title>Node14</title>
<g id="a_Node000014"><a xlink:href="namespacegiraffe_1_1file__paths.html#a55797c39fca8c9ee503e4c9dab0e6007" target="_top" xlink:title="Returns the path to the Giraffe config file.">
<polygon fill="white" stroke="#666666" points="314,-121 159,-121 159,-91 314,-91 314,-121"/>
<text text-anchor="start" x="167" y="-109" font-family="Helvetica,sans-Serif" font-size="10.00">giraffe::file_paths</text>
<text text-anchor="middle" x="236.5" y="-98" font-family="Helvetica,sans-Serif" font-size="10.00">::getGdlServerConfigFilePath</text>
</a>
</g>
</g>
<!-- Node1&#45;&gt;Node14 -->
<g id="edge14_Node000001_Node000014" class="edge">
<title>Node1&#45;&gt;Node14</title>
<g id="a_edge14_Node000001_Node000014"><a xlink:title=" ">
<path fill="none" stroke="#63b8ff" d="M78.47,-253.96C109.11,-225.09 176.28,-161.8 212.03,-128.11"/>
<polygon fill="#63b8ff" stroke="#63b8ff" points="214.7,-130.41 219.57,-121.01 209.89,-125.32 214.7,-130.41"/>
</a>
</g>
</g>
<!-- Node3 -->
<g id="Node000003" class="node">
<title>Node3</title>
<g id="a_Node000003"><a xlink:href="classgiraffe_1_1CommonLogger.html#a0430441609c79cc5174b9b10d26d5fe8" target="_top" xlink:title=" ">
<polygon fill="white" stroke="#666666" points="502,-441.5 350,-441.5 350,-422.5 502,-422.5 502,-441.5"/>
<text text-anchor="middle" x="426" y="-429.5" font-family="Helvetica,sans-Serif" font-size="10.00">giraffe::CommonLogger::log</text>
</a>
</g>
</g>
<!-- Node2&#45;&gt;Node3 -->
<g id="edge2_Node000002_Node000003" class="edge">
<title>Node2&#45;&gt;Node3</title>
<g id="a_edge2_Node000002_Node000003"><a xlink:title=" ">
<path fill="none" stroke="#63b8ff" d="M302.03,-416.92C314.15,-418.4 326.99,-419.98 339.63,-421.53"/>
<polygon fill="#63b8ff" stroke="#63b8ff" points="339.35,-425.02 349.71,-422.76 340.21,-418.07 339.35,-425.02"/>
</a>
</g>
</g>
<!-- Node4&#45;&gt;Node3 -->
<g id="edge4_Node000004_Node000003" class="edge">
<title>Node4&#45;&gt;Node3</title>
<g id="a_edge4_Node000004_Node000003"><a xlink:title=" ">
<path fill="none" stroke="#63b8ff" d="M263.8,-353.19C278.77,-362.07 297.73,-373.72 314,-385 330.66,-396.55 331.79,-404.1 350,-413 354.9,-415.4 360.14,-417.51 365.48,-419.37"/>
<polygon fill="#63b8ff" stroke="#63b8ff" points="364.56,-422.75 375.15,-422.45 366.69,-416.08 364.56,-422.75"/>
</a>
</g>
</g>
<!-- Node6 -->
<g id="Node000006" class="node">
<title>Node6</title>
<g id="a_Node000006"><a xlink:href="classgiraffe_1_1gdl_1_1Config.html#aed911ca37add8a6519900eef34bb4fcc" target="_top" xlink:title=" ">
<polygon fill="white" stroke="#666666" points="479,-404 373,-404 373,-374 479,-374 479,-404"/>
<text text-anchor="start" x="381" y="-392" font-family="Helvetica,sans-Serif" font-size="10.00">giraffe::gdl::Config</text>
<text text-anchor="middle" x="426" y="-381" font-family="Helvetica,sans-Serif" font-size="10.00">::getCallSign</text>
</a>
</g>
</g>
<!-- Node5&#45;&gt;Node6 -->
<g id="edge6_Node000005_Node000006" class="edge">
<title>Node5&#45;&gt;Node6</title>
<g id="a_edge6_Node000005_Node000006"><a xlink:title=" ">
<path fill="none" stroke="#63b8ff" d="M256.5,-260.11C272.68,-273.42 296.07,-293.8 314,-314 332.41,-334.75 327.63,-348.59 350,-365 354.16,-368.06 358.73,-370.73 363.5,-373.07"/>
<polygon fill="#63b8ff" stroke="#63b8ff" points="362.28,-376.36 372.84,-377.18 365.09,-369.95 362.28,-376.36"/>
</a>
</g>
</g>
<!-- Node7 -->
<g id="Node000007" class="node">
<title>Node7</title>
<g id="a_Node000007"><a xlink:href="classgiraffe_1_1CommonLogger.html#a5895d20e66f05bb5e56c8d505fb4185b" target="_top" xlink:title=" ">
<polygon fill="white" stroke="#666666" points="491.5,-356 360.5,-356 360.5,-326 491.5,-326 491.5,-356"/>
<text text-anchor="start" x="368.5" y="-344" font-family="Helvetica,sans-Serif" font-size="10.00">giraffe::CommonLogger</text>
<text text-anchor="middle" x="426" y="-333" font-family="Helvetica,sans-Serif" font-size="10.00">::getLevel</text>
</a>
</g>
</g>
<!-- Node5&#45;&gt;Node7 -->
<g id="edge7_Node000005_Node000007" class="edge">
<title>Node5&#45;&gt;Node7</title>
<g id="a_edge7_Node000005_Node000007"><a xlink:title=" ">
<path fill="none" stroke="#63b8ff" d="M257.71,-260.23C279.54,-276.13 315.79,-300.92 350,-317 354.01,-318.88 358.2,-320.67 362.46,-322.37"/>
<polygon fill="#63b8ff" stroke="#63b8ff" points="361.29,-325.66 371.88,-325.91 363.75,-319.11 361.29,-325.66"/>
</a>
</g>
</g>
<!-- Node8 -->
<g id="Node000008" class="node">
<title>Node8</title>
<g id="a_Node000008"><a xlink:href="classgiraffe_1_1CommonLogger.html#a2d55b55548ce25c3a138c795cb8d9bc6" target="_top" xlink:title=" ">
<polygon fill="white" stroke="#666666" points="491.5,-308 360.5,-308 360.5,-278 491.5,-278 491.5,-308"/>
<text text-anchor="start" x="368.5" y="-296" font-family="Helvetica,sans-Serif" font-size="10.00">giraffe::CommonLogger</text>
<text text-anchor="middle" x="426" y="-285" font-family="Helvetica,sans-Serif" font-size="10.00">::getPrintToStdout</text>
</a>
</g>
</g>
<!-- Node5&#45;&gt;Node8 -->
<g id="edge8_Node000005_Node000008" class="edge">
<title>Node5&#45;&gt;Node8</title>
<g id="a_edge8_Node000005_Node000008"><a xlink:title=" ">
<path fill="none" stroke="#63b8ff" d="M296.31,-260.06C315.42,-264.95 336.79,-270.42 356.54,-275.48"/>
<polygon fill="#63b8ff" stroke="#63b8ff" points="355.84,-278.91 366.4,-278 357.58,-272.13 355.84,-278.91"/>
</a>
</g>
</g>
<!-- Node9 -->
<g id="Node000009" class="node">
<title>Node9</title>
<g id="a_Node000009"><a xlink:href="classgiraffe_1_1gdl_1_1Config.html#a0a58a6ed60187dc17cc79c4d103d4cc7" target="_top" xlink:title=" ">
<polygon fill="white" stroke="#666666" points="492.5,-260 359.5,-260 359.5,-230 492.5,-230 492.5,-260"/>
<text text-anchor="start" x="367.5" y="-248" font-family="Helvetica,sans-Serif" font-size="10.00">giraffe::gdl::Config</text>
<text text-anchor="middle" x="426" y="-237" font-family="Helvetica,sans-Serif" font-size="10.00">::getProactiveKeepAlive</text>
</a>
</g>
</g>
<!-- Node5&#45;&gt;Node9 -->
<g id="edge9_Node000005_Node000009" class="edge">
<title>Node5&#45;&gt;Node9</title>
<g id="a_edge9_Node000005_Node000009"><a xlink:title=" ">
<path fill="none" stroke="#63b8ff" d="M298.12,-245C314.33,-245 332.06,-245 348.99,-245"/>
<polygon fill="#63b8ff" stroke="#63b8ff" points="349.41,-248.5 359.41,-245 349.41,-241.5 349.41,-248.5"/>
</a>
</g>
</g>
<!-- Node10 -->
<g id="Node000010" class="node">
<title>Node10</title>
<g id="a_Node000010"><a xlink:href="classgiraffe_1_1gdl_1_1Config.html#a1fd00187a8f0cf9632db5d0d068e4ce3" target="_top" xlink:title=" ">
<polygon fill="white" stroke="#666666" points="484,-212 368,-212 368,-182 484,-182 484,-212"/>
<text text-anchor="start" x="376" y="-200" font-family="Helvetica,sans-Serif" font-size="10.00">giraffe::gdl::Config</text>
<text text-anchor="middle" x="426" y="-189" font-family="Helvetica,sans-Serif" font-size="10.00">::getRemoteCallSign</text>
</a>
</g>
</g>
<!-- Node5&#45;&gt;Node10 -->
<g id="edge10_Node000005_Node000010" class="edge">
<title>Node5&#45;&gt;Node10</title>
<g id="a_edge10_Node000005_Node000010"><a xlink:title=" ">
<path fill="none" stroke="#63b8ff" d="M296.31,-229.94C315.88,-224.94 337.81,-219.32 357.96,-214.16"/>
<polygon fill="#63b8ff" stroke="#63b8ff" points="358.86,-217.54 367.68,-211.67 357.13,-210.76 358.86,-217.54"/>
</a>
</g>
</g>
<!-- Node11 -->
<g id="Node000011" class="node">
<title>Node11</title>
<g id="a_Node000011"><a xlink:href="classgiraffe_1_1gdl_1_1Config.html#ab4b666bf725f3ab5756dc5b5135640ae" target="_top" xlink:title=" ">
<polygon fill="white" stroke="#666666" points="479,-164 373,-164 373,-134 479,-134 479,-164"/>
<text text-anchor="start" x="381" y="-152" font-family="Helvetica,sans-Serif" font-size="10.00">giraffe::gdl::Config</text>
<text text-anchor="middle" x="426" y="-141" font-family="Helvetica,sans-Serif" font-size="10.00">::getRemoteSSID</text>
</a>
</g>
</g>
<!-- Node5&#45;&gt;Node11 -->
<g id="edge11_Node000005_Node000011" class="edge">
<title>Node5&#45;&gt;Node11</title>
<g id="a_edge11_Node000005_Node000011"><a xlink:title=" ">
<path fill="none" stroke="#63b8ff" d="M257.71,-229.77C279.54,-213.87 315.79,-189.08 350,-173 354.26,-171 358.73,-169.1 363.28,-167.31"/>
<polygon fill="#63b8ff" stroke="#63b8ff" points="364.54,-170.58 372.68,-163.81 362.09,-164.02 364.54,-170.58"/>
</a>
</g>
</g>
<!-- Node12 -->
<g id="Node000012" class="node">
<title>Node12</title>
<g id="a_Node000012"><a xlink:href="classgiraffe_1_1gdl_1_1Config.html#a36b504a087c8434d0dcbbdcdc8edc639" target="_top" xlink:title=" ">
<polygon fill="white" stroke="#666666" points="479,-116 373,-116 373,-86 479,-86 479,-116"/>
<text text-anchor="start" x="381" y="-104" font-family="Helvetica,sans-Serif" font-size="10.00">giraffe::gdl::Config</text>
<text text-anchor="middle" x="426" y="-93" font-family="Helvetica,sans-Serif" font-size="10.00">::getSSID</text>
</a>
</g>
</g>
<!-- Node5&#45;&gt;Node12 -->
<g id="edge12_Node000005_Node000012" class="edge">
<title>Node5&#45;&gt;Node12</title>
<g id="a_edge12_Node000005_Node000012"><a xlink:title=" ">
<path fill="none" stroke="#63b8ff" d="M247.77,-229.76C265.64,-204.41 304.86,-153.53 350,-125 354.12,-122.4 358.54,-120.06 363.11,-117.95"/>
<polygon fill="#63b8ff" stroke="#63b8ff" points="364.76,-121.05 372.62,-113.96 362.05,-114.6 364.76,-121.05"/>
</a>
</g>
</g>
<!-- Node13 -->
<g id="Node000013" class="node">
<title>Node13</title>
<g id="a_Node000013"><a xlink:href="namespacegiraffe.html#a6c8d7898d64c0982d482f960a46bb8c5" target="_top" xlink:title=" ">
<polygon fill="white" stroke="#666666" points="474.5,-67.5 377.5,-67.5 377.5,-48.5 474.5,-48.5 474.5,-67.5"/>
<text text-anchor="middle" x="426" y="-55.5" font-family="Helvetica,sans-Serif" font-size="10.00">giraffe::to_string</text>
</a>
</g>
</g>
<!-- Node5&#45;&gt;Node13 -->
<g id="edge13_Node000005_Node000013" class="edge">
<title>Node5&#45;&gt;Node13</title>
<g id="a_edge13_Node000005_Node000013"><a xlink:title=" ">
<path fill="none" stroke="#63b8ff" d="M247.59,-229.86C275.03,-188.68 349.07,-77.66 350,-77 355.33,-73.24 361.34,-70.22 367.57,-67.8"/>
<polygon fill="#63b8ff" stroke="#63b8ff" points="369.13,-70.97 377.49,-64.47 366.9,-64.33 369.13,-70.97"/>
</a>
</g>
</g>
<!-- Node15 -->
<g id="Node000015" class="node">
<title>Node15</title>
<g id="a_Node000015"><a xlink:href="namespacegiraffe_1_1file__paths.html#a65c87720fa2bacbdc5af2ce04c03ebff" target="_top" xlink:title="Get the Giraffe Directory Path.">
<polygon fill="white" stroke="#666666" points="494.5,-30 357.5,-30 357.5,0 494.5,0 494.5,-30"/>
<text text-anchor="start" x="365.5" y="-18" font-family="Helvetica,sans-Serif" font-size="10.00">giraffe::file_paths</text>
<text text-anchor="middle" x="426" y="-7" font-family="Helvetica,sans-Serif" font-size="10.00">::getGiraffeDirectoryPath</text>
</a>
</g>
</g>
<!-- Node14&#45;&gt;Node15 -->
<g id="edge15_Node000014_Node000015" class="edge">
<title>Node14&#45;&gt;Node15</title>
<g id="a_edge15_Node000014_Node000015"><a xlink:title=" ">
<path fill="none" stroke="#63b8ff" d="M259.52,-90.83C281.63,-76.1 317.05,-53.85 350,-39 354.29,-37.07 358.79,-35.22 363.35,-33.47"/>
<polygon fill="#63b8ff" stroke="#63b8ff" points="364.59,-36.74 372.78,-30.02 362.18,-30.17 364.59,-36.74"/>
</a>
</g>
</g>
</g>
</svg>
