<?xml version="1.0" encoding="UTF-8" standalone="no"?>
<!DOCTYPE svg PUBLIC "-//W3C//DTD SVG 1.1//EN"
 "http://www.w3.org/Graphics/SVG/1.1/DTD/svg11.dtd">
<!-- Generated by graphviz version 2.43.0 (0)
 -->
<!-- Title: command_ids.hpp Pages: 1 -->
<svg width="1685pt" height="532pt"
 viewBox="0.00 0.00 1684.52 532.00" xmlns="http://www.w3.org/2000/svg" xmlns:xlink="http://www.w3.org/1999/xlink">
<g id="graph0" class="graph" transform="scale(1 1) rotate(0) translate(4 528)">
<title>command_ids.hpp</title>
<!-- Node1 -->
<g id="node1" class="node">
<title>Node1</title>
<g id="a_node1"><a xlink:title=" ">
<polygon fill="#bfbfbf" stroke="black" points="387.5,-504.5 387.5,-523.5 493.5,-523.5 493.5,-504.5 387.5,-504.5"/>
<text text-anchor="middle" x="440.5" y="-511.5" font-family="Helvetica,sans-Serif" font-size="10.00">command_ids.hpp</text>
</a>
</g>
</g>
<!-- Node2 -->
<g id="node2" class="node">
<title>Node2</title>
<g id="a_node2"><a xlink:href="command_8hpp.html" target="_top" xlink:title="The command/queue system for the flight system.">
<polygon fill="none" stroke="black" points="802.5,-448.5 802.5,-467.5 888.5,-467.5 888.5,-448.5 802.5,-448.5"/>
<text text-anchor="middle" x="845.5" y="-455.5" font-family="Helvetica,sans-Serif" font-size="10.00">command.hpp</text>
</a>
</g>
</g>
<!-- Node1&#45;&gt;Node2 -->
<g id="edge1" class="edge">
<title>Node1&#45;&gt;Node2</title>
<path fill="none" stroke="midnightblue" d="M503.94,-504.54C587.05,-493.46 730.61,-474.32 802.24,-464.77"/>
<polygon fill="midnightblue" stroke="midnightblue" points="503.31,-501.09 493.86,-505.88 504.24,-508.03 503.31,-501.09"/>
</g>
<!-- Node85 -->
<g id="node43" class="node">
<title>Node85</title>
<g id="a_node43"><a xlink:href="request__handler_8cpp.html" target="_top" xlink:title="The request handler class implementation.">
<polygon fill="none" stroke="black" points="0,-112.5 0,-131.5 115,-131.5 115,-112.5 0,-112.5"/>
<text text-anchor="middle" x="57.5" y="-119.5" font-family="Helvetica,sans-Serif" font-size="10.00">request_handler.cpp</text>
</a>
</g>
</g>
<!-- Node1&#45;&gt;Node85 -->
<g id="edge78" class="edge">
<title>Node1&#45;&gt;Node85</title>
<path fill="none" stroke="midnightblue" d="M377.04,-507.92C268.2,-497.44 57.5,-468.68 57.5,-403 57.5,-403 57.5,-403 57.5,-233 57.5,-195.19 57.5,-150.06 57.5,-131.56"/>
<polygon fill="midnightblue" stroke="midnightblue" points="376.96,-511.43 387.25,-508.88 377.62,-504.46 376.96,-511.43"/>
</g>
<!-- Node3 -->
<g id="node3" class="node">
<title>Node3</title>
<g id="a_node3"><a xlink:href="command__processor_8cpp.html" target="_top" xlink:title="Used for parsing and processing commands.">
<polygon fill="none" stroke="black" points="944,-392.5 944,-411.5 1081,-411.5 1081,-392.5 944,-392.5"/>
<text text-anchor="middle" x="1012.5" y="-399.5" font-family="Helvetica,sans-Serif" font-size="10.00">command_processor.cpp</text>
</a>
</g>
</g>
<!-- Node2&#45;&gt;Node3 -->
<g id="edge2" class="edge">
<title>Node2&#45;&gt;Node3</title>
<path fill="none" stroke="midnightblue" d="M881.67,-445.3C913.14,-435.13 957.99,-420.62 986.16,-411.52"/>
<polygon fill="midnightblue" stroke="midnightblue" points="880.4,-442.04 871.96,-448.44 882.55,-448.7 880.4,-442.04"/>
</g>
<!-- Node4 -->
<g id="node4" class="node">
<title>Node4</title>
<g id="a_node4"><a xlink:href="module_8hpp.html" target="_top" xlink:title="The header file for the base module class.">
<polygon fill="none" stroke="black" points="1126.5,-168.5 1126.5,-187.5 1200.5,-187.5 1200.5,-168.5 1126.5,-168.5"/>
<text text-anchor="middle" x="1163.5" y="-175.5" font-family="Helvetica,sans-Serif" font-size="10.00">module.hpp</text>
</a>
</g>
</g>
<!-- Node2&#45;&gt;Node4 -->
<g id="edge3" class="edge">
<title>Node2&#45;&gt;Node4</title>
<path fill="none" stroke="midnightblue" d="M899.2,-457.47C1037.02,-457.24 1392.5,-446.95 1392.5,-347 1392.5,-347 1392.5,-347 1392.5,-289 1392.5,-204.87 1265.36,-185.04 1200.55,-180.4"/>
<polygon fill="midnightblue" stroke="midnightblue" points="898.88,-453.97 888.88,-457.47 898.88,-460.97 898.88,-453.97"/>
</g>
<!-- Node25 -->
<g id="node23" class="node">
<title>Node25</title>
<g id="a_node23"><a xlink:href="streams_8hpp.html" target="_top" xlink:title="The header file for the data streams.">
<polygon fill="none" stroke="black" points="670,-392.5 670,-411.5 747,-411.5 747,-392.5 670,-392.5"/>
<text text-anchor="middle" x="708.5" y="-399.5" font-family="Helvetica,sans-Serif" font-size="10.00">streams.hpp</text>
</a>
</g>
</g>
<!-- Node2&#45;&gt;Node25 -->
<g id="edge27" class="edge">
<title>Node2&#45;&gt;Node25</title>
<path fill="none" stroke="midnightblue" d="M814.48,-444.77C788.74,-434.63 752.81,-420.47 730.11,-411.52"/>
<polygon fill="midnightblue" stroke="midnightblue" points="813.21,-448.03 823.79,-448.44 815.77,-441.52 813.21,-448.03"/>
</g>
<!-- Node97 -->
<g id="node50" class="node">
<title>Node97</title>
<g id="a_node50"><a xlink:href="test__command__processor_8cpp.html" target="_top" xlink:title="Test of the command processor.">
<polygon fill="none" stroke="black" points="765,-392.5 765,-411.5 926,-411.5 926,-392.5 765,-392.5"/>
<text text-anchor="middle" x="845.5" y="-399.5" font-family="Helvetica,sans-Serif" font-size="10.00">test_command_processor.cpp</text>
</a>
</g>
</g>
<!-- Node2&#45;&gt;Node97 -->
<g id="edge77" class="edge">
<title>Node2&#45;&gt;Node97</title>
<path fill="none" stroke="midnightblue" d="M845.5,-437.8C845.5,-428.91 845.5,-418.78 845.5,-411.75"/>
<polygon fill="midnightblue" stroke="midnightblue" points="842,-438.08 845.5,-448.08 849,-438.08 842,-438.08"/>
</g>
<!-- Node5 -->
<g id="node5" class="node">
<title>Node5</title>
<g id="a_node5"><a xlink:href="console__module_8hpp.html" target="_top" xlink:title=" ">
<polygon fill="none" stroke="black" points="991,-112.5 991,-131.5 1108,-131.5 1108,-112.5 991,-112.5"/>
<text text-anchor="middle" x="1049.5" y="-119.5" font-family="Helvetica,sans-Serif" font-size="10.00">console_module.hpp</text>
</a>
</g>
</g>
<!-- Node4&#45;&gt;Node5 -->
<g id="edge4" class="edge">
<title>Node4&#45;&gt;Node5</title>
<path fill="none" stroke="midnightblue" d="M1136.26,-164.1C1114.96,-154.01 1085.96,-140.27 1067.48,-131.52"/>
<polygon fill="midnightblue" stroke="midnightblue" points="1134.9,-167.33 1145.44,-168.44 1137.9,-161 1134.9,-167.33"/>
</g>
<!-- Node11 -->
<g id="node9" class="node">
<title>Node11</title>
<g id="a_node9"><a xlink:href="data__module_8hpp.html" target="_top" xlink:title="The data module header file.">
<polygon fill="none" stroke="black" points="369,-112.5 369,-131.5 470,-131.5 470,-112.5 369,-112.5"/>
<text text-anchor="middle" x="419.5" y="-119.5" font-family="Helvetica,sans-Serif" font-size="10.00">data_module.hpp</text>
</a>
</g>
</g>
<!-- Node4&#45;&gt;Node11 -->
<g id="edge8" class="edge">
<title>Node4&#45;&gt;Node11</title>
<path fill="none" stroke="midnightblue" d="M1116.3,-173.23C1095.51,-171.59 1070.79,-169.67 1048.5,-168 833.43,-151.89 576.88,-133.93 470.06,-126.5"/>
<polygon fill="midnightblue" stroke="midnightblue" points="1116.23,-176.74 1126.47,-174.04 1116.78,-169.76 1116.23,-176.74"/>
</g>
<!-- Node14 -->
<g id="node12" class="node">
<title>Node14</title>
<g id="a_node12"><a xlink:href="extension__module_8hpp.html" target="_top" xlink:title="This is the header file for the new extension module.">
<polygon fill="none" stroke="black" points="716.5,-112.5 716.5,-131.5 844.5,-131.5 844.5,-112.5 716.5,-112.5"/>
<text text-anchor="middle" x="780.5" y="-119.5" font-family="Helvetica,sans-Serif" font-size="10.00">extension_module.hpp</text>
</a>
</g>
</g>
<!-- Node4&#45;&gt;Node14 -->
<g id="edge12" class="edge">
<title>Node4&#45;&gt;Node14</title>
<path fill="none" stroke="midnightblue" d="M1116.23,-170.34C1046.82,-160.55 917.31,-142.29 841.03,-131.53"/>
<polygon fill="midnightblue" stroke="midnightblue" points="1116.04,-173.84 1126.43,-171.77 1117.01,-166.91 1116.04,-173.84"/>
</g>
<!-- Node18 -->
<g id="node16" class="node">
<title>Node18</title>
<g id="a_node16"><a xlink:href="module_8cpp.html" target="_top" xlink:title="Implementation of the module base class.">
<polygon fill="none" stroke="black" points="1126.5,-112.5 1126.5,-131.5 1200.5,-131.5 1200.5,-112.5 1126.5,-112.5"/>
<text text-anchor="middle" x="1163.5" y="-119.5" font-family="Helvetica,sans-Serif" font-size="10.00">module.cpp</text>
</a>
</g>
</g>
<!-- Node4&#45;&gt;Node18 -->
<g id="edge17" class="edge">
<title>Node4&#45;&gt;Node18</title>
<path fill="none" stroke="midnightblue" d="M1163.5,-157.8C1163.5,-148.91 1163.5,-138.78 1163.5,-131.75"/>
<polygon fill="midnightblue" stroke="midnightblue" points="1160,-158.08 1163.5,-168.08 1167,-158.08 1160,-158.08"/>
</g>
<!-- Node19 -->
<g id="node17" class="node">
<title>Node19</title>
<g id="a_node17"><a xlink:href="server__module_8hpp.html" target="_top" xlink:title="Header file for the server module.">
<polygon fill="none" stroke="black" points="862.5,-112.5 862.5,-131.5 972.5,-131.5 972.5,-112.5 862.5,-112.5"/>
<text text-anchor="middle" x="917.5" y="-119.5" font-family="Helvetica,sans-Serif" font-size="10.00">server_module.hpp</text>
</a>
</g>
</g>
<!-- Node4&#45;&gt;Node19 -->
<g id="edge18" class="edge">
<title>Node4&#45;&gt;Node19</title>
<path fill="none" stroke="midnightblue" d="M1116.59,-166.7C1070.19,-156.52 999.98,-141.1 956.53,-131.57"/>
<polygon fill="midnightblue" stroke="midnightblue" points="1115.89,-170.13 1126.4,-168.86 1117.39,-163.29 1115.89,-170.13"/>
</g>
<!-- Node21 -->
<g id="node19" class="node">
<title>Node21</title>
<g id="a_node19"><a xlink:href="system__module_8hpp.html" target="_top" xlink:title=" ">
<polygon fill="none" stroke="black" points="1364.5,-112.5 1364.5,-131.5 1480.5,-131.5 1480.5,-112.5 1364.5,-112.5"/>
<text text-anchor="middle" x="1422.5" y="-119.5" font-family="Helvetica,sans-Serif" font-size="10.00">system_module.hpp</text>
</a>
</g>
</g>
<!-- Node4&#45;&gt;Node21 -->
<g id="edge21" class="edge">
<title>Node4&#45;&gt;Node21</title>
<path fill="none" stroke="midnightblue" d="M1210.61,-167.18C1259.5,-156.98 1335.17,-141.21 1381.61,-131.52"/>
<polygon fill="midnightblue" stroke="midnightblue" points="1209.68,-163.8 1200.61,-169.26 1211.11,-170.65 1209.68,-163.8"/>
</g>
<!-- Node23 -->
<g id="node21" class="node">
<title>Node23</title>
<g id="a_node21"><a xlink:href="telemetry__module_8hpp.html" target="_top" xlink:title="The telemetry module.">
<polygon fill="none" stroke="black" points="1218.5,-112.5 1218.5,-131.5 1346.5,-131.5 1346.5,-112.5 1218.5,-112.5"/>
<text text-anchor="middle" x="1282.5" y="-119.5" font-family="Helvetica,sans-Serif" font-size="10.00">telemetry_module.hpp</text>
</a>
</g>
</g>
<!-- Node4&#45;&gt;Node23 -->
<g id="edge24" class="edge">
<title>Node4&#45;&gt;Node23</title>
<path fill="none" stroke="midnightblue" d="M1191.64,-164.23C1213.9,-154.13 1244.36,-140.31 1263.73,-131.52"/>
<polygon fill="midnightblue" stroke="midnightblue" points="1190.02,-161.12 1182.36,-168.44 1192.91,-167.5 1190.02,-161.12"/>
</g>
<!-- Node6 -->
<g id="node6" class="node">
<title>Node6</title>
<g id="a_node6"><a xlink:href="flight__runner_8hpp.html" target="_top" xlink:title="The main class for the flight system.">
<polygon fill="none" stroke="red" points="1141.5,-56.5 1141.5,-75.5 1239.5,-75.5 1239.5,-56.5 1141.5,-56.5"/>
<text text-anchor="middle" x="1190.5" y="-63.5" font-family="Helvetica,sans-Serif" font-size="10.00">flight_runner.hpp</text>
</a>
</g>
</g>
<!-- Node5&#45;&gt;Node6 -->
<g id="edge5" class="edge">
<title>Node5&#45;&gt;Node6</title>
<path fill="none" stroke="midnightblue" d="M1081.43,-108.77C1107.91,-98.63 1144.89,-84.47 1168.26,-75.52"/>
<polygon fill="midnightblue" stroke="midnightblue" points="1079.93,-105.6 1071.84,-112.44 1082.43,-112.14 1079.93,-105.6"/>
</g>
<!-- Node10 -->
<g id="node8" class="node">
<title>Node10</title>
<g id="a_node8"><a xlink:href="console__module_8cpp.html" target="_top" xlink:title=" ">
<polygon fill="none" stroke="black" points="1007.5,-56.5 1007.5,-75.5 1123.5,-75.5 1123.5,-56.5 1007.5,-56.5"/>
<text text-anchor="middle" x="1065.5" y="-63.5" font-family="Helvetica,sans-Serif" font-size="10.00">console_module.cpp</text>
</a>
</g>
</g>
<!-- Node5&#45;&gt;Node10 -->
<g id="edge7" class="edge">
<title>Node5&#45;&gt;Node10</title>
<path fill="none" stroke="midnightblue" d="M1055.01,-102.4C1057.69,-93.36 1060.78,-82.94 1062.91,-75.75"/>
<polygon fill="midnightblue" stroke="midnightblue" points="1051.63,-101.5 1052.14,-112.08 1058.34,-103.49 1051.63,-101.5"/>
</g>
<!-- Node7 -->
<g id="node7" class="node">
<title>Node7</title>
<g id="a_node7"><a xlink:href="flight__logic_8cpp.html" target="_top" xlink:title="The implementation of the flight logic within the flight runner.">
<polygon fill="none" stroke="black" points="597.5,-0.5 597.5,-19.5 687.5,-19.5 687.5,-0.5 597.5,-0.5"/>
<text text-anchor="middle" x="642.5" y="-7.5" font-family="Helvetica,sans-Serif" font-size="10.00">flight_logic.cpp</text>
</a>
</g>
</g>
<!-- Node6&#45;&gt;Node7 -->
<g id="edge6" class="edge">
<title>Node6&#45;&gt;Node7</title>
<path fill="none" stroke="midnightblue" d="M1131.36,-55.93C961.5,-35.24 772.28,-20.4 687.53,-14.19"/>
<polygon fill="midnightblue" stroke="midnightblue" points="1131.13,-59.43 1141.48,-57.17 1131.98,-52.48 1131.13,-59.43"/>
</g>
<!-- Node11&#45;&gt;Node6 -->
<g id="edge9" class="edge">
<title>Node11&#45;&gt;Node6</title>
<path fill="none" stroke="midnightblue" d="M480.21,-119.03C603.45,-114.62 891.74,-102.22 1132.5,-76 1135.44,-75.68 1138.45,-75.32 1141.49,-74.92"/>
<polygon fill="midnightblue" stroke="midnightblue" points="480.08,-115.53 470.21,-119.38 480.33,-122.53 480.08,-115.53"/>
</g>
<!-- Node12 -->
<g id="node10" class="node">
<title>Node12</title>
<g id="a_node10"><a xlink:href="data__module_8cpp.html" target="_top" xlink:title=" ">
<polygon fill="none" stroke="black" points="123,-56.5 123,-75.5 224,-75.5 224,-56.5 123,-56.5"/>
<text text-anchor="middle" x="173.5" y="-63.5" font-family="Helvetica,sans-Serif" font-size="10.00">data_module.cpp</text>
</a>
</g>
</g>
<!-- Node11&#45;&gt;Node12 -->
<g id="edge10" class="edge">
<title>Node11&#45;&gt;Node12</title>
<path fill="none" stroke="midnightblue" d="M370.67,-110.28C324.18,-100.08 255.14,-84.92 212.3,-75.52"/>
<polygon fill="midnightblue" stroke="midnightblue" points="370,-113.72 380.52,-112.44 371.5,-106.88 370,-113.72"/>
</g>
<!-- Node13 -->
<g id="node11" class="node">
<title>Node13</title>
<g id="a_node11"><a xlink:href="test__data__module_8cpp.html" target="_top" xlink:title="Data module unit tests.">
<polygon fill="none" stroke="black" points="242,-56.5 242,-75.5 367,-75.5 367,-56.5 242,-56.5"/>
<text text-anchor="middle" x="304.5" y="-63.5" font-family="Helvetica,sans-Serif" font-size="10.00">test_data_module.cpp</text>
</a>
</g>
</g>
<!-- Node11&#45;&gt;Node13 -->
<g id="edge11" class="edge">
<title>Node11&#45;&gt;Node13</title>
<path fill="none" stroke="midnightblue" d="M392.02,-108.1C370.53,-98.01 341.28,-84.27 322.64,-75.52"/>
<polygon fill="midnightblue" stroke="midnightblue" points="390.74,-111.36 401.28,-112.44 393.71,-105.02 390.74,-111.36"/>
</g>
<!-- Node14&#45;&gt;Node6 -->
<g id="edge13" class="edge">
<title>Node14&#45;&gt;Node6</title>
<path fill="none" stroke="midnightblue" d="M854.66,-111.76C941.63,-100.88 1080.5,-83.36 1132.5,-76 1135.43,-75.59 1138.43,-75.15 1141.47,-74.7"/>
<polygon fill="midnightblue" stroke="midnightblue" points="854.08,-108.3 844.59,-113.02 854.94,-115.25 854.08,-108.3"/>
</g>
<!-- Node15 -->
<g id="node13" class="node">
<title>Node15</title>
<g id="a_node13"><a xlink:href="extension__module_8cpp.html" target="_top" xlink:title="The implementation of the new extension module.">
<polygon fill="none" stroke="black" points="554,-56.5 554,-75.5 681,-75.5 681,-56.5 554,-56.5"/>
<text text-anchor="middle" x="617.5" y="-63.5" font-family="Helvetica,sans-Serif" font-size="10.00">extension_module.cpp</text>
</a>
</g>
</g>
<!-- Node14&#45;&gt;Node15 -->
<g id="edge14" class="edge">
<title>Node14&#45;&gt;Node15</title>
<path fill="none" stroke="midnightblue" d="M744.8,-109.17C714.1,-99 670.58,-84.59 643.21,-75.52"/>
<polygon fill="midnightblue" stroke="midnightblue" points="744.08,-112.62 754.67,-112.44 746.28,-105.98 744.08,-112.62"/>
</g>
<!-- Node16 -->
<g id="node14" class="node">
<title>Node16</title>
<g id="a_node14"><a xlink:href="preconfigured__extensions_8cpp.html" target="_top" xlink:title="Shortcuts for quickly adding extensions to the configuration. Part of the extension module.">
<polygon fill="none" stroke="black" points="699.5,-56.5 699.5,-75.5 861.5,-75.5 861.5,-56.5 699.5,-56.5"/>
<text text-anchor="middle" x="780.5" y="-63.5" font-family="Helvetica,sans-Serif" font-size="10.00">preconfigured_extensions.cpp</text>
</a>
</g>
</g>
<!-- Node14&#45;&gt;Node16 -->
<g id="edge15" class="edge">
<title>Node14&#45;&gt;Node16</title>
<path fill="none" stroke="midnightblue" d="M780.5,-101.8C780.5,-92.91 780.5,-82.78 780.5,-75.75"/>
<polygon fill="midnightblue" stroke="midnightblue" points="777,-102.08 780.5,-112.08 784,-102.08 777,-102.08"/>
</g>
<!-- Node17 -->
<g id="node15" class="node">
<title>Node17</title>
<g id="a_node15"><a xlink:href="test__extension__module_8cpp.html" target="_top" xlink:title="Extension module unit tests.">
<polygon fill="none" stroke="black" points="385,-56.5 385,-75.5 536,-75.5 536,-56.5 385,-56.5"/>
<text text-anchor="middle" x="460.5" y="-63.5" font-family="Helvetica,sans-Serif" font-size="10.00">test_extension_module.cpp</text>
</a>
</g>
</g>
<!-- Node14&#45;&gt;Node17 -->
<g id="edge16" class="edge">
<title>Node14&#45;&gt;Node17</title>
<path fill="none" stroke="midnightblue" d="M719.63,-110.73C659.16,-100.52 567.51,-85.06 510.97,-75.52"/>
<polygon fill="midnightblue" stroke="midnightblue" points="719.35,-114.23 729.8,-112.44 720.52,-107.33 719.35,-114.23"/>
</g>
<!-- Node19&#45;&gt;Node6 -->
<g id="edge19" class="edge">
<title>Node19&#45;&gt;Node6</title>
<path fill="none" stroke="midnightblue" d="M970.72,-110.47C1022.31,-100.27 1099.6,-84.98 1147.44,-75.52"/>
<polygon fill="midnightblue" stroke="midnightblue" points="969.89,-107.07 960.76,-112.44 971.25,-113.94 969.89,-107.07"/>
</g>
<!-- Node20 -->
<g id="node18" class="node">
<title>Node20</title>
<g id="a_node18"><a xlink:href="server__module_8cpp.html" target="_top" xlink:title="The server module class implementation.">
<polygon fill="none" stroke="black" points="879.5,-56.5 879.5,-75.5 989.5,-75.5 989.5,-56.5 879.5,-56.5"/>
<text text-anchor="middle" x="934.5" y="-63.5" font-family="Helvetica,sans-Serif" font-size="10.00">server_module.cpp</text>
</a>
</g>
</g>
<!-- Node19&#45;&gt;Node20 -->
<g id="edge20" class="edge">
<title>Node19&#45;&gt;Node20</title>
<path fill="none" stroke="midnightblue" d="M923.36,-102.4C926.2,-93.36 929.48,-82.94 931.75,-75.75"/>
<polygon fill="midnightblue" stroke="midnightblue" points="919.97,-101.49 920.31,-112.08 926.65,-103.6 919.97,-101.49"/>
</g>
<!-- Node21&#45;&gt;Node6 -->
<g id="edge22" class="edge">
<title>Node21&#45;&gt;Node6</title>
<path fill="none" stroke="midnightblue" d="M1375.9,-110.15C1332.06,-99.95 1267.32,-84.88 1227.09,-75.52"/>
<polygon fill="midnightblue" stroke="midnightblue" points="1375.21,-113.59 1385.74,-112.44 1376.79,-106.77 1375.21,-113.59"/>
</g>
<!-- Node22 -->
<g id="node20" class="node">
<title>Node22</title>
<g id="a_node20"><a xlink:href="system__module_8cpp.html" target="_top" xlink:title=" ">
<polygon fill="none" stroke="black" points="1403,-56.5 1403,-75.5 1518,-75.5 1518,-56.5 1403,-56.5"/>
<text text-anchor="middle" x="1460.5" y="-63.5" font-family="Helvetica,sans-Serif" font-size="10.00">system_module.cpp</text>
</a>
</g>
</g>
<!-- Node21&#45;&gt;Node22 -->
<g id="edge23" class="edge">
<title>Node21&#45;&gt;Node22</title>
<path fill="none" stroke="midnightblue" d="M1434.56,-103.86C1441.14,-94.5 1449.01,-83.33 1454.34,-75.75"/>
<polygon fill="midnightblue" stroke="midnightblue" points="1431.67,-101.89 1428.77,-112.08 1437.39,-105.92 1431.67,-101.89"/>
</g>
<!-- Node23&#45;&gt;Node6 -->
<g id="edge25" class="edge">
<title>Node23&#45;&gt;Node6</title>
<path fill="none" stroke="midnightblue" d="M1258.95,-107.18C1242.02,-97.24 1219.72,-84.15 1205.24,-75.65"/>
<polygon fill="midnightblue" stroke="midnightblue" points="1257.32,-110.28 1267.72,-112.32 1260.87,-104.24 1257.32,-110.28"/>
</g>
<!-- Node24 -->
<g id="node22" class="node">
<title>Node24</title>
<g id="a_node22"><a xlink:href="telemetry__module_8cpp.html" target="_top" xlink:title="The telemetry module.">
<polygon fill="none" stroke="black" points="1258,-56.5 1258,-75.5 1385,-75.5 1385,-56.5 1258,-56.5"/>
<text text-anchor="middle" x="1321.5" y="-63.5" font-family="Helvetica,sans-Serif" font-size="10.00">telemetry_module.cpp</text>
</a>
</g>
</g>
<!-- Node23&#45;&gt;Node24 -->
<g id="edge26" class="edge">
<title>Node23&#45;&gt;Node24</title>
<path fill="none" stroke="midnightblue" d="M1294.88,-103.86C1301.64,-94.5 1309.71,-83.33 1315.18,-75.75"/>
<polygon fill="midnightblue" stroke="midnightblue" points="1291.96,-101.93 1288.94,-112.08 1297.63,-106.03 1291.96,-101.93"/>
</g>
<!-- Node26 -->
<g id="node24" class="node">
<title>Node26</title>
<g id="a_node24"><a xlink:href="validation_8hpp.html" target="_top" xlink:title=" ">
<polygon fill="none" stroke="black" points="856.5,-336.5 856.5,-355.5 942.5,-355.5 942.5,-336.5 856.5,-336.5"/>
<text text-anchor="middle" x="899.5" y="-343.5" font-family="Helvetica,sans-Serif" font-size="10.00">validation.hpp</text>
</a>
</g>
</g>
<!-- Node25&#45;&gt;Node26 -->
<g id="edge28" class="edge">
<title>Node25&#45;&gt;Node26</title>
<path fill="none" stroke="midnightblue" d="M748.47,-389.7C784.52,-379.51 836.74,-364.74 869.38,-355.52"/>
<polygon fill="midnightblue" stroke="midnightblue" points="747.44,-386.35 738.76,-392.44 749.34,-393.09 747.44,-386.35"/>
</g>
<!-- Node29 -->
<g id="node27" class="node">
<title>Node29</title>
<g id="a_node27"><a xlink:href="error__frame_8hpp.html" target="_top" xlink:title="The error frame.">
<polygon fill="none" stroke="black" points="610,-336.5 610,-355.5 705,-355.5 705,-336.5 610,-336.5"/>
<text text-anchor="middle" x="657.5" y="-343.5" font-family="Helvetica,sans-Serif" font-size="10.00">error_frame.hpp</text>
</a>
</g>
</g>
<!-- Node25&#45;&gt;Node29 -->
<g id="edge31" class="edge">
<title>Node25&#45;&gt;Node29</title>
<path fill="none" stroke="midnightblue" d="M693.12,-384.72C684.13,-375.2 673.14,-363.56 665.76,-355.75"/>
<polygon fill="midnightblue" stroke="midnightblue" points="690.67,-387.22 700.08,-392.08 695.76,-382.41 690.67,-387.22"/>
</g>
<!-- Node31 -->
<g id="node29" class="node">
<title>Node31</title>
<g id="a_node29"><a xlink:href="shared__data_8hpp.html" target="_top" xlink:title="Contains the SharedData struct, used across all modules and extensions.">
<polygon fill="none" stroke="black" points="722.5,-280.5 722.5,-299.5 820.5,-299.5 820.5,-280.5 722.5,-280.5"/>
<text text-anchor="middle" x="771.5" y="-287.5" font-family="Helvetica,sans-Serif" font-size="10.00">shared_data.hpp</text>
</a>
</g>
</g>
<!-- Node25&#45;&gt;Node31 -->
<g id="edge72" class="edge">
<title>Node25&#45;&gt;Node31</title>
<path fill="none" stroke="midnightblue" d="M718.44,-383.64C732.13,-359.74 756.25,-317.63 766.58,-299.59"/>
<polygon fill="midnightblue" stroke="midnightblue" points="715.38,-381.95 713.44,-392.37 721.45,-385.43 715.38,-381.95"/>
</g>
<!-- Node94 -->
<g id="node49" class="node">
<title>Node94</title>
<g id="a_node49"><a xlink:href="to__string_8hpp.html" target="_top" xlink:title="Generic to_string functions for a variety of types.">
<polygon fill="none" stroke="red" points="133.5,-112.5 133.5,-131.5 213.5,-131.5 213.5,-112.5 133.5,-112.5"/>
<text text-anchor="middle" x="173.5" y="-119.5" font-family="Helvetica,sans-Serif" font-size="10.00">to_string.hpp</text>
</a>
</g>
</g>
<!-- Node25&#45;&gt;Node94 -->
<g id="edge73" class="edge">
<title>Node25&#45;&gt;Node94</title>
<path fill="none" stroke="midnightblue" d="M659.29,-397.36C513.74,-385.94 95.5,-348.16 95.5,-291 95.5,-291 95.5,-291 95.5,-233 95.5,-202.9 97.46,-192.81 114.5,-168 125.44,-152.07 143.82,-139.36 157.16,-131.56"/>
<polygon fill="midnightblue" stroke="midnightblue" points="659.45,-400.88 669.69,-398.17 659.99,-393.9 659.45,-400.88"/>
</g>
<!-- Node27 -->
<g id="node25" class="node">
<title>Node27</title>
<g id="a_node25"><a xlink:href="cfg__adcmappings_8cpp.html" target="_top" xlink:title="ADC Mapping configuration section.">
<polygon fill="none" stroke="black" points="838.5,-280.5 838.5,-299.5 960.5,-299.5 960.5,-280.5 838.5,-280.5"/>
<text text-anchor="middle" x="899.5" y="-287.5" font-family="Helvetica,sans-Serif" font-size="10.00">cfg_adcmappings.cpp</text>
</a>
</g>
</g>
<!-- Node26&#45;&gt;Node27 -->
<g id="edge29" class="edge">
<title>Node26&#45;&gt;Node27</title>
<path fill="none" stroke="midnightblue" d="M899.5,-325.8C899.5,-316.91 899.5,-306.78 899.5,-299.75"/>
<polygon fill="midnightblue" stroke="midnightblue" points="896,-326.08 899.5,-336.08 903,-326.08 896,-326.08"/>
</g>
<!-- Node28 -->
<g id="node26" class="node">
<title>Node28</title>
<g id="a_node26"><a xlink:href="cfg__extensions_8cpp.html" target="_top" xlink:title="Implements the extensions section of the configuration.">
<polygon fill="none" stroke="black" points="978.5,-280.5 978.5,-299.5 1088.5,-299.5 1088.5,-280.5 978.5,-280.5"/>
<text text-anchor="middle" x="1033.5" y="-287.5" font-family="Helvetica,sans-Serif" font-size="10.00">cfg_extensions.cpp</text>
</a>
</g>
</g>
<!-- Node26&#45;&gt;Node28 -->
<g id="edge30" class="edge">
<title>Node26&#45;&gt;Node28</title>
<path fill="none" stroke="midnightblue" d="M930.18,-332.64C955.32,-322.5 990.25,-308.43 1012.37,-299.52"/>
<polygon fill="midnightblue" stroke="midnightblue" points="928.7,-329.46 920.73,-336.44 931.32,-335.95 928.7,-329.46"/>
</g>
<!-- Node30 -->
<g id="node28" class="node">
<title>Node30</title>
<g id="a_node28"><a xlink:href="error__frame_8cpp.html" target="_top" xlink:title="The implementation of the error frame.">
<polygon fill="none" stroke="black" points="472,-280.5 472,-299.5 567,-299.5 567,-280.5 472,-280.5"/>
<text text-anchor="middle" x="519.5" y="-287.5" font-family="Helvetica,sans-Serif" font-size="10.00">error_frame.cpp</text>
</a>
</g>
</g>
<!-- Node29&#45;&gt;Node30 -->
<g id="edge32" class="edge">
<title>Node29&#45;&gt;Node30</title>
<path fill="none" stroke="midnightblue" d="M626.25,-332.77C600.33,-322.63 564.14,-308.47 541.26,-299.52"/>
<polygon fill="midnightblue" stroke="midnightblue" points="625.05,-336.06 635.63,-336.44 627.6,-329.54 625.05,-336.06"/>
</g>
<!-- Node29&#45;&gt;Node31 -->
<g id="edge33" class="edge">
<title>Node29&#45;&gt;Node31</title>
<path fill="none" stroke="midnightblue" d="M684.74,-332.1C706.04,-322.01 735.04,-308.27 753.52,-299.52"/>
<polygon fill="midnightblue" stroke="midnightblue" points="683.1,-329 675.56,-336.44 686.1,-335.33 683.1,-329"/>
</g>
<!-- Node93 -->
<g id="node48" class="node">
<title>Node93</title>
<g id="a_node48"><a xlink:href="test__error__frame_8cpp.html" target="_top" xlink:title="Test of the error frame.">
<polygon fill="none" stroke="black" points="585,-280.5 585,-299.5 704,-299.5 704,-280.5 585,-280.5"/>
<text text-anchor="middle" x="644.5" y="-287.5" font-family="Helvetica,sans-Serif" font-size="10.00">test_error_frame.cpp</text>
</a>
</g>
</g>
<!-- Node29&#45;&gt;Node93 -->
<g id="edge71" class="edge">
<title>Node29&#45;&gt;Node93</title>
<path fill="none" stroke="midnightblue" d="M652.95,-326.1C650.79,-317.14 648.32,-306.86 646.61,-299.75"/>
<polygon fill="midnightblue" stroke="midnightblue" points="649.61,-327.18 655.35,-336.08 656.42,-325.54 649.61,-327.18"/>
</g>
<!-- Node31&#45;&gt;Node4 -->
<g id="edge58" class="edge">
<title>Node31&#45;&gt;Node4</title>
<path fill="none" stroke="midnightblue" d="M830.73,-280.25C920.01,-274.57 1297.81,-283.4 1334.5,-244 1375.41,-200.07 1262.71,-185.58 1200.91,-181"/>
<polygon fill="midnightblue" stroke="midnightblue" points="830.18,-276.78 820.51,-281.1 830.77,-283.75 830.18,-276.78"/>
</g>
<!-- Node31&#45;&gt;Node6 -->
<g id="edge43" class="edge">
<title>Node31&#45;&gt;Node6</title>
<path fill="none" stroke="midnightblue" d="M830.96,-280.31C933.59,-275.33 1600.2,-272.05 1632.5,-244 1677.35,-205.05 1693.6,-155.83 1653.5,-112 1623,-78.67 1293.35,-81.47 1248.5,-76 1245.57,-75.64 1242.55,-75.25 1239.52,-74.84"/>
<polygon fill="midnightblue" stroke="midnightblue" points="830.56,-276.82 820.81,-280.97 831.02,-283.81 830.56,-276.82"/>
</g>
<!-- Node32 -->
<g id="node30" class="node">
<title>Node32</title>
<g id="a_node30"><a xlink:href="cfg__section_8hpp.html" target="_top" xlink:title="This file contains the base class for all configuration sections.">
<polygon fill="none" stroke="red" points="842,-224.5 842,-243.5 935,-243.5 935,-224.5 842,-224.5"/>
<text text-anchor="middle" x="888.5" y="-231.5" font-family="Helvetica,sans-Serif" font-size="10.00">cfg_section.hpp</text>
</a>
</g>
</g>
<!-- Node31&#45;&gt;Node32 -->
<g id="edge34" class="edge">
<title>Node31&#45;&gt;Node32</title>
<path fill="none" stroke="midnightblue" d="M799.16,-276.23C821.05,-266.13 851,-252.31 870.05,-243.52"/>
<polygon fill="midnightblue" stroke="midnightblue" points="797.65,-273.08 790.04,-280.44 800.59,-279.43 797.65,-273.08"/>
</g>
<!-- Node35 -->
<g id="node31" class="node">
<title>Node35</title>
<g id="a_node31"><a xlink:href="extension__base_8hpp.html" target="_top" xlink:title="The new implementation of the extension system.">
<polygon fill="none" stroke="red" points="671.5,-224.5 671.5,-243.5 785.5,-243.5 785.5,-224.5 671.5,-224.5"/>
<text text-anchor="middle" x="728.5" y="-231.5" font-family="Helvetica,sans-Serif" font-size="10.00">extension_base.hpp</text>
</a>
</g>
</g>
<!-- Node31&#45;&gt;Node35 -->
<g id="edge35" class="edge">
<title>Node31&#45;&gt;Node35</title>
<path fill="none" stroke="midnightblue" d="M758.08,-272.14C750.59,-262.74 741.56,-251.4 735.47,-243.75"/>
<polygon fill="midnightblue" stroke="midnightblue" points="755.43,-274.44 764.4,-280.08 760.91,-270.08 755.43,-274.44"/>
</g>
<!-- Node58 -->
<g id="node32" class="node">
<title>Node58</title>
<g id="a_node32"><a xlink:href="flight__phase__manager_8hpp.html" target="_top" xlink:title=" ">
<polygon fill="none" stroke="red" points="1499,-112.5 1499,-131.5 1644,-131.5 1644,-112.5 1499,-112.5"/>
<text text-anchor="middle" x="1571.5" y="-119.5" font-family="Helvetica,sans-Serif" font-size="10.00">flight_phase_manager.hpp</text>
</a>
</g>
</g>
<!-- Node31&#45;&gt;Node58 -->
<g id="edge37" class="edge">
<title>Node31&#45;&gt;Node58</title>
<path fill="none" stroke="midnightblue" d="M831.09,-280.32C932.95,-275.58 1586.6,-274.25 1615.5,-244 1622.12,-237.07 1631.54,-209.43 1614.5,-168 1608.25,-152.81 1594.26,-139.79 1583.93,-131.73"/>
<polygon fill="midnightblue" stroke="midnightblue" points="830.57,-276.84 820.81,-280.98 831.02,-283.83 830.57,-276.84"/>
</g>
<!-- Node60 -->
<g id="node33" class="node">
<title>Node60</title>
<g id="a_node33"><a xlink:href="flight__phase__predictor_8hpp.html" target="_top" xlink:title=" ">
<polygon fill="none" stroke="red" points="1460,-168.5 1460,-187.5 1605,-187.5 1605,-168.5 1460,-168.5"/>
<text text-anchor="middle" x="1532.5" y="-175.5" font-family="Helvetica,sans-Serif" font-size="10.00">flight_phase_predictor.hpp</text>
</a>
</g>
</g>
<!-- Node31&#45;&gt;Node60 -->
<g id="edge39" class="edge">
<title>Node31&#45;&gt;Node60</title>
<path fill="none" stroke="midnightblue" d="M830.62,-279.99C1062.88,-255.17 1127.74,-291.35 1352.5,-244 1413.62,-231.12 1482.05,-202.1 1514.08,-187.6"/>
<polygon fill="midnightblue" stroke="midnightblue" points="830.07,-276.53 820.51,-281.09 830.83,-283.49 830.07,-276.53"/>
</g>
<!-- Node63 -->
<g id="node34" class="node">
<title>Node63</title>
<g id="a_node34"><a xlink:href="prediction__parameters_8hpp.html" target="_top" xlink:title=" ">
<polygon fill="none" stroke="red" points="1458.5,-224.5 1458.5,-243.5 1606.5,-243.5 1606.5,-224.5 1458.5,-224.5"/>
<text text-anchor="middle" x="1532.5" y="-231.5" font-family="Helvetica,sans-Serif" font-size="10.00">prediction_parameters.hpp</text>
</a>
</g>
</g>
<!-- Node31&#45;&gt;Node63 -->
<g id="edge41" class="edge">
<title>Node31&#45;&gt;Node63</title>
<path fill="none" stroke="midnightblue" d="M830.71,-279.98C1103.49,-251.33 1174.91,-265.67 1444.5,-244 1448.94,-243.64 1453.5,-243.25 1458.1,-242.84"/>
<polygon fill="midnightblue" stroke="midnightblue" points="830.08,-276.52 820.5,-281.06 830.82,-283.49 830.08,-276.52"/>
</g>
<!-- Node69 -->
<g id="node35" class="node">
<title>Node69</title>
<g id="a_node35"><a xlink:href="console__pages_8hpp.html" target="_top" xlink:title=" ">
<polygon fill="none" stroke="red" points="929.5,-168.5 929.5,-187.5 1039.5,-187.5 1039.5,-168.5 929.5,-168.5"/>
<text text-anchor="middle" x="984.5" y="-175.5" font-family="Helvetica,sans-Serif" font-size="10.00">console_pages.hpp</text>
</a>
</g>
</g>
<!-- Node31&#45;&gt;Node69 -->
<g id="edge44" class="edge">
<title>Node31&#45;&gt;Node69</title>
<path fill="none" stroke="midnightblue" d="M783.17,-272.23C794.25,-257.5 812.21,-236.51 832.5,-224 862.6,-205.44 900.78,-194.18 931.35,-187.56"/>
<polygon fill="midnightblue" stroke="midnightblue" points="780.23,-270.32 777.19,-280.47 785.9,-274.43 780.23,-270.32"/>
</g>
<!-- Node73 -->
<g id="node36" class="node">
<title>Node73</title>
<g id="a_node36"><a xlink:href="adc__interpolation_8hpp.html" target="_top" xlink:title="ADC Interpolation Utility.">
<polygon fill="none" stroke="red" points="221.5,-168.5 221.5,-187.5 343.5,-187.5 343.5,-168.5 221.5,-168.5"/>
<text text-anchor="middle" x="282.5" y="-175.5" font-family="Helvetica,sans-Serif" font-size="10.00">adc_interpolation.hpp</text>
</a>
</g>
</g>
<!-- Node31&#45;&gt;Node73 -->
<g id="edge46" class="edge">
<title>Node31&#45;&gt;Node73</title>
<path fill="none" stroke="midnightblue" d="M712.27,-280.06C569.57,-262.47 526.51,-287.64 394.5,-244 354.37,-230.73 312.78,-201.9 293.51,-187.51"/>
<polygon fill="midnightblue" stroke="midnightblue" points="711.9,-283.54 722.26,-281.34 712.79,-276.6 711.9,-283.54"/>
</g>
<!-- Node75 -->
<g id="node37" class="node">
<title>Node75</title>
<g id="a_node37"><a xlink:href="calculated__data_8hpp.html" target="_top" xlink:title="Calculates new data from the existing data.">
<polygon fill="none" stroke="red" points="362,-168.5 362,-187.5 477,-187.5 477,-168.5 362,-168.5"/>
<text text-anchor="middle" x="419.5" y="-175.5" font-family="Helvetica,sans-Serif" font-size="10.00">calculated_data.hpp</text>
</a>
</g>
</g>
<!-- Node31&#45;&gt;Node75 -->
<g id="edge48" class="edge">
<title>Node31&#45;&gt;Node75</title>
<path fill="none" stroke="midnightblue" d="M712.09,-280.23C628.55,-272.7 448.43,-293.37 404.5,-244 390.33,-228.08 404.28,-201.47 413.25,-187.76"/>
<polygon fill="midnightblue" stroke="midnightblue" points="711.94,-283.73 722.26,-281.36 712.71,-276.78 711.94,-283.73"/>
</g>
<!-- Node77 -->
<g id="node38" class="node">
<title>Node77</title>
<g id="a_node38"><a xlink:href="data__formatting_8hpp.html" target="_top" xlink:title="This file contains the DataFormatter class, which is used to format data for the data and log files.">
<polygon fill="none" stroke="red" points="199.5,-224.5 199.5,-243.5 315.5,-243.5 315.5,-224.5 199.5,-224.5"/>
<text text-anchor="middle" x="257.5" y="-231.5" font-family="Helvetica,sans-Serif" font-size="10.00">data_formatting.hpp</text>
</a>
</g>
</g>
<!-- Node31&#45;&gt;Node77 -->
<g id="edge50" class="edge">
<title>Node31&#45;&gt;Node77</title>
<path fill="none" stroke="midnightblue" d="M712.24,-280.04C542.45,-259.3 497.96,-261.76 332.5,-244 327.02,-243.41 321.33,-242.77 315.63,-242.12"/>
<polygon fill="midnightblue" stroke="midnightblue" points="711.92,-283.53 722.27,-281.28 712.78,-276.58 711.92,-283.53"/>
</g>
<!-- Node79 -->
<g id="node39" class="node">
<title>Node79</title>
<g id="a_node39"><a xlink:href="data__log_8hpp.html" target="_top" xlink:title="The data log is responsible for writing data to files and managing the file system.">
<polygon fill="none" stroke="red" points="123.5,-168.5 123.5,-187.5 203.5,-187.5 203.5,-168.5 123.5,-168.5"/>
<text text-anchor="middle" x="163.5" y="-175.5" font-family="Helvetica,sans-Serif" font-size="10.00">data_log.hpp</text>
</a>
</g>
</g>
<!-- Node31&#45;&gt;Node79 -->
<g id="edge53" class="edge">
<title>Node31&#45;&gt;Node79</title>
<path fill="none" stroke="midnightblue" d="M712.26,-280.31C621.13,-273.9 235.78,-276.53 190.5,-244 172.04,-230.74 166.15,-202.43 164.31,-187.95"/>
<polygon fill="midnightblue" stroke="midnightblue" points="712.02,-283.8 722.28,-281.18 712.63,-276.83 712.02,-283.8"/>
</g>
<!-- Node81 -->
<g id="node40" class="node">
<title>Node81</title>
<g id="a_node40"><a xlink:href="file__system__manager_8hpp.html" target="_top" xlink:title=" ">
<polygon fill="none" stroke="black" points="495.5,-168.5 495.5,-187.5 637.5,-187.5 637.5,-168.5 495.5,-168.5"/>
<text text-anchor="middle" x="566.5" y="-175.5" font-family="Helvetica,sans-Serif" font-size="10.00">file_system_manager.hpp</text>
</a>
</g>
</g>
<!-- Node31&#45;&gt;Node81 -->
<g id="edge54" class="edge">
<title>Node31&#45;&gt;Node81</title>
<path fill="none" stroke="midnightblue" d="M713.66,-278.63C652.3,-267.35 563.46,-250.12 558.5,-244 545.32,-227.75 555.22,-201.28 561.83,-187.68"/>
<polygon fill="midnightblue" stroke="midnightblue" points="713.17,-282.1 723.63,-280.46 714.43,-275.21 713.17,-282.1"/>
</g>
<!-- Node82 -->
<g id="node41" class="node">
<title>Node82</title>
<g id="a_node41"><a xlink:href="influxdb_8hpp.html" target="_top" xlink:title=" ">
<polygon fill="none" stroke="red" points="576,-224.5 576,-243.5 653,-243.5 653,-224.5 576,-224.5"/>
<text text-anchor="middle" x="614.5" y="-231.5" font-family="Helvetica,sans-Serif" font-size="10.00">influxdb.hpp</text>
</a>
</g>
</g>
<!-- Node31&#45;&gt;Node82 -->
<g id="edge56" class="edge">
<title>Node31&#45;&gt;Node82</title>
<path fill="none" stroke="midnightblue" d="M737.11,-277.17C707.55,-267 665.63,-252.59 639.26,-243.52"/>
<polygon fill="midnightblue" stroke="midnightblue" points="736.03,-280.5 746.62,-280.44 738.3,-273.88 736.03,-280.5"/>
</g>
<!-- Node84 -->
<g id="node42" class="node">
<title>Node84</title>
<g id="a_node42"><a xlink:href="request__handler_8hpp.html" target="_top" xlink:title="The request handler class header.">
<polygon fill="none" stroke="red" points="655.5,-168.5 655.5,-187.5 771.5,-187.5 771.5,-168.5 655.5,-168.5"/>
<text text-anchor="middle" x="713.5" y="-175.5" font-family="Helvetica,sans-Serif" font-size="10.00">request_handler.hpp</text>
</a>
</g>
</g>
<!-- Node31&#45;&gt;Node84 -->
<g id="edge59" class="edge">
<title>Node31&#45;&gt;Node84</title>
<path fill="none" stroke="midnightblue" d="M712.39,-279.87C655.17,-270.43 575.74,-255.48 566.5,-244 560.93,-237.07 561.21,-231.15 566.5,-224 578.36,-207.96 626.5,-195.31 664.5,-187.56"/>
<polygon fill="midnightblue" stroke="midnightblue" points="712.01,-283.35 722.44,-281.51 713.13,-276.44 712.01,-283.35"/>
</g>
<!-- Node89 -->
<g id="node44" class="node">
<title>Node89</title>
<g id="a_node44"><a xlink:href="logger_8hpp.html" target="_top" xlink:title="A simple logger class so difference classes have access to the same logger.">
<polygon fill="none" stroke="black" points="413.5,-224.5 413.5,-243.5 481.5,-243.5 481.5,-224.5 413.5,-224.5"/>
<text text-anchor="middle" x="447.5" y="-231.5" font-family="Helvetica,sans-Serif" font-size="10.00">logger.hpp</text>
</a>
</g>
</g>
<!-- Node31&#45;&gt;Node89 -->
<g id="edge62" class="edge">
<title>Node31&#45;&gt;Node89</title>
<path fill="none" stroke="midnightblue" d="M712.25,-279.76C656.31,-270.93 570.12,-257.08 495.5,-244 490.99,-243.21 486.25,-242.35 481.57,-241.49"/>
<polygon fill="midnightblue" stroke="midnightblue" points="711.91,-283.25 722.33,-281.34 713,-276.33 711.91,-283.25"/>
</g>
<!-- Node90 -->
<g id="node45" class="node">
<title>Node90</title>
<g id="a_node45"><a xlink:href="to__json_8cpp.html" target="_top" xlink:title=" ">
<polygon fill="none" stroke="black" points="953.5,-224.5 953.5,-243.5 1025.5,-243.5 1025.5,-224.5 953.5,-224.5"/>
<text text-anchor="middle" x="989.5" y="-231.5" font-family="Helvetica,sans-Serif" font-size="10.00">to_json.cpp</text>
</a>
</g>
</g>
<!-- Node31&#45;&gt;Node90 -->
<g id="edge68" class="edge">
<title>Node31&#45;&gt;Node90</title>
<path fill="none" stroke="midnightblue" d="M815.81,-278.02C856.99,-267.82 917.47,-252.84 955.12,-243.52"/>
<polygon fill="midnightblue" stroke="midnightblue" points="814.91,-274.64 806.04,-280.44 816.59,-281.44 814.91,-274.64"/>
</g>
<!-- Node91 -->
<g id="node46" class="node">
<title>Node91</title>
<g id="a_node46"><a xlink:href="shared__data__helpers_8hpp.html" target="_top" xlink:title=" ">
<polygon fill="none" stroke="red" points="1044,-224.5 1044,-243.5 1183,-243.5 1183,-224.5 1044,-224.5"/>
<text text-anchor="middle" x="1113.5" y="-231.5" font-family="Helvetica,sans-Serif" font-size="10.00">shared_data_helpers.hpp</text>
</a>
</g>
</g>
<!-- Node31&#45;&gt;Node91 -->
<g id="edge69" class="edge">
<title>Node31&#45;&gt;Node91</title>
<path fill="none" stroke="midnightblue" d="M830.5,-279.68C894.91,-269.51 997.16,-253.37 1059.51,-243.52"/>
<polygon fill="midnightblue" stroke="midnightblue" points="829.83,-276.25 820.5,-281.26 830.92,-283.16 829.83,-276.25"/>
</g>
<!-- Node92 -->
<g id="node47" class="node">
<title>Node92</title>
<g id="a_node47"><a xlink:href="test__configuration_8cpp.html" target="_top" xlink:title=" ">
<polygon fill="none" stroke="black" points="1201,-224.5 1201,-243.5 1326,-243.5 1326,-224.5 1201,-224.5"/>
<text text-anchor="middle" x="1263.5" y="-231.5" font-family="Helvetica,sans-Serif" font-size="10.00">test_configuration.cpp</text>
</a>
</g>
</g>
<!-- Node31&#45;&gt;Node92 -->
<g id="edge70" class="edge">
<title>Node31&#45;&gt;Node92</title>
<path fill="none" stroke="midnightblue" d="M830.78,-279.9C991.62,-259.69 1034.12,-261.66 1191.5,-244 1194.5,-243.66 1197.58,-243.31 1200.68,-242.95"/>
<polygon fill="midnightblue" stroke="midnightblue" points="830,-276.47 820.52,-281.2 830.88,-283.42 830,-276.47"/>
</g>
<!-- Node35&#45;&gt;Node14 -->
<g id="edge36" class="edge">
<title>Node35&#45;&gt;Node14</title>
<path fill="none" stroke="midnightblue" d="M771.63,-220.73C787.67,-213.84 804.21,-203.43 813.5,-188 825.25,-168.48 804.16,-144.28 790.61,-131.62"/>
<polygon fill="midnightblue" stroke="midnightblue" points="770.33,-217.48 762.3,-224.39 772.89,-223.99 770.33,-217.48"/>
</g>
<!-- Node58&#45;&gt;Node6 -->
<g id="edge38" class="edge">
<title>Node58&#45;&gt;Node6</title>
<path fill="none" stroke="midnightblue" d="M1498.11,-111.11C1432.61,-102.2 1334.1,-88.6 1248.5,-76 1245.58,-75.57 1242.57,-75.12 1239.54,-74.66"/>
<polygon fill="midnightblue" stroke="midnightblue" points="1497.95,-114.62 1508.33,-112.49 1498.89,-107.68 1497.95,-114.62"/>
</g>
<!-- Node60&#45;&gt;Node58 -->
<g id="edge40" class="edge">
<title>Node60&#45;&gt;Node58</title>
<path fill="none" stroke="midnightblue" d="M1544.88,-159.86C1551.64,-150.5 1559.71,-139.33 1565.18,-131.75"/>
<polygon fill="midnightblue" stroke="midnightblue" points="1541.96,-157.93 1538.94,-168.08 1547.63,-162.03 1541.96,-157.93"/>
</g>
<!-- Node63&#45;&gt;Node60 -->
<g id="edge42" class="edge">
<title>Node63&#45;&gt;Node60</title>
<path fill="none" stroke="midnightblue" d="M1532.5,-213.8C1532.5,-204.91 1532.5,-194.78 1532.5,-187.75"/>
<polygon fill="midnightblue" stroke="midnightblue" points="1529,-214.08 1532.5,-224.08 1536,-214.08 1529,-214.08"/>
</g>
<!-- Node69&#45;&gt;Node5 -->
<g id="edge45" class="edge">
<title>Node69&#45;&gt;Node5</title>
<path fill="none" stroke="midnightblue" d="M1002.77,-161.82C1014.42,-152.15 1029.1,-139.95 1038.87,-131.83"/>
<polygon fill="midnightblue" stroke="midnightblue" points="1000.4,-159.24 994.94,-168.32 1004.87,-164.63 1000.4,-159.24"/>
</g>
<!-- Node73&#45;&gt;Node11 -->
<g id="edge47" class="edge">
<title>Node73&#45;&gt;Node11</title>
<path fill="none" stroke="midnightblue" d="M313.52,-164.77C339.26,-154.63 375.19,-140.47 397.89,-131.52"/>
<polygon fill="midnightblue" stroke="midnightblue" points="312.23,-161.52 304.21,-168.44 314.79,-168.03 312.23,-161.52"/>
</g>
<!-- Node75&#45;&gt;Node11 -->
<g id="edge49" class="edge">
<title>Node75&#45;&gt;Node11</title>
<path fill="none" stroke="midnightblue" d="M419.5,-157.8C419.5,-148.91 419.5,-138.78 419.5,-131.75"/>
<polygon fill="midnightblue" stroke="midnightblue" points="416,-158.08 419.5,-168.08 423,-158.08 416,-158.08"/>
</g>
<!-- Node77&#45;&gt;Node79 -->
<g id="edge51" class="edge">
<title>Node77&#45;&gt;Node79</title>
<path fill="none" stroke="midnightblue" d="M233.44,-219.18C216.14,-209.24 193.35,-196.15 178.57,-187.65"/>
<polygon fill="midnightblue" stroke="midnightblue" points="231.98,-222.38 242.4,-224.32 235.47,-216.31 231.98,-222.38"/>
</g>
<!-- Node79&#45;&gt;Node11 -->
<g id="edge52" class="edge">
<title>Node79&#45;&gt;Node11</title>
<path fill="none" stroke="midnightblue" d="M213.72,-166.41C262.06,-156.21 334.26,-140.98 379.03,-131.54"/>
<polygon fill="midnightblue" stroke="midnightblue" points="212.84,-163.01 203.78,-168.5 214.29,-169.86 212.84,-163.01"/>
</g>
<!-- Node81&#45;&gt;Node11 -->
<g id="edge55" class="edge">
<title>Node81&#45;&gt;Node11</title>
<path fill="none" stroke="midnightblue" d="M533.58,-164.91C505.94,-154.75 467.16,-140.51 442.68,-131.52"/>
<polygon fill="midnightblue" stroke="midnightblue" points="532.61,-168.28 543.21,-168.44 535.03,-161.71 532.61,-168.28"/>
</g>
<!-- Node82&#45;&gt;Node11 -->
<g id="edge57" class="edge">
<title>Node82&#45;&gt;Node11</title>
<path fill="none" stroke="midnightblue" d="M662.95,-222.98C709.29,-212.92 773.19,-197.56 780.5,-188 785.9,-180.94 786.38,-174.66 780.5,-168 760.3,-145.13 564.88,-131.14 470.3,-125.66"/>
<polygon fill="midnightblue" stroke="midnightblue" points="662.1,-219.59 653.06,-225.11 663.57,-226.43 662.1,-219.59"/>
</g>
<!-- Node84&#45;&gt;Node19 -->
<g id="edge61" class="edge">
<title>Node84&#45;&gt;Node19</title>
<path fill="none" stroke="midnightblue" d="M755.7,-165.83C794.22,-155.63 850.32,-140.78 885.33,-131.52"/>
<polygon fill="midnightblue" stroke="midnightblue" points="754.6,-162.5 745.82,-168.44 756.39,-169.27 754.6,-162.5"/>
</g>
<!-- Node84&#45;&gt;Node85 -->
<g id="edge60" class="edge">
<title>Node84&#45;&gt;Node85</title>
<path fill="none" stroke="midnightblue" d="M645.32,-167.95C413.43,-144.81 352.59,-155.16 124.5,-132 121.46,-131.69 118.35,-131.35 115.22,-130.99"/>
<polygon fill="midnightblue" stroke="midnightblue" points="645.12,-171.44 655.42,-168.96 645.82,-164.48 645.12,-171.44"/>
</g>
<!-- Node89&#45;&gt;Node58 -->
<g id="edge63" class="edge">
<title>Node89&#45;&gt;Node58</title>
<path fill="none" stroke="midnightblue" d="M491.81,-229.44C514.19,-227.7 541.78,-225.63 566.5,-224 852.11,-205.21 925.22,-221.35 1209.5,-188 1328.25,-174.07 1466.96,-145.74 1532.89,-131.53"/>
<polygon fill="midnightblue" stroke="midnightblue" points="491.29,-225.97 481.6,-230.24 491.84,-232.95 491.29,-225.97"/>
</g>
<!-- Node89&#45;&gt;Node73 -->
<g id="edge64" class="edge">
<title>Node89&#45;&gt;Node73</title>
<path fill="none" stroke="midnightblue" d="M411.76,-221.3C380.67,-211.13 336.35,-196.62 308.52,-187.52"/>
<polygon fill="midnightblue" stroke="midnightblue" points="410.76,-224.66 421.36,-224.44 412.94,-218.01 410.76,-224.66"/>
</g>
<!-- Node89&#45;&gt;Node75 -->
<g id="edge65" class="edge">
<title>Node89&#45;&gt;Node75</title>
<path fill="none" stroke="midnightblue" d="M438.16,-214.98C433.41,-205.82 427.84,-195.09 424.04,-187.75"/>
<polygon fill="midnightblue" stroke="midnightblue" points="435.17,-216.82 442.88,-224.08 441.38,-213.59 435.17,-216.82"/>
</g>
<!-- Node89&#45;&gt;Node81 -->
<g id="edge66" class="edge">
<title>Node89&#45;&gt;Node81</title>
<path fill="none" stroke="midnightblue" d="M475.64,-220.23C497.9,-210.13 528.36,-196.31 547.73,-187.52"/>
<polygon fill="midnightblue" stroke="midnightblue" points="474.02,-217.12 466.36,-224.44 476.91,-223.5 474.02,-217.12"/>
</g>
<!-- Node89&#45;&gt;Node84 -->
<g id="edge67" class="edge">
<title>Node89&#45;&gt;Node84</title>
<path fill="none" stroke="midnightblue" d="M491.6,-224.05C541.57,-213.9 622.44,-197.49 671.52,-187.52"/>
<polygon fill="midnightblue" stroke="midnightblue" points="490.83,-220.63 481.73,-226.05 492.23,-227.49 490.83,-220.63"/>
</g>
<!-- Node94&#45;&gt;Node7 -->
<g id="edge74" class="edge">
<title>Node94&#45;&gt;Node7</title>
<path fill="none" stroke="midnightblue" d="M146.65,-107.58C123.8,-94.45 97.08,-73.87 113.5,-56 145.92,-20.7 474.88,-13.06 597.1,-11.43"/>
<polygon fill="midnightblue" stroke="midnightblue" points="144.98,-110.66 155.43,-112.39 148.34,-104.52 144.98,-110.66"/>
</g>
<!-- Node94&#45;&gt;Node12 -->
<g id="edge75" class="edge">
<title>Node94&#45;&gt;Node12</title>
<path fill="none" stroke="midnightblue" d="M173.5,-101.8C173.5,-92.91 173.5,-82.78 173.5,-75.75"/>
<polygon fill="midnightblue" stroke="midnightblue" points="170,-102.08 173.5,-112.08 177,-102.08 170,-102.08"/>
</g>
<!-- Node94&#45;&gt;Node17 -->
<g id="edge76" class="edge">
<title>Node94&#45;&gt;Node17</title>
<path fill="none" stroke="midnightblue" d="M223.74,-111.55C277.72,-101.39 362.76,-85.39 414.88,-75.58"/>
<polygon fill="midnightblue" stroke="midnightblue" points="222.89,-108.15 213.71,-113.43 224.18,-115.03 222.89,-108.15"/>
</g>
</g>
</svg>
