<?xml version="1.0" encoding="UTF-8" standalone="no"?>
<!DOCTYPE svg PUBLIC "-//W3C//DTD SVG 1.1//EN"
 "http://www.w3.org/Graphics/SVG/1.1/DTD/svg11.dtd">
<!-- Generated by graphviz version 2.43.0 (0)
 -->
<!-- Title: command_ids.hpp Pages: 1 -->
<svg width="2032pt" height="588pt"
 viewBox="0.00 0.00 2031.94 588.00" xmlns="http://www.w3.org/2000/svg" xmlns:xlink="http://www.w3.org/1999/xlink">
<g id="graph0" class="graph" transform="scale(1 1) rotate(0) translate(4 584)">
<title>command_ids.hpp</title>
<!-- Node1 -->
<g id="node1" class="node">
<title>Node1</title>
<g id="a_node1"><a xlink:title=" ">
<polygon fill="#bfbfbf" stroke="black" points="1124.94,-560.5 1124.94,-579.5 1230.94,-579.5 1230.94,-560.5 1124.94,-560.5"/>
<text text-anchor="middle" x="1177.94" y="-567.5" font-family="Helvetica,sans-Serif" font-size="10.00">command_ids.hpp</text>
</a>
</g>
</g>
<!-- Node2 -->
<g id="node2" class="node">
<title>Node2</title>
<g id="a_node2"><a xlink:href="command_8hpp.html" target="_top" xlink:title="The command/queue system for the flight system.">
<polygon fill="none" stroke="black" points="901.94,-504.5 901.94,-523.5 987.94,-523.5 987.94,-504.5 901.94,-504.5"/>
<text text-anchor="middle" x="944.94" y="-511.5" font-family="Helvetica,sans-Serif" font-size="10.00">command.hpp</text>
</a>
</g>
</g>
<!-- Node1&#45;&gt;Node2 -->
<g id="edge1" class="edge">
<title>Node1&#45;&gt;Node2</title>
<path fill="none" stroke="midnightblue" d="M1131.14,-558.15C1087.12,-547.95 1022.09,-532.88 981.69,-523.52"/>
<polygon fill="midnightblue" stroke="midnightblue" points="1130.49,-561.6 1141.02,-560.44 1132.07,-554.78 1130.49,-561.6"/>
</g>
<!-- Node66 -->
<g id="node41" class="node">
<title>Node66</title>
<g id="a_node41"><a xlink:href="request__handler_8cpp.html" target="_top" xlink:title="The request handler class implementation.">
<polygon fill="none" stroke="black" points="1234.44,-168.5 1234.44,-187.5 1349.44,-187.5 1349.44,-168.5 1234.44,-168.5"/>
<text text-anchor="middle" x="1291.94" y="-175.5" font-family="Helvetica,sans-Serif" font-size="10.00">request_handler.cpp</text>
</a>
</g>
</g>
<!-- Node1&#45;&gt;Node66 -->
<g id="edge74" class="edge">
<title>Node1&#45;&gt;Node66</title>
<path fill="none" stroke="midnightblue" d="M1241.04,-567.15C1313.93,-561.26 1423.94,-539.09 1423.94,-459 1423.94,-459 1423.94,-459 1423.94,-289 1423.94,-234.56 1356.86,-201.84 1318.34,-187.53"/>
<polygon fill="midnightblue" stroke="midnightblue" points="1240.74,-563.66 1231.02,-567.88 1241.25,-570.65 1240.74,-563.66"/>
</g>
<!-- Node3 -->
<g id="node3" class="node">
<title>Node3</title>
<g id="a_node3"><a xlink:href="command__processor_8cpp.html" target="_top" xlink:title="Used for parsing and processing commands.">
<polygon fill="none" stroke="black" points="751.44,-448.5 751.44,-467.5 888.44,-467.5 888.44,-448.5 751.44,-448.5"/>
<text text-anchor="middle" x="819.94" y="-455.5" font-family="Helvetica,sans-Serif" font-size="10.00">command_processor.cpp</text>
</a>
</g>
</g>
<!-- Node2&#45;&gt;Node3 -->
<g id="edge2" class="edge">
<title>Node2&#45;&gt;Node3</title>
<path fill="none" stroke="midnightblue" d="M915.7,-500.37C892.29,-490.26 860.1,-476.35 839.66,-467.52"/>
<polygon fill="midnightblue" stroke="midnightblue" points="914.57,-503.69 925.14,-504.44 917.34,-497.26 914.57,-503.69"/>
</g>
<!-- Node4 -->
<g id="node4" class="node">
<title>Node4</title>
<g id="a_node4"><a xlink:href="module_8hpp.html" target="_top" xlink:title="The header file for the base module class.">
<polygon fill="none" stroke="black" points="1462.94,-224.5 1462.94,-243.5 1536.94,-243.5 1536.94,-224.5 1462.94,-224.5"/>
<text text-anchor="middle" x="1499.94" y="-231.5" font-family="Helvetica,sans-Serif" font-size="10.00">module.hpp</text>
</a>
</g>
</g>
<!-- Node2&#45;&gt;Node4 -->
<g id="edge3" class="edge">
<title>Node2&#45;&gt;Node4</title>
<path fill="none" stroke="midnightblue" d="M998.44,-513.63C1137.56,-513.83 1499.94,-504.6 1499.94,-403 1499.94,-403 1499.94,-403 1499.94,-345 1499.94,-307.19 1499.94,-262.06 1499.94,-243.56"/>
<polygon fill="midnightblue" stroke="midnightblue" points="998.04,-510.13 988.03,-513.59 998.02,-517.13 998.04,-510.13"/>
</g>
<!-- Node23 -->
<g id="node23" class="node">
<title>Node23</title>
<g id="a_node23"><a xlink:href="streams_8hpp.html" target="_top" xlink:title="The header file for the data streams.">
<polygon fill="none" stroke="black" points="906.44,-448.5 906.44,-467.5 983.44,-467.5 983.44,-448.5 906.44,-448.5"/>
<text text-anchor="middle" x="944.94" y="-455.5" font-family="Helvetica,sans-Serif" font-size="10.00">streams.hpp</text>
</a>
</g>
</g>
<!-- Node2&#45;&gt;Node23 -->
<g id="edge27" class="edge">
<title>Node2&#45;&gt;Node23</title>
<path fill="none" stroke="midnightblue" d="M944.94,-493.8C944.94,-484.91 944.94,-474.78 944.94,-467.75"/>
<polygon fill="midnightblue" stroke="midnightblue" points="941.44,-494.08 944.94,-504.08 948.44,-494.08 941.44,-494.08"/>
</g>
<!-- Node74 -->
<g id="node50" class="node">
<title>Node74</title>
<g id="a_node50"><a xlink:href="test__command__processor_8cpp.html" target="_top" xlink:title="Test of the command processor.">
<polygon fill="none" stroke="black" points="572.44,-448.5 572.44,-467.5 733.44,-467.5 733.44,-448.5 572.44,-448.5"/>
<text text-anchor="middle" x="652.94" y="-455.5" font-family="Helvetica,sans-Serif" font-size="10.00">test_command_processor.cpp</text>
</a>
</g>
</g>
<!-- Node2&#45;&gt;Node74 -->
<g id="edge73" class="edge">
<title>Node2&#45;&gt;Node74</title>
<path fill="none" stroke="midnightblue" d="M891.94,-503.2C836.85,-493.01 751.5,-477.23 699.1,-467.54"/>
<polygon fill="midnightblue" stroke="midnightblue" points="891.39,-506.66 901.86,-505.03 892.66,-499.77 891.39,-506.66"/>
</g>
<!-- Node5 -->
<g id="node5" class="node">
<title>Node5</title>
<g id="a_node5"><a xlink:href="console__module_8hpp.html" target="_top" xlink:title=" ">
<polygon fill="none" stroke="black" points="1534.44,-168.5 1534.44,-187.5 1651.44,-187.5 1651.44,-168.5 1534.44,-168.5"/>
<text text-anchor="middle" x="1592.94" y="-175.5" font-family="Helvetica,sans-Serif" font-size="10.00">console_module.hpp</text>
</a>
</g>
</g>
<!-- Node4&#45;&gt;Node5 -->
<g id="edge4" class="edge">
<title>Node4&#45;&gt;Node5</title>
<path fill="none" stroke="midnightblue" d="M1523.75,-219.18C1540.86,-209.24 1563.41,-196.15 1578.04,-187.65"/>
<polygon fill="midnightblue" stroke="midnightblue" points="1521.77,-216.28 1514.88,-224.32 1525.29,-222.33 1521.77,-216.28"/>
</g>
<!-- Node11 -->
<g id="node11" class="node">
<title>Node11</title>
<g id="a_node11"><a xlink:href="data__module_8hpp.html" target="_top" xlink:title="The data module header file.">
<polygon fill="none" stroke="black" points="709.44,-168.5 709.44,-187.5 810.44,-187.5 810.44,-168.5 709.44,-168.5"/>
<text text-anchor="middle" x="759.94" y="-175.5" font-family="Helvetica,sans-Serif" font-size="10.00">data_module.hpp</text>
</a>
</g>
</g>
<!-- Node4&#45;&gt;Node11 -->
<g id="edge10" class="edge">
<title>Node4&#45;&gt;Node11</title>
<path fill="none" stroke="midnightblue" d="M1452.38,-229.77C1347.3,-222.6 1087.43,-204.66 869.94,-188 850.55,-186.51 829.24,-184.79 810.59,-183.25"/>
<polygon fill="midnightblue" stroke="midnightblue" points="1452.44,-233.28 1462.65,-230.47 1452.91,-226.3 1452.44,-233.28"/>
</g>
<!-- Node14 -->
<g id="node14" class="node">
<title>Node14</title>
<g id="a_node14"><a xlink:href="extension__module_8hpp.html" target="_top" xlink:title="This is the header file for the new extension module.">
<polygon fill="none" stroke="black" points="1049.94,-112.5 1049.94,-131.5 1177.94,-131.5 1177.94,-112.5 1049.94,-112.5"/>
<text text-anchor="middle" x="1113.94" y="-119.5" font-family="Helvetica,sans-Serif" font-size="10.00">extension_module.hpp</text>
</a>
</g>
</g>
<!-- Node4&#45;&gt;Node14 -->
<g id="edge14" class="edge">
<title>Node4&#45;&gt;Node14</title>
<path fill="none" stroke="midnightblue" d="M1470.03,-220.51C1449.35,-211.74 1421.3,-199.55 1396.94,-188 1379.34,-179.65 1376.38,-174.28 1357.94,-168 1298.71,-147.84 1228.15,-136.07 1178.17,-129.66"/>
<polygon fill="midnightblue" stroke="midnightblue" points="1468.68,-223.74 1479.25,-224.41 1471.4,-217.29 1468.68,-223.74"/>
</g>
<!-- Node16 -->
<g id="node16" class="node">
<title>Node16</title>
<g id="a_node16"><a xlink:href="module_8cpp.html" target="_top" xlink:title="Implementation of the module base class.">
<polygon fill="none" stroke="black" points="1815.94,-168.5 1815.94,-187.5 1889.94,-187.5 1889.94,-168.5 1815.94,-168.5"/>
<text text-anchor="middle" x="1852.94" y="-175.5" font-family="Helvetica,sans-Serif" font-size="10.00">module.cpp</text>
</a>
</g>
</g>
<!-- Node4&#45;&gt;Node16 -->
<g id="edge17" class="edge">
<title>Node4&#45;&gt;Node16</title>
<path fill="none" stroke="midnightblue" d="M1547.37,-226.76C1607.78,-218.65 1715.34,-203.67 1806.94,-188 1809.83,-187.51 1812.81,-186.97 1815.81,-186.42"/>
<polygon fill="midnightblue" stroke="midnightblue" points="1546.81,-223.31 1537.37,-228.1 1547.74,-230.24 1546.81,-223.31"/>
</g>
<!-- Node17 -->
<g id="node17" class="node">
<title>Node17</title>
<g id="a_node17"><a xlink:href="server__module_8hpp.html" target="_top" xlink:title="Header file for the server module.">
<polygon fill="none" stroke="black" points="1405.94,-168.5 1405.94,-187.5 1515.94,-187.5 1515.94,-168.5 1405.94,-168.5"/>
<text text-anchor="middle" x="1460.94" y="-175.5" font-family="Helvetica,sans-Serif" font-size="10.00">server_module.hpp</text>
</a>
</g>
</g>
<!-- Node4&#45;&gt;Node17 -->
<g id="edge18" class="edge">
<title>Node4&#45;&gt;Node17</title>
<path fill="none" stroke="midnightblue" d="M1487.56,-215.86C1480.81,-206.5 1472.73,-195.33 1467.26,-187.75"/>
<polygon fill="midnightblue" stroke="midnightblue" points="1484.81,-218.03 1493.5,-224.08 1490.48,-213.93 1484.81,-218.03"/>
</g>
<!-- Node19 -->
<g id="node19" class="node">
<title>Node19</title>
<g id="a_node19"><a xlink:href="system__module_8hpp.html" target="_top" xlink:title=" ">
<polygon fill="none" stroke="black" points="1907.94,-168.5 1907.94,-187.5 2023.94,-187.5 2023.94,-168.5 1907.94,-168.5"/>
<text text-anchor="middle" x="1965.94" y="-175.5" font-family="Helvetica,sans-Serif" font-size="10.00">system_module.hpp</text>
</a>
</g>
</g>
<!-- Node4&#45;&gt;Node19 -->
<g id="edge21" class="edge">
<title>Node4&#45;&gt;Node19</title>
<path fill="none" stroke="midnightblue" d="M1547.14,-228.01C1621.84,-220.02 1771.91,-203.69 1898.94,-188 1901.85,-187.64 1904.84,-187.26 1907.85,-186.88"/>
<polygon fill="midnightblue" stroke="midnightblue" points="1546.68,-224.53 1537.1,-229.08 1547.42,-231.49 1546.68,-224.53"/>
</g>
<!-- Node21 -->
<g id="node21" class="node">
<title>Node21</title>
<g id="a_node21"><a xlink:href="telemetry__module_8hpp.html" target="_top" xlink:title="The telemetry module.">
<polygon fill="none" stroke="black" points="1669.94,-168.5 1669.94,-187.5 1797.94,-187.5 1797.94,-168.5 1669.94,-168.5"/>
<text text-anchor="middle" x="1733.94" y="-175.5" font-family="Helvetica,sans-Serif" font-size="10.00">telemetry_module.hpp</text>
</a>
</g>
</g>
<!-- Node4&#45;&gt;Node21 -->
<g id="edge24" class="edge">
<title>Node4&#45;&gt;Node21</title>
<path fill="none" stroke="midnightblue" d="M1546.95,-222.15C1591.16,-211.95 1656.46,-196.88 1697.04,-187.52"/>
<polygon fill="midnightblue" stroke="midnightblue" points="1545.98,-218.78 1537.02,-224.44 1547.55,-225.61 1545.98,-218.78"/>
</g>
<!-- Node6 -->
<g id="node6" class="node">
<title>Node6</title>
<g id="a_node6"><a xlink:href="flight__runner_8hpp.html" target="_top" xlink:title="The main class for the flight system.">
<polygon fill="none" stroke="black" points="1288.94,-56.5 1288.94,-75.5 1386.94,-75.5 1386.94,-56.5 1288.94,-56.5"/>
<text text-anchor="middle" x="1337.94" y="-63.5" font-family="Helvetica,sans-Serif" font-size="10.00">flight_runner.hpp</text>
</a>
</g>
</g>
<!-- Node5&#45;&gt;Node6 -->
<g id="edge5" class="edge">
<title>Node5&#45;&gt;Node6</title>
<path fill="none" stroke="midnightblue" d="M1593.46,-158C1592.77,-143.37 1589.33,-123.72 1576.94,-112 1550.18,-86.68 1448.86,-74.97 1387.05,-70.08"/>
<polygon fill="midnightblue" stroke="midnightblue" points="1589.96,-158.44 1593.53,-168.41 1596.96,-158.39 1589.96,-158.44"/>
</g>
<!-- Node10 -->
<g id="node10" class="node">
<title>Node10</title>
<g id="a_node10"><a xlink:href="console__module_8cpp.html" target="_top" xlink:title=" ">
<polygon fill="none" stroke="black" points="1451.94,-112.5 1451.94,-131.5 1567.94,-131.5 1567.94,-112.5 1451.94,-112.5"/>
<text text-anchor="middle" x="1509.94" y="-119.5" font-family="Helvetica,sans-Serif" font-size="10.00">console_module.cpp</text>
</a>
</g>
</g>
<!-- Node5&#45;&gt;Node10 -->
<g id="edge9" class="edge">
<title>Node5&#45;&gt;Node10</title>
<path fill="none" stroke="midnightblue" d="M1570.84,-162.62C1555.68,-152.76 1536.06,-139.99 1523.24,-131.65"/>
<polygon fill="midnightblue" stroke="midnightblue" points="1569.32,-165.8 1579.61,-168.32 1573.13,-159.94 1569.32,-165.8"/>
</g>
<!-- Node7 -->
<g id="node7" class="node">
<title>Node7</title>
<g id="a_node7"><a xlink:href="flight__logic_8cpp.html" target="_top" xlink:title="The implementation of the flight logic within the flight runner.">
<polygon fill="none" stroke="black" points="627.94,-0.5 627.94,-19.5 717.94,-19.5 717.94,-0.5 627.94,-0.5"/>
<text text-anchor="middle" x="672.94" y="-7.5" font-family="Helvetica,sans-Serif" font-size="10.00">flight_logic.cpp</text>
</a>
</g>
</g>
<!-- Node6&#45;&gt;Node7 -->
<g id="edge6" class="edge">
<title>Node6&#45;&gt;Node7</title>
<path fill="none" stroke="midnightblue" d="M1278.52,-60.17C1147.33,-49.52 835.34,-24.19 718.32,-14.68"/>
<polygon fill="midnightblue" stroke="midnightblue" points="1278.52,-63.69 1288.77,-61.01 1279.09,-56.71 1278.52,-63.69"/>
</g>
<!-- Node8 -->
<g id="node8" class="node">
<title>Node8</title>
<g id="a_node8"><a xlink:href="flight__runner_8cpp.html" target="_top" xlink:title="The implementation of the flight runner, where everything comes together.">
<polygon fill="none" stroke="black" points="1239.94,-0.5 1239.94,-19.5 1337.94,-19.5 1337.94,-0.5 1239.94,-0.5"/>
<text text-anchor="middle" x="1288.94" y="-7.5" font-family="Helvetica,sans-Serif" font-size="10.00">flight_runner.cpp</text>
</a>
</g>
</g>
<!-- Node6&#45;&gt;Node8 -->
<g id="edge7" class="edge">
<title>Node6&#45;&gt;Node8</title>
<path fill="none" stroke="midnightblue" d="M1322.91,-48.43C1314.32,-38.97 1303.9,-27.48 1296.88,-19.75"/>
<polygon fill="midnightblue" stroke="midnightblue" points="1320.54,-51.03 1329.85,-56.08 1325.72,-46.33 1320.54,-51.03"/>
</g>
<!-- Node9 -->
<g id="node9" class="node">
<title>Node9</title>
<g id="a_node9"><a xlink:href="src_2flight__system_2main_8cpp.html" target="_top" xlink:title="Defines the entry point/main function of the Flight Computer software.">
<polygon fill="none" stroke="black" points="1355.94,-0.5 1355.94,-19.5 1417.94,-19.5 1417.94,-0.5 1355.94,-0.5"/>
<text text-anchor="middle" x="1386.94" y="-7.5" font-family="Helvetica,sans-Serif" font-size="10.00">main.cpp</text>
</a>
</g>
</g>
<!-- Node6&#45;&gt;Node9 -->
<g id="edge8" class="edge">
<title>Node6&#45;&gt;Node9</title>
<path fill="none" stroke="midnightblue" d="M1352.98,-48.43C1361.56,-38.97 1371.99,-27.48 1379,-19.75"/>
<polygon fill="midnightblue" stroke="midnightblue" points="1350.16,-46.33 1346.03,-56.08 1355.35,-51.03 1350.16,-46.33"/>
</g>
<!-- Node11&#45;&gt;Node6 -->
<g id="edge11" class="edge">
<title>Node11&#45;&gt;Node6</title>
<path fill="none" stroke="midnightblue" d="M781.01,-162.83C805.04,-147.47 846.03,-123.58 884.94,-112 922.91,-100.7 1179.28,-79.5 1288.65,-70.83"/>
<polygon fill="midnightblue" stroke="midnightblue" points="778.85,-160.06 772.39,-168.45 782.68,-165.93 778.85,-160.06"/>
</g>
<!-- Node12 -->
<g id="node12" class="node">
<title>Node12</title>
<g id="a_node12"><a xlink:href="data__module_8cpp.html" target="_top" xlink:title=" ">
<polygon fill="none" stroke="black" points="430.44,-112.5 430.44,-131.5 531.44,-131.5 531.44,-112.5 430.44,-112.5"/>
<text text-anchor="middle" x="480.94" y="-119.5" font-family="Helvetica,sans-Serif" font-size="10.00">data_module.cpp</text>
</a>
</g>
</g>
<!-- Node11&#45;&gt;Node12 -->
<g id="edge12" class="edge">
<title>Node11&#45;&gt;Node12</title>
<path fill="none" stroke="midnightblue" d="M705.88,-166.54C653.16,-156.33 573.94,-141 524.94,-131.52"/>
<polygon fill="midnightblue" stroke="midnightblue" points="705.25,-169.98 715.73,-168.44 706.58,-163.11 705.25,-169.98"/>
</g>
<!-- Node13 -->
<g id="node13" class="node">
<title>Node13</title>
<g id="a_node13"><a xlink:href="test__data__module_8cpp.html" target="_top" xlink:title="Data module unit tests.">
<polygon fill="none" stroke="black" points="697.44,-112.5 697.44,-131.5 822.44,-131.5 822.44,-112.5 697.44,-112.5"/>
<text text-anchor="middle" x="759.94" y="-119.5" font-family="Helvetica,sans-Serif" font-size="10.00">test_data_module.cpp</text>
</a>
</g>
</g>
<!-- Node11&#45;&gt;Node13 -->
<g id="edge13" class="edge">
<title>Node11&#45;&gt;Node13</title>
<path fill="none" stroke="midnightblue" d="M759.94,-157.8C759.94,-148.91 759.94,-138.78 759.94,-131.75"/>
<polygon fill="midnightblue" stroke="midnightblue" points="756.44,-158.08 759.94,-168.08 763.44,-158.08 756.44,-158.08"/>
</g>
<!-- Node14&#45;&gt;Node6 -->
<g id="edge15" class="edge">
<title>Node14&#45;&gt;Node6</title>
<path fill="none" stroke="midnightblue" d="M1159.21,-110.09C1201.52,-99.89 1263.85,-84.86 1302.61,-75.52"/>
<polygon fill="midnightblue" stroke="midnightblue" points="1158.34,-106.7 1149.44,-112.44 1159.98,-113.5 1158.34,-106.7"/>
</g>
<!-- Node15 -->
<g id="node15" class="node">
<title>Node15</title>
<g id="a_node15"><a xlink:href="extension__module_8cpp.html" target="_top" xlink:title="The implementation of the new extension module.">
<polygon fill="none" stroke="black" points="1050.44,-56.5 1050.44,-75.5 1177.44,-75.5 1177.44,-56.5 1050.44,-56.5"/>
<text text-anchor="middle" x="1113.94" y="-63.5" font-family="Helvetica,sans-Serif" font-size="10.00">extension_module.cpp</text>
</a>
</g>
</g>
<!-- Node14&#45;&gt;Node15 -->
<g id="edge16" class="edge">
<title>Node14&#45;&gt;Node15</title>
<path fill="none" stroke="midnightblue" d="M1113.94,-101.8C1113.94,-92.91 1113.94,-82.78 1113.94,-75.75"/>
<polygon fill="midnightblue" stroke="midnightblue" points="1110.44,-102.08 1113.94,-112.08 1117.44,-102.08 1110.44,-102.08"/>
</g>
<!-- Node17&#45;&gt;Node6 -->
<g id="edge19" class="edge">
<title>Node17&#45;&gt;Node6</title>
<path fill="none" stroke="midnightblue" d="M1448.54,-160.23C1437.86,-146.41 1421.58,-126.76 1404.94,-112 1388.59,-97.5 1367.29,-83.96 1353.14,-75.6"/>
<polygon fill="midnightblue" stroke="midnightblue" points="1445.87,-162.5 1454.69,-168.36 1451.45,-158.27 1445.87,-162.5"/>
</g>
<!-- Node18 -->
<g id="node18" class="node">
<title>Node18</title>
<g id="a_node18"><a xlink:href="server__module_8cpp.html" target="_top" xlink:title="The server module class implementation.">
<polygon fill="none" stroke="black" points="1285.94,-112.5 1285.94,-131.5 1395.94,-131.5 1395.94,-112.5 1285.94,-112.5"/>
<text text-anchor="middle" x="1340.94" y="-119.5" font-family="Helvetica,sans-Serif" font-size="10.00">server_module.cpp</text>
</a>
</g>
</g>
<!-- Node17&#45;&gt;Node18 -->
<g id="edge20" class="edge">
<title>Node17&#45;&gt;Node18</title>
<path fill="none" stroke="midnightblue" d="M1432.57,-164.23C1410.12,-154.13 1379.41,-140.31 1359.87,-131.52"/>
<polygon fill="midnightblue" stroke="midnightblue" points="1431.37,-167.53 1441.93,-168.44 1434.24,-161.15 1431.37,-167.53"/>
</g>
<!-- Node19&#45;&gt;Node6 -->
<g id="edge22" class="edge">
<title>Node19&#45;&gt;Node6</title>
<path fill="none" stroke="midnightblue" d="M1940.14,-163.69C1909.33,-148.46 1855.8,-124.05 1806.94,-112 1657.04,-75.02 1473.23,-68.11 1387,-67.03"/>
<polygon fill="midnightblue" stroke="midnightblue" points="1938.81,-166.94 1949.32,-168.29 1941.94,-160.68 1938.81,-166.94"/>
</g>
<!-- Node20 -->
<g id="node20" class="node">
<title>Node20</title>
<g id="a_node20"><a xlink:href="system__module_8cpp.html" target="_top" xlink:title=" ">
<polygon fill="none" stroke="black" points="1908.44,-112.5 1908.44,-131.5 2023.44,-131.5 2023.44,-112.5 1908.44,-112.5"/>
<text text-anchor="middle" x="1965.94" y="-119.5" font-family="Helvetica,sans-Serif" font-size="10.00">system_module.cpp</text>
</a>
</g>
</g>
<!-- Node19&#45;&gt;Node20 -->
<g id="edge23" class="edge">
<title>Node19&#45;&gt;Node20</title>
<path fill="none" stroke="midnightblue" d="M1965.94,-157.8C1965.94,-148.91 1965.94,-138.78 1965.94,-131.75"/>
<polygon fill="midnightblue" stroke="midnightblue" points="1962.44,-158.08 1965.94,-168.08 1969.44,-158.08 1962.44,-158.08"/>
</g>
<!-- Node21&#45;&gt;Node6 -->
<g id="edge25" class="edge">
<title>Node21&#45;&gt;Node6</title>
<path fill="none" stroke="midnightblue" d="M1710.33,-163.36C1683.65,-148.53 1638.51,-125.2 1596.94,-112 1525.82,-89.41 1439.9,-77.32 1387.09,-71.53"/>
<polygon fill="midnightblue" stroke="midnightblue" points="1708.85,-166.55 1719.28,-168.4 1712.29,-160.45 1708.85,-166.55"/>
</g>
<!-- Node22 -->
<g id="node22" class="node">
<title>Node22</title>
<g id="a_node22"><a xlink:href="telemetry__module_8cpp.html" target="_top" xlink:title="The telemetry module.">
<polygon fill="none" stroke="black" points="1670.44,-112.5 1670.44,-131.5 1797.44,-131.5 1797.44,-112.5 1670.44,-112.5"/>
<text text-anchor="middle" x="1733.94" y="-119.5" font-family="Helvetica,sans-Serif" font-size="10.00">telemetry_module.cpp</text>
</a>
</g>
</g>
<!-- Node21&#45;&gt;Node22 -->
<g id="edge26" class="edge">
<title>Node21&#45;&gt;Node22</title>
<path fill="none" stroke="midnightblue" d="M1733.94,-157.8C1733.94,-148.91 1733.94,-138.78 1733.94,-131.75"/>
<polygon fill="midnightblue" stroke="midnightblue" points="1730.44,-158.08 1733.94,-168.08 1737.44,-158.08 1730.44,-158.08"/>
</g>
<!-- Node24 -->
<g id="node24" class="node">
<title>Node24</title>
<g id="a_node24"><a xlink:href="validation_8hpp.html" target="_top" xlink:title=" ">
<polygon fill="none" stroke="black" points="645.94,-392.5 645.94,-411.5 731.94,-411.5 731.94,-392.5 645.94,-392.5"/>
<text text-anchor="middle" x="688.94" y="-399.5" font-family="Helvetica,sans-Serif" font-size="10.00">validation.hpp</text>
</a>
</g>
</g>
<!-- Node23&#45;&gt;Node24 -->
<g id="edge28" class="edge">
<title>Node23&#45;&gt;Node24</title>
<path fill="none" stroke="midnightblue" d="M896.43,-446.77C848.14,-436.58 774.87,-421.12 729.55,-411.57"/>
<polygon fill="midnightblue" stroke="midnightblue" points="895.83,-450.22 906.34,-448.86 897.28,-443.37 895.83,-450.22"/>
</g>
<!-- Node26 -->
<g id="node26" class="node">
<title>Node26</title>
<g id="a_node26"><a xlink:href="error__frame_8hpp.html" target="_top" xlink:title="The error frame.">
<polygon fill="none" stroke="black" points="846.44,-392.5 846.44,-411.5 941.44,-411.5 941.44,-392.5 846.44,-392.5"/>
<text text-anchor="middle" x="893.94" y="-399.5" font-family="Helvetica,sans-Serif" font-size="10.00">error_frame.hpp</text>
</a>
</g>
</g>
<!-- Node23&#45;&gt;Node26 -->
<g id="edge30" class="edge">
<title>Node23&#45;&gt;Node26</title>
<path fill="none" stroke="midnightblue" d="M929.56,-440.72C920.58,-431.2 909.58,-419.56 902.21,-411.75"/>
<polygon fill="midnightblue" stroke="midnightblue" points="927.11,-443.22 936.52,-448.08 932.2,-438.41 927.11,-443.22"/>
</g>
<!-- Node28 -->
<g id="node28" class="node">
<title>Node28</title>
<g id="a_node28"><a xlink:href="shared__data_8hpp.html" target="_top" xlink:title="Contains the SharedData struct, used across all modules and extensions.">
<polygon fill="none" stroke="black" points="958.94,-336.5 958.94,-355.5 1056.94,-355.5 1056.94,-336.5 958.94,-336.5"/>
<text text-anchor="middle" x="1007.94" y="-343.5" font-family="Helvetica,sans-Serif" font-size="10.00">shared_data.hpp</text>
</a>
</g>
</g>
<!-- Node23&#45;&gt;Node28 -->
<g id="edge63" class="edge">
<title>Node23&#45;&gt;Node28</title>
<path fill="none" stroke="midnightblue" d="M954.89,-439.64C968.57,-415.74 992.69,-373.63 1003.02,-355.59"/>
<polygon fill="midnightblue" stroke="midnightblue" points="951.82,-437.95 949.89,-448.37 957.89,-441.43 951.82,-437.95"/>
</g>
<!-- Node71 -->
<g id="node46" class="node">
<title>Node71</title>
<g id="a_node46"><a xlink:href="to__string_8hpp.html" target="_top" xlink:title="Generic to_string functions for a variety of types.">
<polygon fill="none" stroke="black" points="300.94,-280.5 300.94,-299.5 380.94,-299.5 380.94,-280.5 300.94,-280.5"/>
<text text-anchor="middle" x="340.94" y="-287.5" font-family="Helvetica,sans-Serif" font-size="10.00">to_string.hpp</text>
</a>
</g>
</g>
<!-- Node23&#45;&gt;Node71 -->
<g id="edge64" class="edge">
<title>Node23&#45;&gt;Node71</title>
<path fill="none" stroke="midnightblue" d="M896.2,-447.98C779.98,-429.93 746.51,-441.48 636.94,-412 526.5,-382.29 402.14,-322.04 357.77,-299.64"/>
<polygon fill="midnightblue" stroke="midnightblue" points="895.77,-451.45 906.2,-449.57 896.87,-444.54 895.77,-451.45"/>
</g>
<!-- Node25 -->
<g id="node25" class="node">
<title>Node25</title>
<g id="a_node25"><a xlink:href="cfg__extensions_8cpp.html" target="_top" xlink:title="Implements the extensions section of the configuration.">
<polygon fill="none" stroke="black" points="878.94,-168.5 878.94,-187.5 988.94,-187.5 988.94,-168.5 878.94,-168.5"/>
<text text-anchor="middle" x="933.94" y="-175.5" font-family="Helvetica,sans-Serif" font-size="10.00">cfg_extensions.cpp</text>
</a>
</g>
</g>
<!-- Node24&#45;&gt;Node25 -->
<g id="edge29" class="edge">
<title>Node24&#45;&gt;Node25</title>
<path fill="none" stroke="midnightblue" d="M675.84,-384.23C657.9,-359.09 630.54,-311.25 654.94,-280 695.54,-228 736.9,-266.43 798.94,-244 843.96,-227.73 894,-201.27 918.59,-187.67"/>
<polygon fill="midnightblue" stroke="midnightblue" points="673.14,-386.46 681.91,-392.39 678.75,-382.28 673.14,-386.46"/>
</g>
<!-- Node27 -->
<g id="node27" class="node">
<title>Node27</title>
<g id="a_node27"><a xlink:href="error__frame_8cpp.html" target="_top" xlink:title="The implementation of the error frame.">
<polygon fill="none" stroke="black" points="708.44,-336.5 708.44,-355.5 803.44,-355.5 803.44,-336.5 708.44,-336.5"/>
<text text-anchor="middle" x="755.94" y="-343.5" font-family="Helvetica,sans-Serif" font-size="10.00">error_frame.cpp</text>
</a>
</g>
</g>
<!-- Node26&#45;&gt;Node27 -->
<g id="edge31" class="edge">
<title>Node26&#45;&gt;Node27</title>
<path fill="none" stroke="midnightblue" d="M862.69,-388.77C836.77,-378.63 800.58,-364.47 777.71,-355.52"/>
<polygon fill="midnightblue" stroke="midnightblue" points="861.49,-392.06 872.08,-392.44 864.04,-385.54 861.49,-392.06"/>
</g>
<!-- Node26&#45;&gt;Node28 -->
<g id="edge32" class="edge">
<title>Node26&#45;&gt;Node28</title>
<path fill="none" stroke="midnightblue" d="M921.18,-388.1C942.48,-378.01 971.48,-364.27 989.96,-355.52"/>
<polygon fill="midnightblue" stroke="midnightblue" points="919.54,-385 912.01,-392.44 922.54,-391.33 919.54,-385"/>
</g>
<!-- Node70 -->
<g id="node45" class="node">
<title>Node70</title>
<g id="a_node45"><a xlink:href="test__error__frame_8cpp.html" target="_top" xlink:title="Test of the error frame.">
<polygon fill="none" stroke="black" points="821.44,-336.5 821.44,-355.5 940.44,-355.5 940.44,-336.5 821.44,-336.5"/>
<text text-anchor="middle" x="880.94" y="-343.5" font-family="Helvetica,sans-Serif" font-size="10.00">test_error_frame.cpp</text>
</a>
</g>
</g>
<!-- Node26&#45;&gt;Node70 -->
<g id="edge62" class="edge">
<title>Node26&#45;&gt;Node70</title>
<path fill="none" stroke="midnightblue" d="M889.39,-382.1C887.23,-373.14 884.76,-362.86 883.05,-355.75"/>
<polygon fill="midnightblue" stroke="midnightblue" points="886.05,-383.18 891.8,-392.08 892.86,-381.54 886.05,-383.18"/>
</g>
<!-- Node28&#45;&gt;Node4 -->
<g id="edge53" class="edge">
<title>Node28&#45;&gt;Node4</title>
<path fill="none" stroke="midnightblue" d="M1067.24,-341.79C1162.36,-336.06 1344.5,-322.51 1404.94,-300 1440.15,-286.89 1474.88,-257.98 1490.85,-243.55"/>
<polygon fill="midnightblue" stroke="midnightblue" points="1066.97,-338.3 1057.2,-342.39 1067.39,-345.29 1066.97,-338.3"/>
</g>
<!-- Node28&#45;&gt;Node6 -->
<g id="edge40" class="edge">
<title>Node28&#45;&gt;Node6</title>
<path fill="none" stroke="midnightblue" d="M1067.31,-343.06C1103.68,-338.86 1148.87,-327.82 1178.94,-300 1224.55,-257.82 1192.9,-221.23 1224.94,-168 1250.45,-125.62 1299.44,-91.02 1323.66,-75.62"/>
<polygon fill="midnightblue" stroke="midnightblue" points="1066.9,-339.58 1057.3,-344.07 1067.6,-346.55 1066.9,-339.58"/>
</g>
<!-- Node29 -->
<g id="node29" class="node">
<title>Node29</title>
<g id="a_node29"><a xlink:href="cfg__section_8hpp.html" target="_top" xlink:title="This file contains the base class for all configuration sections.">
<polygon fill="none" stroke="black" points="1060.44,-280.5 1060.44,-299.5 1153.44,-299.5 1153.44,-280.5 1060.44,-280.5"/>
<text text-anchor="middle" x="1106.94" y="-287.5" font-family="Helvetica,sans-Serif" font-size="10.00">cfg_section.hpp</text>
</a>
</g>
</g>
<!-- Node28&#45;&gt;Node29 -->
<g id="edge33" class="edge">
<title>Node28&#45;&gt;Node29</title>
<path fill="none" stroke="midnightblue" d="M1032.78,-331.45C1051.06,-321.48 1075.36,-308.23 1091.08,-299.65"/>
<polygon fill="midnightblue" stroke="midnightblue" points="1030.95,-328.46 1023.85,-336.32 1034.3,-334.61 1030.95,-328.46"/>
</g>
<!-- Node31 -->
<g id="node31" class="node">
<title>Node31</title>
<g id="a_node31"><a xlink:href="extension__base_8hpp.html" target="_top" xlink:title="The new implementation of the extension system.">
<polygon fill="none" stroke="red" points="1041.94,-168.5 1041.94,-187.5 1155.94,-187.5 1155.94,-168.5 1041.94,-168.5"/>
<text text-anchor="middle" x="1098.94" y="-175.5" font-family="Helvetica,sans-Serif" font-size="10.00">extension_base.hpp</text>
</a>
</g>
</g>
<!-- Node28&#45;&gt;Node31 -->
<g id="edge39" class="edge">
<title>Node28&#45;&gt;Node31</title>
<path fill="none" stroke="midnightblue" d="M1067.33,-335.19C1105.59,-327.52 1150.29,-315.55 1161.94,-300 1170.78,-288.21 1171.89,-252.87 1155.94,-224 1146.92,-207.67 1129.28,-195.18 1116,-187.55"/>
<polygon fill="midnightblue" stroke="midnightblue" points="1066.4,-331.8 1057.25,-337.14 1067.74,-338.67 1066.4,-331.8"/>
</g>
<!-- Node54 -->
<g id="node33" class="node">
<title>Node54</title>
<g id="a_node33"><a xlink:href="console__pages_8hpp.html" target="_top" xlink:title=" ">
<polygon fill="none" stroke="red" points="1285.94,-280.5 1285.94,-299.5 1395.94,-299.5 1395.94,-280.5 1285.94,-280.5"/>
<text text-anchor="middle" x="1340.94" y="-287.5" font-family="Helvetica,sans-Serif" font-size="10.00">console_pages.hpp</text>
</a>
</g>
</g>
<!-- Node28&#45;&gt;Node54 -->
<g id="edge41" class="edge">
<title>Node28&#45;&gt;Node54</title>
<path fill="none" stroke="midnightblue" d="M1067.22,-335.39C1130,-325.21 1228.17,-309.29 1288.3,-299.54"/>
<polygon fill="midnightblue" stroke="midnightblue" points="1066.39,-331.98 1057.08,-337.03 1067.51,-338.89 1066.39,-331.98"/>
</g>
<!-- Node58 -->
<g id="node34" class="node">
<title>Node58</title>
<g id="a_node34"><a xlink:href="data__formatting_8hpp.html" target="_top" xlink:title="This file contains the DataFormatter class, which is used to format data for the data and log files.">
<polygon fill="none" stroke="black" points="453.94,-280.5 453.94,-299.5 569.94,-299.5 569.94,-280.5 453.94,-280.5"/>
<text text-anchor="middle" x="511.94" y="-287.5" font-family="Helvetica,sans-Serif" font-size="10.00">data_formatting.hpp</text>
</a>
</g>
</g>
<!-- Node28&#45;&gt;Node58 -->
<g id="edge43" class="edge">
<title>Node28&#45;&gt;Node58</title>
<path fill="none" stroke="midnightblue" d="M948.48,-336C806.08,-318 651.86,-303.42 570.01,-296.07"/>
<polygon fill="midnightblue" stroke="midnightblue" points="948.35,-339.52 958.71,-337.31 949.23,-332.57 948.35,-339.52"/>
</g>
<!-- Node60 -->
<g id="node36" class="node">
<title>Node60</title>
<g id="a_node36"><a xlink:href="data__log_8hpp.html" target="_top" xlink:title="The data log is responsible for writing data to files and managing the file system.">
<polygon fill="none" stroke="red" points="709.94,-224.5 709.94,-243.5 789.94,-243.5 789.94,-224.5 709.94,-224.5"/>
<text text-anchor="middle" x="749.94" y="-231.5" font-family="Helvetica,sans-Serif" font-size="10.00">data_log.hpp</text>
</a>
</g>
</g>
<!-- Node28&#45;&gt;Node60 -->
<g id="edge47" class="edge">
<title>Node28&#45;&gt;Node60</title>
<path fill="none" stroke="midnightblue" d="M985.36,-331.16C961.68,-317.04 923.11,-295.11 887.94,-280 852.4,-264.73 809.87,-251.59 781.5,-243.52"/>
<polygon fill="midnightblue" stroke="midnightblue" points="983.58,-334.17 993.95,-336.33 987.19,-328.18 983.58,-334.17"/>
</g>
<!-- Node62 -->
<g id="node37" class="node">
<title>Node62</title>
<g id="a_node37"><a xlink:href="file__system__manager_8hpp.html" target="_top" xlink:title=" ">
<polygon fill="none" stroke="black" points="874.94,-224.5 874.94,-243.5 1016.94,-243.5 1016.94,-224.5 874.94,-224.5"/>
<text text-anchor="middle" x="945.94" y="-231.5" font-family="Helvetica,sans-Serif" font-size="10.00">file_system_manager.hpp</text>
</a>
</g>
</g>
<!-- Node28&#45;&gt;Node62 -->
<g id="edge48" class="edge">
<title>Node28&#45;&gt;Node62</title>
<path fill="none" stroke="midnightblue" d="M989.53,-329.54C980.99,-321.51 971.33,-311.06 964.94,-300 954.24,-281.47 949.15,-256.43 947.11,-243.51"/>
<polygon fill="midnightblue" stroke="midnightblue" points="987.46,-332.38 997.24,-336.45 992.13,-327.17 987.46,-332.38"/>
</g>
<!-- Node63 -->
<g id="node38" class="node">
<title>Node63</title>
<g id="a_node38"><a xlink:href="influxdb_8hpp.html" target="_top" xlink:title=" ">
<polygon fill="none" stroke="black" points="614.44,-224.5 614.44,-243.5 691.44,-243.5 691.44,-224.5 614.44,-224.5"/>
<text text-anchor="middle" x="652.94" y="-231.5" font-family="Helvetica,sans-Serif" font-size="10.00">influxdb.hpp</text>
</a>
</g>
</g>
<!-- Node28&#45;&gt;Node63 -->
<g id="edge50" class="edge">
<title>Node28&#45;&gt;Node63</title>
<path fill="none" stroke="midnightblue" d="M948.45,-336.21C868.14,-328.76 697.41,-346.52 654.94,-300 640.94,-284.66 646.03,-257.79 650,-243.89"/>
<polygon fill="midnightblue" stroke="midnightblue" points="948.37,-339.73 958.7,-337.38 949.16,-332.77 948.37,-339.73"/>
</g>
<!-- Node65 -->
<g id="node40" class="node">
<title>Node65</title>
<g id="a_node40"><a xlink:href="request__handler_8hpp.html" target="_top" xlink:title="The request handler class header.">
<polygon fill="none" stroke="black" points="1241.94,-224.5 1241.94,-243.5 1357.94,-243.5 1357.94,-224.5 1241.94,-224.5"/>
<text text-anchor="middle" x="1299.94" y="-231.5" font-family="Helvetica,sans-Serif" font-size="10.00">request_handler.hpp</text>
</a>
</g>
</g>
<!-- Node28&#45;&gt;Node65 -->
<g id="edge54" class="edge">
<title>Node28&#45;&gt;Node65</title>
<path fill="none" stroke="midnightblue" d="M1067.51,-342.46C1114.99,-338.31 1181.9,-327.57 1233.94,-300 1260.38,-286 1283.24,-258.03 1293.77,-243.78"/>
<polygon fill="midnightblue" stroke="midnightblue" points="1067.07,-338.99 1057.39,-343.27 1067.63,-345.96 1067.07,-338.99"/>
</g>
<!-- Node67 -->
<g id="node42" class="node">
<title>Node67</title>
<g id="a_node42"><a xlink:href="logger_8hpp.html" target="_top" xlink:title="A simple logger class so difference classes have access to the same logger.">
<polygon fill="none" stroke="black" points="973.94,-280.5 973.94,-299.5 1041.94,-299.5 1041.94,-280.5 973.94,-280.5"/>
<text text-anchor="middle" x="1007.94" y="-287.5" font-family="Helvetica,sans-Serif" font-size="10.00">logger.hpp</text>
</a>
</g>
</g>
<!-- Node28&#45;&gt;Node67 -->
<g id="edge57" class="edge">
<title>Node28&#45;&gt;Node67</title>
<path fill="none" stroke="midnightblue" d="M1007.94,-325.8C1007.94,-316.91 1007.94,-306.78 1007.94,-299.75"/>
<polygon fill="midnightblue" stroke="midnightblue" points="1004.44,-326.08 1007.94,-336.08 1011.44,-326.08 1004.44,-326.08"/>
</g>
<!-- Node68 -->
<g id="node43" class="node">
<title>Node68</title>
<g id="a_node43"><a xlink:href="to__json_8cpp.html" target="_top" xlink:title=" ">
<polygon fill="none" stroke="black" points="663.94,-280.5 663.94,-299.5 735.94,-299.5 735.94,-280.5 663.94,-280.5"/>
<text text-anchor="middle" x="699.94" y="-287.5" font-family="Helvetica,sans-Serif" font-size="10.00">to_json.cpp</text>
</a>
</g>
</g>
<!-- Node28&#45;&gt;Node68 -->
<g id="edge60" class="edge">
<title>Node28&#45;&gt;Node68</title>
<path fill="none" stroke="midnightblue" d="M948.95,-335.39C895.59,-326.58 814.9,-312.98 744.94,-300 742.12,-299.48 739.21,-298.92 736.27,-298.36"/>
<polygon fill="midnightblue" stroke="midnightblue" points="948.48,-338.86 958.91,-337.03 949.61,-331.95 948.48,-338.86"/>
</g>
<!-- Node69 -->
<g id="node44" class="node">
<title>Node69</title>
<g id="a_node44"><a xlink:href="test__configuration_8cpp.html" target="_top" xlink:title=" ">
<polygon fill="none" stroke="black" points="754.44,-280.5 754.44,-299.5 879.44,-299.5 879.44,-280.5 754.44,-280.5"/>
<text text-anchor="middle" x="816.94" y="-287.5" font-family="Helvetica,sans-Serif" font-size="10.00">test_configuration.cpp</text>
</a>
</g>
</g>
<!-- Node28&#45;&gt;Node69 -->
<g id="edge61" class="edge">
<title>Node28&#45;&gt;Node69</title>
<path fill="none" stroke="midnightblue" d="M967.97,-333.7C931.92,-323.51 879.7,-308.74 847.07,-299.52"/>
<polygon fill="midnightblue" stroke="midnightblue" points="967.1,-337.09 977.68,-336.44 969.01,-330.35 967.1,-337.09"/>
</g>
<!-- Node30 -->
<g id="node30" class="node">
<title>Node30</title>
<g id="a_node30"><a xlink:href="cfg__extensions_8hpp.html" target="_top" xlink:title="The header file for the extensions section of the configuration.">
<polygon fill="none" stroke="red" points="1036.44,-224.5 1036.44,-243.5 1147.44,-243.5 1147.44,-224.5 1036.44,-224.5"/>
<text text-anchor="middle" x="1091.94" y="-231.5" font-family="Helvetica,sans-Serif" font-size="10.00">cfg_extensions.hpp</text>
</a>
</g>
</g>
<!-- Node29&#45;&gt;Node30 -->
<g id="edge34" class="edge">
<title>Node29&#45;&gt;Node30</title>
<path fill="none" stroke="midnightblue" d="M1101.77,-270.4C1099.27,-261.36 1096.37,-250.94 1094.37,-243.75"/>
<polygon fill="midnightblue" stroke="midnightblue" points="1098.42,-271.38 1104.47,-280.08 1105.16,-269.51 1098.42,-271.38"/>
</g>
<!-- Node30&#45;&gt;Node25 -->
<g id="edge35" class="edge">
<title>Node30&#45;&gt;Node25</title>
<path fill="none" stroke="midnightblue" d="M1057.33,-221.17C1027.58,-211 985.4,-196.59 958.86,-187.52"/>
<polygon fill="midnightblue" stroke="midnightblue" points="1056.31,-224.52 1066.91,-224.44 1058.58,-217.9 1056.31,-224.52"/>
</g>
<!-- Node30&#45;&gt;Node31 -->
<g id="edge36" class="edge">
<title>Node30&#45;&gt;Node31</title>
<path fill="none" stroke="midnightblue" d="M1094.39,-214.1C1095.55,-205.14 1096.89,-194.86 1097.81,-187.75"/>
<polygon fill="midnightblue" stroke="midnightblue" points="1090.91,-213.72 1093.1,-224.08 1097.85,-214.62 1090.91,-213.72"/>
</g>
<!-- Node31&#45;&gt;Node14 -->
<g id="edge38" class="edge">
<title>Node31&#45;&gt;Node14</title>
<path fill="none" stroke="midnightblue" d="M1104.11,-158.4C1106.62,-149.36 1109.52,-138.94 1111.51,-131.75"/>
<polygon fill="midnightblue" stroke="midnightblue" points="1100.72,-157.51 1101.42,-168.08 1107.47,-159.38 1100.72,-157.51"/>
</g>
<!-- Node32 -->
<g id="node32" class="node">
<title>Node32</title>
<g id="a_node32"><a xlink:href="adc__extension__base_8hpp.html" target="_top" xlink:title="Generic ADC Extension Wrapper.">
<polygon fill="none" stroke="red" points="894.44,-112.5 894.44,-131.5 1031.44,-131.5 1031.44,-112.5 894.44,-112.5"/>
<text text-anchor="middle" x="962.94" y="-119.5" font-family="Helvetica,sans-Serif" font-size="10.00">adc_extension_base.hpp</text>
</a>
</g>
</g>
<!-- Node31&#45;&gt;Node32 -->
<g id="edge37" class="edge">
<title>Node31&#45;&gt;Node32</title>
<path fill="none" stroke="midnightblue" d="M1067.81,-164.64C1042.29,-154.5 1006.83,-140.43 984.39,-131.52"/>
<polygon fill="midnightblue" stroke="midnightblue" points="1066.81,-168.01 1077.39,-168.44 1069.39,-161.5 1066.81,-168.01"/>
</g>
<!-- Node54&#45;&gt;Node5 -->
<g id="edge42" class="edge">
<title>Node54&#45;&gt;Node5</title>
<path fill="none" stroke="midnightblue" d="M1362.32,-274.89C1384.53,-260.68 1420.64,-238.78 1453.94,-224 1489.18,-208.37 1531.58,-195.43 1560.21,-187.51"/>
<polygon fill="midnightblue" stroke="midnightblue" points="1360.19,-272.1 1353.7,-280.47 1363.99,-277.98 1360.19,-272.1"/>
</g>
<!-- Node59 -->
<g id="node35" class="node">
<title>Node59</title>
<g id="a_node35"><a xlink:href="data__formatting_8cpp.html" target="_top" xlink:title="Implementation of the DataFormatter class.">
<polygon fill="none" stroke="black" points="479.94,-224.5 479.94,-243.5 595.94,-243.5 595.94,-224.5 479.94,-224.5"/>
<text text-anchor="middle" x="537.94" y="-231.5" font-family="Helvetica,sans-Serif" font-size="10.00">data_formatting.cpp</text>
</a>
</g>
</g>
<!-- Node58&#45;&gt;Node59 -->
<g id="edge44" class="edge">
<title>Node58&#45;&gt;Node59</title>
<path fill="none" stroke="midnightblue" d="M520.62,-270.98C525.03,-261.82 530.19,-251.09 533.73,-243.75"/>
<polygon fill="midnightblue" stroke="midnightblue" points="517.42,-269.55 516.24,-280.08 523.73,-272.59 517.42,-269.55"/>
</g>
<!-- Node58&#45;&gt;Node60 -->
<g id="edge45" class="edge">
<title>Node58&#45;&gt;Node60</title>
<path fill="none" stroke="midnightblue" d="M559.47,-278.22C604.44,-268.01 671.05,-252.9 712.41,-243.52"/>
<polygon fill="midnightblue" stroke="midnightblue" points="558.63,-274.82 549.65,-280.44 560.18,-281.64 558.63,-274.82"/>
</g>
<!-- Node60&#45;&gt;Node11 -->
<g id="edge46" class="edge">
<title>Node60&#45;&gt;Node11</title>
<path fill="none" stroke="midnightblue" d="M753.44,-214.1C755.1,-205.14 757.01,-194.86 758.32,-187.75"/>
<polygon fill="midnightblue" stroke="midnightblue" points="749.97,-213.61 751.59,-224.08 756.86,-214.89 749.97,-213.61"/>
</g>
<!-- Node62&#45;&gt;Node11 -->
<g id="edge49" class="edge">
<title>Node62&#45;&gt;Node11</title>
<path fill="none" stroke="midnightblue" d="M906.56,-221.57C871.48,-211.38 820.92,-196.7 789.28,-187.52"/>
<polygon fill="midnightblue" stroke="midnightblue" points="905.89,-225.02 916.47,-224.44 907.84,-218.29 905.89,-225.02"/>
</g>
<!-- Node63&#45;&gt;Node11 -->
<g id="edge51" class="edge">
<title>Node63&#45;&gt;Node11</title>
<path fill="none" stroke="midnightblue" d="M679.24,-219.73C699.06,-209.73 725.65,-196.31 742.79,-187.65"/>
<polygon fill="midnightblue" stroke="midnightblue" points="677.48,-216.69 670.13,-224.32 680.64,-222.94 677.48,-216.69"/>
</g>
<!-- Node64 -->
<g id="node39" class="node">
<title>Node64</title>
<g id="a_node39"><a xlink:href="influxdb_8cpp.html" target="_top" xlink:title=" ">
<polygon fill="none" stroke="black" points="386.94,-168.5 386.94,-187.5 462.94,-187.5 462.94,-168.5 386.94,-168.5"/>
<text text-anchor="middle" x="424.94" y="-175.5" font-family="Helvetica,sans-Serif" font-size="10.00">influxdb.cpp</text>
</a>
</g>
</g>
<!-- Node63&#45;&gt;Node64 -->
<g id="edge52" class="edge">
<title>Node63&#45;&gt;Node64</title>
<path fill="none" stroke="midnightblue" d="M606.87,-222.09C563.8,-211.89 500.36,-196.86 460.9,-187.52"/>
<polygon fill="midnightblue" stroke="midnightblue" points="606.28,-225.54 616.81,-224.44 607.89,-218.73 606.28,-225.54"/>
</g>
<!-- Node65&#45;&gt;Node17 -->
<g id="edge56" class="edge">
<title>Node65&#45;&gt;Node17</title>
<path fill="none" stroke="midnightblue" d="M1335.21,-221.17C1365.52,-211 1408.51,-196.59 1435.55,-187.52"/>
<polygon fill="midnightblue" stroke="midnightblue" points="1333.82,-217.95 1325.45,-224.44 1336.05,-224.58 1333.82,-217.95"/>
</g>
<!-- Node65&#45;&gt;Node66 -->
<g id="edge55" class="edge">
<title>Node65&#45;&gt;Node66</title>
<path fill="none" stroke="midnightblue" d="M1297.14,-214.1C1295.81,-205.14 1294.29,-194.86 1293.24,-187.75"/>
<polygon fill="midnightblue" stroke="midnightblue" points="1293.69,-214.7 1298.62,-224.08 1300.62,-213.68 1293.69,-214.7"/>
</g>
<!-- Node67&#45;&gt;Node62 -->
<g id="edge58" class="edge">
<title>Node67&#45;&gt;Node62</title>
<path fill="none" stroke="midnightblue" d="M990.19,-273.54C979.13,-263.91 965.31,-251.87 956.08,-243.83"/>
<polygon fill="midnightblue" stroke="midnightblue" points="988.14,-276.4 997.98,-280.32 992.74,-271.12 988.14,-276.4"/>
</g>
<!-- Node67&#45;&gt;Node65 -->
<g id="edge59" class="edge">
<title>Node67&#45;&gt;Node65</title>
<path fill="none" stroke="midnightblue" d="M1052.22,-279.79C1126.75,-265.34 1202.11,-251.96 1250.26,-243.56"/>
<polygon fill="midnightblue" stroke="midnightblue" points="1051.34,-276.4 1042.19,-281.74 1052.68,-283.27 1051.34,-276.4"/>
</g>
<!-- Node71&#45;&gt;Node7 -->
<g id="edge65" class="edge">
<title>Node71&#45;&gt;Node7</title>
<path fill="none" stroke="midnightblue" d="M290.51,-288.41C210.5,-286.44 59.46,-278.16 19.94,-244 -2.83,-224.32 0.94,-209.1 0.94,-179 0.94,-179 0.94,-179 0.94,-121 0.94,-57.31 477.14,-22.9 627.81,-13.61"/>
<polygon fill="midnightblue" stroke="midnightblue" points="290.77,-291.92 300.84,-288.64 290.92,-284.92 290.77,-291.92"/>
</g>
<!-- Node71&#45;&gt;Node12 -->
<g id="edge67" class="edge">
<title>Node71&#45;&gt;Node12</title>
<path fill="none" stroke="midnightblue" d="M341.92,-270.15C344.23,-244.13 351.97,-197.15 377.94,-168 394.56,-149.35 420.31,-138.1 441.9,-131.51"/>
<polygon fill="midnightblue" stroke="midnightblue" points="338.42,-269.97 341.21,-280.19 345.41,-270.46 338.42,-269.97"/>
</g>
<!-- Node71&#45;&gt;Node59 -->
<g id="edge66" class="edge">
<title>Node71&#45;&gt;Node59</title>
<path fill="none" stroke="midnightblue" d="M382.17,-277.7C419.35,-267.51 473.21,-252.74 506.87,-243.52"/>
<polygon fill="midnightblue" stroke="midnightblue" points="380.88,-274.42 372.16,-280.44 382.73,-281.18 380.88,-274.42"/>
</g>
<!-- Node71&#45;&gt;Node64 -->
<g id="edge68" class="edge">
<title>Node71&#45;&gt;Node64</title>
<path fill="none" stroke="midnightblue" d="M349.83,-270.92C356.87,-257.4 367.41,-238.78 378.94,-224 389.8,-210.08 404.78,-196.2 414.65,-187.62"/>
<polygon fill="midnightblue" stroke="midnightblue" points="346.57,-269.62 345.17,-280.12 352.81,-272.78 346.57,-269.62"/>
</g>
<!-- Node72 -->
<g id="node47" class="node">
<title>Node72</title>
<g id="a_node47"><a xlink:href="to__json_8hpp.html" target="_top" xlink:title="Utility functions for converting data to JSON.">
<polygon fill="none" stroke="black" points="388.44,-224.5 388.44,-243.5 461.44,-243.5 461.44,-224.5 388.44,-224.5"/>
<text text-anchor="middle" x="424.94" y="-231.5" font-family="Helvetica,sans-Serif" font-size="10.00">to_json.hpp</text>
</a>
</g>
</g>
<!-- Node71&#45;&gt;Node72 -->
<g id="edge69" class="edge">
<title>Node71&#45;&gt;Node72</title>
<path fill="none" stroke="midnightblue" d="M362.87,-274.9C378.28,-265 398.39,-252.07 411.48,-243.65"/>
<polygon fill="midnightblue" stroke="midnightblue" points="360.96,-271.97 354.44,-280.32 364.74,-277.86 360.96,-271.97"/>
</g>
<!-- Node73 -->
<g id="node48" class="node">
<title>Node73</title>
<g id="a_node48"><a xlink:href="to__string_8cpp.html" target="_top" xlink:title="Generic to_string functions for a variety of types.">
<polygon fill="none" stroke="black" points="28.94,-224.5 28.94,-243.5 108.94,-243.5 108.94,-224.5 28.94,-224.5"/>
<text text-anchor="middle" x="68.94" y="-231.5" font-family="Helvetica,sans-Serif" font-size="10.00">to_string.cpp</text>
</a>
</g>
</g>
<!-- Node71&#45;&gt;Node73 -->
<g id="edge71" class="edge">
<title>Node71&#45;&gt;Node73</title>
<path fill="none" stroke="midnightblue" d="M290.75,-279.03C238.45,-268.65 157.53,-252.59 109.24,-243"/>
<polygon fill="midnightblue" stroke="midnightblue" points="290.32,-282.52 300.81,-281.03 291.68,-275.65 290.32,-282.52"/>
</g>
<!-- Node51 -->
<g id="node49" class="node">
<title>Node51</title>
<g id="a_node49"><a xlink:href="extension__test__framework_8cpp.html" target="_top" xlink:title="Test framework for testing extensions on the host.">
<polygon fill="none" stroke="black" points="127.44,-224.5 127.44,-243.5 294.44,-243.5 294.44,-224.5 127.44,-224.5"/>
<text text-anchor="middle" x="210.94" y="-231.5" font-family="Helvetica,sans-Serif" font-size="10.00">extension_test_framework.cpp</text>
</a>
</g>
</g>
<!-- Node71&#45;&gt;Node51 -->
<g id="edge72" class="edge">
<title>Node71&#45;&gt;Node51</title>
<path fill="none" stroke="midnightblue" d="M310.86,-276.5C286.49,-266.38 252.8,-252.39 231.44,-243.52"/>
<polygon fill="midnightblue" stroke="midnightblue" points="309.77,-279.84 320.34,-280.44 312.45,-273.38 309.77,-279.84"/>
</g>
<!-- Node72&#45;&gt;Node64 -->
<g id="edge70" class="edge">
<title>Node72&#45;&gt;Node64</title>
<path fill="none" stroke="midnightblue" d="M424.94,-213.8C424.94,-204.91 424.94,-194.78 424.94,-187.75"/>
<polygon fill="midnightblue" stroke="midnightblue" points="421.44,-214.08 424.94,-224.08 428.44,-214.08 421.44,-214.08"/>
</g>
</g>
</svg>
