<?xml version="1.0" encoding="UTF-8" standalone="no"?>
<!DOCTYPE svg PUBLIC "-//W3C//DTD SVG 1.1//EN"
 "http://www.w3.org/Graphics/SVG/1.1/DTD/svg11.dtd">
<!-- Generated by graphviz version 2.43.0 (0)
 -->
<!-- Title: command_ids.hpp Pages: 1 -->
<svg width="803pt" height="308pt"
 viewBox="0.00 0.00 802.50 308.00" xmlns="http://www.w3.org/2000/svg" xmlns:xlink="http://www.w3.org/1999/xlink">
<g id="graph0" class="graph" transform="scale(1 1) rotate(0) translate(4 304)">
<title>command_ids.hpp</title>
<!-- Node1 -->
<g id="node1" class="node">
<title>Node1</title>
<g id="a_node1"><a xlink:title=" ">
<polygon fill="#bfbfbf" stroke="black" points="389.5,-280.5 389.5,-299.5 495.5,-299.5 495.5,-280.5 389.5,-280.5"/>
<text text-anchor="middle" x="442.5" y="-287.5" font-family="Helvetica,sans-Serif" font-size="10.00">command_ids.hpp</text>
</a>
</g>
</g>
<!-- Node2 -->
<g id="node2" class="node">
<title>Node2</title>
<g id="a_node2"><a xlink:href="command_8hpp.html" target="_top" xlink:title="The command/queue system for the flight system.">
<polygon fill="none" stroke="black" points="399.5,-224.5 399.5,-243.5 485.5,-243.5 485.5,-224.5 399.5,-224.5"/>
<text text-anchor="middle" x="442.5" y="-231.5" font-family="Helvetica,sans-Serif" font-size="10.00">command.hpp</text>
</a>
</g>
</g>
<!-- Node1&#45;&gt;Node2 -->
<g id="edge1" class="edge">
<title>Node1&#45;&gt;Node2</title>
<path fill="none" stroke="midnightblue" d="M442.5,-269.8C442.5,-260.91 442.5,-250.78 442.5,-243.75"/>
<polygon fill="midnightblue" stroke="midnightblue" points="439,-270.08 442.5,-280.08 446,-270.08 439,-270.08"/>
</g>
<!-- Node3 -->
<g id="node3" class="node">
<title>Node3</title>
<g id="a_node3"><a xlink:href="module_8hpp.html" target="_top" xlink:title="The header file for the base module class.">
<polygon fill="none" stroke="black" points="405.5,-168.5 405.5,-187.5 479.5,-187.5 479.5,-168.5 405.5,-168.5"/>
<text text-anchor="middle" x="442.5" y="-175.5" font-family="Helvetica,sans-Serif" font-size="10.00">module.hpp</text>
</a>
</g>
</g>
<!-- Node2&#45;&gt;Node3 -->
<g id="edge2" class="edge">
<title>Node2&#45;&gt;Node3</title>
<path fill="none" stroke="midnightblue" d="M442.5,-213.8C442.5,-204.91 442.5,-194.78 442.5,-187.75"/>
<polygon fill="midnightblue" stroke="midnightblue" points="439,-214.08 442.5,-224.08 446,-214.08 439,-214.08"/>
</g>
<!-- Node4 -->
<g id="node4" class="node">
<title>Node4</title>
<g id="a_node4"><a xlink:href="console__module_8hpp.html" target="_top" xlink:title=" ">
<polygon fill="none" stroke="black" points="585,-112.5 585,-131.5 702,-131.5 702,-112.5 585,-112.5"/>
<text text-anchor="middle" x="643.5" y="-119.5" font-family="Helvetica,sans-Serif" font-size="10.00">console_module.hpp</text>
</a>
</g>
</g>
<!-- Node3&#45;&gt;Node4 -->
<g id="edge3" class="edge">
<title>Node3&#45;&gt;Node4</title>
<path fill="none" stroke="midnightblue" d="M484.08,-165.83C522.03,-155.63 577.31,-140.78 611.8,-131.52"/>
<polygon fill="midnightblue" stroke="midnightblue" points="483.1,-162.47 474.35,-168.44 484.91,-169.23 483.1,-162.47"/>
</g>
<!-- Node9 -->
<g id="node9" class="node">
<title>Node9</title>
<g id="a_node9"><a xlink:href="data__module_8hpp.html" target="_top" xlink:title="The data module header file.">
<polygon fill="none" stroke="black" points="57,-112.5 57,-131.5 158,-131.5 158,-112.5 57,-112.5"/>
<text text-anchor="middle" x="107.5" y="-119.5" font-family="Helvetica,sans-Serif" font-size="10.00">data_module.hpp</text>
</a>
</g>
</g>
<!-- Node3&#45;&gt;Node9 -->
<g id="edge8" class="edge">
<title>Node3&#45;&gt;Node9</title>
<path fill="none" stroke="midnightblue" d="M395.37,-169.4C332.73,-159.31 222.51,-141.54 158.15,-131.16"/>
<polygon fill="midnightblue" stroke="midnightblue" points="394.94,-172.88 405.37,-171.01 396.05,-165.97 394.94,-172.88"/>
</g>
<!-- Node11 -->
<g id="node11" class="node">
<title>Node11</title>
<g id="a_node11"><a xlink:href="extension__module_8hpp.html" target="_top" xlink:title="This is the header file for the new extension module.">
<polygon fill="none" stroke="black" points="176.5,-112.5 176.5,-131.5 304.5,-131.5 304.5,-112.5 176.5,-112.5"/>
<text text-anchor="middle" x="240.5" y="-119.5" font-family="Helvetica,sans-Serif" font-size="10.00">extension_module.hpp</text>
</a>
</g>
</g>
<!-- Node3&#45;&gt;Node11 -->
<g id="edge11" class="edge">
<title>Node3&#45;&gt;Node11</title>
<path fill="none" stroke="midnightblue" d="M400.71,-165.83C362.57,-155.63 307.02,-140.78 272.36,-131.52"/>
<polygon fill="midnightblue" stroke="midnightblue" points="399.93,-169.24 410.49,-168.44 401.74,-162.48 399.93,-169.24"/>
</g>
<!-- Node13 -->
<g id="node13" class="node">
<title>Node13</title>
<g id="a_node13"><a xlink:href="module_8cpp.html" target="_top" xlink:title="Implementation of the module base class.">
<polygon fill="none" stroke="black" points="720.5,-112.5 720.5,-131.5 794.5,-131.5 794.5,-112.5 720.5,-112.5"/>
<text text-anchor="middle" x="757.5" y="-119.5" font-family="Helvetica,sans-Serif" font-size="10.00">module.cpp</text>
</a>
</g>
</g>
<!-- Node3&#45;&gt;Node13 -->
<g id="edge14" class="edge">
<title>Node3&#45;&gt;Node13</title>
<path fill="none" stroke="midnightblue" d="M489.46,-169.55C543.2,-160.92 633.81,-146.1 711.5,-132 714.38,-131.48 717.36,-130.92 720.36,-130.36"/>
<polygon fill="midnightblue" stroke="midnightblue" points="488.86,-166.1 479.54,-171.13 489.97,-173.01 488.86,-166.1"/>
</g>
<!-- Node14 -->
<g id="node14" class="node">
<title>Node14</title>
<g id="a_node14"><a xlink:href="server__module_8hpp.html" target="_top" xlink:title="Header file for the server module.">
<polygon fill="none" stroke="black" points="322.5,-112.5 322.5,-131.5 432.5,-131.5 432.5,-112.5 322.5,-112.5"/>
<text text-anchor="middle" x="377.5" y="-119.5" font-family="Helvetica,sans-Serif" font-size="10.00">server_module.hpp</text>
</a>
</g>
</g>
<!-- Node3&#45;&gt;Node14 -->
<g id="edge15" class="edge">
<title>Node3&#45;&gt;Node14</title>
<path fill="none" stroke="midnightblue" d="M424.23,-161.82C412.58,-152.15 397.9,-139.95 388.13,-131.83"/>
<polygon fill="midnightblue" stroke="midnightblue" points="422.13,-164.63 432.06,-168.32 426.6,-159.24 422.13,-164.63"/>
</g>
<!-- Node16 -->
<g id="node16" class="node">
<title>Node16</title>
<g id="a_node16"><a xlink:href="system__module_8hpp.html" target="_top" xlink:title=" ">
<polygon fill="none" stroke="black" points="450.5,-112.5 450.5,-131.5 566.5,-131.5 566.5,-112.5 450.5,-112.5"/>
<text text-anchor="middle" x="508.5" y="-119.5" font-family="Helvetica,sans-Serif" font-size="10.00">system_module.hpp</text>
</a>
</g>
</g>
<!-- Node3&#45;&gt;Node16 -->
<g id="edge18" class="edge">
<title>Node3&#45;&gt;Node16</title>
<path fill="none" stroke="midnightblue" d="M461.05,-161.82C472.88,-152.15 487.79,-139.95 497.7,-131.83"/>
<polygon fill="midnightblue" stroke="midnightblue" points="458.63,-159.28 453.1,-168.32 463.06,-164.7 458.63,-159.28"/>
</g>
<!-- Node5 -->
<g id="node5" class="node">
<title>Node5</title>
<g id="a_node5"><a xlink:href="flight__runner_8hpp.html" target="_top" xlink:title=" ">
<polygon fill="none" stroke="black" points="264.5,-56.5 264.5,-75.5 362.5,-75.5 362.5,-56.5 264.5,-56.5"/>
<text text-anchor="middle" x="313.5" y="-63.5" font-family="Helvetica,sans-Serif" font-size="10.00">flight_runner.hpp</text>
</a>
</g>
</g>
<!-- Node4&#45;&gt;Node5 -->
<g id="edge4" class="edge">
<title>Node4&#45;&gt;Node5</title>
<path fill="none" stroke="midnightblue" d="M581.33,-110.83C517.92,-100.45 420.8,-84.56 362.58,-75.03"/>
<polygon fill="midnightblue" stroke="midnightblue" points="580.78,-114.28 591.21,-112.44 581.91,-107.37 580.78,-114.28"/>
</g>
<!-- Node8 -->
<g id="node8" class="node">
<title>Node8</title>
<g id="a_node8"><a xlink:href="console__module_8cpp.html" target="_top" xlink:title=" ">
<polygon fill="none" stroke="black" points="642.5,-56.5 642.5,-75.5 758.5,-75.5 758.5,-56.5 642.5,-56.5"/>
<text text-anchor="middle" x="700.5" y="-63.5" font-family="Helvetica,sans-Serif" font-size="10.00">console_module.cpp</text>
</a>
</g>
</g>
<!-- Node4&#45;&gt;Node8 -->
<g id="edge7" class="edge">
<title>Node4&#45;&gt;Node8</title>
<path fill="none" stroke="midnightblue" d="M660.12,-105.25C670.23,-95.67 682.78,-83.79 691.18,-75.83"/>
<polygon fill="midnightblue" stroke="midnightblue" points="657.51,-102.91 652.66,-112.32 662.32,-107.99 657.51,-102.91"/>
</g>
<!-- Node6 -->
<g id="node6" class="node">
<title>Node6</title>
<g id="a_node6"><a xlink:href="flight__runner_8cpp.html" target="_top" xlink:title=" ">
<polygon fill="none" stroke="black" points="215.5,-0.5 215.5,-19.5 313.5,-19.5 313.5,-0.5 215.5,-0.5"/>
<text text-anchor="middle" x="264.5" y="-7.5" font-family="Helvetica,sans-Serif" font-size="10.00">flight_runner.cpp</text>
</a>
</g>
</g>
<!-- Node5&#45;&gt;Node6 -->
<g id="edge5" class="edge">
<title>Node5&#45;&gt;Node6</title>
<path fill="none" stroke="midnightblue" d="M298.47,-48.43C289.88,-38.97 279.46,-27.48 272.44,-19.75"/>
<polygon fill="midnightblue" stroke="midnightblue" points="296.1,-51.03 305.41,-56.08 301.28,-46.33 296.1,-51.03"/>
</g>
<!-- Node7 -->
<g id="node7" class="node">
<title>Node7</title>
<g id="a_node7"><a xlink:href="main_8cpp.html" target="_top" xlink:title="Defines the entry point/main function of the Flight Computer software.">
<polygon fill="none" stroke="black" points="331.5,-0.5 331.5,-19.5 393.5,-19.5 393.5,-0.5 331.5,-0.5"/>
<text text-anchor="middle" x="362.5" y="-7.5" font-family="Helvetica,sans-Serif" font-size="10.00">main.cpp</text>
</a>
</g>
</g>
<!-- Node5&#45;&gt;Node7 -->
<g id="edge6" class="edge">
<title>Node5&#45;&gt;Node7</title>
<path fill="none" stroke="midnightblue" d="M328.53,-48.43C337.12,-38.97 347.54,-27.48 354.56,-19.75"/>
<polygon fill="midnightblue" stroke="midnightblue" points="325.72,-46.33 321.59,-56.08 330.9,-51.03 325.72,-46.33"/>
</g>
<!-- Node9&#45;&gt;Node5 -->
<g id="edge9" class="edge">
<title>Node9&#45;&gt;Node5</title>
<path fill="none" stroke="midnightblue" d="M150.12,-109.83C189.01,-99.63 245.66,-84.78 281.01,-75.52"/>
<polygon fill="midnightblue" stroke="midnightblue" points="148.93,-106.52 140.14,-112.44 150.7,-113.29 148.93,-106.52"/>
</g>
<!-- Node10 -->
<g id="node10" class="node">
<title>Node10</title>
<g id="a_node10"><a xlink:href="data__module_8cpp.html" target="_top" xlink:title=" ">
<polygon fill="none" stroke="black" points="0,-56.5 0,-75.5 101,-75.5 101,-56.5 0,-56.5"/>
<text text-anchor="middle" x="50.5" y="-63.5" font-family="Helvetica,sans-Serif" font-size="10.00">data_module.cpp</text>
</a>
</g>
</g>
<!-- Node9&#45;&gt;Node10 -->
<g id="edge10" class="edge">
<title>Node9&#45;&gt;Node10</title>
<path fill="none" stroke="midnightblue" d="M90.88,-105.25C80.77,-95.67 68.22,-83.79 59.82,-75.83"/>
<polygon fill="midnightblue" stroke="midnightblue" points="88.68,-107.99 98.34,-112.32 93.49,-102.91 88.68,-107.99"/>
</g>
<!-- Node11&#45;&gt;Node5 -->
<g id="edge12" class="edge">
<title>Node11&#45;&gt;Node5</title>
<path fill="none" stroke="midnightblue" d="M260.64,-106.1C273.78,-96.38 290.48,-84.03 301.56,-75.83"/>
<polygon fill="midnightblue" stroke="midnightblue" points="258.19,-103.56 252.23,-112.32 262.35,-109.19 258.19,-103.56"/>
</g>
<!-- Node12 -->
<g id="node12" class="node">
<title>Node12</title>
<g id="a_node12"><a xlink:href="extension__module_8cpp.html" target="_top" xlink:title="The implementation of the new extension module.">
<polygon fill="none" stroke="black" points="119,-56.5 119,-75.5 246,-75.5 246,-56.5 119,-56.5"/>
<text text-anchor="middle" x="182.5" y="-63.5" font-family="Helvetica,sans-Serif" font-size="10.00">extension_module.cpp</text>
</a>
</g>
</g>
<!-- Node11&#45;&gt;Node12 -->
<g id="edge13" class="edge">
<title>Node11&#45;&gt;Node12</title>
<path fill="none" stroke="midnightblue" d="M223.59,-105.25C213.3,-95.67 200.53,-83.79 191.99,-75.83"/>
<polygon fill="midnightblue" stroke="midnightblue" points="221.48,-108.07 231.18,-112.32 226.25,-102.95 221.48,-108.07"/>
</g>
<!-- Node14&#45;&gt;Node5 -->
<g id="edge16" class="edge">
<title>Node14&#45;&gt;Node5</title>
<path fill="none" stroke="midnightblue" d="M359.51,-105.82C348.04,-96.15 333.59,-83.95 323.97,-75.83"/>
<polygon fill="midnightblue" stroke="midnightblue" points="357.32,-108.55 367.22,-112.32 361.83,-103.2 357.32,-108.55"/>
</g>
<!-- Node15 -->
<g id="node15" class="node">
<title>Node15</title>
<g id="a_node15"><a xlink:href="server__module_8cpp.html" target="_top" xlink:title="The server module class implementation.">
<polygon fill="none" stroke="black" points="380.5,-56.5 380.5,-75.5 490.5,-75.5 490.5,-56.5 380.5,-56.5"/>
<text text-anchor="middle" x="435.5" y="-63.5" font-family="Helvetica,sans-Serif" font-size="10.00">server_module.cpp</text>
</a>
</g>
</g>
<!-- Node14&#45;&gt;Node15 -->
<g id="edge17" class="edge">
<title>Node14&#45;&gt;Node15</title>
<path fill="none" stroke="midnightblue" d="M394.41,-105.25C404.7,-95.67 417.47,-83.79 426.01,-75.83"/>
<polygon fill="midnightblue" stroke="midnightblue" points="391.75,-102.95 386.82,-112.32 396.52,-108.07 391.75,-102.95"/>
</g>
<!-- Node16&#45;&gt;Node5 -->
<g id="edge19" class="edge">
<title>Node16&#45;&gt;Node5</title>
<path fill="none" stroke="midnightblue" d="M467.69,-109.7C430.89,-99.51 377.57,-84.74 344.25,-75.52"/>
<polygon fill="midnightblue" stroke="midnightblue" points="467.03,-113.15 477.6,-112.44 468.9,-106.4 467.03,-113.15"/>
</g>
<!-- Node17 -->
<g id="node17" class="node">
<title>Node17</title>
<g id="a_node17"><a xlink:href="system__module_8cpp.html" target="_top" xlink:title=" ">
<polygon fill="none" stroke="black" points="509,-56.5 509,-75.5 624,-75.5 624,-56.5 509,-56.5"/>
<text text-anchor="middle" x="566.5" y="-63.5" font-family="Helvetica,sans-Serif" font-size="10.00">system_module.cpp</text>
</a>
</g>
</g>
<!-- Node16&#45;&gt;Node17 -->
<g id="edge20" class="edge">
<title>Node16&#45;&gt;Node17</title>
<path fill="none" stroke="midnightblue" d="M525.41,-105.25C535.7,-95.67 548.47,-83.79 557.01,-75.83"/>
<polygon fill="midnightblue" stroke="midnightblue" points="522.75,-102.95 517.82,-112.32 527.52,-108.07 522.75,-102.95"/>
</g>
</g>
</svg>
