<?xml version="1.0" encoding="UTF-8" standalone="no"?>
<!DOCTYPE svg PUBLIC "-//W3C//DTD SVG 1.1//EN"
 "http://www.w3.org/Graphics/SVG/1.1/DTD/svg11.dtd">
<!-- Generated by graphviz version 2.43.0 (0)
 -->
<!-- Title: configuration.hpp Pages: 1 -->
<svg width="1580pt" height="308pt"
 viewBox="0.00 0.00 1580.00 308.00" xmlns="http://www.w3.org/2000/svg" xmlns:xlink="http://www.w3.org/1999/xlink">
<g id="graph0" class="graph" transform="scale(1 1) rotate(0) translate(4 304)">
<title>configuration.hpp</title>
<!-- Node1 -->
<g id="node1" class="node">
<title>Node1</title>
<g id="a_node1"><a xlink:title=" ">
<polygon fill="#bfbfbf" stroke="black" points="1003,-280.5 1003,-299.5 1104,-299.5 1104,-280.5 1003,-280.5"/>
<text text-anchor="middle" x="1053.5" y="-287.5" font-family="Helvetica,sans-Serif" font-size="10.00">configuration.hpp</text>
</a>
</g>
</g>
<!-- Node2 -->
<g id="node2" class="node">
<title>Node2</title>
<g id="a_node2"><a xlink:href="flight__runner_8hpp.html" target="_top" xlink:title="The main class for the flight system.">
<polygon fill="none" stroke="black" points="734.5,-56.5 734.5,-75.5 832.5,-75.5 832.5,-56.5 734.5,-56.5"/>
<text text-anchor="middle" x="783.5" y="-63.5" font-family="Helvetica,sans-Serif" font-size="10.00">flight_runner.hpp</text>
</a>
</g>
</g>
<!-- Node1&#45;&gt;Node2 -->
<g id="edge1" class="edge">
<title>Node1&#45;&gt;Node2</title>
<path fill="none" stroke="midnightblue" d="M1012.15,-277.46C966.99,-263.03 894.93,-234.43 848.5,-188 821.8,-161.3 828.67,-145.1 810.5,-112 803.4,-99.06 794.47,-84.48 788.87,-75.51"/>
<polygon fill="midnightblue" stroke="midnightblue" points="1011.32,-280.87 1021.91,-280.49 1013.4,-274.18 1011.32,-280.87"/>
</g>
<!-- Node6 -->
<g id="node6" class="node">
<title>Node6</title>
<g id="a_node6"><a xlink:href="console__pages_8hpp.html" target="_top" xlink:title=" ">
<polygon fill="none" stroke="black" points="169.5,-224.5 169.5,-243.5 279.5,-243.5 279.5,-224.5 169.5,-224.5"/>
<text text-anchor="middle" x="224.5" y="-231.5" font-family="Helvetica,sans-Serif" font-size="10.00">console_pages.hpp</text>
</a>
</g>
</g>
<!-- Node1&#45;&gt;Node6 -->
<g id="edge5" class="edge">
<title>Node1&#45;&gt;Node6</title>
<path fill="none" stroke="midnightblue" d="M992.59,-285.03C837.28,-274.92 428.23,-248.27 279.54,-238.58"/>
<polygon fill="midnightblue" stroke="midnightblue" points="992.68,-288.55 1002.89,-285.7 993.14,-281.56 992.68,-288.55"/>
</g>
<!-- Node12 -->
<g id="node12" class="node">
<title>Node12</title>
<g id="a_node12"><a xlink:href="data__formatting_8hpp.html" target="_top" xlink:title="This file contains the DataFormatter class, which is used to format data for the data and log files.">
<polygon fill="none" stroke="black" points="995.5,-224.5 995.5,-243.5 1111.5,-243.5 1111.5,-224.5 995.5,-224.5"/>
<text text-anchor="middle" x="1053.5" y="-231.5" font-family="Helvetica,sans-Serif" font-size="10.00">data_formatting.hpp</text>
</a>
</g>
</g>
<!-- Node1&#45;&gt;Node12 -->
<g id="edge13" class="edge">
<title>Node1&#45;&gt;Node12</title>
<path fill="none" stroke="midnightblue" d="M1053.5,-269.8C1053.5,-260.91 1053.5,-250.78 1053.5,-243.75"/>
<polygon fill="midnightblue" stroke="midnightblue" points="1050,-270.08 1053.5,-280.08 1057,-270.08 1050,-270.08"/>
</g>
<!-- Node14 -->
<g id="node14" class="node">
<title>Node14</title>
<g id="a_node14"><a xlink:href="data__log_8hpp.html" target="_top" xlink:title="The data log is responsible for writing data to files and managing the file system.">
<polygon fill="none" stroke="black" points="1125.5,-168.5 1125.5,-187.5 1205.5,-187.5 1205.5,-168.5 1125.5,-168.5"/>
<text text-anchor="middle" x="1165.5" y="-175.5" font-family="Helvetica,sans-Serif" font-size="10.00">data_log.hpp</text>
</a>
</g>
</g>
<!-- Node1&#45;&gt;Node14 -->
<g id="edge21" class="edge">
<title>Node1&#45;&gt;Node14</title>
<path fill="none" stroke="midnightblue" d="M1078.34,-275.39C1091.73,-267.34 1108.02,-256.31 1120.5,-244 1138.29,-226.46 1153.53,-201.01 1160.85,-187.76"/>
<polygon fill="midnightblue" stroke="midnightblue" points="1076.49,-272.42 1069.62,-280.48 1080.02,-278.47 1076.49,-272.42"/>
</g>
<!-- Node19 -->
<g id="node19" class="node">
<title>Node19</title>
<g id="a_node19"><a xlink:href="file__system__manager_8hpp.html" target="_top" xlink:title=" ">
<polygon fill="none" stroke="black" points="1286.5,-224.5 1286.5,-243.5 1428.5,-243.5 1428.5,-224.5 1286.5,-224.5"/>
<text text-anchor="middle" x="1357.5" y="-231.5" font-family="Helvetica,sans-Serif" font-size="10.00">file_system_manager.hpp</text>
</a>
</g>
</g>
<!-- Node1&#45;&gt;Node19 -->
<g id="edge22" class="edge">
<title>Node1&#45;&gt;Node19</title>
<path fill="none" stroke="midnightblue" d="M1111.69,-278.66C1169.14,-268.46 1255.95,-253.04 1309.56,-243.52"/>
<polygon fill="midnightblue" stroke="midnightblue" points="1110.9,-275.25 1101.67,-280.44 1112.13,-282.14 1110.9,-275.25"/>
</g>
<!-- Node20 -->
<g id="node20" class="node">
<title>Node20</title>
<g id="a_node20"><a xlink:href="influxdb_8hpp.html" target="_top" xlink:title=" ">
<polygon fill="none" stroke="black" points="1191,-224.5 1191,-243.5 1268,-243.5 1268,-224.5 1191,-224.5"/>
<text text-anchor="middle" x="1229.5" y="-231.5" font-family="Helvetica,sans-Serif" font-size="10.00">influxdb.hpp</text>
</a>
</g>
</g>
<!-- Node1&#45;&gt;Node20 -->
<g id="edge24" class="edge">
<title>Node1&#45;&gt;Node20</title>
<path fill="none" stroke="midnightblue" d="M1091.19,-277.44C1124.37,-267.26 1171.93,-252.66 1201.74,-243.52"/>
<polygon fill="midnightblue" stroke="midnightblue" points="1089.92,-274.16 1081.39,-280.44 1091.97,-280.86 1089.92,-274.16"/>
</g>
<!-- Node22 -->
<g id="node22" class="node">
<title>Node22</title>
<g id="a_node22"><a xlink:href="module_8hpp.html" target="_top" xlink:title="The header file for the base module class.">
<polygon fill="none" stroke="black" points="624.5,-168.5 624.5,-187.5 698.5,-187.5 698.5,-168.5 624.5,-168.5"/>
<text text-anchor="middle" x="661.5" y="-175.5" font-family="Helvetica,sans-Serif" font-size="10.00">module.hpp</text>
</a>
</g>
</g>
<!-- Node1&#45;&gt;Node22 -->
<g id="edge27" class="edge">
<title>Node1&#45;&gt;Node22</title>
<path fill="none" stroke="midnightblue" d="M992.56,-281.13C943.97,-273.98 874.51,-261.81 815.5,-244 764.1,-228.49 706.57,-201.45 678.61,-187.65"/>
<polygon fill="midnightblue" stroke="midnightblue" points="992.21,-284.61 1002.61,-282.57 993.21,-277.68 992.21,-284.61"/>
</g>
<!-- Node32 -->
<g id="node32" class="node">
<title>Node32</title>
<g id="a_node32"><a xlink:href="request__handler_8hpp.html" target="_top" xlink:title="The request handler class header.">
<polygon fill="none" stroke="black" points="857.5,-168.5 857.5,-187.5 973.5,-187.5 973.5,-168.5 857.5,-168.5"/>
<text text-anchor="middle" x="915.5" y="-175.5" font-family="Helvetica,sans-Serif" font-size="10.00">request_handler.hpp</text>
</a>
</g>
</g>
<!-- Node1&#45;&gt;Node32 -->
<g id="edge43" class="edge">
<title>Node1&#45;&gt;Node32</title>
<path fill="none" stroke="midnightblue" d="M1030.94,-275.05C1017.66,-266.55 1000.73,-255.19 986.5,-244 962.85,-225.41 937.36,-200.82 924.31,-187.87"/>
<polygon fill="midnightblue" stroke="midnightblue" points="1029.15,-278.06 1039.47,-280.45 1032.89,-272.14 1029.15,-278.06"/>
</g>
<!-- Node34 -->
<g id="node34" class="node">
<title>Node34</title>
<g id="a_node34"><a xlink:href="test__configuration_8cpp.html" target="_top" xlink:title=" ">
<polygon fill="none" stroke="black" points="1447,-224.5 1447,-243.5 1572,-243.5 1572,-224.5 1447,-224.5"/>
<text text-anchor="middle" x="1509.5" y="-231.5" font-family="Helvetica,sans-Serif" font-size="10.00">test_configuration.cpp</text>
</a>
</g>
</g>
<!-- Node1&#45;&gt;Node34 -->
<g id="edge46" class="edge">
<title>Node1&#45;&gt;Node34</title>
<path fill="none" stroke="midnightblue" d="M1114.44,-282.01C1190.19,-273.28 1323.42,-257.81 1437.5,-244 1440.5,-243.64 1443.57,-243.26 1446.67,-242.88"/>
<polygon fill="midnightblue" stroke="midnightblue" points="1113.68,-278.57 1104.14,-283.19 1114.48,-285.52 1113.68,-278.57"/>
</g>
<!-- Node3 -->
<g id="node3" class="node">
<title>Node3</title>
<g id="a_node3"><a xlink:href="flight__logic_8cpp.html" target="_top" xlink:title="The implementation of the flight logic within the flight runner.">
<polygon fill="none" stroke="black" points="626.5,-0.5 626.5,-19.5 716.5,-19.5 716.5,-0.5 626.5,-0.5"/>
<text text-anchor="middle" x="671.5" y="-7.5" font-family="Helvetica,sans-Serif" font-size="10.00">flight_logic.cpp</text>
</a>
</g>
</g>
<!-- Node2&#45;&gt;Node3 -->
<g id="edge2" class="edge">
<title>Node2&#45;&gt;Node3</title>
<path fill="none" stroke="midnightblue" d="M756.25,-51.86C735.48,-41.85 707.48,-28.35 689.45,-19.65"/>
<polygon fill="midnightblue" stroke="midnightblue" points="754.98,-55.13 765.51,-56.32 758.02,-48.83 754.98,-55.13"/>
</g>
<!-- Node4 -->
<g id="node4" class="node">
<title>Node4</title>
<g id="a_node4"><a xlink:href="flight__runner_8cpp.html" target="_top" xlink:title="The implementation of the flight runner, where everything comes together.">
<polygon fill="none" stroke="black" points="734.5,-0.5 734.5,-19.5 832.5,-19.5 832.5,-0.5 734.5,-0.5"/>
<text text-anchor="middle" x="783.5" y="-7.5" font-family="Helvetica,sans-Serif" font-size="10.00">flight_runner.cpp</text>
</a>
</g>
</g>
<!-- Node2&#45;&gt;Node4 -->
<g id="edge3" class="edge">
<title>Node2&#45;&gt;Node4</title>
<path fill="none" stroke="midnightblue" d="M783.5,-45.8C783.5,-36.91 783.5,-26.78 783.5,-19.75"/>
<polygon fill="midnightblue" stroke="midnightblue" points="780,-46.08 783.5,-56.08 787,-46.08 780,-46.08"/>
</g>
<!-- Node5 -->
<g id="node5" class="node">
<title>Node5</title>
<g id="a_node5"><a xlink:href="src_2flight__system_2main_8cpp.html" target="_top" xlink:title="Defines the entry point/main function of the Flight Computer software.">
<polygon fill="none" stroke="black" points="850.5,-0.5 850.5,-19.5 912.5,-19.5 912.5,-0.5 850.5,-0.5"/>
<text text-anchor="middle" x="881.5" y="-7.5" font-family="Helvetica,sans-Serif" font-size="10.00">main.cpp</text>
</a>
</g>
</g>
<!-- Node2&#45;&gt;Node5 -->
<g id="edge4" class="edge">
<title>Node2&#45;&gt;Node5</title>
<path fill="none" stroke="midnightblue" d="M808.09,-51.45C826.18,-41.48 850.23,-28.23 865.79,-19.65"/>
<polygon fill="midnightblue" stroke="midnightblue" points="806.31,-48.43 799.25,-56.32 809.69,-54.56 806.31,-48.43"/>
</g>
<!-- Node7 -->
<g id="node7" class="node">
<title>Node7</title>
<g id="a_node7"><a xlink:href="console__module_8hpp.html" target="_top" xlink:title=" ">
<polygon fill="none" stroke="black" points="166,-112.5 166,-131.5 283,-131.5 283,-112.5 166,-112.5"/>
<text text-anchor="middle" x="224.5" y="-119.5" font-family="Helvetica,sans-Serif" font-size="10.00">console_module.hpp</text>
</a>
</g>
</g>
<!-- Node6&#45;&gt;Node7 -->
<g id="edge6" class="edge">
<title>Node6&#45;&gt;Node7</title>
<path fill="none" stroke="midnightblue" d="M235.99,-215.57C243.14,-202.64 250.31,-184.46 246.5,-168 243.36,-154.44 235.55,-140.26 230.14,-131.52"/>
<polygon fill="midnightblue" stroke="midnightblue" points="232.88,-213.96 230.71,-224.33 238.88,-217.57 232.88,-213.96"/>
</g>
<!-- Node9 -->
<g id="node9" class="node">
<title>Node9</title>
<g id="a_node9"><a xlink:href="console__pages_8cpp.html" target="_top" xlink:title=" ">
<polygon fill="none" stroke="black" points="0,-168.5 0,-187.5 109,-187.5 109,-168.5 0,-168.5"/>
<text text-anchor="middle" x="54.5" y="-175.5" font-family="Helvetica,sans-Serif" font-size="10.00">console_pages.cpp</text>
</a>
</g>
</g>
<!-- Node6&#45;&gt;Node9 -->
<g id="edge9" class="edge">
<title>Node6&#45;&gt;Node9</title>
<path fill="none" stroke="midnightblue" d="M187.68,-221.3C155.65,-211.13 109.98,-196.62 81.31,-187.52"/>
<polygon fill="midnightblue" stroke="midnightblue" points="186.97,-224.75 197.56,-224.44 189.09,-218.08 186.97,-224.75"/>
</g>
<!-- Node10 -->
<g id="node10" class="node">
<title>Node10</title>
<g id="a_node10"><a xlink:href="curses__utilities_8hpp.html" target="_top" xlink:title=" ">
<polygon fill="none" stroke="black" points="127,-168.5 127,-187.5 238,-187.5 238,-168.5 127,-168.5"/>
<text text-anchor="middle" x="182.5" y="-175.5" font-family="Helvetica,sans-Serif" font-size="10.00">curses_utilities.hpp</text>
</a>
</g>
</g>
<!-- Node6&#45;&gt;Node10 -->
<g id="edge10" class="edge">
<title>Node6&#45;&gt;Node10</title>
<path fill="none" stroke="midnightblue" d="M211.39,-216.14C204.07,-206.74 195.26,-195.4 189.31,-187.75"/>
<polygon fill="midnightblue" stroke="midnightblue" points="208.66,-218.34 217.56,-224.08 214.19,-214.04 208.66,-218.34"/>
</g>
<!-- Node7&#45;&gt;Node2 -->
<g id="edge7" class="edge">
<title>Node7&#45;&gt;Node2</title>
<path fill="none" stroke="midnightblue" d="M293.26,-111.98C485.78,-91.59 536.43,-98.15 724.5,-76 727.69,-75.62 730.97,-75.21 734.28,-74.77"/>
<polygon fill="midnightblue" stroke="midnightblue" points="292.65,-108.52 283.08,-113.06 293.4,-115.48 292.65,-108.52"/>
</g>
<!-- Node8 -->
<g id="node8" class="node">
<title>Node8</title>
<g id="a_node8"><a xlink:href="console__module_8cpp.html" target="_top" xlink:title=" ">
<polygon fill="none" stroke="black" points="166.5,-56.5 166.5,-75.5 282.5,-75.5 282.5,-56.5 166.5,-56.5"/>
<text text-anchor="middle" x="224.5" y="-63.5" font-family="Helvetica,sans-Serif" font-size="10.00">console_module.cpp</text>
</a>
</g>
</g>
<!-- Node7&#45;&gt;Node8 -->
<g id="edge8" class="edge">
<title>Node7&#45;&gt;Node8</title>
<path fill="none" stroke="midnightblue" d="M224.5,-101.8C224.5,-92.91 224.5,-82.78 224.5,-75.75"/>
<polygon fill="midnightblue" stroke="midnightblue" points="221,-102.08 224.5,-112.08 228,-102.08 221,-102.08"/>
</g>
<!-- Node10&#45;&gt;Node7 -->
<g id="edge11" class="edge">
<title>Node10&#45;&gt;Node7</title>
<path fill="none" stroke="midnightblue" d="M195.61,-160.14C202.93,-150.74 211.74,-139.4 217.69,-131.75"/>
<polygon fill="midnightblue" stroke="midnightblue" points="192.81,-158.04 189.44,-168.08 198.34,-162.34 192.81,-158.04"/>
</g>
<!-- Node11 -->
<g id="node11" class="node">
<title>Node11</title>
<g id="a_node11"><a xlink:href="curses__utilities_8cpp.html" target="_top" xlink:title=" ">
<polygon fill="none" stroke="black" points="37.5,-112.5 37.5,-131.5 147.5,-131.5 147.5,-112.5 37.5,-112.5"/>
<text text-anchor="middle" x="92.5" y="-119.5" font-family="Helvetica,sans-Serif" font-size="10.00">curses_utilities.cpp</text>
</a>
</g>
</g>
<!-- Node10&#45;&gt;Node11 -->
<g id="edge12" class="edge">
<title>Node10&#45;&gt;Node11</title>
<path fill="none" stroke="midnightblue" d="M159.46,-163.18C142.9,-153.24 121.08,-140.15 106.92,-131.65"/>
<polygon fill="midnightblue" stroke="midnightblue" points="157.66,-166.18 168.04,-168.32 161.27,-160.18 157.66,-166.18"/>
</g>
<!-- Node13 -->
<g id="node13" class="node">
<title>Node13</title>
<g id="a_node13"><a xlink:href="data__formatting_8cpp.html" target="_top" xlink:title="Implementation of the DataFormatter class.">
<polygon fill="none" stroke="black" points="991.5,-168.5 991.5,-187.5 1107.5,-187.5 1107.5,-168.5 991.5,-168.5"/>
<text text-anchor="middle" x="1049.5" y="-175.5" font-family="Helvetica,sans-Serif" font-size="10.00">data_formatting.cpp</text>
</a>
</g>
</g>
<!-- Node12&#45;&gt;Node13 -->
<g id="edge14" class="edge">
<title>Node12&#45;&gt;Node13</title>
<path fill="none" stroke="midnightblue" d="M1052.1,-214.1C1051.44,-205.14 1050.67,-194.86 1050.15,-187.75"/>
<polygon fill="midnightblue" stroke="midnightblue" points="1048.61,-214.37 1052.84,-224.08 1055.59,-213.85 1048.61,-214.37"/>
</g>
<!-- Node12&#45;&gt;Node14 -->
<g id="edge15" class="edge">
<title>Node12&#45;&gt;Node14</title>
<path fill="none" stroke="midnightblue" d="M1080.75,-219.86C1101.52,-209.85 1129.52,-196.35 1147.55,-187.65"/>
<polygon fill="midnightblue" stroke="midnightblue" points="1078.98,-216.83 1071.49,-224.32 1082.02,-223.13 1078.98,-216.83"/>
</g>
<!-- Node15 -->
<g id="node15" class="node">
<title>Node15</title>
<g id="a_node15"><a xlink:href="data__log_8cpp.html" target="_top" xlink:title="The implementation of the data log class.">
<polygon fill="none" stroke="black" points="1119,-112.5 1119,-131.5 1198,-131.5 1198,-112.5 1119,-112.5"/>
<text text-anchor="middle" x="1158.5" y="-119.5" font-family="Helvetica,sans-Serif" font-size="10.00">data_log.cpp</text>
</a>
</g>
</g>
<!-- Node14&#45;&gt;Node15 -->
<g id="edge16" class="edge">
<title>Node14&#45;&gt;Node15</title>
<path fill="none" stroke="midnightblue" d="M1163.05,-158.1C1161.89,-149.14 1160.56,-138.86 1159.63,-131.75"/>
<polygon fill="midnightblue" stroke="midnightblue" points="1159.59,-158.62 1164.34,-168.08 1166.53,-157.72 1159.59,-158.62"/>
</g>
<!-- Node16 -->
<g id="node16" class="node">
<title>Node16</title>
<g id="a_node16"><a xlink:href="data__module_8hpp.html" target="_top" xlink:title="The data module header file.">
<polygon fill="none" stroke="black" points="1216,-112.5 1216,-131.5 1317,-131.5 1317,-112.5 1216,-112.5"/>
<text text-anchor="middle" x="1266.5" y="-119.5" font-family="Helvetica,sans-Serif" font-size="10.00">data_module.hpp</text>
</a>
</g>
</g>
<!-- Node14&#45;&gt;Node16 -->
<g id="edge17" class="edge">
<title>Node14&#45;&gt;Node16</title>
<path fill="none" stroke="midnightblue" d="M1190.58,-163.59C1209.26,-153.61 1234.2,-140.27 1250.31,-131.65"/>
<polygon fill="midnightblue" stroke="midnightblue" points="1188.9,-160.52 1181.73,-168.32 1192.2,-166.7 1188.9,-160.52"/>
</g>
<!-- Node16&#45;&gt;Node2 -->
<g id="edge18" class="edge">
<title>Node16&#45;&gt;Node2</title>
<path fill="none" stroke="midnightblue" d="M1205.61,-111.95C1046.11,-92.24 1004.03,-94.58 848.5,-76 843.41,-75.39 838.1,-74.72 832.81,-74.02"/>
<polygon fill="midnightblue" stroke="midnightblue" points="1205.43,-115.45 1215.78,-113.22 1206.29,-108.51 1205.43,-115.45"/>
</g>
<!-- Node17 -->
<g id="node17" class="node">
<title>Node17</title>
<g id="a_node17"><a xlink:href="data__module_8cpp.html" target="_top" xlink:title=" ">
<polygon fill="none" stroke="black" points="1150,-56.5 1150,-75.5 1251,-75.5 1251,-56.5 1150,-56.5"/>
<text text-anchor="middle" x="1200.5" y="-63.5" font-family="Helvetica,sans-Serif" font-size="10.00">data_module.cpp</text>
</a>
</g>
</g>
<!-- Node16&#45;&gt;Node17 -->
<g id="edge19" class="edge">
<title>Node16&#45;&gt;Node17</title>
<path fill="none" stroke="midnightblue" d="M1247.95,-105.82C1236.12,-96.15 1221.21,-83.95 1211.3,-75.83"/>
<polygon fill="midnightblue" stroke="midnightblue" points="1245.94,-108.7 1255.9,-112.32 1250.37,-103.28 1245.94,-108.7"/>
</g>
<!-- Node18 -->
<g id="node18" class="node">
<title>Node18</title>
<g id="a_node18"><a xlink:href="test__data__module_8cpp.html" target="_top" xlink:title="Data module unit tests.">
<polygon fill="none" stroke="black" points="1269,-56.5 1269,-75.5 1394,-75.5 1394,-56.5 1269,-56.5"/>
<text text-anchor="middle" x="1331.5" y="-63.5" font-family="Helvetica,sans-Serif" font-size="10.00">test_data_module.cpp</text>
</a>
</g>
</g>
<!-- Node16&#45;&gt;Node18 -->
<g id="edge20" class="edge">
<title>Node16&#45;&gt;Node18</title>
<path fill="none" stroke="midnightblue" d="M1284.77,-105.82C1296.42,-96.15 1311.1,-83.95 1320.87,-75.83"/>
<polygon fill="midnightblue" stroke="midnightblue" points="1282.4,-103.24 1276.94,-112.32 1286.87,-108.63 1282.4,-103.24"/>
</g>
<!-- Node19&#45;&gt;Node16 -->
<g id="edge23" class="edge">
<title>Node19&#45;&gt;Node16</title>
<path fill="none" stroke="midnightblue" d="M1358.46,-213.77C1358.22,-199.89 1355.86,-181.31 1346.5,-168 1333.94,-150.14 1311.91,-138.51 1294.15,-131.56"/>
<polygon fill="midnightblue" stroke="midnightblue" points="1354.96,-214.06 1358.28,-224.12 1361.96,-214.18 1354.96,-214.06"/>
</g>
<!-- Node20&#45;&gt;Node16 -->
<g id="edge25" class="edge">
<title>Node20&#45;&gt;Node16</title>
<path fill="none" stroke="midnightblue" d="M1235.66,-214.67C1243.75,-190.62 1257.62,-149.39 1263.61,-131.59"/>
<polygon fill="midnightblue" stroke="midnightblue" points="1232.27,-213.77 1232.4,-224.37 1238.91,-216.01 1232.27,-213.77"/>
</g>
<!-- Node21 -->
<g id="node21" class="node">
<title>Node21</title>
<g id="a_node21"><a xlink:href="influxdb_8cpp.html" target="_top" xlink:title=" ">
<polygon fill="none" stroke="black" points="1261.5,-168.5 1261.5,-187.5 1337.5,-187.5 1337.5,-168.5 1261.5,-168.5"/>
<text text-anchor="middle" x="1299.5" y="-175.5" font-family="Helvetica,sans-Serif" font-size="10.00">influxdb.cpp</text>
</a>
</g>
</g>
<!-- Node20&#45;&gt;Node21 -->
<g id="edge26" class="edge">
<title>Node20&#45;&gt;Node21</title>
<path fill="none" stroke="midnightblue" d="M1248.81,-218.1C1261.41,-208.38 1277.43,-196.03 1288.05,-187.83"/>
<polygon fill="midnightblue" stroke="midnightblue" points="1246.53,-215.44 1240.75,-224.32 1250.8,-220.99 1246.53,-215.44"/>
</g>
<!-- Node22&#45;&gt;Node7 -->
<g id="edge28" class="edge">
<title>Node22&#45;&gt;Node7</title>
<path fill="none" stroke="midnightblue" d="M614,-171.37C543.72,-162.99 407.9,-146.67 292.5,-132 289.43,-131.61 286.28,-131.21 283.1,-130.79"/>
<polygon fill="midnightblue" stroke="midnightblue" points="613.95,-174.88 624.3,-172.59 614.78,-167.93 613.95,-174.88"/>
</g>
<!-- Node22&#45;&gt;Node16 -->
<g id="edge29" class="edge">
<title>Node22&#45;&gt;Node16</title>
<path fill="none" stroke="midnightblue" d="M708.7,-174.16C803.32,-168.24 1022.89,-153.33 1206.5,-132 1209.53,-131.65 1212.65,-131.26 1215.79,-130.85"/>
<polygon fill="midnightblue" stroke="midnightblue" points="708.35,-170.68 698.59,-174.79 708.79,-177.66 708.35,-170.68"/>
</g>
<!-- Node23 -->
<g id="node23" class="node">
<title>Node23</title>
<g id="a_node23"><a xlink:href="extension__module_8hpp.html" target="_top" xlink:title="This is the header file for the new extension module.">
<polygon fill="none" stroke="black" points="301.5,-112.5 301.5,-131.5 429.5,-131.5 429.5,-112.5 301.5,-112.5"/>
<text text-anchor="middle" x="365.5" y="-119.5" font-family="Helvetica,sans-Serif" font-size="10.00">extension_module.hpp</text>
</a>
</g>
</g>
<!-- Node22&#45;&gt;Node23 -->
<g id="edge30" class="edge">
<title>Node22&#45;&gt;Node23</title>
<path fill="none" stroke="midnightblue" d="M614.4,-168.41C558.99,-158.3 467.55,-141.62 412.28,-131.53"/>
<polygon fill="midnightblue" stroke="midnightblue" points="613.85,-171.86 624.31,-170.22 615.1,-164.98 613.85,-171.86"/>
</g>
<!-- Node25 -->
<g id="node25" class="node">
<title>Node25</title>
<g id="a_node25"><a xlink:href="module_8cpp.html" target="_top" xlink:title="Implementation of the module base class.">
<polygon fill="none" stroke="black" points="581.5,-112.5 581.5,-131.5 655.5,-131.5 655.5,-112.5 581.5,-112.5"/>
<text text-anchor="middle" x="618.5" y="-119.5" font-family="Helvetica,sans-Serif" font-size="10.00">module.cpp</text>
</a>
</g>
</g>
<!-- Node22&#45;&gt;Node25 -->
<g id="edge33" class="edge">
<title>Node22&#45;&gt;Node25</title>
<path fill="none" stroke="midnightblue" d="M648.08,-160.14C640.59,-150.74 631.56,-139.4 625.47,-131.75"/>
<polygon fill="midnightblue" stroke="midnightblue" points="645.43,-162.44 654.4,-168.08 650.91,-158.08 645.43,-162.44"/>
</g>
<!-- Node26 -->
<g id="node26" class="node">
<title>Node26</title>
<g id="a_node26"><a xlink:href="server__module_8hpp.html" target="_top" xlink:title="Header file for the server module.">
<polygon fill="none" stroke="black" points="857.5,-112.5 857.5,-131.5 967.5,-131.5 967.5,-112.5 857.5,-112.5"/>
<text text-anchor="middle" x="912.5" y="-119.5" font-family="Helvetica,sans-Serif" font-size="10.00">server_module.hpp</text>
</a>
</g>
</g>
<!-- Node22&#45;&gt;Node26 -->
<g id="edge34" class="edge">
<title>Node22&#45;&gt;Node26</title>
<path fill="none" stroke="midnightblue" d="M708.54,-166.88C755.93,-156.68 828.24,-141.13 872.82,-131.54"/>
<polygon fill="midnightblue" stroke="midnightblue" points="707.58,-163.51 698.54,-169.03 709.05,-170.35 707.58,-163.51"/>
</g>
<!-- Node28 -->
<g id="node28" class="node">
<title>Node28</title>
<g id="a_node28"><a xlink:href="system__module_8hpp.html" target="_top" xlink:title=" ">
<polygon fill="none" stroke="black" points="447.5,-112.5 447.5,-131.5 563.5,-131.5 563.5,-112.5 447.5,-112.5"/>
<text text-anchor="middle" x="505.5" y="-119.5" font-family="Helvetica,sans-Serif" font-size="10.00">system_module.hpp</text>
</a>
</g>
</g>
<!-- Node22&#45;&gt;Node28 -->
<g id="edge37" class="edge">
<title>Node22&#45;&gt;Node28</title>
<path fill="none" stroke="midnightblue" d="M627.33,-165.17C597.96,-155 556.3,-140.59 530.1,-131.52"/>
<polygon fill="midnightblue" stroke="midnightblue" points="626.19,-168.48 636.78,-168.44 628.48,-161.86 626.19,-168.48"/>
</g>
<!-- Node30 -->
<g id="node30" class="node">
<title>Node30</title>
<g id="a_node30"><a xlink:href="telemetry__module_8hpp.html" target="_top" xlink:title="The telemetry module.">
<polygon fill="none" stroke="black" points="673.5,-112.5 673.5,-131.5 801.5,-131.5 801.5,-112.5 673.5,-112.5"/>
<text text-anchor="middle" x="737.5" y="-119.5" font-family="Helvetica,sans-Serif" font-size="10.00">telemetry_module.hpp</text>
</a>
</g>
</g>
<!-- Node22&#45;&gt;Node30 -->
<g id="edge40" class="edge">
<title>Node22&#45;&gt;Node30</title>
<path fill="none" stroke="midnightblue" d="M682.08,-162.38C695.81,-152.62 713.43,-140.11 725.07,-131.83"/>
<polygon fill="midnightblue" stroke="midnightblue" points="679.84,-159.68 673.71,-168.32 683.89,-165.38 679.84,-159.68"/>
</g>
<!-- Node23&#45;&gt;Node2 -->
<g id="edge31" class="edge">
<title>Node23&#45;&gt;Node2</title>
<path fill="none" stroke="midnightblue" d="M439.91,-111.78C536.79,-99.76 697.05,-79.81 724.5,-76 727.68,-75.56 730.96,-75.09 734.26,-74.61"/>
<polygon fill="midnightblue" stroke="midnightblue" points="439.37,-108.32 429.87,-113.03 440.23,-115.27 439.37,-108.32"/>
</g>
<!-- Node24 -->
<g id="node24" class="node">
<title>Node24</title>
<g id="a_node24"><a xlink:href="extension__module_8cpp.html" target="_top" xlink:title="The implementation of the new extension module.">
<polygon fill="none" stroke="black" points="302,-56.5 302,-75.5 429,-75.5 429,-56.5 302,-56.5"/>
<text text-anchor="middle" x="365.5" y="-63.5" font-family="Helvetica,sans-Serif" font-size="10.00">extension_module.cpp</text>
</a>
</g>
</g>
<!-- Node23&#45;&gt;Node24 -->
<g id="edge32" class="edge">
<title>Node23&#45;&gt;Node24</title>
<path fill="none" stroke="midnightblue" d="M365.5,-101.8C365.5,-92.91 365.5,-82.78 365.5,-75.75"/>
<polygon fill="midnightblue" stroke="midnightblue" points="362,-102.08 365.5,-112.08 369,-102.08 362,-102.08"/>
</g>
<!-- Node26&#45;&gt;Node2 -->
<g id="edge35" class="edge">
<title>Node26&#45;&gt;Node2</title>
<path fill="none" stroke="midnightblue" d="M882.65,-108.5C858.46,-98.38 825.04,-84.39 803.84,-75.52"/>
<polygon fill="midnightblue" stroke="midnightblue" points="881.48,-111.81 892.06,-112.44 884.19,-105.35 881.48,-111.81"/>
</g>
<!-- Node27 -->
<g id="node27" class="node">
<title>Node27</title>
<g id="a_node27"><a xlink:href="server__module_8cpp.html" target="_top" xlink:title="The server module class implementation.">
<polygon fill="none" stroke="black" points="857.5,-56.5 857.5,-75.5 967.5,-75.5 967.5,-56.5 857.5,-56.5"/>
<text text-anchor="middle" x="912.5" y="-63.5" font-family="Helvetica,sans-Serif" font-size="10.00">server_module.cpp</text>
</a>
</g>
</g>
<!-- Node26&#45;&gt;Node27 -->
<g id="edge36" class="edge">
<title>Node26&#45;&gt;Node27</title>
<path fill="none" stroke="midnightblue" d="M912.5,-101.8C912.5,-92.91 912.5,-82.78 912.5,-75.75"/>
<polygon fill="midnightblue" stroke="midnightblue" points="909,-102.08 912.5,-112.08 916,-102.08 909,-102.08"/>
</g>
<!-- Node28&#45;&gt;Node2 -->
<g id="edge38" class="edge">
<title>Node28&#45;&gt;Node2</title>
<path fill="none" stroke="midnightblue" d="M559.69,-110.47C612.23,-100.27 690.94,-84.98 739.66,-75.52"/>
<polygon fill="midnightblue" stroke="midnightblue" points="558.7,-107.1 549.55,-112.44 560.03,-113.97 558.7,-107.1"/>
</g>
<!-- Node29 -->
<g id="node29" class="node">
<title>Node29</title>
<g id="a_node29"><a xlink:href="system__module_8cpp.html" target="_top" xlink:title=" ">
<polygon fill="none" stroke="black" points="448,-56.5 448,-75.5 563,-75.5 563,-56.5 448,-56.5"/>
<text text-anchor="middle" x="505.5" y="-63.5" font-family="Helvetica,sans-Serif" font-size="10.00">system_module.cpp</text>
</a>
</g>
</g>
<!-- Node28&#45;&gt;Node29 -->
<g id="edge39" class="edge">
<title>Node28&#45;&gt;Node29</title>
<path fill="none" stroke="midnightblue" d="M505.5,-101.8C505.5,-92.91 505.5,-82.78 505.5,-75.75"/>
<polygon fill="midnightblue" stroke="midnightblue" points="502,-102.08 505.5,-112.08 509,-102.08 502,-102.08"/>
</g>
<!-- Node30&#45;&gt;Node2 -->
<g id="edge41" class="edge">
<title>Node30&#45;&gt;Node2</title>
<path fill="none" stroke="midnightblue" d="M751.61,-104.43C759.68,-94.97 769.46,-83.48 776.05,-75.75"/>
<polygon fill="midnightblue" stroke="midnightblue" points="748.92,-102.2 745.1,-112.08 754.25,-106.74 748.92,-102.2"/>
</g>
<!-- Node31 -->
<g id="node31" class="node">
<title>Node31</title>
<g id="a_node31"><a xlink:href="telemetry__module_8cpp.html" target="_top" xlink:title="The telemetry module.">
<polygon fill="none" stroke="black" points="589,-56.5 589,-75.5 716,-75.5 716,-56.5 589,-56.5"/>
<text text-anchor="middle" x="652.5" y="-63.5" font-family="Helvetica,sans-Serif" font-size="10.00">telemetry_module.cpp</text>
</a>
</g>
</g>
<!-- Node30&#45;&gt;Node31 -->
<g id="edge42" class="edge">
<title>Node30&#45;&gt;Node31</title>
<path fill="none" stroke="midnightblue" d="M715.31,-106.9C699.72,-97 679.37,-84.07 666.12,-75.65"/>
<polygon fill="midnightblue" stroke="midnightblue" points="713.53,-109.92 723.84,-112.32 717.28,-104.01 713.53,-109.92"/>
</g>
<!-- Node32&#45;&gt;Node26 -->
<g id="edge45" class="edge">
<title>Node32&#45;&gt;Node26</title>
<path fill="none" stroke="midnightblue" d="M914.43,-157.8C913.94,-148.91 913.38,-138.78 912.99,-131.75"/>
<polygon fill="midnightblue" stroke="midnightblue" points="910.96,-158.29 915,-168.08 917.94,-157.9 910.96,-158.29"/>
</g>
<!-- Node33 -->
<g id="node33" class="node">
<title>Node33</title>
<g id="a_node33"><a xlink:href="request__handler_8cpp.html" target="_top" xlink:title="The request handler class implementation.">
<polygon fill="none" stroke="black" points="986,-112.5 986,-131.5 1101,-131.5 1101,-112.5 986,-112.5"/>
<text text-anchor="middle" x="1043.5" y="-119.5" font-family="Helvetica,sans-Serif" font-size="10.00">request_handler.cpp</text>
</a>
</g>
</g>
<!-- Node32&#45;&gt;Node33 -->
<g id="edge44" class="edge">
<title>Node32&#45;&gt;Node33</title>
<path fill="none" stroke="midnightblue" d="M945.12,-164.5C969.12,-154.38 1002.28,-140.39 1023.31,-131.52"/>
<polygon fill="midnightblue" stroke="midnightblue" points="943.64,-161.33 935.78,-168.44 946.36,-167.78 943.64,-161.33"/>
</g>
</g>
</svg>
