<?xml version="1.0" encoding="UTF-8" standalone="no"?>
<!DOCTYPE svg PUBLIC "-//W3C//DTD SVG 1.1//EN"
 "http://www.w3.org/Graphics/SVG/1.1/DTD/svg11.dtd">
<!-- Generated by graphviz version 2.43.0 (0)
 -->
<!-- Title: console_pages.hpp Pages: 1 -->
<svg width="1745pt" height="319pt"
 viewBox="0.00 0.00 1744.50 319.00" xmlns="http://www.w3.org/2000/svg" xmlns:xlink="http://www.w3.org/1999/xlink">
<g id="graph0" class="graph" transform="scale(1 1) rotate(0) translate(4 315)">
<title>console_pages.hpp</title>
<!-- Node1 -->
<g id="node1" class="node">
<title>Node1</title>
<g id="a_node1"><a xlink:title=" ">
<polygon fill="#bfbfbf" stroke="black" points="1507,-291.5 1507,-310.5 1617,-310.5 1617,-291.5 1507,-291.5"/>
<text text-anchor="middle" x="1562" y="-298.5" font-family="Helvetica,sans-Serif" font-size="10.00">console_pages.hpp</text>
</a>
</g>
</g>
<!-- Node2 -->
<g id="node2" class="node">
<title>Node2</title>
<g id="a_node2"><a xlink:href="configuration_8hpp.html" target="_top" xlink:title=" ">
<polygon fill="none" stroke="black" points="619.5,-235.5 619.5,-254.5 720.5,-254.5 720.5,-235.5 619.5,-235.5"/>
<text text-anchor="middle" x="670" y="-242.5" font-family="Helvetica,sans-Serif" font-size="10.00">configuration.hpp</text>
</a>
</g>
</g>
<!-- Node1&#45;&gt;Node2 -->
<g id="edge1" class="edge">
<title>Node1&#45;&gt;Node2</title>
<path fill="none" stroke="midnightblue" d="M1506.85,-298.82C1374.76,-295.62 1029.65,-284.95 730.86,-254.98"/>
<polygon fill="midnightblue" stroke="midnightblue" points="731,-251.47 720.7,-253.95 730.29,-258.44 731,-251.47"/>
</g>
<!-- Node3 -->
<g id="node3" class="node">
<title>Node3</title>
<g id="a_node3"><a xlink:href="shared__data_8hpp.html" target="_top" xlink:title="Contains the SharedData struct, used across all modules and extensions.">
<polygon fill="none" stroke="black" points="739,-235.5 739,-254.5 837,-254.5 837,-235.5 739,-235.5"/>
<text text-anchor="middle" x="788" y="-242.5" font-family="Helvetica,sans-Serif" font-size="10.00">shared_data.hpp</text>
</a>
</g>
</g>
<!-- Node1&#45;&gt;Node3 -->
<g id="edge2" class="edge">
<title>Node1&#45;&gt;Node3</title>
<path fill="none" stroke="midnightblue" d="M1506.96,-296.16C1365.98,-286.32 992.8,-260.29 847.28,-250.14"/>
<polygon fill="midnightblue" stroke="midnightblue" points="847.42,-246.64 837.2,-249.43 846.94,-253.62 847.42,-246.64"/>
</g>
<!-- Node15 -->
<g id="node15" class="node">
<title>Node15</title>
<g id="a_node15"><a xlink:title=" ">
<polygon fill="none" stroke="#bfbfbf" points="1478,-0.5 1478,-19.5 1522,-19.5 1522,-0.5 1478,-0.5"/>
<text text-anchor="middle" x="1500" y="-7.5" font-family="Helvetica,sans-Serif" font-size="10.00">string</text>
</a>
</g>
</g>
<!-- Node1&#45;&gt;Node15 -->
<g id="edge45" class="edge">
<title>Node1&#45;&gt;Node15</title>
<path fill="none" stroke="midnightblue" d="M1558.76,-291.3C1552.21,-272.89 1538,-228.51 1538,-190 1538,-190 1538,-190 1538,-132 1538,-93.81 1520.56,-51.83 1509.31,-28.72"/>
<polygon fill="midnightblue" stroke="midnightblue" points="1512.29,-26.86 1504.66,-19.52 1506.04,-30.02 1512.29,-26.86"/>
</g>
<!-- Node28 -->
<g id="node28" class="node">
<title>Node28</title>
<g id="a_node28"><a xlink:title=" ">
<polygon fill="none" stroke="#bfbfbf" points="1566,-235.5 1566,-254.5 1608,-254.5 1608,-235.5 1566,-235.5"/>
<text text-anchor="middle" x="1587" y="-242.5" font-family="Helvetica,sans-Serif" font-size="10.00">array</text>
</a>
</g>
</g>
<!-- Node1&#45;&gt;Node28 -->
<g id="edge44" class="edge">
<title>Node1&#45;&gt;Node28</title>
<path fill="none" stroke="midnightblue" d="M1566.13,-291.08C1569.51,-283.77 1574.42,-273.18 1578.62,-264.1"/>
<polygon fill="midnightblue" stroke="midnightblue" points="1581.92,-265.3 1582.95,-254.75 1575.57,-262.36 1581.92,-265.3"/>
</g>
<!-- Node29 -->
<g id="node29" class="node">
<title>Node29</title>
<g id="a_node29"><a xlink:title=" ">
<polygon fill="none" stroke="#bfbfbf" points="1626.5,-235.5 1626.5,-254.5 1671.5,-254.5 1671.5,-235.5 1626.5,-235.5"/>
<text text-anchor="middle" x="1649" y="-242.5" font-family="Helvetica,sans-Serif" font-size="10.00">utility</text>
</a>
</g>
</g>
<!-- Node1&#45;&gt;Node29 -->
<g id="edge46" class="edge">
<title>Node1&#45;&gt;Node29</title>
<path fill="none" stroke="midnightblue" d="M1575.98,-291.32C1589.55,-282.9 1610.38,-269.97 1626.32,-260.07"/>
<polygon fill="midnightblue" stroke="midnightblue" points="1628.41,-262.9 1635.06,-254.65 1624.71,-256.95 1628.41,-262.9"/>
</g>
<!-- Node30 -->
<g id="node30" class="node">
<title>Node30</title>
<g id="a_node30"><a xlink:title=" ">
<polygon fill="none" stroke="#bfbfbf" points="1689.5,-235.5 1689.5,-254.5 1736.5,-254.5 1736.5,-235.5 1689.5,-235.5"/>
<text text-anchor="middle" x="1713" y="-242.5" font-family="Helvetica,sans-Serif" font-size="10.00">vector</text>
</a>
</g>
</g>
<!-- Node1&#45;&gt;Node30 -->
<g id="edge47" class="edge">
<title>Node1&#45;&gt;Node30</title>
<path fill="none" stroke="midnightblue" d="M1585.93,-291.44C1611.22,-282.4 1651.3,-268.06 1679.68,-257.92"/>
<polygon fill="midnightblue" stroke="midnightblue" points="1680.95,-261.18 1689.19,-254.52 1678.59,-254.59 1680.95,-261.18"/>
</g>
<!-- Node4 -->
<g id="node4" class="node">
<title>Node4</title>
<g id="a_node4"><a xlink:title=" ">
<polygon fill="none" stroke="#bfbfbf" points="725.5,-0.5 725.5,-19.5 850.5,-19.5 850.5,-0.5 725.5,-0.5"/>
<text text-anchor="middle" x="788" y="-7.5" font-family="Helvetica,sans-Serif" font-size="10.00">BoosterSeat/clock.hpp</text>
</a>
</g>
</g>
<!-- Node3&#45;&gt;Node4 -->
<g id="edge3" class="edge">
<title>Node3&#45;&gt;Node4</title>
<path fill="none" stroke="midnightblue" d="M788,-235.43C788,-201.75 788,-77.99 788,-30.1"/>
<polygon fill="midnightblue" stroke="midnightblue" points="791.5,-29.9 788,-19.9 784.5,-29.9 791.5,-29.9"/>
</g>
<!-- Node5 -->
<g id="node5" class="node">
<title>Node5</title>
<g id="a_node5"><a xlink:title=" ">
<polygon fill="none" stroke="#bfbfbf" points="0,-62 0,-81 122,-81 122,-62 0,-62"/>
<text text-anchor="middle" x="61" y="-69" font-family="Helvetica,sans-Serif" font-size="10.00">BoosterSeat/time.hpp</text>
</a>
</g>
</g>
<!-- Node3&#45;&gt;Node5 -->
<g id="edge4" class="edge">
<title>Node3&#45;&gt;Node5</title>
<path fill="none" stroke="midnightblue" d="M738.57,-236.15C688.54,-227.94 609.08,-214.15 541,-199 375.83,-162.25 181.65,-107.45 100.13,-83.92"/>
<polygon fill="midnightblue" stroke="midnightblue" points="100.88,-80.49 90.3,-81.07 98.93,-87.21 100.88,-80.49"/>
</g>
<!-- Node6 -->
<g id="node6" class="node">
<title>Node6</title>
<g id="a_node6"><a xlink:href="blocks_8hpp.html" target="_top" xlink:title=" ">
<polygon fill="none" stroke="black" points="420.5,-123.5 420.5,-142.5 489.5,-142.5 489.5,-123.5 420.5,-123.5"/>
<text text-anchor="middle" x="455" y="-130.5" font-family="Helvetica,sans-Serif" font-size="10.00">blocks.hpp</text>
</a>
</g>
</g>
<!-- Node3&#45;&gt;Node6 -->
<g id="edge5" class="edge">
<title>Node3&#45;&gt;Node6</title>
<path fill="none" stroke="midnightblue" d="M738.84,-235.78C698.69,-228.35 640.81,-215.96 592,-199 551.03,-184.77 506.04,-161.93 479.19,-147.46"/>
<polygon fill="midnightblue" stroke="midnightblue" points="480.61,-144.25 470.15,-142.54 477.26,-150.4 480.61,-144.25"/>
</g>
<!-- Node16 -->
<g id="node16" class="node">
<title>Node16</title>
<g id="a_node16"><a xlink:href="error__frame_8hpp.html" target="_top" xlink:title="The error frame.">
<polygon fill="none" stroke="black" points="816.5,-179.5 816.5,-198.5 911.5,-198.5 911.5,-179.5 816.5,-179.5"/>
<text text-anchor="middle" x="864" y="-186.5" font-family="Helvetica,sans-Serif" font-size="10.00">error_frame.hpp</text>
</a>
</g>
</g>
<!-- Node3&#45;&gt;Node16 -->
<g id="edge21" class="edge">
<title>Node3&#45;&gt;Node16</title>
<path fill="none" stroke="midnightblue" d="M800.21,-235.32C811.78,-227.11 829.38,-214.6 843.16,-204.81"/>
<polygon fill="midnightblue" stroke="midnightblue" points="845.44,-207.48 851.57,-198.83 841.39,-201.77 845.44,-207.48"/>
</g>
<!-- Node17 -->
<g id="node17" class="node">
<title>Node17</title>
<g id="a_node17"><a xlink:href="frame_8hpp.html" target="_top" xlink:title=" ">
<polygon fill="none" stroke="black" points="688.5,-123.5 688.5,-142.5 755.5,-142.5 755.5,-123.5 688.5,-123.5"/>
<text text-anchor="middle" x="722" y="-130.5" font-family="Helvetica,sans-Serif" font-size="10.00">frame.hpp</text>
</a>
</g>
</g>
<!-- Node3&#45;&gt;Node17 -->
<g id="edge39" class="edge">
<title>Node3&#45;&gt;Node17</title>
<path fill="none" stroke="midnightblue" d="M782.82,-235.37C771.98,-217.3 746.71,-175.18 732.38,-151.31"/>
<polygon fill="midnightblue" stroke="midnightblue" points="735.3,-149.37 727.15,-142.59 729.3,-152.97 735.3,-149.37"/>
</g>
<!-- Node20 -->
<g id="node20" class="node">
<title>Node20</title>
<g id="a_node20"><a xlink:href="streams_8hpp.html" target="_top" xlink:title="The header file for the data streams.">
<polygon fill="none" stroke="black" points="947.5,-123.5 947.5,-142.5 1024.5,-142.5 1024.5,-123.5 947.5,-123.5"/>
<text text-anchor="middle" x="986" y="-130.5" font-family="Helvetica,sans-Serif" font-size="10.00">streams.hpp</text>
</a>
</g>
</g>
<!-- Node3&#45;&gt;Node20 -->
<g id="edge43" class="edge">
<title>Node3&#45;&gt;Node20</title>
<path fill="none" stroke="midnightblue" d="M828.51,-235.44C856.01,-228.44 892.42,-216.75 921,-199 941.66,-186.17 960.75,-165.58 972.83,-151.02"/>
<polygon fill="midnightblue" stroke="midnightblue" points="975.85,-152.84 979.39,-142.86 970.39,-148.46 975.85,-152.84"/>
</g>
<!-- Node26 -->
<g id="node26" class="node">
<title>Node26</title>
<g id="a_node26"><a xlink:href="log__container_8hpp.html" target="_top" xlink:title="A simple logging system for debugging.">
<polygon fill="none" stroke="black" points="600.5,-179.5 600.5,-198.5 703.5,-198.5 703.5,-179.5 600.5,-179.5"/>
<text text-anchor="middle" x="652" y="-186.5" font-family="Helvetica,sans-Serif" font-size="10.00">log_container.hpp</text>
</a>
</g>
</g>
<!-- Node3&#45;&gt;Node26 -->
<g id="edge40" class="edge">
<title>Node3&#45;&gt;Node26</title>
<path fill="none" stroke="midnightblue" d="M766.45,-235.44C743.97,-226.52 708.51,-212.44 683.02,-202.32"/>
<polygon fill="midnightblue" stroke="midnightblue" points="684.03,-198.95 673.45,-198.52 681.45,-205.46 684.03,-198.95"/>
</g>
<!-- Node6&#45;&gt;Node4 -->
<g id="edge7" class="edge">
<title>Node6&#45;&gt;Node4</title>
<path fill="none" stroke="midnightblue" d="M478.02,-123.37C498.43,-115.27 528.69,-102.15 553,-87 571.5,-75.47 571.42,-65.57 591,-56 629.77,-37.06 676.77,-25.93 715.13,-19.48"/>
<polygon fill="midnightblue" stroke="midnightblue" points="715.88,-22.9 725.2,-17.86 714.77,-15.99 715.88,-22.9"/>
</g>
<!-- Node6&#45;&gt;Node5 -->
<g id="edge9" class="edge">
<title>Node6&#45;&gt;Node5</title>
<path fill="none" stroke="midnightblue" d="M420.36,-127.95C360.96,-120.84 235.93,-105.13 131,-87 124.18,-85.82 117.01,-84.47 109.97,-83.07"/>
<polygon fill="midnightblue" stroke="midnightblue" points="110.29,-79.57 99.79,-81.01 108.9,-86.43 110.29,-79.57"/>
</g>
<!-- Node6&#45;&gt;Node6 -->
<g id="edge10" class="edge">
<title>Node6&#45;&gt;Node6</title>
<path fill="none" stroke="midnightblue" d="M477.39,-142.53C492.61,-145.31 507.5,-142.13 507.5,-133 507.5,-125.94 498.59,-122.44 487.51,-122.5"/>
<polygon fill="midnightblue" stroke="midnightblue" points="487.01,-119.03 477.39,-123.47 487.68,-126 487.01,-119.03"/>
</g>
<!-- Node7 -->
<g id="node7" class="node">
<title>Node7</title>
<g id="a_node7"><a xlink:title=" ">
<polygon fill="none" stroke="#bfbfbf" points="600,-62 600,-81 648,-81 648,-62 600,-62"/>
<text text-anchor="middle" x="624" y="-69" font-family="Helvetica,sans-Serif" font-size="10.00">mutex</text>
</a>
</g>
</g>
<!-- Node6&#45;&gt;Node7 -->
<g id="edge6" class="edge">
<title>Node6&#45;&gt;Node7</title>
<path fill="none" stroke="midnightblue" d="M480.69,-123.46C507.17,-114.59 549.6,-100.19 586,-87 588.1,-86.24 590.27,-85.44 592.45,-84.63"/>
<polygon fill="midnightblue" stroke="midnightblue" points="593.82,-87.86 601.94,-81.06 591.35,-81.31 593.82,-87.86"/>
</g>
<!-- Node8 -->
<g id="node8" class="node">
<title>Node8</title>
<g id="a_node8"><a xlink:title=" ">
<polygon fill="none" stroke="#bfbfbf" points="216.5,-62 216.5,-81 359.5,-81 359.5,-62 216.5,-62"/>
<text text-anchor="middle" x="288" y="-69" font-family="Helvetica,sans-Serif" font-size="10.00">BoosterSeat/numbers.hpp</text>
</a>
</g>
</g>
<!-- Node6&#45;&gt;Node8 -->
<g id="edge8" class="edge">
<title>Node6&#45;&gt;Node8</title>
<path fill="none" stroke="midnightblue" d="M431.07,-123.48C402.3,-113.22 353.84,-95.96 321.4,-84.4"/>
<polygon fill="midnightblue" stroke="midnightblue" points="322.48,-81.07 311.88,-81.01 320.13,-87.66 322.48,-81.07"/>
</g>
<!-- Node9 -->
<g id="node9" class="node">
<title>Node9</title>
<g id="a_node9"><a xlink:href="json_8hpp.html" target="_top" xlink:title="Simple wrapper around nlohmann/json.hpp to provide a common interface.">
<polygon fill="none" stroke="black" points="140,-62 140,-81 198,-81 198,-62 140,-62"/>
<text text-anchor="middle" x="169" y="-69" font-family="Helvetica,sans-Serif" font-size="10.00">json.hpp</text>
</a>
</g>
</g>
<!-- Node6&#45;&gt;Node9 -->
<g id="edge11" class="edge">
<title>Node6&#45;&gt;Node9</title>
<path fill="none" stroke="midnightblue" d="M420.45,-127.79C372.11,-121.43 281.82,-107.87 207,-87 204.35,-86.26 201.63,-85.41 198.91,-84.5"/>
<polygon fill="midnightblue" stroke="midnightblue" points="199.87,-81.13 189.28,-81.03 197.5,-87.71 199.87,-81.13"/>
</g>
<!-- Node11 -->
<g id="node11" class="node">
<title>Node11</title>
<g id="a_node11"><a xlink:href="node_8hpp.html" target="_top" xlink:title="Contains structures that are used to identify components of the flight system.">
<polygon fill="none" stroke="black" points="378,-62 378,-81 440,-81 440,-62 378,-62"/>
<text text-anchor="middle" x="409" y="-69" font-family="Helvetica,sans-Serif" font-size="10.00">node.hpp</text>
</a>
</g>
</g>
<!-- Node6&#45;&gt;Node11 -->
<g id="edge13" class="edge">
<title>Node6&#45;&gt;Node11</title>
<path fill="none" stroke="midnightblue" d="M448.41,-123.48C441.51,-114.55 430.5,-100.31 421.87,-89.14"/>
<polygon fill="midnightblue" stroke="midnightblue" points="424.46,-86.78 415.58,-81.01 418.93,-91.06 424.46,-86.78"/>
</g>
<!-- Node14 -->
<g id="node14" class="node">
<title>Node14</title>
<g id="a_node14"><a xlink:href="positional_8hpp.html" target="_top" xlink:title="Positional data for the flight system (gps/imu data)">
<polygon fill="none" stroke="black" points="458,-62 458,-81 544,-81 544,-62 458,-62"/>
<text text-anchor="middle" x="501" y="-69" font-family="Helvetica,sans-Serif" font-size="10.00">positional.hpp</text>
</a>
</g>
</g>
<!-- Node6&#45;&gt;Node14 -->
<g id="edge16" class="edge">
<title>Node6&#45;&gt;Node14</title>
<path fill="none" stroke="midnightblue" d="M461.59,-123.48C468.49,-114.55 479.5,-100.31 488.13,-89.14"/>
<polygon fill="midnightblue" stroke="midnightblue" points="491.07,-91.06 494.42,-81.01 485.54,-86.78 491.07,-91.06"/>
</g>
<!-- Node10 -->
<g id="node10" class="node">
<title>Node10</title>
<g id="a_node10"><a xlink:title=" ">
<polygon fill="none" stroke="#bfbfbf" points="114,-0.5 114,-19.5 224,-19.5 224,-0.5 114,-0.5"/>
<text text-anchor="middle" x="169" y="-7.5" font-family="Helvetica,sans-Serif" font-size="10.00">nlohmann/json.hpp</text>
</a>
</g>
</g>
<!-- Node9&#45;&gt;Node10 -->
<g id="edge12" class="edge">
<title>Node9&#45;&gt;Node10</title>
<path fill="none" stroke="midnightblue" d="M169,-61.98C169,-53.58 169,-40.48 169,-29.66"/>
<polygon fill="midnightblue" stroke="midnightblue" points="172.5,-29.51 169,-19.51 165.5,-29.51 172.5,-29.51"/>
</g>
<!-- Node12 -->
<g id="node12" class="node">
<title>Node12</title>
<g id="a_node12"><a xlink:title=" ">
<polygon fill="none" stroke="#bfbfbf" points="461,-0.5 461,-19.5 511,-19.5 511,-0.5 461,-0.5"/>
<text text-anchor="middle" x="486" y="-7.5" font-family="Helvetica,sans-Serif" font-size="10.00">cstdint</text>
</a>
</g>
</g>
<!-- Node11&#45;&gt;Node12 -->
<g id="edge14" class="edge">
<title>Node11&#45;&gt;Node12</title>
<path fill="none" stroke="midnightblue" d="M420.03,-61.98C432.27,-52.52 452.23,-37.1 466.99,-25.69"/>
<polygon fill="midnightblue" stroke="midnightblue" points="469.22,-28.39 474.99,-19.51 464.94,-22.85 469.22,-28.39"/>
</g>
<!-- Node13 -->
<g id="node13" class="node">
<title>Node13</title>
<g id="a_node13"><a xlink:title=" ">
<polygon fill="none" stroke="#bfbfbf" points="397,-0.5 397,-19.5 435,-19.5 435,-0.5 397,-0.5"/>
<text text-anchor="middle" x="416" y="-7.5" font-family="Helvetica,sans-Serif" font-size="10.00">map</text>
</a>
</g>
</g>
<!-- Node11&#45;&gt;Node13 -->
<g id="edge15" class="edge">
<title>Node11&#45;&gt;Node13</title>
<path fill="none" stroke="midnightblue" d="M410,-61.98C410.99,-53.58 412.53,-40.48 413.8,-29.66"/>
<polygon fill="midnightblue" stroke="midnightblue" points="417.31,-29.85 415,-19.51 410.35,-29.03 417.31,-29.85"/>
</g>
<!-- Node14&#45;&gt;Node4 -->
<g id="edge20" class="edge">
<title>Node14&#45;&gt;Node4</title>
<path fill="none" stroke="midnightblue" d="M533.18,-61.98C541.26,-59.93 549.93,-57.81 558,-56 616.43,-42.86 683.71,-29.95 730.34,-21.36"/>
<polygon fill="midnightblue" stroke="midnightblue" points="731.06,-24.78 740.26,-19.54 729.8,-17.9 731.06,-24.78"/>
</g>
<!-- Node14&#45;&gt;Node12 -->
<g id="edge17" class="edge">
<title>Node14&#45;&gt;Node12</title>
<path fill="none" stroke="midnightblue" d="M498.85,-61.98C496.71,-53.49 493.36,-40.2 490.62,-29.32"/>
<polygon fill="midnightblue" stroke="midnightblue" points="493.98,-28.35 488.15,-19.51 487.2,-30.06 493.98,-28.35"/>
</g>
<!-- Node14&#45;&gt;Node13 -->
<g id="edge18" class="edge">
<title>Node14&#45;&gt;Node13</title>
<path fill="none" stroke="midnightblue" d="M488.82,-61.98C475.19,-52.43 452.87,-36.81 436.53,-25.37"/>
<polygon fill="midnightblue" stroke="midnightblue" points="438.36,-22.38 428.16,-19.51 434.34,-28.11 438.36,-22.38"/>
</g>
<!-- Node14&#45;&gt;Node15 -->
<g id="edge19" class="edge">
<title>Node14&#45;&gt;Node15</title>
<path fill="none" stroke="midnightblue" d="M544.36,-62.52C559.11,-60.07 575.73,-57.6 591,-56 932.72,-20.12 1349.8,-12.73 1467.63,-11.31"/>
<polygon fill="midnightblue" stroke="midnightblue" points="1467.82,-14.81 1477.78,-11.2 1467.74,-7.81 1467.82,-14.81"/>
</g>
<!-- Node16&#45;&gt;Node4 -->
<g id="edge22" class="edge">
<title>Node16&#45;&gt;Node4</title>
<path fill="none" stroke="midnightblue" d="M860.33,-179.46C848.63,-152.19 811.95,-66.78 795.79,-29.13"/>
<polygon fill="midnightblue" stroke="midnightblue" points="798.97,-27.68 791.81,-19.87 792.54,-30.44 798.97,-27.68"/>
</g>
<!-- Node16&#45;&gt;Node17 -->
<g id="edge23" class="edge">
<title>Node16&#45;&gt;Node17</title>
<path fill="none" stroke="midnightblue" d="M841.5,-179.44C817.92,-170.48 780.68,-156.31 754.04,-146.18"/>
<polygon fill="midnightblue" stroke="midnightblue" points="754.99,-142.8 744.4,-142.52 752.5,-149.34 754.99,-142.8"/>
</g>
<!-- Node19 -->
<g id="node19" class="node">
<title>Node19</title>
<g id="a_node19"><a xlink:href="giraffe__diagnostic__ids_8hpp.html" target="_top" xlink:title=" ">
<polygon fill="none" stroke="black" points="854,-56.5 854,-86.5 958,-86.5 958,-56.5 854,-56.5"/>
<text text-anchor="start" x="862" y="-74.5" font-family="Helvetica,sans-Serif" font-size="10.00">giraffe_diagnostic</text>
<text text-anchor="middle" x="906" y="-63.5" font-family="Helvetica,sans-Serif" font-size="10.00">_ids.hpp</text>
</a>
</g>
</g>
<!-- Node16&#45;&gt;Node19 -->
<g id="edge26" class="edge">
<title>Node16&#45;&gt;Node19</title>
<path fill="none" stroke="midnightblue" d="M867.16,-179.32C873.52,-161.81 888.09,-121.75 897.47,-95.97"/>
<polygon fill="midnightblue" stroke="midnightblue" points="900.76,-97.14 900.89,-86.55 894.19,-94.75 900.76,-97.14"/>
</g>
<!-- Node16&#45;&gt;Node20 -->
<g id="edge27" class="edge">
<title>Node16&#45;&gt;Node20</title>
<path fill="none" stroke="midnightblue" d="M883.33,-179.44C903.32,-170.6 934.74,-156.69 957.56,-146.59"/>
<polygon fill="midnightblue" stroke="midnightblue" points="959.03,-149.76 966.76,-142.52 956.2,-143.36 959.03,-149.76"/>
</g>
<!-- Node17&#45;&gt;Node7 -->
<g id="edge24" class="edge">
<title>Node17&#45;&gt;Node7</title>
<path fill="none" stroke="midnightblue" d="M707.96,-123.48C691.95,-113.75 665.55,-97.73 646.63,-86.24"/>
<polygon fill="midnightblue" stroke="midnightblue" points="648.38,-83.21 638.01,-81.01 644.75,-89.19 648.38,-83.21"/>
</g>
<!-- Node18 -->
<g id="node18" class="node">
<title>Node18</title>
<g id="a_node18"><a xlink:title=" ">
<polygon fill="none" stroke="#bfbfbf" points="666.5,-62 666.5,-81 759.5,-81 759.5,-62 666.5,-62"/>
<text text-anchor="middle" x="713" y="-69" font-family="Helvetica,sans-Serif" font-size="10.00">unordered_map</text>
</a>
</g>
</g>
<!-- Node17&#45;&gt;Node18 -->
<g id="edge25" class="edge">
<title>Node17&#45;&gt;Node18</title>
<path fill="none" stroke="midnightblue" d="M720.71,-123.48C719.44,-115.08 717.46,-101.98 715.82,-91.16"/>
<polygon fill="midnightblue" stroke="midnightblue" points="719.24,-90.37 714.29,-81.01 712.32,-91.42 719.24,-90.37"/>
</g>
<!-- Node20&#45;&gt;Node4 -->
<g id="edge33" class="edge">
<title>Node20&#45;&gt;Node4</title>
<path fill="none" stroke="midnightblue" d="M986.5,-123.34C986.9,-107.64 985.36,-74.38 967,-56 951.61,-40.59 902.11,-28.86 859.05,-21.24"/>
<polygon fill="midnightblue" stroke="midnightblue" points="859.58,-17.78 849.13,-19.54 858.39,-24.68 859.58,-17.78"/>
</g>
<!-- Node20&#45;&gt;Node7 -->
<g id="edge30" class="edge">
<title>Node20&#45;&gt;Node7</title>
<path fill="none" stroke="midnightblue" d="M947.45,-130.04C885.46,-126.16 760.21,-115.26 658,-87 655.7,-86.37 653.36,-85.61 651.03,-84.78"/>
<polygon fill="midnightblue" stroke="midnightblue" points="652.26,-81.51 641.68,-81.09 649.7,-88.02 652.26,-81.51"/>
</g>
<!-- Node20&#45;&gt;Node11 -->
<g id="edge37" class="edge">
<title>Node20&#45;&gt;Node11</title>
<path fill="none" stroke="midnightblue" d="M947.24,-130.08C840.57,-124.6 544.27,-107.87 449,-87 445.75,-86.29 442.41,-85.38 439.11,-84.36"/>
<polygon fill="midnightblue" stroke="midnightblue" points="440.05,-80.99 429.45,-81.09 437.8,-87.62 440.05,-80.99"/>
</g>
<!-- Node20&#45;&gt;Node14 -->
<g id="edge38" class="edge">
<title>Node20&#45;&gt;Node14</title>
<path fill="none" stroke="midnightblue" d="M947.24,-128.19C876.39,-121.08 721.26,-104.9 591,-87 579.12,-85.37 566.38,-83.43 554.34,-81.51"/>
<polygon fill="midnightblue" stroke="midnightblue" points="554.86,-78.05 544.43,-79.91 553.74,-84.96 554.86,-78.05"/>
</g>
<!-- Node20&#45;&gt;Node15 -->
<g id="edge32" class="edge">
<title>Node20&#45;&gt;Node15</title>
<path fill="none" stroke="midnightblue" d="M1024.87,-131.02C1135.54,-127.87 1446.59,-116.47 1481,-87 1497.27,-73.07 1500.71,-47.51 1500.95,-29.91"/>
<polygon fill="midnightblue" stroke="midnightblue" points="1504.45,-29.62 1500.75,-19.69 1497.45,-29.76 1504.45,-29.62"/>
</g>
<!-- Node20&#45;&gt;Node19 -->
<g id="edge36" class="edge">
<title>Node20&#45;&gt;Node19</title>
<path fill="none" stroke="midnightblue" d="M974.54,-123.48C963.8,-115.49 947.35,-103.25 933.25,-92.77"/>
<polygon fill="midnightblue" stroke="midnightblue" points="934.97,-89.68 924.85,-86.52 930.79,-95.3 934.97,-89.68"/>
</g>
<!-- Node21 -->
<g id="node21" class="node">
<title>Node21</title>
<g id="a_node21"><a xlink:title=" ">
<polygon fill="none" stroke="#bfbfbf" points="1278,-62 1278,-81 1328,-81 1328,-62 1278,-62"/>
<text text-anchor="middle" x="1303" y="-69" font-family="Helvetica,sans-Serif" font-size="10.00">atomic</text>
</a>
</g>
</g>
<!-- Node20&#45;&gt;Node21 -->
<g id="edge28" class="edge">
<title>Node20&#45;&gt;Node21</title>
<path fill="none" stroke="midnightblue" d="M1024.64,-128.88C1079.74,-123.76 1183.67,-111.58 1269,-87 1271.29,-86.34 1273.63,-85.57 1275.96,-84.73"/>
<polygon fill="midnightblue" stroke="midnightblue" points="1277.3,-87.96 1285.3,-81.02 1274.72,-81.46 1277.3,-87.96"/>
</g>
<!-- Node22 -->
<g id="node22" class="node">
<title>Node22</title>
<g id="a_node22"><a xlink:title=" ">
<polygon fill="none" stroke="#bfbfbf" points="1346,-62 1346,-81 1406,-81 1406,-62 1346,-62"/>
<text text-anchor="middle" x="1376" y="-69" font-family="Helvetica,sans-Serif" font-size="10.00">iostream</text>
</a>
</g>
</g>
<!-- Node20&#45;&gt;Node22 -->
<g id="edge29" class="edge">
<title>Node20&#45;&gt;Node22</title>
<path fill="none" stroke="midnightblue" d="M1024.7,-129.93C1089.95,-125.81 1225.6,-114.47 1337,-87 1339.99,-86.26 1343.06,-85.37 1346.11,-84.39"/>
<polygon fill="midnightblue" stroke="midnightblue" points="1347.34,-87.67 1355.63,-81.07 1345.04,-81.06 1347.34,-87.67"/>
</g>
<!-- Node23 -->
<g id="node23" class="node">
<title>Node23</title>
<g id="a_node23"><a xlink:title=" ">
<polygon fill="none" stroke="#bfbfbf" points="1424.5,-62 1424.5,-81 1471.5,-81 1471.5,-62 1424.5,-62"/>
<text text-anchor="middle" x="1448" y="-69" font-family="Helvetica,sans-Serif" font-size="10.00">queue</text>
</a>
</g>
</g>
<!-- Node20&#45;&gt;Node23 -->
<g id="edge31" class="edge">
<title>Node20&#45;&gt;Node23</title>
<path fill="none" stroke="midnightblue" d="M1024.59,-131.91C1100.61,-130.88 1274.57,-124.24 1415,-87 1417.3,-86.39 1419.64,-85.64 1421.96,-84.81"/>
<polygon fill="midnightblue" stroke="midnightblue" points="1423.28,-88.06 1431.24,-81.06 1420.65,-81.57 1423.28,-88.06"/>
</g>
<!-- Node24 -->
<g id="node24" class="node">
<title>Node24</title>
<g id="a_node24"><a xlink:title=" ">
<polygon fill="none" stroke="#bfbfbf" points="1014,-62 1014,-81 1162,-81 1162,-62 1014,-62"/>
<text text-anchor="middle" x="1088" y="-69" font-family="Helvetica,sans-Serif" font-size="10.00">BoosterSeat/exception.hpp</text>
</a>
</g>
</g>
<!-- Node20&#45;&gt;Node24 -->
<g id="edge34" class="edge">
<title>Node20&#45;&gt;Node24</title>
<path fill="none" stroke="midnightblue" d="M1000.61,-123.48C1017.35,-113.71 1045,-97.58 1064.72,-86.08"/>
<polygon fill="midnightblue" stroke="midnightblue" points="1066.54,-89.07 1073.41,-81.01 1063.01,-83.02 1066.54,-89.07"/>
</g>
<!-- Node25 -->
<g id="node25" class="node">
<title>Node25</title>
<g id="a_node25"><a xlink:href="data__ids_8hpp.html" target="_top" xlink:title=" ">
<polygon fill="none" stroke="black" points="1180.5,-62 1180.5,-81 1259.5,-81 1259.5,-62 1180.5,-62"/>
<text text-anchor="middle" x="1220" y="-69" font-family="Helvetica,sans-Serif" font-size="10.00">data_ids.hpp</text>
</a>
</g>
</g>
<!-- Node20&#45;&gt;Node25 -->
<g id="edge35" class="edge">
<title>Node20&#45;&gt;Node25</title>
<path fill="none" stroke="midnightblue" d="M1023.34,-123.48C1060.81,-114.81 1120.09,-100.71 1171,-87 1174.64,-86.02 1178.42,-84.96 1182.2,-83.89"/>
<polygon fill="midnightblue" stroke="midnightblue" points="1183.45,-87.17 1192.08,-81.02 1181.5,-80.45 1183.45,-87.17"/>
</g>
<!-- Node26&#45;&gt;Node7 -->
<g id="edge42" class="edge">
<title>Node26&#45;&gt;Node7</title>
<path fill="none" stroke="midnightblue" d="M649.9,-179.32C645.38,-160.67 634.65,-116.44 628.52,-91.13"/>
<polygon fill="midnightblue" stroke="midnightblue" points="631.89,-90.18 626.13,-81.28 625.08,-91.83 631.89,-90.18"/>
</g>
<!-- Node27 -->
<g id="node27" class="node">
<title>Node27</title>
<g id="a_node27"><a xlink:title=" ">
<polygon fill="none" stroke="#bfbfbf" points="576.5,-123.5 576.5,-142.5 623.5,-142.5 623.5,-123.5 576.5,-123.5"/>
<text text-anchor="middle" x="600" y="-130.5" font-family="Helvetica,sans-Serif" font-size="10.00">deque</text>
</a>
</g>
</g>
<!-- Node26&#45;&gt;Node27 -->
<g id="edge41" class="edge">
<title>Node26&#45;&gt;Node27</title>
<path fill="none" stroke="midnightblue" d="M643.41,-179.08C635.84,-171.22 624.62,-159.57 615.49,-150.08"/>
<polygon fill="midnightblue" stroke="midnightblue" points="617.88,-147.53 608.43,-142.75 612.84,-152.38 617.88,-147.53"/>
</g>
</g>
</svg>
