<?xml version="1.0" encoding="UTF-8" standalone="no"?>
<!DOCTYPE svg PUBLIC "-//W3C//DTD SVG 1.1//EN"
 "http://www.w3.org/Graphics/SVG/1.1/DTD/svg11.dtd">
<!-- Generated by graphviz version 2.43.0 (0)
 -->
<!-- Title: console_pages.cpp Pages: 1 -->
<svg width="1791pt" height="442pt"
 viewBox="0.00 0.00 1791.14 442.00" xmlns="http://www.w3.org/2000/svg" xmlns:xlink="http://www.w3.org/1999/xlink">
<g id="graph0" class="graph" transform="scale(1 1) rotate(0) translate(4 438)">
<title>console_pages.cpp</title>
<!-- Node1 -->
<g id="node1" class="node">
<title>Node1</title>
<g id="a_node1"><a xlink:title=" ">
<polygon fill="#bfbfbf" stroke="black" points="1510.14,-414.5 1510.14,-433.5 1619.14,-433.5 1619.14,-414.5 1510.14,-414.5"/>
<text text-anchor="middle" x="1564.64" y="-421.5" font-family="Helvetica,sans-Serif" font-size="10.00">console_pages.cpp</text>
</a>
</g>
</g>
<!-- Node2 -->
<g id="node2" class="node">
<title>Node2</title>
<g id="a_node2"><a xlink:href="console__pages_8hpp.html" target="_top" xlink:title=" ">
<polygon fill="none" stroke="black" points="738.64,-353 738.64,-372 848.64,-372 848.64,-353 738.64,-353"/>
<text text-anchor="middle" x="793.64" y="-360" font-family="Helvetica,sans-Serif" font-size="10.00">console_pages.hpp</text>
</a>
</g>
</g>
<!-- Node1&#45;&gt;Node2 -->
<g id="edge1" class="edge">
<title>Node1&#45;&gt;Node2</title>
<path fill="none" stroke="midnightblue" d="M1510.11,-418.79C1371.95,-408.13 1008.49,-380.08 859.14,-368.56"/>
<polygon fill="midnightblue" stroke="midnightblue" points="859,-365.03 848.76,-367.75 858.46,-372.01 859,-365.03"/>
</g>
<!-- Node6 -->
<g id="node6" class="node">
<title>Node6</title>
<g id="a_node6"><a xlink:title=" ">
<polygon fill="none" stroke="#bfbfbf" points="1465.64,-179.5 1465.64,-198.5 1587.64,-198.5 1587.64,-179.5 1465.64,-179.5"/>
<text text-anchor="middle" x="1526.64" y="-186.5" font-family="Helvetica,sans-Serif" font-size="10.00">BoosterSeat/time.hpp</text>
</a>
</g>
</g>
<!-- Node1&#45;&gt;Node6 -->
<g id="edge56" class="edge">
<title>Node1&#45;&gt;Node6</title>
<path fill="none" stroke="midnightblue" d="M1561.5,-414.49C1558.31,-405.53 1553.46,-390.95 1550.64,-378 1537.37,-317.03 1530.59,-243.22 1527.96,-209.06"/>
<polygon fill="midnightblue" stroke="midnightblue" points="1531.43,-208.43 1527.21,-198.71 1524.45,-208.94 1531.43,-208.43"/>
</g>
<!-- Node9 -->
<g id="node9" class="node">
<title>Node9</title>
<g id="a_node9"><a xlink:title=" ">
<polygon fill="none" stroke="#bfbfbf" points="1606.14,-179.5 1606.14,-198.5 1749.14,-198.5 1749.14,-179.5 1606.14,-179.5"/>
<text text-anchor="middle" x="1677.64" y="-186.5" font-family="Helvetica,sans-Serif" font-size="10.00">BoosterSeat/numbers.hpp</text>
</a>
</g>
</g>
<!-- Node1&#45;&gt;Node9 -->
<g id="edge54" class="edge">
<title>Node1&#45;&gt;Node9</title>
<path fill="none" stroke="midnightblue" d="M1566.11,-414.31C1568.72,-399.92 1574.85,-370.41 1584.64,-347 1607.26,-292.91 1645.78,-234.97 1665.39,-207.02"/>
<polygon fill="midnightblue" stroke="midnightblue" points="1668.33,-208.92 1671.26,-198.74 1662.62,-204.87 1668.33,-208.92"/>
</g>
<!-- Node34 -->
<g id="node34" class="node">
<title>Node34</title>
<g id="a_node34"><a xlink:title=" ">
<polygon fill="none" stroke="#bfbfbf" points="1593.14,-347.5 1593.14,-377.5 1700.14,-377.5 1700.14,-347.5 1593.14,-347.5"/>
<text text-anchor="start" x="1601.14" y="-365.5" font-family="Helvetica,sans-Serif" font-size="10.00">BoosterSeat/string</text>
<text text-anchor="middle" x="1646.64" y="-354.5" font-family="Helvetica,sans-Serif" font-size="10.00">_formatting.hpp</text>
</a>
</g>
</g>
<!-- Node1&#45;&gt;Node34 -->
<g id="edge55" class="edge">
<title>Node1&#45;&gt;Node34</title>
<path fill="none" stroke="midnightblue" d="M1576.39,-414.48C1587.49,-406.42 1604.57,-394.02 1619.11,-383.47"/>
<polygon fill="midnightblue" stroke="midnightblue" points="1621.27,-386.23 1627.31,-377.52 1617.16,-380.56 1621.27,-386.23"/>
</g>
<!-- Node35 -->
<g id="node35" class="node">
<title>Node35</title>
<g id="a_node35"><a xlink:title=" ">
<polygon fill="none" stroke="#bfbfbf" points="1718.14,-353 1718.14,-372 1783.14,-372 1783.14,-353 1718.14,-353"/>
<text text-anchor="middle" x="1750.64" y="-360" font-family="Helvetica,sans-Serif" font-size="10.00">functional</text>
</a>
</g>
</g>
<!-- Node1&#45;&gt;Node35 -->
<g id="edge57" class="edge">
<title>Node1&#45;&gt;Node35</title>
<path fill="none" stroke="midnightblue" d="M1593.35,-414.45C1622.68,-405.63 1669.49,-391.32 1709.64,-378 1712.08,-377.19 1714.6,-376.34 1717.14,-375.47"/>
<polygon fill="midnightblue" stroke="midnightblue" points="1718.55,-378.68 1726.84,-372.09 1716.25,-372.07 1718.55,-378.68"/>
</g>
<!-- Node3 -->
<g id="node3" class="node">
<title>Node3</title>
<g id="a_node3"><a xlink:href="configuration_8hpp.html" target="_top" xlink:title=" ">
<polygon fill="none" stroke="black" points="835.14,-291.5 835.14,-310.5 936.14,-310.5 936.14,-291.5 835.14,-291.5"/>
<text text-anchor="middle" x="885.64" y="-298.5" font-family="Helvetica,sans-Serif" font-size="10.00">configuration.hpp</text>
</a>
</g>
</g>
<!-- Node2&#45;&gt;Node3 -->
<g id="edge2" class="edge">
<title>Node2&#45;&gt;Node3</title>
<path fill="none" stroke="midnightblue" d="M806.82,-352.98C821.71,-343.34 846.18,-327.52 863.91,-316.05"/>
<polygon fill="midnightblue" stroke="midnightblue" points="865.98,-318.88 872.48,-310.51 862.18,-313 865.98,-318.88"/>
</g>
<!-- Node4 -->
<g id="node4" class="node">
<title>Node4</title>
<g id="a_node4"><a xlink:href="shared__data_8hpp.html" target="_top" xlink:title="Contains the SharedData struct, used across all modules and extensions.">
<polygon fill="none" stroke="black" points="954.64,-291.5 954.64,-310.5 1052.64,-310.5 1052.64,-291.5 954.64,-291.5"/>
<text text-anchor="middle" x="1003.64" y="-298.5" font-family="Helvetica,sans-Serif" font-size="10.00">shared_data.hpp</text>
</a>
</g>
</g>
<!-- Node2&#45;&gt;Node4 -->
<g id="edge3" class="edge">
<title>Node2&#45;&gt;Node4</title>
<path fill="none" stroke="midnightblue" d="M823.72,-352.98C860.53,-342.55 922.95,-324.86 963.73,-313.31"/>
<polygon fill="midnightblue" stroke="midnightblue" points="964.94,-316.6 973.6,-310.51 963.03,-309.87 964.94,-316.6"/>
</g>
<!-- Node16 -->
<g id="node16" class="node">
<title>Node16</title>
<g id="a_node16"><a xlink:title=" ">
<polygon fill="none" stroke="#bfbfbf" points="263.64,-56.5 263.64,-75.5 307.64,-75.5 307.64,-56.5 263.64,-56.5"/>
<text text-anchor="middle" x="285.64" y="-63.5" font-family="Helvetica,sans-Serif" font-size="10.00">string</text>
</a>
</g>
</g>
<!-- Node2&#45;&gt;Node16 -->
<g id="edge51" class="edge">
<title>Node2&#45;&gt;Node16</title>
<path fill="none" stroke="midnightblue" d="M738.57,-359.28C558.97,-351.32 1.64,-320.6 1.64,-246 1.64,-246 1.64,-246 1.64,-188 1.64,-153.18 -4.91,-135.66 20.64,-112 53.97,-81.13 189.93,-71.18 253.1,-68.19"/>
<polygon fill="midnightblue" stroke="midnightblue" points="253.46,-71.68 263.29,-67.74 253.15,-64.69 253.46,-71.68"/>
</g>
<!-- Node31 -->
<g id="node31" class="node">
<title>Node31</title>
<g id="a_node31"><a xlink:title=" ">
<polygon fill="none" stroke="#bfbfbf" points="646.64,-291.5 646.64,-310.5 688.64,-310.5 688.64,-291.5 646.64,-291.5"/>
<text text-anchor="middle" x="667.64" y="-298.5" font-family="Helvetica,sans-Serif" font-size="10.00">array</text>
</a>
</g>
</g>
<!-- Node2&#45;&gt;Node31 -->
<g id="edge50" class="edge">
<title>Node2&#45;&gt;Node31</title>
<path fill="none" stroke="midnightblue" d="M775.58,-352.98C754.44,-342.99 719.2,-326.35 694.76,-314.81"/>
<polygon fill="midnightblue" stroke="midnightblue" points="696.19,-311.61 685.66,-310.51 693.2,-317.94 696.19,-311.61"/>
</g>
<!-- Node32 -->
<g id="node32" class="node">
<title>Node32</title>
<g id="a_node32"><a xlink:title=" ">
<polygon fill="none" stroke="#bfbfbf" points="707.14,-291.5 707.14,-310.5 752.14,-310.5 752.14,-291.5 707.14,-291.5"/>
<text text-anchor="middle" x="729.64" y="-298.5" font-family="Helvetica,sans-Serif" font-size="10.00">utility</text>
</a>
</g>
</g>
<!-- Node2&#45;&gt;Node32 -->
<g id="edge52" class="edge">
<title>Node2&#45;&gt;Node32</title>
<path fill="none" stroke="midnightblue" d="M784.47,-352.98C774.49,-343.7 758.32,-328.67 746.13,-317.33"/>
<polygon fill="midnightblue" stroke="midnightblue" points="748.5,-314.75 738.79,-310.51 743.73,-319.88 748.5,-314.75"/>
</g>
<!-- Node33 -->
<g id="node33" class="node">
<title>Node33</title>
<g id="a_node33"><a xlink:title=" ">
<polygon fill="none" stroke="#bfbfbf" points="770.14,-291.5 770.14,-310.5 817.14,-310.5 817.14,-291.5 770.14,-291.5"/>
<text text-anchor="middle" x="793.64" y="-298.5" font-family="Helvetica,sans-Serif" font-size="10.00">vector</text>
</a>
</g>
</g>
<!-- Node2&#45;&gt;Node33 -->
<g id="edge53" class="edge">
<title>Node2&#45;&gt;Node33</title>
<path fill="none" stroke="midnightblue" d="M793.64,-352.98C793.64,-344.58 793.64,-331.48 793.64,-320.66"/>
<polygon fill="midnightblue" stroke="midnightblue" points="797.14,-320.51 793.64,-310.51 790.14,-320.51 797.14,-320.51"/>
</g>
<!-- Node5 -->
<g id="node5" class="node">
<title>Node5</title>
<g id="a_node5"><a xlink:title=" ">
<polygon fill="none" stroke="#bfbfbf" points="1171.14,-56.5 1171.14,-75.5 1296.14,-75.5 1296.14,-56.5 1171.14,-56.5"/>
<text text-anchor="middle" x="1233.64" y="-63.5" font-family="Helvetica,sans-Serif" font-size="10.00">BoosterSeat/clock.hpp</text>
</a>
</g>
</g>
<!-- Node4&#45;&gt;Node5 -->
<g id="edge4" class="edge">
<title>Node4&#45;&gt;Node5</title>
<path fill="none" stroke="midnightblue" d="M1052.83,-296.69C1128.02,-290.98 1267.47,-277.68 1311.64,-255 1342.39,-239.21 1344.72,-226.53 1365.64,-199 1390.66,-166.07 1423.74,-144.86 1398.64,-112 1386.67,-96.34 1342.75,-84.82 1303.23,-77.36"/>
<polygon fill="midnightblue" stroke="midnightblue" points="1303.76,-73.9 1293.3,-75.55 1302.51,-80.78 1303.76,-73.9"/>
</g>
<!-- Node4&#45;&gt;Node6 -->
<g id="edge5" class="edge">
<title>Node4&#45;&gt;Node6</title>
<path fill="none" stroke="midnightblue" d="M1052.79,-298.79C1153.75,-295.7 1380.93,-285.49 1451.64,-255 1476.73,-244.18 1499.53,-221.81 1513.23,-206.36"/>
<polygon fill="midnightblue" stroke="midnightblue" points="1516.03,-208.48 1519.87,-198.61 1510.71,-203.93 1516.03,-208.48"/>
</g>
<!-- Node7 -->
<g id="node7" class="node">
<title>Node7</title>
<g id="a_node7"><a xlink:href="blocks_8hpp.html" target="_top" xlink:title=" ">
<polygon fill="none" stroke="black" points="1215.14,-235.5 1215.14,-254.5 1284.14,-254.5 1284.14,-235.5 1215.14,-235.5"/>
<text text-anchor="middle" x="1249.64" y="-242.5" font-family="Helvetica,sans-Serif" font-size="10.00">blocks.hpp</text>
</a>
</g>
</g>
<!-- Node4&#45;&gt;Node7 -->
<g id="edge6" class="edge">
<title>Node4&#45;&gt;Node7</title>
<path fill="none" stroke="midnightblue" d="M1042.62,-291.44C1086.79,-281.75 1158.67,-265.97 1205.04,-255.79"/>
<polygon fill="midnightblue" stroke="midnightblue" points="1205.8,-259.21 1214.82,-253.64 1204.3,-252.37 1205.8,-259.21"/>
</g>
<!-- Node17 -->
<g id="node17" class="node">
<title>Node17</title>
<g id="a_node17"><a xlink:href="error__frame_8hpp.html" target="_top" xlink:title="The error frame.">
<polygon fill="none" stroke="black" points="678.14,-235.5 678.14,-254.5 773.14,-254.5 773.14,-235.5 678.14,-235.5"/>
<text text-anchor="middle" x="725.64" y="-242.5" font-family="Helvetica,sans-Serif" font-size="10.00">error_frame.hpp</text>
</a>
</g>
</g>
<!-- Node4&#45;&gt;Node17 -->
<g id="edge22" class="edge">
<title>Node4&#45;&gt;Node17</title>
<path fill="none" stroke="midnightblue" d="M959.59,-291.44C910.79,-281.96 832.07,-266.67 779.61,-256.48"/>
<polygon fill="midnightblue" stroke="midnightblue" points="779.96,-252.99 769.48,-254.52 778.63,-259.86 779.96,-252.99"/>
</g>
<!-- Node18 -->
<g id="node18" class="node">
<title>Node18</title>
<g id="a_node18"><a xlink:href="frame_8hpp.html" target="_top" xlink:title=" ">
<polygon fill="none" stroke="black" points="230.14,-179.5 230.14,-198.5 297.14,-198.5 297.14,-179.5 230.14,-179.5"/>
<text text-anchor="middle" x="263.64" y="-186.5" font-family="Helvetica,sans-Serif" font-size="10.00">frame.hpp</text>
</a>
</g>
</g>
<!-- Node4&#45;&gt;Node18 -->
<g id="edge45" class="edge">
<title>Node4&#45;&gt;Node18</title>
<path fill="none" stroke="midnightblue" d="M954.6,-292.3C951.57,-291.86 948.56,-291.42 945.64,-291 822.73,-273.48 791.49,-272.84 668.64,-255 536.71,-235.85 381.17,-209.95 307.09,-197.41"/>
<polygon fill="midnightblue" stroke="midnightblue" points="307.63,-193.95 297.19,-195.73 306.46,-200.85 307.63,-193.95"/>
</g>
<!-- Node21 -->
<g id="node21" class="node">
<title>Node21</title>
<g id="a_node21"><a xlink:href="streams_8hpp.html" target="_top" xlink:title="The header file for the data streams.">
<polygon fill="none" stroke="black" points="687.14,-179.5 687.14,-198.5 764.14,-198.5 764.14,-179.5 687.14,-179.5"/>
<text text-anchor="middle" x="725.64" y="-186.5" font-family="Helvetica,sans-Serif" font-size="10.00">streams.hpp</text>
</a>
</g>
</g>
<!-- Node4&#45;&gt;Node21 -->
<g id="edge49" class="edge">
<title>Node4&#45;&gt;Node21</title>
<path fill="none" stroke="midnightblue" d="M981.82,-291.37C932.8,-271.97 813.76,-224.87 756.89,-202.37"/>
<polygon fill="midnightblue" stroke="midnightblue" points="757.94,-199.02 747.35,-198.59 755.36,-205.53 757.94,-199.02"/>
</g>
<!-- Node29 -->
<g id="node29" class="node">
<title>Node29</title>
<g id="a_node29"><a xlink:href="log__container_8hpp.html" target="_top" xlink:title="A simple logging system for debugging.">
<polygon fill="none" stroke="black" points="952.14,-235.5 952.14,-254.5 1055.14,-254.5 1055.14,-235.5 952.14,-235.5"/>
<text text-anchor="middle" x="1003.64" y="-242.5" font-family="Helvetica,sans-Serif" font-size="10.00">log_container.hpp</text>
</a>
</g>
</g>
<!-- Node4&#45;&gt;Node29 -->
<g id="edge46" class="edge">
<title>Node4&#45;&gt;Node29</title>
<path fill="none" stroke="midnightblue" d="M1003.64,-291.08C1003.64,-284.01 1003.64,-273.86 1003.64,-264.99"/>
<polygon fill="midnightblue" stroke="midnightblue" points="1007.14,-264.75 1003.64,-254.75 1000.14,-264.75 1007.14,-264.75"/>
</g>
<!-- Node7&#45;&gt;Node5 -->
<g id="edge8" class="edge">
<title>Node7&#45;&gt;Node5</title>
<path fill="none" stroke="midnightblue" d="M1270.87,-235.42C1316.97,-215.54 1419.13,-164.04 1380.64,-112 1363.39,-88.68 1334.3,-77.05 1306.53,-71.39"/>
<polygon fill="midnightblue" stroke="midnightblue" points="1306.85,-67.89 1296.38,-69.56 1305.61,-74.78 1306.85,-67.89"/>
</g>
<!-- Node7&#45;&gt;Node6 -->
<g id="edge10" class="edge">
<title>Node7&#45;&gt;Node6</title>
<path fill="none" stroke="midnightblue" d="M1284.16,-237.27C1331.53,-228.03 1417.16,-211.34 1472.95,-200.47"/>
<polygon fill="midnightblue" stroke="midnightblue" points="1473.85,-203.86 1483,-198.51 1472.51,-196.99 1473.85,-203.86"/>
</g>
<!-- Node7&#45;&gt;Node7 -->
<g id="edge11" class="edge">
<title>Node7&#45;&gt;Node7</title>
<path fill="none" stroke="midnightblue" d="M1272.03,-254.53C1287.24,-257.31 1302.14,-254.13 1302.14,-245 1302.14,-237.94 1293.23,-234.44 1282.15,-234.5"/>
<polygon fill="midnightblue" stroke="midnightblue" points="1281.65,-231.03 1272.03,-235.47 1282.32,-238 1281.65,-231.03"/>
</g>
<!-- Node8 -->
<g id="node8" class="node">
<title>Node8</title>
<g id="a_node8"><a xlink:title=" ">
<polygon fill="none" stroke="#bfbfbf" points="515.64,-56.5 515.64,-75.5 563.64,-75.5 563.64,-56.5 515.64,-56.5"/>
<text text-anchor="middle" x="539.64" y="-63.5" font-family="Helvetica,sans-Serif" font-size="10.00">mutex</text>
</a>
</g>
</g>
<!-- Node7&#45;&gt;Node8 -->
<g id="edge7" class="edge">
<title>Node7&#45;&gt;Node8</title>
<path fill="none" stroke="midnightblue" d="M1219.35,-235.48C1191.63,-227.31 1149.72,-214.03 1114.64,-199 1038.79,-166.51 1029.5,-136.26 950.64,-112 815.88,-70.55 645.96,-66.22 574.17,-66.44"/>
<polygon fill="midnightblue" stroke="midnightblue" points="573.88,-62.94 563.9,-66.51 573.92,-69.94 573.88,-62.94"/>
</g>
<!-- Node7&#45;&gt;Node9 -->
<g id="edge9" class="edge">
<title>Node7&#45;&gt;Node9</title>
<path fill="none" stroke="midnightblue" d="M1284.3,-239.63C1352.66,-231 1506.32,-211.61 1600.07,-199.79"/>
<polygon fill="midnightblue" stroke="midnightblue" points="1600.59,-203.25 1610.07,-198.52 1599.71,-196.3 1600.59,-203.25"/>
</g>
<!-- Node10 -->
<g id="node10" class="node">
<title>Node10</title>
<g id="a_node10"><a xlink:href="json_8hpp.html" target="_top" xlink:title="Simple wrapper around nlohmann/json.hpp to provide a common interface.">
<polygon fill="none" stroke="black" points="1262.64,-179.5 1262.64,-198.5 1320.64,-198.5 1320.64,-179.5 1262.64,-179.5"/>
<text text-anchor="middle" x="1291.64" y="-186.5" font-family="Helvetica,sans-Serif" font-size="10.00">json.hpp</text>
</a>
</g>
</g>
<!-- Node7&#45;&gt;Node10 -->
<g id="edge12" class="edge">
<title>Node7&#45;&gt;Node10</title>
<path fill="none" stroke="midnightblue" d="M1256.57,-235.08C1262.57,-227.38 1271.39,-216.03 1278.68,-206.65"/>
<polygon fill="midnightblue" stroke="midnightblue" points="1281.45,-208.79 1284.83,-198.75 1275.93,-204.5 1281.45,-208.79"/>
</g>
<!-- Node12 -->
<g id="node12" class="node">
<title>Node12</title>
<g id="a_node12"><a xlink:href="node_8hpp.html" target="_top" xlink:title="Contains structures that are used to identify components of the flight system.">
<polygon fill="none" stroke="black" points="996.64,-56.5 996.64,-75.5 1058.64,-75.5 1058.64,-56.5 996.64,-56.5"/>
<text text-anchor="middle" x="1027.64" y="-63.5" font-family="Helvetica,sans-Serif" font-size="10.00">node.hpp</text>
</a>
</g>
</g>
<!-- Node7&#45;&gt;Node12 -->
<g id="edge14" class="edge">
<title>Node7&#45;&gt;Node12</title>
<path fill="none" stroke="midnightblue" d="M1226.82,-235.48C1190.56,-221.04 1119.16,-188.79 1072.64,-143 1055.62,-126.26 1042.66,-101.77 1035.11,-85.15"/>
<polygon fill="midnightblue" stroke="midnightblue" points="1038.32,-83.74 1031.13,-75.96 1031.89,-86.53 1038.32,-83.74"/>
</g>
<!-- Node15 -->
<g id="node15" class="node">
<title>Node15</title>
<g id="a_node15"><a xlink:href="positional_8hpp.html" target="_top" xlink:title="Positional data for the flight system (gps/imu data)">
<polygon fill="none" stroke="black" points="1081.64,-118 1081.64,-137 1167.64,-137 1167.64,-118 1081.64,-118"/>
<text text-anchor="middle" x="1124.64" y="-125" font-family="Helvetica,sans-Serif" font-size="10.00">positional.hpp</text>
</a>
</g>
</g>
<!-- Node7&#45;&gt;Node15 -->
<g id="edge17" class="edge">
<title>Node7&#45;&gt;Node15</title>
<path fill="none" stroke="midnightblue" d="M1240.24,-235.32C1219.25,-215.92 1168.28,-168.83 1141.59,-144.16"/>
<polygon fill="midnightblue" stroke="midnightblue" points="1143.86,-141.5 1134.14,-137.28 1139.11,-146.64 1143.86,-141.5"/>
</g>
<!-- Node11 -->
<g id="node11" class="node">
<title>Node11</title>
<g id="a_node11"><a xlink:title=" ">
<polygon fill="none" stroke="#bfbfbf" points="1261.64,-118 1261.64,-137 1371.64,-137 1371.64,-118 1261.64,-118"/>
<text text-anchor="middle" x="1316.64" y="-125" font-family="Helvetica,sans-Serif" font-size="10.00">nlohmann/json.hpp</text>
</a>
</g>
</g>
<!-- Node10&#45;&gt;Node11 -->
<g id="edge13" class="edge">
<title>Node10&#45;&gt;Node11</title>
<path fill="none" stroke="midnightblue" d="M1295.22,-179.48C1298.82,-170.9 1304.48,-157.43 1309.08,-146.48"/>
<polygon fill="midnightblue" stroke="midnightblue" points="1312.41,-147.58 1313.06,-137.01 1305.96,-144.87 1312.41,-147.58"/>
</g>
<!-- Node13 -->
<g id="node13" class="node">
<title>Node13</title>
<g id="a_node13"><a xlink:title=" ">
<polygon fill="none" stroke="#bfbfbf" points="1019.64,-0.5 1019.64,-19.5 1069.64,-19.5 1069.64,-0.5 1019.64,-0.5"/>
<text text-anchor="middle" x="1044.64" y="-7.5" font-family="Helvetica,sans-Serif" font-size="10.00">cstdint</text>
</a>
</g>
</g>
<!-- Node12&#45;&gt;Node13 -->
<g id="edge15" class="edge">
<title>Node12&#45;&gt;Node13</title>
<path fill="none" stroke="midnightblue" d="M1030.44,-56.08C1032.72,-48.85 1036.01,-38.41 1038.84,-29.4"/>
<polygon fill="midnightblue" stroke="midnightblue" points="1042.22,-30.34 1041.88,-19.75 1035.54,-28.24 1042.22,-30.34"/>
</g>
<!-- Node14 -->
<g id="node14" class="node">
<title>Node14</title>
<g id="a_node14"><a xlink:title=" ">
<polygon fill="none" stroke="#bfbfbf" points="1096.64,-0.5 1096.64,-19.5 1134.64,-19.5 1134.64,-0.5 1096.64,-0.5"/>
<text text-anchor="middle" x="1115.64" y="-7.5" font-family="Helvetica,sans-Serif" font-size="10.00">map</text>
</a>
</g>
</g>
<!-- Node12&#45;&gt;Node14 -->
<g id="edge16" class="edge">
<title>Node12&#45;&gt;Node14</title>
<path fill="none" stroke="midnightblue" d="M1041.78,-56.32C1055.5,-47.9 1076.57,-34.97 1092.7,-25.07"/>
<polygon fill="midnightblue" stroke="midnightblue" points="1094.84,-27.87 1101.53,-19.65 1091.18,-21.9 1094.84,-27.87"/>
</g>
<!-- Node15&#45;&gt;Node5 -->
<g id="edge21" class="edge">
<title>Node15&#45;&gt;Node5</title>
<path fill="none" stroke="midnightblue" d="M1140.25,-117.98C1158.22,-108.17 1187.96,-91.93 1209.04,-80.42"/>
<polygon fill="midnightblue" stroke="midnightblue" points="1210.95,-83.37 1218.05,-75.51 1207.59,-77.23 1210.95,-83.37"/>
</g>
<!-- Node15&#45;&gt;Node13 -->
<g id="edge18" class="edge">
<title>Node15&#45;&gt;Node13</title>
<path fill="none" stroke="midnightblue" d="M1118.62,-117.82C1105.48,-98.84 1073.97,-53.35 1056.61,-28.29"/>
<polygon fill="midnightblue" stroke="midnightblue" points="1059.29,-26.01 1050.72,-19.78 1053.54,-30 1059.29,-26.01"/>
</g>
<!-- Node15&#45;&gt;Node14 -->
<g id="edge19" class="edge">
<title>Node15&#45;&gt;Node14</title>
<path fill="none" stroke="midnightblue" d="M1123.96,-117.82C1122.51,-99.26 1119.09,-55.34 1117.12,-29.97"/>
<polygon fill="midnightblue" stroke="midnightblue" points="1120.59,-29.48 1116.32,-19.78 1113.61,-30.02 1120.59,-29.48"/>
</g>
<!-- Node15&#45;&gt;Node16 -->
<g id="edge20" class="edge">
<title>Node15&#45;&gt;Node16</title>
<path fill="none" stroke="midnightblue" d="M1081.27,-123.27C1039.98,-120.24 976.09,-115.62 920.64,-112 655.56,-94.68 583.39,-121.11 317.78,-75.8"/>
<polygon fill="midnightblue" stroke="midnightblue" points="318.3,-72.34 307.85,-74.09 317.11,-79.24 318.3,-72.34"/>
</g>
<!-- Node17&#45;&gt;Node5 -->
<g id="edge23" class="edge">
<title>Node17&#45;&gt;Node5</title>
<path fill="none" stroke="midnightblue" d="M758.56,-235.42C809.57,-222.29 910.85,-196.86 997.64,-179 1089.53,-160.09 1133.55,-203.05 1205.64,-143 1222.65,-128.82 1229.33,-103.32 1231.95,-85.8"/>
<polygon fill="midnightblue" stroke="midnightblue" points="1235.45,-85.98 1233.15,-75.63 1228.5,-85.15 1235.45,-85.98"/>
</g>
<!-- Node17&#45;&gt;Node18 -->
<g id="edge24" class="edge">
<title>Node17&#45;&gt;Node18</title>
<path fill="none" stroke="midnightblue" d="M677.93,-238.42C587.88,-227.9 394.09,-205.25 307.27,-195.1"/>
<polygon fill="midnightblue" stroke="midnightblue" points="307.56,-191.61 297.22,-193.93 306.75,-198.56 307.56,-191.61"/>
</g>
<!-- Node20 -->
<g id="node20" class="node">
<title>Node20</title>
<g id="a_node20"><a xlink:href="giraffe__diagnostic__ids_8hpp.html" target="_top" xlink:title=" ">
<polygon fill="none" stroke="black" points="179.64,-112.5 179.64,-142.5 283.64,-142.5 283.64,-112.5 179.64,-112.5"/>
<text text-anchor="start" x="187.64" y="-130.5" font-family="Helvetica,sans-Serif" font-size="10.00">giraffe_diagnostic</text>
<text text-anchor="middle" x="231.64" y="-119.5" font-family="Helvetica,sans-Serif" font-size="10.00">_ids.hpp</text>
</a>
</g>
</g>
<!-- Node17&#45;&gt;Node20 -->
<g id="edge27" class="edge">
<title>Node17&#45;&gt;Node20</title>
<path fill="none" stroke="midnightblue" d="M688.91,-235.41C604.86,-215.76 397.77,-167.34 293.6,-142.99"/>
<polygon fill="midnightblue" stroke="midnightblue" points="294.38,-139.57 283.84,-140.71 292.78,-146.39 294.38,-139.57"/>
</g>
<!-- Node17&#45;&gt;Node21 -->
<g id="edge28" class="edge">
<title>Node17&#45;&gt;Node21</title>
<path fill="none" stroke="midnightblue" d="M725.64,-235.08C725.64,-228.01 725.64,-217.86 725.64,-208.99"/>
<polygon fill="midnightblue" stroke="midnightblue" points="729.14,-208.75 725.64,-198.75 722.14,-208.75 729.14,-208.75"/>
</g>
<!-- Node18&#45;&gt;Node8 -->
<g id="edge25" class="edge">
<title>Node18&#45;&gt;Node8</title>
<path fill="none" stroke="midnightblue" d="M230.03,-181.23C209.03,-175.08 183.6,-163.67 170.64,-143 163.32,-131.33 161.43,-122.25 170.64,-112 218.92,-58.27 416.93,-87.48 505.59,-75.64"/>
<polygon fill="midnightblue" stroke="midnightblue" points="506.27,-79.08 515.59,-74.03 505.16,-72.17 506.27,-79.08"/>
</g>
<!-- Node19 -->
<g id="node19" class="node">
<title>Node19</title>
<g id="a_node19"><a xlink:title=" ">
<polygon fill="none" stroke="#bfbfbf" points="30.14,-118 30.14,-137 123.14,-137 123.14,-118 30.14,-118"/>
<text text-anchor="middle" x="76.64" y="-125" font-family="Helvetica,sans-Serif" font-size="10.00">unordered_map</text>
</a>
</g>
</g>
<!-- Node18&#45;&gt;Node19 -->
<g id="edge26" class="edge">
<title>Node18&#45;&gt;Node19</title>
<path fill="none" stroke="midnightblue" d="M236.84,-179.48C204.35,-169.14 149.43,-151.66 113.1,-140.1"/>
<polygon fill="midnightblue" stroke="midnightblue" points="113.97,-136.71 103.38,-137.01 111.85,-143.38 113.97,-136.71"/>
</g>
<!-- Node21&#45;&gt;Node5 -->
<g id="edge34" class="edge">
<title>Node21&#45;&gt;Node5</title>
<path fill="none" stroke="midnightblue" d="M764.24,-185.93C866.86,-180.16 1141.08,-163.05 1176.64,-143 1199.8,-129.94 1216.4,-103.18 1225.51,-85.16"/>
<polygon fill="midnightblue" stroke="midnightblue" points="1228.75,-86.49 1229.9,-75.96 1222.44,-83.48 1228.75,-86.49"/>
</g>
<!-- Node21&#45;&gt;Node8 -->
<g id="edge31" class="edge">
<title>Node21&#45;&gt;Node8</title>
<path fill="none" stroke="midnightblue" d="M686.69,-185.57C630.86,-181.19 532.4,-169.79 510.64,-143 496.38,-125.45 511.3,-100.13 524.47,-83.62"/>
<polygon fill="midnightblue" stroke="midnightblue" points="527.24,-85.77 531.04,-75.88 521.9,-81.24 527.24,-85.77"/>
</g>
<!-- Node21&#45;&gt;Node12 -->
<g id="edge43" class="edge">
<title>Node21&#45;&gt;Node12</title>
<path fill="none" stroke="midnightblue" d="M764.44,-183.58C804.84,-177.96 869.29,-166.06 920.64,-143 955.55,-127.31 990.72,-99.49 1010.78,-82.21"/>
<polygon fill="midnightblue" stroke="midnightblue" points="1013.19,-84.74 1018.4,-75.51 1008.58,-79.48 1013.19,-84.74"/>
</g>
<!-- Node21&#45;&gt;Node15 -->
<g id="edge44" class="edge">
<title>Node21&#45;&gt;Node15</title>
<path fill="none" stroke="midnightblue" d="M764.26,-182.24C836,-171.54 989.92,-148.59 1071.44,-136.43"/>
<polygon fill="midnightblue" stroke="midnightblue" points="1072.12,-139.87 1081.49,-134.93 1071.08,-132.95 1072.12,-139.87"/>
</g>
<!-- Node21&#45;&gt;Node16 -->
<g id="edge33" class="edge">
<title>Node21&#45;&gt;Node16</title>
<path fill="none" stroke="midnightblue" d="M686.96,-185.02C596.78,-177.83 377.94,-158.96 348.64,-143 324.25,-129.72 305.5,-102.81 295.02,-84.84"/>
<polygon fill="midnightblue" stroke="midnightblue" points="297.98,-82.96 290.06,-75.92 291.86,-86.37 297.98,-82.96"/>
</g>
<!-- Node21&#45;&gt;Node20 -->
<g id="edge42" class="edge">
<title>Node21&#45;&gt;Node20</title>
<path fill="none" stroke="midnightblue" d="M687.08,-185.39C611.85,-179.99 440.35,-166.11 297.64,-143 296.37,-142.79 295.08,-142.58 293.79,-142.36"/>
<polygon fill="midnightblue" stroke="midnightblue" points="294.24,-138.88 283.77,-140.52 292.98,-145.77 294.24,-138.88"/>
</g>
<!-- Node22 -->
<g id="node22" class="node">
<title>Node22</title>
<g id="a_node22"><a xlink:title=" ">
<polygon fill="none" stroke="#bfbfbf" points="783.64,-118 783.64,-137 833.64,-137 833.64,-118 783.64,-118"/>
<text text-anchor="middle" x="808.64" y="-125" font-family="Helvetica,sans-Serif" font-size="10.00">atomic</text>
</a>
</g>
</g>
<!-- Node21&#45;&gt;Node22 -->
<g id="edge29" class="edge">
<title>Node21&#45;&gt;Node22</title>
<path fill="none" stroke="midnightblue" d="M737.53,-179.48C750.84,-169.93 772.64,-154.31 788.59,-142.87"/>
<polygon fill="midnightblue" stroke="midnightblue" points="790.68,-145.68 796.77,-137.01 786.6,-139.99 790.68,-145.68"/>
</g>
<!-- Node23 -->
<g id="node23" class="node">
<title>Node23</title>
<g id="a_node23"><a xlink:title=" ">
<polygon fill="none" stroke="#bfbfbf" points="851.64,-118 851.64,-137 911.64,-137 911.64,-118 851.64,-118"/>
<text text-anchor="middle" x="881.64" y="-125" font-family="Helvetica,sans-Serif" font-size="10.00">iostream</text>
</a>
</g>
</g>
<!-- Node21&#45;&gt;Node23 -->
<g id="edge30" class="edge">
<title>Node21&#45;&gt;Node23</title>
<path fill="none" stroke="midnightblue" d="M747.99,-179.48C774.63,-169.31 819.35,-152.26 849.65,-140.7"/>
<polygon fill="midnightblue" stroke="midnightblue" points="851.23,-143.84 859.33,-137.01 848.74,-137.3 851.23,-143.84"/>
</g>
<!-- Node24 -->
<g id="node24" class="node">
<title>Node24</title>
<g id="a_node24"><a xlink:title=" ">
<polygon fill="none" stroke="#bfbfbf" points="326.14,-56.5 326.14,-75.5 373.14,-75.5 373.14,-56.5 326.14,-56.5"/>
<text text-anchor="middle" x="349.64" y="-63.5" font-family="Helvetica,sans-Serif" font-size="10.00">queue</text>
</a>
</g>
</g>
<!-- Node21&#45;&gt;Node24 -->
<g id="edge32" class="edge">
<title>Node21&#45;&gt;Node24</title>
<path fill="none" stroke="midnightblue" d="M686.86,-185.57C599.32,-179.73 392.15,-163.86 368.64,-143 352.61,-128.79 349.11,-103.29 348.79,-85.78"/>
<polygon fill="midnightblue" stroke="midnightblue" points="352.3,-85.68 348.94,-75.63 345.3,-85.57 352.3,-85.68"/>
</g>
<!-- Node25 -->
<g id="node25" class="node">
<title>Node25</title>
<g id="a_node25"><a xlink:title=" ">
<polygon fill="none" stroke="#bfbfbf" points="519.64,-118 519.64,-137 667.64,-137 667.64,-118 519.64,-118"/>
<text text-anchor="middle" x="593.64" y="-125" font-family="Helvetica,sans-Serif" font-size="10.00">BoosterSeat/exception.hpp</text>
</a>
</g>
</g>
<!-- Node21&#45;&gt;Node25 -->
<g id="edge35" class="edge">
<title>Node21&#45;&gt;Node25</title>
<path fill="none" stroke="midnightblue" d="M706.72,-179.48C684.47,-169.45 647.32,-152.7 621.71,-141.15"/>
<polygon fill="midnightblue" stroke="midnightblue" points="623.07,-137.93 612.51,-137.01 620.19,-144.31 623.07,-137.93"/>
</g>
<!-- Node26 -->
<g id="node26" class="node">
<title>Node26</title>
<g id="a_node26"><a xlink:href="command_8hpp.html" target="_top" xlink:title="The command/queue system for the flight system.">
<polygon fill="none" stroke="black" points="377.64,-118 377.64,-137 463.64,-137 463.64,-118 377.64,-118"/>
<text text-anchor="middle" x="420.64" y="-125" font-family="Helvetica,sans-Serif" font-size="10.00">command.hpp</text>
</a>
</g>
</g>
<!-- Node21&#45;&gt;Node26 -->
<g id="edge36" class="edge">
<title>Node21&#45;&gt;Node26</title>
<path fill="none" stroke="midnightblue" d="M686.81,-181.81C637.85,-173.82 551.18,-159.01 477.64,-143 472.65,-141.91 467.44,-140.7 462.28,-139.45"/>
<polygon fill="midnightblue" stroke="midnightblue" points="463.05,-136.03 452.5,-137.02 461.36,-142.83 463.05,-136.03"/>
</g>
<!-- Node28 -->
<g id="node28" class="node">
<title>Node28</title>
<g id="a_node28"><a xlink:href="data__ids_8hpp.html" target="_top" xlink:title=" ">
<polygon fill="none" stroke="black" points="686.14,-118 686.14,-137 765.14,-137 765.14,-118 686.14,-118"/>
<text text-anchor="middle" x="725.64" y="-125" font-family="Helvetica,sans-Serif" font-size="10.00">data_ids.hpp</text>
</a>
</g>
</g>
<!-- Node21&#45;&gt;Node28 -->
<g id="edge41" class="edge">
<title>Node21&#45;&gt;Node28</title>
<path fill="none" stroke="midnightblue" d="M725.64,-179.48C725.64,-171.08 725.64,-157.98 725.64,-147.16"/>
<polygon fill="midnightblue" stroke="midnightblue" points="729.14,-147.01 725.64,-137.01 722.14,-147.01 729.14,-147.01"/>
</g>
<!-- Node26&#45;&gt;Node8 -->
<g id="edge37" class="edge">
<title>Node26&#45;&gt;Node8</title>
<path fill="none" stroke="midnightblue" d="M437.69,-117.98C457.48,-108.08 490.35,-91.64 513.41,-80.12"/>
<polygon fill="midnightblue" stroke="midnightblue" points="515.24,-83.11 522.62,-75.51 512.11,-76.85 515.24,-83.11"/>
</g>
<!-- Node26&#45;&gt;Node12 -->
<g id="edge40" class="edge">
<title>Node26&#45;&gt;Node12</title>
<path fill="none" stroke="midnightblue" d="M464.03,-118.85C478.79,-116.43 495.4,-113.89 510.64,-112 686.99,-90.15 898.48,-75.26 986.29,-69.57"/>
<polygon fill="midnightblue" stroke="midnightblue" points="986.62,-73.06 996.38,-68.92 986.17,-66.07 986.62,-73.06"/>
</g>
<!-- Node26&#45;&gt;Node24 -->
<g id="edge38" class="edge">
<title>Node26&#45;&gt;Node24</title>
<path fill="none" stroke="midnightblue" d="M410.46,-117.98C399.29,-108.61 381.12,-93.38 367.55,-82.01"/>
<polygon fill="midnightblue" stroke="midnightblue" points="369.7,-79.25 359.79,-75.51 365.21,-84.61 369.7,-79.25"/>
</g>
<!-- Node27 -->
<g id="node27" class="node">
<title>Node27</title>
<g id="a_node27"><a xlink:href="command__ids_8hpp.html" target="_top" xlink:title=" ">
<polygon fill="none" stroke="black" points="391.64,-56.5 391.64,-75.5 497.64,-75.5 497.64,-56.5 391.64,-56.5"/>
<text text-anchor="middle" x="444.64" y="-63.5" font-family="Helvetica,sans-Serif" font-size="10.00">command_ids.hpp</text>
</a>
</g>
</g>
<!-- Node26&#45;&gt;Node27 -->
<g id="edge39" class="edge">
<title>Node26&#45;&gt;Node27</title>
<path fill="none" stroke="midnightblue" d="M424.08,-117.98C427.53,-109.4 432.97,-95.93 437.38,-84.98"/>
<polygon fill="midnightblue" stroke="midnightblue" points="440.71,-86.09 441.2,-75.51 434.22,-83.47 440.71,-86.09"/>
</g>
<!-- Node29&#45;&gt;Node8 -->
<g id="edge48" class="edge">
<title>Node29&#45;&gt;Node8</title>
<path fill="none" stroke="midnightblue" d="M1001.11,-235.34C993.52,-211.08 968.47,-142.22 920.64,-112 863.32,-75.79 656.23,-68.71 573.81,-67.33"/>
<polygon fill="midnightblue" stroke="midnightblue" points="573.77,-63.83 563.72,-67.18 573.66,-70.83 573.77,-63.83"/>
</g>
<!-- Node30 -->
<g id="node30" class="node">
<title>Node30</title>
<g id="a_node30"><a xlink:title=" ">
<polygon fill="none" stroke="#bfbfbf" points="1006.14,-179.5 1006.14,-198.5 1053.14,-198.5 1053.14,-179.5 1006.14,-179.5"/>
<text text-anchor="middle" x="1029.64" y="-186.5" font-family="Helvetica,sans-Serif" font-size="10.00">deque</text>
</a>
</g>
</g>
<!-- Node29&#45;&gt;Node30 -->
<g id="edge47" class="edge">
<title>Node29&#45;&gt;Node30</title>
<path fill="none" stroke="midnightblue" d="M1007.93,-235.08C1011.49,-227.69 1016.66,-216.95 1021.06,-207.81"/>
<polygon fill="midnightblue" stroke="midnightblue" points="1024.24,-209.28 1025.42,-198.75 1017.93,-206.24 1024.24,-209.28"/>
</g>
</g>
</svg>
