<?xml version="1.0" encoding="UTF-8" standalone="no"?>
<!DOCTYPE svg PUBLIC "-//W3C//DTD SVG 1.1//EN"
 "http://www.w3.org/Graphics/SVG/1.1/DTD/svg11.dtd">
<!-- Generated by graphviz version 2.43.0 (0)
 -->
<!-- Title: console_pages.cpp Pages: 1 -->
<svg width="1998pt" height="442pt"
 viewBox="0.00 0.00 1998.00 442.00" xmlns="http://www.w3.org/2000/svg" xmlns:xlink="http://www.w3.org/1999/xlink">
<g id="graph0" class="graph" transform="scale(1 1) rotate(0) translate(4 438)">
<title>console_pages.cpp</title>
<!-- Node1 -->
<g id="node1" class="node">
<title>Node1</title>
<g id="a_node1"><a xlink:title=" ">
<polygon fill="#bfbfbf" stroke="black" points="1717,-414.5 1717,-433.5 1826,-433.5 1826,-414.5 1717,-414.5"/>
<text text-anchor="middle" x="1771.5" y="-421.5" font-family="Helvetica,sans-Serif" font-size="10.00">console_pages.cpp</text>
</a>
</g>
</g>
<!-- Node2 -->
<g id="node2" class="node">
<title>Node2</title>
<g id="a_node2"><a xlink:href="console__pages_8hpp.html" target="_top" xlink:title=" ">
<polygon fill="none" stroke="black" points="1469.5,-353 1469.5,-372 1579.5,-372 1579.5,-353 1469.5,-353"/>
<text text-anchor="middle" x="1524.5" y="-360" font-family="Helvetica,sans-Serif" font-size="10.00">console_pages.hpp</text>
</a>
</g>
</g>
<!-- Node1&#45;&gt;Node2 -->
<g id="edge1" class="edge">
<title>Node1&#45;&gt;Node2</title>
<path fill="none" stroke="midnightblue" d="M1736.11,-414.48C1692.27,-403.92 1617.53,-385.91 1569.62,-374.37"/>
<polygon fill="midnightblue" stroke="midnightblue" points="1570.37,-370.95 1559.82,-372.01 1568.73,-377.75 1570.37,-370.95"/>
</g>
<!-- Node6 -->
<g id="node6" class="node">
<title>Node6</title>
<g id="a_node6"><a xlink:title=" ">
<polygon fill="none" stroke="#bfbfbf" points="1383.5,-118 1383.5,-137 1505.5,-137 1505.5,-118 1383.5,-118"/>
<text text-anchor="middle" x="1444.5" y="-125" font-family="Helvetica,sans-Serif" font-size="10.00">BoosterSeat/time.hpp</text>
</a>
</g>
</g>
<!-- Node1&#45;&gt;Node6 -->
<g id="edge57" class="edge">
<title>Node1&#45;&gt;Node6</title>
<path fill="none" stroke="midnightblue" d="M1766.84,-414.48C1756.69,-395.12 1733.5,-346.04 1733.5,-302 1733.5,-302 1733.5,-302 1733.5,-244 1733.5,-217.41 1562.65,-163.43 1483.68,-139.9"/>
<polygon fill="midnightblue" stroke="midnightblue" points="1484.65,-136.54 1474.07,-137.05 1482.66,-143.25 1484.65,-136.54"/>
</g>
<!-- Node9 -->
<g id="node9" class="node">
<title>Node9</title>
<g id="a_node9"><a xlink:title=" ">
<polygon fill="none" stroke="#bfbfbf" points="1524,-118 1524,-137 1667,-137 1667,-118 1524,-118"/>
<text text-anchor="middle" x="1595.5" y="-125" font-family="Helvetica,sans-Serif" font-size="10.00">BoosterSeat/numbers.hpp</text>
</a>
</g>
</g>
<!-- Node1&#45;&gt;Node9 -->
<g id="edge55" class="edge">
<title>Node1&#45;&gt;Node9</title>
<path fill="none" stroke="midnightblue" d="M1771.5,-414.49C1771.5,-394.74 1771.5,-344.22 1771.5,-302 1771.5,-302 1771.5,-302 1771.5,-244 1771.5,-213.2 1769.63,-200.41 1747.5,-179 1726.77,-158.94 1697.87,-146.84 1670.83,-139.55"/>
<polygon fill="midnightblue" stroke="midnightblue" points="1671.53,-136.12 1660.98,-137.08 1669.82,-142.91 1671.53,-136.12"/>
</g>
<!-- Node34 -->
<g id="node34" class="node">
<title>Node34</title>
<g id="a_node34"><a xlink:title=" ">
<polygon fill="none" stroke="#bfbfbf" points="1800,-347.5 1800,-377.5 1907,-377.5 1907,-347.5 1800,-347.5"/>
<text text-anchor="start" x="1808" y="-365.5" font-family="Helvetica,sans-Serif" font-size="10.00">BoosterSeat/string</text>
<text text-anchor="middle" x="1853.5" y="-354.5" font-family="Helvetica,sans-Serif" font-size="10.00">_formatting.hpp</text>
</a>
</g>
</g>
<!-- Node1&#45;&gt;Node34 -->
<g id="edge56" class="edge">
<title>Node1&#45;&gt;Node34</title>
<path fill="none" stroke="midnightblue" d="M1783.25,-414.48C1794.35,-406.42 1811.43,-394.02 1825.97,-383.47"/>
<polygon fill="midnightblue" stroke="midnightblue" points="1828.14,-386.23 1834.17,-377.52 1824.02,-380.56 1828.14,-386.23"/>
</g>
<!-- Node35 -->
<g id="node35" class="node">
<title>Node35</title>
<g id="a_node35"><a xlink:title=" ">
<polygon fill="none" stroke="#bfbfbf" points="1925,-353 1925,-372 1990,-372 1990,-353 1925,-353"/>
<text text-anchor="middle" x="1957.5" y="-360" font-family="Helvetica,sans-Serif" font-size="10.00">functional</text>
</a>
</g>
</g>
<!-- Node1&#45;&gt;Node35 -->
<g id="edge58" class="edge">
<title>Node1&#45;&gt;Node35</title>
<path fill="none" stroke="midnightblue" d="M1800.22,-414.45C1829.55,-405.63 1876.35,-391.32 1916.5,-378 1918.95,-377.19 1921.47,-376.34 1924,-375.47"/>
<polygon fill="midnightblue" stroke="midnightblue" points="1925.41,-378.68 1933.71,-372.09 1923.11,-372.07 1925.41,-378.68"/>
</g>
<!-- Node3 -->
<g id="node3" class="node">
<title>Node3</title>
<g id="a_node3"><a xlink:href="configuration_8hpp.html" target="_top" xlink:title=" ">
<polygon fill="none" stroke="black" points="1566,-291.5 1566,-310.5 1667,-310.5 1667,-291.5 1566,-291.5"/>
<text text-anchor="middle" x="1616.5" y="-298.5" font-family="Helvetica,sans-Serif" font-size="10.00">configuration.hpp</text>
</a>
</g>
</g>
<!-- Node2&#45;&gt;Node3 -->
<g id="edge2" class="edge">
<title>Node2&#45;&gt;Node3</title>
<path fill="none" stroke="midnightblue" d="M1537.68,-352.98C1552.57,-343.34 1577.04,-327.52 1594.77,-316.05"/>
<polygon fill="midnightblue" stroke="midnightblue" points="1596.85,-318.88 1603.34,-310.51 1593.05,-313 1596.85,-318.88"/>
</g>
<!-- Node4 -->
<g id="node4" class="node">
<title>Node4</title>
<g id="a_node4"><a xlink:href="shared__data_8hpp.html" target="_top" xlink:title="Contains the SharedData struct, used across all modules and extensions.">
<polygon fill="none" stroke="black" points="1010.5,-291.5 1010.5,-310.5 1108.5,-310.5 1108.5,-291.5 1010.5,-291.5"/>
<text text-anchor="middle" x="1059.5" y="-298.5" font-family="Helvetica,sans-Serif" font-size="10.00">shared_data.hpp</text>
</a>
</g>
</g>
<!-- Node2&#45;&gt;Node4 -->
<g id="edge3" class="edge">
<title>Node2&#45;&gt;Node4</title>
<path fill="none" stroke="midnightblue" d="M1469.33,-354.44C1381.19,-343.16 1209.34,-321.17 1118.71,-309.58"/>
<polygon fill="midnightblue" stroke="midnightblue" points="1118.97,-306.08 1108.6,-308.28 1118.08,-313.02 1118.97,-306.08"/>
</g>
<!-- Node12 -->
<g id="node12" class="node">
<title>Node12</title>
<g id="a_node12"><a xlink:title=" ">
<polygon fill="none" stroke="#bfbfbf" points="1257.5,-56.5 1257.5,-75.5 1301.5,-75.5 1301.5,-56.5 1257.5,-56.5"/>
<text text-anchor="middle" x="1279.5" y="-63.5" font-family="Helvetica,sans-Serif" font-size="10.00">string</text>
</a>
</g>
</g>
<!-- Node2&#45;&gt;Node12 -->
<g id="edge52" class="edge">
<title>Node2&#45;&gt;Node12</title>
<path fill="none" stroke="midnightblue" d="M1579.74,-355.89C1612.01,-349.83 1651.21,-337.22 1676.5,-311 1697.39,-289.33 1695.5,-276.1 1695.5,-246 1695.5,-246 1695.5,-246 1695.5,-188 1695.5,-153.18 1702.86,-134.75 1676.5,-112 1616.8,-60.49 1406.29,-89.26 1311.61,-75.65"/>
<polygon fill="midnightblue" stroke="midnightblue" points="1312.17,-72.2 1301.73,-73.99 1311.01,-79.1 1312.17,-72.2"/>
</g>
<!-- Node31 -->
<g id="node31" class="node">
<title>Node31</title>
<g id="a_node31"><a xlink:title=" ">
<polygon fill="none" stroke="#bfbfbf" points="1377.5,-291.5 1377.5,-310.5 1419.5,-310.5 1419.5,-291.5 1377.5,-291.5"/>
<text text-anchor="middle" x="1398.5" y="-298.5" font-family="Helvetica,sans-Serif" font-size="10.00">array</text>
</a>
</g>
</g>
<!-- Node2&#45;&gt;Node31 -->
<g id="edge51" class="edge">
<title>Node2&#45;&gt;Node31</title>
<path fill="none" stroke="midnightblue" d="M1506.45,-352.98C1485.3,-342.99 1450.06,-326.35 1425.62,-314.81"/>
<polygon fill="midnightblue" stroke="midnightblue" points="1427.06,-311.61 1416.52,-310.51 1424.07,-317.94 1427.06,-311.61"/>
</g>
<!-- Node32 -->
<g id="node32" class="node">
<title>Node32</title>
<g id="a_node32"><a xlink:title=" ">
<polygon fill="none" stroke="#bfbfbf" points="1438,-291.5 1438,-310.5 1483,-310.5 1483,-291.5 1438,-291.5"/>
<text text-anchor="middle" x="1460.5" y="-298.5" font-family="Helvetica,sans-Serif" font-size="10.00">utility</text>
</a>
</g>
</g>
<!-- Node2&#45;&gt;Node32 -->
<g id="edge53" class="edge">
<title>Node2&#45;&gt;Node32</title>
<path fill="none" stroke="midnightblue" d="M1515.33,-352.98C1505.35,-343.7 1489.19,-328.67 1476.99,-317.33"/>
<polygon fill="midnightblue" stroke="midnightblue" points="1479.36,-314.75 1469.65,-310.51 1474.59,-319.88 1479.36,-314.75"/>
</g>
<!-- Node33 -->
<g id="node33" class="node">
<title>Node33</title>
<g id="a_node33"><a xlink:title=" ">
<polygon fill="none" stroke="#bfbfbf" points="1501,-291.5 1501,-310.5 1548,-310.5 1548,-291.5 1501,-291.5"/>
<text text-anchor="middle" x="1524.5" y="-298.5" font-family="Helvetica,sans-Serif" font-size="10.00">vector</text>
</a>
</g>
</g>
<!-- Node2&#45;&gt;Node33 -->
<g id="edge54" class="edge">
<title>Node2&#45;&gt;Node33</title>
<path fill="none" stroke="midnightblue" d="M1524.5,-352.98C1524.5,-344.58 1524.5,-331.48 1524.5,-320.66"/>
<polygon fill="midnightblue" stroke="midnightblue" points="1528,-320.51 1524.5,-310.51 1521,-320.51 1528,-320.51"/>
</g>
<!-- Node5 -->
<g id="node5" class="node">
<title>Node5</title>
<g id="a_node5"><a xlink:title=" ">
<polygon fill="none" stroke="#bfbfbf" points="1027,-56.5 1027,-75.5 1152,-75.5 1152,-56.5 1027,-56.5"/>
<text text-anchor="middle" x="1089.5" y="-63.5" font-family="Helvetica,sans-Serif" font-size="10.00">BoosterSeat/clock.hpp</text>
</a>
</g>
</g>
<!-- Node4&#45;&gt;Node5 -->
<g id="edge4" class="edge">
<title>Node4&#45;&gt;Node5</title>
<path fill="none" stroke="midnightblue" d="M1064.75,-291.41C1069.82,-282.62 1077.19,-268.39 1080.5,-255 1095.43,-194.58 1093.13,-120 1090.97,-85.77"/>
<polygon fill="midnightblue" stroke="midnightblue" points="1094.46,-85.52 1090.27,-75.79 1087.48,-86.01 1094.46,-85.52"/>
</g>
<!-- Node4&#45;&gt;Node6 -->
<g id="edge5" class="edge">
<title>Node4&#45;&gt;Node6</title>
<path fill="none" stroke="midnightblue" d="M1078.59,-291.5C1141.32,-263.55 1341.33,-174.46 1416.02,-141.19"/>
<polygon fill="midnightblue" stroke="midnightblue" points="1417.58,-144.32 1425.29,-137.06 1414.73,-137.93 1417.58,-144.32"/>
</g>
<!-- Node7 -->
<g id="node7" class="node">
<title>Node7</title>
<g id="a_node7"><a xlink:href="blocks_8hpp.html" target="_top" xlink:title=" ">
<polygon fill="none" stroke="black" points="1156,-179.5 1156,-198.5 1225,-198.5 1225,-179.5 1156,-179.5"/>
<text text-anchor="middle" x="1190.5" y="-186.5" font-family="Helvetica,sans-Serif" font-size="10.00">blocks.hpp</text>
</a>
</g>
</g>
<!-- Node4&#45;&gt;Node7 -->
<g id="edge6" class="edge">
<title>Node4&#45;&gt;Node7</title>
<path fill="none" stroke="midnightblue" d="M1069.87,-291.39C1080.75,-282.35 1098.35,-267.7 1113.5,-255 1133.63,-238.12 1156.64,-218.67 1172.23,-205.48"/>
<polygon fill="midnightblue" stroke="midnightblue" points="1174.69,-207.99 1180.06,-198.85 1170.16,-202.64 1174.69,-207.99"/>
</g>
<!-- Node17 -->
<g id="node17" class="node">
<title>Node17</title>
<g id="a_node17"><a xlink:href="error__frame_8hpp.html" target="_top" xlink:title="The error frame.">
<polygon fill="none" stroke="black" points="731,-235.5 731,-254.5 826,-254.5 826,-235.5 731,-235.5"/>
<text text-anchor="middle" x="778.5" y="-242.5" font-family="Helvetica,sans-Serif" font-size="10.00">error_frame.hpp</text>
</a>
</g>
</g>
<!-- Node4&#45;&gt;Node17 -->
<g id="edge23" class="edge">
<title>Node4&#45;&gt;Node17</title>
<path fill="none" stroke="midnightblue" d="M1014.97,-291.44C965.54,-281.94 885.75,-266.61 832.72,-256.42"/>
<polygon fill="midnightblue" stroke="midnightblue" points="833.3,-252.97 822.82,-254.52 831.98,-259.84 833.3,-252.97"/>
</g>
<!-- Node18 -->
<g id="node18" class="node">
<title>Node18</title>
<g id="a_node18"><a xlink:href="frame_8hpp.html" target="_top" xlink:title=" ">
<polygon fill="none" stroke="black" points="103,-179.5 103,-198.5 170,-198.5 170,-179.5 103,-179.5"/>
<text text-anchor="middle" x="136.5" y="-186.5" font-family="Helvetica,sans-Serif" font-size="10.00">frame.hpp</text>
</a>
</g>
</g>
<!-- Node4&#45;&gt;Node18 -->
<g id="edge46" class="edge">
<title>Node4&#45;&gt;Node18</title>
<path fill="none" stroke="midnightblue" d="M1010.2,-294.12C848.24,-274.82 334.12,-213.55 180.36,-195.23"/>
<polygon fill="midnightblue" stroke="midnightblue" points="180.68,-191.74 170.34,-194.03 179.85,-198.69 180.68,-191.74"/>
</g>
<!-- Node21 -->
<g id="node21" class="node">
<title>Node21</title>
<g id="a_node21"><a xlink:href="streams_8hpp.html" target="_top" xlink:title="The header file for the data streams.">
<polygon fill="none" stroke="black" points="740,-179.5 740,-198.5 817,-198.5 817,-179.5 740,-179.5"/>
<text text-anchor="middle" x="778.5" y="-186.5" font-family="Helvetica,sans-Serif" font-size="10.00">streams.hpp</text>
</a>
</g>
</g>
<!-- Node4&#45;&gt;Node21 -->
<g id="edge50" class="edge">
<title>Node4&#45;&gt;Node21</title>
<path fill="none" stroke="midnightblue" d="M1037.45,-291.37C987.9,-271.97 867.58,-224.87 810.09,-202.37"/>
<polygon fill="midnightblue" stroke="midnightblue" points="811.03,-198.98 800.45,-198.59 808.48,-205.5 811.03,-198.98"/>
</g>
<!-- Node29 -->
<g id="node29" class="node">
<title>Node29</title>
<g id="a_node29"><a xlink:href="log__container_8hpp.html" target="_top" xlink:title="A simple logging system for debugging.">
<polygon fill="none" stroke="black" points="968,-235.5 968,-254.5 1071,-254.5 1071,-235.5 968,-235.5"/>
<text text-anchor="middle" x="1019.5" y="-242.5" font-family="Helvetica,sans-Serif" font-size="10.00">log_container.hpp</text>
</a>
</g>
</g>
<!-- Node4&#45;&gt;Node29 -->
<g id="edge47" class="edge">
<title>Node4&#45;&gt;Node29</title>
<path fill="none" stroke="midnightblue" d="M1052.89,-291.08C1047.24,-283.46 1038.96,-272.26 1032.05,-262.94"/>
<polygon fill="midnightblue" stroke="midnightblue" points="1034.75,-260.7 1025.98,-254.75 1029.12,-264.87 1034.75,-260.7"/>
</g>
<!-- Node7&#45;&gt;Node5 -->
<g id="edge8" class="edge">
<title>Node7&#45;&gt;Node5</title>
<path fill="none" stroke="midnightblue" d="M1183.24,-179.3C1166.49,-159.24 1124.97,-109.49 1103.24,-83.46"/>
<polygon fill="midnightblue" stroke="midnightblue" points="1105.79,-81.06 1096.7,-75.62 1100.42,-85.54 1105.79,-81.06"/>
</g>
<!-- Node7&#45;&gt;Node6 -->
<g id="edge10" class="edge">
<title>Node7&#45;&gt;Node6</title>
<path fill="none" stroke="midnightblue" d="M1225.02,-179.91C1269.82,-169.42 1348.14,-151.07 1398.1,-139.37"/>
<polygon fill="midnightblue" stroke="midnightblue" points="1399.06,-142.74 1408,-137.05 1397.47,-135.92 1399.06,-142.74"/>
</g>
<!-- Node7&#45;&gt;Node7 -->
<g id="edge11" class="edge">
<title>Node7&#45;&gt;Node7</title>
<path fill="none" stroke="midnightblue" d="M1212.89,-198.53C1228.11,-201.31 1243,-198.13 1243,-189 1243,-181.94 1234.09,-178.44 1223.01,-178.5"/>
<polygon fill="midnightblue" stroke="midnightblue" points="1222.51,-175.03 1212.89,-179.47 1223.18,-182 1222.51,-175.03"/>
</g>
<!-- Node8 -->
<g id="node8" class="node">
<title>Node8</title>
<g id="a_node8"><a xlink:title=" ">
<polygon fill="none" stroke="#bfbfbf" points="281.5,-56.5 281.5,-75.5 329.5,-75.5 329.5,-56.5 281.5,-56.5"/>
<text text-anchor="middle" x="305.5" y="-63.5" font-family="Helvetica,sans-Serif" font-size="10.00">mutex</text>
</a>
</g>
</g>
<!-- Node7&#45;&gt;Node8 -->
<g id="edge7" class="edge">
<title>Node7&#45;&gt;Node8</title>
<path fill="none" stroke="midnightblue" d="M1163.55,-179.4C1111.43,-163.16 992.93,-128.17 890.5,-112 650.97,-74.18 582.84,-115.39 339.74,-75.84"/>
<polygon fill="midnightblue" stroke="midnightblue" points="339.96,-72.33 329.53,-74.15 338.82,-79.24 339.96,-72.33"/>
</g>
<!-- Node7&#45;&gt;Node9 -->
<g id="edge9" class="edge">
<title>Node7&#45;&gt;Node9</title>
<path fill="none" stroke="midnightblue" d="M1225.09,-183.65C1284.41,-176.08 1409.34,-159.71 1514.5,-143 1522.62,-141.71 1531.19,-140.27 1539.59,-138.8"/>
<polygon fill="midnightblue" stroke="midnightblue" points="1540.48,-142.2 1549.72,-137.02 1539.26,-135.31 1540.48,-142.2"/>
</g>
<!-- Node10 -->
<g id="node10" class="node">
<title>Node10</title>
<g id="a_node10"><a xlink:href="json_8hpp.html" target="_top" xlink:title="Simple wrapper around nlohmann/json.hpp to provide a common interface.">
<polygon fill="none" stroke="black" points="1307.5,-118 1307.5,-137 1365.5,-137 1365.5,-118 1307.5,-118"/>
<text text-anchor="middle" x="1336.5" y="-125" font-family="Helvetica,sans-Serif" font-size="10.00">json.hpp</text>
</a>
</g>
</g>
<!-- Node7&#45;&gt;Node10 -->
<g id="edge12" class="edge">
<title>Node7&#45;&gt;Node10</title>
<path fill="none" stroke="midnightblue" d="M1211.42,-179.48C1236.25,-169.36 1277.84,-152.4 1306.19,-140.85"/>
<polygon fill="midnightblue" stroke="midnightblue" points="1307.68,-144.02 1315.62,-137.01 1305.04,-137.54 1307.68,-144.02"/>
</g>
<!-- Node13 -->
<g id="node13" class="node">
<title>Node13</title>
<g id="a_node13"><a xlink:href="node_8hpp.html" target="_top" xlink:title="Contains structures that are used to identify components of the flight system.">
<polygon fill="none" stroke="black" points="946.5,-56.5 946.5,-75.5 1008.5,-75.5 1008.5,-56.5 946.5,-56.5"/>
<text text-anchor="middle" x="977.5" y="-63.5" font-family="Helvetica,sans-Serif" font-size="10.00">node.hpp</text>
</a>
</g>
</g>
<!-- Node7&#45;&gt;Node13 -->
<g id="edge15" class="edge">
<title>Node7&#45;&gt;Node13</title>
<path fill="none" stroke="midnightblue" d="M1175.52,-179.49C1139.18,-158.84 1046.03,-105.93 1001.68,-80.74"/>
<polygon fill="midnightblue" stroke="midnightblue" points="1003.17,-77.56 992.75,-75.66 999.71,-83.64 1003.17,-77.56"/>
</g>
<!-- Node16 -->
<g id="node16" class="node">
<title>Node16</title>
<g id="a_node16"><a xlink:href="positional_8hpp.html" target="_top" xlink:title="Positional data for the flight system (gps/imu data)">
<polygon fill="none" stroke="black" points="1165.5,-118 1165.5,-137 1251.5,-137 1251.5,-118 1165.5,-118"/>
<text text-anchor="middle" x="1208.5" y="-125" font-family="Helvetica,sans-Serif" font-size="10.00">positional.hpp</text>
</a>
</g>
</g>
<!-- Node7&#45;&gt;Node16 -->
<g id="edge18" class="edge">
<title>Node7&#45;&gt;Node16</title>
<path fill="none" stroke="midnightblue" d="M1193.08,-179.48C1195.65,-170.99 1199.67,-157.7 1202.96,-146.82"/>
<polygon fill="midnightblue" stroke="midnightblue" points="1206.38,-147.59 1205.93,-137.01 1199.68,-145.57 1206.38,-147.59"/>
</g>
<!-- Node11 -->
<g id="node11" class="node">
<title>Node11</title>
<g id="a_node11"><a xlink:title=" ">
<polygon fill="none" stroke="#bfbfbf" points="1319.5,-56.5 1319.5,-75.5 1429.5,-75.5 1429.5,-56.5 1319.5,-56.5"/>
<text text-anchor="middle" x="1374.5" y="-63.5" font-family="Helvetica,sans-Serif" font-size="10.00">nlohmann/json.hpp</text>
</a>
</g>
</g>
<!-- Node10&#45;&gt;Node11 -->
<g id="edge13" class="edge">
<title>Node10&#45;&gt;Node11</title>
<path fill="none" stroke="midnightblue" d="M1341.94,-117.98C1347.59,-109.14 1356.56,-95.09 1363.66,-83.98"/>
<polygon fill="midnightblue" stroke="midnightblue" points="1366.63,-85.82 1369.07,-75.51 1360.73,-82.05 1366.63,-85.82"/>
</g>
<!-- Node10&#45;&gt;Node12 -->
<g id="edge14" class="edge">
<title>Node10&#45;&gt;Node12</title>
<path fill="none" stroke="midnightblue" d="M1328.33,-117.98C1319.61,-108.87 1305.6,-94.24 1294.81,-82.98"/>
<polygon fill="midnightblue" stroke="midnightblue" points="1297.1,-80.31 1287.65,-75.51 1292.04,-85.15 1297.1,-80.31"/>
</g>
<!-- Node14 -->
<g id="node14" class="node">
<title>Node14</title>
<g id="a_node14"><a xlink:title=" ">
<polygon fill="none" stroke="#bfbfbf" points="1148.5,-0.5 1148.5,-19.5 1198.5,-19.5 1198.5,-0.5 1148.5,-0.5"/>
<text text-anchor="middle" x="1173.5" y="-7.5" font-family="Helvetica,sans-Serif" font-size="10.00">cstdint</text>
</a>
</g>
</g>
<!-- Node13&#45;&gt;Node14 -->
<g id="edge16" class="edge">
<title>Node13&#45;&gt;Node14</title>
<path fill="none" stroke="midnightblue" d="M1008.56,-56.44C1043.98,-46.68 1101.75,-30.77 1138.67,-20.6"/>
<polygon fill="midnightblue" stroke="midnightblue" points="1139.79,-23.92 1148.5,-17.89 1137.93,-17.17 1139.79,-23.92"/>
</g>
<!-- Node15 -->
<g id="node15" class="node">
<title>Node15</title>
<g id="a_node15"><a xlink:title=" ">
<polygon fill="none" stroke="#bfbfbf" points="1047.5,-0.5 1047.5,-19.5 1085.5,-19.5 1085.5,-0.5 1047.5,-0.5"/>
<text text-anchor="middle" x="1066.5" y="-7.5" font-family="Helvetica,sans-Serif" font-size="10.00">map</text>
</a>
</g>
</g>
<!-- Node13&#45;&gt;Node15 -->
<g id="edge17" class="edge">
<title>Node13&#45;&gt;Node15</title>
<path fill="none" stroke="midnightblue" d="M991.8,-56.32C1005.68,-47.9 1026.99,-34.97 1043.3,-25.07"/>
<polygon fill="midnightblue" stroke="midnightblue" points="1045.5,-27.83 1052.24,-19.65 1041.87,-21.85 1045.5,-27.83"/>
</g>
<!-- Node16&#45;&gt;Node5 -->
<g id="edge22" class="edge">
<title>Node16&#45;&gt;Node5</title>
<path fill="none" stroke="midnightblue" d="M1191.45,-117.98C1171.66,-108.08 1138.78,-91.64 1115.73,-80.12"/>
<polygon fill="midnightblue" stroke="midnightblue" points="1117.03,-76.85 1106.52,-75.51 1113.9,-83.11 1117.03,-76.85"/>
</g>
<!-- Node16&#45;&gt;Node12 -->
<g id="edge21" class="edge">
<title>Node16&#45;&gt;Node12</title>
<path fill="none" stroke="midnightblue" d="M1218.67,-117.98C1229.85,-108.61 1248.02,-93.38 1261.59,-82.01"/>
<polygon fill="midnightblue" stroke="midnightblue" points="1263.93,-84.61 1269.35,-75.51 1259.43,-79.25 1263.93,-84.61"/>
</g>
<!-- Node16&#45;&gt;Node14 -->
<g id="edge19" class="edge">
<title>Node16&#45;&gt;Node14</title>
<path fill="none" stroke="midnightblue" d="M1207.44,-117.64C1205.66,-104.11 1201.56,-77.58 1194.5,-56 1191.45,-46.68 1186.96,-36.76 1182.92,-28.61"/>
<polygon fill="midnightblue" stroke="midnightblue" points="1186.03,-26.99 1178.33,-19.71 1179.8,-30.2 1186.03,-26.99"/>
</g>
<!-- Node16&#45;&gt;Node15 -->
<g id="edge20" class="edge">
<title>Node16&#45;&gt;Node15</title>
<path fill="none" stroke="midnightblue" d="M1204.52,-117.58C1197.63,-103 1182.2,-73.89 1161.5,-56 1142.13,-39.26 1115.45,-27.35 1095.3,-20.01"/>
<polygon fill="midnightblue" stroke="midnightblue" points="1096.31,-16.65 1085.71,-16.68 1094.01,-23.27 1096.31,-16.65"/>
</g>
<!-- Node17&#45;&gt;Node5 -->
<g id="edge24" class="edge">
<title>Node17&#45;&gt;Node5</title>
<path fill="none" stroke="midnightblue" d="M796.57,-235.41C831.4,-218.68 909.97,-180.13 973.5,-143 1007.81,-122.94 1046.11,-97.15 1068.98,-81.36"/>
<polygon fill="midnightblue" stroke="midnightblue" points="1071.01,-84.21 1077.23,-75.64 1067.02,-78.46 1071.01,-84.21"/>
</g>
<!-- Node17&#45;&gt;Node18 -->
<g id="edge25" class="edge">
<title>Node17&#45;&gt;Node18</title>
<path fill="none" stroke="midnightblue" d="M730.91,-240.77C633.76,-234.06 405.63,-217.65 214.5,-199 203.39,-197.92 191.4,-196.6 180.23,-195.32"/>
<polygon fill="midnightblue" stroke="midnightblue" points="180.6,-191.84 170.26,-194.16 179.79,-198.79 180.6,-191.84"/>
</g>
<!-- Node20 -->
<g id="node20" class="node">
<title>Node20</title>
<g id="a_node20"><a xlink:href="giraffe__diagnostic__ids_8hpp.html" target="_top" xlink:title=" ">
<polygon fill="none" stroke="black" points="149.5,-112.5 149.5,-142.5 253.5,-142.5 253.5,-112.5 149.5,-112.5"/>
<text text-anchor="start" x="157.5" y="-130.5" font-family="Helvetica,sans-Serif" font-size="10.00">giraffe_diagnostic</text>
<text text-anchor="middle" x="201.5" y="-119.5" font-family="Helvetica,sans-Serif" font-size="10.00">_ids.hpp</text>
</a>
</g>
</g>
<!-- Node17&#45;&gt;Node20 -->
<g id="edge28" class="edge">
<title>Node17&#45;&gt;Node20</title>
<path fill="none" stroke="midnightblue" d="M730.68,-244.09C619.78,-243.63 348.37,-238.38 267.5,-199 245.75,-188.41 227.55,-167.36 215.81,-151.01"/>
<polygon fill="midnightblue" stroke="midnightblue" points="218.52,-148.77 209.97,-142.5 212.75,-152.73 218.52,-148.77"/>
</g>
<!-- Node17&#45;&gt;Node21 -->
<g id="edge29" class="edge">
<title>Node17&#45;&gt;Node21</title>
<path fill="none" stroke="midnightblue" d="M778.5,-235.08C778.5,-228.01 778.5,-217.86 778.5,-208.99"/>
<polygon fill="midnightblue" stroke="midnightblue" points="782,-208.75 778.5,-198.75 775,-208.75 782,-208.75"/>
</g>
<!-- Node18&#45;&gt;Node8 -->
<g id="edge26" class="edge">
<title>Node18&#45;&gt;Node8</title>
<path fill="none" stroke="midnightblue" d="M134.02,-179.35C130.17,-163.94 124.74,-131.54 140.5,-112 156.81,-91.77 227.98,-78.16 271.34,-71.58"/>
<polygon fill="midnightblue" stroke="midnightblue" points="272.07,-75.01 281.46,-70.1 271.06,-68.09 272.07,-75.01"/>
</g>
<!-- Node19 -->
<g id="node19" class="node">
<title>Node19</title>
<g id="a_node19"><a xlink:title=" ">
<polygon fill="none" stroke="#bfbfbf" points="0,-118 0,-137 93,-137 93,-118 0,-118"/>
<text text-anchor="middle" x="46.5" y="-125" font-family="Helvetica,sans-Serif" font-size="10.00">unordered_map</text>
</a>
</g>
</g>
<!-- Node18&#45;&gt;Node19 -->
<g id="edge27" class="edge">
<title>Node18&#45;&gt;Node19</title>
<path fill="none" stroke="midnightblue" d="M123.61,-179.48C109.04,-169.84 85.1,-154.02 67.75,-142.55"/>
<polygon fill="midnightblue" stroke="midnightblue" points="69.64,-139.6 59.37,-137.01 65.78,-145.44 69.64,-139.6"/>
</g>
<!-- Node21&#45;&gt;Node5 -->
<g id="edge35" class="edge">
<title>Node21&#45;&gt;Node5</title>
<path fill="none" stroke="midnightblue" d="M810.76,-179.5C840.83,-171.25 886.74,-157.83 925.5,-143 975.7,-123.79 1032.14,-96.26 1064,-80.15"/>
<polygon fill="midnightblue" stroke="midnightblue" points="1065.74,-83.19 1073.06,-75.54 1062.56,-76.95 1065.74,-83.19"/>
</g>
<!-- Node21&#45;&gt;Node8 -->
<g id="edge32" class="edge">
<title>Node21&#45;&gt;Node8</title>
<path fill="none" stroke="midnightblue" d="M739.85,-187.74C649.14,-186.51 425.42,-179.74 361.5,-143 338.59,-129.83 322.32,-103.1 313.42,-85.11"/>
<polygon fill="midnightblue" stroke="midnightblue" points="316.54,-83.52 309.13,-75.93 310.19,-86.48 316.54,-83.52"/>
</g>
<!-- Node21&#45;&gt;Node12 -->
<g id="edge34" class="edge">
<title>Node21&#45;&gt;Node12</title>
<path fill="none" stroke="midnightblue" d="M817.13,-186.92C925.57,-183.55 1227.1,-171.67 1260.5,-143 1276.75,-129.05 1280.2,-103.49 1280.44,-85.9"/>
<polygon fill="midnightblue" stroke="midnightblue" points="1283.94,-85.62 1280.25,-75.69 1276.94,-85.75 1283.94,-85.62"/>
</g>
<!-- Node21&#45;&gt;Node13 -->
<g id="edge44" class="edge">
<title>Node21&#45;&gt;Node13</title>
<path fill="none" stroke="midnightblue" d="M807.36,-179.39C830.76,-171.72 864.06,-159.21 890.5,-143 918.42,-125.88 946.11,-99.68 962.52,-82.95"/>
<polygon fill="midnightblue" stroke="midnightblue" points="965.2,-85.21 969.61,-75.58 960.16,-80.36 965.2,-85.21"/>
</g>
<!-- Node21&#45;&gt;Node16 -->
<g id="edge45" class="edge">
<title>Node21&#45;&gt;Node16</title>
<path fill="none" stroke="midnightblue" d="M817.04,-182.67C894.17,-171.99 1067.65,-147.99 1155.45,-135.84"/>
<polygon fill="midnightblue" stroke="midnightblue" points="1156.04,-139.29 1165.46,-134.46 1155.08,-132.36 1156.04,-139.29"/>
</g>
<!-- Node21&#45;&gt;Node20 -->
<g id="edge43" class="edge">
<title>Node21&#45;&gt;Node20</title>
<path fill="none" stroke="midnightblue" d="M739.81,-184.9C659.01,-178.29 466.49,-161.87 305.5,-143 292.01,-141.42 277.56,-139.53 263.86,-137.65"/>
<polygon fill="midnightblue" stroke="midnightblue" points="263.94,-134.12 253.55,-136.21 262.97,-141.06 263.94,-134.12"/>
</g>
<!-- Node22 -->
<g id="node22" class="node">
<title>Node22</title>
<g id="a_node22"><a xlink:title=" ">
<polygon fill="none" stroke="#bfbfbf" points="753.5,-118 753.5,-137 803.5,-137 803.5,-118 753.5,-118"/>
<text text-anchor="middle" x="778.5" y="-125" font-family="Helvetica,sans-Serif" font-size="10.00">atomic</text>
</a>
</g>
</g>
<!-- Node21&#45;&gt;Node22 -->
<g id="edge30" class="edge">
<title>Node21&#45;&gt;Node22</title>
<path fill="none" stroke="midnightblue" d="M778.5,-179.48C778.5,-171.08 778.5,-157.98 778.5,-147.16"/>
<polygon fill="midnightblue" stroke="midnightblue" points="782,-147.01 778.5,-137.01 775,-147.01 782,-147.01"/>
</g>
<!-- Node23 -->
<g id="node23" class="node">
<title>Node23</title>
<g id="a_node23"><a xlink:title=" ">
<polygon fill="none" stroke="#bfbfbf" points="821.5,-118 821.5,-137 881.5,-137 881.5,-118 821.5,-118"/>
<text text-anchor="middle" x="851.5" y="-125" font-family="Helvetica,sans-Serif" font-size="10.00">iostream</text>
</a>
</g>
</g>
<!-- Node21&#45;&gt;Node23 -->
<g id="edge31" class="edge">
<title>Node21&#45;&gt;Node23</title>
<path fill="none" stroke="midnightblue" d="M788.96,-179.48C800.45,-170.11 819.13,-154.88 833.09,-143.51"/>
<polygon fill="midnightblue" stroke="midnightblue" points="835.52,-146.04 841.06,-137.01 831.1,-140.61 835.52,-146.04"/>
</g>
<!-- Node24 -->
<g id="node24" class="node">
<title>Node24</title>
<g id="a_node24"><a xlink:title=" ">
<polygon fill="none" stroke="#bfbfbf" points="348,-56.5 348,-75.5 395,-75.5 395,-56.5 348,-56.5"/>
<text text-anchor="middle" x="371.5" y="-63.5" font-family="Helvetica,sans-Serif" font-size="10.00">queue</text>
</a>
</g>
</g>
<!-- Node21&#45;&gt;Node24 -->
<g id="edge33" class="edge">
<title>Node21&#45;&gt;Node24</title>
<path fill="none" stroke="midnightblue" d="M739.95,-186.45C644.19,-182.23 401.36,-169.03 376.5,-143 362.19,-128.02 363.52,-102.91 366.71,-85.68"/>
<polygon fill="midnightblue" stroke="midnightblue" points="370.18,-86.2 368.93,-75.68 363.35,-84.68 370.18,-86.2"/>
</g>
<!-- Node25 -->
<g id="node25" class="node">
<title>Node25</title>
<g id="a_node25"><a xlink:title=" ">
<polygon fill="none" stroke="#bfbfbf" points="489.5,-118 489.5,-137 637.5,-137 637.5,-118 489.5,-118"/>
<text text-anchor="middle" x="563.5" y="-125" font-family="Helvetica,sans-Serif" font-size="10.00">BoosterSeat/exception.hpp</text>
</a>
</g>
</g>
<!-- Node21&#45;&gt;Node25 -->
<g id="edge36" class="edge">
<title>Node21&#45;&gt;Node25</title>
<path fill="none" stroke="midnightblue" d="M747.7,-179.48C709.94,-169.03 645.84,-151.29 604.09,-139.73"/>
<polygon fill="midnightblue" stroke="midnightblue" points="604.82,-136.3 594.25,-137.01 602.95,-143.05 604.82,-136.3"/>
</g>
<!-- Node26 -->
<g id="node26" class="node">
<title>Node26</title>
<g id="a_node26"><a xlink:href="command_8hpp.html" target="_top" xlink:title="The command/queue system for the flight system.">
<polygon fill="none" stroke="black" points="385.5,-118 385.5,-137 471.5,-137 471.5,-118 385.5,-118"/>
<text text-anchor="middle" x="428.5" y="-125" font-family="Helvetica,sans-Serif" font-size="10.00">command.hpp</text>
</a>
</g>
</g>
<!-- Node21&#45;&gt;Node26 -->
<g id="edge37" class="edge">
<title>Node21&#45;&gt;Node26</title>
<path fill="none" stroke="midnightblue" d="M739.65,-183.67C682.51,-176.95 572.59,-162.72 480.5,-143 476,-142.04 471.31,-140.91 466.67,-139.71"/>
<polygon fill="midnightblue" stroke="midnightblue" points="467.25,-136.25 456.68,-137.03 465.43,-143.01 467.25,-136.25"/>
</g>
<!-- Node28 -->
<g id="node28" class="node">
<title>Node28</title>
<g id="a_node28"><a xlink:href="data__ids_8hpp.html" target="_top" xlink:title=" ">
<polygon fill="none" stroke="black" points="656,-118 656,-137 735,-137 735,-118 656,-118"/>
<text text-anchor="middle" x="695.5" y="-125" font-family="Helvetica,sans-Serif" font-size="10.00">data_ids.hpp</text>
</a>
</g>
</g>
<!-- Node21&#45;&gt;Node28 -->
<g id="edge42" class="edge">
<title>Node21&#45;&gt;Node28</title>
<path fill="none" stroke="midnightblue" d="M766.61,-179.48C753.3,-169.93 731.5,-154.31 715.54,-142.87"/>
<polygon fill="midnightblue" stroke="midnightblue" points="717.54,-139.99 707.37,-137.01 713.46,-145.68 717.54,-139.99"/>
</g>
<!-- Node26&#45;&gt;Node8 -->
<g id="edge38" class="edge">
<title>Node26&#45;&gt;Node8</title>
<path fill="none" stroke="midnightblue" d="M410.88,-117.98C390.33,-108.03 356.14,-91.49 332.29,-79.96"/>
<polygon fill="midnightblue" stroke="midnightblue" points="333.62,-76.71 323.09,-75.51 330.57,-83.01 333.62,-76.71"/>
</g>
<!-- Node26&#45;&gt;Node13 -->
<g id="edge41" class="edge">
<title>Node26&#45;&gt;Node13</title>
<path fill="none" stroke="midnightblue" d="M455.54,-117.96C463.51,-115.71 472.3,-113.5 480.5,-112 647.8,-81.36 850.77,-71.25 936.33,-68.2"/>
<polygon fill="midnightblue" stroke="midnightblue" points="936.54,-71.7 946.41,-67.86 936.3,-64.7 936.54,-71.7"/>
</g>
<!-- Node26&#45;&gt;Node24 -->
<g id="edge39" class="edge">
<title>Node26&#45;&gt;Node24</title>
<path fill="none" stroke="midnightblue" d="M420.33,-117.98C411.61,-108.87 397.6,-94.24 386.81,-82.98"/>
<polygon fill="midnightblue" stroke="midnightblue" points="389.1,-80.31 379.65,-75.51 384.04,-85.15 389.1,-80.31"/>
</g>
<!-- Node27 -->
<g id="node27" class="node">
<title>Node27</title>
<g id="a_node27"><a xlink:href="command__ids_8hpp.html" target="_top" xlink:title=" ">
<polygon fill="none" stroke="black" points="413.5,-56.5 413.5,-75.5 519.5,-75.5 519.5,-56.5 413.5,-56.5"/>
<text text-anchor="middle" x="466.5" y="-63.5" font-family="Helvetica,sans-Serif" font-size="10.00">command_ids.hpp</text>
</a>
</g>
</g>
<!-- Node26&#45;&gt;Node27 -->
<g id="edge40" class="edge">
<title>Node26&#45;&gt;Node27</title>
<path fill="none" stroke="midnightblue" d="M433.94,-117.98C439.59,-109.14 448.56,-95.09 455.66,-83.98"/>
<polygon fill="midnightblue" stroke="midnightblue" points="458.63,-85.82 461.07,-75.51 452.73,-82.05 458.63,-85.82"/>
</g>
<!-- Node29&#45;&gt;Node8 -->
<g id="edge49" class="edge">
<title>Node29&#45;&gt;Node8</title>
<path fill="none" stroke="midnightblue" d="M967.79,-239.71C815.23,-226.63 374.65,-185.48 326.5,-143 310.33,-128.74 306.11,-103.26 305.25,-85.76"/>
<polygon fill="midnightblue" stroke="midnightblue" points="308.75,-85.56 305.09,-75.61 301.75,-85.67 308.75,-85.56"/>
</g>
<!-- Node30 -->
<g id="node30" class="node">
<title>Node30</title>
<g id="a_node30"><a xlink:title=" ">
<polygon fill="none" stroke="#bfbfbf" points="1024,-179.5 1024,-198.5 1071,-198.5 1071,-179.5 1024,-179.5"/>
<text text-anchor="middle" x="1047.5" y="-186.5" font-family="Helvetica,sans-Serif" font-size="10.00">deque</text>
</a>
</g>
</g>
<!-- Node29&#45;&gt;Node30 -->
<g id="edge48" class="edge">
<title>Node29&#45;&gt;Node30</title>
<path fill="none" stroke="midnightblue" d="M1024.12,-235.08C1027.96,-227.69 1033.52,-216.95 1038.26,-207.81"/>
<polygon fill="midnightblue" stroke="midnightblue" points="1041.47,-209.24 1042.96,-198.75 1035.25,-206.02 1041.47,-209.24"/>
</g>
</g>
</svg>
