<?xml version="1.0" encoding="UTF-8" standalone="no"?>
<!DOCTYPE svg PUBLIC "-//W3C//DTD SVG 1.1//EN"
 "http://www.w3.org/Graphics/SVG/1.1/DTD/svg11.dtd">
<!-- Generated by graphviz version 2.43.0 (0)
 -->
<!-- Title: LandR Pages: 1 -->
<svg width="373pt" height="88pt"
 viewBox="0.00 0.00 373.00 88.00" xmlns="http://www.w3.org/2000/svg" xmlns:xlink="http://www.w3.org/1999/xlink">
<g id="graph0" class="graph" transform="scale(1 1) rotate(0) translate(4 84)">
<title>LandR</title>
<!-- Node1 -->
<g id="node1" class="node">
<title>Node1</title>
<g id="a_node1"><a xlink:title="Helper function to format two strings to be left and right aligned within the console window.">
<polygon fill="#bfbfbf" stroke="black" points="318,-30 318,-49 365,-49 365,-30 318,-30"/>
<text text-anchor="middle" x="341.5" y="-37" font-family="Helvetica,sans-Serif" font-size="10.00">LandR</text>
</a>
</g>
</g>
<!-- Node2 -->
<g id="node2" class="node">
<title>Node2</title>
<g id="a_node2"><a xlink:href="classconsole__pages_1_1Pages.html#a4b0ae50da4241115a3acfca9f0c4e306" target="_top" xlink:title=" ">
<polygon fill="none" stroke="black" points="159,-49.5 159,-79.5 282,-79.5 282,-49.5 159,-49.5"/>
<text text-anchor="start" x="167" y="-67.5" font-family="Helvetica,sans-Serif" font-size="10.00">console_pages::Pages</text>
<text text-anchor="middle" x="220.5" y="-56.5" font-family="Helvetica,sans-Serif" font-size="10.00">::data</text>
</a>
</g>
</g>
<!-- Node1&#45;&gt;Node2 -->
<g id="edge1" class="edge">
<title>Node1&#45;&gt;Node2</title>
<path fill="none" stroke="midnightblue" d="M307.86,-46.36C299.87,-48.04 291.05,-49.89 282.2,-51.75"/>
<polygon fill="midnightblue" stroke="midnightblue" points="308.77,-49.74 317.84,-44.26 307.33,-42.89 308.77,-49.74"/>
</g>
<!-- Node4 -->
<g id="node4" class="node">
<title>Node4</title>
<g id="a_node4"><a xlink:href="classconsole__pages_1_1Pages.html#a27c3adbf55be9c5165077caed2c01b57" target="_top" xlink:title=" ">
<polygon fill="none" stroke="black" points="159,-0.5 159,-30.5 282,-30.5 282,-0.5 159,-0.5"/>
<text text-anchor="start" x="167" y="-18.5" font-family="Helvetica,sans-Serif" font-size="10.00">console_pages::Pages</text>
<text text-anchor="middle" x="220.5" y="-7.5" font-family="Helvetica,sans-Serif" font-size="10.00">::gfsStatus</text>
</a>
</g>
</g>
<!-- Node1&#45;&gt;Node4 -->
<g id="edge3" class="edge">
<title>Node1&#45;&gt;Node4</title>
<path fill="none" stroke="midnightblue" d="M307.86,-32.92C299.87,-31.31 291.05,-29.53 282.2,-27.74"/>
<polygon fill="midnightblue" stroke="midnightblue" points="307.34,-36.38 317.84,-34.93 308.73,-29.52 307.34,-36.38"/>
</g>
<!-- Node3 -->
<g id="node3" class="node">
<title>Node3</title>
<g id="a_node3"><a xlink:href="classconsole__pages_1_1Pages.html#a994c60348e2c31544233ce3ba27ccb14" target="_top" xlink:title=" ">
<polygon fill="none" stroke="black" points="0,-24.5 0,-54.5 123,-54.5 123,-24.5 0,-24.5"/>
<text text-anchor="start" x="8" y="-42.5" font-family="Helvetica,sans-Serif" font-size="10.00">console_pages::Pages</text>
<text text-anchor="middle" x="61.5" y="-31.5" font-family="Helvetica,sans-Serif" font-size="10.00">::getCurrentPage</text>
</a>
</g>
</g>
<!-- Node2&#45;&gt;Node3 -->
<g id="edge2" class="edge">
<title>Node2&#45;&gt;Node3</title>
<path fill="none" stroke="midnightblue" d="M148.79,-53.24C140.19,-51.87 131.47,-50.48 123.04,-49.14"/>
<polygon fill="midnightblue" stroke="midnightblue" points="148.37,-56.72 158.8,-54.83 149.47,-49.81 148.37,-56.72"/>
</g>
<!-- Node4&#45;&gt;Node3 -->
<g id="edge4" class="edge">
<title>Node4&#45;&gt;Node3</title>
<path fill="none" stroke="midnightblue" d="M148.79,-26.31C140.19,-27.62 131.47,-28.96 123.04,-30.25"/>
<polygon fill="midnightblue" stroke="midnightblue" points="149.44,-29.75 158.8,-24.78 148.39,-22.83 149.44,-29.75"/>
</g>
</g>
</svg>
