<?xml version="1.0" encoding="UTF-8" standalone="no"?>
<!DOCTYPE svg PUBLIC "-//W3C//DTD SVG 1.1//EN"
 "http://www.w3.org/Graphics/SVG/1.1/DTD/svg11.dtd">
<!-- Generated by graphviz version 2.43.0 (0)
 -->
<!-- Title: data_formatting.hpp Pages: 1 -->
<svg width="430pt" height="252pt"
 viewBox="0.00 0.00 429.50 252.00" xmlns="http://www.w3.org/2000/svg" xmlns:xlink="http://www.w3.org/1999/xlink">
<g id="graph0" class="graph" transform="scale(1 1) rotate(0) translate(4 248)">
<title>data_formatting.hpp</title>
<!-- Node1 -->
<g id="node1" class="node">
<title>Node1</title>
<g id="a_node1"><a xlink:title="This file contains the DataFormatter class, which is used to format data for the data and log files.">
<polygon fill="#bfbfbf" stroke="black" points="58,-224.5 58,-243.5 174,-243.5 174,-224.5 58,-224.5"/>
<text text-anchor="middle" x="116" y="-231.5" font-family="Helvetica,sans-Serif" font-size="10.00">data_formatting.hpp</text>
</a>
</g>
</g>
<!-- Node2 -->
<g id="node2" class="node">
<title>Node2</title>
<g id="a_node2"><a xlink:href="data__formatting_8cpp.html" target="_top" xlink:title="Implementation of the DataFormatter class.">
<polygon fill="none" stroke="black" points="0,-168.5 0,-187.5 116,-187.5 116,-168.5 0,-168.5"/>
<text text-anchor="middle" x="58" y="-175.5" font-family="Helvetica,sans-Serif" font-size="10.00">data_formatting.cpp</text>
</a>
</g>
</g>
<!-- Node1&#45;&gt;Node2 -->
<g id="edge1" class="edge">
<title>Node1&#45;&gt;Node2</title>
<path fill="none" stroke="midnightblue" d="M99.09,-217.25C88.8,-207.67 76.03,-195.79 67.49,-187.83"/>
<polygon fill="midnightblue" stroke="midnightblue" points="96.98,-220.07 106.68,-224.32 101.75,-214.95 96.98,-220.07"/>
</g>
<!-- Node3 -->
<g id="node3" class="node">
<title>Node3</title>
<g id="a_node3"><a xlink:href="data__log_8hpp.html" target="_top" xlink:title="The data log is responsible for writing data to files and managing the file system.">
<polygon fill="none" stroke="black" points="134,-168.5 134,-187.5 214,-187.5 214,-168.5 134,-168.5"/>
<text text-anchor="middle" x="174" y="-175.5" font-family="Helvetica,sans-Serif" font-size="10.00">data_log.hpp</text>
</a>
</g>
</g>
<!-- Node1&#45;&gt;Node3 -->
<g id="edge2" class="edge">
<title>Node1&#45;&gt;Node3</title>
<path fill="none" stroke="midnightblue" d="M132.91,-217.25C143.2,-207.67 155.97,-195.79 164.51,-187.83"/>
<polygon fill="midnightblue" stroke="midnightblue" points="130.25,-214.95 125.32,-224.32 135.02,-220.07 130.25,-214.95"/>
</g>
<!-- Node4 -->
<g id="node4" class="node">
<title>Node4</title>
<g id="a_node4"><a xlink:href="data__log_8cpp.html" target="_top" xlink:title="The implementation of the data log class.">
<polygon fill="none" stroke="black" points="80.5,-112.5 80.5,-131.5 159.5,-131.5 159.5,-112.5 80.5,-112.5"/>
<text text-anchor="middle" x="120" y="-119.5" font-family="Helvetica,sans-Serif" font-size="10.00">data_log.cpp</text>
</a>
</g>
</g>
<!-- Node3&#45;&gt;Node4 -->
<g id="edge3" class="edge">
<title>Node3&#45;&gt;Node4</title>
<path fill="none" stroke="midnightblue" d="M158,-161C148.43,-151.43 136.64,-139.64 128.75,-131.75"/>
<polygon fill="midnightblue" stroke="midnightblue" points="155.54,-163.49 165.08,-168.08 160.49,-158.54 155.54,-163.49"/>
</g>
<!-- Node5 -->
<g id="node5" class="node">
<title>Node5</title>
<g id="a_node5"><a xlink:href="data__module_8hpp.html" target="_top" xlink:title="The data module header file.">
<polygon fill="none" stroke="black" points="177.5,-112.5 177.5,-131.5 278.5,-131.5 278.5,-112.5 177.5,-112.5"/>
<text text-anchor="middle" x="228" y="-119.5" font-family="Helvetica,sans-Serif" font-size="10.00">data_module.hpp</text>
</a>
</g>
</g>
<!-- Node3&#45;&gt;Node5 -->
<g id="edge4" class="edge">
<title>Node3&#45;&gt;Node5</title>
<path fill="none" stroke="midnightblue" d="M190,-161C199.57,-151.43 211.36,-139.64 219.25,-131.75"/>
<polygon fill="midnightblue" stroke="midnightblue" points="187.51,-158.54 182.92,-168.08 192.46,-163.49 187.51,-158.54"/>
</g>
<!-- Node6 -->
<g id="node6" class="node">
<title>Node6</title>
<g id="a_node6"><a xlink:href="flight__runner_8hpp.html" target="_top" xlink:title=" ">
<polygon fill="none" stroke="black" points="61,-56.5 61,-75.5 159,-75.5 159,-56.5 61,-56.5"/>
<text text-anchor="middle" x="110" y="-63.5" font-family="Helvetica,sans-Serif" font-size="10.00">flight_runner.hpp</text>
</a>
</g>
</g>
<!-- Node5&#45;&gt;Node6 -->
<g id="edge5" class="edge">
<title>Node5&#45;&gt;Node6</title>
<path fill="none" stroke="midnightblue" d="M200.1,-108.23C178.03,-98.13 147.82,-84.31 128.61,-75.52"/>
<polygon fill="midnightblue" stroke="midnightblue" points="198.75,-111.46 209.3,-112.44 201.67,-105.1 198.75,-111.46"/>
</g>
<!-- Node9 -->
<g id="node9" class="node">
<title>Node9</title>
<g id="a_node9"><a xlink:href="data__module_8cpp.html" target="_top" xlink:title=" ">
<polygon fill="none" stroke="black" points="177.5,-56.5 177.5,-75.5 278.5,-75.5 278.5,-56.5 177.5,-56.5"/>
<text text-anchor="middle" x="228" y="-63.5" font-family="Helvetica,sans-Serif" font-size="10.00">data_module.cpp</text>
</a>
</g>
</g>
<!-- Node5&#45;&gt;Node9 -->
<g id="edge8" class="edge">
<title>Node5&#45;&gt;Node9</title>
<path fill="none" stroke="midnightblue" d="M228,-101.8C228,-92.91 228,-82.78 228,-75.75"/>
<polygon fill="midnightblue" stroke="midnightblue" points="224.5,-102.08 228,-112.08 231.5,-102.08 224.5,-102.08"/>
</g>
<!-- Node10 -->
<g id="node10" class="node">
<title>Node10</title>
<g id="a_node10"><a xlink:href="test__data__module_8cpp.html" target="_top" xlink:title="Data module unit tests.">
<polygon fill="none" stroke="black" points="296.5,-56.5 296.5,-75.5 421.5,-75.5 421.5,-56.5 296.5,-56.5"/>
<text text-anchor="middle" x="359" y="-63.5" font-family="Helvetica,sans-Serif" font-size="10.00">test_data_module.cpp</text>
</a>
</g>
</g>
<!-- Node5&#45;&gt;Node10 -->
<g id="edge9" class="edge">
<title>Node5&#45;&gt;Node10</title>
<path fill="none" stroke="midnightblue" d="M258.32,-108.5C282.88,-98.38 316.82,-84.39 338.34,-75.52"/>
<polygon fill="midnightblue" stroke="midnightblue" points="256.67,-105.4 248.76,-112.44 259.34,-111.87 256.67,-105.4"/>
</g>
<!-- Node7 -->
<g id="node7" class="node">
<title>Node7</title>
<g id="a_node7"><a xlink:href="flight__runner_8cpp.html" target="_top" xlink:title="The implementation of the flight runner, where everything comes together.">
<polygon fill="none" stroke="black" points="12,-0.5 12,-19.5 110,-19.5 110,-0.5 12,-0.5"/>
<text text-anchor="middle" x="61" y="-7.5" font-family="Helvetica,sans-Serif" font-size="10.00">flight_runner.cpp</text>
</a>
</g>
</g>
<!-- Node6&#45;&gt;Node7 -->
<g id="edge6" class="edge">
<title>Node6&#45;&gt;Node7</title>
<path fill="none" stroke="midnightblue" d="M94.97,-48.43C86.38,-38.97 75.96,-27.48 68.94,-19.75"/>
<polygon fill="midnightblue" stroke="midnightblue" points="92.6,-51.03 101.91,-56.08 97.78,-46.33 92.6,-51.03"/>
</g>
<!-- Node8 -->
<g id="node8" class="node">
<title>Node8</title>
<g id="a_node8"><a xlink:href="src_2flight__system_2main_8cpp.html" target="_top" xlink:title="Defines the entry point/main function of the Flight Computer software.">
<polygon fill="none" stroke="black" points="128,-0.5 128,-19.5 190,-19.5 190,-0.5 128,-0.5"/>
<text text-anchor="middle" x="159" y="-7.5" font-family="Helvetica,sans-Serif" font-size="10.00">main.cpp</text>
</a>
</g>
</g>
<!-- Node6&#45;&gt;Node8 -->
<g id="edge7" class="edge">
<title>Node6&#45;&gt;Node8</title>
<path fill="none" stroke="midnightblue" d="M125.03,-48.43C133.62,-38.97 144.04,-27.48 151.06,-19.75"/>
<polygon fill="midnightblue" stroke="midnightblue" points="122.22,-46.33 118.09,-56.08 127.4,-51.03 122.22,-46.33"/>
</g>
</g>
</svg>
