<?xml version="1.0" encoding="UTF-8" standalone="no"?>
<!DOCTYPE svg PUBLIC "-//W3C//DTD SVG 1.1//EN"
 "http://www.w3.org/Graphics/SVG/1.1/DTD/svg11.dtd">
<!-- Generated by graphviz version 2.43.0 (0)
 -->
<!-- Title: data_formatting.cpp Pages: 1 -->
<svg width="1830pt" height="434pt"
 viewBox="0.00 0.00 1829.50 434.00" xmlns="http://www.w3.org/2000/svg" xmlns:xlink="http://www.w3.org/1999/xlink">
<g id="graph0" class="graph" transform="scale(1 1) rotate(0) translate(4 430)">
<title>data_formatting.cpp</title>
<!-- Node1 -->
<g id="Node000001" class="node">
<title>Node1</title>
<g id="a_Node000001"><a xlink:title="Implementation of the DataFormatter class.">
<polygon fill="#999999" stroke="#666666" points="892.5,-426 776.5,-426 776.5,-407 892.5,-407 892.5,-426"/>
<text text-anchor="middle" x="834.5" y="-414" font-family="Helvetica,sans-Serif" font-size="10.00">data_formatting.cpp</text>
</a>
</g>
</g>
<!-- Node2 -->
<g id="Node000002" class="node">
<title>Node2</title>
<g id="a_Node000002"><a xlink:title=" ">
<polygon fill="#e0e0e0" stroke="#999999" points="681,-365.5 612,-365.5 612,-346.5 681,-346.5 681,-365.5"/>
<text text-anchor="middle" x="646.5" y="-353.5" font-family="Helvetica,sans-Serif" font-size="10.00">type_traits</text>
</a>
</g>
</g>
<!-- Node1&#45;&gt;Node2 -->
<g id="edge1_Node000001_Node000002" class="edge">
<title>Node1&#45;&gt;Node2</title>
<g id="a_edge1_Node000001_Node000002"><a xlink:title=" ">
<path fill="none" stroke="#63b8ff" d="M806.12,-406.94C776.85,-398.09 729.92,-383.78 689.5,-371 687.08,-370.23 684.58,-369.44 682.06,-368.63"/>
<polygon fill="#63b8ff" stroke="#63b8ff" points="682.99,-365.25 672.4,-365.51 680.84,-371.91 682.99,-365.25"/>
</a>
</g>
</g>
<!-- Node3 -->
<g id="Node000003" class="node">
<title>Node3</title>
<g id="a_Node000003"><a xlink:title=" ">
<polygon fill="#e0e0e0" stroke="#999999" points="806,-371 699,-371 699,-341 806,-341 806,-371"/>
<text text-anchor="start" x="707" y="-359" font-family="Helvetica,sans-Serif" font-size="10.00">BoosterSeat/string</text>
<text text-anchor="middle" x="752.5" y="-348" font-family="Helvetica,sans-Serif" font-size="10.00">_formatting.hpp</text>
</a>
</g>
</g>
<!-- Node1&#45;&gt;Node3 -->
<g id="edge2_Node000001_Node000003" class="edge">
<title>Node1&#45;&gt;Node3</title>
<g id="a_edge2_Node000001_Node000003"><a xlink:title=" ">
<path fill="none" stroke="#63b8ff" d="M822.4,-406.87C811.48,-399.08 794.99,-387.32 780.78,-377.17"/>
<polygon fill="#63b8ff" stroke="#63b8ff" points="782.46,-374.07 772.28,-371.11 778.39,-379.77 782.46,-374.07"/>
</a>
</g>
</g>
<!-- Node4 -->
<g id="Node000004" class="node">
<title>Node4</title>
<g id="a_Node000004"><a xlink:title=" ">
<polygon fill="#e0e0e0" stroke="#999999" points="1806.5,-74 1684.5,-74 1684.5,-55 1806.5,-55 1806.5,-74"/>
<text text-anchor="middle" x="1745.5" y="-62" font-family="Helvetica,sans-Serif" font-size="10.00">BoosterSeat/time.hpp</text>
</a>
</g>
</g>
<!-- Node1&#45;&gt;Node4 -->
<g id="edge3_Node000001_Node000004" class="edge">
<title>Node1&#45;&gt;Node4</title>
<g id="a_edge3_Node000001_Node000004"><a xlink:title=" ">
<path fill="none" stroke="#63b8ff" d="M892.56,-414.64C1104.13,-410.77 1821.5,-390.67 1821.5,-296.5 1821.5,-296.5 1821.5,-296.5 1821.5,-184.5 1821.5,-141.71 1786.16,-101.94 1763.68,-80.97"/>
<polygon fill="#63b8ff" stroke="#63b8ff" points="1765.84,-78.21 1756.07,-74.13 1761.16,-83.42 1765.84,-78.21"/>
</a>
</g>
</g>
<!-- Node5 -->
<g id="Node000005" class="node">
<title>Node5</title>
<g id="a_Node000005"><a xlink:href="data__formatting_8hpp.html" target="_top" xlink:title="This file contains the DataFormatter class, which is used to format data for the data and log files.">
<polygon fill="white" stroke="#666666" points="978.5,-365.5 862.5,-365.5 862.5,-346.5 978.5,-346.5 978.5,-365.5"/>
<text text-anchor="middle" x="920.5" y="-353.5" font-family="Helvetica,sans-Serif" font-size="10.00">data_formatting.hpp</text>
</a>
</g>
</g>
<!-- Node1&#45;&gt;Node5 -->
<g id="edge4_Node000001_Node000005" class="edge">
<title>Node1&#45;&gt;Node5</title>
<g id="a_edge4_Node000001_Node000005"><a xlink:title=" ">
<path fill="none" stroke="#63b8ff" d="M847.19,-406.87C860.91,-397.54 883,-382.51 899.35,-371.38"/>
<polygon fill="#63b8ff" stroke="#63b8ff" points="901.46,-374.19 907.76,-365.67 897.52,-368.4 901.46,-374.19"/>
</a>
</g>
</g>
<!-- Node37 -->
<g id="Node000037" class="node">
<title>Node37</title>
<g id="a_Node000037"><a xlink:href="to__string_8hpp.html" target="_top" xlink:title="Generic to_string functions for a variety of types.">
<polygon fill="white" stroke="#666666" points="733.5,-305 653.5,-305 653.5,-286 733.5,-286 733.5,-305"/>
<text text-anchor="middle" x="693.5" y="-293" font-family="Helvetica,sans-Serif" font-size="10.00">to_string.hpp</text>
</a>
</g>
</g>
<!-- Node1&#45;&gt;Node37 -->
<g id="edge70_Node000001_Node000037" class="edge">
<title>Node1&#45;&gt;Node37</title>
<g id="a_edge70_Node000001_Node000037"><a xlink:title=" ">
<path fill="none" stroke="#63b8ff" d="M834.62,-406.94C834.37,-391.72 831.66,-359.78 814.5,-341 796.19,-320.96 768.07,-309.92 743.54,-303.85"/>
<polygon fill="#63b8ff" stroke="#63b8ff" points="744.17,-300.4 733.64,-301.61 742.63,-307.23 744.17,-300.4"/>
</a>
</g>
</g>
<!-- Node6 -->
<g id="Node000006" class="node">
<title>Node6</title>
<g id="a_Node000006"><a xlink:href="configuration_8hpp.html" target="_top" xlink:title=" ">
<polygon fill="white" stroke="#666666" points="971,-305 870,-305 870,-286 971,-286 971,-305"/>
<text text-anchor="middle" x="920.5" y="-293" font-family="Helvetica,sans-Serif" font-size="10.00">configuration.hpp</text>
</a>
</g>
</g>
<!-- Node5&#45;&gt;Node6 -->
<g id="edge5_Node000005_Node000006" class="edge">
<title>Node5&#45;&gt;Node6</title>
<g id="a_edge5_Node000005_Node000006"><a xlink:title=" ">
<path fill="none" stroke="#63b8ff" d="M920.5,-346.37C920.5,-338.25 920.5,-325.81 920.5,-315.39"/>
<polygon fill="#63b8ff" stroke="#63b8ff" points="924,-315.17 920.5,-305.17 917,-315.17 924,-315.17"/>
</a>
</g>
</g>
<!-- Node7 -->
<g id="Node000007" class="node">
<title>Node7</title>
<g id="a_Node000007"><a xlink:href="shared__data_8hpp.html" target="_top" xlink:title="Contains the SharedData struct, used across all modules and extensions.">
<polygon fill="white" stroke="#666666" points="1087.5,-305 989.5,-305 989.5,-286 1087.5,-286 1087.5,-305"/>
<text text-anchor="middle" x="1038.5" y="-293" font-family="Helvetica,sans-Serif" font-size="10.00">shared_data.hpp</text>
</a>
</g>
</g>
<!-- Node5&#45;&gt;Node7 -->
<g id="edge6_Node000005_Node000007" class="edge">
<title>Node5&#45;&gt;Node7</title>
<g id="a_edge6_Node000005_Node000007"><a xlink:title=" ">
<path fill="none" stroke="#63b8ff" d="M937.66,-346.49C957.23,-336.79 989.47,-320.81 1012.22,-309.53"/>
<polygon fill="#63b8ff" stroke="#63b8ff" points="1013.92,-312.59 1021.32,-305.02 1010.81,-306.32 1013.92,-312.59"/>
</a>
</g>
</g>
<!-- Node13 -->
<g id="Node000013" class="node">
<title>Node13</title>
<g id="a_Node000013"><a xlink:title=" ">
<polygon fill="#e0e0e0" stroke="#999999" points="1274.5,-74 1164.5,-74 1164.5,-55 1274.5,-55 1274.5,-74"/>
<text text-anchor="middle" x="1219.5" y="-62" font-family="Helvetica,sans-Serif" font-size="10.00">nlohmann/json.hpp</text>
</a>
</g>
</g>
<!-- Node5&#45;&gt;Node13 -->
<g id="edge69_Node000005_Node000013" class="edge">
<title>Node5&#45;&gt;Node13</title>
<g id="a_edge69_Node000005_Node000013"><a xlink:title=" ">
<path fill="none" stroke="#63b8ff" d="M903.45,-346.35C889.01,-337.98 869.3,-323.79 860.5,-305 835.15,-250.87 857.39,-219.39 898.5,-176 938.77,-133.5 957.88,-131.08 1012.5,-110 1039.18,-99.7 1109.92,-85.48 1161.29,-75.91"/>
<polygon fill="#63b8ff" stroke="#63b8ff" points="1162.09,-79.32 1171.29,-74.06 1160.82,-72.44 1162.09,-79.32"/>
</a>
</g>
</g>
<!-- Node7&#45;&gt;Node4 -->
<g id="edge8_Node000007_Node000004" class="edge">
<title>Node7&#45;&gt;Node4</title>
<g id="a_edge8_Node000007_Node000004"><a xlink:title=" ">
<path fill="none" stroke="#63b8ff" d="M1087.54,-293.51C1168.09,-290.97 1333,-281.97 1468.5,-250 1535.99,-234.08 1552.35,-225.75 1614.5,-195 1655.84,-174.55 1670.46,-173.18 1702.5,-140 1718.5,-123.43 1730.82,-99.79 1738.1,-83.61"/>
<polygon fill="#63b8ff" stroke="#63b8ff" points="1741.41,-84.77 1742.14,-74.2 1734.98,-82.01 1741.41,-84.77"/>
</a>
</g>
</g>
<!-- Node8 -->
<g id="Node000008" class="node">
<title>Node8</title>
<g id="a_Node000008"><a xlink:title=" ">
<polygon fill="#e0e0e0" stroke="#999999" points="1494,-74 1369,-74 1369,-55 1494,-55 1494,-74"/>
<text text-anchor="middle" x="1431.5" y="-62" font-family="Helvetica,sans-Serif" font-size="10.00">BoosterSeat/clock.hpp</text>
</a>
</g>
</g>
<!-- Node7&#45;&gt;Node8 -->
<g id="edge7_Node000007_Node000008" class="edge">
<title>Node7&#45;&gt;Node8</title>
<g id="a_edge7_Node000007_Node000008"><a xlink:title=" ">
<path fill="none" stroke="#63b8ff" d="M1087.7,-291.3C1226,-281.06 1611.85,-243.47 1668.5,-140 1674.9,-128.3 1677.01,-120.26 1668.5,-110 1647.89,-85.16 1566.15,-74.1 1504.39,-69.23"/>
<polygon fill="#63b8ff" stroke="#63b8ff" points="1504.5,-65.73 1494.27,-68.48 1503.98,-72.71 1504.5,-65.73"/>
</a>
</g>
</g>
<!-- Node9 -->
<g id="Node000009" class="node">
<title>Node9</title>
<g id="a_Node000009"><a xlink:href="blocks_8hpp.html" target="_top" xlink:title=" ">
<polygon fill="white" stroke="#666666" points="1434,-195 1365,-195 1365,-176 1434,-176 1434,-195"/>
<text text-anchor="middle" x="1399.5" y="-183" font-family="Helvetica,sans-Serif" font-size="10.00">blocks.hpp</text>
</a>
</g>
</g>
<!-- Node7&#45;&gt;Node9 -->
<g id="edge9_Node000007_Node000009" class="edge">
<title>Node7&#45;&gt;Node9</title>
<g id="a_edge9_Node000007_Node000009"><a xlink:title=" ">
<path fill="none" stroke="#63b8ff" d="M1087.63,-288.08C1133.38,-281.31 1203.11,-268.97 1261.5,-250 1302.6,-236.65 1347.63,-214.37 1374.72,-200.06"/>
<polygon fill="#63b8ff" stroke="#63b8ff" points="1376.67,-202.99 1383.84,-195.19 1373.38,-196.81 1376.67,-202.99"/>
</a>
</g>
</g>
<!-- Node19 -->
<g id="Node000019" class="node">
<title>Node19</title>
<g id="a_Node000019"><a xlink:href="error__frame_8hpp.html" target="_top" xlink:title="The error frame.">
<polygon fill="white" stroke="#666666" points="775,-250 680,-250 680,-231 775,-231 775,-250"/>
<text text-anchor="middle" x="727.5" y="-238" font-family="Helvetica,sans-Serif" font-size="10.00">error_frame.hpp</text>
</a>
</g>
</g>
<!-- Node7&#45;&gt;Node19 -->
<g id="edge28_Node000007_Node000019" class="edge">
<title>Node7&#45;&gt;Node19</title>
<g id="a_edge28_Node000007_Node000019"><a xlink:title=" ">
<path fill="none" stroke="#63b8ff" d="M989.22,-286.1C933.8,-276.66 843.9,-261.34 785.23,-251.34"/>
<polygon fill="#63b8ff" stroke="#63b8ff" points="785.46,-247.83 775.02,-249.6 784.29,-254.73 785.46,-247.83"/>
</a>
</g>
</g>
<!-- Node20 -->
<g id="Node000020" class="node">
<title>Node20</title>
<g id="a_Node000020"><a xlink:href="frame_8hpp.html" target="_top" xlink:title=" ">
<polygon fill="white" stroke="#666666" points="275,-195 208,-195 208,-176 275,-176 275,-195"/>
<text text-anchor="middle" x="241.5" y="-183" font-family="Helvetica,sans-Serif" font-size="10.00">frame.hpp</text>
</a>
</g>
</g>
<!-- Node7&#45;&gt;Node20 -->
<g id="edge62_Node000007_Node000020" class="edge">
<title>Node7&#45;&gt;Node20</title>
<g id="a_edge62_Node000007_Node000020"><a xlink:title=" ">
<path fill="none" stroke="#63b8ff" d="M989.26,-287.3C985.96,-286.85 982.68,-286.41 979.5,-286 842.4,-268.14 807.57,-268.12 670.5,-250 529.53,-231.36 363.06,-205.66 285.45,-193.46"/>
<polygon fill="#63b8ff" stroke="#63b8ff" points="285.52,-189.93 275.1,-191.84 284.43,-196.85 285.52,-189.93"/>
</a>
</g>
</g>
<!-- Node23 -->
<g id="Node000023" class="node">
<title>Node23</title>
<g id="a_Node000023"><a xlink:href="streams_8hpp.html" target="_top" xlink:title="The header file for the data streams.">
<polygon fill="white" stroke="#666666" points="766,-195 689,-195 689,-176 766,-176 766,-195"/>
<text text-anchor="middle" x="727.5" y="-183" font-family="Helvetica,sans-Serif" font-size="10.00">streams.hpp</text>
</a>
</g>
</g>
<!-- Node7&#45;&gt;Node23 -->
<g id="edge68_Node000007_Node000023" class="edge">
<title>Node7&#45;&gt;Node23</title>
<g id="a_edge68_Node000007_Node000023"><a xlink:title=" ">
<path fill="none" stroke="#63b8ff" d="M999.27,-285.97C964.88,-278.06 913.76,-265.23 870.5,-250 828.55,-235.24 781.78,-213.39 753.51,-199.55"/>
<polygon fill="#63b8ff" stroke="#63b8ff" points="754.83,-196.31 744.31,-195.02 751.73,-202.58 754.83,-196.31"/>
</a>
</g>
</g>
<!-- Node31 -->
<g id="Node000031" class="node">
<title>Node31</title>
<g id="a_Node000031"><a xlink:href="flight__data_8hpp.html" target="_top" xlink:title=" ">
<polygon fill="white" stroke="#666666" points="1252,-250 1163,-250 1163,-231 1252,-231 1252,-250"/>
<text text-anchor="middle" x="1207.5" y="-238" font-family="Helvetica,sans-Serif" font-size="10.00">flight_data.hpp</text>
</a>
</g>
</g>
<!-- Node7&#45;&gt;Node31 -->
<g id="edge51_Node000007_Node000031" class="edge">
<title>Node7&#45;&gt;Node31</title>
<g id="a_edge51_Node000007_Node000031"><a xlink:title=" ">
<path fill="none" stroke="#63b8ff" d="M1065.65,-285.98C1094.03,-277.09 1138.73,-263.07 1170.36,-253.15"/>
<polygon fill="#63b8ff" stroke="#63b8ff" points="1171.64,-256.41 1180.13,-250.08 1169.55,-249.73 1171.64,-256.41"/>
</a>
</g>
</g>
<!-- Node32 -->
<g id="Node000032" class="node">
<title>Node32</title>
<g id="a_Node000032"><a xlink:href="flight__phase_8hpp.html" target="_top" xlink:title="Contains the flight phase enum and related functions.">
<polygon fill="white" stroke="#666666" points="1070,-195 973,-195 973,-176 1070,-176 1070,-195"/>
<text text-anchor="middle" x="1021.5" y="-183" font-family="Helvetica,sans-Serif" font-size="10.00">flight_phase.hpp</text>
</a>
</g>
</g>
<!-- Node7&#45;&gt;Node32 -->
<g id="edge61_Node000007_Node000032" class="edge">
<title>Node7&#45;&gt;Node32</title>
<g id="a_edge61_Node000007_Node000032"><a xlink:title=" ">
<path fill="none" stroke="#63b8ff" d="M1037.11,-285.66C1034.36,-268.17 1028.16,-228.8 1024.46,-205.27"/>
<polygon fill="#63b8ff" stroke="#63b8ff" points="1027.88,-204.49 1022.86,-195.16 1020.96,-205.58 1027.88,-204.49"/>
</a>
</g>
</g>
<!-- Node34 -->
<g id="Node000034" class="node">
<title>Node34</title>
<g id="a_Node000034"><a xlink:href="log__container_8hpp.html" target="_top" xlink:title="A simple logging system for debugging.">
<polygon fill="white" stroke="#666666" points="983,-250 880,-250 880,-231 983,-231 983,-250"/>
<text text-anchor="middle" x="931.5" y="-238" font-family="Helvetica,sans-Serif" font-size="10.00">log_container.hpp</text>
</a>
</g>
</g>
<!-- Node7&#45;&gt;Node34 -->
<g id="edge63_Node000007_Node000034" class="edge">
<title>Node7&#45;&gt;Node34</title>
<g id="a_edge63_Node000007_Node000034"><a xlink:title=" ">
<path fill="none" stroke="#63b8ff" d="M1021.31,-285.98C1004.25,-277.54 977.87,-264.47 958.1,-254.68"/>
<polygon fill="#63b8ff" stroke="#63b8ff" points="959.52,-251.47 949,-250.17 956.41,-257.75 959.52,-251.47"/>
</a>
</g>
</g>
<!-- Node36 -->
<g id="Node000036" class="node">
<title>Node36</title>
<g id="a_Node000036"><a xlink:href="status__led_8hpp.html" target="_top" xlink:title="RGB Status LED extension header file.">
<polygon fill="white" stroke="#666666" points="1140.5,-250 1052.5,-250 1052.5,-231 1140.5,-231 1140.5,-250"/>
<text text-anchor="middle" x="1096.5" y="-238" font-family="Helvetica,sans-Serif" font-size="10.00">status_led.hpp</text>
</a>
</g>
</g>
<!-- Node7&#45;&gt;Node36 -->
<g id="edge66_Node000007_Node000036" class="edge">
<title>Node7&#45;&gt;Node36</title>
<g id="a_edge66_Node000007_Node000036"><a xlink:title=" ">
<path fill="none" stroke="#63b8ff" d="M1047.82,-285.98C1056.31,-278.23 1069.06,-266.58 1079.38,-257.14"/>
<polygon fill="#63b8ff" stroke="#63b8ff" points="1081.99,-259.5 1087.01,-250.17 1077.27,-254.33 1081.99,-259.5"/>
</a>
</g>
</g>
<!-- Node9&#45;&gt;Node4 -->
<g id="edge13_Node000009_Node000004" class="edge">
<title>Node9&#45;&gt;Node4</title>
<g id="a_edge13_Node000009_Node000004"><a xlink:title=" ">
<path fill="none" stroke="#63b8ff" d="M1406.93,-175.92C1421.19,-160.06 1454.13,-126.3 1489.5,-110 1548.2,-82.95 1621.37,-72.24 1674.44,-68.05"/>
<polygon fill="#63b8ff" stroke="#63b8ff" points="1674.72,-71.54 1684.44,-67.32 1674.21,-64.56 1674.72,-71.54"/>
</a>
</g>
</g>
<!-- Node9&#45;&gt;Node8 -->
<g id="edge11_Node000009_Node000008" class="edge">
<title>Node9&#45;&gt;Node8</title>
<g id="a_edge11_Node000009_Node000008"><a xlink:title=" ">
<path fill="none" stroke="#63b8ff" d="M1401.8,-175.94C1406.94,-156.82 1419.46,-110.27 1426.49,-84.12"/>
<polygon fill="#63b8ff" stroke="#63b8ff" points="1429.92,-84.87 1429.13,-74.3 1423.16,-83.05 1429.92,-84.87"/>
</a>
</g>
</g>
<!-- Node9&#45;&gt;Node9 -->
<g id="edge14_Node000009_Node000009" class="edge">
<title>Node9&#45;&gt;Node9</title>
<g id="a_edge14_Node000009_Node000009"><a xlink:title=" ">
<path fill="none" stroke="#63b8ff" d="M1424.07,-195.03C1438.5,-197.06 1452,-193.88 1452,-185.5 1452,-179.15 1444.25,-175.78 1434.21,-175.41"/>
<polygon fill="#63b8ff" stroke="#63b8ff" points="1433.87,-171.92 1424.07,-175.97 1434.25,-178.91 1433.87,-171.92"/>
</a>
</g>
</g>
<!-- Node10 -->
<g id="Node000010" class="node">
<title>Node10</title>
<g id="a_Node000010"><a xlink:title=" ">
<polygon fill="#e0e0e0" stroke="#999999" points="483.5,-74 435.5,-74 435.5,-55 483.5,-55 483.5,-74"/>
<text text-anchor="middle" x="459.5" y="-62" font-family="Helvetica,sans-Serif" font-size="10.00">mutex</text>
</a>
</g>
</g>
<!-- Node9&#45;&gt;Node10 -->
<g id="edge10_Node000009_Node000010" class="edge">
<title>Node9&#45;&gt;Node10</title>
<g id="a_edge10_Node000009_Node000010"><a xlink:title=" ">
<path fill="none" stroke="#63b8ff" d="M1364.93,-177.7C1361.75,-177.11 1358.57,-176.54 1355.5,-176 1254.02,-158.23 1222.67,-176.96 1126.5,-140 1103.72,-131.24 1103.63,-117.79 1080.5,-110 970.47,-72.96 607.82,-66.75 493.99,-65.71"/>
<polygon fill="#63b8ff" stroke="#63b8ff" points="493.8,-62.21 483.77,-65.62 493.74,-69.21 493.8,-62.21"/>
</a>
</g>
</g>
<!-- Node11 -->
<g id="Node000011" class="node">
<title>Node11</title>
<g id="a_Node000011"><a xlink:title=" ">
<polygon fill="#e0e0e0" stroke="#999999" points="1641,-134.5 1498,-134.5 1498,-115.5 1641,-115.5 1641,-134.5"/>
<text text-anchor="middle" x="1569.5" y="-122.5" font-family="Helvetica,sans-Serif" font-size="10.00">BoosterSeat/numbers.hpp</text>
</a>
</g>
</g>
<!-- Node9&#45;&gt;Node11 -->
<g id="edge12_Node000009_Node000011" class="edge">
<title>Node9&#45;&gt;Node11</title>
<g id="a_edge12_Node000009_Node000011"><a xlink:title=" ">
<path fill="none" stroke="#63b8ff" d="M1424.22,-175.99C1453.43,-165.94 1502.2,-149.16 1535.09,-137.84"/>
<polygon fill="#63b8ff" stroke="#63b8ff" points="1536.43,-141.08 1544.75,-134.52 1534.16,-134.46 1536.43,-141.08"/>
</a>
</g>
</g>
<!-- Node12 -->
<g id="Node000012" class="node">
<title>Node12</title>
<g id="a_Node000012"><a xlink:href="json_8hpp.html" target="_top" xlink:title="Simple wrapper around nlohmann/json.hpp to provide a common interface.">
<polygon fill="white" stroke="#666666" points="1261.5,-134.5 1203.5,-134.5 1203.5,-115.5 1261.5,-115.5 1261.5,-134.5"/>
<text text-anchor="middle" x="1232.5" y="-122.5" font-family="Helvetica,sans-Serif" font-size="10.00">json.hpp</text>
</a>
</g>
</g>
<!-- Node9&#45;&gt;Node12 -->
<g id="edge15_Node000009_Node000012" class="edge">
<title>Node9&#45;&gt;Node12</title>
<g id="a_edge15_Node000009_Node000012"><a xlink:title=" ">
<path fill="none" stroke="#63b8ff" d="M1374.23,-175.96C1348.19,-167.11 1306.43,-152.81 1270.5,-140 1268.66,-139.34 1266.78,-138.67 1264.87,-137.98"/>
<polygon fill="#63b8ff" stroke="#63b8ff" points="1265.97,-134.65 1255.38,-134.52 1263.58,-141.23 1265.97,-134.65"/>
</a>
</g>
</g>
<!-- Node15 -->
<g id="Node000015" class="node">
<title>Node15</title>
<g id="a_Node000015"><a xlink:href="node_8hpp.html" target="_top" xlink:title="Contains structures that are used to identify components of the flight system.">
<polygon fill="white" stroke="#666666" points="1084.5,-74 1022.5,-74 1022.5,-55 1084.5,-55 1084.5,-74"/>
<text text-anchor="middle" x="1053.5" y="-62" font-family="Helvetica,sans-Serif" font-size="10.00">node.hpp</text>
</a>
</g>
</g>
<!-- Node9&#45;&gt;Node15 -->
<g id="edge18_Node000009_Node000015" class="edge">
<title>Node9&#45;&gt;Node15</title>
<g id="a_edge18_Node000009_Node000015"><a xlink:title=" ">
<path fill="none" stroke="#63b8ff" d="M1364.59,-177.46C1310.33,-166.44 1210.32,-145.77 1194.5,-140 1150.3,-123.87 1102.64,-96.32 1075.6,-79.62"/>
<polygon fill="#63b8ff" stroke="#63b8ff" points="1077.26,-76.54 1066.93,-74.21 1073.55,-82.47 1077.26,-76.54"/>
</a>
</g>
</g>
<!-- Node18 -->
<g id="Node000018" class="node">
<title>Node18</title>
<g id="a_Node000018"><a xlink:href="positional_8hpp.html" target="_top" xlink:title="Positional data for the flight system (gps/imu data)">
<polygon fill="white" stroke="#666666" points="1365.5,-134.5 1279.5,-134.5 1279.5,-115.5 1365.5,-115.5 1365.5,-134.5"/>
<text text-anchor="middle" x="1322.5" y="-122.5" font-family="Helvetica,sans-Serif" font-size="10.00">positional.hpp</text>
</a>
</g>
</g>
<!-- Node9&#45;&gt;Node18 -->
<g id="edge21_Node000009_Node000018" class="edge">
<title>Node9&#45;&gt;Node18</title>
<g id="a_edge21_Node000009_Node000018"><a xlink:title=" ">
<path fill="none" stroke="#63b8ff" d="M1388.14,-175.87C1376.08,-166.71 1356.8,-152.06 1342.25,-141.01"/>
<polygon fill="#63b8ff" stroke="#63b8ff" points="1343.99,-137.93 1333.91,-134.67 1339.75,-143.5 1343.99,-137.93"/>
</a>
</g>
</g>
<!-- Node12&#45;&gt;Node13 -->
<g id="edge16_Node000012_Node000013" class="edge">
<title>Node12&#45;&gt;Node13</title>
<g id="a_edge16_Node000012_Node000013"><a xlink:title=" ">
<path fill="none" stroke="#63b8ff" d="M1230.58,-115.37C1228.76,-107.16 1225.95,-94.54 1223.62,-84.05"/>
<polygon fill="#63b8ff" stroke="#63b8ff" points="1227.01,-83.17 1221.43,-74.17 1220.18,-84.69 1227.01,-83.17"/>
</a>
</g>
</g>
<!-- Node14 -->
<g id="Node000014" class="node">
<title>Node14</title>
<g id="a_Node000014"><a xlink:title=" ">
<polygon fill="#e0e0e0" stroke="#999999" points="1146.5,-74 1102.5,-74 1102.5,-55 1146.5,-55 1146.5,-74"/>
<text text-anchor="middle" x="1124.5" y="-62" font-family="Helvetica,sans-Serif" font-size="10.00">string</text>
</a>
</g>
</g>
<!-- Node12&#45;&gt;Node14 -->
<g id="edge17_Node000012_Node000014" class="edge">
<title>Node12&#45;&gt;Node14</title>
<g id="a_edge17_Node000012_Node000014"><a xlink:title=" ">
<path fill="none" stroke="#63b8ff" d="M1216.56,-115.37C1198.86,-105.78 1170.04,-90.17 1149.36,-78.97"/>
<polygon fill="#63b8ff" stroke="#63b8ff" points="1150.96,-75.85 1140.5,-74.17 1147.63,-82.01 1150.96,-75.85"/>
</a>
</g>
</g>
<!-- Node16 -->
<g id="Node000016" class="node">
<title>Node16</title>
<g id="a_Node000016"><a xlink:title=" ">
<polygon fill="#e0e0e0" stroke="#999999" points="1190.5,-19 1140.5,-19 1140.5,0 1190.5,0 1190.5,-19"/>
<text text-anchor="middle" x="1165.5" y="-7" font-family="Helvetica,sans-Serif" font-size="10.00">cstdint</text>
</a>
</g>
</g>
<!-- Node15&#45;&gt;Node16 -->
<g id="edge19_Node000015_Node000016" class="edge">
<title>Node15&#45;&gt;Node16</title>
<g id="a_edge19_Node000015_Node000016"><a xlink:title=" ">
<path fill="none" stroke="#63b8ff" d="M1071.49,-54.98C1089.43,-46.5 1117.22,-33.35 1137.93,-23.54"/>
<polygon fill="#63b8ff" stroke="#63b8ff" points="1139.64,-26.61 1147.18,-19.17 1136.64,-20.28 1139.64,-26.61"/>
</a>
</g>
</g>
<!-- Node17 -->
<g id="Node000017" class="node">
<title>Node17</title>
<g id="a_Node000017"><a xlink:title=" ">
<polygon fill="#e0e0e0" stroke="#999999" points="1302.5,-19 1264.5,-19 1264.5,0 1302.5,0 1302.5,-19"/>
<text text-anchor="middle" x="1283.5" y="-7" font-family="Helvetica,sans-Serif" font-size="10.00">map</text>
</a>
</g>
</g>
<!-- Node15&#45;&gt;Node17 -->
<g id="edge20_Node000015_Node000017" class="edge">
<title>Node15&#45;&gt;Node17</title>
<g id="a_edge20_Node000015_Node000017"><a xlink:title=" ">
<path fill="none" stroke="#63b8ff" d="M1084.52,-56.35C1129.15,-46.07 1210.89,-27.23 1254.42,-17.2"/>
<polygon fill="#63b8ff" stroke="#63b8ff" points="1255.4,-20.57 1264.36,-14.91 1253.83,-13.74 1255.4,-20.57"/>
</a>
</g>
</g>
<!-- Node18&#45;&gt;Node4 -->
<g id="edge27_Node000018_Node000004" class="edge">
<title>Node18&#45;&gt;Node4</title>
<g id="a_edge27_Node000018_Node000004"><a xlink:title=" ">
<path fill="none" stroke="#63b8ff" d="M1365.78,-118.01C1438.57,-107.95 1586.16,-87.54 1674.37,-75.34"/>
<polygon fill="#63b8ff" stroke="#63b8ff" points="1674.87,-78.8 1684.29,-73.97 1673.91,-71.87 1674.87,-78.8"/>
</a>
</g>
</g>
<!-- Node18&#45;&gt;Node8 -->
<g id="edge26_Node000018_Node000008" class="edge">
<title>Node18&#45;&gt;Node8</title>
<g id="a_edge26_Node000018_Node000008"><a xlink:title=" ">
<path fill="none" stroke="#63b8ff" d="M1338.58,-115.37C1356.45,-105.78 1385.54,-90.17 1406.41,-78.97"/>
<polygon fill="#63b8ff" stroke="#63b8ff" points="1408.19,-81.98 1415.35,-74.17 1404.88,-75.81 1408.19,-81.98"/>
</a>
</g>
</g>
<!-- Node18&#45;&gt;Node13 -->
<g id="edge25_Node000018_Node000013" class="edge">
<title>Node18&#45;&gt;Node13</title>
<g id="a_edge25_Node000018_Node000013"><a xlink:title=" ">
<path fill="none" stroke="#63b8ff" d="M1307.3,-115.37C1290.49,-105.82 1263.18,-90.31 1243.48,-79.12"/>
<polygon fill="#63b8ff" stroke="#63b8ff" points="1245.18,-76.06 1234.76,-74.17 1241.73,-82.15 1245.18,-76.06"/>
</a>
</g>
</g>
<!-- Node18&#45;&gt;Node14 -->
<g id="edge24_Node000018_Node000014" class="edge">
<title>Node18&#45;&gt;Node14</title>
<g id="a_edge24_Node000018_Node000014"><a xlink:title=" ">
<path fill="none" stroke="#63b8ff" d="M1293.71,-115.49C1257.24,-104.72 1194.58,-86.21 1156.6,-74.98"/>
<polygon fill="#63b8ff" stroke="#63b8ff" points="1157.17,-71.5 1146.59,-72.03 1155.18,-78.22 1157.17,-71.5"/>
</a>
</g>
</g>
<!-- Node18&#45;&gt;Node16 -->
<g id="edge22_Node000018_Node000016" class="edge">
<title>Node18&#45;&gt;Node16</title>
<g id="a_edge22_Node000018_Node000016"><a xlink:title=" ">
<path fill="none" stroke="#63b8ff" d="M1319.71,-115.08C1314.72,-100.53 1302.93,-71.65 1283.5,-55 1259.83,-34.72 1225.99,-23.23 1200.61,-17.03"/>
<polygon fill="#63b8ff" stroke="#63b8ff" points="1201.18,-13.57 1190.65,-14.76 1199.62,-20.39 1201.18,-13.57"/>
</a>
</g>
</g>
<!-- Node18&#45;&gt;Node17 -->
<g id="edge23_Node000018_Node000017" class="edge">
<title>Node18&#45;&gt;Node17</title>
<g id="a_edge23_Node000018_Node000017"><a xlink:title=" ">
<path fill="none" stroke="#63b8ff" d="M1323.23,-115.17C1324.02,-101.7 1324.26,-75.46 1316.5,-55 1312.59,-44.7 1305.57,-34.7 1299.01,-26.81"/>
<polygon fill="#63b8ff" stroke="#63b8ff" points="1301.48,-24.32 1292.24,-19.14 1296.24,-28.95 1301.48,-24.32"/>
</a>
</g>
</g>
<!-- Node19&#45;&gt;Node8 -->
<g id="edge29_Node000019_Node000008" class="edge">
<title>Node19&#45;&gt;Node8</title>
<g id="a_edge29_Node000019_Node000008"><a xlink:title=" ">
<path fill="none" stroke="#63b8ff" d="M745.46,-230.91C776.07,-216.71 840.65,-188.66 898.5,-176 1002.13,-153.31 1281.23,-190.54 1374.5,-140 1397.59,-127.49 1414.21,-101.18 1423.34,-83.42"/>
<polygon fill="#63b8ff" stroke="#63b8ff" points="1426.53,-84.87 1427.75,-74.35 1420.23,-81.81 1426.53,-84.87"/>
</a>
</g>
</g>
<!-- Node19&#45;&gt;Node20 -->
<g id="edge30_Node000019_Node000020" class="edge">
<title>Node19&#45;&gt;Node20</title>
<g id="a_edge30_Node000019_Node000020"><a xlink:title=" ">
<path fill="none" stroke="#63b8ff" d="M679.79,-232.8C674.97,-232.17 670.14,-231.56 665.5,-231 526.9,-214.23 362.35,-198.01 285.34,-190.64"/>
<polygon fill="#63b8ff" stroke="#63b8ff" points="285.36,-187.12 275.07,-189.66 284.69,-194.09 285.36,-187.12"/>
</a>
</g>
</g>
<!-- Node22 -->
<g id="Node000022" class="node">
<title>Node22</title>
<g id="a_Node000022"><a xlink:href="giraffe__diagnostic__ids_8hpp.html" target="_top" xlink:title=" ">
<polygon fill="white" stroke="#666666" points="253.5,-140 149.5,-140 149.5,-110 253.5,-110 253.5,-140"/>
<text text-anchor="start" x="157.5" y="-128" font-family="Helvetica,sans-Serif" font-size="10.00">giraffe_diagnostic</text>
<text text-anchor="middle" x="201.5" y="-117" font-family="Helvetica,sans-Serif" font-size="10.00">_ids.hpp</text>
</a>
</g>
</g>
<!-- Node19&#45;&gt;Node22 -->
<g id="edge33_Node000019_Node000022" class="edge">
<title>Node19&#45;&gt;Node22</title>
<g id="a_edge33_Node000019_Node000022"><a xlink:title=" ">
<path fill="none" stroke="#63b8ff" d="M687.96,-230.97C597.14,-211.37 373.03,-163.01 263.61,-139.4"/>
<polygon fill="#63b8ff" stroke="#63b8ff" points="264.22,-135.95 253.71,-137.27 262.74,-142.8 264.22,-135.95"/>
</a>
</g>
</g>
<!-- Node19&#45;&gt;Node23 -->
<g id="edge34_Node000019_Node000023" class="edge">
<title>Node19&#45;&gt;Node23</title>
<g id="a_edge34_Node000019_Node000023"><a xlink:title=" ">
<path fill="none" stroke="#63b8ff" d="M727.5,-230.75C727.5,-223.8 727.5,-213.85 727.5,-205.13"/>
<polygon fill="#63b8ff" stroke="#63b8ff" points="731,-205.09 727.5,-195.09 724,-205.09 731,-205.09"/>
</a>
</g>
</g>
<!-- Node20&#45;&gt;Node10 -->
<g id="edge31_Node000020_Node000010" class="edge">
<title>Node20&#45;&gt;Node10</title>
<g id="a_edge31_Node000020_Node000010"><a xlink:title=" ">
<path fill="none" stroke="#63b8ff" d="M207.6,-179.33C184.4,-173.83 155.26,-162.63 140.5,-140 133.22,-128.83 131.68,-120 140.5,-110 180.97,-64.12 347.62,-84 425.11,-73.73"/>
<polygon fill="#63b8ff" stroke="#63b8ff" points="426.11,-77.12 435.43,-72.08 425,-70.21 426.11,-77.12"/>
</a>
</g>
</g>
<!-- Node21 -->
<g id="Node000021" class="node">
<title>Node21</title>
<g id="a_Node000021"><a xlink:title=" ">
<polygon fill="#e0e0e0" stroke="#999999" points="93,-134.5 0,-134.5 0,-115.5 93,-115.5 93,-134.5"/>
<text text-anchor="middle" x="46.5" y="-122.5" font-family="Helvetica,sans-Serif" font-size="10.00">unordered_map</text>
</a>
</g>
</g>
<!-- Node20&#45;&gt;Node21 -->
<g id="edge32_Node000020_Node000021" class="edge">
<title>Node20&#45;&gt;Node21</title>
<g id="a_edge32_Node000020_Node000021"><a xlink:title=" ">
<path fill="none" stroke="#63b8ff" d="M213.15,-175.99C179.21,-165.81 122.24,-148.72 84.51,-137.4"/>
<polygon fill="#63b8ff" stroke="#63b8ff" points="85.47,-134.04 74.89,-134.52 83.46,-140.74 85.47,-134.04"/>
</a>
</g>
</g>
<!-- Node23&#45;&gt;Node8 -->
<g id="edge40_Node000023_Node000008" class="edge">
<title>Node23&#45;&gt;Node8</title>
<g id="a_edge40_Node000023_Node000008"><a xlink:title=" ">
<path fill="none" stroke="#63b8ff" d="M754.71,-175.93C805.06,-160.39 916.41,-127.56 1012.5,-110 1132.87,-88 1274.83,-75.75 1358.77,-69.9"/>
<polygon fill="#63b8ff" stroke="#63b8ff" points="1359.23,-73.38 1368.97,-69.21 1358.75,-66.4 1359.23,-73.38"/>
</a>
</g>
</g>
<!-- Node23&#45;&gt;Node10 -->
<g id="edge37_Node000023_Node000010" class="edge">
<title>Node23&#45;&gt;Node10</title>
<g id="a_edge37_Node000023_Node000010"><a xlink:title=" ">
<path fill="none" stroke="#63b8ff" d="M688.8,-181.23C614.62,-174.58 458.33,-158.5 442.5,-140 428.94,-124.16 438.44,-99.69 447.79,-83.16"/>
<polygon fill="#63b8ff" stroke="#63b8ff" points="450.87,-84.82 453.11,-74.47 444.9,-81.17 450.87,-84.82"/>
</a>
</g>
</g>
<!-- Node23&#45;&gt;Node14 -->
<g id="edge39_Node000023_Node000014" class="edge">
<title>Node23&#45;&gt;Node14</title>
<g id="a_edge39_Node000023_Node000014"><a xlink:title=" ">
<path fill="none" stroke="#63b8ff" d="M744.53,-175.84C775.44,-160.45 843.16,-128.26 903.5,-110 982.79,-86.01 1007.96,-92.82 1092.45,-74.06"/>
<polygon fill="#63b8ff" stroke="#63b8ff" points="1093.23,-77.48 1102.2,-71.84 1091.68,-70.65 1093.23,-77.48"/>
</a>
</g>
</g>
<!-- Node23&#45;&gt;Node15 -->
<g id="edge49_Node000023_Node000015" class="edge">
<title>Node23&#45;&gt;Node15</title>
<g id="a_edge49_Node000023_Node000015"><a xlink:title=" ">
<path fill="none" stroke="#63b8ff" d="M738.34,-175.99C762.14,-157.39 817.6,-114.39 827.5,-110 888.34,-83.03 965.58,-72.32 1012.19,-68.12"/>
<polygon fill="#63b8ff" stroke="#63b8ff" points="1012.55,-71.61 1022.22,-67.28 1011.96,-64.63 1012.55,-71.61"/>
</a>
</g>
</g>
<!-- Node23&#45;&gt;Node18 -->
<g id="edge50_Node000023_Node000018" class="edge">
<title>Node23&#45;&gt;Node18</title>
<g id="a_edge50_Node000023_Node000018"><a xlink:title=" ">
<path fill="none" stroke="#63b8ff" d="M766.15,-178.83C773.87,-177.8 781.94,-176.8 789.5,-176 1002.68,-153.43 1059.17,-176.03 1270.5,-140 1275.21,-139.2 1280.1,-138.16 1284.93,-137.01"/>
<polygon fill="#63b8ff" stroke="#63b8ff" points="1285.82,-140.39 1294.65,-134.53 1284.09,-133.61 1285.82,-140.39"/>
</a>
</g>
</g>
<!-- Node23&#45;&gt;Node22 -->
<g id="edge48_Node000023_Node000022" class="edge">
<title>Node23&#45;&gt;Node22</title>
<g id="a_edge48_Node000023_Node000022"><a xlink:title=" ">
<path fill="none" stroke="#63b8ff" d="M688.85,-182.24C609.52,-177.27 422.73,-163.89 267.5,-140 266.23,-139.8 264.95,-139.6 263.66,-139.39"/>
<polygon fill="#63b8ff" stroke="#63b8ff" points="264.09,-135.91 253.64,-137.63 262.88,-142.81 264.09,-135.91"/>
</a>
</g>
</g>
<!-- Node24 -->
<g id="Node000024" class="node">
<title>Node24</title>
<g id="a_Node000024"><a xlink:title=" ">
<polygon fill="#e0e0e0" stroke="#999999" points="1071.5,-134.5 1021.5,-134.5 1021.5,-115.5 1071.5,-115.5 1071.5,-134.5"/>
<text text-anchor="middle" x="1046.5" y="-122.5" font-family="Helvetica,sans-Serif" font-size="10.00">atomic</text>
</a>
</g>
</g>
<!-- Node23&#45;&gt;Node24 -->
<g id="edge35_Node000023_Node000024" class="edge">
<title>Node23&#45;&gt;Node24</title>
<g id="a_edge35_Node000023_Node000024"><a xlink:title=" ">
<path fill="none" stroke="#63b8ff" d="M766.3,-177.39C828.8,-165.92 950.84,-143.54 1011.1,-132.49"/>
<polygon fill="#63b8ff" stroke="#63b8ff" points="1012.06,-135.88 1021.26,-130.63 1010.79,-128.99 1012.06,-135.88"/>
</a>
</g>
</g>
<!-- Node25 -->
<g id="Node000025" class="node">
<title>Node25</title>
<g id="a_Node000025"><a xlink:title=" ">
<polygon fill="#e0e0e0" stroke="#999999" points="511.5,-134.5 451.5,-134.5 451.5,-115.5 511.5,-115.5 511.5,-134.5"/>
<text text-anchor="middle" x="481.5" y="-122.5" font-family="Helvetica,sans-Serif" font-size="10.00">iostream</text>
</a>
</g>
</g>
<!-- Node23&#45;&gt;Node25 -->
<g id="edge36_Node000023_Node000025" class="edge">
<title>Node23&#45;&gt;Node25</title>
<g id="a_edge36_Node000023_Node000025"><a xlink:title=" ">
<path fill="none" stroke="#63b8ff" d="M688.97,-177.8C647.12,-170.16 578.47,-156.56 520.5,-140 518.08,-139.31 515.59,-138.54 513.1,-137.74"/>
<polygon fill="#63b8ff" stroke="#63b8ff" points="514.2,-134.42 503.61,-134.51 511.95,-141.05 514.2,-134.42"/>
</a>
</g>
</g>
<!-- Node26 -->
<g id="Node000026" class="node">
<title>Node26</title>
<g id="a_Node000026"><a xlink:title=" ">
<polygon fill="#e0e0e0" stroke="#999999" points="293,-74 246,-74 246,-55 293,-55 293,-74"/>
<text text-anchor="middle" x="269.5" y="-62" font-family="Helvetica,sans-Serif" font-size="10.00">queue</text>
</a>
</g>
</g>
<!-- Node23&#45;&gt;Node26 -->
<g id="edge38_Node000023_Node000026" class="edge">
<title>Node23&#45;&gt;Node26</title>
<g id="a_edge38_Node000023_Node000026"><a xlink:title=" ">
<path fill="none" stroke="#63b8ff" d="M688.88,-182.71C589.64,-177.81 331.32,-162.96 300.5,-140 282.8,-126.82 275.15,-101.66 271.88,-84.25"/>
<polygon fill="#63b8ff" stroke="#63b8ff" points="275.3,-83.47 270.3,-74.13 268.38,-84.55 275.3,-83.47"/>
</a>
</g>
</g>
<!-- Node27 -->
<g id="Node000027" class="node">
<title>Node27</title>
<g id="a_Node000027"><a xlink:title=" ">
<polygon fill="#e0e0e0" stroke="#999999" points="677.5,-134.5 529.5,-134.5 529.5,-115.5 677.5,-115.5 677.5,-134.5"/>
<text text-anchor="middle" x="603.5" y="-122.5" font-family="Helvetica,sans-Serif" font-size="10.00">BoosterSeat/exception.hpp</text>
</a>
</g>
</g>
<!-- Node23&#45;&gt;Node27 -->
<g id="edge41_Node000023_Node000027" class="edge">
<title>Node23&#45;&gt;Node27</title>
<g id="a_edge41_Node000023_Node000027"><a xlink:title=" ">
<path fill="none" stroke="#63b8ff" d="M709.47,-175.99C688.81,-166.25 654.72,-150.16 630.8,-138.88"/>
<polygon fill="#63b8ff" stroke="#63b8ff" points="632.09,-135.62 621.55,-134.52 629.1,-141.95 632.09,-135.62"/>
</a>
</g>
</g>
<!-- Node28 -->
<g id="Node000028" class="node">
<title>Node28</title>
<g id="a_Node000028"><a xlink:href="command_8hpp.html" target="_top" xlink:title="The command/queue system for the flight system.">
<polygon fill="white" stroke="#666666" points="395.5,-134.5 309.5,-134.5 309.5,-115.5 395.5,-115.5 395.5,-134.5"/>
<text text-anchor="middle" x="352.5" y="-122.5" font-family="Helvetica,sans-Serif" font-size="10.00">command.hpp</text>
</a>
</g>
</g>
<!-- Node23&#45;&gt;Node28 -->
<g id="edge42_Node000023_Node000028" class="edge">
<title>Node23&#45;&gt;Node28</title>
<g id="a_edge42_Node000023_Node000028"><a xlink:title=" ">
<path fill="none" stroke="#63b8ff" d="M688.62,-180.35C628.48,-173.65 509.41,-159.21 409.5,-140 404.75,-139.09 399.8,-138.03 394.88,-136.91"/>
<polygon fill="#63b8ff" stroke="#63b8ff" points="395.46,-133.46 384.93,-134.57 393.86,-140.27 395.46,-133.46"/>
</a>
</g>
</g>
<!-- Node30 -->
<g id="Node000030" class="node">
<title>Node30</title>
<g id="a_Node000030"><a xlink:href="data__ids_8hpp.html" target="_top" xlink:title=" ">
<polygon fill="white" stroke="#666666" points="775,-134.5 696,-134.5 696,-115.5 775,-115.5 775,-134.5"/>
<text text-anchor="middle" x="735.5" y="-122.5" font-family="Helvetica,sans-Serif" font-size="10.00">data_ids.hpp</text>
</a>
</g>
</g>
<!-- Node23&#45;&gt;Node30 -->
<g id="edge47_Node000023_Node000030" class="edge">
<title>Node23&#45;&gt;Node30</title>
<g id="a_edge47_Node000023_Node000030"><a xlink:title=" ">
<path fill="none" stroke="#63b8ff" d="M728.68,-175.87C729.79,-167.75 731.49,-155.31 732.92,-144.89"/>
<polygon fill="#63b8ff" stroke="#63b8ff" points="736.43,-145.05 734.31,-134.67 729.49,-144.1 736.43,-145.05"/>
</a>
</g>
</g>
<!-- Node28&#45;&gt;Node10 -->
<g id="edge43_Node000028_Node000010" class="edge">
<title>Node28&#45;&gt;Node10</title>
<g id="a_edge43_Node000028_Node000010"><a xlink:title=" ">
<path fill="none" stroke="#63b8ff" d="M368.29,-115.37C385.83,-105.78 414.38,-90.17 434.87,-78.97"/>
<polygon fill="#63b8ff" stroke="#63b8ff" points="436.55,-82.04 443.65,-74.17 433.19,-75.89 436.55,-82.04"/>
</a>
</g>
</g>
<!-- Node28&#45;&gt;Node15 -->
<g id="edge46_Node000028_Node000015" class="edge">
<title>Node28&#45;&gt;Node15</title>
<g id="a_edge46_Node000028_Node000015"><a xlink:title=" ">
<path fill="none" stroke="#63b8ff" d="M395.89,-116.52C410.65,-114.17 427.26,-111.74 442.5,-110 656.1,-85.65 913.32,-72.01 1012.1,-67.35"/>
<polygon fill="#63b8ff" stroke="#63b8ff" points="1012.43,-70.84 1022.26,-66.87 1012.11,-63.84 1012.43,-70.84"/>
</a>
</g>
</g>
<!-- Node28&#45;&gt;Node26 -->
<g id="edge44_Node000028_Node000026" class="edge">
<title>Node28&#45;&gt;Node26</title>
<g id="a_edge44_Node000028_Node000026"><a xlink:title=" ">
<path fill="none" stroke="#63b8ff" d="M340.25,-115.37C327.14,-106.12 306.08,-91.28 290.35,-80.19"/>
<polygon fill="#63b8ff" stroke="#63b8ff" points="291.99,-77.07 281.8,-74.17 287.95,-82.79 291.99,-77.07"/>
</a>
</g>
</g>
<!-- Node29 -->
<g id="Node000029" class="node">
<title>Node29</title>
<g id="a_Node000029"><a xlink:href="command__ids_8hpp.html" target="_top" xlink:title=" ">
<polygon fill="white" stroke="#666666" points="417.5,-74 311.5,-74 311.5,-55 417.5,-55 417.5,-74"/>
<text text-anchor="middle" x="364.5" y="-62" font-family="Helvetica,sans-Serif" font-size="10.00">command_ids.hpp</text>
</a>
</g>
</g>
<!-- Node28&#45;&gt;Node29 -->
<g id="edge45_Node000028_Node000029" class="edge">
<title>Node28&#45;&gt;Node29</title>
<g id="a_edge45_Node000028_Node000029"><a xlink:title=" ">
<path fill="none" stroke="#63b8ff" d="M354.27,-115.37C355.95,-107.16 358.54,-94.54 360.69,-84.05"/>
<polygon fill="#63b8ff" stroke="#63b8ff" points="364.14,-84.67 362.72,-74.17 357.28,-83.26 364.14,-84.67"/>
</a>
</g>
</g>
<!-- Node31&#45;&gt;Node4 -->
<g id="edge55_Node000031_Node000004" class="edge">
<title>Node31&#45;&gt;Node4</title>
<g id="a_edge55_Node000031_Node000004"><a xlink:title=" ">
<path fill="none" stroke="#63b8ff" d="M1252.3,-236.7C1338.14,-230.93 1522.62,-216.42 1582.5,-195 1647.54,-171.73 1706.32,-111.02 1731.94,-81.75"/>
<polygon fill="#63b8ff" stroke="#63b8ff" points="1734.67,-83.93 1738.52,-74.06 1729.36,-79.38 1734.67,-83.93"/>
</a>
</g>
</g>
<!-- Node31&#45;&gt;Node8 -->
<g id="edge54_Node000031_Node000008" class="edge">
<title>Node31&#45;&gt;Node8</title>
<g id="a_edge54_Node000031_Node000008"><a xlink:title=" ">
<path fill="none" stroke="#63b8ff" d="M1252.32,-236.56C1355.13,-228.75 1602.77,-203.6 1650.5,-140 1691.22,-85.74 1582.86,-70.65 1504.42,-66.66"/>
<polygon fill="#63b8ff" stroke="#63b8ff" points="1504.2,-63.15 1494.05,-66.19 1503.88,-70.14 1504.2,-63.15"/>
</a>
</g>
</g>
<!-- Node31&#45;&gt;Node12 -->
<g id="edge60_Node000031_Node000012" class="edge">
<title>Node31&#45;&gt;Node12</title>
<g id="a_edge60_Node000031_Node000012"><a xlink:title=" ">
<path fill="none" stroke="#63b8ff" d="M1209.38,-230.97C1213.4,-212.73 1222.9,-169.57 1228.39,-144.64"/>
<polygon fill="#63b8ff" stroke="#63b8ff" points="1231.87,-145.15 1230.6,-134.63 1225.03,-143.64 1231.87,-145.15"/>
</a>
</g>
</g>
<!-- Node31&#45;&gt;Node14 -->
<g id="edge53_Node000031_Node000014" class="edge">
<title>Node31&#45;&gt;Node14</title>
<g id="a_edge53_Node000031_Node000014"><a xlink:title=" ">
<path fill="none" stroke="#63b8ff" d="M1203.27,-230.63C1190.23,-203.29 1150.45,-119.9 1132.93,-83.18"/>
<polygon fill="#63b8ff" stroke="#63b8ff" points="1136.09,-81.66 1128.62,-74.14 1129.77,-84.68 1136.09,-81.66"/>
</a>
</g>
</g>
<!-- Node31&#45;&gt;Node24 -->
<g id="edge52_Node000031_Node000024" class="edge">
<title>Node31&#45;&gt;Node24</title>
<g id="a_edge52_Node000031_Node000024"><a xlink:title=" ">
<path fill="none" stroke="#63b8ff" d="M1195.4,-230.97C1168.01,-211.66 1101.02,-164.43 1067.01,-140.46"/>
<polygon fill="#63b8ff" stroke="#63b8ff" points="1068.93,-137.53 1058.74,-134.63 1064.9,-143.25 1068.93,-137.53"/>
</a>
</g>
</g>
<!-- Node31&#45;&gt;Node32 -->
<g id="edge56_Node000031_Node000032" class="edge">
<title>Node31&#45;&gt;Node32</title>
<g id="a_edge56_Node000031_Node000032"><a xlink:title=" ">
<path fill="none" stroke="#63b8ff" d="M1177.62,-230.98C1146.12,-222.01 1096.33,-207.82 1061.47,-197.89"/>
<polygon fill="#63b8ff" stroke="#63b8ff" points="1062.19,-194.46 1051.62,-195.08 1060.28,-201.19 1062.19,-194.46"/>
</a>
</g>
</g>
<!-- Node33 -->
<g id="Node000033" class="node">
<title>Node33</title>
<g id="a_Node000033"><a xlink:href="i__built__in__test_8hpp.html" target="_top" xlink:title=" ">
<polygon fill="white" stroke="#666666" points="1346.5,-195 1240.5,-195 1240.5,-176 1346.5,-176 1346.5,-195"/>
<text text-anchor="middle" x="1293.5" y="-183" font-family="Helvetica,sans-Serif" font-size="10.00">i_built_in_test.hpp</text>
</a>
</g>
</g>
<!-- Node31&#45;&gt;Node33 -->
<g id="edge58_Node000031_Node000033" class="edge">
<title>Node31&#45;&gt;Node33</title>
<g id="a_edge58_Node000031_Node000033"><a xlink:title=" ">
<path fill="none" stroke="#63b8ff" d="M1221.32,-230.98C1234.65,-222.77 1255.08,-210.18 1270.81,-200.49"/>
<polygon fill="#63b8ff" stroke="#63b8ff" points="1272.75,-203.4 1279.43,-195.17 1269.08,-197.44 1272.75,-203.4"/>
</a>
</g>
</g>
<!-- Node32&#45;&gt;Node14 -->
<g id="edge57_Node000032_Node000014" class="edge">
<title>Node32&#45;&gt;Node14</title>
<g id="a_edge57_Node000032_Node000014"><a xlink:title=" ">
<path fill="none" stroke="#63b8ff" d="M1017.02,-175.81C1010.05,-160.94 998.75,-130.27 1012.5,-110 1017.28,-102.95 1061.32,-86.86 1092.72,-76.08"/>
<polygon fill="#63b8ff" stroke="#63b8ff" points="1094.06,-79.32 1102.4,-72.79 1091.81,-72.7 1094.06,-79.32"/>
</a>
</g>
</g>
<!-- Node33&#45;&gt;Node12 -->
<g id="edge59_Node000033_Node000012" class="edge">
<title>Node33&#45;&gt;Node12</title>
<g id="a_edge59_Node000033_Node000012"><a xlink:title=" ">
<path fill="none" stroke="#63b8ff" d="M1284.5,-175.87C1275.13,-166.88 1260.25,-152.61 1248.8,-141.64"/>
<polygon fill="#63b8ff" stroke="#63b8ff" points="1251.18,-139.06 1241.54,-134.67 1246.33,-144.12 1251.18,-139.06"/>
</a>
</g>
</g>
<!-- Node34&#45;&gt;Node10 -->
<g id="edge65_Node000034_Node000010" class="edge">
<title>Node34&#45;&gt;Node10</title>
<g id="a_edge65_Node000034_Node000010"><a xlink:title=" ">
<path fill="none" stroke="#63b8ff" d="M924.66,-230.66C905.44,-206.54 848.12,-139.45 783.5,-110 732.39,-86.71 566.77,-72.84 494.15,-67.74"/>
<polygon fill="#63b8ff" stroke="#63b8ff" points="493.95,-64.22 483.73,-67.02 493.47,-71.2 493.95,-64.22"/>
</a>
</g>
</g>
<!-- Node35 -->
<g id="Node000035" class="node">
<title>Node35</title>
<g id="a_Node000035"><a xlink:title=" ">
<polygon fill="#e0e0e0" stroke="#999999" points="955,-195 908,-195 908,-176 955,-176 955,-195"/>
<text text-anchor="middle" x="931.5" y="-183" font-family="Helvetica,sans-Serif" font-size="10.00">deque</text>
</a>
</g>
</g>
<!-- Node34&#45;&gt;Node35 -->
<g id="edge64_Node000034_Node000035" class="edge">
<title>Node34&#45;&gt;Node35</title>
<g id="a_edge64_Node000034_Node000035"><a xlink:title=" ">
<path fill="none" stroke="#63b8ff" d="M931.5,-230.75C931.5,-223.8 931.5,-213.85 931.5,-205.13"/>
<polygon fill="#63b8ff" stroke="#63b8ff" points="935,-205.09 931.5,-195.09 928,-205.09 935,-205.09"/>
</a>
</g>
</g>
<!-- Node36&#45;&gt;Node24 -->
<g id="edge67_Node000036_Node000024" class="edge">
<title>Node36&#45;&gt;Node24</title>
<g id="a_edge67_Node000036_Node000024"><a xlink:title=" ">
<path fill="none" stroke="#63b8ff" d="M1095.12,-230.99C1092.91,-218.52 1087.92,-194.74 1079.5,-176 1074.2,-164.21 1066.27,-152.08 1059.51,-142.73"/>
<polygon fill="#63b8ff" stroke="#63b8ff" points="1062.3,-140.62 1053.51,-134.7 1056.7,-144.81 1062.3,-140.62"/>
</a>
</g>
</g>
<!-- Node37&#45;&gt;Node23 -->
<g id="edge71_Node000037_Node000023" class="edge">
<title>Node37&#45;&gt;Node23</title>
<g id="a_edge71_Node000037_Node000023"><a xlink:title=" ">
<path fill="none" stroke="#63b8ff" d="M685.85,-285.63C676.04,-273.13 661.35,-249.76 670.5,-231 676.8,-218.09 688.85,-207.83 700.26,-200.43"/>
<polygon fill="#63b8ff" stroke="#63b8ff" points="702.36,-203.25 709.15,-195.12 698.77,-197.25 702.36,-203.25"/>
</a>
</g>
</g>
</g>
</svg>
