<?xml version="1.0" encoding="UTF-8" standalone="no"?>
<!DOCTYPE svg PUBLIC "-//W3C//DTD SVG 1.1//EN"
 "http://www.w3.org/Graphics/SVG/1.1/DTD/svg11.dtd">
<!-- Generated by graphviz version 2.43.0 (0)
 -->
<!-- Title: data_ids.hpp Pages: 1 -->
<svg width="2750pt" height="476pt"
 viewBox="0.00 0.00 2749.62 476.00" xmlns="http://www.w3.org/2000/svg" xmlns:xlink="http://www.w3.org/1999/xlink">
<g id="graph0" class="graph" transform="scale(1 1) rotate(0) translate(4 472)">
<title>data_ids.hpp</title>
<!-- Node1 -->
<g id="node1" class="node">
<title>Node1</title>
<g id="a_node1"><a xlink:title=" ">
<polygon fill="#bfbfbf" stroke="black" points="2095.62,-448.5 2095.62,-467.5 2174.62,-467.5 2174.62,-448.5 2095.62,-448.5"/>
<text text-anchor="middle" x="2135.12" y="-455.5" font-family="Helvetica,sans-Serif" font-size="10.00">data_ids.hpp</text>
</a>
</g>
</g>
<!-- Node2 -->
<g id="node2" class="node">
<title>Node2</title>
<g id="a_node2"><a xlink:href="streams_8hpp.html" target="_top" xlink:title="The header file for the data streams.">
<polygon fill="none" stroke="black" points="2096.62,-392.5 2096.62,-411.5 2173.62,-411.5 2173.62,-392.5 2096.62,-392.5"/>
<text text-anchor="middle" x="2135.12" y="-399.5" font-family="Helvetica,sans-Serif" font-size="10.00">streams.hpp</text>
</a>
</g>
</g>
<!-- Node1&#45;&gt;Node2 -->
<g id="edge1" class="edge">
<title>Node1&#45;&gt;Node2</title>
<path fill="none" stroke="midnightblue" d="M2135.12,-437.8C2135.12,-428.91 2135.12,-418.78 2135.12,-411.75"/>
<polygon fill="midnightblue" stroke="midnightblue" points="2131.62,-438.08 2135.12,-448.08 2138.62,-438.08 2131.62,-438.08"/>
</g>
<!-- Node3 -->
<g id="node3" class="node">
<title>Node3</title>
<g id="a_node3"><a xlink:href="validation_8hpp.html" target="_top" xlink:title=" ">
<polygon fill="none" stroke="black" points="2323.12,-168.5 2323.12,-187.5 2409.12,-187.5 2409.12,-168.5 2323.12,-168.5"/>
<text text-anchor="middle" x="2366.12" y="-175.5" font-family="Helvetica,sans-Serif" font-size="10.00">validation.hpp</text>
</a>
</g>
</g>
<!-- Node2&#45;&gt;Node3 -->
<g id="edge2" class="edge">
<title>Node2&#45;&gt;Node3</title>
<path fill="none" stroke="midnightblue" d="M2151.66,-385.1C2196.94,-341.59 2321.84,-221.55 2356.87,-187.88"/>
<polygon fill="midnightblue" stroke="midnightblue" points="2148.96,-382.84 2144.17,-392.3 2153.81,-387.89 2148.96,-382.84"/>
</g>
<!-- Node6 -->
<g id="node6" class="node">
<title>Node6</title>
<g id="a_node6"><a xlink:href="error__frame_8hpp.html" target="_top" xlink:title="The error frame.">
<polygon fill="none" stroke="black" points="2349.62,-336.5 2349.62,-355.5 2444.62,-355.5 2444.62,-336.5 2349.62,-336.5"/>
<text text-anchor="middle" x="2397.12" y="-343.5" font-family="Helvetica,sans-Serif" font-size="10.00">error_frame.hpp</text>
</a>
</g>
</g>
<!-- Node2&#45;&gt;Node6 -->
<g id="edge5" class="edge">
<title>Node2&#45;&gt;Node6</title>
<path fill="none" stroke="midnightblue" d="M2183.6,-391.01C2233.06,-380.81 2308.97,-365.17 2355.7,-355.54"/>
<polygon fill="midnightblue" stroke="midnightblue" points="2182.86,-387.59 2173.78,-393.03 2184.28,-394.44 2182.86,-387.59"/>
</g>
<!-- Node8 -->
<g id="node8" class="node">
<title>Node8</title>
<g id="a_node8"><a xlink:href="shared__data_8hpp.html" target="_top" xlink:title="Contains the SharedData struct, used across all modules and extensions.">
<polygon fill="none" stroke="black" points="1517.12,-280.5 1517.12,-299.5 1615.12,-299.5 1615.12,-280.5 1517.12,-280.5"/>
<text text-anchor="middle" x="1566.12" y="-287.5" font-family="Helvetica,sans-Serif" font-size="10.00">shared_data.hpp</text>
</a>
</g>
</g>
<!-- Node2&#45;&gt;Node8 -->
<g id="edge59" class="edge">
<title>Node2&#45;&gt;Node8</title>
<path fill="none" stroke="midnightblue" d="M2086.39,-391.58C1977.3,-370.49 1714.85,-319.75 1610.24,-299.53"/>
<polygon fill="midnightblue" stroke="midnightblue" points="2085.97,-395.06 2096.45,-393.53 2087.3,-388.19 2085.97,-395.06"/>
</g>
<!-- Node93 -->
<g id="node45" class="node">
<title>Node93</title>
<g id="a_node45"><a xlink:href="to__string_8hpp.html" target="_top" xlink:title="Generic to_string functions for a variety of types.">
<polygon fill="none" stroke="black" points="335.12,-224.5 335.12,-243.5 415.12,-243.5 415.12,-224.5 335.12,-224.5"/>
<text text-anchor="middle" x="375.12" y="-231.5" font-family="Helvetica,sans-Serif" font-size="10.00">to_string.hpp</text>
</a>
</g>
</g>
<!-- Node2&#45;&gt;Node93 -->
<g id="edge60" class="edge">
<title>Node2&#45;&gt;Node93</title>
<path fill="none" stroke="midnightblue" d="M2086.2,-396.39C1830.33,-372.25 648.7,-260.8 415.25,-238.78"/>
<polygon fill="midnightblue" stroke="midnightblue" points="2086.02,-399.88 2096.31,-397.34 2086.68,-392.92 2086.02,-399.88"/>
</g>
<!-- Node4 -->
<g id="node4" class="node">
<title>Node4</title>
<g id="a_node4"><a xlink:href="cfg__adcmappings_8cpp.html" target="_top" xlink:title="ADC Mapping configuration section.">
<polygon fill="none" stroke="black" points="2420.12,-112.5 2420.12,-131.5 2542.12,-131.5 2542.12,-112.5 2420.12,-112.5"/>
<text text-anchor="middle" x="2481.12" y="-119.5" font-family="Helvetica,sans-Serif" font-size="10.00">cfg_adcmappings.cpp</text>
</a>
</g>
</g>
<!-- Node3&#45;&gt;Node4 -->
<g id="edge3" class="edge">
<title>Node3&#45;&gt;Node4</title>
<path fill="none" stroke="midnightblue" d="M2393.6,-164.1C2415.08,-154.01 2444.34,-140.27 2462.98,-131.52"/>
<polygon fill="midnightblue" stroke="midnightblue" points="2391.9,-161.02 2384.34,-168.44 2394.88,-167.36 2391.9,-161.02"/>
</g>
<!-- Node5 -->
<g id="node5" class="node">
<title>Node5</title>
<g id="a_node5"><a xlink:href="cfg__extensions_8cpp.html" target="_top" xlink:title="Implements the extensions section of the configuration.">
<polygon fill="none" stroke="black" points="2277.12,-112.5 2277.12,-131.5 2387.12,-131.5 2387.12,-112.5 2277.12,-112.5"/>
<text text-anchor="middle" x="2332.12" y="-119.5" font-family="Helvetica,sans-Serif" font-size="10.00">cfg_extensions.cpp</text>
</a>
</g>
</g>
<!-- Node3&#45;&gt;Node5 -->
<g id="edge4" class="edge">
<title>Node3&#45;&gt;Node5</title>
<path fill="none" stroke="midnightblue" d="M2355.14,-159.57C2349.29,-150.27 2342.35,-139.25 2337.63,-131.75"/>
<polygon fill="midnightblue" stroke="midnightblue" points="2352.21,-161.49 2360.5,-168.08 2358.14,-157.76 2352.21,-161.49"/>
</g>
<!-- Node7 -->
<g id="node7" class="node">
<title>Node7</title>
<g id="a_node7"><a xlink:href="error__frame_8cpp.html" target="_top" xlink:title="The implementation of the error frame.">
<polygon fill="none" stroke="black" points="2480.62,-280.5 2480.62,-299.5 2575.62,-299.5 2575.62,-280.5 2480.62,-280.5"/>
<text text-anchor="middle" x="2528.12" y="-287.5" font-family="Helvetica,sans-Serif" font-size="10.00">error_frame.cpp</text>
</a>
</g>
</g>
<!-- Node6&#45;&gt;Node7 -->
<g id="edge6" class="edge">
<title>Node6&#45;&gt;Node7</title>
<path fill="none" stroke="midnightblue" d="M2427.43,-332.5C2451.99,-322.38 2485.93,-308.39 2507.46,-299.52"/>
<polygon fill="midnightblue" stroke="midnightblue" points="2425.79,-329.4 2417.87,-336.44 2428.45,-335.87 2425.79,-329.4"/>
</g>
<!-- Node6&#45;&gt;Node8 -->
<g id="edge7" class="edge">
<title>Node6&#45;&gt;Node8</title>
<path fill="none" stroke="midnightblue" d="M2339.17,-341.23C2183.76,-331.14 1759.7,-303.58 1615.15,-294.19"/>
<polygon fill="midnightblue" stroke="midnightblue" points="2339.25,-344.75 2349.45,-341.9 2339.7,-337.76 2339.25,-344.75"/>
</g>
<!-- Node92 -->
<g id="node44" class="node">
<title>Node92</title>
<g id="a_node44"><a xlink:href="test__error__frame_8cpp.html" target="_top" xlink:title="Test of the error frame.">
<polygon fill="none" stroke="black" points="2343.62,-280.5 2343.62,-299.5 2462.62,-299.5 2462.62,-280.5 2343.62,-280.5"/>
<text text-anchor="middle" x="2403.12" y="-287.5" font-family="Helvetica,sans-Serif" font-size="10.00">test_error_frame.cpp</text>
</a>
</g>
</g>
<!-- Node6&#45;&gt;Node92 -->
<g id="edge58" class="edge">
<title>Node6&#45;&gt;Node92</title>
<path fill="none" stroke="midnightblue" d="M2399.22,-326.1C2400.21,-317.14 2401.36,-306.86 2402.14,-299.75"/>
<polygon fill="midnightblue" stroke="midnightblue" points="2395.73,-325.76 2398.11,-336.08 2402.69,-326.53 2395.73,-325.76"/>
</g>
<!-- Node9 -->
<g id="node9" class="node">
<title>Node9</title>
<g id="a_node9"><a xlink:href="cfg__section_8hpp.html" target="_top" xlink:title="This file contains the base class for all configuration sections.">
<polygon fill="none" stroke="black" points="2193.62,-224.5 2193.62,-243.5 2286.62,-243.5 2286.62,-224.5 2193.62,-224.5"/>
<text text-anchor="middle" x="2240.12" y="-231.5" font-family="Helvetica,sans-Serif" font-size="10.00">cfg_section.hpp</text>
</a>
</g>
</g>
<!-- Node8&#45;&gt;Node9 -->
<g id="edge8" class="edge">
<title>Node8&#45;&gt;Node9</title>
<path fill="none" stroke="midnightblue" d="M1625.69,-286.08C1735.41,-280.38 1976.7,-266.33 2179.12,-244 2183.8,-243.48 2188.67,-242.88 2193.54,-242.23"/>
<polygon fill="midnightblue" stroke="midnightblue" points="1625.3,-282.59 1615.49,-286.6 1625.66,-289.58 1625.3,-282.59"/>
</g>
<!-- Node12 -->
<g id="node12" class="node">
<title>Node12</title>
<g id="a_node12"><a xlink:href="extension__base_8hpp.html" target="_top" xlink:title="The new implementation of the extension system.">
<polygon fill="none" stroke="red" points="2115.12,-112.5 2115.12,-131.5 2229.12,-131.5 2229.12,-112.5 2115.12,-112.5"/>
<text text-anchor="middle" x="2172.12" y="-119.5" font-family="Helvetica,sans-Serif" font-size="10.00">extension_base.hpp</text>
</a>
</g>
</g>
<!-- Node8&#45;&gt;Node12 -->
<g id="edge24" class="edge">
<title>Node8&#45;&gt;Node12</title>
<path fill="none" stroke="midnightblue" d="M1625.49,-287.75C1761.26,-284.38 2085.74,-273.34 2125.12,-244 2162.53,-216.13 2170.17,-154.22 2171.72,-131.54"/>
<polygon fill="midnightblue" stroke="midnightblue" points="1625.19,-284.25 1615.28,-287.99 1625.36,-291.25 1625.19,-284.25"/>
</g>
<!-- Node43 -->
<g id="node22" class="node">
<title>Node43</title>
<g id="a_node22"><a xlink:href="flight__phase__manager_8hpp.html" target="_top" xlink:title=" ">
<polygon fill="none" stroke="black" points="1099.62,-112.5 1099.62,-131.5 1244.62,-131.5 1244.62,-112.5 1099.62,-112.5"/>
<text text-anchor="middle" x="1172.12" y="-119.5" font-family="Helvetica,sans-Serif" font-size="10.00">flight_phase_manager.hpp</text>
</a>
</g>
</g>
<!-- Node8&#45;&gt;Node43 -->
<g id="edge25" class="edge">
<title>Node8&#45;&gt;Node43</title>
<path fill="none" stroke="midnightblue" d="M1506.77,-287.76C1385.36,-284.61 1117.67,-274.28 1090.12,-244 1067.38,-219.02 1072.91,-197.07 1090.12,-168 1100.95,-149.69 1122.17,-138.34 1140.31,-131.62"/>
<polygon fill="midnightblue" stroke="midnightblue" points="1506.92,-291.27 1517,-288.02 1507.09,-284.27 1506.92,-291.27"/>
</g>
<!-- Node34 -->
<g id="node23" class="node">
<title>Node34</title>
<g id="a_node23"><a xlink:href="flight__runner_8hpp.html" target="_top" xlink:title="The main class for the flight system.">
<polygon fill="none" stroke="red" points="886.12,-56.5 886.12,-75.5 984.12,-75.5 984.12,-56.5 886.12,-56.5"/>
<text text-anchor="middle" x="935.12" y="-63.5" font-family="Helvetica,sans-Serif" font-size="10.00">flight_runner.hpp</text>
</a>
</g>
</g>
<!-- Node8&#45;&gt;Node34 -->
<g id="edge33" class="edge">
<title>Node8&#45;&gt;Node34</title>
<path fill="none" stroke="midnightblue" d="M1506.85,-289.63C1348.12,-290.69 922.5,-289.26 880.12,-244 857.08,-219.4 911.75,-196.58 916.12,-188 935.59,-149.71 936.16,-96.51 935.54,-75.77"/>
<polygon fill="midnightblue" stroke="midnightblue" points="1506.94,-293.13 1516.92,-289.55 1506.89,-286.13 1506.94,-293.13"/>
</g>
<!-- Node45 -->
<g id="node26" class="node">
<title>Node45</title>
<g id="a_node26"><a xlink:href="flight__phase__predictor_8hpp.html" target="_top" xlink:title=" ">
<polygon fill="none" stroke="red" points="1099.62,-168.5 1099.62,-187.5 1244.62,-187.5 1244.62,-168.5 1099.62,-168.5"/>
<text text-anchor="middle" x="1172.12" y="-175.5" font-family="Helvetica,sans-Serif" font-size="10.00">flight_phase_predictor.hpp</text>
</a>
</g>
</g>
<!-- Node8&#45;&gt;Node45 -->
<g id="edge29" class="edge">
<title>Node8&#45;&gt;Node45</title>
<path fill="none" stroke="midnightblue" d="M1506.7,-284.76C1450.67,-279.47 1364.96,-268.01 1294.12,-244 1292.72,-243.53 1221.23,-205.29 1188.35,-187.69"/>
<polygon fill="midnightblue" stroke="midnightblue" points="1506.53,-288.26 1516.8,-285.68 1507.16,-281.29 1506.53,-288.26"/>
</g>
<!-- Node48 -->
<g id="node27" class="node">
<title>Node48</title>
<g id="a_node27"><a xlink:href="prediction__parameters_8hpp.html" target="_top" xlink:title=" ">
<polygon fill="none" stroke="red" points="1099.12,-224.5 1099.12,-243.5 1247.12,-243.5 1247.12,-224.5 1099.12,-224.5"/>
<text text-anchor="middle" x="1173.12" y="-231.5" font-family="Helvetica,sans-Serif" font-size="10.00">prediction_parameters.hpp</text>
</a>
</g>
</g>
<!-- Node8&#45;&gt;Node48 -->
<g id="edge31" class="edge">
<title>Node8&#45;&gt;Node48</title>
<path fill="none" stroke="midnightblue" d="M1506.76,-280.84C1433.55,-270.78 1309.68,-253.76 1235.23,-243.53"/>
<polygon fill="midnightblue" stroke="midnightblue" points="1506.36,-284.32 1516.74,-282.22 1507.31,-277.39 1506.36,-284.32"/>
</g>
<!-- Node54 -->
<g id="node28" class="node">
<title>Node54</title>
<g id="a_node28"><a xlink:href="console__pages_8hpp.html" target="_top" xlink:title=" ">
<polygon fill="none" stroke="red" points="1663.12,-224.5 1663.12,-243.5 1773.12,-243.5 1773.12,-224.5 1663.12,-224.5"/>
<text text-anchor="middle" x="1718.12" y="-231.5" font-family="Helvetica,sans-Serif" font-size="10.00">console_pages.hpp</text>
</a>
</g>
</g>
<!-- Node8&#45;&gt;Node54 -->
<g id="edge34" class="edge">
<title>Node8&#45;&gt;Node54</title>
<path fill="none" stroke="midnightblue" d="M1599.78,-277.04C1628.38,-266.88 1668.73,-252.55 1694.14,-243.52"/>
<polygon fill="midnightblue" stroke="midnightblue" points="1598.45,-273.8 1590.2,-280.44 1600.8,-280.39 1598.45,-273.8"/>
</g>
<!-- Node60 -->
<g id="node29" class="node">
<title>Node60</title>
<g id="a_node29"><a xlink:href="adc__interpolation_8hpp.html" target="_top" xlink:title="ADC Interpolation Utility.">
<polygon fill="none" stroke="red" points="1301.12,-168.5 1301.12,-187.5 1423.12,-187.5 1423.12,-168.5 1301.12,-168.5"/>
<text text-anchor="middle" x="1362.12" y="-175.5" font-family="Helvetica,sans-Serif" font-size="10.00">adc_interpolation.hpp</text>
</a>
</g>
</g>
<!-- Node8&#45;&gt;Node60 -->
<g id="edge35" class="edge">
<title>Node8&#45;&gt;Node60</title>
<path fill="none" stroke="midnightblue" d="M1541.25,-275.59C1498.78,-252.69 1413.43,-206.67 1378.05,-187.59"/>
<polygon fill="midnightblue" stroke="midnightblue" points="1539.65,-278.7 1550.11,-280.37 1542.97,-272.54 1539.65,-278.7"/>
</g>
<!-- Node65 -->
<g id="node30" class="node">
<title>Node65</title>
<g id="a_node30"><a xlink:href="calculated__data_8hpp.html" target="_top" xlink:title="Calculates new data from the existing data.">
<polygon fill="none" stroke="red" points="1441.62,-168.5 1441.62,-187.5 1556.62,-187.5 1556.62,-168.5 1441.62,-168.5"/>
<text text-anchor="middle" x="1499.12" y="-175.5" font-family="Helvetica,sans-Serif" font-size="10.00">calculated_data.hpp</text>
</a>
</g>
</g>
<!-- Node8&#45;&gt;Node65 -->
<g id="edge36" class="edge">
<title>Node8&#45;&gt;Node65</title>
<path fill="none" stroke="midnightblue" d="M1529.88,-276.15C1515.45,-269.05 1500.34,-258.62 1492.12,-244 1481.99,-225.99 1489.8,-200.74 1495.16,-187.64"/>
<polygon fill="midnightblue" stroke="midnightblue" points="1528.63,-279.43 1539.19,-280.36 1531.51,-273.05 1528.63,-279.43"/>
</g>
<!-- Node67 -->
<g id="node31" class="node">
<title>Node67</title>
<g id="a_node31"><a xlink:href="data__formatting_8hpp.html" target="_top" xlink:title="This file contains the DataFormatter class, which is used to format data for the data and log files.">
<polygon fill="none" stroke="black" points="889.12,-224.5 889.12,-243.5 1005.12,-243.5 1005.12,-224.5 889.12,-224.5"/>
<text text-anchor="middle" x="947.12" y="-231.5" font-family="Helvetica,sans-Serif" font-size="10.00">data_formatting.hpp</text>
</a>
</g>
</g>
<!-- Node8&#45;&gt;Node67 -->
<g id="edge37" class="edge">
<title>Node8&#45;&gt;Node67</title>
<path fill="none" stroke="midnightblue" d="M1506.77,-284.94C1406.27,-277.89 1196.25,-262.35 1019.12,-244 1014.61,-243.53 1009.94,-243.02 1005.25,-242.48"/>
<polygon fill="midnightblue" stroke="midnightblue" points="1506.8,-288.45 1517.02,-285.66 1507.29,-281.47 1506.8,-288.45"/>
</g>
<!-- Node69 -->
<g id="node33" class="node">
<title>Node69</title>
<g id="a_node33"><a xlink:href="data__log_8hpp.html" target="_top" xlink:title="The data log is responsible for writing data to files and managing the file system.">
<polygon fill="none" stroke="red" points="963.12,-168.5 963.12,-187.5 1043.12,-187.5 1043.12,-168.5 963.12,-168.5"/>
<text text-anchor="middle" x="1003.12" y="-175.5" font-family="Helvetica,sans-Serif" font-size="10.00">data_log.hpp</text>
</a>
</g>
</g>
<!-- Node8&#45;&gt;Node69 -->
<g id="edge40" class="edge">
<title>Node8&#45;&gt;Node69</title>
<path fill="none" stroke="midnightblue" d="M1506.88,-289.39C1389.88,-289.27 1133.86,-284.23 1057.12,-244 1032.69,-231.19 1015.02,-202.14 1007.35,-187.61"/>
<polygon fill="midnightblue" stroke="midnightblue" points="1507.08,-292.89 1517.08,-289.39 1507.08,-285.89 1507.08,-292.89"/>
</g>
<!-- Node71 -->
<g id="node34" class="node">
<title>Node71</title>
<g id="a_node34"><a xlink:href="file__system__manager_8hpp.html" target="_top" xlink:title=" ">
<polygon fill="none" stroke="red" points="1613.12,-168.5 1613.12,-187.5 1755.12,-187.5 1755.12,-168.5 1613.12,-168.5"/>
<text text-anchor="middle" x="1684.12" y="-175.5" font-family="Helvetica,sans-Serif" font-size="10.00">file_system_manager.hpp</text>
</a>
</g>
</g>
<!-- Node8&#45;&gt;Node71 -->
<g id="edge41" class="edge">
<title>Node8&#45;&gt;Node71</title>
<path fill="none" stroke="midnightblue" d="M1578.36,-272.33C1588.88,-258.57 1604.88,-238.95 1621.12,-224 1636.64,-209.7 1656.82,-196.02 1670.1,-187.57"/>
<polygon fill="midnightblue" stroke="midnightblue" points="1575.49,-270.32 1572.29,-280.42 1581.09,-274.52 1575.49,-270.32"/>
</g>
<!-- Node72 -->
<g id="node35" class="node">
<title>Node72</title>
<g id="a_node35"><a xlink:href="influxdb_8hpp.html" target="_top" xlink:title=" ">
<polygon fill="none" stroke="red" points="721.62,-224.5 721.62,-243.5 798.62,-243.5 798.62,-224.5 721.62,-224.5"/>
<text text-anchor="middle" x="760.12" y="-231.5" font-family="Helvetica,sans-Serif" font-size="10.00">influxdb.hpp</text>
</a>
</g>
</g>
<!-- Node8&#45;&gt;Node72 -->
<g id="edge42" class="edge">
<title>Node8&#45;&gt;Node72</title>
<path fill="none" stroke="midnightblue" d="M1506.47,-286.09C1383.2,-279.89 1091.46,-264.28 847.12,-244 831.23,-242.68 813.74,-240.93 798.63,-239.32"/>
<polygon fill="midnightblue" stroke="midnightblue" points="1506.65,-289.6 1516.81,-286.61 1507,-282.61 1506.65,-289.6"/>
</g>
<!-- Node74 -->
<g id="node37" class="node">
<title>Node74</title>
<g id="a_node37"><a xlink:href="module_8hpp.html" target="_top" xlink:title="The header file for the base module class.">
<polygon fill="none" stroke="red" points="1791.12,-224.5 1791.12,-243.5 1865.12,-243.5 1865.12,-224.5 1791.12,-224.5"/>
<text text-anchor="middle" x="1828.12" y="-231.5" font-family="Helvetica,sans-Serif" font-size="10.00">module.hpp</text>
</a>
</g>
</g>
<!-- Node8&#45;&gt;Node74 -->
<g id="edge44" class="edge">
<title>Node8&#45;&gt;Node74</title>
<path fill="none" stroke="midnightblue" d="M1617.48,-278.41C1668.55,-267.89 1745.65,-252 1791.03,-242.64"/>
<polygon fill="midnightblue" stroke="midnightblue" points="1616.72,-275 1607.63,-280.44 1618.13,-281.85 1616.72,-275"/>
</g>
<!-- Node82 -->
<g id="node38" class="node">
<title>Node82</title>
<g id="a_node38"><a xlink:href="request__handler_8hpp.html" target="_top" xlink:title="The request handler class header.">
<polygon fill="none" stroke="red" points="1773.12,-168.5 1773.12,-187.5 1889.12,-187.5 1889.12,-168.5 1773.12,-168.5"/>
<text text-anchor="middle" x="1831.12" y="-175.5" font-family="Helvetica,sans-Serif" font-size="10.00">request_handler.hpp</text>
</a>
</g>
</g>
<!-- Node8&#45;&gt;Node82 -->
<g id="edge45" class="edge">
<title>Node8&#45;&gt;Node82</title>
<path fill="none" stroke="midnightblue" d="M1584.77,-273.89C1606.01,-256.92 1639.64,-230.86 1654.12,-224 1692.51,-205.8 1739.21,-194.33 1774.99,-187.52"/>
<polygon fill="midnightblue" stroke="midnightblue" points="1582.38,-271.32 1576.78,-280.31 1586.77,-276.77 1582.38,-271.32"/>
</g>
<!-- Node87 -->
<g id="node39" class="node">
<title>Node87</title>
<g id="a_node39"><a xlink:href="error__reporter_8hpp.html" target="_top" xlink:title=" ">
<polygon fill="none" stroke="black" points="1303.12,-224.5 1303.12,-243.5 1407.12,-243.5 1407.12,-224.5 1303.12,-224.5"/>
<text text-anchor="middle" x="1355.12" y="-231.5" font-family="Helvetica,sans-Serif" font-size="10.00">error_reporter.hpp</text>
</a>
</g>
</g>
<!-- Node8&#45;&gt;Node87 -->
<g id="edge46" class="edge">
<title>Node8&#45;&gt;Node87</title>
<path fill="none" stroke="midnightblue" d="M1522.98,-277.96C1483.12,-267.76 1424.75,-252.82 1388.39,-243.52"/>
<polygon fill="midnightblue" stroke="midnightblue" points="1522.13,-281.35 1532.68,-280.44 1523.86,-274.57 1522.13,-281.35"/>
</g>
<!-- Node88 -->
<g id="node40" class="node">
<title>Node88</title>
<g id="a_node40"><a xlink:href="logger_8hpp.html" target="_top" xlink:title="A simple logger class so difference classes have access to the same logger.">
<polygon fill="none" stroke="black" points="1501.12,-224.5 1501.12,-243.5 1569.12,-243.5 1569.12,-224.5 1501.12,-224.5"/>
<text text-anchor="middle" x="1535.12" y="-231.5" font-family="Helvetica,sans-Serif" font-size="10.00">logger.hpp</text>
</a>
</g>
</g>
<!-- Node8&#45;&gt;Node88 -->
<g id="edge48" class="edge">
<title>Node8&#45;&gt;Node88</title>
<path fill="none" stroke="midnightblue" d="M1555.94,-271.27C1550.64,-262.05 1544.4,-251.17 1540.14,-243.75"/>
<polygon fill="midnightblue" stroke="midnightblue" points="1552.98,-273.15 1561,-280.08 1559.05,-269.67 1552.98,-273.15"/>
</g>
<!-- Node89 -->
<g id="node41" class="node">
<title>Node89</title>
<g id="a_node41"><a xlink:href="to__json_8cpp.html" target="_top" xlink:title=" ">
<polygon fill="none" stroke="black" points="1883.12,-224.5 1883.12,-243.5 1955.12,-243.5 1955.12,-224.5 1883.12,-224.5"/>
<text text-anchor="middle" x="1919.12" y="-231.5" font-family="Helvetica,sans-Serif" font-size="10.00">to_json.cpp</text>
</a>
</g>
</g>
<!-- Node8&#45;&gt;Node89 -->
<g id="edge54" class="edge">
<title>Node8&#45;&gt;Node89</title>
<path fill="none" stroke="midnightblue" d="M1625.33,-281.29C1687.45,-272.97 1787.86,-258.92 1874.12,-244 1876.94,-243.51 1879.86,-242.98 1882.8,-242.43"/>
<polygon fill="midnightblue" stroke="midnightblue" points="1624.77,-277.83 1615.32,-282.62 1625.69,-284.77 1624.77,-277.83"/>
</g>
<!-- Node90 -->
<g id="node42" class="node">
<title>Node90</title>
<g id="a_node42"><a xlink:href="shared__data__helpers_8hpp.html" target="_top" xlink:title=" ">
<polygon fill="none" stroke="red" points="1613.62,-112.5 1613.62,-131.5 1752.62,-131.5 1752.62,-112.5 1613.62,-112.5"/>
<text text-anchor="middle" x="1683.12" y="-119.5" font-family="Helvetica,sans-Serif" font-size="10.00">shared_data_helpers.hpp</text>
</a>
</g>
</g>
<!-- Node8&#45;&gt;Node90 -->
<g id="edge55" class="edge">
<title>Node8&#45;&gt;Node90</title>
<path fill="none" stroke="midnightblue" d="M1625.35,-288.49C1759.02,-286.74 2075.01,-278.89 2107.12,-244 2157.63,-189.12 1885.54,-147.67 1752.73,-131.01"/>
<polygon fill="midnightblue" stroke="midnightblue" points="1625.24,-284.99 1615.28,-288.62 1625.32,-291.99 1625.24,-284.99"/>
</g>
<!-- Node91 -->
<g id="node43" class="node">
<title>Node91</title>
<g id="a_node43"><a xlink:href="test__configuration_8cpp.html" target="_top" xlink:title=" ">
<polygon fill="none" stroke="black" points="1973.62,-224.5 1973.62,-243.5 2098.62,-243.5 2098.62,-224.5 1973.62,-224.5"/>
<text text-anchor="middle" x="2036.12" y="-231.5" font-family="Helvetica,sans-Serif" font-size="10.00">test_configuration.cpp</text>
</a>
</g>
</g>
<!-- Node8&#45;&gt;Node91 -->
<g id="edge57" class="edge">
<title>Node8&#45;&gt;Node91</title>
<path fill="none" stroke="midnightblue" d="M1625.24,-282.54C1702.99,-273.98 1843.85,-258.32 1964.12,-244 1967.12,-243.64 1970.19,-243.27 1973.29,-242.9"/>
<polygon fill="midnightblue" stroke="midnightblue" points="1624.71,-279.07 1615.16,-283.64 1625.48,-286.03 1624.71,-279.07"/>
</g>
<!-- Node10 -->
<g id="node10" class="node">
<title>Node10</title>
<g id="a_node10"><a xlink:href="cfg__adcmappings_8hpp.html" target="_top" xlink:title=" ">
<polygon fill="none" stroke="black" points="2427.62,-168.5 2427.62,-187.5 2550.62,-187.5 2550.62,-168.5 2427.62,-168.5"/>
<text text-anchor="middle" x="2489.12" y="-175.5" font-family="Helvetica,sans-Serif" font-size="10.00">cfg_adcmappings.hpp</text>
</a>
</g>
</g>
<!-- Node9&#45;&gt;Node10 -->
<g id="edge9" class="edge">
<title>Node9&#45;&gt;Node10</title>
<path fill="none" stroke="midnightblue" d="M2289.54,-222.28C2336.6,-212.08 2406.48,-196.92 2449.85,-187.52"/>
<polygon fill="midnightblue" stroke="midnightblue" points="2288.6,-218.9 2279.57,-224.44 2290.09,-225.74 2288.6,-218.9"/>
</g>
<!-- Node11 -->
<g id="node11" class="node">
<title>Node11</title>
<g id="a_node11"><a xlink:href="cfg__extensions_8hpp.html" target="_top" xlink:title="The header file for the extensions section of the configuration.">
<polygon fill="none" stroke="black" points="2193.62,-168.5 2193.62,-187.5 2304.62,-187.5 2304.62,-168.5 2193.62,-168.5"/>
<text text-anchor="middle" x="2249.12" y="-175.5" font-family="Helvetica,sans-Serif" font-size="10.00">cfg_extensions.hpp</text>
</a>
</g>
</g>
<!-- Node9&#45;&gt;Node11 -->
<g id="edge11" class="edge">
<title>Node9&#45;&gt;Node11</title>
<path fill="none" stroke="midnightblue" d="M2243.27,-214.1C2244.76,-205.14 2246.47,-194.86 2247.66,-187.75"/>
<polygon fill="midnightblue" stroke="midnightblue" points="2239.79,-213.64 2241.6,-224.08 2246.7,-214.79 2239.79,-213.64"/>
</g>
<!-- Node10&#45;&gt;Node4 -->
<g id="edge10" class="edge">
<title>Node10&#45;&gt;Node4</title>
<path fill="none" stroke="midnightblue" d="M2486.32,-158.1C2484.99,-149.14 2483.47,-138.86 2482.41,-131.75"/>
<polygon fill="midnightblue" stroke="midnightblue" points="2482.87,-158.7 2487.8,-168.08 2489.79,-157.68 2482.87,-158.7"/>
</g>
<!-- Node11&#45;&gt;Node5 -->
<g id="edge12" class="edge">
<title>Node11&#45;&gt;Node5</title>
<path fill="none" stroke="midnightblue" d="M2271.22,-162.62C2286.38,-152.76 2306,-139.99 2318.81,-131.65"/>
<polygon fill="midnightblue" stroke="midnightblue" points="2268.93,-159.94 2262.45,-168.32 2272.74,-165.8 2268.93,-159.94"/>
</g>
<!-- Node11&#45;&gt;Node12 -->
<g id="edge13" class="edge">
<title>Node11&#45;&gt;Node12</title>
<path fill="none" stroke="midnightblue" d="M2228.22,-162.34C2214.21,-152.52 2196.23,-139.91 2184.46,-131.65"/>
<polygon fill="midnightblue" stroke="midnightblue" points="2226.55,-165.45 2236.75,-168.32 2230.57,-159.72 2226.55,-165.45"/>
</g>
<!-- Node13 -->
<g id="node13" class="node">
<title>Node13</title>
<g id="a_node13"><a xlink:href="adc__extension__base_8hpp.html" target="_top" xlink:title="Generic ADC Extension Wrapper.">
<polygon fill="none" stroke="red" points="1687.62,-56.5 1687.62,-75.5 1824.62,-75.5 1824.62,-56.5 1687.62,-56.5"/>
<text text-anchor="middle" x="1756.12" y="-63.5" font-family="Helvetica,sans-Serif" font-size="10.00">adc_extension_base.hpp</text>
</a>
</g>
</g>
<!-- Node12&#45;&gt;Node13 -->
<g id="edge14" class="edge">
<title>Node12&#45;&gt;Node13</title>
<path fill="none" stroke="midnightblue" d="M2104.51,-112.22C2026.49,-102.1 1899.05,-85.55 1821.84,-75.53"/>
<polygon fill="midnightblue" stroke="midnightblue" points="2104.34,-115.73 2114.71,-113.55 2105.24,-108.79 2104.34,-115.73"/>
</g>
<!-- Node18 -->
<g id="node14" class="node">
<title>Node18</title>
<g id="a_node14"><a xlink:href="bme280_8hpp.html" target="_top" xlink:title="The BME280 sensor extension.">
<polygon fill="none" stroke="red" points="1842.62,-56.5 1842.62,-75.5 1919.62,-75.5 1919.62,-56.5 1842.62,-56.5"/>
<text text-anchor="middle" x="1881.12" y="-63.5" font-family="Helvetica,sans-Serif" font-size="10.00">bme280.hpp</text>
</a>
</g>
</g>
<!-- Node12&#45;&gt;Node18 -->
<g id="edge15" class="edge">
<title>Node12&#45;&gt;Node18</title>
<path fill="none" stroke="midnightblue" d="M2115.98,-110.58C2058.41,-99.9 1970.36,-83.56 1920.03,-74.22"/>
<polygon fill="midnightblue" stroke="midnightblue" points="2115.54,-114.06 2126.01,-112.44 2116.81,-107.18 2115.54,-114.06"/>
</g>
<!-- Node20 -->
<g id="node15" class="node">
<title>Node20</title>
<g id="a_node15"><a xlink:href="bmi088_8hpp.html" target="_top" xlink:title="Extension for the Bosch BMI088 IMU.">
<polygon fill="none" stroke="red" points="1959.12,-0.5 1959.12,-19.5 2033.12,-19.5 2033.12,-0.5 1959.12,-0.5"/>
<text text-anchor="middle" x="1996.12" y="-7.5" font-family="Helvetica,sans-Serif" font-size="10.00">bmi088.hpp</text>
</a>
</g>
</g>
<!-- Node12&#45;&gt;Node20 -->
<g id="edge16" class="edge">
<title>Node12&#45;&gt;Node20</title>
<path fill="none" stroke="midnightblue" d="M2104.92,-115.23C2051.96,-109.13 1984.28,-97.34 1967.12,-76 1953.02,-58.48 1973.63,-33.02 1986.72,-19.76"/>
<polygon fill="midnightblue" stroke="midnightblue" points="2104.64,-118.72 2114.96,-116.34 2105.41,-111.77 2104.64,-118.72"/>
</g>
<!-- Node22 -->
<g id="node16" class="node">
<title>Node22</title>
<g id="a_node16"><a xlink:href="ds18b20_8hpp.html" target="_top" xlink:title="DS18B20 extension header file.">
<polygon fill="none" stroke="red" points="2132.62,-56.5 2132.62,-75.5 2211.62,-75.5 2211.62,-56.5 2132.62,-56.5"/>
<text text-anchor="middle" x="2172.12" y="-63.5" font-family="Helvetica,sans-Serif" font-size="10.00">ds18b20.hpp</text>
</a>
</g>
</g>
<!-- Node12&#45;&gt;Node22 -->
<g id="edge17" class="edge">
<title>Node12&#45;&gt;Node22</title>
<path fill="none" stroke="midnightblue" d="M2172.12,-101.8C2172.12,-92.91 2172.12,-82.78 2172.12,-75.75"/>
<polygon fill="midnightblue" stroke="midnightblue" points="2168.62,-102.08 2172.12,-112.08 2175.62,-102.08 2168.62,-102.08"/>
</g>
<!-- Node24 -->
<g id="node17" class="node">
<title>Node24</title>
<g id="a_node17"><a xlink:href="extension__base_8cpp.html" target="_top" xlink:title="The new implementation of the extension system.">
<polygon fill="none" stroke="black" points="2229.62,-56.5 2229.62,-75.5 2342.62,-75.5 2342.62,-56.5 2229.62,-56.5"/>
<text text-anchor="middle" x="2286.12" y="-63.5" font-family="Helvetica,sans-Serif" font-size="10.00">extension_base.cpp</text>
</a>
</g>
</g>
<!-- Node12&#45;&gt;Node24 -->
<g id="edge18" class="edge">
<title>Node12&#45;&gt;Node24</title>
<path fill="none" stroke="midnightblue" d="M2199.36,-108.1C2220.66,-98.01 2249.66,-84.27 2268.14,-75.52"/>
<polygon fill="midnightblue" stroke="midnightblue" points="2197.72,-105 2190.18,-112.44 2200.72,-111.33 2197.72,-105"/>
</g>
<!-- Node25 -->
<g id="node18" class="node">
<title>Node25</title>
<g id="a_node18"><a xlink:href="i2c__extension__adapter_8hpp.html" target="_top" xlink:title="Adapter for I2C Extensions.">
<polygon fill="none" stroke="red" points="2360.62,-56.5 2360.62,-75.5 2507.62,-75.5 2507.62,-56.5 2360.62,-56.5"/>
<text text-anchor="middle" x="2434.12" y="-63.5" font-family="Helvetica,sans-Serif" font-size="10.00">i2c_extension_adapter.hpp</text>
</a>
</g>
</g>
<!-- Node12&#45;&gt;Node25 -->
<g id="edge19" class="edge">
<title>Node12&#45;&gt;Node25</title>
<path fill="none" stroke="midnightblue" d="M2223.5,-110.41C2273.02,-100.2 2346.98,-84.96 2392.8,-75.52"/>
<polygon fill="midnightblue" stroke="midnightblue" points="2222.72,-107 2213.63,-112.44 2224.13,-113.85 2222.72,-107"/>
</g>
<!-- Node26 -->
<g id="node19" class="node">
<title>Node26</title>
<g id="a_node19"><a xlink:href="imu__extension__base_8hpp.html" target="_top" xlink:title="Base IMU Extension.">
<polygon fill="none" stroke="black" points="1976.12,-56.5 1976.12,-75.5 2114.12,-75.5 2114.12,-56.5 1976.12,-56.5"/>
<text text-anchor="middle" x="2045.12" y="-63.5" font-family="Helvetica,sans-Serif" font-size="10.00">imu_extension_base.hpp</text>
</a>
</g>
</g>
<!-- Node12&#45;&gt;Node26 -->
<g id="edge20" class="edge">
<title>Node12&#45;&gt;Node26</title>
<path fill="none" stroke="midnightblue" d="M2142.73,-108.5C2118.92,-98.38 2086.01,-84.39 2065.15,-75.52"/>
<polygon fill="midnightblue" stroke="midnightblue" points="2141.42,-111.75 2151.99,-112.44 2144.16,-105.31 2141.42,-111.75"/>
</g>
<!-- Node27 -->
<g id="node20" class="node">
<title>Node27</title>
<g id="a_node20"><a xlink:href="pi__camera_8hpp.html" target="_top" xlink:title="Raspberry Pi Camera Extension.">
<polygon fill="none" stroke="red" points="2525.62,-56.5 2525.62,-75.5 2614.62,-75.5 2614.62,-56.5 2525.62,-56.5"/>
<text text-anchor="middle" x="2570.12" y="-63.5" font-family="Helvetica,sans-Serif" font-size="10.00">pi_camera.hpp</text>
</a>
</g>
</g>
<!-- Node12&#45;&gt;Node27 -->
<g id="edge22" class="edge">
<title>Node12&#45;&gt;Node27</title>
<path fill="none" stroke="midnightblue" d="M2239.24,-113.02C2308.84,-104.57 2420.76,-90.46 2517.12,-76 2519.89,-75.58 2522.73,-75.14 2525.6,-74.69"/>
<polygon fill="midnightblue" stroke="midnightblue" points="2238.8,-109.55 2229.29,-114.23 2239.64,-116.5 2238.8,-109.55"/>
</g>
<!-- Node29 -->
<g id="node21" class="node">
<title>Node29</title>
<g id="a_node21"><a xlink:href="rgb__status__led_8hpp.html" target="_top" xlink:title=" ">
<polygon fill="none" stroke="red" points="2632.62,-56.5 2632.62,-75.5 2741.62,-75.5 2741.62,-56.5 2632.62,-56.5"/>
<text text-anchor="middle" x="2687.12" y="-63.5" font-family="Helvetica,sans-Serif" font-size="10.00">rgb_status_led.hpp</text>
</a>
</g>
</g>
<!-- Node12&#45;&gt;Node29 -->
<g id="edge23" class="edge">
<title>Node12&#45;&gt;Node29</title>
<path fill="none" stroke="midnightblue" d="M2239.53,-114.65C2346.76,-104.48 2551.5,-84.8 2624.12,-76 2626.86,-75.67 2629.67,-75.31 2632.5,-74.95"/>
<polygon fill="midnightblue" stroke="midnightblue" points="2239.09,-111.17 2229.46,-115.6 2239.75,-118.14 2239.09,-111.17"/>
</g>
<!-- Node26&#45;&gt;Node20 -->
<g id="edge21" class="edge">
<title>Node26&#45;&gt;Node20</title>
<path fill="none" stroke="midnightblue" d="M2030.08,-48.43C2021.49,-38.97 2011.07,-27.48 2004.06,-19.75"/>
<polygon fill="midnightblue" stroke="midnightblue" points="2027.71,-51.03 2037.03,-56.08 2032.9,-46.33 2027.71,-51.03"/>
</g>
<!-- Node43&#45;&gt;Node34 -->
<g id="edge26" class="edge">
<title>Node43&#45;&gt;Node34</title>
<path fill="none" stroke="midnightblue" d="M1124.79,-110.22C1080.01,-100.01 1013.68,-84.9 972.49,-75.52"/>
<polygon fill="midnightblue" stroke="midnightblue" points="1124.04,-113.63 1134.56,-112.44 1125.59,-106.81 1124.04,-113.63"/>
</g>
<!-- Node44 -->
<g id="node25" class="node">
<title>Node44</title>
<g id="a_node25"><a xlink:href="test__flight__phase__manager_8cpp.html" target="_top" xlink:title=" ">
<polygon fill="none" stroke="black" points="1088.12,-56.5 1088.12,-75.5 1256.12,-75.5 1256.12,-56.5 1088.12,-56.5"/>
<text text-anchor="middle" x="1172.12" y="-63.5" font-family="Helvetica,sans-Serif" font-size="10.00">test_flight_phase_manager.cpp</text>
</a>
</g>
</g>
<!-- Node43&#45;&gt;Node44 -->
<g id="edge28" class="edge">
<title>Node43&#45;&gt;Node44</title>
<path fill="none" stroke="midnightblue" d="M1172.12,-101.8C1172.12,-92.91 1172.12,-82.78 1172.12,-75.75"/>
<polygon fill="midnightblue" stroke="midnightblue" points="1168.62,-102.08 1172.12,-112.08 1175.62,-102.08 1168.62,-102.08"/>
</g>
<!-- Node35 -->
<g id="node24" class="node">
<title>Node35</title>
<g id="a_node24"><a xlink:href="flight__logic_8cpp.html" target="_top" xlink:title="The implementation of the flight logic within the flight runner.">
<polygon fill="none" stroke="black" points="415.12,-0.5 415.12,-19.5 505.12,-19.5 505.12,-0.5 415.12,-0.5"/>
<text text-anchor="middle" x="460.12" y="-7.5" font-family="Helvetica,sans-Serif" font-size="10.00">flight_logic.cpp</text>
</a>
</g>
</g>
<!-- Node34&#45;&gt;Node35 -->
<g id="edge27" class="edge">
<title>Node34&#45;&gt;Node35</title>
<path fill="none" stroke="midnightblue" d="M875.94,-58.27C779.79,-47.34 591.73,-25.96 505.4,-16.15"/>
<polygon fill="midnightblue" stroke="midnightblue" points="875.74,-61.77 886.07,-59.42 876.53,-54.82 875.74,-61.77"/>
</g>
<!-- Node45&#45;&gt;Node43 -->
<g id="edge30" class="edge">
<title>Node45&#45;&gt;Node43</title>
<path fill="none" stroke="midnightblue" d="M1172.12,-157.8C1172.12,-148.91 1172.12,-138.78 1172.12,-131.75"/>
<polygon fill="midnightblue" stroke="midnightblue" points="1168.62,-158.08 1172.12,-168.08 1175.62,-158.08 1168.62,-158.08"/>
</g>
<!-- Node48&#45;&gt;Node45 -->
<g id="edge32" class="edge">
<title>Node48&#45;&gt;Node45</title>
<path fill="none" stroke="midnightblue" d="M1172.76,-213.8C1172.6,-204.91 1172.41,-194.78 1172.28,-187.75"/>
<polygon fill="midnightblue" stroke="midnightblue" points="1169.27,-214.15 1172.95,-224.08 1176.27,-214.02 1169.27,-214.15"/>
</g>
<!-- Node68 -->
<g id="node32" class="node">
<title>Node68</title>
<g id="a_node32"><a xlink:href="data__formatting_8cpp.html" target="_top" xlink:title="Implementation of the DataFormatter class.">
<polygon fill="none" stroke="black" points="791.12,-168.5 791.12,-187.5 907.12,-187.5 907.12,-168.5 791.12,-168.5"/>
<text text-anchor="middle" x="849.12" y="-175.5" font-family="Helvetica,sans-Serif" font-size="10.00">data_formatting.cpp</text>
</a>
</g>
</g>
<!-- Node67&#45;&gt;Node68 -->
<g id="edge38" class="edge">
<title>Node67&#45;&gt;Node68</title>
<path fill="none" stroke="midnightblue" d="M922.53,-219.45C904.44,-209.48 880.38,-196.23 864.82,-187.65"/>
<polygon fill="midnightblue" stroke="midnightblue" points="920.92,-222.56 931.37,-224.32 924.3,-216.43 920.92,-222.56"/>
</g>
<!-- Node67&#45;&gt;Node69 -->
<g id="edge39" class="edge">
<title>Node67&#45;&gt;Node69</title>
<path fill="none" stroke="midnightblue" d="M963.45,-217.25C973.38,-207.67 985.7,-195.79 993.96,-187.83"/>
<polygon fill="midnightblue" stroke="midnightblue" points="960.88,-214.86 956.11,-224.32 965.74,-219.9 960.88,-214.86"/>
</g>
<!-- Node73 -->
<g id="node36" class="node">
<title>Node73</title>
<g id="a_node36"><a xlink:href="influxdb_8cpp.html" target="_top" xlink:title=" ">
<polygon fill="none" stroke="black" points="268.12,-112.5 268.12,-131.5 344.12,-131.5 344.12,-112.5 268.12,-112.5"/>
<text text-anchor="middle" x="306.12" y="-119.5" font-family="Helvetica,sans-Serif" font-size="10.00">influxdb.cpp</text>
</a>
</g>
</g>
<!-- Node72&#45;&gt;Node73 -->
<g id="edge43" class="edge">
<title>Node72&#45;&gt;Node73</title>
<path fill="none" stroke="midnightblue" d="M750.48,-215.44C741.07,-200.13 725.23,-178.74 705.12,-168 643.16,-134.92 431.54,-126.04 344.24,-123.75"/>
<polygon fill="midnightblue" stroke="midnightblue" points="747.67,-217.56 755.73,-224.45 753.72,-214.04 747.67,-217.56"/>
</g>
<!-- Node87&#45;&gt;Node43 -->
<g id="edge47" class="edge">
<title>Node87&#45;&gt;Node43</title>
<path fill="none" stroke="midnightblue" d="M1333.5,-218.69C1313.02,-205.26 1281.28,-184.77 1253.12,-168 1230.87,-154.75 1204.56,-140.36 1188.11,-131.52"/>
<polygon fill="midnightblue" stroke="midnightblue" points="1331.79,-221.76 1342.07,-224.33 1335.64,-215.91 1331.79,-221.76"/>
</g>
<!-- Node88&#45;&gt;Node43 -->
<g id="edge49" class="edge">
<title>Node88&#45;&gt;Node43</title>
<path fill="none" stroke="midnightblue" d="M1552.14,-216.55C1564.73,-202.41 1577.7,-182.11 1565.12,-168 1544.2,-144.55 1352.37,-131.63 1244.66,-126.17"/>
<polygon fill="midnightblue" stroke="midnightblue" points="1549.33,-214.43 1544.96,-224.08 1554.4,-219.26 1549.33,-214.43"/>
</g>
<!-- Node88&#45;&gt;Node60 -->
<g id="edge50" class="edge">
<title>Node88&#45;&gt;Node60</title>
<path fill="none" stroke="midnightblue" d="M1498.07,-221.44C1465.45,-211.26 1418.71,-196.66 1389.4,-187.52"/>
<polygon fill="midnightblue" stroke="midnightblue" points="1497.12,-224.8 1507.7,-224.44 1499.2,-218.12 1497.12,-224.8"/>
</g>
<!-- Node88&#45;&gt;Node65 -->
<g id="edge51" class="edge">
<title>Node88&#45;&gt;Node65</title>
<path fill="none" stroke="midnightblue" d="M1523.49,-215.57C1517.3,-206.27 1509.95,-195.25 1504.95,-187.75"/>
<polygon fill="midnightblue" stroke="midnightblue" points="1520.71,-217.7 1529.17,-224.08 1526.54,-213.82 1520.71,-217.7"/>
</g>
<!-- Node88&#45;&gt;Node71 -->
<g id="edge52" class="edge">
<title>Node88&#45;&gt;Node71</title>
<path fill="none" stroke="midnightblue" d="M1568.49,-220.91C1596.5,-210.75 1635.81,-196.51 1660.62,-187.52"/>
<polygon fill="midnightblue" stroke="midnightblue" points="1566.94,-217.75 1558.73,-224.44 1569.32,-224.33 1566.94,-217.75"/>
</g>
<!-- Node88&#45;&gt;Node82 -->
<g id="edge53" class="edge">
<title>Node88&#45;&gt;Node82</title>
<path fill="none" stroke="midnightblue" d="M1579.51,-224.9C1634.61,-214.85 1728.13,-197.79 1784.31,-187.54"/>
<polygon fill="midnightblue" stroke="midnightblue" points="1578.57,-221.51 1569.36,-226.75 1579.83,-228.4 1578.57,-221.51"/>
</g>
<!-- Node90&#45;&gt;Node44 -->
<g id="edge56" class="edge">
<title>Node90&#45;&gt;Node44</title>
<path fill="none" stroke="midnightblue" d="M1603.21,-112.56C1507.64,-102.46 1348.57,-85.65 1252.69,-75.51"/>
<polygon fill="midnightblue" stroke="midnightblue" points="1603.09,-116.06 1613.4,-113.63 1603.83,-109.1 1603.09,-116.06"/>
</g>
<!-- Node93&#45;&gt;Node35 -->
<g id="edge61" class="edge">
<title>Node93&#45;&gt;Node35</title>
<path fill="none" stroke="midnightblue" d="M324.65,-232.68C214.66,-230.99 -33.91,-221.31 4.12,-168 100.27,-33.21 319.97,-12.98 414.97,-10.75"/>
<polygon fill="midnightblue" stroke="midnightblue" points="324.8,-236.18 334.85,-232.82 324.9,-229.18 324.8,-236.18"/>
</g>
<!-- Node93&#45;&gt;Node44 -->
<g id="edge70" class="edge">
<title>Node93&#45;&gt;Node44</title>
<path fill="none" stroke="midnightblue" d="M425.21,-228.04C490.14,-221.18 606.71,-207.42 705.12,-188 739.81,-181.15 747.89,-176.88 782.12,-168 914.47,-133.67 1072.12,-92.87 1139.24,-75.5"/>
<polygon fill="midnightblue" stroke="midnightblue" points="424.83,-224.56 415.25,-229.08 425.56,-231.52 424.83,-224.56"/>
</g>
<!-- Node93&#45;&gt;Node68 -->
<g id="edge62" class="edge">
<title>Node93&#45;&gt;Node68</title>
<path fill="none" stroke="midnightblue" d="M425.62,-227.56C501.83,-219.3 650.73,-202.97 777.12,-188 781.62,-187.47 786.28,-186.91 790.97,-186.33"/>
<polygon fill="midnightblue" stroke="midnightblue" points="424.93,-224.11 415.36,-228.67 425.68,-231.07 424.93,-224.11"/>
</g>
<!-- Node93&#45;&gt;Node73 -->
<g id="edge64" class="edge">
<title>Node93&#45;&gt;Node73</title>
<path fill="none" stroke="midnightblue" d="M324.96,-226.5C301.12,-220.61 274.71,-209.38 260.12,-188 246.17,-167.56 274.21,-143.93 292.35,-131.56"/>
<polygon fill="midnightblue" stroke="midnightblue" points="324.45,-229.97 334.97,-228.71 325.96,-223.13 324.45,-229.97"/>
</g>
<!-- Node63 -->
<g id="node46" class="node">
<title>Node63</title>
<g id="a_node46"><a xlink:href="data__module_8cpp.html" target="_top" xlink:title=" ">
<polygon fill="none" stroke="black" points="13.62,-168.5 13.62,-187.5 114.62,-187.5 114.62,-168.5 13.62,-168.5"/>
<text text-anchor="middle" x="64.12" y="-175.5" font-family="Helvetica,sans-Serif" font-size="10.00">data_module.cpp</text>
</a>
</g>
</g>
<!-- Node93&#45;&gt;Node63 -->
<g id="edge63" class="edge">
<title>Node93&#45;&gt;Node63</title>
<path fill="none" stroke="midnightblue" d="M325.01,-224.3C266.71,-214.18 171.06,-197.57 113.2,-187.52"/>
<polygon fill="midnightblue" stroke="midnightblue" points="324.64,-227.79 335.1,-226.05 325.84,-220.89 324.64,-227.79"/>
</g>
<!-- Node94 -->
<g id="node47" class="node">
<title>Node94</title>
<g id="a_node47"><a xlink:href="to__json_8hpp.html" target="_top" xlink:title="Utility functions for converting data to JSON.">
<polygon fill="none" stroke="black" points="269.62,-168.5 269.62,-187.5 342.62,-187.5 342.62,-168.5 269.62,-168.5"/>
<text text-anchor="middle" x="306.12" y="-175.5" font-family="Helvetica,sans-Serif" font-size="10.00">to_json.hpp</text>
</a>
</g>
</g>
<!-- Node93&#45;&gt;Node94 -->
<g id="edge65" class="edge">
<title>Node93&#45;&gt;Node94</title>
<path fill="none" stroke="midnightblue" d="M356.08,-218.1C343.66,-208.38 327.87,-196.03 317.4,-187.83"/>
<polygon fill="midnightblue" stroke="midnightblue" points="354,-220.92 364.03,-224.32 358.31,-215.4 354,-220.92"/>
</g>
<!-- Node95 -->
<g id="node48" class="node">
<title>Node95</title>
<g id="a_node48"><a xlink:href="to__string_8cpp.html" target="_top" xlink:title="Generic to_string functions for a variety of types.">
<polygon fill="none" stroke="black" points="133.12,-168.5 133.12,-187.5 213.12,-187.5 213.12,-168.5 133.12,-168.5"/>
<text text-anchor="middle" x="173.12" y="-175.5" font-family="Helvetica,sans-Serif" font-size="10.00">to_string.cpp</text>
</a>
</g>
</g>
<!-- Node93&#45;&gt;Node95 -->
<g id="edge67" class="edge">
<title>Node93&#45;&gt;Node95</title>
<path fill="none" stroke="midnightblue" d="M333.33,-221.83C295.19,-211.63 239.64,-196.78 204.97,-187.52"/>
<polygon fill="midnightblue" stroke="midnightblue" points="332.54,-225.24 343.11,-224.44 334.35,-218.48 332.54,-225.24"/>
</g>
<!-- Node41 -->
<g id="node49" class="node">
<title>Node41</title>
<g id="a_node49"><a xlink:href="extension__test__framework_8cpp.html" target="_top" xlink:title="Test framework for testing extensions on the host.">
<polygon fill="none" stroke="black" points="360.62,-168.5 360.62,-187.5 527.62,-187.5 527.62,-168.5 360.62,-168.5"/>
<text text-anchor="middle" x="444.12" y="-175.5" font-family="Helvetica,sans-Serif" font-size="10.00">extension_test_framework.cpp</text>
</a>
</g>
</g>
<!-- Node93&#45;&gt;Node41 -->
<g id="edge68" class="edge">
<title>Node93&#45;&gt;Node41</title>
<path fill="none" stroke="midnightblue" d="M394.15,-218.1C406.57,-208.38 422.36,-196.03 432.83,-187.83"/>
<polygon fill="midnightblue" stroke="midnightblue" points="391.92,-215.4 386.2,-224.32 396.24,-220.92 391.92,-215.4"/>
</g>
<!-- Node39 -->
<g id="node50" class="node">
<title>Node39</title>
<g id="a_node50"><a xlink:href="test__extension__module_8cpp.html" target="_top" xlink:title="Extension module unit tests.">
<polygon fill="none" stroke="black" points="545.62,-168.5 545.62,-187.5 696.62,-187.5 696.62,-168.5 545.62,-168.5"/>
<text text-anchor="middle" x="621.12" y="-175.5" font-family="Helvetica,sans-Serif" font-size="10.00">test_extension_module.cpp</text>
</a>
</g>
</g>
<!-- Node93&#45;&gt;Node39 -->
<g id="edge69" class="edge">
<title>Node93&#45;&gt;Node39</title>
<path fill="none" stroke="midnightblue" d="M423.95,-222.28C470.43,-212.08 539.48,-196.92 582.32,-187.52"/>
<polygon fill="midnightblue" stroke="midnightblue" points="423.11,-218.88 414.1,-224.44 424.61,-225.72 423.11,-218.88"/>
</g>
<!-- Node94&#45;&gt;Node73 -->
<g id="edge66" class="edge">
<title>Node94&#45;&gt;Node73</title>
<path fill="none" stroke="midnightblue" d="M306.12,-157.8C306.12,-148.91 306.12,-138.78 306.12,-131.75"/>
<polygon fill="midnightblue" stroke="midnightblue" points="302.62,-158.08 306.12,-168.08 309.62,-158.08 302.62,-158.08"/>
</g>
</g>
</svg>
