<?xml version="1.0" encoding="UTF-8" standalone="no"?>
<!DOCTYPE svg PUBLIC "-//W3C//DTD SVG 1.1//EN"
 "http://www.w3.org/Graphics/SVG/1.1/DTD/svg11.dtd">
<!-- Generated by graphviz version 2.43.0 (0)
 -->
<!-- Title: data_log.hpp Pages: 1 -->
<svg width="1866pt" height="431pt"
 viewBox="0.00 0.00 1865.56 431.00" xmlns="http://www.w3.org/2000/svg" xmlns:xlink="http://www.w3.org/1999/xlink">
<g id="graph0" class="graph" transform="scale(1 1) rotate(0) translate(4 427)">
<title>data_log.hpp</title>
<!-- Node1 -->
<g id="node1" class="node">
<title>Node1</title>
<g id="a_node1"><a xlink:title="The data log is responsible for writing data to files and managing the file system.">
<polygon fill="#bfbfbf" stroke="black" points="139.5,-403.5 139.5,-422.5 219.5,-422.5 219.5,-403.5 139.5,-403.5"/>
<text text-anchor="middle" x="179.5" y="-410.5" font-family="Helvetica,sans-Serif" font-size="10.00">data_log.hpp</text>
</a>
</g>
</g>
<!-- Node2 -->
<g id="node2" class="node">
<title>Node2</title>
<g id="a_node2"><a xlink:href="configuration_8hpp.html" target="_top" xlink:title=" ">
<polygon fill="none" stroke="black" points="0,-291.5 0,-310.5 101,-310.5 101,-291.5 0,-291.5"/>
<text text-anchor="middle" x="50.5" y="-298.5" font-family="Helvetica,sans-Serif" font-size="10.00">configuration.hpp</text>
</a>
</g>
</g>
<!-- Node1&#45;&gt;Node2 -->
<g id="edge1" class="edge">
<title>Node1&#45;&gt;Node2</title>
<path fill="none" stroke="midnightblue" d="M139.38,-404.65C115.97,-398.39 87.59,-387.08 69.5,-367 58.07,-354.32 53.5,-335.12 51.67,-320.87"/>
<polygon fill="midnightblue" stroke="midnightblue" points="55.14,-320.35 50.73,-310.72 48.17,-321 55.14,-320.35"/>
</g>
<!-- Node3 -->
<g id="node3" class="node">
<title>Node3</title>
<g id="a_node3"><a xlink:href="data__formatting_8hpp.html" target="_top" xlink:title="This file contains the DataFormatter class, which is used to format data for the data and log files.">
<polygon fill="none" stroke="black" points="78.5,-347.5 78.5,-366.5 194.5,-366.5 194.5,-347.5 78.5,-347.5"/>
<text text-anchor="middle" x="136.5" y="-354.5" font-family="Helvetica,sans-Serif" font-size="10.00">data_formatting.hpp</text>
</a>
</g>
</g>
<!-- Node1&#45;&gt;Node3 -->
<g id="edge2" class="edge">
<title>Node1&#45;&gt;Node3</title>
<path fill="none" stroke="midnightblue" d="M172.4,-403.08C166.26,-395.38 157.23,-384.03 149.76,-374.65"/>
<polygon fill="midnightblue" stroke="midnightblue" points="152.44,-372.39 143.47,-366.75 146.96,-376.75 152.44,-372.39"/>
</g>
<!-- Node4 -->
<g id="node4" class="node">
<title>Node4</title>
<g id="a_node4"><a xlink:href="shared__data_8hpp.html" target="_top" xlink:title="Contains the SharedData struct, used across all modules and extensions.">
<polygon fill="none" stroke="black" points="644.5,-291.5 644.5,-310.5 742.5,-310.5 742.5,-291.5 644.5,-291.5"/>
<text text-anchor="middle" x="693.5" y="-298.5" font-family="Helvetica,sans-Serif" font-size="10.00">shared_data.hpp</text>
</a>
</g>
</g>
<!-- Node1&#45;&gt;Node4 -->
<g id="edge68" class="edge">
<title>Node1&#45;&gt;Node4</title>
<path fill="none" stroke="midnightblue" d="M184.72,-403.4C194.07,-388.89 215.15,-359.86 241.5,-347 309.23,-313.94 527.79,-305.16 634.19,-302.84"/>
<polygon fill="midnightblue" stroke="midnightblue" points="634.52,-306.33 644.44,-302.62 634.37,-299.33 634.52,-306.33"/>
</g>
<!-- Node35 -->
<g id="node35" class="node">
<title>Node35</title>
<g id="a_node35"><a xlink:title=" ">
<polygon fill="none" stroke="#bfbfbf" points="250.5,-347.5 250.5,-366.5 400.5,-366.5 400.5,-347.5 250.5,-347.5"/>
<text text-anchor="middle" x="325.5" y="-354.5" font-family="Helvetica,sans-Serif" font-size="10.00">BoosterSeat/stopwatch.hpp</text>
</a>
</g>
</g>
<!-- Node1&#45;&gt;Node35 -->
<g id="edge69" class="edge">
<title>Node1&#45;&gt;Node35</title>
<path fill="none" stroke="midnightblue" d="M202.63,-403.44C226.98,-394.44 265.51,-380.19 292.92,-370.05"/>
<polygon fill="midnightblue" stroke="midnightblue" points="294.31,-373.27 302.47,-366.52 291.88,-366.7 294.31,-373.27"/>
</g>
<!-- Node3&#45;&gt;Node2 -->
<g id="edge3" class="edge">
<title>Node3&#45;&gt;Node2</title>
<path fill="none" stroke="midnightblue" d="M122.68,-347.32C109.27,-338.9 88.68,-325.97 72.91,-316.07"/>
<polygon fill="midnightblue" stroke="midnightblue" points="74.61,-313.01 64.28,-310.65 70.89,-318.94 74.61,-313.01"/>
</g>
<!-- Node3&#45;&gt;Node4 -->
<g id="edge4" class="edge">
<title>Node3&#45;&gt;Node4</title>
<path fill="none" stroke="midnightblue" d="M194.64,-348.57C199.33,-348.02 203.99,-347.49 208.5,-347 361.69,-330.32 542.54,-314.59 634.05,-306.9"/>
<polygon fill="midnightblue" stroke="midnightblue" points="634.55,-310.37 644.22,-306.05 633.97,-303.4 634.55,-310.37"/>
</g>
<!-- Node11 -->
<g id="node11" class="node">
<title>Node11</title>
<g id="a_node11"><a xlink:title=" ">
<polygon fill="none" stroke="#bfbfbf" points="207.5,-56.5 207.5,-75.5 317.5,-75.5 317.5,-56.5 207.5,-56.5"/>
<text text-anchor="middle" x="262.5" y="-63.5" font-family="Helvetica,sans-Serif" font-size="10.00">nlohmann/json.hpp</text>
</a>
</g>
</g>
<!-- Node3&#45;&gt;Node11 -->
<g id="edge67" class="edge">
<title>Node3&#45;&gt;Node11</title>
<path fill="none" stroke="midnightblue" d="M135.91,-347.48C134.05,-313.99 131.29,-189.47 186.5,-112 196.72,-97.66 213.07,-87.13 227.98,-79.88"/>
<polygon fill="midnightblue" stroke="midnightblue" points="229.83,-82.88 237.5,-75.58 226.95,-76.5 229.83,-82.88"/>
</g>
<!-- Node5 -->
<g id="node5" class="node">
<title>Node5</title>
<g id="a_node5"><a xlink:title=" ">
<polygon fill="none" stroke="#bfbfbf" points="657,-56.5 657,-75.5 782,-75.5 782,-56.5 657,-56.5"/>
<text text-anchor="middle" x="719.5" y="-63.5" font-family="Helvetica,sans-Serif" font-size="10.00">BoosterSeat/clock.hpp</text>
</a>
</g>
</g>
<!-- Node4&#45;&gt;Node5 -->
<g id="edge5" class="edge">
<title>Node4&#45;&gt;Node5</title>
<path fill="none" stroke="midnightblue" d="M742.73,-293.66C767.54,-287.81 795.82,-276.58 812.5,-255 843.12,-215.39 821.83,-192.99 824.5,-143 825.23,-129.24 832.08,-123.5 824.5,-112 813.86,-95.86 796.11,-85.49 778.19,-78.83"/>
<polygon fill="midnightblue" stroke="midnightblue" points="778.87,-75.37 768.27,-75.5 776.64,-82 778.87,-75.37"/>
</g>
<!-- Node6 -->
<g id="node6" class="node">
<title>Node6</title>
<g id="a_node6"><a xlink:title=" ">
<polygon fill="none" stroke="#bfbfbf" points="67.5,-56.5 67.5,-75.5 189.5,-75.5 189.5,-56.5 67.5,-56.5"/>
<text text-anchor="middle" x="128.5" y="-63.5" font-family="Helvetica,sans-Serif" font-size="10.00">BoosterSeat/time.hpp</text>
</a>
</g>
</g>
<!-- Node4&#45;&gt;Node6 -->
<g id="edge6" class="edge">
<title>Node4&#45;&gt;Node6</title>
<path fill="none" stroke="midnightblue" d="M644.26,-296.49C577.65,-291.07 455.43,-278.7 353.5,-255 277.66,-237.36 251.09,-243.93 187.5,-199 161.65,-180.74 156.71,-171.77 143.5,-143 135.1,-124.71 131.4,-101.83 129.77,-85.97"/>
<polygon fill="midnightblue" stroke="midnightblue" points="133.24,-85.51 128.91,-75.84 126.26,-86.1 133.24,-85.51"/>
</g>
<!-- Node7 -->
<g id="node7" class="node">
<title>Node7</title>
<g id="a_node7"><a xlink:href="blocks_8hpp.html" target="_top" xlink:title=" ">
<polygon fill="none" stroke="black" points="570,-179.5 570,-198.5 639,-198.5 639,-179.5 570,-179.5"/>
<text text-anchor="middle" x="604.5" y="-186.5" font-family="Helvetica,sans-Serif" font-size="10.00">blocks.hpp</text>
</a>
</g>
</g>
<!-- Node4&#45;&gt;Node7 -->
<g id="edge7" class="edge">
<title>Node4&#45;&gt;Node7</title>
<path fill="none" stroke="midnightblue" d="M686.52,-291.37C671.76,-273.14 637.21,-230.43 617.99,-206.68"/>
<polygon fill="midnightblue" stroke="midnightblue" points="620.46,-204.16 611.45,-198.59 615.02,-208.57 620.46,-204.16"/>
</g>
<!-- Node17 -->
<g id="node17" class="node">
<title>Node17</title>
<g id="a_node17"><a xlink:href="error__frame_8hpp.html" target="_top" xlink:title="The error frame.">
<polygon fill="none" stroke="black" points="1050,-235.5 1050,-254.5 1145,-254.5 1145,-235.5 1050,-235.5"/>
<text text-anchor="middle" x="1097.5" y="-242.5" font-family="Helvetica,sans-Serif" font-size="10.00">error_frame.hpp</text>
</a>
</g>
</g>
<!-- Node4&#45;&gt;Node17 -->
<g id="edge26" class="edge">
<title>Node4&#45;&gt;Node17</title>
<path fill="none" stroke="midnightblue" d="M742.63,-293.43C817.5,-283.43 959.83,-264.4 1039.6,-253.74"/>
<polygon fill="midnightblue" stroke="midnightblue" points="1040.51,-257.15 1049.96,-252.35 1039.58,-250.21 1040.51,-257.15"/>
</g>
<!-- Node18 -->
<g id="node18" class="node">
<title>Node18</title>
<g id="a_node18"><a xlink:href="frame_8hpp.html" target="_top" xlink:title=" ">
<polygon fill="none" stroke="black" points="1555,-179.5 1555,-198.5 1622,-198.5 1622,-179.5 1555,-179.5"/>
<text text-anchor="middle" x="1588.5" y="-186.5" font-family="Helvetica,sans-Serif" font-size="10.00">frame.hpp</text>
</a>
</g>
</g>
<!-- Node4&#45;&gt;Node18 -->
<g id="edge60" class="edge">
<title>Node4&#45;&gt;Node18</title>
<path fill="none" stroke="midnightblue" d="M742.71,-296.03C827.12,-289.04 1004.86,-273.5 1154.5,-255 1297.78,-237.29 1466.74,-210.18 1544.85,-197.3"/>
<polygon fill="midnightblue" stroke="midnightblue" points="1545.52,-200.73 1554.82,-195.65 1544.38,-193.83 1545.52,-200.73"/>
</g>
<!-- Node21 -->
<g id="node21" class="node">
<title>Node21</title>
<g id="a_node21"><a xlink:href="streams_8hpp.html" target="_top" xlink:title="The header file for the data streams.">
<polygon fill="none" stroke="black" points="1059,-179.5 1059,-198.5 1136,-198.5 1136,-179.5 1059,-179.5"/>
<text text-anchor="middle" x="1097.5" y="-186.5" font-family="Helvetica,sans-Serif" font-size="10.00">streams.hpp</text>
</a>
</g>
</g>
<!-- Node4&#45;&gt;Node21 -->
<g id="edge66" class="edge">
<title>Node4&#45;&gt;Node21</title>
<path fill="none" stroke="midnightblue" d="M737.13,-291.49C778.23,-283.19 841.41,-269.69 895.5,-255 955.48,-238.71 1024.13,-215.66 1063.98,-201.84"/>
<polygon fill="midnightblue" stroke="midnightblue" points="1065.17,-205.13 1073.46,-198.53 1062.87,-198.52 1065.17,-205.13"/>
</g>
<!-- Node29 -->
<g id="node29" class="node">
<title>Node29</title>
<g id="a_node29"><a xlink:href="flight__data_8hpp.html" target="_top" xlink:title=" ">
<polygon fill="none" stroke="black" points="362,-235.5 362,-254.5 451,-254.5 451,-235.5 362,-235.5"/>
<text text-anchor="middle" x="406.5" y="-242.5" font-family="Helvetica,sans-Serif" font-size="10.00">flight_data.hpp</text>
</a>
</g>
</g>
<!-- Node4&#45;&gt;Node29 -->
<g id="edge49" class="edge">
<title>Node4&#45;&gt;Node29</title>
<path fill="none" stroke="midnightblue" d="M648.02,-291.44C597.39,-281.92 515.56,-266.52 461.4,-256.33"/>
<polygon fill="midnightblue" stroke="midnightblue" points="461.77,-252.84 451.29,-254.43 460.47,-259.72 461.77,-252.84"/>
</g>
<!-- Node30 -->
<g id="node30" class="node">
<title>Node30</title>
<g id="a_node30"><a xlink:href="flight__phase_8hpp.html" target="_top" xlink:title="Contains the flight phase enum and related functions.">
<polygon fill="none" stroke="black" points="396,-179.5 396,-198.5 493,-198.5 493,-179.5 396,-179.5"/>
<text text-anchor="middle" x="444.5" y="-186.5" font-family="Helvetica,sans-Serif" font-size="10.00">flight_phase.hpp</text>
</a>
</g>
</g>
<!-- Node4&#45;&gt;Node30 -->
<g id="edge59" class="edge">
<title>Node4&#45;&gt;Node30</title>
<path fill="none" stroke="midnightblue" d="M673.96,-291.37C630.23,-272.05 524.31,-225.26 473.13,-202.65"/>
<polygon fill="midnightblue" stroke="midnightblue" points="474.51,-199.43 463.95,-198.59 471.68,-205.83 474.51,-199.43"/>
</g>
<!-- Node32 -->
<g id="node32" class="node">
<title>Node32</title>
<g id="a_node32"><a xlink:href="log__container_8hpp.html" target="_top" xlink:title="A simple logging system for debugging.">
<polygon fill="none" stroke="black" points="1614,-235.5 1614,-254.5 1717,-254.5 1717,-235.5 1614,-235.5"/>
<text text-anchor="middle" x="1665.5" y="-242.5" font-family="Helvetica,sans-Serif" font-size="10.00">log_container.hpp</text>
</a>
</g>
</g>
<!-- Node4&#45;&gt;Node32 -->
<g id="edge61" class="edge">
<title>Node4&#45;&gt;Node32</title>
<path fill="none" stroke="midnightblue" d="M742.7,-297.27C905.2,-288.24 1424.57,-259.39 1603.9,-249.42"/>
<polygon fill="midnightblue" stroke="midnightblue" points="1604.17,-252.91 1613.96,-248.86 1603.78,-245.92 1604.17,-252.91"/>
</g>
<!-- Node34 -->
<g id="node34" class="node">
<title>Node34</title>
<g id="a_node34"><a xlink:href="status__led_8hpp.html" target="_top" xlink:title="RGB Status LED extension header file.">
<polygon fill="none" stroke="black" points="715.5,-235.5 715.5,-254.5 803.5,-254.5 803.5,-235.5 715.5,-235.5"/>
<text text-anchor="middle" x="759.5" y="-242.5" font-family="Helvetica,sans-Serif" font-size="10.00">status_led.hpp</text>
</a>
</g>
</g>
<!-- Node4&#45;&gt;Node34 -->
<g id="edge64" class="edge">
<title>Node4&#45;&gt;Node34</title>
<path fill="none" stroke="midnightblue" d="M704.1,-291.32C713.96,-283.26 728.85,-271.08 740.72,-261.37"/>
<polygon fill="midnightblue" stroke="midnightblue" points="743.18,-263.88 748.7,-254.83 738.75,-258.46 743.18,-263.88"/>
</g>
<!-- Node7&#45;&gt;Node5 -->
<g id="edge9" class="edge">
<title>Node7&#45;&gt;Node5</title>
<path fill="none" stroke="midnightblue" d="M612.77,-179.3C631.92,-159.15 679.53,-109.06 704.17,-83.12"/>
<polygon fill="midnightblue" stroke="midnightblue" points="706.95,-85.28 711.3,-75.62 701.88,-80.46 706.95,-85.28"/>
</g>
<!-- Node7&#45;&gt;Node6 -->
<g id="edge11" class="edge">
<title>Node7&#45;&gt;Node6</title>
<path fill="none" stroke="midnightblue" d="M569.65,-182.21C524.88,-174.53 444.91,-159.92 377.5,-143 300.15,-123.58 211.13,-94.83 163.28,-78.83"/>
<polygon fill="midnightblue" stroke="midnightblue" points="164.31,-75.48 153.71,-75.62 162.08,-82.12 164.31,-75.48"/>
</g>
<!-- Node7&#45;&gt;Node7 -->
<g id="edge12" class="edge">
<title>Node7&#45;&gt;Node7</title>
<path fill="none" stroke="midnightblue" d="M626.89,-198.53C642.11,-201.31 657,-198.13 657,-189 657,-181.94 648.09,-178.44 637.01,-178.5"/>
<polygon fill="midnightblue" stroke="midnightblue" points="636.51,-175.03 626.89,-179.47 637.18,-182 636.51,-175.03"/>
</g>
<!-- Node8 -->
<g id="node8" class="node">
<title>Node8</title>
<g id="a_node8"><a xlink:title=" ">
<polygon fill="none" stroke="#bfbfbf" points="1531.5,-56.5 1531.5,-75.5 1579.5,-75.5 1579.5,-56.5 1531.5,-56.5"/>
<text text-anchor="middle" x="1555.5" y="-63.5" font-family="Helvetica,sans-Serif" font-size="10.00">mutex</text>
</a>
</g>
</g>
<!-- Node7&#45;&gt;Node8 -->
<g id="edge8" class="edge">
<title>Node7&#45;&gt;Node8</title>
<path fill="none" stroke="midnightblue" d="M639.28,-187.25C781.25,-184.01 1312.68,-170.16 1382.5,-143 1402.81,-135.1 1401.4,-122.51 1420.5,-112 1452.79,-94.23 1493.29,-81.89 1521.47,-74.69"/>
<polygon fill="midnightblue" stroke="midnightblue" points="1522.39,-78.06 1531.25,-72.26 1520.7,-71.27 1522.39,-78.06"/>
</g>
<!-- Node9 -->
<g id="node9" class="node">
<title>Node9</title>
<g id="a_node9"><a xlink:title=" ">
<polygon fill="none" stroke="#bfbfbf" points="386,-118 386,-137 529,-137 529,-118 386,-118"/>
<text text-anchor="middle" x="457.5" y="-125" font-family="Helvetica,sans-Serif" font-size="10.00">BoosterSeat/numbers.hpp</text>
</a>
</g>
</g>
<!-- Node7&#45;&gt;Node9 -->
<g id="edge10" class="edge">
<title>Node7&#45;&gt;Node9</title>
<path fill="none" stroke="midnightblue" d="M583.44,-179.48C558.44,-169.36 516.56,-152.4 488.01,-140.85"/>
<polygon fill="midnightblue" stroke="midnightblue" points="489.11,-137.52 478.52,-137.01 486.48,-144.01 489.11,-137.52"/>
</g>
<!-- Node10 -->
<g id="node10" class="node">
<title>Node10</title>
<g id="a_node10"><a xlink:href="json_8hpp.html" target="_top" xlink:title="Simple wrapper around nlohmann/json.hpp to provide a common interface.">
<polygon fill="none" stroke="black" points="195.5,-118 195.5,-137 253.5,-137 253.5,-118 195.5,-118"/>
<text text-anchor="middle" x="224.5" y="-125" font-family="Helvetica,sans-Serif" font-size="10.00">json.hpp</text>
</a>
</g>
</g>
<!-- Node7&#45;&gt;Node10 -->
<g id="edge13" class="edge">
<title>Node7&#45;&gt;Node10</title>
<path fill="none" stroke="midnightblue" d="M569.92,-183.11C514.19,-175.17 401.06,-158.74 305.5,-143 291.93,-140.76 277.11,-138.16 263.9,-135.78"/>
<polygon fill="midnightblue" stroke="midnightblue" points="264.17,-132.27 253.71,-133.93 262.92,-139.16 264.17,-132.27"/>
</g>
<!-- Node13 -->
<g id="node13" class="node">
<title>Node13</title>
<g id="a_node13"><a xlink:href="node_8hpp.html" target="_top" xlink:title="Contains structures that are used to identify components of the flight system.">
<polygon fill="none" stroke="black" points="800.5,-56.5 800.5,-75.5 862.5,-75.5 862.5,-56.5 800.5,-56.5"/>
<text text-anchor="middle" x="831.5" y="-63.5" font-family="Helvetica,sans-Serif" font-size="10.00">node.hpp</text>
</a>
</g>
</g>
<!-- Node7&#45;&gt;Node13 -->
<g id="edge16" class="edge">
<title>Node7&#45;&gt;Node13</title>
<path fill="none" stroke="midnightblue" d="M620.46,-179.49C659.36,-158.76 759.3,-105.49 806.32,-80.42"/>
<polygon fill="midnightblue" stroke="midnightblue" points="808.07,-83.45 815.25,-75.66 804.78,-77.28 808.07,-83.45"/>
</g>
<!-- Node16 -->
<g id="node16" class="node">
<title>Node16</title>
<g id="a_node16"><a xlink:href="positional_8hpp.html" target="_top" xlink:title="Positional data for the flight system (gps/imu data)">
<polygon fill="none" stroke="black" points="547.5,-118 547.5,-137 633.5,-137 633.5,-118 547.5,-118"/>
<text text-anchor="middle" x="590.5" y="-125" font-family="Helvetica,sans-Serif" font-size="10.00">positional.hpp</text>
</a>
</g>
</g>
<!-- Node7&#45;&gt;Node16 -->
<g id="edge19" class="edge">
<title>Node7&#45;&gt;Node16</title>
<path fill="none" stroke="midnightblue" d="M602.49,-179.48C600.5,-170.99 597.37,-157.7 594.81,-146.82"/>
<polygon fill="midnightblue" stroke="midnightblue" points="598.2,-145.94 592.5,-137.01 591.39,-147.54 598.2,-145.94"/>
</g>
<!-- Node10&#45;&gt;Node11 -->
<g id="edge14" class="edge">
<title>Node10&#45;&gt;Node11</title>
<path fill="none" stroke="midnightblue" d="M229.94,-117.98C235.59,-109.14 244.56,-95.09 251.66,-83.98"/>
<polygon fill="midnightblue" stroke="midnightblue" points="254.63,-85.82 257.07,-75.51 248.73,-82.05 254.63,-85.82"/>
</g>
<!-- Node12 -->
<g id="node12" class="node">
<title>Node12</title>
<g id="a_node12"><a xlink:title=" ">
<polygon fill="none" stroke="#bfbfbf" points="335.5,-56.5 335.5,-75.5 379.5,-75.5 379.5,-56.5 335.5,-56.5"/>
<text text-anchor="middle" x="357.5" y="-63.5" font-family="Helvetica,sans-Serif" font-size="10.00">string</text>
</a>
</g>
</g>
<!-- Node10&#45;&gt;Node12 -->
<g id="edge15" class="edge">
<title>Node10&#45;&gt;Node12</title>
<path fill="none" stroke="midnightblue" d="M243.56,-117.98C265.97,-107.95 303.41,-91.2 329.21,-79.65"/>
<polygon fill="midnightblue" stroke="midnightblue" points="330.78,-82.79 338.48,-75.51 327.92,-76.4 330.78,-82.79"/>
</g>
<!-- Node14 -->
<g id="node14" class="node">
<title>Node14</title>
<g id="a_node14"><a xlink:title=" ">
<polygon fill="none" stroke="#bfbfbf" points="761.5,-0.5 761.5,-19.5 811.5,-19.5 811.5,-0.5 761.5,-0.5"/>
<text text-anchor="middle" x="786.5" y="-7.5" font-family="Helvetica,sans-Serif" font-size="10.00">cstdint</text>
</a>
</g>
</g>
<!-- Node13&#45;&gt;Node14 -->
<g id="edge17" class="edge">
<title>Node13&#45;&gt;Node14</title>
<path fill="none" stroke="midnightblue" d="M824.07,-56.08C817.65,-48.38 808.19,-37.03 800.38,-27.65"/>
<polygon fill="midnightblue" stroke="midnightblue" points="802.88,-25.19 793.79,-19.75 797.51,-29.67 802.88,-25.19"/>
</g>
<!-- Node15 -->
<g id="node15" class="node">
<title>Node15</title>
<g id="a_node15"><a xlink:title=" ">
<polygon fill="none" stroke="#bfbfbf" points="660.5,-0.5 660.5,-19.5 698.5,-19.5 698.5,-0.5 660.5,-0.5"/>
<text text-anchor="middle" x="679.5" y="-7.5" font-family="Helvetica,sans-Serif" font-size="10.00">map</text>
</a>
</g>
</g>
<!-- Node13&#45;&gt;Node15 -->
<g id="edge18" class="edge">
<title>Node13&#45;&gt;Node15</title>
<path fill="none" stroke="midnightblue" d="M807.42,-56.44C780.46,-46.87 736.81,-31.36 708.13,-21.17"/>
<polygon fill="midnightblue" stroke="midnightblue" points="709.25,-17.86 698.66,-17.81 706.91,-24.45 709.25,-17.86"/>
</g>
<!-- Node16&#45;&gt;Node5 -->
<g id="edge24" class="edge">
<title>Node16&#45;&gt;Node5</title>
<path fill="none" stroke="midnightblue" d="M608.98,-117.98C630.63,-107.99 666.71,-91.35 691.73,-79.81"/>
<polygon fill="midnightblue" stroke="midnightblue" points="693.44,-82.88 701.05,-75.51 690.51,-76.52 693.44,-82.88"/>
</g>
<!-- Node16&#45;&gt;Node6 -->
<g id="edge25" class="edge">
<title>Node16&#45;&gt;Node6</title>
<path fill="none" stroke="midnightblue" d="M563.18,-117.96C555.28,-115.74 546.6,-113.55 538.5,-112 392.45,-84.11 351.18,-93.27 199.71,-76.1"/>
<polygon fill="midnightblue" stroke="midnightblue" points="199.91,-72.6 189.57,-74.93 199.11,-79.56 199.91,-72.6"/>
</g>
<!-- Node16&#45;&gt;Node11 -->
<g id="edge23" class="edge">
<title>Node16&#45;&gt;Node11</title>
<path fill="none" stroke="midnightblue" d="M562.03,-117.95C554.43,-115.84 546.19,-113.69 538.5,-112 499.49,-103.41 396.59,-87.27 328.06,-76.84"/>
<polygon fill="midnightblue" stroke="midnightblue" points="328.2,-73.32 317.79,-75.28 327.15,-80.24 328.2,-73.32"/>
</g>
<!-- Node16&#45;&gt;Node12 -->
<g id="edge22" class="edge">
<title>Node16&#45;&gt;Node12</title>
<path fill="none" stroke="midnightblue" d="M560.57,-118C553.35,-115.99 545.66,-113.89 538.5,-112 486.49,-98.29 425.77,-83.42 389.54,-74.68"/>
<polygon fill="midnightblue" stroke="midnightblue" points="390.1,-71.21 379.56,-72.27 388.46,-78.02 390.1,-71.21"/>
</g>
<!-- Node16&#45;&gt;Node14 -->
<g id="edge20" class="edge">
<title>Node16&#45;&gt;Node14</title>
<path fill="none" stroke="midnightblue" d="M595.39,-117.77C604.14,-102.94 623.89,-72.79 648.5,-56 679.88,-34.59 722.14,-22.79 751.6,-16.71"/>
<polygon fill="midnightblue" stroke="midnightblue" points="752.3,-20.14 761.45,-14.79 750.96,-13.27 752.3,-20.14"/>
</g>
<!-- Node16&#45;&gt;Node15 -->
<g id="edge21" class="edge">
<title>Node16&#45;&gt;Node15</title>
<path fill="none" stroke="midnightblue" d="M591.65,-117.87C593.91,-103.71 600.01,-75.19 614.5,-56 624.35,-42.95 639.1,-32.31 652.06,-24.65"/>
<polygon fill="midnightblue" stroke="midnightblue" points="654.06,-27.54 661.09,-19.61 650.65,-21.43 654.06,-27.54"/>
</g>
<!-- Node17&#45;&gt;Node5 -->
<g id="edge27" class="edge">
<title>Node17&#45;&gt;Node5</title>
<path fill="none" stroke="midnightblue" d="M1082.15,-235.46C1052.6,-218.81 986.09,-180.4 933.5,-143 915.74,-130.37 914.96,-121.82 895.5,-112 862.33,-95.26 822.41,-84.4 788.99,-77.55"/>
<polygon fill="midnightblue" stroke="midnightblue" points="789.32,-74.05 778.84,-75.55 787.97,-80.92 789.32,-74.05"/>
</g>
<!-- Node17&#45;&gt;Node18 -->
<g id="edge28" class="edge">
<title>Node17&#45;&gt;Node18</title>
<path fill="none" stroke="midnightblue" d="M1145.03,-238.77C1240.15,-228.31 1452.71,-204.93 1544.69,-194.82"/>
<polygon fill="midnightblue" stroke="midnightblue" points="1545.21,-198.28 1554.77,-193.71 1544.45,-191.32 1545.21,-198.28"/>
</g>
<!-- Node20 -->
<g id="node20" class="node">
<title>Node20</title>
<g id="a_node20"><a xlink:href="giraffe__diagnostic__ids_8hpp.html" target="_top" xlink:title=" ">
<polygon fill="none" stroke="black" points="1583.5,-112.5 1583.5,-142.5 1687.5,-142.5 1687.5,-112.5 1583.5,-112.5"/>
<text text-anchor="start" x="1591.5" y="-130.5" font-family="Helvetica,sans-Serif" font-size="10.00">giraffe_diagnostic</text>
<text text-anchor="middle" x="1635.5" y="-119.5" font-family="Helvetica,sans-Serif" font-size="10.00">_ids.hpp</text>
</a>
</g>
</g>
<!-- Node17&#45;&gt;Node20 -->
<g id="edge31" class="edge">
<title>Node17&#45;&gt;Node20</title>
<path fill="none" stroke="midnightblue" d="M1137.5,-235.41C1230.42,-215.46 1461.45,-165.87 1573.12,-141.89"/>
<polygon fill="midnightblue" stroke="midnightblue" points="1574.18,-145.25 1583.22,-139.72 1572.71,-138.4 1574.18,-145.25"/>
</g>
<!-- Node17&#45;&gt;Node21 -->
<g id="edge32" class="edge">
<title>Node17&#45;&gt;Node21</title>
<path fill="none" stroke="midnightblue" d="M1097.5,-235.08C1097.5,-228.01 1097.5,-217.86 1097.5,-208.99"/>
<polygon fill="midnightblue" stroke="midnightblue" points="1101,-208.75 1097.5,-198.75 1094,-208.75 1101,-208.75"/>
</g>
<!-- Node18&#45;&gt;Node8 -->
<g id="edge29" class="edge">
<title>Node18&#45;&gt;Node8</title>
<path fill="none" stroke="midnightblue" d="M1618.87,-179.47C1647.55,-170.72 1687.49,-156.52 1696.5,-143 1704.14,-131.54 1704.63,-123.13 1696.5,-112 1672.22,-78.77 1623.13,-69.5 1589.78,-67.23"/>
<polygon fill="midnightblue" stroke="midnightblue" points="1589.72,-63.72 1579.55,-66.71 1589.36,-70.71 1589.72,-63.72"/>
</g>
<!-- Node19 -->
<g id="node19" class="node">
<title>Node19</title>
<g id="a_node19"><a xlink:title=" ">
<polygon fill="none" stroke="#bfbfbf" points="1744,-118 1744,-137 1837,-137 1837,-118 1744,-118"/>
<text text-anchor="middle" x="1790.5" y="-125" font-family="Helvetica,sans-Serif" font-size="10.00">unordered_map</text>
</a>
</g>
</g>
<!-- Node18&#45;&gt;Node19 -->
<g id="edge30" class="edge">
<title>Node18&#45;&gt;Node19</title>
<path fill="none" stroke="midnightblue" d="M1617.44,-179.48C1652.77,-169.07 1712.63,-151.44 1751.86,-139.88"/>
<polygon fill="midnightblue" stroke="midnightblue" points="1753.01,-143.19 1761.61,-137.01 1751.03,-136.48 1753.01,-143.19"/>
</g>
<!-- Node21&#45;&gt;Node5 -->
<g id="edge38" class="edge">
<title>Node21&#45;&gt;Node5</title>
<path fill="none" stroke="midnightblue" d="M1064.06,-179.44C1037.87,-171.96 1001.04,-159.66 971.5,-143 952.52,-132.29 953.17,-121.4 933.5,-112 907.55,-99.6 837.38,-86.12 784.41,-77.18"/>
<polygon fill="midnightblue" stroke="midnightblue" points="784.84,-73.7 774.4,-75.51 783.68,-80.6 784.84,-73.7"/>
</g>
<!-- Node21&#45;&gt;Node8 -->
<g id="edge35" class="edge">
<title>Node21&#45;&gt;Node8</title>
<path fill="none" stroke="midnightblue" d="M1136.17,-188.31C1227.45,-188.36 1453.24,-184.18 1514.5,-143 1534.28,-129.7 1545.31,-103.61 1550.82,-85.74"/>
<polygon fill="midnightblue" stroke="midnightblue" points="1554.26,-86.44 1553.57,-75.86 1547.52,-84.56 1554.26,-86.44"/>
</g>
<!-- Node21&#45;&gt;Node12 -->
<g id="edge37" class="edge">
<title>Node21&#45;&gt;Node12</title>
<path fill="none" stroke="midnightblue" d="M1064.6,-179.45C1030.68,-170.58 976.3,-156.17 929.5,-143 882.66,-129.82 872.27,-121.26 824.5,-112 663.31,-80.74 466.4,-70.81 389.98,-68"/>
<polygon fill="midnightblue" stroke="midnightblue" points="389.71,-64.49 379.6,-67.63 389.47,-71.48 389.71,-64.49"/>
</g>
<!-- Node21&#45;&gt;Node13 -->
<g id="edge47" class="edge">
<title>Node21&#45;&gt;Node13</title>
<path fill="none" stroke="midnightblue" d="M1080.29,-179.48C1063.24,-170.86 1036.57,-156.86 1014.5,-143 994.55,-130.47 992.53,-122.62 971.5,-112 939.84,-96 901.31,-84.12 872.69,-76.59"/>
<polygon fill="midnightblue" stroke="midnightblue" points="873.18,-73.1 862.63,-74.01 871.45,-79.88 873.18,-73.1"/>
</g>
<!-- Node21&#45;&gt;Node16 -->
<g id="edge48" class="edge">
<title>Node21&#45;&gt;Node16</title>
<path fill="none" stroke="midnightblue" d="M1058.98,-183.48C969.28,-172.95 746.32,-146.79 643.71,-134.75"/>
<polygon fill="midnightblue" stroke="midnightblue" points="643.92,-131.25 633.58,-133.56 643.1,-138.2 643.92,-131.25"/>
</g>
<!-- Node21&#45;&gt;Node20 -->
<g id="edge46" class="edge">
<title>Node21&#45;&gt;Node20</title>
<path fill="none" stroke="midnightblue" d="M1136.24,-185.9C1217.13,-181.17 1409.7,-168.08 1569.5,-143 1570.77,-142.8 1572.05,-142.59 1573.35,-142.37"/>
<polygon fill="midnightblue" stroke="midnightblue" points="1574.15,-145.79 1583.37,-140.56 1572.91,-138.9 1574.15,-145.79"/>
</g>
<!-- Node22 -->
<g id="node22" class="node">
<title>Node22</title>
<g id="a_node22"><a xlink:title=" ">
<polygon fill="none" stroke="#bfbfbf" points="765.5,-118 765.5,-137 815.5,-137 815.5,-118 765.5,-118"/>
<text text-anchor="middle" x="790.5" y="-125" font-family="Helvetica,sans-Serif" font-size="10.00">atomic</text>
</a>
</g>
</g>
<!-- Node21&#45;&gt;Node22 -->
<g id="edge33" class="edge">
<title>Node21&#45;&gt;Node22</title>
<path fill="none" stroke="midnightblue" d="M1058.84,-183.84C1006.31,-177.67 909.72,-164.44 829.5,-143 826.69,-142.25 823.79,-141.37 820.91,-140.43"/>
<polygon fill="midnightblue" stroke="midnightblue" points="821.91,-137.07 811.31,-137.07 819.59,-143.68 821.91,-137.07"/>
</g>
<!-- Node23 -->
<g id="node23" class="node">
<title>Node23</title>
<g id="a_node23"><a xlink:title=" ">
<polygon fill="none" stroke="#bfbfbf" points="1429.5,-118 1429.5,-137 1489.5,-137 1489.5,-118 1429.5,-118"/>
<text text-anchor="middle" x="1459.5" y="-125" font-family="Helvetica,sans-Serif" font-size="10.00">iostream</text>
</a>
</g>
</g>
<!-- Node21&#45;&gt;Node23 -->
<g id="edge34" class="edge">
<title>Node21&#45;&gt;Node23</title>
<path fill="none" stroke="midnightblue" d="M1136.09,-184.77C1196.33,-179.23 1316.14,-166.21 1415.5,-143 1418.97,-142.19 1422.56,-141.22 1426.13,-140.18"/>
<polygon fill="midnightblue" stroke="midnightblue" points="1427.47,-143.43 1435.97,-137.11 1425.38,-136.75 1427.47,-143.43"/>
</g>
<!-- Node24 -->
<g id="node24" class="node">
<title>Node24</title>
<g id="a_node24"><a xlink:title=" ">
<polygon fill="none" stroke="#bfbfbf" points="1434,-56.5 1434,-75.5 1481,-75.5 1481,-56.5 1434,-56.5"/>
<text text-anchor="middle" x="1457.5" y="-63.5" font-family="Helvetica,sans-Serif" font-size="10.00">queue</text>
</a>
</g>
</g>
<!-- Node21&#45;&gt;Node24 -->
<g id="edge36" class="edge">
<title>Node21&#45;&gt;Node24</title>
<path fill="none" stroke="midnightblue" d="M1136.05,-186.54C1231.82,-182.52 1474.57,-169.77 1498.5,-143 1514.88,-124.68 1493.48,-98.67 1475.96,-82.32"/>
<polygon fill="midnightblue" stroke="midnightblue" points="1478.14,-79.57 1468.34,-75.55 1473.49,-84.81 1478.14,-79.57"/>
</g>
<!-- Node25 -->
<g id="node25" class="node">
<title>Node25</title>
<g id="a_node25"><a xlink:title=" ">
<polygon fill="none" stroke="#bfbfbf" points="1023.5,-118 1023.5,-137 1171.5,-137 1171.5,-118 1023.5,-118"/>
<text text-anchor="middle" x="1097.5" y="-125" font-family="Helvetica,sans-Serif" font-size="10.00">BoosterSeat/exception.hpp</text>
</a>
</g>
</g>
<!-- Node21&#45;&gt;Node25 -->
<g id="edge39" class="edge">
<title>Node21&#45;&gt;Node25</title>
<path fill="none" stroke="midnightblue" d="M1097.5,-179.48C1097.5,-171.08 1097.5,-157.98 1097.5,-147.16"/>
<polygon fill="midnightblue" stroke="midnightblue" points="1101,-147.01 1097.5,-137.01 1094,-147.01 1101,-147.01"/>
</g>
<!-- Node26 -->
<g id="node26" class="node">
<title>Node26</title>
<g id="a_node26"><a xlink:href="command_8hpp.html" target="_top" xlink:title="The command/queue system for the flight system.">
<polygon fill="none" stroke="black" points="1287.5,-118 1287.5,-137 1373.5,-137 1373.5,-118 1287.5,-118"/>
<text text-anchor="middle" x="1330.5" y="-125" font-family="Helvetica,sans-Serif" font-size="10.00">command.hpp</text>
</a>
</g>
</g>
<!-- Node21&#45;&gt;Node26 -->
<g id="edge40" class="edge">
<title>Node21&#45;&gt;Node26</title>
<path fill="none" stroke="midnightblue" d="M1132.95,-179.5C1169.5,-170.66 1228.09,-156.29 1278.5,-143 1282.53,-141.94 1286.72,-140.81 1290.91,-139.67"/>
<polygon fill="midnightblue" stroke="midnightblue" points="1291.86,-143.03 1300.57,-137 1290,-136.29 1291.86,-143.03"/>
</g>
<!-- Node28 -->
<g id="node28" class="node">
<title>Node28</title>
<g id="a_node28"><a xlink:href="data__ids_8hpp.html" target="_top" xlink:title=" ">
<polygon fill="none" stroke="black" points="1190,-118 1190,-137 1269,-137 1269,-118 1190,-118"/>
<text text-anchor="middle" x="1229.5" y="-125" font-family="Helvetica,sans-Serif" font-size="10.00">data_ids.hpp</text>
</a>
</g>
</g>
<!-- Node21&#45;&gt;Node28 -->
<g id="edge45" class="edge">
<title>Node21&#45;&gt;Node28</title>
<path fill="none" stroke="midnightblue" d="M1116.41,-179.48C1138.66,-169.45 1175.81,-152.7 1201.43,-141.15"/>
<polygon fill="midnightblue" stroke="midnightblue" points="1202.94,-144.31 1210.62,-137.01 1200.07,-137.93 1202.94,-144.31"/>
</g>
<!-- Node26&#45;&gt;Node8 -->
<g id="edge41" class="edge">
<title>Node26&#45;&gt;Node8</title>
<path fill="none" stroke="midnightblue" d="M1362.74,-117.98C1404.92,-106.82 1478.53,-87.36 1521.54,-75.98"/>
<polygon fill="midnightblue" stroke="midnightblue" points="1522.5,-79.35 1531.27,-73.41 1520.71,-72.58 1522.5,-79.35"/>
</g>
<!-- Node26&#45;&gt;Node13 -->
<g id="edge44" class="edge">
<title>Node26&#45;&gt;Node13</title>
<path fill="none" stroke="midnightblue" d="M1303.18,-117.93C1295.28,-115.72 1286.61,-113.53 1278.5,-112 1130.69,-84.16 951.92,-72.73 872.71,-68.78"/>
<polygon fill="midnightblue" stroke="midnightblue" points="872.81,-65.28 862.65,-68.3 872.47,-72.28 872.81,-65.28"/>
</g>
<!-- Node26&#45;&gt;Node24 -->
<g id="edge42" class="edge">
<title>Node26&#45;&gt;Node24</title>
<path fill="none" stroke="midnightblue" d="M1348.7,-117.98C1370.01,-107.99 1405.53,-91.35 1430.16,-79.81"/>
<polygon fill="midnightblue" stroke="midnightblue" points="1431.77,-82.92 1439.34,-75.51 1428.8,-76.58 1431.77,-82.92"/>
</g>
<!-- Node27 -->
<g id="node27" class="node">
<title>Node27</title>
<g id="a_node27"><a xlink:href="command__ids_8hpp.html" target="_top" xlink:title=" ">
<polygon fill="none" stroke="black" points="1277.5,-56.5 1277.5,-75.5 1383.5,-75.5 1383.5,-56.5 1277.5,-56.5"/>
<text text-anchor="middle" x="1330.5" y="-63.5" font-family="Helvetica,sans-Serif" font-size="10.00">command_ids.hpp</text>
</a>
</g>
</g>
<!-- Node26&#45;&gt;Node27 -->
<g id="edge43" class="edge">
<title>Node26&#45;&gt;Node27</title>
<path fill="none" stroke="midnightblue" d="M1330.5,-117.98C1330.5,-109.58 1330.5,-96.48 1330.5,-85.66"/>
<polygon fill="midnightblue" stroke="midnightblue" points="1334,-85.51 1330.5,-75.51 1327,-85.51 1334,-85.51"/>
</g>
<!-- Node29&#45;&gt;Node5 -->
<g id="edge52" class="edge">
<title>Node29&#45;&gt;Node5</title>
<path fill="none" stroke="midnightblue" d="M451.26,-241.45C516.67,-236.87 634.13,-225.18 666.5,-199 701.75,-170.48 713.7,-114.96 717.64,-85.85"/>
<polygon fill="midnightblue" stroke="midnightblue" points="721.13,-86.11 718.82,-75.77 714.18,-85.3 721.13,-86.11"/>
</g>
<!-- Node29&#45;&gt;Node6 -->
<g id="edge53" class="edge">
<title>Node29&#45;&gt;Node6</title>
<path fill="none" stroke="midnightblue" d="M361.64,-242.95C319.84,-239.93 257.51,-230.02 213.5,-199 172.41,-170.04 146.41,-114.29 135.08,-85.39"/>
<polygon fill="midnightblue" stroke="midnightblue" points="138.25,-83.87 131.46,-75.74 131.69,-86.33 138.25,-83.87"/>
</g>
<!-- Node29&#45;&gt;Node10 -->
<g id="edge58" class="edge">
<title>Node29&#45;&gt;Node10</title>
<path fill="none" stroke="midnightblue" d="M361.88,-239.22C313.6,-233.03 241.25,-220.4 224.5,-199 213.21,-184.58 215.12,-162.92 218.66,-147.42"/>
<polygon fill="midnightblue" stroke="midnightblue" points="222.13,-147.98 221.35,-137.41 215.37,-146.16 222.13,-147.98"/>
</g>
<!-- Node29&#45;&gt;Node12 -->
<g id="edge51" class="edge">
<title>Node29&#45;&gt;Node12</title>
<path fill="none" stroke="midnightblue" d="M401.23,-235.5C391.1,-218.62 369.15,-179.37 360.5,-143 355.97,-123.96 355.68,-101.49 356.24,-85.95"/>
<polygon fill="midnightblue" stroke="midnightblue" points="359.76,-85.75 356.78,-75.58 352.76,-85.39 359.76,-85.75"/>
</g>
<!-- Node29&#45;&gt;Node22 -->
<g id="edge50" class="edge">
<title>Node29&#45;&gt;Node22</title>
<path fill="none" stroke="midnightblue" d="M451.17,-240.69C524.78,-234.7 667.94,-220.64 713.5,-199 739.99,-186.42 763.75,-161.58 777.65,-145"/>
<polygon fill="midnightblue" stroke="midnightblue" points="780.41,-147.17 783.99,-137.2 774.97,-142.76 780.41,-147.17"/>
</g>
<!-- Node29&#45;&gt;Node30 -->
<g id="edge54" class="edge">
<title>Node29&#45;&gt;Node30</title>
<path fill="none" stroke="midnightblue" d="M412.77,-235.08C418.14,-227.46 426.02,-216.26 432.58,-206.94"/>
<polygon fill="midnightblue" stroke="midnightblue" points="435.45,-208.94 438.34,-198.75 429.72,-204.91 435.45,-208.94"/>
</g>
<!-- Node31 -->
<g id="node31" class="node">
<title>Node31</title>
<g id="a_node31"><a xlink:href="i__built__in__test_8hpp.html" target="_top" xlink:title=" ">
<polygon fill="none" stroke="black" points="233.5,-179.5 233.5,-198.5 339.5,-198.5 339.5,-179.5 233.5,-179.5"/>
<text text-anchor="middle" x="286.5" y="-186.5" font-family="Helvetica,sans-Serif" font-size="10.00">i_built_in_test.hpp</text>
</a>
</g>
</g>
<!-- Node29&#45;&gt;Node31 -->
<g id="edge56" class="edge">
<title>Node29&#45;&gt;Node31</title>
<path fill="none" stroke="midnightblue" d="M387.49,-235.44C367.91,-226.64 337.19,-212.81 314.77,-202.72"/>
<polygon fill="midnightblue" stroke="midnightblue" points="315.98,-199.43 305.43,-198.52 313.11,-205.81 315.98,-199.43"/>
</g>
<!-- Node30&#45;&gt;Node12 -->
<g id="edge55" class="edge">
<title>Node30&#45;&gt;Node12</title>
<path fill="none" stroke="midnightblue" d="M424.59,-179.45C409.48,-171.96 389.36,-159.67 377.5,-143 365.42,-126.02 360.63,-102.24 358.74,-85.83"/>
<polygon fill="midnightblue" stroke="midnightblue" points="362.22,-85.46 357.84,-75.81 355.25,-86.09 362.22,-85.46"/>
</g>
<!-- Node31&#45;&gt;Node10 -->
<g id="edge57" class="edge">
<title>Node31&#45;&gt;Node10</title>
<path fill="none" stroke="midnightblue" d="M277.62,-179.48C268.04,-170.28 252.59,-155.46 240.81,-144.16"/>
<polygon fill="midnightblue" stroke="midnightblue" points="243.01,-141.41 233.37,-137.01 238.16,-146.46 243.01,-141.41"/>
</g>
<!-- Node32&#45;&gt;Node8 -->
<g id="edge63" class="edge">
<title>Node32&#45;&gt;Node8</title>
<path fill="none" stroke="midnightblue" d="M1697.86,-235.47C1762.3,-216.98 1896.37,-170.17 1846.5,-112 1813.75,-73.79 1659.24,-67.74 1589.64,-66.98"/>
<polygon fill="midnightblue" stroke="midnightblue" points="1589.64,-63.48 1579.62,-66.9 1589.59,-70.48 1589.64,-63.48"/>
</g>
<!-- Node33 -->
<g id="node33" class="node">
<title>Node33</title>
<g id="a_node33"><a xlink:title=" ">
<polygon fill="none" stroke="#bfbfbf" points="1642,-179.5 1642,-198.5 1689,-198.5 1689,-179.5 1642,-179.5"/>
<text text-anchor="middle" x="1665.5" y="-186.5" font-family="Helvetica,sans-Serif" font-size="10.00">deque</text>
</a>
</g>
</g>
<!-- Node32&#45;&gt;Node33 -->
<g id="edge62" class="edge">
<title>Node32&#45;&gt;Node33</title>
<path fill="none" stroke="midnightblue" d="M1665.5,-235.08C1665.5,-228.01 1665.5,-217.86 1665.5,-208.99"/>
<polygon fill="midnightblue" stroke="midnightblue" points="1669,-208.75 1665.5,-198.75 1662,-208.75 1669,-208.75"/>
</g>
<!-- Node34&#45;&gt;Node22 -->
<g id="edge65" class="edge">
<title>Node34&#45;&gt;Node22</title>
<path fill="none" stroke="midnightblue" d="M761.83,-235.32C766.83,-216.67 778.71,-172.44 785.5,-147.13"/>
<polygon fill="midnightblue" stroke="midnightblue" points="788.93,-147.85 788.14,-137.28 782.17,-146.03 788.93,-147.85"/>
</g>
</g>
</svg>
