<?xml version="1.0" encoding="UTF-8" standalone="no"?>
<!DOCTYPE svg PUBLIC "-//W3C//DTD SVG 1.1//EN"
 "http://www.w3.org/Graphics/SVG/1.1/DTD/svg11.dtd">
<!-- Generated by graphviz version 2.43.0 (0)
 -->
<!-- Title: flight_system Pages: 1 -->
<svg width="238pt" height="391pt"
 viewBox="0.00 0.00 238.00 391.00" xmlns="http://www.w3.org/2000/svg" xmlns:xlink="http://www.w3.org/1999/xlink">
<g id="graph0" class="graph" transform="scale(1 1) rotate(0) translate(4 387)">
<title>flight_system</title>
<g id="clust1" class="cluster">
<title>clusterdir_68267d1309a1af8e8297ef4c3efbcdba</title>
<g id="a_clust1"><a xlink:href="dir_68267d1309a1af8e8297ef4c3efbcdba.html" target="_top" xlink:title="src">
<polygon fill="#ddddee" stroke="black" points="8,-8 8,-375 222,-375 222,-8 8,-8"/>
<text text-anchor="middle" x="115" y="-363" font-family="Helvetica,sans-Serif" font-size="10.00">src</text>
</a>
</g>
</g>
<g id="clust2" class="cluster">
<title>clusterdir_c01da38aeecccba744ca70166f7b2585</title>
<g id="a_clust2"><a xlink:href="dir_c01da38aeecccba744ca70166f7b2585.html" target="_top">
<polygon fill="#eeeeff" stroke="black" points="16,-80 16,-348 214,-348 214,-80 16,-80"/>
</a>
</g>
</g>
<!-- dir_fdedb0aba14d44ce9d99bc100e026e6a -->
<g id="node1" class="node">
<title>dir_fdedb0aba14d44ce9d99bc100e026e6a</title>
<g id="a_node1"><a xlink:href="dir_fdedb0aba14d44ce9d99bc100e026e6a.html" target="_top" xlink:title="common">
<polygon fill="none" stroke="red" points="152.5,-52 93.5,-52 93.5,-16 152.5,-16 152.5,-52"/>
<text text-anchor="middle" x="123" y="-31.5" font-family="Helvetica,sans-Serif" font-size="10.00">common</text>
</a>
</g>
</g>
<!-- dir_c01da38aeecccba744ca70166f7b2585 -->
<g id="node2" class="node">
<title>dir_c01da38aeecccba744ca70166f7b2585</title>
<text text-anchor="middle" x="164" y="-319.5" font-family="Helvetica,sans-Serif" font-size="10.00">flight_system</text>
</g>
<!-- dir_0913318c06f9149a443c65f7bce75294 -->
<g id="node3" class="node">
<title>dir_0913318c06f9149a443c65f7bce75294</title>
<g id="a_node3"><a xlink:href="dir_0913318c06f9149a443c65f7bce75294.html" target="_top" xlink:title="configuration">
<polygon fill="white" stroke="red" points="104,-340 24,-340 24,-304 104,-304 104,-340"/>
<text text-anchor="middle" x="64" y="-319.5" font-family="Helvetica,sans-Serif" font-size="10.00">configuration</text>
</a>
</g>
</g>
<!-- dir_0913318c06f9149a443c65f7bce75294&#45;&gt;dir_fdedb0aba14d44ce9d99bc100e026e6a -->
<g id="edge6" class="edge">
<title>dir_0913318c06f9149a443c65f7bce75294&#45;&gt;dir_fdedb0aba14d44ce9d99bc100e026e6a</title>
<path fill="none" stroke="black" d="M97.21,-303.78C110.53,-295 124.49,-282.99 132,-268 165.92,-200.35 145.5,-107.26 132.02,-61.95"/>
<polygon fill="black" stroke="black" points="135.32,-60.79 129.02,-52.27 128.63,-62.86 135.32,-60.79"/>
<g id="a_edge6&#45;headlabel"><a xlink:href="dir_000009_000011.html" target="_top" xlink:title="1">
<text text-anchor="middle" x="139.1" y="-60.88" font-family="Helvetica,sans-Serif" font-size="10.00">1</text>
</a>
</g>
</g>
<!-- dir_e05090c0c1eb694f05995893ce62415e -->
<g id="node6" class="node">
<title>dir_e05090c0c1eb694f05995893ce62415e</title>
<g id="a_node6"><a xlink:href="dir_e05090c0c1eb694f05995893ce62415e.html" target="_top" xlink:title="modules">
<polygon fill="white" stroke="red" points="123.5,-268 64.5,-268 64.5,-232 123.5,-232 123.5,-268"/>
<text text-anchor="middle" x="94" y="-247.5" font-family="Helvetica,sans-Serif" font-size="10.00">modules</text>
</a>
</g>
</g>
<!-- dir_0913318c06f9149a443c65f7bce75294&#45;&gt;dir_e05090c0c1eb694f05995893ce62415e -->
<g id="edge5" class="edge">
<title>dir_0913318c06f9149a443c65f7bce75294&#45;&gt;dir_e05090c0c1eb694f05995893ce62415e</title>
<path fill="none" stroke="black" d="M65.5,-303.7C68.09,-295.73 72.01,-286.1 76.18,-277.26"/>
<polygon fill="black" stroke="black" points="79.42,-278.61 80.77,-268.1 73.17,-275.48 79.42,-278.61"/>
<g id="a_edge5&#45;headlabel"><a xlink:href="dir_000009_000006.html" target="_top" xlink:title="2">
<text text-anchor="middle" x="80.35" y="-280.6" font-family="Helvetica,sans-Serif" font-size="10.00">2</text>
</a>
</g>
</g>
<!-- dir_ce90d8ec022607b6aa4b2f9ac20ca422 -->
<g id="node4" class="node">
<title>dir_ce90d8ec022607b6aa4b2f9ac20ca422</title>
<g id="a_node4"><a xlink:href="dir_ce90d8ec022607b6aa4b2f9ac20ca422.html" target="_top" xlink:title="extensions">
<polygon fill="white" stroke="black" points="114,-196 44,-196 44,-160 114,-160 114,-196"/>
<text text-anchor="middle" x="79" y="-175.5" font-family="Helvetica,sans-Serif" font-size="10.00">extensions</text>
</a>
</g>
</g>
<!-- dir_ce90d8ec022607b6aa4b2f9ac20ca422&#45;&gt;dir_fdedb0aba14d44ce9d99bc100e026e6a -->
<g id="edge4" class="edge">
<title>dir_ce90d8ec022607b6aa4b2f9ac20ca422&#45;&gt;dir_fdedb0aba14d44ce9d99bc100e026e6a</title>
<path fill="none" stroke="black" d="M87.92,-159.69C92.89,-149.51 98.89,-136.26 103,-124 109.82,-103.63 115.03,-79.87 118.42,-62.02"/>
<polygon fill="black" stroke="black" points="121.89,-62.48 120.24,-52.01 115,-61.22 121.89,-62.48"/>
<g id="a_edge4&#45;headlabel"><a xlink:href="dir_000002_000011.html" target="_top" xlink:title="2">
<text text-anchor="middle" x="124.04" y="-64.02" font-family="Helvetica,sans-Serif" font-size="10.00">2</text>
</a>
</g>
</g>
<!-- dir_ce90d8ec022607b6aa4b2f9ac20ca422&#45;&gt;dir_0913318c06f9149a443c65f7bce75294 -->
<g id="edge1" class="edge">
<title>dir_ce90d8ec022607b6aa4b2f9ac20ca422&#45;&gt;dir_0913318c06f9149a443c65f7bce75294</title>
<path fill="none" stroke="black" d="M69.05,-196.02C63.73,-206.11 57.73,-219.36 55,-232 50.6,-252.37 53.29,-275.83 56.84,-293.55"/>
<polygon fill="black" stroke="black" points="53.52,-294.76 59.1,-303.76 60.35,-293.24 53.52,-294.76"/>
<g id="a_edge1&#45;headlabel"><a xlink:href="dir_000002_000009.html" target="_top" xlink:title="2">
<text text-anchor="middle" x="49.97" y="-289.36" font-family="Helvetica,sans-Serif" font-size="10.00">2</text>
</a>
</g>
</g>
<!-- dir_96764f5e43c8d8232b8207054ca09b5f -->
<g id="node5" class="node">
<title>dir_96764f5e43c8d8232b8207054ca09b5f</title>
<g id="a_node5"><a xlink:href="dir_96764f5e43c8d8232b8207054ca09b5f.html" target="_top" xlink:title="interface">
<polygon fill="white" stroke="red" points="94,-124 34,-124 34,-88 94,-88 94,-124"/>
<text text-anchor="middle" x="64" y="-103.5" font-family="Helvetica,sans-Serif" font-size="10.00">interface</text>
</a>
</g>
</g>
<!-- dir_ce90d8ec022607b6aa4b2f9ac20ca422&#45;&gt;dir_96764f5e43c8d8232b8207054ca09b5f -->
<g id="edge2" class="edge">
<title>dir_ce90d8ec022607b6aa4b2f9ac20ca422&#45;&gt;dir_96764f5e43c8d8232b8207054ca09b5f</title>
<path fill="none" stroke="black" d="M75.29,-159.7C73.64,-151.98 71.65,-142.71 69.81,-134.11"/>
<polygon fill="black" stroke="black" points="73.18,-133.15 67.67,-124.1 66.34,-134.62 73.18,-133.15"/>
<g id="a_edge2&#45;headlabel"><a xlink:href="dir_000002_000018.html" target="_top" xlink:title="6">
<text text-anchor="middle" x="76.71" y="-133.57" font-family="Helvetica,sans-Serif" font-size="10.00">6</text>
</a>
</g>
</g>
<!-- dir_ce90d8ec022607b6aa4b2f9ac20ca422&#45;&gt;dir_e05090c0c1eb694f05995893ce62415e -->
<g id="edge3" class="edge">
<title>dir_ce90d8ec022607b6aa4b2f9ac20ca422&#45;&gt;dir_e05090c0c1eb694f05995893ce62415e</title>
<path fill="none" stroke="black" d="M88.56,-196.1C91.01,-203.79 93.23,-213.05 94.75,-221.67"/>
<polygon fill="black" stroke="black" points="91.3,-222.31 96.21,-231.7 98.23,-221.3 91.3,-222.31"/>
<g id="a_edge3&#45;headlabel"><a xlink:href="dir_000002_000006.html" target="_top" xlink:title="2">
<text text-anchor="middle" x="87.98" y="-216.66" font-family="Helvetica,sans-Serif" font-size="10.00">2</text>
</a>
</g>
</g>
<!-- dir_96764f5e43c8d8232b8207054ca09b5f&#45;&gt;dir_fdedb0aba14d44ce9d99bc100e026e6a -->
<g id="edge8" class="edge">
<title>dir_96764f5e43c8d8232b8207054ca09b5f&#45;&gt;dir_fdedb0aba14d44ce9d99bc100e026e6a</title>
<path fill="none" stroke="black" d="M78.58,-87.7C85.66,-79.3 94.28,-69.07 102.05,-59.86"/>
<polygon fill="black" stroke="black" points="104.81,-62.01 108.58,-52.1 99.46,-57.49 104.81,-62.01"/>
<g id="a_edge8&#45;headlabel"><a xlink:href="dir_000018_000011.html" target="_top" xlink:title="1">
<text text-anchor="middle" x="104.67" y="-64.08" font-family="Helvetica,sans-Serif" font-size="10.00">1</text>
</a>
</g>
</g>
<!-- dir_96764f5e43c8d8232b8207054ca09b5f&#45;&gt;dir_0913318c06f9149a443c65f7bce75294 -->
<g id="edge7" class="edge">
<title>dir_96764f5e43c8d8232b8207054ca09b5f&#45;&gt;dir_0913318c06f9149a443c65f7bce75294</title>
<path fill="none" stroke="black" d="M51.69,-124.22C45.35,-134.16 38.27,-147.2 35,-160 23.06,-206.68 39.68,-262.19 52.25,-294.33"/>
<polygon fill="black" stroke="black" points="49.14,-295.96 56.15,-303.91 55.62,-293.32 49.14,-295.96"/>
<g id="a_edge7&#45;headlabel"><a xlink:href="dir_000018_000009.html" target="_top" xlink:title="1">
<text text-anchor="middle" x="45.15" y="-291.2" font-family="Helvetica,sans-Serif" font-size="10.00">1</text>
</a>
</g>
</g>
<!-- dir_e05090c0c1eb694f05995893ce62415e&#45;&gt;dir_fdedb0aba14d44ce9d99bc100e026e6a -->
<g id="edge11" class="edge">
<title>dir_e05090c0c1eb694f05995893ce62415e&#45;&gt;dir_fdedb0aba14d44ce9d99bc100e026e6a</title>
<path fill="none" stroke="black" d="M106.31,-231.78C112.65,-221.84 119.73,-208.8 123,-196 134.7,-150.26 130.96,-94.79 127.06,-62.34"/>
<polygon fill="black" stroke="black" points="130.51,-61.74 125.76,-52.27 123.57,-62.63 130.51,-61.74"/>
<g id="a_edge11&#45;headlabel"><a xlink:href="dir_000006_000011.html" target="_top" xlink:title="12">
<text text-anchor="middle" x="133.79" y="-62.43" font-family="Helvetica,sans-Serif" font-size="10.00">12</text>
</a>
</g>
</g>
<!-- dir_e05090c0c1eb694f05995893ce62415e&#45;&gt;dir_0913318c06f9149a443c65f7bce75294 -->
<g id="edge9" class="edge">
<title>dir_e05090c0c1eb694f05995893ce62415e&#45;&gt;dir_0913318c06f9149a443c65f7bce75294</title>
<path fill="none" stroke="black" d="M92.56,-268.1C89.99,-276.04 86.09,-285.67 81.92,-294.51"/>
<polygon fill="black" stroke="black" points="78.67,-293.19 77.33,-303.7 84.93,-296.32 78.67,-293.19"/>
<g id="a_edge9&#45;headlabel"><a xlink:href="dir_000006_000009.html" target="_top" xlink:title="6">
<text text-anchor="middle" x="77.74" y="-286.2" font-family="Helvetica,sans-Serif" font-size="10.00">6</text>
</a>
</g>
</g>
<!-- dir_e05090c0c1eb694f05995893ce62415e&#45;&gt;dir_ce90d8ec022607b6aa4b2f9ac20ca422 -->
<g id="edge10" class="edge">
<title>dir_e05090c0c1eb694f05995893ce62415e&#45;&gt;dir_ce90d8ec022607b6aa4b2f9ac20ca422</title>
<path fill="none" stroke="black" d="M84.38,-231.7C81.93,-223.98 79.71,-214.71 78.21,-206.11"/>
<polygon fill="black" stroke="black" points="81.66,-205.5 76.77,-196.1 74.73,-206.5 81.66,-205.5"/>
<g id="a_edge10&#45;headlabel"><a xlink:href="dir_000006_000002.html" target="_top" xlink:title="2">
<text text-anchor="middle" x="84.99" y="-206.15" font-family="Helvetica,sans-Serif" font-size="10.00">2</text>
</a>
</g>
</g>
</g>
</svg>
