<?xml version="1.0" encoding="UTF-8" standalone="no"?>
<!DOCTYPE svg PUBLIC "-//W3C//DTD SVG 1.1//EN"
 "http://www.w3.org/Graphics/SVG/1.1/DTD/svg11.dtd">
<!-- Generated by graphviz version 2.43.0 (0)
 -->
<!-- Title: shared_data Pages: 1 -->
<svg width="200pt" height="295pt"
 viewBox="0.00 0.00 199.50 295.00" xmlns="http://www.w3.org/2000/svg" xmlns:xlink="http://www.w3.org/1999/xlink">
<g id="graph0" class="graph" transform="scale(1 1) rotate(0) translate(4 291)">
<title>shared_data</title>
<g id="clust1" class="cluster">
<title>clusterdir_c01da38aeecccba744ca70166f7b2585</title>
<g id="a_clust1"><a xlink:href="dir_c01da38aeecccba744ca70166f7b2585.html" target="_top" xlink:title="flight_system">
<polygon fill="#ddddee" stroke="black" points="8,-64 8,-279 182,-279 182,-64 8,-64"/>
<text text-anchor="middle" x="95" y="-267" font-family="Helvetica,sans-Serif" font-size="10.00">flight_system</text>
</a>
</g>
</g>
<!-- dir_96764f5e43c8d8232b8207054ca09b5f -->
<g id="node1" class="node">
<title>dir_96764f5e43c8d8232b8207054ca09b5f</title>
<g id="a_node1"><a xlink:href="dir_96764f5e43c8d8232b8207054ca09b5f.html" target="_top" xlink:title="interface">
<polygon fill="none" stroke="red" points="174,-180 114,-180 114,-144 174,-144 174,-180"/>
<text text-anchor="middle" x="144" y="-159.5" font-family="Helvetica,sans-Serif" font-size="10.00">interface</text>
</a>
</g>
</g>
<!-- dir_fdedb0aba14d44ce9d99bc100e026e6a -->
<g id="node5" class="node">
<title>dir_fdedb0aba14d44ce9d99bc100e026e6a</title>
<g id="a_node5"><a xlink:href="dir_fdedb0aba14d44ce9d99bc100e026e6a.html" target="_top" xlink:title="common">
<polygon fill="none" stroke="red" points="154.5,-36 95.5,-36 95.5,0 154.5,0 154.5,-36"/>
<text text-anchor="middle" x="125" y="-15.5" font-family="Helvetica,sans-Serif" font-size="10.00">common</text>
</a>
</g>
</g>
<!-- dir_96764f5e43c8d8232b8207054ca09b5f&#45;&gt;dir_fdedb0aba14d44ce9d99bc100e026e6a -->
<g id="edge6" class="edge">
<title>dir_96764f5e43c8d8232b8207054ca09b5f&#45;&gt;dir_fdedb0aba14d44ce9d99bc100e026e6a</title>
<path fill="none" stroke="black" d="M141.71,-143.87C138.47,-119.67 132.52,-75.21 128.67,-46.39"/>
<polygon fill="black" stroke="black" points="132.1,-45.64 127.3,-36.19 125.16,-46.57 132.1,-45.64"/>
<g id="a_edge6&#45;headlabel"><a xlink:href="dir_000017_000007.html" target="_top" xlink:title="3">
<text text-anchor="middle" x="135.39" y="-46.32" font-family="Helvetica,sans-Serif" font-size="10.00">3</text>
</a>
</g>
</g>
<!-- dir_e05090c0c1eb694f05995893ce62415e -->
<g id="node2" class="node">
<title>dir_e05090c0c1eb694f05995893ce62415e</title>
<g id="a_node2"><a xlink:href="dir_e05090c0c1eb694f05995893ce62415e.html" target="_top" xlink:title="modules">
<polygon fill="none" stroke="red" points="95.5,-180 36.5,-180 36.5,-144 95.5,-144 95.5,-180"/>
<text text-anchor="middle" x="66" y="-159.5" font-family="Helvetica,sans-Serif" font-size="10.00">modules</text>
</a>
</g>
</g>
<!-- dir_eaebe00a4f960441a55d24526c4929bc -->
<g id="node3" class="node">
<title>dir_eaebe00a4f960441a55d24526c4929bc</title>
<g id="a_node3"><a xlink:href="dir_eaebe00a4f960441a55d24526c4929bc.html" target="_top" xlink:title="control">
<polygon fill="none" stroke="black" points="78,-108 24,-108 24,-72 78,-72 78,-108"/>
<text text-anchor="middle" x="51" y="-87.5" font-family="Helvetica,sans-Serif" font-size="10.00">control</text>
</a>
</g>
</g>
<!-- dir_e05090c0c1eb694f05995893ce62415e&#45;&gt;dir_eaebe00a4f960441a55d24526c4929bc -->
<g id="edge7" class="edge">
<title>dir_e05090c0c1eb694f05995893ce62415e&#45;&gt;dir_eaebe00a4f960441a55d24526c4929bc</title>
<path fill="none" stroke="black" d="M62.29,-143.7C60.64,-135.98 58.65,-126.71 56.81,-118.11"/>
<polygon fill="black" stroke="black" points="60.18,-117.15 54.67,-108.1 53.34,-118.62 60.18,-117.15"/>
<g id="a_edge7&#45;headlabel"><a xlink:href="dir_000008_000006.html" target="_top" xlink:title="1">
<text text-anchor="middle" x="63.71" y="-117.57" font-family="Helvetica,sans-Serif" font-size="10.00">1</text>
</a>
</g>
</g>
<!-- dir_e05090c0c1eb694f05995893ce62415e&#45;&gt;dir_fdedb0aba14d44ce9d99bc100e026e6a -->
<g id="edge8" class="edge">
<title>dir_e05090c0c1eb694f05995893ce62415e&#45;&gt;dir_fdedb0aba14d44ce9d99bc100e026e6a</title>
<path fill="none" stroke="black" d="M73.12,-143.87C83.26,-119.46 101.97,-74.43 113.93,-45.64"/>
<polygon fill="black" stroke="black" points="117.25,-46.77 117.86,-36.19 110.79,-44.08 117.25,-46.77"/>
<g id="a_edge8&#45;headlabel"><a xlink:href="dir_000008_000007.html" target="_top" xlink:title="8">
<text text-anchor="middle" x="118.5" y="-48.68" font-family="Helvetica,sans-Serif" font-size="10.00">8</text>
</a>
</g>
</g>
<!-- dir_eaebe00a4f960441a55d24526c4929bc&#45;&gt;dir_fdedb0aba14d44ce9d99bc100e026e6a -->
<g id="edge5" class="edge">
<title>dir_eaebe00a4f960441a55d24526c4929bc&#45;&gt;dir_fdedb0aba14d44ce9d99bc100e026e6a</title>
<path fill="none" stroke="black" d="M69.29,-71.7C78.43,-63.05 89.64,-52.45 99.6,-43.03"/>
<polygon fill="black" stroke="black" points="102.06,-45.52 106.92,-36.1 97.25,-40.43 102.06,-45.52"/>
<g id="a_edge5&#45;headlabel"><a xlink:href="dir_000006_000007.html" target="_top" xlink:title="2">
<text text-anchor="middle" x="101.4" y="-47.55" font-family="Helvetica,sans-Serif" font-size="10.00">2</text>
</a>
</g>
</g>
<!-- dir_a6ea3ebec979fd0368b1e1c22b60b05c -->
<g id="node4" class="node">
<title>dir_a6ea3ebec979fd0368b1e1c22b60b05c</title>
<g id="a_node4"><a xlink:href="dir_a6ea3ebec979fd0368b1e1c22b60b05c.html" target="_top" xlink:title="shared_data">
<polygon fill="#eeeeff" stroke="black" points="138.5,-252 61.5,-252 61.5,-216 138.5,-216 138.5,-252"/>
<text text-anchor="middle" x="100" y="-231.5" font-family="Helvetica,sans-Serif" font-size="10.00">shared_data</text>
</a>
</g>
</g>
<!-- dir_a6ea3ebec979fd0368b1e1c22b60b05c&#45;&gt;dir_96764f5e43c8d8232b8207054ca09b5f -->
<g id="edge1" class="edge">
<title>dir_a6ea3ebec979fd0368b1e1c22b60b05c&#45;&gt;dir_96764f5e43c8d8232b8207054ca09b5f</title>
<path fill="none" stroke="black" d="M110.88,-215.7C115.99,-207.56 122.2,-197.69 127.84,-188.7"/>
<polygon fill="black" stroke="black" points="130.89,-190.43 133.25,-180.1 124.96,-186.71 130.89,-190.43"/>
<g id="a_edge1&#45;headlabel"><a xlink:href="dir_000003_000017.html" target="_top" xlink:title="1">
<text text-anchor="middle" x="131.38" y="-192.49" font-family="Helvetica,sans-Serif" font-size="10.00">1</text>
</a>
</g>
</g>
<!-- dir_a6ea3ebec979fd0368b1e1c22b60b05c&#45;&gt;dir_e05090c0c1eb694f05995893ce62415e -->
<g id="edge2" class="edge">
<title>dir_a6ea3ebec979fd0368b1e1c22b60b05c&#45;&gt;dir_e05090c0c1eb694f05995893ce62415e</title>
<path fill="none" stroke="black" d="M91.6,-215.7C87.73,-207.73 83.05,-198.1 78.76,-189.26"/>
<polygon fill="black" stroke="black" points="81.83,-187.57 74.31,-180.1 75.53,-190.63 81.83,-187.57"/>
<g id="a_edge2&#45;headlabel"><a xlink:href="dir_000003_000008.html" target="_top" xlink:title="2">
<text text-anchor="middle" x="85.95" y="-187.06" font-family="Helvetica,sans-Serif" font-size="10.00">2</text>
</a>
</g>
</g>
<!-- dir_a6ea3ebec979fd0368b1e1c22b60b05c&#45;&gt;dir_eaebe00a4f960441a55d24526c4929bc -->
<g id="edge3" class="edge">
<title>dir_a6ea3ebec979fd0368b1e1c22b60b05c&#45;&gt;dir_eaebe00a4f960441a55d24526c4929bc</title>
<path fill="none" stroke="black" d="M63.49,-215.92C49.4,-207.29 34.82,-195.35 27,-180 16.85,-160.09 24.92,-135.41 34.35,-117.1"/>
<polygon fill="black" stroke="black" points="37.51,-118.6 39.31,-108.16 31.4,-115.2 37.51,-118.6"/>
<g id="a_edge3&#45;headlabel"><a xlink:href="dir_000003_000006.html" target="_top" xlink:title="1">
<text text-anchor="middle" x="38.25" y="-120.62" font-family="Helvetica,sans-Serif" font-size="10.00">1</text>
</a>
</g>
</g>
<!-- dir_a6ea3ebec979fd0368b1e1c22b60b05c&#45;&gt;dir_fdedb0aba14d44ce9d99bc100e026e6a -->
<g id="edge4" class="edge">
<title>dir_a6ea3ebec979fd0368b1e1c22b60b05c&#45;&gt;dir_fdedb0aba14d44ce9d99bc100e026e6a</title>
<path fill="none" stroke="black" d="M138.77,-218.39C155.53,-209.91 173.47,-197.39 183,-180 207.77,-134.8 172.33,-76.92 146.91,-44.3"/>
<polygon fill="black" stroke="black" points="149.38,-41.79 140.38,-36.19 143.92,-46.18 149.38,-41.79"/>
<g id="a_edge4&#45;headlabel"><a xlink:href="dir_000003_000007.html" target="_top" xlink:title="8">
<text text-anchor="middle" x="153.84" y="-40.31" font-family="Helvetica,sans-Serif" font-size="10.00">8</text>
</a>
</g>
</g>
</g>
</svg>
