<?xml version="1.0" encoding="UTF-8" standalone="no"?>
<!DOCTYPE svg PUBLIC "-//W3C//DTD SVG 1.1//EN"
 "http://www.w3.org/Graphics/SVG/1.1/DTD/svg11.dtd">
<!-- Generated by graphviz version 2.43.0 (0)
 -->
<!-- Title: flight_runner Pages: 1 -->
<svg width="476pt" height="196pt"
 viewBox="0.00 0.00 475.50 196.00" xmlns="http://www.w3.org/2000/svg" xmlns:xlink="http://www.w3.org/1999/xlink">
<g id="graph0" class="graph" transform="scale(1 1) rotate(0) translate(4 192)">
<title>flight_runner</title>
<g id="clust1" class="cluster">
<title>clusterdir_c01da38aeecccba744ca70166f7b2585</title>
<g id="a_clust1"><a xlink:href="dir_c01da38aeecccba744ca70166f7b2585.html" target="_top" xlink:title="flight_system">
<polygon fill="#daedff" stroke="#7f7f7f" stroke-dasharray="5,2" points="8,-8 8,-180 400,-180 400,-8 8,-8"/>
<text text-anchor="middle" x="204" y="-168" font-family="Helvetica,sans-Serif" font-size="10.00">flight_system</text>
</a>
</g>
</g>
<g id="clust2" class="cluster">
<title>clusterdir_9efad99a6861d8b07c3d1f1e6cab065d</title>
<g id="a_clust2"><a xlink:href="dir_9efad99a6861d8b07c3d1f1e6cab065d.html" target="_top">
<polygon fill="#daedff" stroke="#404040" stroke-width="2" points="16,-63 16,-153 204,-153 204,-63 16,-63"/>
</a>
</g>
</g>
<!-- dir_0913318c06f9149a443c65f7bce75294 -->
<g id="node1" class="node">
<title>dir_0913318c06f9149a443c65f7bce75294</title>
<g id="a_node1"><a xlink:href="dir_0913318c06f9149a443c65f7bce75294.html" target="_top" xlink:title="configuration">
<polygon fill="#4ea9ff" stroke="red" points="294,-90 214,-90 214,-71 294,-71 294,-90"/>
<text text-anchor="middle" x="254" y="-78" font-family="Helvetica,sans-Serif" font-size="10.00">configuration</text>
</a>
</g>
</g>
<!-- dir_a6ea3ebec979fd0368b1e1c22b60b05c -->
<g id="node2" class="node">
<title>dir_a6ea3ebec979fd0368b1e1c22b60b05c</title>
<g id="a_node2"><a xlink:href="dir_a6ea3ebec979fd0368b1e1c22b60b05c.html" target="_top" xlink:title="shared_data">
<polygon fill="#4ea9ff" stroke="#404040" points="196.5,-35 119.5,-35 119.5,-16 196.5,-16 196.5,-35"/>
<text text-anchor="middle" x="158" y="-23" font-family="Helvetica,sans-Serif" font-size="10.00">shared_data</text>
</a>
</g>
</g>
<!-- dir_e05090c0c1eb694f05995893ce62415e -->
<g id="node3" class="node">
<title>dir_e05090c0c1eb694f05995893ce62415e</title>
<g id="a_node3"><a xlink:href="dir_e05090c0c1eb694f05995893ce62415e.html" target="_top" xlink:title="modules">
<polygon fill="#4ea9ff" stroke="red" points="391.5,-90 332.5,-90 332.5,-71 391.5,-71 391.5,-90"/>
<text text-anchor="middle" x="362" y="-78" font-family="Helvetica,sans-Serif" font-size="10.00">modules</text>
</a>
</g>
</g>
<!-- dir_f7d56d2c1ad12ccf7f78311089ef55a9 -->
<g id="node4" class="node">
<title>dir_f7d56d2c1ad12ccf7f78311089ef55a9</title>
<g id="a_node4"><a xlink:href="dir_f7d56d2c1ad12ccf7f78311089ef55a9.html" target="_top" xlink:title="utilities">
<polygon fill="#4ea9ff" stroke="#404040" points="95.5,-35 42.5,-35 42.5,-16 95.5,-16 95.5,-35"/>
<text text-anchor="middle" x="69" y="-23" font-family="Helvetica,sans-Serif" font-size="10.00">utilities</text>
</a>
</g>
</g>
<!-- dir_9efad99a6861d8b07c3d1f1e6cab065d -->
<g id="node5" class="node">
<title>dir_9efad99a6861d8b07c3d1f1e6cab065d</title>
<text text-anchor="middle" x="157" y="-133" font-family="Helvetica,sans-Serif" font-size="10.00">flight_runner</text>
</g>
<!-- dir_9efad99a6861d8b07c3d1f1e6cab065d&#45;&gt;dir_0913318c06f9149a443c65f7bce75294 -->
<g id="edge1" class="edge">
<title>dir_9efad99a6861d8b07c3d1f1e6cab065d&#45;&gt;dir_0913318c06f9149a443c65f7bce75294</title>
<g id="a_edge1"><a xlink:href="dir_000014_000003.html" target="_top">
<path fill="none" stroke="#63b8ff" d="M172.58,-125.98C187.77,-117.69 211.1,-104.94 228.9,-95.22"/>
<polygon fill="#63b8ff" stroke="#63b8ff" points="231.03,-98.04 238.13,-90.17 227.68,-91.89 231.03,-98.04"/>
</a>
</g>
<g id="a_edge1&#45;headlabel"><a xlink:href="dir_000014_000003.html" target="_top" xlink:title="1">
<text text-anchor="middle" x="229.24" y="-99.75" font-family="Helvetica,sans-Serif" font-size="10.00" fill="#63b8ff">1</text>
</a>
</g>
</g>
<!-- dir_9efad99a6861d8b07c3d1f1e6cab065d&#45;&gt;dir_a6ea3ebec979fd0368b1e1c22b60b05c -->
<g id="edge3" class="edge">
<title>dir_9efad99a6861d8b07c3d1f1e6cab065d&#45;&gt;dir_a6ea3ebec979fd0368b1e1c22b60b05c</title>
<g id="a_edge3"><a xlink:href="dir_000014_000030.html" target="_top">
<path fill="none" stroke="#63b8ff" d="M196.22,-129.93C249.36,-122.14 334.23,-103.07 303,-63 291.15,-47.79 244.23,-37.95 206.94,-32.36"/>
<polygon fill="#63b8ff" stroke="#63b8ff" points="207.1,-28.85 196.71,-30.89 206.11,-35.78 207.1,-28.85"/>
</a>
</g>
<g id="a_edge3&#45;headlabel"><a xlink:href="dir_000014_000030.html" target="_top" xlink:title="12">
<text text-anchor="middle" x="211.07" y="-24.04" font-family="Helvetica,sans-Serif" font-size="10.00" fill="#63b8ff">12</text>
</a>
</g>
</g>
<!-- dir_9efad99a6861d8b07c3d1f1e6cab065d&#45;&gt;dir_e05090c0c1eb694f05995893ce62415e -->
<g id="edge5" class="edge">
<title>dir_9efad99a6861d8b07c3d1f1e6cab065d&#45;&gt;dir_e05090c0c1eb694f05995893ce62415e</title>
<g id="a_edge5"><a xlink:href="dir_000014_000023.html" target="_top">
<path fill="none" stroke="#63b8ff" d="M189.94,-125.98C226.09,-116.64 284.11,-101.64 322.64,-91.68"/>
<polygon fill="#63b8ff" stroke="#63b8ff" points="323.67,-95.03 332.47,-89.13 321.91,-88.25 323.67,-95.03"/>
</a>
</g>
<g id="a_edge5&#45;headlabel"><a xlink:href="dir_000014_000023.html" target="_top" xlink:title="6">
<text text-anchor="middle" x="320.9" y="-96.17" font-family="Helvetica,sans-Serif" font-size="10.00" fill="#63b8ff">6</text>
</a>
</g>
</g>
<!-- dir_6d1ef472b6e7b674814d55a8b0161660 -->
<g id="node6" class="node">
<title>dir_6d1ef472b6e7b674814d55a8b0161660</title>
<g id="a_node6"><a xlink:href="dir_6d1ef472b6e7b674814d55a8b0161660.html" target="_top" xlink:title="built_in_test">
<polygon fill="#4ea9ff" stroke="#404040" points="101.5,-90 24.5,-90 24.5,-71 101.5,-71 101.5,-90"/>
<text text-anchor="middle" x="63" y="-78" font-family="Helvetica,sans-Serif" font-size="10.00">built_in_test</text>
</a>
</g>
</g>
<!-- dir_9efad99a6861d8b07c3d1f1e6cab065d&#45;&gt;dir_6d1ef472b6e7b674814d55a8b0161660 -->
<g id="edge2" class="edge">
<title>dir_9efad99a6861d8b07c3d1f1e6cab065d&#45;&gt;dir_6d1ef472b6e7b674814d55a8b0161660</title>
<g id="a_edge2"><a xlink:href="dir_000014_000000.html" target="_top">
<path fill="none" stroke="#63b8ff" d="M141.9,-125.98C127.18,-117.69 104.58,-104.94 87.33,-95.22"/>
<polygon fill="#63b8ff" stroke="#63b8ff" points="88.81,-92.03 78.38,-90.17 85.37,-98.13 88.81,-92.03"/>
</a>
</g>
<g id="a_edge2&#45;headlabel"><a xlink:href="dir_000014_000000.html" target="_top" xlink:title="1">
<text text-anchor="middle" x="93.33" y="-88.83" font-family="Helvetica,sans-Serif" font-size="10.00" fill="#63b8ff">1</text>
</a>
</g>
</g>
<!-- dir_dd154b68434635906223217baa900db3 -->
<g id="node7" class="node">
<title>dir_dd154b68434635906223217baa900db3</title>
<g id="a_node7"><a xlink:href="dir_dd154b68434635906223217baa900db3.html" target="_top" xlink:title="flight_phase">
<polygon fill="#4ea9ff" stroke="#404040" points="196,-90 120,-90 120,-71 196,-71 196,-90"/>
<text text-anchor="middle" x="158" y="-78" font-family="Helvetica,sans-Serif" font-size="10.00">flight_phase</text>
</a>
</g>
</g>
<!-- dir_9efad99a6861d8b07c3d1f1e6cab065d&#45;&gt;dir_dd154b68434635906223217baa900db3 -->
<g id="edge4" class="edge">
<title>dir_9efad99a6861d8b07c3d1f1e6cab065d&#45;&gt;dir_dd154b68434635906223217baa900db3</title>
<g id="a_edge4"><a xlink:href="dir_000014_000013.html" target="_top">
<path fill="none" stroke="#63b8ff" d="M157.17,-125.75C157.3,-118.8 157.48,-108.85 157.65,-100.13"/>
<polygon fill="#63b8ff" stroke="#63b8ff" points="161.15,-100.15 157.84,-90.09 154.15,-100.02 161.15,-100.15"/>
</a>
</g>
<g id="a_edge4&#45;headlabel"><a xlink:href="dir_000014_000013.html" target="_top" xlink:title="1">
<text text-anchor="middle" x="163.92" y="-101.3" font-family="Helvetica,sans-Serif" font-size="10.00" fill="#63b8ff">1</text>
</a>
</g>
</g>
<!-- dir_fdedb0aba14d44ce9d99bc100e026e6a -->
<g id="node8" class="node">
<title>dir_fdedb0aba14d44ce9d99bc100e026e6a</title>
<g id="a_node8"><a xlink:href="dir_fdedb0aba14d44ce9d99bc100e026e6a.html" target="_top" xlink:title="common">
<polygon fill="#daedff" stroke="red" stroke-dasharray="5,2" points="467.5,-35 408.5,-35 408.5,-16 467.5,-16 467.5,-35"/>
<text text-anchor="middle" x="438" y="-23" font-family="Helvetica,sans-Serif" font-size="10.00">common</text>
</a>
</g>
</g>
<!-- dir_9efad99a6861d8b07c3d1f1e6cab065d&#45;&gt;dir_fdedb0aba14d44ce9d99bc100e026e6a -->
<g id="edge6" class="edge">
<title>dir_9efad99a6861d8b07c3d1f1e6cab065d&#45;&gt;dir_fdedb0aba14d44ce9d99bc100e026e6a</title>
<g id="a_edge6"><a xlink:href="dir_000014_000001.html" target="_top">
<path fill="none" stroke="#63b8ff" d="M196.43,-131.56C257.55,-126.32 371.49,-113.64 404,-90 418.99,-79.1 428.02,-59.53 432.97,-44.99"/>
<polygon fill="#63b8ff" stroke="#63b8ff" points="436.42,-45.66 435.98,-35.08 429.72,-43.63 436.42,-45.66"/>
</a>
</g>
<g id="a_edge6&#45;headlabel"><a xlink:href="dir_000014_000001.html" target="_top" xlink:title="5">
<text text-anchor="middle" x="438.09" y="-47.43" font-family="Helvetica,sans-Serif" font-size="10.00" fill="#63b8ff">5</text>
</a>
</g>
</g>
<!-- dir_6d1ef472b6e7b674814d55a8b0161660&#45;&gt;dir_a6ea3ebec979fd0368b1e1c22b60b05c -->
<g id="edge7" class="edge">
<title>dir_6d1ef472b6e7b674814d55a8b0161660&#45;&gt;dir_a6ea3ebec979fd0368b1e1c22b60b05c</title>
<g id="a_edge7"><a xlink:href="dir_000000_000030.html" target="_top">
<path fill="none" stroke="#63b8ff" d="M78.26,-70.98C93.13,-62.69 115.98,-49.94 133.42,-40.22"/>
<polygon fill="#63b8ff" stroke="#63b8ff" points="135.43,-43.1 142.46,-35.17 132.02,-36.99 135.43,-43.1"/>
</a>
</g>
<g id="a_edge7&#45;headlabel"><a xlink:href="dir_000000_000030.html" target="_top" xlink:title="2">
<text text-anchor="middle" x="133.68" y="-44.83" font-family="Helvetica,sans-Serif" font-size="10.00" fill="#63b8ff">2</text>
</a>
</g>
</g>
<!-- dir_6d1ef472b6e7b674814d55a8b0161660&#45;&gt;dir_f7d56d2c1ad12ccf7f78311089ef55a9 -->
<g id="edge8" class="edge">
<title>dir_6d1ef472b6e7b674814d55a8b0161660&#45;&gt;dir_f7d56d2c1ad12ccf7f78311089ef55a9</title>
<g id="a_edge8"><a xlink:href="dir_000000_000040.html" target="_top">
<path fill="none" stroke="#63b8ff" d="M63.99,-70.75C64.78,-63.8 65.9,-53.85 66.89,-45.13"/>
<polygon fill="#63b8ff" stroke="#63b8ff" points="70.38,-45.42 68.03,-35.09 63.42,-44.63 70.38,-45.42"/>
</a>
</g>
<g id="a_edge8&#45;headlabel"><a xlink:href="dir_000000_000040.html" target="_top" xlink:title="1">
<text text-anchor="middle" x="72.8" y="-46.81" font-family="Helvetica,sans-Serif" font-size="10.00" fill="#63b8ff">1</text>
</a>
</g>
</g>
<!-- dir_6d1ef472b6e7b674814d55a8b0161660&#45;&gt;dir_fdedb0aba14d44ce9d99bc100e026e6a -->
<g id="edge9" class="edge">
<title>dir_6d1ef472b6e7b674814d55a8b0161660&#45;&gt;dir_fdedb0aba14d44ce9d99bc100e026e6a</title>
<g id="a_edge9"><a xlink:href="dir_000000_000001.html" target="_top">
<path fill="none" stroke="#63b8ff" d="M84.67,-70.84C92.81,-67.91 102.22,-64.9 111,-63 235.61,-36.03 273.17,-56.07 398.42,-35.85"/>
<polygon fill="#63b8ff" stroke="#63b8ff" points="399.1,-39.28 408.39,-34.18 397.95,-32.38 399.1,-39.28"/>
</a>
</g>
<g id="a_edge9&#45;headlabel"><a xlink:href="dir_000000_000001.html" target="_top" xlink:title="1">
<text text-anchor="middle" x="396.02" y="-40.17" font-family="Helvetica,sans-Serif" font-size="10.00" fill="#63b8ff">1</text>
</a>
</g>
</g>
<!-- dir_dd154b68434635906223217baa900db3&#45;&gt;dir_a6ea3ebec979fd0368b1e1c22b60b05c -->
<g id="edge10" class="edge">
<title>dir_dd154b68434635906223217baa900db3&#45;&gt;dir_a6ea3ebec979fd0368b1e1c22b60b05c</title>
<g id="a_edge10"><a xlink:href="dir_000013_000030.html" target="_top">
<path fill="none" stroke="#63b8ff" d="M158,-70.75C158,-63.8 158,-53.85 158,-45.13"/>
<polygon fill="#63b8ff" stroke="#63b8ff" points="161.5,-45.09 158,-35.09 154.5,-45.09 161.5,-45.09"/>
</a>
</g>
<g id="a_edge10&#45;headlabel"><a xlink:href="dir_000013_000030.html" target="_top" xlink:title="7">
<text text-anchor="middle" x="164.34" y="-46.18" font-family="Helvetica,sans-Serif" font-size="10.00" fill="#63b8ff">7</text>
</a>
</g>
</g>
<!-- dir_dd154b68434635906223217baa900db3&#45;&gt;dir_f7d56d2c1ad12ccf7f78311089ef55a9 -->
<g id="edge11" class="edge">
<title>dir_dd154b68434635906223217baa900db3&#45;&gt;dir_f7d56d2c1ad12ccf7f78311089ef55a9</title>
<g id="a_edge11"><a xlink:href="dir_000013_000040.html" target="_top">
<path fill="none" stroke="#63b8ff" d="M143.7,-70.98C129.9,-62.77 108.76,-50.18 92.49,-40.49"/>
<polygon fill="#63b8ff" stroke="#63b8ff" points="93.94,-37.28 83.56,-35.17 90.36,-43.29 93.94,-37.28"/>
</a>
</g>
<g id="a_edge11&#45;headlabel"><a xlink:href="dir_000013_000040.html" target="_top" xlink:title="1">
<text text-anchor="middle" x="98.48" y="-34.18" font-family="Helvetica,sans-Serif" font-size="10.00" fill="#63b8ff">1</text>
</a>
</g>
</g>
<!-- dir_dd154b68434635906223217baa900db3&#45;&gt;dir_fdedb0aba14d44ce9d99bc100e026e6a -->
<g id="edge12" class="edge">
<title>dir_dd154b68434635906223217baa900db3&#45;&gt;dir_fdedb0aba14d44ce9d99bc100e026e6a</title>
<g id="a_edge12"><a xlink:href="dir_000013_000001.html" target="_top">
<path fill="none" stroke="#63b8ff" d="M176.92,-70.96C184.03,-68.05 192.27,-65.02 200,-63 285.35,-40.72 312.21,-51.49 398.42,-35.97"/>
<polygon fill="#63b8ff" stroke="#63b8ff" points="399.19,-39.39 408.37,-34.11 397.9,-32.5 399.19,-39.39"/>
</a>
</g>
<g id="a_edge12&#45;headlabel"><a xlink:href="dir_000013_000001.html" target="_top" xlink:title="1">
<text text-anchor="middle" x="396.17" y="-40.34" font-family="Helvetica,sans-Serif" font-size="10.00" fill="#63b8ff">1</text>
</a>
</g>
</g>
</g>
</svg>
