<?xml version="1.0" encoding="UTF-8" standalone="no"?>
<!DOCTYPE svg PUBLIC "-//W3C//DTD SVG 1.1//EN"
 "http://www.w3.org/Graphics/SVG/1.1/DTD/svg11.dtd">
<!-- Generated by graphviz version 2.43.0 (0)
 -->
<!-- Title: data_link Pages: 1 -->
<svg width="258pt" height="183pt"
 viewBox="0.00 0.00 258.00 183.00" xmlns="http://www.w3.org/2000/svg" xmlns:xlink="http://www.w3.org/1999/xlink">
<g id="graph0" class="graph" transform="scale(1 1) rotate(0) translate(4 179)">
<title>data_link</title>
<g id="clust1" class="cluster">
<title>clusterdir_68267d1309a1af8e8297ef4c3efbcdba</title>
<g id="a_clust1"><a xlink:href="dir_68267d1309a1af8e8297ef4c3efbcdba.html" target="_top" xlink:title="src">
<polygon fill="#ddddee" stroke="black" points="8,-8 8,-167 242,-167 242,-8 8,-8"/>
<text text-anchor="middle" x="125" y="-155" font-family="Helvetica,sans-Serif" font-size="10.00">src</text>
</a>
</g>
</g>
<g id="clust2" class="cluster">
<title>clusterdir_9e13822d6f50eff95d717eea3469af92</title>
<g id="a_clust2"><a xlink:href="dir_9e13822d6f50eff95d717eea3469af92.html" target="_top">
<polygon fill="#eeeeff" stroke="black" points="16,-16 16,-140 166,-140 166,-16 16,-16"/>
</a>
</g>
</g>
<!-- dir_fdedb0aba14d44ce9d99bc100e026e6a -->
<g id="node1" class="node">
<title>dir_fdedb0aba14d44ce9d99bc100e026e6a</title>
<g id="a_node1"><a xlink:href="dir_fdedb0aba14d44ce9d99bc100e026e6a.html" target="_top" xlink:title="common">
<polygon fill="none" stroke="red" points="233.5,-60 174.5,-60 174.5,-24 233.5,-24 233.5,-60"/>
<text text-anchor="middle" x="204" y="-39.5" font-family="Helvetica,sans-Serif" font-size="10.00">common</text>
</a>
</g>
</g>
<!-- dir_9e13822d6f50eff95d717eea3469af92 -->
<g id="node2" class="node">
<title>dir_9e13822d6f50eff95d717eea3469af92</title>
<text text-anchor="middle" x="127" y="-111.5" font-family="Helvetica,sans-Serif" font-size="10.00">data_link</text>
</g>
<!-- dir_9e13822d6f50eff95d717eea3469af92&#45;&gt;dir_fdedb0aba14d44ce9d99bc100e026e6a -->
<g id="edge4" class="edge">
<title>dir_9e13822d6f50eff95d717eea3469af92&#45;&gt;dir_fdedb0aba14d44ce9d99bc100e026e6a</title>
<path fill="none" stroke="black" d="M146.03,-95.7C155.54,-87.05 167.21,-76.45 177.57,-67.03"/>
<polygon fill="black" stroke="black" points="180.14,-69.42 185.19,-60.1 175.43,-64.24 180.14,-69.42"/>
<g id="a_edge4&#45;headlabel"><a xlink:href="dir_000020_000011.html" target="_top" xlink:title="5">
<text text-anchor="middle" x="179.39" y="-71.44" font-family="Helvetica,sans-Serif" font-size="10.00">5</text>
</a>
</g>
</g>
<!-- dir_9476cdde92f12117000b93ea01e1ea23 -->
<g id="node3" class="node">
<title>dir_9476cdde92f12117000b93ea01e1ea23</title>
<g id="a_node3"><a xlink:href="dir_9476cdde92f12117000b93ea01e1ea23.html" target="_top" xlink:title="include">
<polygon fill="white" stroke="red" points="116,-60 62,-60 62,-24 116,-24 116,-60"/>
<text text-anchor="middle" x="89" y="-39.5" font-family="Helvetica,sans-Serif" font-size="10.00">include</text>
</a>
</g>
</g>
<!-- dir_9e13822d6f50eff95d717eea3469af92&#45;&gt;dir_9476cdde92f12117000b93ea01e1ea23 -->
<g id="edge3" class="edge">
<title>dir_9e13822d6f50eff95d717eea3469af92&#45;&gt;dir_9476cdde92f12117000b93ea01e1ea23</title>
<path fill="none" stroke="black" d="M117.61,-95.7C113.24,-87.64 107.94,-77.89 103.1,-68.98"/>
<polygon fill="black" stroke="black" points="106.13,-67.22 98.29,-60.1 99.98,-70.56 106.13,-67.22"/>
<g id="a_edge3&#45;headlabel"><a xlink:href="dir_000020_000021.html" target="_top" xlink:title="20">
<text text-anchor="middle" x="110.34" y="-66.53" font-family="Helvetica,sans-Serif" font-size="10.00">20</text>
</a>
</g>
</g>
<!-- dir_7104f7e46a0e3dcbf40f254d476f4fd9 -->
<g id="node4" class="node">
<title>dir_7104f7e46a0e3dcbf40f254d476f4fd9</title>
<g id="a_node4"><a xlink:href="dir_7104f7e46a0e3dcbf40f254d476f4fd9.html" target="_top" xlink:title="server">
<polygon fill="white" stroke="black" points="78,-132 24,-132 24,-96 78,-96 78,-132"/>
<text text-anchor="middle" x="51" y="-111.5" font-family="Helvetica,sans-Serif" font-size="10.00">server</text>
</a>
</g>
</g>
<!-- dir_7104f7e46a0e3dcbf40f254d476f4fd9&#45;&gt;dir_fdedb0aba14d44ce9d99bc100e026e6a -->
<g id="edge2" class="edge">
<title>dir_7104f7e46a0e3dcbf40f254d476f4fd9&#45;&gt;dir_fdedb0aba14d44ce9d99bc100e026e6a</title>
<path fill="none" stroke="black" d="M78.08,-100.1C81.09,-98.7 84.1,-97.31 87,-96 120.62,-80.77 131.75,-77.49 164.92,-62.3"/>
<polygon fill="black" stroke="black" points="166.77,-65.31 174.38,-57.93 163.83,-58.95 166.77,-65.31"/>
<g id="a_edge2&#45;headlabel"><a xlink:href="dir_000022_000011.html" target="_top" xlink:title="4">
<text text-anchor="middle" x="164.7" y="-66.89" font-family="Helvetica,sans-Serif" font-size="10.00">4</text>
</a>
</g>
</g>
<!-- dir_7104f7e46a0e3dcbf40f254d476f4fd9&#45;&gt;dir_9476cdde92f12117000b93ea01e1ea23 -->
<g id="edge1" class="edge">
<title>dir_7104f7e46a0e3dcbf40f254d476f4fd9&#45;&gt;dir_9476cdde92f12117000b93ea01e1ea23</title>
<path fill="none" stroke="black" d="M60.39,-95.7C64.76,-87.64 70.06,-77.89 74.9,-68.98"/>
<polygon fill="black" stroke="black" points="78.02,-70.56 79.71,-60.1 71.87,-67.22 78.02,-70.56"/>
<g id="a_edge1&#45;headlabel"><a xlink:href="dir_000022_000021.html" target="_top" xlink:title="2">
<text text-anchor="middle" x="78.8" y="-72.58" font-family="Helvetica,sans-Serif" font-size="10.00">2</text>
</a>
</g>
</g>
</g>
</svg>
