<?xml version="1.0" encoding="UTF-8" standalone="no"?>
<!DOCTYPE svg PUBLIC "-//W3C//DTD SVG 1.1//EN"
 "http://www.w3.org/Graphics/SVG/1.1/DTD/svg11.dtd">
<!-- Generated by graphviz version 2.43.0 (0)
 -->
<!-- Title: flight_system Pages: 1 -->
<svg width="238pt" height="327pt"
 viewBox="0.00 0.00 238.00 327.00" xmlns="http://www.w3.org/2000/svg" xmlns:xlink="http://www.w3.org/1999/xlink">
<g id="graph0" class="graph" transform="scale(1 1) rotate(0) translate(4 323)">
<title>flight_system</title>
<g id="clust1" class="cluster">
<title>clusterdir_68267d1309a1af8e8297ef4c3efbcdba</title>
<g id="a_clust1"><a xlink:href="dir_68267d1309a1af8e8297ef4c3efbcdba.html" target="_top" xlink:title="src">
<polygon fill="#ddddee" stroke="black" points="8,-8 8,-311 222,-311 222,-8 8,-8"/>
<text text-anchor="middle" x="115" y="-299" font-family="Helvetica,sans-Serif" font-size="10.00">src</text>
</a>
</g>
</g>
<g id="clust2" class="cluster">
<title>clusterdir_c01da38aeecccba744ca70166f7b2585</title>
<g id="a_clust2"><a xlink:href="dir_c01da38aeecccba744ca70166f7b2585.html" target="_top">
<polygon fill="#eeeeff" stroke="black" points="16,-16 16,-284 214,-284 214,-16 16,-16"/>
</a>
</g>
</g>
<!-- dir_c01da38aeecccba744ca70166f7b2585 -->
<g id="node1" class="node">
<title>dir_c01da38aeecccba744ca70166f7b2585</title>
<text text-anchor="middle" x="164" y="-255.5" font-family="Helvetica,sans-Serif" font-size="10.00">flight_system</text>
</g>
<!-- dir_0913318c06f9149a443c65f7bce75294 -->
<g id="node2" class="node">
<title>dir_0913318c06f9149a443c65f7bce75294</title>
<g id="a_node2"><a xlink:href="dir_0913318c06f9149a443c65f7bce75294.html" target="_top" xlink:title="configuration">
<polygon fill="white" stroke="red" points="104,-276 24,-276 24,-240 104,-240 104,-276"/>
<text text-anchor="middle" x="64" y="-255.5" font-family="Helvetica,sans-Serif" font-size="10.00">configuration</text>
</a>
</g>
</g>
<!-- dir_e05090c0c1eb694f05995893ce62415e -->
<g id="node5" class="node">
<title>dir_e05090c0c1eb694f05995893ce62415e</title>
<g id="a_node5"><a xlink:href="dir_e05090c0c1eb694f05995893ce62415e.html" target="_top" xlink:title="modules">
<polygon fill="white" stroke="red" points="85.5,-204 26.5,-204 26.5,-168 85.5,-168 85.5,-204"/>
<text text-anchor="middle" x="56" y="-183.5" font-family="Helvetica,sans-Serif" font-size="10.00">modules</text>
</a>
</g>
</g>
<!-- dir_0913318c06f9149a443c65f7bce75294&#45;&gt;dir_e05090c0c1eb694f05995893ce62415e -->
<g id="edge4" class="edge">
<title>dir_0913318c06f9149a443c65f7bce75294&#45;&gt;dir_e05090c0c1eb694f05995893ce62415e</title>
<path fill="none" stroke="black" d="M56.11,-239.7C54.43,-231.98 53.14,-222.71 52.5,-214.11"/>
<polygon fill="black" stroke="black" points="56,-213.94 52.06,-204.1 49.01,-214.25 56,-213.94"/>
<g id="a_edge4&#45;headlabel"><a xlink:href="dir_000006_000003.html" target="_top" xlink:title="2">
<text text-anchor="middle" x="58.99" y="-214.9" font-family="Helvetica,sans-Serif" font-size="10.00">2</text>
</a>
</g>
</g>
<!-- dir_ce90d8ec022607b6aa4b2f9ac20ca422 -->
<g id="node3" class="node">
<title>dir_ce90d8ec022607b6aa4b2f9ac20ca422</title>
<g id="a_node3"><a xlink:href="dir_ce90d8ec022607b6aa4b2f9ac20ca422.html" target="_top" xlink:title="extensions">
<polygon fill="white" stroke="black" points="100,-132 30,-132 30,-96 100,-96 100,-132"/>
<text text-anchor="middle" x="65" y="-111.5" font-family="Helvetica,sans-Serif" font-size="10.00">extensions</text>
</a>
</g>
</g>
<!-- dir_ce90d8ec022607b6aa4b2f9ac20ca422&#45;&gt;dir_0913318c06f9149a443c65f7bce75294 -->
<g id="edge1" class="edge">
<title>dir_ce90d8ec022607b6aa4b2f9ac20ca422&#45;&gt;dir_0913318c06f9149a443c65f7bce75294</title>
<path fill="none" stroke="black" d="M77.73,-132.15C84.29,-142.08 91.61,-155.12 95,-168 99.08,-183.47 99.18,-188.56 95,-204 92.42,-213.52 87.66,-223.08 82.62,-231.41"/>
<polygon fill="black" stroke="black" points="79.62,-229.61 77.15,-239.91 85.51,-233.4 79.62,-229.61"/>
<g id="a_edge1&#45;headlabel"><a xlink:href="dir_000002_000006.html" target="_top" xlink:title="2">
<text text-anchor="middle" x="79.18" y="-222.55" font-family="Helvetica,sans-Serif" font-size="10.00">2</text>
</a>
</g>
</g>
<!-- dir_96764f5e43c8d8232b8207054ca09b5f -->
<g id="node4" class="node">
<title>dir_96764f5e43c8d8232b8207054ca09b5f</title>
<g id="a_node4"><a xlink:href="dir_96764f5e43c8d8232b8207054ca09b5f.html" target="_top" xlink:title="interface">
<polygon fill="white" stroke="red" points="125,-60 65,-60 65,-24 125,-24 125,-60"/>
<text text-anchor="middle" x="95" y="-39.5" font-family="Helvetica,sans-Serif" font-size="10.00">interface</text>
</a>
</g>
</g>
<!-- dir_ce90d8ec022607b6aa4b2f9ac20ca422&#45;&gt;dir_96764f5e43c8d8232b8207054ca09b5f -->
<g id="edge2" class="edge">
<title>dir_ce90d8ec022607b6aa4b2f9ac20ca422&#45;&gt;dir_96764f5e43c8d8232b8207054ca09b5f</title>
<path fill="none" stroke="black" d="M72.42,-95.7C75.79,-87.81 79.87,-78.3 83.62,-69.55"/>
<polygon fill="black" stroke="black" points="86.95,-70.67 87.67,-60.1 80.51,-67.92 86.95,-70.67"/>
<g id="a_edge2&#45;headlabel"><a xlink:href="dir_000002_000010.html" target="_top" xlink:title="6">
<text text-anchor="middle" x="88.14" y="-72.6" font-family="Helvetica,sans-Serif" font-size="10.00">6</text>
</a>
</g>
</g>
<!-- dir_ce90d8ec022607b6aa4b2f9ac20ca422&#45;&gt;dir_e05090c0c1eb694f05995893ce62415e -->
<g id="edge3" class="edge">
<title>dir_ce90d8ec022607b6aa4b2f9ac20ca422&#45;&gt;dir_e05090c0c1eb694f05995893ce62415e</title>
<path fill="none" stroke="black" d="M68.7,-132.1C68.51,-139.79 67.56,-149.05 66.12,-157.67"/>
<polygon fill="black" stroke="black" points="62.64,-157.21 64.14,-167.7 69.51,-158.56 62.64,-157.21"/>
<g id="a_edge3&#45;headlabel"><a xlink:href="dir_000002_000003.html" target="_top" xlink:title="2">
<text text-anchor="middle" x="60.55" y="-150.63" font-family="Helvetica,sans-Serif" font-size="10.00">2</text>
</a>
</g>
</g>
<!-- dir_96764f5e43c8d8232b8207054ca09b5f&#45;&gt;dir_0913318c06f9149a443c65f7bce75294 -->
<g id="edge5" class="edge">
<title>dir_96764f5e43c8d8232b8207054ca09b5f&#45;&gt;dir_0913318c06f9149a443c65f7bce75294</title>
<path fill="none" stroke="black" d="M100.82,-60.44C103.93,-70.67 107.43,-83.92 109,-96 115.2,-143.73 117.96,-158.95 101,-204 97.36,-213.67 91.56,-223.23 85.61,-231.52"/>
<polygon fill="black" stroke="black" points="82.71,-229.56 79.46,-239.65 88.29,-233.79 82.71,-229.56"/>
<g id="a_edge5&#45;headlabel"><a xlink:href="dir_000010_000006.html" target="_top" xlink:title="1">
<text text-anchor="middle" x="82.62" y="-222.48" font-family="Helvetica,sans-Serif" font-size="10.00">1</text>
</a>
</g>
</g>
<!-- dir_e05090c0c1eb694f05995893ce62415e&#45;&gt;dir_0913318c06f9149a443c65f7bce75294 -->
<g id="edge6" class="edge">
<title>dir_e05090c0c1eb694f05995893ce62415e&#45;&gt;dir_0913318c06f9149a443c65f7bce75294</title>
<path fill="none" stroke="black" d="M63.85,-204.1C65.53,-211.79 66.83,-221.05 67.48,-229.67"/>
<polygon fill="black" stroke="black" points="63.99,-229.87 67.94,-239.7 70.98,-229.55 63.99,-229.87"/>
<g id="a_edge6&#45;headlabel"><a xlink:href="dir_000003_000006.html" target="_top" xlink:title="6">
<text text-anchor="middle" x="60.99" y="-223.91" font-family="Helvetica,sans-Serif" font-size="10.00">6</text>
</a>
</g>
</g>
<!-- dir_e05090c0c1eb694f05995893ce62415e&#45;&gt;dir_ce90d8ec022607b6aa4b2f9ac20ca422 -->
<g id="edge7" class="edge">
<title>dir_e05090c0c1eb694f05995893ce62415e&#45;&gt;dir_ce90d8ec022607b6aa4b2f9ac20ca422</title>
<path fill="none" stroke="black" d="M52.31,-167.7C52.51,-159.98 53.47,-150.71 54.92,-142.11"/>
<polygon fill="black" stroke="black" points="58.39,-142.59 56.91,-132.1 51.53,-141.23 58.39,-142.59"/>
<g id="a_edge7&#45;headlabel"><a xlink:href="dir_000003_000002.html" target="_top" xlink:title="2">
<text text-anchor="middle" x="60.48" y="-144.17" font-family="Helvetica,sans-Serif" font-size="10.00">2</text>
</a>
</g>
</g>
</g>
</svg>
