<?xml version="1.0" encoding="UTF-8" standalone="no"?>
<!DOCTYPE svg PUBLIC "-//W3C//DTD SVG 1.1//EN"
 "http://www.w3.org/Graphics/SVG/1.1/DTD/svg11.dtd">
<!-- Generated by graphviz version 2.43.0 (0)
 -->
<!-- Title: error_frame.hpp Pages: 1 -->
<svg width="1122pt" height="263pt"
 viewBox="0.00 0.00 1122.00 263.00" xmlns="http://www.w3.org/2000/svg" xmlns:xlink="http://www.w3.org/1999/xlink">
<g id="graph0" class="graph" transform="scale(1 1) rotate(0) translate(4 259)">
<title>error_frame.hpp</title>
<!-- Node1 -->
<g id="node1" class="node">
<title>Node1</title>
<g id="a_node1"><a xlink:title="The error frame.">
<polygon fill="#bfbfbf" stroke="black" points="430,-235.5 430,-254.5 525,-254.5 525,-235.5 430,-235.5"/>
<text text-anchor="middle" x="477.5" y="-242.5" font-family="Helvetica,sans-Serif" font-size="10.00">error_frame.hpp</text>
</a>
</g>
</g>
<!-- Node2 -->
<g id="node2" class="node">
<title>Node2</title>
<g id="a_node2"><a xlink:title=" ">
<polygon fill="none" stroke="#bfbfbf" points="989,-56.5 989,-75.5 1114,-75.5 1114,-56.5 989,-56.5"/>
<text text-anchor="middle" x="1051.5" y="-63.5" font-family="Helvetica,sans-Serif" font-size="10.00">BoosterSeat/clock.hpp</text>
</a>
</g>
</g>
<!-- Node1&#45;&gt;Node2 -->
<g id="edge1" class="edge">
<title>Node1&#45;&gt;Node2</title>
<path fill="none" stroke="midnightblue" d="M525.38,-243.17C651.32,-239.89 986.79,-223.59 1054.5,-143 1067.74,-127.24 1063.75,-102.5 1058.6,-85.56"/>
<polygon fill="midnightblue" stroke="midnightblue" points="1061.77,-84.04 1055.21,-75.72 1055.15,-86.31 1061.77,-84.04"/>
</g>
<!-- Node3 -->
<g id="node3" class="node">
<title>Node3</title>
<g id="a_node3"><a xlink:href="frame_8hpp.html" target="_top" xlink:title=" ">
<polygon fill="none" stroke="black" points="88,-179.5 88,-198.5 155,-198.5 155,-179.5 88,-179.5"/>
<text text-anchor="middle" x="121.5" y="-186.5" font-family="Helvetica,sans-Serif" font-size="10.00">frame.hpp</text>
</a>
</g>
</g>
<!-- Node1&#45;&gt;Node3 -->
<g id="edge2" class="edge">
<title>Node1&#45;&gt;Node3</title>
<path fill="none" stroke="midnightblue" d="M429.86,-236.77C360.44,-226.24 232.46,-206.83 165.29,-196.64"/>
<polygon fill="midnightblue" stroke="midnightblue" points="165.46,-193.13 155.05,-195.09 164.41,-200.05 165.46,-193.13"/>
</g>
<!-- Node6 -->
<g id="node6" class="node">
<title>Node6</title>
<g id="a_node6"><a xlink:href="giraffe__diagnostic__ids_8hpp.html" target="_top" xlink:title=" ">
<polygon fill="none" stroke="black" points="149.5,-112.5 149.5,-142.5 253.5,-142.5 253.5,-112.5 149.5,-112.5"/>
<text text-anchor="start" x="157.5" y="-130.5" font-family="Helvetica,sans-Serif" font-size="10.00">giraffe_diagnostic</text>
<text text-anchor="middle" x="201.5" y="-119.5" font-family="Helvetica,sans-Serif" font-size="10.00">_ids.hpp</text>
</a>
</g>
</g>
<!-- Node1&#45;&gt;Node6 -->
<g id="edge5" class="edge">
<title>Node1&#45;&gt;Node6</title>
<path fill="none" stroke="midnightblue" d="M456.76,-235.32C411.77,-216.49 304.48,-171.59 244.3,-146.41"/>
<polygon fill="midnightblue" stroke="midnightblue" points="245.64,-143.18 235.06,-142.55 242.94,-149.63 245.64,-143.18"/>
</g>
<!-- Node7 -->
<g id="node7" class="node">
<title>Node7</title>
<g id="a_node7"><a xlink:href="streams_8hpp.html" target="_top" xlink:title="The header file for the data streams.">
<polygon fill="none" stroke="black" points="531,-179.5 531,-198.5 608,-198.5 608,-179.5 531,-179.5"/>
<text text-anchor="middle" x="569.5" y="-186.5" font-family="Helvetica,sans-Serif" font-size="10.00">streams.hpp</text>
</a>
</g>
</g>
<!-- Node1&#45;&gt;Node7 -->
<g id="edge6" class="edge">
<title>Node1&#45;&gt;Node7</title>
<path fill="none" stroke="midnightblue" d="M492.28,-235.32C506.77,-226.82 529.07,-213.73 545.99,-203.8"/>
<polygon fill="midnightblue" stroke="midnightblue" points="547.9,-206.74 554.76,-198.65 544.36,-200.7 547.9,-206.74"/>
</g>
<!-- Node4 -->
<g id="node4" class="node">
<title>Node4</title>
<g id="a_node4"><a xlink:title=" ">
<polygon fill="none" stroke="#bfbfbf" points="257.5,-56.5 257.5,-75.5 305.5,-75.5 305.5,-56.5 257.5,-56.5"/>
<text text-anchor="middle" x="281.5" y="-63.5" font-family="Helvetica,sans-Serif" font-size="10.00">mutex</text>
</a>
</g>
</g>
<!-- Node3&#45;&gt;Node4 -->
<g id="edge3" class="edge">
<title>Node3&#45;&gt;Node4</title>
<path fill="none" stroke="midnightblue" d="M121.11,-179.21C120.92,-163.58 122.82,-130.85 140.5,-112 168.14,-82.53 215.01,-72.29 247.07,-68.77"/>
<polygon fill="midnightblue" stroke="midnightblue" points="247.69,-72.23 257.32,-67.81 247.04,-65.26 247.69,-72.23"/>
</g>
<!-- Node5 -->
<g id="node5" class="node">
<title>Node5</title>
<g id="a_node5"><a xlink:title=" ">
<polygon fill="none" stroke="#bfbfbf" points="0,-118 0,-137 93,-137 93,-118 0,-118"/>
<text text-anchor="middle" x="46.5" y="-125" font-family="Helvetica,sans-Serif" font-size="10.00">unordered_map</text>
</a>
</g>
</g>
<!-- Node3&#45;&gt;Node5 -->
<g id="edge4" class="edge">
<title>Node3&#45;&gt;Node5</title>
<path fill="none" stroke="midnightblue" d="M110.75,-179.48C98.95,-170.11 79.76,-154.88 65.42,-143.51"/>
<polygon fill="midnightblue" stroke="midnightblue" points="67.24,-140.48 57.23,-137.01 62.88,-145.97 67.24,-140.48"/>
</g>
<!-- Node7&#45;&gt;Node2 -->
<g id="edge12" class="edge">
<title>Node7&#45;&gt;Node2</title>
<path fill="none" stroke="midnightblue" d="M608.11,-186.77C713.54,-183.05 1000.61,-170.48 1032.5,-143 1048.73,-129.02 1052.18,-103.47 1052.43,-85.88"/>
<polygon fill="midnightblue" stroke="midnightblue" points="1055.93,-85.61 1052.24,-75.68 1048.93,-85.74 1055.93,-85.61"/>
</g>
<!-- Node7&#45;&gt;Node4 -->
<g id="edge9" class="edge">
<title>Node7&#45;&gt;Node4</title>
<path fill="none" stroke="midnightblue" d="M530.88,-186.62C464.67,-183.45 333.41,-173.4 300.5,-143 284.77,-128.46 281.2,-103.05 280.79,-85.64"/>
<polygon fill="midnightblue" stroke="midnightblue" points="284.29,-85.58 280.87,-75.55 277.29,-85.52 284.29,-85.58"/>
</g>
<!-- Node7&#45;&gt;Node6 -->
<g id="edge22" class="edge">
<title>Node7&#45;&gt;Node6</title>
<path fill="none" stroke="midnightblue" d="M530.75,-183.09C473.14,-175.59 361.6,-160.33 267.5,-143 266.23,-142.77 264.96,-142.53 263.67,-142.28"/>
<polygon fill="midnightblue" stroke="midnightblue" points="264.16,-138.81 253.67,-140.31 262.8,-145.68 264.16,-138.81"/>
</g>
<!-- Node8 -->
<g id="node8" class="node">
<title>Node8</title>
<g id="a_node8"><a xlink:title=" ">
<polygon fill="none" stroke="#bfbfbf" points="309.5,-118 309.5,-137 359.5,-137 359.5,-118 309.5,-118"/>
<text text-anchor="middle" x="334.5" y="-125" font-family="Helvetica,sans-Serif" font-size="10.00">atomic</text>
</a>
</g>
</g>
<!-- Node7&#45;&gt;Node8 -->
<g id="edge7" class="edge">
<title>Node7&#45;&gt;Node8</title>
<path fill="none" stroke="midnightblue" d="M530.78,-181.51C489.89,-174.15 423.81,-160.82 368.5,-143 366.58,-142.38 364.61,-141.69 362.64,-140.97"/>
<polygon fill="midnightblue" stroke="midnightblue" points="363.56,-137.56 352.97,-137.1 360.96,-144.06 363.56,-137.56"/>
</g>
<!-- Node9 -->
<g id="node9" class="node">
<title>Node9</title>
<g id="a_node9"><a xlink:title=" ">
<polygon fill="none" stroke="#bfbfbf" points="377.5,-118 377.5,-137 437.5,-137 437.5,-118 377.5,-118"/>
<text text-anchor="middle" x="407.5" y="-125" font-family="Helvetica,sans-Serif" font-size="10.00">iostream</text>
</a>
</g>
</g>
<!-- Node7&#45;&gt;Node9 -->
<g id="edge8" class="edge">
<title>Node7&#45;&gt;Node9</title>
<path fill="none" stroke="midnightblue" d="M545.91,-179.41C521.14,-170.38 481.06,-155.75 446.5,-143 444.41,-142.23 442.25,-141.43 440.08,-140.63"/>
<polygon fill="midnightblue" stroke="midnightblue" points="441.18,-137.3 430.59,-137.11 438.75,-143.87 441.18,-137.3"/>
</g>
<!-- Node10 -->
<g id="node10" class="node">
<title>Node10</title>
<g id="a_node10"><a xlink:title=" ">
<polygon fill="none" stroke="#bfbfbf" points="546,-56.5 546,-75.5 593,-75.5 593,-56.5 546,-56.5"/>
<text text-anchor="middle" x="569.5" y="-63.5" font-family="Helvetica,sans-Serif" font-size="10.00">queue</text>
</a>
</g>
</g>
<!-- Node7&#45;&gt;Node10 -->
<g id="edge10" class="edge">
<title>Node7&#45;&gt;Node10</title>
<path fill="none" stroke="midnightblue" d="M569.5,-179.3C569.5,-159.85 569.5,-112.49 569.5,-85.9"/>
<polygon fill="midnightblue" stroke="midnightblue" points="573,-85.62 569.5,-75.62 566,-85.62 573,-85.62"/>
</g>
<!-- Node11 -->
<g id="node11" class="node">
<title>Node11</title>
<g id="a_node11"><a xlink:title=" ">
<polygon fill="none" stroke="#bfbfbf" points="799.5,-56.5 799.5,-75.5 843.5,-75.5 843.5,-56.5 799.5,-56.5"/>
<text text-anchor="middle" x="821.5" y="-63.5" font-family="Helvetica,sans-Serif" font-size="10.00">string</text>
</a>
</g>
</g>
<!-- Node7&#45;&gt;Node11 -->
<g id="edge11" class="edge">
<title>Node7&#45;&gt;Node11</title>
<path fill="none" stroke="midnightblue" d="M608.11,-187.95C651.71,-186.1 723.02,-177.44 772.5,-143 792.99,-128.74 806.93,-102.87 814.55,-85.32"/>
<polygon fill="midnightblue" stroke="midnightblue" points="817.96,-86.23 818.48,-75.65 811.47,-83.59 817.96,-86.23"/>
</g>
<!-- Node12 -->
<g id="node12" class="node">
<title>Node12</title>
<g id="a_node12"><a xlink:title=" ">
<polygon fill="none" stroke="#bfbfbf" points="597.5,-118 597.5,-137 745.5,-137 745.5,-118 597.5,-118"/>
<text text-anchor="middle" x="671.5" y="-125" font-family="Helvetica,sans-Serif" font-size="10.00">BoosterSeat/exception.hpp</text>
</a>
</g>
</g>
<!-- Node7&#45;&gt;Node12 -->
<g id="edge13" class="edge">
<title>Node7&#45;&gt;Node12</title>
<path fill="none" stroke="midnightblue" d="M584.11,-179.48C600.85,-169.71 628.5,-153.58 648.22,-142.08"/>
<polygon fill="midnightblue" stroke="midnightblue" points="650.04,-145.07 656.91,-137.01 646.51,-139.02 650.04,-145.07"/>
</g>
<!-- Node13 -->
<g id="node13" class="node">
<title>Node13</title>
<g id="a_node13"><a xlink:href="command_8hpp.html" target="_top" xlink:title="The command/queue system for the flight system.">
<polygon fill="none" stroke="black" points="455.5,-118 455.5,-137 541.5,-137 541.5,-118 455.5,-118"/>
<text text-anchor="middle" x="498.5" y="-125" font-family="Helvetica,sans-Serif" font-size="10.00">command.hpp</text>
</a>
</g>
</g>
<!-- Node7&#45;&gt;Node13 -->
<g id="edge14" class="edge">
<title>Node7&#45;&gt;Node13</title>
<path fill="none" stroke="midnightblue" d="M559.33,-179.48C548.15,-170.11 529.98,-154.88 516.41,-143.51"/>
<polygon fill="midnightblue" stroke="midnightblue" points="518.57,-140.75 508.65,-137.01 514.07,-146.11 518.57,-140.75"/>
</g>
<!-- Node15 -->
<g id="node15" class="node">
<title>Node15</title>
<g id="a_node15"><a xlink:href="node_8hpp.html" target="_top" xlink:title="Contains structures that are used to identify components of the flight system.">
<polygon fill="none" stroke="black" points="719.5,-56.5 719.5,-75.5 781.5,-75.5 781.5,-56.5 719.5,-56.5"/>
<text text-anchor="middle" x="750.5" y="-63.5" font-family="Helvetica,sans-Serif" font-size="10.00">node.hpp</text>
</a>
</g>
</g>
<!-- Node7&#45;&gt;Node15 -->
<g id="edge23" class="edge">
<title>Node7&#45;&gt;Node15</title>
<path fill="none" stroke="midnightblue" d="M608.39,-184.12C657.2,-178.35 736.68,-165.68 754.5,-143 767.22,-126.81 762.97,-102.16 757.7,-85.36"/>
<polygon fill="midnightblue" stroke="midnightblue" points="760.89,-83.88 754.25,-75.61 754.29,-86.21 760.89,-83.88"/>
</g>
<!-- Node18 -->
<g id="node18" class="node">
<title>Node18</title>
<g id="a_node18"><a xlink:href="data__ids_8hpp.html" target="_top" xlink:title=" ">
<polygon fill="none" stroke="black" points="944,-118 944,-137 1023,-137 1023,-118 944,-118"/>
<text text-anchor="middle" x="983.5" y="-125" font-family="Helvetica,sans-Serif" font-size="10.00">data_ids.hpp</text>
</a>
</g>
</g>
<!-- Node7&#45;&gt;Node18 -->
<g id="edge21" class="edge">
<title>Node7&#45;&gt;Node18</title>
<path fill="none" stroke="midnightblue" d="M608.2,-185.34C675.22,-180.26 816.98,-167.46 934.5,-143 938.75,-142.12 943.17,-141.04 947.53,-139.88"/>
<polygon fill="midnightblue" stroke="midnightblue" points="948.84,-143.14 957.51,-137.06 946.94,-136.41 948.84,-143.14"/>
</g>
<!-- Node19 -->
<g id="node19" class="node">
<title>Node19</title>
<g id="a_node19"><a xlink:href="positional_8hpp.html" target="_top" xlink:title="Positional data for the flight system (gps/imu data)">
<polygon fill="none" stroke="black" points="839.5,-118 839.5,-137 925.5,-137 925.5,-118 839.5,-118"/>
<text text-anchor="middle" x="882.5" y="-125" font-family="Helvetica,sans-Serif" font-size="10.00">positional.hpp</text>
</a>
</g>
</g>
<!-- Node7&#45;&gt;Node19 -->
<g id="edge24" class="edge">
<title>Node7&#45;&gt;Node19</title>
<path fill="none" stroke="midnightblue" d="M608.27,-182.11C658.58,-174.27 748.95,-159.44 825.5,-143 830.49,-141.93 835.7,-140.72 840.86,-139.48"/>
<polygon fill="midnightblue" stroke="midnightblue" points="841.78,-142.85 850.64,-137.05 840.1,-136.06 841.78,-142.85"/>
</g>
<!-- Node13&#45;&gt;Node4 -->
<g id="edge15" class="edge">
<title>Node13&#45;&gt;Node4</title>
<path fill="none" stroke="midnightblue" d="M467.99,-117.96C460.93,-115.99 453.46,-113.92 446.5,-112 401.1,-99.48 348.63,-85.2 315.27,-76.15"/>
<polygon fill="midnightblue" stroke="midnightblue" points="316.13,-72.76 305.56,-73.52 314.29,-79.51 316.13,-72.76"/>
</g>
<!-- Node13&#45;&gt;Node10 -->
<g id="edge16" class="edge">
<title>Node13&#45;&gt;Node10</title>
<path fill="none" stroke="midnightblue" d="M508.67,-117.98C519.85,-108.61 538.02,-93.38 551.59,-82.01"/>
<polygon fill="midnightblue" stroke="midnightblue" points="553.93,-84.61 559.35,-75.51 549.43,-79.25 553.93,-84.61"/>
</g>
<!-- Node14 -->
<g id="node14" class="node">
<title>Node14</title>
<g id="a_node14"><a xlink:href="command__ids_8hpp.html" target="_top" xlink:title=" ">
<polygon fill="none" stroke="black" points="421.5,-56.5 421.5,-75.5 527.5,-75.5 527.5,-56.5 421.5,-56.5"/>
<text text-anchor="middle" x="474.5" y="-63.5" font-family="Helvetica,sans-Serif" font-size="10.00">command_ids.hpp</text>
</a>
</g>
</g>
<!-- Node13&#45;&gt;Node14 -->
<g id="edge17" class="edge">
<title>Node13&#45;&gt;Node14</title>
<path fill="none" stroke="midnightblue" d="M495.06,-117.98C491.6,-109.4 486.17,-95.93 481.75,-84.98"/>
<polygon fill="midnightblue" stroke="midnightblue" points="484.92,-83.47 477.93,-75.51 478.43,-86.09 484.92,-83.47"/>
</g>
<!-- Node13&#45;&gt;Node15 -->
<g id="edge18" class="edge">
<title>Node13&#45;&gt;Node15</title>
<path fill="none" stroke="midnightblue" d="M534.61,-117.98C580.85,-107.06 660.82,-88.17 709.37,-76.71"/>
<polygon fill="midnightblue" stroke="midnightblue" points="710.3,-80.09 719.23,-74.38 708.69,-73.28 710.3,-80.09"/>
</g>
<!-- Node16 -->
<g id="node16" class="node">
<title>Node16</title>
<g id="a_node16"><a xlink:title=" ">
<polygon fill="none" stroke="#bfbfbf" points="859.5,-0.5 859.5,-19.5 909.5,-19.5 909.5,-0.5 859.5,-0.5"/>
<text text-anchor="middle" x="884.5" y="-7.5" font-family="Helvetica,sans-Serif" font-size="10.00">cstdint</text>
</a>
</g>
</g>
<!-- Node15&#45;&gt;Node16 -->
<g id="edge19" class="edge">
<title>Node15&#45;&gt;Node16</title>
<path fill="none" stroke="midnightblue" d="M771.73,-56.44C793.88,-47.52 828.82,-33.44 853.94,-23.32"/>
<polygon fill="midnightblue" stroke="midnightblue" points="855.4,-26.5 863.37,-19.52 852.78,-20.01 855.4,-26.5"/>
</g>
<!-- Node17 -->
<g id="node17" class="node">
<title>Node17</title>
<g id="a_node17"><a xlink:title=" ">
<polygon fill="none" stroke="#bfbfbf" points="779.5,-0.5 779.5,-19.5 817.5,-19.5 817.5,-0.5 779.5,-0.5"/>
<text text-anchor="middle" x="798.5" y="-7.5" font-family="Helvetica,sans-Serif" font-size="10.00">map</text>
</a>
</g>
</g>
<!-- Node15&#45;&gt;Node17 -->
<g id="edge20" class="edge">
<title>Node15&#45;&gt;Node17</title>
<path fill="none" stroke="midnightblue" d="M758.43,-56.08C765.35,-48.3 775.57,-36.8 783.95,-27.37"/>
<polygon fill="midnightblue" stroke="midnightblue" points="786.69,-29.55 790.72,-19.75 781.46,-24.9 786.69,-29.55"/>
</g>
<!-- Node19&#45;&gt;Node2 -->
<g id="edge28" class="edge">
<title>Node19&#45;&gt;Node2</title>
<path fill="none" stroke="midnightblue" d="M906.71,-117.98C935.83,-107.72 984.87,-90.46 1017.7,-78.9"/>
<polygon fill="midnightblue" stroke="midnightblue" points="1019.06,-82.13 1027.33,-75.51 1016.74,-75.53 1019.06,-82.13"/>
</g>
<!-- Node19&#45;&gt;Node11 -->
<g id="edge27" class="edge">
<title>Node19&#45;&gt;Node11</title>
<path fill="none" stroke="midnightblue" d="M873.76,-117.98C864.34,-108.78 849.14,-93.96 837.55,-82.66"/>
<polygon fill="midnightblue" stroke="midnightblue" points="839.83,-79.99 830.22,-75.51 834.94,-85 839.83,-79.99"/>
</g>
<!-- Node19&#45;&gt;Node16 -->
<g id="edge25" class="edge">
<title>Node19&#45;&gt;Node16</title>
<path fill="none" stroke="midnightblue" d="M883.16,-117.93C883.91,-107.89 885.06,-90.75 885.5,-76 885.76,-67.12 885.6,-64.89 885.5,-56 885.4,-47.4 885.21,-37.87 885.01,-29.8"/>
<polygon fill="midnightblue" stroke="midnightblue" points="888.51,-29.53 884.75,-19.63 881.51,-29.71 888.51,-29.53"/>
</g>
<!-- Node19&#45;&gt;Node17 -->
<g id="edge26" class="edge">
<title>Node19&#45;&gt;Node17</title>
<path fill="none" stroke="midnightblue" d="M880.18,-117.57C876.21,-103.47 867.1,-75.64 852.5,-56 843.65,-44.1 831.04,-33.36 820.23,-25.35"/>
<polygon fill="midnightblue" stroke="midnightblue" points="822.23,-22.48 812.05,-19.56 818.18,-28.19 822.23,-22.48"/>
</g>
</g>
</svg>
