<?xml version="1.0" encoding="UTF-8" standalone="no"?>
<!DOCTYPE svg PUBLIC "-//W3C//DTD SVG 1.1//EN"
 "http://www.w3.org/Graphics/SVG/1.1/DTD/svg11.dtd">
<!-- Generated by graphviz version 2.43.0 (0)
 -->
<!-- Title: extension_base.hpp Pages: 1 -->
<svg width="1498pt" height="431pt"
 viewBox="0.00 0.00 1498.22 431.00" xmlns="http://www.w3.org/2000/svg" xmlns:xlink="http://www.w3.org/1999/xlink">
<g id="graph0" class="graph" transform="scale(1 1) rotate(0) translate(4 427)">
<title>extension_base.hpp</title>
<!-- Node1 -->
<g id="node1" class="node">
<title>Node1</title>
<g id="a_node1"><a xlink:title="The new implementation of the extension system.">
<polygon fill="#bfbfbf" stroke="black" points="333.22,-403.5 333.22,-422.5 447.22,-422.5 447.22,-403.5 333.22,-403.5"/>
<text text-anchor="middle" x="390.22" y="-410.5" font-family="Helvetica,sans-Serif" font-size="10.00">extension_base.hpp</text>
</a>
</g>
</g>
<!-- Node2 -->
<g id="node2" class="node">
<title>Node2</title>
<g id="a_node2"><a xlink:title=" ">
<polygon fill="none" stroke="#bfbfbf" points="19.22,-62 19.22,-81 69.22,-81 69.22,-62 19.22,-62"/>
<text text-anchor="middle" x="44.22" y="-69" font-family="Helvetica,sans-Serif" font-size="10.00">atomic</text>
</a>
</g>
</g>
<!-- Node1&#45;&gt;Node2 -->
<g id="edge1" class="edge">
<title>Node1&#45;&gt;Node2</title>
<path fill="none" stroke="midnightblue" d="M332.98,-409.89C262.27,-403.86 151.22,-381.71 151.22,-302 151.22,-302 151.22,-302 151.22,-188 151.22,-140.73 102.4,-104.62 70.71,-86.16"/>
<polygon fill="midnightblue" stroke="midnightblue" points="72.33,-83.05 61.89,-81.22 68.9,-89.16 72.33,-83.05"/>
</g>
<!-- Node3 -->
<g id="node3" class="node">
<title>Node3</title>
<g id="a_node3"><a xlink:title=" ">
<polygon fill="none" stroke="#bfbfbf" points="272.22,-347.5 272.22,-366.5 320.22,-366.5 320.22,-347.5 272.22,-347.5"/>
<text text-anchor="middle" x="296.22" y="-354.5" font-family="Helvetica,sans-Serif" font-size="10.00">thread</text>
</a>
</g>
</g>
<!-- Node1&#45;&gt;Node3 -->
<g id="edge2" class="edge">
<title>Node1&#45;&gt;Node3</title>
<path fill="none" stroke="midnightblue" d="M375.12,-403.32C360.32,-394.82 337.53,-381.73 320.24,-371.8"/>
<polygon fill="midnightblue" stroke="midnightblue" points="321.7,-368.6 311.29,-366.65 318.22,-374.67 321.7,-368.6"/>
</g>
<!-- Node4 -->
<g id="node4" class="node">
<title>Node4</title>
<g id="a_node4"><a xlink:href="giraffe__debug_8hpp.html" target="_top" xlink:title="Debugging utilities for Giraffe.">
<polygon fill="none" stroke="black" points="338.22,-347.5 338.22,-366.5 442.22,-366.5 442.22,-347.5 338.22,-347.5"/>
<text text-anchor="middle" x="390.22" y="-354.5" font-family="Helvetica,sans-Serif" font-size="10.00">giraffe_debug.hpp</text>
</a>
</g>
</g>
<!-- Node1&#45;&gt;Node4 -->
<g id="edge3" class="edge">
<title>Node1&#45;&gt;Node4</title>
<path fill="none" stroke="midnightblue" d="M390.22,-403.08C390.22,-396.01 390.22,-385.86 390.22,-376.99"/>
<polygon fill="midnightblue" stroke="midnightblue" points="393.72,-376.75 390.22,-366.75 386.72,-376.75 393.72,-376.75"/>
</g>
<!-- Node5 -->
<g id="node5" class="node">
<title>Node5</title>
<g id="a_node5"><a xlink:href="cfg__extensions_8hpp.html" target="_top" xlink:title="The header file for the extensions section of the configuration.">
<polygon fill="none" stroke="black" points="460.72,-347.5 460.72,-366.5 615.72,-366.5 615.72,-347.5 460.72,-347.5"/>
<text text-anchor="middle" x="538.22" y="-354.5" font-family="Helvetica,sans-Serif" font-size="10.00">sections/cfg_extensions.hpp</text>
</a>
</g>
</g>
<!-- Node1&#45;&gt;Node5 -->
<g id="edge4" class="edge">
<title>Node1&#45;&gt;Node5</title>
<path fill="none" stroke="midnightblue" d="M413.68,-403.44C438.36,-394.44 477.41,-380.19 505.2,-370.05"/>
<polygon fill="midnightblue" stroke="midnightblue" points="506.69,-373.23 514.88,-366.52 504.29,-366.66 506.69,-373.23"/>
</g>
<!-- Node8 -->
<g id="node8" class="node">
<title>Node8</title>
<g id="a_node8"><a xlink:href="shared__data_8hpp.html" target="_top" xlink:title="Contains the SharedData struct, used across all modules and extensions.">
<polygon fill="none" stroke="black" points="642.22,-235.5 642.22,-254.5 740.22,-254.5 740.22,-235.5 642.22,-235.5"/>
<text text-anchor="middle" x="691.22" y="-242.5" font-family="Helvetica,sans-Serif" font-size="10.00">shared_data.hpp</text>
</a>
</g>
</g>
<!-- Node1&#45;&gt;Node8 -->
<g id="edge49" class="edge">
<title>Node1&#45;&gt;Node8</title>
<path fill="none" stroke="midnightblue" d="M447.61,-411.61C497.66,-408.9 570.6,-399.07 625.22,-367 653.25,-350.55 656.89,-339.65 672.22,-311 680.02,-296.42 684.99,-278.25 687.88,-264.82"/>
<polygon fill="midnightblue" stroke="midnightblue" points="691.34,-265.34 689.83,-254.85 684.48,-263.99 691.34,-265.34"/>
</g>
<!-- Node6 -->
<g id="node6" class="node">
<title>Node6</title>
<g id="a_node6"><a xlink:href="configuration__enums_8hpp.html" target="_top" xlink:title=" ">
<polygon fill="none" stroke="black" points="367.22,-291.5 367.22,-310.5 507.22,-310.5 507.22,-291.5 367.22,-291.5"/>
<text text-anchor="middle" x="437.22" y="-298.5" font-family="Helvetica,sans-Serif" font-size="10.00">configuration_enums.hpp</text>
</a>
</g>
</g>
<!-- Node5&#45;&gt;Node6 -->
<g id="edge5" class="edge">
<title>Node5&#45;&gt;Node6</title>
<path fill="none" stroke="midnightblue" d="M522,-347.32C505.87,-338.7 480.92,-325.36 462.26,-315.39"/>
<polygon fill="midnightblue" stroke="midnightblue" points="463.88,-312.28 453.41,-310.65 460.58,-318.46 463.88,-312.28"/>
</g>
<!-- Node7 -->
<g id="node7" class="node">
<title>Node7</title>
<g id="a_node7"><a xlink:href="cfg__section_8hpp.html" target="_top" xlink:title="This file contains the base class for all configuration sections.">
<polygon fill="none" stroke="black" points="525.72,-291.5 525.72,-310.5 662.72,-310.5 662.72,-291.5 525.72,-291.5"/>
<text text-anchor="middle" x="594.22" y="-298.5" font-family="Helvetica,sans-Serif" font-size="10.00">sections/cfg_section.hpp</text>
</a>
</g>
</g>
<!-- Node5&#45;&gt;Node7 -->
<g id="edge6" class="edge">
<title>Node5&#45;&gt;Node7</title>
<path fill="none" stroke="midnightblue" d="M547.22,-347.32C555.42,-339.42 567.73,-327.55 577.7,-317.94"/>
<polygon fill="midnightblue" stroke="midnightblue" points="580.29,-320.29 585.06,-310.83 575.44,-315.26 580.29,-320.29"/>
</g>
<!-- Node7&#45;&gt;Node8 -->
<g id="edge7" class="edge">
<title>Node7&#45;&gt;Node8</title>
<path fill="none" stroke="midnightblue" d="M609.81,-291.32C625.22,-282.74 649.04,-269.49 666.93,-259.52"/>
<polygon fill="midnightblue" stroke="midnightblue" points="668.64,-262.58 675.68,-254.65 665.24,-256.46 668.64,-262.58"/>
</g>
<!-- Node9 -->
<g id="node9" class="node">
<title>Node9</title>
<g id="a_node9"><a xlink:title=" ">
<polygon fill="none" stroke="#bfbfbf" points="639.72,-0.5 639.72,-19.5 764.72,-19.5 764.72,-0.5 639.72,-0.5"/>
<text text-anchor="middle" x="702.22" y="-7.5" font-family="Helvetica,sans-Serif" font-size="10.00">BoosterSeat/clock.hpp</text>
</a>
</g>
</g>
<!-- Node8&#45;&gt;Node9 -->
<g id="edge8" class="edge">
<title>Node8&#45;&gt;Node9</title>
<path fill="none" stroke="midnightblue" d="M641.99,-238.97C471.18,-220.59 -80.72,-153.05 10.22,-56 51.9,-11.53 460.59,-9.25 629.62,-10.25"/>
<polygon fill="midnightblue" stroke="midnightblue" points="629.65,-13.75 639.67,-10.31 629.7,-6.75 629.65,-13.75"/>
</g>
<!-- Node10 -->
<g id="node10" class="node">
<title>Node10</title>
<g id="a_node10"><a xlink:title=" ">
<polygon fill="none" stroke="#bfbfbf" points="1368.22,-62 1368.22,-81 1490.22,-81 1490.22,-62 1368.22,-62"/>
<text text-anchor="middle" x="1429.22" y="-69" font-family="Helvetica,sans-Serif" font-size="10.00">BoosterSeat/time.hpp</text>
</a>
</g>
</g>
<!-- Node8&#45;&gt;Node10 -->
<g id="edge9" class="edge">
<title>Node8&#45;&gt;Node10</title>
<path fill="none" stroke="midnightblue" d="M727.82,-235.5C850.28,-207.04 1245.64,-115.16 1382.26,-83.41"/>
<polygon fill="midnightblue" stroke="midnightblue" points="1383.46,-86.73 1392.41,-81.06 1381.87,-79.91 1383.46,-86.73"/>
</g>
<!-- Node11 -->
<g id="node11" class="node">
<title>Node11</title>
<g id="a_node11"><a xlink:href="blocks_8hpp.html" target="_top" xlink:title=" ">
<polygon fill="none" stroke="black" points="1000.72,-123.5 1000.72,-142.5 1069.72,-142.5 1069.72,-123.5 1000.72,-123.5"/>
<text text-anchor="middle" x="1035.22" y="-130.5" font-family="Helvetica,sans-Serif" font-size="10.00">blocks.hpp</text>
</a>
</g>
</g>
<!-- Node8&#45;&gt;Node11 -->
<g id="edge10" class="edge">
<title>Node8&#45;&gt;Node11</title>
<path fill="none" stroke="midnightblue" d="M717.93,-235.46C779.02,-215.93 929.01,-167.96 998.63,-145.7"/>
<polygon fill="midnightblue" stroke="midnightblue" points="999.84,-148.99 1008.3,-142.61 997.71,-142.32 999.84,-148.99"/>
</g>
<!-- Node21 -->
<g id="node21" class="node">
<title>Node21</title>
<g id="a_node21"><a xlink:href="error__frame_8hpp.html" target="_top" xlink:title="The error frame.">
<polygon fill="none" stroke="black" points="585.72,-179.5 585.72,-198.5 680.72,-198.5 680.72,-179.5 585.72,-179.5"/>
<text text-anchor="middle" x="633.22" y="-186.5" font-family="Helvetica,sans-Serif" font-size="10.00">error_frame.hpp</text>
</a>
</g>
</g>
<!-- Node8&#45;&gt;Node21 -->
<g id="edge26" class="edge">
<title>Node8&#45;&gt;Node21</title>
<path fill="none" stroke="midnightblue" d="M681.91,-235.32C673.33,-227.34 660.41,-215.31 650.04,-205.65"/>
<polygon fill="midnightblue" stroke="midnightblue" points="652.42,-203.09 642.71,-198.83 647.65,-208.21 652.42,-203.09"/>
</g>
<!-- Node22 -->
<g id="node22" class="node">
<title>Node22</title>
<g id="a_node22"><a xlink:href="frame_8hpp.html" target="_top" xlink:title=" ">
<polygon fill="none" stroke="black" points="805.72,-123.5 805.72,-142.5 872.72,-142.5 872.72,-123.5 805.72,-123.5"/>
<text text-anchor="middle" x="839.22" y="-130.5" font-family="Helvetica,sans-Serif" font-size="10.00">frame.hpp</text>
</a>
</g>
</g>
<!-- Node8&#45;&gt;Node22 -->
<g id="edge44" class="edge">
<title>Node8&#45;&gt;Node22</title>
<path fill="none" stroke="midnightblue" d="M738.7,-235.47C762.94,-229.01 791.41,-217.88 811.22,-199 824.27,-186.57 831.55,-167.06 835.4,-152.65"/>
<polygon fill="midnightblue" stroke="midnightblue" points="838.83,-153.37 837.71,-142.83 832.01,-151.76 838.83,-153.37"/>
</g>
<!-- Node25 -->
<g id="node25" class="node">
<title>Node25</title>
<g id="a_node25"><a xlink:href="streams_8hpp.html" target="_top" xlink:title="The header file for the data streams.">
<polygon fill="none" stroke="black" points="503.72,-123.5 503.72,-142.5 580.72,-142.5 580.72,-123.5 503.72,-123.5"/>
<text text-anchor="middle" x="542.22" y="-130.5" font-family="Helvetica,sans-Serif" font-size="10.00">streams.hpp</text>
</a>
</g>
</g>
<!-- Node8&#45;&gt;Node25 -->
<g id="edge48" class="edge">
<title>Node8&#45;&gt;Node25</title>
<path fill="none" stroke="midnightblue" d="M650.86,-235.46C627.2,-228.78 597.98,-217.44 577.22,-199 563.18,-186.52 553.74,-167.01 548.24,-152.62"/>
<polygon fill="midnightblue" stroke="midnightblue" points="551.41,-151.09 544.79,-142.82 544.81,-153.41 551.41,-151.09"/>
</g>
<!-- Node30 -->
<g id="node30" class="node">
<title>Node30</title>
<g id="a_node30"><a xlink:href="log__container_8hpp.html" target="_top" xlink:title="A simple logging system for debugging.">
<polygon fill="none" stroke="black" points="698.72,-179.5 698.72,-198.5 801.72,-198.5 801.72,-179.5 698.72,-179.5"/>
<text text-anchor="middle" x="750.22" y="-186.5" font-family="Helvetica,sans-Serif" font-size="10.00">log_container.hpp</text>
</a>
</g>
</g>
<!-- Node8&#45;&gt;Node30 -->
<g id="edge45" class="edge">
<title>Node8&#45;&gt;Node30</title>
<path fill="none" stroke="midnightblue" d="M700.7,-235.32C709.43,-227.34 722.57,-215.31 733.12,-205.65"/>
<polygon fill="midnightblue" stroke="midnightblue" points="735.56,-208.17 740.57,-198.83 730.83,-203 735.56,-208.17"/>
</g>
<!-- Node11&#45;&gt;Node9 -->
<g id="edge12" class="edge">
<title>Node11&#45;&gt;Node9</title>
<path fill="none" stroke="midnightblue" d="M1012.2,-123.37C991.79,-115.27 961.53,-102.15 937.22,-87 918.73,-75.47 918.81,-65.57 899.22,-56 860.45,-37.06 813.45,-25.93 775.09,-19.48"/>
<polygon fill="midnightblue" stroke="midnightblue" points="775.45,-15.99 765.02,-17.86 774.34,-22.9 775.45,-15.99"/>
</g>
<!-- Node11&#45;&gt;Node10 -->
<g id="edge14" class="edge">
<title>Node11&#45;&gt;Node10</title>
<path fill="none" stroke="midnightblue" d="M1069.87,-127.95C1129.27,-120.84 1254.3,-105.13 1359.22,-87 1366.04,-85.82 1373.21,-84.47 1380.26,-83.07"/>
<polygon fill="midnightblue" stroke="midnightblue" points="1381.33,-86.43 1390.43,-81.01 1379.94,-79.57 1381.33,-86.43"/>
</g>
<!-- Node11&#45;&gt;Node11 -->
<g id="edge15" class="edge">
<title>Node11&#45;&gt;Node11</title>
<path fill="none" stroke="midnightblue" d="M1057.62,-142.53C1072.83,-145.31 1087.72,-142.13 1087.72,-133 1087.72,-125.94 1078.81,-122.44 1067.74,-122.5"/>
<polygon fill="midnightblue" stroke="midnightblue" points="1067.23,-119.03 1057.62,-123.47 1067.91,-126 1067.23,-119.03"/>
</g>
<!-- Node12 -->
<g id="node12" class="node">
<title>Node12</title>
<g id="a_node12"><a xlink:title=" ">
<polygon fill="none" stroke="#bfbfbf" points="730.22,-62 730.22,-81 778.22,-81 778.22,-62 730.22,-62"/>
<text text-anchor="middle" x="754.22" y="-69" font-family="Helvetica,sans-Serif" font-size="10.00">mutex</text>
</a>
</g>
</g>
<!-- Node11&#45;&gt;Node12 -->
<g id="edge11" class="edge">
<title>Node11&#45;&gt;Node12</title>
<path fill="none" stroke="midnightblue" d="M1000.7,-128.18C952.41,-122.28 862.33,-109.25 788.22,-87 786.08,-86.36 783.88,-85.62 781.69,-84.82"/>
<polygon fill="midnightblue" stroke="midnightblue" points="782.88,-81.53 772.3,-81.09 780.3,-88.03 782.88,-81.53"/>
</g>
<!-- Node13 -->
<g id="node13" class="node">
<title>Node13</title>
<g id="a_node13"><a xlink:title=" ">
<polygon fill="none" stroke="#bfbfbf" points="1130.72,-62 1130.72,-81 1273.72,-81 1273.72,-62 1130.72,-62"/>
<text text-anchor="middle" x="1202.22" y="-69" font-family="Helvetica,sans-Serif" font-size="10.00">BoosterSeat/numbers.hpp</text>
</a>
</g>
</g>
<!-- Node11&#45;&gt;Node13 -->
<g id="edge13" class="edge">
<title>Node11&#45;&gt;Node13</title>
<path fill="none" stroke="midnightblue" d="M1059.15,-123.48C1087.92,-113.22 1136.38,-95.96 1168.83,-84.4"/>
<polygon fill="midnightblue" stroke="midnightblue" points="1170.1,-87.66 1178.34,-81.01 1167.75,-81.07 1170.1,-87.66"/>
</g>
<!-- Node14 -->
<g id="node14" class="node">
<title>Node14</title>
<g id="a_node14"><a xlink:href="json_8hpp.html" target="_top" xlink:title="Simple wrapper around nlohmann/json.hpp to provide a common interface.">
<polygon fill="none" stroke="black" points="1292.22,-62 1292.22,-81 1350.22,-81 1350.22,-62 1292.22,-62"/>
<text text-anchor="middle" x="1321.22" y="-69" font-family="Helvetica,sans-Serif" font-size="10.00">json.hpp</text>
</a>
</g>
</g>
<!-- Node11&#45;&gt;Node14 -->
<g id="edge16" class="edge">
<title>Node11&#45;&gt;Node14</title>
<path fill="none" stroke="midnightblue" d="M1069.78,-127.79C1118.12,-121.43 1208.41,-107.87 1283.22,-87 1285.87,-86.26 1288.6,-85.41 1291.31,-84.5"/>
<polygon fill="midnightblue" stroke="midnightblue" points="1292.72,-87.71 1300.95,-81.03 1290.35,-81.13 1292.72,-87.71"/>
</g>
<!-- Node16 -->
<g id="node16" class="node">
<title>Node16</title>
<g id="a_node16"><a xlink:href="node_8hpp.html" target="_top" xlink:title="Contains structures that are used to identify components of the flight system.">
<polygon fill="none" stroke="black" points="1050.22,-62 1050.22,-81 1112.22,-81 1112.22,-62 1050.22,-62"/>
<text text-anchor="middle" x="1081.22" y="-69" font-family="Helvetica,sans-Serif" font-size="10.00">node.hpp</text>
</a>
</g>
</g>
<!-- Node11&#45;&gt;Node16 -->
<g id="edge18" class="edge">
<title>Node11&#45;&gt;Node16</title>
<path fill="none" stroke="midnightblue" d="M1041.82,-123.48C1048.72,-114.55 1059.73,-100.31 1068.36,-89.14"/>
<polygon fill="midnightblue" stroke="midnightblue" points="1071.3,-91.06 1074.65,-81.01 1065.76,-86.78 1071.3,-91.06"/>
</g>
<!-- Node19 -->
<g id="node19" class="node">
<title>Node19</title>
<g id="a_node19"><a xlink:href="positional_8hpp.html" target="_top" xlink:title="Positional data for the flight system (gps/imu data)">
<polygon fill="none" stroke="black" points="946.22,-62 946.22,-81 1032.22,-81 1032.22,-62 946.22,-62"/>
<text text-anchor="middle" x="989.22" y="-69" font-family="Helvetica,sans-Serif" font-size="10.00">positional.hpp</text>
</a>
</g>
</g>
<!-- Node11&#45;&gt;Node19 -->
<g id="edge21" class="edge">
<title>Node11&#45;&gt;Node19</title>
<path fill="none" stroke="midnightblue" d="M1028.63,-123.48C1021.73,-114.55 1010.72,-100.31 1002.09,-89.14"/>
<polygon fill="midnightblue" stroke="midnightblue" points="1004.69,-86.78 995.8,-81.01 999.15,-91.06 1004.69,-86.78"/>
</g>
<!-- Node15 -->
<g id="node15" class="node">
<title>Node15</title>
<g id="a_node15"><a xlink:title=" ">
<polygon fill="none" stroke="#bfbfbf" points="1266.22,-0.5 1266.22,-19.5 1376.22,-19.5 1376.22,-0.5 1266.22,-0.5"/>
<text text-anchor="middle" x="1321.22" y="-7.5" font-family="Helvetica,sans-Serif" font-size="10.00">nlohmann/json.hpp</text>
</a>
</g>
</g>
<!-- Node14&#45;&gt;Node15 -->
<g id="edge17" class="edge">
<title>Node14&#45;&gt;Node15</title>
<path fill="none" stroke="midnightblue" d="M1321.22,-61.98C1321.22,-53.58 1321.22,-40.48 1321.22,-29.66"/>
<polygon fill="midnightblue" stroke="midnightblue" points="1324.72,-29.51 1321.22,-19.51 1317.72,-29.51 1324.72,-29.51"/>
</g>
<!-- Node17 -->
<g id="node17" class="node">
<title>Node17</title>
<g id="a_node17"><a xlink:title=" ">
<polygon fill="none" stroke="#bfbfbf" points="971.22,-0.5 971.22,-19.5 1021.22,-19.5 1021.22,-0.5 971.22,-0.5"/>
<text text-anchor="middle" x="996.22" y="-7.5" font-family="Helvetica,sans-Serif" font-size="10.00">cstdint</text>
</a>
</g>
</g>
<!-- Node16&#45;&gt;Node17 -->
<g id="edge19" class="edge">
<title>Node16&#45;&gt;Node17</title>
<path fill="none" stroke="midnightblue" d="M1069.05,-61.98C1055.41,-52.43 1033.09,-36.81 1016.75,-25.37"/>
<polygon fill="midnightblue" stroke="midnightblue" points="1018.58,-22.38 1008.38,-19.51 1014.57,-28.11 1018.58,-22.38"/>
</g>
<!-- Node18 -->
<g id="node18" class="node">
<title>Node18</title>
<g id="a_node18"><a xlink:title=" ">
<polygon fill="none" stroke="#bfbfbf" points="1047.22,-0.5 1047.22,-19.5 1085.22,-19.5 1085.22,-0.5 1047.22,-0.5"/>
<text text-anchor="middle" x="1066.22" y="-7.5" font-family="Helvetica,sans-Serif" font-size="10.00">map</text>
</a>
</g>
</g>
<!-- Node16&#45;&gt;Node18 -->
<g id="edge20" class="edge">
<title>Node16&#45;&gt;Node18</title>
<path fill="none" stroke="midnightblue" d="M1079.08,-61.98C1076.94,-53.49 1073.59,-40.2 1070.84,-29.32"/>
<polygon fill="midnightblue" stroke="midnightblue" points="1074.21,-28.35 1068.37,-19.51 1067.42,-30.06 1074.21,-28.35"/>
</g>
<!-- Node19&#45;&gt;Node9 -->
<g id="edge25" class="edge">
<title>Node19&#45;&gt;Node9</title>
<path fill="none" stroke="midnightblue" d="M957.05,-61.98C948.96,-59.93 940.29,-57.81 932.22,-56 873.79,-42.86 806.51,-29.95 759.88,-21.36"/>
<polygon fill="midnightblue" stroke="midnightblue" points="760.43,-17.9 749.96,-19.54 759.16,-24.78 760.43,-17.9"/>
</g>
<!-- Node19&#45;&gt;Node17 -->
<g id="edge22" class="edge">
<title>Node19&#45;&gt;Node17</title>
<path fill="none" stroke="midnightblue" d="M990.23,-61.98C991.21,-53.58 992.76,-40.48 994.03,-29.66"/>
<polygon fill="midnightblue" stroke="midnightblue" points="997.53,-29.85 995.22,-19.51 990.58,-29.03 997.53,-29.85"/>
</g>
<!-- Node19&#45;&gt;Node18 -->
<g id="edge23" class="edge">
<title>Node19&#45;&gt;Node18</title>
<path fill="none" stroke="midnightblue" d="M1000.26,-61.98C1012.49,-52.52 1032.45,-37.1 1047.22,-25.69"/>
<polygon fill="midnightblue" stroke="midnightblue" points="1049.44,-28.39 1055.21,-19.51 1045.16,-22.85 1049.44,-28.39"/>
</g>
<!-- Node20 -->
<g id="node20" class="node">
<title>Node20</title>
<g id="a_node20"><a xlink:title=" ">
<polygon fill="none" stroke="#bfbfbf" points="850.22,-0.5 850.22,-19.5 894.22,-19.5 894.22,-0.5 850.22,-0.5"/>
<text text-anchor="middle" x="872.22" y="-7.5" font-family="Helvetica,sans-Serif" font-size="10.00">string</text>
</a>
</g>
</g>
<!-- Node19&#45;&gt;Node20 -->
<g id="edge24" class="edge">
<title>Node19&#45;&gt;Node20</title>
<path fill="none" stroke="midnightblue" d="M972.46,-61.98C953,-52.08 920.68,-35.64 898.01,-24.12"/>
<polygon fill="midnightblue" stroke="midnightblue" points="899.46,-20.92 888.96,-19.51 896.28,-27.16 899.46,-20.92"/>
</g>
<!-- Node21&#45;&gt;Node9 -->
<g id="edge27" class="edge">
<title>Node21&#45;&gt;Node9</title>
<path fill="none" stroke="midnightblue" d="M638.3,-179.37C648.17,-162.26 670.13,-122.63 683.22,-87 690.25,-67.89 695.55,-45.15 698.75,-29.55"/>
<polygon fill="midnightblue" stroke="midnightblue" points="702.21,-30.1 700.7,-19.61 695.34,-28.75 702.21,-30.1"/>
</g>
<!-- Node21&#45;&gt;Node22 -->
<g id="edge28" class="edge">
<title>Node21&#45;&gt;Node22</title>
<path fill="none" stroke="midnightblue" d="M665.87,-179.44C701.27,-170.16 757.93,-155.31 796.78,-145.13"/>
<polygon fill="midnightblue" stroke="midnightblue" points="797.95,-148.44 806.74,-142.52 796.18,-141.67 797.95,-148.44"/>
</g>
<!-- Node24 -->
<g id="node24" class="node">
<title>Node24</title>
<g id="a_node24"><a xlink:href="giraffe__diagnostic__ids_8hpp.html" target="_top" xlink:title=" ">
<polygon fill="none" stroke="black" points="570.22,-56.5 570.22,-86.5 674.22,-86.5 674.22,-56.5 570.22,-56.5"/>
<text text-anchor="start" x="578.22" y="-74.5" font-family="Helvetica,sans-Serif" font-size="10.00">giraffe_diagnostic</text>
<text text-anchor="middle" x="622.22" y="-63.5" font-family="Helvetica,sans-Serif" font-size="10.00">_ids.hpp</text>
</a>
</g>
</g>
<!-- Node21&#45;&gt;Node24 -->
<g id="edge31" class="edge">
<title>Node21&#45;&gt;Node24</title>
<path fill="none" stroke="midnightblue" d="M632.4,-179.32C630.75,-161.97 626.98,-122.46 624.53,-96.66"/>
<polygon fill="midnightblue" stroke="midnightblue" points="627.99,-96.17 623.56,-86.55 621.03,-96.83 627.99,-96.17"/>
</g>
<!-- Node21&#45;&gt;Node25 -->
<g id="edge32" class="edge">
<title>Node21&#45;&gt;Node25</title>
<path fill="none" stroke="midnightblue" d="M618.6,-179.32C604.28,-170.82 582.21,-157.73 565.48,-147.8"/>
<polygon fill="midnightblue" stroke="midnightblue" points="567.19,-144.75 556.81,-142.65 563.62,-150.77 567.19,-144.75"/>
</g>
<!-- Node22&#45;&gt;Node12 -->
<g id="edge29" class="edge">
<title>Node22&#45;&gt;Node12</title>
<path fill="none" stroke="midnightblue" d="M827.05,-123.48C813.41,-113.93 791.09,-98.31 774.75,-86.87"/>
<polygon fill="midnightblue" stroke="midnightblue" points="776.58,-83.88 766.38,-81.01 772.57,-89.61 776.58,-83.88"/>
</g>
<!-- Node23 -->
<g id="node23" class="node">
<title>Node23</title>
<g id="a_node23"><a xlink:title=" ">
<polygon fill="none" stroke="#bfbfbf" points="796.72,-62 796.72,-81 889.72,-81 889.72,-62 796.72,-62"/>
<text text-anchor="middle" x="843.22" y="-69" font-family="Helvetica,sans-Serif" font-size="10.00">unordered_map</text>
</a>
</g>
</g>
<!-- Node22&#45;&gt;Node23 -->
<g id="edge30" class="edge">
<title>Node22&#45;&gt;Node23</title>
<path fill="none" stroke="midnightblue" d="M839.8,-123.48C840.36,-115.08 841.24,-101.98 841.97,-91.16"/>
<polygon fill="midnightblue" stroke="midnightblue" points="845.47,-91.22 842.65,-81.01 838.49,-90.75 845.47,-91.22"/>
</g>
<!-- Node25&#45;&gt;Node2 -->
<g id="edge33" class="edge">
<title>Node25&#45;&gt;Node2</title>
<path fill="none" stroke="midnightblue" d="M503.6,-131.56C423.96,-129.92 236.14,-122.3 83.22,-87 80.16,-86.29 77,-85.4 73.88,-84.42"/>
<polygon fill="midnightblue" stroke="midnightblue" points="74.76,-81.02 64.16,-81.04 72.46,-87.63 74.76,-81.02"/>
</g>
<!-- Node25&#45;&gt;Node9 -->
<g id="edge38" class="edge">
<title>Node25&#45;&gt;Node9</title>
<path fill="none" stroke="midnightblue" d="M541.84,-123.21C541.64,-107.58 543.55,-74.85 561.22,-56 579.07,-36.97 604.94,-25.96 629.66,-19.6"/>
<polygon fill="midnightblue" stroke="midnightblue" points="630.49,-23 639.42,-17.3 628.88,-16.18 630.49,-23"/>
</g>
<!-- Node25&#45;&gt;Node12 -->
<g id="edge35" class="edge">
<title>Node25&#45;&gt;Node12</title>
<path fill="none" stroke="midnightblue" d="M572.6,-123.48C611.76,-112.48 679.65,-93.43 720.41,-81.99"/>
<polygon fill="midnightblue" stroke="midnightblue" points="721.47,-85.33 730.15,-79.26 719.58,-78.59 721.47,-85.33"/>
</g>
<!-- Node25&#45;&gt;Node16 -->
<g id="edge42" class="edge">
<title>Node25&#45;&gt;Node16</title>
<path fill="none" stroke="midnightblue" d="M580.78,-129.81C681.98,-123.86 953.45,-106.52 1041.22,-87 1044.47,-86.28 1047.81,-85.36 1051.11,-84.34"/>
<polygon fill="midnightblue" stroke="midnightblue" points="1052.42,-87.59 1060.77,-81.06 1050.17,-80.97 1052.42,-87.59"/>
</g>
<!-- Node25&#45;&gt;Node19 -->
<g id="edge43" class="edge">
<title>Node25&#45;&gt;Node19</title>
<path fill="none" stroke="midnightblue" d="M580.85,-127.57C646.4,-119.96 783.59,-103.6 899.22,-87 911.1,-85.3 923.83,-83.33 935.87,-81.41"/>
<polygon fill="midnightblue" stroke="midnightblue" points="936.47,-84.86 945.78,-79.81 935.35,-77.94 936.47,-84.86"/>
</g>
<!-- Node25&#45;&gt;Node20 -->
<g id="edge37" class="edge">
<title>Node25&#45;&gt;Node20</title>
<path fill="none" stroke="midnightblue" d="M503.48,-130.8C403.34,-127.32 141.91,-115.54 116.22,-87 107.01,-76.76 106.75,-66 116.22,-56 141.39,-29.41 737.71,-22.67 774.22,-20 796.22,-18.39 820.95,-16.11 840.07,-14.25"/>
<polygon fill="midnightblue" stroke="midnightblue" points="840.45,-17.73 850.06,-13.27 839.76,-10.77 840.45,-17.73"/>
</g>
<!-- Node25&#45;&gt;Node24 -->
<g id="edge41" class="edge">
<title>Node25&#45;&gt;Node24</title>
<path fill="none" stroke="midnightblue" d="M553.69,-123.48C564.42,-115.49 580.87,-103.25 594.97,-92.77"/>
<polygon fill="midnightblue" stroke="midnightblue" points="597.43,-95.3 603.37,-86.52 593.26,-89.68 597.43,-95.3"/>
</g>
<!-- Node26 -->
<g id="node26" class="node">
<title>Node26</title>
<g id="a_node26"><a xlink:title=" ">
<polygon fill="none" stroke="#bfbfbf" points="388.22,-62 388.22,-81 448.22,-81 448.22,-62 388.22,-62"/>
<text text-anchor="middle" x="418.22" y="-69" font-family="Helvetica,sans-Serif" font-size="10.00">iostream</text>
</a>
</g>
</g>
<!-- Node25&#45;&gt;Node26 -->
<g id="edge34" class="edge">
<title>Node25&#45;&gt;Node26</title>
<path fill="none" stroke="midnightblue" d="M524.46,-123.48C503.74,-113.53 469.27,-96.99 445.24,-85.46"/>
<polygon fill="midnightblue" stroke="midnightblue" points="446.49,-82.18 435.96,-81.01 443.46,-88.49 446.49,-82.18"/>
</g>
<!-- Node27 -->
<g id="node27" class="node">
<title>Node27</title>
<g id="a_node27"><a xlink:title=" ">
<polygon fill="none" stroke="#bfbfbf" points="466.72,-62 466.72,-81 513.72,-81 513.72,-62 466.72,-62"/>
<text text-anchor="middle" x="490.22" y="-69" font-family="Helvetica,sans-Serif" font-size="10.00">queue</text>
</a>
</g>
</g>
<!-- Node25&#45;&gt;Node27 -->
<g id="edge36" class="edge">
<title>Node25&#45;&gt;Node27</title>
<path fill="none" stroke="midnightblue" d="M534.77,-123.48C526.9,-114.46 514.28,-100.02 504.48,-88.81"/>
<polygon fill="midnightblue" stroke="midnightblue" points="506.88,-86.24 497.66,-81.01 501.61,-90.84 506.88,-86.24"/>
</g>
<!-- Node28 -->
<g id="node28" class="node">
<title>Node28</title>
<g id="a_node28"><a xlink:title=" ">
<polygon fill="none" stroke="#bfbfbf" points="125.22,-62 125.22,-81 273.22,-81 273.22,-62 125.22,-62"/>
<text text-anchor="middle" x="199.22" y="-69" font-family="Helvetica,sans-Serif" font-size="10.00">BoosterSeat/exception.hpp</text>
</a>
</g>
</g>
<!-- Node25&#45;&gt;Node28 -->
<g id="edge39" class="edge">
<title>Node25&#45;&gt;Node28</title>
<path fill="none" stroke="midnightblue" d="M503.46,-125.31C452.65,-116.54 360.76,-100.66 282.22,-87 274.34,-85.63 266.02,-84.18 257.83,-82.75"/>
<polygon fill="midnightblue" stroke="midnightblue" points="258.39,-79.3 247.94,-81.02 257.19,-86.19 258.39,-79.3"/>
</g>
<!-- Node29 -->
<g id="node29" class="node">
<title>Node29</title>
<g id="a_node29"><a xlink:href="data__ids_8hpp.html" target="_top" xlink:title=" ">
<polygon fill="none" stroke="black" points="291.72,-62 291.72,-81 370.72,-81 370.72,-62 291.72,-62"/>
<text text-anchor="middle" x="331.22" y="-69" font-family="Helvetica,sans-Serif" font-size="10.00">data_ids.hpp</text>
</a>
</g>
</g>
<!-- Node25&#45;&gt;Node29 -->
<g id="edge40" class="edge">
<title>Node25&#45;&gt;Node29</title>
<path fill="none" stroke="midnightblue" d="M510.3,-123.43C477.39,-114.54 424.63,-100.12 379.22,-87 375.86,-86.03 372.37,-85 368.87,-83.97"/>
<polygon fill="midnightblue" stroke="midnightblue" points="369.69,-80.56 359.11,-81.05 367.69,-87.27 369.69,-80.56"/>
</g>
<!-- Node30&#45;&gt;Node12 -->
<g id="edge47" class="edge">
<title>Node30&#45;&gt;Node12</title>
<path fill="none" stroke="midnightblue" d="M752.21,-179.43C754.19,-170.42 757.1,-155.8 758.22,-143 759.77,-125.46 758.32,-105.42 756.75,-91.19"/>
<polygon fill="midnightblue" stroke="midnightblue" points="760.22,-90.69 755.53,-81.2 753.27,-91.55 760.22,-90.69"/>
</g>
<!-- Node31 -->
<g id="node31" class="node">
<title>Node31</title>
<g id="a_node31"><a xlink:title=" ">
<polygon fill="none" stroke="#bfbfbf" points="701.72,-123.5 701.72,-142.5 748.72,-142.5 748.72,-123.5 701.72,-123.5"/>
<text text-anchor="middle" x="725.22" y="-130.5" font-family="Helvetica,sans-Serif" font-size="10.00">deque</text>
</a>
</g>
</g>
<!-- Node30&#45;&gt;Node31 -->
<g id="edge46" class="edge">
<title>Node30&#45;&gt;Node31</title>
<path fill="none" stroke="midnightblue" d="M746.1,-179.08C742.71,-171.77 737.81,-161.18 733.61,-152.1"/>
<polygon fill="midnightblue" stroke="midnightblue" points="736.65,-150.36 729.28,-142.75 730.3,-153.3 736.65,-150.36"/>
</g>
</g>
</svg>
