<?xml version="1.0" encoding="UTF-8" standalone="no"?>
<!DOCTYPE svg PUBLIC "-//W3C//DTD SVG 1.1//EN"
 "http://www.w3.org/Graphics/SVG/1.1/DTD/svg11.dtd">
<!-- Generated by graphviz version 2.43.0 (0)
 -->
<!-- Title: extension_module.hpp Pages: 1 -->
<svg width="1900pt" height="543pt"
 viewBox="0.00 0.00 1900.05 543.00" xmlns="http://www.w3.org/2000/svg" xmlns:xlink="http://www.w3.org/1999/xlink">
<g id="graph0" class="graph" transform="scale(1 1) rotate(0) translate(4 539)">
<title>extension_module.hpp</title>
<!-- Node1 -->
<g id="node1" class="node">
<title>Node1</title>
<g id="a_node1"><a xlink:title="This is the header file for the new extension module.">
<polygon fill="#bfbfbf" stroke="black" points="1203.55,-515.5 1203.55,-534.5 1331.55,-534.5 1331.55,-515.5 1203.55,-515.5"/>
<text text-anchor="middle" x="1267.55" y="-522.5" font-family="Helvetica,sans-Serif" font-size="10.00">extension_module.hpp</text>
</a>
</g>
</g>
<!-- Node2 -->
<g id="node2" class="node">
<title>Node2</title>
<g id="a_node2"><a xlink:title=" ">
<polygon fill="none" stroke="#bfbfbf" points="1065.55,-459.5 1065.55,-478.5 1121.55,-478.5 1121.55,-459.5 1065.55,-459.5"/>
<text text-anchor="middle" x="1093.55" y="-466.5" font-family="Helvetica,sans-Serif" font-size="10.00">optional</text>
</a>
</g>
</g>
<!-- Node1&#45;&gt;Node2 -->
<g id="edge1" class="edge">
<title>Node1&#45;&gt;Node2</title>
<path fill="none" stroke="midnightblue" d="M1239.98,-515.44C1210.46,-506.28 1163.44,-491.69 1130.67,-481.52"/>
<polygon fill="midnightblue" stroke="midnightblue" points="1131.58,-478.14 1121,-478.52 1129.51,-484.82 1131.58,-478.14"/>
</g>
<!-- Node3 -->
<g id="node3" class="node">
<title>Node3</title>
<g id="a_node3"><a xlink:title=" ">
<polygon fill="none" stroke="#bfbfbf" points="1140.05,-459.5 1140.05,-478.5 1187.05,-478.5 1187.05,-459.5 1140.05,-459.5"/>
<text text-anchor="middle" x="1163.55" y="-466.5" font-family="Helvetica,sans-Serif" font-size="10.00">vector</text>
</a>
</g>
</g>
<!-- Node1&#45;&gt;Node3 -->
<g id="edge2" class="edge">
<title>Node1&#45;&gt;Node3</title>
<path fill="none" stroke="midnightblue" d="M1250.84,-515.32C1234.24,-506.7 1208.55,-493.36 1189.33,-483.39"/>
<polygon fill="midnightblue" stroke="midnightblue" points="1190.71,-480.16 1180.22,-478.65 1187.48,-486.37 1190.71,-480.16"/>
</g>
<!-- Node4 -->
<g id="node4" class="node">
<title>Node4</title>
<g id="a_node4"><a xlink:title=" ">
<polygon fill="none" stroke="#bfbfbf" points="1205.05,-459.5 1205.05,-478.5 1330.05,-478.5 1330.05,-459.5 1205.05,-459.5"/>
<text text-anchor="middle" x="1267.55" y="-466.5" font-family="Helvetica,sans-Serif" font-size="10.00">BoosterSeat/timer.hpp</text>
</a>
</g>
</g>
<!-- Node1&#45;&gt;Node4 -->
<g id="edge3" class="edge">
<title>Node1&#45;&gt;Node4</title>
<path fill="none" stroke="midnightblue" d="M1267.55,-515.08C1267.55,-508.01 1267.55,-497.86 1267.55,-488.99"/>
<polygon fill="midnightblue" stroke="midnightblue" points="1271.05,-488.75 1267.55,-478.75 1264.05,-488.75 1271.05,-488.75"/>
</g>
<!-- Node5 -->
<g id="node5" class="node">
<title>Node5</title>
<g id="a_node5"><a xlink:href="extension__base_8hpp.html" target="_top" xlink:title="The new implementation of the extension system.">
<polygon fill="none" stroke="black" points="1348.55,-459.5 1348.55,-478.5 1462.55,-478.5 1462.55,-459.5 1348.55,-459.5"/>
<text text-anchor="middle" x="1405.55" y="-466.5" font-family="Helvetica,sans-Serif" font-size="10.00">extension_base.hpp</text>
</a>
</g>
</g>
<!-- Node1&#45;&gt;Node5 -->
<g id="edge4" class="edge">
<title>Node1&#45;&gt;Node5</title>
<path fill="none" stroke="midnightblue" d="M1289.42,-515.44C1312.33,-506.48 1348.53,-492.31 1374.42,-482.18"/>
<polygon fill="midnightblue" stroke="midnightblue" points="1375.75,-485.42 1383.79,-478.52 1373.2,-478.9 1375.75,-485.42"/>
</g>
<!-- Node38 -->
<g id="node38" class="node">
<title>Node38</title>
<g id="a_node38"><a xlink:href="module_8hpp.html" target="_top" xlink:title="The header file for the base module class.">
<polygon fill="none" stroke="black" points="1529.55,-347.5 1529.55,-366.5 1603.55,-366.5 1603.55,-347.5 1529.55,-347.5"/>
<text text-anchor="middle" x="1566.55" y="-354.5" font-family="Helvetica,sans-Serif" font-size="10.00">module.hpp</text>
</a>
</g>
</g>
<!-- Node1&#45;&gt;Node38 -->
<g id="edge64" class="edge">
<title>Node1&#45;&gt;Node38</title>
<path fill="none" stroke="midnightblue" d="M1332.01,-520.96C1374.42,-516.39 1429.64,-505.35 1471.55,-479 1512.86,-453.04 1543.59,-402.52 1557.8,-375.71"/>
<polygon fill="midnightblue" stroke="midnightblue" points="1560.97,-377.19 1562.43,-366.69 1554.75,-373.99 1560.97,-377.19"/>
</g>
<!-- Node6 -->
<g id="node6" class="node">
<title>Node6</title>
<g id="a_node6"><a xlink:title=" ">
<polygon fill="none" stroke="#bfbfbf" points="1494.55,-118 1494.55,-137 1544.55,-137 1544.55,-118 1494.55,-118"/>
<text text-anchor="middle" x="1519.55" y="-125" font-family="Helvetica,sans-Serif" font-size="10.00">atomic</text>
</a>
</g>
</g>
<!-- Node5&#45;&gt;Node6 -->
<g id="edge5" class="edge">
<title>Node5&#45;&gt;Node6</title>
<path fill="none" stroke="midnightblue" d="M1420.17,-459.48C1445.9,-443.27 1496.55,-405.34 1496.55,-358 1496.55,-358 1496.55,-358 1496.55,-244 1496.55,-209.03 1506.82,-169.24 1513.63,-146.67"/>
<polygon fill="midnightblue" stroke="midnightblue" points="1516.99,-147.67 1516.64,-137.08 1510.31,-145.57 1516.99,-147.67"/>
</g>
<!-- Node7 -->
<g id="node7" class="node">
<title>Node7</title>
<g id="a_node7"><a xlink:title=" ">
<polygon fill="none" stroke="#bfbfbf" points="1006.55,-291.5 1006.55,-310.5 1054.55,-310.5 1054.55,-291.5 1006.55,-291.5"/>
<text text-anchor="middle" x="1030.55" y="-298.5" font-family="Helvetica,sans-Serif" font-size="10.00">thread</text>
</a>
</g>
</g>
<!-- Node5&#45;&gt;Node7 -->
<g id="edge6" class="edge">
<title>Node5&#45;&gt;Node7</title>
<path fill="none" stroke="midnightblue" d="M1350.04,-459.47C1260.48,-444.58 1090.04,-411.15 1049.55,-367 1038.02,-354.42 1033.45,-335.2 1031.67,-320.92"/>
<polygon fill="midnightblue" stroke="midnightblue" points="1035.13,-320.39 1030.75,-310.75 1028.16,-321.02 1035.13,-320.39"/>
</g>
<!-- Node8 -->
<g id="node8" class="node">
<title>Node8</title>
<g id="a_node8"><a xlink:href="cfg__extensions_8hpp.html" target="_top" xlink:title="The header file for the extensions section of the configuration.">
<polygon fill="none" stroke="black" points="1203.05,-403.5 1203.05,-422.5 1358.05,-422.5 1358.05,-403.5 1203.05,-403.5"/>
<text text-anchor="middle" x="1280.55" y="-410.5" font-family="Helvetica,sans-Serif" font-size="10.00">sections/cfg_extensions.hpp</text>
</a>
</g>
</g>
<!-- Node5&#45;&gt;Node8 -->
<g id="edge7" class="edge">
<title>Node5&#45;&gt;Node8</title>
<path fill="none" stroke="midnightblue" d="M1385.75,-459.44C1365.27,-450.6 1333.07,-436.69 1309.69,-426.59"/>
<polygon fill="midnightblue" stroke="midnightblue" points="1310.84,-423.27 1300.27,-422.52 1308.06,-429.7 1310.84,-423.27"/>
</g>
<!-- Node11 -->
<g id="node11" class="node">
<title>Node11</title>
<g id="a_node11"><a xlink:href="shared__data_8hpp.html" target="_top" xlink:title="Contains the SharedData struct, used across all modules and extensions.">
<polygon fill="none" stroke="black" points="1072.55,-291.5 1072.55,-310.5 1170.55,-310.5 1170.55,-291.5 1072.55,-291.5"/>
<text text-anchor="middle" x="1121.55" y="-298.5" font-family="Helvetica,sans-Serif" font-size="10.00">shared_data.hpp</text>
</a>
</g>
</g>
<!-- Node5&#45;&gt;Node11 -->
<g id="edge62" class="edge">
<title>Node5&#45;&gt;Node11</title>
<path fill="none" stroke="midnightblue" d="M1405.35,-459.37C1404.32,-437.02 1398.28,-376.87 1363.55,-347 1336.74,-323.94 1243.42,-311.88 1180.81,-306.25"/>
<polygon fill="midnightblue" stroke="midnightblue" points="1180.92,-302.74 1170.66,-305.36 1180.32,-309.72 1180.92,-302.74"/>
</g>
<!-- Node37 -->
<g id="node37" class="node">
<title>Node37</title>
<g id="a_node37"><a xlink:href="status__led_8hpp.html" target="_top" xlink:title="RGB Status LED extension header file.">
<polygon fill="none" stroke="black" points="1380.55,-235.5 1380.55,-254.5 1468.55,-254.5 1468.55,-235.5 1380.55,-235.5"/>
<text text-anchor="middle" x="1424.55" y="-242.5" font-family="Helvetica,sans-Serif" font-size="10.00">status_led.hpp</text>
</a>
</g>
</g>
<!-- Node5&#45;&gt;Node37 -->
<g id="edge63" class="edge">
<title>Node5&#45;&gt;Node37</title>
<path fill="none" stroke="midnightblue" d="M1406.59,-459.38C1407.67,-450.33 1409.35,-435.68 1410.55,-423 1416.01,-365.61 1420.97,-297.6 1423.24,-265.12"/>
<polygon fill="midnightblue" stroke="midnightblue" points="1426.75,-265.07 1423.95,-254.85 1419.77,-264.58 1426.75,-265.07"/>
</g>
<!-- Node9 -->
<g id="node9" class="node">
<title>Node9</title>
<g id="a_node9"><a xlink:href="configuration__enums_8hpp.html" target="_top" xlink:title=" ">
<polygon fill="none" stroke="black" points="1058.55,-347.5 1058.55,-366.5 1198.55,-366.5 1198.55,-347.5 1058.55,-347.5"/>
<text text-anchor="middle" x="1128.55" y="-354.5" font-family="Helvetica,sans-Serif" font-size="10.00">configuration_enums.hpp</text>
</a>
</g>
</g>
<!-- Node8&#45;&gt;Node9 -->
<g id="edge8" class="edge">
<title>Node8&#45;&gt;Node9</title>
<path fill="none" stroke="midnightblue" d="M1256.47,-403.44C1231.01,-394.4 1190.66,-380.06 1162.09,-369.92"/>
<polygon fill="midnightblue" stroke="midnightblue" points="1163.12,-366.57 1152.53,-366.52 1160.78,-373.16 1163.12,-366.57"/>
</g>
<!-- Node10 -->
<g id="node10" class="node">
<title>Node10</title>
<g id="a_node10"><a xlink:href="cfg__section_8hpp.html" target="_top" xlink:title="This file contains the base class for all configuration sections.">
<polygon fill="none" stroke="black" points="1217.05,-347.5 1217.05,-366.5 1354.05,-366.5 1354.05,-347.5 1217.05,-347.5"/>
<text text-anchor="middle" x="1285.55" y="-354.5" font-family="Helvetica,sans-Serif" font-size="10.00">sections/cfg_section.hpp</text>
</a>
</g>
</g>
<!-- Node8&#45;&gt;Node10 -->
<g id="edge9" class="edge">
<title>Node8&#45;&gt;Node10</title>
<path fill="none" stroke="midnightblue" d="M1281.38,-403.08C1282.03,-396.01 1282.97,-385.86 1283.8,-376.99"/>
<polygon fill="midnightblue" stroke="midnightblue" points="1287.31,-377.03 1284.74,-366.75 1280.34,-376.39 1287.31,-377.03"/>
</g>
<!-- Node10&#45;&gt;Node11 -->
<g id="edge10" class="edge">
<title>Node10&#45;&gt;Node11</title>
<path fill="none" stroke="midnightblue" d="M1259.57,-347.44C1231.86,-338.32 1187.8,-323.81 1156.94,-313.65"/>
<polygon fill="midnightblue" stroke="midnightblue" points="1158.01,-310.32 1147.42,-310.52 1155.82,-316.97 1158.01,-310.32"/>
</g>
<!-- Node12 -->
<g id="node12" class="node">
<title>Node12</title>
<g id="a_node12"><a xlink:title=" ">
<polygon fill="none" stroke="#bfbfbf" points="788.05,-56.5 788.05,-75.5 913.05,-75.5 913.05,-56.5 788.05,-56.5"/>
<text text-anchor="middle" x="850.55" y="-63.5" font-family="Helvetica,sans-Serif" font-size="10.00">BoosterSeat/clock.hpp</text>
</a>
</g>
</g>
<!-- Node11&#45;&gt;Node12 -->
<g id="edge11" class="edge">
<title>Node11&#45;&gt;Node12</title>
<path fill="none" stroke="midnightblue" d="M1155.9,-291.46C1244.43,-267.95 1468.09,-198.28 1388.55,-112 1355.16,-75.77 995.64,-80.3 946.55,-76 939.07,-75.34 931.27,-74.64 923.48,-73.93"/>
<polygon fill="midnightblue" stroke="midnightblue" points="923.56,-70.42 913.29,-72.99 922.92,-77.39 923.56,-70.42"/>
</g>
<!-- Node13 -->
<g id="node13" class="node">
<title>Node13</title>
<g id="a_node13"><a xlink:title=" ">
<polygon fill="none" stroke="#bfbfbf" points="186.55,-56.5 186.55,-75.5 308.55,-75.5 308.55,-56.5 186.55,-56.5"/>
<text text-anchor="middle" x="247.55" y="-63.5" font-family="Helvetica,sans-Serif" font-size="10.00">BoosterSeat/time.hpp</text>
</a>
</g>
</g>
<!-- Node11&#45;&gt;Node13 -->
<g id="edge12" class="edge">
<title>Node11&#45;&gt;Node13</title>
<path fill="none" stroke="midnightblue" d="M1072.24,-291.94C1069.31,-291.59 1066.39,-291.27 1063.55,-291 1006.44,-285.59 78.89,-287.41 31.55,-255 2.33,-234.99 -7.72,-210.96 7.55,-179 28,-136.23 48.48,-133.86 90.55,-112 121.52,-95.91 159.01,-84.89 189.58,-77.78"/>
<polygon fill="midnightblue" stroke="midnightblue" points="190.67,-81.13 199.66,-75.52 189.14,-74.3 190.67,-81.13"/>
</g>
<!-- Node14 -->
<g id="node14" class="node">
<title>Node14</title>
<g id="a_node14"><a xlink:href="blocks_8hpp.html" target="_top" xlink:title=" ">
<polygon fill="none" stroke="black" points="605.05,-179.5 605.05,-198.5 674.05,-198.5 674.05,-179.5 605.05,-179.5"/>
<text text-anchor="middle" x="639.55" y="-186.5" font-family="Helvetica,sans-Serif" font-size="10.00">blocks.hpp</text>
</a>
</g>
</g>
<!-- Node11&#45;&gt;Node14 -->
<g id="edge13" class="edge">
<title>Node11&#45;&gt;Node14</title>
<path fill="none" stroke="midnightblue" d="M1072.41,-291.63C1011.31,-281.13 910.56,-263.48 873.55,-255 803.44,-238.94 722.86,-215.42 676.9,-201.51"/>
<polygon fill="midnightblue" stroke="midnightblue" points="677.67,-198.09 667.08,-198.53 675.63,-204.79 677.67,-198.09"/>
</g>
<!-- Node24 -->
<g id="node24" class="node">
<title>Node24</title>
<g id="a_node24"><a xlink:href="error__frame_8hpp.html" target="_top" xlink:title="The error frame.">
<polygon fill="none" stroke="black" points="883.05,-235.5 883.05,-254.5 978.05,-254.5 978.05,-235.5 883.05,-235.5"/>
<text text-anchor="middle" x="930.55" y="-242.5" font-family="Helvetica,sans-Serif" font-size="10.00">error_frame.hpp</text>
</a>
</g>
</g>
<!-- Node11&#45;&gt;Node24 -->
<g id="edge32" class="edge">
<title>Node11&#45;&gt;Node24</title>
<path fill="none" stroke="midnightblue" d="M1091.29,-291.44C1058.6,-282.2 1006.37,-267.44 970.37,-257.26"/>
<polygon fill="midnightblue" stroke="midnightblue" points="971.25,-253.87 960.68,-254.52 969.35,-260.61 971.25,-253.87"/>
</g>
<!-- Node25 -->
<g id="node25" class="node">
<title>Node25</title>
<g id="a_node25"><a xlink:href="frame_8hpp.html" target="_top" xlink:title=" ">
<polygon fill="none" stroke="black" points="397.05,-179.5 397.05,-198.5 464.05,-198.5 464.05,-179.5 397.05,-179.5"/>
<text text-anchor="middle" x="430.55" y="-186.5" font-family="Helvetica,sans-Serif" font-size="10.00">frame.hpp</text>
</a>
</g>
</g>
<!-- Node11&#45;&gt;Node25 -->
<g id="edge55" class="edge">
<title>Node11&#45;&gt;Node25</title>
<path fill="none" stroke="midnightblue" d="M1072.52,-292.31C1069.48,-291.86 1066.48,-291.42 1063.55,-291 943.29,-273.68 912.6,-273.74 792.55,-255 677.34,-237.01 542.28,-211.61 474.33,-198.53"/>
<polygon fill="midnightblue" stroke="midnightblue" points="474.89,-195.07 464.4,-196.61 473.56,-201.94 474.89,-195.07"/>
</g>
<!-- Node28 -->
<g id="node28" class="node">
<title>Node28</title>
<g id="a_node28"><a xlink:href="streams_8hpp.html" target="_top" xlink:title="The header file for the data streams.">
<polygon fill="none" stroke="black" points="1044.05,-179.5 1044.05,-198.5 1121.05,-198.5 1121.05,-179.5 1044.05,-179.5"/>
<text text-anchor="middle" x="1082.55" y="-186.5" font-family="Helvetica,sans-Serif" font-size="10.00">streams.hpp</text>
</a>
</g>
</g>
<!-- Node11&#45;&gt;Node28 -->
<g id="edge61" class="edge">
<title>Node11&#45;&gt;Node28</title>
<path fill="none" stroke="midnightblue" d="M1118.49,-291.37C1112.17,-273.54 1097.55,-232.3 1089.03,-208.27"/>
<polygon fill="midnightblue" stroke="midnightblue" points="1092.24,-206.85 1085.6,-198.59 1085.64,-209.19 1092.24,-206.85"/>
</g>
<!-- Node35 -->
<g id="node35" class="node">
<title>Node35</title>
<g id="a_node35"><a xlink:href="log__container_8hpp.html" target="_top" xlink:title="A simple logging system for debugging.">
<polygon fill="none" stroke="black" points="41.05,-235.5 41.05,-254.5 144.05,-254.5 144.05,-235.5 41.05,-235.5"/>
<text text-anchor="middle" x="92.55" y="-242.5" font-family="Helvetica,sans-Serif" font-size="10.00">log_container.hpp</text>
</a>
</g>
</g>
<!-- Node11&#45;&gt;Node35 -->
<g id="edge56" class="edge">
<title>Node11&#45;&gt;Node35</title>
<path fill="none" stroke="midnightblue" d="M1072.55,-292.02C1069.51,-291.64 1066.49,-291.3 1063.55,-291 721.32,-256.62 308.54,-248.46 154.48,-246.56"/>
<polygon fill="midnightblue" stroke="midnightblue" points="154.32,-243.06 144.28,-246.44 154.23,-250.06 154.32,-243.06"/>
</g>
<!-- Node11&#45;&gt;Node37 -->
<g id="edge59" class="edge">
<title>Node11&#45;&gt;Node37</title>
<path fill="none" stroke="midnightblue" d="M1169.56,-291.44C1224.19,-281.71 1313.2,-265.85 1370.29,-255.67"/>
<polygon fill="midnightblue" stroke="midnightblue" points="1370.99,-259.1 1380.22,-253.9 1369.76,-252.21 1370.99,-259.1"/>
</g>
<!-- Node14&#45;&gt;Node12 -->
<g id="edge15" class="edge">
<title>Node14&#45;&gt;Node12</title>
<path fill="none" stroke="midnightblue" d="M668.79,-179.4C692.94,-171.67 727.66,-159.06 755.55,-143 771.54,-133.8 809.94,-101.77 832.73,-82.35"/>
<polygon fill="midnightblue" stroke="midnightblue" points="835.29,-84.76 840.61,-75.6 830.74,-79.44 835.29,-84.76"/>
</g>
<!-- Node14&#45;&gt;Node13 -->
<g id="edge17" class="edge">
<title>Node14&#45;&gt;Node13</title>
<path fill="none" stroke="midnightblue" d="M604.81,-185.69C533.9,-180.55 375.08,-166.71 326.55,-143 298.59,-129.34 274.12,-102.13 260.09,-84.25"/>
<polygon fill="midnightblue" stroke="midnightblue" points="262.57,-81.72 253.74,-75.87 256.99,-85.95 262.57,-81.72"/>
</g>
<!-- Node14&#45;&gt;Node14 -->
<g id="edge18" class="edge">
<title>Node14&#45;&gt;Node14</title>
<path fill="none" stroke="midnightblue" d="M661.94,-198.53C677.16,-201.31 692.05,-198.13 692.05,-189 692.05,-181.94 683.14,-178.44 672.07,-178.5"/>
<polygon fill="midnightblue" stroke="midnightblue" points="671.56,-175.03 661.94,-179.47 672.23,-182 671.56,-175.03"/>
</g>
<!-- Node15 -->
<g id="node15" class="node">
<title>Node15</title>
<g id="a_node15"><a xlink:title=" ">
<polygon fill="none" stroke="#bfbfbf" points="326.55,-56.5 326.55,-75.5 374.55,-75.5 374.55,-56.5 326.55,-56.5"/>
<text text-anchor="middle" x="350.55" y="-63.5" font-family="Helvetica,sans-Serif" font-size="10.00">mutex</text>
</a>
</g>
</g>
<!-- Node14&#45;&gt;Node15 -->
<g id="edge14" class="edge">
<title>Node14&#45;&gt;Node15</title>
<path fill="none" stroke="midnightblue" d="M605.01,-185.36C529.45,-179.25 354.86,-163.08 337.55,-143 323.67,-126.9 332.02,-101.52 340.36,-84.58"/>
<polygon fill="midnightblue" stroke="midnightblue" points="343.47,-86.18 345.1,-75.71 337.3,-82.88 343.47,-86.18"/>
</g>
<!-- Node16 -->
<g id="node16" class="node">
<title>Node16</title>
<g id="a_node16"><a xlink:title=" ">
<polygon fill="none" stroke="#bfbfbf" points="347.05,-118 347.05,-137 490.05,-137 490.05,-118 347.05,-118"/>
<text text-anchor="middle" x="418.55" y="-125" font-family="Helvetica,sans-Serif" font-size="10.00">BoosterSeat/numbers.hpp</text>
</a>
</g>
</g>
<!-- Node14&#45;&gt;Node16 -->
<g id="edge16" class="edge">
<title>Node14&#45;&gt;Node16</title>
<path fill="none" stroke="midnightblue" d="M607.89,-179.48C569,-169 502.91,-151.21 460,-139.66"/>
<polygon fill="midnightblue" stroke="midnightblue" points="460.72,-136.23 450.16,-137.01 458.9,-142.99 460.72,-136.23"/>
</g>
<!-- Node17 -->
<g id="node17" class="node">
<title>Node17</title>
<g id="a_node17"><a xlink:href="json_8hpp.html" target="_top" xlink:title="Simple wrapper around nlohmann/json.hpp to provide a common interface.">
<polygon fill="none" stroke="black" points="546.55,-118 546.55,-137 604.55,-137 604.55,-118 546.55,-118"/>
<text text-anchor="middle" x="575.55" y="-125" font-family="Helvetica,sans-Serif" font-size="10.00">json.hpp</text>
</a>
</g>
</g>
<!-- Node14&#45;&gt;Node17 -->
<g id="edge19" class="edge">
<title>Node14&#45;&gt;Node17</title>
<path fill="none" stroke="midnightblue" d="M630.38,-179.48C620.4,-170.2 604.24,-155.17 592.04,-143.83"/>
<polygon fill="midnightblue" stroke="midnightblue" points="594.41,-141.25 584.71,-137.01 589.65,-146.38 594.41,-141.25"/>
</g>
<!-- Node20 -->
<g id="node20" class="node">
<title>Node20</title>
<g id="a_node20"><a xlink:href="node_8hpp.html" target="_top" xlink:title="Contains structures that are used to identify components of the flight system.">
<polygon fill="none" stroke="black" points="955.55,-56.5 955.55,-75.5 1017.55,-75.5 1017.55,-56.5 955.55,-56.5"/>
<text text-anchor="middle" x="986.55" y="-63.5" font-family="Helvetica,sans-Serif" font-size="10.00">node.hpp</text>
</a>
</g>
</g>
<!-- Node14&#45;&gt;Node20 -->
<g id="edge22" class="edge">
<title>Node14&#45;&gt;Node20</title>
<path fill="none" stroke="midnightblue" d="M671.03,-179.45C701.75,-170.92 749.69,-157.08 790.55,-143 826.21,-130.71 834.4,-125.66 869.55,-112 898.31,-100.83 931.09,-88.23 954.63,-79.21"/>
<polygon fill="midnightblue" stroke="midnightblue" points="956.02,-82.43 964.11,-75.58 953.52,-75.89 956.02,-82.43"/>
</g>
<!-- Node23 -->
<g id="node23" class="node">
<title>Node23</title>
<g id="a_node23"><a xlink:href="positional_8hpp.html" target="_top" xlink:title="Positional data for the flight system (gps/imu data)">
<polygon fill="none" stroke="black" points="660.55,-118 660.55,-137 746.55,-137 746.55,-118 660.55,-118"/>
<text text-anchor="middle" x="703.55" y="-125" font-family="Helvetica,sans-Serif" font-size="10.00">positional.hpp</text>
</a>
</g>
</g>
<!-- Node14&#45;&gt;Node23 -->
<g id="edge25" class="edge">
<title>Node14&#45;&gt;Node23</title>
<path fill="none" stroke="midnightblue" d="M648.72,-179.48C658.7,-170.2 674.87,-155.17 687.06,-143.83"/>
<polygon fill="midnightblue" stroke="midnightblue" points="689.46,-146.38 694.4,-137.01 684.69,-141.25 689.46,-146.38"/>
</g>
<!-- Node18 -->
<g id="node18" class="node">
<title>Node18</title>
<g id="a_node18"><a xlink:title=" ">
<polygon fill="none" stroke="#bfbfbf" points="520.55,-56.5 520.55,-75.5 630.55,-75.5 630.55,-56.5 520.55,-56.5"/>
<text text-anchor="middle" x="575.55" y="-63.5" font-family="Helvetica,sans-Serif" font-size="10.00">nlohmann/json.hpp</text>
</a>
</g>
</g>
<!-- Node17&#45;&gt;Node18 -->
<g id="edge20" class="edge">
<title>Node17&#45;&gt;Node18</title>
<path fill="none" stroke="midnightblue" d="M575.55,-117.98C575.55,-109.58 575.55,-96.48 575.55,-85.66"/>
<polygon fill="midnightblue" stroke="midnightblue" points="579.05,-85.51 575.55,-75.51 572.05,-85.51 579.05,-85.51"/>
</g>
<!-- Node19 -->
<g id="node19" class="node">
<title>Node19</title>
<g id="a_node19"><a xlink:title=" ">
<polygon fill="none" stroke="#bfbfbf" points="648.55,-56.5 648.55,-75.5 692.55,-75.5 692.55,-56.5 648.55,-56.5"/>
<text text-anchor="middle" x="670.55" y="-63.5" font-family="Helvetica,sans-Serif" font-size="10.00">string</text>
</a>
</g>
</g>
<!-- Node17&#45;&gt;Node19 -->
<g id="edge21" class="edge">
<title>Node17&#45;&gt;Node19</title>
<path fill="none" stroke="midnightblue" d="M589.16,-117.98C604.61,-108.3 630.04,-92.37 648.37,-80.89"/>
<polygon fill="midnightblue" stroke="midnightblue" points="650.35,-83.78 656.97,-75.51 646.63,-77.85 650.35,-83.78"/>
</g>
<!-- Node21 -->
<g id="node21" class="node">
<title>Node21</title>
<g id="a_node21"><a xlink:title=" ">
<polygon fill="none" stroke="#bfbfbf" points="797.55,-0.5 797.55,-19.5 847.55,-19.5 847.55,-0.5 797.55,-0.5"/>
<text text-anchor="middle" x="822.55" y="-7.5" font-family="Helvetica,sans-Serif" font-size="10.00">cstdint</text>
</a>
</g>
</g>
<!-- Node20&#45;&gt;Node21 -->
<g id="edge23" class="edge">
<title>Node20&#45;&gt;Node21</title>
<path fill="none" stroke="midnightblue" d="M960.57,-56.44C932.61,-47.24 888.02,-32.56 857.12,-22.38"/>
<polygon fill="midnightblue" stroke="midnightblue" points="858.2,-19.05 847.61,-19.25 856.01,-25.7 858.2,-19.05"/>
</g>
<!-- Node22 -->
<g id="node22" class="node">
<title>Node22</title>
<g id="a_node22"><a xlink:title=" ">
<polygon fill="none" stroke="#bfbfbf" points="916.55,-0.5 916.55,-19.5 954.55,-19.5 954.55,-0.5 916.55,-0.5"/>
<text text-anchor="middle" x="935.55" y="-7.5" font-family="Helvetica,sans-Serif" font-size="10.00">map</text>
</a>
</g>
</g>
<!-- Node20&#45;&gt;Node22 -->
<g id="edge24" class="edge">
<title>Node20&#45;&gt;Node22</title>
<path fill="none" stroke="midnightblue" d="M978.13,-56.08C970.71,-48.22 959.7,-36.57 950.74,-27.08"/>
<polygon fill="midnightblue" stroke="midnightblue" points="953.23,-24.62 943.82,-19.75 948.14,-29.42 953.23,-24.62"/>
</g>
<!-- Node23&#45;&gt;Node12 -->
<g id="edge30" class="edge">
<title>Node23&#45;&gt;Node12</title>
<path fill="none" stroke="midnightblue" d="M724.61,-117.98C749.61,-107.86 791.49,-90.9 820.04,-79.35"/>
<polygon fill="midnightblue" stroke="midnightblue" points="821.57,-82.51 829.53,-75.51 818.95,-76.02 821.57,-82.51"/>
</g>
<!-- Node23&#45;&gt;Node13 -->
<g id="edge31" class="edge">
<title>Node23&#45;&gt;Node13</title>
<path fill="none" stroke="midnightblue" d="M660.12,-119.15C645.36,-116.75 628.75,-114.15 613.55,-112 485.54,-93.91 450.74,-92.51 318.73,-76.14"/>
<polygon fill="midnightblue" stroke="midnightblue" points="318.99,-72.64 308.63,-74.88 318.12,-79.59 318.99,-72.64"/>
</g>
<!-- Node23&#45;&gt;Node18 -->
<g id="edge29" class="edge">
<title>Node23&#45;&gt;Node18</title>
<path fill="none" stroke="midnightblue" d="M685.21,-117.98C663.73,-107.99 627.93,-91.35 603.11,-79.81"/>
<polygon fill="midnightblue" stroke="midnightblue" points="604.4,-76.55 593.86,-75.51 601.45,-82.9 604.4,-76.55"/>
</g>
<!-- Node23&#45;&gt;Node19 -->
<g id="edge28" class="edge">
<title>Node23&#45;&gt;Node19</title>
<path fill="none" stroke="midnightblue" d="M698.83,-117.98C693.97,-109.23 686.29,-95.37 680.15,-84.31"/>
<polygon fill="midnightblue" stroke="midnightblue" points="683.18,-82.56 675.27,-75.51 677.06,-85.95 683.18,-82.56"/>
</g>
<!-- Node23&#45;&gt;Node21 -->
<g id="edge26" class="edge">
<title>Node23&#45;&gt;Node21</title>
<path fill="none" stroke="midnightblue" d="M707.04,-117.75C713.09,-103.42 726.74,-74.66 745.55,-56 759.03,-42.64 777.25,-31.76 792.58,-24.04"/>
<polygon fill="midnightblue" stroke="midnightblue" points="794.2,-27.15 801.69,-19.65 791.16,-20.84 794.2,-27.15"/>
</g>
<!-- Node23&#45;&gt;Node22 -->
<g id="edge27" class="edge">
<title>Node23&#45;&gt;Node22</title>
<path fill="none" stroke="midnightblue" d="M710.43,-117.73C722.59,-102.84 749.34,-72.6 778.55,-56 819.53,-32.71 873.48,-20.7 906.28,-15.13"/>
<polygon fill="midnightblue" stroke="midnightblue" points="907.23,-18.52 916.55,-13.48 906.12,-11.61 907.23,-18.52"/>
</g>
<!-- Node24&#45;&gt;Node12 -->
<g id="edge33" class="edge">
<title>Node24&#45;&gt;Node12</title>
<path fill="none" stroke="midnightblue" d="M924.05,-235.29C911.7,-218.37 884.74,-179.5 869.55,-143 861.74,-124.2 856.56,-101.41 853.62,-85.71"/>
<polygon fill="midnightblue" stroke="midnightblue" points="857.04,-84.94 851.86,-75.7 850.14,-86.16 857.04,-84.94"/>
</g>
<!-- Node24&#45;&gt;Node25 -->
<g id="edge34" class="edge">
<title>Node24&#45;&gt;Node25</title>
<path fill="none" stroke="midnightblue" d="M882.61,-238.82C785.66,-228.35 567.63,-204.8 474.3,-194.72"/>
<polygon fill="midnightblue" stroke="midnightblue" points="474.66,-191.24 464.34,-193.65 473.91,-198.2 474.66,-191.24"/>
</g>
<!-- Node27 -->
<g id="node27" class="node">
<title>Node27</title>
<g id="a_node27"><a xlink:href="giraffe__diagnostic__ids_8hpp.html" target="_top" xlink:title=" ">
<polygon fill="none" stroke="black" points="878.55,-112.5 878.55,-142.5 982.55,-142.5 982.55,-112.5 878.55,-112.5"/>
<text text-anchor="start" x="886.55" y="-130.5" font-family="Helvetica,sans-Serif" font-size="10.00">giraffe_diagnostic</text>
<text text-anchor="middle" x="930.55" y="-119.5" font-family="Helvetica,sans-Serif" font-size="10.00">_ids.hpp</text>
</a>
</g>
</g>
<!-- Node24&#45;&gt;Node27 -->
<g id="edge37" class="edge">
<title>Node24&#45;&gt;Node27</title>
<path fill="none" stroke="midnightblue" d="M930.55,-235.32C930.55,-217.97 930.55,-178.46 930.55,-152.66"/>
<polygon fill="midnightblue" stroke="midnightblue" points="934.05,-152.55 930.55,-142.55 927.05,-152.55 934.05,-152.55"/>
</g>
<!-- Node24&#45;&gt;Node28 -->
<g id="edge38" class="edge">
<title>Node24&#45;&gt;Node28</title>
<path fill="none" stroke="midnightblue" d="M954.64,-235.44C980.1,-226.4 1020.45,-212.06 1049.01,-201.92"/>
<polygon fill="midnightblue" stroke="midnightblue" points="1050.33,-205.16 1058.58,-198.52 1047.99,-198.57 1050.33,-205.16"/>
</g>
<!-- Node25&#45;&gt;Node15 -->
<g id="edge35" class="edge">
<title>Node25&#45;&gt;Node15</title>
<path fill="none" stroke="midnightblue" d="M396.88,-186.26C367.11,-182.72 325.29,-172.43 304.55,-143 296.62,-131.74 299.21,-124.7 304.55,-112 309.58,-100.05 319.5,-89.69 328.84,-81.93"/>
<polygon fill="midnightblue" stroke="midnightblue" points="330.99,-84.69 336.77,-75.81 326.71,-79.15 330.99,-84.69"/>
</g>
<!-- Node26 -->
<g id="node26" class="node">
<title>Node26</title>
<g id="a_node26"><a xlink:title=" ">
<polygon fill="none" stroke="#bfbfbf" points="121.05,-118 121.05,-137 214.05,-137 214.05,-118 121.05,-118"/>
<text text-anchor="middle" x="167.55" y="-125" font-family="Helvetica,sans-Serif" font-size="10.00">unordered_map</text>
</a>
</g>
</g>
<!-- Node25&#45;&gt;Node26 -->
<g id="edge36" class="edge">
<title>Node25&#45;&gt;Node26</title>
<path fill="none" stroke="midnightblue" d="M396.92,-180.66C356.8,-171.87 287.73,-156.62 228.55,-143 223.51,-141.84 218.24,-140.61 212.99,-139.38"/>
<polygon fill="midnightblue" stroke="midnightblue" points="213.55,-135.91 203.01,-137.02 211.94,-142.72 213.55,-135.91"/>
</g>
<!-- Node28&#45;&gt;Node6 -->
<g id="edge39" class="edge">
<title>Node28&#45;&gt;Node6</title>
<path fill="none" stroke="midnightblue" d="M1121.23,-186.74C1192.99,-183.73 1351.2,-173.87 1480.55,-143 1483.55,-142.29 1486.63,-141.41 1489.68,-140.44"/>
<polygon fill="midnightblue" stroke="midnightblue" points="1490.9,-143.72 1499.2,-137.13 1488.6,-137.11 1490.9,-143.72"/>
</g>
<!-- Node28&#45;&gt;Node12 -->
<g id="edge44" class="edge">
<title>Node28&#45;&gt;Node12</title>
<path fill="none" stroke="midnightblue" d="M1121.21,-187.92C1192.37,-186.86 1339.76,-180.12 1371.55,-143 1380.51,-132.53 1380.88,-122.15 1371.55,-112 1339.49,-77.1 993.76,-80.21 946.55,-76 939.08,-75.33 931.27,-74.62 923.49,-73.91"/>
<polygon fill="midnightblue" stroke="midnightblue" points="923.57,-70.4 913.29,-72.96 922.92,-77.37 923.57,-70.4"/>
</g>
<!-- Node28&#45;&gt;Node15 -->
<g id="edge41" class="edge">
<title>Node28&#45;&gt;Node15</title>
<path fill="none" stroke="midnightblue" d="M1043.91,-187.7C935.41,-186.42 629.91,-179.57 537.55,-143 516.97,-134.85 518.16,-122.29 498.55,-112 461.81,-92.71 415.5,-80.31 384.56,-73.51"/>
<polygon fill="midnightblue" stroke="midnightblue" points="385.2,-70.07 374.69,-71.42 383.75,-76.92 385.2,-70.07"/>
</g>
<!-- Node28&#45;&gt;Node19 -->
<g id="edge43" class="edge">
<title>Node28&#45;&gt;Node19</title>
<path fill="none" stroke="midnightblue" d="M1043.73,-186.85C942.69,-183.47 677.58,-171.89 651.55,-143 636.96,-126.8 648.09,-101.09 658.46,-84.13"/>
<polygon fill="midnightblue" stroke="midnightblue" points="661.41,-86 663.97,-75.72 655.56,-82.17 661.41,-86"/>
</g>
<!-- Node28&#45;&gt;Node20 -->
<g id="edge53" class="edge">
<title>Node28&#45;&gt;Node20</title>
<path fill="none" stroke="midnightblue" d="M1070.1,-179.41C1058.61,-171.05 1041.55,-157.51 1029.55,-143 1014.66,-124.98 1002.1,-101.09 994.48,-84.94"/>
<polygon fill="midnightblue" stroke="midnightblue" points="997.54,-83.23 990.2,-75.59 991.17,-86.14 997.54,-83.23"/>
</g>
<!-- Node28&#45;&gt;Node23 -->
<g id="edge54" class="edge">
<title>Node28&#45;&gt;Node23</title>
<path fill="none" stroke="midnightblue" d="M1043.77,-181.91C975.53,-171.2 833.87,-148.96 756.62,-136.83"/>
<polygon fill="midnightblue" stroke="midnightblue" points="757.03,-133.35 746.61,-135.26 755.95,-140.27 757.03,-133.35"/>
</g>
<!-- Node28&#45;&gt;Node27 -->
<g id="edge52" class="edge">
<title>Node28&#45;&gt;Node27</title>
<path fill="none" stroke="midnightblue" d="M1060.78,-179.48C1038.75,-170.85 1004.03,-157.26 975.99,-146.29"/>
<polygon fill="midnightblue" stroke="midnightblue" points="976.96,-142.91 966.38,-142.52 974.41,-149.43 976.96,-142.91"/>
</g>
<!-- Node29 -->
<g id="node29" class="node">
<title>Node29</title>
<g id="a_node29"><a xlink:title=" ">
<polygon fill="none" stroke="#bfbfbf" points="1038.55,-118 1038.55,-137 1098.55,-137 1098.55,-118 1038.55,-118"/>
<text text-anchor="middle" x="1068.55" y="-125" font-family="Helvetica,sans-Serif" font-size="10.00">iostream</text>
</a>
</g>
</g>
<!-- Node28&#45;&gt;Node29 -->
<g id="edge40" class="edge">
<title>Node28&#45;&gt;Node29</title>
<path fill="none" stroke="midnightblue" d="M1080.55,-179.48C1078.55,-170.99 1075.42,-157.7 1072.86,-146.82"/>
<polygon fill="midnightblue" stroke="midnightblue" points="1076.25,-145.94 1070.56,-137.01 1069.44,-147.54 1076.25,-145.94"/>
</g>
<!-- Node30 -->
<g id="node30" class="node">
<title>Node30</title>
<g id="a_node30"><a xlink:title=" ">
<polygon fill="none" stroke="#bfbfbf" points="1484.05,-56.5 1484.05,-75.5 1531.05,-75.5 1531.05,-56.5 1484.05,-56.5"/>
<text text-anchor="middle" x="1507.55" y="-63.5" font-family="Helvetica,sans-Serif" font-size="10.00">queue</text>
</a>
</g>
</g>
<!-- Node28&#45;&gt;Node30 -->
<g id="edge42" class="edge">
<title>Node28&#45;&gt;Node30</title>
<path fill="none" stroke="midnightblue" d="M1121.53,-187.46C1180.96,-185.5 1296.99,-177.17 1388.55,-143 1427.68,-128.4 1467.44,-99.57 1489.66,-81.92"/>
<polygon fill="midnightblue" stroke="midnightblue" points="1491.96,-84.55 1497.53,-75.54 1487.56,-79.11 1491.96,-84.55"/>
</g>
<!-- Node31 -->
<g id="node31" class="node">
<title>Node31</title>
<g id="a_node31"><a xlink:title=" ">
<polygon fill="none" stroke="#bfbfbf" points="1116.55,-118 1116.55,-137 1264.55,-137 1264.55,-118 1116.55,-118"/>
<text text-anchor="middle" x="1190.55" y="-125" font-family="Helvetica,sans-Serif" font-size="10.00">BoosterSeat/exception.hpp</text>
</a>
</g>
</g>
<!-- Node28&#45;&gt;Node31 -->
<g id="edge45" class="edge">
<title>Node28&#45;&gt;Node31</title>
<path fill="none" stroke="midnightblue" d="M1098.03,-179.48C1115.83,-169.67 1145.29,-153.43 1166.19,-141.92"/>
<polygon fill="midnightblue" stroke="midnightblue" points="1168.04,-144.9 1175.11,-137.01 1164.66,-138.77 1168.04,-144.9"/>
</g>
<!-- Node32 -->
<g id="node32" class="node">
<title>Node32</title>
<g id="a_node32"><a xlink:href="command_8hpp.html" target="_top" xlink:title="The command/queue system for the flight system.">
<polygon fill="none" stroke="black" points="1600.55,-118 1600.55,-137 1686.55,-137 1686.55,-118 1600.55,-118"/>
<text text-anchor="middle" x="1643.55" y="-125" font-family="Helvetica,sans-Serif" font-size="10.00">command.hpp</text>
</a>
</g>
</g>
<!-- Node28&#45;&gt;Node32 -->
<g id="edge46" class="edge">
<title>Node28&#45;&gt;Node32</title>
<path fill="none" stroke="midnightblue" d="M1121.11,-185.16C1201.63,-179.05 1393.45,-163.52 1553.55,-143 1565.45,-141.48 1578.19,-139.58 1590.23,-137.67"/>
<polygon fill="midnightblue" stroke="midnightblue" points="1590.83,-141.12 1600.15,-136.07 1589.72,-134.21 1590.83,-141.12"/>
</g>
<!-- Node34 -->
<g id="node34" class="node">
<title>Node34</title>
<g id="a_node34"><a xlink:href="data__ids_8hpp.html" target="_top" xlink:title=" ">
<polygon fill="none" stroke="black" points="1283.05,-118 1283.05,-137 1362.05,-137 1362.05,-118 1283.05,-118"/>
<text text-anchor="middle" x="1322.55" y="-125" font-family="Helvetica,sans-Serif" font-size="10.00">data_ids.hpp</text>
</a>
</g>
</g>
<!-- Node28&#45;&gt;Node34 -->
<g id="edge51" class="edge">
<title>Node28&#45;&gt;Node34</title>
<path fill="none" stroke="midnightblue" d="M1121.12,-179.58C1159.82,-170.98 1221.04,-156.95 1273.55,-143 1277.2,-142.03 1280.98,-140.99 1284.76,-139.91"/>
<polygon fill="midnightblue" stroke="midnightblue" points="1286.01,-143.2 1294.64,-137.05 1284.07,-136.47 1286.01,-143.2"/>
</g>
<!-- Node32&#45;&gt;Node15 -->
<g id="edge47" class="edge">
<title>Node32&#45;&gt;Node15</title>
<path fill="none" stroke="midnightblue" d="M1600.21,-118.39C1585.45,-115.93 1568.83,-113.49 1553.55,-112 1092.35,-67.06 974.47,-96.93 511.55,-76 467.96,-74.03 417.76,-71.12 385.17,-69.15"/>
<polygon fill="midnightblue" stroke="midnightblue" points="385.02,-65.63 374.82,-68.52 384.59,-72.62 385.02,-65.63"/>
</g>
<!-- Node32&#45;&gt;Node20 -->
<g id="edge50" class="edge">
<title>Node32&#45;&gt;Node20</title>
<path fill="none" stroke="midnightblue" d="M1614.18,-117.99C1605.36,-115.71 1595.62,-113.48 1586.55,-112 1378.42,-77.99 1125.39,-69.63 1027.74,-67.62"/>
<polygon fill="midnightblue" stroke="midnightblue" points="1027.76,-64.12 1017.69,-67.43 1027.62,-71.12 1027.76,-64.12"/>
</g>
<!-- Node32&#45;&gt;Node30 -->
<g id="edge48" class="edge">
<title>Node32&#45;&gt;Node30</title>
<path fill="none" stroke="midnightblue" d="M1624.07,-117.98C1601.14,-107.95 1562.87,-91.2 1536.48,-79.65"/>
<polygon fill="midnightblue" stroke="midnightblue" points="1537.57,-76.31 1527,-75.51 1534.76,-82.72 1537.57,-76.31"/>
</g>
<!-- Node33 -->
<g id="node33" class="node">
<title>Node33</title>
<g id="a_node33"><a xlink:href="command__ids_8hpp.html" target="_top" xlink:title=" ">
<polygon fill="none" stroke="black" points="1590.55,-56.5 1590.55,-75.5 1696.55,-75.5 1696.55,-56.5 1590.55,-56.5"/>
<text text-anchor="middle" x="1643.55" y="-63.5" font-family="Helvetica,sans-Serif" font-size="10.00">command_ids.hpp</text>
</a>
</g>
</g>
<!-- Node32&#45;&gt;Node33 -->
<g id="edge49" class="edge">
<title>Node32&#45;&gt;Node33</title>
<path fill="none" stroke="midnightblue" d="M1643.55,-117.98C1643.55,-109.58 1643.55,-96.48 1643.55,-85.66"/>
<polygon fill="midnightblue" stroke="midnightblue" points="1647.05,-85.51 1643.55,-75.51 1640.05,-85.51 1647.05,-85.51"/>
</g>
<!-- Node35&#45;&gt;Node15 -->
<g id="edge58" class="edge">
<title>Node35&#45;&gt;Node15</title>
<path fill="none" stroke="midnightblue" d="M90.77,-235.46C86.43,-212.1 78.02,-146.56 111.55,-112 174.07,-47.58 223.37,-92.9 316.42,-75.9"/>
<polygon fill="midnightblue" stroke="midnightblue" points="317.37,-79.27 326.47,-73.85 315.97,-72.42 317.37,-79.27"/>
</g>
<!-- Node36 -->
<g id="node36" class="node">
<title>Node36</title>
<g id="a_node36"><a xlink:title=" ">
<polygon fill="none" stroke="#bfbfbf" points="17.05,-179.5 17.05,-198.5 64.05,-198.5 64.05,-179.5 17.05,-179.5"/>
<text text-anchor="middle" x="40.55" y="-186.5" font-family="Helvetica,sans-Serif" font-size="10.00">deque</text>
</a>
</g>
</g>
<!-- Node35&#45;&gt;Node36 -->
<g id="edge57" class="edge">
<title>Node35&#45;&gt;Node36</title>
<path fill="none" stroke="midnightblue" d="M83.97,-235.08C76.39,-227.22 65.18,-215.57 56.04,-206.08"/>
<polygon fill="midnightblue" stroke="midnightblue" points="58.44,-203.53 48.98,-198.75 53.4,-208.38 58.44,-203.53"/>
</g>
<!-- Node37&#45;&gt;Node6 -->
<g id="edge60" class="edge">
<title>Node37&#45;&gt;Node6</title>
<path fill="none" stroke="midnightblue" d="M1431.69,-235.32C1447.44,-216.17 1485.38,-170.04 1505.87,-145.13"/>
<polygon fill="midnightblue" stroke="midnightblue" points="1508.68,-147.23 1512.33,-137.28 1503.27,-142.78 1508.68,-147.23"/>
</g>
<!-- Node38&#45;&gt;Node6 -->
<g id="edge65" class="edge">
<title>Node38&#45;&gt;Node6</title>
<path fill="none" stroke="midnightblue" d="M1564.77,-347.36C1557.89,-314.07 1533.01,-193.65 1523.39,-147.07"/>
<polygon fill="midnightblue" stroke="midnightblue" points="1526.79,-146.23 1521.34,-137.15 1519.94,-147.65 1526.79,-146.23"/>
</g>
<!-- Node38&#45;&gt;Node7 -->
<g id="edge66" class="edge">
<title>Node38&#45;&gt;Node7</title>
<path fill="none" stroke="midnightblue" d="M1529.34,-354.92C1447.06,-352.06 1243.46,-342.32 1064.45,-310.84"/>
<polygon fill="midnightblue" stroke="midnightblue" points="1065.05,-307.4 1054.59,-309.08 1063.82,-314.29 1065.05,-307.4"/>
</g>
<!-- Node38&#45;&gt;Node11 -->
<g id="edge73" class="edge">
<title>Node38&#45;&gt;Node11</title>
<path fill="none" stroke="midnightblue" d="M1529.38,-351.49C1452.16,-342.12 1273.87,-320.48 1180.7,-309.18"/>
<polygon fill="midnightblue" stroke="midnightblue" points="1180.94,-305.68 1170.59,-307.95 1180.09,-312.63 1180.94,-305.68"/>
</g>
<!-- Node38&#45;&gt;Node20 -->
<g id="edge72" class="edge">
<title>Node38&#45;&gt;Node20</title>
<path fill="none" stroke="midnightblue" d="M1567.34,-347.45C1568.96,-328.96 1572.55,-283.87 1572.55,-246 1572.55,-246 1572.55,-246 1572.55,-188 1572.55,-153.18 1580.13,-134.5 1553.55,-112 1513.64,-78.21 1151.57,-69.53 1027.81,-67.54"/>
<polygon fill="midnightblue" stroke="midnightblue" points="1027.66,-64.04 1017.61,-67.38 1027.55,-71.04 1027.66,-64.04"/>
</g>
<!-- Node38&#45;&gt;Node32 -->
<g id="edge67" class="edge">
<title>Node38&#45;&gt;Node32</title>
<path fill="none" stroke="midnightblue" d="M1603.79,-352.56C1635.96,-347.87 1682.11,-336.85 1713.55,-311 1735.37,-293.07 1736.68,-282.39 1743.55,-255 1755.83,-206.11 1701.36,-163.41 1667.97,-142.38"/>
<polygon fill="midnightblue" stroke="midnightblue" points="1669.54,-139.24 1659.18,-137.04 1665.9,-145.22 1669.54,-139.24"/>
</g>
<!-- Node39 -->
<g id="node39" class="node">
<title>Node39</title>
<g id="a_node39"><a xlink:href="configuration_8hpp.html" target="_top" xlink:title=" ">
<polygon fill="none" stroke="black" points="1791.05,-291.5 1791.05,-310.5 1892.05,-310.5 1892.05,-291.5 1791.05,-291.5"/>
<text text-anchor="middle" x="1841.55" y="-298.5" font-family="Helvetica,sans-Serif" font-size="10.00">configuration.hpp</text>
</a>
</g>
</g>
<!-- Node38&#45;&gt;Node39 -->
<g id="edge68" class="edge">
<title>Node38&#45;&gt;Node39</title>
<path fill="none" stroke="midnightblue" d="M1603.64,-348.72C1651.02,-339.41 1733.37,-323.24 1787.68,-312.58"/>
<polygon fill="midnightblue" stroke="midnightblue" points="1788.67,-315.95 1797.81,-310.59 1787.32,-309.08 1788.67,-315.95"/>
</g>
<!-- Node40 -->
<g id="node40" class="node">
<title>Node40</title>
<g id="a_node40"><a xlink:href="giraffe__assert_8hpp.html" target="_top" xlink:title="For absolute failures in the code.">
<polygon fill="none" stroke="black" points="1600.55,-291.5 1600.55,-310.5 1704.55,-310.5 1704.55,-291.5 1600.55,-291.5"/>
<text text-anchor="middle" x="1652.55" y="-298.5" font-family="Helvetica,sans-Serif" font-size="10.00">giraffe_assert.hpp</text>
</a>
</g>
</g>
<!-- Node38&#45;&gt;Node40 -->
<g id="edge69" class="edge">
<title>Node38&#45;&gt;Node40</title>
<path fill="none" stroke="midnightblue" d="M1580.37,-347.32C1593.79,-338.9 1614.38,-325.97 1630.14,-316.07"/>
<polygon fill="midnightblue" stroke="midnightblue" points="1632.16,-318.94 1638.77,-310.65 1628.44,-313.01 1632.16,-318.94"/>
</g>
<!-- Node41 -->
<g id="node41" class="node">
<title>Node41</title>
<g id="a_node41"><a xlink:title=" ">
<polygon fill="none" stroke="#bfbfbf" points="1669.05,-235.5 1669.05,-254.5 1734.05,-254.5 1734.05,-235.5 1669.05,-235.5"/>
<text text-anchor="middle" x="1701.55" y="-242.5" font-family="Helvetica,sans-Serif" font-size="10.00">exception</text>
</a>
</g>
</g>
<!-- Node40&#45;&gt;Node41 -->
<g id="edge70" class="edge">
<title>Node40&#45;&gt;Node41</title>
<path fill="none" stroke="midnightblue" d="M1660.64,-291.08C1667.71,-283.3 1678.14,-271.8 1686.7,-262.37"/>
<polygon fill="midnightblue" stroke="midnightblue" points="1689.48,-264.51 1693.61,-254.75 1684.3,-259.8 1689.48,-264.51"/>
</g>
<!-- Node42 -->
<g id="node42" class="node">
<title>Node42</title>
<g id="a_node42"><a xlink:title=" ">
<polygon fill="none" stroke="#bfbfbf" points="1600.55,-235.5 1600.55,-254.5 1650.55,-254.5 1650.55,-235.5 1600.55,-235.5"/>
<text text-anchor="middle" x="1625.55" y="-242.5" font-family="Helvetica,sans-Serif" font-size="10.00">stdio.h</text>
</a>
</g>
</g>
<!-- Node40&#45;&gt;Node42 -->
<g id="edge71" class="edge">
<title>Node40&#45;&gt;Node42</title>
<path fill="none" stroke="midnightblue" d="M1648.09,-291.08C1644.4,-283.69 1639.03,-272.95 1634.46,-263.81"/>
<polygon fill="midnightblue" stroke="midnightblue" points="1637.53,-262.13 1629.93,-254.75 1631.27,-265.26 1637.53,-262.13"/>
</g>
</g>
</svg>
