<?xml version="1.0" encoding="UTF-8" standalone="no"?>
<!DOCTYPE svg PUBLIC "-//W3C//DTD SVG 1.1//EN"
 "http://www.w3.org/Graphics/SVG/1.1/DTD/svg11.dtd">
<!-- Generated by graphviz version 2.43.0 (0)
 -->
<!-- Title: extension_base.hpp Pages: 1 -->
<svg width="1792pt" height="487pt"
 viewBox="0.00 0.00 1791.97 487.00" xmlns="http://www.w3.org/2000/svg" xmlns:xlink="http://www.w3.org/1999/xlink">
<g id="graph0" class="graph" transform="scale(1 1) rotate(0) translate(4 483)">
<title>extension_base.hpp</title>
<!-- Node1 -->
<g id="node1" class="node">
<title>Node1</title>
<g id="a_node1"><a xlink:title="The new implementation of the extension system.">
<polygon fill="#bfbfbf" stroke="black" points="960.47,-459.5 960.47,-478.5 1074.47,-478.5 1074.47,-459.5 960.47,-459.5"/>
<text text-anchor="middle" x="1017.47" y="-466.5" font-family="Helvetica,sans-Serif" font-size="10.00">extension_base.hpp</text>
</a>
</g>
</g>
<!-- Node2 -->
<g id="node2" class="node">
<title>Node2</title>
<g id="a_node2"><a xlink:title=" ">
<polygon fill="none" stroke="#bfbfbf" points="1584.47,-118 1584.47,-137 1634.47,-137 1634.47,-118 1584.47,-118"/>
<text text-anchor="middle" x="1609.47" y="-125" font-family="Helvetica,sans-Serif" font-size="10.00">atomic</text>
</a>
</g>
</g>
<!-- Node1&#45;&gt;Node2 -->
<g id="edge1" class="edge">
<title>Node1&#45;&gt;Node2</title>
<path fill="none" stroke="midnightblue" d="M1074.69,-463.19C1221.58,-450.09 1600.47,-411.14 1600.47,-358 1600.47,-358 1600.47,-358 1600.47,-244 1600.47,-209.76 1604.45,-169.98 1607.11,-147.17"/>
<polygon fill="midnightblue" stroke="midnightblue" points="1610.59,-147.52 1608.33,-137.18 1603.65,-146.68 1610.59,-147.52"/>
</g>
<!-- Node3 -->
<g id="node3" class="node">
<title>Node3</title>
<g id="a_node3"><a xlink:title=" ">
<polygon fill="none" stroke="#bfbfbf" points="873.47,-403.5 873.47,-422.5 921.47,-422.5 921.47,-403.5 873.47,-403.5"/>
<text text-anchor="middle" x="897.47" y="-410.5" font-family="Helvetica,sans-Serif" font-size="10.00">thread</text>
</a>
</g>
</g>
<!-- Node1&#45;&gt;Node3 -->
<g id="edge2" class="edge">
<title>Node1&#45;&gt;Node3</title>
<path fill="none" stroke="midnightblue" d="M998.45,-459.44C978.88,-450.64 948.16,-436.81 925.74,-426.72"/>
<polygon fill="midnightblue" stroke="midnightblue" points="926.95,-423.43 916.39,-422.52 924.07,-429.81 926.95,-423.43"/>
</g>
<!-- Node4 -->
<g id="node4" class="node">
<title>Node4</title>
<g id="a_node4"><a xlink:href="cfg__extensions_8hpp.html" target="_top" xlink:title="The header file for the extensions section of the configuration.">
<polygon fill="none" stroke="black" points="939.97,-403.5 939.97,-422.5 1094.97,-422.5 1094.97,-403.5 939.97,-403.5"/>
<text text-anchor="middle" x="1017.47" y="-410.5" font-family="Helvetica,sans-Serif" font-size="10.00">sections/cfg_extensions.hpp</text>
</a>
</g>
</g>
<!-- Node1&#45;&gt;Node4 -->
<g id="edge3" class="edge">
<title>Node1&#45;&gt;Node4</title>
<path fill="none" stroke="midnightblue" d="M1017.47,-459.08C1017.47,-452.01 1017.47,-441.86 1017.47,-432.99"/>
<polygon fill="midnightblue" stroke="midnightblue" points="1020.97,-432.75 1017.47,-422.75 1013.97,-432.75 1020.97,-432.75"/>
</g>
<!-- Node7 -->
<g id="node7" class="node">
<title>Node7</title>
<g id="a_node7"><a xlink:href="shared__data_8hpp.html" target="_top" xlink:title="Contains the SharedData struct, used across all modules and extensions.">
<polygon fill="none" stroke="black" points="713.47,-291.5 713.47,-310.5 811.47,-310.5 811.47,-291.5 713.47,-291.5"/>
<text text-anchor="middle" x="762.47" y="-298.5" font-family="Helvetica,sans-Serif" font-size="10.00">shared_data.hpp</text>
</a>
</g>
</g>
<!-- Node1&#45;&gt;Node7 -->
<g id="edge69" class="edge">
<title>Node1&#45;&gt;Node7</title>
<path fill="none" stroke="midnightblue" d="M960.28,-460.29C904.94,-449.56 823.46,-424.49 781.47,-367 771.61,-353.5 766.84,-334.94 764.55,-321.11"/>
<polygon fill="midnightblue" stroke="midnightblue" points="767.96,-320.26 763.15,-310.82 761.03,-321.2 767.96,-320.26"/>
</g>
<!-- Node36 -->
<g id="node36" class="node">
<title>Node36</title>
<g id="a_node36"><a xlink:href="status__led_8hpp.html" target="_top" xlink:title="RGB Status LED extension header file.">
<polygon fill="none" stroke="black" points="1080.47,-235.5 1080.47,-254.5 1168.47,-254.5 1168.47,-235.5 1080.47,-235.5"/>
<text text-anchor="middle" x="1124.47" y="-242.5" font-family="Helvetica,sans-Serif" font-size="10.00">status_led.hpp</text>
</a>
</g>
</g>
<!-- Node1&#45;&gt;Node36 -->
<g id="edge70" class="edge">
<title>Node1&#45;&gt;Node36</title>
<path fill="none" stroke="midnightblue" d="M1050.4,-459.41C1069.35,-452.7 1091.83,-441.35 1104.47,-423 1138.03,-374.26 1132.59,-299.48 1127.7,-264.83"/>
<polygon fill="midnightblue" stroke="midnightblue" points="1131.12,-264.05 1126.12,-254.71 1124.21,-265.13 1131.12,-264.05"/>
</g>
<!-- Node5 -->
<g id="node5" class="node">
<title>Node5</title>
<g id="a_node5"><a xlink:href="configuration__enums_8hpp.html" target="_top" xlink:title=" ">
<polygon fill="none" stroke="black" points="790.47,-347.5 790.47,-366.5 930.47,-366.5 930.47,-347.5 790.47,-347.5"/>
<text text-anchor="middle" x="860.47" y="-354.5" font-family="Helvetica,sans-Serif" font-size="10.00">configuration_enums.hpp</text>
</a>
</g>
</g>
<!-- Node4&#45;&gt;Node5 -->
<g id="edge4" class="edge">
<title>Node4&#45;&gt;Node5</title>
<path fill="none" stroke="midnightblue" d="M992.59,-403.44C966.18,-394.36 924.25,-379.94 894.72,-369.78"/>
<polygon fill="midnightblue" stroke="midnightblue" points="895.82,-366.46 885.23,-366.52 893.54,-373.08 895.82,-366.46"/>
</g>
<!-- Node6 -->
<g id="node6" class="node">
<title>Node6</title>
<g id="a_node6"><a xlink:href="cfg__section_8hpp.html" target="_top" xlink:title="This file contains the base class for all configuration sections.">
<polygon fill="none" stroke="black" points="948.97,-347.5 948.97,-366.5 1085.97,-366.5 1085.97,-347.5 948.97,-347.5"/>
<text text-anchor="middle" x="1017.47" y="-354.5" font-family="Helvetica,sans-Serif" font-size="10.00">sections/cfg_section.hpp</text>
</a>
</g>
</g>
<!-- Node4&#45;&gt;Node6 -->
<g id="edge5" class="edge">
<title>Node4&#45;&gt;Node6</title>
<path fill="none" stroke="midnightblue" d="M1017.47,-403.08C1017.47,-396.01 1017.47,-385.86 1017.47,-376.99"/>
<polygon fill="midnightblue" stroke="midnightblue" points="1020.97,-376.75 1017.47,-366.75 1013.97,-376.75 1020.97,-376.75"/>
</g>
<!-- Node6&#45;&gt;Node7 -->
<g id="edge6" class="edge">
<title>Node6&#45;&gt;Node7</title>
<path fill="none" stroke="midnightblue" d="M977.06,-347.44C932.48,-338 860.7,-322.8 812.57,-312.61"/>
<polygon fill="midnightblue" stroke="midnightblue" points="813.19,-309.16 802.68,-310.52 811.74,-316.01 813.19,-309.16"/>
</g>
<!-- Node8 -->
<g id="node8" class="node">
<title>Node8</title>
<g id="a_node8"><a xlink:title=" ">
<polygon fill="none" stroke="#bfbfbf" points="337.97,-56.5 337.97,-75.5 462.97,-75.5 462.97,-56.5 337.97,-56.5"/>
<text text-anchor="middle" x="400.47" y="-63.5" font-family="Helvetica,sans-Serif" font-size="10.00">BoosterSeat/clock.hpp</text>
</a>
</g>
</g>
<!-- Node7&#45;&gt;Node8 -->
<g id="edge7" class="edge">
<title>Node7&#45;&gt;Node8</title>
<path fill="none" stroke="midnightblue" d="M713.46,-296.91C556.78,-286.56 75.56,-250.74 30.47,-199 -55.81,-100.01 196.98,-75.25 327.62,-69.06"/>
<polygon fill="midnightblue" stroke="midnightblue" points="328.12,-72.54 337.95,-68.6 327.8,-65.55 328.12,-72.54"/>
</g>
<!-- Node9 -->
<g id="node9" class="node">
<title>Node9</title>
<g id="a_node9"><a xlink:title=" ">
<polygon fill="none" stroke="#bfbfbf" points="92.47,-56.5 92.47,-75.5 214.47,-75.5 214.47,-56.5 92.47,-56.5"/>
<text text-anchor="middle" x="153.47" y="-63.5" font-family="Helvetica,sans-Serif" font-size="10.00">BoosterSeat/time.hpp</text>
</a>
</g>
</g>
<!-- Node7&#45;&gt;Node9 -->
<g id="edge8" class="edge">
<title>Node7&#45;&gt;Node9</title>
<path fill="none" stroke="midnightblue" d="M713.19,-298.85C584.71,-295.49 241.91,-283.98 132.47,-255 76.74,-240.24 46.19,-247.78 15.47,-199 6.06,-184.07 -13.59,-152.86 16.47,-112 31.92,-90.99 57.48,-79.63 82.36,-73.54"/>
<polygon fill="midnightblue" stroke="midnightblue" points="83.19,-76.94 92.21,-71.39 81.7,-70.1 83.19,-76.94"/>
</g>
<!-- Node10 -->
<g id="node10" class="node">
<title>Node10</title>
<g id="a_node10"><a xlink:href="blocks_8hpp.html" target="_top" xlink:title=" ">
<polygon fill="none" stroke="black" points="407.97,-179.5 407.97,-198.5 476.97,-198.5 476.97,-179.5 407.97,-179.5"/>
<text text-anchor="middle" x="442.47" y="-186.5" font-family="Helvetica,sans-Serif" font-size="10.00">blocks.hpp</text>
</a>
</g>
</g>
<!-- Node7&#45;&gt;Node10 -->
<g id="edge9" class="edge">
<title>Node7&#45;&gt;Node10</title>
<path fill="none" stroke="midnightblue" d="M733.92,-291.49C707.08,-283.19 665.98,-269.69 631.47,-255 613.54,-247.37 610.54,-242.27 592.47,-235 557.79,-221.05 517.11,-209.1 486.86,-201.03"/>
<polygon fill="midnightblue" stroke="midnightblue" points="487.59,-197.61 477.03,-198.45 485.81,-204.38 487.59,-197.61"/>
</g>
<!-- Node20 -->
<g id="node20" class="node">
<title>Node20</title>
<g id="a_node20"><a xlink:href="error__frame_8hpp.html" target="_top" xlink:title="The error frame.">
<polygon fill="none" stroke="black" points="928.97,-235.5 928.97,-254.5 1023.97,-254.5 1023.97,-235.5 928.97,-235.5"/>
<text text-anchor="middle" x="976.47" y="-242.5" font-family="Helvetica,sans-Serif" font-size="10.00">error_frame.hpp</text>
</a>
</g>
</g>
<!-- Node7&#45;&gt;Node20 -->
<g id="edge28" class="edge">
<title>Node7&#45;&gt;Node20</title>
<path fill="none" stroke="midnightblue" d="M796.37,-291.44C833.31,-282.12 892.52,-267.18 932.88,-257"/>
<polygon fill="midnightblue" stroke="midnightblue" points="933.88,-260.36 942.71,-254.52 932.16,-253.57 933.88,-260.36"/>
</g>
<!-- Node21 -->
<g id="node21" class="node">
<title>Node21</title>
<g id="a_node21"><a xlink:href="frame_8hpp.html" target="_top" xlink:title=" ">
<polygon fill="none" stroke="black" points="1628.97,-179.5 1628.97,-198.5 1695.97,-198.5 1695.97,-179.5 1628.97,-179.5"/>
<text text-anchor="middle" x="1662.47" y="-186.5" font-family="Helvetica,sans-Serif" font-size="10.00">frame.hpp</text>
</a>
</g>
</g>
<!-- Node7&#45;&gt;Node21 -->
<g id="edge62" class="edge">
<title>Node7&#45;&gt;Node21</title>
<path fill="none" stroke="midnightblue" d="M811.57,-296.59C866.76,-291.67 958.43,-280.24 1033.47,-255 1051.55,-248.91 1053.12,-240.28 1071.47,-235 1174.29,-205.4 1500.1,-194.2 1618.73,-191.03"/>
<polygon fill="midnightblue" stroke="midnightblue" points="1618.98,-194.53 1628.89,-190.77 1618.8,-187.53 1618.98,-194.53"/>
</g>
<!-- Node24 -->
<g id="node24" class="node">
<title>Node24</title>
<g id="a_node24"><a xlink:href="streams_8hpp.html" target="_top" xlink:title="The header file for the data streams.">
<polygon fill="none" stroke="black" points="939.97,-179.5 939.97,-198.5 1016.97,-198.5 1016.97,-179.5 939.97,-179.5"/>
<text text-anchor="middle" x="978.47" y="-186.5" font-family="Helvetica,sans-Serif" font-size="10.00">streams.hpp</text>
</a>
</g>
</g>
<!-- Node7&#45;&gt;Node24 -->
<g id="edge68" class="edge">
<title>Node7&#45;&gt;Node24</title>
<path fill="none" stroke="midnightblue" d="M779.41,-291.37C817.03,-272.21 907.7,-226.04 952.51,-203.22"/>
<polygon fill="midnightblue" stroke="midnightblue" points="954.27,-206.25 961.59,-198.59 951.1,-200.01 954.27,-206.25"/>
</g>
<!-- Node31 -->
<g id="node31" class="node">
<title>Node31</title>
<g id="a_node31"><a xlink:href="flight__data_8hpp.html" target="_top" xlink:title=" ">
<polygon fill="none" stroke="black" points="640.97,-235.5 640.97,-254.5 729.97,-254.5 729.97,-235.5 640.97,-235.5"/>
<text text-anchor="middle" x="685.47" y="-242.5" font-family="Helvetica,sans-Serif" font-size="10.00">flight_data.hpp</text>
</a>
</g>
</g>
<!-- Node7&#45;&gt;Node31 -->
<g id="edge51" class="edge">
<title>Node7&#45;&gt;Node31</title>
<path fill="none" stroke="midnightblue" d="M750.09,-291.32C738.31,-283.06 720.33,-270.45 706.33,-260.63"/>
<polygon fill="midnightblue" stroke="midnightblue" points="708,-257.53 697.81,-254.65 703.98,-263.26 708,-257.53"/>
</g>
<!-- Node32 -->
<g id="node32" class="node">
<title>Node32</title>
<g id="a_node32"><a xlink:href="flight__phase_8hpp.html" target="_top" xlink:title="Contains the flight phase enum and related functions.">
<polygon fill="none" stroke="black" points="713.97,-179.5 713.97,-198.5 810.97,-198.5 810.97,-179.5 713.97,-179.5"/>
<text text-anchor="middle" x="762.47" y="-186.5" font-family="Helvetica,sans-Serif" font-size="10.00">flight_phase.hpp</text>
</a>
</g>
</g>
<!-- Node7&#45;&gt;Node32 -->
<g id="edge61" class="edge">
<title>Node7&#45;&gt;Node32</title>
<path fill="none" stroke="midnightblue" d="M762.47,-291.37C762.47,-273.62 762.47,-232.67 762.47,-208.6"/>
<polygon fill="midnightblue" stroke="midnightblue" points="765.97,-208.59 762.47,-198.59 758.97,-208.59 765.97,-208.59"/>
</g>
<!-- Node34 -->
<g id="node34" class="node">
<title>Node34</title>
<g id="a_node34"><a xlink:href="log__container_8hpp.html" target="_top" xlink:title="A simple logging system for debugging.">
<polygon fill="none" stroke="black" points="480.97,-235.5 480.97,-254.5 583.97,-254.5 583.97,-235.5 480.97,-235.5"/>
<text text-anchor="middle" x="532.47" y="-242.5" font-family="Helvetica,sans-Serif" font-size="10.00">log_container.hpp</text>
</a>
</g>
</g>
<!-- Node7&#45;&gt;Node34 -->
<g id="edge63" class="edge">
<title>Node7&#45;&gt;Node34</title>
<path fill="none" stroke="midnightblue" d="M726.02,-291.44C686.07,-282.06 621.88,-266.99 578.48,-256.8"/>
<polygon fill="midnightblue" stroke="midnightblue" points="579.27,-253.39 568.74,-254.52 577.67,-260.21 579.27,-253.39"/>
</g>
<!-- Node7&#45;&gt;Node36 -->
<g id="edge66" class="edge">
<title>Node7&#45;&gt;Node36</title>
<path fill="none" stroke="midnightblue" d="M811.71,-292.82C871.85,-284.02 976.66,-268.61 1066.47,-255 1067.74,-254.81 1069.03,-254.61 1070.33,-254.41"/>
<polygon fill="midnightblue" stroke="midnightblue" points="1071.1,-257.84 1080.45,-252.86 1070.04,-250.92 1071.1,-257.84"/>
</g>
<!-- Node10&#45;&gt;Node8 -->
<g id="edge11" class="edge">
<title>Node10&#45;&gt;Node8</title>
<path fill="none" stroke="midnightblue" d="M435.9,-179.17C429.71,-170.43 420.64,-156.43 415.47,-143 408.23,-124.22 404.33,-101.42 402.33,-85.72"/>
<polygon fill="midnightblue" stroke="midnightblue" points="405.8,-85.25 401.2,-75.7 398.85,-86.03 405.8,-85.25"/>
</g>
<!-- Node10&#45;&gt;Node9 -->
<g id="edge13" class="edge">
<title>Node10&#45;&gt;Node9</title>
<path fill="none" stroke="midnightblue" d="M407.81,-188.8C359.85,-188.34 272.19,-181.65 210.47,-143 188.03,-128.95 171.32,-102.65 161.98,-84.97"/>
<polygon fill="midnightblue" stroke="midnightblue" points="164.95,-83.09 157.34,-75.72 158.69,-86.23 164.95,-83.09"/>
</g>
<!-- Node10&#45;&gt;Node10 -->
<g id="edge14" class="edge">
<title>Node10&#45;&gt;Node10</title>
<path fill="none" stroke="midnightblue" d="M464.86,-198.53C480.07,-201.31 494.97,-198.13 494.97,-189 494.97,-181.94 486.06,-178.44 474.98,-178.5"/>
<polygon fill="midnightblue" stroke="midnightblue" points="474.48,-175.03 464.86,-179.47 475.15,-182 474.48,-175.03"/>
</g>
<!-- Node11 -->
<g id="node11" class="node">
<title>Node11</title>
<g id="a_node11"><a xlink:title=" ">
<polygon fill="none" stroke="#bfbfbf" points="1372.47,-56.5 1372.47,-75.5 1420.47,-75.5 1420.47,-56.5 1372.47,-56.5"/>
<text text-anchor="middle" x="1396.47" y="-63.5" font-family="Helvetica,sans-Serif" font-size="10.00">mutex</text>
</a>
</g>
</g>
<!-- Node10&#45;&gt;Node11 -->
<g id="edge10" class="edge">
<title>Node10&#45;&gt;Node11</title>
<path fill="none" stroke="midnightblue" d="M477.17,-184.84C496.41,-183.1 520.76,-180.91 542.47,-179 728.21,-162.64 779.19,-186.71 960.47,-143 995.93,-134.45 1001.17,-121.23 1036.47,-112 1153.35,-81.43 1297.2,-71.41 1361.97,-68.3"/>
<polygon fill="midnightblue" stroke="midnightblue" points="1362.21,-71.8 1372.04,-67.85 1361.89,-64.8 1362.21,-71.8"/>
</g>
<!-- Node12 -->
<g id="node12" class="node">
<title>Node12</title>
<g id="a_node12"><a xlink:title=" ">
<polygon fill="none" stroke="#bfbfbf" points="219.97,-118 219.97,-137 362.97,-137 362.97,-118 219.97,-118"/>
<text text-anchor="middle" x="291.47" y="-125" font-family="Helvetica,sans-Serif" font-size="10.00">BoosterSeat/numbers.hpp</text>
</a>
</g>
</g>
<!-- Node10&#45;&gt;Node12 -->
<g id="edge12" class="edge">
<title>Node10&#45;&gt;Node12</title>
<path fill="none" stroke="midnightblue" d="M420.83,-179.48C395.04,-169.31 351.75,-152.26 322.43,-140.7"/>
<polygon fill="midnightblue" stroke="midnightblue" points="323.65,-137.42 313.06,-137.01 321.08,-143.93 323.65,-137.42"/>
</g>
<!-- Node13 -->
<g id="node13" class="node">
<title>Node13</title>
<g id="a_node13"><a xlink:href="json_8hpp.html" target="_top" xlink:title="Simple wrapper around nlohmann/json.hpp to provide a common interface.">
<polygon fill="none" stroke="black" points="599.47,-118 599.47,-137 657.47,-137 657.47,-118 599.47,-118"/>
<text text-anchor="middle" x="628.47" y="-125" font-family="Helvetica,sans-Serif" font-size="10.00">json.hpp</text>
</a>
</g>
</g>
<!-- Node10&#45;&gt;Node13 -->
<g id="edge15" class="edge">
<title>Node10&#45;&gt;Node13</title>
<path fill="none" stroke="midnightblue" d="M472.71,-179.47C502.76,-170.84 550.07,-156.83 590.47,-143 592.72,-142.23 595.04,-141.41 597.37,-140.57"/>
<polygon fill="midnightblue" stroke="midnightblue" points="598.7,-143.8 606.86,-137.04 596.26,-137.24 598.7,-143.8"/>
</g>
<!-- Node16 -->
<g id="node16" class="node">
<title>Node16</title>
<g id="a_node16"><a xlink:href="node_8hpp.html" target="_top" xlink:title="Contains structures that are used to identify components of the flight system.">
<polygon fill="none" stroke="black" points="756.47,-56.5 756.47,-75.5 818.47,-75.5 818.47,-56.5 756.47,-56.5"/>
<text text-anchor="middle" x="787.47" y="-63.5" font-family="Helvetica,sans-Serif" font-size="10.00">node.hpp</text>
</a>
</g>
</g>
<!-- Node10&#45;&gt;Node16 -->
<g id="edge18" class="edge">
<title>Node10&#45;&gt;Node16</title>
<path fill="none" stroke="midnightblue" d="M477.35,-184.94C522.38,-180.1 602.54,-168.5 666.47,-143 705.52,-127.42 745.9,-99.15 768.73,-81.83"/>
<polygon fill="midnightblue" stroke="midnightblue" points="771.07,-84.45 776.85,-75.57 766.8,-78.9 771.07,-84.45"/>
</g>
<!-- Node19 -->
<g id="node19" class="node">
<title>Node19</title>
<g id="a_node19"><a xlink:href="positional_8hpp.html" target="_top" xlink:title="Positional data for the flight system (gps/imu data)">
<polygon fill="none" stroke="black" points="495.47,-118 495.47,-137 581.47,-137 581.47,-118 495.47,-118"/>
<text text-anchor="middle" x="538.47" y="-125" font-family="Helvetica,sans-Serif" font-size="10.00">positional.hpp</text>
</a>
</g>
</g>
<!-- Node10&#45;&gt;Node19 -->
<g id="edge21" class="edge">
<title>Node10&#45;&gt;Node19</title>
<path fill="none" stroke="midnightblue" d="M456.22,-179.48C471.83,-169.8 497.53,-153.87 516.05,-142.39"/>
<polygon fill="midnightblue" stroke="midnightblue" points="518.08,-145.25 524.74,-137.01 514.39,-139.3 518.08,-145.25"/>
</g>
<!-- Node14 -->
<g id="node14" class="node">
<title>Node14</title>
<g id="a_node14"><a xlink:title=" ">
<polygon fill="none" stroke="#bfbfbf" points="566.47,-56.5 566.47,-75.5 676.47,-75.5 676.47,-56.5 566.47,-56.5"/>
<text text-anchor="middle" x="621.47" y="-63.5" font-family="Helvetica,sans-Serif" font-size="10.00">nlohmann/json.hpp</text>
</a>
</g>
</g>
<!-- Node13&#45;&gt;Node14 -->
<g id="edge16" class="edge">
<title>Node13&#45;&gt;Node14</title>
<path fill="none" stroke="midnightblue" d="M627.46,-117.98C626.47,-109.58 624.93,-96.48 623.66,-85.66"/>
<polygon fill="midnightblue" stroke="midnightblue" points="627.11,-85.03 622.47,-75.51 620.16,-85.85 627.11,-85.03"/>
</g>
<!-- Node15 -->
<g id="node15" class="node">
<title>Node15</title>
<g id="a_node15"><a xlink:title=" ">
<polygon fill="none" stroke="#bfbfbf" points="694.47,-56.5 694.47,-75.5 738.47,-75.5 738.47,-56.5 694.47,-56.5"/>
<text text-anchor="middle" x="716.47" y="-63.5" font-family="Helvetica,sans-Serif" font-size="10.00">string</text>
</a>
</g>
</g>
<!-- Node13&#45;&gt;Node15 -->
<g id="edge17" class="edge">
<title>Node13&#45;&gt;Node15</title>
<path fill="none" stroke="midnightblue" d="M641.07,-117.98C655.19,-108.43 678.3,-92.81 695.21,-81.37"/>
<polygon fill="midnightblue" stroke="midnightblue" points="697.56,-84.01 703.88,-75.51 693.64,-78.21 697.56,-84.01"/>
</g>
<!-- Node17 -->
<g id="node17" class="node">
<title>Node17</title>
<g id="a_node17"><a xlink:title=" ">
<polygon fill="none" stroke="#bfbfbf" points="705.47,-0.5 705.47,-19.5 755.47,-19.5 755.47,-0.5 705.47,-0.5"/>
<text text-anchor="middle" x="730.47" y="-7.5" font-family="Helvetica,sans-Serif" font-size="10.00">cstdint</text>
</a>
</g>
</g>
<!-- Node16&#45;&gt;Node17 -->
<g id="edge19" class="edge">
<title>Node16&#45;&gt;Node17</title>
<path fill="none" stroke="midnightblue" d="M778.31,-56.32C769.96,-48.42 757.43,-36.55 747.29,-26.94"/>
<polygon fill="midnightblue" stroke="midnightblue" points="749.46,-24.17 739.79,-19.83 744.64,-29.25 749.46,-24.17"/>
</g>
<!-- Node18 -->
<g id="node18" class="node">
<title>Node18</title>
<g id="a_node18"><a xlink:title=" ">
<polygon fill="none" stroke="#bfbfbf" points="593.47,-0.5 593.47,-19.5 631.47,-19.5 631.47,-0.5 593.47,-0.5"/>
<text text-anchor="middle" x="612.47" y="-7.5" font-family="Helvetica,sans-Serif" font-size="10.00">map</text>
</a>
</g>
</g>
<!-- Node16&#45;&gt;Node18 -->
<g id="edge20" class="edge">
<title>Node16&#45;&gt;Node18</title>
<path fill="none" stroke="midnightblue" d="M759.74,-56.44C727.47,-46.49 674.44,-30.12 641.59,-19.99"/>
<polygon fill="midnightblue" stroke="midnightblue" points="642.27,-16.53 631.69,-16.93 640.21,-23.22 642.27,-16.53"/>
</g>
<!-- Node19&#45;&gt;Node8 -->
<g id="edge26" class="edge">
<title>Node19&#45;&gt;Node8</title>
<path fill="none" stroke="midnightblue" d="M518.69,-117.98C495.33,-107.9 456.25,-91.05 429.46,-79.5"/>
<polygon fill="midnightblue" stroke="midnightblue" points="430.77,-76.25 420.2,-75.51 428,-82.68 430.77,-76.25"/>
</g>
<!-- Node19&#45;&gt;Node9 -->
<g id="edge27" class="edge">
<title>Node19&#45;&gt;Node9</title>
<path fill="none" stroke="midnightblue" d="M495.42,-119.85C428.19,-109.46 297.81,-89.31 218.91,-77.11"/>
<polygon fill="midnightblue" stroke="midnightblue" points="219.02,-73.59 208.6,-75.52 217.95,-80.51 219.02,-73.59"/>
</g>
<!-- Node19&#45;&gt;Node14 -->
<g id="edge25" class="edge">
<title>Node19&#45;&gt;Node14</title>
<path fill="none" stroke="midnightblue" d="M550.36,-117.98C563.67,-108.43 585.47,-92.81 601.42,-81.37"/>
<polygon fill="midnightblue" stroke="midnightblue" points="603.51,-84.18 609.6,-75.51 599.43,-78.49 603.51,-84.18"/>
</g>
<!-- Node19&#45;&gt;Node15 -->
<g id="edge24" class="edge">
<title>Node19&#45;&gt;Node15</title>
<path fill="none" stroke="midnightblue" d="M563.97,-117.98C595.82,-107.33 650.3,-89.12 684.79,-77.59"/>
<polygon fill="midnightblue" stroke="midnightblue" points="686,-80.87 694.38,-74.38 683.78,-74.23 686,-80.87"/>
</g>
<!-- Node19&#45;&gt;Node17 -->
<g id="edge22" class="edge">
<title>Node19&#45;&gt;Node17</title>
<path fill="none" stroke="midnightblue" d="M538.19,-117.77C538.23,-102.93 540.54,-72.78 557.47,-56 576.75,-36.89 650.49,-22.88 695.24,-15.93"/>
<polygon fill="midnightblue" stroke="midnightblue" points="696.03,-19.35 705.4,-14.39 694.99,-12.42 696.03,-19.35"/>
</g>
<!-- Node19&#45;&gt;Node18 -->
<g id="edge23" class="edge">
<title>Node19&#45;&gt;Node18</title>
<path fill="none" stroke="midnightblue" d="M532.92,-117.55C524.96,-103.44 512.48,-75.59 524.47,-56 537.26,-35.09 563.18,-23.5 583.59,-17.35"/>
<polygon fill="midnightblue" stroke="midnightblue" points="584.65,-20.68 593.37,-14.67 582.81,-13.93 584.65,-20.68"/>
</g>
<!-- Node20&#45;&gt;Node8 -->
<g id="edge29" class="edge">
<title>Node20&#45;&gt;Node8</title>
<path fill="none" stroke="midnightblue" d="M960.06,-235.29C932.09,-220.87 873,-192.33 819.47,-179 738.23,-158.77 514.91,-188.24 444.47,-143 423.97,-129.84 411.92,-103.51 405.76,-85.57"/>
<polygon fill="midnightblue" stroke="midnightblue" points="409.06,-84.4 402.72,-75.91 402.38,-86.5 409.06,-84.4"/>
</g>
<!-- Node20&#45;&gt;Node21 -->
<g id="edge30" class="edge">
<title>Node20&#45;&gt;Node21</title>
<path fill="none" stroke="midnightblue" d="M1024.15,-236.72C1028.98,-236.09 1033.82,-235.5 1038.47,-235 1259.96,-210.98 1316.25,-215.06 1538.47,-199 1565.09,-197.07 1594.94,-194.91 1618.68,-193.18"/>
<polygon fill="midnightblue" stroke="midnightblue" points="1619.06,-196.67 1628.78,-192.45 1618.56,-189.68 1619.06,-196.67"/>
</g>
<!-- Node23 -->
<g id="node23" class="node">
<title>Node23</title>
<g id="a_node23"><a xlink:href="giraffe__diagnostic__ids_8hpp.html" target="_top" xlink:title=" ">
<polygon fill="none" stroke="black" points="1424.47,-112.5 1424.47,-142.5 1528.47,-142.5 1528.47,-112.5 1424.47,-112.5"/>
<text text-anchor="start" x="1432.47" y="-130.5" font-family="Helvetica,sans-Serif" font-size="10.00">giraffe_diagnostic</text>
<text text-anchor="middle" x="1476.47" y="-119.5" font-family="Helvetica,sans-Serif" font-size="10.00">_ids.hpp</text>
</a>
</g>
</g>
<!-- Node20&#45;&gt;Node23 -->
<g id="edge33" class="edge">
<title>Node20&#45;&gt;Node23</title>
<path fill="none" stroke="midnightblue" d="M1013.64,-235.41C1098.93,-215.71 1309.39,-167.09 1414.57,-142.8"/>
<polygon fill="midnightblue" stroke="midnightblue" points="1415.45,-146.19 1424.41,-140.52 1413.88,-139.37 1415.45,-146.19"/>
</g>
<!-- Node20&#45;&gt;Node24 -->
<g id="edge34" class="edge">
<title>Node20&#45;&gt;Node24</title>
<path fill="none" stroke="midnightblue" d="M976.8,-235.08C977.06,-228.01 977.43,-217.86 977.76,-208.99"/>
<polygon fill="midnightblue" stroke="midnightblue" points="981.27,-208.87 978.14,-198.75 974.27,-208.61 981.27,-208.87"/>
</g>
<!-- Node21&#45;&gt;Node11 -->
<g id="edge31" class="edge">
<title>Node21&#45;&gt;Node11</title>
<path fill="none" stroke="midnightblue" d="M1663.07,-179.47C1663.68,-163.68 1662.52,-129.86 1643.47,-112 1613.16,-83.6 1491.11,-72.55 1430.69,-68.75"/>
<polygon fill="midnightblue" stroke="midnightblue" points="1430.7,-65.25 1420.51,-68.14 1430.29,-72.23 1430.7,-65.25"/>
</g>
<!-- Node22 -->
<g id="node22" class="node">
<title>Node22</title>
<g id="a_node22"><a xlink:title=" ">
<polygon fill="none" stroke="#bfbfbf" points="1690.97,-118 1690.97,-137 1783.97,-137 1783.97,-118 1690.97,-118"/>
<text text-anchor="middle" x="1737.47" y="-125" font-family="Helvetica,sans-Serif" font-size="10.00">unordered_map</text>
</a>
</g>
</g>
<!-- Node21&#45;&gt;Node22 -->
<g id="edge32" class="edge">
<title>Node21&#45;&gt;Node22</title>
<path fill="none" stroke="midnightblue" d="M1673.21,-179.48C1685.02,-170.11 1704.21,-154.88 1718.55,-143.51"/>
<polygon fill="midnightblue" stroke="midnightblue" points="1721.08,-145.97 1726.74,-137.01 1716.73,-140.48 1721.08,-145.97"/>
</g>
<!-- Node24&#45;&gt;Node2 -->
<g id="edge35" class="edge">
<title>Node24&#45;&gt;Node2</title>
<path fill="none" stroke="midnightblue" d="M1017.27,-186.46C1108.42,-182.5 1343.19,-170.28 1537.47,-143 1549.58,-141.3 1562.72,-138.84 1574.42,-136.42"/>
<polygon fill="midnightblue" stroke="midnightblue" points="1575.21,-139.83 1584.27,-134.34 1573.76,-132.99 1575.21,-139.83"/>
</g>
<!-- Node24&#45;&gt;Node8 -->
<g id="edge40" class="edge">
<title>Node24&#45;&gt;Node8</title>
<path fill="none" stroke="midnightblue" d="M939.73,-185.12C827.24,-176.66 507.21,-151.95 486.47,-143 470.48,-136.1 436.23,-103.19 416.11,-83.01"/>
<polygon fill="midnightblue" stroke="midnightblue" points="418.44,-80.38 408.92,-75.73 413.46,-85.3 418.44,-80.38"/>
</g>
<!-- Node24&#45;&gt;Node11 -->
<g id="edge37" class="edge">
<title>Node24&#45;&gt;Node11</title>
<path fill="none" stroke="midnightblue" d="M1017.16,-186.12C1112.06,-181.16 1350.65,-166.47 1377.47,-143 1393.58,-128.89 1397.06,-103.38 1397.35,-85.83"/>
<polygon fill="midnightblue" stroke="midnightblue" points="1400.85,-85.59 1397.18,-75.65 1393.85,-85.71 1400.85,-85.59"/>
</g>
<!-- Node24&#45;&gt;Node15 -->
<g id="edge39" class="edge">
<title>Node24&#45;&gt;Node15</title>
<path fill="none" stroke="midnightblue" d="M939.79,-181.12C906.69,-174.3 858.36,-162.07 819.47,-143 786.26,-126.73 752.71,-99.5 733.29,-82.44"/>
<polygon fill="midnightblue" stroke="midnightblue" points="735.43,-79.66 725.64,-75.6 730.76,-84.87 735.43,-79.66"/>
</g>
<!-- Node24&#45;&gt;Node16 -->
<g id="edge49" class="edge">
<title>Node24&#45;&gt;Node16</title>
<path fill="none" stroke="midnightblue" d="M941.88,-179.47C916.45,-172.39 882.57,-160.61 856.47,-143 832.78,-127.02 811.7,-101.25 799.25,-84.22"/>
<polygon fill="midnightblue" stroke="midnightblue" points="801.9,-81.91 793.26,-75.77 796.19,-85.96 801.9,-81.91"/>
</g>
<!-- Node24&#45;&gt;Node19 -->
<g id="edge50" class="edge">
<title>Node24&#45;&gt;Node19</title>
<path fill="none" stroke="midnightblue" d="M939.88,-185.53C869.79,-180.61 717.07,-167.83 590.47,-143 585.71,-142.07 580.76,-140.92 575.89,-139.69"/>
<polygon fill="midnightblue" stroke="midnightblue" points="576.63,-136.26 566.07,-137.06 574.83,-143.03 576.63,-136.26"/>
</g>
<!-- Node24&#45;&gt;Node23 -->
<g id="edge48" class="edge">
<title>Node24&#45;&gt;Node23</title>
<path fill="none" stroke="midnightblue" d="M1017.09,-185.44C1092.87,-180.1 1266.23,-166.28 1410.47,-143 1411.74,-142.79 1413.02,-142.58 1414.31,-142.36"/>
<polygon fill="midnightblue" stroke="midnightblue" points="1415.13,-145.77 1424.33,-140.52 1413.86,-138.88 1415.13,-145.77"/>
</g>
<!-- Node25 -->
<g id="node25" class="node">
<title>Node25</title>
<g id="a_node25"><a xlink:title=" ">
<polygon fill="none" stroke="#bfbfbf" points="1308.47,-118 1308.47,-137 1368.47,-137 1368.47,-118 1308.47,-118"/>
<text text-anchor="middle" x="1338.47" y="-125" font-family="Helvetica,sans-Serif" font-size="10.00">iostream</text>
</a>
</g>
</g>
<!-- Node24&#45;&gt;Node25 -->
<g id="edge36" class="edge">
<title>Node24&#45;&gt;Node25</title>
<path fill="none" stroke="midnightblue" d="M1017.18,-185.42C1078.2,-180.73 1200.15,-168.8 1300.47,-143 1303.29,-142.27 1306.18,-141.41 1309.06,-140.46"/>
<polygon fill="midnightblue" stroke="midnightblue" points="1310.39,-143.7 1318.62,-137.04 1308.03,-137.11 1310.39,-143.7"/>
</g>
<!-- Node26 -->
<g id="node26" class="node">
<title>Node26</title>
<g id="a_node26"><a xlink:title=" ">
<polygon fill="none" stroke="#bfbfbf" points="960.97,-56.5 960.97,-75.5 1007.97,-75.5 1007.97,-56.5 960.97,-56.5"/>
<text text-anchor="middle" x="984.47" y="-63.5" font-family="Helvetica,sans-Serif" font-size="10.00">queue</text>
</a>
</g>
</g>
<!-- Node24&#45;&gt;Node26 -->
<g id="edge38" class="edge">
<title>Node24&#45;&gt;Node26</title>
<path fill="none" stroke="midnightblue" d="M978.9,-179.3C979.86,-159.85 982.21,-112.49 983.53,-85.9"/>
<polygon fill="midnightblue" stroke="midnightblue" points="987.04,-85.78 984.04,-75.62 980.05,-85.44 987.04,-85.78"/>
</g>
<!-- Node27 -->
<g id="node27" class="node">
<title>Node27</title>
<g id="a_node27"><a xlink:title=" ">
<polygon fill="none" stroke="#bfbfbf" points="1045.47,-118 1045.47,-137 1193.47,-137 1193.47,-118 1045.47,-118"/>
<text text-anchor="middle" x="1119.47" y="-125" font-family="Helvetica,sans-Serif" font-size="10.00">BoosterSeat/exception.hpp</text>
</a>
</g>
</g>
<!-- Node24&#45;&gt;Node27 -->
<g id="edge41" class="edge">
<title>Node24&#45;&gt;Node27</title>
<path fill="none" stroke="midnightblue" d="M998.67,-179.48C1022.54,-169.4 1062.47,-152.55 1089.84,-141"/>
<polygon fill="midnightblue" stroke="midnightblue" points="1091.45,-144.12 1099.3,-137.01 1088.73,-137.67 1091.45,-144.12"/>
</g>
<!-- Node28 -->
<g id="node28" class="node">
<title>Node28</title>
<g id="a_node28"><a xlink:href="command_8hpp.html" target="_top" xlink:title="The command/queue system for the flight system.">
<polygon fill="none" stroke="black" points="865.47,-118 865.47,-137 951.47,-137 951.47,-118 865.47,-118"/>
<text text-anchor="middle" x="908.47" y="-125" font-family="Helvetica,sans-Serif" font-size="10.00">command.hpp</text>
</a>
</g>
</g>
<!-- Node24&#45;&gt;Node28 -->
<g id="edge42" class="edge">
<title>Node24&#45;&gt;Node28</title>
<path fill="none" stroke="midnightblue" d="M968.44,-179.48C957.42,-170.11 939.51,-154.88 926.12,-143.51"/>
<polygon fill="midnightblue" stroke="midnightblue" points="928.36,-140.82 918.48,-137.01 923.83,-146.15 928.36,-140.82"/>
</g>
<!-- Node30 -->
<g id="node30" class="node">
<title>Node30</title>
<g id="a_node30"><a xlink:href="data__ids_8hpp.html" target="_top" xlink:title=" ">
<polygon fill="none" stroke="black" points="1211.97,-118 1211.97,-137 1290.97,-137 1290.97,-118 1211.97,-118"/>
<text text-anchor="middle" x="1251.47" y="-125" font-family="Helvetica,sans-Serif" font-size="10.00">data_ids.hpp</text>
</a>
</g>
</g>
<!-- Node24&#45;&gt;Node30 -->
<g id="edge47" class="edge">
<title>Node24&#45;&gt;Node30</title>
<path fill="none" stroke="midnightblue" d="M1017.15,-181.32C1061.98,-173.32 1137.98,-158.99 1202.47,-143 1206.33,-142.04 1210.34,-140.98 1214.33,-139.87"/>
<polygon fill="midnightblue" stroke="midnightblue" points="1215.46,-143.18 1224.11,-137.06 1213.54,-136.45 1215.46,-143.18"/>
</g>
<!-- Node28&#45;&gt;Node11 -->
<g id="edge43" class="edge">
<title>Node28&#45;&gt;Node11</title>
<path fill="none" stroke="midnightblue" d="M951.93,-119.52C968.09,-117.01 986.6,-114.25 1003.47,-112 1135.6,-94.36 1293.31,-77.6 1361.84,-70.52"/>
<polygon fill="midnightblue" stroke="midnightblue" points="1362.46,-73.98 1372.05,-69.47 1361.75,-67.02 1362.46,-73.98"/>
</g>
<!-- Node28&#45;&gt;Node16 -->
<g id="edge46" class="edge">
<title>Node28&#45;&gt;Node16</title>
<path fill="none" stroke="midnightblue" d="M891.13,-117.98C870.91,-108.03 837.28,-91.49 813.82,-79.96"/>
<polygon fill="midnightblue" stroke="midnightblue" points="815.29,-76.78 804.77,-75.51 812.2,-83.06 815.29,-76.78"/>
</g>
<!-- Node28&#45;&gt;Node26 -->
<g id="edge44" class="edge">
<title>Node28&#45;&gt;Node26</title>
<path fill="none" stroke="midnightblue" d="M919.35,-117.98C931.43,-108.52 951.13,-93.1 965.71,-81.69"/>
<polygon fill="midnightblue" stroke="midnightblue" points="967.88,-84.43 973.6,-75.51 963.56,-78.92 967.88,-84.43"/>
</g>
<!-- Node29 -->
<g id="node29" class="node">
<title>Node29</title>
<g id="a_node29"><a xlink:href="command__ids_8hpp.html" target="_top" xlink:title=" ">
<polygon fill="none" stroke="black" points="836.47,-56.5 836.47,-75.5 942.47,-75.5 942.47,-56.5 836.47,-56.5"/>
<text text-anchor="middle" x="889.47" y="-63.5" font-family="Helvetica,sans-Serif" font-size="10.00">command_ids.hpp</text>
</a>
</g>
</g>
<!-- Node28&#45;&gt;Node29 -->
<g id="edge45" class="edge">
<title>Node28&#45;&gt;Node29</title>
<path fill="none" stroke="midnightblue" d="M905.74,-117.98C903.03,-109.49 898.79,-96.2 895.32,-85.32"/>
<polygon fill="midnightblue" stroke="midnightblue" points="898.56,-83.97 892.18,-75.51 891.89,-86.1 898.56,-83.97"/>
</g>
<!-- Node31&#45;&gt;Node2 -->
<g id="edge52" class="edge">
<title>Node31&#45;&gt;Node2</title>
<path fill="none" stroke="midnightblue" d="M730.21,-241.89C890.28,-234.27 1426.87,-208.18 1462.47,-199 1509.5,-186.87 1559.53,-159.32 1587.4,-142.48"/>
<polygon fill="midnightblue" stroke="midnightblue" points="1589.28,-145.43 1595.97,-137.21 1585.62,-139.47 1589.28,-145.43"/>
</g>
<!-- Node31&#45;&gt;Node8 -->
<g id="edge54" class="edge">
<title>Node31&#45;&gt;Node8</title>
<path fill="none" stroke="midnightblue" d="M640.87,-238.89C584.13,-231.96 483.32,-218.2 398.47,-199 313.43,-179.76 262.58,-212.9 210.47,-143 176.23,-97.08 260.47,-78.86 327.54,-71.66"/>
<polygon fill="midnightblue" stroke="midnightblue" points="328.12,-75.12 337.72,-70.63 327.42,-68.15 328.12,-75.12"/>
</g>
<!-- Node31&#45;&gt;Node9 -->
<g id="edge55" class="edge">
<title>Node31&#45;&gt;Node9</title>
<path fill="none" stroke="midnightblue" d="M640.76,-239.62C530.06,-228.76 251.8,-201.27 247.47,-199 200.85,-174.6 172.17,-115.39 160.11,-85.27"/>
<polygon fill="midnightblue" stroke="midnightblue" points="163.25,-83.69 156.41,-75.6 156.71,-86.19 163.25,-83.69"/>
</g>
<!-- Node31&#45;&gt;Node13 -->
<g id="edge60" class="edge">
<title>Node31&#45;&gt;Node13</title>
<path fill="none" stroke="midnightblue" d="M640.73,-235.88C603.34,-228.08 554.28,-215.11 542.47,-199 537.21,-191.83 538.05,-186.71 542.47,-179 548.94,-167.69 577.52,-152.23 599.98,-141.4"/>
<polygon fill="midnightblue" stroke="midnightblue" points="601.61,-144.5 609.15,-137.07 598.62,-138.18 601.61,-144.5"/>
</g>
<!-- Node31&#45;&gt;Node15 -->
<g id="edge53" class="edge">
<title>Node31&#45;&gt;Node15</title>
<path fill="none" stroke="midnightblue" d="M686.96,-235.46C691.7,-208.43 706.44,-124.24 713.12,-86.11"/>
<polygon fill="midnightblue" stroke="midnightblue" points="716.63,-86.32 714.91,-75.87 709.74,-85.11 716.63,-86.32"/>
</g>
<!-- Node31&#45;&gt;Node32 -->
<g id="edge56" class="edge">
<title>Node31&#45;&gt;Node32</title>
<path fill="none" stroke="midnightblue" d="M697.84,-235.32C709.62,-227.06 727.6,-214.45 741.6,-204.63"/>
<polygon fill="midnightblue" stroke="midnightblue" points="743.95,-207.26 750.12,-198.65 739.93,-201.53 743.95,-207.26"/>
</g>
<!-- Node33 -->
<g id="node33" class="node">
<title>Node33</title>
<g id="a_node33"><a xlink:href="i__built__in__test_8hpp.html" target="_top" xlink:title=" ">
<polygon fill="none" stroke="black" points="551.47,-179.5 551.47,-198.5 657.47,-198.5 657.47,-179.5 551.47,-179.5"/>
<text text-anchor="middle" x="604.47" y="-186.5" font-family="Helvetica,sans-Serif" font-size="10.00">i_built_in_test.hpp</text>
</a>
</g>
</g>
<!-- Node31&#45;&gt;Node33 -->
<g id="edge58" class="edge">
<title>Node31&#45;&gt;Node33</title>
<path fill="none" stroke="midnightblue" d="M672.45,-235.32C659.93,-226.98 640.78,-214.21 625.99,-204.35"/>
<polygon fill="midnightblue" stroke="midnightblue" points="627.71,-201.29 617.45,-198.65 623.83,-207.11 627.71,-201.29"/>
</g>
<!-- Node32&#45;&gt;Node15 -->
<g id="edge57" class="edge">
<title>Node32&#45;&gt;Node15</title>
<path fill="none" stroke="midnightblue" d="M759.16,-179.3C751.7,-159.68 733.44,-111.64 723.38,-85.19"/>
<polygon fill="midnightblue" stroke="midnightblue" points="726.57,-83.73 719.74,-75.62 720.03,-86.21 726.57,-83.73"/>
</g>
<!-- Node33&#45;&gt;Node13 -->
<g id="edge59" class="edge">
<title>Node33&#45;&gt;Node13</title>
<path fill="none" stroke="midnightblue" d="M607.9,-179.48C611.36,-170.9 616.8,-157.43 621.21,-146.48"/>
<polygon fill="midnightblue" stroke="midnightblue" points="624.54,-147.59 625.03,-137.01 618.05,-144.97 624.54,-147.59"/>
</g>
<!-- Node34&#45;&gt;Node11 -->
<g id="edge65" class="edge">
<title>Node34&#45;&gt;Node11</title>
<path fill="none" stroke="midnightblue" d="M584.19,-239.29C709.79,-227.87 1021,-199.55 1026.47,-199 1083.3,-193.3 1499.34,-185.53 1537.47,-143 1571.85,-104.64 1482.65,-82 1430.71,-72.42"/>
<polygon fill="midnightblue" stroke="midnightblue" points="1431.01,-68.92 1420.56,-70.62 1429.8,-75.81 1431.01,-68.92"/>
</g>
<!-- Node35 -->
<g id="node35" class="node">
<title>Node35</title>
<g id="a_node35"><a xlink:title=" ">
<polygon fill="none" stroke="#bfbfbf" points="39.97,-179.5 39.97,-198.5 86.97,-198.5 86.97,-179.5 39.97,-179.5"/>
<text text-anchor="middle" x="63.47" y="-186.5" font-family="Helvetica,sans-Serif" font-size="10.00">deque</text>
</a>
</g>
</g>
<!-- Node34&#45;&gt;Node35 -->
<g id="edge64" class="edge">
<title>Node34&#45;&gt;Node35</title>
<path fill="none" stroke="midnightblue" d="M480.76,-240.76C399.56,-235.18 237.38,-222.09 101.47,-199 100,-198.75 98.51,-198.48 97.01,-198.19"/>
<polygon fill="midnightblue" stroke="midnightblue" points="97.59,-194.74 87.09,-196.09 96.14,-201.58 97.59,-194.74"/>
</g>
<!-- Node36&#45;&gt;Node2 -->
<g id="edge67" class="edge">
<title>Node36&#45;&gt;Node2</title>
<path fill="none" stroke="midnightblue" d="M1168.64,-242.86C1261.54,-239.88 1473.86,-229.81 1538.47,-199 1563.6,-187.01 1585.1,-162.39 1597.66,-145.66"/>
<polygon fill="midnightblue" stroke="midnightblue" points="1600.67,-147.47 1603.68,-137.31 1594.99,-143.37 1600.67,-147.47"/>
</g>
</g>
</svg>
