<?xml version="1.0" encoding="UTF-8" standalone="no"?>
<!DOCTYPE svg PUBLIC "-//W3C//DTD SVG 1.1//EN"
 "http://www.w3.org/Graphics/SVG/1.1/DTD/svg11.dtd">
<!-- Generated by graphviz version 2.43.0 (0)
 -->
<!-- Title: extension_base.cpp Pages: 1 -->
<svg width="1581pt" height="543pt"
 viewBox="0.00 0.00 1580.93 543.00" xmlns="http://www.w3.org/2000/svg" xmlns:xlink="http://www.w3.org/1999/xlink">
<g id="graph0" class="graph" transform="scale(1 1) rotate(0) translate(4 539)">
<title>extension_base.cpp</title>
<!-- Node1 -->
<g id="node1" class="node">
<title>Node1</title>
<g id="a_node1"><a xlink:title="The new implementation of the extension system.">
<polygon fill="#bfbfbf" stroke="black" points="767.5,-515.5 767.5,-534.5 880.5,-534.5 880.5,-515.5 767.5,-515.5"/>
<text text-anchor="middle" x="824" y="-522.5" font-family="Helvetica,sans-Serif" font-size="10.00">extension_base.cpp</text>
</a>
</g>
</g>
<!-- Node2 -->
<g id="node2" class="node">
<title>Node2</title>
<g id="a_node2"><a xlink:href="extension__base_8hpp.html" target="_top" xlink:title="The new implementation of the extension system.">
<polygon fill="none" stroke="black" points="629,-459.5 629,-478.5 743,-478.5 743,-459.5 629,-459.5"/>
<text text-anchor="middle" x="686" y="-466.5" font-family="Helvetica,sans-Serif" font-size="10.00">extension_base.hpp</text>
</a>
</g>
</g>
<!-- Node1&#45;&gt;Node2 -->
<g id="edge1" class="edge">
<title>Node1&#45;&gt;Node2</title>
<path fill="none" stroke="midnightblue" d="M802.13,-515.44C779.22,-506.48 743.02,-492.31 717.13,-482.18"/>
<polygon fill="midnightblue" stroke="midnightblue" points="718.35,-478.9 707.76,-478.52 715.8,-485.42 718.35,-478.9"/>
</g>
<!-- Node35 -->
<g id="node35" class="node">
<title>Node35</title>
<g id="a_node35"><a xlink:title=" ">
<polygon fill="none" stroke="#bfbfbf" points="761,-459.5 761,-478.5 887,-478.5 887,-459.5 761,-459.5"/>
<text text-anchor="middle" x="824" y="-466.5" font-family="Helvetica,sans-Serif" font-size="10.00">BoosterSeat/sleep.hpp</text>
</a>
</g>
</g>
<!-- Node1&#45;&gt;Node35 -->
<g id="edge59" class="edge">
<title>Node1&#45;&gt;Node35</title>
<path fill="none" stroke="midnightblue" d="M824,-515.08C824,-508.01 824,-497.86 824,-488.99"/>
<polygon fill="midnightblue" stroke="midnightblue" points="827.5,-488.75 824,-478.75 820.5,-488.75 827.5,-488.75"/>
</g>
<!-- Node36 -->
<g id="node36" class="node">
<title>Node36</title>
<g id="a_node36"><a xlink:title=" ">
<polygon fill="none" stroke="#bfbfbf" points="905.5,-459.5 905.5,-478.5 1030.5,-478.5 1030.5,-459.5 905.5,-459.5"/>
<text text-anchor="middle" x="968" y="-466.5" font-family="Helvetica,sans-Serif" font-size="10.00">BoosterSeat/timer.hpp</text>
</a>
</g>
</g>
<!-- Node1&#45;&gt;Node36 -->
<g id="edge60" class="edge">
<title>Node1&#45;&gt;Node36</title>
<path fill="none" stroke="midnightblue" d="M846.82,-515.44C870.83,-506.44 908.83,-492.19 935.87,-482.05"/>
<polygon fill="midnightblue" stroke="midnightblue" points="937.16,-485.3 945.29,-478.52 934.7,-478.75 937.16,-485.3"/>
</g>
<!-- Node3 -->
<g id="node3" class="node">
<title>Node3</title>
<g id="a_node3"><a xlink:title=" ">
<polygon fill="none" stroke="#bfbfbf" points="583,-118 583,-137 633,-137 633,-118 583,-118"/>
<text text-anchor="middle" x="608" y="-125" font-family="Helvetica,sans-Serif" font-size="10.00">atomic</text>
</a>
</g>
</g>
<!-- Node2&#45;&gt;Node3 -->
<g id="edge2" class="edge">
<title>Node2&#45;&gt;Node3</title>
<path fill="none" stroke="midnightblue" d="M628.89,-462.09C567.62,-452.22 479,-426.17 479,-358 479,-358 479,-358 479,-244 479,-192.32 537.19,-157.96 575.4,-140.97"/>
<polygon fill="midnightblue" stroke="midnightblue" points="576.82,-144.17 584.64,-137.02 574.07,-137.73 576.82,-144.17"/>
</g>
<!-- Node4 -->
<g id="node4" class="node">
<title>Node4</title>
<g id="a_node4"><a xlink:title=" ">
<polygon fill="none" stroke="#bfbfbf" points="782,-403.5 782,-422.5 830,-422.5 830,-403.5 782,-403.5"/>
<text text-anchor="middle" x="806" y="-410.5" font-family="Helvetica,sans-Serif" font-size="10.00">thread</text>
</a>
</g>
</g>
<!-- Node2&#45;&gt;Node4 -->
<g id="edge3" class="edge">
<title>Node2&#45;&gt;Node4</title>
<path fill="none" stroke="midnightblue" d="M705.01,-459.44C724.59,-450.64 755.31,-436.81 777.73,-426.72"/>
<polygon fill="midnightblue" stroke="midnightblue" points="779.39,-429.81 787.07,-422.52 776.52,-423.43 779.39,-429.81"/>
</g>
<!-- Node5 -->
<g id="node5" class="node">
<title>Node5</title>
<g id="a_node5"><a xlink:href="giraffe__debug_8hpp.html" target="_top" xlink:title="Debugging utilities for Giraffe.">
<polygon fill="none" stroke="black" points="848,-403.5 848,-422.5 952,-422.5 952,-403.5 848,-403.5"/>
<text text-anchor="middle" x="900" y="-410.5" font-family="Helvetica,sans-Serif" font-size="10.00">giraffe_debug.hpp</text>
</a>
</g>
</g>
<!-- Node2&#45;&gt;Node5 -->
<g id="edge4" class="edge">
<title>Node2&#45;&gt;Node5</title>
<path fill="none" stroke="midnightblue" d="M719.91,-459.44C756.85,-450.12 816.05,-435.18 856.42,-425"/>
<polygon fill="midnightblue" stroke="midnightblue" points="857.41,-428.36 866.25,-422.52 855.7,-421.57 857.41,-428.36"/>
</g>
<!-- Node6 -->
<g id="node6" class="node">
<title>Node6</title>
<g id="a_node6"><a xlink:href="cfg__extensions_8hpp.html" target="_top" xlink:title="The header file for the extensions section of the configuration.">
<polygon fill="none" stroke="black" points="608.5,-403.5 608.5,-422.5 763.5,-422.5 763.5,-403.5 608.5,-403.5"/>
<text text-anchor="middle" x="686" y="-410.5" font-family="Helvetica,sans-Serif" font-size="10.00">sections/cfg_extensions.hpp</text>
</a>
</g>
</g>
<!-- Node2&#45;&gt;Node6 -->
<g id="edge5" class="edge">
<title>Node2&#45;&gt;Node6</title>
<path fill="none" stroke="midnightblue" d="M686,-459.08C686,-452.01 686,-441.86 686,-432.99"/>
<polygon fill="midnightblue" stroke="midnightblue" points="689.5,-432.75 686,-422.75 682.5,-432.75 689.5,-432.75"/>
</g>
<!-- Node9 -->
<g id="node9" class="node">
<title>Node9</title>
<g id="a_node9"><a xlink:href="shared__data_8hpp.html" target="_top" xlink:title="Contains the SharedData struct, used across all modules and extensions.">
<polygon fill="none" stroke="black" points="632,-291.5 632,-310.5 730,-310.5 730,-291.5 632,-291.5"/>
<text text-anchor="middle" x="681" y="-298.5" font-family="Helvetica,sans-Serif" font-size="10.00">shared_data.hpp</text>
</a>
</g>
</g>
<!-- Node2&#45;&gt;Node9 -->
<g id="edge58" class="edge">
<title>Node2&#45;&gt;Node9</title>
<path fill="none" stroke="midnightblue" d="M650.99,-459.45C632.07,-452.84 610.32,-441.59 599,-423 591.21,-410.19 587.09,-372.42 603,-347 612.34,-332.08 628.56,-321.57 643.8,-314.49"/>
<polygon fill="midnightblue" stroke="midnightblue" points="645.27,-317.67 653.09,-310.51 642.52,-311.23 645.27,-317.67"/>
</g>
<!-- Node7 -->
<g id="node7" class="node">
<title>Node7</title>
<g id="a_node7"><a xlink:href="configuration__enums_8hpp.html" target="_top" xlink:title=" ">
<polygon fill="none" stroke="black" points="768,-347.5 768,-366.5 908,-366.5 908,-347.5 768,-347.5"/>
<text text-anchor="middle" x="838" y="-354.5" font-family="Helvetica,sans-Serif" font-size="10.00">configuration_enums.hpp</text>
</a>
</g>
</g>
<!-- Node6&#45;&gt;Node7 -->
<g id="edge6" class="edge">
<title>Node6&#45;&gt;Node7</title>
<path fill="none" stroke="midnightblue" d="M710.08,-403.44C735.54,-394.4 775.89,-380.06 804.46,-369.92"/>
<polygon fill="midnightblue" stroke="midnightblue" points="805.78,-373.16 814.03,-366.52 803.43,-366.57 805.78,-373.16"/>
</g>
<!-- Node8 -->
<g id="node8" class="node">
<title>Node8</title>
<g id="a_node8"><a xlink:href="cfg__section_8hpp.html" target="_top" xlink:title="This file contains the base class for all configuration sections.">
<polygon fill="none" stroke="black" points="612.5,-347.5 612.5,-366.5 749.5,-366.5 749.5,-347.5 612.5,-347.5"/>
<text text-anchor="middle" x="681" y="-354.5" font-family="Helvetica,sans-Serif" font-size="10.00">sections/cfg_section.hpp</text>
</a>
</g>
</g>
<!-- Node6&#45;&gt;Node8 -->
<g id="edge7" class="edge">
<title>Node6&#45;&gt;Node8</title>
<path fill="none" stroke="midnightblue" d="M685.17,-403.08C684.52,-396.01 683.58,-385.86 682.76,-376.99"/>
<polygon fill="midnightblue" stroke="midnightblue" points="686.22,-376.39 681.81,-366.75 679.25,-377.03 686.22,-376.39"/>
</g>
<!-- Node8&#45;&gt;Node9 -->
<g id="edge8" class="edge">
<title>Node8&#45;&gt;Node9</title>
<path fill="none" stroke="midnightblue" d="M681,-347.08C681,-340.01 681,-329.86 681,-320.99"/>
<polygon fill="midnightblue" stroke="midnightblue" points="684.5,-320.75 681,-310.75 677.5,-320.75 684.5,-320.75"/>
</g>
<!-- Node10 -->
<g id="node10" class="node">
<title>Node10</title>
<g id="a_node10"><a xlink:title=" ">
<polygon fill="none" stroke="#bfbfbf" points="491.5,-56.5 491.5,-75.5 616.5,-75.5 616.5,-56.5 491.5,-56.5"/>
<text text-anchor="middle" x="554" y="-63.5" font-family="Helvetica,sans-Serif" font-size="10.00">BoosterSeat/clock.hpp</text>
</a>
</g>
</g>
<!-- Node9&#45;&gt;Node10 -->
<g id="edge9" class="edge">
<title>Node9&#45;&gt;Node10</title>
<path fill="none" stroke="midnightblue" d="M673.58,-291.45C654.3,-268.81 602.19,-204.83 574,-143 565.53,-124.42 560.13,-101.59 557.1,-85.83"/>
<polygon fill="midnightblue" stroke="midnightblue" points="560.51,-84.99 555.31,-75.76 553.62,-86.22 560.51,-84.99"/>
</g>
<!-- Node11 -->
<g id="node11" class="node">
<title>Node11</title>
<g id="a_node11"><a xlink:title=" ">
<polygon fill="none" stroke="#bfbfbf" points="0,-56.5 0,-75.5 122,-75.5 122,-56.5 0,-56.5"/>
<text text-anchor="middle" x="61" y="-63.5" font-family="Helvetica,sans-Serif" font-size="10.00">BoosterSeat/time.hpp</text>
</a>
</g>
</g>
<!-- Node9&#45;&gt;Node11 -->
<g id="edge10" class="edge">
<title>Node9&#45;&gt;Node11</title>
<path fill="none" stroke="midnightblue" d="M633.57,-291.43C588.47,-283.04 518.83,-269.44 459,-255 279.95,-211.79 171.26,-289.79 60,-143 47.58,-126.61 50.65,-102.01 54.96,-85.27"/>
<polygon fill="midnightblue" stroke="midnightblue" points="58.35,-86.15 57.82,-75.57 51.63,-84.17 58.35,-86.15"/>
</g>
<!-- Node12 -->
<g id="node12" class="node">
<title>Node12</title>
<g id="a_node12"><a xlink:href="blocks_8hpp.html" target="_top" xlink:title=" ">
<polygon fill="none" stroke="black" points="349.5,-179.5 349.5,-198.5 418.5,-198.5 418.5,-179.5 349.5,-179.5"/>
<text text-anchor="middle" x="384" y="-186.5" font-family="Helvetica,sans-Serif" font-size="10.00">blocks.hpp</text>
</a>
</g>
</g>
<!-- Node9&#45;&gt;Node12 -->
<g id="edge11" class="edge">
<title>Node9&#45;&gt;Node12</title>
<path fill="none" stroke="midnightblue" d="M633.89,-291.47C597.42,-284.07 546.03,-271.88 503,-255 467.37,-241.02 428.99,-218.58 405.73,-204.06"/>
<polygon fill="midnightblue" stroke="midnightblue" points="407.35,-200.94 397.03,-198.56 403.61,-206.86 407.35,-200.94"/>
</g>
<!-- Node22 -->
<g id="node22" class="node">
<title>Node22</title>
<g id="a_node22"><a xlink:href="error__frame_8hpp.html" target="_top" xlink:title="The error frame.">
<polygon fill="none" stroke="black" points="693.5,-235.5 693.5,-254.5 788.5,-254.5 788.5,-235.5 693.5,-235.5"/>
<text text-anchor="middle" x="741" y="-242.5" font-family="Helvetica,sans-Serif" font-size="10.00">error_frame.hpp</text>
</a>
</g>
</g>
<!-- Node9&#45;&gt;Node22 -->
<g id="edge30" class="edge">
<title>Node9&#45;&gt;Node22</title>
<path fill="none" stroke="midnightblue" d="M690.64,-291.32C699.51,-283.34 712.87,-271.31 723.61,-261.65"/>
<polygon fill="midnightblue" stroke="midnightblue" points="726.09,-264.13 731.18,-254.83 721.41,-258.92 726.09,-264.13"/>
</g>
<!-- Node23 -->
<g id="node23" class="node">
<title>Node23</title>
<g id="a_node23"><a xlink:href="frame_8hpp.html" target="_top" xlink:title=" ">
<polygon fill="none" stroke="black" points="1199.5,-179.5 1199.5,-198.5 1266.5,-198.5 1266.5,-179.5 1199.5,-179.5"/>
<text text-anchor="middle" x="1233" y="-186.5" font-family="Helvetica,sans-Serif" font-size="10.00">frame.hpp</text>
</a>
</g>
</g>
<!-- Node9&#45;&gt;Node23 -->
<g id="edge53" class="edge">
<title>Node9&#45;&gt;Node23</title>
<path fill="none" stroke="midnightblue" d="M723.86,-291.46C826.47,-271.01 1085.42,-219.41 1189.09,-198.75"/>
<polygon fill="midnightblue" stroke="midnightblue" points="1190.09,-202.12 1199.21,-196.73 1188.72,-195.25 1190.09,-202.12"/>
</g>
<!-- Node26 -->
<g id="node26" class="node">
<title>Node26</title>
<g id="a_node26"><a xlink:href="streams_8hpp.html" target="_top" xlink:title="The header file for the data streams.">
<polygon fill="none" stroke="black" points="839.5,-179.5 839.5,-198.5 916.5,-198.5 916.5,-179.5 839.5,-179.5"/>
<text text-anchor="middle" x="878" y="-186.5" font-family="Helvetica,sans-Serif" font-size="10.00">streams.hpp</text>
</a>
</g>
</g>
<!-- Node9&#45;&gt;Node26 -->
<g id="edge57" class="edge">
<title>Node9&#45;&gt;Node26</title>
<path fill="none" stroke="midnightblue" d="M711.02,-291.35C735.38,-283.66 770.12,-271.14 798,-255 822.04,-241.08 846.35,-220.14 861.75,-205.81"/>
<polygon fill="midnightblue" stroke="midnightblue" points="864.49,-208.04 869.34,-198.62 859.67,-202.96 864.49,-208.04"/>
</g>
<!-- Node33 -->
<g id="node33" class="node">
<title>Node33</title>
<g id="a_node33"><a xlink:href="log__container_8hpp.html" target="_top" xlink:title="A simple logging system for debugging.">
<polygon fill="none" stroke="black" points="1275.5,-235.5 1275.5,-254.5 1378.5,-254.5 1378.5,-235.5 1275.5,-235.5"/>
<text text-anchor="middle" x="1327" y="-242.5" font-family="Helvetica,sans-Serif" font-size="10.00">log_container.hpp</text>
</a>
</g>
</g>
<!-- Node9&#45;&gt;Node33 -->
<g id="edge54" class="edge">
<title>Node9&#45;&gt;Node33</title>
<path fill="none" stroke="midnightblue" d="M730.32,-296.06C826.09,-288.38 1043.87,-270.79 1227,-255 1239.4,-253.93 1252.67,-252.76 1265.35,-251.62"/>
<polygon fill="midnightblue" stroke="midnightblue" points="1265.72,-255.1 1275.36,-250.72 1265.09,-248.13 1265.72,-255.1"/>
</g>
<!-- Node12&#45;&gt;Node10 -->
<g id="edge13" class="edge">
<title>Node12&#45;&gt;Node10</title>
<path fill="none" stroke="midnightblue" d="M391.82,-179.16C405.54,-164.03 435.3,-132.79 465,-112 483.31,-99.18 505.78,-87.85 523.57,-79.76"/>
<polygon fill="midnightblue" stroke="midnightblue" points="525.19,-82.87 532.91,-75.61 522.35,-76.47 525.19,-82.87"/>
</g>
<!-- Node12&#45;&gt;Node11 -->
<g id="edge15" class="edge">
<title>Node12&#45;&gt;Node11</title>
<path fill="none" stroke="midnightblue" d="M349.48,-187.56C278.37,-185.94 118.99,-178.34 80,-143 64.13,-128.61 60.6,-103.16 60.23,-85.71"/>
<polygon fill="midnightblue" stroke="midnightblue" points="63.73,-85.63 60.34,-75.59 56.73,-85.55 63.73,-85.63"/>
</g>
<!-- Node12&#45;&gt;Node12 -->
<g id="edge16" class="edge">
<title>Node12&#45;&gt;Node12</title>
<path fill="none" stroke="midnightblue" d="M406.39,-198.53C421.61,-201.31 436.5,-198.13 436.5,-189 436.5,-181.94 427.59,-178.44 416.51,-178.5"/>
<polygon fill="midnightblue" stroke="midnightblue" points="416.01,-175.03 406.39,-179.47 416.68,-182 416.01,-175.03"/>
</g>
<!-- Node13 -->
<g id="node13" class="node">
<title>Node13</title>
<g id="a_node13"><a xlink:title=" ">
<polygon fill="none" stroke="#bfbfbf" points="1409,-56.5 1409,-75.5 1457,-75.5 1457,-56.5 1409,-56.5"/>
<text text-anchor="middle" x="1433" y="-63.5" font-family="Helvetica,sans-Serif" font-size="10.00">mutex</text>
</a>
</g>
</g>
<!-- Node12&#45;&gt;Node13 -->
<g id="edge12" class="edge">
<title>Node12&#45;&gt;Node13</title>
<path fill="none" stroke="midnightblue" d="M417.68,-179.47C446.35,-171.66 488.29,-158.9 523,-143 547.11,-131.95 548.62,-119.71 574,-112 746.8,-59.52 1202.54,-102.81 1398.98,-75.69"/>
<polygon fill="midnightblue" stroke="midnightblue" points="1399.6,-79.14 1408.98,-74.21 1398.58,-72.21 1399.6,-79.14"/>
</g>
<!-- Node14 -->
<g id="node14" class="node">
<title>Node14</title>
<g id="a_node14"><a xlink:title=" ">
<polygon fill="none" stroke="#bfbfbf" points="89.5,-118 89.5,-137 232.5,-137 232.5,-118 89.5,-118"/>
<text text-anchor="middle" x="161" y="-125" font-family="Helvetica,sans-Serif" font-size="10.00">BoosterSeat/numbers.hpp</text>
</a>
</g>
</g>
<!-- Node12&#45;&gt;Node14 -->
<g id="edge14" class="edge">
<title>Node12&#45;&gt;Node14</title>
<path fill="none" stroke="midnightblue" d="M352.05,-179.48C312.8,-169 246.12,-151.21 202.83,-139.66"/>
<polygon fill="midnightblue" stroke="midnightblue" points="203.46,-136.21 192.89,-137.01 201.65,-142.97 203.46,-136.21"/>
</g>
<!-- Node15 -->
<g id="node15" class="node">
<title>Node15</title>
<g id="a_node15"><a xlink:href="json_8hpp.html" target="_top" xlink:title="Simple wrapper around nlohmann/json.hpp to provide a common interface.">
<polygon fill="none" stroke="black" points="251,-118 251,-137 309,-137 309,-118 251,-118"/>
<text text-anchor="middle" x="280" y="-125" font-family="Helvetica,sans-Serif" font-size="10.00">json.hpp</text>
</a>
</g>
</g>
<!-- Node12&#45;&gt;Node15 -->
<g id="edge17" class="edge">
<title>Node12&#45;&gt;Node15</title>
<path fill="none" stroke="midnightblue" d="M369.1,-179.48C352.03,-169.71 323.84,-153.58 303.74,-142.08"/>
<polygon fill="midnightblue" stroke="midnightblue" points="305.29,-138.94 294.87,-137.01 301.81,-145.01 305.29,-138.94"/>
</g>
<!-- Node18 -->
<g id="node18" class="node">
<title>Node18</title>
<g id="a_node18"><a xlink:href="node_8hpp.html" target="_top" xlink:title="Contains structures that are used to identify components of the flight system.">
<polygon fill="none" stroke="black" points="635,-56.5 635,-75.5 697,-75.5 697,-56.5 635,-56.5"/>
<text text-anchor="middle" x="666" y="-63.5" font-family="Helvetica,sans-Serif" font-size="10.00">node.hpp</text>
</a>
</g>
</g>
<!-- Node12&#45;&gt;Node18 -->
<g id="edge20" class="edge">
<title>Node12&#45;&gt;Node18</title>
<path fill="none" stroke="midnightblue" d="M400.24,-179.43C428.45,-164.71 488.52,-134.08 541,-112 570.65,-99.53 605.1,-87.29 630.32,-78.73"/>
<polygon fill="midnightblue" stroke="midnightblue" points="631.48,-82.03 639.84,-75.52 629.24,-75.4 631.48,-82.03"/>
</g>
<!-- Node21 -->
<g id="node21" class="node">
<title>Node21</title>
<g id="a_node21"><a xlink:href="positional_8hpp.html" target="_top" xlink:title="Positional data for the flight system (gps/imu data)">
<polygon fill="none" stroke="black" points="327,-118 327,-137 413,-137 413,-118 327,-118"/>
<text text-anchor="middle" x="370" y="-125" font-family="Helvetica,sans-Serif" font-size="10.00">positional.hpp</text>
</a>
</g>
</g>
<!-- Node12&#45;&gt;Node21 -->
<g id="edge23" class="edge">
<title>Node12&#45;&gt;Node21</title>
<path fill="none" stroke="midnightblue" d="M381.99,-179.48C380,-170.99 376.87,-157.7 374.31,-146.82"/>
<polygon fill="midnightblue" stroke="midnightblue" points="377.7,-145.94 372,-137.01 370.89,-147.54 377.7,-145.94"/>
</g>
<!-- Node16 -->
<g id="node16" class="node">
<title>Node16</title>
<g id="a_node16"><a xlink:title=" ">
<polygon fill="none" stroke="#bfbfbf" points="225,-56.5 225,-75.5 335,-75.5 335,-56.5 225,-56.5"/>
<text text-anchor="middle" x="280" y="-63.5" font-family="Helvetica,sans-Serif" font-size="10.00">nlohmann/json.hpp</text>
</a>
</g>
</g>
<!-- Node15&#45;&gt;Node16 -->
<g id="edge18" class="edge">
<title>Node15&#45;&gt;Node16</title>
<path fill="none" stroke="midnightblue" d="M280,-117.98C280,-109.58 280,-96.48 280,-85.66"/>
<polygon fill="midnightblue" stroke="midnightblue" points="283.5,-85.51 280,-75.51 276.5,-85.51 283.5,-85.51"/>
</g>
<!-- Node17 -->
<g id="node17" class="node">
<title>Node17</title>
<g id="a_node17"><a xlink:title=" ">
<polygon fill="none" stroke="#bfbfbf" points="391,-56.5 391,-75.5 435,-75.5 435,-56.5 391,-56.5"/>
<text text-anchor="middle" x="413" y="-63.5" font-family="Helvetica,sans-Serif" font-size="10.00">string</text>
</a>
</g>
</g>
<!-- Node15&#45;&gt;Node17 -->
<g id="edge19" class="edge">
<title>Node15&#45;&gt;Node17</title>
<path fill="none" stroke="midnightblue" d="M299.06,-117.98C321.47,-107.95 358.91,-91.2 384.71,-79.65"/>
<polygon fill="midnightblue" stroke="midnightblue" points="386.28,-82.79 393.98,-75.51 383.42,-76.4 386.28,-82.79"/>
</g>
<!-- Node19 -->
<g id="node19" class="node">
<title>Node19</title>
<g id="a_node19"><a xlink:title=" ">
<polygon fill="none" stroke="#bfbfbf" points="458,-0.5 458,-19.5 508,-19.5 508,-0.5 458,-0.5"/>
<text text-anchor="middle" x="483" y="-7.5" font-family="Helvetica,sans-Serif" font-size="10.00">cstdint</text>
</a>
</g>
</g>
<!-- Node18&#45;&gt;Node19 -->
<g id="edge21" class="edge">
<title>Node18&#45;&gt;Node19</title>
<path fill="none" stroke="midnightblue" d="M637,-56.44C604.62,-46.89 552.24,-31.43 517.71,-21.24"/>
<polygon fill="midnightblue" stroke="midnightblue" points="518.62,-17.86 508.04,-18.39 516.64,-24.58 518.62,-17.86"/>
</g>
<!-- Node20 -->
<g id="node20" class="node">
<title>Node20</title>
<g id="a_node20"><a xlink:title=" ">
<polygon fill="none" stroke="#bfbfbf" points="545,-0.5 545,-19.5 583,-19.5 583,-0.5 545,-0.5"/>
<text text-anchor="middle" x="564" y="-7.5" font-family="Helvetica,sans-Serif" font-size="10.00">map</text>
</a>
</g>
</g>
<!-- Node18&#45;&gt;Node20 -->
<g id="edge22" class="edge">
<title>Node18&#45;&gt;Node20</title>
<path fill="none" stroke="midnightblue" d="M649.61,-56.32C633.33,-47.7 608.13,-34.36 589.28,-24.39"/>
<polygon fill="midnightblue" stroke="midnightblue" points="590.82,-21.24 580.35,-19.65 587.55,-27.43 590.82,-21.24"/>
</g>
<!-- Node21&#45;&gt;Node10 -->
<g id="edge28" class="edge">
<title>Node21&#45;&gt;Node10</title>
<path fill="none" stroke="midnightblue" d="M396.36,-117.98C428.34,-107.64 482.38,-90.16 518.12,-78.6"/>
<polygon fill="midnightblue" stroke="midnightblue" points="519.25,-81.92 527.69,-75.51 517.09,-75.26 519.25,-81.92"/>
</g>
<!-- Node21&#45;&gt;Node11 -->
<g id="edge29" class="edge">
<title>Node21&#45;&gt;Node11</title>
<path fill="none" stroke="midnightblue" d="M341.25,-117.94C333.72,-115.85 325.59,-113.72 318,-112 254.53,-97.63 181.35,-85.22 129.36,-77.09"/>
<polygon fill="midnightblue" stroke="midnightblue" points="129.67,-73.6 119.25,-75.52 128.6,-80.51 129.67,-73.6"/>
</g>
<!-- Node21&#45;&gt;Node16 -->
<g id="edge27" class="edge">
<title>Node21&#45;&gt;Node16</title>
<path fill="none" stroke="midnightblue" d="M357.11,-117.98C342.54,-108.34 318.6,-92.52 301.25,-81.05"/>
<polygon fill="midnightblue" stroke="midnightblue" points="303.14,-78.1 292.87,-75.51 299.28,-83.94 303.14,-78.1"/>
</g>
<!-- Node21&#45;&gt;Node17 -->
<g id="edge26" class="edge">
<title>Node21&#45;&gt;Node17</title>
<path fill="none" stroke="midnightblue" d="M376.16,-117.98C382.61,-109.05 392.9,-94.81 400.97,-83.64"/>
<polygon fill="midnightblue" stroke="midnightblue" points="403.83,-85.66 406.85,-75.51 398.16,-81.56 403.83,-85.66"/>
</g>
<!-- Node21&#45;&gt;Node19 -->
<g id="edge24" class="edge">
<title>Node21&#45;&gt;Node19</title>
<path fill="none" stroke="midnightblue" d="M369.02,-117.66C367.92,-103.19 367.84,-74.24 382,-56 398.03,-35.36 425.57,-23.94 447.85,-17.78"/>
<polygon fill="midnightblue" stroke="midnightblue" points="448.82,-21.15 457.66,-15.3 447.11,-14.36 448.82,-21.15"/>
</g>
<!-- Node21&#45;&gt;Node20 -->
<g id="edge25" class="edge">
<title>Node21&#45;&gt;Node20</title>
<path fill="none" stroke="midnightblue" d="M382.95,-117.99C403.65,-104.48 445.56,-77.44 482,-56 500.84,-44.92 522.53,-33.05 538.87,-24.29"/>
<polygon fill="midnightblue" stroke="midnightblue" points="540.64,-27.31 547.81,-19.51 537.34,-21.13 540.64,-27.31"/>
</g>
<!-- Node22&#45;&gt;Node10 -->
<g id="edge31" class="edge">
<title>Node22&#45;&gt;Node10</title>
<path fill="none" stroke="midnightblue" d="M736.31,-235.21C723.74,-212.32 687.13,-150.02 642,-112 625.61,-98.2 604.27,-87.15 586.71,-79.46"/>
<polygon fill="midnightblue" stroke="midnightblue" points="587.97,-76.19 577.4,-75.53 585.26,-82.64 587.97,-76.19"/>
</g>
<!-- Node22&#45;&gt;Node23 -->
<g id="edge32" class="edge">
<title>Node22&#45;&gt;Node23</title>
<path fill="none" stroke="midnightblue" d="M788.62,-238.77C883.94,-228.31 1096.93,-204.93 1189.1,-194.82"/>
<polygon fill="midnightblue" stroke="midnightblue" points="1189.65,-198.28 1199.2,-193.71 1188.88,-191.32 1189.65,-198.28"/>
</g>
<!-- Node25 -->
<g id="node25" class="node">
<title>Node25</title>
<g id="a_node25"><a xlink:href="giraffe__diagnostic__ids_8hpp.html" target="_top" xlink:title=" ">
<polygon fill="none" stroke="black" points="689,-112.5 689,-142.5 793,-142.5 793,-112.5 689,-112.5"/>
<text text-anchor="start" x="697" y="-130.5" font-family="Helvetica,sans-Serif" font-size="10.00">giraffe_diagnostic</text>
<text text-anchor="middle" x="741" y="-119.5" font-family="Helvetica,sans-Serif" font-size="10.00">_ids.hpp</text>
</a>
</g>
</g>
<!-- Node22&#45;&gt;Node25 -->
<g id="edge35" class="edge">
<title>Node22&#45;&gt;Node25</title>
<path fill="none" stroke="midnightblue" d="M741,-235.32C741,-217.97 741,-178.46 741,-152.66"/>
<polygon fill="midnightblue" stroke="midnightblue" points="744.5,-152.55 741,-142.55 737.5,-152.55 744.5,-152.55"/>
</g>
<!-- Node22&#45;&gt;Node26 -->
<g id="edge36" class="edge">
<title>Node22&#45;&gt;Node26</title>
<path fill="none" stroke="midnightblue" d="M762.71,-235.44C785.35,-226.52 821.07,-212.44 846.75,-202.32"/>
<polygon fill="midnightblue" stroke="midnightblue" points="848.37,-205.44 856.39,-198.52 845.81,-198.93 848.37,-205.44"/>
</g>
<!-- Node23&#45;&gt;Node13 -->
<g id="edge33" class="edge">
<title>Node23&#45;&gt;Node13</title>
<path fill="none" stroke="midnightblue" d="M1266.78,-183.07C1275.94,-181.74 1285.85,-180.31 1295,-179 1351.65,-170.89 1512.47,-186.2 1550,-143 1559.04,-132.6 1557.8,-123.36 1550,-112 1531.54,-85.12 1494.6,-74.29 1467.14,-69.93"/>
<polygon fill="midnightblue" stroke="midnightblue" points="1467.52,-66.45 1457.14,-68.55 1466.57,-73.38 1467.52,-66.45"/>
</g>
<!-- Node24 -->
<g id="node24" class="node">
<title>Node24</title>
<g id="a_node24"><a xlink:title=" ">
<polygon fill="none" stroke="#bfbfbf" points="1447.5,-118 1447.5,-137 1540.5,-137 1540.5,-118 1447.5,-118"/>
<text text-anchor="middle" x="1494" y="-125" font-family="Helvetica,sans-Serif" font-size="10.00">unordered_map</text>
</a>
</g>
</g>
<!-- Node23&#45;&gt;Node24 -->
<g id="edge34" class="edge">
<title>Node23&#45;&gt;Node24</title>
<path fill="none" stroke="midnightblue" d="M1266.65,-180.56C1306.41,-171.74 1374.57,-156.52 1433,-143 1438.04,-141.83 1443.31,-140.6 1448.56,-139.37"/>
<polygon fill="midnightblue" stroke="midnightblue" points="1449.61,-142.71 1458.54,-137.01 1448,-135.9 1449.61,-142.71"/>
</g>
<!-- Node26&#45;&gt;Node3 -->
<g id="edge37" class="edge">
<title>Node26&#45;&gt;Node3</title>
<path fill="none" stroke="midnightblue" d="M839.32,-179.48C786.8,-167.9 693.69,-147.38 643.1,-136.23"/>
<polygon fill="midnightblue" stroke="midnightblue" points="643.79,-132.8 633.27,-134.07 642.29,-139.64 643.79,-132.8"/>
</g>
<!-- Node26&#45;&gt;Node10 -->
<g id="edge42" class="edge">
<title>Node26&#45;&gt;Node10</title>
<path fill="none" stroke="midnightblue" d="M875.76,-179.24C871.14,-163.06 858.9,-128.61 835,-112 826.42,-106.03 706.34,-88.29 625.96,-76.94"/>
<polygon fill="midnightblue" stroke="midnightblue" points="626.27,-73.45 615.88,-75.52 625.29,-80.38 626.27,-73.45"/>
</g>
<!-- Node26&#45;&gt;Node13 -->
<g id="edge39" class="edge">
<title>Node26&#45;&gt;Node13</title>
<path fill="none" stroke="midnightblue" d="M916.64,-186.43C1027.51,-181.68 1341.24,-166.3 1381,-143 1403.14,-130.03 1417.96,-103.45 1425.93,-85.42"/>
<polygon fill="midnightblue" stroke="midnightblue" points="1429.26,-86.54 1429.84,-75.97 1422.79,-83.87 1429.26,-86.54"/>
</g>
<!-- Node26&#45;&gt;Node17 -->
<g id="edge41" class="edge">
<title>Node26&#45;&gt;Node17</title>
<path fill="none" stroke="midnightblue" d="M869.57,-179.26C850.67,-159.73 806.22,-114.03 802,-112 673.05,-49.91 624.08,-93.26 482,-76 469.97,-74.54 456.78,-72.84 445.18,-71.32"/>
<polygon fill="midnightblue" stroke="midnightblue" points="445.42,-67.82 435.05,-69.98 444.51,-74.76 445.42,-67.82"/>
</g>
<!-- Node26&#45;&gt;Node18 -->
<g id="edge51" class="edge">
<title>Node26&#45;&gt;Node18</title>
<path fill="none" stroke="midnightblue" d="M880.44,-179.25C884.21,-163.68 889.4,-131.03 873,-112 851.8,-87.4 761.33,-75.32 707.25,-70.2"/>
<polygon fill="midnightblue" stroke="midnightblue" points="707.56,-66.71 697.28,-69.29 706.92,-73.68 707.56,-66.71"/>
</g>
<!-- Node26&#45;&gt;Node21 -->
<g id="edge52" class="edge">
<title>Node26&#45;&gt;Node21</title>
<path fill="none" stroke="midnightblue" d="M839.4,-183.48C749.52,-172.95 526.12,-146.79 423.32,-134.75"/>
<polygon fill="midnightblue" stroke="midnightblue" points="423.5,-131.24 413.16,-133.56 422.69,-138.2 423.5,-131.24"/>
</g>
<!-- Node26&#45;&gt;Node25 -->
<g id="edge50" class="edge">
<title>Node26&#45;&gt;Node25</title>
<path fill="none" stroke="midnightblue" d="M858.37,-179.48C838.69,-170.93 807.78,-157.5 782.61,-146.57"/>
<polygon fill="midnightblue" stroke="midnightblue" points="783.85,-143.3 773.29,-142.52 781.07,-149.72 783.85,-143.3"/>
</g>
<!-- Node27 -->
<g id="node27" class="node">
<title>Node27</title>
<g id="a_node27"><a xlink:title=" ">
<polygon fill="none" stroke="#bfbfbf" points="925,-118 925,-137 985,-137 985,-118 925,-118"/>
<text text-anchor="middle" x="955" y="-125" font-family="Helvetica,sans-Serif" font-size="10.00">iostream</text>
</a>
</g>
</g>
<!-- Node26&#45;&gt;Node27 -->
<g id="edge38" class="edge">
<title>Node26&#45;&gt;Node27</title>
<path fill="none" stroke="midnightblue" d="M889.03,-179.48C901.27,-170.02 921.23,-154.6 935.99,-143.19"/>
<polygon fill="midnightblue" stroke="midnightblue" points="938.22,-145.89 943.99,-137.01 933.94,-140.35 938.22,-145.89"/>
</g>
<!-- Node28 -->
<g id="node28" class="node">
<title>Node28</title>
<g id="a_node28"><a xlink:title=" ">
<polygon fill="none" stroke="#bfbfbf" points="1343.5,-56.5 1343.5,-75.5 1390.5,-75.5 1390.5,-56.5 1343.5,-56.5"/>
<text text-anchor="middle" x="1367" y="-63.5" font-family="Helvetica,sans-Serif" font-size="10.00">queue</text>
</a>
</g>
</g>
<!-- Node26&#45;&gt;Node28 -->
<g id="edge40" class="edge">
<title>Node26&#45;&gt;Node28</title>
<path fill="none" stroke="midnightblue" d="M916.66,-187.23C1025.93,-184.67 1331.13,-174.71 1362,-143 1376.45,-128.15 1375.09,-103.01 1371.85,-85.74"/>
<polygon fill="midnightblue" stroke="midnightblue" points="1375.21,-84.7 1369.6,-75.71 1368.38,-86.23 1375.21,-84.7"/>
</g>
<!-- Node29 -->
<g id="node29" class="node">
<title>Node29</title>
<g id="a_node29"><a xlink:title=" ">
<polygon fill="none" stroke="#bfbfbf" points="1003,-118 1003,-137 1151,-137 1151,-118 1003,-118"/>
<text text-anchor="middle" x="1077" y="-125" font-family="Helvetica,sans-Serif" font-size="10.00">BoosterSeat/exception.hpp</text>
</a>
</g>
</g>
<!-- Node26&#45;&gt;Node29 -->
<g id="edge43" class="edge">
<title>Node26&#45;&gt;Node29</title>
<path fill="none" stroke="midnightblue" d="M906.51,-179.48C941.24,-169.09 1000.04,-151.51 1038.69,-139.95"/>
<polygon fill="midnightblue" stroke="midnightblue" points="1039.96,-143.23 1048.54,-137.01 1037.96,-136.52 1039.96,-143.23"/>
</g>
<!-- Node30 -->
<g id="node30" class="node">
<title>Node30</title>
<g id="a_node30"><a xlink:href="command_8hpp.html" target="_top" xlink:title="The command/queue system for the flight system.">
<polygon fill="none" stroke="black" points="1267,-118 1267,-137 1353,-137 1353,-118 1267,-118"/>
<text text-anchor="middle" x="1310" y="-125" font-family="Helvetica,sans-Serif" font-size="10.00">command.hpp</text>
</a>
</g>
</g>
<!-- Node26&#45;&gt;Node30 -->
<g id="edge44" class="edge">
<title>Node26&#45;&gt;Node30</title>
<path fill="none" stroke="midnightblue" d="M916.6,-185.4C985.61,-180.32 1134.49,-167.38 1258,-143 1262.75,-142.06 1267.7,-140.91 1272.58,-139.67"/>
<polygon fill="midnightblue" stroke="midnightblue" points="1273.64,-143.01 1282.39,-137.05 1271.83,-136.25 1273.64,-143.01"/>
</g>
<!-- Node32 -->
<g id="node32" class="node">
<title>Node32</title>
<g id="a_node32"><a xlink:href="data__ids_8hpp.html" target="_top" xlink:title=" ">
<polygon fill="none" stroke="black" points="1169.5,-118 1169.5,-137 1248.5,-137 1248.5,-118 1169.5,-118"/>
<text text-anchor="middle" x="1209" y="-125" font-family="Helvetica,sans-Serif" font-size="10.00">data_ids.hpp</text>
</a>
</g>
</g>
<!-- Node26&#45;&gt;Node32 -->
<g id="edge49" class="edge">
<title>Node26&#45;&gt;Node32</title>
<path fill="none" stroke="midnightblue" d="M916.62,-183.45C971.22,-176.65 1073.94,-162.51 1160,-143 1164.14,-142.06 1168.44,-140.97 1172.7,-139.81"/>
<polygon fill="midnightblue" stroke="midnightblue" points="1173.8,-143.14 1182.46,-137.03 1171.89,-136.4 1173.8,-143.14"/>
</g>
<!-- Node30&#45;&gt;Node13 -->
<g id="edge45" class="edge">
<title>Node30&#45;&gt;Node13</title>
<path fill="none" stroke="midnightblue" d="M1327.62,-117.98C1348.17,-108.03 1382.36,-91.49 1406.21,-79.96"/>
<polygon fill="midnightblue" stroke="midnightblue" points="1407.93,-83.01 1415.41,-75.51 1404.88,-76.71 1407.93,-83.01"/>
</g>
<!-- Node30&#45;&gt;Node18 -->
<g id="edge48" class="edge">
<title>Node30&#45;&gt;Node18</title>
<path fill="none" stroke="midnightblue" d="M1283.24,-117.96C1275.2,-115.68 1266.31,-113.46 1258,-112 1053.49,-76.07 804.26,-68.82 707.33,-67.37"/>
<polygon fill="midnightblue" stroke="midnightblue" points="707.13,-63.86 697.08,-67.22 707.03,-70.86 707.13,-63.86"/>
</g>
<!-- Node30&#45;&gt;Node28 -->
<g id="edge46" class="edge">
<title>Node30&#45;&gt;Node28</title>
<path fill="none" stroke="midnightblue" d="M1318.17,-117.98C1326.89,-108.87 1340.9,-94.24 1351.69,-82.98"/>
<polygon fill="midnightblue" stroke="midnightblue" points="1354.46,-85.15 1358.85,-75.51 1349.4,-80.31 1354.46,-85.15"/>
</g>
<!-- Node31 -->
<g id="node31" class="node">
<title>Node31</title>
<g id="a_node31"><a xlink:href="command__ids_8hpp.html" target="_top" xlink:title=" ">
<polygon fill="none" stroke="black" points="1219,-56.5 1219,-75.5 1325,-75.5 1325,-56.5 1219,-56.5"/>
<text text-anchor="middle" x="1272" y="-63.5" font-family="Helvetica,sans-Serif" font-size="10.00">command_ids.hpp</text>
</a>
</g>
</g>
<!-- Node30&#45;&gt;Node31 -->
<g id="edge47" class="edge">
<title>Node30&#45;&gt;Node31</title>
<path fill="none" stroke="midnightblue" d="M1304.56,-117.98C1298.91,-109.14 1289.94,-95.09 1282.84,-83.98"/>
<polygon fill="midnightblue" stroke="midnightblue" points="1285.77,-82.05 1277.43,-75.51 1279.87,-85.82 1285.77,-82.05"/>
</g>
<!-- Node33&#45;&gt;Node13 -->
<g id="edge56" class="edge">
<title>Node33&#45;&gt;Node13</title>
<path fill="none" stroke="midnightblue" d="M1378.71,-238.67C1435.83,-229.71 1525.23,-205.89 1567,-143 1574.62,-131.52 1575.04,-123.19 1567,-112 1544.47,-80.67 1499.07,-70.85 1467.39,-67.94"/>
<polygon fill="midnightblue" stroke="midnightblue" points="1467.46,-64.43 1457.23,-67.19 1466.94,-71.41 1467.46,-64.43"/>
</g>
<!-- Node34 -->
<g id="node34" class="node">
<title>Node34</title>
<g id="a_node34"><a xlink:title=" ">
<polygon fill="none" stroke="#bfbfbf" points="1303.5,-179.5 1303.5,-198.5 1350.5,-198.5 1350.5,-179.5 1303.5,-179.5"/>
<text text-anchor="middle" x="1327" y="-186.5" font-family="Helvetica,sans-Serif" font-size="10.00">deque</text>
</a>
</g>
</g>
<!-- Node33&#45;&gt;Node34 -->
<g id="edge55" class="edge">
<title>Node33&#45;&gt;Node34</title>
<path fill="none" stroke="midnightblue" d="M1327,-235.08C1327,-228.01 1327,-217.86 1327,-208.99"/>
<polygon fill="midnightblue" stroke="midnightblue" points="1330.5,-208.75 1327,-198.75 1323.5,-208.75 1330.5,-208.75"/>
</g>
</g>
</svg>
