<?xml version="1.0" encoding="UTF-8" standalone="no"?>
<!DOCTYPE svg PUBLIC "-//W3C//DTD SVG 1.1//EN"
 "http://www.w3.org/Graphics/SVG/1.1/DTD/svg11.dtd">
<!-- Generated by graphviz version 2.43.0 (0)
 -->
<!-- Title: flight_data.hpp Pages: 1 -->
<svg width="3482pt" height="431pt"
 viewBox="0.00 0.00 3482.00 431.00" xmlns="http://www.w3.org/2000/svg" xmlns:xlink="http://www.w3.org/1999/xlink">
<g id="graph0" class="graph" transform="scale(1 1) rotate(0) translate(4 427)">
<title>flight_data.hpp</title>
<!-- Node1 -->
<g id="node1" class="node">
<title>Node1</title>
<g id="a_node1"><a xlink:title=" ">
<polygon fill="#bfbfbf" stroke="black" points="2991.5,-403.5 2991.5,-422.5 3080.5,-422.5 3080.5,-403.5 2991.5,-403.5"/>
<text text-anchor="middle" x="3036" y="-410.5" font-family="Helvetica,sans-Serif" font-size="10.00">flight_data.hpp</text>
</a>
</g>
</g>
<!-- Node2 -->
<g id="node2" class="node">
<title>Node2</title>
<g id="a_node2"><a xlink:href="flight__phase__manager_8hpp.html" target="_top" xlink:title=" ">
<polygon fill="none" stroke="black" points="2721.5,-112.5 2721.5,-131.5 2866.5,-131.5 2866.5,-112.5 2721.5,-112.5"/>
<text text-anchor="middle" x="2794" y="-119.5" font-family="Helvetica,sans-Serif" font-size="10.00">flight_phase_manager.hpp</text>
</a>
</g>
</g>
<!-- Node1&#45;&gt;Node2 -->
<g id="edge1" class="edge">
<title>Node1&#45;&gt;Node2</title>
<path fill="none" stroke="midnightblue" d="M3091.05,-409.69C3208.7,-403.26 3474,-380.1 3474,-302 3474,-302 3474,-302 3474,-238.5 3474,-177.43 3042.19,-140.35 2866.77,-127.8"/>
<polygon fill="midnightblue" stroke="midnightblue" points="3090.62,-406.21 3080.82,-410.23 3090.99,-413.2 3090.62,-406.21"/>
</g>
<!-- Node8 -->
<g id="node8" class="node">
<title>Node8</title>
<g id="a_node8"><a xlink:href="shared__data_8hpp.html" target="_top" xlink:title="Contains the SharedData struct, used across all modules and extensions.">
<polygon fill="none" stroke="black" points="2569,-347.5 2569,-366.5 2667,-366.5 2667,-347.5 2569,-347.5"/>
<text text-anchor="middle" x="2618" y="-354.5" font-family="Helvetica,sans-Serif" font-size="10.00">shared_data.hpp</text>
</a>
</g>
</g>
<!-- Node1&#45;&gt;Node8 -->
<g id="edge7" class="edge">
<title>Node1&#45;&gt;Node8</title>
<path fill="none" stroke="midnightblue" d="M2981.15,-404.91C2899.14,-394.32 2745.84,-374.52 2667.24,-364.36"/>
<polygon fill="midnightblue" stroke="midnightblue" points="2980.9,-408.41 2991.27,-406.22 2981.8,-401.47 2980.9,-408.41"/>
</g>
<!-- Node3 -->
<g id="node3" class="node">
<title>Node3</title>
<g id="a_node3"><a xlink:href="flight__runner_8hpp.html" target="_top" xlink:title="The main class for the flight system.">
<polygon fill="none" stroke="black" points="1829,-56.5 1829,-75.5 1927,-75.5 1927,-56.5 1829,-56.5"/>
<text text-anchor="middle" x="1878" y="-63.5" font-family="Helvetica,sans-Serif" font-size="10.00">flight_runner.hpp</text>
</a>
</g>
</g>
<!-- Node2&#45;&gt;Node3 -->
<g id="edge2" class="edge">
<title>Node2&#45;&gt;Node3</title>
<path fill="none" stroke="midnightblue" d="M2711.34,-116.13C2524.91,-105.14 2076.4,-78.7 1927.2,-69.9"/>
<polygon fill="midnightblue" stroke="midnightblue" points="2711.17,-119.62 2721.36,-116.72 2711.58,-112.64 2711.17,-119.62"/>
</g>
<!-- Node7 -->
<g id="node7" class="node">
<title>Node7</title>
<g id="a_node7"><a xlink:href="test__flight__phase__manager_8cpp.html" target="_top" xlink:title=" ">
<polygon fill="none" stroke="black" points="2760,-56.5 2760,-75.5 2928,-75.5 2928,-56.5 2760,-56.5"/>
<text text-anchor="middle" x="2844" y="-63.5" font-family="Helvetica,sans-Serif" font-size="10.00">test_flight_phase_manager.cpp</text>
</a>
</g>
</g>
<!-- Node2&#45;&gt;Node7 -->
<g id="edge6" class="edge">
<title>Node2&#45;&gt;Node7</title>
<path fill="none" stroke="midnightblue" d="M2809.08,-104.72C2817.89,-95.2 2828.67,-83.56 2835.9,-75.75"/>
<polygon fill="midnightblue" stroke="midnightblue" points="2806.48,-102.37 2802.26,-112.08 2811.62,-107.12 2806.48,-102.37"/>
</g>
<!-- Node4 -->
<g id="node4" class="node">
<title>Node4</title>
<g id="a_node4"><a xlink:href="flight__logic_8cpp.html" target="_top" xlink:title="The implementation of the flight logic within the flight runner.">
<polygon fill="none" stroke="black" points="1721,-0.5 1721,-19.5 1811,-19.5 1811,-0.5 1721,-0.5"/>
<text text-anchor="middle" x="1766" y="-7.5" font-family="Helvetica,sans-Serif" font-size="10.00">flight_logic.cpp</text>
</a>
</g>
</g>
<!-- Node3&#45;&gt;Node4 -->
<g id="edge3" class="edge">
<title>Node3&#45;&gt;Node4</title>
<path fill="none" stroke="midnightblue" d="M1850.75,-51.86C1829.98,-41.85 1801.98,-28.35 1783.95,-19.65"/>
<polygon fill="midnightblue" stroke="midnightblue" points="1849.48,-55.13 1860.01,-56.32 1852.52,-48.83 1849.48,-55.13"/>
</g>
<!-- Node5 -->
<g id="node5" class="node">
<title>Node5</title>
<g id="a_node5"><a xlink:href="flight__runner_8cpp.html" target="_top" xlink:title="The implementation of the flight runner, where everything comes together.">
<polygon fill="none" stroke="black" points="1829,-0.5 1829,-19.5 1927,-19.5 1927,-0.5 1829,-0.5"/>
<text text-anchor="middle" x="1878" y="-7.5" font-family="Helvetica,sans-Serif" font-size="10.00">flight_runner.cpp</text>
</a>
</g>
</g>
<!-- Node3&#45;&gt;Node5 -->
<g id="edge4" class="edge">
<title>Node3&#45;&gt;Node5</title>
<path fill="none" stroke="midnightblue" d="M1878,-45.8C1878,-36.91 1878,-26.78 1878,-19.75"/>
<polygon fill="midnightblue" stroke="midnightblue" points="1874.5,-46.08 1878,-56.08 1881.5,-46.08 1874.5,-46.08"/>
</g>
<!-- Node6 -->
<g id="node6" class="node">
<title>Node6</title>
<g id="a_node6"><a xlink:href="src_2flight__system_2main_8cpp.html" target="_top" xlink:title="Defines the entry point/main function of the Flight Computer software.">
<polygon fill="none" stroke="black" points="1945,-0.5 1945,-19.5 2007,-19.5 2007,-0.5 1945,-0.5"/>
<text text-anchor="middle" x="1976" y="-7.5" font-family="Helvetica,sans-Serif" font-size="10.00">main.cpp</text>
</a>
</g>
</g>
<!-- Node3&#45;&gt;Node6 -->
<g id="edge5" class="edge">
<title>Node3&#45;&gt;Node6</title>
<path fill="none" stroke="midnightblue" d="M1902.59,-51.45C1920.68,-41.48 1944.73,-28.23 1960.29,-19.65"/>
<polygon fill="midnightblue" stroke="midnightblue" points="1900.81,-48.43 1893.75,-56.32 1904.19,-54.56 1900.81,-48.43"/>
</g>
<!-- Node8&#45;&gt;Node2 -->
<g id="edge35" class="edge">
<title>Node8&#45;&gt;Node2</title>
<path fill="none" stroke="midnightblue" d="M2677.53,-355.24C2801.87,-353.01 3085.07,-344.31 3175,-311 3214.68,-296.3 3232.8,-292.71 3252,-255 3258.25,-242.72 3260.63,-234.74 3252,-224 3204.51,-164.89 2983.69,-138.33 2866.89,-128.24"/>
<polygon fill="midnightblue" stroke="midnightblue" points="2677.36,-351.75 2667.43,-355.42 2677.48,-358.74 2677.36,-351.75"/>
</g>
<!-- Node8&#45;&gt;Node3 -->
<g id="edge45" class="edge">
<title>Node8&#45;&gt;Node3</title>
<path fill="none" stroke="midnightblue" d="M2558.32,-354.75C2410.31,-351.25 2029.42,-339.66 1906,-311 1842.73,-296.31 1807.07,-309.02 1771,-255 1726.58,-188.48 1830.15,-102.5 1866.2,-75.5"/>
<polygon fill="midnightblue" stroke="midnightblue" points="2558.49,-358.26 2568.57,-354.99 2558.65,-351.26 2558.49,-358.26"/>
</g>
<!-- Node9 -->
<g id="node9" class="node">
<title>Node9</title>
<g id="a_node9"><a xlink:href="cfg__section_8hpp.html" target="_top" xlink:title="This file contains the base class for all configuration sections.">
<polygon fill="none" stroke="black" points="1524.5,-291.5 1524.5,-310.5 1617.5,-310.5 1617.5,-291.5 1524.5,-291.5"/>
<text text-anchor="middle" x="1571" y="-298.5" font-family="Helvetica,sans-Serif" font-size="10.00">cfg_section.hpp</text>
</a>
</g>
</g>
<!-- Node8&#45;&gt;Node9 -->
<g id="edge8" class="edge">
<title>Node8&#45;&gt;Node9</title>
<path fill="none" stroke="midnightblue" d="M2558.63,-353.52C2412.54,-347.31 2023.94,-330.24 1700,-311 1672.66,-309.38 1642.08,-307.26 1617.56,-305.48"/>
<polygon fill="midnightblue" stroke="midnightblue" points="2558.58,-357.02 2568.72,-353.94 2558.88,-350.02 2558.58,-357.02"/>
</g>
<!-- Node14 -->
<g id="node12" class="node">
<title>Node14</title>
<g id="a_node12"><a xlink:href="extension__base_8hpp.html" target="_top" xlink:title="The new implementation of the extension system.">
<polygon fill="none" stroke="black" points="923,-168.5 923,-187.5 1037,-187.5 1037,-168.5 923,-168.5"/>
<text text-anchor="middle" x="980" y="-175.5" font-family="Helvetica,sans-Serif" font-size="10.00">extension_base.hpp</text>
</a>
</g>
</g>
<!-- Node8&#45;&gt;Node14 -->
<g id="edge28" class="edge">
<title>Node8&#45;&gt;Node14</title>
<path fill="none" stroke="midnightblue" d="M2558.66,-354.98C2360.04,-351.37 1719.53,-337.86 1515,-311 1402.1,-296.18 1375.59,-282.12 1265,-255 1171.75,-232.13 1062.21,-201.99 1010.27,-187.5"/>
<polygon fill="midnightblue" stroke="midnightblue" points="2558.83,-358.49 2568.9,-355.17 2558.96,-351.49 2558.83,-358.49"/>
</g>
<!-- Node42 -->
<g id="node27" class="node">
<title>Node42</title>
<g id="a_node27"><a xlink:href="built__in__test_8hpp.html" target="_top" xlink:title=" ">
<polygon fill="none" stroke="black" points="2006,-230 2006,-249 2104,-249 2104,-230 2006,-230"/>
<text text-anchor="middle" x="2055" y="-237" font-family="Helvetica,sans-Serif" font-size="10.00">built_in_test.hpp</text>
</a>
</g>
</g>
<!-- Node8&#45;&gt;Node42 -->
<g id="edge29" class="edge">
<title>Node8&#45;&gt;Node42</title>
<path fill="none" stroke="midnightblue" d="M2558.82,-354.8C2425.99,-351.59 2112.83,-340.91 2076,-311 2057.16,-295.7 2054.72,-264.28 2054.71,-249.09"/>
<polygon fill="midnightblue" stroke="midnightblue" points="2558.75,-358.3 2568.83,-355.04 2558.91,-351.3 2558.75,-358.3"/>
</g>
<!-- Node43 -->
<g id="node28" class="node">
<title>Node43</title>
<g id="a_node28"><a xlink:href="test__cases_8hpp.html" target="_top" xlink:title=" ">
<polygon fill="none" stroke="black" points="1915.5,-291.5 1915.5,-310.5 2004.5,-310.5 2004.5,-291.5 1915.5,-291.5"/>
<text text-anchor="middle" x="1960" y="-298.5" font-family="Helvetica,sans-Serif" font-size="10.00">test_cases.hpp</text>
</a>
</g>
</g>
<!-- Node8&#45;&gt;Node43 -->
<g id="edge31" class="edge">
<title>Node8&#45;&gt;Node43</title>
<path fill="none" stroke="midnightblue" d="M2558.6,-351.98C2454.08,-344.76 2230.46,-328.7 2042,-311 2029.88,-309.86 2016.77,-308.49 2004.66,-307.16"/>
<polygon fill="midnightblue" stroke="midnightblue" points="2558.43,-355.47 2568.64,-352.67 2558.91,-348.49 2558.43,-355.47"/>
</g>
<!-- Node46 -->
<g id="node31" class="node">
<title>Node46</title>
<g id="a_node31"><a xlink:href="flight__phase__predictor_8hpp.html" target="_top" xlink:title=" ">
<polygon fill="none" stroke="black" points="2136.5,-168.5 2136.5,-187.5 2281.5,-187.5 2281.5,-168.5 2136.5,-168.5"/>
<text text-anchor="middle" x="2209" y="-175.5" font-family="Helvetica,sans-Serif" font-size="10.00">flight_phase_predictor.hpp</text>
</a>
</g>
</g>
<!-- Node8&#45;&gt;Node46 -->
<g id="edge36" class="edge">
<title>Node8&#45;&gt;Node46</title>
<path fill="none" stroke="midnightblue" d="M2558.52,-356.52C2472.01,-355.94 2317.67,-349.35 2280,-311 2252.73,-283.23 2289.5,-257.68 2270,-224 2260.37,-207.37 2241.89,-195.07 2227.78,-187.58"/>
<polygon fill="midnightblue" stroke="midnightblue" points="2558.7,-360.02 2568.72,-356.57 2558.73,-353.02 2558.7,-360.02"/>
</g>
<!-- Node49 -->
<g id="node34" class="node">
<title>Node49</title>
<g id="a_node34"><a xlink:href="prediction__parameters_8hpp.html" target="_top" xlink:title=" ">
<polygon fill="none" stroke="red" points="2085,-291.5 2085,-310.5 2233,-310.5 2233,-291.5 2085,-291.5"/>
<text text-anchor="middle" x="2159" y="-298.5" font-family="Helvetica,sans-Serif" font-size="10.00">prediction_parameters.hpp</text>
</a>
</g>
</g>
<!-- Node8&#45;&gt;Node49 -->
<g id="edge40" class="edge">
<title>Node8&#45;&gt;Node49</title>
<path fill="none" stroke="midnightblue" d="M2558.76,-349.03C2474.94,-339.17 2321.88,-321.16 2231.42,-310.52"/>
<polygon fill="midnightblue" stroke="midnightblue" points="2558.54,-352.53 2568.88,-350.22 2559.36,-345.58 2558.54,-352.53"/>
</g>
<!-- Node55 -->
<g id="node36" class="node">
<title>Node55</title>
<g id="a_node36"><a xlink:href="console__pages_8hpp.html" target="_top" xlink:title=" ">
<polygon fill="none" stroke="red" points="2289,-291.5 2289,-310.5 2399,-310.5 2399,-291.5 2289,-291.5"/>
<text text-anchor="middle" x="2344" y="-298.5" font-family="Helvetica,sans-Serif" font-size="10.00">console_pages.hpp</text>
</a>
</g>
</g>
<!-- Node8&#45;&gt;Node55 -->
<g id="edge46" class="edge">
<title>Node8&#45;&gt;Node55</title>
<path fill="none" stroke="midnightblue" d="M2564.59,-345.47C2512.8,-335.27 2435.23,-319.98 2387.21,-310.52"/>
<polygon fill="midnightblue" stroke="midnightblue" points="2564.1,-348.94 2574.58,-347.44 2565.45,-342.08 2564.1,-348.94"/>
</g>
<!-- Node61 -->
<g id="node37" class="node">
<title>Node61</title>
<g id="a_node37"><a xlink:href="adc__interpolation_8hpp.html" target="_top" xlink:title="ADC Interpolation Utility.">
<polygon fill="none" stroke="red" points="2512,-230 2512,-249 2634,-249 2634,-230 2512,-230"/>
<text text-anchor="middle" x="2573" y="-237" font-family="Helvetica,sans-Serif" font-size="10.00">adc_interpolation.hpp</text>
</a>
</g>
</g>
<!-- Node8&#45;&gt;Node61 -->
<g id="edge47" class="edge">
<title>Node8&#45;&gt;Node61</title>
<path fill="none" stroke="midnightblue" d="M2619.42,-336.92C2619.72,-323.61 2618.75,-305.67 2613,-291 2606.39,-274.13 2592.13,-258.39 2582.55,-249.1"/>
<polygon fill="midnightblue" stroke="midnightblue" points="2615.9,-337.07 2618.9,-347.23 2622.9,-337.42 2615.9,-337.07"/>
</g>
<!-- Node66 -->
<g id="node38" class="node">
<title>Node66</title>
<g id="a_node38"><a xlink:href="calculated__data_8hpp.html" target="_top" xlink:title="Calculates new data from the existing data.">
<polygon fill="none" stroke="red" points="2652.5,-230 2652.5,-249 2767.5,-249 2767.5,-230 2652.5,-230"/>
<text text-anchor="middle" x="2710" y="-237" font-family="Helvetica,sans-Serif" font-size="10.00">calculated_data.hpp</text>
</a>
</g>
</g>
<!-- Node8&#45;&gt;Node66 -->
<g id="edge48" class="edge">
<title>Node8&#45;&gt;Node66</title>
<path fill="none" stroke="midnightblue" d="M2631.4,-339.17C2651.25,-314.26 2687.75,-268.44 2703,-249.28"/>
<polygon fill="midnightblue" stroke="midnightblue" points="2628.41,-337.32 2624.91,-347.32 2633.88,-341.68 2628.41,-337.32"/>
</g>
<!-- Node68 -->
<g id="node39" class="node">
<title>Node68</title>
<g id="a_node39"><a xlink:href="data__formatting_8hpp.html" target="_top" xlink:title="This file contains the DataFormatter class, which is used to format data for the data and log files.">
<polygon fill="none" stroke="red" points="2455,-291.5 2455,-310.5 2571,-310.5 2571,-291.5 2455,-291.5"/>
<text text-anchor="middle" x="2513" y="-298.5" font-family="Helvetica,sans-Serif" font-size="10.00">data_formatting.hpp</text>
</a>
</g>
</g>
<!-- Node8&#45;&gt;Node68 -->
<g id="edge49" class="edge">
<title>Node8&#45;&gt;Node68</title>
<path fill="none" stroke="midnightblue" d="M2592.19,-342.73C2572.75,-332.73 2546.65,-319.31 2529.83,-310.65"/>
<polygon fill="midnightblue" stroke="midnightblue" points="2590.64,-345.86 2601.13,-347.32 2593.84,-339.64 2590.64,-345.86"/>
</g>
<!-- Node70 -->
<g id="node40" class="node">
<title>Node70</title>
<g id="a_node40"><a xlink:href="data__log_8hpp.html" target="_top" xlink:title="The data log is responsible for writing data to files and managing the file system.">
<polygon fill="none" stroke="red" points="2376,-230 2376,-249 2456,-249 2456,-230 2376,-230"/>
<text text-anchor="middle" x="2416" y="-237" font-family="Helvetica,sans-Serif" font-size="10.00">data_log.hpp</text>
</a>
</g>
</g>
<!-- Node8&#45;&gt;Node70 -->
<g id="edge51" class="edge">
<title>Node8&#45;&gt;Node70</title>
<path fill="none" stroke="midnightblue" d="M2558.93,-353.44C2522.59,-349 2477.18,-337.92 2446,-311 2427.07,-294.66 2419.76,-264.3 2417.22,-249.32"/>
<polygon fill="midnightblue" stroke="midnightblue" points="2558.6,-356.93 2568.91,-354.53 2559.35,-349.97 2558.6,-356.93"/>
</g>
<!-- Node72 -->
<g id="node41" class="node">
<title>Node72</title>
<g id="a_node41"><a xlink:href="file__system__manager_8hpp.html" target="_top" xlink:title=" ">
<polygon fill="none" stroke="red" points="2824,-230 2824,-249 2966,-249 2966,-230 2824,-230"/>
<text text-anchor="middle" x="2895" y="-237" font-family="Helvetica,sans-Serif" font-size="10.00">file_system_manager.hpp</text>
</a>
</g>
</g>
<!-- Node8&#45;&gt;Node72 -->
<g id="edge52" class="edge">
<title>Node8&#45;&gt;Node72</title>
<path fill="none" stroke="midnightblue" d="M2677.23,-352.92C2744.19,-348.23 2847.62,-336.92 2876,-311 2893.6,-294.93 2895.6,-264.44 2895.42,-249.38"/>
<polygon fill="midnightblue" stroke="midnightblue" points="2676.96,-349.43 2667.22,-353.6 2677.43,-356.42 2676.96,-349.43"/>
</g>
<!-- Node73 -->
<g id="node42" class="node">
<title>Node73</title>
<g id="a_node42"><a xlink:href="influxdb_8hpp.html" target="_top" xlink:title=" ">
<polygon fill="none" stroke="red" points="2703.5,-291.5 2703.5,-310.5 2780.5,-310.5 2780.5,-291.5 2703.5,-291.5"/>
<text text-anchor="middle" x="2742" y="-298.5" font-family="Helvetica,sans-Serif" font-size="10.00">influxdb.hpp</text>
</a>
</g>
</g>
<!-- Node8&#45;&gt;Node73 -->
<g id="edge53" class="edge">
<title>Node8&#45;&gt;Node73</title>
<path fill="none" stroke="midnightblue" d="M2647.01,-343.37C2670.23,-333.26 2702.16,-319.35 2722.44,-310.52"/>
<polygon fill="midnightblue" stroke="midnightblue" points="2645.42,-340.24 2637.65,-347.44 2648.21,-346.66 2645.42,-340.24"/>
</g>
<!-- Node75 -->
<g id="node43" class="node">
<title>Node75</title>
<g id="a_node43"><a xlink:href="module_8hpp.html" target="_top" xlink:title="The header file for the base module class.">
<polygon fill="none" stroke="red" points="1677,-168.5 1677,-187.5 1751,-187.5 1751,-168.5 1677,-168.5"/>
<text text-anchor="middle" x="1714" y="-175.5" font-family="Helvetica,sans-Serif" font-size="10.00">module.hpp</text>
</a>
</g>
</g>
<!-- Node8&#45;&gt;Node75 -->
<g id="edge54" class="edge">
<title>Node8&#45;&gt;Node75</title>
<path fill="none" stroke="midnightblue" d="M2558.69,-354.97C2366.09,-351.38 1768.82,-338.08 1738,-311 1701.61,-279.02 1708.51,-211.87 1712.38,-187.81"/>
<polygon fill="midnightblue" stroke="midnightblue" points="2558.84,-358.48 2568.9,-355.16 2558.97,-351.48 2558.84,-358.48"/>
</g>
<!-- Node83 -->
<g id="node44" class="node">
<title>Node83</title>
<g id="a_node44"><a xlink:href="request__handler_8hpp.html" target="_top" xlink:title="The request handler class header.">
<polygon fill="none" stroke="red" points="2984,-230 2984,-249 3100,-249 3100,-230 2984,-230"/>
<text text-anchor="middle" x="3042" y="-237" font-family="Helvetica,sans-Serif" font-size="10.00">request_handler.hpp</text>
</a>
</g>
</g>
<!-- Node8&#45;&gt;Node83 -->
<g id="edge56" class="edge">
<title>Node8&#45;&gt;Node83</title>
<path fill="none" stroke="midnightblue" d="M2677.49,-351.39C2734.57,-345.79 2822.69,-334.09 2896,-311 2946.74,-295.02 3002.14,-264.21 3027.66,-249.17"/>
<polygon fill="midnightblue" stroke="midnightblue" points="2676.83,-347.93 2667.2,-352.36 2677.49,-354.9 2676.83,-347.93"/>
</g>
<!-- Node89 -->
<g id="node45" class="node">
<title>Node89</title>
<g id="a_node45"><a xlink:href="aprs__manager_8hpp.html" target="_top" xlink:title=" ">
<polygon fill="none" stroke="red" points="3118.5,-230 3118.5,-249 3225.5,-249 3225.5,-230 3118.5,-230"/>
<text text-anchor="middle" x="3172" y="-237" font-family="Helvetica,sans-Serif" font-size="10.00">aprs_manager.hpp</text>
</a>
</g>
</g>
<!-- Node8&#45;&gt;Node89 -->
<g id="edge57" class="edge">
<title>Node8&#45;&gt;Node89</title>
<path fill="none" stroke="midnightblue" d="M2677.34,-351.15C2741.36,-345.08 2845.97,-332.75 2934,-311 2959.66,-304.66 2964.81,-298.98 2990,-291 3041.27,-274.76 3101.54,-258.6 3138.24,-249.08"/>
<polygon fill="midnightblue" stroke="midnightblue" points="2676.67,-347.7 2667.03,-352.1 2677.32,-354.67 2676.67,-347.7"/>
</g>
<!-- Node92 -->
<g id="node46" class="node">
<title>Node92</title>
<g id="a_node46"><a xlink:href="error__reporter_8hpp.html" target="_top" xlink:title=" ">
<polygon fill="none" stroke="black" points="2548,-168.5 2548,-187.5 2652,-187.5 2652,-168.5 2548,-168.5"/>
<text text-anchor="middle" x="2600" y="-175.5" font-family="Helvetica,sans-Serif" font-size="10.00">error_reporter.hpp</text>
</a>
</g>
</g>
<!-- Node8&#45;&gt;Node92 -->
<g id="edge58" class="edge">
<title>Node8&#45;&gt;Node92</title>
<path fill="none" stroke="midnightblue" d="M2611.06,-338.03C2604.77,-323.74 2594.3,-304.04 2580,-291 2552.09,-265.54 2523.28,-286.87 2503,-255 2495.6,-243.38 2495.59,-235.61 2503,-224 2515.09,-205.07 2537.42,-193.98 2557.61,-187.55"/>
<polygon fill="midnightblue" stroke="midnightblue" points="2607.84,-339.41 2614.89,-347.31 2614.31,-336.74 2607.84,-339.41"/>
</g>
<!-- Node93 -->
<g id="node47" class="node">
<title>Node93</title>
<g id="a_node47"><a xlink:href="to__json_8cpp.html" target="_top" xlink:title=" ">
<polygon fill="none" stroke="black" points="2999,-291.5 2999,-310.5 3071,-310.5 3071,-291.5 2999,-291.5"/>
<text text-anchor="middle" x="3035" y="-298.5" font-family="Helvetica,sans-Serif" font-size="10.00">to_json.cpp</text>
</a>
</g>
</g>
<!-- Node8&#45;&gt;Node93 -->
<g id="edge60" class="edge">
<title>Node8&#45;&gt;Node93</title>
<path fill="none" stroke="midnightblue" d="M2677.42,-349.75C2750.11,-341.87 2876.86,-327.35 2985,-311 2989.53,-310.31 2994.29,-309.54 2998.99,-308.73"/>
<polygon fill="midnightblue" stroke="midnightblue" points="2676.66,-346.31 2667.09,-350.87 2677.41,-353.27 2676.66,-346.31"/>
</g>
<!-- Node94 -->
<g id="node48" class="node">
<title>Node94</title>
<g id="a_node48"><a xlink:href="logger_8hpp.html" target="_top" xlink:title="A simple logger class so difference classes have access to the same logger.">
<polygon fill="none" stroke="black" points="2799,-291.5 2799,-310.5 2867,-310.5 2867,-291.5 2799,-291.5"/>
<text text-anchor="middle" x="2833" y="-298.5" font-family="Helvetica,sans-Serif" font-size="10.00">logger.hpp</text>
</a>
</g>
</g>
<!-- Node8&#45;&gt;Node94 -->
<g id="edge61" class="edge">
<title>Node8&#45;&gt;Node94</title>
<path fill="none" stroke="midnightblue" d="M2661.96,-344.96C2702.57,-334.76 2762.04,-319.82 2799.09,-310.52"/>
<polygon fill="midnightblue" stroke="midnightblue" points="2660.91,-341.61 2652.07,-347.44 2662.62,-348.4 2660.91,-341.61"/>
</g>
<!-- Node95 -->
<g id="node49" class="node">
<title>Node95</title>
<g id="a_node49"><a xlink:href="shared__data__helpers_8hpp.html" target="_top" xlink:title=" ">
<polygon fill="none" stroke="red" points="2825.5,-168.5 2825.5,-187.5 2964.5,-187.5 2964.5,-168.5 2825.5,-168.5"/>
<text text-anchor="middle" x="2895" y="-175.5" font-family="Helvetica,sans-Serif" font-size="10.00">shared_data_helpers.hpp</text>
</a>
</g>
</g>
<!-- Node8&#45;&gt;Node95 -->
<g id="edge69" class="edge">
<title>Node8&#45;&gt;Node95</title>
<path fill="none" stroke="midnightblue" d="M2677.39,-356.4C2819.4,-355.89 3171.57,-345.35 3235,-255 3242.92,-243.72 3244.08,-234.36 3235,-224 3217.49,-204.02 3059.1,-190.02 2964.8,-183.38"/>
<polygon fill="midnightblue" stroke="midnightblue" points="2677.12,-352.9 2667.13,-356.42 2677.14,-359.9 2677.12,-352.9"/>
</g>
<!-- Node96 -->
<g id="node50" class="node">
<title>Node96</title>
<g id="a_node50"><a xlink:href="test__configuration_8cpp.html" target="_top" xlink:title=" ">
<polygon fill="none" stroke="black" points="3320.5,-291.5 3320.5,-310.5 3445.5,-310.5 3445.5,-291.5 3320.5,-291.5"/>
<text text-anchor="middle" x="3383" y="-298.5" font-family="Helvetica,sans-Serif" font-size="10.00">test_configuration.cpp</text>
</a>
</g>
</g>
<!-- Node8&#45;&gt;Node96 -->
<g id="edge72" class="edge">
<title>Node8&#45;&gt;Node96</title>
<path fill="none" stroke="midnightblue" d="M2677.31,-353.14C2796.54,-347.17 3073.76,-332.15 3306,-311 3310.69,-310.57 3315.54,-310.09 3320.41,-309.59"/>
<polygon fill="midnightblue" stroke="midnightblue" points="2677.1,-349.65 2667.29,-353.64 2677.45,-356.64 2677.1,-349.65"/>
</g>
<!-- Node10 -->
<g id="node10" class="node">
<title>Node10</title>
<g id="a_node10"><a xlink:href="cfg__adcmappings_8hpp.html" target="_top" xlink:title=" ">
<polygon fill="none" stroke="red" points="1509.5,-230 1509.5,-249 1632.5,-249 1632.5,-230 1509.5,-230"/>
<text text-anchor="middle" x="1571" y="-237" font-family="Helvetica,sans-Serif" font-size="10.00">cfg_adcmappings.hpp</text>
</a>
</g>
</g>
<!-- Node9&#45;&gt;Node10 -->
<g id="edge9" class="edge">
<title>Node9&#45;&gt;Node10</title>
<path fill="none" stroke="midnightblue" d="M1571,-281.32C1571,-270.5 1571,-257.4 1571,-249.01"/>
<polygon fill="midnightblue" stroke="midnightblue" points="1567.5,-281.48 1571,-291.48 1574.5,-281.48 1567.5,-281.48"/>
</g>
<!-- Node12 -->
<g id="node11" class="node">
<title>Node12</title>
<g id="a_node11"><a xlink:href="cfg__extensions_8hpp.html" target="_top" xlink:title="The header file for the extensions section of the configuration.">
<polygon fill="none" stroke="red" points="1274.5,-230 1274.5,-249 1385.5,-249 1385.5,-230 1274.5,-230"/>
<text text-anchor="middle" x="1330" y="-237" font-family="Helvetica,sans-Serif" font-size="10.00">cfg_extensions.hpp</text>
</a>
</g>
</g>
<!-- Node9&#45;&gt;Node12 -->
<g id="edge10" class="edge">
<title>Node9&#45;&gt;Node12</title>
<path fill="none" stroke="midnightblue" d="M1526.61,-289.04C1479.82,-277.49 1407.12,-259.54 1364.47,-249.01"/>
<polygon fill="midnightblue" stroke="midnightblue" points="1525.92,-292.48 1536.47,-291.48 1527.6,-285.68 1525.92,-292.48"/>
</g>
<!-- Node12&#45;&gt;Node14 -->
<g id="edge11" class="edge">
<title>Node12&#45;&gt;Node14</title>
<path fill="none" stroke="midnightblue" d="M1269.76,-228.26C1202.03,-216.75 1093.3,-198.26 1030.05,-187.51"/>
<polygon fill="midnightblue" stroke="midnightblue" points="1269.41,-231.75 1279.85,-229.98 1270.58,-224.85 1269.41,-231.75"/>
</g>
<!-- Node15 -->
<g id="node13" class="node">
<title>Node15</title>
<g id="a_node13"><a xlink:href="adc__extension__base_8hpp.html" target="_top" xlink:title="Generic ADC Extension Wrapper.">
<polygon fill="none" stroke="red" points="1101.5,-112.5 1101.5,-131.5 1238.5,-131.5 1238.5,-112.5 1101.5,-112.5"/>
<text text-anchor="middle" x="1170" y="-119.5" font-family="Helvetica,sans-Serif" font-size="10.00">adc_extension_base.hpp</text>
</a>
</g>
</g>
<!-- Node14&#45;&gt;Node15 -->
<g id="edge12" class="edge">
<title>Node14&#45;&gt;Node15</title>
<path fill="none" stroke="midnightblue" d="M1019.76,-165.7C1055.62,-155.51 1107.57,-140.74 1140.03,-131.52"/>
<polygon fill="midnightblue" stroke="midnightblue" points="1018.77,-162.34 1010.11,-168.44 1020.68,-169.08 1018.77,-162.34"/>
</g>
<!-- Node20 -->
<g id="node14" class="node">
<title>Node20</title>
<g id="a_node14"><a xlink:href="bme280_8hpp.html" target="_top" xlink:title="The BME280 sensor extension.">
<polygon fill="none" stroke="red" points="1006.5,-112.5 1006.5,-131.5 1083.5,-131.5 1083.5,-112.5 1006.5,-112.5"/>
<text text-anchor="middle" x="1045" y="-119.5" font-family="Helvetica,sans-Serif" font-size="10.00">bme280.hpp</text>
</a>
</g>
</g>
<!-- Node14&#45;&gt;Node20 -->
<g id="edge13" class="edge">
<title>Node14&#45;&gt;Node20</title>
<path fill="none" stroke="midnightblue" d="M998.27,-161.82C1009.92,-152.15 1024.6,-139.95 1034.37,-131.83"/>
<polygon fill="midnightblue" stroke="midnightblue" points="995.9,-159.24 990.44,-168.32 1000.37,-164.63 995.9,-159.24"/>
</g>
<!-- Node22 -->
<g id="node15" class="node">
<title>Node22</title>
<g id="a_node15"><a xlink:href="bmi088_8hpp.html" target="_top" xlink:title="Extension for the Bosch BMI088 IMU.">
<polygon fill="none" stroke="red" points="0,-56.5 0,-75.5 74,-75.5 74,-56.5 0,-56.5"/>
<text text-anchor="middle" x="37" y="-63.5" font-family="Helvetica,sans-Serif" font-size="10.00">bmi088.hpp</text>
</a>
</g>
</g>
<!-- Node14&#45;&gt;Node22 -->
<g id="edge14" class="edge">
<title>Node14&#45;&gt;Node22</title>
<path fill="none" stroke="midnightblue" d="M912.53,-176.41C697.15,-174.18 38.24,-164.72 7,-132 -8.79,-115.46 13.61,-89.12 27.47,-75.61"/>
<polygon fill="midnightblue" stroke="midnightblue" points="912.72,-179.91 922.75,-176.51 912.79,-172.91 912.72,-179.91"/>
</g>
<!-- Node24 -->
<g id="node16" class="node">
<title>Node24</title>
<g id="a_node16"><a xlink:href="ds18b20_8hpp.html" target="_top" xlink:title="DS18B20 extension header file.">
<polygon fill="none" stroke="red" points="1256.5,-112.5 1256.5,-131.5 1335.5,-131.5 1335.5,-112.5 1256.5,-112.5"/>
<text text-anchor="middle" x="1296" y="-119.5" font-family="Helvetica,sans-Serif" font-size="10.00">ds18b20.hpp</text>
</a>
</g>
</g>
<!-- Node14&#45;&gt;Node24 -->
<g id="edge15" class="edge">
<title>Node14&#45;&gt;Node24</title>
<path fill="none" stroke="midnightblue" d="M1042.1,-166.8C1096.24,-157.84 1176.87,-144.35 1247,-132 1250.07,-131.46 1253.24,-130.89 1256.43,-130.32"/>
<polygon fill="midnightblue" stroke="midnightblue" points="1041.27,-163.39 1031.97,-168.47 1042.41,-170.29 1041.27,-163.39"/>
</g>
<!-- Node26 -->
<g id="node17" class="node">
<title>Node26</title>
<g id="a_node17"><a xlink:href="extension__base_8cpp.html" target="_top" xlink:title="The new implementation of the extension system.">
<polygon fill="none" stroke="black" points="1353.5,-112.5 1353.5,-131.5 1466.5,-131.5 1466.5,-112.5 1353.5,-112.5"/>
<text text-anchor="middle" x="1410" y="-119.5" font-family="Helvetica,sans-Serif" font-size="10.00">extension_base.cpp</text>
</a>
</g>
</g>
<!-- Node14&#45;&gt;Node26 -->
<g id="edge16" class="edge">
<title>Node14&#45;&gt;Node26</title>
<path fill="none" stroke="midnightblue" d="M1047.07,-168.96C1120.13,-160.15 1240.42,-145.46 1344,-132 1347.1,-131.6 1350.27,-131.18 1353.48,-130.75"/>
<polygon fill="midnightblue" stroke="midnightblue" points="1046.59,-165.5 1037.09,-170.17 1047.43,-172.45 1046.59,-165.5"/>
</g>
<!-- Node27 -->
<g id="node18" class="node">
<title>Node27</title>
<g id="a_node18"><a xlink:href="i2c__extension__adapter_8hpp.html" target="_top" xlink:title="Adapter for I2C Extensions.">
<polygon fill="none" stroke="red" points="1484.5,-112.5 1484.5,-131.5 1631.5,-131.5 1631.5,-112.5 1484.5,-112.5"/>
<text text-anchor="middle" x="1558" y="-119.5" font-family="Helvetica,sans-Serif" font-size="10.00">i2c_extension_adapter.hpp</text>
</a>
</g>
</g>
<!-- Node14&#45;&gt;Node27 -->
<g id="edge17" class="edge">
<title>Node14&#45;&gt;Node27</title>
<path fill="none" stroke="midnightblue" d="M1047.27,-171.26C1142.52,-163.04 1322.15,-147.23 1475,-132 1478.03,-131.7 1481.12,-131.39 1484.24,-131.07"/>
<polygon fill="midnightblue" stroke="midnightblue" points="1046.86,-167.78 1037.2,-172.12 1047.46,-174.75 1046.86,-167.78"/>
</g>
<!-- Node28 -->
<g id="node19" class="node">
<title>Node28</title>
<g id="a_node19"><a xlink:href="imu__extension__base_8hpp.html" target="_top" xlink:title="Base IMU Extension.">
<polygon fill="none" stroke="black" points="16,-112.5 16,-131.5 154,-131.5 154,-112.5 16,-112.5"/>
<text text-anchor="middle" x="85" y="-119.5" font-family="Helvetica,sans-Serif" font-size="10.00">imu_extension_base.hpp</text>
</a>
</g>
</g>
<!-- Node14&#45;&gt;Node28 -->
<g id="edge18" class="edge">
<title>Node14&#45;&gt;Node28</title>
<path fill="none" stroke="midnightblue" d="M912.84,-174.66C773.09,-169.5 440.9,-155.66 163,-132 160.15,-131.76 157.24,-131.49 154.3,-131.21"/>
<polygon fill="midnightblue" stroke="midnightblue" points="912.84,-178.17 922.96,-175.03 913.1,-171.17 912.84,-178.17"/>
</g>
<!-- Node29 -->
<g id="node20" class="node">
<title>Node29</title>
<g id="a_node20"><a xlink:href="pi__camera_8hpp.html" target="_top" xlink:title="Raspberry Pi Camera Extension.">
<polygon fill="none" stroke="red" points="172.5,-112.5 172.5,-131.5 261.5,-131.5 261.5,-112.5 172.5,-112.5"/>
<text text-anchor="middle" x="217" y="-119.5" font-family="Helvetica,sans-Serif" font-size="10.00">pi_camera.hpp</text>
</a>
</g>
</g>
<!-- Node14&#45;&gt;Node29 -->
<g id="edge20" class="edge">
<title>Node14&#45;&gt;Node29</title>
<path fill="none" stroke="midnightblue" d="M912.47,-175.08C786.02,-170.96 505.08,-159.33 270,-132 267.31,-131.69 264.55,-131.33 261.77,-130.94"/>
<polygon fill="midnightblue" stroke="midnightblue" points="912.65,-178.59 922.76,-175.41 912.88,-171.59 912.65,-178.59"/>
</g>
<!-- Node31 -->
<g id="node21" class="node">
<title>Node31</title>
<g id="a_node21"><a xlink:href="rgb__status__led_8hpp.html" target="_top" xlink:title=" ">
<polygon fill="none" stroke="red" points="279.5,-112.5 279.5,-131.5 388.5,-131.5 388.5,-112.5 279.5,-112.5"/>
<text text-anchor="middle" x="334" y="-119.5" font-family="Helvetica,sans-Serif" font-size="10.00">rgb_status_led.hpp</text>
</a>
</g>
</g>
<!-- Node14&#45;&gt;Node31 -->
<g id="edge21" class="edge">
<title>Node14&#45;&gt;Node31</title>
<path fill="none" stroke="midnightblue" d="M912.74,-173.17C804.24,-166.68 583.93,-152.24 398,-132 394.99,-131.67 391.9,-131.31 388.78,-130.93"/>
<polygon fill="midnightblue" stroke="midnightblue" points="912.7,-176.67 922.89,-173.77 913.11,-169.69 912.7,-176.67"/>
</g>
<!-- Node33 -->
<g id="node22" class="node">
<title>Node33</title>
<g id="a_node22"><a xlink:href="samm8q_8hpp.html" target="_top" xlink:title="SAM&#45;M8Q GPS extension (I2C).">
<polygon fill="none" stroke="red" points="407,-112.5 407,-131.5 487,-131.5 487,-112.5 407,-112.5"/>
<text text-anchor="middle" x="447" y="-119.5" font-family="Helvetica,sans-Serif" font-size="10.00">samm8q.hpp</text>
</a>
</g>
</g>
<!-- Node14&#45;&gt;Node33 -->
<g id="edge22" class="edge">
<title>Node14&#45;&gt;Node33</title>
<path fill="none" stroke="midnightblue" d="M912.62,-172.64C818.91,-166.14 644.06,-152.44 496,-132 493.09,-131.6 490.08,-131.14 487.06,-130.66"/>
<polygon fill="midnightblue" stroke="midnightblue" points="912.6,-176.14 922.81,-173.34 913.08,-169.16 912.6,-176.14"/>
</g>
<!-- Node35 -->
<g id="node23" class="node">
<title>Node35</title>
<g id="a_node23"><a xlink:href="extension__module_8hpp.html" target="_top" xlink:title="This is the header file for the new extension module.">
<polygon fill="none" stroke="red" points="1650,-112.5 1650,-131.5 1778,-131.5 1778,-112.5 1650,-112.5"/>
<text text-anchor="middle" x="1714" y="-119.5" font-family="Helvetica,sans-Serif" font-size="10.00">extension_module.hpp</text>
</a>
</g>
</g>
<!-- Node14&#45;&gt;Node35 -->
<g id="edge23" class="edge">
<title>Node14&#45;&gt;Node35</title>
<path fill="none" stroke="midnightblue" d="M1047.11,-173.6C1166.51,-167.29 1423.64,-152.52 1640,-132 1643.22,-131.69 1646.52,-131.36 1649.85,-131.01"/>
<polygon fill="midnightblue" stroke="midnightblue" points="1046.83,-170.11 1037.03,-174.13 1047.19,-177.1 1046.83,-170.11"/>
</g>
<!-- Node38 -->
<g id="node24" class="node">
<title>Node38</title>
<g id="a_node24"><a xlink:href="extension__test__framework_8hpp.html" target="_top" xlink:title="Basic helpers for unit testing extensions on the host.">
<polygon fill="none" stroke="red" points="505,-112.5 505,-131.5 673,-131.5 673,-112.5 505,-112.5"/>
<text text-anchor="middle" x="589" y="-119.5" font-family="Helvetica,sans-Serif" font-size="10.00">extension_test_framework.hpp</text>
</a>
</g>
</g>
<!-- Node14&#45;&gt;Node38 -->
<g id="edge25" class="edge">
<title>Node14&#45;&gt;Node38</title>
<path fill="none" stroke="midnightblue" d="M912.63,-167.7C838.97,-157.52 721.93,-141.36 650.62,-131.51"/>
<polygon fill="midnightblue" stroke="midnightblue" points="912.34,-171.19 922.73,-169.09 913.3,-164.25 912.34,-171.19"/>
</g>
<!-- Node40 -->
<g id="node25" class="node">
<title>Node40</title>
<g id="a_node25"><a xlink:href="unit__test__extension_8hpp.html" target="_top" xlink:title=" ">
<polygon fill="none" stroke="black" points="691,-112.5 691,-131.5 825,-131.5 825,-112.5 691,-112.5"/>
<text text-anchor="middle" x="758" y="-119.5" font-family="Helvetica,sans-Serif" font-size="10.00">unit_test_extension.hpp</text>
</a>
</g>
</g>
<!-- Node14&#45;&gt;Node40 -->
<g id="edge26" class="edge">
<title>Node14&#45;&gt;Node40</title>
<path fill="none" stroke="midnightblue" d="M934.88,-166.02C892.94,-155.82 831.35,-140.84 793.01,-131.52"/>
<polygon fill="midnightblue" stroke="midnightblue" points="934.28,-169.48 944.82,-168.44 935.93,-162.68 934.28,-169.48"/>
</g>
<!-- Node41 -->
<g id="node26" class="node">
<title>Node41</title>
<g id="a_node26"><a xlink:href="simulated__extensions_8hpp.html" target="_top" xlink:title="This contains the simulated extensions for testing the flight system.">
<polygon fill="none" stroke="black" points="843.5,-112.5 843.5,-131.5 988.5,-131.5 988.5,-112.5 843.5,-112.5"/>
<text text-anchor="middle" x="916" y="-119.5" font-family="Helvetica,sans-Serif" font-size="10.00">simulated_extensions.hpp</text>
</a>
</g>
</g>
<!-- Node14&#45;&gt;Node41 -->
<g id="edge27" class="edge">
<title>Node14&#45;&gt;Node41</title>
<path fill="none" stroke="midnightblue" d="M962.01,-161.82C950.54,-152.15 936.09,-139.95 926.47,-131.83"/>
<polygon fill="midnightblue" stroke="midnightblue" points="959.82,-164.55 969.72,-168.32 964.33,-159.2 959.82,-164.55"/>
</g>
<!-- Node28&#45;&gt;Node22 -->
<g id="edge19" class="edge">
<title>Node28&#45;&gt;Node22</title>
<path fill="none" stroke="midnightblue" d="M70.27,-104.43C61.86,-94.97 51.65,-83.48 44.78,-75.75"/>
<polygon fill="midnightblue" stroke="midnightblue" points="67.81,-106.93 77.07,-112.08 73.05,-102.28 67.81,-106.93"/>
</g>
<!-- Node35&#45;&gt;Node3 -->
<g id="edge24" class="edge">
<title>Node35&#45;&gt;Node3</title>
<path fill="none" stroke="midnightblue" d="M1749.52,-109.3C1780.42,-99.13 1824.47,-84.62 1852.14,-75.52"/>
<polygon fill="midnightblue" stroke="midnightblue" points="1748.39,-105.99 1739.99,-112.44 1750.58,-112.64 1748.39,-105.99"/>
</g>
<!-- Node42&#45;&gt;Node3 -->
<g id="edge30" class="edge">
<title>Node42&#45;&gt;Node3</title>
<path fill="none" stroke="midnightblue" d="M2038.6,-222.61C2002.01,-187.16 1914.77,-102.62 1886.79,-75.52"/>
<polygon fill="midnightblue" stroke="midnightblue" points="2036.36,-225.31 2045.98,-229.76 2041.23,-220.29 2036.36,-225.31"/>
</g>
<!-- Node43&#45;&gt;Node42 -->
<g id="edge32" class="edge">
<title>Node43&#45;&gt;Node42</title>
<path fill="none" stroke="midnightblue" d="M1982.21,-286.09C2000.55,-274.6 2025.98,-258.68 2041.41,-249.01"/>
<polygon fill="midnightblue" stroke="midnightblue" points="1980.23,-283.2 1973.61,-291.48 1983.94,-289.13 1980.23,-283.2"/>
</g>
<!-- Node44 -->
<g id="node29" class="node">
<title>Node44</title>
<g id="a_node29"><a xlink:href="test__cases_8cpp.html" target="_top" xlink:title=" ">
<polygon fill="none" stroke="black" points="1780.5,-230 1780.5,-249 1869.5,-249 1869.5,-230 1780.5,-230"/>
<text text-anchor="middle" x="1825" y="-237" font-family="Helvetica,sans-Serif" font-size="10.00">test_cases.cpp</text>
</a>
</g>
</g>
<!-- Node43&#45;&gt;Node44 -->
<g id="edge33" class="edge">
<title>Node43&#45;&gt;Node44</title>
<path fill="none" stroke="midnightblue" d="M1931.25,-287.33C1905.04,-275.78 1867.05,-259.03 1844.31,-249.01"/>
<polygon fill="midnightblue" stroke="midnightblue" points="1930.1,-290.64 1940.66,-291.48 1932.92,-284.24 1930.1,-290.64"/>
</g>
<!-- Node45 -->
<g id="node30" class="node">
<title>Node45</title>
<g id="a_node30"><a xlink:href="test__built__in__self__test_8cpp.html" target="_top" xlink:title=" ">
<polygon fill="none" stroke="black" points="1888,-224.5 1888,-254.5 1988,-254.5 1988,-224.5 1888,-224.5"/>
<text text-anchor="start" x="1896" y="-242.5" font-family="Helvetica,sans-Serif" font-size="10.00">test_built_in_self</text>
<text text-anchor="middle" x="1938" y="-231.5" font-family="Helvetica,sans-Serif" font-size="10.00">_test.cpp</text>
</a>
</g>
</g>
<!-- Node43&#45;&gt;Node45 -->
<g id="edge34" class="edge">
<title>Node43&#45;&gt;Node45</title>
<path fill="none" stroke="midnightblue" d="M1953.28,-281.82C1950.03,-273.04 1946.2,-262.68 1943.18,-254.52"/>
<polygon fill="midnightblue" stroke="midnightblue" points="1950.1,-283.31 1956.85,-291.48 1956.66,-280.88 1950.1,-283.31"/>
</g>
<!-- Node46&#45;&gt;Node2 -->
<g id="edge37" class="edge">
<title>Node46&#45;&gt;Node2</title>
<path fill="none" stroke="midnightblue" d="M2291.76,-169.36C2406.58,-158.76 2612.36,-139.77 2721.47,-129.7"/>
<polygon fill="midnightblue" stroke="midnightblue" points="2291.25,-165.89 2281.61,-170.3 2291.89,-172.86 2291.25,-165.89"/>
</g>
<!-- Node47 -->
<g id="node32" class="node">
<title>Node47</title>
<g id="a_node32"><a xlink:href="flight__phase__predictor_8cpp.html" target="_top" xlink:title=" ">
<polygon fill="none" stroke="black" points="2110,-112.5 2110,-131.5 2254,-131.5 2254,-112.5 2110,-112.5"/>
<text text-anchor="middle" x="2182" y="-119.5" font-family="Helvetica,sans-Serif" font-size="10.00">flight_phase_predictor.cpp</text>
</a>
</g>
</g>
<!-- Node46&#45;&gt;Node47 -->
<g id="edge38" class="edge">
<title>Node46&#45;&gt;Node47</title>
<path fill="none" stroke="midnightblue" d="M2199.99,-158.98C2195.41,-149.82 2190.05,-139.09 2186.38,-131.75"/>
<polygon fill="midnightblue" stroke="midnightblue" points="2196.94,-160.7 2204.54,-168.08 2203.2,-157.57 2196.94,-160.7"/>
</g>
<!-- Node48 -->
<g id="node33" class="node">
<title>Node48</title>
<g id="a_node33"><a xlink:href="test__flight__phase__predictor_8cpp.html" target="_top" xlink:title=" ">
<polygon fill="none" stroke="black" points="2272,-112.5 2272,-131.5 2440,-131.5 2440,-112.5 2272,-112.5"/>
<text text-anchor="middle" x="2356" y="-119.5" font-family="Helvetica,sans-Serif" font-size="10.00">test_flight_phase_predictor.cpp</text>
</a>
</g>
</g>
<!-- Node46&#45;&gt;Node48 -->
<g id="edge39" class="edge">
<title>Node46&#45;&gt;Node48</title>
<path fill="none" stroke="midnightblue" d="M2241.92,-164.91C2269.56,-154.75 2308.34,-140.51 2332.82,-131.52"/>
<polygon fill="midnightblue" stroke="midnightblue" points="2240.47,-161.71 2232.29,-168.44 2242.89,-168.28 2240.47,-161.71"/>
</g>
<!-- Node49&#45;&gt;Node46 -->
<g id="edge41" class="edge">
<title>Node49&#45;&gt;Node46</title>
<path fill="none" stroke="midnightblue" d="M2208.56,-288.04C2225.65,-281.29 2242.99,-270.89 2253,-255 2260.34,-243.34 2258.2,-236.76 2253,-224 2246.73,-208.62 2232.39,-195.64 2221.78,-187.63"/>
<polygon fill="midnightblue" stroke="midnightblue" points="2207.37,-284.75 2199.15,-291.43 2209.74,-291.34 2207.37,-284.75"/>
</g>
<!-- Node49&#45;&gt;Node48 -->
<g id="edge44" class="edge">
<title>Node49&#45;&gt;Node48</title>
<path fill="none" stroke="midnightblue" d="M2204.52,-288.46C2226.03,-281.37 2251.07,-270.6 2270,-255 2313.69,-218.99 2342.95,-154.91 2352.56,-131.7"/>
<polygon fill="midnightblue" stroke="midnightblue" points="2203.42,-285.14 2194.92,-291.46 2205.51,-291.82 2203.42,-285.14"/>
</g>
<!-- Node50 -->
<g id="node35" class="node">
<title>Node50</title>
<g id="a_node35"><a xlink:href="prediction__model_8hpp.html" target="_top" xlink:title=" ">
<polygon fill="none" stroke="red" points="2122,-230 2122,-249 2244,-249 2244,-230 2122,-230"/>
<text text-anchor="middle" x="2183" y="-237" font-family="Helvetica,sans-Serif" font-size="10.00">prediction_model.hpp</text>
</a>
</g>
</g>
<!-- Node49&#45;&gt;Node50 -->
<g id="edge42" class="edge">
<title>Node49&#45;&gt;Node50</title>
<path fill="none" stroke="midnightblue" d="M2166.26,-282C2170.68,-271.05 2176.11,-257.57 2179.57,-249.01"/>
<polygon fill="midnightblue" stroke="midnightblue" points="2162.93,-280.89 2162.44,-291.48 2169.43,-283.51 2162.93,-280.89"/>
</g>
<!-- Node50&#45;&gt;Node46 -->
<g id="edge43" class="edge">
<title>Node50&#45;&gt;Node46</title>
<path fill="none" stroke="midnightblue" d="M2190.87,-220.5C2195.65,-209.55 2201.54,-196.07 2205.28,-187.51"/>
<polygon fill="midnightblue" stroke="midnightblue" points="2187.52,-219.41 2186.73,-229.98 2193.94,-222.21 2187.52,-219.41"/>
</g>
<!-- Node68&#45;&gt;Node70 -->
<g id="edge50" class="edge">
<title>Node68&#45;&gt;Node70</title>
<path fill="none" stroke="midnightblue" d="M2490.57,-286.24C2471.84,-274.75 2445.71,-258.72 2429.87,-249.01"/>
<polygon fill="midnightblue" stroke="midnightblue" points="2488.75,-289.23 2499.1,-291.48 2492.41,-283.26 2488.75,-289.23"/>
</g>
<!-- Node75&#45;&gt;Node35 -->
<g id="edge55" class="edge">
<title>Node75&#45;&gt;Node35</title>
<path fill="none" stroke="midnightblue" d="M1714,-157.8C1714,-148.91 1714,-138.78 1714,-131.75"/>
<polygon fill="midnightblue" stroke="midnightblue" points="1710.5,-158.08 1714,-168.08 1717.5,-158.08 1710.5,-158.08"/>
</g>
<!-- Node92&#45;&gt;Node2 -->
<g id="edge59" class="edge">
<title>Node92&#45;&gt;Node2</title>
<path fill="none" stroke="midnightblue" d="M2640.6,-165.7C2677.22,-155.51 2730.26,-140.74 2763.4,-131.52"/>
<polygon fill="midnightblue" stroke="midnightblue" points="2639.44,-162.39 2630.74,-168.44 2641.31,-169.13 2639.44,-162.39"/>
</g>
<!-- Node94&#45;&gt;Node2 -->
<g id="edge63" class="edge">
<title>Node94&#45;&gt;Node2</title>
<path fill="none" stroke="midnightblue" d="M2824.75,-282.03C2821.3,-273.92 2817.52,-264.13 2815,-255 2802.47,-209.59 2796.61,-153.2 2794.72,-131.79"/>
<polygon fill="midnightblue" stroke="midnightblue" points="2821.57,-283.51 2828.81,-291.24 2827.97,-280.68 2821.57,-283.51"/>
</g>
<!-- Node94&#45;&gt;Node42 -->
<g id="edge62" class="edge">
<title>Node94&#45;&gt;Node42</title>
<path fill="none" stroke="midnightblue" d="M2788.54,-291.03C2489.39,-253.08 2407.63,-299.24 2113,-255 2103.66,-253.6 2093.63,-251.36 2084.58,-249.06"/>
<polygon fill="midnightblue" stroke="midnightblue" points="2788.45,-294.54 2798.81,-292.35 2789.34,-287.6 2788.45,-294.54"/>
</g>
<!-- Node94&#45;&gt;Node61 -->
<g id="edge64" class="edge">
<title>Node94&#45;&gt;Node61</title>
<path fill="none" stroke="midnightblue" d="M2788.82,-289.89C2738.59,-278.39 2657.45,-259.83 2610.28,-249.03"/>
<polygon fill="midnightblue" stroke="midnightblue" points="2788.21,-293.34 2798.74,-292.16 2789.77,-286.52 2788.21,-293.34"/>
</g>
<!-- Node94&#45;&gt;Node66 -->
<g id="edge65" class="edge">
<title>Node94&#45;&gt;Node66</title>
<path fill="none" stroke="midnightblue" d="M2806.17,-287.02C2782.31,-275.48 2748.13,-258.94 2727.59,-249.01"/>
<polygon fill="midnightblue" stroke="midnightblue" points="2804.85,-290.27 2815.38,-291.48 2807.9,-283.97 2804.85,-290.27"/>
</g>
<!-- Node94&#45;&gt;Node72 -->
<g id="edge66" class="edge">
<title>Node94&#45;&gt;Node72</title>
<path fill="none" stroke="midnightblue" d="M2849.33,-284.32C2861.11,-273.02 2876.56,-258.19 2886.13,-249.01"/>
<polygon fill="midnightblue" stroke="midnightblue" points="2846.67,-282.03 2841.88,-291.48 2851.52,-287.08 2846.67,-282.03"/>
</g>
<!-- Node94&#45;&gt;Node83 -->
<g id="edge67" class="edge">
<title>Node94&#45;&gt;Node83</title>
<path fill="none" stroke="midnightblue" d="M2872.78,-288.68C2913.39,-277.11 2975.51,-259.43 3012.11,-249.01"/>
<polygon fill="midnightblue" stroke="midnightblue" points="2871.6,-285.37 2862.94,-291.48 2873.52,-292.1 2871.6,-285.37"/>
</g>
<!-- Node94&#45;&gt;Node89 -->
<g id="edge68" class="edge">
<title>Node94&#45;&gt;Node89</title>
<path fill="none" stroke="midnightblue" d="M2877.15,-293.7C2931.78,-285.7 3027.55,-271 3109,-255 3118.03,-253.23 3127.74,-251.1 3136.77,-249.03"/>
<polygon fill="midnightblue" stroke="midnightblue" points="2876.51,-290.26 2867.12,-295.16 2877.52,-297.18 2876.51,-290.26"/>
</g>
<!-- Node95&#45;&gt;Node7 -->
<g id="edge70" class="edge">
<title>Node95&#45;&gt;Node7</title>
<path fill="none" stroke="midnightblue" d="M2891.29,-158.36C2888.23,-145.02 2883.21,-126.88 2876,-112 2869.39,-98.37 2858.75,-84.42 2851.57,-75.74"/>
<polygon fill="midnightblue" stroke="midnightblue" points="2887.9,-159.2 2893.41,-168.25 2894.74,-157.74 2887.9,-159.2"/>
</g>
<!-- Node95&#45;&gt;Node48 -->
<g id="edge71" class="edge">
<title>Node95&#45;&gt;Node48</title>
<path fill="none" stroke="midnightblue" d="M2815.26,-169.01C2714.71,-158.94 2542.6,-141.69 2440.05,-131.42"/>
<polygon fill="midnightblue" stroke="midnightblue" points="2815.06,-172.51 2825.36,-170.02 2815.76,-165.54 2815.06,-172.51"/>
</g>
</g>
</svg>
