<?xml version="1.0" encoding="UTF-8" standalone="no"?>
<!DOCTYPE svg PUBLIC "-//W3C//DTD SVG 1.1//EN"
 "http://www.w3.org/Graphics/SVG/1.1/DTD/svg11.dtd">
<!-- Generated by graphviz version 2.43.0 (0)
 -->
<!-- Title: flight_phase.hpp Pages: 1 -->
<svg width="2535pt" height="476pt"
 viewBox="0.00 0.00 2534.50 476.00" xmlns="http://www.w3.org/2000/svg" xmlns:xlink="http://www.w3.org/1999/xlink">
<g id="graph0" class="graph" transform="scale(1 1) rotate(0) translate(4 472)">
<title>flight_phase.hpp</title>
<!-- Node1 -->
<g id="node1" class="node">
<title>Node1</title>
<g id="a_node1"><a xlink:title="Contains the flight phase enum and related functions.">
<polygon fill="#bfbfbf" stroke="black" points="1601.5,-448.5 1601.5,-467.5 1698.5,-467.5 1698.5,-448.5 1601.5,-448.5"/>
<text text-anchor="middle" x="1650" y="-455.5" font-family="Helvetica,sans-Serif" font-size="10.00">flight_phase.hpp</text>
</a>
</g>
</g>
<!-- Node2 -->
<g id="node2" class="node">
<title>Node2</title>
<g id="a_node2"><a xlink:href="flight__phase__predictor_8hpp.html" target="_top" xlink:title=" ">
<polygon fill="none" stroke="black" points="5.5,-168.5 5.5,-187.5 150.5,-187.5 150.5,-168.5 5.5,-168.5"/>
<text text-anchor="middle" x="78" y="-175.5" font-family="Helvetica,sans-Serif" font-size="10.00">flight_phase_predictor.hpp</text>
</a>
</g>
</g>
<!-- Node1&#45;&gt;Node2 -->
<g id="edge1" class="edge">
<title>Node1&#45;&gt;Node2</title>
<path fill="none" stroke="midnightblue" d="M1591.02,-456.22C1296.59,-451.93 0,-428.44 0,-347 0,-347 0,-347 0,-289 0,-244.05 43.88,-204.65 65.81,-187.76"/>
<polygon fill="midnightblue" stroke="midnightblue" points="1591.02,-459.72 1601.07,-456.36 1591.12,-452.72 1591.02,-459.72"/>
</g>
<!-- Node11 -->
<g id="node11" class="node">
<title>Node11</title>
<g id="a_node11"><a xlink:href="flight__runner__data_8hpp.html" target="_top" xlink:title="Non&#45;volatile data for the flight runner.">
<polygon fill="none" stroke="black" points="2022,-392.5 2022,-411.5 2148,-411.5 2148,-392.5 2022,-392.5"/>
<text text-anchor="middle" x="2085" y="-399.5" font-family="Helvetica,sans-Serif" font-size="10.00">flight_runner_data.hpp</text>
</a>
</g>
</g>
<!-- Node1&#45;&gt;Node11 -->
<g id="edge10" class="edge">
<title>Node1&#45;&gt;Node11</title>
<path fill="none" stroke="midnightblue" d="M1708.75,-449.71C1790.51,-439.56 1937.99,-421.25 2021.97,-410.82"/>
<polygon fill="midnightblue" stroke="midnightblue" points="1708.13,-446.26 1698.63,-450.96 1708.99,-453.2 1708.13,-446.26"/>
</g>
<!-- Node13 -->
<g id="node13" class="node">
<title>Node13</title>
<g id="a_node13"><a xlink:href="flight__data_8hpp.html" target="_top" xlink:title=" ">
<polygon fill="none" stroke="black" points="1605.5,-392.5 1605.5,-411.5 1694.5,-411.5 1694.5,-392.5 1605.5,-392.5"/>
<text text-anchor="middle" x="1650" y="-399.5" font-family="Helvetica,sans-Serif" font-size="10.00">flight_data.hpp</text>
</a>
</g>
</g>
<!-- Node1&#45;&gt;Node13 -->
<g id="edge13" class="edge">
<title>Node1&#45;&gt;Node13</title>
<path fill="none" stroke="midnightblue" d="M1650,-437.8C1650,-428.91 1650,-418.78 1650,-411.75"/>
<polygon fill="midnightblue" stroke="midnightblue" points="1646.5,-438.08 1650,-448.08 1653.5,-438.08 1646.5,-438.08"/>
</g>
<!-- Node14 -->
<g id="node14" class="node">
<title>Node14</title>
<g id="a_node14"><a xlink:href="shared__data_8hpp.html" target="_top" xlink:title="Contains the SharedData struct, used across all modules and extensions.">
<polygon fill="none" stroke="black" points="1220,-336.5 1220,-355.5 1318,-355.5 1318,-336.5 1220,-336.5"/>
<text text-anchor="middle" x="1269" y="-343.5" font-family="Helvetica,sans-Serif" font-size="10.00">shared_data.hpp</text>
</a>
</g>
</g>
<!-- Node1&#45;&gt;Node14 -->
<g id="edge71" class="edge">
<title>Node1&#45;&gt;Node14</title>
<path fill="none" stroke="midnightblue" d="M1610.67,-445.65C1534.1,-423.54 1366.56,-375.17 1298.56,-355.53"/>
<polygon fill="midnightblue" stroke="midnightblue" points="1609.84,-449.05 1620.42,-448.46 1611.78,-442.32 1609.84,-449.05"/>
</g>
<!-- Node90 -->
<g id="node50" class="node">
<title>Node90</title>
<g id="a_node50"><a xlink:href="to__string_8cpp.html" target="_top" xlink:title="Generic to_string functions for a variety of types.">
<polygon fill="none" stroke="black" points="2166,-392.5 2166,-411.5 2246,-411.5 2246,-392.5 2166,-392.5"/>
<text text-anchor="middle" x="2206" y="-399.5" font-family="Helvetica,sans-Serif" font-size="10.00">to_string.cpp</text>
</a>
</g>
</g>
<!-- Node1&#45;&gt;Node90 -->
<g id="edge72" class="edge">
<title>Node1&#45;&gt;Node90</title>
<path fill="none" stroke="midnightblue" d="M1709,-453.55C1803.75,-447.61 1995.59,-433.94 2157,-412 2159.91,-411.6 2162.92,-411.15 2165.94,-410.67"/>
<polygon fill="midnightblue" stroke="midnightblue" points="1708.52,-450.08 1698.76,-454.19 1708.95,-457.06 1708.52,-450.08"/>
</g>
<!-- Node3 -->
<g id="node3" class="node">
<title>Node3</title>
<g id="a_node3"><a xlink:href="flight__phase__manager_8hpp.html" target="_top" xlink:title=" ">
<polygon fill="none" stroke="black" points="457.5,-112.5 457.5,-131.5 602.5,-131.5 602.5,-112.5 457.5,-112.5"/>
<text text-anchor="middle" x="530" y="-119.5" font-family="Helvetica,sans-Serif" font-size="10.00">flight_phase_manager.hpp</text>
</a>
</g>
</g>
<!-- Node2&#45;&gt;Node3 -->
<g id="edge2" class="edge">
<title>Node2&#45;&gt;Node3</title>
<path fill="none" stroke="midnightblue" d="M159.79,-167.23C245.11,-157.04 377.53,-141.22 458.71,-131.52"/>
<polygon fill="midnightblue" stroke="midnightblue" points="159.13,-163.78 149.62,-168.44 159.97,-170.73 159.13,-163.78"/>
</g>
<!-- Node9 -->
<g id="node9" class="node">
<title>Node9</title>
<g id="a_node9"><a xlink:href="flight__phase__predictor_8cpp.html" target="_top" xlink:title=" ">
<polygon fill="none" stroke="black" points="6,-112.5 6,-131.5 150,-131.5 150,-112.5 6,-112.5"/>
<text text-anchor="middle" x="78" y="-119.5" font-family="Helvetica,sans-Serif" font-size="10.00">flight_phase_predictor.cpp</text>
</a>
</g>
</g>
<!-- Node2&#45;&gt;Node9 -->
<g id="edge8" class="edge">
<title>Node2&#45;&gt;Node9</title>
<path fill="none" stroke="midnightblue" d="M78,-157.8C78,-148.91 78,-138.78 78,-131.75"/>
<polygon fill="midnightblue" stroke="midnightblue" points="74.5,-158.08 78,-168.08 81.5,-158.08 74.5,-158.08"/>
</g>
<!-- Node10 -->
<g id="node10" class="node">
<title>Node10</title>
<g id="a_node10"><a xlink:href="test__flight__phase__predictor_8cpp.html" target="_top" xlink:title=" ">
<polygon fill="none" stroke="black" points="170,-112.5 170,-131.5 338,-131.5 338,-112.5 170,-112.5"/>
<text text-anchor="middle" x="254" y="-119.5" font-family="Helvetica,sans-Serif" font-size="10.00">test_flight_phase_predictor.cpp</text>
</a>
</g>
</g>
<!-- Node2&#45;&gt;Node10 -->
<g id="edge9" class="edge">
<title>Node2&#45;&gt;Node10</title>
<path fill="none" stroke="midnightblue" d="M115.69,-165.44C148.87,-155.26 196.43,-140.66 226.24,-131.52"/>
<polygon fill="midnightblue" stroke="midnightblue" points="114.42,-162.16 105.89,-168.44 116.47,-168.86 114.42,-162.16"/>
</g>
<!-- Node4 -->
<g id="node4" class="node">
<title>Node4</title>
<g id="a_node4"><a xlink:href="flight__runner_8hpp.html" target="_top" xlink:title="The main class for the flight system.">
<polygon fill="none" stroke="black" points="2248,-56.5 2248,-75.5 2346,-75.5 2346,-56.5 2248,-56.5"/>
<text text-anchor="middle" x="2297" y="-63.5" font-family="Helvetica,sans-Serif" font-size="10.00">flight_runner.hpp</text>
</a>
</g>
</g>
<!-- Node3&#45;&gt;Node4 -->
<g id="edge3" class="edge">
<title>Node3&#45;&gt;Node4</title>
<path fill="none" stroke="midnightblue" d="M612.97,-114.26C625.38,-113.4 638.02,-112.61 650,-112 1280.62,-79.76 2048.33,-69.66 2247.79,-67.49"/>
<polygon fill="midnightblue" stroke="midnightblue" points="612.35,-110.8 602.62,-115 612.85,-117.78 612.35,-110.8"/>
</g>
<!-- Node8 -->
<g id="node8" class="node">
<title>Node8</title>
<g id="a_node8"><a xlink:href="test__flight__phase__manager_8cpp.html" target="_top" xlink:title=" ">
<polygon fill="none" stroke="black" points="411,-56.5 411,-75.5 579,-75.5 579,-56.5 411,-56.5"/>
<text text-anchor="middle" x="495" y="-63.5" font-family="Helvetica,sans-Serif" font-size="10.00">test_flight_phase_manager.cpp</text>
</a>
</g>
</g>
<!-- Node3&#45;&gt;Node8 -->
<g id="edge7" class="edge">
<title>Node3&#45;&gt;Node8</title>
<path fill="none" stroke="midnightblue" d="M518.7,-103.57C512.68,-94.27 505.53,-83.25 500.67,-75.75"/>
<polygon fill="midnightblue" stroke="midnightblue" points="515.84,-105.6 524.22,-112.08 521.72,-101.79 515.84,-105.6"/>
</g>
<!-- Node5 -->
<g id="node5" class="node">
<title>Node5</title>
<g id="a_node5"><a xlink:href="flight__logic_8cpp.html" target="_top" xlink:title="The implementation of the flight logic within the flight runner.">
<polygon fill="none" stroke="black" points="2140,-0.5 2140,-19.5 2230,-19.5 2230,-0.5 2140,-0.5"/>
<text text-anchor="middle" x="2185" y="-7.5" font-family="Helvetica,sans-Serif" font-size="10.00">flight_logic.cpp</text>
</a>
</g>
</g>
<!-- Node4&#45;&gt;Node5 -->
<g id="edge4" class="edge">
<title>Node4&#45;&gt;Node5</title>
<path fill="none" stroke="midnightblue" d="M2269.75,-51.86C2248.98,-41.85 2220.98,-28.35 2202.95,-19.65"/>
<polygon fill="midnightblue" stroke="midnightblue" points="2268.48,-55.13 2279.01,-56.32 2271.52,-48.83 2268.48,-55.13"/>
</g>
<!-- Node6 -->
<g id="node6" class="node">
<title>Node6</title>
<g id="a_node6"><a xlink:href="flight__runner_8cpp.html" target="_top" xlink:title="The implementation of the flight runner, where everything comes together.">
<polygon fill="none" stroke="black" points="2248,-0.5 2248,-19.5 2346,-19.5 2346,-0.5 2248,-0.5"/>
<text text-anchor="middle" x="2297" y="-7.5" font-family="Helvetica,sans-Serif" font-size="10.00">flight_runner.cpp</text>
</a>
</g>
</g>
<!-- Node4&#45;&gt;Node6 -->
<g id="edge5" class="edge">
<title>Node4&#45;&gt;Node6</title>
<path fill="none" stroke="midnightblue" d="M2297,-45.8C2297,-36.91 2297,-26.78 2297,-19.75"/>
<polygon fill="midnightblue" stroke="midnightblue" points="2293.5,-46.08 2297,-56.08 2300.5,-46.08 2293.5,-46.08"/>
</g>
<!-- Node7 -->
<g id="node7" class="node">
<title>Node7</title>
<g id="a_node7"><a xlink:href="src_2flight__system_2main_8cpp.html" target="_top" xlink:title="Defines the entry point/main function of the Flight Computer software.">
<polygon fill="none" stroke="black" points="2364,-0.5 2364,-19.5 2426,-19.5 2426,-0.5 2364,-0.5"/>
<text text-anchor="middle" x="2395" y="-7.5" font-family="Helvetica,sans-Serif" font-size="10.00">main.cpp</text>
</a>
</g>
</g>
<!-- Node4&#45;&gt;Node7 -->
<g id="edge6" class="edge">
<title>Node4&#45;&gt;Node7</title>
<path fill="none" stroke="midnightblue" d="M2321.59,-51.45C2339.68,-41.48 2363.73,-28.23 2379.29,-19.65"/>
<polygon fill="midnightblue" stroke="midnightblue" points="2319.81,-48.43 2312.75,-56.32 2323.19,-54.56 2319.81,-48.43"/>
</g>
<!-- Node11&#45;&gt;Node4 -->
<g id="edge11" class="edge">
<title>Node11&#45;&gt;Node4</title>
<path fill="none" stroke="midnightblue" d="M2145.16,-390.59C2229.58,-374.24 2373,-339.35 2373,-291 2373,-291 2373,-291 2373,-177 2373,-132.2 2329.8,-92.43 2308.54,-75.57"/>
<polygon fill="midnightblue" stroke="midnightblue" points="2144.33,-387.18 2135.17,-392.49 2145.64,-394.06 2144.33,-387.18"/>
</g>
<!-- Node12 -->
<g id="node12" class="node">
<title>Node12</title>
<g id="a_node12"><a xlink:href="flight__runner__data_8cpp.html" target="_top" xlink:title="Implementation of non&#45;volatile data for the flight runner.">
<polygon fill="none" stroke="black" points="2401.5,-336.5 2401.5,-355.5 2526.5,-355.5 2526.5,-336.5 2401.5,-336.5"/>
<text text-anchor="middle" x="2464" y="-343.5" font-family="Helvetica,sans-Serif" font-size="10.00">flight_runner_data.cpp</text>
</a>
</g>
</g>
<!-- Node11&#45;&gt;Node12 -->
<g id="edge12" class="edge">
<title>Node11&#45;&gt;Node12</title>
<path fill="none" stroke="midnightblue" d="M2155.33,-390.98C2226.92,-380.78 2336.7,-365.14 2404.23,-355.52"/>
<polygon fill="midnightblue" stroke="midnightblue" points="2154.46,-387.57 2145.05,-392.44 2155.45,-394.5 2154.46,-387.57"/>
</g>
<!-- Node13&#45;&gt;Node3 -->
<g id="edge14" class="edge">
<title>Node13&#45;&gt;Node3</title>
<path fill="none" stroke="midnightblue" d="M1662.96,-384.21C1687.96,-349.7 1736.82,-270.16 1695,-224 1615.92,-136.72 756.42,-141.17 639,-132 627.26,-131.08 614.82,-130.08 602.7,-129.09"/>
<polygon fill="midnightblue" stroke="midnightblue" points="1660.08,-382.22 1656.92,-392.33 1665.7,-386.4 1660.08,-382.22"/>
</g>
<!-- Node13&#45;&gt;Node14 -->
<g id="edge15" class="edge">
<title>Node13&#45;&gt;Node14</title>
<path fill="none" stroke="midnightblue" d="M1595.08,-393.22C1520.78,-382.69 1389.36,-364.06 1318.16,-353.97"/>
<polygon fill="midnightblue" stroke="midnightblue" points="1594.78,-396.71 1605.17,-394.65 1595.76,-389.78 1594.78,-396.71"/>
</g>
<!-- Node14&#45;&gt;Node2 -->
<g id="edge37" class="edge">
<title>Node14&#45;&gt;Node2</title>
<path fill="none" stroke="midnightblue" d="M1209.58,-345.01C1017.17,-344.65 412.64,-340.26 222,-300 155.22,-285.9 117.9,-300.08 79,-244 67.29,-227.12 71.73,-201.39 75.27,-187.92"/>
<polygon fill="midnightblue" stroke="midnightblue" points="1209.77,-348.51 1219.78,-345.03 1209.78,-341.51 1209.77,-348.51"/>
</g>
<!-- Node14&#45;&gt;Node3 -->
<g id="edge36" class="edge">
<title>Node14&#45;&gt;Node3</title>
<path fill="none" stroke="midnightblue" d="M1307.49,-332.71C1325.26,-325.48 1345.56,-314.79 1360,-300 1384.93,-274.45 1409.69,-250.71 1386,-224 1360.03,-194.72 804.61,-145.82 602.62,-128.94"/>
<polygon fill="midnightblue" stroke="midnightblue" points="1306.01,-329.53 1297.93,-336.38 1308.52,-336.07 1306.01,-329.53"/>
</g>
<!-- Node14&#45;&gt;Node4 -->
<g id="edge45" class="edge">
<title>Node14&#45;&gt;Node4</title>
<path fill="none" stroke="midnightblue" d="M1328.3,-344.83C1504.12,-343.9 2020.41,-337.93 2184,-300 2255.18,-283.5 2335,-308.06 2335,-235 2335,-235 2335,-235 2335,-177 2335,-137.4 2312.73,-93.96 2302.28,-75.77"/>
<polygon fill="midnightblue" stroke="midnightblue" points="1328.19,-341.33 1318.21,-344.88 1328.23,-348.33 1328.19,-341.33"/>
</g>
<!-- Node15 -->
<g id="node15" class="node">
<title>Node15</title>
<g id="a_node15"><a xlink:href="cfg__section_8hpp.html" target="_top" xlink:title="This file contains the base class for all configuration sections.">
<polygon fill="none" stroke="black" points="1448.5,-280.5 1448.5,-299.5 1541.5,-299.5 1541.5,-280.5 1448.5,-280.5"/>
<text text-anchor="middle" x="1495" y="-287.5" font-family="Helvetica,sans-Serif" font-size="10.00">cfg_section.hpp</text>
</a>
</g>
</g>
<!-- Node14&#45;&gt;Node15 -->
<g id="edge16" class="edge">
<title>Node14&#45;&gt;Node15</title>
<path fill="none" stroke="midnightblue" d="M1314.67,-334.09C1357.36,-323.89 1420.25,-308.86 1459.36,-299.52"/>
<polygon fill="midnightblue" stroke="midnightblue" points="1313.72,-330.72 1304.81,-336.44 1315.35,-337.52 1313.72,-330.72"/>
</g>
<!-- Node20 -->
<g id="node18" class="node">
<title>Node20</title>
<g id="a_node18"><a xlink:href="extension__base_8hpp.html" target="_top" xlink:title="The new implementation of the extension system.">
<polygon fill="none" stroke="black" points="1615,-168.5 1615,-187.5 1729,-187.5 1729,-168.5 1615,-168.5"/>
<text text-anchor="middle" x="1672" y="-175.5" font-family="Helvetica,sans-Serif" font-size="10.00">extension_base.hpp</text>
</a>
</g>
</g>
<!-- Node14&#45;&gt;Node20 -->
<g id="edge35" class="edge">
<title>Node14&#45;&gt;Node20</title>
<path fill="none" stroke="midnightblue" d="M1328.15,-340.48C1435.2,-330.87 1653.84,-304.17 1695,-244 1707.3,-226.02 1690.49,-200.75 1679.74,-187.65"/>
<polygon fill="midnightblue" stroke="midnightblue" points="1327.81,-337 1318.15,-341.36 1328.42,-343.97 1327.81,-337"/>
</g>
<!-- Node47 -->
<g id="node32" class="node">
<title>Node47</title>
<g id="a_node32"><a xlink:href="prediction__parameters_8hpp.html" target="_top" xlink:title=" ">
<polygon fill="none" stroke="black" points="231,-280.5 231,-299.5 379,-299.5 379,-280.5 231,-280.5"/>
<text text-anchor="middle" x="305" y="-287.5" font-family="Helvetica,sans-Serif" font-size="10.00">prediction_parameters.hpp</text>
</a>
</g>
</g>
<!-- Node14&#45;&gt;Node47 -->
<g id="edge38" class="edge">
<title>Node14&#45;&gt;Node47</title>
<path fill="none" stroke="midnightblue" d="M1209.74,-341.68C1041.93,-332.28 563.66,-305.49 379,-295.15"/>
<polygon fill="midnightblue" stroke="midnightblue" points="1209.69,-345.18 1219.87,-342.25 1210.08,-338.19 1209.69,-345.18"/>
</g>
<!-- Node53 -->
<g id="node36" class="node">
<title>Node53</title>
<g id="a_node36"><a xlink:href="console__pages_8hpp.html" target="_top" xlink:title=" ">
<polygon fill="none" stroke="red" points="2065,-280.5 2065,-299.5 2175,-299.5 2175,-280.5 2065,-280.5"/>
<text text-anchor="middle" x="2120" y="-287.5" font-family="Helvetica,sans-Serif" font-size="10.00">console_pages.hpp</text>
</a>
</g>
</g>
<!-- Node14&#45;&gt;Node53 -->
<g id="edge46" class="edge">
<title>Node14&#45;&gt;Node53</title>
<path fill="none" stroke="midnightblue" d="M1328.63,-343.27C1460.2,-339.09 1785.16,-326.74 2056,-300 2058.9,-299.71 2061.88,-299.39 2064.88,-299.05"/>
<polygon fill="midnightblue" stroke="midnightblue" points="1328.26,-339.78 1318.38,-343.59 1328.48,-346.78 1328.26,-339.78"/>
</g>
<!-- Node59 -->
<g id="node38" class="node">
<title>Node59</title>
<g id="a_node38"><a xlink:href="adc__interpolation_8hpp.html" target="_top" xlink:title="ADC Interpolation Utility.">
<polygon fill="none" stroke="red" points="1121,-224.5 1121,-243.5 1243,-243.5 1243,-224.5 1121,-224.5"/>
<text text-anchor="middle" x="1182" y="-231.5" font-family="Helvetica,sans-Serif" font-size="10.00">adc_interpolation.hpp</text>
</a>
</g>
</g>
<!-- Node14&#45;&gt;Node59 -->
<g id="edge49" class="edge">
<title>Node14&#45;&gt;Node59</title>
<path fill="none" stroke="midnightblue" d="M1290.02,-330.16C1306.24,-316.86 1324.03,-296.89 1312,-280 1301.3,-264.97 1256.16,-251.69 1222.06,-243.52"/>
<polygon fill="midnightblue" stroke="midnightblue" points="1287.64,-327.58 1281.85,-336.46 1291.91,-333.13 1287.64,-327.58"/>
</g>
<!-- Node64 -->
<g id="node39" class="node">
<title>Node64</title>
<g id="a_node39"><a xlink:href="calculated__data_8hpp.html" target="_top" xlink:title="Calculates new data from the existing data.">
<polygon fill="none" stroke="red" points="1261.5,-224.5 1261.5,-243.5 1376.5,-243.5 1376.5,-224.5 1261.5,-224.5"/>
<text text-anchor="middle" x="1319" y="-231.5" font-family="Helvetica,sans-Serif" font-size="10.00">calculated_data.hpp</text>
</a>
</g>
</g>
<!-- Node14&#45;&gt;Node64 -->
<g id="edge50" class="edge">
<title>Node14&#45;&gt;Node64</title>
<path fill="none" stroke="midnightblue" d="M1306.52,-332.23C1321.23,-325.16 1336.59,-314.75 1345,-300 1355.83,-280.99 1338.58,-256.58 1327.38,-243.76"/>
<polygon fill="midnightblue" stroke="midnightblue" points="1304.76,-329.17 1297.02,-336.4 1307.58,-335.58 1304.76,-329.17"/>
</g>
<!-- Node66 -->
<g id="node40" class="node">
<title>Node66</title>
<g id="a_node40"><a xlink:href="data__formatting_8hpp.html" target="_top" xlink:title="This file contains the DataFormatter class, which is used to format data for the data and log files.">
<polygon fill="none" stroke="red" points="695,-280.5 695,-299.5 811,-299.5 811,-280.5 695,-280.5"/>
<text text-anchor="middle" x="753" y="-287.5" font-family="Helvetica,sans-Serif" font-size="10.00">data_formatting.hpp</text>
</a>
</g>
</g>
<!-- Node14&#45;&gt;Node66 -->
<g id="edge51" class="edge">
<title>Node14&#45;&gt;Node66</title>
<path fill="none" stroke="midnightblue" d="M1209.68,-339.43C1124.49,-331.33 962.6,-315.57 825,-300 820.49,-299.49 815.83,-298.95 811.15,-298.39"/>
<polygon fill="midnightblue" stroke="midnightblue" points="1209.4,-342.92 1219.68,-340.38 1210.06,-335.95 1209.4,-342.92"/>
</g>
<!-- Node68 -->
<g id="node41" class="node">
<title>Node68</title>
<g id="a_node41"><a xlink:href="data__log_8hpp.html" target="_top" xlink:title="The data log is responsible for writing data to files and managing the file system.">
<polygon fill="none" stroke="red" points="678,-224.5 678,-243.5 758,-243.5 758,-224.5 678,-224.5"/>
<text text-anchor="middle" x="718" y="-231.5" font-family="Helvetica,sans-Serif" font-size="10.00">data_log.hpp</text>
</a>
</g>
</g>
<!-- Node14&#45;&gt;Node68 -->
<g id="edge53" class="edge">
<title>Node14&#45;&gt;Node68</title>
<path fill="none" stroke="midnightblue" d="M1209.74,-344.88C1068.48,-343.97 721.07,-337.88 686,-300 670.28,-283.02 693.69,-256.87 708.1,-243.5"/>
<polygon fill="midnightblue" stroke="midnightblue" points="1209.93,-348.38 1219.95,-344.94 1209.97,-341.38 1209.93,-348.38"/>
</g>
<!-- Node70 -->
<g id="node42" class="node">
<title>Node70</title>
<g id="a_node42"><a xlink:href="file__system__manager_8hpp.html" target="_top" xlink:title=" ">
<polygon fill="none" stroke="red" points="785,-224.5 785,-243.5 927,-243.5 927,-224.5 785,-224.5"/>
<text text-anchor="middle" x="856" y="-231.5" font-family="Helvetica,sans-Serif" font-size="10.00">file_system_manager.hpp</text>
</a>
</g>
</g>
<!-- Node14&#45;&gt;Node70 -->
<g id="edge54" class="edge">
<title>Node14&#45;&gt;Node70</title>
<path fill="none" stroke="midnightblue" d="M1209.85,-342.69C1102.06,-337.88 882.56,-325.1 859,-300 844.77,-284.85 849.45,-257.9 853.2,-243.94"/>
<polygon fill="midnightblue" stroke="midnightblue" points="1209.78,-346.19 1219.92,-343.13 1210.08,-339.2 1209.78,-346.19"/>
</g>
<!-- Node71 -->
<g id="node43" class="node">
<title>Node71</title>
<g id="a_node43"><a xlink:href="influxdb_8hpp.html" target="_top" xlink:title=" ">
<polygon fill="none" stroke="red" points="867.5,-280.5 867.5,-299.5 944.5,-299.5 944.5,-280.5 867.5,-280.5"/>
<text text-anchor="middle" x="906" y="-287.5" font-family="Helvetica,sans-Serif" font-size="10.00">influxdb.hpp</text>
</a>
</g>
</g>
<!-- Node14&#45;&gt;Node71 -->
<g id="edge55" class="edge">
<title>Node14&#45;&gt;Node71</title>
<path fill="none" stroke="midnightblue" d="M1209.58,-337.29C1146.17,-328.89 1042.8,-314.66 954,-300 950.99,-299.5 947.87,-298.97 944.75,-298.41"/>
<polygon fill="midnightblue" stroke="midnightblue" points="1209.42,-340.8 1219.79,-338.64 1210.34,-333.86 1209.42,-340.8"/>
</g>
<!-- Node73 -->
<g id="node44" class="node">
<title>Node73</title>
<g id="a_node44"><a xlink:href="module_8hpp.html" target="_top" xlink:title="The header file for the base module class.">
<polygon fill="none" stroke="red" points="1973,-280.5 1973,-299.5 2047,-299.5 2047,-280.5 1973,-280.5"/>
<text text-anchor="middle" x="2010" y="-287.5" font-family="Helvetica,sans-Serif" font-size="10.00">module.hpp</text>
</a>
</g>
</g>
<!-- Node14&#45;&gt;Node73 -->
<g id="edge56" class="edge">
<title>Node14&#45;&gt;Node73</title>
<path fill="none" stroke="midnightblue" d="M1328.37,-340.67C1475.29,-329.97 1852.64,-302.47 1972.72,-293.72"/>
<polygon fill="midnightblue" stroke="midnightblue" points="1327.91,-337.2 1318.19,-341.42 1328.42,-344.18 1327.91,-337.2"/>
</g>
<!-- Node81 -->
<g id="node45" class="node">
<title>Node81</title>
<g id="a_node45"><a xlink:href="request__handler_8hpp.html" target="_top" xlink:title="The request handler class header.">
<polygon fill="none" stroke="red" points="949,-224.5 949,-243.5 1065,-243.5 1065,-224.5 949,-224.5"/>
<text text-anchor="middle" x="1007" y="-231.5" font-family="Helvetica,sans-Serif" font-size="10.00">request_handler.hpp</text>
</a>
</g>
</g>
<!-- Node14&#45;&gt;Node81 -->
<g id="edge59" class="edge">
<title>Node14&#45;&gt;Node81</title>
<path fill="none" stroke="midnightblue" d="M1253.39,-328.98C1238.06,-314.15 1213.36,-292.56 1188,-280 1149.27,-260.81 1101.71,-249.4 1065.06,-242.87"/>
<polygon fill="midnightblue" stroke="midnightblue" points="1251.32,-331.85 1260.88,-336.42 1256.25,-326.89 1251.32,-331.85"/>
</g>
<!-- Node86 -->
<g id="node46" class="node">
<title>Node86</title>
<g id="a_node46"><a xlink:href="logger_8hpp.html" target="_top" xlink:title="A simple logger class so difference classes have access to the same logger.">
<polygon fill="none" stroke="black" points="1235,-280.5 1235,-299.5 1303,-299.5 1303,-280.5 1235,-280.5"/>
<text text-anchor="middle" x="1269" y="-287.5" font-family="Helvetica,sans-Serif" font-size="10.00">logger.hpp</text>
</a>
</g>
</g>
<!-- Node14&#45;&gt;Node86 -->
<g id="edge60" class="edge">
<title>Node14&#45;&gt;Node86</title>
<path fill="none" stroke="midnightblue" d="M1269,-325.8C1269,-316.91 1269,-306.78 1269,-299.75"/>
<polygon fill="midnightblue" stroke="midnightblue" points="1265.5,-326.08 1269,-336.08 1272.5,-326.08 1265.5,-326.08"/>
</g>
<!-- Node87 -->
<g id="node47" class="node">
<title>Node87</title>
<g id="a_node47"><a xlink:href="to__json_8cpp.html" target="_top" xlink:title=" ">
<polygon fill="none" stroke="black" points="963,-280.5 963,-299.5 1035,-299.5 1035,-280.5 963,-280.5"/>
<text text-anchor="middle" x="999" y="-287.5" font-family="Helvetica,sans-Serif" font-size="10.00">to_json.cpp</text>
</a>
</g>
</g>
<!-- Node14&#45;&gt;Node87 -->
<g id="edge66" class="edge">
<title>Node14&#45;&gt;Node87</title>
<path fill="none" stroke="midnightblue" d="M1216.25,-334.45C1162.82,-323.76 1081.61,-307.52 1035.1,-298.22"/>
<polygon fill="midnightblue" stroke="midnightblue" points="1215.73,-337.91 1226.22,-336.44 1217.1,-331.05 1215.73,-337.91"/>
</g>
<!-- Node88 -->
<g id="node48" class="node">
<title>Node88</title>
<g id="a_node48"><a xlink:href="shared__data__helpers_8hpp.html" target="_top" xlink:title=" ">
<polygon fill="none" stroke="black" points="359.5,-168.5 359.5,-187.5 498.5,-187.5 498.5,-168.5 359.5,-168.5"/>
<text text-anchor="middle" x="429" y="-175.5" font-family="Helvetica,sans-Serif" font-size="10.00">shared_data_helpers.hpp</text>
</a>
</g>
</g>
<!-- Node14&#45;&gt;Node88 -->
<g id="edge67" class="edge">
<title>Node14&#45;&gt;Node88</title>
<path fill="none" stroke="midnightblue" d="M1209.39,-343.5C1068.04,-339.5 720.94,-327.03 676,-300 641.77,-279.4 660.63,-247.05 628,-224 590.39,-197.44 539.66,-186.25 498.83,-181.67"/>
<polygon fill="midnightblue" stroke="midnightblue" points="1209.52,-347 1219.61,-343.78 1209.71,-340 1209.52,-347"/>
</g>
<!-- Node89 -->
<g id="node49" class="node">
<title>Node89</title>
<g id="a_node49"><a xlink:href="test__configuration_8cpp.html" target="_top" xlink:title=" ">
<polygon fill="none" stroke="black" points="1053.5,-280.5 1053.5,-299.5 1178.5,-299.5 1178.5,-280.5 1053.5,-280.5"/>
<text text-anchor="middle" x="1116" y="-287.5" font-family="Helvetica,sans-Serif" font-size="10.00">test_configuration.cpp</text>
</a>
</g>
</g>
<!-- Node14&#45;&gt;Node89 -->
<g id="edge70" class="edge">
<title>Node14&#45;&gt;Node89</title>
<path fill="none" stroke="midnightblue" d="M1235.11,-333.04C1206.32,-322.88 1165.71,-308.55 1140.13,-299.52"/>
<polygon fill="midnightblue" stroke="midnightblue" points="1234.16,-336.42 1244.76,-336.44 1236.49,-329.81 1234.16,-336.42"/>
</g>
<!-- Node16 -->
<g id="node16" class="node">
<title>Node16</title>
<g id="a_node16"><a xlink:href="cfg__adcmappings_8hpp.html" target="_top" xlink:title=" ">
<polygon fill="none" stroke="red" points="1433.5,-224.5 1433.5,-243.5 1556.5,-243.5 1556.5,-224.5 1433.5,-224.5"/>
<text text-anchor="middle" x="1495" y="-231.5" font-family="Helvetica,sans-Serif" font-size="10.00">cfg_adcmappings.hpp</text>
</a>
</g>
</g>
<!-- Node15&#45;&gt;Node16 -->
<g id="edge17" class="edge">
<title>Node15&#45;&gt;Node16</title>
<path fill="none" stroke="midnightblue" d="M1495,-269.8C1495,-260.91 1495,-250.78 1495,-243.75"/>
<polygon fill="midnightblue" stroke="midnightblue" points="1491.5,-270.08 1495,-280.08 1498.5,-270.08 1491.5,-270.08"/>
</g>
<!-- Node18 -->
<g id="node17" class="node">
<title>Node18</title>
<g id="a_node17"><a xlink:href="cfg__extensions_8hpp.html" target="_top" xlink:title="The header file for the extensions section of the configuration.">
<polygon fill="none" stroke="red" points="1574.5,-224.5 1574.5,-243.5 1685.5,-243.5 1685.5,-224.5 1574.5,-224.5"/>
<text text-anchor="middle" x="1630" y="-231.5" font-family="Helvetica,sans-Serif" font-size="10.00">cfg_extensions.hpp</text>
</a>
</g>
</g>
<!-- Node15&#45;&gt;Node18 -->
<g id="edge18" class="edge">
<title>Node15&#45;&gt;Node18</title>
<path fill="none" stroke="midnightblue" d="M1525.91,-276.64C1551.24,-266.5 1586.43,-252.43 1608.71,-243.52"/>
<polygon fill="midnightblue" stroke="midnightblue" points="1524.38,-273.48 1516.39,-280.44 1526.98,-279.98 1524.38,-273.48"/>
</g>
<!-- Node18&#45;&gt;Node20 -->
<g id="edge19" class="edge">
<title>Node18&#45;&gt;Node20</title>
<path fill="none" stroke="midnightblue" d="M1643.11,-216.14C1650.43,-206.74 1659.24,-195.4 1665.19,-187.75"/>
<polygon fill="midnightblue" stroke="midnightblue" points="1640.31,-214.04 1636.94,-224.08 1645.84,-218.34 1640.31,-214.04"/>
</g>
<!-- Node21 -->
<g id="node19" class="node">
<title>Node21</title>
<g id="a_node19"><a xlink:href="adc__extension__base_8hpp.html" target="_top" xlink:title="Generic ADC Extension Wrapper.">
<polygon fill="none" stroke="red" points="1008.5,-112.5 1008.5,-131.5 1145.5,-131.5 1145.5,-112.5 1008.5,-112.5"/>
<text text-anchor="middle" x="1077" y="-119.5" font-family="Helvetica,sans-Serif" font-size="10.00">adc_extension_base.hpp</text>
</a>
</g>
</g>
<!-- Node20&#45;&gt;Node21 -->
<g id="edge20" class="edge">
<title>Node20&#45;&gt;Node21</title>
<path fill="none" stroke="midnightblue" d="M1604.36,-168.35C1603.23,-168.23 1602.11,-168.12 1601,-168 1403.19,-147.49 1352.92,-151.4 1155,-132 1152.02,-131.71 1148.97,-131.4 1145.89,-131.08"/>
<polygon fill="midnightblue" stroke="midnightblue" points="1604.35,-171.87 1614.67,-169.51 1605.12,-164.92 1604.35,-171.87"/>
</g>
<!-- Node26 -->
<g id="node20" class="node">
<title>Node26</title>
<g id="a_node20"><a xlink:href="bme280_8hpp.html" target="_top" xlink:title="The BME280 sensor extension.">
<polygon fill="none" stroke="red" points="1163.5,-112.5 1163.5,-131.5 1240.5,-131.5 1240.5,-112.5 1163.5,-112.5"/>
<text text-anchor="middle" x="1202" y="-119.5" font-family="Helvetica,sans-Serif" font-size="10.00">bme280.hpp</text>
</a>
</g>
</g>
<!-- Node20&#45;&gt;Node26 -->
<g id="edge21" class="edge">
<title>Node20&#45;&gt;Node26</title>
<path fill="none" stroke="midnightblue" d="M1604.36,-168.39C1603.23,-168.26 1602.11,-168.13 1601,-168 1445.2,-150.14 1405.2,-154.47 1250,-132 1246.98,-131.56 1243.86,-131.07 1240.73,-130.55"/>
<polygon fill="midnightblue" stroke="midnightblue" points="1604.32,-171.91 1614.66,-169.61 1605.15,-164.96 1604.32,-171.91"/>
</g>
<!-- Node28 -->
<g id="node21" class="node">
<title>Node28</title>
<g id="a_node21"><a xlink:href="bmi088_8hpp.html" target="_top" xlink:title="Extension for the Bosch BMI088 IMU.">
<polygon fill="none" stroke="red" points="628,-56.5 628,-75.5 702,-75.5 702,-56.5 628,-56.5"/>
<text text-anchor="middle" x="665" y="-63.5" font-family="Helvetica,sans-Serif" font-size="10.00">bmi088.hpp</text>
</a>
</g>
</g>
<!-- Node20&#45;&gt;Node28 -->
<g id="edge22" class="edge">
<title>Node20&#45;&gt;Node28</title>
<path fill="none" stroke="midnightblue" d="M1604.37,-168.29C1603.24,-168.19 1602.11,-168.09 1601,-168 1548.31,-163.67 686.67,-170.09 650,-132 635.22,-116.65 649.44,-89.79 658.6,-75.89"/>
<polygon fill="midnightblue" stroke="midnightblue" points="1604.4,-171.81 1614.69,-169.3 1605.08,-164.84 1604.4,-171.81"/>
</g>
<!-- Node30 -->
<g id="node22" class="node">
<title>Node30</title>
<g id="a_node22"><a xlink:href="ds18b20_8hpp.html" target="_top" xlink:title="DS18B20 extension header file.">
<polygon fill="none" stroke="red" points="1415.5,-112.5 1415.5,-131.5 1494.5,-131.5 1494.5,-112.5 1415.5,-112.5"/>
<text text-anchor="middle" x="1455" y="-119.5" font-family="Helvetica,sans-Serif" font-size="10.00">ds18b20.hpp</text>
</a>
</g>
</g>
<!-- Node20&#45;&gt;Node30 -->
<g id="edge23" class="edge">
<title>Node20&#45;&gt;Node30</title>
<path fill="none" stroke="midnightblue" d="M1627.89,-166.02C1586.9,-155.82 1526.7,-140.84 1489.22,-131.52"/>
<polygon fill="midnightblue" stroke="midnightblue" points="1627.07,-169.43 1637.62,-168.44 1628.76,-162.63 1627.07,-169.43"/>
</g>
<!-- Node32 -->
<g id="node23" class="node">
<title>Node32</title>
<g id="a_node23"><a xlink:href="extension__base_8cpp.html" target="_top" xlink:title="The new implementation of the extension system.">
<polygon fill="none" stroke="black" points="1512.5,-112.5 1512.5,-131.5 1625.5,-131.5 1625.5,-112.5 1512.5,-112.5"/>
<text text-anchor="middle" x="1569" y="-119.5" font-family="Helvetica,sans-Serif" font-size="10.00">extension_base.cpp</text>
</a>
</g>
</g>
<!-- Node20&#45;&gt;Node32 -->
<g id="edge24" class="edge">
<title>Node20&#45;&gt;Node32</title>
<path fill="none" stroke="midnightblue" d="M1646.42,-163.59C1627.38,-153.61 1601.94,-140.27 1585.51,-131.65"/>
<polygon fill="midnightblue" stroke="midnightblue" points="1644.97,-166.78 1655.45,-168.32 1648.22,-160.58 1644.97,-166.78"/>
</g>
<!-- Node33 -->
<g id="node24" class="node">
<title>Node33</title>
<g id="a_node24"><a xlink:href="i2c__extension__adapter_8hpp.html" target="_top" xlink:title="Adapter for I2C Extensions.">
<polygon fill="none" stroke="red" points="1643.5,-112.5 1643.5,-131.5 1790.5,-131.5 1790.5,-112.5 1643.5,-112.5"/>
<text text-anchor="middle" x="1717" y="-119.5" font-family="Helvetica,sans-Serif" font-size="10.00">i2c_extension_adapter.hpp</text>
</a>
</g>
</g>
<!-- Node20&#45;&gt;Node33 -->
<g id="edge25" class="edge">
<title>Node20&#45;&gt;Node33</title>
<path fill="none" stroke="midnightblue" d="M1686.05,-160.14C1693.89,-150.74 1703.33,-139.4 1709.71,-131.75"/>
<polygon fill="midnightblue" stroke="midnightblue" points="1683.14,-158.16 1679.43,-168.08 1688.52,-162.64 1683.14,-158.16"/>
</g>
<!-- Node34 -->
<g id="node25" class="node">
<title>Node34</title>
<g id="a_node25"><a xlink:href="imu__extension__base_8hpp.html" target="_top" xlink:title="Base IMU Extension.">
<polygon fill="none" stroke="black" points="1259,-112.5 1259,-131.5 1397,-131.5 1397,-112.5 1259,-112.5"/>
<text text-anchor="middle" x="1328" y="-119.5" font-family="Helvetica,sans-Serif" font-size="10.00">imu_extension_base.hpp</text>
</a>
</g>
</g>
<!-- Node20&#45;&gt;Node34 -->
<g id="edge26" class="edge">
<title>Node20&#45;&gt;Node34</title>
<path fill="none" stroke="midnightblue" d="M1607.36,-166.85C1542.37,-156.65 1443.29,-141.1 1382.25,-131.52"/>
<polygon fill="midnightblue" stroke="midnightblue" points="1607.07,-170.35 1617.49,-168.44 1608.16,-163.44 1607.07,-170.35"/>
</g>
<!-- Node35 -->
<g id="node26" class="node">
<title>Node35</title>
<g id="a_node26"><a xlink:href="pi__camera_8hpp.html" target="_top" xlink:title="Raspberry Pi Camera Extension.">
<polygon fill="none" stroke="red" points="1808.5,-112.5 1808.5,-131.5 1897.5,-131.5 1897.5,-112.5 1808.5,-112.5"/>
<text text-anchor="middle" x="1853" y="-119.5" font-family="Helvetica,sans-Serif" font-size="10.00">pi_camera.hpp</text>
</a>
</g>
</g>
<!-- Node20&#45;&gt;Node35 -->
<g id="edge28" class="edge">
<title>Node20&#45;&gt;Node35</title>
<path fill="none" stroke="midnightblue" d="M1710.32,-165.57C1744.46,-155.38 1793.66,-140.7 1824.45,-131.52"/>
<polygon fill="midnightblue" stroke="midnightblue" points="1709.26,-162.23 1700.68,-168.44 1711.26,-168.94 1709.26,-162.23"/>
</g>
<!-- Node37 -->
<g id="node27" class="node">
<title>Node37</title>
<g id="a_node27"><a xlink:href="rgb__status__led_8hpp.html" target="_top" xlink:title=" ">
<polygon fill="none" stroke="red" points="1915.5,-112.5 1915.5,-131.5 2024.5,-131.5 2024.5,-112.5 1915.5,-112.5"/>
<text text-anchor="middle" x="1970" y="-119.5" font-family="Helvetica,sans-Serif" font-size="10.00">rgb_status_led.hpp</text>
</a>
</g>
</g>
<!-- Node20&#45;&gt;Node37 -->
<g id="edge29" class="edge">
<title>Node20&#45;&gt;Node37</title>
<path fill="none" stroke="midnightblue" d="M1729.39,-166.6C1785.71,-156.4 1870.56,-141.02 1923,-131.52"/>
<polygon fill="midnightblue" stroke="midnightblue" points="1728.43,-163.22 1719.22,-168.44 1729.68,-170.1 1728.43,-163.22"/>
</g>
<!-- Node39 -->
<g id="node28" class="node">
<title>Node39</title>
<g id="a_node28"><a xlink:href="samm8q_8hpp.html" target="_top" xlink:title="SAM&#45;M8Q GPS extension (I2C).">
<polygon fill="none" stroke="red" points="2043,-112.5 2043,-131.5 2123,-131.5 2123,-112.5 2043,-112.5"/>
<text text-anchor="middle" x="2083" y="-119.5" font-family="Helvetica,sans-Serif" font-size="10.00">samm8q.hpp</text>
</a>
</g>
</g>
<!-- Node20&#45;&gt;Node39 -->
<g id="edge30" class="edge">
<title>Node20&#45;&gt;Node39</title>
<path fill="none" stroke="midnightblue" d="M1739.15,-169.83C1811.95,-161.79 1931.47,-147.77 2034,-132 2036.91,-131.55 2039.91,-131.07 2042.92,-130.56"/>
<polygon fill="midnightblue" stroke="midnightblue" points="1738.75,-166.35 1729.2,-170.93 1739.52,-173.31 1738.75,-166.35"/>
</g>
<!-- Node41 -->
<g id="node29" class="node">
<title>Node41</title>
<g id="a_node29"><a xlink:href="extension__module_8hpp.html" target="_top" xlink:title="This is the header file for the new extension module.">
<polygon fill="none" stroke="red" points="2141,-112.5 2141,-131.5 2269,-131.5 2269,-112.5 2141,-112.5"/>
<text text-anchor="middle" x="2205" y="-119.5" font-family="Helvetica,sans-Serif" font-size="10.00">extension_module.hpp</text>
</a>
</g>
</g>
<!-- Node20&#45;&gt;Node41 -->
<g id="edge31" class="edge">
<title>Node20&#45;&gt;Node41</title>
<path fill="none" stroke="midnightblue" d="M1739.09,-170.97C1828.71,-162.79 1992.42,-147.43 2132,-132 2134.92,-131.68 2137.9,-131.34 2140.92,-130.99"/>
<polygon fill="midnightblue" stroke="midnightblue" points="1738.7,-167.49 1729.06,-171.88 1739.34,-174.46 1738.7,-167.49"/>
</g>
<!-- Node44 -->
<g id="node30" class="node">
<title>Node44</title>
<g id="a_node30"><a xlink:href="extension__test__framework_8hpp.html" target="_top" xlink:title="Basic helpers for unit testing extensions on the host.">
<polygon fill="none" stroke="red" points="659,-112.5 659,-131.5 827,-131.5 827,-112.5 659,-112.5"/>
<text text-anchor="middle" x="743" y="-119.5" font-family="Helvetica,sans-Serif" font-size="10.00">extension_test_framework.hpp</text>
</a>
</g>
</g>
<!-- Node20&#45;&gt;Node44 -->
<g id="edge33" class="edge">
<title>Node20&#45;&gt;Node44</title>
<path fill="none" stroke="midnightblue" d="M1604.37,-168.3C1603.24,-168.2 1602.11,-168.1 1601,-168 1262.34,-138.6 1176.07,-156.21 837,-132 833.73,-131.77 830.4,-131.51 827.03,-131.25"/>
<polygon fill="midnightblue" stroke="midnightblue" points="1604.39,-171.82 1614.69,-169.34 1605.09,-164.86 1604.39,-171.82"/>
</g>
<!-- Node46 -->
<g id="node31" class="node">
<title>Node46</title>
<g id="a_node31"><a xlink:href="simulated__extensions_8hpp.html" target="_top" xlink:title="This contains the simulated extensions for testing the flight system.">
<polygon fill="none" stroke="black" points="845.5,-112.5 845.5,-131.5 990.5,-131.5 990.5,-112.5 845.5,-112.5"/>
<text text-anchor="middle" x="918" y="-119.5" font-family="Helvetica,sans-Serif" font-size="10.00">simulated_extensions.hpp</text>
</a>
</g>
</g>
<!-- Node20&#45;&gt;Node46 -->
<g id="edge34" class="edge">
<title>Node20&#45;&gt;Node46</title>
<path fill="none" stroke="midnightblue" d="M1604.37,-168.32C1603.24,-168.21 1602.11,-168.1 1601,-168 1334.57,-143.16 1266.63,-154.6 1000,-132 997,-131.75 993.95,-131.47 990.86,-131.19"/>
<polygon fill="midnightblue" stroke="midnightblue" points="1604.37,-171.84 1614.68,-169.4 1605.1,-164.88 1604.37,-171.84"/>
</g>
<!-- Node34&#45;&gt;Node28 -->
<g id="edge27" class="edge">
<title>Node34&#45;&gt;Node28</title>
<path fill="none" stroke="midnightblue" d="M1248.57,-111.89C1035.42,-91.6 793.04,-75.25 702,-69.35"/>
<polygon fill="midnightblue" stroke="midnightblue" points="1248.4,-115.4 1258.69,-112.86 1249.07,-108.43 1248.4,-115.4"/>
</g>
<!-- Node41&#45;&gt;Node4 -->
<g id="edge32" class="edge">
<title>Node41&#45;&gt;Node4</title>
<path fill="none" stroke="midnightblue" d="M2228.55,-107.18C2245.48,-97.24 2267.78,-84.15 2282.26,-75.65"/>
<polygon fill="midnightblue" stroke="midnightblue" points="2226.63,-104.24 2219.78,-112.32 2230.18,-110.28 2226.63,-104.24"/>
</g>
<!-- Node47&#45;&gt;Node2 -->
<g id="edge39" class="edge">
<title>Node47&#45;&gt;Node2</title>
<path fill="none" stroke="midnightblue" d="M221.06,-280.04C170.79,-273 113.22,-261.42 95,-244 79.32,-229.01 77.45,-201.49 77.6,-187.56"/>
<polygon fill="midnightblue" stroke="midnightblue" points="220.62,-283.51 231,-281.39 221.56,-276.57 220.62,-283.51"/>
</g>
<!-- Node47&#45;&gt;Node10 -->
<g id="edge43" class="edge">
<title>Node47&#45;&gt;Node10</title>
<path fill="none" stroke="midnightblue" d="M290.53,-272.59C284.16,-264.51 277.2,-254.3 273,-244 256.79,-204.22 254.33,-151.88 254.02,-131.57"/>
<polygon fill="midnightblue" stroke="midnightblue" points="287.95,-274.97 297.03,-280.43 293.34,-270.5 287.95,-274.97"/>
</g>
<!-- Node48 -->
<g id="node33" class="node">
<title>Node48</title>
<g id="a_node33"><a xlink:href="prediction__model_8hpp.html" target="_top" xlink:title=" ">
<polygon fill="none" stroke="red" points="104,-224.5 104,-243.5 226,-243.5 226,-224.5 104,-224.5"/>
<text text-anchor="middle" x="165" y="-231.5" font-family="Helvetica,sans-Serif" font-size="10.00">prediction_model.hpp</text>
</a>
</g>
</g>
<!-- Node47&#45;&gt;Node48 -->
<g id="edge40" class="edge">
<title>Node47&#45;&gt;Node48</title>
<path fill="none" stroke="midnightblue" d="M273.3,-276.77C247,-266.63 210.28,-252.47 187.08,-243.52"/>
<polygon fill="midnightblue" stroke="midnightblue" points="272.23,-280.11 282.82,-280.44 274.75,-273.58 272.23,-280.11"/>
</g>
<!-- Node51 -->
<g id="node34" class="node">
<title>Node51</title>
<g id="a_node34"><a xlink:href="prediction__parameters_8cpp.html" target="_top" xlink:title=" ">
<polygon fill="none" stroke="black" points="282.5,-224.5 282.5,-243.5 429.5,-243.5 429.5,-224.5 282.5,-224.5"/>
<text text-anchor="middle" x="356" y="-231.5" font-family="Helvetica,sans-Serif" font-size="10.00">prediction_parameters.cpp</text>
</a>
</g>
</g>
<!-- Node47&#45;&gt;Node51 -->
<g id="edge42" class="edge">
<title>Node47&#45;&gt;Node51</title>
<path fill="none" stroke="midnightblue" d="M320.38,-272.72C329.37,-263.2 340.36,-251.56 347.74,-243.75"/>
<polygon fill="midnightblue" stroke="midnightblue" points="317.74,-270.41 313.42,-280.08 322.83,-275.22 317.74,-270.41"/>
</g>
<!-- Node52 -->
<g id="node35" class="node">
<title>Node52</title>
<g id="a_node35"><a xlink:href="test__prediction__parameters_8cpp.html" target="_top" xlink:title=" ">
<polygon fill="none" stroke="black" points="447.5,-224.5 447.5,-243.5 618.5,-243.5 618.5,-224.5 447.5,-224.5"/>
<text text-anchor="middle" x="533" y="-231.5" font-family="Helvetica,sans-Serif" font-size="10.00">test_prediction_parameters.cpp</text>
</a>
</g>
</g>
<!-- Node47&#45;&gt;Node52 -->
<g id="edge44" class="edge">
<title>Node47&#45;&gt;Node52</title>
<path fill="none" stroke="midnightblue" d="M351.07,-278.09C394.15,-267.89 457.59,-252.86 497.04,-243.52"/>
<polygon fill="midnightblue" stroke="midnightblue" points="350.05,-274.73 341.13,-280.44 351.66,-281.54 350.05,-274.73"/>
</g>
<!-- Node48&#45;&gt;Node2 -->
<g id="edge41" class="edge">
<title>Node48&#45;&gt;Node2</title>
<path fill="none" stroke="midnightblue" d="M142.28,-218.9C126.33,-209 105.5,-196.07 91.94,-187.65"/>
<polygon fill="midnightblue" stroke="midnightblue" points="140.68,-222.02 151.02,-224.32 144.37,-216.08 140.68,-222.02"/>
</g>
<!-- Node54 -->
<g id="node37" class="node">
<title>Node54</title>
<g id="a_node37"><a xlink:href="console__module_8hpp.html" target="_top" xlink:title=" ">
<polygon fill="none" stroke="red" points="2061.5,-224.5 2061.5,-243.5 2178.5,-243.5 2178.5,-224.5 2061.5,-224.5"/>
<text text-anchor="middle" x="2120" y="-231.5" font-family="Helvetica,sans-Serif" font-size="10.00">console_module.hpp</text>
</a>
</g>
</g>
<!-- Node53&#45;&gt;Node54 -->
<g id="edge47" class="edge">
<title>Node53&#45;&gt;Node54</title>
<path fill="none" stroke="midnightblue" d="M2120,-269.8C2120,-260.91 2120,-250.78 2120,-243.75"/>
<polygon fill="midnightblue" stroke="midnightblue" points="2116.5,-270.08 2120,-280.08 2123.5,-270.08 2116.5,-270.08"/>
</g>
<!-- Node54&#45;&gt;Node4 -->
<g id="edge48" class="edge">
<title>Node54&#45;&gt;Node4</title>
<path fill="none" stroke="midnightblue" d="M2152.6,-220.46C2188.53,-205 2245.52,-175.34 2278,-132 2290.83,-114.88 2295.02,-89.25 2296.37,-75.86"/>
<polygon fill="midnightblue" stroke="midnightblue" points="2150.94,-217.36 2143.07,-224.45 2153.64,-223.82 2150.94,-217.36"/>
</g>
<!-- Node66&#45;&gt;Node68 -->
<g id="edge52" class="edge">
<title>Node66&#45;&gt;Node68</title>
<path fill="none" stroke="midnightblue" d="M741.7,-271.57C735.68,-262.27 728.53,-251.25 723.67,-243.75"/>
<polygon fill="midnightblue" stroke="midnightblue" points="738.84,-273.6 747.22,-280.08 744.72,-269.79 738.84,-273.6"/>
</g>
<!-- Node73&#45;&gt;Node41 -->
<g id="edge58" class="edge">
<title>Node73&#45;&gt;Node41</title>
<path fill="none" stroke="midnightblue" d="M2019.19,-271.18C2026.95,-257.28 2039,-238.03 2053,-224 2095.08,-181.84 2157.33,-147.13 2187.43,-131.67"/>
<polygon fill="midnightblue" stroke="midnightblue" points="2015.99,-269.75 2014.34,-280.22 2022.16,-273.06 2015.99,-269.75"/>
</g>
<!-- Node73&#45;&gt;Node54 -->
<g id="edge57" class="edge">
<title>Node73&#45;&gt;Node54</title>
<path fill="none" stroke="midnightblue" d="M2036.76,-275.86C2057.16,-265.85 2084.67,-252.35 2102.37,-243.65"/>
<polygon fill="midnightblue" stroke="midnightblue" points="2035.11,-272.78 2027.67,-280.32 2038.19,-279.06 2035.11,-272.78"/>
</g>
<!-- Node86&#45;&gt;Node3 -->
<g id="edge61" class="edge">
<title>Node86&#45;&gt;Node3</title>
<path fill="none" stroke="midnightblue" d="M1225.03,-278.97C1193.1,-271.07 1149.16,-258.92 1112,-244 1094.29,-236.89 1092.03,-230.26 1074,-224 910.88,-167.39 708.63,-140.48 602.62,-129.48"/>
<polygon fill="midnightblue" stroke="midnightblue" points="1224.4,-282.42 1234.95,-281.38 1226.06,-275.62 1224.4,-282.42"/>
</g>
<!-- Node86&#45;&gt;Node59 -->
<g id="edge62" class="edge">
<title>Node86&#45;&gt;Node59</title>
<path fill="none" stroke="midnightblue" d="M1246.28,-274.9C1230.33,-265 1209.5,-252.07 1195.94,-243.65"/>
<polygon fill="midnightblue" stroke="midnightblue" points="1244.68,-278.02 1255.02,-280.32 1248.37,-272.08 1244.68,-278.02"/>
</g>
<!-- Node86&#45;&gt;Node64 -->
<g id="edge63" class="edge">
<title>Node86&#45;&gt;Node64</title>
<path fill="none" stroke="midnightblue" d="M1284.08,-272.72C1292.89,-263.2 1303.67,-251.56 1310.9,-243.75"/>
<polygon fill="midnightblue" stroke="midnightblue" points="1281.48,-270.37 1277.26,-280.08 1286.62,-275.12 1281.48,-270.37"/>
</g>
<!-- Node86&#45;&gt;Node70 -->
<g id="edge64" class="edge">
<title>Node86&#45;&gt;Node70</title>
<path fill="none" stroke="midnightblue" d="M1224.63,-283.2C1151.67,-273.66 1006.04,-254.62 921.29,-243.54"/>
<polygon fill="midnightblue" stroke="midnightblue" points="1224.48,-286.71 1234.85,-284.54 1225.39,-279.77 1224.48,-286.71"/>
</g>
<!-- Node86&#45;&gt;Node81 -->
<g id="edge65" class="edge">
<title>Node86&#45;&gt;Node81</title>
<path fill="none" stroke="midnightblue" d="M1224.72,-279.87C1175.53,-269.73 1096.7,-253.49 1048.61,-243.58"/>
<polygon fill="midnightblue" stroke="midnightblue" points="1224.25,-283.35 1234.75,-281.94 1225.66,-276.49 1224.25,-283.35"/>
</g>
<!-- Node88&#45;&gt;Node8 -->
<g id="edge68" class="edge">
<title>Node88&#45;&gt;Node8</title>
<path fill="none" stroke="midnightblue" d="M431.78,-158.35C434.42,-144.76 439.32,-126.29 448,-112 457.03,-97.13 472.2,-83.87 482.86,-75.66"/>
<polygon fill="midnightblue" stroke="midnightblue" points="428.29,-157.98 430.06,-168.43 435.19,-159.16 428.29,-157.98"/>
</g>
<!-- Node88&#45;&gt;Node10 -->
<g id="edge69" class="edge">
<title>Node88&#45;&gt;Node10</title>
<path fill="none" stroke="midnightblue" d="M391.53,-165.44C358.53,-155.26 311.24,-140.66 281.6,-131.52"/>
<polygon fill="midnightblue" stroke="midnightblue" points="390.68,-168.84 401.27,-168.44 392.75,-162.15 390.68,-168.84"/>
</g>
</g>
</svg>
