<?xml version="1.0" encoding="UTF-8" standalone="no"?>
<!DOCTYPE svg PUBLIC "-//W3C//DTD SVG 1.1//EN"
 "http://www.w3.org/Graphics/SVG/1.1/DTD/svg11.dtd">
<!-- Generated by graphviz version 2.43.0 (0)
 -->
<!-- Title: frame.hpp Pages: 1 -->
<svg width="2321pt" height="476pt"
 viewBox="0.00 0.00 2321.00 476.00" xmlns="http://www.w3.org/2000/svg" xmlns:xlink="http://www.w3.org/1999/xlink">
<g id="graph0" class="graph" transform="scale(1 1) rotate(0) translate(4 472)">
<title>frame.hpp</title>
<!-- Node1 -->
<g id="node1" class="node">
<title>Node1</title>
<g id="a_node1"><a xlink:title=" ">
<polygon fill="#bfbfbf" stroke="black" points="1677,-448.5 1677,-467.5 1744,-467.5 1744,-448.5 1677,-448.5"/>
<text text-anchor="middle" x="1710.5" y="-455.5" font-family="Helvetica,sans-Serif" font-size="10.00">frame.hpp</text>
</a>
</g>
</g>
<!-- Node2 -->
<g id="node2" class="node">
<title>Node2</title>
<g id="a_node2"><a xlink:href="error__frame_8hpp.html" target="_top" xlink:title="The error frame.">
<polygon fill="none" stroke="black" points="1625,-392.5 1625,-411.5 1720,-411.5 1720,-392.5 1625,-392.5"/>
<text text-anchor="middle" x="1672.5" y="-399.5" font-family="Helvetica,sans-Serif" font-size="10.00">error_frame.hpp</text>
</a>
</g>
</g>
<!-- Node1&#45;&gt;Node2 -->
<g id="edge1" class="edge">
<title>Node1&#45;&gt;Node2</title>
<path fill="none" stroke="midnightblue" d="M1698.44,-439.86C1691.86,-430.5 1683.99,-419.33 1678.66,-411.75"/>
<polygon fill="midnightblue" stroke="midnightblue" points="1695.61,-441.92 1704.23,-448.08 1701.33,-437.89 1695.61,-441.92"/>
</g>
<!-- Node4 -->
<g id="node4" class="node">
<title>Node4</title>
<g id="a_node4"><a xlink:href="shared__data_8hpp.html" target="_top" xlink:title="Contains the SharedData struct, used across all modules and extensions.">
<polygon fill="none" stroke="black" points="1719.5,-336.5 1719.5,-355.5 1817.5,-355.5 1817.5,-336.5 1719.5,-336.5"/>
<text text-anchor="middle" x="1768.5" y="-343.5" font-family="Helvetica,sans-Serif" font-size="10.00">shared_data.hpp</text>
</a>
</g>
</g>
<!-- Node1&#45;&gt;Node4 -->
<g id="edge72" class="edge">
<title>Node1&#45;&gt;Node4</title>
<path fill="none" stroke="midnightblue" d="M1719.82,-439.32C1732.45,-415.37 1754.5,-373.55 1763.97,-355.59"/>
<polygon fill="midnightblue" stroke="midnightblue" points="1716.62,-437.89 1715.05,-448.37 1722.81,-441.16 1716.62,-437.89"/>
</g>
<!-- Node3 -->
<g id="node3" class="node">
<title>Node3</title>
<g id="a_node3"><a xlink:href="error__frame_8cpp.html" target="_top" xlink:title="The implementation of the error frame.">
<polygon fill="none" stroke="black" points="1606,-336.5 1606,-355.5 1701,-355.5 1701,-336.5 1606,-336.5"/>
<text text-anchor="middle" x="1653.5" y="-343.5" font-family="Helvetica,sans-Serif" font-size="10.00">error_frame.cpp</text>
</a>
</g>
</g>
<!-- Node2&#45;&gt;Node3 -->
<g id="edge2" class="edge">
<title>Node2&#45;&gt;Node3</title>
<path fill="none" stroke="midnightblue" d="M1665.95,-382.4C1662.78,-373.36 1659.11,-362.94 1656.58,-355.75"/>
<polygon fill="midnightblue" stroke="midnightblue" points="1662.74,-383.81 1669.36,-392.08 1669.35,-381.49 1662.74,-383.81"/>
</g>
<!-- Node2&#45;&gt;Node4 -->
<g id="edge3" class="edge">
<title>Node2&#45;&gt;Node4</title>
<path fill="none" stroke="midnightblue" d="M1697.07,-387.18C1714.74,-377.24 1738.01,-364.15 1753.11,-355.65"/>
<polygon fill="midnightblue" stroke="midnightblue" points="1694.92,-384.37 1687.92,-392.32 1698.36,-390.47 1694.92,-384.37"/>
</g>
<!-- Node65 -->
<g id="node50" class="node">
<title>Node65</title>
<g id="a_node50"><a xlink:href="test__error__frame_8cpp.html" target="_top" xlink:title="Test of the error frame.">
<polygon fill="none" stroke="black" points="1469,-336.5 1469,-355.5 1588,-355.5 1588,-336.5 1469,-336.5"/>
<text text-anchor="middle" x="1528.5" y="-343.5" font-family="Helvetica,sans-Serif" font-size="10.00">test_error_frame.cpp</text>
</a>
</g>
</g>
<!-- Node2&#45;&gt;Node65 -->
<g id="edge71" class="edge">
<title>Node2&#45;&gt;Node65</title>
<path fill="none" stroke="midnightblue" d="M1640.25,-388.91C1613.18,-378.75 1575.18,-364.51 1551.21,-355.52"/>
<polygon fill="midnightblue" stroke="midnightblue" points="1639.09,-392.21 1649.68,-392.44 1641.55,-385.66 1639.09,-392.21"/>
</g>
<!-- Node5 -->
<g id="node5" class="node">
<title>Node5</title>
<g id="a_node5"><a xlink:href="cfg__section_8hpp.html" target="_top" xlink:title="This file contains the base class for all configuration sections.">
<polygon fill="none" stroke="black" points="775,-280.5 775,-299.5 868,-299.5 868,-280.5 775,-280.5"/>
<text text-anchor="middle" x="821.5" y="-287.5" font-family="Helvetica,sans-Serif" font-size="10.00">cfg_section.hpp</text>
</a>
</g>
</g>
<!-- Node4&#45;&gt;Node5 -->
<g id="edge4" class="edge">
<title>Node4&#45;&gt;Node5</title>
<path fill="none" stroke="midnightblue" d="M1709.18,-336.12C1524.76,-318.46 1023.75,-298.65 868.17,-292.74"/>
<polygon fill="midnightblue" stroke="midnightblue" points="1709,-339.61 1719.29,-337.11 1709.68,-332.65 1709,-339.61"/>
</g>
<!-- Node8 -->
<g id="node8" class="node">
<title>Node8</title>
<g id="a_node8"><a xlink:href="extension__base_8hpp.html" target="_top" xlink:title="The new implementation of the extension system.">
<polygon fill="none" stroke="black" points="626.5,-168.5 626.5,-187.5 740.5,-187.5 740.5,-168.5 626.5,-168.5"/>
<text text-anchor="middle" x="683.5" y="-175.5" font-family="Helvetica,sans-Serif" font-size="10.00">extension_base.hpp</text>
</a>
</g>
</g>
<!-- Node4&#45;&gt;Node8 -->
<g id="edge35" class="edge">
<title>Node4&#45;&gt;Node8</title>
<path fill="none" stroke="midnightblue" d="M1709.19,-335.98C1592.4,-319.08 1561.74,-316.63 1449.5,-300 1180.48,-260.13 859.08,-207.84 735.46,-187.56"/>
<polygon fill="midnightblue" stroke="midnightblue" points="1708.85,-339.46 1719.25,-337.44 1709.86,-332.54 1708.85,-339.46"/>
</g>
<!-- Node29 -->
<g id="node22" class="node">
<title>Node29</title>
<g id="a_node22"><a xlink:href="flight__runner_8hpp.html" target="_top" xlink:title="The main class for the flight system.">
<polygon fill="none" stroke="black" points="1679.5,-56.5 1679.5,-75.5 1777.5,-75.5 1777.5,-56.5 1679.5,-56.5"/>
<text text-anchor="middle" x="1728.5" y="-63.5" font-family="Helvetica,sans-Serif" font-size="10.00">flight_runner.hpp</text>
</a>
</g>
</g>
<!-- Node4&#45;&gt;Node29 -->
<g id="edge36" class="edge">
<title>Node4&#45;&gt;Node29</title>
<path fill="none" stroke="midnightblue" d="M1828.05,-339.98C1872.98,-334.48 1935.24,-323.14 1985.5,-300 2028.38,-280.26 2069.5,-282.21 2069.5,-235 2069.5,-235 2069.5,-235 2069.5,-177 2069.5,-146.77 2072.5,-131.61 2049.5,-112 2009.56,-77.96 1857.45,-69.64 1777.8,-67.62"/>
<polygon fill="midnightblue" stroke="midnightblue" points="1827.41,-336.53 1817.88,-341.16 1828.22,-343.48 1827.41,-336.53"/>
</g>
<!-- Node37 -->
<g id="node29" class="node">
<title>Node37</title>
<g id="a_node29"><a xlink:href="console__pages_8hpp.html" target="_top" xlink:title=" ">
<polygon fill="none" stroke="black" points="1305.5,-224.5 1305.5,-243.5 1415.5,-243.5 1415.5,-224.5 1305.5,-224.5"/>
<text text-anchor="middle" x="1360.5" y="-231.5" font-family="Helvetica,sans-Serif" font-size="10.00">console_pages.hpp</text>
</a>
</g>
</g>
<!-- Node4&#45;&gt;Node37 -->
<g id="edge37" class="edge">
<title>Node4&#45;&gt;Node37</title>
<path fill="none" stroke="midnightblue" d="M1709.16,-335.61C1637.9,-324.2 1525.55,-305.78 1506.5,-300 1457.11,-285.02 1402.42,-257.5 1376.2,-243.56"/>
<polygon fill="midnightblue" stroke="midnightblue" points="1708.93,-339.12 1719.36,-337.24 1710.04,-332.2 1708.93,-339.12"/>
</g>
<!-- Node43 -->
<g id="node33" class="node">
<title>Node43</title>
<g id="a_node33"><a xlink:href="data__formatting_8hpp.html" target="_top" xlink:title="This file contains the DataFormatter class, which is used to format data for the data and log files.">
<polygon fill="none" stroke="black" points="1753.5,-280.5 1753.5,-299.5 1869.5,-299.5 1869.5,-280.5 1753.5,-280.5"/>
<text text-anchor="middle" x="1811.5" y="-287.5" font-family="Helvetica,sans-Serif" font-size="10.00">data_formatting.hpp</text>
</a>
</g>
</g>
<!-- Node4&#45;&gt;Node43 -->
<g id="edge43" class="edge">
<title>Node4&#45;&gt;Node43</title>
<path fill="none" stroke="midnightblue" d="M1781.92,-328.14C1789.41,-318.74 1798.44,-307.4 1804.53,-299.75"/>
<polygon fill="midnightblue" stroke="midnightblue" points="1779.09,-326.08 1775.6,-336.08 1784.57,-330.44 1779.09,-326.08"/>
</g>
<!-- Node45 -->
<g id="node35" class="node">
<title>Node45</title>
<g id="a_node35"><a xlink:href="data__log_8hpp.html" target="_top" xlink:title="The data log is responsible for writing data to files and managing the file system.">
<polygon fill="none" stroke="black" points="1693.5,-224.5 1693.5,-243.5 1773.5,-243.5 1773.5,-224.5 1693.5,-224.5"/>
<text text-anchor="middle" x="1733.5" y="-231.5" font-family="Helvetica,sans-Serif" font-size="10.00">data_log.hpp</text>
</a>
</g>
</g>
<!-- Node4&#45;&gt;Node45 -->
<g id="edge49" class="edge">
<title>Node4&#45;&gt;Node45</title>
<path fill="none" stroke="midnightblue" d="M1757.67,-327.85C1752.97,-319.7 1747.79,-309.64 1744.5,-300 1737.85,-280.5 1735.11,-256.29 1734.07,-243.63"/>
<polygon fill="midnightblue" stroke="midnightblue" points="1754.67,-329.66 1762.84,-336.42 1760.67,-326.05 1754.67,-329.66"/>
</g>
<!-- Node50 -->
<g id="node38" class="node">
<title>Node50</title>
<g id="a_node38"><a xlink:href="influxdb_8hpp.html" target="_top" xlink:title=" ">
<polygon fill="none" stroke="black" points="1599,-280.5 1599,-299.5 1676,-299.5 1676,-280.5 1599,-280.5"/>
<text text-anchor="middle" x="1637.5" y="-287.5" font-family="Helvetica,sans-Serif" font-size="10.00">influxdb.hpp</text>
</a>
</g>
</g>
<!-- Node4&#45;&gt;Node50 -->
<g id="edge50" class="edge">
<title>Node4&#45;&gt;Node50</title>
<path fill="none" stroke="midnightblue" d="M1738.18,-332.5C1713.62,-322.38 1679.68,-308.39 1658.16,-299.52"/>
<polygon fill="midnightblue" stroke="midnightblue" points="1737.16,-335.87 1747.74,-336.44 1739.83,-329.4 1737.16,-335.87"/>
</g>
<!-- Node52 -->
<g id="node40" class="node">
<title>Node52</title>
<g id="a_node40"><a xlink:href="module_8hpp.html" target="_top" xlink:title="The header file for the base module class.">
<polygon fill="none" stroke="black" points="1476.5,-168.5 1476.5,-187.5 1550.5,-187.5 1550.5,-168.5 1476.5,-168.5"/>
<text text-anchor="middle" x="1513.5" y="-175.5" font-family="Helvetica,sans-Serif" font-size="10.00">module.hpp</text>
</a>
</g>
</g>
<!-- Node4&#45;&gt;Node52 -->
<g id="edge53" class="edge">
<title>Node4&#45;&gt;Node52</title>
<path fill="none" stroke="midnightblue" d="M1709.47,-335.06C1665.02,-326.69 1608.6,-313.87 1589.5,-300 1548.15,-269.97 1524.14,-209.92 1516.33,-187.61"/>
<polygon fill="midnightblue" stroke="midnightblue" points="1708.86,-338.51 1719.33,-336.88 1710.13,-331.62 1708.86,-338.51"/>
</g>
<!-- Node60 -->
<g id="node45" class="node">
<title>Node60</title>
<g id="a_node45"><a xlink:href="request__handler_8hpp.html" target="_top" xlink:title="The request handler class header.">
<polygon fill="none" stroke="black" points="1925.5,-224.5 1925.5,-243.5 2041.5,-243.5 2041.5,-224.5 1925.5,-224.5"/>
<text text-anchor="middle" x="1983.5" y="-231.5" font-family="Helvetica,sans-Serif" font-size="10.00">request_handler.hpp</text>
</a>
</g>
</g>
<!-- Node4&#45;&gt;Node60 -->
<g id="edge64" class="edge">
<title>Node4&#45;&gt;Node60</title>
<path fill="none" stroke="midnightblue" d="M1827.84,-338.03C1878.08,-330.96 1944.95,-318.43 1964.5,-300 1980.41,-285 1983.23,-257.48 1983.58,-243.56"/>
<polygon fill="midnightblue" stroke="midnightblue" points="1827.15,-334.59 1817.71,-339.41 1828.09,-341.53 1827.15,-334.59"/>
</g>
<!-- Node62 -->
<g id="node47" class="node">
<title>Node62</title>
<g id="a_node47"><a xlink:href="logger_8hpp.html" target="_top" xlink:title="A simple logger class so difference classes have access to the same logger.">
<polygon fill="none" stroke="black" points="1887.5,-280.5 1887.5,-299.5 1955.5,-299.5 1955.5,-280.5 1887.5,-280.5"/>
<text text-anchor="middle" x="1921.5" y="-287.5" font-family="Helvetica,sans-Serif" font-size="10.00">logger.hpp</text>
</a>
</g>
</g>
<!-- Node4&#45;&gt;Node62 -->
<g id="edge67" class="edge">
<title>Node4&#45;&gt;Node62</title>
<path fill="none" stroke="midnightblue" d="M1802.39,-333.04C1831.18,-322.88 1871.79,-308.55 1897.37,-299.52"/>
<polygon fill="midnightblue" stroke="midnightblue" points="1801.01,-329.81 1792.74,-336.44 1803.34,-336.42 1801.01,-329.81"/>
</g>
<!-- Node63 -->
<g id="node48" class="node">
<title>Node63</title>
<g id="a_node48"><a xlink:href="to__json_8cpp.html" target="_top" xlink:title=" ">
<polygon fill="none" stroke="black" points="2097.5,-280.5 2097.5,-299.5 2169.5,-299.5 2169.5,-280.5 2097.5,-280.5"/>
<text text-anchor="middle" x="2133.5" y="-287.5" font-family="Helvetica,sans-Serif" font-size="10.00">to_json.cpp</text>
</a>
</g>
</g>
<!-- Node4&#45;&gt;Node63 -->
<g id="edge69" class="edge">
<title>Node4&#45;&gt;Node63</title>
<path fill="none" stroke="midnightblue" d="M1827.9,-337.17C1891.3,-328.65 1994.64,-314.34 2083.5,-300 2088.03,-299.27 2092.78,-298.46 2097.48,-297.64"/>
<polygon fill="midnightblue" stroke="midnightblue" points="1827.14,-333.74 1817.69,-338.53 1828.07,-340.68 1827.14,-333.74"/>
</g>
<!-- Node64 -->
<g id="node49" class="node">
<title>Node64</title>
<g id="a_node49"><a xlink:href="test__configuration_8cpp.html" target="_top" xlink:title=" ">
<polygon fill="none" stroke="black" points="2188,-280.5 2188,-299.5 2313,-299.5 2313,-280.5 2188,-280.5"/>
<text text-anchor="middle" x="2250.5" y="-287.5" font-family="Helvetica,sans-Serif" font-size="10.00">test_configuration.cpp</text>
</a>
</g>
</g>
<!-- Node4&#45;&gt;Node64 -->
<g id="edge70" class="edge">
<title>Node4&#45;&gt;Node64</title>
<path fill="none" stroke="midnightblue" d="M1828.1,-338.74C1907.92,-330.3 2053.94,-314.62 2178.5,-300 2181.5,-299.65 2184.58,-299.28 2187.68,-298.91"/>
<polygon fill="midnightblue" stroke="midnightblue" points="1827.33,-335.3 1817.75,-339.84 1828.07,-342.27 1827.33,-335.3"/>
</g>
<!-- Node6 -->
<g id="node6" class="node">
<title>Node6</title>
<g id="a_node6"><a xlink:href="cfg__extensions_8hpp.html" target="_top" xlink:title="The header file for the extensions section of the configuration.">
<polygon fill="none" stroke="black" points="563,-224.5 563,-243.5 674,-243.5 674,-224.5 563,-224.5"/>
<text text-anchor="middle" x="618.5" y="-231.5" font-family="Helvetica,sans-Serif" font-size="10.00">cfg_extensions.hpp</text>
</a>
</g>
</g>
<!-- Node5&#45;&gt;Node6 -->
<g id="edge5" class="edge">
<title>Node5&#45;&gt;Node6</title>
<path fill="none" stroke="midnightblue" d="M779.51,-277.83C741.18,-267.63 685.35,-252.78 650.52,-243.52"/>
<polygon fill="midnightblue" stroke="midnightblue" points="778.77,-281.26 789.33,-280.44 780.57,-274.49 778.77,-281.26"/>
</g>
<!-- Node7 -->
<g id="node7" class="node">
<title>Node7</title>
<g id="a_node7"><a xlink:href="cfg__extensions_8cpp.html" target="_top" xlink:title="Implements the extensions section of the configuration.">
<polygon fill="none" stroke="black" points="498.5,-168.5 498.5,-187.5 608.5,-187.5 608.5,-168.5 498.5,-168.5"/>
<text text-anchor="middle" x="553.5" y="-175.5" font-family="Helvetica,sans-Serif" font-size="10.00">cfg_extensions.cpp</text>
</a>
</g>
</g>
<!-- Node6&#45;&gt;Node7 -->
<g id="edge6" class="edge">
<title>Node6&#45;&gt;Node7</title>
<path fill="none" stroke="midnightblue" d="M600.23,-217.82C588.58,-208.15 573.9,-195.95 564.13,-187.83"/>
<polygon fill="midnightblue" stroke="midnightblue" points="598.13,-220.63 608.06,-224.32 602.6,-215.24 598.13,-220.63"/>
</g>
<!-- Node6&#45;&gt;Node8 -->
<g id="edge7" class="edge">
<title>Node6&#45;&gt;Node8</title>
<path fill="none" stroke="midnightblue" d="M636.77,-217.82C648.42,-208.15 663.1,-195.95 672.87,-187.83"/>
<polygon fill="midnightblue" stroke="midnightblue" points="634.4,-215.24 628.94,-224.32 638.87,-220.63 634.4,-215.24"/>
</g>
<!-- Node36 -->
<g id="node28" class="node">
<title>Node36</title>
<g id="a_node28"><a xlink:href="preconfigured__extensions_8hpp.html" target="_top" xlink:title="This file contains preconfigured extension metadata.">
<polygon fill="none" stroke="black" points="317,-168.5 317,-187.5 480,-187.5 480,-168.5 317,-168.5"/>
<text text-anchor="middle" x="398.5" y="-175.5" font-family="Helvetica,sans-Serif" font-size="10.00">preconfigured_extensions.hpp</text>
</a>
</g>
</g>
<!-- Node6&#45;&gt;Node36 -->
<g id="edge34" class="edge">
<title>Node6&#45;&gt;Node36</title>
<path fill="none" stroke="midnightblue" d="M573.78,-222.02C532.22,-211.82 471.19,-196.84 433.2,-187.52"/>
<polygon fill="midnightblue" stroke="midnightblue" points="573.09,-225.46 583.64,-224.44 574.76,-218.66 573.09,-225.46"/>
</g>
<!-- Node9 -->
<g id="node9" class="node">
<title>Node9</title>
<g id="a_node9"><a xlink:href="adc__extension__base_8hpp.html" target="_top" xlink:title="Generic ADC Extension Wrapper.">
<polygon fill="none" stroke="black" points="0,-112.5 0,-131.5 137,-131.5 137,-112.5 0,-112.5"/>
<text text-anchor="middle" x="68.5" y="-119.5" font-family="Helvetica,sans-Serif" font-size="10.00">adc_extension_base.hpp</text>
</a>
</g>
</g>
<!-- Node8&#45;&gt;Node9 -->
<g id="edge8" class="edge">
<title>Node8&#45;&gt;Node9</title>
<path fill="none" stroke="midnightblue" d="M616.19,-167.92C406.58,-145.97 351.64,-151.9 145.5,-132 142.82,-131.74 140.09,-131.47 137.33,-131.18"/>
<polygon fill="midnightblue" stroke="midnightblue" points="615.98,-171.42 626.29,-168.99 616.71,-164.46 615.98,-171.42"/>
</g>
<!-- Node14 -->
<g id="node12" class="node">
<title>Node14</title>
<g id="a_node12"><a xlink:href="bme280_8hpp.html" target="_top" xlink:title="The BME280 sensor extension.">
<polygon fill="none" stroke="red" points="1061,-112.5 1061,-131.5 1138,-131.5 1138,-112.5 1061,-112.5"/>
<text text-anchor="middle" x="1099.5" y="-119.5" font-family="Helvetica,sans-Serif" font-size="10.00">bme280.hpp</text>
</a>
</g>
</g>
<!-- Node8&#45;&gt;Node14 -->
<g id="edge11" class="edge">
<title>Node8&#45;&gt;Node14</title>
<path fill="none" stroke="midnightblue" d="M750.48,-169.61C823.41,-161.35 943.44,-147.13 1046.5,-132 1051.12,-131.32 1055.95,-130.57 1060.74,-129.79"/>
<polygon fill="midnightblue" stroke="midnightblue" points="750.05,-166.13 740.51,-170.73 750.84,-173.09 750.05,-166.13"/>
</g>
<!-- Node16 -->
<g id="node14" class="node">
<title>Node16</title>
<g id="a_node14"><a xlink:href="bmi088_8hpp.html" target="_top" xlink:title="Extension for the Bosch BMI088 IMU.">
<polygon fill="none" stroke="red" points="293.5,-56.5 293.5,-75.5 367.5,-75.5 367.5,-56.5 293.5,-56.5"/>
<text text-anchor="middle" x="330.5" y="-63.5" font-family="Helvetica,sans-Serif" font-size="10.00">bmi088.hpp</text>
</a>
</g>
</g>
<!-- Node8&#45;&gt;Node16 -->
<g id="edge14" class="edge">
<title>Node8&#45;&gt;Node16</title>
<path fill="none" stroke="midnightblue" d="M616.05,-166.97C537.14,-155.11 415.98,-136.4 406.5,-132 377.2,-118.41 350.36,-90.26 337.87,-75.87"/>
<polygon fill="midnightblue" stroke="midnightblue" points="616,-170.51 626.41,-168.53 617.04,-163.58 616,-170.51"/>
</g>
<!-- Node18 -->
<g id="node15" class="node">
<title>Node18</title>
<g id="a_node15"><a xlink:href="ds18b20_8hpp.html" target="_top" xlink:title="DS18B20 extension header file.">
<polygon fill="none" stroke="red" points="386,-56.5 386,-75.5 465,-75.5 465,-56.5 386,-56.5"/>
<text text-anchor="middle" x="425.5" y="-63.5" font-family="Helvetica,sans-Serif" font-size="10.00">ds18b20.hpp</text>
</a>
</g>
</g>
<!-- Node8&#45;&gt;Node18 -->
<g id="edge16" class="edge">
<title>Node8&#45;&gt;Node18</title>
<path fill="none" stroke="midnightblue" d="M617.21,-166.9C539.21,-154.85 419.76,-135.86 416.5,-132 402.97,-115.99 413.54,-89.42 420.55,-75.73"/>
<polygon fill="midnightblue" stroke="midnightblue" points="617.04,-170.41 627.46,-168.47 618.11,-163.49 617.04,-170.41"/>
</g>
<!-- Node20 -->
<g id="node16" class="node">
<title>Node20</title>
<g id="a_node16"><a xlink:href="extension__base_8cpp.html" target="_top" xlink:title="The new implementation of the extension system.">
<polygon fill="none" stroke="black" points="435,-112.5 435,-131.5 548,-131.5 548,-112.5 435,-112.5"/>
<text text-anchor="middle" x="491.5" y="-119.5" font-family="Helvetica,sans-Serif" font-size="10.00">extension_base.cpp</text>
</a>
</g>
</g>
<!-- Node8&#45;&gt;Node20 -->
<g id="edge18" class="edge">
<title>Node8&#45;&gt;Node20</title>
<path fill="none" stroke="midnightblue" d="M643.32,-165.7C607.08,-155.51 554.59,-140.74 521.78,-131.52"/>
<polygon fill="midnightblue" stroke="midnightblue" points="642.5,-169.11 653.08,-168.44 644.4,-162.37 642.5,-169.11"/>
</g>
<!-- Node21 -->
<g id="node17" class="node">
<title>Node21</title>
<g id="a_node17"><a xlink:href="i2c__extension__adapter_8hpp.html" target="_top" xlink:title="Adapter for I2C Extensions.">
<polygon fill="none" stroke="black" points="155,-112.5 155,-131.5 302,-131.5 302,-112.5 155,-112.5"/>
<text text-anchor="middle" x="228.5" y="-119.5" font-family="Helvetica,sans-Serif" font-size="10.00">i2c_extension_adapter.hpp</text>
</a>
</g>
</g>
<!-- Node8&#45;&gt;Node21 -->
<g id="edge19" class="edge">
<title>Node8&#45;&gt;Node21</title>
<path fill="none" stroke="midnightblue" d="M616.18,-167.85C500.54,-153.35 378.09,-139.49 302.04,-131.06"/>
<polygon fill="midnightblue" stroke="midnightblue" points="615.91,-171.35 626.27,-169.12 616.79,-164.4 615.91,-171.35"/>
</g>
<!-- Node22 -->
<g id="node18" class="node">
<title>Node22</title>
<g id="a_node18"><a xlink:href="pi__camera_8hpp.html" target="_top" xlink:title="Raspberry Pi Camera Extension.">
<polygon fill="none" stroke="red" points="566,-112.5 566,-131.5 655,-131.5 655,-112.5 566,-112.5"/>
<text text-anchor="middle" x="610.5" y="-119.5" font-family="Helvetica,sans-Serif" font-size="10.00">pi_camera.hpp</text>
</a>
</g>
</g>
<!-- Node8&#45;&gt;Node22 -->
<g id="edge21" class="edge">
<title>Node8&#45;&gt;Node22</title>
<path fill="none" stroke="midnightblue" d="M663.36,-162.1C650.22,-152.38 633.52,-140.03 622.44,-131.83"/>
<polygon fill="midnightblue" stroke="midnightblue" points="661.65,-165.19 671.77,-168.32 665.81,-159.56 661.65,-165.19"/>
</g>
<!-- Node24 -->
<g id="node19" class="node">
<title>Node24</title>
<g id="a_node19"><a xlink:href="rgb__status__led_8hpp.html" target="_top" xlink:title=" ">
<polygon fill="none" stroke="red" points="483,-56.5 483,-75.5 592,-75.5 592,-56.5 483,-56.5"/>
<text text-anchor="middle" x="537.5" y="-63.5" font-family="Helvetica,sans-Serif" font-size="10.00">rgb_status_led.hpp</text>
</a>
</g>
</g>
<!-- Node8&#45;&gt;Node24 -->
<g id="edge22" class="edge">
<title>Node8&#45;&gt;Node24</title>
<path fill="none" stroke="midnightblue" d="M616.25,-167.45C541.89,-156.57 431.67,-139.34 425.5,-132 402.06,-104.12 453.14,-85.5 493.81,-75.58"/>
<polygon fill="midnightblue" stroke="midnightblue" points="616.09,-170.97 626.49,-168.94 617.1,-164.04 616.09,-170.97"/>
</g>
<!-- Node26 -->
<g id="node20" class="node">
<title>Node26</title>
<g id="a_node20"><a xlink:href="samm8q_8hpp.html" target="_top" xlink:title="SAM&#45;M8Q GPS extension (I2C).">
<polygon fill="none" stroke="red" points="753.5,-56.5 753.5,-75.5 833.5,-75.5 833.5,-56.5 753.5,-56.5"/>
<text text-anchor="middle" x="793.5" y="-63.5" font-family="Helvetica,sans-Serif" font-size="10.00">samm8q.hpp</text>
</a>
</g>
</g>
<!-- Node8&#45;&gt;Node26 -->
<g id="edge24" class="edge">
<title>Node8&#45;&gt;Node26</title>
<path fill="none" stroke="midnightblue" d="M750.96,-177.76C837.17,-177.11 979.27,-170.09 1012.5,-132 1063.35,-73.73 909.66,-66.52 833.54,-66.39"/>
<polygon fill="midnightblue" stroke="midnightblue" points="750.72,-174.26 740.73,-177.8 750.75,-181.26 750.72,-174.26"/>
</g>
<!-- Node28 -->
<g id="node21" class="node">
<title>Node28</title>
<g id="a_node21"><a xlink:href="extension__module_8hpp.html" target="_top" xlink:title="This is the header file for the new extension module.">
<polygon fill="none" stroke="black" points="1156.5,-112.5 1156.5,-131.5 1284.5,-131.5 1284.5,-112.5 1156.5,-112.5"/>
<text text-anchor="middle" x="1220.5" y="-119.5" font-family="Helvetica,sans-Serif" font-size="10.00">extension_module.hpp</text>
</a>
</g>
</g>
<!-- Node8&#45;&gt;Node28 -->
<g id="edge26" class="edge">
<title>Node8&#45;&gt;Node28</title>
<path fill="none" stroke="midnightblue" d="M750.65,-170.99C840.77,-162.8 1005.81,-147.39 1146.5,-132 1149.72,-131.65 1153.01,-131.28 1156.34,-130.9"/>
<polygon fill="midnightblue" stroke="midnightblue" points="750.21,-167.51 740.57,-171.9 750.84,-174.48 750.21,-167.51"/>
</g>
<!-- Node33 -->
<g id="node26" class="node">
<title>Node33</title>
<g id="a_node26"><a xlink:href="extension__test__framework_8hpp.html" target="_top" xlink:title="Basic helpers for unit testing extensions on the host.">
<polygon fill="none" stroke="red" points="672.5,-112.5 672.5,-131.5 840.5,-131.5 840.5,-112.5 672.5,-112.5"/>
<text text-anchor="middle" x="756.5" y="-119.5" font-family="Helvetica,sans-Serif" font-size="10.00">extension_test_framework.hpp</text>
</a>
</g>
</g>
<!-- Node8&#45;&gt;Node33 -->
<g id="edge32" class="edge">
<title>Node8&#45;&gt;Node33</title>
<path fill="none" stroke="midnightblue" d="M703.64,-162.1C716.78,-152.38 733.48,-140.03 744.56,-131.83"/>
<polygon fill="midnightblue" stroke="midnightblue" points="701.19,-159.56 695.23,-168.32 705.35,-165.19 701.19,-159.56"/>
</g>
<!-- Node35 -->
<g id="node27" class="node">
<title>Node35</title>
<g id="a_node27"><a xlink:href="simulated__extensions_8hpp.html" target="_top" xlink:title="This contains the simulated extensions for testing the flight system.">
<polygon fill="none" stroke="black" points="859,-112.5 859,-131.5 1004,-131.5 1004,-112.5 859,-112.5"/>
<text text-anchor="middle" x="931.5" y="-119.5" font-family="Helvetica,sans-Serif" font-size="10.00">simulated_extensions.hpp</text>
</a>
</g>
</g>
<!-- Node8&#45;&gt;Node35 -->
<g id="edge33" class="edge">
<title>Node8&#45;&gt;Node35</title>
<path fill="none" stroke="midnightblue" d="M732.73,-166.28C779.59,-156.08 849.2,-140.92 892.39,-131.52"/>
<polygon fill="midnightblue" stroke="midnightblue" points="731.82,-162.9 722.8,-168.44 733.31,-169.74 731.82,-162.9"/>
</g>
<!-- Node10 -->
<g id="node10" class="node">
<title>Node10</title>
<g id="a_node10"><a xlink:href="mcp3021_8hpp.html" target="_top" xlink:title="MCP3021 I2C ADC Driver.">
<polygon fill="none" stroke="red" points="187,-56.5 187,-75.5 270,-75.5 270,-56.5 187,-56.5"/>
<text text-anchor="middle" x="228.5" y="-63.5" font-family="Helvetica,sans-Serif" font-size="10.00">mcp3021.hpp</text>
</a>
</g>
</g>
<!-- Node9&#45;&gt;Node10 -->
<g id="edge9" class="edge">
<title>Node9&#45;&gt;Node10</title>
<path fill="none" stroke="midnightblue" d="M103.55,-109.17C133.67,-99 176.4,-84.59 203.27,-75.52"/>
<polygon fill="midnightblue" stroke="midnightblue" points="102.21,-105.93 93.85,-112.44 104.45,-112.56 102.21,-105.93"/>
</g>
<!-- Node12 -->
<g id="node11" class="node">
<title>Node12</title>
<g id="a_node11"><a xlink:href="extension__module_8cpp.html" target="_top" xlink:title="The implementation of the new extension module.">
<polygon fill="none" stroke="black" points="474,-0.5 474,-19.5 601,-19.5 601,-0.5 474,-0.5"/>
<text text-anchor="middle" x="537.5" y="-7.5" font-family="Helvetica,sans-Serif" font-size="10.00">extension_module.cpp</text>
</a>
</g>
</g>
<!-- Node10&#45;&gt;Node12 -->
<g id="edge10" class="edge">
<title>Node10&#45;&gt;Node12</title>
<path fill="none" stroke="midnightblue" d="M280.23,-55.96C338.28,-45.82 431.75,-29.48 488.61,-19.54"/>
<polygon fill="midnightblue" stroke="midnightblue" points="279.42,-52.55 270.17,-57.72 280.63,-59.44 279.42,-52.55"/>
</g>
<!-- Node14&#45;&gt;Node12 -->
<g id="edge13" class="edge">
<title>Node14&#45;&gt;Node12</title>
<path fill="none" stroke="midnightblue" d="M1099.1,-101.97C1097.68,-87.03 1093.13,-66.97 1079.5,-56 1042.95,-26.59 736.46,-15.72 601.21,-12.33"/>
<polygon fill="midnightblue" stroke="midnightblue" points="1095.62,-102.38 1099.67,-112.17 1102.61,-101.99 1095.62,-102.38"/>
</g>
<!-- Node15 -->
<g id="node13" class="node">
<title>Node15</title>
<g id="a_node13"><a xlink:href="bme280_8cpp.html" target="_top" xlink:title="BME280 sensor extension.">
<polygon fill="none" stroke="black" points="994,-56.5 994,-75.5 1071,-75.5 1071,-56.5 994,-56.5"/>
<text text-anchor="middle" x="1032.5" y="-63.5" font-family="Helvetica,sans-Serif" font-size="10.00">bme280.cpp</text>
</a>
</g>
</g>
<!-- Node14&#45;&gt;Node15 -->
<g id="edge12" class="edge">
<title>Node14&#45;&gt;Node15</title>
<path fill="none" stroke="midnightblue" d="M1080.67,-105.82C1068.66,-96.15 1053.53,-83.95 1043.46,-75.83"/>
<polygon fill="midnightblue" stroke="midnightblue" points="1078.75,-108.77 1088.74,-112.32 1083.15,-103.32 1078.75,-108.77"/>
</g>
<!-- Node16&#45;&gt;Node12 -->
<g id="edge15" class="edge">
<title>Node16&#45;&gt;Node12</title>
<path fill="none" stroke="midnightblue" d="M373.32,-53.83C412.41,-43.63 469.33,-28.78 504.85,-19.52"/>
<polygon fill="midnightblue" stroke="midnightblue" points="372.09,-50.53 363.3,-56.44 373.86,-57.31 372.09,-50.53"/>
</g>
<!-- Node18&#45;&gt;Node12 -->
<g id="edge17" class="edge">
<title>Node18&#45;&gt;Node12</title>
<path fill="none" stroke="midnightblue" d="M452.75,-51.86C473.52,-41.85 501.52,-28.35 519.55,-19.65"/>
<polygon fill="midnightblue" stroke="midnightblue" points="450.98,-48.83 443.49,-56.32 454.02,-55.13 450.98,-48.83"/>
</g>
<!-- Node21&#45;&gt;Node10 -->
<g id="edge20" class="edge">
<title>Node21&#45;&gt;Node10</title>
<path fill="none" stroke="midnightblue" d="M228.5,-101.8C228.5,-92.91 228.5,-82.78 228.5,-75.75"/>
<polygon fill="midnightblue" stroke="midnightblue" points="225,-102.08 228.5,-112.08 232,-102.08 225,-102.08"/>
</g>
<!-- Node24&#45;&gt;Node12 -->
<g id="edge23" class="edge">
<title>Node24&#45;&gt;Node12</title>
<path fill="none" stroke="midnightblue" d="M537.5,-45.8C537.5,-36.91 537.5,-26.78 537.5,-19.75"/>
<polygon fill="midnightblue" stroke="midnightblue" points="534,-46.08 537.5,-56.08 541,-46.08 534,-46.08"/>
</g>
<!-- Node26&#45;&gt;Node12 -->
<g id="edge25" class="edge">
<title>Node26&#45;&gt;Node12</title>
<path fill="none" stroke="midnightblue" d="M743.28,-54.41C694.94,-44.21 622.74,-28.98 577.97,-19.54"/>
<polygon fill="midnightblue" stroke="midnightblue" points="742.71,-57.86 753.22,-56.5 744.16,-51.01 742.71,-57.86"/>
</g>
<!-- Node28&#45;&gt;Node12 -->
<g id="edge31" class="edge">
<title>Node28&#45;&gt;Node12</title>
<path fill="none" stroke="midnightblue" d="M1200.4,-106.68C1177.46,-91.18 1138.2,-67.17 1100.5,-56 1008.48,-28.73 728.01,-16.85 601.09,-12.77"/>
<polygon fill="midnightblue" stroke="midnightblue" points="1198.42,-109.56 1208.64,-112.36 1202.39,-103.8 1198.42,-109.56"/>
</g>
<!-- Node28&#45;&gt;Node29 -->
<g id="edge27" class="edge">
<title>Node28&#45;&gt;Node29</title>
<path fill="none" stroke="midnightblue" d="M1294.63,-111.89C1440.64,-95.42 1600.34,-79.5 1679.21,-71.78"/>
<polygon fill="midnightblue" stroke="midnightblue" points="1294.13,-108.42 1284.59,-113.03 1294.92,-115.38 1294.13,-108.42"/>
</g>
<!-- Node30 -->
<g id="node23" class="node">
<title>Node30</title>
<g id="a_node23"><a xlink:href="flight__logic_8cpp.html" target="_top" xlink:title="The implementation of the flight logic within the flight runner.">
<polygon fill="none" stroke="black" points="1571.5,-0.5 1571.5,-19.5 1661.5,-19.5 1661.5,-0.5 1571.5,-0.5"/>
<text text-anchor="middle" x="1616.5" y="-7.5" font-family="Helvetica,sans-Serif" font-size="10.00">flight_logic.cpp</text>
</a>
</g>
</g>
<!-- Node29&#45;&gt;Node30 -->
<g id="edge28" class="edge">
<title>Node29&#45;&gt;Node30</title>
<path fill="none" stroke="midnightblue" d="M1701.25,-51.86C1680.48,-41.85 1652.48,-28.35 1634.45,-19.65"/>
<polygon fill="midnightblue" stroke="midnightblue" points="1699.98,-55.13 1710.51,-56.32 1703.02,-48.83 1699.98,-55.13"/>
</g>
<!-- Node31 -->
<g id="node24" class="node">
<title>Node31</title>
<g id="a_node24"><a xlink:href="flight__runner_8cpp.html" target="_top" xlink:title="The implementation of the flight runner, where everything comes together.">
<polygon fill="none" stroke="black" points="1679.5,-0.5 1679.5,-19.5 1777.5,-19.5 1777.5,-0.5 1679.5,-0.5"/>
<text text-anchor="middle" x="1728.5" y="-7.5" font-family="Helvetica,sans-Serif" font-size="10.00">flight_runner.cpp</text>
</a>
</g>
</g>
<!-- Node29&#45;&gt;Node31 -->
<g id="edge29" class="edge">
<title>Node29&#45;&gt;Node31</title>
<path fill="none" stroke="midnightblue" d="M1728.5,-45.8C1728.5,-36.91 1728.5,-26.78 1728.5,-19.75"/>
<polygon fill="midnightblue" stroke="midnightblue" points="1725,-46.08 1728.5,-56.08 1732,-46.08 1725,-46.08"/>
</g>
<!-- Node32 -->
<g id="node25" class="node">
<title>Node32</title>
<g id="a_node25"><a xlink:href="src_2flight__system_2main_8cpp.html" target="_top" xlink:title="Defines the entry point/main function of the Flight Computer software.">
<polygon fill="none" stroke="black" points="1795.5,-0.5 1795.5,-19.5 1857.5,-19.5 1857.5,-0.5 1795.5,-0.5"/>
<text text-anchor="middle" x="1826.5" y="-7.5" font-family="Helvetica,sans-Serif" font-size="10.00">main.cpp</text>
</a>
</g>
</g>
<!-- Node29&#45;&gt;Node32 -->
<g id="edge30" class="edge">
<title>Node29&#45;&gt;Node32</title>
<path fill="none" stroke="midnightblue" d="M1753.09,-51.45C1771.18,-41.48 1795.23,-28.23 1810.79,-19.65"/>
<polygon fill="midnightblue" stroke="midnightblue" points="1751.31,-48.43 1744.25,-56.32 1754.69,-54.56 1751.31,-48.43"/>
</g>
<!-- Node38 -->
<g id="node30" class="node">
<title>Node38</title>
<g id="a_node30"><a xlink:href="console__module_8hpp.html" target="_top" xlink:title=" ">
<polygon fill="none" stroke="red" points="1303,-112.5 1303,-131.5 1420,-131.5 1420,-112.5 1303,-112.5"/>
<text text-anchor="middle" x="1361.5" y="-119.5" font-family="Helvetica,sans-Serif" font-size="10.00">console_module.hpp</text>
</a>
</g>
</g>
<!-- Node37&#45;&gt;Node38 -->
<g id="edge38" class="edge">
<title>Node37&#45;&gt;Node38</title>
<path fill="none" stroke="midnightblue" d="M1348.4,-215.58C1340.89,-202.65 1333.38,-184.47 1337.5,-168 1340.89,-154.43 1349.24,-140.47 1355.13,-131.77"/>
<polygon fill="midnightblue" stroke="midnightblue" points="1345.64,-217.76 1353.96,-224.33 1351.55,-214.01 1345.64,-217.76"/>
</g>
<!-- Node40 -->
<g id="node31" class="node">
<title>Node40</title>
<g id="a_node31"><a xlink:href="console__pages_8cpp.html" target="_top" xlink:title=" ">
<polygon fill="none" stroke="black" points="1181,-168.5 1181,-187.5 1290,-187.5 1290,-168.5 1181,-168.5"/>
<text text-anchor="middle" x="1235.5" y="-175.5" font-family="Helvetica,sans-Serif" font-size="10.00">console_pages.cpp</text>
</a>
</g>
</g>
<!-- Node37&#45;&gt;Node40 -->
<g id="edge40" class="edge">
<title>Node37&#45;&gt;Node40</title>
<path fill="none" stroke="midnightblue" d="M1331.26,-220.37C1307.85,-210.26 1275.66,-196.35 1255.21,-187.52"/>
<polygon fill="midnightblue" stroke="midnightblue" points="1330.13,-223.69 1340.69,-224.44 1332.9,-217.26 1330.13,-223.69"/>
</g>
<!-- Node41 -->
<g id="node32" class="node">
<title>Node41</title>
<g id="a_node32"><a xlink:href="curses__utilities_8hpp.html" target="_top" xlink:title=" ">
<polygon fill="none" stroke="red" points="1347,-168.5 1347,-187.5 1458,-187.5 1458,-168.5 1347,-168.5"/>
<text text-anchor="middle" x="1402.5" y="-175.5" font-family="Helvetica,sans-Serif" font-size="10.00">curses_utilities.hpp</text>
</a>
</g>
</g>
<!-- Node37&#45;&gt;Node41 -->
<g id="edge41" class="edge">
<title>Node37&#45;&gt;Node41</title>
<path fill="none" stroke="midnightblue" d="M1373.61,-216.14C1380.93,-206.74 1389.74,-195.4 1395.69,-187.75"/>
<polygon fill="midnightblue" stroke="midnightblue" points="1370.81,-214.04 1367.44,-224.08 1376.34,-218.34 1370.81,-214.04"/>
</g>
<!-- Node38&#45;&gt;Node29 -->
<g id="edge39" class="edge">
<title>Node38&#45;&gt;Node29</title>
<path fill="none" stroke="midnightblue" d="M1429.61,-110.98C1502.14,-100.31 1615.16,-83.68 1679.43,-74.22"/>
<polygon fill="midnightblue" stroke="midnightblue" points="1429.04,-107.53 1419.65,-112.44 1430.06,-114.45 1429.04,-107.53"/>
</g>
<!-- Node41&#45;&gt;Node38 -->
<g id="edge42" class="edge">
<title>Node41&#45;&gt;Node38</title>
<path fill="none" stroke="midnightblue" d="M1389.48,-159.86C1382.38,-150.5 1373.9,-139.33 1368.14,-131.75"/>
<polygon fill="midnightblue" stroke="midnightblue" points="1386.89,-162.24 1395.73,-168.08 1392.47,-158 1386.89,-162.24"/>
</g>
<!-- Node44 -->
<g id="node34" class="node">
<title>Node44</title>
<g id="a_node34"><a xlink:href="data__formatting_8cpp.html" target="_top" xlink:title="Implementation of the DataFormatter class.">
<polygon fill="none" stroke="black" points="1791.5,-224.5 1791.5,-243.5 1907.5,-243.5 1907.5,-224.5 1791.5,-224.5"/>
<text text-anchor="middle" x="1849.5" y="-231.5" font-family="Helvetica,sans-Serif" font-size="10.00">data_formatting.cpp</text>
</a>
</g>
</g>
<!-- Node43&#45;&gt;Node44 -->
<g id="edge44" class="edge">
<title>Node43&#45;&gt;Node44</title>
<path fill="none" stroke="midnightblue" d="M1823.56,-271.86C1830.14,-262.5 1838.01,-251.33 1843.34,-243.75"/>
<polygon fill="midnightblue" stroke="midnightblue" points="1820.67,-269.89 1817.77,-280.08 1826.39,-273.92 1820.67,-269.89"/>
</g>
<!-- Node43&#45;&gt;Node45 -->
<g id="edge45" class="edge">
<title>Node43&#45;&gt;Node45</title>
<path fill="none" stroke="midnightblue" d="M1790.73,-274.62C1776.48,-264.76 1758.04,-251.99 1746,-243.65"/>
<polygon fill="midnightblue" stroke="midnightblue" points="1788.75,-277.51 1798.97,-280.32 1792.74,-271.75 1788.75,-277.51"/>
</g>
<!-- Node46 -->
<g id="node36" class="node">
<title>Node46</title>
<g id="a_node36"><a xlink:href="data__log_8cpp.html" target="_top" xlink:title="The implementation of the data log class.">
<polygon fill="none" stroke="black" points="1694,-168.5 1694,-187.5 1773,-187.5 1773,-168.5 1694,-168.5"/>
<text text-anchor="middle" x="1733.5" y="-175.5" font-family="Helvetica,sans-Serif" font-size="10.00">data_log.cpp</text>
</a>
</g>
</g>
<!-- Node45&#45;&gt;Node46 -->
<g id="edge46" class="edge">
<title>Node45&#45;&gt;Node46</title>
<path fill="none" stroke="midnightblue" d="M1733.5,-213.8C1733.5,-204.91 1733.5,-194.78 1733.5,-187.75"/>
<polygon fill="midnightblue" stroke="midnightblue" points="1730,-214.08 1733.5,-224.08 1737,-214.08 1730,-214.08"/>
</g>
<!-- Node47 -->
<g id="node37" class="node">
<title>Node47</title>
<g id="a_node37"><a xlink:href="data__module_8hpp.html" target="_top" xlink:title="The data module header file.">
<polygon fill="none" stroke="red" points="1811,-112.5 1811,-131.5 1912,-131.5 1912,-112.5 1811,-112.5"/>
<text text-anchor="middle" x="1861.5" y="-119.5" font-family="Helvetica,sans-Serif" font-size="10.00">data_module.hpp</text>
</a>
</g>
</g>
<!-- Node45&#45;&gt;Node47 -->
<g id="edge47" class="edge">
<title>Node45&#45;&gt;Node47</title>
<path fill="none" stroke="midnightblue" d="M1751.17,-217.82C1778.43,-194.39 1829.86,-150.19 1851.5,-131.59"/>
<polygon fill="midnightblue" stroke="midnightblue" points="1748.85,-215.2 1743.54,-224.37 1753.41,-220.51 1748.85,-215.2"/>
</g>
<!-- Node47&#45;&gt;Node29 -->
<g id="edge48" class="edge">
<title>Node47&#45;&gt;Node29</title>
<path fill="none" stroke="midnightblue" d="M1831.05,-108.64C1806.09,-98.5 1771.42,-84.43 1749.48,-75.52"/>
<polygon fill="midnightblue" stroke="midnightblue" points="1829.84,-111.92 1840.43,-112.44 1832.48,-105.44 1829.84,-111.92"/>
</g>
<!-- Node50&#45;&gt;Node47 -->
<g id="edge51" class="edge">
<title>Node50&#45;&gt;Node47</title>
<path fill="none" stroke="midnightblue" d="M1614.93,-274.32C1598.26,-261.54 1580.13,-242.25 1590.5,-224 1614.53,-181.72 1639.58,-186.63 1684.5,-168 1726.09,-150.75 1776,-138.79 1812.2,-131.56"/>
<polygon fill="midnightblue" stroke="midnightblue" points="1613.19,-277.38 1623.36,-280.37 1617.28,-271.7 1613.19,-277.38"/>
</g>
<!-- Node51 -->
<g id="node39" class="node">
<title>Node51</title>
<g id="a_node39"><a xlink:href="influxdb_8cpp.html" target="_top" xlink:title=" ">
<polygon fill="none" stroke="black" points="1599.5,-224.5 1599.5,-243.5 1675.5,-243.5 1675.5,-224.5 1599.5,-224.5"/>
<text text-anchor="middle" x="1637.5" y="-231.5" font-family="Helvetica,sans-Serif" font-size="10.00">influxdb.cpp</text>
</a>
</g>
</g>
<!-- Node50&#45;&gt;Node51 -->
<g id="edge52" class="edge">
<title>Node50&#45;&gt;Node51</title>
<path fill="none" stroke="midnightblue" d="M1637.5,-269.8C1637.5,-260.91 1637.5,-250.78 1637.5,-243.75"/>
<polygon fill="midnightblue" stroke="midnightblue" points="1634,-270.08 1637.5,-280.08 1641,-270.08 1634,-270.08"/>
</g>
<!-- Node52&#45;&gt;Node28 -->
<g id="edge56" class="edge">
<title>Node52&#45;&gt;Node28</title>
<path fill="none" stroke="midnightblue" d="M1466.13,-167.94C1390.53,-153.81 1315.09,-140.09 1267.68,-131.51"/>
<polygon fill="midnightblue" stroke="midnightblue" points="1465.83,-171.45 1476.31,-169.85 1467.12,-164.57 1465.83,-171.45"/>
</g>
<!-- Node52&#45;&gt;Node38 -->
<g id="edge54" class="edge">
<title>Node52&#45;&gt;Node38</title>
<path fill="none" stroke="midnightblue" d="M1479.83,-165.04C1451.23,-154.88 1410.89,-140.55 1385.47,-131.52"/>
<polygon fill="midnightblue" stroke="midnightblue" points="1478.82,-168.39 1489.42,-168.44 1481.16,-161.8 1478.82,-168.39"/>
</g>
<!-- Node52&#45;&gt;Node47 -->
<g id="edge55" class="edge">
<title>Node52&#45;&gt;Node47</title>
<path fill="none" stroke="midnightblue" d="M1560.64,-168.64C1561.94,-168.42 1563.23,-168.21 1564.5,-168 1588.27,-164.1 1732.42,-142.39 1810.81,-130.61"/>
<polygon fill="midnightblue" stroke="midnightblue" points="1559.8,-165.23 1550.53,-170.36 1560.97,-172.13 1559.8,-165.23"/>
</g>
<!-- Node53 -->
<g id="node41" class="node">
<title>Node53</title>
<g id="a_node41"><a xlink:href="module_8cpp.html" target="_top" xlink:title="Implementation of the module base class.">
<polygon fill="none" stroke="black" points="1438.5,-112.5 1438.5,-131.5 1512.5,-131.5 1512.5,-112.5 1438.5,-112.5"/>
<text text-anchor="middle" x="1475.5" y="-119.5" font-family="Helvetica,sans-Serif" font-size="10.00">module.cpp</text>
</a>
</g>
</g>
<!-- Node52&#45;&gt;Node53 -->
<g id="edge57" class="edge">
<title>Node52&#45;&gt;Node53</title>
<path fill="none" stroke="midnightblue" d="M1501.44,-159.86C1494.86,-150.5 1486.99,-139.33 1481.66,-131.75"/>
<polygon fill="midnightblue" stroke="midnightblue" points="1498.61,-161.92 1507.23,-168.08 1504.33,-157.89 1498.61,-161.92"/>
</g>
<!-- Node54 -->
<g id="node42" class="node">
<title>Node54</title>
<g id="a_node42"><a xlink:href="server__module_8hpp.html" target="_top" xlink:title="Header file for the server module.">
<polygon fill="none" stroke="red" points="1930.5,-112.5 1930.5,-131.5 2040.5,-131.5 2040.5,-112.5 1930.5,-112.5"/>
<text text-anchor="middle" x="1985.5" y="-119.5" font-family="Helvetica,sans-Serif" font-size="10.00">server_module.hpp</text>
</a>
</g>
</g>
<!-- Node52&#45;&gt;Node54 -->
<g id="edge58" class="edge">
<title>Node52&#45;&gt;Node54</title>
<path fill="none" stroke="midnightblue" d="M1560.76,-172.2C1636.68,-164.39 1790.46,-148.19 1920.5,-132 1923.67,-131.61 1926.92,-131.19 1930.2,-130.76"/>
<polygon fill="midnightblue" stroke="midnightblue" points="1560.17,-168.74 1550.58,-173.24 1560.88,-175.71 1560.17,-168.74"/>
</g>
<!-- Node56 -->
<g id="node43" class="node">
<title>Node56</title>
<g id="a_node43"><a xlink:href="system__module_8hpp.html" target="_top" xlink:title=" ">
<polygon fill="none" stroke="red" points="1530.5,-112.5 1530.5,-131.5 1646.5,-131.5 1646.5,-112.5 1530.5,-112.5"/>
<text text-anchor="middle" x="1588.5" y="-119.5" font-family="Helvetica,sans-Serif" font-size="10.00">system_module.hpp</text>
</a>
</g>
</g>
<!-- Node52&#45;&gt;Node56 -->
<g id="edge60" class="edge">
<title>Node52&#45;&gt;Node56</title>
<path fill="none" stroke="midnightblue" d="M1533.81,-162.38C1547.36,-152.62 1564.74,-140.11 1576.23,-131.83"/>
<polygon fill="midnightblue" stroke="midnightblue" points="1531.62,-159.64 1525.55,-168.32 1535.71,-165.32 1531.62,-159.64"/>
</g>
<!-- Node58 -->
<g id="node44" class="node">
<title>Node58</title>
<g id="a_node44"><a xlink:href="telemetry__module_8hpp.html" target="_top" xlink:title="The telemetry module.">
<polygon fill="none" stroke="red" points="1664.5,-112.5 1664.5,-131.5 1792.5,-131.5 1792.5,-112.5 1664.5,-112.5"/>
<text text-anchor="middle" x="1728.5" y="-119.5" font-family="Helvetica,sans-Serif" font-size="10.00">telemetry_module.hpp</text>
</a>
</g>
</g>
<!-- Node52&#45;&gt;Node58 -->
<g id="edge62" class="edge">
<title>Node52&#45;&gt;Node58</title>
<path fill="none" stroke="midnightblue" d="M1557.46,-165.96C1598.07,-155.76 1657.54,-140.82 1694.59,-131.52"/>
<polygon fill="midnightblue" stroke="midnightblue" points="1556.41,-162.61 1547.57,-168.44 1558.12,-169.4 1556.41,-162.61"/>
</g>
<!-- Node54&#45;&gt;Node29 -->
<g id="edge59" class="edge">
<title>Node54&#45;&gt;Node29</title>
<path fill="none" stroke="midnightblue" d="M1934.79,-110.35C1886.22,-100.14 1813.88,-84.94 1769.03,-75.52"/>
<polygon fill="midnightblue" stroke="midnightblue" points="1934.27,-113.81 1944.78,-112.44 1935.71,-106.96 1934.27,-113.81"/>
</g>
<!-- Node56&#45;&gt;Node29 -->
<g id="edge61" class="edge">
<title>Node56&#45;&gt;Node29</title>
<path fill="none" stroke="midnightblue" d="M1620.2,-108.77C1646.5,-98.63 1683.22,-84.47 1706.42,-75.52"/>
<polygon fill="midnightblue" stroke="midnightblue" points="1618.75,-105.58 1610.68,-112.44 1621.27,-112.11 1618.75,-105.58"/>
</g>
<!-- Node58&#45;&gt;Node29 -->
<g id="edge63" class="edge">
<title>Node58&#45;&gt;Node29</title>
<path fill="none" stroke="midnightblue" d="M1728.5,-101.8C1728.5,-92.91 1728.5,-82.78 1728.5,-75.75"/>
<polygon fill="midnightblue" stroke="midnightblue" points="1725,-102.08 1728.5,-112.08 1732,-102.08 1725,-102.08"/>
</g>
<!-- Node60&#45;&gt;Node54 -->
<g id="edge66" class="edge">
<title>Node60&#45;&gt;Node54</title>
<path fill="none" stroke="midnightblue" d="M1983.84,-214.35C1984.28,-190.25 1985.02,-149.31 1985.34,-131.59"/>
<polygon fill="midnightblue" stroke="midnightblue" points="1980.34,-214.31 1983.66,-224.37 1987.34,-214.43 1980.34,-214.31"/>
</g>
<!-- Node61 -->
<g id="node46" class="node">
<title>Node61</title>
<g id="a_node46"><a xlink:href="request__handler_8cpp.html" target="_top" xlink:title="The request handler class implementation.">
<polygon fill="none" stroke="black" points="1842,-168.5 1842,-187.5 1957,-187.5 1957,-168.5 1842,-168.5"/>
<text text-anchor="middle" x="1899.5" y="-175.5" font-family="Helvetica,sans-Serif" font-size="10.00">request_handler.cpp</text>
</a>
</g>
</g>
<!-- Node60&#45;&gt;Node61 -->
<g id="edge65" class="edge">
<title>Node60&#45;&gt;Node61</title>
<path fill="none" stroke="midnightblue" d="M1961.57,-218.9C1946.16,-209 1926.05,-196.07 1912.96,-187.65"/>
<polygon fill="midnightblue" stroke="midnightblue" points="1959.7,-221.86 1970,-224.32 1963.48,-215.97 1959.7,-221.86"/>
</g>
<!-- Node62&#45;&gt;Node60 -->
<g id="edge68" class="edge">
<title>Node62&#45;&gt;Node60</title>
<path fill="none" stroke="midnightblue" d="M1939.25,-273.54C1950.31,-263.91 1964.13,-251.87 1973.36,-243.83"/>
<polygon fill="midnightblue" stroke="midnightblue" points="1936.7,-271.12 1931.46,-280.32 1941.3,-276.4 1936.7,-271.12"/>
</g>
</g>
</svg>
