<?xml version="1.0" encoding="UTF-8" standalone="no"?>
<!DOCTYPE svg PUBLIC "-//W3C//DTD SVG 1.1//EN"
 "http://www.w3.org/Graphics/SVG/1.1/DTD/svg11.dtd">
<!-- Generated by graphviz version 2.43.0 (0)
 -->
<!-- Title: gdl_message_queue.hpp Pages: 1 -->
<svg width="382pt" height="140pt"
 viewBox="0.00 0.00 382.00 140.00" xmlns="http://www.w3.org/2000/svg" xmlns:xlink="http://www.w3.org/1999/xlink">
<g id="graph0" class="graph" transform="scale(1 1) rotate(0) translate(4 136)">
<title>gdl_message_queue.hpp</title>
<!-- Node1 -->
<g id="node1" class="node">
<title>Node1</title>
<g id="a_node1"><a xlink:title="A queue for messages.">
<polygon fill="#bfbfbf" stroke="black" points="72.5,-112.5 72.5,-131.5 209.5,-131.5 209.5,-112.5 72.5,-112.5"/>
<text text-anchor="middle" x="141" y="-119.5" font-family="Helvetica,sans-Serif" font-size="10.00">gdl_message_queue.hpp</text>
</a>
</g>
</g>
<!-- Node2 -->
<g id="node2" class="node">
<title>Node2</title>
<g id="a_node2"><a xlink:title=" ">
<polygon fill="none" stroke="#bfbfbf" points="0,-56.5 0,-75.5 48,-75.5 48,-56.5 0,-56.5"/>
<text text-anchor="middle" x="24" y="-63.5" font-family="Helvetica,sans-Serif" font-size="10.00">mutex</text>
</a>
</g>
</g>
<!-- Node1&#45;&gt;Node2 -->
<g id="edge1" class="edge">
<title>Node1&#45;&gt;Node2</title>
<path fill="none" stroke="midnightblue" d="M122.46,-112.44C103.38,-103.64 73.43,-89.81 51.56,-79.72"/>
<polygon fill="midnightblue" stroke="midnightblue" points="53,-76.53 42.45,-75.52 50.07,-82.88 53,-76.53"/>
</g>
<!-- Node3 -->
<g id="node3" class="node">
<title>Node3</title>
<g id="a_node3"><a xlink:title=" ">
<polygon fill="none" stroke="#bfbfbf" points="66.5,-56.5 66.5,-75.5 113.5,-75.5 113.5,-56.5 66.5,-56.5"/>
<text text-anchor="middle" x="90" y="-63.5" font-family="Helvetica,sans-Serif" font-size="10.00">queue</text>
</a>
</g>
</g>
<!-- Node1&#45;&gt;Node3 -->
<g id="edge2" class="edge">
<title>Node1&#45;&gt;Node3</title>
<path fill="none" stroke="midnightblue" d="M132.58,-112.08C125.15,-104.22 114.15,-92.57 105.19,-83.08"/>
<polygon fill="midnightblue" stroke="midnightblue" points="107.68,-80.62 98.26,-75.75 102.59,-85.42 107.68,-80.62"/>
</g>
<!-- Node4 -->
<g id="node4" class="node">
<title>Node4</title>
<g id="a_node4"><a xlink:href="gdl__configuration_8hpp.html" target="_top" xlink:title="Contains the configuration struct for GDL.">
<polygon fill="none" stroke="black" points="132,-56.5 132,-75.5 254,-75.5 254,-56.5 132,-56.5"/>
<text text-anchor="middle" x="193" y="-63.5" font-family="Helvetica,sans-Serif" font-size="10.00">gdl_configuration.hpp</text>
</a>
</g>
</g>
<!-- Node1&#45;&gt;Node4 -->
<g id="edge3" class="edge">
<title>Node1&#45;&gt;Node4</title>
<path fill="none" stroke="midnightblue" d="M149.59,-112.08C157.16,-104.22 168.38,-92.57 177.51,-83.08"/>
<polygon fill="midnightblue" stroke="midnightblue" points="180.16,-85.38 184.57,-75.75 175.12,-80.53 180.16,-85.38"/>
</g>
<!-- Node7 -->
<g id="node7" class="node">
<title>Node7</title>
<g id="a_node7"><a xlink:href="gdl__message_8hpp.html" target="_top" xlink:title="The message struct for GDL.">
<polygon fill="none" stroke="black" points="272,-56.5 272,-75.5 374,-75.5 374,-56.5 272,-56.5"/>
<text text-anchor="middle" x="323" y="-63.5" font-family="Helvetica,sans-Serif" font-size="10.00">gdl_message.hpp</text>
</a>
</g>
</g>
<!-- Node1&#45;&gt;Node7 -->
<g id="edge6" class="edge">
<title>Node1&#45;&gt;Node7</title>
<path fill="none" stroke="midnightblue" d="M169.84,-112.44C200.86,-103.24 250.33,-88.56 284.62,-78.39"/>
<polygon fill="midnightblue" stroke="midnightblue" points="285.71,-81.72 294.3,-75.52 283.71,-75.01 285.71,-81.72"/>
</g>
<!-- Node5 -->
<g id="node5" class="node">
<title>Node5</title>
<g id="a_node5"><a xlink:title=" ">
<polygon fill="none" stroke="#bfbfbf" points="200,-0.5 200,-19.5 250,-19.5 250,-0.5 200,-0.5"/>
<text text-anchor="middle" x="225" y="-7.5" font-family="Helvetica,sans-Serif" font-size="10.00">cstdint</text>
</a>
</g>
</g>
<!-- Node4&#45;&gt;Node5 -->
<g id="edge4" class="edge">
<title>Node4&#45;&gt;Node5</title>
<path fill="none" stroke="midnightblue" d="M198.28,-56.08C202.71,-48.61 209.16,-37.72 214.62,-28.52"/>
<polygon fill="midnightblue" stroke="midnightblue" points="217.73,-30.14 219.81,-19.75 211.71,-26.57 217.73,-30.14"/>
</g>
<!-- Node6 -->
<g id="node6" class="node">
<title>Node6</title>
<g id="a_node6"><a xlink:title=" ">
<polygon fill="none" stroke="#bfbfbf" points="284,-0.5 284,-19.5 328,-19.5 328,-0.5 284,-0.5"/>
<text text-anchor="middle" x="306" y="-7.5" font-family="Helvetica,sans-Serif" font-size="10.00">string</text>
</a>
</g>
</g>
<!-- Node4&#45;&gt;Node6 -->
<g id="edge5" class="edge">
<title>Node4&#45;&gt;Node6</title>
<path fill="none" stroke="midnightblue" d="M210.91,-56.44C229.25,-47.68 258.01,-33.94 279.09,-23.86"/>
<polygon fill="midnightblue" stroke="midnightblue" points="280.67,-26.99 288.18,-19.52 277.65,-20.67 280.67,-26.99"/>
</g>
<!-- Node7&#45;&gt;Node5 -->
<g id="edge7" class="edge">
<title>Node7&#45;&gt;Node5</title>
<path fill="none" stroke="midnightblue" d="M307.25,-56.32C291.68,-47.74 267.62,-34.49 249.54,-24.52"/>
<polygon fill="midnightblue" stroke="midnightblue" points="251.15,-21.42 240.71,-19.65 247.78,-27.55 251.15,-21.42"/>
</g>
<!-- Node7&#45;&gt;Node6 -->
<g id="edge8" class="edge">
<title>Node7&#45;&gt;Node6</title>
<path fill="none" stroke="midnightblue" d="M320.19,-56.08C317.92,-48.85 314.63,-38.41 311.79,-29.4"/>
<polygon fill="midnightblue" stroke="midnightblue" points="315.1,-28.24 308.75,-19.75 308.42,-30.34 315.1,-28.24"/>
</g>
</g>
</svg>
