<?xml version="1.0" encoding="UTF-8" standalone="no"?>
<!DOCTYPE svg PUBLIC "-//W3C//DTD SVG 1.1//EN"
 "http://www.w3.org/Graphics/SVG/1.1/DTD/svg11.dtd">
<!-- Generated by graphviz version 2.43.0 (0)
 -->
<!-- Title: gdl_transport_layer.hpp Pages: 1 -->
<svg width="1077pt" height="252pt"
 viewBox="0.00 0.00 1076.50 252.00" xmlns="http://www.w3.org/2000/svg" xmlns:xlink="http://www.w3.org/1999/xlink">
<g id="graph0" class="graph" transform="scale(1 1) rotate(0) translate(4 248)">
<title>gdl_transport_layer.hpp</title>
<!-- Node1 -->
<g id="node1" class="node">
<title>Node1</title>
<g id="a_node1"><a xlink:title="The GDL TransportLayer class/interface.">
<polygon fill="#bfbfbf" stroke="black" points="280.5,-224.5 280.5,-243.5 411.5,-243.5 411.5,-224.5 280.5,-224.5"/>
<text text-anchor="middle" x="346" y="-231.5" font-family="Helvetica,sans-Serif" font-size="10.00">gdl_transport_layer.hpp</text>
</a>
</g>
</g>
<!-- Node2 -->
<g id="node2" class="node">
<title>Node2</title>
<g id="a_node2"><a xlink:title=" ">
<polygon fill="none" stroke="#bfbfbf" points="0,-168.5 0,-187.5 126,-187.5 126,-168.5 0,-168.5"/>
<text text-anchor="middle" x="63" y="-175.5" font-family="Helvetica,sans-Serif" font-size="10.00">BoosterSeat/sleep.hpp</text>
</a>
</g>
</g>
<!-- Node1&#45;&gt;Node2 -->
<g id="edge1" class="edge">
<title>Node1&#45;&gt;Node2</title>
<path fill="none" stroke="midnightblue" d="M301.16,-224.44C251.38,-214.94 171.02,-199.61 117.61,-189.42"/>
<polygon fill="midnightblue" stroke="midnightblue" points="118.11,-185.95 107.63,-187.52 116.8,-192.83 118.11,-185.95"/>
</g>
<!-- Node3 -->
<g id="node3" class="node">
<title>Node3</title>
<g id="a_node3"><a xlink:title=" ">
<polygon fill="none" stroke="#bfbfbf" points="144.5,-168.5 144.5,-187.5 269.5,-187.5 269.5,-168.5 144.5,-168.5"/>
<text text-anchor="middle" x="207" y="-175.5" font-family="Helvetica,sans-Serif" font-size="10.00">BoosterSeat/timer.hpp</text>
</a>
</g>
</g>
<!-- Node1&#45;&gt;Node3 -->
<g id="edge2" class="edge">
<title>Node1&#45;&gt;Node3</title>
<path fill="none" stroke="midnightblue" d="M323.98,-224.44C300.9,-215.48 264.44,-201.31 238.36,-191.18"/>
<polygon fill="midnightblue" stroke="midnightblue" points="239.51,-187.88 228.92,-187.52 236.98,-194.4 239.51,-187.88"/>
</g>
<!-- Node4 -->
<g id="node4" class="node">
<title>Node4</title>
<g id="a_node4"><a xlink:href="gdl__configuration_8hpp.html" target="_top" xlink:title="Contains the configuration struct for GDL.">
<polygon fill="none" stroke="black" points="165,-56.5 165,-75.5 287,-75.5 287,-56.5 165,-56.5"/>
<text text-anchor="middle" x="226" y="-63.5" font-family="Helvetica,sans-Serif" font-size="10.00">gdl_configuration.hpp</text>
</a>
</g>
</g>
<!-- Node1&#45;&gt;Node4 -->
<g id="edge3" class="edge">
<title>Node1&#45;&gt;Node4</title>
<path fill="none" stroke="midnightblue" d="M339.55,-224.08C320.33,-197.49 263.26,-118.54 238.12,-83.76"/>
<polygon fill="midnightblue" stroke="midnightblue" points="240.89,-81.62 232.19,-75.57 235.22,-85.72 240.89,-81.62"/>
</g>
<!-- Node7 -->
<g id="node7" class="node">
<title>Node7</title>
<g id="a_node7"><a xlink:href="gdl__message__queue_8hpp.html" target="_top" xlink:title="A queue for messages.">
<polygon fill="none" stroke="black" points="326.5,-112.5 326.5,-131.5 463.5,-131.5 463.5,-112.5 326.5,-112.5"/>
<text text-anchor="middle" x="395" y="-119.5" font-family="Helvetica,sans-Serif" font-size="10.00">gdl_message_queue.hpp</text>
</a>
</g>
</g>
<!-- Node1&#45;&gt;Node7 -->
<g id="edge6" class="edge">
<title>Node1&#45;&gt;Node7</title>
<path fill="none" stroke="midnightblue" d="M349.84,-224.37C357.82,-206.46 376.33,-164.92 387,-140.95"/>
<polygon fill="midnightblue" stroke="midnightblue" points="390.3,-142.15 391.17,-131.59 383.91,-139.3 390.3,-142.15"/>
</g>
<!-- Node12 -->
<g id="node12" class="node">
<title>Node12</title>
<g id="a_node12"><a xlink:href="gdl__network__layer_8hpp.html" target="_top" xlink:title="The network layer for the Giraffe Data Link.">
<polygon fill="none" stroke="black" points="595.5,-112.5 595.5,-131.5 722.5,-131.5 722.5,-112.5 595.5,-112.5"/>
<text text-anchor="middle" x="659" y="-119.5" font-family="Helvetica,sans-Serif" font-size="10.00">gdl_network_layer.hpp</text>
</a>
</g>
</g>
<!-- Node1&#45;&gt;Node12 -->
<g id="edge14" class="edge">
<title>Node1&#45;&gt;Node12</title>
<path fill="none" stroke="midnightblue" d="M370.3,-224.46C425.65,-205.01 561.24,-157.36 624.92,-134.98"/>
<polygon fill="midnightblue" stroke="midnightblue" points="626.23,-138.23 634.5,-131.61 623.9,-131.62 626.23,-138.23"/>
</g>
<!-- Node18 -->
<g id="node18" class="node">
<title>Node18</title>
<g id="a_node18"><a xlink:href="gdl__network__layer__aprs_8hpp.html" target="_top" xlink:title="The network layer with APRS messaging for the Giraffe Data Link.">
<polygon fill="none" stroke="black" points="700,-168.5 700,-187.5 854,-187.5 854,-168.5 700,-168.5"/>
<text text-anchor="middle" x="777" y="-175.5" font-family="Helvetica,sans-Serif" font-size="10.00">gdl_network_layer_aprs.hpp</text>
</a>
</g>
</g>
<!-- Node1&#45;&gt;Node18 -->
<g id="edge25" class="edge">
<title>Node1&#45;&gt;Node18</title>
<path fill="none" stroke="midnightblue" d="M411.93,-224.74C489.12,-215.07 616.84,-199.07 698.92,-188.78"/>
<polygon fill="midnightblue" stroke="midnightblue" points="699.46,-192.24 708.94,-187.53 698.59,-185.3 699.46,-192.24"/>
</g>
<!-- Node5 -->
<g id="node5" class="node">
<title>Node5</title>
<g id="a_node5"><a xlink:title=" ">
<polygon fill="none" stroke="#bfbfbf" points="554,-0.5 554,-19.5 604,-19.5 604,-0.5 554,-0.5"/>
<text text-anchor="middle" x="579" y="-7.5" font-family="Helvetica,sans-Serif" font-size="10.00">cstdint</text>
</a>
</g>
</g>
<!-- Node4&#45;&gt;Node5 -->
<g id="edge4" class="edge">
<title>Node4&#45;&gt;Node5</title>
<path fill="none" stroke="midnightblue" d="M287.13,-56.78C365.96,-46.11 497.63,-28.09 543.97,-19.88"/>
<polygon fill="midnightblue" stroke="midnightblue" points="544.65,-23.32 553.83,-18.02 543.35,-16.44 544.65,-23.32"/>
</g>
<!-- Node6 -->
<g id="node6" class="node">
<title>Node6</title>
<g id="a_node6"><a xlink:title=" ">
<polygon fill="none" stroke="#bfbfbf" points="284,-0.5 284,-19.5 328,-19.5 328,-0.5 284,-0.5"/>
<text text-anchor="middle" x="306" y="-7.5" font-family="Helvetica,sans-Serif" font-size="10.00">string</text>
</a>
</g>
</g>
<!-- Node4&#45;&gt;Node6 -->
<g id="edge5" class="edge">
<title>Node4&#45;&gt;Node6</title>
<path fill="none" stroke="midnightblue" d="M238.85,-56.32C251.22,-47.98 270.13,-35.21 284.74,-25.35"/>
<polygon fill="midnightblue" stroke="midnightblue" points="286.85,-28.15 293.18,-19.65 282.93,-22.35 286.85,-28.15"/>
</g>
<!-- Node7&#45;&gt;Node4 -->
<g id="edge9" class="edge">
<title>Node7&#45;&gt;Node4</title>
<path fill="none" stroke="midnightblue" d="M368.22,-112.44C339.67,-103.32 294.27,-88.81 262.46,-78.65"/>
<polygon fill="midnightblue" stroke="midnightblue" points="263.24,-75.23 252.65,-75.52 261.11,-81.89 263.24,-75.23"/>
</g>
<!-- Node8 -->
<g id="node8" class="node">
<title>Node8</title>
<g id="a_node8"><a xlink:title=" ">
<polygon fill="none" stroke="#bfbfbf" points="305,-56.5 305,-75.5 353,-75.5 353,-56.5 305,-56.5"/>
<text text-anchor="middle" x="329" y="-63.5" font-family="Helvetica,sans-Serif" font-size="10.00">mutex</text>
</a>
</g>
</g>
<!-- Node7&#45;&gt;Node8 -->
<g id="edge7" class="edge">
<title>Node7&#45;&gt;Node8</title>
<path fill="none" stroke="midnightblue" d="M384.4,-112.32C374.54,-104.26 359.65,-92.08 347.78,-82.37"/>
<polygon fill="midnightblue" stroke="midnightblue" points="349.75,-79.46 339.8,-75.83 345.32,-84.88 349.75,-79.46"/>
</g>
<!-- Node9 -->
<g id="node9" class="node">
<title>Node9</title>
<g id="a_node9"><a xlink:title=" ">
<polygon fill="none" stroke="#bfbfbf" points="371.5,-56.5 371.5,-75.5 418.5,-75.5 418.5,-56.5 371.5,-56.5"/>
<text text-anchor="middle" x="395" y="-63.5" font-family="Helvetica,sans-Serif" font-size="10.00">queue</text>
</a>
</g>
</g>
<!-- Node7&#45;&gt;Node9 -->
<g id="edge8" class="edge">
<title>Node7&#45;&gt;Node9</title>
<path fill="none" stroke="midnightblue" d="M395,-112.08C395,-105.01 395,-94.86 395,-85.99"/>
<polygon fill="midnightblue" stroke="midnightblue" points="398.5,-85.75 395,-75.75 391.5,-85.75 398.5,-85.75"/>
</g>
<!-- Node10 -->
<g id="node10" class="node">
<title>Node10</title>
<g id="a_node10"><a xlink:href="gdl__message_8hpp.html" target="_top" xlink:title="The message struct for GDL.">
<polygon fill="none" stroke="black" points="437,-56.5 437,-75.5 539,-75.5 539,-56.5 437,-56.5"/>
<text text-anchor="middle" x="488" y="-63.5" font-family="Helvetica,sans-Serif" font-size="10.00">gdl_message.hpp</text>
</a>
</g>
</g>
<!-- Node7&#45;&gt;Node10 -->
<g id="edge10" class="edge">
<title>Node7&#45;&gt;Node10</title>
<path fill="none" stroke="midnightblue" d="M409.94,-112.32C424.59,-103.82 447.13,-90.73 464.24,-80.8"/>
<polygon fill="midnightblue" stroke="midnightblue" points="466.2,-83.7 473.1,-75.65 462.69,-77.65 466.2,-83.7"/>
</g>
<!-- Node10&#45;&gt;Node5 -->
<g id="edge12" class="edge">
<title>Node10&#45;&gt;Node5</title>
<path fill="none" stroke="midnightblue" d="M502.62,-56.32C516.95,-47.82 539.01,-34.73 555.75,-24.8"/>
<polygon fill="midnightblue" stroke="midnightblue" points="557.6,-27.77 564.42,-19.65 554.03,-21.75 557.6,-27.77"/>
</g>
<!-- Node10&#45;&gt;Node6 -->
<g id="edge13" class="edge">
<title>Node10&#45;&gt;Node6</title>
<path fill="none" stroke="midnightblue" d="M459.16,-56.44C426.19,-46.66 372.36,-30.69 338.08,-20.52"/>
<polygon fill="midnightblue" stroke="midnightblue" points="338.7,-17.05 328.12,-17.56 336.71,-23.76 338.7,-17.05"/>
</g>
<!-- Node11 -->
<g id="node11" class="node">
<title>Node11</title>
<g id="a_node11"><a xlink:title=" ">
<polygon fill="none" stroke="#bfbfbf" points="414,-0.5 414,-19.5 536,-19.5 536,-0.5 414,-0.5"/>
<text text-anchor="middle" x="475" y="-7.5" font-family="Helvetica,sans-Serif" font-size="10.00">BoosterSeat/time.hpp</text>
</a>
</g>
</g>
<!-- Node10&#45;&gt;Node11 -->
<g id="edge11" class="edge">
<title>Node10&#45;&gt;Node11</title>
<path fill="none" stroke="midnightblue" d="M485.85,-56.08C484.13,-48.93 481.65,-38.64 479.5,-29.69"/>
<polygon fill="midnightblue" stroke="midnightblue" points="482.85,-28.65 477.11,-19.75 476.04,-30.29 482.85,-28.65"/>
</g>
<!-- Node12&#45;&gt;Node5 -->
<g id="edge15" class="edge">
<title>Node12&#45;&gt;Node5</title>
<path fill="none" stroke="midnightblue" d="M634.11,-112.36C617.61,-105.26 597.04,-93.5 586,-76 577.39,-62.35 576.18,-43.81 576.81,-30.03"/>
<polygon fill="midnightblue" stroke="midnightblue" points="580.33,-30.03 577.65,-19.77 573.35,-29.46 580.33,-30.03"/>
</g>
<!-- Node12&#45;&gt;Node10 -->
<g id="edge17" class="edge">
<title>Node12&#45;&gt;Node10</title>
<path fill="none" stroke="midnightblue" d="M631.9,-112.44C603.01,-103.32 557.08,-88.81 524.89,-78.65"/>
<polygon fill="midnightblue" stroke="midnightblue" points="525.56,-75.19 514.97,-75.52 523.45,-81.87 525.56,-75.19"/>
</g>
<!-- Node13 -->
<g id="node13" class="node">
<title>Node13</title>
<g id="a_node13"><a xlink:title=" ">
<polygon fill="none" stroke="#bfbfbf" points="663.5,-0.5 663.5,-19.5 710.5,-19.5 710.5,-0.5 663.5,-0.5"/>
<text text-anchor="middle" x="687" y="-7.5" font-family="Helvetica,sans-Serif" font-size="10.00">vector</text>
</a>
</g>
</g>
<!-- Node12&#45;&gt;Node13 -->
<g id="edge16" class="edge">
<title>Node12&#45;&gt;Node13</title>
<path fill="none" stroke="midnightblue" d="M685.21,-112.41C701.85,-105.44 722.06,-93.81 732,-76 742.08,-57.94 724.69,-38.61 708.69,-25.77"/>
<polygon fill="midnightblue" stroke="midnightblue" points="710.69,-22.9 700.59,-19.69 706.49,-28.5 710.69,-22.9"/>
</g>
<!-- Node14 -->
<g id="node14" class="node">
<title>Node14</title>
<g id="a_node14"><a xlink:href="gdl__physical__layer_8hpp.html" target="_top" xlink:title="The generic physical layer for the Giraffe Data Link.">
<polygon fill="none" stroke="black" points="595,-56.5 595,-75.5 723,-75.5 723,-56.5 595,-56.5"/>
<text text-anchor="middle" x="659" y="-63.5" font-family="Helvetica,sans-Serif" font-size="10.00">gdl_physical_layer.hpp</text>
</a>
</g>
</g>
<!-- Node12&#45;&gt;Node14 -->
<g id="edge18" class="edge">
<title>Node12&#45;&gt;Node14</title>
<path fill="none" stroke="midnightblue" d="M659,-112.08C659,-105.01 659,-94.86 659,-85.99"/>
<polygon fill="midnightblue" stroke="midnightblue" points="662.5,-85.75 659,-75.75 655.5,-85.75 662.5,-85.75"/>
</g>
<!-- Node15 -->
<g id="node15" class="node">
<title>Node15</title>
<g id="a_node15"><a xlink:href="gdl__status_8hpp.html" target="_top" xlink:title="GDL Status class/interface.">
<polygon fill="none" stroke="black" points="779,-56.5 779,-75.5 867,-75.5 867,-56.5 779,-56.5"/>
<text text-anchor="middle" x="823" y="-63.5" font-family="Helvetica,sans-Serif" font-size="10.00">gdl_status.hpp</text>
</a>
</g>
</g>
<!-- Node12&#45;&gt;Node15 -->
<g id="edge21" class="edge">
<title>Node12&#45;&gt;Node15</title>
<path fill="none" stroke="midnightblue" d="M684.99,-112.44C712.7,-103.32 756.75,-88.81 787.62,-78.65"/>
<polygon fill="midnightblue" stroke="midnightblue" points="788.73,-81.97 797.14,-75.52 786.54,-75.32 788.73,-81.97"/>
</g>
<!-- Node14&#45;&gt;Node5 -->
<g id="edge19" class="edge">
<title>Node14&#45;&gt;Node5</title>
<path fill="none" stroke="midnightblue" d="M646.15,-56.32C633.78,-47.98 614.87,-35.21 600.26,-25.35"/>
<polygon fill="midnightblue" stroke="midnightblue" points="602.07,-22.35 591.82,-19.65 598.15,-28.15 602.07,-22.35"/>
</g>
<!-- Node14&#45;&gt;Node13 -->
<g id="edge20" class="edge">
<title>Node14&#45;&gt;Node13</title>
<path fill="none" stroke="midnightblue" d="M663.62,-56.08C667.46,-48.69 673.02,-37.95 677.76,-28.81"/>
<polygon fill="midnightblue" stroke="midnightblue" points="680.97,-30.24 682.46,-19.75 674.75,-27.02 680.97,-30.24"/>
</g>
<!-- Node15&#45;&gt;Node5 -->
<g id="edge22" class="edge">
<title>Node15&#45;&gt;Node5</title>
<path fill="none" stroke="midnightblue" d="M784.34,-56.44C737.46,-46.07 659.15,-28.74 613.99,-18.74"/>
<polygon fill="midnightblue" stroke="midnightblue" points="614.59,-15.29 604.07,-16.55 613.08,-22.13 614.59,-15.29"/>
</g>
<!-- Node16 -->
<g id="node16" class="node">
<title>Node16</title>
<g id="a_node16"><a xlink:title=" ">
<polygon fill="none" stroke="#bfbfbf" points="758,-0.5 758,-19.5 818,-19.5 818,-0.5 758,-0.5"/>
<text text-anchor="middle" x="788" y="-7.5" font-family="Helvetica,sans-Serif" font-size="10.00">iostream</text>
</a>
</g>
</g>
<!-- Node15&#45;&gt;Node16 -->
<g id="edge23" class="edge">
<title>Node15&#45;&gt;Node16</title>
<path fill="none" stroke="midnightblue" d="M817.22,-56.08C812.33,-48.53 805.17,-37.49 799.17,-28.23"/>
<polygon fill="midnightblue" stroke="midnightblue" points="802.05,-26.24 793.67,-19.75 796.17,-30.05 802.05,-26.24"/>
</g>
<!-- Node17 -->
<g id="node17" class="node">
<title>Node17</title>
<g id="a_node17"><a xlink:title=" ">
<polygon fill="none" stroke="#bfbfbf" points="836,-0.5 836,-19.5 954,-19.5 954,-0.5 836,-0.5"/>
<text text-anchor="middle" x="895" y="-7.5" font-family="Helvetica,sans-Serif" font-size="10.00">SignalEasel/aprs.hpp</text>
</a>
</g>
</g>
<!-- Node15&#45;&gt;Node17 -->
<g id="edge24" class="edge">
<title>Node15&#45;&gt;Node17</title>
<path fill="none" stroke="midnightblue" d="M834.57,-56.32C845.42,-48.18 861.88,-35.84 874.88,-26.09"/>
<polygon fill="midnightblue" stroke="midnightblue" points="877.32,-28.63 883.22,-19.83 873.12,-23.03 877.32,-28.63"/>
</g>
<!-- Node18&#45;&gt;Node12 -->
<g id="edge28" class="edge">
<title>Node18&#45;&gt;Node12</title>
<path fill="none" stroke="midnightblue" d="M758.3,-168.44C739.06,-159.64 708.85,-145.81 686.8,-135.72"/>
<polygon fill="midnightblue" stroke="midnightblue" points="688.16,-132.5 677.61,-131.52 685.25,-138.86 688.16,-132.5"/>
</g>
<!-- Node18&#45;&gt;Node17 -->
<g id="edge26" class="edge">
<title>Node18&#45;&gt;Node17</title>
<path fill="none" stroke="midnightblue" d="M788.65,-168.35C809.31,-152.39 852.42,-116.25 876,-76 884.45,-61.58 889.37,-43.12 892.08,-29.57"/>
<polygon fill="midnightblue" stroke="midnightblue" points="895.56,-29.98 893.87,-19.53 888.67,-28.76 895.56,-29.98"/>
</g>
<!-- Node19 -->
<g id="node19" class="node">
<title>Node19</title>
<g id="a_node19"><a xlink:title=" ">
<polygon fill="none" stroke="#bfbfbf" points="923.5,-112.5 923.5,-131.5 1068.5,-131.5 1068.5,-112.5 923.5,-112.5"/>
<text text-anchor="middle" x="996" y="-119.5" font-family="Helvetica,sans-Serif" font-size="10.00">SignalEasel/exception.hpp</text>
</a>
</g>
</g>
<!-- Node18&#45;&gt;Node19 -->
<g id="edge27" class="edge">
<title>Node18&#45;&gt;Node19</title>
<path fill="none" stroke="midnightblue" d="M811.7,-168.44C849.58,-159.1 910.35,-144.12 951.66,-133.93"/>
<polygon fill="midnightblue" stroke="midnightblue" points="952.59,-137.31 961.46,-131.52 950.91,-130.51 952.59,-137.31"/>
</g>
</g>
</svg>
