<?xml version="1.0" encoding="UTF-8" standalone="no"?>
<!DOCTYPE svg PUBLIC "-//W3C//DTD SVG 1.1//EN"
 "http://www.w3.org/Graphics/SVG/1.1/DTD/svg11.dtd">
<!-- Generated by graphviz version 2.43.0 (0)
 -->
<!-- Title: gdl_packet.hpp Pages: 1 -->
<svg width="990pt" height="196pt"
 viewBox="0.00 0.00 990.39 196.00" xmlns="http://www.w3.org/2000/svg" xmlns:xlink="http://www.w3.org/1999/xlink">
<g id="graph0" class="graph" transform="scale(1 1) rotate(0) translate(4 192)">
<title>gdl_packet.hpp</title>
<!-- Node1 -->
<g id="node1" class="node">
<title>Node1</title>
<g id="a_node1"><a xlink:title="Data Link Packet &#45; Used in the transport and network layers.">
<polygon fill="#bfbfbf" stroke="black" points="270.39,-168.5 270.39,-187.5 360.39,-187.5 360.39,-168.5 270.39,-168.5"/>
<text text-anchor="middle" x="315.39" y="-175.5" font-family="Helvetica,sans-Serif" font-size="10.00">gdl_packet.hpp</text>
</a>
</g>
</g>
<!-- Node2 -->
<g id="node2" class="node">
<title>Node2</title>
<g id="a_node2"><a xlink:href="gdl__message_8hpp.html" target="_top" xlink:title="Message and Message Queue for Giraffe Data Link.">
<polygon fill="none" stroke="black" points="264.39,-112.5 264.39,-131.5 366.39,-131.5 366.39,-112.5 264.39,-112.5"/>
<text text-anchor="middle" x="315.39" y="-119.5" font-family="Helvetica,sans-Serif" font-size="10.00">gdl_message.hpp</text>
</a>
</g>
</g>
<!-- Node1&#45;&gt;Node2 -->
<g id="edge1" class="edge">
<title>Node1&#45;&gt;Node2</title>
<path fill="none" stroke="midnightblue" d="M315.39,-168.08C315.39,-161.01 315.39,-150.86 315.39,-141.99"/>
<polygon fill="midnightblue" stroke="midnightblue" points="318.89,-141.75 315.39,-131.75 311.89,-141.75 318.89,-141.75"/>
</g>
<!-- Node3 -->
<g id="node3" class="node">
<title>Node3</title>
<g id="a_node3"><a xlink:title=" ">
<polygon fill="none" stroke="#bfbfbf" points="325.39,-0.5 325.39,-19.5 375.39,-19.5 375.39,-0.5 325.39,-0.5"/>
<text text-anchor="middle" x="350.39" y="-7.5" font-family="Helvetica,sans-Serif" font-size="10.00">cstdint</text>
</a>
</g>
</g>
<!-- Node2&#45;&gt;Node3 -->
<g id="edge2" class="edge">
<title>Node2&#45;&gt;Node3</title>
<path fill="none" stroke="midnightblue" d="M264.19,-121.34C184.72,-120.65 37.37,-114.1 4.39,-76 -1.43,-69.28 -1.48,-62.68 4.39,-56 24.73,-32.84 231.46,-18.06 315.32,-12.98"/>
<polygon fill="midnightblue" stroke="midnightblue" points="315.61,-16.47 325.38,-12.38 315.19,-9.48 315.61,-16.47"/>
</g>
<!-- Node4 -->
<g id="node4" class="node">
<title>Node4</title>
<g id="a_node4"><a xlink:title=" ">
<polygon fill="none" stroke="#bfbfbf" points="13.39,-56.5 13.39,-75.5 69.39,-75.5 69.39,-56.5 13.39,-56.5"/>
<text text-anchor="middle" x="41.39" y="-63.5" font-family="Helvetica,sans-Serif" font-size="10.00">iomanip</text>
</a>
</g>
</g>
<!-- Node2&#45;&gt;Node4 -->
<g id="edge3" class="edge">
<title>Node2&#45;&gt;Node4</title>
<path fill="none" stroke="midnightblue" d="M266.67,-112.5C220.81,-104.33 149.99,-91.28 79.57,-76.17"/>
<polygon fill="midnightblue" stroke="midnightblue" points="80.15,-72.72 69.64,-74.03 78.67,-79.56 80.15,-72.72"/>
</g>
<!-- Node5 -->
<g id="node5" class="node">
<title>Node5</title>
<g id="a_node5"><a xlink:title=" ">
<polygon fill="none" stroke="#bfbfbf" points="87.39,-56.5 87.39,-75.5 135.39,-75.5 135.39,-56.5 87.39,-56.5"/>
<text text-anchor="middle" x="111.39" y="-63.5" font-family="Helvetica,sans-Serif" font-size="10.00">mutex</text>
</a>
</g>
</g>
<!-- Node2&#45;&gt;Node5 -->
<g id="edge4" class="edge">
<title>Node2&#45;&gt;Node5</title>
<path fill="none" stroke="midnightblue" d="M282.58,-112.46C250.16,-104 198.88,-90.56 145.52,-76.29"/>
<polygon fill="midnightblue" stroke="midnightblue" points="146.1,-72.82 135.53,-73.61 144.29,-79.58 146.1,-72.82"/>
</g>
<!-- Node6 -->
<g id="node6" class="node">
<title>Node6</title>
<g id="a_node6"><a xlink:title=" ">
<polygon fill="none" stroke="#bfbfbf" points="153.89,-56.5 153.89,-75.5 200.89,-75.5 200.89,-56.5 153.89,-56.5"/>
<text text-anchor="middle" x="177.39" y="-63.5" font-family="Helvetica,sans-Serif" font-size="10.00">queue</text>
</a>
</g>
</g>
<!-- Node2&#45;&gt;Node6 -->
<g id="edge5" class="edge">
<title>Node2&#45;&gt;Node6</title>
<path fill="none" stroke="midnightblue" d="M293.52,-112.44C270.61,-103.48 234.41,-89.31 208.52,-79.18"/>
<polygon fill="midnightblue" stroke="midnightblue" points="209.74,-75.9 199.15,-75.52 207.19,-82.42 209.74,-75.9"/>
</g>
<!-- Node7 -->
<g id="node7" class="node">
<title>Node7</title>
<g id="a_node7"><a xlink:title=" ">
<polygon fill="none" stroke="#bfbfbf" points="219.39,-56.5 219.39,-75.5 275.39,-75.5 275.39,-56.5 219.39,-56.5"/>
<text text-anchor="middle" x="247.39" y="-63.5" font-family="Helvetica,sans-Serif" font-size="10.00">sstream</text>
</a>
</g>
</g>
<!-- Node2&#45;&gt;Node7 -->
<g id="edge6" class="edge">
<title>Node2&#45;&gt;Node7</title>
<path fill="none" stroke="midnightblue" d="M304.46,-112.32C294.21,-104.18 278.67,-91.84 266.39,-82.09"/>
<polygon fill="midnightblue" stroke="midnightblue" points="268.52,-79.31 258.51,-75.83 264.17,-84.79 268.52,-79.31"/>
</g>
<!-- Node8 -->
<g id="node8" class="node">
<title>Node8</title>
<g id="a_node8"><a xlink:title=" ">
<polygon fill="none" stroke="#bfbfbf" points="293.39,-56.5 293.39,-75.5 337.39,-75.5 337.39,-56.5 293.39,-56.5"/>
<text text-anchor="middle" x="315.39" y="-63.5" font-family="Helvetica,sans-Serif" font-size="10.00">string</text>
</a>
</g>
</g>
<!-- Node2&#45;&gt;Node8 -->
<g id="edge7" class="edge">
<title>Node2&#45;&gt;Node8</title>
<path fill="none" stroke="midnightblue" d="M315.39,-112.08C315.39,-105.01 315.39,-94.86 315.39,-85.99"/>
<polygon fill="midnightblue" stroke="midnightblue" points="318.89,-85.75 315.39,-75.75 311.89,-85.75 318.89,-85.75"/>
</g>
<!-- Node9 -->
<g id="node9" class="node">
<title>Node9</title>
<g id="a_node9"><a xlink:title=" ">
<polygon fill="none" stroke="#bfbfbf" points="355.89,-56.5 355.89,-75.5 406.89,-75.5 406.89,-56.5 355.89,-56.5"/>
<text text-anchor="middle" x="381.39" y="-63.5" font-family="Helvetica,sans-Serif" font-size="10.00">variant</text>
</a>
</g>
</g>
<!-- Node2&#45;&gt;Node9 -->
<g id="edge8" class="edge">
<title>Node2&#45;&gt;Node9</title>
<path fill="none" stroke="midnightblue" d="M325.99,-112.32C335.84,-104.26 350.74,-92.08 362.6,-82.37"/>
<polygon fill="midnightblue" stroke="midnightblue" points="365.07,-84.88 370.59,-75.83 360.63,-79.46 365.07,-84.88"/>
</g>
<!-- Node10 -->
<g id="node10" class="node">
<title>Node10</title>
<g id="a_node10"><a xlink:title=" ">
<polygon fill="none" stroke="#bfbfbf" points="425.39,-56.5 425.39,-75.5 535.39,-75.5 535.39,-56.5 425.39,-56.5"/>
<text text-anchor="middle" x="480.39" y="-63.5" font-family="Helvetica,sans-Serif" font-size="10.00">nlohmann/json.hpp</text>
</a>
</g>
</g>
<!-- Node2&#45;&gt;Node10 -->
<g id="edge9" class="edge">
<title>Node2&#45;&gt;Node10</title>
<path fill="none" stroke="midnightblue" d="M341.53,-112.44C369.41,-103.32 413.74,-88.81 444.79,-78.65"/>
<polygon fill="midnightblue" stroke="midnightblue" points="445.95,-81.95 454.37,-75.52 443.77,-75.3 445.95,-81.95"/>
</g>
<!-- Node11 -->
<g id="node11" class="node">
<title>Node11</title>
<g id="a_node11"><a xlink:title=" ">
<polygon fill="none" stroke="#bfbfbf" points="553.39,-56.5 553.39,-75.5 711.39,-75.5 711.39,-56.5 553.39,-56.5"/>
<text text-anchor="middle" x="632.39" y="-63.5" font-family="Helvetica,sans-Serif" font-size="10.00">SignalEasel/aprs/packets.hpp</text>
</a>
</g>
</g>
<!-- Node2&#45;&gt;Node11 -->
<g id="edge10" class="edge">
<title>Node2&#45;&gt;Node11</title>
<path fill="none" stroke="midnightblue" d="M365.62,-112.44C421.73,-102.89 512.52,-87.42 572.34,-77.23"/>
<polygon fill="midnightblue" stroke="midnightblue" points="573.12,-80.65 582.39,-75.52 571.95,-73.75 573.12,-80.65"/>
</g>
<!-- Node12 -->
<g id="node12" class="node">
<title>Node12</title>
<g id="a_node12"><a xlink:href="giraffe__assert_8hpp.html" target="_top" xlink:title="For absolute failures in the code.">
<polygon fill="none" stroke="black" points="853.39,-56.5 853.39,-75.5 957.39,-75.5 957.39,-56.5 853.39,-56.5"/>
<text text-anchor="middle" x="905.39" y="-63.5" font-family="Helvetica,sans-Serif" font-size="10.00">giraffe_assert.hpp</text>
</a>
</g>
</g>
<!-- Node2&#45;&gt;Node12 -->
<g id="edge11" class="edge">
<title>Node2&#45;&gt;Node12</title>
<path fill="none" stroke="midnightblue" d="M366.56,-117.7C459.41,-111.48 662.02,-96.86 843.19,-76.07"/>
<polygon fill="midnightblue" stroke="midnightblue" points="843.64,-79.55 853.17,-74.92 842.84,-72.59 843.64,-79.55"/>
</g>
<!-- Node15 -->
<g id="node15" class="node">
<title>Node15</title>
<g id="a_node15"><a xlink:href="gdl__constants_8hpp.html" target="_top" xlink:title="Constants for Giraffe Data Link.">
<polygon fill="none" stroke="black" points="729.89,-56.5 729.89,-75.5 834.89,-75.5 834.89,-56.5 729.89,-56.5"/>
<text text-anchor="middle" x="782.39" y="-63.5" font-family="Helvetica,sans-Serif" font-size="10.00">gdl_constants.hpp</text>
</a>
</g>
</g>
<!-- Node2&#45;&gt;Node15 -->
<g id="edge14" class="edge">
<title>Node2&#45;&gt;Node15</title>
<path fill="none" stroke="midnightblue" d="M366.6,-115.87C441.63,-108.22 586.1,-93.03 719.64,-76.06"/>
<polygon fill="midnightblue" stroke="midnightblue" points="720.16,-79.52 729.64,-74.78 719.28,-72.58 720.16,-79.52"/>
</g>
<!-- Node13 -->
<g id="node13" class="node">
<title>Node13</title>
<g id="a_node13"><a xlink:title=" ">
<polygon fill="none" stroke="#bfbfbf" points="848.89,-0.5 848.89,-19.5 913.89,-19.5 913.89,-0.5 848.89,-0.5"/>
<text text-anchor="middle" x="881.39" y="-7.5" font-family="Helvetica,sans-Serif" font-size="10.00">exception</text>
</a>
</g>
</g>
<!-- Node12&#45;&gt;Node13 -->
<g id="edge12" class="edge">
<title>Node12&#45;&gt;Node13</title>
<path fill="none" stroke="midnightblue" d="M901.42,-56.08C898.17,-48.77 893.47,-38.18 889.43,-29.1"/>
<polygon fill="midnightblue" stroke="midnightblue" points="892.54,-27.47 885.28,-19.75 886.14,-30.31 892.54,-27.47"/>
</g>
<!-- Node14 -->
<g id="node14" class="node">
<title>Node14</title>
<g id="a_node14"><a xlink:title=" ">
<polygon fill="none" stroke="#bfbfbf" points="932.39,-0.5 932.39,-19.5 982.39,-19.5 982.39,-0.5 932.39,-0.5"/>
<text text-anchor="middle" x="957.39" y="-7.5" font-family="Helvetica,sans-Serif" font-size="10.00">stdio.h</text>
</a>
</g>
</g>
<!-- Node12&#45;&gt;Node14 -->
<g id="edge13" class="edge">
<title>Node12&#45;&gt;Node14</title>
<path fill="none" stroke="midnightblue" d="M913.97,-56.08C921.55,-48.22 932.77,-36.57 941.9,-27.08"/>
<polygon fill="midnightblue" stroke="midnightblue" points="944.55,-29.38 948.96,-19.75 939.5,-24.53 944.55,-29.38"/>
</g>
<!-- Node15&#45;&gt;Node3 -->
<g id="edge15" class="edge">
<title>Node15&#45;&gt;Node3</title>
<path fill="none" stroke="midnightblue" d="M729.63,-57.26C726.51,-56.82 723.41,-56.4 720.39,-56 597.65,-39.63 451.68,-22.59 385.78,-15.03"/>
<polygon fill="midnightblue" stroke="midnightblue" points="385.87,-11.52 375.54,-13.86 385.07,-18.47 385.87,-11.52"/>
</g>
<!-- Node16 -->
<g id="node16" class="node">
<title>Node16</title>
<g id="a_node16"><a xlink:title=" ">
<polygon fill="none" stroke="#bfbfbf" points="757.89,-0.5 757.89,-19.5 806.89,-19.5 806.89,-0.5 757.89,-0.5"/>
<text text-anchor="middle" x="782.39" y="-7.5" font-family="Helvetica,sans-Serif" font-size="10.00">cstdlib</text>
</a>
</g>
</g>
<!-- Node15&#45;&gt;Node16 -->
<g id="edge16" class="edge">
<title>Node15&#45;&gt;Node16</title>
<path fill="none" stroke="midnightblue" d="M782.39,-56.08C782.39,-49.01 782.39,-38.86 782.39,-29.99"/>
<polygon fill="midnightblue" stroke="midnightblue" points="785.89,-29.75 782.39,-19.75 778.89,-29.75 785.89,-29.75"/>
</g>
</g>
</svg>
