<?xml version="1.0" encoding="UTF-8" standalone="no"?>
<!DOCTYPE svg PUBLIC "-//W3C//DTD SVG 1.1//EN"
 "http://www.w3.org/Graphics/SVG/1.1/DTD/svg11.dtd">
<!-- Generated by graphviz version 2.43.0 (0)
 -->
<!-- Title: gdl_layers.hpp Pages: 1 -->
<svg width="867pt" height="263pt"
 viewBox="0.00 0.00 867.00 263.00" xmlns="http://www.w3.org/2000/svg" xmlns:xlink="http://www.w3.org/1999/xlink">
<g id="graph0" class="graph" transform="scale(1 1) rotate(0) translate(4 259)">
<title>gdl_layers.hpp</title>
<!-- Node1 -->
<g id="node1" class="node">
<title>Node1</title>
<g id="a_node1"><a xlink:title="The network layers for Giraffe Data Link.">
<polygon fill="#bfbfbf" stroke="black" points="570,-235.5 570,-254.5 658,-254.5 658,-235.5 570,-235.5"/>
<text text-anchor="middle" x="614" y="-242.5" font-family="Helvetica,sans-Serif" font-size="10.00">gdl_layers.hpp</text>
</a>
</g>
</g>
<!-- Node2 -->
<g id="node2" class="node">
<title>Node2</title>
<g id="a_node2"><a xlink:href="giraffe__data__link_8hpp.html" target="_top" xlink:title="The external interface for the Giraffe Data Link.">
<polygon fill="none" stroke="black" points="361.5,-179.5 361.5,-198.5 480.5,-198.5 480.5,-179.5 361.5,-179.5"/>
<text text-anchor="middle" x="421" y="-186.5" font-family="Helvetica,sans-Serif" font-size="10.00">giraffe_data_link.hpp</text>
</a>
</g>
</g>
<!-- Node1&#45;&gt;Node2 -->
<g id="edge1" class="edge">
<title>Node1&#45;&gt;Node2</title>
<path fill="none" stroke="midnightblue" d="M573.61,-232.7C537.18,-222.51 484.41,-207.74 451.44,-198.52"/>
<polygon fill="midnightblue" stroke="midnightblue" points="572.85,-236.12 583.42,-235.44 574.73,-229.38 572.85,-236.12"/>
</g>
<!-- Node16 -->
<g id="node16" class="node">
<title>Node16</title>
<g id="a_node16"><a xlink:href="network__layer_8cpp.html" target="_top" xlink:title="GDL Network layer implementation.">
<polygon fill="none" stroke="black" points="499,-179.5 499,-198.5 605,-198.5 605,-179.5 499,-179.5"/>
<text text-anchor="middle" x="552" y="-186.5" font-family="Helvetica,sans-Serif" font-size="10.00">network_layer.cpp</text>
</a>
</g>
</g>
<!-- Node1&#45;&gt;Node16 -->
<g id="edge15" class="edge">
<title>Node1&#45;&gt;Node16</title>
<path fill="none" stroke="midnightblue" d="M596.25,-228.54C585.19,-218.91 571.37,-206.87 562.14,-198.83"/>
<polygon fill="midnightblue" stroke="midnightblue" points="594.2,-231.4 604.04,-235.32 598.8,-226.12 594.2,-231.4"/>
</g>
<!-- Node17 -->
<g id="node17" class="node">
<title>Node17</title>
<g id="a_node17"><a xlink:href="physical__layer_8cpp.html" target="_top" xlink:title="GDL Physical Layer Implementation.">
<polygon fill="none" stroke="black" points="623.5,-179.5 623.5,-198.5 730.5,-198.5 730.5,-179.5 623.5,-179.5"/>
<text text-anchor="middle" x="677" y="-186.5" font-family="Helvetica,sans-Serif" font-size="10.00">physical_layer.cpp</text>
</a>
</g>
</g>
<!-- Node1&#45;&gt;Node17 -->
<g id="edge16" class="edge">
<title>Node1&#45;&gt;Node17</title>
<path fill="none" stroke="midnightblue" d="M632.04,-228.54C643.27,-218.91 657.32,-206.87 666.69,-198.83"/>
<polygon fill="midnightblue" stroke="midnightblue" points="629.44,-226.16 624.12,-235.32 633.99,-231.47 629.44,-226.16"/>
</g>
<!-- Node18 -->
<g id="node18" class="node">
<title>Node18</title>
<g id="a_node18"><a xlink:href="transport__layer_8cpp.html" target="_top" xlink:title="GDL Transport Layer Implementation.">
<polygon fill="none" stroke="black" points="749,-179.5 749,-198.5 859,-198.5 859,-179.5 749,-179.5"/>
<text text-anchor="middle" x="804" y="-186.5" font-family="Helvetica,sans-Serif" font-size="10.00">transport_layer.cpp</text>
</a>
</g>
</g>
<!-- Node1&#45;&gt;Node18 -->
<g id="edge17" class="edge">
<title>Node1&#45;&gt;Node18</title>
<path fill="none" stroke="midnightblue" d="M653.76,-232.7C689.62,-222.51 741.57,-207.74 774.03,-198.52"/>
<polygon fill="midnightblue" stroke="midnightblue" points="652.77,-229.34 644.11,-235.44 654.68,-236.08 652.77,-229.34"/>
</g>
<!-- Node3 -->
<g id="node3" class="node">
<title>Node3</title>
<g id="a_node3"><a xlink:href="telemetry__module_8hpp.html" target="_top" xlink:title="The telemetry module.">
<polygon fill="none" stroke="black" points="99,-123.5 99,-142.5 227,-142.5 227,-123.5 99,-123.5"/>
<text text-anchor="middle" x="163" y="-130.5" font-family="Helvetica,sans-Serif" font-size="10.00">telemetry_module.hpp</text>
</a>
</g>
</g>
<!-- Node2&#45;&gt;Node3 -->
<g id="edge2" class="edge">
<title>Node2&#45;&gt;Node3</title>
<path fill="none" stroke="midnightblue" d="M370.1,-177.35C321.34,-167.14 248.71,-151.94 203.69,-142.52"/>
<polygon fill="midnightblue" stroke="midnightblue" points="369.61,-180.82 380.12,-179.44 371.05,-173.97 369.61,-180.82"/>
</g>
<!-- Node8 -->
<g id="node8" class="node">
<title>Node8</title>
<g id="a_node8"><a xlink:href="gdl__terminal_8cpp.html" target="_top" xlink:title="GDL Terminal.">
<polygon fill="none" stroke="black" points="245,-123.5 245,-142.5 343,-142.5 343,-123.5 245,-123.5"/>
<text text-anchor="middle" x="294" y="-130.5" font-family="Helvetica,sans-Serif" font-size="10.00">gdl_terminal.cpp</text>
</a>
</g>
</g>
<!-- Node2&#45;&gt;Node8 -->
<g id="edge7" class="edge">
<title>Node2&#45;&gt;Node8</title>
<path fill="none" stroke="midnightblue" d="M391.61,-175.5C367.8,-165.38 334.89,-151.39 314.03,-142.52"/>
<polygon fill="midnightblue" stroke="midnightblue" points="390.3,-178.75 400.88,-179.44 393.04,-172.31 390.3,-178.75"/>
</g>
<!-- Node9 -->
<g id="node9" class="node">
<title>Node9</title>
<g id="a_node9"><a xlink:href="giraffe__data__link_8cpp.html" target="_top" xlink:title="The main class for Giraffe Data Link.">
<polygon fill="none" stroke="black" points="361.5,-123.5 361.5,-142.5 480.5,-142.5 480.5,-123.5 361.5,-123.5"/>
<text text-anchor="middle" x="421" y="-130.5" font-family="Helvetica,sans-Serif" font-size="10.00">giraffe_data_link.cpp</text>
</a>
</g>
</g>
<!-- Node2&#45;&gt;Node9 -->
<g id="edge8" class="edge">
<title>Node2&#45;&gt;Node9</title>
<path fill="none" stroke="midnightblue" d="M421,-168.8C421,-159.91 421,-149.78 421,-142.75"/>
<polygon fill="midnightblue" stroke="midnightblue" points="417.5,-169.08 421,-179.08 424.5,-169.08 417.5,-169.08"/>
</g>
<!-- Node10 -->
<g id="node10" class="node">
<title>Node10</title>
<g id="a_node10"><a xlink:href="gdl__server_8hpp.html" target="_top" xlink:title="Data Link Server for Giraffe.">
<polygon fill="none" stroke="black" points="499,-123.5 499,-142.5 587,-142.5 587,-123.5 499,-123.5"/>
<text text-anchor="middle" x="543" y="-130.5" font-family="Helvetica,sans-Serif" font-size="10.00">gdl_server.hpp</text>
</a>
</g>
</g>
<!-- Node2&#45;&gt;Node10 -->
<g id="edge9" class="edge">
<title>Node2&#45;&gt;Node10</title>
<path fill="none" stroke="midnightblue" d="M449.54,-175.37C472.39,-165.26 503.81,-151.35 523.76,-142.52"/>
<polygon fill="midnightblue" stroke="midnightblue" points="448.06,-172.2 440.33,-179.44 450.89,-178.6 448.06,-172.2"/>
</g>
<!-- Node15 -->
<g id="node15" class="node">
<title>Node15</title>
<g id="a_node15"><a xlink:href="test__application__layer_8cpp.html" target="_top" xlink:title=" ">
<polygon fill="none" stroke="black" points="605,-123.5 605,-142.5 749,-142.5 749,-123.5 605,-123.5"/>
<text text-anchor="middle" x="677" y="-130.5" font-family="Helvetica,sans-Serif" font-size="10.00">test_application_layer.cpp</text>
</a>
</g>
</g>
<!-- Node2&#45;&gt;Node15 -->
<g id="edge14" class="edge">
<title>Node2&#45;&gt;Node15</title>
<path fill="none" stroke="midnightblue" d="M471.51,-177.35C519.89,-167.14 591.95,-151.94 636.63,-142.52"/>
<polygon fill="midnightblue" stroke="midnightblue" points="470.63,-173.95 461.56,-179.44 472.07,-180.8 470.63,-173.95"/>
</g>
<!-- Node4 -->
<g id="node4" class="node">
<title>Node4</title>
<g id="a_node4"><a xlink:href="flight__runner_8hpp.html" target="_top" xlink:title=" ">
<polygon fill="none" stroke="black" points="49,-62 49,-81 147,-81 147,-62 49,-62"/>
<text text-anchor="middle" x="98" y="-69" font-family="Helvetica,sans-Serif" font-size="10.00">flight_runner.hpp</text>
</a>
</g>
</g>
<!-- Node3&#45;&gt;Node4 -->
<g id="edge3" class="edge">
<title>Node3&#45;&gt;Node4</title>
<path fill="none" stroke="midnightblue" d="M146.23,-116.65C133.84,-105.31 117.42,-90.28 107.3,-81.01"/>
<polygon fill="midnightblue" stroke="midnightblue" points="143.95,-119.3 153.69,-123.48 148.67,-114.14 143.95,-119.3"/>
</g>
<!-- Node7 -->
<g id="node7" class="node">
<title>Node7</title>
<g id="a_node7"><a xlink:href="telemetry__module_8cpp.html" target="_top" xlink:title="The telemetry module.">
<polygon fill="none" stroke="black" points="165.5,-62 165.5,-81 292.5,-81 292.5,-62 165.5,-62"/>
<text text-anchor="middle" x="229" y="-69" font-family="Helvetica,sans-Serif" font-size="10.00">telemetry_module.cpp</text>
</a>
</g>
</g>
<!-- Node3&#45;&gt;Node7 -->
<g id="edge6" class="edge">
<title>Node3&#45;&gt;Node7</title>
<path fill="none" stroke="midnightblue" d="M180.03,-116.65C192.61,-105.31 209.28,-90.28 219.56,-81.01"/>
<polygon fill="midnightblue" stroke="midnightblue" points="177.54,-114.18 172.46,-123.48 182.23,-119.38 177.54,-114.18"/>
</g>
<!-- Node5 -->
<g id="node5" class="node">
<title>Node5</title>
<g id="a_node5"><a xlink:href="flight__runner_8cpp.html" target="_top" xlink:title="The implementation of the flight runner, where everything comes together.">
<polygon fill="none" stroke="black" points="0,-0.5 0,-19.5 98,-19.5 98,-0.5 0,-0.5"/>
<text text-anchor="middle" x="49" y="-7.5" font-family="Helvetica,sans-Serif" font-size="10.00">flight_runner.cpp</text>
</a>
</g>
</g>
<!-- Node4&#45;&gt;Node5 -->
<g id="edge4" class="edge">
<title>Node4&#45;&gt;Node5</title>
<path fill="none" stroke="midnightblue" d="M84.55,-54.17C75.31,-42.95 63.43,-28.52 56.01,-19.51"/>
<polygon fill="midnightblue" stroke="midnightblue" points="81.92,-56.48 90.98,-61.98 87.32,-52.03 81.92,-56.48"/>
</g>
<!-- Node6 -->
<g id="node6" class="node">
<title>Node6</title>
<g id="a_node6"><a xlink:href="src_2flight__system_2main_8cpp.html" target="_top" xlink:title="Defines the entry point/main function of the Flight Computer software.">
<polygon fill="none" stroke="black" points="116,-0.5 116,-19.5 178,-19.5 178,-0.5 116,-0.5"/>
<text text-anchor="middle" x="147" y="-7.5" font-family="Helvetica,sans-Serif" font-size="10.00">main.cpp</text>
</a>
</g>
</g>
<!-- Node4&#45;&gt;Node6 -->
<g id="edge5" class="edge">
<title>Node4&#45;&gt;Node6</title>
<path fill="none" stroke="midnightblue" d="M111.45,-54.17C120.69,-42.95 132.57,-28.52 139.99,-19.51"/>
<polygon fill="midnightblue" stroke="midnightblue" points="108.68,-52.03 105.02,-61.98 114.08,-56.48 108.68,-52.03"/>
</g>
<!-- Node11 -->
<g id="node11" class="node">
<title>Node11</title>
<g id="a_node11"><a xlink:href="gdl__server_8cpp.html" target="_top" xlink:title="Data Link Server for Giraffe.">
<polygon fill="none" stroke="black" points="346.5,-62 346.5,-81 433.5,-81 433.5,-62 346.5,-62"/>
<text text-anchor="middle" x="390" y="-69" font-family="Helvetica,sans-Serif" font-size="10.00">gdl_server.cpp</text>
</a>
</g>
</g>
<!-- Node10&#45;&gt;Node11 -->
<g id="edge10" class="edge">
<title>Node10&#45;&gt;Node11</title>
<path fill="none" stroke="midnightblue" d="M511.58,-119.78C481.85,-108.22 437.99,-91.16 411.88,-81.01"/>
<polygon fill="midnightblue" stroke="midnightblue" points="510.49,-123.11 521.08,-123.48 513.03,-116.59 510.49,-123.11"/>
</g>
<!-- Node12 -->
<g id="node12" class="node">
<title>Node12</title>
<g id="a_node12"><a xlink:href="gdl__server__request__handlers_8cpp.html" target="_top" xlink:title="Handlers for REQ requests (see gdl_server.hpp)">
<polygon fill="none" stroke="black" points="452,-56.5 452,-86.5 562,-86.5 562,-56.5 452,-56.5"/>
<text text-anchor="start" x="460" y="-74.5" font-family="Helvetica,sans-Serif" font-size="10.00">gdl_server_request</text>
<text text-anchor="middle" x="507" y="-63.5" font-family="Helvetica,sans-Serif" font-size="10.00">_handlers.cpp</text>
</a>
</g>
</g>
<!-- Node10&#45;&gt;Node12 -->
<g id="edge11" class="edge">
<title>Node10&#45;&gt;Node12</title>
<path fill="none" stroke="midnightblue" d="M532.52,-114.68C527.1,-105.73 520.58,-94.94 515.48,-86.52"/>
<polygon fill="midnightblue" stroke="midnightblue" points="529.67,-116.73 537.84,-123.48 535.66,-113.11 529.67,-116.73"/>
</g>
<!-- Node13 -->
<g id="node13" class="node">
<title>Node13</title>
<g id="a_node13"><a xlink:href="gdl__server__set__handlers_8cpp.html" target="_top" xlink:title="Handlers for SET requests (see gdl_server.hpp)">
<polygon fill="none" stroke="black" points="580.5,-62 580.5,-81 735.5,-81 735.5,-62 580.5,-62"/>
<text text-anchor="middle" x="658" y="-69" font-family="Helvetica,sans-Serif" font-size="10.00">gdl_server_set_handlers.cpp</text>
</a>
</g>
</g>
<!-- Node10&#45;&gt;Node13 -->
<g id="edge12" class="edge">
<title>Node10&#45;&gt;Node13</title>
<path fill="none" stroke="midnightblue" d="M568.38,-118.87C590.67,-107.33 622.44,-90.9 641.55,-81.01"/>
<polygon fill="midnightblue" stroke="midnightblue" points="566.75,-115.77 559.48,-123.48 569.97,-121.99 566.75,-115.77"/>
</g>
<!-- Node14 -->
<g id="node14" class="node">
<title>Node14</title>
<g id="a_node14"><a xlink:href="src_2data__link_2server_2main_8cpp.html" target="_top" xlink:title="Giraffe Data Link Server Main File.">
<polygon fill="none" stroke="black" points="754,-62 754,-81 816,-81 816,-62 754,-62"/>
<text text-anchor="middle" x="785" y="-69" font-family="Helvetica,sans-Serif" font-size="10.00">main.cpp</text>
</a>
</g>
</g>
<!-- Node10&#45;&gt;Node14 -->
<g id="edge13" class="edge">
<title>Node10&#45;&gt;Node14</title>
<path fill="none" stroke="midnightblue" d="M597.19,-121.9C638.14,-113.79 695.55,-101.41 745,-87 750.82,-85.31 757.01,-83.21 762.74,-81.14"/>
<polygon fill="midnightblue" stroke="midnightblue" points="596.29,-118.51 587.15,-123.86 597.64,-125.38 596.29,-118.51"/>
</g>
</g>
</svg>
