<?xml version="1.0" encoding="UTF-8" standalone="no"?>
<!DOCTYPE svg PUBLIC "-//W3C//DTD SVG 1.1//EN"
 "http://www.w3.org/Graphics/SVG/1.1/DTD/svg11.dtd">
<!-- Generated by graphviz version 2.43.0 (0)
 -->
<!-- Title: gdl_server.cpp Pages: 1 -->
<svg width="1205pt" height="431pt"
 viewBox="0.00 0.00 1205.14 431.00" xmlns="http://www.w3.org/2000/svg" xmlns:xlink="http://www.w3.org/1999/xlink">
<g id="graph0" class="graph" transform="scale(1 1) rotate(0) translate(4 427)">
<title>gdl_server.cpp</title>
<!-- Node1 -->
<g id="node1" class="node">
<title>Node1</title>
<g id="a_node1"><a xlink:title="Data Link Server for Giraffe.">
<polygon fill="#bfbfbf" stroke="black" points="265.5,-403.5 265.5,-422.5 352.5,-422.5 352.5,-403.5 265.5,-403.5"/>
<text text-anchor="middle" x="309" y="-410.5" font-family="Helvetica,sans-Serif" font-size="10.00">gdl_server.cpp</text>
</a>
</g>
</g>
<!-- Node2 -->
<g id="node2" class="node">
<title>Node2</title>
<g id="a_node2"><a xlink:title=" ">
<polygon fill="none" stroke="#bfbfbf" points="78.5,-347.5 78.5,-366.5 229.5,-366.5 229.5,-347.5 78.5,-347.5"/>
<text text-anchor="middle" x="154" y="-354.5" font-family="Helvetica,sans-Serif" font-size="10.00">BoosterSeat/filesystem.hpp</text>
</a>
</g>
</g>
<!-- Node1&#45;&gt;Node2 -->
<g id="edge1" class="edge">
<title>Node1&#45;&gt;Node2</title>
<path fill="none" stroke="midnightblue" d="M284.44,-403.44C258.48,-394.4 217.33,-380.06 188.2,-369.92"/>
<polygon fill="midnightblue" stroke="midnightblue" points="189.04,-366.5 178.45,-366.52 186.74,-373.11 189.04,-366.5"/>
</g>
<!-- Node3 -->
<g id="node3" class="node">
<title>Node3</title>
<g id="a_node3"><a xlink:href="gdl__server_8hpp.html" target="_top" xlink:title="Data Link Server for Giraffe.">
<polygon fill="none" stroke="black" points="715,-347.5 715,-366.5 803,-366.5 803,-347.5 715,-347.5"/>
<text text-anchor="middle" x="759" y="-354.5" font-family="Helvetica,sans-Serif" font-size="10.00">gdl_server.hpp</text>
</a>
</g>
</g>
<!-- Node1&#45;&gt;Node3 -->
<g id="edge2" class="edge">
<title>Node1&#45;&gt;Node3</title>
<path fill="none" stroke="midnightblue" d="M352.56,-406.77C435.18,-396.86 614.44,-375.35 704.72,-364.51"/>
<polygon fill="midnightblue" stroke="midnightblue" points="705.24,-367.98 714.76,-363.31 704.41,-361.03 705.24,-367.98"/>
</g>
<!-- Node34 -->
<g id="node34" class="node">
<title>Node34</title>
<g id="a_node34"><a xlink:href="giraffe__file__paths_8hpp.html" target="_top" xlink:title=" ">
<polygon fill="none" stroke="black" points="248,-347.5 248,-366.5 370,-366.5 370,-347.5 248,-347.5"/>
<text text-anchor="middle" x="309" y="-354.5" font-family="Helvetica,sans-Serif" font-size="10.00">giraffe_file_paths.hpp</text>
</a>
</g>
</g>
<!-- Node1&#45;&gt;Node34 -->
<g id="edge54" class="edge">
<title>Node1&#45;&gt;Node34</title>
<path fill="none" stroke="midnightblue" d="M309,-403.08C309,-396.01 309,-385.86 309,-376.99"/>
<polygon fill="midnightblue" stroke="midnightblue" points="312.5,-376.75 309,-366.75 305.5,-376.75 312.5,-376.75"/>
</g>
<!-- Node4 -->
<g id="node4" class="node">
<title>Node4</title>
<g id="a_node4"><a xlink:href="socket_8hpp.html" target="_top" xlink:title="The socket class header.">
<polygon fill="none" stroke="black" points="261.5,-291.5 261.5,-310.5 330.5,-310.5 330.5,-291.5 261.5,-291.5"/>
<text text-anchor="middle" x="296" y="-298.5" font-family="Helvetica,sans-Serif" font-size="10.00">socket.hpp</text>
</a>
</g>
</g>
<!-- Node3&#45;&gt;Node4 -->
<g id="edge3" class="edge">
<title>Node3&#45;&gt;Node4</title>
<path fill="none" stroke="midnightblue" d="M714.61,-350.82C626.21,-340.51 429.12,-317.53 340.57,-307.2"/>
<polygon fill="midnightblue" stroke="midnightblue" points="340.92,-303.72 330.58,-306.03 340.11,-310.67 340.92,-303.72"/>
</g>
<!-- Node8 -->
<g id="node8" class="node">
<title>Node8</title>
<g id="a_node8"><a xlink:title=" ">
<polygon fill="none" stroke="#bfbfbf" points="1057.5,-291.5 1057.5,-310.5 1150.5,-310.5 1150.5,-291.5 1057.5,-291.5"/>
<text text-anchor="middle" x="1104" y="-298.5" font-family="Helvetica,sans-Serif" font-size="10.00">unordered_map</text>
</a>
</g>
</g>
<!-- Node3&#45;&gt;Node8 -->
<g id="edge7" class="edge">
<title>Node3&#45;&gt;Node8</title>
<path fill="none" stroke="midnightblue" d="M803.04,-349.11C865.25,-339.37 978.86,-321.59 1047.3,-310.88"/>
<polygon fill="midnightblue" stroke="midnightblue" points="1048.13,-314.29 1057.47,-309.28 1047.05,-307.37 1048.13,-314.29"/>
</g>
<!-- Node9 -->
<g id="node9" class="node">
<title>Node9</title>
<g id="a_node9"><a xlink:title=" ">
<polygon fill="none" stroke="#bfbfbf" points="799,-56.5 799,-75.5 909,-75.5 909,-56.5 799,-56.5"/>
<text text-anchor="middle" x="854" y="-63.5" font-family="Helvetica,sans-Serif" font-size="10.00">nlohmann/json.hpp</text>
</a>
</g>
</g>
<!-- Node3&#45;&gt;Node9 -->
<g id="edge8" class="edge">
<title>Node3&#45;&gt;Node9</title>
<path fill="none" stroke="midnightblue" d="M803.37,-353.96C902.28,-348.99 1134.21,-334.9 1160,-311 1219.39,-255.96 1186.41,-212.62 1194,-132 1194.83,-123.15 1199.86,-118.68 1194,-112 1155.02,-67.61 994.65,-82.75 919.21,-75.91"/>
<polygon fill="midnightblue" stroke="midnightblue" points="919.48,-72.42 909.15,-74.79 918.7,-79.38 919.48,-72.42"/>
</g>
<!-- Node10 -->
<g id="node10" class="node">
<title>Node10</title>
<g id="a_node10"><a xlink:href="common__logger_8hpp.html" target="_top" xlink:title="A common logger for Giraffe.">
<polygon fill="none" stroke="black" points="65,-112.5 65,-131.5 181,-131.5 181,-112.5 65,-112.5"/>
<text text-anchor="middle" x="123" y="-119.5" font-family="Helvetica,sans-Serif" font-size="10.00">common_logger.hpp</text>
</a>
</g>
</g>
<!-- Node3&#45;&gt;Node10 -->
<g id="edge9" class="edge">
<title>Node3&#45;&gt;Node10</title>
<path fill="none" stroke="midnightblue" d="M714.81,-355.68C626.21,-354.24 420.96,-346.93 253,-311 178.51,-295.06 135.2,-317.05 91,-255 65.79,-219.61 93.45,-166.77 110.93,-139.95"/>
<polygon fill="midnightblue" stroke="midnightblue" points="113.87,-141.85 116.59,-131.61 108.08,-137.92 113.87,-141.85"/>
</g>
<!-- Node15 -->
<g id="node15" class="node">
<title>Node15</title>
<g id="a_node15"><a xlink:href="protocol_8hpp.html" target="_top" xlink:title="Declares the protocol namespace and its associated types.">
<polygon fill="none" stroke="black" points="858.5,-168.5 858.5,-187.5 935.5,-187.5 935.5,-168.5 858.5,-168.5"/>
<text text-anchor="middle" x="897" y="-175.5" font-family="Helvetica,sans-Serif" font-size="10.00">protocol.hpp</text>
</a>
</g>
</g>
<!-- Node3&#45;&gt;Node15 -->
<g id="edge15" class="edge">
<title>Node3&#45;&gt;Node15</title>
<path fill="none" stroke="midnightblue" d="M782.61,-347.45C816.15,-333.84 876.19,-303.69 900,-255 908.86,-236.88 906.08,-213.33 902.39,-197.27"/>
<polygon fill="midnightblue" stroke="midnightblue" points="905.76,-196.3 899.83,-187.52 898.99,-198.08 905.76,-196.3"/>
</g>
<!-- Node17 -->
<g id="node17" class="node">
<title>Node17</title>
<g id="a_node17"><a xlink:href="giraffe__data__link_8hpp.html" target="_top" xlink:title="The external interface for the Giraffe Data Link.">
<polygon fill="none" stroke="black" points="699.5,-291.5 699.5,-310.5 818.5,-310.5 818.5,-291.5 699.5,-291.5"/>
<text text-anchor="middle" x="759" y="-298.5" font-family="Helvetica,sans-Serif" font-size="10.00">giraffe_data_link.hpp</text>
</a>
</g>
</g>
<!-- Node3&#45;&gt;Node17 -->
<g id="edge20" class="edge">
<title>Node3&#45;&gt;Node17</title>
<path fill="none" stroke="midnightblue" d="M759,-347.08C759,-340.01 759,-329.86 759,-320.99"/>
<polygon fill="midnightblue" stroke="midnightblue" points="762.5,-320.75 759,-310.75 755.5,-320.75 762.5,-320.75"/>
</g>
<!-- Node5 -->
<g id="node5" class="node">
<title>Node5</title>
<g id="a_node5"><a xlink:title=" ">
<polygon fill="none" stroke="#bfbfbf" points="228,-230 228,-249 300,-249 300,-230 228,-230"/>
<text text-anchor="middle" x="264" y="-237" font-family="Helvetica,sans-Serif" font-size="10.00">netinet/in.h</text>
</a>
</g>
</g>
<!-- Node4&#45;&gt;Node5 -->
<g id="edge4" class="edge">
<title>Node4&#45;&gt;Node5</title>
<path fill="none" stroke="midnightblue" d="M291.42,-291.48C286.76,-282.82 279.41,-269.15 273.49,-258.15"/>
<polygon fill="midnightblue" stroke="midnightblue" points="276.4,-256.16 268.58,-249.01 270.23,-259.47 276.4,-256.16"/>
</g>
<!-- Node6 -->
<g id="node6" class="node">
<title>Node6</title>
<g id="a_node6"><a xlink:title=" ">
<polygon fill="none" stroke="#bfbfbf" points="100,-224.5 100,-254.5 210,-254.5 210,-224.5 100,-224.5"/>
<text text-anchor="start" x="108" y="-242.5" font-family="Helvetica,sans-Serif" font-size="10.00">BoosterSeat/rolling</text>
<text text-anchor="middle" x="155" y="-231.5" font-family="Helvetica,sans-Serif" font-size="10.00">_average.hpp</text>
</a>
</g>
</g>
<!-- Node4&#45;&gt;Node6 -->
<g id="edge5" class="edge">
<title>Node4&#45;&gt;Node6</title>
<path fill="none" stroke="midnightblue" d="M275.8,-291.48C255.45,-282.89 223.44,-269.38 197.49,-258.43"/>
<polygon fill="midnightblue" stroke="midnightblue" points="198.8,-255.19 188.23,-254.52 196.08,-261.64 198.8,-255.19"/>
</g>
<!-- Node7 -->
<g id="node7" class="node">
<title>Node7</title>
<g id="a_node7"><a xlink:title=" ">
<polygon fill="none" stroke="#bfbfbf" points="397,-56.5 397,-75.5 441,-75.5 441,-56.5 397,-56.5"/>
<text text-anchor="middle" x="419" y="-63.5" font-family="Helvetica,sans-Serif" font-size="10.00">string</text>
</a>
</g>
</g>
<!-- Node4&#45;&gt;Node7 -->
<g id="edge6" class="edge">
<title>Node4&#45;&gt;Node7</title>
<path fill="none" stroke="midnightblue" d="M298.55,-291.13C309.14,-254.39 349.2,-115.81 352,-112 361.92,-98.52 377.17,-87.82 390.61,-80.25"/>
<polygon fill="midnightblue" stroke="midnightblue" points="392.35,-83.29 399.54,-75.5 389.07,-77.1 392.35,-83.29"/>
</g>
<!-- Node10&#45;&gt;Node7 -->
<g id="edge12" class="edge">
<title>Node10&#45;&gt;Node7</title>
<path fill="none" stroke="midnightblue" d="M169.9,-112.44C230.45,-101.4 334.23,-82.46 386.67,-72.9"/>
<polygon fill="midnightblue" stroke="midnightblue" points="387.53,-76.3 396.74,-71.06 386.27,-69.41 387.53,-76.3"/>
</g>
<!-- Node11 -->
<g id="node11" class="node">
<title>Node11</title>
<g id="a_node11"><a xlink:title=" ">
<polygon fill="none" stroke="#bfbfbf" points="0,-56.5 0,-75.5 50,-75.5 50,-56.5 0,-56.5"/>
<text text-anchor="middle" x="25" y="-63.5" font-family="Helvetica,sans-Serif" font-size="10.00">chrono</text>
</a>
</g>
</g>
<!-- Node10&#45;&gt;Node11 -->
<g id="edge10" class="edge">
<title>Node10&#45;&gt;Node11</title>
<path fill="none" stroke="midnightblue" d="M107.25,-112.32C91.68,-103.74 67.62,-90.49 49.54,-80.52"/>
<polygon fill="midnightblue" stroke="midnightblue" points="51.15,-77.42 40.71,-75.65 47.78,-83.55 51.15,-77.42"/>
</g>
<!-- Node12 -->
<g id="node12" class="node">
<title>Node12</title>
<g id="a_node12"><a xlink:title=" ">
<polygon fill="none" stroke="#bfbfbf" points="250.5,-56.5 250.5,-75.5 297.5,-75.5 297.5,-56.5 250.5,-56.5"/>
<text text-anchor="middle" x="274" y="-63.5" font-family="Helvetica,sans-Serif" font-size="10.00">queue</text>
</a>
</g>
</g>
<!-- Node10&#45;&gt;Node12 -->
<g id="edge11" class="edge">
<title>Node10&#45;&gt;Node12</title>
<path fill="none" stroke="midnightblue" d="M146.93,-112.44C172.22,-103.4 212.3,-89.06 240.68,-78.92"/>
<polygon fill="midnightblue" stroke="midnightblue" points="241.95,-82.18 250.19,-75.52 239.59,-75.59 241.95,-82.18"/>
</g>
<!-- Node13 -->
<g id="node13" class="node">
<title>Node13</title>
<g id="a_node13"><a xlink:title=" ">
<polygon fill="none" stroke="#bfbfbf" points="68.5,-56.5 68.5,-75.5 135.5,-75.5 135.5,-56.5 68.5,-56.5"/>
<text text-anchor="middle" x="102" y="-63.5" font-family="Helvetica,sans-Serif" font-size="10.00">fmt/core.h</text>
</a>
</g>
</g>
<!-- Node10&#45;&gt;Node13 -->
<g id="edge13" class="edge">
<title>Node10&#45;&gt;Node13</title>
<path fill="none" stroke="midnightblue" d="M119.53,-112.08C116.69,-104.77 112.57,-94.18 109.04,-85.1"/>
<polygon fill="midnightblue" stroke="midnightblue" points="112.29,-83.8 105.4,-75.75 105.77,-86.34 112.29,-83.8"/>
</g>
<!-- Node14 -->
<g id="node14" class="node">
<title>Node14</title>
<g id="a_node14"><a xlink:title=" ">
<polygon fill="none" stroke="#bfbfbf" points="153.5,-56.5 153.5,-75.5 232.5,-75.5 232.5,-56.5 153.5,-56.5"/>
<text text-anchor="middle" x="193" y="-63.5" font-family="Helvetica,sans-Serif" font-size="10.00">fmt/chrono.h</text>
</a>
</g>
</g>
<!-- Node10&#45;&gt;Node14 -->
<g id="edge14" class="edge">
<title>Node10&#45;&gt;Node14</title>
<path fill="none" stroke="midnightblue" d="M134.25,-112.32C144.8,-104.18 160.8,-91.84 173.44,-82.09"/>
<polygon fill="midnightblue" stroke="midnightblue" points="175.77,-84.71 181.55,-75.83 171.49,-79.17 175.77,-84.71"/>
</g>
<!-- Node15&#45;&gt;Node7 -->
<g id="edge19" class="edge">
<title>Node15&#45;&gt;Node7</title>
<path fill="none" stroke="midnightblue" d="M858.46,-172.76C762.33,-162.15 519.08,-135.09 511,-132 481.49,-120.7 452.59,-97.78 435.28,-82.4"/>
<polygon fill="midnightblue" stroke="midnightblue" points="437.5,-79.69 427.76,-75.54 432.79,-84.87 437.5,-79.69"/>
</g>
<!-- Node16 -->
<g id="node16" class="node">
<title>Node16</title>
<g id="a_node16"><a xlink:href="json_8hpp.html" target="_top" xlink:title="Simple wrapper around nlohmann/json.hpp to provide a common interface.">
<polygon fill="none" stroke="black" points="805,-112.5 805,-131.5 863,-131.5 863,-112.5 805,-112.5"/>
<text text-anchor="middle" x="834" y="-119.5" font-family="Helvetica,sans-Serif" font-size="10.00">json.hpp</text>
</a>
</g>
</g>
<!-- Node15&#45;&gt;Node16 -->
<g id="edge16" class="edge">
<title>Node15&#45;&gt;Node16</title>
<path fill="none" stroke="midnightblue" d="M886.88,-168.32C877.47,-160.26 863.26,-148.08 851.93,-138.37"/>
<polygon fill="midnightblue" stroke="midnightblue" points="854.18,-135.68 844.31,-131.83 849.62,-141 854.18,-135.68"/>
</g>
<!-- Node16&#45;&gt;Node7 -->
<g id="edge18" class="edge">
<title>Node16&#45;&gt;Node7</title>
<path fill="none" stroke="midnightblue" d="M804.69,-117.44C744.16,-110.04 600.98,-92.35 481,-76 471.27,-74.67 460.68,-73.16 451.06,-71.76"/>
<polygon fill="midnightblue" stroke="midnightblue" points="451.48,-68.29 441.08,-70.3 450.47,-75.21 451.48,-68.29"/>
</g>
<!-- Node16&#45;&gt;Node9 -->
<g id="edge17" class="edge">
<title>Node16&#45;&gt;Node9</title>
<path fill="none" stroke="midnightblue" d="M837.3,-112.08C839.98,-104.85 843.85,-94.41 847.19,-85.4"/>
<polygon fill="midnightblue" stroke="midnightblue" points="850.57,-86.34 850.76,-75.75 844,-83.91 850.57,-86.34"/>
</g>
<!-- Node17&#45;&gt;Node7 -->
<g id="edge25" class="edge">
<title>Node17&#45;&gt;Node7</title>
<path fill="none" stroke="midnightblue" d="M699.24,-297.19C643.04,-292.92 557.4,-282.15 488,-255 437.49,-235.24 411.76,-235.73 386,-188 367.56,-153.83 390.82,-108.55 406.64,-84.22"/>
<polygon fill="midnightblue" stroke="midnightblue" points="409.69,-85.95 412.43,-75.71 403.91,-82.01 409.69,-85.95"/>
</g>
<!-- Node17&#45;&gt;Node12 -->
<g id="edge24" class="edge">
<title>Node17&#45;&gt;Node12</title>
<path fill="none" stroke="midnightblue" d="M699.47,-297.93C613.18,-293.99 458.5,-283.14 411,-255 342.08,-214.17 297.71,-123.75 281.23,-85.1"/>
<polygon fill="midnightblue" stroke="midnightblue" points="284.38,-83.55 277.32,-75.65 277.91,-86.23 284.38,-83.55"/>
</g>
<!-- Node18 -->
<g id="node18" class="node">
<title>Node18</title>
<g id="a_node18"><a xlink:title=" ">
<polygon fill="none" stroke="#bfbfbf" points="1135,-112.5 1135,-131.5 1185,-131.5 1185,-112.5 1135,-112.5"/>
<text text-anchor="middle" x="1160" y="-119.5" font-family="Helvetica,sans-Serif" font-size="10.00">atomic</text>
</a>
</g>
</g>
<!-- Node17&#45;&gt;Node18 -->
<g id="edge21" class="edge">
<title>Node17&#45;&gt;Node18</title>
<path fill="none" stroke="midnightblue" d="M818.54,-293.68C868.86,-287.26 942.39,-275.3 1004,-255 1068.38,-233.79 1097.33,-239.83 1141,-188 1152,-174.95 1156.63,-155.79 1158.58,-141.66"/>
<polygon fill="midnightblue" stroke="midnightblue" points="1162.08,-141.92 1159.64,-131.61 1155.11,-141.18 1162.08,-141.92"/>
</g>
<!-- Node19 -->
<g id="node19" class="node">
<title>Node19</title>
<g id="a_node19"><a xlink:title=" ">
<polygon fill="none" stroke="#bfbfbf" points="906,-0.5 906,-19.5 956,-19.5 956,-0.5 906,-0.5"/>
<text text-anchor="middle" x="931" y="-7.5" font-family="Helvetica,sans-Serif" font-size="10.00">cstdint</text>
</a>
</g>
</g>
<!-- Node17&#45;&gt;Node19 -->
<g id="edge22" class="edge">
<title>Node17&#45;&gt;Node19</title>
<path fill="none" stroke="midnightblue" d="M818.63,-299.36C881.89,-296.84 983.72,-287.48 1065,-255 1138.56,-225.61 1172.65,-208.29 1194,-132 1221.16,-34.92 1044.33,-15.69 966.48,-11.91"/>
<polygon fill="midnightblue" stroke="midnightblue" points="966.32,-8.4 956.18,-11.47 966.02,-15.39 966.32,-8.4"/>
</g>
<!-- Node20 -->
<g id="node20" class="node">
<title>Node20</title>
<g id="a_node20"><a xlink:title=" ">
<polygon fill="none" stroke="#bfbfbf" points="927,-56.5 927,-75.5 975,-75.5 975,-56.5 927,-56.5"/>
<text text-anchor="middle" x="951" y="-63.5" font-family="Helvetica,sans-Serif" font-size="10.00">mutex</text>
</a>
</g>
</g>
<!-- Node17&#45;&gt;Node20 -->
<g id="edge23" class="edge">
<title>Node17&#45;&gt;Node20</title>
<path fill="none" stroke="midnightblue" d="M813.51,-291.47C841.46,-285.02 874.83,-273.9 900,-255 928.68,-233.46 934.55,-222.31 945,-188 947.59,-179.5 948.34,-176.24 945,-168 936.61,-147.32 918.39,-152.68 910,-132 906.66,-123.76 906.79,-120.29 910,-112 914.45,-100.5 923.37,-90.13 931.75,-82.25"/>
<polygon fill="midnightblue" stroke="midnightblue" points="934.24,-84.73 939.46,-75.51 929.63,-79.46 934.24,-84.73"/>
</g>
<!-- Node21 -->
<g id="node21" class="node">
<title>Node21</title>
<g id="a_node21"><a xlink:title=" ">
<polygon fill="none" stroke="#bfbfbf" points="683,-230 683,-249 731,-249 731,-230 683,-230"/>
<text text-anchor="middle" x="707" y="-237" font-family="Helvetica,sans-Serif" font-size="10.00">thread</text>
</a>
</g>
</g>
<!-- Node17&#45;&gt;Node21 -->
<g id="edge26" class="edge">
<title>Node17&#45;&gt;Node21</title>
<path fill="none" stroke="midnightblue" d="M751.55,-291.48C743.67,-282.46 731.06,-268.02 721.26,-256.81"/>
<polygon fill="midnightblue" stroke="midnightblue" points="723.65,-254.24 714.44,-249.01 718.38,-258.84 723.65,-254.24"/>
</g>
<!-- Node22 -->
<g id="node22" class="node">
<title>Node22</title>
<g id="a_node22"><a xlink:title=" ">
<polygon fill="none" stroke="#bfbfbf" points="749,-230 749,-249 875,-249 875,-230 749,-230"/>
<text text-anchor="middle" x="812" y="-237" font-family="Helvetica,sans-Serif" font-size="10.00">BoosterSeat/sleep.hpp</text>
</a>
</g>
</g>
<!-- Node17&#45;&gt;Node22 -->
<g id="edge27" class="edge">
<title>Node17&#45;&gt;Node22</title>
<path fill="none" stroke="midnightblue" d="M766.59,-291.48C774.7,-282.37 787.73,-267.74 797.76,-256.48"/>
<polygon fill="midnightblue" stroke="midnightblue" points="800.38,-258.8 804.42,-249.01 795.16,-254.15 800.38,-258.8"/>
</g>
<!-- Node23 -->
<g id="node23" class="node">
<title>Node23</title>
<g id="a_node23"><a xlink:title=" ">
<polygon fill="none" stroke="#bfbfbf" points="394.5,-168.5 394.5,-187.5 519.5,-187.5 519.5,-168.5 394.5,-168.5"/>
<text text-anchor="middle" x="457" y="-175.5" font-family="Helvetica,sans-Serif" font-size="10.00">BoosterSeat/timer.hpp</text>
</a>
</g>
</g>
<!-- Node17&#45;&gt;Node23 -->
<g id="edge28" class="edge">
<title>Node17&#45;&gt;Node23</title>
<path fill="none" stroke="midnightblue" d="M699.22,-298.07C650.95,-294.29 582.63,-283.74 530,-255 503.75,-240.66 481.25,-213.64 468.42,-195.98"/>
<polygon fill="midnightblue" stroke="midnightblue" points="471.23,-193.9 462.63,-187.72 465.5,-197.92 471.23,-193.9"/>
</g>
<!-- Node24 -->
<g id="node24" class="node">
<title>Node24</title>
<g id="a_node24"><a xlink:title=" ">
<polygon fill="none" stroke="#bfbfbf" points="684,-168.5 684,-187.5 802,-187.5 802,-168.5 684,-168.5"/>
<text text-anchor="middle" x="743" y="-175.5" font-family="Helvetica,sans-Serif" font-size="10.00">SignalEasel/aprs.hpp</text>
</a>
</g>
</g>
<!-- Node17&#45;&gt;Node24 -->
<g id="edge29" class="edge">
<title>Node17&#45;&gt;Node24</title>
<path fill="none" stroke="midnightblue" d="M725.2,-291.39C706.61,-284.74 685.11,-273.45 674,-255 666.89,-243.2 667.44,-236.11 674,-224 681.75,-209.7 696.23,-199.22 709.94,-191.99"/>
<polygon fill="midnightblue" stroke="midnightblue" points="711.74,-195.01 719.21,-187.5 708.69,-188.71 711.74,-195.01"/>
</g>
<!-- Node25 -->
<g id="node25" class="node">
<title>Node25</title>
<g id="a_node25"><a xlink:href="gdl__config__and__stats_8hpp.html" target="_top" xlink:title=" ">
<polygon fill="none" stroke="black" points="992,-168.5 992,-187.5 1132,-187.5 1132,-168.5 992,-168.5"/>
<text text-anchor="middle" x="1062" y="-175.5" font-family="Helvetica,sans-Serif" font-size="10.00">gdl_config_and_stats.hpp</text>
</a>
</g>
</g>
<!-- Node17&#45;&gt;Node25 -->
<g id="edge30" class="edge">
<title>Node17&#45;&gt;Node25</title>
<path fill="none" stroke="midnightblue" d="M818.73,-294.46C861.63,-288.75 919.95,-277.37 967,-255 998.76,-239.9 1029.39,-212.29 1046.93,-194.83"/>
<polygon fill="midnightblue" stroke="midnightblue" points="1049.51,-197.2 1054.02,-187.61 1044.52,-192.29 1049.51,-197.2"/>
</g>
<!-- Node27 -->
<g id="node27" class="node">
<title>Node27</title>
<g id="a_node27"><a xlink:href="gdl__layers_8hpp.html" target="_top" xlink:title="The network layers for Giraffe Data Link.">
<polygon fill="none" stroke="black" points="539,-230 539,-249 627,-249 627,-230 539,-230"/>
<text text-anchor="middle" x="583" y="-237" font-family="Helvetica,sans-Serif" font-size="10.00">gdl_layers.hpp</text>
</a>
</g>
</g>
<!-- Node17&#45;&gt;Node27 -->
<g id="edge36" class="edge">
<title>Node17&#45;&gt;Node27</title>
<path fill="none" stroke="midnightblue" d="M733.78,-291.48C703.33,-281.18 651.95,-263.81 617.76,-252.25"/>
<polygon fill="midnightblue" stroke="midnightblue" points="618.76,-248.9 608.17,-249.01 616.52,-255.53 618.76,-248.9"/>
</g>
<!-- Node28 -->
<g id="node28" class="node">
<title>Node28</title>
<g id="a_node28"><a xlink:href="gdl__message_8hpp.html" target="_top" xlink:title="Message and Message Queue for Giraffe Data Link.">
<polygon fill="none" stroke="black" points="605,-112.5 605,-131.5 707,-131.5 707,-112.5 605,-112.5"/>
<text text-anchor="middle" x="656" y="-119.5" font-family="Helvetica,sans-Serif" font-size="10.00">gdl_message.hpp</text>
</a>
</g>
</g>
<!-- Node17&#45;&gt;Node28 -->
<g id="edge53" class="edge">
<title>Node17&#45;&gt;Node28</title>
<path fill="none" stroke="midnightblue" d="M818.73,-293.44C843.13,-287.49 869.08,-276.23 884,-255 891.92,-243.73 890.09,-236.36 884,-224 874.96,-205.66 829.24,-177.23 811,-168 779.66,-152.14 741.86,-141.03 711.43,-133.81"/>
<polygon fill="midnightblue" stroke="midnightblue" points="711.94,-130.34 701.41,-131.51 710.38,-137.16 711.94,-130.34"/>
</g>
<!-- Node25&#45;&gt;Node7 -->
<g id="edge35" class="edge">
<title>Node25&#45;&gt;Node7</title>
<path fill="none" stroke="midnightblue" d="M991.6,-171.2C870.85,-161.1 633.54,-140.56 596,-132 541.53,-119.58 481.03,-94.84 446.74,-79.72"/>
<polygon fill="midnightblue" stroke="midnightblue" points="447.94,-76.42 437.38,-75.54 445.09,-82.81 447.94,-76.42"/>
</g>
<!-- Node25&#45;&gt;Node18 -->
<g id="edge32" class="edge">
<title>Node25&#45;&gt;Node18</title>
<path fill="none" stroke="midnightblue" d="M1077.75,-168.32C1093.32,-159.74 1117.38,-146.49 1135.46,-136.52"/>
<polygon fill="midnightblue" stroke="midnightblue" points="1137.22,-139.55 1144.29,-131.65 1133.85,-133.42 1137.22,-139.55"/>
</g>
<!-- Node25&#45;&gt;Node19 -->
<g id="edge33" class="edge">
<title>Node25&#45;&gt;Node19</title>
<path fill="none" stroke="midnightblue" d="M1065.55,-168.46C1070.34,-155.5 1077.3,-130.41 1068,-112 1045.99,-68.43 995.34,-39.03 962.18,-23.66"/>
<polygon fill="midnightblue" stroke="midnightblue" points="963.47,-20.41 952.91,-19.52 960.61,-26.8 963.47,-20.41"/>
</g>
<!-- Node25&#45;&gt;Node20 -->
<g id="edge34" class="edge">
<title>Node25&#45;&gt;Node20</title>
<path fill="none" stroke="midnightblue" d="M1062.77,-168.42C1063.51,-154.94 1063,-128.64 1050,-112 1034.14,-91.71 1007.08,-80.27 985.25,-74"/>
<polygon fill="midnightblue" stroke="midnightblue" points="985.9,-70.55 975.34,-71.4 984.12,-77.33 985.9,-70.55"/>
</g>
<!-- Node26 -->
<g id="node26" class="node">
<title>Node26</title>
<g id="a_node26"><a xlink:title=" ">
<polygon fill="none" stroke="#bfbfbf" points="919,-112.5 919,-131.5 1041,-131.5 1041,-112.5 919,-112.5"/>
<text text-anchor="middle" x="980" y="-119.5" font-family="Helvetica,sans-Serif" font-size="10.00">BoosterSeat/time.hpp</text>
</a>
</g>
</g>
<!-- Node25&#45;&gt;Node26 -->
<g id="edge31" class="edge">
<title>Node25&#45;&gt;Node26</title>
<path fill="none" stroke="midnightblue" d="M1048.83,-168.32C1036.15,-159.98 1016.77,-147.21 1001.79,-137.35"/>
<polygon fill="midnightblue" stroke="midnightblue" points="1003.42,-134.23 993.14,-131.65 999.57,-140.08 1003.42,-134.23"/>
</g>
<!-- Node27&#45;&gt;Node23 -->
<g id="edge38" class="edge">
<title>Node27&#45;&gt;Node23</title>
<path fill="none" stroke="midnightblue" d="M564.95,-229.98C543.8,-219.99 508.56,-203.35 484.12,-191.81"/>
<polygon fill="midnightblue" stroke="midnightblue" points="485.56,-188.61 475.02,-187.51 482.57,-194.94 485.56,-188.61"/>
</g>
<!-- Node27&#45;&gt;Node24 -->
<g id="edge37" class="edge">
<title>Node27&#45;&gt;Node24</title>
<path fill="none" stroke="midnightblue" d="M605.92,-229.98C633.37,-219.77 679.52,-202.61 710.6,-191.05"/>
<polygon fill="midnightblue" stroke="midnightblue" points="711.97,-194.28 720.12,-187.51 709.53,-187.71 711.97,-194.28"/>
</g>
<!-- Node27&#45;&gt;Node25 -->
<g id="edge39" class="edge">
<title>Node27&#45;&gt;Node25</title>
<path fill="none" stroke="midnightblue" d="M627.38,-231.04C642.18,-228.66 658.79,-226.09 674,-224 780.08,-209.4 902.92,-195.69 981.48,-187.33"/>
<polygon fill="midnightblue" stroke="midnightblue" points="982.22,-190.77 991.79,-186.23 981.48,-183.81 982.22,-190.77"/>
</g>
<!-- Node27&#45;&gt;Node28 -->
<g id="edge40" class="edge">
<title>Node27&#45;&gt;Node28</title>
<path fill="none" stroke="midnightblue" d="M595.55,-229.9C607.83,-220.84 626.24,-205.49 637,-188 645.76,-173.76 650.65,-155.29 653.27,-141.68"/>
<polygon fill="midnightblue" stroke="midnightblue" points="656.76,-142.03 654.97,-131.59 649.85,-140.87 656.76,-142.03"/>
</g>
<!-- Node33 -->
<g id="node33" class="node">
<title>Node33</title>
<g id="a_node33"><a xlink:href="gdl__packet_8hpp.html" target="_top" xlink:title="Data Link Packet &#45; Used in the transport and network layers.">
<polygon fill="none" stroke="black" points="538,-168.5 538,-187.5 628,-187.5 628,-168.5 538,-168.5"/>
<text text-anchor="middle" x="583" y="-175.5" font-family="Helvetica,sans-Serif" font-size="10.00">gdl_packet.hpp</text>
</a>
</g>
</g>
<!-- Node27&#45;&gt;Node33 -->
<g id="edge51" class="edge">
<title>Node27&#45;&gt;Node33</title>
<path fill="none" stroke="midnightblue" d="M583,-229.98C583,-221.58 583,-208.48 583,-197.66"/>
<polygon fill="midnightblue" stroke="midnightblue" points="586.5,-197.51 583,-187.51 579.5,-197.51 586.5,-197.51"/>
</g>
<!-- Node28&#45;&gt;Node7 -->
<g id="edge46" class="edge">
<title>Node28&#45;&gt;Node7</title>
<path fill="none" stroke="midnightblue" d="M618.45,-112.44C572.17,-101.9 494.33,-84.16 450.85,-74.26"/>
<polygon fill="midnightblue" stroke="midnightblue" points="451.61,-70.84 441.08,-72.03 450.06,-77.67 451.61,-70.84"/>
</g>
<!-- Node28&#45;&gt;Node9 -->
<g id="edge47" class="edge">
<title>Node28&#45;&gt;Node9</title>
<path fill="none" stroke="midnightblue" d="M687.37,-112.44C721.26,-103.2 775.4,-88.44 812.72,-78.26"/>
<polygon fill="midnightblue" stroke="midnightblue" points="814.05,-81.52 822.77,-75.52 812.2,-74.77 814.05,-81.52"/>
</g>
<!-- Node28&#45;&gt;Node12 -->
<g id="edge44" class="edge">
<title>Node28&#45;&gt;Node12</title>
<path fill="none" stroke="midnightblue" d="M604.88,-113.77C525.56,-102.56 375.01,-81.28 307.83,-71.78"/>
<polygon fill="midnightblue" stroke="midnightblue" points="308.18,-68.3 297.79,-70.36 307.2,-75.23 308.18,-68.3"/>
</g>
<!-- Node28&#45;&gt;Node19 -->
<g id="edge41" class="edge">
<title>Node28&#45;&gt;Node19</title>
<path fill="none" stroke="midnightblue" d="M674.89,-112.46C694.34,-103.59 725.46,-89.19 752,-76 769.09,-67.5 772.4,-63.37 790,-56 825.3,-41.21 867.25,-28.4 896.17,-20.27"/>
<polygon fill="midnightblue" stroke="midnightblue" points="897.12,-23.64 905.82,-17.59 895.25,-16.89 897.12,-23.64"/>
</g>
<!-- Node28&#45;&gt;Node20 -->
<g id="edge43" class="edge">
<title>Node28&#45;&gt;Node20</title>
<path fill="none" stroke="midnightblue" d="M707.49,-113.65C758.36,-106.06 838.54,-93.19 916.88,-76.08"/>
<polygon fill="midnightblue" stroke="midnightblue" points="917.91,-79.43 926.92,-73.86 916.4,-72.6 917.91,-79.43"/>
</g>
<!-- Node29 -->
<g id="node29" class="node">
<title>Node29</title>
<g id="a_node29"><a xlink:title=" ">
<polygon fill="none" stroke="#bfbfbf" points="613,-56.5 613,-75.5 669,-75.5 669,-56.5 613,-56.5"/>
<text text-anchor="middle" x="641" y="-63.5" font-family="Helvetica,sans-Serif" font-size="10.00">iomanip</text>
</a>
</g>
</g>
<!-- Node28&#45;&gt;Node29 -->
<g id="edge42" class="edge">
<title>Node28&#45;&gt;Node29</title>
<path fill="none" stroke="midnightblue" d="M653.52,-112.08C651.51,-104.85 648.61,-94.41 646.11,-85.4"/>
<polygon fill="midnightblue" stroke="midnightblue" points="649.48,-84.45 643.43,-75.75 642.74,-86.32 649.48,-84.45"/>
</g>
<!-- Node30 -->
<g id="node30" class="node">
<title>Node30</title>
<g id="a_node30"><a xlink:title=" ">
<polygon fill="none" stroke="#bfbfbf" points="687,-56.5 687,-75.5 743,-75.5 743,-56.5 687,-56.5"/>
<text text-anchor="middle" x="715" y="-63.5" font-family="Helvetica,sans-Serif" font-size="10.00">sstream</text>
</a>
</g>
</g>
<!-- Node28&#45;&gt;Node30 -->
<g id="edge45" class="edge">
<title>Node28&#45;&gt;Node30</title>
<path fill="none" stroke="midnightblue" d="M665.48,-112.32C674.2,-104.34 687.34,-92.31 697.9,-82.65"/>
<polygon fill="midnightblue" stroke="midnightblue" points="700.33,-85.17 705.35,-75.83 695.61,-80 700.33,-85.17"/>
</g>
<!-- Node31 -->
<g id="node31" class="node">
<title>Node31</title>
<g id="a_node31"><a xlink:href="gdl__constants_8hpp.html" target="_top" xlink:title="Constants for Giraffe Data Link.">
<polygon fill="none" stroke="black" points="489.5,-56.5 489.5,-75.5 594.5,-75.5 594.5,-56.5 489.5,-56.5"/>
<text text-anchor="middle" x="542" y="-63.5" font-family="Helvetica,sans-Serif" font-size="10.00">gdl_constants.hpp</text>
</a>
</g>
</g>
<!-- Node28&#45;&gt;Node31 -->
<g id="edge48" class="edge">
<title>Node28&#45;&gt;Node31</title>
<path fill="none" stroke="midnightblue" d="M637.94,-112.44C619.43,-103.68 590.42,-89.94 569.14,-79.86"/>
<polygon fill="midnightblue" stroke="midnightblue" points="570.51,-76.63 559.98,-75.52 567.52,-82.96 570.51,-76.63"/>
</g>
<!-- Node31&#45;&gt;Node19 -->
<g id="edge49" class="edge">
<title>Node31&#45;&gt;Node19</title>
<path fill="none" stroke="midnightblue" d="M594.76,-57.31C597.89,-56.87 600.98,-56.43 604,-56 710.25,-40.98 836.03,-23.85 895.91,-15.74"/>
<polygon fill="midnightblue" stroke="midnightblue" points="896.53,-19.19 905.97,-14.38 895.59,-12.25 896.53,-19.19"/>
</g>
<!-- Node32 -->
<g id="node32" class="node">
<title>Node32</title>
<g id="a_node32"><a xlink:title=" ">
<polygon fill="none" stroke="#bfbfbf" points="517.5,-0.5 517.5,-19.5 566.5,-19.5 566.5,-0.5 517.5,-0.5"/>
<text text-anchor="middle" x="542" y="-7.5" font-family="Helvetica,sans-Serif" font-size="10.00">cstdlib</text>
</a>
</g>
</g>
<!-- Node31&#45;&gt;Node32 -->
<g id="edge50" class="edge">
<title>Node31&#45;&gt;Node32</title>
<path fill="none" stroke="midnightblue" d="M542,-56.08C542,-49.01 542,-38.86 542,-29.99"/>
<polygon fill="midnightblue" stroke="midnightblue" points="545.5,-29.75 542,-19.75 538.5,-29.75 545.5,-29.75"/>
</g>
<!-- Node33&#45;&gt;Node28 -->
<g id="edge52" class="edge">
<title>Node33&#45;&gt;Node28</title>
<path fill="none" stroke="midnightblue" d="M594.73,-168.32C605.84,-160.11 622.74,-147.6 635.98,-137.81"/>
<polygon fill="midnightblue" stroke="midnightblue" points="638.1,-140.59 644.06,-131.83 633.94,-134.97 638.1,-140.59"/>
</g>
<!-- Node34&#45;&gt;Node7 -->
<g id="edge55" class="edge">
<title>Node34&#45;&gt;Node7</title>
<path fill="none" stroke="midnightblue" d="M257.16,-347.44C211.33,-339.1 148.62,-325.58 128,-311 93.69,-286.75 68.6,-259.55 91,-224 157.6,-118.28 317.26,-82.19 386.29,-71.25"/>
<polygon fill="midnightblue" stroke="midnightblue" points="387.19,-74.66 396.56,-69.71 386.15,-67.73 387.19,-74.66"/>
</g>
</g>
</svg>
