<?xml version="1.0" encoding="UTF-8" standalone="no"?>
<!DOCTYPE svg PUBLIC "-//W3C//DTD SVG 1.1//EN"
 "http://www.w3.org/Graphics/SVG/1.1/DTD/svg11.dtd">
<!-- Generated by graphviz version 2.43.0 (0)
 -->
<!-- Title: giraffe_data_link.hpp Pages: 1 -->
<svg width="582pt" height="196pt"
 viewBox="0.00 0.00 582.00 196.00" xmlns="http://www.w3.org/2000/svg" xmlns:xlink="http://www.w3.org/1999/xlink">
<g id="graph0" class="graph" transform="scale(1 1) rotate(0) translate(4 192)">
<title>giraffe_data_link.hpp</title>
<!-- Node1 -->
<g id="node1" class="node">
<title>Node1</title>
<g id="a_node1"><a xlink:title="The external interface for the Giraffe Data Link.">
<polygon fill="#bfbfbf" stroke="black" points="168.5,-168.5 168.5,-187.5 287.5,-187.5 287.5,-168.5 168.5,-168.5"/>
<text text-anchor="middle" x="228" y="-175.5" font-family="Helvetica,sans-Serif" font-size="10.00">giraffe_data_link.hpp</text>
</a>
</g>
</g>
<!-- Node2 -->
<g id="node2" class="node">
<title>Node2</title>
<g id="a_node2"><a xlink:title=" ">
<polygon fill="none" stroke="#bfbfbf" points="0,-112.5 0,-131.5 50,-131.5 50,-112.5 0,-112.5"/>
<text text-anchor="middle" x="25" y="-119.5" font-family="Helvetica,sans-Serif" font-size="10.00">atomic</text>
</a>
</g>
</g>
<!-- Node1&#45;&gt;Node2 -->
<g id="edge1" class="edge">
<title>Node1&#45;&gt;Node2</title>
<path fill="none" stroke="midnightblue" d="M195.83,-168.44C158.79,-158.59 98.13,-142.45 59.95,-132.3"/>
<polygon fill="midnightblue" stroke="midnightblue" points="60.84,-128.91 50.28,-129.73 59.05,-135.68 60.84,-128.91"/>
</g>
<!-- Node3 -->
<g id="node3" class="node">
<title>Node3</title>
<g id="a_node3"><a xlink:title=" ">
<polygon fill="none" stroke="#bfbfbf" points="68.5,-112.5 68.5,-131.5 133.5,-131.5 133.5,-112.5 68.5,-112.5"/>
<text text-anchor="middle" x="101" y="-119.5" font-family="Helvetica,sans-Serif" font-size="10.00">functional</text>
</a>
</g>
</g>
<!-- Node1&#45;&gt;Node3 -->
<g id="edge2" class="edge">
<title>Node1&#45;&gt;Node3</title>
<path fill="none" stroke="midnightblue" d="M207.88,-168.44C186.98,-159.56 154.07,-145.56 130.28,-135.45"/>
<polygon fill="midnightblue" stroke="midnightblue" points="131.6,-132.21 121.03,-131.52 128.86,-138.65 131.6,-132.21"/>
</g>
<!-- Node4 -->
<g id="node4" class="node">
<title>Node4</title>
<g id="a_node4"><a xlink:title=" ">
<polygon fill="none" stroke="#bfbfbf" points="152,-112.5 152,-131.5 200,-131.5 200,-112.5 152,-112.5"/>
<text text-anchor="middle" x="176" y="-119.5" font-family="Helvetica,sans-Serif" font-size="10.00">thread</text>
</a>
</g>
</g>
<!-- Node1&#45;&gt;Node4 -->
<g id="edge3" class="edge">
<title>Node1&#45;&gt;Node4</title>
<path fill="none" stroke="midnightblue" d="M219.41,-168.08C211.84,-160.22 200.62,-148.57 191.49,-139.08"/>
<polygon fill="midnightblue" stroke="midnightblue" points="193.88,-136.53 184.43,-131.75 188.84,-141.38 193.88,-136.53"/>
</g>
<!-- Node5 -->
<g id="node5" class="node">
<title>Node5</title>
<g id="a_node5"><a xlink:href="gdl__configuration_8hpp.html" target="_top" xlink:title="Contains the configuration struct for GDL.">
<polygon fill="none" stroke="black" points="123,-56.5 123,-75.5 245,-75.5 245,-56.5 123,-56.5"/>
<text text-anchor="middle" x="184" y="-63.5" font-family="Helvetica,sans-Serif" font-size="10.00">gdl_configuration.hpp</text>
</a>
</g>
</g>
<!-- Node1&#45;&gt;Node5 -->
<g id="edge4" class="edge">
<title>Node1&#45;&gt;Node5</title>
<path fill="none" stroke="midnightblue" d="M226.13,-168.38C223.24,-155.73 217.16,-131.53 209,-112 205.04,-102.52 199.59,-92.47 194.79,-84.29"/>
<polygon fill="midnightblue" stroke="midnightblue" points="197.75,-82.42 189.58,-75.67 191.76,-86.04 197.75,-82.42"/>
</g>
<!-- Node7 -->
<g id="node7" class="node">
<title>Node7</title>
<g id="a_node7"><a xlink:href="gdl__message_8hpp.html" target="_top" xlink:title="The message struct for GDL.">
<polygon fill="none" stroke="black" points="263,-56.5 263,-75.5 365,-75.5 365,-56.5 263,-56.5"/>
<text text-anchor="middle" x="314" y="-63.5" font-family="Helvetica,sans-Serif" font-size="10.00">gdl_message.hpp</text>
</a>
</g>
</g>
<!-- Node1&#45;&gt;Node7 -->
<g id="edge6" class="edge">
<title>Node1&#45;&gt;Node7</title>
<path fill="none" stroke="midnightblue" d="M234.75,-168.37C249,-150.14 282.39,-107.43 300.96,-83.68"/>
<polygon fill="midnightblue" stroke="midnightblue" points="303.88,-85.63 307.28,-75.59 298.37,-81.31 303.88,-85.63"/>
</g>
<!-- Node9 -->
<g id="node9" class="node">
<title>Node9</title>
<g id="a_node9"><a xlink:href="gdl__message__queue_8hpp.html" target="_top" xlink:title="A queue for messages.">
<polygon fill="none" stroke="black" points="294.5,-112.5 294.5,-131.5 431.5,-131.5 431.5,-112.5 294.5,-112.5"/>
<text text-anchor="middle" x="363" y="-119.5" font-family="Helvetica,sans-Serif" font-size="10.00">gdl_message_queue.hpp</text>
</a>
</g>
</g>
<!-- Node1&#45;&gt;Node9 -->
<g id="edge9" class="edge">
<title>Node1&#45;&gt;Node9</title>
<path fill="none" stroke="midnightblue" d="M249.39,-168.44C271.71,-159.52 306.9,-145.44 332.21,-135.32"/>
<polygon fill="midnightblue" stroke="midnightblue" points="333.72,-138.48 341.71,-131.52 331.12,-131.98 333.72,-138.48"/>
</g>
<!-- Node12 -->
<g id="node12" class="node">
<title>Node12</title>
<g id="a_node12"><a xlink:href="gdl__session__layer_8hpp.html" target="_top" xlink:title="The GDL SessionLayer class/interface &#45; Layer 5 (Session)">
<polygon fill="none" stroke="black" points="450,-112.5 450,-131.5 574,-131.5 574,-112.5 450,-112.5"/>
<text text-anchor="middle" x="512" y="-119.5" font-family="Helvetica,sans-Serif" font-size="10.00">gdl_session_layer.hpp</text>
</a>
</g>
</g>
<!-- Node1&#45;&gt;Node12 -->
<g id="edge14" class="edge">
<title>Node1&#45;&gt;Node12</title>
<path fill="none" stroke="midnightblue" d="M273,-168.44C322.96,-158.94 403.6,-143.61 457.2,-133.42"/>
<polygon fill="midnightblue" stroke="midnightblue" points="458.04,-136.82 467.21,-131.52 456.73,-129.95 458.04,-136.82"/>
</g>
<!-- Node6 -->
<g id="node6" class="node">
<title>Node6</title>
<g id="a_node6"><a xlink:title=" ">
<polygon fill="none" stroke="#bfbfbf" points="192,-0.5 192,-19.5 242,-19.5 242,-0.5 192,-0.5"/>
<text text-anchor="middle" x="217" y="-7.5" font-family="Helvetica,sans-Serif" font-size="10.00">cstdint</text>
</a>
</g>
</g>
<!-- Node5&#45;&gt;Node6 -->
<g id="edge5" class="edge">
<title>Node5&#45;&gt;Node6</title>
<path fill="none" stroke="midnightblue" d="M189.45,-56.08C194.01,-48.61 200.67,-37.72 206.29,-28.52"/>
<polygon fill="midnightblue" stroke="midnightblue" points="209.42,-30.11 211.65,-19.75 203.45,-26.46 209.42,-30.11"/>
</g>
<!-- Node7&#45;&gt;Node6 -->
<g id="edge7" class="edge">
<title>Node7&#45;&gt;Node6</title>
<path fill="none" stroke="midnightblue" d="M298.42,-56.32C283,-47.74 259.19,-34.49 241.29,-24.52"/>
<polygon fill="midnightblue" stroke="midnightblue" points="242.99,-21.46 232.55,-19.65 239.58,-27.58 242.99,-21.46"/>
</g>
<!-- Node8 -->
<g id="node8" class="node">
<title>Node8</title>
<g id="a_node8"><a xlink:title=" ">
<polygon fill="none" stroke="#bfbfbf" points="292,-0.5 292,-19.5 336,-19.5 336,-0.5 292,-0.5"/>
<text text-anchor="middle" x="314" y="-7.5" font-family="Helvetica,sans-Serif" font-size="10.00">string</text>
</a>
</g>
</g>
<!-- Node7&#45;&gt;Node8 -->
<g id="edge8" class="edge">
<title>Node7&#45;&gt;Node8</title>
<path fill="none" stroke="midnightblue" d="M314,-56.08C314,-49.01 314,-38.86 314,-29.99"/>
<polygon fill="midnightblue" stroke="midnightblue" points="317.5,-29.75 314,-19.75 310.5,-29.75 317.5,-29.75"/>
</g>
<!-- Node9&#45;&gt;Node5 -->
<g id="edge12" class="edge">
<title>Node9&#45;&gt;Node5</title>
<path fill="none" stroke="midnightblue" d="M334.64,-112.44C304.26,-103.28 255.89,-88.69 222.18,-78.52"/>
<polygon fill="midnightblue" stroke="midnightblue" points="222.82,-75.05 212.23,-75.52 220.79,-81.76 222.82,-75.05"/>
</g>
<!-- Node9&#45;&gt;Node7 -->
<g id="edge13" class="edge">
<title>Node9&#45;&gt;Node7</title>
<path fill="none" stroke="midnightblue" d="M354.91,-112.08C347.84,-104.3 337.41,-92.8 328.85,-83.37"/>
<polygon fill="midnightblue" stroke="midnightblue" points="331.25,-80.8 321.94,-75.75 326.07,-85.51 331.25,-80.8"/>
</g>
<!-- Node10 -->
<g id="node10" class="node">
<title>Node10</title>
<g id="a_node10"><a xlink:title=" ">
<polygon fill="none" stroke="#bfbfbf" points="383,-56.5 383,-75.5 431,-75.5 431,-56.5 383,-56.5"/>
<text text-anchor="middle" x="407" y="-63.5" font-family="Helvetica,sans-Serif" font-size="10.00">mutex</text>
</a>
</g>
</g>
<!-- Node9&#45;&gt;Node10 -->
<g id="edge10" class="edge">
<title>Node9&#45;&gt;Node10</title>
<path fill="none" stroke="midnightblue" d="M370.27,-112.08C376.54,-104.38 385.79,-93.03 393.43,-83.65"/>
<polygon fill="midnightblue" stroke="midnightblue" points="396.27,-85.71 399.87,-75.75 390.84,-81.29 396.27,-85.71"/>
</g>
<!-- Node11 -->
<g id="node11" class="node">
<title>Node11</title>
<g id="a_node11"><a xlink:title=" ">
<polygon fill="none" stroke="#bfbfbf" points="449.5,-56.5 449.5,-75.5 496.5,-75.5 496.5,-56.5 449.5,-56.5"/>
<text text-anchor="middle" x="473" y="-63.5" font-family="Helvetica,sans-Serif" font-size="10.00">queue</text>
</a>
</g>
</g>
<!-- Node9&#45;&gt;Node11 -->
<g id="edge11" class="edge">
<title>Node9&#45;&gt;Node11</title>
<path fill="none" stroke="midnightblue" d="M380.67,-112.32C398.39,-103.62 425.9,-90.12 446.29,-80.11"/>
<polygon fill="midnightblue" stroke="midnightblue" points="447.94,-83.2 455.37,-75.65 444.85,-76.92 447.94,-83.2"/>
</g>
</g>
</svg>
