<?xml version="1.0" encoding="UTF-8" standalone="no"?>
<!DOCTYPE svg PUBLIC "-//W3C//DTD SVG 1.1//EN"
 "http://www.w3.org/Graphics/SVG/1.1/DTD/svg11.dtd">
<!-- Generated by graphviz version 2.43.0 (0)
 -->
<!-- Title: giraffe_exception.hpp Pages: 1 -->
<svg width="673pt" height="308pt"
 viewBox="0.00 0.00 673.00 308.00" xmlns="http://www.w3.org/2000/svg" xmlns:xlink="http://www.w3.org/1999/xlink">
<g id="graph0" class="graph" transform="scale(1 1) rotate(0) translate(4 304)">
<title>giraffe_exception.hpp</title>
<!-- Node1 -->
<g id="node1" class="node">
<title>Node1</title>
<g id="a_node1"><a xlink:title="Common exception for Giraffe.">
<polygon fill="#bfbfbf" stroke="black" points="304.5,-280.5 304.5,-299.5 426.5,-299.5 426.5,-280.5 304.5,-280.5"/>
<text text-anchor="middle" x="365.5" y="-287.5" font-family="Helvetica,sans-Serif" font-size="10.00">giraffe_exception.hpp</text>
</a>
</g>
</g>
<!-- Node2 -->
<g id="node2" class="node">
<title>Node2</title>
<g id="a_node2"><a xlink:href="rgb__status__led_8cpp.html" target="_top" xlink:title="RGB Status LED extension source file.">
<polygon fill="none" stroke="black" points="98.5,-224.5 98.5,-243.5 206.5,-243.5 206.5,-224.5 98.5,-224.5"/>
<text text-anchor="middle" x="152.5" y="-231.5" font-family="Helvetica,sans-Serif" font-size="10.00">rgb_status_led.cpp</text>
</a>
</g>
</g>
<!-- Node1&#45;&gt;Node2 -->
<g id="edge1" class="edge">
<title>Node1&#45;&gt;Node2</title>
<path fill="none" stroke="midnightblue" d="M321.95,-277.96C281.72,-267.76 222.8,-252.82 186.09,-243.52"/>
<polygon fill="midnightblue" stroke="midnightblue" points="321.2,-281.38 331.75,-280.44 322.92,-274.59 321.2,-281.38"/>
</g>
<!-- Node3 -->
<g id="node3" class="node">
<title>Node3</title>
<g id="a_node3"><a xlink:href="gpio_8cpp.html" target="_top" xlink:title="GPIO interface source file.">
<polygon fill="none" stroke="black" points="224.5,-224.5 224.5,-243.5 282.5,-243.5 282.5,-224.5 224.5,-224.5"/>
<text text-anchor="middle" x="253.5" y="-231.5" font-family="Helvetica,sans-Serif" font-size="10.00">gpio.cpp</text>
</a>
</g>
</g>
<!-- Node1&#45;&gt;Node3 -->
<g id="edge2" class="edge">
<title>Node1&#45;&gt;Node3</title>
<path fill="none" stroke="midnightblue" d="M338.25,-275.86C317.48,-265.85 289.48,-252.35 271.45,-243.65"/>
<polygon fill="midnightblue" stroke="midnightblue" points="336.98,-279.13 347.51,-280.32 340.02,-272.83 336.98,-279.13"/>
</g>
<!-- Node4 -->
<g id="node4" class="node">
<title>Node4</title>
<g id="a_node4"><a xlink:href="giraffe__diagnostics_8hpp.html" target="_top" xlink:title="Giraffe&#39;s diagnostic system.">
<polygon fill="none" stroke="black" points="300.5,-224.5 300.5,-243.5 430.5,-243.5 430.5,-224.5 300.5,-224.5"/>
<text text-anchor="middle" x="365.5" y="-231.5" font-family="Helvetica,sans-Serif" font-size="10.00">giraffe_diagnostics.hpp</text>
</a>
</g>
</g>
<!-- Node1&#45;&gt;Node4 -->
<g id="edge3" class="edge">
<title>Node1&#45;&gt;Node4</title>
<path fill="none" stroke="midnightblue" d="M365.5,-269.8C365.5,-260.91 365.5,-250.78 365.5,-243.75"/>
<polygon fill="midnightblue" stroke="midnightblue" points="362,-270.08 365.5,-280.08 369,-270.08 362,-270.08"/>
</g>
<!-- Node18 -->
<g id="node18" class="node">
<title>Node18</title>
<g id="a_node18"><a xlink:href="giraffe__file__paths_8cpp.html" target="_top" xlink:title="Common file paths for the C++ portion of Giraffe.">
<polygon fill="none" stroke="black" points="449,-224.5 449,-243.5 570,-243.5 570,-224.5 449,-224.5"/>
<text text-anchor="middle" x="509.5" y="-231.5" font-family="Helvetica,sans-Serif" font-size="10.00">giraffe_file_paths.cpp</text>
</a>
</g>
</g>
<!-- Node1&#45;&gt;Node18 -->
<g id="edge20" class="edge">
<title>Node1&#45;&gt;Node18</title>
<path fill="none" stroke="midnightblue" d="M397.75,-276.91C424.82,-266.75 462.82,-252.51 486.79,-243.52"/>
<polygon fill="midnightblue" stroke="midnightblue" points="396.45,-273.66 388.32,-280.44 398.91,-280.21 396.45,-273.66"/>
</g>
<!-- Node19 -->
<g id="node19" class="node">
<title>Node19</title>
<g id="a_node19"><a xlink:href="protocol_8cpp.html" target="_top" xlink:title="The C++ implementation of the Giraffe Protocol.">
<polygon fill="none" stroke="black" points="588,-224.5 588,-243.5 665,-243.5 665,-224.5 588,-224.5"/>
<text text-anchor="middle" x="626.5" y="-231.5" font-family="Helvetica,sans-Serif" font-size="10.00">protocol.cpp</text>
</a>
</g>
</g>
<!-- Node1&#45;&gt;Node19 -->
<g id="edge21" class="edge">
<title>Node1&#45;&gt;Node19</title>
<path fill="none" stroke="midnightblue" d="M416.87,-278.37C467.12,-267.97 542.54,-252.37 587.89,-242.99"/>
<polygon fill="midnightblue" stroke="midnightblue" points="415.94,-274.99 406.86,-280.44 417.36,-281.84 415.94,-274.99"/>
</g>
<!-- Node5 -->
<g id="node5" class="node">
<title>Node5</title>
<g id="a_node5"><a xlink:href="i2c__interface_8hpp.html" target="_top" xlink:title="A wrapper around I2C communication.">
<polygon fill="none" stroke="black" points="250,-168.5 250,-187.5 351,-187.5 351,-168.5 250,-168.5"/>
<text text-anchor="middle" x="300.5" y="-175.5" font-family="Helvetica,sans-Serif" font-size="10.00">i2c_interface.hpp</text>
</a>
</g>
</g>
<!-- Node4&#45;&gt;Node5 -->
<g id="edge4" class="edge">
<title>Node4&#45;&gt;Node5</title>
<path fill="none" stroke="midnightblue" d="M347.23,-217.82C335.58,-208.15 320.9,-195.95 311.13,-187.83"/>
<polygon fill="midnightblue" stroke="midnightblue" points="345.13,-220.63 355.06,-224.32 349.6,-215.24 345.13,-220.63"/>
</g>
<!-- Node17 -->
<g id="node17" class="node">
<title>Node17</title>
<g id="a_node17"><a xlink:href="giraffe__exception_8cpp.html" target="_top" xlink:title=" ">
<polygon fill="none" stroke="black" points="369.5,-168.5 369.5,-187.5 491.5,-187.5 491.5,-168.5 369.5,-168.5"/>
<text text-anchor="middle" x="430.5" y="-175.5" font-family="Helvetica,sans-Serif" font-size="10.00">giraffe_exception.cpp</text>
</a>
</g>
</g>
<!-- Node4&#45;&gt;Node17 -->
<g id="edge19" class="edge">
<title>Node4&#45;&gt;Node17</title>
<path fill="none" stroke="midnightblue" d="M383.77,-217.82C395.42,-208.15 410.1,-195.95 419.87,-187.83"/>
<polygon fill="midnightblue" stroke="midnightblue" points="381.4,-215.24 375.94,-224.32 385.87,-220.63 381.4,-215.24"/>
</g>
<!-- Node6 -->
<g id="node6" class="node">
<title>Node6</title>
<g id="a_node6"><a xlink:href="bme280_8hpp.html" target="_top" xlink:title="The BME280 sensor extension.">
<polygon fill="none" stroke="black" points="165,-112.5 165,-131.5 242,-131.5 242,-112.5 165,-112.5"/>
<text text-anchor="middle" x="203.5" y="-119.5" font-family="Helvetica,sans-Serif" font-size="10.00">bme280.hpp</text>
</a>
</g>
</g>
<!-- Node5&#45;&gt;Node6 -->
<g id="edge5" class="edge">
<title>Node5&#45;&gt;Node6</title>
<path fill="none" stroke="midnightblue" d="M276.16,-163.45C258.26,-153.48 234.45,-140.23 219.05,-131.65"/>
<polygon fill="midnightblue" stroke="midnightblue" points="274.48,-166.52 284.92,-168.32 277.88,-160.4 274.48,-166.52"/>
</g>
<!-- Node9 -->
<g id="node9" class="node">
<title>Node9</title>
<g id="a_node9"><a xlink:href="i2c__extension__adapter_8hpp.html" target="_top" xlink:title="Adapter for I2C Extensions.">
<polygon fill="none" stroke="black" points="0,-112.5 0,-131.5 147,-131.5 147,-112.5 0,-112.5"/>
<text text-anchor="middle" x="73.5" y="-119.5" font-family="Helvetica,sans-Serif" font-size="10.00">i2c_extension_adapter.hpp</text>
</a>
</g>
</g>
<!-- Node5&#45;&gt;Node9 -->
<g id="edge8" class="edge">
<title>Node5&#45;&gt;Node9</title>
<path fill="none" stroke="midnightblue" d="M254.63,-166.09C211.75,-155.89 148.58,-140.86 109.3,-131.52"/>
<polygon fill="midnightblue" stroke="midnightblue" points="253.99,-169.53 264.53,-168.44 255.61,-162.72 253.99,-169.53"/>
</g>
<!-- Node12 -->
<g id="node12" class="node">
<title>Node12</title>
<g id="a_node12"><a xlink:href="samm8q_8hpp.html" target="_top" xlink:title="SAM&#45;M8Q GPS extension (I2C).">
<polygon fill="none" stroke="black" points="260.5,-112.5 260.5,-131.5 340.5,-131.5 340.5,-112.5 260.5,-112.5"/>
<text text-anchor="middle" x="300.5" y="-119.5" font-family="Helvetica,sans-Serif" font-size="10.00">samm8q.hpp</text>
</a>
</g>
</g>
<!-- Node5&#45;&gt;Node12 -->
<g id="edge12" class="edge">
<title>Node5&#45;&gt;Node12</title>
<path fill="none" stroke="midnightblue" d="M300.5,-157.8C300.5,-148.91 300.5,-138.78 300.5,-131.75"/>
<polygon fill="midnightblue" stroke="midnightblue" points="297,-158.08 300.5,-168.08 304,-158.08 297,-158.08"/>
</g>
<!-- Node14 -->
<g id="node14" class="node">
<title>Node14</title>
<g id="a_node14"><a xlink:href="i2c__interface_8cpp.html" target="_top" xlink:title="A wrapper around I2C communication.">
<polygon fill="none" stroke="black" points="358.5,-112.5 358.5,-131.5 458.5,-131.5 458.5,-112.5 358.5,-112.5"/>
<text text-anchor="middle" x="408.5" y="-119.5" font-family="Helvetica,sans-Serif" font-size="10.00">i2c_interface.cpp</text>
</a>
</g>
</g>
<!-- Node5&#45;&gt;Node14 -->
<g id="edge15" class="edge">
<title>Node5&#45;&gt;Node14</title>
<path fill="none" stroke="midnightblue" d="M327.05,-163.73C347.05,-153.73 373.89,-140.31 391.19,-131.65"/>
<polygon fill="midnightblue" stroke="midnightblue" points="325.23,-160.72 317.85,-168.32 328.36,-166.98 325.23,-160.72"/>
</g>
<!-- Node15 -->
<g id="node15" class="node">
<title>Node15</title>
<g id="a_node15"><a xlink:href="ubx__protocol_8hpp.html" target="_top" xlink:title="UBX Protocol implementation header.">
<polygon fill="none" stroke="black" points="477,-112.5 477,-131.5 578,-131.5 578,-112.5 477,-112.5"/>
<text text-anchor="middle" x="527.5" y="-119.5" font-family="Helvetica,sans-Serif" font-size="10.00">ubx_protocol.hpp</text>
</a>
</g>
</g>
<!-- Node5&#45;&gt;Node15 -->
<g id="edge16" class="edge">
<title>Node5&#45;&gt;Node15</title>
<path fill="none" stroke="midnightblue" d="M346.37,-166.09C389.25,-155.89 452.42,-140.86 491.7,-131.52"/>
<polygon fill="midnightblue" stroke="midnightblue" points="345.39,-162.72 336.47,-168.44 347.01,-169.53 345.39,-162.72"/>
</g>
<!-- Node7 -->
<g id="node7" class="node">
<title>Node7</title>
<g id="a_node7"><a xlink:href="bme280_8cpp.html" target="_top" xlink:title="BME280 sensor extension.">
<polygon fill="none" stroke="black" points="142,-56.5 142,-75.5 219,-75.5 219,-56.5 142,-56.5"/>
<text text-anchor="middle" x="180.5" y="-63.5" font-family="Helvetica,sans-Serif" font-size="10.00">bme280.cpp</text>
</a>
</g>
</g>
<!-- Node6&#45;&gt;Node7 -->
<g id="edge6" class="edge">
<title>Node6&#45;&gt;Node7</title>
<path fill="none" stroke="midnightblue" d="M195.7,-102.69C191.82,-93.59 187.32,-83.01 184.23,-75.75"/>
<polygon fill="midnightblue" stroke="midnightblue" points="192.56,-104.25 199.7,-112.08 199,-101.51 192.56,-104.25"/>
</g>
<!-- Node8 -->
<g id="node8" class="node">
<title>Node8</title>
<g id="a_node8"><a xlink:href="extension__module_8cpp.html" target="_top" xlink:title="The implementation of the new extension module.">
<polygon fill="none" stroke="black" points="184,-0.5 184,-19.5 311,-19.5 311,-0.5 184,-0.5"/>
<text text-anchor="middle" x="247.5" y="-7.5" font-family="Helvetica,sans-Serif" font-size="10.00">extension_module.cpp</text>
</a>
</g>
</g>
<!-- Node6&#45;&gt;Node8 -->
<g id="edge7" class="edge">
<title>Node6&#45;&gt;Node8</title>
<path fill="none" stroke="midnightblue" d="M213.91,-103.37C218.46,-95.22 223.63,-85.3 227.5,-76 235.66,-56.38 242.23,-32.21 245.42,-19.6"/>
<polygon fill="midnightblue" stroke="midnightblue" points="210.74,-101.86 208.8,-112.28 216.81,-105.35 210.74,-101.86"/>
</g>
<!-- Node10 -->
<g id="node10" class="node">
<title>Node10</title>
<g id="a_node10"><a xlink:href="mcp3021_8hpp.html" target="_top" xlink:title="MCP3021 I2C ADC Driver.">
<polygon fill="none" stroke="black" points="35,-56.5 35,-75.5 118,-75.5 118,-56.5 35,-56.5"/>
<text text-anchor="middle" x="76.5" y="-63.5" font-family="Helvetica,sans-Serif" font-size="10.00">mcp3021.hpp</text>
</a>
</g>
</g>
<!-- Node9&#45;&gt;Node10 -->
<g id="edge9" class="edge">
<title>Node9&#45;&gt;Node10</title>
<path fill="none" stroke="midnightblue" d="M74.57,-101.8C75.06,-92.91 75.62,-82.78 76.01,-75.75"/>
<polygon fill="midnightblue" stroke="midnightblue" points="71.06,-101.9 74,-112.08 78.04,-102.29 71.06,-101.9"/>
</g>
<!-- Node10&#45;&gt;Node8 -->
<g id="edge11" class="edge">
<title>Node10&#45;&gt;Node8</title>
<path fill="none" stroke="midnightblue" d="M113.54,-53.3C145.76,-43.13 191.69,-28.62 220.53,-19.52"/>
<polygon fill="midnightblue" stroke="midnightblue" points="112.08,-50.09 103.6,-56.44 114.19,-56.77 112.08,-50.09"/>
</g>
<!-- Node11 -->
<g id="node11" class="node">
<title>Node11</title>
<g id="a_node11"><a xlink:href="mcp3021_8cpp.html" target="_top" xlink:title="MCP3021 I2C ADC Driver.">
<polygon fill="none" stroke="black" points="35.5,-0.5 35.5,-19.5 117.5,-19.5 117.5,-0.5 35.5,-0.5"/>
<text text-anchor="middle" x="76.5" y="-7.5" font-family="Helvetica,sans-Serif" font-size="10.00">mcp3021.cpp</text>
</a>
</g>
</g>
<!-- Node10&#45;&gt;Node11 -->
<g id="edge10" class="edge">
<title>Node10&#45;&gt;Node11</title>
<path fill="none" stroke="midnightblue" d="M76.5,-45.8C76.5,-36.91 76.5,-26.78 76.5,-19.75"/>
<polygon fill="midnightblue" stroke="midnightblue" points="73,-46.08 76.5,-56.08 80,-46.08 73,-46.08"/>
</g>
<!-- Node12&#45;&gt;Node8 -->
<g id="edge14" class="edge">
<title>Node12&#45;&gt;Node8</title>
<path fill="none" stroke="midnightblue" d="M291.98,-103.32C280.44,-79.37 260.29,-37.55 251.64,-19.59"/>
<polygon fill="midnightblue" stroke="midnightblue" points="288.85,-104.88 296.34,-112.37 295.15,-101.84 288.85,-104.88"/>
</g>
<!-- Node13 -->
<g id="node13" class="node">
<title>Node13</title>
<g id="a_node13"><a xlink:href="samm8q_8cpp.html" target="_top" xlink:title="The SAM&#45;M8Q GPS extension (I2C).">
<polygon fill="none" stroke="black" points="348.5,-56.5 348.5,-75.5 428.5,-75.5 428.5,-56.5 348.5,-56.5"/>
<text text-anchor="middle" x="388.5" y="-63.5" font-family="Helvetica,sans-Serif" font-size="10.00">samm8q.cpp</text>
</a>
</g>
</g>
<!-- Node12&#45;&gt;Node13 -->
<g id="edge13" class="edge">
<title>Node12&#45;&gt;Node13</title>
<path fill="none" stroke="midnightblue" d="M323.48,-106.9C339.61,-97 360.68,-84.07 374.4,-75.65"/>
<polygon fill="midnightblue" stroke="midnightblue" points="321.33,-104.11 314.64,-112.32 324.99,-110.08 321.33,-104.11"/>
</g>
<!-- Node15&#45;&gt;Node13 -->
<g id="edge17" class="edge">
<title>Node15&#45;&gt;Node13</title>
<path fill="none" stroke="midnightblue" d="M496.02,-108.77C469.91,-98.63 433.46,-84.47 410.42,-75.52"/>
<polygon fill="midnightblue" stroke="midnightblue" points="494.89,-112.08 505.48,-112.44 497.42,-105.56 494.89,-112.08"/>
</g>
<!-- Node16 -->
<g id="node16" class="node">
<title>Node16</title>
<g id="a_node16"><a xlink:href="ubx__protocol_8cpp.html" target="_top" xlink:title="The UBX Protocol implementation.">
<polygon fill="none" stroke="black" points="477.5,-56.5 477.5,-75.5 577.5,-75.5 577.5,-56.5 477.5,-56.5"/>
<text text-anchor="middle" x="527.5" y="-63.5" font-family="Helvetica,sans-Serif" font-size="10.00">ubx_protocol.cpp</text>
</a>
</g>
</g>
<!-- Node15&#45;&gt;Node16 -->
<g id="edge18" class="edge">
<title>Node15&#45;&gt;Node16</title>
<path fill="none" stroke="midnightblue" d="M527.5,-101.8C527.5,-92.91 527.5,-82.78 527.5,-75.75"/>
<polygon fill="midnightblue" stroke="midnightblue" points="524,-102.08 527.5,-112.08 531,-102.08 524,-102.08"/>
</g>
</g>
</svg>
