<?xml version="1.0" encoding="UTF-8" standalone="no"?>
<!DOCTYPE svg PUBLIC "-//W3C//DTD SVG 1.1//EN"
 "http://www.w3.org/Graphics/SVG/1.1/DTD/svg11.dtd">
<!-- Generated by graphviz version 2.43.0 (0)
 -->
<!-- Title: giraffe_diagnostics.hpp Pages: 1 -->
<svg width="637pt" height="252pt"
 viewBox="0.00 0.00 637.00 252.00" xmlns="http://www.w3.org/2000/svg" xmlns:xlink="http://www.w3.org/1999/xlink">
<g id="graph0" class="graph" transform="scale(1 1) rotate(0) translate(4 248)">
<title>giraffe_diagnostics.hpp</title>
<!-- Node1 -->
<g id="node1" class="node">
<title>Node1</title>
<g id="a_node1"><a xlink:title="Giraffe&#39;s diagnostic system.">
<polygon fill="#bfbfbf" stroke="black" points="365.5,-224.5 365.5,-243.5 495.5,-243.5 495.5,-224.5 365.5,-224.5"/>
<text text-anchor="middle" x="430.5" y="-231.5" font-family="Helvetica,sans-Serif" font-size="10.00">giraffe_diagnostics.hpp</text>
</a>
</g>
</g>
<!-- Node2 -->
<g id="node2" class="node">
<title>Node2</title>
<g id="a_node2"><a xlink:href="i2c__interface_8hpp.html" target="_top" xlink:title="A wrapper around I2C communication.">
<polygon fill="none" stroke="black" points="250,-168.5 250,-187.5 351,-187.5 351,-168.5 250,-168.5"/>
<text text-anchor="middle" x="300.5" y="-175.5" font-family="Helvetica,sans-Serif" font-size="10.00">i2c_interface.hpp</text>
</a>
</g>
</g>
<!-- Node1&#45;&gt;Node2 -->
<g id="edge1" class="edge">
<title>Node1&#45;&gt;Node2</title>
<path fill="none" stroke="midnightblue" d="M400.41,-220.5C376.04,-210.38 342.36,-196.39 321,-187.52"/>
<polygon fill="midnightblue" stroke="midnightblue" points="399.32,-223.84 409.9,-224.44 402.01,-217.38 399.32,-223.84"/>
</g>
<!-- Node13 -->
<g id="node13" class="node">
<title>Node13</title>
<g id="a_node13"><a xlink:href="giraffe__exception_8cpp.html" target="_top" xlink:title=" ">
<polygon fill="none" stroke="black" points="369.5,-168.5 369.5,-187.5 491.5,-187.5 491.5,-168.5 369.5,-168.5"/>
<text text-anchor="middle" x="430.5" y="-175.5" font-family="Helvetica,sans-Serif" font-size="10.00">giraffe_exception.cpp</text>
</a>
</g>
</g>
<!-- Node1&#45;&gt;Node13 -->
<g id="edge13" class="edge">
<title>Node1&#45;&gt;Node13</title>
<path fill="none" stroke="midnightblue" d="M430.5,-213.8C430.5,-204.91 430.5,-194.78 430.5,-187.75"/>
<polygon fill="midnightblue" stroke="midnightblue" points="427,-214.08 430.5,-224.08 434,-214.08 427,-214.08"/>
</g>
<!-- Node14 -->
<g id="node14" class="node">
<title>Node14</title>
<g id="a_node14"><a xlink:href="giraffe__data__link_8cpp.html" target="_top" xlink:title="The main class for Giraffe Data Link.">
<polygon fill="none" stroke="black" points="510,-168.5 510,-187.5 629,-187.5 629,-168.5 510,-168.5"/>
<text text-anchor="middle" x="569.5" y="-175.5" font-family="Helvetica,sans-Serif" font-size="10.00">giraffe_data_link.cpp</text>
</a>
</g>
</g>
<!-- Node1&#45;&gt;Node14 -->
<g id="edge14" class="edge">
<title>Node1&#45;&gt;Node14</title>
<path fill="none" stroke="midnightblue" d="M461.98,-220.77C488.09,-210.63 524.54,-196.47 547.58,-187.52"/>
<polygon fill="midnightblue" stroke="midnightblue" points="460.58,-217.56 452.52,-224.44 463.11,-224.08 460.58,-217.56"/>
</g>
<!-- Node3 -->
<g id="node3" class="node">
<title>Node3</title>
<g id="a_node3"><a xlink:href="bme280_8hpp.html" target="_top" xlink:title="The BME280 sensor extension.">
<polygon fill="none" stroke="black" points="0,-112.5 0,-131.5 77,-131.5 77,-112.5 0,-112.5"/>
<text text-anchor="middle" x="38.5" y="-119.5" font-family="Helvetica,sans-Serif" font-size="10.00">bme280.hpp</text>
</a>
</g>
</g>
<!-- Node2&#45;&gt;Node3 -->
<g id="edge2" class="edge">
<title>Node2&#45;&gt;Node3</title>
<path fill="none" stroke="midnightblue" d="M248.94,-166.37C198.49,-155.97 122.78,-140.37 77.26,-130.99"/>
<polygon fill="midnightblue" stroke="midnightblue" points="248.48,-169.85 258.99,-168.44 249.9,-163 248.48,-169.85"/>
</g>
<!-- Node5 -->
<g id="node5" class="node">
<title>Node5</title>
<g id="a_node5"><a xlink:href="i2c__extension__adapter_8hpp.html" target="_top" xlink:title="Adapter for I2C Extensions.">
<polygon fill="none" stroke="black" points="95,-112.5 95,-131.5 242,-131.5 242,-112.5 95,-112.5"/>
<text text-anchor="middle" x="168.5" y="-119.5" font-family="Helvetica,sans-Serif" font-size="10.00">i2c_extension_adapter.hpp</text>
</a>
</g>
</g>
<!-- Node2&#45;&gt;Node5 -->
<g id="edge4" class="edge">
<title>Node2&#45;&gt;Node5</title>
<path fill="none" stroke="midnightblue" d="M270.28,-164.64C245.51,-154.5 211.1,-140.43 189.32,-131.52"/>
<polygon fill="midnightblue" stroke="midnightblue" points="269,-167.9 279.58,-168.44 271.65,-161.42 269,-167.9"/>
</g>
<!-- Node8 -->
<g id="node8" class="node">
<title>Node8</title>
<g id="a_node8"><a xlink:href="samm8q_8hpp.html" target="_top" xlink:title="SAM&#45;M8Q GPS extension (I2C).">
<polygon fill="none" stroke="black" points="260.5,-112.5 260.5,-131.5 340.5,-131.5 340.5,-112.5 260.5,-112.5"/>
<text text-anchor="middle" x="300.5" y="-119.5" font-family="Helvetica,sans-Serif" font-size="10.00">samm8q.hpp</text>
</a>
</g>
</g>
<!-- Node2&#45;&gt;Node8 -->
<g id="edge7" class="edge">
<title>Node2&#45;&gt;Node8</title>
<path fill="none" stroke="midnightblue" d="M300.5,-157.8C300.5,-148.91 300.5,-138.78 300.5,-131.75"/>
<polygon fill="midnightblue" stroke="midnightblue" points="297,-158.08 300.5,-168.08 304,-158.08 297,-158.08"/>
</g>
<!-- Node10 -->
<g id="node10" class="node">
<title>Node10</title>
<g id="a_node10"><a xlink:href="i2c__interface_8cpp.html" target="_top" xlink:title="A wrapper around I2C communication.">
<polygon fill="none" stroke="black" points="358.5,-112.5 358.5,-131.5 458.5,-131.5 458.5,-112.5 358.5,-112.5"/>
<text text-anchor="middle" x="408.5" y="-119.5" font-family="Helvetica,sans-Serif" font-size="10.00">i2c_interface.cpp</text>
</a>
</g>
</g>
<!-- Node2&#45;&gt;Node10 -->
<g id="edge9" class="edge">
<title>Node2&#45;&gt;Node10</title>
<path fill="none" stroke="midnightblue" d="M327.05,-163.73C347.05,-153.73 373.89,-140.31 391.19,-131.65"/>
<polygon fill="midnightblue" stroke="midnightblue" points="325.23,-160.72 317.85,-168.32 328.36,-166.98 325.23,-160.72"/>
</g>
<!-- Node11 -->
<g id="node11" class="node">
<title>Node11</title>
<g id="a_node11"><a xlink:href="ubx__protocol_8hpp.html" target="_top" xlink:title="UBX Protocol implementation header.">
<polygon fill="none" stroke="black" points="477,-112.5 477,-131.5 578,-131.5 578,-112.5 477,-112.5"/>
<text text-anchor="middle" x="527.5" y="-119.5" font-family="Helvetica,sans-Serif" font-size="10.00">ubx_protocol.hpp</text>
</a>
</g>
</g>
<!-- Node2&#45;&gt;Node11 -->
<g id="edge10" class="edge">
<title>Node2&#45;&gt;Node11</title>
<path fill="none" stroke="midnightblue" d="M346.37,-166.09C389.25,-155.89 452.42,-140.86 491.7,-131.52"/>
<polygon fill="midnightblue" stroke="midnightblue" points="345.39,-162.72 336.47,-168.44 347.01,-169.53 345.39,-162.72"/>
</g>
<!-- Node4 -->
<g id="node4" class="node">
<title>Node4</title>
<g id="a_node4"><a xlink:href="bme280_8cpp.html" target="_top" xlink:title="BME280 sensor extension.">
<polygon fill="none" stroke="black" points="0,-56.5 0,-75.5 77,-75.5 77,-56.5 0,-56.5"/>
<text text-anchor="middle" x="38.5" y="-63.5" font-family="Helvetica,sans-Serif" font-size="10.00">bme280.cpp</text>
</a>
</g>
</g>
<!-- Node3&#45;&gt;Node4 -->
<g id="edge3" class="edge">
<title>Node3&#45;&gt;Node4</title>
<path fill="none" stroke="midnightblue" d="M38.5,-101.8C38.5,-92.91 38.5,-82.78 38.5,-75.75"/>
<polygon fill="midnightblue" stroke="midnightblue" points="35,-102.08 38.5,-112.08 42,-102.08 35,-102.08"/>
</g>
<!-- Node6 -->
<g id="node6" class="node">
<title>Node6</title>
<g id="a_node6"><a xlink:href="mcp3021_8hpp.html" target="_top" xlink:title="MCP3021 I2C ADC Driver.">
<polygon fill="none" stroke="black" points="127,-56.5 127,-75.5 210,-75.5 210,-56.5 127,-56.5"/>
<text text-anchor="middle" x="168.5" y="-63.5" font-family="Helvetica,sans-Serif" font-size="10.00">mcp3021.hpp</text>
</a>
</g>
</g>
<!-- Node5&#45;&gt;Node6 -->
<g id="edge5" class="edge">
<title>Node5&#45;&gt;Node6</title>
<path fill="none" stroke="midnightblue" d="M168.5,-101.8C168.5,-92.91 168.5,-82.78 168.5,-75.75"/>
<polygon fill="midnightblue" stroke="midnightblue" points="165,-102.08 168.5,-112.08 172,-102.08 165,-102.08"/>
</g>
<!-- Node7 -->
<g id="node7" class="node">
<title>Node7</title>
<g id="a_node7"><a xlink:href="mcp3021_8cpp.html" target="_top" xlink:title="MCP3021 I2C ADC Driver.">
<polygon fill="none" stroke="black" points="127.5,-0.5 127.5,-19.5 209.5,-19.5 209.5,-0.5 127.5,-0.5"/>
<text text-anchor="middle" x="168.5" y="-7.5" font-family="Helvetica,sans-Serif" font-size="10.00">mcp3021.cpp</text>
</a>
</g>
</g>
<!-- Node6&#45;&gt;Node7 -->
<g id="edge6" class="edge">
<title>Node6&#45;&gt;Node7</title>
<path fill="none" stroke="midnightblue" d="M168.5,-45.8C168.5,-36.91 168.5,-26.78 168.5,-19.75"/>
<polygon fill="midnightblue" stroke="midnightblue" points="165,-46.08 168.5,-56.08 172,-46.08 165,-46.08"/>
</g>
<!-- Node9 -->
<g id="node9" class="node">
<title>Node9</title>
<g id="a_node9"><a xlink:href="samm8q_8cpp.html" target="_top" xlink:title="The SAM&#45;M8Q GPS extension (I2C).">
<polygon fill="none" stroke="black" points="319.5,-56.5 319.5,-75.5 399.5,-75.5 399.5,-56.5 319.5,-56.5"/>
<text text-anchor="middle" x="359.5" y="-63.5" font-family="Helvetica,sans-Serif" font-size="10.00">samm8q.cpp</text>
</a>
</g>
</g>
<!-- Node8&#45;&gt;Node9 -->
<g id="edge8" class="edge">
<title>Node8&#45;&gt;Node9</title>
<path fill="none" stroke="midnightblue" d="M317.39,-105.54C327.91,-95.91 341.07,-83.87 349.85,-75.83"/>
<polygon fill="midnightblue" stroke="midnightblue" points="314.99,-102.99 309.98,-112.32 319.72,-108.15 314.99,-102.99"/>
</g>
<!-- Node11&#45;&gt;Node9 -->
<g id="edge11" class="edge">
<title>Node11&#45;&gt;Node9</title>
<path fill="none" stroke="midnightblue" d="M491.11,-109.3C459.46,-99.13 414.33,-84.62 386,-75.52"/>
<polygon fill="midnightblue" stroke="midnightblue" points="490.29,-112.72 500.88,-112.44 492.43,-106.05 490.29,-112.72"/>
</g>
<!-- Node12 -->
<g id="node12" class="node">
<title>Node12</title>
<g id="a_node12"><a xlink:href="ubx__protocol_8cpp.html" target="_top" xlink:title="The UBX Protocol implementation.">
<polygon fill="none" stroke="black" points="477.5,-56.5 477.5,-75.5 577.5,-75.5 577.5,-56.5 477.5,-56.5"/>
<text text-anchor="middle" x="527.5" y="-63.5" font-family="Helvetica,sans-Serif" font-size="10.00">ubx_protocol.cpp</text>
</a>
</g>
</g>
<!-- Node11&#45;&gt;Node12 -->
<g id="edge12" class="edge">
<title>Node11&#45;&gt;Node12</title>
<path fill="none" stroke="midnightblue" d="M527.5,-101.8C527.5,-92.91 527.5,-82.78 527.5,-75.75"/>
<polygon fill="midnightblue" stroke="midnightblue" points="524,-102.08 527.5,-112.08 531,-102.08 524,-102.08"/>
</g>
</g>
</svg>
