<?xml version="1.0" encoding="UTF-8" standalone="no"?>
<!DOCTYPE svg PUBLIC "-//W3C//DTD SVG 1.1//EN"
 "http://www.w3.org/Graphics/SVG/1.1/DTD/svg11.dtd">
<!-- Generated by graphviz version 2.43.0 (0)
 -->
<!-- Title: writeWithBarrier Pages: 1 -->
<svg width="266pt" height="66pt"
 viewBox="0.00 0.00 266.00 66.00" xmlns="http://www.w3.org/2000/svg" xmlns:xlink="http://www.w3.org/1999/xlink">
<g id="graph0" class="graph" transform="scale(1 1) rotate(0) translate(4 62)">
<title>writeWithBarrier</title>
<!-- Node1 -->
<g id="node1" class="node">
<title>Node1</title>
<g id="a_node1"><a xlink:title="Writes a value to a memory address with a memory barrier. .">
<polygon fill="#bfbfbf" stroke="black" points="161,-19.5 161,-38.5 258,-38.5 258,-19.5 161,-19.5"/>
<text text-anchor="middle" x="209.5" y="-26.5" font-family="Helvetica,sans-Serif" font-size="10.00">writeWithBarrier</text>
</a>
</g>
</g>
<!-- Node2 -->
<g id="node2" class="node">
<title>Node2</title>
<g id="a_node2"><a xlink:href="classgiraffe_1_1Gpio.html#a5e84f1224ccd58fa33cb303211ed935c" target="_top" xlink:title="A function to setup a pin for input or output.">
<polygon fill="none" stroke="black" points="0,-38.5 0,-57.5 125,-57.5 125,-38.5 0,-38.5"/>
<text text-anchor="middle" x="62.5" y="-45.5" font-family="Helvetica,sans-Serif" font-size="10.00">giraffe::Gpio::setupPin</text>
</a>
</g>
</g>
<!-- Node1&#45;&gt;Node2 -->
<g id="edge1" class="edge">
<title>Node1&#45;&gt;Node2</title>
<path fill="none" stroke="midnightblue" d="M150.55,-36.59C142.16,-37.69 133.49,-38.83 125.03,-39.94"/>
<polygon fill="midnightblue" stroke="midnightblue" points="151.16,-40.04 160.62,-35.27 150.25,-33.1 151.16,-40.04"/>
</g>
<!-- Node3 -->
<g id="node3" class="node">
<title>Node3</title>
<g id="a_node3"><a xlink:href="classgiraffe_1_1Gpio.html#a9e87bc845dcd7e6f819591291baa73ef" target="_top" xlink:title="Write a value to an output pin pin (HIGH or LOW)">
<polygon fill="none" stroke="black" points="9,-0.5 9,-19.5 116,-19.5 116,-0.5 9,-0.5"/>
<text text-anchor="middle" x="62.5" y="-7.5" font-family="Helvetica,sans-Serif" font-size="10.00">giraffe::Gpio::write</text>
</a>
</g>
</g>
<!-- Node1&#45;&gt;Node3 -->
<g id="edge2" class="edge">
<title>Node1&#45;&gt;Node3</title>
<path fill="none" stroke="midnightblue" d="M150.38,-21.38C139.05,-19.9 127.22,-18.35 116.08,-16.89"/>
<polygon fill="midnightblue" stroke="midnightblue" points="150.25,-24.9 160.62,-22.73 151.16,-17.96 150.25,-24.9"/>
</g>
</g>
</svg>
