<?xml version="1.0" encoding="UTF-8" standalone="no"?>
<!DOCTYPE svg PUBLIC "-//W3C//DTD SVG 1.1//EN"
 "http://www.w3.org/Graphics/SVG/1.1/DTD/svg11.dtd">
<!-- Generated by graphviz version 2.43.0 (0)
 -->
<!-- Title: writeWithBarrier Pages: 1 -->
<svg width="439pt" height="134pt"
 viewBox="0.00 0.00 439.00 134.00" xmlns="http://www.w3.org/2000/svg" xmlns:xlink="http://www.w3.org/1999/xlink">
<g id="graph0" class="graph" transform="scale(1 1) rotate(0) translate(4 130)">
<title>writeWithBarrier</title>
<!-- Node1 -->
<g id="Node000001" class="node">
<title>Node1</title>
<g id="a_Node000001"><a xlink:title="Writes a value to a memory address with a memory barrier. .">
<polygon fill="#999999" stroke="#666666" points="431,-90.5 334,-90.5 334,-71.5 431,-71.5 431,-90.5"/>
<text text-anchor="middle" x="382.5" y="-78.5" font-family="Helvetica,sans-Serif" font-size="10.00">writeWithBarrier</text>
</a>
</g>
</g>
<!-- Node2 -->
<g id="Node000002" class="node">
<title>Node2</title>
<g id="a_Node000002"><a xlink:href="classgiraffe_1_1Gpio.html#a5e84f1224ccd58fa33cb303211ed935c" target="_top" xlink:title="A function to setup a pin for input or output.">
<polygon fill="white" stroke="#666666" points="298,-114.5 173,-114.5 173,-95.5 298,-95.5 298,-114.5"/>
<text text-anchor="middle" x="235.5" y="-102.5" font-family="Helvetica,sans-Serif" font-size="10.00">giraffe::Gpio::setupPin</text>
</a>
</g>
</g>
<!-- Node1&#45;&gt;Node2 -->
<g id="edge1_Node000001_Node000002" class="edge">
<title>Node1&#45;&gt;Node2</title>
<g id="a_edge1_Node000001_Node000002"><a xlink:title=" ">
<path fill="none" stroke="#63b8ff" d="M323.6,-90.58C313.82,-92.2 303.68,-93.88 293.91,-95.5"/>
<polygon fill="#63b8ff" stroke="#63b8ff" points="324.33,-94.01 333.62,-88.93 323.18,-87.11 324.33,-94.01"/>
</a>
</g>
</g>
<!-- Node4 -->
<g id="Node000004" class="node">
<title>Node4</title>
<g id="a_Node000004"><a xlink:href="classgiraffe_1_1Gpio.html#a9e87bc845dcd7e6f819591291baa73ef" target="_top" xlink:title="Write a value to an output pin pin (HIGH or LOW)">
<polygon fill="white" stroke="#666666" points="289,-72.5 182,-72.5 182,-53.5 289,-53.5 289,-72.5"/>
<text text-anchor="middle" x="235.5" y="-60.5" font-family="Helvetica,sans-Serif" font-size="10.00">giraffe::Gpio::write</text>
</a>
</g>
</g>
<!-- Node1&#45;&gt;Node4 -->
<g id="edge3_Node000001_Node000004" class="edge">
<title>Node1&#45;&gt;Node4</title>
<g id="a_edge3_Node000001_Node000004"><a xlink:title=" ">
<path fill="none" stroke="#63b8ff" d="M323.38,-73.79C312.05,-72.38 300.22,-70.91 289.08,-69.53"/>
<polygon fill="#63b8ff" stroke="#63b8ff" points="323.26,-77.3 333.62,-75.06 324.13,-70.35 323.26,-77.3"/>
</a>
</g>
</g>
<!-- Node3 -->
<g id="Node000003" class="node">
<title>Node3</title>
<g id="a_Node000003"><a xlink:href="classextension_1_1RgbStatusLed.html#a1e87d52291490190be9331a3f00be2f6" target="_top" xlink:title=" ">
<polygon fill="white" stroke="#666666" points="137,-126 0,-126 0,-96 137,-96 137,-126"/>
<text text-anchor="start" x="8" y="-114" font-family="Helvetica,sans-Serif" font-size="10.00">extension::RgbStatusLed</text>
<text text-anchor="middle" x="68.5" y="-103" font-family="Helvetica,sans-Serif" font-size="10.00">::startup</text>
</a>
</g>
</g>
<!-- Node2&#45;&gt;Node3 -->
<g id="edge2_Node000002_Node000003" class="edge">
<title>Node2&#45;&gt;Node3</title>
<g id="a_edge2_Node000002_Node000003"><a xlink:title=" ">
<path fill="none" stroke="#63b8ff" d="M162.4,-107.62C153.96,-107.93 145.38,-108.24 137.01,-108.55"/>
<polygon fill="#63b8ff" stroke="#63b8ff" points="162.72,-111.11 172.59,-107.25 162.47,-104.12 162.72,-111.11"/>
</a>
</g>
</g>
<!-- Node5 -->
<g id="Node000005" class="node">
<title>Node5</title>
<g id="a_Node000005"><a xlink:href="classextension_1_1RgbStatusLed.html#a2ce2c9e71353525a9be567d0de4cbaea" target="_top" xlink:title=" ">
<polygon fill="white" stroke="#666666" points="137,-78 0,-78 0,-48 137,-48 137,-78"/>
<text text-anchor="start" x="8" y="-66" font-family="Helvetica,sans-Serif" font-size="10.00">extension::RgbStatusLed</text>
<text text-anchor="middle" x="68.5" y="-55" font-family="Helvetica,sans-Serif" font-size="10.00">::loop</text>
</a>
</g>
</g>
<!-- Node4&#45;&gt;Node5 -->
<g id="edge4_Node000004_Node000005" class="edge">
<title>Node4&#45;&gt;Node5</title>
<g id="a_edge4_Node000004_Node000005"><a xlink:title=" ">
<path fill="none" stroke="#63b8ff" d="M171.63,-63C160.32,-63 148.49,-63 137.05,-63"/>
<polygon fill="#63b8ff" stroke="#63b8ff" points="171.84,-66.5 181.84,-63 171.84,-59.5 171.84,-66.5"/>
</a>
</g>
</g>
<!-- Node6 -->
<g id="Node000006" class="node">
<title>Node6</title>
<g id="a_Node000006"><a xlink:href="classextension_1_1RgbStatusLed.html#a66ec9a2dcb73c5d2320398b069179aa0" target="_top" xlink:title=" ">
<polygon fill="white" stroke="#666666" points="137,-30 0,-30 0,0 137,0 137,-30"/>
<text text-anchor="start" x="8" y="-18" font-family="Helvetica,sans-Serif" font-size="10.00">extension::RgbStatusLed</text>
<text text-anchor="middle" x="68.5" y="-7" font-family="Helvetica,sans-Serif" font-size="10.00">::shutdown</text>
</a>
</g>
</g>
<!-- Node4&#45;&gt;Node6 -->
<g id="edge5_Node000004_Node000006" class="edge">
<title>Node4&#45;&gt;Node6</title>
<g id="a_edge5_Node000004_Node000006"><a xlink:title=" ">
<path fill="none" stroke="#63b8ff" d="M191.67,-50.54C170.16,-44.28 143.92,-36.65 121.28,-30.06"/>
<polygon fill="#63b8ff" stroke="#63b8ff" points="190.93,-53.97 201.51,-53.4 192.88,-47.25 190.93,-53.97"/>
</a>
</g>
</g>
</g>
</svg>
