<?xml version="1.0" encoding="UTF-8" standalone="no"?>
<!DOCTYPE svg PUBLIC "-//W3C//DTD SVG 1.1//EN"
 "http://www.w3.org/Graphics/SVG/1.1/DTD/svg11.dtd">
<!-- Generated by graphviz version 2.43.0 (0)
 -->
<!-- Title: readWithBarrier Pages: 1 -->
<svg width="436pt" height="72pt"
 viewBox="0.00 0.00 436.00 71.50" xmlns="http://www.w3.org/2000/svg" xmlns:xlink="http://www.w3.org/1999/xlink">
<g id="graph0" class="graph" transform="scale(1 1) rotate(0) translate(4 67.5)">
<title>readWithBarrier</title>
<!-- Node1 -->
<g id="node1" class="node">
<title>Node1</title>
<g id="a_node1"><a xlink:title="Reads a value from a memory address with a memory barrier. .">
<polygon fill="#bfbfbf" stroke="black" points="334,-25 334,-44 428,-44 428,-25 334,-25"/>
<text text-anchor="middle" x="381" y="-32" font-family="Helvetica,sans-Serif" font-size="10.00">readWithBarrier</text>
</a>
</g>
</g>
<!-- Node2 -->
<g id="node2" class="node">
<title>Node2</title>
<g id="a_node2"><a xlink:href="classgiraffe_1_1Gpio.html#ad9bd7030420bdbf1979b3664dff68ff7" target="_top" xlink:title="Read the value of an input pin.">
<polygon fill="none" stroke="black" points="183.5,-44 183.5,-63 287.5,-63 287.5,-44 183.5,-44"/>
<text text-anchor="middle" x="235.5" y="-51" font-family="Helvetica,sans-Serif" font-size="10.00">giraffe::Gpio::read</text>
</a>
</g>
</g>
<!-- Node1&#45;&gt;Node2 -->
<g id="edge1" class="edge">
<title>Node1&#45;&gt;Node2</title>
<path fill="none" stroke="midnightblue" d="M323.56,-41.97C311.69,-43.54 299.24,-45.19 287.58,-46.74"/>
<polygon fill="midnightblue" stroke="midnightblue" points="324.35,-45.4 333.81,-40.62 323.43,-38.46 324.35,-45.4"/>
</g>
<!-- Node3 -->
<g id="node3" class="node">
<title>Node3</title>
<g id="a_node3"><a xlink:href="classgiraffe_1_1Gpio.html#a5e84f1224ccd58fa33cb303211ed935c" target="_top" xlink:title="A function to setup a pin for input or output.">
<polygon fill="none" stroke="black" points="173,-6 173,-25 298,-25 298,-6 173,-6"/>
<text text-anchor="middle" x="235.5" y="-13" font-family="Helvetica,sans-Serif" font-size="10.00">giraffe::Gpio::setupPin</text>
</a>
</g>
</g>
<!-- Node1&#45;&gt;Node3 -->
<g id="edge2" class="edge">
<title>Node1&#45;&gt;Node3</title>
<path fill="none" stroke="midnightblue" d="M323.72,-27.05C315.29,-25.93 306.57,-24.78 298.05,-23.65"/>
<polygon fill="midnightblue" stroke="midnightblue" points="323.43,-30.54 333.81,-28.38 324.35,-23.6 323.43,-30.54"/>
</g>
<!-- Node4 -->
<g id="node4" class="node">
<title>Node4</title>
<g id="a_node4"><a xlink:href="classextension_1_1RgbStatusLed.html#a1e87d52291490190be9331a3f00be2f6" target="_top" xlink:title=" ">
<polygon fill="none" stroke="black" points="0,-0.5 0,-30.5 137,-30.5 137,-0.5 0,-0.5"/>
<text text-anchor="start" x="8" y="-18.5" font-family="Helvetica,sans-Serif" font-size="10.00">extension::RgbStatusLed</text>
<text text-anchor="middle" x="68.5" y="-7.5" font-family="Helvetica,sans-Serif" font-size="10.00">::startup</text>
</a>
</g>
</g>
<!-- Node3&#45;&gt;Node4 -->
<g id="edge3" class="edge">
<title>Node3&#45;&gt;Node4</title>
<path fill="none" stroke="midnightblue" d="M162.4,-15.5C153.96,-15.5 145.38,-15.5 137.01,-15.5"/>
<polygon fill="midnightblue" stroke="midnightblue" points="162.59,-19 172.59,-15.5 162.59,-12 162.59,-19"/>
</g>
</g>
</svg>
