<?xml version="1.0" encoding="UTF-8" standalone="no"?>
<!DOCTYPE svg PUBLIC "-//W3C//DTD SVG 1.1//EN"
 "http://www.w3.org/Graphics/SVG/1.1/DTD/svg11.dtd">
<!-- Generated by graphviz version 2.43.0 (0)
 -->
<!-- Title: calculateAddress Pages: 1 -->
<svg width="424pt" height="96pt"
 viewBox="0.00 0.00 424.00 95.50" xmlns="http://www.w3.org/2000/svg" xmlns:xlink="http://www.w3.org/1999/xlink">
<g id="graph0" class="graph" transform="scale(1 1) rotate(0) translate(4 91.5)">
<title>calculateAddress</title>
<!-- Node1 -->
<g id="node1" class="node">
<title>Node1</title>
<g id="a_node1"><a xlink:title=" ">
<polygon fill="#bfbfbf" stroke="black" points="316,-49 316,-68 416,-68 416,-49 316,-49"/>
<text text-anchor="middle" x="366" y="-56" font-family="Helvetica,sans-Serif" font-size="10.00">calculateAddress</text>
</a>
</g>
</g>
<!-- Node2 -->
<g id="node2" class="node">
<title>Node2</title>
<g id="a_node2"><a xlink:href="classgiraffe_1_1Gpio.html#ad9bd7030420bdbf1979b3664dff68ff7" target="_top" xlink:title="Read the value of an input pin.">
<polygon fill="none" stroke="black" points="174.5,-68 174.5,-87 278.5,-87 278.5,-68 174.5,-68"/>
<text text-anchor="middle" x="226.5" y="-75" font-family="Helvetica,sans-Serif" font-size="10.00">giraffe::Gpio::read</text>
</a>
</g>
</g>
<!-- Node1&#45;&gt;Node2 -->
<g id="edge1" class="edge">
<title>Node1&#45;&gt;Node2</title>
<path fill="none" stroke="midnightblue" d="M305.73,-66.69C296.74,-67.93 287.53,-69.21 278.73,-70.42"/>
<polygon fill="midnightblue" stroke="midnightblue" points="306.32,-70.14 315.75,-65.31 305.36,-63.21 306.32,-70.14"/>
</g>
<!-- Node3 -->
<g id="node3" class="node">
<title>Node3</title>
<g id="a_node3"><a xlink:href="classgiraffe_1_1Gpio.html#a9e87bc845dcd7e6f819591291baa73ef" target="_top" xlink:title="Write a value to an output pin pin (HIGH or LOW)">
<polygon fill="none" stroke="black" points="173,-30 173,-49 280,-49 280,-30 173,-30"/>
<text text-anchor="middle" x="226.5" y="-37" font-family="Helvetica,sans-Serif" font-size="10.00">giraffe::Gpio::write</text>
</a>
</g>
</g>
<!-- Node1&#45;&gt;Node3 -->
<g id="edge2" class="edge">
<title>Node1&#45;&gt;Node3</title>
<path fill="none" stroke="midnightblue" d="M305.84,-50.32C297.29,-49.14 288.54,-47.93 280.13,-46.77"/>
<polygon fill="midnightblue" stroke="midnightblue" points="305.36,-53.79 315.75,-51.69 306.32,-46.86 305.36,-53.79"/>
</g>
<!-- Node4 -->
<g id="node4" class="node">
<title>Node4</title>
<g id="a_node4"><a xlink:href="classextension_1_1RgbStatusLed.html#a2ce2c9e71353525a9be567d0de4cbaea" target="_top" xlink:title=" ">
<polygon fill="none" stroke="black" points="0,-49.5 0,-79.5 137,-79.5 137,-49.5 0,-49.5"/>
<text text-anchor="start" x="8" y="-67.5" font-family="Helvetica,sans-Serif" font-size="10.00">extension::RgbStatusLed</text>
<text text-anchor="middle" x="68.5" y="-56.5" font-family="Helvetica,sans-Serif" font-size="10.00">::loop</text>
</a>
</g>
</g>
<!-- Node3&#45;&gt;Node4 -->
<g id="edge3" class="edge">
<title>Node3&#45;&gt;Node4</title>
<path fill="none" stroke="midnightblue" d="M162.62,-49.58C154.25,-50.92 145.64,-52.3 137.19,-53.65"/>
<polygon fill="midnightblue" stroke="midnightblue" points="163.37,-53 172.69,-47.96 162.26,-46.09 163.37,-53"/>
</g>
<!-- Node5 -->
<g id="node5" class="node">
<title>Node5</title>
<g id="a_node5"><a xlink:href="classextension_1_1RgbStatusLed.html#a66ec9a2dcb73c5d2320398b069179aa0" target="_top" xlink:title=" ">
<polygon fill="none" stroke="black" points="0,-0.5 0,-30.5 137,-30.5 137,-0.5 0,-0.5"/>
<text text-anchor="start" x="8" y="-18.5" font-family="Helvetica,sans-Serif" font-size="10.00">extension::RgbStatusLed</text>
<text text-anchor="middle" x="68.5" y="-7.5" font-family="Helvetica,sans-Serif" font-size="10.00">::shutdown</text>
</a>
</g>
</g>
<!-- Node3&#45;&gt;Node5 -->
<g id="edge4" class="edge">
<title>Node3&#45;&gt;Node5</title>
<path fill="none" stroke="midnightblue" d="M162.62,-29.83C154.25,-28.54 145.64,-27.21 137.19,-25.91"/>
<polygon fill="midnightblue" stroke="midnightblue" points="162.27,-33.31 172.69,-31.37 163.33,-26.39 162.27,-33.31"/>
</g>
</g>
</svg>
