<?xml version="1.0" encoding="UTF-8" standalone="no"?>
<!DOCTYPE svg PUBLIC "-//W3C//DTD SVG 1.1//EN"
 "http://www.w3.org/Graphics/SVG/1.1/DTD/svg11.dtd">
<!-- Generated by graphviz version 2.43.0 (0)
 -->
<!-- Title: verifyInitialized Pages: 1 -->
<svg width="448pt" height="202pt"
 viewBox="0.00 0.00 448.00 201.50" xmlns="http://www.w3.org/2000/svg" xmlns:xlink="http://www.w3.org/1999/xlink">
<g id="graph0" class="graph" transform="scale(1 1) rotate(0) translate(4 197.5)">
<title>verifyInitialized</title>
<!-- Node1 -->
<g id="node1" class="node">
<title>Node1</title>
<g id="a_node1"><a xlink:title="A function to check if the BCM GPIO registers have been mapped.">
<polygon fill="#bfbfbf" stroke="black" points="348,-98 348,-117 440,-117 440,-98 348,-98"/>
<text text-anchor="middle" x="394" y="-105" font-family="Helvetica,sans-Serif" font-size="10.00">verifyInitialized</text>
</a>
</g>
</g>
<!-- Node2 -->
<g id="node2" class="node">
<title>Node2</title>
<g id="a_node2"><a xlink:href="classgiraffe_1_1Gpio.html#ab7556c99494356b7afbdb7260f9649c7" target="_top" xlink:title="Check if the GPIO registers are mapped.">
<polygon fill="none" stroke="black" points="173,-174 173,-193 312,-193 312,-174 173,-174"/>
<text text-anchor="middle" x="242.5" y="-181" font-family="Helvetica,sans-Serif" font-size="10.00">giraffe::Gpio::isInitialized</text>
</a>
</g>
</g>
<!-- Node1&#45;&gt;Node2 -->
<g id="edge1" class="edge">
<title>Node1&#45;&gt;Node2</title>
<path fill="none" stroke="midnightblue" d="M374.09,-123.65C358.37,-136.35 334.95,-153.64 312,-164.5 304.08,-168.25 295.28,-171.38 286.71,-173.94"/>
<polygon fill="midnightblue" stroke="midnightblue" points="376.49,-126.21 381.97,-117.14 372.03,-120.81 376.49,-126.21"/>
</g>
<!-- Node3 -->
<g id="node3" class="node">
<title>Node3</title>
<g id="a_node3"><a xlink:href="classgiraffe_1_1Gpio.html#ad9bd7030420bdbf1979b3664dff68ff7" target="_top" xlink:title="Read the value of an input pin.">
<polygon fill="none" stroke="black" points="190.5,-136 190.5,-155 294.5,-155 294.5,-136 190.5,-136"/>
<text text-anchor="middle" x="242.5" y="-143" font-family="Helvetica,sans-Serif" font-size="10.00">giraffe::Gpio::read</text>
</a>
</g>
</g>
<!-- Node1&#45;&gt;Node3 -->
<g id="edge2" class="edge">
<title>Node1&#45;&gt;Node3</title>
<path fill="none" stroke="midnightblue" d="M345.35,-119.61C324.53,-124.9 300.46,-131.02 280.95,-135.98"/>
<polygon fill="midnightblue" stroke="midnightblue" points="346.45,-122.94 355.27,-117.09 344.72,-116.16 346.45,-122.94"/>
</g>
<!-- Node4 -->
<g id="node4" class="node">
<title>Node4</title>
<g id="a_node4"><a xlink:href="classgiraffe_1_1Gpio.html#a60b4d177dfc4536f9cd469ded46f6ec4" target="_top" xlink:title="Release a pin for use by another instance.">
<polygon fill="none" stroke="black" points="175.5,-60 175.5,-79 309.5,-79 309.5,-60 175.5,-60"/>
<text text-anchor="middle" x="242.5" y="-67" font-family="Helvetica,sans-Serif" font-size="10.00">giraffe::Gpio::releasePin</text>
</a>
</g>
</g>
<!-- Node1&#45;&gt;Node4 -->
<g id="edge3" class="edge">
<title>Node1&#45;&gt;Node4</title>
<path fill="none" stroke="midnightblue" d="M345.35,-95.39C324.53,-90.1 300.46,-83.98 280.95,-79.02"/>
<polygon fill="midnightblue" stroke="midnightblue" points="344.72,-98.84 355.27,-97.91 346.45,-92.06 344.72,-98.84"/>
</g>
<!-- Node6 -->
<g id="node6" class="node">
<title>Node6</title>
<g id="a_node6"><a xlink:href="classgiraffe_1_1Gpio.html#a5e84f1224ccd58fa33cb303211ed935c" target="_top" xlink:title="A function to setup a pin for input or output.">
<polygon fill="none" stroke="black" points="180,-98 180,-117 305,-117 305,-98 180,-98"/>
<text text-anchor="middle" x="242.5" y="-105" font-family="Helvetica,sans-Serif" font-size="10.00">giraffe::Gpio::setupPin</text>
</a>
</g>
</g>
<!-- Node1&#45;&gt;Node6 -->
<g id="edge5" class="edge">
<title>Node1&#45;&gt;Node6</title>
<path fill="none" stroke="midnightblue" d="M337.44,-107.5C326.92,-107.5 315.85,-107.5 305.16,-107.5"/>
<polygon fill="midnightblue" stroke="midnightblue" points="337.74,-111 347.74,-107.5 337.74,-104 337.74,-111"/>
</g>
<!-- Node8 -->
<g id="node8" class="node">
<title>Node8</title>
<g id="a_node8"><a xlink:href="classgiraffe_1_1Gpio.html#a9e87bc845dcd7e6f819591291baa73ef" target="_top" xlink:title="Write a value to an output pin pin (HIGH or LOW)">
<polygon fill="none" stroke="black" points="189,-22 189,-41 296,-41 296,-22 189,-22"/>
<text text-anchor="middle" x="242.5" y="-29" font-family="Helvetica,sans-Serif" font-size="10.00">giraffe::Gpio::write</text>
</a>
</g>
</g>
<!-- Node1&#45;&gt;Node8 -->
<g id="edge7" class="edge">
<title>Node1&#45;&gt;Node8</title>
<path fill="none" stroke="midnightblue" d="M374.09,-91.35C358.37,-78.65 334.95,-61.36 312,-50.5 304.08,-46.75 295.28,-43.62 286.71,-41.06"/>
<polygon fill="midnightblue" stroke="midnightblue" points="372.03,-94.19 381.97,-97.86 376.49,-88.79 372.03,-94.19"/>
</g>
<!-- Node5 -->
<g id="node5" class="node">
<title>Node5</title>
<g id="a_node5"><a xlink:href="classextension_1_1RgbStatusLed.html#a66ec9a2dcb73c5d2320398b069179aa0" target="_top" xlink:title=" ">
<polygon fill="none" stroke="black" points="0,-49.5 0,-79.5 137,-79.5 137,-49.5 0,-49.5"/>
<text text-anchor="start" x="8" y="-67.5" font-family="Helvetica,sans-Serif" font-size="10.00">extension::RgbStatusLed</text>
<text text-anchor="middle" x="68.5" y="-56.5" font-family="Helvetica,sans-Serif" font-size="10.00">::shutdown</text>
</a>
</g>
</g>
<!-- Node4&#45;&gt;Node5 -->
<g id="edge4" class="edge">
<title>Node4&#45;&gt;Node5</title>
<path fill="none" stroke="midnightblue" d="M165.35,-67.29C155.92,-67.01 146.33,-66.73 137.04,-66.46"/>
<polygon fill="midnightblue" stroke="midnightblue" points="165.39,-70.79 175.49,-67.58 165.6,-63.79 165.39,-70.79"/>
</g>
<!-- Node7 -->
<g id="node7" class="node">
<title>Node7</title>
<g id="a_node7"><a xlink:href="classextension_1_1RgbStatusLed.html#a1e87d52291490190be9331a3f00be2f6" target="_top" xlink:title=" ">
<polygon fill="none" stroke="black" points="0,-98.5 0,-128.5 137,-128.5 137,-98.5 0,-98.5"/>
<text text-anchor="start" x="8" y="-116.5" font-family="Helvetica,sans-Serif" font-size="10.00">extension::RgbStatusLed</text>
<text text-anchor="middle" x="68.5" y="-105.5" font-family="Helvetica,sans-Serif" font-size="10.00">::startup</text>
</a>
</g>
</g>
<!-- Node6&#45;&gt;Node7 -->
<g id="edge6" class="edge">
<title>Node6&#45;&gt;Node7</title>
<path fill="none" stroke="midnightblue" d="M169.67,-110.01C158.88,-110.38 147.79,-110.77 137.09,-111.14"/>
<polygon fill="midnightblue" stroke="midnightblue" points="170.02,-113.5 179.89,-109.65 169.77,-106.5 170.02,-113.5"/>
</g>
<!-- Node8&#45;&gt;Node5 -->
<g id="edge9" class="edge">
<title>Node8&#45;&gt;Node5</title>
<path fill="none" stroke="midnightblue" d="M181.93,-42.93C167.45,-45.71 151.87,-48.7 137.05,-51.54"/>
<polygon fill="midnightblue" stroke="midnightblue" points="182.59,-46.37 191.75,-41.04 181.27,-39.49 182.59,-46.37"/>
</g>
<!-- Node9 -->
<g id="node9" class="node">
<title>Node9</title>
<g id="a_node9"><a xlink:href="classextension_1_1RgbStatusLed.html#a2ce2c9e71353525a9be567d0de4cbaea" target="_top" xlink:title=" ">
<polygon fill="none" stroke="black" points="0,-0.5 0,-30.5 137,-30.5 137,-0.5 0,-0.5"/>
<text text-anchor="start" x="8" y="-18.5" font-family="Helvetica,sans-Serif" font-size="10.00">extension::RgbStatusLed</text>
<text text-anchor="middle" x="68.5" y="-7.5" font-family="Helvetica,sans-Serif" font-size="10.00">::loop</text>
</a>
</g>
</g>
<!-- Node8&#45;&gt;Node9 -->
<g id="edge8" class="edge">
<title>Node8&#45;&gt;Node9</title>
<path fill="none" stroke="midnightblue" d="M178.82,-25.67C165.31,-24.41 150.97,-23.08 137.27,-21.8"/>
<polygon fill="midnightblue" stroke="midnightblue" points="178.68,-29.17 188.96,-26.61 179.33,-22.2 178.68,-29.17"/>
</g>
</g>
</svg>
