<?xml version="1.0" encoding="UTF-8" standalone="no"?>
<!DOCTYPE svg PUBLIC "-//W3C//DTD SVG 1.1//EN"
 "http://www.w3.org/Graphics/SVG/1.1/DTD/svg11.dtd">
<!-- Generated by graphviz version 2.43.0 (0)
 -->
<!-- Title: RequestRouter::handleExtensionSettingUpdate Pages: 1 -->
<svg width="883pt" height="186pt"
 viewBox="0.00 0.00 883.00 186.00" xmlns="http://www.w3.org/2000/svg" xmlns:xlink="http://www.w3.org/1999/xlink">
<g id="graph0" class="graph" transform="scale(1 1) rotate(0) translate(4 182)">
<title>RequestRouter::handleExtensionSettingUpdate</title>
<!-- Node1 -->
<g id="node1" class="node">
<title>Node1</title>
<g id="a_node1"><a xlink:title="A special handler for updating extension settings.">
<polygon fill="#bfbfbf" stroke="black" points="0,-73.5 0,-103.5 176,-103.5 176,-73.5 0,-73.5"/>
<text text-anchor="start" x="8" y="-91.5" font-family="Helvetica,sans-Serif" font-size="10.00">RequestRouter::handleExtension</text>
<text text-anchor="middle" x="88" y="-80.5" font-family="Helvetica,sans-Serif" font-size="10.00">SettingUpdate</text>
</a>
</g>
</g>
<!-- Node2 -->
<g id="node2" class="node">
<title>Node2</title>
<g id="a_node2"><a xlink:href="structprotocol_1_1Message.html#a0c767f4a41337a482488e705533031aa" target="_top" xlink:title="Get the message body as a JSON object.">
<polygon fill="none" stroke="black" points="234.5,-147.5 234.5,-177.5 346.5,-177.5 346.5,-147.5 234.5,-147.5"/>
<text text-anchor="start" x="242.5" y="-165.5" font-family="Helvetica,sans-Serif" font-size="10.00">protocol::Message::</text>
<text text-anchor="middle" x="290.5" y="-154.5" font-family="Helvetica,sans-Serif" font-size="10.00">getBodyJson</text>
</a>
</g>
</g>
<!-- Node1&#45;&gt;Node2 -->
<g id="edge1" class="edge">
<title>Node1&#45;&gt;Node2</title>
<path fill="none" stroke="midnightblue" d="M123.68,-103.53C148.16,-113.9 181.83,-127.72 212,-138.5 217.44,-140.44 223.12,-142.38 228.83,-144.26"/>
<polygon fill="midnightblue" stroke="midnightblue" points="227.84,-147.62 238.43,-147.37 230,-140.96 227.84,-147.62"/>
</g>
<!-- Node3 -->
<g id="node3" class="node">
<title>Node3</title>
<g id="a_node3"><a xlink:href="group__ServerModule.html#a2916b1b7b4bd1572c6629ddb748d2dd5" target="_top" xlink:title="This function is the generic error response function.">
<polygon fill="none" stroke="black" points="220,-98.5 220,-128.5 361,-128.5 361,-98.5 220,-98.5"/>
<text text-anchor="start" x="228" y="-116.5" font-family="Helvetica,sans-Serif" font-size="10.00">RequestRouter::sendError</text>
<text text-anchor="middle" x="290.5" y="-105.5" font-family="Helvetica,sans-Serif" font-size="10.00">Packet</text>
</a>
</g>
</g>
<!-- Node1&#45;&gt;Node3 -->
<g id="edge2" class="edge">
<title>Node1&#45;&gt;Node3</title>
<path fill="none" stroke="midnightblue" d="M176.07,-99.36C187.31,-100.76 198.79,-102.19 209.9,-103.58"/>
<polygon fill="midnightblue" stroke="midnightblue" points="209.64,-107.07 220,-104.83 210.51,-100.12 209.64,-107.07"/>
</g>
<!-- Node9 -->
<g id="node9" class="node">
<title>Node9</title>
<g id="a_node9"><a xlink:href="group__ServerModule.html#aa6ff009c15a46c7f5c75ed3110a4f9a3" target="_top" xlink:title="Send a basic success response.">
<polygon fill="none" stroke="black" points="212,-49.5 212,-79.5 369,-79.5 369,-49.5 212,-49.5"/>
<text text-anchor="start" x="220" y="-67.5" font-family="Helvetica,sans-Serif" font-size="10.00">RequestRouter::sendSuccess</text>
<text text-anchor="middle" x="290.5" y="-56.5" font-family="Helvetica,sans-Serif" font-size="10.00">Response</text>
</a>
</g>
</g>
<!-- Node1&#45;&gt;Node9 -->
<g id="edge8" class="edge">
<title>Node1&#45;&gt;Node9</title>
<path fill="none" stroke="midnightblue" d="M176.07,-78.08C184.65,-77.05 193.37,-76.01 201.95,-74.98"/>
<polygon fill="midnightblue" stroke="midnightblue" points="202.45,-78.45 211.96,-73.78 201.62,-71.49 202.45,-78.45"/>
</g>
<!-- Node10 -->
<g id="node10" class="node">
<title>Node10</title>
<g id="a_node10"><a xlink:href="structcfg_1_1ExtensionMetadata.html#a25eef35ae61801373e433443c9a5aa6e" target="_top" xlink:title="Sets the extension metadata from a Json object.">
<polygon fill="none" stroke="black" points="224.5,-0.5 224.5,-30.5 356.5,-30.5 356.5,-0.5 224.5,-0.5"/>
<text text-anchor="start" x="232.5" y="-18.5" font-family="Helvetica,sans-Serif" font-size="10.00">cfg::ExtensionMetadata</text>
<text text-anchor="middle" x="290.5" y="-7.5" font-family="Helvetica,sans-Serif" font-size="10.00">::setFromJson</text>
</a>
</g>
</g>
<!-- Node1&#45;&gt;Node10 -->
<g id="edge11" class="edge">
<title>Node1&#45;&gt;Node10</title>
<path fill="none" stroke="midnightblue" d="M125.92,-73.42C150.24,-63.66 182.85,-50.88 212,-40.5 218.35,-38.24 225.03,-35.95 231.69,-33.73"/>
<polygon fill="midnightblue" stroke="midnightblue" points="232.99,-36.98 241.39,-30.52 230.8,-30.33 232.99,-36.98"/>
</g>
<!-- Node4 -->
<g id="node4" class="node">
<title>Node4</title>
<g id="a_node4"><a xlink:href="namespaceprotocol.html#a5e7a52c2cde741e59ab374836e56bd64" target="_top" xlink:title="Create a Response Message.">
<polygon fill="none" stroke="black" points="415.5,-96.5 415.5,-126.5 555.5,-126.5 555.5,-96.5 415.5,-96.5"/>
<text text-anchor="start" x="423.5" y="-114.5" font-family="Helvetica,sans-Serif" font-size="10.00">protocol::createResponse</text>
<text text-anchor="middle" x="485.5" y="-103.5" font-family="Helvetica,sans-Serif" font-size="10.00">Message</text>
</a>
</g>
</g>
<!-- Node3&#45;&gt;Node4 -->
<g id="edge3" class="edge">
<title>Node3&#45;&gt;Node4</title>
<path fill="none" stroke="midnightblue" d="M361.18,-112.78C375.48,-112.63 390.63,-112.47 405.24,-112.32"/>
<polygon fill="midnightblue" stroke="midnightblue" points="405.29,-115.82 415.25,-112.22 405.21,-108.82 405.29,-115.82"/>
</g>
<!-- Node5 -->
<g id="node5" class="node">
<title>Node5</title>
<g id="a_node5"><a xlink:href="group__ServerModule.html#a4d13e34f9d56d94f7a410248eed83a8b" target="_top" xlink:title="Send a message to the client.">
<polygon fill="none" stroke="black" points="405,-57 405,-76 566,-76 566,-57 405,-57"/>
<text text-anchor="middle" x="485.5" y="-64" font-family="Helvetica,sans-Serif" font-size="10.00">RequestRouter::sendMessage</text>
</a>
</g>
</g>
<!-- Node3&#45;&gt;Node5 -->
<g id="edge4" class="edge">
<title>Node3&#45;&gt;Node5</title>
<path fill="none" stroke="midnightblue" d="M353.1,-98.5C379.66,-92.03 410.31,-84.57 435.32,-78.48"/>
<polygon fill="midnightblue" stroke="midnightblue" points="436.42,-81.81 445.31,-76.04 434.77,-75.01 436.42,-81.81"/>
</g>
<!-- Node6 -->
<g id="node6" class="node">
<title>Node6</title>
<g id="a_node6"><a xlink:href="structprotocol_1_1Message.html#aaa08e3b4cc7fe5c56a2075af650f82fe" target="_top" xlink:title="Get the message as a JSON string.">
<polygon fill="none" stroke="black" points="608.5,-76.5 608.5,-106.5 720.5,-106.5 720.5,-76.5 608.5,-76.5"/>
<text text-anchor="start" x="616.5" y="-94.5" font-family="Helvetica,sans-Serif" font-size="10.00">protocol::Message::</text>
<text text-anchor="middle" x="664.5" y="-83.5" font-family="Helvetica,sans-Serif" font-size="10.00">getJsonString</text>
</a>
</g>
</g>
<!-- Node5&#45;&gt;Node6 -->
<g id="edge5" class="edge">
<title>Node5&#45;&gt;Node6</title>
<path fill="none" stroke="midnightblue" d="M553.92,-76.02C568.39,-78.07 583.65,-80.22 598.04,-82.25"/>
<polygon fill="midnightblue" stroke="midnightblue" points="597.95,-85.78 608.34,-83.71 598.93,-78.84 597.95,-85.78"/>
</g>
<!-- Node8 -->
<g id="node8" class="node">
<title>Node8</title>
<g id="a_node8"><a xlink:href="group__ServerModule.html#a2ba563269dbbac1c345bf7363792e5bf" target="_top" xlink:title=" ">
<polygon fill="none" stroke="black" points="602,-27.5 602,-57.5 727,-57.5 727,-27.5 602,-27.5"/>
<text text-anchor="start" x="610" y="-45.5" font-family="Helvetica,sans-Serif" font-size="10.00">sock::TcpSocketServer</text>
<text text-anchor="middle" x="664.5" y="-34.5" font-family="Helvetica,sans-Serif" font-size="10.00">::send</text>
</a>
</g>
</g>
<!-- Node5&#45;&gt;Node8 -->
<g id="edge7" class="edge">
<title>Node5&#45;&gt;Node8</title>
<path fill="none" stroke="midnightblue" d="M556.71,-56.98C568.28,-55.41 580.29,-53.78 591.89,-52.21"/>
<polygon fill="midnightblue" stroke="midnightblue" points="592.53,-55.66 601.97,-50.84 591.59,-48.72 592.53,-55.66"/>
</g>
<!-- Node7 -->
<g id="node7" class="node">
<title>Node7</title>
<g id="a_node7"><a xlink:href="structprotocol_1_1Message.html#a92361d50bd90c3e2a14a09eb87a82fc8" target="_top" xlink:title="Get the message as a JSON object.">
<polygon fill="none" stroke="black" points="763,-76.5 763,-106.5 875,-106.5 875,-76.5 763,-76.5"/>
<text text-anchor="start" x="771" y="-94.5" font-family="Helvetica,sans-Serif" font-size="10.00">protocol::Message::</text>
<text text-anchor="middle" x="819" y="-83.5" font-family="Helvetica,sans-Serif" font-size="10.00">getJson</text>
</a>
</g>
</g>
<!-- Node6&#45;&gt;Node7 -->
<g id="edge6" class="edge">
<title>Node6&#45;&gt;Node7</title>
<path fill="none" stroke="midnightblue" d="M720.56,-91.5C730.97,-91.5 741.95,-91.5 752.64,-91.5"/>
<polygon fill="midnightblue" stroke="midnightblue" points="752.77,-95 762.77,-91.5 752.77,-88 752.77,-95"/>
</g>
<!-- Node9&#45;&gt;Node4 -->
<g id="edge9" class="edge">
<title>Node9&#45;&gt;Node4</title>
<path fill="none" stroke="midnightblue" d="M353.1,-79.5C372.16,-84.14 393.32,-89.3 413,-94.09"/>
<polygon fill="midnightblue" stroke="midnightblue" points="412.28,-97.52 422.83,-96.48 413.94,-90.71 412.28,-97.52"/>
</g>
<!-- Node9&#45;&gt;Node5 -->
<g id="edge10" class="edge">
<title>Node9&#45;&gt;Node5</title>
<path fill="none" stroke="midnightblue" d="M369.17,-65.3C377.6,-65.39 386.23,-65.48 394.79,-65.57"/>
<polygon fill="midnightblue" stroke="midnightblue" points="394.75,-69.07 404.79,-65.67 394.83,-62.07 394.75,-69.07"/>
</g>
</g>
</svg>
