<?xml version="1.0" encoding="UTF-8" standalone="no"?>
<!DOCTYPE svg PUBLIC "-//W3C//DTD SVG 1.1//EN"
 "http://www.w3.org/Graphics/SVG/1.1/DTD/svg11.dtd">
<!-- Generated by graphviz version 2.43.0 (0)
 -->
<!-- Title: RequestRouter::sendMessage Pages: 1 -->
<svg width="995pt" height="363pt"
 viewBox="0.00 0.00 995.00 362.63" xmlns="http://www.w3.org/2000/svg" xmlns:xlink="http://www.w3.org/1999/xlink">
<g id="graph0" class="graph" transform="scale(1 1) rotate(0) translate(4 358.63)">
<title>RequestRouter::sendMessage</title>
<!-- Node1 -->
<g id="node1" class="node">
<title>Node1</title>
<g id="a_node1"><a xlink:title="Send a message to the client.">
<polygon fill="#bfbfbf" stroke="black" points="826,-208.63 826,-227.63 987,-227.63 987,-208.63 826,-208.63"/>
<text text-anchor="middle" x="906.5" y="-215.63" font-family="Helvetica,sans-Serif" font-size="10.00">RequestRouter::sendMessage</text>
</a>
</g>
</g>
<!-- Node2 -->
<g id="node2" class="node">
<title>Node2</title>
<g id="a_node2"><a xlink:href="group__ServerModule.html#a483e4efc0deb643ee4fdef7cb88f66b7" target="_top" xlink:title="This function responds to data requests.">
<polygon fill="none" stroke="black" points="433.5,-284.13 433.5,-314.13 584.5,-314.13 584.5,-284.13 433.5,-284.13"/>
<text text-anchor="start" x="441.5" y="-302.13" font-family="Helvetica,sans-Serif" font-size="10.00">RequestRouter::handleData</text>
<text text-anchor="middle" x="509" y="-291.13" font-family="Helvetica,sans-Serif" font-size="10.00">Request</text>
</a>
</g>
</g>
<!-- Node1&#45;&gt;Node2 -->
<g id="edge1" class="edge">
<title>Node1&#45;&gt;Node2</title>
<path fill="none" stroke="midnightblue" d="M860.26,-230.18C839.01,-235.66 813.28,-242.05 790,-247.13 720.68,-262.25 641.1,-276.76 584.53,-286.59"/>
<polygon fill="midnightblue" stroke="midnightblue" points="861.2,-233.55 869.99,-227.65 859.43,-226.78 861.2,-233.55"/>
</g>
<!-- Node4 -->
<g id="node4" class="node">
<title>Node4</title>
<g id="a_node4"><a xlink:href="group__ServerModule.html#aa4ad8544dc8431ede7414c834a8a9257" target="_top" xlink:title="This function responds to a ping request.">
<polygon fill="none" stroke="black" points="221.5,-324.13 221.5,-354.13 370.5,-354.13 370.5,-324.13 221.5,-324.13"/>
<text text-anchor="start" x="229.5" y="-342.13" font-family="Helvetica,sans-Serif" font-size="10.00">RequestRouter::handlePing</text>
<text text-anchor="middle" x="296" y="-331.13" font-family="Helvetica,sans-Serif" font-size="10.00">Request</text>
</a>
</g>
</g>
<!-- Node1&#45;&gt;Node4 -->
<g id="edge3" class="edge">
<title>Node1&#45;&gt;Node4</title>
<path fill="none" stroke="midnightblue" d="M880.01,-232.65C857.05,-245.25 822.08,-263.29 790,-275.13 706.97,-305.77 684.51,-310.96 597,-324.13 520.42,-335.65 431.74,-338.85 370.76,-339.51"/>
<polygon fill="midnightblue" stroke="midnightblue" points="881.73,-235.69 888.78,-227.78 878.33,-229.58 881.73,-235.69"/>
</g>
<!-- Node5 -->
<g id="node5" class="node">
<title>Node5</title>
<g id="a_node5"><a xlink:href="group__ServerModule.html#a4209bc198222e3efa2a77501a0f7a71d" target="_top" xlink:title="This function responds to a setting request.">
<polygon fill="none" stroke="black" points="428,-235.13 428,-265.13 590,-265.13 590,-235.13 428,-235.13"/>
<text text-anchor="start" x="436" y="-253.13" font-family="Helvetica,sans-Serif" font-size="10.00">RequestRouter::handleSetting</text>
<text text-anchor="middle" x="509" y="-242.13" font-family="Helvetica,sans-Serif" font-size="10.00">Request</text>
</a>
</g>
</g>
<!-- Node1&#45;&gt;Node5 -->
<g id="edge5" class="edge">
<title>Node1&#45;&gt;Node5</title>
<path fill="none" stroke="midnightblue" d="M815.69,-225.39C747.82,-230.89 655.49,-238.36 590.11,-243.65"/>
<polygon fill="midnightblue" stroke="midnightblue" points="816.26,-228.86 825.94,-224.56 815.69,-221.88 816.26,-228.86"/>
</g>
<!-- Node6 -->
<g id="node6" class="node">
<title>Node6</title>
<g id="a_node6"><a xlink:href="group__ServerModule.html#a1d58bc2e5fc57191959bc60a89b61ec5" target="_top" xlink:title="This function handles a setting SET request. It will attempt to set the configuration with the value ...">
<polygon fill="none" stroke="black" points="207,-76.63 207,-95.63 385,-95.63 385,-76.63 207,-76.63"/>
<text text-anchor="middle" x="296" y="-83.63" font-family="Helvetica,sans-Serif" font-size="10.00">RequestRouter::handleSettingSet</text>
</a>
</g>
</g>
<!-- Node1&#45;&gt;Node6 -->
<g id="edge7" class="edge">
<title>Node1&#45;&gt;Node6</title>
<path fill="none" stroke="midnightblue" d="M896.93,-199.09C880.92,-165.75 843.19,-96.94 790,-61.13 716.59,-11.7 684.82,-23.1 597,-12.13 519.38,-2.43 496.41,8.66 421,-12.13 375.08,-24.79 329.02,-59.42 308.32,-76.43"/>
<polygon fill="midnightblue" stroke="midnightblue" points="893.96,-201 901.36,-208.59 900.31,-198.04 893.96,-201"/>
</g>
<!-- Node7 -->
<g id="node7" class="node">
<title>Node7</title>
<g id="a_node7"><a xlink:href="group__ServerModule.html#a2916b1b7b4bd1572c6629ddb748d2dd5" target="_top" xlink:title="This function is the generic error response function.">
<polygon fill="none" stroke="black" points="641,-162.13 641,-192.13 782,-192.13 782,-162.13 641,-162.13"/>
<text text-anchor="start" x="649" y="-180.13" font-family="Helvetica,sans-Serif" font-size="10.00">RequestRouter::sendError</text>
<text text-anchor="middle" x="711.5" y="-169.13" font-family="Helvetica,sans-Serif" font-size="10.00">Packet</text>
</a>
</g>
</g>
<!-- Node1&#45;&gt;Node7 -->
<g id="edge9" class="edge">
<title>Node1&#45;&gt;Node7</title>
<path fill="none" stroke="midnightblue" d="M850.89,-206.53C829.59,-202 804.92,-196.76 782.35,-191.97"/>
<polygon fill="midnightblue" stroke="midnightblue" points="850.23,-209.96 860.74,-208.62 851.68,-203.12 850.23,-209.96"/>
</g>
<!-- Node11 -->
<g id="node11" class="node">
<title>Node11</title>
<g id="a_node11"><a xlink:href="group__ServerModule.html#aa6ff009c15a46c7f5c75ed3110a4f9a3" target="_top" xlink:title="Send a basic success response.">
<polygon fill="none" stroke="black" points="633,-71.13 633,-101.13 790,-101.13 790,-71.13 633,-71.13"/>
<text text-anchor="start" x="641" y="-89.13" font-family="Helvetica,sans-Serif" font-size="10.00">RequestRouter::sendSuccess</text>
<text text-anchor="middle" x="711.5" y="-78.13" font-family="Helvetica,sans-Serif" font-size="10.00">Response</text>
</a>
</g>
</g>
<!-- Node1&#45;&gt;Node11 -->
<g id="edge20" class="edge">
<title>Node1&#45;&gt;Node11</title>
<path fill="none" stroke="midnightblue" d="M882.62,-202.48C845.18,-176.87 771.33,-126.36 734.48,-101.16"/>
<polygon fill="midnightblue" stroke="midnightblue" points="881.08,-205.66 891.31,-208.42 885.03,-199.89 881.08,-205.66"/>
</g>
<!-- Node3 -->
<g id="node3" class="node">
<title>Node3</title>
<g id="a_node3"><a xlink:href="group__ServerModule.html#ad77e0ae3d2cd0daba1388e7d7ffa1393" target="_top" xlink:title="This function is responsible for parsing a request and routing it to the right place.">
<polygon fill="none" stroke="black" points="0,-215.63 0,-234.63 171,-234.63 171,-215.63 0,-215.63"/>
<text text-anchor="middle" x="85.5" y="-222.63" font-family="Helvetica,sans-Serif" font-size="10.00">RequestRouter::handleMessage</text>
</a>
</g>
</g>
<!-- Node2&#45;&gt;Node3 -->
<g id="edge2" class="edge">
<title>Node2&#45;&gt;Node3</title>
<path fill="none" stroke="midnightblue" d="M423.03,-286.84C362.62,-277.79 279.64,-264.75 207,-251.13 180.6,-246.18 151.13,-239.83 127.93,-234.65"/>
<polygon fill="midnightblue" stroke="midnightblue" points="422.87,-290.35 433.28,-288.37 423.9,-283.43 422.87,-290.35"/>
</g>
<!-- Node4&#45;&gt;Node3 -->
<g id="edge4" class="edge">
<title>Node4&#45;&gt;Node3</title>
<path fill="none" stroke="midnightblue" d="M239.04,-320.39C228.21,-316.14 217.1,-311.32 207,-306.13 164.86,-284.44 119.63,-250.92 98.57,-234.65"/>
<polygon fill="midnightblue" stroke="midnightblue" points="237.86,-323.68 248.45,-323.97 240.35,-317.14 237.86,-323.68"/>
</g>
<!-- Node5&#45;&gt;Node3 -->
<g id="edge6" class="edge">
<title>Node5&#45;&gt;Node3</title>
<path fill="none" stroke="midnightblue" d="M417.62,-244.77C344.62,-240.44 242.61,-234.39 171.17,-230.15"/>
<polygon fill="midnightblue" stroke="midnightblue" points="417.54,-248.27 427.73,-245.37 417.95,-241.28 417.54,-248.27"/>
</g>
<!-- Node6&#45;&gt;Node3 -->
<g id="edge8" class="edge">
<title>Node6&#45;&gt;Node3</title>
<path fill="none" stroke="midnightblue" d="M267.99,-100.81C250.35,-110.63 226.97,-124.1 207,-137.13 166.21,-163.74 120.34,-198.72 98.86,-215.43"/>
<polygon fill="midnightblue" stroke="midnightblue" points="270.08,-103.65 277.14,-95.75 266.69,-97.52 270.08,-103.65"/>
</g>
<!-- Node7&#45;&gt;Node2 -->
<g id="edge14" class="edge">
<title>Node7&#45;&gt;Node2</title>
<path fill="none" stroke="midnightblue" d="M690.14,-199.8C668.94,-222.07 633.77,-255.48 597,-275.13 590.64,-278.52 583.76,-281.47 576.75,-284.03"/>
<polygon fill="midnightblue" stroke="midnightblue" points="692.75,-202.13 697.03,-192.43 687.64,-197.35 692.75,-202.13"/>
</g>
<!-- Node7&#45;&gt;Node3 -->
<g id="edge17" class="edge">
<title>Node7&#45;&gt;Node3</title>
<path fill="none" stroke="midnightblue" d="M630.67,-183.27C512.52,-192.36 292.06,-209.31 171.18,-218.61"/>
<polygon fill="midnightblue" stroke="midnightblue" points="631.03,-186.75 640.74,-182.49 630.5,-179.77 631.03,-186.75"/>
</g>
<!-- Node7&#45;&gt;Node5 -->
<g id="edge18" class="edge">
<title>Node7&#45;&gt;Node5</title>
<path fill="none" stroke="midnightblue" d="M662.17,-195.8C642.07,-203.48 618.46,-212.37 597,-220.13 583.18,-225.13 568.05,-230.41 554.35,-235.12"/>
<polygon fill="midnightblue" stroke="midnightblue" points="663.65,-198.99 671.73,-192.14 661.14,-192.45 663.65,-198.99"/>
</g>
<!-- Node7&#45;&gt;Node6 -->
<g id="edge19" class="edge">
<title>Node7&#45;&gt;Node6</title>
<path fill="none" stroke="midnightblue" d="M632.44,-159.95C545.93,-140.91 409.49,-110.88 340.31,-95.66"/>
<polygon fill="midnightblue" stroke="midnightblue" points="631.7,-163.37 642.22,-162.1 633.2,-156.53 631.7,-163.37"/>
</g>
<!-- Node8 -->
<g id="node8" class="node">
<title>Node8</title>
<g id="a_node8"><a xlink:href="group__ServerModule.html#a493ddf0161bba462a169e510c5215990" target="_top" xlink:title="A special handler for updating ADC mapping settings.">
<polygon fill="none" stroke="black" points="436,-22.13 436,-52.13 582,-52.13 582,-22.13 436,-22.13"/>
<text text-anchor="start" x="444" y="-40.13" font-family="Helvetica,sans-Serif" font-size="10.00">RequestRouter::handleAdc</text>
<text text-anchor="middle" x="509" y="-29.13" font-family="Helvetica,sans-Serif" font-size="10.00">MappingSettingUpdate</text>
</a>
</g>
</g>
<!-- Node7&#45;&gt;Node8 -->
<g id="edge10" class="edge">
<title>Node7&#45;&gt;Node8</title>
<path fill="none" stroke="midnightblue" d="M682.5,-155.49C667.13,-143 648.17,-126.55 633,-110.13 614.66,-90.28 619.26,-76.46 597,-61.13 591.97,-57.66 586.45,-54.69 580.71,-52.15"/>
<polygon fill="midnightblue" stroke="midnightblue" points="680.63,-158.48 690.62,-162 685.01,-153.02 680.63,-158.48"/>
</g>
<!-- Node9 -->
<g id="node9" class="node">
<title>Node9</title>
<g id="a_node9"><a xlink:href="group__ServerModule.html#a959bc2e0cb68a835d4304e1204f64c69" target="_top" xlink:title="This function parses a command request, sends it to the command queue and sends a simple response bac...">
<polygon fill="none" stroke="black" points="207,-147.13 207,-177.13 385,-177.13 385,-147.13 207,-147.13"/>
<text text-anchor="start" x="215" y="-165.13" font-family="Helvetica,sans-Serif" font-size="10.00">RequestRouter::handleCommand</text>
<text text-anchor="middle" x="296" y="-154.13" font-family="Helvetica,sans-Serif" font-size="10.00">Request</text>
</a>
</g>
</g>
<!-- Node7&#45;&gt;Node9 -->
<g id="edge12" class="edge">
<title>Node7&#45;&gt;Node9</title>
<path fill="none" stroke="midnightblue" d="M630.69,-174.23C560.38,-171.68 458.12,-167.97 385.36,-165.33"/>
<polygon fill="midnightblue" stroke="midnightblue" points="630.7,-177.73 640.82,-174.6 630.96,-170.74 630.7,-177.73"/>
</g>
<!-- Node10 -->
<g id="node10" class="node">
<title>Node10</title>
<g id="a_node10"><a xlink:href="group__ServerModule.html#af41f65e7470ab4490dfa655ead0a7f88" target="_top" xlink:title="A special handler for updating extension settings.">
<polygon fill="none" stroke="black" points="421,-71.13 421,-101.13 597,-101.13 597,-71.13 421,-71.13"/>
<text text-anchor="start" x="429" y="-89.13" font-family="Helvetica,sans-Serif" font-size="10.00">RequestRouter::handleExtension</text>
<text text-anchor="middle" x="509" y="-78.13" font-family="Helvetica,sans-Serif" font-size="10.00">SettingUpdate</text>
</a>
</g>
</g>
<!-- Node7&#45;&gt;Node10 -->
<g id="edge15" class="edge">
<title>Node7&#45;&gt;Node10</title>
<path fill="none" stroke="midnightblue" d="M676.68,-157.09C654.48,-144.41 624.56,-128.19 597,-116.13 584.71,-110.75 571.11,-105.67 558.4,-101.27"/>
<polygon fill="midnightblue" stroke="midnightblue" points="674.98,-160.15 685.39,-162.11 678.48,-154.09 674.98,-160.15"/>
</g>
<!-- Node8&#45;&gt;Node6 -->
<g id="edge11" class="edge">
<title>Node8&#45;&gt;Node6</title>
<path fill="none" stroke="midnightblue" d="M433.45,-54.44C401.37,-61.89 365.11,-70.31 338.03,-76.6"/>
<polygon fill="midnightblue" stroke="midnightblue" points="434.31,-57.83 443.26,-52.16 432.73,-51.01 434.31,-57.83"/>
</g>
<!-- Node9&#45;&gt;Node3 -->
<g id="edge13" class="edge">
<title>Node9&#45;&gt;Node3</title>
<path fill="none" stroke="midnightblue" d="M235.33,-180.16C197.08,-191.71 148.98,-206.25 117.99,-215.61"/>
<polygon fill="midnightblue" stroke="midnightblue" points="236.76,-183.38 245.32,-177.14 234.74,-176.68 236.76,-183.38"/>
</g>
<!-- Node10&#45;&gt;Node6 -->
<g id="edge16" class="edge">
<title>Node10&#45;&gt;Node6</title>
<path fill="none" stroke="midnightblue" d="M410.94,-86.13C402.36,-86.13 393.7,-86.13 385.2,-86.13"/>
<polygon fill="midnightblue" stroke="midnightblue" points="410.96,-89.63 420.96,-86.13 410.96,-82.63 410.96,-89.63"/>
</g>
<!-- Node11&#45;&gt;Node8 -->
<g id="edge21" class="edge">
<title>Node11&#45;&gt;Node8</title>
<path fill="none" stroke="midnightblue" d="M638.99,-68.65C616.89,-63.25 592.76,-57.35 571.4,-52.13"/>
<polygon fill="midnightblue" stroke="midnightblue" points="638.44,-72.12 648.98,-71.09 640.1,-65.32 638.44,-72.12"/>
</g>
<!-- Node11&#45;&gt;Node10 -->
<g id="edge22" class="edge">
<title>Node11&#45;&gt;Node10</title>
<path fill="none" stroke="midnightblue" d="M622.76,-86.13C614.32,-86.13 605.75,-86.13 597.32,-86.13"/>
<polygon fill="midnightblue" stroke="midnightblue" points="622.98,-89.63 632.98,-86.13 622.98,-82.63 622.98,-89.63"/>
</g>
</g>
</svg>
