<?xml version="1.0" encoding="UTF-8" standalone="no"?>
<!DOCTYPE svg PUBLIC "-//W3C//DTD SVG 1.1//EN"
 "http://www.w3.org/Graphics/SVG/1.1/DTD/svg11.dtd">
<!-- Generated by graphviz version 2.43.0 (0)
 -->
<!-- Title: RequestRouter::handleImageRequest Pages: 1 -->
<svg width="690pt" height="159pt"
 viewBox="0.00 0.00 690.00 159.00" xmlns="http://www.w3.org/2000/svg" xmlns:xlink="http://www.w3.org/1999/xlink">
<g id="graph0" class="graph" transform="scale(1 1) rotate(0) translate(4 155)">
<title>RequestRouter::handleImageRequest</title>
<!-- Node1 -->
<g id="node1" class="node">
<title>Node1</title>
<g id="a_node1"><a xlink:title="Response to an image request. Sends the image data to the client.">
<polygon fill="#bfbfbf" stroke="black" points="0,-49.5 0,-79.5 158,-79.5 158,-49.5 0,-49.5"/>
<text text-anchor="start" x="8" y="-67.5" font-family="Helvetica,sans-Serif" font-size="10.00">RequestRouter::handleImage</text>
<text text-anchor="middle" x="79" y="-56.5" font-family="Helvetica,sans-Serif" font-size="10.00">Request</text>
</a>
</g>
</g>
<!-- Node2 -->
<g id="node2" class="node">
<title>Node2</title>
<g id="a_node2"><a xlink:href="namespacegiraffe_1_1file__paths.html#a3505afb97b280e51fa28f95291786efc" target="_top" xlink:title="Returns the path to the gfs image directory.">
<polygon fill="none" stroke="black" points="196,-98.5 196,-128.5 317,-128.5 317,-98.5 196,-98.5"/>
<text text-anchor="start" x="204" y="-116.5" font-family="Helvetica,sans-Serif" font-size="10.00">giraffe::file_paths</text>
<text text-anchor="middle" x="256.5" y="-105.5" font-family="Helvetica,sans-Serif" font-size="10.00">::getGfsImageDirPath</text>
</a>
</g>
</g>
<!-- Node1&#45;&gt;Node2 -->
<g id="edge1" class="edge">
<title>Node1&#45;&gt;Node2</title>
<path fill="none" stroke="midnightblue" d="M134.09,-79.6C152.36,-84.7 172.92,-90.44 191.86,-95.73"/>
<polygon fill="midnightblue" stroke="midnightblue" points="191.02,-99.13 201.59,-98.45 192.9,-92.39 191.02,-99.13"/>
</g>
<!-- Node5 -->
<g id="node5" class="node">
<title>Node5</title>
<g id="a_node5"><a xlink:href="group__ServerModule.html#a2ba563269dbbac1c345bf7363792e5bf" target="_top" xlink:title=" ">
<polygon fill="none" stroke="black" points="194,-49.5 194,-79.5 319,-79.5 319,-49.5 194,-49.5"/>
<text text-anchor="start" x="202" y="-67.5" font-family="Helvetica,sans-Serif" font-size="10.00">sock::TcpSocketServer</text>
<text text-anchor="middle" x="256.5" y="-56.5" font-family="Helvetica,sans-Serif" font-size="10.00">::send</text>
</a>
</g>
</g>
<!-- Node1&#45;&gt;Node5 -->
<g id="edge5" class="edge">
<title>Node1&#45;&gt;Node5</title>
<path fill="none" stroke="midnightblue" d="M158.25,-64.5C166.77,-64.5 175.4,-64.5 183.83,-64.5"/>
<polygon fill="midnightblue" stroke="midnightblue" points="183.99,-68 193.99,-64.5 183.99,-61 183.99,-68"/>
</g>
<!-- Node6 -->
<g id="node6" class="node">
<title>Node6</title>
<g id="a_node6"><a xlink:href="group__ServerModule.html#a20371784cee1df4f8aa14004d8f7aa2e" target="_top" xlink:title=" ">
<polygon fill="none" stroke="black" points="194,-0.5 194,-30.5 319,-30.5 319,-0.5 194,-0.5"/>
<text text-anchor="start" x="202" y="-18.5" font-family="Helvetica,sans-Serif" font-size="10.00">sock::TcpSocketServer</text>
<text text-anchor="middle" x="256.5" y="-7.5" font-family="Helvetica,sans-Serif" font-size="10.00">::sendRawData</text>
</a>
</g>
</g>
<!-- Node1&#45;&gt;Node6 -->
<g id="edge6" class="edge">
<title>Node1&#45;&gt;Node6</title>
<path fill="none" stroke="midnightblue" d="M134.09,-49.4C152.36,-44.3 172.92,-38.56 191.86,-33.27"/>
<polygon fill="midnightblue" stroke="midnightblue" points="192.9,-36.61 201.59,-30.55 191.02,-29.87 192.9,-36.61"/>
</g>
<!-- Node3 -->
<g id="node3" class="node">
<title>Node3</title>
<g id="a_node3"><a xlink:href="namespacegiraffe_1_1file__paths.html#a3cebf8089cfb107e6b610ffc51ea7afa" target="_top" xlink:title="Creates the Giraffe directory if it does not exist. Throws a GiraffeException if it cannot be created...">
<polygon fill="none" stroke="black" points="355,-120.5 355,-150.5 509,-150.5 509,-120.5 355,-120.5"/>
<text text-anchor="start" x="363" y="-138.5" font-family="Helvetica,sans-Serif" font-size="10.00">giraffe::file_paths</text>
<text text-anchor="middle" x="432" y="-127.5" font-family="Helvetica,sans-Serif" font-size="10.00">::createGiraffeDirIfNotExists</text>
</a>
</g>
</g>
<!-- Node2&#45;&gt;Node3 -->
<g id="edge2" class="edge">
<title>Node2&#45;&gt;Node3</title>
<path fill="none" stroke="midnightblue" d="M317.21,-121.07C326.14,-122.2 335.49,-123.39 344.83,-124.57"/>
<polygon fill="midnightblue" stroke="midnightblue" points="344.58,-128.07 354.94,-125.86 345.46,-121.13 344.58,-128.07"/>
</g>
<!-- Node4 -->
<g id="node4" class="node">
<title>Node4</title>
<g id="a_node4"><a xlink:href="namespacegiraffe_1_1file__paths.html#a65c87720fa2bacbdc5af2ce04c03ebff" target="_top" xlink:title="Get the Giraffe Directory Path.">
<polygon fill="none" stroke="black" points="545,-98.5 545,-128.5 682,-128.5 682,-98.5 545,-98.5"/>
<text text-anchor="start" x="553" y="-116.5" font-family="Helvetica,sans-Serif" font-size="10.00">giraffe::file_paths</text>
<text text-anchor="middle" x="613.5" y="-105.5" font-family="Helvetica,sans-Serif" font-size="10.00">::getGiraffeDirectoryPath</text>
</a>
</g>
</g>
<!-- Node2&#45;&gt;Node4 -->
<g id="edge4" class="edge">
<title>Node2&#45;&gt;Node4</title>
<path fill="none" stroke="midnightblue" d="M317.05,-111.38C329.58,-111.01 342.72,-110.69 355,-110.5 423.44,-109.45 440.56,-109.51 509,-110.5 517.33,-110.62 526.04,-110.8 534.72,-111"/>
<polygon fill="midnightblue" stroke="midnightblue" points="534.78,-114.5 544.86,-111.26 534.95,-107.51 534.78,-114.5"/>
</g>
<!-- Node3&#45;&gt;Node4 -->
<g id="edge3" class="edge">
<title>Node3&#45;&gt;Node4</title>
<path fill="none" stroke="midnightblue" d="M509.12,-126.17C517.64,-125.13 526.32,-124.06 534.86,-123.02"/>
<polygon fill="midnightblue" stroke="midnightblue" points="535.29,-126.49 544.79,-121.8 534.44,-119.54 535.29,-126.49"/>
</g>
</g>
</svg>
