<?xml version="1.0" encoding="UTF-8" standalone="no"?>
<!DOCTYPE svg PUBLIC "-//W3C//DTD SVG 1.1//EN"
 "http://www.w3.org/Graphics/SVG/1.1/DTD/svg11.dtd">
<!-- Generated by graphviz version 2.43.0 (0)
 -->
<!-- Title: RequestRouter::handleDataRequest Pages: 1 -->
<svg width="842pt" height="149pt"
 viewBox="0.00 0.00 842.00 148.50" xmlns="http://www.w3.org/2000/svg" xmlns:xlink="http://www.w3.org/1999/xlink">
<g id="graph0" class="graph" transform="scale(1 1) rotate(0) translate(4 144.5)">
<title>RequestRouter::handleDataRequest</title>
<!-- Node1 -->
<g id="node1" class="node">
<title>Node1</title>
<g id="a_node1"><a xlink:title="This function responds to data requests.">
<polygon fill="#bfbfbf" stroke="black" points="0,-55 0,-85 151,-85 151,-55 0,-55"/>
<text text-anchor="start" x="8" y="-73" font-family="Helvetica,sans-Serif" font-size="10.00">RequestRouter::handleData</text>
<text text-anchor="middle" x="75.5" y="-62" font-family="Helvetica,sans-Serif" font-size="10.00">Request</text>
</a>
</g>
</g>
<!-- Node2 -->
<g id="node2" class="node">
<title>Node2</title>
<g id="a_node2"><a xlink:href="namespaceprotocol.html#a5e7a52c2cde741e59ab374836e56bd64" target="_top" xlink:title="Create a Response Message.">
<polygon fill="none" stroke="black" points="374.5,-110 374.5,-140 514.5,-140 514.5,-110 374.5,-110"/>
<text text-anchor="start" x="382.5" y="-128" font-family="Helvetica,sans-Serif" font-size="10.00">protocol::createResponse</text>
<text text-anchor="middle" x="444.5" y="-117" font-family="Helvetica,sans-Serif" font-size="10.00">Message</text>
</a>
</g>
</g>
<!-- Node1&#45;&gt;Node2 -->
<g id="edge1" class="edge">
<title>Node1&#45;&gt;Node2</title>
<path fill="none" stroke="midnightblue" d="M104.16,-85.18C125.95,-96.29 157.48,-110.5 187,-117 245.43,-129.86 313.15,-131.43 364.33,-130.02"/>
<polygon fill="midnightblue" stroke="midnightblue" points="364.45,-133.51 374.33,-129.7 364.23,-126.52 364.45,-133.51"/>
</g>
<!-- Node3 -->
<g id="node3" class="node">
<title>Node3</title>
<g id="a_node3"><a xlink:href="group__ServerModule.html#a2916b1b7b4bd1572c6629ddb748d2dd5" target="_top" xlink:title="This function is the generic error response function.">
<polygon fill="none" stroke="black" points="187,-77 187,-107 328,-107 328,-77 187,-77"/>
<text text-anchor="start" x="195" y="-95" font-family="Helvetica,sans-Serif" font-size="10.00">RequestRouter::sendError</text>
<text text-anchor="middle" x="257.5" y="-84" font-family="Helvetica,sans-Serif" font-size="10.00">Packet</text>
</a>
</g>
</g>
<!-- Node1&#45;&gt;Node3 -->
<g id="edge2" class="edge">
<title>Node1&#45;&gt;Node3</title>
<path fill="none" stroke="midnightblue" d="M151.01,-79.11C159.56,-80.15 168.31,-81.22 176.92,-82.27"/>
<polygon fill="midnightblue" stroke="midnightblue" points="176.6,-85.76 186.95,-83.5 177.45,-78.81 176.6,-85.76"/>
</g>
<!-- Node4 -->
<g id="node4" class="node">
<title>Node4</title>
<g id="a_node4"><a xlink:href="group__ServerModule.html#a4d13e34f9d56d94f7a410248eed83a8b" target="_top" xlink:title="Send a message to the client.">
<polygon fill="none" stroke="black" points="364,-60.5 364,-79.5 525,-79.5 525,-60.5 364,-60.5"/>
<text text-anchor="middle" x="444.5" y="-67.5" font-family="Helvetica,sans-Serif" font-size="10.00">RequestRouter::sendMessage</text>
</a>
</g>
</g>
<!-- Node1&#45;&gt;Node4 -->
<g id="edge8" class="edge">
<title>Node1&#45;&gt;Node4</title>
<path fill="none" stroke="midnightblue" d="M151.09,-68.47C163.1,-68.27 175.39,-68.11 187,-68 249.66,-67.43 265.34,-67.46 328,-68 336.36,-68.07 345.06,-68.17 353.77,-68.29"/>
<polygon fill="midnightblue" stroke="midnightblue" points="353.92,-71.8 363.97,-68.44 354.03,-64.8 353.92,-71.8"/>
</g>
<!-- Node8 -->
<g id="node8" class="node">
<title>Node8</title>
<g id="a_node8"><a xlink:href="namespacedata.html#ad7272e7b88e216047b649704df787d95" target="_top" xlink:title=" ">
<polygon fill="none" stroke="black" points="220.5,-0.5 220.5,-19.5 294.5,-19.5 294.5,-0.5 220.5,-0.5"/>
<text text-anchor="middle" x="257.5" y="-7.5" font-family="Helvetica,sans-Serif" font-size="10.00">data::toJson</text>
</a>
</g>
</g>
<!-- Node1&#45;&gt;Node8 -->
<g id="edge9" class="edge">
<title>Node1&#45;&gt;Node8</title>
<path fill="none" stroke="midnightblue" d="M121.92,-54.86C151.73,-44.92 190.28,-32.07 218.47,-22.68"/>
<polygon fill="midnightblue" stroke="midnightblue" points="219.6,-25.99 227.98,-19.51 217.38,-19.35 219.6,-25.99"/>
</g>
<!-- Node3&#45;&gt;Node2 -->
<g id="edge3" class="edge">
<title>Node3&#45;&gt;Node2</title>
<path fill="none" stroke="midnightblue" d="M328.18,-104.43C340.02,-106.54 352.4,-108.75 364.46,-110.9"/>
<polygon fill="midnightblue" stroke="midnightblue" points="364.04,-114.38 374.5,-112.69 365.27,-107.49 364.04,-114.38"/>
</g>
<!-- Node3&#45;&gt;Node4 -->
<g id="edge4" class="edge">
<title>Node3&#45;&gt;Node4</title>
<path fill="none" stroke="midnightblue" d="M328.18,-83.71C336.57,-82.72 345.23,-81.69 353.86,-80.66"/>
<polygon fill="midnightblue" stroke="midnightblue" points="354.43,-84.12 363.95,-79.46 353.61,-77.17 354.43,-84.12"/>
</g>
<!-- Node5 -->
<g id="node5" class="node">
<title>Node5</title>
<g id="a_node5"><a xlink:href="structprotocol_1_1Message.html#aaa08e3b4cc7fe5c56a2075af650f82fe" target="_top" xlink:title="Get the message as a JSON string.">
<polygon fill="none" stroke="black" points="567.5,-80 567.5,-110 679.5,-110 679.5,-80 567.5,-80"/>
<text text-anchor="start" x="575.5" y="-98" font-family="Helvetica,sans-Serif" font-size="10.00">protocol::Message::</text>
<text text-anchor="middle" x="623.5" y="-87" font-family="Helvetica,sans-Serif" font-size="10.00">getJsonString</text>
</a>
</g>
</g>
<!-- Node4&#45;&gt;Node5 -->
<g id="edge5" class="edge">
<title>Node4&#45;&gt;Node5</title>
<path fill="none" stroke="midnightblue" d="M512.92,-79.52C527.39,-81.57 542.65,-83.72 557.04,-85.75"/>
<polygon fill="midnightblue" stroke="midnightblue" points="556.95,-89.28 567.34,-87.21 557.93,-82.34 556.95,-89.28"/>
</g>
<!-- Node7 -->
<g id="node7" class="node">
<title>Node7</title>
<g id="a_node7"><a xlink:href="group__ServerModule.html#a2ba563269dbbac1c345bf7363792e5bf" target="_top" xlink:title=" ">
<polygon fill="none" stroke="black" points="561,-31 561,-61 686,-61 686,-31 561,-31"/>
<text text-anchor="start" x="569" y="-49" font-family="Helvetica,sans-Serif" font-size="10.00">sock::TcpSocketServer</text>
<text text-anchor="middle" x="623.5" y="-38" font-family="Helvetica,sans-Serif" font-size="10.00">::send</text>
</a>
</g>
</g>
<!-- Node4&#45;&gt;Node7 -->
<g id="edge7" class="edge">
<title>Node4&#45;&gt;Node7</title>
<path fill="none" stroke="midnightblue" d="M515.71,-60.48C527.28,-58.91 539.29,-57.28 550.89,-55.71"/>
<polygon fill="midnightblue" stroke="midnightblue" points="551.53,-59.16 560.97,-54.34 550.59,-52.22 551.53,-59.16"/>
</g>
<!-- Node6 -->
<g id="node6" class="node">
<title>Node6</title>
<g id="a_node6"><a xlink:href="structprotocol_1_1Message.html#a92361d50bd90c3e2a14a09eb87a82fc8" target="_top" xlink:title="Get the message as a JSON object.">
<polygon fill="none" stroke="black" points="722,-80 722,-110 834,-110 834,-80 722,-80"/>
<text text-anchor="start" x="730" y="-98" font-family="Helvetica,sans-Serif" font-size="10.00">protocol::Message::</text>
<text text-anchor="middle" x="778" y="-87" font-family="Helvetica,sans-Serif" font-size="10.00">getJson</text>
</a>
</g>
</g>
<!-- Node5&#45;&gt;Node6 -->
<g id="edge6" class="edge">
<title>Node5&#45;&gt;Node6</title>
<path fill="none" stroke="midnightblue" d="M679.56,-95C689.97,-95 700.95,-95 711.64,-95"/>
<polygon fill="midnightblue" stroke="midnightblue" points="711.77,-98.5 721.77,-95 711.77,-91.5 711.77,-98.5"/>
</g>
<!-- Node9 -->
<g id="node9" class="node">
<title>Node9</title>
<g id="a_node9"><a xlink:href="classdata_1_1Frame.html#a21145c86e25d76061706ea66044139e0" target="_top" xlink:title=" ">
<polygon fill="none" stroke="black" points="389.5,-0.5 389.5,-19.5 499.5,-19.5 499.5,-0.5 389.5,-0.5"/>
<text text-anchor="middle" x="444.5" y="-7.5" font-family="Helvetica,sans-Serif" font-size="10.00">data::Frame::getAll</text>
</a>
</g>
</g>
<!-- Node8&#45;&gt;Node9 -->
<g id="edge10" class="edge">
<title>Node8&#45;&gt;Node9</title>
<path fill="none" stroke="midnightblue" d="M294.61,-10C318.58,-10 350.73,-10 379.02,-10"/>
<polygon fill="midnightblue" stroke="midnightblue" points="379.24,-13.5 389.24,-10 379.24,-6.5 379.24,-13.5"/>
</g>
</g>
</svg>
