<?xml version="1.0" encoding="UTF-8" standalone="no"?>
<!DOCTYPE svg PUBLIC "-//W3C//DTD SVG 1.1//EN"
 "http://www.w3.org/Graphics/SVG/1.1/DTD/svg11.dtd">
<!-- Generated by graphviz version 2.43.0 (0)
 -->
<!-- Title: RequestRouter::handleMessage Pages: 1 -->
<svg width="1326pt" height="1298pt"
 viewBox="0.00 0.00 1326.00 1297.67" xmlns="http://www.w3.org/2000/svg" xmlns:xlink="http://www.w3.org/1999/xlink">
<g id="graph0" class="graph" transform="scale(1 1) rotate(0) translate(4 1293.67)">
<title>RequestRouter::handleMessage</title>
<!-- Node1 -->
<g id="node1" class="node">
<title>Node1</title>
<g id="a_node1"><a xlink:title="This function is responsible for parsing a request and routing it to the right place.">
<polygon fill="#bfbfbf" stroke="black" points="0,-512.17 0,-531.17 171,-531.17 171,-512.17 0,-512.17"/>
<text text-anchor="middle" x="85.5" y="-519.17" font-family="Helvetica,sans-Serif" font-size="10.00">RequestRouter::handleMessage</text>
</a>
</g>
</g>
<!-- Node2 -->
<g id="node2" class="node">
<title>Node2</title>
<g id="a_node2"><a xlink:href="classgiraffe_1_1Logger.html#a33d3b3b0d74e2a642fd6234915744ea2" target="_top" xlink:title=" ">
<polygon fill="none" stroke="black" points="234.5,-717.17 234.5,-736.17 357.5,-736.17 357.5,-717.17 234.5,-717.17"/>
<text text-anchor="middle" x="296" y="-724.17" font-family="Helvetica,sans-Serif" font-size="10.00">giraffe::Logger::debug</text>
</a>
</g>
</g>
<!-- Node1&#45;&gt;Node2 -->
<g id="edge1" class="edge">
<title>Node1&#45;&gt;Node2</title>
<path fill="none" stroke="midnightblue" d="M94.93,-531.38C114.12,-553.34 162.82,-608.18 207,-650.67 229.38,-672.19 256.64,-695.29 274.83,-710.3"/>
<polygon fill="midnightblue" stroke="midnightblue" points="273.02,-713.34 282.97,-716.97 277.46,-707.93 273.02,-713.34"/>
</g>
<!-- Node7 -->
<g id="node7" class="node">
<title>Node7</title>
<g id="a_node7"><a xlink:href="group__ServerModule.html#a959bc2e0cb68a835d4304e1204f64c69" target="_top" xlink:title="This function parses a command request, sends it to the command queue and sends a simple response bac...">
<polygon fill="none" stroke="black" points="207,-846.67 207,-876.67 385,-876.67 385,-846.67 207,-846.67"/>
<text text-anchor="start" x="215" y="-864.67" font-family="Helvetica,sans-Serif" font-size="10.00">RequestRouter::handleCommand</text>
<text text-anchor="middle" x="296" y="-853.67" font-family="Helvetica,sans-Serif" font-size="10.00">Request</text>
</a>
</g>
</g>
<!-- Node1&#45;&gt;Node7 -->
<g id="edge8" class="edge">
<title>Node1&#45;&gt;Node7</title>
<path fill="none" stroke="midnightblue" d="M91.04,-531.36C106.03,-563.05 155.9,-666.17 207,-745.67 228.67,-779.38 257.25,-815.82 275.87,-838.68"/>
<polygon fill="midnightblue" stroke="midnightblue" points="273.2,-840.95 282.25,-846.46 278.61,-836.51 273.2,-840.95"/>
</g>
<!-- Node21 -->
<g id="node21" class="node">
<title>Node21</title>
<g id="a_node21"><a xlink:href="group__ServerModule.html#a2916b1b7b4bd1572c6629ddb748d2dd5" target="_top" xlink:title="This function is the generic error response function.">
<polygon fill="none" stroke="black" points="652,-498.67 652,-528.67 793,-528.67 793,-498.67 652,-498.67"/>
<text text-anchor="start" x="660" y="-516.67" font-family="Helvetica,sans-Serif" font-size="10.00">RequestRouter::sendError</text>
<text text-anchor="middle" x="722.5" y="-505.67" font-family="Helvetica,sans-Serif" font-size="10.00">Packet</text>
</a>
</g>
</g>
<!-- Node1&#45;&gt;Node21 -->
<g id="edge70" class="edge">
<title>Node1&#45;&gt;Node21</title>
<path fill="none" stroke="midnightblue" d="M171.15,-520.6C294.19,-519.05 520.84,-516.19 641.32,-514.68"/>
<polygon fill="midnightblue" stroke="midnightblue" points="641.62,-518.17 651.57,-514.55 641.53,-511.17 641.62,-518.17"/>
</g>
<!-- Node27 -->
<g id="node27" class="node">
<title>Node27</title>
<g id="a_node27"><a xlink:href="group__ServerModule.html#a483e4efc0deb643ee4fdef7cb88f66b7" target="_top" xlink:title="This function responds to data requests.">
<polygon fill="none" stroke="black" points="433.5,-637.67 433.5,-667.67 584.5,-667.67 584.5,-637.67 433.5,-637.67"/>
<text text-anchor="start" x="441.5" y="-655.67" font-family="Helvetica,sans-Serif" font-size="10.00">RequestRouter::handleData</text>
<text text-anchor="middle" x="509" y="-644.67" font-family="Helvetica,sans-Serif" font-size="10.00">Request</text>
</a>
</g>
</g>
<!-- Node1&#45;&gt;Node27 -->
<g id="edge32" class="edge">
<title>Node1&#45;&gt;Node27</title>
<path fill="none" stroke="midnightblue" d="M104.85,-531.31C128.11,-543.24 169.68,-563.56 207,-576.67 278.53,-601.79 362.34,-622.25 423.33,-635.59"/>
<polygon fill="midnightblue" stroke="midnightblue" points="422.78,-639.05 433.29,-637.75 424.26,-632.21 422.78,-639.05"/>
</g>
<!-- Node30 -->
<g id="node30" class="node">
<title>Node30</title>
<g id="a_node30"><a xlink:href="group__ServerModule.html#a0fe0d216d79f6af4bdd4c4e5621ac9fd" target="_top" xlink:title="Response to an image request. Sends the image data to the client.">
<polygon fill="none" stroke="black" points="217,-139.67 217,-169.67 375,-169.67 375,-139.67 217,-139.67"/>
<text text-anchor="start" x="225" y="-157.67" font-family="Helvetica,sans-Serif" font-size="10.00">RequestRouter::handleImage</text>
<text text-anchor="middle" x="296" y="-146.67" font-family="Helvetica,sans-Serif" font-size="10.00">Request</text>
</a>
</g>
</g>
<!-- Node1&#45;&gt;Node30 -->
<g id="edge38" class="edge">
<title>Node1&#45;&gt;Node30</title>
<path fill="none" stroke="midnightblue" d="M92.08,-511.85C119.47,-463.63 240.11,-251.28 281.22,-178.92"/>
<polygon fill="midnightblue" stroke="midnightblue" points="284.37,-180.47 286.26,-170.04 278.28,-177.01 284.37,-180.47"/>
</g>
<!-- Node35 -->
<g id="node35" class="node">
<title>Node35</title>
<g id="a_node35"><a xlink:href="group__ServerModule.html#aa4ad8544dc8431ede7414c834a8a9257" target="_top" xlink:title="This function responds to a ping request.">
<polygon fill="none" stroke="black" points="648,-449.67 648,-479.67 797,-479.67 797,-449.67 648,-449.67"/>
<text text-anchor="start" x="656" y="-467.67" font-family="Helvetica,sans-Serif" font-size="10.00">RequestRouter::handlePing</text>
<text text-anchor="middle" x="722.5" y="-456.67" font-family="Helvetica,sans-Serif" font-size="10.00">Request</text>
</a>
</g>
</g>
<!-- Node1&#45;&gt;Node35 -->
<g id="edge45" class="edge">
<title>Node1&#45;&gt;Node35</title>
<path fill="none" stroke="midnightblue" d="M171.15,-514.07C293,-503.13 516.47,-483.07 637.79,-472.18"/>
<polygon fill="midnightblue" stroke="midnightblue" points="638.13,-475.66 647.78,-471.28 637.5,-468.69 638.13,-475.66"/>
</g>
<!-- Node36 -->
<g id="node36" class="node">
<title>Node36</title>
<g id="a_node36"><a xlink:href="group__ServerModule.html#a4209bc198222e3efa2a77501a0f7a71d" target="_top" xlink:title="This function responds to a setting request.">
<polygon fill="none" stroke="black" points="428,-588.67 428,-618.67 590,-618.67 590,-588.67 428,-588.67"/>
<text text-anchor="start" x="436" y="-606.67" font-family="Helvetica,sans-Serif" font-size="10.00">RequestRouter::handleSetting</text>
<text text-anchor="middle" x="509" y="-595.67" font-family="Helvetica,sans-Serif" font-size="10.00">Request</text>
</a>
</g>
</g>
<!-- Node1&#45;&gt;Node36 -->
<g id="edge48" class="edge">
<title>Node1&#45;&gt;Node36</title>
<path fill="none" stroke="midnightblue" d="M135.68,-531.23C205.45,-544.81 334.26,-569.87 420.54,-586.65"/>
<polygon fill="midnightblue" stroke="midnightblue" points="420.1,-590.13 430.59,-588.61 421.44,-583.26 420.1,-590.13"/>
</g>
<!-- Node37 -->
<g id="node37" class="node">
<title>Node37</title>
<g id="a_node37"><a xlink:href="group__ServerModule.html#a1d58bc2e5fc57191959bc60a89b61ec5" target="_top" xlink:title="This function handles a setting SET request. It will attempt to set the configuration with the value ...">
<polygon fill="none" stroke="black" points="207,-354.17 207,-373.17 385,-373.17 385,-354.17 207,-354.17"/>
<text text-anchor="middle" x="296" y="-361.17" font-family="Helvetica,sans-Serif" font-size="10.00">RequestRouter::handleSettingSet</text>
</a>
</g>
</g>
<!-- Node1&#45;&gt;Node37 -->
<g id="edge52" class="edge">
<title>Node1&#45;&gt;Node37</title>
<path fill="none" stroke="midnightblue" d="M99.23,-512.02C134.14,-485.57 231.61,-411.7 274.41,-379.27"/>
<polygon fill="midnightblue" stroke="midnightblue" points="276.58,-382.01 282.44,-373.18 272.35,-376.44 276.58,-382.01"/>
</g>
<!-- Node44 -->
<g id="node44" class="node">
<title>Node44</title>
<g id="a_node44"><a xlink:href="namespaceprotocol.html#ac6314a5d8075e25c09e5381ff1c4ca24" target="_top" xlink:title="Parse a JSON string into a Message.">
<polygon fill="none" stroke="black" points="229.5,-101.17 229.5,-120.17 362.5,-120.17 362.5,-101.17 229.5,-101.17"/>
<text text-anchor="middle" x="296" y="-108.17" font-family="Helvetica,sans-Serif" font-size="10.00">protocol::parseMessage</text>
</a>
</g>
</g>
<!-- Node1&#45;&gt;Node44 -->
<g id="edge69" class="edge">
<title>Node1&#45;&gt;Node44</title>
<path fill="none" stroke="midnightblue" d="M86.2,-511.92C85.28,-462.64 87.93,-238.95 207,-129.67 210.86,-126.12 215.22,-123.18 219.87,-120.75"/>
<polygon fill="midnightblue" stroke="midnightblue" points="221.41,-123.89 229.15,-116.66 218.59,-117.49 221.41,-123.89"/>
</g>
<!-- Node3 -->
<g id="node3" class="node">
<title>Node3</title>
<g id="a_node3"><a xlink:href="classdata_1_1LogStream.html#ad1cf22d3ef9249fd5818bd00a41b4425" target="_top" xlink:title=" ">
<polygon fill="none" stroke="black" points="442.5,-757.17 442.5,-776.17 575.5,-776.17 575.5,-757.17 442.5,-757.17"/>
<text text-anchor="middle" x="509" y="-764.17" font-family="Helvetica,sans-Serif" font-size="10.00">data::LogStream::debug</text>
</a>
</g>
</g>
<!-- Node2&#45;&gt;Node3 -->
<g id="edge2" class="edge">
<title>Node2&#45;&gt;Node3</title>
<path fill="none" stroke="midnightblue" d="M347.27,-736.2C377.41,-741.91 415.92,-749.21 447.69,-755.23"/>
<polygon fill="midnightblue" stroke="midnightblue" points="447.27,-758.72 457.75,-757.14 448.58,-751.84 447.27,-758.72"/>
</g>
<!-- Node4 -->
<g id="node4" class="node">
<title>Node4</title>
<g id="a_node4"><a xlink:href="classdata_1_1Stream.html#a1ff9a93190dbecdc2ffa27deaaa4266a" target="_top" xlink:title=" ">
<polygon fill="none" stroke="black" points="858.5,-871.67 858.5,-901.67 998.5,-901.67 998.5,-871.67 858.5,-871.67"/>
<text text-anchor="start" x="866.5" y="-889.67" font-family="Helvetica,sans-Serif" font-size="10.00">data::Stream&lt; LogPacket</text>
<text text-anchor="middle" x="928.5" y="-878.67" font-family="Helvetica,sans-Serif" font-size="10.00"> &gt;::addPacket</text>
</a>
</g>
</g>
<!-- Node3&#45;&gt;Node4 -->
<g id="edge3" class="edge">
<title>Node3&#45;&gt;Node4</title>
<path fill="none" stroke="midnightblue" d="M554.72,-776.19C614.08,-789.23 721.89,-814.27 812,-842.67 835.34,-850.02 860.8,-859.55 881.87,-867.86"/>
<polygon fill="midnightblue" stroke="midnightblue" points="880.63,-871.14 891.21,-871.58 883.22,-864.63 880.63,-871.14"/>
</g>
<!-- Node5 -->
<g id="node5" class="node">
<title>Node5</title>
<g id="a_node5"><a xlink:href="classdata_1_1LogStream.html#a02c18d6e5c9697b4943ba9fb630ca0c9" target="_top" xlink:title=" ">
<polygon fill="none" stroke="black" points="661.5,-852.17 661.5,-871.17 783.5,-871.17 783.5,-852.17 661.5,-852.17"/>
<text text-anchor="middle" x="722.5" y="-859.17" font-family="Helvetica,sans-Serif" font-size="10.00">data::LogStream::info</text>
</a>
</g>
</g>
<!-- Node3&#45;&gt;Node5 -->
<g id="edge4" class="edge">
<title>Node3&#45;&gt;Node5</title>
<path fill="none" stroke="midnightblue" d="M531.44,-776.3C569.23,-793.27 647.76,-828.54 691.11,-848.02"/>
<polygon fill="midnightblue" stroke="midnightblue" points="689.76,-851.24 700.31,-852.15 692.63,-844.86 689.76,-851.24"/>
</g>
<!-- Node6 -->
<g id="node6" class="node">
<title>Node6</title>
<g id="a_node6"><a xlink:href="structdata_1_1BaseStreamPacket.html#a140b2f54f93715d9229e1847bc1219b2" target="_top" xlink:title=" ">
<polygon fill="none" stroke="black" points="861,-808.67 861,-838.67 996,-838.67 996,-808.67 861,-808.67"/>
<text text-anchor="start" x="869" y="-826.67" font-family="Helvetica,sans-Serif" font-size="10.00">data::BaseStreamPacket</text>
<text text-anchor="middle" x="928.5" y="-815.67" font-family="Helvetica,sans-Serif" font-size="10.00">::resetTime</text>
</a>
</g>
</g>
<!-- Node3&#45;&gt;Node6 -->
<g id="edge7" class="edge">
<title>Node3&#45;&gt;Node6</title>
<path fill="none" stroke="midnightblue" d="M575.7,-760.19C637.48,-755.87 732.17,-753.83 812,-771.67 840.54,-778.04 870.6,-791.83 892.9,-803.6"/>
<polygon fill="midnightblue" stroke="midnightblue" points="891.49,-806.82 901.95,-808.5 894.82,-800.66 891.49,-806.82"/>
</g>
<!-- Node5&#45;&gt;Node4 -->
<g id="edge5" class="edge">
<title>Node5&#45;&gt;Node4</title>
<path fill="none" stroke="midnightblue" d="M783.6,-869.03C803.79,-871.51 826.64,-874.3 848.08,-876.93"/>
<polygon fill="midnightblue" stroke="midnightblue" points="847.79,-880.42 858.14,-878.17 848.64,-873.48 847.79,-880.42"/>
</g>
<!-- Node5&#45;&gt;Node6 -->
<g id="edge6" class="edge">
<title>Node5&#45;&gt;Node6</title>
<path fill="none" stroke="midnightblue" d="M774.71,-852.13C797.74,-847.84 825.4,-842.68 850.83,-837.95"/>
<polygon fill="midnightblue" stroke="midnightblue" points="851.63,-841.36 860.82,-836.09 850.34,-834.48 851.63,-841.36"/>
</g>
<!-- Node8 -->
<g id="node8" class="node">
<title>Node8</title>
<g id="a_node8"><a xlink:href="classdata_1_1CommandStream.html#aeacbc84ac96a098ef5836fcbd5187be8" target="_top" xlink:title=" ">
<polygon fill="none" stroke="black" points="444,-906.67 444,-936.67 574,-936.67 574,-906.67 444,-906.67"/>
<text text-anchor="start" x="452" y="-924.67" font-family="Helvetica,sans-Serif" font-size="10.00">data::CommandStream</text>
<text text-anchor="middle" x="509" y="-913.67" font-family="Helvetica,sans-Serif" font-size="10.00">::addCommand</text>
</a>
</g>
</g>
<!-- Node7&#45;&gt;Node8 -->
<g id="edge9" class="edge">
<title>Node7&#45;&gt;Node8</title>
<path fill="none" stroke="midnightblue" d="M349.97,-876.73C378.94,-884.97 415.01,-895.22 445.37,-903.85"/>
<polygon fill="midnightblue" stroke="midnightblue" points="444.43,-907.23 455.01,-906.6 446.35,-900.49 444.43,-907.23"/>
</g>
<!-- Node9 -->
<g id="node9" class="node">
<title>Node9</title>
<g id="a_node9"><a xlink:href="classdata_1_1LogStream.html#a18af3025ca8f1e60e5bd795f10b6c8b1" target="_top" xlink:title=" ">
<polygon fill="none" stroke="black" points="446,-852.17 446,-871.17 572,-871.17 572,-852.17 446,-852.17"/>
<text text-anchor="middle" x="509" y="-859.17" font-family="Helvetica,sans-Serif" font-size="10.00">data::LogStream::error</text>
</a>
</g>
</g>
<!-- Node7&#45;&gt;Node9 -->
<g id="edge11" class="edge">
<title>Node7&#45;&gt;Node9</title>
<path fill="none" stroke="midnightblue" d="M385.26,-861.67C401.94,-861.67 419.2,-861.67 435.33,-861.67"/>
<polygon fill="midnightblue" stroke="midnightblue" points="435.75,-865.17 445.75,-861.67 435.75,-858.17 435.75,-865.17"/>
</g>
<!-- Node10 -->
<g id="node10" class="node">
<title>Node10</title>
<g id="a_node10"><a xlink:href="namespacecmd.html#a72f52f6e6e21f8264af9efef6b5afb74" target="_top" xlink:title="Parses a command string into a command object.">
<polygon fill="none" stroke="black" points="434.5,-1099.17 434.5,-1118.17 583.5,-1118.17 583.5,-1099.17 434.5,-1099.17"/>
<text text-anchor="middle" x="509" y="-1106.17" font-family="Helvetica,sans-Serif" font-size="10.00">cmd::parseCommandString</text>
</a>
</g>
</g>
<!-- Node7&#45;&gt;Node10 -->
<g id="edge15" class="edge">
<title>Node7&#45;&gt;Node10</title>
<path fill="none" stroke="midnightblue" d="M309.88,-876.74C346.94,-920.13 453.71,-1045.11 493.14,-1091.27"/>
<polygon fill="midnightblue" stroke="midnightblue" points="490.53,-1093.6 499.68,-1098.93 495.85,-1089.05 490.53,-1093.6"/>
</g>
<!-- Node7&#45;&gt;Node21 -->
<g id="edge26" class="edge">
<title>Node7&#45;&gt;Node21</title>
<path fill="none" stroke="midnightblue" d="M311.97,-846.61C331.8,-825.76 366.43,-786.09 385,-745.67 416.7,-676.67 367.33,-632.37 421,-578.67 428.91,-570.75 555.28,-545.34 641.6,-528.73"/>
<polygon fill="midnightblue" stroke="midnightblue" points="642.49,-532.12 651.65,-526.8 641.17,-525.25 642.49,-532.12"/>
</g>
<!-- Node8&#45;&gt;Node4 -->
<g id="edge10" class="edge">
<title>Node8&#45;&gt;Node4</title>
<path fill="none" stroke="midnightblue" d="M574.24,-916.85C635.39,-912.2 730,-904.83 812,-897.67 823.68,-896.65 836.02,-895.52 848.11,-894.39"/>
<polygon fill="midnightblue" stroke="midnightblue" points="848.57,-897.86 858.2,-893.44 847.91,-890.89 848.57,-897.86"/>
</g>
<!-- Node9&#45;&gt;Node4 -->
<g id="edge12" class="edge">
<title>Node9&#45;&gt;Node4</title>
<path fill="none" stroke="midnightblue" d="M561.58,-871.2C583.52,-874.84 609.43,-878.61 633,-880.67 705.72,-886.99 788.91,-888.13 848.28,-887.9"/>
<polygon fill="midnightblue" stroke="midnightblue" points="848.36,-891.4 858.34,-887.84 848.32,-884.4 848.36,-891.4"/>
</g>
<!-- Node9&#45;&gt;Node5 -->
<g id="edge13" class="edge">
<title>Node9&#45;&gt;Node5</title>
<path fill="none" stroke="midnightblue" d="M572.03,-861.67C596.88,-861.67 625.65,-861.67 651.27,-861.67"/>
<polygon fill="midnightblue" stroke="midnightblue" points="651.29,-865.17 661.29,-861.67 651.29,-858.17 651.29,-865.17"/>
</g>
<!-- Node9&#45;&gt;Node6 -->
<g id="edge14" class="edge">
<title>Node9&#45;&gt;Node6</title>
<path fill="none" stroke="midnightblue" d="M564.66,-852.16C585.94,-848.73 610.55,-845.12 633,-842.67 706.78,-834.6 791.37,-829.58 850.9,-826.74"/>
<polygon fill="midnightblue" stroke="midnightblue" points="851.15,-830.23 860.98,-826.27 850.83,-823.24 851.15,-830.23"/>
</g>
<!-- Node11 -->
<g id="node11" class="node">
<title>Node11</title>
<g id="a_node11"><a xlink:href="command__processor_8cpp.html#a2d173b5fffc1c8b756aaf2a701db8dd0" target="_top" xlink:title=" ">
<polygon fill="none" stroke="black" points="643,-1118.17 643,-1137.17 802,-1137.17 802,-1118.17 643,-1118.17"/>
<text text-anchor="middle" x="722.5" y="-1125.17" font-family="Helvetica,sans-Serif" font-size="10.00">parseConfigurationCommand</text>
</a>
</g>
</g>
<!-- Node10&#45;&gt;Node11 -->
<g id="edge16" class="edge">
<title>Node10&#45;&gt;Node11</title>
<path fill="none" stroke="midnightblue" d="M583.68,-1115.28C599.47,-1116.7 616.32,-1118.22 632.62,-1119.68"/>
<polygon fill="midnightblue" stroke="midnightblue" points="632.42,-1123.18 642.69,-1120.59 633.04,-1116.2 632.42,-1123.18"/>
</g>
<!-- Node12 -->
<g id="node12" class="node">
<title>Node12</title>
<g id="a_node12"><a xlink:href="command__processor_8cpp.html#ad1d8be34ae493715509b48acb62f4533" target="_top" xlink:title=" ">
<polygon fill="none" stroke="black" points="638,-1080.17 638,-1099.17 807,-1099.17 807,-1080.17 638,-1080.17"/>
<text text-anchor="middle" x="722.5" y="-1087.17" font-family="Helvetica,sans-Serif" font-size="10.00">parseConsoleModuleCommand</text>
</a>
</g>
</g>
<!-- Node10&#45;&gt;Node12 -->
<g id="edge17" class="edge">
<title>Node10&#45;&gt;Node12</title>
<path fill="none" stroke="midnightblue" d="M583.68,-1102.05C597.91,-1100.77 613.01,-1099.41 627.79,-1098.08"/>
<polygon fill="midnightblue" stroke="midnightblue" points="628.31,-1101.55 637.95,-1097.17 627.68,-1094.58 628.31,-1101.55"/>
</g>
<!-- Node13 -->
<g id="node13" class="node">
<title>Node13</title>
<g id="a_node13"><a xlink:href="command__processor_8cpp.html#a9106bfe97edd99b106962339800e17bf" target="_top" xlink:title=" ">
<polygon fill="none" stroke="black" points="646,-1270.17 646,-1289.17 799,-1289.17 799,-1270.17 646,-1270.17"/>
<text text-anchor="middle" x="722.5" y="-1277.17" font-family="Helvetica,sans-Serif" font-size="10.00">parseDataModuleCommand</text>
</a>
</g>
</g>
<!-- Node10&#45;&gt;Node13 -->
<g id="edge18" class="edge">
<title>Node10&#45;&gt;Node13</title>
<path fill="none" stroke="midnightblue" d="M514.8,-1118.4C528.82,-1145.72 572.55,-1223.52 633,-1260.67 636.44,-1262.78 640.08,-1264.66 643.85,-1266.34"/>
<polygon fill="midnightblue" stroke="midnightblue" points="642.85,-1269.7 653.44,-1270.08 645.4,-1263.18 642.85,-1269.7"/>
</g>
<!-- Node15 -->
<g id="node15" class="node">
<title>Node15</title>
<g id="a_node15"><a xlink:href="command__processor_8cpp.html#a22b7c20a37b3536428bb6f3cfc906076" target="_top" xlink:title=" ">
<polygon fill="none" stroke="black" points="651.5,-1042.17 651.5,-1061.17 793.5,-1061.17 793.5,-1042.17 651.5,-1042.17"/>
<text text-anchor="middle" x="722.5" y="-1049.17" font-family="Helvetica,sans-Serif" font-size="10.00">parseExtensionCommand</text>
</a>
</g>
</g>
<!-- Node10&#45;&gt;Node15 -->
<g id="edge20" class="edge">
<title>Node10&#45;&gt;Node15</title>
<path fill="none" stroke="midnightblue" d="M538.62,-1099.04C563.42,-1090.88 600.35,-1079.2 633,-1070.67 642.69,-1068.13 653.05,-1065.68 663.13,-1063.43"/>
<polygon fill="midnightblue" stroke="midnightblue" points="664.07,-1066.81 673.09,-1061.25 662.57,-1059.97 664.07,-1066.81"/>
</g>
<!-- Node16 -->
<g id="node16" class="node">
<title>Node16</title>
<g id="a_node16"><a xlink:href="command__processor_8cpp.html#ad0fa213670534c75ad5b96cd908d4c81" target="_top" xlink:title=" ">
<polygon fill="none" stroke="black" points="633.5,-1004.17 633.5,-1023.17 811.5,-1023.17 811.5,-1004.17 633.5,-1004.17"/>
<text text-anchor="middle" x="722.5" y="-1011.17" font-family="Helvetica,sans-Serif" font-size="10.00">parseExtensionModuleCommand</text>
</a>
</g>
</g>
<!-- Node10&#45;&gt;Node16 -->
<g id="edge21" class="edge">
<title>Node10&#45;&gt;Node16</title>
<path fill="none" stroke="midnightblue" d="M522.16,-1099.16C543.41,-1083.01 589.22,-1050.28 633,-1032.67 639.37,-1030.1 646.14,-1027.86 652.99,-1025.91"/>
<polygon fill="midnightblue" stroke="midnightblue" points="654.27,-1029.19 663.04,-1023.25 652.48,-1022.42 654.27,-1029.19"/>
</g>
<!-- Node17 -->
<g id="node17" class="node">
<title>Node17</title>
<g id="a_node17"><a xlink:href="command__processor_8cpp.html#a7652d53c747bc618ecacff1b43b94a72" target="_top" xlink:title=" ">
<polygon fill="none" stroke="black" points="644.5,-966.17 644.5,-985.17 800.5,-985.17 800.5,-966.17 644.5,-966.17"/>
<text text-anchor="middle" x="722.5" y="-973.17" font-family="Helvetica,sans-Serif" font-size="10.00">parseFlightRunnerCommand</text>
</a>
</g>
</g>
<!-- Node10&#45;&gt;Node17 -->
<g id="edge22" class="edge">
<title>Node10&#45;&gt;Node17</title>
<path fill="none" stroke="midnightblue" d="M517.4,-1098.88C534.86,-1076.54 581.08,-1021.66 633,-994.67 637.59,-992.28 642.46,-990.19 647.46,-988.37"/>
<polygon fill="midnightblue" stroke="midnightblue" points="648.8,-991.61 657.22,-985.17 646.62,-984.96 648.8,-991.61"/>
</g>
<!-- Node18 -->
<g id="node18" class="node">
<title>Node18</title>
<g id="a_node18"><a xlink:href="command__processor_8cpp.html#aa395b626abbd00953e3753ff9d64917e" target="_top" xlink:title=" ">
<polygon fill="none" stroke="black" points="642,-1232.17 642,-1251.17 803,-1251.17 803,-1232.17 642,-1232.17"/>
<text text-anchor="middle" x="722.5" y="-1239.17" font-family="Helvetica,sans-Serif" font-size="10.00">parseServerModuleCommand</text>
</a>
</g>
</g>
<!-- Node10&#45;&gt;Node18 -->
<g id="edge23" class="edge">
<title>Node10&#45;&gt;Node18</title>
<path fill="none" stroke="midnightblue" d="M517.4,-1118.45C534.86,-1140.79 581.08,-1195.67 633,-1222.67 637.59,-1225.05 642.46,-1227.14 647.46,-1228.96"/>
<polygon fill="midnightblue" stroke="midnightblue" points="646.62,-1232.37 657.22,-1232.16 648.8,-1225.72 646.62,-1232.37"/>
</g>
<!-- Node19 -->
<g id="node19" class="node">
<title>Node19</title>
<g id="a_node19"><a xlink:href="command__processor_8cpp.html#acfe1b39a13cbda474fb3a8a6811f23ec" target="_top" xlink:title=" ">
<polygon fill="none" stroke="black" points="639,-1194.17 639,-1213.17 806,-1213.17 806,-1194.17 639,-1194.17"/>
<text text-anchor="middle" x="722.5" y="-1201.17" font-family="Helvetica,sans-Serif" font-size="10.00">parseSystemModuleCommand</text>
</a>
</g>
</g>
<!-- Node10&#45;&gt;Node19 -->
<g id="edge24" class="edge">
<title>Node10&#45;&gt;Node19</title>
<path fill="none" stroke="midnightblue" d="M522.16,-1118.18C543.41,-1134.32 589.22,-1167.05 633,-1184.67 639.37,-1187.23 646.14,-1189.47 652.99,-1191.42"/>
<polygon fill="midnightblue" stroke="midnightblue" points="652.48,-1194.91 663.04,-1194.08 654.27,-1188.14 652.48,-1194.91"/>
</g>
<!-- Node20 -->
<g id="node20" class="node">
<title>Node20</title>
<g id="a_node20"><a xlink:href="command__processor_8cpp.html#a4d154f34c544db0f583f17cb3bac8f55" target="_top" xlink:title=" ">
<polygon fill="none" stroke="black" points="633,-1156.17 633,-1175.17 812,-1175.17 812,-1156.17 633,-1156.17"/>
<text text-anchor="middle" x="722.5" y="-1163.17" font-family="Helvetica,sans-Serif" font-size="10.00">parseTelemetryModuleCommand</text>
</a>
</g>
</g>
<!-- Node10&#45;&gt;Node20 -->
<g id="edge25" class="edge">
<title>Node10&#45;&gt;Node20</title>
<path fill="none" stroke="midnightblue" d="M538.62,-1118.29C563.42,-1126.45 600.35,-1138.13 633,-1146.67 642.69,-1149.2 653.05,-1151.65 663.13,-1153.9"/>
<polygon fill="midnightblue" stroke="midnightblue" points="662.57,-1157.36 673.09,-1156.08 664.07,-1150.52 662.57,-1157.36"/>
</g>
<!-- Node14 -->
<g id="node14" class="node">
<title>Node14</title>
<g id="a_node14"><a xlink:href="command__processor_8cpp.html#af66cd87ab8d3892cf773fdea7899f953" target="_top" xlink:title="Returns the value of a hex string as a uint32_t.">
<polygon fill="none" stroke="black" points="875.5,-1270.17 875.5,-1289.17 981.5,-1289.17 981.5,-1270.17 875.5,-1270.17"/>
<text text-anchor="middle" x="928.5" y="-1277.17" font-family="Helvetica,sans-Serif" font-size="10.00">hexStringToUInt32</text>
</a>
</g>
</g>
<!-- Node13&#45;&gt;Node14 -->
<g id="edge19" class="edge">
<title>Node13&#45;&gt;Node14</title>
<path fill="none" stroke="midnightblue" d="M799.17,-1279.67C821,-1279.67 844.55,-1279.67 865.45,-1279.67"/>
<polygon fill="midnightblue" stroke="midnightblue" points="865.48,-1283.17 875.48,-1279.67 865.48,-1276.17 865.48,-1283.17"/>
</g>
<!-- Node22 -->
<g id="node22" class="node">
<title>Node22</title>
<g id="a_node22"><a xlink:href="namespaceprotocol.html#a5e7a52c2cde741e59ab374836e56bd64" target="_top" xlink:title="Create a Response Message.">
<polygon fill="none" stroke="black" points="858.5,-495.67 858.5,-525.67 998.5,-525.67 998.5,-495.67 858.5,-495.67"/>
<text text-anchor="start" x="866.5" y="-513.67" font-family="Helvetica,sans-Serif" font-size="10.00">protocol::createResponse</text>
<text text-anchor="middle" x="928.5" y="-502.67" font-family="Helvetica,sans-Serif" font-size="10.00">Message</text>
</a>
</g>
</g>
<!-- Node21&#45;&gt;Node22 -->
<g id="edge27" class="edge">
<title>Node21&#45;&gt;Node22</title>
<path fill="none" stroke="midnightblue" d="M793.13,-512.64C810.78,-512.38 829.86,-512.1 847.95,-511.84"/>
<polygon fill="midnightblue" stroke="midnightblue" points="848.23,-515.33 858.18,-511.68 848.13,-508.33 848.23,-515.33"/>
</g>
<!-- Node23 -->
<g id="node23" class="node">
<title>Node23</title>
<g id="a_node23"><a xlink:href="group__ServerModule.html#a4d13e34f9d56d94f7a410248eed83a8b" target="_top" xlink:title="Send a message to the client.">
<polygon fill="none" stroke="black" points="848,-455.17 848,-474.17 1009,-474.17 1009,-455.17 848,-455.17"/>
<text text-anchor="middle" x="928.5" y="-462.17" font-family="Helvetica,sans-Serif" font-size="10.00">RequestRouter::sendMessage</text>
</a>
</g>
</g>
<!-- Node21&#45;&gt;Node23 -->
<g id="edge28" class="edge">
<title>Node21&#45;&gt;Node23</title>
<path fill="none" stroke="midnightblue" d="M786.09,-498.63C815.61,-491.54 850.34,-483.2 877.99,-476.56"/>
<polygon fill="midnightblue" stroke="midnightblue" points="878.93,-479.93 887.83,-474.19 877.29,-473.13 878.93,-479.93"/>
</g>
<!-- Node24 -->
<g id="node24" class="node">
<title>Node24</title>
<g id="a_node24"><a xlink:href="structprotocol_1_1Message.html#aaa08e3b4cc7fe5c56a2075af650f82fe" target="_top" xlink:title="Get the message as a JSON string.">
<polygon fill="none" stroke="black" points="1051.5,-449.67 1051.5,-479.67 1163.5,-479.67 1163.5,-449.67 1051.5,-449.67"/>
<text text-anchor="start" x="1059.5" y="-467.67" font-family="Helvetica,sans-Serif" font-size="10.00">protocol::Message::</text>
<text text-anchor="middle" x="1107.5" y="-456.67" font-family="Helvetica,sans-Serif" font-size="10.00">getJsonString</text>
</a>
</g>
</g>
<!-- Node23&#45;&gt;Node24 -->
<g id="edge29" class="edge">
<title>Node23&#45;&gt;Node24</title>
<path fill="none" stroke="midnightblue" d="M1009.2,-464.67C1019.86,-464.67 1030.7,-464.67 1041.09,-464.67"/>
<polygon fill="midnightblue" stroke="midnightblue" points="1041.3,-468.17 1051.3,-464.67 1041.3,-461.17 1041.3,-468.17"/>
</g>
<!-- Node26 -->
<g id="node26" class="node">
<title>Node26</title>
<g id="a_node26"><a xlink:href="group__ServerModule.html#a2ba563269dbbac1c345bf7363792e5bf" target="_top" xlink:title=" ">
<polygon fill="none" stroke="black" points="1045,-225.67 1045,-255.67 1170,-255.67 1170,-225.67 1045,-225.67"/>
<text text-anchor="start" x="1053" y="-243.67" font-family="Helvetica,sans-Serif" font-size="10.00">sock::TcpSocketServer</text>
<text text-anchor="middle" x="1107.5" y="-232.67" font-family="Helvetica,sans-Serif" font-size="10.00">::send</text>
</a>
</g>
</g>
<!-- Node23&#45;&gt;Node26 -->
<g id="edge31" class="edge">
<title>Node23&#45;&gt;Node26</title>
<path fill="none" stroke="midnightblue" d="M937.11,-455.04C963.26,-421.94 1049.99,-312.18 1088.18,-263.85"/>
<polygon fill="midnightblue" stroke="midnightblue" points="1091.05,-265.86 1094.51,-255.84 1085.56,-261.52 1091.05,-265.86"/>
</g>
<!-- Node25 -->
<g id="node25" class="node">
<title>Node25</title>
<g id="a_node25"><a xlink:href="structprotocol_1_1Message.html#a92361d50bd90c3e2a14a09eb87a82fc8" target="_top" xlink:title="Get the message as a JSON object.">
<polygon fill="none" stroke="black" points="1206,-449.67 1206,-479.67 1318,-479.67 1318,-449.67 1206,-449.67"/>
<text text-anchor="start" x="1214" y="-467.67" font-family="Helvetica,sans-Serif" font-size="10.00">protocol::Message::</text>
<text text-anchor="middle" x="1262" y="-456.67" font-family="Helvetica,sans-Serif" font-size="10.00">getJson</text>
</a>
</g>
</g>
<!-- Node24&#45;&gt;Node25 -->
<g id="edge30" class="edge">
<title>Node24&#45;&gt;Node25</title>
<path fill="none" stroke="midnightblue" d="M1163.56,-464.67C1173.97,-464.67 1184.95,-464.67 1195.64,-464.67"/>
<polygon fill="midnightblue" stroke="midnightblue" points="1195.77,-468.17 1205.77,-464.67 1195.77,-461.17 1195.77,-468.17"/>
</g>
<!-- Node27&#45;&gt;Node21 -->
<g id="edge34" class="edge">
<title>Node27&#45;&gt;Node21</title>
<path fill="none" stroke="midnightblue" d="M575.02,-637.61C582.65,-634.8 590.14,-631.51 597,-627.67 639.68,-603.76 679.64,-562.55 702.28,-536.78"/>
<polygon fill="midnightblue" stroke="midnightblue" points="705.11,-538.85 709,-528.99 699.81,-534.27 705.11,-538.85"/>
</g>
<!-- Node27&#45;&gt;Node22 -->
<g id="edge33" class="edge">
<title>Node27&#45;&gt;Node22</title>
<path fill="none" stroke="midnightblue" d="M582.76,-667.7C646.42,-677.18 739.77,-681.98 812,-647.67 861.87,-623.98 898.11,-567.29 915.64,-534.74"/>
<polygon fill="midnightblue" stroke="midnightblue" points="918.75,-536.34 920.29,-525.86 912.55,-533.1 918.75,-536.34"/>
</g>
<!-- Node27&#45;&gt;Node23 -->
<g id="edge35" class="edge">
<title>Node27&#45;&gt;Node23</title>
<path fill="none" stroke="midnightblue" d="M584.55,-649.59C651.41,-643.11 748.49,-623.97 812,-568.67 842.32,-542.26 817.5,-511.87 848,-485.67 851.08,-483.02 854.45,-480.7 858.02,-478.67"/>
<polygon fill="midnightblue" stroke="midnightblue" points="859.77,-481.72 867.23,-474.2 856.71,-475.42 859.77,-481.72"/>
</g>
<!-- Node28 -->
<g id="node28" class="node">
<title>Node28</title>
<g id="a_node28"><a xlink:href="namespacedata.html#ad7272e7b88e216047b649704df787d95" target="_top" xlink:title=" ">
<polygon fill="none" stroke="black" points="685.5,-700.17 685.5,-719.17 759.5,-719.17 759.5,-700.17 685.5,-700.17"/>
<text text-anchor="middle" x="722.5" y="-707.17" font-family="Helvetica,sans-Serif" font-size="10.00">data::toJson</text>
</a>
</g>
</g>
<!-- Node27&#45;&gt;Node28 -->
<g id="edge36" class="edge">
<title>Node27&#45;&gt;Node28</title>
<path fill="none" stroke="midnightblue" d="M565.85,-667.72C600.19,-676.97 643.65,-688.68 675.91,-697.38"/>
<polygon fill="midnightblue" stroke="midnightblue" points="675.4,-700.87 685.97,-700.09 677.22,-694.11 675.4,-700.87"/>
</g>
<!-- Node29 -->
<g id="node29" class="node">
<title>Node29</title>
<g id="a_node29"><a xlink:href="classdata_1_1Frame.html#a21145c86e25d76061706ea66044139e0" target="_top" xlink:title=" ">
<polygon fill="none" stroke="black" points="873.5,-700.17 873.5,-719.17 983.5,-719.17 983.5,-700.17 873.5,-700.17"/>
<text text-anchor="middle" x="928.5" y="-707.17" font-family="Helvetica,sans-Serif" font-size="10.00">data::Frame::getAll</text>
</a>
</g>
</g>
<!-- Node28&#45;&gt;Node29 -->
<g id="edge37" class="edge">
<title>Node28&#45;&gt;Node29</title>
<path fill="none" stroke="midnightblue" d="M759.5,-709.67C788.11,-709.67 828.86,-709.67 863.06,-709.67"/>
<polygon fill="midnightblue" stroke="midnightblue" points="863.45,-713.17 873.45,-709.67 863.45,-706.17 863.45,-713.17"/>
</g>
<!-- Node30&#45;&gt;Node26 -->
<g id="edge43" class="edge">
<title>Node30&#45;&gt;Node26</title>
<path fill="none" stroke="midnightblue" d="M366.74,-139.63C373.18,-136.85 379.39,-133.56 385,-129.67 407.2,-114.25 396.89,-92.87 421,-80.67 654.43,37.49 782.33,21.99 1009,-108.67 1051.99,-133.44 1081.61,-185.6 1096.16,-216.41"/>
<polygon fill="midnightblue" stroke="midnightblue" points="1093.01,-217.96 1100.35,-225.61 1099.38,-215.06 1093.01,-217.96"/>
</g>
<!-- Node31 -->
<g id="node31" class="node">
<title>Node31</title>
<g id="a_node31"><a xlink:href="namespacegiraffe_1_1file__paths.html#a3505afb97b280e51fa28f95291786efc" target="_top" xlink:title="Returns the path to the gfs image directory.">
<polygon fill="none" stroke="black" points="448.5,-139.67 448.5,-169.67 569.5,-169.67 569.5,-139.67 448.5,-139.67"/>
<text text-anchor="start" x="456.5" y="-157.67" font-family="Helvetica,sans-Serif" font-size="10.00">giraffe::file_paths</text>
<text text-anchor="middle" x="509" y="-146.67" font-family="Helvetica,sans-Serif" font-size="10.00">::getGfsImageDirPath</text>
</a>
</g>
</g>
<!-- Node30&#45;&gt;Node31 -->
<g id="edge39" class="edge">
<title>Node30&#45;&gt;Node31</title>
<path fill="none" stroke="midnightblue" d="M375.27,-154.67C395.94,-154.67 418.1,-154.67 438.28,-154.67"/>
<polygon fill="midnightblue" stroke="midnightblue" points="438.33,-158.17 448.33,-154.67 438.33,-151.17 438.33,-158.17"/>
</g>
<!-- Node34 -->
<g id="node34" class="node">
<title>Node34</title>
<g id="a_node34"><a xlink:href="group__ServerModule.html#a20371784cee1df4f8aa14004d8f7aa2e" target="_top" xlink:title=" ">
<polygon fill="none" stroke="black" points="446.5,-90.67 446.5,-120.67 571.5,-120.67 571.5,-90.67 446.5,-90.67"/>
<text text-anchor="start" x="454.5" y="-108.67" font-family="Helvetica,sans-Serif" font-size="10.00">sock::TcpSocketServer</text>
<text text-anchor="middle" x="509" y="-97.67" font-family="Helvetica,sans-Serif" font-size="10.00">::sendRawData</text>
</a>
</g>
</g>
<!-- Node30&#45;&gt;Node34 -->
<g id="edge44" class="edge">
<title>Node30&#45;&gt;Node34</title>
<path fill="none" stroke="midnightblue" d="M361.74,-139.63C385.38,-134.14 412.24,-127.9 436.44,-122.28"/>
<polygon fill="midnightblue" stroke="midnightblue" points="437.32,-125.67 446.27,-120 435.74,-118.85 437.32,-125.67"/>
</g>
<!-- Node32 -->
<g id="node32" class="node">
<title>Node32</title>
<g id="a_node32"><a xlink:href="namespacegiraffe_1_1file__paths.html#a3cebf8089cfb107e6b610ffc51ea7afa" target="_top" xlink:title="Creates the Giraffe directory if it does not exist. Throws a GiraffeException if it cannot be created...">
<polygon fill="none" stroke="black" points="645.5,-96.67 645.5,-126.67 799.5,-126.67 799.5,-96.67 645.5,-96.67"/>
<text text-anchor="start" x="653.5" y="-114.67" font-family="Helvetica,sans-Serif" font-size="10.00">giraffe::file_paths</text>
<text text-anchor="middle" x="722.5" y="-103.67" font-family="Helvetica,sans-Serif" font-size="10.00">::createGiraffeDirIfNotExists</text>
</a>
</g>
</g>
<!-- Node31&#45;&gt;Node32 -->
<g id="edge40" class="edge">
<title>Node31&#45;&gt;Node32</title>
<path fill="none" stroke="midnightblue" d="M569.76,-142.52C590.83,-138.23 614.92,-133.33 637.61,-128.72"/>
<polygon fill="midnightblue" stroke="midnightblue" points="638.48,-132.12 647.58,-126.69 637.08,-125.26 638.48,-132.12"/>
</g>
<!-- Node33 -->
<g id="node33" class="node">
<title>Node33</title>
<g id="a_node33"><a xlink:href="namespacegiraffe_1_1file__paths.html#a65c87720fa2bacbdc5af2ce04c03ebff" target="_top" xlink:title="Get the Giraffe Directory Path.">
<polygon fill="none" stroke="black" points="860,-118.67 860,-148.67 997,-148.67 997,-118.67 860,-118.67"/>
<text text-anchor="start" x="868" y="-136.67" font-family="Helvetica,sans-Serif" font-size="10.00">giraffe::file_paths</text>
<text text-anchor="middle" x="928.5" y="-125.67" font-family="Helvetica,sans-Serif" font-size="10.00">::getGiraffeDirectoryPath</text>
</a>
</g>
</g>
<!-- Node31&#45;&gt;Node33 -->
<g id="edge42" class="edge">
<title>Node31&#45;&gt;Node33</title>
<path fill="none" stroke="midnightblue" d="M569.82,-151.66C643.44,-147.95 768.64,-141.66 849.68,-137.58"/>
<polygon fill="midnightblue" stroke="midnightblue" points="850.02,-141.07 859.83,-137.07 849.67,-134.08 850.02,-141.07"/>
</g>
<!-- Node32&#45;&gt;Node33 -->
<g id="edge41" class="edge">
<title>Node32&#45;&gt;Node33</title>
<path fill="none" stroke="midnightblue" d="M799.75,-119.89C816.06,-121.65 833.31,-123.51 849.67,-125.27"/>
<polygon fill="midnightblue" stroke="midnightblue" points="849.41,-128.76 859.73,-126.36 850.16,-121.8 849.41,-128.76"/>
</g>
<!-- Node35&#45;&gt;Node22 -->
<g id="edge46" class="edge">
<title>Node35&#45;&gt;Node22</title>
<path fill="none" stroke="midnightblue" d="M790.3,-479.73C809.68,-484.1 831,-488.91 850.93,-493.4"/>
<polygon fill="midnightblue" stroke="midnightblue" points="850.38,-496.86 860.9,-495.65 851.92,-490.03 850.38,-496.86"/>
</g>
<!-- Node35&#45;&gt;Node23 -->
<g id="edge47" class="edge">
<title>Node35&#45;&gt;Node23</title>
<path fill="none" stroke="midnightblue" d="M797.15,-464.67C810.24,-464.67 824.02,-464.67 837.51,-464.67"/>
<polygon fill="midnightblue" stroke="midnightblue" points="837.75,-468.17 847.75,-464.67 837.75,-461.17 837.75,-468.17"/>
</g>
<!-- Node36&#45;&gt;Node21 -->
<g id="edge50" class="edge">
<title>Node36&#45;&gt;Node21</title>
<path fill="none" stroke="midnightblue" d="M563.78,-588.54C575.09,-584.43 586.7,-579.47 597,-573.67 615.14,-563.44 614.83,-553.85 633,-543.67 640.61,-539.4 648.93,-535.61 657.32,-532.27"/>
<polygon fill="midnightblue" stroke="midnightblue" points="658.67,-535.5 666.79,-528.7 656.2,-528.95 658.67,-535.5"/>
</g>
<!-- Node36&#45;&gt;Node22 -->
<g id="edge49" class="edge">
<title>Node36&#45;&gt;Node22</title>
<path fill="none" stroke="midnightblue" d="M590.17,-603.39C652,-601.23 739,-593.91 812,-571.67 842.31,-562.43 873.95,-545.1 896.43,-531.27"/>
<polygon fill="midnightblue" stroke="midnightblue" points="898.57,-534.06 905.17,-525.78 894.84,-528.13 898.57,-534.06"/>
</g>
<!-- Node36&#45;&gt;Node23 -->
<g id="edge51" class="edge">
<title>Node36&#45;&gt;Node23</title>
<path fill="none" stroke="midnightblue" d="M564.61,-588.62C585.88,-582.98 610.5,-576.72 633,-571.67 712.01,-553.91 744.11,-581.8 812,-537.67 835.57,-522.34 824.99,-501.81 848,-485.67 852.2,-482.72 856.79,-480.18 861.58,-478.01"/>
<polygon fill="midnightblue" stroke="midnightblue" points="862.99,-481.21 870.97,-474.24 860.39,-474.71 862.99,-481.21"/>
</g>
<!-- Node37&#45;&gt;Node21 -->
<g id="edge67" class="edge">
<title>Node37&#45;&gt;Node21</title>
<path fill="none" stroke="midnightblue" d="M315.57,-373.29C339.53,-385.49 382.69,-406.73 421,-421.67 513.06,-457.57 538.33,-460.34 633,-488.67 640.92,-491.03 649.25,-493.47 657.5,-495.84"/>
<polygon fill="midnightblue" stroke="midnightblue" points="656.55,-499.21 667.13,-498.59 658.48,-492.48 656.55,-499.21"/>
</g>
<!-- Node37&#45;&gt;Node22 -->
<g id="edge53" class="edge">
<title>Node37&#45;&gt;Node22</title>
<path fill="none" stroke="midnightblue" d="M342.82,-373.2C366.16,-377.89 395.03,-383.43 421,-387.67 507.51,-401.78 735.44,-396.98 812,-439.67 834.07,-451.97 827.24,-469.27 848,-483.67 851.98,-486.43 856.27,-488.93 860.72,-491.19"/>
<polygon fill="midnightblue" stroke="midnightblue" points="859.49,-494.47 870.03,-495.49 862.42,-488.12 859.49,-494.47"/>
</g>
<!-- Node37&#45;&gt;Node23 -->
<g id="edge68" class="edge">
<title>Node37&#45;&gt;Node23</title>
<path fill="none" stroke="midnightblue" d="M306.26,-353.9C325.62,-334.08 372.58,-289.07 421,-265.67 578.74,-189.43 664.34,-121.39 812,-215.67 894.18,-268.13 918.77,-395.78 925.34,-444.93"/>
<polygon fill="midnightblue" stroke="midnightblue" points="921.9,-445.65 926.59,-455.15 928.85,-444.8 921.9,-445.65"/>
</g>
<!-- Node38 -->
<g id="node38" class="node">
<title>Node38</title>
<g id="a_node38"><a xlink:href="structprotocol_1_1Message.html#a0c767f4a41337a482488e705533031aa" target="_top" xlink:title="Get the message body as a JSON object.">
<polygon fill="none" stroke="black" points="666.5,-263.67 666.5,-293.67 778.5,-293.67 778.5,-263.67 666.5,-263.67"/>
<text text-anchor="start" x="674.5" y="-281.67" font-family="Helvetica,sans-Serif" font-size="10.00">protocol::Message::</text>
<text text-anchor="middle" x="722.5" y="-270.67" font-family="Helvetica,sans-Serif" font-size="10.00">getBodyJson</text>
</a>
</g>
</g>
<!-- Node37&#45;&gt;Node38 -->
<g id="edge54" class="edge">
<title>Node37&#45;&gt;Node38</title>
<path fill="none" stroke="midnightblue" d="M308.37,-354.14C329.14,-337.39 375.32,-303.16 421,-289.67 499.49,-266.47 594.54,-267.56 656.43,-271.89"/>
<polygon fill="midnightblue" stroke="midnightblue" points="656.22,-275.38 666.45,-272.64 656.74,-268.4 656.22,-275.38"/>
</g>
<!-- Node39 -->
<g id="node39" class="node">
<title>Node39</title>
<g id="a_node39"><a xlink:href="group__ServerModule.html#a493ddf0161bba462a169e510c5215990" target="_top" xlink:title="A special handler for updating ADC mapping settings.">
<polygon fill="none" stroke="black" points="436,-299.67 436,-329.67 582,-329.67 582,-299.67 436,-299.67"/>
<text text-anchor="start" x="444" y="-317.67" font-family="Helvetica,sans-Serif" font-size="10.00">RequestRouter::handleAdc</text>
<text text-anchor="middle" x="509" y="-306.67" font-family="Helvetica,sans-Serif" font-size="10.00">MappingSettingUpdate</text>
</a>
</g>
</g>
<!-- Node37&#45;&gt;Node39 -->
<g id="edge55" class="edge">
<title>Node37&#45;&gt;Node39</title>
<path fill="none" stroke="midnightblue" d="M337.93,-354.16C364.98,-347.88 401.22,-339.46 433.29,-332.01"/>
<polygon fill="midnightblue" stroke="midnightblue" points="434.15,-335.41 443.1,-329.74 432.57,-328.59 434.15,-335.41"/>
</g>
<!-- Node42 -->
<g id="node42" class="node">
<title>Node42</title>
<g id="a_node42"><a xlink:href="group__ServerModule.html#af41f65e7470ab4490dfa655ead0a7f88" target="_top" xlink:title="A special handler for updating extension settings.">
<polygon fill="none" stroke="black" points="421,-348.67 421,-378.67 597,-378.67 597,-348.67 421,-348.67"/>
<text text-anchor="start" x="429" y="-366.67" font-family="Helvetica,sans-Serif" font-size="10.00">RequestRouter::handleExtension</text>
<text text-anchor="middle" x="509" y="-355.67" font-family="Helvetica,sans-Serif" font-size="10.00">SettingUpdate</text>
</a>
</g>
</g>
<!-- Node37&#45;&gt;Node42 -->
<g id="edge62" class="edge">
<title>Node37&#45;&gt;Node42</title>
<path fill="none" stroke="midnightblue" d="M385.26,-363.67C393.61,-363.67 402.11,-363.67 410.54,-363.67"/>
<polygon fill="midnightblue" stroke="midnightblue" points="410.77,-367.17 420.77,-363.67 410.77,-360.17 410.77,-367.17"/>
</g>
<!-- Node39&#45;&gt;Node21 -->
<g id="edge58" class="edge">
<title>Node39&#45;&gt;Node21</title>
<path fill="none" stroke="midnightblue" d="M582.4,-327.69C587.78,-330.66 592.75,-334.27 597,-338.67 644.66,-387.95 585.49,-439.23 633,-488.67 635.99,-491.77 639.33,-494.5 642.92,-496.9"/>
<polygon fill="midnightblue" stroke="midnightblue" points="641.27,-499.99 651.68,-501.92 644.74,-493.91 641.27,-499.99"/>
</g>
<!-- Node39&#45;&gt;Node38 -->
<g id="edge57" class="edge">
<title>Node39&#45;&gt;Node38</title>
<path fill="none" stroke="midnightblue" d="M582.19,-302.38C606.28,-298.28 632.95,-293.74 656.46,-289.74"/>
<polygon fill="midnightblue" stroke="midnightblue" points="657.05,-293.19 666.32,-288.06 655.88,-286.29 657.05,-293.19"/>
</g>
<!-- Node40 -->
<g id="node40" class="node">
<title>Node40</title>
<g id="a_node40"><a xlink:href="structcfg_1_1AdcConfig.html#a2ec24a4cc5beca9182901c659d223bf8" target="_top" xlink:title=" ">
<polygon fill="none" stroke="black" points="654.5,-225.17 654.5,-244.17 790.5,-244.17 790.5,-225.17 654.5,-225.17"/>
<text text-anchor="middle" x="722.5" y="-232.17" font-family="Helvetica,sans-Serif" font-size="10.00">cfg::AdcConfig::fromJson</text>
</a>
</g>
</g>
<!-- Node39&#45;&gt;Node40 -->
<g id="edge56" class="edge">
<title>Node39&#45;&gt;Node40</title>
<path fill="none" stroke="midnightblue" d="M535.57,-299.62C559.9,-285.89 597.89,-265.92 633,-253.67 640.59,-251.01 648.69,-248.66 656.78,-246.6"/>
<polygon fill="midnightblue" stroke="midnightblue" points="657.72,-249.97 666.62,-244.22 656.08,-243.17 657.72,-249.97"/>
</g>
<!-- Node41 -->
<g id="node41" class="node">
<title>Node41</title>
<g id="a_node41"><a xlink:href="group__ServerModule.html#aa6ff009c15a46c7f5c75ed3110a4f9a3" target="_top" xlink:title="Send a basic success response.">
<polygon fill="none" stroke="black" points="644,-312.67 644,-342.67 801,-342.67 801,-312.67 644,-312.67"/>
<text text-anchor="start" x="652" y="-330.67" font-family="Helvetica,sans-Serif" font-size="10.00">RequestRouter::sendSuccess</text>
<text text-anchor="middle" x="722.5" y="-319.67" font-family="Helvetica,sans-Serif" font-size="10.00">Response</text>
</a>
</g>
</g>
<!-- Node39&#45;&gt;Node41 -->
<g id="edge59" class="edge">
<title>Node39&#45;&gt;Node41</title>
<path fill="none" stroke="midnightblue" d="M582.19,-319.1C598.8,-320.12 616.64,-321.22 633.82,-322.28"/>
<polygon fill="midnightblue" stroke="midnightblue" points="633.65,-325.77 643.85,-322.89 634.08,-318.79 633.65,-325.77"/>
</g>
<!-- Node41&#45;&gt;Node22 -->
<g id="edge60" class="edge">
<title>Node41&#45;&gt;Node22</title>
<path fill="none" stroke="midnightblue" d="M800.74,-342.86C804.82,-345.38 808.62,-348.29 812,-351.67 855.03,-394.63 806.34,-439.37 848,-483.67 850.11,-485.91 852.41,-487.96 854.85,-489.84"/>
<polygon fill="midnightblue" stroke="midnightblue" points="853.38,-493.06 863.67,-495.61 857.22,-487.21 853.38,-493.06"/>
</g>
<!-- Node41&#45;&gt;Node23 -->
<g id="edge61" class="edge">
<title>Node41&#45;&gt;Node23</title>
<path fill="none" stroke="midnightblue" d="M793.01,-342.8C799.62,-345.33 806.06,-348.27 812,-351.67 855.59,-376.6 894.7,-421.92 914.27,-446.92"/>
<polygon fill="midnightblue" stroke="midnightblue" points="911.71,-449.33 920.57,-455.14 917.27,-445.07 911.71,-449.33"/>
</g>
<!-- Node42&#45;&gt;Node21 -->
<g id="edge64" class="edge">
<title>Node42&#45;&gt;Node21</title>
<path fill="none" stroke="midnightblue" d="M533.6,-378.78C552.22,-391.45 578.1,-410.77 597,-431.67 617.1,-453.89 608.99,-470.74 633,-488.67 636.06,-490.95 639.32,-493.02 642.71,-494.91"/>
<polygon fill="midnightblue" stroke="midnightblue" points="641.46,-498.19 651.97,-499.47 644.55,-491.91 641.46,-498.19"/>
</g>
<!-- Node42&#45;&gt;Node38 -->
<g id="edge63" class="edge">
<title>Node42&#45;&gt;Node38</title>
<path fill="none" stroke="midnightblue" d="M576.1,-348.56C583.38,-345.77 590.5,-342.5 597,-338.67 616.49,-327.18 613.42,-314.01 633,-302.67 640.33,-298.42 648.43,-294.9 656.67,-292"/>
<polygon fill="midnightblue" stroke="midnightblue" points="657.93,-295.27 666.37,-288.85 655.77,-288.61 657.93,-295.27"/>
</g>
<!-- Node42&#45;&gt;Node41 -->
<g id="edge65" class="edge">
<title>Node42&#45;&gt;Node41</title>
<path fill="none" stroke="midnightblue" d="M597.25,-348.82C609.34,-346.76 621.76,-344.64 633.86,-342.58"/>
<polygon fill="midnightblue" stroke="midnightblue" points="634.66,-346 643.93,-340.87 633.48,-339.1 634.66,-346"/>
</g>
<!-- Node43 -->
<g id="node43" class="node">
<title>Node43</title>
<g id="a_node43"><a xlink:href="structcfg_1_1ExtensionMetadata.html#a25eef35ae61801373e433443c9a5aa6e" target="_top" xlink:title="Sets the extension metadata from a Json object.">
<polygon fill="none" stroke="black" points="656.5,-361.67 656.5,-391.67 788.5,-391.67 788.5,-361.67 656.5,-361.67"/>
<text text-anchor="start" x="664.5" y="-379.67" font-family="Helvetica,sans-Serif" font-size="10.00">cfg::ExtensionMetadata</text>
<text text-anchor="middle" x="722.5" y="-368.67" font-family="Helvetica,sans-Serif" font-size="10.00">::setFromJson</text>
</a>
</g>
</g>
<!-- Node42&#45;&gt;Node43 -->
<g id="edge66" class="edge">
<title>Node42&#45;&gt;Node43</title>
<path fill="none" stroke="midnightblue" d="M597.25,-369.03C613.49,-370.03 630.33,-371.06 646.18,-372.04"/>
<polygon fill="midnightblue" stroke="midnightblue" points="646.23,-375.55 656.43,-372.67 646.66,-368.56 646.23,-375.55"/>
</g>
</g>
</svg>
