<?xml version="1.0" encoding="UTF-8" standalone="no"?>
<!DOCTYPE svg PUBLIC "-//W3C//DTD SVG 1.1//EN"
 "http://www.w3.org/Graphics/SVG/1.1/DTD/svg11.dtd">
<!-- Generated by graphviz version 2.43.0 (0)
 -->
<!-- Title: data_middleware::DataLog::createLogDir Pages: 1 -->
<svg width="662pt" height="60pt"
 viewBox="0.00 0.00 662.00 60.00" xmlns="http://www.w3.org/2000/svg" xmlns:xlink="http://www.w3.org/1999/xlink">
<g id="graph0" class="graph" transform="scale(1 1) rotate(0) translate(4 56)">
<title>data_middleware::DataLog::createLogDir</title>
<!-- Node1 -->
<g id="Node000001" class="node">
<title>Node1</title>
<g id="a_Node000001"><a xlink:title="Used to create the log directory with createDirectory().">
<polygon fill="#999999" stroke="#666666" points="148,-30 0,-30 0,0 148,0 148,-30"/>
<text text-anchor="start" x="8" y="-18" font-family="Helvetica,sans-Serif" font-size="10.00">data_middleware::DataLog</text>
<text text-anchor="middle" x="74" y="-7" font-family="Helvetica,sans-Serif" font-size="10.00">::createLogDir</text>
</a>
</g>
</g>
<!-- Node2 -->
<g id="Node000002" class="node">
<title>Node2</title>
<g id="a_Node000002"><a xlink:href="namespacegiraffe_1_1file__paths.html#acfd866770216db1b79d6f669b376e5ad" target="_top" xlink:title="Returns the path to the gfs log directory. Creates the directory if it does not exist.">
<polygon fill="white" stroke="#666666" points="291,-30 184,-30 184,0 291,0 291,-30"/>
<text text-anchor="start" x="192" y="-18" font-family="Helvetica,sans-Serif" font-size="10.00">giraffe::file_paths</text>
<text text-anchor="middle" x="237.5" y="-7" font-family="Helvetica,sans-Serif" font-size="10.00">::getGfsLogDirPath</text>
</a>
</g>
</g>
<!-- Node1&#45;&gt;Node2 -->
<g id="edge1_Node000001_Node000002" class="edge">
<title>Node1&#45;&gt;Node2</title>
<g id="a_edge1_Node000001_Node000002"><a xlink:title=" ">
<path fill="none" stroke="#63b8ff" d="M148.19,-15C156.73,-15 165.39,-15 173.78,-15"/>
<polygon fill="#63b8ff" stroke="#63b8ff" points="173.84,-18.5 183.84,-15 173.84,-11.5 173.84,-18.5"/>
</a>
</g>
</g>
<!-- Node3 -->
<g id="Node000003" class="node">
<title>Node3</title>
<g id="a_Node000003"><a xlink:href="namespacegiraffe_1_1file__paths.html#a3cebf8089cfb107e6b610ffc51ea7afa" target="_top" xlink:title="Creates the Giraffe directory if it does not exist. Throws a GiraffeException if it cannot be created...">
<polygon fill="white" stroke="#666666" points="481,-52 327,-52 327,-22 481,-22 481,-52"/>
<text text-anchor="start" x="335" y="-40" font-family="Helvetica,sans-Serif" font-size="10.00">giraffe::file_paths</text>
<text text-anchor="middle" x="404" y="-29" font-family="Helvetica,sans-Serif" font-size="10.00">::createGiraffeDirIfNotExists</text>
</a>
</g>
</g>
<!-- Node2&#45;&gt;Node3 -->
<g id="edge2_Node000002_Node000003" class="edge">
<title>Node2&#45;&gt;Node3</title>
<g id="a_edge2_Node000002_Node000003"><a xlink:title=" ">
<path fill="none" stroke="#63b8ff" d="M291,-22.02C299.27,-23.13 308,-24.29 316.79,-25.47"/>
<polygon fill="#63b8ff" stroke="#63b8ff" points="316.34,-28.94 326.72,-26.8 317.27,-22 316.34,-28.94"/>
</a>
</g>
</g>
<!-- Node4 -->
<g id="Node000004" class="node">
<title>Node4</title>
<g id="a_Node000004"><a xlink:href="namespacegiraffe_1_1file__paths.html#a65c87720fa2bacbdc5af2ce04c03ebff" target="_top" xlink:title="Get the Giraffe Directory Path.">
<polygon fill="white" stroke="#666666" points="654,-30 517,-30 517,0 654,0 654,-30"/>
<text text-anchor="start" x="525" y="-18" font-family="Helvetica,sans-Serif" font-size="10.00">giraffe::file_paths</text>
<text text-anchor="middle" x="585.5" y="-7" font-family="Helvetica,sans-Serif" font-size="10.00">::getGiraffeDirectoryPath</text>
</a>
</g>
</g>
<!-- Node2&#45;&gt;Node4 -->
<g id="edge4_Node000002_Node000004" class="edge">
<title>Node2&#45;&gt;Node4</title>
<g id="a_edge4_Node000002_Node000004"><a xlink:title=" ">
<path fill="none" stroke="#63b8ff" d="M291.38,-13.61C303.11,-13.36 315.47,-13.13 327,-13 395.44,-12.23 412.56,-12.34 481,-13 489.33,-13.08 498.04,-13.2 506.71,-13.33"/>
<polygon fill="#63b8ff" stroke="#63b8ff" points="506.8,-16.84 516.86,-13.5 506.92,-9.84 506.8,-16.84"/>
</a>
</g>
</g>
<!-- Node3&#45;&gt;Node4 -->
<g id="edge3_Node000003_Node000004" class="edge">
<title>Node3&#45;&gt;Node4</title>
<g id="a_edge3_Node000003_Node000004"><a xlink:title=" ">
<path fill="none" stroke="#63b8ff" d="M481.12,-27.67C489.64,-26.63 498.32,-25.56 506.86,-24.52"/>
<polygon fill="#63b8ff" stroke="#63b8ff" points="507.29,-27.99 516.79,-23.3 506.44,-21.04 507.29,-27.99"/>
</a>
</g>
</g>
</g>
</svg>
