<?xml version="1.0" encoding="UTF-8" standalone="no"?>
<!DOCTYPE svg PUBLIC "-//W3C//DTD SVG 1.1//EN"
 "http://www.w3.org/Graphics/SVG/1.1/DTD/svg11.dtd">
<!-- Generated by graphviz version 2.43.0 (0)
 -->
<!-- Title: extension::SamM8q::transitionState Pages: 1 -->
<svg width="458pt" height="134pt"
 viewBox="0.00 0.00 458.00 134.00" xmlns="http://www.w3.org/2000/svg" xmlns:xlink="http://www.w3.org/1999/xlink">
<g id="graph0" class="graph" transform="scale(1 1) rotate(0) translate(4 130)">
<title>extension::SamM8q::transitionState</title>
<!-- Node1 -->
<g id="Node000001" class="node">
<title>Node1</title>
<g id="a_Node000001"><a xlink:title=" ">
<polygon fill="#999999" stroke="#666666" points="450,-78 331,-78 331,-48 450,-48 450,-78"/>
<text text-anchor="start" x="339" y="-66" font-family="Helvetica,sans-Serif" font-size="10.00">extension::SamM8q::</text>
<text text-anchor="middle" x="390.5" y="-55" font-family="Helvetica,sans-Serif" font-size="10.00">transitionState</text>
</a>
</g>
</g>
<!-- Node2 -->
<g id="Node000002" class="node">
<title>Node2</title>
<g id="a_Node000002"><a xlink:href="group__SAMM8QState.html#ga0d1392d5f89b5a24663ab1d47d4f1f15" target="_top" xlink:title=" ">
<polygon fill="white" stroke="#666666" points="295,-126 176,-126 176,-96 295,-96 295,-126"/>
<text text-anchor="start" x="184" y="-114" font-family="Helvetica,sans-Serif" font-size="10.00">extension::SamM8q::</text>
<text text-anchor="middle" x="235.5" y="-103" font-family="Helvetica,sans-Serif" font-size="10.00">stateConfigure</text>
</a>
</g>
</g>
<!-- Node1&#45;&gt;Node2 -->
<g id="edge1_Node000001_Node000002" class="edge">
<title>Node1&#45;&gt;Node2</title>
<g id="a_edge1_Node000001_Node000002"><a xlink:title=" ">
<path fill="none" stroke="#63b8ff" d="M331.91,-81.07C316.22,-85.99 299.4,-91.27 284.32,-96"/>
<polygon fill="#63b8ff" stroke="#63b8ff" points="333.02,-84.39 341.51,-78.06 330.92,-77.71 333.02,-84.39"/>
</a>
</g>
</g>
<!-- Node4 -->
<g id="Node000004" class="node">
<title>Node4</title>
<g id="a_Node000004"><a xlink:href="group__SAMM8QState.html#gab11516e268a094d0dedc47caf5f25a9d" target="_top" xlink:title=" ">
<polygon fill="white" stroke="#666666" points="295,-78 176,-78 176,-48 295,-48 295,-78"/>
<text text-anchor="start" x="184" y="-66" font-family="Helvetica,sans-Serif" font-size="10.00">extension::SamM8q::</text>
<text text-anchor="middle" x="235.5" y="-55" font-family="Helvetica,sans-Serif" font-size="10.00">stateRead</text>
</a>
</g>
</g>
<!-- Node1&#45;&gt;Node4 -->
<g id="edge3_Node000001_Node000004" class="edge">
<title>Node1&#45;&gt;Node4</title>
<g id="a_edge3_Node000001_Node000004"><a xlink:title=" ">
<path fill="none" stroke="#63b8ff" d="M320.51,-63C312.01,-63 303.38,-63 295.06,-63"/>
<polygon fill="#63b8ff" stroke="#63b8ff" points="320.78,-66.5 330.78,-63 320.78,-59.5 320.78,-66.5"/>
</a>
</g>
</g>
<!-- Node5 -->
<g id="Node000005" class="node">
<title>Node5</title>
<g id="a_Node000005"><a xlink:href="group__SAMM8QState.html#ga7c0542f4da8c084fa7b22d632f8e6dba" target="_top" xlink:title=" ">
<polygon fill="white" stroke="#666666" points="295,-30 176,-30 176,0 295,0 295,-30"/>
<text text-anchor="start" x="184" y="-18" font-family="Helvetica,sans-Serif" font-size="10.00">extension::SamM8q::</text>
<text text-anchor="middle" x="235.5" y="-7" font-family="Helvetica,sans-Serif" font-size="10.00">stateReset</text>
</a>
</g>
</g>
<!-- Node1&#45;&gt;Node5 -->
<g id="edge5_Node000001_Node000005" class="edge">
<title>Node1&#45;&gt;Node5</title>
<g id="a_edge5_Node000001_Node000005"><a xlink:title=" ">
<path fill="none" stroke="#63b8ff" d="M331.91,-44.93C316.22,-40.01 299.4,-34.73 284.32,-30"/>
<polygon fill="#63b8ff" stroke="#63b8ff" points="330.92,-48.29 341.51,-47.94 333.02,-41.61 330.92,-48.29"/>
</a>
</g>
</g>
<!-- Node3 -->
<g id="Node000003" class="node">
<title>Node3</title>
<g id="a_Node000003"><a xlink:href="classextension_1_1SamM8q.html#a07c59e7e854347253d743501e8cb5878" target="_top" xlink:title="Contains a simple state machine that will configure, reset, and read data from the sensor....">
<polygon fill="white" stroke="#666666" points="140,-72.5 0,-72.5 0,-53.5 140,-53.5 140,-72.5"/>
<text text-anchor="middle" x="70" y="-60.5" font-family="Helvetica,sans-Serif" font-size="10.00">extension::SamM8q::loop</text>
</a>
</g>
</g>
<!-- Node2&#45;&gt;Node3 -->
<g id="edge2_Node000002_Node000003" class="edge">
<title>Node2&#45;&gt;Node3</title>
<g id="a_edge2_Node000002_Node000003"><a xlink:title=" ">
<path fill="none" stroke="#63b8ff" d="M173.57,-93.11C149.83,-86.14 123.58,-78.44 103.58,-72.56"/>
<polygon fill="#63b8ff" stroke="#63b8ff" points="172.64,-96.49 183.22,-95.94 174.61,-89.77 172.64,-96.49"/>
</a>
</g>
</g>
<!-- Node4&#45;&gt;Node3 -->
<g id="edge4_Node000004_Node000003" class="edge">
<title>Node4&#45;&gt;Node3</title>
<g id="a_edge4_Node000004_Node000003"><a xlink:title=" ">
<path fill="none" stroke="#63b8ff" d="M165.7,-63C157.21,-63 148.52,-63 140.03,-63"/>
<polygon fill="#63b8ff" stroke="#63b8ff" points="165.93,-66.5 175.93,-63 165.93,-59.5 165.93,-66.5"/>
</a>
</g>
</g>
<!-- Node5&#45;&gt;Node3 -->
<g id="edge6_Node000005_Node000003" class="edge">
<title>Node5&#45;&gt;Node3</title>
<g id="a_edge6_Node000005_Node000003"><a xlink:title=" ">
<path fill="none" stroke="#63b8ff" d="M173.57,-32.89C149.83,-39.86 123.58,-47.56 103.58,-53.44"/>
<polygon fill="#63b8ff" stroke="#63b8ff" points="174.61,-36.23 183.22,-30.06 172.64,-29.51 174.61,-36.23"/>
</a>
</g>
</g>
</g>
</svg>
