<?xml version="1.0" encoding="UTF-8" standalone="no"?>
<!DOCTYPE svg PUBLIC "-//W3C//DTD SVG 1.1//EN"
 "http://www.w3.org/Graphics/SVG/1.1/DTD/svg11.dtd">
<!-- Generated by graphviz version 2.43.0 (0)
 -->
<!-- Title: RequestRouter::sendSuccessResponse Pages: 1 -->
<svg width="798pt" height="88pt"
 viewBox="0.00 0.00 798.00 88.00" xmlns="http://www.w3.org/2000/svg" xmlns:xlink="http://www.w3.org/1999/xlink">
<g id="graph0" class="graph" transform="scale(1 1) rotate(0) translate(4 84)">
<title>RequestRouter::sendSuccessResponse</title>
<!-- Node1 -->
<g id="node1" class="node">
<title>Node1</title>
<g id="a_node1"><a xlink:title="Send a basic success response.">
<polygon fill="#bfbfbf" stroke="black" points="633,-24.5 633,-54.5 790,-54.5 790,-24.5 633,-24.5"/>
<text text-anchor="start" x="641" y="-42.5" font-family="Helvetica,sans-Serif" font-size="10.00">RequestRouter::sendSuccess</text>
<text text-anchor="middle" x="711.5" y="-31.5" font-family="Helvetica,sans-Serif" font-size="10.00">Response</text>
</a>
</g>
</g>
<!-- Node2 -->
<g id="node2" class="node">
<title>Node2</title>
<g id="a_node2"><a xlink:href="group__ServerModule.html#a493ddf0161bba462a169e510c5215990" target="_top" xlink:title="A special handler for updating ADC mapping settings.">
<polygon fill="none" stroke="black" points="436,-49.5 436,-79.5 582,-79.5 582,-49.5 436,-49.5"/>
<text text-anchor="start" x="444" y="-67.5" font-family="Helvetica,sans-Serif" font-size="10.00">RequestRouter::handleAdc</text>
<text text-anchor="middle" x="509" y="-56.5" font-family="Helvetica,sans-Serif" font-size="10.00">MappingSettingUpdate</text>
</a>
</g>
</g>
<!-- Node1&#45;&gt;Node2 -->
<g id="edge1" class="edge">
<title>Node1&#45;&gt;Node2</title>
<path fill="none" stroke="midnightblue" d="M622.68,-50.45C609.11,-52.14 595.23,-53.87 582.06,-55.52"/>
<polygon fill="midnightblue" stroke="midnightblue" points="623.49,-53.88 632.98,-49.17 622.63,-46.93 623.49,-53.88"/>
</g>
<!-- Node5 -->
<g id="node5" class="node">
<title>Node5</title>
<g id="a_node5"><a xlink:href="group__ServerModule.html#af41f65e7470ab4490dfa655ead0a7f88" target="_top" xlink:title="A special handler for updating extension settings.">
<polygon fill="none" stroke="black" points="421,-0.5 421,-30.5 597,-30.5 597,-0.5 421,-0.5"/>
<text text-anchor="start" x="429" y="-18.5" font-family="Helvetica,sans-Serif" font-size="10.00">RequestRouter::handleExtension</text>
<text text-anchor="middle" x="509" y="-7.5" font-family="Helvetica,sans-Serif" font-size="10.00">SettingUpdate</text>
</a>
</g>
</g>
<!-- Node1&#45;&gt;Node5 -->
<g id="edge4" class="edge">
<title>Node1&#45;&gt;Node5</title>
<path fill="none" stroke="midnightblue" d="M623.04,-29.03C614.51,-28.01 605.85,-26.97 597.32,-25.95"/>
<polygon fill="midnightblue" stroke="midnightblue" points="622.64,-32.51 632.98,-30.22 623.47,-25.56 622.64,-32.51"/>
</g>
<!-- Node3 -->
<g id="node3" class="node">
<title>Node3</title>
<g id="a_node3"><a xlink:href="group__ServerModule.html#a1d58bc2e5fc57191959bc60a89b61ec5" target="_top" xlink:title="This function handles a setting SET request. It will attempt to set the configuration with the value ...">
<polygon fill="none" stroke="black" points="207,-30 207,-49 385,-49 385,-30 207,-30"/>
<text text-anchor="middle" x="296" y="-37" font-family="Helvetica,sans-Serif" font-size="10.00">RequestRouter::handleSettingSet</text>
</a>
</g>
</g>
<!-- Node2&#45;&gt;Node3 -->
<g id="edge2" class="edge">
<title>Node2&#45;&gt;Node3</title>
<path fill="none" stroke="midnightblue" d="M425.67,-54.75C409.8,-52.86 393.2,-50.9 377.39,-49.02"/>
<polygon fill="midnightblue" stroke="midnightblue" points="425.63,-58.27 435.98,-55.97 426.46,-51.31 425.63,-58.27"/>
</g>
<!-- Node4 -->
<g id="node4" class="node">
<title>Node4</title>
<g id="a_node4"><a xlink:href="group__ServerModule.html#ad77e0ae3d2cd0daba1388e7d7ffa1393" target="_top" xlink:title="This function is responsible for parsing a request and routing it to the right place.">
<polygon fill="none" stroke="black" points="0,-30 0,-49 171,-49 171,-30 0,-30"/>
<text text-anchor="middle" x="85.5" y="-37" font-family="Helvetica,sans-Serif" font-size="10.00">RequestRouter::handleMessage</text>
</a>
</g>
</g>
<!-- Node3&#45;&gt;Node4 -->
<g id="edge3" class="edge">
<title>Node3&#45;&gt;Node4</title>
<path fill="none" stroke="midnightblue" d="M196.61,-39.5C188.15,-39.5 179.65,-39.5 171.31,-39.5"/>
<polygon fill="midnightblue" stroke="midnightblue" points="196.88,-43 206.88,-39.5 196.88,-36 196.88,-43"/>
</g>
<!-- Node5&#45;&gt;Node3 -->
<g id="edge5" class="edge">
<title>Node5&#45;&gt;Node3</title>
<path fill="none" stroke="midnightblue" d="M410.94,-26.54C400.87,-27.69 390.69,-28.84 380.78,-29.97"/>
<polygon fill="midnightblue" stroke="midnightblue" points="411.42,-30.01 420.96,-25.4 410.63,-23.05 411.42,-30.01"/>
</g>
</g>
</svg>
