<?xml version="1.0" encoding="UTF-8" standalone="no"?>
<!DOCTYPE svg PUBLIC "-//W3C//DTD SVG 1.1//EN"
 "http://www.w3.org/Graphics/SVG/1.1/DTD/svg11.dtd">
<!-- Generated by graphviz version 2.43.0 (0)
 -->
<!-- Title: RequestRouter::handleMessage Pages: 1 -->
<svg width="1149pt" height="606pt"
 viewBox="0.00 0.00 1149.00 605.50" xmlns="http://www.w3.org/2000/svg" xmlns:xlink="http://www.w3.org/1999/xlink">
<g id="graph0" class="graph" transform="scale(1 1) rotate(0) translate(4 601.5)">
<title>RequestRouter::handleMessage</title>
<!-- Node1 -->
<g id="node1" class="node">
<title>Node1</title>
<g id="a_node1"><a xlink:title="This function is responsible for parsing a request and routing it to the right place.">
<polygon fill="#bfbfbf" stroke="black" points="0,-115.5 0,-134.5 171,-134.5 171,-115.5 0,-115.5"/>
<text text-anchor="middle" x="85.5" y="-122.5" font-family="Helvetica,sans-Serif" font-size="10.00">RequestRouter::handleMessage</text>
</a>
</g>
</g>
<!-- Node2 -->
<g id="node2" class="node">
<title>Node2</title>
<g id="a_node2"><a xlink:href="group__ServerModule.html#a959bc2e0cb68a835d4304e1204f64c69" target="_top" xlink:title="This function parses a command request, sends it to the command queue and sends a simple response bac...">
<polygon fill="none" stroke="black" points="207,-300 207,-330 385,-330 385,-300 207,-300"/>
<text text-anchor="start" x="215" y="-318" font-family="Helvetica,sans-Serif" font-size="10.00">RequestRouter::handleCommand</text>
<text text-anchor="middle" x="296" y="-307" font-family="Helvetica,sans-Serif" font-size="10.00">Request</text>
</a>
</g>
</g>
<!-- Node1&#45;&gt;Node2 -->
<g id="edge1" class="edge">
<title>Node1&#45;&gt;Node2</title>
<path fill="none" stroke="midnightblue" d="M97.13,-134.68C129.14,-163.86 225.28,-251.46 270.71,-292.86"/>
<polygon fill="midnightblue" stroke="midnightblue" points="268.57,-295.65 278.32,-299.8 273.28,-290.48 268.57,-295.65"/>
</g>
<!-- Node18 -->
<g id="node18" class="node">
<title>Node18</title>
<g id="a_node18"><a xlink:href="group__ServerModule.html#a2916b1b7b4bd1572c6629ddb748d2dd5" target="_top" xlink:title="This function is the generic error response function.">
<polygon fill="none" stroke="black" points="425,-178 425,-208 566,-208 566,-178 425,-178"/>
<text text-anchor="start" x="433" y="-196" font-family="Helvetica,sans-Serif" font-size="10.00">RequestRouter::sendError</text>
<text text-anchor="middle" x="495.5" y="-185" font-family="Helvetica,sans-Serif" font-size="10.00">Packet</text>
</a>
</g>
</g>
<!-- Node1&#45;&gt;Node18 -->
<g id="edge36" class="edge">
<title>Node1&#45;&gt;Node18</title>
<path fill="none" stroke="midnightblue" d="M134.51,-134.55C156.57,-138.83 183.08,-143.85 207,-148 277.08,-160.17 357.04,-172.56 414.81,-181.26"/>
<polygon fill="midnightblue" stroke="midnightblue" points="414.56,-184.76 424.97,-182.78 415.6,-177.84 414.56,-184.76"/>
</g>
<!-- Node24 -->
<g id="node24" class="node">
<title>Node24</title>
<g id="a_node24"><a xlink:href="group__ServerModule.html#ac2e5e15f3607c998351f3b2981b1f540" target="_top" xlink:title="This function responds to data requests.">
<polygon fill="none" stroke="black" points="220.5,-39 220.5,-69 371.5,-69 371.5,-39 220.5,-39"/>
<text text-anchor="start" x="228.5" y="-57" font-family="Helvetica,sans-Serif" font-size="10.00">RequestRouter::handleData</text>
<text text-anchor="middle" x="296" y="-46" font-family="Helvetica,sans-Serif" font-size="10.00">Request</text>
</a>
</g>
</g>
<!-- Node1&#45;&gt;Node24 -->
<g id="edge26" class="edge">
<title>Node1&#45;&gt;Node24</title>
<path fill="none" stroke="midnightblue" d="M108.89,-115.44C132.9,-105.4 172.25,-89.48 207,-78 213.36,-75.9 220.03,-73.83 226.72,-71.85"/>
<polygon fill="midnightblue" stroke="midnightblue" points="227.89,-75.16 236.52,-69.02 225.94,-68.44 227.89,-75.16"/>
</g>
<!-- Node27 -->
<g id="node27" class="node">
<title>Node27</title>
<g id="a_node27"><a xlink:href="group__ServerModule.html#aa4ad8544dc8431ede7414c834a8a9257" target="_top" xlink:title="This function responds to a ping request.">
<polygon fill="none" stroke="black" points="421,-129 421,-159 570,-159 570,-129 421,-129"/>
<text text-anchor="start" x="429" y="-147" font-family="Helvetica,sans-Serif" font-size="10.00">RequestRouter::handlePing</text>
<text text-anchor="middle" x="495.5" y="-136" font-family="Helvetica,sans-Serif" font-size="10.00">Request</text>
</a>
</g>
</g>
<!-- Node1&#45;&gt;Node27 -->
<g id="edge30" class="edge">
<title>Node1&#45;&gt;Node27</title>
<path fill="none" stroke="midnightblue" d="M171.04,-128.94C241.23,-132.21 340.55,-136.83 410.57,-140.09"/>
<polygon fill="midnightblue" stroke="midnightblue" points="410.53,-143.59 420.68,-140.56 410.85,-136.6 410.53,-143.59"/>
</g>
<!-- Node28 -->
<g id="node28" class="node">
<title>Node28</title>
<g id="a_node28"><a xlink:href="group__ServerModule.html#ae84c028fe967e32b38178284373244a0" target="_top" xlink:title="This function responds to a setting request.">
<polygon fill="none" stroke="black" points="215,-88 215,-118 377,-118 377,-88 215,-88"/>
<text text-anchor="start" x="223" y="-106" font-family="Helvetica,sans-Serif" font-size="10.00">RequestRouter::handleSetting</text>
<text text-anchor="middle" x="296" y="-95" font-family="Helvetica,sans-Serif" font-size="10.00">Request</text>
</a>
</g>
</g>
<!-- Node1&#45;&gt;Node28 -->
<g id="edge33" class="edge">
<title>Node1&#45;&gt;Node28</title>
<path fill="none" stroke="midnightblue" d="M171,-116.08C182.07,-114.92 193.44,-113.72 204.59,-112.54"/>
<polygon fill="midnightblue" stroke="midnightblue" points="205.18,-116 214.76,-111.47 204.45,-109.04 205.18,-116"/>
</g>
<!-- Node29 -->
<g id="node29" class="node">
<title>Node29</title>
<g id="a_node29"><a xlink:href="namespaceprotocol.html#ac6314a5d8075e25c09e5381ff1c4ca24" target="_top" xlink:title="Parse a JSON string into a Message.">
<polygon fill="none" stroke="black" points="229.5,-0.5 229.5,-19.5 362.5,-19.5 362.5,-0.5 229.5,-0.5"/>
<text text-anchor="middle" x="296" y="-7.5" font-family="Helvetica,sans-Serif" font-size="10.00">protocol::parseMessage</text>
</a>
</g>
</g>
<!-- Node1&#45;&gt;Node29 -->
<g id="edge35" class="edge">
<title>Node1&#45;&gt;Node29</title>
<path fill="none" stroke="midnightblue" d="M95.45,-115.35C114.16,-95.8 159.63,-51.46 207,-29 212.25,-26.51 217.83,-24.35 223.53,-22.46"/>
<polygon fill="midnightblue" stroke="midnightblue" points="224.64,-25.78 233.21,-19.55 222.62,-19.08 224.64,-25.78"/>
</g>
<!-- Node3 -->
<g id="node3" class="node">
<title>Node3</title>
<g id="a_node3"><a xlink:href="classdata_1_1CommandStream.html#aeacbc84ac96a098ef5836fcbd5187be8" target="_top" xlink:title=" ">
<polygon fill="none" stroke="black" points="430.5,-567 430.5,-597 560.5,-597 560.5,-567 430.5,-567"/>
<text text-anchor="start" x="438.5" y="-585" font-family="Helvetica,sans-Serif" font-size="10.00">data::CommandStream</text>
<text text-anchor="middle" x="495.5" y="-574" font-family="Helvetica,sans-Serif" font-size="10.00">::addCommand</text>
</a>
</g>
</g>
<!-- Node2&#45;&gt;Node3 -->
<g id="edge2" class="edge">
<title>Node2&#45;&gt;Node3</title>
<path fill="none" stroke="midnightblue" d="M303.84,-330.2C320.45,-366.11 365.65,-457.99 421,-522 433.49,-536.45 449.74,-550.11 463.79,-560.74"/>
<polygon fill="midnightblue" stroke="midnightblue" points="462.07,-563.83 472.19,-566.95 466.23,-558.2 462.07,-563.83"/>
</g>
<!-- Node5 -->
<g id="node5" class="node">
<title>Node5</title>
<g id="a_node5"><a xlink:href="classdata_1_1LogStream.html#a18af3025ca8f1e60e5bd795f10b6c8b1" target="_top" xlink:title=" ">
<polygon fill="none" stroke="black" points="432.5,-493.5 432.5,-512.5 558.5,-512.5 558.5,-493.5 432.5,-493.5"/>
<text text-anchor="middle" x="495.5" y="-500.5" font-family="Helvetica,sans-Serif" font-size="10.00">data::LogStream::error</text>
</a>
</g>
</g>
<!-- Node2&#45;&gt;Node5 -->
<g id="edge4" class="edge">
<title>Node2&#45;&gt;Node5</title>
<path fill="none" stroke="midnightblue" d="M312.83,-330.07C349.23,-364.72 438.7,-449.88 476.83,-486.18"/>
<polygon fill="midnightblue" stroke="midnightblue" points="474.49,-488.78 484.15,-493.14 479.32,-483.71 474.49,-488.78"/>
</g>
<!-- Node8 -->
<g id="node8" class="node">
<title>Node8</title>
<g id="a_node8"><a xlink:href="namespacecmd.html#a72f52f6e6e21f8264af9efef6b5afb74" target="_top" xlink:title="Parses a command string into a command object.">
<polygon fill="none" stroke="black" points="421,-305.5 421,-324.5 570,-324.5 570,-305.5 421,-305.5"/>
<text text-anchor="middle" x="495.5" y="-312.5" font-family="Helvetica,sans-Serif" font-size="10.00">cmd::parseCommandString</text>
</a>
</g>
</g>
<!-- Node2&#45;&gt;Node8 -->
<g id="edge10" class="edge">
<title>Node2&#45;&gt;Node8</title>
<path fill="none" stroke="midnightblue" d="M385.06,-315C393.55,-315 402.14,-315 410.58,-315"/>
<polygon fill="midnightblue" stroke="midnightblue" points="410.79,-318.5 420.78,-315 410.78,-311.5 410.79,-318.5"/>
</g>
<!-- Node2&#45;&gt;Node18 -->
<g id="edge20" class="edge">
<title>Node2&#45;&gt;Node18</title>
<path fill="none" stroke="midnightblue" d="M321.61,-299.8C356.84,-278.03 421.74,-237.95 461.22,-213.56"/>
<polygon fill="midnightblue" stroke="midnightblue" points="463.53,-216.25 470.2,-208.01 459.85,-210.29 463.53,-216.25"/>
</g>
<!-- Node4 -->
<g id="node4" class="node">
<title>Node4</title>
<g id="a_node4"><a xlink:href="classdata_1_1Stream.html#a1ff9a93190dbecdc2ffa27deaaa4266a" target="_top" xlink:title=" ">
<polygon fill="none" stroke="black" points="820,-547 820,-577 993,-577 993,-547 820,-547"/>
<text text-anchor="start" x="828" y="-565" font-family="Helvetica,sans-Serif" font-size="10.00">data::Stream&lt; CommandPacket</text>
<text text-anchor="middle" x="906.5" y="-554" font-family="Helvetica,sans-Serif" font-size="10.00"> &gt;::addPacket</text>
</a>
</g>
</g>
<!-- Node3&#45;&gt;Node4 -->
<g id="edge3" class="edge">
<title>Node3&#45;&gt;Node4</title>
<path fill="none" stroke="midnightblue" d="M560.52,-582.38C618.83,-582.32 707.29,-581.21 784,-576 792.37,-575.43 801.06,-574.7 809.76,-573.88"/>
<polygon fill="midnightblue" stroke="midnightblue" points="810.35,-577.34 819.96,-572.88 809.67,-570.37 810.35,-577.34"/>
</g>
<!-- Node5&#45;&gt;Node4 -->
<g id="edge5" class="edge">
<title>Node5&#45;&gt;Node4</title>
<path fill="none" stroke="midnightblue" d="M517.37,-512.67C539.02,-522.21 574.11,-536.31 606,-543 673.12,-557.08 750.4,-561.71 809.65,-562.87"/>
<polygon fill="midnightblue" stroke="midnightblue" points="809.69,-566.38 819.75,-563.04 809.81,-559.38 809.69,-566.38"/>
</g>
<!-- Node6 -->
<g id="node6" class="node">
<title>Node6</title>
<g id="a_node6"><a xlink:href="classdata_1_1LogStream.html#a02c18d6e5c9697b4943ba9fb630ca0c9" target="_top" xlink:title=" ">
<polygon fill="none" stroke="black" points="634,-514.5 634,-533.5 756,-533.5 756,-514.5 634,-514.5"/>
<text text-anchor="middle" x="695" y="-521.5" font-family="Helvetica,sans-Serif" font-size="10.00">data::LogStream::info</text>
</a>
</g>
</g>
<!-- Node5&#45;&gt;Node6 -->
<g id="edge6" class="edge">
<title>Node5&#45;&gt;Node6</title>
<path fill="none" stroke="midnightblue" d="M558.72,-509.62C579.32,-511.81 602.39,-514.26 623.56,-516.51"/>
<polygon fill="midnightblue" stroke="midnightblue" points="623.47,-520.02 633.78,-517.6 624.21,-513.06 623.47,-520.02"/>
</g>
<!-- Node7 -->
<g id="node7" class="node">
<title>Node7</title>
<g id="a_node7"><a xlink:href="structdata_1_1BaseStreamPacket.html#a140b2f54f93715d9229e1847bc1219b2" target="_top" xlink:title=" ">
<polygon fill="none" stroke="black" points="839,-484 839,-514 974,-514 974,-484 839,-484"/>
<text text-anchor="start" x="847" y="-502" font-family="Helvetica,sans-Serif" font-size="10.00">data::BaseStreamPacket</text>
<text text-anchor="middle" x="906.5" y="-491" font-family="Helvetica,sans-Serif" font-size="10.00">::resetTime</text>
</a>
</g>
</g>
<!-- Node5&#45;&gt;Node7 -->
<g id="edge9" class="edge">
<title>Node5&#45;&gt;Node7</title>
<path fill="none" stroke="midnightblue" d="M558.62,-502.39C630.91,-501.69 750.31,-500.52 828.45,-499.75"/>
<polygon fill="midnightblue" stroke="midnightblue" points="828.75,-503.25 838.71,-499.65 828.68,-496.25 828.75,-503.25"/>
</g>
<!-- Node6&#45;&gt;Node4 -->
<g id="edge7" class="edge">
<title>Node6&#45;&gt;Node4</title>
<path fill="none" stroke="midnightblue" d="M748.6,-533.54C768.04,-537.07 790.7,-541.18 812.66,-545.16"/>
<polygon fill="midnightblue" stroke="midnightblue" points="812.22,-548.64 822.69,-546.98 813.47,-541.75 812.22,-548.64"/>
</g>
<!-- Node6&#45;&gt;Node7 -->
<g id="edge8" class="edge">
<title>Node6&#45;&gt;Node7</title>
<path fill="none" stroke="midnightblue" d="M756.03,-516.84C778.68,-514.13 804.75,-511.02 828.71,-508.16"/>
<polygon fill="midnightblue" stroke="midnightblue" points="829.32,-511.62 838.84,-506.95 828.49,-504.66 829.32,-511.62"/>
</g>
<!-- Node9 -->
<g id="node9" class="node">
<title>Node9</title>
<g id="a_node9"><a xlink:href="command__processor_8cpp.html#a2d173b5fffc1c8b756aaf2a701db8dd0" target="_top" xlink:title=" ">
<polygon fill="none" stroke="black" points="615.5,-286.5 615.5,-305.5 774.5,-305.5 774.5,-286.5 615.5,-286.5"/>
<text text-anchor="middle" x="695" y="-293.5" font-family="Helvetica,sans-Serif" font-size="10.00">parseConfigurationCommand</text>
</a>
</g>
</g>
<!-- Node8&#45;&gt;Node9 -->
<g id="edge11" class="edge">
<title>Node8&#45;&gt;Node9</title>
<path fill="none" stroke="midnightblue" d="M570.04,-307.93C581.49,-306.82 593.43,-305.68 605.18,-304.55"/>
<polygon fill="midnightblue" stroke="midnightblue" points="605.81,-308 615.43,-303.56 605.14,-301.03 605.81,-308"/>
</g>
<!-- Node10 -->
<g id="node10" class="node">
<title>Node10</title>
<g id="a_node10"><a xlink:href="command__processor_8cpp.html#ad1d8be34ae493715509b48acb62f4533" target="_top" xlink:title=" ">
<polygon fill="none" stroke="black" points="610.5,-248.5 610.5,-267.5 779.5,-267.5 779.5,-248.5 610.5,-248.5"/>
<text text-anchor="middle" x="695" y="-255.5" font-family="Helvetica,sans-Serif" font-size="10.00">parseConsoleModuleCommand</text>
</a>
</g>
</g>
<!-- Node8&#45;&gt;Node10 -->
<g id="edge12" class="edge">
<title>Node8&#45;&gt;Node10</title>
<path fill="none" stroke="midnightblue" d="M521.45,-305.37C543.47,-297.11 576.55,-285.26 606,-277 615.27,-274.4 625.18,-271.95 634.87,-269.73"/>
<polygon fill="midnightblue" stroke="midnightblue" points="635.87,-273.1 644.87,-267.51 634.34,-266.26 635.87,-273.1"/>
</g>
<!-- Node11 -->
<g id="node11" class="node">
<title>Node11</title>
<g id="a_node11"><a xlink:href="command__processor_8cpp.html#a9106bfe97edd99b106962339800e17bf" target="_top" xlink:title=" ">
<polygon fill="none" stroke="black" points="618.5,-172.5 618.5,-191.5 771.5,-191.5 771.5,-172.5 618.5,-172.5"/>
<text text-anchor="middle" x="695" y="-179.5" font-family="Helvetica,sans-Serif" font-size="10.00">parseDataModuleCommand</text>
</a>
</g>
</g>
<!-- Node8&#45;&gt;Node11 -->
<g id="edge13" class="edge">
<title>Node8&#45;&gt;Node11</title>
<path fill="none" stroke="midnightblue" d="M502.82,-305.2C517.8,-282.83 557.83,-227.88 606,-201 610.13,-198.69 614.52,-196.67 619.04,-194.89"/>
<polygon fill="midnightblue" stroke="midnightblue" points="620.21,-198.19 628.48,-191.56 617.88,-191.58 620.21,-198.19"/>
</g>
<!-- Node13 -->
<g id="node13" class="node">
<title>Node13</title>
<g id="a_node13"><a xlink:href="command__processor_8cpp.html#a22b7c20a37b3536428bb6f3cfc906076" target="_top" xlink:title=" ">
<polygon fill="none" stroke="black" points="624,-210.5 624,-229.5 766,-229.5 766,-210.5 624,-210.5"/>
<text text-anchor="middle" x="695" y="-217.5" font-family="Helvetica,sans-Serif" font-size="10.00">parseExtensionCommand</text>
</a>
</g>
</g>
<!-- Node8&#45;&gt;Node13 -->
<g id="edge15" class="edge">
<title>Node8&#45;&gt;Node13</title>
<path fill="none" stroke="midnightblue" d="M507.13,-305.43C525.75,-289.19 566.1,-256.33 606,-239 611.83,-236.47 618.03,-234.26 624.34,-232.34"/>
<polygon fill="midnightblue" stroke="midnightblue" points="625.61,-235.62 634.3,-229.55 623.72,-228.87 625.61,-235.62"/>
</g>
<!-- Node14 -->
<g id="node14" class="node">
<title>Node14</title>
<g id="a_node14"><a xlink:href="command__processor_8cpp.html#ad0fa213670534c75ad5b96cd908d4c81" target="_top" xlink:title=" ">
<polygon fill="none" stroke="black" points="606,-438.5 606,-457.5 784,-457.5 784,-438.5 606,-438.5"/>
<text text-anchor="middle" x="695" y="-445.5" font-family="Helvetica,sans-Serif" font-size="10.00">parseExtensionModuleCommand</text>
</a>
</g>
</g>
<!-- Node8&#45;&gt;Node14 -->
<g id="edge16" class="edge">
<title>Node8&#45;&gt;Node14</title>
<path fill="none" stroke="midnightblue" d="M502.82,-324.8C517.8,-347.17 557.83,-402.12 606,-429 610.13,-431.31 614.52,-433.33 619.04,-435.11"/>
<polygon fill="midnightblue" stroke="midnightblue" points="617.88,-438.42 628.48,-438.44 620.21,-431.81 617.88,-438.42"/>
</g>
<!-- Node15 -->
<g id="node15" class="node">
<title>Node15</title>
<g id="a_node15"><a xlink:href="command__processor_8cpp.html#a7652d53c747bc618ecacff1b43b94a72" target="_top" xlink:title=" ">
<polygon fill="none" stroke="black" points="617,-400.5 617,-419.5 773,-419.5 773,-400.5 617,-400.5"/>
<text text-anchor="middle" x="695" y="-407.5" font-family="Helvetica,sans-Serif" font-size="10.00">parseFlightRunnerCommand</text>
</a>
</g>
</g>
<!-- Node8&#45;&gt;Node15 -->
<g id="edge17" class="edge">
<title>Node8&#45;&gt;Node15</title>
<path fill="none" stroke="midnightblue" d="M507.13,-324.57C525.75,-340.81 566.1,-373.67 606,-391 611.83,-393.53 618.03,-395.74 624.34,-397.66"/>
<polygon fill="midnightblue" stroke="midnightblue" points="623.72,-401.13 634.3,-400.45 625.61,-394.38 623.72,-401.13"/>
</g>
<!-- Node16 -->
<g id="node16" class="node">
<title>Node16</title>
<g id="a_node16"><a xlink:href="command__processor_8cpp.html#aa395b626abbd00953e3753ff9d64917e" target="_top" xlink:title=" ">
<polygon fill="none" stroke="black" points="614.5,-362.5 614.5,-381.5 775.5,-381.5 775.5,-362.5 614.5,-362.5"/>
<text text-anchor="middle" x="695" y="-369.5" font-family="Helvetica,sans-Serif" font-size="10.00">parseServerModuleCommand</text>
</a>
</g>
</g>
<!-- Node8&#45;&gt;Node16 -->
<g id="edge18" class="edge">
<title>Node8&#45;&gt;Node16</title>
<path fill="none" stroke="midnightblue" d="M521.45,-324.63C543.47,-332.89 576.55,-344.74 606,-353 615.27,-355.6 625.18,-358.05 634.87,-360.27"/>
<polygon fill="midnightblue" stroke="midnightblue" points="634.34,-363.74 644.87,-362.49 635.87,-356.9 634.34,-363.74"/>
</g>
<!-- Node17 -->
<g id="node17" class="node">
<title>Node17</title>
<g id="a_node17"><a xlink:href="command__processor_8cpp.html#acfe1b39a13cbda474fb3a8a6811f23ec" target="_top" xlink:title=" ">
<polygon fill="none" stroke="black" points="611.5,-324.5 611.5,-343.5 778.5,-343.5 778.5,-324.5 611.5,-324.5"/>
<text text-anchor="middle" x="695" y="-331.5" font-family="Helvetica,sans-Serif" font-size="10.00">parseSystemModuleCommand</text>
</a>
</g>
</g>
<!-- Node8&#45;&gt;Node17 -->
<g id="edge19" class="edge">
<title>Node8&#45;&gt;Node17</title>
<path fill="none" stroke="midnightblue" d="M570.04,-322.07C580.26,-323.06 590.87,-324.08 601.39,-325.09"/>
<polygon fill="midnightblue" stroke="midnightblue" points="601.14,-328.58 611.43,-326.06 601.81,-321.61 601.14,-328.58"/>
</g>
<!-- Node12 -->
<g id="node12" class="node">
<title>Node12</title>
<g id="a_node12"><a xlink:href="command__processor_8cpp.html#af66cd87ab8d3892cf773fdea7899f953" target="_top" xlink:title="Returns the value of a hex string as a uint32_t.">
<polygon fill="none" stroke="black" points="853.5,-178.5 853.5,-197.5 959.5,-197.5 959.5,-178.5 853.5,-178.5"/>
<text text-anchor="middle" x="906.5" y="-185.5" font-family="Helvetica,sans-Serif" font-size="10.00">hexStringToUInt32</text>
</a>
</g>
</g>
<!-- Node11&#45;&gt;Node12 -->
<g id="edge14" class="edge">
<title>Node11&#45;&gt;Node12</title>
<path fill="none" stroke="midnightblue" d="M771.63,-184.17C795.11,-184.84 820.71,-185.57 843.18,-186.22"/>
<polygon fill="midnightblue" stroke="midnightblue" points="843.16,-189.72 853.26,-186.5 843.36,-182.72 843.16,-189.72"/>
</g>
<!-- Node19 -->
<g id="node19" class="node">
<title>Node19</title>
<g id="a_node19"><a xlink:href="namespaceprotocol.html#a50f3dfb09a6b5add5339c1877f408bae" target="_top" xlink:title="Create a Response Message.">
<polygon fill="none" stroke="black" points="625,-85 625,-115 765,-115 765,-85 625,-85"/>
<text text-anchor="start" x="633" y="-103" font-family="Helvetica,sans-Serif" font-size="10.00">protocol::createResponse</text>
<text text-anchor="middle" x="695" y="-92" font-family="Helvetica,sans-Serif" font-size="10.00">Message</text>
</a>
</g>
</g>
<!-- Node18&#45;&gt;Node19 -->
<g id="edge21" class="edge">
<title>Node18&#45;&gt;Node19</title>
<path fill="none" stroke="midnightblue" d="M553.83,-177.92C559.51,-175.37 565.02,-172.41 570,-169 590.85,-154.73 584.88,-138.87 606,-125 609.1,-122.96 612.37,-121.09 615.75,-119.37"/>
<polygon fill="midnightblue" stroke="midnightblue" points="617.3,-122.51 624.92,-115.15 614.38,-116.15 617.3,-122.51"/>
</g>
<!-- Node20 -->
<g id="node20" class="node">
<title>Node20</title>
<g id="a_node20"><a xlink:href="group__ServerModule.html#a4d13e34f9d56d94f7a410248eed83a8b" target="_top" xlink:title="Send a message to the client.">
<polygon fill="none" stroke="black" points="614.5,-134.5 614.5,-153.5 775.5,-153.5 775.5,-134.5 614.5,-134.5"/>
<text text-anchor="middle" x="695" y="-141.5" font-family="Helvetica,sans-Serif" font-size="10.00">RequestRouter::sendMessage</text>
</a>
</g>
</g>
<!-- Node18&#45;&gt;Node20 -->
<g id="edge22" class="edge">
<title>Node18&#45;&gt;Node20</title>
<path fill="none" stroke="midnightblue" d="M548.98,-177.99C567,-173.01 587.33,-167.57 606,-163 616.12,-160.52 626.95,-158.05 637.41,-155.74"/>
<polygon fill="midnightblue" stroke="midnightblue" points="638.28,-159.13 647.31,-153.58 636.79,-152.29 638.28,-159.13"/>
</g>
<!-- Node21 -->
<g id="node21" class="node">
<title>Node21</title>
<g id="a_node21"><a xlink:href="structprotocol_1_1Message.html#aaa08e3b4cc7fe5c56a2075af650f82fe" target="_top" xlink:title="Get the message as a JSON string.">
<polygon fill="none" stroke="black" points="850.5,-80 850.5,-110 962.5,-110 962.5,-80 850.5,-80"/>
<text text-anchor="start" x="858.5" y="-98" font-family="Helvetica,sans-Serif" font-size="10.00">protocol::Message::</text>
<text text-anchor="middle" x="906.5" y="-87" font-family="Helvetica,sans-Serif" font-size="10.00">getJsonString</text>
</a>
</g>
</g>
<!-- Node20&#45;&gt;Node21 -->
<g id="edge23" class="edge">
<title>Node20&#45;&gt;Node21</title>
<path fill="none" stroke="midnightblue" d="M741.28,-134.49C755.02,-131.53 770.14,-128.21 784,-125 802.31,-120.76 822.11,-115.97 840.31,-111.47"/>
<polygon fill="midnightblue" stroke="midnightblue" points="841.38,-114.81 850.24,-109.01 839.69,-108.02 841.38,-114.81"/>
</g>
<!-- Node23 -->
<g id="node23" class="node">
<title>Node23</title>
<g id="a_node23"><a xlink:href="group__ServerModule.html#a2ba563269dbbac1c345bf7363792e5bf" target="_top" xlink:title=" ">
<polygon fill="none" stroke="black" points="844,-129 844,-159 969,-159 969,-129 844,-129"/>
<text text-anchor="start" x="852" y="-147" font-family="Helvetica,sans-Serif" font-size="10.00">sock::TcpSocketServer</text>
<text text-anchor="middle" x="906.5" y="-136" font-family="Helvetica,sans-Serif" font-size="10.00">::send</text>
</a>
</g>
</g>
<!-- Node20&#45;&gt;Node23 -->
<g id="edge25" class="edge">
<title>Node20&#45;&gt;Node23</title>
<path fill="none" stroke="midnightblue" d="M775.5,-144C794.64,-144 814.98,-144 833.75,-144"/>
<polygon fill="midnightblue" stroke="midnightblue" points="833.99,-147.5 843.99,-144 833.99,-140.5 833.99,-147.5"/>
</g>
<!-- Node22 -->
<g id="node22" class="node">
<title>Node22</title>
<g id="a_node22"><a xlink:href="structprotocol_1_1Message.html#a92361d50bd90c3e2a14a09eb87a82fc8" target="_top" xlink:title="Get the message as a JSON object.">
<polygon fill="none" stroke="black" points="1029,-80 1029,-110 1141,-110 1141,-80 1029,-80"/>
<text text-anchor="start" x="1037" y="-98" font-family="Helvetica,sans-Serif" font-size="10.00">protocol::Message::</text>
<text text-anchor="middle" x="1085" y="-87" font-family="Helvetica,sans-Serif" font-size="10.00">getJson</text>
</a>
</g>
</g>
<!-- Node21&#45;&gt;Node22 -->
<g id="edge24" class="edge">
<title>Node21&#45;&gt;Node22</title>
<path fill="none" stroke="midnightblue" d="M962.86,-95C980.6,-95 1000.42,-95 1018.79,-95"/>
<polygon fill="midnightblue" stroke="midnightblue" points="1018.84,-98.5 1028.84,-95 1018.83,-91.5 1018.84,-98.5"/>
</g>
<!-- Node24&#45;&gt;Node19 -->
<g id="edge27" class="edge">
<title>Node24&#45;&gt;Node19</title>
<path fill="none" stroke="midnightblue" d="M371.67,-62.65C441.04,-70.69 543.99,-82.62 614.77,-90.82"/>
<polygon fill="midnightblue" stroke="midnightblue" points="614.64,-94.33 624.98,-92 615.44,-87.37 614.64,-94.33"/>
</g>
<!-- Node25 -->
<g id="node25" class="node">
<title>Node25</title>
<g id="a_node25"><a xlink:href="namespacedata.html#ad7272e7b88e216047b649704df787d95" target="_top" xlink:title=" ">
<polygon fill="none" stroke="black" points="458.5,-14.5 458.5,-33.5 532.5,-33.5 532.5,-14.5 458.5,-14.5"/>
<text text-anchor="middle" x="495.5" y="-21.5" font-family="Helvetica,sans-Serif" font-size="10.00">data::toJson</text>
</a>
</g>
</g>
<!-- Node24&#45;&gt;Node25 -->
<g id="edge28" class="edge">
<title>Node24&#45;&gt;Node25</title>
<path fill="none" stroke="midnightblue" d="M371.67,-42.66C397.43,-38.74 425.53,-34.48 448.34,-31.01"/>
<polygon fill="midnightblue" stroke="midnightblue" points="449.06,-34.44 458.42,-29.48 448.01,-27.52 449.06,-34.44"/>
</g>
<!-- Node26 -->
<g id="node26" class="node">
<title>Node26</title>
<g id="a_node26"><a xlink:href="classdata_1_1Frame.html#a21145c86e25d76061706ea66044139e0" target="_top" xlink:title=" ">
<polygon fill="none" stroke="black" points="640,-14.5 640,-33.5 750,-33.5 750,-14.5 640,-14.5"/>
<text text-anchor="middle" x="695" y="-21.5" font-family="Helvetica,sans-Serif" font-size="10.00">data::Frame::getAll</text>
</a>
</g>
</g>
<!-- Node25&#45;&gt;Node26 -->
<g id="edge29" class="edge">
<title>Node25&#45;&gt;Node26</title>
<path fill="none" stroke="midnightblue" d="M532.72,-24C559.76,-24 597.4,-24 629.53,-24"/>
<polygon fill="midnightblue" stroke="midnightblue" points="629.74,-27.5 639.74,-24 629.74,-20.5 629.74,-27.5"/>
</g>
<!-- Node27&#45;&gt;Node19 -->
<g id="edge31" class="edge">
<title>Node27&#45;&gt;Node19</title>
<path fill="none" stroke="midnightblue" d="M563.92,-128.98C580.82,-125.21 599.1,-121.14 616.46,-117.28"/>
<polygon fill="midnightblue" stroke="midnightblue" points="617.55,-120.62 626.55,-115.03 616.03,-113.78 617.55,-120.62"/>
</g>
<!-- Node27&#45;&gt;Node20 -->
<g id="edge32" class="edge">
<title>Node27&#45;&gt;Node20</title>
<path fill="none" stroke="midnightblue" d="M570.04,-144C581.24,-144 592.9,-144 604.39,-144"/>
<polygon fill="midnightblue" stroke="midnightblue" points="604.43,-147.5 614.43,-144 604.43,-140.5 604.43,-147.5"/>
</g>
<!-- Node28&#45;&gt;Node19 -->
<g id="edge34" class="edge">
<title>Node28&#45;&gt;Node19</title>
<path fill="none" stroke="midnightblue" d="M377.34,-102.39C446.41,-101.87 545.49,-101.12 614.36,-100.6"/>
<polygon fill="midnightblue" stroke="midnightblue" points="614.74,-104.1 624.72,-100.52 614.69,-97.1 614.74,-104.1"/>
</g>
</g>
</svg>
