<?xml version="1.0" encoding="UTF-8" standalone="no"?>
<!DOCTYPE svg PUBLIC "-//W3C//DTD SVG 1.1//EN"
 "http://www.w3.org/Graphics/SVG/1.1/DTD/svg11.dtd">
<!-- Generated by graphviz version 2.43.0 (0)
 -->
<!-- Title: RequestRouter::handlePingRequest Pages: 1 -->
<svg width="663pt" height="105pt"
 viewBox="0.00 0.00 663.00 105.00" xmlns="http://www.w3.org/2000/svg" xmlns:xlink="http://www.w3.org/1999/xlink">
<g id="graph0" class="graph" transform="scale(1 1) rotate(0) translate(4 101)">
<title>RequestRouter::handlePingRequest</title>
<!-- Node1 -->
<g id="Node000001" class="node">
<title>Node1</title>
<g id="a_Node000001"><a xlink:title="This function responds to a ping request.">
<polygon fill="#999999" stroke="#666666" points="149,-75 0,-75 0,-45 149,-45 149,-75"/>
<text text-anchor="start" x="8" y="-63" font-family="Helvetica,sans-Serif" font-size="10.00">RequestRouter::handlePing</text>
<text text-anchor="middle" x="74.5" y="-52" font-family="Helvetica,sans-Serif" font-size="10.00">Request</text>
</a>
</g>
</g>
<!-- Node2 -->
<g id="Node000002" class="node">
<title>Node2</title>
<g id="a_Node000002"><a xlink:href="namespaceprotocol.html#a5e7a52c2cde741e59ab374836e56bd64" target="_top" xlink:title="Create a Response Message.">
<polygon fill="white" stroke="#666666" points="335.5,-97 195.5,-97 195.5,-67 335.5,-67 335.5,-97"/>
<text text-anchor="start" x="203.5" y="-85" font-family="Helvetica,sans-Serif" font-size="10.00">protocol::createResponse</text>
<text text-anchor="middle" x="265.5" y="-74" font-family="Helvetica,sans-Serif" font-size="10.00">Message</text>
</a>
</g>
</g>
<!-- Node1&#45;&gt;Node2 -->
<g id="edge1_Node000001_Node000002" class="edge">
<title>Node1&#45;&gt;Node2</title>
<g id="a_edge1_Node000001_Node000002"><a xlink:title=" ">
<path fill="none" stroke="#63b8ff" d="M149.11,-68.57C161.02,-69.95 173.39,-71.39 185.41,-72.79"/>
<polygon fill="#63b8ff" stroke="#63b8ff" points="185.08,-76.28 195.42,-73.96 185.89,-69.33 185.08,-76.28"/>
</a>
</g>
</g>
<!-- Node3 -->
<g id="Node000003" class="node">
<title>Node3</title>
<g id="a_Node000003"><a xlink:href="group__ServerModule.html#a4d13e34f9d56d94f7a410248eed83a8b" target="_top" xlink:title="Send a message to the client.">
<polygon fill="white" stroke="#666666" points="346,-48.5 185,-48.5 185,-29.5 346,-29.5 346,-48.5"/>
<text text-anchor="middle" x="265.5" y="-36.5" font-family="Helvetica,sans-Serif" font-size="10.00">RequestRouter::sendMessage</text>
</a>
</g>
</g>
<!-- Node1&#45;&gt;Node3 -->
<g id="edge2_Node000001_Node000003" class="edge">
<title>Node1&#45;&gt;Node3</title>
<g id="a_edge2_Node000001_Node000003"><a xlink:title=" ">
<path fill="none" stroke="#63b8ff" d="M149.11,-51.82C157.53,-50.89 166.18,-49.92 174.78,-48.97"/>
<polygon fill="#63b8ff" stroke="#63b8ff" points="175.28,-52.43 184.83,-47.85 174.51,-45.48 175.28,-52.43"/>
</a>
</g>
</g>
<!-- Node4 -->
<g id="Node000004" class="node">
<title>Node4</title>
<g id="a_Node000004"><a xlink:href="structprotocol_1_1Message.html#a86e73391ff1dcf69653ffb610c3b329c" target="_top" xlink:title="Get the message as a JSON string.">
<polygon fill="white" stroke="#666666" points="500.5,-78 388.5,-78 388.5,-48 500.5,-48 500.5,-78"/>
<text text-anchor="start" x="396.5" y="-66" font-family="Helvetica,sans-Serif" font-size="10.00">protocol::Message::</text>
<text text-anchor="middle" x="444.5" y="-55" font-family="Helvetica,sans-Serif" font-size="10.00">getJsonString</text>
</a>
</g>
</g>
<!-- Node3&#45;&gt;Node4 -->
<g id="edge3_Node000003_Node000004" class="edge">
<title>Node3&#45;&gt;Node4</title>
<g id="a_edge3_Node000003_Node000004"><a xlink:title=" ">
<path fill="none" stroke="#63b8ff" d="M336.71,-48.52C350.4,-50.38 364.7,-52.32 378.22,-54.15"/>
<polygon fill="#63b8ff" stroke="#63b8ff" points="378.01,-57.65 388.39,-55.53 378.95,-50.72 378.01,-57.65"/>
</a>
</g>
</g>
<!-- Node6 -->
<g id="Node000006" class="node">
<title>Node6</title>
<g id="a_Node000006"><a xlink:href="group__ServerModule.html#a2ba563269dbbac1c345bf7363792e5bf" target="_top" xlink:title=" ">
<polygon fill="white" stroke="#666666" points="507,-30 382,-30 382,0 507,0 507,-30"/>
<text text-anchor="start" x="390" y="-18" font-family="Helvetica,sans-Serif" font-size="10.00">sock::TcpSocketServer</text>
<text text-anchor="middle" x="444.5" y="-7" font-family="Helvetica,sans-Serif" font-size="10.00">::send</text>
</a>
</g>
</g>
<!-- Node3&#45;&gt;Node6 -->
<g id="edge5_Node000003_Node000006" class="edge">
<title>Node3&#45;&gt;Node6</title>
<g id="a_edge5_Node000003_Node000006"><a xlink:title=" ">
<path fill="none" stroke="#63b8ff" d="M336.71,-29.48C348.28,-27.91 360.29,-26.28 371.89,-24.71"/>
<polygon fill="#63b8ff" stroke="#63b8ff" points="372.53,-28.16 381.97,-23.34 371.59,-21.22 372.53,-28.16"/>
</a>
</g>
</g>
<!-- Node5 -->
<g id="Node000005" class="node">
<title>Node5</title>
<g id="a_Node000005"><a xlink:href="structprotocol_1_1Message.html#aa250450860914231f7787d436e88461e" target="_top" xlink:title="Get the message as a JSON object.">
<polygon fill="white" stroke="#666666" points="655,-78 543,-78 543,-48 655,-48 655,-78"/>
<text text-anchor="start" x="551" y="-66" font-family="Helvetica,sans-Serif" font-size="10.00">protocol::Message::</text>
<text text-anchor="middle" x="599" y="-55" font-family="Helvetica,sans-Serif" font-size="10.00">getJson</text>
</a>
</g>
</g>
<!-- Node4&#45;&gt;Node5 -->
<g id="edge4_Node000004_Node000005" class="edge">
<title>Node4&#45;&gt;Node5</title>
<g id="a_edge4_Node000004_Node000005"><a xlink:title=" ">
<path fill="none" stroke="#63b8ff" d="M500.56,-63C510.97,-63 521.95,-63 532.64,-63"/>
<polygon fill="#63b8ff" stroke="#63b8ff" points="532.77,-66.5 542.77,-63 532.77,-59.5 532.77,-66.5"/>
</a>
</g>
</g>
</g>
</svg>
