<?xml version="1.0" encoding="UTF-8" standalone="no"?>
<!DOCTYPE svg PUBLIC "-//W3C//DTD SVG 1.1//EN"
 "http://www.w3.org/Graphics/SVG/1.1/DTD/svg11.dtd">
<!-- Generated by graphviz version 2.43.0 (0)
 -->
<!-- Title: RequestRouter::sendMessage Pages: 1 -->
<svg width="997pt" height="421pt"
 viewBox="0.00 0.00 997.00 420.64" xmlns="http://www.w3.org/2000/svg" xmlns:xlink="http://www.w3.org/1999/xlink">
<g id="graph0" class="graph" transform="scale(1 1) rotate(0) translate(4 416.64)">
<title>RequestRouter::sendMessage</title>
<!-- Node1 -->
<g id="Node000001" class="node">
<title>Node1</title>
<g id="a_Node000001"><a xlink:title="Send a message to the client.">
<polygon fill="#999999" stroke="#666666" points="989,-277.14 828,-277.14 828,-258.14 989,-258.14 989,-277.14"/>
<text text-anchor="middle" x="908.5" y="-265.14" font-family="Helvetica,sans-Serif" font-size="10.00">RequestRouter::sendMessage</text>
</a>
</g>
</g>
<!-- Node2 -->
<g id="Node000002" class="node">
<title>Node2</title>
<g id="a_Node000002"><a xlink:href="group__ServerModule.html#a483e4efc0deb643ee4fdef7cb88f66b7" target="_top" xlink:title="This function responds to data requests.">
<polygon fill="white" stroke="#666666" points="585.5,-373.64 434.5,-373.64 434.5,-343.64 585.5,-343.64 585.5,-373.64"/>
<text text-anchor="start" x="442.5" y="-361.64" font-family="Helvetica,sans-Serif" font-size="10.00">RequestRouter::handleData</text>
<text text-anchor="middle" x="510" y="-350.64" font-family="Helvetica,sans-Serif" font-size="10.00">Request</text>
</a>
</g>
</g>
<!-- Node1&#45;&gt;Node2 -->
<g id="edge1_Node000001_Node000002" class="edge">
<title>Node1&#45;&gt;Node2</title>
<g id="a_edge1_Node000001_Node000002"><a xlink:title=" ">
<path fill="none" stroke="#63b8ff" d="M868.04,-280.17C845.83,-286.99 817.51,-295.31 792,-301.64 722.55,-318.87 642.49,-334.72 585.64,-345.31"/>
<polygon fill="#63b8ff" stroke="#63b8ff" points="869.26,-283.46 877.78,-277.15 867.19,-276.77 869.26,-283.46"/>
</a>
</g>
</g>
<!-- Node4 -->
<g id="Node000004" class="node">
<title>Node4</title>
<g id="a_Node000004"><a xlink:href="group__ServerModule.html#aa4ad8544dc8431ede7414c834a8a9257" target="_top" xlink:title="This function responds to a ping request.">
<polygon fill="white" stroke="#666666" points="370.5,-412.64 221.5,-412.64 221.5,-382.64 370.5,-382.64 370.5,-412.64"/>
<text text-anchor="start" x="229.5" y="-400.64" font-family="Helvetica,sans-Serif" font-size="10.00">RequestRouter::handlePing</text>
<text text-anchor="middle" x="296" y="-389.64" font-family="Helvetica,sans-Serif" font-size="10.00">Request</text>
</a>
</g>
</g>
<!-- Node1&#45;&gt;Node4 -->
<g id="edge3_Node000001_Node000004" class="edge">
<title>Node1&#45;&gt;Node4</title>
<g id="a_edge3_Node000001_Node000004"><a xlink:title=" ">
<path fill="none" stroke="#63b8ff" d="M884.54,-282.6C861.82,-296.86 825.65,-318.11 792,-331.64 709.68,-364.73 686.67,-369.03 599,-382.64 521.71,-394.63 432.08,-397.75 370.66,-398.25"/>
<polygon fill="#63b8ff" stroke="#63b8ff" points="886.57,-285.46 893.13,-277.14 882.81,-279.55 886.57,-285.46"/>
</a>
</g>
</g>
<!-- Node5 -->
<g id="Node000005" class="node">
<title>Node5</title>
<g id="a_Node000005"><a xlink:href="group__ServerModule.html#a4209bc198222e3efa2a77501a0f7a71d" target="_top" xlink:title="This function responds to a setting request.">
<polygon fill="white" stroke="#666666" points="591,-325.64 429,-325.64 429,-295.64 591,-295.64 591,-325.64"/>
<text text-anchor="start" x="437" y="-313.64" font-family="Helvetica,sans-Serif" font-size="10.00">RequestRouter::handleSetting</text>
<text text-anchor="middle" x="510" y="-302.64" font-family="Helvetica,sans-Serif" font-size="10.00">Request</text>
</a>
</g>
</g>
<!-- Node1&#45;&gt;Node5 -->
<g id="edge5_Node000001_Node000005" class="edge">
<title>Node1&#45;&gt;Node5</title>
<g id="a_edge5_Node000001_Node000005"><a xlink:title=" ">
<path fill="none" stroke="#63b8ff" d="M817.46,-277.4C749.42,-284.78 656.85,-294.82 591.31,-301.93"/>
<polygon fill="#63b8ff" stroke="#63b8ff" points="818.17,-280.85 827.74,-276.29 817.42,-273.89 818.17,-280.85"/>
</a>
</g>
</g>
<!-- Node6 -->
<g id="Node000006" class="node">
<title>Node6</title>
<g id="a_Node000006"><a xlink:href="group__ServerModule.html#a1d58bc2e5fc57191959bc60a89b61ec5" target="_top" xlink:title="This function handles a setting SET request. It will attempt to set the configuration with the value ...">
<polygon fill="white" stroke="#666666" points="385,-148.14 207,-148.14 207,-129.14 385,-129.14 385,-148.14"/>
<text text-anchor="middle" x="296" y="-136.14" font-family="Helvetica,sans-Serif" font-size="10.00">RequestRouter::handleSettingSet</text>
</a>
</g>
</g>
<!-- Node1&#45;&gt;Node6 -->
<g id="edge7_Node000001_Node000006" class="edge">
<title>Node1&#45;&gt;Node6</title>
<g id="a_edge7_Node000001_Node000006"><a xlink:title=" ">
<path fill="none" stroke="#63b8ff" d="M897.23,-248.84C879.35,-217.56 839.83,-154.35 792,-114.64 718.29,-53.44 692.26,-40.55 599,-18.64 521.99,-0.54 494.33,11.04 421,-18.64 364.07,-41.67 318.8,-104.77 303.02,-128.99"/>
<polygon fill="#63b8ff" stroke="#63b8ff" points="894.31,-250.79 902.25,-257.8 900.41,-247.37 894.31,-250.79"/>
</a>
</g>
</g>
<!-- Node7 -->
<g id="Node000007" class="node">
<title>Node7</title>
<g id="a_Node000007"><a xlink:href="group__ServerModule.html#a2916b1b7b4bd1572c6629ddb748d2dd5" target="_top" xlink:title="This function is the generic error response function.">
<polygon fill="white" stroke="#666666" points="784,-239.64 643,-239.64 643,-209.64 784,-209.64 784,-239.64"/>
<text text-anchor="start" x="651" y="-227.64" font-family="Helvetica,sans-Serif" font-size="10.00">RequestRouter::sendError</text>
<text text-anchor="middle" x="713.5" y="-216.64" font-family="Helvetica,sans-Serif" font-size="10.00">Packet</text>
</a>
</g>
</g>
<!-- Node1&#45;&gt;Node7 -->
<g id="edge9_Node000001_Node000007" class="edge">
<title>Node1&#45;&gt;Node7</title>
<g id="a_edge9_Node000001_Node000007"><a xlink:title=" ">
<path fill="none" stroke="#63b8ff" d="M854.65,-255.86C832.18,-250.86 805.7,-244.96 781.85,-239.64"/>
<polygon fill="#63b8ff" stroke="#63b8ff" points="854.15,-259.34 864.67,-258.09 855.67,-252.5 854.15,-259.34"/>
</a>
</g>
</g>
<!-- Node12 -->
<g id="Node000012" class="node">
<title>Node12</title>
<g id="a_Node000012"><a xlink:href="group__ServerModule.html#aa6ff009c15a46c7f5c75ed3110a4f9a3" target="_top" xlink:title="Send a basic success response.">
<polygon fill="white" stroke="#666666" points="792,-153.64 635,-153.64 635,-123.64 792,-123.64 792,-153.64"/>
<text text-anchor="start" x="643" y="-141.64" font-family="Helvetica,sans-Serif" font-size="10.00">RequestRouter::sendSuccess</text>
<text text-anchor="middle" x="713.5" y="-130.64" font-family="Helvetica,sans-Serif" font-size="10.00">Response</text>
</a>
</g>
</g>
<!-- Node1&#45;&gt;Node12 -->
<g id="edge22_Node000001_Node000012" class="edge">
<title>Node1&#45;&gt;Node12</title>
<g id="a_edge22_Node000001_Node000012"><a xlink:title=" ">
<path fill="none" stroke="#63b8ff" d="M884.31,-252.14C846.96,-227.17 773.93,-178.36 737.02,-153.69"/>
<polygon fill="#63b8ff" stroke="#63b8ff" points="882.73,-255.29 892.99,-257.94 886.62,-249.47 882.73,-255.29"/>
</a>
</g>
</g>
<!-- Node3 -->
<g id="Node000003" class="node">
<title>Node3</title>
<g id="a_Node000003"><a xlink:href="group__ServerModule.html#ad77e0ae3d2cd0daba1388e7d7ffa1393" target="_top" xlink:title="This function is responsible for parsing a request and routing it to the right place.">
<polygon fill="white" stroke="#666666" points="171,-277.14 0,-277.14 0,-258.14 171,-258.14 171,-277.14"/>
<text text-anchor="middle" x="85.5" y="-265.14" font-family="Helvetica,sans-Serif" font-size="10.00">RequestRouter::handleMessage</text>
</a>
</g>
</g>
<!-- Node2&#45;&gt;Node3 -->
<g id="edge2_Node000002_Node000003" class="edge">
<title>Node2&#45;&gt;Node3</title>
<g id="a_edge2_Node000002_Node000003"><a xlink:title=" ">
<path fill="none" stroke="#63b8ff" d="M424.43,-345.8C363.59,-335.94 279.78,-321.08 207,-303.64 175.36,-296.06 139.73,-285.1 115.48,-277.27"/>
<polygon fill="#63b8ff" stroke="#63b8ff" points="423.94,-349.26 434.37,-347.4 425.05,-342.35 423.94,-349.26"/>
</a>
</g>
</g>
<!-- Node4&#45;&gt;Node3 -->
<g id="edge4_Node000004_Node000003" class="edge">
<title>Node4&#45;&gt;Node3</title>
<g id="a_edge4_Node000004_Node000003"><a xlink:title=" ">
<path fill="none" stroke="#63b8ff" d="M234.86,-378.83C225.29,-374.98 215.7,-370.57 207,-365.64 161.26,-339.7 115.29,-296.42 95.97,-277.26"/>
<polygon fill="#63b8ff" stroke="#63b8ff" points="233.78,-382.17 244.37,-382.5 236.3,-375.64 233.78,-382.17"/>
</a>
</g>
</g>
<!-- Node5&#45;&gt;Node3 -->
<g id="edge6_Node000005_Node000003" class="edge">
<title>Node5&#45;&gt;Node3</title>
<g id="a_edge6_Node000005_Node000003"><a xlink:title=" ">
<path fill="none" stroke="#63b8ff" d="M418.63,-302.43C358.6,-296.87 278.05,-289.18 207,-281.64 193.91,-280.25 180.03,-278.7 166.52,-277.16"/>
<polygon fill="#63b8ff" stroke="#63b8ff" points="418.56,-305.94 428.84,-303.38 419.2,-298.97 418.56,-305.94"/>
</a>
</g>
</g>
<!-- Node6&#45;&gt;Node3 -->
<g id="edge8_Node000006_Node000003" class="edge">
<title>Node6&#45;&gt;Node3</title>
<g id="a_edge8_Node000006_Node000003"><a xlink:title=" ">
<path fill="none" stroke="#63b8ff" d="M270.57,-153.75C227.22,-180.57 138.05,-235.74 102.07,-258.01"/>
<polygon fill="#63b8ff" stroke="#63b8ff" points="272.67,-156.57 279.33,-148.33 268.98,-150.62 272.67,-156.57"/>
</a>
</g>
</g>
<!-- Node7&#45;&gt;Node2 -->
<g id="edge16_Node000007_Node000002" class="edge">
<title>Node7&#45;&gt;Node2</title>
<g id="a_edge16_Node000007_Node000002"><a xlink:title=" ">
<path fill="none" stroke="#63b8ff" d="M694.7,-247.81C674.25,-272.85 638.41,-312.18 599,-334.64 592.95,-338.09 586.37,-341.06 579.64,-343.62"/>
<polygon fill="#63b8ff" stroke="#63b8ff" points="697.51,-249.91 701.03,-239.91 692.04,-245.53 697.51,-249.91"/>
</a>
</g>
</g>
<!-- Node7&#45;&gt;Node3 -->
<g id="edge19_Node000007_Node000003" class="edge">
<title>Node7&#45;&gt;Node3</title>
<g id="a_edge19_Node000007_Node000003"><a xlink:title=" ">
<path fill="none" stroke="#63b8ff" d="M641,-241.7C627.14,-244.45 612.67,-246.95 599,-248.64 449.22,-267.11 273.11,-269.45 171.19,-268.92"/>
<polygon fill="#63b8ff" stroke="#63b8ff" points="641.88,-245.09 650.97,-239.65 640.47,-238.23 641.88,-245.09"/>
</a>
</g>
</g>
<!-- Node7&#45;&gt;Node5 -->
<g id="edge20_Node000007_Node000005" class="edge">
<title>Node7&#45;&gt;Node5</title>
<g id="a_edge20_Node000007_Node000005"><a xlink:title=" ">
<path fill="none" stroke="#63b8ff" d="M676.08,-244.65C654.13,-256.27 625.39,-270.73 599,-281.64 586.96,-286.61 573.73,-291.34 561.26,-295.49"/>
<polygon fill="#63b8ff" stroke="#63b8ff" points="677.88,-247.66 685.05,-239.86 674.58,-241.48 677.88,-247.66"/>
</a>
</g>
</g>
<!-- Node7&#45;&gt;Node6 -->
<g id="edge21_Node000007_Node000006" class="edge">
<title>Node7&#45;&gt;Node6</title>
<g id="a_edge21_Node000007_Node000006"><a xlink:title=" ">
<path fill="none" stroke="#63b8ff" d="M632.94,-207.75C621.55,-205.35 609.98,-202.93 599,-200.64 508.74,-181.83 403.22,-160.26 343.84,-148.16"/>
<polygon fill="#63b8ff" stroke="#63b8ff" points="632.38,-211.21 642.89,-209.85 633.82,-204.36 632.38,-211.21"/>
</a>
</g>
</g>
<!-- Node8 -->
<g id="Node000008" class="node">
<title>Node8</title>
<g id="a_Node000008"><a xlink:href="group__ServerModule.html#a493ddf0161bba462a169e510c5215990" target="_top" xlink:title="A special handler for updating ADC mapping settings.">
<polygon fill="white" stroke="#666666" points="583,-153.64 437,-153.64 437,-123.64 583,-123.64 583,-153.64"/>
<text text-anchor="start" x="445" y="-141.64" font-family="Helvetica,sans-Serif" font-size="10.00">RequestRouter::handleAdc</text>
<text text-anchor="middle" x="510" y="-130.64" font-family="Helvetica,sans-Serif" font-size="10.00">MappingSettingUpdate</text>
</a>
</g>
</g>
<!-- Node7&#45;&gt;Node8 -->
<g id="edge10_Node000007_Node000008" class="edge">
<title>Node7&#45;&gt;Node8</title>
<g id="a_edge10_Node000007_Node000008"><a xlink:title=" ">
<path fill="none" stroke="#63b8ff" d="M676.08,-204.63C654.13,-193 625.39,-178.54 599,-167.64 586.96,-162.66 573.73,-157.93 561.26,-153.79"/>
<polygon fill="#63b8ff" stroke="#63b8ff" points="674.58,-207.79 685.05,-209.42 677.88,-201.62 674.58,-207.79"/>
</a>
</g>
</g>
<!-- Node9 -->
<g id="Node000009" class="node">
<title>Node9</title>
<g id="a_Node000009"><a xlink:href="group__ServerModule.html#a4dbd5cc7d2e1fb3091613259f3b843fb" target="_top" xlink:title="Handle bit test set requests.">
<polygon fill="white" stroke="#666666" points="580.5,-239.64 439.5,-239.64 439.5,-209.64 580.5,-209.64 580.5,-239.64"/>
<text text-anchor="start" x="447.5" y="-227.64" font-family="Helvetica,sans-Serif" font-size="10.00">RequestRouter::handleBit</text>
<text text-anchor="middle" x="510" y="-216.64" font-family="Helvetica,sans-Serif" font-size="10.00">TestSet</text>
</a>
</g>
</g>
<!-- Node7&#45;&gt;Node9 -->
<g id="edge12_Node000007_Node000009" class="edge">
<title>Node7&#45;&gt;Node9</title>
<g id="a_edge12_Node000007_Node000009"><a xlink:title=" ">
<path fill="none" stroke="#63b8ff" d="M632.83,-224.64C615.58,-224.64 597.46,-224.64 580.63,-224.64"/>
<polygon fill="#63b8ff" stroke="#63b8ff" points="632.87,-228.14 642.87,-224.64 632.87,-221.14 632.87,-228.14"/>
</a>
</g>
</g>
<!-- Node10 -->
<g id="Node000010" class="node">
<title>Node10</title>
<g id="a_Node000010"><a xlink:href="group__ServerModule.html#a959bc2e0cb68a835d4304e1204f64c69" target="_top" xlink:title="This function parses a command request, sends it to the command queue and sends a simple response bac...">
<polygon fill="white" stroke="#666666" points="599,-57.64 421,-57.64 421,-27.64 599,-27.64 599,-57.64"/>
<text text-anchor="start" x="429" y="-45.64" font-family="Helvetica,sans-Serif" font-size="10.00">RequestRouter::handleCommand</text>
<text text-anchor="middle" x="510" y="-34.64" font-family="Helvetica,sans-Serif" font-size="10.00">Request</text>
</a>
</g>
</g>
<!-- Node7&#45;&gt;Node10 -->
<g id="edge14_Node000007_Node000010" class="edge">
<title>Node7&#45;&gt;Node10</title>
<g id="a_edge14_Node000007_Node000010"><a xlink:title=" ">
<path fill="none" stroke="#63b8ff" d="M678.59,-203.63C663.56,-192.91 646.67,-178.73 635,-162.64 608.25,-125.75 632.68,-97.33 599,-66.64 595.25,-63.22 591.07,-60.29 586.62,-57.77"/>
<polygon fill="#63b8ff" stroke="#63b8ff" points="676.96,-206.75 687.18,-209.53 680.92,-200.98 676.96,-206.75"/>
</a>
</g>
</g>
<!-- Node11 -->
<g id="Node000011" class="node">
<title>Node11</title>
<g id="a_Node000011"><a xlink:href="group__ServerModule.html#af41f65e7470ab4490dfa655ead0a7f88" target="_top" xlink:title="A special handler for updating extension settings.">
<polygon fill="white" stroke="#666666" points="598,-105.64 422,-105.64 422,-75.64 598,-75.64 598,-105.64"/>
<text text-anchor="start" x="430" y="-93.64" font-family="Helvetica,sans-Serif" font-size="10.00">RequestRouter::handleExtension</text>
<text text-anchor="middle" x="510" y="-82.64" font-family="Helvetica,sans-Serif" font-size="10.00">SettingUpdate</text>
</a>
</g>
</g>
<!-- Node7&#45;&gt;Node11 -->
<g id="edge17_Node000007_Node000011" class="edge">
<title>Node7&#45;&gt;Node11</title>
<g id="a_edge17_Node000007_Node000011"><a xlink:title=" ">
<path fill="none" stroke="#63b8ff" d="M682.13,-203.18C667.18,-191.92 649.34,-177.43 635,-162.64 616.44,-143.49 621.06,-129.62 599,-114.64 593.89,-111.17 588.3,-108.2 582.48,-105.65"/>
<polygon fill="#63b8ff" stroke="#63b8ff" points="680.43,-206.27 690.55,-209.4 684.6,-200.64 680.43,-206.27"/>
</a>
</g>
</g>
<!-- Node8&#45;&gt;Node6 -->
<g id="edge11_Node000008_Node000006" class="edge">
<title>Node8&#45;&gt;Node6</title>
<g id="a_edge11_Node000008_Node000006"><a xlink:title=" ">
<path fill="none" stroke="#63b8ff" d="M426.62,-138.64C412.98,-138.64 398.8,-138.64 385.02,-138.64"/>
<polygon fill="#63b8ff" stroke="#63b8ff" points="426.93,-142.14 436.93,-138.64 426.93,-135.14 426.93,-142.14"/>
</a>
</g>
</g>
<!-- Node9&#45;&gt;Node3 -->
<g id="edge13_Node000009_Node000003" class="edge">
<title>Node9&#45;&gt;Node3</title>
<g id="a_edge13_Node000009_Node000003"><a xlink:title=" ">
<path fill="none" stroke="#63b8ff" d="M429.08,-231.87C368.18,-237.5 282.26,-245.65 207,-253.64 193.91,-255.03 180.03,-256.57 166.52,-258.11"/>
<polygon fill="#63b8ff" stroke="#63b8ff" points="429.75,-235.33 439.39,-230.93 429.11,-228.36 429.75,-235.33"/>
</a>
</g>
</g>
<!-- Node10&#45;&gt;Node3 -->
<g id="edge15_Node000010_Node000003" class="edge">
<title>Node10&#45;&gt;Node3</title>
<g id="a_edge15_Node000010_Node000003"><a xlink:title=" ">
<path fill="none" stroke="#63b8ff" d="M410.66,-52.22C348.36,-61.96 268.28,-81.5 207,-120.64 149.16,-157.59 105.76,-231.54 91.52,-257.97"/>
<polygon fill="#63b8ff" stroke="#63b8ff" points="411.52,-55.63 420.89,-50.69 410.48,-48.71 411.52,-55.63"/>
</a>
</g>
</g>
<!-- Node11&#45;&gt;Node6 -->
<g id="edge18_Node000011_Node000006" class="edge">
<title>Node11&#45;&gt;Node6</title>
<g id="a_edge18_Node000011_Node000006"><a xlink:title=" ">
<path fill="none" stroke="#63b8ff" d="M432.45,-107.97C401.03,-115.08 365.87,-123.04 339.24,-129.07"/>
<polygon fill="#63b8ff" stroke="#63b8ff" points="433.52,-111.32 442.5,-105.69 431.98,-104.49 433.52,-111.32"/>
</a>
</g>
</g>
<!-- Node12&#45;&gt;Node8 -->
<g id="edge23_Node000012_Node000008" class="edge">
<title>Node12&#45;&gt;Node8</title>
<g id="a_edge23_Node000012_Node000008"><a xlink:title=" ">
<path fill="none" stroke="#63b8ff" d="M624.85,-138.64C610.98,-138.64 596.76,-138.64 583.29,-138.64"/>
<polygon fill="#63b8ff" stroke="#63b8ff" points="624.88,-142.14 634.88,-138.64 624.88,-135.14 624.88,-142.14"/>
</a>
</g>
</g>
<!-- Node12&#45;&gt;Node9 -->
<g id="edge24_Node000012_Node000009" class="edge">
<title>Node12&#45;&gt;Node9</title>
<g id="a_edge24_Node000012_Node000009"><a xlink:title=" ">
<path fill="none" stroke="#63b8ff" d="M667.49,-157.85C630.86,-173.48 579.89,-195.23 546.2,-209.61"/>
<polygon fill="#63b8ff" stroke="#63b8ff" points="669.12,-160.96 676.94,-153.81 666.37,-154.52 669.12,-160.96"/>
</a>
</g>
</g>
<!-- Node12&#45;&gt;Node10 -->
<g id="edge25_Node000012_Node000010" class="edge">
<title>Node12&#45;&gt;Node10</title>
<g id="a_edge25_Node000012_Node000010"><a xlink:title=" ">
<path fill="none" stroke="#63b8ff" d="M684.35,-117.4C662.16,-101.52 629.91,-80.28 599,-66.64 591.47,-63.31 583.36,-60.35 575.23,-57.73"/>
<polygon fill="#63b8ff" stroke="#63b8ff" points="682.48,-120.37 692.62,-123.41 686.59,-114.71 682.48,-120.37"/>
</a>
</g>
</g>
<!-- Node12&#45;&gt;Node11 -->
<g id="edge26_Node000012_Node000011" class="edge">
<title>Node12&#45;&gt;Node11</title>
<g id="a_edge26_Node000012_Node000011"><a xlink:title=" ">
<path fill="none" stroke="#63b8ff" d="M639.28,-121.2C617.88,-116.1 594.69,-110.57 573.98,-105.64"/>
<polygon fill="#63b8ff" stroke="#63b8ff" points="638.76,-124.67 649.3,-123.58 640.38,-117.86 638.76,-124.67"/>
</a>
</g>
</g>
</g>
</svg>
