<?xml version="1.0" encoding="UTF-8" standalone="no"?>
<!DOCTYPE svg PUBLIC "-//W3C//DTD SVG 1.1//EN"
 "http://www.w3.org/Graphics/SVG/1.1/DTD/svg11.dtd">
<!-- Generated by graphviz version 2.43.0 (0)
 -->
<!-- Title: extension::SamM8qExtension::stateRead Pages: 1 -->
<svg width="1184pt" height="422pt"
 viewBox="0.00 0.00 1184.00 421.50" xmlns="http://www.w3.org/2000/svg" xmlns:xlink="http://www.w3.org/1999/xlink">
<g id="graph0" class="graph" transform="scale(1 1) rotate(0) translate(4 417.5)">
<title>extension::SamM8qExtension::stateRead</title>
<!-- Node1 -->
<g id="node1" class="node">
<title>Node1</title>
<g id="a_node1"><a xlink:title=" ">
<polygon fill="#bfbfbf" stroke="black" points="0,-241 0,-271 161,-271 161,-241 0,-241"/>
<text text-anchor="start" x="8" y="-259" font-family="Helvetica,sans-Serif" font-size="10.00">extension::SamM8qExtension</text>
<text text-anchor="middle" x="80.5" y="-248" font-family="Helvetica,sans-Serif" font-size="10.00">::stateRead</text>
</a>
</g>
</g>
<!-- Node2 -->
<g id="node2" class="node">
<title>Node2</title>
<g id="a_node2"><a xlink:href="classextension_1_1Extension.html#aa7ec0098dfde16a54eb616c73ba3046e" target="_top" xlink:title=" ">
<polygon fill="none" stroke="black" points="218,-334 218,-364 337,-364 337,-334 218,-334"/>
<text text-anchor="start" x="226" y="-352" font-family="Helvetica,sans-Serif" font-size="10.00">extension::Extension</text>
<text text-anchor="middle" x="277.5" y="-341" font-family="Helvetica,sans-Serif" font-size="10.00">::data</text>
</a>
</g>
</g>
<!-- Node1&#45;&gt;Node2 -->
<g id="edge1" class="edge">
<title>Node1&#45;&gt;Node2</title>
<path fill="none" stroke="midnightblue" d="M103.2,-271.18C125.79,-286.43 162.6,-309.81 197,-325 201.39,-326.94 205.97,-328.77 210.64,-330.51"/>
<polygon fill="midnightblue" stroke="midnightblue" points="209.68,-333.88 220.27,-333.91 212.01,-327.28 209.68,-333.88"/>
</g>
<!-- Node5 -->
<g id="node5" class="node">
<title>Node5</title>
<g id="a_node5"><a xlink:href="classextension_1_1Extension.html#a947a643d302b5c5f9cef1a54d5038c06" target="_top" xlink:title=" ">
<polygon fill="none" stroke="black" points="218,-383 218,-413 337,-413 337,-383 218,-383"/>
<text text-anchor="start" x="226" y="-401" font-family="Helvetica,sans-Serif" font-size="10.00">extension::Extension</text>
<text text-anchor="middle" x="277.5" y="-390" font-family="Helvetica,sans-Serif" font-size="10.00">::error</text>
</a>
</g>
</g>
<!-- Node1&#45;&gt;Node5 -->
<g id="edge4" class="edge">
<title>Node1&#45;&gt;Node5</title>
<path fill="none" stroke="midnightblue" d="M92.16,-271.04C110.65,-296.06 151.15,-346.23 197,-374 200.61,-376.18 204.43,-378.18 208.37,-380.01"/>
<polygon fill="midnightblue" stroke="midnightblue" points="207.15,-383.3 217.72,-383.97 209.88,-376.85 207.15,-383.3"/>
</g>
<!-- Node6 -->
<g id="node6" class="node">
<title>Node6</title>
<g id="a_node6"><a xlink:href="classextension_1_1Extension.html#a00ef6cd65250307287af24071c862a42" target="_top" xlink:title="Sleep internally for a given number of milliseconds.">
<polygon fill="none" stroke="black" points="218,-285 218,-315 337,-315 337,-285 218,-285"/>
<text text-anchor="start" x="226" y="-303" font-family="Helvetica,sans-Serif" font-size="10.00">extension::Extension</text>
<text text-anchor="middle" x="277.5" y="-292" font-family="Helvetica,sans-Serif" font-size="10.00">::extSleep</text>
</a>
</g>
</g>
<!-- Node1&#45;&gt;Node6 -->
<g id="edge6" class="edge">
<title>Node1&#45;&gt;Node6</title>
<path fill="none" stroke="midnightblue" d="M148.06,-271.02C167.32,-275.37 188.38,-280.12 207.77,-284.49"/>
<polygon fill="midnightblue" stroke="midnightblue" points="207.22,-287.95 217.74,-286.74 208.76,-281.13 207.22,-287.95"/>
</g>
<!-- Node7 -->
<g id="node7" class="node">
<title>Node7</title>
<g id="a_node7"><a xlink:href="namespaceubx.html#a38953bf12f38edbcb63bc5a878529d4c" target="_top" xlink:title=" ">
<polygon fill="none" stroke="black" points="439.5,-304.5 439.5,-323.5 538.5,-323.5 538.5,-304.5 439.5,-304.5"/>
<text text-anchor="middle" x="489" y="-311.5" font-family="Helvetica,sans-Serif" font-size="10.00">ubx::flushStream</text>
</a>
</g>
</g>
<!-- Node1&#45;&gt;Node7 -->
<g id="edge7" class="edge">
<title>Node1&#45;&gt;Node7</title>
<path fill="none" stroke="midnightblue" d="M161.08,-255.5C216.83,-256.67 292.74,-261.3 358,-276 374.75,-279.77 377.65,-284.76 394,-290 407.55,-294.35 422.4,-298.44 436.21,-301.97"/>
<polygon fill="midnightblue" stroke="midnightblue" points="435.49,-305.4 446.04,-304.44 437.2,-298.61 435.49,-305.4"/>
</g>
<!-- Node12 -->
<g id="node12" class="node">
<title>Node12</title>
<g id="a_node12"><a xlink:href="namespaceubx.html#aac1881b13eb8b71cece1b9d432cc5bae" target="_top" xlink:title=" ">
<polygon fill="none" stroke="black" points="234.5,-76.5 234.5,-95.5 320.5,-95.5 320.5,-76.5 234.5,-76.5"/>
<text text-anchor="middle" x="277.5" y="-83.5" font-family="Helvetica,sans-Serif" font-size="10.00">ubx::parsePVT</text>
</a>
</g>
</g>
<!-- Node1&#45;&gt;Node12 -->
<g id="edge13" class="edge">
<title>Node1&#45;&gt;Node12</title>
<path fill="none" stroke="midnightblue" d="M98.8,-240.91C135.2,-209.18 219.43,-135.75 257.37,-102.68"/>
<polygon fill="midnightblue" stroke="midnightblue" points="259.9,-105.11 265.14,-95.9 255.3,-99.84 259.9,-105.11"/>
</g>
<!-- Node16 -->
<g id="node16" class="node">
<title>Node16</title>
<g id="a_node16"><a xlink:href="namespaceubx.html#a5a8edb14df1ca1f59ff23d5c4b8b1f6e" target="_top" xlink:title="Poll a message and read it from the GPS.">
<polygon fill="none" stroke="black" points="226.5,-208.5 226.5,-227.5 328.5,-227.5 328.5,-208.5 226.5,-208.5"/>
<text text-anchor="middle" x="277.5" y="-215.5" font-family="Helvetica,sans-Serif" font-size="10.00">ubx::pollMessage</text>
</a>
</g>
</g>
<!-- Node1&#45;&gt;Node16 -->
<g id="edge17" class="edge">
<title>Node1&#45;&gt;Node16</title>
<path fill="none" stroke="midnightblue" d="M158.57,-240.98C178.33,-237.13 199.27,-233.05 217.93,-229.41"/>
<polygon fill="midnightblue" stroke="midnightblue" points="218.6,-232.85 227.75,-227.5 217.26,-225.98 218.6,-232.85"/>
</g>
<!-- Node21 -->
<g id="node21" class="node">
<title>Node21</title>
<g id="a_node21"><a xlink:href="group__SAMM8QState.html#ga7fd371ce423805c7393ba36867addeec" target="_top" xlink:title=" ">
<polygon fill="none" stroke="black" points="197,-27 197,-57 358,-57 358,-27 197,-27"/>
<text text-anchor="start" x="205" y="-45" font-family="Helvetica,sans-Serif" font-size="10.00">extension::SamM8qExtension</text>
<text text-anchor="middle" x="277.5" y="-34" font-family="Helvetica,sans-Serif" font-size="10.00">::transitionState</text>
</a>
</g>
</g>
<!-- Node1&#45;&gt;Node21 -->
<g id="edge26" class="edge">
<title>Node1&#45;&gt;Node21</title>
<path fill="none" stroke="midnightblue" d="M86.49,-240.97C99.09,-205.3 135.65,-114.96 197,-67 199.3,-65.2 201.73,-63.54 204.25,-61.99"/>
<polygon fill="midnightblue" stroke="midnightblue" points="206.03,-65 213.16,-57.16 202.7,-58.85 206.03,-65"/>
</g>
<!-- Node3 -->
<g id="node3" class="node">
<title>Node3</title>
<g id="a_node3"><a xlink:href="classdata_1_1Stream.html#a1ff9a93190dbecdc2ffa27deaaa4266a" target="_top" xlink:title=" ">
<polygon fill="none" stroke="black" points="421.5,-385.5 421.5,-404.5 556.5,-404.5 556.5,-385.5 421.5,-385.5"/>
<text text-anchor="middle" x="489" y="-392.5" font-family="Helvetica,sans-Serif" font-size="10.00">data::Stream::addPacket</text>
</a>
</g>
</g>
<!-- Node2&#45;&gt;Node3 -->
<g id="edge2" class="edge">
<title>Node2&#45;&gt;Node3</title>
<path fill="none" stroke="midnightblue" d="M337.14,-361.87C367.81,-368.61 405.06,-376.79 434.88,-383.34"/>
<polygon fill="midnightblue" stroke="midnightblue" points="434.17,-386.76 444.69,-385.49 435.67,-379.93 434.17,-386.76"/>
</g>
<!-- Node4 -->
<g id="node4" class="node">
<title>Node4</title>
<g id="a_node4"><a xlink:href="namespaceutil.html#a1b719a9f1cb3fb7e7550bf723015fe9e" target="_top" xlink:title=" ">
<polygon fill="none" stroke="black" points="448.5,-342.5 448.5,-361.5 529.5,-361.5 529.5,-342.5 448.5,-342.5"/>
<text text-anchor="middle" x="489" y="-349.5" font-family="Helvetica,sans-Serif" font-size="10.00">util::to_string</text>
</a>
</g>
</g>
<!-- Node2&#45;&gt;Node4 -->
<g id="edge3" class="edge">
<title>Node2&#45;&gt;Node4</title>
<path fill="none" stroke="midnightblue" d="M337.14,-349.84C368.86,-350.29 407.64,-350.85 437.94,-351.28"/>
<polygon fill="midnightblue" stroke="midnightblue" points="438.23,-354.79 448.27,-351.43 438.33,-347.79 438.23,-354.79"/>
</g>
<!-- Node5&#45;&gt;Node3 -->
<g id="edge5" class="edge">
<title>Node5&#45;&gt;Node3</title>
<path fill="none" stroke="midnightblue" d="M337.14,-397.16C360.01,-396.83 386.56,-396.45 410.95,-396.1"/>
<polygon fill="midnightblue" stroke="midnightblue" points="411.3,-399.6 421.25,-395.96 411.2,-392.6 411.3,-399.6"/>
</g>
<!-- Node8 -->
<g id="node8" class="node">
<title>Node8</title>
<g id="a_node8"><a xlink:href="namespaceubx.html#a138e86b90eb81df7287b0687e2e647fd" target="_top" xlink:title=" ">
<polygon fill="none" stroke="black" points="652,-266.5 652,-285.5 764,-285.5 764,-266.5 652,-266.5"/>
<text text-anchor="middle" x="708" y="-273.5" font-family="Helvetica,sans-Serif" font-size="10.00">ubx::getStreamSize</text>
</a>
</g>
</g>
<!-- Node7&#45;&gt;Node8 -->
<g id="edge8" class="edge">
<title>Node7&#45;&gt;Node8</title>
<path fill="none" stroke="midnightblue" d="M538.7,-305.47C569.39,-300.1 609.36,-293.1 642.65,-287.27"/>
<polygon fill="midnightblue" stroke="midnightblue" points="643.5,-290.67 652.75,-285.5 642.29,-283.78 643.5,-290.67"/>
</g>
<!-- Node11 -->
<g id="node11" class="node">
<title>Node11</title>
<g id="a_node11"><a xlink:href="classI2cInterface.html#a6d5b6e7730132098f302a33f90e0b19d" target="_top" xlink:title="Read a chunk of data from the device at the specified register.">
<polygon fill="none" stroke="black" points="620,-209.5 620,-228.5 796,-228.5 796,-209.5 620,-209.5"/>
<text text-anchor="middle" x="708" y="-216.5" font-family="Helvetica,sans-Serif" font-size="10.00">I2cInterface::readChunkFromReg</text>
</a>
</g>
</g>
<!-- Node7&#45;&gt;Node11 -->
<g id="edge11" class="edge">
<title>Node7&#45;&gt;Node11</title>
<path fill="none" stroke="midnightblue" d="M512.08,-304.31C537.94,-292.96 582.07,-273.6 620,-257 638.55,-248.88 659.34,-239.8 675.94,-232.55"/>
<polygon fill="midnightblue" stroke="midnightblue" points="677.42,-235.73 685.19,-228.52 674.62,-229.31 677.42,-235.73"/>
</g>
<!-- Node9 -->
<g id="node9" class="node">
<title>Node9</title>
<g id="a_node9"><a xlink:href="classI2cInterface.html#ad067c20fef20b8338d0e4ec12dc94ec6" target="_top" xlink:title="Read a single byte from the device at the specified register.">
<polygon fill="none" stroke="black" points="832,-257.5 832,-276.5 1000,-276.5 1000,-257.5 832,-257.5"/>
<text text-anchor="middle" x="916" y="-264.5" font-family="Helvetica,sans-Serif" font-size="10.00">I2cInterface::readByteFromReg</text>
</a>
</g>
</g>
<!-- Node8&#45;&gt;Node9 -->
<g id="edge9" class="edge">
<title>Node8&#45;&gt;Node9</title>
<path fill="none" stroke="midnightblue" d="M764.2,-273.59C781.86,-272.82 801.93,-271.94 821.53,-271.08"/>
<polygon fill="midnightblue" stroke="midnightblue" points="821.89,-274.57 831.73,-270.64 821.58,-267.58 821.89,-274.57"/>
</g>
<!-- Node10 -->
<g id="node10" class="node">
<title>Node10</title>
<g id="a_node10"><a xlink:href="classI2cInterface.html#a13c00b7b0597cc2223a9a0765afcbf85" target="_top" xlink:title="Checks the file descriptor to see if it&#39;s connected to the bus.">
<polygon fill="none" stroke="black" points="1036,-209.5 1036,-228.5 1176,-228.5 1176,-209.5 1036,-209.5"/>
<text text-anchor="middle" x="1106" y="-216.5" font-family="Helvetica,sans-Serif" font-size="10.00">I2cInterface::isConnected</text>
</a>
</g>
</g>
<!-- Node9&#45;&gt;Node10 -->
<g id="edge10" class="edge">
<title>Node9&#45;&gt;Node10</title>
<path fill="none" stroke="midnightblue" d="M954.59,-257.4C984.18,-249.85 1025.6,-239.27 1057.48,-231.13"/>
<polygon fill="midnightblue" stroke="midnightblue" points="1058.65,-234.45 1067.47,-228.58 1056.92,-227.66 1058.65,-234.45"/>
</g>
<!-- Node11&#45;&gt;Node10 -->
<g id="edge12" class="edge">
<title>Node11&#45;&gt;Node10</title>
<path fill="none" stroke="midnightblue" d="M796.39,-219C864.82,-219 959.2,-219 1025.52,-219"/>
<polygon fill="midnightblue" stroke="midnightblue" points="1025.91,-222.5 1035.91,-219 1025.91,-215.5 1025.91,-222.5"/>
</g>
<!-- Node13 -->
<g id="node13" class="node">
<title>Node13</title>
<g id="a_node13"><a xlink:href="ubx__protocol_8cpp.html#aac1497047d0d74fb9b27aa1f8e2d60d3" target="_top" xlink:title=" ">
<polygon fill="none" stroke="black" points="462.5,-38.5 462.5,-57.5 515.5,-57.5 515.5,-38.5 462.5,-38.5"/>
<text text-anchor="middle" x="489" y="-45.5" font-family="Helvetica,sans-Serif" font-size="10.00">parseI4</text>
</a>
</g>
</g>
<!-- Node12&#45;&gt;Node13 -->
<g id="edge14" class="edge">
<title>Node12&#45;&gt;Node13</title>
<path fill="none" stroke="midnightblue" d="M320.64,-78.36C359.25,-71.35 415.78,-61.1 452.23,-54.49"/>
<polygon fill="midnightblue" stroke="midnightblue" points="453.19,-57.87 462.41,-52.64 451.94,-50.98 453.19,-57.87"/>
</g>
<!-- Node14 -->
<g id="node14" class="node">
<title>Node14</title>
<g id="a_node14"><a xlink:href="ubx__protocol_8cpp.html#ab2fd136664c112f28bd1f154f1308556" target="_top" xlink:title=" ">
<polygon fill="none" stroke="black" points="460.5,-0.5 460.5,-19.5 517.5,-19.5 517.5,-0.5 460.5,-0.5"/>
<text text-anchor="middle" x="489" y="-7.5" font-family="Helvetica,sans-Serif" font-size="10.00">parseU2</text>
</a>
</g>
</g>
<!-- Node12&#45;&gt;Node14 -->
<g id="edge15" class="edge">
<title>Node12&#45;&gt;Node14</title>
<path fill="none" stroke="midnightblue" d="M320.61,-79.94C333.2,-76.96 346.66,-72.54 358,-66 377.88,-54.54 373.86,-39.99 394,-29 411.11,-19.67 432.22,-14.9 450.1,-12.47"/>
<polygon fill="midnightblue" stroke="midnightblue" points="450.67,-15.93 460.2,-11.29 449.86,-8.98 450.67,-15.93"/>
</g>
<!-- Node15 -->
<g id="node15" class="node">
<title>Node15</title>
<g id="a_node15"><a xlink:href="ubx__protocol_8cpp.html#abc351454235aaae61a87dca91bb69faf" target="_top" xlink:title=" ">
<polygon fill="none" stroke="black" points="460.5,-76.5 460.5,-95.5 517.5,-95.5 517.5,-76.5 460.5,-76.5"/>
<text text-anchor="middle" x="489" y="-83.5" font-family="Helvetica,sans-Serif" font-size="10.00">parseU4</text>
</a>
</g>
</g>
<!-- Node12&#45;&gt;Node15 -->
<g id="edge16" class="edge">
<title>Node12&#45;&gt;Node15</title>
<path fill="none" stroke="midnightblue" d="M320.64,-86C358.49,-86 413.56,-86 450.06,-86"/>
<polygon fill="midnightblue" stroke="midnightblue" points="450.29,-89.5 460.29,-86 450.29,-82.5 450.29,-89.5"/>
</g>
<!-- Node16&#45;&gt;Node7 -->
<g id="edge18" class="edge">
<title>Node16&#45;&gt;Node7</title>
<path fill="none" stroke="midnightblue" d="M327.82,-227.6C338.37,-231.05 349.02,-235.72 358,-242 379.85,-257.28 371.82,-275.19 394,-290 404.5,-297.01 416.91,-301.97 429.21,-305.49"/>
<polygon fill="midnightblue" stroke="midnightblue" points="428.46,-308.91 439.02,-308 430.2,-302.13 428.46,-308.91"/>
</g>
<!-- Node16&#45;&gt;Node8 -->
<g id="edge19" class="edge">
<title>Node16&#45;&gt;Node8</title>
<path fill="none" stroke="midnightblue" d="M301.02,-227.6C323.96,-236.89 360.77,-250.5 394,-257 478.39,-273.51 577.8,-276.88 641.57,-277.04"/>
<polygon fill="midnightblue" stroke="midnightblue" points="641.88,-280.54 651.88,-277.04 641.88,-273.54 641.88,-280.54"/>
</g>
<!-- Node16&#45;&gt;Node11 -->
<g id="edge20" class="edge">
<title>Node16&#45;&gt;Node11</title>
<path fill="none" stroke="midnightblue" d="M301,-208.49C323.92,-199.35 360.71,-186.2 394,-181 477.43,-167.96 500.5,-168.4 584,-181 615.27,-185.72 649.55,-196.83 673.96,-205.83"/>
<polygon fill="midnightblue" stroke="midnightblue" points="672.86,-209.15 683.46,-209.4 675.33,-202.6 672.86,-209.15"/>
</g>
<!-- Node17 -->
<g id="node17" class="node">
<title>Node17</title>
<g id="a_node17"><a xlink:href="structubx_1_1UBXMessage.html#a8df918b403f338508a235d7378238d3b" target="_top" xlink:title=" ">
<polygon fill="none" stroke="black" points="394,-228.5 394,-247.5 584,-247.5 584,-228.5 394,-228.5"/>
<text text-anchor="middle" x="489" y="-235.5" font-family="Helvetica,sans-Serif" font-size="10.00">ubx::UBXMessage::verifyChecksum</text>
</a>
</g>
</g>
<!-- Node16&#45;&gt;Node17 -->
<g id="edge21" class="edge">
<title>Node16&#45;&gt;Node17</title>
<path fill="none" stroke="midnightblue" d="M328.68,-222.79C345.38,-224.38 364.65,-226.22 383.88,-228.06"/>
<polygon fill="midnightblue" stroke="midnightblue" points="383.64,-231.55 393.93,-229.02 384.31,-224.58 383.64,-231.55"/>
</g>
<!-- Node18 -->
<g id="node18" class="node">
<title>Node18</title>
<g id="a_node18"><a xlink:href="ubx__protocol_8cpp.html#aff3446e9fa0ac3c89fcf1a3e75ccbb2c" target="_top" xlink:title=" ">
<polygon fill="none" stroke="black" points="470,-190.5 470,-209.5 508,-209.5 508,-190.5 470,-190.5"/>
<text text-anchor="middle" x="489" y="-197.5" font-family="Helvetica,sans-Serif" font-size="10.00">wait</text>
</a>
</g>
</g>
<!-- Node16&#45;&gt;Node18 -->
<g id="edge22" class="edge">
<title>Node16&#45;&gt;Node18</title>
<path fill="none" stroke="midnightblue" d="M328.68,-213.69C369.75,-210.16 426.35,-205.3 459.86,-202.42"/>
<polygon fill="midnightblue" stroke="midnightblue" points="460.22,-205.9 469.88,-201.56 459.62,-198.93 460.22,-205.9"/>
</g>
<!-- Node19 -->
<g id="node19" class="node">
<title>Node19</title>
<g id="a_node19"><a xlink:href="namespaceubx.html#a9c61bbe6a93b89e72b9102bfd1b5fa0e" target="_top" xlink:title=" ">
<polygon fill="none" stroke="black" points="446,-114.5 446,-133.5 532,-133.5 532,-114.5 446,-114.5"/>
<text text-anchor="middle" x="489" y="-121.5" font-family="Helvetica,sans-Serif" font-size="10.00">ubx::writeUBX</text>
</a>
</g>
</g>
<!-- Node16&#45;&gt;Node19 -->
<g id="edge23" class="edge">
<title>Node16&#45;&gt;Node19</title>
<path fill="none" stroke="midnightblue" d="M291.33,-208.47C311.96,-193.55 354.22,-164.7 394,-148 407.25,-142.44 422.1,-137.92 436.02,-134.37"/>
<polygon fill="midnightblue" stroke="midnightblue" points="437.07,-137.71 445.96,-131.95 435.41,-130.91 437.07,-137.71"/>
</g>
<!-- Node20 -->
<g id="node20" class="node">
<title>Node20</title>
<g id="a_node20"><a xlink:href="classI2cInterface.html#ad2c0dca6c1c239a1c4aba651035b6bff" target="_top" xlink:title="Write a chunk of data to the device at the specified register.">
<polygon fill="none" stroke="black" points="848,-162.5 848,-181.5 984,-181.5 984,-162.5 848,-162.5"/>
<text text-anchor="middle" x="916" y="-169.5" font-family="Helvetica,sans-Serif" font-size="10.00">I2cInterface::writeChunk</text>
</a>
</g>
</g>
<!-- Node19&#45;&gt;Node20 -->
<g id="edge24" class="edge">
<title>Node19&#45;&gt;Node20</title>
<path fill="none" stroke="midnightblue" d="M532.3,-128.78C603.47,-136.82 748.12,-153.15 837.78,-163.28"/>
<polygon fill="midnightblue" stroke="midnightblue" points="837.56,-166.78 847.89,-164.42 838.35,-159.82 837.56,-166.78"/>
</g>
<!-- Node20&#45;&gt;Node10 -->
<g id="edge25" class="edge">
<title>Node20&#45;&gt;Node10</title>
<path fill="none" stroke="midnightblue" d="M955.04,-181.51C984.38,-188.84 1025.15,-199.04 1056.77,-206.94"/>
<polygon fill="midnightblue" stroke="midnightblue" points="1056.14,-210.39 1066.69,-209.42 1057.84,-203.6 1056.14,-210.39"/>
</g>
</g>
</svg>
