<?xml version="1.0" encoding="UTF-8" standalone="no"?>
<!DOCTYPE svg PUBLIC "-//W3C//DTD SVG 1.1//EN"
 "http://www.w3.org/Graphics/SVG/1.1/DTD/svg11.dtd">
<!-- Generated by graphviz version 2.43.0 (0)
 -->
<!-- Title: RequestRouter::sendErrorPacket Pages: 1 -->
<svg width="782pt" height="298pt"
 viewBox="0.00 0.00 782.00 298.00" xmlns="http://www.w3.org/2000/svg" xmlns:xlink="http://www.w3.org/1999/xlink">
<g id="graph0" class="graph" transform="scale(1 1) rotate(0) translate(4 294)">
<title>RequestRouter::sendErrorPacket</title>
<!-- Node1 -->
<g id="node1" class="node">
<title>Node1</title>
<g id="a_node1"><a xlink:title="This function is the generic error response function.">
<polygon fill="#bfbfbf" stroke="black" points="633,-127.5 633,-157.5 774,-157.5 774,-127.5 633,-127.5"/>
<text text-anchor="start" x="641" y="-145.5" font-family="Helvetica,sans-Serif" font-size="10.00">RequestRouter::sendError</text>
<text text-anchor="middle" x="703.5" y="-134.5" font-family="Helvetica,sans-Serif" font-size="10.00">Packet</text>
</a>
</g>
</g>
<!-- Node2 -->
<g id="node2" class="node">
<title>Node2</title>
<g id="a_node2"><a xlink:href="group__ServerModule.html#a493ddf0161bba462a169e510c5215990" target="_top" xlink:title="A special handler for updating ADC mapping settings.">
<polygon fill="none" stroke="black" points="436,-259.5 436,-289.5 582,-289.5 582,-259.5 436,-259.5"/>
<text text-anchor="start" x="444" y="-277.5" font-family="Helvetica,sans-Serif" font-size="10.00">RequestRouter::handleAdc</text>
<text text-anchor="middle" x="509" y="-266.5" font-family="Helvetica,sans-Serif" font-size="10.00">MappingSettingUpdate</text>
</a>
</g>
</g>
<!-- Node1&#45;&gt;Node2 -->
<g id="edge1" class="edge">
<title>Node1&#45;&gt;Node2</title>
<path fill="none" stroke="midnightblue" d="M683.89,-165.65C664.4,-188.53 631.81,-223.14 597,-244.5 587.33,-250.43 576.33,-255.38 565.49,-259.44"/>
<polygon fill="midnightblue" stroke="midnightblue" points="686.73,-167.71 690.46,-157.79 681.36,-163.22 686.73,-167.71"/>
</g>
<!-- Node3 -->
<g id="node3" class="node">
<title>Node3</title>
<g id="a_node3"><a xlink:href="group__ServerModule.html#a1d58bc2e5fc57191959bc60a89b61ec5" target="_top" xlink:title="This function handles a setting SET request. It will attempt to set the configuration with the value ...">
<polygon fill="none" stroke="black" points="207,-196 207,-215 385,-215 385,-196 207,-196"/>
<text text-anchor="middle" x="296" y="-203" font-family="Helvetica,sans-Serif" font-size="10.00">RequestRouter::handleSettingSet</text>
</a>
</g>
</g>
<!-- Node1&#45;&gt;Node3 -->
<g id="edge13" class="edge">
<title>Node1&#45;&gt;Node3</title>
<path fill="none" stroke="midnightblue" d="M678.03,-164.14C657.86,-180.44 627.68,-201.47 597,-210.5 511.3,-235.73 405.79,-224.91 345.47,-215.02"/>
<polygon fill="midnightblue" stroke="midnightblue" points="680.31,-166.8 685.77,-157.72 675.84,-161.41 680.31,-166.8"/>
</g>
<!-- Node4 -->
<g id="node4" class="node">
<title>Node4</title>
<g id="a_node4"><a xlink:href="group__ServerModule.html#ad77e0ae3d2cd0daba1388e7d7ffa1393" target="_top" xlink:title="This function is responsible for parsing a request and routing it to the right place.">
<polygon fill="none" stroke="black" points="0,-92 0,-111 171,-111 171,-92 0,-92"/>
<text text-anchor="middle" x="85.5" y="-99" font-family="Helvetica,sans-Serif" font-size="10.00">RequestRouter::handleMessage</text>
</a>
</g>
</g>
<!-- Node1&#45;&gt;Node4 -->
<g id="edge10" class="edge">
<title>Node1&#45;&gt;Node4</title>
<path fill="none" stroke="midnightblue" d="M622.75,-143.73C524.59,-144.34 352.96,-142.43 207,-125.5 179.67,-122.33 149.28,-116.26 125.86,-111.02"/>
<polygon fill="midnightblue" stroke="midnightblue" points="622.92,-147.23 632.89,-143.66 622.87,-140.23 622.92,-147.23"/>
</g>
<!-- Node5 -->
<g id="node5" class="node">
<title>Node5</title>
<g id="a_node5"><a xlink:href="group__ServerModule.html#a959bc2e0cb68a835d4304e1204f64c69" target="_top" xlink:title="This function parses a command request, sends it to the command queue and sends a simple response bac...">
<polygon fill="none" stroke="black" points="207,-86.5 207,-116.5 385,-116.5 385,-86.5 207,-86.5"/>
<text text-anchor="start" x="215" y="-104.5" font-family="Helvetica,sans-Serif" font-size="10.00">RequestRouter::handleCommand</text>
<text text-anchor="middle" x="296" y="-93.5" font-family="Helvetica,sans-Serif" font-size="10.00">Request</text>
</a>
</g>
</g>
<!-- Node1&#45;&gt;Node5 -->
<g id="edge4" class="edge">
<title>Node1&#45;&gt;Node5</title>
<path fill="none" stroke="midnightblue" d="M622.64,-131.54C613.99,-130.46 605.32,-129.43 597,-128.5 525.8,-120.58 444.89,-113.4 385.05,-108.44"/>
<polygon fill="midnightblue" stroke="midnightblue" points="622.39,-135.04 632.75,-132.82 623.27,-128.09 622.39,-135.04"/>
</g>
<!-- Node6 -->
<g id="node6" class="node">
<title>Node6</title>
<g id="a_node6"><a xlink:href="group__ServerModule.html#a483e4efc0deb643ee4fdef7cb88f66b7" target="_top" xlink:title="This function responds to data requests.">
<polygon fill="none" stroke="black" points="220.5,-37.5 220.5,-67.5 371.5,-67.5 371.5,-37.5 220.5,-37.5"/>
<text text-anchor="start" x="228.5" y="-55.5" font-family="Helvetica,sans-Serif" font-size="10.00">RequestRouter::handleData</text>
<text text-anchor="middle" x="296" y="-44.5" font-family="Helvetica,sans-Serif" font-size="10.00">Request</text>
</a>
</g>
</g>
<!-- Node1&#45;&gt;Node6 -->
<g id="edge6" class="edge">
<title>Node1&#45;&gt;Node6</title>
<path fill="none" stroke="midnightblue" d="M650.32,-124.23C633.43,-118.71 614.54,-112.94 597,-108.5 520.99,-89.24 432.6,-73.53 371.54,-63.71"/>
<polygon fill="midnightblue" stroke="midnightblue" points="649.4,-127.62 660,-127.44 651.61,-120.97 649.4,-127.62"/>
</g>
<!-- Node7 -->
<g id="node7" class="node">
<title>Node7</title>
<g id="a_node7"><a xlink:href="group__ServerModule.html#af41f65e7470ab4490dfa655ead0a7f88" target="_top" xlink:title="A special handler for updating extension settings.">
<polygon fill="none" stroke="black" points="421,-171.5 421,-201.5 597,-201.5 597,-171.5 421,-171.5"/>
<text text-anchor="start" x="429" y="-189.5" font-family="Helvetica,sans-Serif" font-size="10.00">RequestRouter::handleExtension</text>
<text text-anchor="middle" x="509" y="-178.5" font-family="Helvetica,sans-Serif" font-size="10.00">SettingUpdate</text>
</a>
</g>
</g>
<!-- Node1&#45;&gt;Node7 -->
<g id="edge8" class="edge">
<title>Node1&#45;&gt;Node7</title>
<path fill="none" stroke="midnightblue" d="M626.95,-159.77C610.03,-163.64 592.22,-167.71 575.74,-171.47"/>
<polygon fill="midnightblue" stroke="midnightblue" points="627.82,-163.16 636.79,-157.52 626.26,-156.34 627.82,-163.16"/>
</g>
<!-- Node8 -->
<g id="node8" class="node">
<title>Node8</title>
<g id="a_node8"><a xlink:href="group__ServerModule.html#a4209bc198222e3efa2a77501a0f7a71d" target="_top" xlink:title="This function responds to a setting request.">
<polygon fill="none" stroke="black" points="428,-0.5 428,-30.5 590,-30.5 590,-0.5 428,-0.5"/>
<text text-anchor="start" x="436" y="-18.5" font-family="Helvetica,sans-Serif" font-size="10.00">RequestRouter::handleSetting</text>
<text text-anchor="middle" x="509" y="-7.5" font-family="Helvetica,sans-Serif" font-size="10.00">Request</text>
</a>
</g>
</g>
<!-- Node1&#45;&gt;Node8 -->
<g id="edge11" class="edge">
<title>Node1&#45;&gt;Node8</title>
<path fill="none" stroke="midnightblue" d="M683,-119.81C663.25,-98.08 630.88,-65.7 597,-45.5 587.12,-39.61 575.92,-34.66 564.91,-30.58"/>
<polygon fill="midnightblue" stroke="midnightblue" points="680.41,-122.16 689.68,-127.29 685.63,-117.5 680.41,-122.16"/>
</g>
<!-- Node2&#45;&gt;Node3 -->
<g id="edge2" class="edge">
<title>Node2&#45;&gt;Node3</title>
<path fill="none" stroke="midnightblue" d="M452.21,-256.26C411.69,-243.01 358.49,-225.61 326.07,-215.01"/>
<polygon fill="midnightblue" stroke="midnightblue" points="451.36,-259.66 461.96,-259.44 453.54,-253.01 451.36,-259.66"/>
</g>
<!-- Node3&#45;&gt;Node4 -->
<g id="edge3" class="edge">
<title>Node3&#45;&gt;Node4</title>
<path fill="none" stroke="midnightblue" d="M266.66,-191.36C223.54,-169.86 142.59,-129.48 105.69,-111.07"/>
<polygon fill="midnightblue" stroke="midnightblue" points="265.25,-194.57 275.76,-195.9 268.37,-188.31 265.25,-194.57"/>
</g>
<!-- Node5&#45;&gt;Node4 -->
<g id="edge5" class="edge">
<title>Node5&#45;&gt;Node4</title>
<path fill="none" stroke="midnightblue" d="M196.61,-101.5C188.15,-101.5 179.65,-101.5 171.31,-101.5"/>
<polygon fill="midnightblue" stroke="midnightblue" points="196.88,-105 206.88,-101.5 196.88,-98 196.88,-105"/>
</g>
<!-- Node6&#45;&gt;Node4 -->
<g id="edge7" class="edge">
<title>Node6&#45;&gt;Node4</title>
<path fill="none" stroke="midnightblue" d="M220.93,-69.91C189.33,-77.33 153.68,-85.71 127.04,-91.97"/>
<polygon fill="midnightblue" stroke="midnightblue" points="222.09,-73.23 231.03,-67.53 220.49,-66.42 222.09,-73.23"/>
</g>
<!-- Node7&#45;&gt;Node3 -->
<g id="edge9" class="edge">
<title>Node7&#45;&gt;Node3</title>
<path fill="none" stroke="midnightblue" d="M410.94,-195.24C402.36,-196.01 393.7,-196.79 385.2,-197.56"/>
<polygon fill="midnightblue" stroke="midnightblue" points="411.31,-198.72 420.96,-194.34 410.69,-191.75 411.31,-198.72"/>
</g>
<!-- Node8&#45;&gt;Node4 -->
<g id="edge12" class="edge">
<title>Node8&#45;&gt;Node4</title>
<path fill="none" stroke="midnightblue" d="M417.56,-7.34C356.73,-4.68 275.46,-6.67 207,-27.5 162.37,-41.07 117.61,-75.26 97.5,-91.99"/>
<polygon fill="midnightblue" stroke="midnightblue" points="417.75,-10.86 427.91,-7.85 418.09,-3.86 417.75,-10.86"/>
</g>
</g>
</svg>
