<?xml version="1.0" encoding="UTF-8" standalone="no"?>
<!DOCTYPE svg PUBLIC "-//W3C//DTD SVG 1.1//EN"
 "http://www.w3.org/Graphics/SVG/1.1/DTD/svg11.dtd">
<!-- Generated by graphviz version 2.43.0 (0)
 -->
<!-- Title: i2c_extension_adapter.hpp Pages: 1 -->
<svg width="1896pt" height="487pt"
 viewBox="0.00 0.00 1896.00 487.00" xmlns="http://www.w3.org/2000/svg" xmlns:xlink="http://www.w3.org/1999/xlink">
<g id="graph0" class="graph" transform="scale(1 1) rotate(0) translate(4 483)">
<title>i2c_extension_adapter.hpp</title>
<!-- Node1 -->
<g id="node1" class="node">
<title>Node1</title>
<g id="a_node1"><a xlink:title="Adapter for I2C Extensions.">
<polygon fill="#bfbfbf" stroke="black" points="582.5,-459.5 582.5,-478.5 729.5,-478.5 729.5,-459.5 582.5,-459.5"/>
<text text-anchor="middle" x="656" y="-466.5" font-family="Helvetica,sans-Serif" font-size="10.00">i2c_extension_adapter.hpp</text>
</a>
</g>
</g>
<!-- Node2 -->
<g id="node2" class="node">
<title>Node2</title>
<g id="a_node2"><a xlink:title=" ">
<polygon fill="none" stroke="#bfbfbf" points="380,-403.5 380,-422.5 506,-422.5 506,-403.5 380,-403.5"/>
<text text-anchor="middle" x="443" y="-410.5" font-family="Helvetica,sans-Serif" font-size="10.00">BoosterSeat/sleep.hpp</text>
</a>
</g>
</g>
<!-- Node1&#45;&gt;Node2 -->
<g id="edge1" class="edge">
<title>Node1&#45;&gt;Node2</title>
<path fill="none" stroke="midnightblue" d="M622.25,-459.44C585.48,-450.12 526.55,-435.18 486.38,-425"/>
<polygon fill="midnightblue" stroke="midnightblue" points="487.15,-421.58 476.59,-422.52 485.43,-428.37 487.15,-421.58"/>
</g>
<!-- Node3 -->
<g id="node3" class="node">
<title>Node3</title>
<g id="a_node3"><a xlink:title=" ">
<polygon fill="none" stroke="#bfbfbf" points="524.5,-403.5 524.5,-422.5 649.5,-422.5 649.5,-403.5 524.5,-403.5"/>
<text text-anchor="middle" x="587" y="-410.5" font-family="Helvetica,sans-Serif" font-size="10.00">BoosterSeat/timer.hpp</text>
</a>
</g>
</g>
<!-- Node1&#45;&gt;Node3 -->
<g id="edge2" class="edge">
<title>Node1&#45;&gt;Node3</title>
<path fill="none" stroke="midnightblue" d="M644.91,-459.32C634.51,-451.18 618.74,-438.84 606.28,-429.09"/>
<polygon fill="midnightblue" stroke="midnightblue" points="608.32,-426.24 598.29,-422.83 604.01,-431.75 608.32,-426.24"/>
</g>
<!-- Node4 -->
<g id="node4" class="node">
<title>Node4</title>
<g id="a_node4"><a xlink:href="extension__base_8hpp.html" target="_top" xlink:title="The new implementation of the extension system.">
<polygon fill="none" stroke="black" points="668,-403.5 668,-422.5 782,-422.5 782,-403.5 668,-403.5"/>
<text text-anchor="middle" x="725" y="-410.5" font-family="Helvetica,sans-Serif" font-size="10.00">extension_base.hpp</text>
</a>
</g>
</g>
<!-- Node1&#45;&gt;Node4 -->
<g id="edge3" class="edge">
<title>Node1&#45;&gt;Node4</title>
<path fill="none" stroke="midnightblue" d="M667.09,-459.32C677.49,-451.18 693.26,-438.84 705.72,-429.09"/>
<polygon fill="midnightblue" stroke="midnightblue" points="707.99,-431.75 713.71,-422.83 703.68,-426.24 707.99,-431.75"/>
</g>
<!-- Node34 -->
<g id="node34" class="node">
<title>Node34</title>
<g id="a_node34"><a xlink:href="i2c__interface_8hpp.html" target="_top" xlink:title="A wrapper around I2C communication.">
<polygon fill="none" stroke="black" points="1331.5,-347.5 1331.5,-366.5 1432.5,-366.5 1432.5,-347.5 1331.5,-347.5"/>
<text text-anchor="middle" x="1382" y="-354.5" font-family="Helvetica,sans-Serif" font-size="10.00">i2c_interface.hpp</text>
</a>
</g>
</g>
<!-- Node1&#45;&gt;Node34 -->
<g id="edge50" class="edge">
<title>Node1&#45;&gt;Node34</title>
<path fill="none" stroke="midnightblue" d="M712.36,-459.46C846.27,-439.17 1182.62,-388.21 1321.04,-367.24"/>
<polygon fill="midnightblue" stroke="midnightblue" points="1321.69,-370.68 1331.05,-365.72 1320.64,-363.76 1321.69,-370.68"/>
</g>
<!-- Node5 -->
<g id="node5" class="node">
<title>Node5</title>
<g id="a_node5"><a xlink:title=" ">
<polygon fill="none" stroke="#bfbfbf" points="164,-62 164,-81 214,-81 214,-62 164,-62"/>
<text text-anchor="middle" x="189" y="-69" font-family="Helvetica,sans-Serif" font-size="10.00">atomic</text>
</a>
</g>
</g>
<!-- Node4&#45;&gt;Node5 -->
<g id="edge4" class="edge">
<title>Node4&#45;&gt;Node5</title>
<path fill="none" stroke="midnightblue" d="M671.59,-403.5C525.83,-380.11 132,-315.65 132,-302 132,-302 132,-302 132,-188 132,-149.28 158.07,-110.1 174.95,-88.8"/>
<polygon fill="midnightblue" stroke="midnightblue" points="177.67,-91.01 181.31,-81.06 172.26,-86.56 177.67,-91.01"/>
</g>
<!-- Node6 -->
<g id="node6" class="node">
<title>Node6</title>
<g id="a_node6"><a xlink:title=" ">
<polygon fill="none" stroke="#bfbfbf" points="874,-347.5 874,-366.5 922,-366.5 922,-347.5 874,-347.5"/>
<text text-anchor="middle" x="898" y="-354.5" font-family="Helvetica,sans-Serif" font-size="10.00">thread</text>
</a>
</g>
</g>
<!-- Node4&#45;&gt;Node6 -->
<g id="edge5" class="edge">
<title>Node4&#45;&gt;Node6</title>
<path fill="none" stroke="midnightblue" d="M752.41,-403.44C782.72,-393.98 831.56,-378.74 864.21,-368.55"/>
<polygon fill="midnightblue" stroke="midnightblue" points="865.28,-371.88 873.79,-365.56 863.2,-365.2 865.28,-371.88"/>
</g>
<!-- Node7 -->
<g id="node7" class="node">
<title>Node7</title>
<g id="a_node7"><a xlink:title=" ">
<polygon fill="none" stroke="#bfbfbf" points="0,-347.5 0,-366.5 104,-366.5 104,-347.5 0,-347.5"/>
<text text-anchor="middle" x="52" y="-354.5" font-family="Helvetica,sans-Serif" font-size="10.00">giraffe_debug.hpp</text>
</a>
</g>
</g>
<!-- Node4&#45;&gt;Node7 -->
<g id="edge6" class="edge">
<title>Node4&#45;&gt;Node7</title>
<path fill="none" stroke="midnightblue" d="M667.65,-404.04C664.39,-403.67 661.15,-403.32 658,-403 418.67,-378.98 357.31,-391.26 118,-367 116.74,-366.87 115.46,-366.74 114.18,-366.6"/>
<polygon fill="midnightblue" stroke="midnightblue" points="114.53,-363.12 104.2,-365.46 113.74,-370.07 114.53,-363.12"/>
</g>
<!-- Node8 -->
<g id="node8" class="node">
<title>Node8</title>
<g id="a_node8"><a xlink:href="cfg__extensions_8hpp.html" target="_top" xlink:title="The header file for the extensions section of the configuration.">
<polygon fill="none" stroke="black" points="700.5,-347.5 700.5,-366.5 855.5,-366.5 855.5,-347.5 700.5,-347.5"/>
<text text-anchor="middle" x="778" y="-354.5" font-family="Helvetica,sans-Serif" font-size="10.00">sections/cfg_extensions.hpp</text>
</a>
</g>
</g>
<!-- Node4&#45;&gt;Node8 -->
<g id="edge7" class="edge">
<title>Node4&#45;&gt;Node8</title>
<path fill="none" stroke="midnightblue" d="M733.75,-403.08C741.47,-395.22 752.9,-383.57 762.22,-374.08"/>
<polygon fill="midnightblue" stroke="midnightblue" points="764.9,-376.34 769.41,-366.75 759.91,-371.44 764.9,-376.34"/>
</g>
<!-- Node11 -->
<g id="node11" class="node">
<title>Node11</title>
<g id="a_node11"><a xlink:href="shared__data_8hpp.html" target="_top" xlink:title="Contains the SharedData struct, used across all modules and extensions.">
<polygon fill="none" stroke="black" points="717,-235.5 717,-254.5 815,-254.5 815,-235.5 717,-235.5"/>
<text text-anchor="middle" x="766" y="-242.5" font-family="Helvetica,sans-Serif" font-size="10.00">shared_data.hpp</text>
</a>
</g>
</g>
<!-- Node4&#45;&gt;Node11 -->
<g id="edge49" class="edge">
<title>Node4&#45;&gt;Node11</title>
<path fill="none" stroke="midnightblue" d="M715.98,-403.34C707.93,-394.93 696.7,-381.36 692,-367 686.41,-349.94 688.76,-304.72 697,-291 705.44,-276.96 720.14,-266.47 733.81,-259.17"/>
<polygon fill="midnightblue" stroke="midnightblue" points="735.61,-262.19 743.02,-254.62 732.51,-255.91 735.61,-262.19"/>
</g>
<!-- Node9 -->
<g id="node9" class="node">
<title>Node9</title>
<g id="a_node9"><a xlink:href="configuration__enums_8hpp.html" target="_top" xlink:title=" ">
<polygon fill="none" stroke="black" points="911,-291.5 911,-310.5 1051,-310.5 1051,-291.5 911,-291.5"/>
<text text-anchor="middle" x="981" y="-298.5" font-family="Helvetica,sans-Serif" font-size="10.00">configuration_enums.hpp</text>
</a>
</g>
</g>
<!-- Node8&#45;&gt;Node9 -->
<g id="edge8" class="edge">
<title>Node8&#45;&gt;Node9</title>
<path fill="none" stroke="midnightblue" d="M810.17,-347.44C845.06,-338.16 900.89,-323.31 939.17,-313.13"/>
<polygon fill="midnightblue" stroke="midnightblue" points="940.22,-316.47 948.98,-310.52 938.42,-309.7 940.22,-316.47"/>
</g>
<!-- Node10 -->
<g id="node10" class="node">
<title>Node10</title>
<g id="a_node10"><a xlink:href="cfg__section_8hpp.html" target="_top" xlink:title="This file contains the base class for all configuration sections.">
<polygon fill="none" stroke="black" points="705.5,-291.5 705.5,-310.5 842.5,-310.5 842.5,-291.5 705.5,-291.5"/>
<text text-anchor="middle" x="774" y="-298.5" font-family="Helvetica,sans-Serif" font-size="10.00">sections/cfg_section.hpp</text>
</a>
</g>
</g>
<!-- Node8&#45;&gt;Node10 -->
<g id="edge9" class="edge">
<title>Node8&#45;&gt;Node10</title>
<path fill="none" stroke="midnightblue" d="M777.34,-347.08C776.82,-340.01 776.06,-329.86 775.41,-320.99"/>
<polygon fill="midnightblue" stroke="midnightblue" points="778.88,-320.47 774.65,-310.75 771.9,-320.98 778.88,-320.47"/>
</g>
<!-- Node10&#45;&gt;Node11 -->
<g id="edge10" class="edge">
<title>Node10&#45;&gt;Node11</title>
<path fill="none" stroke="midnightblue" d="M772.68,-291.08C771.62,-283.93 770.09,-273.64 768.77,-264.69"/>
<polygon fill="midnightblue" stroke="midnightblue" points="772.22,-264.13 767.3,-254.75 765.3,-265.16 772.22,-264.13"/>
</g>
<!-- Node12 -->
<g id="node12" class="node">
<title>Node12</title>
<g id="a_node12"><a xlink:title=" ">
<polygon fill="none" stroke="#bfbfbf" points="451.5,-0.5 451.5,-19.5 576.5,-19.5 576.5,-0.5 451.5,-0.5"/>
<text text-anchor="middle" x="514" y="-7.5" font-family="Helvetica,sans-Serif" font-size="10.00">BoosterSeat/clock.hpp</text>
</a>
</g>
</g>
<!-- Node11&#45;&gt;Node12 -->
<g id="edge11" class="edge">
<title>Node11&#45;&gt;Node12</title>
<path fill="none" stroke="midnightblue" d="M716.6,-239.28C583.2,-225.39 221.26,-179.65 155,-87 146.98,-75.79 145.88,-66.33 155,-56 173.61,-34.91 341.89,-21.31 441.32,-15.03"/>
<polygon fill="midnightblue" stroke="midnightblue" points="441.54,-18.53 451.31,-14.41 441.11,-11.54 441.54,-18.53"/>
</g>
<!-- Node13 -->
<g id="node13" class="node">
<title>Node13</title>
<g id="a_node13"><a xlink:title=" ">
<polygon fill="none" stroke="#bfbfbf" points="1514,-62 1514,-81 1636,-81 1636,-62 1514,-62"/>
<text text-anchor="middle" x="1575" y="-69" font-family="Helvetica,sans-Serif" font-size="10.00">BoosterSeat/time.hpp</text>
</a>
</g>
</g>
<!-- Node11&#45;&gt;Node13 -->
<g id="edge12" class="edge">
<title>Node11&#45;&gt;Node13</title>
<path fill="none" stroke="midnightblue" d="M810.22,-235.43C855.81,-226.53 928.94,-212.12 992,-199 1191.01,-157.6 1427.53,-105.33 1527.08,-83.19"/>
<polygon fill="midnightblue" stroke="midnightblue" points="1527.85,-86.6 1536.85,-81.01 1526.33,-79.77 1527.85,-86.6"/>
</g>
<!-- Node14 -->
<g id="node14" class="node">
<title>Node14</title>
<g id="a_node14"><a xlink:href="blocks_8hpp.html" target="_top" xlink:title=" ">
<polygon fill="none" stroke="black" points="1144.5,-123.5 1144.5,-142.5 1213.5,-142.5 1213.5,-123.5 1144.5,-123.5"/>
<text text-anchor="middle" x="1179" y="-130.5" font-family="Helvetica,sans-Serif" font-size="10.00">blocks.hpp</text>
</a>
</g>
</g>
<!-- Node11&#45;&gt;Node14 -->
<g id="edge13" class="edge">
<title>Node11&#45;&gt;Node14</title>
<path fill="none" stroke="midnightblue" d="M800.31,-235.49C836.01,-226.59 893.5,-212.11 943,-199 1012.08,-180.71 1092.24,-158.4 1139.11,-145.24"/>
<polygon fill="midnightblue" stroke="midnightblue" points="1140.2,-148.58 1148.88,-142.5 1138.3,-141.84 1140.2,-148.58"/>
</g>
<!-- Node23 -->
<g id="node23" class="node">
<title>Node23</title>
<g id="a_node23"><a xlink:href="error__frame_8hpp.html" target="_top" xlink:title="The error frame.">
<polygon fill="none" stroke="black" points="604.5,-179.5 604.5,-198.5 699.5,-198.5 699.5,-179.5 604.5,-179.5"/>
<text text-anchor="middle" x="652" y="-186.5" font-family="Helvetica,sans-Serif" font-size="10.00">error_frame.hpp</text>
</a>
</g>
</g>
<!-- Node11&#45;&gt;Node23 -->
<g id="edge26" class="edge">
<title>Node11&#45;&gt;Node23</title>
<path fill="none" stroke="midnightblue" d="M747.94,-235.44C729.43,-226.68 700.42,-212.94 679.14,-202.86"/>
<polygon fill="midnightblue" stroke="midnightblue" points="680.51,-199.63 669.98,-198.52 677.52,-205.96 680.51,-199.63"/>
</g>
<!-- Node24 -->
<g id="node24" class="node">
<title>Node24</title>
<g id="a_node24"><a xlink:href="frame_8hpp.html" target="_top" xlink:title=" ">
<polygon fill="none" stroke="black" points="624.5,-123.5 624.5,-142.5 691.5,-142.5 691.5,-123.5 624.5,-123.5"/>
<text text-anchor="middle" x="658" y="-130.5" font-family="Helvetica,sans-Serif" font-size="10.00">frame.hpp</text>
</a>
</g>
</g>
<!-- Node11&#45;&gt;Node24 -->
<g id="edge44" class="edge">
<title>Node11&#45;&gt;Node24</title>
<path fill="none" stroke="midnightblue" d="M758.96,-235.27C748.51,-222.5 728.07,-198.13 709,-179 698.58,-168.55 686.18,-157.57 676.21,-149.08"/>
<polygon fill="midnightblue" stroke="midnightblue" points="678.41,-146.36 668.51,-142.59 673.9,-151.71 678.41,-146.36"/>
</g>
<!-- Node27 -->
<g id="node27" class="node">
<title>Node27</title>
<g id="a_node27"><a xlink:href="streams_8hpp.html" target="_top" xlink:title="The header file for the data streams.">
<polygon fill="none" stroke="black" points="721.5,-123.5 721.5,-142.5 798.5,-142.5 798.5,-123.5 721.5,-123.5"/>
<text text-anchor="middle" x="760" y="-130.5" font-family="Helvetica,sans-Serif" font-size="10.00">streams.hpp</text>
</a>
</g>
</g>
<!-- Node11&#45;&gt;Node27 -->
<g id="edge48" class="edge">
<title>Node11&#45;&gt;Node27</title>
<path fill="none" stroke="midnightblue" d="M765.53,-235.37C764.56,-217.62 762.33,-176.67 761.01,-152.6"/>
<polygon fill="midnightblue" stroke="midnightblue" points="764.51,-152.39 760.47,-142.59 757.52,-152.77 764.51,-152.39"/>
</g>
<!-- Node32 -->
<g id="node32" class="node">
<title>Node32</title>
<g id="a_node32"><a xlink:href="log__container_8hpp.html" target="_top" xlink:title="A simple logging system for debugging.">
<polygon fill="none" stroke="black" points="830.5,-179.5 830.5,-198.5 933.5,-198.5 933.5,-179.5 830.5,-179.5"/>
<text text-anchor="middle" x="882" y="-186.5" font-family="Helvetica,sans-Serif" font-size="10.00">log_container.hpp</text>
</a>
</g>
</g>
<!-- Node11&#45;&gt;Node32 -->
<g id="edge45" class="edge">
<title>Node11&#45;&gt;Node32</title>
<path fill="none" stroke="midnightblue" d="M784.38,-235.44C803.22,-226.68 832.73,-212.94 854.38,-202.86"/>
<polygon fill="midnightblue" stroke="midnightblue" points="856.12,-205.91 863.71,-198.52 853.16,-199.56 856.12,-205.91"/>
</g>
<!-- Node14&#45;&gt;Node12 -->
<g id="edge15" class="edge">
<title>Node14&#45;&gt;Node12</title>
<path fill="none" stroke="midnightblue" d="M1175.85,-123.5C1169.26,-107.11 1152.35,-71.42 1125,-56 1079.15,-30.15 738.88,-17.37 586.93,-12.91"/>
<polygon fill="midnightblue" stroke="midnightblue" points="586.85,-9.4 576.76,-12.61 586.65,-16.4 586.85,-9.4"/>
</g>
<!-- Node14&#45;&gt;Node13 -->
<g id="edge17" class="edge">
<title>Node14&#45;&gt;Node13</title>
<path fill="none" stroke="midnightblue" d="M1213.86,-127.97C1273.62,-120.88 1399.43,-105.2 1505,-87 1511.82,-85.82 1518.99,-84.47 1526.04,-83.08"/>
<polygon fill="midnightblue" stroke="midnightblue" points="1527.1,-86.43 1536.21,-81.02 1525.72,-79.57 1527.1,-86.43"/>
</g>
<!-- Node14&#45;&gt;Node14 -->
<g id="edge18" class="edge">
<title>Node14&#45;&gt;Node14</title>
<path fill="none" stroke="midnightblue" d="M1201.39,-142.53C1216.61,-145.31 1231.5,-142.13 1231.5,-133 1231.5,-125.94 1222.59,-122.44 1211.51,-122.5"/>
<polygon fill="midnightblue" stroke="midnightblue" points="1211.01,-119.03 1201.39,-123.47 1211.68,-126 1211.01,-119.03"/>
</g>
<!-- Node15 -->
<g id="node15" class="node">
<title>Node15</title>
<g id="a_node15"><a xlink:title=" ">
<polygon fill="none" stroke="#bfbfbf" points="988,-62 988,-81 1036,-81 1036,-62 988,-62"/>
<text text-anchor="middle" x="1012" y="-69" font-family="Helvetica,sans-Serif" font-size="10.00">mutex</text>
</a>
</g>
</g>
<!-- Node14&#45;&gt;Node15 -->
<g id="edge14" class="edge">
<title>Node14&#45;&gt;Node15</title>
<path fill="none" stroke="midnightblue" d="M1151.28,-123.49C1124,-114.94 1081.28,-101.03 1045,-87 1043.39,-86.38 1041.75,-85.72 1040.1,-85.05"/>
<polygon fill="midnightblue" stroke="midnightblue" points="1041.3,-81.76 1030.73,-81.08 1038.57,-88.2 1041.3,-81.76"/>
</g>
<!-- Node16 -->
<g id="node16" class="node">
<title>Node16</title>
<g id="a_node16"><a xlink:title=" ">
<polygon fill="none" stroke="#bfbfbf" points="1352.5,-62 1352.5,-81 1495.5,-81 1495.5,-62 1352.5,-62"/>
<text text-anchor="middle" x="1424" y="-69" font-family="Helvetica,sans-Serif" font-size="10.00">BoosterSeat/numbers.hpp</text>
</a>
</g>
</g>
<!-- Node14&#45;&gt;Node16 -->
<g id="edge16" class="edge">
<title>Node14&#45;&gt;Node16</title>
<path fill="none" stroke="midnightblue" d="M1213.58,-123.6C1256.93,-113.07 1331.32,-95.01 1379.04,-83.42"/>
<polygon fill="midnightblue" stroke="midnightblue" points="1379.91,-86.81 1388.8,-81.05 1378.26,-80.01 1379.91,-86.81"/>
</g>
<!-- Node17 -->
<g id="node17" class="node">
<title>Node17</title>
<g id="a_node17"><a xlink:title=" ">
<polygon fill="none" stroke="#bfbfbf" points="1276,-62 1276,-81 1334,-81 1334,-62 1276,-62"/>
<text text-anchor="middle" x="1305" y="-69" font-family="Helvetica,sans-Serif" font-size="10.00">json.hpp</text>
</a>
</g>
</g>
<!-- Node14&#45;&gt;Node17 -->
<g id="edge19" class="edge">
<title>Node14&#45;&gt;Node17</title>
<path fill="none" stroke="midnightblue" d="M1197.05,-123.48C1218.2,-113.49 1253.44,-96.85 1277.88,-85.31"/>
<polygon fill="midnightblue" stroke="midnightblue" points="1279.43,-88.44 1286.98,-81.01 1276.44,-82.11 1279.43,-88.44"/>
</g>
<!-- Node18 -->
<g id="node18" class="node">
<title>Node18</title>
<g id="a_node18"><a xlink:title=" ">
<polygon fill="none" stroke="#bfbfbf" points="1054,-62 1054,-81 1116,-81 1116,-62 1054,-62"/>
<text text-anchor="middle" x="1085" y="-69" font-family="Helvetica,sans-Serif" font-size="10.00">node.hpp</text>
</a>
</g>
</g>
<!-- Node14&#45;&gt;Node18 -->
<g id="edge20" class="edge">
<title>Node14&#45;&gt;Node18</title>
<path fill="none" stroke="midnightblue" d="M1165.53,-123.48C1150.32,-113.84 1125.31,-98.02 1107.2,-86.55"/>
<polygon fill="midnightblue" stroke="midnightblue" points="1108.76,-83.4 1098.44,-81.01 1105.02,-89.31 1108.76,-83.4"/>
</g>
<!-- Node19 -->
<g id="node19" class="node">
<title>Node19</title>
<g id="a_node19"><a xlink:href="positional_8hpp.html" target="_top" xlink:title="Positional data for the flight system (gps/imu data)">
<polygon fill="none" stroke="black" points="1172,-62 1172,-81 1258,-81 1258,-62 1172,-62"/>
<text text-anchor="middle" x="1215" y="-69" font-family="Helvetica,sans-Serif" font-size="10.00">positional.hpp</text>
</a>
</g>
</g>
<!-- Node14&#45;&gt;Node19 -->
<g id="edge21" class="edge">
<title>Node14&#45;&gt;Node19</title>
<path fill="none" stroke="midnightblue" d="M1184.16,-123.48C1189.45,-114.73 1197.84,-100.87 1204.53,-89.81"/>
<polygon fill="midnightblue" stroke="midnightblue" points="1207.67,-91.38 1209.85,-81.01 1201.68,-87.75 1207.67,-91.38"/>
</g>
<!-- Node19&#45;&gt;Node12 -->
<g id="edge25" class="edge">
<title>Node19&#45;&gt;Node12</title>
<path fill="none" stroke="midnightblue" d="M1185.63,-61.96C1176.81,-59.68 1167.07,-57.46 1158,-56 952.63,-22.98 706.56,-14.18 586.74,-11.85"/>
<polygon fill="midnightblue" stroke="midnightblue" points="586.66,-8.34 576.59,-11.66 586.53,-15.34 586.66,-8.34"/>
</g>
<!-- Node20 -->
<g id="node20" class="node">
<title>Node20</title>
<g id="a_node20"><a xlink:title=" ">
<polygon fill="none" stroke="#bfbfbf" points="1445,-0.5 1445,-19.5 1495,-19.5 1495,-0.5 1445,-0.5"/>
<text text-anchor="middle" x="1470" y="-7.5" font-family="Helvetica,sans-Serif" font-size="10.00">cstdint</text>
</a>
</g>
</g>
<!-- Node19&#45;&gt;Node20 -->
<g id="edge22" class="edge">
<title>Node19&#45;&gt;Node20</title>
<path fill="none" stroke="midnightblue" d="M1244.63,-61.94C1251.92,-59.92 1259.73,-57.82 1267,-56 1325.63,-41.34 1394.4,-26.61 1434.97,-18.17"/>
<polygon fill="midnightblue" stroke="midnightblue" points="1435.81,-21.57 1444.9,-16.11 1434.39,-14.71 1435.81,-21.57"/>
</g>
<!-- Node21 -->
<g id="node21" class="node">
<title>Node21</title>
<g id="a_node21"><a xlink:title=" ">
<polygon fill="none" stroke="#bfbfbf" points="1196,-0.5 1196,-19.5 1234,-19.5 1234,-0.5 1196,-0.5"/>
<text text-anchor="middle" x="1215" y="-7.5" font-family="Helvetica,sans-Serif" font-size="10.00">map</text>
</a>
</g>
</g>
<!-- Node19&#45;&gt;Node21 -->
<g id="edge23" class="edge">
<title>Node19&#45;&gt;Node21</title>
<path fill="none" stroke="midnightblue" d="M1215,-61.98C1215,-53.58 1215,-40.48 1215,-29.66"/>
<polygon fill="midnightblue" stroke="midnightblue" points="1218.5,-29.51 1215,-19.51 1211.5,-29.51 1218.5,-29.51"/>
</g>
<!-- Node22 -->
<g id="node22" class="node">
<title>Node22</title>
<g id="a_node22"><a xlink:title=" ">
<polygon fill="none" stroke="#bfbfbf" points="1036,-0.5 1036,-19.5 1080,-19.5 1080,-0.5 1036,-0.5"/>
<text text-anchor="middle" x="1058" y="-7.5" font-family="Helvetica,sans-Serif" font-size="10.00">string</text>
</a>
</g>
</g>
<!-- Node19&#45;&gt;Node22 -->
<g id="edge24" class="edge">
<title>Node19&#45;&gt;Node22</title>
<path fill="none" stroke="midnightblue" d="M1192.51,-61.98C1165.62,-51.78 1120.43,-34.66 1089.93,-23.1"/>
<polygon fill="midnightblue" stroke="midnightblue" points="1090.79,-19.68 1080.2,-19.41 1088.31,-26.23 1090.79,-19.68"/>
</g>
<!-- Node23&#45;&gt;Node12 -->
<g id="edge27" class="edge">
<title>Node23&#45;&gt;Node12</title>
<path fill="none" stroke="midnightblue" d="M604.2,-182.87C509.39,-171.59 303.02,-141.25 261,-87 252.56,-76.11 252.15,-66.56 261,-56 283.65,-28.96 374.85,-18.16 441.28,-13.85"/>
<polygon fill="midnightblue" stroke="midnightblue" points="441.53,-17.34 451.3,-13.23 441.1,-10.35 441.53,-17.34"/>
</g>
<!-- Node23&#45;&gt;Node24 -->
<g id="edge28" class="edge">
<title>Node23&#45;&gt;Node24</title>
<path fill="none" stroke="midnightblue" d="M652.99,-179.08C653.79,-171.93 654.93,-161.64 655.92,-152.69"/>
<polygon fill="midnightblue" stroke="midnightblue" points="659.4,-153.08 657.03,-142.75 652.44,-152.3 659.4,-153.08"/>
</g>
<!-- Node26 -->
<g id="node26" class="node">
<title>Node26</title>
<g id="a_node26"><a xlink:title=" ">
<polygon fill="none" stroke="#bfbfbf" points="382,-56.5 382,-86.5 486,-86.5 486,-56.5 382,-56.5"/>
<text text-anchor="start" x="390" y="-74.5" font-family="Helvetica,sans-Serif" font-size="10.00">giraffe_diagnostic</text>
<text text-anchor="middle" x="434" y="-63.5" font-family="Helvetica,sans-Serif" font-size="10.00">_ids.hpp</text>
</a>
</g>
</g>
<!-- Node23&#45;&gt;Node26 -->
<g id="edge31" class="edge">
<title>Node23&#45;&gt;Node26</title>
<path fill="none" stroke="midnightblue" d="M635.61,-179.32C600.52,-160.73 517.42,-116.7 469.58,-91.35"/>
<polygon fill="midnightblue" stroke="midnightblue" points="470.98,-88.13 460.51,-86.55 467.71,-94.32 470.98,-88.13"/>
</g>
<!-- Node23&#45;&gt;Node27 -->
<g id="edge32" class="edge">
<title>Node23&#45;&gt;Node27</title>
<path fill="none" stroke="midnightblue" d="M669.35,-179.32C686.67,-170.66 713.52,-157.24 733.5,-147.25"/>
<polygon fill="midnightblue" stroke="midnightblue" points="735.31,-150.26 742.69,-142.65 732.18,-144 735.31,-150.26"/>
</g>
<!-- Node24&#45;&gt;Node15 -->
<g id="edge29" class="edge">
<title>Node24&#45;&gt;Node15</title>
<path fill="none" stroke="midnightblue" d="M691.74,-126.45C698.76,-125.3 706.12,-124.11 713,-123 814.29,-106.72 840.05,-105.27 941,-87 953.06,-84.82 966.23,-82.19 977.92,-79.78"/>
<polygon fill="midnightblue" stroke="midnightblue" points="978.66,-83.2 987.74,-77.74 977.23,-76.35 978.66,-83.2"/>
</g>
<!-- Node25 -->
<g id="node25" class="node">
<title>Node25</title>
<g id="a_node25"><a xlink:title=" ">
<polygon fill="none" stroke="#bfbfbf" points="270.5,-62 270.5,-81 363.5,-81 363.5,-62 270.5,-62"/>
<text text-anchor="middle" x="317" y="-69" font-family="Helvetica,sans-Serif" font-size="10.00">unordered_map</text>
</a>
</g>
</g>
<!-- Node24&#45;&gt;Node25 -->
<g id="edge30" class="edge">
<title>Node24&#45;&gt;Node25</title>
<path fill="none" stroke="midnightblue" d="M624.46,-127.78C570.99,-120.8 463.24,-105.76 373,-87 367.97,-85.95 362.71,-84.75 357.51,-83.48"/>
<polygon fill="midnightblue" stroke="midnightblue" points="358.23,-80.06 347.68,-81.02 356.53,-86.85 358.23,-80.06"/>
</g>
<!-- Node27&#45;&gt;Node5 -->
<g id="edge33" class="edge">
<title>Node27&#45;&gt;Node5</title>
<path fill="none" stroke="midnightblue" d="M721.33,-125.71C714.57,-124.72 707.59,-123.77 701,-123 506.12,-100.19 455.28,-114.42 261,-87 248.89,-85.29 235.75,-82.83 224.05,-80.41"/>
<polygon fill="midnightblue" stroke="midnightblue" points="224.71,-76.98 214.2,-78.33 223.26,-83.82 224.71,-76.98"/>
</g>
<!-- Node27&#45;&gt;Node12 -->
<g id="edge38" class="edge">
<title>Node27&#45;&gt;Node12</title>
<path fill="none" stroke="midnightblue" d="M721.4,-125.45C658.42,-114.61 539.82,-93.49 533,-87 517.57,-72.31 513.91,-47.13 513.39,-29.81"/>
<polygon fill="midnightblue" stroke="midnightblue" points="516.89,-29.75 513.41,-19.75 509.89,-29.74 516.89,-29.75"/>
</g>
<!-- Node27&#45;&gt;Node15 -->
<g id="edge35" class="edge">
<title>Node27&#45;&gt;Node15</title>
<path fill="none" stroke="midnightblue" d="M798.72,-125.75C841.94,-118.34 913.72,-104.72 974,-87 976.58,-86.24 979.23,-85.39 981.88,-84.49"/>
<polygon fill="midnightblue" stroke="midnightblue" points="983.08,-87.77 991.3,-81.08 980.7,-81.19 983.08,-87.77"/>
</g>
<!-- Node27&#45;&gt;Node18 -->
<g id="edge42" class="edge">
<title>Node27&#45;&gt;Node18</title>
<path fill="none" stroke="midnightblue" d="M798.74,-128.26C854.01,-122.39 958.41,-109.31 1045,-87 1047.98,-86.23 1051.05,-85.33 1054.1,-84.36"/>
<polygon fill="midnightblue" stroke="midnightblue" points="1055.32,-87.64 1063.65,-81.09 1053.05,-81.02 1055.32,-87.64"/>
</g>
<!-- Node27&#45;&gt;Node19 -->
<g id="edge43" class="edge">
<title>Node27&#45;&gt;Node19</title>
<path fill="none" stroke="midnightblue" d="M798.69,-127.71C865.4,-120.2 1006.32,-103.87 1125,-87 1136.87,-85.31 1149.6,-83.35 1161.64,-81.43"/>
<polygon fill="midnightblue" stroke="midnightblue" points="1162.25,-84.88 1171.56,-79.83 1161.13,-77.97 1162.25,-84.88"/>
</g>
<!-- Node27&#45;&gt;Node22 -->
<g id="edge37" class="edge">
<title>Node27&#45;&gt;Node22</title>
<path fill="none" stroke="midnightblue" d="M798.79,-127.38C836.66,-121.75 895.1,-109.97 941,-87 960.49,-77.25 961.02,-68.33 979,-56 996.03,-44.32 1016.29,-32.82 1032.03,-24.38"/>
<polygon fill="midnightblue" stroke="midnightblue" points="1033.97,-27.31 1041.18,-19.53 1030.7,-21.12 1033.97,-27.31"/>
</g>
<!-- Node27&#45;&gt;Node26 -->
<g id="edge41" class="edge">
<title>Node27&#45;&gt;Node26</title>
<path fill="none" stroke="midnightblue" d="M721.14,-125.83C670.22,-117.62 578.22,-102.35 500,-87 498.74,-86.75 497.46,-86.5 496.18,-86.24"/>
<polygon fill="midnightblue" stroke="midnightblue" points="496.69,-82.77 486.19,-84.19 495.29,-89.63 496.69,-82.77"/>
</g>
<!-- Node28 -->
<g id="node28" class="node">
<title>Node28</title>
<g id="a_node28"><a xlink:title=" ">
<polygon fill="none" stroke="#bfbfbf" points="542,-62 542,-81 602,-81 602,-62 542,-62"/>
<text text-anchor="middle" x="572" y="-69" font-family="Helvetica,sans-Serif" font-size="10.00">iostream</text>
</a>
</g>
</g>
<!-- Node27&#45;&gt;Node28 -->
<g id="edge34" class="edge">
<title>Node27&#45;&gt;Node28</title>
<path fill="none" stroke="midnightblue" d="M729.86,-123.5C699.64,-114.83 651.85,-100.75 611,-87 608.6,-86.19 606.13,-85.34 603.65,-84.46"/>
<polygon fill="midnightblue" stroke="midnightblue" points="604.78,-81.14 594.19,-81.02 602.39,-87.72 604.78,-81.14"/>
</g>
<!-- Node29 -->
<g id="node29" class="node">
<title>Node29</title>
<g id="a_node29"><a xlink:title=" ">
<polygon fill="none" stroke="#bfbfbf" points="620.5,-62 620.5,-81 667.5,-81 667.5,-62 620.5,-62"/>
<text text-anchor="middle" x="644" y="-69" font-family="Helvetica,sans-Serif" font-size="10.00">queue</text>
</a>
</g>
</g>
<!-- Node27&#45;&gt;Node29 -->
<g id="edge36" class="edge">
<title>Node27&#45;&gt;Node29</title>
<path fill="none" stroke="midnightblue" d="M743.38,-123.48C724.08,-113.58 692.04,-97.14 669.57,-85.62"/>
<polygon fill="midnightblue" stroke="midnightblue" points="671.08,-82.46 660.59,-81.01 667.89,-88.69 671.08,-82.46"/>
</g>
<!-- Node30 -->
<g id="node30" class="node">
<title>Node30</title>
<g id="a_node30"><a xlink:title=" ">
<polygon fill="none" stroke="#bfbfbf" points="686,-62 686,-81 834,-81 834,-62 686,-62"/>
<text text-anchor="middle" x="760" y="-69" font-family="Helvetica,sans-Serif" font-size="10.00">BoosterSeat/exception.hpp</text>
</a>
</g>
</g>
<!-- Node27&#45;&gt;Node30 -->
<g id="edge39" class="edge">
<title>Node27&#45;&gt;Node30</title>
<path fill="none" stroke="midnightblue" d="M760,-123.48C760,-115.08 760,-101.98 760,-91.16"/>
<polygon fill="midnightblue" stroke="midnightblue" points="763.5,-91.01 760,-81.01 756.5,-91.01 763.5,-91.01"/>
</g>
<!-- Node31 -->
<g id="node31" class="node">
<title>Node31</title>
<g id="a_node31"><a xlink:href="data__ids_8hpp.html" target="_top" xlink:title=" ">
<polygon fill="none" stroke="black" points="852.5,-62 852.5,-81 931.5,-81 931.5,-62 852.5,-62"/>
<text text-anchor="middle" x="892" y="-69" font-family="Helvetica,sans-Serif" font-size="10.00">data_ids.hpp</text>
</a>
</g>
</g>
<!-- Node27&#45;&gt;Node31 -->
<g id="edge40" class="edge">
<title>Node27&#45;&gt;Node31</title>
<path fill="none" stroke="midnightblue" d="M778.91,-123.48C801.16,-113.45 838.31,-96.7 863.93,-85.15"/>
<polygon fill="midnightblue" stroke="midnightblue" points="865.44,-88.31 873.12,-81.01 862.57,-81.93 865.44,-88.31"/>
</g>
<!-- Node32&#45;&gt;Node15 -->
<g id="edge47" class="edge">
<title>Node32&#45;&gt;Node15</title>
<path fill="none" stroke="midnightblue" d="M891.77,-179.32C913.6,-159.92 966.61,-112.83 994.37,-88.16"/>
<polygon fill="midnightblue" stroke="midnightblue" points="996.96,-90.54 1002.12,-81.28 992.32,-85.31 996.96,-90.54"/>
</g>
<!-- Node33 -->
<g id="node33" class="node">
<title>Node33</title>
<g id="a_node33"><a xlink:title=" ">
<polygon fill="none" stroke="#bfbfbf" points="858.5,-123.5 858.5,-142.5 905.5,-142.5 905.5,-123.5 858.5,-123.5"/>
<text text-anchor="middle" x="882" y="-130.5" font-family="Helvetica,sans-Serif" font-size="10.00">deque</text>
</a>
</g>
</g>
<!-- Node32&#45;&gt;Node33 -->
<g id="edge46" class="edge">
<title>Node32&#45;&gt;Node33</title>
<path fill="none" stroke="midnightblue" d="M882,-179.08C882,-172.01 882,-161.86 882,-152.99"/>
<polygon fill="midnightblue" stroke="midnightblue" points="885.5,-152.75 882,-142.75 878.5,-152.75 885.5,-152.75"/>
</g>
<!-- Node34&#45;&gt;Node9 -->
<g id="edge54" class="edge">
<title>Node34&#45;&gt;Node9</title>
<path fill="none" stroke="midnightblue" d="M1331.21,-349.16C1261.18,-339.73 1134.54,-322.68 1054.27,-311.87"/>
<polygon fill="midnightblue" stroke="midnightblue" points="1054.61,-308.38 1044.23,-310.51 1053.67,-315.32 1054.61,-308.38"/>
</g>
<!-- Node34&#45;&gt;Node15 -->
<g id="edge52" class="edge">
<title>Node34&#45;&gt;Node15</title>
<path fill="none" stroke="midnightblue" d="M1333.84,-347.48C1253.3,-331.85 1100,-295.6 1100,-246 1100,-246 1100,-246 1100,-188 1100,-144.29 1059.63,-106.8 1033.57,-87.16"/>
<polygon fill="midnightblue" stroke="midnightblue" points="1035.51,-84.25 1025.37,-81.2 1031.4,-89.91 1035.51,-84.25"/>
</g>
<!-- Node34&#45;&gt;Node20 -->
<g id="edge51" class="edge">
<title>Node34&#45;&gt;Node20</title>
<path fill="none" stroke="midnightblue" d="M1430.16,-347.48C1510.7,-331.85 1664,-295.6 1664,-246 1664,-246 1664,-246 1664,-132 1664,-97.18 1669.54,-80.7 1645,-56 1625.57,-36.44 1550.29,-22.52 1505.04,-15.72"/>
<polygon fill="midnightblue" stroke="midnightblue" points="1505.45,-12.24 1495.05,-14.26 1504.44,-19.17 1505.45,-12.24"/>
</g>
<!-- Node35 -->
<g id="node35" class="node">
<title>Node35</title>
<g id="a_node35"><a xlink:title=" ">
<polygon fill="none" stroke="#bfbfbf" points="1692.5,-291.5 1692.5,-310.5 1739.5,-310.5 1739.5,-291.5 1692.5,-291.5"/>
<text text-anchor="middle" x="1716" y="-298.5" font-family="Helvetica,sans-Serif" font-size="10.00">vector</text>
</a>
</g>
</g>
<!-- Node34&#45;&gt;Node35 -->
<g id="edge53" class="edge">
<title>Node34&#45;&gt;Node35</title>
<path fill="none" stroke="midnightblue" d="M1432.76,-349.57C1491.89,-341.78 1592.4,-327.61 1678,-311 1679.46,-310.72 1680.94,-310.42 1682.44,-310.11"/>
<polygon fill="midnightblue" stroke="midnightblue" points="1683.34,-313.49 1692.35,-307.92 1681.83,-306.66 1683.34,-313.49"/>
</g>
<!-- Node36 -->
<g id="node36" class="node">
<title>Node36</title>
<g id="a_node36"><a xlink:title=" ">
<polygon fill="none" stroke="#bfbfbf" points="1758,-291.5 1758,-310.5 1888,-310.5 1888,-291.5 1758,-291.5"/>
<text text-anchor="middle" x="1823" y="-298.5" font-family="Helvetica,sans-Serif" font-size="10.00">giraffe_diagnostics.hpp</text>
</a>
</g>
</g>
<!-- Node34&#45;&gt;Node36 -->
<g id="edge55" class="edge">
<title>Node34&#45;&gt;Node36</title>
<path fill="none" stroke="midnightblue" d="M1432.59,-349.81C1509.82,-340.35 1657.6,-322.25 1747.53,-311.24"/>
<polygon fill="midnightblue" stroke="midnightblue" points="1748.17,-314.69 1757.67,-310 1747.31,-307.74 1748.17,-314.69"/>
</g>
</g>
</svg>
