<?xml version="1.0" encoding="UTF-8" standalone="no"?>
<!DOCTYPE svg PUBLIC "-//W3C//DTD SVG 1.1//EN"
 "http://www.w3.org/Graphics/SVG/1.1/DTD/svg11.dtd">
<!-- Generated by graphviz version 2.43.0 (0)
 -->
<!-- Title: influxdb.hpp Pages: 1 -->
<svg width="1463pt" height="319pt"
 viewBox="0.00 0.00 1463.15 319.00" xmlns="http://www.w3.org/2000/svg" xmlns:xlink="http://www.w3.org/1999/xlink">
<g id="graph0" class="graph" transform="scale(1 1) rotate(0) translate(4 315)">
<title>influxdb.hpp</title>
<!-- Node1 -->
<g id="node1" class="node">
<title>Node1</title>
<g id="a_node1"><a xlink:title=" ">
<polygon fill="#bfbfbf" stroke="black" points="629.5,-291.5 629.5,-310.5 706.5,-310.5 706.5,-291.5 629.5,-291.5"/>
<text text-anchor="middle" x="668" y="-298.5" font-family="Helvetica,sans-Serif" font-size="10.00">influxdb.hpp</text>
</a>
</g>
</g>
<!-- Node2 -->
<g id="node2" class="node">
<title>Node2</title>
<g id="a_node2"><a xlink:title=" ">
<polygon fill="none" stroke="#bfbfbf" points="415.5,-235.5 415.5,-254.5 540.5,-254.5 540.5,-235.5 415.5,-235.5"/>
<text text-anchor="middle" x="478" y="-242.5" font-family="Helvetica,sans-Serif" font-size="10.00">BoosterSeat/timer.hpp</text>
</a>
</g>
</g>
<!-- Node1&#45;&gt;Node2 -->
<g id="edge1" class="edge">
<title>Node1&#45;&gt;Node2</title>
<path fill="none" stroke="midnightblue" d="M637.89,-291.44C605.37,-282.2 553.42,-267.44 517.61,-257.26"/>
<polygon fill="midnightblue" stroke="midnightblue" points="518.54,-253.88 507.97,-254.52 516.63,-260.62 518.54,-253.88"/>
</g>
<!-- Node3 -->
<g id="node3" class="node">
<title>Node3</title>
<g id="a_node3"><a xlink:href="configuration_8hpp.html" target="_top" xlink:title=" ">
<polygon fill="none" stroke="black" points="558.5,-235.5 558.5,-254.5 659.5,-254.5 659.5,-235.5 558.5,-235.5"/>
<text text-anchor="middle" x="609" y="-242.5" font-family="Helvetica,sans-Serif" font-size="10.00">configuration.hpp</text>
</a>
</g>
</g>
<!-- Node1&#45;&gt;Node3 -->
<g id="edge2" class="edge">
<title>Node1&#45;&gt;Node3</title>
<path fill="none" stroke="midnightblue" d="M658.52,-291.32C649.8,-283.34 636.66,-271.31 626.1,-261.65"/>
<polygon fill="midnightblue" stroke="midnightblue" points="628.39,-259 618.65,-254.83 623.67,-264.17 628.39,-259"/>
</g>
<!-- Node4 -->
<g id="node4" class="node">
<title>Node4</title>
<g id="a_node4"><a xlink:href="shared__data_8hpp.html" target="_top" xlink:title="Contains the SharedData struct, used across all modules and extensions.">
<polygon fill="none" stroke="black" points="678,-235.5 678,-254.5 776,-254.5 776,-235.5 678,-235.5"/>
<text text-anchor="middle" x="727" y="-242.5" font-family="Helvetica,sans-Serif" font-size="10.00">shared_data.hpp</text>
</a>
</g>
</g>
<!-- Node1&#45;&gt;Node4 -->
<g id="edge3" class="edge">
<title>Node1&#45;&gt;Node4</title>
<path fill="none" stroke="midnightblue" d="M677.48,-291.32C686.2,-283.34 699.34,-271.31 709.9,-261.65"/>
<polygon fill="midnightblue" stroke="midnightblue" points="712.33,-264.17 717.35,-254.83 707.61,-259 712.33,-264.17"/>
</g>
<!-- Node29 -->
<g id="node29" class="node">
<title>Node29</title>
<g id="a_node29"><a xlink:title=" ">
<polygon fill="none" stroke="#bfbfbf" points="794.5,-235.5 794.5,-254.5 841.5,-254.5 841.5,-235.5 794.5,-235.5"/>
<text text-anchor="middle" x="818" y="-242.5" font-family="Helvetica,sans-Serif" font-size="10.00">vector</text>
</a>
</g>
</g>
<!-- Node1&#45;&gt;Node29 -->
<g id="edge45" class="edge">
<title>Node1&#45;&gt;Node29</title>
<path fill="none" stroke="midnightblue" d="M691.77,-291.44C716.89,-282.4 756.71,-268.06 784.9,-257.92"/>
<polygon fill="midnightblue" stroke="midnightblue" points="786.12,-261.2 794.34,-254.52 783.75,-254.61 786.12,-261.2"/>
</g>
<!-- Node5 -->
<g id="node5" class="node">
<title>Node5</title>
<g id="a_node5"><a xlink:title=" ">
<polygon fill="none" stroke="#bfbfbf" points="725.5,-0.5 725.5,-19.5 850.5,-19.5 850.5,-0.5 725.5,-0.5"/>
<text text-anchor="middle" x="788" y="-7.5" font-family="Helvetica,sans-Serif" font-size="10.00">BoosterSeat/clock.hpp</text>
</a>
</g>
</g>
<!-- Node4&#45;&gt;Node5 -->
<g id="edge4" class="edge">
<title>Node4&#45;&gt;Node5</title>
<path fill="none" stroke="midnightblue" d="M773.48,-235.46C928.83,-206.7 1421.51,-113.71 1443,-87 1451.64,-76.26 1452.4,-66.07 1443,-56 1423.37,-34.97 1027.3,-19.12 860.77,-13.36"/>
<polygon fill="midnightblue" stroke="midnightblue" points="860.73,-9.86 850.62,-13.01 860.49,-16.86 860.73,-9.86"/>
</g>
<!-- Node6 -->
<g id="node6" class="node">
<title>Node6</title>
<g id="a_node6"><a xlink:title=" ">
<polygon fill="none" stroke="#bfbfbf" points="0,-62 0,-81 122,-81 122,-62 0,-62"/>
<text text-anchor="middle" x="61" y="-69" font-family="Helvetica,sans-Serif" font-size="10.00">BoosterSeat/time.hpp</text>
</a>
</g>
</g>
<!-- Node4&#45;&gt;Node6 -->
<g id="edge5" class="edge">
<title>Node4&#45;&gt;Node6</title>
<path fill="none" stroke="midnightblue" d="M693.97,-235.5C583.69,-207.1 228.1,-115.53 104.12,-83.6"/>
<polygon fill="midnightblue" stroke="midnightblue" points="104.78,-80.16 94.23,-81.06 103.04,-86.94 104.78,-80.16"/>
</g>
<!-- Node7 -->
<g id="node7" class="node">
<title>Node7</title>
<g id="a_node7"><a xlink:href="blocks_8hpp.html" target="_top" xlink:title=" ">
<polygon fill="none" stroke="black" points="420.5,-123.5 420.5,-142.5 489.5,-142.5 489.5,-123.5 420.5,-123.5"/>
<text text-anchor="middle" x="455" y="-130.5" font-family="Helvetica,sans-Serif" font-size="10.00">blocks.hpp</text>
</a>
</g>
</g>
<!-- Node4&#45;&gt;Node7 -->
<g id="edge6" class="edge">
<title>Node4&#45;&gt;Node7</title>
<path fill="none" stroke="midnightblue" d="M705.66,-235.37C657.69,-215.97 541.22,-168.87 485.58,-146.37"/>
<polygon fill="midnightblue" stroke="midnightblue" points="486.83,-143.1 476.24,-142.59 484.2,-149.59 486.83,-143.1"/>
</g>
<!-- Node17 -->
<g id="node17" class="node">
<title>Node17</title>
<g id="a_node17"><a xlink:href="error__frame_8hpp.html" target="_top" xlink:title="The error frame.">
<polygon fill="none" stroke="black" points="796.5,-179.5 796.5,-198.5 891.5,-198.5 891.5,-179.5 796.5,-179.5"/>
<text text-anchor="middle" x="844" y="-186.5" font-family="Helvetica,sans-Serif" font-size="10.00">error_frame.hpp</text>
</a>
</g>
</g>
<!-- Node4&#45;&gt;Node17 -->
<g id="edge22" class="edge">
<title>Node4&#45;&gt;Node17</title>
<path fill="none" stroke="midnightblue" d="M745.54,-235.44C764.62,-226.64 794.57,-212.81 816.44,-202.72"/>
<polygon fill="midnightblue" stroke="midnightblue" points="817.93,-205.88 825.55,-198.52 815,-199.53 817.93,-205.88"/>
</g>
<!-- Node18 -->
<g id="node18" class="node">
<title>Node18</title>
<g id="a_node18"><a xlink:href="frame_8hpp.html" target="_top" xlink:title=" ">
<polygon fill="none" stroke="black" points="613.5,-123.5 613.5,-142.5 680.5,-142.5 680.5,-123.5 613.5,-123.5"/>
<text text-anchor="middle" x="647" y="-130.5" font-family="Helvetica,sans-Serif" font-size="10.00">frame.hpp</text>
</a>
</g>
</g>
<!-- Node4&#45;&gt;Node18 -->
<g id="edge40" class="edge">
<title>Node4&#45;&gt;Node18</title>
<path fill="none" stroke="midnightblue" d="M710.44,-235.46C696.9,-227.68 678.24,-214.98 667,-199 657.34,-185.27 652.24,-166.74 649.62,-152.98"/>
<polygon fill="midnightblue" stroke="midnightblue" points="653.01,-152.05 647.95,-142.75 646.11,-153.18 653.01,-152.05"/>
</g>
<!-- Node21 -->
<g id="node21" class="node">
<title>Node21</title>
<g id="a_node21"><a xlink:href="streams_8hpp.html" target="_top" xlink:title="The header file for the data streams.">
<polygon fill="none" stroke="black" points="909.5,-123.5 909.5,-142.5 986.5,-142.5 986.5,-123.5 909.5,-123.5"/>
<text text-anchor="middle" x="948" y="-130.5" font-family="Helvetica,sans-Serif" font-size="10.00">streams.hpp</text>
</a>
</g>
</g>
<!-- Node4&#45;&gt;Node21 -->
<g id="edge44" class="edge">
<title>Node4&#45;&gt;Node21</title>
<path fill="none" stroke="midnightblue" d="M774.61,-235.46C818.74,-226.87 880.58,-212.94 901,-199 918.38,-187.14 931.62,-166.63 939.55,-151.82"/>
<polygon fill="midnightblue" stroke="midnightblue" points="942.8,-153.15 944.18,-142.65 936.55,-150 942.8,-153.15"/>
</g>
<!-- Node27 -->
<g id="node27" class="node">
<title>Node27</title>
<g id="a_node27"><a xlink:href="log__container_8hpp.html" target="_top" xlink:title="A simple logging system for debugging.">
<polygon fill="none" stroke="black" points="675.5,-179.5 675.5,-198.5 778.5,-198.5 778.5,-179.5 675.5,-179.5"/>
<text text-anchor="middle" x="727" y="-186.5" font-family="Helvetica,sans-Serif" font-size="10.00">log_container.hpp</text>
</a>
</g>
</g>
<!-- Node4&#45;&gt;Node27 -->
<g id="edge41" class="edge">
<title>Node4&#45;&gt;Node27</title>
<path fill="none" stroke="midnightblue" d="M727,-235.08C727,-228.01 727,-217.86 727,-208.99"/>
<polygon fill="midnightblue" stroke="midnightblue" points="730.5,-208.75 727,-198.75 723.5,-208.75 730.5,-208.75"/>
</g>
<!-- Node7&#45;&gt;Node5 -->
<g id="edge8" class="edge">
<title>Node7&#45;&gt;Node5</title>
<path fill="none" stroke="midnightblue" d="M477.58,-123.45C497.96,-115.31 528.44,-102.1 553,-87 571.86,-75.41 572.05,-65.6 592,-56 630.55,-37.44 677.11,-26.34 715.17,-19.81"/>
<polygon fill="midnightblue" stroke="midnightblue" points="715.86,-23.24 725.16,-18.16 714.73,-16.33 715.86,-23.24"/>
</g>
<!-- Node7&#45;&gt;Node6 -->
<g id="edge10" class="edge">
<title>Node7&#45;&gt;Node6</title>
<path fill="none" stroke="midnightblue" d="M420.36,-127.95C360.96,-120.84 235.93,-105.13 131,-87 124.18,-85.82 117.01,-84.47 109.97,-83.07"/>
<polygon fill="midnightblue" stroke="midnightblue" points="110.29,-79.57 99.79,-81.01 108.9,-86.43 110.29,-79.57"/>
</g>
<!-- Node7&#45;&gt;Node7 -->
<g id="edge11" class="edge">
<title>Node7&#45;&gt;Node7</title>
<path fill="none" stroke="midnightblue" d="M477.39,-142.53C492.61,-145.31 507.5,-142.13 507.5,-133 507.5,-125.94 498.59,-122.44 487.51,-122.5"/>
<polygon fill="midnightblue" stroke="midnightblue" points="487.01,-119.03 477.39,-123.47 487.68,-126 487.01,-119.03"/>
</g>
<!-- Node8 -->
<g id="node8" class="node">
<title>Node8</title>
<g id="a_node8"><a xlink:title=" ">
<polygon fill="none" stroke="#bfbfbf" points="712,-62 712,-81 760,-81 760,-62 712,-62"/>
<text text-anchor="middle" x="736" y="-69" font-family="Helvetica,sans-Serif" font-size="10.00">mutex</text>
</a>
</g>
</g>
<!-- Node7&#45;&gt;Node8 -->
<g id="edge7" class="edge">
<title>Node7&#45;&gt;Node8</title>
<path fill="none" stroke="midnightblue" d="M489.7,-128.31C538.22,-122.56 628.72,-109.71 703,-87 704.93,-86.41 706.9,-85.74 708.86,-85.02"/>
<polygon fill="midnightblue" stroke="midnightblue" points="710.53,-88.11 718.48,-81.11 707.9,-81.63 710.53,-88.11"/>
</g>
<!-- Node9 -->
<g id="node9" class="node">
<title>Node9</title>
<g id="a_node9"><a xlink:title=" ">
<polygon fill="none" stroke="#bfbfbf" points="216.5,-62 216.5,-81 359.5,-81 359.5,-62 216.5,-62"/>
<text text-anchor="middle" x="288" y="-69" font-family="Helvetica,sans-Serif" font-size="10.00">BoosterSeat/numbers.hpp</text>
</a>
</g>
</g>
<!-- Node7&#45;&gt;Node9 -->
<g id="edge9" class="edge">
<title>Node7&#45;&gt;Node9</title>
<path fill="none" stroke="midnightblue" d="M431.07,-123.48C402.3,-113.22 353.84,-95.96 321.4,-84.4"/>
<polygon fill="midnightblue" stroke="midnightblue" points="322.48,-81.07 311.88,-81.01 320.13,-87.66 322.48,-81.07"/>
</g>
<!-- Node10 -->
<g id="node10" class="node">
<title>Node10</title>
<g id="a_node10"><a xlink:href="json_8hpp.html" target="_top" xlink:title="Simple wrapper around nlohmann/json.hpp to provide a common interface.">
<polygon fill="none" stroke="black" points="140,-62 140,-81 198,-81 198,-62 140,-62"/>
<text text-anchor="middle" x="169" y="-69" font-family="Helvetica,sans-Serif" font-size="10.00">json.hpp</text>
</a>
</g>
</g>
<!-- Node7&#45;&gt;Node10 -->
<g id="edge12" class="edge">
<title>Node7&#45;&gt;Node10</title>
<path fill="none" stroke="midnightblue" d="M420.45,-127.79C372.11,-121.43 281.82,-107.87 207,-87 204.35,-86.26 201.63,-85.41 198.91,-84.5"/>
<polygon fill="midnightblue" stroke="midnightblue" points="199.87,-81.13 189.28,-81.03 197.5,-87.71 199.87,-81.13"/>
</g>
<!-- Node12 -->
<g id="node12" class="node">
<title>Node12</title>
<g id="a_node12"><a xlink:href="node_8hpp.html" target="_top" xlink:title="Contains structures that are used to identify components of the flight system.">
<polygon fill="none" stroke="black" points="378,-62 378,-81 440,-81 440,-62 378,-62"/>
<text text-anchor="middle" x="409" y="-69" font-family="Helvetica,sans-Serif" font-size="10.00">node.hpp</text>
</a>
</g>
</g>
<!-- Node7&#45;&gt;Node12 -->
<g id="edge14" class="edge">
<title>Node7&#45;&gt;Node12</title>
<path fill="none" stroke="midnightblue" d="M448.41,-123.48C441.51,-114.55 430.5,-100.31 421.87,-89.14"/>
<polygon fill="midnightblue" stroke="midnightblue" points="424.46,-86.78 415.58,-81.01 418.93,-91.06 424.46,-86.78"/>
</g>
<!-- Node15 -->
<g id="node15" class="node">
<title>Node15</title>
<g id="a_node15"><a xlink:href="positional_8hpp.html" target="_top" xlink:title="Positional data for the flight system (gps/imu data)">
<polygon fill="none" stroke="black" points="458,-62 458,-81 544,-81 544,-62 458,-62"/>
<text text-anchor="middle" x="501" y="-69" font-family="Helvetica,sans-Serif" font-size="10.00">positional.hpp</text>
</a>
</g>
</g>
<!-- Node7&#45;&gt;Node15 -->
<g id="edge17" class="edge">
<title>Node7&#45;&gt;Node15</title>
<path fill="none" stroke="midnightblue" d="M461.59,-123.48C468.49,-114.55 479.5,-100.31 488.13,-89.14"/>
<polygon fill="midnightblue" stroke="midnightblue" points="491.07,-91.06 494.42,-81.01 485.54,-86.78 491.07,-91.06"/>
</g>
<!-- Node11 -->
<g id="node11" class="node">
<title>Node11</title>
<g id="a_node11"><a xlink:title=" ">
<polygon fill="none" stroke="#bfbfbf" points="114,-0.5 114,-19.5 224,-19.5 224,-0.5 114,-0.5"/>
<text text-anchor="middle" x="169" y="-7.5" font-family="Helvetica,sans-Serif" font-size="10.00">nlohmann/json.hpp</text>
</a>
</g>
</g>
<!-- Node10&#45;&gt;Node11 -->
<g id="edge13" class="edge">
<title>Node10&#45;&gt;Node11</title>
<path fill="none" stroke="midnightblue" d="M169,-61.98C169,-53.58 169,-40.48 169,-29.66"/>
<polygon fill="midnightblue" stroke="midnightblue" points="172.5,-29.51 169,-19.51 165.5,-29.51 172.5,-29.51"/>
</g>
<!-- Node13 -->
<g id="node13" class="node">
<title>Node13</title>
<g id="a_node13"><a xlink:title=" ">
<polygon fill="none" stroke="#bfbfbf" points="391,-0.5 391,-19.5 441,-19.5 441,-0.5 391,-0.5"/>
<text text-anchor="middle" x="416" y="-7.5" font-family="Helvetica,sans-Serif" font-size="10.00">cstdint</text>
</a>
</g>
</g>
<!-- Node12&#45;&gt;Node13 -->
<g id="edge15" class="edge">
<title>Node12&#45;&gt;Node13</title>
<path fill="none" stroke="midnightblue" d="M410,-61.98C410.99,-53.58 412.53,-40.48 413.8,-29.66"/>
<polygon fill="midnightblue" stroke="midnightblue" points="417.31,-29.85 415,-19.51 410.35,-29.03 417.31,-29.85"/>
</g>
<!-- Node14 -->
<g id="node14" class="node">
<title>Node14</title>
<g id="a_node14"><a xlink:title=" ">
<polygon fill="none" stroke="#bfbfbf" points="467,-0.5 467,-19.5 505,-19.5 505,-0.5 467,-0.5"/>
<text text-anchor="middle" x="486" y="-7.5" font-family="Helvetica,sans-Serif" font-size="10.00">map</text>
</a>
</g>
</g>
<!-- Node12&#45;&gt;Node14 -->
<g id="edge16" class="edge">
<title>Node12&#45;&gt;Node14</title>
<path fill="none" stroke="midnightblue" d="M420.03,-61.98C432.27,-52.52 452.23,-37.1 466.99,-25.69"/>
<polygon fill="midnightblue" stroke="midnightblue" points="469.22,-28.39 474.99,-19.51 464.94,-22.85 469.22,-28.39"/>
</g>
<!-- Node15&#45;&gt;Node5 -->
<g id="edge21" class="edge">
<title>Node15&#45;&gt;Node5</title>
<path fill="none" stroke="midnightblue" d="M533.18,-61.98C541.26,-59.93 549.93,-57.81 558,-56 616.43,-42.86 683.71,-29.95 730.34,-21.36"/>
<polygon fill="midnightblue" stroke="midnightblue" points="731.06,-24.78 740.26,-19.54 729.8,-17.9 731.06,-24.78"/>
</g>
<!-- Node15&#45;&gt;Node13 -->
<g id="edge18" class="edge">
<title>Node15&#45;&gt;Node13</title>
<path fill="none" stroke="midnightblue" d="M488.82,-61.98C475.19,-52.43 452.87,-36.81 436.53,-25.37"/>
<polygon fill="midnightblue" stroke="midnightblue" points="438.36,-22.38 428.16,-19.51 434.34,-28.11 438.36,-22.38"/>
</g>
<!-- Node15&#45;&gt;Node14 -->
<g id="edge19" class="edge">
<title>Node15&#45;&gt;Node14</title>
<path fill="none" stroke="midnightblue" d="M498.85,-61.98C496.71,-53.49 493.36,-40.2 490.62,-29.32"/>
<polygon fill="midnightblue" stroke="midnightblue" points="493.98,-28.35 488.15,-19.51 487.2,-30.06 493.98,-28.35"/>
</g>
<!-- Node16 -->
<g id="node16" class="node">
<title>Node16</title>
<g id="a_node16"><a xlink:title=" ">
<polygon fill="none" stroke="#bfbfbf" points="1173,-0.5 1173,-19.5 1217,-19.5 1217,-0.5 1173,-0.5"/>
<text text-anchor="middle" x="1195" y="-7.5" font-family="Helvetica,sans-Serif" font-size="10.00">string</text>
</a>
</g>
</g>
<!-- Node15&#45;&gt;Node16 -->
<g id="edge20" class="edge">
<title>Node15&#45;&gt;Node16</title>
<path fill="none" stroke="midnightblue" d="M544.41,-62.83C559.44,-60.37 576.43,-57.82 592,-56 809.18,-30.64 1072.12,-16.76 1162.6,-12.46"/>
<polygon fill="midnightblue" stroke="midnightblue" points="1162.94,-15.95 1172.76,-11.99 1162.61,-8.96 1162.94,-15.95"/>
</g>
<!-- Node17&#45;&gt;Node5 -->
<g id="edge23" class="edge">
<title>Node17&#45;&gt;Node5</title>
<path fill="none" stroke="midnightblue" d="M840.52,-179.46C833.56,-162.19 817.69,-121.81 807,-87 801.02,-67.54 795.54,-44.86 792.02,-29.37"/>
<polygon fill="midnightblue" stroke="midnightblue" points="795.41,-28.51 789.82,-19.52 788.58,-30.04 795.41,-28.51"/>
</g>
<!-- Node17&#45;&gt;Node18 -->
<g id="edge24" class="edge">
<title>Node17&#45;&gt;Node18</title>
<path fill="none" stroke="midnightblue" d="M812.78,-179.44C779.07,-170.2 725.2,-155.44 688.07,-145.26"/>
<polygon fill="midnightblue" stroke="midnightblue" points="688.64,-141.78 678.07,-142.52 686.79,-148.54 688.64,-141.78"/>
</g>
<!-- Node20 -->
<g id="node20" class="node">
<title>Node20</title>
<g id="a_node20"><a xlink:href="giraffe__diagnostic__ids_8hpp.html" target="_top" xlink:title=" ">
<polygon fill="none" stroke="black" points="816,-56.5 816,-86.5 920,-86.5 920,-56.5 816,-56.5"/>
<text text-anchor="start" x="824" y="-74.5" font-family="Helvetica,sans-Serif" font-size="10.00">giraffe_diagnostic</text>
<text text-anchor="middle" x="868" y="-63.5" font-family="Helvetica,sans-Serif" font-size="10.00">_ids.hpp</text>
</a>
</g>
</g>
<!-- Node17&#45;&gt;Node20 -->
<g id="edge27" class="edge">
<title>Node17&#45;&gt;Node20</title>
<path fill="none" stroke="midnightblue" d="M845.8,-179.32C849.41,-161.97 857.62,-122.46 862.98,-96.66"/>
<polygon fill="midnightblue" stroke="midnightblue" points="866.47,-97.05 865.08,-86.55 859.62,-95.62 866.47,-97.05"/>
</g>
<!-- Node17&#45;&gt;Node21 -->
<g id="edge28" class="edge">
<title>Node17&#45;&gt;Node21</title>
<path fill="none" stroke="midnightblue" d="M860.71,-179.32C877.31,-170.7 903,-157.36 922.22,-147.39"/>
<polygon fill="midnightblue" stroke="midnightblue" points="924.07,-150.37 931.33,-142.65 920.84,-144.16 924.07,-150.37"/>
</g>
<!-- Node18&#45;&gt;Node8 -->
<g id="edge25" class="edge">
<title>Node18&#45;&gt;Node8</title>
<path fill="none" stroke="midnightblue" d="M659.75,-123.48C674.03,-113.93 697.4,-98.31 714.51,-86.87"/>
<polygon fill="midnightblue" stroke="midnightblue" points="716.9,-89.48 723.27,-81.01 713.01,-83.66 716.9,-89.48"/>
</g>
<!-- Node19 -->
<g id="node19" class="node">
<title>Node19</title>
<g id="a_node19"><a xlink:title=" ">
<polygon fill="none" stroke="#bfbfbf" points="600.5,-62 600.5,-81 693.5,-81 693.5,-62 600.5,-62"/>
<text text-anchor="middle" x="647" y="-69" font-family="Helvetica,sans-Serif" font-size="10.00">unordered_map</text>
</a>
</g>
</g>
<!-- Node18&#45;&gt;Node19 -->
<g id="edge26" class="edge">
<title>Node18&#45;&gt;Node19</title>
<path fill="none" stroke="midnightblue" d="M647,-123.48C647,-115.08 647,-101.98 647,-91.16"/>
<polygon fill="midnightblue" stroke="midnightblue" points="650.5,-91.01 647,-81.01 643.5,-91.01 650.5,-91.01"/>
</g>
<!-- Node21&#45;&gt;Node5 -->
<g id="edge34" class="edge">
<title>Node21&#45;&gt;Node5</title>
<path fill="none" stroke="midnightblue" d="M948.39,-123.21C948.58,-107.58 946.68,-74.85 929,-56 911.15,-36.97 885.29,-25.96 860.57,-19.6"/>
<polygon fill="midnightblue" stroke="midnightblue" points="861.34,-16.18 850.8,-17.3 859.74,-23 861.34,-16.18"/>
</g>
<!-- Node21&#45;&gt;Node8 -->
<g id="edge31" class="edge">
<title>Node21&#45;&gt;Node8</title>
<path fill="none" stroke="midnightblue" d="M917.63,-123.48C878.47,-112.48 810.58,-93.43 769.82,-81.99"/>
<polygon fill="midnightblue" stroke="midnightblue" points="770.65,-78.59 760.07,-79.26 768.75,-85.33 770.65,-78.59"/>
</g>
<!-- Node21&#45;&gt;Node12 -->
<g id="edge38" class="edge">
<title>Node21&#45;&gt;Node12</title>
<path fill="none" stroke="midnightblue" d="M909.45,-129.81C808.24,-123.86 536.77,-106.52 449,-87 445.76,-86.28 442.42,-85.36 439.11,-84.34"/>
<polygon fill="midnightblue" stroke="midnightblue" points="440.05,-80.97 429.46,-81.06 437.8,-87.59 440.05,-80.97"/>
</g>
<!-- Node21&#45;&gt;Node15 -->
<g id="edge39" class="edge">
<title>Node21&#45;&gt;Node15</title>
<path fill="none" stroke="midnightblue" d="M909.49,-127.54C844.12,-119.89 707.33,-103.47 592,-87 579.75,-85.25 566.6,-83.23 554.2,-81.27"/>
<polygon fill="midnightblue" stroke="midnightblue" points="554.43,-77.77 544.01,-79.64 553.33,-84.68 554.43,-77.77"/>
</g>
<!-- Node21&#45;&gt;Node16 -->
<g id="edge33" class="edge">
<title>Node21&#45;&gt;Node16</title>
<path fill="none" stroke="midnightblue" d="M986.85,-131.41C1098.18,-129.32 1412.41,-120.49 1443,-87 1505.48,-18.58 1307.31,-11.05 1227.12,-10.73"/>
<polygon fill="midnightblue" stroke="midnightblue" points="1227.07,-7.23 1217.07,-10.72 1227.07,-14.23 1227.07,-7.23"/>
</g>
<!-- Node21&#45;&gt;Node20 -->
<g id="edge37" class="edge">
<title>Node21&#45;&gt;Node20</title>
<path fill="none" stroke="midnightblue" d="M936.54,-123.48C925.8,-115.49 909.35,-103.25 895.25,-92.77"/>
<polygon fill="midnightblue" stroke="midnightblue" points="896.97,-89.68 886.85,-86.52 892.79,-95.3 896.97,-89.68"/>
</g>
<!-- Node22 -->
<g id="node22" class="node">
<title>Node22</title>
<g id="a_node22"><a xlink:title=" ">
<polygon fill="none" stroke="#bfbfbf" points="1306,-62 1306,-81 1356,-81 1356,-62 1306,-62"/>
<text text-anchor="middle" x="1331" y="-69" font-family="Helvetica,sans-Serif" font-size="10.00">atomic</text>
</a>
</g>
</g>
<!-- Node21&#45;&gt;Node22 -->
<g id="edge29" class="edge">
<title>Node21&#45;&gt;Node22</title>
<path fill="none" stroke="midnightblue" d="M986.63,-130.48C1051.72,-127.15 1186.91,-116.96 1297,-87 1299.3,-86.37 1301.65,-85.63 1303.98,-84.8"/>
<polygon fill="midnightblue" stroke="midnightblue" points="1305.31,-88.04 1313.33,-81.12 1302.74,-81.53 1305.31,-88.04"/>
</g>
<!-- Node23 -->
<g id="node23" class="node">
<title>Node23</title>
<g id="a_node23"><a xlink:title=" ">
<polygon fill="none" stroke="#bfbfbf" points="1374,-62 1374,-81 1434,-81 1434,-62 1374,-62"/>
<text text-anchor="middle" x="1404" y="-69" font-family="Helvetica,sans-Serif" font-size="10.00">iostream</text>
</a>
</g>
</g>
<!-- Node21&#45;&gt;Node23 -->
<g id="edge30" class="edge">
<title>Node21&#45;&gt;Node23</title>
<path fill="none" stroke="midnightblue" d="M986.77,-131.02C1061.1,-128.44 1228.4,-119.23 1365,-87 1368.06,-86.28 1371.22,-85.38 1374.34,-84.39"/>
<polygon fill="midnightblue" stroke="midnightblue" points="1375.76,-87.6 1384.05,-81 1373.46,-80.99 1375.76,-87.6"/>
</g>
<!-- Node24 -->
<g id="node24" class="node">
<title>Node24</title>
<g id="a_node24"><a xlink:title=" ">
<polygon fill="none" stroke="#bfbfbf" points="976.5,-62 976.5,-81 1023.5,-81 1023.5,-62 976.5,-62"/>
<text text-anchor="middle" x="1000" y="-69" font-family="Helvetica,sans-Serif" font-size="10.00">queue</text>
</a>
</g>
</g>
<!-- Node21&#45;&gt;Node24 -->
<g id="edge32" class="edge">
<title>Node21&#45;&gt;Node24</title>
<path fill="none" stroke="midnightblue" d="M955.45,-123.48C963.33,-114.46 975.94,-100.02 985.74,-88.81"/>
<polygon fill="midnightblue" stroke="midnightblue" points="988.62,-90.84 992.56,-81.01 983.35,-86.24 988.62,-90.84"/>
</g>
<!-- Node25 -->
<g id="node25" class="node">
<title>Node25</title>
<g id="a_node25"><a xlink:title=" ">
<polygon fill="none" stroke="#bfbfbf" points="1042,-62 1042,-81 1190,-81 1190,-62 1042,-62"/>
<text text-anchor="middle" x="1116" y="-69" font-family="Helvetica,sans-Serif" font-size="10.00">BoosterSeat/exception.hpp</text>
</a>
</g>
</g>
<!-- Node21&#45;&gt;Node25 -->
<g id="edge35" class="edge">
<title>Node21&#45;&gt;Node25</title>
<path fill="none" stroke="midnightblue" d="M972.07,-123.48C1001.01,-113.22 1049.76,-95.96 1082.4,-84.4"/>
<polygon fill="midnightblue" stroke="midnightblue" points="1083.72,-87.65 1091.97,-81.01 1081.38,-81.05 1083.72,-87.65"/>
</g>
<!-- Node26 -->
<g id="node26" class="node">
<title>Node26</title>
<g id="a_node26"><a xlink:href="data__ids_8hpp.html" target="_top" xlink:title=" ">
<polygon fill="none" stroke="black" points="1208.5,-62 1208.5,-81 1287.5,-81 1287.5,-62 1208.5,-62"/>
<text text-anchor="middle" x="1248" y="-69" font-family="Helvetica,sans-Serif" font-size="10.00">data_ids.hpp</text>
</a>
</g>
</g>
<!-- Node21&#45;&gt;Node26 -->
<g id="edge36" class="edge">
<title>Node21&#45;&gt;Node26</title>
<path fill="none" stroke="midnightblue" d="M986.54,-126.44C1036.05,-119 1124.47,-104.65 1199,-87 1203.08,-86.03 1207.32,-84.93 1211.53,-83.77"/>
<polygon fill="midnightblue" stroke="midnightblue" points="1212.53,-87.13 1221.19,-81.02 1210.61,-80.4 1212.53,-87.13"/>
</g>
<!-- Node27&#45;&gt;Node8 -->
<g id="edge43" class="edge">
<title>Node27&#45;&gt;Node8</title>
<path fill="none" stroke="midnightblue" d="M726.97,-179.15C727,-166.63 727.31,-143.03 729,-123 729.9,-112.35 731.51,-100.51 732.96,-90.98"/>
<polygon fill="midnightblue" stroke="midnightblue" points="736.42,-91.47 734.53,-81.05 729.51,-90.37 736.42,-91.47"/>
</g>
<!-- Node28 -->
<g id="node28" class="node">
<title>Node28</title>
<g id="a_node28"><a xlink:title=" ">
<polygon fill="none" stroke="#bfbfbf" points="737.5,-123.5 737.5,-142.5 784.5,-142.5 784.5,-123.5 737.5,-123.5"/>
<text text-anchor="middle" x="761" y="-130.5" font-family="Helvetica,sans-Serif" font-size="10.00">deque</text>
</a>
</g>
</g>
<!-- Node27&#45;&gt;Node28 -->
<g id="edge42" class="edge">
<title>Node27&#45;&gt;Node28</title>
<path fill="none" stroke="midnightblue" d="M732.61,-179.08C737.37,-171.53 744.32,-160.49 750.15,-151.23"/>
<polygon fill="midnightblue" stroke="midnightblue" points="753.12,-153.08 755.49,-142.75 747.2,-149.35 753.12,-153.08"/>
</g>
</g>
</svg>
