<?xml version="1.0" encoding="UTF-8" standalone="no"?>
<!DOCTYPE svg PUBLIC "-//W3C//DTD SVG 1.1//EN"
 "http://www.w3.org/Graphics/SVG/1.1/DTD/svg11.dtd">
<!-- Generated by graphviz version 2.43.0 (0)
 -->
<!-- Title: influxdb.cpp Pages: 1 -->
<svg width="1286pt" height="375pt"
 viewBox="0.00 0.00 1286.28 375.00" xmlns="http://www.w3.org/2000/svg" xmlns:xlink="http://www.w3.org/1999/xlink">
<g id="graph0" class="graph" transform="scale(1 1) rotate(0) translate(4 371)">
<title>influxdb.cpp</title>
<!-- Node1 -->
<g id="node1" class="node">
<title>Node1</title>
<g id="a_node1"><a xlink:title=" ">
<polygon fill="#bfbfbf" stroke="black" points="928.73,-347.5 928.73,-366.5 1004.73,-366.5 1004.73,-347.5 928.73,-347.5"/>
<text text-anchor="middle" x="966.73" y="-354.5" font-family="Helvetica,sans-Serif" font-size="10.00">influxdb.cpp</text>
</a>
</g>
</g>
<!-- Node2 -->
<g id="node2" class="node">
<title>Node2</title>
<g id="a_node2"><a xlink:href="influxdb_8hpp.html" target="_top" xlink:title=" ">
<polygon fill="none" stroke="black" points="714.23,-291.5 714.23,-310.5 791.23,-310.5 791.23,-291.5 714.23,-291.5"/>
<text text-anchor="middle" x="752.73" y="-298.5" font-family="Helvetica,sans-Serif" font-size="10.00">influxdb.hpp</text>
</a>
</g>
</g>
<!-- Node1&#45;&gt;Node2 -->
<g id="edge1" class="edge">
<title>Node1&#45;&gt;Node2</title>
<path fill="none" stroke="midnightblue" d="M932.82,-347.44C895.88,-338.12 836.68,-323.18 796.31,-313"/>
<polygon fill="midnightblue" stroke="midnightblue" points="797.03,-309.57 786.48,-310.52 795.32,-316.36 797.03,-309.57"/>
</g>
<!-- Node8 -->
<g id="node8" class="node">
<title>Node8</title>
<g id="a_node8"><a xlink:href="blocks_8hpp.html" target="_top" xlink:title=" ">
<polygon fill="none" stroke="black" points="837.23,-179.5 837.23,-198.5 906.23,-198.5 906.23,-179.5 837.23,-179.5"/>
<text text-anchor="middle" x="871.73" y="-186.5" font-family="Helvetica,sans-Serif" font-size="10.00">blocks.hpp</text>
</a>
</g>
</g>
<!-- Node1&#45;&gt;Node8 -->
<g id="edge52" class="edge">
<title>Node1&#45;&gt;Node8</title>
<path fill="none" stroke="midnightblue" d="M963.69,-347.36C956.3,-326.9 936.11,-274.27 910.73,-235 904.08,-224.71 895.23,-214.31 887.64,-206.1"/>
<polygon fill="midnightblue" stroke="midnightblue" points="890.03,-203.53 880.6,-198.7 884.96,-208.36 890.03,-203.53"/>
</g>
<!-- Node24 -->
<g id="node24" class="node">
<title>Node24</title>
<g id="a_node24"><a xlink:title=" ">
<polygon fill="none" stroke="#bfbfbf" points="1188.73,-62 1188.73,-81 1248.73,-81 1248.73,-62 1188.73,-62"/>
<text text-anchor="middle" x="1218.73" y="-69" font-family="Helvetica,sans-Serif" font-size="10.00">iostream</text>
</a>
</g>
</g>
<!-- Node1&#45;&gt;Node24 -->
<g id="edge51" class="edge">
<title>Node1&#45;&gt;Node24</title>
<path fill="none" stroke="midnightblue" d="M999.35,-347.39C1042.66,-333.75 1113.73,-302.74 1113.73,-246 1113.73,-246 1113.73,-246 1113.73,-188 1113.73,-141.09 1161.73,-104.81 1192.83,-86.24"/>
<polygon fill="midnightblue" stroke="midnightblue" points="1194.93,-89.06 1201.86,-81.05 1191.45,-82.99 1194.93,-89.06"/>
</g>
<!-- Node31 -->
<g id="node31" class="node">
<title>Node31</title>
<g id="a_node31"><a xlink:href="curl__utility_8hpp.html" target="_top" xlink:title="Simple wrapper around libcurl for HTTP requests.">
<polygon fill="none" stroke="black" points="1141.73,-291.5 1141.73,-310.5 1229.73,-310.5 1229.73,-291.5 1141.73,-291.5"/>
<text text-anchor="middle" x="1185.73" y="-298.5" font-family="Helvetica,sans-Serif" font-size="10.00">curl_utility.hpp</text>
</a>
</g>
</g>
<!-- Node1&#45;&gt;Node31 -->
<g id="edge47" class="edge">
<title>Node1&#45;&gt;Node31</title>
<path fill="none" stroke="midnightblue" d="M1001.43,-347.44C1039.31,-338.1 1100.08,-323.12 1141.39,-312.93"/>
<polygon fill="midnightblue" stroke="midnightblue" points="1142.32,-316.31 1151.19,-310.52 1140.64,-309.51 1142.32,-316.31"/>
</g>
<!-- Node33 -->
<g id="node33" class="node">
<title>Node33</title>
<g id="a_node33"><a xlink:href="to__json_8hpp.html" target="_top" xlink:title="Utility functions for converting data to JSON.">
<polygon fill="none" stroke="black" points="963.23,-235.5 963.23,-254.5 1036.23,-254.5 1036.23,-235.5 963.23,-235.5"/>
<text text-anchor="middle" x="999.73" y="-242.5" font-family="Helvetica,sans-Serif" font-size="10.00">to_json.hpp</text>
</a>
</g>
</g>
<!-- Node1&#45;&gt;Node33 -->
<g id="edge53" class="edge">
<title>Node1&#45;&gt;Node33</title>
<path fill="none" stroke="midnightblue" d="M969.32,-347.37C974.67,-329.54 987.04,-288.3 994.25,-264.27"/>
<polygon fill="midnightblue" stroke="midnightblue" points="997.63,-265.18 997.15,-254.59 990.93,-263.16 997.63,-265.18"/>
</g>
<!-- Node34 -->
<g id="node34" class="node">
<title>Node34</title>
<g id="a_node34"><a xlink:href="to__string_8hpp.html" target="_top" xlink:title="Generic to_string functions for a variety of types.">
<polygon fill="none" stroke="black" points="738.73,-179.5 738.73,-198.5 818.73,-198.5 818.73,-179.5 738.73,-179.5"/>
<text text-anchor="middle" x="778.73" y="-186.5" font-family="Helvetica,sans-Serif" font-size="10.00">to_string.hpp</text>
</a>
</g>
</g>
<!-- Node1&#45;&gt;Node34 -->
<g id="edge58" class="edge">
<title>Node1&#45;&gt;Node34</title>
<path fill="none" stroke="midnightblue" d="M961.13,-347.36C944.97,-322.64 898.09,-252.3 876.73,-235 858.81,-220.48 835.44,-209.52 816.02,-202.05"/>
<polygon fill="midnightblue" stroke="midnightblue" points="817.15,-198.73 806.56,-198.56 814.73,-205.3 817.15,-198.73"/>
</g>
<!-- Node3 -->
<g id="node3" class="node">
<title>Node3</title>
<g id="a_node3"><a xlink:title=" ">
<polygon fill="none" stroke="#bfbfbf" points="559.23,-235.5 559.23,-254.5 684.23,-254.5 684.23,-235.5 559.23,-235.5"/>
<text text-anchor="middle" x="621.73" y="-242.5" font-family="Helvetica,sans-Serif" font-size="10.00">BoosterSeat/timer.hpp</text>
</a>
</g>
</g>
<!-- Node2&#45;&gt;Node3 -->
<g id="edge2" class="edge">
<title>Node2&#45;&gt;Node3</title>
<path fill="none" stroke="midnightblue" d="M731.97,-291.44C710.41,-282.56 676.47,-268.56 651.94,-258.45"/>
<polygon fill="midnightblue" stroke="midnightblue" points="652.97,-255.09 642.39,-254.52 650.3,-261.56 652.97,-255.09"/>
</g>
<!-- Node4 -->
<g id="node4" class="node">
<title>Node4</title>
<g id="a_node4"><a xlink:href="configuration_8hpp.html" target="_top" xlink:title=" ">
<polygon fill="none" stroke="black" points="702.23,-235.5 702.23,-254.5 803.23,-254.5 803.23,-235.5 702.23,-235.5"/>
<text text-anchor="middle" x="752.73" y="-242.5" font-family="Helvetica,sans-Serif" font-size="10.00">configuration.hpp</text>
</a>
</g>
</g>
<!-- Node2&#45;&gt;Node4 -->
<g id="edge3" class="edge">
<title>Node2&#45;&gt;Node4</title>
<path fill="none" stroke="midnightblue" d="M752.73,-291.08C752.73,-284.01 752.73,-273.86 752.73,-264.99"/>
<polygon fill="midnightblue" stroke="midnightblue" points="756.23,-264.75 752.73,-254.75 749.23,-264.75 756.23,-264.75"/>
</g>
<!-- Node5 -->
<g id="node5" class="node">
<title>Node5</title>
<g id="a_node5"><a xlink:href="shared__data_8hpp.html" target="_top" xlink:title="Contains the SharedData struct, used across all modules and extensions.">
<polygon fill="none" stroke="black" points="355.73,-235.5 355.73,-254.5 453.73,-254.5 453.73,-235.5 355.73,-235.5"/>
<text text-anchor="middle" x="404.73" y="-242.5" font-family="Helvetica,sans-Serif" font-size="10.00">shared_data.hpp</text>
</a>
</g>
</g>
<!-- Node2&#45;&gt;Node5 -->
<g id="edge4" class="edge">
<title>Node2&#45;&gt;Node5</title>
<path fill="none" stroke="midnightblue" d="M714.16,-294.01C653.52,-284.61 535.46,-266.29 463.99,-255.2"/>
<polygon fill="midnightblue" stroke="midnightblue" points="464.22,-251.69 453.8,-253.61 463.14,-258.61 464.22,-251.69"/>
</g>
<!-- Node30 -->
<g id="node30" class="node">
<title>Node30</title>
<g id="a_node30"><a xlink:title=" ">
<polygon fill="none" stroke="#bfbfbf" points="821.23,-235.5 821.23,-254.5 868.23,-254.5 868.23,-235.5 821.23,-235.5"/>
<text text-anchor="middle" x="844.73" y="-242.5" font-family="Helvetica,sans-Serif" font-size="10.00">vector</text>
</a>
</g>
</g>
<!-- Node2&#45;&gt;Node30 -->
<g id="edge46" class="edge">
<title>Node2&#45;&gt;Node30</title>
<path fill="none" stroke="midnightblue" d="M767.51,-291.32C782,-282.82 804.3,-269.73 821.22,-259.8"/>
<polygon fill="midnightblue" stroke="midnightblue" points="823.13,-262.74 829.99,-254.65 819.59,-256.7 823.13,-262.74"/>
</g>
<!-- Node6 -->
<g id="node6" class="node">
<title>Node6</title>
<g id="a_node6"><a xlink:title=" ">
<polygon fill="none" stroke="#bfbfbf" points="612.23,-0.5 612.23,-19.5 737.23,-19.5 737.23,-0.5 612.23,-0.5"/>
<text text-anchor="middle" x="674.73" y="-7.5" font-family="Helvetica,sans-Serif" font-size="10.00">BoosterSeat/clock.hpp</text>
</a>
</g>
</g>
<!-- Node5&#45;&gt;Node6 -->
<g id="edge5" class="edge">
<title>Node5&#45;&gt;Node6</title>
<path fill="none" stroke="midnightblue" d="M355.66,-244.36C293.93,-243.13 185.83,-235.32 101.73,-199 34.06,-169.78 -32.58,-109.87 17.73,-56 56.91,-14.04 438.99,-10.22 601.83,-10.52"/>
<polygon fill="midnightblue" stroke="midnightblue" points="602.22,-14.02 612.23,-10.55 602.24,-7.02 602.22,-14.02"/>
</g>
<!-- Node7 -->
<g id="node7" class="node">
<title>Node7</title>
<g id="a_node7"><a xlink:title=" ">
<polygon fill="none" stroke="#bfbfbf" points="397.73,-123.5 397.73,-142.5 519.73,-142.5 519.73,-123.5 397.73,-123.5"/>
<text text-anchor="middle" x="458.73" y="-130.5" font-family="Helvetica,sans-Serif" font-size="10.00">BoosterSeat/time.hpp</text>
</a>
</g>
</g>
<!-- Node5&#45;&gt;Node7 -->
<g id="edge6" class="edge">
<title>Node5&#45;&gt;Node7</title>
<path fill="none" stroke="midnightblue" d="M408.97,-235.37C417.8,-217.38 438.33,-175.55 450.08,-151.63"/>
<polygon fill="midnightblue" stroke="midnightblue" points="453.25,-153.11 454.51,-142.59 446.96,-150.03 453.25,-153.11"/>
</g>
<!-- Node5&#45;&gt;Node8 -->
<g id="edge7" class="edge">
<title>Node5&#45;&gt;Node8</title>
<path fill="none" stroke="midnightblue" d="M453.78,-240.32C530.95,-234.19 685.61,-220.54 827.04,-198.96"/>
<polygon fill="midnightblue" stroke="midnightblue" points="827.85,-202.37 837.2,-197.39 826.78,-195.46 827.85,-202.37"/>
</g>
<!-- Node18 -->
<g id="node18" class="node">
<title>Node18</title>
<g id="a_node18"><a xlink:href="error__frame_8hpp.html" target="_top" xlink:title="The error frame.">
<polygon fill="none" stroke="black" points="259.23,-179.5 259.23,-198.5 354.23,-198.5 354.23,-179.5 259.23,-179.5"/>
<text text-anchor="middle" x="306.73" y="-186.5" font-family="Helvetica,sans-Serif" font-size="10.00">error_frame.hpp</text>
</a>
</g>
</g>
<!-- Node5&#45;&gt;Node18 -->
<g id="edge23" class="edge">
<title>Node5&#45;&gt;Node18</title>
<path fill="none" stroke="midnightblue" d="M388.98,-235.32C373.41,-226.74 349.35,-213.49 331.27,-203.52"/>
<polygon fill="midnightblue" stroke="midnightblue" points="332.88,-200.42 322.44,-198.65 329.51,-206.55 332.88,-200.42"/>
</g>
<!-- Node19 -->
<g id="node19" class="node">
<title>Node19</title>
<g id="a_node19"><a xlink:href="frame_8hpp.html" target="_top" xlink:title=" ">
<polygon fill="none" stroke="black" points="40.23,-123.5 40.23,-142.5 107.23,-142.5 107.23,-123.5 40.23,-123.5"/>
<text text-anchor="middle" x="73.73" y="-130.5" font-family="Helvetica,sans-Serif" font-size="10.00">frame.hpp</text>
</a>
</g>
</g>
<!-- Node5&#45;&gt;Node19 -->
<g id="edge41" class="edge">
<title>Node5&#45;&gt;Node19</title>
<path fill="none" stroke="midnightblue" d="M355.68,-240.1C287.09,-233.95 166.65,-220.46 128.73,-199 109.1,-187.89 93.33,-166.93 83.8,-151.81"/>
<polygon fill="midnightblue" stroke="midnightblue" points="86.59,-149.67 78.45,-142.88 80.58,-153.26 86.59,-149.67"/>
</g>
<!-- Node22 -->
<g id="node22" class="node">
<title>Node22</title>
<g id="a_node22"><a xlink:href="streams_8hpp.html" target="_top" xlink:title="The header file for the data streams.">
<polygon fill="none" stroke="black" points="612.23,-123.5 612.23,-142.5 689.23,-142.5 689.23,-123.5 612.23,-123.5"/>
<text text-anchor="middle" x="650.73" y="-130.5" font-family="Helvetica,sans-Serif" font-size="10.00">streams.hpp</text>
</a>
</g>
</g>
<!-- Node5&#45;&gt;Node22 -->
<g id="edge45" class="edge">
<title>Node5&#45;&gt;Node22</title>
<path fill="none" stroke="midnightblue" d="M424.03,-235.37C467.14,-216.09 571.44,-169.45 622.13,-146.79"/>
<polygon fill="midnightblue" stroke="midnightblue" points="623.82,-149.87 631.52,-142.59 620.96,-143.48 623.82,-149.87"/>
</g>
<!-- Node28 -->
<g id="node28" class="node">
<title>Node28</title>
<g id="a_node28"><a xlink:href="log__container_8hpp.html" target="_top" xlink:title="A simple logging system for debugging.">
<polygon fill="none" stroke="black" points="138.23,-179.5 138.23,-198.5 241.23,-198.5 241.23,-179.5 138.23,-179.5"/>
<text text-anchor="middle" x="189.73" y="-186.5" font-family="Helvetica,sans-Serif" font-size="10.00">log_container.hpp</text>
</a>
</g>
</g>
<!-- Node5&#45;&gt;Node28 -->
<g id="edge42" class="edge">
<title>Node5&#45;&gt;Node28</title>
<path fill="none" stroke="midnightblue" d="M370.66,-235.44C333.55,-226.12 274.07,-211.18 233.52,-201"/>
<polygon fill="midnightblue" stroke="midnightblue" points="234.19,-197.56 223.64,-198.52 232.48,-204.35 234.19,-197.56"/>
</g>
<!-- Node8&#45;&gt;Node6 -->
<g id="edge9" class="edge">
<title>Node8&#45;&gt;Node6</title>
<path fill="none" stroke="midnightblue" d="M837.14,-180.66C802.86,-172.61 753.89,-158.71 742.73,-143 718.39,-108.73 788.81,-90.84 790.73,-87 796.89,-74.68 798.51,-67.37 790.73,-56 779.56,-39.68 761.54,-29.28 743.01,-22.65"/>
<polygon fill="midnightblue" stroke="midnightblue" points="743.89,-19.26 733.3,-19.52 741.74,-25.92 743.89,-19.26"/>
</g>
<!-- Node8&#45;&gt;Node7 -->
<g id="edge11" class="edge">
<title>Node8&#45;&gt;Node7</title>
<path fill="none" stroke="midnightblue" d="M837.19,-180.66C834,-180.07 830.81,-179.5 827.73,-179 724.77,-162.22 604.71,-148.69 530.2,-140.99"/>
<polygon fill="midnightblue" stroke="midnightblue" points="530.3,-137.49 519.99,-139.95 529.58,-144.45 530.3,-137.49"/>
</g>
<!-- Node8&#45;&gt;Node8 -->
<g id="edge12" class="edge">
<title>Node8&#45;&gt;Node8</title>
<path fill="none" stroke="midnightblue" d="M894.12,-198.53C909.34,-201.31 924.23,-198.13 924.23,-189 924.23,-181.94 915.32,-178.44 904.24,-178.5"/>
<polygon fill="midnightblue" stroke="midnightblue" points="903.74,-175.03 894.12,-179.47 904.41,-182 903.74,-175.03"/>
</g>
<!-- Node9 -->
<g id="node9" class="node">
<title>Node9</title>
<g id="a_node9"><a xlink:title=" ">
<polygon fill="none" stroke="#bfbfbf" points="176.73,-62 176.73,-81 224.73,-81 224.73,-62 176.73,-62"/>
<text text-anchor="middle" x="200.73" y="-69" font-family="Helvetica,sans-Serif" font-size="10.00">mutex</text>
</a>
</g>
</g>
<!-- Node8&#45;&gt;Node9 -->
<g id="edge8" class="edge">
<title>Node8&#45;&gt;Node9</title>
<path fill="none" stroke="midnightblue" d="M837.17,-180.78C833.98,-180.16 830.8,-179.56 827.73,-179 728.1,-160.85 701.75,-164.24 602.73,-143 569.42,-135.85 562.17,-129.52 528.73,-123 399.09,-97.7 361.11,-121.94 233.73,-87 231.44,-86.37 229.1,-85.61 226.78,-84.77"/>
<polygon fill="midnightblue" stroke="midnightblue" points="228.09,-81.52 217.51,-81 225.46,-88.01 228.09,-81.52"/>
</g>
<!-- Node10 -->
<g id="node10" class="node">
<title>Node10</title>
<g id="a_node10"><a xlink:title=" ">
<polygon fill="none" stroke="#bfbfbf" points="752.23,-123.5 752.23,-142.5 895.23,-142.5 895.23,-123.5 752.23,-123.5"/>
<text text-anchor="middle" x="823.73" y="-130.5" font-family="Helvetica,sans-Serif" font-size="10.00">BoosterSeat/numbers.hpp</text>
</a>
</g>
</g>
<!-- Node8&#45;&gt;Node10 -->
<g id="edge10" class="edge">
<title>Node8&#45;&gt;Node10</title>
<path fill="none" stroke="midnightblue" d="M863.8,-179.08C856.88,-171.3 846.66,-159.8 838.28,-150.37"/>
<polygon fill="midnightblue" stroke="midnightblue" points="840.77,-147.9 831.51,-142.75 835.54,-152.55 840.77,-147.9"/>
</g>
<!-- Node11 -->
<g id="node11" class="node">
<title>Node11</title>
<g id="a_node11"><a xlink:href="json_8hpp.html" target="_top" xlink:title="Simple wrapper around nlohmann/json.hpp to provide a common interface.">
<polygon fill="none" stroke="black" points="1027.73,-123.5 1027.73,-142.5 1085.73,-142.5 1085.73,-123.5 1027.73,-123.5"/>
<text text-anchor="middle" x="1056.73" y="-130.5" font-family="Helvetica,sans-Serif" font-size="10.00">json.hpp</text>
</a>
</g>
</g>
<!-- Node8&#45;&gt;Node11 -->
<g id="edge13" class="edge">
<title>Node8&#45;&gt;Node11</title>
<path fill="none" stroke="midnightblue" d="M901.04,-179.44C932.57,-170.24 982.86,-155.56 1017.72,-145.39"/>
<polygon fill="midnightblue" stroke="midnightblue" points="1018.93,-148.68 1027.55,-142.52 1016.97,-141.96 1018.93,-148.68"/>
</g>
<!-- Node13 -->
<g id="node13" class="node">
<title>Node13</title>
<g id="a_node13"><a xlink:href="node_8hpp.html" target="_top" xlink:title="Contains structures that are used to identify components of the flight system.">
<polygon fill="none" stroke="black" points="838.73,-62 838.73,-81 900.73,-81 900.73,-62 838.73,-62"/>
<text text-anchor="middle" x="869.73" y="-69" font-family="Helvetica,sans-Serif" font-size="10.00">node.hpp</text>
</a>
</g>
</g>
<!-- Node8&#45;&gt;Node13 -->
<g id="edge15" class="edge">
<title>Node8&#45;&gt;Node13</title>
<path fill="none" stroke="midnightblue" d="M880.48,-179.29C888.29,-170.84 899.18,-157.25 903.73,-143 906.43,-134.53 906.33,-131.5 903.73,-123 899.94,-110.59 891.97,-98.47 884.69,-89.21"/>
<polygon fill="midnightblue" stroke="midnightblue" points="887.19,-86.74 878.09,-81.3 881.81,-91.22 887.19,-86.74"/>
</g>
<!-- Node16 -->
<g id="node16" class="node">
<title>Node16</title>
<g id="a_node16"><a xlink:href="positional_8hpp.html" target="_top" xlink:title="Positional data for the flight system (gps/imu data)">
<polygon fill="none" stroke="black" points="918.73,-62 918.73,-81 1004.73,-81 1004.73,-62 918.73,-62"/>
<text text-anchor="middle" x="961.73" y="-69" font-family="Helvetica,sans-Serif" font-size="10.00">positional.hpp</text>
</a>
</g>
</g>
<!-- Node8&#45;&gt;Node16 -->
<g id="edge18" class="edge">
<title>Node8&#45;&gt;Node16</title>
<path fill="none" stroke="midnightblue" d="M882.2,-179.38C892.26,-170.79 907.54,-156.91 918.73,-143 932.16,-126.3 944.57,-105.06 952.57,-90.28"/>
<polygon fill="midnightblue" stroke="midnightblue" points="955.78,-91.69 957.36,-81.22 949.6,-88.42 955.78,-91.69"/>
</g>
<!-- Node12 -->
<g id="node12" class="node">
<title>Node12</title>
<g id="a_node12"><a xlink:title=" ">
<polygon fill="none" stroke="#bfbfbf" points="1060.73,-62 1060.73,-81 1170.73,-81 1170.73,-62 1060.73,-62"/>
<text text-anchor="middle" x="1115.73" y="-69" font-family="Helvetica,sans-Serif" font-size="10.00">nlohmann/json.hpp</text>
</a>
</g>
</g>
<!-- Node11&#45;&gt;Node12 -->
<g id="edge14" class="edge">
<title>Node11&#45;&gt;Node12</title>
<path fill="none" stroke="midnightblue" d="M1065.18,-123.48C1074.3,-114.28 1089,-99.46 1100.21,-88.16"/>
<polygon fill="midnightblue" stroke="midnightblue" points="1102.74,-90.57 1107.29,-81.01 1097.77,-85.65 1102.74,-90.57"/>
</g>
<!-- Node14 -->
<g id="node14" class="node">
<title>Node14</title>
<g id="a_node14"><a xlink:title=" ">
<polygon fill="none" stroke="#bfbfbf" points="851.73,-0.5 851.73,-19.5 901.73,-19.5 901.73,-0.5 851.73,-0.5"/>
<text text-anchor="middle" x="876.73" y="-7.5" font-family="Helvetica,sans-Serif" font-size="10.00">cstdint</text>
</a>
</g>
</g>
<!-- Node13&#45;&gt;Node14 -->
<g id="edge16" class="edge">
<title>Node13&#45;&gt;Node14</title>
<path fill="none" stroke="midnightblue" d="M870.73,-61.98C871.72,-53.58 873.26,-40.48 874.53,-29.66"/>
<polygon fill="midnightblue" stroke="midnightblue" points="878.04,-29.85 875.73,-19.51 871.08,-29.03 878.04,-29.85"/>
</g>
<!-- Node15 -->
<g id="node15" class="node">
<title>Node15</title>
<g id="a_node15"><a xlink:title=" ">
<polygon fill="none" stroke="#bfbfbf" points="927.73,-0.5 927.73,-19.5 965.73,-19.5 965.73,-0.5 927.73,-0.5"/>
<text text-anchor="middle" x="946.73" y="-7.5" font-family="Helvetica,sans-Serif" font-size="10.00">map</text>
</a>
</g>
</g>
<!-- Node13&#45;&gt;Node15 -->
<g id="edge17" class="edge">
<title>Node13&#45;&gt;Node15</title>
<path fill="none" stroke="midnightblue" d="M880.76,-61.98C893,-52.52 912.96,-37.1 927.72,-25.69"/>
<polygon fill="midnightblue" stroke="midnightblue" points="929.95,-28.39 935.72,-19.51 925.67,-22.85 929.95,-28.39"/>
</g>
<!-- Node16&#45;&gt;Node6 -->
<g id="edge22" class="edge">
<title>Node16&#45;&gt;Node6</title>
<path fill="none" stroke="midnightblue" d="M932.69,-61.94C925.24,-59.88 917.21,-57.76 909.73,-56 851.14,-42.25 783.61,-29.65 736.01,-21.3"/>
<polygon fill="midnightblue" stroke="midnightblue" points="736.32,-17.8 725.87,-19.54 735.12,-24.7 736.32,-17.8"/>
</g>
<!-- Node16&#45;&gt;Node14 -->
<g id="edge19" class="edge">
<title>Node16&#45;&gt;Node14</title>
<path fill="none" stroke="midnightblue" d="M949.55,-61.98C935.92,-52.43 913.6,-36.81 897.26,-25.37"/>
<polygon fill="midnightblue" stroke="midnightblue" points="899.09,-22.38 888.89,-19.51 895.07,-28.11 899.09,-22.38"/>
</g>
<!-- Node16&#45;&gt;Node15 -->
<g id="edge20" class="edge">
<title>Node16&#45;&gt;Node15</title>
<path fill="none" stroke="midnightblue" d="M959.58,-61.98C957.44,-53.49 954.09,-40.2 951.35,-29.32"/>
<polygon fill="midnightblue" stroke="midnightblue" points="954.71,-28.35 948.88,-19.51 947.93,-30.06 954.71,-28.35"/>
</g>
<!-- Node17 -->
<g id="node17" class="node">
<title>Node17</title>
<g id="a_node17"><a xlink:title=" ">
<polygon fill="none" stroke="#bfbfbf" points="1010.73,-0.5 1010.73,-19.5 1054.73,-19.5 1054.73,-0.5 1010.73,-0.5"/>
<text text-anchor="middle" x="1032.73" y="-7.5" font-family="Helvetica,sans-Serif" font-size="10.00">string</text>
</a>
</g>
</g>
<!-- Node16&#45;&gt;Node17 -->
<g id="edge21" class="edge">
<title>Node16&#45;&gt;Node17</title>
<path fill="none" stroke="midnightblue" d="M971.9,-61.98C983.08,-52.61 1001.25,-37.38 1014.82,-26.01"/>
<polygon fill="midnightblue" stroke="midnightblue" points="1017.16,-28.61 1022.58,-19.51 1012.66,-23.25 1017.16,-28.61"/>
</g>
<!-- Node18&#45;&gt;Node6 -->
<g id="edge24" class="edge">
<title>Node18&#45;&gt;Node6</title>
<path fill="none" stroke="midnightblue" d="M284.73,-179.48C235.13,-159.11 122.34,-105.59 167.73,-56 196.44,-24.63 468.61,-14.99 601.89,-12.14"/>
<polygon fill="midnightblue" stroke="midnightblue" points="602.09,-15.64 612.02,-11.93 601.95,-8.64 602.09,-15.64"/>
</g>
<!-- Node18&#45;&gt;Node19 -->
<g id="edge25" class="edge">
<title>Node18&#45;&gt;Node19</title>
<path fill="none" stroke="midnightblue" d="M269.81,-179.44C228.38,-169.84 161.24,-154.28 117.28,-144.09"/>
<polygon fill="midnightblue" stroke="midnightblue" points="117.98,-140.66 107.45,-141.82 116.4,-147.48 117.98,-140.66"/>
</g>
<!-- Node21 -->
<g id="node21" class="node">
<title>Node21</title>
<g id="a_node21"><a xlink:href="giraffe__diagnostic__ids_8hpp.html" target="_top" xlink:title=" ">
<polygon fill="none" stroke="black" points="242.73,-56.5 242.73,-86.5 346.73,-86.5 346.73,-56.5 242.73,-56.5"/>
<text text-anchor="start" x="250.73" y="-74.5" font-family="Helvetica,sans-Serif" font-size="10.00">giraffe_diagnostic</text>
<text text-anchor="middle" x="294.73" y="-63.5" font-family="Helvetica,sans-Serif" font-size="10.00">_ids.hpp</text>
</a>
</g>
</g>
<!-- Node18&#45;&gt;Node21 -->
<g id="edge28" class="edge">
<title>Node18&#45;&gt;Node21</title>
<path fill="none" stroke="midnightblue" d="M305.83,-179.32C304.03,-161.97 299.92,-122.46 297.24,-96.66"/>
<polygon fill="midnightblue" stroke="midnightblue" points="300.7,-96.13 296.19,-86.55 293.74,-96.85 300.7,-96.13"/>
</g>
<!-- Node18&#45;&gt;Node22 -->
<g id="edge29" class="edge">
<title>Node18&#45;&gt;Node22</title>
<path fill="none" stroke="midnightblue" d="M354.56,-180.49C419.84,-170.24 536.2,-151.98 601.96,-141.66"/>
<polygon fill="midnightblue" stroke="midnightblue" points="602.73,-145.08 612.07,-140.07 601.65,-138.16 602.73,-145.08"/>
</g>
<!-- Node19&#45;&gt;Node9 -->
<g id="edge26" class="edge">
<title>Node19&#45;&gt;Node9</title>
<path fill="none" stroke="midnightblue" d="M91.93,-123.48C113.24,-113.49 148.76,-96.85 173.39,-85.31"/>
<polygon fill="midnightblue" stroke="midnightblue" points="175,-88.42 182.57,-81.01 172.03,-82.08 175,-88.42"/>
</g>
<!-- Node20 -->
<g id="node20" class="node">
<title>Node20</title>
<g id="a_node20"><a xlink:title=" ">
<polygon fill="none" stroke="#bfbfbf" points="27.23,-62 27.23,-81 120.23,-81 120.23,-62 27.23,-62"/>
<text text-anchor="middle" x="73.73" y="-69" font-family="Helvetica,sans-Serif" font-size="10.00">unordered_map</text>
</a>
</g>
</g>
<!-- Node19&#45;&gt;Node20 -->
<g id="edge27" class="edge">
<title>Node19&#45;&gt;Node20</title>
<path fill="none" stroke="midnightblue" d="M73.73,-123.48C73.73,-115.08 73.73,-101.98 73.73,-91.16"/>
<polygon fill="midnightblue" stroke="midnightblue" points="77.23,-91.01 73.73,-81.01 70.23,-91.01 77.23,-91.01"/>
</g>
<!-- Node22&#45;&gt;Node6 -->
<g id="edge35" class="edge">
<title>Node22&#45;&gt;Node6</title>
<path fill="none" stroke="midnightblue" d="M652.46,-123.3C656.33,-103.76 665.79,-56.06 671.05,-29.55"/>
<polygon fill="midnightblue" stroke="midnightblue" points="674.51,-30.11 673.02,-19.62 667.64,-28.75 674.51,-30.11"/>
</g>
<!-- Node22&#45;&gt;Node9 -->
<g id="edge32" class="edge">
<title>Node22&#45;&gt;Node9</title>
<path fill="none" stroke="midnightblue" d="M611.92,-126.4C603.3,-125.22 594.21,-124.02 585.73,-123 429.6,-104.21 385.79,-127.12 233.73,-87 231.43,-86.39 229.09,-85.65 226.77,-84.82"/>
<polygon fill="midnightblue" stroke="midnightblue" points="228.08,-81.57 217.49,-81.07 225.45,-88.06 228.08,-81.57"/>
</g>
<!-- Node22&#45;&gt;Node13 -->
<g id="edge39" class="edge">
<title>Node22&#45;&gt;Node13</title>
<path fill="none" stroke="midnightblue" d="M682.11,-123.48C720.65,-113 786.14,-95.21 828.65,-83.66"/>
<polygon fill="midnightblue" stroke="midnightblue" points="829.68,-87.01 838.41,-81.01 827.84,-80.25 829.68,-87.01"/>
</g>
<!-- Node22&#45;&gt;Node16 -->
<g id="edge40" class="edge">
<title>Node22&#45;&gt;Node16</title>
<path fill="none" stroke="midnightblue" d="M689.58,-126.49C740.45,-118.99 832.27,-104.48 909.73,-87 914.12,-86.01 918.69,-84.88 923.22,-83.7"/>
<polygon fill="midnightblue" stroke="midnightblue" points="924.24,-87.05 932.98,-81.07 922.41,-80.29 924.24,-87.05"/>
</g>
<!-- Node22&#45;&gt;Node17 -->
<g id="edge34" class="edge">
<title>Node22&#45;&gt;Node17</title>
<path fill="none" stroke="midnightblue" d="M689.51,-127.77C781.87,-117.63 1007.68,-92.35 1013.73,-87 1029.77,-72.8 1033.26,-47.31 1033.58,-29.79"/>
<polygon fill="midnightblue" stroke="midnightblue" points="1037.08,-29.58 1033.43,-19.63 1030.08,-29.68 1037.08,-29.58"/>
</g>
<!-- Node22&#45;&gt;Node21 -->
<g id="edge38" class="edge">
<title>Node22&#45;&gt;Node21</title>
<path fill="none" stroke="midnightblue" d="M612.19,-126.52C547.61,-117.28 419.23,-98.62 357.02,-87.12"/>
<polygon fill="midnightblue" stroke="midnightblue" points="357.39,-83.63 346.91,-85.2 356.08,-90.51 357.39,-83.63"/>
</g>
<!-- Node23 -->
<g id="node23" class="node">
<title>Node23</title>
<g id="a_node23"><a xlink:title=" ">
<polygon fill="none" stroke="#bfbfbf" points="364.73,-62 364.73,-81 414.73,-81 414.73,-62 364.73,-62"/>
<text text-anchor="middle" x="389.73" y="-69" font-family="Helvetica,sans-Serif" font-size="10.00">atomic</text>
</a>
</g>
</g>
<!-- Node22&#45;&gt;Node23 -->
<g id="edge30" class="edge">
<title>Node22&#45;&gt;Node23</title>
<path fill="none" stroke="midnightblue" d="M611.97,-126.82C566.29,-120.15 488.42,-106.97 423.73,-87 421.59,-86.34 419.4,-85.59 417.21,-84.78"/>
<polygon fill="midnightblue" stroke="midnightblue" points="418.41,-81.49 407.82,-81.04 415.81,-87.99 418.41,-81.49"/>
</g>
<!-- Node22&#45;&gt;Node24 -->
<g id="edge31" class="edge">
<title>Node22&#45;&gt;Node24</title>
<path fill="none" stroke="midnightblue" d="M689.66,-128.06C706.04,-126.43 725.31,-124.57 742.73,-123 936.82,-105.51 989.51,-129.35 1179.73,-87 1182.8,-86.32 1185.96,-85.44 1189.09,-84.47"/>
<polygon fill="midnightblue" stroke="midnightblue" points="1190.5,-87.68 1198.81,-81.1 1188.21,-81.07 1190.5,-87.68"/>
</g>
<!-- Node25 -->
<g id="node25" class="node">
<title>Node25</title>
<g id="a_node25"><a xlink:title=" ">
<polygon fill="none" stroke="#bfbfbf" points="433.23,-62 433.23,-81 480.23,-81 480.23,-62 433.23,-62"/>
<text text-anchor="middle" x="456.73" y="-69" font-family="Helvetica,sans-Serif" font-size="10.00">queue</text>
</a>
</g>
</g>
<!-- Node22&#45;&gt;Node25 -->
<g id="edge33" class="edge">
<title>Node22&#45;&gt;Node25</title>
<path fill="none" stroke="midnightblue" d="M614.46,-123.43C581.53,-115.27 531.82,-102.04 489.73,-87 488.07,-86.41 486.37,-85.77 484.67,-85.1"/>
<polygon fill="midnightblue" stroke="midnightblue" points="485.62,-81.71 475.04,-81.1 482.93,-88.17 485.62,-81.71"/>
</g>
<!-- Node26 -->
<g id="node26" class="node">
<title>Node26</title>
<g id="a_node26"><a xlink:title=" ">
<polygon fill="none" stroke="#bfbfbf" points="498.73,-62 498.73,-81 646.73,-81 646.73,-62 498.73,-62"/>
<text text-anchor="middle" x="572.73" y="-69" font-family="Helvetica,sans-Serif" font-size="10.00">BoosterSeat/exception.hpp</text>
</a>
</g>
</g>
<!-- Node22&#45;&gt;Node26 -->
<g id="edge36" class="edge">
<title>Node22&#45;&gt;Node26</title>
<path fill="none" stroke="midnightblue" d="M639.55,-123.48C627.16,-114.02 606.94,-98.6 591.98,-87.19"/>
<polygon fill="midnightblue" stroke="midnightblue" points="593.96,-84.29 583.88,-81.01 589.71,-89.86 593.96,-84.29"/>
</g>
<!-- Node27 -->
<g id="node27" class="node">
<title>Node27</title>
<g id="a_node27"><a xlink:href="data__ids_8hpp.html" target="_top" xlink:title=" ">
<polygon fill="none" stroke="black" points="703.23,-62 703.23,-81 782.23,-81 782.23,-62 703.23,-62"/>
<text text-anchor="middle" x="742.73" y="-69" font-family="Helvetica,sans-Serif" font-size="10.00">data_ids.hpp</text>
</a>
</g>
</g>
<!-- Node22&#45;&gt;Node27 -->
<g id="edge37" class="edge">
<title>Node22&#45;&gt;Node27</title>
<path fill="none" stroke="midnightblue" d="M663.91,-123.48C678.8,-113.84 703.27,-98.02 721,-86.55"/>
<polygon fill="midnightblue" stroke="midnightblue" points="723.08,-89.38 729.57,-81.01 719.28,-83.5 723.08,-89.38"/>
</g>
<!-- Node28&#45;&gt;Node9 -->
<g id="edge44" class="edge">
<title>Node28&#45;&gt;Node9</title>
<path fill="none" stroke="midnightblue" d="M190.56,-179.32C192.32,-160.76 196.51,-116.84 198.92,-91.47"/>
<polygon fill="midnightblue" stroke="midnightblue" points="202.43,-91.57 199.89,-81.28 195.46,-90.91 202.43,-91.57"/>
</g>
<!-- Node29 -->
<g id="node29" class="node">
<title>Node29</title>
<g id="a_node29"><a xlink:title=" ">
<polygon fill="none" stroke="#bfbfbf" points="125.23,-123.5 125.23,-142.5 172.23,-142.5 172.23,-123.5 125.23,-123.5"/>
<text text-anchor="middle" x="148.73" y="-130.5" font-family="Helvetica,sans-Serif" font-size="10.00">deque</text>
</a>
</g>
</g>
<!-- Node28&#45;&gt;Node29 -->
<g id="edge43" class="edge">
<title>Node28&#45;&gt;Node29</title>
<path fill="none" stroke="midnightblue" d="M182.96,-179.08C177.17,-171.46 168.67,-160.26 161.59,-150.94"/>
<polygon fill="midnightblue" stroke="midnightblue" points="164.21,-148.6 155.37,-142.75 158.63,-152.83 164.21,-148.6"/>
</g>
<!-- Node31&#45;&gt;Node17 -->
<g id="edge49" class="edge">
<title>Node31&#45;&gt;Node17</title>
<path fill="none" stroke="midnightblue" d="M1200.35,-291.48C1226.07,-275.27 1276.73,-237.34 1276.73,-190 1276.73,-190 1276.73,-190 1276.73,-132 1276.73,-97.18 1282.93,-80.03 1257.73,-56 1230.44,-29.98 1120.48,-17.84 1065.04,-13.27"/>
<polygon fill="midnightblue" stroke="midnightblue" points="1065.28,-9.78 1055.03,-12.48 1064.72,-16.76 1065.28,-9.78"/>
</g>
<!-- Node31&#45;&gt;Node30 -->
<g id="edge50" class="edge">
<title>Node31&#45;&gt;Node30</title>
<path fill="none" stroke="midnightblue" d="M1141.5,-293C1072.51,-282.07 940.76,-261.21 878.68,-251.38"/>
<polygon fill="midnightblue" stroke="midnightblue" points="879.06,-247.89 868.63,-249.79 877.96,-254.81 879.06,-247.89"/>
</g>
<!-- Node32 -->
<g id="node32" class="node">
<title>Node32</title>
<g id="a_node32"><a xlink:title=" ">
<polygon fill="none" stroke="#bfbfbf" points="1153.23,-235.5 1153.23,-254.5 1218.23,-254.5 1218.23,-235.5 1153.23,-235.5"/>
<text text-anchor="middle" x="1185.73" y="-242.5" font-family="Helvetica,sans-Serif" font-size="10.00">curl/curl.h</text>
</a>
</g>
</g>
<!-- Node31&#45;&gt;Node32 -->
<g id="edge48" class="edge">
<title>Node31&#45;&gt;Node32</title>
<path fill="none" stroke="midnightblue" d="M1185.73,-291.08C1185.73,-284.01 1185.73,-273.86 1185.73,-264.99"/>
<polygon fill="midnightblue" stroke="midnightblue" points="1189.23,-264.75 1185.73,-254.75 1182.23,-264.75 1189.23,-264.75"/>
</g>
<!-- Node33&#45;&gt;Node11 -->
<g id="edge57" class="edge">
<title>Node33&#45;&gt;Node11</title>
<path fill="none" stroke="midnightblue" d="M1004.2,-235.37C1013.53,-217.38 1035.2,-175.55 1047.6,-151.63"/>
<polygon fill="midnightblue" stroke="midnightblue" points="1050.78,-153.08 1052.28,-142.59 1044.57,-149.86 1050.78,-153.08"/>
</g>
<!-- Node33&#45;&gt;Node16 -->
<g id="edge54" class="edge">
<title>Node33&#45;&gt;Node16</title>
<path fill="none" stroke="midnightblue" d="M997.79,-235.26C991.87,-208.54 973.92,-127.52 965.8,-90.86"/>
<polygon fill="midnightblue" stroke="midnightblue" points="969.2,-90.03 963.62,-81.02 962.36,-91.54 969.2,-90.03"/>
</g>
<!-- Node33&#45;&gt;Node34 -->
<g id="edge55" class="edge">
<title>Node33&#45;&gt;Node34</title>
<path fill="none" stroke="midnightblue" d="M964.71,-235.44C926.48,-226.1 865.16,-211.12 823.47,-200.93"/>
<polygon fill="midnightblue" stroke="midnightblue" points="824.13,-197.49 813.58,-198.52 822.47,-204.29 824.13,-197.49"/>
</g>
<!-- Node34&#45;&gt;Node22 -->
<g id="edge56" class="edge">
<title>Node34&#45;&gt;Node22</title>
<path fill="none" stroke="midnightblue" d="M758.45,-179.44C737.38,-170.56 704.21,-156.56 680.24,-146.45"/>
<polygon fill="midnightblue" stroke="midnightblue" points="681.49,-143.18 670.92,-142.52 678.77,-149.63 681.49,-143.18"/>
</g>
</g>
</svg>
