<?xml version="1.0" encoding="UTF-8" standalone="no"?>
<!DOCTYPE svg PUBLIC "-//W3C//DTD SVG 1.1//EN"
 "http://www.w3.org/Graphics/SVG/1.1/DTD/svg11.dtd">
<!-- Generated by graphviz version 2.43.0 (0)
 -->
<!-- Title: influxdb.cpp Pages: 1 -->
<svg width="1585pt" height="431pt"
 viewBox="0.00 0.00 1585.25 431.00" xmlns="http://www.w3.org/2000/svg" xmlns:xlink="http://www.w3.org/1999/xlink">
<g id="graph0" class="graph" transform="scale(1 1) rotate(0) translate(4 427)">
<title>influxdb.cpp</title>
<!-- Node1 -->
<g id="node1" class="node">
<title>Node1</title>
<g id="a_node1"><a xlink:title=" ">
<polygon fill="#bfbfbf" stroke="black" points="1222.39,-403.5 1222.39,-422.5 1298.39,-422.5 1298.39,-403.5 1222.39,-403.5"/>
<text text-anchor="middle" x="1260.39" y="-410.5" font-family="Helvetica,sans-Serif" font-size="10.00">influxdb.cpp</text>
</a>
</g>
</g>
<!-- Node2 -->
<g id="node2" class="node">
<title>Node2</title>
<g id="a_node2"><a xlink:href="influxdb_8hpp.html" target="_top" xlink:title=" ">
<polygon fill="none" stroke="black" points="752.89,-347.5 752.89,-366.5 829.89,-366.5 829.89,-347.5 752.89,-347.5"/>
<text text-anchor="middle" x="791.39" y="-354.5" font-family="Helvetica,sans-Serif" font-size="10.00">influxdb.hpp</text>
</a>
</g>
</g>
<!-- Node1&#45;&gt;Node2 -->
<g id="edge1" class="edge">
<title>Node1&#45;&gt;Node2</title>
<path fill="none" stroke="midnightblue" d="M1222.01,-407.58C1137.14,-397.81 933.64,-374.38 840.02,-363.6"/>
<polygon fill="midnightblue" stroke="midnightblue" points="840.31,-360.11 829.97,-362.44 839.51,-367.06 840.31,-360.11"/>
</g>
<!-- Node8 -->
<g id="node8" class="node">
<title>Node8</title>
<g id="a_node8"><a xlink:href="blocks_8hpp.html" target="_top" xlink:title=" ">
<polygon fill="none" stroke="black" points="1085.89,-179.5 1085.89,-198.5 1154.89,-198.5 1154.89,-179.5 1085.89,-179.5"/>
<text text-anchor="middle" x="1120.39" y="-186.5" font-family="Helvetica,sans-Serif" font-size="10.00">blocks.hpp</text>
</a>
</g>
</g>
<!-- Node1&#45;&gt;Node8 -->
<g id="edge60" class="edge">
<title>Node1&#45;&gt;Node8</title>
<path fill="none" stroke="midnightblue" d="M1260.44,-403.12C1260.13,-375.1 1255.58,-287.29 1212.39,-235 1199.68,-219.62 1180.44,-209.07 1162.83,-202.08"/>
<polygon fill="midnightblue" stroke="midnightblue" points="1163.86,-198.73 1153.27,-198.55 1161.44,-205.3 1163.86,-198.73"/>
</g>
<!-- Node24 -->
<g id="node24" class="node">
<title>Node24</title>
<g id="a_node24"><a xlink:title=" ">
<polygon fill="none" stroke="#bfbfbf" points="1265.39,-118 1265.39,-137 1325.39,-137 1325.39,-118 1265.39,-118"/>
<text text-anchor="middle" x="1295.39" y="-125" font-family="Helvetica,sans-Serif" font-size="10.00">iostream</text>
</a>
</g>
</g>
<!-- Node1&#45;&gt;Node24 -->
<g id="edge59" class="edge">
<title>Node1&#45;&gt;Node24</title>
<path fill="none" stroke="midnightblue" d="M1298.47,-410.31C1362.88,-405.18 1486.39,-384.58 1486.39,-302 1486.39,-302 1486.39,-302 1486.39,-244 1486.39,-207.52 1383.07,-162.22 1328.41,-140.81"/>
<polygon fill="midnightblue" stroke="midnightblue" points="1329.4,-137.44 1318.81,-137.1 1326.88,-143.97 1329.4,-137.44"/>
</g>
<!-- Node33 -->
<g id="node33" class="node">
<title>Node33</title>
<g id="a_node33"><a xlink:href="curl__utility_8hpp.html" target="_top" xlink:title="Simple wrapper around libcurl for HTTP requests.">
<polygon fill="none" stroke="black" points="1309.39,-347.5 1309.39,-366.5 1397.39,-366.5 1397.39,-347.5 1309.39,-347.5"/>
<text text-anchor="middle" x="1353.39" y="-354.5" font-family="Helvetica,sans-Serif" font-size="10.00">curl_utility.hpp</text>
</a>
</g>
</g>
<!-- Node1&#45;&gt;Node33 -->
<g id="edge55" class="edge">
<title>Node1&#45;&gt;Node33</title>
<path fill="none" stroke="midnightblue" d="M1275.33,-403.32C1289.98,-394.82 1312.52,-381.73 1329.63,-371.8"/>
<polygon fill="midnightblue" stroke="midnightblue" points="1331.59,-374.7 1338.49,-366.65 1328.08,-368.65 1331.59,-374.7"/>
</g>
<!-- Node35 -->
<g id="node35" class="node">
<title>Node35</title>
<g id="a_node35"><a xlink:href="to__json_8hpp.html" target="_top" xlink:title="Utility functions for converting data to JSON.">
<polygon fill="none" stroke="black" points="1259.89,-291.5 1259.89,-310.5 1332.89,-310.5 1332.89,-291.5 1259.89,-291.5"/>
<text text-anchor="middle" x="1296.39" y="-298.5" font-family="Helvetica,sans-Serif" font-size="10.00">to_json.hpp</text>
</a>
</g>
</g>
<!-- Node1&#45;&gt;Node35 -->
<g id="edge61" class="edge">
<title>Node1&#45;&gt;Node35</title>
<path fill="none" stroke="midnightblue" d="M1263.22,-403.37C1269.05,-385.54 1282.55,-344.3 1290.41,-320.27"/>
<polygon fill="midnightblue" stroke="midnightblue" points="1293.79,-321.18 1293.58,-310.59 1287.14,-319.01 1293.79,-321.18"/>
</g>
<!-- Node36 -->
<g id="node36" class="node">
<title>Node36</title>
<g id="a_node36"><a xlink:href="to__string_8hpp.html" target="_top" xlink:title="Generic to_string functions for a variety of types.">
<polygon fill="none" stroke="black" points="1123.39,-235.5 1123.39,-254.5 1203.39,-254.5 1203.39,-235.5 1123.39,-235.5"/>
<text text-anchor="middle" x="1163.39" y="-242.5" font-family="Helvetica,sans-Serif" font-size="10.00">to_string.hpp</text>
</a>
</g>
</g>
<!-- Node1&#45;&gt;Node36 -->
<g id="edge66" class="edge">
<title>Node1&#45;&gt;Node36</title>
<path fill="none" stroke="midnightblue" d="M1250.49,-403.5C1241.06,-394.99 1226.91,-381.18 1217.39,-367 1194.83,-333.39 1177.77,-288.82 1169.31,-264.23"/>
<polygon fill="midnightblue" stroke="midnightblue" points="1172.62,-263.1 1166.13,-254.73 1165.98,-265.32 1172.62,-263.1"/>
</g>
<!-- Node3 -->
<g id="node3" class="node">
<title>Node3</title>
<g id="a_node3"><a xlink:title=" ">
<polygon fill="none" stroke="#bfbfbf" points="598.89,-291.5 598.89,-310.5 723.89,-310.5 723.89,-291.5 598.89,-291.5"/>
<text text-anchor="middle" x="661.39" y="-298.5" font-family="Helvetica,sans-Serif" font-size="10.00">BoosterSeat/timer.hpp</text>
</a>
</g>
</g>
<!-- Node2&#45;&gt;Node3 -->
<g id="edge2" class="edge">
<title>Node2&#45;&gt;Node3</title>
<path fill="none" stroke="midnightblue" d="M770.79,-347.44C749.4,-338.56 715.71,-324.56 691.37,-314.45"/>
<polygon fill="midnightblue" stroke="midnightblue" points="692.47,-311.12 681.89,-310.52 689.79,-317.58 692.47,-311.12"/>
</g>
<!-- Node4 -->
<g id="node4" class="node">
<title>Node4</title>
<g id="a_node4"><a xlink:href="configuration_8hpp.html" target="_top" xlink:title=" ">
<polygon fill="none" stroke="black" points="479.89,-291.5 479.89,-310.5 580.89,-310.5 580.89,-291.5 479.89,-291.5"/>
<text text-anchor="middle" x="530.39" y="-298.5" font-family="Helvetica,sans-Serif" font-size="10.00">configuration.hpp</text>
</a>
</g>
</g>
<!-- Node2&#45;&gt;Node4 -->
<g id="edge3" class="edge">
<title>Node2&#45;&gt;Node4</title>
<path fill="none" stroke="midnightblue" d="M752.88,-348.03C707.51,-338.65 631.96,-323.01 581.66,-312.61"/>
<polygon fill="midnightblue" stroke="midnightblue" points="582.15,-309.13 571.65,-310.54 580.73,-315.99 582.15,-309.13"/>
</g>
<!-- Node5 -->
<g id="node5" class="node">
<title>Node5</title>
<g id="a_node5"><a xlink:href="shared__data_8hpp.html" target="_top" xlink:title="Contains the SharedData struct, used across all modules and extensions.">
<polygon fill="none" stroke="black" points="742.39,-291.5 742.39,-310.5 840.39,-310.5 840.39,-291.5 742.39,-291.5"/>
<text text-anchor="middle" x="791.39" y="-298.5" font-family="Helvetica,sans-Serif" font-size="10.00">shared_data.hpp</text>
</a>
</g>
</g>
<!-- Node2&#45;&gt;Node5 -->
<g id="edge4" class="edge">
<title>Node2&#45;&gt;Node5</title>
<path fill="none" stroke="midnightblue" d="M791.39,-347.08C791.39,-340.01 791.39,-329.86 791.39,-320.99"/>
<polygon fill="midnightblue" stroke="midnightblue" points="794.89,-320.75 791.39,-310.75 787.89,-320.75 794.89,-320.75"/>
</g>
<!-- Node32 -->
<g id="node32" class="node">
<title>Node32</title>
<g id="a_node32"><a xlink:title=" ">
<polygon fill="none" stroke="#bfbfbf" points="1028.89,-291.5 1028.89,-310.5 1075.89,-310.5 1075.89,-291.5 1028.89,-291.5"/>
<text text-anchor="middle" x="1052.39" y="-298.5" font-family="Helvetica,sans-Serif" font-size="10.00">vector</text>
</a>
</g>
</g>
<!-- Node2&#45;&gt;Node32 -->
<g id="edge54" class="edge">
<title>Node2&#45;&gt;Node32</title>
<path fill="none" stroke="midnightblue" d="M829.9,-348.03C880.89,-337.48 970.01,-319.04 1018.55,-309"/>
<polygon fill="midnightblue" stroke="midnightblue" points="1019.46,-312.39 1028.54,-306.93 1018.04,-305.53 1019.46,-312.39"/>
</g>
<!-- Node6 -->
<g id="node6" class="node">
<title>Node6</title>
<g id="a_node6"><a xlink:title=" ">
<polygon fill="none" stroke="#bfbfbf" points="292.89,-56.5 292.89,-75.5 417.89,-75.5 417.89,-56.5 292.89,-56.5"/>
<text text-anchor="middle" x="355.39" y="-63.5" font-family="Helvetica,sans-Serif" font-size="10.00">BoosterSeat/clock.hpp</text>
</a>
</g>
</g>
<!-- Node5&#45;&gt;Node6 -->
<g id="edge5" class="edge">
<title>Node5&#45;&gt;Node6</title>
<path fill="none" stroke="midnightblue" d="M742.18,-292.16C738.87,-291.74 735.58,-291.34 732.39,-291 480.45,-263.87 409.2,-316.51 163.39,-255 105.12,-240.42 83.92,-240.39 40.39,-199 10.85,-170.92 -15.5,-142.63 11.39,-112 28.98,-91.96 186.77,-78.12 282.43,-71.48"/>
<polygon fill="midnightblue" stroke="midnightblue" points="282.89,-74.96 292.63,-70.79 282.42,-67.98 282.89,-74.96"/>
</g>
<!-- Node7 -->
<g id="node7" class="node">
<title>Node7</title>
<g id="a_node7"><a xlink:title=" ">
<polygon fill="none" stroke="#bfbfbf" points="1030.39,-56.5 1030.39,-75.5 1152.39,-75.5 1152.39,-56.5 1030.39,-56.5"/>
<text text-anchor="middle" x="1091.39" y="-63.5" font-family="Helvetica,sans-Serif" font-size="10.00">BoosterSeat/time.hpp</text>
</a>
</g>
</g>
<!-- Node5&#45;&gt;Node7 -->
<g id="edge6" class="edge">
<title>Node5&#45;&gt;Node7</title>
<path fill="none" stroke="midnightblue" d="M802.42,-291.43C847.08,-256.75 1014.73,-126.54 1072.04,-82.03"/>
<polygon fill="midnightblue" stroke="midnightblue" points="1074.51,-84.55 1080.26,-75.65 1070.21,-79.02 1074.51,-84.55"/>
</g>
<!-- Node5&#45;&gt;Node8 -->
<g id="edge7" class="edge">
<title>Node5&#45;&gt;Node8</title>
<path fill="none" stroke="midnightblue" d="M840.44,-296.53C910.08,-290.86 1033.38,-277.89 1071.39,-255 1089.86,-243.88 1103.72,-222.92 1111.9,-207.81"/>
<polygon fill="midnightblue" stroke="midnightblue" points="1115.03,-209.38 1116.45,-198.88 1108.79,-206.2 1115.03,-209.38"/>
</g>
<!-- Node18 -->
<g id="node18" class="node">
<title>Node18</title>
<g id="a_node18"><a xlink:href="error__frame_8hpp.html" target="_top" xlink:title="The error frame.">
<polygon fill="none" stroke="black" points="189.89,-235.5 189.89,-254.5 284.89,-254.5 284.89,-235.5 189.89,-235.5"/>
<text text-anchor="middle" x="237.39" y="-242.5" font-family="Helvetica,sans-Serif" font-size="10.00">error_frame.hpp</text>
</a>
</g>
</g>
<!-- Node5&#45;&gt;Node18 -->
<g id="edge26" class="edge">
<title>Node5&#45;&gt;Node18</title>
<path fill="none" stroke="midnightblue" d="M742.17,-292.26C738.86,-291.81 735.58,-291.39 732.39,-291 574.48,-271.8 387.32,-256.92 294.92,-250.09"/>
<polygon fill="midnightblue" stroke="midnightblue" points="295.16,-246.6 284.93,-249.36 294.65,-253.58 295.16,-246.6"/>
</g>
<!-- Node19 -->
<g id="node19" class="node">
<title>Node19</title>
<g id="a_node19"><a xlink:href="frame_8hpp.html" target="_top" xlink:title=" ">
<polygon fill="none" stroke="black" points="125.89,-179.5 125.89,-198.5 192.89,-198.5 192.89,-179.5 125.89,-179.5"/>
<text text-anchor="middle" x="159.39" y="-186.5" font-family="Helvetica,sans-Serif" font-size="10.00">frame.hpp</text>
</a>
</g>
</g>
<!-- Node5&#45;&gt;Node19 -->
<g id="edge49" class="edge">
<title>Node5&#45;&gt;Node19</title>
<path fill="none" stroke="midnightblue" d="M742.18,-292.17C738.87,-291.74 735.58,-291.35 732.39,-291 671.29,-284.36 228.88,-292.77 180.39,-255 166.52,-244.2 161.67,-224.12 160.05,-209.12"/>
<polygon fill="midnightblue" stroke="midnightblue" points="163.52,-208.62 159.34,-198.88 156.54,-209.1 163.52,-208.62"/>
</g>
<!-- Node22 -->
<g id="node22" class="node">
<title>Node22</title>
<g id="a_node22"><a xlink:href="streams_8hpp.html" target="_top" xlink:title="The header file for the data streams.">
<polygon fill="none" stroke="black" points="752.89,-179.5 752.89,-198.5 829.89,-198.5 829.89,-179.5 752.89,-179.5"/>
<text text-anchor="middle" x="791.39" y="-186.5" font-family="Helvetica,sans-Serif" font-size="10.00">streams.hpp</text>
</a>
</g>
</g>
<!-- Node5&#45;&gt;Node22 -->
<g id="edge53" class="edge">
<title>Node5&#45;&gt;Node22</title>
<path fill="none" stroke="midnightblue" d="M791.39,-291.37C791.39,-273.62 791.39,-232.67 791.39,-208.6"/>
<polygon fill="midnightblue" stroke="midnightblue" points="794.89,-208.59 791.39,-198.59 787.89,-208.59 794.89,-208.59"/>
</g>
<!-- Node30 -->
<g id="node30" class="node">
<title>Node30</title>
<g id="a_node30"><a xlink:href="log__container_8hpp.html" target="_top" xlink:title="A simple logging system for debugging.">
<polygon fill="none" stroke="black" points="448.89,-235.5 448.89,-254.5 551.89,-254.5 551.89,-235.5 448.89,-235.5"/>
<text text-anchor="middle" x="500.39" y="-242.5" font-family="Helvetica,sans-Serif" font-size="10.00">log_container.hpp</text>
</a>
</g>
</g>
<!-- Node5&#45;&gt;Node30 -->
<g id="edge50" class="edge">
<title>Node5&#45;&gt;Node30</title>
<path fill="none" stroke="midnightblue" d="M745.28,-291.44C693.98,-281.92 611.12,-266.55 556.2,-256.36"/>
<polygon fill="midnightblue" stroke="midnightblue" points="556.76,-252.9 546.28,-254.52 555.48,-259.78 556.76,-252.9"/>
</g>
<!-- Node8&#45;&gt;Node6 -->
<g id="edge9" class="edge">
<title>Node8&#45;&gt;Node6</title>
<path fill="none" stroke="midnightblue" d="M1085.84,-186.16C1010.04,-181.68 831.6,-168.67 777.39,-143 759.2,-134.39 762.64,-120.47 744.39,-112 689.82,-86.67 524.78,-74.85 428.09,-69.97"/>
<polygon fill="midnightblue" stroke="midnightblue" points="428.25,-66.48 418.09,-69.48 427.91,-73.47 428.25,-66.48"/>
</g>
<!-- Node8&#45;&gt;Node7 -->
<g id="edge11" class="edge">
<title>Node8&#45;&gt;Node7</title>
<path fill="none" stroke="midnightblue" d="M1118.3,-179.3C1113.62,-159.76 1102.19,-112.06 1095.84,-85.55"/>
<polygon fill="midnightblue" stroke="midnightblue" points="1099.19,-84.53 1093.46,-75.62 1092.38,-86.16 1099.19,-84.53"/>
</g>
<!-- Node8&#45;&gt;Node8 -->
<g id="edge12" class="edge">
<title>Node8&#45;&gt;Node8</title>
<path fill="none" stroke="midnightblue" d="M1142.78,-198.53C1158,-201.31 1172.89,-198.13 1172.89,-189 1172.89,-181.94 1163.98,-178.44 1152.9,-178.5"/>
<polygon fill="midnightblue" stroke="midnightblue" points="1152.4,-175.03 1142.78,-179.47 1153.07,-182 1152.4,-175.03"/>
</g>
<!-- Node9 -->
<g id="node9" class="node">
<title>Node9</title>
<g id="a_node9"><a xlink:title=" ">
<polygon fill="none" stroke="#bfbfbf" points="633.39,-56.5 633.39,-75.5 681.39,-75.5 681.39,-56.5 633.39,-56.5"/>
<text text-anchor="middle" x="657.39" y="-63.5" font-family="Helvetica,sans-Serif" font-size="10.00">mutex</text>
</a>
</g>
</g>
<!-- Node8&#45;&gt;Node9 -->
<g id="edge8" class="edge">
<title>Node8&#45;&gt;Node9</title>
<path fill="none" stroke="midnightblue" d="M1085.72,-188.03C1028.37,-186.96 911.11,-179.95 820.39,-143 798.57,-134.11 798.16,-123.12 777.39,-112 749.64,-97.14 715.9,-84.95 691.27,-77.03"/>
<polygon fill="midnightblue" stroke="midnightblue" points="692.24,-73.67 681.66,-74 690.14,-80.35 692.24,-73.67"/>
</g>
<!-- Node10 -->
<g id="node10" class="node">
<title>Node10</title>
<g id="a_node10"><a xlink:title=" ">
<polygon fill="none" stroke="#bfbfbf" points="1343.89,-118 1343.89,-137 1486.89,-137 1486.89,-118 1343.89,-118"/>
<text text-anchor="middle" x="1415.39" y="-125" font-family="Helvetica,sans-Serif" font-size="10.00">BoosterSeat/numbers.hpp</text>
</a>
</g>
</g>
<!-- Node8&#45;&gt;Node10 -->
<g id="edge10" class="edge">
<title>Node8&#45;&gt;Node10</title>
<path fill="none" stroke="midnightblue" d="M1155.1,-181C1206.5,-170.63 1303.22,-151.12 1363.19,-139.03"/>
<polygon fill="midnightblue" stroke="midnightblue" points="1364.11,-142.41 1373.22,-137.01 1362.72,-135.55 1364.11,-142.41"/>
</g>
<!-- Node11 -->
<g id="node11" class="node">
<title>Node11</title>
<g id="a_node11"><a xlink:href="json_8hpp.html" target="_top" xlink:title="Simple wrapper around nlohmann/json.hpp to provide a common interface.">
<polygon fill="none" stroke="black" points="1505.39,-118 1505.39,-137 1563.39,-137 1563.39,-118 1505.39,-118"/>
<text text-anchor="middle" x="1534.39" y="-125" font-family="Helvetica,sans-Serif" font-size="10.00">json.hpp</text>
</a>
</g>
</g>
<!-- Node8&#45;&gt;Node11 -->
<g id="edge13" class="edge">
<title>Node8&#45;&gt;Node11</title>
<path fill="none" stroke="midnightblue" d="M1155.11,-186.69C1222.05,-183.53 1373.2,-173.39 1496.39,-143 1499.22,-142.3 1502.12,-141.45 1505,-140.52"/>
<polygon fill="midnightblue" stroke="midnightblue" points="1506.32,-143.77 1514.57,-137.12 1503.97,-137.17 1506.32,-143.77"/>
</g>
<!-- Node14 -->
<g id="node14" class="node">
<title>Node14</title>
<g id="a_node14"><a xlink:href="node_8hpp.html" target="_top" xlink:title="Contains structures that are used to identify components of the flight system.">
<polygon fill="none" stroke="black" points="950.39,-56.5 950.39,-75.5 1012.39,-75.5 1012.39,-56.5 950.39,-56.5"/>
<text text-anchor="middle" x="981.39" y="-63.5" font-family="Helvetica,sans-Serif" font-size="10.00">node.hpp</text>
</a>
</g>
</g>
<!-- Node8&#45;&gt;Node14 -->
<g id="edge16" class="edge">
<title>Node8&#45;&gt;Node14</title>
<path fill="none" stroke="midnightblue" d="M1110.39,-179.3C1087.05,-158.98 1028.7,-108.19 999.15,-82.46"/>
<polygon fill="midnightblue" stroke="midnightblue" points="1001.14,-79.55 991.3,-75.62 996.54,-84.83 1001.14,-79.55"/>
</g>
<!-- Node17 -->
<g id="node17" class="node">
<title>Node17</title>
<g id="a_node17"><a xlink:href="positional_8hpp.html" target="_top" xlink:title="Positional data for the flight system (gps/imu data)">
<polygon fill="none" stroke="black" points="1123.39,-118 1123.39,-137 1209.39,-137 1209.39,-118 1123.39,-118"/>
<text text-anchor="middle" x="1166.39" y="-125" font-family="Helvetica,sans-Serif" font-size="10.00">positional.hpp</text>
</a>
</g>
</g>
<!-- Node8&#45;&gt;Node17 -->
<g id="edge19" class="edge">
<title>Node8&#45;&gt;Node17</title>
<path fill="none" stroke="midnightblue" d="M1126.98,-179.48C1133.88,-170.55 1144.89,-156.31 1153.52,-145.14"/>
<polygon fill="midnightblue" stroke="midnightblue" points="1156.46,-147.06 1159.81,-137.01 1150.93,-142.78 1156.46,-147.06"/>
</g>
<!-- Node12 -->
<g id="node12" class="node">
<title>Node12</title>
<g id="a_node12"><a xlink:title=" ">
<polygon fill="none" stroke="#bfbfbf" points="1315.39,-56.5 1315.39,-75.5 1425.39,-75.5 1425.39,-56.5 1315.39,-56.5"/>
<text text-anchor="middle" x="1370.39" y="-63.5" font-family="Helvetica,sans-Serif" font-size="10.00">nlohmann/json.hpp</text>
</a>
</g>
</g>
<!-- Node11&#45;&gt;Node12 -->
<g id="edge14" class="edge">
<title>Node11&#45;&gt;Node12</title>
<path fill="none" stroke="midnightblue" d="M1512.32,-117.99C1507.1,-116 1501.56,-113.91 1496.39,-112 1465.42,-100.56 1430,-87.95 1404.62,-79"/>
<polygon fill="midnightblue" stroke="midnightblue" points="1405.67,-75.66 1395.07,-75.64 1403.34,-82.26 1405.67,-75.66"/>
</g>
<!-- Node13 -->
<g id="node13" class="node">
<title>Node13</title>
<g id="a_node13"><a xlink:title=" ">
<polygon fill="none" stroke="#bfbfbf" points="1477.39,-56.5 1477.39,-75.5 1521.39,-75.5 1521.39,-56.5 1477.39,-56.5"/>
<text text-anchor="middle" x="1499.39" y="-63.5" font-family="Helvetica,sans-Serif" font-size="10.00">string</text>
</a>
</g>
</g>
<!-- Node11&#45;&gt;Node13 -->
<g id="edge15" class="edge">
<title>Node11&#45;&gt;Node13</title>
<path fill="none" stroke="midnightblue" d="M1529.38,-117.98C1524.23,-109.23 1516.08,-95.37 1509.57,-84.31"/>
<polygon fill="midnightblue" stroke="midnightblue" points="1512.48,-82.35 1504.4,-75.51 1506.45,-85.9 1512.48,-82.35"/>
</g>
<!-- Node15 -->
<g id="node15" class="node">
<title>Node15</title>
<g id="a_node15"><a xlink:title=" ">
<polygon fill="none" stroke="#bfbfbf" points="1043.39,-0.5 1043.39,-19.5 1093.39,-19.5 1093.39,-0.5 1043.39,-0.5"/>
<text text-anchor="middle" x="1068.39" y="-7.5" font-family="Helvetica,sans-Serif" font-size="10.00">cstdint</text>
</a>
</g>
</g>
<!-- Node14&#45;&gt;Node15 -->
<g id="edge17" class="edge">
<title>Node14&#45;&gt;Node15</title>
<path fill="none" stroke="midnightblue" d="M995.37,-56.32C1008.94,-47.9 1029.77,-34.97 1045.72,-25.07"/>
<polygon fill="midnightblue" stroke="midnightblue" points="1047.8,-27.9 1054.45,-19.65 1044.1,-21.95 1047.8,-27.9"/>
</g>
<!-- Node16 -->
<g id="node16" class="node">
<title>Node16</title>
<g id="a_node16"><a xlink:title=" ">
<polygon fill="none" stroke="#bfbfbf" points="1155.39,-0.5 1155.39,-19.5 1193.39,-19.5 1193.39,-0.5 1155.39,-0.5"/>
<text text-anchor="middle" x="1174.39" y="-7.5" font-family="Helvetica,sans-Serif" font-size="10.00">map</text>
</a>
</g>
</g>
<!-- Node14&#45;&gt;Node16 -->
<g id="edge18" class="edge">
<title>Node14&#45;&gt;Node16</title>
<path fill="none" stroke="midnightblue" d="M1011.97,-56.44C1048.64,-46.18 1109.62,-29.12 1145.51,-19.08"/>
<polygon fill="midnightblue" stroke="midnightblue" points="1146.67,-22.39 1155.36,-16.32 1144.79,-15.65 1146.67,-22.39"/>
</g>
<!-- Node17&#45;&gt;Node6 -->
<g id="edge24" class="edge">
<title>Node17&#45;&gt;Node6</title>
<path fill="none" stroke="midnightblue" d="M1123.36,-123.34C991.69,-113.68 593.2,-84.45 428.17,-72.34"/>
<polygon fill="midnightblue" stroke="midnightblue" points="428.35,-68.84 418.12,-71.6 427.84,-75.82 428.35,-68.84"/>
</g>
<!-- Node17&#45;&gt;Node7 -->
<g id="edge25" class="edge">
<title>Node17&#45;&gt;Node7</title>
<path fill="none" stroke="midnightblue" d="M1155.64,-117.98C1143.84,-108.61 1124.65,-93.38 1110.31,-82.01"/>
<polygon fill="midnightblue" stroke="midnightblue" points="1112.13,-78.98 1102.12,-75.51 1107.77,-84.47 1112.13,-78.98"/>
</g>
<!-- Node17&#45;&gt;Node12 -->
<g id="edge23" class="edge">
<title>Node17&#45;&gt;Node12</title>
<path fill="none" stroke="midnightblue" d="M1195.62,-117.98C1231.29,-107.57 1291.75,-89.94 1331.37,-78.38"/>
<polygon fill="midnightblue" stroke="midnightblue" points="1332.6,-81.67 1341.22,-75.51 1330.64,-74.95 1332.6,-81.67"/>
</g>
<!-- Node17&#45;&gt;Node13 -->
<g id="edge22" class="edge">
<title>Node17&#45;&gt;Node13</title>
<path fill="none" stroke="midnightblue" d="M1197.93,-117.95C1206.18,-115.86 1215.09,-113.73 1223.39,-112 1269.56,-102.38 1404.59,-81.45 1467.03,-71.91"/>
<polygon fill="midnightblue" stroke="midnightblue" points="1467.75,-75.34 1477.11,-70.37 1466.69,-68.42 1467.75,-75.34"/>
</g>
<!-- Node17&#45;&gt;Node15 -->
<g id="edge20" class="edge">
<title>Node17&#45;&gt;Node15</title>
<path fill="none" stroke="midnightblue" d="M1168.34,-117.81C1171.03,-103.55 1174.19,-74.89 1161.39,-56 1148.08,-36.35 1123.67,-24.99 1103.2,-18.6"/>
<polygon fill="midnightblue" stroke="midnightblue" points="1104.11,-15.22 1093.54,-15.85 1102.2,-21.95 1104.11,-15.22"/>
</g>
<!-- Node17&#45;&gt;Node16 -->
<g id="edge21" class="edge">
<title>Node17&#45;&gt;Node16</title>
<path fill="none" stroke="midnightblue" d="M1173.04,-117.79C1179.94,-108.17 1190.27,-91.92 1194.39,-76 1198.58,-59.79 1191.99,-41.58 1185.28,-28.58"/>
<polygon fill="midnightblue" stroke="midnightblue" points="1188.26,-26.74 1180.29,-19.76 1182.17,-30.19 1188.26,-26.74"/>
</g>
<!-- Node18&#45;&gt;Node6 -->
<g id="edge27" class="edge">
<title>Node18&#45;&gt;Node6</title>
<path fill="none" stroke="midnightblue" d="M195.68,-235.44C119.71,-218.07 -28.51,-174.92 26.39,-112 58.97,-74.66 196.2,-67.18 282.81,-66.29"/>
<polygon fill="midnightblue" stroke="midnightblue" points="282.88,-69.79 292.85,-66.21 282.82,-62.79 282.88,-69.79"/>
</g>
<!-- Node18&#45;&gt;Node19 -->
<g id="edge28" class="edge">
<title>Node18&#45;&gt;Node19</title>
<path fill="none" stroke="midnightblue" d="M224.86,-235.32C212.8,-226.98 194.36,-214.21 180.12,-204.35"/>
<polygon fill="midnightblue" stroke="midnightblue" points="182.11,-201.47 171.89,-198.65 178.12,-207.22 182.11,-201.47"/>
</g>
<!-- Node21 -->
<g id="node21" class="node">
<title>Node21</title>
<g id="a_node21"><a xlink:href="giraffe__diagnostic__ids_8hpp.html" target="_top" xlink:title=" ">
<polygon fill="none" stroke="black" points="185.39,-112.5 185.39,-142.5 289.39,-142.5 289.39,-112.5 185.39,-112.5"/>
<text text-anchor="start" x="193.39" y="-130.5" font-family="Helvetica,sans-Serif" font-size="10.00">giraffe_diagnostic</text>
<text text-anchor="middle" x="237.39" y="-119.5" font-family="Helvetica,sans-Serif" font-size="10.00">_ids.hpp</text>
</a>
</g>
</g>
<!-- Node18&#45;&gt;Node21 -->
<g id="edge31" class="edge">
<title>Node18&#45;&gt;Node21</title>
<path fill="none" stroke="midnightblue" d="M237.39,-235.32C237.39,-217.97 237.39,-178.46 237.39,-152.66"/>
<polygon fill="midnightblue" stroke="midnightblue" points="240.89,-152.55 237.39,-142.55 233.89,-152.55 240.89,-152.55"/>
</g>
<!-- Node18&#45;&gt;Node22 -->
<g id="edge32" class="edge">
<title>Node18&#45;&gt;Node22</title>
<path fill="none" stroke="midnightblue" d="M285.1,-239.35C389.5,-229.17 637.25,-205.02 742.61,-194.75"/>
<polygon fill="midnightblue" stroke="midnightblue" points="743.04,-198.23 752.65,-193.78 742.36,-191.26 743.04,-198.23"/>
</g>
<!-- Node19&#45;&gt;Node9 -->
<g id="edge29" class="edge">
<title>Node19&#45;&gt;Node9</title>
<path fill="none" stroke="midnightblue" d="M158.39,-179.34C157.09,-163.33 156.91,-129.16 176.39,-112 209.79,-82.59 518.42,-71.01 622.96,-67.92"/>
<polygon fill="midnightblue" stroke="midnightblue" points="623.37,-71.41 633.27,-67.62 623.17,-64.41 623.37,-71.41"/>
</g>
<!-- Node20 -->
<g id="node20" class="node">
<title>Node20</title>
<g id="a_node20"><a xlink:title=" ">
<polygon fill="none" stroke="#bfbfbf" points="35.89,-118 35.89,-137 128.89,-137 128.89,-118 35.89,-118"/>
<text text-anchor="middle" x="82.39" y="-125" font-family="Helvetica,sans-Serif" font-size="10.00">unordered_map</text>
</a>
</g>
</g>
<!-- Node19&#45;&gt;Node20 -->
<g id="edge30" class="edge">
<title>Node19&#45;&gt;Node20</title>
<path fill="none" stroke="midnightblue" d="M148.36,-179.48C136.12,-170.02 116.16,-154.6 101.4,-143.19"/>
<polygon fill="midnightblue" stroke="midnightblue" points="103.45,-140.35 93.4,-137.01 99.17,-145.89 103.45,-140.35"/>
</g>
<!-- Node22&#45;&gt;Node6 -->
<g id="edge38" class="edge">
<title>Node22&#45;&gt;Node6</title>
<path fill="none" stroke="midnightblue" d="M752.76,-186.32C654.84,-181.73 402.63,-167.6 374.39,-143 358.24,-128.93 354.77,-103.41 354.49,-85.85"/>
<polygon fill="midnightblue" stroke="midnightblue" points="357.99,-85.72 354.67,-75.66 350.99,-85.6 357.99,-85.72"/>
</g>
<!-- Node22&#45;&gt;Node9 -->
<g id="edge35" class="edge">
<title>Node22&#45;&gt;Node9</title>
<path fill="none" stroke="midnightblue" d="M752.79,-182.23C727.59,-176.47 695.86,-165.14 676.39,-143 662.52,-127.23 658.47,-102.85 657.44,-85.97"/>
<polygon fill="midnightblue" stroke="midnightblue" points="660.93,-85.57 657.12,-75.68 653.93,-85.78 660.93,-85.57"/>
</g>
<!-- Node22&#45;&gt;Node13 -->
<g id="edge37" class="edge">
<title>Node22&#45;&gt;Node13</title>
<path fill="none" stroke="midnightblue" d="M830.07,-186.74C921.53,-183.31 1148.63,-172.05 1218.39,-143 1238.51,-134.62 1236.61,-121.16 1256.39,-112 1275.3,-103.24 1405.44,-81.86 1467.11,-72.06"/>
<polygon fill="midnightblue" stroke="midnightblue" points="1467.76,-75.5 1477.09,-70.48 1466.66,-68.59 1467.76,-75.5"/>
</g>
<!-- Node22&#45;&gt;Node14 -->
<g id="edge47" class="edge">
<title>Node22&#45;&gt;Node14</title>
<path fill="none" stroke="midnightblue" d="M830.07,-184.72C862.9,-180.14 909.59,-169.18 941.39,-143 959.42,-128.15 970.37,-103.01 976.14,-85.74"/>
<polygon fill="midnightblue" stroke="midnightblue" points="979.63,-86.3 979.22,-75.71 972.94,-84.25 979.63,-86.3"/>
</g>
<!-- Node22&#45;&gt;Node17 -->
<g id="edge48" class="edge">
<title>Node22&#45;&gt;Node17</title>
<path fill="none" stroke="midnightblue" d="M830.11,-181.86C897.63,-171.14 1036.98,-149.03 1113.4,-136.91"/>
<polygon fill="midnightblue" stroke="midnightblue" points="1113.97,-140.36 1123.3,-135.34 1112.87,-133.45 1113.97,-140.36"/>
</g>
<!-- Node22&#45;&gt;Node21 -->
<g id="edge46" class="edge">
<title>Node22&#45;&gt;Node21</title>
<path fill="none" stroke="midnightblue" d="M752.81,-184.65C674.93,-177.78 493.41,-161.19 341.39,-143 327.9,-141.39 313.46,-139.48 299.75,-137.6"/>
<polygon fill="midnightblue" stroke="midnightblue" points="299.83,-134.07 289.45,-136.16 298.87,-141.01 299.83,-134.07"/>
</g>
<!-- Node23 -->
<g id="node23" class="node">
<title>Node23</title>
<g id="a_node23"><a xlink:title=" ">
<polygon fill="none" stroke="#bfbfbf" points="685.39,-118 685.39,-137 735.39,-137 735.39,-118 685.39,-118"/>
<text text-anchor="middle" x="710.39" y="-125" font-family="Helvetica,sans-Serif" font-size="10.00">atomic</text>
</a>
</g>
</g>
<!-- Node22&#45;&gt;Node23 -->
<g id="edge33" class="edge">
<title>Node22&#45;&gt;Node23</title>
<path fill="none" stroke="midnightblue" d="M779.78,-179.48C766.91,-170.02 745.92,-154.6 730.38,-143.19"/>
<polygon fill="midnightblue" stroke="midnightblue" points="732.11,-140.11 721.97,-137.01 727.96,-145.75 732.11,-140.11"/>
</g>
<!-- Node22&#45;&gt;Node24 -->
<g id="edge34" class="edge">
<title>Node22&#45;&gt;Node24</title>
<path fill="none" stroke="midnightblue" d="M829.99,-187.09C909.61,-184.6 1097.5,-175.47 1251.39,-143 1255.07,-142.22 1258.87,-141.25 1262.63,-140.17"/>
<polygon fill="midnightblue" stroke="midnightblue" points="1263.85,-143.46 1272.36,-137.15 1261.77,-136.77 1263.85,-143.46"/>
</g>
<!-- Node25 -->
<g id="node25" class="node">
<title>Node25</title>
<g id="a_node25"><a xlink:title=" ">
<polygon fill="none" stroke="#bfbfbf" points="884.89,-56.5 884.89,-75.5 931.89,-75.5 931.89,-56.5 884.89,-56.5"/>
<text text-anchor="middle" x="908.39" y="-63.5" font-family="Helvetica,sans-Serif" font-size="10.00">queue</text>
</a>
</g>
</g>
<!-- Node22&#45;&gt;Node25 -->
<g id="edge36" class="edge">
<title>Node22&#45;&gt;Node25</title>
<path fill="none" stroke="midnightblue" d="M829.95,-186.53C861.08,-183.05 903.08,-172.71 924.39,-143 936.63,-125.94 928.06,-101.52 919.47,-85.01"/>
<polygon fill="midnightblue" stroke="midnightblue" points="922.28,-82.86 914.3,-75.88 916.19,-86.3 922.28,-82.86"/>
</g>
<!-- Node26 -->
<g id="node26" class="node">
<title>Node26</title>
<g id="a_node26"><a xlink:title=" ">
<polygon fill="none" stroke="#bfbfbf" points="383.39,-118 383.39,-137 531.39,-137 531.39,-118 383.39,-118"/>
<text text-anchor="middle" x="457.39" y="-125" font-family="Helvetica,sans-Serif" font-size="10.00">BoosterSeat/exception.hpp</text>
</a>
</g>
</g>
<!-- Node22&#45;&gt;Node26 -->
<g id="edge39" class="edge">
<title>Node22&#45;&gt;Node26</title>
<path fill="none" stroke="midnightblue" d="M752.75,-181.12C694.44,-170.73 583.56,-150.98 515.49,-138.85"/>
<polygon fill="midnightblue" stroke="midnightblue" points="515.81,-135.35 505.35,-137.04 514.58,-142.24 515.81,-135.35"/>
</g>
<!-- Node27 -->
<g id="node27" class="node">
<title>Node27</title>
<g id="a_node27"><a xlink:href="command_8hpp.html" target="_top" xlink:title="The command/queue system for the flight system.">
<polygon fill="none" stroke="black" points="829.39,-118 829.39,-137 915.39,-137 915.39,-118 829.39,-118"/>
<text text-anchor="middle" x="872.39" y="-125" font-family="Helvetica,sans-Serif" font-size="10.00">command.hpp</text>
</a>
</g>
</g>
<!-- Node22&#45;&gt;Node27 -->
<g id="edge40" class="edge">
<title>Node22&#45;&gt;Node27</title>
<path fill="none" stroke="midnightblue" d="M803,-179.48C815.87,-170.02 836.86,-154.6 852.4,-143.19"/>
<polygon fill="midnightblue" stroke="midnightblue" points="854.82,-145.75 860.81,-137.01 850.68,-140.11 854.82,-145.75"/>
</g>
<!-- Node29 -->
<g id="node29" class="node">
<title>Node29</title>
<g id="a_node29"><a xlink:href="data__ids_8hpp.html" target="_top" xlink:title=" ">
<polygon fill="none" stroke="black" points="549.89,-118 549.89,-137 628.89,-137 628.89,-118 549.89,-118"/>
<text text-anchor="middle" x="589.39" y="-125" font-family="Helvetica,sans-Serif" font-size="10.00">data_ids.hpp</text>
</a>
</g>
</g>
<!-- Node22&#45;&gt;Node29 -->
<g id="edge45" class="edge">
<title>Node22&#45;&gt;Node29</title>
<path fill="none" stroke="midnightblue" d="M762.45,-179.48C727.12,-169.07 667.26,-151.44 628.03,-139.88"/>
<polygon fill="midnightblue" stroke="midnightblue" points="628.86,-136.48 618.28,-137.01 626.88,-143.19 628.86,-136.48"/>
</g>
<!-- Node27&#45;&gt;Node9 -->
<g id="edge41" class="edge">
<title>Node27&#45;&gt;Node9</title>
<path fill="none" stroke="midnightblue" d="M841.59,-117.98C801.77,-106.96 732.65,-87.83 691.35,-76.4"/>
<polygon fill="midnightblue" stroke="midnightblue" points="692.06,-72.96 681.49,-73.67 690.19,-79.71 692.06,-72.96"/>
</g>
<!-- Node27&#45;&gt;Node14 -->
<g id="edge44" class="edge">
<title>Node27&#45;&gt;Node14</title>
<path fill="none" stroke="midnightblue" d="M888.01,-117.98C905.98,-108.17 935.71,-91.93 956.8,-80.42"/>
<polygon fill="midnightblue" stroke="midnightblue" points="958.7,-83.37 965.8,-75.51 955.35,-77.23 958.7,-83.37"/>
</g>
<!-- Node27&#45;&gt;Node25 -->
<g id="edge42" class="edge">
<title>Node27&#45;&gt;Node25</title>
<path fill="none" stroke="midnightblue" d="M877.55,-117.98C882.84,-109.23 891.23,-95.37 897.92,-84.31"/>
<polygon fill="midnightblue" stroke="midnightblue" points="901.06,-85.88 903.24,-75.51 895.07,-82.25 901.06,-85.88"/>
</g>
<!-- Node28 -->
<g id="node28" class="node">
<title>Node28</title>
<g id="a_node28"><a xlink:href="command__ids_8hpp.html" target="_top" xlink:title=" ">
<polygon fill="none" stroke="black" points="760.39,-56.5 760.39,-75.5 866.39,-75.5 866.39,-56.5 760.39,-56.5"/>
<text text-anchor="middle" x="813.39" y="-63.5" font-family="Helvetica,sans-Serif" font-size="10.00">command_ids.hpp</text>
</a>
</g>
</g>
<!-- Node27&#45;&gt;Node28 -->
<g id="edge43" class="edge">
<title>Node27&#45;&gt;Node28</title>
<path fill="none" stroke="midnightblue" d="M863.94,-117.98C854.82,-108.78 840.12,-93.96 828.91,-82.66"/>
<polygon fill="midnightblue" stroke="midnightblue" points="831.35,-80.15 821.83,-75.51 826.38,-85.07 831.35,-80.15"/>
</g>
<!-- Node30&#45;&gt;Node9 -->
<g id="edge52" class="edge">
<title>Node30&#45;&gt;Node9</title>
<path fill="none" stroke="midnightblue" d="M480.39,-235.36C435.31,-214.72 332.84,-160.68 374.39,-112 405.97,-75 554.42,-68.27 622.77,-67.15"/>
<polygon fill="midnightblue" stroke="midnightblue" points="623.07,-70.65 633.03,-67.02 622.98,-63.65 623.07,-70.65"/>
</g>
<!-- Node31 -->
<g id="node31" class="node">
<title>Node31</title>
<g id="a_node31"><a xlink:title=" ">
<polygon fill="none" stroke="#bfbfbf" points="476.89,-179.5 476.89,-198.5 523.89,-198.5 523.89,-179.5 476.89,-179.5"/>
<text text-anchor="middle" x="500.39" y="-186.5" font-family="Helvetica,sans-Serif" font-size="10.00">deque</text>
</a>
</g>
</g>
<!-- Node30&#45;&gt;Node31 -->
<g id="edge51" class="edge">
<title>Node30&#45;&gt;Node31</title>
<path fill="none" stroke="midnightblue" d="M500.39,-235.08C500.39,-228.01 500.39,-217.86 500.39,-208.99"/>
<polygon fill="midnightblue" stroke="midnightblue" points="503.89,-208.75 500.39,-198.75 496.89,-208.75 503.89,-208.75"/>
</g>
<!-- Node33&#45;&gt;Node13 -->
<g id="edge57" class="edge">
<title>Node33&#45;&gt;Node13</title>
<path fill="none" stroke="midnightblue" d="M1356.1,-347.3C1360.51,-334.13 1370.18,-308.77 1384.39,-291 1450.8,-207.94 1525.95,-238.66 1572.39,-143 1578.41,-130.61 1579.11,-124.03 1572.39,-112 1563.5,-96.07 1546.39,-85.08 1530.96,-77.95"/>
<polygon fill="midnightblue" stroke="midnightblue" points="1532.24,-74.69 1521.67,-74 1529.5,-81.13 1532.24,-74.69"/>
</g>
<!-- Node33&#45;&gt;Node32 -->
<g id="edge58" class="edge">
<title>Node33&#45;&gt;Node32</title>
<path fill="none" stroke="midnightblue" d="M1309.3,-348.09C1248.55,-337.19 1140.45,-317.8 1085.88,-308.01"/>
<polygon fill="midnightblue" stroke="midnightblue" points="1086.48,-304.56 1076.02,-306.24 1085.24,-311.45 1086.48,-304.56"/>
</g>
<!-- Node34 -->
<g id="node34" class="node">
<title>Node34</title>
<g id="a_node34"><a xlink:title=" ">
<polygon fill="none" stroke="#bfbfbf" points="1392.89,-291.5 1392.89,-310.5 1457.89,-310.5 1457.89,-291.5 1392.89,-291.5"/>
<text text-anchor="middle" x="1425.39" y="-298.5" font-family="Helvetica,sans-Serif" font-size="10.00">curl/curl.h</text>
</a>
</g>
</g>
<!-- Node33&#45;&gt;Node34 -->
<g id="edge56" class="edge">
<title>Node33&#45;&gt;Node34</title>
<path fill="none" stroke="midnightblue" d="M1364.96,-347.32C1375.81,-339.18 1392.27,-326.84 1405.27,-317.09"/>
<polygon fill="midnightblue" stroke="midnightblue" points="1407.71,-319.63 1413.61,-310.83 1403.51,-314.03 1407.71,-319.63"/>
</g>
<!-- Node35&#45;&gt;Node11 -->
<g id="edge65" class="edge">
<title>Node35&#45;&gt;Node11</title>
<path fill="none" stroke="midnightblue" d="M1308.19,-291.5C1346.26,-264.07 1466.1,-177.71 1514.16,-143.08"/>
<polygon fill="midnightblue" stroke="midnightblue" points="1516.45,-145.74 1522.52,-137.06 1512.36,-140.06 1516.45,-145.74"/>
</g>
<!-- Node35&#45;&gt;Node17 -->
<g id="edge62" class="edge">
<title>Node35&#45;&gt;Node17</title>
<path fill="none" stroke="midnightblue" d="M1289.76,-291.26C1269.16,-264.08 1205.96,-180.71 1178.9,-145.01"/>
<polygon fill="midnightblue" stroke="midnightblue" points="1181.68,-142.87 1172.85,-137.02 1176.1,-147.1 1181.68,-142.87"/>
</g>
<!-- Node35&#45;&gt;Node36 -->
<g id="edge63" class="edge">
<title>Node35&#45;&gt;Node36</title>
<path fill="none" stroke="midnightblue" d="M1275.32,-291.44C1253.33,-282.52 1218.66,-268.44 1193.73,-258.32"/>
<polygon fill="midnightblue" stroke="midnightblue" points="1194.95,-255.04 1184.37,-254.52 1192.31,-261.52 1194.95,-255.04"/>
</g>
<!-- Node36&#45;&gt;Node22 -->
<g id="edge64" class="edge">
<title>Node36&#45;&gt;Node22</title>
<path fill="none" stroke="midnightblue" d="M1123.23,-238.17C1054.41,-228.18 914.23,-207.83 840.01,-197.06"/>
<polygon fill="midnightblue" stroke="midnightblue" points="840.39,-193.58 829.99,-195.6 839.38,-200.5 840.39,-193.58"/>
</g>
</g>
</svg>
