<?xml version="1.0" encoding="UTF-8" standalone="no"?>
<!DOCTYPE svg PUBLIC "-//W3C//DTD SVG 1.1//EN"
 "http://www.w3.org/Graphics/SVG/1.1/DTD/svg11.dtd">
<!-- Generated by graphviz version 2.43.0 (0)
 -->
<!-- Title: Graphical Class Hierarchy Pages: 1 -->
<svg width="485pt" height="595pt"
 viewBox="0.00 0.00 485.00 594.50" xmlns="http://www.w3.org/2000/svg" xmlns:xlink="http://www.w3.org/1999/xlink">
<g id="graph0" class="graph" transform="scale(1 1) rotate(0) translate(4 590.5)">
<title>Graphical Class Hierarchy</title>
<!-- Node0 -->
<g id="node1" class="node">
<title>Node0</title>
<g id="a_node1"><a xlink:href="classextension_1_1Extension.html" target="_top" xlink:title=" ">
<polygon fill="none" stroke="black" points="0,-297.5 0,-316.5 119,-316.5 119,-297.5 0,-297.5"/>
<text text-anchor="middle" x="59.5" y="-304.5" font-family="Helvetica,sans-Serif" font-size="10.00">extension::Extension</text>
</a>
</g>
</g>
<!-- Node1 -->
<g id="node2" class="node">
<title>Node1</title>
<g id="a_node2"><a xlink:href="classextension_1_1AdcExtensionBase.html" target="_top" xlink:title=" ">
<polygon fill="none" stroke="black" points="160,-556 160,-586 321,-586 321,-556 160,-556"/>
<text text-anchor="start" x="168" y="-574" font-family="Helvetica,sans-Serif" font-size="10.00">extension::AdcExtensionBase</text>
<text text-anchor="middle" x="240.5" y="-563" font-family="Helvetica,sans-Serif" font-size="10.00">&lt; 10 &gt;</text>
</a>
</g>
</g>
<!-- Node0&#45;&gt;Node1 -->
<g id="edge1" class="edge">
<title>Node0&#45;&gt;Node1</title>
<path fill="none" stroke="midnightblue" d="M62.48,-327.13C68.09,-373.11 88.31,-486.57 155,-547 158.73,-550.38 162.9,-553.29 167.34,-555.79"/>
<polygon fill="midnightblue" stroke="midnightblue" points="65.93,-326.51 61.35,-316.96 58.97,-327.29 65.93,-326.51"/>
</g>
<!-- Node3 -->
<g id="node4" class="node">
<title>Node3</title>
<g id="a_node4"><a xlink:href="classextension_1_1AdcExtensionBase.html" target="_top" xlink:title=" ">
<polygon fill="none" stroke="black" points="160,-507 160,-537 321,-537 321,-507 160,-507"/>
<text text-anchor="start" x="168" y="-525" font-family="Helvetica,sans-Serif" font-size="10.00">extension::AdcExtensionBase</text>
<text text-anchor="middle" x="240.5" y="-514" font-family="Helvetica,sans-Serif" font-size="10.00">&lt; AdcResolution &gt;</text>
</a>
</g>
</g>
<!-- Node0&#45;&gt;Node3 -->
<g id="edge3" class="edge">
<title>Node0&#45;&gt;Node3</title>
<path fill="none" stroke="midnightblue" d="M64.7,-326.49C74.01,-364.94 100.05,-450.86 155,-497 159.57,-500.84 164.71,-504.08 170.14,-506.83"/>
<polygon fill="midnightblue" stroke="midnightblue" points="68.07,-325.53 62.42,-316.57 61.25,-327.1 68.07,-325.53"/>
</g>
<!-- Node4 -->
<g id="node5" class="node">
<title>Node4</title>
<g id="a_node5"><a xlink:href="classextension_1_1Bme280.html" target="_top" xlink:title=" ">
<polygon fill="none" stroke="black" points="185,-468.5 185,-487.5 296,-487.5 296,-468.5 185,-468.5"/>
<text text-anchor="middle" x="240.5" y="-475.5" font-family="Helvetica,sans-Serif" font-size="10.00">extension::Bme280</text>
</a>
</g>
</g>
<!-- Node0&#45;&gt;Node4 -->
<g id="edge4" class="edge">
<title>Node0&#45;&gt;Node4</title>
<path fill="none" stroke="midnightblue" d="M66.92,-326.43C78.81,-359.21 107.44,-425.2 155,-459 163.82,-465.27 174.37,-469.52 184.97,-472.38"/>
<polygon fill="midnightblue" stroke="midnightblue" points="70.13,-324.98 63.53,-316.68 63.51,-327.28 70.13,-324.98"/>
</g>
<!-- Node5 -->
<g id="node6" class="node">
<title>Node5</title>
<g id="a_node6"><a xlink:href="classextension_1_1Bmi088.html" target="_top" xlink:title="The BMI088 extension.">
<polygon fill="none" stroke="black" points="186.5,-430.5 186.5,-449.5 294.5,-449.5 294.5,-430.5 186.5,-430.5"/>
<text text-anchor="middle" x="240.5" y="-437.5" font-family="Helvetica,sans-Serif" font-size="10.00">extension::Bmi088</text>
</a>
</g>
</g>
<!-- Node0&#45;&gt;Node5 -->
<g id="edge5" class="edge">
<title>Node0&#45;&gt;Node5</title>
<path fill="none" stroke="midnightblue" d="M70.55,-325.54C85.46,-351.19 115.94,-397.05 155,-421 164.49,-426.82 175.55,-430.86 186.48,-433.66"/>
<polygon fill="midnightblue" stroke="midnightblue" points="73.57,-323.78 65.61,-316.79 67.48,-327.22 73.57,-323.78"/>
</g>
<!-- Node6 -->
<g id="node7" class="node">
<title>Node6</title>
<g id="a_node7"><a xlink:href="classextension_1_1Ds18b20.html" target="_top" xlink:title=" ">
<polygon fill="none" stroke="black" points="184,-392.5 184,-411.5 297,-411.5 297,-392.5 184,-392.5"/>
<text text-anchor="middle" x="240.5" y="-399.5" font-family="Helvetica,sans-Serif" font-size="10.00">extension::Ds18b20</text>
</a>
</g>
</g>
<!-- Node0&#45;&gt;Node6 -->
<g id="edge6" class="edge">
<title>Node0&#45;&gt;Node6</title>
<path fill="none" stroke="midnightblue" d="M76.6,-323.89C94.22,-341.35 124.08,-368.09 155,-383 163.94,-387.31 173.89,-390.66 183.73,-393.26"/>
<polygon fill="midnightblue" stroke="midnightblue" points="78.93,-321.26 69.41,-316.6 73.94,-326.18 78.93,-321.26"/>
</g>
<!-- Node7 -->
<g id="node8" class="node">
<title>Node7</title>
<g id="a_node8"><a xlink:href="classextension_1_1PiCamera.html" target="_top" xlink:title="The PiCamera class is a simple extension that wraps around the libcamera&#45;apps executables.">
<polygon fill="none" stroke="black" points="181.5,-354.5 181.5,-373.5 299.5,-373.5 299.5,-354.5 181.5,-354.5"/>
<text text-anchor="middle" x="240.5" y="-361.5" font-family="Helvetica,sans-Serif" font-size="10.00">extension::PiCamera</text>
</a>
</g>
</g>
<!-- Node0&#45;&gt;Node7 -->
<g id="edge7" class="edge">
<title>Node0&#45;&gt;Node7</title>
<path fill="none" stroke="midnightblue" d="M90.82,-320.65C109.14,-328.52 133.1,-338.18 155,-345 166.49,-348.57 179.04,-351.77 190.88,-354.48"/>
<polygon fill="midnightblue" stroke="midnightblue" points="92.1,-317.39 81.54,-316.6 89.31,-323.8 92.1,-317.39"/>
</g>
<!-- Node8 -->
<g id="node9" class="node">
<title>Node8</title>
<g id="a_node9"><a xlink:href="classextension_1_1RgbStatusLed.html" target="_top" xlink:title="A simple extension to control an RGB status LED.">
<polygon fill="none" stroke="black" points="172,-316.5 172,-335.5 309,-335.5 309,-316.5 172,-316.5"/>
<text text-anchor="middle" x="240.5" y="-323.5" font-family="Helvetica,sans-Serif" font-size="10.00">extension::RgbStatusLed</text>
</a>
</g>
</g>
<!-- Node0&#45;&gt;Node8 -->
<g id="edge8" class="edge">
<title>Node0&#45;&gt;Node8</title>
<path fill="none" stroke="midnightblue" d="M129.14,-314.29C143.11,-315.77 157.8,-317.33 171.74,-318.81"/>
<polygon fill="midnightblue" stroke="midnightblue" points="129.42,-310.8 119.11,-313.22 128.69,-317.76 129.42,-310.8"/>
</g>
<!-- Node9 -->
<g id="node10" class="node">
<title>Node9</title>
<g id="a_node10"><a xlink:href="classextension_1_1SamM8q.html" target="_top" xlink:title=" ">
<polygon fill="none" stroke="black" points="184,-278.5 184,-297.5 297,-297.5 297,-278.5 184,-278.5"/>
<text text-anchor="middle" x="240.5" y="-285.5" font-family="Helvetica,sans-Serif" font-size="10.00">extension::SamM8q</text>
</a>
</g>
</g>
<!-- Node0&#45;&gt;Node9 -->
<g id="edge9" class="edge">
<title>Node0&#45;&gt;Node9</title>
<path fill="none" stroke="midnightblue" d="M129.28,-299.7C147.31,-297.79 166.54,-295.74 183.8,-293.91"/>
<polygon fill="midnightblue" stroke="midnightblue" points="128.69,-296.24 119.11,-300.78 129.42,-303.2 128.69,-296.24"/>
</g>
<!-- Node10 -->
<g id="node11" class="node">
<title>Node10</title>
<g id="a_node11"><a xlink:href="classextension_1_1SimAdcSensor.html" target="_top" xlink:title=" ">
<polygon fill="none" stroke="black" points="170.5,-240.5 170.5,-259.5 310.5,-259.5 310.5,-240.5 170.5,-240.5"/>
<text text-anchor="middle" x="240.5" y="-247.5" font-family="Helvetica,sans-Serif" font-size="10.00">extension::SimAdcSensor</text>
</a>
</g>
</g>
<!-- Node0&#45;&gt;Node10 -->
<g id="edge10" class="edge">
<title>Node0&#45;&gt;Node10</title>
<path fill="none" stroke="midnightblue" d="M90.82,-293.35C109.14,-285.48 133.1,-275.82 155,-269 166.49,-265.43 179.04,-262.23 190.88,-259.52"/>
<polygon fill="midnightblue" stroke="midnightblue" points="89.31,-290.2 81.54,-297.4 92.1,-296.61 89.31,-290.2"/>
</g>
<!-- Node11 -->
<g id="node12" class="node">
<title>Node11</title>
<g id="a_node12"><a xlink:href="classextension_1_1SimGpsSensor.html" target="_top" xlink:title=" ">
<polygon fill="none" stroke="black" points="170,-202.5 170,-221.5 311,-221.5 311,-202.5 170,-202.5"/>
<text text-anchor="middle" x="240.5" y="-209.5" font-family="Helvetica,sans-Serif" font-size="10.00">extension::SimGpsSensor</text>
</a>
</g>
</g>
<!-- Node0&#45;&gt;Node11 -->
<g id="edge11" class="edge">
<title>Node0&#45;&gt;Node11</title>
<path fill="none" stroke="midnightblue" d="M76.6,-290.11C94.22,-272.65 124.08,-245.91 155,-231 162.99,-227.15 171.79,-224.06 180.59,-221.59"/>
<polygon fill="midnightblue" stroke="midnightblue" points="73.94,-287.82 69.41,-297.4 78.93,-292.74 73.94,-287.82"/>
</g>
<!-- Node12 -->
<g id="node13" class="node">
<title>Node12</title>
<g id="a_node13"><a xlink:href="classextension_1_1SimHumiditySensor.html" target="_top" xlink:title=" ">
<polygon fill="none" stroke="black" points="157,-164.5 157,-183.5 324,-183.5 324,-164.5 157,-164.5"/>
<text text-anchor="middle" x="240.5" y="-171.5" font-family="Helvetica,sans-Serif" font-size="10.00">extension::SimHumiditySensor</text>
</a>
</g>
</g>
<!-- Node0&#45;&gt;Node12 -->
<g id="edge12" class="edge">
<title>Node0&#45;&gt;Node12</title>
<path fill="none" stroke="midnightblue" d="M70.55,-288.46C85.46,-262.81 115.94,-216.95 155,-193 161.28,-189.15 168.25,-186.08 175.42,-183.63"/>
<polygon fill="midnightblue" stroke="midnightblue" points="67.48,-286.78 65.61,-297.21 73.57,-290.22 67.48,-286.78"/>
</g>
<!-- Node13 -->
<g id="node14" class="node">
<title>Node13</title>
<g id="a_node14"><a xlink:href="classextension_1_1SimImuSensor.html" target="_top" xlink:title=" ">
<polygon fill="none" stroke="black" points="170,-126.5 170,-145.5 311,-145.5 311,-126.5 170,-126.5"/>
<text text-anchor="middle" x="240.5" y="-133.5" font-family="Helvetica,sans-Serif" font-size="10.00">extension::SimImuSensor</text>
</a>
</g>
</g>
<!-- Node0&#45;&gt;Node13 -->
<g id="edge13" class="edge">
<title>Node0&#45;&gt;Node13</title>
<path fill="none" stroke="midnightblue" d="M66.92,-287.57C78.81,-254.79 107.44,-188.8 155,-155 160.39,-151.17 166.43,-148.09 172.73,-145.62"/>
<polygon fill="midnightblue" stroke="midnightblue" points="63.51,-286.72 63.53,-297.32 70.13,-289.02 63.51,-286.72"/>
</g>
<!-- Node14 -->
<g id="node15" class="node">
<title>Node14</title>
<g id="a_node15"><a xlink:href="classextension_1_1SimPressureSensor.html" target="_top" xlink:title=" ">
<polygon fill="none" stroke="black" points="158.5,-88.5 158.5,-107.5 322.5,-107.5 322.5,-88.5 158.5,-88.5"/>
<text text-anchor="middle" x="240.5" y="-95.5" font-family="Helvetica,sans-Serif" font-size="10.00">extension::SimPressureSensor</text>
</a>
</g>
</g>
<!-- Node0&#45;&gt;Node14 -->
<g id="edge14" class="edge">
<title>Node0&#45;&gt;Node14</title>
<path fill="none" stroke="midnightblue" d="M64.44,-287.19C73.29,-248.17 98.54,-161.29 155,-117 159.85,-113.19 165.31,-110.12 171.07,-107.64"/>
<polygon fill="midnightblue" stroke="midnightblue" points="60.96,-286.75 62.29,-297.27 67.8,-288.22 60.96,-286.75"/>
</g>
<!-- Node15 -->
<g id="node16" class="node">
<title>Node15</title>
<g id="a_node16"><a xlink:href="classextension_1_1SimTemperatureSensor.html" target="_top" xlink:title=" ">
<polygon fill="none" stroke="black" points="165,-39 165,-69 316,-69 316,-39 165,-39"/>
<text text-anchor="start" x="173" y="-57" font-family="Helvetica,sans-Serif" font-size="10.00">extension::SimTemperature</text>
<text text-anchor="middle" x="240.5" y="-46" font-family="Helvetica,sans-Serif" font-size="10.00">Sensor</text>
</a>
</g>
</g>
<!-- Node0&#45;&gt;Node15 -->
<g id="edge15" class="edge">
<title>Node0&#45;&gt;Node15</title>
<path fill="none" stroke="midnightblue" d="M62.98,-287.02C69.53,-242.84 91.42,-136.22 155,-79 159.32,-75.11 164.22,-71.83 169.43,-69.05"/>
<polygon fill="midnightblue" stroke="midnightblue" points="59.49,-286.68 61.6,-297.07 66.43,-287.64 59.49,-286.68"/>
</g>
<!-- Node2 -->
<g id="node3" class="node">
<title>Node2</title>
<g id="a_node3"><a xlink:href="classextension_1_1Mcp3021.html" target="_top" xlink:title=" ">
<polygon fill="none" stroke="black" points="362,-280.5 362,-299.5 477,-299.5 477,-280.5 362,-280.5"/>
<text text-anchor="middle" x="419.5" y="-287.5" font-family="Helvetica,sans-Serif" font-size="10.00">extension::Mcp3021</text>
</a>
</g>
</g>
<!-- Node1&#45;&gt;Node2 -->
<g id="edge2" class="edge">
<title>Node1&#45;&gt;Node2</title>
<path fill="none" stroke="midnightblue" d="M322.42,-550.08C323.66,-549.1 324.85,-548.07 326,-547 402.26,-475.81 415.76,-337.18 418.05,-299.59"/>
<polygon fill="midnightblue" stroke="midnightblue" points="320.11,-547.42 313.78,-555.91 324.02,-553.22 320.11,-547.42"/>
</g>
<!-- Node77 -->
<g id="node17" class="node">
<title>Node77</title>
<g id="a_node17"><a xlink:href="classextension_1_1I2cExtensionAdapter.html" target="_top" xlink:title="Adapter for I2C Extensions.">
<polygon fill="none" stroke="black" points="155,-0.5 155,-19.5 326,-19.5 326,-0.5 155,-0.5"/>
<text text-anchor="middle" x="240.5" y="-7.5" font-family="Helvetica,sans-Serif" font-size="10.00">extension::I2cExtensionAdapter</text>
</a>
</g>
</g>
<!-- Node77&#45;&gt;Node2 -->
<g id="edge16" class="edge">
<title>Node77&#45;&gt;Node2</title>
<path fill="none" stroke="midnightblue" d="M320.52,-24.72C322.43,-26.04 324.26,-27.46 326,-29 405.3,-99.35 416.62,-242.14 418.23,-280.39"/>
<polygon fill="midnightblue" stroke="midnightblue" points="322.08,-21.58 311.67,-19.62 318.58,-27.65 322.08,-21.58"/>
</g>
</g>
</svg>
