<?xml version="1.0" encoding="UTF-8" standalone="no"?>
<!DOCTYPE svg PUBLIC "-//W3C//DTD SVG 1.1//EN"
 "http://www.w3.org/Graphics/SVG/1.1/DTD/svg11.dtd">
<!-- Generated by graphviz version 2.43.0 (0)
 -->
<!-- Title: Graphical Class Hierarchy Pages: 1 -->
<svg width="237pt" height="64pt"
 viewBox="0.00 0.00 237.00 64.00" xmlns="http://www.w3.org/2000/svg" xmlns:xlink="http://www.w3.org/1999/xlink">
<g id="graph0" class="graph" transform="scale(1 1) rotate(0) translate(4 60)">
<title>Graphical Class Hierarchy</title>
<!-- Node0 -->
<g id="Node000000" class="node">
<title>Node0</title>
<g id="a_Node000000"><a xlink:href="classcfg_1_1CfgSection.html" target="_top" xlink:title="This is the base class for all configuration sections.">
<polygon fill="white" stroke="#666666" points="90,-37 0,-37 0,-18 90,-18 90,-37"/>
<text text-anchor="middle" x="45" y="-25" font-family="Helvetica,sans-Serif" font-size="10.00">cfg::CfgSection</text>
</a>
</g>
</g>
<!-- Node1 -->
<g id="Node000001" class="node">
<title>Node1</title>
<g id="a_Node000001"><a xlink:href="classcfg_1_1AdcMappings.html" target="_top" xlink:title=" ">
<polygon fill="white" stroke="#666666" points="229,-56 126,-56 126,-37 229,-37 229,-56"/>
<text text-anchor="middle" x="177.5" y="-44" font-family="Helvetica,sans-Serif" font-size="10.00">cfg::AdcMappings</text>
</a>
</g>
</g>
<!-- Node0&#45;&gt;Node1 -->
<g id="edge2_Node000000_Node000001" class="edge">
<title>Node0&#45;&gt;Node1</title>
<g id="a_edge2_Node000000_Node000001"><a xlink:title=" ">
<path fill="none" stroke="#63b8ff" d="M100.26,-35.4C108.65,-36.62 117.3,-37.88 125.61,-39.09"/>
<polygon fill="#63b8ff" stroke="#63b8ff" points="100.58,-31.91 90.18,-33.93 99.57,-38.84 100.58,-31.91"/>
</a>
</g>
</g>
<!-- Node2 -->
<g id="Node000002" class="node">
<title>Node2</title>
<g id="a_Node000002"><a xlink:href="classcfg_1_1Extensions.html" target="_top" xlink:title="The extensions section of the configuration.">
<polygon fill="white" stroke="#666666" points="223,-19 132,-19 132,0 223,0 223,-19"/>
<text text-anchor="middle" x="177.5" y="-7" font-family="Helvetica,sans-Serif" font-size="10.00">cfg::Extensions</text>
</a>
</g>
</g>
<!-- Node0&#45;&gt;Node2 -->
<g id="edge3_Node000000_Node000002" class="edge">
<title>Node0&#45;&gt;Node2</title>
<g id="a_edge3_Node000000_Node000002"><a xlink:title=" ">
<path fill="none" stroke="#63b8ff" d="M100.16,-20.03C110.73,-18.57 121.7,-17.06 131.92,-15.65"/>
<polygon fill="#63b8ff" stroke="#63b8ff" points="99.61,-16.57 90.18,-21.41 100.57,-23.51 99.61,-16.57"/>
</a>
</g>
</g>
</g>
</svg>
