<?xml version="1.0" encoding="UTF-8" standalone="no"?>
<!DOCTYPE svg PUBLIC "-//W3C//DTD SVG 1.1//EN"
 "http://www.w3.org/Graphics/SVG/1.1/DTD/svg11.dtd">
<!-- Generated by graphviz version 2.43.0 (0)
 -->
<!-- Title: Graphical Class Hierarchy Pages: 1 -->
<svg width="254pt" height="598pt"
 viewBox="0.00 0.00 254.00 598.00" xmlns="http://www.w3.org/2000/svg" xmlns:xlink="http://www.w3.org/1999/xlink">
<g id="graph0" class="graph" transform="scale(1 1) rotate(0) translate(4 594)">
<title>Graphical Class Hierarchy</title>
<!-- Node138 -->
<g id="node1" class="node">
<title>Node138</title>
<g id="a_node1"><a xlink:title=" ">
<polygon fill="none" stroke="#bfbfbf" points="0,-285.5 0,-304.5 76,-304.5 76,-285.5 0,-285.5"/>
<text text-anchor="middle" x="38" y="-292.5" font-family="Helvetica,sans-Serif" font-size="10.00">testing::Test</text>
</a>
</g>
</g>
<!-- Node0 -->
<g id="node2" class="node">
<title>Node0</title>
<g id="a_node2"><a xlink:href="classBME280Test.html" target="_top" xlink:title=" ">
<polygon fill="none" stroke="black" points="141,-570.5 141,-589.5 217,-589.5 217,-570.5 141,-570.5"/>
<text text-anchor="middle" x="179" y="-577.5" font-family="Helvetica,sans-Serif" font-size="10.00">BME280Test</text>
</a>
</g>
</g>
<!-- Node138&#45;&gt;Node0 -->
<g id="edge1" class="edge">
<title>Node138&#45;&gt;Node0</title>
<path fill="none" stroke="midnightblue" d="M38.32,-314.77C37.75,-363.68 43.31,-491.45 112,-561 119.71,-568.8 130.4,-573.45 140.94,-576.21"/>
<polygon fill="midnightblue" stroke="midnightblue" points="41.82,-314.67 38.54,-304.59 34.82,-314.51 41.82,-314.67"/>
</g>
<!-- Node140 -->
<g id="node3" class="node">
<title>Node140</title>
<g id="a_node3"><a xlink:href="classBMP180Test.html" target="_top" xlink:title=" ">
<polygon fill="none" stroke="black" points="141,-532.5 141,-551.5 217,-551.5 217,-532.5 141,-532.5"/>
<text text-anchor="middle" x="179" y="-539.5" font-family="Helvetica,sans-Serif" font-size="10.00">BMP180Test</text>
</a>
</g>
</g>
<!-- Node138&#45;&gt;Node140 -->
<g id="edge2" class="edge">
<title>Node138&#45;&gt;Node140</title>
<path fill="none" stroke="midnightblue" d="M39.4,-314.89C41.39,-358.91 52.47,-465.21 112,-523 119.79,-530.56 130.38,-535.14 140.79,-537.92"/>
<polygon fill="midnightblue" stroke="midnightblue" points="42.9,-314.76 39.06,-304.89 35.9,-315 42.9,-314.76"/>
</g>
<!-- Node141 -->
<g id="node4" class="node">
<title>Node141</title>
<g id="a_node4"><a xlink:href="classConfigurationTest.html" target="_top" xlink:title=" ">
<polygon fill="none" stroke="black" points="128.5,-494.5 128.5,-513.5 229.5,-513.5 229.5,-494.5 128.5,-494.5"/>
<text text-anchor="middle" x="179" y="-501.5" font-family="Helvetica,sans-Serif" font-size="10.00">ConfigurationTest</text>
</a>
</g>
</g>
<!-- Node138&#45;&gt;Node141 -->
<g id="edge3" class="edge">
<title>Node138&#45;&gt;Node141</title>
<path fill="none" stroke="midnightblue" d="M40.89,-314.92C45.61,-353.5 61.49,-438.68 112,-485 116.75,-489.35 122.43,-492.71 128.44,-495.31"/>
<polygon fill="midnightblue" stroke="midnightblue" points="44.32,-314.1 39.75,-304.54 37.36,-314.86 44.32,-314.1"/>
</g>
<!-- Node142 -->
<g id="node5" class="node">
<title>Node142</title>
<g id="a_node5"><a xlink:href="classConfiguration__Module__1.html" target="_top" xlink:title=" ">
<polygon fill="none" stroke="black" points="112,-456.5 112,-475.5 246,-475.5 246,-456.5 112,-456.5"/>
<text text-anchor="middle" x="179" y="-463.5" font-family="Helvetica,sans-Serif" font-size="10.00">Configuration_Module_1</text>
</a>
</g>
</g>
<!-- Node138&#45;&gt;Node142 -->
<g id="edge4" class="edge">
<title>Node138&#45;&gt;Node142</title>
<path fill="none" stroke="midnightblue" d="M43.05,-314.96C50.71,-347.5 70.4,-411.84 112,-447 116.55,-450.85 121.85,-453.92 127.41,-456.37"/>
<polygon fill="midnightblue" stroke="midnightblue" points="46.4,-313.89 40.83,-304.88 39.57,-315.4 46.4,-313.89"/>
</g>
<!-- Node143 -->
<g id="node6" class="node">
<title>Node143</title>
<g id="a_node6"><a xlink:href="classDS18B20Test.html" target="_top" xlink:title=" ">
<polygon fill="none" stroke="black" points="139,-418.5 139,-437.5 219,-437.5 219,-418.5 139,-418.5"/>
<text text-anchor="middle" x="179" y="-425.5" font-family="Helvetica,sans-Serif" font-size="10.00">DS18B20Test</text>
</a>
</g>
</g>
<!-- Node138&#45;&gt;Node143 -->
<g id="edge5" class="edge">
<title>Node138&#45;&gt;Node143</title>
<path fill="none" stroke="midnightblue" d="M46.24,-314.25C56.8,-339.73 78.87,-384.29 112,-409 119.84,-414.85 129.43,-418.9 138.84,-421.7"/>
<polygon fill="midnightblue" stroke="midnightblue" points="49.36,-312.62 42.42,-304.61 42.85,-315.2 49.36,-312.62"/>
</g>
<!-- Node144 -->
<g id="node7" class="node">
<title>Node144</title>
<g id="a_node7"><a xlink:href="classDataModuleTests.html" target="_top" xlink:title=" ">
<polygon fill="none" stroke="black" points="128.5,-380.5 128.5,-399.5 229.5,-399.5 229.5,-380.5 128.5,-380.5"/>
<text text-anchor="middle" x="179" y="-387.5" font-family="Helvetica,sans-Serif" font-size="10.00">DataModuleTests</text>
</a>
</g>
</g>
<!-- Node138&#45;&gt;Node144 -->
<g id="edge6" class="edge">
<title>Node138&#45;&gt;Node144</title>
<path fill="none" stroke="midnightblue" d="M51.71,-312.91C64.9,-330.22 87.06,-355.95 112,-371 118.33,-374.82 125.46,-377.9 132.64,-380.38"/>
<polygon fill="midnightblue" stroke="midnightblue" points="54.43,-310.7 45.67,-304.74 48.8,-314.86 54.43,-310.7"/>
</g>
<!-- Node145 -->
<g id="node8" class="node">
<title>Node145</title>
<g id="a_node8"><a xlink:href="classDataStream__Utility.html" target="_top" xlink:title=" ">
<polygon fill="none" stroke="black" points="124,-342.5 124,-361.5 234,-361.5 234,-342.5 124,-342.5"/>
<text text-anchor="middle" x="179" y="-349.5" font-family="Helvetica,sans-Serif" font-size="10.00">DataStream_Utility</text>
</a>
</g>
</g>
<!-- Node138&#45;&gt;Node145 -->
<g id="edge7" class="edge">
<title>Node138&#45;&gt;Node145</title>
<path fill="none" stroke="midnightblue" d="M63.98,-309.59C77.82,-317.26 95.51,-326.41 112,-333 120.86,-336.54 130.63,-339.72 139.87,-342.43"/>
<polygon fill="midnightblue" stroke="midnightblue" points="65.51,-306.43 55.08,-304.57 62.07,-312.53 65.51,-306.43"/>
</g>
<!-- Node146 -->
<g id="node9" class="node">
<title>Node146</title>
<g id="a_node9"><a xlink:href="classExtensionsModuleTests.html" target="_top" xlink:title=" ">
<polygon fill="none" stroke="black" points="113.5,-304.5 113.5,-323.5 244.5,-323.5 244.5,-304.5 113.5,-304.5"/>
<text text-anchor="middle" x="179" y="-311.5" font-family="Helvetica,sans-Serif" font-size="10.00">ExtensionsModuleTests</text>
</a>
</g>
</g>
<!-- Node138&#45;&gt;Node146 -->
<g id="edge8" class="edge">
<title>Node138&#45;&gt;Node146</title>
<path fill="none" stroke="midnightblue" d="M86.2,-301.45C94.91,-302.64 104.15,-303.91 113.28,-305.15"/>
<polygon fill="midnightblue" stroke="midnightblue" points="86.63,-297.98 76.25,-300.09 85.68,-304.91 86.63,-297.98"/>
</g>
<!-- Node147 -->
<g id="node10" class="node">
<title>Node147</title>
<g id="a_node10"><a xlink:href="classGfsMetaData.html" target="_top" xlink:title=" ">
<polygon fill="none" stroke="black" points="138.5,-266.5 138.5,-285.5 219.5,-285.5 219.5,-266.5 138.5,-266.5"/>
<text text-anchor="middle" x="179" y="-273.5" font-family="Helvetica,sans-Serif" font-size="10.00">GfsMetaData</text>
</a>
</g>
</g>
<!-- Node138&#45;&gt;Node147 -->
<g id="edge9" class="edge">
<title>Node138&#45;&gt;Node147</title>
<path fill="none" stroke="midnightblue" d="M86.45,-288.51C103.3,-286.21 122.07,-283.65 138.21,-281.44"/>
<polygon fill="midnightblue" stroke="midnightblue" points="85.68,-285.09 76.25,-289.91 86.63,-292.02 85.68,-285.09"/>
</g>
<!-- Node148 -->
<g id="node11" class="node">
<title>Node148</title>
<g id="a_node11"><a xlink:href="classGfsProtocol.html" target="_top" xlink:title=" ">
<polygon fill="none" stroke="black" points="142.5,-228.5 142.5,-247.5 215.5,-247.5 215.5,-228.5 142.5,-228.5"/>
<text text-anchor="middle" x="179" y="-235.5" font-family="Helvetica,sans-Serif" font-size="10.00">GfsProtocol</text>
</a>
</g>
</g>
<!-- Node138&#45;&gt;Node148 -->
<g id="edge10" class="edge">
<title>Node138&#45;&gt;Node148</title>
<path fill="none" stroke="midnightblue" d="M63.98,-280.41C77.82,-272.74 95.51,-263.59 112,-257 121.63,-253.15 132.34,-249.72 142.28,-246.88"/>
<polygon fill="midnightblue" stroke="midnightblue" points="62.07,-277.47 55.08,-285.43 65.51,-283.57 62.07,-277.47"/>
</g>
<!-- Node149 -->
<g id="node12" class="node">
<title>Node149</title>
<g id="a_node12"><a xlink:href="classI2CUtilityTest.html" target="_top" xlink:title=" ">
<polygon fill="none" stroke="black" points="138,-190.5 138,-209.5 220,-209.5 220,-190.5 138,-190.5"/>
<text text-anchor="middle" x="179" y="-197.5" font-family="Helvetica,sans-Serif" font-size="10.00">I2CUtilityTest</text>
</a>
</g>
</g>
<!-- Node138&#45;&gt;Node149 -->
<g id="edge11" class="edge">
<title>Node138&#45;&gt;Node149</title>
<path fill="none" stroke="midnightblue" d="M51.71,-277.09C64.9,-259.78 87.06,-234.05 112,-219 119.86,-214.26 128.96,-210.65 137.85,-207.92"/>
<polygon fill="midnightblue" stroke="midnightblue" points="48.8,-275.14 45.67,-285.26 54.43,-279.3 48.8,-275.14"/>
</g>
<!-- Node150 -->
<g id="node13" class="node">
<title>Node150</title>
<g id="a_node13"><a xlink:href="classProtocolTest.html" target="_top" xlink:title=" ">
<polygon fill="none" stroke="black" points="141,-152.5 141,-171.5 217,-171.5 217,-152.5 141,-152.5"/>
<text text-anchor="middle" x="179" y="-159.5" font-family="Helvetica,sans-Serif" font-size="10.00">ProtocolTest</text>
</a>
</g>
</g>
<!-- Node138&#45;&gt;Node150 -->
<g id="edge12" class="edge">
<title>Node138&#45;&gt;Node150</title>
<path fill="none" stroke="midnightblue" d="M46.24,-275.75C56.8,-250.27 78.87,-205.71 112,-181 120.41,-174.73 130.84,-170.52 140.9,-167.7"/>
<polygon fill="midnightblue" stroke="midnightblue" points="42.85,-274.8 42.42,-285.39 49.36,-277.38 42.85,-274.8"/>
</g>
<!-- Node151 -->
<g id="node14" class="node">
<title>Node151</title>
<g id="a_node14"><a xlink:href="classSYSINFOTest.html" target="_top" xlink:title=" ">
<polygon fill="none" stroke="black" points="140,-114.5 140,-133.5 218,-133.5 218,-114.5 140,-114.5"/>
<text text-anchor="middle" x="179" y="-121.5" font-family="Helvetica,sans-Serif" font-size="10.00">SYSINFOTest</text>
</a>
</g>
</g>
<!-- Node138&#45;&gt;Node151 -->
<g id="edge13" class="edge">
<title>Node138&#45;&gt;Node151</title>
<path fill="none" stroke="midnightblue" d="M43.05,-275.04C50.71,-242.5 70.4,-178.16 112,-143 119.83,-136.38 129.85,-132.06 139.7,-129.25"/>
<polygon fill="midnightblue" stroke="midnightblue" points="39.57,-274.6 40.83,-285.12 46.4,-276.11 39.57,-274.6"/>
</g>
<!-- Node152 -->
<g id="node15" class="node">
<title>Node152</title>
<g id="a_node15"><a xlink:href="classSerialInterface.html" target="_top" xlink:title=" ">
<polygon fill="none" stroke="black" points="135,-76.5 135,-95.5 223,-95.5 223,-76.5 135,-76.5"/>
<text text-anchor="middle" x="179" y="-83.5" font-family="Helvetica,sans-Serif" font-size="10.00">SerialInterface</text>
</a>
</g>
</g>
<!-- Node138&#45;&gt;Node152 -->
<g id="edge14" class="edge">
<title>Node138&#45;&gt;Node152</title>
<path fill="none" stroke="midnightblue" d="M40.89,-275.08C45.61,-236.5 61.49,-151.32 112,-105 118.42,-99.12 126.54,-95.04 134.87,-92.23"/>
<polygon fill="midnightblue" stroke="midnightblue" points="37.36,-275.14 39.75,-285.46 44.32,-275.9 37.36,-275.14"/>
</g>
<!-- Node153 -->
<g id="node16" class="node">
<title>Node153</title>
<g id="a_node16"><a xlink:href="classUBXTest.html" target="_top" xlink:title=" ">
<polygon fill="none" stroke="black" points="150.5,-38.5 150.5,-57.5 207.5,-57.5 207.5,-38.5 150.5,-38.5"/>
<text text-anchor="middle" x="179" y="-45.5" font-family="Helvetica,sans-Serif" font-size="10.00">UBXTest</text>
</a>
</g>
</g>
<!-- Node138&#45;&gt;Node153 -->
<g id="edge15" class="edge">
<title>Node138&#45;&gt;Node153</title>
<path fill="none" stroke="midnightblue" d="M39.4,-275.11C41.39,-231.09 52.47,-124.79 112,-67 122.18,-57.12 137.16,-52.32 150.27,-50.01"/>
<polygon fill="midnightblue" stroke="midnightblue" points="35.9,-275 39.06,-285.11 42.9,-275.24 35.9,-275"/>
</g>
<!-- Node154 -->
<g id="node17" class="node">
<title>Node154</title>
<g id="a_node17"><a xlink:href="classmcp3021Test.html" target="_top" xlink:title=" ">
<polygon fill="none" stroke="black" points="138.5,-0.5 138.5,-19.5 219.5,-19.5 219.5,-0.5 138.5,-0.5"/>
<text text-anchor="middle" x="179" y="-7.5" font-family="Helvetica,sans-Serif" font-size="10.00">mcp3021Test</text>
</a>
</g>
</g>
<!-- Node138&#45;&gt;Node154 -->
<g id="edge16" class="edge">
<title>Node138&#45;&gt;Node154</title>
<path fill="none" stroke="midnightblue" d="M38.32,-275.23C37.75,-226.32 43.31,-98.55 112,-29 119.04,-21.87 128.56,-17.38 138.19,-14.55"/>
<polygon fill="midnightblue" stroke="midnightblue" points="34.82,-275.49 38.54,-285.41 41.82,-275.33 34.82,-275.49"/>
</g>
</g>
</svg>
