<?xml version="1.0" encoding="UTF-8" standalone="no"?>
<!DOCTYPE svg PUBLIC "-//W3C//DTD SVG 1.1//EN"
 "http://www.w3.org/Graphics/SVG/1.1/DTD/svg11.dtd">
<!-- Generated by graphviz version 2.43.0 (0)
 -->
<!-- Title: json.hpp Pages: 1 -->
<svg width="2551pt" height="487pt"
 viewBox="0.00 0.00 2550.50 487.00" xmlns="http://www.w3.org/2000/svg" xmlns:xlink="http://www.w3.org/1999/xlink">
<g id="graph0" class="graph" transform="scale(1 1) rotate(0) translate(4 483)">
<title>json.hpp</title>
<!-- Node1 -->
<g id="node1" class="node">
<title>Node1</title>
<g id="a_node1"><a xlink:title="Simple wrapper around nlohmann/json.hpp to provide a common interface.">
<polygon fill="#bfbfbf" stroke="black" points="1036.5,-459.5 1036.5,-478.5 1094.5,-478.5 1094.5,-459.5 1036.5,-459.5"/>
<text text-anchor="middle" x="1065.5" y="-466.5" font-family="Helvetica,sans-Serif" font-size="10.00">json.hpp</text>
</a>
</g>
</g>
<!-- Node2 -->
<g id="node2" class="node">
<title>Node2</title>
<g id="a_node2"><a xlink:href="validation_8hpp.html" target="_top" xlink:title=" ">
<polygon fill="none" stroke="black" points="814.5,-347.5 814.5,-366.5 900.5,-366.5 900.5,-347.5 814.5,-347.5"/>
<text text-anchor="middle" x="857.5" y="-354.5" font-family="Helvetica,sans-Serif" font-size="10.00">validation.hpp</text>
</a>
</g>
</g>
<!-- Node1&#45;&gt;Node2 -->
<g id="edge1" class="edge">
<title>Node1&#45;&gt;Node2</title>
<path fill="none" stroke="midnightblue" d="M1026.39,-463.34C977.54,-456.76 897.78,-443.23 876.5,-423 860.65,-407.93 857.8,-380.45 857.43,-366.54"/>
<polygon fill="midnightblue" stroke="midnightblue" points="1025.94,-466.81 1036.31,-464.64 1026.85,-459.87 1025.94,-466.81"/>
</g>
<!-- Node4 -->
<g id="node4" class="node">
<title>Node4</title>
<g id="a_node4"><a xlink:href="flight__runner__data_8cpp.html" target="_top" xlink:title="Implementation of non&#45;volatile data for the flight runner.">
<polygon fill="none" stroke="black" points="886,-403.5 886,-422.5 1011,-422.5 1011,-403.5 886,-403.5"/>
<text text-anchor="middle" x="948.5" y="-410.5" font-family="Helvetica,sans-Serif" font-size="10.00">flight_runner_data.cpp</text>
</a>
</g>
</g>
<!-- Node1&#45;&gt;Node4 -->
<g id="edge3" class="edge">
<title>Node1&#45;&gt;Node4</title>
<path fill="none" stroke="midnightblue" d="M1037.84,-455.23C1015.95,-445.13 986,-431.31 966.95,-422.52"/>
<polygon fill="midnightblue" stroke="midnightblue" points="1036.41,-458.43 1046.96,-459.44 1039.35,-452.08 1036.41,-458.43"/>
</g>
<!-- Node5 -->
<g id="node5" class="node">
<title>Node5</title>
<g id="a_node5"><a xlink:href="to__json_8hpp.html" target="_top" xlink:title="Utility functions for converting data to JSON.">
<polygon fill="none" stroke="black" points="1029,-403.5 1029,-422.5 1102,-422.5 1102,-403.5 1029,-403.5"/>
<text text-anchor="middle" x="1065.5" y="-410.5" font-family="Helvetica,sans-Serif" font-size="10.00">to_json.hpp</text>
</a>
</g>
</g>
<!-- Node1&#45;&gt;Node5 -->
<g id="edge4" class="edge">
<title>Node1&#45;&gt;Node5</title>
<path fill="none" stroke="midnightblue" d="M1065.5,-448.8C1065.5,-439.91 1065.5,-429.78 1065.5,-422.75"/>
<polygon fill="midnightblue" stroke="midnightblue" points="1062,-449.08 1065.5,-459.08 1069,-449.08 1062,-449.08"/>
</g>
<!-- Node7 -->
<g id="node7" class="node">
<title>Node7</title>
<g id="a_node7"><a xlink:href="blocks_8hpp.html" target="_top" xlink:title=" ">
<polygon fill="none" stroke="black" points="1120,-403.5 1120,-422.5 1189,-422.5 1189,-403.5 1120,-403.5"/>
<text text-anchor="middle" x="1154.5" y="-410.5" font-family="Helvetica,sans-Serif" font-size="10.00">blocks.hpp</text>
</a>
</g>
</g>
<!-- Node1&#45;&gt;Node7 -->
<g id="edge6" class="edge">
<title>Node1&#45;&gt;Node7</title>
<path fill="none" stroke="midnightblue" d="M1088.74,-453.9C1105.06,-444 1126.37,-431.07 1140.24,-422.65"/>
<polygon fill="midnightblue" stroke="midnightblue" points="1086.53,-451.14 1079.8,-459.32 1090.16,-457.13 1086.53,-451.14"/>
</g>
<!-- Node69 -->
<g id="node43" class="node">
<title>Node69</title>
<g id="a_node43"><a xlink:href="protocol_8hpp.html" target="_top" xlink:title="Declares the protocol namespace and its associated types.">
<polygon fill="none" stroke="black" points="2083,-403.5 2083,-422.5 2160,-422.5 2160,-403.5 2083,-403.5"/>
<text text-anchor="middle" x="2121.5" y="-410.5" font-family="Helvetica,sans-Serif" font-size="10.00">protocol.hpp</text>
</a>
</g>
</g>
<!-- Node1&#45;&gt;Node69 -->
<g id="edge57" class="edge">
<title>Node1&#45;&gt;Node69</title>
<path fill="none" stroke="midnightblue" d="M1104.84,-465.99C1271.43,-457.47 1917.84,-424.41 2082.94,-415.97"/>
<polygon fill="midnightblue" stroke="midnightblue" points="1104.38,-462.51 1094.57,-466.51 1104.73,-469.5 1104.38,-462.51"/>
</g>
<!-- Node3 -->
<g id="node3" class="node">
<title>Node3</title>
<g id="a_node3"><a xlink:href="cfg__extensions_8cpp.html" target="_top" xlink:title="Implements the extensions section of the configuration.">
<polygon fill="none" stroke="black" points="802.5,-168.5 802.5,-187.5 912.5,-187.5 912.5,-168.5 802.5,-168.5"/>
<text text-anchor="middle" x="857.5" y="-175.5" font-family="Helvetica,sans-Serif" font-size="10.00">cfg_extensions.cpp</text>
</a>
</g>
</g>
<!-- Node2&#45;&gt;Node3 -->
<g id="edge2" class="edge">
<title>Node2&#45;&gt;Node3</title>
<path fill="none" stroke="midnightblue" d="M857.5,-337.35C857.5,-299.6 857.5,-215.36 857.5,-187.87"/>
<polygon fill="midnightblue" stroke="midnightblue" points="854,-337.46 857.5,-347.46 861,-337.46 854,-337.46"/>
</g>
<!-- Node6 -->
<g id="node6" class="node">
<title>Node6</title>
<g id="a_node6"><a xlink:href="influxdb_8cpp.html" target="_top" xlink:title=" ">
<polygon fill="none" stroke="black" points="1022.5,-224.5 1022.5,-243.5 1098.5,-243.5 1098.5,-224.5 1022.5,-224.5"/>
<text text-anchor="middle" x="1060.5" y="-231.5" font-family="Helvetica,sans-Serif" font-size="10.00">influxdb.cpp</text>
</a>
</g>
</g>
<!-- Node5&#45;&gt;Node6 -->
<g id="edge5" class="edge">
<title>Node5&#45;&gt;Node6</title>
<path fill="none" stroke="midnightblue" d="M1064.97,-393.35C1063.91,-355.6 1061.53,-271.36 1060.75,-243.87"/>
<polygon fill="midnightblue" stroke="midnightblue" points="1061.48,-393.57 1065.26,-403.46 1068.47,-393.37 1061.48,-393.57"/>
</g>
<!-- Node7&#45;&gt;Node6 -->
<g id="edge7" class="edge">
<title>Node7&#45;&gt;Node6</title>
<path fill="none" stroke="midnightblue" d="M1144.79,-394.49C1133.7,-374.4 1115.07,-340.44 1099.5,-311 1086.74,-286.88 1072.18,-258.17 1064.99,-243.93"/>
<polygon fill="midnightblue" stroke="midnightblue" points="1141.82,-396.34 1149.72,-403.39 1147.94,-392.95 1141.82,-396.34"/>
</g>
<!-- Node7&#45;&gt;Node7 -->
<g id="edge8" class="edge">
<title>Node7&#45;&gt;Node7</title>
<path fill="none" stroke="midnightblue" d="M1187.01,-423.5C1198.09,-423.56 1207,-420.06 1207,-413 1207,-403.87 1192.11,-400.69 1176.89,-403.47"/>
<polygon fill="midnightblue" stroke="midnightblue" points="1187.18,-420 1176.89,-422.53 1186.51,-426.97 1187.18,-420"/>
</g>
<!-- Node8 -->
<g id="node8" class="node">
<title>Node8</title>
<g id="a_node8"><a xlink:href="shared__data_8hpp.html" target="_top" xlink:title="Contains the SharedData struct, used across all modules and extensions.">
<polygon fill="none" stroke="black" points="1480.5,-347.5 1480.5,-366.5 1578.5,-366.5 1578.5,-347.5 1480.5,-347.5"/>
<text text-anchor="middle" x="1529.5" y="-354.5" font-family="Helvetica,sans-Serif" font-size="10.00">shared_data.hpp</text>
</a>
</g>
</g>
<!-- Node7&#45;&gt;Node8 -->
<g id="edge9" class="edge">
<title>Node7&#45;&gt;Node8</title>
<path fill="none" stroke="midnightblue" d="M1199.03,-405.59C1269.67,-395.42 1406.9,-375.65 1480.33,-365.08"/>
<polygon fill="midnightblue" stroke="midnightblue" points="1198.51,-402.13 1189.11,-407.02 1199.5,-409.06 1198.51,-402.13"/>
</g>
<!-- Node9 -->
<g id="node9" class="node">
<title>Node9</title>
<g id="a_node9"><a xlink:href="cfg__section_8hpp.html" target="_top" xlink:title="This file contains the base class for all configuration sections.">
<polygon fill="none" stroke="black" points="1203,-286 1203,-305 1296,-305 1296,-286 1203,-286"/>
<text text-anchor="middle" x="1249.5" y="-293" font-family="Helvetica,sans-Serif" font-size="10.00">cfg_section.hpp</text>
</a>
</g>
</g>
<!-- Node8&#45;&gt;Node9 -->
<g id="edge10" class="edge">
<title>Node8&#45;&gt;Node9</title>
<path fill="none" stroke="midnightblue" d="M1475.79,-345.44C1431.4,-336.6 1366.75,-323.46 1310.5,-311 1302.1,-309.14 1293.08,-307.05 1284.62,-305.04"/>
<polygon fill="midnightblue" stroke="midnightblue" points="1475.3,-348.91 1485.79,-347.43 1476.66,-342.05 1475.3,-348.91"/>
</g>
<!-- Node11 -->
<g id="node11" class="node">
<title>Node11</title>
<g id="a_node11"><a xlink:href="extension__base_8hpp.html" target="_top" xlink:title="The new implementation of the extension system.">
<polygon fill="none" stroke="black" points="930.5,-168.5 930.5,-187.5 1044.5,-187.5 1044.5,-168.5 930.5,-168.5"/>
<text text-anchor="middle" x="987.5" y="-175.5" font-family="Helvetica,sans-Serif" font-size="10.00">extension_base.hpp</text>
</a>
</g>
</g>
<!-- Node8&#45;&gt;Node11 -->
<g id="edge32" class="edge">
<title>Node8&#45;&gt;Node11</title>
<path fill="none" stroke="midnightblue" d="M1470.34,-347.77C1433.89,-341.15 1386.93,-329.77 1348.5,-311 1292.17,-283.5 1294.7,-249.64 1237.5,-224 1175.23,-196.08 1096.89,-185.47 1044.66,-181.45"/>
<polygon fill="midnightblue" stroke="midnightblue" points="1469.88,-351.24 1480.33,-349.51 1471.08,-344.34 1469.88,-351.24"/>
</g>
<!-- Node33 -->
<g id="node23" class="node">
<title>Node33</title>
<g id="a_node23"><a xlink:href="flight__runner_8hpp.html" target="_top" xlink:title="The main class for the flight system.">
<polygon fill="none" stroke="black" points="1647.5,-56.5 1647.5,-75.5 1745.5,-75.5 1745.5,-56.5 1647.5,-56.5"/>
<text text-anchor="middle" x="1696.5" y="-63.5" font-family="Helvetica,sans-Serif" font-size="10.00">flight_runner.hpp</text>
</a>
</g>
</g>
<!-- Node8&#45;&gt;Node33 -->
<g id="edge33" class="edge">
<title>Node8&#45;&gt;Node33</title>
<path fill="none" stroke="midnightblue" d="M1471.82,-344.66C1450.08,-337.94 1426.52,-327.4 1409.5,-311 1362.93,-266.12 1339.39,-216.22 1382.5,-168 1464.95,-75.77 1555.42,-200.39 1658.5,-132 1678.76,-118.56 1689.64,-90.34 1694.07,-75.91"/>
<polygon fill="midnightblue" stroke="midnightblue" points="1471.07,-348.08 1481.65,-347.48 1473,-341.35 1471.07,-348.08"/>
</g>
<!-- Node41 -->
<g id="node29" class="node">
<title>Node41</title>
<g id="a_node29"><a xlink:href="console__pages_8hpp.html" target="_top" xlink:title=" ">
<polygon fill="none" stroke="red" points="1390.5,-224.5 1390.5,-243.5 1500.5,-243.5 1500.5,-224.5 1390.5,-224.5"/>
<text text-anchor="middle" x="1445.5" y="-231.5" font-family="Helvetica,sans-Serif" font-size="10.00">console_pages.hpp</text>
</a>
</g>
</g>
<!-- Node8&#45;&gt;Node41 -->
<g id="edge34" class="edge">
<title>Node8&#45;&gt;Node41</title>
<path fill="none" stroke="midnightblue" d="M1470.86,-345.76C1451.18,-339.22 1431.26,-328.52 1419.5,-311 1404.89,-289.23 1425.76,-258.45 1437.88,-243.63"/>
<polygon fill="midnightblue" stroke="midnightblue" points="1469.88,-349.12 1480.47,-348.65 1471.9,-342.42 1469.88,-349.12"/>
</g>
<!-- Node47 -->
<g id="node32" class="node">
<title>Node47</title>
<g id="a_node32"><a xlink:href="data__formatting_8hpp.html" target="_top" xlink:title="This file contains the DataFormatter class, which is used to format data for the data and log files.">
<polygon fill="none" stroke="red" points="1428.5,-286 1428.5,-305 1544.5,-305 1544.5,-286 1428.5,-286"/>
<text text-anchor="middle" x="1486.5" y="-293" font-family="Helvetica,sans-Serif" font-size="10.00">data_formatting.hpp</text>
</a>
</g>
</g>
<!-- Node8&#45;&gt;Node47 -->
<g id="edge38" class="edge">
<title>Node8&#45;&gt;Node47</title>
<path fill="none" stroke="midnightblue" d="M1517.46,-339.34C1509.39,-328.17 1499.09,-313.93 1492.65,-305.01"/>
<polygon fill="midnightblue" stroke="midnightblue" points="1514.64,-341.42 1523.34,-347.48 1520.32,-337.32 1514.64,-341.42"/>
</g>
<!-- Node49 -->
<g id="node33" class="node">
<title>Node49</title>
<g id="a_node33"><a xlink:href="data__log_8hpp.html" target="_top" xlink:title="The data log is responsible for writing data to files and managing the file system.">
<polygon fill="none" stroke="red" points="1518.5,-224.5 1518.5,-243.5 1598.5,-243.5 1598.5,-224.5 1518.5,-224.5"/>
<text text-anchor="middle" x="1558.5" y="-231.5" font-family="Helvetica,sans-Serif" font-size="10.00">data_log.hpp</text>
</a>
</g>
</g>
<!-- Node8&#45;&gt;Node49 -->
<g id="edge40" class="edge">
<title>Node8&#45;&gt;Node49</title>
<path fill="none" stroke="midnightblue" d="M1540.96,-338.69C1545.71,-330.62 1550.74,-320.67 1553.5,-311 1560.25,-287.35 1559.83,-257.95 1559.1,-243.63"/>
<polygon fill="midnightblue" stroke="midnightblue" points="1537.99,-336.84 1535.67,-347.18 1543.93,-340.54 1537.99,-336.84"/>
</g>
<!-- Node54 -->
<g id="node34" class="node">
<title>Node54</title>
<g id="a_node34"><a xlink:href="file__system__manager_8hpp.html" target="_top" xlink:title=" ">
<polygon fill="none" stroke="red" points="1616.5,-224.5 1616.5,-243.5 1758.5,-243.5 1758.5,-224.5 1616.5,-224.5"/>
<text text-anchor="middle" x="1687.5" y="-231.5" font-family="Helvetica,sans-Serif" font-size="10.00">file_system_manager.hpp</text>
</a>
</g>
</g>
<!-- Node8&#45;&gt;Node54 -->
<g id="edge41" class="edge">
<title>Node8&#45;&gt;Node54</title>
<path fill="none" stroke="midnightblue" d="M1548.66,-341.33C1581.94,-315.84 1649.42,-264.16 1676.19,-243.66"/>
<polygon fill="midnightblue" stroke="midnightblue" points="1546.42,-338.63 1540.61,-347.49 1550.68,-344.19 1546.42,-338.63"/>
</g>
<!-- Node55 -->
<g id="node35" class="node">
<title>Node55</title>
<g id="a_node35"><a xlink:href="influxdb_8hpp.html" target="_top" xlink:title=" ">
<polygon fill="none" stroke="red" points="1108,-286 1108,-305 1185,-305 1185,-286 1108,-286"/>
<text text-anchor="middle" x="1146.5" y="-293" font-family="Helvetica,sans-Serif" font-size="10.00">influxdb.hpp</text>
</a>
</g>
</g>
<!-- Node8&#45;&gt;Node55 -->
<g id="edge42" class="edge">
<title>Node8&#45;&gt;Node55</title>
<path fill="none" stroke="midnightblue" d="M1470.25,-350.93C1402.91,-344.5 1289.96,-331.69 1194.5,-311 1187.1,-309.4 1179.18,-307.21 1171.96,-305.02"/>
<polygon fill="midnightblue" stroke="midnightblue" points="1469.97,-354.42 1480.25,-351.87 1470.62,-347.45 1469.97,-354.42"/>
</g>
<!-- Node56 -->
<g id="node36" class="node">
<title>Node56</title>
<g id="a_node36"><a xlink:href="module_8hpp.html" target="_top" xlink:title="The header file for the base module class.">
<polygon fill="none" stroke="red" points="1776.5,-224.5 1776.5,-243.5 1850.5,-243.5 1850.5,-224.5 1776.5,-224.5"/>
<text text-anchor="middle" x="1813.5" y="-231.5" font-family="Helvetica,sans-Serif" font-size="10.00">module.hpp</text>
</a>
</g>
</g>
<!-- Node8&#45;&gt;Node56 -->
<g id="edge44" class="edge">
<title>Node8&#45;&gt;Node56</title>
<path fill="none" stroke="midnightblue" d="M1558.71,-343.26C1577.33,-334.8 1601.77,-323.06 1622.5,-311 1643.49,-298.79 1645.64,-290.59 1667.5,-280 1702.83,-262.89 1746.11,-250.52 1776.33,-243.13"/>
<polygon fill="midnightblue" stroke="midnightblue" points="1557.24,-340.08 1549.55,-347.37 1560.1,-346.47 1557.24,-340.08"/>
</g>
<!-- Node64 -->
<g id="node38" class="node">
<title>Node64</title>
<g id="a_node38"><a xlink:href="request__handler_8hpp.html" target="_top" xlink:title="The request handler class header.">
<polygon fill="none" stroke="black" points="1868.5,-224.5 1868.5,-243.5 1984.5,-243.5 1984.5,-224.5 1868.5,-224.5"/>
<text text-anchor="middle" x="1926.5" y="-231.5" font-family="Helvetica,sans-Serif" font-size="10.00">request_handler.hpp</text>
</a>
</g>
</g>
<!-- Node8&#45;&gt;Node64 -->
<g id="edge49" class="edge">
<title>Node8&#45;&gt;Node64</title>
<path fill="none" stroke="midnightblue" d="M1589.06,-351.91C1635.68,-346.89 1701.15,-335.73 1753.5,-311 1773.21,-301.69 1772.4,-290.51 1791.5,-280 1822.56,-262.91 1861.22,-250.84 1889.2,-243.53"/>
<polygon fill="midnightblue" stroke="midnightblue" points="1588.42,-348.46 1578.83,-352.95 1589.13,-355.42 1588.42,-348.46"/>
</g>
<!-- Node66 -->
<g id="node40" class="node">
<title>Node66</title>
<g id="a_node40"><a xlink:href="logger_8hpp.html" target="_top" xlink:title="A simple logger class so difference classes have access to the same logger.">
<polygon fill="none" stroke="black" points="1676.5,-286 1676.5,-305 1744.5,-305 1744.5,-286 1676.5,-286"/>
<text text-anchor="middle" x="1710.5" y="-293" font-family="Helvetica,sans-Serif" font-size="10.00">logger.hpp</text>
</a>
</g>
</g>
<!-- Node8&#45;&gt;Node66 -->
<g id="edge52" class="edge">
<title>Node8&#45;&gt;Node66</title>
<path fill="none" stroke="midnightblue" d="M1565.3,-344.23C1600.48,-332.67 1653.32,-315.3 1684.62,-305.01"/>
<polygon fill="midnightblue" stroke="midnightblue" points="1563.84,-341.03 1555.43,-347.48 1566.03,-347.68 1563.84,-341.03"/>
</g>
<!-- Node67 -->
<g id="node41" class="node">
<title>Node67</title>
<g id="a_node41"><a xlink:href="to__json_8cpp.html" target="_top" xlink:title=" ">
<polygon fill="none" stroke="black" points="1800.5,-286 1800.5,-305 1872.5,-305 1872.5,-286 1800.5,-286"/>
<text text-anchor="middle" x="1836.5" y="-293" font-family="Helvetica,sans-Serif" font-size="10.00">to_json.cpp</text>
</a>
</g>
</g>
<!-- Node8&#45;&gt;Node67 -->
<g id="edge55" class="edge">
<title>Node8&#45;&gt;Node67</title>
<path fill="none" stroke="midnightblue" d="M1588.72,-347.51C1641.05,-339.56 1719.28,-326.58 1786.5,-311 1793.9,-309.29 1801.82,-307.13 1809.13,-305.02"/>
<polygon fill="midnightblue" stroke="midnightblue" points="1587.98,-344.08 1578.61,-349.03 1589.02,-351 1587.98,-344.08"/>
</g>
<!-- Node68 -->
<g id="node42" class="node">
<title>Node68</title>
<g id="a_node42"><a xlink:href="test__configuration_8cpp.html" target="_top" xlink:title=" ">
<polygon fill="none" stroke="black" points="1891,-286 1891,-305 2016,-305 2016,-286 1891,-286"/>
<text text-anchor="middle" x="1953.5" y="-293" font-family="Helvetica,sans-Serif" font-size="10.00">test_configuration.cpp</text>
</a>
</g>
</g>
<!-- Node8&#45;&gt;Node68 -->
<g id="edge56" class="edge">
<title>Node8&#45;&gt;Node68</title>
<path fill="none" stroke="midnightblue" d="M1588.6,-349.75C1658.69,-342.04 1778.94,-327.86 1881.5,-311 1891.94,-309.28 1903.18,-307.16 1913.61,-305.06"/>
<polygon fill="midnightblue" stroke="midnightblue" points="1588.19,-346.28 1578.63,-350.84 1588.95,-353.23 1588.19,-346.28"/>
</g>
<!-- Node10 -->
<g id="node10" class="node">
<title>Node10</title>
<g id="a_node10"><a xlink:href="cfg__extensions_8hpp.html" target="_top" xlink:title="The header file for the extensions section of the configuration.">
<polygon fill="none" stroke="red" points="1117,-224.5 1117,-243.5 1228,-243.5 1228,-224.5 1117,-224.5"/>
<text text-anchor="middle" x="1172.5" y="-231.5" font-family="Helvetica,sans-Serif" font-size="10.00">cfg_extensions.hpp</text>
</a>
</g>
</g>
<!-- Node9&#45;&gt;Node10 -->
<g id="edge11" class="edge">
<title>Node9&#45;&gt;Node10</title>
<path fill="none" stroke="midnightblue" d="M1230.47,-279.79C1215.7,-268.38 1195.74,-252.96 1183.51,-243.51"/>
<polygon fill="midnightblue" stroke="midnightblue" points="1228.41,-282.63 1238.47,-285.98 1232.69,-277.09 1228.41,-282.63"/>
</g>
<!-- Node10&#45;&gt;Node3 -->
<g id="edge12" class="edge">
<title>Node10&#45;&gt;Node3</title>
<path fill="none" stroke="midnightblue" d="M1112.58,-222.73C1053.05,-212.52 962.84,-197.06 907.18,-187.52"/>
<polygon fill="midnightblue" stroke="midnightblue" points="1112.14,-226.2 1122.59,-224.44 1113.32,-219.3 1112.14,-226.2"/>
</g>
<!-- Node10&#45;&gt;Node11 -->
<g id="edge13" class="edge">
<title>Node10&#45;&gt;Node11</title>
<path fill="none" stroke="midnightblue" d="M1133.33,-221.57C1098.43,-211.38 1048.15,-196.7 1016.68,-187.52"/>
<polygon fill="midnightblue" stroke="midnightblue" points="1132.61,-225 1143.19,-224.44 1134.57,-218.28 1132.61,-225"/>
</g>
<!-- Node12 -->
<g id="node12" class="node">
<title>Node12</title>
<g id="a_node12"><a xlink:href="adc__extension__base_8hpp.html" target="_top" xlink:title="Generic ADC Extension Wrapper.">
<polygon fill="none" stroke="red" points="0,-112.5 0,-131.5 137,-131.5 137,-112.5 0,-112.5"/>
<text text-anchor="middle" x="68.5" y="-119.5" font-family="Helvetica,sans-Serif" font-size="10.00">adc_extension_base.hpp</text>
</a>
</g>
</g>
<!-- Node11&#45;&gt;Node12 -->
<g id="edge14" class="edge">
<title>Node11&#45;&gt;Node12</title>
<path fill="none" stroke="midnightblue" d="M920.3,-167.98C575.97,-137.09 486.34,-159.79 145.5,-132 142.82,-131.78 140.08,-131.54 137.32,-131.29"/>
<polygon fill="midnightblue" stroke="midnightblue" points="920.02,-171.47 930.3,-168.88 920.65,-164.49 920.02,-171.47"/>
</g>
<!-- Node17 -->
<g id="node13" class="node">
<title>Node17</title>
<g id="a_node13"><a xlink:href="bme280_8hpp.html" target="_top" xlink:title="The BME280 sensor extension.">
<polygon fill="none" stroke="red" points="155,-112.5 155,-131.5 232,-131.5 232,-112.5 155,-112.5"/>
<text text-anchor="middle" x="193.5" y="-119.5" font-family="Helvetica,sans-Serif" font-size="10.00">bme280.hpp</text>
</a>
</g>
</g>
<!-- Node11&#45;&gt;Node17 -->
<g id="edge15" class="edge">
<title>Node11&#45;&gt;Node17</title>
<path fill="none" stroke="midnightblue" d="M920.01,-167.94C620.65,-140.25 541.73,-164.83 246.5,-132 241.86,-131.48 237.01,-130.83 232.21,-130.1"/>
<polygon fill="midnightblue" stroke="midnightblue" points="920.01,-171.46 930.3,-168.91 920.67,-164.49 920.01,-171.46"/>
</g>
<!-- Node19 -->
<g id="node14" class="node">
<title>Node19</title>
<g id="a_node14"><a xlink:href="bmi088_8hpp.html" target="_top" xlink:title="Extension for the Bosch BMI088 IMU.">
<polygon fill="none" stroke="red" points="469.5,-56.5 469.5,-75.5 543.5,-75.5 543.5,-56.5 469.5,-56.5"/>
<text text-anchor="middle" x="506.5" y="-63.5" font-family="Helvetica,sans-Serif" font-size="10.00">bmi088.hpp</text>
</a>
</g>
</g>
<!-- Node11&#45;&gt;Node19 -->
<g id="edge16" class="edge">
<title>Node11&#45;&gt;Node19</title>
<path fill="none" stroke="midnightblue" d="M920.27,-168.21C814.28,-162.68 326.86,-182.09 279.5,-132 223.45,-72.72 391.71,-66.33 469.41,-66.42"/>
<polygon fill="midnightblue" stroke="midnightblue" points="920.07,-171.7 930.29,-168.92 920.57,-164.72 920.07,-171.7"/>
</g>
<!-- Node21 -->
<g id="node15" class="node">
<title>Node21</title>
<g id="a_node15"><a xlink:href="ds18b20_8hpp.html" target="_top" xlink:title="DS18B20 extension header file.">
<polygon fill="none" stroke="red" points="289,-112.5 289,-131.5 368,-131.5 368,-112.5 289,-112.5"/>
<text text-anchor="middle" x="328.5" y="-119.5" font-family="Helvetica,sans-Serif" font-size="10.00">ds18b20.hpp</text>
</a>
</g>
</g>
<!-- Node11&#45;&gt;Node21 -->
<g id="edge17" class="edge">
<title>Node11&#45;&gt;Node21</title>
<path fill="none" stroke="midnightblue" d="M920.13,-167.94C678.23,-144.09 614.04,-162.01 376.5,-132 373.81,-131.66 371.04,-131.26 368.25,-130.83"/>
<polygon fill="midnightblue" stroke="midnightblue" points="919.99,-171.44 930.29,-168.95 920.69,-164.47 919.99,-171.44"/>
</g>
<!-- Node23 -->
<g id="node16" class="node">
<title>Node23</title>
<g id="a_node16"><a xlink:href="extension__base_8cpp.html" target="_top" xlink:title="The new implementation of the extension system.">
<polygon fill="none" stroke="black" points="386,-112.5 386,-131.5 499,-131.5 499,-112.5 386,-112.5"/>
<text text-anchor="middle" x="442.5" y="-119.5" font-family="Helvetica,sans-Serif" font-size="10.00">extension_base.cpp</text>
</a>
</g>
</g>
<!-- Node11&#45;&gt;Node23 -->
<g id="edge18" class="edge">
<title>Node11&#45;&gt;Node23</title>
<path fill="none" stroke="midnightblue" d="M920.27,-167.91C736.25,-147.69 687.81,-152.31 507.5,-132 504.78,-131.69 502,-131.37 499.2,-131.02"/>
<polygon fill="midnightblue" stroke="midnightblue" points="919.96,-171.4 930.28,-169.02 920.73,-164.44 919.96,-171.4"/>
</g>
<!-- Node24 -->
<g id="node17" class="node">
<title>Node24</title>
<g id="a_node17"><a xlink:href="i2c__extension__adapter_8hpp.html" target="_top" xlink:title="Adapter for I2C Extensions.">
<polygon fill="none" stroke="red" points="517,-112.5 517,-131.5 664,-131.5 664,-112.5 517,-112.5"/>
<text text-anchor="middle" x="590.5" y="-119.5" font-family="Helvetica,sans-Serif" font-size="10.00">i2c_extension_adapter.hpp</text>
</a>
</g>
</g>
<!-- Node11&#45;&gt;Node24 -->
<g id="edge19" class="edge">
<title>Node11&#45;&gt;Node24</title>
<path fill="none" stroke="midnightblue" d="M920.07,-167.81C820.98,-154.32 717.71,-140.28 653.34,-131.54"/>
<polygon fill="midnightblue" stroke="midnightblue" points="919.88,-171.31 930.26,-169.19 920.83,-164.38 919.88,-171.31"/>
</g>
<!-- Node25 -->
<g id="node18" class="node">
<title>Node25</title>
<g id="a_node18"><a xlink:href="imu__extension__base_8hpp.html" target="_top" xlink:title="Base IMU Extension.">
<polygon fill="none" stroke="black" points="682.5,-112.5 682.5,-131.5 820.5,-131.5 820.5,-112.5 682.5,-112.5"/>
<text text-anchor="middle" x="751.5" y="-119.5" font-family="Helvetica,sans-Serif" font-size="10.00">imu_extension_base.hpp</text>
</a>
</g>
</g>
<!-- Node11&#45;&gt;Node25 -->
<g id="edge20" class="edge">
<title>Node11&#45;&gt;Node25</title>
<path fill="none" stroke="midnightblue" d="M940.09,-166.15C895.5,-155.95 829.65,-140.88 788.72,-131.52"/>
<polygon fill="midnightblue" stroke="midnightblue" points="939.58,-169.62 950.11,-168.44 941.14,-162.8 939.58,-169.62"/>
</g>
<!-- Node26 -->
<g id="node19" class="node">
<title>Node26</title>
<g id="a_node19"><a xlink:href="pi__camera_8hpp.html" target="_top" xlink:title="Raspberry Pi Camera Extension.">
<polygon fill="none" stroke="red" points="839,-112.5 839,-131.5 928,-131.5 928,-112.5 839,-112.5"/>
<text text-anchor="middle" x="883.5" y="-119.5" font-family="Helvetica,sans-Serif" font-size="10.00">pi_camera.hpp</text>
</a>
</g>
</g>
<!-- Node11&#45;&gt;Node26 -->
<g id="edge22" class="edge">
<title>Node11&#45;&gt;Node26</title>
<path fill="none" stroke="midnightblue" d="M961.67,-163.59C942.44,-153.61 916.76,-140.27 900.17,-131.65"/>
<polygon fill="midnightblue" stroke="midnightblue" points="960.3,-166.82 970.79,-168.32 963.53,-160.61 960.3,-166.82"/>
</g>
<!-- Node28 -->
<g id="node20" class="node">
<title>Node28</title>
<g id="a_node20"><a xlink:href="rgb__status__led_8hpp.html" target="_top" xlink:title=" ">
<polygon fill="none" stroke="red" points="946,-112.5 946,-131.5 1055,-131.5 1055,-112.5 946,-112.5"/>
<text text-anchor="middle" x="1000.5" y="-119.5" font-family="Helvetica,sans-Serif" font-size="10.00">rgb_status_led.hpp</text>
</a>
</g>
</g>
<!-- Node11&#45;&gt;Node28 -->
<g id="edge23" class="edge">
<title>Node11&#45;&gt;Node28</title>
<path fill="none" stroke="midnightblue" d="M992.05,-158.1C994.21,-149.14 996.68,-138.86 998.39,-131.75"/>
<polygon fill="midnightblue" stroke="midnightblue" points="988.58,-157.54 989.65,-168.08 995.39,-159.18 988.58,-157.54"/>
</g>
<!-- Node30 -->
<g id="node21" class="node">
<title>Node30</title>
<g id="a_node21"><a xlink:href="samm8q_8hpp.html" target="_top" xlink:title="SAM&#45;M8Q GPS extension (I2C).">
<polygon fill="none" stroke="red" points="1073.5,-112.5 1073.5,-131.5 1153.5,-131.5 1153.5,-112.5 1073.5,-112.5"/>
<text text-anchor="middle" x="1113.5" y="-119.5" font-family="Helvetica,sans-Serif" font-size="10.00">samm8q.hpp</text>
</a>
</g>
</g>
<!-- Node11&#45;&gt;Node30 -->
<g id="edge24" class="edge">
<title>Node11&#45;&gt;Node30</title>
<path fill="none" stroke="midnightblue" d="M1016.66,-164.5C1040.28,-154.38 1072.93,-140.39 1093.63,-131.52"/>
<polygon fill="midnightblue" stroke="midnightblue" points="1015.28,-161.29 1007.47,-168.44 1018.04,-167.72 1015.28,-161.29"/>
</g>
<!-- Node32 -->
<g id="node22" class="node">
<title>Node32</title>
<g id="a_node22"><a xlink:href="extension__module_8hpp.html" target="_top" xlink:title="This is the header file for the new extension module.">
<polygon fill="none" stroke="red" points="1521.5,-112.5 1521.5,-131.5 1649.5,-131.5 1649.5,-112.5 1521.5,-112.5"/>
<text text-anchor="middle" x="1585.5" y="-119.5" font-family="Helvetica,sans-Serif" font-size="10.00">extension_module.hpp</text>
</a>
</g>
</g>
<!-- Node11&#45;&gt;Node32 -->
<g id="edge25" class="edge">
<title>Node11&#45;&gt;Node32</title>
<path fill="none" stroke="midnightblue" d="M1054.93,-172.03C1154.92,-164.47 1348.39,-149.14 1512.5,-132 1515.42,-131.69 1518.41,-131.37 1521.42,-131.04"/>
<polygon fill="midnightblue" stroke="midnightblue" points="1054.37,-168.56 1044.67,-172.8 1054.9,-175.54 1054.37,-168.56"/>
</g>
<!-- Node37 -->
<g id="node27" class="node">
<title>Node37</title>
<g id="a_node27"><a xlink:href="extension__test__framework_8hpp.html" target="_top" xlink:title="Basic helpers for unit testing extensions on the host.">
<polygon fill="none" stroke="red" points="1171.5,-112.5 1171.5,-131.5 1339.5,-131.5 1339.5,-112.5 1171.5,-112.5"/>
<text text-anchor="middle" x="1255.5" y="-119.5" font-family="Helvetica,sans-Serif" font-size="10.00">extension_test_framework.hpp</text>
</a>
</g>
</g>
<!-- Node11&#45;&gt;Node37 -->
<g id="edge30" class="edge">
<title>Node11&#45;&gt;Node37</title>
<path fill="none" stroke="midnightblue" d="M1040.06,-166.41C1090.71,-156.2 1166.37,-140.96 1213.23,-131.52"/>
<polygon fill="midnightblue" stroke="midnightblue" points="1039.08,-163.04 1029.97,-168.44 1040.46,-169.9 1039.08,-163.04"/>
</g>
<!-- Node39 -->
<g id="node28" class="node">
<title>Node39</title>
<g id="a_node28"><a xlink:href="simulated__extensions_8hpp.html" target="_top" xlink:title="This contains the simulated extensions for testing the flight system.">
<polygon fill="none" stroke="black" points="1358,-112.5 1358,-131.5 1503,-131.5 1503,-112.5 1358,-112.5"/>
<text text-anchor="middle" x="1430.5" y="-119.5" font-family="Helvetica,sans-Serif" font-size="10.00">simulated_extensions.hpp</text>
</a>
</g>
</g>
<!-- Node11&#45;&gt;Node39 -->
<g id="edge31" class="edge">
<title>Node11&#45;&gt;Node39</title>
<path fill="none" stroke="midnightblue" d="M1054.53,-168.83C1137.11,-158.76 1276.71,-141.75 1360.58,-131.52"/>
<polygon fill="midnightblue" stroke="midnightblue" points="1054.01,-165.37 1044.51,-170.05 1054.86,-172.32 1054.01,-165.37"/>
</g>
<!-- Node25&#45;&gt;Node19 -->
<g id="edge21" class="edge">
<title>Node25&#45;&gt;Node19</title>
<path fill="none" stroke="midnightblue" d="M702.75,-110.26C655.87,-99.92 586.03,-84.53 543.54,-75.16"/>
<polygon fill="midnightblue" stroke="midnightblue" points="702.16,-113.71 712.68,-112.44 703.67,-106.87 702.16,-113.71"/>
</g>
<!-- Node32&#45;&gt;Node33 -->
<g id="edge26" class="edge">
<title>Node32&#45;&gt;Node33</title>
<path fill="none" stroke="midnightblue" d="M1612.51,-107.86C1633.09,-97.85 1660.84,-84.35 1678.71,-75.65"/>
<polygon fill="midnightblue" stroke="midnightblue" points="1610.8,-104.8 1603.33,-112.32 1613.86,-111.1 1610.8,-104.8"/>
</g>
<!-- Node34 -->
<g id="node24" class="node">
<title>Node34</title>
<g id="a_node24"><a xlink:href="flight__logic_8cpp.html" target="_top" xlink:title="The implementation of the flight logic within the flight runner.">
<polygon fill="none" stroke="black" points="1539.5,-0.5 1539.5,-19.5 1629.5,-19.5 1629.5,-0.5 1539.5,-0.5"/>
<text text-anchor="middle" x="1584.5" y="-7.5" font-family="Helvetica,sans-Serif" font-size="10.00">flight_logic.cpp</text>
</a>
</g>
</g>
<!-- Node33&#45;&gt;Node34 -->
<g id="edge27" class="edge">
<title>Node33&#45;&gt;Node34</title>
<path fill="none" stroke="midnightblue" d="M1669.25,-51.86C1648.48,-41.85 1620.48,-28.35 1602.45,-19.65"/>
<polygon fill="midnightblue" stroke="midnightblue" points="1667.98,-55.13 1678.51,-56.32 1671.02,-48.83 1667.98,-55.13"/>
</g>
<!-- Node35 -->
<g id="node25" class="node">
<title>Node35</title>
<g id="a_node25"><a xlink:href="flight__runner_8cpp.html" target="_top" xlink:title="The implementation of the flight runner, where everything comes together.">
<polygon fill="none" stroke="black" points="1647.5,-0.5 1647.5,-19.5 1745.5,-19.5 1745.5,-0.5 1647.5,-0.5"/>
<text text-anchor="middle" x="1696.5" y="-7.5" font-family="Helvetica,sans-Serif" font-size="10.00">flight_runner.cpp</text>
</a>
</g>
</g>
<!-- Node33&#45;&gt;Node35 -->
<g id="edge28" class="edge">
<title>Node33&#45;&gt;Node35</title>
<path fill="none" stroke="midnightblue" d="M1696.5,-45.8C1696.5,-36.91 1696.5,-26.78 1696.5,-19.75"/>
<polygon fill="midnightblue" stroke="midnightblue" points="1693,-46.08 1696.5,-56.08 1700,-46.08 1693,-46.08"/>
</g>
<!-- Node36 -->
<g id="node26" class="node">
<title>Node36</title>
<g id="a_node26"><a xlink:href="src_2flight__system_2main_8cpp.html" target="_top" xlink:title="Defines the entry point/main function of the Flight Computer software.">
<polygon fill="none" stroke="black" points="1763.5,-0.5 1763.5,-19.5 1825.5,-19.5 1825.5,-0.5 1763.5,-0.5"/>
<text text-anchor="middle" x="1794.5" y="-7.5" font-family="Helvetica,sans-Serif" font-size="10.00">main.cpp</text>
</a>
</g>
</g>
<!-- Node33&#45;&gt;Node36 -->
<g id="edge29" class="edge">
<title>Node33&#45;&gt;Node36</title>
<path fill="none" stroke="midnightblue" d="M1721.09,-51.45C1739.18,-41.48 1763.23,-28.23 1778.79,-19.65"/>
<polygon fill="midnightblue" stroke="midnightblue" points="1719.31,-48.43 1712.25,-56.32 1722.69,-54.56 1719.31,-48.43"/>
</g>
<!-- Node42 -->
<g id="node30" class="node">
<title>Node42</title>
<g id="a_node30"><a xlink:href="console__module_8hpp.html" target="_top" xlink:title=" ">
<polygon fill="none" stroke="red" points="1585,-168.5 1585,-187.5 1702,-187.5 1702,-168.5 1585,-168.5"/>
<text text-anchor="middle" x="1643.5" y="-175.5" font-family="Helvetica,sans-Serif" font-size="10.00">console_module.hpp</text>
</a>
</g>
</g>
<!-- Node41&#45;&gt;Node42 -->
<g id="edge35" class="edge">
<title>Node41&#45;&gt;Node42</title>
<path fill="none" stroke="midnightblue" d="M1486.94,-221.7C1524.31,-211.51 1578.44,-196.74 1612.27,-187.52"/>
<polygon fill="midnightblue" stroke="midnightblue" points="1485.6,-218.44 1476.87,-224.44 1487.44,-225.19 1485.6,-218.44"/>
</g>
<!-- Node44 -->
<g id="node31" class="node">
<title>Node44</title>
<g id="a_node31"><a xlink:href="console__pages_8cpp.html" target="_top" xlink:title=" ">
<polygon fill="none" stroke="black" points="1391,-168.5 1391,-187.5 1500,-187.5 1500,-168.5 1391,-168.5"/>
<text text-anchor="middle" x="1445.5" y="-175.5" font-family="Helvetica,sans-Serif" font-size="10.00">console_pages.cpp</text>
</a>
</g>
</g>
<!-- Node41&#45;&gt;Node44 -->
<g id="edge37" class="edge">
<title>Node41&#45;&gt;Node44</title>
<path fill="none" stroke="midnightblue" d="M1445.5,-213.8C1445.5,-204.91 1445.5,-194.78 1445.5,-187.75"/>
<polygon fill="midnightblue" stroke="midnightblue" points="1442,-214.08 1445.5,-224.08 1449,-214.08 1442,-214.08"/>
</g>
<!-- Node42&#45;&gt;Node33 -->
<g id="edge36" class="edge">
<title>Node42&#45;&gt;Node33</title>
<path fill="none" stroke="midnightblue" d="M1665.72,-162.07C1675.37,-154.31 1685.77,-143.95 1691.5,-132 1700.31,-113.63 1699.2,-88.96 1697.77,-75.93"/>
<polygon fill="midnightblue" stroke="midnightblue" points="1663.46,-159.39 1657.56,-168.19 1667.66,-164.99 1663.46,-159.39"/>
</g>
<!-- Node47&#45;&gt;Node49 -->
<g id="edge39" class="edge">
<title>Node47&#45;&gt;Node49</title>
<path fill="none" stroke="midnightblue" d="M1504.68,-279.47C1518.46,-268.09 1536.88,-252.87 1548.2,-243.51"/>
<polygon fill="midnightblue" stroke="midnightblue" points="1502.29,-276.91 1496.82,-285.98 1506.75,-282.3 1502.29,-276.91"/>
</g>
<!-- Node55&#45;&gt;Node6 -->
<g id="edge43" class="edge">
<title>Node55&#45;&gt;Node6</title>
<path fill="none" stroke="midnightblue" d="M1125.7,-280.11C1109.16,-268.67 1086.58,-253.05 1072.8,-243.51"/>
<polygon fill="midnightblue" stroke="midnightblue" points="1123.96,-283.16 1134.18,-285.98 1127.95,-277.41 1123.96,-283.16"/>
</g>
<!-- Node56&#45;&gt;Node32 -->
<g id="edge46" class="edge">
<title>Node56&#45;&gt;Node32</title>
<path fill="none" stroke="midnightblue" d="M1793.79,-218.55C1773.8,-204.35 1741.59,-182.73 1711.5,-168 1679.79,-152.48 1641.31,-139.52 1615.29,-131.56"/>
<polygon fill="midnightblue" stroke="midnightblue" points="1791.91,-221.5 1802.07,-224.5 1795.99,-215.82 1791.91,-221.5"/>
</g>
<!-- Node56&#45;&gt;Node42 -->
<g id="edge45" class="edge">
<title>Node56&#45;&gt;Node42</title>
<path fill="none" stroke="midnightblue" d="M1776.68,-221.3C1744.65,-211.13 1698.98,-196.62 1670.31,-187.52"/>
<polygon fill="midnightblue" stroke="midnightblue" points="1775.97,-224.75 1786.56,-224.44 1778.09,-218.08 1775.97,-224.75"/>
</g>
<!-- Node58 -->
<g id="node37" class="node">
<title>Node58</title>
<g id="a_node37"><a xlink:href="server__module_8hpp.html" target="_top" xlink:title="Header file for the server module.">
<polygon fill="none" stroke="red" points="1758.5,-168.5 1758.5,-187.5 1868.5,-187.5 1868.5,-168.5 1758.5,-168.5"/>
<text text-anchor="middle" x="1813.5" y="-175.5" font-family="Helvetica,sans-Serif" font-size="10.00">server_module.hpp</text>
</a>
</g>
</g>
<!-- Node56&#45;&gt;Node58 -->
<g id="edge47" class="edge">
<title>Node56&#45;&gt;Node58</title>
<path fill="none" stroke="midnightblue" d="M1813.5,-213.8C1813.5,-204.91 1813.5,-194.78 1813.5,-187.75"/>
<polygon fill="midnightblue" stroke="midnightblue" points="1810,-214.08 1813.5,-224.08 1817,-214.08 1810,-214.08"/>
</g>
<!-- Node58&#45;&gt;Node33 -->
<g id="edge48" class="edge">
<title>Node58&#45;&gt;Node33</title>
<path fill="none" stroke="midnightblue" d="M1797.03,-161.51C1772.03,-138.01 1725.33,-94.11 1705.64,-75.59"/>
<polygon fill="midnightblue" stroke="midnightblue" points="1794.64,-164.07 1804.32,-168.37 1799.43,-158.97 1794.64,-164.07"/>
</g>
<!-- Node64&#45;&gt;Node58 -->
<g id="edge51" class="edge">
<title>Node64&#45;&gt;Node58</title>
<path fill="none" stroke="midnightblue" d="M1899.5,-220.1C1878.39,-210.01 1849.64,-196.27 1831.32,-187.52"/>
<polygon fill="midnightblue" stroke="midnightblue" points="1898.06,-223.29 1908.59,-224.44 1901.08,-216.97 1898.06,-223.29"/>
</g>
<!-- Node65 -->
<g id="node39" class="node">
<title>Node65</title>
<g id="a_node39"><a xlink:href="request__handler_8cpp.html" target="_top" xlink:title="The request handler class implementation.">
<polygon fill="none" stroke="black" points="1887,-168.5 1887,-187.5 2002,-187.5 2002,-168.5 1887,-168.5"/>
<text text-anchor="middle" x="1944.5" y="-175.5" font-family="Helvetica,sans-Serif" font-size="10.00">request_handler.cpp</text>
</a>
</g>
</g>
<!-- Node64&#45;&gt;Node65 -->
<g id="edge50" class="edge">
<title>Node64&#45;&gt;Node65</title>
<path fill="none" stroke="midnightblue" d="M1932.7,-214.4C1935.71,-205.36 1939.19,-194.94 1941.58,-187.75"/>
<polygon fill="midnightblue" stroke="midnightblue" points="1929.31,-213.49 1929.47,-224.08 1935.96,-215.7 1929.31,-213.49"/>
</g>
<!-- Node66&#45;&gt;Node54 -->
<g id="edge53" class="edge">
<title>Node66&#45;&gt;Node54</title>
<path fill="none" stroke="midnightblue" d="M1703.54,-276.5C1699.31,-265.55 1694.1,-252.07 1690.79,-243.51"/>
<polygon fill="midnightblue" stroke="midnightblue" points="1700.33,-277.91 1707.2,-285.98 1706.86,-275.39 1700.33,-277.91"/>
</g>
<!-- Node66&#45;&gt;Node64 -->
<g id="edge54" class="edge">
<title>Node66&#45;&gt;Node64</title>
<path fill="none" stroke="midnightblue" d="M1748.01,-283.05C1751.55,-282 1755.09,-280.97 1758.5,-280 1805.11,-266.72 1859.31,-252.4 1893.26,-243.57"/>
<polygon fill="midnightblue" stroke="midnightblue" points="1746.71,-279.78 1738.12,-285.99 1748.71,-286.49 1746.71,-279.78"/>
</g>
<!-- Node69&#45;&gt;Node64 -->
<g id="edge58" class="edge">
<title>Node69&#45;&gt;Node64</title>
<path fill="none" stroke="midnightblue" d="M2103.34,-396.91C2094.06,-388.65 2082.96,-377.91 2074.5,-367 2047.29,-331.94 2058.2,-310 2025.5,-280 2006.3,-262.39 1979.03,-250.69 1957.97,-243.64"/>
<polygon fill="midnightblue" stroke="midnightblue" points="2101.07,-399.57 2110.92,-403.46 2105.65,-394.28 2101.07,-399.57"/>
</g>
<!-- Node70 -->
<g id="node44" class="node">
<title>Node70</title>
<g id="a_node44"><a xlink:href="protocol_8cpp.html" target="_top" xlink:title="The C++ implementation of the Giraffe Protocol.">
<polygon fill="none" stroke="black" points="2083,-347.5 2083,-366.5 2160,-366.5 2160,-347.5 2083,-347.5"/>
<text text-anchor="middle" x="2121.5" y="-354.5" font-family="Helvetica,sans-Serif" font-size="10.00">protocol.cpp</text>
</a>
</g>
</g>
<!-- Node69&#45;&gt;Node70 -->
<g id="edge59" class="edge">
<title>Node69&#45;&gt;Node70</title>
<path fill="none" stroke="midnightblue" d="M2121.5,-392.8C2121.5,-383.91 2121.5,-373.78 2121.5,-366.75"/>
<polygon fill="midnightblue" stroke="midnightblue" points="2118,-393.08 2121.5,-403.08 2125,-393.08 2118,-393.08"/>
</g>
<!-- Node71 -->
<g id="node45" class="node">
<title>Node71</title>
<g id="a_node45"><a xlink:href="gdl__server_8hpp.html" target="_top" xlink:title="Data Link Server for Giraffe.">
<polygon fill="none" stroke="black" points="2183.5,-347.5 2183.5,-366.5 2271.5,-366.5 2271.5,-347.5 2183.5,-347.5"/>
<text text-anchor="middle" x="2227.5" y="-354.5" font-family="Helvetica,sans-Serif" font-size="10.00">gdl_server.hpp</text>
</a>
</g>
</g>
<!-- Node69&#45;&gt;Node71 -->
<g id="edge60" class="edge">
<title>Node69&#45;&gt;Node71</title>
<path fill="none" stroke="midnightblue" d="M2147.56,-398.73C2167.18,-388.73 2193.53,-375.31 2210.51,-366.65"/>
<polygon fill="midnightblue" stroke="midnightblue" points="2145.85,-395.67 2138.53,-403.32 2149.03,-401.9 2145.85,-395.67"/>
</g>
<!-- Node76 -->
<g id="node50" class="node">
<title>Node76</title>
<g id="a_node50"><a xlink:href="test__protocol_8cpp.html" target="_top" xlink:title=" ">
<polygon fill="none" stroke="black" points="2290,-347.5 2290,-366.5 2391,-366.5 2391,-347.5 2290,-347.5"/>
<text text-anchor="middle" x="2340.5" y="-354.5" font-family="Helvetica,sans-Serif" font-size="10.00">test_protocol.cpp</text>
</a>
</g>
</g>
<!-- Node69&#45;&gt;Node76 -->
<g id="edge65" class="edge">
<title>Node69&#45;&gt;Node76</title>
<path fill="none" stroke="midnightblue" d="M2166.01,-401.02C2207.38,-390.82 2268.14,-375.84 2305.96,-366.52"/>
<polygon fill="midnightblue" stroke="midnightblue" points="2165.07,-397.65 2156.2,-403.44 2166.75,-404.45 2165.07,-397.65"/>
</g>
<!-- Node72 -->
<g id="node46" class="node">
<title>Node72</title>
<g id="a_node46"><a xlink:href="gdl__server_8cpp.html" target="_top" xlink:title="Data Link Server for Giraffe.">
<polygon fill="none" stroke="black" points="2073,-286 2073,-305 2160,-305 2160,-286 2073,-286"/>
<text text-anchor="middle" x="2116.5" y="-293" font-family="Helvetica,sans-Serif" font-size="10.00">gdl_server.cpp</text>
</a>
</g>
</g>
<!-- Node71&#45;&gt;Node72 -->
<g id="edge61" class="edge">
<title>Node71&#45;&gt;Node72</title>
<path fill="none" stroke="midnightblue" d="M2202.71,-342.71C2181.21,-331.19 2150.74,-314.86 2132.37,-305.01"/>
<polygon fill="midnightblue" stroke="midnightblue" points="2201.13,-345.84 2211.6,-347.48 2204.44,-339.67 2201.13,-345.84"/>
</g>
<!-- Node73 -->
<g id="node47" class="node">
<title>Node73</title>
<g id="a_node47"><a xlink:href="gdl__server__request__handlers_8cpp.html" target="_top" xlink:title="Handlers for REQ requests (see gdl_server.hpp)">
<polygon fill="none" stroke="black" points="2178.5,-280.5 2178.5,-310.5 2288.5,-310.5 2288.5,-280.5 2178.5,-280.5"/>
<text text-anchor="start" x="2186.5" y="-298.5" font-family="Helvetica,sans-Serif" font-size="10.00">gdl_server_request</text>
<text text-anchor="middle" x="2233.5" y="-287.5" font-family="Helvetica,sans-Serif" font-size="10.00">_handlers.cpp</text>
</a>
</g>
</g>
<!-- Node71&#45;&gt;Node73 -->
<g id="edge62" class="edge">
<title>Node71&#45;&gt;Node73</title>
<path fill="none" stroke="midnightblue" d="M2229.39,-337.23C2230.26,-328.59 2231.28,-318.5 2232.09,-310.52"/>
<polygon fill="midnightblue" stroke="midnightblue" points="2225.88,-337.17 2228.36,-347.48 2232.85,-337.88 2225.88,-337.17"/>
</g>
<!-- Node74 -->
<g id="node48" class="node">
<title>Node74</title>
<g id="a_node48"><a xlink:href="gdl__server__set__handlers_8cpp.html" target="_top" xlink:title="Handlers for SET requests (see gdl_server.hpp)">
<polygon fill="none" stroke="black" points="2307,-286 2307,-305 2462,-305 2462,-286 2307,-286"/>
<text text-anchor="middle" x="2384.5" y="-293" font-family="Helvetica,sans-Serif" font-size="10.00">gdl_server_set_handlers.cpp</text>
</a>
</g>
</g>
<!-- Node71&#45;&gt;Node74 -->
<g id="edge63" class="edge">
<title>Node71&#45;&gt;Node74</title>
<path fill="none" stroke="midnightblue" d="M2259.74,-343.78C2290.25,-332.22 2335.25,-315.16 2362.05,-305.01"/>
<polygon fill="midnightblue" stroke="midnightblue" points="2258.1,-340.66 2249.99,-347.48 2260.59,-347.2 2258.1,-340.66"/>
</g>
<!-- Node75 -->
<g id="node49" class="node">
<title>Node75</title>
<g id="a_node49"><a xlink:href="src_2data__link_2server_2main_8cpp.html" target="_top" xlink:title="Giraffe Data Link Server Main File.">
<polygon fill="none" stroke="black" points="2480.5,-286 2480.5,-305 2542.5,-305 2542.5,-286 2480.5,-286"/>
<text text-anchor="middle" x="2511.5" y="-293" font-family="Helvetica,sans-Serif" font-size="10.00">main.cpp</text>
</a>
</g>
</g>
<!-- Node71&#45;&gt;Node75 -->
<g id="edge64" class="edge">
<title>Node71&#45;&gt;Node75</title>
<path fill="none" stroke="midnightblue" d="M2281.47,-346.53C2347.69,-334.84 2453.46,-315.9 2471.5,-311 2477.49,-309.37 2483.85,-307.25 2489.7,-305.14"/>
<polygon fill="midnightblue" stroke="midnightblue" points="2280.84,-343.09 2271.6,-348.27 2282.06,-349.99 2280.84,-343.09"/>
</g>
</g>
</svg>
