<?xml version="1.0" encoding="UTF-8" standalone="no"?>
<!DOCTYPE svg PUBLIC "-//W3C//DTD SVG 1.1//EN"
 "http://www.w3.org/Graphics/SVG/1.1/DTD/svg11.dtd">
<!-- Generated by graphviz version 2.43.0 (0)
 -->
<!-- Title: json.hpp Pages: 1 -->
<svg width="1962pt" height="476pt"
 viewBox="0.00 0.00 1962.00 476.00" xmlns="http://www.w3.org/2000/svg" xmlns:xlink="http://www.w3.org/1999/xlink">
<g id="graph0" class="graph" transform="scale(1 1) rotate(0) translate(4 472)">
<title>json.hpp</title>
<!-- Node1 -->
<g id="node1" class="node">
<title>Node1</title>
<g id="a_node1"><a xlink:title="Simple wrapper around nlohmann/json.hpp to provide a common interface.">
<polygon fill="#bfbfbf" stroke="black" points="615,-448.5 615,-467.5 673,-467.5 673,-448.5 615,-448.5"/>
<text text-anchor="middle" x="644" y="-455.5" font-family="Helvetica,sans-Serif" font-size="10.00">json.hpp</text>
</a>
</g>
</g>
<!-- Node2 -->
<g id="node2" class="node">
<title>Node2</title>
<g id="a_node2"><a xlink:href="validation_8hpp.html" target="_top" xlink:title=" ">
<polygon fill="none" stroke="black" points="1103,-336.5 1103,-355.5 1189,-355.5 1189,-336.5 1103,-336.5"/>
<text text-anchor="middle" x="1146" y="-343.5" font-family="Helvetica,sans-Serif" font-size="10.00">validation.hpp</text>
</a>
</g>
</g>
<!-- Node1&#45;&gt;Node2 -->
<g id="edge1" class="edge">
<title>Node1&#45;&gt;Node2</title>
<path fill="none" stroke="midnightblue" d="M683.08,-448.44C776.79,-427.9 1013.45,-376.05 1107.04,-355.54"/>
<polygon fill="midnightblue" stroke="midnightblue" points="682.18,-445.05 673.16,-450.61 683.68,-451.89 682.18,-445.05"/>
</g>
<!-- Node4 -->
<g id="node4" class="node">
<title>Node4</title>
<g id="a_node4"><a xlink:href="blocks_8hpp.html" target="_top" xlink:title=" ">
<polygon fill="none" stroke="black" points="555.5,-392.5 555.5,-411.5 624.5,-411.5 624.5,-392.5 555.5,-392.5"/>
<text text-anchor="middle" x="590" y="-399.5" font-family="Helvetica,sans-Serif" font-size="10.00">blocks.hpp</text>
</a>
</g>
</g>
<!-- Node1&#45;&gt;Node4 -->
<g id="edge3" class="edge">
<title>Node1&#45;&gt;Node4</title>
<path fill="none" stroke="midnightblue" d="M628,-441C618.43,-431.43 606.64,-419.64 598.75,-411.75"/>
<polygon fill="midnightblue" stroke="midnightblue" points="625.54,-443.49 635.08,-448.08 630.49,-438.54 625.54,-443.49"/>
</g>
<!-- Node52 -->
<g id="node48" class="node">
<title>Node52</title>
<g id="a_node48"><a xlink:href="to__json_8hpp.html" target="_top" xlink:title="Utility functions for converting data to JSON.">
<polygon fill="none" stroke="black" points="292.5,-392.5 292.5,-411.5 365.5,-411.5 365.5,-392.5 292.5,-392.5"/>
<text text-anchor="middle" x="329" y="-399.5" font-family="Helvetica,sans-Serif" font-size="10.00">to_json.hpp</text>
</a>
</g>
</g>
<!-- Node1&#45;&gt;Node52 -->
<g id="edge66" class="edge">
<title>Node1&#45;&gt;Node52</title>
<path fill="none" stroke="midnightblue" d="M604.87,-450.29C543.51,-439.77 425.49,-419.54 365.67,-409.29"/>
<polygon fill="midnightblue" stroke="midnightblue" points="604.48,-453.78 614.93,-452.02 605.67,-446.88 604.48,-453.78"/>
</g>
<!-- Node53 -->
<g id="node49" class="node">
<title>Node53</title>
<g id="a_node49"><a xlink:href="protocol_8hpp.html" target="_top" xlink:title="Declares the protocol namespace and its associated types.">
<polygon fill="none" stroke="black" points="742.5,-392.5 742.5,-411.5 819.5,-411.5 819.5,-392.5 742.5,-392.5"/>
<text text-anchor="middle" x="781" y="-399.5" font-family="Helvetica,sans-Serif" font-size="10.00">protocol.hpp</text>
</a>
</g>
</g>
<!-- Node1&#45;&gt;Node53 -->
<g id="edge68" class="edge">
<title>Node1&#45;&gt;Node53</title>
<path fill="none" stroke="midnightblue" d="M675.02,-444.77C700.76,-434.63 736.69,-420.47 759.39,-411.52"/>
<polygon fill="midnightblue" stroke="midnightblue" points="673.73,-441.52 665.71,-448.44 676.29,-448.03 673.73,-441.52"/>
</g>
<!-- Node3 -->
<g id="node3" class="node">
<title>Node3</title>
<g id="a_node3"><a xlink:href="cfg__extensions_8cpp.html" target="_top" xlink:title="Implements the extensions section of the configuration.">
<polygon fill="none" stroke="black" points="1359,-168.5 1359,-187.5 1469,-187.5 1469,-168.5 1359,-168.5"/>
<text text-anchor="middle" x="1414" y="-175.5" font-family="Helvetica,sans-Serif" font-size="10.00">cfg_extensions.cpp</text>
</a>
</g>
</g>
<!-- Node2&#45;&gt;Node3 -->
<g id="edge2" class="edge">
<title>Node2&#45;&gt;Node3</title>
<path fill="none" stroke="midnightblue" d="M1197.54,-333.89C1224.49,-326.7 1257.34,-315.71 1284,-300 1338.46,-267.92 1389.06,-209.63 1407.06,-187.67"/>
<polygon fill="midnightblue" stroke="midnightblue" points="1196.34,-330.58 1187.52,-336.46 1198.08,-337.36 1196.34,-330.58"/>
</g>
<!-- Node4&#45;&gt;Node4 -->
<g id="edge5" class="edge">
<title>Node4&#45;&gt;Node4</title>
<path fill="none" stroke="midnightblue" d="M622.51,-412.5C633.59,-412.56 642.5,-409.06 642.5,-402 642.5,-392.87 627.61,-389.69 612.39,-392.47"/>
<polygon fill="midnightblue" stroke="midnightblue" points="622.68,-409 612.39,-411.53 622.01,-415.97 622.68,-409"/>
</g>
<!-- Node5 -->
<g id="node5" class="node">
<title>Node5</title>
<g id="a_node5"><a xlink:href="influxdb_8cpp.html" target="_top" xlink:title=" ">
<polygon fill="none" stroke="black" points="82,-224.5 82,-243.5 158,-243.5 158,-224.5 82,-224.5"/>
<text text-anchor="middle" x="120" y="-231.5" font-family="Helvetica,sans-Serif" font-size="10.00">influxdb.cpp</text>
</a>
</g>
</g>
<!-- Node4&#45;&gt;Node5 -->
<g id="edge4" class="edge">
<title>Node4&#45;&gt;Node5</title>
<path fill="none" stroke="midnightblue" d="M545.41,-393.46C474.33,-380.43 331.92,-350.17 220,-300 185.04,-284.33 148.39,-257.36 130.74,-243.61"/>
<polygon fill="midnightblue" stroke="midnightblue" points="544.91,-396.93 555.37,-395.26 546.15,-390.04 544.91,-396.93"/>
</g>
<!-- Node6 -->
<g id="node6" class="node">
<title>Node6</title>
<g id="a_node6"><a xlink:href="shared__data_8hpp.html" target="_top" xlink:title="Contains the SharedData struct, used across all modules and extensions.">
<polygon fill="none" stroke="black" points="541,-336.5 541,-355.5 639,-355.5 639,-336.5 541,-336.5"/>
<text text-anchor="middle" x="590" y="-343.5" font-family="Helvetica,sans-Serif" font-size="10.00">shared_data.hpp</text>
</a>
</g>
</g>
<!-- Node4&#45;&gt;Node6 -->
<g id="edge6" class="edge">
<title>Node4&#45;&gt;Node6</title>
<path fill="none" stroke="midnightblue" d="M590,-381.8C590,-372.91 590,-362.78 590,-355.75"/>
<polygon fill="midnightblue" stroke="midnightblue" points="586.5,-382.08 590,-392.08 593.5,-382.08 586.5,-382.08"/>
</g>
<!-- Node7 -->
<g id="node7" class="node">
<title>Node7</title>
<g id="a_node7"><a xlink:href="cfg__section_8hpp.html" target="_top" xlink:title="This file contains the base class for all configuration sections.">
<polygon fill="none" stroke="black" points="676.5,-280.5 676.5,-299.5 769.5,-299.5 769.5,-280.5 676.5,-280.5"/>
<text text-anchor="middle" x="723" y="-287.5" font-family="Helvetica,sans-Serif" font-size="10.00">cfg_section.hpp</text>
</a>
</g>
</g>
<!-- Node6&#45;&gt;Node7 -->
<g id="edge7" class="edge">
<title>Node6&#45;&gt;Node7</title>
<path fill="none" stroke="midnightblue" d="M620.45,-332.64C645.41,-322.5 680.08,-308.43 702.02,-299.52"/>
<polygon fill="midnightblue" stroke="midnightblue" points="619.02,-329.44 611.07,-336.44 621.66,-335.92 619.02,-329.44"/>
</g>
<!-- Node9 -->
<g id="node9" class="node">
<title>Node9</title>
<g id="a_node9"><a xlink:href="extension__base_8hpp.html" target="_top" xlink:title="The new implementation of the extension system.">
<polygon fill="none" stroke="black" points="1227,-168.5 1227,-187.5 1341,-187.5 1341,-168.5 1227,-168.5"/>
<text text-anchor="middle" x="1284" y="-175.5" font-family="Helvetica,sans-Serif" font-size="10.00">extension_base.hpp</text>
</a>
</g>
</g>
<!-- Node6&#45;&gt;Node9 -->
<g id="edge30" class="edge">
<title>Node6&#45;&gt;Node9</title>
<path fill="none" stroke="midnightblue" d="M649.55,-343.49C759.31,-338.85 999.16,-320.08 1184,-244 1219.62,-229.34 1256.27,-201.67 1273.65,-187.63"/>
<polygon fill="midnightblue" stroke="midnightblue" points="649.2,-340 639.35,-343.89 649.48,-346.99 649.2,-340"/>
</g>
<!-- Node24 -->
<g id="node23" class="node">
<title>Node24</title>
<g id="a_node23"><a xlink:href="flight__runner_8hpp.html" target="_top" xlink:title=" ">
<polygon fill="none" stroke="black" points="528,-56.5 528,-75.5 626,-75.5 626,-56.5 528,-56.5"/>
<text text-anchor="middle" x="577" y="-63.5" font-family="Helvetica,sans-Serif" font-size="10.00">flight_runner.hpp</text>
</a>
</g>
</g>
<!-- Node6&#45;&gt;Node24 -->
<g id="edge31" class="edge">
<title>Node6&#45;&gt;Node24</title>
<path fill="none" stroke="midnightblue" d="M589.02,-326.19C587.11,-301.56 581.48,-257.58 565,-224 550.56,-194.57 544.12,-186.41 517,-168 473.24,-138.3 379.9,-154.03 412,-112 426.1,-93.54 484.63,-80.83 527.99,-73.74"/>
<polygon fill="midnightblue" stroke="midnightblue" points="585.54,-326.56 589.68,-336.31 592.52,-326.11 585.54,-326.56"/>
</g>
<!-- Node28 -->
<g id="node27" class="node">
<title>Node28</title>
<g id="a_node27"><a xlink:href="console__pages_8hpp.html" target="_top" xlink:title=" ">
<polygon fill="none" stroke="black" points="176,-224.5 176,-243.5 286,-243.5 286,-224.5 176,-224.5"/>
<text text-anchor="middle" x="231" y="-231.5" font-family="Helvetica,sans-Serif" font-size="10.00">console_pages.hpp</text>
</a>
</g>
</g>
<!-- Node6&#45;&gt;Node28 -->
<g id="edge32" class="edge">
<title>Node6&#45;&gt;Node28</title>
<path fill="none" stroke="midnightblue" d="M530.53,-341.73C433.91,-335.8 251.56,-321.83 232,-300 218.14,-284.53 223.69,-257.72 227.9,-243.86"/>
<polygon fill="midnightblue" stroke="midnightblue" points="530.55,-345.23 540.74,-342.34 530.97,-338.25 530.55,-345.23"/>
</g>
<!-- Node34 -->
<g id="node33" class="node">
<title>Node34</title>
<g id="a_node33"><a xlink:href="data__formatting_8hpp.html" target="_top" xlink:title="This file contains the DataFormatter class, which is used to format data for the data and log files.">
<polygon fill="none" stroke="black" points="337,-280.5 337,-299.5 453,-299.5 453,-280.5 337,-280.5"/>
<text text-anchor="middle" x="395" y="-287.5" font-family="Helvetica,sans-Serif" font-size="10.00">data_formatting.hpp</text>
</a>
</g>
</g>
<!-- Node6&#45;&gt;Node34 -->
<g id="edge40" class="edge">
<title>Node6&#45;&gt;Node34</title>
<path fill="none" stroke="midnightblue" d="M549.19,-333.7C512.39,-323.51 459.07,-308.74 425.75,-299.52"/>
<polygon fill="midnightblue" stroke="midnightblue" points="548.53,-337.15 559.1,-336.44 550.4,-330.4 548.53,-337.15"/>
</g>
<!-- Node36 -->
<g id="node35" class="node">
<title>Node36</title>
<g id="a_node35"><a xlink:href="data__log_8hpp.html" target="_top" xlink:title="The data log is responsible for writing data to files and managing the file system.">
<polygon fill="none" stroke="black" points="476,-224.5 476,-243.5 556,-243.5 556,-224.5 476,-224.5"/>
<text text-anchor="middle" x="516" y="-231.5" font-family="Helvetica,sans-Serif" font-size="10.00">data_log.hpp</text>
</a>
</g>
</g>
<!-- Node6&#45;&gt;Node36 -->
<g id="edge46" class="edge">
<title>Node6&#45;&gt;Node36</title>
<path fill="none" stroke="midnightblue" d="M580.58,-327.31C573.27,-314 562.62,-295.45 552,-280 542.94,-266.81 531.14,-252.53 523.57,-243.67"/>
<polygon fill="midnightblue" stroke="midnightblue" points="577.63,-329.21 585.46,-336.34 583.78,-325.88 577.63,-329.21"/>
</g>
<!-- Node40 -->
<g id="node38" class="node">
<title>Node40</title>
<g id="a_node38"><a xlink:href="influxdb_8hpp.html" target="_top" xlink:title=" ">
<polygon fill="none" stroke="black" points="241.5,-280.5 241.5,-299.5 318.5,-299.5 318.5,-280.5 241.5,-280.5"/>
<text text-anchor="middle" x="280" y="-287.5" font-family="Helvetica,sans-Serif" font-size="10.00">influxdb.hpp</text>
</a>
</g>
</g>
<!-- Node6&#45;&gt;Node40 -->
<g id="edge47" class="edge">
<title>Node6&#45;&gt;Node40</title>
<path fill="none" stroke="midnightblue" d="M530.78,-335.09C477.65,-326.14 397.56,-312.49 328,-300 324.91,-299.45 321.71,-298.86 318.5,-298.27"/>
<polygon fill="midnightblue" stroke="midnightblue" points="530.26,-338.56 540.71,-336.76 531.43,-331.65 530.26,-338.56"/>
</g>
<!-- Node41 -->
<g id="node39" class="node">
<title>Node41</title>
<g id="a_node39"><a xlink:href="to__json_8cpp.html" target="_top" xlink:title=" ">
<polygon fill="none" stroke="black" points="471,-280.5 471,-299.5 543,-299.5 543,-280.5 471,-280.5"/>
<text text-anchor="middle" x="507" y="-287.5" font-family="Helvetica,sans-Serif" font-size="10.00">to_json.cpp</text>
</a>
</g>
</g>
<!-- Node6&#45;&gt;Node41 -->
<g id="edge50" class="edge">
<title>Node6&#45;&gt;Node41</title>
<path fill="none" stroke="midnightblue" d="M567.9,-330.62C552.74,-320.76 533.12,-307.99 520.3,-299.65"/>
<polygon fill="midnightblue" stroke="midnightblue" points="566.37,-333.8 576.66,-336.32 570.19,-327.94 566.37,-333.8"/>
</g>
<!-- Node42 -->
<g id="node40" class="node">
<title>Node42</title>
<g id="a_node40"><a xlink:href="module_8hpp.html" target="_top" xlink:title="The header file for the base module class.">
<polygon fill="none" stroke="black" points="603,-168.5 603,-187.5 677,-187.5 677,-168.5 603,-168.5"/>
<text text-anchor="middle" x="640" y="-175.5" font-family="Helvetica,sans-Serif" font-size="10.00">module.hpp</text>
</a>
</g>
</g>
<!-- Node6&#45;&gt;Node42 -->
<g id="edge51" class="edge">
<title>Node6&#45;&gt;Node42</title>
<path fill="none" stroke="midnightblue" d="M605.01,-328.69C611.59,-320.63 618.77,-310.41 623,-300 639.14,-260.3 640.39,-207.92 640.2,-187.58"/>
<polygon fill="midnightblue" stroke="midnightblue" points="602.16,-326.64 598.27,-336.5 607.45,-331.22 602.16,-326.64"/>
</g>
<!-- Node50 -->
<g id="node46" class="node">
<title>Node50</title>
<g id="a_node46"><a xlink:href="request__handler_8hpp.html" target="_top" xlink:title=" ">
<polygon fill="none" stroke="black" points="789,-280.5 789,-299.5 905,-299.5 905,-280.5 789,-280.5"/>
<text text-anchor="middle" x="847" y="-287.5" font-family="Helvetica,sans-Serif" font-size="10.00">request_handler.hpp</text>
</a>
</g>
</g>
<!-- Node6&#45;&gt;Node50 -->
<g id="edge63" class="edge">
<title>Node6&#45;&gt;Node50</title>
<path fill="none" stroke="midnightblue" d="M640.71,-334.35C689.28,-324.14 761.62,-308.94 806.47,-299.52"/>
<polygon fill="midnightblue" stroke="midnightblue" points="639.79,-330.96 630.72,-336.44 641.23,-337.81 639.79,-330.96"/>
</g>
<!-- Node8 -->
<g id="node8" class="node">
<title>Node8</title>
<g id="a_node8"><a xlink:href="cfg__extensions_8hpp.html" target="_top" xlink:title="The header file for the extensions section of the configuration.">
<polygon fill="none" stroke="black" points="930.5,-224.5 930.5,-243.5 1041.5,-243.5 1041.5,-224.5 930.5,-224.5"/>
<text text-anchor="middle" x="986" y="-231.5" font-family="Helvetica,sans-Serif" font-size="10.00">cfg_extensions.hpp</text>
</a>
</g>
</g>
<!-- Node7&#45;&gt;Node8 -->
<g id="edge8" class="edge">
<title>Node7&#45;&gt;Node8</title>
<path fill="none" stroke="midnightblue" d="M774.58,-278.41C824.28,-268.2 898.53,-252.96 944.52,-243.52"/>
<polygon fill="midnightblue" stroke="midnightblue" points="773.76,-275 764.67,-280.44 775.17,-281.86 773.76,-275"/>
</g>
<!-- Node8&#45;&gt;Node3 -->
<g id="edge9" class="edge">
<title>Node8&#45;&gt;Node3</title>
<path fill="none" stroke="midnightblue" d="M1051.88,-223.91C1185.44,-206.74 1220.52,-204.9 1350,-188 1352.89,-187.62 1355.86,-187.23 1358.85,-186.83"/>
<polygon fill="midnightblue" stroke="midnightblue" points="1051.13,-220.48 1041.66,-225.23 1052.03,-227.42 1051.13,-220.48"/>
</g>
<!-- Node8&#45;&gt;Node9 -->
<g id="edge10" class="edge">
<title>Node8&#45;&gt;Node9</title>
<path fill="none" stroke="midnightblue" d="M1043.39,-222.6C1099.71,-212.4 1184.56,-197.02 1237,-187.52"/>
<polygon fill="midnightblue" stroke="midnightblue" points="1042.43,-219.22 1033.22,-224.44 1043.68,-226.1 1042.43,-219.22"/>
</g>
<!-- Node27 -->
<g id="node26" class="node">
<title>Node27</title>
<g id="a_node26"><a xlink:href="preconfigured__extensions_8hpp.html" target="_top" xlink:title="This file contains preconfigured extension metadata.">
<polygon fill="none" stroke="black" points="904.5,-168.5 904.5,-187.5 1067.5,-187.5 1067.5,-168.5 904.5,-168.5"/>
<text text-anchor="middle" x="986" y="-175.5" font-family="Helvetica,sans-Serif" font-size="10.00">preconfigured_extensions.hpp</text>
</a>
</g>
</g>
<!-- Node8&#45;&gt;Node27 -->
<g id="edge29" class="edge">
<title>Node8&#45;&gt;Node27</title>
<path fill="none" stroke="midnightblue" d="M986,-213.8C986,-204.91 986,-194.78 986,-187.75"/>
<polygon fill="midnightblue" stroke="midnightblue" points="982.5,-214.08 986,-224.08 989.5,-214.08 982.5,-214.08"/>
</g>
<!-- Node10 -->
<g id="node10" class="node">
<title>Node10</title>
<g id="a_node10"><a xlink:href="adc__extension__base_8hpp.html" target="_top" xlink:title="Generic ADC Extension Wrapper.">
<polygon fill="none" stroke="black" points="1230.5,-112.5 1230.5,-131.5 1367.5,-131.5 1367.5,-112.5 1230.5,-112.5"/>
<text text-anchor="middle" x="1299" y="-119.5" font-family="Helvetica,sans-Serif" font-size="10.00">adc_extension_base.hpp</text>
</a>
</g>
</g>
<!-- Node9&#45;&gt;Node10 -->
<g id="edge11" class="edge">
<title>Node9&#45;&gt;Node10</title>
<path fill="none" stroke="midnightblue" d="M1289.17,-158.4C1291.68,-149.36 1294.57,-138.94 1296.57,-131.75"/>
<polygon fill="midnightblue" stroke="midnightblue" points="1285.78,-157.51 1286.48,-168.08 1292.53,-159.38 1285.78,-157.51"/>
</g>
<!-- Node13 -->
<g id="node12" class="node">
<title>Node13</title>
<g id="a_node12"><a xlink:href="bme280_8hpp.html" target="_top" xlink:title="The BME280 sensor extension.">
<polygon fill="none" stroke="black" points="1550.5,-112.5 1550.5,-131.5 1627.5,-131.5 1627.5,-112.5 1550.5,-112.5"/>
<text text-anchor="middle" x="1589" y="-119.5" font-family="Helvetica,sans-Serif" font-size="10.00">bme280.hpp</text>
</a>
</g>
</g>
<!-- Node9&#45;&gt;Node13 -->
<g id="edge13" class="edge">
<title>Node9&#45;&gt;Node13</title>
<path fill="none" stroke="midnightblue" d="M1344.59,-166.72C1396.9,-157.78 1474.49,-144.35 1542,-132 1544.7,-131.51 1547.48,-130.99 1550.28,-130.47"/>
<polygon fill="midnightblue" stroke="midnightblue" points="1343.74,-163.32 1334.47,-168.45 1344.92,-170.22 1343.74,-163.32"/>
</g>
<!-- Node15 -->
<g id="node14" class="node">
<title>Node15</title>
<g id="a_node14"><a xlink:href="ds18b20_8hpp.html" target="_top" xlink:title="DS18B20 extension header file.">
<polygon fill="none" stroke="black" points="1645.5,-112.5 1645.5,-131.5 1724.5,-131.5 1724.5,-112.5 1645.5,-112.5"/>
<text text-anchor="middle" x="1685" y="-119.5" font-family="Helvetica,sans-Serif" font-size="10.00">ds18b20.hpp</text>
</a>
</g>
</g>
<!-- Node9&#45;&gt;Node15 -->
<g id="edge15" class="edge">
<title>Node9&#45;&gt;Node15</title>
<path fill="none" stroke="midnightblue" d="M1351.41,-167.83C1479.18,-151.33 1513.21,-151.35 1637,-132 1639.76,-131.57 1642.61,-131.1 1645.48,-130.61"/>
<polygon fill="midnightblue" stroke="midnightblue" points="1350.7,-164.4 1341.23,-169.16 1351.6,-171.34 1350.7,-164.4"/>
</g>
<!-- Node17 -->
<g id="node16" class="node">
<title>Node17</title>
<g id="a_node16"><a xlink:href="extension__base_8cpp.html" target="_top" xlink:title="The new implementation of the extension system.">
<polygon fill="none" stroke="black" points="1742.5,-112.5 1742.5,-131.5 1855.5,-131.5 1855.5,-112.5 1742.5,-112.5"/>
<text text-anchor="middle" x="1799" y="-119.5" font-family="Helvetica,sans-Serif" font-size="10.00">extension_base.cpp</text>
</a>
</g>
</g>
<!-- Node9&#45;&gt;Node17 -->
<g id="edge17" class="edge">
<title>Node9&#45;&gt;Node17</title>
<path fill="none" stroke="midnightblue" d="M1351.3,-167.89C1521.99,-148.53 1566.97,-151.38 1734,-132 1736.72,-131.68 1739.49,-131.35 1742.3,-131"/>
<polygon fill="midnightblue" stroke="midnightblue" points="1350.76,-164.43 1341.22,-169.05 1351.55,-171.39 1350.76,-164.43"/>
</g>
<!-- Node18 -->
<g id="node17" class="node">
<title>Node18</title>
<g id="a_node17"><a xlink:href="i2c__extension__adapter_8hpp.html" target="_top" xlink:title="Adapter for I2C Extensions.">
<polygon fill="none" stroke="black" points="1385.5,-112.5 1385.5,-131.5 1532.5,-131.5 1532.5,-112.5 1385.5,-112.5"/>
<text text-anchor="middle" x="1459" y="-119.5" font-family="Helvetica,sans-Serif" font-size="10.00">i2c_extension_adapter.hpp</text>
</a>
</g>
</g>
<!-- Node9&#45;&gt;Node18 -->
<g id="edge18" class="edge">
<title>Node9&#45;&gt;Node18</title>
<path fill="none" stroke="midnightblue" d="M1321.47,-165.44C1354.47,-155.26 1401.76,-140.66 1431.4,-131.52"/>
<polygon fill="midnightblue" stroke="midnightblue" points="1320.25,-162.15 1311.73,-168.44 1322.32,-168.84 1320.25,-162.15"/>
</g>
<!-- Node19 -->
<g id="node18" class="node">
<title>Node19</title>
<g id="a_node18"><a xlink:href="samm8q_8hpp.html" target="_top" xlink:title="SAM&#45;M8Q GPS extension (I2C).">
<polygon fill="none" stroke="black" points="1874,-112.5 1874,-131.5 1954,-131.5 1954,-112.5 1874,-112.5"/>
<text text-anchor="middle" x="1914" y="-119.5" font-family="Helvetica,sans-Serif" font-size="10.00">samm8q.hpp</text>
</a>
</g>
</g>
<!-- Node9&#45;&gt;Node19 -->
<g id="edge20" class="edge">
<title>Node9&#45;&gt;Node19</title>
<path fill="none" stroke="midnightblue" d="M1351.17,-167.95C1579.95,-144.94 1640.59,-160.36 1865,-132 1867.92,-131.63 1870.92,-131.2 1873.95,-130.73"/>
<polygon fill="midnightblue" stroke="midnightblue" points="1350.8,-164.47 1341.21,-168.96 1351.51,-171.43 1350.8,-164.47"/>
</g>
<!-- Node21 -->
<g id="node20" class="node">
<title>Node21</title>
<g id="a_node20"><a xlink:href="simulated__extensions_8hpp.html" target="_top" xlink:title="This contains the simulated extensions for testing the flight system.">
<polygon fill="none" stroke="black" points="1067.5,-112.5 1067.5,-131.5 1212.5,-131.5 1212.5,-112.5 1067.5,-112.5"/>
<text text-anchor="middle" x="1140" y="-119.5" font-family="Helvetica,sans-Serif" font-size="10.00">simulated_extensions.hpp</text>
</a>
</g>
</g>
<!-- Node9&#45;&gt;Node21 -->
<g id="edge22" class="edge">
<title>Node9&#45;&gt;Node21</title>
<path fill="none" stroke="midnightblue" d="M1251.75,-164.91C1224.68,-154.75 1186.68,-140.51 1162.71,-131.52"/>
<polygon fill="midnightblue" stroke="midnightblue" points="1250.59,-168.21 1261.18,-168.44 1253.05,-161.66 1250.59,-168.21"/>
</g>
<!-- Node23 -->
<g id="node22" class="node">
<title>Node23</title>
<g id="a_node22"><a xlink:href="extension__module_8hpp.html" target="_top" xlink:title="This is the header file for the new extension module.">
<polygon fill="none" stroke="black" points="921,-112.5 921,-131.5 1049,-131.5 1049,-112.5 921,-112.5"/>
<text text-anchor="middle" x="985" y="-119.5" font-family="Helvetica,sans-Serif" font-size="10.00">extension_module.hpp</text>
</a>
</g>
</g>
<!-- Node9&#45;&gt;Node23 -->
<g id="edge24" class="edge">
<title>Node9&#45;&gt;Node23</title>
<path fill="none" stroke="midnightblue" d="M1226.77,-166.66C1170.26,-156.46 1084.88,-141.04 1032.16,-131.52"/>
<polygon fill="midnightblue" stroke="midnightblue" points="1226.16,-170.11 1236.62,-168.44 1227.4,-163.22 1226.16,-170.11"/>
</g>
<!-- Node11 -->
<g id="node11" class="node">
<title>Node11</title>
<g id="a_node11"><a xlink:href="mcp3021_8hpp.html" target="_top" xlink:title="MCP3021 I2C ADC Driver.">
<polygon fill="none" stroke="red" points="1337.5,-56.5 1337.5,-75.5 1420.5,-75.5 1420.5,-56.5 1337.5,-56.5"/>
<text text-anchor="middle" x="1379" y="-63.5" font-family="Helvetica,sans-Serif" font-size="10.00">mcp3021.hpp</text>
</a>
</g>
</g>
<!-- Node10&#45;&gt;Node11 -->
<g id="edge12" class="edge">
<title>Node10&#45;&gt;Node11</title>
<path fill="none" stroke="midnightblue" d="M1320.3,-106.62C1334.92,-96.76 1353.83,-83.99 1366.18,-75.65"/>
<polygon fill="midnightblue" stroke="midnightblue" points="1318.18,-103.83 1311.85,-112.32 1322.1,-109.63 1318.18,-103.83"/>
</g>
<!-- Node14 -->
<g id="node13" class="node">
<title>Node14</title>
<g id="a_node13"><a xlink:href="bme280_8cpp.html" target="_top" xlink:title="BME280 sensor extension.">
<polygon fill="none" stroke="black" points="1550.5,-56.5 1550.5,-75.5 1627.5,-75.5 1627.5,-56.5 1550.5,-56.5"/>
<text text-anchor="middle" x="1589" y="-63.5" font-family="Helvetica,sans-Serif" font-size="10.00">bme280.cpp</text>
</a>
</g>
</g>
<!-- Node13&#45;&gt;Node14 -->
<g id="edge14" class="edge">
<title>Node13&#45;&gt;Node14</title>
<path fill="none" stroke="midnightblue" d="M1589,-101.8C1589,-92.91 1589,-82.78 1589,-75.75"/>
<polygon fill="midnightblue" stroke="midnightblue" points="1585.5,-102.08 1589,-112.08 1592.5,-102.08 1585.5,-102.08"/>
</g>
<!-- Node16 -->
<g id="node15" class="node">
<title>Node16</title>
<g id="a_node15"><a xlink:href="ds18b20_8cpp.html" target="_top" xlink:title="DS18B20 extension.">
<polygon fill="none" stroke="black" points="1646,-56.5 1646,-75.5 1724,-75.5 1724,-56.5 1646,-56.5"/>
<text text-anchor="middle" x="1685" y="-63.5" font-family="Helvetica,sans-Serif" font-size="10.00">ds18b20.cpp</text>
</a>
</g>
</g>
<!-- Node15&#45;&gt;Node16 -->
<g id="edge16" class="edge">
<title>Node15&#45;&gt;Node16</title>
<path fill="none" stroke="midnightblue" d="M1685,-101.8C1685,-92.91 1685,-82.78 1685,-75.75"/>
<polygon fill="midnightblue" stroke="midnightblue" points="1681.5,-102.08 1685,-112.08 1688.5,-102.08 1681.5,-102.08"/>
</g>
<!-- Node18&#45;&gt;Node11 -->
<g id="edge19" class="edge">
<title>Node18&#45;&gt;Node11</title>
<path fill="none" stroke="midnightblue" d="M1437.7,-106.62C1423.08,-96.76 1404.17,-83.99 1391.82,-75.65"/>
<polygon fill="midnightblue" stroke="midnightblue" points="1435.9,-109.63 1446.15,-112.32 1439.82,-103.83 1435.9,-109.63"/>
</g>
<!-- Node20 -->
<g id="node19" class="node">
<title>Node20</title>
<g id="a_node19"><a xlink:href="samm8q_8cpp.html" target="_top" xlink:title="The SAM&#45;M8Q GPS extension (I2C).">
<polygon fill="none" stroke="black" points="1874,-56.5 1874,-75.5 1954,-75.5 1954,-56.5 1874,-56.5"/>
<text text-anchor="middle" x="1914" y="-63.5" font-family="Helvetica,sans-Serif" font-size="10.00">samm8q.cpp</text>
</a>
</g>
</g>
<!-- Node19&#45;&gt;Node20 -->
<g id="edge21" class="edge">
<title>Node19&#45;&gt;Node20</title>
<path fill="none" stroke="midnightblue" d="M1914,-101.8C1914,-92.91 1914,-82.78 1914,-75.75"/>
<polygon fill="midnightblue" stroke="midnightblue" points="1910.5,-102.08 1914,-112.08 1917.5,-102.08 1910.5,-102.08"/>
</g>
<!-- Node22 -->
<g id="node21" class="node">
<title>Node22</title>
<g id="a_node21"><a xlink:href="extension__module_8cpp.html" target="_top" xlink:title="The implementation of the new extension module.">
<polygon fill="none" stroke="black" points="999.5,-56.5 999.5,-75.5 1126.5,-75.5 1126.5,-56.5 999.5,-56.5"/>
<text text-anchor="middle" x="1063" y="-63.5" font-family="Helvetica,sans-Serif" font-size="10.00">extension_module.cpp</text>
</a>
</g>
</g>
<!-- Node21&#45;&gt;Node22 -->
<g id="edge23" class="edge">
<title>Node21&#45;&gt;Node22</title>
<path fill="none" stroke="midnightblue" d="M1119.1,-106.34C1105.09,-96.52 1087.12,-83.91 1075.34,-75.65"/>
<polygon fill="midnightblue" stroke="midnightblue" points="1117.43,-109.45 1127.63,-112.32 1121.45,-103.72 1117.43,-109.45"/>
</g>
<!-- Node23&#45;&gt;Node22 -->
<g id="edge28" class="edge">
<title>Node23&#45;&gt;Node22</title>
<path fill="none" stroke="midnightblue" d="M1005.77,-106.62C1020.02,-96.76 1038.46,-83.99 1050.5,-75.65"/>
<polygon fill="midnightblue" stroke="midnightblue" points="1003.76,-103.75 997.53,-112.32 1007.75,-109.51 1003.76,-103.75"/>
</g>
<!-- Node23&#45;&gt;Node24 -->
<g id="edge25" class="edge">
<title>Node23&#45;&gt;Node24</title>
<path fill="none" stroke="midnightblue" d="M910.72,-111.17C828.07,-100.23 696.86,-82.86 626.1,-73.5"/>
<polygon fill="midnightblue" stroke="midnightblue" points="910.43,-114.66 920.8,-112.5 911.35,-107.72 910.43,-114.66"/>
</g>
<!-- Node25 -->
<g id="node24" class="node">
<title>Node25</title>
<g id="a_node24"><a xlink:href="flight__runner_8cpp.html" target="_top" xlink:title=" ">
<polygon fill="none" stroke="black" points="479,-0.5 479,-19.5 577,-19.5 577,-0.5 479,-0.5"/>
<text text-anchor="middle" x="528" y="-7.5" font-family="Helvetica,sans-Serif" font-size="10.00">flight_runner.cpp</text>
</a>
</g>
</g>
<!-- Node24&#45;&gt;Node25 -->
<g id="edge26" class="edge">
<title>Node24&#45;&gt;Node25</title>
<path fill="none" stroke="midnightblue" d="M561.97,-48.43C553.38,-38.97 542.96,-27.48 535.94,-19.75"/>
<polygon fill="midnightblue" stroke="midnightblue" points="559.6,-51.03 568.91,-56.08 564.78,-46.33 559.6,-51.03"/>
</g>
<!-- Node26 -->
<g id="node25" class="node">
<title>Node26</title>
<g id="a_node25"><a xlink:href="main_8cpp.html" target="_top" xlink:title="Defines the entry point/main function of the Flight Computer software.">
<polygon fill="none" stroke="black" points="595,-0.5 595,-19.5 657,-19.5 657,-0.5 595,-0.5"/>
<text text-anchor="middle" x="626" y="-7.5" font-family="Helvetica,sans-Serif" font-size="10.00">main.cpp</text>
</a>
</g>
</g>
<!-- Node24&#45;&gt;Node26 -->
<g id="edge27" class="edge">
<title>Node24&#45;&gt;Node26</title>
<path fill="none" stroke="midnightblue" d="M592.03,-48.43C600.62,-38.97 611.04,-27.48 618.06,-19.75"/>
<polygon fill="midnightblue" stroke="midnightblue" points="589.22,-46.33 585.09,-56.08 594.4,-51.03 589.22,-46.33"/>
</g>
<!-- Node29 -->
<g id="node28" class="node">
<title>Node29</title>
<g id="a_node28"><a xlink:href="console__module_8hpp.html" target="_top" xlink:title=" ">
<polygon fill="none" stroke="black" points="128.5,-112.5 128.5,-131.5 245.5,-131.5 245.5,-112.5 128.5,-112.5"/>
<text text-anchor="middle" x="187" y="-119.5" font-family="Helvetica,sans-Serif" font-size="10.00">console_module.hpp</text>
</a>
</g>
</g>
<!-- Node28&#45;&gt;Node29 -->
<g id="edge33" class="edge">
<title>Node28&#45;&gt;Node29</title>
<path fill="none" stroke="midnightblue" d="M200.45,-219.56C187.67,-212.22 174.15,-201.77 167,-188 157.21,-169.14 171.07,-144.67 180.17,-131.8"/>
<polygon fill="midnightblue" stroke="midnightblue" points="199.04,-222.77 209.52,-224.36 202.32,-216.59 199.04,-222.77"/>
</g>
<!-- Node31 -->
<g id="node30" class="node">
<title>Node31</title>
<g id="a_node30"><a xlink:href="console__pages_8cpp.html" target="_top" xlink:title=" ">
<polygon fill="none" stroke="black" points="176.5,-168.5 176.5,-187.5 285.5,-187.5 285.5,-168.5 176.5,-168.5"/>
<text text-anchor="middle" x="231" y="-175.5" font-family="Helvetica,sans-Serif" font-size="10.00">console_pages.cpp</text>
</a>
</g>
</g>
<!-- Node28&#45;&gt;Node31 -->
<g id="edge36" class="edge">
<title>Node28&#45;&gt;Node31</title>
<path fill="none" stroke="midnightblue" d="M231,-213.8C231,-204.91 231,-194.78 231,-187.75"/>
<polygon fill="midnightblue" stroke="midnightblue" points="227.5,-214.08 231,-224.08 234.5,-214.08 227.5,-214.08"/>
</g>
<!-- Node32 -->
<g id="node31" class="node">
<title>Node32</title>
<g id="a_node31"><a xlink:href="curses__utilities_8hpp.html" target="_top" xlink:title=" ">
<polygon fill="none" stroke="black" points="8.5,-168.5 8.5,-187.5 119.5,-187.5 119.5,-168.5 8.5,-168.5"/>
<text text-anchor="middle" x="64" y="-175.5" font-family="Helvetica,sans-Serif" font-size="10.00">curses_utilities.hpp</text>
</a>
</g>
</g>
<!-- Node28&#45;&gt;Node32 -->
<g id="edge37" class="edge">
<title>Node28&#45;&gt;Node32</title>
<path fill="none" stroke="midnightblue" d="M194.83,-221.3C163.36,-211.13 118.51,-196.62 90.34,-187.52"/>
<polygon fill="midnightblue" stroke="midnightblue" points="193.95,-224.7 204.54,-224.44 196.1,-218.04 193.95,-224.7"/>
</g>
<!-- Node29&#45;&gt;Node24 -->
<g id="edge34" class="edge">
<title>Node29&#45;&gt;Node24</title>
<path fill="none" stroke="midnightblue" d="M256.03,-111.44C334.08,-100.63 459.22,-83.31 527.91,-73.8"/>
<polygon fill="midnightblue" stroke="midnightblue" points="255.23,-108.02 245.81,-112.86 256.19,-114.95 255.23,-108.02"/>
</g>
<!-- Node30 -->
<g id="node29" class="node">
<title>Node30</title>
<g id="a_node29"><a xlink:href="console__module_8cpp.html" target="_top" xlink:title=" ">
<polygon fill="none" stroke="black" points="129,-56.5 129,-75.5 245,-75.5 245,-56.5 129,-56.5"/>
<text text-anchor="middle" x="187" y="-63.5" font-family="Helvetica,sans-Serif" font-size="10.00">console_module.cpp</text>
</a>
</g>
</g>
<!-- Node29&#45;&gt;Node30 -->
<g id="edge35" class="edge">
<title>Node29&#45;&gt;Node30</title>
<path fill="none" stroke="midnightblue" d="M187,-101.8C187,-92.91 187,-82.78 187,-75.75"/>
<polygon fill="midnightblue" stroke="midnightblue" points="183.5,-102.08 187,-112.08 190.5,-102.08 183.5,-102.08"/>
</g>
<!-- Node32&#45;&gt;Node29 -->
<g id="edge38" class="edge">
<title>Node32&#45;&gt;Node29</title>
<path fill="none" stroke="midnightblue" d="M92.77,-164.37C115.81,-154.26 147.48,-140.35 167.6,-131.52"/>
<polygon fill="midnightblue" stroke="midnightblue" points="91.24,-161.22 83.49,-168.44 94.05,-167.63 91.24,-161.22"/>
</g>
<!-- Node33 -->
<g id="node32" class="node">
<title>Node33</title>
<g id="a_node32"><a xlink:href="curses__utilities_8cpp.html" target="_top" xlink:title=" ">
<polygon fill="none" stroke="black" points="0,-112.5 0,-131.5 110,-131.5 110,-112.5 0,-112.5"/>
<text text-anchor="middle" x="55" y="-119.5" font-family="Helvetica,sans-Serif" font-size="10.00">curses_utilities.cpp</text>
</a>
</g>
</g>
<!-- Node32&#45;&gt;Node33 -->
<g id="edge39" class="edge">
<title>Node32&#45;&gt;Node33</title>
<path fill="none" stroke="midnightblue" d="M60.85,-158.1C59.36,-149.14 57.64,-138.86 56.46,-131.75"/>
<polygon fill="midnightblue" stroke="midnightblue" points="57.42,-158.79 62.51,-168.08 64.32,-157.64 57.42,-158.79"/>
</g>
<!-- Node35 -->
<g id="node34" class="node">
<title>Node35</title>
<g id="a_node34"><a xlink:href="data__formatting_8cpp.html" target="_top" xlink:title="Implementation of the DataFormatter class.">
<polygon fill="none" stroke="black" points="342,-224.5 342,-243.5 458,-243.5 458,-224.5 342,-224.5"/>
<text text-anchor="middle" x="400" y="-231.5" font-family="Helvetica,sans-Serif" font-size="10.00">data_formatting.cpp</text>
</a>
</g>
</g>
<!-- Node34&#45;&gt;Node35 -->
<g id="edge41" class="edge">
<title>Node34&#45;&gt;Node35</title>
<path fill="none" stroke="midnightblue" d="M396.75,-270.1C397.58,-261.14 398.53,-250.86 399.19,-243.75"/>
<polygon fill="midnightblue" stroke="midnightblue" points="393.26,-269.8 395.83,-280.08 400.23,-270.45 393.26,-269.8"/>
</g>
<!-- Node34&#45;&gt;Node36 -->
<g id="edge42" class="edge">
<title>Node34&#45;&gt;Node36</title>
<path fill="none" stroke="midnightblue" d="M423.31,-276.37C445.97,-266.26 477.13,-252.35 496.92,-243.52"/>
<polygon fill="midnightblue" stroke="midnightblue" points="421.88,-273.17 414.17,-280.44 424.73,-279.56 421.88,-273.17"/>
</g>
<!-- Node37 -->
<g id="node36" class="node">
<title>Node37</title>
<g id="a_node36"><a xlink:href="data__log_8cpp.html" target="_top" xlink:title="The implementation of the data log class.">
<polygon fill="none" stroke="black" points="408.5,-168.5 408.5,-187.5 487.5,-187.5 487.5,-168.5 408.5,-168.5"/>
<text text-anchor="middle" x="448" y="-175.5" font-family="Helvetica,sans-Serif" font-size="10.00">data_log.cpp</text>
</a>
</g>
</g>
<!-- Node36&#45;&gt;Node37 -->
<g id="edge43" class="edge">
<title>Node36&#45;&gt;Node37</title>
<path fill="none" stroke="midnightblue" d="M497.24,-218.1C485,-208.38 469.44,-196.03 459.12,-187.83"/>
<polygon fill="midnightblue" stroke="midnightblue" points="495.07,-220.85 505.07,-224.32 499.42,-215.36 495.07,-220.85"/>
</g>
<!-- Node38 -->
<g id="node37" class="node">
<title>Node38</title>
<g id="a_node37"><a xlink:href="data__module_8hpp.html" target="_top" xlink:title="The data module header file.">
<polygon fill="none" stroke="red" points="263.5,-112.5 263.5,-131.5 364.5,-131.5 364.5,-112.5 263.5,-112.5"/>
<text text-anchor="middle" x="314" y="-119.5" font-family="Helvetica,sans-Serif" font-size="10.00">data_module.hpp</text>
</a>
</g>
</g>
<!-- Node36&#45;&gt;Node38 -->
<g id="edge44" class="edge">
<title>Node36&#45;&gt;Node38</title>
<path fill="none" stroke="midnightblue" d="M515.06,-214.1C513.32,-199.52 508.59,-179.9 496,-168 477.26,-150.28 411.96,-137.25 364.93,-129.9"/>
<polygon fill="midnightblue" stroke="midnightblue" points="511.61,-214.78 515.91,-224.46 518.58,-214.21 511.61,-214.78"/>
</g>
<!-- Node38&#45;&gt;Node24 -->
<g id="edge45" class="edge">
<title>Node38&#45;&gt;Node24</title>
<path fill="none" stroke="midnightblue" d="M365.58,-110.41C415.28,-100.2 489.53,-84.96 535.52,-75.52"/>
<polygon fill="midnightblue" stroke="midnightblue" points="364.76,-107 355.67,-112.44 366.17,-113.86 364.76,-107"/>
</g>
<!-- Node40&#45;&gt;Node5 -->
<g id="edge49" class="edge">
<title>Node40&#45;&gt;Node5</title>
<path fill="none" stroke="midnightblue" d="M244.95,-277.17C214.83,-267 172.1,-252.59 145.23,-243.52"/>
<polygon fill="midnightblue" stroke="midnightblue" points="244.05,-280.56 254.65,-280.44 246.29,-273.93 244.05,-280.56"/>
</g>
<!-- Node40&#45;&gt;Node38 -->
<g id="edge48" class="edge">
<title>Node40&#45;&gt;Node38</title>
<path fill="none" stroke="midnightblue" d="M286.78,-270.95C289.64,-262.81 292.81,-253.01 295,-244 305.11,-202.47 311.06,-151.56 313.15,-131.6"/>
<polygon fill="midnightblue" stroke="midnightblue" points="283.44,-269.9 283.31,-280.5 290.01,-272.3 283.44,-269.9"/>
</g>
<!-- Node42&#45;&gt;Node23 -->
<g id="edge54" class="edge">
<title>Node42&#45;&gt;Node23</title>
<path fill="none" stroke="midnightblue" d="M687.4,-169.58C751.01,-159.62 863.73,-141.98 930.69,-131.5"/>
<polygon fill="midnightblue" stroke="midnightblue" points="686.59,-166.17 677.25,-171.17 687.67,-173.08 686.59,-166.17"/>
</g>
<!-- Node42&#45;&gt;Node29 -->
<g id="edge52" class="edge">
<title>Node42&#45;&gt;Node29</title>
<path fill="none" stroke="midnightblue" d="M592.77,-171.76C519.98,-163.63 376.03,-147.31 254,-132 251.32,-131.66 248.58,-131.32 245.82,-130.96"/>
<polygon fill="midnightblue" stroke="midnightblue" points="592.66,-175.27 602.98,-172.9 593.43,-168.31 592.66,-175.27"/>
</g>
<!-- Node42&#45;&gt;Node38 -->
<g id="edge53" class="edge">
<title>Node42&#45;&gt;Node38</title>
<path fill="none" stroke="midnightblue" d="M592.85,-169.19C532.12,-159.13 427.01,-141.72 364.65,-131.39"/>
<polygon fill="midnightblue" stroke="midnightblue" points="592.48,-172.68 602.92,-170.86 593.63,-165.77 592.48,-172.68"/>
</g>
<!-- Node43 -->
<g id="node41" class="node">
<title>Node43</title>
<g id="a_node41"><a xlink:href="module_8cpp.html" target="_top" xlink:title="Implementation of the module base class.">
<polygon fill="none" stroke="black" points="421,-112.5 421,-131.5 495,-131.5 495,-112.5 421,-112.5"/>
<text text-anchor="middle" x="458" y="-119.5" font-family="Helvetica,sans-Serif" font-size="10.00">module.cpp</text>
</a>
</g>
</g>
<!-- Node42&#45;&gt;Node43 -->
<g id="edge55" class="edge">
<title>Node42&#45;&gt;Node43</title>
<path fill="none" stroke="midnightblue" d="M601.47,-165.57C567.14,-155.38 517.67,-140.7 486.7,-131.52"/>
<polygon fill="midnightblue" stroke="midnightblue" points="600.58,-168.95 611.16,-168.44 602.57,-162.24 600.58,-168.95"/>
</g>
<!-- Node44 -->
<g id="node42" class="node">
<title>Node44</title>
<g id="a_node42"><a xlink:href="server__module_8hpp.html" target="_top" xlink:title="Header file for the server module.">
<polygon fill="none" stroke="black" points="793,-112.5 793,-131.5 903,-131.5 903,-112.5 793,-112.5"/>
<text text-anchor="middle" x="848" y="-119.5" font-family="Helvetica,sans-Serif" font-size="10.00">server_module.hpp</text>
</a>
</g>
</g>
<!-- Node42&#45;&gt;Node44 -->
<g id="edge56" class="edge">
<title>Node42&#45;&gt;Node44</title>
<path fill="none" stroke="midnightblue" d="M682.78,-165.89C722.06,-155.7 779.43,-140.8 815.2,-131.52"/>
<polygon fill="midnightblue" stroke="midnightblue" points="681.76,-162.54 672.96,-168.44 683.52,-169.32 681.76,-162.54"/>
</g>
<!-- Node46 -->
<g id="node44" class="node">
<title>Node46</title>
<g id="a_node44"><a xlink:href="system__module_8hpp.html" target="_top" xlink:title=" ">
<polygon fill="none" stroke="red" points="659,-112.5 659,-131.5 775,-131.5 775,-112.5 659,-112.5"/>
<text text-anchor="middle" x="717" y="-119.5" font-family="Helvetica,sans-Serif" font-size="10.00">system_module.hpp</text>
</a>
</g>
</g>
<!-- Node42&#45;&gt;Node46 -->
<g id="edge59" class="edge">
<title>Node42&#45;&gt;Node46</title>
<path fill="none" stroke="midnightblue" d="M660.9,-162.34C674.91,-152.52 692.88,-139.91 704.66,-131.65"/>
<polygon fill="midnightblue" stroke="midnightblue" points="658.55,-159.72 652.37,-168.32 662.57,-165.45 658.55,-159.72"/>
</g>
<!-- Node48 -->
<g id="node45" class="node">
<title>Node48</title>
<g id="a_node45"><a xlink:href="telemetry__module_8hpp.html" target="_top" xlink:title="The telemetry module.">
<polygon fill="none" stroke="red" points="513,-112.5 513,-131.5 641,-131.5 641,-112.5 513,-112.5"/>
<text text-anchor="middle" x="577" y="-119.5" font-family="Helvetica,sans-Serif" font-size="10.00">telemetry_module.hpp</text>
</a>
</g>
</g>
<!-- Node42&#45;&gt;Node48 -->
<g id="edge61" class="edge">
<title>Node42&#45;&gt;Node48</title>
<path fill="none" stroke="midnightblue" d="M621.96,-161.54C610.73,-151.91 596.68,-139.87 587.31,-131.83"/>
<polygon fill="midnightblue" stroke="midnightblue" points="620.01,-164.47 629.88,-168.32 624.56,-159.16 620.01,-164.47"/>
</g>
<!-- Node44&#45;&gt;Node24 -->
<g id="edge57" class="edge">
<title>Node44&#45;&gt;Node24</title>
<path fill="none" stroke="midnightblue" d="M795.17,-110.47C743.96,-100.27 667.23,-84.98 619.74,-75.52"/>
<polygon fill="midnightblue" stroke="midnightblue" points="794.57,-113.92 805.06,-112.44 795.94,-107.06 794.57,-113.92"/>
</g>
<!-- Node45 -->
<g id="node43" class="node">
<title>Node45</title>
<g id="a_node43"><a xlink:href="server__module_8cpp.html" target="_top" xlink:title="The server module class implementation.">
<polygon fill="none" stroke="black" points="793,-56.5 793,-75.5 903,-75.5 903,-56.5 793,-56.5"/>
<text text-anchor="middle" x="848" y="-63.5" font-family="Helvetica,sans-Serif" font-size="10.00">server_module.cpp</text>
</a>
</g>
</g>
<!-- Node44&#45;&gt;Node45 -->
<g id="edge58" class="edge">
<title>Node44&#45;&gt;Node45</title>
<path fill="none" stroke="midnightblue" d="M848,-101.8C848,-92.91 848,-82.78 848,-75.75"/>
<polygon fill="midnightblue" stroke="midnightblue" points="844.5,-102.08 848,-112.08 851.5,-102.08 844.5,-102.08"/>
</g>
<!-- Node46&#45;&gt;Node24 -->
<g id="edge60" class="edge">
<title>Node46&#45;&gt;Node24</title>
<path fill="none" stroke="midnightblue" d="M685.3,-108.77C659,-98.63 622.28,-84.47 599.08,-75.52"/>
<polygon fill="midnightblue" stroke="midnightblue" points="684.23,-112.11 694.82,-112.44 686.75,-105.58 684.23,-112.11"/>
</g>
<!-- Node48&#45;&gt;Node24 -->
<g id="edge62" class="edge">
<title>Node48&#45;&gt;Node24</title>
<path fill="none" stroke="midnightblue" d="M577,-101.8C577,-92.91 577,-82.78 577,-75.75"/>
<polygon fill="midnightblue" stroke="midnightblue" points="573.5,-102.08 577,-112.08 580.5,-102.08 573.5,-102.08"/>
</g>
<!-- Node50&#45;&gt;Node44 -->
<g id="edge65" class="edge">
<title>Node50&#45;&gt;Node44</title>
<path fill="none" stroke="midnightblue" d="M847.11,-269.93C847.33,-233.92 847.79,-157.23 847.95,-131.57"/>
<polygon fill="midnightblue" stroke="midnightblue" points="843.61,-270.05 847.05,-280.08 850.61,-270.1 843.61,-270.05"/>
</g>
<!-- Node51 -->
<g id="node47" class="node">
<title>Node51</title>
<g id="a_node47"><a xlink:href="request__handler_8cpp.html" target="_top" xlink:title=" ">
<polygon fill="none" stroke="black" points="1059.5,-224.5 1059.5,-243.5 1174.5,-243.5 1174.5,-224.5 1059.5,-224.5"/>
<text text-anchor="middle" x="1117" y="-231.5" font-family="Helvetica,sans-Serif" font-size="10.00">request_handler.cpp</text>
</a>
</g>
</g>
<!-- Node50&#45;&gt;Node51 -->
<g id="edge64" class="edge">
<title>Node50&#45;&gt;Node51</title>
<path fill="none" stroke="midnightblue" d="M899.63,-278.47C950.66,-268.27 1027.1,-252.98 1074.42,-243.52"/>
<polygon fill="midnightblue" stroke="midnightblue" points="898.9,-275.05 889.78,-280.44 900.27,-281.91 898.9,-275.05"/>
</g>
<!-- Node52&#45;&gt;Node5 -->
<g id="edge67" class="edge">
<title>Node52&#45;&gt;Node5</title>
<path fill="none" stroke="midnightblue" d="M282.02,-400.39C244.18,-397.41 192.01,-387.3 159,-356 126.17,-324.87 120.91,-266 120.12,-243.79"/>
<polygon fill="midnightblue" stroke="midnightblue" points="282.09,-403.9 292.29,-401.06 282.54,-396.92 282.09,-403.9"/>
</g>
<!-- Node53&#45;&gt;Node50 -->
<g id="edge69" class="edge">
<title>Node53&#45;&gt;Node50</title>
<path fill="none" stroke="midnightblue" d="M784.16,-382.38C787.06,-368.8 792.26,-350.33 801,-336 809.96,-321.31 824.78,-308.01 835.18,-299.74"/>
<polygon fill="midnightblue" stroke="midnightblue" points="780.68,-381.97 782.24,-392.45 787.55,-383.28 780.68,-381.97"/>
</g>
<!-- Node54 -->
<g id="node50" class="node">
<title>Node54</title>
<g id="a_node50"><a xlink:href="protocol_8cpp.html" target="_top" xlink:title="The C++ implementation of the Giraffe Protocol.">
<polygon fill="none" stroke="black" points="809.5,-336.5 809.5,-355.5 886.5,-355.5 886.5,-336.5 809.5,-336.5"/>
<text text-anchor="middle" x="848" y="-343.5" font-family="Helvetica,sans-Serif" font-size="10.00">protocol.cpp</text>
</a>
</g>
</g>
<!-- Node53&#45;&gt;Node54 -->
<g id="edge70" class="edge">
<title>Node53&#45;&gt;Node54</title>
<path fill="none" stroke="midnightblue" d="M799.83,-385.82C811.84,-376.15 826.97,-363.95 837.04,-355.83"/>
<polygon fill="midnightblue" stroke="midnightblue" points="797.35,-383.32 791.76,-392.32 801.75,-388.77 797.35,-383.32"/>
</g>
</g>
</svg>
