<?xml version="1.0" encoding="UTF-8" standalone="no"?>
<!DOCTYPE svg PUBLIC "-//W3C//DTD SVG 1.1//EN"
 "http://www.w3.org/Graphics/SVG/1.1/DTD/svg11.dtd">
<!-- Generated by graphviz version 2.43.0 (0)
 -->
<!-- Title: message_queue.cpp Pages: 1 -->
<svg width="602pt" height="196pt"
 viewBox="0.00 0.00 601.76 196.00" xmlns="http://www.w3.org/2000/svg" xmlns:xlink="http://www.w3.org/1999/xlink">
<g id="graph0" class="graph" transform="scale(1 1) rotate(0) translate(4 192)">
<title>message_queue.cpp</title>
<!-- Node1 -->
<g id="node1" class="node">
<title>Node1</title>
<g id="a_node1"><a xlink:title="Contains definition of the MessageQueue class.">
<polygon fill="#bfbfbf" stroke="black" points="159.26,-168.5 159.26,-187.5 275.26,-187.5 275.26,-168.5 159.26,-168.5"/>
<text text-anchor="middle" x="217.26" y="-175.5" font-family="Helvetica,sans-Serif" font-size="10.00">message_queue.cpp</text>
</a>
</g>
</g>
<!-- Node2 -->
<g id="node2" class="node">
<title>Node2</title>
<g id="a_node2"><a xlink:href="gdl__message_8hpp.html" target="_top" xlink:title="Message and Message Queue for Giraffe Data Link.">
<polygon fill="none" stroke="black" points="166.26,-112.5 166.26,-131.5 268.26,-131.5 268.26,-112.5 166.26,-112.5"/>
<text text-anchor="middle" x="217.26" y="-119.5" font-family="Helvetica,sans-Serif" font-size="10.00">gdl_message.hpp</text>
</a>
</g>
</g>
<!-- Node1&#45;&gt;Node2 -->
<g id="edge1" class="edge">
<title>Node1&#45;&gt;Node2</title>
<path fill="none" stroke="midnightblue" d="M217.26,-168.08C217.26,-161.01 217.26,-150.86 217.26,-141.99"/>
<polygon fill="midnightblue" stroke="midnightblue" points="220.76,-141.75 217.26,-131.75 213.76,-141.75 220.76,-141.75"/>
</g>
<!-- Node3 -->
<g id="node3" class="node">
<title>Node3</title>
<g id="a_node3"><a xlink:title=" ">
<polygon fill="none" stroke="#bfbfbf" points="207.26,-0.5 207.26,-19.5 257.26,-19.5 257.26,-0.5 207.26,-0.5"/>
<text text-anchor="middle" x="232.26" y="-7.5" font-family="Helvetica,sans-Serif" font-size="10.00">cstdint</text>
</a>
</g>
</g>
<!-- Node2&#45;&gt;Node3 -->
<g id="edge2" class="edge">
<title>Node2&#45;&gt;Node3</title>
<path fill="none" stroke="midnightblue" d="M166.09,-121.24C91.23,-119.83 -34.7,-109.73 9.26,-56 32.53,-27.57 139.72,-16.7 196.59,-12.88"/>
<polygon fill="midnightblue" stroke="midnightblue" points="197.17,-16.35 206.92,-12.22 196.72,-9.36 197.17,-16.35"/>
</g>
<!-- Node4 -->
<g id="node4" class="node">
<title>Node4</title>
<g id="a_node4"><a xlink:title=" ">
<polygon fill="none" stroke="#bfbfbf" points="18.26,-56.5 18.26,-75.5 74.26,-75.5 74.26,-56.5 18.26,-56.5"/>
<text text-anchor="middle" x="46.26" y="-63.5" font-family="Helvetica,sans-Serif" font-size="10.00">iomanip</text>
</a>
</g>
</g>
<!-- Node2&#45;&gt;Node4 -->
<g id="edge3" class="edge">
<title>Node2&#45;&gt;Node4</title>
<path fill="none" stroke="midnightblue" d="M190.17,-112.44C161.28,-103.32 115.34,-88.81 83.16,-78.65"/>
<polygon fill="midnightblue" stroke="midnightblue" points="83.82,-75.19 73.23,-75.52 81.71,-81.87 83.82,-75.19"/>
</g>
<!-- Node5 -->
<g id="node5" class="node">
<title>Node5</title>
<g id="a_node5"><a xlink:title=" ">
<polygon fill="none" stroke="#bfbfbf" points="92.26,-56.5 92.26,-75.5 140.26,-75.5 140.26,-56.5 92.26,-56.5"/>
<text text-anchor="middle" x="116.26" y="-63.5" font-family="Helvetica,sans-Serif" font-size="10.00">mutex</text>
</a>
</g>
</g>
<!-- Node2&#45;&gt;Node5 -->
<g id="edge4" class="edge">
<title>Node2&#45;&gt;Node5</title>
<path fill="none" stroke="midnightblue" d="M201.04,-112.32C184.91,-103.7 159.96,-90.36 141.3,-80.39"/>
<polygon fill="midnightblue" stroke="midnightblue" points="142.92,-77.28 132.45,-75.65 139.62,-83.46 142.92,-77.28"/>
</g>
<!-- Node6 -->
<g id="node6" class="node">
<title>Node6</title>
<g id="a_node6"><a xlink:title=" ">
<polygon fill="none" stroke="#bfbfbf" points="158.76,-56.5 158.76,-75.5 205.76,-75.5 205.76,-56.5 158.76,-56.5"/>
<text text-anchor="middle" x="182.26" y="-63.5" font-family="Helvetica,sans-Serif" font-size="10.00">queue</text>
</a>
</g>
</g>
<!-- Node2&#45;&gt;Node6 -->
<g id="edge5" class="edge">
<title>Node2&#45;&gt;Node6</title>
<path fill="none" stroke="midnightblue" d="M211.48,-112.08C206.59,-104.53 199.44,-93.49 193.43,-84.23"/>
<polygon fill="midnightblue" stroke="midnightblue" points="196.31,-82.24 187.94,-75.75 190.44,-86.05 196.31,-82.24"/>
</g>
<!-- Node7 -->
<g id="node7" class="node">
<title>Node7</title>
<g id="a_node7"><a xlink:title=" ">
<polygon fill="none" stroke="#bfbfbf" points="224.26,-56.5 224.26,-75.5 280.26,-75.5 280.26,-56.5 224.26,-56.5"/>
<text text-anchor="middle" x="252.26" y="-63.5" font-family="Helvetica,sans-Serif" font-size="10.00">sstream</text>
</a>
</g>
</g>
<!-- Node2&#45;&gt;Node7 -->
<g id="edge6" class="edge">
<title>Node2&#45;&gt;Node7</title>
<path fill="none" stroke="midnightblue" d="M223.04,-112.08C227.94,-104.53 235.09,-93.49 241.1,-84.23"/>
<polygon fill="midnightblue" stroke="midnightblue" points="244.09,-86.05 246.59,-75.75 238.22,-82.24 244.09,-86.05"/>
</g>
<!-- Node8 -->
<g id="node8" class="node">
<title>Node8</title>
<g id="a_node8"><a xlink:title=" ">
<polygon fill="none" stroke="#bfbfbf" points="298.26,-56.5 298.26,-75.5 342.26,-75.5 342.26,-56.5 298.26,-56.5"/>
<text text-anchor="middle" x="320.26" y="-63.5" font-family="Helvetica,sans-Serif" font-size="10.00">string</text>
</a>
</g>
</g>
<!-- Node2&#45;&gt;Node8 -->
<g id="edge7" class="edge">
<title>Node2&#45;&gt;Node8</title>
<path fill="none" stroke="midnightblue" d="M233.81,-112.32C250.26,-103.7 275.7,-90.36 294.73,-80.39"/>
<polygon fill="midnightblue" stroke="midnightblue" points="296.53,-83.4 303.76,-75.65 293.27,-77.2 296.53,-83.4"/>
</g>
<!-- Node9 -->
<g id="node9" class="node">
<title>Node9</title>
<g id="a_node9"><a xlink:title=" ">
<polygon fill="none" stroke="#bfbfbf" points="360.26,-56.5 360.26,-75.5 470.26,-75.5 470.26,-56.5 360.26,-56.5"/>
<text text-anchor="middle" x="415.26" y="-63.5" font-family="Helvetica,sans-Serif" font-size="10.00">nlohmann/json.hpp</text>
</a>
</g>
</g>
<!-- Node2&#45;&gt;Node9 -->
<g id="edge8" class="edge">
<title>Node2&#45;&gt;Node9</title>
<path fill="none" stroke="midnightblue" d="M248.64,-112.44C282.53,-103.2 336.67,-88.44 373.99,-78.26"/>
<polygon fill="midnightblue" stroke="midnightblue" points="375.31,-81.52 384.04,-75.52 373.47,-74.77 375.31,-81.52"/>
</g>
<!-- Node10 -->
<g id="node10" class="node">
<title>Node10</title>
<g id="a_node10"><a xlink:href="gdl__constants_8hpp.html" target="_top" xlink:title="Constants for Giraffe Data Link.">
<polygon fill="none" stroke="black" points="488.76,-56.5 488.76,-75.5 593.76,-75.5 593.76,-56.5 488.76,-56.5"/>
<text text-anchor="middle" x="541.26" y="-63.5" font-family="Helvetica,sans-Serif" font-size="10.00">gdl_constants.hpp</text>
</a>
</g>
</g>
<!-- Node2&#45;&gt;Node10 -->
<g id="edge9" class="edge">
<title>Node2&#45;&gt;Node10</title>
<path fill="none" stroke="midnightblue" d="M268.6,-112.44C326.07,-102.87 419.13,-87.36 480.26,-77.17"/>
<polygon fill="midnightblue" stroke="midnightblue" points="480.88,-80.61 490.17,-75.52 479.73,-73.71 480.88,-80.61"/>
</g>
<!-- Node10&#45;&gt;Node3 -->
<g id="edge10" class="edge">
<title>Node10&#45;&gt;Node3</title>
<path fill="none" stroke="midnightblue" d="M492.3,-56.44C429.63,-45.49 322.59,-26.78 267.42,-17.14"/>
<polygon fill="midnightblue" stroke="midnightblue" points="267.88,-13.67 257.43,-15.4 266.68,-20.57 267.88,-13.67"/>
</g>
<!-- Node11 -->
<g id="node11" class="node">
<title>Node11</title>
<g id="a_node11"><a xlink:title=" ">
<polygon fill="none" stroke="#bfbfbf" points="516.76,-0.5 516.76,-19.5 565.76,-19.5 565.76,-0.5 516.76,-0.5"/>
<text text-anchor="middle" x="541.26" y="-7.5" font-family="Helvetica,sans-Serif" font-size="10.00">cstdlib</text>
</a>
</g>
</g>
<!-- Node10&#45;&gt;Node11 -->
<g id="edge11" class="edge">
<title>Node10&#45;&gt;Node11</title>
<path fill="none" stroke="midnightblue" d="M541.26,-56.08C541.26,-49.01 541.26,-38.86 541.26,-29.99"/>
<polygon fill="midnightblue" stroke="midnightblue" points="544.76,-29.75 541.26,-19.75 537.76,-29.75 544.76,-29.75"/>
</g>
</g>
</svg>
