<?xml version="1.0" encoding="UTF-8" standalone="no"?>
<!DOCTYPE svg PUBLIC "-//W3C//DTD SVG 1.1//EN"
 "http://www.w3.org/Graphics/SVG/1.1/DTD/svg11.dtd">
<!-- Generated by graphviz version 2.43.0 (0)
 -->
<!-- Title: module.hpp Pages: 1 -->
<svg width="1663pt" height="375pt"
 viewBox="0.00 0.00 1663.00 375.00" xmlns="http://www.w3.org/2000/svg" xmlns:xlink="http://www.w3.org/1999/xlink">
<g id="graph0" class="graph" transform="scale(1 1) rotate(0) translate(4 371)">
<title>module.hpp</title>
<!-- Node1 -->
<g id="node1" class="node">
<title>Node1</title>
<g id="a_node1"><a xlink:title="The header file for the base module class.">
<polygon fill="#bfbfbf" stroke="black" points="212,-347.5 212,-366.5 286,-366.5 286,-347.5 212,-347.5"/>
<text text-anchor="middle" x="249" y="-354.5" font-family="Helvetica,sans-Serif" font-size="10.00">module.hpp</text>
</a>
</g>
</g>
<!-- Node2 -->
<g id="node2" class="node">
<title>Node2</title>
<g id="a_node2"><a xlink:title=" ">
<polygon fill="none" stroke="#bfbfbf" points="0,-118 0,-137 50,-137 50,-118 0,-118"/>
<text text-anchor="middle" x="25" y="-125" font-family="Helvetica,sans-Serif" font-size="10.00">atomic</text>
</a>
</g>
</g>
<!-- Node1&#45;&gt;Node2 -->
<g id="edge1" class="edge">
<title>Node1&#45;&gt;Node2</title>
<path fill="none" stroke="midnightblue" d="M211.98,-355.65C174.92,-353.3 118.58,-344.01 84,-311 37.27,-266.39 27.48,-184.58 25.48,-147.58"/>
<polygon fill="midnightblue" stroke="midnightblue" points="28.97,-147.09 25.07,-137.24 21.97,-147.37 28.97,-147.09"/>
</g>
<!-- Node3 -->
<g id="node3" class="node">
<title>Node3</title>
<g id="a_node3"><a xlink:title=" ">
<polygon fill="none" stroke="#bfbfbf" points="93,-291.5 93,-310.5 141,-310.5 141,-291.5 93,-291.5"/>
<text text-anchor="middle" x="117" y="-298.5" font-family="Helvetica,sans-Serif" font-size="10.00">thread</text>
</a>
</g>
</g>
<!-- Node1&#45;&gt;Node3 -->
<g id="edge2" class="edge">
<title>Node1&#45;&gt;Node3</title>
<path fill="none" stroke="midnightblue" d="M228.08,-347.44C206.26,-338.52 171.85,-324.44 147.11,-314.32"/>
<polygon fill="midnightblue" stroke="midnightblue" points="148.4,-311.06 137.82,-310.52 145.75,-317.54 148.4,-311.06"/>
</g>
<!-- Node4 -->
<g id="node4" class="node">
<title>Node4</title>
<g id="a_node4"><a xlink:href="command_8hpp.html" target="_top" xlink:title="The command/queue system for the flight system.">
<polygon fill="none" stroke="black" points="106,-118 106,-137 192,-137 192,-118 106,-118"/>
<text text-anchor="middle" x="149" y="-125" font-family="Helvetica,sans-Serif" font-size="10.00">command.hpp</text>
</a>
</g>
</g>
<!-- Node1&#45;&gt;Node4 -->
<g id="edge3" class="edge">
<title>Node1&#45;&gt;Node4</title>
<path fill="none" stroke="midnightblue" d="M231.23,-347.47C217.3,-339.85 198.56,-327.37 188,-311 154.39,-258.9 149.24,-182.71 148.78,-147.56"/>
<polygon fill="midnightblue" stroke="midnightblue" points="152.28,-147.3 148.77,-137.31 145.28,-147.31 152.28,-147.3"/>
</g>
<!-- Node8 -->
<g id="node8" class="node">
<title>Node8</title>
<g id="a_node8"><a xlink:href="node_8hpp.html" target="_top" xlink:title="Contains structures that are used to identify components of the flight system.">
<polygon fill="none" stroke="black" points="941,-56.5 941,-75.5 1003,-75.5 1003,-56.5 941,-56.5"/>
<text text-anchor="middle" x="972" y="-63.5" font-family="Helvetica,sans-Serif" font-size="10.00">node.hpp</text>
</a>
</g>
</g>
<!-- Node1&#45;&gt;Node8 -->
<g id="edge14" class="edge">
<title>Node1&#45;&gt;Node8</title>
<path fill="none" stroke="midnightblue" d="M286.18,-354.67C491.74,-347.11 1480,-307.52 1480,-246 1480,-246 1480,-246 1480,-188 1480,-153.18 1487.56,-134.51 1461,-112 1424.69,-81.23 1095.48,-83.11 1013.5,-75.51"/>
<polygon fill="midnightblue" stroke="midnightblue" points="1013.6,-72 1003.26,-74.32 1012.79,-78.96 1013.6,-72"/>
</g>
<!-- Node11 -->
<g id="node11" class="node">
<title>Node11</title>
<g id="a_node11"><a xlink:href="configuration_8hpp.html" target="_top" xlink:title=" ">
<polygon fill="none" stroke="black" points="319.5,-291.5 319.5,-310.5 420.5,-310.5 420.5,-291.5 319.5,-291.5"/>
<text text-anchor="middle" x="370" y="-298.5" font-family="Helvetica,sans-Serif" font-size="10.00">configuration.hpp</text>
</a>
</g>
</g>
<!-- Node1&#45;&gt;Node11 -->
<g id="edge10" class="edge">
<title>Node1&#45;&gt;Node11</title>
<path fill="none" stroke="midnightblue" d="M268.17,-347.44C287.91,-338.64 318.89,-324.81 341.49,-314.72"/>
<polygon fill="midnightblue" stroke="midnightblue" points="343.21,-317.79 350.92,-310.52 340.36,-311.4 343.21,-317.79"/>
</g>
<!-- Node12 -->
<g id="node12" class="node">
<title>Node12</title>
<g id="a_node12"><a xlink:href="giraffe__assert_8hpp.html" target="_top" xlink:title="For absolute failures in the code.">
<polygon fill="none" stroke="black" points="197,-291.5 197,-310.5 301,-310.5 301,-291.5 197,-291.5"/>
<text text-anchor="middle" x="249" y="-298.5" font-family="Helvetica,sans-Serif" font-size="10.00">giraffe_assert.hpp</text>
</a>
</g>
</g>
<!-- Node1&#45;&gt;Node12 -->
<g id="edge11" class="edge">
<title>Node1&#45;&gt;Node12</title>
<path fill="none" stroke="midnightblue" d="M249,-347.08C249,-340.01 249,-329.86 249,-320.99"/>
<polygon fill="midnightblue" stroke="midnightblue" points="252.5,-320.75 249,-310.75 245.5,-320.75 252.5,-320.75"/>
</g>
<!-- Node15 -->
<g id="node15" class="node">
<title>Node15</title>
<g id="a_node15"><a xlink:href="shared__data_8hpp.html" target="_top" xlink:title="Contains the SharedData struct, used across all modules and extensions.">
<polygon fill="none" stroke="black" points="887,-291.5 887,-310.5 985,-310.5 985,-291.5 887,-291.5"/>
<text text-anchor="middle" x="936" y="-298.5" font-family="Helvetica,sans-Serif" font-size="10.00">shared_data.hpp</text>
</a>
</g>
</g>
<!-- Node1&#45;&gt;Node15 -->
<g id="edge15" class="edge">
<title>Node1&#45;&gt;Node15</title>
<path fill="none" stroke="midnightblue" d="M286.42,-353.06C399.54,-344.17 738.54,-317.52 876.56,-306.67"/>
<polygon fill="midnightblue" stroke="midnightblue" points="877.24,-310.13 886.93,-305.86 876.69,-303.15 877.24,-310.13"/>
</g>
<!-- Node5 -->
<g id="node5" class="node">
<title>Node5</title>
<g id="a_node5"><a xlink:title=" ">
<polygon fill="none" stroke="#bfbfbf" points="239,-56.5 239,-75.5 287,-75.5 287,-56.5 239,-56.5"/>
<text text-anchor="middle" x="263" y="-63.5" font-family="Helvetica,sans-Serif" font-size="10.00">mutex</text>
</a>
</g>
</g>
<!-- Node4&#45;&gt;Node5 -->
<g id="edge4" class="edge">
<title>Node4&#45;&gt;Node5</title>
<path fill="none" stroke="midnightblue" d="M165.33,-117.98C184.21,-108.12 215.51,-91.79 237.58,-80.27"/>
<polygon fill="midnightblue" stroke="midnightblue" points="239.45,-83.24 246.7,-75.51 236.21,-77.03 239.45,-83.24"/>
</g>
<!-- Node6 -->
<g id="node6" class="node">
<title>Node6</title>
<g id="a_node6"><a xlink:title=" ">
<polygon fill="none" stroke="#bfbfbf" points="49.5,-56.5 49.5,-75.5 96.5,-75.5 96.5,-56.5 49.5,-56.5"/>
<text text-anchor="middle" x="73" y="-63.5" font-family="Helvetica,sans-Serif" font-size="10.00">queue</text>
</a>
</g>
</g>
<!-- Node4&#45;&gt;Node6 -->
<g id="edge5" class="edge">
<title>Node4&#45;&gt;Node6</title>
<path fill="none" stroke="midnightblue" d="M138.11,-117.98C126.03,-108.52 106.33,-93.1 91.76,-81.69"/>
<polygon fill="midnightblue" stroke="midnightblue" points="93.9,-78.92 83.87,-75.51 89.59,-84.43 93.9,-78.92"/>
</g>
<!-- Node7 -->
<g id="node7" class="node">
<title>Node7</title>
<g id="a_node7"><a xlink:href="command__ids_8hpp.html" target="_top" xlink:title=" ">
<polygon fill="none" stroke="black" points="115,-56.5 115,-75.5 221,-75.5 221,-56.5 115,-56.5"/>
<text text-anchor="middle" x="168" y="-63.5" font-family="Helvetica,sans-Serif" font-size="10.00">command_ids.hpp</text>
</a>
</g>
</g>
<!-- Node4&#45;&gt;Node7 -->
<g id="edge6" class="edge">
<title>Node4&#45;&gt;Node7</title>
<path fill="none" stroke="midnightblue" d="M151.72,-117.98C154.43,-109.49 158.67,-96.2 162.15,-85.32"/>
<polygon fill="midnightblue" stroke="midnightblue" points="165.57,-86.1 165.28,-75.51 158.91,-83.97 165.57,-86.1"/>
</g>
<!-- Node4&#45;&gt;Node8 -->
<g id="edge7" class="edge">
<title>Node4&#45;&gt;Node8</title>
<path fill="none" stroke="midnightblue" d="M192.2,-121.08C216.99,-118.11 248.71,-114.52 277,-112 524.68,-89.97 822.93,-74.29 930.67,-68.98"/>
<polygon fill="midnightblue" stroke="midnightblue" points="930.97,-72.47 940.79,-68.48 930.63,-65.48 930.97,-72.47"/>
</g>
<!-- Node9 -->
<g id="node9" class="node">
<title>Node9</title>
<g id="a_node9"><a xlink:title=" ">
<polygon fill="none" stroke="#bfbfbf" points="1180,-0.5 1180,-19.5 1230,-19.5 1230,-0.5 1180,-0.5"/>
<text text-anchor="middle" x="1205" y="-7.5" font-family="Helvetica,sans-Serif" font-size="10.00">cstdint</text>
</a>
</g>
</g>
<!-- Node8&#45;&gt;Node9 -->
<g id="edge8" class="edge">
<title>Node8&#45;&gt;Node9</title>
<path fill="none" stroke="midnightblue" d="M1003.42,-57.72C1046.75,-47.68 1124.61,-29.63 1169.83,-19.15"/>
<polygon fill="midnightblue" stroke="midnightblue" points="1170.82,-22.51 1179.77,-16.85 1169.24,-15.69 1170.82,-22.51"/>
</g>
<!-- Node10 -->
<g id="node10" class="node">
<title>Node10</title>
<g id="a_node10"><a xlink:title=" ">
<polygon fill="none" stroke="#bfbfbf" points="1054,-0.5 1054,-19.5 1092,-19.5 1092,-0.5 1054,-0.5"/>
<text text-anchor="middle" x="1073" y="-7.5" font-family="Helvetica,sans-Serif" font-size="10.00">map</text>
</a>
</g>
</g>
<!-- Node8&#45;&gt;Node10 -->
<g id="edge9" class="edge">
<title>Node8&#45;&gt;Node10</title>
<path fill="none" stroke="midnightblue" d="M988.23,-56.32C1004.35,-47.7 1029.3,-34.36 1047.96,-24.39"/>
<polygon fill="midnightblue" stroke="midnightblue" points="1049.64,-27.46 1056.81,-19.65 1046.34,-21.28 1049.64,-27.46"/>
</g>
<!-- Node13 -->
<g id="node13" class="node">
<title>Node13</title>
<g id="a_node13"><a xlink:title=" ">
<polygon fill="none" stroke="#bfbfbf" points="206.5,-235.5 206.5,-254.5 271.5,-254.5 271.5,-235.5 206.5,-235.5"/>
<text text-anchor="middle" x="239" y="-242.5" font-family="Helvetica,sans-Serif" font-size="10.00">exception</text>
</a>
</g>
</g>
<!-- Node12&#45;&gt;Node13 -->
<g id="edge12" class="edge">
<title>Node12&#45;&gt;Node13</title>
<path fill="none" stroke="midnightblue" d="M247.35,-291.08C246.02,-283.93 244.12,-273.64 242.46,-264.69"/>
<polygon fill="midnightblue" stroke="midnightblue" points="245.88,-263.95 240.62,-254.75 239,-265.22 245.88,-263.95"/>
</g>
<!-- Node14 -->
<g id="node14" class="node">
<title>Node14</title>
<g id="a_node14"><a xlink:title=" ">
<polygon fill="none" stroke="#bfbfbf" points="290,-235.5 290,-254.5 340,-254.5 340,-235.5 290,-235.5"/>
<text text-anchor="middle" x="315" y="-242.5" font-family="Helvetica,sans-Serif" font-size="10.00">stdio.h</text>
</a>
</g>
</g>
<!-- Node12&#45;&gt;Node14 -->
<g id="edge13" class="edge">
<title>Node12&#45;&gt;Node14</title>
<path fill="none" stroke="midnightblue" d="M259.6,-291.32C269.46,-283.26 284.35,-271.08 296.22,-261.37"/>
<polygon fill="midnightblue" stroke="midnightblue" points="298.68,-263.88 304.2,-254.83 294.25,-258.46 298.68,-263.88"/>
</g>
<!-- Node16 -->
<g id="node16" class="node">
<title>Node16</title>
<g id="a_node16"><a xlink:title=" ">
<polygon fill="none" stroke="#bfbfbf" points="1021.5,-56.5 1021.5,-75.5 1146.5,-75.5 1146.5,-56.5 1021.5,-56.5"/>
<text text-anchor="middle" x="1084" y="-63.5" font-family="Helvetica,sans-Serif" font-size="10.00">BoosterSeat/clock.hpp</text>
</a>
</g>
</g>
<!-- Node15&#45;&gt;Node16 -->
<g id="edge16" class="edge">
<title>Node15&#45;&gt;Node16</title>
<path fill="none" stroke="midnightblue" d="M944.03,-291.28C959.39,-274.35 993.49,-235.46 1017,-199 1041.97,-160.28 1064.83,-111.05 1076.29,-85.02"/>
<polygon fill="midnightblue" stroke="midnightblue" points="1079.57,-86.24 1080.35,-75.67 1073.15,-83.45 1079.57,-86.24"/>
</g>
<!-- Node17 -->
<g id="node17" class="node">
<title>Node17</title>
<g id="a_node17"><a xlink:title=" ">
<polygon fill="none" stroke="#bfbfbf" points="1533,-56.5 1533,-75.5 1655,-75.5 1655,-56.5 1533,-56.5"/>
<text text-anchor="middle" x="1594" y="-63.5" font-family="Helvetica,sans-Serif" font-size="10.00">BoosterSeat/time.hpp</text>
</a>
</g>
</g>
<!-- Node15&#45;&gt;Node17 -->
<g id="edge17" class="edge">
<title>Node15&#45;&gt;Node17</title>
<path fill="none" stroke="midnightblue" d="M985.17,-296C1125.08,-283.51 1520.26,-240.11 1597,-143 1609.76,-126.85 1605.87,-102.2 1600.88,-85.38"/>
<polygon fill="midnightblue" stroke="midnightblue" points="1604.1,-83.99 1597.6,-75.62 1597.47,-86.22 1604.1,-83.99"/>
</g>
<!-- Node18 -->
<g id="node18" class="node">
<title>Node18</title>
<g id="a_node18"><a xlink:href="blocks_8hpp.html" target="_top" xlink:title=" ">
<polygon fill="none" stroke="black" points="1176.5,-179.5 1176.5,-198.5 1245.5,-198.5 1245.5,-179.5 1176.5,-179.5"/>
<text text-anchor="middle" x="1211" y="-186.5" font-family="Helvetica,sans-Serif" font-size="10.00">blocks.hpp</text>
</a>
</g>
</g>
<!-- Node15&#45;&gt;Node18 -->
<g id="edge18" class="edge">
<title>Node15&#45;&gt;Node18</title>
<path fill="none" stroke="midnightblue" d="M966.74,-291.45C995.4,-283.16 1039.13,-269.72 1076,-255 1115.37,-239.28 1159.33,-217.23 1186.08,-203.28"/>
<polygon fill="midnightblue" stroke="midnightblue" points="1187.89,-206.28 1195.11,-198.54 1184.63,-200.09 1187.89,-206.28"/>
</g>
<!-- Node24 -->
<g id="node24" class="node">
<title>Node24</title>
<g id="a_node24"><a xlink:href="error__frame_8hpp.html" target="_top" xlink:title="The error frame.">
<polygon fill="none" stroke="black" points="850.5,-235.5 850.5,-254.5 945.5,-254.5 945.5,-235.5 850.5,-235.5"/>
<text text-anchor="middle" x="898" y="-242.5" font-family="Helvetica,sans-Serif" font-size="10.00">error_frame.hpp</text>
</a>
</g>
</g>
<!-- Node15&#45;&gt;Node24 -->
<g id="edge35" class="edge">
<title>Node15&#45;&gt;Node24</title>
<path fill="none" stroke="midnightblue" d="M929.73,-291.08C924.36,-283.46 916.48,-272.26 909.92,-262.94"/>
<polygon fill="midnightblue" stroke="midnightblue" points="912.78,-260.91 904.16,-254.75 907.05,-264.94 912.78,-260.91"/>
</g>
<!-- Node25 -->
<g id="node25" class="node">
<title>Node25</title>
<g id="a_node25"><a xlink:href="frame_8hpp.html" target="_top" xlink:title=" ">
<polygon fill="none" stroke="black" points="940.5,-179.5 940.5,-198.5 1007.5,-198.5 1007.5,-179.5 940.5,-179.5"/>
<text text-anchor="middle" x="974" y="-186.5" font-family="Helvetica,sans-Serif" font-size="10.00">frame.hpp</text>
</a>
</g>
</g>
<!-- Node15&#45;&gt;Node25 -->
<g id="edge54" class="edge">
<title>Node15&#45;&gt;Node25</title>
<path fill="none" stroke="midnightblue" d="M939.94,-291.49C944.01,-282.53 950.39,-267.94 955,-255 960.54,-239.42 965.73,-221.35 969.28,-208.22"/>
<polygon fill="midnightblue" stroke="midnightblue" points="972.67,-209.08 971.85,-198.51 965.9,-207.29 972.67,-209.08"/>
</g>
<!-- Node28 -->
<g id="node28" class="node">
<title>Node28</title>
<g id="a_node28"><a xlink:href="streams_8hpp.html" target="_top" xlink:title="The header file for the data streams.">
<polygon fill="none" stroke="black" points="550.5,-179.5 550.5,-198.5 627.5,-198.5 627.5,-179.5 550.5,-179.5"/>
<text text-anchor="middle" x="589" y="-186.5" font-family="Helvetica,sans-Serif" font-size="10.00">streams.hpp</text>
</a>
</g>
</g>
<!-- Node15&#45;&gt;Node28 -->
<g id="edge58" class="edge">
<title>Node15&#45;&gt;Node28</title>
<path fill="none" stroke="midnightblue" d="M909.06,-291.46C847.44,-271.93 696.14,-223.96 625.91,-201.7"/>
<polygon fill="midnightblue" stroke="midnightblue" points="626.75,-198.3 616.16,-198.61 624.64,-204.97 626.75,-198.3"/>
</g>
<!-- Node32 -->
<g id="node32" class="node">
<title>Node32</title>
<g id="a_node32"><a xlink:href="log__container_8hpp.html" target="_top" xlink:title="A simple logging system for debugging.">
<polygon fill="none" stroke="black" points="400.5,-235.5 400.5,-254.5 503.5,-254.5 503.5,-235.5 400.5,-235.5"/>
<text text-anchor="middle" x="452" y="-242.5" font-family="Helvetica,sans-Serif" font-size="10.00">log_container.hpp</text>
</a>
</g>
</g>
<!-- Node15&#45;&gt;Node32 -->
<g id="edge55" class="edge">
<title>Node15&#45;&gt;Node32</title>
<path fill="none" stroke="midnightblue" d="M886.93,-294.53C798.15,-284.62 611.05,-263.75 513.74,-252.89"/>
<polygon fill="midnightblue" stroke="midnightblue" points="514.08,-249.4 503.75,-251.77 513.3,-256.36 514.08,-249.4"/>
</g>
<!-- Node18&#45;&gt;Node5 -->
<g id="edge19" class="edge">
<title>Node18&#45;&gt;Node5</title>
<path fill="none" stroke="midnightblue" d="M1192.46,-179.4C1150.42,-159.91 1050.83,-113.93 1043,-112 898.55,-76.46 429.06,-68.79 297.53,-67.32"/>
<polygon fill="midnightblue" stroke="midnightblue" points="297.29,-63.82 287.25,-67.21 297.21,-70.81 297.29,-63.82"/>
</g>
<!-- Node18&#45;&gt;Node8 -->
<g id="edge27" class="edge">
<title>Node18&#45;&gt;Node8</title>
<path fill="none" stroke="midnightblue" d="M1199.6,-179.48C1187.66,-170.51 1168.38,-155.93 1152,-143 1134.89,-129.5 1133.17,-122.37 1114,-112 1096.45,-102.51 1048.49,-88.12 1013.14,-78.18"/>
<polygon fill="midnightblue" stroke="midnightblue" points="1013.65,-74.69 1003.08,-75.37 1011.77,-81.43 1013.65,-74.69"/>
</g>
<!-- Node18&#45;&gt;Node16 -->
<g id="edge20" class="edge">
<title>Node18&#45;&gt;Node16</title>
<path fill="none" stroke="midnightblue" d="M1205.6,-179.28C1196.05,-164.33 1175.03,-133.35 1152,-112 1138.93,-99.88 1122.26,-88.79 1108.7,-80.66"/>
<polygon fill="midnightblue" stroke="midnightblue" points="1110.29,-77.53 1099.89,-75.52 1106.76,-83.58 1110.29,-77.53"/>
</g>
<!-- Node18&#45;&gt;Node17 -->
<g id="edge22" class="edge">
<title>Node18&#45;&gt;Node17</title>
<path fill="none" stroke="midnightblue" d="M1245.72,-188.52C1327.06,-189.01 1526.72,-185.72 1575,-143 1591.04,-128.8 1594.54,-103.31 1594.85,-85.79"/>
<polygon fill="midnightblue" stroke="midnightblue" points="1598.35,-85.58 1594.7,-75.63 1591.35,-85.68 1598.35,-85.58"/>
</g>
<!-- Node18&#45;&gt;Node18 -->
<g id="edge23" class="edge">
<title>Node18&#45;&gt;Node18</title>
<path fill="none" stroke="midnightblue" d="M1233.39,-198.53C1248.61,-201.31 1263.5,-198.13 1263.5,-189 1263.5,-181.94 1254.59,-178.44 1243.51,-178.5"/>
<polygon fill="midnightblue" stroke="midnightblue" points="1243.01,-175.03 1233.39,-179.47 1243.68,-182 1243.01,-175.03"/>
</g>
<!-- Node19 -->
<g id="node19" class="node">
<title>Node19</title>
<g id="a_node19"><a xlink:title=" ">
<polygon fill="none" stroke="#bfbfbf" points="1308.5,-118 1308.5,-137 1451.5,-137 1451.5,-118 1308.5,-118"/>
<text text-anchor="middle" x="1380" y="-125" font-family="Helvetica,sans-Serif" font-size="10.00">BoosterSeat/numbers.hpp</text>
</a>
</g>
</g>
<!-- Node18&#45;&gt;Node19 -->
<g id="edge21" class="edge">
<title>Node18&#45;&gt;Node19</title>
<path fill="none" stroke="midnightblue" d="M1235.21,-179.48C1264.33,-169.22 1313.37,-151.96 1346.2,-140.4"/>
<polygon fill="midnightblue" stroke="midnightblue" points="1347.56,-143.63 1355.83,-137.01 1345.24,-137.03 1347.56,-143.63"/>
</g>
<!-- Node20 -->
<g id="node20" class="node">
<title>Node20</title>
<g id="a_node20"><a xlink:href="json_8hpp.html" target="_top" xlink:title="Simple wrapper around nlohmann/json.hpp to provide a common interface.">
<polygon fill="none" stroke="black" points="1508,-118 1508,-137 1566,-137 1566,-118 1508,-118"/>
<text text-anchor="middle" x="1537" y="-125" font-family="Helvetica,sans-Serif" font-size="10.00">json.hpp</text>
</a>
</g>
</g>
<!-- Node18&#45;&gt;Node20 -->
<g id="edge24" class="edge">
<title>Node18&#45;&gt;Node20</title>
<path fill="none" stroke="midnightblue" d="M1245.8,-181.85C1294.12,-173.29 1384.25,-157.23 1461,-143 1472.95,-140.78 1485.95,-138.32 1497.76,-136.07"/>
<polygon fill="midnightblue" stroke="midnightblue" points="1498.62,-139.47 1507.78,-134.15 1497.3,-132.59 1498.62,-139.47"/>
</g>
<!-- Node23 -->
<g id="node23" class="node">
<title>Node23</title>
<g id="a_node23"><a xlink:href="positional_8hpp.html" target="_top" xlink:title="Positional data for the flight system (gps/imu data)">
<polygon fill="none" stroke="black" points="1204,-118 1204,-137 1290,-137 1290,-118 1204,-118"/>
<text text-anchor="middle" x="1247" y="-125" font-family="Helvetica,sans-Serif" font-size="10.00">positional.hpp</text>
</a>
</g>
</g>
<!-- Node18&#45;&gt;Node23 -->
<g id="edge28" class="edge">
<title>Node18&#45;&gt;Node23</title>
<path fill="none" stroke="midnightblue" d="M1216.16,-179.48C1221.45,-170.73 1229.84,-156.87 1236.53,-145.81"/>
<polygon fill="midnightblue" stroke="midnightblue" points="1239.67,-147.38 1241.85,-137.01 1233.68,-143.75 1239.67,-147.38"/>
</g>
<!-- Node21 -->
<g id="node21" class="node">
<title>Node21</title>
<g id="a_node21"><a xlink:title=" ">
<polygon fill="none" stroke="#bfbfbf" points="1343,-56.5 1343,-75.5 1453,-75.5 1453,-56.5 1343,-56.5"/>
<text text-anchor="middle" x="1398" y="-63.5" font-family="Helvetica,sans-Serif" font-size="10.00">nlohmann/json.hpp</text>
</a>
</g>
</g>
<!-- Node20&#45;&gt;Node21 -->
<g id="edge25" class="edge">
<title>Node20&#45;&gt;Node21</title>
<path fill="none" stroke="midnightblue" d="M1517.08,-117.98C1493.55,-107.9 1454.19,-91.05 1427.21,-79.5"/>
<polygon fill="midnightblue" stroke="midnightblue" points="1428.45,-76.23 1417.88,-75.51 1425.69,-82.66 1428.45,-76.23"/>
</g>
<!-- Node22 -->
<g id="node22" class="node">
<title>Node22</title>
<g id="a_node22"><a xlink:title=" ">
<polygon fill="none" stroke="#bfbfbf" points="1203,-56.5 1203,-75.5 1247,-75.5 1247,-56.5 1203,-56.5"/>
<text text-anchor="middle" x="1225" y="-63.5" font-family="Helvetica,sans-Serif" font-size="10.00">string</text>
</a>
</g>
</g>
<!-- Node20&#45;&gt;Node22 -->
<g id="edge26" class="edge">
<title>Node20&#45;&gt;Node22</title>
<path fill="none" stroke="midnightblue" d="M1513.99,-117.99C1507.58,-115.82 1500.57,-113.65 1494,-112 1409.74,-90.89 1308.1,-76.93 1257.27,-70.71"/>
<polygon fill="midnightblue" stroke="midnightblue" points="1257.56,-67.22 1247.21,-69.5 1256.72,-74.17 1257.56,-67.22"/>
</g>
<!-- Node23&#45;&gt;Node9 -->
<g id="edge29" class="edge">
<title>Node23&#45;&gt;Node9</title>
<path fill="none" stroke="midnightblue" d="M1250.95,-117.82C1256.6,-104.06 1265.34,-76.69 1256,-56 1250.38,-43.56 1239.44,-33.17 1229.12,-25.53"/>
<polygon fill="midnightblue" stroke="midnightblue" points="1230.96,-22.54 1220.73,-19.76 1226.99,-28.31 1230.96,-22.54"/>
</g>
<!-- Node23&#45;&gt;Node10 -->
<g id="edge30" class="edge">
<title>Node23&#45;&gt;Node10</title>
<path fill="none" stroke="midnightblue" d="M1237.03,-117.9C1220.7,-104.02 1186.97,-76.2 1156,-56 1137.87,-44.17 1116.35,-32.57 1099.77,-24.11"/>
<polygon fill="midnightblue" stroke="midnightblue" points="1101.15,-20.88 1090.64,-19.51 1098,-27.14 1101.15,-20.88"/>
</g>
<!-- Node23&#45;&gt;Node16 -->
<g id="edge33" class="edge">
<title>Node23&#45;&gt;Node16</title>
<path fill="none" stroke="midnightblue" d="M1223.65,-117.98C1195.69,-107.77 1148.67,-90.61 1117.01,-79.05"/>
<polygon fill="midnightblue" stroke="midnightblue" points="1117.9,-75.65 1107.31,-75.51 1115.5,-82.23 1117.9,-75.65"/>
</g>
<!-- Node23&#45;&gt;Node17 -->
<g id="edge34" class="edge">
<title>Node23&#45;&gt;Node17</title>
<path fill="none" stroke="midnightblue" d="M1275.73,-117.99C1283.56,-115.85 1292.07,-113.69 1300,-112 1375.44,-95.96 1462.93,-83.32 1522.72,-75.57"/>
<polygon fill="midnightblue" stroke="midnightblue" points="1523.34,-79.02 1532.82,-74.28 1522.45,-72.08 1523.34,-79.02"/>
</g>
<!-- Node23&#45;&gt;Node21 -->
<g id="edge32" class="edge">
<title>Node23&#45;&gt;Node21</title>
<path fill="none" stroke="midnightblue" d="M1268.63,-117.98C1294.42,-107.81 1337.71,-90.76 1367.04,-79.2"/>
<polygon fill="midnightblue" stroke="midnightblue" points="1368.38,-82.43 1376.41,-75.51 1365.82,-75.92 1368.38,-82.43"/>
</g>
<!-- Node23&#45;&gt;Node22 -->
<g id="edge31" class="edge">
<title>Node23&#45;&gt;Node22</title>
<path fill="none" stroke="midnightblue" d="M1243.85,-117.98C1240.68,-109.4 1235.7,-95.93 1231.65,-84.98"/>
<polygon fill="midnightblue" stroke="midnightblue" points="1234.9,-83.67 1228.15,-75.51 1228.33,-86.1 1234.9,-83.67"/>
</g>
<!-- Node24&#45;&gt;Node16 -->
<g id="edge36" class="edge">
<title>Node24&#45;&gt;Node16</title>
<path fill="none" stroke="midnightblue" d="M897.52,-235.22C896.75,-211.8 897.99,-147.25 932,-112 945.46,-98.05 990.16,-85.82 1027.62,-77.65"/>
<polygon fill="midnightblue" stroke="midnightblue" points="1028.41,-81.06 1037.46,-75.55 1026.95,-74.21 1028.41,-81.06"/>
</g>
<!-- Node24&#45;&gt;Node25 -->
<g id="edge37" class="edge">
<title>Node24&#45;&gt;Node25</title>
<path fill="none" stroke="midnightblue" d="M910.21,-235.32C921.78,-227.11 939.38,-214.6 953.16,-204.81"/>
<polygon fill="midnightblue" stroke="midnightblue" points="955.44,-207.48 961.57,-198.83 951.39,-201.77 955.44,-207.48"/>
</g>
<!-- Node27 -->
<g id="node27" class="node">
<title>Node27</title>
<g id="a_node27"><a xlink:href="giraffe__diagnostic__ids_8hpp.html" target="_top" xlink:title=" ">
<polygon fill="none" stroke="black" points="742,-112.5 742,-142.5 846,-142.5 846,-112.5 742,-112.5"/>
<text text-anchor="start" x="750" y="-130.5" font-family="Helvetica,sans-Serif" font-size="10.00">giraffe_diagnostic</text>
<text text-anchor="middle" x="794" y="-119.5" font-family="Helvetica,sans-Serif" font-size="10.00">_ids.hpp</text>
</a>
</g>
</g>
<!-- Node24&#45;&gt;Node27 -->
<g id="edge40" class="edge">
<title>Node24&#45;&gt;Node27</title>
<path fill="none" stroke="midnightblue" d="M890.18,-235.32C874.07,-217.42 836.74,-175.97 813.61,-150.28"/>
<polygon fill="midnightblue" stroke="midnightblue" points="815.94,-147.63 806.65,-142.55 810.74,-152.32 815.94,-147.63"/>
</g>
<!-- Node24&#45;&gt;Node28 -->
<g id="edge41" class="edge">
<title>Node24&#45;&gt;Node28</title>
<path fill="none" stroke="midnightblue" d="M850.4,-235.68C792.74,-225.61 696.14,-208.72 637.91,-198.55"/>
<polygon fill="midnightblue" stroke="midnightblue" points="638.3,-195.06 627.85,-196.79 637.1,-201.96 638.3,-195.06"/>
</g>
<!-- Node25&#45;&gt;Node5 -->
<g id="edge38" class="edge">
<title>Node25&#45;&gt;Node5</title>
<path fill="none" stroke="midnightblue" d="M964.38,-179.44C945.19,-162.94 900.11,-127.06 855,-112 750.44,-77.11 407.38,-69.11 297.32,-67.42"/>
<polygon fill="midnightblue" stroke="midnightblue" points="297.16,-63.92 287.11,-67.27 297.06,-70.92 297.16,-63.92"/>
</g>
<!-- Node26 -->
<g id="node26" class="node">
<title>Node26</title>
<g id="a_node26"><a xlink:title=" ">
<polygon fill="none" stroke="#bfbfbf" points="940.5,-118 940.5,-137 1033.5,-137 1033.5,-118 940.5,-118"/>
<text text-anchor="middle" x="987" y="-125" font-family="Helvetica,sans-Serif" font-size="10.00">unordered_map</text>
</a>
</g>
</g>
<!-- Node25&#45;&gt;Node26 -->
<g id="edge39" class="edge">
<title>Node25&#45;&gt;Node26</title>
<path fill="none" stroke="midnightblue" d="M975.86,-179.48C977.72,-170.99 980.62,-157.7 983,-146.82"/>
<polygon fill="midnightblue" stroke="midnightblue" points="986.43,-147.53 985.14,-137.01 979.59,-146.03 986.43,-147.53"/>
</g>
<!-- Node28&#45;&gt;Node2 -->
<g id="edge42" class="edge">
<title>Node28&#45;&gt;Node2</title>
<path fill="none" stroke="midnightblue" d="M550.48,-184.66C530.87,-182.96 506.67,-180.86 485,-179 297.9,-162.9 247.24,-184.1 64,-143 60.93,-142.31 57.77,-141.44 54.65,-140.46"/>
<polygon fill="midnightblue" stroke="midnightblue" points="55.52,-137.06 44.93,-137.09 53.23,-143.67 55.52,-137.06"/>
</g>
<!-- Node28&#45;&gt;Node4 -->
<g id="edge49" class="edge">
<title>Node28&#45;&gt;Node4</title>
<path fill="none" stroke="midnightblue" d="M550.42,-183.25C486.6,-175.32 355.09,-158.72 244,-143 230.44,-141.08 215.81,-138.9 202.19,-136.83"/>
<polygon fill="midnightblue" stroke="midnightblue" points="202.42,-133.32 192.01,-135.27 201.36,-140.24 202.42,-133.32"/>
</g>
<!-- Node28&#45;&gt;Node5 -->
<g id="edge44" class="edge">
<title>Node28&#45;&gt;Node5</title>
<path fill="none" stroke="midnightblue" d="M550.33,-183.63C468.98,-174.28 286.79,-152.41 277,-143 261.77,-128.35 259.98,-102.96 260.86,-85.59"/>
<polygon fill="midnightblue" stroke="midnightblue" points="264.35,-85.79 261.71,-75.53 257.38,-85.2 264.35,-85.79"/>
</g>
<!-- Node28&#45;&gt;Node6 -->
<g id="edge45" class="edge">
<title>Node28&#45;&gt;Node6</title>
<path fill="none" stroke="midnightblue" d="M550.18,-184.59C434.38,-174.4 99.21,-144.78 97,-143 79.95,-129.26 74.81,-103.47 73.37,-85.77"/>
<polygon fill="midnightblue" stroke="midnightblue" points="76.86,-85.57 72.87,-75.75 69.87,-85.91 76.86,-85.57"/>
</g>
<!-- Node28&#45;&gt;Node8 -->
<g id="edge52" class="edge">
<title>Node28&#45;&gt;Node8</title>
<path fill="none" stroke="midnightblue" d="M602.4,-179.36C616.19,-170.41 638.25,-155.96 657,-143 676.38,-129.61 678.25,-121.05 700,-112 777.43,-79.78 876.28,-70.59 930.96,-67.99"/>
<polygon fill="midnightblue" stroke="midnightblue" points="931.12,-71.49 940.97,-67.57 930.83,-64.49 931.12,-71.49"/>
</g>
<!-- Node28&#45;&gt;Node16 -->
<g id="edge47" class="edge">
<title>Node28&#45;&gt;Node16</title>
<path fill="none" stroke="midnightblue" d="M584.06,-179.41C575.83,-163.8 561.79,-130.7 579,-112 610.1,-78.21 930.34,-80.65 1010.77,-75.81"/>
<polygon fill="midnightblue" stroke="midnightblue" points="1011.49,-79.27 1021.19,-75.01 1010.95,-72.29 1011.49,-79.27"/>
</g>
<!-- Node28&#45;&gt;Node22 -->
<g id="edge46" class="edge">
<title>Node28&#45;&gt;Node22</title>
<path fill="none" stroke="midnightblue" d="M612.67,-179.49C634.06,-171.38 666.07,-158.18 692,-143 711.71,-131.46 711.67,-120.18 733,-112 821.09,-78.22 1062.2,-86.1 1156,-76 1168.05,-74.7 1181.25,-73.04 1192.84,-71.5"/>
<polygon fill="midnightblue" stroke="midnightblue" points="1193.53,-74.94 1202.97,-70.13 1192.59,-68 1193.53,-74.94"/>
</g>
<!-- Node28&#45;&gt;Node23 -->
<g id="edge53" class="edge">
<title>Node28&#45;&gt;Node23</title>
<path fill="none" stroke="midnightblue" d="M627.7,-184.5C739.82,-174.36 1064.99,-144.96 1193.67,-133.32"/>
<polygon fill="midnightblue" stroke="midnightblue" points="1194.04,-136.8 1203.69,-132.42 1193.41,-129.83 1194.04,-136.8"/>
</g>
<!-- Node28&#45;&gt;Node27 -->
<g id="edge51" class="edge">
<title>Node28&#45;&gt;Node27</title>
<path fill="none" stroke="midnightblue" d="M618.37,-179.48C648.86,-170.63 697.36,-156.55 735.68,-145.43"/>
<polygon fill="midnightblue" stroke="midnightblue" points="737.06,-148.67 745.69,-142.52 735.11,-141.95 737.06,-148.67"/>
</g>
<!-- Node29 -->
<g id="node29" class="node">
<title>Node29</title>
<g id="a_node29"><a xlink:title=" ">
<polygon fill="none" stroke="#bfbfbf" points="588,-118 588,-137 648,-137 648,-118 588,-118"/>
<text text-anchor="middle" x="618" y="-125" font-family="Helvetica,sans-Serif" font-size="10.00">iostream</text>
</a>
</g>
</g>
<!-- Node28&#45;&gt;Node29 -->
<g id="edge43" class="edge">
<title>Node28&#45;&gt;Node29</title>
<path fill="none" stroke="midnightblue" d="M593.15,-179.48C597.38,-170.82 604.04,-157.15 609.4,-146.15"/>
<polygon fill="midnightblue" stroke="midnightblue" points="612.62,-147.53 613.85,-137.01 606.33,-144.46 612.62,-147.53"/>
</g>
<!-- Node30 -->
<g id="node30" class="node">
<title>Node30</title>
<g id="a_node30"><a xlink:title=" ">
<polygon fill="none" stroke="#bfbfbf" points="286,-118 286,-137 434,-137 434,-118 286,-118"/>
<text text-anchor="middle" x="360" y="-125" font-family="Helvetica,sans-Serif" font-size="10.00">BoosterSeat/exception.hpp</text>
</a>
</g>
</g>
<!-- Node28&#45;&gt;Node30 -->
<g id="edge48" class="edge">
<title>Node28&#45;&gt;Node30</title>
<path fill="none" stroke="midnightblue" d="M556.19,-179.48C515.8,-168.98 447.12,-151.14 402.67,-139.59"/>
<polygon fill="midnightblue" stroke="midnightblue" points="403.31,-136.14 392.75,-137.01 401.55,-142.91 403.31,-136.14"/>
</g>
<!-- Node31 -->
<g id="node31" class="node">
<title>Node31</title>
<g id="a_node31"><a xlink:href="data__ids_8hpp.html" target="_top" xlink:title=" ">
<polygon fill="none" stroke="black" points="452.5,-118 452.5,-137 531.5,-137 531.5,-118 452.5,-118"/>
<text text-anchor="middle" x="492" y="-125" font-family="Helvetica,sans-Serif" font-size="10.00">data_ids.hpp</text>
</a>
</g>
</g>
<!-- Node28&#45;&gt;Node31 -->
<g id="edge50" class="edge">
<title>Node28&#45;&gt;Node31</title>
<path fill="none" stroke="midnightblue" d="M575.1,-179.48C559.33,-169.8 533.36,-153.87 514.65,-142.39"/>
<polygon fill="midnightblue" stroke="midnightblue" points="516.23,-139.25 505.87,-137.01 512.57,-145.22 516.23,-139.25"/>
</g>
<!-- Node32&#45;&gt;Node5 -->
<g id="edge57" class="edge">
<title>Node32&#45;&gt;Node5</title>
<path fill="none" stroke="midnightblue" d="M409.47,-235.42C363,-223.52 290.8,-197.05 258,-143 247.52,-125.73 251.33,-102.01 256.1,-85.69"/>
<polygon fill="midnightblue" stroke="midnightblue" points="259.58,-86.33 259.4,-75.74 252.93,-84.13 259.58,-86.33"/>
</g>
<!-- Node33 -->
<g id="node33" class="node">
<title>Node33</title>
<g id="a_node33"><a xlink:title=" ">
<polygon fill="none" stroke="#bfbfbf" points="428.5,-179.5 428.5,-198.5 475.5,-198.5 475.5,-179.5 428.5,-179.5"/>
<text text-anchor="middle" x="452" y="-186.5" font-family="Helvetica,sans-Serif" font-size="10.00">deque</text>
</a>
</g>
</g>
<!-- Node32&#45;&gt;Node33 -->
<g id="edge56" class="edge">
<title>Node32&#45;&gt;Node33</title>
<path fill="none" stroke="midnightblue" d="M452,-235.08C452,-228.01 452,-217.86 452,-208.99"/>
<polygon fill="midnightblue" stroke="midnightblue" points="455.5,-208.75 452,-198.75 448.5,-208.75 455.5,-208.75"/>
</g>
</g>
</svg>
