<?xml version="1.0" encoding="UTF-8" standalone="no"?>
<!DOCTYPE svg PUBLIC "-//W3C//DTD SVG 1.1//EN"
 "http://www.w3.org/Graphics/SVG/1.1/DTD/svg11.dtd">
<!-- Generated by graphviz version 2.43.0 (0)
 -->
<!-- Title: module.cpp Pages: 1 -->
<svg width="1517pt" height="375pt"
 viewBox="0.00 0.00 1517.00 375.00" xmlns="http://www.w3.org/2000/svg" xmlns:xlink="http://www.w3.org/1999/xlink">
<g id="graph0" class="graph" transform="scale(1 1) rotate(0) translate(4 371)">
<title>module.cpp</title>
<!-- Node1 -->
<g id="node1" class="node">
<title>Node1</title>
<g id="a_node1"><a xlink:title="Implementation of the module base class.">
<polygon fill="#bfbfbf" stroke="black" points="1088,-347.5 1088,-366.5 1162,-366.5 1162,-347.5 1088,-347.5"/>
<text text-anchor="middle" x="1125" y="-354.5" font-family="Helvetica,sans-Serif" font-size="10.00">module.cpp</text>
</a>
</g>
</g>
<!-- Node2 -->
<g id="node2" class="node">
<title>Node2</title>
<g id="a_node2"><a xlink:href="module_8hpp.html" target="_top" xlink:title="The header file for the base module class.">
<polygon fill="none" stroke="black" points="739,-291.5 739,-310.5 813,-310.5 813,-291.5 739,-291.5"/>
<text text-anchor="middle" x="776" y="-298.5" font-family="Helvetica,sans-Serif" font-size="10.00">module.hpp</text>
</a>
</g>
</g>
<!-- Node1&#45;&gt;Node2 -->
<g id="edge1" class="edge">
<title>Node1&#45;&gt;Node2</title>
<path fill="none" stroke="midnightblue" d="M1087.98,-350.27C1024.11,-340.39 893.31,-320.15 823.07,-309.28"/>
<polygon fill="midnightblue" stroke="midnightblue" points="823.58,-305.82 813.16,-307.75 822.51,-312.74 823.58,-305.82"/>
</g>
<!-- Node4 -->
<g id="node4" class="node">
<title>Node4</title>
<g id="a_node4"><a xlink:title=" ">
<polygon fill="none" stroke="#bfbfbf" points="1224,-235.5 1224,-254.5 1272,-254.5 1272,-235.5 1224,-235.5"/>
<text text-anchor="middle" x="1248" y="-242.5" font-family="Helvetica,sans-Serif" font-size="10.00">thread</text>
</a>
</g>
</g>
<!-- Node1&#45;&gt;Node4 -->
<g id="edge49" class="edge">
<title>Node1&#45;&gt;Node4</title>
<path fill="none" stroke="midnightblue" d="M1113.68,-347.36C1098.18,-334.47 1073.81,-309.73 1088,-291 1091.89,-285.87 1168.14,-266.01 1213.96,-254.46"/>
<polygon fill="midnightblue" stroke="midnightblue" points="1214.94,-257.83 1223.78,-252 1213.23,-251.04 1214.94,-257.83"/>
</g>
<!-- Node31 -->
<g id="node31" class="node">
<title>Node31</title>
<g id="a_node31"><a xlink:title=" ">
<polygon fill="none" stroke="#bfbfbf" points="1097,-291.5 1097,-310.5 1153,-310.5 1153,-291.5 1097,-291.5"/>
<text text-anchor="middle" x="1125" y="-298.5" font-family="Helvetica,sans-Serif" font-size="10.00">iomanip</text>
</a>
</g>
</g>
<!-- Node1&#45;&gt;Node31 -->
<g id="edge47" class="edge">
<title>Node1&#45;&gt;Node31</title>
<path fill="none" stroke="midnightblue" d="M1125,-347.08C1125,-340.01 1125,-329.86 1125,-320.99"/>
<polygon fill="midnightblue" stroke="midnightblue" points="1128.5,-320.75 1125,-310.75 1121.5,-320.75 1128.5,-320.75"/>
</g>
<!-- Node32 -->
<g id="node32" class="node">
<title>Node32</title>
<g id="a_node32"><a xlink:title=" ">
<polygon fill="none" stroke="#bfbfbf" points="1171,-291.5 1171,-310.5 1227,-310.5 1227,-291.5 1171,-291.5"/>
<text text-anchor="middle" x="1199" y="-298.5" font-family="Helvetica,sans-Serif" font-size="10.00">sstream</text>
</a>
</g>
</g>
<!-- Node1&#45;&gt;Node32 -->
<g id="edge48" class="edge">
<title>Node1&#45;&gt;Node32</title>
<path fill="none" stroke="midnightblue" d="M1136.89,-347.32C1148.15,-339.11 1165.29,-326.6 1178.71,-316.81"/>
<polygon fill="midnightblue" stroke="midnightblue" points="1180.88,-319.56 1186.89,-310.83 1176.75,-313.9 1180.88,-319.56"/>
</g>
<!-- Node33 -->
<g id="node33" class="node">
<title>Node33</title>
<g id="a_node33"><a xlink:title=" ">
<polygon fill="none" stroke="#bfbfbf" points="1245.5,-291.5 1245.5,-310.5 1314.5,-310.5 1314.5,-291.5 1245.5,-291.5"/>
<text text-anchor="middle" x="1280" y="-298.5" font-family="Helvetica,sans-Serif" font-size="10.00">type_traits</text>
</a>
</g>
</g>
<!-- Node1&#45;&gt;Node33 -->
<g id="edge50" class="edge">
<title>Node1&#45;&gt;Node33</title>
<path fill="none" stroke="midnightblue" d="M1149.56,-347.44C1175.52,-338.4 1216.67,-324.06 1245.8,-313.92"/>
<polygon fill="midnightblue" stroke="midnightblue" points="1247.26,-317.11 1255.55,-310.52 1244.96,-310.5 1247.26,-317.11"/>
</g>
<!-- Node3 -->
<g id="node3" class="node">
<title>Node3</title>
<g id="a_node3"><a xlink:title=" ">
<polygon fill="none" stroke="#bfbfbf" points="0,-62 0,-81 50,-81 50,-62 0,-62"/>
<text text-anchor="middle" x="25" y="-69" font-family="Helvetica,sans-Serif" font-size="10.00">atomic</text>
</a>
</g>
</g>
<!-- Node2&#45;&gt;Node3 -->
<g id="edge2" class="edge">
<title>Node2&#45;&gt;Node3</title>
<path fill="none" stroke="midnightblue" d="M762.74,-291.44C741.02,-277.75 696.16,-250.88 655,-235 400.36,-136.77 317.8,-173.7 59,-87 57.08,-86.36 55.12,-85.65 53.16,-84.91"/>
<polygon fill="midnightblue" stroke="midnightblue" points="54.08,-81.51 43.5,-81.02 51.47,-88.01 54.08,-81.51"/>
</g>
<!-- Node2&#45;&gt;Node4 -->
<g id="edge3" class="edge">
<title>Node2&#45;&gt;Node4</title>
<path fill="none" stroke="midnightblue" d="M813.09,-297.78C888.33,-292.91 1064.18,-279.72 1210,-255 1211.28,-254.78 1212.58,-254.55 1213.89,-254.3"/>
<polygon fill="midnightblue" stroke="midnightblue" points="1214.9,-257.66 1223.97,-252.19 1213.47,-250.81 1214.9,-257.66"/>
</g>
<!-- Node5 -->
<g id="node5" class="node">
<title>Node5</title>
<g id="a_node5"><a xlink:title=" ">
<polygon fill="none" stroke="#bfbfbf" points="318,-235.5 318,-254.5 404,-254.5 404,-235.5 318,-235.5"/>
<text text-anchor="middle" x="361" y="-242.5" font-family="Helvetica,sans-Serif" font-size="10.00">command.hpp</text>
</a>
</g>
</g>
<!-- Node2&#45;&gt;Node5 -->
<g id="edge4" class="edge">
<title>Node2&#45;&gt;Node5</title>
<path fill="none" stroke="midnightblue" d="M738.82,-295.99C674.73,-288.94 539.12,-273.47 414.23,-255.12"/>
<polygon fill="midnightblue" stroke="midnightblue" points="414.51,-251.63 404.1,-253.62 413.48,-258.55 414.51,-251.63"/>
</g>
<!-- Node6 -->
<g id="node6" class="node">
<title>Node6</title>
<g id="a_node6"><a xlink:href="configuration_8hpp.html" target="_top" xlink:title=" ">
<polygon fill="none" stroke="black" points="422.5,-235.5 422.5,-254.5 523.5,-254.5 523.5,-235.5 422.5,-235.5"/>
<text text-anchor="middle" x="473" y="-242.5" font-family="Helvetica,sans-Serif" font-size="10.00">configuration.hpp</text>
</a>
</g>
</g>
<!-- Node2&#45;&gt;Node6 -->
<g id="edge5" class="edge">
<title>Node2&#45;&gt;Node6</title>
<path fill="none" stroke="midnightblue" d="M738.85,-293.38C686.9,-284.12 592.08,-267.22 530.85,-256.31"/>
<polygon fill="midnightblue" stroke="midnightblue" points="531.41,-252.85 520.95,-254.55 530.18,-259.75 531.41,-252.85"/>
</g>
<!-- Node7 -->
<g id="node7" class="node">
<title>Node7</title>
<g id="a_node7"><a xlink:title=" ">
<polygon fill="none" stroke="#bfbfbf" points="542,-235.5 542,-254.5 646,-254.5 646,-235.5 542,-235.5"/>
<text text-anchor="middle" x="594" y="-242.5" font-family="Helvetica,sans-Serif" font-size="10.00">giraffe_assert.hpp</text>
</a>
</g>
</g>
<!-- Node2&#45;&gt;Node7 -->
<g id="edge6" class="edge">
<title>Node2&#45;&gt;Node7</title>
<path fill="none" stroke="midnightblue" d="M747.16,-291.44C716.14,-282.24 666.67,-267.56 632.38,-257.39"/>
<polygon fill="midnightblue" stroke="midnightblue" points="633.29,-254.01 622.7,-254.52 631.29,-260.72 633.29,-254.01"/>
</g>
<!-- Node8 -->
<g id="node8" class="node">
<title>Node8</title>
<g id="a_node8"><a xlink:title=" ">
<polygon fill="none" stroke="#bfbfbf" points="1209,-62 1209,-81 1271,-81 1271,-62 1209,-62"/>
<text text-anchor="middle" x="1240" y="-69" font-family="Helvetica,sans-Serif" font-size="10.00">node.hpp</text>
</a>
</g>
</g>
<!-- Node2&#45;&gt;Node8 -->
<g id="edge7" class="edge">
<title>Node2&#45;&gt;Node8</title>
<path fill="none" stroke="midnightblue" d="M813.02,-293.9C889.02,-279.72 1064.79,-238.22 1176,-143 1195.31,-126.46 1214.52,-104.35 1226.78,-89.33"/>
<polygon fill="midnightblue" stroke="midnightblue" points="1229.61,-91.39 1233.14,-81.4 1224.15,-87.01 1229.61,-91.39"/>
</g>
<!-- Node9 -->
<g id="node9" class="node">
<title>Node9</title>
<g id="a_node9"><a xlink:href="shared__data_8hpp.html" target="_top" xlink:title="Contains the SharedData struct, used across all modules and extensions.">
<polygon fill="none" stroke="black" points="802,-235.5 802,-254.5 900,-254.5 900,-235.5 802,-235.5"/>
<text text-anchor="middle" x="851" y="-242.5" font-family="Helvetica,sans-Serif" font-size="10.00">shared_data.hpp</text>
</a>
</g>
</g>
<!-- Node2&#45;&gt;Node9 -->
<g id="edge8" class="edge">
<title>Node2&#45;&gt;Node9</title>
<path fill="none" stroke="midnightblue" d="M788.05,-291.32C799.46,-283.11 816.83,-270.6 830.43,-260.81"/>
<polygon fill="midnightblue" stroke="midnightblue" points="832.66,-263.52 838.73,-254.83 828.57,-257.84 832.66,-263.52"/>
</g>
<!-- Node10 -->
<g id="node10" class="node">
<title>Node10</title>
<g id="a_node10"><a xlink:title=" ">
<polygon fill="none" stroke="#bfbfbf" points="724.5,-0.5 724.5,-19.5 849.5,-19.5 849.5,-0.5 724.5,-0.5"/>
<text text-anchor="middle" x="787" y="-7.5" font-family="Helvetica,sans-Serif" font-size="10.00">BoosterSeat/clock.hpp</text>
</a>
</g>
</g>
<!-- Node9&#45;&gt;Node10 -->
<g id="edge9" class="edge">
<title>Node9&#45;&gt;Node10</title>
<path fill="none" stroke="midnightblue" d="M848.65,-235.43C839.38,-201.68 805.26,-77.47 792.16,-29.8"/>
<polygon fill="midnightblue" stroke="midnightblue" points="795.47,-28.61 789.44,-19.9 788.72,-30.47 795.47,-28.61"/>
</g>
<!-- Node11 -->
<g id="node11" class="node">
<title>Node11</title>
<g id="a_node11"><a xlink:title=" ">
<polygon fill="none" stroke="#bfbfbf" points="1031,-62 1031,-81 1153,-81 1153,-62 1031,-62"/>
<text text-anchor="middle" x="1092" y="-69" font-family="Helvetica,sans-Serif" font-size="10.00">BoosterSeat/time.hpp</text>
</a>
</g>
</g>
<!-- Node9&#45;&gt;Node11 -->
<g id="edge10" class="edge">
<title>Node9&#45;&gt;Node11</title>
<path fill="none" stroke="midnightblue" d="M900.14,-241.33C937.02,-237.07 986.99,-226.24 1022,-199 1040.78,-184.39 1070.13,-122.05 1084.1,-90.68"/>
<polygon fill="midnightblue" stroke="midnightblue" points="1087.38,-91.91 1088.21,-81.34 1080.98,-89.09 1087.38,-91.91"/>
</g>
<!-- Node12 -->
<g id="node12" class="node">
<title>Node12</title>
<g id="a_node12"><a xlink:href="blocks_8hpp.html" target="_top" xlink:title=" ">
<polygon fill="none" stroke="black" points="1080.5,-123.5 1080.5,-142.5 1149.5,-142.5 1149.5,-123.5 1080.5,-123.5"/>
<text text-anchor="middle" x="1115" y="-130.5" font-family="Helvetica,sans-Serif" font-size="10.00">blocks.hpp</text>
</a>
</g>
</g>
<!-- Node9&#45;&gt;Node12 -->
<g id="edge11" class="edge">
<title>Node9&#45;&gt;Node12</title>
<path fill="none" stroke="midnightblue" d="M900.35,-243.39C946.48,-240.68 1015.61,-230.98 1066,-199 1084.03,-187.55 1097.85,-166.97 1106.15,-152.03"/>
<polygon fill="midnightblue" stroke="midnightblue" points="1109.46,-153.25 1110.99,-142.76 1103.25,-150 1109.46,-153.25"/>
</g>
<!-- Node20 -->
<g id="node20" class="node">
<title>Node20</title>
<g id="a_node20"><a xlink:href="error__frame_8hpp.html" target="_top" xlink:title="The error frame.">
<polygon fill="none" stroke="black" points="703.5,-179.5 703.5,-198.5 798.5,-198.5 798.5,-179.5 703.5,-179.5"/>
<text text-anchor="middle" x="751" y="-186.5" font-family="Helvetica,sans-Serif" font-size="10.00">error_frame.hpp</text>
</a>
</g>
</g>
<!-- Node9&#45;&gt;Node20 -->
<g id="edge24" class="edge">
<title>Node9&#45;&gt;Node20</title>
<path fill="none" stroke="midnightblue" d="M834.93,-235.32C819.04,-226.74 794.49,-213.49 776.04,-203.52"/>
<polygon fill="midnightblue" stroke="midnightblue" points="777.49,-200.33 767.03,-198.65 774.16,-206.49 777.49,-200.33"/>
</g>
<!-- Node21 -->
<g id="node21" class="node">
<title>Node21</title>
<g id="a_node21"><a xlink:href="frame_8hpp.html" target="_top" xlink:title=" ">
<polygon fill="none" stroke="black" points="853.5,-123.5 853.5,-142.5 920.5,-142.5 920.5,-123.5 853.5,-123.5"/>
<text text-anchor="middle" x="887" y="-130.5" font-family="Helvetica,sans-Serif" font-size="10.00">frame.hpp</text>
</a>
</g>
</g>
<!-- Node9&#45;&gt;Node21 -->
<g id="edge42" class="edge">
<title>Node9&#45;&gt;Node21</title>
<path fill="none" stroke="midnightblue" d="M853.82,-235.37C859.66,-217.54 873.16,-176.3 881.02,-152.27"/>
<polygon fill="midnightblue" stroke="midnightblue" points="884.4,-153.18 884.19,-142.59 877.75,-151.01 884.4,-153.18"/>
</g>
<!-- Node24 -->
<g id="node24" class="node">
<title>Node24</title>
<g id="a_node24"><a xlink:href="streams_8hpp.html" target="_top" xlink:title="The header file for the data streams.">
<polygon fill="none" stroke="black" points="638.5,-123.5 638.5,-142.5 715.5,-142.5 715.5,-123.5 638.5,-123.5"/>
<text text-anchor="middle" x="677" y="-130.5" font-family="Helvetica,sans-Serif" font-size="10.00">streams.hpp</text>
</a>
</g>
</g>
<!-- Node9&#45;&gt;Node24 -->
<g id="edge46" class="edge">
<title>Node9&#45;&gt;Node24</title>
<path fill="none" stroke="midnightblue" d="M801.7,-242.27C767.05,-238.42 722.04,-227.7 694,-199 682.17,-186.89 678.29,-167.61 677.15,-153.18"/>
<polygon fill="midnightblue" stroke="midnightblue" points="680.63,-152.74 676.72,-142.89 673.64,-153.03 680.63,-152.74"/>
</g>
<!-- Node29 -->
<g id="node29" class="node">
<title>Node29</title>
<g id="a_node29"><a xlink:href="log__container_8hpp.html" target="_top" xlink:title="A simple logging system for debugging.">
<polygon fill="none" stroke="black" points="910.5,-179.5 910.5,-198.5 1013.5,-198.5 1013.5,-179.5 910.5,-179.5"/>
<text text-anchor="middle" x="962" y="-186.5" font-family="Helvetica,sans-Serif" font-size="10.00">log_container.hpp</text>
</a>
</g>
</g>
<!-- Node9&#45;&gt;Node29 -->
<g id="edge43" class="edge">
<title>Node9&#45;&gt;Node29</title>
<path fill="none" stroke="midnightblue" d="M868.83,-235.32C886.72,-226.62 914.48,-213.12 935.05,-203.11"/>
<polygon fill="midnightblue" stroke="midnightblue" points="936.75,-206.18 944.21,-198.65 933.69,-199.88 936.75,-206.18"/>
</g>
<!-- Node12&#45;&gt;Node8 -->
<g id="edge18" class="edge">
<title>Node12&#45;&gt;Node8</title>
<path fill="none" stroke="midnightblue" d="M1132.91,-123.48C1153.89,-113.49 1188.85,-96.85 1213.09,-85.31"/>
<polygon fill="midnightblue" stroke="midnightblue" points="1214.6,-88.47 1222.12,-81.01 1211.59,-82.15 1214.6,-88.47"/>
</g>
<!-- Node12&#45;&gt;Node10 -->
<g id="edge13" class="edge">
<title>Node12&#45;&gt;Node10</title>
<path fill="none" stroke="midnightblue" d="M1127.28,-123.38C1146.94,-108.58 1181.36,-77.82 1162,-56 1142.31,-33.81 963.05,-20.5 859.68,-14.61"/>
<polygon fill="midnightblue" stroke="midnightblue" points="859.79,-11.11 849.61,-14.05 859.4,-18.1 859.79,-11.11"/>
</g>
<!-- Node12&#45;&gt;Node11 -->
<g id="edge15" class="edge">
<title>Node12&#45;&gt;Node11</title>
<path fill="none" stroke="midnightblue" d="M1111.7,-123.48C1108.39,-114.9 1103.18,-101.43 1098.95,-90.48"/>
<polygon fill="midnightblue" stroke="midnightblue" points="1102.16,-89.07 1095.29,-81.01 1095.63,-91.6 1102.16,-89.07"/>
</g>
<!-- Node12&#45;&gt;Node12 -->
<g id="edge16" class="edge">
<title>Node12&#45;&gt;Node12</title>
<path fill="none" stroke="midnightblue" d="M1137.39,-142.53C1152.61,-145.31 1167.5,-142.13 1167.5,-133 1167.5,-125.94 1158.59,-122.44 1147.51,-122.5"/>
<polygon fill="midnightblue" stroke="midnightblue" points="1147.01,-119.03 1137.39,-123.47 1147.68,-126 1147.01,-119.03"/>
</g>
<!-- Node13 -->
<g id="node13" class="node">
<title>Node13</title>
<g id="a_node13"><a xlink:title=" ">
<polygon fill="none" stroke="#bfbfbf" points="965,-62 965,-81 1013,-81 1013,-62 965,-62"/>
<text text-anchor="middle" x="989" y="-69" font-family="Helvetica,sans-Serif" font-size="10.00">mutex</text>
</a>
</g>
</g>
<!-- Node12&#45;&gt;Node13 -->
<g id="edge12" class="edge">
<title>Node12&#45;&gt;Node13</title>
<path fill="none" stroke="midnightblue" d="M1096.95,-123.48C1075.8,-113.49 1040.56,-96.85 1016.12,-85.31"/>
<polygon fill="midnightblue" stroke="midnightblue" points="1017.56,-82.11 1007.02,-81.01 1014.57,-88.44 1017.56,-82.11"/>
</g>
<!-- Node14 -->
<g id="node14" class="node">
<title>Node14</title>
<g id="a_node14"><a xlink:title=" ">
<polygon fill="none" stroke="#bfbfbf" points="1289.5,-62 1289.5,-81 1432.5,-81 1432.5,-62 1289.5,-62"/>
<text text-anchor="middle" x="1361" y="-69" font-family="Helvetica,sans-Serif" font-size="10.00">BoosterSeat/numbers.hpp</text>
</a>
</g>
</g>
<!-- Node12&#45;&gt;Node14 -->
<g id="edge14" class="edge">
<title>Node12&#45;&gt;Node14</title>
<path fill="none" stroke="midnightblue" d="M1149.72,-123.6C1193.25,-113.07 1267.94,-95.01 1315.86,-83.42"/>
<polygon fill="midnightblue" stroke="midnightblue" points="1316.76,-86.8 1325.66,-81.05 1315.11,-80 1316.76,-86.8"/>
</g>
<!-- Node15 -->
<g id="node15" class="node">
<title>Node15</title>
<g id="a_node15"><a xlink:title=" ">
<polygon fill="none" stroke="#bfbfbf" points="1451,-62 1451,-81 1509,-81 1509,-62 1451,-62"/>
<text text-anchor="middle" x="1480" y="-69" font-family="Helvetica,sans-Serif" font-size="10.00">json.hpp</text>
</a>
</g>
</g>
<!-- Node12&#45;&gt;Node15 -->
<g id="edge17" class="edge">
<title>Node12&#45;&gt;Node15</title>
<path fill="none" stroke="midnightblue" d="M1149.74,-129.71C1209.85,-125.2 1336.84,-113.22 1441,-87 1443.99,-86.25 1447.06,-85.35 1450.11,-84.36"/>
<polygon fill="midnightblue" stroke="midnightblue" points="1451.34,-87.64 1459.62,-81.03 1449.03,-81.03 1451.34,-87.64"/>
</g>
<!-- Node16 -->
<g id="node16" class="node">
<title>Node16</title>
<g id="a_node16"><a xlink:href="positional_8hpp.html" target="_top" xlink:title="Positional data for the flight system (gps/imu data)">
<polygon fill="none" stroke="black" points="635,-62 635,-81 721,-81 721,-62 635,-62"/>
<text text-anchor="middle" x="678" y="-69" font-family="Helvetica,sans-Serif" font-size="10.00">positional.hpp</text>
</a>
</g>
</g>
<!-- Node12&#45;&gt;Node16 -->
<g id="edge19" class="edge">
<title>Node12&#45;&gt;Node16</title>
<path fill="none" stroke="midnightblue" d="M1080.34,-127.28C1004.24,-116.92 822.09,-92.12 731.31,-79.76"/>
<polygon fill="midnightblue" stroke="midnightblue" points="731.62,-76.27 721.23,-78.39 730.67,-83.2 731.62,-76.27"/>
</g>
<!-- Node16&#45;&gt;Node10 -->
<g id="edge23" class="edge">
<title>Node16&#45;&gt;Node10</title>
<path fill="none" stroke="midnightblue" d="M693.62,-61.98C711.59,-52.17 741.32,-35.93 762.41,-24.42"/>
<polygon fill="midnightblue" stroke="midnightblue" points="764.31,-27.37 771.41,-19.51 760.96,-21.23 764.31,-27.37"/>
</g>
<!-- Node17 -->
<g id="node17" class="node">
<title>Node17</title>
<g id="a_node17"><a xlink:title=" ">
<polygon fill="none" stroke="#bfbfbf" points="654,-0.5 654,-19.5 704,-19.5 704,-0.5 654,-0.5"/>
<text text-anchor="middle" x="679" y="-7.5" font-family="Helvetica,sans-Serif" font-size="10.00">cstdint</text>
</a>
</g>
</g>
<!-- Node16&#45;&gt;Node17 -->
<g id="edge20" class="edge">
<title>Node16&#45;&gt;Node17</title>
<path fill="none" stroke="midnightblue" d="M678.14,-61.98C678.28,-53.58 678.5,-40.48 678.69,-29.66"/>
<polygon fill="midnightblue" stroke="midnightblue" points="682.19,-29.57 678.86,-19.51 675.19,-29.45 682.19,-29.57"/>
</g>
<!-- Node18 -->
<g id="node18" class="node">
<title>Node18</title>
<g id="a_node18"><a xlink:title=" ">
<polygon fill="none" stroke="#bfbfbf" points="598,-0.5 598,-19.5 636,-19.5 636,-0.5 598,-0.5"/>
<text text-anchor="middle" x="617" y="-7.5" font-family="Helvetica,sans-Serif" font-size="10.00">map</text>
</a>
</g>
</g>
<!-- Node16&#45;&gt;Node18 -->
<g id="edge21" class="edge">
<title>Node16&#45;&gt;Node18</title>
<path fill="none" stroke="midnightblue" d="M669.26,-61.98C659.84,-52.78 644.64,-37.96 633.05,-26.66"/>
<polygon fill="midnightblue" stroke="midnightblue" points="635.33,-23.99 625.72,-19.51 630.44,-29 635.33,-23.99"/>
</g>
<!-- Node19 -->
<g id="node19" class="node">
<title>Node19</title>
<g id="a_node19"><a xlink:title=" ">
<polygon fill="none" stroke="#bfbfbf" points="467,-0.5 467,-19.5 511,-19.5 511,-0.5 467,-0.5"/>
<text text-anchor="middle" x="489" y="-7.5" font-family="Helvetica,sans-Serif" font-size="10.00">string</text>
</a>
</g>
</g>
<!-- Node16&#45;&gt;Node19 -->
<g id="edge22" class="edge">
<title>Node16&#45;&gt;Node19</title>
<path fill="none" stroke="midnightblue" d="M650.92,-61.98C616.49,-51.14 557.16,-32.46 520.67,-20.97"/>
<polygon fill="midnightblue" stroke="midnightblue" points="521.61,-17.6 511.02,-17.93 519.51,-24.27 521.61,-17.6"/>
</g>
<!-- Node20&#45;&gt;Node10 -->
<g id="edge25" class="edge">
<title>Node20&#45;&gt;Node10</title>
<path fill="none" stroke="midnightblue" d="M752.74,-179.46C758.24,-152.43 775.36,-68.24 783.11,-30.11"/>
<polygon fill="midnightblue" stroke="midnightblue" points="786.63,-30.37 785.2,-19.87 779.77,-28.97 786.63,-30.37"/>
</g>
<!-- Node20&#45;&gt;Node21 -->
<g id="edge26" class="edge">
<title>Node20&#45;&gt;Node21</title>
<path fill="none" stroke="midnightblue" d="M772.55,-179.44C795.03,-170.52 830.49,-156.44 855.98,-146.32"/>
<polygon fill="midnightblue" stroke="midnightblue" points="857.55,-149.46 865.55,-142.52 854.97,-142.95 857.55,-149.46"/>
</g>
<!-- Node23 -->
<g id="node23" class="node">
<title>Node23</title>
<g id="a_node23"><a xlink:title=" ">
<polygon fill="none" stroke="#bfbfbf" points="513,-56.5 513,-86.5 617,-86.5 617,-56.5 513,-56.5"/>
<text text-anchor="start" x="521" y="-74.5" font-family="Helvetica,sans-Serif" font-size="10.00">giraffe_diagnostic</text>
<text text-anchor="middle" x="565" y="-63.5" font-family="Helvetica,sans-Serif" font-size="10.00">_ids.hpp</text>
</a>
</g>
</g>
<!-- Node20&#45;&gt;Node23 -->
<g id="edge29" class="edge">
<title>Node20&#45;&gt;Node23</title>
<path fill="none" stroke="midnightblue" d="M749.73,-179.07C747.27,-165.13 740.57,-138.2 724,-123 716.39,-116.02 667.94,-101.15 626.5,-89.35"/>
<polygon fill="midnightblue" stroke="midnightblue" points="627.27,-85.93 616.7,-86.57 625.37,-92.66 627.27,-85.93"/>
</g>
<!-- Node20&#45;&gt;Node24 -->
<g id="edge30" class="edge">
<title>Node20&#45;&gt;Node24</title>
<path fill="none" stroke="midnightblue" d="M739.11,-179.32C727.85,-171.11 710.71,-158.6 697.29,-148.81"/>
<polygon fill="midnightblue" stroke="midnightblue" points="699.25,-145.9 689.11,-142.83 695.12,-151.56 699.25,-145.9"/>
</g>
<!-- Node21&#45;&gt;Node13 -->
<g id="edge27" class="edge">
<title>Node21&#45;&gt;Node13</title>
<path fill="none" stroke="midnightblue" d="M901.61,-123.48C918.35,-113.71 946,-97.58 965.72,-86.08"/>
<polygon fill="midnightblue" stroke="midnightblue" points="967.54,-89.07 974.41,-81.01 964.01,-83.02 967.54,-89.07"/>
</g>
<!-- Node22 -->
<g id="node22" class="node">
<title>Node22</title>
<g id="a_node22"><a xlink:title=" ">
<polygon fill="none" stroke="#bfbfbf" points="853.5,-62 853.5,-81 946.5,-81 946.5,-62 853.5,-62"/>
<text text-anchor="middle" x="900" y="-69" font-family="Helvetica,sans-Serif" font-size="10.00">unordered_map</text>
</a>
</g>
</g>
<!-- Node21&#45;&gt;Node22 -->
<g id="edge28" class="edge">
<title>Node21&#45;&gt;Node22</title>
<path fill="none" stroke="midnightblue" d="M888.86,-123.48C890.72,-114.99 893.62,-101.7 896,-90.82"/>
<polygon fill="midnightblue" stroke="midnightblue" points="899.43,-91.53 898.14,-81.01 892.59,-90.03 899.43,-91.53"/>
</g>
<!-- Node24&#45;&gt;Node3 -->
<g id="edge31" class="edge">
<title>Node24&#45;&gt;Node3</title>
<path fill="none" stroke="midnightblue" d="M638.28,-124.94C633.48,-124.21 628.64,-123.54 624,-123 374.07,-93.9 303.8,-145.19 59,-87 56.49,-86.4 53.92,-85.63 51.39,-84.76"/>
<polygon fill="midnightblue" stroke="midnightblue" points="52.5,-81.44 41.91,-81.05 49.94,-87.96 52.5,-81.44"/>
</g>
<!-- Node24&#45;&gt;Node8 -->
<g id="edge40" class="edge">
<title>Node24&#45;&gt;Node8</title>
<path fill="none" stroke="midnightblue" d="M715.8,-129.61C798.23,-124.26 996.79,-109.97 1162,-87 1174.03,-85.33 1187.02,-83.09 1198.89,-80.87"/>
<polygon fill="midnightblue" stroke="midnightblue" points="1199.82,-84.25 1208.98,-78.94 1198.5,-77.38 1199.82,-84.25"/>
</g>
<!-- Node24&#45;&gt;Node10 -->
<g id="edge36" class="edge">
<title>Node24&#45;&gt;Node10</title>
<path fill="none" stroke="midnightblue" d="M688.61,-123.37C699.8,-114.77 716.93,-100.89 730,-87 747.58,-68.33 764.83,-44.3 775.67,-28.31"/>
<polygon fill="midnightblue" stroke="midnightblue" points="778.62,-30.19 781.26,-19.93 772.8,-26.3 778.62,-30.19"/>
</g>
<!-- Node24&#45;&gt;Node13 -->
<g id="edge33" class="edge">
<title>Node24&#45;&gt;Node13</title>
<path fill="none" stroke="midnightblue" d="M715.87,-128.71C770.23,-123.43 871.64,-111.13 955,-87 957.29,-86.34 959.63,-85.56 961.96,-84.72"/>
<polygon fill="midnightblue" stroke="midnightblue" points="963.3,-87.95 971.3,-81.01 960.71,-81.45 963.3,-87.95"/>
</g>
<!-- Node24&#45;&gt;Node16 -->
<g id="edge41" class="edge">
<title>Node24&#45;&gt;Node16</title>
<path fill="none" stroke="midnightblue" d="M677.14,-123.48C677.28,-115.08 677.5,-101.98 677.69,-91.16"/>
<polygon fill="midnightblue" stroke="midnightblue" points="681.19,-91.07 677.86,-81.01 674.19,-90.95 681.19,-91.07"/>
</g>
<!-- Node24&#45;&gt;Node19 -->
<g id="edge35" class="edge">
<title>Node24&#45;&gt;Node19</title>
<path fill="none" stroke="midnightblue" d="M638.44,-125.38C571.64,-113.84 441.2,-90.86 438,-87 429.21,-76.39 432.33,-68.56 438,-56 443.62,-43.56 454.56,-33.17 464.88,-25.53"/>
<polygon fill="midnightblue" stroke="midnightblue" points="467.01,-28.31 473.27,-19.76 463.04,-22.54 467.01,-28.31"/>
</g>
<!-- Node24&#45;&gt;Node23 -->
<g id="edge39" class="edge">
<title>Node24&#45;&gt;Node23</title>
<path fill="none" stroke="midnightblue" d="M660.95,-123.48C645.22,-115.12 620.7,-102.09 600.39,-91.3"/>
<polygon fill="midnightblue" stroke="midnightblue" points="601.87,-88.12 591.4,-86.52 598.59,-94.31 601.87,-88.12"/>
</g>
<!-- Node25 -->
<g id="node25" class="node">
<title>Node25</title>
<g id="a_node25"><a xlink:title=" ">
<polygon fill="none" stroke="#bfbfbf" points="331,-62 331,-81 391,-81 391,-62 331,-62"/>
<text text-anchor="middle" x="361" y="-69" font-family="Helvetica,sans-Serif" font-size="10.00">iostream</text>
</a>
</g>
</g>
<!-- Node24&#45;&gt;Node25 -->
<g id="edge32" class="edge">
<title>Node24&#45;&gt;Node25</title>
<path fill="none" stroke="midnightblue" d="M638.22,-125.39C633.43,-124.58 628.6,-123.77 624,-123 526.71,-106.74 500.8,-110.51 405,-87 401.54,-86.15 397.95,-85.16 394.39,-84.1"/>
<polygon fill="midnightblue" stroke="midnightblue" points="395.14,-80.67 384.55,-81.01 393.04,-87.35 395.14,-80.67"/>
</g>
<!-- Node26 -->
<g id="node26" class="node">
<title>Node26</title>
<g id="a_node26"><a xlink:title=" ">
<polygon fill="none" stroke="#bfbfbf" points="447.5,-62 447.5,-81 494.5,-81 494.5,-62 447.5,-62"/>
<text text-anchor="middle" x="471" y="-69" font-family="Helvetica,sans-Serif" font-size="10.00">queue</text>
</a>
</g>
</g>
<!-- Node24&#45;&gt;Node26 -->
<g id="edge34" class="edge">
<title>Node24&#45;&gt;Node26</title>
<path fill="none" stroke="midnightblue" d="M638.34,-123.81C602.93,-115.86 549.29,-102.73 504,-87 502.14,-86.35 500.23,-85.65 498.33,-84.9"/>
<polygon fill="midnightblue" stroke="midnightblue" points="499.53,-81.61 488.95,-81.01 496.84,-88.08 499.53,-81.61"/>
</g>
<!-- Node27 -->
<g id="node27" class="node">
<title>Node27</title>
<g id="a_node27"><a xlink:title=" ">
<polygon fill="none" stroke="#bfbfbf" points="68,-62 68,-81 216,-81 216,-62 68,-62"/>
<text text-anchor="middle" x="142" y="-69" font-family="Helvetica,sans-Serif" font-size="10.00">BoosterSeat/exception.hpp</text>
</a>
</g>
</g>
<!-- Node24&#45;&gt;Node27 -->
<g id="edge37" class="edge">
<title>Node24&#45;&gt;Node27</title>
<path fill="none" stroke="midnightblue" d="M638.27,-125.06C633.47,-124.31 628.63,-123.6 624,-123 447.43,-100.08 401.52,-110.34 225,-87 215.84,-85.79 206.15,-84.29 196.75,-82.73"/>
<polygon fill="midnightblue" stroke="midnightblue" points="197.14,-79.24 186.69,-81.01 195.96,-86.14 197.14,-79.24"/>
</g>
<!-- Node28 -->
<g id="node28" class="node">
<title>Node28</title>
<g id="a_node28"><a xlink:href="data__ids_8hpp.html" target="_top" xlink:title=" ">
<polygon fill="none" stroke="black" points="234.5,-62 234.5,-81 313.5,-81 313.5,-62 234.5,-62"/>
<text text-anchor="middle" x="274" y="-69" font-family="Helvetica,sans-Serif" font-size="10.00">data_ids.hpp</text>
</a>
</g>
</g>
<!-- Node24&#45;&gt;Node28 -->
<g id="edge38" class="edge">
<title>Node24&#45;&gt;Node28</title>
<path fill="none" stroke="midnightblue" d="M638.25,-125.19C633.45,-124.42 628.62,-123.67 624,-123 490.22,-103.68 454.31,-114.65 322,-87 317.78,-86.12 313.4,-85.04 309.08,-83.86"/>
<polygon fill="midnightblue" stroke="midnightblue" points="309.77,-80.42 299.2,-81.01 307.83,-87.15 309.77,-80.42"/>
</g>
<!-- Node29&#45;&gt;Node13 -->
<g id="edge45" class="edge">
<title>Node29&#45;&gt;Node13</title>
<path fill="none" stroke="midnightblue" d="M970.75,-179.29C978.56,-170.84 989.45,-157.25 994,-143 999.41,-126.05 997.09,-105.68 994.06,-91.2"/>
<polygon fill="midnightblue" stroke="midnightblue" points="997.45,-90.34 991.71,-81.43 990.64,-91.97 997.45,-90.34"/>
</g>
<!-- Node30 -->
<g id="node30" class="node">
<title>Node30</title>
<g id="a_node30"><a xlink:title=" ">
<polygon fill="none" stroke="#bfbfbf" points="938.5,-123.5 938.5,-142.5 985.5,-142.5 985.5,-123.5 938.5,-123.5"/>
<text text-anchor="middle" x="962" y="-130.5" font-family="Helvetica,sans-Serif" font-size="10.00">deque</text>
</a>
</g>
</g>
<!-- Node29&#45;&gt;Node30 -->
<g id="edge44" class="edge">
<title>Node29&#45;&gt;Node30</title>
<path fill="none" stroke="midnightblue" d="M962,-179.08C962,-172.01 962,-161.86 962,-152.99"/>
<polygon fill="midnightblue" stroke="midnightblue" points="965.5,-152.75 962,-142.75 958.5,-152.75 965.5,-152.75"/>
</g>
</g>
</svg>
