<?xml version="1.0" encoding="UTF-8" standalone="no"?>
<!DOCTYPE svg PUBLIC "-//W3C//DTD SVG 1.1//EN"
 "http://www.w3.org/Graphics/SVG/1.1/DTD/svg11.dtd">
<!-- Generated by graphviz version 2.43.0 (0)
 -->
<!-- Title: giraffe::file_paths::getGiraffeDirectoryPath Pages: 1 -->
<svg width="1254pt" height="656pt"
 viewBox="0.00 0.00 1254.00 655.50" xmlns="http://www.w3.org/2000/svg" xmlns:xlink="http://www.w3.org/1999/xlink">
<g id="graph0" class="graph" transform="scale(1 1) rotate(0) translate(4 651.5)">
<title>giraffe::file_paths::getGiraffeDirectoryPath</title>
<!-- Node1 -->
<g id="Node000001" class="node">
<title>Node1</title>
<g id="a_Node000001"><a xlink:title="Get the Giraffe Directory Path.">
<polygon fill="#999999" stroke="#666666" points="1246,-309.5 1109,-309.5 1109,-279.5 1246,-279.5 1246,-309.5"/>
<text text-anchor="start" x="1117" y="-297.5" font-family="Helvetica,sans-Serif" font-size="10.00">giraffe::file_paths</text>
<text text-anchor="middle" x="1177.5" y="-286.5" font-family="Helvetica,sans-Serif" font-size="10.00">::getGiraffeDirectoryPath</text>
</a>
</g>
</g>
<!-- Node2 -->
<g id="Node000002" class="node">
<title>Node2</title>
<g id="a_Node000002"><a xlink:href="classdata__middleware_1_1FileSystemManager.html#a1f770961749860965494383544803c5b" target="_top" xlink:title=" ">
<polygon fill="white" stroke="#666666" points="642.5,-647.5 480.5,-647.5 480.5,-617.5 642.5,-617.5 642.5,-647.5"/>
<text text-anchor="start" x="488.5" y="-635.5" font-family="Helvetica,sans-Serif" font-size="10.00">data_middleware::FileSystem</text>
<text text-anchor="middle" x="561.5" y="-624.5" font-family="Helvetica,sans-Serif" font-size="10.00">Manager::FileSystemManager</text>
</a>
</g>
</g>
<!-- Node1&#45;&gt;Node2 -->
<g id="edge1_Node000001_Node000002" class="edge">
<title>Node1&#45;&gt;Node2</title>
<g id="a_edge1_Node000001_Node000002"><a xlink:title=" ">
<path fill="none" stroke="#63b8ff" d="M1162.81,-318.21C1145.11,-347.23 1111.89,-396.45 1073,-428.5 941.72,-536.7 745.76,-593.13 638.83,-617.42"/>
<polygon fill="#63b8ff" stroke="#63b8ff" points="1165.87,-319.92 1168,-309.54 1159.86,-316.32 1165.87,-319.92"/>
</a>
</g>
</g>
<!-- Node3 -->
<g id="Node000003" class="node">
<title>Node3</title>
<g id="a_Node000003"><a xlink:href="namespacegiraffe_1_1file__paths.html#a3cebf8089cfb107e6b610ffc51ea7afa" target="_top" xlink:title="Creates the Giraffe directory if it does not exist. Throws a GiraffeException if it cannot be created...">
<polygon fill="white" stroke="#666666" points="1060.5,-309.5 906.5,-309.5 906.5,-279.5 1060.5,-279.5 1060.5,-309.5"/>
<text text-anchor="start" x="914.5" y="-297.5" font-family="Helvetica,sans-Serif" font-size="10.00">giraffe::file_paths</text>
<text text-anchor="middle" x="983.5" y="-286.5" font-family="Helvetica,sans-Serif" font-size="10.00">::createGiraffeDirIfNotExists</text>
</a>
</g>
</g>
<!-- Node1&#45;&gt;Node3 -->
<g id="edge2_Node000001_Node000003" class="edge">
<title>Node1&#45;&gt;Node3</title>
<g id="a_edge2_Node000001_Node000003"><a xlink:title=" ">
<path fill="none" stroke="#63b8ff" d="M1098.47,-294.5C1086.02,-294.5 1073.15,-294.5 1060.75,-294.5"/>
<polygon fill="#63b8ff" stroke="#63b8ff" points="1098.81,-298 1108.81,-294.5 1098.81,-291 1098.81,-298"/>
</a>
</g>
</g>
<!-- Node4 -->
<g id="Node000004" class="node">
<title>Node4</title>
<g id="a_Node000004"><a xlink:href="namespacegiraffe_1_1file__paths.html#ad3893d2b3c6641d111c0237cab96e09f" target="_top" xlink:title=" ">
<polygon fill="white" stroke="#666666" points="858,-400.5 691,-400.5 691,-370.5 858,-370.5 858,-400.5"/>
<text text-anchor="start" x="699" y="-388.5" font-family="Helvetica,sans-Serif" font-size="10.00">giraffe::file_paths</text>
<text text-anchor="middle" x="774.5" y="-377.5" font-family="Helvetica,sans-Serif" font-size="10.00">::getFlightSystemAgentDirPath</text>
</a>
</g>
</g>
<!-- Node1&#45;&gt;Node4 -->
<g id="edge29_Node000001_Node000004" class="edge">
<title>Node1&#45;&gt;Node4</title>
<g id="a_edge29_Node000001_Node000004"><a xlink:title=" ">
<path fill="none" stroke="#63b8ff" d="M1138.09,-314.01C1118.96,-323 1095.22,-333.07 1073,-339.5 1001.96,-360.06 918.57,-371.95 858.17,-378.47"/>
<polygon fill="#63b8ff" stroke="#63b8ff" points="1139.85,-317.05 1147.36,-309.58 1136.83,-310.74 1139.85,-317.05"/>
</a>
</g>
</g>
<!-- Node10 -->
<g id="Node000010" class="node">
<title>Node10</title>
<g id="a_Node000010"><a xlink:href="namespacegiraffe_1_1file__paths.html#a60be25b9cd8882562d8f5f77b420d1bc" target="_top" xlink:title="Returns the path to the gfs data directory. Creates the directory if it does not exist.">
<polygon fill="white" stroke="#666666" points="831,-352.5 718,-352.5 718,-322.5 831,-322.5 831,-352.5"/>
<text text-anchor="start" x="726" y="-340.5" font-family="Helvetica,sans-Serif" font-size="10.00">giraffe::file_paths</text>
<text text-anchor="middle" x="774.5" y="-329.5" font-family="Helvetica,sans-Serif" font-size="10.00">::getGfsDataDirPath</text>
</a>
</g>
</g>
<!-- Node1&#45;&gt;Node10 -->
<g id="edge41_Node000001_Node000010" class="edge">
<title>Node1&#45;&gt;Node10</title>
<g id="a_edge41_Node000001_Node000010"><a xlink:title=" ">
<path fill="none" stroke="#63b8ff" d="M1109.35,-311.75C1097.31,-314.36 1084.83,-316.76 1073,-318.5 989.28,-330.8 891.15,-335.14 831.16,-336.67"/>
<polygon fill="#63b8ff" stroke="#63b8ff" points="1110.34,-315.12 1119.34,-309.52 1108.81,-308.29 1110.34,-315.12"/>
</a>
</g>
</g>
<!-- Node12 -->
<g id="Node000012" class="node">
<title>Node12</title>
<g id="a_Node000012"><a xlink:href="namespacegiraffe_1_1file__paths.html#a3505afb97b280e51fa28f95291786efc" target="_top" xlink:title="Returns the path to the gfs image directory. Creates the directory if it does not exist.">
<polygon fill="white" stroke="#666666" points="835,-527.5 714,-527.5 714,-497.5 835,-497.5 835,-527.5"/>
<text text-anchor="start" x="722" y="-515.5" font-family="Helvetica,sans-Serif" font-size="10.00">giraffe::file_paths</text>
<text text-anchor="middle" x="774.5" y="-504.5" font-family="Helvetica,sans-Serif" font-size="10.00">::getGfsImageDirPath</text>
</a>
</g>
</g>
<!-- Node1&#45;&gt;Node12 -->
<g id="edge43_Node000001_Node000012" class="edge">
<title>Node1&#45;&gt;Node12</title>
<g id="a_edge43_Node000001_Node000012"><a xlink:title=" ">
<path fill="none" stroke="#63b8ff" d="M1150.28,-315.9C1129.91,-331.98 1100.57,-354 1073,-370.5 983.38,-424.14 870.35,-473.47 812.83,-497.37"/>
<polygon fill="#63b8ff" stroke="#63b8ff" points="1152.52,-318.59 1158.16,-309.62 1148.16,-313.11 1152.52,-318.59"/>
</a>
</g>
</g>
<!-- Node19 -->
<g id="Node000019" class="node">
<title>Node19</title>
<g id="a_Node000019"><a xlink:href="namespacegiraffe_1_1file__paths.html#acfd866770216db1b79d6f669b376e5ad" target="_top" xlink:title="Returns the path to the gfs log directory. Creates the directory if it does not exist.">
<polygon fill="white" stroke="#666666" points="828,-228.5 721,-228.5 721,-198.5 828,-198.5 828,-228.5"/>
<text text-anchor="start" x="729" y="-216.5" font-family="Helvetica,sans-Serif" font-size="10.00">giraffe::file_paths</text>
<text text-anchor="middle" x="774.5" y="-205.5" font-family="Helvetica,sans-Serif" font-size="10.00">::getGfsLogDirPath</text>
</a>
</g>
</g>
<!-- Node1&#45;&gt;Node19 -->
<g id="edge44_Node000001_Node000019" class="edge">
<title>Node1&#45;&gt;Node19</title>
<g id="a_edge44_Node000001_Node000019"><a xlink:title=" ">
<path fill="none" stroke="#63b8ff" d="M1103.6,-277.23C1093.34,-274.9 1082.91,-272.6 1073,-270.5 987.47,-252.4 887.56,-233.77 828.02,-222.93"/>
<polygon fill="#63b8ff" stroke="#63b8ff" points="1102.84,-280.64 1113.37,-279.45 1104.4,-273.82 1102.84,-280.64"/>
</a>
</g>
</g>
<!-- Node24 -->
<g id="Node000024" class="node">
<title>Node24</title>
<g id="a_Node000024"><a xlink:href="namespacegiraffe_1_1file__paths.html#a55797c39fca8c9ee503e4c9dab0e6007" target="_top" xlink:title="Returns the path to the Giraffe config file.">
<polygon fill="white" stroke="#666666" points="1061,-147.5 906,-147.5 906,-117.5 1061,-117.5 1061,-147.5"/>
<text text-anchor="start" x="914" y="-135.5" font-family="Helvetica,sans-Serif" font-size="10.00">giraffe::file_paths</text>
<text text-anchor="middle" x="983.5" y="-124.5" font-family="Helvetica,sans-Serif" font-size="10.00">::getGdlServerConfigFilePath</text>
</a>
</g>
</g>
<!-- Node1&#45;&gt;Node24 -->
<g id="edge30_Node000001_Node000024" class="edge">
<title>Node1&#45;&gt;Node24</title>
<g id="a_edge30_Node000001_Node000024"><a xlink:title=" ">
<path fill="none" stroke="#63b8ff" d="M1150.54,-272.6C1110.95,-239.19 1036.48,-176.36 1002.38,-147.58"/>
<polygon fill="#63b8ff" stroke="#63b8ff" points="1148.54,-275.49 1158.44,-279.26 1153.05,-270.14 1148.54,-275.49"/>
</a>
</g>
</g>
<!-- Node28 -->
<g id="Node000028" class="node">
<title>Node28</title>
<g id="a_Node000028"><a xlink:href="namespacegiraffe_1_1file__paths.html#af135930ce8485d772c69735520b7fad1" target="_top" xlink:title="Returns the path to the Flight Software config file.">
<polygon fill="white" stroke="#666666" points="1045.5,-80.5 921.5,-80.5 921.5,-50.5 1045.5,-50.5 1045.5,-80.5"/>
<text text-anchor="start" x="929.5" y="-68.5" font-family="Helvetica,sans-Serif" font-size="10.00">giraffe::file_paths</text>
<text text-anchor="middle" x="983.5" y="-57.5" font-family="Helvetica,sans-Serif" font-size="10.00">::getGfsConfigFilePath</text>
</a>
</g>
</g>
<!-- Node1&#45;&gt;Node28 -->
<g id="edge37_Node000001_Node000028" class="edge">
<title>Node1&#45;&gt;Node28</title>
<g id="a_edge37_Node000001_Node000028"><a xlink:title=" ">
<path fill="none" stroke="#63b8ff" d="M1168.28,-269.76C1154.27,-230.92 1122.41,-155.24 1073,-108.5 1060.47,-96.64 1044.05,-87.45 1028.76,-80.66"/>
<polygon fill="#63b8ff" stroke="#63b8ff" points="1164.99,-270.97 1171.61,-279.24 1171.6,-268.65 1164.99,-270.97"/>
</a>
</g>
</g>
<!-- Node32 -->
<g id="Node000032" class="node">
<title>Node32</title>
<g id="a_Node000032"><a xlink:href="namespacegiraffe_1_1file__paths.html#aef6cfddd3fef84d131765805a8152fbc" target="_top" xlink:title="Get the Gfs Flight Runner Data File Path object.">
<polygon fill="white" stroke="#666666" points="1073,-32.5 894,-32.5 894,-2.5 1073,-2.5 1073,-32.5"/>
<text text-anchor="start" x="902" y="-20.5" font-family="Helvetica,sans-Serif" font-size="10.00">giraffe::file_paths</text>
<text text-anchor="middle" x="983.5" y="-9.5" font-family="Helvetica,sans-Serif" font-size="10.00">::getGfsFlightRunnerDataFilePath</text>
</a>
</g>
</g>
<!-- Node1&#45;&gt;Node32 -->
<g id="edge42_Node000001_Node000032" class="edge">
<title>Node1&#45;&gt;Node32</title>
<g id="a_edge42_Node000001_Node000032"><a xlink:title=" ">
<path fill="none" stroke="#63b8ff" d="M1173.56,-269.19C1166.26,-218.25 1142.58,-102.98 1073,-41.5 1069.18,-38.13 1064.94,-35.22 1060.43,-32.72"/>
<polygon fill="#63b8ff" stroke="#63b8ff" points="1170.12,-269.87 1174.91,-279.32 1177.05,-268.95 1170.12,-269.87"/>
</a>
</g>
</g>
<!-- Node3&#45;&gt;Node4 -->
<g id="edge3_Node000003_Node000004" class="edge">
<title>Node3&#45;&gt;Node4</title>
<g id="a_edge3_Node000003_Node000004"><a xlink:title=" ">
<path fill="none" stroke="#63b8ff" d="M949.09,-314.98C924.54,-329.4 890.03,-348.39 858,-361.5 850.13,-364.72 841.68,-367.7 833.29,-370.38"/>
<polygon fill="#63b8ff" stroke="#63b8ff" points="951.17,-317.82 957.98,-309.7 947.59,-311.8 951.17,-317.82"/>
</a>
</g>
</g>
<!-- Node7 -->
<g id="Node000007" class="node">
<title>Node7</title>
<g id="a_Node000007"><a xlink:href="namespacegiraffe_1_1file__paths.html#a071e3968c8ee80bada890eb9a36ec2f0" target="_top" xlink:title="Returns the path to the gfs data archive directory. Creates the directory if it does not exist.">
<polygon fill="white" stroke="#666666" points="636.5,-309.5 486.5,-309.5 486.5,-279.5 636.5,-279.5 636.5,-309.5"/>
<text text-anchor="start" x="494.5" y="-297.5" font-family="Helvetica,sans-Serif" font-size="10.00">giraffe::file_paths</text>
<text text-anchor="middle" x="561.5" y="-286.5" font-family="Helvetica,sans-Serif" font-size="10.00">::getGfsDataArchiveDirPath</text>
</a>
</g>
</g>
<!-- Node3&#45;&gt;Node7 -->
<g id="edge6_Node000003_Node000007" class="edge">
<title>Node3&#45;&gt;Node7</title>
<g id="a_edge6_Node000003_Node000007"><a xlink:title=" ">
<path fill="none" stroke="#63b8ff" d="M896.35,-294.5C819.84,-294.5 709.2,-294.5 636.58,-294.5"/>
<polygon fill="#63b8ff" stroke="#63b8ff" points="896.44,-298 906.44,-294.5 896.44,-291 896.44,-298"/>
</a>
</g>
</g>
<!-- Node3&#45;&gt;Node10 -->
<g id="edge9_Node000003_Node000010" class="edge">
<title>Node3&#45;&gt;Node10</title>
<g id="a_edge9_Node000003_Node000010"><a xlink:title=" ">
<path fill="none" stroke="#63b8ff" d="M900.28,-311.58C877.1,-316.39 852.44,-321.52 831.22,-325.93"/>
<polygon fill="#63b8ff" stroke="#63b8ff" points="901.02,-315 910.1,-309.54 899.6,-308.15 901.02,-315"/>
</a>
</g>
</g>
<!-- Node3&#45;&gt;Node12 -->
<g id="edge13_Node000003_Node000012" class="edge">
<title>Node3&#45;&gt;Node12</title>
<g id="a_edge13_Node000003_Node000012"><a xlink:title=" ">
<path fill="none" stroke="#63b8ff" d="M960.88,-317.27C918.46,-361.94 825.4,-459.95 789.76,-497.48"/>
<polygon fill="#63b8ff" stroke="#63b8ff" points="963.6,-319.49 967.94,-309.83 958.52,-314.67 963.6,-319.49"/>
</a>
</g>
</g>
<!-- Node17 -->
<g id="Node000017" class="node">
<title>Node17</title>
<g id="a_Node000017"><a xlink:href="namespacegiraffe_1_1file__paths.html#a562ee8f7b45dd38039768a7847a02d5d" target="_top" xlink:title="Returns the path to the gfs log archive directory. Creates the directory if it does not exist.">
<polygon fill="white" stroke="#666666" points="633.5,-261.5 489.5,-261.5 489.5,-231.5 633.5,-231.5 633.5,-261.5"/>
<text text-anchor="start" x="497.5" y="-249.5" font-family="Helvetica,sans-Serif" font-size="10.00">giraffe::file_paths</text>
<text text-anchor="middle" x="561.5" y="-238.5" font-family="Helvetica,sans-Serif" font-size="10.00">::getGfsLogArchiveDirPath</text>
</a>
</g>
</g>
<!-- Node3&#45;&gt;Node17 -->
<g id="edge19_Node000003_Node000017" class="edge">
<title>Node3&#45;&gt;Node17</title>
<g id="a_edge19_Node000003_Node000017"><a xlink:title=" ">
<path fill="none" stroke="#63b8ff" d="M896.22,-284.64C818.73,-275.78 706.3,-262.93 633.79,-254.65"/>
<polygon fill="#63b8ff" stroke="#63b8ff" points="896.11,-288.15 906.44,-285.81 896.9,-281.19 896.11,-288.15"/>
</a>
</g>
</g>
<!-- Node3&#45;&gt;Node19 -->
<g id="edge22_Node000003_Node000019" class="edge">
<title>Node3&#45;&gt;Node19</title>
<g id="a_edge22_Node000003_Node000019"><a xlink:title=" ">
<path fill="none" stroke="#63b8ff" d="M938.41,-275.36C914.71,-265.25 884.91,-252.84 858,-242.5 845.67,-237.76 832.19,-232.9 819.77,-228.53"/>
<polygon fill="#63b8ff" stroke="#63b8ff" points="937.26,-278.67 947.83,-279.39 940.02,-272.24 937.26,-278.67"/>
</a>
</g>
</g>
<!-- Node21 -->
<g id="Node000021" class="node">
<title>Node21</title>
<g id="a_Node000021"><a xlink:href="classgiraffe_1_1gdl_1_1GdlServer.html#a38bb766c005f9060bf13aeb5c553dd05" target="_top" xlink:title=" ">
<polygon fill="white" stroke="#666666" points="623,-149.5 500,-149.5 500,-119.5 623,-119.5 623,-149.5"/>
<text text-anchor="start" x="508" y="-137.5" font-family="Helvetica,sans-Serif" font-size="10.00">giraffe::gdl::GdlServer</text>
<text text-anchor="middle" x="561.5" y="-126.5" font-family="Helvetica,sans-Serif" font-size="10.00">::loadConfig</text>
</a>
</g>
</g>
<!-- Node3&#45;&gt;Node21 -->
<g id="edge26_Node000003_Node000021" class="edge">
<title>Node3&#45;&gt;Node21</title>
<g id="a_edge26_Node000003_Node000021"><a xlink:title=" ">
<path fill="none" stroke="#63b8ff" d="M962.53,-271.76C939.76,-247.38 900.2,-209.49 858,-189.5 817.26,-170.21 696.95,-151.91 623,-142.05"/>
<polygon fill="#63b8ff" stroke="#63b8ff" points="959.97,-274.15 969.31,-279.16 965.13,-269.42 959.97,-274.15"/>
</a>
</g>
</g>
<!-- Node5 -->
<g id="Node000005" class="node">
<title>Node5</title>
<g id="a_Node000005"><a xlink:href="namespacegiraffe_1_1file__paths.html#a0fc419b3cf5bf284d4e66a76f05d9f48" target="_top" xlink:title=" ">
<polygon fill="white" stroke="#666666" points="642.5,-455 480.5,-455 480.5,-414 642.5,-414 642.5,-455"/>
<text text-anchor="start" x="488.5" y="-443" font-family="Helvetica,sans-Serif" font-size="10.00">giraffe::file_paths</text>
<text text-anchor="start" x="488.5" y="-432" font-family="Helvetica,sans-Serif" font-size="10.00">::getFlightSystemAgentConfig</text>
<text text-anchor="middle" x="561.5" y="-421" font-family="Helvetica,sans-Serif" font-size="10.00">FilePath</text>
</a>
</g>
</g>
<!-- Node4&#45;&gt;Node5 -->
<g id="edge4_Node000004_Node000005" class="edge">
<title>Node4&#45;&gt;Node5</title>
<g id="a_edge4_Node000004_Node000005"><a xlink:title=" ">
<path fill="none" stroke="#63b8ff" d="M698.82,-402.84C680.67,-407.06 661.17,-411.59 642.77,-415.86"/>
<polygon fill="#63b8ff" stroke="#63b8ff" points="699.81,-406.21 708.76,-400.53 698.23,-399.39 699.81,-406.21"/>
</a>
</g>
</g>
<!-- Node6 -->
<g id="Node000006" class="node">
<title>Node6</title>
<g id="a_Node000006"><a xlink:href="namespacegiraffe_1_1file__paths.html#ae60e01f40243d47b41ec8fdb1a687ce5" target="_top" xlink:title=" ">
<polygon fill="white" stroke="#666666" points="655,-395.5 468,-395.5 468,-365.5 655,-365.5 655,-395.5"/>
<text text-anchor="start" x="476" y="-383.5" font-family="Helvetica,sans-Serif" font-size="10.00">giraffe::file_paths</text>
<text text-anchor="middle" x="561.5" y="-372.5" font-family="Helvetica,sans-Serif" font-size="10.00">::getFlightSystemAgentLogFilePath</text>
</a>
</g>
</g>
<!-- Node4&#45;&gt;Node6 -->
<g id="edge5_Node000004_Node000006" class="edge">
<title>Node4&#45;&gt;Node6</title>
<g id="a_edge5_Node000004_Node000006"><a xlink:title=" ">
<path fill="none" stroke="#63b8ff" d="M680.52,-383.3C672.1,-383.1 663.58,-382.9 655.17,-382.7"/>
<polygon fill="#63b8ff" stroke="#63b8ff" points="680.63,-386.8 690.71,-383.54 680.8,-379.8 680.63,-386.8"/>
</a>
</g>
</g>
<!-- Node8 -->
<g id="Node000008" class="node">
<title>Node8</title>
<g id="a_Node000008"><a xlink:href="group__DataLog.html#ga96a2e0cbd5f5f4bc55b9ad0b6dad9222" target="_top" xlink:title="Used to create the data archive directory with createDirectory().">
<polygon fill="white" stroke="#666666" points="420.5,-309.5 272.5,-309.5 272.5,-279.5 420.5,-279.5 420.5,-309.5"/>
<text text-anchor="start" x="280.5" y="-297.5" font-family="Helvetica,sans-Serif" font-size="10.00">data_middleware::DataLog</text>
<text text-anchor="middle" x="346.5" y="-286.5" font-family="Helvetica,sans-Serif" font-size="10.00">::createDataArchiveDir</text>
</a>
</g>
</g>
<!-- Node7&#45;&gt;Node8 -->
<g id="edge7_Node000007_Node000008" class="edge">
<title>Node7&#45;&gt;Node8</title>
<g id="a_edge7_Node000007_Node000008"><a xlink:title=" ">
<path fill="none" stroke="#63b8ff" d="M476.22,-294.5C457.87,-294.5 438.59,-294.5 420.71,-294.5"/>
<polygon fill="#63b8ff" stroke="#63b8ff" points="476.3,-298 486.3,-294.5 476.3,-291 476.3,-298"/>
</a>
</g>
</g>
<!-- Node9 -->
<g id="Node000009" class="node">
<title>Node9</title>
<g id="a_Node000009"><a xlink:href="classdata__middleware_1_1DataLog.html#a957234a0f7b3ce34cc4f3ffffb222f0c" target="_top" xlink:title=" ">
<polygon fill="white" stroke="#666666" points="225,-285.5 77,-285.5 77,-255.5 225,-255.5 225,-285.5"/>
<text text-anchor="start" x="85" y="-273.5" font-family="Helvetica,sans-Serif" font-size="10.00">data_middleware::DataLog</text>
<text text-anchor="middle" x="151" y="-262.5" font-family="Helvetica,sans-Serif" font-size="10.00">::DataLog</text>
</a>
</g>
</g>
<!-- Node8&#45;&gt;Node9 -->
<g id="edge8_Node000008_Node000009" class="edge">
<title>Node8&#45;&gt;Node9</title>
<g id="a_edge8_Node000008_Node000009"><a xlink:title=" ">
<path fill="none" stroke="#63b8ff" d="M262.13,-284.16C249.86,-282.64 237.3,-281.08 225.26,-279.59"/>
<polygon fill="#63b8ff" stroke="#63b8ff" points="261.99,-287.67 272.35,-285.43 262.85,-280.72 261.99,-287.67"/>
</a>
</g>
</g>
<!-- Node10&#45;&gt;Node7 -->
<g id="edge12_Node000010_Node000007" class="edge">
<title>Node10&#45;&gt;Node7</title>
<g id="a_edge12_Node000010_Node000007"><a xlink:title=" ">
<path fill="none" stroke="#63b8ff" d="M707.93,-324.14C685.27,-319.52 659.72,-314.31 636.43,-309.57"/>
<polygon fill="#63b8ff" stroke="#63b8ff" points="707.29,-327.58 717.79,-326.15 708.69,-320.72 707.29,-327.58"/>
</a>
</g>
</g>
<!-- Node11 -->
<g id="Node000011" class="node">
<title>Node11</title>
<g id="a_Node000011"><a xlink:href="group__DataLog.html#ga234962b2bffa3e30ac2ae8e9d269143c" target="_top" xlink:title="Used to create the data directory with createDirectory().">
<polygon fill="white" stroke="#666666" points="420.5,-357.5 272.5,-357.5 272.5,-327.5 420.5,-327.5 420.5,-357.5"/>
<text text-anchor="start" x="280.5" y="-345.5" font-family="Helvetica,sans-Serif" font-size="10.00">data_middleware::DataLog</text>
<text text-anchor="middle" x="346.5" y="-334.5" font-family="Helvetica,sans-Serif" font-size="10.00">::createDataDir</text>
</a>
</g>
</g>
<!-- Node10&#45;&gt;Node11 -->
<g id="edge10_Node000010_Node000011" class="edge">
<title>Node10&#45;&gt;Node11</title>
<g id="a_edge10_Node000010_Node000011"><a xlink:title=" ">
<path fill="none" stroke="#63b8ff" d="M707.67,-338.27C630.04,-339.18 501.39,-340.69 420.7,-341.64"/>
<polygon fill="#63b8ff" stroke="#63b8ff" points="707.85,-341.77 717.81,-338.15 707.77,-334.77 707.85,-341.77"/>
</a>
</g>
</g>
<!-- Node11&#45;&gt;Node9 -->
<g id="edge11_Node000011_Node000009" class="edge">
<title>Node11&#45;&gt;Node9</title>
<g id="a_edge11_Node000011_Node000009"><a xlink:title=" ">
<path fill="none" stroke="#63b8ff" d="M278.38,-324.36C272.47,-322.48 266.61,-320.52 261,-318.5 234.15,-308.83 204.58,-295.64 183.02,-285.53"/>
<polygon fill="#63b8ff" stroke="#63b8ff" points="277.75,-327.83 288.34,-327.43 279.82,-321.14 277.75,-327.83"/>
</a>
</g>
</g>
<!-- Node12&#45;&gt;Node2 -->
<g id="edge14_Node000012_Node000002" class="edge">
<title>Node12&#45;&gt;Node2</title>
<g id="a_edge14_Node000012_Node000002"><a xlink:title=" ">
<path fill="none" stroke="#63b8ff" d="M752.01,-534.77C729.71,-556.64 692.85,-589.4 655,-608.5 648.19,-611.94 640.84,-614.92 633.36,-617.49"/>
<polygon fill="#63b8ff" stroke="#63b8ff" points="754.66,-537.07 759.27,-527.54 749.72,-532.12 754.66,-537.07"/>
</a>
</g>
</g>
<!-- Node13 -->
<g id="Node000013" class="node">
<title>Node13</title>
<g id="a_Node000013"><a xlink:href="classextension_1_1PiCamera.html#ac8a13f4e53f230df60ccbf7baee29a87" target="_top" xlink:title=" ">
<polygon fill="white" stroke="#666666" points="620.5,-551.5 502.5,-551.5 502.5,-521.5 620.5,-521.5 620.5,-551.5"/>
<text text-anchor="start" x="510.5" y="-539.5" font-family="Helvetica,sans-Serif" font-size="10.00">extension::PiCamera</text>
<text text-anchor="middle" x="561.5" y="-528.5" font-family="Helvetica,sans-Serif" font-size="10.00">::PiCamera</text>
</a>
</g>
</g>
<!-- Node12&#45;&gt;Node13 -->
<g id="edge15_Node000012_Node000013" class="edge">
<title>Node12&#45;&gt;Node13</title>
<g id="a_edge15_Node000012_Node000013"><a xlink:title=" ">
<path fill="none" stroke="#63b8ff" d="M703.73,-520.44C676.76,-523.5 646.26,-526.97 620.51,-529.9"/>
<polygon fill="#63b8ff" stroke="#63b8ff" points="704.34,-523.89 713.88,-519.28 703.55,-516.93 704.34,-523.89"/>
</a>
</g>
</g>
<!-- Node14 -->
<g id="Node000014" class="node">
<title>Node14</title>
<g id="a_Node000014"><a xlink:href="classextension_1_1SimCamera.html#abb5201bd7c5cb54d7c93348b172decab" target="_top" xlink:title=" ">
<polygon fill="white" stroke="#666666" points="625.5,-503.5 497.5,-503.5 497.5,-473.5 625.5,-473.5 625.5,-503.5"/>
<text text-anchor="start" x="505.5" y="-491.5" font-family="Helvetica,sans-Serif" font-size="10.00">extension::SimCamera</text>
<text text-anchor="middle" x="561.5" y="-480.5" font-family="Helvetica,sans-Serif" font-size="10.00">::SimCamera</text>
</a>
</g>
</g>
<!-- Node12&#45;&gt;Node14 -->
<g id="edge16_Node000012_Node000014" class="edge">
<title>Node12&#45;&gt;Node14</title>
<g id="a_edge16_Node000012_Node000014"><a xlink:title=" ">
<path fill="none" stroke="#63b8ff" d="M703.67,-504.56C678.49,-501.69 650.23,-498.48 625.65,-495.68"/>
<polygon fill="#63b8ff" stroke="#63b8ff" points="703.55,-508.07 713.88,-505.72 704.34,-501.11 703.55,-508.07"/>
</a>
</g>
</g>
<!-- Node15 -->
<g id="Node000015" class="node">
<title>Node15</title>
<g id="a_Node000015"><a xlink:href="group__ServerModule.html#a0fe0d216d79f6af4bdd4c4e5621ac9fd" target="_top" xlink:title="Response to an image request. Sends the image data to the client.">
<polygon fill="white" stroke="#666666" points="640.5,-599.5 482.5,-599.5 482.5,-569.5 640.5,-569.5 640.5,-599.5"/>
<text text-anchor="start" x="490.5" y="-587.5" font-family="Helvetica,sans-Serif" font-size="10.00">RequestRouter::handleImage</text>
<text text-anchor="middle" x="561.5" y="-576.5" font-family="Helvetica,sans-Serif" font-size="10.00">Request</text>
</a>
</g>
</g>
<!-- Node12&#45;&gt;Node15 -->
<g id="edge17_Node000012_Node000015" class="edge">
<title>Node12&#45;&gt;Node15</title>
<g id="a_edge17_Node000012_Node000015"><a xlink:title=" ">
<path fill="none" stroke="#63b8ff" d="M730.23,-531.62C708,-541.03 680.33,-552.12 655,-560.5 645.39,-563.68 635.11,-566.7 625.02,-569.47"/>
<polygon fill="#63b8ff" stroke="#63b8ff" points="731.9,-534.71 739.72,-527.56 729.15,-528.28 731.9,-534.71"/>
</a>
</g>
</g>
<!-- Node16 -->
<g id="Node000016" class="node">
<title>Node16</title>
<g id="a_Node000016"><a xlink:href="group__ServerModule.html#ad77e0ae3d2cd0daba1388e7d7ffa1393" target="_top" xlink:title="This function is responsible for parsing a request and routing it to the right place.">
<polygon fill="white" stroke="#666666" points="432,-594 261,-594 261,-575 432,-575 432,-594"/>
<text text-anchor="middle" x="346.5" y="-582" font-family="Helvetica,sans-Serif" font-size="10.00">RequestRouter::handleMessage</text>
</a>
</g>
</g>
<!-- Node15&#45;&gt;Node16 -->
<g id="edge18_Node000015_Node000016" class="edge">
<title>Node15&#45;&gt;Node16</title>
<g id="a_edge18_Node000015_Node000016"><a xlink:title=" ">
<path fill="none" stroke="#63b8ff" d="M472.31,-584.5C458.99,-584.5 445.29,-584.5 432.05,-584.5"/>
<polygon fill="#63b8ff" stroke="#63b8ff" points="472.4,-588 482.4,-584.5 472.4,-581 472.4,-588"/>
</a>
</g>
</g>
<!-- Node18 -->
<g id="Node000018" class="node">
<title>Node18</title>
<g id="a_Node000018"><a xlink:href="group__DataLog.html#ga27b3c7fcd45fb419d25227c5eb2058b4" target="_top" xlink:title="Used to create the log archive directory with createDirectory().">
<polygon fill="white" stroke="#666666" points="420.5,-261.5 272.5,-261.5 272.5,-231.5 420.5,-231.5 420.5,-261.5"/>
<text text-anchor="start" x="280.5" y="-249.5" font-family="Helvetica,sans-Serif" font-size="10.00">data_middleware::DataLog</text>
<text text-anchor="middle" x="346.5" y="-238.5" font-family="Helvetica,sans-Serif" font-size="10.00">::createLogArchiveDir</text>
</a>
</g>
</g>
<!-- Node17&#45;&gt;Node18 -->
<g id="edge20_Node000017_Node000018" class="edge">
<title>Node17&#45;&gt;Node18</title>
<g id="a_edge20_Node000017_Node000018"><a xlink:title=" ">
<path fill="none" stroke="#63b8ff" d="M479.08,-246.5C459.92,-246.5 439.62,-246.5 420.84,-246.5"/>
<polygon fill="#63b8ff" stroke="#63b8ff" points="479.28,-250 489.28,-246.5 479.28,-243 479.28,-250"/>
</a>
</g>
</g>
<!-- Node18&#45;&gt;Node9 -->
<g id="edge21_Node000018_Node000009" class="edge">
<title>Node18&#45;&gt;Node9</title>
<g id="a_edge21_Node000018_Node000009"><a xlink:title=" ">
<path fill="none" stroke="#63b8ff" d="M262.13,-256.84C249.86,-258.36 237.3,-259.92 225.26,-261.41"/>
<polygon fill="#63b8ff" stroke="#63b8ff" points="262.85,-260.28 272.35,-255.57 261.99,-253.33 262.85,-260.28"/>
</a>
</g>
</g>
<!-- Node19&#45;&gt;Node17 -->
<g id="edge25_Node000019_Node000017" class="edge">
<title>Node19&#45;&gt;Node17</title>
<g id="a_edge25_Node000019_Node000017"><a xlink:title=" ">
<path fill="none" stroke="#63b8ff" d="M710.65,-223.33C686.42,-227.12 658.57,-231.47 633.61,-235.38"/>
<polygon fill="#63b8ff" stroke="#63b8ff" points="711.46,-226.75 720.8,-221.74 710.38,-219.83 711.46,-226.75"/>
</a>
</g>
</g>
<!-- Node20 -->
<g id="Node000020" class="node">
<title>Node20</title>
<g id="a_Node000020"><a xlink:href="group__DataLog.html#ga48061477fbfe9e8642a8ef23a670b9b2" target="_top" xlink:title="Used to create the log directory with createDirectory().">
<polygon fill="white" stroke="#666666" points="420.5,-213.5 272.5,-213.5 272.5,-183.5 420.5,-183.5 420.5,-213.5"/>
<text text-anchor="start" x="280.5" y="-201.5" font-family="Helvetica,sans-Serif" font-size="10.00">data_middleware::DataLog</text>
<text text-anchor="middle" x="346.5" y="-190.5" font-family="Helvetica,sans-Serif" font-size="10.00">::createLogDir</text>
</a>
</g>
</g>
<!-- Node19&#45;&gt;Node20 -->
<g id="edge23_Node000019_Node000020" class="edge">
<title>Node19&#45;&gt;Node20</title>
<g id="a_edge23_Node000019_Node000020"><a xlink:title=" ">
<path fill="none" stroke="#63b8ff" d="M710.77,-211.29C633.51,-208.57 502.5,-203.96 420.72,-201.08"/>
<polygon fill="#63b8ff" stroke="#63b8ff" points="710.72,-214.79 720.84,-211.65 710.97,-207.8 710.72,-214.79"/>
</a>
</g>
</g>
<!-- Node20&#45;&gt;Node9 -->
<g id="edge24_Node000020_Node000009" class="edge">
<title>Node20&#45;&gt;Node9</title>
<g id="a_edge24_Node000020_Node000009"><a xlink:title=" ">
<path fill="none" stroke="#63b8ff" d="M278.38,-216.64C272.47,-218.52 266.61,-220.48 261,-222.5 234.15,-232.17 204.58,-245.36 183.02,-255.47"/>
<polygon fill="#63b8ff" stroke="#63b8ff" points="279.82,-219.86 288.34,-213.57 277.75,-213.17 279.82,-219.86"/>
</a>
</g>
</g>
<!-- Node22 -->
<g id="Node000022" class="node">
<title>Node22</title>
<g id="a_Node000022"><a xlink:href="classgiraffe_1_1gdl_1_1GdlServer.html#a7982a27f1e9ee790d196a5cd8cba6217" target="_top" xlink:title=" ">
<polygon fill="white" stroke="#666666" points="223.5,-120 78.5,-120 78.5,-101 223.5,-101 223.5,-120"/>
<text text-anchor="middle" x="151" y="-108" font-family="Helvetica,sans-Serif" font-size="10.00">giraffe::gdl::GdlServer::run</text>
</a>
</g>
</g>
<!-- Node21&#45;&gt;Node22 -->
<g id="edge27_Node000021_Node000022" class="edge">
<title>Node21&#45;&gt;Node22</title>
<g id="a_edge27_Node000021_Node000022"><a xlink:title=" ">
<path fill="none" stroke="#63b8ff" d="M489.56,-130.33C415.05,-125.95 298.52,-119.11 223.72,-114.71"/>
<polygon fill="#63b8ff" stroke="#63b8ff" points="489.6,-133.84 499.78,-130.93 490.01,-126.85 489.6,-133.84"/>
</a>
</g>
</g>
<!-- Node23 -->
<g id="Node000023" class="node">
<title>Node23</title>
<g id="a_Node000023"><a xlink:href="src_2data__link_2server_2main_8cpp.html#ae66f6b31b5ad750f1fe042a706a4e3d4" target="_top" xlink:title=" ">
<polygon fill="white" stroke="#666666" points="41,-120 0,-120 0,-101 41,-101 41,-120"/>
<text text-anchor="middle" x="20.5" y="-108" font-family="Helvetica,sans-Serif" font-size="10.00">main</text>
</a>
</g>
</g>
<!-- Node22&#45;&gt;Node23 -->
<g id="edge28_Node000022_Node000023" class="edge">
<title>Node22&#45;&gt;Node23</title>
<g id="a_edge28_Node000022_Node000023"><a xlink:title=" ">
<path fill="none" stroke="#63b8ff" d="M68.1,-110.5C58.13,-110.5 48.77,-110.5 41.1,-110.5"/>
<polygon fill="#63b8ff" stroke="#63b8ff" points="68.24,-114 78.24,-110.5 68.24,-107 68.24,-114"/>
</a>
</g>
</g>
<!-- Node24&#45;&gt;Node21 -->
<g id="edge31_Node000024_Node000021" class="edge">
<title>Node24&#45;&gt;Node21</title>
<g id="a_edge31_Node000024_Node000021"><a xlink:title=" ">
<path fill="none" stroke="#63b8ff" d="M895.73,-132.91C814.36,-133.3 694.81,-133.87 623.2,-134.21"/>
<polygon fill="#63b8ff" stroke="#63b8ff" points="895.97,-136.41 905.95,-132.86 895.94,-129.41 895.97,-136.41"/>
</a>
</g>
</g>
<!-- Node25 -->
<g id="Node000025" class="node">
<title>Node25</title>
<g id="a_Node000025"><a xlink:href="classgiraffe_1_1gdl_1_1GdlServer.html#a27ff3bf1c99f70b8475390d9d05e7f5c" target="_top" xlink:title="Attempts to save the current configuration to the config file.">
<polygon fill="white" stroke="#666666" points="836,-104.5 713,-104.5 713,-74.5 836,-74.5 836,-104.5"/>
<text text-anchor="start" x="721" y="-92.5" font-family="Helvetica,sans-Serif" font-size="10.00">giraffe::gdl::GdlServer</text>
<text text-anchor="middle" x="774.5" y="-81.5" font-family="Helvetica,sans-Serif" font-size="10.00">::saveConfig</text>
</a>
</g>
</g>
<!-- Node24&#45;&gt;Node25 -->
<g id="edge32_Node000024_Node000025" class="edge">
<title>Node24&#45;&gt;Node25</title>
<g id="a_edge32_Node000024_Node000025"><a xlink:title=" ">
<path fill="none" stroke="#63b8ff" d="M900.08,-115.38C878.75,-110.95 856.18,-106.26 836.2,-102.11"/>
<polygon fill="#63b8ff" stroke="#63b8ff" points="899.6,-118.85 910.1,-117.46 901.02,-112 899.6,-118.85"/>
</a>
</g>
</g>
<!-- Node25&#45;&gt;Node21 -->
<g id="edge36_Node000025_Node000021" class="edge">
<title>Node25&#45;&gt;Node21</title>
<g id="a_edge36_Node000025_Node000021"><a xlink:title=" ">
<path fill="none" stroke="#63b8ff" d="M702.67,-104.61C676.89,-110.1 648,-116.26 623.18,-121.56"/>
<polygon fill="#63b8ff" stroke="#63b8ff" points="703.7,-107.96 712.75,-102.46 702.24,-101.12 703.7,-107.96"/>
</a>
</g>
</g>
<!-- Node26 -->
<g id="Node000026" class="node">
<title>Node26</title>
<g id="a_Node000026"><a xlink:href="classgiraffe_1_1gdl_1_1GdlServer.html#a4d192ae2860673d135f68e680765a2ef" target="_top" xlink:title=" ">
<polygon fill="white" stroke="#666666" points="623,-101.5 500,-101.5 500,-71.5 623,-71.5 623,-101.5"/>
<text text-anchor="start" x="508" y="-89.5" font-family="Helvetica,sans-Serif" font-size="10.00">giraffe::gdl::GdlServer</text>
<text text-anchor="middle" x="561.5" y="-78.5" font-family="Helvetica,sans-Serif" font-size="10.00">::handleSetConfig</text>
</a>
</g>
</g>
<!-- Node25&#45;&gt;Node26 -->
<g id="edge33_Node000025_Node000026" class="edge">
<title>Node25&#45;&gt;Node26</title>
<g id="a_edge33_Node000025_Node000026"><a xlink:title=" ">
<path fill="none" stroke="#63b8ff" d="M702.67,-88.49C676.89,-88.13 648,-87.72 623.18,-87.36"/>
<polygon fill="#63b8ff" stroke="#63b8ff" points="702.7,-91.99 712.75,-88.64 702.8,-84.99 702.7,-91.99"/>
</a>
</g>
</g>
<!-- Node27 -->
<g id="Node000027" class="node">
<title>Node27</title>
<g id="a_Node000027"><a xlink:href="classgiraffe_1_1gdl_1_1GdlServer.html#a7a640a9a945bb13a494c175f857fc719" target="_top" xlink:title=" ">
<polygon fill="white" stroke="#666666" points="408,-103.5 285,-103.5 285,-73.5 408,-73.5 408,-103.5"/>
<text text-anchor="start" x="293" y="-91.5" font-family="Helvetica,sans-Serif" font-size="10.00">giraffe::gdl::GdlServer</text>
<text text-anchor="middle" x="346.5" y="-80.5" font-family="Helvetica,sans-Serif" font-size="10.00">::routeSet</text>
</a>
</g>
</g>
<!-- Node26&#45;&gt;Node27 -->
<g id="edge34_Node000026_Node000027" class="edge">
<title>Node26&#45;&gt;Node27</title>
<g id="a_edge34_Node000026_Node000027"><a xlink:title=" ">
<path fill="none" stroke="#63b8ff" d="M489.47,-87.17C463.18,-87.41 433.63,-87.69 408.33,-87.93"/>
<polygon fill="#63b8ff" stroke="#63b8ff" points="489.78,-90.66 499.75,-87.07 489.72,-83.66 489.78,-90.66"/>
</a>
</g>
</g>
<!-- Node27&#45;&gt;Node22 -->
<g id="edge35_Node000027_Node000022" class="edge">
<title>Node27&#45;&gt;Node22</title>
<g id="a_edge35_Node000027_Node000022"><a xlink:title=" ">
<path fill="none" stroke="#63b8ff" d="M274.62,-96.56C258.01,-98.45 240.3,-100.46 223.66,-102.35"/>
<polygon fill="#63b8ff" stroke="#63b8ff" points="275.27,-100.01 284.81,-95.4 274.47,-93.05 275.27,-100.01"/>
</a>
</g>
</g>
<!-- Node29 -->
<g id="Node000029" class="node">
<title>Node29</title>
<g id="a_Node000029"><a xlink:href="classFlightRunner.html#ae552858a0d61ca59e9cad16ea9ab82fc" target="_top" xlink:title=" ">
<polygon fill="white" stroke="#666666" points="841,-56 708,-56 708,-37 841,-37 841,-56"/>
<text text-anchor="middle" x="774.5" y="-44" font-family="Helvetica,sans-Serif" font-size="10.00">FlightRunner::flightLoop</text>
</a>
</g>
</g>
<!-- Node28&#45;&gt;Node29 -->
<g id="edge38_Node000028_Node000029" class="edge">
<title>Node28&#45;&gt;Node29</title>
<g id="a_edge38_Node000028_Node000029"><a xlink:title=" ">
<path fill="none" stroke="#63b8ff" d="M911.02,-58.94C888.39,-56.86 863.51,-54.58 841.3,-52.54"/>
<polygon fill="#63b8ff" stroke="#63b8ff" points="910.96,-62.45 921.23,-59.88 911.6,-55.48 910.96,-62.45"/>
</a>
</g>
</g>
<!-- Node30 -->
<g id="Node000030" class="node">
<title>Node30</title>
<g id="a_Node000030"><a xlink:href="classFlightRunner.html#a7deed0a1bc77d1f1046a8713cc85dd78" target="_top" xlink:title="Starts the flight runner.">
<polygon fill="white" stroke="#666666" points="828,-19 721,-19 721,0 828,0 828,-19"/>
<text text-anchor="middle" x="774.5" y="-7" font-family="Helvetica,sans-Serif" font-size="10.00">FlightRunner::start</text>
</a>
</g>
</g>
<!-- Node28&#45;&gt;Node30 -->
<g id="edge39_Node000028_Node000030" class="edge">
<title>Node28&#45;&gt;Node30</title>
<g id="a_edge39_Node000028_Node000030"><a xlink:title=" ">
<path fill="none" stroke="#63b8ff" d="M913.84,-47.65C907.1,-45.67 900.4,-43.61 894,-41.5 877.69,-36.13 874.44,-32.46 858,-27.5 847.47,-24.33 836.03,-21.47 825.12,-19.01"/>
<polygon fill="#63b8ff" stroke="#63b8ff" points="913.11,-51.09 923.69,-50.49 915.05,-44.36 913.11,-51.09"/>
</a>
</g>
</g>
<!-- Node31 -->
<g id="Node000031" class="node">
<title>Node31</title>
<g id="a_Node000031"><a xlink:href="src_2flight__system_2main_8cpp.html#ae66f6b31b5ad750f1fe042a706a4e3d4" target="_top" xlink:title="This is the main function that starts the flight runner. It will return a call to flight....">
<polygon fill="white" stroke="#666666" points="582,-19 541,-19 541,0 582,0 582,-19"/>
<text text-anchor="middle" x="561.5" y="-7" font-family="Helvetica,sans-Serif" font-size="10.00">main</text>
</a>
</g>
</g>
<!-- Node30&#45;&gt;Node31 -->
<g id="edge40_Node000030_Node000031" class="edge">
<title>Node30&#45;&gt;Node31</title>
<g id="a_edge40_Node000030_Node000031"><a xlink:title=" ">
<path fill="none" stroke="#63b8ff" d="M710.78,-9.5C666.91,-9.5 611.15,-9.5 582.11,-9.5"/>
<polygon fill="#63b8ff" stroke="#63b8ff" points="710.8,-13 720.8,-9.5 710.8,-6 710.8,-13"/>
</a>
</g>
</g>
</g>
</svg>
