<?xml version="1.0" encoding="UTF-8" standalone="no"?>
<!DOCTYPE svg PUBLIC "-//W3C//DTD SVG 1.1//EN"
 "http://www.w3.org/Graphics/SVG/1.1/DTD/svg11.dtd">
<!-- Generated by graphviz version 2.43.0 (0)
 -->
<!-- Title: ubx::checkForAck Pages: 1 -->
<svg width="686pt" height="142pt"
 viewBox="0.00 0.00 686.00 142.00" xmlns="http://www.w3.org/2000/svg" xmlns:xlink="http://www.w3.org/1999/xlink">
<g id="graph0" class="graph" transform="scale(1 1) rotate(0) translate(4 138)">
<title>ubx::checkForAck</title>
<!-- Node1 -->
<g id="node1" class="node">
<title>Node1</title>
<g id="a_node1"><a xlink:title=" ">
<polygon fill="#bfbfbf" stroke="black" points="576,-57.5 576,-76.5 678,-76.5 678,-57.5 576,-57.5"/>
<text text-anchor="middle" x="627" y="-64.5" font-family="Helvetica,sans-Serif" font-size="10.00">ubx::checkForAck</text>
</a>
</g>
</g>
<!-- Node2 -->
<g id="node2" class="node">
<title>Node2</title>
<g id="a_node2"><a xlink:href="namespaceubx.html#a1fb85f5c220b3095792f3e9495c432b9" target="_top" xlink:title=" ">
<polygon fill="none" stroke="black" points="402.5,-114.5 402.5,-133.5 531.5,-133.5 531.5,-114.5 402.5,-114.5"/>
<text text-anchor="middle" x="467" y="-121.5" font-family="Helvetica,sans-Serif" font-size="10.00">ubx::setDynamicModel</text>
</a>
</g>
</g>
<!-- Node1&#45;&gt;Node2 -->
<g id="edge1" class="edge">
<title>Node1&#45;&gt;Node2</title>
<path fill="none" stroke="midnightblue" d="M597.42,-80.99C580.9,-88.73 559.57,-98.14 540,-105 530,-108.51 519.01,-111.71 508.71,-114.46"/>
<polygon fill="midnightblue" stroke="midnightblue" points="599.01,-84.11 606.55,-76.66 596.01,-77.79 599.01,-84.11"/>
</g>
<!-- Node5 -->
<g id="node5" class="node">
<title>Node5</title>
<g id="a_node5"><a xlink:href="namespaceubx.html#a56ec4bce3dc8bf99a601036cda46a9b0" target="_top" xlink:title=" ">
<polygon fill="none" stroke="black" points="394,-76.5 394,-95.5 540,-95.5 540,-76.5 394,-76.5"/>
<text text-anchor="middle" x="467" y="-83.5" font-family="Helvetica,sans-Serif" font-size="10.00">ubx::setMeasurementRate</text>
</a>
</g>
</g>
<!-- Node1&#45;&gt;Node5 -->
<g id="edge4" class="edge">
<title>Node1&#45;&gt;Node5</title>
<path fill="none" stroke="midnightblue" d="M565.59,-74.27C557.26,-75.27 548.63,-76.3 540.12,-77.33"/>
<polygon fill="midnightblue" stroke="midnightblue" points="566.06,-77.73 575.57,-73.06 565.23,-70.78 566.06,-77.73"/>
</g>
<!-- Node6 -->
<g id="node6" class="node">
<title>Node6</title>
<g id="a_node6"><a xlink:href="namespaceubx.html#a0a9dbb84c0d3dfd9234df8e6f7e5ad72" target="_top" xlink:title="CFG&#45;MSG (0x06 0x01) Configure Message Rate.">
<polygon fill="none" stroke="black" points="406,-38.5 406,-57.5 528,-57.5 528,-38.5 406,-38.5"/>
<text text-anchor="middle" x="467" y="-45.5" font-family="Helvetica,sans-Serif" font-size="10.00">ubx::setMessageRate</text>
</a>
</g>
</g>
<!-- Node1&#45;&gt;Node6 -->
<g id="edge6" class="edge">
<title>Node1&#45;&gt;Node6</title>
<path fill="none" stroke="midnightblue" d="M565.47,-59.72C553.24,-58.25 540.38,-56.7 528.16,-55.23"/>
<polygon fill="midnightblue" stroke="midnightblue" points="565.23,-63.22 575.57,-60.94 566.06,-56.27 565.23,-63.22"/>
</g>
<!-- Node7 -->
<g id="node7" class="node">
<title>Node7</title>
<g id="a_node7"><a xlink:href="namespaceubx.html#a6c27feec78affa320dc73abe6c52b8db" target="_top" xlink:title="Configure the I2C port to use UBX protocol for input and output.">
<polygon fill="none" stroke="black" points="408.5,-0.5 408.5,-19.5 525.5,-19.5 525.5,-0.5 408.5,-0.5"/>
<text text-anchor="middle" x="467" y="-7.5" font-family="Helvetica,sans-Serif" font-size="10.00">ubx::setProtocolDDC</text>
</a>
</g>
</g>
<!-- Node1&#45;&gt;Node7 -->
<g id="edge7" class="edge">
<title>Node1&#45;&gt;Node7</title>
<path fill="none" stroke="midnightblue" d="M597.42,-53.01C580.9,-45.27 559.57,-35.86 540,-29 530,-25.49 519.01,-22.29 508.71,-19.54"/>
<polygon fill="midnightblue" stroke="midnightblue" points="596.01,-56.21 606.55,-57.34 599.01,-49.89 596.01,-56.21"/>
</g>
<!-- Node3 -->
<g id="node3" class="node">
<title>Node3</title>
<g id="a_node3"><a xlink:href="group__SAMM8QState.html#ga1578e22215eaa305be52aa4c7245bff5" target="_top" xlink:title=" ">
<polygon fill="none" stroke="black" points="197,-71 197,-101 358,-101 358,-71 197,-71"/>
<text text-anchor="start" x="205" y="-89" font-family="Helvetica,sans-Serif" font-size="10.00">extension::SamM8qExtension</text>
<text text-anchor="middle" x="277.5" y="-78" font-family="Helvetica,sans-Serif" font-size="10.00">::stateConfigure</text>
</a>
</g>
</g>
<!-- Node2&#45;&gt;Node3 -->
<g id="edge2" class="edge">
<title>Node2&#45;&gt;Node3</title>
<path fill="none" stroke="midnightblue" d="M408.58,-112.36C390.98,-108.8 371.36,-104.82 352.81,-101.06"/>
<polygon fill="midnightblue" stroke="midnightblue" points="408.19,-115.85 418.69,-114.41 409.58,-108.99 408.19,-115.85"/>
</g>
<!-- Node4 -->
<g id="node4" class="node">
<title>Node4</title>
<g id="a_node4"><a xlink:href="classextension_1_1SamM8qExtension.html#abd1b7a24f87efe0353c00f6caf9c7945" target="_top" xlink:title="Contains a simple state machine that will configure, reset, and read data from the sensor....">
<polygon fill="none" stroke="black" points="0,-71 0,-101 161,-101 161,-71 0,-71"/>
<text text-anchor="start" x="8" y="-89" font-family="Helvetica,sans-Serif" font-size="10.00">extension::SamM8qExtension</text>
<text text-anchor="middle" x="80.5" y="-78" font-family="Helvetica,sans-Serif" font-size="10.00">::loop</text>
</a>
</g>
</g>
<!-- Node3&#45;&gt;Node4 -->
<g id="edge3" class="edge">
<title>Node3&#45;&gt;Node4</title>
<path fill="none" stroke="midnightblue" d="M186.88,-86C178.3,-86 169.64,-86 161.16,-86"/>
<polygon fill="midnightblue" stroke="midnightblue" points="186.9,-89.5 196.9,-86 186.9,-82.5 186.9,-89.5"/>
</g>
<!-- Node5&#45;&gt;Node3 -->
<g id="edge5" class="edge">
<title>Node5&#45;&gt;Node3</title>
<path fill="none" stroke="midnightblue" d="M383.57,-86C375.13,-86 366.57,-86 358.17,-86"/>
<polygon fill="midnightblue" stroke="midnightblue" points="383.78,-89.5 393.78,-86 383.78,-82.5 383.78,-89.5"/>
</g>
<!-- Node7&#45;&gt;Node3 -->
<g id="edge8" class="edge">
<title>Node7&#45;&gt;Node3</title>
<path fill="none" stroke="midnightblue" d="M414.12,-22.35C407.28,-24.37 400.43,-26.59 394,-29 362.59,-40.76 328.33,-58.31 305.35,-70.82"/>
<polygon fill="midnightblue" stroke="midnightblue" points="415.38,-25.63 424.05,-19.55 413.48,-18.9 415.38,-25.63"/>
</g>
</g>
</svg>
