<?xml version="1.0" encoding="UTF-8" standalone="no"?>
<!DOCTYPE svg PUBLIC "-//W3C//DTD SVG 1.1//EN"
 "http://www.w3.org/Graphics/SVG/1.1/DTD/svg11.dtd">
<!-- Generated by graphviz version 2.43.0 (0)
 -->
<!-- Title: util::to_string Pages: 1 -->
<svg width="704pt" height="1007pt"
 viewBox="0.00 0.00 704.00 1006.50" xmlns="http://www.w3.org/2000/svg" xmlns:xlink="http://www.w3.org/1999/xlink">
<g id="graph0" class="graph" transform="scale(1 1) rotate(0) translate(4 1002.5)">
<title>util::to_string</title>
<!-- Node1 -->
<g id="node1" class="node">
<title>Node1</title>
<g id="a_node1"><a xlink:title=" ">
<polygon fill="#bfbfbf" stroke="black" points="615,-352.5 615,-371.5 696,-371.5 696,-352.5 615,-352.5"/>
<text text-anchor="middle" x="655.5" y="-359.5" font-family="Helvetica,sans-Serif" font-size="10.00">util::to_string</text>
</a>
</g>
</g>
<!-- Node2 -->
<g id="node2" class="node">
<title>Node2</title>
<g id="a_node2"><a xlink:href="classconsole__pages_1_1Pages.html#a4b0ae50da4241115a3acfca9f0c4e306" target="_top" xlink:title=" ">
<polygon fill="none" stroke="black" points="428,-646 428,-676 551,-676 551,-646 428,-646"/>
<text text-anchor="start" x="436" y="-664" font-family="Helvetica,sans-Serif" font-size="10.00">console_pages::Pages</text>
<text text-anchor="middle" x="489.5" y="-653" font-family="Helvetica,sans-Serif" font-size="10.00">::data</text>
</a>
</g>
</g>
<!-- Node1&#45;&gt;Node2 -->
<g id="edge1" class="edge">
<title>Node1&#45;&gt;Node2</title>
<path fill="none" stroke="midnightblue" d="M655.19,-381.73C655.82,-431.67 650.3,-564.23 579,-636 571.35,-643.7 561.52,-649.08 551.2,-652.82"/>
<polygon fill="midnightblue" stroke="midnightblue" points="658.69,-381.54 654.96,-371.63 651.69,-381.7 658.69,-381.54"/>
</g>
<!-- Node4 -->
<g id="node4" class="node">
<title>Node4</title>
<g id="a_node4"><a xlink:href="classextension_1_1Extension.html#aa7ec0098dfde16a54eb616c73ba3046e" target="_top" xlink:title=" ">
<polygon fill="none" stroke="black" points="430,-695 430,-725 549,-725 549,-695 430,-695"/>
<text text-anchor="start" x="438" y="-713" font-family="Helvetica,sans-Serif" font-size="10.00">extension::Extension</text>
<text text-anchor="middle" x="489.5" y="-702" font-family="Helvetica,sans-Serif" font-size="10.00">::data</text>
</a>
</g>
</g>
<!-- Node1&#45;&gt;Node4 -->
<g id="edge3" class="edge">
<title>Node1&#45;&gt;Node4</title>
<path fill="none" stroke="midnightblue" d="M652.51,-381.98C645.77,-445.55 621.85,-641.59 579,-686 570.93,-694.36 560.27,-699.91 549.15,-703.56"/>
<polygon fill="midnightblue" stroke="midnightblue" points="656.02,-382.02 653.57,-371.72 649.06,-381.3 656.02,-382.02"/>
</g>
<!-- Node19 -->
<g id="node19" class="node">
<title>Node19</title>
<g id="a_node19"><a xlink:href="classmodules_1_1Module.html#ae3745aa2ab9ed49ad46f198c6280852e" target="_top" xlink:title="Used internally in the module. This function adds a data to the data stream.">
<polygon fill="none" stroke="black" points="425.5,-607.5 425.5,-626.5 553.5,-626.5 553.5,-607.5 425.5,-607.5"/>
<text text-anchor="middle" x="489.5" y="-614.5" font-family="Helvetica,sans-Serif" font-size="10.00">modules::Module::data</text>
</a>
</g>
</g>
<!-- Node1&#45;&gt;Node19 -->
<g id="edge22" class="edge">
<title>Node1&#45;&gt;Node19</title>
<path fill="none" stroke="midnightblue" d="M654.41,-381.98C653.07,-427.6 643.06,-539.94 579,-598 571.78,-604.54 562.87,-609.03 553.5,-612.08"/>
<polygon fill="midnightblue" stroke="midnightblue" points="657.91,-381.95 654.6,-371.89 650.92,-381.83 657.91,-381.95"/>
</g>
<!-- Node20 -->
<g id="node20" class="node">
<title>Node20</title>
<g id="a_node20"><a xlink:href="classextension_1_1Extension.html#aaae6a7d91b77ac86a6e597bf0071889d" target="_top" xlink:title=" ">
<polygon fill="none" stroke="black" points="430,-558 430,-588 549,-588 549,-558 430,-558"/>
<text text-anchor="start" x="438" y="-576" font-family="Helvetica,sans-Serif" font-size="10.00">extension::Extension</text>
<text text-anchor="middle" x="489.5" y="-565" font-family="Helvetica,sans-Serif" font-size="10.00">::error</text>
</a>
</g>
</g>
<!-- Node1&#45;&gt;Node20 -->
<g id="edge23" class="edge">
<title>Node1&#45;&gt;Node20</title>
<path fill="none" stroke="midnightblue" d="M652.14,-382.08C646.58,-420.17 629.12,-503.13 579,-548 570.55,-555.56 559.99,-560.85 549.12,-564.55"/>
<polygon fill="midnightblue" stroke="midnightblue" points="655.66,-382.16 653.51,-371.79 648.72,-381.24 655.66,-382.16"/>
</g>
<!-- Node21 -->
<g id="node21" class="node">
<title>Node21</title>
<g id="a_node21"><a xlink:href="classmodules_1_1Module.html#a2d64fd89764378e46ffc96cce45953db" target="_top" xlink:title="Same as the other error function, but takes an int instead of a string.">
<polygon fill="none" stroke="black" points="424.5,-519.5 424.5,-538.5 554.5,-538.5 554.5,-519.5 424.5,-519.5"/>
<text text-anchor="middle" x="489.5" y="-526.5" font-family="Helvetica,sans-Serif" font-size="10.00">modules::Module::error</text>
</a>
</g>
</g>
<!-- Node1&#45;&gt;Node21 -->
<g id="edge24" class="edge">
<title>Node1&#45;&gt;Node21</title>
<path fill="none" stroke="midnightblue" d="M650.2,-381.78C642.13,-413.95 621.55,-477.3 579,-510 571.9,-515.46 563.57,-519.43 554.92,-522.3"/>
<polygon fill="midnightblue" stroke="midnightblue" points="653.67,-382.34 652.55,-371.8 646.85,-380.73 653.67,-382.34"/>
</g>
<!-- Node22 -->
<g id="node22" class="node">
<title>Node22</title>
<g id="a_node22"><a xlink:href="classdata_1_1LogStream.html#a90b8dc67f563d4a8bf25d2aa9d9d0387" target="_top" xlink:title=" ">
<polygon fill="none" stroke="black" points="407.5,-470 407.5,-500 571.5,-500 571.5,-470 407.5,-470"/>
<text text-anchor="start" x="415.5" y="-488" font-family="Helvetica,sans-Serif" font-size="10.00">data::LogStream::errorBooster</text>
<text text-anchor="middle" x="489.5" y="-477" font-family="Helvetica,sans-Serif" font-size="10.00">SeatException</text>
</a>
</g>
</g>
<!-- Node1&#45;&gt;Node22 -->
<g id="edge25" class="edge">
<title>Node1&#45;&gt;Node22</title>
<path fill="none" stroke="midnightblue" d="M645.33,-380.43C633.22,-402.87 609.78,-440.3 579,-461 573.85,-464.46 568.21,-467.43 562.36,-469.97"/>
<polygon fill="midnightblue" stroke="midnightblue" points="648.43,-382.05 649.95,-371.56 642.23,-378.82 648.43,-382.05"/>
</g>
<!-- Node23 -->
<g id="node23" class="node">
<title>Node23</title>
<g id="a_node23"><a xlink:href="classconsole__pages_1_1Pages.html#a815a74fc95295c02b4638fa47b03e18d" target="_top" xlink:title=" ">
<polygon fill="none" stroke="black" points="428,-421 428,-451 551,-451 551,-421 428,-421"/>
<text text-anchor="start" x="436" y="-439" font-family="Helvetica,sans-Serif" font-size="10.00">console_pages::Pages</text>
<text text-anchor="middle" x="489.5" y="-428" font-family="Helvetica,sans-Serif" font-size="10.00">::extensionData</text>
</a>
</g>
</g>
<!-- Node1&#45;&gt;Node23 -->
<g id="edge26" class="edge">
<title>Node1&#45;&gt;Node23</title>
<path fill="none" stroke="midnightblue" d="M634.12,-378.11C619.49,-389 598.93,-402.98 579,-412 570.3,-415.94 560.81,-419.35 551.39,-422.26"/>
<polygon fill="midnightblue" stroke="midnightblue" points="636.57,-380.65 642.4,-371.8 632.32,-375.08 636.57,-380.65"/>
</g>
<!-- Node24 -->
<g id="node24" class="node">
<title>Node24</title>
<g id="a_node24"><a xlink:href="classconsole__pages_1_1Pages.html#aa3dd00ba1c736892c991d7d4f461bfe0" target="_top" xlink:title=" ">
<polygon fill="none" stroke="black" points="428,-372 428,-402 551,-402 551,-372 428,-372"/>
<text text-anchor="start" x="436" y="-390" font-family="Helvetica,sans-Serif" font-size="10.00">console_pages::Pages</text>
<text text-anchor="middle" x="489.5" y="-379" font-family="Helvetica,sans-Serif" font-size="10.00">::extensions</text>
</a>
</g>
</g>
<!-- Node1&#45;&gt;Node24 -->
<g id="edge28" class="edge">
<title>Node1&#45;&gt;Node24</title>
<path fill="none" stroke="midnightblue" d="M604.64,-369.6C587.81,-372.17 568.85,-375.06 551.28,-377.73"/>
<polygon fill="midnightblue" stroke="midnightblue" points="605.44,-373.02 614.8,-368.05 604.39,-366.1 605.44,-373.02"/>
</g>
<!-- Node25 -->
<g id="node25" class="node">
<title>Node25</title>
<g id="a_node25"><a xlink:href="classconsole__pages_1_1Pages.html#a27c3adbf55be9c5165077caed2c01b57" target="_top" xlink:title=" ">
<polygon fill="none" stroke="black" points="428,-323 428,-353 551,-353 551,-323 428,-323"/>
<text text-anchor="start" x="436" y="-341" font-family="Helvetica,sans-Serif" font-size="10.00">console_pages::Pages</text>
<text text-anchor="middle" x="489.5" y="-330" font-family="Helvetica,sans-Serif" font-size="10.00">::gfsStatus</text>
</a>
</g>
</g>
<!-- Node1&#45;&gt;Node25 -->
<g id="edge30" class="edge">
<title>Node1&#45;&gt;Node25</title>
<path fill="none" stroke="midnightblue" d="M604.64,-354.7C587.81,-352.24 568.85,-349.47 551.28,-346.89"/>
<polygon fill="midnightblue" stroke="midnightblue" points="604.4,-358.21 614.8,-356.19 605.41,-351.28 604.4,-358.21"/>
</g>
<!-- Node26 -->
<g id="node26" class="node">
<title>Node26</title>
<g id="a_node26"><a xlink:href="classconsole__pages_1_1Pages.html#a141ef59324d5cd73c9f39488ab0fa363" target="_top" xlink:title=" ">
<polygon fill="none" stroke="black" points="428,-274 428,-304 551,-304 551,-274 428,-274"/>
<text text-anchor="start" x="436" y="-292" font-family="Helvetica,sans-Serif" font-size="10.00">console_pages::Pages</text>
<text text-anchor="middle" x="489.5" y="-281" font-family="Helvetica,sans-Serif" font-size="10.00">::location</text>
</a>
</g>
</g>
<!-- Node1&#45;&gt;Node26 -->
<g id="edge32" class="edge">
<title>Node1&#45;&gt;Node26</title>
<path fill="none" stroke="midnightblue" d="M634.07,-346.23C619.42,-335.57 598.85,-321.87 579,-313 570.28,-309.1 560.79,-305.71 551.36,-302.81"/>
<polygon fill="midnightblue" stroke="midnightblue" points="632.25,-349.24 642.37,-352.41 636.43,-343.63 632.25,-349.24"/>
</g>
<!-- Node27 -->
<g id="node27" class="node">
<title>Node27</title>
<g id="a_node27"><a xlink:href="classdata__middleware_1_1DataFormatter.html#aa1d67f3593467a202659b221472cab9f" target="_top" xlink:title=" ">
<polygon fill="none" stroke="black" points="400,-225 400,-255 579,-255 579,-225 400,-225"/>
<text text-anchor="start" x="408" y="-243" font-family="Helvetica,sans-Serif" font-size="10.00">data_middleware::DataFormatter</text>
<text text-anchor="middle" x="489.5" y="-232" font-family="Helvetica,sans-Serif" font-size="10.00">::logPacketToJsonString</text>
</a>
</g>
</g>
<!-- Node1&#45;&gt;Node27 -->
<g id="edge34" class="edge">
<title>Node1&#45;&gt;Node27</title>
<path fill="none" stroke="midnightblue" d="M644.93,-343.11C632.68,-320.84 609.34,-284.3 579,-264 573.84,-260.55 568.2,-257.59 562.34,-255.06"/>
<polygon fill="midnightblue" stroke="midnightblue" points="641.99,-345.04 649.77,-352.23 648.17,-341.76 641.99,-345.04"/>
</g>
<!-- Node28 -->
<g id="node28" class="node">
<title>Node28</title>
<g id="a_node28"><a xlink:href="classmodules_1_1DataModule.html#a22e5c03008cb6d2015dd0097869f2fa3" target="_top" xlink:title="Process all packets from the log stream.">
<polygon fill="none" stroke="black" points="427.5,-127 427.5,-157 551.5,-157 551.5,-127 427.5,-127"/>
<text text-anchor="start" x="435.5" y="-145" font-family="Helvetica,sans-Serif" font-size="10.00">modules::DataModule</text>
<text text-anchor="middle" x="489.5" y="-134" font-family="Helvetica,sans-Serif" font-size="10.00">::processLogPacket</text>
</a>
</g>
</g>
<!-- Node1&#45;&gt;Node28 -->
<g id="edge35" class="edge">
<title>Node1&#45;&gt;Node28</title>
<path fill="none" stroke="midnightblue" d="M652.69,-342.15C648,-302.59 631.85,-213.68 579,-166 571.32,-159.07 561.83,-154.11 551.95,-150.57"/>
<polygon fill="midnightblue" stroke="midnightblue" points="649.21,-342.55 653.75,-352.12 656.17,-341.81 649.21,-342.55"/>
</g>
<!-- Node30 -->
<g id="node30" class="node">
<title>Node30</title>
<g id="a_node30"><a xlink:href="classconsole__pages_1_1Pages.html#a67d35ee34832ada202ae3efbba51ac7b" target="_top" xlink:title=" ">
<polygon fill="none" stroke="black" points="428,-176 428,-206 551,-206 551,-176 428,-176"/>
<text text-anchor="start" x="436" y="-194" font-family="Helvetica,sans-Serif" font-size="10.00">console_pages::Pages</text>
<text text-anchor="middle" x="489.5" y="-183" font-family="Helvetica,sans-Serif" font-size="10.00">::server</text>
</a>
</g>
</g>
<!-- Node1&#45;&gt;Node30 -->
<g id="edge37" class="edge">
<title>Node1&#45;&gt;Node30</title>
<path fill="none" stroke="midnightblue" d="M649.96,-342.6C641.55,-311.01 620.49,-248.59 579,-215 570.96,-208.49 561.29,-203.74 551.35,-200.27"/>
<polygon fill="midnightblue" stroke="midnightblue" points="646.59,-343.55 652.42,-352.39 653.38,-341.84 646.59,-343.55"/>
</g>
<!-- Node31 -->
<g id="node31" class="node">
<title>Node31</title>
<g id="a_node31"><a xlink:href="classcfg_1_1Extensions.html#aab673cffeff4bb60bf1a11d83a39736b" target="_top" xlink:title=" ">
<polygon fill="none" stroke="black" points="411,-88.5 411,-107.5 568,-107.5 568,-88.5 411,-88.5"/>
<text text-anchor="middle" x="489.5" y="-95.5" font-family="Helvetica,sans-Serif" font-size="10.00">cfg::Extensions::setFromJson</text>
</a>
</g>
</g>
<!-- Node1&#45;&gt;Node31 -->
<g id="edge39" class="edge">
<title>Node1&#45;&gt;Node31</title>
<path fill="none" stroke="midnightblue" d="M654.69,-342.22C654,-295.53 645.4,-177.83 579,-117 574.83,-113.18 570.08,-110.06 565,-107.51"/>
<polygon fill="midnightblue" stroke="midnightblue" points="651.19,-342.27 654.73,-352.25 658.19,-342.24 651.19,-342.27"/>
</g>
<!-- Node32 -->
<g id="node32" class="node">
<title>Node32</title>
<g id="a_node32"><a xlink:href="classmodules_1_1ServerModule.html#a76c8c341c2e0e2034fa8af0c9d92f75b" target="_top" xlink:title="Startup the server module.">
<polygon fill="none" stroke="black" points="423.5,-39 423.5,-69 555.5,-69 555.5,-39 423.5,-39"/>
<text text-anchor="start" x="431.5" y="-57" font-family="Helvetica,sans-Serif" font-size="10.00">modules::ServerModule</text>
<text text-anchor="middle" x="489.5" y="-46" font-family="Helvetica,sans-Serif" font-size="10.00">::startup</text>
</a>
</g>
</g>
<!-- Node1&#45;&gt;Node32 -->
<g id="edge40" class="edge">
<title>Node1&#45;&gt;Node32</title>
<path fill="none" stroke="midnightblue" d="M651.8,-342.33C643.51,-284.59 616.65,-117.2 579,-79 572.5,-72.4 564.4,-67.51 555.77,-63.9"/>
<polygon fill="midnightblue" stroke="midnightblue" points="648.35,-342.93 653.21,-352.35 655.29,-341.96 648.35,-342.93"/>
</g>
<!-- Node33 -->
<g id="node33" class="node">
<title>Node33</title>
<g id="a_node33"><a xlink:href="namespaceutil.html#a7e499751b8586812fa2eec60bdc2dfe6" target="_top" xlink:title=" ">
<polygon fill="none" stroke="black" points="449,-0.5 449,-19.5 530,-19.5 530,-0.5 449,-0.5"/>
<text text-anchor="middle" x="489.5" y="-7.5" font-family="Helvetica,sans-Serif" font-size="10.00">util::to_string</text>
</a>
</g>
</g>
<!-- Node1&#45;&gt;Node33 -->
<g id="edge41" class="edge">
<title>Node1&#45;&gt;Node33</title>
<path fill="none" stroke="midnightblue" d="M652.77,-342.21C646.69,-277.49 624.24,-73.72 579,-29 566.26,-16.41 547.32,-11.26 530.22,-9.43"/>
<polygon fill="midnightblue" stroke="midnightblue" points="649.29,-342.66 653.68,-352.3 656.26,-342.02 649.29,-342.66"/>
</g>
<!-- Node3 -->
<g id="node3" class="node">
<title>Node3</title>
<g id="a_node3"><a xlink:href="classconsole__pages_1_1Pages.html#a994c60348e2c31544233ce3ba27ccb14" target="_top" xlink:title=" ">
<polygon fill="none" stroke="black" points="219,-337 219,-367 342,-367 342,-337 219,-337"/>
<text text-anchor="start" x="227" y="-355" font-family="Helvetica,sans-Serif" font-size="10.00">console_pages::Pages</text>
<text text-anchor="middle" x="280.5" y="-344" font-family="Helvetica,sans-Serif" font-size="10.00">::getCurrentPage</text>
</a>
</g>
</g>
<!-- Node2&#45;&gt;Node3 -->
<g id="edge2" class="edge">
<title>Node2&#45;&gt;Node3</title>
<path fill="none" stroke="midnightblue" d="M418.71,-649.97C411.65,-646.46 405.19,-641.9 400,-636 327.64,-553.66 428.84,-480.39 364,-392 356,-381.09 344.21,-373.02 332.04,-367.1"/>
<polygon fill="midnightblue" stroke="midnightblue" points="417.34,-653.19 427.92,-653.88 420.08,-646.75 417.34,-653.19"/>
</g>
<!-- Node5 -->
<g id="node5" class="node">
<title>Node5</title>
<g id="a_node5"><a xlink:href="classextension_1_1AdcExtensionBase.html#ab11b609d90a14f558df951d28bc42d85" target="_top" xlink:title=" ">
<polygon fill="none" stroke="black" points="0,-475 0,-505 161,-505 161,-475 0,-475"/>
<text text-anchor="start" x="8" y="-493" font-family="Helvetica,sans-Serif" font-size="10.00">extension::AdcExtensionBase</text>
<text text-anchor="middle" x="80.5" y="-482" font-family="Helvetica,sans-Serif" font-size="10.00">::loop</text>
</a>
</g>
</g>
<!-- Node4&#45;&gt;Node5 -->
<g id="edge4" class="edge">
<title>Node4&#45;&gt;Node5</title>
<path fill="none" stroke="midnightblue" d="M473.41,-733.59C452.85,-763.31 412.9,-812.92 364,-833 295.34,-861.2 257.28,-876.31 197,-833 85.76,-753.08 80.22,-560.54 81.03,-505.15"/>
<polygon fill="midnightblue" stroke="midnightblue" points="476.48,-735.31 479.17,-725.06 470.67,-731.4 476.48,-735.31"/>
</g>
<!-- Node6 -->
<g id="node6" class="node">
<title>Node6</title>
<g id="a_node6"><a xlink:href="classextension_1_1Bme280Extension.html#a4ed64313c81c6453ae5d29c63a1bb52b" target="_top" xlink:title=" ">
<polygon fill="none" stroke="black" points="1,-897 1,-927 160,-927 160,-897 1,-897"/>
<text text-anchor="start" x="9" y="-915" font-family="Helvetica,sans-Serif" font-size="10.00">extension::Bme280Extension</text>
<text text-anchor="middle" x="80.5" y="-904" font-family="Helvetica,sans-Serif" font-size="10.00">::loop</text>
</a>
</g>
</g>
<!-- Node4&#45;&gt;Node6 -->
<g id="edge5" class="edge">
<title>Node4&#45;&gt;Node6</title>
<path fill="none" stroke="midnightblue" d="M476.64,-734.18C457.95,-769.47 418.13,-834.33 364,-866 330.28,-885.73 231.39,-898.58 160.12,-905.55"/>
<polygon fill="midnightblue" stroke="midnightblue" points="479.87,-735.55 481.34,-725.06 473.65,-732.34 479.87,-735.55"/>
</g>
<!-- Node7 -->
<g id="node7" class="node">
<title>Node7</title>
<g id="a_node7"><a xlink:href="classextension_1_1Ds18b20Extension.html#ad4dfdbd9d9cd1b114437c1c31d36088a" target="_top" xlink:title=" ">
<polygon fill="none" stroke="black" points="200,-793 200,-823 361,-823 361,-793 200,-793"/>
<text text-anchor="start" x="208" y="-811" font-family="Helvetica,sans-Serif" font-size="10.00">extension::Ds18b20Extension</text>
<text text-anchor="middle" x="280.5" y="-800" font-family="Helvetica,sans-Serif" font-size="10.00">::loop</text>
</a>
</g>
</g>
<!-- Node4&#45;&gt;Node7 -->
<g id="edge6" class="edge">
<title>Node4&#45;&gt;Node7</title>
<path fill="none" stroke="midnightblue" d="M458.42,-730.83C433.9,-747.08 397.89,-769.28 364,-784 356.47,-787.27 348.37,-790.24 340.29,-792.89"/>
<polygon fill="midnightblue" stroke="midnightblue" points="460.56,-733.61 466.92,-725.14 456.66,-727.8 460.56,-733.61"/>
</g>
<!-- Node8 -->
<g id="node8" class="node">
<title>Node8</title>
<g id="a_node8"><a xlink:href="classextension_1_1SimTemperatureSensor.html#a577e8dc550d5fa6d111b042bce481b0d" target="_top" xlink:title=" ">
<polygon fill="none" stroke="black" points="205,-744 205,-774 356,-774 356,-744 205,-744"/>
<text text-anchor="start" x="213" y="-762" font-family="Helvetica,sans-Serif" font-size="10.00">extension::SimTemperature</text>
<text text-anchor="middle" x="280.5" y="-751" font-family="Helvetica,sans-Serif" font-size="10.00">Sensor::loop</text>
</a>
</g>
</g>
<!-- Node4&#45;&gt;Node8 -->
<g id="edge7" class="edge">
<title>Node4&#45;&gt;Node8</title>
<path fill="none" stroke="midnightblue" d="M419.94,-726.23C395.82,-731.94 368.82,-738.33 345.12,-743.94"/>
<polygon fill="midnightblue" stroke="midnightblue" points="420.81,-729.62 429.74,-723.91 419.2,-722.81 420.81,-729.62"/>
</g>
<!-- Node9 -->
<g id="node9" class="node">
<title>Node9</title>
<g id="a_node9"><a xlink:href="classextension_1_1SimPressureSensor.html#aaf5a09dba391f216ca5ee5a7890a1e85" target="_top" xlink:title=" ">
<polygon fill="none" stroke="black" points="198.5,-695 198.5,-725 362.5,-725 362.5,-695 198.5,-695"/>
<text text-anchor="start" x="206.5" y="-713" font-family="Helvetica,sans-Serif" font-size="10.00">extension::SimPressureSensor</text>
<text text-anchor="middle" x="280.5" y="-702" font-family="Helvetica,sans-Serif" font-size="10.00">::loop</text>
</a>
</g>
</g>
<!-- Node4&#45;&gt;Node9 -->
<g id="edge8" class="edge">
<title>Node4&#45;&gt;Node9</title>
<path fill="none" stroke="midnightblue" d="M419.53,-710C401.36,-710 381.58,-710 362.82,-710"/>
<polygon fill="midnightblue" stroke="midnightblue" points="419.74,-713.5 429.74,-710 419.74,-706.5 419.74,-713.5"/>
</g>
<!-- Node10 -->
<g id="node10" class="node">
<title>Node10</title>
<g id="a_node10"><a xlink:href="classextension_1_1SimHumiditySensor.html#a59e5059ebb6e2e81ca3a6ef30a632456" target="_top" xlink:title=" ">
<polygon fill="none" stroke="black" points="197,-646 197,-676 364,-676 364,-646 197,-646"/>
<text text-anchor="start" x="205" y="-664" font-family="Helvetica,sans-Serif" font-size="10.00">extension::SimHumiditySensor</text>
<text text-anchor="middle" x="280.5" y="-653" font-family="Helvetica,sans-Serif" font-size="10.00">::loop</text>
</a>
</g>
</g>
<!-- Node4&#45;&gt;Node10 -->
<g id="edge9" class="edge">
<title>Node4&#45;&gt;Node10</title>
<path fill="none" stroke="midnightblue" d="M419.94,-693.77C395.82,-688.06 368.82,-681.67 345.12,-676.06"/>
<polygon fill="midnightblue" stroke="midnightblue" points="419.2,-697.19 429.74,-696.09 420.81,-690.38 419.2,-697.19"/>
</g>
<!-- Node11 -->
<g id="node11" class="node">
<title>Node11</title>
<g id="a_node11"><a xlink:href="classextension_1_1SimGpsSensor.html#a80265d0b8468fc4e90a46409a6178ab2" target="_top" xlink:title=" ">
<polygon fill="none" stroke="black" points="210,-597 210,-627 351,-627 351,-597 210,-597"/>
<text text-anchor="start" x="218" y="-615" font-family="Helvetica,sans-Serif" font-size="10.00">extension::SimGpsSensor</text>
<text text-anchor="middle" x="280.5" y="-604" font-family="Helvetica,sans-Serif" font-size="10.00">::loop</text>
</a>
</g>
</g>
<!-- Node4&#45;&gt;Node11 -->
<g id="edge10" class="edge">
<title>Node4&#45;&gt;Node11</title>
<path fill="none" stroke="midnightblue" d="M420.08,-696.54C412.99,-693.68 406.14,-690.21 400,-686 377.71,-670.72 386.06,-652.61 364,-637 358.5,-633.11 352.39,-629.82 346.04,-627.03"/>
<polygon fill="midnightblue" stroke="midnightblue" points="419.27,-699.97 429.86,-700.08 421.65,-693.39 419.27,-699.97"/>
</g>
<!-- Node12 -->
<g id="node12" class="node">
<title>Node12</title>
<g id="a_node12"><a xlink:href="classextension_1_1SimImuSensor.html#a1acef31a7be54226957d58d2f9d174d1" target="_top" xlink:title=" ">
<polygon fill="none" stroke="black" points="210,-548 210,-578 351,-578 351,-548 210,-548"/>
<text text-anchor="start" x="218" y="-566" font-family="Helvetica,sans-Serif" font-size="10.00">extension::SimImuSensor</text>
<text text-anchor="middle" x="280.5" y="-555" font-family="Helvetica,sans-Serif" font-size="10.00">::loop</text>
</a>
</g>
</g>
<!-- Node4&#45;&gt;Node12 -->
<g id="edge11" class="edge">
<title>Node4&#45;&gt;Node12</title>
<path fill="none" stroke="midnightblue" d="M420.17,-698.82C412.8,-695.56 405.86,-691.37 400,-686 365.79,-654.65 397.75,-619.85 364,-588 359.86,-584.1 355.14,-580.8 350.09,-578.02"/>
<polygon fill="midnightblue" stroke="midnightblue" points="419.11,-702.16 429.7,-702.48 421.62,-695.63 419.11,-702.16"/>
</g>
<!-- Node13 -->
<g id="node13" class="node">
<title>Node13</title>
<g id="a_node13"><a xlink:href="classextension_1_1AdcExtensionBase.html#acc1cba94f6676036181990cb2e0296d3" target="_top" xlink:title=" ">
<polygon fill="none" stroke="black" points="200,-499 200,-529 361,-529 361,-499 200,-499"/>
<text text-anchor="start" x="208" y="-517" font-family="Helvetica,sans-Serif" font-size="10.00">extension::AdcExtensionBase</text>
<text text-anchor="middle" x="280.5" y="-506" font-family="Helvetica,sans-Serif" font-size="10.00">::percentage</text>
</a>
</g>
</g>
<!-- Node4&#45;&gt;Node13 -->
<g id="edge12" class="edge">
<title>Node4&#45;&gt;Node13</title>
<path fill="none" stroke="midnightblue" d="M420.44,-699.84C412.84,-696.42 405.77,-691.91 400,-686 353.03,-637.85 410.26,-587.83 364,-539 360.4,-535.2 356.24,-531.97 351.74,-529.22"/>
<polygon fill="midnightblue" stroke="midnightblue" points="419.34,-703.16 429.93,-703.49 421.85,-696.63 419.34,-703.16"/>
</g>
<!-- Node14 -->
<g id="node14" class="node">
<title>Node14</title>
<g id="a_node14"><a xlink:href="classextension_1_1Bme280Extension.html#a11e779a4c15360a0fa490174647c6b94" target="_top" xlink:title="Reads the raw environmental data from the BME280.">
<polygon fill="none" stroke="black" points="201,-919 201,-949 360,-949 360,-919 201,-919"/>
<text text-anchor="start" x="209" y="-937" font-family="Helvetica,sans-Serif" font-size="10.00">extension::Bme280Extension</text>
<text text-anchor="middle" x="280.5" y="-926" font-family="Helvetica,sans-Serif" font-size="10.00">::readEnvironmentalData</text>
</a>
</g>
</g>
<!-- Node4&#45;&gt;Node14 -->
<g id="edge14" class="edge">
<title>Node4&#45;&gt;Node14</title>
<path fill="none" stroke="midnightblue" d="M478.89,-734.71C461.8,-775.57 422.35,-857.34 364,-904 356.38,-910.09 347.42,-915.01 338.25,-918.97"/>
<polygon fill="midnightblue" stroke="midnightblue" points="482.22,-735.83 482.75,-725.25 475.73,-733.18 482.22,-735.83"/>
</g>
<!-- Node15 -->
<g id="node15" class="node">
<title>Node15</title>
<g id="a_node15"><a xlink:href="group__SAMM8QState.html#gaa031a3e0ad98da916ebca6836c9c1a30" target="_top" xlink:title=" ">
<polygon fill="none" stroke="black" points="200,-968 200,-998 361,-998 361,-968 200,-968"/>
<text text-anchor="start" x="208" y="-986" font-family="Helvetica,sans-Serif" font-size="10.00">extension::SamM8qExtension</text>
<text text-anchor="middle" x="280.5" y="-975" font-family="Helvetica,sans-Serif" font-size="10.00">::stateRead</text>
</a>
</g>
</g>
<!-- Node4&#45;&gt;Node15 -->
<g id="edge16" class="edge">
<title>Node4&#45;&gt;Node15</title>
<path fill="none" stroke="midnightblue" d="M483.02,-735.26C470.79,-785.55 436.45,-898.58 364,-959 359.88,-962.44 355.28,-965.39 350.43,-967.91"/>
<polygon fill="midnightblue" stroke="midnightblue" points="486.5,-735.78 485.37,-725.24 479.68,-734.18 486.5,-735.78"/>
</g>
<!-- Node17 -->
<g id="node17" class="node">
<title>Node17</title>
<g id="a_node17"><a xlink:href="classextension_1_1AdcExtensionBase.html#ad0be2808763e50886aeecd7de1e344a0" target="_top" xlink:title=" ">
<polygon fill="none" stroke="black" points="200,-450 200,-480 361,-480 361,-450 200,-450"/>
<text text-anchor="start" x="208" y="-468" font-family="Helvetica,sans-Serif" font-size="10.00">extension::AdcExtensionBase</text>
<text text-anchor="middle" x="280.5" y="-457" font-family="Helvetica,sans-Serif" font-size="10.00">::voltageDivider</text>
</a>
</g>
</g>
<!-- Node4&#45;&gt;Node17 -->
<g id="edge18" class="edge">
<title>Node4&#45;&gt;Node17</title>
<path fill="none" stroke="midnightblue" d="M419.86,-700.04C412.4,-696.58 405.53,-692.01 400,-686 340.03,-620.82 423,-556.05 364,-490 360.61,-486.21 356.67,-482.98 352.37,-480.23"/>
<polygon fill="midnightblue" stroke="midnightblue" points="418.96,-703.45 429.55,-703.85 421.52,-696.93 418.96,-703.45"/>
</g>
<!-- Node18 -->
<g id="node18" class="node">
<title>Node18</title>
<g id="a_node18"><a xlink:href="classextension_1_1AdcExtensionBase.html#a8dfeb20998d7257afac6e381e5351d30" target="_top" xlink:title=" ">
<polygon fill="none" stroke="black" points="200,-401 200,-431 361,-431 361,-401 200,-401"/>
<text text-anchor="start" x="208" y="-419" font-family="Helvetica,sans-Serif" font-size="10.00">extension::AdcExtensionBase</text>
<text text-anchor="middle" x="280.5" y="-408" font-family="Helvetica,sans-Serif" font-size="10.00">::voltageReference</text>
</a>
</g>
</g>
<!-- Node4&#45;&gt;Node18 -->
<g id="edge20" class="edge">
<title>Node4&#45;&gt;Node18</title>
<path fill="none" stroke="midnightblue" d="M420.2,-700.49C412.57,-696.97 405.56,-692.26 400,-686 326.94,-603.69 435.84,-524.38 364,-441 360.68,-437.15 356.78,-433.87 352.53,-431.1"/>
<polygon fill="midnightblue" stroke="midnightblue" points="419.18,-703.84 429.77,-704.22 421.72,-697.32 419.18,-703.84"/>
</g>
<!-- Node13&#45;&gt;Node5 -->
<g id="edge13" class="edge">
<title>Node13&#45;&gt;Node5</title>
<path fill="none" stroke="midnightblue" d="M189.86,-503.13C180.24,-501.97 170.5,-500.79 161.02,-499.64"/>
<polygon fill="midnightblue" stroke="midnightblue" points="189.47,-506.61 199.82,-504.34 190.32,-499.66 189.47,-506.61"/>
</g>
<!-- Node14&#45;&gt;Node6 -->
<g id="edge15" class="edge">
<title>Node14&#45;&gt;Node6</title>
<path fill="none" stroke="midnightblue" d="M190.84,-924.15C180.65,-923.02 170.31,-921.87 160.27,-920.75"/>
<polygon fill="midnightblue" stroke="midnightblue" points="190.64,-927.65 200.96,-925.27 191.41,-920.69 190.64,-927.65"/>
</g>
<!-- Node16 -->
<g id="node16" class="node">
<title>Node16</title>
<g id="a_node16"><a xlink:href="classextension_1_1SamM8qExtension.html#abd1b7a24f87efe0353c00f6caf9c7945" target="_top" xlink:title="Contains a simple state machine that will configure, reset, and read data from the sensor....">
<polygon fill="none" stroke="black" points="0,-968 0,-998 161,-998 161,-968 0,-968"/>
<text text-anchor="start" x="8" y="-986" font-family="Helvetica,sans-Serif" font-size="10.00">extension::SamM8qExtension</text>
<text text-anchor="middle" x="80.5" y="-975" font-family="Helvetica,sans-Serif" font-size="10.00">::loop</text>
</a>
</g>
</g>
<!-- Node15&#45;&gt;Node16 -->
<g id="edge17" class="edge">
<title>Node15&#45;&gt;Node16</title>
<path fill="none" stroke="midnightblue" d="M189.55,-983C180.03,-983 170.4,-983 161.02,-983"/>
<polygon fill="midnightblue" stroke="midnightblue" points="189.82,-986.5 199.82,-983 189.82,-979.5 189.82,-986.5"/>
</g>
<!-- Node17&#45;&gt;Node5 -->
<g id="edge19" class="edge">
<title>Node17&#45;&gt;Node5</title>
<path fill="none" stroke="midnightblue" d="M189.86,-476.32C180.24,-477.53 170.5,-478.76 161.02,-479.96"/>
<polygon fill="midnightblue" stroke="midnightblue" points="190.34,-479.79 199.82,-475.06 189.46,-472.84 190.34,-479.79"/>
</g>
<!-- Node18&#45;&gt;Node5 -->
<g id="edge21" class="edge">
<title>Node18&#45;&gt;Node5</title>
<path fill="none" stroke="midnightblue" d="M216.96,-434.18C210.19,-436.38 203.43,-438.67 197,-441 168.74,-451.24 137.38,-464.68 114.48,-474.89"/>
<polygon fill="midnightblue" stroke="midnightblue" points="218.38,-437.4 226.85,-431.03 216.26,-430.73 218.38,-437.4"/>
</g>
<!-- Node23&#45;&gt;Node3 -->
<g id="edge27" class="edge">
<title>Node23&#45;&gt;Node3</title>
<path fill="none" stroke="midnightblue" d="M418.11,-418.6C411.92,-416.56 405.81,-414.36 400,-412 383.04,-405.11 380.24,-400.44 364,-392 347.62,-383.49 329.14,-374.47 313.83,-367.16"/>
<polygon fill="midnightblue" stroke="midnightblue" points="417.28,-422 427.87,-421.66 419.37,-415.33 417.28,-422"/>
</g>
<!-- Node24&#45;&gt;Node3 -->
<g id="edge29" class="edge">
<title>Node24&#45;&gt;Node3</title>
<path fill="none" stroke="midnightblue" d="M417.81,-375.05C393.23,-370.89 365.9,-366.27 342.21,-362.26"/>
<polygon fill="midnightblue" stroke="midnightblue" points="417.35,-378.52 427.79,-376.74 418.52,-371.62 417.35,-378.52"/>
</g>
<!-- Node25&#45;&gt;Node3 -->
<g id="edge31" class="edge">
<title>Node25&#45;&gt;Node3</title>
<path fill="none" stroke="midnightblue" d="M417.81,-342.78C393.23,-344.44 365.9,-346.29 342.21,-347.89"/>
<polygon fill="midnightblue" stroke="midnightblue" points="418.05,-346.27 427.79,-342.11 417.58,-339.29 418.05,-346.27"/>
</g>
<!-- Node26&#45;&gt;Node3 -->
<g id="edge33" class="edge">
<title>Node26&#45;&gt;Node3</title>
<path fill="none" stroke="midnightblue" d="M421.41,-306.79C414.17,-308.83 406.92,-310.92 400,-313 375.11,-320.47 347.51,-329.5 325.22,-337"/>
<polygon fill="midnightblue" stroke="midnightblue" points="422.55,-310.11 431.25,-304.05 420.67,-303.36 422.55,-310.11"/>
</g>
<!-- Node29 -->
<g id="node29" class="node">
<title>Node29</title>
<g id="a_node29"><a xlink:href="classmodules_1_1DataModule.html#ac24fdcd1442cbc107fcc427e14ddd328" target="_top" xlink:title="Processes all of the data streams and updates the data block that contains the stream stats.">
<polygon fill="none" stroke="black" points="218.5,-127 218.5,-157 342.5,-157 342.5,-127 218.5,-127"/>
<text text-anchor="start" x="226.5" y="-145" font-family="Helvetica,sans-Serif" font-size="10.00">modules::DataModule</text>
<text text-anchor="middle" x="280.5" y="-134" font-family="Helvetica,sans-Serif" font-size="10.00">::processAllStreams</text>
</a>
</g>
</g>
<!-- Node28&#45;&gt;Node29 -->
<g id="edge36" class="edge">
<title>Node28&#45;&gt;Node29</title>
<path fill="none" stroke="midnightblue" d="M417.02,-142C392.79,-142 365.96,-142 342.61,-142"/>
<polygon fill="midnightblue" stroke="midnightblue" points="417.23,-145.5 427.23,-142 417.23,-138.5 417.23,-145.5"/>
</g>
<!-- Node30&#45;&gt;Node3 -->
<g id="edge38" class="edge">
<title>Node30&#45;&gt;Node3</title>
<path fill="none" stroke="midnightblue" d="M418.38,-205.75C411.94,-208.36 405.7,-211.41 400,-215 348.88,-247.14 307.79,-308.13 290.43,-336.62"/>
<polygon fill="midnightblue" stroke="midnightblue" points="419.74,-208.98 427.92,-202.25 417.33,-202.41 419.74,-208.98"/>
</g>
</g>
</svg>
