<?xml version="1.0" encoding="UTF-8" standalone="no"?>
<!DOCTYPE svg PUBLIC "-//W3C//DTD SVG 1.1//EN"
 "http://www.w3.org/Graphics/SVG/1.1/DTD/svg11.dtd">
<!-- Generated by graphviz version 2.43.0 (0)
 -->
<!-- Title: ubx::sendResetCommand Pages: 1 -->
<svg width="620pt" height="28pt"
 viewBox="0.00 0.00 620.00 28.00" xmlns="http://www.w3.org/2000/svg" xmlns:xlink="http://www.w3.org/1999/xlink">
<g id="graph0" class="graph" transform="scale(1 1) rotate(0) translate(4 24)">
<title>ubx::sendResetCommand</title>
<!-- Node1 -->
<g id="node1" class="node">
<title>Node1</title>
<g id="a_node1"><a xlink:title="Send a UBX&#45;CFG&#45;RST command to the receiver (Hardware Reset)">
<polygon fill="#bfbfbf" stroke="black" points="0,-0.5 0,-19.5 142,-19.5 142,-0.5 0,-0.5"/>
<text text-anchor="middle" x="71" y="-7.5" font-family="Helvetica,sans-Serif" font-size="10.00">ubx::sendResetCommand</text>
</a>
</g>
</g>
<!-- Node2 -->
<g id="node2" class="node">
<title>Node2</title>
<g id="a_node2"><a xlink:href="namespaceubx.html#a9c61bbe6a93b89e72b9102bfd1b5fa0e" target="_top" xlink:title=" ">
<polygon fill="none" stroke="black" points="178,-0.5 178,-19.5 264,-19.5 264,-0.5 178,-0.5"/>
<text text-anchor="middle" x="221" y="-7.5" font-family="Helvetica,sans-Serif" font-size="10.00">ubx::writeUBX</text>
</a>
</g>
</g>
<!-- Node1&#45;&gt;Node2 -->
<g id="edge1" class="edge">
<title>Node1&#45;&gt;Node2</title>
<path fill="none" stroke="midnightblue" d="M142.1,-10C150.71,-10 159.4,-10 167.69,-10"/>
<polygon fill="midnightblue" stroke="midnightblue" points="167.94,-13.5 177.94,-10 167.94,-6.5 167.94,-13.5"/>
</g>
<!-- Node3 -->
<g id="node3" class="node">
<title>Node3</title>
<g id="a_node3"><a xlink:href="classI2cInterface.html#ad2c0dca6c1c239a1c4aba651035b6bff" target="_top" xlink:title="Write a chunk of data to the device at the specified register.">
<polygon fill="none" stroke="black" points="300,-0.5 300,-19.5 436,-19.5 436,-0.5 300,-0.5"/>
<text text-anchor="middle" x="368" y="-7.5" font-family="Helvetica,sans-Serif" font-size="10.00">I2cInterface::writeChunk</text>
</a>
</g>
</g>
<!-- Node2&#45;&gt;Node3 -->
<g id="edge2" class="edge">
<title>Node2&#45;&gt;Node3</title>
<path fill="none" stroke="midnightblue" d="M264.33,-10C272.32,-10 280.91,-10 289.59,-10"/>
<polygon fill="midnightblue" stroke="midnightblue" points="289.79,-13.5 299.79,-10 289.79,-6.5 289.79,-13.5"/>
</g>
<!-- Node4 -->
<g id="node4" class="node">
<title>Node4</title>
<g id="a_node4"><a xlink:href="classI2cInterface.html#a13c00b7b0597cc2223a9a0765afcbf85" target="_top" xlink:title="Checks the file descriptor to see if it&#39;s connected to the bus.">
<polygon fill="none" stroke="black" points="472,-0.5 472,-19.5 612,-19.5 612,-0.5 472,-0.5"/>
<text text-anchor="middle" x="542" y="-7.5" font-family="Helvetica,sans-Serif" font-size="10.00">I2cInterface::isConnected</text>
</a>
</g>
</g>
<!-- Node3&#45;&gt;Node4 -->
<g id="edge3" class="edge">
<title>Node3&#45;&gt;Node4</title>
<path fill="none" stroke="midnightblue" d="M436.49,-10C444.72,-10 453.18,-10 461.57,-10"/>
<polygon fill="midnightblue" stroke="midnightblue" points="461.73,-13.5 471.73,-10 461.73,-6.5 461.73,-13.5"/>
</g>
</g>
</svg>
