<?xml version="1.0" encoding="UTF-8" standalone="no"?>
<!DOCTYPE svg PUBLIC "-//W3C//DTD SVG 1.1//EN"
 "http://www.w3.org/Graphics/SVG/1.1/DTD/svg11.dtd">
<!-- Generated by graphviz version 2.43.0 (0)
 -->
<!-- Title: giraffe::file_paths::getGfsLogDirPath Pages: 1 -->
<svg width="478pt" height="60pt"
 viewBox="0.00 0.00 478.00 60.00" xmlns="http://www.w3.org/2000/svg" xmlns:xlink="http://www.w3.org/1999/xlink">
<g id="graph0" class="graph" transform="scale(1 1) rotate(0) translate(4 56)">
<title>giraffe::file_paths::getGfsLogDirPath</title>
<!-- Node1 -->
<g id="Node000001" class="node">
<title>Node1</title>
<g id="a_Node000001"><a xlink:title="Returns the path to the gfs log directory. Creates the directory if it does not exist.">
<polygon fill="#999999" stroke="#666666" points="107,-30 0,-30 0,0 107,0 107,-30"/>
<text text-anchor="start" x="8" y="-18" font-family="Helvetica,sans-Serif" font-size="10.00">giraffe::file_paths</text>
<text text-anchor="middle" x="53.5" y="-7" font-family="Helvetica,sans-Serif" font-size="10.00">::getGfsLogDirPath</text>
</a>
</g>
</g>
<!-- Node2 -->
<g id="Node000002" class="node">
<title>Node2</title>
<g id="a_Node000002"><a xlink:href="namespacegiraffe_1_1file__paths.html#a3cebf8089cfb107e6b610ffc51ea7afa" target="_top" xlink:title="Creates the Giraffe directory if it does not exist. Throws a GiraffeException if it cannot be created...">
<polygon fill="white" stroke="#666666" points="297,-52 143,-52 143,-22 297,-22 297,-52"/>
<text text-anchor="start" x="151" y="-40" font-family="Helvetica,sans-Serif" font-size="10.00">giraffe::file_paths</text>
<text text-anchor="middle" x="220" y="-29" font-family="Helvetica,sans-Serif" font-size="10.00">::createGiraffeDirIfNotExists</text>
</a>
</g>
</g>
<!-- Node1&#45;&gt;Node2 -->
<g id="edge1_Node000001_Node000002" class="edge">
<title>Node1&#45;&gt;Node2</title>
<g id="a_edge1_Node000001_Node000002"><a xlink:title=" ">
<path fill="none" stroke="#63b8ff" d="M107,-22.02C115.27,-23.13 124,-24.29 132.79,-25.47"/>
<polygon fill="#63b8ff" stroke="#63b8ff" points="132.34,-28.94 142.72,-26.8 133.27,-22 132.34,-28.94"/>
</a>
</g>
</g>
<!-- Node3 -->
<g id="Node000003" class="node">
<title>Node3</title>
<g id="a_Node000003"><a xlink:href="namespacegiraffe_1_1file__paths.html#a65c87720fa2bacbdc5af2ce04c03ebff" target="_top" xlink:title="Get the Giraffe Directory Path.">
<polygon fill="white" stroke="#666666" points="470,-30 333,-30 333,0 470,0 470,-30"/>
<text text-anchor="start" x="341" y="-18" font-family="Helvetica,sans-Serif" font-size="10.00">giraffe::file_paths</text>
<text text-anchor="middle" x="401.5" y="-7" font-family="Helvetica,sans-Serif" font-size="10.00">::getGiraffeDirectoryPath</text>
</a>
</g>
</g>
<!-- Node1&#45;&gt;Node3 -->
<g id="edge3_Node000001_Node000003" class="edge">
<title>Node1&#45;&gt;Node3</title>
<g id="a_edge3_Node000001_Node000003"><a xlink:title=" ">
<path fill="none" stroke="#63b8ff" d="M107.38,-13.61C119.11,-13.36 131.47,-13.13 143,-13 211.44,-12.23 228.56,-12.34 297,-13 305.33,-13.08 314.04,-13.2 322.71,-13.33"/>
<polygon fill="#63b8ff" stroke="#63b8ff" points="322.8,-16.84 332.86,-13.5 322.92,-9.84 322.8,-16.84"/>
</a>
</g>
</g>
<!-- Node2&#45;&gt;Node3 -->
<g id="edge2_Node000002_Node000003" class="edge">
<title>Node2&#45;&gt;Node3</title>
<g id="a_edge2_Node000002_Node000003"><a xlink:title=" ">
<path fill="none" stroke="#63b8ff" d="M297.12,-27.67C305.64,-26.63 314.32,-25.56 322.86,-24.52"/>
<polygon fill="#63b8ff" stroke="#63b8ff" points="323.29,-27.99 332.79,-23.3 322.44,-21.04 323.29,-27.99"/>
</a>
</g>
</g>
</g>
</svg>
