<?xml version="1.0" encoding="UTF-8" standalone="no"?>
<!DOCTYPE svg PUBLIC "-//W3C//DTD SVG 1.1//EN"
 "http://www.w3.org/Graphics/SVG/1.1/DTD/svg11.dtd">
<!-- Generated by graphviz version 2.43.0 (0)
 -->
<!-- Title: data::isImuFrameValid Pages: 1 -->
<svg width="211pt" height="175pt"
 viewBox="0.00 0.00 211.00 175.00" xmlns="http://www.w3.org/2000/svg" xmlns:xlink="http://www.w3.org/1999/xlink">
<g id="graph0" class="graph" transform="scale(1 1) rotate(0) translate(4 171)">
<title>data::isImuFrameValid</title>
<!-- Node1 -->
<g id="Node000001" class="node">
<title>Node1</title>
<g id="a_Node000001"><a xlink:title="Checks if an IMU frame contains valid data.">
<polygon fill="#999999" stroke="#666666" points="203,-93 77,-93 77,-74 203,-74 203,-93"/>
<text text-anchor="middle" x="140" y="-81" font-family="Helvetica,sans-Serif" font-size="10.00">data::isImuFrameValid</text>
</a>
</g>
</g>
<!-- Node2 -->
<g id="Node000002" class="node">
<title>Node2</title>
<g id="a_Node000002"><a xlink:href="test__positional_8cpp.html#a134df4335a4039075cf72361d2b97a8b" target="_top" xlink:title="Verify validity of acceleration (m/s^2)">
<polygon fill="white" stroke="#666666" points="41,-167 0,-167 0,-148 41,-148 41,-167"/>
<text text-anchor="middle" x="20.5" y="-155" font-family="Helvetica,sans-Serif" font-size="10.00">TEST</text>
</a>
</g>
</g>
<!-- Node1&#45;&gt;Node2 -->
<g id="edge1_Node000001_Node000002" class="edge">
<title>Node1&#45;&gt;Node2</title>
<g id="a_edge1_Node000001_Node000002"><a xlink:title=" ">
<path fill="none" stroke="#63b8ff" d="M114.99,-98.62C91.6,-113.35 56.75,-135.3 36.86,-147.82"/>
<polygon fill="#63b8ff" stroke="#63b8ff" points="117.04,-101.46 123.64,-93.17 113.31,-95.54 117.04,-101.46"/>
</a>
</g>
</g>
<!-- Node3 -->
<g id="Node000003" class="node">
<title>Node3</title>
<g id="a_Node000003"><a xlink:href="test__positional_8cpp.html#a0e7371dcedfd45ac056318ae992589d3" target="_top" xlink:title="Verify validity of angular velocity (rad/s)">
<polygon fill="white" stroke="#666666" points="41,-130 0,-130 0,-111 41,-111 41,-130"/>
<text text-anchor="middle" x="20.5" y="-118" font-family="Helvetica,sans-Serif" font-size="10.00">TEST</text>
</a>
</g>
</g>
<!-- Node1&#45;&gt;Node3 -->
<g id="edge2_Node000001_Node000003" class="edge">
<title>Node1&#45;&gt;Node3</title>
<g id="a_edge2_Node000001_Node000003"><a xlink:title=" ">
<path fill="none" stroke="#63b8ff" d="M99.18,-96.04C79.7,-102.17 57.1,-109.29 41.32,-114.26"/>
<polygon fill="#63b8ff" stroke="#63b8ff" points="100.25,-99.37 108.74,-93.03 98.15,-92.69 100.25,-99.37"/>
</a>
</g>
</g>
<!-- Node4 -->
<g id="Node000004" class="node">
<title>Node4</title>
<g id="a_Node000004"><a xlink:href="test__positional_8cpp.html#a15df22c9f5787f6604e5c1871311e54b" target="_top" xlink:title="Verify validity of heading of motion (0&#45;360 degrees)">
<polygon fill="white" stroke="#666666" points="41,-93 0,-93 0,-74 41,-74 41,-93"/>
<text text-anchor="middle" x="20.5" y="-81" font-family="Helvetica,sans-Serif" font-size="10.00">TEST</text>
</a>
</g>
</g>
<!-- Node1&#45;&gt;Node4 -->
<g id="edge3_Node000001_Node000004" class="edge">
<title>Node1&#45;&gt;Node4</title>
<g id="a_edge3_Node000001_Node000004"><a xlink:title=" ">
<path fill="none" stroke="#63b8ff" d="M66.55,-83.5C57.23,-83.5 48.4,-83.5 41.06,-83.5"/>
<polygon fill="#63b8ff" stroke="#63b8ff" points="66.81,-87 76.81,-83.5 66.81,-80 66.81,-87"/>
</a>
</g>
</g>
<!-- Node5 -->
<g id="Node000005" class="node">
<title>Node5</title>
<g id="a_Node000005"><a xlink:href="test__positional_8cpp.html#aed338c251e2809635389735e92acb4a2" target="_top" xlink:title="Time delta out of range.">
<polygon fill="white" stroke="#666666" points="41,-56 0,-56 0,-37 41,-37 41,-56"/>
<text text-anchor="middle" x="20.5" y="-44" font-family="Helvetica,sans-Serif" font-size="10.00">TEST</text>
</a>
</g>
</g>
<!-- Node1&#45;&gt;Node5 -->
<g id="edge4_Node000001_Node000005" class="edge">
<title>Node1&#45;&gt;Node5</title>
<g id="a_edge4_Node000001_Node000005"><a xlink:title=" ">
<path fill="none" stroke="#63b8ff" d="M99.18,-70.96C79.7,-64.83 57.1,-57.71 41.32,-52.74"/>
<polygon fill="#63b8ff" stroke="#63b8ff" points="98.15,-74.31 108.74,-73.97 100.25,-67.63 98.15,-74.31"/>
</a>
</g>
</g>
<!-- Node6 -->
<g id="Node000006" class="node">
<title>Node6</title>
<g id="a_Node000006"><a xlink:href="test__positional_8cpp.html#afc0298cbdac30e6d61d8e9652672aece" target="_top" xlink:title="All zeros is valid, if is_valid is set to true.">
<polygon fill="white" stroke="#666666" points="41,-19 0,-19 0,0 41,0 41,-19"/>
<text text-anchor="middle" x="20.5" y="-7" font-family="Helvetica,sans-Serif" font-size="10.00">TEST</text>
</a>
</g>
</g>
<!-- Node1&#45;&gt;Node6 -->
<g id="edge5_Node000001_Node000006" class="edge">
<title>Node1&#45;&gt;Node6</title>
<g id="a_edge5_Node000001_Node000006"><a xlink:title=" ">
<path fill="none" stroke="#63b8ff" d="M114.99,-68.38C91.6,-53.65 56.75,-31.7 36.86,-19.18"/>
<polygon fill="#63b8ff" stroke="#63b8ff" points="113.31,-71.46 123.64,-73.83 117.04,-65.54 113.31,-71.46"/>
</a>
</g>
</g>
</g>
</svg>
