<?xml version="1.0" encoding="UTF-8" standalone="no"?>
<!DOCTYPE svg PUBLIC "-//W3C//DTD SVG 1.1//EN"
 "http://www.w3.org/Graphics/SVG/1.1/DTD/svg11.dtd">
<!-- Generated by graphviz version 2.43.0 (0)
 -->
<!-- Title: util::to_string Pages: 1 -->
<svg width="681pt" height="1808pt"
 viewBox="0.00 0.00 681.00 1807.50" xmlns="http://www.w3.org/2000/svg" xmlns:xlink="http://www.w3.org/1999/xlink">
<g id="graph0" class="graph" transform="scale(1 1) rotate(0) translate(4 1803.5)">
<title>util::to_string</title>
<!-- Node1 -->
<g id="node1" class="node">
<title>Node1</title>
<g id="a_node1"><a xlink:title="Converts a flight phase to a string.">
<polygon fill="#bfbfbf" stroke="black" points="592,-793.5 592,-812.5 673,-812.5 673,-793.5 592,-793.5"/>
<text text-anchor="middle" x="632.5" y="-800.5" font-family="Helvetica,sans-Serif" font-size="10.00">util::to_string</text>
</a>
</g>
</g>
<!-- Node2 -->
<g id="node2" class="node">
<title>Node2</title>
<g id="a_node2"><a xlink:href="structgiraffe_1_1Gpio_1_1Pin.html#a99a0fe69fe4560169ec0e27318720d60" target="_top" xlink:title="Create a new pin struct.">
<polygon fill="none" stroke="black" points="407,-1644.5 407,-1663.5 526,-1663.5 526,-1644.5 407,-1644.5"/>
<text text-anchor="middle" x="466.5" y="-1651.5" font-family="Helvetica,sans-Serif" font-size="10.00">giraffe::Gpio::Pin::Pin</text>
</a>
</g>
</g>
<!-- Node1&#45;&gt;Node2 -->
<g id="edge1" class="edge">
<title>Node1&#45;&gt;Node2</title>
<path fill="none" stroke="midnightblue" d="M631.08,-822.99C628.36,-943.7 611.61,-1572.22 556,-1635 548.29,-1643.7 537.64,-1648.96 526.4,-1652.04"/>
<polygon fill="midnightblue" stroke="midnightblue" points="634.59,-822.74 631.31,-812.66 627.59,-822.58 634.59,-822.74"/>
</g>
<!-- Node3 -->
<g id="node3" class="node">
<title>Node3</title>
<g id="a_node3"><a xlink:href="classmodules_1_1DataModule.html#a13de2ec04ae048529fcfe91c95272b97" target="_top" xlink:title="Use existing data to calculate the data that can be calculated.">
<polygon fill="none" stroke="black" points="395.5,-1595 395.5,-1625 537.5,-1625 537.5,-1595 395.5,-1595"/>
<text text-anchor="start" x="403.5" y="-1613" font-family="Helvetica,sans-Serif" font-size="10.00">modules::DataModule</text>
<text text-anchor="middle" x="466.5" y="-1602" font-family="Helvetica,sans-Serif" font-size="10.00">::calculateCalculatedData</text>
</a>
</g>
</g>
<!-- Node1&#45;&gt;Node3 -->
<g id="edge2" class="edge">
<title>Node1&#45;&gt;Node3</title>
<path fill="none" stroke="midnightblue" d="M630.85,-822.65C626.89,-937.48 604.54,-1518.78 556,-1580 551.06,-1586.23 544.77,-1591.17 537.83,-1595.09"/>
<polygon fill="midnightblue" stroke="midnightblue" points="634.35,-822.62 631.19,-812.51 627.36,-822.38 634.35,-822.62"/>
</g>
<!-- Node4 -->
<g id="node4" class="node">
<title>Node4</title>
<g id="a_node4"><a xlink:href="classconsole__pages_1_1Pages.html#a4b0ae50da4241115a3acfca9f0c4e306" target="_top" xlink:title=" ">
<polygon fill="none" stroke="black" points="405,-1283 405,-1313 528,-1313 528,-1283 405,-1283"/>
<text text-anchor="start" x="413" y="-1301" font-family="Helvetica,sans-Serif" font-size="10.00">console_pages::Pages</text>
<text text-anchor="middle" x="466.5" y="-1290" font-family="Helvetica,sans-Serif" font-size="10.00">::data</text>
</a>
</g>
</g>
<!-- Node1&#45;&gt;Node4 -->
<g id="edge3" class="edge">
<title>Node1&#45;&gt;Node4</title>
<path fill="none" stroke="midnightblue" d="M631.09,-823.05C629.01,-904.04 617.23,-1205.92 556,-1274 548.65,-1282.17 538.84,-1287.68 528.42,-1291.36"/>
<polygon fill="midnightblue" stroke="midnightblue" points="634.59,-822.84 631.33,-812.76 627.59,-822.67 634.59,-822.84"/>
</g>
<!-- Node6 -->
<g id="node6" class="node">
<title>Node6</title>
<g id="a_node6"><a xlink:href="classextension_1_1Extension.html#aa7ec0098dfde16a54eb616c73ba3046e" target="_top" xlink:title=" ">
<polygon fill="none" stroke="black" points="407,-1507 407,-1537 526,-1537 526,-1507 407,-1507"/>
<text text-anchor="start" x="415" y="-1525" font-family="Helvetica,sans-Serif" font-size="10.00">extension::Extension</text>
<text text-anchor="middle" x="466.5" y="-1514" font-family="Helvetica,sans-Serif" font-size="10.00">::data</text>
</a>
</g>
</g>
<!-- Node1&#45;&gt;Node6 -->
<g id="edge5" class="edge">
<title>Node1&#45;&gt;Node6</title>
<path fill="none" stroke="midnightblue" d="M630.67,-822.59C625.97,-930.05 601.17,-1445.14 556,-1498 548.24,-1507.08 537.44,-1512.9 526.03,-1516.59"/>
<polygon fill="midnightblue" stroke="midnightblue" points="634.17,-822.65 631.11,-812.51 627.18,-822.35 634.17,-822.65"/>
</g>
<!-- Node10 -->
<g id="node10" class="node">
<title>Node10</title>
<g id="a_node10"><a xlink:href="classextension_1_1PiCamera.html#a2e7468202c0c0cc42271cb4f9b04c6f7" target="_top" xlink:title=" ">
<polygon fill="none" stroke="black" points="198.5,-1769 198.5,-1799 316.5,-1799 316.5,-1769 198.5,-1769"/>
<text text-anchor="start" x="206.5" y="-1787" font-family="Helvetica,sans-Serif" font-size="10.00">extension::PiCamera</text>
<text text-anchor="middle" x="257.5" y="-1776" font-family="Helvetica,sans-Serif" font-size="10.00">::loop</text>
</a>
</g>
</g>
<!-- Node1&#45;&gt;Node10 -->
<g id="edge39" class="edge">
<title>Node1&#45;&gt;Node10</title>
<path fill="none" stroke="midnightblue" d="M630.85,-822.94C627.02,-935.79 605.68,-1491.34 556,-1547 501.78,-1607.74 434.27,-1528.12 377,-1586 321.45,-1642.13 394.59,-1702 341,-1760 334.42,-1767.12 325.86,-1772.17 316.76,-1775.75"/>
<polygon fill="midnightblue" stroke="midnightblue" points="634.36,-822.77 631.2,-812.66 627.36,-822.54 634.36,-822.77"/>
</g>
<!-- Node19 -->
<g id="node18" class="node">
<title>Node19</title>
<g id="a_node18"><a xlink:href="classmodules_1_1Module.html#ae3745aa2ab9ed49ad46f198c6280852e" target="_top" xlink:title="Used internally in the module. This function adds a data to the data stream.">
<polygon fill="none" stroke="black" points="402.5,-1419.5 402.5,-1438.5 530.5,-1438.5 530.5,-1419.5 402.5,-1419.5"/>
<text text-anchor="middle" x="466.5" y="-1426.5" font-family="Helvetica,sans-Serif" font-size="10.00">modules::Module::data</text>
</a>
</g>
</g>
<!-- Node1&#45;&gt;Node19 -->
<g id="edge18" class="edge">
<title>Node1&#45;&gt;Node19</title>
<path fill="none" stroke="midnightblue" d="M631.86,-822.67C633.14,-916.22 633.93,-1315.32 556,-1405 549.32,-1412.69 540.44,-1418.04 530.89,-1421.73"/>
<polygon fill="midnightblue" stroke="midnightblue" points="635.35,-822.55 631.7,-812.6 628.36,-822.66 635.35,-822.55"/>
</g>
<!-- Node20 -->
<g id="node19" class="node">
<title>Node20</title>
<g id="a_node19"><a xlink:href="classextension_1_1Extension.html#ab94ad848063e5b1677ca365e709bd03c" target="_top" xlink:title=" ">
<polygon fill="none" stroke="black" points="386,-1458 386,-1488 547,-1488 547,-1458 386,-1458"/>
<text text-anchor="start" x="394" y="-1476" font-family="Helvetica,sans-Serif" font-size="10.00">extension::Extension</text>
<text text-anchor="middle" x="466.5" y="-1465" font-family="Helvetica,sans-Serif" font-size="10.00">::dataWithSecondaryIdentifier</text>
</a>
</g>
</g>
<!-- Node1&#45;&gt;Node20 -->
<g id="edge19" class="edge">
<title>Node1&#45;&gt;Node20</title>
<path fill="none" stroke="midnightblue" d="M630.48,-822.77C625,-925.87 597.69,-1399.11 556,-1448 552.79,-1451.77 549.06,-1454.99 544.98,-1457.74"/>
<polygon fill="midnightblue" stroke="midnightblue" points="633.98,-822.94 631.01,-812.77 626.99,-822.58 633.98,-822.94"/>
</g>
<!-- Node21 -->
<g id="node20" class="node">
<title>Node21</title>
<g id="a_node20"><a xlink:href="classextension_1_1AdcExtensionBase.html#a85d69527733d432f6c74c24c7aa47d42" target="_top" xlink:title=" ">
<polygon fill="none" stroke="red" points="177,-1240 177,-1270 338,-1270 338,-1240 177,-1240"/>
<text text-anchor="start" x="185" y="-1258" font-family="Helvetica,sans-Serif" font-size="10.00">extension::AdcExtensionBase</text>
<text text-anchor="middle" x="257.5" y="-1247" font-family="Helvetica,sans-Serif" font-size="10.00">::reportAdcData</text>
</a>
</g>
</g>
<!-- Node1&#45;&gt;Node21 -->
<g id="edge45" class="edge">
<title>Node1&#45;&gt;Node21</title>
<path fill="none" stroke="midnightblue" d="M630.4,-822.7C624.84,-918.74 598.41,-1334.85 556,-1372 496.16,-1424.42 442.71,-1416.85 377,-1372 340.73,-1347.25 373.25,-1309.8 341,-1280 336.82,-1276.14 332.07,-1272.88 327,-1270.11"/>
<polygon fill="midnightblue" stroke="midnightblue" points="633.9,-822.8 630.97,-812.62 626.91,-822.4 633.9,-822.8"/>
</g>
<!-- Node24 -->
<g id="node21" class="node">
<title>Node24</title>
<g id="a_node21"><a xlink:href="classFlightRunner.html#ae966ae98c140e7880b3c7c4cbfa5cf05" target="_top" xlink:title="Detects the current flight phase and sets it in the shared data. flight_phase.hpp.">
<polygon fill="none" stroke="red" points="186,-229 186,-259 329,-259 329,-229 186,-229"/>
<text text-anchor="start" x="194" y="-247" font-family="Helvetica,sans-Serif" font-size="10.00">FlightRunner::detectFlight</text>
<text text-anchor="middle" x="257.5" y="-236" font-family="Helvetica,sans-Serif" font-size="10.00">Phase</text>
</a>
</g>
</g>
<!-- Node1&#45;&gt;Node24 -->
<g id="edge21" class="edge">
<title>Node1&#45;&gt;Node24</title>
<path fill="none" stroke="midnightblue" d="M631.09,-783.45C629.02,-704.53 617.25,-410.44 556,-346 499.91,-286.98 453.44,-335.04 377,-307 342.44,-294.32 305.4,-273.3 282.11,-259.05"/>
<polygon fill="midnightblue" stroke="midnightblue" points="627.59,-783.57 631.33,-793.49 634.59,-783.41 627.59,-783.57"/>
</g>
<!-- Node26 -->
<g id="node22" class="node">
<title>Node26</title>
<g id="a_node22"><a xlink:href="classextension_1_1Extension.html#aaae6a7d91b77ac86a6e597bf0071889d" target="_top" xlink:title=" ">
<polygon fill="none" stroke="black" points="407,-1234 407,-1264 526,-1264 526,-1234 407,-1234"/>
<text text-anchor="start" x="415" y="-1252" font-family="Helvetica,sans-Serif" font-size="10.00">extension::Extension</text>
<text text-anchor="middle" x="466.5" y="-1241" font-family="Helvetica,sans-Serif" font-size="10.00">::error</text>
</a>
</g>
</g>
<!-- Node1&#45;&gt;Node26 -->
<g id="edge22" class="edge">
<title>Node1&#45;&gt;Node26</title>
<path fill="none" stroke="midnightblue" d="M630.66,-822.81C627.08,-897.89 610.68,-1163.69 556,-1224 548.06,-1232.75 537.32,-1238.53 526.06,-1242.33"/>
<polygon fill="midnightblue" stroke="midnightblue" points="634.16,-822.96 631.11,-812.81 627.16,-822.64 634.16,-822.96"/>
</g>
<!-- Node27 -->
<g id="node23" class="node">
<title>Node27</title>
<g id="a_node23"><a xlink:href="classmodules_1_1Module.html#a2d64fd89764378e46ffc96cce45953db" target="_top" xlink:title="Same as the other error function, but takes an int instead of a string.">
<polygon fill="none" stroke="black" points="401.5,-1195.5 401.5,-1214.5 531.5,-1214.5 531.5,-1195.5 401.5,-1195.5"/>
<text text-anchor="middle" x="466.5" y="-1202.5" font-family="Helvetica,sans-Serif" font-size="10.00">modules::Module::error</text>
</a>
</g>
</g>
<!-- Node1&#45;&gt;Node27 -->
<g id="edge23" class="edge">
<title>Node1&#45;&gt;Node27</title>
<path fill="none" stroke="midnightblue" d="M630.39,-822.92C626.02,-893.96 607.65,-1133.47 556,-1186 549.28,-1192.84 540.74,-1197.49 531.62,-1200.62"/>
<polygon fill="midnightblue" stroke="midnightblue" points="633.9,-822.87 630.99,-812.68 626.91,-822.46 633.9,-822.87"/>
</g>
<!-- Node28 -->
<g id="node24" class="node">
<title>Node28</title>
<g id="a_node24"><a xlink:href="classdata_1_1LogStream.html#a2e520b1959831d7eb0a0d4c586292e94" target="_top" xlink:title=" ">
<polygon fill="none" stroke="black" points="384.5,-1146 384.5,-1176 548.5,-1176 548.5,-1146 384.5,-1146"/>
<text text-anchor="start" x="392.5" y="-1164" font-family="Helvetica,sans-Serif" font-size="10.00">data::LogStream::errorBooster</text>
<text text-anchor="middle" x="466.5" y="-1153" font-family="Helvetica,sans-Serif" font-size="10.00">SeatException</text>
</a>
</g>
</g>
<!-- Node1&#45;&gt;Node28 -->
<g id="edge24" class="edge">
<title>Node1&#45;&gt;Node28</title>
<path fill="none" stroke="midnightblue" d="M629.68,-822.75C623.33,-887.37 600.14,-1090.94 556,-1137 552.7,-1140.45 548.95,-1143.42 544.91,-1145.97"/>
<polygon fill="midnightblue" stroke="midnightblue" points="633.17,-822.97 630.64,-812.68 626.21,-822.3 633.17,-822.97"/>
</g>
<!-- Node29 -->
<g id="node25" class="node">
<title>Node29</title>
<g id="a_node25"><a xlink:href="classconsole__pages_1_1Pages.html#a815a74fc95295c02b4638fa47b03e18d" target="_top" xlink:title=" ">
<polygon fill="none" stroke="black" points="405,-862 405,-892 528,-892 528,-862 405,-862"/>
<text text-anchor="start" x="413" y="-880" font-family="Helvetica,sans-Serif" font-size="10.00">console_pages::Pages</text>
<text text-anchor="middle" x="466.5" y="-869" font-family="Helvetica,sans-Serif" font-size="10.00">::extensionData</text>
</a>
</g>
</g>
<!-- Node1&#45;&gt;Node29 -->
<g id="edge25" class="edge">
<title>Node1&#45;&gt;Node29</title>
<path fill="none" stroke="midnightblue" d="M611.12,-819.11C596.49,-830 575.93,-843.98 556,-853 547.3,-856.94 537.81,-860.35 528.39,-863.26"/>
<polygon fill="midnightblue" stroke="midnightblue" points="613.57,-821.65 619.4,-812.8 609.32,-816.08 613.57,-821.65"/>
</g>
<!-- Node30 -->
<g id="node26" class="node">
<title>Node30</title>
<g id="a_node26"><a xlink:href="classconsole__pages_1_1Pages.html#aa3dd00ba1c736892c991d7d4f461bfe0" target="_top" xlink:title=" ">
<polygon fill="none" stroke="black" points="405,-813 405,-843 528,-843 528,-813 405,-813"/>
<text text-anchor="start" x="413" y="-831" font-family="Helvetica,sans-Serif" font-size="10.00">console_pages::Pages</text>
<text text-anchor="middle" x="466.5" y="-820" font-family="Helvetica,sans-Serif" font-size="10.00">::extensions</text>
</a>
</g>
</g>
<!-- Node1&#45;&gt;Node30 -->
<g id="edge27" class="edge">
<title>Node1&#45;&gt;Node30</title>
<path fill="none" stroke="midnightblue" d="M581.64,-810.6C564.81,-813.17 545.85,-816.06 528.28,-818.73"/>
<polygon fill="midnightblue" stroke="midnightblue" points="582.44,-814.02 591.8,-809.05 581.39,-807.1 582.44,-814.02"/>
</g>
<!-- Node31 -->
<g id="node27" class="node">
<title>Node31</title>
<g id="a_node27"><a xlink:href="classgiraffe_1_1gdl_1_1GdlServer.html#ae56487945cbcf4a3c0184986102e340e" target="_top" xlink:title=" ">
<polygon fill="none" stroke="red" points="405,-999 405,-1029 528,-1029 528,-999 405,-999"/>
<text text-anchor="start" x="413" y="-1017" font-family="Helvetica,sans-Serif" font-size="10.00">giraffe::gdl::GdlServer</text>
<text text-anchor="middle" x="466.5" y="-1006" font-family="Helvetica,sans-Serif" font-size="10.00">::getNextResponseId</text>
</a>
</g>
</g>
<!-- Node1&#45;&gt;Node31 -->
<g id="edge29" class="edge">
<title>Node1&#45;&gt;Node31</title>
<path fill="none" stroke="midnightblue" d="M629.22,-823.23C623.79,-861.61 606.54,-945.14 556,-990 548.14,-996.97 538.45,-1001.95 528.4,-1005.49"/>
<polygon fill="midnightblue" stroke="midnightblue" points="632.75,-823.23 630.55,-812.87 625.8,-822.34 632.75,-823.23"/>
</g>
<!-- Node51 -->
<g id="node28" class="node">
<title>Node51</title>
<g id="a_node28"><a xlink:href="structdata__middleware_1_1InfluxLine.html#ab668667e88a106ae046e81d6fe779fa7" target="_top" xlink:title=" ">
<polygon fill="none" stroke="red" points="389,-950 389,-980 544,-980 544,-950 389,-950"/>
<text text-anchor="start" x="397" y="-968" font-family="Helvetica,sans-Serif" font-size="10.00">data_middleware::InfluxLine</text>
<text text-anchor="middle" x="466.5" y="-957" font-family="Helvetica,sans-Serif" font-size="10.00">::getString</text>
</a>
</g>
</g>
<!-- Node1&#45;&gt;Node51 -->
<g id="edge30" class="edge">
<title>Node1&#45;&gt;Node51</title>
<path fill="none" stroke="midnightblue" d="M626.15,-822.3C616.89,-852.07 595.02,-909.01 556,-940 551.12,-943.87 545.68,-947.15 539.95,-949.91"/>
<polygon fill="midnightblue" stroke="midnightblue" points="629.52,-823.24 629,-812.66 622.81,-821.25 629.52,-823.24"/>
</g>
<!-- Node53 -->
<g id="node29" class="node">
<title>Node53</title>
<g id="a_node29"><a xlink:href="influxdb_8cpp.html#a72945fb4d8ea1727ad479c78048bd0e0" target="_top" xlink:title=" ">
<polygon fill="none" stroke="black" points="426.5,-911.5 426.5,-930.5 506.5,-930.5 506.5,-911.5 426.5,-911.5"/>
<text text-anchor="middle" x="466.5" y="-918.5" font-family="Helvetica,sans-Serif" font-size="10.00">getUnixTime</text>
</a>
</g>
</g>
<!-- Node1&#45;&gt;Node53 -->
<g id="edge31" class="edge">
<title>Node1&#45;&gt;Node53</title>
<path fill="none" stroke="midnightblue" d="M622.51,-821.7C610.58,-844.41 587.32,-882.13 556,-902 541.4,-911.26 523.01,-916.07 506.78,-918.55"/>
<polygon fill="midnightblue" stroke="midnightblue" points="625.66,-823.22 627.05,-812.72 619.41,-820.06 625.66,-823.22"/>
</g>
<!-- Node54 -->
<g id="node30" class="node">
<title>Node54</title>
<g id="a_node30"><a xlink:href="classconsole__pages_1_1Pages.html#a27c3adbf55be9c5165077caed2c01b57" target="_top" xlink:title=" ">
<polygon fill="none" stroke="black" points="405,-355 405,-385 528,-385 528,-355 405,-355"/>
<text text-anchor="start" x="413" y="-373" font-family="Helvetica,sans-Serif" font-size="10.00">console_pages::Pages</text>
<text text-anchor="middle" x="466.5" y="-362" font-family="Helvetica,sans-Serif" font-size="10.00">::gfsStatus</text>
</a>
</g>
</g>
<!-- Node1&#45;&gt;Node54 -->
<g id="edge32" class="edge">
<title>Node1&#45;&gt;Node54</title>
<path fill="none" stroke="midnightblue" d="M630.54,-783.34C626.58,-709.95 609.09,-453.24 556,-395 548.58,-386.86 538.73,-381.29 528.3,-377.5"/>
<polygon fill="midnightblue" stroke="midnightblue" points="627.06,-783.68 631.07,-793.49 634.05,-783.32 627.06,-783.68"/>
</g>
<!-- Node55 -->
<g id="node31" class="node">
<title>Node55</title>
<g id="a_node31"><a xlink:href="classconsole__pages_1_1Pages.html#a141ef59324d5cd73c9f39488ab0fa363" target="_top" xlink:title=" ">
<polygon fill="none" stroke="black" points="405,-1332 405,-1362 528,-1362 528,-1332 405,-1332"/>
<text text-anchor="start" x="413" y="-1350" font-family="Helvetica,sans-Serif" font-size="10.00">console_pages::Pages</text>
<text text-anchor="middle" x="466.5" y="-1339" font-family="Helvetica,sans-Serif" font-size="10.00">::location</text>
</a>
</g>
</g>
<!-- Node1&#45;&gt;Node55 -->
<g id="edge34" class="edge">
<title>Node1&#45;&gt;Node55</title>
<path fill="none" stroke="midnightblue" d="M631.42,-822.91C630.68,-908.83 623.45,-1246.88 556,-1323 548.61,-1331.34 538.64,-1336.91 528.06,-1340.61"/>
<polygon fill="midnightblue" stroke="midnightblue" points="634.92,-822.93 631.49,-812.91 627.92,-822.89 634.92,-822.93"/>
</g>
<!-- Node56 -->
<g id="node32" class="node">
<title>Node56</title>
<g id="a_node32"><a xlink:href="classdata__middleware_1_1InfluxDb.html#a1c9b38266a11676e158a34d652bcaf69" target="_top" xlink:title=" ">
<polygon fill="none" stroke="black" points="392.5,-764 392.5,-794 540.5,-794 540.5,-764 392.5,-764"/>
<text text-anchor="start" x="400.5" y="-782" font-family="Helvetica,sans-Serif" font-size="10.00">data_middleware::InfluxDb</text>
<text text-anchor="middle" x="466.5" y="-771" font-family="Helvetica,sans-Serif" font-size="10.00">::logDataPacket</text>
</a>
</g>
</g>
<!-- Node1&#45;&gt;Node56 -->
<g id="edge36" class="edge">
<title>Node1&#45;&gt;Node56</title>
<path fill="none" stroke="midnightblue" d="M581.75,-795.72C568.84,-793.83 554.66,-791.75 540.81,-789.73"/>
<polygon fill="midnightblue" stroke="midnightblue" points="581.4,-799.21 591.8,-797.19 582.41,-792.28 581.4,-799.21"/>
</g>
<!-- Node57 -->
<g id="node33" class="node">
<title>Node57</title>
<g id="a_node33"><a xlink:href="classdata__middleware_1_1InfluxDb.html#adc204b9bf0e4eff914bfd68e51383c9e" target="_top" xlink:title=" ">
<polygon fill="none" stroke="black" points="392.5,-715 392.5,-745 540.5,-745 540.5,-715 392.5,-715"/>
<text text-anchor="start" x="400.5" y="-733" font-family="Helvetica,sans-Serif" font-size="10.00">data_middleware::InfluxDb</text>
<text text-anchor="middle" x="466.5" y="-722" font-family="Helvetica,sans-Serif" font-size="10.00">::logLogPacket</text>
</a>
</g>
</g>
<!-- Node1&#45;&gt;Node57 -->
<g id="edge37" class="edge">
<title>Node1&#45;&gt;Node57</title>
<path fill="none" stroke="midnightblue" d="M610.73,-787.45C596.06,-777.08 575.61,-763.77 556,-755 547.69,-751.28 538.7,-747.98 529.73,-745.09"/>
<polygon fill="midnightblue" stroke="midnightblue" points="608.9,-790.45 619.05,-793.47 613,-784.78 608.9,-790.45"/>
</g>
<!-- Node58 -->
<g id="node34" class="node">
<title>Node58</title>
<g id="a_node34"><a xlink:href="classdata__middleware_1_1DataFormatter.html#aa1d67f3593467a202659b221472cab9f" target="_top" xlink:title=" ">
<polygon fill="none" stroke="black" points="377,-666 377,-696 556,-696 556,-666 377,-666"/>
<text text-anchor="start" x="385" y="-684" font-family="Helvetica,sans-Serif" font-size="10.00">data_middleware::DataFormatter</text>
<text text-anchor="middle" x="466.5" y="-673" font-family="Helvetica,sans-Serif" font-size="10.00">::logPacketToJsonString</text>
</a>
</g>
</g>
<!-- Node1&#45;&gt;Node58 -->
<g id="edge38" class="edge">
<title>Node1&#45;&gt;Node58</title>
<path fill="none" stroke="midnightblue" d="M621.85,-784.36C609.51,-762.37 586.09,-726.25 556,-706 550.3,-702.17 544.03,-698.92 537.52,-696.16"/>
<polygon fill="midnightblue" stroke="midnightblue" points="618.88,-786.23 626.72,-793.36 625.04,-782.9 618.88,-786.23"/>
</g>
<!-- Node59 -->
<g id="node35" class="node">
<title>Node59</title>
<g id="a_node35"><a xlink:href="classExtensionTestFramework.html#ac7e990a9c39cd8f420be41a3a85526ad" target="_top" xlink:title=" ">
<polygon fill="none" stroke="black" points="397,-617 397,-647 536,-647 536,-617 397,-617"/>
<text text-anchor="start" x="405" y="-635" font-family="Helvetica,sans-Serif" font-size="10.00">ExtensionTestFramework</text>
<text text-anchor="middle" x="466.5" y="-624" font-family="Helvetica,sans-Serif" font-size="10.00">::printStreams</text>
</a>
</g>
</g>
<!-- Node1&#45;&gt;Node59 -->
<g id="edge40" class="edge">
<title>Node1&#45;&gt;Node59</title>
<path fill="none" stroke="midnightblue" d="M626.88,-783.78C618.36,-752.47 597.14,-690.57 556,-657 550.06,-652.15 543.24,-648.25 536.07,-645.1"/>
<polygon fill="midnightblue" stroke="midnightblue" points="623.5,-784.67 629.38,-793.48 630.28,-782.93 623.5,-784.67"/>
</g>
<!-- Node60 -->
<g id="node36" class="node">
<title>Node60</title>
<g id="a_node36"><a xlink:href="classmodules_1_1TelemetryModule.html#a4d9831ee3408ca94174c3b97793076ed" target="_top" xlink:title="Process commands that are received from the flight runner.">
<polygon fill="none" stroke="black" points="392,-568 392,-598 541,-598 541,-568 392,-568"/>
<text text-anchor="start" x="400" y="-586" font-family="Helvetica,sans-Serif" font-size="10.00">modules::TelemetryModule</text>
<text text-anchor="middle" x="466.5" y="-575" font-family="Helvetica,sans-Serif" font-size="10.00">::processCommand</text>
</a>
</g>
</g>
<!-- Node1&#45;&gt;Node60 -->
<g id="edge41" class="edge">
<title>Node1&#45;&gt;Node60</title>
<path fill="none" stroke="midnightblue" d="M629.58,-783.04C624.72,-743.64 608.29,-655.59 556,-608 551.63,-604.02 546.68,-600.67 541.4,-597.85"/>
<polygon fill="midnightblue" stroke="midnightblue" points="626.13,-783.65 630.71,-793.2 633.09,-782.87 626.13,-783.65"/>
</g>
<!-- Node61 -->
<g id="node37" class="node">
<title>Node61</title>
<g id="a_node37"><a xlink:href="classmodules_1_1DataModule.html#a22e5c03008cb6d2015dd0097869f2fa3" target="_top" xlink:title="Process all packets from the log stream.">
<polygon fill="none" stroke="red" points="404.5,-519 404.5,-549 528.5,-549 528.5,-519 404.5,-519"/>
<text text-anchor="start" x="412.5" y="-537" font-family="Helvetica,sans-Serif" font-size="10.00">modules::DataModule</text>
<text text-anchor="middle" x="466.5" y="-526" font-family="Helvetica,sans-Serif" font-size="10.00">::processLogPacket</text>
</a>
</g>
</g>
<!-- Node1&#45;&gt;Node61 -->
<g id="edge42" class="edge">
<title>Node1&#45;&gt;Node61</title>
<path fill="none" stroke="midnightblue" d="M631.4,-783.28C630.05,-737.18 620.08,-621.51 556,-559 548.46,-551.64 538.92,-546.42 528.92,-542.71"/>
<polygon fill="midnightblue" stroke="midnightblue" points="627.9,-783.5 631.58,-793.43 634.9,-783.37 627.9,-783.5"/>
</g>
<!-- Node63 -->
<g id="node38" class="node">
<title>Node63</title>
<g id="a_node38"><a xlink:href="classgiraffe_1_1Gpio.html#ad9bd7030420bdbf1979b3664dff68ff7" target="_top" xlink:title="Read the value of an input pin.">
<polygon fill="none" stroke="black" points="414.5,-480.5 414.5,-499.5 518.5,-499.5 518.5,-480.5 414.5,-480.5"/>
<text text-anchor="middle" x="466.5" y="-487.5" font-family="Helvetica,sans-Serif" font-size="10.00">giraffe::Gpio::read</text>
</a>
</g>
</g>
<!-- Node1&#45;&gt;Node63 -->
<g id="edge43" class="edge">
<title>Node1&#45;&gt;Node63</title>
<path fill="none" stroke="midnightblue" d="M629.1,-783.32C621.48,-724.01 595.93,-548.75 556,-510 545.94,-500.24 532.18,-494.84 518.5,-491.96"/>
<polygon fill="midnightblue" stroke="midnightblue" points="625.63,-783.78 630.35,-793.27 632.58,-782.91 625.63,-783.78"/>
</g>
<!-- Node64 -->
<g id="node39" class="node">
<title>Node64</title>
<g id="a_node39"><a xlink:href="classgiraffe_1_1Gpio.html#a60b4d177dfc4536f9cd469ded46f6ec4" target="_top" xlink:title="Release a pin for use by another instance.">
<polygon fill="none" stroke="red" points="399.5,-442.5 399.5,-461.5 533.5,-461.5 533.5,-442.5 399.5,-442.5"/>
<text text-anchor="middle" x="466.5" y="-449.5" font-family="Helvetica,sans-Serif" font-size="10.00">giraffe::Gpio::releasePin</text>
</a>
</g>
</g>
<!-- Node1&#45;&gt;Node64 -->
<g id="edge44" class="edge">
<title>Node1&#45;&gt;Node64</title>
<path fill="none" stroke="midnightblue" d="M629.76,-783.27C623.65,-718.75 601.12,-515.58 556,-471 549.74,-464.82 541.98,-460.43 533.69,-457.35"/>
<polygon fill="midnightblue" stroke="midnightblue" points="626.28,-783.69 630.68,-793.33 633.25,-783.05 626.28,-783.69"/>
</g>
<!-- Node35 -->
<g id="node40" class="node">
<title>Node35</title>
<g id="a_node40"><a xlink:href="classgiraffe_1_1gdl_1_1GdlServer.html#a7982a27f1e9ee790d196a5cd8cba6217" target="_top" xlink:title=" ">
<polygon fill="none" stroke="red" points="394,-404.5 394,-423.5 539,-423.5 539,-404.5 394,-404.5"/>
<text text-anchor="middle" x="466.5" y="-411.5" font-family="Helvetica,sans-Serif" font-size="10.00">giraffe::gdl::GdlServer::run</text>
</a>
</g>
</g>
<!-- Node1&#45;&gt;Node35 -->
<g id="edge46" class="edge">
<title>Node1&#45;&gt;Node35</title>
<path fill="none" stroke="midnightblue" d="M630.26,-783.3C625.48,-714.09 606.02,-483.54 556,-433 551.14,-428.09 545.33,-424.3 539.05,-421.4"/>
<polygon fill="midnightblue" stroke="midnightblue" points="626.77,-783.55 630.92,-793.3 633.75,-783.09 626.77,-783.55"/>
</g>
<!-- Node66 -->
<g id="node41" class="node">
<title>Node66</title>
<g id="a_node41"><a xlink:href="classconsole__pages_1_1Pages.html#a67d35ee34832ada202ae3efbba51ac7b" target="_top" xlink:title=" ">
<polygon fill="none" stroke="black" points="405,-1097 405,-1127 528,-1127 528,-1097 405,-1097"/>
<text text-anchor="start" x="413" y="-1115" font-family="Helvetica,sans-Serif" font-size="10.00">console_pages::Pages</text>
<text text-anchor="middle" x="466.5" y="-1104" font-family="Helvetica,sans-Serif" font-size="10.00">::server</text>
</a>
</g>
</g>
<!-- Node1&#45;&gt;Node66 -->
<g id="edge47" class="edge">
<title>Node1&#45;&gt;Node66</title>
<path fill="none" stroke="midnightblue" d="M628.84,-822.82C620.66,-881.03 594.06,-1049.72 556,-1088 548.37,-1095.68 538.55,-1100.97 528.24,-1104.6"/>
<polygon fill="midnightblue" stroke="midnightblue" points="632.34,-823.11 630.23,-812.73 625.4,-822.16 632.34,-823.11"/>
</g>
<!-- Node67 -->
<g id="node42" class="node">
<title>Node67</title>
<g id="a_node42"><a xlink:href="classFlightRunner.html#a9a583807049320acfbeebaf634430f88" target="_top" xlink:title=" ">
<polygon fill="none" stroke="black" points="388,-152.5 388,-171.5 545,-171.5 545,-152.5 388,-152.5"/>
<text text-anchor="middle" x="466.5" y="-159.5" font-family="Helvetica,sans-Serif" font-size="10.00">FlightRunner::setFlightPhase</text>
</a>
</g>
</g>
<!-- Node1&#45;&gt;Node67 -->
<g id="edge49" class="edge">
<title>Node1&#45;&gt;Node67</title>
<path fill="none" stroke="midnightblue" d="M630.43,-782.94C624.85,-681.36 597.67,-226.63 556,-181 552.61,-177.29 548.68,-174.2 544.41,-171.65"/>
<polygon fill="midnightblue" stroke="midnightblue" points="626.95,-783.28 630.98,-793.07 633.94,-782.9 626.95,-783.28"/>
</g>
<!-- Node68 -->
<g id="node43" class="node">
<title>Node68</title>
<g id="a_node43"><a xlink:href="classcfg_1_1Extensions.html#aab673cffeff4bb60bf1a11d83a39736b" target="_top" xlink:title=" ">
<polygon fill="none" stroke="black" points="388,-278.5 388,-297.5 545,-297.5 545,-278.5 388,-278.5"/>
<text text-anchor="middle" x="466.5" y="-285.5" font-family="Helvetica,sans-Serif" font-size="10.00">cfg::Extensions::setFromJson</text>
</a>
</g>
</g>
<!-- Node1&#45;&gt;Node68 -->
<g id="edge51" class="edge">
<title>Node1&#45;&gt;Node68</title>
<path fill="none" stroke="midnightblue" d="M631.24,-783.16C629.73,-700.36 619.81,-383.4 556,-312 550.48,-305.83 543.56,-301.17 536.02,-297.67"/>
<polygon fill="midnightblue" stroke="midnightblue" points="627.74,-783.29 631.4,-793.24 634.74,-783.18 627.74,-783.29"/>
</g>
<!-- Node69 -->
<g id="node44" class="node">
<title>Node69</title>
<g id="a_node44"><a xlink:href="classgiraffe_1_1Gpio.html#a5e84f1224ccd58fa33cb303211ed935c" target="_top" xlink:title="A function to setup a pin for input or output.">
<polygon fill="none" stroke="red" points="404,-240.5 404,-259.5 529,-259.5 529,-240.5 404,-240.5"/>
<text text-anchor="middle" x="466.5" y="-247.5" font-family="Helvetica,sans-Serif" font-size="10.00">giraffe::Gpio::setupPin</text>
</a>
</g>
</g>
<!-- Node1&#45;&gt;Node69 -->
<g id="edge52" class="edge">
<title>Node1&#45;&gt;Node69</title>
<path fill="none" stroke="midnightblue" d="M631.61,-783.03C631.65,-695.36 627.3,-345.55 556,-269 548.82,-261.3 539.34,-256.32 529.25,-253.18"/>
<polygon fill="midnightblue" stroke="midnightblue" points="628.11,-783.19 631.58,-793.2 635.11,-783.21 628.11,-783.19"/>
</g>
<!-- Node71 -->
<g id="node45" class="node">
<title>Node71</title>
<g id="a_node45"><a xlink:href="group__ServerModule.html#a76c8c341c2e0e2034fa8af0c9d92f75b" target="_top" xlink:title="Startup the server module.">
<polygon fill="none" stroke="black" points="400.5,-191 400.5,-221 532.5,-221 532.5,-191 400.5,-191"/>
<text text-anchor="start" x="408.5" y="-209" font-family="Helvetica,sans-Serif" font-size="10.00">modules::ServerModule</text>
<text text-anchor="middle" x="466.5" y="-198" font-family="Helvetica,sans-Serif" font-size="10.00">::startup</text>
</a>
</g>
</g>
<!-- Node1&#45;&gt;Node71 -->
<g id="edge53" class="edge">
<title>Node1&#45;&gt;Node71</title>
<path fill="none" stroke="midnightblue" d="M631.69,-783.2C632.17,-692.33 629.63,-316.08 556,-231 549.73,-223.76 541.54,-218.53 532.67,-214.79"/>
<polygon fill="midnightblue" stroke="midnightblue" points="628.19,-783.43 631.62,-793.45 635.19,-783.48 628.19,-783.43"/>
</g>
<!-- Node72 -->
<g id="node46" class="node">
<title>Node72</title>
<g id="a_node46"><a xlink:href="classconsole__pages_1_1Pages.html#a1e0b526a42fa362aa87bb4b9d37ae687" target="_top" xlink:title=" ">
<polygon fill="none" stroke="black" points="405,-1048 405,-1078 528,-1078 528,-1048 405,-1048"/>
<text text-anchor="start" x="413" y="-1066" font-family="Helvetica,sans-Serif" font-size="10.00">console_pages::Pages</text>
<text text-anchor="middle" x="466.5" y="-1055" font-family="Helvetica,sans-Serif" font-size="10.00">::telemetry</text>
</a>
</g>
</g>
<!-- Node1&#45;&gt;Node72 -->
<g id="edge54" class="edge">
<title>Node1&#45;&gt;Node72</title>
<path fill="none" stroke="midnightblue" d="M631.18,-823.03C629.35,-868.34 618.35,-979.38 556,-1039 548.29,-1046.37 538.56,-1051.53 528.38,-1055.12"/>
<polygon fill="midnightblue" stroke="midnightblue" points="634.69,-822.87 631.48,-812.77 627.69,-822.67 634.69,-822.87"/>
</g>
<!-- Node73 -->
<g id="node47" class="node">
<title>Node73</title>
<g id="a_node47"><a xlink:href="test__extension__module_8cpp.html#a6e4d6d488a353c419e51ff7232e9c204" target="_top" xlink:title=" ">
<polygon fill="none" stroke="black" points="440.5,-114.5 440.5,-133.5 492.5,-133.5 492.5,-114.5 440.5,-114.5"/>
<text text-anchor="middle" x="466.5" y="-121.5" font-family="Helvetica,sans-Serif" font-size="10.00">TEST_F</text>
</a>
</g>
</g>
<!-- Node1&#45;&gt;Node73 -->
<g id="edge56" class="edge">
<title>Node1&#45;&gt;Node73</title>
<path fill="none" stroke="midnightblue" d="M630.6,-783.39C625.65,-679.03 600.25,-191.79 556,-143 540.27,-125.66 512.87,-122.06 492.71,-122.09"/>
<polygon fill="midnightblue" stroke="midnightblue" points="627.11,-783.64 631.07,-793.47 634.1,-783.32 627.11,-783.64"/>
</g>
<!-- Node74 -->
<g id="node48" class="node">
<title>Node74</title>
<g id="a_node48"><a xlink:href="namespaceutil.html#a7864f641801f7a53e32c35e54b9cc7f1" target="_top" xlink:title=" ">
<polygon fill="none" stroke="red" points="429.5,-76.5 429.5,-95.5 503.5,-95.5 503.5,-76.5 429.5,-76.5"/>
<text text-anchor="middle" x="466.5" y="-83.5" font-family="Helvetica,sans-Serif" font-size="10.00">util::to_json</text>
</a>
</g>
</g>
<!-- Node1&#45;&gt;Node74 -->
<g id="edge57" class="edge">
<title>Node1&#45;&gt;Node74</title>
<path fill="none" stroke="midnightblue" d="M630.73,-783.29C626.3,-675.14 602.75,-156.87 556,-105 543.06,-90.64 522.12,-85.7 503.86,-84.43"/>
<polygon fill="midnightblue" stroke="midnightblue" points="627.23,-783.58 631.13,-793.43 634.23,-783.3 627.23,-783.58"/>
</g>
<!-- Node75 -->
<g id="node49" class="node">
<title>Node75</title>
<g id="a_node49"><a xlink:href="namespaceutil.html#a7e499751b8586812fa2eec60bdc2dfe6" target="_top" xlink:title=" ">
<polygon fill="none" stroke="black" points="426,-38.5 426,-57.5 507,-57.5 507,-38.5 426,-38.5"/>
<text text-anchor="middle" x="466.5" y="-45.5" font-family="Helvetica,sans-Serif" font-size="10.00">util::to_string</text>
</a>
</g>
</g>
<!-- Node1&#45;&gt;Node75 -->
<g id="edge58" class="edge">
<title>Node1&#45;&gt;Node75</title>
<path fill="none" stroke="midnightblue" d="M630.84,-783.27C626.93,-671.62 605.27,-121.97 556,-67 543.83,-53.43 524.52,-48.25 507.04,-46.65"/>
<polygon fill="midnightblue" stroke="midnightblue" points="627.35,-783.57 631.19,-793.44 634.34,-783.33 627.35,-783.57"/>
</g>
<!-- Node76 -->
<g id="node50" class="node">
<title>Node76</title>
<g id="a_node50"><a xlink:href="classgiraffe_1_1Gpio.html#a9e87bc845dcd7e6f819591291baa73ef" target="_top" xlink:title="Write a value to an output pin pin (HIGH or LOW)">
<polygon fill="none" stroke="red" points="413,-0.5 413,-19.5 520,-19.5 520,-0.5 413,-0.5"/>
<text text-anchor="middle" x="466.5" y="-7.5" font-family="Helvetica,sans-Serif" font-size="10.00">giraffe::Gpio::write</text>
</a>
</g>
</g>
<!-- Node1&#45;&gt;Node76 -->
<g id="edge59" class="edge">
<title>Node1&#45;&gt;Node76</title>
<path fill="none" stroke="midnightblue" d="M630.95,-783.34C627.54,-668.46 607.8,-87.09 556,-29 546.9,-18.8 533.76,-13.33 520.39,-10.57"/>
<polygon fill="midnightblue" stroke="midnightblue" points="627.45,-783.59 631.24,-793.49 634.45,-783.39 627.45,-783.59"/>
</g>
<!-- Node5 -->
<g id="node5" class="node">
<title>Node5</title>
<g id="a_node5"><a xlink:href="classconsole__pages_1_1Pages.html#a994c60348e2c31544233ce3ba27ccb14" target="_top" xlink:title=" ">
<polygon fill="none" stroke="black" points="196,-1048 196,-1078 319,-1078 319,-1048 196,-1048"/>
<text text-anchor="start" x="204" y="-1066" font-family="Helvetica,sans-Serif" font-size="10.00">console_pages::Pages</text>
<text text-anchor="middle" x="257.5" y="-1055" font-family="Helvetica,sans-Serif" font-size="10.00">::getCurrentPage</text>
</a>
</g>
</g>
<!-- Node4&#45;&gt;Node5 -->
<g id="edge4" class="edge">
<title>Node4&#45;&gt;Node5</title>
<path fill="none" stroke="midnightblue" d="M395.17,-1284.68C388.67,-1281.79 382.48,-1278.27 377,-1274 342.12,-1246.82 284.48,-1121.68 265.09,-1078.05"/>
<polygon fill="midnightblue" stroke="midnightblue" points="394.26,-1288.08 404.85,-1288.48 396.82,-1281.57 394.26,-1288.08"/>
</g>
<!-- Node7 -->
<g id="node7" class="node">
<title>Node7</title>
<g id="a_node7"><a xlink:href="classextension_1_1Bme280.html#a3c31fc1c62a5c723129f386ff9bba2d4" target="_top" xlink:title=" ">
<polygon fill="none" stroke="black" points="0,-1580.5 0,-1599.5 138,-1599.5 138,-1580.5 0,-1580.5"/>
<text text-anchor="middle" x="69" y="-1587.5" font-family="Helvetica,sans-Serif" font-size="10.00">extension::Bme280::loop</text>
</a>
</g>
</g>
<!-- Node6&#45;&gt;Node7 -->
<g id="edge6" class="edge">
<title>Node6&#45;&gt;Node7</title>
<path fill="none" stroke="midnightblue" d="M396.86,-1529.89C337.58,-1537.17 249.76,-1549.11 174,-1564 150.62,-1568.59 124.62,-1575.09 104.47,-1580.45"/>
<polygon fill="midnightblue" stroke="midnightblue" points="397.35,-1533.35 406.86,-1528.67 396.51,-1526.4 397.35,-1533.35"/>
</g>
<!-- Node8 -->
<g id="node8" class="node">
<title>Node8</title>
<g id="a_node8"><a xlink:href="classextension_1_1Ds18b20.html#acf4b0d0523885df4b2e9ec2bf35f4b9c" target="_top" xlink:title=" ">
<polygon fill="none" stroke="black" points="201,-1485 201,-1515 314,-1515 314,-1485 201,-1485"/>
<text text-anchor="start" x="209" y="-1503" font-family="Helvetica,sans-Serif" font-size="10.00">extension::Ds18b20</text>
<text text-anchor="middle" x="257.5" y="-1492" font-family="Helvetica,sans-Serif" font-size="10.00">::loop</text>
</a>
</g>
</g>
<!-- Node6&#45;&gt;Node8 -->
<g id="edge7" class="edge">
<title>Node6&#45;&gt;Node8</title>
<path fill="none" stroke="midnightblue" d="M396.66,-1514.68C369.87,-1511.84 339.58,-1508.62 314.21,-1505.92"/>
<polygon fill="midnightblue" stroke="midnightblue" points="396.42,-1518.18 406.74,-1515.75 397.16,-1511.22 396.42,-1518.18"/>
</g>
<!-- Node9 -->
<g id="node9" class="node">
<title>Node9</title>
<g id="a_node9"><a xlink:href="classextension_1_1ImuExtensionBase.html#a20dfe1a1df8a3887deb7a64bc38b42e4" target="_top" xlink:title=" ">
<polygon fill="none" stroke="black" points="177,-1436 177,-1466 338,-1466 338,-1436 177,-1436"/>
<text text-anchor="start" x="185" y="-1454" font-family="Helvetica,sans-Serif" font-size="10.00">extension::ImuExtensionBase</text>
<text text-anchor="middle" x="257.5" y="-1443" font-family="Helvetica,sans-Serif" font-size="10.00">::loop</text>
</a>
</g>
</g>
<!-- Node6&#45;&gt;Node9 -->
<g id="edge8" class="edge">
<title>Node6&#45;&gt;Node9</title>
<path fill="none" stroke="midnightblue" d="M396.71,-1505.43C389.96,-1503.18 383.29,-1500.71 377,-1498 359.78,-1490.58 358.11,-1483.67 341,-1476 332.81,-1472.33 323.92,-1469 315.12,-1466.06"/>
<polygon fill="midnightblue" stroke="midnightblue" points="396.03,-1508.88 406.62,-1508.55 398.13,-1502.21 396.03,-1508.88"/>
</g>
<!-- Node6&#45;&gt;Node10 -->
<g id="edge9" class="edge">
<title>Node6&#45;&gt;Node10</title>
<path fill="none" stroke="midnightblue" d="M397.43,-1536.31C389.71,-1540.32 382.61,-1545.44 377,-1552 316.01,-1623.29 403.53,-1690.06 341,-1760 334.44,-1767.34 325.78,-1772.49 316.53,-1776.09"/>
<polygon fill="midnightblue" stroke="midnightblue" points="399.07,-1539.41 406.74,-1532.1 396.19,-1533.03 399.07,-1539.41"/>
</g>
<!-- Node11 -->
<g id="node11" class="node">
<title>Node11</title>
<g id="a_node11"><a xlink:href="classextension_1_1SimTemperatureSensor.html#a577e8dc550d5fa6d111b042bce481b0d" target="_top" xlink:title=" ">
<polygon fill="none" stroke="black" points="182,-1387 182,-1417 333,-1417 333,-1387 182,-1387"/>
<text text-anchor="start" x="190" y="-1405" font-family="Helvetica,sans-Serif" font-size="10.00">extension::SimTemperature</text>
<text text-anchor="middle" x="257.5" y="-1394" font-family="Helvetica,sans-Serif" font-size="10.00">Sensor::loop</text>
</a>
</g>
</g>
<!-- Node6&#45;&gt;Node11 -->
<g id="edge10" class="edge">
<title>Node6&#45;&gt;Node11</title>
<path fill="none" stroke="midnightblue" d="M397.45,-1510C390.09,-1506.88 383.08,-1502.95 377,-1498 349.56,-1475.67 368.11,-1449.74 341,-1427 336.41,-1423.15 331.25,-1419.9 325.79,-1417.14"/>
<polygon fill="midnightblue" stroke="midnightblue" points="396.33,-1513.32 406.92,-1513.54 398.78,-1506.76 396.33,-1513.32"/>
</g>
<!-- Node12 -->
<g id="node12" class="node">
<title>Node12</title>
<g id="a_node12"><a xlink:href="classextension_1_1SimPressureSensor.html#aaf5a09dba391f216ca5ee5a7890a1e85" target="_top" xlink:title=" ">
<polygon fill="none" stroke="black" points="175.5,-1338 175.5,-1368 339.5,-1368 339.5,-1338 175.5,-1338"/>
<text text-anchor="start" x="183.5" y="-1356" font-family="Helvetica,sans-Serif" font-size="10.00">extension::SimPressureSensor</text>
<text text-anchor="middle" x="257.5" y="-1345" font-family="Helvetica,sans-Serif" font-size="10.00">::loop</text>
</a>
</g>
</g>
<!-- Node6&#45;&gt;Node12 -->
<g id="edge11" class="edge">
<title>Node6&#45;&gt;Node12</title>
<path fill="none" stroke="midnightblue" d="M397.16,-1511.3C389.73,-1507.96 382.77,-1503.62 377,-1498 337.11,-1459.16 380.32,-1417.43 341,-1378 337.2,-1374.18 332.83,-1370.95 328.14,-1368.2"/>
<polygon fill="midnightblue" stroke="midnightblue" points="396.2,-1514.68 406.79,-1515.02 398.72,-1508.15 396.2,-1514.68"/>
</g>
<!-- Node13 -->
<g id="node13" class="node">
<title>Node13</title>
<g id="a_node13"><a xlink:href="classextension_1_1SimHumiditySensor.html#a59e5059ebb6e2e81ca3a6ef30a632456" target="_top" xlink:title=" ">
<polygon fill="none" stroke="black" points="174,-1289 174,-1319 341,-1319 341,-1289 174,-1289"/>
<text text-anchor="start" x="182" y="-1307" font-family="Helvetica,sans-Serif" font-size="10.00">extension::SimHumiditySensor</text>
<text text-anchor="middle" x="257.5" y="-1296" font-family="Helvetica,sans-Serif" font-size="10.00">::loop</text>
</a>
</g>
</g>
<!-- Node6&#45;&gt;Node13 -->
<g id="edge12" class="edge">
<title>Node6&#45;&gt;Node13</title>
<path fill="none" stroke="midnightblue" d="M397.02,-1511.89C389.54,-1508.45 382.62,-1503.93 377,-1498 324.21,-1442.23 392.97,-1385.54 341,-1329 337.46,-1325.14 333.34,-1321.87 328.87,-1319.1"/>
<polygon fill="midnightblue" stroke="midnightblue" points="396.14,-1515.3 406.73,-1515.68 398.69,-1508.78 396.14,-1515.3"/>
</g>
<!-- Node14 -->
<g id="node14" class="node">
<title>Node14</title>
<g id="a_node14"><a xlink:href="classextension_1_1SimGpsSensor.html#a80265d0b8468fc4e90a46409a6178ab2" target="_top" xlink:title=" ">
<polygon fill="none" stroke="black" points="187,-1720 187,-1750 328,-1750 328,-1720 187,-1720"/>
<text text-anchor="start" x="195" y="-1738" font-family="Helvetica,sans-Serif" font-size="10.00">extension::SimGpsSensor</text>
<text text-anchor="middle" x="257.5" y="-1727" font-family="Helvetica,sans-Serif" font-size="10.00">::loop</text>
</a>
</g>
</g>
<!-- Node6&#45;&gt;Node14 -->
<g id="edge13" class="edge">
<title>Node6&#45;&gt;Node14</title>
<path fill="none" stroke="midnightblue" d="M397.43,-1536.74C389.78,-1540.68 382.7,-1545.68 377,-1552 328.5,-1605.83 390.66,-1658.24 341,-1711 337.22,-1715.02 332.8,-1718.38 328.02,-1721.18"/>
<polygon fill="midnightblue" stroke="midnightblue" points="398.97,-1539.89 406.64,-1532.58 396.08,-1533.51 398.97,-1539.89"/>
</g>
<!-- Node15 -->
<g id="node15" class="node">
<title>Node15</title>
<g id="a_node15"><a xlink:href="classextension_1_1SimImuSensor.html#a1acef31a7be54226957d58d2f9d174d1" target="_top" xlink:title=" ">
<polygon fill="none" stroke="black" points="187,-1671 187,-1701 328,-1701 328,-1671 187,-1671"/>
<text text-anchor="start" x="195" y="-1689" font-family="Helvetica,sans-Serif" font-size="10.00">extension::SimImuSensor</text>
<text text-anchor="middle" x="257.5" y="-1678" font-family="Helvetica,sans-Serif" font-size="10.00">::loop</text>
</a>
</g>
</g>
<!-- Node6&#45;&gt;Node15 -->
<g id="edge14" class="edge">
<title>Node6&#45;&gt;Node15</title>
<path fill="none" stroke="midnightblue" d="M397.17,-1537.67C389.73,-1541.46 382.78,-1546.16 377,-1552 340.82,-1588.57 377.97,-1626.23 341,-1662 337.14,-1665.73 332.73,-1668.89 328.01,-1671.56"/>
<polygon fill="midnightblue" stroke="midnightblue" points="399.11,-1540.64 406.8,-1533.35 396.24,-1534.25 399.11,-1540.64"/>
</g>
<!-- Node16 -->
<g id="node16" class="node">
<title>Node16</title>
<g id="a_node16"><a xlink:href="classextension_1_1Bme280.html#a216c4ae77daca7a479a9eba281e8dbd4" target="_top" xlink:title="Reads the raw environmental data from the BME280.">
<polygon fill="none" stroke="black" points="191,-1622 191,-1652 324,-1652 324,-1622 191,-1622"/>
<text text-anchor="start" x="199" y="-1640" font-family="Helvetica,sans-Serif" font-size="10.00">extension::Bme280::</text>
<text text-anchor="middle" x="257.5" y="-1629" font-family="Helvetica,sans-Serif" font-size="10.00">readEnvironmentalData</text>
</a>
</g>
</g>
<!-- Node6&#45;&gt;Node16 -->
<g id="edge15" class="edge">
<title>Node6&#45;&gt;Node16</title>
<path fill="none" stroke="midnightblue" d="M397.37,-1539.4C390.08,-1542.88 383.11,-1547.04 377,-1552 352.57,-1571.85 365.86,-1593.69 341,-1613 335.93,-1616.93 330.24,-1620.22 324.28,-1622.98"/>
<polygon fill="midnightblue" stroke="midnightblue" points="398.95,-1542.53 406.73,-1535.34 396.16,-1536.1 398.95,-1542.53"/>
</g>
<!-- Node17 -->
<g id="node17" class="node">
<title>Node17</title>
<g id="a_node17"><a xlink:href="group__SAMM8QState.html#gab11516e268a094d0dedc47caf5f25a9d" target="_top" xlink:title=" ">
<polygon fill="none" stroke="red" points="198,-1573 198,-1603 317,-1603 317,-1573 198,-1573"/>
<text text-anchor="start" x="206" y="-1591" font-family="Helvetica,sans-Serif" font-size="10.00">extension::SamM8q::</text>
<text text-anchor="middle" x="257.5" y="-1580" font-family="Helvetica,sans-Serif" font-size="10.00">stateRead</text>
</a>
</g>
</g>
<!-- Node6&#45;&gt;Node17 -->
<g id="edge17" class="edge">
<title>Node6&#45;&gt;Node17</title>
<path fill="none" stroke="midnightblue" d="M408.52,-1540.17C376.27,-1550.45 336.41,-1563.16 305.89,-1572.89"/>
<polygon fill="midnightblue" stroke="midnightblue" points="409.81,-1543.43 418.27,-1537.06 407.68,-1536.76 409.81,-1543.43"/>
</g>
<!-- Node16&#45;&gt;Node7 -->
<g id="edge16" class="edge">
<title>Node16&#45;&gt;Node7</title>
<path fill="none" stroke="midnightblue" d="M187.23,-1619.54C160.37,-1612.77 130.66,-1605.29 107.87,-1599.54"/>
<polygon fill="midnightblue" stroke="midnightblue" points="186.43,-1622.95 196.98,-1622 188.14,-1616.16 186.43,-1622.95"/>
</g>
<!-- Node20&#45;&gt;Node21 -->
<g id="edge20" class="edge">
<title>Node20&#45;&gt;Node21</title>
<path fill="none" stroke="midnightblue" d="M380.9,-1451.76C379.54,-1450.57 378.24,-1449.32 377,-1448 324.77,-1392.3 392.71,-1336.19 341,-1280 337.45,-1276.15 333.33,-1272.88 328.87,-1270.11"/>
<polygon fill="midnightblue" stroke="midnightblue" points="379.11,-1454.79 389.24,-1457.89 383.25,-1449.15 379.11,-1454.79"/>
</g>
<!-- Node29&#45;&gt;Node5 -->
<g id="edge26" class="edge">
<title>Node29&#45;&gt;Node5</title>
<path fill="none" stroke="midnightblue" d="M395.07,-892.13C388.69,-894.89 382.56,-898.15 377,-902 320.51,-941.13 280.52,-1016.04 265.29,-1047.98"/>
<polygon fill="midnightblue" stroke="midnightblue" points="396.5,-895.33 404.54,-888.44 393.95,-888.81 396.5,-895.33"/>
</g>
<!-- Node30&#45;&gt;Node5 -->
<g id="edge28" class="edge">
<title>Node30&#45;&gt;Node5</title>
<path fill="none" stroke="midnightblue" d="M395.16,-842.17C388.67,-845.12 382.48,-848.69 377,-853 309.37,-906.16 273.96,-1009.3 262.62,-1047.91"/>
<polygon fill="midnightblue" stroke="midnightblue" points="396.88,-845.26 404.84,-838.27 394.26,-838.76 396.88,-845.26"/>
</g>
<!-- Node54&#45;&gt;Node5 -->
<g id="edge33" class="edge">
<title>Node54&#45;&gt;Node5</title>
<path fill="none" stroke="midnightblue" d="M395.11,-381.56C388.32,-384.99 382.08,-389.38 377,-395 285.82,-495.76 262.74,-957.6 259.07,-1047.73"/>
<polygon fill="midnightblue" stroke="midnightblue" points="396.85,-384.62 404.65,-377.45 394.09,-378.19 396.85,-384.62"/>
</g>
<!-- Node55&#45;&gt;Node5 -->
<g id="edge35" class="edge">
<title>Node55&#45;&gt;Node5</title>
<path fill="none" stroke="midnightblue" d="M395.58,-1334.93C388.82,-1331.81 382.46,-1327.9 377,-1323 344.32,-1293.68 358.69,-1271.19 341,-1231 315.73,-1173.6 281.67,-1107.26 266.44,-1078.09"/>
<polygon fill="midnightblue" stroke="midnightblue" points="394.41,-1338.24 404.99,-1338.72 397.02,-1331.74 394.41,-1338.24"/>
</g>
<!-- Node66&#45;&gt;Node5 -->
<g id="edge48" class="edge">
<title>Node66&#45;&gt;Node5</title>
<path fill="none" stroke="midnightblue" d="M394.81,-1095.27C370.23,-1089.45 342.9,-1082.98 319.21,-1077.37"/>
<polygon fill="midnightblue" stroke="midnightblue" points="394.25,-1098.73 404.79,-1097.63 395.87,-1091.92 394.25,-1098.73"/>
</g>
<!-- Node67&#45;&gt;Node24 -->
<g id="edge50" class="edge">
<title>Node67&#45;&gt;Node24</title>
<path fill="none" stroke="midnightblue" d="M399.78,-173.97C392.01,-176.01 384.27,-178.35 377,-181 342.42,-193.63 305.39,-214.66 282.1,-228.92"/>
<polygon fill="midnightblue" stroke="midnightblue" points="400.73,-177.34 409.6,-171.54 399.05,-170.55 400.73,-177.34"/>
</g>
<!-- Node72&#45;&gt;Node5 -->
<g id="edge55" class="edge">
<title>Node72&#45;&gt;Node5</title>
<path fill="none" stroke="midnightblue" d="M394.48,-1063C369.99,-1063 342.8,-1063 319.21,-1063"/>
<polygon fill="midnightblue" stroke="midnightblue" points="394.79,-1066.5 404.79,-1063 394.79,-1059.5 394.79,-1066.5"/>
</g>
</g>
</svg>
