<?xml version="1.0" encoding="UTF-8" standalone="no"?>
<!DOCTYPE svg PUBLIC "-//W3C//DTD SVG 1.1//EN"
 "http://www.w3.org/Graphics/SVG/1.1/DTD/svg11.dtd">
<!-- Generated by graphviz version 2.43.0 (0)
 -->
<!-- Title: util::to_string Pages: 1 -->
<svg width="704pt" height="1779pt"
 viewBox="0.00 0.00 704.00 1778.50" xmlns="http://www.w3.org/2000/svg" xmlns:xlink="http://www.w3.org/1999/xlink">
<g id="graph0" class="graph" transform="scale(1 1) rotate(0) translate(4 1774.5)">
<title>util::to_string</title>
<!-- Node1 -->
<g id="node1" class="node">
<title>Node1</title>
<g id="a_node1"><a xlink:title=" ">
<polygon fill="#bfbfbf" stroke="black" points="615,-655.5 615,-674.5 696,-674.5 696,-655.5 615,-655.5"/>
<text text-anchor="middle" x="655.5" y="-662.5" font-family="Helvetica,sans-Serif" font-size="10.00">util::to_string</text>
</a>
</g>
</g>
<!-- Node2 -->
<g id="node2" class="node">
<title>Node2</title>
<g id="a_node2"><a xlink:href="structgiraffe_1_1Gpio_1_1Pin.html#a99a0fe69fe4560169ec0e27318720d60" target="_top" xlink:title="Create a new pin struct.">
<polygon fill="none" stroke="black" points="430,-1477.5 430,-1496.5 549,-1496.5 549,-1477.5 430,-1477.5"/>
<text text-anchor="middle" x="489.5" y="-1484.5" font-family="Helvetica,sans-Serif" font-size="10.00">giraffe::Gpio::Pin::Pin</text>
</a>
</g>
</g>
<!-- Node1&#45;&gt;Node2 -->
<g id="edge1" class="edge">
<title>Node1&#45;&gt;Node2</title>
<path fill="none" stroke="midnightblue" d="M654.02,-684.66C650.97,-802.08 632.73,-1407.54 579,-1468 571.28,-1476.69 560.62,-1481.95 549.38,-1485.03"/>
<polygon fill="midnightblue" stroke="midnightblue" points="657.52,-684.68 654.27,-674.6 650.52,-684.5 657.52,-684.68"/>
</g>
<!-- Node3 -->
<g id="node3" class="node">
<title>Node3</title>
<g id="a_node3"><a xlink:href="classmodules_1_1DataModule.html#a13de2ec04ae048529fcfe91c95272b97" target="_top" xlink:title="Use existing data to calculate the data that can be calculated.">
<polygon fill="none" stroke="black" points="418.5,-1428 418.5,-1458 560.5,-1458 560.5,-1428 418.5,-1428"/>
<text text-anchor="start" x="426.5" y="-1446" font-family="Helvetica,sans-Serif" font-size="10.00">modules::DataModule</text>
<text text-anchor="middle" x="489.5" y="-1435" font-family="Helvetica,sans-Serif" font-size="10.00">::calculateCalculatedData</text>
</a>
</g>
</g>
<!-- Node1&#45;&gt;Node3 -->
<g id="edge2" class="edge">
<title>Node1&#45;&gt;Node3</title>
<path fill="none" stroke="midnightblue" d="M653.84,-684.81C649.9,-798.13 627.92,-1361.26 579,-1419 573.96,-1424.95 567.6,-1429.5 560.62,-1432.98"/>
<polygon fill="midnightblue" stroke="midnightblue" points="657.35,-684.62 654.19,-674.51 650.35,-684.38 657.35,-684.62"/>
</g>
<!-- Node4 -->
<g id="node4" class="node">
<title>Node4</title>
<g id="a_node4"><a xlink:href="classconsole__pages_1_1Pages.html#a4b0ae50da4241115a3acfca9f0c4e306" target="_top" xlink:title=" ">
<polygon fill="none" stroke="black" points="428,-885 428,-915 551,-915 551,-885 428,-885"/>
<text text-anchor="start" x="436" y="-903" font-family="Helvetica,sans-Serif" font-size="10.00">console_pages::Pages</text>
<text text-anchor="middle" x="489.5" y="-892" font-family="Helvetica,sans-Serif" font-size="10.00">::data</text>
</a>
</g>
</g>
<!-- Node1&#45;&gt;Node4 -->
<g id="edge3" class="edge">
<title>Node1&#45;&gt;Node4</title>
<path fill="none" stroke="midnightblue" d="M653.24,-684.75C649.5,-726.22 634.94,-822.83 579,-875 571.18,-882.3 561.39,-887.48 551.19,-891.17"/>
<polygon fill="midnightblue" stroke="midnightblue" points="656.74,-684.84 654.03,-674.6 649.76,-684.3 656.74,-684.84"/>
</g>
<!-- Node6 -->
<g id="node6" class="node">
<title>Node6</title>
<g id="a_node6"><a xlink:href="classextension_1_1Extension.html#aa7ec0098dfde16a54eb616c73ba3046e" target="_top" xlink:title=" ">
<polygon fill="none" stroke="black" points="430,-1379 430,-1409 549,-1409 549,-1379 430,-1379"/>
<text text-anchor="start" x="438" y="-1397" font-family="Helvetica,sans-Serif" font-size="10.00">extension::Extension</text>
<text text-anchor="middle" x="489.5" y="-1386" font-family="Helvetica,sans-Serif" font-size="10.00">::data</text>
</a>
</g>
</g>
<!-- Node1&#45;&gt;Node6 -->
<g id="edge5" class="edge">
<title>Node1&#45;&gt;Node6</title>
<path fill="none" stroke="midnightblue" d="M654.86,-685.01C655.6,-760.89 652.81,-1037.25 579,-1248 560.78,-1300.03 522.32,-1353.53 502.64,-1378.89"/>
<polygon fill="midnightblue" stroke="midnightblue" points="658.35,-684.54 654.72,-674.59 651.35,-684.64 658.35,-684.54"/>
</g>
<!-- Node22 -->
<g id="node21" class="node">
<title>Node22</title>
<g id="a_node21"><a xlink:href="classmodules_1_1Module.html#ae3745aa2ab9ed49ad46f198c6280852e" target="_top" xlink:title="Used internally in the module. This function adds a data to the data stream.">
<polygon fill="none" stroke="black" points="425.5,-1169.5 425.5,-1188.5 553.5,-1188.5 553.5,-1169.5 425.5,-1169.5"/>
<text text-anchor="middle" x="489.5" y="-1176.5" font-family="Helvetica,sans-Serif" font-size="10.00">modules::Module::data</text>
</a>
</g>
</g>
<!-- Node1&#45;&gt;Node22 -->
<g id="edge24" class="edge">
<title>Node1&#45;&gt;Node22</title>
<path fill="none" stroke="midnightblue" d="M654.33,-685.04C653.22,-768.63 644.67,-1088.52 579,-1159 572.13,-1166.38 563.16,-1171.31 553.57,-1174.57"/>
<polygon fill="midnightblue" stroke="midnightblue" points="657.84,-684.9 654.45,-674.86 650.84,-684.82 657.84,-684.9"/>
</g>
<!-- Node23 -->
<g id="node22" class="node">
<title>Node23</title>
<g id="a_node22"><a xlink:href="classextension_1_1Extension.html#aaae6a7d91b77ac86a6e597bf0071889d" target="_top" xlink:title=" ">
<polygon fill="none" stroke="black" points="430,-1120 430,-1150 549,-1150 549,-1120 430,-1120"/>
<text text-anchor="start" x="438" y="-1138" font-family="Helvetica,sans-Serif" font-size="10.00">extension::Extension</text>
<text text-anchor="middle" x="489.5" y="-1127" font-family="Helvetica,sans-Serif" font-size="10.00">::error</text>
</a>
</g>
</g>
<!-- Node1&#45;&gt;Node23 -->
<g id="edge25" class="edge">
<title>Node1&#45;&gt;Node23</title>
<path fill="none" stroke="midnightblue" d="M653.87,-684.91C650.98,-762.82 636.65,-1045.81 579,-1110 571.11,-1118.79 560.38,-1124.59 549.12,-1128.39"/>
<polygon fill="midnightblue" stroke="midnightblue" points="657.37,-684.71 654.22,-674.59 650.38,-684.47 657.37,-684.71"/>
</g>
<!-- Node24 -->
<g id="node23" class="node">
<title>Node24</title>
<g id="a_node23"><a xlink:href="classmodules_1_1Module.html#a2d64fd89764378e46ffc96cce45953db" target="_top" xlink:title="Same as the other error function, but takes an int instead of a string.">
<polygon fill="none" stroke="black" points="424.5,-1081.5 424.5,-1100.5 554.5,-1100.5 554.5,-1081.5 424.5,-1081.5"/>
<text text-anchor="middle" x="489.5" y="-1088.5" font-family="Helvetica,sans-Serif" font-size="10.00">modules::Module::error</text>
</a>
</g>
</g>
<!-- Node1&#45;&gt;Node24 -->
<g id="edge26" class="edge">
<title>Node1&#45;&gt;Node24</title>
<path fill="none" stroke="midnightblue" d="M653.63,-684.65C649.96,-758.01 633.38,-1014.49 579,-1071 572.34,-1077.92 563.82,-1082.68 554.72,-1085.92"/>
<polygon fill="midnightblue" stroke="midnightblue" points="657.13,-684.67 654.11,-674.51 650.14,-684.33 657.13,-684.67"/>
</g>
<!-- Node25 -->
<g id="node24" class="node">
<title>Node25</title>
<g id="a_node24"><a xlink:href="classdata_1_1LogStream.html#a90b8dc67f563d4a8bf25d2aa9d9d0387" target="_top" xlink:title=" ">
<polygon fill="none" stroke="black" points="407.5,-1032 407.5,-1062 571.5,-1062 571.5,-1032 407.5,-1032"/>
<text text-anchor="start" x="415.5" y="-1050" font-family="Helvetica,sans-Serif" font-size="10.00">data::LogStream::errorBooster</text>
<text text-anchor="middle" x="489.5" y="-1039" font-family="Helvetica,sans-Serif" font-size="10.00">SeatException</text>
</a>
</g>
</g>
<!-- Node1&#45;&gt;Node25 -->
<g id="edge27" class="edge">
<title>Node1&#45;&gt;Node25</title>
<path fill="none" stroke="midnightblue" d="M652.97,-684.76C647.35,-752.22 625.73,-972.03 579,-1022 575.4,-1025.85 571.26,-1029.12 566.77,-1031.9"/>
<polygon fill="midnightblue" stroke="midnightblue" points="656.47,-684.89 653.78,-674.64 649.49,-684.33 656.47,-684.89"/>
</g>
<!-- Node26 -->
<g id="node25" class="node">
<title>Node26</title>
<g id="a_node25"><a xlink:href="classconsole__pages_1_1Pages.html#a815a74fc95295c02b4638fa47b03e18d" target="_top" xlink:title=" ">
<polygon fill="none" stroke="black" points="428,-699 428,-729 551,-729 551,-699 428,-699"/>
<text text-anchor="start" x="436" y="-717" font-family="Helvetica,sans-Serif" font-size="10.00">console_pages::Pages</text>
<text text-anchor="middle" x="489.5" y="-706" font-family="Helvetica,sans-Serif" font-size="10.00">::extensionData</text>
</a>
</g>
</g>
<!-- Node1&#45;&gt;Node26 -->
<g id="edge28" class="edge">
<title>Node1&#45;&gt;Node26</title>
<path fill="none" stroke="midnightblue" d="M615.63,-677.62C603.89,-681.36 590.94,-685.42 579,-689 567.99,-692.3 556.17,-695.73 544.87,-698.94"/>
<polygon fill="midnightblue" stroke="midnightblue" points="616.71,-680.95 625.17,-674.57 614.58,-674.28 616.71,-680.95"/>
</g>
<!-- Node27 -->
<g id="node26" class="node">
<title>Node27</title>
<g id="a_node26"><a xlink:href="classconsole__pages_1_1Pages.html#aa3dd00ba1c736892c991d7d4f461bfe0" target="_top" xlink:title=" ">
<polygon fill="none" stroke="black" points="428,-290 428,-320 551,-320 551,-290 428,-290"/>
<text text-anchor="start" x="436" y="-308" font-family="Helvetica,sans-Serif" font-size="10.00">console_pages::Pages</text>
<text text-anchor="middle" x="489.5" y="-297" font-family="Helvetica,sans-Serif" font-size="10.00">::extensions</text>
</a>
</g>
</g>
<!-- Node1&#45;&gt;Node27 -->
<g id="edge30" class="edge">
<title>Node1&#45;&gt;Node27</title>
<path fill="none" stroke="midnightblue" d="M652.67,-645.21C646.29,-580.45 623.01,-376.43 579,-330 571.42,-322 561.5,-316.5 551.05,-312.73"/>
<polygon fill="midnightblue" stroke="midnightblue" points="649.2,-645.68 653.64,-655.3 656.17,-645.01 649.2,-645.68"/>
</g>
<!-- Node28 -->
<g id="node27" class="node">
<title>Node28</title>
<g id="a_node27"><a xlink:href="classgiraffe_1_1gdl_1_1GdlServer.html#ae56487945cbcf4a3c0184986102e340e" target="_top" xlink:title=" ">
<polygon fill="none" stroke="black" points="428,-1208 428,-1238 551,-1238 551,-1208 428,-1208"/>
<text text-anchor="start" x="436" y="-1226" font-family="Helvetica,sans-Serif" font-size="10.00">giraffe::gdl::GdlServer</text>
<text text-anchor="middle" x="489.5" y="-1215" font-family="Helvetica,sans-Serif" font-size="10.00">::getNextResponseId</text>
</a>
</g>
</g>
<!-- Node1&#45;&gt;Node28 -->
<g id="edge32" class="edge">
<title>Node1&#45;&gt;Node28</title>
<path fill="none" stroke="midnightblue" d="M654.48,-684.83C653.99,-771.88 647.71,-1119.36 579,-1198 571.65,-1206.42 561.7,-1212.1 551.12,-1215.91"/>
<polygon fill="midnightblue" stroke="midnightblue" points="657.98,-684.74 654.52,-674.72 650.98,-684.71 657.98,-684.74"/>
</g>
<!-- Node48 -->
<g id="node31" class="node">
<title>Node48</title>
<g id="a_node31"><a xlink:href="structdata__middleware_1_1InfluxLine.html#ab668667e88a106ae046e81d6fe779fa7" target="_top" xlink:title=" ">
<polygon fill="none" stroke="red" points="412,-836 412,-866 567,-866 567,-836 412,-836"/>
<text text-anchor="start" x="420" y="-854" font-family="Helvetica,sans-Serif" font-size="10.00">data_middleware::InfluxLine</text>
<text text-anchor="middle" x="489.5" y="-843" font-family="Helvetica,sans-Serif" font-size="10.00">::getString</text>
</a>
</g>
</g>
<!-- Node1&#45;&gt;Node48 -->
<g id="edge36" class="edge">
<title>Node1&#45;&gt;Node48</title>
<path fill="none" stroke="midnightblue" d="M650.79,-684.73C643.37,-718.72 623.41,-788.31 579,-826 574.5,-829.82 569.45,-833.06 564.1,-835.81"/>
<polygon fill="midnightblue" stroke="midnightblue" points="654.28,-685.16 652.85,-674.66 647.42,-683.76 654.28,-685.16"/>
</g>
<!-- Node50 -->
<g id="node32" class="node">
<title>Node50</title>
<g id="a_node32"><a xlink:href="influxdb_8cpp.html#a72945fb4d8ea1727ad479c78048bd0e0" target="_top" xlink:title=" ">
<polygon fill="none" stroke="black" points="449.5,-797.5 449.5,-816.5 529.5,-816.5 529.5,-797.5 449.5,-797.5"/>
<text text-anchor="middle" x="489.5" y="-804.5" font-family="Helvetica,sans-Serif" font-size="10.00">getUnixTime</text>
</a>
</g>
</g>
<!-- Node1&#45;&gt;Node50 -->
<g id="edge37" class="edge">
<title>Node1&#45;&gt;Node50</title>
<path fill="none" stroke="midnightblue" d="M648.01,-684.35C637.8,-711.67 615.34,-761.08 579,-787 564.76,-797.15 546.23,-802.26 529.81,-804.79"/>
<polygon fill="midnightblue" stroke="midnightblue" points="651.37,-685.34 651.43,-674.75 644.77,-682.99 651.37,-685.34"/>
</g>
<!-- Node51 -->
<g id="node33" class="node">
<title>Node51</title>
<g id="a_node33"><a xlink:href="classconsole__pages_1_1Pages.html#a27c3adbf55be9c5165077caed2c01b57" target="_top" xlink:title=" ">
<polygon fill="none" stroke="black" points="428,-115 428,-145 551,-145 551,-115 428,-115"/>
<text text-anchor="start" x="436" y="-133" font-family="Helvetica,sans-Serif" font-size="10.00">console_pages::Pages</text>
<text text-anchor="middle" x="489.5" y="-122" font-family="Helvetica,sans-Serif" font-size="10.00">::gfsStatus</text>
</a>
</g>
</g>
<!-- Node1&#45;&gt;Node51 -->
<g id="edge38" class="edge">
<title>Node1&#45;&gt;Node51</title>
<path fill="none" stroke="midnightblue" d="M654.37,-645.17C653.39,-560.31 645.34,-228.67 579,-154 571.6,-145.67 561.63,-140.1 551.05,-136.4"/>
<polygon fill="midnightblue" stroke="midnightblue" points="650.87,-645.29 654.46,-655.26 657.87,-645.23 650.87,-645.29"/>
</g>
<!-- Node52 -->
<g id="node34" class="node">
<title>Node52</title>
<g id="a_node34"><a xlink:href="classconsole__pages_1_1Pages.html#a141ef59324d5cd73c9f39488ab0fa363" target="_top" xlink:title=" ">
<polygon fill="none" stroke="black" points="428,-983 428,-1013 551,-1013 551,-983 428,-983"/>
<text text-anchor="start" x="436" y="-1001" font-family="Helvetica,sans-Serif" font-size="10.00">console_pages::Pages</text>
<text text-anchor="middle" x="489.5" y="-990" font-family="Helvetica,sans-Serif" font-size="10.00">::location</text>
</a>
</g>
</g>
<!-- Node1&#45;&gt;Node52 -->
<g id="edge40" class="edge">
<title>Node1&#45;&gt;Node52</title>
<path fill="none" stroke="midnightblue" d="M652.25,-684.76C644.9,-745.98 619.69,-930.86 579,-973 571.46,-980.81 561.68,-986.23 551.38,-989.99"/>
<polygon fill="midnightblue" stroke="midnightblue" points="655.76,-684.88 653.45,-674.54 648.81,-684.07 655.76,-684.88"/>
</g>
<!-- Node53 -->
<g id="node35" class="node">
<title>Node53</title>
<g id="a_node35"><a xlink:href="classdata__middleware_1_1InfluxDb.html#a1c9b38266a11676e158a34d652bcaf69" target="_top" xlink:title=" ">
<polygon fill="none" stroke="black" points="415.5,-650 415.5,-680 563.5,-680 563.5,-650 415.5,-650"/>
<text text-anchor="start" x="423.5" y="-668" font-family="Helvetica,sans-Serif" font-size="10.00">data_middleware::InfluxDb</text>
<text text-anchor="middle" x="489.5" y="-657" font-family="Helvetica,sans-Serif" font-size="10.00">::logDataPacket</text>
</a>
</g>
</g>
<!-- Node1&#45;&gt;Node53 -->
<g id="edge42" class="edge">
<title>Node1&#45;&gt;Node53</title>
<path fill="none" stroke="midnightblue" d="M604.75,-665C591.84,-665 577.66,-665 563.81,-665"/>
<polygon fill="midnightblue" stroke="midnightblue" points="604.8,-668.5 614.8,-665 604.8,-661.5 604.8,-668.5"/>
</g>
<!-- Node54 -->
<g id="node36" class="node">
<title>Node54</title>
<g id="a_node36"><a xlink:href="classdata__middleware_1_1InfluxDb.html#adc204b9bf0e4eff914bfd68e51383c9e" target="_top" xlink:title=" ">
<polygon fill="none" stroke="black" points="415.5,-601 415.5,-631 563.5,-631 563.5,-601 415.5,-601"/>
<text text-anchor="start" x="423.5" y="-619" font-family="Helvetica,sans-Serif" font-size="10.00">data_middleware::InfluxDb</text>
<text text-anchor="middle" x="489.5" y="-608" font-family="Helvetica,sans-Serif" font-size="10.00">::logLogPacket</text>
</a>
</g>
</g>
<!-- Node1&#45;&gt;Node54 -->
<g id="edge43" class="edge">
<title>Node1&#45;&gt;Node54</title>
<path fill="none" stroke="midnightblue" d="M617.2,-652.2C605.06,-648.15 591.5,-643.76 579,-640 568.94,-636.97 558.18,-633.91 547.76,-631.03"/>
<polygon fill="midnightblue" stroke="midnightblue" points="616.41,-655.62 627,-655.49 618.64,-648.99 616.41,-655.62"/>
</g>
<!-- Node55 -->
<g id="node37" class="node">
<title>Node55</title>
<g id="a_node37"><a xlink:href="classdata__middleware_1_1DataFormatter.html#aa1d67f3593467a202659b221472cab9f" target="_top" xlink:title=" ">
<polygon fill="none" stroke="black" points="400,-552 400,-582 579,-582 579,-552 400,-552"/>
<text text-anchor="start" x="408" y="-570" font-family="Helvetica,sans-Serif" font-size="10.00">data_middleware::DataFormatter</text>
<text text-anchor="middle" x="489.5" y="-559" font-family="Helvetica,sans-Serif" font-size="10.00">::logPacketToJsonString</text>
</a>
</g>
</g>
<!-- Node1&#45;&gt;Node55 -->
<g id="edge44" class="edge">
<title>Node1&#45;&gt;Node55</title>
<path fill="none" stroke="midnightblue" d="M641.17,-647.5C627.39,-630.61 604.36,-605.52 579,-591 573.06,-587.6 566.62,-584.66 560.01,-582.13"/>
<polygon fill="midnightblue" stroke="midnightblue" points="638.54,-649.82 647.49,-655.49 644.03,-645.48 638.54,-649.82"/>
</g>
<!-- Node56 -->
<g id="node38" class="node">
<title>Node56</title>
<g id="a_node38"><a xlink:href="classmodules_1_1TelemetryModule.html#a4d9831ee3408ca94174c3b97793076ed" target="_top" xlink:title="Process commands that are received from the flight runner.">
<polygon fill="none" stroke="black" points="415,-503 415,-533 564,-533 564,-503 415,-503"/>
<text text-anchor="start" x="423" y="-521" font-family="Helvetica,sans-Serif" font-size="10.00">modules::TelemetryModule</text>
<text text-anchor="middle" x="489.5" y="-510" font-family="Helvetica,sans-Serif" font-size="10.00">::processCommand</text>
</a>
</g>
</g>
<!-- Node1&#45;&gt;Node56 -->
<g id="edge45" class="edge">
<title>Node1&#45;&gt;Node56</title>
<path fill="none" stroke="midnightblue" d="M647.9,-645.7C637.57,-618.42 614.95,-568.91 579,-542 574.41,-538.57 569.36,-535.62 564.08,-533.1"/>
<polygon fill="midnightblue" stroke="midnightblue" points="644.67,-647.07 651.37,-655.29 651.26,-644.69 644.67,-647.07"/>
</g>
<!-- Node57 -->
<g id="node39" class="node">
<title>Node57</title>
<g id="a_node39"><a xlink:href="classmodules_1_1DataModule.html#a22e5c03008cb6d2015dd0097869f2fa3" target="_top" xlink:title="Process all packets from the log stream.">
<polygon fill="none" stroke="red" points="427.5,-454 427.5,-484 551.5,-484 551.5,-454 427.5,-454"/>
<text text-anchor="start" x="435.5" y="-472" font-family="Helvetica,sans-Serif" font-size="10.00">modules::DataModule</text>
<text text-anchor="middle" x="489.5" y="-461" font-family="Helvetica,sans-Serif" font-size="10.00">::processLogPacket</text>
</a>
</g>
</g>
<!-- Node1&#45;&gt;Node57 -->
<g id="edge46" class="edge">
<title>Node1&#45;&gt;Node57</title>
<path fill="none" stroke="midnightblue" d="M651.44,-644.88C644.87,-608.91 626.05,-533.52 579,-493 571.16,-486.25 561.59,-481.38 551.69,-477.87"/>
<polygon fill="midnightblue" stroke="midnightblue" points="648.04,-645.81 653.15,-655.09 654.94,-644.64 648.04,-645.81"/>
</g>
<!-- Node59 -->
<g id="node40" class="node">
<title>Node59</title>
<g id="a_node40"><a xlink:href="classgiraffe_1_1Gpio.html#ad9bd7030420bdbf1979b3664dff68ff7" target="_top" xlink:title="Read the value of an input pin.">
<polygon fill="none" stroke="black" points="437.5,-415.5 437.5,-434.5 541.5,-434.5 541.5,-415.5 437.5,-415.5"/>
<text text-anchor="middle" x="489.5" y="-422.5" font-family="Helvetica,sans-Serif" font-size="10.00">giraffe::Gpio::read</text>
</a>
</g>
</g>
<!-- Node1&#45;&gt;Node59 -->
<g id="edge47" class="edge">
<title>Node1&#45;&gt;Node59</title>
<path fill="none" stroke="midnightblue" d="M653.91,-645.11C651.5,-601.62 639.37,-497.65 579,-444 568.78,-434.92 555.29,-429.81 541.92,-427.03"/>
<polygon fill="midnightblue" stroke="midnightblue" points="650.42,-645.41 654.36,-655.24 657.42,-645.1 650.42,-645.41"/>
</g>
<!-- Node60 -->
<g id="node41" class="node">
<title>Node60</title>
<g id="a_node41"><a xlink:href="classgiraffe_1_1Gpio.html#a60b4d177dfc4536f9cd469ded46f6ec4" target="_top" xlink:title="Release a pin for use by another instance.">
<polygon fill="none" stroke="red" points="422.5,-377.5 422.5,-396.5 556.5,-396.5 556.5,-377.5 422.5,-377.5"/>
<text text-anchor="middle" x="489.5" y="-384.5" font-family="Helvetica,sans-Serif" font-size="10.00">giraffe::Gpio::releasePin</text>
</a>
</g>
</g>
<!-- Node1&#45;&gt;Node60 -->
<g id="edge48" class="edge">
<title>Node1&#45;&gt;Node60</title>
<path fill="none" stroke="midnightblue" d="M655.08,-645.43C655.37,-597.07 649,-471.12 579,-406 572.67,-400.11 564.98,-395.88 556.8,-392.86"/>
<polygon fill="midnightblue" stroke="midnightblue" points="651.58,-645.44 654.91,-655.5 658.58,-645.56 651.58,-645.44"/>
</g>
<!-- Node32 -->
<g id="node42" class="node">
<title>Node32</title>
<g id="a_node42"><a xlink:href="classgiraffe_1_1gdl_1_1GdlServer.html#a7982a27f1e9ee790d196a5cd8cba6217" target="_top" xlink:title=" ">
<polygon fill="none" stroke="red" points="417,-339.5 417,-358.5 562,-358.5 562,-339.5 417,-339.5"/>
<text text-anchor="middle" x="489.5" y="-346.5" font-family="Helvetica,sans-Serif" font-size="10.00">giraffe::gdl::GdlServer::run</text>
</a>
</g>
</g>
<!-- Node1&#45;&gt;Node32 -->
<g id="edge49" class="edge">
<title>Node1&#45;&gt;Node32</title>
<path fill="none" stroke="midnightblue" d="M652.21,-645.43C644.81,-585.66 619.68,-407.18 579,-368 574.13,-363.31 568.4,-359.66 562.24,-356.84"/>
<polygon fill="midnightblue" stroke="midnightblue" points="648.74,-645.93 653.42,-655.44 655.69,-645.09 648.74,-645.93"/>
</g>
<!-- Node62 -->
<g id="node43" class="node">
<title>Node62</title>
<g id="a_node43"><a xlink:href="classconsole__pages_1_1Pages.html#a67d35ee34832ada202ae3efbba51ac7b" target="_top" xlink:title=" ">
<polygon fill="none" stroke="black" points="428,-934 428,-964 551,-964 551,-934 428,-934"/>
<text text-anchor="start" x="436" y="-952" font-family="Helvetica,sans-Serif" font-size="10.00">console_pages::Pages</text>
<text text-anchor="middle" x="489.5" y="-941" font-family="Helvetica,sans-Serif" font-size="10.00">::server</text>
</a>
</g>
</g>
<!-- Node1&#45;&gt;Node62 -->
<g id="edge50" class="edge">
<title>Node1&#45;&gt;Node62</title>
<path fill="none" stroke="midnightblue" d="M654.82,-684.62C654.48,-732.6 646.73,-856.83 579,-924 571.29,-931.64 561.43,-936.99 551.11,-940.72"/>
<polygon fill="midnightblue" stroke="midnightblue" points="658.32,-684.61 654.78,-674.62 651.32,-684.63 658.32,-684.61"/>
</g>
<!-- Node63 -->
<g id="node44" class="node">
<title>Node63</title>
<g id="a_node44"><a xlink:href="classcfg_1_1Extensions.html#aab673cffeff4bb60bf1a11d83a39736b" target="_top" xlink:title=" ">
<polygon fill="none" stroke="black" points="411,-251.5 411,-270.5 568,-270.5 568,-251.5 411,-251.5"/>
<text text-anchor="middle" x="489.5" y="-258.5" font-family="Helvetica,sans-Serif" font-size="10.00">cfg::Extensions::setFromJson</text>
</a>
</g>
</g>
<!-- Node1&#45;&gt;Node63 -->
<g id="edge52" class="edge">
<title>Node1&#45;&gt;Node63</title>
<path fill="none" stroke="midnightblue" d="M653.41,-644.98C649.09,-573.57 630.88,-332.82 579,-280 575.37,-276.3 571.2,-273.24 566.69,-270.71"/>
<polygon fill="midnightblue" stroke="midnightblue" points="649.93,-645.49 654,-655.27 656.92,-645.08 649.93,-645.49"/>
</g>
<!-- Node64 -->
<g id="node45" class="node">
<title>Node64</title>
<g id="a_node45"><a xlink:href="classgiraffe_1_1Gpio.html#a5e84f1224ccd58fa33cb303211ed935c" target="_top" xlink:title="A function to setup a pin for input or output.">
<polygon fill="none" stroke="red" points="427,-213.5 427,-232.5 552,-232.5 552,-213.5 427,-213.5"/>
<text text-anchor="middle" x="489.5" y="-220.5" font-family="Helvetica,sans-Serif" font-size="10.00">giraffe::Gpio::setupPin</text>
</a>
</g>
</g>
<!-- Node1&#45;&gt;Node64 -->
<g id="edge53" class="edge">
<title>Node1&#45;&gt;Node64</title>
<path fill="none" stroke="midnightblue" d="M653.79,-645.01C650.69,-569.21 635.81,-300.83 579,-242 571.69,-234.43 562.14,-229.52 552.03,-226.39"/>
<polygon fill="midnightblue" stroke="midnightblue" points="650.31,-645.6 654.19,-655.46 657.31,-645.33 650.31,-645.6"/>
</g>
<!-- Node66 -->
<g id="node46" class="node">
<title>Node66</title>
<g id="a_node46"><a xlink:href="group__ServerModule.html#a76c8c341c2e0e2034fa8af0c9d92f75b" target="_top" xlink:title="Startup the server module.">
<polygon fill="none" stroke="black" points="423.5,-164 423.5,-194 555.5,-194 555.5,-164 423.5,-164"/>
<text text-anchor="start" x="431.5" y="-182" font-family="Helvetica,sans-Serif" font-size="10.00">modules::ServerModule</text>
<text text-anchor="middle" x="489.5" y="-171" font-family="Helvetica,sans-Serif" font-size="10.00">::startup</text>
</a>
</g>
</g>
<!-- Node1&#45;&gt;Node66 -->
<g id="edge54" class="edge">
<title>Node1&#45;&gt;Node66</title>
<path fill="none" stroke="midnightblue" d="M654,-645.39C651.6,-566.17 638.72,-270.88 579,-204 572.73,-196.97 564.64,-191.86 555.92,-188.15"/>
<polygon fill="midnightblue" stroke="midnightblue" points="650.51,-645.56 654.29,-655.45 657.5,-645.36 650.51,-645.56"/>
</g>
<!-- Node67 -->
<g id="node47" class="node">
<title>Node67</title>
<g id="a_node47"><a xlink:href="classconsole__pages_1_1Pages.html#a1e0b526a42fa362aa87bb4b9d37ae687" target="_top" xlink:title=" ">
<polygon fill="none" stroke="black" points="428,-748 428,-778 551,-778 551,-748 428,-748"/>
<text text-anchor="start" x="436" y="-766" font-family="Helvetica,sans-Serif" font-size="10.00">console_pages::Pages</text>
<text text-anchor="middle" x="489.5" y="-755" font-family="Helvetica,sans-Serif" font-size="10.00">::telemetry</text>
</a>
</g>
</g>
<!-- Node1&#45;&gt;Node67 -->
<g id="edge55" class="edge">
<title>Node1&#45;&gt;Node67</title>
<path fill="none" stroke="midnightblue" d="M640.86,-682.47C626.99,-699.08 604.03,-723.6 579,-738 570.42,-742.94 560.8,-746.95 551.16,-750.19"/>
<polygon fill="midnightblue" stroke="midnightblue" points="643.66,-684.57 647.25,-674.6 638.23,-680.16 643.66,-684.57"/>
</g>
<!-- Node68 -->
<g id="node48" class="node">
<title>Node68</title>
<g id="a_node48"><a xlink:href="namespaceutil.html#a7864f641801f7a53e32c35e54b9cc7f1" target="_top" xlink:title=" ">
<polygon fill="none" stroke="red" points="452.5,-76.5 452.5,-95.5 526.5,-95.5 526.5,-76.5 452.5,-76.5"/>
<text text-anchor="middle" x="489.5" y="-83.5" font-family="Helvetica,sans-Serif" font-size="10.00">util::to_json</text>
</a>
</g>
</g>
<!-- Node1&#45;&gt;Node68 -->
<g id="edge57" class="edge">
<title>Node1&#45;&gt;Node68</title>
<path fill="none" stroke="midnightblue" d="M654.75,-644.93C655.46,-554.48 653.68,-185.71 579,-105 565.87,-90.81 544.93,-85.87 526.71,-84.57"/>
<polygon fill="midnightblue" stroke="midnightblue" points="651.25,-645.14 654.65,-655.17 658.25,-645.21 651.25,-645.14"/>
</g>
<!-- Node69 -->
<g id="node49" class="node">
<title>Node69</title>
<g id="a_node49"><a xlink:href="namespaceutil.html#a7e499751b8586812fa2eec60bdc2dfe6" target="_top" xlink:title=" ">
<polygon fill="none" stroke="black" points="449,-38.5 449,-57.5 530,-57.5 530,-38.5 449,-38.5"/>
<text text-anchor="middle" x="489.5" y="-45.5" font-family="Helvetica,sans-Serif" font-size="10.00">util::to_string</text>
</a>
</g>
</g>
<!-- Node1&#45;&gt;Node69 -->
<g id="edge58" class="edge">
<title>Node1&#45;&gt;Node69</title>
<path fill="none" stroke="midnightblue" d="M654.94,-645.37C656.59,-552.03 658.8,-153.97 579,-67 566.78,-53.68 547.68,-48.5 530.35,-46.82"/>
<polygon fill="midnightblue" stroke="midnightblue" points="651.44,-645.35 654.74,-655.42 658.43,-645.49 651.44,-645.35"/>
</g>
<!-- Node70 -->
<g id="node50" class="node">
<title>Node70</title>
<g id="a_node50"><a xlink:href="classgiraffe_1_1Gpio.html#a9e87bc845dcd7e6f819591291baa73ef" target="_top" xlink:title="Write a value to an output pin pin (HIGH or LOW)">
<polygon fill="none" stroke="red" points="436,-0.5 436,-19.5 543,-19.5 543,-0.5 436,-0.5"/>
<text text-anchor="middle" x="489.5" y="-7.5" font-family="Helvetica,sans-Serif" font-size="10.00">giraffe::Gpio::write</text>
</a>
</g>
</g>
<!-- Node1&#45;&gt;Node70 -->
<g id="edge59" class="edge">
<title>Node1&#45;&gt;Node70</title>
<path fill="none" stroke="midnightblue" d="M653.5,-645.15C648.16,-542.6 621.63,-75.8 579,-29 569.79,-18.89 556.62,-13.46 543.25,-10.69"/>
<polygon fill="midnightblue" stroke="midnightblue" points="650.02,-645.53 654.02,-655.34 657.01,-645.17 650.02,-645.53"/>
</g>
<!-- Node5 -->
<g id="node5" class="node">
<title>Node5</title>
<g id="a_node5"><a xlink:href="classconsole__pages_1_1Pages.html#a994c60348e2c31544233ce3ba27ccb14" target="_top" xlink:title=" ">
<polygon fill="none" stroke="black" points="219,-748 219,-778 342,-778 342,-748 219,-748"/>
<text text-anchor="start" x="227" y="-766" font-family="Helvetica,sans-Serif" font-size="10.00">console_pages::Pages</text>
<text text-anchor="middle" x="280.5" y="-755" font-family="Helvetica,sans-Serif" font-size="10.00">::getCurrentPage</text>
</a>
</g>
</g>
<!-- Node4&#45;&gt;Node5 -->
<g id="edge4" class="edge">
<title>Node4&#45;&gt;Node5</title>
<path fill="none" stroke="midnightblue" d="M418.43,-883.67C412.03,-881.16 405.78,-878.28 400,-875 354.46,-849.15 312.85,-802.17 293.28,-778.1"/>
<polygon fill="midnightblue" stroke="midnightblue" points="417.3,-886.99 427.89,-887.11 419.68,-880.41 417.3,-886.99"/>
</g>
<!-- Node7 -->
<g id="node7" class="node">
<title>Node7</title>
<g id="a_node7"><a xlink:href="classextension_1_1AdcExtensionBase.html#ab11b609d90a14f558df951d28bc42d85" target="_top" xlink:title=" ">
<polygon fill="none" stroke="black" points="0,-1625 0,-1655 161,-1655 161,-1625 0,-1625"/>
<text text-anchor="start" x="8" y="-1643" font-family="Helvetica,sans-Serif" font-size="10.00">extension::AdcExtensionBase</text>
<text text-anchor="middle" x="80.5" y="-1632" font-family="Helvetica,sans-Serif" font-size="10.00">::loop</text>
</a>
</g>
</g>
<!-- Node6&#45;&gt;Node7 -->
<g id="edge6" class="edge">
<title>Node6&#45;&gt;Node7</title>
<path fill="none" stroke="midnightblue" d="M420.51,-1404.27C412.77,-1407.87 405.65,-1412.66 400,-1419 332.95,-1494.31 440.75,-1577.6 364,-1643 296.05,-1700.9 181.93,-1674.96 121.64,-1655.12"/>
<polygon fill="midnightblue" stroke="midnightblue" points="421.82,-1407.51 429.82,-1400.56 419.24,-1401.01 421.82,-1407.51"/>
</g>
<!-- Node8 -->
<g id="node8" class="node">
<title>Node8</title>
<g id="a_node8"><a xlink:href="classextension_1_1Bme280.html#a3c31fc1c62a5c723129f386ff9bba2d4" target="_top" xlink:title=" ">
<polygon fill="none" stroke="black" points="11.5,-1327.5 11.5,-1346.5 149.5,-1346.5 149.5,-1327.5 11.5,-1327.5"/>
<text text-anchor="middle" x="80.5" y="-1334.5" font-family="Helvetica,sans-Serif" font-size="10.00">extension::Bme280::loop</text>
</a>
</g>
</g>
<!-- Node6&#45;&gt;Node8 -->
<g id="edge7" class="edge">
<title>Node6&#45;&gt;Node8</title>
<path fill="none" stroke="midnightblue" d="M420.36,-1406.22C412.95,-1409.52 405.96,-1413.7 400,-1419 368.73,-1446.81 398.79,-1482.75 364,-1506 302.29,-1547.25 262.64,-1540.64 197,-1506 130.06,-1470.67 94.55,-1377.14 84.52,-1346.71"/>
<polygon fill="midnightblue" stroke="midnightblue" points="421.87,-1409.39 429.92,-1402.5 419.33,-1402.87 421.87,-1409.39"/>
</g>
<!-- Node9 -->
<g id="node9" class="node">
<title>Node9</title>
<g id="a_node9"><a xlink:href="classextension_1_1Bmi088.html#a785010dddb7e8d5335d8e44bbbc92905" target="_top" xlink:title=" ">
<polygon fill="none" stroke="black" points="213,-1477.5 213,-1496.5 348,-1496.5 348,-1477.5 213,-1477.5"/>
<text text-anchor="middle" x="280.5" y="-1484.5" font-family="Helvetica,sans-Serif" font-size="10.00">extension::Bmi088::loop</text>
</a>
</g>
</g>
<!-- Node6&#45;&gt;Node9 -->
<g id="edge8" class="edge">
<title>Node6&#45;&gt;Node9</title>
<path fill="none" stroke="midnightblue" d="M420.07,-1408.28C412.98,-1411.21 406.13,-1414.75 400,-1419 377.79,-1434.4 386.58,-1453.15 364,-1468 358.11,-1471.88 351.52,-1474.97 344.71,-1477.43"/>
<polygon fill="midnightblue" stroke="midnightblue" points="421.7,-1411.41 429.85,-1404.64 419.26,-1404.85 421.7,-1411.41"/>
</g>
<!-- Node10 -->
<g id="node10" class="node">
<title>Node10</title>
<g id="a_node10"><a xlink:href="classextension_1_1Ds18b20.html#acf4b0d0523885df4b2e9ec2bf35f4b9c" target="_top" xlink:title=" ">
<polygon fill="none" stroke="black" points="224,-1428 224,-1458 337,-1458 337,-1428 224,-1428"/>
<text text-anchor="start" x="232" y="-1446" font-family="Helvetica,sans-Serif" font-size="10.00">extension::Ds18b20</text>
<text text-anchor="middle" x="280.5" y="-1435" font-family="Helvetica,sans-Serif" font-size="10.00">::loop</text>
</a>
</g>
</g>
<!-- Node6&#45;&gt;Node10 -->
<g id="edge9" class="edge">
<title>Node6&#45;&gt;Node10</title>
<path fill="none" stroke="midnightblue" d="M419.66,-1410.3C392.87,-1416.64 362.58,-1423.81 337.21,-1429.81"/>
<polygon fill="midnightblue" stroke="midnightblue" points="420.81,-1413.62 429.74,-1407.91 419.2,-1406.81 420.81,-1413.62"/>
</g>
<!-- Node11 -->
<g id="node11" class="node">
<title>Node11</title>
<g id="a_node11"><a xlink:href="classextension_1_1SimTemperatureSensor.html#a577e8dc550d5fa6d111b042bce481b0d" target="_top" xlink:title=" ">
<polygon fill="none" stroke="black" points="205,-1379 205,-1409 356,-1409 356,-1379 205,-1379"/>
<text text-anchor="start" x="213" y="-1397" font-family="Helvetica,sans-Serif" font-size="10.00">extension::SimTemperature</text>
<text text-anchor="middle" x="280.5" y="-1386" font-family="Helvetica,sans-Serif" font-size="10.00">Sensor::loop</text>
</a>
</g>
</g>
<!-- Node6&#45;&gt;Node11 -->
<g id="edge10" class="edge">
<title>Node6&#45;&gt;Node11</title>
<path fill="none" stroke="midnightblue" d="M419.63,-1394C399.31,-1394 376.99,-1394 356.32,-1394"/>
<polygon fill="midnightblue" stroke="midnightblue" points="419.74,-1397.5 429.74,-1394 419.74,-1390.5 419.74,-1397.5"/>
</g>
<!-- Node12 -->
<g id="node12" class="node">
<title>Node12</title>
<g id="a_node12"><a xlink:href="classextension_1_1SimPressureSensor.html#aaf5a09dba391f216ca5ee5a7890a1e85" target="_top" xlink:title=" ">
<polygon fill="none" stroke="black" points="198.5,-1330 198.5,-1360 362.5,-1360 362.5,-1330 198.5,-1330"/>
<text text-anchor="start" x="206.5" y="-1348" font-family="Helvetica,sans-Serif" font-size="10.00">extension::SimPressureSensor</text>
<text text-anchor="middle" x="280.5" y="-1337" font-family="Helvetica,sans-Serif" font-size="10.00">::loop</text>
</a>
</g>
</g>
<!-- Node6&#45;&gt;Node12 -->
<g id="edge11" class="edge">
<title>Node6&#45;&gt;Node12</title>
<path fill="none" stroke="midnightblue" d="M419.94,-1377.77C395.82,-1372.06 368.82,-1365.67 345.12,-1360.06"/>
<polygon fill="midnightblue" stroke="midnightblue" points="419.2,-1381.19 429.74,-1380.09 420.81,-1374.38 419.2,-1381.19"/>
</g>
<!-- Node13 -->
<g id="node13" class="node">
<title>Node13</title>
<g id="a_node13"><a xlink:href="classextension_1_1SimHumiditySensor.html#a59e5059ebb6e2e81ca3a6ef30a632456" target="_top" xlink:title=" ">
<polygon fill="none" stroke="black" points="197,-1281 197,-1311 364,-1311 364,-1281 197,-1281"/>
<text text-anchor="start" x="205" y="-1299" font-family="Helvetica,sans-Serif" font-size="10.00">extension::SimHumiditySensor</text>
<text text-anchor="middle" x="280.5" y="-1288" font-family="Helvetica,sans-Serif" font-size="10.00">::loop</text>
</a>
</g>
</g>
<!-- Node6&#45;&gt;Node13 -->
<g id="edge12" class="edge">
<title>Node6&#45;&gt;Node13</title>
<path fill="none" stroke="midnightblue" d="M457.89,-1373.29C433.33,-1357.36 397.53,-1335.66 364,-1321 355.64,-1317.34 346.57,-1314.01 337.62,-1311.05"/>
<polygon fill="midnightblue" stroke="midnightblue" points="456.12,-1376.32 466.41,-1378.87 459.96,-1370.46 456.12,-1376.32"/>
</g>
<!-- Node14 -->
<g id="node14" class="node">
<title>Node14</title>
<g id="a_node14"><a xlink:href="classextension_1_1SimGpsSensor.html#a80265d0b8468fc4e90a46409a6178ab2" target="_top" xlink:title=" ">
<polygon fill="none" stroke="black" points="210,-1232 210,-1262 351,-1262 351,-1232 210,-1232"/>
<text text-anchor="start" x="218" y="-1250" font-family="Helvetica,sans-Serif" font-size="10.00">extension::SimGpsSensor</text>
<text text-anchor="middle" x="280.5" y="-1239" font-family="Helvetica,sans-Serif" font-size="10.00">::loop</text>
</a>
</g>
</g>
<!-- Node6&#45;&gt;Node14 -->
<g id="edge13" class="edge">
<title>Node6&#45;&gt;Node14</title>
<path fill="none" stroke="midnightblue" d="M470.92,-1371C448.82,-1343.61 408.36,-1298.28 364,-1272 357.56,-1268.19 350.49,-1264.91 343.28,-1262.1"/>
<polygon fill="midnightblue" stroke="midnightblue" points="468.22,-1373.23 477.18,-1378.89 473.7,-1368.88 468.22,-1373.23"/>
</g>
<!-- Node15 -->
<g id="node15" class="node">
<title>Node15</title>
<g id="a_node15"><a xlink:href="classextension_1_1SimImuSensor.html#a1acef31a7be54226957d58d2f9d174d1" target="_top" xlink:title=" ">
<polygon fill="none" stroke="black" points="210,-1183 210,-1213 351,-1213 351,-1183 210,-1183"/>
<text text-anchor="start" x="218" y="-1201" font-family="Helvetica,sans-Serif" font-size="10.00">extension::SimImuSensor</text>
<text text-anchor="middle" x="280.5" y="-1190" font-family="Helvetica,sans-Serif" font-size="10.00">::loop</text>
</a>
</g>
</g>
<!-- Node6&#45;&gt;Node15 -->
<g id="edge14" class="edge">
<title>Node6&#45;&gt;Node15</title>
<path fill="none" stroke="midnightblue" d="M477.31,-1369.79C458.92,-1332.69 418.82,-1261.96 364,-1223 358.51,-1219.1 352.4,-1215.8 346.06,-1213"/>
<polygon fill="midnightblue" stroke="midnightblue" points="474.2,-1371.41 481.71,-1378.89 480.5,-1368.36 474.2,-1371.41"/>
</g>
<!-- Node16 -->
<g id="node16" class="node">
<title>Node16</title>
<g id="a_node16"><a xlink:href="classextension_1_1AdcExtensionBase.html#acc1cba94f6676036181990cb2e0296d3" target="_top" xlink:title=" ">
<polygon fill="none" stroke="black" points="200,-1603 200,-1633 361,-1633 361,-1603 200,-1603"/>
<text text-anchor="start" x="208" y="-1621" font-family="Helvetica,sans-Serif" font-size="10.00">extension::AdcExtensionBase</text>
<text text-anchor="middle" x="280.5" y="-1610" font-family="Helvetica,sans-Serif" font-size="10.00">::percentage</text>
</a>
</g>
</g>
<!-- Node6&#45;&gt;Node16 -->
<g id="edge15" class="edge">
<title>Node6&#45;&gt;Node16</title>
<path fill="none" stroke="midnightblue" d="M419.95,-1404.88C412.48,-1408.4 405.58,-1413 400,-1419 345.92,-1477.14 417.85,-1535.65 364,-1594 360.86,-1597.4 357.28,-1600.33 353.4,-1602.85"/>
<polygon fill="midnightblue" stroke="midnightblue" points="421.68,-1407.96 429.65,-1400.98 419.07,-1401.46 421.68,-1407.96"/>
</g>
<!-- Node17 -->
<g id="node17" class="node">
<title>Node17</title>
<g id="a_node17"><a xlink:href="classextension_1_1Bme280.html#a216c4ae77daca7a479a9eba281e8dbd4" target="_top" xlink:title="Reads the raw environmental data from the BME280.">
<polygon fill="none" stroke="black" points="214,-1134 214,-1164 347,-1164 347,-1134 214,-1134"/>
<text text-anchor="start" x="222" y="-1152" font-family="Helvetica,sans-Serif" font-size="10.00">extension::Bme280::</text>
<text text-anchor="middle" x="280.5" y="-1141" font-family="Helvetica,sans-Serif" font-size="10.00">readEnvironmentalData</text>
</a>
</g>
</g>
<!-- Node6&#45;&gt;Node17 -->
<g id="edge17" class="edge">
<title>Node6&#45;&gt;Node17</title>
<path fill="none" stroke="midnightblue" d="M473.25,-1370.46C455.01,-1341.94 423.94,-1292.22 400,-1248 382.4,-1215.49 392.2,-1196.91 364,-1173 358.99,-1168.76 353.27,-1165.26 347.23,-1162.38"/>
<polygon fill="midnightblue" stroke="midnightblue" points="470.35,-1372.42 478.7,-1378.94 476.24,-1368.64 470.35,-1372.42"/>
</g>
<!-- Node18 -->
<g id="node18" class="node">
<title>Node18</title>
<g id="a_node18"><a xlink:href="group__SAMM8QState.html#gab11516e268a094d0dedc47caf5f25a9d" target="_top" xlink:title=" ">
<polygon fill="none" stroke="red" points="221,-1691 221,-1721 340,-1721 340,-1691 221,-1691"/>
<text text-anchor="start" x="229" y="-1709" font-family="Helvetica,sans-Serif" font-size="10.00">extension::SamM8q::</text>
<text text-anchor="middle" x="280.5" y="-1698" font-family="Helvetica,sans-Serif" font-size="10.00">stateRead</text>
</a>
</g>
</g>
<!-- Node6&#45;&gt;Node18 -->
<g id="edge19" class="edge">
<title>Node6&#45;&gt;Node18</title>
<path fill="none" stroke="midnightblue" d="M420.38,-1404.16C412.67,-1407.78 405.58,-1412.6 400,-1419 324.18,-1505.91 436.58,-1586.36 364,-1676 357.77,-1683.7 349.38,-1689.42 340.33,-1693.68"/>
<polygon fill="midnightblue" stroke="midnightblue" points="421.7,-1407.4 429.69,-1400.44 419.1,-1400.91 421.7,-1407.4"/>
</g>
<!-- Node20 -->
<g id="node19" class="node">
<title>Node20</title>
<g id="a_node19"><a xlink:href="classextension_1_1AdcExtensionBase.html#ad0be2808763e50886aeecd7de1e344a0" target="_top" xlink:title=" ">
<polygon fill="none" stroke="black" points="200,-1554 200,-1584 361,-1584 361,-1554 200,-1554"/>
<text text-anchor="start" x="208" y="-1572" font-family="Helvetica,sans-Serif" font-size="10.00">extension::AdcExtensionBase</text>
<text text-anchor="middle" x="280.5" y="-1561" font-family="Helvetica,sans-Serif" font-size="10.00">::voltageDivider</text>
</a>
</g>
</g>
<!-- Node6&#45;&gt;Node20 -->
<g id="edge20" class="edge">
<title>Node6&#45;&gt;Node20</title>
<path fill="none" stroke="midnightblue" d="M420.14,-1405.51C412.7,-1408.93 405.76,-1413.33 400,-1419 360.31,-1458.05 402.23,-1498.52 364,-1539 358.25,-1545.09 351.15,-1549.96 343.57,-1553.83"/>
<polygon fill="midnightblue" stroke="midnightblue" points="421.76,-1408.63 429.76,-1401.68 419.18,-1402.12 421.76,-1408.63"/>
</g>
<!-- Node21 -->
<g id="node20" class="node">
<title>Node21</title>
<g id="a_node20"><a xlink:href="classextension_1_1AdcExtensionBase.html#a8dfeb20998d7257afac6e381e5351d30" target="_top" xlink:title=" ">
<polygon fill="none" stroke="black" points="200,-1740 200,-1770 361,-1770 361,-1740 200,-1740"/>
<text text-anchor="start" x="208" y="-1758" font-family="Helvetica,sans-Serif" font-size="10.00">extension::AdcExtensionBase</text>
<text text-anchor="middle" x="280.5" y="-1747" font-family="Helvetica,sans-Serif" font-size="10.00">::voltageReference</text>
</a>
</g>
</g>
<!-- Node6&#45;&gt;Node21 -->
<g id="edge22" class="edge">
<title>Node6&#45;&gt;Node21</title>
<path fill="none" stroke="midnightblue" d="M420.55,-1403.89C412.73,-1407.54 405.58,-1412.45 400,-1419 309.52,-1525.29 454.06,-1624.35 364,-1731 361.11,-1734.42 357.77,-1737.37 354.12,-1739.91"/>
<polygon fill="midnightblue" stroke="midnightblue" points="421.97,-1407.09 429.98,-1400.15 419.39,-1400.58 421.97,-1407.09"/>
</g>
<!-- Node16&#45;&gt;Node7 -->
<g id="edge16" class="edge">
<title>Node16&#45;&gt;Node7</title>
<path fill="none" stroke="midnightblue" d="M189.86,-1627.96C180.24,-1629.03 170.5,-1630.11 161.02,-1631.16"/>
<polygon fill="midnightblue" stroke="midnightblue" points="190.27,-1631.44 199.82,-1626.85 189.5,-1624.48 190.27,-1631.44"/>
</g>
<!-- Node17&#45;&gt;Node8 -->
<g id="edge18" class="edge">
<title>Node17&#45;&gt;Node8</title>
<path fill="none" stroke="midnightblue" d="M204.5,-1168.23C201.9,-1169.71 199.39,-1171.29 197,-1173 137.49,-1215.5 97.89,-1298.63 85.58,-1327.13"/>
<polygon fill="midnightblue" stroke="midnightblue" points="206.26,-1171.26 213.62,-1163.64 203.12,-1165.01 206.26,-1171.26"/>
</g>
<!-- Node20&#45;&gt;Node7 -->
<g id="edge21" class="edge">
<title>Node20&#45;&gt;Node7</title>
<path fill="none" stroke="midnightblue" d="M217.79,-1587.07C210.75,-1589.32 203.7,-1591.66 197,-1594 169.9,-1603.48 139.79,-1615.53 117.1,-1624.91"/>
<polygon fill="midnightblue" stroke="midnightblue" points="218.86,-1590.41 227.35,-1584.07 216.76,-1583.73 218.86,-1590.41"/>
</g>
<!-- Node21&#45;&gt;Node7 -->
<g id="edge23" class="edge">
<title>Node21&#45;&gt;Node7</title>
<path fill="none" stroke="midnightblue" d="M208.07,-1736.13C204.27,-1734.54 200.55,-1732.83 197,-1731 157.05,-1710.44 117.44,-1675.14 96.58,-1655.08"/>
<polygon fill="midnightblue" stroke="midnightblue" points="207.07,-1739.5 217.66,-1739.86 209.61,-1732.97 207.07,-1739.5"/>
</g>
<!-- Node26&#45;&gt;Node5 -->
<g id="edge29" class="edge">
<title>Node26&#45;&gt;Node5</title>
<path fill="none" stroke="midnightblue" d="M417.81,-730.73C393.23,-736.55 365.9,-743.02 342.21,-748.63"/>
<polygon fill="midnightblue" stroke="midnightblue" points="418.87,-734.08 427.79,-728.37 417.25,-727.27 418.87,-734.08"/>
</g>
<!-- Node27&#45;&gt;Node5 -->
<g id="edge31" class="edge">
<title>Node27&#45;&gt;Node5</title>
<path fill="none" stroke="midnightblue" d="M418.31,-317.18C411.54,-320.5 405.26,-324.7 400,-330 338.39,-392.11 293.71,-678.28 283.64,-747.77"/>
<polygon fill="midnightblue" stroke="midnightblue" points="419.94,-320.29 427.79,-313.17 417.21,-313.85 419.94,-320.29"/>
</g>
<!-- Node29 -->
<g id="node28" class="node">
<title>Node29</title>
<g id="a_node28"><a xlink:href="classgiraffe_1_1gdl_1_1GdlServer.html#a7cc778f8170363add8e6812bb04c019e" target="_top" xlink:title=" ">
<polygon fill="none" stroke="red" points="219,-1085 219,-1115 342,-1115 342,-1085 219,-1085"/>
<text text-anchor="start" x="227" y="-1103" font-family="Helvetica,sans-Serif" font-size="10.00">giraffe::gdl::GdlServer</text>
<text text-anchor="middle" x="280.5" y="-1092" font-family="Helvetica,sans-Serif" font-size="10.00">::sendResponseData</text>
</a>
</g>
</g>
<!-- Node28&#45;&gt;Node29 -->
<g id="edge33" class="edge">
<title>Node28&#45;&gt;Node29</title>
<path fill="none" stroke="midnightblue" d="M418.64,-1209.52C411.92,-1206.43 405.56,-1202.65 400,-1198 371.95,-1174.53 391.96,-1147.58 364,-1124 357.61,-1118.62 350.07,-1114.44 342.19,-1111.2"/>
<polygon fill="midnightblue" stroke="midnightblue" points="417.39,-1212.79 427.97,-1213.3 420.02,-1206.3 417.39,-1212.79"/>
</g>
<!-- Node38 -->
<g id="node29" class="node">
<title>Node38</title>
<g id="a_node29"><a xlink:href="classgiraffe_1_1gdl_1_1GdlServer.html#a6e3b9922addcc9e0104c7dc0b7cf3c62" target="_top" xlink:title=" ">
<polygon fill="none" stroke="red" points="219,-1036 219,-1066 342,-1066 342,-1036 219,-1036"/>
<text text-anchor="start" x="227" y="-1054" font-family="Helvetica,sans-Serif" font-size="10.00">giraffe::gdl::GdlServer</text>
<text text-anchor="middle" x="280.5" y="-1043" font-family="Helvetica,sans-Serif" font-size="10.00">::sendResponseError</text>
</a>
</g>
</g>
<!-- Node28&#45;&gt;Node38 -->
<g id="edge34" class="edge">
<title>Node28&#45;&gt;Node38</title>
<path fill="none" stroke="midnightblue" d="M418.4,-1210.73C411.62,-1207.42 405.3,-1203.25 400,-1198 359.53,-1157.91 404.31,-1115.24 364,-1075 357.88,-1068.89 350.29,-1064.31 342.23,-1060.89"/>
<polygon fill="midnightblue" stroke="midnightblue" points="417.32,-1214.07 427.89,-1214.72 420.03,-1207.61 417.32,-1214.07"/>
</g>
<!-- Node47 -->
<g id="node30" class="node">
<title>Node47</title>
<g id="a_node30"><a xlink:href="classgiraffe_1_1gdl_1_1GdlServer.html#a548f7a1170b29a673ec85eaba09b0cb3" target="_top" xlink:title=" ">
<polygon fill="none" stroke="red" points="214.5,-987 214.5,-1017 346.5,-1017 346.5,-987 214.5,-987"/>
<text text-anchor="start" x="222.5" y="-1005" font-family="Helvetica,sans-Serif" font-size="10.00">giraffe::gdl::GdlServer</text>
<text text-anchor="middle" x="280.5" y="-994" font-family="Helvetica,sans-Serif" font-size="10.00">::sendResponseSuccess</text>
</a>
</g>
</g>
<!-- Node28&#45;&gt;Node47 -->
<g id="edge35" class="edge">
<title>Node28&#45;&gt;Node47</title>
<path fill="none" stroke="midnightblue" d="M418.28,-1211.28C411.46,-1207.88 405.17,-1203.54 400,-1198 346.71,-1140.9 417.07,-1083.3 364,-1026 359.14,-1020.75 353.19,-1016.62 346.75,-1013.38"/>
<polygon fill="midnightblue" stroke="midnightblue" points="417.28,-1214.66 427.85,-1215.36 420.03,-1208.22 417.28,-1214.66"/>
</g>
<!-- Node51&#45;&gt;Node5 -->
<g id="edge39" class="edge">
<title>Node51&#45;&gt;Node5</title>
<path fill="none" stroke="midnightblue" d="M418.23,-140.82C411.42,-144.16 405.14,-148.47 400,-154 315.74,-244.61 287.28,-663.09 282.32,-747.96"/>
<polygon fill="midnightblue" stroke="midnightblue" points="419.91,-143.91 427.8,-136.83 417.22,-137.45 419.91,-143.91"/>
</g>
<!-- Node52&#45;&gt;Node5 -->
<g id="edge41" class="edge">
<title>Node52&#45;&gt;Node5</title>
<path fill="none" stroke="midnightblue" d="M418.16,-983.83C411.67,-980.88 405.48,-977.31 400,-973 332.37,-919.84 296.96,-816.7 285.62,-778.09"/>
<polygon fill="midnightblue" stroke="midnightblue" points="417.26,-987.24 427.84,-987.73 419.88,-980.74 417.26,-987.24"/>
</g>
<!-- Node62&#45;&gt;Node5 -->
<g id="edge51" class="edge">
<title>Node62&#45;&gt;Node5</title>
<path fill="none" stroke="midnightblue" d="M418.07,-933.87C411.69,-931.11 405.56,-927.85 400,-924 343.51,-884.87 303.52,-809.96 288.29,-778.02"/>
<polygon fill="midnightblue" stroke="midnightblue" points="416.95,-937.19 427.54,-937.56 419.5,-930.67 416.95,-937.19"/>
</g>
<!-- Node67&#45;&gt;Node5 -->
<g id="edge56" class="edge">
<title>Node67&#45;&gt;Node5</title>
<path fill="none" stroke="midnightblue" d="M417.48,-763C392.99,-763 365.8,-763 342.21,-763"/>
<polygon fill="midnightblue" stroke="midnightblue" points="417.79,-766.5 427.79,-763 417.79,-759.5 417.79,-766.5"/>
</g>
</g>
</svg>
