<?xml version="1.0" encoding="UTF-8" standalone="no"?>
<!DOCTYPE svg PUBLIC "-//W3C//DTD SVG 1.1//EN"
 "http://www.w3.org/Graphics/SVG/1.1/DTD/svg11.dtd">
<!-- Generated by graphviz version 2.43.0 (0)
 -->
<!-- Title: node.hpp Pages: 1 -->
<svg width="1781pt" height="588pt"
 viewBox="0.00 0.00 1781.00 588.00" xmlns="http://www.w3.org/2000/svg" xmlns:xlink="http://www.w3.org/1999/xlink">
<g id="graph0" class="graph" transform="scale(1 1) rotate(0) translate(4 584)">
<title>node.hpp</title>
<!-- Node1 -->
<g id="node1" class="node">
<title>Node1</title>
<g id="a_node1"><a xlink:title="Contains structures that are used to identify components of the flight system.">
<polygon fill="#bfbfbf" stroke="black" points="740,-560.5 740,-579.5 802,-579.5 802,-560.5 740,-560.5"/>
<text text-anchor="middle" x="771" y="-567.5" font-family="Helvetica,sans-Serif" font-size="10.00">node.hpp</text>
</a>
</g>
</g>
<!-- Node2 -->
<g id="node2" class="node">
<title>Node2</title>
<g id="a_node2"><a xlink:href="command_8hpp.html" target="_top" xlink:title="The command/queue system for the flight system.">
<polygon fill="none" stroke="black" points="522,-504.5 522,-523.5 608,-523.5 608,-504.5 522,-504.5"/>
<text text-anchor="middle" x="565" y="-511.5" font-family="Helvetica,sans-Serif" font-size="10.00">command.hpp</text>
</a>
</g>
</g>
<!-- Node1&#45;&gt;Node2 -->
<g id="edge1" class="edge">
<title>Node1&#45;&gt;Node2</title>
<path fill="none" stroke="midnightblue" d="M729.76,-558.19C690.88,-548 633.38,-532.92 597.6,-523.55"/>
<polygon fill="midnightblue" stroke="midnightblue" points="729.15,-561.65 739.71,-560.8 730.93,-554.88 729.15,-561.65"/>
</g>
<!-- Node4 -->
<g id="node4" class="node">
<title>Node4</title>
<g id="a_node4"><a xlink:href="module_8hpp.html" target="_top" xlink:title="The header file for the base module class.">
<polygon fill="none" stroke="black" points="275,-224.5 275,-243.5 349,-243.5 349,-224.5 275,-224.5"/>
<text text-anchor="middle" x="312" y="-231.5" font-family="Helvetica,sans-Serif" font-size="10.00">module.hpp</text>
</a>
</g>
</g>
<!-- Node1&#45;&gt;Node4 -->
<g id="edge72" class="edge">
<title>Node1&#45;&gt;Node4</title>
<path fill="none" stroke="midnightblue" d="M729.73,-565.54C597.35,-553.9 192,-513.79 192,-459 192,-459 192,-459 192,-345 192,-292.57 255.01,-258.37 289.71,-243.5"/>
<polygon fill="midnightblue" stroke="midnightblue" points="729.6,-569.04 739.87,-566.42 730.21,-562.07 729.6,-569.04"/>
</g>
<!-- Node22 -->
<g id="node22" class="node">
<title>Node22</title>
<g id="a_node22"><a xlink:href="streams_8hpp.html" target="_top" xlink:title="The header file for the data streams.">
<polygon fill="none" stroke="black" points="732.5,-448.5 732.5,-467.5 809.5,-467.5 809.5,-448.5 732.5,-448.5"/>
<text text-anchor="middle" x="771" y="-455.5" font-family="Helvetica,sans-Serif" font-size="10.00">streams.hpp</text>
</a>
</g>
</g>
<!-- Node1&#45;&gt;Node22 -->
<g id="edge77" class="edge">
<title>Node1&#45;&gt;Node22</title>
<path fill="none" stroke="midnightblue" d="M771,-550.35C771,-526.25 771,-485.31 771,-467.59"/>
<polygon fill="midnightblue" stroke="midnightblue" points="767.5,-550.37 771,-560.37 774.5,-550.37 767.5,-550.37"/>
</g>
<!-- Node71 -->
<g id="node47" class="node">
<title>Node71</title>
<g id="a_node47"><a xlink:href="to__string_8cpp.html" target="_top" xlink:title="Generic to_string functions for a variety of types.">
<polygon fill="none" stroke="black" points="1693,-280.5 1693,-299.5 1773,-299.5 1773,-280.5 1693,-280.5"/>
<text text-anchor="middle" x="1733" y="-287.5" font-family="Helvetica,sans-Serif" font-size="10.00">to_string.cpp</text>
</a>
</g>
</g>
<!-- Node1&#45;&gt;Node71 -->
<g id="edge78" class="edge">
<title>Node1&#45;&gt;Node71</title>
<path fill="none" stroke="midnightblue" d="M812.5,-568.61C995.09,-566.35 1718,-551.55 1718,-459 1718,-459 1718,-459 1718,-401 1718,-362.84 1726.97,-317.91 1731.04,-299.5"/>
<polygon fill="midnightblue" stroke="midnightblue" points="812.2,-565.11 802.24,-568.73 812.28,-572.11 812.2,-565.11"/>
</g>
<!-- Node73 -->
<g id="node50" class="node">
<title>Node73</title>
<g id="a_node50"><a xlink:href="blocks_8hpp.html" target="_top" xlink:title=" ">
<polygon fill="none" stroke="black" points="941.5,-392.5 941.5,-411.5 1010.5,-411.5 1010.5,-392.5 941.5,-392.5"/>
<text text-anchor="middle" x="976" y="-399.5" font-family="Helvetica,sans-Serif" font-size="10.00">blocks.hpp</text>
</a>
</g>
</g>
<!-- Node1&#45;&gt;Node73 -->
<g id="edge73" class="edge">
<title>Node1&#45;&gt;Node73</title>
<path fill="none" stroke="midnightblue" d="M789.51,-554.01C831.39,-520.1 932.38,-438.32 965.37,-411.61"/>
<polygon fill="midnightblue" stroke="midnightblue" points="787.3,-551.3 781.73,-560.31 791.71,-556.74 787.3,-551.3"/>
</g>
<!-- Node3 -->
<g id="node3" class="node">
<title>Node3</title>
<g id="a_node3"><a xlink:href="command__processor_8cpp.html" target="_top" xlink:title="Used for parsing and processing commands.">
<polygon fill="none" stroke="black" points="399.5,-448.5 399.5,-467.5 536.5,-467.5 536.5,-448.5 399.5,-448.5"/>
<text text-anchor="middle" x="468" y="-455.5" font-family="Helvetica,sans-Serif" font-size="10.00">command_processor.cpp</text>
</a>
</g>
</g>
<!-- Node2&#45;&gt;Node3 -->
<g id="edge2" class="edge">
<title>Node2&#45;&gt;Node3</title>
<path fill="none" stroke="midnightblue" d="M540.66,-499.45C522.76,-489.48 498.95,-476.23 483.55,-467.65"/>
<polygon fill="midnightblue" stroke="midnightblue" points="538.98,-502.52 549.42,-504.32 542.38,-496.4 538.98,-502.52"/>
</g>
<!-- Node2&#45;&gt;Node4 -->
<g id="edge3" class="edge">
<title>Node2&#45;&gt;Node4</title>
<path fill="none" stroke="midnightblue" d="M562.61,-494.1C560.17,-480.38 555.34,-461.86 546,-448 486.78,-360.1 432.3,-376.56 359,-300 341.47,-281.69 325.11,-256.56 317.12,-243.56"/>
<polygon fill="midnightblue" stroke="midnightblue" points="559.2,-494.93 564.15,-504.29 566.12,-493.88 559.2,-494.93"/>
</g>
<!-- Node2&#45;&gt;Node22 -->
<g id="edge26" class="edge">
<title>Node2&#45;&gt;Node22</title>
<path fill="none" stroke="midnightblue" d="M607.62,-501.83C646.51,-491.63 703.16,-476.78 738.51,-467.52"/>
<polygon fill="midnightblue" stroke="midnightblue" points="606.43,-498.52 597.64,-504.44 608.2,-505.29 606.43,-498.52"/>
</g>
<!-- Node72 -->
<g id="node49" class="node">
<title>Node72</title>
<g id="a_node49"><a xlink:href="test__command__processor_8cpp.html" target="_top" xlink:title="Test of the command processor.">
<polygon fill="none" stroke="black" points="220.5,-448.5 220.5,-467.5 381.5,-467.5 381.5,-448.5 220.5,-448.5"/>
<text text-anchor="middle" x="301" y="-455.5" font-family="Helvetica,sans-Serif" font-size="10.00">test_command_processor.cpp</text>
</a>
</g>
</g>
<!-- Node2&#45;&gt;Node72 -->
<g id="edge71" class="edge">
<title>Node2&#45;&gt;Node72</title>
<path fill="none" stroke="midnightblue" d="M513.22,-502.41C463.33,-492.2 388.8,-476.96 342.64,-467.52"/>
<polygon fill="midnightblue" stroke="midnightblue" points="512.67,-505.87 523.17,-504.44 514.07,-499.01 512.67,-505.87"/>
</g>
<!-- Node5 -->
<g id="node5" class="node">
<title>Node5</title>
<g id="a_node5"><a xlink:href="console__module_8hpp.html" target="_top" xlink:title=" ">
<polygon fill="none" stroke="black" points="391.5,-168.5 391.5,-187.5 508.5,-187.5 508.5,-168.5 391.5,-168.5"/>
<text text-anchor="middle" x="450" y="-175.5" font-family="Helvetica,sans-Serif" font-size="10.00">console_module.hpp</text>
</a>
</g>
</g>
<!-- Node4&#45;&gt;Node5 -->
<g id="edge4" class="edge">
<title>Node4&#45;&gt;Node5</title>
<path fill="none" stroke="midnightblue" d="M343.25,-220.77C369.17,-210.63 405.36,-196.47 428.24,-187.52"/>
<polygon fill="midnightblue" stroke="midnightblue" points="341.9,-217.54 333.87,-224.44 344.45,-224.06 341.9,-217.54"/>
</g>
<!-- Node10 -->
<g id="node10" class="node">
<title>Node10</title>
<g id="a_node10"><a xlink:href="data__module_8hpp.html" target="_top" xlink:title="The data module header file.">
<polygon fill="none" stroke="black" points="1216.5,-168.5 1216.5,-187.5 1317.5,-187.5 1317.5,-168.5 1216.5,-168.5"/>
<text text-anchor="middle" x="1267" y="-175.5" font-family="Helvetica,sans-Serif" font-size="10.00">data_module.hpp</text>
</a>
</g>
</g>
<!-- Node4&#45;&gt;Node10 -->
<g id="edge9" class="edge">
<title>Node4&#45;&gt;Node10</title>
<path fill="none" stroke="midnightblue" d="M359.05,-225.39C363.08,-224.87 367.11,-224.39 371,-224 413.23,-219.73 1033.28,-190.1 1216.43,-181.4"/>
<polygon fill="midnightblue" stroke="midnightblue" points="358.5,-221.93 349.07,-226.76 359.45,-228.86 358.5,-221.93"/>
</g>
<!-- Node13 -->
<g id="node13" class="node">
<title>Node13</title>
<g id="a_node13"><a xlink:href="extension__module_8hpp.html" target="_top" xlink:title="This is the header file for the new extension module.">
<polygon fill="none" stroke="black" points="768,-112.5 768,-131.5 896,-131.5 896,-112.5 768,-112.5"/>
<text text-anchor="middle" x="832" y="-119.5" font-family="Helvetica,sans-Serif" font-size="10.00">extension_module.hpp</text>
</a>
</g>
</g>
<!-- Node4&#45;&gt;Node13 -->
<g id="edge13" class="edge">
<title>Node4&#45;&gt;Node13</title>
<path fill="none" stroke="midnightblue" d="M359.07,-225.58C363.1,-225.02 367.12,-224.48 371,-224 537.6,-203.33 590.74,-249.36 747,-188 779.51,-175.24 810.11,-146.16 824.08,-131.62"/>
<polygon fill="midnightblue" stroke="midnightblue" points="358.49,-222.13 349.09,-227.02 359.49,-229.05 358.49,-222.13"/>
</g>
<!-- Node15 -->
<g id="node15" class="node">
<title>Node15</title>
<g id="a_node15"><a xlink:href="module_8cpp.html" target="_top" xlink:title="Implementation of the module base class.">
<polygon fill="none" stroke="black" points="0,-168.5 0,-187.5 74,-187.5 74,-168.5 0,-168.5"/>
<text text-anchor="middle" x="37" y="-175.5" font-family="Helvetica,sans-Serif" font-size="10.00">module.cpp</text>
</a>
</g>
</g>
<!-- Node4&#45;&gt;Node15 -->
<g id="edge16" class="edge">
<title>Node4&#45;&gt;Node15</title>
<path fill="none" stroke="midnightblue" d="M264.93,-223.76C211.03,-213.17 123.83,-196.05 74.38,-186.34"/>
<polygon fill="midnightblue" stroke="midnightblue" points="264.43,-227.22 274.91,-225.72 265.77,-220.36 264.43,-227.22"/>
</g>
<!-- Node16 -->
<g id="node16" class="node">
<title>Node16</title>
<g id="a_node16"><a xlink:href="server__module_8hpp.html" target="_top" xlink:title="Header file for the server module.">
<polygon fill="none" stroke="black" points="628,-168.5 628,-187.5 738,-187.5 738,-168.5 628,-168.5"/>
<text text-anchor="middle" x="683" y="-175.5" font-family="Helvetica,sans-Serif" font-size="10.00">server_module.hpp</text>
</a>
</g>
</g>
<!-- Node4&#45;&gt;Node16 -->
<g id="edge17" class="edge">
<title>Node4&#45;&gt;Node16</title>
<path fill="none" stroke="midnightblue" d="M359.1,-225.78C363.12,-225.17 367.13,-224.57 371,-224 460.86,-210.67 565.37,-195.7 627.75,-186.83"/>
<polygon fill="midnightblue" stroke="midnightblue" points="358.5,-222.33 349.13,-227.29 359.54,-229.25 358.5,-222.33"/>
</g>
<!-- Node18 -->
<g id="node18" class="node">
<title>Node18</title>
<g id="a_node18"><a xlink:href="system__module_8hpp.html" target="_top" xlink:title=" ">
<polygon fill="none" stroke="black" points="92,-168.5 92,-187.5 208,-187.5 208,-168.5 92,-168.5"/>
<text text-anchor="middle" x="150" y="-175.5" font-family="Helvetica,sans-Serif" font-size="10.00">system_module.hpp</text>
</a>
</g>
</g>
<!-- Node4&#45;&gt;Node18 -->
<g id="edge20" class="edge">
<title>Node4&#45;&gt;Node18</title>
<path fill="none" stroke="midnightblue" d="M276.52,-221.17C246.01,-211 202.76,-196.59 175.55,-187.52"/>
<polygon fill="midnightblue" stroke="midnightblue" points="275.74,-224.6 286.33,-224.44 277.95,-217.96 275.74,-224.6"/>
</g>
<!-- Node20 -->
<g id="node20" class="node">
<title>Node20</title>
<g id="a_node20"><a xlink:href="telemetry__module_8hpp.html" target="_top" xlink:title="The telemetry module.">
<polygon fill="none" stroke="black" points="245,-168.5 245,-187.5 373,-187.5 373,-168.5 245,-168.5"/>
<text text-anchor="middle" x="309" y="-175.5" font-family="Helvetica,sans-Serif" font-size="10.00">telemetry_module.hpp</text>
</a>
</g>
</g>
<!-- Node4&#45;&gt;Node20 -->
<g id="edge23" class="edge">
<title>Node4&#45;&gt;Node20</title>
<path fill="none" stroke="midnightblue" d="M310.93,-213.8C310.44,-204.91 309.88,-194.78 309.49,-187.75"/>
<polygon fill="midnightblue" stroke="midnightblue" points="307.46,-214.29 311.5,-224.08 314.44,-213.9 307.46,-214.29"/>
</g>
<!-- Node6 -->
<g id="node6" class="node">
<title>Node6</title>
<g id="a_node6"><a xlink:href="flight__runner_8hpp.html" target="_top" xlink:title=" ">
<polygon fill="none" stroke="black" points="525,-56.5 525,-75.5 623,-75.5 623,-56.5 525,-56.5"/>
<text text-anchor="middle" x="574" y="-63.5" font-family="Helvetica,sans-Serif" font-size="10.00">flight_runner.hpp</text>
</a>
</g>
</g>
<!-- Node5&#45;&gt;Node6 -->
<g id="edge5" class="edge">
<title>Node5&#45;&gt;Node6</title>
<path fill="none" stroke="midnightblue" d="M473.79,-163.14C487.11,-154.87 503.66,-143.73 517,-132 537.52,-113.96 557.67,-88.72 567.61,-75.63"/>
<polygon fill="midnightblue" stroke="midnightblue" points="471.9,-160.19 465.17,-168.37 475.53,-166.17 471.9,-160.19"/>
</g>
<!-- Node9 -->
<g id="node9" class="node">
<title>Node9</title>
<g id="a_node9"><a xlink:href="console__module_8cpp.html" target="_top" xlink:title=" ">
<polygon fill="none" stroke="black" points="392,-112.5 392,-131.5 508,-131.5 508,-112.5 392,-112.5"/>
<text text-anchor="middle" x="450" y="-119.5" font-family="Helvetica,sans-Serif" font-size="10.00">console_module.cpp</text>
</a>
</g>
</g>
<!-- Node5&#45;&gt;Node9 -->
<g id="edge8" class="edge">
<title>Node5&#45;&gt;Node9</title>
<path fill="none" stroke="midnightblue" d="M450,-157.8C450,-148.91 450,-138.78 450,-131.75"/>
<polygon fill="midnightblue" stroke="midnightblue" points="446.5,-158.08 450,-168.08 453.5,-158.08 446.5,-158.08"/>
</g>
<!-- Node7 -->
<g id="node7" class="node">
<title>Node7</title>
<g id="a_node7"><a xlink:href="flight__runner_8cpp.html" target="_top" xlink:title="The implementation of the flight runner, where everything comes together.">
<polygon fill="none" stroke="black" points="476,-0.5 476,-19.5 574,-19.5 574,-0.5 476,-0.5"/>
<text text-anchor="middle" x="525" y="-7.5" font-family="Helvetica,sans-Serif" font-size="10.00">flight_runner.cpp</text>
</a>
</g>
</g>
<!-- Node6&#45;&gt;Node7 -->
<g id="edge6" class="edge">
<title>Node6&#45;&gt;Node7</title>
<path fill="none" stroke="midnightblue" d="M558.97,-48.43C550.38,-38.97 539.96,-27.48 532.94,-19.75"/>
<polygon fill="midnightblue" stroke="midnightblue" points="556.6,-51.03 565.91,-56.08 561.78,-46.33 556.6,-51.03"/>
</g>
<!-- Node8 -->
<g id="node8" class="node">
<title>Node8</title>
<g id="a_node8"><a xlink:href="src_2flight__system_2main_8cpp.html" target="_top" xlink:title="Defines the entry point/main function of the Flight Computer software.">
<polygon fill="none" stroke="black" points="592,-0.5 592,-19.5 654,-19.5 654,-0.5 592,-0.5"/>
<text text-anchor="middle" x="623" y="-7.5" font-family="Helvetica,sans-Serif" font-size="10.00">main.cpp</text>
</a>
</g>
</g>
<!-- Node6&#45;&gt;Node8 -->
<g id="edge7" class="edge">
<title>Node6&#45;&gt;Node8</title>
<path fill="none" stroke="midnightblue" d="M589.03,-48.43C597.62,-38.97 608.04,-27.48 615.06,-19.75"/>
<polygon fill="midnightblue" stroke="midnightblue" points="586.22,-46.33 582.09,-56.08 591.4,-51.03 586.22,-46.33"/>
</g>
<!-- Node10&#45;&gt;Node6 -->
<g id="edge10" class="edge">
<title>Node10&#45;&gt;Node6</title>
<path fill="none" stroke="midnightblue" d="M1267.27,-157.97C1266.36,-143.02 1262.46,-122.96 1249,-112 1200.8,-72.73 770.52,-67.64 623.21,-67.05"/>
<polygon fill="midnightblue" stroke="midnightblue" points="1263.78,-158.24 1267.49,-168.16 1270.77,-158.09 1263.78,-158.24"/>
</g>
<!-- Node11 -->
<g id="node11" class="node">
<title>Node11</title>
<g id="a_node11"><a xlink:href="data__module_8cpp.html" target="_top" xlink:title=" ">
<polygon fill="none" stroke="black" points="1443.5,-112.5 1443.5,-131.5 1544.5,-131.5 1544.5,-112.5 1443.5,-112.5"/>
<text text-anchor="middle" x="1494" y="-119.5" font-family="Helvetica,sans-Serif" font-size="10.00">data_module.cpp</text>
</a>
</g>
</g>
<!-- Node10&#45;&gt;Node11 -->
<g id="edge11" class="edge">
<title>Node10&#45;&gt;Node11</title>
<path fill="none" stroke="midnightblue" d="M1312.87,-166.09C1355.75,-155.89 1418.92,-140.86 1458.2,-131.52"/>
<polygon fill="midnightblue" stroke="midnightblue" points="1311.89,-162.72 1302.97,-168.44 1313.51,-169.53 1311.89,-162.72"/>
</g>
<!-- Node12 -->
<g id="node12" class="node">
<title>Node12</title>
<g id="a_node12"><a xlink:href="test__data__module_8cpp.html" target="_top" xlink:title="Data module unit tests.">
<polygon fill="none" stroke="black" points="1296.5,-112.5 1296.5,-131.5 1421.5,-131.5 1421.5,-112.5 1296.5,-112.5"/>
<text text-anchor="middle" x="1359" y="-119.5" font-family="Helvetica,sans-Serif" font-size="10.00">test_data_module.cpp</text>
</a>
</g>
</g>
<!-- Node10&#45;&gt;Node12 -->
<g id="edge12" class="edge">
<title>Node10&#45;&gt;Node12</title>
<path fill="none" stroke="midnightblue" d="M1290.55,-163.18C1307.48,-153.24 1329.78,-140.15 1344.26,-131.65"/>
<polygon fill="midnightblue" stroke="midnightblue" points="1288.63,-160.24 1281.78,-168.32 1292.18,-166.28 1288.63,-160.24"/>
</g>
<!-- Node13&#45;&gt;Node6 -->
<g id="edge14" class="edge">
<title>Node13&#45;&gt;Node6</title>
<path fill="none" stroke="midnightblue" d="M781.1,-110.35C732.34,-100.14 659.71,-84.94 614.69,-75.52"/>
<polygon fill="midnightblue" stroke="midnightblue" points="780.61,-113.82 791.12,-112.44 782.05,-106.97 780.61,-113.82"/>
</g>
<!-- Node14 -->
<g id="node14" class="node">
<title>Node14</title>
<g id="a_node14"><a xlink:href="extension__module_8cpp.html" target="_top" xlink:title="The implementation of the new extension module.">
<polygon fill="none" stroke="black" points="1043.5,-56.5 1043.5,-75.5 1170.5,-75.5 1170.5,-56.5 1043.5,-56.5"/>
<text text-anchor="middle" x="1107" y="-63.5" font-family="Helvetica,sans-Serif" font-size="10.00">extension_module.cpp</text>
</a>
</g>
</g>
<!-- Node13&#45;&gt;Node14 -->
<g id="edge15" class="edge">
<title>Node13&#45;&gt;Node14</title>
<path fill="none" stroke="midnightblue" d="M885.61,-110.47C937.58,-100.27 1015.44,-84.98 1063.63,-75.52"/>
<polygon fill="midnightblue" stroke="midnightblue" points="884.71,-107.08 875.57,-112.44 886.06,-113.95 884.71,-107.08"/>
</g>
<!-- Node16&#45;&gt;Node6 -->
<g id="edge18" class="edge">
<title>Node16&#45;&gt;Node6</title>
<path fill="none" stroke="midnightblue" d="M664.4,-161.97C654.23,-153.49 641.59,-142.52 631,-132 611.83,-112.96 591.44,-88.56 581.02,-75.75"/>
<polygon fill="midnightblue" stroke="midnightblue" points="662.32,-164.79 672.26,-168.44 666.77,-159.38 662.32,-164.79"/>
</g>
<!-- Node17 -->
<g id="node17" class="node">
<title>Node17</title>
<g id="a_node17"><a xlink:href="server__module_8cpp.html" target="_top" xlink:title="The server module class implementation.">
<polygon fill="none" stroke="black" points="640,-112.5 640,-131.5 750,-131.5 750,-112.5 640,-112.5"/>
<text text-anchor="middle" x="695" y="-119.5" font-family="Helvetica,sans-Serif" font-size="10.00">server_module.cpp</text>
</a>
</g>
</g>
<!-- Node16&#45;&gt;Node17 -->
<g id="edge19" class="edge">
<title>Node16&#45;&gt;Node17</title>
<path fill="none" stroke="midnightblue" d="M687.2,-158.1C689.19,-149.14 691.48,-138.86 693.06,-131.75"/>
<polygon fill="midnightblue" stroke="midnightblue" points="683.73,-157.56 684.98,-168.08 690.57,-159.08 683.73,-157.56"/>
</g>
<!-- Node18&#45;&gt;Node6 -->
<g id="edge21" class="edge">
<title>Node18&#45;&gt;Node6</title>
<path fill="none" stroke="midnightblue" d="M112.73,-164.96C81.64,-153.03 45.33,-133.48 65,-112 95.66,-78.51 402.88,-69.8 524.66,-67.66"/>
<polygon fill="midnightblue" stroke="midnightblue" points="111.55,-168.25 122.15,-168.41 113.96,-161.68 111.55,-168.25"/>
</g>
<!-- Node19 -->
<g id="node19" class="node">
<title>Node19</title>
<g id="a_node19"><a xlink:href="system__module_8cpp.html" target="_top" xlink:title=" ">
<polygon fill="none" stroke="black" points="74.5,-112.5 74.5,-131.5 189.5,-131.5 189.5,-112.5 74.5,-112.5"/>
<text text-anchor="middle" x="132" y="-119.5" font-family="Helvetica,sans-Serif" font-size="10.00">system_module.cpp</text>
</a>
</g>
</g>
<!-- Node18&#45;&gt;Node19 -->
<g id="edge22" class="edge">
<title>Node18&#45;&gt;Node19</title>
<path fill="none" stroke="midnightblue" d="M143.8,-158.4C140.79,-149.36 137.31,-138.94 134.92,-131.75"/>
<polygon fill="midnightblue" stroke="midnightblue" points="140.54,-159.7 147.03,-168.08 147.19,-157.49 140.54,-159.7"/>
</g>
<!-- Node20&#45;&gt;Node6 -->
<g id="edge24" class="edge">
<title>Node20&#45;&gt;Node6</title>
<path fill="none" stroke="midnightblue" d="M277.43,-164.39C250.78,-151.95 219.54,-131.95 237,-112 255.66,-90.68 435.89,-76.03 524.84,-70.03"/>
<polygon fill="midnightblue" stroke="midnightblue" points="276.02,-167.59 286.58,-168.46 278.87,-161.19 276.02,-167.59"/>
</g>
<!-- Node21 -->
<g id="node21" class="node">
<title>Node21</title>
<g id="a_node21"><a xlink:href="telemetry__module_8cpp.html" target="_top" xlink:title="The telemetry module.">
<polygon fill="none" stroke="black" points="246.5,-112.5 246.5,-131.5 373.5,-131.5 373.5,-112.5 246.5,-112.5"/>
<text text-anchor="middle" x="310" y="-119.5" font-family="Helvetica,sans-Serif" font-size="10.00">telemetry_module.cpp</text>
</a>
</g>
</g>
<!-- Node20&#45;&gt;Node21 -->
<g id="edge25" class="edge">
<title>Node20&#45;&gt;Node21</title>
<path fill="none" stroke="midnightblue" d="M309.36,-157.8C309.52,-148.91 309.71,-138.78 309.84,-131.75"/>
<polygon fill="midnightblue" stroke="midnightblue" points="305.85,-158.02 309.17,-168.08 312.85,-158.15 305.85,-158.02"/>
</g>
<!-- Node23 -->
<g id="node23" class="node">
<title>Node23</title>
<g id="a_node23"><a xlink:href="validation_8hpp.html" target="_top" xlink:title=" ">
<polygon fill="none" stroke="black" points="799,-392.5 799,-411.5 885,-411.5 885,-392.5 799,-392.5"/>
<text text-anchor="middle" x="842" y="-399.5" font-family="Helvetica,sans-Serif" font-size="10.00">validation.hpp</text>
</a>
</g>
</g>
<!-- Node22&#45;&gt;Node23 -->
<g id="edge27" class="edge">
<title>Node22&#45;&gt;Node23</title>
<path fill="none" stroke="midnightblue" d="M790.59,-442.1C803.37,-432.38 819.61,-420.03 830.39,-411.83"/>
<polygon fill="midnightblue" stroke="midnightblue" points="788.25,-439.48 782.41,-448.32 792.49,-445.06 788.25,-439.48"/>
</g>
<!-- Node25 -->
<g id="node25" class="node">
<title>Node25</title>
<g id="a_node25"><a xlink:href="error__frame_8hpp.html" target="_top" xlink:title="The error frame.">
<polygon fill="none" stroke="black" points="628.5,-392.5 628.5,-411.5 723.5,-411.5 723.5,-392.5 628.5,-392.5"/>
<text text-anchor="middle" x="676" y="-399.5" font-family="Helvetica,sans-Serif" font-size="10.00">error_frame.hpp</text>
</a>
</g>
</g>
<!-- Node22&#45;&gt;Node25 -->
<g id="edge29" class="edge">
<title>Node22&#45;&gt;Node25</title>
<path fill="none" stroke="midnightblue" d="M746.68,-443.18C729.2,-433.24 706.17,-420.15 691.23,-411.65"/>
<polygon fill="midnightblue" stroke="midnightblue" points="745.31,-446.43 755.74,-448.32 748.77,-440.34 745.31,-446.43"/>
</g>
<!-- Node27 -->
<g id="node27" class="node">
<title>Node27</title>
<g id="a_node27"><a xlink:href="shared__data_8hpp.html" target="_top" xlink:title="Contains the SharedData struct, used across all modules and extensions.">
<polygon fill="none" stroke="black" points="732,-336.5 732,-355.5 830,-355.5 830,-336.5 732,-336.5"/>
<text text-anchor="middle" x="781" y="-343.5" font-family="Helvetica,sans-Serif" font-size="10.00">shared_data.hpp</text>
</a>
</g>
</g>
<!-- Node22&#45;&gt;Node27 -->
<g id="edge62" class="edge">
<title>Node22&#45;&gt;Node27</title>
<path fill="none" stroke="midnightblue" d="M772.7,-438.35C774.89,-414.25 778.61,-373.31 780.22,-355.59"/>
<polygon fill="midnightblue" stroke="midnightblue" points="769.2,-438.09 771.78,-448.37 776.18,-438.73 769.2,-438.09"/>
</g>
<!-- Node69 -->
<g id="node45" class="node">
<title>Node69</title>
<g id="a_node45"><a xlink:href="to__string_8hpp.html" target="_top" xlink:title="Generic to_string functions for a variety of types.">
<polygon fill="none" stroke="black" points="1457,-336.5 1457,-355.5 1537,-355.5 1537,-336.5 1457,-336.5"/>
<text text-anchor="middle" x="1497" y="-343.5" font-family="Helvetica,sans-Serif" font-size="10.00">to_string.hpp</text>
</a>
</g>
</g>
<!-- Node22&#45;&gt;Node69 -->
<g id="edge63" class="edge">
<title>Node22&#45;&gt;Node69</title>
<path fill="none" stroke="midnightblue" d="M806.99,-445.14C831.76,-436.67 865.25,-424.57 894,-412 911.85,-404.19 914.26,-397.32 933,-392 1031.74,-363.95 1345.17,-351.71 1456.93,-348.16"/>
<polygon fill="midnightblue" stroke="midnightblue" points="805.63,-441.91 797.28,-448.43 807.88,-448.54 805.63,-441.91"/>
</g>
<!-- Node24 -->
<g id="node24" class="node">
<title>Node24</title>
<g id="a_node24"><a xlink:href="cfg__extensions_8cpp.html" target="_top" xlink:title="Implements the extensions section of the configuration.">
<polygon fill="none" stroke="black" points="955,-168.5 955,-187.5 1065,-187.5 1065,-168.5 955,-168.5"/>
<text text-anchor="middle" x="1010" y="-175.5" font-family="Helvetica,sans-Serif" font-size="10.00">cfg_extensions.cpp</text>
</a>
</g>
</g>
<!-- Node23&#45;&gt;Node24 -->
<g id="edge28" class="edge">
<title>Node23&#45;&gt;Node24</title>
<path fill="none" stroke="midnightblue" d="M861.82,-386.11C885.17,-367.82 924.05,-334.88 950,-300 978.41,-261.81 999.49,-208.1 1007,-187.5"/>
<polygon fill="midnightblue" stroke="midnightblue" points="859.47,-383.5 853.69,-392.38 863.75,-389.05 859.47,-383.5"/>
</g>
<!-- Node26 -->
<g id="node26" class="node">
<title>Node26</title>
<g id="a_node26"><a xlink:href="error__frame_8cpp.html" target="_top" xlink:title="The implementation of the error frame.">
<polygon fill="none" stroke="black" points="618.5,-336.5 618.5,-355.5 713.5,-355.5 713.5,-336.5 618.5,-336.5"/>
<text text-anchor="middle" x="666" y="-343.5" font-family="Helvetica,sans-Serif" font-size="10.00">error_frame.cpp</text>
</a>
</g>
</g>
<!-- Node25&#45;&gt;Node26 -->
<g id="edge30" class="edge">
<title>Node25&#45;&gt;Node26</title>
<path fill="none" stroke="midnightblue" d="M672.5,-382.1C670.84,-373.14 668.94,-362.86 667.62,-355.75"/>
<polygon fill="midnightblue" stroke="midnightblue" points="669.09,-382.89 674.35,-392.08 675.97,-381.61 669.09,-382.89"/>
</g>
<!-- Node25&#45;&gt;Node27 -->
<g id="edge31" class="edge">
<title>Node25&#45;&gt;Node27</title>
<path fill="none" stroke="midnightblue" d="M701.81,-387.73C721.25,-377.73 747.35,-364.31 764.17,-355.65"/>
<polygon fill="midnightblue" stroke="midnightblue" points="700.16,-384.64 692.87,-392.32 703.36,-390.86 700.16,-384.64"/>
</g>
<!-- Node68 -->
<g id="node44" class="node">
<title>Node68</title>
<g id="a_node44"><a xlink:href="test__error__frame_8cpp.html" target="_top" xlink:title="Test of the error frame.">
<polygon fill="none" stroke="black" points="481.5,-336.5 481.5,-355.5 600.5,-355.5 600.5,-336.5 481.5,-336.5"/>
<text text-anchor="middle" x="541" y="-343.5" font-family="Helvetica,sans-Serif" font-size="10.00">test_error_frame.cpp</text>
</a>
</g>
</g>
<!-- Node25&#45;&gt;Node68 -->
<g id="edge61" class="edge">
<title>Node25&#45;&gt;Node68</title>
<path fill="none" stroke="midnightblue" d="M645.09,-388.64C619.76,-378.5 584.57,-364.43 562.29,-355.52"/>
<polygon fill="midnightblue" stroke="midnightblue" points="644.02,-391.98 654.61,-392.44 646.62,-385.48 644.02,-391.98"/>
</g>
<!-- Node27&#45;&gt;Node4 -->
<g id="edge54" class="edge">
<title>Node27&#45;&gt;Node4</title>
<path fill="none" stroke="midnightblue" d="M721.73,-335.94C575.47,-318.44 527.77,-354.08 395,-300 363.13,-287.02 333.31,-258.05 319.71,-243.57"/>
<polygon fill="midnightblue" stroke="midnightblue" points="721.61,-339.46 731.97,-337.24 722.49,-332.51 721.61,-339.46"/>
</g>
<!-- Node27&#45;&gt;Node6 -->
<g id="edge43" class="edge">
<title>Node27&#45;&gt;Node6</title>
<path fill="none" stroke="midnightblue" d="M735.76,-333.3C715.59,-326.28 692.67,-315.61 676,-300 605.08,-233.61 580.72,-109.25 575.28,-75.59"/>
<polygon fill="midnightblue" stroke="midnightblue" points="734.81,-336.67 745.41,-336.46 736.99,-330.02 734.81,-336.67"/>
</g>
<!-- Node28 -->
<g id="node28" class="node">
<title>Node28</title>
<g id="a_node28"><a xlink:href="cfg__section_8hpp.html" target="_top" xlink:title="This file contains the base class for all configuration sections.">
<polygon fill="none" stroke="black" points="847.5,-280.5 847.5,-299.5 940.5,-299.5 940.5,-280.5 847.5,-280.5"/>
<text text-anchor="middle" x="894" y="-287.5" font-family="Helvetica,sans-Serif" font-size="10.00">cfg_section.hpp</text>
</a>
</g>
</g>
<!-- Node27&#45;&gt;Node28 -->
<g id="edge32" class="edge">
<title>Node27&#45;&gt;Node28</title>
<path fill="none" stroke="midnightblue" d="M808,-332.1C829.11,-322.01 857.86,-308.27 876.18,-299.52"/>
<polygon fill="midnightblue" stroke="midnightblue" points="806.42,-328.97 798.91,-336.44 809.44,-335.29 806.42,-328.97"/>
</g>
<!-- Node30 -->
<g id="node30" class="node">
<title>Node30</title>
<g id="a_node30"><a xlink:href="extension__base_8hpp.html" target="_top" xlink:title="The new implementation of the extension system.">
<polygon fill="none" stroke="red" points="823,-168.5 823,-187.5 937,-187.5 937,-168.5 823,-168.5"/>
<text text-anchor="middle" x="880" y="-175.5" font-family="Helvetica,sans-Serif" font-size="10.00">extension_base.hpp</text>
</a>
</g>
</g>
<!-- Node27&#45;&gt;Node30 -->
<g id="edge42" class="edge">
<title>Node27&#45;&gt;Node30</title>
<path fill="none" stroke="midnightblue" d="M787.75,-326.88C797.27,-302.42 816.09,-257.99 839,-224 848.33,-210.15 861.76,-196.26 870.68,-187.65"/>
<polygon fill="midnightblue" stroke="midnightblue" points="784.44,-325.74 784.14,-336.33 790.98,-328.23 784.44,-325.74"/>
</g>
<!-- Node53 -->
<g id="node34" class="node">
<title>Node53</title>
<g id="a_node34"><a xlink:href="console__pages_8hpp.html" target="_top" xlink:title=" ">
<polygon fill="none" stroke="red" points="380,-224.5 380,-243.5 490,-243.5 490,-224.5 380,-224.5"/>
<text text-anchor="middle" x="435" y="-231.5" font-family="Helvetica,sans-Serif" font-size="10.00">console_pages.hpp</text>
</a>
</g>
</g>
<!-- Node27&#45;&gt;Node53 -->
<g id="edge44" class="edge">
<title>Node27&#45;&gt;Node53</title>
<path fill="none" stroke="midnightblue" d="M721.84,-336.13C636.46,-328.54 449.63,-351.07 404,-300 388.84,-283.03 410.9,-257.34 424.93,-243.9"/>
<polygon fill="midnightblue" stroke="midnightblue" points="721.65,-339.63 731.97,-337.25 722.42,-332.67 721.65,-339.63"/>
</g>
<!-- Node57 -->
<g id="node35" class="node">
<title>Node57</title>
<g id="a_node35"><a xlink:href="data__formatting_8hpp.html" target="_top" xlink:title="This file contains the DataFormatter class, which is used to format data for the data and log files.">
<polygon fill="none" stroke="black" points="1035,-280.5 1035,-299.5 1151,-299.5 1151,-280.5 1035,-280.5"/>
<text text-anchor="middle" x="1093" y="-287.5" font-family="Helvetica,sans-Serif" font-size="10.00">data_formatting.hpp</text>
</a>
</g>
</g>
<!-- Node27&#45;&gt;Node57 -->
<g id="edge46" class="edge">
<title>Node27&#45;&gt;Node57</title>
<path fill="none" stroke="midnightblue" d="M840,-334.79C898.91,-324.59 988.43,-309.1 1043.68,-299.54"/>
<polygon fill="midnightblue" stroke="midnightblue" points="839.35,-331.35 830.09,-336.5 840.54,-338.25 839.35,-331.35"/>
</g>
<!-- Node59 -->
<g id="node37" class="node">
<title>Node59</title>
<g id="a_node37"><a xlink:href="data__log_8hpp.html" target="_top" xlink:title="The data log is responsible for writing data to files and managing the file system.">
<polygon fill="none" stroke="red" points="1023,-224.5 1023,-243.5 1103,-243.5 1103,-224.5 1023,-224.5"/>
<text text-anchor="middle" x="1063" y="-231.5" font-family="Helvetica,sans-Serif" font-size="10.00">data_log.hpp</text>
</a>
</g>
</g>
<!-- Node27&#45;&gt;Node59 -->
<g id="edge50" class="edge">
<title>Node27&#45;&gt;Node59</title>
<path fill="none" stroke="midnightblue" d="M835.57,-334.28C869.27,-326.74 912.99,-315.26 950,-300 988.71,-284.04 1030.48,-257.2 1050.68,-243.54"/>
<polygon fill="midnightblue" stroke="midnightblue" points="834.47,-330.94 825.45,-336.5 835.97,-337.78 834.47,-330.94"/>
</g>
<!-- Node61 -->
<g id="node38" class="node">
<title>Node61</title>
<g id="a_node38"><a xlink:href="influxdb_8hpp.html" target="_top" xlink:title=" ">
<polygon fill="none" stroke="black" points="1207.5,-280.5 1207.5,-299.5 1284.5,-299.5 1284.5,-280.5 1207.5,-280.5"/>
<text text-anchor="middle" x="1246" y="-287.5" font-family="Helvetica,sans-Serif" font-size="10.00">influxdb.hpp</text>
</a>
</g>
</g>
<!-- Node27&#45;&gt;Node61 -->
<g id="edge51" class="edge">
<title>Node27&#45;&gt;Node61</title>
<path fill="none" stroke="midnightblue" d="M840.52,-338.09C937.24,-326.86 1125.89,-304.95 1207.19,-295.51"/>
<polygon fill="midnightblue" stroke="midnightblue" points="839.85,-334.64 830.32,-339.27 840.66,-341.6 839.85,-334.64"/>
</g>
<!-- Node63 -->
<g id="node40" class="node">
<title>Node63</title>
<g id="a_node40"><a xlink:href="request__handler_8hpp.html" target="_top" xlink:title="The request handler class header.">
<polygon fill="none" stroke="red" points="661,-224.5 661,-243.5 777,-243.5 777,-224.5 661,-224.5"/>
<text text-anchor="middle" x="719" y="-231.5" font-family="Helvetica,sans-Serif" font-size="10.00">request_handler.hpp</text>
</a>
</g>
</g>
<!-- Node27&#45;&gt;Node63 -->
<g id="edge55" class="edge">
<title>Node27&#45;&gt;Node63</title>
<path fill="none" stroke="midnightblue" d="M778.03,-326.47C775.29,-312.93 770.36,-294.48 762,-280 753.57,-265.4 739.45,-251.88 729.7,-243.55"/>
<polygon fill="midnightblue" stroke="midnightblue" points="774.62,-327.27 779.84,-336.49 781.51,-326.03 774.62,-327.27"/>
</g>
<!-- Node65 -->
<g id="node41" class="node">
<title>Node65</title>
<g id="a_node41"><a xlink:href="logger_8hpp.html" target="_top" xlink:title="A simple logger class so difference classes have access to the same logger.">
<polygon fill="none" stroke="black" points="685,-280.5 685,-299.5 753,-299.5 753,-280.5 685,-280.5"/>
<text text-anchor="middle" x="719" y="-287.5" font-family="Helvetica,sans-Serif" font-size="10.00">logger.hpp</text>
</a>
</g>
</g>
<!-- Node27&#45;&gt;Node65 -->
<g id="edge57" class="edge">
<title>Node27&#45;&gt;Node65</title>
<path fill="none" stroke="midnightblue" d="M763.25,-329.54C752.19,-319.91 738.37,-307.87 729.14,-299.83"/>
<polygon fill="midnightblue" stroke="midnightblue" points="761.2,-332.4 771.04,-336.32 765.8,-327.12 761.2,-332.4"/>
</g>
<!-- Node66 -->
<g id="node42" class="node">
<title>Node66</title>
<g id="a_node42"><a xlink:href="to__json_8cpp.html" target="_top" xlink:title=" ">
<polygon fill="none" stroke="black" points="413,-280.5 413,-299.5 485,-299.5 485,-280.5 413,-280.5"/>
<text text-anchor="middle" x="449" y="-287.5" font-family="Helvetica,sans-Serif" font-size="10.00">to_json.cpp</text>
</a>
</g>
</g>
<!-- Node27&#45;&gt;Node66 -->
<g id="edge59" class="edge">
<title>Node27&#45;&gt;Node66</title>
<path fill="none" stroke="midnightblue" d="M721.8,-335.81C644.62,-323.8 516.85,-303.86 495,-300 491.79,-299.43 488.47,-298.83 485.14,-298.2"/>
<polygon fill="midnightblue" stroke="midnightblue" points="721.46,-339.29 731.88,-337.37 722.53,-332.38 721.46,-339.29"/>
</g>
<!-- Node67 -->
<g id="node43" class="node">
<title>Node67</title>
<g id="a_node43"><a xlink:href="test__configuration_8cpp.html" target="_top" xlink:title=" ">
<polygon fill="none" stroke="black" points="503.5,-280.5 503.5,-299.5 628.5,-299.5 628.5,-280.5 503.5,-280.5"/>
<text text-anchor="middle" x="566" y="-287.5" font-family="Helvetica,sans-Serif" font-size="10.00">test_configuration.cpp</text>
</a>
</g>
</g>
<!-- Node27&#45;&gt;Node67 -->
<g id="edge60" class="edge">
<title>Node27&#45;&gt;Node67</title>
<path fill="none" stroke="midnightblue" d="M737.04,-333.96C696.43,-323.76 636.96,-308.82 599.91,-299.52"/>
<polygon fill="midnightblue" stroke="midnightblue" points="736.38,-337.4 746.93,-336.44 738.09,-330.61 736.38,-337.4"/>
</g>
<!-- Node29 -->
<g id="node29" class="node">
<title>Node29</title>
<g id="a_node29"><a xlink:href="cfg__extensions_8hpp.html" target="_top" xlink:title="The header file for the extensions section of the configuration.">
<polygon fill="none" stroke="red" points="847.5,-224.5 847.5,-243.5 958.5,-243.5 958.5,-224.5 847.5,-224.5"/>
<text text-anchor="middle" x="903" y="-231.5" font-family="Helvetica,sans-Serif" font-size="10.00">cfg_extensions.hpp</text>
</a>
</g>
</g>
<!-- Node28&#45;&gt;Node29 -->
<g id="edge33" class="edge">
<title>Node28&#45;&gt;Node29</title>
<path fill="none" stroke="midnightblue" d="M897.15,-270.1C898.64,-261.14 900.36,-250.86 901.54,-243.75"/>
<polygon fill="midnightblue" stroke="midnightblue" points="893.68,-269.64 895.49,-280.08 900.58,-270.79 893.68,-269.64"/>
</g>
<!-- Node29&#45;&gt;Node24 -->
<g id="edge34" class="edge">
<title>Node29&#45;&gt;Node24</title>
<path fill="none" stroke="midnightblue" d="M929.3,-219.73C949.11,-209.73 975.71,-196.31 992.85,-187.65"/>
<polygon fill="midnightblue" stroke="midnightblue" points="927.54,-216.69 920.19,-224.32 930.7,-222.94 927.54,-216.69"/>
</g>
<!-- Node29&#45;&gt;Node30 -->
<g id="edge35" class="edge">
<title>Node29&#45;&gt;Node30</title>
<path fill="none" stroke="midnightblue" d="M895.2,-214.69C891.32,-205.59 886.82,-195.01 883.73,-187.75"/>
<polygon fill="midnightblue" stroke="midnightblue" points="892.06,-216.25 899.2,-224.08 898.5,-213.51 892.06,-216.25"/>
</g>
<!-- Node30&#45;&gt;Node13 -->
<g id="edge41" class="edge">
<title>Node30&#45;&gt;Node13</title>
<path fill="none" stroke="midnightblue" d="M865.27,-160.43C856.86,-150.97 846.65,-139.48 839.78,-131.75"/>
<polygon fill="midnightblue" stroke="midnightblue" points="862.81,-162.93 872.07,-168.08 868.05,-158.28 862.81,-162.93"/>
</g>
<!-- Node31 -->
<g id="node31" class="node">
<title>Node31</title>
<g id="a_node31"><a xlink:href="adc__extension__base_8hpp.html" target="_top" xlink:title="Generic ADC Extension Wrapper.">
<polygon fill="none" stroke="red" points="914.5,-112.5 914.5,-131.5 1051.5,-131.5 1051.5,-112.5 914.5,-112.5"/>
<text text-anchor="middle" x="983" y="-119.5" font-family="Helvetica,sans-Serif" font-size="10.00">adc_extension_base.hpp</text>
</a>
</g>
</g>
<!-- Node30&#45;&gt;Node31 -->
<g id="edge36" class="edge">
<title>Node30&#45;&gt;Node31</title>
<path fill="none" stroke="midnightblue" d="M905.58,-163.59C924.62,-153.61 950.06,-140.27 966.49,-131.65"/>
<polygon fill="midnightblue" stroke="midnightblue" points="903.78,-160.58 896.55,-168.32 907.03,-166.78 903.78,-160.58"/>
</g>
<!-- Node35 -->
<g id="node32" class="node">
<title>Node35</title>
<g id="a_node32"><a xlink:href="bme280_8hpp.html" target="_top" xlink:title="The BME280 sensor extension.">
<polygon fill="none" stroke="red" points="1162.5,-112.5 1162.5,-131.5 1239.5,-131.5 1239.5,-112.5 1162.5,-112.5"/>
<text text-anchor="middle" x="1201" y="-119.5" font-family="Helvetica,sans-Serif" font-size="10.00">bme280.hpp</text>
</a>
</g>
</g>
<!-- Node30&#45;&gt;Node35 -->
<g id="edge37" class="edge">
<title>Node30&#45;&gt;Node35</title>
<path fill="none" stroke="midnightblue" d="M943.95,-166.87C999.32,-157.99 1081.52,-144.59 1153,-132 1156.01,-131.47 1159.12,-130.91 1162.24,-130.34"/>
<polygon fill="midnightblue" stroke="midnightblue" points="943.25,-163.43 933.93,-168.47 944.36,-170.35 943.25,-163.43"/>
</g>
<!-- Node37 -->
<g id="node33" class="node">
<title>Node37</title>
<g id="a_node33"><a xlink:href="bmi088_8hpp.html" target="_top" xlink:title="Extension for the Bosch BMI088 IMU.">
<polygon fill="none" stroke="red" points="1070,-112.5 1070,-131.5 1144,-131.5 1144,-112.5 1070,-112.5"/>
<text text-anchor="middle" x="1107" y="-119.5" font-family="Helvetica,sans-Serif" font-size="10.00">bmi088.hpp</text>
</a>
</g>
</g>
<!-- Node30&#45;&gt;Node37 -->
<g id="edge39" class="edge">
<title>Node30&#45;&gt;Node37</title>
<path fill="none" stroke="midnightblue" d="M925.87,-166.09C968.75,-155.89 1031.92,-140.86 1071.2,-131.52"/>
<polygon fill="midnightblue" stroke="midnightblue" points="924.89,-162.72 915.97,-168.44 926.51,-169.53 924.89,-162.72"/>
</g>
<!-- Node35&#45;&gt;Node14 -->
<g id="edge38" class="edge">
<title>Node35&#45;&gt;Node14</title>
<path fill="none" stroke="midnightblue" d="M1176.94,-107.18C1159.64,-97.24 1136.85,-84.15 1122.07,-75.65"/>
<polygon fill="midnightblue" stroke="midnightblue" points="1175.48,-110.38 1185.9,-112.32 1178.97,-104.31 1175.48,-110.38"/>
</g>
<!-- Node37&#45;&gt;Node14 -->
<g id="edge40" class="edge">
<title>Node37&#45;&gt;Node14</title>
<path fill="none" stroke="midnightblue" d="M1107,-101.8C1107,-92.91 1107,-82.78 1107,-75.75"/>
<polygon fill="midnightblue" stroke="midnightblue" points="1103.5,-102.08 1107,-112.08 1110.5,-102.08 1103.5,-102.08"/>
</g>
<!-- Node53&#45;&gt;Node5 -->
<g id="edge45" class="edge">
<title>Node53&#45;&gt;Node5</title>
<path fill="none" stroke="midnightblue" d="M440.17,-214.4C442.68,-205.36 445.57,-194.94 447.57,-187.75"/>
<polygon fill="midnightblue" stroke="midnightblue" points="436.78,-213.51 437.48,-224.08 443.53,-215.38 436.78,-213.51"/>
</g>
<!-- Node58 -->
<g id="node36" class="node">
<title>Node58</title>
<g id="a_node36"><a xlink:href="data__formatting_8cpp.html" target="_top" xlink:title="Implementation of the DataFormatter class.">
<polygon fill="none" stroke="black" points="1121,-224.5 1121,-243.5 1237,-243.5 1237,-224.5 1121,-224.5"/>
<text text-anchor="middle" x="1179" y="-231.5" font-family="Helvetica,sans-Serif" font-size="10.00">data_formatting.cpp</text>
</a>
</g>
</g>
<!-- Node57&#45;&gt;Node58 -->
<g id="edge47" class="edge">
<title>Node57&#45;&gt;Node58</title>
<path fill="none" stroke="midnightblue" d="M1115.45,-274.9C1131.22,-265 1151.81,-252.07 1165.22,-243.65"/>
<polygon fill="midnightblue" stroke="midnightblue" points="1113.43,-272.04 1106.82,-280.32 1117.15,-277.97 1113.43,-272.04"/>
</g>
<!-- Node57&#45;&gt;Node59 -->
<g id="edge48" class="edge">
<title>Node57&#45;&gt;Node59</title>
<path fill="none" stroke="midnightblue" d="M1083.15,-271.27C1078.03,-262.05 1071.98,-251.17 1067.86,-243.75"/>
<polygon fill="midnightblue" stroke="midnightblue" points="1080.13,-273.04 1088.05,-280.08 1086.25,-269.64 1080.13,-273.04"/>
</g>
<!-- Node59&#45;&gt;Node10 -->
<g id="edge49" class="edge">
<title>Node59&#45;&gt;Node10</title>
<path fill="none" stroke="midnightblue" d="M1105.2,-221.83C1143.72,-211.63 1199.82,-196.78 1234.83,-187.52"/>
<polygon fill="midnightblue" stroke="midnightblue" points="1104.1,-218.5 1095.32,-224.44 1105.89,-225.27 1104.1,-218.5"/>
</g>
<!-- Node61&#45;&gt;Node10 -->
<g id="edge52" class="edge">
<title>Node61&#45;&gt;Node10</title>
<path fill="none" stroke="midnightblue" d="M1249.56,-270.35C1254.16,-246.25 1261.98,-205.31 1265.36,-187.59"/>
<polygon fill="midnightblue" stroke="midnightblue" points="1246.09,-269.89 1247.65,-280.37 1252.96,-271.2 1246.09,-269.89"/>
</g>
<!-- Node62 -->
<g id="node39" class="node">
<title>Node62</title>
<g id="a_node39"><a xlink:href="influxdb_8cpp.html" target="_top" xlink:title=" ">
<polygon fill="none" stroke="black" points="1543,-224.5 1543,-243.5 1619,-243.5 1619,-224.5 1543,-224.5"/>
<text text-anchor="middle" x="1581" y="-231.5" font-family="Helvetica,sans-Serif" font-size="10.00">influxdb.cpp</text>
</a>
</g>
</g>
<!-- Node61&#45;&gt;Node62 -->
<g id="edge53" class="edge">
<title>Node61&#45;&gt;Node62</title>
<path fill="none" stroke="midnightblue" d="M1294.85,-279.9C1390.08,-263.61 1489.72,-248.51 1542.87,-240.61"/>
<polygon fill="midnightblue" stroke="midnightblue" points="1294.02,-276.49 1284.75,-281.63 1295.2,-283.39 1294.02,-276.49"/>
</g>
<!-- Node63&#45;&gt;Node16 -->
<g id="edge56" class="edge">
<title>Node63&#45;&gt;Node16</title>
<path fill="none" stroke="midnightblue" d="M707.38,-215.57C701.18,-206.27 693.83,-195.25 688.83,-187.75"/>
<polygon fill="midnightblue" stroke="midnightblue" points="704.6,-217.7 713.06,-224.08 710.42,-213.82 704.6,-217.7"/>
</g>
<!-- Node65&#45;&gt;Node63 -->
<g id="edge58" class="edge">
<title>Node65&#45;&gt;Node63</title>
<path fill="none" stroke="midnightblue" d="M719,-269.8C719,-260.91 719,-250.78 719,-243.75"/>
<polygon fill="midnightblue" stroke="midnightblue" points="715.5,-270.08 719,-280.08 722.5,-270.08 715.5,-270.08"/>
</g>
<!-- Node69&#45;&gt;Node11 -->
<g id="edge65" class="edge">
<title>Node69&#45;&gt;Node11</title>
<path fill="none" stroke="midnightblue" d="M1496.75,-326.3C1496.13,-280.64 1494.57,-164.85 1494.12,-131.88"/>
<polygon fill="midnightblue" stroke="midnightblue" points="1493.25,-326.35 1496.88,-336.3 1500.25,-326.25 1493.25,-326.35"/>
</g>
<!-- Node69&#45;&gt;Node58 -->
<g id="edge64" class="edge">
<title>Node69&#45;&gt;Node58</title>
<path fill="none" stroke="midnightblue" d="M1446.55,-343.72C1371.46,-340.78 1235.21,-331.19 1199,-300 1182.36,-285.67 1179.34,-257.85 1178.94,-243.71"/>
<polygon fill="midnightblue" stroke="midnightblue" points="1446.61,-347.22 1456.73,-344.09 1446.86,-340.22 1446.61,-347.22"/>
</g>
<!-- Node69&#45;&gt;Node62 -->
<g id="edge66" class="edge">
<title>Node69&#45;&gt;Node62</title>
<path fill="none" stroke="midnightblue" d="M1509.77,-328.27C1527.93,-304.49 1560.54,-261.79 1574.44,-243.59"/>
<polygon fill="midnightblue" stroke="midnightblue" points="1506.88,-326.3 1503.59,-336.37 1512.44,-330.54 1506.88,-326.3"/>
</g>
<!-- Node70 -->
<g id="node46" class="node">
<title>Node70</title>
<g id="a_node46"><a xlink:href="to__json_8hpp.html" target="_top" xlink:title="Utility functions for converting data to JSON.">
<polygon fill="none" stroke="black" points="1563.5,-280.5 1563.5,-299.5 1636.5,-299.5 1636.5,-280.5 1563.5,-280.5"/>
<text text-anchor="middle" x="1600" y="-287.5" font-family="Helvetica,sans-Serif" font-size="10.00">to_json.hpp</text>
</a>
</g>
</g>
<!-- Node69&#45;&gt;Node70 -->
<g id="edge67" class="edge">
<title>Node69&#45;&gt;Node70</title>
<path fill="none" stroke="midnightblue" d="M1522.58,-331.59C1541.62,-321.61 1567.06,-308.27 1583.49,-299.65"/>
<polygon fill="midnightblue" stroke="midnightblue" points="1520.78,-328.58 1513.55,-336.32 1524.03,-334.78 1520.78,-328.58"/>
</g>
<!-- Node69&#45;&gt;Node71 -->
<g id="edge69" class="edge">
<title>Node69&#45;&gt;Node71</title>
<path fill="none" stroke="midnightblue" d="M1544.41,-334.15C1589,-323.95 1654.85,-308.88 1695.78,-299.52"/>
<polygon fill="midnightblue" stroke="midnightblue" points="1543.36,-330.8 1534.39,-336.44 1544.92,-337.62 1543.36,-330.8"/>
</g>
<!-- Node50 -->
<g id="node48" class="node">
<title>Node50</title>
<g id="a_node48"><a xlink:href="extension__test__framework_8cpp.html" target="_top" xlink:title="Test framework for testing extensions on the host.">
<polygon fill="none" stroke="black" points="1302.5,-280.5 1302.5,-299.5 1469.5,-299.5 1469.5,-280.5 1302.5,-280.5"/>
<text text-anchor="middle" x="1386" y="-287.5" font-family="Helvetica,sans-Serif" font-size="10.00">extension_test_framework.cpp</text>
</a>
</g>
</g>
<!-- Node69&#45;&gt;Node50 -->
<g id="edge70" class="edge">
<title>Node69&#45;&gt;Node50</title>
<path fill="none" stroke="midnightblue" d="M1469.99,-331.86C1449.41,-321.85 1421.66,-308.35 1403.79,-299.65"/>
<polygon fill="midnightblue" stroke="midnightblue" points="1468.64,-335.1 1479.17,-336.32 1471.7,-328.8 1468.64,-335.1"/>
</g>
<!-- Node70&#45;&gt;Node62 -->
<g id="edge68" class="edge">
<title>Node70&#45;&gt;Node62</title>
<path fill="none" stroke="midnightblue" d="M1593.45,-270.4C1590.28,-261.36 1586.61,-250.94 1584.08,-243.75"/>
<polygon fill="midnightblue" stroke="midnightblue" points="1590.24,-271.81 1596.86,-280.08 1596.85,-269.49 1590.24,-271.81"/>
</g>
<!-- Node73&#45;&gt;Node27 -->
<g id="edge76" class="edge">
<title>Node73&#45;&gt;Node27</title>
<path fill="none" stroke="midnightblue" d="M935.19,-389.7C898.39,-379.51 845.07,-364.74 811.75,-355.52"/>
<polygon fill="midnightblue" stroke="midnightblue" points="934.53,-393.15 945.1,-392.44 936.4,-386.4 934.53,-393.15"/>
</g>
<!-- Node73&#45;&gt;Node62 -->
<g id="edge74" class="edge">
<title>Node73&#45;&gt;Node62</title>
<path fill="none" stroke="midnightblue" d="M1020.66,-399.94C1137.14,-396.79 1447.92,-385.77 1546,-356 1594.74,-341.21 1620.24,-343.95 1646,-300 1659.96,-276.18 1625.37,-254.87 1601.47,-243.56"/>
<polygon fill="midnightblue" stroke="midnightblue" points="1020.56,-396.44 1010.66,-400.21 1020.75,-403.44 1020.56,-396.44"/>
</g>
<!-- Node73&#45;&gt;Node73 -->
<g id="edge75" class="edge">
<title>Node73&#45;&gt;Node73</title>
<path fill="none" stroke="midnightblue" d="M1008.51,-412.5C1019.59,-412.56 1028.5,-409.06 1028.5,-402 1028.5,-392.87 1013.61,-389.69 998.39,-392.47"/>
<polygon fill="midnightblue" stroke="midnightblue" points="1008.68,-409 998.39,-411.53 1008.01,-415.97 1008.68,-409"/>
</g>
</g>
</svg>
