<?xml version="1.0" encoding="UTF-8" standalone="no"?>
<!DOCTYPE svg PUBLIC "-//W3C//DTD SVG 1.1//EN"
 "http://www.w3.org/Graphics/SVG/1.1/DTD/svg11.dtd">
<!-- Generated by graphviz version 2.43.0 (0)
 -->
<!-- Title: pi_camera.hpp Pages: 1 -->
<svg width="1793pt" height="533pt"
 viewBox="0.00 0.00 1793.43 533.00" xmlns="http://www.w3.org/2000/svg" xmlns:xlink="http://www.w3.org/1999/xlink">
<g id="graph0" class="graph" transform="scale(1 1) rotate(0) translate(4 529)">
<title>pi_camera.hpp</title>
<!-- Node1 -->
<g id="Node000001" class="node">
<title>Node1</title>
<g id="a_Node000001"><a xlink:title="Raspberry Pi Camera Extension.">
<polygon fill="#999999" stroke="#666666" points="1063.43,-525 974.43,-525 974.43,-506 1063.43,-506 1063.43,-525"/>
<text text-anchor="middle" x="1018.93" y="-513" font-family="Helvetica,sans-Serif" font-size="10.00">pi_camera.hpp</text>
</a>
</g>
</g>
<!-- Node2 -->
<g id="Node000002" class="node">
<title>Node2</title>
<g id="a_Node000002"><a xlink:href="extension__base_8hpp.html" target="_top" xlink:title="The new implementation of the extension system.">
<polygon fill="white" stroke="#666666" points="1075.93,-470 961.93,-470 961.93,-451 1075.93,-451 1075.93,-470"/>
<text text-anchor="middle" x="1018.93" y="-458" font-family="Helvetica,sans-Serif" font-size="10.00">extension_base.hpp</text>
</a>
</g>
</g>
<!-- Node1&#45;&gt;Node2 -->
<g id="edge1_Node000001_Node000002" class="edge">
<title>Node1&#45;&gt;Node2</title>
<g id="a_edge1_Node000001_Node000002"><a xlink:title=" ">
<path fill="none" stroke="#63b8ff" d="M1018.93,-505.75C1018.93,-498.8 1018.93,-488.85 1018.93,-480.13"/>
<polygon fill="#63b8ff" stroke="#63b8ff" points="1022.43,-480.09 1018.93,-470.09 1015.43,-480.09 1022.43,-480.09"/>
</a>
</g>
</g>
<!-- Node3 -->
<g id="Node000003" class="node">
<title>Node3</title>
<g id="a_Node000003"><a xlink:title=" ">
<polygon fill="#e0e0e0" stroke="#999999" points="1635.93,-134.5 1585.93,-134.5 1585.93,-115.5 1635.93,-115.5 1635.93,-134.5"/>
<text text-anchor="middle" x="1610.93" y="-122.5" font-family="Helvetica,sans-Serif" font-size="10.00">atomic</text>
</a>
</g>
</g>
<!-- Node2&#45;&gt;Node3 -->
<g id="edge2_Node000002_Node000003" class="edge">
<title>Node2&#45;&gt;Node3</title>
<g id="a_edge2_Node000002_Node000003"><a xlink:title=" ">
<path fill="none" stroke="#63b8ff" d="M1076.15,-454.89C1223.04,-442.28 1601.93,-404.61 1601.93,-351.5 1601.93,-351.5 1601.93,-351.5 1601.93,-239.5 1601.93,-206 1605.87,-167.12 1608.54,-144.66"/>
<polygon fill="#63b8ff" stroke="#63b8ff" points="1612.03,-144.88 1609.79,-134.52 1605.09,-144.02 1612.03,-144.88"/>
</a>
</g>
</g>
<!-- Node4 -->
<g id="Node000004" class="node">
<title>Node4</title>
<g id="a_Node000004"><a xlink:title=" ">
<polygon fill="#e0e0e0" stroke="#999999" points="922.93,-415 874.93,-415 874.93,-396 922.93,-396 922.93,-415"/>
<text text-anchor="middle" x="898.93" y="-403" font-family="Helvetica,sans-Serif" font-size="10.00">thread</text>
</a>
</g>
</g>
<!-- Node2&#45;&gt;Node4 -->
<g id="edge3_Node000002_Node000004" class="edge">
<title>Node2&#45;&gt;Node4</title>
<g id="a_edge3_Node000002_Node000004"><a xlink:title=" ">
<path fill="none" stroke="#63b8ff" d="M999.65,-450.98C980.25,-442.42 950.12,-429.11 927.86,-419.28"/>
<polygon fill="#63b8ff" stroke="#63b8ff" points="929.12,-416.01 918.56,-415.17 926.29,-422.41 929.12,-416.01"/>
</a>
</g>
</g>
<!-- Node5 -->
<g id="Node000005" class="node">
<title>Node5</title>
<g id="a_Node000005"><a xlink:href="cfg__extensions_8hpp.html" target="_top" xlink:title="The header file for the extensions section of the configuration.">
<polygon fill="white" stroke="#666666" points="1096.43,-415 941.43,-415 941.43,-396 1096.43,-396 1096.43,-415"/>
<text text-anchor="middle" x="1018.93" y="-403" font-family="Helvetica,sans-Serif" font-size="10.00">sections/cfg_extensions.hpp</text>
</a>
</g>
</g>
<!-- Node2&#45;&gt;Node5 -->
<g id="edge4_Node000002_Node000005" class="edge">
<title>Node2&#45;&gt;Node5</title>
<g id="a_edge4_Node000002_Node000005"><a xlink:title=" ">
<path fill="none" stroke="#63b8ff" d="M1018.93,-450.75C1018.93,-443.8 1018.93,-433.85 1018.93,-425.13"/>
<polygon fill="#63b8ff" stroke="#63b8ff" points="1022.43,-425.09 1018.93,-415.09 1015.43,-425.09 1022.43,-425.09"/>
</a>
</g>
</g>
<!-- Node8 -->
<g id="Node000008" class="node">
<title>Node8</title>
<g id="a_Node000008"><a xlink:href="shared__data_8hpp.html" target="_top" xlink:title="Contains the SharedData struct, used across all modules and extensions.">
<polygon fill="white" stroke="#666666" points="812.93,-305 714.93,-305 714.93,-286 812.93,-286 812.93,-305"/>
<text text-anchor="middle" x="763.93" y="-293" font-family="Helvetica,sans-Serif" font-size="10.00">shared_data.hpp</text>
</a>
</g>
</g>
<!-- Node2&#45;&gt;Node8 -->
<g id="edge70_Node000002_Node000008" class="edge">
<title>Node2&#45;&gt;Node8</title>
<g id="a_edge70_Node000002_Node000008"><a xlink:title=" ">
<path fill="none" stroke="#63b8ff" d="M961.87,-452.08C906.64,-441.65 825.24,-417.05 782.93,-360 773.18,-346.86 768.4,-328.73 766.07,-315.2"/>
<polygon fill="#63b8ff" stroke="#63b8ff" points="769.51,-314.54 764.64,-305.13 762.58,-315.53 769.51,-314.54"/>
</a>
</g>
</g>
<!-- Node37 -->
<g id="Node000037" class="node">
<title>Node37</title>
<g id="a_Node000037"><a xlink:href="status__led_8hpp.html" target="_top" xlink:title="RGB Status LED extension header file.">
<polygon fill="white" stroke="#666666" points="1169.93,-250 1081.93,-250 1081.93,-231 1169.93,-231 1169.93,-250"/>
<text text-anchor="middle" x="1125.93" y="-238" font-family="Helvetica,sans-Serif" font-size="10.00">status_led.hpp</text>
</a>
</g>
</g>
<!-- Node2&#45;&gt;Node37 -->
<g id="edge71_Node000002_Node000037" class="edge">
<title>Node2&#45;&gt;Node37</title>
<g id="a_edge71_Node000002_Node000037"><a xlink:title=" ">
<path fill="none" stroke="#63b8ff" d="M1052.27,-450.94C1071.12,-444.32 1093.36,-433.12 1105.93,-415 1138.99,-367.32 1133.8,-293.97 1129.07,-259.98"/>
<polygon fill="#63b8ff" stroke="#63b8ff" points="1132.52,-259.4 1127.54,-250.05 1125.6,-260.47 1132.52,-259.4"/>
</a>
</g>
</g>
<!-- Node6 -->
<g id="Node000006" class="node">
<title>Node6</title>
<g id="a_Node000006"><a xlink:href="configuration__enums_8hpp.html" target="_top" xlink:title=" ">
<polygon fill="white" stroke="#666666" points="931.93,-360 791.93,-360 791.93,-341 931.93,-341 931.93,-360"/>
<text text-anchor="middle" x="861.93" y="-348" font-family="Helvetica,sans-Serif" font-size="10.00">configuration_enums.hpp</text>
</a>
</g>
</g>
<!-- Node5&#45;&gt;Node6 -->
<g id="edge5_Node000005_Node000006" class="edge">
<title>Node5&#45;&gt;Node6</title>
<g id="a_edge5_Node000005_Node000006"><a xlink:title=" ">
<path fill="none" stroke="#63b8ff" d="M993.7,-395.98C967.57,-387.16 926.53,-373.31 897.19,-363.41"/>
<polygon fill="#63b8ff" stroke="#63b8ff" points="897.94,-359.96 887.35,-360.08 895.7,-366.6 897.94,-359.96"/>
</a>
</g>
</g>
<!-- Node7 -->
<g id="Node000007" class="node">
<title>Node7</title>
<g id="a_Node000007"><a xlink:href="cfg__section_8hpp.html" target="_top" xlink:title="This file contains the base class for all configuration sections.">
<polygon fill="white" stroke="#666666" points="1087.43,-360 950.43,-360 950.43,-341 1087.43,-341 1087.43,-360"/>
<text text-anchor="middle" x="1018.93" y="-348" font-family="Helvetica,sans-Serif" font-size="10.00">sections/cfg_section.hpp</text>
</a>
</g>
</g>
<!-- Node5&#45;&gt;Node7 -->
<g id="edge6_Node000005_Node000007" class="edge">
<title>Node5&#45;&gt;Node7</title>
<g id="a_edge6_Node000005_Node000007"><a xlink:title=" ">
<path fill="none" stroke="#63b8ff" d="M1018.93,-395.75C1018.93,-388.8 1018.93,-378.85 1018.93,-370.13"/>
<polygon fill="#63b8ff" stroke="#63b8ff" points="1022.43,-370.09 1018.93,-360.09 1015.43,-370.09 1022.43,-370.09"/>
</a>
</g>
</g>
<!-- Node7&#45;&gt;Node8 -->
<g id="edge7_Node000007_Node000008" class="edge">
<title>Node7&#45;&gt;Node8</title>
<g id="a_edge7_Node000007_Node000008"><a xlink:title=" ">
<path fill="none" stroke="#63b8ff" d="M977.96,-340.98C933.66,-331.78 862.99,-317.09 815.08,-307.13"/>
<polygon fill="#63b8ff" stroke="#63b8ff" points="815.72,-303.69 805.22,-305.08 814.29,-310.54 815.72,-303.69"/>
</a>
</g>
</g>
<!-- Node9 -->
<g id="Node000009" class="node">
<title>Node9</title>
<g id="a_Node000009"><a xlink:title=" ">
<polygon fill="#e0e0e0" stroke="#999999" points="464.43,-74 339.43,-74 339.43,-55 464.43,-55 464.43,-74"/>
<text text-anchor="middle" x="401.93" y="-62" font-family="Helvetica,sans-Serif" font-size="10.00">BoosterSeat/clock.hpp</text>
</a>
</g>
</g>
<!-- Node8&#45;&gt;Node9 -->
<g id="edge8_Node000008_Node000009" class="edge">
<title>Node8&#45;&gt;Node9</title>
<g id="a_edge8_Node000008_Node000009"><a xlink:title=" ">
<path fill="none" stroke="#63b8ff" d="M714.65,-291.5C557.69,-281.45 77.03,-246.65 31.93,-195 -54.26,-96.3 198.48,-72.81 329.09,-67.23"/>
<polygon fill="#63b8ff" stroke="#63b8ff" points="329.57,-70.72 339.42,-66.82 329.29,-63.72 329.57,-70.72"/>
</a>
</g>
</g>
<!-- Node10 -->
<g id="Node000010" class="node">
<title>Node10</title>
<g id="a_Node000010"><a xlink:title=" ">
<polygon fill="#e0e0e0" stroke="#999999" points="215.93,-74 93.93,-74 93.93,-55 215.93,-55 215.93,-74"/>
<text text-anchor="middle" x="154.93" y="-62" font-family="Helvetica,sans-Serif" font-size="10.00">BoosterSeat/time.hpp</text>
</a>
</g>
</g>
<!-- Node8&#45;&gt;Node10 -->
<g id="edge9_Node000008_Node000010" class="edge">
<title>Node8&#45;&gt;Node10</title>
<g id="a_edge9_Node000008_Node000010"><a xlink:title=" ">
<path fill="none" stroke="#63b8ff" d="M714.48,-293.12C587.26,-289.22 251.02,-276.63 142.93,-250 83.6,-235.38 50.85,-245.82 16.93,-195 -4.05,-163.58 -6.35,-140.52 15.93,-110 31.68,-88.41 58.06,-77.05 83.63,-71.17"/>
<polygon fill="#63b8ff" stroke="#63b8ff" points="84.64,-74.53 93.74,-69.1 83.24,-67.68 84.64,-74.53"/>
</a>
</g>
</g>
<!-- Node11 -->
<g id="Node000011" class="node">
<title>Node11</title>
<g id="a_Node000011"><a xlink:href="blocks_8hpp.html" target="_top" xlink:title=" ">
<polygon fill="white" stroke="#666666" points="478.43,-195 409.43,-195 409.43,-176 478.43,-176 478.43,-195"/>
<text text-anchor="middle" x="443.93" y="-183" font-family="Helvetica,sans-Serif" font-size="10.00">blocks.hpp</text>
</a>
</g>
</g>
<!-- Node8&#45;&gt;Node11 -->
<g id="edge10_Node000008_Node000011" class="edge">
<title>Node8&#45;&gt;Node11</title>
<g id="a_edge10_Node000008_Node000011"><a xlink:title=" ">
<path fill="none" stroke="#63b8ff" d="M735.44,-285.96C708.64,-277.66 667.58,-264.26 632.93,-250 615.1,-242.66 611.9,-237.99 593.93,-231 559.24,-217.51 518.71,-205.71 488.54,-197.66"/>
<polygon fill="#63b8ff" stroke="#63b8ff" points="489.28,-194.24 478.72,-195.08 487.5,-201.01 489.28,-194.24"/>
</a>
</g>
</g>
<!-- Node21 -->
<g id="Node000021" class="node">
<title>Node21</title>
<g id="a_Node000021"><a xlink:href="error__frame_8hpp.html" target="_top" xlink:title="The error frame.">
<polygon fill="white" stroke="#666666" points="1025.43,-250 930.43,-250 930.43,-231 1025.43,-231 1025.43,-250"/>
<text text-anchor="middle" x="977.93" y="-238" font-family="Helvetica,sans-Serif" font-size="10.00">error_frame.hpp</text>
</a>
</g>
</g>
<!-- Node8&#45;&gt;Node21 -->
<g id="edge29_Node000008_Node000021" class="edge">
<title>Node8&#45;&gt;Node21</title>
<g id="a_edge29_Node000008_Node000021"><a xlink:title=" ">
<path fill="none" stroke="#63b8ff" d="M798.31,-285.98C835.01,-276.89 893.31,-262.46 933.48,-252.51"/>
<polygon fill="#63b8ff" stroke="#63b8ff" points="934.41,-255.88 943.27,-250.08 932.72,-249.09 934.41,-255.88"/>
</a>
</g>
</g>
<!-- Node22 -->
<g id="Node000022" class="node">
<title>Node22</title>
<g id="a_Node000022"><a xlink:href="frame_8hpp.html" target="_top" xlink:title=" ">
<polygon fill="white" stroke="#666666" points="1697.43,-195 1630.43,-195 1630.43,-176 1697.43,-176 1697.43,-195"/>
<text text-anchor="middle" x="1663.93" y="-183" font-family="Helvetica,sans-Serif" font-size="10.00">frame.hpp</text>
</a>
</g>
</g>
<!-- Node8&#45;&gt;Node22 -->
<g id="edge63_Node000008_Node000022" class="edge">
<title>Node8&#45;&gt;Node22</title>
<g id="a_edge63_Node000008_Node000022"><a xlink:title=" ">
<path fill="none" stroke="#63b8ff" d="M812.94,-290.91C868.03,-285.86 959.63,-274.39 1034.93,-250 1052.89,-244.18 1054.72,-236.03 1072.93,-231 1176.06,-202.52 1501.67,-190.95 1620.22,-187.6"/>
<polygon fill="#63b8ff" stroke="#63b8ff" points="1620.47,-191.1 1630.37,-187.32 1620.28,-184.1 1620.47,-191.1"/>
</a>
</g>
</g>
<!-- Node25 -->
<g id="Node000025" class="node">
<title>Node25</title>
<g id="a_Node000025"><a xlink:href="streams_8hpp.html" target="_top" xlink:title="The header file for the data streams.">
<polygon fill="white" stroke="#666666" points="1018.43,-195 941.43,-195 941.43,-176 1018.43,-176 1018.43,-195"/>
<text text-anchor="middle" x="979.93" y="-183" font-family="Helvetica,sans-Serif" font-size="10.00">streams.hpp</text>
</a>
</g>
</g>
<!-- Node8&#45;&gt;Node25 -->
<g id="edge69_Node000008_Node000025" class="edge">
<title>Node8&#45;&gt;Node25</title>
<g id="a_edge69_Node000008_Node000025"><a xlink:title=" ">
<path fill="none" stroke="#63b8ff" d="M781.24,-285.84C819.01,-266.96 909.01,-221.96 953.75,-199.59"/>
<polygon fill="#63b8ff" stroke="#63b8ff" points="955.45,-202.65 962.83,-195.05 952.32,-196.39 955.45,-202.65"/>
</a>
</g>
</g>
<!-- Node32 -->
<g id="Node000032" class="node">
<title>Node32</title>
<g id="a_Node000032"><a xlink:href="flight__data_8hpp.html" target="_top" xlink:title=" ">
<polygon fill="white" stroke="#666666" points="731.43,-250 642.43,-250 642.43,-231 731.43,-231 731.43,-250"/>
<text text-anchor="middle" x="686.93" y="-238" font-family="Helvetica,sans-Serif" font-size="10.00">flight_data.hpp</text>
</a>
</g>
</g>
<!-- Node8&#45;&gt;Node32 -->
<g id="edge52_Node000008_Node000032" class="edge">
<title>Node8&#45;&gt;Node32</title>
<g id="a_edge52_Node000008_Node000032"><a xlink:title=" ">
<path fill="none" stroke="#63b8ff" d="M751.55,-285.98C739.84,-277.92 722.01,-265.65 708.04,-256.03"/>
<polygon fill="#63b8ff" stroke="#63b8ff" points="709.74,-252.96 699.52,-250.17 705.77,-258.72 709.74,-252.96"/>
</a>
</g>
</g>
<!-- Node33 -->
<g id="Node000033" class="node">
<title>Node33</title>
<g id="a_Node000033"><a xlink:href="flight__phase_8hpp.html" target="_top" xlink:title="Contains the flight phase enum and related functions.">
<polygon fill="white" stroke="#666666" points="812.43,-195 715.43,-195 715.43,-176 812.43,-176 812.43,-195"/>
<text text-anchor="middle" x="763.93" y="-183" font-family="Helvetica,sans-Serif" font-size="10.00">flight_phase.hpp</text>
</a>
</g>
</g>
<!-- Node8&#45;&gt;Node33 -->
<g id="edge62_Node000008_Node000033" class="edge">
<title>Node8&#45;&gt;Node33</title>
<g id="a_edge62_Node000008_Node000033"><a xlink:title=" ">
<path fill="none" stroke="#63b8ff" d="M763.93,-285.66C763.93,-268.17 763.93,-228.8 763.93,-205.27"/>
<polygon fill="#63b8ff" stroke="#63b8ff" points="767.43,-205.16 763.93,-195.16 760.43,-205.16 767.43,-205.16"/>
</a>
</g>
</g>
<!-- Node35 -->
<g id="Node000035" class="node">
<title>Node35</title>
<g id="a_Node000035"><a xlink:href="log__container_8hpp.html" target="_top" xlink:title="A simple logging system for debugging.">
<polygon fill="white" stroke="#666666" points="585.43,-250 482.43,-250 482.43,-231 585.43,-231 585.43,-250"/>
<text text-anchor="middle" x="533.93" y="-238" font-family="Helvetica,sans-Serif" font-size="10.00">log_container.hpp</text>
</a>
</g>
</g>
<!-- Node8&#45;&gt;Node35 -->
<g id="edge64_Node000008_Node000035" class="edge">
<title>Node8&#45;&gt;Node35</title>
<g id="a_edge64_Node000008_Node000035"><a xlink:title=" ">
<path fill="none" stroke="#63b8ff" d="M726.97,-285.98C687.35,-276.86 624.34,-262.33 581.15,-252.38"/>
<polygon fill="#63b8ff" stroke="#63b8ff" points="581.7,-248.92 571.17,-250.08 580.13,-255.74 581.7,-248.92"/>
</a>
</g>
</g>
<!-- Node8&#45;&gt;Node37 -->
<g id="edge67_Node000008_Node000037" class="edge">
<title>Node8&#45;&gt;Node37</title>
<g id="a_edge67_Node000008_Node000037"><a xlink:title=" ">
<path fill="none" stroke="#63b8ff" d="M813.16,-287.3C873.28,-278.5 978.07,-263.16 1067.93,-250 1069.2,-249.81 1070.49,-249.62 1071.79,-249.43"/>
<polygon fill="#63b8ff" stroke="#63b8ff" points="1072.52,-252.86 1081.91,-247.95 1071.5,-245.94 1072.52,-252.86"/>
</a>
</g>
</g>
<!-- Node11&#45;&gt;Node9 -->
<g id="edge12_Node000011_Node000009" class="edge">
<title>Node11&#45;&gt;Node9</title>
<g id="a_edge12_Node000011_Node000009"><a xlink:title=" ">
<path fill="none" stroke="#63b8ff" d="M437.37,-175.78C431.18,-167.13 422.12,-153.3 416.93,-140 409.82,-121.78 405.91,-99.69 403.88,-84.31"/>
<polygon fill="#63b8ff" stroke="#63b8ff" points="407.32,-83.56 402.68,-74.04 400.37,-84.38 407.32,-83.56"/>
</a>
</g>
</g>
<!-- Node11&#45;&gt;Node10 -->
<g id="edge14_Node000011_Node000010" class="edge">
<title>Node11&#45;&gt;Node10</title>
<g id="a_edge14_Node000011_Node000010"><a xlink:title=" ">
<path fill="none" stroke="#63b8ff" d="M409.33,-185.31C361.43,-184.87 273.85,-178.27 211.93,-140 189.69,-126.26 172.93,-100.46 163.52,-83.13"/>
<polygon fill="#63b8ff" stroke="#63b8ff" points="166.54,-81.34 158.84,-74.06 160.32,-84.55 166.54,-81.34"/>
</a>
</g>
</g>
<!-- Node11&#45;&gt;Node11 -->
<g id="edge15_Node000011_Node000011" class="edge">
<title>Node11&#45;&gt;Node11</title>
<g id="a_edge15_Node000011_Node000011"><a xlink:title=" ">
<path fill="none" stroke="#63b8ff" d="M468.5,-195.03C482.92,-197.06 496.43,-193.88 496.43,-185.5 496.43,-179.15 488.67,-175.78 478.64,-175.41"/>
<polygon fill="#63b8ff" stroke="#63b8ff" points="478.29,-171.92 468.5,-175.97 478.68,-178.91 478.29,-171.92"/>
</a>
</g>
</g>
<!-- Node12 -->
<g id="Node000012" class="node">
<title>Node12</title>
<g id="a_Node000012"><a xlink:title=" ">
<polygon fill="#e0e0e0" stroke="#999999" points="1421.93,-74 1373.93,-74 1373.93,-55 1421.93,-55 1421.93,-74"/>
<text text-anchor="middle" x="1397.93" y="-62" font-family="Helvetica,sans-Serif" font-size="10.00">mutex</text>
</a>
</g>
</g>
<!-- Node11&#45;&gt;Node12 -->
<g id="edge11_Node000011_Node000012" class="edge">
<title>Node11&#45;&gt;Node12</title>
<g id="a_edge11_Node000011_Node000012"><a xlink:title=" ">
<path fill="none" stroke="#63b8ff" d="M478.49,-181.56C593.92,-171.75 958.97,-140.7 961.93,-140 997.28,-131.69 1002.74,-118.97 1037.93,-110 1154.99,-80.17 1298.74,-70.06 1363.46,-66.86"/>
<polygon fill="#63b8ff" stroke="#63b8ff" points="1363.7,-70.36 1373.52,-66.39 1363.37,-63.37 1363.7,-70.36"/>
</a>
</g>
</g>
<!-- Node13 -->
<g id="Node000013" class="node">
<title>Node13</title>
<g id="a_Node000013"><a xlink:title=" ">
<polygon fill="#e0e0e0" stroke="#999999" points="364.43,-134.5 221.43,-134.5 221.43,-115.5 364.43,-115.5 364.43,-134.5"/>
<text text-anchor="middle" x="292.93" y="-122.5" font-family="Helvetica,sans-Serif" font-size="10.00">BoosterSeat/numbers.hpp</text>
</a>
</g>
</g>
<!-- Node11&#45;&gt;Node13 -->
<g id="edge13_Node000011_Node000013" class="edge">
<title>Node11&#45;&gt;Node13</title>
<g id="a_edge13_Node000011_Node000013"><a xlink:title=" ">
<path fill="none" stroke="#63b8ff" d="M421.97,-175.99C396.25,-166.03 353.45,-149.45 324.25,-138.13"/>
<polygon fill="#63b8ff" stroke="#63b8ff" points="325.5,-134.87 314.91,-134.52 322.97,-141.39 325.5,-134.87"/>
</a>
</g>
</g>
<!-- Node14 -->
<g id="Node000014" class="node">
<title>Node14</title>
<g id="a_Node000014"><a xlink:href="json_8hpp.html" target="_top" xlink:title="Simple wrapper around nlohmann/json.hpp to provide a common interface.">
<polygon fill="white" stroke="#666666" points="658.93,-134.5 600.93,-134.5 600.93,-115.5 658.93,-115.5 658.93,-134.5"/>
<text text-anchor="middle" x="629.93" y="-122.5" font-family="Helvetica,sans-Serif" font-size="10.00">json.hpp</text>
</a>
</g>
</g>
<!-- Node11&#45;&gt;Node14 -->
<g id="edge16_Node000011_Node000014" class="edge">
<title>Node11&#45;&gt;Node14</title>
<g id="a_edge16_Node000011_Node000014"><a xlink:title=" ">
<path fill="none" stroke="#63b8ff" d="M474.14,-176C504.17,-167.41 551.46,-153.52 591.93,-140 593.83,-139.36 595.77,-138.7 597.74,-138.01"/>
<polygon fill="#63b8ff" stroke="#63b8ff" points="599.26,-141.18 607.5,-134.52 596.91,-134.59 599.26,-141.18"/>
</a>
</g>
</g>
<!-- Node17 -->
<g id="Node000017" class="node">
<title>Node17</title>
<g id="a_Node000017"><a xlink:href="node_8hpp.html" target="_top" xlink:title="Contains structures that are used to identify components of the flight system.">
<polygon fill="white" stroke="#666666" points="819.93,-74 757.93,-74 757.93,-55 819.93,-55 819.93,-74"/>
<text text-anchor="middle" x="788.93" y="-62" font-family="Helvetica,sans-Serif" font-size="10.00">node.hpp</text>
</a>
</g>
</g>
<!-- Node11&#45;&gt;Node17 -->
<g id="edge19_Node000011_Node000017" class="edge">
<title>Node11&#45;&gt;Node17</title>
<g id="a_edge19_Node000011_Node000017"><a xlink:title=" ">
<path fill="none" stroke="#63b8ff" d="M478.77,-181.44C523.76,-176.64 603.89,-165.13 667.93,-140 706.65,-124.8 746.85,-97.3 769.79,-80.3"/>
<polygon fill="#63b8ff" stroke="#63b8ff" points="772.09,-82.95 777.97,-74.14 767.87,-77.36 772.09,-82.95"/>
</a>
</g>
</g>
<!-- Node20 -->
<g id="Node000020" class="node">
<title>Node20</title>
<g id="a_Node000020"><a xlink:href="positional_8hpp.html" target="_top" xlink:title="Positional data for the flight system (gps/imu data)">
<polygon fill="white" stroke="#666666" points="582.93,-134.5 496.93,-134.5 496.93,-115.5 582.93,-115.5 582.93,-134.5"/>
<text text-anchor="middle" x="539.93" y="-122.5" font-family="Helvetica,sans-Serif" font-size="10.00">positional.hpp</text>
</a>
</g>
</g>
<!-- Node11&#45;&gt;Node20 -->
<g id="edge22_Node000011_Node000020" class="edge">
<title>Node11&#45;&gt;Node20</title>
<g id="a_edge22_Node000011_Node000020"><a xlink:title=" ">
<path fill="none" stroke="#63b8ff" d="M458.09,-175.87C473.62,-166.41 498.76,-151.09 517.08,-139.92"/>
<polygon fill="#63b8ff" stroke="#63b8ff" points="518.98,-142.86 525.7,-134.67 515.34,-136.88 518.98,-142.86"/>
</a>
</g>
</g>
<!-- Node15 -->
<g id="Node000015" class="node">
<title>Node15</title>
<g id="a_Node000015"><a xlink:title=" ">
<polygon fill="#e0e0e0" stroke="#999999" points="677.93,-74 567.93,-74 567.93,-55 677.93,-55 677.93,-74"/>
<text text-anchor="middle" x="622.93" y="-62" font-family="Helvetica,sans-Serif" font-size="10.00">nlohmann/json.hpp</text>
</a>
</g>
</g>
<!-- Node14&#45;&gt;Node15 -->
<g id="edge17_Node000014_Node000015" class="edge">
<title>Node14&#45;&gt;Node15</title>
<g id="a_edge17_Node000014_Node000015"><a xlink:title=" ">
<path fill="none" stroke="#63b8ff" d="M628.89,-115.37C627.92,-107.25 626.43,-94.81 625.18,-84.39"/>
<polygon fill="#63b8ff" stroke="#63b8ff" points="628.63,-83.68 623.96,-74.17 621.68,-84.51 628.63,-83.68"/>
</a>
</g>
</g>
<!-- Node16 -->
<g id="Node000016" class="node">
<title>Node16</title>
<g id="a_Node000016"><a xlink:title=" ">
<polygon fill="#e0e0e0" stroke="#999999" points="739.93,-74 695.93,-74 695.93,-55 739.93,-55 739.93,-74"/>
<text text-anchor="middle" x="717.93" y="-62" font-family="Helvetica,sans-Serif" font-size="10.00">string</text>
</a>
</g>
</g>
<!-- Node14&#45;&gt;Node16 -->
<g id="edge18_Node000014_Node000016" class="edge">
<title>Node14&#45;&gt;Node16</title>
<g id="a_edge18_Node000014_Node000016"><a xlink:title=" ">
<path fill="none" stroke="#63b8ff" d="M642.91,-115.37C656.95,-106.04 679.56,-91.01 696.29,-79.88"/>
<polygon fill="#63b8ff" stroke="#63b8ff" points="698.5,-82.62 704.89,-74.17 694.62,-76.79 698.5,-82.62"/>
</a>
</g>
</g>
<!-- Node18 -->
<g id="Node000018" class="node">
<title>Node18</title>
<g id="a_Node000018"><a xlink:title=" ">
<polygon fill="#e0e0e0" stroke="#999999" points="756.93,-19 706.93,-19 706.93,0 756.93,0 756.93,-19"/>
<text text-anchor="middle" x="731.93" y="-7" font-family="Helvetica,sans-Serif" font-size="10.00">cstdint</text>
</a>
</g>
</g>
<!-- Node17&#45;&gt;Node18 -->
<g id="edge20_Node000017_Node000018" class="edge">
<title>Node17&#45;&gt;Node18</title>
<g id="a_edge20_Node000017_Node000018"><a xlink:title=" ">
<path fill="none" stroke="#63b8ff" d="M779.77,-54.98C771.42,-47.23 758.89,-35.58 748.75,-26.14"/>
<polygon fill="#63b8ff" stroke="#63b8ff" points="750.96,-23.42 741.25,-19.17 746.19,-28.54 750.96,-23.42"/>
</a>
</g>
</g>
<!-- Node19 -->
<g id="Node000019" class="node">
<title>Node19</title>
<g id="a_Node000019"><a xlink:title=" ">
<polygon fill="#e0e0e0" stroke="#999999" points="632.93,-19 594.93,-19 594.93,0 632.93,0 632.93,-19"/>
<text text-anchor="middle" x="613.93" y="-7" font-family="Helvetica,sans-Serif" font-size="10.00">map</text>
</a>
</g>
</g>
<!-- Node17&#45;&gt;Node19 -->
<g id="edge21_Node000017_Node000019" class="edge">
<title>Node17&#45;&gt;Node19</title>
<g id="a_edge21_Node000017_Node000019"><a xlink:title=" ">
<path fill="none" stroke="#63b8ff" d="M760.81,-54.98C728.55,-45.22 675.91,-29.27 643.18,-19.36"/>
<polygon fill="#63b8ff" stroke="#63b8ff" points="643.89,-15.92 633.3,-16.37 641.86,-22.62 643.89,-15.92"/>
</a>
</g>
</g>
<!-- Node20&#45;&gt;Node9 -->
<g id="edge27_Node000020_Node000009" class="edge">
<title>Node20&#45;&gt;Node9</title>
<g id="a_edge27_Node000020_Node000009"><a xlink:title=" ">
<path fill="none" stroke="#63b8ff" d="M519.86,-115.49C496.56,-105.62 457.91,-89.23 431.25,-77.93"/>
<polygon fill="#63b8ff" stroke="#63b8ff" points="432.59,-74.7 422.02,-74.02 429.86,-81.14 432.59,-74.7"/>
</a>
</g>
</g>
<!-- Node20&#45;&gt;Node10 -->
<g id="edge28_Node000020_Node000010" class="edge">
<title>Node20&#45;&gt;Node10</title>
<g id="a_edge28_Node000020_Node000010"><a xlink:title=" ">
<path fill="none" stroke="#63b8ff" d="M496.88,-117.46C429.93,-107.29 300.37,-87.6 221.36,-75.59"/>
<polygon fill="#63b8ff" stroke="#63b8ff" points="221.45,-72.07 211.04,-74.03 220.4,-78.99 221.45,-72.07"/>
</a>
</g>
</g>
<!-- Node20&#45;&gt;Node15 -->
<g id="edge26_Node000020_Node000015" class="edge">
<title>Node20&#45;&gt;Node15</title>
<g id="a_edge26_Node000020_Node000015"><a xlink:title=" ">
<path fill="none" stroke="#63b8ff" d="M552.17,-115.37C565.29,-106.12 586.34,-91.28 602.08,-80.19"/>
<polygon fill="#63b8ff" stroke="#63b8ff" points="604.47,-82.79 610.63,-74.17 600.44,-77.07 604.47,-82.79"/>
</a>
</g>
</g>
<!-- Node20&#45;&gt;Node16 -->
<g id="edge25_Node000020_Node000016" class="edge">
<title>Node20&#45;&gt;Node16</title>
<g id="a_edge25_Node000020_Node000016"><a xlink:title=" ">
<path fill="none" stroke="#63b8ff" d="M565.81,-115.49C597.66,-105.02 651.75,-87.25 686.11,-75.96"/>
<polygon fill="#63b8ff" stroke="#63b8ff" points="687.26,-79.26 695.67,-72.81 685.07,-72.61 687.26,-79.26"/>
</a>
</g>
</g>
<!-- Node20&#45;&gt;Node18 -->
<g id="edge23_Node000020_Node000018" class="edge">
<title>Node20&#45;&gt;Node18</title>
<g id="a_edge23_Node000020_Node000018"><a xlink:title=" ">
<path fill="none" stroke="#63b8ff" d="M539.71,-115.45C539.83,-100.91 542.27,-71.38 558.93,-55 578.27,-35.98 651.99,-22.17 696.72,-15.34"/>
<polygon fill="#63b8ff" stroke="#63b8ff" points="697.5,-18.76 706.87,-13.83 696.47,-11.83 697.5,-18.76"/>
</a>
</g>
</g>
<!-- Node20&#45;&gt;Node19 -->
<g id="edge24_Node000020_Node000019" class="edge">
<title>Node20&#45;&gt;Node19</title>
<g id="a_edge24_Node000020_Node000019"><a xlink:title=" ">
<path fill="none" stroke="#63b8ff" d="M534.43,-115.24C526.53,-101.42 514.14,-74.16 525.93,-55 538.74,-34.17 564.65,-22.73 585.06,-16.68"/>
<polygon fill="#63b8ff" stroke="#63b8ff" points="586.09,-20.03 594.84,-14.06 584.28,-13.27 586.09,-20.03"/>
</a>
</g>
</g>
<!-- Node21&#45;&gt;Node9 -->
<g id="edge30_Node000021_Node000009" class="edge">
<title>Node21&#45;&gt;Node9</title>
<g id="a_edge30_Node000021_Node000009"><a xlink:title=" ">
<path fill="none" stroke="#63b8ff" d="M961.5,-231C933.49,-216.93 874.33,-189.07 820.93,-176 739.61,-156.1 516.56,-184.93 445.93,-140 425.77,-127.18 413.68,-101.55 407.41,-83.96"/>
<polygon fill="#63b8ff" stroke="#63b8ff" points="410.67,-82.66 404.24,-74.24 404.01,-84.83 410.67,-82.66"/>
</a>
</g>
</g>
<!-- Node21&#45;&gt;Node22 -->
<g id="edge31_Node000021_Node000022" class="edge">
<title>Node21&#45;&gt;Node22</title>
<g id="a_edge31_Node000021_Node000022"><a xlink:title=" ">
<path fill="none" stroke="#63b8ff" d="M1025.61,-232.64C1030.44,-232.04 1035.28,-231.48 1039.93,-231 1068.71,-228 1482.33,-199.13 1619.84,-189.56"/>
<polygon fill="#63b8ff" stroke="#63b8ff" points="1620.28,-193.04 1630.01,-188.86 1619.79,-186.06 1620.28,-193.04"/>
</a>
</g>
</g>
<!-- Node24 -->
<g id="Node000024" class="node">
<title>Node24</title>
<g id="a_Node000024"><a xlink:href="giraffe__diagnostic__ids_8hpp.html" target="_top" xlink:title=" ">
<polygon fill="white" stroke="#666666" points="1529.93,-140 1425.93,-140 1425.93,-110 1529.93,-110 1529.93,-140"/>
<text text-anchor="start" x="1433.93" y="-128" font-family="Helvetica,sans-Serif" font-size="10.00">giraffe_diagnostic</text>
<text text-anchor="middle" x="1477.93" y="-117" font-family="Helvetica,sans-Serif" font-size="10.00">_ids.hpp</text>
</a>
</g>
</g>
<!-- Node21&#45;&gt;Node24 -->
<g id="edge34_Node000021_Node000024" class="edge">
<title>Node21&#45;&gt;Node24</title>
<g id="a_edge34_Node000021_Node000024"><a xlink:title=" ">
<path fill="none" stroke="#63b8ff" d="M1015.51,-230.97C1100.98,-211.57 1310.66,-163.97 1415.75,-140.11"/>
<polygon fill="#63b8ff" stroke="#63b8ff" points="1416.61,-143.51 1425.59,-137.88 1415.06,-136.68 1416.61,-143.51"/>
</a>
</g>
</g>
<!-- Node21&#45;&gt;Node25 -->
<g id="edge35_Node000021_Node000025" class="edge">
<title>Node21&#45;&gt;Node25</title>
<g id="a_edge35_Node000021_Node000025"><a xlink:title=" ">
<path fill="none" stroke="#63b8ff" d="M978.26,-230.75C978.52,-223.8 978.89,-213.85 979.22,-205.13"/>
<polygon fill="#63b8ff" stroke="#63b8ff" points="982.72,-205.21 979.6,-195.09 975.73,-204.95 982.72,-205.21"/>
</a>
</g>
</g>
<!-- Node22&#45;&gt;Node12 -->
<g id="edge32_Node000022_Node000012" class="edge">
<title>Node22&#45;&gt;Node12</title>
<g id="a_edge32_Node000022_Node000012"><a xlink:title=" ">
<path fill="none" stroke="#63b8ff" d="M1664.48,-175.89C1664.98,-160.29 1663.59,-127.37 1644.93,-110 1614.54,-81.71 1492.53,-70.88 1432.14,-67.19"/>
<polygon fill="#63b8ff" stroke="#63b8ff" points="1432.15,-63.69 1421.96,-66.6 1431.74,-70.67 1432.15,-63.69"/>
</a>
</g>
</g>
<!-- Node23 -->
<g id="Node000023" class="node">
<title>Node23</title>
<g id="a_Node000023"><a xlink:title=" ">
<polygon fill="#e0e0e0" stroke="#999999" points="1785.43,-134.5 1692.43,-134.5 1692.43,-115.5 1785.43,-115.5 1785.43,-134.5"/>
<text text-anchor="middle" x="1738.93" y="-122.5" font-family="Helvetica,sans-Serif" font-size="10.00">unordered_map</text>
</a>
</g>
</g>
<!-- Node22&#45;&gt;Node23 -->
<g id="edge33_Node000022_Node000023" class="edge">
<title>Node22&#45;&gt;Node23</title>
<g id="a_edge33_Node000022_Node000023"><a xlink:title=" ">
<path fill="none" stroke="#63b8ff" d="M1674.99,-175.87C1686.73,-166.71 1705.51,-152.06 1719.69,-141.01"/>
<polygon fill="#63b8ff" stroke="#63b8ff" points="1722.08,-143.58 1727.81,-134.67 1717.78,-138.06 1722.08,-143.58"/>
</a>
</g>
</g>
<!-- Node25&#45;&gt;Node3 -->
<g id="edge36_Node000025_Node000003" class="edge">
<title>Node25&#45;&gt;Node3</title>
<g id="a_edge36_Node000025_Node000003"><a xlink:title=" ">
<path fill="none" stroke="#63b8ff" d="M1018.72,-182.92C1109.84,-178.87 1344.56,-166.55 1538.93,-140 1551.03,-138.35 1564.16,-135.97 1575.87,-133.64"/>
<polygon fill="#63b8ff" stroke="#63b8ff" points="1576.62,-137.06 1585.72,-131.62 1575.22,-130.2 1576.62,-137.06"/>
</a>
</g>
</g>
<!-- Node25&#45;&gt;Node9 -->
<g id="edge41_Node000025_Node000009" class="edge">
<title>Node25&#45;&gt;Node9</title>
<g id="a_edge41_Node000025_Node000009"><a xlink:title=" ">
<path fill="none" stroke="#63b8ff" d="M941.19,-181.65C828.72,-173.28 508.72,-148.84 487.93,-140 472.04,-133.24 437.75,-100.98 417.6,-81.19"/>
<polygon fill="#63b8ff" stroke="#63b8ff" points="419.97,-78.61 410.4,-74.06 415.04,-83.58 419.97,-78.61"/>
</a>
</g>
</g>
<!-- Node25&#45;&gt;Node12 -->
<g id="edge38_Node000025_Node000012" class="edge">
<title>Node25&#45;&gt;Node12</title>
<g id="a_edge38_Node000025_Node000012"><a xlink:title=" ">
<path fill="none" stroke="#63b8ff" d="M1018.61,-182.66C1113.5,-177.81 1352.04,-163.39 1378.93,-140 1394.7,-126.27 1398.28,-101.44 1398.69,-84.24"/>
<polygon fill="#63b8ff" stroke="#63b8ff" points="1402.19,-84.2 1398.59,-74.23 1395.19,-84.27 1402.19,-84.2"/>
</a>
</g>
</g>
<!-- Node25&#45;&gt;Node16 -->
<g id="edge40_Node000025_Node000016" class="edge">
<title>Node25&#45;&gt;Node16</title>
<g id="a_edge40_Node000025_Node000016"><a xlink:title=" ">
<path fill="none" stroke="#63b8ff" d="M941.3,-177.68C908.22,-170.91 859.91,-158.81 820.93,-140 788.03,-124.13 754.62,-97.64 735.1,-80.9"/>
<polygon fill="#63b8ff" stroke="#63b8ff" points="737.24,-78.11 727.4,-74.17 732.63,-83.38 737.24,-78.11"/>
</a>
</g>
</g>
<!-- Node25&#45;&gt;Node17 -->
<g id="edge50_Node000025_Node000017" class="edge">
<title>Node25&#45;&gt;Node17</title>
<g id="a_edge50_Node000025_Node000017"><a xlink:title=" ">
<path fill="none" stroke="#63b8ff" d="M943.12,-175.98C917.75,-168.98 884.02,-157.35 857.93,-140 834.39,-124.35 813.27,-99.09 800.77,-82.39"/>
<polygon fill="#63b8ff" stroke="#63b8ff" points="803.47,-80.14 794.76,-74.1 797.8,-84.25 803.47,-80.14"/>
</a>
</g>
</g>
<!-- Node25&#45;&gt;Node20 -->
<g id="edge51_Node000025_Node000020" class="edge">
<title>Node25&#45;&gt;Node20</title>
<g id="a_edge51_Node000025_Node000020"><a xlink:title=" ">
<path fill="none" stroke="#63b8ff" d="M941.36,-181.99C871.3,-177 718.63,-164.18 591.93,-140 587.52,-139.16 582.94,-138.14 578.4,-137.04"/>
<polygon fill="#63b8ff" stroke="#63b8ff" points="579.18,-133.63 568.63,-134.55 577.45,-140.41 579.18,-133.63"/>
</a>
</g>
</g>
<!-- Node25&#45;&gt;Node24 -->
<g id="edge49_Node000025_Node000024" class="edge">
<title>Node25&#45;&gt;Node24</title>
<g id="a_edge49_Node000025_Node000024"><a xlink:title=" ">
<path fill="none" stroke="#63b8ff" d="M1018.53,-181.91C1094.29,-176.52 1267.61,-162.67 1411.93,-140 1413.19,-139.8 1414.48,-139.59 1415.77,-139.38"/>
<polygon fill="#63b8ff" stroke="#63b8ff" points="1416.55,-142.79 1425.78,-137.6 1415.32,-135.9 1416.55,-142.79"/>
</a>
</g>
</g>
<!-- Node26 -->
<g id="Node000026" class="node">
<title>Node26</title>
<g id="a_Node000026"><a xlink:title=" ">
<polygon fill="#e0e0e0" stroke="#999999" points="1369.93,-134.5 1309.93,-134.5 1309.93,-115.5 1369.93,-115.5 1369.93,-134.5"/>
<text text-anchor="middle" x="1339.93" y="-122.5" font-family="Helvetica,sans-Serif" font-size="10.00">iostream</text>
</a>
</g>
</g>
<!-- Node25&#45;&gt;Node26 -->
<g id="edge37_Node000025_Node000026" class="edge">
<title>Node25&#45;&gt;Node26</title>
<g id="a_edge37_Node000025_Node000026"><a xlink:title=" ">
<path fill="none" stroke="#63b8ff" d="M1018.6,-181.86C1079.58,-177.1 1201.47,-165.13 1301.93,-140 1304.43,-139.37 1307,-138.64 1309.57,-137.84"/>
<polygon fill="#63b8ff" stroke="#63b8ff" points="1310.94,-141.07 1319.27,-134.53 1308.68,-134.44 1310.94,-141.07"/>
</a>
</g>
</g>
<!-- Node27 -->
<g id="Node000027" class="node">
<title>Node27</title>
<g id="a_Node000027"><a xlink:title=" ">
<polygon fill="#e0e0e0" stroke="#999999" points="1009.43,-74 962.43,-74 962.43,-55 1009.43,-55 1009.43,-74"/>
<text text-anchor="middle" x="985.93" y="-62" font-family="Helvetica,sans-Serif" font-size="10.00">queue</text>
</a>
</g>
</g>
<!-- Node25&#45;&gt;Node27 -->
<g id="edge39_Node000025_Node000027" class="edge">
<title>Node25&#45;&gt;Node27</title>
<g id="a_edge39_Node000025_Node000027"><a xlink:title=" ">
<path fill="none" stroke="#63b8ff" d="M980.36,-175.94C981.32,-156.91 983.65,-110.69 984.97,-84.47"/>
<polygon fill="#63b8ff" stroke="#63b8ff" points="988.47,-84.47 985.48,-74.3 981.48,-84.11 988.47,-84.47"/>
</a>
</g>
</g>
<!-- Node28 -->
<g id="Node000028" class="node">
<title>Node28</title>
<g id="a_Node000028"><a xlink:title=" ">
<polygon fill="#e0e0e0" stroke="#999999" points="1194.93,-134.5 1046.93,-134.5 1046.93,-115.5 1194.93,-115.5 1194.93,-134.5"/>
<text text-anchor="middle" x="1120.93" y="-122.5" font-family="Helvetica,sans-Serif" font-size="10.00">BoosterSeat/exception.hpp</text>
</a>
</g>
</g>
<!-- Node25&#45;&gt;Node28 -->
<g id="edge42_Node000025_Node000028" class="edge">
<title>Node25&#45;&gt;Node28</title>
<g id="a_edge42_Node000025_Node000028"><a xlink:title=" ">
<path fill="none" stroke="#63b8ff" d="M1000.43,-175.99C1024.24,-166.12 1063.72,-149.73 1090.97,-138.43"/>
<polygon fill="#63b8ff" stroke="#63b8ff" points="1092.5,-141.58 1100.4,-134.52 1089.82,-135.12 1092.5,-141.58"/>
</a>
</g>
</g>
<!-- Node29 -->
<g id="Node000029" class="node">
<title>Node29</title>
<g id="a_Node000029"><a xlink:href="command_8hpp.html" target="_top" xlink:title="The command/queue system for the flight system.">
<polygon fill="white" stroke="#666666" points="952.93,-134.5 866.93,-134.5 866.93,-115.5 952.93,-115.5 952.93,-134.5"/>
<text text-anchor="middle" x="909.93" y="-122.5" font-family="Helvetica,sans-Serif" font-size="10.00">command.hpp</text>
</a>
</g>
</g>
<!-- Node25&#45;&gt;Node29 -->
<g id="edge43_Node000025_Node000029" class="edge">
<title>Node25&#45;&gt;Node29</title>
<g id="a_edge43_Node000025_Node000029"><a xlink:title=" ">
<path fill="none" stroke="#63b8ff" d="M969.6,-175.87C958.74,-166.8 941.44,-152.34 928.26,-141.32"/>
<polygon fill="#63b8ff" stroke="#63b8ff" points="930.21,-138.39 920.3,-134.67 925.73,-143.77 930.21,-138.39"/>
</a>
</g>
</g>
<!-- Node31 -->
<g id="Node000031" class="node">
<title>Node31</title>
<g id="a_Node000031"><a xlink:href="data__ids_8hpp.html" target="_top" xlink:title=" ">
<polygon fill="white" stroke="#666666" points="1292.43,-134.5 1213.43,-134.5 1213.43,-115.5 1292.43,-115.5 1292.43,-134.5"/>
<text text-anchor="middle" x="1252.93" y="-122.5" font-family="Helvetica,sans-Serif" font-size="10.00">data_ids.hpp</text>
</a>
</g>
</g>
<!-- Node25&#45;&gt;Node31 -->
<g id="edge48_Node000025_Node000031" class="edge">
<title>Node25&#45;&gt;Node31</title>
<g id="a_edge48_Node000025_Node000031"><a xlink:title=" ">
<path fill="none" stroke="#63b8ff" d="M1018.58,-177.82C1063.4,-169.84 1139.37,-155.61 1203.93,-140 1207.49,-139.14 1211.18,-138.19 1214.87,-137.2"/>
<polygon fill="#63b8ff" stroke="#63b8ff" points="1215.82,-140.57 1224.53,-134.54 1213.96,-133.82 1215.82,-140.57"/>
</a>
</g>
</g>
<!-- Node29&#45;&gt;Node12 -->
<g id="edge44_Node000029_Node000012" class="edge">
<title>Node29&#45;&gt;Node12</title>
<g id="a_edge44_Node000029_Node000012"><a xlink:title=" ">
<path fill="none" stroke="#63b8ff" d="M953.39,-117.28C969.56,-114.87 988.06,-112.2 1004.93,-110 1137.1,-92.78 1294.79,-76.09 1363.3,-69.03"/>
<polygon fill="#63b8ff" stroke="#63b8ff" points="1363.93,-72.48 1373.52,-67.98 1363.21,-65.52 1363.93,-72.48"/>
</a>
</g>
</g>
<!-- Node29&#45;&gt;Node17 -->
<g id="edge47_Node000029_Node000017" class="edge">
<title>Node29&#45;&gt;Node17</title>
<g id="a_edge47_Node000029_Node000017"><a xlink:title=" ">
<path fill="none" stroke="#63b8ff" d="M892.33,-115.49C872.17,-105.75 838.91,-89.66 815.56,-78.38"/>
<polygon fill="#63b8ff" stroke="#63b8ff" points="817.07,-75.22 806.54,-74.02 814.02,-81.52 817.07,-75.22"/>
</a>
</g>
</g>
<!-- Node29&#45;&gt;Node27 -->
<g id="edge45_Node000029_Node000027" class="edge">
<title>Node29&#45;&gt;Node27</title>
<g id="a_edge45_Node000029_Node000027"><a xlink:title=" ">
<path fill="none" stroke="#63b8ff" d="M921.14,-115.37C933.04,-106.21 952.07,-91.56 966.43,-80.51"/>
<polygon fill="#63b8ff" stroke="#63b8ff" points="968.88,-83.04 974.67,-74.17 964.61,-77.49 968.88,-83.04"/>
</a>
</g>
</g>
<!-- Node30 -->
<g id="Node000030" class="node">
<title>Node30</title>
<g id="a_Node000030"><a xlink:href="command__ids_8hpp.html" target="_top" xlink:title=" ">
<polygon fill="white" stroke="#666666" points="943.93,-74 837.93,-74 837.93,-55 943.93,-55 943.93,-74"/>
<text text-anchor="middle" x="890.93" y="-62" font-family="Helvetica,sans-Serif" font-size="10.00">command_ids.hpp</text>
</a>
</g>
</g>
<!-- Node29&#45;&gt;Node30 -->
<g id="edge46_Node000029_Node000030" class="edge">
<title>Node29&#45;&gt;Node30</title>
<g id="a_edge46_Node000029_Node000030"><a xlink:title=" ">
<path fill="none" stroke="#63b8ff" d="M907.12,-115.37C904.43,-107.07 900.27,-94.28 896.84,-83.72"/>
<polygon fill="#63b8ff" stroke="#63b8ff" points="900.16,-82.6 893.74,-74.17 893.5,-84.76 900.16,-82.6"/>
</a>
</g>
</g>
<!-- Node32&#45;&gt;Node3 -->
<g id="edge53_Node000032_Node000003" class="edge">
<title>Node32&#45;&gt;Node3</title>
<g id="a_edge53_Node000032_Node000003"><a xlink:title=" ">
<path fill="none" stroke="#63b8ff" d="M731.65,-237.93C886.33,-232.37 1393.03,-212.95 1463.93,-195 1510.82,-183.12 1560.9,-156.17 1588.82,-139.68"/>
<polygon fill="#63b8ff" stroke="#63b8ff" points="1590.63,-142.68 1597.4,-134.53 1587.03,-136.67 1590.63,-142.68"/>
</a>
</g>
</g>
<!-- Node32&#45;&gt;Node9 -->
<g id="edge55_Node000032_Node000009" class="edge">
<title>Node32&#45;&gt;Node9</title>
<g id="a_edge55_Node000032_Node000009"><a xlink:title=" ">
<path fill="none" stroke="#63b8ff" d="M642.34,-234.42C585.62,-227.54 484.82,-213.91 399.93,-195 314.95,-176.07 264.13,-209.67 211.93,-140 177.67,-94.29 261.92,-76.6 329,-69.78"/>
<polygon fill="#63b8ff" stroke="#63b8ff" points="329.55,-73.24 339.17,-68.81 328.89,-66.27 329.55,-73.24"/>
</a>
</g>
</g>
<!-- Node32&#45;&gt;Node10 -->
<g id="edge56_Node000032_Node000010" class="edge">
<title>Node32&#45;&gt;Node10</title>
<g id="a_edge56_Node000032_Node000010"><a xlink:title=" ">
<path fill="none" stroke="#63b8ff" d="M642.14,-235.35C532.64,-225.16 259.61,-199.38 250.93,-195 204.42,-171.53 174.79,-113.73 162.08,-83.92"/>
<polygon fill="#63b8ff" stroke="#63b8ff" points="165.18,-82.26 158.16,-74.33 158.7,-84.91 165.18,-82.26"/>
</a>
</g>
</g>
<!-- Node32&#45;&gt;Node14 -->
<g id="edge61_Node000032_Node000014" class="edge">
<title>Node32&#45;&gt;Node14</title>
<g id="a_edge61_Node000032_Node000014"><a xlink:title=" ">
<path fill="none" stroke="#63b8ff" d="M642.2,-231.54C604.81,-223.87 555.76,-211.07 543.93,-195 538.92,-188.2 539.71,-183.32 543.93,-176 550.37,-164.8 578.66,-149.61 601.06,-138.92"/>
<polygon fill="#63b8ff" stroke="#63b8ff" points="602.64,-142.05 610.21,-134.64 599.67,-135.71 602.64,-142.05"/>
</a>
</g>
</g>
<!-- Node32&#45;&gt;Node16 -->
<g id="edge54_Node000032_Node000016" class="edge">
<title>Node32&#45;&gt;Node16</title>
<g id="a_edge54_Node000032_Node000016"><a xlink:title=" ">
<path fill="none" stroke="#63b8ff" d="M688.51,-230.63C693.34,-203.52 707.98,-121.32 714.61,-84.13"/>
<polygon fill="#63b8ff" stroke="#63b8ff" points="718.08,-84.6 716.39,-74.14 711.19,-83.37 718.08,-84.6"/>
</a>
</g>
</g>
<!-- Node32&#45;&gt;Node33 -->
<g id="edge57_Node000032_Node000033" class="edge">
<title>Node32&#45;&gt;Node33</title>
<g id="a_edge57_Node000032_Node000033"><a xlink:title=" ">
<path fill="none" stroke="#63b8ff" d="M699.3,-230.98C711.01,-222.92 728.85,-210.65 742.81,-201.03"/>
<polygon fill="#63b8ff" stroke="#63b8ff" points="745.08,-203.72 751.33,-195.17 741.11,-197.96 745.08,-203.72"/>
</a>
</g>
</g>
<!-- Node34 -->
<g id="Node000034" class="node">
<title>Node34</title>
<g id="a_Node000034"><a xlink:href="i__built__in__test_8hpp.html" target="_top" xlink:title=" ">
<polygon fill="white" stroke="#666666" points="658.93,-195 552.93,-195 552.93,-176 658.93,-176 658.93,-195"/>
<text text-anchor="middle" x="605.93" y="-183" font-family="Helvetica,sans-Serif" font-size="10.00">i_built_in_test.hpp</text>
</a>
</g>
</g>
<!-- Node32&#45;&gt;Node34 -->
<g id="edge59_Node000032_Node000034" class="edge">
<title>Node32&#45;&gt;Node34</title>
<g id="a_edge59_Node000032_Node000034"><a xlink:title=" ">
<path fill="none" stroke="#63b8ff" d="M673.91,-230.98C661.47,-222.84 642.47,-210.41 627.72,-200.76"/>
<polygon fill="#63b8ff" stroke="#63b8ff" points="629.46,-197.72 619.18,-195.17 625.63,-203.57 629.46,-197.72"/>
</a>
</g>
</g>
<!-- Node33&#45;&gt;Node16 -->
<g id="edge58_Node000033_Node000016" class="edge">
<title>Node33&#45;&gt;Node16</title>
<g id="a_edge58_Node000033_Node000016"><a xlink:title=" ">
<path fill="none" stroke="#63b8ff" d="M760.62,-175.94C753.19,-156.74 735.07,-109.86 724.99,-83.77"/>
<polygon fill="#63b8ff" stroke="#63b8ff" points="728.2,-82.37 721.33,-74.3 721.67,-84.89 728.2,-82.37"/>
</a>
</g>
</g>
<!-- Node34&#45;&gt;Node14 -->
<g id="edge60_Node000034_Node000014" class="edge">
<title>Node34&#45;&gt;Node14</title>
<g id="a_edge60_Node000034_Node000014"><a xlink:title=" ">
<path fill="none" stroke="#63b8ff" d="M609.47,-175.87C612.87,-167.57 618.12,-154.78 622.45,-144.22"/>
<polygon fill="#63b8ff" stroke="#63b8ff" points="625.81,-145.25 626.37,-134.67 619.34,-142.59 625.81,-145.25"/>
</a>
</g>
</g>
<!-- Node35&#45;&gt;Node12 -->
<g id="edge66_Node000035_Node000012" class="edge">
<title>Node35&#45;&gt;Node12</title>
<g id="a_edge66_Node000035_Node000012"><a xlink:title=" ">
<path fill="none" stroke="#63b8ff" d="M585.44,-234.97C693.97,-225.42 943.09,-203.39 1027.93,-195 1084.75,-189.38 1500.77,-182.49 1538.93,-140 1573.19,-101.84 1484.05,-79.9 1432.14,-70.68"/>
<polygon fill="#63b8ff" stroke="#63b8ff" points="1432.44,-67.18 1422,-68.96 1431.27,-74.09 1432.44,-67.18"/>
</a>
</g>
</g>
<!-- Node36 -->
<g id="Node000036" class="node">
<title>Node36</title>
<g id="a_Node000036"><a xlink:title=" ">
<polygon fill="#e0e0e0" stroke="#999999" points="88.43,-195 41.43,-195 41.43,-176 88.43,-176 88.43,-195"/>
<text text-anchor="middle" x="64.93" y="-183" font-family="Helvetica,sans-Serif" font-size="10.00">deque</text>
</a>
</g>
</g>
<!-- Node35&#45;&gt;Node36 -->
<g id="edge65_Node000035_Node000036" class="edge">
<title>Node35&#45;&gt;Node36</title>
<g id="a_edge65_Node000035_Node000036"><a xlink:title=" ">
<path fill="none" stroke="#63b8ff" d="M482.25,-236.13C401.1,-230.4 238.98,-217.16 102.93,-195 101.47,-194.76 99.98,-194.5 98.48,-194.23"/>
<polygon fill="#63b8ff" stroke="#63b8ff" points="99.05,-190.77 88.56,-192.24 97.67,-197.64 99.05,-190.77"/>
</a>
</g>
</g>
<!-- Node37&#45;&gt;Node3 -->
<g id="edge68_Node000037_Node000003" class="edge">
<title>Node37&#45;&gt;Node3</title>
<g id="a_edge68_Node000037_Node000003"><a xlink:title=" ">
<path fill="none" stroke="#63b8ff" d="M1170.07,-238.37C1262.92,-235.41 1475.15,-225.42 1539.93,-195 1564.87,-183.29 1586.41,-159.18 1599.04,-142.8"/>
<polygon fill="#63b8ff" stroke="#63b8ff" points="1601.95,-144.74 1605.1,-134.63 1596.33,-140.58 1601.95,-144.74"/>
</a>
</g>
</g>
</g>
</svg>
