<?xml version="1.0" encoding="UTF-8" standalone="no"?>
<!DOCTYPE svg PUBLIC "-//W3C//DTD SVG 1.1//EN"
 "http://www.w3.org/Graphics/SVG/1.1/DTD/svg11.dtd">
<!-- Generated by graphviz version 2.43.0 (0)
 -->
<!-- Title: positional.hpp Pages: 1 -->
<svg width="2152pt" height="532pt"
 viewBox="0.00 0.00 2151.50 532.00" xmlns="http://www.w3.org/2000/svg" xmlns:xlink="http://www.w3.org/1999/xlink">
<g id="graph0" class="graph" transform="scale(1 1) rotate(0) translate(4 528)">
<title>positional.hpp</title>
<!-- Node1 -->
<g id="node1" class="node">
<title>Node1</title>
<g id="a_node1"><a xlink:title="Positional data for the flight system (gps/imu data)">
<polygon fill="#bfbfbf" stroke="black" points="1743,-504.5 1743,-523.5 1829,-523.5 1829,-504.5 1743,-504.5"/>
<text text-anchor="middle" x="1786" y="-511.5" font-family="Helvetica,sans-Serif" font-size="10.00">positional.hpp</text>
</a>
</g>
</g>
<!-- Node2 -->
<g id="node2" class="node">
<title>Node2</title>
<g id="a_node2"><a xlink:href="samm8q_8hpp.html" target="_top" xlink:title="SAM&#45;M8Q GPS extension (I2C).">
<polygon fill="none" stroke="black" points="0,-112.5 0,-131.5 80,-131.5 80,-112.5 0,-112.5"/>
<text text-anchor="middle" x="40" y="-119.5" font-family="Helvetica,sans-Serif" font-size="10.00">samm8q.hpp</text>
</a>
</g>
</g>
<!-- Node1&#45;&gt;Node2 -->
<g id="edge1" class="edge">
<title>Node1&#45;&gt;Node2</title>
<path fill="none" stroke="midnightblue" d="M1732.54,-511.93C1465.28,-506.26 287,-477.03 287,-403 287,-403 287,-403 287,-233 287,-187.76 146.97,-148.29 77.78,-131.54"/>
<polygon fill="midnightblue" stroke="midnightblue" points="1732.68,-515.44 1742.75,-512.15 1732.83,-508.44 1732.68,-515.44"/>
</g>
<!-- Node5 -->
<g id="node5" class="node">
<title>Node5</title>
<g id="a_node5"><a xlink:href="positional_8cpp.html" target="_top" xlink:title="Positional data for the flight system (gps/imu data) handling.">
<polygon fill="none" stroke="black" points="2058.5,-448.5 2058.5,-467.5 2143.5,-467.5 2143.5,-448.5 2058.5,-448.5"/>
<text text-anchor="middle" x="2101" y="-455.5" font-family="Helvetica,sans-Serif" font-size="10.00">positional.cpp</text>
</a>
</g>
</g>
<!-- Node1&#45;&gt;Node5 -->
<g id="edge4" class="edge">
<title>Node1&#45;&gt;Node5</title>
<path fill="none" stroke="midnightblue" d="M1839.07,-503.9C1900.81,-493.32 2001.51,-476.06 2058.38,-466.31"/>
<polygon fill="midnightblue" stroke="midnightblue" points="1838.4,-500.47 1829.14,-505.6 1839.59,-507.36 1838.4,-500.47"/>
</g>
<!-- Node6 -->
<g id="node6" class="node">
<title>Node6</title>
<g id="a_node6"><a xlink:href="to__json_8hpp.html" target="_top" xlink:title="Utility functions for converting data to JSON.">
<polygon fill="none" stroke="black" points="1942.5,-280.5 1942.5,-299.5 2015.5,-299.5 2015.5,-280.5 1942.5,-280.5"/>
<text text-anchor="middle" x="1979" y="-287.5" font-family="Helvetica,sans-Serif" font-size="10.00">to_json.hpp</text>
</a>
</g>
</g>
<!-- Node1&#45;&gt;Node6 -->
<g id="edge5" class="edge">
<title>Node1&#45;&gt;Node6</title>
<path fill="none" stroke="midnightblue" d="M1800.3,-496.56C1838.52,-452.59 1942.13,-333.41 1971.28,-299.88"/>
<polygon fill="midnightblue" stroke="midnightblue" points="1797.49,-494.45 1793.57,-504.3 1802.77,-499.05 1797.49,-494.45"/>
</g>
<!-- Node8 -->
<g id="node8" class="node">
<title>Node8</title>
<g id="a_node8"><a xlink:href="blocks_8hpp.html" target="_top" xlink:title=" ">
<polygon fill="none" stroke="black" points="1751.5,-392.5 1751.5,-411.5 1820.5,-411.5 1820.5,-392.5 1751.5,-392.5"/>
<text text-anchor="middle" x="1786" y="-399.5" font-family="Helvetica,sans-Serif" font-size="10.00">blocks.hpp</text>
</a>
</g>
</g>
<!-- Node1&#45;&gt;Node8 -->
<g id="edge7" class="edge">
<title>Node1&#45;&gt;Node8</title>
<path fill="none" stroke="midnightblue" d="M1786,-494.35C1786,-470.25 1786,-429.31 1786,-411.59"/>
<polygon fill="midnightblue" stroke="midnightblue" points="1782.5,-494.37 1786,-504.37 1789.5,-494.37 1782.5,-494.37"/>
</g>
<!-- Node56 -->
<g id="node45" class="node">
<title>Node56</title>
<g id="a_node45"><a xlink:href="streams_8hpp.html" target="_top" xlink:title="The header file for the data streams.">
<polygon fill="none" stroke="black" points="1181.5,-448.5 1181.5,-467.5 1258.5,-467.5 1258.5,-448.5 1181.5,-448.5"/>
<text text-anchor="middle" x="1220" y="-455.5" font-family="Helvetica,sans-Serif" font-size="10.00">streams.hpp</text>
</a>
</g>
</g>
<!-- Node1&#45;&gt;Node56 -->
<g id="edge68" class="edge">
<title>Node1&#45;&gt;Node56</title>
<path fill="none" stroke="midnightblue" d="M1732.85,-507.93C1619.8,-497.14 1357.74,-472.14 1258.78,-462.7"/>
<polygon fill="midnightblue" stroke="midnightblue" points="1732.71,-511.43 1742.99,-508.9 1733.37,-504.46 1732.71,-511.43"/>
</g>
<!-- Node3 -->
<g id="node3" class="node">
<title>Node3</title>
<g id="a_node3"><a xlink:href="samm8q_8cpp.html" target="_top" xlink:title="The SAM&#45;M8Q GPS extension (I2C).">
<polygon fill="none" stroke="black" points="0,-56.5 0,-75.5 80,-75.5 80,-56.5 0,-56.5"/>
<text text-anchor="middle" x="40" y="-63.5" font-family="Helvetica,sans-Serif" font-size="10.00">samm8q.cpp</text>
</a>
</g>
</g>
<!-- Node2&#45;&gt;Node3 -->
<g id="edge2" class="edge">
<title>Node2&#45;&gt;Node3</title>
<path fill="none" stroke="midnightblue" d="M40,-101.8C40,-92.91 40,-82.78 40,-75.75"/>
<polygon fill="midnightblue" stroke="midnightblue" points="36.5,-102.08 40,-112.08 43.5,-102.08 36.5,-102.08"/>
</g>
<!-- Node4 -->
<g id="node4" class="node">
<title>Node4</title>
<g id="a_node4"><a xlink:href="extension__module_8cpp.html" target="_top" xlink:title="The implementation of the new extension module.">
<polygon fill="none" stroke="black" points="524.5,-56.5 524.5,-75.5 651.5,-75.5 651.5,-56.5 524.5,-56.5"/>
<text text-anchor="middle" x="588" y="-63.5" font-family="Helvetica,sans-Serif" font-size="10.00">extension_module.cpp</text>
</a>
</g>
</g>
<!-- Node2&#45;&gt;Node4 -->
<g id="edge3" class="edge">
<title>Node2&#45;&gt;Node4</title>
<path fill="none" stroke="midnightblue" d="M90.22,-111.95C252.31,-90.16 431.29,-76.93 524.38,-70.86"/>
<polygon fill="midnightblue" stroke="midnightblue" points="89.5,-108.52 80.06,-113.33 90.44,-115.45 89.5,-108.52"/>
</g>
<!-- Node7 -->
<g id="node7" class="node">
<title>Node7</title>
<g id="a_node7"><a xlink:href="influxdb_8cpp.html" target="_top" xlink:title=" ">
<polygon fill="none" stroke="black" points="1922,-224.5 1922,-243.5 1998,-243.5 1998,-224.5 1922,-224.5"/>
<text text-anchor="middle" x="1960" y="-231.5" font-family="Helvetica,sans-Serif" font-size="10.00">influxdb.cpp</text>
</a>
</g>
</g>
<!-- Node6&#45;&gt;Node7 -->
<g id="edge6" class="edge">
<title>Node6&#45;&gt;Node7</title>
<path fill="none" stroke="midnightblue" d="M1972.45,-270.4C1969.28,-261.36 1965.61,-250.94 1963.08,-243.75"/>
<polygon fill="midnightblue" stroke="midnightblue" points="1969.24,-271.81 1975.86,-280.08 1975.85,-269.49 1969.24,-271.81"/>
</g>
<!-- Node8&#45;&gt;Node7 -->
<g id="edge8" class="edge">
<title>Node8&#45;&gt;Node7</title>
<path fill="none" stroke="midnightblue" d="M1830.83,-396.61C1887.18,-388.43 1981.76,-365.21 2025,-300 2040.35,-276.86 2004.8,-255.15 1980.46,-243.61"/>
<polygon fill="midnightblue" stroke="midnightblue" points="1830.21,-393.17 1820.77,-397.97 1831.15,-400.1 1830.21,-393.17"/>
</g>
<!-- Node8&#45;&gt;Node8 -->
<g id="edge9" class="edge">
<title>Node8&#45;&gt;Node8</title>
<path fill="none" stroke="midnightblue" d="M1818.51,-412.5C1829.59,-412.56 1838.5,-409.06 1838.5,-402 1838.5,-392.87 1823.61,-389.69 1808.39,-392.47"/>
<polygon fill="midnightblue" stroke="midnightblue" points="1818.68,-409 1808.39,-411.53 1818.01,-415.97 1818.68,-409"/>
</g>
<!-- Node9 -->
<g id="node9" class="node">
<title>Node9</title>
<g id="a_node9"><a xlink:href="shared__data_8hpp.html" target="_top" xlink:title="Contains the SharedData struct, used across all modules and extensions.">
<polygon fill="none" stroke="black" points="1133,-336.5 1133,-355.5 1231,-355.5 1231,-336.5 1133,-336.5"/>
<text text-anchor="middle" x="1182" y="-343.5" font-family="Helvetica,sans-Serif" font-size="10.00">shared_data.hpp</text>
</a>
</g>
</g>
<!-- Node8&#45;&gt;Node9 -->
<g id="edge10" class="edge">
<title>Node8&#45;&gt;Node9</title>
<path fill="none" stroke="midnightblue" d="M1741.23,-397C1630.79,-387.12 1346.03,-361.66 1231.14,-351.39"/>
<polygon fill="midnightblue" stroke="midnightblue" points="1741.08,-400.5 1751.36,-397.9 1741.71,-393.53 1741.08,-400.5"/>
</g>
<!-- Node10 -->
<g id="node10" class="node">
<title>Node10</title>
<g id="a_node10"><a xlink:href="cfg__section_8hpp.html" target="_top" xlink:title="This file contains the base class for all configuration sections.">
<polygon fill="none" stroke="black" points="690.5,-280.5 690.5,-299.5 783.5,-299.5 783.5,-280.5 690.5,-280.5"/>
<text text-anchor="middle" x="737" y="-287.5" font-family="Helvetica,sans-Serif" font-size="10.00">cfg_section.hpp</text>
</a>
</g>
</g>
<!-- Node9&#45;&gt;Node10 -->
<g id="edge11" class="edge">
<title>Node9&#45;&gt;Node10</title>
<path fill="none" stroke="midnightblue" d="M1122.65,-335.87C981.74,-317.11 944.47,-316.64 807,-300 799.46,-299.09 791.46,-298.09 783.68,-297.1"/>
<polygon fill="midnightblue" stroke="midnightblue" points="1122.6,-339.39 1132.97,-337.25 1123.53,-332.45 1122.6,-339.39"/>
</g>
<!-- Node13 -->
<g id="node13" class="node">
<title>Node13</title>
<g id="a_node13"><a xlink:href="extension__base_8hpp.html" target="_top" xlink:title="The new implementation of the extension system.">
<polygon fill="none" stroke="black" points="672,-168.5 672,-187.5 786,-187.5 786,-168.5 672,-168.5"/>
<text text-anchor="middle" x="729" y="-175.5" font-family="Helvetica,sans-Serif" font-size="10.00">extension_base.hpp</text>
</a>
</g>
</g>
<!-- Node9&#45;&gt;Node13 -->
<g id="edge32" class="edge">
<title>Node9&#45;&gt;Node13</title>
<path fill="none" stroke="midnightblue" d="M1122.88,-335.75C1046.67,-323.72 922.72,-303.81 913,-300 894.09,-292.58 779.79,-214.11 741.49,-187.65"/>
<polygon fill="midnightblue" stroke="midnightblue" points="1122.42,-339.22 1132.84,-337.32 1123.51,-332.3 1122.42,-339.22"/>
</g>
<!-- Node27 -->
<g id="node22" class="node">
<title>Node27</title>
<g id="a_node22"><a xlink:href="flight__runner_8hpp.html" target="_top" xlink:title=" ">
<polygon fill="none" stroke="black" points="1215,-56.5 1215,-75.5 1313,-75.5 1313,-56.5 1215,-56.5"/>
<text text-anchor="middle" x="1264" y="-63.5" font-family="Helvetica,sans-Serif" font-size="10.00">flight_runner.hpp</text>
</a>
</g>
</g>
<!-- Node9&#45;&gt;Node27 -->
<g id="edge33" class="edge">
<title>Node9&#45;&gt;Node27</title>
<path fill="none" stroke="midnightblue" d="M1163.61,-329.59C1147.39,-316.16 1122.98,-296.33 1101,-280 1072.01,-258.46 983.83,-219.96 967,-188 962.86,-180.13 961.29,-174.81 967,-168 1025.55,-98.09 1084.59,-166.52 1169,-132 1178.02,-128.31 1228.42,-92.53 1251.92,-75.68"/>
<polygon fill="midnightblue" stroke="midnightblue" points="1161.78,-332.63 1171.71,-336.33 1166.26,-327.25 1161.78,-332.63"/>
</g>
<!-- Node31 -->
<g id="node25" class="node">
<title>Node31</title>
<g id="a_node25"><a xlink:href="console__pages_8hpp.html" target="_top" xlink:title=" ">
<polygon fill="none" stroke="black" points="1265,-280.5 1265,-299.5 1375,-299.5 1375,-280.5 1265,-280.5"/>
<text text-anchor="middle" x="1320" y="-287.5" font-family="Helvetica,sans-Serif" font-size="10.00">console_pages.hpp</text>
</a>
</g>
</g>
<!-- Node9&#45;&gt;Node31 -->
<g id="edge34" class="edge">
<title>Node9&#45;&gt;Node31</title>
<path fill="none" stroke="midnightblue" d="M1213.25,-332.77C1239.17,-322.63 1275.36,-308.47 1298.24,-299.52"/>
<polygon fill="midnightblue" stroke="midnightblue" points="1211.9,-329.54 1203.87,-336.44 1214.45,-336.06 1211.9,-329.54"/>
</g>
<!-- Node37 -->
<g id="node29" class="node">
<title>Node37</title>
<g id="a_node29"><a xlink:href="data__formatting_8hpp.html" target="_top" xlink:title="This file contains the DataFormatter class, which is used to format data for the data and log files.">
<polygon fill="none" stroke="black" points="1500,-280.5 1500,-299.5 1616,-299.5 1616,-280.5 1500,-280.5"/>
<text text-anchor="middle" x="1558" y="-287.5" font-family="Helvetica,sans-Serif" font-size="10.00">data_formatting.hpp</text>
</a>
</g>
</g>
<!-- Node9&#45;&gt;Node37 -->
<g id="edge40" class="edge">
<title>Node9&#45;&gt;Node37</title>
<path fill="none" stroke="midnightblue" d="M1241.25,-336.49C1312.01,-326.33 1429.62,-309.44 1499.88,-299.35"/>
<polygon fill="midnightblue" stroke="midnightblue" points="1240.56,-333.05 1231.16,-337.94 1241.55,-339.98 1240.56,-333.05"/>
</g>
<!-- Node39 -->
<g id="node31" class="node">
<title>Node39</title>
<g id="a_node31"><a xlink:href="data__log_8hpp.html" target="_top" xlink:title="The data log is responsible for writing data to files and managing the file system.">
<polygon fill="none" stroke="black" points="1532,-224.5 1532,-243.5 1612,-243.5 1612,-224.5 1532,-224.5"/>
<text text-anchor="middle" x="1572" y="-231.5" font-family="Helvetica,sans-Serif" font-size="10.00">data_log.hpp</text>
</a>
</g>
</g>
<!-- Node9&#45;&gt;Node39 -->
<g id="edge47" class="edge">
<title>Node9&#45;&gt;Node39</title>
<path fill="none" stroke="midnightblue" d="M1237.32,-334.44C1278.16,-326.22 1334.92,-313.9 1384,-300 1444.97,-282.73 1515.13,-256.82 1549.98,-243.53"/>
<polygon fill="midnightblue" stroke="midnightblue" points="1236.42,-331.05 1227.3,-336.44 1237.79,-337.92 1236.42,-331.05"/>
</g>
<!-- Node43 -->
<g id="node35" class="node">
<title>Node43</title>
<g id="a_node35"><a xlink:href="influxdb_8hpp.html" target="_top" xlink:title=" ">
<polygon fill="none" stroke="black" points="1672.5,-280.5 1672.5,-299.5 1749.5,-299.5 1749.5,-280.5 1672.5,-280.5"/>
<text text-anchor="middle" x="1711" y="-287.5" font-family="Helvetica,sans-Serif" font-size="10.00">influxdb.hpp</text>
</a>
</g>
</g>
<!-- Node9&#45;&gt;Node43 -->
<g id="edge48" class="edge">
<title>Node9&#45;&gt;Node43</title>
<path fill="none" stroke="midnightblue" d="M1241.14,-339.05C1326.09,-330.49 1487.56,-314.17 1625,-300 1640.53,-298.4 1657.64,-296.61 1672.47,-295.06"/>
<polygon fill="midnightblue" stroke="midnightblue" points="1240.77,-335.57 1231.17,-340.05 1241.47,-342.53 1240.77,-335.57"/>
</g>
<!-- Node44 -->
<g id="node36" class="node">
<title>Node44</title>
<g id="a_node36"><a xlink:href="module_8hpp.html" target="_top" xlink:title="The header file for the base module class.">
<polygon fill="none" stroke="black" points="1145,-224.5 1145,-243.5 1219,-243.5 1219,-224.5 1145,-224.5"/>
<text text-anchor="middle" x="1182" y="-231.5" font-family="Helvetica,sans-Serif" font-size="10.00">module.hpp</text>
</a>
</g>
</g>
<!-- Node9&#45;&gt;Node44 -->
<g id="edge51" class="edge">
<title>Node9&#45;&gt;Node44</title>
<path fill="none" stroke="midnightblue" d="M1182,-326.35C1182,-302.25 1182,-261.31 1182,-243.59"/>
<polygon fill="midnightblue" stroke="midnightblue" points="1178.5,-326.37 1182,-336.37 1185.5,-326.37 1178.5,-326.37"/>
</g>
<!-- Node52 -->
<g id="node41" class="node">
<title>Node52</title>
<g id="a_node41"><a xlink:href="request__handler_8hpp.html" target="_top" xlink:title="The request handler class header.">
<polygon fill="none" stroke="black" points="872,-224.5 872,-243.5 988,-243.5 988,-224.5 872,-224.5"/>
<text text-anchor="middle" x="930" y="-231.5" font-family="Helvetica,sans-Serif" font-size="10.00">request_handler.hpp</text>
</a>
</g>
</g>
<!-- Node9&#45;&gt;Node52 -->
<g id="edge62" class="edge">
<title>Node9&#45;&gt;Node52</title>
<path fill="none" stroke="midnightblue" d="M1122.69,-335.58C1047.79,-323.54 928.2,-303.8 925,-300 911.6,-284.05 920.05,-257.45 925.86,-243.75"/>
<polygon fill="midnightblue" stroke="midnightblue" points="1122.51,-339.09 1132.94,-337.22 1123.62,-332.18 1122.51,-339.09"/>
</g>
<!-- Node54 -->
<g id="node43" class="node">
<title>Node54</title>
<g id="a_node43"><a xlink:href="logger_8hpp.html" target="_top" xlink:title="A simple logger class so difference classes have access to the same logger.">
<polygon fill="none" stroke="black" points="1024,-280.5 1024,-299.5 1092,-299.5 1092,-280.5 1024,-280.5"/>
<text text-anchor="middle" x="1058" y="-287.5" font-family="Helvetica,sans-Serif" font-size="10.00">logger.hpp</text>
</a>
</g>
</g>
<!-- Node9&#45;&gt;Node54 -->
<g id="edge65" class="edge">
<title>Node9&#45;&gt;Node54</title>
<path fill="none" stroke="midnightblue" d="M1152.99,-332.37C1129.77,-322.26 1097.84,-308.35 1077.56,-299.52"/>
<polygon fill="midnightblue" stroke="midnightblue" points="1151.79,-335.66 1162.35,-336.44 1154.58,-329.24 1151.79,-335.66"/>
</g>
<!-- Node55 -->
<g id="node44" class="node">
<title>Node55</title>
<g id="a_node44"><a xlink:href="to__json_8cpp.html" target="_top" xlink:title=" ">
<polygon fill="none" stroke="black" points="934,-280.5 934,-299.5 1006,-299.5 1006,-280.5 934,-280.5"/>
<text text-anchor="middle" x="970" y="-287.5" font-family="Helvetica,sans-Serif" font-size="10.00">to_json.cpp</text>
</a>
</g>
</g>
<!-- Node9&#45;&gt;Node55 -->
<g id="edge67" class="edge">
<title>Node9&#45;&gt;Node55</title>
<path fill="none" stroke="midnightblue" d="M1138.65,-333.96C1098.61,-323.76 1039.97,-308.82 1003.43,-299.52"/>
<polygon fill="midnightblue" stroke="midnightblue" points="1137.85,-337.37 1148.41,-336.44 1139.58,-330.58 1137.85,-337.37"/>
</g>
<!-- Node11 -->
<g id="node11" class="node">
<title>Node11</title>
<g id="a_node11"><a xlink:href="cfg__extensions_8hpp.html" target="_top" xlink:title="The header file for the extensions section of the configuration.">
<polygon fill="none" stroke="red" points="673.5,-224.5 673.5,-243.5 784.5,-243.5 784.5,-224.5 673.5,-224.5"/>
<text text-anchor="middle" x="729" y="-231.5" font-family="Helvetica,sans-Serif" font-size="10.00">cfg_extensions.hpp</text>
</a>
</g>
</g>
<!-- Node10&#45;&gt;Node11 -->
<g id="edge12" class="edge">
<title>Node10&#45;&gt;Node11</title>
<path fill="none" stroke="midnightblue" d="M734.2,-270.1C732.87,-261.14 731.35,-250.86 730.3,-243.75"/>
<polygon fill="midnightblue" stroke="midnightblue" points="730.75,-270.7 735.68,-280.08 737.68,-269.68 730.75,-270.7"/>
</g>
<!-- Node12 -->
<g id="node12" class="node">
<title>Node12</title>
<g id="a_node12"><a xlink:href="cfg__extensions_8cpp.html" target="_top" xlink:title="Implements the extensions section of the configuration.">
<polygon fill="none" stroke="black" points="544,-168.5 544,-187.5 654,-187.5 654,-168.5 544,-168.5"/>
<text text-anchor="middle" x="599" y="-175.5" font-family="Helvetica,sans-Serif" font-size="10.00">cfg_extensions.cpp</text>
</a>
</g>
</g>
<!-- Node11&#45;&gt;Node12 -->
<g id="edge13" class="edge">
<title>Node11&#45;&gt;Node12</title>
<path fill="none" stroke="midnightblue" d="M698.91,-220.5C674.54,-210.38 640.86,-196.39 619.5,-187.52"/>
<polygon fill="midnightblue" stroke="midnightblue" points="697.82,-223.84 708.4,-224.44 700.51,-217.38 697.82,-223.84"/>
</g>
<!-- Node11&#45;&gt;Node13 -->
<g id="edge14" class="edge">
<title>Node11&#45;&gt;Node13</title>
<path fill="none" stroke="midnightblue" d="M729,-213.8C729,-204.91 729,-194.78 729,-187.75"/>
<polygon fill="midnightblue" stroke="midnightblue" points="725.5,-214.08 729,-224.08 732.5,-214.08 725.5,-214.08"/>
</g>
<!-- Node13&#45;&gt;Node2 -->
<g id="edge24" class="edge">
<title>Node13&#45;&gt;Node2</title>
<path fill="none" stroke="midnightblue" d="M661.49,-167.93C406.87,-143.24 339.36,-162.73 89,-132 86.08,-131.64 83.07,-131.22 80.05,-130.76"/>
<polygon fill="midnightblue" stroke="midnightblue" points="661.5,-171.44 671.79,-168.94 662.18,-164.48 661.5,-171.44"/>
</g>
<!-- Node14 -->
<g id="node14" class="node">
<title>Node14</title>
<g id="a_node14"><a xlink:href="adc__extension__base_8hpp.html" target="_top" xlink:title="Generic ADC Extension Wrapper.">
<polygon fill="none" stroke="red" points="388.5,-112.5 388.5,-131.5 525.5,-131.5 525.5,-112.5 388.5,-112.5"/>
<text text-anchor="middle" x="457" y="-119.5" font-family="Helvetica,sans-Serif" font-size="10.00">adc_extension_base.hpp</text>
</a>
</g>
</g>
<!-- Node13&#45;&gt;Node14 -->
<g id="edge15" class="edge">
<title>Node13&#45;&gt;Node14</title>
<path fill="none" stroke="midnightblue" d="M675.98,-166.47C624.57,-156.27 547.56,-140.98 499.9,-131.52"/>
<polygon fill="midnightblue" stroke="midnightblue" points="675.41,-169.93 685.9,-168.44 676.77,-163.06 675.41,-169.93"/>
</g>
<!-- Node17 -->
<g id="node15" class="node">
<title>Node17</title>
<g id="a_node15"><a xlink:href="bme280_8hpp.html" target="_top" xlink:title="The BME280 sensor extension.">
<polygon fill="none" stroke="red" points="839.5,-112.5 839.5,-131.5 916.5,-131.5 916.5,-112.5 839.5,-112.5"/>
<text text-anchor="middle" x="878" y="-119.5" font-family="Helvetica,sans-Serif" font-size="10.00">bme280.hpp</text>
</a>
</g>
</g>
<!-- Node13&#45;&gt;Node17 -->
<g id="edge16" class="edge">
<title>Node13&#45;&gt;Node17</title>
<path fill="none" stroke="midnightblue" d="M762.37,-164.91C790.38,-154.75 829.7,-140.51 854.5,-131.52"/>
<polygon fill="midnightblue" stroke="midnightblue" points="760.82,-161.75 752.61,-168.44 763.2,-168.33 760.82,-161.75"/>
</g>
<!-- Node19 -->
<g id="node16" class="node">
<title>Node19</title>
<g id="a_node16"><a xlink:href="ds18b20_8hpp.html" target="_top" xlink:title="DS18B20 extension header file.">
<polygon fill="none" stroke="red" points="934.5,-112.5 934.5,-131.5 1013.5,-131.5 1013.5,-112.5 934.5,-112.5"/>
<text text-anchor="middle" x="974" y="-119.5" font-family="Helvetica,sans-Serif" font-size="10.00">ds18b20.hpp</text>
</a>
</g>
</g>
<!-- Node13&#45;&gt;Node19 -->
<g id="edge18" class="edge">
<title>Node13&#45;&gt;Node19</title>
<path fill="none" stroke="midnightblue" d="M777.63,-166.28C823.93,-156.08 892.69,-140.92 935.36,-131.52"/>
<polygon fill="midnightblue" stroke="midnightblue" points="776.83,-162.87 767.82,-168.44 778.34,-169.71 776.83,-162.87"/>
</g>
<!-- Node21 -->
<g id="node17" class="node">
<title>Node21</title>
<g id="a_node17"><a xlink:href="extension__base_8cpp.html" target="_top" xlink:title="The new implementation of the extension system.">
<polygon fill="none" stroke="black" points="543.5,-112.5 543.5,-131.5 656.5,-131.5 656.5,-112.5 543.5,-112.5"/>
<text text-anchor="middle" x="600" y="-119.5" font-family="Helvetica,sans-Serif" font-size="10.00">extension_base.cpp</text>
</a>
</g>
</g>
<!-- Node13&#45;&gt;Node21 -->
<g id="edge20" class="edge">
<title>Node13&#45;&gt;Node21</title>
<path fill="none" stroke="midnightblue" d="M699.15,-164.5C674.96,-154.38 641.54,-140.39 620.34,-131.52"/>
<polygon fill="midnightblue" stroke="midnightblue" points="697.98,-167.81 708.56,-168.44 700.69,-161.35 697.98,-167.81"/>
</g>
<!-- Node22 -->
<g id="node18" class="node">
<title>Node22</title>
<g id="a_node18"><a xlink:href="i2c__extension__adapter_8hpp.html" target="_top" xlink:title="Adapter for I2C Extensions.">
<polygon fill="none" stroke="red" points="674.5,-112.5 674.5,-131.5 821.5,-131.5 821.5,-112.5 674.5,-112.5"/>
<text text-anchor="middle" x="748" y="-119.5" font-family="Helvetica,sans-Serif" font-size="10.00">i2c_extension_adapter.hpp</text>
</a>
</g>
</g>
<!-- Node13&#45;&gt;Node22 -->
<g id="edge21" class="edge">
<title>Node13&#45;&gt;Node22</title>
<path fill="none" stroke="midnightblue" d="M735.55,-158.4C738.72,-149.36 742.39,-138.94 744.92,-131.75"/>
<polygon fill="midnightblue" stroke="midnightblue" points="732.15,-157.49 732.14,-168.08 738.76,-159.81 732.15,-157.49"/>
</g>
<!-- Node23 -->
<g id="node19" class="node">
<title>Node23</title>
<g id="a_node19"><a xlink:href="rgb__status__led_8hpp.html" target="_top" xlink:title=" ">
<polygon fill="none" stroke="red" points="98.5,-112.5 98.5,-131.5 207.5,-131.5 207.5,-112.5 98.5,-112.5"/>
<text text-anchor="middle" x="153" y="-119.5" font-family="Helvetica,sans-Serif" font-size="10.00">rgb_status_led.hpp</text>
</a>
</g>
</g>
<!-- Node13&#45;&gt;Node23 -->
<g id="edge22" class="edge">
<title>Node13&#45;&gt;Node23</title>
<path fill="none" stroke="midnightblue" d="M661.61,-167.91C463.12,-146.77 410.79,-153.74 216,-132 213.25,-131.69 210.45,-131.36 207.61,-131.01"/>
<polygon fill="midnightblue" stroke="midnightblue" points="661.47,-171.41 671.79,-169 662.22,-164.45 661.47,-171.41"/>
</g>
<!-- Node25 -->
<g id="node20" class="node">
<title>Node25</title>
<g id="a_node20"><a xlink:href="simulated__extensions_8hpp.html" target="_top" xlink:title="This contains the simulated extensions for testing the flight system.">
<polygon fill="none" stroke="black" points="225.5,-112.5 225.5,-131.5 370.5,-131.5 370.5,-112.5 225.5,-112.5"/>
<text text-anchor="middle" x="298" y="-119.5" font-family="Helvetica,sans-Serif" font-size="10.00">simulated_extensions.hpp</text>
</a>
</g>
</g>
<!-- Node13&#45;&gt;Node25 -->
<g id="edge25" class="edge">
<title>Node13&#45;&gt;Node25</title>
<path fill="none" stroke="midnightblue" d="M661.7,-167.84C553.95,-153.9 440.75,-140.11 369.37,-131.52"/>
<polygon fill="midnightblue" stroke="midnightblue" points="661.4,-171.33 671.77,-169.15 662.3,-164.39 661.4,-171.33"/>
</g>
<!-- Node26 -->
<g id="node21" class="node">
<title>Node26</title>
<g id="a_node21"><a xlink:href="extension__module_8hpp.html" target="_top" xlink:title="This is the header file for the new extension module.">
<polygon fill="none" stroke="black" points="1032,-112.5 1032,-131.5 1160,-131.5 1160,-112.5 1032,-112.5"/>
<text text-anchor="middle" x="1096" y="-119.5" font-family="Helvetica,sans-Serif" font-size="10.00">extension_module.hpp</text>
</a>
</g>
</g>
<!-- Node13&#45;&gt;Node26 -->
<g id="edge27" class="edge">
<title>Node13&#45;&gt;Node26</title>
<path fill="none" stroke="midnightblue" d="M796.29,-167.1C865.6,-156.9 972.51,-141.17 1038.15,-131.51"/>
<polygon fill="midnightblue" stroke="midnightblue" points="795.73,-163.64 786.34,-168.56 796.75,-170.57 795.73,-163.64"/>
</g>
<!-- Node17&#45;&gt;Node4 -->
<g id="edge17" class="edge">
<title>Node17&#45;&gt;Node4</title>
<path fill="none" stroke="midnightblue" d="M829.39,-111.7C755.95,-97.89 681.43,-84.15 634.6,-75.54"/>
<polygon fill="midnightblue" stroke="midnightblue" points="828.8,-115.15 839.27,-113.57 830.1,-108.28 828.8,-115.15"/>
</g>
<!-- Node19&#45;&gt;Node4 -->
<g id="edge19" class="edge">
<title>Node19&#45;&gt;Node4</title>
<path fill="none" stroke="midnightblue" d="M924.42,-111.81C823.61,-95.84 717.55,-82.4 651.69,-74.46"/>
<polygon fill="midnightblue" stroke="midnightblue" points="924.05,-115.3 934.48,-113.42 925.15,-108.38 924.05,-115.3"/>
</g>
<!-- Node23&#45;&gt;Node4 -->
<g id="edge23" class="edge">
<title>Node23&#45;&gt;Node4</title>
<path fill="none" stroke="midnightblue" d="M217.55,-111.82C331.29,-96.89 452.42,-82.6 524.43,-74.27"/>
<polygon fill="midnightblue" stroke="midnightblue" points="217.08,-108.35 207.63,-113.12 218,-115.29 217.08,-108.35"/>
</g>
<!-- Node25&#45;&gt;Node4 -->
<g id="edge26" class="edge">
<title>Node25&#45;&gt;Node4</title>
<path fill="none" stroke="midnightblue" d="M353.85,-110.6C408.65,-100.4 491.23,-85.02 542.26,-75.52"/>
<polygon fill="midnightblue" stroke="midnightblue" points="353.14,-107.17 343.95,-112.44 354.42,-114.05 353.14,-107.17"/>
</g>
<!-- Node26&#45;&gt;Node4 -->
<g id="edge31" class="edge">
<title>Node26&#45;&gt;Node4</title>
<path fill="none" stroke="midnightblue" d="M1021.58,-111.86C883.66,-96.3 734.55,-81.34 651.8,-73.21"/>
<polygon fill="midnightblue" stroke="midnightblue" points="1021.58,-115.38 1031.91,-113.03 1022.37,-108.42 1021.58,-115.38"/>
</g>
<!-- Node26&#45;&gt;Node27 -->
<g id="edge28" class="edge">
<title>Node26&#45;&gt;Node27</title>
<path fill="none" stroke="midnightblue" d="M1132.39,-109.3C1164.04,-99.13 1209.17,-84.62 1237.5,-75.52"/>
<polygon fill="midnightblue" stroke="midnightblue" points="1131.07,-106.05 1122.62,-112.44 1133.21,-112.72 1131.07,-106.05"/>
</g>
<!-- Node28 -->
<g id="node23" class="node">
<title>Node28</title>
<g id="a_node23"><a xlink:href="flight__runner_8cpp.html" target="_top" xlink:title="The implementation of the flight runner, where everything comes together.">
<polygon fill="none" stroke="black" points="1166,-0.5 1166,-19.5 1264,-19.5 1264,-0.5 1166,-0.5"/>
<text text-anchor="middle" x="1215" y="-7.5" font-family="Helvetica,sans-Serif" font-size="10.00">flight_runner.cpp</text>
</a>
</g>
</g>
<!-- Node27&#45;&gt;Node28 -->
<g id="edge29" class="edge">
<title>Node27&#45;&gt;Node28</title>
<path fill="none" stroke="midnightblue" d="M1248.97,-48.43C1240.38,-38.97 1229.96,-27.48 1222.94,-19.75"/>
<polygon fill="midnightblue" stroke="midnightblue" points="1246.6,-51.03 1255.91,-56.08 1251.78,-46.33 1246.6,-51.03"/>
</g>
<!-- Node29 -->
<g id="node24" class="node">
<title>Node29</title>
<g id="a_node24"><a xlink:href="flight__system_2main_8cpp.html" target="_top" xlink:title="Defines the entry point/main function of the Flight Computer software.">
<polygon fill="none" stroke="black" points="1282,-0.5 1282,-19.5 1344,-19.5 1344,-0.5 1282,-0.5"/>
<text text-anchor="middle" x="1313" y="-7.5" font-family="Helvetica,sans-Serif" font-size="10.00">main.cpp</text>
</a>
</g>
</g>
<!-- Node27&#45;&gt;Node29 -->
<g id="edge30" class="edge">
<title>Node27&#45;&gt;Node29</title>
<path fill="none" stroke="midnightblue" d="M1279.03,-48.43C1287.62,-38.97 1298.04,-27.48 1305.06,-19.75"/>
<polygon fill="midnightblue" stroke="midnightblue" points="1276.22,-46.33 1272.09,-56.08 1281.4,-51.03 1276.22,-46.33"/>
</g>
<!-- Node32 -->
<g id="node26" class="node">
<title>Node32</title>
<g id="a_node26"><a xlink:href="console__module_8hpp.html" target="_top" xlink:title=" ">
<polygon fill="none" stroke="red" points="1514.5,-168.5 1514.5,-187.5 1631.5,-187.5 1631.5,-168.5 1514.5,-168.5"/>
<text text-anchor="middle" x="1573" y="-175.5" font-family="Helvetica,sans-Serif" font-size="10.00">console_module.hpp</text>
</a>
</g>
</g>
<!-- Node31&#45;&gt;Node32 -->
<g id="edge35" class="edge">
<title>Node31&#45;&gt;Node32</title>
<path fill="none" stroke="midnightblue" d="M1379.88,-278.26C1412.07,-271.13 1451.85,-260.06 1485,-244 1516.45,-228.76 1548.15,-201.85 1563.5,-187.92"/>
<polygon fill="midnightblue" stroke="midnightblue" points="1378.76,-274.92 1369.72,-280.44 1380.23,-281.77 1378.76,-274.92"/>
</g>
<!-- Node34 -->
<g id="node27" class="node">
<title>Node34</title>
<g id="a_node27"><a xlink:href="console__pages_8cpp.html" target="_top" xlink:title=" ">
<polygon fill="none" stroke="black" points="1237.5,-224.5 1237.5,-243.5 1346.5,-243.5 1346.5,-224.5 1237.5,-224.5"/>
<text text-anchor="middle" x="1292" y="-231.5" font-family="Helvetica,sans-Serif" font-size="10.00">console_pages.cpp</text>
</a>
</g>
</g>
<!-- Node31&#45;&gt;Node34 -->
<g id="edge37" class="edge">
<title>Node31&#45;&gt;Node34</title>
<path fill="none" stroke="midnightblue" d="M1310.66,-270.98C1305.91,-261.82 1300.34,-251.09 1296.54,-243.75"/>
<polygon fill="midnightblue" stroke="midnightblue" points="1307.67,-272.82 1315.38,-280.08 1313.88,-269.59 1307.67,-272.82"/>
</g>
<!-- Node35 -->
<g id="node28" class="node">
<title>Node35</title>
<g id="a_node28"><a xlink:href="curses__utilities_8hpp.html" target="_top" xlink:title=" ">
<polygon fill="none" stroke="red" points="1364.5,-224.5 1364.5,-243.5 1475.5,-243.5 1475.5,-224.5 1364.5,-224.5"/>
<text text-anchor="middle" x="1420" y="-231.5" font-family="Helvetica,sans-Serif" font-size="10.00">curses_utilities.hpp</text>
</a>
</g>
</g>
<!-- Node31&#45;&gt;Node35 -->
<g id="edge38" class="edge">
<title>Node31&#45;&gt;Node35</title>
<path fill="none" stroke="midnightblue" d="M1345.09,-275.45C1363.55,-265.48 1388.1,-252.23 1403.97,-243.65"/>
<polygon fill="midnightblue" stroke="midnightblue" points="1343.2,-272.49 1336.07,-280.32 1346.53,-278.65 1343.2,-272.49"/>
</g>
<!-- Node32&#45;&gt;Node27 -->
<g id="edge36" class="edge">
<title>Node32&#45;&gt;Node27</title>
<path fill="none" stroke="midnightblue" d="M1539.58,-165.1C1476.89,-142.79 1343.02,-95.13 1288.19,-75.61"/>
<polygon fill="midnightblue" stroke="midnightblue" points="1538.42,-168.4 1549.01,-168.46 1540.76,-161.81 1538.42,-168.4"/>
</g>
<!-- Node35&#45;&gt;Node32 -->
<g id="edge39" class="edge">
<title>Node35&#45;&gt;Node32</title>
<path fill="none" stroke="midnightblue" d="M1453.89,-221.04C1482.68,-210.88 1523.29,-196.55 1548.87,-187.52"/>
<polygon fill="midnightblue" stroke="midnightblue" points="1452.51,-217.81 1444.24,-224.44 1454.84,-224.42 1452.51,-217.81"/>
</g>
<!-- Node38 -->
<g id="node30" class="node">
<title>Node38</title>
<g id="a_node30"><a xlink:href="data__formatting_8cpp.html" target="_top" xlink:title="Implementation of the DataFormatter class.">
<polygon fill="none" stroke="black" points="1630,-224.5 1630,-243.5 1746,-243.5 1746,-224.5 1630,-224.5"/>
<text text-anchor="middle" x="1688" y="-231.5" font-family="Helvetica,sans-Serif" font-size="10.00">data_formatting.cpp</text>
</a>
</g>
</g>
<!-- Node37&#45;&gt;Node38 -->
<g id="edge41" class="edge">
<title>Node37&#45;&gt;Node38</title>
<path fill="none" stroke="midnightblue" d="M1588.09,-276.5C1612.46,-266.38 1646.14,-252.39 1667.5,-243.52"/>
<polygon fill="midnightblue" stroke="midnightblue" points="1586.49,-273.38 1578.6,-280.44 1589.18,-279.84 1586.49,-273.38"/>
</g>
<!-- Node37&#45;&gt;Node39 -->
<g id="edge42" class="edge">
<title>Node37&#45;&gt;Node39</title>
<path fill="none" stroke="midnightblue" d="M1562.82,-270.4C1565.17,-261.36 1567.87,-250.94 1569.73,-243.75"/>
<polygon fill="midnightblue" stroke="midnightblue" points="1559.43,-269.52 1560.31,-280.08 1566.21,-271.28 1559.43,-269.52"/>
</g>
<!-- Node40 -->
<g id="node32" class="node">
<title>Node40</title>
<g id="a_node32"><a xlink:href="data__log_8cpp.html" target="_top" xlink:title="The implementation of the data log class.">
<polygon fill="none" stroke="black" points="1768.5,-168.5 1768.5,-187.5 1847.5,-187.5 1847.5,-168.5 1768.5,-168.5"/>
<text text-anchor="middle" x="1808" y="-175.5" font-family="Helvetica,sans-Serif" font-size="10.00">data_log.cpp</text>
</a>
</g>
</g>
<!-- Node39&#45;&gt;Node40 -->
<g id="edge43" class="edge">
<title>Node39&#45;&gt;Node40</title>
<path fill="none" stroke="midnightblue" d="M1619.41,-222.15C1664,-211.95 1729.85,-196.88 1770.78,-187.52"/>
<polygon fill="midnightblue" stroke="midnightblue" points="1618.36,-218.8 1609.39,-224.44 1619.92,-225.62 1618.36,-218.8"/>
</g>
<!-- Node41 -->
<g id="node33" class="node">
<title>Node41</title>
<g id="a_node33"><a xlink:href="data__module_8hpp.html" target="_top" xlink:title="The data module header file.">
<polygon fill="none" stroke="black" points="1649.5,-168.5 1649.5,-187.5 1750.5,-187.5 1750.5,-168.5 1649.5,-168.5"/>
<text text-anchor="middle" x="1700" y="-175.5" font-family="Helvetica,sans-Serif" font-size="10.00">data_module.hpp</text>
</a>
</g>
</g>
<!-- Node39&#45;&gt;Node41 -->
<g id="edge44" class="edge">
<title>Node39&#45;&gt;Node41</title>
<path fill="none" stroke="midnightblue" d="M1601.62,-220.5C1625.62,-210.38 1658.78,-196.39 1679.81,-187.52"/>
<polygon fill="midnightblue" stroke="midnightblue" points="1600.14,-217.33 1592.28,-224.44 1602.86,-223.78 1600.14,-217.33"/>
</g>
<!-- Node41&#45;&gt;Node27 -->
<g id="edge45" class="edge">
<title>Node41&#45;&gt;Node27</title>
<path fill="none" stroke="midnightblue" d="M1656.33,-165.98C1569.33,-144.03 1376.04,-95.27 1297.83,-75.53"/>
<polygon fill="midnightblue" stroke="midnightblue" points="1655.6,-169.41 1666.15,-168.46 1657.31,-162.62 1655.6,-169.41"/>
</g>
<!-- Node42 -->
<g id="node34" class="node">
<title>Node42</title>
<g id="a_node34"><a xlink:href="data__module_8cpp.html" target="_top" xlink:title=" ">
<polygon fill="none" stroke="black" points="1755.5,-112.5 1755.5,-131.5 1856.5,-131.5 1856.5,-112.5 1755.5,-112.5"/>
<text text-anchor="middle" x="1806" y="-119.5" font-family="Helvetica,sans-Serif" font-size="10.00">data_module.cpp</text>
</a>
</g>
</g>
<!-- Node41&#45;&gt;Node42 -->
<g id="edge46" class="edge">
<title>Node41&#45;&gt;Node42</title>
<path fill="none" stroke="midnightblue" d="M1726.06,-163.73C1745.68,-153.73 1772.03,-140.31 1789.01,-131.65"/>
<polygon fill="midnightblue" stroke="midnightblue" points="1724.35,-160.67 1717.03,-168.32 1727.53,-166.9 1724.35,-160.67"/>
</g>
<!-- Node43&#45;&gt;Node7 -->
<g id="edge50" class="edge">
<title>Node43&#45;&gt;Node7</title>
<path fill="none" stroke="midnightblue" d="M1759.67,-278.45C1807.07,-268.17 1878.17,-252.75 1921.69,-243.31"/>
<polygon fill="midnightblue" stroke="midnightblue" points="1758.66,-275.08 1749.63,-280.62 1760.15,-281.92 1758.66,-275.08"/>
</g>
<!-- Node43&#45;&gt;Node41 -->
<g id="edge49" class="edge">
<title>Node43&#45;&gt;Node41</title>
<path fill="none" stroke="midnightblue" d="M1732.09,-274.13C1747.29,-261.45 1763.72,-242.39 1755,-224 1747.23,-207.61 1730.25,-195.21 1717.2,-187.61"/>
<polygon fill="midnightblue" stroke="midnightblue" points="1729.67,-271.57 1723.94,-280.48 1733.98,-277.1 1729.67,-271.57"/>
</g>
<!-- Node44&#45;&gt;Node26 -->
<g id="edge54" class="edge">
<title>Node44&#45;&gt;Node26</title>
<path fill="none" stroke="midnightblue" d="M1162.68,-217.71C1153.07,-209.52 1141.68,-198.9 1133,-188 1118.27,-169.52 1105.79,-144.46 1099.8,-131.52"/>
<polygon fill="midnightblue" stroke="midnightblue" points="1160.61,-220.54 1170.55,-224.22 1165.07,-215.15 1160.61,-220.54"/>
</g>
<!-- Node44&#45;&gt;Node32 -->
<g id="edge52" class="edge">
<title>Node44&#45;&gt;Node32</title>
<path fill="none" stroke="midnightblue" d="M1229.4,-224.03C1352.85,-204.33 1385.58,-203.69 1505,-188 1508.07,-187.6 1511.22,-187.18 1514.4,-186.76"/>
<polygon fill="midnightblue" stroke="midnightblue" points="1228.48,-220.63 1219.16,-225.67 1229.59,-227.54 1228.48,-220.63"/>
</g>
<!-- Node44&#45;&gt;Node41 -->
<g id="edge53" class="edge">
<title>Node44&#45;&gt;Node41</title>
<path fill="none" stroke="midnightblue" d="M1229.13,-224.14C1412.77,-199.07 1461.7,-209.49 1641,-188 1643.78,-187.67 1646.63,-187.3 1649.5,-186.92"/>
<polygon fill="midnightblue" stroke="midnightblue" points="1228.57,-220.69 1219.14,-225.52 1229.53,-227.62 1228.57,-220.69"/>
</g>
<!-- Node45 -->
<g id="node37" class="node">
<title>Node45</title>
<g id="a_node37"><a xlink:href="module_8cpp.html" target="_top" xlink:title="Implementation of the module base class.">
<polygon fill="none" stroke="black" points="1288,-168.5 1288,-187.5 1362,-187.5 1362,-168.5 1288,-168.5"/>
<text text-anchor="middle" x="1325" y="-175.5" font-family="Helvetica,sans-Serif" font-size="10.00">module.cpp</text>
</a>
</g>
</g>
<!-- Node44&#45;&gt;Node45 -->
<g id="edge55" class="edge">
<title>Node44&#45;&gt;Node45</title>
<path fill="none" stroke="midnightblue" d="M1214.03,-220.91C1240.91,-210.75 1278.64,-196.51 1302.45,-187.52"/>
<polygon fill="midnightblue" stroke="midnightblue" points="1212.78,-217.64 1204.66,-224.44 1215.25,-224.19 1212.78,-217.64"/>
</g>
<!-- Node46 -->
<g id="node38" class="node">
<title>Node46</title>
<g id="a_node38"><a xlink:href="server__module_8hpp.html" target="_top" xlink:title="Header file for the server module.">
<polygon fill="none" stroke="red" points="976,-168.5 976,-187.5 1086,-187.5 1086,-168.5 976,-168.5"/>
<text text-anchor="middle" x="1031" y="-175.5" font-family="Helvetica,sans-Serif" font-size="10.00">server_module.hpp</text>
</a>
</g>
</g>
<!-- Node44&#45;&gt;Node46 -->
<g id="edge56" class="edge">
<title>Node44&#45;&gt;Node46</title>
<path fill="none" stroke="midnightblue" d="M1148.55,-221.04C1120.14,-210.88 1080.06,-196.55 1054.81,-187.52"/>
<polygon fill="midnightblue" stroke="midnightblue" points="1147.48,-224.37 1158.07,-224.44 1149.84,-217.78 1147.48,-224.37"/>
</g>
<!-- Node48 -->
<g id="node39" class="node">
<title>Node48</title>
<g id="a_node39"><a xlink:href="system__module_8hpp.html" target="_top" xlink:title=" ">
<polygon fill="none" stroke="red" points="1380,-168.5 1380,-187.5 1496,-187.5 1496,-168.5 1380,-168.5"/>
<text text-anchor="middle" x="1438" y="-175.5" font-family="Helvetica,sans-Serif" font-size="10.00">system_module.hpp</text>
</a>
</g>
</g>
<!-- Node44&#45;&gt;Node48 -->
<g id="edge58" class="edge">
<title>Node44&#45;&gt;Node48</title>
<path fill="none" stroke="midnightblue" d="M1229.11,-223.06C1277.36,-212.89 1351.59,-197.23 1397.35,-187.58"/>
<polygon fill="midnightblue" stroke="midnightblue" points="1228.29,-219.66 1219.22,-225.15 1229.73,-226.51 1228.29,-219.66"/>
</g>
<!-- Node50 -->
<g id="node40" class="node">
<title>Node50</title>
<g id="a_node40"><a xlink:href="telemetry__module_8hpp.html" target="_top" xlink:title="The telemetry module.">
<polygon fill="none" stroke="red" points="1142,-168.5 1142,-187.5 1270,-187.5 1270,-168.5 1142,-168.5"/>
<text text-anchor="middle" x="1206" y="-175.5" font-family="Helvetica,sans-Serif" font-size="10.00">telemetry_module.hpp</text>
</a>
</g>
</g>
<!-- Node44&#45;&gt;Node50 -->
<g id="edge60" class="edge">
<title>Node44&#45;&gt;Node50</title>
<path fill="none" stroke="midnightblue" d="M1190.14,-214.69C1194.18,-205.59 1198.88,-195.01 1202.11,-187.75"/>
<polygon fill="midnightblue" stroke="midnightblue" points="1186.83,-213.52 1185.96,-224.08 1193.22,-216.37 1186.83,-213.52"/>
</g>
<!-- Node46&#45;&gt;Node27 -->
<g id="edge57" class="edge">
<title>Node46&#45;&gt;Node27</title>
<path fill="none" stroke="midnightblue" d="M1096.46,-168.48C1129.77,-162.05 1169.9,-150.95 1202,-132 1226.98,-117.26 1248.39,-89.62 1258.23,-75.62"/>
<polygon fill="midnightblue" stroke="midnightblue" points="1095.56,-165.08 1086.36,-170.33 1096.82,-171.97 1095.56,-165.08"/>
</g>
<!-- Node48&#45;&gt;Node27 -->
<g id="edge59" class="edge">
<title>Node48&#45;&gt;Node27</title>
<path fill="none" stroke="midnightblue" d="M1415.87,-163.01C1379.34,-139.92 1307.52,-94.51 1277.59,-75.59"/>
<polygon fill="midnightblue" stroke="midnightblue" points="1414.02,-165.98 1424.35,-168.37 1417.76,-160.07 1414.02,-165.98"/>
</g>
<!-- Node50&#45;&gt;Node27 -->
<g id="edge61" class="edge">
<title>Node50&#45;&gt;Node27</title>
<path fill="none" stroke="midnightblue" d="M1220.28,-160.55C1226.9,-152.36 1234.49,-142.07 1240,-132 1250.39,-113 1258.03,-88.58 1261.66,-75.76"/>
<polygon fill="midnightblue" stroke="midnightblue" points="1217.59,-158.31 1213.87,-168.23 1222.96,-162.8 1217.59,-158.31"/>
</g>
<!-- Node52&#45;&gt;Node46 -->
<g id="edge64" class="edge">
<title>Node52&#45;&gt;Node46</title>
<path fill="none" stroke="midnightblue" d="M955.08,-219.59C973.76,-209.61 998.7,-196.27 1014.81,-187.65"/>
<polygon fill="midnightblue" stroke="midnightblue" points="953.4,-216.52 946.23,-224.32 956.7,-222.7 953.4,-216.52"/>
</g>
<!-- Node53 -->
<g id="node42" class="node">
<title>Node53</title>
<g id="a_node42"><a xlink:href="request__handler_8cpp.html" target="_top" xlink:title="The request handler class implementation.">
<polygon fill="none" stroke="black" points="804.5,-168.5 804.5,-187.5 919.5,-187.5 919.5,-168.5 804.5,-168.5"/>
<text text-anchor="middle" x="862" y="-175.5" font-family="Helvetica,sans-Serif" font-size="10.00">request_handler.cpp</text>
</a>
</g>
</g>
<!-- Node52&#45;&gt;Node53 -->
<g id="edge63" class="edge">
<title>Node52&#45;&gt;Node53</title>
<path fill="none" stroke="midnightblue" d="M911.24,-218.1C899,-208.38 883.44,-196.03 873.12,-187.83"/>
<polygon fill="midnightblue" stroke="midnightblue" points="909.07,-220.85 919.07,-224.32 913.42,-215.36 909.07,-220.85"/>
</g>
<!-- Node54&#45;&gt;Node52 -->
<g id="edge66" class="edge">
<title>Node54&#45;&gt;Node52</title>
<path fill="none" stroke="midnightblue" d="M1028.38,-276.5C1004.38,-266.38 971.22,-252.39 950.19,-243.52"/>
<polygon fill="midnightblue" stroke="midnightblue" points="1027.14,-279.78 1037.72,-280.44 1029.86,-273.33 1027.14,-279.78"/>
</g>
<!-- Node56&#45;&gt;Node9 -->
<g id="edge74" class="edge">
<title>Node56&#45;&gt;Node9</title>
<path fill="none" stroke="midnightblue" d="M1215.28,-438.78C1211.73,-425.65 1206.54,-407.58 1201,-392 1196.39,-379.06 1190.01,-364.47 1185.94,-355.51"/>
<polygon fill="midnightblue" stroke="midnightblue" points="1211.9,-439.71 1217.85,-448.49 1218.67,-437.92 1211.9,-439.71"/>
</g>
<!-- Node57 -->
<g id="node46" class="node">
<title>Node57</title>
<g id="a_node46"><a xlink:href="validation_8hpp.html" target="_top" xlink:title=" ">
<polygon fill="none" stroke="black" points="823,-392.5 823,-411.5 909,-411.5 909,-392.5 823,-392.5"/>
<text text-anchor="middle" x="866" y="-399.5" font-family="Helvetica,sans-Serif" font-size="10.00">validation.hpp</text>
</a>
</g>
</g>
<!-- Node56&#45;&gt;Node57 -->
<g id="edge69" class="edge">
<title>Node56&#45;&gt;Node57</title>
<path fill="none" stroke="midnightblue" d="M1171.21,-449.56C1101.74,-438.96 975.43,-419.69 909.19,-409.59"/>
<polygon fill="midnightblue" stroke="midnightblue" points="1171.03,-453.07 1181.44,-451.12 1172.08,-446.15 1171.03,-453.07"/>
</g>
<!-- Node58 -->
<g id="node47" class="node">
<title>Node58</title>
<g id="a_node47"><a xlink:href="error__frame_8hpp.html" target="_top" xlink:title="The error frame.">
<polygon fill="none" stroke="black" points="1096.5,-392.5 1096.5,-411.5 1191.5,-411.5 1191.5,-392.5 1096.5,-392.5"/>
<text text-anchor="middle" x="1144" y="-399.5" font-family="Helvetica,sans-Serif" font-size="10.00">error_frame.hpp</text>
</a>
</g>
</g>
<!-- Node56&#45;&gt;Node58 -->
<g id="edge71" class="edge">
<title>Node56&#45;&gt;Node58</title>
<path fill="none" stroke="midnightblue" d="M1199.42,-442.38C1185.69,-432.62 1168.07,-420.11 1156.43,-411.83"/>
<polygon fill="midnightblue" stroke="midnightblue" points="1197.61,-445.38 1207.79,-448.32 1201.66,-439.68 1197.61,-445.38"/>
</g>
<!-- Node60 -->
<g id="node49" class="node">
<title>Node60</title>
<g id="a_node49"><a xlink:href="to__string_8hpp.html" target="_top" xlink:title="Generic to_string functions for a variety of types.">
<polygon fill="none" stroke="black" points="1800,-336.5 1800,-355.5 1880,-355.5 1880,-336.5 1800,-336.5"/>
<text text-anchor="middle" x="1840" y="-343.5" font-family="Helvetica,sans-Serif" font-size="10.00">to_string.hpp</text>
</a>
</g>
</g>
<!-- Node56&#45;&gt;Node60 -->
<g id="edge75" class="edge">
<title>Node56&#45;&gt;Node60</title>
<path fill="none" stroke="midnightblue" d="M1268.69,-448.36C1387.4,-427.3 1690.06,-373.6 1799.63,-354.16"/>
<polygon fill="midnightblue" stroke="midnightblue" points="1268.02,-444.93 1258.78,-450.12 1269.24,-451.82 1268.02,-444.93"/>
</g>
<!-- Node57&#45;&gt;Node12 -->
<g id="edge70" class="edge">
<title>Node57&#45;&gt;Node12</title>
<path fill="none" stroke="midnightblue" d="M833.58,-388.69C794.42,-372.67 728.07,-341.71 682,-300 643.48,-265.12 613.64,-208.99 603.11,-187.63"/>
<polygon fill="midnightblue" stroke="midnightblue" points="832.34,-391.97 842.92,-392.44 834.95,-385.47 832.34,-391.97"/>
</g>
<!-- Node58&#45;&gt;Node9 -->
<g id="edge73" class="edge">
<title>Node58&#45;&gt;Node9</title>
<path fill="none" stroke="midnightblue" d="M1156.06,-383.86C1162.64,-374.5 1170.51,-363.33 1175.84,-355.75"/>
<polygon fill="midnightblue" stroke="midnightblue" points="1153.17,-381.89 1150.27,-392.08 1158.89,-385.92 1153.17,-381.89"/>
</g>
<!-- Node59 -->
<g id="node48" class="node">
<title>Node59</title>
<g id="a_node48"><a xlink:href="error__frame_8cpp.html" target="_top" xlink:title="The implementation of the error frame.">
<polygon fill="none" stroke="black" points="1019.5,-336.5 1019.5,-355.5 1114.5,-355.5 1114.5,-336.5 1019.5,-336.5"/>
<text text-anchor="middle" x="1067" y="-343.5" font-family="Helvetica,sans-Serif" font-size="10.00">error_frame.cpp</text>
</a>
</g>
</g>
<!-- Node58&#45;&gt;Node59 -->
<g id="edge72" class="edge">
<title>Node58&#45;&gt;Node59</title>
<path fill="none" stroke="midnightblue" d="M1123.1,-386.34C1109.09,-376.52 1091.12,-363.91 1079.34,-355.65"/>
<polygon fill="midnightblue" stroke="midnightblue" points="1121.43,-389.45 1131.63,-392.32 1125.45,-383.72 1121.43,-389.45"/>
</g>
<!-- Node60&#45;&gt;Node6 -->
<g id="edge79" class="edge">
<title>Node60&#45;&gt;Node6</title>
<path fill="none" stroke="midnightblue" d="M1871.48,-332.77C1897.59,-322.63 1934.04,-308.47 1957.08,-299.52"/>
<polygon fill="midnightblue" stroke="midnightblue" points="1870.08,-329.56 1862.02,-336.44 1872.61,-336.08 1870.08,-329.56"/>
</g>
<!-- Node60&#45;&gt;Node7 -->
<g id="edge78" class="edge">
<title>Node60&#45;&gt;Node7</title>
<path fill="none" stroke="midnightblue" d="M1857.35,-329.51C1866.99,-320.86 1879.2,-309.87 1890,-300 1911.79,-280.08 1937.12,-256.44 1950.53,-243.88"/>
<polygon fill="midnightblue" stroke="midnightblue" points="1854.74,-327.14 1849.63,-336.42 1859.41,-332.36 1854.74,-327.14"/>
</g>
<!-- Node60&#45;&gt;Node38 -->
<g id="edge76" class="edge">
<title>Node60&#45;&gt;Node38</title>
<path fill="none" stroke="midnightblue" d="M1789.54,-338.98C1743.15,-332.29 1679.33,-319.74 1664,-300 1650.57,-282.71 1668.37,-257.15 1679.78,-243.82"/>
<polygon fill="midnightblue" stroke="midnightblue" points="1789.35,-342.49 1799.74,-340.4 1790.31,-335.56 1789.35,-342.49"/>
</g>
<!-- Node60&#45;&gt;Node42 -->
<g id="edge77" class="edge">
<title>Node60&#45;&gt;Node42</title>
<path fill="none" stroke="midnightblue" d="M1848.45,-327.15C1851.83,-319.05 1855.31,-309.24 1857,-300 1867.54,-242.29 1881.13,-221.47 1857,-168 1849.81,-152.07 1833.89,-139.52 1821.73,-131.76"/>
<polygon fill="midnightblue" stroke="midnightblue" points="1845.24,-325.75 1844.37,-336.31 1851.63,-328.6 1845.24,-325.75"/>
</g>
<!-- Node61 -->
<g id="node50" class="node">
<title>Node61</title>
<g id="a_node50"><a xlink:href="to__string_8cpp.html" target="_top" xlink:title="Generic to_string functions for a variety of types.">
<polygon fill="none" stroke="black" points="1768,-280.5 1768,-299.5 1848,-299.5 1848,-280.5 1768,-280.5"/>
<text text-anchor="middle" x="1808" y="-287.5" font-family="Helvetica,sans-Serif" font-size="10.00">to_string.cpp</text>
</a>
</g>
</g>
<!-- Node60&#45;&gt;Node61 -->
<g id="edge80" class="edge">
<title>Node60&#45;&gt;Node61</title>
<path fill="none" stroke="midnightblue" d="M1829.5,-327.27C1824.03,-318.05 1817.58,-307.17 1813.19,-299.75"/>
<polygon fill="midnightblue" stroke="midnightblue" points="1826.61,-329.26 1834.72,-336.08 1832.63,-325.7 1826.61,-329.26"/>
</g>
</g>
</svg>
