<?xml version="1.0" encoding="UTF-8" standalone="no"?>
<!DOCTYPE svg PUBLIC "-//W3C//DTD SVG 1.1//EN"
 "http://www.w3.org/Graphics/SVG/1.1/DTD/svg11.dtd">
<!-- Generated by graphviz version 2.43.0 (0)
 -->
<!-- Title: positional.hpp Pages: 1 -->
<svg width="2004pt" height="532pt"
 viewBox="0.00 0.00 2003.50 532.00" xmlns="http://www.w3.org/2000/svg" xmlns:xlink="http://www.w3.org/1999/xlink">
<g id="graph0" class="graph" transform="scale(1 1) rotate(0) translate(4 528)">
<title>positional.hpp</title>
<!-- Node1 -->
<g id="node1" class="node">
<title>Node1</title>
<g id="a_node1"><a xlink:title="Positional data for the flight system (gps/imu data)">
<polygon fill="#bfbfbf" stroke="black" points="1616,-504.5 1616,-523.5 1702,-523.5 1702,-504.5 1616,-504.5"/>
<text text-anchor="middle" x="1659" y="-511.5" font-family="Helvetica,sans-Serif" font-size="10.00">positional.hpp</text>
</a>
</g>
</g>
<!-- Node2 -->
<g id="node2" class="node">
<title>Node2</title>
<g id="a_node2"><a xlink:href="samm8q_8hpp.html" target="_top" xlink:title="SAM&#45;M8Q GPS extension (I2C).">
<polygon fill="none" stroke="black" points="0,-112.5 0,-131.5 80,-131.5 80,-112.5 0,-112.5"/>
<text text-anchor="middle" x="40" y="-119.5" font-family="Helvetica,sans-Serif" font-size="10.00">samm8q.hpp</text>
</a>
</g>
</g>
<!-- Node1&#45;&gt;Node2 -->
<g id="edge1" class="edge">
<title>Node1&#45;&gt;Node2</title>
<path fill="none" stroke="midnightblue" d="M1605.55,-512.03C1334.31,-506.76 123,-478.97 123,-403 123,-403 123,-403 123,-233 123,-187.07 76.31,-148.16 52.97,-131.57"/>
<polygon fill="midnightblue" stroke="midnightblue" points="1605.85,-515.54 1615.91,-512.23 1605.98,-508.54 1605.85,-515.54"/>
</g>
<!-- Node4 -->
<g id="node4" class="node">
<title>Node4</title>
<g id="a_node4"><a xlink:href="positional_8cpp.html" target="_top" xlink:title="Positional data for the flight system (gps/imu data) handling.">
<polygon fill="none" stroke="black" points="1910.5,-448.5 1910.5,-467.5 1995.5,-467.5 1995.5,-448.5 1910.5,-448.5"/>
<text text-anchor="middle" x="1953" y="-455.5" font-family="Helvetica,sans-Serif" font-size="10.00">positional.cpp</text>
</a>
</g>
</g>
<!-- Node1&#45;&gt;Node4 -->
<g id="edge3" class="edge">
<title>Node1&#45;&gt;Node4</title>
<path fill="none" stroke="midnightblue" d="M1711.93,-503.28C1768.72,-492.85 1857.8,-476.48 1910.3,-466.84"/>
<polygon fill="midnightblue" stroke="midnightblue" points="1711.27,-499.84 1702.06,-505.09 1712.53,-506.73 1711.27,-499.84"/>
</g>
<!-- Node5 -->
<g id="node5" class="node">
<title>Node5</title>
<g id="a_node5"><a xlink:href="to__json_8hpp.html" target="_top" xlink:title="Utility functions for converting data to JSON.">
<polygon fill="none" stroke="black" points="1794.5,-280.5 1794.5,-299.5 1867.5,-299.5 1867.5,-280.5 1794.5,-280.5"/>
<text text-anchor="middle" x="1831" y="-287.5" font-family="Helvetica,sans-Serif" font-size="10.00">to_json.hpp</text>
</a>
</g>
</g>
<!-- Node1&#45;&gt;Node5 -->
<g id="edge4" class="edge">
<title>Node1&#45;&gt;Node5</title>
<path fill="none" stroke="midnightblue" d="M1671.95,-496.28C1706.19,-452.1 1798.19,-333.34 1824.12,-299.88"/>
<polygon fill="midnightblue" stroke="midnightblue" points="1669.1,-494.25 1665.74,-504.3 1674.63,-498.54 1669.1,-494.25"/>
</g>
<!-- Node7 -->
<g id="node7" class="node">
<title>Node7</title>
<g id="a_node7"><a xlink:href="blocks_8hpp.html" target="_top" xlink:title=" ">
<polygon fill="none" stroke="black" points="1624.5,-392.5 1624.5,-411.5 1693.5,-411.5 1693.5,-392.5 1624.5,-392.5"/>
<text text-anchor="middle" x="1659" y="-399.5" font-family="Helvetica,sans-Serif" font-size="10.00">blocks.hpp</text>
</a>
</g>
</g>
<!-- Node1&#45;&gt;Node7 -->
<g id="edge6" class="edge">
<title>Node1&#45;&gt;Node7</title>
<path fill="none" stroke="midnightblue" d="M1659,-494.35C1659,-470.25 1659,-429.31 1659,-411.59"/>
<polygon fill="midnightblue" stroke="midnightblue" points="1655.5,-494.37 1659,-504.37 1662.5,-494.37 1655.5,-494.37"/>
</g>
<!-- Node54 -->
<g id="node45" class="node">
<title>Node54</title>
<g id="a_node45"><a xlink:href="streams_8hpp.html" target="_top" xlink:title="The header file for the data streams.">
<polygon fill="none" stroke="black" points="1231.5,-448.5 1231.5,-467.5 1308.5,-467.5 1308.5,-448.5 1231.5,-448.5"/>
<text text-anchor="middle" x="1270" y="-455.5" font-family="Helvetica,sans-Serif" font-size="10.00">streams.hpp</text>
</a>
</g>
</g>
<!-- Node1&#45;&gt;Node54 -->
<g id="edge64" class="edge">
<title>Node1&#45;&gt;Node54</title>
<path fill="none" stroke="midnightblue" d="M1605.6,-505.59C1526.12,-494.55 1378.57,-474.07 1308.66,-464.37"/>
<polygon fill="midnightblue" stroke="midnightblue" points="1605.5,-509.11 1615.88,-507.01 1606.46,-502.17 1605.5,-509.11"/>
</g>
<!-- Node3 -->
<g id="node3" class="node">
<title>Node3</title>
<g id="a_node3"><a xlink:href="samm8q_8cpp.html" target="_top" xlink:title="The SAM&#45;M8Q GPS extension (I2C).">
<polygon fill="none" stroke="black" points="0,-56.5 0,-75.5 80,-75.5 80,-56.5 0,-56.5"/>
<text text-anchor="middle" x="40" y="-63.5" font-family="Helvetica,sans-Serif" font-size="10.00">samm8q.cpp</text>
</a>
</g>
</g>
<!-- Node2&#45;&gt;Node3 -->
<g id="edge2" class="edge">
<title>Node2&#45;&gt;Node3</title>
<path fill="none" stroke="midnightblue" d="M40,-101.8C40,-92.91 40,-82.78 40,-75.75"/>
<polygon fill="midnightblue" stroke="midnightblue" points="36.5,-102.08 40,-112.08 43.5,-102.08 36.5,-102.08"/>
</g>
<!-- Node6 -->
<g id="node6" class="node">
<title>Node6</title>
<g id="a_node6"><a xlink:href="influxdb_8cpp.html" target="_top" xlink:title=" ">
<polygon fill="none" stroke="black" points="1760,-224.5 1760,-243.5 1836,-243.5 1836,-224.5 1760,-224.5"/>
<text text-anchor="middle" x="1798" y="-231.5" font-family="Helvetica,sans-Serif" font-size="10.00">influxdb.cpp</text>
</a>
</g>
</g>
<!-- Node5&#45;&gt;Node6 -->
<g id="edge5" class="edge">
<title>Node5&#45;&gt;Node6</title>
<path fill="none" stroke="midnightblue" d="M1820.17,-271.27C1814.53,-262.05 1807.88,-251.17 1803.35,-243.75"/>
<polygon fill="midnightblue" stroke="midnightblue" points="1817.35,-273.38 1825.55,-280.08 1823.32,-269.73 1817.35,-273.38"/>
</g>
<!-- Node7&#45;&gt;Node6 -->
<g id="edge7" class="edge">
<title>Node7&#45;&gt;Node6</title>
<path fill="none" stroke="midnightblue" d="M1703.64,-394.64C1755.53,-384.6 1838.9,-359.65 1877,-300 1893.21,-274.63 1853.32,-254.36 1824.51,-243.56"/>
<polygon fill="midnightblue" stroke="midnightblue" points="1702.91,-391.21 1693.7,-396.46 1704.17,-398.1 1702.91,-391.21"/>
</g>
<!-- Node7&#45;&gt;Node7 -->
<g id="edge8" class="edge">
<title>Node7&#45;&gt;Node7</title>
<path fill="none" stroke="midnightblue" d="M1691.51,-412.5C1702.59,-412.56 1711.5,-409.06 1711.5,-402 1711.5,-392.87 1696.61,-389.69 1681.39,-392.47"/>
<polygon fill="midnightblue" stroke="midnightblue" points="1691.68,-409 1681.39,-411.53 1691.01,-415.97 1691.68,-409"/>
</g>
<!-- Node8 -->
<g id="node8" class="node">
<title>Node8</title>
<g id="a_node8"><a xlink:href="shared__data_8hpp.html" target="_top" xlink:title="Contains the SharedData struct, used across all modules and extensions.">
<polygon fill="none" stroke="black" points="1183,-336.5 1183,-355.5 1281,-355.5 1281,-336.5 1183,-336.5"/>
<text text-anchor="middle" x="1232" y="-343.5" font-family="Helvetica,sans-Serif" font-size="10.00">shared_data.hpp</text>
</a>
</g>
</g>
<!-- Node7&#45;&gt;Node8 -->
<g id="edge9" class="edge">
<title>Node7&#45;&gt;Node8</title>
<path fill="none" stroke="midnightblue" d="M1614.1,-395.32C1533.45,-385.12 1364.66,-363.78 1281.07,-353.21"/>
<polygon fill="midnightblue" stroke="midnightblue" points="1614.06,-398.84 1624.42,-396.63 1614.94,-391.9 1614.06,-398.84"/>
</g>
<!-- Node9 -->
<g id="node9" class="node">
<title>Node9</title>
<g id="a_node9"><a xlink:href="cfg__section_8hpp.html" target="_top" xlink:title="This file contains the base class for all configuration sections.">
<polygon fill="none" stroke="black" points="593.5,-280.5 593.5,-299.5 686.5,-299.5 686.5,-280.5 593.5,-280.5"/>
<text text-anchor="middle" x="640" y="-287.5" font-family="Helvetica,sans-Serif" font-size="10.00">cfg_section.hpp</text>
</a>
</g>
</g>
<!-- Node8&#45;&gt;Node9 -->
<g id="edge10" class="edge">
<title>Node8&#45;&gt;Node9</title>
<path fill="none" stroke="midnightblue" d="M1173.01,-335.96C986.81,-314 777.79,-299.6 686.54,-293.82"/>
<polygon fill="midnightblue" stroke="midnightblue" points="1172.64,-339.44 1182.99,-337.15 1173.47,-332.49 1172.64,-339.44"/>
</g>
<!-- Node12 -->
<g id="node12" class="node">
<title>Node12</title>
<g id="a_node12"><a xlink:href="extension__base_8hpp.html" target="_top" xlink:title="The new implementation of the extension system.">
<polygon fill="none" stroke="black" points="340,-168.5 340,-187.5 454,-187.5 454,-168.5 340,-168.5"/>
<text text-anchor="middle" x="397" y="-175.5" font-family="Helvetica,sans-Serif" font-size="10.00">extension_base.hpp</text>
</a>
</g>
</g>
<!-- Node8&#45;&gt;Node12 -->
<g id="edge28" class="edge">
<title>Node8&#45;&gt;Node12</title>
<path fill="none" stroke="midnightblue" d="M1172.81,-336C911.32,-309.36 835.2,-366.71 585,-300 530.84,-285.56 518.67,-275.05 472,-244 445.89,-226.63 419,-201.1 405.63,-187.8"/>
<polygon fill="midnightblue" stroke="midnightblue" points="1172.68,-339.5 1182.99,-337.07 1173.42,-332.54 1172.68,-339.5"/>
</g>
<!-- Node25 -->
<g id="node21" class="node">
<title>Node25</title>
<g id="a_node21"><a xlink:href="flight__runner_8hpp.html" target="_top" xlink:title=" ">
<polygon fill="none" stroke="black" points="1106,-56.5 1106,-75.5 1204,-75.5 1204,-56.5 1106,-56.5"/>
<text text-anchor="middle" x="1155" y="-63.5" font-family="Helvetica,sans-Serif" font-size="10.00">flight_runner.hpp</text>
</a>
</g>
</g>
<!-- Node8&#45;&gt;Node25 -->
<g id="edge29" class="edge">
<title>Node8&#45;&gt;Node25</title>
<path fill="none" stroke="midnightblue" d="M1291.21,-344.75C1377.45,-343.16 1531.83,-335.3 1573,-300 1595.85,-280.41 1592,-265.1 1592,-235 1592,-235 1592,-235 1592,-177 1592,-97.79 1318.57,-75.06 1204.28,-69.03"/>
<polygon fill="midnightblue" stroke="midnightblue" points="1290.99,-341.25 1281.04,-344.91 1291.1,-348.25 1290.99,-341.25"/>
</g>
<!-- Node29 -->
<g id="node25" class="node">
<title>Node29</title>
<g id="a_node25"><a xlink:href="console__pages_8hpp.html" target="_top" xlink:title=" ">
<polygon fill="none" stroke="black" points="1080,-280.5 1080,-299.5 1190,-299.5 1190,-280.5 1080,-280.5"/>
<text text-anchor="middle" x="1135" y="-287.5" font-family="Helvetica,sans-Serif" font-size="10.00">console_pages.hpp</text>
</a>
</g>
</g>
<!-- Node8&#45;&gt;Node29 -->
<g id="edge30" class="edge">
<title>Node8&#45;&gt;Node29</title>
<path fill="none" stroke="midnightblue" d="M1207.66,-331.45C1189.76,-321.48 1165.95,-308.23 1150.55,-299.65"/>
<polygon fill="midnightblue" stroke="midnightblue" points="1205.98,-334.52 1216.42,-336.32 1209.38,-328.4 1205.98,-334.52"/>
</g>
<!-- Node35 -->
<g id="node29" class="node">
<title>Node35</title>
<g id="a_node29"><a xlink:href="data__formatting_8hpp.html" target="_top" xlink:title="This file contains the DataFormatter class, which is used to format data for the data and log files.">
<polygon fill="none" stroke="black" points="1298,-280.5 1298,-299.5 1414,-299.5 1414,-280.5 1298,-280.5"/>
<text text-anchor="middle" x="1356" y="-287.5" font-family="Helvetica,sans-Serif" font-size="10.00">data_formatting.hpp</text>
</a>
</g>
</g>
<!-- Node8&#45;&gt;Node35 -->
<g id="edge36" class="edge">
<title>Node8&#45;&gt;Node35</title>
<path fill="none" stroke="midnightblue" d="M1261.01,-332.37C1284.23,-322.26 1316.16,-308.35 1336.44,-299.52"/>
<polygon fill="midnightblue" stroke="midnightblue" points="1259.42,-329.24 1251.65,-336.44 1262.21,-335.66 1259.42,-329.24"/>
</g>
<!-- Node37 -->
<g id="node31" class="node">
<title>Node37</title>
<g id="a_node31"><a xlink:href="data__log_8hpp.html" target="_top" xlink:title="The data log is responsible for writing data to files and managing the file system.">
<polygon fill="none" stroke="black" points="1301,-224.5 1301,-243.5 1381,-243.5 1381,-224.5 1301,-224.5"/>
<text text-anchor="middle" x="1341" y="-231.5" font-family="Helvetica,sans-Serif" font-size="10.00">data_log.hpp</text>
</a>
</g>
</g>
<!-- Node8&#45;&gt;Node37 -->
<g id="edge43" class="edge">
<title>Node8&#45;&gt;Node37</title>
<path fill="none" stroke="midnightblue" d="M1245.54,-328.32C1256.73,-314.84 1273.28,-295.62 1289,-280 1302.55,-266.54 1319.48,-252.32 1330.26,-243.56"/>
<polygon fill="midnightblue" stroke="midnightblue" points="1242.67,-326.3 1239.02,-336.25 1248.07,-330.75 1242.67,-326.3"/>
</g>
<!-- Node41 -->
<g id="node35" class="node">
<title>Node41</title>
<g id="a_node35"><a xlink:href="influxdb_8hpp.html" target="_top" xlink:title=" ">
<polygon fill="none" stroke="black" points="1486.5,-280.5 1486.5,-299.5 1563.5,-299.5 1563.5,-280.5 1486.5,-280.5"/>
<text text-anchor="middle" x="1525" y="-287.5" font-family="Helvetica,sans-Serif" font-size="10.00">influxdb.hpp</text>
</a>
</g>
</g>
<!-- Node8&#45;&gt;Node41 -->
<g id="edge44" class="edge">
<title>Node8&#45;&gt;Node41</title>
<path fill="none" stroke="midnightblue" d="M1288.55,-334.58C1346.7,-323.86 1435.68,-307.46 1486.28,-298.14"/>
<polygon fill="midnightblue" stroke="midnightblue" points="1287.63,-331.19 1278.43,-336.44 1288.9,-338.07 1287.63,-331.19"/>
</g>
<!-- Node42 -->
<g id="node36" class="node">
<title>Node42</title>
<g id="a_node36"><a xlink:href="module_8hpp.html" target="_top" xlink:title="The header file for the base module class.">
<polygon fill="none" stroke="black" points="1208,-224.5 1208,-243.5 1282,-243.5 1282,-224.5 1208,-224.5"/>
<text text-anchor="middle" x="1245" y="-231.5" font-family="Helvetica,sans-Serif" font-size="10.00">module.hpp</text>
</a>
</g>
</g>
<!-- Node8&#45;&gt;Node42 -->
<g id="edge47" class="edge">
<title>Node8&#45;&gt;Node42</title>
<path fill="none" stroke="midnightblue" d="M1234.2,-326.35C1237.05,-302.25 1241.89,-261.31 1243.98,-243.59"/>
<polygon fill="midnightblue" stroke="midnightblue" points="1230.72,-326.03 1233.02,-336.37 1237.67,-326.85 1230.72,-326.03"/>
</g>
<!-- Node50 -->
<g id="node41" class="node">
<title>Node50</title>
<g id="a_node41"><a xlink:href="request__handler_8hpp.html" target="_top" xlink:title="The request handler class header.">
<polygon fill="none" stroke="black" points="779,-224.5 779,-243.5 895,-243.5 895,-224.5 779,-224.5"/>
<text text-anchor="middle" x="837" y="-231.5" font-family="Helvetica,sans-Serif" font-size="10.00">request_handler.hpp</text>
</a>
</g>
</g>
<!-- Node8&#45;&gt;Node50 -->
<g id="edge58" class="edge">
<title>Node8&#45;&gt;Node50</title>
<path fill="none" stroke="midnightblue" d="M1173.02,-335.97C1047.91,-320.38 1002.78,-356.84 895,-300 869.85,-286.74 850.36,-257.9 841.78,-243.51"/>
<polygon fill="midnightblue" stroke="midnightblue" points="1172.59,-339.45 1182.97,-337.3 1173.52,-332.51 1172.59,-339.45"/>
</g>
<!-- Node52 -->
<g id="node43" class="node">
<title>Node52</title>
<g id="a_node43"><a xlink:href="logger_8hpp.html" target="_top" xlink:title="A simple logger class so difference classes have access to the same logger.">
<polygon fill="none" stroke="black" points="994,-280.5 994,-299.5 1062,-299.5 1062,-280.5 994,-280.5"/>
<text text-anchor="middle" x="1028" y="-287.5" font-family="Helvetica,sans-Serif" font-size="10.00">logger.hpp</text>
</a>
</g>
</g>
<!-- Node8&#45;&gt;Node52 -->
<g id="edge61" class="edge">
<title>Node8&#45;&gt;Node52</title>
<path fill="none" stroke="midnightblue" d="M1189.8,-333.83C1151.28,-323.63 1095.18,-308.78 1060.17,-299.52"/>
<polygon fill="midnightblue" stroke="midnightblue" points="1189.11,-337.27 1199.68,-336.44 1190.9,-330.5 1189.11,-337.27"/>
</g>
<!-- Node53 -->
<g id="node44" class="node">
<title>Node53</title>
<g id="a_node44"><a xlink:href="to__json_8cpp.html" target="_top" xlink:title=" ">
<polygon fill="none" stroke="black" points="904,-280.5 904,-299.5 976,-299.5 976,-280.5 904,-280.5"/>
<text text-anchor="middle" x="940" y="-287.5" font-family="Helvetica,sans-Serif" font-size="10.00">to_json.cpp</text>
</a>
</g>
</g>
<!-- Node8&#45;&gt;Node53 -->
<g id="edge63" class="edge">
<title>Node8&#45;&gt;Node53</title>
<path fill="none" stroke="midnightblue" d="M1173.68,-334.67C1123.6,-325.72 1049.49,-312.32 985,-300 982.18,-299.46 979.27,-298.9 976.34,-298.32"/>
<polygon fill="midnightblue" stroke="midnightblue" points="1173.22,-338.14 1183.68,-336.45 1174.45,-331.25 1173.22,-338.14"/>
</g>
<!-- Node10 -->
<g id="node10" class="node">
<title>Node10</title>
<g id="a_node10"><a xlink:href="cfg__extensions_8hpp.html" target="_top" xlink:title="The header file for the extensions section of the configuration.">
<polygon fill="none" stroke="black" points="480.5,-224.5 480.5,-243.5 591.5,-243.5 591.5,-224.5 480.5,-224.5"/>
<text text-anchor="middle" x="536" y="-231.5" font-family="Helvetica,sans-Serif" font-size="10.00">cfg_extensions.hpp</text>
</a>
</g>
</g>
<!-- Node9&#45;&gt;Node10 -->
<g id="edge11" class="edge">
<title>Node9&#45;&gt;Node10</title>
<path fill="none" stroke="midnightblue" d="M614.17,-275.59C594.94,-265.61 569.26,-252.27 552.67,-243.65"/>
<polygon fill="midnightblue" stroke="midnightblue" points="612.8,-278.82 623.29,-280.32 616.03,-272.61 612.8,-278.82"/>
</g>
<!-- Node11 -->
<g id="node11" class="node">
<title>Node11</title>
<g id="a_node11"><a xlink:href="cfg__extensions_8cpp.html" target="_top" xlink:title="Implements the extensions section of the configuration.">
<polygon fill="none" stroke="black" points="212,-168.5 212,-187.5 322,-187.5 322,-168.5 212,-168.5"/>
<text text-anchor="middle" x="267" y="-175.5" font-family="Helvetica,sans-Serif" font-size="10.00">cfg_extensions.cpp</text>
</a>
</g>
</g>
<!-- Node10&#45;&gt;Node11 -->
<g id="edge12" class="edge">
<title>Node10&#45;&gt;Node11</title>
<path fill="none" stroke="midnightblue" d="M483.56,-222.47C432.72,-212.27 356.56,-196.98 309.42,-187.52"/>
<polygon fill="midnightblue" stroke="midnightblue" points="482.88,-225.91 493.38,-224.44 484.26,-219.04 482.88,-225.91"/>
</g>
<!-- Node10&#45;&gt;Node12 -->
<g id="edge13" class="edge">
<title>Node10&#45;&gt;Node12</title>
<path fill="none" stroke="midnightblue" d="M504.52,-220.77C478.41,-210.63 441.96,-196.47 418.92,-187.52"/>
<polygon fill="midnightblue" stroke="midnightblue" points="503.39,-224.08 513.98,-224.44 505.92,-217.56 503.39,-224.08"/>
</g>
<!-- Node28 -->
<g id="node24" class="node">
<title>Node28</title>
<g id="a_node24"><a xlink:href="preconfigured__extensions_8hpp.html" target="_top" xlink:title="This file contains preconfigured extension metadata.">
<polygon fill="none" stroke="black" points="472.5,-168.5 472.5,-187.5 635.5,-187.5 635.5,-168.5 472.5,-168.5"/>
<text text-anchor="middle" x="554" y="-175.5" font-family="Helvetica,sans-Serif" font-size="10.00">preconfigured_extensions.hpp</text>
</a>
</g>
</g>
<!-- Node10&#45;&gt;Node28 -->
<g id="edge27" class="edge">
<title>Node10&#45;&gt;Node28</title>
<path fill="none" stroke="midnightblue" d="M542.2,-214.4C545.21,-205.36 548.69,-194.94 551.08,-187.75"/>
<polygon fill="midnightblue" stroke="midnightblue" points="538.81,-213.49 538.97,-224.08 545.46,-215.7 538.81,-213.49"/>
</g>
<!-- Node12&#45;&gt;Node2 -->
<g id="edge21" class="edge">
<title>Node12&#45;&gt;Node2</title>
<path fill="none" stroke="midnightblue" d="M329.96,-167.5C253.73,-156.64 134.03,-139.42 89,-132 86.1,-131.52 83.1,-131.01 80.09,-130.49"/>
<polygon fill="midnightblue" stroke="midnightblue" points="329.56,-170.98 339.95,-168.92 330.55,-164.05 329.56,-170.98"/>
</g>
<!-- Node13 -->
<g id="node13" class="node">
<title>Node13</title>
<g id="a_node13"><a xlink:href="adc__extension__base_8hpp.html" target="_top" xlink:title="Generic ADC Extension Wrapper.">
<polygon fill="none" stroke="black" points="654.5,-112.5 654.5,-131.5 791.5,-131.5 791.5,-112.5 654.5,-112.5"/>
<text text-anchor="middle" x="723" y="-119.5" font-family="Helvetica,sans-Serif" font-size="10.00">adc_extension_base.hpp</text>
</a>
</g>
</g>
<!-- Node12&#45;&gt;Node13 -->
<g id="edge14" class="edge">
<title>Node12&#45;&gt;Node13</title>
<path fill="none" stroke="midnightblue" d="M458.63,-166.79C520.23,-156.59 613.86,-141.08 671.59,-131.52"/>
<polygon fill="midnightblue" stroke="midnightblue" points="457.95,-163.36 448.66,-168.44 459.09,-170.26 457.95,-163.36"/>
</g>
<!-- Node16 -->
<g id="node15" class="node">
<title>Node16</title>
<g id="a_node15"><a xlink:href="bme280_8hpp.html" target="_top" xlink:title="The BME280 sensor extension.">
<polygon fill="none" stroke="red" points="809.5,-112.5 809.5,-131.5 886.5,-131.5 886.5,-112.5 809.5,-112.5"/>
<text text-anchor="middle" x="848" y="-119.5" font-family="Helvetica,sans-Serif" font-size="10.00">bme280.hpp</text>
</a>
</g>
</g>
<!-- Node12&#45;&gt;Node16 -->
<g id="edge16" class="edge">
<title>Node12&#45;&gt;Node16</title>
<path fill="none" stroke="midnightblue" d="M463.69,-168.04C463.8,-168.02 463.9,-168.01 464,-168 613.55,-149.97 652.01,-154.18 801,-132 803.71,-131.6 806.51,-131.15 809.31,-130.67"/>
<polygon fill="midnightblue" stroke="midnightblue" points="463.5,-164.53 454.01,-169.24 464.36,-171.48 463.5,-164.53"/>
</g>
<!-- Node18 -->
<g id="node16" class="node">
<title>Node18</title>
<g id="a_node16"><a xlink:href="ds18b20_8hpp.html" target="_top" xlink:title="DS18B20 extension header file.">
<polygon fill="none" stroke="red" points="98.5,-112.5 98.5,-131.5 177.5,-131.5 177.5,-112.5 98.5,-112.5"/>
<text text-anchor="middle" x="138" y="-119.5" font-family="Helvetica,sans-Serif" font-size="10.00">ds18b20.hpp</text>
</a>
</g>
</g>
<!-- Node12&#45;&gt;Node18 -->
<g id="edge17" class="edge">
<title>Node12&#45;&gt;Node18</title>
<path fill="none" stroke="midnightblue" d="M346.12,-166.39C296.71,-156.09 222.73,-140.67 177.57,-131.25"/>
<polygon fill="midnightblue" stroke="midnightblue" points="345.46,-169.83 355.96,-168.44 346.89,-162.98 345.46,-169.83"/>
</g>
<!-- Node20 -->
<g id="node17" class="node">
<title>Node20</title>
<g id="a_node17"><a xlink:href="extension__base_8cpp.html" target="_top" xlink:title="The new implementation of the extension system.">
<polygon fill="none" stroke="black" points="195.5,-112.5 195.5,-131.5 308.5,-131.5 308.5,-112.5 195.5,-112.5"/>
<text text-anchor="middle" x="252" y="-119.5" font-family="Helvetica,sans-Serif" font-size="10.00">extension_base.cpp</text>
</a>
</g>
</g>
<!-- Node12&#45;&gt;Node20 -->
<g id="edge18" class="edge">
<title>Node12&#45;&gt;Node20</title>
<path fill="none" stroke="midnightblue" d="M364.52,-164.91C337.26,-154.75 299.01,-140.51 274.87,-131.52"/>
<polygon fill="midnightblue" stroke="midnightblue" points="363.43,-168.23 374.02,-168.44 365.87,-161.67 363.43,-168.23"/>
</g>
<!-- Node21 -->
<g id="node18" class="node">
<title>Node21</title>
<g id="a_node18"><a xlink:href="i2c__extension__adapter_8hpp.html" target="_top" xlink:title="Adapter for I2C Extensions.">
<polygon fill="none" stroke="black" points="489.5,-112.5 489.5,-131.5 636.5,-131.5 636.5,-112.5 489.5,-112.5"/>
<text text-anchor="middle" x="563" y="-119.5" font-family="Helvetica,sans-Serif" font-size="10.00">i2c_extension_adapter.hpp</text>
</a>
</g>
</g>
<!-- Node12&#45;&gt;Node21 -->
<g id="edge19" class="edge">
<title>Node12&#45;&gt;Node21</title>
<path fill="none" stroke="midnightblue" d="M432.95,-165.3C464.23,-155.13 508.82,-140.62 536.82,-131.52"/>
<polygon fill="midnightblue" stroke="midnightblue" points="431.73,-162.02 423.3,-168.44 433.9,-168.68 431.73,-162.02"/>
</g>
<!-- Node22 -->
<g id="node19" class="node">
<title>Node22</title>
<g id="a_node19"><a xlink:href="simulated__extensions_8hpp.html" target="_top" xlink:title="This contains the simulated extensions for testing the flight system.">
<polygon fill="none" stroke="red" points="326.5,-112.5 326.5,-131.5 471.5,-131.5 471.5,-112.5 326.5,-112.5"/>
<text text-anchor="middle" x="399" y="-119.5" font-family="Helvetica,sans-Serif" font-size="10.00">simulated_extensions.hpp</text>
</a>
</g>
</g>
<!-- Node12&#45;&gt;Node22 -->
<g id="edge22" class="edge">
<title>Node12&#45;&gt;Node22</title>
<path fill="none" stroke="midnightblue" d="M397.71,-157.8C398.04,-148.91 398.42,-138.78 398.68,-131.75"/>
<polygon fill="midnightblue" stroke="midnightblue" points="394.2,-157.96 397.33,-168.08 401.2,-158.22 394.2,-157.96"/>
</g>
<!-- Node24 -->
<g id="node20" class="node">
<title>Node24</title>
<g id="a_node20"><a xlink:href="extension__module_8hpp.html" target="_top" xlink:title="This is the header file for the new extension module.">
<polygon fill="none" stroke="red" points="961,-112.5 961,-131.5 1089,-131.5 1089,-112.5 961,-112.5"/>
<text text-anchor="middle" x="1025" y="-119.5" font-family="Helvetica,sans-Serif" font-size="10.00">extension_module.hpp</text>
</a>
</g>
</g>
<!-- Node12&#45;&gt;Node24 -->
<g id="edge23" class="edge">
<title>Node12&#45;&gt;Node24</title>
<path fill="none" stroke="midnightblue" d="M464.63,-168.01C575.82,-156.56 838.58,-136.76 960.76,-127.72"/>
<polygon fill="midnightblue" stroke="midnightblue" points="463.94,-164.56 454.36,-169.09 464.67,-171.52 463.94,-164.56"/>
</g>
<!-- Node14 -->
<g id="node14" class="node">
<title>Node14</title>
<g id="a_node14"><a xlink:href="mcp3021_8hpp.html" target="_top" xlink:title="MCP3021 I2C ADC Driver.">
<polygon fill="none" stroke="red" points="601.5,-56.5 601.5,-75.5 684.5,-75.5 684.5,-56.5 601.5,-56.5"/>
<text text-anchor="middle" x="643" y="-63.5" font-family="Helvetica,sans-Serif" font-size="10.00">mcp3021.hpp</text>
</a>
</g>
</g>
<!-- Node13&#45;&gt;Node14 -->
<g id="edge15" class="edge">
<title>Node13&#45;&gt;Node14</title>
<path fill="none" stroke="midnightblue" d="M701.7,-106.62C687.08,-96.76 668.17,-83.99 655.82,-75.65"/>
<polygon fill="midnightblue" stroke="midnightblue" points="699.9,-109.63 710.15,-112.32 703.82,-103.83 699.9,-109.63"/>
</g>
<!-- Node21&#45;&gt;Node14 -->
<g id="edge20" class="edge">
<title>Node21&#45;&gt;Node14</title>
<path fill="none" stroke="midnightblue" d="M584.3,-106.62C598.92,-96.76 617.83,-83.99 630.18,-75.65"/>
<polygon fill="midnightblue" stroke="midnightblue" points="582.18,-103.83 575.85,-112.32 586.1,-109.63 582.18,-103.83"/>
</g>
<!-- Node24&#45;&gt;Node25 -->
<g id="edge24" class="edge">
<title>Node24&#45;&gt;Node25</title>
<path fill="none" stroke="midnightblue" d="M1055.09,-108.5C1079.46,-98.38 1113.14,-84.39 1134.5,-75.52"/>
<polygon fill="midnightblue" stroke="midnightblue" points="1053.49,-105.38 1045.6,-112.44 1056.18,-111.84 1053.49,-105.38"/>
</g>
<!-- Node26 -->
<g id="node22" class="node">
<title>Node26</title>
<g id="a_node22"><a xlink:href="flight__runner_8cpp.html" target="_top" xlink:title="The implementation of the flight runner, where everything comes together.">
<polygon fill="none" stroke="black" points="1057,-0.5 1057,-19.5 1155,-19.5 1155,-0.5 1057,-0.5"/>
<text text-anchor="middle" x="1106" y="-7.5" font-family="Helvetica,sans-Serif" font-size="10.00">flight_runner.cpp</text>
</a>
</g>
</g>
<!-- Node25&#45;&gt;Node26 -->
<g id="edge25" class="edge">
<title>Node25&#45;&gt;Node26</title>
<path fill="none" stroke="midnightblue" d="M1139.97,-48.43C1131.38,-38.97 1120.96,-27.48 1113.94,-19.75"/>
<polygon fill="midnightblue" stroke="midnightblue" points="1137.6,-51.03 1146.91,-56.08 1142.78,-46.33 1137.6,-51.03"/>
</g>
<!-- Node27 -->
<g id="node23" class="node">
<title>Node27</title>
<g id="a_node23"><a xlink:href="main_8cpp.html" target="_top" xlink:title="Defines the entry point/main function of the Flight Computer software.">
<polygon fill="none" stroke="black" points="1173,-0.5 1173,-19.5 1235,-19.5 1235,-0.5 1173,-0.5"/>
<text text-anchor="middle" x="1204" y="-7.5" font-family="Helvetica,sans-Serif" font-size="10.00">main.cpp</text>
</a>
</g>
</g>
<!-- Node25&#45;&gt;Node27 -->
<g id="edge26" class="edge">
<title>Node25&#45;&gt;Node27</title>
<path fill="none" stroke="midnightblue" d="M1170.03,-48.43C1178.62,-38.97 1189.04,-27.48 1196.06,-19.75"/>
<polygon fill="midnightblue" stroke="midnightblue" points="1167.22,-46.33 1163.09,-56.08 1172.4,-51.03 1167.22,-46.33"/>
</g>
<!-- Node30 -->
<g id="node26" class="node">
<title>Node30</title>
<g id="a_node26"><a xlink:href="console__module_8hpp.html" target="_top" xlink:title=" ">
<polygon fill="none" stroke="red" points="915.5,-168.5 915.5,-187.5 1032.5,-187.5 1032.5,-168.5 915.5,-168.5"/>
<text text-anchor="middle" x="974" y="-175.5" font-family="Helvetica,sans-Serif" font-size="10.00">console_module.hpp</text>
</a>
</g>
</g>
<!-- Node29&#45;&gt;Node30 -->
<g id="edge31" class="edge">
<title>Node29&#45;&gt;Node30</title>
<path fill="none" stroke="midnightblue" d="M1074.22,-278.63C1021.15,-268.96 951.32,-254.49 943,-244 928.86,-226.17 950.5,-200.84 964.18,-187.68"/>
<polygon fill="midnightblue" stroke="midnightblue" points="1073.79,-282.11 1084.25,-280.44 1075.03,-275.22 1073.79,-282.11"/>
</g>
<!-- Node32 -->
<g id="node27" class="node">
<title>Node32</title>
<g id="a_node27"><a xlink:href="console__pages_8cpp.html" target="_top" xlink:title=" ">
<polygon fill="none" stroke="black" points="1080.5,-224.5 1080.5,-243.5 1189.5,-243.5 1189.5,-224.5 1080.5,-224.5"/>
<text text-anchor="middle" x="1135" y="-231.5" font-family="Helvetica,sans-Serif" font-size="10.00">console_pages.cpp</text>
</a>
</g>
</g>
<!-- Node29&#45;&gt;Node32 -->
<g id="edge33" class="edge">
<title>Node29&#45;&gt;Node32</title>
<path fill="none" stroke="midnightblue" d="M1135,-269.8C1135,-260.91 1135,-250.78 1135,-243.75"/>
<polygon fill="midnightblue" stroke="midnightblue" points="1131.5,-270.08 1135,-280.08 1138.5,-270.08 1131.5,-270.08"/>
</g>
<!-- Node33 -->
<g id="node28" class="node">
<title>Node33</title>
<g id="a_node28"><a xlink:href="curses__utilities_8hpp.html" target="_top" xlink:title=" ">
<polygon fill="none" stroke="red" points="951.5,-224.5 951.5,-243.5 1062.5,-243.5 1062.5,-224.5 951.5,-224.5"/>
<text text-anchor="middle" x="1007" y="-231.5" font-family="Helvetica,sans-Serif" font-size="10.00">curses_utilities.hpp</text>
</a>
</g>
</g>
<!-- Node29&#45;&gt;Node33 -->
<g id="edge34" class="edge">
<title>Node29&#45;&gt;Node33</title>
<path fill="none" stroke="midnightblue" d="M1105.38,-276.5C1081.38,-266.38 1048.22,-252.39 1027.19,-243.52"/>
<polygon fill="midnightblue" stroke="midnightblue" points="1104.14,-279.78 1114.72,-280.44 1106.86,-273.33 1104.14,-279.78"/>
</g>
<!-- Node30&#45;&gt;Node25 -->
<g id="edge32" class="edge">
<title>Node30&#45;&gt;Node25</title>
<path fill="none" stroke="midnightblue" d="M1021.82,-165.75C1046.03,-158.6 1075.07,-147.67 1098,-132 1120.8,-116.42 1140.27,-89.66 1149.42,-75.83"/>
<polygon fill="midnightblue" stroke="midnightblue" points="1020.79,-162.41 1012.12,-168.5 1022.69,-169.14 1020.79,-162.41"/>
</g>
<!-- Node33&#45;&gt;Node30 -->
<g id="edge35" class="edge">
<title>Node33&#45;&gt;Node30</title>
<path fill="none" stroke="midnightblue" d="M996.17,-215.27C990.53,-206.05 983.88,-195.17 979.35,-187.75"/>
<polygon fill="midnightblue" stroke="midnightblue" points="993.35,-217.38 1001.55,-224.08 999.32,-213.73 993.35,-217.38"/>
</g>
<!-- Node36 -->
<g id="node30" class="node">
<title>Node36</title>
<g id="a_node30"><a xlink:href="data__formatting_8cpp.html" target="_top" xlink:title="Implementation of the DataFormatter class.">
<polygon fill="none" stroke="black" points="1399,-224.5 1399,-243.5 1515,-243.5 1515,-224.5 1399,-224.5"/>
<text text-anchor="middle" x="1457" y="-231.5" font-family="Helvetica,sans-Serif" font-size="10.00">data_formatting.cpp</text>
</a>
</g>
</g>
<!-- Node35&#45;&gt;Node36 -->
<g id="edge37" class="edge">
<title>Node35&#45;&gt;Node36</title>
<path fill="none" stroke="midnightblue" d="M1381.08,-275.59C1399.76,-265.61 1424.7,-252.27 1440.81,-243.65"/>
<polygon fill="midnightblue" stroke="midnightblue" points="1379.4,-272.52 1372.23,-280.32 1382.7,-278.7 1379.4,-272.52"/>
</g>
<!-- Node35&#45;&gt;Node37 -->
<g id="edge38" class="edge">
<title>Node35&#45;&gt;Node37</title>
<path fill="none" stroke="midnightblue" d="M1350.83,-270.4C1348.32,-261.36 1345.43,-250.94 1343.43,-243.75"/>
<polygon fill="midnightblue" stroke="midnightblue" points="1347.47,-271.38 1353.52,-280.08 1354.22,-269.51 1347.47,-271.38"/>
</g>
<!-- Node38 -->
<g id="node32" class="node">
<title>Node38</title>
<g id="a_node32"><a xlink:href="data__log_8cpp.html" target="_top" xlink:title="The implementation of the data log class.">
<polygon fill="none" stroke="black" points="1365.5,-168.5 1365.5,-187.5 1444.5,-187.5 1444.5,-168.5 1365.5,-168.5"/>
<text text-anchor="middle" x="1405" y="-175.5" font-family="Helvetica,sans-Serif" font-size="10.00">data_log.cpp</text>
</a>
</g>
</g>
<!-- Node37&#45;&gt;Node38 -->
<g id="edge39" class="edge">
<title>Node37&#45;&gt;Node38</title>
<path fill="none" stroke="midnightblue" d="M1358.99,-217.82C1370.46,-208.15 1384.91,-195.95 1394.53,-187.83"/>
<polygon fill="midnightblue" stroke="midnightblue" points="1356.67,-215.2 1351.28,-224.32 1361.18,-220.55 1356.67,-215.2"/>
</g>
<!-- Node39 -->
<g id="node33" class="node">
<title>Node39</title>
<g id="a_node33"><a xlink:href="data__module_8hpp.html" target="_top" xlink:title="The data module header file.">
<polygon fill="none" stroke="black" points="1462.5,-168.5 1462.5,-187.5 1563.5,-187.5 1563.5,-168.5 1462.5,-168.5"/>
<text text-anchor="middle" x="1513" y="-175.5" font-family="Helvetica,sans-Serif" font-size="10.00">data_module.hpp</text>
</a>
</g>
</g>
<!-- Node37&#45;&gt;Node39 -->
<g id="edge40" class="edge">
<title>Node37&#45;&gt;Node39</title>
<path fill="none" stroke="midnightblue" d="M1377.83,-221.44C1410.26,-211.26 1456.74,-196.66 1485.87,-187.52"/>
<polygon fill="midnightblue" stroke="midnightblue" points="1376.75,-218.11 1368.25,-224.44 1378.84,-224.79 1376.75,-218.11"/>
</g>
<!-- Node39&#45;&gt;Node25 -->
<g id="edge41" class="edge">
<title>Node39&#45;&gt;Node25</title>
<path fill="none" stroke="midnightblue" d="M1477.63,-165.26C1437.39,-151.98 1369.63,-129.89 1311,-112 1267.59,-98.76 1217.08,-84.37 1185.57,-75.52"/>
<polygon fill="midnightblue" stroke="midnightblue" points="1476.66,-168.62 1487.25,-168.44 1478.85,-161.98 1476.66,-168.62"/>
</g>
<!-- Node40 -->
<g id="node34" class="node">
<title>Node40</title>
<g id="a_node34"><a xlink:href="data__module_8cpp.html" target="_top" xlink:title=" ">
<polygon fill="none" stroke="black" points="1620.5,-112.5 1620.5,-131.5 1721.5,-131.5 1721.5,-112.5 1620.5,-112.5"/>
<text text-anchor="middle" x="1671" y="-119.5" font-family="Helvetica,sans-Serif" font-size="10.00">data_module.cpp</text>
</a>
</g>
</g>
<!-- Node39&#45;&gt;Node40 -->
<g id="edge42" class="edge">
<title>Node39&#45;&gt;Node40</title>
<path fill="none" stroke="midnightblue" d="M1547.61,-165.17C1577.36,-155 1619.55,-140.59 1646.08,-131.52"/>
<polygon fill="midnightblue" stroke="midnightblue" points="1546.37,-161.9 1538.04,-168.44 1548.63,-168.52 1546.37,-161.9"/>
</g>
<!-- Node41&#45;&gt;Node6 -->
<g id="edge46" class="edge">
<title>Node41&#45;&gt;Node6</title>
<path fill="none" stroke="midnightblue" d="M1573.41,-279.42C1626.58,-268.91 1710.88,-252.23 1759.66,-242.58"/>
<polygon fill="midnightblue" stroke="midnightblue" points="1572.67,-276 1563.54,-281.38 1574.02,-282.87 1572.67,-276"/>
</g>
<!-- Node41&#45;&gt;Node39 -->
<g id="edge45" class="edge">
<title>Node41&#45;&gt;Node39</title>
<path fill="none" stroke="midnightblue" d="M1525.82,-270.05C1526.12,-257.05 1525.98,-239.41 1524,-224 1522.34,-211.08 1518.38,-196.49 1515.69,-187.52"/>
<polygon fill="midnightblue" stroke="midnightblue" points="1522.32,-270.01 1525.49,-280.12 1529.32,-270.25 1522.32,-270.01"/>
</g>
<!-- Node42&#45;&gt;Node24 -->
<g id="edge50" class="edge">
<title>Node42&#45;&gt;Node24</title>
<path fill="none" stroke="midnightblue" d="M1197.81,-223.4C1156.28,-214.37 1099.49,-200.42 1080,-188 1056.81,-173.22 1038.29,-145.61 1029.89,-131.61"/>
<polygon fill="midnightblue" stroke="midnightblue" points="1197.23,-226.86 1207.74,-225.53 1198.7,-220.02 1197.23,-226.86"/>
</g>
<!-- Node42&#45;&gt;Node30 -->
<g id="edge48" class="edge">
<title>Node42&#45;&gt;Node30</title>
<path fill="none" stroke="midnightblue" d="M1197.78,-223.59C1146.77,-213.43 1066.19,-197.37 1016.91,-187.55"/>
<polygon fill="midnightblue" stroke="midnightblue" points="1197.4,-227.08 1207.89,-225.6 1198.76,-220.22 1197.4,-227.08"/>
</g>
<!-- Node42&#45;&gt;Node39 -->
<g id="edge49" class="edge">
<title>Node42&#45;&gt;Node39</title>
<path fill="none" stroke="midnightblue" d="M1292.28,-223.47C1342.83,-213.29 1422.23,-197.29 1470.76,-187.51"/>
<polygon fill="midnightblue" stroke="midnightblue" points="1291.38,-220.09 1282.26,-225.49 1292.76,-226.95 1291.38,-220.09"/>
</g>
<!-- Node43 -->
<g id="node37" class="node">
<title>Node43</title>
<g id="a_node37"><a xlink:href="module_8cpp.html" target="_top" xlink:title="Implementation of the module base class.">
<polygon fill="none" stroke="black" points="1273,-168.5 1273,-187.5 1347,-187.5 1347,-168.5 1273,-168.5"/>
<text text-anchor="middle" x="1310" y="-175.5" font-family="Helvetica,sans-Serif" font-size="10.00">module.cpp</text>
</a>
</g>
</g>
<!-- Node42&#45;&gt;Node43 -->
<g id="edge51" class="edge">
<title>Node42&#45;&gt;Node43</title>
<path fill="none" stroke="midnightblue" d="M1263.27,-217.82C1274.92,-208.15 1289.6,-195.95 1299.37,-187.83"/>
<polygon fill="midnightblue" stroke="midnightblue" points="1260.9,-215.24 1255.44,-224.32 1265.37,-220.63 1260.9,-215.24"/>
</g>
<!-- Node44 -->
<g id="node38" class="node">
<title>Node44</title>
<g id="a_node38"><a xlink:href="server__module_8hpp.html" target="_top" xlink:title="Header file for the server module.">
<polygon fill="none" stroke="red" points="787,-168.5 787,-187.5 897,-187.5 897,-168.5 787,-168.5"/>
<text text-anchor="middle" x="842" y="-175.5" font-family="Helvetica,sans-Serif" font-size="10.00">server_module.hpp</text>
</a>
</g>
</g>
<!-- Node42&#45;&gt;Node44 -->
<g id="edge52" class="edge">
<title>Node42&#45;&gt;Node44</title>
<path fill="none" stroke="midnightblue" d="M1197.96,-223.93C1068.19,-203.5 1033.49,-204.55 907,-188 903.84,-187.59 900.59,-187.16 897.31,-186.72"/>
<polygon fill="midnightblue" stroke="midnightblue" points="1197.46,-227.39 1207.88,-225.5 1198.56,-220.48 1197.46,-227.39"/>
</g>
<!-- Node46 -->
<g id="node39" class="node">
<title>Node46</title>
<g id="a_node39"><a xlink:href="system__module_8hpp.html" target="_top" xlink:title=" ">
<polygon fill="none" stroke="red" points="1186,-112.5 1186,-131.5 1302,-131.5 1302,-112.5 1186,-112.5"/>
<text text-anchor="middle" x="1244" y="-119.5" font-family="Helvetica,sans-Serif" font-size="10.00">system_module.hpp</text>
</a>
</g>
</g>
<!-- Node42&#45;&gt;Node46 -->
<g id="edge54" class="edge">
<title>Node42&#45;&gt;Node46</title>
<path fill="none" stroke="midnightblue" d="M1244.83,-214.35C1244.61,-190.25 1244.24,-149.31 1244.08,-131.59"/>
<polygon fill="midnightblue" stroke="midnightblue" points="1241.33,-214.4 1244.92,-224.37 1248.33,-214.34 1241.33,-214.4"/>
</g>
<!-- Node48 -->
<g id="node40" class="node">
<title>Node48</title>
<g id="a_node40"><a xlink:href="telemetry__module_8hpp.html" target="_top" xlink:title="The telemetry module.">
<polygon fill="none" stroke="red" points="1089,-168.5 1089,-187.5 1217,-187.5 1217,-168.5 1089,-168.5"/>
<text text-anchor="middle" x="1153" y="-175.5" font-family="Helvetica,sans-Serif" font-size="10.00">telemetry_module.hpp</text>
</a>
</g>
</g>
<!-- Node42&#45;&gt;Node48 -->
<g id="edge56" class="edge">
<title>Node42&#45;&gt;Node48</title>
<path fill="none" stroke="midnightblue" d="M1221.45,-219.18C1204.52,-209.24 1182.22,-196.15 1167.74,-187.65"/>
<polygon fill="midnightblue" stroke="midnightblue" points="1219.82,-222.28 1230.22,-224.32 1223.37,-216.24 1219.82,-222.28"/>
</g>
<!-- Node44&#45;&gt;Node25 -->
<g id="edge53" class="edge">
<title>Node44&#45;&gt;Node25</title>
<path fill="none" stroke="midnightblue" d="M861.79,-162.69C883.08,-147.93 918.42,-125.25 952,-112 1002.53,-92.05 1063.81,-80.01 1105.73,-73.47"/>
<polygon fill="midnightblue" stroke="midnightblue" points="859.73,-159.86 853.57,-168.48 863.76,-165.58 859.73,-159.86"/>
</g>
<!-- Node46&#45;&gt;Node25 -->
<g id="edge55" class="edge">
<title>Node46&#45;&gt;Node25</title>
<path fill="none" stroke="midnightblue" d="M1220.76,-106.9C1204.44,-97 1183.13,-84.07 1169.26,-75.65"/>
<polygon fill="midnightblue" stroke="midnightblue" points="1219.34,-110.13 1229.7,-112.32 1222.97,-104.14 1219.34,-110.13"/>
</g>
<!-- Node48&#45;&gt;Node25 -->
<g id="edge57" class="edge">
<title>Node48&#45;&gt;Node25</title>
<path fill="none" stroke="midnightblue" d="M1153.34,-158.35C1153.78,-134.25 1154.52,-93.31 1154.84,-75.59"/>
<polygon fill="midnightblue" stroke="midnightblue" points="1149.84,-158.31 1153.16,-168.37 1156.84,-158.43 1149.84,-158.31"/>
</g>
<!-- Node50&#45;&gt;Node44 -->
<g id="edge60" class="edge">
<title>Node50&#45;&gt;Node44</title>
<path fill="none" stroke="midnightblue" d="M838.75,-214.1C839.58,-205.14 840.53,-194.86 841.19,-187.75"/>
<polygon fill="midnightblue" stroke="midnightblue" points="835.26,-213.8 837.83,-224.08 842.23,-214.45 835.26,-213.8"/>
</g>
<!-- Node51 -->
<g id="node42" class="node">
<title>Node51</title>
<g id="a_node42"><a xlink:href="request__handler_8cpp.html" target="_top" xlink:title="The request handler class implementation.">
<polygon fill="none" stroke="black" points="653.5,-168.5 653.5,-187.5 768.5,-187.5 768.5,-168.5 653.5,-168.5"/>
<text text-anchor="middle" x="711" y="-175.5" font-family="Helvetica,sans-Serif" font-size="10.00">request_handler.cpp</text>
</a>
</g>
</g>
<!-- Node50&#45;&gt;Node51 -->
<g id="edge59" class="edge">
<title>Node50&#45;&gt;Node51</title>
<path fill="none" stroke="midnightblue" d="M807.84,-220.5C784.22,-210.38 751.57,-196.39 730.87,-187.52"/>
<polygon fill="midnightblue" stroke="midnightblue" points="806.46,-223.72 817.03,-224.44 809.22,-217.29 806.46,-223.72"/>
</g>
<!-- Node52&#45;&gt;Node50 -->
<g id="edge62" class="edge">
<title>Node52&#45;&gt;Node50</title>
<path fill="none" stroke="midnightblue" d="M988.03,-277.7C951.98,-267.51 899.76,-252.74 867.12,-243.52"/>
<polygon fill="midnightblue" stroke="midnightblue" points="987.16,-281.09 997.74,-280.44 989.06,-274.35 987.16,-281.09"/>
</g>
<!-- Node54&#45;&gt;Node8 -->
<g id="edge70" class="edge">
<title>Node54&#45;&gt;Node8</title>
<path fill="none" stroke="midnightblue" d="M1265.28,-438.78C1261.73,-425.65 1256.54,-407.58 1251,-392 1246.39,-379.06 1240.01,-364.47 1235.94,-355.51"/>
<polygon fill="midnightblue" stroke="midnightblue" points="1261.9,-439.71 1267.85,-448.49 1268.67,-437.92 1261.9,-439.71"/>
</g>
<!-- Node55 -->
<g id="node46" class="node">
<title>Node55</title>
<g id="a_node46"><a xlink:href="validation_8hpp.html" target="_top" xlink:title=" ">
<polygon fill="none" stroke="black" points="646,-392.5 646,-411.5 732,-411.5 732,-392.5 646,-392.5"/>
<text text-anchor="middle" x="689" y="-399.5" font-family="Helvetica,sans-Serif" font-size="10.00">validation.hpp</text>
</a>
</g>
</g>
<!-- Node54&#45;&gt;Node55 -->
<g id="edge65" class="edge">
<title>Node54&#45;&gt;Node55</title>
<path fill="none" stroke="midnightblue" d="M1221.15,-452.46C1109.69,-442.1 838.08,-416.86 732.23,-407.02"/>
<polygon fill="midnightblue" stroke="midnightblue" points="1221.15,-455.97 1231.43,-453.42 1221.8,-449 1221.15,-455.97"/>
</g>
<!-- Node56 -->
<g id="node47" class="node">
<title>Node56</title>
<g id="a_node47"><a xlink:href="error__frame_8hpp.html" target="_top" xlink:title="The error frame.">
<polygon fill="none" stroke="black" points="1146.5,-392.5 1146.5,-411.5 1241.5,-411.5 1241.5,-392.5 1146.5,-392.5"/>
<text text-anchor="middle" x="1194" y="-399.5" font-family="Helvetica,sans-Serif" font-size="10.00">error_frame.hpp</text>
</a>
</g>
</g>
<!-- Node54&#45;&gt;Node56 -->
<g id="edge67" class="edge">
<title>Node54&#45;&gt;Node56</title>
<path fill="none" stroke="midnightblue" d="M1249.42,-442.38C1235.69,-432.62 1218.07,-420.11 1206.43,-411.83"/>
<polygon fill="midnightblue" stroke="midnightblue" points="1247.61,-445.38 1257.79,-448.32 1251.66,-439.68 1247.61,-445.38"/>
</g>
<!-- Node58 -->
<g id="node49" class="node">
<title>Node58</title>
<g id="a_node49"><a xlink:href="to__string_8hpp.html" target="_top" xlink:title="Generic to_string functions for a variety of types.">
<polygon fill="none" stroke="black" points="1624,-336.5 1624,-355.5 1704,-355.5 1704,-336.5 1624,-336.5"/>
<text text-anchor="middle" x="1664" y="-343.5" font-family="Helvetica,sans-Serif" font-size="10.00">to_string.hpp</text>
</a>
</g>
</g>
<!-- Node54&#45;&gt;Node58 -->
<g id="edge71" class="edge">
<title>Node54&#45;&gt;Node58</title>
<path fill="none" stroke="midnightblue" d="M1310.67,-445.65C1389.85,-423.54 1563.11,-375.17 1633.43,-355.53"/>
<polygon fill="midnightblue" stroke="midnightblue" points="1309.28,-442.4 1300.59,-448.46 1311.16,-449.14 1309.28,-442.4"/>
</g>
<!-- Node55&#45;&gt;Node11 -->
<g id="edge66" class="edge">
<title>Node55&#45;&gt;Node11</title>
<path fill="none" stroke="midnightblue" d="M663.54,-387.61C585.03,-346.31 348.13,-221.68 283.46,-187.66"/>
<polygon fill="midnightblue" stroke="midnightblue" points="662.24,-390.88 672.72,-392.43 665.5,-384.68 662.24,-390.88"/>
</g>
<!-- Node56&#45;&gt;Node8 -->
<g id="edge69" class="edge">
<title>Node56&#45;&gt;Node8</title>
<path fill="none" stroke="midnightblue" d="M1206.06,-383.86C1212.64,-374.5 1220.51,-363.33 1225.84,-355.75"/>
<polygon fill="midnightblue" stroke="midnightblue" points="1203.17,-381.89 1200.27,-392.08 1208.89,-385.92 1203.17,-381.89"/>
</g>
<!-- Node57 -->
<g id="node48" class="node">
<title>Node57</title>
<g id="a_node48"><a xlink:href="error__frame_8cpp.html" target="_top" xlink:title="The implementation of the error frame.">
<polygon fill="none" stroke="black" points="1069.5,-336.5 1069.5,-355.5 1164.5,-355.5 1164.5,-336.5 1069.5,-336.5"/>
<text text-anchor="middle" x="1117" y="-343.5" font-family="Helvetica,sans-Serif" font-size="10.00">error_frame.cpp</text>
</a>
</g>
</g>
<!-- Node56&#45;&gt;Node57 -->
<g id="edge68" class="edge">
<title>Node56&#45;&gt;Node57</title>
<path fill="none" stroke="midnightblue" d="M1173.1,-386.34C1159.09,-376.52 1141.12,-363.91 1129.34,-355.65"/>
<polygon fill="midnightblue" stroke="midnightblue" points="1171.43,-389.45 1181.63,-392.32 1175.45,-383.72 1171.43,-389.45"/>
</g>
<!-- Node58&#45;&gt;Node5 -->
<g id="edge75" class="edge">
<title>Node58&#45;&gt;Node5</title>
<path fill="none" stroke="midnightblue" d="M1700.17,-333.3C1731.64,-323.13 1776.49,-308.62 1804.66,-299.52"/>
<polygon fill="midnightblue" stroke="midnightblue" points="1698.9,-330.04 1690.46,-336.44 1701.05,-336.7 1698.9,-330.04"/>
</g>
<!-- Node58&#45;&gt;Node6 -->
<g id="edge74" class="edge">
<title>Node58&#45;&gt;Node6</title>
<path fill="none" stroke="midnightblue" d="M1694.51,-332.17C1711.06,-324.33 1731.3,-313.26 1747,-300 1766.95,-283.16 1784.31,-257.41 1792.68,-243.93"/>
<polygon fill="midnightblue" stroke="midnightblue" points="1692.88,-329.06 1685.24,-336.4 1695.79,-335.43 1692.88,-329.06"/>
</g>
<!-- Node58&#45;&gt;Node36 -->
<g id="edge72" class="edge">
<title>Node58&#45;&gt;Node36</title>
<path fill="none" stroke="midnightblue" d="M1613.89,-338.47C1565.76,-331.23 1497.56,-318.14 1478,-300 1461.83,-285 1458.07,-257.48 1457.22,-243.56"/>
<polygon fill="midnightblue" stroke="midnightblue" points="1613.43,-341.94 1623.83,-339.92 1614.44,-335.01 1613.43,-341.94"/>
</g>
<!-- Node58&#45;&gt;Node40 -->
<g id="edge73" class="edge">
<title>Node58&#45;&gt;Node40</title>
<path fill="none" stroke="midnightblue" d="M1656.44,-326.78C1653.49,-318.72 1650.47,-309.04 1649,-300 1638.53,-235.51 1660.27,-157.08 1668.23,-131.51"/>
<polygon fill="midnightblue" stroke="midnightblue" points="1653.24,-328.21 1660.14,-336.25 1659.76,-325.66 1653.24,-328.21"/>
</g>
<!-- Node59 -->
<g id="node50" class="node">
<title>Node59</title>
<g id="a_node50"><a xlink:href="to__string_8cpp.html" target="_top" xlink:title="Generic to_string functions for a variety of types.">
<polygon fill="none" stroke="black" points="1658,-280.5 1658,-299.5 1738,-299.5 1738,-280.5 1658,-280.5"/>
<text text-anchor="middle" x="1698" y="-287.5" font-family="Helvetica,sans-Serif" font-size="10.00">to_string.cpp</text>
</a>
</g>
</g>
<!-- Node58&#45;&gt;Node59 -->
<g id="edge76" class="edge">
<title>Node58&#45;&gt;Node59</title>
<path fill="none" stroke="midnightblue" d="M1674.98,-327.57C1680.83,-318.27 1687.77,-307.25 1692.49,-299.75"/>
<polygon fill="midnightblue" stroke="midnightblue" points="1671.98,-325.76 1669.61,-336.08 1677.9,-329.49 1671.98,-325.76"/>
</g>
</g>
</svg>
