<?xml version="1.0" encoding="UTF-8" standalone="no"?>
<!DOCTYPE svg PUBLIC "-//W3C//DTD SVG 1.1//EN"
 "http://www.w3.org/Graphics/SVG/1.1/DTD/svg11.dtd">
<!-- Generated by graphviz version 2.43.0 (0)
 -->
<!-- Title: positional.hpp Pages: 1 -->
<svg width="1843pt" height="532pt"
 viewBox="0.00 0.00 1842.50 532.00" xmlns="http://www.w3.org/2000/svg" xmlns:xlink="http://www.w3.org/1999/xlink">
<g id="graph0" class="graph" transform="scale(1 1) rotate(0) translate(4 528)">
<title>positional.hpp</title>
<!-- Node1 -->
<g id="node1" class="node">
<title>Node1</title>
<g id="a_node1"><a xlink:title="Positional data for the flight system (gps/imu data)">
<polygon fill="#bfbfbf" stroke="black" points="1515,-504.5 1515,-523.5 1601,-523.5 1601,-504.5 1515,-504.5"/>
<text text-anchor="middle" x="1558" y="-511.5" font-family="Helvetica,sans-Serif" font-size="10.00">positional.hpp</text>
</a>
</g>
</g>
<!-- Node2 -->
<g id="node2" class="node">
<title>Node2</title>
<g id="a_node2"><a xlink:href="samm8q_8hpp.html" target="_top" xlink:title="SAM&#45;M8Q GPS extension (I2C).">
<polygon fill="none" stroke="black" points="0,-112.5 0,-131.5 80,-131.5 80,-112.5 0,-112.5"/>
<text text-anchor="middle" x="40" y="-119.5" font-family="Helvetica,sans-Serif" font-size="10.00">samm8q.hpp</text>
</a>
</g>
</g>
<!-- Node1&#45;&gt;Node2 -->
<g id="edge1" class="edge">
<title>Node1&#45;&gt;Node2</title>
<path fill="none" stroke="midnightblue" d="M1504.39,-511.71C1245.38,-505.16 136,-472.99 136,-403 136,-403 136,-403 136,-233 136,-184.84 83.12,-147.57 55.85,-131.56"/>
<polygon fill="midnightblue" stroke="midnightblue" points="1504.58,-515.22 1514.67,-511.97 1504.76,-508.22 1504.58,-515.22"/>
</g>
<!-- Node4 -->
<g id="node4" class="node">
<title>Node4</title>
<g id="a_node4"><a xlink:href="positional_8cpp.html" target="_top" xlink:title="Positional data for the flight system (gps/imu data) handling.">
<polygon fill="none" stroke="black" points="1749.5,-448.5 1749.5,-467.5 1834.5,-467.5 1834.5,-448.5 1749.5,-448.5"/>
<text text-anchor="middle" x="1792" y="-455.5" font-family="Helvetica,sans-Serif" font-size="10.00">positional.cpp</text>
</a>
</g>
</g>
<!-- Node1&#45;&gt;Node4 -->
<g id="edge3" class="edge">
<title>Node1&#45;&gt;Node4</title>
<path fill="none" stroke="midnightblue" d="M1605,-502.15C1649.22,-491.95 1714.52,-476.88 1755.1,-467.52"/>
<polygon fill="midnightblue" stroke="midnightblue" points="1604.03,-498.78 1595.08,-504.44 1605.61,-505.61 1604.03,-498.78"/>
</g>
<!-- Node5 -->
<g id="node5" class="node">
<title>Node5</title>
<g id="a_node5"><a xlink:href="blocks_8hpp.html" target="_top" xlink:title=" ">
<polygon fill="none" stroke="black" points="1523.5,-392.5 1523.5,-411.5 1592.5,-411.5 1592.5,-392.5 1523.5,-392.5"/>
<text text-anchor="middle" x="1558" y="-399.5" font-family="Helvetica,sans-Serif" font-size="10.00">blocks.hpp</text>
</a>
</g>
</g>
<!-- Node1&#45;&gt;Node5 -->
<g id="edge4" class="edge">
<title>Node1&#45;&gt;Node5</title>
<path fill="none" stroke="midnightblue" d="M1558,-494.35C1558,-470.25 1558,-429.31 1558,-411.59"/>
<polygon fill="midnightblue" stroke="midnightblue" points="1554.5,-494.37 1558,-504.37 1561.5,-494.37 1554.5,-494.37"/>
</g>
<!-- Node52 -->
<g id="node44" class="node">
<title>Node52</title>
<g id="a_node44"><a xlink:href="streams_8hpp.html" target="_top" xlink:title="The header file for the data streams.">
<polygon fill="none" stroke="black" points="1146.5,-448.5 1146.5,-467.5 1223.5,-467.5 1223.5,-448.5 1146.5,-448.5"/>
<text text-anchor="middle" x="1185" y="-455.5" font-family="Helvetica,sans-Serif" font-size="10.00">streams.hpp</text>
</a>
</g>
</g>
<!-- Node1&#45;&gt;Node52 -->
<g id="edge61" class="edge">
<title>Node1&#45;&gt;Node52</title>
<path fill="none" stroke="midnightblue" d="M1504.53,-505.26C1428.37,-494.23 1290.5,-474.27 1223.55,-464.58"/>
<polygon fill="midnightblue" stroke="midnightblue" points="1504.45,-508.78 1514.85,-506.75 1505.45,-501.86 1504.45,-508.78"/>
</g>
<!-- Node57 -->
<g id="node49" class="node">
<title>Node57</title>
<g id="a_node49"><a xlink:href="to__json_8hpp.html" target="_top" xlink:title="Utility functions for converting data to JSON.">
<polygon fill="none" stroke="black" points="1674.5,-280.5 1674.5,-299.5 1747.5,-299.5 1747.5,-280.5 1674.5,-280.5"/>
<text text-anchor="middle" x="1711" y="-287.5" font-family="Helvetica,sans-Serif" font-size="10.00">to_json.hpp</text>
</a>
</g>
</g>
<!-- Node1&#45;&gt;Node57 -->
<g id="edge75" class="edge">
<title>Node1&#45;&gt;Node57</title>
<path fill="none" stroke="midnightblue" d="M1569.71,-496C1600.32,-451.6 1681.87,-333.27 1704.88,-299.88"/>
<polygon fill="midnightblue" stroke="midnightblue" points="1566.79,-494.08 1564,-504.3 1572.55,-498.05 1566.79,-494.08"/>
</g>
<!-- Node3 -->
<g id="node3" class="node">
<title>Node3</title>
<g id="a_node3"><a xlink:href="samm8q_8cpp.html" target="_top" xlink:title="The SAM&#45;M8Q GPS extension (I2C).">
<polygon fill="none" stroke="black" points="0,-56.5 0,-75.5 80,-75.5 80,-56.5 0,-56.5"/>
<text text-anchor="middle" x="40" y="-63.5" font-family="Helvetica,sans-Serif" font-size="10.00">samm8q.cpp</text>
</a>
</g>
</g>
<!-- Node2&#45;&gt;Node3 -->
<g id="edge2" class="edge">
<title>Node2&#45;&gt;Node3</title>
<path fill="none" stroke="midnightblue" d="M40,-101.8C40,-92.91 40,-82.78 40,-75.75"/>
<polygon fill="midnightblue" stroke="midnightblue" points="36.5,-102.08 40,-112.08 43.5,-102.08 36.5,-102.08"/>
</g>
<!-- Node5&#45;&gt;Node5 -->
<g id="edge6" class="edge">
<title>Node5&#45;&gt;Node5</title>
<path fill="none" stroke="midnightblue" d="M1590.51,-412.5C1601.59,-412.56 1610.5,-409.06 1610.5,-402 1610.5,-392.87 1595.61,-389.69 1580.39,-392.47"/>
<polygon fill="midnightblue" stroke="midnightblue" points="1590.68,-409 1580.39,-411.53 1590.01,-415.97 1590.68,-409"/>
</g>
<!-- Node6 -->
<g id="node6" class="node">
<title>Node6</title>
<g id="a_node6"><a xlink:href="influxdb_8cpp.html" target="_top" xlink:title=" ">
<polygon fill="none" stroke="black" points="1654,-224.5 1654,-243.5 1730,-243.5 1730,-224.5 1654,-224.5"/>
<text text-anchor="middle" x="1692" y="-231.5" font-family="Helvetica,sans-Serif" font-size="10.00">influxdb.cpp</text>
</a>
</g>
</g>
<!-- Node5&#45;&gt;Node6 -->
<g id="edge5" class="edge">
<title>Node5&#45;&gt;Node6</title>
<path fill="none" stroke="midnightblue" d="M1602.28,-392.6C1649.95,-380.93 1723.44,-354.74 1757,-300 1771.43,-276.46 1736.67,-255.05 1712.62,-243.64"/>
<polygon fill="midnightblue" stroke="midnightblue" points="1601.46,-389.19 1592.52,-394.87 1603.05,-396.01 1601.46,-389.19"/>
</g>
<!-- Node7 -->
<g id="node7" class="node">
<title>Node7</title>
<g id="a_node7"><a xlink:href="shared__data_8hpp.html" target="_top" xlink:title="Contains the SharedData struct, used across all modules and extensions.">
<polygon fill="none" stroke="black" points="1098,-336.5 1098,-355.5 1196,-355.5 1196,-336.5 1098,-336.5"/>
<text text-anchor="middle" x="1147" y="-343.5" font-family="Helvetica,sans-Serif" font-size="10.00">shared_data.hpp</text>
</a>
</g>
</g>
<!-- Node5&#45;&gt;Node7 -->
<g id="edge7" class="edge">
<title>Node5&#45;&gt;Node7</title>
<path fill="none" stroke="midnightblue" d="M1513.37,-395.14C1435.81,-384.95 1276.74,-364.05 1196.14,-353.46"/>
<polygon fill="midnightblue" stroke="midnightblue" points="1512.94,-398.61 1523.31,-396.44 1513.85,-391.67 1512.94,-398.61"/>
</g>
<!-- Node8 -->
<g id="node8" class="node">
<title>Node8</title>
<g id="a_node8"><a xlink:href="cfg__section_8hpp.html" target="_top" xlink:title="This file contains the base class for all configuration sections.">
<polygon fill="none" stroke="black" points="583.5,-280.5 583.5,-299.5 676.5,-299.5 676.5,-280.5 583.5,-280.5"/>
<text text-anchor="middle" x="630" y="-287.5" font-family="Helvetica,sans-Serif" font-size="10.00">cfg_section.hpp</text>
</a>
</g>
</g>
<!-- Node7&#45;&gt;Node8 -->
<g id="edge8" class="edge">
<title>Node7&#45;&gt;Node8</title>
<path fill="none" stroke="midnightblue" d="M1087.69,-335.9C931.02,-316.32 757.97,-301.34 676.68,-294.7"/>
<polygon fill="midnightblue" stroke="midnightblue" points="1087.62,-339.42 1097.98,-337.2 1088.5,-332.47 1087.62,-339.42"/>
</g>
<!-- Node11 -->
<g id="node11" class="node">
<title>Node11</title>
<g id="a_node11"><a xlink:href="extension__base_8hpp.html" target="_top" xlink:title="The new implementation of the extension system.">
<polygon fill="none" stroke="black" points="318,-168.5 318,-187.5 432,-187.5 432,-168.5 318,-168.5"/>
<text text-anchor="middle" x="375" y="-175.5" font-family="Helvetica,sans-Serif" font-size="10.00">extension_base.hpp</text>
</a>
</g>
</g>
<!-- Node7&#45;&gt;Node11 -->
<g id="edge27" class="edge">
<title>Node7&#45;&gt;Node11</title>
<path fill="none" stroke="midnightblue" d="M1088.04,-336.01C859.58,-311.67 794.07,-354.56 575,-300 515.53,-285.19 500.61,-277.04 449,-244 422.5,-227.04 395.87,-200.88 382.98,-187.51"/>
<polygon fill="midnightblue" stroke="midnightblue" points="1087.67,-339.49 1097.99,-337.1 1088.43,-332.53 1087.67,-339.49"/>
</g>
<!-- Node24 -->
<g id="node21" class="node">
<title>Node24</title>
<g id="a_node21"><a xlink:href="flight__runner_8hpp.html" target="_top" xlink:title=" ">
<polygon fill="none" stroke="black" points="1135,-56.5 1135,-75.5 1233,-75.5 1233,-56.5 1135,-56.5"/>
<text text-anchor="middle" x="1184" y="-63.5" font-family="Helvetica,sans-Serif" font-size="10.00">flight_runner.hpp</text>
</a>
</g>
</g>
<!-- Node7&#45;&gt;Node24 -->
<g id="edge28" class="edge">
<title>Node7&#45;&gt;Node24</title>
<path fill="none" stroke="midnightblue" d="M1161.54,-329.1C1175.84,-314.36 1198.97,-292.84 1223,-280 1239.69,-271.08 1539.57,-203.08 1551,-188 1563.5,-171.51 1559.3,-130.02 1540,-112 1496.58,-71.44 1320.21,-66.34 1233.13,-66.38"/>
<polygon fill="midnightblue" stroke="midnightblue" points="1158.88,-326.82 1154.55,-336.49 1163.96,-331.63 1158.88,-326.82"/>
</g>
<!-- Node28 -->
<g id="node25" class="node">
<title>Node28</title>
<g id="a_node25"><a xlink:href="console__pages_8hpp.html" target="_top" xlink:title=" ">
<polygon fill="none" stroke="black" points="899,-280.5 899,-299.5 1009,-299.5 1009,-280.5 899,-280.5"/>
<text text-anchor="middle" x="954" y="-287.5" font-family="Helvetica,sans-Serif" font-size="10.00">console_pages.hpp</text>
</a>
</g>
</g>
<!-- Node7&#45;&gt;Node28 -->
<g id="edge29" class="edge">
<title>Node7&#45;&gt;Node28</title>
<path fill="none" stroke="midnightblue" d="M1106.61,-333.7C1070.18,-323.51 1017.41,-308.74 984.44,-299.52"/>
<polygon fill="midnightblue" stroke="midnightblue" points="1105.85,-337.12 1116.42,-336.44 1107.73,-330.38 1105.85,-337.12"/>
</g>
<!-- Node34 -->
<g id="node29" class="node">
<title>Node34</title>
<g id="a_node29"><a xlink:href="data__formatting_8hpp.html" target="_top" xlink:title="This file contains the DataFormatter class, which is used to format data for the data and log files.">
<polygon fill="none" stroke="black" points="1232,-280.5 1232,-299.5 1348,-299.5 1348,-280.5 1232,-280.5"/>
<text text-anchor="middle" x="1290" y="-287.5" font-family="Helvetica,sans-Serif" font-size="10.00">data_formatting.hpp</text>
</a>
</g>
</g>
<!-- Node7&#45;&gt;Node34 -->
<g id="edge35" class="edge">
<title>Node7&#45;&gt;Node34</title>
<path fill="none" stroke="midnightblue" d="M1179.03,-332.91C1205.91,-322.75 1243.64,-308.51 1267.45,-299.52"/>
<polygon fill="midnightblue" stroke="midnightblue" points="1177.78,-329.64 1169.66,-336.44 1180.25,-336.19 1177.78,-329.64"/>
</g>
<!-- Node36 -->
<g id="node31" class="node">
<title>Node36</title>
<g id="a_node31"><a xlink:href="data__log_8hpp.html" target="_top" xlink:title="The data log is responsible for writing data to files and managing the file system.">
<polygon fill="none" stroke="black" points="1251,-224.5 1251,-243.5 1331,-243.5 1331,-224.5 1251,-224.5"/>
<text text-anchor="middle" x="1291" y="-231.5" font-family="Helvetica,sans-Serif" font-size="10.00">data_log.hpp</text>
</a>
</g>
</g>
<!-- Node7&#45;&gt;Node36 -->
<g id="edge42" class="edge">
<title>Node7&#45;&gt;Node36</title>
<path fill="none" stroke="midnightblue" d="M1155.33,-326.98C1162.73,-312.66 1174.71,-292.95 1190,-280 1210.51,-262.63 1238.79,-250.8 1260.21,-243.65"/>
<polygon fill="midnightblue" stroke="midnightblue" points="1152.03,-325.77 1150.78,-336.29 1158.32,-328.84 1152.03,-325.77"/>
</g>
<!-- Node40 -->
<g id="node35" class="node">
<title>Node40</title>
<g id="a_node35"><a xlink:href="influxdb_8hpp.html" target="_top" xlink:title=" ">
<polygon fill="none" stroke="black" points="1366.5,-280.5 1366.5,-299.5 1443.5,-299.5 1443.5,-280.5 1366.5,-280.5"/>
<text text-anchor="middle" x="1405" y="-287.5" font-family="Helvetica,sans-Serif" font-size="10.00">influxdb.hpp</text>
</a>
</g>
</g>
<!-- Node7&#45;&gt;Node40 -->
<g id="edge43" class="edge">
<title>Node7&#45;&gt;Node40</title>
<path fill="none" stroke="midnightblue" d="M1197.75,-334.38C1247.27,-324.01 1321.53,-308.47 1366.42,-299.08"/>
<polygon fill="midnightblue" stroke="midnightblue" points="1196.95,-330.97 1187.88,-336.44 1198.39,-337.82 1196.95,-330.97"/>
</g>
<!-- Node41 -->
<g id="node36" class="node">
<title>Node41</title>
<g id="a_node36"><a xlink:href="to__json_8cpp.html" target="_top" xlink:title=" ">
<polygon fill="none" stroke="black" points="1028,-280.5 1028,-299.5 1100,-299.5 1100,-280.5 1028,-280.5"/>
<text text-anchor="middle" x="1064" y="-287.5" font-family="Helvetica,sans-Serif" font-size="10.00">to_json.cpp</text>
</a>
</g>
</g>
<!-- Node7&#45;&gt;Node41 -->
<g id="edge46" class="edge">
<title>Node7&#45;&gt;Node41</title>
<path fill="none" stroke="midnightblue" d="M1124.9,-330.62C1109.74,-320.76 1090.12,-307.99 1077.3,-299.65"/>
<polygon fill="midnightblue" stroke="midnightblue" points="1123.37,-333.8 1133.66,-336.32 1127.19,-327.94 1123.37,-333.8"/>
</g>
<!-- Node42 -->
<g id="node37" class="node">
<title>Node42</title>
<g id="a_node37"><a xlink:href="module_8hpp.html" target="_top" xlink:title="The header file for the base module class.">
<polygon fill="none" stroke="black" points="1109,-224.5 1109,-243.5 1183,-243.5 1183,-224.5 1109,-224.5"/>
<text text-anchor="middle" x="1146" y="-231.5" font-family="Helvetica,sans-Serif" font-size="10.00">module.hpp</text>
</a>
</g>
</g>
<!-- Node7&#45;&gt;Node42 -->
<g id="edge47" class="edge">
<title>Node7&#45;&gt;Node42</title>
<path fill="none" stroke="midnightblue" d="M1146.83,-326.35C1146.61,-302.25 1146.24,-261.31 1146.08,-243.59"/>
<polygon fill="midnightblue" stroke="midnightblue" points="1143.33,-326.4 1146.92,-336.37 1150.33,-326.34 1143.33,-326.4"/>
</g>
<!-- Node50 -->
<g id="node42" class="node">
<title>Node50</title>
<g id="a_node42"><a xlink:href="request__handler_8hpp.html" target="_top" xlink:title=" ">
<polygon fill="none" stroke="black" points="679,-224.5 679,-243.5 795,-243.5 795,-224.5 679,-224.5"/>
<text text-anchor="middle" x="737" y="-231.5" font-family="Helvetica,sans-Serif" font-size="10.00">request_handler.hpp</text>
</a>
</g>
</g>
<!-- Node7&#45;&gt;Node50 -->
<g id="edge58" class="edge">
<title>Node7&#45;&gt;Node50</title>
<path fill="none" stroke="midnightblue" d="M1087.94,-335.39C1018.02,-323.9 908.66,-305.52 890,-300 838.52,-284.78 781.08,-257.36 753.52,-243.51"/>
<polygon fill="midnightblue" stroke="midnightblue" points="1087.52,-338.87 1097.95,-337.03 1088.65,-331.96 1087.52,-338.87"/>
</g>
<!-- Node9 -->
<g id="node9" class="node">
<title>Node9</title>
<g id="a_node9"><a xlink:href="cfg__extensions_8hpp.html" target="_top" xlink:title="The header file for the extensions section of the configuration.">
<polygon fill="none" stroke="black" points="457.5,-224.5 457.5,-243.5 568.5,-243.5 568.5,-224.5 457.5,-224.5"/>
<text text-anchor="middle" x="513" y="-231.5" font-family="Helvetica,sans-Serif" font-size="10.00">cfg_extensions.hpp</text>
</a>
</g>
</g>
<!-- Node8&#45;&gt;Node9 -->
<g id="edge9" class="edge">
<title>Node8&#45;&gt;Node9</title>
<path fill="none" stroke="midnightblue" d="M602.34,-276.23C580.45,-266.13 550.5,-252.31 531.45,-243.52"/>
<polygon fill="midnightblue" stroke="midnightblue" points="600.91,-279.43 611.46,-280.44 603.85,-273.08 600.91,-279.43"/>
</g>
<!-- Node10 -->
<g id="node10" class="node">
<title>Node10</title>
<g id="a_node10"><a xlink:href="cfg__extensions_8cpp.html" target="_top" xlink:title="Implements the extensions section of the configuration.">
<polygon fill="none" stroke="black" points="190,-168.5 190,-187.5 300,-187.5 300,-168.5 190,-168.5"/>
<text text-anchor="middle" x="245" y="-175.5" font-family="Helvetica,sans-Serif" font-size="10.00">cfg_extensions.cpp</text>
</a>
</g>
</g>
<!-- Node9&#45;&gt;Node10 -->
<g id="edge10" class="edge">
<title>Node9&#45;&gt;Node10</title>
<path fill="none" stroke="midnightblue" d="M460.44,-222.41C409.79,-212.2 334.13,-196.96 287.27,-187.52"/>
<polygon fill="midnightblue" stroke="midnightblue" points="460.04,-225.9 470.53,-224.44 461.42,-219.04 460.04,-225.9"/>
</g>
<!-- Node9&#45;&gt;Node11 -->
<g id="edge11" class="edge">
<title>Node9&#45;&gt;Node11</title>
<path fill="none" stroke="midnightblue" d="M481.75,-220.77C455.83,-210.63 419.64,-196.47 396.76,-187.52"/>
<polygon fill="midnightblue" stroke="midnightblue" points="480.55,-224.06 491.13,-224.44 483.1,-217.54 480.55,-224.06"/>
</g>
<!-- Node27 -->
<g id="node24" class="node">
<title>Node27</title>
<g id="a_node24"><a xlink:href="preconfigured__extensions_8hpp.html" target="_top" xlink:title="This file contains preconfigured extension metadata.">
<polygon fill="none" stroke="black" points="450.5,-168.5 450.5,-187.5 613.5,-187.5 613.5,-168.5 450.5,-168.5"/>
<text text-anchor="middle" x="532" y="-175.5" font-family="Helvetica,sans-Serif" font-size="10.00">preconfigured_extensions.hpp</text>
</a>
</g>
</g>
<!-- Node9&#45;&gt;Node27 -->
<g id="edge26" class="edge">
<title>Node9&#45;&gt;Node27</title>
<path fill="none" stroke="midnightblue" d="M519.55,-214.4C522.72,-205.36 526.39,-194.94 528.92,-187.75"/>
<polygon fill="midnightblue" stroke="midnightblue" points="516.15,-213.49 516.14,-224.08 522.76,-215.81 516.15,-213.49"/>
</g>
<!-- Node11&#45;&gt;Node2 -->
<g id="edge20" class="edge">
<title>Node11&#45;&gt;Node2</title>
<path fill="none" stroke="midnightblue" d="M307.82,-166.93C249.81,-158.11 163.79,-144.75 89,-132 86.1,-131.51 83.11,-130.98 80.1,-130.45"/>
<polygon fill="midnightblue" stroke="midnightblue" points="307.54,-170.42 317.95,-168.46 308.59,-163.5 307.54,-170.42"/>
</g>
<!-- Node12 -->
<g id="node12" class="node">
<title>Node12</title>
<g id="a_node12"><a xlink:href="adc__extension__base_8hpp.html" target="_top" xlink:title="Generic ADC Extension Wrapper.">
<polygon fill="none" stroke="black" points="654.5,-112.5 654.5,-131.5 791.5,-131.5 791.5,-112.5 654.5,-112.5"/>
<text text-anchor="middle" x="723" y="-119.5" font-family="Helvetica,sans-Serif" font-size="10.00">adc_extension_base.hpp</text>
</a>
</g>
</g>
<!-- Node11&#45;&gt;Node12 -->
<g id="edge12" class="edge">
<title>Node11&#45;&gt;Node12</title>
<path fill="none" stroke="midnightblue" d="M440.39,-166.85C506.14,-156.65 606.37,-141.1 668.12,-131.52"/>
<polygon fill="midnightblue" stroke="midnightblue" points="439.49,-163.45 430.14,-168.44 440.56,-170.37 439.49,-163.45"/>
</g>
<!-- Node15 -->
<g id="node14" class="node">
<title>Node15</title>
<g id="a_node14"><a xlink:href="bme280_8hpp.html" target="_top" xlink:title="The BME280 sensor extension.">
<polygon fill="none" stroke="black" points="809.5,-112.5 809.5,-131.5 886.5,-131.5 886.5,-112.5 809.5,-112.5"/>
<text text-anchor="middle" x="848" y="-119.5" font-family="Helvetica,sans-Serif" font-size="10.00">bme280.hpp</text>
</a>
</g>
</g>
<!-- Node11&#45;&gt;Node15 -->
<g id="edge14" class="edge">
<title>Node11&#45;&gt;Node15</title>
<path fill="none" stroke="midnightblue" d="M441.69,-168.04C441.8,-168.02 441.9,-168.01 442,-168 601.26,-149.32 642.32,-155.1 801,-132 803.71,-131.61 806.51,-131.16 809.32,-130.69"/>
<polygon fill="midnightblue" stroke="midnightblue" points="441.51,-164.53 432,-169.21 442.35,-171.48 441.51,-164.53"/>
</g>
<!-- Node17 -->
<g id="node16" class="node">
<title>Node17</title>
<g id="a_node16"><a xlink:href="ds18b20_8hpp.html" target="_top" xlink:title="DS18B20 extension header file.">
<polygon fill="none" stroke="red" points="98.5,-112.5 98.5,-131.5 177.5,-131.5 177.5,-112.5 98.5,-112.5"/>
<text text-anchor="middle" x="138" y="-119.5" font-family="Helvetica,sans-Serif" font-size="10.00">ds18b20.hpp</text>
</a>
</g>
</g>
<!-- Node11&#45;&gt;Node17 -->
<g id="edge16" class="edge">
<title>Node11&#45;&gt;Node17</title>
<path fill="none" stroke="midnightblue" d="M327.68,-166.22C282.89,-156.01 216.56,-140.9 175.38,-131.52"/>
<polygon fill="midnightblue" stroke="midnightblue" points="326.92,-169.63 337.45,-168.44 328.47,-162.81 326.92,-169.63"/>
</g>
<!-- Node19 -->
<g id="node17" class="node">
<title>Node19</title>
<g id="a_node17"><a xlink:href="extension__base_8cpp.html" target="_top" xlink:title="The new implementation of the extension system.">
<polygon fill="none" stroke="black" points="195.5,-112.5 195.5,-131.5 308.5,-131.5 308.5,-112.5 195.5,-112.5"/>
<text text-anchor="middle" x="252" y="-119.5" font-family="Helvetica,sans-Serif" font-size="10.00">extension_base.cpp</text>
</a>
</g>
</g>
<!-- Node11&#45;&gt;Node19 -->
<g id="edge17" class="edge">
<title>Node11&#45;&gt;Node19</title>
<path fill="none" stroke="midnightblue" d="M346.23,-164.37C323.19,-154.26 291.52,-140.35 271.4,-131.52"/>
<polygon fill="midnightblue" stroke="midnightblue" points="344.95,-167.63 355.51,-168.44 347.76,-161.22 344.95,-167.63"/>
</g>
<!-- Node20 -->
<g id="node18" class="node">
<title>Node20</title>
<g id="a_node18"><a xlink:href="i2c__extension__adapter_8hpp.html" target="_top" xlink:title="Adapter for I2C Extensions.">
<polygon fill="none" stroke="black" points="489.5,-112.5 489.5,-131.5 636.5,-131.5 636.5,-112.5 489.5,-112.5"/>
<text text-anchor="middle" x="563" y="-119.5" font-family="Helvetica,sans-Serif" font-size="10.00">i2c_extension_adapter.hpp</text>
</a>
</g>
</g>
<!-- Node11&#45;&gt;Node20 -->
<g id="edge18" class="edge">
<title>Node11&#45;&gt;Node20</title>
<path fill="none" stroke="midnightblue" d="M414.8,-165.57C450.27,-155.38 501.37,-140.7 533.35,-131.52"/>
<polygon fill="midnightblue" stroke="midnightblue" points="413.43,-162.32 404.79,-168.44 415.37,-169.05 413.43,-162.32"/>
</g>
<!-- Node21 -->
<g id="node19" class="node">
<title>Node21</title>
<g id="a_node19"><a xlink:href="simulated__extensions_8hpp.html" target="_top" xlink:title="This contains the simulated extensions for testing the flight system.">
<polygon fill="none" stroke="red" points="326.5,-112.5 326.5,-131.5 471.5,-131.5 471.5,-112.5 326.5,-112.5"/>
<text text-anchor="middle" x="399" y="-119.5" font-family="Helvetica,sans-Serif" font-size="10.00">simulated_extensions.hpp</text>
</a>
</g>
</g>
<!-- Node11&#45;&gt;Node21 -->
<g id="edge21" class="edge">
<title>Node11&#45;&gt;Node21</title>
<path fill="none" stroke="midnightblue" d="M383.14,-158.69C387.18,-149.59 391.88,-139.01 395.11,-131.75"/>
<polygon fill="midnightblue" stroke="midnightblue" points="379.83,-157.52 378.96,-168.08 386.22,-160.37 379.83,-157.52"/>
</g>
<!-- Node23 -->
<g id="node20" class="node">
<title>Node23</title>
<g id="a_node20"><a xlink:href="extension__module_8hpp.html" target="_top" xlink:title="This is the header file for the new extension module.">
<polygon fill="none" stroke="red" points="952,-112.5 952,-131.5 1080,-131.5 1080,-112.5 952,-112.5"/>
<text text-anchor="middle" x="1016" y="-119.5" font-family="Helvetica,sans-Serif" font-size="10.00">extension_module.hpp</text>
</a>
</g>
</g>
<!-- Node11&#45;&gt;Node23 -->
<g id="edge22" class="edge">
<title>Node11&#45;&gt;Node23</title>
<path fill="none" stroke="midnightblue" d="M442.37,-168.07C521.33,-160.47 819.4,-137.82 951.97,-127.82"/>
<polygon fill="midnightblue" stroke="midnightblue" points="441.96,-164.6 432.36,-169.08 442.66,-171.56 441.96,-164.6"/>
</g>
<!-- Node13 -->
<g id="node13" class="node">
<title>Node13</title>
<g id="a_node13"><a xlink:href="mcp3021_8hpp.html" target="_top" xlink:title="MCP3021 I2C ADC Driver.">
<polygon fill="none" stroke="red" points="601.5,-56.5 601.5,-75.5 684.5,-75.5 684.5,-56.5 601.5,-56.5"/>
<text text-anchor="middle" x="643" y="-63.5" font-family="Helvetica,sans-Serif" font-size="10.00">mcp3021.hpp</text>
</a>
</g>
</g>
<!-- Node12&#45;&gt;Node13 -->
<g id="edge13" class="edge">
<title>Node12&#45;&gt;Node13</title>
<path fill="none" stroke="midnightblue" d="M701.7,-106.62C687.08,-96.76 668.17,-83.99 655.82,-75.65"/>
<polygon fill="midnightblue" stroke="midnightblue" points="699.9,-109.63 710.15,-112.32 703.82,-103.83 699.9,-109.63"/>
</g>
<!-- Node16 -->
<g id="node15" class="node">
<title>Node16</title>
<g id="a_node15"><a xlink:href="bme280_8cpp.html" target="_top" xlink:title="BME280 sensor extension.">
<polygon fill="none" stroke="black" points="809.5,-56.5 809.5,-75.5 886.5,-75.5 886.5,-56.5 809.5,-56.5"/>
<text text-anchor="middle" x="848" y="-63.5" font-family="Helvetica,sans-Serif" font-size="10.00">bme280.cpp</text>
</a>
</g>
</g>
<!-- Node15&#45;&gt;Node16 -->
<g id="edge15" class="edge">
<title>Node15&#45;&gt;Node16</title>
<path fill="none" stroke="midnightblue" d="M848,-101.8C848,-92.91 848,-82.78 848,-75.75"/>
<polygon fill="midnightblue" stroke="midnightblue" points="844.5,-102.08 848,-112.08 851.5,-102.08 844.5,-102.08"/>
</g>
<!-- Node20&#45;&gt;Node13 -->
<g id="edge19" class="edge">
<title>Node20&#45;&gt;Node13</title>
<path fill="none" stroke="midnightblue" d="M584.3,-106.62C598.92,-96.76 617.83,-83.99 630.18,-75.65"/>
<polygon fill="midnightblue" stroke="midnightblue" points="582.18,-103.83 575.85,-112.32 586.1,-109.63 582.18,-103.83"/>
</g>
<!-- Node23&#45;&gt;Node24 -->
<g id="edge23" class="edge">
<title>Node23&#45;&gt;Node24</title>
<path fill="none" stroke="midnightblue" d="M1052.39,-109.3C1084.04,-99.13 1129.17,-84.62 1157.5,-75.52"/>
<polygon fill="midnightblue" stroke="midnightblue" points="1051.07,-106.05 1042.62,-112.44 1053.21,-112.72 1051.07,-106.05"/>
</g>
<!-- Node25 -->
<g id="node22" class="node">
<title>Node25</title>
<g id="a_node22"><a xlink:href="flight__runner_8cpp.html" target="_top" xlink:title=" ">
<polygon fill="none" stroke="black" points="1086,-0.5 1086,-19.5 1184,-19.5 1184,-0.5 1086,-0.5"/>
<text text-anchor="middle" x="1135" y="-7.5" font-family="Helvetica,sans-Serif" font-size="10.00">flight_runner.cpp</text>
</a>
</g>
</g>
<!-- Node24&#45;&gt;Node25 -->
<g id="edge24" class="edge">
<title>Node24&#45;&gt;Node25</title>
<path fill="none" stroke="midnightblue" d="M1168.97,-48.43C1160.38,-38.97 1149.96,-27.48 1142.94,-19.75"/>
<polygon fill="midnightblue" stroke="midnightblue" points="1166.6,-51.03 1175.91,-56.08 1171.78,-46.33 1166.6,-51.03"/>
</g>
<!-- Node26 -->
<g id="node23" class="node">
<title>Node26</title>
<g id="a_node23"><a xlink:href="main_8cpp.html" target="_top" xlink:title="Defines the entry point/main function of the Flight Computer software.">
<polygon fill="none" stroke="black" points="1202,-0.5 1202,-19.5 1264,-19.5 1264,-0.5 1202,-0.5"/>
<text text-anchor="middle" x="1233" y="-7.5" font-family="Helvetica,sans-Serif" font-size="10.00">main.cpp</text>
</a>
</g>
</g>
<!-- Node24&#45;&gt;Node26 -->
<g id="edge25" class="edge">
<title>Node24&#45;&gt;Node26</title>
<path fill="none" stroke="midnightblue" d="M1199.03,-48.43C1207.62,-38.97 1218.04,-27.48 1225.06,-19.75"/>
<polygon fill="midnightblue" stroke="midnightblue" points="1196.22,-46.33 1192.09,-56.08 1201.4,-51.03 1196.22,-46.33"/>
</g>
<!-- Node29 -->
<g id="node26" class="node">
<title>Node29</title>
<g id="a_node26"><a xlink:href="console__module_8hpp.html" target="_top" xlink:title=" ">
<polygon fill="none" stroke="red" points="893.5,-168.5 893.5,-187.5 1010.5,-187.5 1010.5,-168.5 893.5,-168.5"/>
<text text-anchor="middle" x="952" y="-175.5" font-family="Helvetica,sans-Serif" font-size="10.00">console_module.hpp</text>
</a>
</g>
</g>
<!-- Node28&#45;&gt;Node29 -->
<g id="edge30" class="edge">
<title>Node28&#45;&gt;Node29</title>
<path fill="none" stroke="midnightblue" d="M953.66,-270.35C953.22,-246.25 952.48,-205.31 952.16,-187.59"/>
<polygon fill="midnightblue" stroke="midnightblue" points="950.16,-270.43 953.84,-280.37 957.16,-270.31 950.16,-270.43"/>
</g>
<!-- Node31 -->
<g id="node27" class="node">
<title>Node31</title>
<g id="a_node27"><a xlink:href="console__pages_8cpp.html" target="_top" xlink:title=" ">
<polygon fill="none" stroke="black" points="981.5,-224.5 981.5,-243.5 1090.5,-243.5 1090.5,-224.5 981.5,-224.5"/>
<text text-anchor="middle" x="1036" y="-231.5" font-family="Helvetica,sans-Serif" font-size="10.00">console_pages.cpp</text>
</a>
</g>
</g>
<!-- Node28&#45;&gt;Node31 -->
<g id="edge32" class="edge">
<title>Node28&#45;&gt;Node31</title>
<path fill="none" stroke="midnightblue" d="M975.83,-274.62C990.81,-264.76 1010.2,-251.99 1022.86,-243.65"/>
<polygon fill="midnightblue" stroke="midnightblue" points="973.6,-271.9 967.17,-280.32 977.45,-277.75 973.6,-271.9"/>
</g>
<!-- Node32 -->
<g id="node28" class="node">
<title>Node32</title>
<g id="a_node28"><a xlink:href="curses__utilities_8hpp.html" target="_top" xlink:title=" ">
<polygon fill="none" stroke="red" points="813.5,-224.5 813.5,-243.5 924.5,-243.5 924.5,-224.5 813.5,-224.5"/>
<text text-anchor="middle" x="869" y="-231.5" font-family="Helvetica,sans-Serif" font-size="10.00">curses_utilities.hpp</text>
</a>
</g>
</g>
<!-- Node28&#45;&gt;Node32 -->
<g id="edge33" class="edge">
<title>Node28&#45;&gt;Node32</title>
<path fill="none" stroke="midnightblue" d="M931.81,-274.9C916.22,-265 895.87,-252.07 882.62,-243.65"/>
<polygon fill="midnightblue" stroke="midnightblue" points="930.03,-277.92 940.34,-280.32 933.78,-272.01 930.03,-277.92"/>
</g>
<!-- Node29&#45;&gt;Node24 -->
<g id="edge31" class="edge">
<title>Node29&#45;&gt;Node24</title>
<path fill="none" stroke="midnightblue" d="M1020.44,-167.74C1052.86,-161.21 1091.16,-150.23 1122,-132 1146.97,-117.24 1168.38,-89.61 1178.23,-75.61"/>
<polygon fill="midnightblue" stroke="midnightblue" points="1019.74,-164.31 1010.57,-169.63 1021.05,-171.19 1019.74,-164.31"/>
</g>
<!-- Node32&#45;&gt;Node29 -->
<g id="edge34" class="edge">
<title>Node32&#45;&gt;Node29</title>
<path fill="none" stroke="midnightblue" d="M891.1,-218.62C906.26,-208.76 925.88,-195.99 938.7,-187.65"/>
<polygon fill="midnightblue" stroke="midnightblue" points="888.81,-215.94 882.34,-224.32 892.63,-221.8 888.81,-215.94"/>
</g>
<!-- Node35 -->
<g id="node30" class="node">
<title>Node35</title>
<g id="a_node30"><a xlink:href="data__formatting_8cpp.html" target="_top" xlink:title="Implementation of the DataFormatter class.">
<polygon fill="none" stroke="black" points="1447,-224.5 1447,-243.5 1563,-243.5 1563,-224.5 1447,-224.5"/>
<text text-anchor="middle" x="1505" y="-231.5" font-family="Helvetica,sans-Serif" font-size="10.00">data_formatting.cpp</text>
</a>
</g>
</g>
<!-- Node34&#45;&gt;Node35 -->
<g id="edge36" class="edge">
<title>Node34&#45;&gt;Node35</title>
<path fill="none" stroke="midnightblue" d="M1333.96,-277.96C1374.57,-267.76 1434.04,-252.82 1471.09,-243.52"/>
<polygon fill="midnightblue" stroke="midnightblue" points="1332.91,-274.61 1324.07,-280.44 1334.62,-281.4 1332.91,-274.61"/>
</g>
<!-- Node34&#45;&gt;Node36 -->
<g id="edge37" class="edge">
<title>Node34&#45;&gt;Node36</title>
<path fill="none" stroke="midnightblue" d="M1290.36,-269.8C1290.52,-260.91 1290.71,-250.78 1290.84,-243.75"/>
<polygon fill="midnightblue" stroke="midnightblue" points="1286.85,-270.02 1290.17,-280.08 1293.85,-270.15 1286.85,-270.02"/>
</g>
<!-- Node37 -->
<g id="node32" class="node">
<title>Node37</title>
<g id="a_node32"><a xlink:href="data__log_8cpp.html" target="_top" xlink:title="The implementation of the data log class.">
<polygon fill="none" stroke="black" points="1462.5,-168.5 1462.5,-187.5 1541.5,-187.5 1541.5,-168.5 1462.5,-168.5"/>
<text text-anchor="middle" x="1502" y="-175.5" font-family="Helvetica,sans-Serif" font-size="10.00">data_log.cpp</text>
</a>
</g>
</g>
<!-- Node36&#45;&gt;Node37 -->
<g id="edge38" class="edge">
<title>Node36&#45;&gt;Node37</title>
<path fill="none" stroke="midnightblue" d="M1334.14,-221.96C1373.99,-211.76 1432.36,-196.82 1468.72,-187.52"/>
<polygon fill="midnightblue" stroke="midnightblue" points="1333.25,-218.57 1324.43,-224.44 1334.99,-225.35 1333.25,-218.57"/>
</g>
<!-- Node38 -->
<g id="node33" class="node">
<title>Node38</title>
<g id="a_node33"><a xlink:href="data__module_8hpp.html" target="_top" xlink:title="The data module header file.">
<polygon fill="none" stroke="black" points="1343.5,-168.5 1343.5,-187.5 1444.5,-187.5 1444.5,-168.5 1343.5,-168.5"/>
<text text-anchor="middle" x="1394" y="-175.5" font-family="Helvetica,sans-Serif" font-size="10.00">data_module.hpp</text>
</a>
</g>
</g>
<!-- Node36&#45;&gt;Node38 -->
<g id="edge39" class="edge">
<title>Node36&#45;&gt;Node38</title>
<path fill="none" stroke="midnightblue" d="M1316.58,-219.59C1335.62,-209.61 1361.06,-196.27 1377.49,-187.65"/>
<polygon fill="midnightblue" stroke="midnightblue" points="1314.78,-216.58 1307.55,-224.32 1318.03,-222.78 1314.78,-216.58"/>
</g>
<!-- Node38&#45;&gt;Node24 -->
<g id="edge40" class="edge">
<title>Node38&#45;&gt;Node24</title>
<path fill="none" stroke="midnightblue" d="M1384.67,-159.28C1376.03,-144.53 1361.82,-124.05 1344,-112 1310.89,-89.61 1266.78,-78.28 1233.26,-72.59"/>
<polygon fill="midnightblue" stroke="midnightblue" points="1381.83,-161.37 1389.75,-168.41 1387.95,-157.96 1381.83,-161.37"/>
</g>
<!-- Node39 -->
<g id="node34" class="node">
<title>Node39</title>
<g id="a_node34"><a xlink:href="data__module_8cpp.html" target="_top" xlink:title=" ">
<polygon fill="none" stroke="black" points="1429.5,-112.5 1429.5,-131.5 1530.5,-131.5 1530.5,-112.5 1429.5,-112.5"/>
<text text-anchor="middle" x="1480" y="-119.5" font-family="Helvetica,sans-Serif" font-size="10.00">data_module.cpp</text>
</a>
</g>
</g>
<!-- Node38&#45;&gt;Node39 -->
<g id="edge41" class="edge">
<title>Node38&#45;&gt;Node39</title>
<path fill="none" stroke="midnightblue" d="M1416.45,-162.9C1432.22,-153 1452.81,-140.07 1466.22,-131.65"/>
<polygon fill="midnightblue" stroke="midnightblue" points="1414.43,-160.04 1407.82,-168.32 1418.15,-165.97 1414.43,-160.04"/>
</g>
<!-- Node40&#45;&gt;Node6 -->
<g id="edge45" class="edge">
<title>Node40&#45;&gt;Node6</title>
<path fill="none" stroke="midnightblue" d="M1453.84,-279.81C1510.39,-269.17 1602.37,-251.86 1653.91,-242.17"/>
<polygon fill="midnightblue" stroke="midnightblue" points="1452.89,-276.43 1443.71,-281.72 1454.18,-283.31 1452.89,-276.43"/>
</g>
<!-- Node40&#45;&gt;Node38 -->
<g id="edge44" class="edge">
<title>Node40&#45;&gt;Node38</title>
<path fill="none" stroke="midnightblue" d="M1403.13,-270.35C1400.73,-246.25 1396.63,-205.31 1394.86,-187.59"/>
<polygon fill="midnightblue" stroke="midnightblue" points="1399.66,-270.77 1404.14,-280.37 1406.62,-270.07 1399.66,-270.77"/>
</g>
<!-- Node42&#45;&gt;Node23 -->
<g id="edge50" class="edge">
<title>Node42&#45;&gt;Node23</title>
<path fill="none" stroke="midnightblue" d="M1111.82,-220.52C1094.36,-212.98 1073.57,-202.08 1058,-188 1039.66,-171.42 1025.99,-145.1 1019.75,-131.6"/>
<polygon fill="midnightblue" stroke="midnightblue" points="1110.55,-223.78 1121.13,-224.37 1113.22,-217.31 1110.55,-223.78"/>
</g>
<!-- Node42&#45;&gt;Node29 -->
<g id="edge48" class="edge">
<title>Node42&#45;&gt;Node29</title>
<path fill="none" stroke="midnightblue" d="M1105.4,-221.7C1068.78,-211.51 1015.74,-196.74 982.6,-187.52"/>
<polygon fill="midnightblue" stroke="midnightblue" points="1104.69,-225.13 1115.26,-224.44 1106.56,-218.39 1104.69,-225.13"/>
</g>
<!-- Node42&#45;&gt;Node38 -->
<g id="edge49" class="edge">
<title>Node42&#45;&gt;Node38</title>
<path fill="none" stroke="midnightblue" d="M1193.01,-222.76C1239.76,-212.59 1310.67,-197.15 1354.57,-187.59"/>
<polygon fill="midnightblue" stroke="midnightblue" points="1192.15,-219.37 1183.13,-224.92 1193.64,-226.21 1192.15,-219.37"/>
</g>
<!-- Node43 -->
<g id="node38" class="node">
<title>Node43</title>
<g id="a_node38"><a xlink:href="module_8cpp.html" target="_top" xlink:title="Implementation of the module base class.">
<polygon fill="none" stroke="black" points="1213,-168.5 1213,-187.5 1287,-187.5 1287,-168.5 1213,-168.5"/>
<text text-anchor="middle" x="1250" y="-175.5" font-family="Helvetica,sans-Serif" font-size="10.00">module.cpp</text>
</a>
</g>
</g>
<!-- Node42&#45;&gt;Node43 -->
<g id="edge51" class="edge">
<title>Node42&#45;&gt;Node43</title>
<path fill="none" stroke="midnightblue" d="M1171.83,-219.59C1191.06,-209.61 1216.74,-196.27 1233.33,-187.65"/>
<polygon fill="midnightblue" stroke="midnightblue" points="1169.97,-216.61 1162.71,-224.32 1173.2,-222.82 1169.97,-216.61"/>
</g>
<!-- Node44 -->
<g id="node39" class="node">
<title>Node44</title>
<g id="a_node39"><a xlink:href="server__module_8hpp.html" target="_top" xlink:title="Header file for the server module.">
<polygon fill="none" stroke="red" points="765,-168.5 765,-187.5 875,-187.5 875,-168.5 765,-168.5"/>
<text text-anchor="middle" x="820" y="-175.5" font-family="Helvetica,sans-Serif" font-size="10.00">server_module.hpp</text>
</a>
</g>
</g>
<!-- Node42&#45;&gt;Node44 -->
<g id="edge52" class="edge">
<title>Node42&#45;&gt;Node44</title>
<path fill="none" stroke="midnightblue" d="M1098.93,-223.86C1015.24,-209.05 929.46,-195.6 875.08,-187.29"/>
<polygon fill="midnightblue" stroke="midnightblue" points="1098.4,-227.32 1108.86,-225.62 1099.63,-220.43 1098.4,-227.32"/>
</g>
<!-- Node46 -->
<g id="node40" class="node">
<title>Node46</title>
<g id="a_node40"><a xlink:href="system__module_8hpp.html" target="_top" xlink:title=" ">
<polygon fill="none" stroke="red" points="1219,-112.5 1219,-131.5 1335,-131.5 1335,-112.5 1219,-112.5"/>
<text text-anchor="middle" x="1277" y="-119.5" font-family="Helvetica,sans-Serif" font-size="10.00">system_module.hpp</text>
</a>
</g>
</g>
<!-- Node42&#45;&gt;Node46 -->
<g id="edge54" class="edge">
<title>Node42&#45;&gt;Node46</title>
<path fill="none" stroke="midnightblue" d="M1193.52,-232.74C1228.03,-229.74 1272.61,-219.43 1296,-188 1308.77,-170.83 1293.78,-145.22 1284.05,-131.85"/>
<polygon fill="midnightblue" stroke="midnightblue" points="1192.91,-229.27 1183.17,-233.45 1193.39,-236.26 1192.91,-229.27"/>
</g>
<!-- Node48 -->
<g id="node41" class="node">
<title>Node48</title>
<g id="a_node41"><a xlink:href="telemetry__module_8hpp.html" target="_top" xlink:title="The telemetry module.">
<polygon fill="none" stroke="red" points="1067,-168.5 1067,-187.5 1195,-187.5 1195,-168.5 1067,-168.5"/>
<text text-anchor="middle" x="1131" y="-175.5" font-family="Helvetica,sans-Serif" font-size="10.00">telemetry_module.hpp</text>
</a>
</g>
</g>
<!-- Node42&#45;&gt;Node48 -->
<g id="edge56" class="edge">
<title>Node42&#45;&gt;Node48</title>
<path fill="none" stroke="midnightblue" d="M1140.83,-214.4C1138.32,-205.36 1135.43,-194.94 1133.43,-187.75"/>
<polygon fill="midnightblue" stroke="midnightblue" points="1137.47,-215.38 1143.52,-224.08 1144.22,-213.51 1137.47,-215.38"/>
</g>
<!-- Node44&#45;&gt;Node24 -->
<g id="edge53" class="edge">
<title>Node44&#45;&gt;Node24</title>
<path fill="none" stroke="midnightblue" d="M885.28,-167.59C958.78,-156.75 1070.41,-139.49 1089,-132 1098.04,-128.36 1148.43,-92.55 1171.93,-75.69"/>
<polygon fill="midnightblue" stroke="midnightblue" points="884.56,-164.15 875.18,-169.07 885.58,-171.08 884.56,-164.15"/>
</g>
<!-- Node46&#45;&gt;Node24 -->
<g id="edge55" class="edge">
<title>Node46&#45;&gt;Node24</title>
<path fill="none" stroke="midnightblue" d="M1253.19,-107.18C1236.08,-97.24 1213.53,-84.15 1198.9,-75.65"/>
<polygon fill="midnightblue" stroke="midnightblue" points="1251.65,-110.33 1262.06,-112.32 1255.17,-104.28 1251.65,-110.33"/>
</g>
<!-- Node48&#45;&gt;Node24 -->
<g id="edge57" class="edge">
<title>Node48&#45;&gt;Node24</title>
<path fill="none" stroke="midnightblue" d="M1143.18,-160.05C1148.75,-151.83 1155.17,-141.67 1160,-132 1169.67,-112.63 1177.61,-88.36 1181.47,-75.66"/>
<polygon fill="midnightblue" stroke="midnightblue" points="1140.22,-158.17 1137.37,-168.37 1145.96,-162.17 1140.22,-158.17"/>
</g>
<!-- Node50&#45;&gt;Node44 -->
<g id="edge60" class="edge">
<title>Node50&#45;&gt;Node44</title>
<path fill="none" stroke="midnightblue" d="M759.1,-218.62C774.26,-208.76 793.88,-195.99 806.7,-187.65"/>
<polygon fill="midnightblue" stroke="midnightblue" points="756.81,-215.94 750.34,-224.32 760.63,-221.8 756.81,-215.94"/>
</g>
<!-- Node51 -->
<g id="node43" class="node">
<title>Node51</title>
<g id="a_node43"><a xlink:href="request__handler_8cpp.html" target="_top" xlink:title=" ">
<polygon fill="none" stroke="black" points="631.5,-168.5 631.5,-187.5 746.5,-187.5 746.5,-168.5 631.5,-168.5"/>
<text text-anchor="middle" x="689" y="-175.5" font-family="Helvetica,sans-Serif" font-size="10.00">request_handler.cpp</text>
</a>
</g>
</g>
<!-- Node50&#45;&gt;Node51 -->
<g id="edge59" class="edge">
<title>Node50&#45;&gt;Node51</title>
<path fill="none" stroke="midnightblue" d="M722.27,-216.43C713.86,-206.97 703.65,-195.48 696.78,-187.75"/>
<polygon fill="midnightblue" stroke="midnightblue" points="719.81,-218.93 729.07,-224.08 725.05,-214.28 719.81,-218.93"/>
</g>
<!-- Node52&#45;&gt;Node7 -->
<g id="edge67" class="edge">
<title>Node52&#45;&gt;Node7</title>
<path fill="none" stroke="midnightblue" d="M1180.28,-438.78C1176.73,-425.65 1171.54,-407.58 1166,-392 1161.39,-379.06 1155.01,-364.47 1150.94,-355.51"/>
<polygon fill="midnightblue" stroke="midnightblue" points="1176.9,-439.71 1182.85,-448.49 1183.67,-437.92 1176.9,-439.71"/>
</g>
<!-- Node53 -->
<g id="node45" class="node">
<title>Node53</title>
<g id="a_node45"><a xlink:href="validation_8hpp.html" target="_top" xlink:title=" ">
<polygon fill="none" stroke="black" points="635,-392.5 635,-411.5 721,-411.5 721,-392.5 635,-392.5"/>
<text text-anchor="middle" x="678" y="-399.5" font-family="Helvetica,sans-Serif" font-size="10.00">validation.hpp</text>
</a>
</g>
</g>
<!-- Node52&#45;&gt;Node53 -->
<g id="edge62" class="edge">
<title>Node52&#45;&gt;Node53</title>
<path fill="none" stroke="midnightblue" d="M1136.47,-451.83C1037.77,-441.32 815.02,-417.59 721.08,-407.59"/>
<polygon fill="midnightblue" stroke="midnightblue" points="1136.16,-455.32 1146.48,-452.9 1136.9,-448.36 1136.16,-455.32"/>
</g>
<!-- Node54 -->
<g id="node46" class="node">
<title>Node54</title>
<g id="a_node46"><a xlink:href="error__frame_8hpp.html" target="_top" xlink:title="The error frame.">
<polygon fill="none" stroke="black" points="1061.5,-392.5 1061.5,-411.5 1156.5,-411.5 1156.5,-392.5 1061.5,-392.5"/>
<text text-anchor="middle" x="1109" y="-399.5" font-family="Helvetica,sans-Serif" font-size="10.00">error_frame.hpp</text>
</a>
</g>
</g>
<!-- Node52&#45;&gt;Node54 -->
<g id="edge64" class="edge">
<title>Node52&#45;&gt;Node54</title>
<path fill="none" stroke="midnightblue" d="M1164.42,-442.38C1150.69,-432.62 1133.07,-420.11 1121.43,-411.83"/>
<polygon fill="midnightblue" stroke="midnightblue" points="1162.61,-445.38 1172.79,-448.32 1166.66,-439.68 1162.61,-445.38"/>
</g>
<!-- Node56 -->
<g id="node48" class="node">
<title>Node56</title>
<g id="a_node48"><a xlink:href="to__string_8hpp.html" target="_top" xlink:title="Generic to_string functions for a variety of types.">
<polygon fill="none" stroke="black" points="1558,-336.5 1558,-355.5 1638,-355.5 1638,-336.5 1558,-336.5"/>
<text text-anchor="middle" x="1598" y="-343.5" font-family="Helvetica,sans-Serif" font-size="10.00">to_string.hpp</text>
</a>
</g>
</g>
<!-- Node52&#45;&gt;Node56 -->
<g id="edge68" class="edge">
<title>Node52&#45;&gt;Node56</title>
<path fill="none" stroke="midnightblue" d="M1226.87,-445.85C1309.52,-423.84 1492.02,-375.23 1565.96,-355.53"/>
<polygon fill="midnightblue" stroke="midnightblue" points="1225.83,-442.5 1217.06,-448.46 1227.63,-449.27 1225.83,-442.5"/>
</g>
<!-- Node53&#45;&gt;Node10 -->
<g id="edge63" class="edge">
<title>Node53&#45;&gt;Node10</title>
<path fill="none" stroke="midnightblue" d="M652.36,-387.86C572.31,-346.81 328.38,-221.75 261.89,-187.66"/>
<polygon fill="midnightblue" stroke="midnightblue" points="650.8,-390.99 661.29,-392.43 653.99,-384.76 650.8,-390.99"/>
</g>
<!-- Node54&#45;&gt;Node7 -->
<g id="edge66" class="edge">
<title>Node54&#45;&gt;Node7</title>
<path fill="none" stroke="midnightblue" d="M1121.06,-383.86C1127.64,-374.5 1135.51,-363.33 1140.84,-355.75"/>
<polygon fill="midnightblue" stroke="midnightblue" points="1118.17,-381.89 1115.27,-392.08 1123.89,-385.92 1118.17,-381.89"/>
</g>
<!-- Node55 -->
<g id="node47" class="node">
<title>Node55</title>
<g id="a_node47"><a xlink:href="error__frame_8cpp.html" target="_top" xlink:title="The implementation of the error frame.">
<polygon fill="none" stroke="black" points="984.5,-336.5 984.5,-355.5 1079.5,-355.5 1079.5,-336.5 984.5,-336.5"/>
<text text-anchor="middle" x="1032" y="-343.5" font-family="Helvetica,sans-Serif" font-size="10.00">error_frame.cpp</text>
</a>
</g>
</g>
<!-- Node54&#45;&gt;Node55 -->
<g id="edge65" class="edge">
<title>Node54&#45;&gt;Node55</title>
<path fill="none" stroke="midnightblue" d="M1088.1,-386.34C1074.09,-376.52 1056.12,-363.91 1044.34,-355.65"/>
<polygon fill="midnightblue" stroke="midnightblue" points="1086.43,-389.45 1096.63,-392.32 1090.45,-383.72 1086.43,-389.45"/>
</g>
<!-- Node56&#45;&gt;Node6 -->
<g id="edge71" class="edge">
<title>Node56&#45;&gt;Node6</title>
<path fill="none" stroke="midnightblue" d="M1612.03,-328.59C1632.29,-304.87 1669.04,-261.87 1684.66,-243.59"/>
<polygon fill="midnightblue" stroke="midnightblue" points="1609.21,-326.49 1605.38,-336.37 1614.53,-331.04 1609.21,-326.49"/>
</g>
<!-- Node56&#45;&gt;Node35 -->
<g id="edge69" class="edge">
<title>Node56&#45;&gt;Node35</title>
<path fill="none" stroke="midnightblue" d="M1586.56,-327.52C1577.48,-314.08 1564.17,-295.28 1551,-280 1539.33,-266.46 1524.28,-252.27 1514.63,-243.53"/>
<polygon fill="midnightblue" stroke="midnightblue" points="1583.9,-329.85 1592.36,-336.24 1589.73,-325.97 1583.9,-329.85"/>
</g>
<!-- Node56&#45;&gt;Node39 -->
<g id="edge70" class="edge">
<title>Node56&#45;&gt;Node39</title>
<path fill="none" stroke="midnightblue" d="M1597.86,-325.88C1596.64,-290.75 1589.37,-215.22 1551,-168 1537.56,-151.46 1516.36,-139.15 1500.62,-131.63"/>
<polygon fill="midnightblue" stroke="midnightblue" points="1594.37,-326.22 1598.08,-336.14 1601.37,-326.07 1594.37,-326.22"/>
</g>
<!-- Node56&#45;&gt;Node57 -->
<g id="edge72" class="edge">
<title>Node56&#45;&gt;Node57</title>
<path fill="none" stroke="midnightblue" d="M1625,-332.1C1646.11,-322.01 1674.86,-308.27 1693.18,-299.52"/>
<polygon fill="midnightblue" stroke="midnightblue" points="1623.42,-328.97 1615.91,-336.44 1626.44,-335.29 1623.42,-328.97"/>
</g>
<!-- Node58 -->
<g id="node50" class="node">
<title>Node58</title>
<g id="a_node50"><a xlink:href="to__string_8cpp.html" target="_top" xlink:title="Generic to_string functions for a variety of types.">
<polygon fill="none" stroke="black" points="1462,-280.5 1462,-299.5 1542,-299.5 1542,-280.5 1462,-280.5"/>
<text text-anchor="middle" x="1502" y="-287.5" font-family="Helvetica,sans-Serif" font-size="10.00">to_string.cpp</text>
</a>
</g>
</g>
<!-- Node56&#45;&gt;Node58 -->
<g id="edge74" class="edge">
<title>Node56&#45;&gt;Node58</title>
<path fill="none" stroke="midnightblue" d="M1573.43,-331.18C1555.76,-321.24 1532.49,-308.15 1517.39,-299.65"/>
<polygon fill="midnightblue" stroke="midnightblue" points="1572.14,-334.47 1582.58,-336.32 1575.58,-328.37 1572.14,-334.47"/>
</g>
<!-- Node57&#45;&gt;Node6 -->
<g id="edge73" class="edge">
<title>Node57&#45;&gt;Node6</title>
<path fill="none" stroke="midnightblue" d="M1704.45,-270.4C1701.28,-261.36 1697.61,-250.94 1695.08,-243.75"/>
<polygon fill="midnightblue" stroke="midnightblue" points="1701.24,-271.81 1707.86,-280.08 1707.85,-269.49 1701.24,-271.81"/>
</g>
</g>
</svg>
