<?xml version="1.0" encoding="UTF-8" standalone="no"?>
<!DOCTYPE svg PUBLIC "-//W3C//DTD SVG 1.1//EN"
 "http://www.w3.org/Graphics/SVG/1.1/DTD/svg11.dtd">
<!-- Generated by graphviz version 2.43.0 (0)
 -->
<!-- Title: prediction_parameters.hpp Pages: 1 -->
<svg width="2141pt" height="375pt"
 viewBox="0.00 0.00 2141.00 375.00" xmlns="http://www.w3.org/2000/svg" xmlns:xlink="http://www.w3.org/1999/xlink">
<g id="graph0" class="graph" transform="scale(1 1) rotate(0) translate(4 371)">
<title>prediction_parameters.hpp</title>
<!-- Node1 -->
<g id="node1" class="node">
<title>Node1</title>
<g id="a_node1"><a xlink:title=" ">
<polygon fill="#bfbfbf" stroke="black" points="94,-347.5 94,-366.5 242,-366.5 242,-347.5 94,-347.5"/>
<text text-anchor="middle" x="168" y="-354.5" font-family="Helvetica,sans-Serif" font-size="10.00">prediction_parameters.hpp</text>
</a>
</g>
</g>
<!-- Node2 -->
<g id="node2" class="node">
<title>Node2</title>
<g id="a_node2"><a xlink:title=" ">
<polygon fill="none" stroke="#bfbfbf" points="0,-291.5 0,-310.5 64,-310.5 64,-291.5 0,-291.5"/>
<text text-anchor="middle" x="32" y="-298.5" font-family="Helvetica,sans-Serif" font-size="10.00">algorithm</text>
</a>
</g>
</g>
<!-- Node1&#45;&gt;Node2 -->
<g id="edge1" class="edge">
<title>Node1&#45;&gt;Node2</title>
<path fill="none" stroke="midnightblue" d="M146.45,-347.44C123.97,-338.52 88.51,-324.44 63.02,-314.32"/>
<polygon fill="midnightblue" stroke="midnightblue" points="64.03,-310.95 53.45,-310.52 61.45,-317.46 64.03,-310.95"/>
</g>
<!-- Node3 -->
<g id="node3" class="node">
<title>Node3</title>
<g id="a_node3"><a xlink:title=" ">
<polygon fill="none" stroke="#bfbfbf" points="82,-291.5 82,-310.5 124,-310.5 124,-291.5 82,-291.5"/>
<text text-anchor="middle" x="103" y="-298.5" font-family="Helvetica,sans-Serif" font-size="10.00">array</text>
</a>
</g>
</g>
<!-- Node1&#45;&gt;Node3 -->
<g id="edge2" class="edge">
<title>Node1&#45;&gt;Node3</title>
<path fill="none" stroke="midnightblue" d="M157.56,-347.32C147.85,-339.26 133.18,-327.08 121.5,-317.37"/>
<polygon fill="midnightblue" stroke="midnightblue" points="123.56,-314.53 113.63,-310.83 119.09,-319.92 123.56,-314.53"/>
</g>
<!-- Node4 -->
<g id="node4" class="node">
<title>Node4</title>
<g id="a_node4"><a xlink:title=" ">
<polygon fill="none" stroke="#bfbfbf" points="142.5,-291.5 142.5,-310.5 193.5,-310.5 193.5,-291.5 142.5,-291.5"/>
<text text-anchor="middle" x="168" y="-298.5" font-family="Helvetica,sans-Serif" font-size="10.00">variant</text>
</a>
</g>
</g>
<!-- Node1&#45;&gt;Node4 -->
<g id="edge3" class="edge">
<title>Node1&#45;&gt;Node4</title>
<path fill="none" stroke="midnightblue" d="M168,-347.08C168,-340.01 168,-329.86 168,-320.99"/>
<polygon fill="midnightblue" stroke="midnightblue" points="171.5,-320.75 168,-310.75 164.5,-320.75 171.5,-320.75"/>
</g>
<!-- Node5 -->
<g id="node5" class="node">
<title>Node5</title>
<g id="a_node5"><a xlink:href="giraffe__assert_8hpp.html" target="_top" xlink:title="For absolute failures in the code.">
<polygon fill="none" stroke="black" points="212,-291.5 212,-310.5 316,-310.5 316,-291.5 212,-291.5"/>
<text text-anchor="middle" x="264" y="-298.5" font-family="Helvetica,sans-Serif" font-size="10.00">giraffe_assert.hpp</text>
</a>
</g>
</g>
<!-- Node1&#45;&gt;Node5 -->
<g id="edge4" class="edge">
<title>Node1&#45;&gt;Node5</title>
<path fill="none" stroke="midnightblue" d="M183.42,-347.32C198.54,-338.82 221.82,-325.73 239.47,-315.8"/>
<polygon fill="midnightblue" stroke="midnightblue" points="241.61,-318.61 248.61,-310.65 238.18,-312.51 241.61,-318.61"/>
</g>
<!-- Node8 -->
<g id="node8" class="node">
<title>Node8</title>
<g id="a_node8"><a xlink:href="shared__data_8hpp.html" target="_top" xlink:title="Contains the SharedData struct, used across all modules and extensions.">
<polygon fill="none" stroke="black" points="922,-291.5 922,-310.5 1020,-310.5 1020,-291.5 922,-291.5"/>
<text text-anchor="middle" x="971" y="-298.5" font-family="Helvetica,sans-Serif" font-size="10.00">shared_data.hpp</text>
</a>
</g>
</g>
<!-- Node1&#45;&gt;Node8 -->
<g id="edge7" class="edge">
<title>Node1&#45;&gt;Node8</title>
<path fill="none" stroke="midnightblue" d="M242.1,-351.02C400.06,-340.39 767.18,-315.71 911.35,-306.01"/>
<polygon fill="midnightblue" stroke="midnightblue" points="912.01,-309.47 921.75,-305.31 911.54,-302.49 912.01,-309.47"/>
</g>
<!-- Node6 -->
<g id="node6" class="node">
<title>Node6</title>
<g id="a_node6"><a xlink:title=" ">
<polygon fill="none" stroke="#bfbfbf" points="155.5,-235.5 155.5,-254.5 220.5,-254.5 220.5,-235.5 155.5,-235.5"/>
<text text-anchor="middle" x="188" y="-242.5" font-family="Helvetica,sans-Serif" font-size="10.00">exception</text>
</a>
</g>
</g>
<!-- Node5&#45;&gt;Node6 -->
<g id="edge5" class="edge">
<title>Node5&#45;&gt;Node6</title>
<path fill="none" stroke="midnightblue" d="M251.79,-291.32C240.22,-283.11 222.62,-270.6 208.84,-260.81"/>
<polygon fill="midnightblue" stroke="midnightblue" points="210.61,-257.77 200.43,-254.83 206.56,-263.48 210.61,-257.77"/>
</g>
<!-- Node7 -->
<g id="node7" class="node">
<title>Node7</title>
<g id="a_node7"><a xlink:title=" ">
<polygon fill="none" stroke="#bfbfbf" points="239,-235.5 239,-254.5 289,-254.5 289,-235.5 239,-235.5"/>
<text text-anchor="middle" x="264" y="-242.5" font-family="Helvetica,sans-Serif" font-size="10.00">stdio.h</text>
</a>
</g>
</g>
<!-- Node5&#45;&gt;Node7 -->
<g id="edge6" class="edge">
<title>Node5&#45;&gt;Node7</title>
<path fill="none" stroke="midnightblue" d="M264,-291.08C264,-284.01 264,-273.86 264,-264.99"/>
<polygon fill="midnightblue" stroke="midnightblue" points="267.5,-264.75 264,-254.75 260.5,-264.75 267.5,-264.75"/>
</g>
<!-- Node9 -->
<g id="node9" class="node">
<title>Node9</title>
<g id="a_node9"><a xlink:title=" ">
<polygon fill="none" stroke="#bfbfbf" points="814.5,-56.5 814.5,-75.5 939.5,-75.5 939.5,-56.5 814.5,-56.5"/>
<text text-anchor="middle" x="877" y="-63.5" font-family="Helvetica,sans-Serif" font-size="10.00">BoosterSeat/clock.hpp</text>
</a>
</g>
</g>
<!-- Node8&#45;&gt;Node9 -->
<g id="edge8" class="edge">
<title>Node8&#45;&gt;Node9</title>
<path fill="none" stroke="midnightblue" d="M967.54,-291.43C953.87,-257.54 903.39,-132.42 884.34,-85.2"/>
<polygon fill="midnightblue" stroke="midnightblue" points="887.58,-83.86 880.59,-75.9 881.08,-86.48 887.58,-83.86"/>
</g>
<!-- Node10 -->
<g id="node10" class="node">
<title>Node10</title>
<g id="a_node10"><a xlink:title=" ">
<polygon fill="none" stroke="#bfbfbf" points="417,-56.5 417,-75.5 539,-75.5 539,-56.5 417,-56.5"/>
<text text-anchor="middle" x="478" y="-63.5" font-family="Helvetica,sans-Serif" font-size="10.00">BoosterSeat/time.hpp</text>
</a>
</g>
</g>
<!-- Node8&#45;&gt;Node10 -->
<g id="edge9" class="edge">
<title>Node8&#45;&gt;Node10</title>
<path fill="none" stroke="midnightblue" d="M921.82,-291.87C807.57,-271.89 529.85,-216.57 476,-143 463.85,-126.4 467.24,-101.84 471.74,-85.17"/>
<polygon fill="midnightblue" stroke="midnightblue" points="475.12,-86.1 474.72,-75.51 468.43,-84.04 475.12,-86.1"/>
</g>
<!-- Node11 -->
<g id="node11" class="node">
<title>Node11</title>
<g id="a_node11"><a xlink:href="blocks_8hpp.html" target="_top" xlink:title=" ">
<polygon fill="none" stroke="black" points="727.5,-179.5 727.5,-198.5 796.5,-198.5 796.5,-179.5 727.5,-179.5"/>
<text text-anchor="middle" x="762" y="-186.5" font-family="Helvetica,sans-Serif" font-size="10.00">blocks.hpp</text>
</a>
</g>
</g>
<!-- Node8&#45;&gt;Node11 -->
<g id="edge10" class="edge">
<title>Node8&#45;&gt;Node11</title>
<path fill="none" stroke="midnightblue" d="M954.6,-291.37C918.28,-272.25 830.84,-226.23 787.39,-203.36"/>
<polygon fill="midnightblue" stroke="midnightblue" points="788.8,-200.15 778.32,-198.59 785.54,-206.35 788.8,-200.15"/>
</g>
<!-- Node21 -->
<g id="node21" class="node">
<title>Node21</title>
<g id="a_node21"><a xlink:href="error__frame_8hpp.html" target="_top" xlink:title="The error frame.">
<polygon fill="none" stroke="black" points="1041.5,-235.5 1041.5,-254.5 1136.5,-254.5 1136.5,-235.5 1041.5,-235.5"/>
<text text-anchor="middle" x="1089" y="-242.5" font-family="Helvetica,sans-Serif" font-size="10.00">error_frame.hpp</text>
</a>
</g>
</g>
<!-- Node8&#45;&gt;Node21 -->
<g id="edge29" class="edge">
<title>Node8&#45;&gt;Node21</title>
<path fill="none" stroke="midnightblue" d="M989.7,-291.44C1008.94,-282.64 1039.15,-268.81 1061.2,-258.72"/>
<polygon fill="midnightblue" stroke="midnightblue" points="1062.75,-261.86 1070.39,-254.52 1059.84,-255.5 1062.75,-261.86"/>
</g>
<!-- Node22 -->
<g id="node22" class="node">
<title>Node22</title>
<g id="a_node22"><a xlink:href="frame_8hpp.html" target="_top" xlink:title=" ">
<polygon fill="none" stroke="black" points="1162.5,-179.5 1162.5,-198.5 1229.5,-198.5 1229.5,-179.5 1162.5,-179.5"/>
<text text-anchor="middle" x="1196" y="-186.5" font-family="Helvetica,sans-Serif" font-size="10.00">frame.hpp</text>
</a>
</g>
</g>
<!-- Node8&#45;&gt;Node22 -->
<g id="edge63" class="edge">
<title>Node8&#45;&gt;Node22</title>
<path fill="none" stroke="midnightblue" d="M1020.14,-296.04C1057.29,-291.09 1108.17,-279.97 1146,-255 1163.96,-243.15 1178.14,-222.64 1186.74,-207.82"/>
<polygon fill="midnightblue" stroke="midnightblue" points="1190.03,-209.1 1191.79,-198.65 1183.9,-205.73 1190.03,-209.1"/>
</g>
<!-- Node25 -->
<g id="node25" class="node">
<title>Node25</title>
<g id="a_node25"><a xlink:href="streams_8hpp.html" target="_top" xlink:title="The header file for the data streams.">
<polygon fill="none" stroke="black" points="1328.5,-179.5 1328.5,-198.5 1405.5,-198.5 1405.5,-179.5 1328.5,-179.5"/>
<text text-anchor="middle" x="1367" y="-186.5" font-family="Helvetica,sans-Serif" font-size="10.00">streams.hpp</text>
</a>
</g>
</g>
<!-- Node8&#45;&gt;Node25 -->
<g id="edge69" class="edge">
<title>Node8&#45;&gt;Node25</title>
<path fill="none" stroke="midnightblue" d="M1014.39,-291.45C1054.9,-283.16 1116.92,-269.72 1170,-255 1228.3,-238.83 1294.92,-215.89 1333.83,-202.03"/>
<polygon fill="midnightblue" stroke="midnightblue" points="1335.34,-205.21 1343.57,-198.55 1332.98,-198.62 1335.34,-205.21"/>
</g>
<!-- Node33 -->
<g id="node33" class="node">
<title>Node33</title>
<g id="a_node33"><a xlink:href="flight__data_8hpp.html" target="_top" xlink:title=" ">
<polygon fill="none" stroke="black" points="345.5,-235.5 345.5,-254.5 434.5,-254.5 434.5,-235.5 345.5,-235.5"/>
<text text-anchor="middle" x="390" y="-242.5" font-family="Helvetica,sans-Serif" font-size="10.00">flight_data.hpp</text>
</a>
</g>
</g>
<!-- Node8&#45;&gt;Node33 -->
<g id="edge52" class="edge">
<title>Node8&#45;&gt;Node33</title>
<path fill="none" stroke="midnightblue" d="M921.95,-296.85C829.33,-290.65 622.42,-275.68 449,-255 447.7,-254.84 446.38,-254.68 445.05,-254.52"/>
<polygon fill="midnightblue" stroke="midnightblue" points="445.11,-250.99 434.74,-253.14 444.19,-257.93 445.11,-250.99"/>
</g>
<!-- Node34 -->
<g id="node34" class="node">
<title>Node34</title>
<g id="a_node34"><a xlink:href="flight__phase_8hpp.html" target="_top" xlink:title="Contains the flight phase enum and related functions.">
<polygon fill="none" stroke="black" points="99.5,-179.5 99.5,-198.5 196.5,-198.5 196.5,-179.5 99.5,-179.5"/>
<text text-anchor="middle" x="148" y="-186.5" font-family="Helvetica,sans-Serif" font-size="10.00">flight_phase.hpp</text>
</a>
</g>
</g>
<!-- Node8&#45;&gt;Node34 -->
<g id="edge62" class="edge">
<title>Node8&#45;&gt;Node34</title>
<path fill="none" stroke="midnightblue" d="M921.74,-299.12C792.45,-296.4 445.88,-286.31 336,-255 317.65,-249.77 315.67,-242.22 298,-235 263.63,-220.95 223.24,-209.09 193.04,-201.07"/>
<polygon fill="midnightblue" stroke="midnightblue" points="193.77,-197.65 183.21,-198.51 192,-204.42 193.77,-197.65"/>
</g>
<!-- Node36 -->
<g id="node36" class="node">
<title>Node36</title>
<g id="a_node36"><a xlink:href="log__container_8hpp.html" target="_top" xlink:title="A simple logging system for debugging.">
<polygon fill="none" stroke="black" points="1923.5,-235.5 1923.5,-254.5 2026.5,-254.5 2026.5,-235.5 1923.5,-235.5"/>
<text text-anchor="middle" x="1975" y="-242.5" font-family="Helvetica,sans-Serif" font-size="10.00">log_container.hpp</text>
</a>
</g>
</g>
<!-- Node8&#45;&gt;Node36 -->
<g id="edge64" class="edge">
<title>Node8&#45;&gt;Node36</title>
<path fill="none" stroke="midnightblue" d="M1020.1,-297.36C1186.54,-288.41 1729.15,-259.22 1913.25,-249.32"/>
<polygon fill="midnightblue" stroke="midnightblue" points="1913.51,-252.81 1923.3,-248.78 1913.13,-245.82 1913.51,-252.81"/>
</g>
<!-- Node38 -->
<g id="node38" class="node">
<title>Node38</title>
<g id="a_node38"><a xlink:href="status__led_8hpp.html" target="_top" xlink:title="RGB Status LED extension header file.">
<polygon fill="none" stroke="black" points="2045,-235.5 2045,-254.5 2133,-254.5 2133,-235.5 2045,-235.5"/>
<text text-anchor="middle" x="2089" y="-242.5" font-family="Helvetica,sans-Serif" font-size="10.00">status_led.hpp</text>
</a>
</g>
</g>
<!-- Node8&#45;&gt;Node38 -->
<g id="edge67" class="edge">
<title>Node8&#45;&gt;Node38</title>
<path fill="none" stroke="midnightblue" d="M1020.26,-300.12C1170.78,-300.02 1637.99,-296.24 2034.57,-255.01"/>
<polygon fill="midnightblue" stroke="midnightblue" points="2035.23,-258.46 2044.81,-253.93 2034.5,-251.49 2035.23,-258.46"/>
</g>
<!-- Node11&#45;&gt;Node9 -->
<g id="edge12" class="edge">
<title>Node11&#45;&gt;Node9</title>
<path fill="none" stroke="midnightblue" d="M770.27,-179.3C789.42,-159.15 837.03,-109.06 861.67,-83.12"/>
<polygon fill="midnightblue" stroke="midnightblue" points="864.45,-85.28 868.8,-75.62 859.38,-80.46 864.45,-85.28"/>
</g>
<!-- Node11&#45;&gt;Node10 -->
<g id="edge14" class="edge">
<title>Node11&#45;&gt;Node10</title>
<path fill="none" stroke="midnightblue" d="M727.34,-186.77C663.07,-183.76 528.94,-173.86 496,-143 480.42,-128.4 477.19,-103 477.02,-85.61"/>
<polygon fill="midnightblue" stroke="midnightblue" points="480.52,-85.61 477.25,-75.54 473.53,-85.46 480.52,-85.61"/>
</g>
<!-- Node11&#45;&gt;Node11 -->
<g id="edge15" class="edge">
<title>Node11&#45;&gt;Node11</title>
<path fill="none" stroke="midnightblue" d="M784.39,-198.53C799.61,-201.31 814.5,-198.13 814.5,-189 814.5,-181.94 805.59,-178.44 794.51,-178.5"/>
<polygon fill="midnightblue" stroke="midnightblue" points="794.01,-175.03 784.39,-179.47 794.68,-182 794.01,-175.03"/>
</g>
<!-- Node12 -->
<g id="node12" class="node">
<title>Node12</title>
<g id="a_node12"><a xlink:title=" ">
<polygon fill="none" stroke="#bfbfbf" points="1677,-56.5 1677,-75.5 1725,-75.5 1725,-56.5 1677,-56.5"/>
<text text-anchor="middle" x="1701" y="-63.5" font-family="Helvetica,sans-Serif" font-size="10.00">mutex</text>
</a>
</g>
</g>
<!-- Node11&#45;&gt;Node12 -->
<g id="edge11" class="edge">
<title>Node11&#45;&gt;Node12</title>
<path fill="none" stroke="midnightblue" d="M785.45,-179.47C831.32,-163.21 936.44,-127.95 1028,-112 1270.09,-69.81 1567.52,-66.55 1666.88,-66.75"/>
<polygon fill="midnightblue" stroke="midnightblue" points="1666.93,-70.25 1676.94,-66.78 1666.95,-63.25 1666.93,-70.25"/>
</g>
<!-- Node13 -->
<g id="node13" class="node">
<title>Node13</title>
<g id="a_node13"><a xlink:title=" ">
<polygon fill="none" stroke="#bfbfbf" points="505.5,-118 505.5,-137 648.5,-137 648.5,-118 505.5,-118"/>
<text text-anchor="middle" x="577" y="-125" font-family="Helvetica,sans-Serif" font-size="10.00">BoosterSeat/numbers.hpp</text>
</a>
</g>
</g>
<!-- Node11&#45;&gt;Node13 -->
<g id="edge13" class="edge">
<title>Node11&#45;&gt;Node13</title>
<path fill="none" stroke="midnightblue" d="M735.49,-179.48C703.35,-169.14 649.01,-151.66 613.07,-140.1"/>
<polygon fill="midnightblue" stroke="midnightblue" points="614.05,-136.74 603.46,-137.01 611.9,-143.4 614.05,-136.74"/>
</g>
<!-- Node14 -->
<g id="node14" class="node">
<title>Node14</title>
<g id="a_node14"><a xlink:href="json_8hpp.html" target="_top" xlink:title="Simple wrapper around nlohmann/json.hpp to provide a common interface.">
<polygon fill="none" stroke="black" points="315,-118 315,-137 373,-137 373,-118 315,-118"/>
<text text-anchor="middle" x="344" y="-125" font-family="Helvetica,sans-Serif" font-size="10.00">json.hpp</text>
</a>
</g>
</g>
<!-- Node11&#45;&gt;Node14 -->
<g id="edge16" class="edge">
<title>Node11&#45;&gt;Node14</title>
<path fill="none" stroke="midnightblue" d="M727.44,-183.08C650.41,-172.12 465.02,-145.73 383.54,-134.13"/>
<polygon fill="midnightblue" stroke="midnightblue" points="383.61,-130.6 373.22,-132.66 382.62,-137.53 383.61,-130.6"/>
</g>
<!-- Node17 -->
<g id="node17" class="node">
<title>Node17</title>
<g id="a_node17"><a xlink:href="node_8hpp.html" target="_top" xlink:title="Contains structures that are used to identify components of the flight system.">
<polygon fill="none" stroke="black" points="958,-56.5 958,-75.5 1020,-75.5 1020,-56.5 958,-56.5"/>
<text text-anchor="middle" x="989" y="-63.5" font-family="Helvetica,sans-Serif" font-size="10.00">node.hpp</text>
</a>
</g>
</g>
<!-- Node11&#45;&gt;Node17 -->
<g id="edge19" class="edge">
<title>Node11&#45;&gt;Node17</title>
<path fill="none" stroke="midnightblue" d="M777.96,-179.49C816.86,-158.76 916.8,-105.49 963.82,-80.42"/>
<polygon fill="midnightblue" stroke="midnightblue" points="965.57,-83.45 972.75,-75.66 962.28,-77.28 965.57,-83.45"/>
</g>
<!-- Node20 -->
<g id="node20" class="node">
<title>Node20</title>
<g id="a_node20"><a xlink:href="positional_8hpp.html" target="_top" xlink:title="Positional data for the flight system (gps/imu data)">
<polygon fill="none" stroke="black" points="705,-118 705,-137 791,-137 791,-118 705,-118"/>
<text text-anchor="middle" x="748" y="-125" font-family="Helvetica,sans-Serif" font-size="10.00">positional.hpp</text>
</a>
</g>
</g>
<!-- Node11&#45;&gt;Node20 -->
<g id="edge22" class="edge">
<title>Node11&#45;&gt;Node20</title>
<path fill="none" stroke="midnightblue" d="M759.99,-179.48C758,-170.99 754.87,-157.7 752.31,-146.82"/>
<polygon fill="midnightblue" stroke="midnightblue" points="755.7,-145.94 750,-137.01 748.89,-147.54 755.7,-145.94"/>
</g>
<!-- Node15 -->
<g id="node15" class="node">
<title>Node15</title>
<g id="a_node15"><a xlink:title=" ">
<polygon fill="none" stroke="#bfbfbf" points="289,-56.5 289,-75.5 399,-75.5 399,-56.5 289,-56.5"/>
<text text-anchor="middle" x="344" y="-63.5" font-family="Helvetica,sans-Serif" font-size="10.00">nlohmann/json.hpp</text>
</a>
</g>
</g>
<!-- Node14&#45;&gt;Node15 -->
<g id="edge17" class="edge">
<title>Node14&#45;&gt;Node15</title>
<path fill="none" stroke="midnightblue" d="M344,-117.98C344,-109.58 344,-96.48 344,-85.66"/>
<polygon fill="midnightblue" stroke="midnightblue" points="347.5,-85.51 344,-75.51 340.5,-85.51 347.5,-85.51"/>
</g>
<!-- Node16 -->
<g id="node16" class="node">
<title>Node16</title>
<g id="a_node16"><a xlink:title=" ">
<polygon fill="none" stroke="#bfbfbf" points="227,-56.5 227,-75.5 271,-75.5 271,-56.5 227,-56.5"/>
<text text-anchor="middle" x="249" y="-63.5" font-family="Helvetica,sans-Serif" font-size="10.00">string</text>
</a>
</g>
</g>
<!-- Node14&#45;&gt;Node16 -->
<g id="edge18" class="edge">
<title>Node14&#45;&gt;Node16</title>
<path fill="none" stroke="midnightblue" d="M330.39,-117.98C314.94,-108.3 289.51,-92.37 271.18,-80.89"/>
<polygon fill="midnightblue" stroke="midnightblue" points="272.92,-77.85 262.59,-75.51 269.2,-83.78 272.92,-77.85"/>
</g>
<!-- Node18 -->
<g id="node18" class="node">
<title>Node18</title>
<g id="a_node18"><a xlink:title=" ">
<polygon fill="none" stroke="#bfbfbf" points="919,-0.5 919,-19.5 969,-19.5 969,-0.5 919,-0.5"/>
<text text-anchor="middle" x="944" y="-7.5" font-family="Helvetica,sans-Serif" font-size="10.00">cstdint</text>
</a>
</g>
</g>
<!-- Node17&#45;&gt;Node18 -->
<g id="edge20" class="edge">
<title>Node17&#45;&gt;Node18</title>
<path fill="none" stroke="midnightblue" d="M981.57,-56.08C975.15,-48.38 965.69,-37.03 957.88,-27.65"/>
<polygon fill="midnightblue" stroke="midnightblue" points="960.38,-25.19 951.29,-19.75 955.01,-29.67 960.38,-25.19"/>
</g>
<!-- Node19 -->
<g id="node19" class="node">
<title>Node19</title>
<g id="a_node19"><a xlink:title=" ">
<polygon fill="none" stroke="#bfbfbf" points="818,-0.5 818,-19.5 856,-19.5 856,-0.5 818,-0.5"/>
<text text-anchor="middle" x="837" y="-7.5" font-family="Helvetica,sans-Serif" font-size="10.00">map</text>
</a>
</g>
</g>
<!-- Node17&#45;&gt;Node19 -->
<g id="edge21" class="edge">
<title>Node17&#45;&gt;Node19</title>
<path fill="none" stroke="midnightblue" d="M964.92,-56.44C937.96,-46.87 894.31,-31.36 865.63,-21.17"/>
<polygon fill="midnightblue" stroke="midnightblue" points="866.75,-17.86 856.16,-17.81 864.41,-24.45 866.75,-17.86"/>
</g>
<!-- Node20&#45;&gt;Node9 -->
<g id="edge27" class="edge">
<title>Node20&#45;&gt;Node9</title>
<path fill="none" stroke="midnightblue" d="M766.48,-117.98C788.13,-107.99 824.21,-91.35 849.23,-79.81"/>
<polygon fill="midnightblue" stroke="midnightblue" points="850.94,-82.88 858.55,-75.51 848.01,-76.52 850.94,-82.88"/>
</g>
<!-- Node20&#45;&gt;Node10 -->
<g id="edge28" class="edge">
<title>Node20&#45;&gt;Node10</title>
<path fill="none" stroke="midnightblue" d="M715.5,-117.99C707.51,-115.96 698.96,-113.85 691,-112 636.64,-99.35 574.13,-86.32 530.95,-77.56"/>
<polygon fill="midnightblue" stroke="midnightblue" points="531.45,-74.09 520.95,-75.54 530.06,-80.95 531.45,-74.09"/>
</g>
<!-- Node20&#45;&gt;Node15 -->
<g id="edge26" class="edge">
<title>Node20&#45;&gt;Node15</title>
<path fill="none" stroke="midnightblue" d="M717.39,-117.98C708.89,-115.81 699.63,-113.64 691,-112 569.6,-88.93 535.39,-92.62 409.2,-76.13"/>
<polygon fill="midnightblue" stroke="midnightblue" points="409.52,-72.64 399.15,-74.8 408.61,-79.58 409.52,-72.64"/>
</g>
<!-- Node20&#45;&gt;Node16 -->
<g id="edge25" class="edge">
<title>Node20&#45;&gt;Node16</title>
<path fill="none" stroke="midnightblue" d="M718.32,-117.98C709.58,-115.74 699.96,-113.52 691,-112 513.4,-81.84 462.04,-108.74 281.07,-75.84"/>
<polygon fill="midnightblue" stroke="midnightblue" points="281.7,-72.4 271.23,-74.02 280.42,-79.28 281.7,-72.4"/>
</g>
<!-- Node20&#45;&gt;Node18 -->
<g id="edge23" class="edge">
<title>Node20&#45;&gt;Node18</title>
<path fill="none" stroke="midnightblue" d="M752.77,-117.77C761.3,-102.92 780.61,-72.76 805,-56 836.61,-34.29 879.36,-22.52 909.07,-16.53"/>
<polygon fill="midnightblue" stroke="midnightblue" points="909.82,-19.95 918.99,-14.65 908.51,-13.08 909.82,-19.95"/>
</g>
<!-- Node20&#45;&gt;Node19 -->
<g id="edge24" class="edge">
<title>Node20&#45;&gt;Node19</title>
<path fill="none" stroke="midnightblue" d="M749.15,-117.87C751.41,-103.71 757.51,-75.19 772,-56 781.85,-42.95 796.6,-32.31 809.56,-24.65"/>
<polygon fill="midnightblue" stroke="midnightblue" points="811.56,-27.54 818.59,-19.61 808.15,-21.43 811.56,-27.54"/>
</g>
<!-- Node21&#45;&gt;Node9 -->
<g id="edge30" class="edge">
<title>Node21&#45;&gt;Node9</title>
<path fill="none" stroke="midnightblue" d="M1084.32,-235.36C1071.41,-212.28 1033.11,-148.51 985,-112 965.3,-97.05 939.92,-86.15 918.71,-78.82"/>
<polygon fill="midnightblue" stroke="midnightblue" points="919.58,-75.42 908.99,-75.6 917.39,-82.07 919.58,-75.42"/>
</g>
<!-- Node21&#45;&gt;Node22 -->
<g id="edge31" class="edge">
<title>Node21&#45;&gt;Node22</title>
<path fill="none" stroke="midnightblue" d="M1106.19,-235.32C1123.35,-226.66 1149.95,-213.24 1169.75,-203.25"/>
<polygon fill="midnightblue" stroke="midnightblue" points="1171.5,-206.28 1178.85,-198.65 1168.35,-200.04 1171.5,-206.28"/>
</g>
<!-- Node24 -->
<g id="node24" class="node">
<title>Node24</title>
<g id="a_node24"><a xlink:href="giraffe__diagnostic__ids_8hpp.html" target="_top" xlink:title=" ">
<polygon fill="none" stroke="black" points="1037,-112.5 1037,-142.5 1141,-142.5 1141,-112.5 1037,-112.5"/>
<text text-anchor="start" x="1045" y="-130.5" font-family="Helvetica,sans-Serif" font-size="10.00">giraffe_diagnostic</text>
<text text-anchor="middle" x="1089" y="-119.5" font-family="Helvetica,sans-Serif" font-size="10.00">_ids.hpp</text>
</a>
</g>
</g>
<!-- Node21&#45;&gt;Node24 -->
<g id="edge34" class="edge">
<title>Node21&#45;&gt;Node24</title>
<path fill="none" stroke="midnightblue" d="M1089,-235.32C1089,-217.97 1089,-178.46 1089,-152.66"/>
<polygon fill="midnightblue" stroke="midnightblue" points="1092.5,-152.55 1089,-142.55 1085.5,-152.55 1092.5,-152.55"/>
</g>
<!-- Node21&#45;&gt;Node25 -->
<g id="edge35" class="edge">
<title>Node21&#45;&gt;Node25</title>
<path fill="none" stroke="midnightblue" d="M1133.05,-235.44C1183.43,-225.66 1265.69,-209.68 1318.04,-199.51"/>
<polygon fill="midnightblue" stroke="midnightblue" points="1318.94,-202.9 1328.09,-197.56 1317.61,-196.03 1318.94,-202.9"/>
</g>
<!-- Node22&#45;&gt;Node12 -->
<g id="edge32" class="edge">
<title>Node22&#45;&gt;Node12</title>
<path fill="none" stroke="midnightblue" d="M1212.35,-179.37C1243.35,-163.39 1313.21,-129.28 1376,-112 1479.62,-83.48 1607.03,-72.56 1666.89,-68.78"/>
<polygon fill="midnightblue" stroke="midnightblue" points="1667.15,-72.27 1676.92,-68.18 1666.72,-65.29 1667.15,-72.27"/>
</g>
<!-- Node23 -->
<g id="node23" class="node">
<title>Node23</title>
<g id="a_node23"><a xlink:title=" ">
<polygon fill="none" stroke="#bfbfbf" points="1159.5,-118 1159.5,-137 1252.5,-137 1252.5,-118 1159.5,-118"/>
<text text-anchor="middle" x="1206" y="-125" font-family="Helvetica,sans-Serif" font-size="10.00">unordered_map</text>
</a>
</g>
</g>
<!-- Node22&#45;&gt;Node23 -->
<g id="edge33" class="edge">
<title>Node22&#45;&gt;Node23</title>
<path fill="none" stroke="midnightblue" d="M1197.43,-179.48C1198.84,-171.08 1201.05,-157.98 1202.86,-147.16"/>
<polygon fill="midnightblue" stroke="midnightblue" points="1206.36,-147.45 1204.57,-137.01 1199.46,-146.29 1206.36,-147.45"/>
</g>
<!-- Node25&#45;&gt;Node9 -->
<g id="edge41" class="edge">
<title>Node25&#45;&gt;Node9</title>
<path fill="none" stroke="midnightblue" d="M1351.25,-179.35C1336.26,-170.85 1313.33,-157.12 1295,-143 1279.06,-130.72 1280.25,-120.47 1262,-112 1137.95,-54.46 1090.28,-90.88 950.08,-76.05"/>
<polygon fill="midnightblue" stroke="midnightblue" points="950.15,-72.53 939.82,-74.89 949.37,-79.49 950.15,-72.53"/>
</g>
<!-- Node25&#45;&gt;Node12 -->
<g id="edge38" class="edge">
<title>Node25&#45;&gt;Node12</title>
<path fill="none" stroke="midnightblue" d="M1405.82,-185.87C1492.86,-180.7 1697.61,-166.18 1718,-143 1732.19,-126.88 1722.23,-101.51 1712.62,-84.57"/>
<polygon fill="midnightblue" stroke="midnightblue" points="1715.4,-82.4 1707.19,-75.7 1709.43,-86.06 1715.4,-82.4"/>
</g>
<!-- Node25&#45;&gt;Node16 -->
<g id="edge40" class="edge">
<title>Node25&#45;&gt;Node16</title>
<path fill="none" stroke="midnightblue" d="M1328.35,-185.24C1302.96,-183.44 1269,-181.05 1239,-179 1118.35,-170.76 808.8,-186.61 696,-143 675.35,-135.02 677.53,-120.28 657,-112 503.95,-50.27 447.53,-105.36 281.3,-75.86"/>
<polygon fill="midnightblue" stroke="midnightblue" points="281.7,-72.38 271.23,-73.99 280.42,-79.26 281.7,-72.38"/>
</g>
<!-- Node25&#45;&gt;Node17 -->
<g id="edge50" class="edge">
<title>Node25&#45;&gt;Node17</title>
<path fill="none" stroke="midnightblue" d="M1361.56,-179.14C1350.98,-162.8 1325.97,-128.09 1295,-112 1249.7,-88.46 1102.87,-75.06 1030.33,-69.73"/>
<polygon fill="midnightblue" stroke="midnightblue" points="1030.42,-66.23 1020.19,-69 1029.91,-73.21 1030.42,-66.23"/>
</g>
<!-- Node25&#45;&gt;Node20 -->
<g id="edge51" class="edge">
<title>Node25&#45;&gt;Node20</title>
<path fill="none" stroke="midnightblue" d="M1328.28,-184.28C1221.68,-174.03 923.71,-145.39 801.42,-133.63"/>
<polygon fill="midnightblue" stroke="midnightblue" points="801.47,-130.12 791.18,-132.65 800.8,-137.09 801.47,-130.12"/>
</g>
<!-- Node25&#45;&gt;Node24 -->
<g id="edge49" class="edge">
<title>Node25&#45;&gt;Node24</title>
<path fill="none" stroke="midnightblue" d="M1328.31,-180.24C1285.04,-171.48 1212.9,-156.68 1151,-143 1150.9,-142.98 1150.8,-142.96 1150.7,-142.93"/>
<polygon fill="midnightblue" stroke="midnightblue" points="1151.6,-139.55 1141.07,-140.78 1150.07,-146.38 1151.6,-139.55"/>
</g>
<!-- Node26 -->
<g id="node26" class="node">
<title>Node26</title>
<g id="a_node26"><a xlink:title=" ">
<polygon fill="none" stroke="#bfbfbf" points="1907,-118 1907,-137 1957,-137 1957,-118 1907,-118"/>
<text text-anchor="middle" x="1932" y="-125" font-family="Helvetica,sans-Serif" font-size="10.00">atomic</text>
</a>
</g>
</g>
<!-- Node25&#45;&gt;Node26 -->
<g id="edge36" class="edge">
<title>Node25&#45;&gt;Node26</title>
<path fill="none" stroke="midnightblue" d="M1405.82,-188.24C1493.7,-188.02 1714.14,-183.12 1893,-143 1896.07,-142.31 1899.23,-141.44 1902.35,-140.46"/>
<polygon fill="midnightblue" stroke="midnightblue" points="1903.77,-143.67 1912.07,-137.09 1901.48,-137.06 1903.77,-143.67"/>
</g>
<!-- Node27 -->
<g id="node27" class="node">
<title>Node27</title>
<g id="a_node27"><a xlink:title=" ">
<polygon fill="none" stroke="#bfbfbf" points="1385,-118 1385,-137 1445,-137 1445,-118 1385,-118"/>
<text text-anchor="middle" x="1415" y="-125" font-family="Helvetica,sans-Serif" font-size="10.00">iostream</text>
</a>
</g>
</g>
<!-- Node25&#45;&gt;Node27 -->
<g id="edge37" class="edge">
<title>Node25&#45;&gt;Node27</title>
<path fill="none" stroke="midnightblue" d="M1373.88,-179.48C1381.15,-170.46 1392.8,-156.02 1401.84,-144.81"/>
<polygon fill="midnightblue" stroke="midnightblue" points="1404.58,-146.99 1408.14,-137.01 1399.13,-142.59 1404.58,-146.99"/>
</g>
<!-- Node28 -->
<g id="node28" class="node">
<title>Node28</title>
<g id="a_node28"><a xlink:title=" ">
<polygon fill="none" stroke="#bfbfbf" points="1867.5,-56.5 1867.5,-75.5 1914.5,-75.5 1914.5,-56.5 1867.5,-56.5"/>
<text text-anchor="middle" x="1891" y="-63.5" font-family="Helvetica,sans-Serif" font-size="10.00">queue</text>
</a>
</g>
</g>
<!-- Node25&#45;&gt;Node28 -->
<g id="edge39" class="edge">
<title>Node25&#45;&gt;Node28</title>
<path fill="none" stroke="midnightblue" d="M1405.52,-186.76C1515.22,-182.93 1823.73,-169.85 1860,-143 1878.12,-129.58 1885.69,-103.71 1888.82,-85.91"/>
<polygon fill="midnightblue" stroke="midnightblue" points="1892.31,-86.22 1890.28,-75.82 1885.38,-85.22 1892.31,-86.22"/>
</g>
<!-- Node29 -->
<g id="node29" class="node">
<title>Node29</title>
<g id="a_node29"><a xlink:title=" ">
<polygon fill="none" stroke="#bfbfbf" points="1463,-118 1463,-137 1611,-137 1611,-118 1463,-118"/>
<text text-anchor="middle" x="1537" y="-125" font-family="Helvetica,sans-Serif" font-size="10.00">BoosterSeat/exception.hpp</text>
</a>
</g>
</g>
<!-- Node25&#45;&gt;Node29 -->
<g id="edge42" class="edge">
<title>Node25&#45;&gt;Node29</title>
<path fill="none" stroke="midnightblue" d="M1391.36,-179.48C1420.64,-169.22 1469.97,-151.96 1503,-140.4"/>
<polygon fill="midnightblue" stroke="midnightblue" points="1504.41,-143.62 1512.69,-137.01 1502.09,-137.01 1504.41,-143.62"/>
</g>
<!-- Node30 -->
<g id="node30" class="node">
<title>Node30</title>
<g id="a_node30"><a xlink:href="command_8hpp.html" target="_top" xlink:title="The command/queue system for the flight system.">
<polygon fill="none" stroke="black" points="1765,-118 1765,-137 1851,-137 1851,-118 1765,-118"/>
<text text-anchor="middle" x="1808" y="-125" font-family="Helvetica,sans-Serif" font-size="10.00">command.hpp</text>
</a>
</g>
</g>
<!-- Node25&#45;&gt;Node30 -->
<g id="edge43" class="edge">
<title>Node25&#45;&gt;Node30</title>
<path fill="none" stroke="midnightblue" d="M1405.68,-185.17C1475.21,-179.71 1625.76,-166.16 1751,-143 1756.46,-141.99 1762.17,-140.76 1767.78,-139.44"/>
<polygon fill="midnightblue" stroke="midnightblue" points="1768.82,-142.79 1777.7,-137 1767.15,-135.99 1768.82,-142.79"/>
</g>
<!-- Node32 -->
<g id="node32" class="node">
<title>Node32</title>
<g id="a_node32"><a xlink:href="data__ids_8hpp.html" target="_top" xlink:title=" ">
<polygon fill="none" stroke="black" points="1629.5,-118 1629.5,-137 1708.5,-137 1708.5,-118 1629.5,-118"/>
<text text-anchor="middle" x="1669" y="-125" font-family="Helvetica,sans-Serif" font-size="10.00">data_ids.hpp</text>
</a>
</g>
</g>
<!-- Node25&#45;&gt;Node32 -->
<g id="edge48" class="edge">
<title>Node25&#45;&gt;Node32</title>
<path fill="none" stroke="midnightblue" d="M1405.85,-182.47C1455.75,-175.05 1544.88,-160.74 1620,-143 1624.08,-142.04 1628.32,-140.94 1632.53,-139.78"/>
<polygon fill="midnightblue" stroke="midnightblue" points="1633.53,-143.13 1642.19,-137.02 1631.61,-136.4 1633.53,-143.13"/>
</g>
<!-- Node30&#45;&gt;Node12 -->
<g id="edge44" class="edge">
<title>Node30&#45;&gt;Node12</title>
<path fill="none" stroke="midnightblue" d="M1792.67,-117.98C1775.03,-108.17 1745.84,-91.93 1725.14,-80.42"/>
<polygon fill="midnightblue" stroke="midnightblue" points="1726.74,-77.31 1716.3,-75.51 1723.34,-83.43 1726.74,-77.31"/>
</g>
<!-- Node30&#45;&gt;Node17 -->
<g id="edge47" class="edge">
<title>Node30&#45;&gt;Node17</title>
<path fill="none" stroke="midnightblue" d="M1764.63,-118.63C1749.87,-116.19 1733.26,-113.7 1718,-112 1457.03,-82.99 1141.28,-71.47 1030.11,-68.12"/>
<polygon fill="midnightblue" stroke="midnightblue" points="1030.1,-64.62 1020,-67.83 1029.9,-71.62 1030.1,-64.62"/>
</g>
<!-- Node30&#45;&gt;Node28 -->
<g id="edge45" class="edge">
<title>Node30&#45;&gt;Node28</title>
<path fill="none" stroke="midnightblue" d="M1819.89,-117.98C1833.2,-108.43 1855,-92.81 1870.96,-81.37"/>
<polygon fill="midnightblue" stroke="midnightblue" points="1873.04,-84.18 1879.13,-75.51 1868.96,-78.49 1873.04,-84.18"/>
</g>
<!-- Node31 -->
<g id="node31" class="node">
<title>Node31</title>
<g id="a_node31"><a xlink:href="command__ids_8hpp.html" target="_top" xlink:title=" ">
<polygon fill="none" stroke="black" points="1743,-56.5 1743,-75.5 1849,-75.5 1849,-56.5 1743,-56.5"/>
<text text-anchor="middle" x="1796" y="-63.5" font-family="Helvetica,sans-Serif" font-size="10.00">command_ids.hpp</text>
</a>
</g>
</g>
<!-- Node30&#45;&gt;Node31 -->
<g id="edge46" class="edge">
<title>Node30&#45;&gt;Node31</title>
<path fill="none" stroke="midnightblue" d="M1806.28,-117.98C1804.57,-109.49 1801.89,-96.2 1799.7,-85.32"/>
<polygon fill="midnightblue" stroke="midnightblue" points="1803.12,-84.62 1797.72,-75.51 1796.26,-86 1803.12,-84.62"/>
</g>
<!-- Node33&#45;&gt;Node9 -->
<g id="edge55" class="edge">
<title>Node33&#45;&gt;Node9</title>
<path fill="none" stroke="midnightblue" d="M434.82,-241.93C539.27,-236.75 792.38,-221.94 823,-199 859.56,-171.61 871.47,-115.13 875.27,-85.72"/>
<polygon fill="midnightblue" stroke="midnightblue" points="878.77,-85.9 876.4,-75.58 871.82,-85.13 878.77,-85.9"/>
</g>
<!-- Node33&#45;&gt;Node10 -->
<g id="edge56" class="edge">
<title>Node33&#45;&gt;Node10</title>
<path fill="none" stroke="midnightblue" d="M390.53,-235.26C392.22,-213.02 399.06,-153.1 425,-112 432.65,-99.88 444.61,-89.32 455.23,-81.48"/>
<polygon fill="midnightblue" stroke="midnightblue" points="457.51,-84.16 463.71,-75.56 453.51,-78.41 457.51,-84.16"/>
</g>
<!-- Node33&#45;&gt;Node14 -->
<g id="edge61" class="edge">
<title>Node33&#45;&gt;Node14</title>
<path fill="none" stroke="midnightblue" d="M387.46,-235.47C383.66,-222.94 376.05,-198.87 368,-179 363.56,-168.03 357.9,-156.06 353.2,-146.52"/>
<polygon fill="midnightblue" stroke="midnightblue" points="356.18,-144.67 348.57,-137.3 349.93,-147.81 356.18,-144.67"/>
</g>
<!-- Node33&#45;&gt;Node16 -->
<g id="edge54" class="edge">
<title>Node33&#45;&gt;Node16</title>
<path fill="none" stroke="midnightblue" d="M345.46,-236.24C307.16,-228.55 256.21,-215.54 244,-199 219.23,-165.45 232.18,-112.95 241.75,-85.36"/>
<polygon fill="midnightblue" stroke="midnightblue" points="245.11,-86.38 245.29,-75.79 238.54,-83.95 245.11,-86.38"/>
</g>
<!-- Node33&#45;&gt;Node26 -->
<g id="edge53" class="edge">
<title>Node33&#45;&gt;Node26</title>
<path fill="none" stroke="midnightblue" d="M434.53,-243.24C577.31,-240.54 1036.41,-229.87 1415,-199 1624.23,-181.94 1678.52,-185.96 1884,-143 1888.22,-142.12 1892.6,-141.04 1896.92,-139.86"/>
<polygon fill="midnightblue" stroke="midnightblue" points="1898.17,-143.15 1906.8,-137.01 1896.23,-136.42 1898.17,-143.15"/>
</g>
<!-- Node33&#45;&gt;Node34 -->
<g id="edge57" class="edge">
<title>Node33&#45;&gt;Node34</title>
<path fill="none" stroke="midnightblue" d="M351.65,-235.44C309.53,-226.04 241.79,-210.93 196.13,-200.74"/>
<polygon fill="midnightblue" stroke="midnightblue" points="196.69,-197.28 186.17,-198.52 195.16,-204.11 196.69,-197.28"/>
</g>
<!-- Node35 -->
<g id="node35" class="node">
<title>Node35</title>
<g id="a_node35"><a xlink:href="i__built__in__test_8hpp.html" target="_top" xlink:title=" ">
<polygon fill="none" stroke="black" points="253,-179.5 253,-198.5 359,-198.5 359,-179.5 253,-179.5"/>
<text text-anchor="middle" x="306" y="-186.5" font-family="Helvetica,sans-Serif" font-size="10.00">i_built_in_test.hpp</text>
</a>
</g>
</g>
<!-- Node33&#45;&gt;Node35 -->
<g id="edge59" class="edge">
<title>Node33&#45;&gt;Node35</title>
<path fill="none" stroke="midnightblue" d="M376.5,-235.32C363.4,-226.9 343.29,-213.97 327.89,-204.07"/>
<polygon fill="midnightblue" stroke="midnightblue" points="329.77,-201.12 319.46,-198.65 325.98,-207.01 329.77,-201.12"/>
</g>
<!-- Node34&#45;&gt;Node16 -->
<g id="edge58" class="edge">
<title>Node34&#45;&gt;Node16</title>
<path fill="none" stroke="midnightblue" d="M155.35,-179.09C167.07,-164.87 190.76,-136.19 211,-112 218.97,-102.47 227.94,-91.85 235.16,-83.32"/>
<polygon fill="midnightblue" stroke="midnightblue" points="237.9,-85.5 241.69,-75.61 232.56,-80.97 237.9,-85.5"/>
</g>
<!-- Node35&#45;&gt;Node14 -->
<g id="edge60" class="edge">
<title>Node35&#45;&gt;Node14</title>
<path fill="none" stroke="midnightblue" d="M311.44,-179.48C317.09,-170.64 326.06,-156.59 333.16,-145.48"/>
<polygon fill="midnightblue" stroke="midnightblue" points="336.13,-147.32 338.57,-137.01 330.23,-143.55 336.13,-147.32"/>
</g>
<!-- Node36&#45;&gt;Node12 -->
<g id="edge66" class="edge">
<title>Node36&#45;&gt;Node12</title>
<path fill="none" stroke="midnightblue" d="M1977.67,-235.19C1984.19,-211.72 1998.15,-147.03 1966,-112 1932.59,-75.59 1800.09,-85.62 1735.25,-75.75"/>
<polygon fill="midnightblue" stroke="midnightblue" points="1735.54,-72.24 1725.07,-73.9 1734.29,-79.13 1735.54,-72.24"/>
</g>
<!-- Node37 -->
<g id="node37" class="node">
<title>Node37</title>
<g id="a_node37"><a xlink:title=" ">
<polygon fill="none" stroke="#bfbfbf" points="2013.5,-179.5 2013.5,-198.5 2060.5,-198.5 2060.5,-179.5 2013.5,-179.5"/>
<text text-anchor="middle" x="2037" y="-186.5" font-family="Helvetica,sans-Serif" font-size="10.00">deque</text>
</a>
</g>
</g>
<!-- Node36&#45;&gt;Node37 -->
<g id="edge65" class="edge">
<title>Node36&#45;&gt;Node37</title>
<path fill="none" stroke="midnightblue" d="M1984.96,-235.32C1994.13,-227.34 2007.94,-215.31 2019.03,-205.65"/>
<polygon fill="midnightblue" stroke="midnightblue" points="2021.62,-208.04 2026.86,-198.83 2017.02,-202.76 2021.62,-208.04"/>
</g>
<!-- Node38&#45;&gt;Node26 -->
<g id="edge68" class="edge">
<title>Node38&#45;&gt;Node26</title>
<path fill="none" stroke="midnightblue" d="M2088.84,-235.22C2088.13,-221.46 2084.78,-194.8 2070,-179 2043.06,-150.21 1998.36,-137.78 1967.16,-132.44"/>
<polygon fill="midnightblue" stroke="midnightblue" points="1967.56,-128.96 1957.14,-130.89 1966.49,-135.88 1967.56,-128.96"/>
</g>
</g>
</svg>
