<?xml version="1.0" encoding="UTF-8" standalone="no"?>
<!DOCTYPE svg PUBLIC "-//W3C//DTD SVG 1.1//EN"
 "http://www.w3.org/Graphics/SVG/1.1/DTD/svg11.dtd">
<!-- Generated by graphviz version 2.43.0 (0)
 -->
<!-- Title: prediction_parameters.hpp Pages: 1 -->
<svg width="2141pt" height="368pt"
 viewBox="0.00 0.00 2141.00 368.00" xmlns="http://www.w3.org/2000/svg" xmlns:xlink="http://www.w3.org/1999/xlink">
<g id="graph0" class="graph" transform="scale(1 1) rotate(0) translate(4 364)">
<title>prediction_parameters.hpp</title>
<!-- Node1 -->
<g id="Node000001" class="node">
<title>Node1</title>
<g id="a_Node000001"><a xlink:title=" ">
<polygon fill="#999999" stroke="#666666" points="242,-360 94,-360 94,-341 242,-341 242,-360"/>
<text text-anchor="middle" x="168" y="-348" font-family="Helvetica,sans-Serif" font-size="10.00">prediction_parameters.hpp</text>
</a>
</g>
</g>
<!-- Node2 -->
<g id="Node000002" class="node">
<title>Node2</title>
<g id="a_Node000002"><a xlink:title=" ">
<polygon fill="#e0e0e0" stroke="#999999" points="64,-305 0,-305 0,-286 64,-286 64,-305"/>
<text text-anchor="middle" x="32" y="-293" font-family="Helvetica,sans-Serif" font-size="10.00">algorithm</text>
</a>
</g>
</g>
<!-- Node1&#45;&gt;Node2 -->
<g id="edge1_Node000001_Node000002" class="edge">
<title>Node1&#45;&gt;Node2</title>
<g id="a_edge1_Node000001_Node000002"><a xlink:title=" ">
<path fill="none" stroke="#63b8ff" d="M146.15,-340.98C123.88,-332.3 89.1,-318.75 63.78,-308.88"/>
<polygon fill="#63b8ff" stroke="#63b8ff" points="64.84,-305.54 54.25,-305.17 62.29,-312.06 64.84,-305.54"/>
</a>
</g>
</g>
<!-- Node3 -->
<g id="Node000003" class="node">
<title>Node3</title>
<g id="a_Node000003"><a xlink:title=" ">
<polygon fill="#e0e0e0" stroke="#999999" points="124,-305 82,-305 82,-286 124,-286 124,-305"/>
<text text-anchor="middle" x="103" y="-293" font-family="Helvetica,sans-Serif" font-size="10.00">array</text>
</a>
</g>
</g>
<!-- Node1&#45;&gt;Node3 -->
<g id="edge2_Node000001_Node000003" class="edge">
<title>Node1&#45;&gt;Node3</title>
<g id="a_edge2_Node000001_Node000003"><a xlink:title=" ">
<path fill="none" stroke="#63b8ff" d="M157.56,-340.98C147.85,-333.07 133.18,-321.11 121.5,-311.58"/>
<polygon fill="#63b8ff" stroke="#63b8ff" points="123.6,-308.78 113.63,-305.17 119.17,-314.2 123.6,-308.78"/>
</a>
</g>
</g>
<!-- Node4 -->
<g id="Node000004" class="node">
<title>Node4</title>
<g id="a_Node000004"><a xlink:title=" ">
<polygon fill="#e0e0e0" stroke="#999999" points="193.5,-305 142.5,-305 142.5,-286 193.5,-286 193.5,-305"/>
<text text-anchor="middle" x="168" y="-293" font-family="Helvetica,sans-Serif" font-size="10.00">variant</text>
</a>
</g>
</g>
<!-- Node1&#45;&gt;Node4 -->
<g id="edge3_Node000001_Node000004" class="edge">
<title>Node1&#45;&gt;Node4</title>
<g id="a_edge3_Node000001_Node000004"><a xlink:title=" ">
<path fill="none" stroke="#63b8ff" d="M168,-340.75C168,-333.8 168,-323.85 168,-315.13"/>
<polygon fill="#63b8ff" stroke="#63b8ff" points="171.5,-315.09 168,-305.09 164.5,-315.09 171.5,-315.09"/>
</a>
</g>
</g>
<!-- Node5 -->
<g id="Node000005" class="node">
<title>Node5</title>
<g id="a_Node000005"><a xlink:href="giraffe__assert_8hpp.html" target="_top" xlink:title="For absolute failures in the code.">
<polygon fill="white" stroke="#666666" points="316,-305 212,-305 212,-286 316,-286 316,-305"/>
<text text-anchor="middle" x="264" y="-293" font-family="Helvetica,sans-Serif" font-size="10.00">giraffe_assert.hpp</text>
</a>
</g>
</g>
<!-- Node1&#45;&gt;Node5 -->
<g id="edge4_Node000001_Node000005" class="edge">
<title>Node1&#45;&gt;Node5</title>
<g id="a_edge4_Node000001_Node000005"><a xlink:title=" ">
<path fill="none" stroke="#63b8ff" d="M183.42,-340.98C198.45,-332.69 221.54,-319.94 239.16,-310.22"/>
<polygon fill="#63b8ff" stroke="#63b8ff" points="241.23,-313.07 248.3,-305.17 237.85,-306.94 241.23,-313.07"/>
</a>
</g>
</g>
<!-- Node8 -->
<g id="Node000008" class="node">
<title>Node8</title>
<g id="a_Node000008"><a xlink:href="shared__data_8hpp.html" target="_top" xlink:title="Contains the SharedData struct, used across all modules and extensions.">
<polygon fill="white" stroke="#666666" points="1020,-305 922,-305 922,-286 1020,-286 1020,-305"/>
<text text-anchor="middle" x="971" y="-293" font-family="Helvetica,sans-Serif" font-size="10.00">shared_data.hpp</text>
</a>
</g>
</g>
<!-- Node1&#45;&gt;Node8 -->
<g id="edge7_Node000001_Node000008" class="edge">
<title>Node1&#45;&gt;Node8</title>
<g id="a_edge7_Node000001_Node000008"><a xlink:title=" ">
<path fill="none" stroke="#63b8ff" d="M242.1,-344.61C400.06,-334.18 767.18,-309.95 911.35,-300.44"/>
<polygon fill="#63b8ff" stroke="#63b8ff" points="912,-303.9 921.75,-299.75 911.54,-296.92 912,-303.9"/>
</a>
</g>
</g>
<!-- Node6 -->
<g id="Node000006" class="node">
<title>Node6</title>
<g id="a_Node000006"><a xlink:title=" ">
<polygon fill="#e0e0e0" stroke="#999999" points="220.5,-250 155.5,-250 155.5,-231 220.5,-231 220.5,-250"/>
<text text-anchor="middle" x="188" y="-238" font-family="Helvetica,sans-Serif" font-size="10.00">exception</text>
</a>
</g>
</g>
<!-- Node5&#45;&gt;Node6 -->
<g id="edge5_Node000005_Node000006" class="edge">
<title>Node5&#45;&gt;Node6</title>
<g id="a_edge5_Node000005_Node000006"><a xlink:title=" ">
<path fill="none" stroke="#63b8ff" d="M251.79,-285.98C240.22,-277.92 222.62,-265.65 208.84,-256.03"/>
<polygon fill="#63b8ff" stroke="#63b8ff" points="210.64,-253.02 200.43,-250.17 206.63,-258.76 210.64,-253.02"/>
</a>
</g>
</g>
<!-- Node7 -->
<g id="Node000007" class="node">
<title>Node7</title>
<g id="a_Node000007"><a xlink:title=" ">
<polygon fill="#e0e0e0" stroke="#999999" points="289,-250 239,-250 239,-231 289,-231 289,-250"/>
<text text-anchor="middle" x="264" y="-238" font-family="Helvetica,sans-Serif" font-size="10.00">stdio.h</text>
</a>
</g>
</g>
<!-- Node5&#45;&gt;Node7 -->
<g id="edge6_Node000005_Node000007" class="edge">
<title>Node5&#45;&gt;Node7</title>
<g id="a_edge6_Node000005_Node000007"><a xlink:title=" ">
<path fill="none" stroke="#63b8ff" d="M264,-285.75C264,-278.8 264,-268.85 264,-260.13"/>
<polygon fill="#63b8ff" stroke="#63b8ff" points="267.5,-260.09 264,-250.09 260.5,-260.09 267.5,-260.09"/>
</a>
</g>
</g>
<!-- Node9 -->
<g id="Node000009" class="node">
<title>Node9</title>
<g id="a_Node000009"><a xlink:title=" ">
<polygon fill="#e0e0e0" stroke="#999999" points="939.5,-74 814.5,-74 814.5,-55 939.5,-55 939.5,-74"/>
<text text-anchor="middle" x="877" y="-62" font-family="Helvetica,sans-Serif" font-size="10.00">BoosterSeat/clock.hpp</text>
</a>
</g>
</g>
<!-- Node8&#45;&gt;Node9 -->
<g id="edge8_Node000008_Node000009" class="edge">
<title>Node8&#45;&gt;Node9</title>
<g id="a_edge8_Node000008_Node000009"><a xlink:title=" ">
<path fill="none" stroke="#63b8ff" d="M967.43,-285.8C953.62,-252.15 903.5,-130.05 884.43,-83.61"/>
<polygon fill="#63b8ff" stroke="#63b8ff" points="887.61,-82.13 880.57,-74.21 881.13,-84.79 887.61,-82.13"/>
</a>
</g>
</g>
<!-- Node10 -->
<g id="Node000010" class="node">
<title>Node10</title>
<g id="a_Node000010"><a xlink:title=" ">
<polygon fill="#e0e0e0" stroke="#999999" points="539,-74 417,-74 417,-55 539,-55 539,-74"/>
<text text-anchor="middle" x="478" y="-62" font-family="Helvetica,sans-Serif" font-size="10.00">BoosterSeat/time.hpp</text>
</a>
</g>
</g>
<!-- Node8&#45;&gt;Node10 -->
<g id="edge9_Node000008_Node000010" class="edge">
<title>Node8&#45;&gt;Node10</title>
<g id="a_edge9_Node000008_Node000010"><a xlink:title=" ">
<path fill="none" stroke="#63b8ff" d="M921.93,-286.61C807.94,-267.18 530.82,-213.22 477,-140 465.3,-124.08 467.92,-100.63 471.93,-84.31"/>
<polygon fill="#63b8ff" stroke="#63b8ff" points="475.4,-84.91 474.78,-74.33 468.67,-82.99 475.4,-84.91"/>
</a>
</g>
</g>
<!-- Node11 -->
<g id="Node000011" class="node">
<title>Node11</title>
<g id="a_Node000011"><a xlink:href="blocks_8hpp.html" target="_top" xlink:title=" ">
<polygon fill="white" stroke="#666666" points="796.5,-195 727.5,-195 727.5,-176 796.5,-176 796.5,-195"/>
<text text-anchor="middle" x="762" y="-183" font-family="Helvetica,sans-Serif" font-size="10.00">blocks.hpp</text>
</a>
</g>
</g>
<!-- Node8&#45;&gt;Node11 -->
<g id="edge10_Node000008_Node000011" class="edge">
<title>Node8&#45;&gt;Node11</title>
<g id="a_edge10_Node000008_Node000011"><a xlink:title=" ">
<path fill="none" stroke="#63b8ff" d="M954.25,-285.84C917.78,-267 830.98,-222.14 787.6,-199.73"/>
<polygon fill="#63b8ff" stroke="#63b8ff" points="789.03,-196.53 778.54,-195.05 785.82,-202.75 789.03,-196.53"/>
</a>
</g>
</g>
<!-- Node21 -->
<g id="Node000021" class="node">
<title>Node21</title>
<g id="a_Node000021"><a xlink:href="error__frame_8hpp.html" target="_top" xlink:title="The error frame.">
<polygon fill="white" stroke="#666666" points="1136.5,-250 1041.5,-250 1041.5,-231 1136.5,-231 1136.5,-250"/>
<text text-anchor="middle" x="1089" y="-238" font-family="Helvetica,sans-Serif" font-size="10.00">error_frame.hpp</text>
</a>
</g>
</g>
<!-- Node8&#45;&gt;Node21 -->
<g id="edge29_Node000008_Node000021" class="edge">
<title>Node8&#45;&gt;Node21</title>
<g id="a_edge29_Node000008_Node000021"><a xlink:title=" ">
<path fill="none" stroke="#63b8ff" d="M989.96,-285.98C1009.03,-277.42 1038.66,-264.11 1060.55,-254.28"/>
<polygon fill="#63b8ff" stroke="#63b8ff" points="1062.01,-257.46 1069.7,-250.17 1059.14,-251.07 1062.01,-257.46"/>
</a>
</g>
</g>
<!-- Node22 -->
<g id="Node000022" class="node">
<title>Node22</title>
<g id="a_Node000022"><a xlink:href="frame_8hpp.html" target="_top" xlink:title=" ">
<polygon fill="white" stroke="#666666" points="1229.5,-195 1162.5,-195 1162.5,-176 1229.5,-176 1229.5,-195"/>
<text text-anchor="middle" x="1196" y="-183" font-family="Helvetica,sans-Serif" font-size="10.00">frame.hpp</text>
</a>
</g>
</g>
<!-- Node8&#45;&gt;Node22 -->
<g id="edge63_Node000008_Node000022" class="edge">
<title>Node8&#45;&gt;Node22</title>
<g id="a_edge63_Node000008_Node000022"><a xlink:title=" ">
<path fill="none" stroke="#63b8ff" d="M1020.06,-290.58C1057.16,-285.68 1108.02,-274.69 1146,-250 1163.59,-238.57 1177.69,-218.83 1186.37,-204.39"/>
<polygon fill="#63b8ff" stroke="#63b8ff" points="1189.58,-205.82 1191.5,-195.4 1183.5,-202.36 1189.58,-205.82"/>
</a>
</g>
</g>
<!-- Node25 -->
<g id="Node000025" class="node">
<title>Node25</title>
<g id="a_Node000025"><a xlink:href="streams_8hpp.html" target="_top" xlink:title="The header file for the data streams.">
<polygon fill="white" stroke="#666666" points="1405.5,-195 1328.5,-195 1328.5,-176 1405.5,-176 1405.5,-195"/>
<text text-anchor="middle" x="1367" y="-183" font-family="Helvetica,sans-Serif" font-size="10.00">streams.hpp</text>
</a>
</g>
</g>
<!-- Node8&#45;&gt;Node25 -->
<g id="edge69_Node000008_Node000025" class="edge">
<title>Node8&#45;&gt;Node25</title>
<g id="a_edge69_Node000008_Node000025"><a xlink:title=" ">
<path fill="none" stroke="#63b8ff" d="M1014.14,-285.96C1054.44,-277.71 1116.14,-264.39 1169,-250 1227.32,-234.13 1294.05,-211.86 1333.24,-198.34"/>
<polygon fill="#63b8ff" stroke="#63b8ff" points="1334.52,-201.61 1342.82,-195.03 1332.23,-194.99 1334.52,-201.61"/>
</a>
</g>
</g>
<!-- Node33 -->
<g id="Node000033" class="node">
<title>Node33</title>
<g id="a_Node000033"><a xlink:href="flight__data_8hpp.html" target="_top" xlink:title=" ">
<polygon fill="white" stroke="#666666" points="434.5,-250 345.5,-250 345.5,-231 434.5,-231 434.5,-250"/>
<text text-anchor="middle" x="390" y="-238" font-family="Helvetica,sans-Serif" font-size="10.00">flight_data.hpp</text>
</a>
</g>
</g>
<!-- Node8&#45;&gt;Node33 -->
<g id="edge52_Node000008_Node000033" class="edge">
<title>Node8&#45;&gt;Node33</title>
<g id="a_edge52_Node000008_Node000033"><a xlink:title=" ">
<path fill="none" stroke="#63b8ff" d="M921.97,-291.27C829.37,-284.97 622.5,-269.88 449,-250 447.7,-249.85 446.38,-249.7 445.05,-249.54"/>
<polygon fill="#63b8ff" stroke="#63b8ff" points="445.1,-246.01 434.74,-248.22 444.22,-252.96 445.1,-246.01"/>
</a>
</g>
</g>
<!-- Node34 -->
<g id="Node000034" class="node">
<title>Node34</title>
<g id="a_Node000034"><a xlink:href="flight__phase_8hpp.html" target="_top" xlink:title="Contains the flight phase enum and related functions.">
<polygon fill="white" stroke="#666666" points="196.5,-195 99.5,-195 99.5,-176 196.5,-176 196.5,-195"/>
<text text-anchor="middle" x="148" y="-183" font-family="Helvetica,sans-Serif" font-size="10.00">flight_phase.hpp</text>
</a>
</g>
</g>
<!-- Node8&#45;&gt;Node34 -->
<g id="edge62_Node000008_Node000034" class="edge">
<title>Node8&#45;&gt;Node34</title>
<g id="a_edge62_Node000008_Node000034"><a xlink:title=" ">
<path fill="none" stroke="#63b8ff" d="M921.77,-293.54C792.58,-290.61 446.2,-280.12 336,-250 317.79,-245.02 315.56,-237.93 298,-231 263.5,-217.38 223.12,-205.63 192.95,-197.63"/>
<polygon fill="#63b8ff" stroke="#63b8ff" points="193.7,-194.2 183.14,-195.06 191.93,-200.97 193.7,-194.2"/>
</a>
</g>
</g>
<!-- Node36 -->
<g id="Node000036" class="node">
<title>Node36</title>
<g id="a_Node000036"><a xlink:href="log__container_8hpp.html" target="_top" xlink:title="A simple logging system for debugging.">
<polygon fill="white" stroke="#666666" points="2026.5,-250 1923.5,-250 1923.5,-231 2026.5,-231 2026.5,-250"/>
<text text-anchor="middle" x="1975" y="-238" font-family="Helvetica,sans-Serif" font-size="10.00">log_container.hpp</text>
</a>
</g>
</g>
<!-- Node8&#45;&gt;Node36 -->
<g id="edge64_Node000008_Node000036" class="edge">
<title>Node8&#45;&gt;Node36</title>
<g id="a_edge64_Node000008_Node000036"><a xlink:title=" ">
<path fill="none" stroke="#63b8ff" d="M1020.1,-291.91C1186.54,-283.12 1729.15,-254.48 1913.25,-244.76"/>
<polygon fill="#63b8ff" stroke="#63b8ff" points="1913.5,-248.25 1923.3,-244.23 1913.13,-241.26 1913.5,-248.25"/>
</a>
</g>
</g>
<!-- Node38 -->
<g id="Node000038" class="node">
<title>Node38</title>
<g id="a_Node000038"><a xlink:href="status__led_8hpp.html" target="_top" xlink:title="RGB Status LED extension header file.">
<polygon fill="white" stroke="#666666" points="2133,-250 2045,-250 2045,-231 2133,-231 2133,-250"/>
<text text-anchor="middle" x="2089" y="-238" font-family="Helvetica,sans-Serif" font-size="10.00">status_led.hpp</text>
</a>
</g>
</g>
<!-- Node8&#45;&gt;Node38 -->
<g id="edge67_Node000008_Node000038" class="edge">
<title>Node8&#45;&gt;Node38</title>
<g id="a_edge67_Node000008_Node000038"><a xlink:title=" ">
<path fill="none" stroke="#63b8ff" d="M1020.24,-294.49C1170.71,-294.03 1637.81,-289.38 2034.56,-250.01"/>
<polygon fill="#63b8ff" stroke="#63b8ff" points="2035.2,-253.46 2044.8,-248.99 2034.51,-246.5 2035.2,-253.46"/>
</a>
</g>
</g>
<!-- Node11&#45;&gt;Node9 -->
<g id="edge12_Node000011_Node000009" class="edge">
<title>Node11&#45;&gt;Node9</title>
<g id="a_edge12_Node000011_Node000009"><a xlink:title=" ">
<path fill="none" stroke="#63b8ff" d="M770.27,-175.94C789.32,-156.23 836.57,-107.34 861.31,-81.73"/>
<polygon fill="#63b8ff" stroke="#63b8ff" points="864.06,-83.92 868.49,-74.3 859.03,-79.06 864.06,-83.92"/>
</a>
</g>
</g>
<!-- Node11&#45;&gt;Node10 -->
<g id="edge14_Node000011_Node000010" class="edge">
<title>Node11&#45;&gt;Node10</title>
<g id="a_edge14_Node000011_Node000010"><a xlink:title=" ">
<path fill="none" stroke="#63b8ff" d="M727.11,-183.31C662.77,-180.4 528.98,-170.71 496,-140 480.89,-125.93 477.48,-101.54 477.14,-84.51"/>
<polygon fill="#63b8ff" stroke="#63b8ff" points="480.65,-84.17 477.29,-74.12 473.65,-84.07 480.65,-84.17"/>
</a>
</g>
</g>
<!-- Node11&#45;&gt;Node11 -->
<g id="edge15_Node000011_Node000011" class="edge">
<title>Node11&#45;&gt;Node11</title>
<g id="a_edge15_Node000011_Node000011"><a xlink:title=" ">
<path fill="none" stroke="#63b8ff" d="M786.57,-195.03C801,-197.06 814.5,-193.88 814.5,-185.5 814.5,-179.15 806.75,-175.78 796.71,-175.41"/>
<polygon fill="#63b8ff" stroke="#63b8ff" points="796.37,-171.92 786.57,-175.97 796.75,-178.91 796.37,-171.92"/>
</a>
</g>
</g>
<!-- Node12 -->
<g id="Node000012" class="node">
<title>Node12</title>
<g id="a_Node000012"><a xlink:title=" ">
<polygon fill="#e0e0e0" stroke="#999999" points="1725,-74 1677,-74 1677,-55 1725,-55 1725,-74"/>
<text text-anchor="middle" x="1701" y="-62" font-family="Helvetica,sans-Serif" font-size="10.00">mutex</text>
</a>
</g>
</g>
<!-- Node11&#45;&gt;Node12 -->
<g id="edge11_Node000011_Node000012" class="edge">
<title>Node11&#45;&gt;Node12</title>
<g id="a_edge11_Node000011_Node000012"><a xlink:title=" ">
<path fill="none" stroke="#63b8ff" d="M786.18,-175.9C832.45,-159.85 937.01,-125.58 1028,-110 1270.21,-68.54 1567.56,-65.15 1666.89,-65.27"/>
<polygon fill="#63b8ff" stroke="#63b8ff" points="1666.94,-68.77 1676.95,-65.3 1666.96,-61.77 1666.94,-68.77"/>
</a>
</g>
</g>
<!-- Node13 -->
<g id="Node000013" class="node">
<title>Node13</title>
<g id="a_Node000013"><a xlink:title=" ">
<polygon fill="#e0e0e0" stroke="#999999" points="648.5,-134.5 505.5,-134.5 505.5,-115.5 648.5,-115.5 648.5,-134.5"/>
<text text-anchor="middle" x="577" y="-122.5" font-family="Helvetica,sans-Serif" font-size="10.00">BoosterSeat/numbers.hpp</text>
</a>
</g>
</g>
<!-- Node11&#45;&gt;Node13 -->
<g id="edge13_Node000011_Node000013" class="edge">
<title>Node11&#45;&gt;Node13</title>
<g id="a_edge13_Node000011_Node000013"><a xlink:title=" ">
<path fill="none" stroke="#63b8ff" d="M735.1,-175.99C703.04,-165.86 649.32,-148.87 613.52,-137.55"/>
<polygon fill="#63b8ff" stroke="#63b8ff" points="614.52,-134.19 603.93,-134.52 612.41,-140.87 614.52,-134.19"/>
</a>
</g>
</g>
<!-- Node14 -->
<g id="Node000014" class="node">
<title>Node14</title>
<g id="a_Node000014"><a xlink:href="json_8hpp.html" target="_top" xlink:title="Simple wrapper around nlohmann/json.hpp to provide a common interface.">
<polygon fill="white" stroke="#666666" points="373,-134.5 315,-134.5 315,-115.5 373,-115.5 373,-134.5"/>
<text text-anchor="middle" x="344" y="-122.5" font-family="Helvetica,sans-Serif" font-size="10.00">json.hpp</text>
</a>
</g>
</g>
<!-- Node11&#45;&gt;Node14 -->
<g id="edge16_Node000011_Node000014" class="edge">
<title>Node11&#45;&gt;Node14</title>
<g id="a_edge16_Node000011_Node000014"><a xlink:title=" ">
<path fill="none" stroke="#63b8ff" d="M727.44,-179.66C650.41,-168.88 465.02,-142.94 383.54,-131.53"/>
<polygon fill="#63b8ff" stroke="#63b8ff" points="383.61,-128.01 373.22,-130.09 382.64,-134.94 383.61,-128.01"/>
</a>
</g>
</g>
<!-- Node17 -->
<g id="Node000017" class="node">
<title>Node17</title>
<g id="a_Node000017"><a xlink:href="node_8hpp.html" target="_top" xlink:title="Contains structures that are used to identify components of the flight system.">
<polygon fill="white" stroke="#666666" points="1020,-74 958,-74 958,-55 1020,-55 1020,-74"/>
<text text-anchor="middle" x="989" y="-62" font-family="Helvetica,sans-Serif" font-size="10.00">node.hpp</text>
</a>
</g>
</g>
<!-- Node11&#45;&gt;Node17 -->
<g id="edge19_Node000011_Node000017" class="edge">
<title>Node11&#45;&gt;Node17</title>
<g id="a_edge19_Node000011_Node000017"><a xlink:title=" ">
<path fill="none" stroke="#63b8ff" d="M778.33,-175.94C817.41,-155.45 916.61,-103.45 963.59,-78.82"/>
<polygon fill="#63b8ff" stroke="#63b8ff" points="965.29,-81.88 972.52,-74.14 962.04,-75.68 965.29,-81.88"/>
</a>
</g>
</g>
<!-- Node20 -->
<g id="Node000020" class="node">
<title>Node20</title>
<g id="a_Node000020"><a xlink:href="positional_8hpp.html" target="_top" xlink:title="Positional data for the flight system (gps/imu data)">
<polygon fill="white" stroke="#666666" points="791,-134.5 705,-134.5 705,-115.5 791,-115.5 791,-134.5"/>
<text text-anchor="middle" x="748" y="-122.5" font-family="Helvetica,sans-Serif" font-size="10.00">positional.hpp</text>
</a>
</g>
</g>
<!-- Node11&#45;&gt;Node20 -->
<g id="edge22_Node000011_Node000020" class="edge">
<title>Node11&#45;&gt;Node20</title>
<g id="a_edge22_Node000011_Node000020"><a xlink:title=" ">
<path fill="none" stroke="#63b8ff" d="M759.93,-175.87C757.97,-167.66 754.95,-155.04 752.44,-144.55"/>
<polygon fill="#63b8ff" stroke="#63b8ff" points="755.81,-143.58 750.07,-134.67 749,-145.21 755.81,-143.58"/>
</a>
</g>
</g>
<!-- Node15 -->
<g id="Node000015" class="node">
<title>Node15</title>
<g id="a_Node000015"><a xlink:title=" ">
<polygon fill="#e0e0e0" stroke="#999999" points="399,-74 289,-74 289,-55 399,-55 399,-74"/>
<text text-anchor="middle" x="344" y="-62" font-family="Helvetica,sans-Serif" font-size="10.00">nlohmann/json.hpp</text>
</a>
</g>
</g>
<!-- Node14&#45;&gt;Node15 -->
<g id="edge17_Node000014_Node000015" class="edge">
<title>Node14&#45;&gt;Node15</title>
<g id="a_edge17_Node000014_Node000015"><a xlink:title=" ">
<path fill="none" stroke="#63b8ff" d="M344,-115.37C344,-107.25 344,-94.81 344,-84.39"/>
<polygon fill="#63b8ff" stroke="#63b8ff" points="347.5,-84.17 344,-74.17 340.5,-84.17 347.5,-84.17"/>
</a>
</g>
</g>
<!-- Node16 -->
<g id="Node000016" class="node">
<title>Node16</title>
<g id="a_Node000016"><a xlink:title=" ">
<polygon fill="#e0e0e0" stroke="#999999" points="271,-74 227,-74 227,-55 271,-55 271,-74"/>
<text text-anchor="middle" x="249" y="-62" font-family="Helvetica,sans-Serif" font-size="10.00">string</text>
</a>
</g>
</g>
<!-- Node14&#45;&gt;Node16 -->
<g id="edge18_Node000014_Node000016" class="edge">
<title>Node14&#45;&gt;Node16</title>
<g id="a_edge18_Node000014_Node000016"><a xlink:title=" ">
<path fill="none" stroke="#63b8ff" d="M329.98,-115.37C314.69,-105.95 289.97,-90.73 271.86,-79.58"/>
<polygon fill="#63b8ff" stroke="#63b8ff" points="273.43,-76.43 263.08,-74.17 269.75,-82.39 273.43,-76.43"/>
</a>
</g>
</g>
<!-- Node18 -->
<g id="Node000018" class="node">
<title>Node18</title>
<g id="a_Node000018"><a xlink:title=" ">
<polygon fill="#e0e0e0" stroke="#999999" points="969,-19 919,-19 919,0 969,0 969,-19"/>
<text text-anchor="middle" x="944" y="-7" font-family="Helvetica,sans-Serif" font-size="10.00">cstdint</text>
</a>
</g>
</g>
<!-- Node17&#45;&gt;Node18 -->
<g id="edge20_Node000017_Node000018" class="edge">
<title>Node17&#45;&gt;Node18</title>
<g id="a_edge20_Node000017_Node000018"><a xlink:title=" ">
<path fill="none" stroke="#63b8ff" d="M981.57,-54.75C975.15,-47.18 965.69,-36.05 957.88,-26.84"/>
<polygon fill="#63b8ff" stroke="#63b8ff" points="960.43,-24.45 951.29,-19.09 955.1,-28.98 960.43,-24.45"/>
</a>
</g>
</g>
<!-- Node19 -->
<g id="Node000019" class="node">
<title>Node19</title>
<g id="a_Node000019"><a xlink:title=" ">
<polygon fill="#e0e0e0" stroke="#999999" points="856,-19 818,-19 818,0 856,0 856,-19"/>
<text text-anchor="middle" x="837" y="-7" font-family="Helvetica,sans-Serif" font-size="10.00">map</text>
</a>
</g>
</g>
<!-- Node17&#45;&gt;Node19 -->
<g id="edge21_Node000017_Node000019" class="edge">
<title>Node17&#45;&gt;Node19</title>
<g id="a_edge21_Node000017_Node000019"><a xlink:title=" ">
<path fill="none" stroke="#63b8ff" d="M964.58,-54.98C937.67,-45.6 894.43,-30.53 865.87,-20.57"/>
<polygon fill="#63b8ff" stroke="#63b8ff" points="866.66,-17.14 856.07,-17.15 864.36,-23.75 866.66,-17.14"/>
</a>
</g>
</g>
<!-- Node20&#45;&gt;Node9 -->
<g id="edge27_Node000020_Node000009" class="edge">
<title>Node20&#45;&gt;Node9</title>
<g id="a_edge27_Node000020_Node000009"><a xlink:title=" ">
<path fill="none" stroke="#63b8ff" d="M766.76,-115.49C788.35,-105.7 824.03,-89.52 848.93,-78.23"/>
<polygon fill="#63b8ff" stroke="#63b8ff" points="850.56,-81.33 858.22,-74.02 847.67,-74.96 850.56,-81.33"/>
</a>
</g>
</g>
<!-- Node20&#45;&gt;Node10 -->
<g id="edge28_Node000020_Node000010" class="edge">
<title>Node20&#45;&gt;Node10</title>
<g id="a_edge28_Node000020_Node000010"><a xlink:title=" ">
<path fill="none" stroke="#63b8ff" d="M713.99,-115.44C706.43,-113.6 698.45,-111.69 691,-110 636.6,-97.64 574.09,-84.73 530.93,-76.02"/>
<polygon fill="#63b8ff" stroke="#63b8ff" points="531.43,-72.55 520.93,-74.01 530.05,-79.42 531.43,-72.55"/>
</a>
</g>
</g>
<!-- Node20&#45;&gt;Node15 -->
<g id="edge26_Node000020_Node000015" class="edge">
<title>Node20&#45;&gt;Node15</title>
<g id="a_edge26_Node000020_Node000015"><a xlink:title=" ">
<path fill="none" stroke="#63b8ff" d="M715.88,-115.43C707.8,-113.46 699.12,-111.51 691,-110 569.51,-87.43 535.45,-90.19 409.21,-74.14"/>
<polygon fill="#63b8ff" stroke="#63b8ff" points="409.52,-70.65 399.16,-72.84 408.63,-77.59 409.52,-70.65"/>
</a>
</g>
</g>
<!-- Node20&#45;&gt;Node16 -->
<g id="edge25_Node000020_Node000016" class="edge">
<title>Node20&#45;&gt;Node16</title>
<g id="a_edge25_Node000020_Node000016"><a xlink:title=" ">
<path fill="none" stroke="#63b8ff" d="M717.12,-115.5C708.7,-113.43 699.55,-111.42 691,-110 513.28,-80.57 462.27,-105.47 281.09,-73.87"/>
<polygon fill="#63b8ff" stroke="#63b8ff" points="281.7,-70.42 271.24,-72.11 280.47,-77.31 281.7,-70.42"/>
</a>
</g>
</g>
<!-- Node20&#45;&gt;Node18 -->
<g id="edge23_Node000020_Node000018" class="edge">
<title>Node20&#45;&gt;Node18</title>
<g id="a_edge23_Node000020_Node000018"><a xlink:title=" ">
<path fill="none" stroke="#63b8ff" d="M752.81,-115.45C761.41,-100.91 780.81,-71.38 805,-55 836.63,-33.59 879.2,-21.97 908.86,-16.02"/>
<polygon fill="#63b8ff" stroke="#63b8ff" points="909.6,-19.45 918.78,-14.15 908.3,-12.57 909.6,-19.45"/>
</a>
</g>
</g>
<!-- Node20&#45;&gt;Node19 -->
<g id="edge24_Node000020_Node000019" class="edge">
<title>Node20&#45;&gt;Node19</title>
<g id="a_edge24_Node000020_Node000019"><a xlink:title=" ">
<path fill="none" stroke="#63b8ff" d="M749.26,-115.1C751.63,-101.08 757.83,-73.54 772,-55 781.82,-42.15 796.45,-31.67 809.34,-24.12"/>
<polygon fill="#63b8ff" stroke="#63b8ff" points="811.27,-27.05 818.32,-19.15 807.88,-20.93 811.27,-27.05"/>
</a>
</g>
</g>
<!-- Node21&#45;&gt;Node9 -->
<g id="edge30_Node000021_Node000009" class="edge">
<title>Node21&#45;&gt;Node9</title>
<g id="a_edge30_Node000021_Node000009"><a xlink:title=" ">
<path fill="none" stroke="#63b8ff" d="M1084.09,-230.68C1070.92,-207.76 1032.56,-145.59 985,-110 965.38,-95.31 940.21,-84.58 919.11,-77.33"/>
<polygon fill="#63b8ff" stroke="#63b8ff" points="920.02,-73.95 909.43,-74.15 917.84,-80.6 920.02,-73.95"/>
</a>
</g>
</g>
<!-- Node21&#45;&gt;Node22 -->
<g id="edge31_Node000021_Node000022" class="edge">
<title>Node21&#45;&gt;Node22</title>
<g id="a_edge31_Node000021_Node000022"><a xlink:title=" ">
<path fill="none" stroke="#63b8ff" d="M1106.19,-230.98C1123.25,-222.54 1149.63,-209.47 1169.4,-199.68"/>
<polygon fill="#63b8ff" stroke="#63b8ff" points="1171.09,-202.75 1178.5,-195.17 1167.98,-196.47 1171.09,-202.75"/>
</a>
</g>
</g>
<!-- Node24 -->
<g id="Node000024" class="node">
<title>Node24</title>
<g id="a_Node000024"><a xlink:href="giraffe__diagnostic__ids_8hpp.html" target="_top" xlink:title=" ">
<polygon fill="white" stroke="#666666" points="1141,-140 1037,-140 1037,-110 1141,-110 1141,-140"/>
<text text-anchor="start" x="1045" y="-128" font-family="Helvetica,sans-Serif" font-size="10.00">giraffe_diagnostic</text>
<text text-anchor="middle" x="1089" y="-117" font-family="Helvetica,sans-Serif" font-size="10.00">_ids.hpp</text>
</a>
</g>
</g>
<!-- Node21&#45;&gt;Node24 -->
<g id="edge34_Node000021_Node000024" class="edge">
<title>Node21&#45;&gt;Node24</title>
<g id="a_edge34_Node000021_Node000024"><a xlink:title=" ">
<path fill="none" stroke="#63b8ff" d="M1089,-230.97C1089,-214.08 1089,-175.85 1089,-150.48"/>
<polygon fill="#63b8ff" stroke="#63b8ff" points="1092.5,-150.18 1089,-140.18 1085.5,-150.18 1092.5,-150.18"/>
</a>
</g>
</g>
<!-- Node21&#45;&gt;Node25 -->
<g id="edge35_Node000021_Node000025" class="edge">
<title>Node21&#45;&gt;Node25</title>
<g id="a_edge35_Node000021_Node000025"><a xlink:title=" ">
<path fill="none" stroke="#63b8ff" d="M1133.67,-230.98C1184.17,-221.36 1266.14,-205.73 1318.27,-195.79"/>
<polygon fill="#63b8ff" stroke="#63b8ff" points="1319.11,-199.19 1328.27,-193.88 1317.8,-192.32 1319.11,-199.19"/>
</a>
</g>
</g>
<!-- Node22&#45;&gt;Node12 -->
<g id="edge32_Node000022_Node000012" class="edge">
<title>Node22&#45;&gt;Node12</title>
<g id="a_edge32_Node000022_Node000012"><a xlink:title=" ">
<path fill="none" stroke="#63b8ff" d="M1212.86,-175.79C1244.14,-160.04 1313.64,-126.87 1376,-110 1479.72,-81.94 1607.09,-71.07 1666.91,-67.29"/>
<polygon fill="#63b8ff" stroke="#63b8ff" points="1667.16,-70.78 1676.93,-66.69 1666.74,-63.8 1667.16,-70.78"/>
</a>
</g>
</g>
<!-- Node23 -->
<g id="Node000023" class="node">
<title>Node23</title>
<g id="a_Node000023"><a xlink:title=" ">
<polygon fill="#e0e0e0" stroke="#999999" points="1252.5,-134.5 1159.5,-134.5 1159.5,-115.5 1252.5,-115.5 1252.5,-134.5"/>
<text text-anchor="middle" x="1206" y="-122.5" font-family="Helvetica,sans-Serif" font-size="10.00">unordered_map</text>
</a>
</g>
</g>
<!-- Node22&#45;&gt;Node23 -->
<g id="edge33_Node000022_Node000023" class="edge">
<title>Node22&#45;&gt;Node23</title>
<g id="a_edge33_Node000022_Node000023"><a xlink:title=" ">
<path fill="none" stroke="#63b8ff" d="M1197.48,-175.87C1198.88,-167.66 1201.04,-155.04 1202.83,-144.55"/>
<polygon fill="#63b8ff" stroke="#63b8ff" points="1206.28,-145.11 1204.52,-134.67 1199.38,-143.93 1206.28,-145.11"/>
</a>
</g>
</g>
<!-- Node25&#45;&gt;Node9 -->
<g id="edge41_Node000025_Node000009" class="edge">
<title>Node25&#45;&gt;Node9</title>
<g id="a_edge41_Node000025_Node000009"><a xlink:title=" ">
<path fill="none" stroke="#63b8ff" d="M1351.29,-175.91C1336.33,-167.47 1313.43,-153.88 1295,-140 1279.17,-128.07 1280.05,-118.19 1262,-110 1137.48,-53.47 1090.31,-88.48 950.09,-74.05"/>
<polygon fill="#63b8ff" stroke="#63b8ff" points="950.15,-70.54 939.83,-72.93 949.39,-77.5 950.15,-70.54"/>
</a>
</g>
</g>
<!-- Node25&#45;&gt;Node12 -->
<g id="edge38_Node000025_Node000012" class="edge">
<title>Node25&#45;&gt;Node12</title>
<g id="a_edge38_Node000025_Node000012"><a xlink:title=" ">
<path fill="none" stroke="#63b8ff" d="M1405.82,-182.43C1492.85,-177.38 1697.59,-163.16 1718,-140 1731.93,-124.19 1722.03,-99.32 1712.51,-82.72"/>
<polygon fill="#63b8ff" stroke="#63b8ff" points="1715.37,-80.69 1707.13,-74.03 1709.42,-84.38 1715.37,-80.69"/>
</a>
</g>
</g>
<!-- Node25&#45;&gt;Node16 -->
<g id="edge40_Node000025_Node000016" class="edge">
<title>Node25&#45;&gt;Node16</title>
<g id="a_edge40_Node000025_Node000016"><a xlink:title=" ">
<path fill="none" stroke="#63b8ff" d="M1328.35,-181.93C1302.96,-180.25 1269,-177.99 1239,-176 1118.33,-167.99 809.14,-182.71 696,-140 675.54,-132.28 677.35,-118.02 657,-110 503.47,-49.49 447.74,-102.22 281.32,-73.88"/>
<polygon fill="#63b8ff" stroke="#63b8ff" points="281.7,-70.4 271.24,-72.09 280.48,-77.29 281.7,-70.4"/>
</a>
</g>
</g>
<!-- Node25&#45;&gt;Node17 -->
<g id="edge50_Node000025_Node000017" class="edge">
<title>Node25&#45;&gt;Node17</title>
<g id="a_edge50_Node000025_Node000017"><a xlink:title=" ">
<path fill="none" stroke="#63b8ff" d="M1361.51,-175.81C1350.87,-159.78 1325.74,-125.75 1295,-110 1249.57,-86.73 1102.81,-73.48 1030.31,-68.2"/>
<polygon fill="#63b8ff" stroke="#63b8ff" points="1030.4,-64.7 1020.17,-67.48 1029.9,-71.68 1030.4,-64.7"/>
</a>
</g>
</g>
<!-- Node25&#45;&gt;Node20 -->
<g id="edge51_Node000025_Node000020" class="edge">
<title>Node25&#45;&gt;Node20</title>
<g id="a_edge51_Node000025_Node000020"><a xlink:title=" ">
<path fill="none" stroke="#63b8ff" d="M1328.28,-180.84C1221.68,-170.77 923.71,-142.61 801.42,-131.05"/>
<polygon fill="#63b8ff" stroke="#63b8ff" points="801.46,-127.54 791.18,-130.08 800.81,-134.51 801.46,-127.54"/>
</a>
</g>
</g>
<!-- Node25&#45;&gt;Node24 -->
<g id="edge49_Node000025_Node000024" class="edge">
<title>Node25&#45;&gt;Node24</title>
<g id="a_edge49_Node000025_Node000024"><a xlink:title=" ">
<path fill="none" stroke="#63b8ff" d="M1328.33,-176.76C1285.07,-168.05 1212.94,-153.37 1151,-140 1150.9,-139.98 1150.8,-139.96 1150.7,-139.93"/>
<polygon fill="#63b8ff" stroke="#63b8ff" points="1151.6,-136.55 1141.08,-137.83 1150.1,-143.39 1151.6,-136.55"/>
</a>
</g>
</g>
<!-- Node26 -->
<g id="Node000026" class="node">
<title>Node26</title>
<g id="a_Node000026"><a xlink:title=" ">
<polygon fill="#e0e0e0" stroke="#999999" points="1957,-134.5 1907,-134.5 1907,-115.5 1957,-115.5 1957,-134.5"/>
<text text-anchor="middle" x="1932" y="-122.5" font-family="Helvetica,sans-Serif" font-size="10.00">atomic</text>
</a>
</g>
</g>
<!-- Node25&#45;&gt;Node26 -->
<g id="edge36_Node000025_Node000026" class="edge">
<title>Node25&#45;&gt;Node26</title>
<g id="a_edge36_Node000025_Node000026"><a xlink:title=" ">
<path fill="none" stroke="#63b8ff" d="M1405.79,-184.64C1493.6,-184.23 1713.91,-179.02 1893,-140 1895.83,-139.38 1898.74,-138.61 1901.63,-137.75"/>
<polygon fill="#63b8ff" stroke="#63b8ff" points="1902.85,-141.04 1911.24,-134.58 1900.65,-134.39 1902.85,-141.04"/>
</a>
</g>
</g>
<!-- Node27 -->
<g id="Node000027" class="node">
<title>Node27</title>
<g id="a_Node000027"><a xlink:title=" ">
<polygon fill="#e0e0e0" stroke="#999999" points="1445,-134.5 1385,-134.5 1385,-115.5 1445,-115.5 1445,-134.5"/>
<text text-anchor="middle" x="1415" y="-122.5" font-family="Helvetica,sans-Serif" font-size="10.00">iostream</text>
</a>
</g>
</g>
<!-- Node25&#45;&gt;Node27 -->
<g id="edge37_Node000025_Node000027" class="edge">
<title>Node25&#45;&gt;Node27</title>
<g id="a_edge37_Node000025_Node000027"><a xlink:title=" ">
<path fill="none" stroke="#63b8ff" d="M1374.08,-175.87C1381.24,-167.14 1392.49,-153.43 1401.39,-142.59"/>
<polygon fill="#63b8ff" stroke="#63b8ff" points="1404.25,-144.62 1407.89,-134.67 1398.84,-140.18 1404.25,-144.62"/>
</a>
</g>
</g>
<!-- Node28 -->
<g id="Node000028" class="node">
<title>Node28</title>
<g id="a_Node000028"><a xlink:title=" ">
<polygon fill="#e0e0e0" stroke="#999999" points="1914.5,-74 1867.5,-74 1867.5,-55 1914.5,-55 1914.5,-74"/>
<text text-anchor="middle" x="1891" y="-62" font-family="Helvetica,sans-Serif" font-size="10.00">queue</text>
</a>
</g>
</g>
<!-- Node25&#45;&gt;Node28 -->
<g id="edge39_Node000025_Node000028" class="edge">
<title>Node25&#45;&gt;Node28</title>
<g id="a_edge39_Node000025_Node000028"><a xlink:title=" ">
<path fill="none" stroke="#63b8ff" d="M1405.51,-183.29C1515.18,-179.54 1823.63,-166.7 1860,-140 1877.79,-126.94 1885.42,-101.75 1888.66,-84.3"/>
<polygon fill="#63b8ff" stroke="#63b8ff" points="1892.16,-84.57 1890.22,-74.16 1885.24,-83.51 1892.16,-84.57"/>
</a>
</g>
</g>
<!-- Node29 -->
<g id="Node000029" class="node">
<title>Node29</title>
<g id="a_Node000029"><a xlink:title=" ">
<polygon fill="#e0e0e0" stroke="#999999" points="1611,-134.5 1463,-134.5 1463,-115.5 1611,-115.5 1611,-134.5"/>
<text text-anchor="middle" x="1537" y="-122.5" font-family="Helvetica,sans-Serif" font-size="10.00">BoosterSeat/exception.hpp</text>
</a>
</g>
</g>
<!-- Node25&#45;&gt;Node29 -->
<g id="edge42_Node000025_Node000029" class="edge">
<title>Node25&#45;&gt;Node29</title>
<g id="a_edge42_Node000025_Node000029"><a xlink:title=" ">
<path fill="none" stroke="#63b8ff" d="M1391.72,-175.99C1420.93,-165.94 1469.7,-149.16 1502.59,-137.84"/>
<polygon fill="#63b8ff" stroke="#63b8ff" points="1503.93,-141.08 1512.25,-134.52 1501.66,-134.46 1503.93,-141.08"/>
</a>
</g>
</g>
<!-- Node30 -->
<g id="Node000030" class="node">
<title>Node30</title>
<g id="a_Node000030"><a xlink:href="command_8hpp.html" target="_top" xlink:title="The command/queue system for the flight system.">
<polygon fill="white" stroke="#666666" points="1851,-134.5 1765,-134.5 1765,-115.5 1851,-115.5 1851,-134.5"/>
<text text-anchor="middle" x="1808" y="-122.5" font-family="Helvetica,sans-Serif" font-size="10.00">command.hpp</text>
</a>
</g>
</g>
<!-- Node25&#45;&gt;Node30 -->
<g id="edge43_Node000025_Node000030" class="edge">
<title>Node25&#45;&gt;Node30</title>
<g id="a_edge43_Node000025_Node000030"><a xlink:title=" ">
<path fill="none" stroke="#63b8ff" d="M1405.66,-181.63C1475.16,-176.13 1625.67,-162.56 1751,-140 1756.01,-139.1 1761.24,-138.01 1766.4,-136.86"/>
<polygon fill="#63b8ff" stroke="#63b8ff" points="1767.26,-140.25 1776.2,-134.56 1765.66,-133.43 1767.26,-140.25"/>
</a>
</g>
</g>
<!-- Node32 -->
<g id="Node000032" class="node">
<title>Node32</title>
<g id="a_Node000032"><a xlink:href="data__ids_8hpp.html" target="_top" xlink:title=" ">
<polygon fill="white" stroke="#666666" points="1708.5,-134.5 1629.5,-134.5 1629.5,-115.5 1708.5,-115.5 1708.5,-134.5"/>
<text text-anchor="middle" x="1669" y="-122.5" font-family="Helvetica,sans-Serif" font-size="10.00">data_ids.hpp</text>
</a>
</g>
</g>
<!-- Node25&#45;&gt;Node32 -->
<g id="edge48_Node000025_Node000032" class="edge">
<title>Node25&#45;&gt;Node32</title>
<g id="a_edge48_Node000025_Node000032"><a xlink:title=" ">
<path fill="none" stroke="#63b8ff" d="M1405.83,-178.96C1455.7,-171.54 1544.81,-157.3 1620,-140 1623.66,-139.16 1627.46,-138.21 1631.25,-137.21"/>
<polygon fill="#63b8ff" stroke="#63b8ff" points="1632.42,-140.52 1641.15,-134.5 1630.58,-133.77 1632.42,-140.52"/>
</a>
</g>
</g>
<!-- Node30&#45;&gt;Node12 -->
<g id="edge44_Node000030_Node000012" class="edge">
<title>Node30&#45;&gt;Node12</title>
<g id="a_edge44_Node000030_Node000012"><a xlink:title=" ">
<path fill="none" stroke="#63b8ff" d="M1792.21,-115.37C1774.67,-105.78 1746.12,-90.17 1725.63,-78.97"/>
<polygon fill="#63b8ff" stroke="#63b8ff" points="1727.31,-75.89 1716.85,-74.17 1723.95,-82.04 1727.31,-75.89"/>
</a>
</g>
</g>
<!-- Node30&#45;&gt;Node17 -->
<g id="edge47_Node000030_Node000017" class="edge">
<title>Node30&#45;&gt;Node17</title>
<g id="a_edge47_Node000030_Node000017"><a xlink:title=" ">
<path fill="none" stroke="#63b8ff" d="M1764.62,-116.41C1749.86,-114.06 1733.25,-111.65 1718,-110 1457.26,-81.82 1141.99,-70.13 1030.5,-66.68"/>
<polygon fill="#63b8ff" stroke="#63b8ff" points="1030.45,-63.17 1020.35,-66.37 1030.24,-70.17 1030.45,-63.17"/>
</a>
</g>
</g>
<!-- Node30&#45;&gt;Node28 -->
<g id="edge45_Node000030_Node000028" class="edge">
<title>Node30&#45;&gt;Node28</title>
<g id="a_edge45_Node000030_Node000028"><a xlink:title=" ">
<path fill="none" stroke="#63b8ff" d="M1820.25,-115.37C1833.36,-106.12 1854.42,-91.28 1870.15,-80.19"/>
<polygon fill="#63b8ff" stroke="#63b8ff" points="1872.55,-82.79 1878.7,-74.17 1868.51,-77.07 1872.55,-82.79"/>
</a>
</g>
</g>
<!-- Node31 -->
<g id="Node000031" class="node">
<title>Node31</title>
<g id="a_Node000031"><a xlink:href="command__ids_8hpp.html" target="_top" xlink:title=" ">
<polygon fill="white" stroke="#666666" points="1849,-74 1743,-74 1743,-55 1849,-55 1849,-74"/>
<text text-anchor="middle" x="1796" y="-62" font-family="Helvetica,sans-Serif" font-size="10.00">command_ids.hpp</text>
</a>
</g>
</g>
<!-- Node30&#45;&gt;Node31 -->
<g id="edge46_Node000030_Node000031" class="edge">
<title>Node30&#45;&gt;Node31</title>
<g id="a_edge46_Node000030_Node000031"><a xlink:title=" ">
<path fill="none" stroke="#63b8ff" d="M1806.23,-115.37C1804.55,-107.16 1801.96,-94.54 1799.81,-84.05"/>
<polygon fill="#63b8ff" stroke="#63b8ff" points="1803.22,-83.26 1797.78,-74.17 1796.36,-84.67 1803.22,-83.26"/>
</a>
</g>
</g>
<!-- Node33&#45;&gt;Node9 -->
<g id="edge55_Node000033_Node000009" class="edge">
<title>Node33&#45;&gt;Node9</title>
<g id="a_edge55_Node000033_Node000009"><a xlink:title=" ">
<path fill="none" stroke="#63b8ff" d="M434.81,-237.47C539.23,-232.38 792.29,-217.82 823,-195 858.9,-168.32 871.08,-113.29 875.1,-84.3"/>
<polygon fill="#63b8ff" stroke="#63b8ff" points="878.59,-84.61 876.31,-74.26 871.64,-83.78 878.59,-84.61"/>
</a>
</g>
</g>
<!-- Node33&#45;&gt;Node10 -->
<g id="edge56_Node000033_Node000010" class="edge">
<title>Node33&#45;&gt;Node10</title>
<g id="a_edge56_Node000033_Node000010"><a xlink:title=" ">
<path fill="none" stroke="#63b8ff" d="M390.56,-230.92C392.32,-209.08 399.31,-150.24 425,-110 432.58,-98.13 444.32,-87.8 454.83,-80.09"/>
<polygon fill="#63b8ff" stroke="#63b8ff" points="457.03,-82.83 463.25,-74.26 453.04,-77.08 457.03,-82.83"/>
</a>
</g>
</g>
<!-- Node33&#45;&gt;Node14 -->
<g id="edge61_Node000033_Node000014" class="edge">
<title>Node33&#45;&gt;Node14</title>
<g id="a_edge61_Node000033_Node000014"><a xlink:title=" ">
<path fill="none" stroke="#63b8ff" d="M387.32,-230.76C383.45,-218.4 375.91,-195.2 368,-176 363.53,-165.15 357.88,-153.29 353.18,-143.85"/>
<polygon fill="#63b8ff" stroke="#63b8ff" points="356.19,-142.06 348.56,-134.71 349.95,-145.22 356.19,-142.06"/>
</a>
</g>
</g>
<!-- Node33&#45;&gt;Node16 -->
<g id="edge54_Node000033_Node000016" class="edge">
<title>Node33&#45;&gt;Node16</title>
<g id="a_edge54_Node000033_Node000016"><a xlink:title=" ">
<path fill="none" stroke="#63b8ff" d="M345.46,-231.89C307.17,-224.34 256.22,-211.5 244,-195 219.65,-162.12 232.42,-110.6 241.86,-83.52"/>
<polygon fill="#63b8ff" stroke="#63b8ff" points="245.14,-84.72 245.35,-74.13 238.58,-82.28 245.14,-84.72"/>
</a>
</g>
</g>
<!-- Node33&#45;&gt;Node26 -->
<g id="edge53_Node000033_Node000026" class="edge">
<title>Node33&#45;&gt;Node26</title>
<g id="a_edge53_Node000033_Node000026"><a xlink:title=" ">
<path fill="none" stroke="#63b8ff" d="M434.53,-238.73C577.3,-236.02 1036.38,-225.38 1415,-195 1624.2,-178.22 1678.32,-181.75 1884,-140 1888.21,-139.15 1892.59,-138.1 1896.91,-136.96"/>
<polygon fill="#63b8ff" stroke="#63b8ff" points="1898.09,-140.27 1906.79,-134.21 1896.22,-133.52 1898.09,-140.27"/>
</a>
</g>
</g>
<!-- Node33&#45;&gt;Node34 -->
<g id="edge57_Node000033_Node000034" class="edge">
<title>Node33&#45;&gt;Node34</title>
<g id="a_edge57_Node000033_Node000034"><a xlink:title=" ">
<path fill="none" stroke="#63b8ff" d="M351.12,-230.98C309.26,-221.82 242.57,-207.21 197.12,-197.26"/>
<polygon fill="#63b8ff" stroke="#63b8ff" points="197.7,-193.8 187.19,-195.08 196.21,-200.64 197.7,-193.8"/>
</a>
</g>
</g>
<!-- Node35 -->
<g id="Node000035" class="node">
<title>Node35</title>
<g id="a_Node000035"><a xlink:href="i__built__in__test_8hpp.html" target="_top" xlink:title=" ">
<polygon fill="white" stroke="#666666" points="359,-195 253,-195 253,-176 359,-176 359,-195"/>
<text text-anchor="middle" x="306" y="-183" font-family="Helvetica,sans-Serif" font-size="10.00">i_built_in_test.hpp</text>
</a>
</g>
</g>
<!-- Node33&#45;&gt;Node35 -->
<g id="edge59_Node000033_Node000035" class="edge">
<title>Node33&#45;&gt;Node35</title>
<g id="a_edge59_Node000033_Node000035"><a xlink:title=" ">
<path fill="none" stroke="#63b8ff" d="M376.5,-230.98C363.6,-222.84 343.9,-210.41 328.6,-200.76"/>
<polygon fill="#63b8ff" stroke="#63b8ff" points="330.07,-197.55 319.74,-195.17 326.33,-203.47 330.07,-197.55"/>
</a>
</g>
</g>
<!-- Node34&#45;&gt;Node16 -->
<g id="edge58_Node000034_Node000016" class="edge">
<title>Node34&#45;&gt;Node16</title>
<g id="a_edge58_Node000034_Node000016"><a xlink:title=" ">
<path fill="none" stroke="#63b8ff" d="M155.36,-175.77C167.1,-161.85 190.82,-133.75 211,-110 218.99,-100.59 227.96,-90.09 235.17,-81.65"/>
<polygon fill="#63b8ff" stroke="#63b8ff" points="237.86,-83.89 241.7,-74.02 232.54,-79.34 237.86,-83.89"/>
</a>
</g>
</g>
<!-- Node35&#45;&gt;Node14 -->
<g id="edge60_Node000035_Node000014" class="edge">
<title>Node35&#45;&gt;Node14</title>
<g id="a_edge60_Node000035_Node000014"><a xlink:title=" ">
<path fill="none" stroke="#63b8ff" d="M311.61,-175.87C317.16,-167.31 325.83,-153.97 332.8,-143.24"/>
<polygon fill="#63b8ff" stroke="#63b8ff" points="335.86,-144.96 338.37,-134.67 329.99,-141.15 335.86,-144.96"/>
</a>
</g>
</g>
<!-- Node36&#45;&gt;Node12 -->
<g id="edge66_Node000036_Node000012" class="edge">
<title>Node36&#45;&gt;Node12</title>
<g id="a_edge66_Node000036_Node000012"><a xlink:title=" ">
<path fill="none" stroke="#63b8ff" d="M1977.61,-230.86C1983.97,-207.82 1997.56,-144.35 1966,-110 1932.56,-73.61 1800.15,-83.3 1735.27,-73.78"/>
<polygon fill="#63b8ff" stroke="#63b8ff" points="1735.54,-70.27 1725.09,-72 1734.33,-77.17 1735.54,-70.27"/>
</a>
</g>
</g>
<!-- Node37 -->
<g id="Node000037" class="node">
<title>Node37</title>
<g id="a_Node000037"><a xlink:title=" ">
<polygon fill="#e0e0e0" stroke="#999999" points="2060.5,-195 2013.5,-195 2013.5,-176 2060.5,-176 2060.5,-195"/>
<text text-anchor="middle" x="2037" y="-183" font-family="Helvetica,sans-Serif" font-size="10.00">deque</text>
</a>
</g>
</g>
<!-- Node36&#45;&gt;Node37 -->
<g id="edge65_Node000036_Node000037" class="edge">
<title>Node36&#45;&gt;Node37</title>
<g id="a_edge65_Node000036_Node000037"><a xlink:title=" ">
<path fill="none" stroke="#63b8ff" d="M1984.96,-230.98C1994.13,-223.15 2007.94,-211.34 2019.03,-201.86"/>
<polygon fill="#63b8ff" stroke="#63b8ff" points="2021.53,-204.33 2026.86,-195.17 2016.98,-199.01 2021.53,-204.33"/>
</a>
</g>
</g>
<!-- Node38&#45;&gt;Node26 -->
<g id="edge68_Node000038_Node000026" class="edge">
<title>Node38&#45;&gt;Node26</title>
<g id="a_edge68_Node000038_Node000026"><a xlink:title=" ">
<path fill="none" stroke="#63b8ff" d="M2088.79,-230.91C2087.99,-217.46 2084.54,-191.39 2070,-176 2042.96,-147.37 1998.28,-135.09 1967.11,-129.85"/>
<polygon fill="#63b8ff" stroke="#63b8ff" points="1967.51,-126.37 1957.1,-128.33 1966.46,-133.29 1967.51,-126.37"/>
</a>
</g>
</g>
</g>
</svg>
