<?xml version="1.0" encoding="UTF-8" standalone="no"?>
<!DOCTYPE svg PUBLIC "-//W3C//DTD SVG 1.1//EN"
 "http://www.w3.org/Graphics/SVG/1.1/DTD/svg11.dtd">
<!-- Generated by graphviz version 2.43.0 (0)
 -->
<!-- Title: request_handler_data.cpp Pages: 1 -->
<svg width="1784pt" height="509pt"
 viewBox="0.00 0.00 1784.00 509.00" xmlns="http://www.w3.org/2000/svg" xmlns:xlink="http://www.w3.org/1999/xlink">
<g id="graph0" class="graph" transform="scale(1 1) rotate(0) translate(4 505)">
<title>request_handler_data.cpp</title>
<!-- Node1 -->
<g id="node1" class="node">
<title>Node1</title>
<g id="a_node1"><a xlink:title="Request handler for data requests.">
<polygon fill="#bfbfbf" stroke="black" points="1117.5,-481.5 1117.5,-500.5 1260.5,-500.5 1260.5,-481.5 1117.5,-481.5"/>
<text text-anchor="middle" x="1189" y="-488.5" font-family="Helvetica,sans-Serif" font-size="10.00">request_handler_data.cpp</text>
</a>
</g>
</g>
<!-- Node2 -->
<g id="node2" class="node">
<title>Node2</title>
<g id="a_node2"><a xlink:title=" ">
<polygon fill="none" stroke="#bfbfbf" points="20,-118 20,-137 80,-137 80,-118 20,-118"/>
<text text-anchor="middle" x="50" y="-125" font-family="Helvetica,sans-Serif" font-size="10.00">iostream</text>
</a>
</g>
</g>
<!-- Node1&#45;&gt;Node2 -->
<g id="edge1" class="edge">
<title>Node1&#45;&gt;Node2</title>
<path fill="none" stroke="midnightblue" d="M1117.48,-489.83C870.12,-488.31 66,-475.2 66,-369 66,-369 66,-369 66,-244 66,-209.54 58.93,-169.83 54.19,-147.1"/>
<polygon fill="midnightblue" stroke="midnightblue" points="57.57,-146.17 52.03,-137.14 50.73,-147.65 57.57,-146.17"/>
</g>
<!-- Node3 -->
<g id="node3" class="node">
<title>Node3</title>
<g id="a_node3"><a xlink:title=" ">
<polygon fill="none" stroke="#bfbfbf" points="1135.5,-414.5 1135.5,-444.5 1242.5,-444.5 1242.5,-414.5 1135.5,-414.5"/>
<text text-anchor="start" x="1143.5" y="-432.5" font-family="Helvetica,sans-Serif" font-size="10.00">BoosterSeat/string</text>
<text text-anchor="middle" x="1189" y="-421.5" font-family="Helvetica,sans-Serif" font-size="10.00">_formatting.hpp</text>
</a>
</g>
</g>
<!-- Node1&#45;&gt;Node3 -->
<g id="edge2" class="edge">
<title>Node1&#45;&gt;Node3</title>
<path fill="none" stroke="midnightblue" d="M1189,-481.48C1189,-474.47 1189,-464.19 1189,-454.7"/>
<polygon fill="midnightblue" stroke="midnightblue" points="1192.5,-454.52 1189,-444.52 1185.5,-454.52 1192.5,-454.52"/>
</g>
<!-- Node4 -->
<g id="node4" class="node">
<title>Node4</title>
<g id="a_node4"><a xlink:title=" ">
<polygon fill="none" stroke="#bfbfbf" points="1260.5,-414.5 1260.5,-444.5 1383.5,-444.5 1383.5,-414.5 1260.5,-414.5"/>
<text text-anchor="start" x="1268.5" y="-432.5" font-family="Helvetica,sans-Serif" font-size="10.00">BoosterSeat/template</text>
<text text-anchor="middle" x="1322" y="-421.5" font-family="Helvetica,sans-Serif" font-size="10.00">_tools.hpp</text>
</a>
</g>
</g>
<!-- Node1&#45;&gt;Node4 -->
<g id="edge3" class="edge">
<title>Node1&#45;&gt;Node4</title>
<path fill="none" stroke="midnightblue" d="M1208.06,-481.48C1227.08,-472.96 1256.91,-459.62 1281.28,-448.72"/>
<polygon fill="midnightblue" stroke="midnightblue" points="1282.96,-451.8 1290.66,-444.52 1280.1,-445.41 1282.96,-451.8"/>
</g>
<!-- Node5 -->
<g id="node5" class="node">
<title>Node5</title>
<g id="a_node5"><a xlink:href="giraffe__assert_8hpp.html" target="_top" xlink:title="For absolute failures in the code.">
<polygon fill="none" stroke="black" points="1623,-420 1623,-439 1727,-439 1727,-420 1623,-420"/>
<text text-anchor="middle" x="1675" y="-427" font-family="Helvetica,sans-Serif" font-size="10.00">giraffe_assert.hpp</text>
</a>
</g>
</g>
<!-- Node1&#45;&gt;Node5 -->
<g id="edge4" class="edge">
<title>Node1&#45;&gt;Node5</title>
<path fill="none" stroke="midnightblue" d="M1258.64,-481.48C1353.41,-469.87 1521.59,-449.28 1612.51,-438.15"/>
<polygon fill="midnightblue" stroke="midnightblue" points="1613.16,-441.6 1622.67,-436.91 1612.31,-434.65 1613.16,-441.6"/>
</g>
<!-- Node8 -->
<g id="node8" class="node">
<title>Node8</title>
<g id="a_node8"><a xlink:href="request__handler_8hpp.html" target="_top" xlink:title="The request handler class header.">
<polygon fill="none" stroke="black" points="1001,-420 1001,-439 1117,-439 1117,-420 1001,-420"/>
<text text-anchor="middle" x="1059" y="-427" font-family="Helvetica,sans-Serif" font-size="10.00">request_handler.hpp</text>
</a>
</g>
</g>
<!-- Node1&#45;&gt;Node8 -->
<g id="edge7" class="edge">
<title>Node1&#45;&gt;Node8</title>
<path fill="none" stroke="midnightblue" d="M1170.38,-481.48C1148.56,-471.49 1112.2,-454.85 1086.99,-443.31"/>
<polygon fill="midnightblue" stroke="midnightblue" points="1088.14,-439.99 1077.6,-439.01 1085.23,-446.35 1088.14,-439.99"/>
</g>
<!-- Node6 -->
<g id="node6" class="node">
<title>Node6</title>
<g id="a_node6"><a xlink:title=" ">
<polygon fill="none" stroke="#bfbfbf" points="1642.5,-358.5 1642.5,-377.5 1707.5,-377.5 1707.5,-358.5 1642.5,-358.5"/>
<text text-anchor="middle" x="1675" y="-365.5" font-family="Helvetica,sans-Serif" font-size="10.00">exception</text>
</a>
</g>
</g>
<!-- Node5&#45;&gt;Node6 -->
<g id="edge5" class="edge">
<title>Node5&#45;&gt;Node6</title>
<path fill="none" stroke="midnightblue" d="M1675,-419.98C1675,-411.58 1675,-398.48 1675,-387.66"/>
<polygon fill="midnightblue" stroke="midnightblue" points="1678.5,-387.51 1675,-377.51 1671.5,-387.51 1678.5,-387.51"/>
</g>
<!-- Node7 -->
<g id="node7" class="node">
<title>Node7</title>
<g id="a_node7"><a xlink:title=" ">
<polygon fill="none" stroke="#bfbfbf" points="1726,-358.5 1726,-377.5 1776,-377.5 1776,-358.5 1726,-358.5"/>
<text text-anchor="middle" x="1751" y="-365.5" font-family="Helvetica,sans-Serif" font-size="10.00">stdio.h</text>
</a>
</g>
</g>
<!-- Node5&#45;&gt;Node7 -->
<g id="edge6" class="edge">
<title>Node5&#45;&gt;Node7</title>
<path fill="none" stroke="midnightblue" d="M1685.89,-419.98C1697.97,-410.52 1717.67,-395.1 1732.24,-383.69"/>
<polygon fill="midnightblue" stroke="midnightblue" points="1734.42,-386.43 1740.14,-377.51 1730.1,-380.92 1734.42,-386.43"/>
</g>
<!-- Node9 -->
<g id="node9" class="node">
<title>Node9</title>
<g id="a_node9"><a xlink:href="configuration_8hpp.html" target="_top" xlink:title=" ">
<polygon fill="none" stroke="black" points="929.5,-358.5 929.5,-377.5 1030.5,-377.5 1030.5,-358.5 929.5,-358.5"/>
<text text-anchor="middle" x="980" y="-365.5" font-family="Helvetica,sans-Serif" font-size="10.00">configuration.hpp</text>
</a>
</g>
</g>
<!-- Node8&#45;&gt;Node9 -->
<g id="edge8" class="edge">
<title>Node8&#45;&gt;Node9</title>
<path fill="none" stroke="midnightblue" d="M1047.69,-419.98C1035.13,-410.52 1014.65,-395.1 999.5,-383.69"/>
<polygon fill="midnightblue" stroke="midnightblue" points="1001.4,-380.73 991.3,-377.51 997.18,-386.32 1001.4,-380.73"/>
</g>
<!-- Node10 -->
<g id="node10" class="node">
<title>Node10</title>
<g id="a_node10"><a xlink:href="logger_8hpp.html" target="_top" xlink:title="A simple logger class so difference classes have access to the same logger.">
<polygon fill="none" stroke="black" points="1087,-358.5 1087,-377.5 1155,-377.5 1155,-358.5 1087,-358.5"/>
<text text-anchor="middle" x="1121" y="-365.5" font-family="Helvetica,sans-Serif" font-size="10.00">logger.hpp</text>
</a>
</g>
</g>
<!-- Node8&#45;&gt;Node10 -->
<g id="edge9" class="edge">
<title>Node8&#45;&gt;Node10</title>
<path fill="none" stroke="midnightblue" d="M1067.89,-419.98C1077.46,-410.78 1092.92,-395.96 1104.69,-384.66"/>
<polygon fill="midnightblue" stroke="midnightblue" points="1107.35,-386.96 1112.14,-377.51 1102.5,-381.91 1107.35,-386.96"/>
</g>
<!-- Node11 -->
<g id="node11" class="node">
<title>Node11</title>
<g id="a_node11"><a xlink:href="shared__data_8hpp.html" target="_top" xlink:title="Contains the SharedData struct, used across all modules and extensions.">
<polygon fill="none" stroke="black" points="995,-297 995,-316 1093,-316 1093,-297 995,-297"/>
<text text-anchor="middle" x="1044" y="-304" font-family="Helvetica,sans-Serif" font-size="10.00">shared_data.hpp</text>
</a>
</g>
</g>
<!-- Node8&#45;&gt;Node11 -->
<g id="edge67" class="edge">
<title>Node8&#45;&gt;Node11</title>
<path fill="none" stroke="midnightblue" d="M1057.93,-419.8C1055.51,-400.35 1049.64,-352.99 1046.35,-326.4"/>
<polygon fill="midnightblue" stroke="midnightblue" points="1049.78,-325.62 1045.07,-316.12 1042.83,-326.48 1049.78,-325.62"/>
</g>
<!-- Node39 -->
<g id="node39" class="node">
<title>Node39</title>
<g id="a_node39"><a xlink:href="protocol_8hpp.html" target="_top" xlink:title="Declares the protocol namespace and its associated types.">
<polygon fill="none" stroke="black" points="1604.5,-179.5 1604.5,-198.5 1681.5,-198.5 1681.5,-179.5 1604.5,-179.5"/>
<text text-anchor="middle" x="1643" y="-186.5" font-family="Helvetica,sans-Serif" font-size="10.00">protocol.hpp</text>
</a>
</g>
</g>
<!-- Node8&#45;&gt;Node39 -->
<g id="edge64" class="edge">
<title>Node8&#45;&gt;Node39</title>
<path fill="none" stroke="midnightblue" d="M1097.95,-419.95C1107.14,-417.97 1116.91,-415.88 1126,-414 1331.86,-371.32 1428.18,-456.21 1590,-322 1624.91,-293.05 1637.01,-237.72 1641.06,-208.74"/>
<polygon fill="midnightblue" stroke="midnightblue" points="1644.55,-209.07 1642.28,-198.72 1637.6,-208.23 1644.55,-209.07"/>
</g>
<!-- Node40 -->
<g id="node40" class="node">
<title>Node40</title>
<g id="a_node40"><a xlink:href="socket_8hpp.html" target="_top" xlink:title="The socket class header.">
<polygon fill="none" stroke="black" points="842.5,-358.5 842.5,-377.5 911.5,-377.5 911.5,-358.5 842.5,-358.5"/>
<text text-anchor="middle" x="877" y="-365.5" font-family="Helvetica,sans-Serif" font-size="10.00">socket.hpp</text>
</a>
</g>
</g>
<!-- Node8&#45;&gt;Node40 -->
<g id="edge68" class="edge">
<title>Node8&#45;&gt;Node40</title>
<path fill="none" stroke="midnightblue" d="M1032.93,-419.98C1001.44,-409.68 948.31,-392.31 912.95,-380.75"/>
<polygon fill="midnightblue" stroke="midnightblue" points="913.62,-377.29 903.03,-377.51 911.45,-383.94 913.62,-377.29"/>
</g>
<!-- Node10&#45;&gt;Node11 -->
<g id="edge10" class="edge">
<title>Node10&#45;&gt;Node11</title>
<path fill="none" stroke="midnightblue" d="M1109.97,-358.48C1097.74,-349.02 1077.78,-333.6 1063.01,-322.19"/>
<polygon fill="midnightblue" stroke="midnightblue" points="1065.07,-319.35 1055.02,-316.01 1060.79,-324.89 1065.07,-319.35"/>
</g>
<!-- Node12 -->
<g id="node12" class="node">
<title>Node12</title>
<g id="a_node12"><a xlink:title=" ">
<polygon fill="none" stroke="#bfbfbf" points="989.5,-56.5 989.5,-75.5 1114.5,-75.5 1114.5,-56.5 989.5,-56.5"/>
<text text-anchor="middle" x="1052" y="-63.5" font-family="Helvetica,sans-Serif" font-size="10.00">BoosterSeat/clock.hpp</text>
</a>
</g>
</g>
<!-- Node11&#45;&gt;Node12 -->
<g id="edge11" class="edge">
<title>Node11&#45;&gt;Node12</title>
<path fill="none" stroke="midnightblue" d="M1044.3,-296.73C1045.46,-262.1 1049.74,-134.43 1051.37,-85.9"/>
<polygon fill="midnightblue" stroke="midnightblue" points="1054.88,-85.71 1051.72,-75.6 1047.88,-85.48 1054.88,-85.71"/>
</g>
<!-- Node13 -->
<g id="node13" class="node">
<title>Node13</title>
<g id="a_node13"><a xlink:title=" ">
<polygon fill="none" stroke="#bfbfbf" points="1553,-56.5 1553,-75.5 1675,-75.5 1675,-56.5 1553,-56.5"/>
<text text-anchor="middle" x="1614" y="-63.5" font-family="Helvetica,sans-Serif" font-size="10.00">BoosterSeat/time.hpp</text>
</a>
</g>
</g>
<!-- Node11&#45;&gt;Node13 -->
<g id="edge12" class="edge">
<title>Node11&#45;&gt;Node13</title>
<path fill="none" stroke="midnightblue" d="M1093.34,-305.39C1231.29,-303.9 1615.86,-291.4 1691,-199 1722.51,-160.27 1666.09,-107.15 1633.98,-81.73"/>
<polygon fill="midnightblue" stroke="midnightblue" points="1636.1,-78.94 1626.04,-75.61 1631.82,-84.48 1636.1,-78.94"/>
</g>
<!-- Node14 -->
<g id="node14" class="node">
<title>Node14</title>
<g id="a_node14"><a xlink:href="blocks_8hpp.html" target="_top" xlink:title=" ">
<polygon fill="none" stroke="black" points="1129.5,-179.5 1129.5,-198.5 1198.5,-198.5 1198.5,-179.5 1129.5,-179.5"/>
<text text-anchor="middle" x="1164" y="-186.5" font-family="Helvetica,sans-Serif" font-size="10.00">blocks.hpp</text>
</a>
</g>
</g>
<!-- Node11&#45;&gt;Node14 -->
<g id="edge13" class="edge">
<title>Node11&#45;&gt;Node14</title>
<path fill="none" stroke="midnightblue" d="M1053.02,-296.82C1073.09,-277.5 1121.68,-230.74 1147.4,-205.98"/>
<polygon fill="midnightblue" stroke="midnightblue" points="1150.1,-208.24 1154.88,-198.78 1145.25,-203.2 1150.1,-208.24"/>
</g>
<!-- Node24 -->
<g id="node24" class="node">
<title>Node24</title>
<g id="a_node24"><a xlink:href="error__frame_8hpp.html" target="_top" xlink:title="The error frame.">
<polygon fill="none" stroke="black" points="512.5,-235.5 512.5,-254.5 607.5,-254.5 607.5,-235.5 512.5,-235.5"/>
<text text-anchor="middle" x="560" y="-242.5" font-family="Helvetica,sans-Serif" font-size="10.00">error_frame.hpp</text>
</a>
</g>
</g>
<!-- Node11&#45;&gt;Node24 -->
<g id="edge32" class="edge">
<title>Node11&#45;&gt;Node24</title>
<path fill="none" stroke="midnightblue" d="M994.74,-296.93C982.13,-294.87 968.58,-292.75 956,-291 835.98,-274.3 694.84,-259.39 617.65,-251.64"/>
<polygon fill="midnightblue" stroke="midnightblue" points="617.95,-248.15 607.65,-250.63 617.25,-255.11 617.95,-248.15"/>
</g>
<!-- Node25 -->
<g id="node25" class="node">
<title>Node25</title>
<g id="a_node25"><a xlink:href="frame_8hpp.html" target="_top" xlink:title=" ">
<polygon fill="none" stroke="black" points="235.5,-179.5 235.5,-198.5 302.5,-198.5 302.5,-179.5 235.5,-179.5"/>
<text text-anchor="middle" x="269" y="-186.5" font-family="Helvetica,sans-Serif" font-size="10.00">frame.hpp</text>
</a>
</g>
</g>
<!-- Node11&#45;&gt;Node25 -->
<g id="edge57" class="edge">
<title>Node11&#45;&gt;Node25</title>
<path fill="none" stroke="midnightblue" d="M996.61,-296.94C983.49,-294.78 969.22,-292.61 956,-291 755.52,-266.56 701.88,-290.19 503,-255 430.63,-242.19 348.32,-216.69 303.17,-201.72"/>
<polygon fill="midnightblue" stroke="midnightblue" points="304.17,-198.36 293.58,-198.51 301.95,-205 304.17,-198.36"/>
</g>
<!-- Node28 -->
<g id="node28" class="node">
<title>Node28</title>
<g id="a_node28"><a xlink:href="streams_8hpp.html" target="_top" xlink:title="The header file for the data streams.">
<polygon fill="none" stroke="black" points="676.5,-179.5 676.5,-198.5 753.5,-198.5 753.5,-179.5 676.5,-179.5"/>
<text text-anchor="middle" x="715" y="-186.5" font-family="Helvetica,sans-Serif" font-size="10.00">streams.hpp</text>
</a>
</g>
</g>
<!-- Node11&#45;&gt;Node28 -->
<g id="edge63" class="edge">
<title>Node11&#45;&gt;Node28</title>
<path fill="none" stroke="midnightblue" d="M1019.54,-296.91C961.61,-276.57 815.9,-225.42 749.24,-202.02"/>
<polygon fill="midnightblue" stroke="midnightblue" points="750.22,-198.65 739.62,-198.64 747.9,-205.26 750.22,-198.65"/>
</g>
<!-- Node35 -->
<g id="node35" class="node">
<title>Node35</title>
<g id="a_node35"><a xlink:href="flight__phase_8hpp.html" target="_top" xlink:title="Contains the flight phase enum and related functions.">
<polygon fill="none" stroke="black" points="1316.5,-235.5 1316.5,-254.5 1413.5,-254.5 1413.5,-235.5 1316.5,-235.5"/>
<text text-anchor="middle" x="1365" y="-242.5" font-family="Helvetica,sans-Serif" font-size="10.00">flight_phase.hpp</text>
</a>
</g>
</g>
<!-- Node11&#45;&gt;Node35 -->
<g id="edge55" class="edge">
<title>Node11&#45;&gt;Node35</title>
<path fill="none" stroke="midnightblue" d="M1090,-296.98C1147.8,-286.26 1246.95,-267.88 1309.08,-256.37"/>
<polygon fill="midnightblue" stroke="midnightblue" points="1309.9,-259.77 1319.1,-254.51 1308.63,-252.89 1309.9,-259.77"/>
</g>
<!-- Node36 -->
<g id="node36" class="node">
<title>Node36</title>
<g id="a_node36"><a xlink:href="log__container_8hpp.html" target="_top" xlink:title="A simple logging system for debugging.">
<polygon fill="none" stroke="black" points="126.5,-235.5 126.5,-254.5 229.5,-254.5 229.5,-235.5 126.5,-235.5"/>
<text text-anchor="middle" x="178" y="-242.5" font-family="Helvetica,sans-Serif" font-size="10.00">log_container.hpp</text>
</a>
</g>
</g>
<!-- Node11&#45;&gt;Node36 -->
<g id="edge58" class="edge">
<title>Node11&#45;&gt;Node36</title>
<path fill="none" stroke="midnightblue" d="M998,-296.98C984.51,-294.74 969.7,-292.52 956,-291 885.71,-283.2 411.18,-258.12 239.69,-249.19"/>
<polygon fill="midnightblue" stroke="midnightblue" points="239.73,-245.69 229.56,-248.67 239.37,-252.68 239.73,-245.69"/>
</g>
<!-- Node38 -->
<g id="node38" class="node">
<title>Node38</title>
<g id="a_node38"><a xlink:href="status__led_8hpp.html" target="_top" xlink:title="RGB Status LED extension header file.">
<polygon fill="none" stroke="black" points="928,-235.5 928,-254.5 1016,-254.5 1016,-235.5 928,-235.5"/>
<text text-anchor="middle" x="972" y="-242.5" font-family="Helvetica,sans-Serif" font-size="10.00">status_led.hpp</text>
</a>
</g>
</g>
<!-- Node11&#45;&gt;Node38 -->
<g id="edge61" class="edge">
<title>Node11&#45;&gt;Node38</title>
<path fill="none" stroke="midnightblue" d="M1033.69,-296.98C1022.35,-287.61 1003.93,-272.38 990.17,-261.01"/>
<polygon fill="midnightblue" stroke="midnightblue" points="992.24,-258.18 982.3,-254.51 987.78,-263.58 992.24,-258.18"/>
</g>
<!-- Node14&#45;&gt;Node12 -->
<g id="edge15" class="edge">
<title>Node14&#45;&gt;Node12</title>
<path fill="none" stroke="midnightblue" d="M1156.58,-179.45C1144.2,-165.27 1118.5,-136.05 1096,-112 1086.75,-102.1 1076.13,-91.23 1067.65,-82.66"/>
<polygon fill="midnightblue" stroke="midnightblue" points="1070.08,-80.14 1060.55,-75.52 1065.12,-85.08 1070.08,-80.14"/>
</g>
<!-- Node14&#45;&gt;Node13 -->
<g id="edge17" class="edge">
<title>Node14&#45;&gt;Node13</title>
<path fill="none" stroke="midnightblue" d="M1198.74,-186C1276.38,-181.13 1461.65,-167.28 1519,-143 1551.39,-129.29 1581.83,-101.27 1599.16,-83.35"/>
<polygon fill="midnightblue" stroke="midnightblue" points="1601.86,-85.59 1606.16,-75.91 1596.76,-80.79 1601.86,-85.59"/>
</g>
<!-- Node14&#45;&gt;Node14 -->
<g id="edge18" class="edge">
<title>Node14&#45;&gt;Node14</title>
<path fill="none" stroke="midnightblue" d="M1186.4,-198.53C1201.61,-201.31 1216.5,-198.13 1216.5,-189 1216.5,-181.94 1207.59,-178.44 1196.52,-178.5"/>
<polygon fill="midnightblue" stroke="midnightblue" points="1196.01,-175.03 1186.4,-179.47 1196.68,-182 1196.01,-175.03"/>
</g>
<!-- Node15 -->
<g id="node15" class="node">
<title>Node15</title>
<g id="a_node15"><a xlink:title=" ">
<polygon fill="none" stroke="#bfbfbf" points="356,-56.5 356,-75.5 404,-75.5 404,-56.5 356,-56.5"/>
<text text-anchor="middle" x="380" y="-63.5" font-family="Helvetica,sans-Serif" font-size="10.00">mutex</text>
</a>
</g>
</g>
<!-- Node14&#45;&gt;Node15 -->
<g id="edge14" class="edge">
<title>Node14&#45;&gt;Node15</title>
<path fill="none" stroke="midnightblue" d="M1129.48,-187.55C993.37,-185.56 498.36,-176.09 437,-143 424.6,-136.31 403.35,-104.67 390.59,-84.38"/>
<polygon fill="midnightblue" stroke="midnightblue" points="393.48,-82.4 385.24,-75.74 387.53,-86.09 393.48,-82.4"/>
</g>
<!-- Node16 -->
<g id="node16" class="node">
<title>Node16</title>
<g id="a_node16"><a xlink:title=" ">
<polygon fill="none" stroke="#bfbfbf" points="1290.5,-118 1290.5,-137 1433.5,-137 1433.5,-118 1290.5,-118"/>
<text text-anchor="middle" x="1362" y="-125" font-family="Helvetica,sans-Serif" font-size="10.00">BoosterSeat/numbers.hpp</text>
</a>
</g>
</g>
<!-- Node14&#45;&gt;Node16 -->
<g id="edge16" class="edge">
<title>Node14&#45;&gt;Node16</title>
<path fill="none" stroke="midnightblue" d="M1192.37,-179.48C1226.92,-169.09 1285.43,-151.51 1323.89,-139.95"/>
<polygon fill="midnightblue" stroke="midnightblue" points="1325.12,-143.24 1333.69,-137.01 1323.1,-136.54 1325.12,-143.24"/>
</g>
<!-- Node17 -->
<g id="node17" class="node">
<title>Node17</title>
<g id="a_node17"><a xlink:href="json_8hpp.html" target="_top" xlink:title="Simple wrapper around nlohmann/json.hpp to provide a common interface.">
<polygon fill="none" stroke="black" points="1452,-118 1452,-137 1510,-137 1510,-118 1452,-118"/>
<text text-anchor="middle" x="1481" y="-125" font-family="Helvetica,sans-Serif" font-size="10.00">json.hpp</text>
</a>
</g>
</g>
<!-- Node14&#45;&gt;Node17 -->
<g id="edge19" class="edge">
<title>Node14&#45;&gt;Node17</title>
<path fill="none" stroke="midnightblue" d="M1198.7,-184.59C1251.76,-178.88 1355.97,-165.72 1442,-143 1444.82,-142.26 1447.72,-141.39 1450.6,-140.45"/>
<polygon fill="midnightblue" stroke="midnightblue" points="1451.91,-143.7 1460.2,-137.09 1449.6,-137.09 1451.91,-143.7"/>
</g>
<!-- Node20 -->
<g id="node20" class="node">
<title>Node20</title>
<g id="a_node20"><a xlink:href="node_8hpp.html" target="_top" xlink:title="Contains structures that are used to identify components of the flight system.">
<polygon fill="none" stroke="black" points="909,-56.5 909,-75.5 971,-75.5 971,-56.5 909,-56.5"/>
<text text-anchor="middle" x="940" y="-63.5" font-family="Helvetica,sans-Serif" font-size="10.00">node.hpp</text>
</a>
</g>
</g>
<!-- Node14&#45;&gt;Node20 -->
<g id="edge22" class="edge">
<title>Node14&#45;&gt;Node20</title>
<path fill="none" stroke="midnightblue" d="M1148.61,-179.5C1123.02,-165.38 1070.05,-136.24 1025,-112 1005.09,-101.29 982.46,-89.31 965.56,-80.41"/>
<polygon fill="midnightblue" stroke="midnightblue" points="966.81,-77.12 956.33,-75.56 963.55,-83.31 966.81,-77.12"/>
</g>
<!-- Node23 -->
<g id="node23" class="node">
<title>Node23</title>
<g id="a_node23"><a xlink:href="positional_8hpp.html" target="_top" xlink:title="Positional data for the flight system (gps/imu data)">
<polygon fill="none" stroke="black" points="1148,-118 1148,-137 1234,-137 1234,-118 1148,-118"/>
<text text-anchor="middle" x="1191" y="-125" font-family="Helvetica,sans-Serif" font-size="10.00">positional.hpp</text>
</a>
</g>
</g>
<!-- Node14&#45;&gt;Node23 -->
<g id="edge25" class="edge">
<title>Node14&#45;&gt;Node23</title>
<path fill="none" stroke="midnightblue" d="M1167.87,-179.48C1171.8,-170.82 1178,-157.15 1183,-146.15"/>
<polygon fill="midnightblue" stroke="midnightblue" points="1186.2,-147.56 1187.14,-137.01 1179.82,-144.67 1186.2,-147.56"/>
</g>
<!-- Node18 -->
<g id="node18" class="node">
<title>Node18</title>
<g id="a_node18"><a xlink:title=" ">
<polygon fill="none" stroke="#bfbfbf" points="1275,-56.5 1275,-75.5 1385,-75.5 1385,-56.5 1275,-56.5"/>
<text text-anchor="middle" x="1330" y="-63.5" font-family="Helvetica,sans-Serif" font-size="10.00">nlohmann/json.hpp</text>
</a>
</g>
</g>
<!-- Node17&#45;&gt;Node18 -->
<g id="edge20" class="edge">
<title>Node17&#45;&gt;Node18</title>
<path fill="none" stroke="midnightblue" d="M1459.37,-117.98C1433.58,-107.81 1390.29,-90.76 1360.96,-79.2"/>
<polygon fill="midnightblue" stroke="midnightblue" points="1362.19,-75.92 1351.6,-75.51 1359.62,-82.43 1362.19,-75.92"/>
</g>
<!-- Node19 -->
<g id="node19" class="node">
<title>Node19</title>
<g id="a_node19"><a xlink:title=" ">
<polygon fill="none" stroke="#bfbfbf" points="1475,-56.5 1475,-75.5 1519,-75.5 1519,-56.5 1475,-56.5"/>
<text text-anchor="middle" x="1497" y="-63.5" font-family="Helvetica,sans-Serif" font-size="10.00">string</text>
</a>
</g>
</g>
<!-- Node17&#45;&gt;Node19 -->
<g id="edge21" class="edge">
<title>Node17&#45;&gt;Node19</title>
<path fill="none" stroke="midnightblue" d="M1483.3,-117.98C1485.58,-109.49 1489.15,-96.2 1492.08,-85.32"/>
<polygon fill="midnightblue" stroke="midnightblue" points="1495.5,-86.07 1494.72,-75.51 1488.74,-84.26 1495.5,-86.07"/>
</g>
<!-- Node21 -->
<g id="node21" class="node">
<title>Node21</title>
<g id="a_node21"><a xlink:title=" ">
<polygon fill="none" stroke="#bfbfbf" points="1118,-0.5 1118,-19.5 1168,-19.5 1168,-0.5 1118,-0.5"/>
<text text-anchor="middle" x="1143" y="-7.5" font-family="Helvetica,sans-Serif" font-size="10.00">cstdint</text>
</a>
</g>
</g>
<!-- Node20&#45;&gt;Node21 -->
<g id="edge23" class="edge">
<title>Node20&#45;&gt;Node21</title>
<path fill="none" stroke="midnightblue" d="M971.28,-56.68C1008.24,-46.85 1069.56,-30.54 1108.05,-20.3"/>
<polygon fill="midnightblue" stroke="midnightblue" points="1109.02,-23.66 1117.79,-17.71 1107.23,-16.9 1109.02,-23.66"/>
</g>
<!-- Node22 -->
<g id="node22" class="node">
<title>Node22</title>
<g id="a_node22"><a xlink:title=" ">
<polygon fill="none" stroke="#bfbfbf" points="1015,-0.5 1015,-19.5 1053,-19.5 1053,-0.5 1015,-0.5"/>
<text text-anchor="middle" x="1034" y="-7.5" font-family="Helvetica,sans-Serif" font-size="10.00">map</text>
</a>
</g>
</g>
<!-- Node20&#45;&gt;Node22 -->
<g id="edge24" class="edge">
<title>Node20&#45;&gt;Node22</title>
<path fill="none" stroke="midnightblue" d="M955.11,-56.32C969.91,-47.82 992.7,-34.73 1009.99,-24.8"/>
<polygon fill="midnightblue" stroke="midnightblue" points="1012.01,-27.67 1018.94,-19.65 1008.52,-21.6 1012.01,-27.67"/>
</g>
<!-- Node23&#45;&gt;Node12 -->
<g id="edge30" class="edge">
<title>Node23&#45;&gt;Node12</title>
<path fill="none" stroke="midnightblue" d="M1171.09,-117.98C1147.55,-107.9 1108.19,-91.05 1081.21,-79.5"/>
<polygon fill="midnightblue" stroke="midnightblue" points="1082.45,-76.23 1071.88,-75.51 1079.7,-82.66 1082.45,-76.23"/>
</g>
<!-- Node23&#45;&gt;Node13 -->
<g id="edge31" class="edge">
<title>Node23&#45;&gt;Node13</title>
<path fill="none" stroke="midnightblue" d="M1234.46,-119.27C1249.22,-116.88 1265.82,-114.25 1281,-112 1371.16,-98.65 1475.3,-84.83 1542.77,-76.09"/>
<polygon fill="midnightblue" stroke="midnightblue" points="1543.4,-79.54 1552.87,-74.79 1542.5,-72.6 1543.4,-79.54"/>
</g>
<!-- Node23&#45;&gt;Node18 -->
<g id="edge29" class="edge">
<title>Node23&#45;&gt;Node18</title>
<path fill="none" stroke="midnightblue" d="M1210.92,-117.98C1234.45,-107.9 1273.81,-91.05 1300.8,-79.5"/>
<polygon fill="midnightblue" stroke="midnightblue" points="1302.31,-82.66 1310.13,-75.51 1299.56,-76.23 1302.31,-82.66"/>
</g>
<!-- Node23&#45;&gt;Node19 -->
<g id="edge28" class="edge">
<title>Node23&#45;&gt;Node19</title>
<path fill="none" stroke="midnightblue" d="M1222.87,-117.97C1231.03,-115.9 1239.82,-113.78 1248,-112 1325.43,-95.18 1417.35,-79.72 1464.91,-72.06"/>
<polygon fill="midnightblue" stroke="midnightblue" points="1465.6,-75.49 1474.92,-70.46 1464.49,-68.58 1465.6,-75.49"/>
</g>
<!-- Node23&#45;&gt;Node21 -->
<g id="edge26" class="edge">
<title>Node23&#45;&gt;Node21</title>
<path fill="none" stroke="midnightblue" d="M1187.67,-117.77C1182.53,-104.41 1172.3,-78.09 1163,-56 1159.23,-47.02 1154.85,-37.13 1151.16,-28.9"/>
<polygon fill="midnightblue" stroke="midnightblue" points="1154.25,-27.25 1146.94,-19.58 1147.87,-30.14 1154.25,-27.25"/>
</g>
<!-- Node23&#45;&gt;Node22 -->
<g id="edge27" class="edge">
<title>Node23&#45;&gt;Node22</title>
<path fill="none" stroke="midnightblue" d="M1184.24,-117.78C1172.82,-103.49 1148.45,-74.78 1123,-56 1104.23,-42.14 1080.55,-30.4 1062.34,-22.39"/>
<polygon fill="midnightblue" stroke="midnightblue" points="1063.68,-19.16 1053.11,-18.45 1060.93,-25.6 1063.68,-19.16"/>
</g>
<!-- Node24&#45;&gt;Node12 -->
<g id="edge33" class="edge">
<title>Node24&#45;&gt;Node12</title>
<path fill="none" stroke="midnightblue" d="M558.07,-235.31C553.35,-211.56 544.05,-145.13 579,-112 609.82,-82.79 903.36,-80.9 979,-75.83"/>
<polygon fill="midnightblue" stroke="midnightblue" points="979.51,-79.3 989.19,-74.98 978.94,-72.32 979.51,-79.3"/>
</g>
<!-- Node24&#45;&gt;Node25 -->
<g id="edge34" class="edge">
<title>Node24&#45;&gt;Node25</title>
<path fill="none" stroke="midnightblue" d="M513.89,-235.44C458.64,-225.19 366.75,-208.14 312.63,-198.09"/>
<polygon fill="midnightblue" stroke="midnightblue" points="313.12,-194.63 302.65,-196.24 311.84,-201.51 313.12,-194.63"/>
</g>
<!-- Node27 -->
<g id="node27" class="node">
<title>Node27</title>
<g id="a_node27"><a xlink:href="giraffe__diagnostic__ids_8hpp.html" target="_top" xlink:title=" ">
<polygon fill="none" stroke="black" points="248,-112.5 248,-142.5 352,-142.5 352,-112.5 248,-112.5"/>
<text text-anchor="start" x="256" y="-130.5" font-family="Helvetica,sans-Serif" font-size="10.00">giraffe_diagnostic</text>
<text text-anchor="middle" x="300" y="-119.5" font-family="Helvetica,sans-Serif" font-size="10.00">_ids.hpp</text>
</a>
</g>
</g>
<!-- Node24&#45;&gt;Node27 -->
<g id="edge37" class="edge">
<title>Node24&#45;&gt;Node27</title>
<path fill="none" stroke="midnightblue" d="M540.46,-235.32C498.26,-216.57 397.84,-171.96 341.02,-146.72"/>
<polygon fill="midnightblue" stroke="midnightblue" points="342.18,-143.41 331.62,-142.55 339.34,-149.8 342.18,-143.41"/>
</g>
<!-- Node24&#45;&gt;Node28 -->
<g id="edge38" class="edge">
<title>Node24&#45;&gt;Node28</title>
<path fill="none" stroke="midnightblue" d="M584.56,-235.44C610.53,-226.4 651.67,-212.06 680.8,-201.92"/>
<polygon fill="midnightblue" stroke="midnightblue" points="682.27,-205.11 690.56,-198.52 679.96,-198.5 682.27,-205.11"/>
</g>
<!-- Node25&#45;&gt;Node15 -->
<g id="edge35" class="edge">
<title>Node25&#45;&gt;Node15</title>
<path fill="none" stroke="midnightblue" d="M235.47,-183C183.7,-173.92 93.6,-151.87 127,-112 154.49,-79.19 282.93,-70.28 345.53,-67.88"/>
<polygon fill="midnightblue" stroke="midnightblue" points="345.83,-71.37 355.7,-67.52 345.59,-64.38 345.83,-71.37"/>
</g>
<!-- Node26 -->
<g id="node26" class="node">
<title>Node26</title>
<g id="a_node26"><a xlink:title=" ">
<polygon fill="none" stroke="#bfbfbf" points="136.5,-118 136.5,-137 229.5,-137 229.5,-118 136.5,-118"/>
<text text-anchor="middle" x="183" y="-125" font-family="Helvetica,sans-Serif" font-size="10.00">unordered_map</text>
</a>
</g>
</g>
<!-- Node25&#45;&gt;Node26 -->
<g id="edge36" class="edge">
<title>Node25&#45;&gt;Node26</title>
<path fill="none" stroke="midnightblue" d="M256.68,-179.48C242.89,-169.93 220.31,-154.31 203.77,-142.87"/>
<polygon fill="midnightblue" stroke="midnightblue" points="205.52,-139.82 195.3,-137.01 201.54,-145.58 205.52,-139.82"/>
</g>
<!-- Node28&#45;&gt;Node2 -->
<g id="edge40" class="edge">
<title>Node28&#45;&gt;Node2</title>
<path fill="none" stroke="midnightblue" d="M676.33,-186.51C582.05,-182.56 333.05,-170.2 127,-143 115.01,-141.42 102.05,-139.18 90.25,-136.94"/>
<polygon fill="midnightblue" stroke="midnightblue" points="90.72,-133.47 80.23,-134.99 89.38,-140.34 90.72,-133.47"/>
</g>
<!-- Node28&#45;&gt;Node12 -->
<g id="edge44" class="edge">
<title>Node28&#45;&gt;Node12</title>
<path fill="none" stroke="midnightblue" d="M716.64,-179.25C720.17,-163.07 730.09,-128.65 753,-112 762.13,-105.37 893.88,-87.35 979.42,-76.22"/>
<polygon fill="midnightblue" stroke="midnightblue" points="979.88,-79.69 989.35,-74.94 978.98,-72.75 979.88,-79.69"/>
</g>
<!-- Node28&#45;&gt;Node15 -->
<g id="edge41" class="edge">
<title>Node28&#45;&gt;Node15</title>
<path fill="none" stroke="midnightblue" d="M676.5,-187.4C602.55,-185.46 444.38,-177.31 404,-143 387.4,-128.89 382.14,-103.37 380.55,-85.83"/>
<polygon fill="midnightblue" stroke="midnightblue" points="384.04,-85.43 379.96,-75.65 377.05,-85.84 384.04,-85.43"/>
</g>
<!-- Node28&#45;&gt;Node19 -->
<g id="edge43" class="edge">
<title>Node28&#45;&gt;Node19</title>
<path fill="none" stroke="midnightblue" d="M753.61,-187.64C859.77,-186.21 1154.1,-178.99 1243,-143 1263.21,-134.82 1261.33,-121.38 1281,-112 1341.86,-82.99 1421.12,-72.6 1464.73,-68.94"/>
<polygon fill="midnightblue" stroke="midnightblue" points="1465.05,-72.42 1474.76,-68.16 1464.52,-65.44 1465.05,-72.42"/>
</g>
<!-- Node28&#45;&gt;Node20 -->
<g id="edge53" class="edge">
<title>Node28&#45;&gt;Node20</title>
<path fill="none" stroke="midnightblue" d="M753.76,-184.2C806.11,-178.29 895.59,-165.22 919,-143 934.56,-128.24 938.94,-103.08 940,-85.78"/>
<polygon fill="midnightblue" stroke="midnightblue" points="943.5,-85.83 940.3,-75.73 936.5,-85.62 943.5,-85.83"/>
</g>
<!-- Node28&#45;&gt;Node23 -->
<g id="edge54" class="edge">
<title>Node28&#45;&gt;Node23</title>
<path fill="none" stroke="midnightblue" d="M753.55,-183.18C838.22,-172.6 1040.59,-147.3 1137.5,-135.19"/>
<polygon fill="midnightblue" stroke="midnightblue" points="1138.17,-138.63 1147.66,-133.92 1137.3,-131.69 1138.17,-138.63"/>
</g>
<!-- Node28&#45;&gt;Node27 -->
<g id="edge52" class="edge">
<title>Node28&#45;&gt;Node27</title>
<path fill="none" stroke="midnightblue" d="M676.36,-184.14C611.82,-177.45 478.1,-162.5 366,-143 364.74,-142.78 363.46,-142.55 362.17,-142.32"/>
<polygon fill="midnightblue" stroke="midnightblue" points="362.64,-138.84 352.16,-140.4 361.32,-145.72 362.64,-138.84"/>
</g>
<!-- Node29 -->
<g id="node29" class="node">
<title>Node29</title>
<g id="a_node29"><a xlink:title=" ">
<polygon fill="none" stroke="#bfbfbf" points="966,-118 966,-137 1016,-137 1016,-118 966,-118"/>
<text text-anchor="middle" x="991" y="-125" font-family="Helvetica,sans-Serif" font-size="10.00">atomic</text>
</a>
</g>
</g>
<!-- Node28&#45;&gt;Node29 -->
<g id="edge39" class="edge">
<title>Node28&#45;&gt;Node29</title>
<path fill="none" stroke="midnightblue" d="M753.64,-182.71C800.93,-175.77 883.22,-162.17 952,-143 954.65,-142.26 957.38,-141.42 960.09,-140.53"/>
<polygon fill="midnightblue" stroke="midnightblue" points="961.48,-143.75 969.76,-137.13 959.17,-137.14 961.48,-143.75"/>
</g>
<!-- Node30 -->
<g id="node30" class="node">
<title>Node30</title>
<g id="a_node30"><a xlink:title=" ">
<polygon fill="none" stroke="#bfbfbf" points="616.5,-56.5 616.5,-75.5 663.5,-75.5 663.5,-56.5 616.5,-56.5"/>
<text text-anchor="middle" x="640" y="-63.5" font-family="Helvetica,sans-Serif" font-size="10.00">queue</text>
</a>
</g>
</g>
<!-- Node28&#45;&gt;Node30 -->
<g id="edge42" class="edge">
<title>Node28&#45;&gt;Node30</title>
<path fill="none" stroke="midnightblue" d="M711.21,-179.25C704.79,-164.78 690.99,-135.16 676,-112 669.55,-102.03 661.34,-91.62 654.39,-83.33"/>
<polygon fill="midnightblue" stroke="midnightblue" points="656.89,-80.88 647.73,-75.57 651.58,-85.44 656.89,-80.88"/>
</g>
<!-- Node31 -->
<g id="node31" class="node">
<title>Node31</title>
<g id="a_node31"><a xlink:title=" ">
<polygon fill="none" stroke="#bfbfbf" points="762,-118 762,-137 910,-137 910,-118 762,-118"/>
<text text-anchor="middle" x="836" y="-125" font-family="Helvetica,sans-Serif" font-size="10.00">BoosterSeat/exception.hpp</text>
</a>
</g>
</g>
<!-- Node28&#45;&gt;Node31 -->
<g id="edge45" class="edge">
<title>Node28&#45;&gt;Node31</title>
<path fill="none" stroke="midnightblue" d="M732.34,-179.48C752.56,-169.53 786.19,-152.99 809.65,-141.46"/>
<polygon fill="midnightblue" stroke="midnightblue" points="811.27,-144.56 818.7,-137.01 808.18,-138.28 811.27,-144.56"/>
</g>
<!-- Node32 -->
<g id="node32" class="node">
<title>Node32</title>
<g id="a_node32"><a xlink:href="command_8hpp.html" target="_top" xlink:title="The command/queue system for the flight system.">
<polygon fill="none" stroke="black" points="446,-118 446,-137 532,-137 532,-118 446,-118"/>
<text text-anchor="middle" x="489" y="-125" font-family="Helvetica,sans-Serif" font-size="10.00">command.hpp</text>
</a>
</g>
</g>
<!-- Node28&#45;&gt;Node32 -->
<g id="edge46" class="edge">
<title>Node28&#45;&gt;Node32</title>
<path fill="none" stroke="midnightblue" d="M682.62,-179.48C642.77,-168.98 574.99,-151.14 531.12,-139.59"/>
<polygon fill="midnightblue" stroke="midnightblue" points="531.89,-136.17 521.32,-137.01 530.1,-142.94 531.89,-136.17"/>
</g>
<!-- Node34 -->
<g id="node34" class="node">
<title>Node34</title>
<g id="a_node34"><a xlink:href="data__ids_8hpp.html" target="_top" xlink:title=" ">
<polygon fill="none" stroke="black" points="588.5,-118 588.5,-137 667.5,-137 667.5,-118 588.5,-118"/>
<text text-anchor="middle" x="628" y="-125" font-family="Helvetica,sans-Serif" font-size="10.00">data_ids.hpp</text>
</a>
</g>
</g>
<!-- Node28&#45;&gt;Node34 -->
<g id="edge51" class="edge">
<title>Node28&#45;&gt;Node34</title>
<path fill="none" stroke="midnightblue" d="M702.54,-179.48C688.58,-169.93 665.74,-154.31 649.01,-142.87"/>
<polygon fill="midnightblue" stroke="midnightblue" points="650.68,-139.77 640.45,-137.01 646.72,-145.54 650.68,-139.77"/>
</g>
<!-- Node32&#45;&gt;Node15 -->
<g id="edge47" class="edge">
<title>Node32&#45;&gt;Node15</title>
<path fill="none" stroke="midnightblue" d="M473.39,-117.98C455.42,-108.17 425.68,-91.93 404.6,-80.42"/>
<polygon fill="midnightblue" stroke="midnightblue" points="406.05,-77.23 395.59,-75.51 402.69,-83.37 406.05,-77.23"/>
</g>
<!-- Node32&#45;&gt;Node20 -->
<g id="edge50" class="edge">
<title>Node32&#45;&gt;Node20</title>
<path fill="none" stroke="midnightblue" d="M519.31,-117.98C527.88,-115.79 537.27,-113.6 546,-112 673.64,-88.59 826.91,-75.26 898.87,-69.85"/>
<polygon fill="midnightblue" stroke="midnightblue" points="899.17,-73.34 908.89,-69.11 898.66,-66.36 899.17,-73.34"/>
</g>
<!-- Node32&#45;&gt;Node30 -->
<g id="edge48" class="edge">
<title>Node32&#45;&gt;Node30</title>
<path fill="none" stroke="midnightblue" d="M510.64,-117.98C536.43,-107.81 579.71,-90.76 609.04,-79.2"/>
<polygon fill="midnightblue" stroke="midnightblue" points="610.39,-82.43 618.41,-75.51 607.82,-75.92 610.39,-82.43"/>
</g>
<!-- Node33 -->
<g id="node33" class="node">
<title>Node33</title>
<g id="a_node33"><a xlink:href="command__ids_8hpp.html" target="_top" xlink:title=" ">
<polygon fill="none" stroke="black" points="436,-56.5 436,-75.5 542,-75.5 542,-56.5 436,-56.5"/>
<text text-anchor="middle" x="489" y="-63.5" font-family="Helvetica,sans-Serif" font-size="10.00">command_ids.hpp</text>
</a>
</g>
</g>
<!-- Node32&#45;&gt;Node33 -->
<g id="edge49" class="edge">
<title>Node32&#45;&gt;Node33</title>
<path fill="none" stroke="midnightblue" d="M489,-117.98C489,-109.58 489,-96.48 489,-85.66"/>
<polygon fill="midnightblue" stroke="midnightblue" points="492.5,-85.51 489,-75.51 485.5,-85.51 492.5,-85.51"/>
</g>
<!-- Node35&#45;&gt;Node19 -->
<g id="edge56" class="edge">
<title>Node35&#45;&gt;Node19</title>
<path fill="none" stroke="midnightblue" d="M1391.96,-235.42C1428.43,-222.18 1492.04,-192.94 1519,-143 1529.06,-124.38 1519.05,-100.66 1509.48,-84.71"/>
<polygon fill="midnightblue" stroke="midnightblue" points="1512.14,-82.38 1503.76,-75.9 1506.27,-86.19 1512.14,-82.38"/>
</g>
<!-- Node36&#45;&gt;Node15 -->
<g id="edge60" class="edge">
<title>Node36&#45;&gt;Node15</title>
<path fill="none" stroke="midnightblue" d="M149.6,-235.47C90.21,-216.28 -37.75,-167.06 11,-112 33.03,-87.13 258.35,-73.15 345.68,-68.64"/>
<polygon fill="midnightblue" stroke="midnightblue" points="346.06,-72.12 355.87,-68.12 345.7,-65.13 346.06,-72.12"/>
</g>
<!-- Node37 -->
<g id="node37" class="node">
<title>Node37</title>
<g id="a_node37"><a xlink:title=" ">
<polygon fill="none" stroke="#bfbfbf" points="154.5,-179.5 154.5,-198.5 201.5,-198.5 201.5,-179.5 154.5,-179.5"/>
<text text-anchor="middle" x="178" y="-186.5" font-family="Helvetica,sans-Serif" font-size="10.00">deque</text>
</a>
</g>
</g>
<!-- Node36&#45;&gt;Node37 -->
<g id="edge59" class="edge">
<title>Node36&#45;&gt;Node37</title>
<path fill="none" stroke="midnightblue" d="M178,-235.08C178,-228.01 178,-217.86 178,-208.99"/>
<polygon fill="midnightblue" stroke="midnightblue" points="181.5,-208.75 178,-198.75 174.5,-208.75 181.5,-208.75"/>
</g>
<!-- Node38&#45;&gt;Node29 -->
<g id="edge62" class="edge">
<title>Node38&#45;&gt;Node29</title>
<path fill="none" stroke="midnightblue" d="M973.43,-235.32C976.49,-216.76 983.71,-172.84 987.88,-147.47"/>
<polygon fill="midnightblue" stroke="midnightblue" points="991.39,-147.72 989.56,-137.28 984.48,-146.58 991.39,-147.72"/>
</g>
<!-- Node39&#45;&gt;Node17 -->
<g id="edge65" class="edge">
<title>Node39&#45;&gt;Node17</title>
<path fill="none" stroke="midnightblue" d="M1619.79,-179.48C1592,-169.27 1545.28,-152.11 1513.81,-140.55"/>
<polygon fill="midnightblue" stroke="midnightblue" points="1514.77,-137.17 1504.17,-137.01 1512.35,-143.74 1514.77,-137.17"/>
</g>
<!-- Node39&#45;&gt;Node19 -->
<g id="edge66" class="edge">
<title>Node39&#45;&gt;Node19</title>
<path fill="none" stroke="midnightblue" d="M1638.89,-179.41C1631.19,-164.09 1613.26,-131.84 1590,-112 1571.99,-96.64 1547.83,-85.15 1528.65,-77.63"/>
<polygon fill="midnightblue" stroke="midnightblue" points="1529.72,-74.3 1519.13,-74.06 1527.27,-80.85 1529.72,-74.3"/>
</g>
<!-- Node40&#45;&gt;Node19 -->
<g id="edge71" class="edge">
<title>Node40&#45;&gt;Node19</title>
<path fill="none" stroke="midnightblue" d="M911.72,-359.62C914.52,-359.06 917.31,-358.51 920,-358 1065.29,-330.4 1576,-393.89 1576,-246 1576,-246 1576,-246 1576,-188 1576,-144.01 1538.95,-103.52 1515.59,-82.37"/>
<polygon fill="midnightblue" stroke="midnightblue" points="1517.82,-79.67 1507.99,-75.72 1513.21,-84.94 1517.82,-79.67"/>
</g>
<!-- Node41 -->
<g id="node41" class="node">
<title>Node41</title>
<g id="a_node41"><a xlink:title=" ">
<polygon fill="none" stroke="#bfbfbf" points="747,-297 747,-316 819,-316 819,-297 747,-297"/>
<text text-anchor="middle" x="783" y="-304" font-family="Helvetica,sans-Serif" font-size="10.00">netinet/in.h</text>
</a>
</g>
</g>
<!-- Node40&#45;&gt;Node41 -->
<g id="edge69" class="edge">
<title>Node40&#45;&gt;Node41</title>
<path fill="none" stroke="midnightblue" d="M863.54,-358.48C848.32,-348.84 823.32,-333.02 805.2,-321.55"/>
<polygon fill="midnightblue" stroke="midnightblue" points="806.77,-318.4 796.45,-316.01 803.02,-324.31 806.77,-318.4"/>
</g>
<!-- Node42 -->
<g id="node42" class="node">
<title>Node42</title>
<g id="a_node42"><a xlink:title=" ">
<polygon fill="none" stroke="#bfbfbf" points="837,-291.5 837,-321.5 947,-321.5 947,-291.5 837,-291.5"/>
<text text-anchor="start" x="845" y="-309.5" font-family="Helvetica,sans-Serif" font-size="10.00">BoosterSeat/rolling</text>
<text text-anchor="middle" x="892" y="-298.5" font-family="Helvetica,sans-Serif" font-size="10.00">_average.hpp</text>
</a>
</g>
</g>
<!-- Node40&#45;&gt;Node42 -->
<g id="edge70" class="edge">
<title>Node40&#45;&gt;Node42</title>
<path fill="none" stroke="midnightblue" d="M879.15,-358.48C880.94,-351.4 883.57,-340.97 885.98,-331.39"/>
<polygon fill="midnightblue" stroke="midnightblue" points="889.42,-332.08 888.47,-321.52 882.63,-330.36 889.42,-332.08"/>
</g>
</g>
</svg>
