<?xml version="1.0" encoding="UTF-8" standalone="no"?>
<!DOCTYPE svg PUBLIC "-//W3C//DTD SVG 1.1//EN"
 "http://www.w3.org/Graphics/SVG/1.1/DTD/svg11.dtd">
<!-- Generated by graphviz version 2.43.0 (0)
 -->
<!-- Title: rgb_status_led.hpp Pages: 1 -->
<svg width="1703pt" height="543pt"
 viewBox="0.00 0.00 1702.50 543.00" xmlns="http://www.w3.org/2000/svg" xmlns:xlink="http://www.w3.org/1999/xlink">
<g id="graph0" class="graph" transform="scale(1 1) rotate(0) translate(4 539)">
<title>rgb_status_led.hpp</title>
<!-- Node1 -->
<g id="node1" class="node">
<title>Node1</title>
<g id="a_node1"><a xlink:title=" ">
<polygon fill="#bfbfbf" stroke="black" points="1522.5,-515.5 1522.5,-534.5 1631.5,-534.5 1631.5,-515.5 1522.5,-515.5"/>
<text text-anchor="middle" x="1577" y="-522.5" font-family="Helvetica,sans-Serif" font-size="10.00">rgb_status_led.hpp</text>
</a>
</g>
</g>
<!-- Node2 -->
<g id="node2" class="node">
<title>Node2</title>
<g id="a_node2"><a xlink:href="extension__base_8hpp.html" target="_top" xlink:title="The new implementation of the extension system.">
<polygon fill="none" stroke="black" points="1426,-459.5 1426,-478.5 1540,-478.5 1540,-459.5 1426,-459.5"/>
<text text-anchor="middle" x="1483" y="-466.5" font-family="Helvetica,sans-Serif" font-size="10.00">extension_base.hpp</text>
</a>
</g>
</g>
<!-- Node1&#45;&gt;Node2 -->
<g id="edge1" class="edge">
<title>Node1&#45;&gt;Node2</title>
<path fill="none" stroke="midnightblue" d="M1561.9,-515.32C1547.1,-506.82 1524.31,-493.73 1507.02,-483.8"/>
<polygon fill="midnightblue" stroke="midnightblue" points="1508.48,-480.6 1498.07,-478.65 1504.99,-486.67 1508.48,-480.6"/>
</g>
<!-- Node34 -->
<g id="node34" class="node">
<title>Node34</title>
<g id="a_node34"><a xlink:href="status__led_8hpp.html" target="_top" xlink:title="RGB Status LED extension header file.">
<polygon fill="none" stroke="black" points="1480,-235.5 1480,-254.5 1568,-254.5 1568,-235.5 1480,-235.5"/>
<text text-anchor="middle" x="1524" y="-242.5" font-family="Helvetica,sans-Serif" font-size="10.00">status_led.hpp</text>
</a>
</g>
</g>
<!-- Node1&#45;&gt;Node34 -->
<g id="edge65" class="edge">
<title>Node1&#45;&gt;Node34</title>
<path fill="none" stroke="midnightblue" d="M1577,-515.44C1577,-496.94 1577,-451.81 1577,-414 1577,-414 1577,-414 1577,-356 1577,-319.99 1553.67,-283.34 1537.96,-262.75"/>
<polygon fill="midnightblue" stroke="midnightblue" points="1540.55,-260.38 1531.59,-254.72 1535.07,-264.73 1540.55,-260.38"/>
</g>
<!-- Node35 -->
<g id="node35" class="node">
<title>Node35</title>
<g id="a_node35"><a xlink:href="gpio_8hpp.html" target="_top" xlink:title="GPIO interface header file.">
<polygon fill="none" stroke="black" points="1635.5,-118 1635.5,-137 1694.5,-137 1694.5,-118 1635.5,-118"/>
<text text-anchor="middle" x="1665" y="-125" font-family="Helvetica,sans-Serif" font-size="10.00">gpio.hpp</text>
</a>
</g>
</g>
<!-- Node1&#45;&gt;Node35 -->
<g id="edge61" class="edge">
<title>Node1&#45;&gt;Node35</title>
<path fill="none" stroke="midnightblue" d="M1589.81,-515.39C1612.88,-498.74 1659,-459.73 1659,-414 1659,-414 1659,-414 1659,-244 1659,-209.82 1661.65,-170.02 1663.43,-147.19"/>
<polygon fill="midnightblue" stroke="midnightblue" points="1666.92,-147.43 1664.24,-137.19 1659.95,-146.87 1666.92,-147.43"/>
</g>
<!-- Node3 -->
<g id="node3" class="node">
<title>Node3</title>
<g id="a_node3"><a xlink:title=" ">
<polygon fill="none" stroke="#bfbfbf" points="1567,-118 1567,-137 1617,-137 1617,-118 1567,-118"/>
<text text-anchor="middle" x="1592" y="-125" font-family="Helvetica,sans-Serif" font-size="10.00">atomic</text>
</a>
</g>
</g>
<!-- Node2&#45;&gt;Node3 -->
<g id="edge2" class="edge">
<title>Node2&#45;&gt;Node3</title>
<path fill="none" stroke="midnightblue" d="M1509.39,-459.47C1547.92,-445.16 1615,-412.44 1615,-358 1615,-358 1615,-358 1615,-244 1615,-209.03 1604.74,-169.24 1597.92,-146.67"/>
<polygon fill="midnightblue" stroke="midnightblue" points="1601.24,-145.57 1594.91,-137.08 1594.56,-147.67 1601.24,-145.57"/>
</g>
<!-- Node4 -->
<g id="node4" class="node">
<title>Node4</title>
<g id="a_node4"><a xlink:title=" ">
<polygon fill="none" stroke="#bfbfbf" points="1501,-403.5 1501,-422.5 1549,-422.5 1549,-403.5 1501,-403.5"/>
<text text-anchor="middle" x="1525" y="-410.5" font-family="Helvetica,sans-Serif" font-size="10.00">thread</text>
</a>
</g>
</g>
<!-- Node2&#45;&gt;Node4 -->
<g id="edge3" class="edge">
<title>Node2&#45;&gt;Node4</title>
<path fill="none" stroke="midnightblue" d="M1489.94,-459.08C1495.93,-451.38 1504.75,-440.03 1512.05,-430.65"/>
<polygon fill="midnightblue" stroke="midnightblue" points="1514.82,-432.79 1518.19,-422.75 1509.29,-428.5 1514.82,-432.79"/>
</g>
<!-- Node5 -->
<g id="node5" class="node">
<title>Node5</title>
<g id="a_node5"><a xlink:href="cfg__extensions_8hpp.html" target="_top" xlink:title="The header file for the extensions section of the configuration.">
<polygon fill="none" stroke="black" points="1289.5,-403.5 1289.5,-422.5 1444.5,-422.5 1444.5,-403.5 1289.5,-403.5"/>
<text text-anchor="middle" x="1367" y="-410.5" font-family="Helvetica,sans-Serif" font-size="10.00">sections/cfg_extensions.hpp</text>
</a>
</g>
</g>
<!-- Node2&#45;&gt;Node5 -->
<g id="edge4" class="edge">
<title>Node2&#45;&gt;Node5</title>
<path fill="none" stroke="midnightblue" d="M1464.62,-459.44C1445.78,-450.68 1416.27,-436.94 1394.62,-426.86"/>
<polygon fill="midnightblue" stroke="midnightblue" points="1395.84,-423.56 1385.29,-422.52 1392.88,-429.91 1395.84,-423.56"/>
</g>
<!-- Node8 -->
<g id="node8" class="node">
<title>Node8</title>
<g id="a_node8"><a xlink:href="shared__data_8hpp.html" target="_top" xlink:title="Contains the SharedData struct, used across all modules and extensions.">
<polygon fill="none" stroke="black" points="1068,-291.5 1068,-310.5 1166,-310.5 1166,-291.5 1068,-291.5"/>
<text text-anchor="middle" x="1117" y="-298.5" font-family="Helvetica,sans-Serif" font-size="10.00">shared_data.hpp</text>
</a>
</g>
</g>
<!-- Node2&#45;&gt;Node8 -->
<g id="edge59" class="edge">
<title>Node2&#45;&gt;Node8</title>
<path fill="none" stroke="midnightblue" d="M1425.7,-468.47C1348.21,-465.8 1211.06,-448.85 1136,-367 1124.46,-354.42 1119.9,-335.2 1118.11,-320.92"/>
<polygon fill="midnightblue" stroke="midnightblue" points="1121.58,-320.39 1117.19,-310.75 1114.61,-321.02 1121.58,-320.39"/>
</g>
<!-- Node2&#45;&gt;Node34 -->
<g id="edge60" class="edge">
<title>Node2&#45;&gt;Node34</title>
<path fill="none" stroke="midnightblue" d="M1484.05,-459.14C1485.57,-446.61 1488.58,-422.99 1492,-403 1500.57,-352.89 1513.21,-294.32 1519.74,-264.9"/>
<polygon fill="midnightblue" stroke="midnightblue" points="1523.23,-265.34 1522,-254.82 1516.4,-263.81 1523.23,-265.34"/>
</g>
<!-- Node6 -->
<g id="node6" class="node">
<title>Node6</title>
<g id="a_node6"><a xlink:href="configuration__enums_8hpp.html" target="_top" xlink:title=" ">
<polygon fill="none" stroke="black" points="1145,-347.5 1145,-366.5 1285,-366.5 1285,-347.5 1145,-347.5"/>
<text text-anchor="middle" x="1215" y="-354.5" font-family="Helvetica,sans-Serif" font-size="10.00">configuration_enums.hpp</text>
</a>
</g>
</g>
<!-- Node5&#45;&gt;Node6 -->
<g id="edge5" class="edge">
<title>Node5&#45;&gt;Node6</title>
<path fill="none" stroke="midnightblue" d="M1342.92,-403.44C1317.46,-394.4 1277.11,-380.06 1248.54,-369.92"/>
<polygon fill="midnightblue" stroke="midnightblue" points="1249.57,-366.57 1238.97,-366.52 1247.22,-373.16 1249.57,-366.57"/>
</g>
<!-- Node7 -->
<g id="node7" class="node">
<title>Node7</title>
<g id="a_node7"><a xlink:href="cfg__section_8hpp.html" target="_top" xlink:title="This file contains the base class for all configuration sections.">
<polygon fill="none" stroke="black" points="1303.5,-347.5 1303.5,-366.5 1440.5,-366.5 1440.5,-347.5 1303.5,-347.5"/>
<text text-anchor="middle" x="1372" y="-354.5" font-family="Helvetica,sans-Serif" font-size="10.00">sections/cfg_section.hpp</text>
</a>
</g>
</g>
<!-- Node5&#45;&gt;Node7 -->
<g id="edge6" class="edge">
<title>Node5&#45;&gt;Node7</title>
<path fill="none" stroke="midnightblue" d="M1367.83,-403.08C1368.48,-396.01 1369.42,-385.86 1370.24,-376.99"/>
<polygon fill="midnightblue" stroke="midnightblue" points="1373.75,-377.03 1371.19,-366.75 1366.78,-376.39 1373.75,-377.03"/>
</g>
<!-- Node7&#45;&gt;Node8 -->
<g id="edge7" class="edge">
<title>Node7&#45;&gt;Node8</title>
<path fill="none" stroke="midnightblue" d="M1331.59,-347.44C1287.02,-338 1215.23,-322.8 1167.11,-312.61"/>
<polygon fill="midnightblue" stroke="midnightblue" points="1167.72,-309.16 1157.22,-310.52 1166.27,-316.01 1167.72,-309.16"/>
</g>
<!-- Node9 -->
<g id="node9" class="node">
<title>Node9</title>
<g id="a_node9"><a xlink:title=" ">
<polygon fill="none" stroke="#bfbfbf" points="474.5,-56.5 474.5,-75.5 599.5,-75.5 599.5,-56.5 474.5,-56.5"/>
<text text-anchor="middle" x="537" y="-63.5" font-family="Helvetica,sans-Serif" font-size="10.00">BoosterSeat/clock.hpp</text>
</a>
</g>
</g>
<!-- Node8&#45;&gt;Node9 -->
<g id="edge8" class="edge">
<title>Node8&#45;&gt;Node9</title>
<path fill="none" stroke="midnightblue" d="M1067.65,-292.6C945.23,-273.25 632.45,-217.47 562,-143 547.26,-127.42 541.21,-103 538.72,-86.06"/>
<polygon fill="midnightblue" stroke="midnightblue" points="542.15,-85.25 537.51,-75.73 535.2,-86.07 542.15,-85.25"/>
</g>
<!-- Node10 -->
<g id="node10" class="node">
<title>Node10</title>
<g id="a_node10"><a xlink:title=" ">
<polygon fill="none" stroke="#bfbfbf" points="0,-56.5 0,-75.5 122,-75.5 122,-56.5 0,-56.5"/>
<text text-anchor="middle" x="61" y="-63.5" font-family="Helvetica,sans-Serif" font-size="10.00">BoosterSeat/time.hpp</text>
</a>
</g>
</g>
<!-- Node8&#45;&gt;Node10 -->
<g id="edge9" class="edge">
<title>Node8&#45;&gt;Node10</title>
<path fill="none" stroke="midnightblue" d="M1067.94,-299.96C958.77,-299.15 687.84,-293.1 465,-255 280.92,-223.52 173.1,-291.62 60,-143 47.55,-126.63 50.63,-102.02 54.94,-85.28"/>
<polygon fill="midnightblue" stroke="midnightblue" points="58.33,-86.15 57.81,-75.57 51.62,-84.17 58.33,-86.15"/>
</g>
<!-- Node11 -->
<g id="node11" class="node">
<title>Node11</title>
<g id="a_node11"><a xlink:href="blocks_8hpp.html" target="_top" xlink:title=" ">
<polygon fill="none" stroke="black" points="387.5,-179.5 387.5,-198.5 456.5,-198.5 456.5,-179.5 387.5,-179.5"/>
<text text-anchor="middle" x="422" y="-186.5" font-family="Helvetica,sans-Serif" font-size="10.00">blocks.hpp</text>
</a>
</g>
</g>
<!-- Node8&#45;&gt;Node11 -->
<g id="edge10" class="edge">
<title>Node8&#45;&gt;Node11</title>
<path fill="none" stroke="midnightblue" d="M1067.61,-300.13C940.6,-299.88 605.45,-295.29 503,-255 476.14,-244.44 451.19,-221.66 436.28,-206.08"/>
<polygon fill="midnightblue" stroke="midnightblue" points="438.8,-203.65 429.43,-198.7 433.66,-208.41 438.8,-203.65"/>
</g>
<!-- Node21 -->
<g id="node21" class="node">
<title>Node21</title>
<g id="a_node21"><a xlink:href="error__frame_8hpp.html" target="_top" xlink:title="The error frame.">
<polygon fill="none" stroke="black" points="1069.5,-235.5 1069.5,-254.5 1164.5,-254.5 1164.5,-235.5 1069.5,-235.5"/>
<text text-anchor="middle" x="1117" y="-242.5" font-family="Helvetica,sans-Serif" font-size="10.00">error_frame.hpp</text>
</a>
</g>
</g>
<!-- Node8&#45;&gt;Node21 -->
<g id="edge29" class="edge">
<title>Node8&#45;&gt;Node21</title>
<path fill="none" stroke="midnightblue" d="M1117,-291.08C1117,-284.01 1117,-273.86 1117,-264.99"/>
<polygon fill="midnightblue" stroke="midnightblue" points="1120.5,-264.75 1117,-254.75 1113.5,-264.75 1120.5,-264.75"/>
</g>
<!-- Node22 -->
<g id="node22" class="node">
<title>Node22</title>
<g id="a_node22"><a xlink:href="frame_8hpp.html" target="_top" xlink:title=" ">
<polygon fill="none" stroke="black" points="1261.5,-179.5 1261.5,-198.5 1328.5,-198.5 1328.5,-179.5 1261.5,-179.5"/>
<text text-anchor="middle" x="1295" y="-186.5" font-family="Helvetica,sans-Serif" font-size="10.00">frame.hpp</text>
</a>
</g>
</g>
<!-- Node8&#45;&gt;Node22 -->
<g id="edge52" class="edge">
<title>Node8&#45;&gt;Node22</title>
<path fill="none" stroke="midnightblue" d="M1130.97,-291.37C1161.64,-272.41 1235.13,-227 1272.44,-203.94"/>
<polygon fill="midnightblue" stroke="midnightblue" points="1274.43,-206.83 1281.1,-198.59 1270.75,-200.87 1274.43,-206.83"/>
</g>
<!-- Node25 -->
<g id="node25" class="node">
<title>Node25</title>
<g id="a_node25"><a xlink:href="streams_8hpp.html" target="_top" xlink:title="The header file for the data streams.">
<polygon fill="none" stroke="black" points="956.5,-179.5 956.5,-198.5 1033.5,-198.5 1033.5,-179.5 956.5,-179.5"/>
<text text-anchor="middle" x="995" y="-186.5" font-family="Helvetica,sans-Serif" font-size="10.00">streams.hpp</text>
</a>
</g>
</g>
<!-- Node8&#45;&gt;Node25 -->
<g id="edge58" class="edge">
<title>Node8&#45;&gt;Node25</title>
<path fill="none" stroke="midnightblue" d="M1105.32,-291.42C1093.57,-282.63 1075.07,-268.41 1060,-255 1042.22,-239.19 1023.11,-219.76 1010.24,-206.28"/>
<polygon fill="midnightblue" stroke="midnightblue" points="1012.53,-203.59 1003.11,-198.74 1007.44,-208.41 1012.53,-203.59"/>
</g>
<!-- Node32 -->
<g id="node32" class="node">
<title>Node32</title>
<g id="a_node32"><a xlink:href="log__container_8hpp.html" target="_top" xlink:title="A simple logging system for debugging.">
<polygon fill="none" stroke="black" points="1320.5,-235.5 1320.5,-254.5 1423.5,-254.5 1423.5,-235.5 1320.5,-235.5"/>
<text text-anchor="middle" x="1372" y="-242.5" font-family="Helvetica,sans-Serif" font-size="10.00">log_container.hpp</text>
</a>
</g>
</g>
<!-- Node8&#45;&gt;Node32 -->
<g id="edge53" class="edge">
<title>Node8&#45;&gt;Node32</title>
<path fill="none" stroke="midnightblue" d="M1157.41,-291.44C1201.98,-282 1273.77,-266.8 1321.89,-256.61"/>
<polygon fill="midnightblue" stroke="midnightblue" points="1322.73,-260.01 1331.78,-254.52 1321.28,-253.16 1322.73,-260.01"/>
</g>
<!-- Node8&#45;&gt;Node34 -->
<g id="edge56" class="edge">
<title>Node8&#45;&gt;Node34</title>
<path fill="none" stroke="midnightblue" d="M1166.09,-293.49C1242.58,-283.34 1389.66,-263.82 1469.39,-253.25"/>
<polygon fill="midnightblue" stroke="midnightblue" points="1470.26,-256.66 1479.71,-251.88 1469.34,-249.72 1470.26,-256.66"/>
</g>
<!-- Node11&#45;&gt;Node9 -->
<g id="edge12" class="edge">
<title>Node11&#45;&gt;Node9</title>
<path fill="none" stroke="midnightblue" d="M430.27,-179.3C449.42,-159.15 497.03,-109.06 521.67,-83.12"/>
<polygon fill="midnightblue" stroke="midnightblue" points="524.45,-85.28 528.8,-75.62 519.38,-80.46 524.45,-85.28"/>
</g>
<!-- Node11&#45;&gt;Node10 -->
<g id="edge14" class="edge">
<title>Node11&#45;&gt;Node10</title>
<path fill="none" stroke="midnightblue" d="M387.36,-188.21C309.67,-187.94 124.86,-183.01 80,-143 64.01,-128.74 60.51,-103.26 60.17,-85.76"/>
<polygon fill="midnightblue" stroke="midnightblue" points="63.68,-85.66 60.31,-75.62 56.68,-85.57 63.68,-85.66"/>
</g>
<!-- Node11&#45;&gt;Node11 -->
<g id="edge15" class="edge">
<title>Node11&#45;&gt;Node11</title>
<path fill="none" stroke="midnightblue" d="M444.39,-198.53C459.61,-201.31 474.5,-198.13 474.5,-189 474.5,-181.94 465.59,-178.44 454.51,-178.5"/>
<polygon fill="midnightblue" stroke="midnightblue" points="454.01,-175.03 444.39,-179.47 454.68,-182 454.01,-175.03"/>
</g>
<!-- Node12 -->
<g id="node12" class="node">
<title>Node12</title>
<g id="a_node12"><a xlink:title=" ">
<polygon fill="none" stroke="#bfbfbf" points="1346,-56.5 1346,-75.5 1394,-75.5 1394,-56.5 1346,-56.5"/>
<text text-anchor="middle" x="1370" y="-63.5" font-family="Helvetica,sans-Serif" font-size="10.00">mutex</text>
</a>
</g>
</g>
<!-- Node11&#45;&gt;Node12 -->
<g id="edge11" class="edge">
<title>Node11&#45;&gt;Node12</title>
<path fill="none" stroke="midnightblue" d="M456.51,-187.31C594.96,-184.34 1105.82,-171.53 1172,-143 1190.48,-135.03 1187.44,-121.83 1205,-112 1246.68,-88.67 1301.13,-76.9 1335.84,-71.36"/>
<polygon fill="midnightblue" stroke="midnightblue" points="1336.58,-74.79 1345.94,-69.84 1335.53,-67.87 1336.58,-74.79"/>
</g>
<!-- Node13 -->
<g id="node13" class="node">
<title>Node13</title>
<g id="a_node13"><a xlink:title=" ">
<polygon fill="none" stroke="#bfbfbf" points="165.5,-118 165.5,-137 308.5,-137 308.5,-118 165.5,-118"/>
<text text-anchor="middle" x="237" y="-125" font-family="Helvetica,sans-Serif" font-size="10.00">BoosterSeat/numbers.hpp</text>
</a>
</g>
</g>
<!-- Node11&#45;&gt;Node13 -->
<g id="edge13" class="edge">
<title>Node11&#45;&gt;Node13</title>
<path fill="none" stroke="midnightblue" d="M395.49,-179.48C363.35,-169.14 309.01,-151.66 273.07,-140.1"/>
<polygon fill="midnightblue" stroke="midnightblue" points="274.05,-136.74 263.46,-137.01 271.9,-143.4 274.05,-136.74"/>
</g>
<!-- Node14 -->
<g id="node14" class="node">
<title>Node14</title>
<g id="a_node14"><a xlink:href="json_8hpp.html" target="_top" xlink:title="Simple wrapper around nlohmann/json.hpp to provide a common interface.">
<polygon fill="none" stroke="black" points="89,-118 89,-137 147,-137 147,-118 89,-118"/>
<text text-anchor="middle" x="118" y="-125" font-family="Helvetica,sans-Serif" font-size="10.00">json.hpp</text>
</a>
</g>
</g>
<!-- Node11&#45;&gt;Node14 -->
<g id="edge16" class="edge">
<title>Node11&#45;&gt;Node14</title>
<path fill="none" stroke="midnightblue" d="M387.09,-184.32C335.8,-178.41 237.34,-165.17 156,-143 153.35,-142.28 150.62,-141.44 147.9,-140.53"/>
<polygon fill="midnightblue" stroke="midnightblue" points="148.86,-137.16 138.26,-137.08 146.5,-143.75 148.86,-137.16"/>
</g>
<!-- Node17 -->
<g id="node17" class="node">
<title>Node17</title>
<g id="a_node17"><a xlink:href="node_8hpp.html" target="_top" xlink:title="Contains structures that are used to identify components of the flight system.">
<polygon fill="none" stroke="black" points="628,-56.5 628,-75.5 690,-75.5 690,-56.5 628,-56.5"/>
<text text-anchor="middle" x="659" y="-63.5" font-family="Helvetica,sans-Serif" font-size="10.00">node.hpp</text>
</a>
</g>
</g>
<!-- Node11&#45;&gt;Node17 -->
<g id="edge19" class="edge">
<title>Node11&#45;&gt;Node17</title>
<path fill="none" stroke="midnightblue" d="M438.67,-179.49C479.36,-158.71 584.05,-105.27 633.02,-80.26"/>
<polygon fill="midnightblue" stroke="midnightblue" points="634.72,-83.33 642.04,-75.66 631.54,-77.09 634.72,-83.33"/>
</g>
<!-- Node20 -->
<g id="node20" class="node">
<title>Node20</title>
<g id="a_node20"><a xlink:href="positional_8hpp.html" target="_top" xlink:title="Positional data for the flight system (gps/imu data)">
<polygon fill="none" stroke="black" points="365,-118 365,-137 451,-137 451,-118 365,-118"/>
<text text-anchor="middle" x="408" y="-125" font-family="Helvetica,sans-Serif" font-size="10.00">positional.hpp</text>
</a>
</g>
</g>
<!-- Node11&#45;&gt;Node20 -->
<g id="edge22" class="edge">
<title>Node11&#45;&gt;Node20</title>
<path fill="none" stroke="midnightblue" d="M419.99,-179.48C418,-170.99 414.87,-157.7 412.31,-146.82"/>
<polygon fill="midnightblue" stroke="midnightblue" points="415.7,-145.94 410,-137.01 408.89,-147.54 415.7,-145.94"/>
</g>
<!-- Node15 -->
<g id="node15" class="node">
<title>Node15</title>
<g id="a_node15"><a xlink:title=" ">
<polygon fill="none" stroke="#bfbfbf" points="164,-56.5 164,-75.5 274,-75.5 274,-56.5 164,-56.5"/>
<text text-anchor="middle" x="219" y="-63.5" font-family="Helvetica,sans-Serif" font-size="10.00">nlohmann/json.hpp</text>
</a>
</g>
</g>
<!-- Node14&#45;&gt;Node15 -->
<g id="edge17" class="edge">
<title>Node14&#45;&gt;Node15</title>
<path fill="none" stroke="midnightblue" d="M132.47,-117.98C148.97,-108.25 176.18,-92.23 195.68,-80.74"/>
<polygon fill="midnightblue" stroke="midnightblue" points="197.72,-83.6 204.56,-75.51 194.16,-77.57 197.72,-83.6"/>
</g>
<!-- Node16 -->
<g id="node16" class="node">
<title>Node16</title>
<g id="a_node16"><a xlink:title=" ">
<polygon fill="none" stroke="#bfbfbf" points="315,-56.5 315,-75.5 359,-75.5 359,-56.5 315,-56.5"/>
<text text-anchor="middle" x="337" y="-63.5" font-family="Helvetica,sans-Serif" font-size="10.00">string</text>
</a>
</g>
</g>
<!-- Node14&#45;&gt;Node16 -->
<g id="edge18" class="edge">
<title>Node14&#45;&gt;Node16</title>
<path fill="none" stroke="midnightblue" d="M139.14,-117.91C144.59,-115.84 150.48,-113.73 156,-112 207.32,-95.89 268.24,-81.74 304.7,-73.79"/>
<polygon fill="midnightblue" stroke="midnightblue" points="305.71,-77.15 314.75,-71.62 304.24,-70.31 305.71,-77.15"/>
</g>
<!-- Node18 -->
<g id="node18" class="node">
<title>Node18</title>
<g id="a_node18"><a xlink:title=" ">
<polygon fill="none" stroke="#bfbfbf" points="634,-0.5 634,-19.5 684,-19.5 684,-0.5 634,-0.5"/>
<text text-anchor="middle" x="659" y="-7.5" font-family="Helvetica,sans-Serif" font-size="10.00">cstdint</text>
</a>
</g>
</g>
<!-- Node17&#45;&gt;Node18 -->
<g id="edge20" class="edge">
<title>Node17&#45;&gt;Node18</title>
<path fill="none" stroke="midnightblue" d="M659,-56.08C659,-49.01 659,-38.86 659,-29.99"/>
<polygon fill="midnightblue" stroke="midnightblue" points="662.5,-29.75 659,-19.75 655.5,-29.75 662.5,-29.75"/>
</g>
<!-- Node19 -->
<g id="node19" class="node">
<title>Node19</title>
<g id="a_node19"><a xlink:title=" ">
<polygon fill="none" stroke="#bfbfbf" points="484,-0.5 484,-19.5 522,-19.5 522,-0.5 484,-0.5"/>
<text text-anchor="middle" x="503" y="-7.5" font-family="Helvetica,sans-Serif" font-size="10.00">map</text>
</a>
</g>
</g>
<!-- Node17&#45;&gt;Node19 -->
<g id="edge21" class="edge">
<title>Node17&#45;&gt;Node19</title>
<path fill="none" stroke="midnightblue" d="M634.28,-56.44C606.46,-46.81 561.32,-31.19 531.89,-21"/>
<polygon fill="midnightblue" stroke="midnightblue" points="532.79,-17.61 522.19,-17.64 530.5,-24.22 532.79,-17.61"/>
</g>
<!-- Node20&#45;&gt;Node9 -->
<g id="edge27" class="edge">
<title>Node20&#45;&gt;Node9</title>
<path fill="none" stroke="midnightblue" d="M426.48,-117.98C448.13,-107.99 484.21,-91.35 509.23,-79.81"/>
<polygon fill="midnightblue" stroke="midnightblue" points="510.94,-82.88 518.55,-75.51 508.01,-76.52 510.94,-82.88"/>
</g>
<!-- Node20&#45;&gt;Node10 -->
<g id="edge28" class="edge">
<title>Node20&#45;&gt;Node10</title>
<path fill="none" stroke="midnightblue" d="M364.75,-119.08C303.19,-108.53 190.08,-89.13 120.61,-77.22"/>
<polygon fill="midnightblue" stroke="midnightblue" points="121.13,-73.76 110.69,-75.52 119.95,-80.66 121.13,-73.76"/>
</g>
<!-- Node20&#45;&gt;Node15 -->
<g id="edge26" class="edge">
<title>Node20&#45;&gt;Node15</title>
<path fill="none" stroke="midnightblue" d="M380.92,-117.98C348.08,-107.64 292.57,-90.16 255.85,-78.6"/>
<polygon fill="midnightblue" stroke="midnightblue" points="256.62,-75.17 246.03,-75.51 254.52,-81.85 256.62,-75.17"/>
</g>
<!-- Node20&#45;&gt;Node16 -->
<g id="edge25" class="edge">
<title>Node20&#45;&gt;Node16</title>
<path fill="none" stroke="midnightblue" d="M397.83,-117.98C386.65,-108.61 368.48,-93.38 354.91,-82.01"/>
<polygon fill="midnightblue" stroke="midnightblue" points="357.07,-79.25 347.15,-75.51 352.57,-84.61 357.07,-79.25"/>
</g>
<!-- Node20&#45;&gt;Node18 -->
<g id="edge23" class="edge">
<title>Node20&#45;&gt;Node18</title>
<path fill="none" stroke="midnightblue" d="M412.62,-117.54C420.94,-102.36 439.92,-71.7 465,-56 514.33,-25.11 582.68,-15.39 623.69,-12.35"/>
<polygon fill="midnightblue" stroke="midnightblue" points="624,-15.84 633.75,-11.7 623.55,-8.85 624,-15.84"/>
</g>
<!-- Node20&#45;&gt;Node19 -->
<g id="edge24" class="edge">
<title>Node20&#45;&gt;Node19</title>
<path fill="none" stroke="midnightblue" d="M409.06,-117.81C411.19,-103.55 417.12,-74.89 432,-56 443.18,-41.8 460.17,-30.8 474.72,-23.24"/>
<polygon fill="midnightblue" stroke="midnightblue" points="476.41,-26.31 483.85,-18.76 473.33,-20.02 476.41,-26.31"/>
</g>
<!-- Node21&#45;&gt;Node9 -->
<g id="edge30" class="edge">
<title>Node21&#45;&gt;Node9</title>
<path fill="none" stroke="midnightblue" d="M1069.43,-238.9C957.07,-226.2 678.69,-190.72 599,-143 575.33,-128.83 556.79,-102.16 546.37,-84.48"/>
<polygon fill="midnightblue" stroke="midnightblue" points="549.39,-82.72 541.43,-75.73 543.29,-86.16 549.39,-82.72"/>
</g>
<!-- Node21&#45;&gt;Node22 -->
<g id="edge31" class="edge">
<title>Node21&#45;&gt;Node22</title>
<path fill="none" stroke="midnightblue" d="M1145.2,-235.44C1175.41,-226.28 1223.51,-211.69 1257.03,-201.52"/>
<polygon fill="midnightblue" stroke="midnightblue" points="1258.37,-204.77 1266.93,-198.52 1256.34,-198.07 1258.37,-204.77"/>
</g>
<!-- Node24 -->
<g id="node24" class="node">
<title>Node24</title>
<g id="a_node24"><a xlink:href="giraffe__diagnostic__ids_8hpp.html" target="_top" xlink:title=" ">
<polygon fill="none" stroke="black" points="1257,-112.5 1257,-142.5 1361,-142.5 1361,-112.5 1257,-112.5"/>
<text text-anchor="start" x="1265" y="-130.5" font-family="Helvetica,sans-Serif" font-size="10.00">giraffe_diagnostic</text>
<text text-anchor="middle" x="1309" y="-119.5" font-family="Helvetica,sans-Serif" font-size="10.00">_ids.hpp</text>
</a>
</g>
</g>
<!-- Node21&#45;&gt;Node24 -->
<g id="edge34" class="edge">
<title>Node21&#45;&gt;Node24</title>
<path fill="none" stroke="midnightblue" d="M1131.43,-235.32C1162.14,-216.84 1234.61,-173.25 1276.87,-147.83"/>
<polygon fill="midnightblue" stroke="midnightblue" points="1278.89,-150.7 1285.65,-142.55 1275.28,-144.7 1278.89,-150.7"/>
</g>
<!-- Node21&#45;&gt;Node25 -->
<g id="edge35" class="edge">
<title>Node21&#45;&gt;Node25</title>
<path fill="none" stroke="midnightblue" d="M1097.67,-235.44C1077.68,-226.6 1046.26,-212.69 1023.44,-202.59"/>
<polygon fill="midnightblue" stroke="midnightblue" points="1024.8,-199.36 1014.24,-198.52 1021.97,-205.76 1024.8,-199.36"/>
</g>
<!-- Node22&#45;&gt;Node12 -->
<g id="edge32" class="edge">
<title>Node22&#45;&gt;Node12</title>
<path fill="none" stroke="midnightblue" d="M1328.64,-181.03C1381.17,-169.98 1477.21,-149.08 1482,-143 1490.53,-132.18 1489.72,-123.41 1482,-112 1464.7,-86.4 1430.18,-75.36 1404.01,-70.61"/>
<polygon fill="midnightblue" stroke="midnightblue" points="1404.52,-67.14 1394.09,-69.02 1403.42,-74.05 1404.52,-67.14"/>
</g>
<!-- Node23 -->
<g id="node23" class="node">
<title>Node23</title>
<g id="a_node23"><a xlink:title=" ">
<polygon fill="none" stroke="#bfbfbf" points="1379.5,-118 1379.5,-137 1472.5,-137 1472.5,-118 1379.5,-118"/>
<text text-anchor="middle" x="1426" y="-125" font-family="Helvetica,sans-Serif" font-size="10.00">unordered_map</text>
</a>
</g>
</g>
<!-- Node22&#45;&gt;Node23 -->
<g id="edge33" class="edge">
<title>Node22&#45;&gt;Node23</title>
<path fill="none" stroke="midnightblue" d="M1313.77,-179.48C1335.85,-169.45 1372.72,-152.7 1398.14,-141.15"/>
<polygon fill="midnightblue" stroke="midnightblue" points="1399.61,-144.33 1407.27,-137.01 1396.71,-137.96 1399.61,-144.33"/>
</g>
<!-- Node25&#45;&gt;Node3 -->
<g id="edge36" class="edge">
<title>Node25&#45;&gt;Node3</title>
<path fill="none" stroke="midnightblue" d="M1033.56,-184.95C1115.98,-178.32 1315.35,-161.68 1482,-143 1507.01,-140.2 1535.13,-136.48 1556.68,-133.51"/>
<polygon fill="midnightblue" stroke="midnightblue" points="1557.27,-136.96 1566.69,-132.12 1556.31,-130.03 1557.27,-136.96"/>
</g>
<!-- Node25&#45;&gt;Node9 -->
<g id="edge41" class="edge">
<title>Node25&#45;&gt;Node9</title>
<path fill="none" stroke="midnightblue" d="M956.36,-187.73C893.36,-186.21 765.38,-178.54 664,-143 622.5,-128.45 579.73,-99.39 555.93,-81.72"/>
<polygon fill="midnightblue" stroke="midnightblue" points="557.87,-78.8 547.79,-75.56 553.65,-84.38 557.87,-78.8"/>
</g>
<!-- Node25&#45;&gt;Node12 -->
<g id="edge38" class="edge">
<title>Node25&#45;&gt;Node12</title>
<path fill="none" stroke="midnightblue" d="M1033.64,-184.54C1076.93,-179.58 1148.43,-168.12 1205,-143 1226.53,-133.44 1227.2,-123.07 1248,-112 1276.38,-96.9 1310.93,-84.68 1336.01,-76.8"/>
<polygon fill="midnightblue" stroke="midnightblue" points="1337.26,-80.08 1345.79,-73.8 1335.21,-73.39 1337.26,-80.08"/>
</g>
<!-- Node25&#45;&gt;Node16 -->
<g id="edge40" class="edge">
<title>Node25&#45;&gt;Node16</title>
<path fill="none" stroke="midnightblue" d="M956.44,-187.87C825.29,-187.1 402.01,-181.6 356,-143 339.51,-129.17 336.15,-103.39 335.98,-85.73"/>
<polygon fill="midnightblue" stroke="midnightblue" points="339.48,-85.81 336.22,-75.73 332.48,-85.64 339.48,-85.81"/>
</g>
<!-- Node25&#45;&gt;Node17 -->
<g id="edge50" class="edge">
<title>Node25&#45;&gt;Node17</title>
<path fill="none" stroke="midnightblue" d="M956.31,-187.09C883.25,-184.63 728.66,-175.6 688,-143 670.56,-129.02 663.6,-103.28 660.83,-85.66"/>
<polygon fill="midnightblue" stroke="midnightblue" points="664.3,-85.17 659.56,-75.69 657.35,-86.06 664.3,-85.17"/>
</g>
<!-- Node25&#45;&gt;Node20 -->
<g id="edge51" class="edge">
<title>Node25&#45;&gt;Node20</title>
<path fill="none" stroke="midnightblue" d="M956.49,-184.1C854.73,-173.78 578.52,-145.78 461.52,-133.93"/>
<polygon fill="midnightblue" stroke="midnightblue" points="461.67,-130.42 451.37,-132.9 460.97,-137.39 461.67,-130.42"/>
</g>
<!-- Node25&#45;&gt;Node24 -->
<g id="edge49" class="edge">
<title>Node25&#45;&gt;Node24</title>
<path fill="none" stroke="midnightblue" d="M1033.74,-181.42C1082.62,-173.02 1169.2,-157.8 1243,-143 1244.26,-142.75 1245.54,-142.49 1246.82,-142.23"/>
<polygon fill="midnightblue" stroke="midnightblue" points="1247.72,-145.62 1256.8,-140.15 1246.3,-138.76 1247.72,-145.62"/>
</g>
<!-- Node26 -->
<g id="node26" class="node">
<title>Node26</title>
<g id="a_node26"><a xlink:title=" ">
<polygon fill="none" stroke="#bfbfbf" points="697,-118 697,-137 757,-137 757,-118 697,-118"/>
<text text-anchor="middle" x="727" y="-125" font-family="Helvetica,sans-Serif" font-size="10.00">iostream</text>
</a>
</g>
</g>
<!-- Node25&#45;&gt;Node26 -->
<g id="edge37" class="edge">
<title>Node25&#45;&gt;Node26</title>
<path fill="none" stroke="midnightblue" d="M956.47,-182.38C910.59,-175.25 831.9,-161.59 766,-143 763.35,-142.25 760.63,-141.41 757.92,-140.51"/>
<polygon fill="midnightblue" stroke="midnightblue" points="758.84,-137.13 748.25,-137.11 756.52,-143.73 758.84,-137.13"/>
</g>
<!-- Node27 -->
<g id="node27" class="node">
<title>Node27</title>
<g id="a_node27"><a xlink:title=" ">
<polygon fill="none" stroke="#bfbfbf" points="1025.5,-56.5 1025.5,-75.5 1072.5,-75.5 1072.5,-56.5 1025.5,-56.5"/>
<text text-anchor="middle" x="1049" y="-63.5" font-family="Helvetica,sans-Serif" font-size="10.00">queue</text>
</a>
</g>
</g>
<!-- Node25&#45;&gt;Node27 -->
<g id="edge39" class="edge">
<title>Node25&#45;&gt;Node27</title>
<path fill="none" stroke="midnightblue" d="M1003.16,-179.38C1010.87,-170.8 1022.24,-156.92 1029,-143 1037.92,-124.63 1043.25,-101.76 1046.13,-85.94"/>
<polygon fill="midnightblue" stroke="midnightblue" points="1049.63,-86.26 1047.82,-75.82 1042.72,-85.11 1049.63,-86.26"/>
</g>
<!-- Node28 -->
<g id="node28" class="node">
<title>Node28</title>
<g id="a_node28"><a xlink:title=" ">
<polygon fill="none" stroke="#bfbfbf" points="775,-118 775,-137 923,-137 923,-118 775,-118"/>
<text text-anchor="middle" x="849" y="-125" font-family="Helvetica,sans-Serif" font-size="10.00">BoosterSeat/exception.hpp</text>
</a>
</g>
</g>
<!-- Node25&#45;&gt;Node28 -->
<g id="edge42" class="edge">
<title>Node25&#45;&gt;Node28</title>
<path fill="none" stroke="midnightblue" d="M974.08,-179.48C949.25,-169.36 907.66,-152.4 879.31,-140.85"/>
<polygon fill="midnightblue" stroke="midnightblue" points="880.46,-137.54 869.88,-137.01 877.82,-144.02 880.46,-137.54"/>
</g>
<!-- Node29 -->
<g id="node29" class="node">
<title>Node29</title>
<g id="a_node29"><a xlink:href="command_8hpp.html" target="_top" xlink:title="The command/queue system for the flight system.">
<polygon fill="none" stroke="black" points="1077,-118 1077,-137 1163,-137 1163,-118 1077,-118"/>
<text text-anchor="middle" x="1120" y="-125" font-family="Helvetica,sans-Serif" font-size="10.00">command.hpp</text>
</a>
</g>
</g>
<!-- Node25&#45;&gt;Node29 -->
<g id="edge43" class="edge">
<title>Node25&#45;&gt;Node29</title>
<path fill="none" stroke="midnightblue" d="M1012.91,-179.48C1033.89,-169.49 1068.85,-152.85 1093.09,-141.31"/>
<polygon fill="midnightblue" stroke="midnightblue" points="1094.6,-144.47 1102.12,-137.01 1091.59,-138.15 1094.6,-144.47"/>
</g>
<!-- Node31 -->
<g id="node31" class="node">
<title>Node31</title>
<g id="a_node31"><a xlink:href="data__ids_8hpp.html" target="_top" xlink:title=" ">
<polygon fill="none" stroke="black" points="941.5,-118 941.5,-137 1020.5,-137 1020.5,-118 941.5,-118"/>
<text text-anchor="middle" x="981" y="-125" font-family="Helvetica,sans-Serif" font-size="10.00">data_ids.hpp</text>
</a>
</g>
</g>
<!-- Node25&#45;&gt;Node31 -->
<g id="edge48" class="edge">
<title>Node25&#45;&gt;Node31</title>
<path fill="none" stroke="midnightblue" d="M992.99,-179.48C991,-170.99 987.87,-157.7 985.31,-146.82"/>
<polygon fill="midnightblue" stroke="midnightblue" points="988.7,-145.94 983,-137.01 981.89,-147.54 988.7,-145.94"/>
</g>
<!-- Node29&#45;&gt;Node12 -->
<g id="edge44" class="edge">
<title>Node29&#45;&gt;Node12</title>
<path fill="none" stroke="midnightblue" d="M1153.13,-117.95C1160.95,-115.97 1169.26,-113.89 1177,-112 1232.46,-98.48 1297.09,-83.59 1335.72,-74.78"/>
<polygon fill="midnightblue" stroke="midnightblue" points="1336.92,-78.09 1345.89,-72.46 1335.36,-71.27 1336.92,-78.09"/>
</g>
<!-- Node29&#45;&gt;Node17 -->
<g id="edge47" class="edge">
<title>Node29&#45;&gt;Node17</title>
<path fill="none" stroke="midnightblue" d="M1077,-119.31C1061.85,-116.87 1044.68,-114.2 1029,-112 909.84,-95.27 768.57,-79.1 700.18,-71.5"/>
<polygon fill="midnightblue" stroke="midnightblue" points="700.56,-68.03 690.24,-70.4 699.79,-74.98 700.56,-68.03"/>
</g>
<!-- Node29&#45;&gt;Node27 -->
<g id="edge45" class="edge">
<title>Node29&#45;&gt;Node27</title>
<path fill="none" stroke="midnightblue" d="M1109.83,-117.98C1098.65,-108.61 1080.48,-93.38 1066.91,-82.01"/>
<polygon fill="midnightblue" stroke="midnightblue" points="1069.07,-79.25 1059.15,-75.51 1064.57,-84.61 1069.07,-79.25"/>
</g>
<!-- Node30 -->
<g id="node30" class="node">
<title>Node30</title>
<g id="a_node30"><a xlink:href="command__ids_8hpp.html" target="_top" xlink:title=" ">
<polygon fill="none" stroke="black" points="1091,-56.5 1091,-75.5 1197,-75.5 1197,-56.5 1091,-56.5"/>
<text text-anchor="middle" x="1144" y="-63.5" font-family="Helvetica,sans-Serif" font-size="10.00">command_ids.hpp</text>
</a>
</g>
</g>
<!-- Node29&#45;&gt;Node30 -->
<g id="edge46" class="edge">
<title>Node29&#45;&gt;Node30</title>
<path fill="none" stroke="midnightblue" d="M1123.44,-117.98C1126.9,-109.4 1132.33,-95.93 1136.75,-84.98"/>
<polygon fill="midnightblue" stroke="midnightblue" points="1140.07,-86.09 1140.57,-75.51 1133.58,-83.47 1140.07,-86.09"/>
</g>
<!-- Node32&#45;&gt;Node12 -->
<g id="edge55" class="edge">
<title>Node32&#45;&gt;Node12</title>
<path fill="none" stroke="midnightblue" d="M1392.53,-235.41C1437.11,-215.51 1535.92,-163.98 1499,-112 1496.11,-107.93 1441.34,-89.79 1404.1,-77.82"/>
<polygon fill="midnightblue" stroke="midnightblue" points="1404.71,-74.34 1394.12,-74.62 1402.58,-81 1404.71,-74.34"/>
</g>
<!-- Node33 -->
<g id="node33" class="node">
<title>Node33</title>
<g id="a_node33"><a xlink:title=" ">
<polygon fill="none" stroke="#bfbfbf" points="1348.5,-179.5 1348.5,-198.5 1395.5,-198.5 1395.5,-179.5 1348.5,-179.5"/>
<text text-anchor="middle" x="1372" y="-186.5" font-family="Helvetica,sans-Serif" font-size="10.00">deque</text>
</a>
</g>
</g>
<!-- Node32&#45;&gt;Node33 -->
<g id="edge54" class="edge">
<title>Node32&#45;&gt;Node33</title>
<path fill="none" stroke="midnightblue" d="M1372,-235.08C1372,-228.01 1372,-217.86 1372,-208.99"/>
<polygon fill="midnightblue" stroke="midnightblue" points="1375.5,-208.75 1372,-198.75 1368.5,-208.75 1375.5,-208.75"/>
</g>
<!-- Node34&#45;&gt;Node3 -->
<g id="edge57" class="edge">
<title>Node34&#45;&gt;Node3</title>
<path fill="none" stroke="midnightblue" d="M1529.73,-235.48C1535.71,-226.51 1545.27,-211.92 1553,-199 1563.51,-181.42 1574.76,-160.88 1582.46,-146.52"/>
<polygon fill="midnightblue" stroke="midnightblue" points="1585.77,-147.76 1587.38,-137.29 1579.59,-144.47 1585.77,-147.76"/>
</g>
<!-- Node35&#45;&gt;Node12 -->
<g id="edge64" class="edge">
<title>Node35&#45;&gt;Node12</title>
<path fill="none" stroke="midnightblue" d="M1644.18,-117.96C1638.36,-115.8 1632,-113.63 1626,-112 1548.1,-90.86 1454.08,-77.29 1404.49,-71.04"/>
<polygon fill="midnightblue" stroke="midnightblue" points="1404.68,-67.53 1394.32,-69.78 1403.82,-74.48 1404.68,-67.53"/>
</g>
<!-- Node35&#45;&gt;Node18 -->
<g id="edge63" class="edge">
<title>Node35&#45;&gt;Node18</title>
<path fill="none" stroke="midnightblue" d="M1643.28,-117.94C1637.69,-115.87 1631.66,-113.76 1626,-112 1528.41,-81.7 1503.99,-71.6 1403,-56 1132.85,-14.28 801.94,-10.77 694.5,-10.82"/>
<polygon fill="midnightblue" stroke="midnightblue" points="694.22,-7.32 684.23,-10.84 694.23,-14.32 694.22,-7.32"/>
</g>
<!-- Node36 -->
<g id="node36" class="node">
<title>Node36</title>
<g id="a_node36"><a xlink:title=" ">
<polygon fill="none" stroke="#bfbfbf" points="1644,-56.5 1644,-75.5 1686,-75.5 1686,-56.5 1644,-56.5"/>
<text text-anchor="middle" x="1665" y="-63.5" font-family="Helvetica,sans-Serif" font-size="10.00">array</text>
</a>
</g>
</g>
<!-- Node35&#45;&gt;Node36 -->
<g id="edge62" class="edge">
<title>Node35&#45;&gt;Node36</title>
<path fill="none" stroke="midnightblue" d="M1665,-117.98C1665,-109.58 1665,-96.48 1665,-85.66"/>
<polygon fill="midnightblue" stroke="midnightblue" points="1668.5,-85.51 1665,-75.51 1661.5,-85.51 1668.5,-85.51"/>
</g>
</g>
</svg>
