<?xml version="1.0" encoding="UTF-8" standalone="no"?>
<!DOCTYPE svg PUBLIC "-//W3C//DTD SVG 1.1//EN"
 "http://www.w3.org/Graphics/SVG/1.1/DTD/svg11.dtd">
<!-- Generated by graphviz version 2.43.0 (0)
 -->
<!-- Title: rgb_status_led.hpp Pages: 1 -->
<svg width="1748pt" height="543pt"
 viewBox="0.00 0.00 1748.00 543.00" xmlns="http://www.w3.org/2000/svg" xmlns:xlink="http://www.w3.org/1999/xlink">
<g id="graph0" class="graph" transform="scale(1 1) rotate(0) translate(4 539)">
<title>rgb_status_led.hpp</title>
<!-- Node1 -->
<g id="node1" class="node">
<title>Node1</title>
<g id="a_node1"><a xlink:title=" ">
<polygon fill="#bfbfbf" stroke="black" points="1619,-515.5 1619,-534.5 1728,-534.5 1728,-515.5 1619,-515.5"/>
<text text-anchor="middle" x="1673.5" y="-522.5" font-family="Helvetica,sans-Serif" font-size="10.00">rgb_status_led.hpp</text>
</a>
</g>
</g>
<!-- Node2 -->
<g id="node2" class="node">
<title>Node2</title>
<g id="a_node2"><a xlink:href="extension__base_8hpp.html" target="_top" xlink:title="The new implementation of the extension system.">
<polygon fill="none" stroke="black" points="1489.5,-459.5 1489.5,-478.5 1603.5,-478.5 1603.5,-459.5 1489.5,-459.5"/>
<text text-anchor="middle" x="1546.5" y="-466.5" font-family="Helvetica,sans-Serif" font-size="10.00">extension_base.hpp</text>
</a>
</g>
</g>
<!-- Node1&#45;&gt;Node2 -->
<g id="edge1" class="edge">
<title>Node1&#45;&gt;Node2</title>
<path fill="none" stroke="midnightblue" d="M1653.38,-515.44C1632.48,-506.56 1599.57,-492.56 1575.78,-482.45"/>
<polygon fill="midnightblue" stroke="midnightblue" points="1577.1,-479.21 1566.53,-478.52 1574.36,-485.65 1577.1,-479.21"/>
</g>
<!-- Node35 -->
<g id="node35" class="node">
<title>Node35</title>
<g id="a_node35"><a xlink:href="status__led_8hpp.html" target="_top" xlink:title="RGB Status LED extension header file.">
<polygon fill="none" stroke="black" points="1521.5,-235.5 1521.5,-254.5 1609.5,-254.5 1609.5,-235.5 1521.5,-235.5"/>
<text text-anchor="middle" x="1565.5" y="-242.5" font-family="Helvetica,sans-Serif" font-size="10.00">status_led.hpp</text>
</a>
</g>
</g>
<!-- Node1&#45;&gt;Node35 -->
<g id="edge67" class="edge">
<title>Node1&#45;&gt;Node35</title>
<path fill="none" stroke="midnightblue" d="M1673.5,-515.44C1673.5,-496.94 1673.5,-451.81 1673.5,-414 1673.5,-414 1673.5,-414 1673.5,-356 1673.5,-310.21 1625.25,-276.49 1593.25,-259.16"/>
<polygon fill="midnightblue" stroke="midnightblue" points="1594.8,-256.02 1584.31,-254.51 1591.57,-262.23 1594.8,-256.02"/>
</g>
<!-- Node36 -->
<g id="node36" class="node">
<title>Node36</title>
<g id="a_node36"><a xlink:href="gpio_8hpp.html" target="_top" xlink:title="GPIO interface header file.">
<polygon fill="none" stroke="black" points="1681,-118 1681,-137 1740,-137 1740,-118 1681,-118"/>
<text text-anchor="middle" x="1710.5" y="-125" font-family="Helvetica,sans-Serif" font-size="10.00">gpio.hpp</text>
</a>
</g>
</g>
<!-- Node1&#45;&gt;Node36 -->
<g id="edge63" class="edge">
<title>Node1&#45;&gt;Node36</title>
<path fill="none" stroke="midnightblue" d="M1678.78,-515.23C1689.23,-497.04 1711.5,-453.6 1711.5,-414 1711.5,-414 1711.5,-414 1711.5,-244 1711.5,-209.86 1711.06,-170.05 1710.76,-147.21"/>
<polygon fill="midnightblue" stroke="midnightblue" points="1714.26,-147.15 1710.63,-137.19 1707.26,-147.24 1714.26,-147.15"/>
</g>
<!-- Node3 -->
<g id="node3" class="node">
<title>Node3</title>
<g id="a_node3"><a xlink:title=" ">
<polygon fill="none" stroke="#bfbfbf" points="1612.5,-118 1612.5,-137 1662.5,-137 1662.5,-118 1612.5,-118"/>
<text text-anchor="middle" x="1637.5" y="-125" font-family="Helvetica,sans-Serif" font-size="10.00">atomic</text>
</a>
</g>
</g>
<!-- Node2&#45;&gt;Node3 -->
<g id="edge2" class="edge">
<title>Node2&#45;&gt;Node3</title>
<path fill="none" stroke="midnightblue" d="M1550.13,-459.44C1553.9,-450.44 1559.88,-435.82 1564.5,-423 1591.08,-349.21 1600.62,-331.36 1618.5,-255 1627.33,-217.29 1632.95,-172.26 1635.63,-147.38"/>
<polygon fill="midnightblue" stroke="midnightblue" points="1639.14,-147.49 1636.69,-137.18 1632.17,-146.77 1639.14,-147.49"/>
</g>
<!-- Node4 -->
<g id="node4" class="node">
<title>Node4</title>
<g id="a_node4"><a xlink:title=" ">
<polygon fill="none" stroke="#bfbfbf" points="1451.5,-403.5 1451.5,-422.5 1499.5,-422.5 1499.5,-403.5 1451.5,-403.5"/>
<text text-anchor="middle" x="1475.5" y="-410.5" font-family="Helvetica,sans-Serif" font-size="10.00">thread</text>
</a>
</g>
</g>
<!-- Node2&#45;&gt;Node4 -->
<g id="edge3" class="edge">
<title>Node2&#45;&gt;Node4</title>
<path fill="none" stroke="midnightblue" d="M1535.09,-459.32C1524.39,-451.18 1508.16,-438.84 1495.34,-429.09"/>
<polygon fill="midnightblue" stroke="midnightblue" points="1497.19,-426.1 1487.11,-422.83 1492.96,-431.67 1497.19,-426.1"/>
</g>
<!-- Node5 -->
<g id="node5" class="node">
<title>Node5</title>
<g id="a_node5"><a xlink:href="cfg__extensions_8hpp.html" target="_top" xlink:title="The header file for the extensions section of the configuration.">
<polygon fill="none" stroke="black" points="1053,-403.5 1053,-422.5 1208,-422.5 1208,-403.5 1053,-403.5"/>
<text text-anchor="middle" x="1130.5" y="-410.5" font-family="Helvetica,sans-Serif" font-size="10.00">sections/cfg_extensions.hpp</text>
</a>
</g>
</g>
<!-- Node2&#45;&gt;Node5 -->
<g id="edge4" class="edge">
<title>Node2&#45;&gt;Node5</title>
<path fill="none" stroke="midnightblue" d="M1489.09,-460.55C1415.56,-451 1287.92,-434.43 1206.42,-423.85"/>
<polygon fill="midnightblue" stroke="midnightblue" points="1206.59,-420.35 1196.22,-422.53 1205.69,-427.29 1206.59,-420.35"/>
</g>
<!-- Node8 -->
<g id="node8" class="node">
<title>Node8</title>
<g id="a_node8"><a xlink:href="shared__data_8hpp.html" target="_top" xlink:title="Contains the SharedData struct, used across all modules and extensions.">
<polygon fill="none" stroke="black" points="926.5,-291.5 926.5,-310.5 1024.5,-310.5 1024.5,-291.5 926.5,-291.5"/>
<text text-anchor="middle" x="975.5" y="-298.5" font-family="Helvetica,sans-Serif" font-size="10.00">shared_data.hpp</text>
</a>
</g>
</g>
<!-- Node2&#45;&gt;Node8 -->
<g id="edge61" class="edge">
<title>Node2&#45;&gt;Node8</title>
<path fill="none" stroke="midnightblue" d="M1543.99,-459.22C1539.42,-444.98 1528.37,-417.02 1508.5,-403 1432.61,-349.44 1157.23,-318.46 1034.84,-307.05"/>
<polygon fill="midnightblue" stroke="midnightblue" points="1034.81,-303.54 1024.53,-306.11 1034.17,-310.51 1034.81,-303.54"/>
</g>
<!-- Node2&#45;&gt;Node35 -->
<g id="edge62" class="edge">
<title>Node2&#45;&gt;Node35</title>
<path fill="none" stroke="midnightblue" d="M1547.24,-459.3C1550.04,-426.63 1559.95,-310.87 1563.88,-264.96"/>
<polygon fill="midnightblue" stroke="midnightblue" points="1567.37,-265.15 1564.74,-254.88 1560.4,-264.55 1567.37,-265.15"/>
</g>
<!-- Node6 -->
<g id="node6" class="node">
<title>Node6</title>
<g id="a_node6"><a xlink:href="configuration__enums_8hpp.html" target="_top" xlink:title=" ">
<polygon fill="none" stroke="black" points="903.5,-347.5 903.5,-366.5 1043.5,-366.5 1043.5,-347.5 903.5,-347.5"/>
<text text-anchor="middle" x="973.5" y="-354.5" font-family="Helvetica,sans-Serif" font-size="10.00">configuration_enums.hpp</text>
</a>
</g>
</g>
<!-- Node5&#45;&gt;Node6 -->
<g id="edge5" class="edge">
<title>Node5&#45;&gt;Node6</title>
<path fill="none" stroke="midnightblue" d="M1105.62,-403.44C1079.21,-394.36 1037.28,-379.94 1007.76,-369.78"/>
<polygon fill="midnightblue" stroke="midnightblue" points="1008.86,-366.46 998.26,-366.52 1006.58,-373.08 1008.86,-366.46"/>
</g>
<!-- Node7 -->
<g id="node7" class="node">
<title>Node7</title>
<g id="a_node7"><a xlink:href="cfg__section_8hpp.html" target="_top" xlink:title="This file contains the base class for all configuration sections.">
<polygon fill="none" stroke="black" points="1062,-347.5 1062,-366.5 1199,-366.5 1199,-347.5 1062,-347.5"/>
<text text-anchor="middle" x="1130.5" y="-354.5" font-family="Helvetica,sans-Serif" font-size="10.00">sections/cfg_section.hpp</text>
</a>
</g>
</g>
<!-- Node5&#45;&gt;Node7 -->
<g id="edge6" class="edge">
<title>Node5&#45;&gt;Node7</title>
<path fill="none" stroke="midnightblue" d="M1130.5,-403.08C1130.5,-396.01 1130.5,-385.86 1130.5,-376.99"/>
<polygon fill="midnightblue" stroke="midnightblue" points="1134,-376.75 1130.5,-366.75 1127,-376.75 1134,-376.75"/>
</g>
<!-- Node7&#45;&gt;Node8 -->
<g id="edge7" class="edge">
<title>Node7&#45;&gt;Node8</title>
<path fill="none" stroke="midnightblue" d="M1105.94,-347.44C1079.98,-338.4 1038.83,-324.06 1009.7,-313.92"/>
<polygon fill="midnightblue" stroke="midnightblue" points="1010.54,-310.5 999.95,-310.52 1008.24,-317.11 1010.54,-310.5"/>
</g>
<!-- Node9 -->
<g id="node9" class="node">
<title>Node9</title>
<g id="a_node9"><a xlink:title=" ">
<polygon fill="none" stroke="#bfbfbf" points="320,-56.5 320,-75.5 445,-75.5 445,-56.5 320,-56.5"/>
<text text-anchor="middle" x="382.5" y="-63.5" font-family="Helvetica,sans-Serif" font-size="10.00">BoosterSeat/clock.hpp</text>
</a>
</g>
</g>
<!-- Node8&#45;&gt;Node9 -->
<g id="edge8" class="edge">
<title>Node8&#45;&gt;Node9</title>
<path fill="none" stroke="midnightblue" d="M926.49,-298.98C767.07,-294.42 269.08,-270.07 191.5,-143 184.32,-131.24 182.95,-122.8 191.5,-112 206.31,-93.3 262.07,-81.59 309.55,-74.82"/>
<polygon fill="midnightblue" stroke="midnightblue" points="310.1,-78.28 319.54,-73.45 309.15,-71.34 310.1,-78.28"/>
</g>
<!-- Node10 -->
<g id="node10" class="node">
<title>Node10</title>
<g id="a_node10"><a xlink:title=" ">
<polygon fill="none" stroke="#bfbfbf" points="557.5,-56.5 557.5,-75.5 679.5,-75.5 679.5,-56.5 557.5,-56.5"/>
<text text-anchor="middle" x="618.5" y="-63.5" font-family="Helvetica,sans-Serif" font-size="10.00">BoosterSeat/time.hpp</text>
</a>
</g>
</g>
<!-- Node8&#45;&gt;Node10 -->
<g id="edge9" class="edge">
<title>Node8&#45;&gt;Node10</title>
<path fill="none" stroke="midnightblue" d="M940.17,-291.48C875.59,-274.2 737.79,-229.14 657.5,-143 641.91,-126.27 630.95,-102.12 624.7,-85.55"/>
<polygon fill="midnightblue" stroke="midnightblue" points="627.92,-84.17 621.27,-75.92 621.32,-86.52 627.92,-84.17"/>
</g>
<!-- Node11 -->
<g id="node11" class="node">
<title>Node11</title>
<g id="a_node11"><a xlink:href="blocks_8hpp.html" target="_top" xlink:title=" ">
<polygon fill="none" stroke="black" points="484,-179.5 484,-198.5 553,-198.5 553,-179.5 484,-179.5"/>
<text text-anchor="middle" x="518.5" y="-186.5" font-family="Helvetica,sans-Serif" font-size="10.00">blocks.hpp</text>
</a>
</g>
</g>
<!-- Node8&#45;&gt;Node11 -->
<g id="edge10" class="edge">
<title>Node8&#45;&gt;Node11</title>
<path fill="none" stroke="midnightblue" d="M926.33,-300.14C857.05,-298.9 727.64,-291.34 624.5,-255 591.33,-243.31 557.46,-220.18 537.2,-204.9"/>
<polygon fill="midnightblue" stroke="midnightblue" points="539.21,-202.03 529.15,-198.7 534.94,-207.57 539.21,-202.03"/>
</g>
<!-- Node21 -->
<g id="node21" class="node">
<title>Node21</title>
<g id="a_node21"><a xlink:href="error__frame_8hpp.html" target="_top" xlink:title="The error frame.">
<polygon fill="none" stroke="black" points="852,-235.5 852,-254.5 947,-254.5 947,-235.5 852,-235.5"/>
<text text-anchor="middle" x="899.5" y="-242.5" font-family="Helvetica,sans-Serif" font-size="10.00">error_frame.hpp</text>
</a>
</g>
</g>
<!-- Node8&#45;&gt;Node21 -->
<g id="edge29" class="edge">
<title>Node8&#45;&gt;Node21</title>
<path fill="none" stroke="midnightblue" d="M963.29,-291.32C951.72,-283.11 934.12,-270.6 920.34,-260.81"/>
<polygon fill="midnightblue" stroke="midnightblue" points="922.11,-257.77 911.93,-254.83 918.06,-263.48 922.11,-257.77"/>
</g>
<!-- Node22 -->
<g id="node22" class="node">
<title>Node22</title>
<g id="a_node22"><a xlink:href="frame_8hpp.html" target="_top" xlink:title=" ">
<polygon fill="none" stroke="black" points="1234,-179.5 1234,-198.5 1301,-198.5 1301,-179.5 1234,-179.5"/>
<text text-anchor="middle" x="1267.5" y="-186.5" font-family="Helvetica,sans-Serif" font-size="10.00">frame.hpp</text>
</a>
</g>
</g>
<!-- Node8&#45;&gt;Node22 -->
<g id="edge54" class="edge">
<title>Node8&#45;&gt;Node22</title>
<path fill="none" stroke="midnightblue" d="M998.41,-291.37C1050.01,-271.93 1175.46,-224.67 1235.04,-202.23"/>
<polygon fill="midnightblue" stroke="midnightblue" points="1236.57,-205.39 1244.69,-198.59 1234.1,-198.84 1236.57,-205.39"/>
</g>
<!-- Node25 -->
<g id="node25" class="node">
<title>Node25</title>
<g id="a_node25"><a xlink:href="streams_8hpp.html" target="_top" xlink:title="The header file for the data streams.">
<polygon fill="none" stroke="black" points="900,-179.5 900,-198.5 977,-198.5 977,-179.5 900,-179.5"/>
<text text-anchor="middle" x="938.5" y="-186.5" font-family="Helvetica,sans-Serif" font-size="10.00">streams.hpp</text>
</a>
</g>
</g>
<!-- Node8&#45;&gt;Node25 -->
<g id="edge60" class="edge">
<title>Node8&#45;&gt;Node25</title>
<path fill="none" stroke="midnightblue" d="M972.96,-291.11C969.32,-278.54 962.31,-254.88 955.5,-235 952.45,-226.1 948.8,-216.32 945.66,-208.16"/>
<polygon fill="midnightblue" stroke="midnightblue" points="948.81,-206.62 941.92,-198.57 942.29,-209.16 948.81,-206.62"/>
</g>
<!-- Node32 -->
<g id="node32" class="node">
<title>Node32</title>
<g id="a_node32"><a xlink:href="flight__phase_8hpp.html" target="_top" xlink:title="Contains the flight phase enum and related functions.">
<polygon fill="none" stroke="black" points="0,-235.5 0,-254.5 97,-254.5 97,-235.5 0,-235.5"/>
<text text-anchor="middle" x="48.5" y="-242.5" font-family="Helvetica,sans-Serif" font-size="10.00">flight_phase.hpp</text>
</a>
</g>
</g>
<!-- Node8&#45;&gt;Node32 -->
<g id="edge52" class="edge">
<title>Node8&#45;&gt;Node32</title>
<path fill="none" stroke="midnightblue" d="M926.38,-298.35C796.36,-293.77 432.5,-279.6 130.5,-255 122.96,-254.39 115.03,-253.64 107.21,-252.85"/>
<polygon fill="midnightblue" stroke="midnightblue" points="107.33,-249.34 97.02,-251.78 106.6,-256.3 107.33,-249.34"/>
</g>
<!-- Node33 -->
<g id="node33" class="node">
<title>Node33</title>
<g id="a_node33"><a xlink:href="log__container_8hpp.html" target="_top" xlink:title="A simple logging system for debugging.">
<polygon fill="none" stroke="black" points="1293,-235.5 1293,-254.5 1396,-254.5 1396,-235.5 1293,-235.5"/>
<text text-anchor="middle" x="1344.5" y="-242.5" font-family="Helvetica,sans-Serif" font-size="10.00">log_container.hpp</text>
</a>
</g>
</g>
<!-- Node8&#45;&gt;Node33 -->
<g id="edge55" class="edge">
<title>Node8&#45;&gt;Node33</title>
<path fill="none" stroke="midnightblue" d="M1024.5,-292.83C1091.16,-283.07 1210.4,-265.62 1283,-255"/>
<polygon fill="midnightblue" stroke="midnightblue" points="1283.53,-258.46 1292.92,-253.55 1282.52,-251.53 1283.53,-258.46"/>
</g>
<!-- Node8&#45;&gt;Node35 -->
<g id="edge58" class="edge">
<title>Node8&#45;&gt;Node35</title>
<path fill="none" stroke="midnightblue" d="M1024.54,-295.51C1133.81,-285.51 1396.65,-261.45 1510.92,-251"/>
<polygon fill="midnightblue" stroke="midnightblue" points="1511.54,-254.45 1521.18,-250.06 1510.9,-247.48 1511.54,-254.45"/>
</g>
<!-- Node11&#45;&gt;Node9 -->
<g id="edge12" class="edge">
<title>Node11&#45;&gt;Node9</title>
<path fill="none" stroke="midnightblue" d="M498.56,-179.45C481.65,-171.59 457.38,-158.76 439.5,-143 420.06,-125.86 403,-101.12 392.73,-84.57"/>
<polygon fill="midnightblue" stroke="midnightblue" points="395.66,-82.66 387.51,-75.9 389.67,-86.27 395.66,-82.66"/>
</g>
<!-- Node11&#45;&gt;Node10 -->
<g id="edge14" class="edge">
<title>Node11&#45;&gt;Node10</title>
<path fill="none" stroke="midnightblue" d="M525.69,-179.3C542.27,-159.24 583.38,-109.49 604.89,-83.46"/>
<polygon fill="midnightblue" stroke="midnightblue" points="607.7,-85.56 611.37,-75.62 602.31,-81.1 607.7,-85.56"/>
</g>
<!-- Node11&#45;&gt;Node11 -->
<g id="edge15" class="edge">
<title>Node11&#45;&gt;Node11</title>
<path fill="none" stroke="midnightblue" d="M540.89,-198.53C556.11,-201.31 571,-198.13 571,-189 571,-181.94 562.09,-178.44 551.01,-178.5"/>
<polygon fill="midnightblue" stroke="midnightblue" points="550.51,-175.03 540.89,-179.47 551.18,-182 550.51,-175.03"/>
</g>
<!-- Node12 -->
<g id="node12" class="node">
<title>Node12</title>
<g id="a_node12"><a xlink:title=" ">
<polygon fill="none" stroke="#bfbfbf" points="1391.5,-56.5 1391.5,-75.5 1439.5,-75.5 1439.5,-56.5 1391.5,-56.5"/>
<text text-anchor="middle" x="1415.5" y="-63.5" font-family="Helvetica,sans-Serif" font-size="10.00">mutex</text>
</a>
</g>
</g>
<!-- Node11&#45;&gt;Node12 -->
<g id="edge11" class="edge">
<title>Node11&#45;&gt;Node12</title>
<path fill="none" stroke="midnightblue" d="M553.08,-187.99C661.9,-187.53 996.05,-182.84 1095.5,-143 1115.73,-134.89 1113.61,-120.91 1133.5,-112 1216.85,-74.65 1326.27,-67.75 1381.08,-66.82"/>
<polygon fill="midnightblue" stroke="midnightblue" points="1381.33,-70.32 1391.29,-66.71 1381.25,-63.32 1381.33,-70.32"/>
</g>
<!-- Node13 -->
<g id="node13" class="node">
<title>Node13</title>
<g id="a_node13"><a xlink:title=" ">
<polygon fill="none" stroke="#bfbfbf" points="211,-118 211,-137 354,-137 354,-118 211,-118"/>
<text text-anchor="middle" x="282.5" y="-125" font-family="Helvetica,sans-Serif" font-size="10.00">BoosterSeat/numbers.hpp</text>
</a>
</g>
</g>
<!-- Node11&#45;&gt;Node13 -->
<g id="edge13" class="edge">
<title>Node11&#45;&gt;Node13</title>
<path fill="none" stroke="midnightblue" d="M484.69,-179.48C442.98,-168.96 371.99,-151.06 326.19,-139.51"/>
<polygon fill="midnightblue" stroke="midnightblue" points="326.8,-136.06 316.25,-137.01 325.09,-142.85 326.8,-136.06"/>
</g>
<!-- Node14 -->
<g id="node14" class="node">
<title>Node14</title>
<g id="a_node14"><a xlink:href="json_8hpp.html" target="_top" xlink:title="Simple wrapper around nlohmann/json.hpp to provide a common interface.">
<polygon fill="none" stroke="black" points="58.5,-118 58.5,-137 116.5,-137 116.5,-118 58.5,-118"/>
<text text-anchor="middle" x="87.5" y="-125" font-family="Helvetica,sans-Serif" font-size="10.00">json.hpp</text>
</a>
</g>
</g>
<!-- Node11&#45;&gt;Node14 -->
<g id="edge16" class="edge">
<title>Node11&#45;&gt;Node14</title>
<path fill="none" stroke="midnightblue" d="M483.96,-183.23C404.75,-172.3 210.42,-145.47 126.81,-133.93"/>
<polygon fill="midnightblue" stroke="midnightblue" points="127.09,-130.43 116.7,-132.53 126.13,-137.37 127.09,-130.43"/>
</g>
<!-- Node17 -->
<g id="node17" class="node">
<title>Node17</title>
<g id="a_node17"><a xlink:href="node_8hpp.html" target="_top" xlink:title="Contains structures that are used to identify components of the flight system.">
<polygon fill="none" stroke="black" points="751.5,-56.5 751.5,-75.5 813.5,-75.5 813.5,-56.5 751.5,-56.5"/>
<text text-anchor="middle" x="782.5" y="-63.5" font-family="Helvetica,sans-Serif" font-size="10.00">node.hpp</text>
</a>
</g>
</g>
<!-- Node11&#45;&gt;Node17 -->
<g id="edge19" class="edge">
<title>Node11&#45;&gt;Node17</title>
<path fill="none" stroke="midnightblue" d="M532.34,-179.49C556.93,-164.59 610.1,-133.34 657.5,-112 686.28,-99.05 720.01,-87.08 745.17,-78.75"/>
<polygon fill="midnightblue" stroke="midnightblue" points="746.29,-82.07 754.71,-75.63 744.11,-75.42 746.29,-82.07"/>
</g>
<!-- Node20 -->
<g id="node20" class="node">
<title>Node20</title>
<g id="a_node20"><a xlink:href="positional_8hpp.html" target="_top" xlink:title="Positional data for the flight system (gps/imu data)">
<polygon fill="none" stroke="black" points="448.5,-118 448.5,-137 534.5,-137 534.5,-118 448.5,-118"/>
<text text-anchor="middle" x="491.5" y="-125" font-family="Helvetica,sans-Serif" font-size="10.00">positional.hpp</text>
</a>
</g>
</g>
<!-- Node11&#45;&gt;Node20 -->
<g id="edge22" class="edge">
<title>Node11&#45;&gt;Node20</title>
<path fill="none" stroke="midnightblue" d="M514.63,-179.48C510.7,-170.82 504.5,-157.15 499.51,-146.15"/>
<polygon fill="midnightblue" stroke="midnightblue" points="502.68,-144.67 495.36,-137.01 496.31,-147.56 502.68,-144.67"/>
</g>
<!-- Node15 -->
<g id="node15" class="node">
<title>Node15</title>
<g id="a_node15"><a xlink:title=" ">
<polygon fill="none" stroke="#bfbfbf" points="175.5,-56.5 175.5,-75.5 285.5,-75.5 285.5,-56.5 175.5,-56.5"/>
<text text-anchor="middle" x="230.5" y="-63.5" font-family="Helvetica,sans-Serif" font-size="10.00">nlohmann/json.hpp</text>
</a>
</g>
</g>
<!-- Node14&#45;&gt;Node15 -->
<g id="edge17" class="edge">
<title>Node14&#45;&gt;Node15</title>
<path fill="none" stroke="midnightblue" d="M107.99,-117.98C132.31,-107.86 173.05,-90.9 200.82,-79.35"/>
<polygon fill="midnightblue" stroke="midnightblue" points="202.16,-82.58 210.05,-75.51 199.47,-76.12 202.16,-82.58"/>
</g>
<!-- Node16 -->
<g id="node16" class="node">
<title>Node16</title>
<g id="a_node16"><a xlink:title=" ">
<polygon fill="none" stroke="#bfbfbf" points="81.5,-56.5 81.5,-75.5 125.5,-75.5 125.5,-56.5 81.5,-56.5"/>
<text text-anchor="middle" x="103.5" y="-63.5" font-family="Helvetica,sans-Serif" font-size="10.00">string</text>
</a>
</g>
</g>
<!-- Node14&#45;&gt;Node16 -->
<g id="edge18" class="edge">
<title>Node14&#45;&gt;Node16</title>
<path fill="none" stroke="midnightblue" d="M89.79,-117.98C92.07,-109.49 95.65,-96.2 98.57,-85.32"/>
<polygon fill="midnightblue" stroke="midnightblue" points="101.99,-86.07 101.21,-75.51 95.24,-84.26 101.99,-86.07"/>
</g>
<!-- Node18 -->
<g id="node18" class="node">
<title>Node18</title>
<g id="a_node18"><a xlink:title=" ">
<polygon fill="none" stroke="#bfbfbf" points="757.5,-0.5 757.5,-19.5 807.5,-19.5 807.5,-0.5 757.5,-0.5"/>
<text text-anchor="middle" x="782.5" y="-7.5" font-family="Helvetica,sans-Serif" font-size="10.00">cstdint</text>
</a>
</g>
</g>
<!-- Node17&#45;&gt;Node18 -->
<g id="edge20" class="edge">
<title>Node17&#45;&gt;Node18</title>
<path fill="none" stroke="midnightblue" d="M782.5,-56.08C782.5,-49.01 782.5,-38.86 782.5,-29.99"/>
<polygon fill="midnightblue" stroke="midnightblue" points="786,-29.75 782.5,-19.75 779,-29.75 786,-29.75"/>
</g>
<!-- Node19 -->
<g id="node19" class="node">
<title>Node19</title>
<g id="a_node19"><a xlink:title=" ">
<polygon fill="none" stroke="#bfbfbf" points="587.5,-0.5 587.5,-19.5 625.5,-19.5 625.5,-0.5 587.5,-0.5"/>
<text text-anchor="middle" x="606.5" y="-7.5" font-family="Helvetica,sans-Serif" font-size="10.00">map</text>
</a>
</g>
</g>
<!-- Node17&#45;&gt;Node19 -->
<g id="edge21" class="edge">
<title>Node17&#45;&gt;Node19</title>
<path fill="none" stroke="midnightblue" d="M754.61,-56.44C722.08,-46.46 668.54,-30.03 635.52,-19.91"/>
<polygon fill="midnightblue" stroke="midnightblue" points="636.17,-16.44 625.58,-16.85 634.11,-23.13 636.17,-16.44"/>
</g>
<!-- Node20&#45;&gt;Node9 -->
<g id="edge27" class="edge">
<title>Node20&#45;&gt;Node9</title>
<path fill="none" stroke="midnightblue" d="M475.88,-117.98C457.91,-108.17 428.18,-91.93 407.09,-80.42"/>
<polygon fill="midnightblue" stroke="midnightblue" points="408.54,-77.23 398.09,-75.51 405.19,-83.37 408.54,-77.23"/>
</g>
<!-- Node20&#45;&gt;Node10 -->
<g id="edge28" class="edge">
<title>Node20&#45;&gt;Node10</title>
<path fill="none" stroke="midnightblue" d="M509.7,-117.98C531.01,-107.99 566.53,-91.35 591.16,-79.81"/>
<polygon fill="midnightblue" stroke="midnightblue" points="592.77,-82.92 600.34,-75.51 589.8,-76.58 592.77,-82.92"/>
</g>
<!-- Node20&#45;&gt;Node15 -->
<g id="edge26" class="edge">
<title>Node20&#45;&gt;Node15</title>
<path fill="none" stroke="midnightblue" d="M458.69,-117.96C450.78,-115.96 442.35,-113.86 434.5,-112 382.18,-99.58 322.03,-86.45 280.67,-77.6"/>
<polygon fill="midnightblue" stroke="midnightblue" points="281.35,-74.17 270.84,-75.5 279.89,-81.01 281.35,-74.17"/>
</g>
<!-- Node20&#45;&gt;Node16 -->
<g id="edge25" class="edge">
<title>Node20&#45;&gt;Node16</title>
<path fill="none" stroke="midnightblue" d="M460.58,-117.94C452.17,-115.8 443.02,-113.65 434.5,-112 316.51,-89.15 285.54,-92.5 166.5,-76 156.53,-74.62 145.69,-73.08 135.85,-71.67"/>
<polygon fill="midnightblue" stroke="midnightblue" points="136.05,-68.17 125.65,-70.21 135.05,-75.1 136.05,-68.17"/>
</g>
<!-- Node20&#45;&gt;Node18 -->
<g id="edge23" class="edge">
<title>Node20&#45;&gt;Node18</title>
<path fill="none" stroke="midnightblue" d="M495.8,-117.93C503.88,-102.77 522.86,-71.39 548.5,-56 611.16,-18.4 698.76,-11.26 747.05,-10.45"/>
<polygon fill="midnightblue" stroke="midnightblue" points="747.33,-13.95 757.3,-10.37 747.27,-6.95 747.33,-13.95"/>
</g>
<!-- Node20&#45;&gt;Node19 -->
<g id="edge24" class="edge">
<title>Node20&#45;&gt;Node19</title>
<path fill="none" stroke="midnightblue" d="M492.35,-117.63C494.16,-103.11 499.65,-74.08 515.5,-56 531.9,-37.29 557.88,-25.54 577.89,-18.75"/>
<polygon fill="midnightblue" stroke="midnightblue" points="578.97,-22.08 587.45,-15.73 576.86,-15.41 578.97,-22.08"/>
</g>
<!-- Node21&#45;&gt;Node9 -->
<g id="edge30" class="edge">
<title>Node21&#45;&gt;Node9</title>
<path fill="none" stroke="midnightblue" d="M851.85,-240.78C701.23,-230.11 242.83,-193.67 201.5,-143 192.79,-132.32 193.01,-122.85 201.5,-112 215.13,-94.57 265.79,-82.92 310.06,-75.86"/>
<polygon fill="midnightblue" stroke="midnightblue" points="310.62,-79.31 319.97,-74.33 309.56,-72.39 310.62,-79.31"/>
</g>
<!-- Node21&#45;&gt;Node22 -->
<g id="edge31" class="edge">
<title>Node21&#45;&gt;Node22</title>
<path fill="none" stroke="midnightblue" d="M947.23,-237C1019.1,-226.45 1154.06,-206.65 1223.6,-196.44"/>
<polygon fill="midnightblue" stroke="midnightblue" points="1224.39,-199.86 1233.78,-194.95 1223.37,-192.94 1224.39,-199.86"/>
</g>
<!-- Node24 -->
<g id="node24" class="node">
<title>Node24</title>
<g id="a_node24"><a xlink:href="giraffe__diagnostic__ids_8hpp.html" target="_top" xlink:title=" ">
<polygon fill="none" stroke="black" points="666.5,-112.5 666.5,-142.5 770.5,-142.5 770.5,-112.5 666.5,-112.5"/>
<text text-anchor="start" x="674.5" y="-130.5" font-family="Helvetica,sans-Serif" font-size="10.00">giraffe_diagnostic</text>
<text text-anchor="middle" x="718.5" y="-119.5" font-family="Helvetica,sans-Serif" font-size="10.00">_ids.hpp</text>
</a>
</g>
</g>
<!-- Node21&#45;&gt;Node24 -->
<g id="edge34" class="edge">
<title>Node21&#45;&gt;Node24</title>
<path fill="none" stroke="midnightblue" d="M885.9,-235.32C857,-216.88 788.91,-173.43 749.04,-147.99"/>
<polygon fill="midnightblue" stroke="midnightblue" points="750.82,-144.97 740.51,-142.55 747.06,-150.88 750.82,-144.97"/>
</g>
<!-- Node21&#45;&gt;Node25 -->
<g id="edge35" class="edge">
<title>Node21&#45;&gt;Node25</title>
<path fill="none" stroke="midnightblue" d="M905.94,-235.08C911.45,-227.46 919.53,-216.26 926.26,-206.94"/>
<polygon fill="midnightblue" stroke="midnightblue" points="929.16,-208.91 932.18,-198.75 923.49,-204.81 929.16,-208.91"/>
</g>
<!-- Node22&#45;&gt;Node12 -->
<g id="edge32" class="edge">
<title>Node22&#45;&gt;Node12</title>
<path fill="none" stroke="midnightblue" d="M1301,-179.58C1341.05,-169.19 1403.57,-151.83 1410.5,-143 1423.11,-126.95 1422.33,-102.62 1419.72,-85.83"/>
<polygon fill="midnightblue" stroke="midnightblue" points="1423.08,-84.78 1417.77,-75.61 1416.21,-86.09 1423.08,-84.78"/>
</g>
<!-- Node23 -->
<g id="node23" class="node">
<title>Node23</title>
<g id="a_node23"><a xlink:title=" ">
<polygon fill="none" stroke="#bfbfbf" points="1463,-118 1463,-137 1556,-137 1556,-118 1463,-118"/>
<text text-anchor="middle" x="1509.5" y="-125" font-family="Helvetica,sans-Serif" font-size="10.00">unordered_map</text>
</a>
</g>
</g>
<!-- Node22&#45;&gt;Node23 -->
<g id="edge33" class="edge">
<title>Node22&#45;&gt;Node23</title>
<path fill="none" stroke="midnightblue" d="M1301.15,-179.73C1343.74,-169.26 1417.25,-151.18 1464.59,-139.54"/>
<polygon fill="midnightblue" stroke="midnightblue" points="1465.69,-142.87 1474.57,-137.09 1464.02,-136.08 1465.69,-142.87"/>
</g>
<!-- Node25&#45;&gt;Node3 -->
<g id="edge36" class="edge">
<title>Node25&#45;&gt;Node3</title>
<path fill="none" stroke="midnightblue" d="M977.2,-186.93C1075.76,-183.84 1344.09,-173.12 1565.5,-143 1577.62,-141.35 1590.76,-138.9 1602.46,-136.49"/>
<polygon fill="midnightblue" stroke="midnightblue" points="1603.26,-139.89 1612.31,-134.39 1601.8,-133.05 1603.26,-139.89"/>
</g>
<!-- Node25&#45;&gt;Node9 -->
<g id="edge41" class="edge">
<title>Node25&#45;&gt;Node9</title>
<path fill="none" stroke="midnightblue" d="M907.18,-179.46C881.98,-171.87 846.19,-159.43 817.5,-143 798.59,-132.17 799.59,-120.46 779.5,-112 722.7,-88.08 553.45,-75.68 455.24,-70.34"/>
<polygon fill="midnightblue" stroke="midnightblue" points="455.26,-66.84 445.09,-69.8 454.89,-73.83 455.26,-66.84"/>
</g>
<!-- Node25&#45;&gt;Node12 -->
<g id="edge38" class="edge">
<title>Node25&#45;&gt;Node12</title>
<path fill="none" stroke="midnightblue" d="M977.01,-186.16C1077.98,-181.05 1344.88,-165.54 1377.5,-143 1396.8,-129.67 1406.78,-103.58 1411.58,-85.72"/>
<polygon fill="midnightblue" stroke="midnightblue" points="1415.02,-86.4 1413.93,-75.86 1408.21,-84.77 1415.02,-86.4"/>
</g>
<!-- Node25&#45;&gt;Node16 -->
<g id="edge40" class="edge">
<title>Node25&#45;&gt;Node16</title>
<path fill="none" stroke="midnightblue" d="M899.69,-188.33C814.92,-188.22 607.36,-183.43 439.5,-143 403.63,-134.36 397.98,-122.1 362.5,-112 320.26,-99.97 195.16,-80.6 135.65,-71.72"/>
<polygon fill="midnightblue" stroke="midnightblue" points="136.08,-68.25 125.68,-70.24 135.05,-75.17 136.08,-68.25"/>
</g>
<!-- Node25&#45;&gt;Node17 -->
<g id="edge50" class="edge">
<title>Node25&#45;&gt;Node17</title>
<path fill="none" stroke="midnightblue" d="M918.69,-179.39C901.2,-171.31 875.45,-158.2 855.5,-143 832.42,-125.41 809.91,-100.44 796.13,-83.99"/>
<polygon fill="midnightblue" stroke="midnightblue" points="798.48,-81.33 789.43,-75.83 793.07,-85.77 798.48,-81.33"/>
</g>
<!-- Node25&#45;&gt;Node20 -->
<g id="edge51" class="edge">
<title>Node25&#45;&gt;Node20</title>
<path fill="none" stroke="midnightblue" d="M899.61,-182.82C819.44,-172.15 635.67,-147.69 544.63,-135.57"/>
<polygon fill="midnightblue" stroke="midnightblue" points="544.9,-132.08 534.53,-134.23 543.98,-139.02 544.9,-132.08"/>
</g>
<!-- Node25&#45;&gt;Node24 -->
<g id="edge49" class="edge">
<title>Node25&#45;&gt;Node24</title>
<path fill="none" stroke="midnightblue" d="M906.98,-179.48C873.98,-170.55 821.32,-156.31 780.04,-145.14"/>
<polygon fill="midnightblue" stroke="midnightblue" points="780.92,-141.76 770.35,-142.52 779.09,-148.51 780.92,-141.76"/>
</g>
<!-- Node26 -->
<g id="node26" class="node">
<title>Node26</title>
<g id="a_node26"><a xlink:title=" ">
<polygon fill="none" stroke="#bfbfbf" points="1142.5,-118 1142.5,-137 1202.5,-137 1202.5,-118 1142.5,-118"/>
<text text-anchor="middle" x="1172.5" y="-125" font-family="Helvetica,sans-Serif" font-size="10.00">iostream</text>
</a>
</g>
</g>
<!-- Node25&#45;&gt;Node26 -->
<g id="edge37" class="edge">
<title>Node25&#45;&gt;Node26</title>
<path fill="none" stroke="midnightblue" d="M977.32,-179.83C1015.9,-171.47 1076.63,-157.66 1128.5,-143 1131.67,-142.1 1134.96,-141.12 1138.24,-140.11"/>
<polygon fill="midnightblue" stroke="midnightblue" points="1139.49,-143.38 1147.95,-137 1137.36,-136.71 1139.49,-143.38"/>
</g>
<!-- Node27 -->
<g id="node27" class="node">
<title>Node27</title>
<g id="a_node27"><a xlink:title=" ">
<polygon fill="none" stroke="#bfbfbf" points="949,-56.5 949,-75.5 996,-75.5 996,-56.5 949,-56.5"/>
<text text-anchor="middle" x="972.5" y="-63.5" font-family="Helvetica,sans-Serif" font-size="10.00">queue</text>
</a>
</g>
</g>
<!-- Node25&#45;&gt;Node27 -->
<g id="edge39" class="edge">
<title>Node25&#45;&gt;Node27</title>
<path fill="none" stroke="midnightblue" d="M941.3,-179.41C944.21,-170.38 948.84,-155.74 952.5,-143 958.07,-123.58 963.89,-101.2 967.8,-85.78"/>
<polygon fill="midnightblue" stroke="midnightblue" points="971.24,-86.48 970.29,-75.93 964.45,-84.77 971.24,-86.48"/>
</g>
<!-- Node28 -->
<g id="node28" class="node">
<title>Node28</title>
<g id="a_node28"><a xlink:title=" ">
<polygon fill="none" stroke="#bfbfbf" points="1220.5,-118 1220.5,-137 1368.5,-137 1368.5,-118 1220.5,-118"/>
<text text-anchor="middle" x="1294.5" y="-125" font-family="Helvetica,sans-Serif" font-size="10.00">BoosterSeat/exception.hpp</text>
</a>
</g>
</g>
<!-- Node25&#45;&gt;Node28 -->
<g id="edge42" class="edge">
<title>Node25&#45;&gt;Node28</title>
<path fill="none" stroke="midnightblue" d="M977.4,-181.71C1030.37,-173.11 1128.15,-157.15 1211.5,-143 1219.5,-141.64 1227.92,-140.19 1236.22,-138.75"/>
<polygon fill="midnightblue" stroke="midnightblue" points="1236.98,-142.17 1246.24,-137.01 1235.78,-135.28 1236.98,-142.17"/>
</g>
<!-- Node29 -->
<g id="node29" class="node">
<title>Node29</title>
<g id="a_node29"><a xlink:href="command_8hpp.html" target="_top" xlink:title="The command/queue system for the flight system.">
<polygon fill="none" stroke="black" points="1000.5,-118 1000.5,-137 1086.5,-137 1086.5,-118 1000.5,-118"/>
<text text-anchor="middle" x="1043.5" y="-125" font-family="Helvetica,sans-Serif" font-size="10.00">command.hpp</text>
</a>
</g>
</g>
<!-- Node25&#45;&gt;Node29 -->
<g id="edge43" class="edge">
<title>Node25&#45;&gt;Node29</title>
<path fill="none" stroke="midnightblue" d="M953.54,-179.48C970.78,-169.71 999.24,-153.58 1019.53,-142.08"/>
<polygon fill="midnightblue" stroke="midnightblue" points="1021.51,-144.98 1028.48,-137.01 1018.06,-138.89 1021.51,-144.98"/>
</g>
<!-- Node31 -->
<g id="node31" class="node">
<title>Node31</title>
<g id="a_node31"><a xlink:href="data__ids_8hpp.html" target="_top" xlink:title=" ">
<polygon fill="none" stroke="black" points="865,-118 865,-137 944,-137 944,-118 865,-118"/>
<text text-anchor="middle" x="904.5" y="-125" font-family="Helvetica,sans-Serif" font-size="10.00">data_ids.hpp</text>
</a>
</g>
</g>
<!-- Node25&#45;&gt;Node31 -->
<g id="edge48" class="edge">
<title>Node25&#45;&gt;Node31</title>
<path fill="none" stroke="midnightblue" d="M933.63,-179.48C928.63,-170.73 920.71,-156.87 914.39,-145.81"/>
<polygon fill="midnightblue" stroke="midnightblue" points="917.36,-143.96 909.36,-137.01 911.28,-147.43 917.36,-143.96"/>
</g>
<!-- Node29&#45;&gt;Node12 -->
<g id="edge44" class="edge">
<title>Node29&#45;&gt;Node12</title>
<path fill="none" stroke="midnightblue" d="M1074.42,-117.99C1082.84,-115.85 1091.99,-113.69 1100.5,-112 1201.77,-91.95 1323.04,-77.19 1381.15,-70.69"/>
<polygon fill="midnightblue" stroke="midnightblue" points="1381.69,-74.15 1391.24,-69.57 1380.92,-67.19 1381.69,-74.15"/>
</g>
<!-- Node29&#45;&gt;Node17 -->
<g id="edge47" class="edge">
<title>Node29&#45;&gt;Node17</title>
<path fill="none" stroke="midnightblue" d="M1006.11,-117.98C957.71,-106.94 873.67,-87.78 823.55,-76.36"/>
<polygon fill="midnightblue" stroke="midnightblue" points="824.22,-72.92 813.7,-74.11 822.67,-79.75 824.22,-72.92"/>
</g>
<!-- Node29&#45;&gt;Node27 -->
<g id="edge45" class="edge">
<title>Node29&#45;&gt;Node27</title>
<path fill="none" stroke="midnightblue" d="M1033.33,-117.98C1022.15,-108.61 1003.98,-93.38 990.41,-82.01"/>
<polygon fill="midnightblue" stroke="midnightblue" points="992.57,-79.25 982.65,-75.51 988.07,-84.61 992.57,-79.25"/>
</g>
<!-- Node30 -->
<g id="node30" class="node">
<title>Node30</title>
<g id="a_node30"><a xlink:href="command__ids_8hpp.html" target="_top" xlink:title=" ">
<polygon fill="none" stroke="black" points="1014.5,-56.5 1014.5,-75.5 1120.5,-75.5 1120.5,-56.5 1014.5,-56.5"/>
<text text-anchor="middle" x="1067.5" y="-63.5" font-family="Helvetica,sans-Serif" font-size="10.00">command_ids.hpp</text>
</a>
</g>
</g>
<!-- Node29&#45;&gt;Node30 -->
<g id="edge46" class="edge">
<title>Node29&#45;&gt;Node30</title>
<path fill="none" stroke="midnightblue" d="M1046.94,-117.98C1050.4,-109.4 1055.83,-95.93 1060.25,-84.98"/>
<polygon fill="midnightblue" stroke="midnightblue" points="1063.57,-86.09 1064.07,-75.51 1057.08,-83.47 1063.57,-86.09"/>
</g>
<!-- Node32&#45;&gt;Node16 -->
<g id="edge53" class="edge">
<title>Node32&#45;&gt;Node16</title>
<path fill="none" stroke="midnightblue" d="M46.21,-235.43C40.85,-213.57 29.41,-154.47 49.5,-112 55.59,-99.12 67.36,-88.62 78.37,-81.02"/>
<polygon fill="midnightblue" stroke="midnightblue" points="80.37,-83.89 86.9,-75.55 76.59,-78 80.37,-83.89"/>
</g>
<!-- Node33&#45;&gt;Node12 -->
<g id="edge57" class="edge">
<title>Node33&#45;&gt;Node12</title>
<path fill="none" stroke="midnightblue" d="M1396.09,-236.6C1448.9,-225.98 1528.33,-200.85 1565.5,-143 1572.95,-131.41 1573.74,-123.04 1565.5,-112 1533.86,-69.57 1502.01,-89.68 1449.28,-77.12"/>
<polygon fill="midnightblue" stroke="midnightblue" points="1450.11,-73.72 1439.55,-74.49 1448.28,-80.48 1450.11,-73.72"/>
</g>
<!-- Node34 -->
<g id="node34" class="node">
<title>Node34</title>
<g id="a_node34"><a xlink:title=" ">
<polygon fill="none" stroke="#bfbfbf" points="1321,-179.5 1321,-198.5 1368,-198.5 1368,-179.5 1321,-179.5"/>
<text text-anchor="middle" x="1344.5" y="-186.5" font-family="Helvetica,sans-Serif" font-size="10.00">deque</text>
</a>
</g>
</g>
<!-- Node33&#45;&gt;Node34 -->
<g id="edge56" class="edge">
<title>Node33&#45;&gt;Node34</title>
<path fill="none" stroke="midnightblue" d="M1344.5,-235.08C1344.5,-228.01 1344.5,-217.86 1344.5,-208.99"/>
<polygon fill="midnightblue" stroke="midnightblue" points="1348,-208.75 1344.5,-198.75 1341,-208.75 1348,-208.75"/>
</g>
<!-- Node35&#45;&gt;Node3 -->
<g id="edge59" class="edge">
<title>Node35&#45;&gt;Node3</title>
<path fill="none" stroke="midnightblue" d="M1570.91,-235.32C1582.74,-216.34 1611.1,-170.85 1626.72,-145.79"/>
<polygon fill="midnightblue" stroke="midnightblue" points="1629.71,-147.62 1632.03,-137.28 1623.77,-143.92 1629.71,-147.62"/>
</g>
<!-- Node36&#45;&gt;Node12 -->
<g id="edge66" class="edge">
<title>Node36&#45;&gt;Node12</title>
<path fill="none" stroke="midnightblue" d="M1689.68,-117.96C1683.86,-115.8 1677.5,-113.63 1671.5,-112 1593.6,-90.86 1499.58,-77.29 1449.99,-71.04"/>
<polygon fill="midnightblue" stroke="midnightblue" points="1450.18,-67.53 1439.82,-69.78 1449.32,-74.48 1450.18,-67.53"/>
</g>
<!-- Node36&#45;&gt;Node18 -->
<g id="edge65" class="edge">
<title>Node36&#45;&gt;Node18</title>
<path fill="none" stroke="midnightblue" d="M1688.78,-117.94C1683.19,-115.87 1677.16,-113.76 1671.5,-112 1573.91,-81.7 1549.44,-71.95 1448.5,-56 1209.67,-18.25 917.74,-12.14 817.92,-11.17"/>
<polygon fill="midnightblue" stroke="midnightblue" points="817.81,-7.67 807.78,-11.09 817.75,-14.67 817.81,-7.67"/>
</g>
<!-- Node37 -->
<g id="node37" class="node">
<title>Node37</title>
<g id="a_node37"><a xlink:title=" ">
<polygon fill="none" stroke="#bfbfbf" points="1689.5,-56.5 1689.5,-75.5 1731.5,-75.5 1731.5,-56.5 1689.5,-56.5"/>
<text text-anchor="middle" x="1710.5" y="-63.5" font-family="Helvetica,sans-Serif" font-size="10.00">array</text>
</a>
</g>
</g>
<!-- Node36&#45;&gt;Node37 -->
<g id="edge64" class="edge">
<title>Node36&#45;&gt;Node37</title>
<path fill="none" stroke="midnightblue" d="M1710.5,-117.98C1710.5,-109.58 1710.5,-96.48 1710.5,-85.66"/>
<polygon fill="midnightblue" stroke="midnightblue" points="1714,-85.51 1710.5,-75.51 1707,-85.51 1714,-85.51"/>
</g>
</g>
</svg>
