<?xml version="1.0" encoding="UTF-8" standalone="no"?>
<!DOCTYPE svg PUBLIC "-//W3C//DTD SVG 1.1//EN"
 "http://www.w3.org/Graphics/SVG/1.1/DTD/svg11.dtd">
<!-- Generated by graphviz version 2.43.0 (0)
 -->
<!-- Title: samm8q.hpp Pages: 1 -->
<svg width="2211pt" height="543pt"
 viewBox="0.00 0.00 2210.50 543.00" xmlns="http://www.w3.org/2000/svg" xmlns:xlink="http://www.w3.org/1999/xlink">
<g id="graph0" class="graph" transform="scale(1 1) rotate(0) translate(4 539)">
<title>samm8q.hpp</title>
<!-- Node1 -->
<g id="node1" class="node">
<title>Node1</title>
<g id="a_node1"><a xlink:title="SAM&#45;M8Q GPS extension (I2C).">
<polygon fill="#bfbfbf" stroke="black" points="719,-515.5 719,-534.5 799,-534.5 799,-515.5 719,-515.5"/>
<text text-anchor="middle" x="759" y="-522.5" font-family="Helvetica,sans-Serif" font-size="10.00">samm8q.hpp</text>
</a>
</g>
</g>
<!-- Node2 -->
<g id="node2" class="node">
<title>Node2</title>
<g id="a_node2"><a xlink:title=" ">
<polygon fill="none" stroke="#bfbfbf" points="76.5,-459.5 76.5,-478.5 201.5,-478.5 201.5,-459.5 76.5,-459.5"/>
<text text-anchor="middle" x="139" y="-466.5" font-family="Helvetica,sans-Serif" font-size="10.00">BoosterSeat/timer.hpp</text>
</a>
</g>
</g>
<!-- Node1&#45;&gt;Node2 -->
<g id="edge1" class="edge">
<title>Node1&#45;&gt;Node2</title>
<path fill="none" stroke="midnightblue" d="M718.77,-521.13C628.65,-514.6 403.78,-497.75 216,-479 214.54,-478.85 213.06,-478.7 211.56,-478.55"/>
<polygon fill="midnightblue" stroke="midnightblue" points="211.91,-475.07 201.6,-477.49 211.17,-482.03 211.91,-475.07"/>
</g>
<!-- Node3 -->
<g id="node3" class="node">
<title>Node3</title>
<g id="a_node3"><a xlink:href="extension__base_8hpp.html" target="_top" xlink:title="The new implementation of the extension system.">
<polygon fill="none" stroke="black" points="1289,-459.5 1289,-478.5 1403,-478.5 1403,-459.5 1289,-459.5"/>
<text text-anchor="middle" x="1346" y="-466.5" font-family="Helvetica,sans-Serif" font-size="10.00">extension_base.hpp</text>
</a>
</g>
</g>
<!-- Node1&#45;&gt;Node3 -->
<g id="edge2" class="edge">
<title>Node1&#45;&gt;Node3</title>
<path fill="none" stroke="midnightblue" d="M799.35,-520.29C898.74,-511.15 1156.19,-487.46 1278.96,-476.17"/>
<polygon fill="midnightblue" stroke="midnightblue" points="1279.35,-479.65 1288.99,-475.24 1278.71,-472.68 1279.35,-479.65"/>
</g>
<!-- Node21 -->
<g id="node21" class="node">
<title>Node21</title>
<g id="a_node21"><a xlink:href="positional_8hpp.html" target="_top" xlink:title="Positional data for the flight system (gps/imu data)">
<polygon fill="none" stroke="black" points="203,-123.5 203,-142.5 289,-142.5 289,-123.5 203,-123.5"/>
<text text-anchor="middle" x="246" y="-130.5" font-family="Helvetica,sans-Serif" font-size="10.00">positional.hpp</text>
</a>
</g>
</g>
<!-- Node1&#45;&gt;Node21 -->
<g id="edge89" class="edge">
<title>Node1&#45;&gt;Node21</title>
<path fill="none" stroke="midnightblue" d="M718.8,-524.19C595.35,-523.69 230,-513.78 230,-414 230,-414 230,-414 230,-244 230,-211.63 236.87,-174.44 241.61,-152.66"/>
<polygon fill="midnightblue" stroke="midnightblue" points="245.05,-153.3 243.84,-142.78 238.22,-151.76 245.05,-153.3"/>
</g>
<!-- Node39 -->
<g id="node39" class="node">
<title>Node39</title>
<g id="a_node39"><a xlink:href="i2c__interface_8hpp.html" target="_top" xlink:title="A wrapper around I2C communication.">
<polygon fill="none" stroke="black" points="1878.5,-235.5 1878.5,-254.5 1979.5,-254.5 1979.5,-235.5 1878.5,-235.5"/>
<text text-anchor="middle" x="1929" y="-242.5" font-family="Helvetica,sans-Serif" font-size="10.00">i2c_interface.hpp</text>
</a>
</g>
</g>
<!-- Node1&#45;&gt;Node39 -->
<g id="edge73" class="edge">
<title>Node1&#45;&gt;Node39</title>
<path fill="none" stroke="midnightblue" d="M799.31,-524.1C992.24,-524.06 1812,-517.79 1812,-414 1812,-414 1812,-414 1812,-356 1812,-308.6 1863.6,-275.64 1898.27,-258.85"/>
<polygon fill="midnightblue" stroke="midnightblue" points="1899.95,-261.93 1907.54,-254.54 1897,-255.58 1899.95,-261.93"/>
</g>
<!-- Node4 -->
<g id="node4" class="node">
<title>Node4</title>
<g id="a_node4"><a xlink:title=" ">
<polygon fill="none" stroke="#bfbfbf" points="1447,-123.5 1447,-142.5 1497,-142.5 1497,-123.5 1447,-123.5"/>
<text text-anchor="middle" x="1472" y="-130.5" font-family="Helvetica,sans-Serif" font-size="10.00">atomic</text>
</a>
</g>
</g>
<!-- Node3&#45;&gt;Node4 -->
<g id="edge3" class="edge">
<title>Node3&#45;&gt;Node4</title>
<path fill="none" stroke="midnightblue" d="M1403.26,-464.25C1461.18,-459.13 1544.95,-447.59 1565,-423 1600.59,-379.35 1511.96,-207.19 1481.69,-151.49"/>
<polygon fill="midnightblue" stroke="midnightblue" points="1484.64,-149.59 1476.77,-142.5 1478.5,-152.95 1484.64,-149.59"/>
</g>
<!-- Node5 -->
<g id="node5" class="node">
<title>Node5</title>
<g id="a_node5"><a xlink:title=" ">
<polygon fill="none" stroke="#bfbfbf" points="1296,-403.5 1296,-422.5 1344,-422.5 1344,-403.5 1296,-403.5"/>
<text text-anchor="middle" x="1320" y="-410.5" font-family="Helvetica,sans-Serif" font-size="10.00">thread</text>
</a>
</g>
</g>
<!-- Node3&#45;&gt;Node5 -->
<g id="edge4" class="edge">
<title>Node3&#45;&gt;Node5</title>
<path fill="none" stroke="midnightblue" d="M1341.71,-459.08C1338.15,-451.69 1332.98,-440.95 1328.58,-431.81"/>
<polygon fill="midnightblue" stroke="midnightblue" points="1331.71,-430.24 1324.21,-422.75 1325.4,-433.28 1331.71,-430.24"/>
</g>
<!-- Node6 -->
<g id="node6" class="node">
<title>Node6</title>
<g id="a_node6"><a xlink:href="cfg__extensions_8hpp.html" target="_top" xlink:title="The header file for the extensions section of the configuration.">
<polygon fill="none" stroke="black" points="1400.5,-403.5 1400.5,-422.5 1555.5,-422.5 1555.5,-403.5 1400.5,-403.5"/>
<text text-anchor="middle" x="1478" y="-410.5" font-family="Helvetica,sans-Serif" font-size="10.00">sections/cfg_extensions.hpp</text>
</a>
</g>
</g>
<!-- Node3&#45;&gt;Node6 -->
<g id="edge5" class="edge">
<title>Node3&#45;&gt;Node6</title>
<path fill="none" stroke="midnightblue" d="M1366.92,-459.44C1388.74,-450.52 1423.15,-436.44 1447.89,-426.32"/>
<polygon fill="midnightblue" stroke="midnightblue" points="1449.25,-429.54 1457.18,-422.52 1446.6,-423.06 1449.25,-429.54"/>
</g>
<!-- Node9 -->
<g id="node9" class="node">
<title>Node9</title>
<g id="a_node9"><a xlink:href="shared__data_8hpp.html" target="_top" xlink:title="Contains the SharedData struct, used across all modules and extensions.">
<polygon fill="none" stroke="black" points="1177,-291.5 1177,-310.5 1275,-310.5 1275,-291.5 1177,-291.5"/>
<text text-anchor="middle" x="1226" y="-298.5" font-family="Helvetica,sans-Serif" font-size="10.00">shared_data.hpp</text>
</a>
</g>
</g>
<!-- Node3&#45;&gt;Node9 -->
<g id="edge71" class="edge">
<title>Node3&#45;&gt;Node9</title>
<path fill="none" stroke="midnightblue" d="M1320.94,-459.45C1286,-446 1224.01,-416.24 1198,-367 1189.53,-350.96 1200.14,-331.8 1210.65,-318.45"/>
<polygon fill="midnightblue" stroke="midnightblue" points="1213.5,-320.49 1217.33,-310.61 1208.18,-315.95 1213.5,-320.49"/>
</g>
<!-- Node38 -->
<g id="node38" class="node">
<title>Node38</title>
<g id="a_node38"><a xlink:href="status__led_8hpp.html" target="_top" xlink:title="RGB Status LED extension header file.">
<polygon fill="none" stroke="black" points="1409,-235.5 1409,-254.5 1497,-254.5 1497,-235.5 1409,-235.5"/>
<text text-anchor="middle" x="1453" y="-242.5" font-family="Helvetica,sans-Serif" font-size="10.00">status_led.hpp</text>
</a>
</g>
</g>
<!-- Node3&#45;&gt;Node38 -->
<g id="edge72" class="edge">
<title>Node3&#45;&gt;Node38</title>
<path fill="none" stroke="midnightblue" d="M1350.19,-459.3C1366.04,-426.42 1422.45,-309.39 1444.28,-264.09"/>
<polygon fill="midnightblue" stroke="midnightblue" points="1447.53,-265.41 1448.72,-254.88 1441.22,-262.37 1447.53,-265.41"/>
</g>
<!-- Node7 -->
<g id="node7" class="node">
<title>Node7</title>
<g id="a_node7"><a xlink:href="configuration__enums_8hpp.html" target="_top" xlink:title=" ">
<polygon fill="none" stroke="black" points="1715,-179.5 1715,-198.5 1855,-198.5 1855,-179.5 1715,-179.5"/>
<text text-anchor="middle" x="1785" y="-186.5" font-family="Helvetica,sans-Serif" font-size="10.00">configuration_enums.hpp</text>
</a>
</g>
</g>
<!-- Node6&#45;&gt;Node7 -->
<g id="edge6" class="edge">
<title>Node6&#45;&gt;Node7</title>
<path fill="none" stroke="midnightblue" d="M1490.03,-403.3C1536.75,-369.52 1706.35,-246.87 1764.94,-204.51"/>
<polygon fill="midnightblue" stroke="midnightblue" points="1767,-207.34 1773.05,-198.64 1762.89,-201.67 1767,-207.34"/>
</g>
<!-- Node8 -->
<g id="node8" class="node">
<title>Node8</title>
<g id="a_node8"><a xlink:href="cfg__section_8hpp.html" target="_top" xlink:title="This file contains the base class for all configuration sections.">
<polygon fill="none" stroke="black" points="1206.5,-347.5 1206.5,-366.5 1343.5,-366.5 1343.5,-347.5 1206.5,-347.5"/>
<text text-anchor="middle" x="1275" y="-354.5" font-family="Helvetica,sans-Serif" font-size="10.00">sections/cfg_section.hpp</text>
</a>
</g>
</g>
<!-- Node6&#45;&gt;Node8 -->
<g id="edge7" class="edge">
<title>Node6&#45;&gt;Node8</title>
<path fill="none" stroke="midnightblue" d="M1445.83,-403.44C1410.94,-394.16 1355.11,-379.31 1316.83,-369.13"/>
<polygon fill="midnightblue" stroke="midnightblue" points="1317.58,-365.7 1307.02,-366.52 1315.78,-372.47 1317.58,-365.7"/>
</g>
<!-- Node8&#45;&gt;Node9 -->
<g id="edge8" class="edge">
<title>Node8&#45;&gt;Node9</title>
<path fill="none" stroke="midnightblue" d="M1266.91,-347.08C1259.84,-339.3 1249.41,-327.8 1240.85,-318.37"/>
<polygon fill="midnightblue" stroke="midnightblue" points="1243.25,-315.8 1233.94,-310.75 1238.07,-320.51 1243.25,-315.8"/>
</g>
<!-- Node10 -->
<g id="node10" class="node">
<title>Node10</title>
<g id="a_node10"><a xlink:title=" ">
<polygon fill="none" stroke="#bfbfbf" points="1214.5,-62 1214.5,-81 1339.5,-81 1339.5,-62 1214.5,-62"/>
<text text-anchor="middle" x="1277" y="-69" font-family="Helvetica,sans-Serif" font-size="10.00">BoosterSeat/clock.hpp</text>
</a>
</g>
</g>
<!-- Node9&#45;&gt;Node10 -->
<g id="edge9" class="edge">
<title>Node9&#45;&gt;Node10</title>
<path fill="none" stroke="midnightblue" d="M1227.94,-291.36C1235.4,-258.07 1262.39,-137.65 1272.84,-91.07"/>
<polygon fill="midnightblue" stroke="midnightblue" points="1276.29,-91.67 1275.06,-81.15 1269.46,-90.14 1276.29,-91.67"/>
</g>
<!-- Node11 -->
<g id="node11" class="node">
<title>Node11</title>
<g id="a_node11"><a xlink:title=" ">
<polygon fill="none" stroke="#bfbfbf" points="0,-62 0,-81 122,-81 122,-62 0,-62"/>
<text text-anchor="middle" x="61" y="-69" font-family="Helvetica,sans-Serif" font-size="10.00">BoosterSeat/time.hpp</text>
</a>
</g>
</g>
<!-- Node9&#45;&gt;Node11 -->
<g id="edge10" class="edge">
<title>Node9&#45;&gt;Node11</title>
<path fill="none" stroke="midnightblue" d="M1176.73,-300.55C1039.33,-301.45 640.45,-299.7 313,-255 201.04,-239.72 144.46,-279.34 65,-199 36.76,-170.45 46.8,-118.2 54.86,-90.63"/>
<polygon fill="midnightblue" stroke="midnightblue" points="58.2,-91.66 57.87,-81.08 51.53,-89.56 58.2,-91.66"/>
</g>
<!-- Node12 -->
<g id="node12" class="node">
<title>Node12</title>
<g id="a_node12"><a xlink:href="blocks_8hpp.html" target="_top" xlink:title=" ">
<polygon fill="none" stroke="black" points="637.5,-179.5 637.5,-198.5 706.5,-198.5 706.5,-179.5 637.5,-179.5"/>
<text text-anchor="middle" x="672" y="-186.5" font-family="Helvetica,sans-Serif" font-size="10.00">blocks.hpp</text>
</a>
</g>
</g>
<!-- Node9&#45;&gt;Node12 -->
<g id="edge11" class="edge">
<title>Node9&#45;&gt;Node12</title>
<path fill="none" stroke="midnightblue" d="M1182.99,-291.46C1080.15,-271.04 820.83,-219.55 716.5,-198.84"/>
<polygon fill="midnightblue" stroke="midnightblue" points="717.09,-195.38 706.6,-196.87 715.73,-202.25 717.09,-195.38"/>
</g>
<!-- Node22 -->
<g id="node22" class="node">
<title>Node22</title>
<g id="a_node22"><a xlink:href="error__frame_8hpp.html" target="_top" xlink:title="The error frame.">
<polygon fill="none" stroke="black" points="1553.5,-235.5 1553.5,-254.5 1648.5,-254.5 1648.5,-235.5 1553.5,-235.5"/>
<text text-anchor="middle" x="1601" y="-242.5" font-family="Helvetica,sans-Serif" font-size="10.00">error_frame.hpp</text>
</a>
</g>
</g>
<!-- Node9&#45;&gt;Node22 -->
<g id="edge30" class="edge">
<title>Node9&#45;&gt;Node22</title>
<path fill="none" stroke="midnightblue" d="M1275.02,-292.94C1344.14,-282.99 1469.97,-264.87 1543.44,-254.29"/>
<polygon fill="midnightblue" stroke="midnightblue" points="1544.04,-257.74 1553.44,-252.85 1543.05,-250.81 1544.04,-257.74"/>
</g>
<!-- Node23 -->
<g id="node23" class="node">
<title>Node23</title>
<g id="a_node23"><a xlink:href="frame_8hpp.html" target="_top" xlink:title=" ">
<polygon fill="none" stroke="black" points="1629.5,-179.5 1629.5,-198.5 1696.5,-198.5 1696.5,-179.5 1629.5,-179.5"/>
<text text-anchor="middle" x="1663" y="-186.5" font-family="Helvetica,sans-Serif" font-size="10.00">frame.hpp</text>
</a>
</g>
</g>
<!-- Node9&#45;&gt;Node23 -->
<g id="edge64" class="edge">
<title>Node9&#45;&gt;Node23</title>
<path fill="none" stroke="midnightblue" d="M1275.2,-298.36C1382.82,-294.29 1631.7,-282.02 1658,-255 1669.7,-242.98 1669.53,-223.09 1667.31,-208.47"/>
<polygon fill="midnightblue" stroke="midnightblue" points="1670.72,-207.69 1665.38,-198.54 1663.85,-209.02 1670.72,-207.69"/>
</g>
<!-- Node26 -->
<g id="node26" class="node">
<title>Node26</title>
<g id="a_node26"><a xlink:href="streams_8hpp.html" target="_top" xlink:title="The header file for the data streams.">
<polygon fill="none" stroke="black" points="883.5,-179.5 883.5,-198.5 960.5,-198.5 960.5,-179.5 883.5,-179.5"/>
<text text-anchor="middle" x="922" y="-186.5" font-family="Helvetica,sans-Serif" font-size="10.00">streams.hpp</text>
</a>
</g>
</g>
<!-- Node9&#45;&gt;Node26 -->
<g id="edge70" class="edge">
<title>Node9&#45;&gt;Node26</title>
<path fill="none" stroke="midnightblue" d="M1202.4,-291.46C1148.75,-272.05 1017.49,-224.55 955.48,-202.12"/>
<polygon fill="midnightblue" stroke="midnightblue" points="956.39,-198.72 945.8,-198.61 954.01,-205.3 956.39,-198.72"/>
</g>
<!-- Node33 -->
<g id="node33" class="node">
<title>Node33</title>
<g id="a_node33"><a xlink:href="flight__data_8hpp.html" target="_top" xlink:title=" ">
<polygon fill="none" stroke="black" points="322.5,-235.5 322.5,-254.5 411.5,-254.5 411.5,-235.5 322.5,-235.5"/>
<text text-anchor="middle" x="367" y="-242.5" font-family="Helvetica,sans-Serif" font-size="10.00">flight_data.hpp</text>
</a>
</g>
</g>
<!-- Node9&#45;&gt;Node33 -->
<g id="edge53" class="edge">
<title>Node9&#45;&gt;Node33</title>
<path fill="none" stroke="midnightblue" d="M1176.73,-296.9C1027.14,-287.5 578.88,-259.32 421.97,-249.46"/>
<polygon fill="midnightblue" stroke="midnightblue" points="421.83,-245.94 411.63,-248.81 421.39,-252.93 421.83,-245.94"/>
</g>
<!-- Node34 -->
<g id="node34" class="node">
<title>Node34</title>
<g id="a_node34"><a xlink:href="flight__phase_8hpp.html" target="_top" xlink:title="Contains the flight phase enum and related functions.">
<polygon fill="none" stroke="black" points="345.5,-179.5 345.5,-198.5 442.5,-198.5 442.5,-179.5 345.5,-179.5"/>
<text text-anchor="middle" x="394" y="-186.5" font-family="Helvetica,sans-Serif" font-size="10.00">flight_phase.hpp</text>
</a>
</g>
</g>
<!-- Node9&#45;&gt;Node34 -->
<g id="edge63" class="edge">
<title>Node9&#45;&gt;Node34</title>
<path fill="none" stroke="midnightblue" d="M1176.75,-293.49C1032.15,-274.37 609.17,-218.45 452.91,-197.79"/>
<polygon fill="midnightblue" stroke="midnightblue" points="452.94,-194.26 442.56,-196.42 452.02,-201.2 452.94,-194.26"/>
</g>
<!-- Node36 -->
<g id="node36" class="node">
<title>Node36</title>
<g id="a_node36"><a xlink:href="log__container_8hpp.html" target="_top" xlink:title="A simple logging system for debugging.">
<polygon fill="none" stroke="black" points="1287.5,-235.5 1287.5,-254.5 1390.5,-254.5 1390.5,-235.5 1287.5,-235.5"/>
<text text-anchor="middle" x="1339" y="-242.5" font-family="Helvetica,sans-Serif" font-size="10.00">log_container.hpp</text>
</a>
</g>
</g>
<!-- Node9&#45;&gt;Node36 -->
<g id="edge65" class="edge">
<title>Node9&#45;&gt;Node36</title>
<path fill="none" stroke="midnightblue" d="M1243.91,-291.44C1262.25,-282.68 1291.01,-268.94 1312.09,-258.86"/>
<polygon fill="midnightblue" stroke="midnightblue" points="1313.67,-261.99 1321.18,-254.52 1310.65,-255.67 1313.67,-261.99"/>
</g>
<!-- Node9&#45;&gt;Node38 -->
<g id="edge68" class="edge">
<title>Node9&#45;&gt;Node38</title>
<path fill="none" stroke="midnightblue" d="M1261.97,-291.44C1301.32,-282.08 1364.49,-267.06 1407.31,-256.87"/>
<polygon fill="midnightblue" stroke="midnightblue" points="1408.28,-260.24 1417.2,-254.52 1406.66,-253.43 1408.28,-260.24"/>
</g>
<!-- Node12&#45;&gt;Node10 -->
<g id="edge13" class="edge">
<title>Node12&#45;&gt;Node10</title>
<path fill="none" stroke="midnightblue" d="M706.94,-187.36C769.26,-185.35 903.11,-177.05 1010,-143 1028.18,-137.21 1030.08,-129.56 1048,-123 1100.18,-103.91 1161.82,-90.82 1207.99,-82.76"/>
<polygon fill="midnightblue" stroke="midnightblue" points="1208.63,-86.2 1217.89,-81.07 1207.45,-79.3 1208.63,-86.2"/>
</g>
<!-- Node12&#45;&gt;Node11 -->
<g id="edge15" class="edge">
<title>Node12&#45;&gt;Node11</title>
<path fill="none" stroke="midnightblue" d="M637.34,-186.5C541.97,-182.09 277.25,-167.9 194,-143 193.28,-142.78 124.61,-106.31 86.24,-85.92"/>
<polygon fill="midnightblue" stroke="midnightblue" points="87.67,-82.71 77.2,-81.11 84.38,-88.9 87.67,-82.71"/>
</g>
<!-- Node12&#45;&gt;Node12 -->
<g id="edge16" class="edge">
<title>Node12&#45;&gt;Node12</title>
<path fill="none" stroke="midnightblue" d="M694.39,-198.53C709.61,-201.31 724.5,-198.13 724.5,-189 724.5,-181.94 715.59,-178.44 704.51,-178.5"/>
<polygon fill="midnightblue" stroke="midnightblue" points="704.01,-175.03 694.39,-179.47 704.68,-182 704.01,-175.03"/>
</g>
<!-- Node13 -->
<g id="node13" class="node">
<title>Node13</title>
<g id="a_node13"><a xlink:title=" ">
<polygon fill="none" stroke="#bfbfbf" points="1453,-62 1453,-81 1501,-81 1501,-62 1453,-62"/>
<text text-anchor="middle" x="1477" y="-69" font-family="Helvetica,sans-Serif" font-size="10.00">mutex</text>
</a>
</g>
</g>
<!-- Node12&#45;&gt;Node13 -->
<g id="edge12" class="edge">
<title>Node12&#45;&gt;Node13</title>
<path fill="none" stroke="midnightblue" d="M706.64,-185.97C809.59,-179.81 1112.58,-160.63 1210,-143 1242.26,-137.16 1249.35,-131.53 1281,-123 1337.68,-107.72 1403.86,-90.87 1443,-81.02"/>
<polygon fill="midnightblue" stroke="midnightblue" points="1443.97,-84.38 1452.81,-78.55 1442.26,-77.59 1443.97,-84.38"/>
</g>
<!-- Node14 -->
<g id="node14" class="node">
<title>Node14</title>
<g id="a_node14"><a xlink:title=" ">
<polygon fill="none" stroke="#bfbfbf" points="1057.5,-123.5 1057.5,-142.5 1200.5,-142.5 1200.5,-123.5 1057.5,-123.5"/>
<text text-anchor="middle" x="1129" y="-130.5" font-family="Helvetica,sans-Serif" font-size="10.00">BoosterSeat/numbers.hpp</text>
</a>
</g>
</g>
<!-- Node12&#45;&gt;Node14 -->
<g id="edge14" class="edge">
<title>Node12&#45;&gt;Node14</title>
<path fill="none" stroke="midnightblue" d="M706.72,-183.9C778.72,-175.39 945.94,-155.63 1047.02,-143.69"/>
<polygon fill="midnightblue" stroke="midnightblue" points="1047.67,-147.13 1057.19,-142.48 1046.85,-140.18 1047.67,-147.13"/>
</g>
<!-- Node15 -->
<g id="node15" class="node">
<title>Node15</title>
<g id="a_node15"><a xlink:href="json_8hpp.html" target="_top" xlink:title="Simple wrapper around nlohmann/json.hpp to provide a common interface.">
<polygon fill="none" stroke="black" points="89,-123.5 89,-142.5 147,-142.5 147,-123.5 89,-123.5"/>
<text text-anchor="middle" x="118" y="-130.5" font-family="Helvetica,sans-Serif" font-size="10.00">json.hpp</text>
</a>
</g>
</g>
<!-- Node12&#45;&gt;Node15 -->
<g id="edge17" class="edge">
<title>Node12&#45;&gt;Node15</title>
<path fill="none" stroke="midnightblue" d="M637.44,-186.37C554.77,-182.17 339.18,-169.4 161,-143 159.73,-142.81 158.43,-142.61 157.13,-142.39"/>
<polygon fill="midnightblue" stroke="midnightblue" points="157.52,-138.91 147.06,-140.57 156.28,-145.8 157.52,-138.91"/>
</g>
<!-- Node18 -->
<g id="node18" class="node">
<title>Node18</title>
<g id="a_node18"><a xlink:href="node_8hpp.html" target="_top" xlink:title="Contains structures that are used to identify components of the flight system.">
<polygon fill="none" stroke="black" points="594,-62 594,-81 656,-81 656,-62 594,-62"/>
<text text-anchor="middle" x="625" y="-69" font-family="Helvetica,sans-Serif" font-size="10.00">node.hpp</text>
</a>
</g>
</g>
<!-- Node12&#45;&gt;Node18 -->
<g id="edge20" class="edge">
<title>Node12&#45;&gt;Node18</title>
<path fill="none" stroke="midnightblue" d="M637.38,-186.16C581,-182.36 473.27,-171.47 450,-143 411.51,-95.92 520.9,-80.05 583.91,-74.88"/>
<polygon fill="midnightblue" stroke="midnightblue" points="584.27,-78.36 593.97,-74.11 583.73,-71.38 584.27,-78.36"/>
</g>
<!-- Node12&#45;&gt;Node21 -->
<g id="edge23" class="edge">
<title>Node12&#45;&gt;Node21</title>
<path fill="none" stroke="midnightblue" d="M637.5,-183.63C563.29,-174.22 388.04,-152.01 299.37,-140.77"/>
<polygon fill="midnightblue" stroke="midnightblue" points="299.62,-137.27 289.26,-139.48 298.74,-144.21 299.62,-137.27"/>
</g>
<!-- Node16 -->
<g id="node16" class="node">
<title>Node16</title>
<g id="a_node16"><a xlink:title=" ">
<polygon fill="none" stroke="#bfbfbf" points="140,-62 140,-81 250,-81 250,-62 140,-62"/>
<text text-anchor="middle" x="195" y="-69" font-family="Helvetica,sans-Serif" font-size="10.00">nlohmann/json.hpp</text>
</a>
</g>
</g>
<!-- Node15&#45;&gt;Node16 -->
<g id="edge18" class="edge">
<title>Node15&#45;&gt;Node16</title>
<path fill="none" stroke="midnightblue" d="M129.03,-123.48C141.27,-114.02 161.23,-98.6 175.99,-87.19"/>
<polygon fill="midnightblue" stroke="midnightblue" points="178.22,-89.89 183.99,-81.01 173.94,-84.35 178.22,-89.89"/>
</g>
<!-- Node17 -->
<g id="node17" class="node">
<title>Node17</title>
<g id="a_node17"><a xlink:title=" ">
<polygon fill="none" stroke="#bfbfbf" points="344,-62 344,-81 388,-81 388,-62 344,-62"/>
<text text-anchor="middle" x="366" y="-69" font-family="Helvetica,sans-Serif" font-size="10.00">string</text>
</a>
</g>
</g>
<!-- Node15&#45;&gt;Node17 -->
<g id="edge19" class="edge">
<title>Node15&#45;&gt;Node17</title>
<path fill="none" stroke="midnightblue" d="M147.42,-124.94C194.28,-113.7 285.5,-91.81 333.96,-80.19"/>
<polygon fill="midnightblue" stroke="midnightblue" points="334.99,-83.54 343.9,-77.8 333.36,-76.73 334.99,-83.54"/>
</g>
<!-- Node19 -->
<g id="node19" class="node">
<title>Node19</title>
<g id="a_node19"><a xlink:title=" ">
<polygon fill="none" stroke="#bfbfbf" points="600,-0.5 600,-19.5 650,-19.5 650,-0.5 600,-0.5"/>
<text text-anchor="middle" x="625" y="-7.5" font-family="Helvetica,sans-Serif" font-size="10.00">cstdint</text>
</a>
</g>
</g>
<!-- Node18&#45;&gt;Node19 -->
<g id="edge21" class="edge">
<title>Node18&#45;&gt;Node19</title>
<path fill="none" stroke="midnightblue" d="M625,-61.98C625,-53.58 625,-40.48 625,-29.66"/>
<polygon fill="midnightblue" stroke="midnightblue" points="628.5,-29.51 625,-19.51 621.5,-29.51 628.5,-29.51"/>
</g>
<!-- Node20 -->
<g id="node20" class="node">
<title>Node20</title>
<g id="a_node20"><a xlink:title=" ">
<polygon fill="none" stroke="#bfbfbf" points="496,-0.5 496,-19.5 534,-19.5 534,-0.5 496,-0.5"/>
<text text-anchor="middle" x="515" y="-7.5" font-family="Helvetica,sans-Serif" font-size="10.00">map</text>
</a>
</g>
</g>
<!-- Node18&#45;&gt;Node20 -->
<g id="edge22" class="edge">
<title>Node18&#45;&gt;Node20</title>
<path fill="none" stroke="midnightblue" d="M609.24,-61.98C591.02,-52.12 560.83,-35.79 539.53,-24.27"/>
<polygon fill="midnightblue" stroke="midnightblue" points="541.19,-21.19 530.73,-19.51 537.86,-27.35 541.19,-21.19"/>
</g>
<!-- Node21&#45;&gt;Node10 -->
<g id="edge28" class="edge">
<title>Node21&#45;&gt;Node10</title>
<path fill="none" stroke="midnightblue" d="M289.26,-129.65C409.15,-123.12 755.88,-104.09 1044,-87 1097.6,-83.82 1158.12,-80.05 1204.05,-77.15"/>
<polygon fill="midnightblue" stroke="midnightblue" points="1204.45,-80.63 1214.21,-76.51 1204.01,-73.64 1204.45,-80.63"/>
</g>
<!-- Node21&#45;&gt;Node11 -->
<g id="edge29" class="edge">
<title>Node21&#45;&gt;Node11</title>
<path fill="none" stroke="midnightblue" d="M219.49,-123.48C187.35,-113.14 133.01,-95.66 97.07,-84.1"/>
<polygon fill="midnightblue" stroke="midnightblue" points="98.05,-80.74 87.46,-81.01 95.9,-87.4 98.05,-80.74"/>
</g>
<!-- Node21&#45;&gt;Node16 -->
<g id="edge27" class="edge">
<title>Node21&#45;&gt;Node16</title>
<path fill="none" stroke="midnightblue" d="M238.69,-123.48C230.97,-114.46 218.59,-100.02 208.98,-88.81"/>
<polygon fill="midnightblue" stroke="midnightblue" points="211.46,-86.32 202.29,-81.01 206.14,-90.88 211.46,-86.32"/>
</g>
<!-- Node21&#45;&gt;Node17 -->
<g id="edge26" class="edge">
<title>Node21&#45;&gt;Node17</title>
<path fill="none" stroke="midnightblue" d="M263.19,-123.48C283.24,-113.53 316.6,-96.99 339.86,-85.46"/>
<polygon fill="midnightblue" stroke="midnightblue" points="341.43,-88.59 348.84,-81.01 338.32,-82.32 341.43,-88.59"/>
</g>
<!-- Node21&#45;&gt;Node19 -->
<g id="edge24" class="edge">
<title>Node21&#45;&gt;Node19</title>
<path fill="none" stroke="midnightblue" d="M257.1,-123.21C268.31,-114.26 286.06,-99.9 301,-87 316.47,-73.63 316.56,-64.83 335,-56 357.67,-45.15 517.64,-24.29 589.82,-15.3"/>
<polygon fill="midnightblue" stroke="midnightblue" points="590.31,-18.77 599.81,-14.06 589.45,-11.82 590.31,-18.77"/>
</g>
<!-- Node21&#45;&gt;Node20 -->
<g id="edge25" class="edge">
<title>Node21&#45;&gt;Node20</title>
<path fill="none" stroke="midnightblue" d="M249.79,-123.32C257.27,-107.27 275.54,-73.03 302,-56 359.57,-18.94 442.32,-11.8 485.78,-10.79"/>
<polygon fill="midnightblue" stroke="midnightblue" points="486,-14.28 495.95,-10.65 485.9,-7.28 486,-14.28"/>
</g>
<!-- Node22&#45;&gt;Node10 -->
<g id="edge31" class="edge">
<title>Node22&#45;&gt;Node10</title>
<path fill="none" stroke="midnightblue" d="M1596.87,-235.31C1585.71,-212.79 1552.58,-152.28 1506,-123 1459.11,-93.53 1397.4,-81.12 1349.86,-75.96"/>
<polygon fill="midnightblue" stroke="midnightblue" points="1349.93,-72.45 1339.63,-74.94 1349.23,-79.42 1349.93,-72.45"/>
</g>
<!-- Node22&#45;&gt;Node23 -->
<g id="edge32" class="edge">
<title>Node22&#45;&gt;Node23</title>
<path fill="none" stroke="midnightblue" d="M1610.96,-235.32C1620.13,-227.34 1633.94,-215.31 1645.03,-205.65"/>
<polygon fill="midnightblue" stroke="midnightblue" points="1647.62,-208.04 1652.86,-198.83 1643.02,-202.76 1647.62,-208.04"/>
</g>
<!-- Node25 -->
<g id="node25" class="node">
<title>Node25</title>
<g id="a_node25"><a xlink:href="giraffe__diagnostic__ids_8hpp.html" target="_top" xlink:title=" ">
<polygon fill="none" stroke="black" points="1662,-56.5 1662,-86.5 1766,-86.5 1766,-56.5 1662,-56.5"/>
<text text-anchor="start" x="1670" y="-74.5" font-family="Helvetica,sans-Serif" font-size="10.00">giraffe_diagnostic</text>
<text text-anchor="middle" x="1714" y="-63.5" font-family="Helvetica,sans-Serif" font-size="10.00">_ids.hpp</text>
</a>
</g>
</g>
<!-- Node22&#45;&gt;Node25 -->
<g id="edge35" class="edge">
<title>Node22&#45;&gt;Node25</title>
<path fill="none" stroke="midnightblue" d="M1602.81,-235.28C1605.65,-222.51 1611.81,-198.16 1621,-179 1634.01,-151.88 1639.35,-145.77 1659,-123 1668.09,-112.47 1679.22,-101.89 1689.09,-93.16"/>
<polygon fill="midnightblue" stroke="midnightblue" points="1691.41,-95.78 1696.67,-86.59 1686.82,-90.5 1691.41,-95.78"/>
</g>
<!-- Node22&#45;&gt;Node26 -->
<g id="edge36" class="edge">
<title>Node22&#45;&gt;Node26</title>
<path fill="none" stroke="midnightblue" d="M1553.17,-239.3C1538.09,-237.87 1521.35,-236.32 1506,-235 1307.6,-217.96 1071.02,-200.66 970.75,-193.47"/>
<polygon fill="midnightblue" stroke="midnightblue" points="970.85,-189.96 960.63,-192.74 970.35,-196.95 970.85,-189.96"/>
</g>
<!-- Node23&#45;&gt;Node13 -->
<g id="edge33" class="edge">
<title>Node23&#45;&gt;Node13</title>
<path fill="none" stroke="midnightblue" d="M1652.84,-179.36C1637.18,-166.27 1605.91,-141.02 1577,-123 1553.77,-108.52 1525.87,-94.7 1505.44,-85.19"/>
<polygon fill="midnightblue" stroke="midnightblue" points="1506.9,-82.01 1496.35,-81.01 1503.98,-88.37 1506.9,-82.01"/>
</g>
<!-- Node24 -->
<g id="node24" class="node">
<title>Node24</title>
<g id="a_node24"><a xlink:title=" ">
<polygon fill="none" stroke="#bfbfbf" points="1667.5,-123.5 1667.5,-142.5 1760.5,-142.5 1760.5,-123.5 1667.5,-123.5"/>
<text text-anchor="middle" x="1714" y="-130.5" font-family="Helvetica,sans-Serif" font-size="10.00">unordered_map</text>
</a>
</g>
</g>
<!-- Node23&#45;&gt;Node24 -->
<g id="edge34" class="edge">
<title>Node23&#45;&gt;Node24</title>
<path fill="none" stroke="midnightblue" d="M1671.42,-179.08C1678.85,-171.22 1689.85,-159.57 1698.81,-150.08"/>
<polygon fill="midnightblue" stroke="midnightblue" points="1701.41,-152.42 1705.74,-142.75 1696.32,-147.62 1701.41,-152.42"/>
</g>
<!-- Node26&#45;&gt;Node4 -->
<g id="edge37" class="edge">
<title>Node26&#45;&gt;Node4</title>
<path fill="none" stroke="midnightblue" d="M960.65,-184.61C1041.39,-177.46 1233.81,-160.09 1395,-143 1408.62,-141.56 1423.59,-139.84 1436.67,-138.29"/>
<polygon fill="midnightblue" stroke="midnightblue" points="1437.18,-141.75 1446.7,-137.1 1436.35,-134.8 1437.18,-141.75"/>
</g>
<!-- Node26&#45;&gt;Node10 -->
<g id="edge42" class="edge">
<title>Node26&#45;&gt;Node10</title>
<path fill="none" stroke="midnightblue" d="M960.53,-185.07C1028.68,-179.37 1167.31,-165.38 1210,-143 1233.75,-130.55 1253.82,-106.41 1265.63,-89.88"/>
<polygon fill="midnightblue" stroke="midnightblue" points="1268.84,-91.4 1271.6,-81.17 1263.06,-87.44 1268.84,-91.4"/>
</g>
<!-- Node26&#45;&gt;Node13 -->
<g id="edge39" class="edge">
<title>Node26&#45;&gt;Node13</title>
<path fill="none" stroke="midnightblue" d="M960.75,-185.95C1027.12,-181.82 1166.46,-170.42 1281,-143 1342.18,-128.35 1410.71,-101.06 1448.36,-85.07"/>
<polygon fill="midnightblue" stroke="midnightblue" points="1449.87,-88.23 1457.69,-81.07 1447.11,-81.79 1449.87,-88.23"/>
</g>
<!-- Node26&#45;&gt;Node17 -->
<g id="edge41" class="edge">
<title>Node26&#45;&gt;Node17</title>
<path fill="none" stroke="midnightblue" d="M883.37,-185.64C777.78,-179 489.58,-159.58 450,-143 421.59,-131.1 395.54,-106.08 380.21,-89.28"/>
<polygon fill="midnightblue" stroke="midnightblue" points="382.46,-86.54 373.22,-81.36 377.21,-91.17 382.46,-86.54"/>
</g>
<!-- Node26&#45;&gt;Node18 -->
<g id="edge51" class="edge">
<title>Node26&#45;&gt;Node18</title>
<path fill="none" stroke="midnightblue" d="M906.65,-179.34C882.57,-165.99 834.18,-140.15 791,-123 749.39,-106.48 700.14,-92.12 666.15,-82.98"/>
<polygon fill="midnightblue" stroke="midnightblue" points="666.68,-79.5 656.12,-80.32 664.88,-86.27 666.68,-79.5"/>
</g>
<!-- Node26&#45;&gt;Node21 -->
<g id="edge52" class="edge">
<title>Node26&#45;&gt;Node21</title>
<path fill="none" stroke="midnightblue" d="M883.23,-184.9C768.64,-175.75 431.36,-148.81 299.6,-138.28"/>
<polygon fill="midnightblue" stroke="midnightblue" points="299.6,-134.77 289.36,-137.46 299.05,-141.75 299.6,-134.77"/>
</g>
<!-- Node26&#45;&gt;Node25 -->
<g id="edge50" class="edge">
<title>Node26&#45;&gt;Node25</title>
<path fill="none" stroke="midnightblue" d="M960.65,-184.61C1032.83,-178.07 1192.95,-162.63 1327,-143 1335.03,-141.82 1544.57,-103.51 1651.89,-83.87"/>
<polygon fill="midnightblue" stroke="midnightblue" points="1652.74,-87.27 1661.95,-82.03 1651.48,-80.39 1652.74,-87.27"/>
</g>
<!-- Node27 -->
<g id="node27" class="node">
<title>Node27</title>
<g id="a_node27"><a xlink:title=" ">
<polygon fill="none" stroke="#bfbfbf" points="459,-123.5 459,-142.5 519,-142.5 519,-123.5 459,-123.5"/>
<text text-anchor="middle" x="489" y="-130.5" font-family="Helvetica,sans-Serif" font-size="10.00">iostream</text>
</a>
</g>
</g>
<!-- Node26&#45;&gt;Node27 -->
<g id="edge38" class="edge">
<title>Node26&#45;&gt;Node27</title>
<path fill="none" stroke="midnightblue" d="M883.48,-185.06C814.45,-179.47 664.96,-165.93 529.32,-143.05"/>
<polygon fill="midnightblue" stroke="midnightblue" points="529.61,-139.55 519.17,-141.32 528.43,-146.45 529.61,-139.55"/>
</g>
<!-- Node28 -->
<g id="node28" class="node">
<title>Node28</title>
<g id="a_node28"><a xlink:title=" ">
<polygon fill="none" stroke="#bfbfbf" points="863.5,-62 863.5,-81 910.5,-81 910.5,-62 863.5,-62"/>
<text text-anchor="middle" x="887" y="-69" font-family="Helvetica,sans-Serif" font-size="10.00">queue</text>
</a>
</g>
</g>
<!-- Node26&#45;&gt;Node28 -->
<g id="edge40" class="edge">
<title>Node26&#45;&gt;Node28</title>
<path fill="none" stroke="midnightblue" d="M918.73,-179.44C915.35,-170.44 910,-155.82 906,-143 900.58,-125.62 895.26,-105.56 891.64,-91.29"/>
<polygon fill="midnightblue" stroke="midnightblue" points="894.95,-90.1 889.12,-81.25 888.16,-91.8 894.95,-90.1"/>
</g>
<!-- Node29 -->
<g id="node29" class="node">
<title>Node29</title>
<g id="a_node29"><a xlink:title=" ">
<polygon fill="none" stroke="#bfbfbf" points="537,-123.5 537,-142.5 685,-142.5 685,-123.5 537,-123.5"/>
<text text-anchor="middle" x="611" y="-130.5" font-family="Helvetica,sans-Serif" font-size="10.00">BoosterSeat/exception.hpp</text>
</a>
</g>
</g>
<!-- Node26&#45;&gt;Node29 -->
<g id="edge43" class="edge">
<title>Node26&#45;&gt;Node29</title>
<path fill="none" stroke="midnightblue" d="M883.24,-181.27C829.72,-171.98 732.71,-155.13 670.11,-144.26"/>
<polygon fill="midnightblue" stroke="midnightblue" points="670.44,-140.77 659.99,-142.51 669.25,-147.67 670.44,-140.77"/>
</g>
<!-- Node30 -->
<g id="node30" class="node">
<title>Node30</title>
<g id="a_node30"><a xlink:href="command_8hpp.html" target="_top" xlink:title="The command/queue system for the flight system.">
<polygon fill="none" stroke="black" points="915,-123.5 915,-142.5 1001,-142.5 1001,-123.5 915,-123.5"/>
<text text-anchor="middle" x="958" y="-130.5" font-family="Helvetica,sans-Serif" font-size="10.00">command.hpp</text>
</a>
</g>
</g>
<!-- Node26&#45;&gt;Node30 -->
<g id="edge44" class="edge">
<title>Node26&#45;&gt;Node30</title>
<path fill="none" stroke="midnightblue" d="M927.94,-179.08C932.98,-171.53 940.34,-160.49 946.51,-151.23"/>
<polygon fill="midnightblue" stroke="midnightblue" points="949.53,-153.01 952.17,-142.75 943.71,-149.13 949.53,-153.01"/>
</g>
<!-- Node32 -->
<g id="node32" class="node">
<title>Node32</title>
<g id="a_node32"><a xlink:href="data__ids_8hpp.html" target="_top" xlink:title=" ">
<polygon fill="none" stroke="black" points="703.5,-123.5 703.5,-142.5 782.5,-142.5 782.5,-123.5 703.5,-123.5"/>
<text text-anchor="middle" x="743" y="-130.5" font-family="Helvetica,sans-Serif" font-size="10.00">data_ids.hpp</text>
</a>
</g>
</g>
<!-- Node26&#45;&gt;Node32 -->
<g id="edge49" class="edge">
<title>Node26&#45;&gt;Node32</title>
<path fill="none" stroke="midnightblue" d="M893.64,-179.44C863.26,-170.28 814.89,-155.69 781.18,-145.52"/>
<polygon fill="midnightblue" stroke="midnightblue" points="781.82,-142.05 771.23,-142.52 779.79,-148.76 781.82,-142.05"/>
</g>
<!-- Node30&#45;&gt;Node13 -->
<g id="edge45" class="edge">
<title>Node30&#45;&gt;Node13</title>
<path fill="none" stroke="midnightblue" d="M1001.36,-127.03C1102.36,-115.45 1351.66,-86.87 1442.87,-76.41"/>
<polygon fill="midnightblue" stroke="midnightblue" points="1443.4,-79.87 1452.94,-75.26 1442.6,-72.92 1443.4,-79.87"/>
</g>
<!-- Node30&#45;&gt;Node18 -->
<g id="edge48" class="edge">
<title>Node30&#45;&gt;Node18</title>
<path fill="none" stroke="midnightblue" d="M914.81,-124.28C850.29,-112.76 729.59,-91.19 666.24,-79.87"/>
<polygon fill="midnightblue" stroke="midnightblue" points="666.67,-76.39 656.21,-78.08 665.44,-83.28 666.67,-76.39"/>
</g>
<!-- Node30&#45;&gt;Node28 -->
<g id="edge46" class="edge">
<title>Node30&#45;&gt;Node28</title>
<path fill="none" stroke="midnightblue" d="M947.83,-123.48C936.65,-114.11 918.48,-98.88 904.91,-87.51"/>
<polygon fill="midnightblue" stroke="midnightblue" points="907.07,-84.75 897.15,-81.01 902.57,-90.11 907.07,-84.75"/>
</g>
<!-- Node31 -->
<g id="node31" class="node">
<title>Node31</title>
<g id="a_node31"><a xlink:href="command__ids_8hpp.html" target="_top" xlink:title=" ">
<polygon fill="none" stroke="black" points="929,-62 929,-81 1035,-81 1035,-62 929,-62"/>
<text text-anchor="middle" x="982" y="-69" font-family="Helvetica,sans-Serif" font-size="10.00">command_ids.hpp</text>
</a>
</g>
</g>
<!-- Node30&#45;&gt;Node31 -->
<g id="edge47" class="edge">
<title>Node30&#45;&gt;Node31</title>
<path fill="none" stroke="midnightblue" d="M961.44,-123.48C964.9,-114.9 970.33,-101.43 974.75,-90.48"/>
<polygon fill="midnightblue" stroke="midnightblue" points="978.07,-91.59 978.57,-81.01 971.58,-88.97 978.07,-91.59"/>
</g>
<!-- Node33&#45;&gt;Node4 -->
<g id="edge54" class="edge">
<title>Node33&#45;&gt;Node4</title>
<path fill="none" stroke="midnightblue" d="M411.66,-243.47C571.28,-241.32 1113.07,-231.71 1283,-199 1341.71,-187.7 1407.01,-162.17 1443.43,-146.68"/>
<polygon fill="midnightblue" stroke="midnightblue" points="1445.11,-149.77 1452.91,-142.6 1442.34,-143.34 1445.11,-149.77"/>
</g>
<!-- Node33&#45;&gt;Node10 -->
<g id="edge56" class="edge">
<title>Node33&#45;&gt;Node10</title>
<path fill="none" stroke="midnightblue" d="M411.77,-242.68C512.02,-239.27 761.98,-228.32 969,-199 1089.05,-182 1137.7,-213.98 1236,-143 1253.89,-130.08 1265.19,-106.76 1271.3,-90.49"/>
<polygon fill="midnightblue" stroke="midnightblue" points="1274.62,-91.6 1274.58,-81 1268.01,-89.31 1274.62,-91.6"/>
</g>
<!-- Node33&#45;&gt;Node11 -->
<g id="edge57" class="edge">
<title>Node33&#45;&gt;Node11</title>
<path fill="none" stroke="midnightblue" d="M322.4,-238.31C244.6,-228.19 91.47,-207.34 83,-199 54.11,-170.54 55.17,-118.64 58.2,-90.99"/>
<polygon fill="midnightblue" stroke="midnightblue" points="61.68,-91.44 59.5,-81.07 54.73,-90.53 61.68,-91.44"/>
</g>
<!-- Node33&#45;&gt;Node15 -->
<g id="edge62" class="edge">
<title>Node33&#45;&gt;Node15</title>
<path fill="none" stroke="midnightblue" d="M347.46,-235.37C303.73,-216.05 197.81,-169.26 146.63,-146.65"/>
<polygon fill="midnightblue" stroke="midnightblue" points="148.01,-143.43 137.45,-142.59 145.18,-149.83 148.01,-143.43"/>
</g>
<!-- Node33&#45;&gt;Node17 -->
<g id="edge55" class="edge">
<title>Node33&#45;&gt;Node17</title>
<path fill="none" stroke="midnightblue" d="M358.52,-235.23C350.95,-226.75 340.4,-213.13 336,-199 324.1,-160.74 343.13,-114.7 355.92,-90.08"/>
<polygon fill="midnightblue" stroke="midnightblue" points="359.05,-91.66 360.75,-81.2 352.9,-88.31 359.05,-91.66"/>
</g>
<!-- Node33&#45;&gt;Node34 -->
<g id="edge58" class="edge">
<title>Node33&#45;&gt;Node34</title>
<path fill="none" stroke="midnightblue" d="M371.46,-235.08C375.15,-227.69 380.52,-216.95 385.09,-207.81"/>
<polygon fill="midnightblue" stroke="midnightblue" points="388.28,-209.26 389.62,-198.75 382.02,-206.13 388.28,-209.26"/>
</g>
<!-- Node35 -->
<g id="node35" class="node">
<title>Node35</title>
<g id="a_node35"><a xlink:href="i__built__in__test_8hpp.html" target="_top" xlink:title=" ">
<polygon fill="none" stroke="black" points="92,-179.5 92,-198.5 198,-198.5 198,-179.5 92,-179.5"/>
<text text-anchor="middle" x="145" y="-186.5" font-family="Helvetica,sans-Serif" font-size="10.00">i_built_in_test.hpp</text>
</a>
</g>
</g>
<!-- Node33&#45;&gt;Node35 -->
<g id="edge60" class="edge">
<title>Node33&#45;&gt;Node35</title>
<path fill="none" stroke="midnightblue" d="M331.82,-235.44C293.42,-226.1 231.82,-211.12 189.94,-200.93"/>
<polygon fill="midnightblue" stroke="midnightblue" points="190.56,-197.48 180.01,-198.52 188.9,-204.28 190.56,-197.48"/>
</g>
<!-- Node34&#45;&gt;Node17 -->
<g id="edge59" class="edge">
<title>Node34&#45;&gt;Node17</title>
<path fill="none" stroke="midnightblue" d="M390.76,-179.48C387.45,-170.51 382.33,-155.92 379,-143 374.54,-125.69 371,-105.62 368.74,-91.33"/>
<polygon fill="midnightblue" stroke="midnightblue" points="372.17,-90.63 367.21,-81.27 365.25,-91.68 372.17,-90.63"/>
</g>
<!-- Node35&#45;&gt;Node15 -->
<g id="edge61" class="edge">
<title>Node35&#45;&gt;Node15</title>
<path fill="none" stroke="midnightblue" d="M140.54,-179.08C136.85,-171.69 131.48,-160.95 126.91,-151.81"/>
<polygon fill="midnightblue" stroke="midnightblue" points="129.98,-150.13 122.38,-142.75 123.72,-153.26 129.98,-150.13"/>
</g>
<!-- Node36&#45;&gt;Node13 -->
<g id="edge67" class="edge">
<title>Node36&#45;&gt;Node13</title>
<path fill="none" stroke="midnightblue" d="M1372.3,-235.42C1412.98,-222.89 1479.64,-195.17 1506,-143 1515,-125.2 1503.35,-103.92 1492.24,-89.43"/>
<polygon fill="midnightblue" stroke="midnightblue" points="1494.66,-86.86 1485.59,-81.38 1489.26,-91.32 1494.66,-86.86"/>
</g>
<!-- Node37 -->
<g id="node37" class="node">
<title>Node37</title>
<g id="a_node37"><a xlink:title=" ">
<polygon fill="none" stroke="#bfbfbf" points="1373.5,-179.5 1373.5,-198.5 1420.5,-198.5 1420.5,-179.5 1373.5,-179.5"/>
<text text-anchor="middle" x="1397" y="-186.5" font-family="Helvetica,sans-Serif" font-size="10.00">deque</text>
</a>
</g>
</g>
<!-- Node36&#45;&gt;Node37 -->
<g id="edge66" class="edge">
<title>Node36&#45;&gt;Node37</title>
<path fill="none" stroke="midnightblue" d="M1348.32,-235.32C1356.89,-227.34 1369.81,-215.31 1380.19,-205.65"/>
<polygon fill="midnightblue" stroke="midnightblue" points="1382.58,-208.21 1387.51,-198.83 1377.81,-203.09 1382.58,-208.21"/>
</g>
<!-- Node38&#45;&gt;Node4 -->
<g id="edge69" class="edge">
<title>Node38&#45;&gt;Node4</title>
<path fill="none" stroke="midnightblue" d="M1454.49,-235.37C1457.56,-217.62 1464.63,-176.67 1468.79,-152.6"/>
<polygon fill="midnightblue" stroke="midnightblue" points="1472.26,-153.04 1470.52,-142.59 1465.36,-151.85 1472.26,-153.04"/>
</g>
<!-- Node39&#45;&gt;Node7 -->
<g id="edge77" class="edge">
<title>Node39&#45;&gt;Node7</title>
<path fill="none" stroke="midnightblue" d="M1906.18,-235.44C1882.17,-226.44 1844.17,-212.19 1817.13,-202.05"/>
<polygon fill="midnightblue" stroke="midnightblue" points="1818.3,-198.75 1807.71,-198.52 1815.84,-205.3 1818.3,-198.75"/>
</g>
<!-- Node39&#45;&gt;Node13 -->
<g id="edge75" class="edge">
<title>Node39&#45;&gt;Node13</title>
<path fill="none" stroke="midnightblue" d="M1921.6,-235.31C1910.13,-222.14 1886.96,-196.79 1864,-179 1839.12,-159.72 1830.02,-159.16 1803,-143 1788.28,-134.2 1786.06,-129.01 1770,-123 1680.52,-89.55 1567.28,-78.07 1511.4,-74.28"/>
<polygon fill="midnightblue" stroke="midnightblue" points="1511.54,-70.78 1501.34,-73.64 1511.09,-77.76 1511.54,-70.78"/>
</g>
<!-- Node39&#45;&gt;Node19 -->
<g id="edge74" class="edge">
<title>Node39&#45;&gt;Node19</title>
<path fill="none" stroke="midnightblue" d="M1971.64,-235.44C2016.87,-223.65 2084.92,-197.36 2108,-143 2120.89,-112.64 2088.23,-61.04 2081,-56 2020.93,-14.08 876.76,-11.18 660.21,-11.01"/>
<polygon fill="midnightblue" stroke="midnightblue" points="660.04,-7.51 650.04,-11 660.04,-14.51 660.04,-7.51"/>
</g>
<!-- Node40 -->
<g id="node40" class="node">
<title>Node40</title>
<g id="a_node40"><a xlink:title=" ">
<polygon fill="none" stroke="#bfbfbf" points="2155.5,-179.5 2155.5,-198.5 2202.5,-198.5 2202.5,-179.5 2155.5,-179.5"/>
<text text-anchor="middle" x="2179" y="-186.5" font-family="Helvetica,sans-Serif" font-size="10.00">vector</text>
</a>
</g>
</g>
<!-- Node39&#45;&gt;Node40 -->
<g id="edge76" class="edge">
<title>Node39&#45;&gt;Node40</title>
<path fill="none" stroke="midnightblue" d="M1970.5,-235.49C2013.28,-226.65 2081.89,-212.27 2141,-199 2142.45,-198.68 2143.92,-198.34 2145.42,-198"/>
<polygon fill="midnightblue" stroke="midnightblue" points="2146.35,-201.37 2155.3,-195.7 2144.77,-194.56 2146.35,-201.37"/>
</g>
<!-- Node41 -->
<g id="node41" class="node">
<title>Node41</title>
<g id="a_node41"><a xlink:href="giraffe__diagnostics_8hpp.html" target="_top" xlink:title="Giraffe&#39;s diagnostic system.">
<polygon fill="none" stroke="black" points="1911,-179.5 1911,-198.5 2041,-198.5 2041,-179.5 1911,-179.5"/>
<text text-anchor="middle" x="1976" y="-186.5" font-family="Helvetica,sans-Serif" font-size="10.00">giraffe_diagnostics.hpp</text>
</a>
</g>
</g>
<!-- Node39&#45;&gt;Node41 -->
<g id="edge78" class="edge">
<title>Node39&#45;&gt;Node41</title>
<path fill="none" stroke="midnightblue" d="M1936.76,-235.08C1943.54,-227.3 1953.54,-215.8 1961.76,-206.37"/>
<polygon fill="midnightblue" stroke="midnightblue" points="1964.46,-208.59 1968.38,-198.75 1959.18,-204 1964.46,-208.59"/>
</g>
<!-- Node41&#45;&gt;Node17 -->
<g id="edge79" class="edge">
<title>Node41&#45;&gt;Node17</title>
<path fill="none" stroke="midnightblue" d="M1910.89,-182.3C1895.52,-181.08 1879.19,-179.9 1864,-179 1438.66,-153.93 1329.74,-187.6 906,-143 854.41,-137.57 842.33,-130.51 791,-123 644.84,-101.62 469.4,-82.99 398.29,-75.74"/>
<polygon fill="midnightblue" stroke="midnightblue" points="398.48,-72.24 388.18,-74.71 397.77,-79.2 398.48,-72.24"/>
</g>
<!-- Node41&#45;&gt;Node24 -->
<g id="edge80" class="edge">
<title>Node41&#45;&gt;Node24</title>
<path fill="none" stroke="midnightblue" d="M1934.49,-179.44C1888.59,-169.98 1814.62,-154.74 1765.17,-144.55"/>
<polygon fill="midnightblue" stroke="midnightblue" points="1765.82,-141.11 1755.32,-142.52 1764.41,-147.96 1765.82,-141.11"/>
</g>
<!-- Node41&#45;&gt;Node25 -->
<g id="edge84" class="edge">
<title>Node41&#45;&gt;Node25</title>
<path fill="none" stroke="midnightblue" d="M1947.1,-179.43C1920.42,-171.19 1879.92,-157.82 1846,-143 1811.07,-127.74 1772.83,-106.82 1746.54,-91.73"/>
<polygon fill="midnightblue" stroke="midnightblue" points="1748.17,-88.64 1737.76,-86.66 1744.67,-94.7 1748.17,-88.64"/>
</g>
<!-- Node42 -->
<g id="node42" class="node">
<title>Node42</title>
<g id="a_node42"><a xlink:href="giraffe__assert_8hpp.html" target="_top" xlink:title="For absolute failures in the code.">
<polygon fill="none" stroke="black" points="1995,-123.5 1995,-142.5 2099,-142.5 2099,-123.5 1995,-123.5"/>
<text text-anchor="middle" x="2047" y="-130.5" font-family="Helvetica,sans-Serif" font-size="10.00">giraffe_assert.hpp</text>
</a>
</g>
</g>
<!-- Node41&#45;&gt;Node42 -->
<g id="edge81" class="edge">
<title>Node41&#45;&gt;Node42</title>
<path fill="none" stroke="midnightblue" d="M1987.41,-179.32C1998.11,-171.18 2014.34,-158.84 2027.16,-149.09"/>
<polygon fill="midnightblue" stroke="midnightblue" points="2029.54,-151.67 2035.39,-142.83 2025.31,-146.1 2029.54,-151.67"/>
</g>
<!-- Node45 -->
<g id="node45" class="node">
<title>Node45</title>
<g id="a_node45"><a xlink:href="giraffe__exception_8hpp.html" target="_top" xlink:title="Common exception for Giraffe.">
<polygon fill="none" stroke="black" points="1855,-123.5 1855,-142.5 1977,-142.5 1977,-123.5 1855,-123.5"/>
<text text-anchor="middle" x="1916" y="-130.5" font-family="Helvetica,sans-Serif" font-size="10.00">giraffe_exception.hpp</text>
</a>
</g>
</g>
<!-- Node41&#45;&gt;Node45 -->
<g id="edge85" class="edge">
<title>Node41&#45;&gt;Node45</title>
<path fill="none" stroke="midnightblue" d="M1966.36,-179.32C1957.49,-171.34 1944.13,-159.31 1933.39,-149.65"/>
<polygon fill="midnightblue" stroke="midnightblue" points="1935.59,-146.92 1925.82,-142.83 1930.91,-152.13 1935.59,-146.92"/>
</g>
<!-- Node43 -->
<g id="node43" class="node">
<title>Node43</title>
<g id="a_node43"><a xlink:title=" ">
<polygon fill="none" stroke="#bfbfbf" points="1918.5,-62 1918.5,-81 1983.5,-81 1983.5,-62 1918.5,-62"/>
<text text-anchor="middle" x="1951" y="-69" font-family="Helvetica,sans-Serif" font-size="10.00">exception</text>
</a>
</g>
</g>
<!-- Node42&#45;&gt;Node43 -->
<g id="edge82" class="edge">
<title>Node42&#45;&gt;Node43</title>
<path fill="none" stroke="midnightblue" d="M2033.25,-123.48C2017.63,-113.8 1991.94,-97.87 1973.42,-86.39"/>
<polygon fill="midnightblue" stroke="midnightblue" points="1975.07,-83.3 1964.73,-81.01 1971.38,-89.25 1975.07,-83.3"/>
</g>
<!-- Node44 -->
<g id="node44" class="node">
<title>Node44</title>
<g id="a_node44"><a xlink:title=" ">
<polygon fill="none" stroke="#bfbfbf" points="2022,-62 2022,-81 2072,-81 2072,-62 2022,-62"/>
<text text-anchor="middle" x="2047" y="-69" font-family="Helvetica,sans-Serif" font-size="10.00">stdio.h</text>
</a>
</g>
</g>
<!-- Node42&#45;&gt;Node44 -->
<g id="edge83" class="edge">
<title>Node42&#45;&gt;Node44</title>
<path fill="none" stroke="midnightblue" d="M2047,-123.48C2047,-115.08 2047,-101.98 2047,-91.16"/>
<polygon fill="midnightblue" stroke="midnightblue" points="2050.5,-91.01 2047,-81.01 2043.5,-91.01 2050.5,-91.01"/>
</g>
<!-- Node45&#45;&gt;Node17 -->
<g id="edge87" class="edge">
<title>Node45&#45;&gt;Node17</title>
<path fill="none" stroke="midnightblue" d="M1854.93,-127.81C1828.79,-126.13 1797.91,-124.28 1770,-123 1243.65,-98.79 1111.3,-112.41 585,-87 518.51,-83.79 440.78,-78.21 398.12,-74.99"/>
<polygon fill="midnightblue" stroke="midnightblue" points="398.29,-71.49 388.06,-74.22 397.76,-78.47 398.29,-71.49"/>
</g>
<!-- Node45&#45;&gt;Node25 -->
<g id="edge88" class="edge">
<title>Node45&#45;&gt;Node25</title>
<path fill="none" stroke="midnightblue" d="M1887.06,-123.48C1857.02,-114.63 1809.22,-100.55 1771.47,-89.43"/>
<polygon fill="midnightblue" stroke="midnightblue" points="1772.19,-85.99 1761.61,-86.52 1770.21,-92.71 1772.19,-85.99"/>
</g>
<!-- Node45&#45;&gt;Node43 -->
<g id="edge86" class="edge">
<title>Node45&#45;&gt;Node43</title>
<path fill="none" stroke="midnightblue" d="M1921.01,-123.48C1926.16,-114.73 1934.31,-100.87 1940.82,-89.81"/>
<polygon fill="midnightblue" stroke="midnightblue" points="1943.94,-91.4 1945.99,-81.01 1937.91,-87.85 1943.94,-91.4"/>
</g>
</g>
</svg>
