<?xml version="1.0" encoding="UTF-8" standalone="no"?>
<!DOCTYPE svg PUBLIC "-//W3C//DTD SVG 1.1//EN"
 "http://www.w3.org/Graphics/SVG/1.1/DTD/svg11.dtd">
<!-- Generated by graphviz version 2.43.0 (0)
 -->
<!-- Title: samm8q.hpp Pages: 1 -->
<svg width="1996pt" height="543pt"
 viewBox="0.00 0.00 1995.89 543.00" xmlns="http://www.w3.org/2000/svg" xmlns:xlink="http://www.w3.org/1999/xlink">
<g id="graph0" class="graph" transform="scale(1 1) rotate(0) translate(4 539)">
<title>samm8q.hpp</title>
<!-- Node1 -->
<g id="node1" class="node">
<title>Node1</title>
<g id="a_node1"><a xlink:title="SAM&#45;M8Q GPS extension (I2C).">
<polygon fill="#bfbfbf" stroke="black" points="1033.89,-515.5 1033.89,-534.5 1113.89,-534.5 1113.89,-515.5 1033.89,-515.5"/>
<text text-anchor="middle" x="1073.89" y="-522.5" font-family="Helvetica,sans-Serif" font-size="10.00">samm8q.hpp</text>
</a>
</g>
</g>
<!-- Node2 -->
<g id="node2" class="node">
<title>Node2</title>
<g id="a_node2"><a xlink:title=" ">
<polygon fill="none" stroke="#bfbfbf" points="398.39,-459.5 398.39,-478.5 523.39,-478.5 523.39,-459.5 398.39,-459.5"/>
<text text-anchor="middle" x="460.89" y="-466.5" font-family="Helvetica,sans-Serif" font-size="10.00">BoosterSeat/timer.hpp</text>
</a>
</g>
</g>
<!-- Node1&#45;&gt;Node2 -->
<g id="edge1" class="edge">
<title>Node1&#45;&gt;Node2</title>
<path fill="none" stroke="midnightblue" d="M1033.84,-521.09C944.67,-514.5 723.03,-497.59 537.89,-479 536.43,-478.85 534.95,-478.7 533.46,-478.55"/>
<polygon fill="midnightblue" stroke="midnightblue" points="533.8,-475.07 523.49,-477.49 533.06,-482.03 533.8,-475.07"/>
</g>
<!-- Node3 -->
<g id="node3" class="node">
<title>Node3</title>
<g id="a_node3"><a xlink:href="extension__base_8hpp.html" target="_top" xlink:title="The new implementation of the extension system.">
<polygon fill="none" stroke="black" points="1623.89,-459.5 1623.89,-478.5 1737.89,-478.5 1737.89,-459.5 1623.89,-459.5"/>
<text text-anchor="middle" x="1680.89" y="-466.5" font-family="Helvetica,sans-Serif" font-size="10.00">extension_base.hpp</text>
</a>
</g>
</g>
<!-- Node1&#45;&gt;Node3 -->
<g id="edge2" class="edge">
<title>Node1&#45;&gt;Node3</title>
<path fill="none" stroke="midnightblue" d="M1113.95,-521.22C1203.15,-514.9 1424.85,-498.49 1609.89,-479 1611,-478.88 1612.13,-478.76 1613.25,-478.64"/>
<polygon fill="midnightblue" stroke="midnightblue" points="1614.02,-482.08 1623.56,-477.48 1613.24,-475.12 1614.02,-482.08"/>
</g>
<!-- Node21 -->
<g id="node21" class="node">
<title>Node21</title>
<g id="a_node21"><a xlink:href="positional_8hpp.html" target="_top" xlink:title="Positional data for the flight system (gps/imu data)">
<polygon fill="none" stroke="black" points="1755.89,-123.5 1755.89,-142.5 1841.89,-142.5 1841.89,-123.5 1755.89,-123.5"/>
<text text-anchor="middle" x="1798.89" y="-130.5" font-family="Helvetica,sans-Serif" font-size="10.00">positional.hpp</text>
</a>
</g>
</g>
<!-- Node1&#45;&gt;Node21 -->
<g id="edge80" class="edge">
<title>Node1&#45;&gt;Node21</title>
<path fill="none" stroke="midnightblue" d="M1113.99,-524.07C1236.22,-523.24 1595.89,-512.4 1595.89,-414 1595.89,-414 1595.89,-414 1595.89,-244 1595.89,-206.68 1703.32,-165.44 1761.87,-145.74"/>
<polygon fill="midnightblue" stroke="midnightblue" points="1763.12,-149.01 1771.51,-142.54 1760.92,-142.37 1763.12,-149.01"/>
</g>
<!-- Node37 -->
<g id="node37" class="node">
<title>Node37</title>
<g id="a_node37"><a xlink:href="i2c__interface_8hpp.html" target="_top" xlink:title="A wrapper around I2C communication.">
<polygon fill="none" stroke="black" points="247.39,-235.5 247.39,-254.5 348.39,-254.5 348.39,-235.5 247.39,-235.5"/>
<text text-anchor="middle" x="297.89" y="-242.5" font-family="Helvetica,sans-Serif" font-size="10.00">i2c_interface.hpp</text>
</a>
</g>
</g>
<!-- Node1&#45;&gt;Node37 -->
<g id="edge64" class="edge">
<title>Node1&#45;&gt;Node37</title>
<path fill="none" stroke="midnightblue" d="M1033.8,-524.07C911.57,-523.24 551.89,-512.4 551.89,-414 551.89,-414 551.89,-414 551.89,-356 551.89,-272.24 434.14,-251.54 358.99,-246.87"/>
<polygon fill="midnightblue" stroke="midnightblue" points="358.86,-243.35 348.68,-246.31 358.48,-250.34 358.86,-243.35"/>
</g>
<!-- Node4 -->
<g id="node4" class="node">
<title>Node4</title>
<g id="a_node4"><a xlink:title=" ">
<polygon fill="none" stroke="#bfbfbf" points="1935.89,-123.5 1935.89,-142.5 1985.89,-142.5 1985.89,-123.5 1935.89,-123.5"/>
<text text-anchor="middle" x="1960.89" y="-130.5" font-family="Helvetica,sans-Serif" font-size="10.00">atomic</text>
</a>
</g>
</g>
<!-- Node3&#45;&gt;Node4 -->
<g id="edge3" class="edge">
<title>Node3&#45;&gt;Node4</title>
<path fill="none" stroke="midnightblue" d="M1737.92,-459.52C1826.7,-444.68 1987.89,-410.51 1987.89,-358 1987.89,-358 1987.89,-358 1987.89,-244 1987.89,-210.86 1976.19,-173.68 1968.19,-152.14"/>
<polygon fill="midnightblue" stroke="midnightblue" points="1971.4,-150.73 1964.53,-142.66 1964.87,-153.25 1971.4,-150.73"/>
</g>
<!-- Node5 -->
<g id="node5" class="node">
<title>Node5</title>
<g id="a_node5"><a xlink:title=" ">
<polygon fill="none" stroke="#bfbfbf" points="1656.89,-403.5 1656.89,-422.5 1704.89,-422.5 1704.89,-403.5 1656.89,-403.5"/>
<text text-anchor="middle" x="1680.89" y="-410.5" font-family="Helvetica,sans-Serif" font-size="10.00">thread</text>
</a>
</g>
</g>
<!-- Node3&#45;&gt;Node5 -->
<g id="edge4" class="edge">
<title>Node3&#45;&gt;Node5</title>
<path fill="none" stroke="midnightblue" d="M1680.89,-459.08C1680.89,-452.01 1680.89,-441.86 1680.89,-432.99"/>
<polygon fill="midnightblue" stroke="midnightblue" points="1684.39,-432.75 1680.89,-422.75 1677.39,-432.75 1684.39,-432.75"/>
</g>
<!-- Node6 -->
<g id="node6" class="node">
<title>Node6</title>
<g id="a_node6"><a xlink:href="cfg__extensions_8hpp.html" target="_top" xlink:title="The header file for the extensions section of the configuration.">
<polygon fill="none" stroke="black" points="1297.39,-403.5 1297.39,-422.5 1452.39,-422.5 1452.39,-403.5 1297.39,-403.5"/>
<text text-anchor="middle" x="1374.89" y="-410.5" font-family="Helvetica,sans-Serif" font-size="10.00">sections/cfg_extensions.hpp</text>
</a>
</g>
</g>
<!-- Node3&#45;&gt;Node6 -->
<g id="edge5" class="edge">
<title>Node3&#45;&gt;Node6</title>
<path fill="none" stroke="midnightblue" d="M1632.4,-459.44C1578.35,-449.9 1490.96,-434.48 1433.22,-424.29"/>
<polygon fill="midnightblue" stroke="midnightblue" points="1433.61,-420.81 1423.15,-422.52 1432.39,-427.7 1433.61,-420.81"/>
</g>
<!-- Node9 -->
<g id="node9" class="node">
<title>Node9</title>
<g id="a_node9"><a xlink:href="shared__data_8hpp.html" target="_top" xlink:title="Contains the SharedData struct, used across all modules and extensions.">
<polygon fill="none" stroke="black" points="1325.89,-291.5 1325.89,-310.5 1423.89,-310.5 1423.89,-291.5 1325.89,-291.5"/>
<text text-anchor="middle" x="1374.89" y="-298.5" font-family="Helvetica,sans-Serif" font-size="10.00">shared_data.hpp</text>
</a>
</g>
</g>
<!-- Node3&#45;&gt;Node9 -->
<g id="edge62" class="edge">
<title>Node3&#45;&gt;Node9</title>
<path fill="none" stroke="midnightblue" d="M1664.87,-459.31C1614.68,-432.08 1460.22,-348.29 1399.64,-315.43"/>
<polygon fill="midnightblue" stroke="midnightblue" points="1401.21,-312.3 1390.75,-310.61 1397.87,-318.45 1401.21,-312.3"/>
</g>
<!-- Node36 -->
<g id="node36" class="node">
<title>Node36</title>
<g id="a_node36"><a xlink:href="status__led_8hpp.html" target="_top" xlink:title="RGB Status LED extension header file.">
<polygon fill="none" stroke="black" points="1871.89,-235.5 1871.89,-254.5 1959.89,-254.5 1959.89,-235.5 1871.89,-235.5"/>
<text text-anchor="middle" x="1915.89" y="-242.5" font-family="Helvetica,sans-Serif" font-size="10.00">status_led.hpp</text>
</a>
</g>
</g>
<!-- Node3&#45;&gt;Node36 -->
<g id="edge63" class="edge">
<title>Node3&#45;&gt;Node36</title>
<path fill="none" stroke="midnightblue" d="M1690.1,-459.3C1725.57,-425.8 1853.56,-304.88 1899.41,-261.57"/>
<polygon fill="midnightblue" stroke="midnightblue" points="1901.88,-264.05 1906.74,-254.64 1897.07,-258.97 1901.88,-264.05"/>
</g>
<!-- Node7 -->
<g id="node7" class="node">
<title>Node7</title>
<g id="a_node7"><a xlink:href="configuration__enums_8hpp.html" target="_top" xlink:title=" ">
<polygon fill="none" stroke="black" points="351.89,-179.5 351.89,-198.5 491.89,-198.5 491.89,-179.5 351.89,-179.5"/>
<text text-anchor="middle" x="421.89" y="-186.5" font-family="Helvetica,sans-Serif" font-size="10.00">configuration_enums.hpp</text>
</a>
</g>
</g>
<!-- Node6&#45;&gt;Node7 -->
<g id="edge6" class="edge">
<title>Node6&#45;&gt;Node7</title>
<path fill="none" stroke="midnightblue" d="M1320.92,-403.47C1194.96,-383.01 872.31,-327.43 608.89,-255 553.15,-239.67 489.94,-216.43 453.13,-202.29"/>
<polygon fill="midnightblue" stroke="midnightblue" points="454.07,-198.9 443.48,-198.55 451.54,-205.43 454.07,-198.9"/>
</g>
<!-- Node8 -->
<g id="node8" class="node">
<title>Node8</title>
<g id="a_node8"><a xlink:href="cfg__section_8hpp.html" target="_top" xlink:title="This file contains the base class for all configuration sections.">
<polygon fill="none" stroke="black" points="1306.39,-347.5 1306.39,-366.5 1443.39,-366.5 1443.39,-347.5 1306.39,-347.5"/>
<text text-anchor="middle" x="1374.89" y="-354.5" font-family="Helvetica,sans-Serif" font-size="10.00">sections/cfg_section.hpp</text>
</a>
</g>
</g>
<!-- Node6&#45;&gt;Node8 -->
<g id="edge7" class="edge">
<title>Node6&#45;&gt;Node8</title>
<path fill="none" stroke="midnightblue" d="M1374.89,-403.08C1374.89,-396.01 1374.89,-385.86 1374.89,-376.99"/>
<polygon fill="midnightblue" stroke="midnightblue" points="1378.39,-376.75 1374.89,-366.75 1371.39,-376.75 1378.39,-376.75"/>
</g>
<!-- Node8&#45;&gt;Node9 -->
<g id="edge8" class="edge">
<title>Node8&#45;&gt;Node9</title>
<path fill="none" stroke="midnightblue" d="M1374.89,-347.08C1374.89,-340.01 1374.89,-329.86 1374.89,-320.99"/>
<polygon fill="midnightblue" stroke="midnightblue" points="1378.39,-320.75 1374.89,-310.75 1371.39,-320.75 1378.39,-320.75"/>
</g>
<!-- Node10 -->
<g id="node10" class="node">
<title>Node10</title>
<g id="a_node10"><a xlink:title=" ">
<polygon fill="none" stroke="#bfbfbf" points="1389.39,-62 1389.39,-81 1514.39,-81 1514.39,-62 1389.39,-62"/>
<text text-anchor="middle" x="1451.89" y="-69" font-family="Helvetica,sans-Serif" font-size="10.00">BoosterSeat/clock.hpp</text>
</a>
</g>
</g>
<!-- Node9&#45;&gt;Node10 -->
<g id="edge9" class="edge">
<title>Node9&#45;&gt;Node10</title>
<path fill="none" stroke="midnightblue" d="M1382.32,-291.27C1389.35,-282.6 1399.71,-268.66 1405.89,-255 1431.45,-198.55 1444.38,-125.59 1449.37,-91.55"/>
<polygon fill="midnightblue" stroke="midnightblue" points="1452.9,-91.62 1450.81,-81.23 1445.96,-90.65 1452.9,-91.62"/>
</g>
<!-- Node11 -->
<g id="node11" class="node">
<title>Node11</title>
<g id="a_node11"><a xlink:title=" ">
<polygon fill="none" stroke="#bfbfbf" points="1826.89,-62 1826.89,-81 1948.89,-81 1948.89,-62 1826.89,-62"/>
<text text-anchor="middle" x="1887.89" y="-69" font-family="Helvetica,sans-Serif" font-size="10.00">BoosterSeat/time.hpp</text>
</a>
</g>
</g>
<!-- Node9&#45;&gt;Node11 -->
<g id="edge10" class="edge">
<title>Node9&#45;&gt;Node11</title>
<path fill="none" stroke="midnightblue" d="M1424.06,-299.85C1524.38,-296.73 1753.26,-274.68 1872.89,-143 1885.62,-128.99 1888.54,-106.92 1888.81,-91.21"/>
<polygon fill="midnightblue" stroke="midnightblue" points="1892.3,-91.03 1888.63,-81.09 1885.3,-91.15 1892.3,-91.03"/>
</g>
<!-- Node12 -->
<g id="node12" class="node">
<title>Node12</title>
<g id="a_node12"><a xlink:href="blocks_8hpp.html" target="_top" xlink:title=" ">
<polygon fill="none" stroke="black" points="1480.39,-179.5 1480.39,-198.5 1549.39,-198.5 1549.39,-179.5 1480.39,-179.5"/>
<text text-anchor="middle" x="1514.89" y="-186.5" font-family="Helvetica,sans-Serif" font-size="10.00">blocks.hpp</text>
</a>
</g>
</g>
<!-- Node9&#45;&gt;Node12 -->
<g id="edge11" class="edge">
<title>Node9&#45;&gt;Node12</title>
<path fill="none" stroke="midnightblue" d="M1399.49,-291.46C1418.9,-283.92 1445.94,-271.53 1465.89,-255 1482.16,-241.52 1496.14,-221.62 1504.95,-207.39"/>
<polygon fill="midnightblue" stroke="midnightblue" points="1508.08,-208.98 1510.19,-198.6 1502.07,-205.39 1508.08,-208.98"/>
</g>
<!-- Node22 -->
<g id="node22" class="node">
<title>Node22</title>
<g id="a_node22"><a xlink:href="error__frame_8hpp.html" target="_top" xlink:title="The error frame.">
<polygon fill="none" stroke="black" points="1070.39,-235.5 1070.39,-254.5 1165.39,-254.5 1165.39,-235.5 1070.39,-235.5"/>
<text text-anchor="middle" x="1117.89" y="-242.5" font-family="Helvetica,sans-Serif" font-size="10.00">error_frame.hpp</text>
</a>
</g>
</g>
<!-- Node9&#45;&gt;Node22 -->
<g id="edge30" class="edge">
<title>Node9&#45;&gt;Node22</title>
<path fill="none" stroke="midnightblue" d="M1334.17,-291.44C1289.24,-282 1216.89,-266.8 1168.39,-256.61"/>
<polygon fill="midnightblue" stroke="midnightblue" points="1168.93,-253.15 1158.42,-254.52 1167.49,-260 1168.93,-253.15"/>
</g>
<!-- Node23 -->
<g id="node23" class="node">
<title>Node23</title>
<g id="a_node23"><a xlink:href="frame_8hpp.html" target="_top" xlink:title=" ">
<polygon fill="none" stroke="black" points="613.39,-179.5 613.39,-198.5 680.39,-198.5 680.39,-179.5 613.39,-179.5"/>
<text text-anchor="middle" x="646.89" y="-186.5" font-family="Helvetica,sans-Serif" font-size="10.00">frame.hpp</text>
</a>
</g>
</g>
<!-- Node9&#45;&gt;Node23 -->
<g id="edge55" class="edge">
<title>Node9&#45;&gt;Node23</title>
<path fill="none" stroke="midnightblue" d="M1325.71,-293.42C1213.59,-278.27 930.5,-239.1 694.89,-199 693.43,-198.75 691.94,-198.49 690.44,-198.23"/>
<polygon fill="midnightblue" stroke="midnightblue" points="690.9,-194.76 680.44,-196.44 689.66,-201.65 690.9,-194.76"/>
</g>
<!-- Node26 -->
<g id="node26" class="node">
<title>Node26</title>
<g id="a_node26"><a xlink:href="streams_8hpp.html" target="_top" xlink:title="The header file for the data streams.">
<polygon fill="none" stroke="black" points="1079.39,-179.5 1079.39,-198.5 1156.39,-198.5 1156.39,-179.5 1079.39,-179.5"/>
<text text-anchor="middle" x="1117.89" y="-186.5" font-family="Helvetica,sans-Serif" font-size="10.00">streams.hpp</text>
</a>
</g>
</g>
<!-- Node9&#45;&gt;Node26 -->
<g id="edge61" class="edge">
<title>Node9&#45;&gt;Node26</title>
<path fill="none" stroke="midnightblue" d="M1354.73,-291.37C1309.59,-272.05 1200.27,-225.26 1147.44,-202.65"/>
<polygon fill="midnightblue" stroke="midnightblue" points="1148.53,-199.31 1137.96,-198.59 1145.78,-205.74 1148.53,-199.31"/>
</g>
<!-- Node33 -->
<g id="node33" class="node">
<title>Node33</title>
<g id="a_node33"><a xlink:href="flight__phase_8hpp.html" target="_top" xlink:title="Contains the flight phase enum and related functions.">
<polygon fill="none" stroke="black" points="1300.39,-235.5 1300.39,-254.5 1397.39,-254.5 1397.39,-235.5 1300.39,-235.5"/>
<text text-anchor="middle" x="1348.89" y="-242.5" font-family="Helvetica,sans-Serif" font-size="10.00">flight_phase.hpp</text>
</a>
</g>
</g>
<!-- Node9&#45;&gt;Node33 -->
<g id="edge53" class="edge">
<title>Node9&#45;&gt;Node33</title>
<path fill="none" stroke="midnightblue" d="M1370.6,-291.08C1367.04,-283.69 1361.87,-272.95 1357.47,-263.81"/>
<polygon fill="midnightblue" stroke="midnightblue" points="1360.6,-262.24 1353.11,-254.75 1354.29,-265.28 1360.6,-262.24"/>
</g>
<!-- Node34 -->
<g id="node34" class="node">
<title>Node34</title>
<g id="a_node34"><a xlink:href="log__container_8hpp.html" target="_top" xlink:title="A simple logging system for debugging.">
<polygon fill="none" stroke="black" points="618.39,-235.5 618.39,-254.5 721.39,-254.5 721.39,-235.5 618.39,-235.5"/>
<text text-anchor="middle" x="669.89" y="-242.5" font-family="Helvetica,sans-Serif" font-size="10.00">log_container.hpp</text>
</a>
</g>
</g>
<!-- Node9&#45;&gt;Node34 -->
<g id="edge56" class="edge">
<title>Node9&#45;&gt;Node34</title>
<path fill="none" stroke="midnightblue" d="M1325.88,-296.25C1200.67,-286.66 869.25,-261.27 731.4,-250.71"/>
<polygon fill="midnightblue" stroke="midnightblue" points="731.66,-247.22 721.42,-249.95 731.12,-254.2 731.66,-247.22"/>
</g>
<!-- Node9&#45;&gt;Node36 -->
<g id="edge59" class="edge">
<title>Node9&#45;&gt;Node36</title>
<path fill="none" stroke="midnightblue" d="M1424.02,-296.42C1511.45,-289.82 1699.72,-274.62 1857.89,-255 1859.14,-254.84 1860.41,-254.68 1861.69,-254.52"/>
<polygon fill="midnightblue" stroke="midnightblue" points="1862.17,-257.98 1871.6,-253.16 1861.21,-251.05 1862.17,-257.98"/>
</g>
<!-- Node12&#45;&gt;Node10 -->
<g id="edge13" class="edge">
<title>Node12&#45;&gt;Node10</title>
<path fill="none" stroke="midnightblue" d="M1510.16,-179.32C1499.85,-160.42 1475.21,-115.25 1461.5,-90.12"/>
<polygon fill="midnightblue" stroke="midnightblue" points="1464.54,-88.38 1456.68,-81.28 1458.4,-91.74 1464.54,-88.38"/>
</g>
<!-- Node12&#45;&gt;Node11 -->
<g id="edge15" class="edge">
<title>Node12&#45;&gt;Node11</title>
<path fill="none" stroke="midnightblue" d="M1549.45,-187.32C1625.16,-185.2 1802.72,-176.69 1850.89,-143 1868.38,-130.77 1878.23,-107.65 1883.3,-91.23"/>
<polygon fill="midnightblue" stroke="midnightblue" points="1886.79,-91.71 1886.07,-81.14 1880.04,-89.85 1886.79,-91.71"/>
</g>
<!-- Node12&#45;&gt;Node12 -->
<g id="edge16" class="edge">
<title>Node12&#45;&gt;Node12</title>
<path fill="none" stroke="midnightblue" d="M1537.28,-198.53C1552.5,-201.31 1567.39,-198.13 1567.39,-189 1567.39,-181.94 1558.48,-178.44 1547.41,-178.5"/>
<polygon fill="midnightblue" stroke="midnightblue" points="1546.9,-175.03 1537.28,-179.47 1547.57,-182 1546.9,-175.03"/>
</g>
<!-- Node13 -->
<g id="node13" class="node">
<title>Node13</title>
<g id="a_node13"><a xlink:title=" ">
<polygon fill="none" stroke="#bfbfbf" points="568.89,-62 568.89,-81 616.89,-81 616.89,-62 568.89,-62"/>
<text text-anchor="middle" x="592.89" y="-69" font-family="Helvetica,sans-Serif" font-size="10.00">mutex</text>
</a>
</g>
</g>
<!-- Node12&#45;&gt;Node13 -->
<g id="edge12" class="edge">
<title>Node12&#45;&gt;Node13</title>
<path fill="none" stroke="midnightblue" d="M1479.93,-180.08C1417.32,-166.22 1281.76,-137.64 1165.89,-123 929.46,-93.13 863.68,-138.04 630.89,-87 627.82,-86.33 624.66,-85.45 621.55,-84.46"/>
<polygon fill="midnightblue" stroke="midnightblue" points="622.48,-81.07 611.88,-81.01 620.13,-87.67 622.48,-81.07"/>
</g>
<!-- Node14 -->
<g id="node14" class="node">
<title>Node14</title>
<g id="a_node14"><a xlink:title=" ">
<polygon fill="none" stroke="#bfbfbf" points="1518.39,-123.5 1518.39,-142.5 1661.39,-142.5 1661.39,-123.5 1518.39,-123.5"/>
<text text-anchor="middle" x="1589.89" y="-130.5" font-family="Helvetica,sans-Serif" font-size="10.00">BoosterSeat/numbers.hpp</text>
</a>
</g>
</g>
<!-- Node12&#45;&gt;Node14 -->
<g id="edge14" class="edge">
<title>Node12&#45;&gt;Node14</title>
<path fill="none" stroke="midnightblue" d="M1526.94,-179.32C1538.35,-171.11 1555.72,-158.6 1569.33,-148.81"/>
<polygon fill="midnightblue" stroke="midnightblue" points="1571.55,-151.52 1577.62,-142.83 1567.46,-145.84 1571.55,-151.52"/>
</g>
<!-- Node15 -->
<g id="node15" class="node">
<title>Node15</title>
<g id="a_node15"><a xlink:href="json_8hpp.html" target="_top" xlink:title="Simple wrapper around nlohmann/json.hpp to provide a common interface.">
<polygon fill="none" stroke="black" points="1679.89,-123.5 1679.89,-142.5 1737.89,-142.5 1737.89,-123.5 1679.89,-123.5"/>
<text text-anchor="middle" x="1708.89" y="-130.5" font-family="Helvetica,sans-Serif" font-size="10.00">json.hpp</text>
</a>
</g>
</g>
<!-- Node12&#45;&gt;Node15 -->
<g id="edge17" class="edge">
<title>Node12&#45;&gt;Node15</title>
<path fill="none" stroke="midnightblue" d="M1545.63,-179.44C1579.32,-170.07 1633.45,-155 1670.05,-144.81"/>
<polygon fill="midnightblue" stroke="midnightblue" points="1671.18,-148.13 1679.88,-142.08 1669.31,-141.39 1671.18,-148.13"/>
</g>
<!-- Node18 -->
<g id="node18" class="node">
<title>Node18</title>
<g id="a_node18"><a xlink:href="node_8hpp.html" target="_top" xlink:title="Contains structures that are used to identify components of the flight system.">
<polygon fill="none" stroke="black" points="1194.89,-62 1194.89,-81 1256.89,-81 1256.89,-62 1194.89,-62"/>
<text text-anchor="middle" x="1225.89" y="-69" font-family="Helvetica,sans-Serif" font-size="10.00">node.hpp</text>
</a>
</g>
</g>
<!-- Node12&#45;&gt;Node18 -->
<g id="edge20" class="edge">
<title>Node12&#45;&gt;Node18</title>
<path fill="none" stroke="midnightblue" d="M1493.17,-179.32C1442.42,-159.03 1315.9,-108.47 1256.99,-84.93"/>
<polygon fill="midnightblue" stroke="midnightblue" points="1258.06,-81.59 1247.47,-81.12 1255.46,-88.09 1258.06,-81.59"/>
</g>
<!-- Node12&#45;&gt;Node21 -->
<g id="edge23" class="edge">
<title>Node12&#45;&gt;Node21</title>
<path fill="none" stroke="midnightblue" d="M1549.43,-181.43C1598.38,-172.13 1688.35,-155.02 1745.81,-144.09"/>
<polygon fill="midnightblue" stroke="midnightblue" points="1746.63,-147.5 1755.8,-142.19 1745.32,-140.62 1746.63,-147.5"/>
</g>
<!-- Node16 -->
<g id="node16" class="node">
<title>Node16</title>
<g id="a_node16"><a xlink:title=" ">
<polygon fill="none" stroke="#bfbfbf" points="1622.89,-62 1622.89,-81 1732.89,-81 1732.89,-62 1622.89,-62"/>
<text text-anchor="middle" x="1677.89" y="-69" font-family="Helvetica,sans-Serif" font-size="10.00">nlohmann/json.hpp</text>
</a>
</g>
</g>
<!-- Node15&#45;&gt;Node16 -->
<g id="edge18" class="edge">
<title>Node15&#45;&gt;Node16</title>
<path fill="none" stroke="midnightblue" d="M1704.45,-123.48C1699.94,-114.82 1692.82,-101.15 1687.08,-90.15"/>
<polygon fill="midnightblue" stroke="midnightblue" points="1690.05,-88.26 1682.32,-81.01 1683.84,-91.49 1690.05,-88.26"/>
</g>
<!-- Node17 -->
<g id="node17" class="node">
<title>Node17</title>
<g id="a_node17"><a xlink:title=" ">
<polygon fill="none" stroke="#bfbfbf" points="1276.89,-62 1276.89,-81 1320.89,-81 1320.89,-62 1276.89,-62"/>
<text text-anchor="middle" x="1298.89" y="-69" font-family="Helvetica,sans-Serif" font-size="10.00">string</text>
</a>
</g>
</g>
<!-- Node15&#45;&gt;Node17 -->
<g id="edge19" class="edge">
<title>Node15&#45;&gt;Node17</title>
<path fill="none" stroke="midnightblue" d="M1679.5,-124.7C1676.6,-124.09 1673.69,-123.5 1670.89,-123 1543.07,-100 1509.33,-106.31 1380.89,-87 1364.4,-84.52 1346.11,-81.33 1331.01,-78.57"/>
<polygon fill="midnightblue" stroke="midnightblue" points="1331.58,-75.12 1321.11,-76.75 1330.31,-82.01 1331.58,-75.12"/>
</g>
<!-- Node19 -->
<g id="node19" class="node">
<title>Node19</title>
<g id="a_node19"><a xlink:title=" ">
<polygon fill="none" stroke="#bfbfbf" points="1200.89,-0.5 1200.89,-19.5 1250.89,-19.5 1250.89,-0.5 1200.89,-0.5"/>
<text text-anchor="middle" x="1225.89" y="-7.5" font-family="Helvetica,sans-Serif" font-size="10.00">cstdint</text>
</a>
</g>
</g>
<!-- Node18&#45;&gt;Node19 -->
<g id="edge21" class="edge">
<title>Node18&#45;&gt;Node19</title>
<path fill="none" stroke="midnightblue" d="M1225.89,-61.98C1225.89,-53.58 1225.89,-40.48 1225.89,-29.66"/>
<polygon fill="midnightblue" stroke="midnightblue" points="1229.39,-29.51 1225.89,-19.51 1222.39,-29.51 1229.39,-29.51"/>
</g>
<!-- Node20 -->
<g id="node20" class="node">
<title>Node20</title>
<g id="a_node20"><a xlink:title=" ">
<polygon fill="none" stroke="#bfbfbf" points="1524.89,-0.5 1524.89,-19.5 1562.89,-19.5 1562.89,-0.5 1524.89,-0.5"/>
<text text-anchor="middle" x="1543.89" y="-7.5" font-family="Helvetica,sans-Serif" font-size="10.00">map</text>
</a>
</g>
</g>
<!-- Node18&#45;&gt;Node20 -->
<g id="edge22" class="edge">
<title>Node18&#45;&gt;Node20</title>
<path fill="none" stroke="midnightblue" d="M1248.35,-61.96C1254.61,-59.79 1261.46,-57.62 1267.89,-56 1356.45,-33.67 1463.89,-19.86 1514.65,-14.1"/>
<polygon fill="midnightblue" stroke="midnightblue" points="1515.04,-17.58 1524.59,-13 1514.26,-10.62 1515.04,-17.58"/>
</g>
<!-- Node21&#45;&gt;Node10 -->
<g id="edge28" class="edge">
<title>Node21&#45;&gt;Node10</title>
<path fill="none" stroke="midnightblue" d="M1755.76,-124.53C1752.76,-124.01 1749.78,-123.5 1746.89,-123 1665.45,-108.98 1571.33,-92.89 1511.73,-82.71"/>
<polygon fill="midnightblue" stroke="midnightblue" points="1512.19,-79.24 1501.74,-81.01 1511.01,-86.14 1512.19,-79.24"/>
</g>
<!-- Node21&#45;&gt;Node11 -->
<g id="edge29" class="edge">
<title>Node21&#45;&gt;Node11</title>
<path fill="none" stroke="midnightblue" d="M1811.64,-123.48C1825.92,-113.93 1849.29,-98.31 1866.4,-86.87"/>
<polygon fill="midnightblue" stroke="midnightblue" points="1868.8,-89.48 1875.16,-81.01 1864.91,-83.66 1868.8,-89.48"/>
</g>
<!-- Node21&#45;&gt;Node16 -->
<g id="edge27" class="edge">
<title>Node21&#45;&gt;Node16</title>
<path fill="none" stroke="midnightblue" d="M1781.56,-123.48C1761.34,-113.53 1727.7,-96.99 1704.25,-85.46"/>
<polygon fill="midnightblue" stroke="midnightblue" points="1705.71,-82.28 1695.2,-81.01 1702.63,-88.56 1705.71,-82.28"/>
</g>
<!-- Node21&#45;&gt;Node17 -->
<g id="edge26" class="edge">
<title>Node21&#45;&gt;Node17</title>
<path fill="none" stroke="midnightblue" d="M1755.8,-124.29C1752.79,-123.83 1749.8,-123.39 1746.89,-123 1584.92,-101.05 1542.82,-109.25 1380.89,-87 1364.37,-84.73 1346.08,-81.56 1330.98,-78.76"/>
<polygon fill="midnightblue" stroke="midnightblue" points="1331.57,-75.31 1321.09,-76.9 1330.27,-82.19 1331.57,-75.31"/>
</g>
<!-- Node21&#45;&gt;Node19 -->
<g id="edge24" class="edge">
<title>Node21&#45;&gt;Node19</title>
<path fill="none" stroke="midnightblue" d="M1795.18,-123.01C1787.79,-106.44 1769.57,-71.38 1741.89,-56 1700.05,-32.75 1370.89,-17.05 1261.27,-12.42"/>
<polygon fill="midnightblue" stroke="midnightblue" points="1261.21,-8.91 1251.07,-11.99 1260.91,-15.91 1261.21,-8.91"/>
</g>
<!-- Node21&#45;&gt;Node20 -->
<g id="edge25" class="edge">
<title>Node21&#45;&gt;Node20</title>
<path fill="none" stroke="midnightblue" d="M1798.86,-123.44C1798.3,-107.59 1794.71,-73.69 1774.89,-56 1745.39,-29.67 1628.4,-17.43 1573.12,-13.02"/>
<polygon fill="midnightblue" stroke="midnightblue" points="1573.17,-9.52 1562.93,-12.25 1572.64,-16.5 1573.17,-9.52"/>
</g>
<!-- Node22&#45;&gt;Node10 -->
<g id="edge31" class="edge">
<title>Node22&#45;&gt;Node10</title>
<path fill="none" stroke="midnightblue" d="M1134.45,-235.5C1188.54,-207.72 1360.27,-119.54 1425.98,-85.81"/>
<polygon fill="midnightblue" stroke="midnightblue" points="1427.93,-88.74 1435.23,-81.06 1424.73,-82.51 1427.93,-88.74"/>
</g>
<!-- Node22&#45;&gt;Node23 -->
<g id="edge32" class="edge">
<title>Node22&#45;&gt;Node23</title>
<path fill="none" stroke="midnightblue" d="M1070.16,-240.17C991.65,-233.58 830.44,-218.89 694.89,-199 693.42,-198.78 691.93,-198.56 690.43,-198.32"/>
<polygon fill="midnightblue" stroke="midnightblue" points="690.85,-194.84 680.4,-196.63 689.69,-201.74 690.85,-194.84"/>
</g>
<!-- Node25 -->
<g id="node25" class="node">
<title>Node25</title>
<g id="a_node25"><a xlink:href="giraffe__diagnostic__ids_8hpp.html" target="_top" xlink:title=" ">
<polygon fill="none" stroke="black" points="330.89,-56.5 330.89,-86.5 434.89,-86.5 434.89,-56.5 330.89,-56.5"/>
<text text-anchor="start" x="338.89" y="-74.5" font-family="Helvetica,sans-Serif" font-size="10.00">giraffe_diagnostic</text>
<text text-anchor="middle" x="382.89" y="-63.5" font-family="Helvetica,sans-Serif" font-size="10.00">_ids.hpp</text>
</a>
</g>
</g>
<!-- Node22&#45;&gt;Node25 -->
<g id="edge35" class="edge">
<title>Node22&#45;&gt;Node25</title>
<path fill="none" stroke="midnightblue" d="M1070.19,-237.04C951.38,-219.49 644.77,-172.67 545.89,-143 500.87,-129.49 451.67,-107.07 419.23,-91.14"/>
<polygon fill="midnightblue" stroke="midnightblue" points="420.64,-87.94 410.13,-86.63 417.53,-94.21 420.64,-87.94"/>
</g>
<!-- Node22&#45;&gt;Node26 -->
<g id="edge36" class="edge">
<title>Node22&#45;&gt;Node26</title>
<path fill="none" stroke="midnightblue" d="M1117.89,-235.08C1117.89,-228.01 1117.89,-217.86 1117.89,-208.99"/>
<polygon fill="midnightblue" stroke="midnightblue" points="1121.39,-208.75 1117.89,-198.75 1114.39,-208.75 1121.39,-208.75"/>
</g>
<!-- Node23&#45;&gt;Node13 -->
<g id="edge33" class="edge">
<title>Node23&#45;&gt;Node13</title>
<path fill="none" stroke="midnightblue" d="M638.5,-179.42C630.56,-170.86 618.86,-157 611.89,-143 603.6,-126.36 598.58,-105.66 595.79,-91"/>
<polygon fill="midnightblue" stroke="midnightblue" points="599.24,-90.4 594.09,-81.14 592.34,-91.59 599.24,-90.4"/>
</g>
<!-- Node24 -->
<g id="node24" class="node">
<title>Node24</title>
<g id="a_node24"><a xlink:title=" ">
<polygon fill="none" stroke="#bfbfbf" points="352.39,-123.5 352.39,-142.5 445.39,-142.5 445.39,-123.5 352.39,-123.5"/>
<text text-anchor="middle" x="398.89" y="-130.5" font-family="Helvetica,sans-Serif" font-size="10.00">unordered_map</text>
</a>
</g>
</g>
<!-- Node23&#45;&gt;Node24 -->
<g id="edge34" class="edge">
<title>Node23&#45;&gt;Node24</title>
<path fill="none" stroke="midnightblue" d="M613.19,-180.66C570.65,-171.4 497.16,-155.4 448.29,-144.76"/>
<polygon fill="midnightblue" stroke="midnightblue" points="448.77,-141.28 438.25,-142.57 447.28,-148.12 448.77,-141.28"/>
</g>
<!-- Node26&#45;&gt;Node4 -->
<g id="edge37" class="edge">
<title>Node26&#45;&gt;Node4</title>
<path fill="none" stroke="midnightblue" d="M1156.45,-185.91C1265.51,-179.94 1585.42,-162.01 1850.89,-143 1875.86,-141.21 1903.98,-138.91 1925.55,-137.08"/>
<polygon fill="midnightblue" stroke="midnightblue" points="1925.9,-140.56 1935.56,-136.22 1925.3,-133.58 1925.9,-140.56"/>
</g>
<!-- Node26&#45;&gt;Node10 -->
<g id="edge42" class="edge">
<title>Node26&#45;&gt;Node10</title>
<path fill="none" stroke="midnightblue" d="M1142.72,-179.41C1201.54,-159.07 1349.47,-107.92 1417.13,-84.52"/>
<polygon fill="midnightblue" stroke="midnightblue" points="1418.59,-87.72 1426.9,-81.14 1416.3,-81.1 1418.59,-87.72"/>
</g>
<!-- Node26&#45;&gt;Node13 -->
<g id="edge39" class="edge">
<title>Node26&#45;&gt;Node13</title>
<path fill="none" stroke="midnightblue" d="M1079.26,-187.38C983.77,-185.35 739.06,-176.88 665.89,-143 640.26,-131.13 618.1,-106.48 605.12,-89.71"/>
<polygon fill="midnightblue" stroke="midnightblue" points="607.67,-87.27 598.89,-81.34 602.05,-91.45 607.67,-87.27"/>
</g>
<!-- Node26&#45;&gt;Node17 -->
<g id="edge41" class="edge">
<title>Node26&#45;&gt;Node17</title>
<path fill="none" stroke="midnightblue" d="M1131.52,-179.39C1145.82,-170.35 1168.95,-155.71 1188.89,-143 1219.35,-123.59 1254.48,-101.04 1276.69,-86.78"/>
<polygon fill="midnightblue" stroke="midnightblue" points="1278.84,-89.56 1285.36,-81.2 1275.05,-83.67 1278.84,-89.56"/>
</g>
<!-- Node26&#45;&gt;Node18 -->
<g id="edge51" class="edge">
<title>Node26&#45;&gt;Node18</title>
<path fill="none" stroke="midnightblue" d="M1127.76,-179.34C1137.68,-170.5 1153.28,-156.23 1165.89,-143 1182.79,-125.27 1200.83,-103.67 1212.66,-89.09"/>
<polygon fill="midnightblue" stroke="midnightblue" points="1215.62,-91 1219.16,-81.01 1210.17,-86.61 1215.62,-91"/>
</g>
<!-- Node26&#45;&gt;Node21 -->
<g id="edge52" class="edge">
<title>Node26&#45;&gt;Node21</title>
<path fill="none" stroke="midnightblue" d="M1156.67,-186.58C1253.99,-182.71 1516.54,-170.51 1745.62,-143.03"/>
<polygon fill="midnightblue" stroke="midnightblue" points="1746.3,-146.48 1755.81,-141.8 1745.46,-139.53 1746.3,-146.48"/>
</g>
<!-- Node26&#45;&gt;Node25 -->
<g id="edge50" class="edge">
<title>Node26&#45;&gt;Node25</title>
<path fill="none" stroke="midnightblue" d="M1079.21,-186.8C996.6,-183.73 797.09,-173.51 632.89,-143 562.65,-129.95 483.59,-106.05 433.54,-89.73"/>
<polygon fill="midnightblue" stroke="midnightblue" points="434.52,-86.37 423.93,-86.57 432.33,-93.02 434.52,-86.37"/>
</g>
<!-- Node27 -->
<g id="node27" class="node">
<title>Node27</title>
<g id="a_node27"><a xlink:title=" ">
<polygon fill="none" stroke="#bfbfbf" points="833.89,-123.5 833.89,-142.5 893.89,-142.5 893.89,-123.5 833.89,-123.5"/>
<text text-anchor="middle" x="863.89" y="-130.5" font-family="Helvetica,sans-Serif" font-size="10.00">iostream</text>
</a>
</g>
</g>
<!-- Node26&#45;&gt;Node27 -->
<g id="edge38" class="edge">
<title>Node26&#45;&gt;Node27</title>
<path fill="none" stroke="midnightblue" d="M1079.39,-180.19C1038.35,-171.81 971.2,-157.94 904.02,-143.22"/>
<polygon fill="midnightblue" stroke="midnightblue" points="904.63,-139.77 894.11,-141.04 903.13,-146.6 904.63,-139.77"/>
</g>
<!-- Node28 -->
<g id="node28" class="node">
<title>Node28</title>
<g id="a_node28"><a xlink:title=" ">
<polygon fill="none" stroke="#bfbfbf" points="640.39,-62 640.39,-81 687.39,-81 687.39,-62 640.39,-62"/>
<text text-anchor="middle" x="663.89" y="-69" font-family="Helvetica,sans-Serif" font-size="10.00">queue</text>
</a>
</g>
</g>
<!-- Node26&#45;&gt;Node28 -->
<g id="edge40" class="edge">
<title>Node26&#45;&gt;Node28</title>
<path fill="none" stroke="midnightblue" d="M1079.1,-186.47C978.12,-182.14 712.77,-168.44 682.89,-143 668.13,-130.44 664.23,-107.73 663.47,-91.48"/>
<polygon fill="midnightblue" stroke="midnightblue" points="666.97,-90.99 663.37,-81.03 659.97,-91.06 666.97,-90.99"/>
</g>
<!-- Node29 -->
<g id="node29" class="node">
<title>Node29</title>
<g id="a_node29"><a xlink:title=" ">
<polygon fill="none" stroke="#bfbfbf" points="911.89,-123.5 911.89,-142.5 1059.89,-142.5 1059.89,-123.5 911.89,-123.5"/>
<text text-anchor="middle" x="985.89" y="-130.5" font-family="Helvetica,sans-Serif" font-size="10.00">BoosterSeat/exception.hpp</text>
</a>
</g>
</g>
<!-- Node26&#45;&gt;Node29 -->
<g id="edge43" class="edge">
<title>Node26&#45;&gt;Node29</title>
<path fill="none" stroke="midnightblue" d="M1096.98,-179.44C1075.16,-170.52 1040.74,-156.44 1016,-146.32"/>
<polygon fill="midnightblue" stroke="midnightblue" points="1017.29,-143.06 1006.71,-142.52 1014.64,-149.54 1017.29,-143.06"/>
</g>
<!-- Node30 -->
<g id="node30" class="node">
<title>Node30</title>
<g id="a_node30"><a xlink:href="command_8hpp.html" target="_top" xlink:title="The command/queue system for the flight system.">
<polygon fill="none" stroke="black" points="691.89,-123.5 691.89,-142.5 777.89,-142.5 777.89,-123.5 691.89,-123.5"/>
<text text-anchor="middle" x="734.89" y="-130.5" font-family="Helvetica,sans-Serif" font-size="10.00">command.hpp</text>
</a>
</g>
</g>
<!-- Node26&#45;&gt;Node30 -->
<g id="edge44" class="edge">
<title>Node26&#45;&gt;Node30</title>
<path fill="none" stroke="midnightblue" d="M1079.06,-182.53C1010.08,-172.8 866.11,-152.5 788.01,-141.49"/>
<polygon fill="midnightblue" stroke="midnightblue" points="788.3,-138 777.91,-140.06 787.32,-144.93 788.3,-138"/>
</g>
<!-- Node32 -->
<g id="node32" class="node">
<title>Node32</title>
<g id="a_node32"><a xlink:href="data__ids_8hpp.html" target="_top" xlink:title=" ">
<polygon fill="none" stroke="black" points="1078.39,-123.5 1078.39,-142.5 1157.39,-142.5 1157.39,-123.5 1078.39,-123.5"/>
<text text-anchor="middle" x="1117.89" y="-130.5" font-family="Helvetica,sans-Serif" font-size="10.00">data_ids.hpp</text>
</a>
</g>
</g>
<!-- Node26&#45;&gt;Node32 -->
<g id="edge49" class="edge">
<title>Node26&#45;&gt;Node32</title>
<path fill="none" stroke="midnightblue" d="M1117.89,-179.08C1117.89,-172.01 1117.89,-161.86 1117.89,-152.99"/>
<polygon fill="midnightblue" stroke="midnightblue" points="1121.39,-152.75 1117.89,-142.75 1114.39,-152.75 1121.39,-152.75"/>
</g>
<!-- Node30&#45;&gt;Node13 -->
<g id="edge45" class="edge">
<title>Node30&#45;&gt;Node13</title>
<path fill="none" stroke="midnightblue" d="M714.55,-123.48C690.5,-113.4 650.29,-96.55 622.73,-85"/>
<polygon fill="midnightblue" stroke="midnightblue" points="623.77,-81.65 613.2,-81.01 621.07,-88.1 623.77,-81.65"/>
</g>
<!-- Node30&#45;&gt;Node18 -->
<g id="edge48" class="edge">
<title>Node30&#45;&gt;Node18</title>
<path fill="none" stroke="midnightblue" d="M778.12,-124.98C782.77,-124.29 787.43,-123.61 791.89,-123 935.8,-103.27 1107.26,-84.8 1184.52,-76.75"/>
<polygon fill="midnightblue" stroke="midnightblue" points="1185.2,-80.19 1194.79,-75.68 1184.48,-73.23 1185.2,-80.19"/>
</g>
<!-- Node30&#45;&gt;Node28 -->
<g id="edge46" class="edge">
<title>Node30&#45;&gt;Node28</title>
<path fill="none" stroke="midnightblue" d="M724.72,-123.48C713.54,-114.11 695.37,-98.88 681.8,-87.51"/>
<polygon fill="midnightblue" stroke="midnightblue" points="683.96,-84.75 674.05,-81.01 679.46,-90.11 683.96,-84.75"/>
</g>
<!-- Node31 -->
<g id="node31" class="node">
<title>Node31</title>
<g id="a_node31"><a xlink:href="command__ids_8hpp.html" target="_top" xlink:title=" ">
<polygon fill="none" stroke="black" points="705.89,-62 705.89,-81 811.89,-81 811.89,-62 705.89,-62"/>
<text text-anchor="middle" x="758.89" y="-69" font-family="Helvetica,sans-Serif" font-size="10.00">command_ids.hpp</text>
</a>
</g>
</g>
<!-- Node30&#45;&gt;Node31 -->
<g id="edge47" class="edge">
<title>Node30&#45;&gt;Node31</title>
<path fill="none" stroke="midnightblue" d="M738.33,-123.48C741.79,-114.9 747.22,-101.43 751.64,-90.48"/>
<polygon fill="midnightblue" stroke="midnightblue" points="754.96,-91.59 755.46,-81.01 748.47,-88.97 754.96,-91.59"/>
</g>
<!-- Node33&#45;&gt;Node17 -->
<g id="edge54" class="edge">
<title>Node33&#45;&gt;Node17</title>
<path fill="none" stroke="midnightblue" d="M1346.34,-235.26C1338.55,-208.54 1314.93,-127.52 1304.24,-90.86"/>
<polygon fill="midnightblue" stroke="midnightblue" points="1307.53,-89.64 1301.38,-81.02 1300.81,-91.6 1307.53,-89.64"/>
</g>
<!-- Node34&#45;&gt;Node13 -->
<g id="edge58" class="edge">
<title>Node34&#45;&gt;Node13</title>
<path fill="none" stroke="midnightblue" d="M629.2,-235.44C594.87,-227.29 549.65,-214.07 538.89,-199 513.35,-163.22 552.46,-113.49 576.45,-88.37"/>
<polygon fill="midnightblue" stroke="midnightblue" points="579.07,-90.7 583.61,-81.13 574.09,-85.78 579.07,-90.7"/>
</g>
<!-- Node35 -->
<g id="node35" class="node">
<title>Node35</title>
<g id="a_node35"><a xlink:title=" ">
<polygon fill="none" stroke="#bfbfbf" points="548.39,-179.5 548.39,-198.5 595.39,-198.5 595.39,-179.5 548.39,-179.5"/>
<text text-anchor="middle" x="571.89" y="-186.5" font-family="Helvetica,sans-Serif" font-size="10.00">deque</text>
</a>
</g>
</g>
<!-- Node34&#45;&gt;Node35 -->
<g id="edge57" class="edge">
<title>Node34&#45;&gt;Node35</title>
<path fill="none" stroke="midnightblue" d="M654.15,-235.32C638.57,-226.74 614.51,-213.49 596.43,-203.52"/>
<polygon fill="midnightblue" stroke="midnightblue" points="598.05,-200.42 587.6,-198.65 594.67,-206.55 598.05,-200.42"/>
</g>
<!-- Node36&#45;&gt;Node4 -->
<g id="edge60" class="edge">
<title>Node36&#45;&gt;Node4</title>
<path fill="none" stroke="midnightblue" d="M1919.42,-235.37C1926.75,-217.46 1943.74,-175.92 1953.55,-151.95"/>
<polygon fill="midnightblue" stroke="midnightblue" points="1956.83,-153.17 1957.38,-142.59 1950.35,-150.52 1956.83,-153.17"/>
</g>
<!-- Node37&#45;&gt;Node7 -->
<g id="edge68" class="edge">
<title>Node37&#45;&gt;Node7</title>
<path fill="none" stroke="midnightblue" d="M317.54,-235.44C337.86,-226.6 369.79,-212.69 392.99,-202.59"/>
<polygon fill="midnightblue" stroke="midnightblue" points="394.56,-205.72 402.34,-198.52 391.77,-199.3 394.56,-205.72"/>
</g>
<!-- Node37&#45;&gt;Node13 -->
<g id="edge66" class="edge">
<title>Node37&#45;&gt;Node13</title>
<path fill="none" stroke="midnightblue" d="M300,-235.16C306.18,-209.92 325,-138.29 342.89,-123 374.97,-95.59 497.81,-81.01 558.52,-75.34"/>
<polygon fill="midnightblue" stroke="midnightblue" points="559.11,-78.8 568.75,-74.42 558.48,-71.83 559.11,-78.8"/>
</g>
<!-- Node37&#45;&gt;Node19 -->
<g id="edge65" class="edge">
<title>Node37&#45;&gt;Node19</title>
<path fill="none" stroke="midnightblue" d="M246.99,-238.18C204.11,-232.06 141.8,-220.26 90.89,-199 48.8,-181.42 26.63,-183.1 4.89,-143 -10.58,-114.47 15.34,-67.63 31.89,-56 80.48,-21.85 997.92,-12.79 1190.58,-11.26"/>
<polygon fill="midnightblue" stroke="midnightblue" points="1190.75,-14.75 1200.72,-11.18 1190.69,-7.75 1190.75,-14.75"/>
</g>
<!-- Node38 -->
<g id="node38" class="node">
<title>Node38</title>
<g id="a_node38"><a xlink:title=" ">
<polygon fill="none" stroke="#bfbfbf" points="248.39,-179.5 248.39,-198.5 295.39,-198.5 295.39,-179.5 248.39,-179.5"/>
<text text-anchor="middle" x="271.89" y="-186.5" font-family="Helvetica,sans-Serif" font-size="10.00">vector</text>
</a>
</g>
</g>
<!-- Node37&#45;&gt;Node38 -->
<g id="edge67" class="edge">
<title>Node37&#45;&gt;Node38</title>
<path fill="none" stroke="midnightblue" d="M293.6,-235.08C290.04,-227.69 284.87,-216.95 280.47,-207.81"/>
<polygon fill="midnightblue" stroke="midnightblue" points="283.6,-206.24 276.11,-198.75 277.29,-209.28 283.6,-206.24"/>
</g>
<!-- Node39 -->
<g id="node39" class="node">
<title>Node39</title>
<g id="a_node39"><a xlink:href="giraffe__diagnostics_8hpp.html" target="_top" xlink:title="Giraffe&#39;s diagnostic system.">
<polygon fill="none" stroke="black" points="99.89,-179.5 99.89,-198.5 229.89,-198.5 229.89,-179.5 99.89,-179.5"/>
<text text-anchor="middle" x="164.89" y="-186.5" font-family="Helvetica,sans-Serif" font-size="10.00">giraffe_diagnostics.hpp</text>
</a>
</g>
</g>
<!-- Node37&#45;&gt;Node39 -->
<g id="edge69" class="edge">
<title>Node37&#45;&gt;Node39</title>
<path fill="none" stroke="midnightblue" d="M276.82,-235.44C254.83,-226.52 220.16,-212.44 195.23,-202.32"/>
<polygon fill="midnightblue" stroke="midnightblue" points="196.45,-199.04 185.87,-198.52 193.82,-205.52 196.45,-199.04"/>
</g>
<!-- Node39&#45;&gt;Node17 -->
<g id="edge70" class="edge">
<title>Node39&#45;&gt;Node17</title>
<path fill="none" stroke="midnightblue" d="M230.24,-179.85C233.16,-179.55 236.06,-179.27 238.89,-179 481.91,-156.26 551.98,-209.29 786.89,-143 805.26,-137.82 806.57,-128.33 824.89,-123 1013.72,-68.09 1075.24,-135.22 1265.89,-87 1268.2,-86.42 1270.54,-85.69 1272.87,-84.87"/>
<polygon fill="midnightblue" stroke="midnightblue" points="1274.17,-88.12 1282.15,-81.14 1271.56,-81.62 1274.17,-88.12"/>
</g>
<!-- Node39&#45;&gt;Node24 -->
<g id="edge71" class="edge">
<title>Node39&#45;&gt;Node24</title>
<path fill="none" stroke="midnightblue" d="M201.97,-179.44C242.62,-170.06 307.92,-154.99 352.08,-144.8"/>
<polygon fill="midnightblue" stroke="midnightblue" points="353.03,-148.18 361.99,-142.52 351.46,-141.35 353.03,-148.18"/>
</g>
<!-- Node39&#45;&gt;Node25 -->
<g id="edge75" class="edge">
<title>Node39&#45;&gt;Node25</title>
<path fill="none" stroke="midnightblue" d="M161.83,-179.32C157.62,-165.72 151.97,-139.25 164.89,-123 184.08,-98.86 263.27,-85.24 320.69,-78.38"/>
<polygon fill="midnightblue" stroke="midnightblue" points="321.25,-81.84 330.78,-77.21 320.44,-74.88 321.25,-81.84"/>
</g>
<!-- Node40 -->
<g id="node40" class="node">
<title>Node40</title>
<g id="a_node40"><a xlink:href="giraffe__assert_8hpp.html" target="_top" xlink:title="For absolute failures in the code.">
<polygon fill="none" stroke="black" points="13.89,-123.5 13.89,-142.5 117.89,-142.5 117.89,-123.5 13.89,-123.5"/>
<text text-anchor="middle" x="65.89" y="-130.5" font-family="Helvetica,sans-Serif" font-size="10.00">giraffe_assert.hpp</text>
</a>
</g>
</g>
<!-- Node39&#45;&gt;Node40 -->
<g id="edge72" class="edge">
<title>Node39&#45;&gt;Node40</title>
<path fill="none" stroke="midnightblue" d="M148.99,-179.32C133.25,-170.74 108.95,-157.49 90.68,-147.52"/>
<polygon fill="midnightblue" stroke="midnightblue" points="92.21,-144.37 81.76,-142.65 88.86,-150.52 92.21,-144.37"/>
</g>
<!-- Node43 -->
<g id="node43" class="node">
<title>Node43</title>
<g id="a_node43"><a xlink:href="giraffe__exception_8hpp.html" target="_top" xlink:title="Common exception for Giraffe.">
<polygon fill="none" stroke="black" points="173.89,-123.5 173.89,-142.5 295.89,-142.5 295.89,-123.5 173.89,-123.5"/>
<text text-anchor="middle" x="234.89" y="-130.5" font-family="Helvetica,sans-Serif" font-size="10.00">giraffe_exception.hpp</text>
</a>
</g>
</g>
<!-- Node39&#45;&gt;Node43 -->
<g id="edge76" class="edge">
<title>Node39&#45;&gt;Node43</title>
<path fill="none" stroke="midnightblue" d="M176.14,-179.32C186.69,-171.18 202.69,-158.84 215.33,-149.09"/>
<polygon fill="midnightblue" stroke="midnightblue" points="217.66,-151.71 223.44,-142.83 213.38,-146.17 217.66,-151.71"/>
</g>
<!-- Node41 -->
<g id="node41" class="node">
<title>Node41</title>
<g id="a_node41"><a xlink:title=" ">
<polygon fill="none" stroke="#bfbfbf" points="156.39,-62 156.39,-81 221.39,-81 221.39,-62 156.39,-62"/>
<text text-anchor="middle" x="188.89" y="-69" font-family="Helvetica,sans-Serif" font-size="10.00">exception</text>
</a>
</g>
</g>
<!-- Node40&#45;&gt;Node41 -->
<g id="edge73" class="edge">
<title>Node40&#45;&gt;Node41</title>
<path fill="none" stroke="midnightblue" d="M83.51,-123.48C104.07,-113.53 138.26,-96.99 162.1,-85.46"/>
<polygon fill="midnightblue" stroke="midnightblue" points="163.82,-88.51 171.3,-81.01 160.78,-82.21 163.82,-88.51"/>
</g>
<!-- Node42 -->
<g id="node42" class="node">
<title>Node42</title>
<g id="a_node42"><a xlink:title=" ">
<polygon fill="none" stroke="#bfbfbf" points="40.89,-62 40.89,-81 90.89,-81 90.89,-62 40.89,-62"/>
<text text-anchor="middle" x="65.89" y="-69" font-family="Helvetica,sans-Serif" font-size="10.00">stdio.h</text>
</a>
</g>
</g>
<!-- Node40&#45;&gt;Node42 -->
<g id="edge74" class="edge">
<title>Node40&#45;&gt;Node42</title>
<path fill="none" stroke="midnightblue" d="M65.89,-123.48C65.89,-115.08 65.89,-101.98 65.89,-91.16"/>
<polygon fill="midnightblue" stroke="midnightblue" points="69.39,-91.01 65.89,-81.01 62.39,-91.01 69.39,-91.01"/>
</g>
<!-- Node43&#45;&gt;Node17 -->
<g id="edge78" class="edge">
<title>Node43&#45;&gt;Node17</title>
<path fill="none" stroke="midnightblue" d="M295.97,-126.44C311.28,-125.17 327.68,-123.93 342.89,-123 547.78,-110.47 1065.87,-133.09 1265.89,-87 1268.26,-86.45 1270.67,-85.74 1273.05,-84.92"/>
<polygon fill="midnightblue" stroke="midnightblue" points="1274.54,-88.1 1282.52,-81.14 1271.94,-81.6 1274.54,-88.1"/>
</g>
<!-- Node43&#45;&gt;Node25 -->
<g id="edge79" class="edge">
<title>Node43&#45;&gt;Node25</title>
<path fill="none" stroke="midnightblue" d="M256.1,-123.48C277.55,-114.85 311.34,-101.26 338.65,-90.29"/>
<polygon fill="midnightblue" stroke="midnightblue" points="340.04,-93.5 348.01,-86.52 337.43,-87.01 340.04,-93.5"/>
</g>
<!-- Node43&#45;&gt;Node41 -->
<g id="edge77" class="edge">
<title>Node43&#45;&gt;Node41</title>
<path fill="none" stroke="midnightblue" d="M228.3,-123.48C221.4,-114.55 210.39,-100.31 201.76,-89.14"/>
<polygon fill="midnightblue" stroke="midnightblue" points="204.36,-86.78 195.47,-81.01 198.82,-91.06 204.36,-86.78"/>
</g>
</g>
</svg>
