<?xml version="1.0" encoding="UTF-8" standalone="no"?>
<!DOCTYPE svg PUBLIC "-//W3C//DTD SVG 1.1//EN"
 "http://www.w3.org/Graphics/SVG/1.1/DTD/svg11.dtd">
<!-- Generated by graphviz version 2.43.0 (0)
 -->
<!-- Title: shared_data.hpp Pages: 1 -->
<svg width="3110pt" height="364pt"
 viewBox="0.00 0.00 3110.00 364.00" xmlns="http://www.w3.org/2000/svg" xmlns:xlink="http://www.w3.org/1999/xlink">
<g id="graph0" class="graph" transform="scale(1 1) rotate(0) translate(4 360)">
<title>shared_data.hpp</title>
<!-- Node1 -->
<g id="node1" class="node">
<title>Node1</title>
<g id="a_node1"><a xlink:title="Contains the SharedData struct, used across all modules and extensions.">
<polygon fill="#bfbfbf" stroke="black" points="1805.5,-336.5 1805.5,-355.5 1903.5,-355.5 1903.5,-336.5 1805.5,-336.5"/>
<text text-anchor="middle" x="1854.5" y="-343.5" font-family="Helvetica,sans-Serif" font-size="10.00">shared_data.hpp</text>
</a>
</g>
</g>
<!-- Node2 -->
<g id="node2" class="node">
<title>Node2</title>
<g id="a_node2"><a xlink:href="cfg__section_8hpp.html" target="_top" xlink:title="This file contains the base class for all configuration sections.">
<polygon fill="none" stroke="black" points="837,-280.5 837,-299.5 930,-299.5 930,-280.5 837,-280.5"/>
<text text-anchor="middle" x="883.5" y="-287.5" font-family="Helvetica,sans-Serif" font-size="10.00">cfg_section.hpp</text>
</a>
</g>
</g>
<!-- Node1&#45;&gt;Node2 -->
<g id="edge1" class="edge">
<title>Node1&#45;&gt;Node2</title>
<path fill="none" stroke="midnightblue" d="M1794.67,-343.62C1649.97,-339.94 1269.68,-328.18 953.5,-300 945.93,-299.33 937.93,-298.45 930.13,-297.51"/>
<polygon fill="midnightblue" stroke="midnightblue" points="1795,-347.13 1805.08,-343.89 1795.17,-340.14 1795,-347.13"/>
</g>
<!-- Node7 -->
<g id="node5" class="node">
<title>Node7</title>
<g id="a_node5"><a xlink:href="extension__base_8hpp.html" target="_top" xlink:title="The new implementation of the extension system.">
<polygon fill="none" stroke="black" points="826.5,-168.5 826.5,-187.5 940.5,-187.5 940.5,-168.5 826.5,-168.5"/>
<text text-anchor="middle" x="883.5" y="-175.5" font-family="Helvetica,sans-Serif" font-size="10.00">extension_base.hpp</text>
</a>
</g>
</g>
<!-- Node1&#45;&gt;Node7 -->
<g id="edge23" class="edge">
<title>Node1&#45;&gt;Node7</title>
<path fill="none" stroke="midnightblue" d="M1795.18,-344.15C1642.97,-341.52 1241.52,-331.69 1112.5,-300 1021.67,-277.69 927.26,-211.75 895.05,-187.81"/>
<polygon fill="midnightblue" stroke="midnightblue" points="1795.21,-347.65 1805.27,-344.32 1795.33,-340.65 1795.21,-347.65"/>
</g>
<!-- Node29 -->
<g id="node17" class="node">
<title>Node29</title>
<g id="a_node17"><a xlink:href="flight__runner_8hpp.html" target="_top" xlink:title="The main class for the flight system.">
<polygon fill="none" stroke="black" points="1665.5,-56.5 1665.5,-75.5 1763.5,-75.5 1763.5,-56.5 1665.5,-56.5"/>
<text text-anchor="middle" x="1714.5" y="-63.5" font-family="Helvetica,sans-Serif" font-size="10.00">flight_runner.hpp</text>
</a>
</g>
</g>
<!-- Node1&#45;&gt;Node29 -->
<g id="edge38" class="edge">
<title>Node1&#45;&gt;Node29</title>
<path fill="none" stroke="midnightblue" d="M1846.24,-327.25C1837.06,-305.86 1823.5,-268.59 1823.5,-235 1823.5,-235 1823.5,-235 1823.5,-177 1823.5,-126.59 1765.03,-91.01 1733.74,-75.58"/>
<polygon fill="midnightblue" stroke="midnightblue" points="1843.05,-328.69 1850.32,-336.39 1849.44,-325.83 1843.05,-328.69"/>
</g>
<!-- Node38 -->
<g id="node23" class="node">
<title>Node38</title>
<g id="a_node23"><a xlink:href="flight__phase__manager_8hpp.html" target="_top" xlink:title=" ">
<polygon fill="none" stroke="black" points="2492,-112.5 2492,-131.5 2637,-131.5 2637,-112.5 2492,-112.5"/>
<text text-anchor="middle" x="2564.5" y="-119.5" font-family="Helvetica,sans-Serif" font-size="10.00">flight_phase_manager.hpp</text>
</a>
</g>
</g>
<!-- Node1&#45;&gt;Node38 -->
<g id="edge24" class="edge">
<title>Node1&#45;&gt;Node38</title>
<path fill="none" stroke="midnightblue" d="M1913.85,-343.64C2069.14,-339.73 2484.73,-327 2619.5,-300 2693.37,-285.2 2735.9,-305.45 2779.5,-244 2799.36,-216.01 2758.7,-178.32 2744.5,-168 2713.49,-145.46 2672.42,-134.15 2637.34,-128.5"/>
<polygon fill="midnightblue" stroke="midnightblue" points="1913.47,-340.15 1903.56,-343.89 1913.65,-347.14 1913.47,-340.15"/>
</g>
<!-- Node40 -->
<g id="node25" class="node">
<title>Node40</title>
<g id="a_node25"><a xlink:href="flight__phase__predictor_8hpp.html" target="_top" xlink:title=" ">
<polygon fill="none" stroke="black" points="2203,-168.5 2203,-187.5 2348,-187.5 2348,-168.5 2203,-168.5"/>
<text text-anchor="middle" x="2275.5" y="-175.5" font-family="Helvetica,sans-Serif" font-size="10.00">flight_phase_predictor.hpp</text>
</a>
</g>
</g>
<!-- Node1&#45;&gt;Node40 -->
<g id="edge27" class="edge">
<title>Node1&#45;&gt;Node40</title>
<path fill="none" stroke="midnightblue" d="M1895.33,-333.63C1953.82,-316.82 2064.35,-283.06 2154.5,-244 2159.86,-241.68 2227.94,-204.81 2259.56,-187.66"/>
<polygon fill="midnightblue" stroke="midnightblue" points="1894.02,-330.36 1885.37,-336.48 1895.95,-337.1 1894.02,-330.36"/>
</g>
<!-- Node43 -->
<g id="node28" class="node">
<title>Node43</title>
<g id="a_node28"><a xlink:href="prediction__parameters_8hpp.html" target="_top" xlink:title=" ">
<polygon fill="none" stroke="black" points="2296.5,-280.5 2296.5,-299.5 2444.5,-299.5 2444.5,-280.5 2296.5,-280.5"/>
<text text-anchor="middle" x="2370.5" y="-287.5" font-family="Helvetica,sans-Serif" font-size="10.00">prediction_parameters.hpp</text>
</a>
</g>
</g>
<!-- Node1&#45;&gt;Node43 -->
<g id="edge31" class="edge">
<title>Node1&#45;&gt;Node43</title>
<path fill="none" stroke="midnightblue" d="M1913.47,-338.83C2007.92,-328.94 2193,-309.58 2296.3,-298.77"/>
<polygon fill="midnightblue" stroke="midnightblue" points="1913.09,-335.35 1903.51,-339.87 1913.82,-342.31 1913.09,-335.35"/>
</g>
<!-- Node49 -->
<g id="node32" class="node">
<title>Node49</title>
<g id="a_node32"><a xlink:href="console__pages_8hpp.html" target="_top" xlink:title=" ">
<polygon fill="none" stroke="black" points="1121.5,-280.5 1121.5,-299.5 1231.5,-299.5 1231.5,-280.5 1121.5,-280.5"/>
<text text-anchor="middle" x="1176.5" y="-287.5" font-family="Helvetica,sans-Serif" font-size="10.00">console_pages.hpp</text>
</a>
</g>
</g>
<!-- Node1&#45;&gt;Node49 -->
<g id="edge39" class="edge">
<title>Node1&#45;&gt;Node49</title>
<path fill="none" stroke="midnightblue" d="M1795.33,-340.29C1665.62,-329.96 1357.81,-305.44 1231.77,-295.4"/>
<polygon fill="midnightblue" stroke="midnightblue" points="1795.22,-343.79 1805.47,-341.09 1795.78,-336.81 1795.22,-343.79"/>
</g>
<!-- Node55 -->
<g id="node36" class="node">
<title>Node55</title>
<g id="a_node36"><a xlink:href="adc__interpolation_8hpp.html" target="_top" xlink:title="ADC Interpolation Utility.">
<polygon fill="none" stroke="black" points="1889.5,-224.5 1889.5,-243.5 2011.5,-243.5 2011.5,-224.5 1889.5,-224.5"/>
<text text-anchor="middle" x="1950.5" y="-231.5" font-family="Helvetica,sans-Serif" font-size="10.00">adc_interpolation.hpp</text>
</a>
</g>
</g>
<!-- Node1&#45;&gt;Node55 -->
<g id="edge45" class="edge">
<title>Node1&#45;&gt;Node55</title>
<path fill="none" stroke="midnightblue" d="M1886.11,-331.96C1900.78,-324.51 1917.4,-313.86 1928.5,-300 1942.06,-283.08 1947.46,-257.36 1949.45,-243.91"/>
<polygon fill="midnightblue" stroke="midnightblue" points="1884.34,-328.93 1876.83,-336.4 1887.36,-335.25 1884.34,-328.93"/>
</g>
<!-- Node60 -->
<g id="node39" class="node">
<title>Node60</title>
<g id="a_node39"><a xlink:href="calculated__data_8hpp.html" target="_top" xlink:title="Calculates new data from the existing data.">
<polygon fill="none" stroke="red" points="1520,-224.5 1520,-243.5 1635,-243.5 1635,-224.5 1520,-224.5"/>
<text text-anchor="middle" x="1577.5" y="-231.5" font-family="Helvetica,sans-Serif" font-size="10.00">calculated_data.hpp</text>
</a>
</g>
</g>
<!-- Node1&#45;&gt;Node60 -->
<g id="edge49" class="edge">
<title>Node1&#45;&gt;Node60</title>
<path fill="none" stroke="midnightblue" d="M1828.69,-331.77C1801.09,-317.89 1755.84,-295.94 1715.5,-280 1678.82,-265.51 1635.41,-251.92 1607.21,-243.54"/>
<polygon fill="midnightblue" stroke="midnightblue" points="1827.17,-334.92 1837.67,-336.31 1830.33,-328.68 1827.17,-334.92"/>
</g>
<!-- Node62 -->
<g id="node40" class="node">
<title>Node62</title>
<g id="a_node40"><a xlink:href="data__formatting_8hpp.html" target="_top" xlink:title="This file contains the DataFormatter class, which is used to format data for the data and log files.">
<polygon fill="none" stroke="red" points="1590.5,-280.5 1590.5,-299.5 1706.5,-299.5 1706.5,-280.5 1590.5,-280.5"/>
<text text-anchor="middle" x="1648.5" y="-287.5" font-family="Helvetica,sans-Serif" font-size="10.00">data_formatting.hpp</text>
</a>
</g>
</g>
<!-- Node1&#45;&gt;Node62 -->
<g id="edge51" class="edge">
<title>Node1&#45;&gt;Node62</title>
<path fill="none" stroke="midnightblue" d="M1811.88,-333.83C1772.99,-323.63 1716.34,-308.78 1680.99,-299.52"/>
<polygon fill="midnightblue" stroke="midnightblue" points="1811.3,-337.29 1821.86,-336.44 1813.07,-330.52 1811.3,-337.29"/>
</g>
<!-- Node64 -->
<g id="node41" class="node">
<title>Node64</title>
<g id="a_node41"><a xlink:href="data__log_8hpp.html" target="_top" xlink:title="The data log is responsible for writing data to files and managing the file system.">
<polygon fill="none" stroke="red" points="1421.5,-224.5 1421.5,-243.5 1501.5,-243.5 1501.5,-224.5 1421.5,-224.5"/>
<text text-anchor="middle" x="1461.5" y="-231.5" font-family="Helvetica,sans-Serif" font-size="10.00">data_log.hpp</text>
</a>
</g>
</g>
<!-- Node1&#45;&gt;Node64 -->
<g id="edge54" class="edge">
<title>Node1&#45;&gt;Node64</title>
<path fill="none" stroke="midnightblue" d="M1795.33,-340.95C1739.08,-335.78 1652.73,-324.39 1581.5,-300 1539.81,-285.72 1495.35,-257.88 1474.16,-243.72"/>
<polygon fill="midnightblue" stroke="midnightblue" points="1795.2,-344.45 1805.47,-341.85 1795.82,-337.48 1795.2,-344.45"/>
</g>
<!-- Node66 -->
<g id="node42" class="node">
<title>Node66</title>
<g id="a_node42"><a xlink:href="file__system__manager_8hpp.html" target="_top" xlink:title=" ">
<polygon fill="none" stroke="black" points="1653.5,-224.5 1653.5,-243.5 1795.5,-243.5 1795.5,-224.5 1653.5,-224.5"/>
<text text-anchor="middle" x="1724.5" y="-231.5" font-family="Helvetica,sans-Serif" font-size="10.00">file_system_manager.hpp</text>
</a>
</g>
</g>
<!-- Node1&#45;&gt;Node66 -->
<g id="edge55" class="edge">
<title>Node1&#45;&gt;Node66</title>
<path fill="none" stroke="midnightblue" d="M1836.55,-329.82C1808.87,-306.39 1756.63,-262.19 1734.65,-243.59"/>
<polygon fill="midnightblue" stroke="midnightblue" points="1834.4,-332.58 1844.3,-336.37 1838.93,-327.24 1834.4,-332.58"/>
</g>
<!-- Node67 -->
<g id="node43" class="node">
<title>Node67</title>
<g id="a_node43"><a xlink:href="influxdb_8hpp.html" target="_top" xlink:title=" ">
<polygon fill="none" stroke="red" points="1415,-280.5 1415,-299.5 1492,-299.5 1492,-280.5 1415,-280.5"/>
<text text-anchor="middle" x="1453.5" y="-287.5" font-family="Helvetica,sans-Serif" font-size="10.00">influxdb.hpp</text>
</a>
</g>
</g>
<!-- Node1&#45;&gt;Node67 -->
<g id="edge57" class="edge">
<title>Node1&#45;&gt;Node67</title>
<path fill="none" stroke="midnightblue" d="M1795.27,-337.02C1712.01,-325.81 1562.69,-305.7 1492.27,-296.22"/>
<polygon fill="midnightblue" stroke="midnightblue" points="1794.95,-340.51 1805.33,-338.38 1795.89,-333.58 1794.95,-340.51"/>
</g>
<!-- Node69 -->
<g id="node44" class="node">
<title>Node69</title>
<g id="a_node44"><a xlink:href="module_8hpp.html" target="_top" xlink:title="The header file for the base module class.">
<polygon fill="none" stroke="red" points="1291.5,-224.5 1291.5,-243.5 1365.5,-243.5 1365.5,-224.5 1291.5,-224.5"/>
<text text-anchor="middle" x="1328.5" y="-231.5" font-family="Helvetica,sans-Serif" font-size="10.00">module.hpp</text>
</a>
</g>
</g>
<!-- Node1&#45;&gt;Node69 -->
<g id="edge59" class="edge">
<title>Node1&#45;&gt;Node69</title>
<path fill="none" stroke="midnightblue" d="M1795.26,-343.34C1690.05,-339.68 1475.21,-328.84 1406.5,-300 1375.94,-287.17 1348.2,-258.13 1335.62,-243.61"/>
<polygon fill="midnightblue" stroke="midnightblue" points="1795.28,-346.84 1805.39,-343.68 1795.52,-339.84 1795.28,-346.84"/>
</g>
<!-- Node77 -->
<g id="node45" class="node">
<title>Node77</title>
<g id="a_node45"><a xlink:href="request__handler_8hpp.html" target="_top" xlink:title="The request handler class header.">
<polygon fill="none" stroke="red" points="2029.5,-224.5 2029.5,-243.5 2145.5,-243.5 2145.5,-224.5 2029.5,-224.5"/>
<text text-anchor="middle" x="2087.5" y="-231.5" font-family="Helvetica,sans-Serif" font-size="10.00">request_handler.hpp</text>
</a>
</g>
</g>
<!-- Node1&#45;&gt;Node77 -->
<g id="edge63" class="edge">
<title>Node1&#45;&gt;Node77</title>
<path fill="none" stroke="midnightblue" d="M1881.99,-332.02C1930.18,-309.27 2028.63,-262.79 2069.3,-243.59"/>
<polygon fill="midnightblue" stroke="midnightblue" points="1880.33,-328.93 1872.78,-336.37 1883.32,-335.26 1880.33,-328.93"/>
</g>
<!-- Node82 -->
<g id="node46" class="node">
<title>Node82</title>
<g id="a_node46"><a xlink:href="error__reporter_8hpp.html" target="_top" xlink:title=" ">
<polygon fill="none" stroke="black" points="2848.5,-168.5 2848.5,-187.5 2952.5,-187.5 2952.5,-168.5 2848.5,-168.5"/>
<text text-anchor="middle" x="2900.5" y="-175.5" font-family="Helvetica,sans-Serif" font-size="10.00">error_reporter.hpp</text>
</a>
</g>
</g>
<!-- Node1&#45;&gt;Node82 -->
<g id="edge64" class="edge">
<title>Node1&#45;&gt;Node82</title>
<path fill="none" stroke="midnightblue" d="M1913.53,-343.88C2119.42,-339.77 2795.35,-324.47 2834.5,-300 2876.5,-273.74 2893.73,-210.84 2898.79,-187.72"/>
<polygon fill="midnightblue" stroke="midnightblue" points="1913.44,-340.38 1903.51,-344.08 1913.58,-347.38 1913.44,-340.38"/>
</g>
<!-- Node83 -->
<g id="node47" class="node">
<title>Node83</title>
<g id="a_node47"><a xlink:href="logger_8hpp.html" target="_top" xlink:title="A simple logger class so difference classes have access to the same logger.">
<polygon fill="none" stroke="black" points="1851.5,-280.5 1851.5,-299.5 1919.5,-299.5 1919.5,-280.5 1851.5,-280.5"/>
<text text-anchor="middle" x="1885.5" y="-287.5" font-family="Helvetica,sans-Serif" font-size="10.00">logger.hpp</text>
</a>
</g>
</g>
<!-- Node1&#45;&gt;Node83 -->
<g id="edge66" class="edge">
<title>Node1&#45;&gt;Node83</title>
<path fill="none" stroke="midnightblue" d="M1864.68,-327.27C1869.97,-318.05 1876.22,-307.17 1880.48,-299.75"/>
<polygon fill="midnightblue" stroke="midnightblue" points="1861.56,-325.67 1859.62,-336.08 1867.63,-329.15 1861.56,-325.67"/>
</g>
<!-- Node84 -->
<g id="node48" class="node">
<title>Node84</title>
<g id="a_node48"><a xlink:href="to__json_8cpp.html" target="_top" xlink:title=" ">
<polygon fill="none" stroke="black" points="2886.5,-280.5 2886.5,-299.5 2958.5,-299.5 2958.5,-280.5 2886.5,-280.5"/>
<text text-anchor="middle" x="2922.5" y="-287.5" font-family="Helvetica,sans-Serif" font-size="10.00">to_json.cpp</text>
</a>
</g>
</g>
<!-- Node1&#45;&gt;Node84 -->
<g id="edge72" class="edge">
<title>Node1&#45;&gt;Node84</title>
<path fill="none" stroke="midnightblue" d="M1914.07,-345.15C2071.25,-344.93 2510.07,-340.44 2872.5,-300 2876.97,-299.5 2881.64,-298.84 2886.26,-298.11"/>
<polygon fill="midnightblue" stroke="midnightblue" points="1913.68,-341.65 1903.68,-345.15 1913.68,-348.65 1913.68,-341.65"/>
</g>
<!-- Node85 -->
<g id="node49" class="node">
<title>Node85</title>
<g id="a_node49"><a xlink:href="shared__data__helpers_8hpp.html" target="_top" xlink:title=" ">
<polygon fill="none" stroke="black" points="2596,-168.5 2596,-187.5 2735,-187.5 2735,-168.5 2596,-168.5"/>
<text text-anchor="middle" x="2665.5" y="-175.5" font-family="Helvetica,sans-Serif" font-size="10.00">shared_data_helpers.hpp</text>
</a>
</g>
</g>
<!-- Node1&#45;&gt;Node85 -->
<g id="edge73" class="edge">
<title>Node1&#45;&gt;Node85</title>
<path fill="none" stroke="midnightblue" d="M1913.97,-343.05C2107.33,-336.11 2708.89,-309.36 2763.5,-244 2785.43,-217.76 2736.71,-198.03 2700.4,-187.52"/>
<polygon fill="midnightblue" stroke="midnightblue" points="1913.59,-339.57 1903.72,-343.42 1913.84,-346.56 1913.59,-339.57"/>
</g>
<!-- Node86 -->
<g id="node50" class="node">
<title>Node86</title>
<g id="a_node50"><a xlink:href="test__configuration_8cpp.html" target="_top" xlink:title=" ">
<polygon fill="none" stroke="black" points="2977,-280.5 2977,-299.5 3102,-299.5 3102,-280.5 2977,-280.5"/>
<text text-anchor="middle" x="3039.5" y="-287.5" font-family="Helvetica,sans-Serif" font-size="10.00">test_configuration.cpp</text>
</a>
</g>
</g>
<!-- Node1&#45;&gt;Node86 -->
<g id="edge76" class="edge">
<title>Node1&#45;&gt;Node86</title>
<path fill="none" stroke="midnightblue" d="M1913.71,-344.35C2080.04,-342.16 2565.64,-333.18 2967.5,-300 2970.51,-299.75 2973.59,-299.47 2976.7,-299.16"/>
<polygon fill="midnightblue" stroke="midnightblue" points="1913.64,-340.85 1903.68,-344.48 1913.73,-347.85 1913.64,-340.85"/>
</g>
<!-- Node3 -->
<g id="node3" class="node">
<title>Node3</title>
<g id="a_node3"><a xlink:href="cfg__adcmappings_8hpp.html" target="_top" xlink:title=" ">
<polygon fill="none" stroke="red" points="687,-224.5 687,-243.5 810,-243.5 810,-224.5 687,-224.5"/>
<text text-anchor="middle" x="748.5" y="-231.5" font-family="Helvetica,sans-Serif" font-size="10.00">cfg_adcmappings.hpp</text>
</a>
</g>
</g>
<!-- Node2&#45;&gt;Node3 -->
<g id="edge2" class="edge">
<title>Node2&#45;&gt;Node3</title>
<path fill="none" stroke="midnightblue" d="M852.59,-276.64C827.26,-266.5 792.07,-252.43 769.79,-243.52"/>
<polygon fill="midnightblue" stroke="midnightblue" points="851.52,-279.98 862.11,-280.44 854.12,-273.48 851.52,-279.98"/>
</g>
<!-- Node5 -->
<g id="node4" class="node">
<title>Node5</title>
<g id="a_node4"><a xlink:href="cfg__extensions_8hpp.html" target="_top" xlink:title="The header file for the extensions section of the configuration.">
<polygon fill="none" stroke="red" points="828,-224.5 828,-243.5 939,-243.5 939,-224.5 828,-224.5"/>
<text text-anchor="middle" x="883.5" y="-231.5" font-family="Helvetica,sans-Serif" font-size="10.00">cfg_extensions.hpp</text>
</a>
</g>
</g>
<!-- Node2&#45;&gt;Node5 -->
<g id="edge3" class="edge">
<title>Node2&#45;&gt;Node5</title>
<path fill="none" stroke="midnightblue" d="M883.5,-269.8C883.5,-260.91 883.5,-250.78 883.5,-243.75"/>
<polygon fill="midnightblue" stroke="midnightblue" points="880,-270.08 883.5,-280.08 887,-270.08 880,-270.08"/>
</g>
<!-- Node5&#45;&gt;Node7 -->
<g id="edge4" class="edge">
<title>Node5&#45;&gt;Node7</title>
<path fill="none" stroke="midnightblue" d="M883.5,-213.8C883.5,-204.91 883.5,-194.78 883.5,-187.75"/>
<polygon fill="midnightblue" stroke="midnightblue" points="880,-214.08 883.5,-224.08 887,-214.08 880,-214.08"/>
</g>
<!-- Node8 -->
<g id="node6" class="node">
<title>Node8</title>
<g id="a_node6"><a xlink:href="adc__extension__base_8hpp.html" target="_top" xlink:title="Generic ADC Extension Wrapper.">
<polygon fill="none" stroke="red" points="575,-112.5 575,-131.5 712,-131.5 712,-112.5 575,-112.5"/>
<text text-anchor="middle" x="643.5" y="-119.5" font-family="Helvetica,sans-Serif" font-size="10.00">adc_extension_base.hpp</text>
</a>
</g>
</g>
<!-- Node7&#45;&gt;Node8 -->
<g id="edge5" class="edge">
<title>Node7&#45;&gt;Node8</title>
<path fill="none" stroke="midnightblue" d="M835.58,-166.22C790.23,-156.01 723.06,-140.9 681.35,-131.52"/>
<polygon fill="midnightblue" stroke="midnightblue" points="834.95,-169.66 845.47,-168.44 836.48,-162.83 834.95,-169.66"/>
</g>
<!-- Node13 -->
<g id="node7" class="node">
<title>Node13</title>
<g id="a_node7"><a xlink:href="bme280_8hpp.html" target="_top" xlink:title="The BME280 sensor extension.">
<polygon fill="none" stroke="red" points="730,-112.5 730,-131.5 807,-131.5 807,-112.5 730,-112.5"/>
<text text-anchor="middle" x="768.5" y="-119.5" font-family="Helvetica,sans-Serif" font-size="10.00">bme280.hpp</text>
</a>
</g>
</g>
<!-- Node7&#45;&gt;Node13 -->
<g id="edge6" class="edge">
<title>Node7&#45;&gt;Node13</title>
<path fill="none" stroke="midnightblue" d="M856.02,-164.1C834.53,-154.01 805.28,-140.27 786.64,-131.52"/>
<polygon fill="midnightblue" stroke="midnightblue" points="854.74,-167.36 865.28,-168.44 857.71,-161.02 854.74,-167.36"/>
</g>
<!-- Node15 -->
<g id="node8" class="node">
<title>Node15</title>
<g id="a_node8"><a xlink:href="bmi088_8hpp.html" target="_top" xlink:title="Extension for the Bosch BMI088 IMU.">
<polygon fill="none" stroke="red" points="847.5,-56.5 847.5,-75.5 921.5,-75.5 921.5,-56.5 847.5,-56.5"/>
<text text-anchor="middle" x="884.5" y="-63.5" font-family="Helvetica,sans-Serif" font-size="10.00">bmi088.hpp</text>
</a>
</g>
</g>
<!-- Node7&#45;&gt;Node15 -->
<g id="edge7" class="edge">
<title>Node7&#45;&gt;Node15</title>
<path fill="none" stroke="midnightblue" d="M868.87,-160.51C859.25,-147.63 849.32,-129.1 854.5,-112 858.74,-97.98 868.96,-84.34 876.29,-75.82"/>
<polygon fill="midnightblue" stroke="midnightblue" points="866.28,-162.87 875.29,-168.44 871.72,-158.46 866.28,-162.87"/>
</g>
<!-- Node17 -->
<g id="node9" class="node">
<title>Node17</title>
<g id="a_node9"><a xlink:href="ds18b20_8hpp.html" target="_top" xlink:title="DS18B20 extension header file.">
<polygon fill="none" stroke="red" points="1020,-112.5 1020,-131.5 1099,-131.5 1099,-112.5 1020,-112.5"/>
<text text-anchor="middle" x="1059.5" y="-119.5" font-family="Helvetica,sans-Serif" font-size="10.00">ds18b20.hpp</text>
</a>
</g>
</g>
<!-- Node7&#45;&gt;Node17 -->
<g id="edge8" class="edge">
<title>Node7&#45;&gt;Node17</title>
<path fill="none" stroke="midnightblue" d="M921.19,-165.44C954.37,-155.26 1001.93,-140.66 1031.74,-131.52"/>
<polygon fill="midnightblue" stroke="midnightblue" points="919.92,-162.16 911.39,-168.44 921.97,-168.86 919.92,-162.16"/>
</g>
<!-- Node19 -->
<g id="node10" class="node">
<title>Node19</title>
<g id="a_node10"><a xlink:href="extension__base_8cpp.html" target="_top" xlink:title="The new implementation of the extension system.">
<polygon fill="none" stroke="black" points="1117,-112.5 1117,-131.5 1230,-131.5 1230,-112.5 1117,-112.5"/>
<text text-anchor="middle" x="1173.5" y="-119.5" font-family="Helvetica,sans-Serif" font-size="10.00">extension_base.cpp</text>
</a>
</g>
</g>
<!-- Node7&#45;&gt;Node19 -->
<g id="edge9" class="edge">
<title>Node7&#45;&gt;Node19</title>
<path fill="none" stroke="midnightblue" d="M939.35,-166.6C994.15,-156.4 1076.73,-141.02 1127.76,-131.52"/>
<polygon fill="midnightblue" stroke="midnightblue" points="938.64,-163.17 929.45,-168.44 939.92,-170.05 938.64,-163.17"/>
</g>
<!-- Node20 -->
<g id="node11" class="node">
<title>Node20</title>
<g id="a_node11"><a xlink:href="i2c__extension__adapter_8hpp.html" target="_top" xlink:title="Adapter for I2C Extensions.">
<polygon fill="none" stroke="red" points="1248,-112.5 1248,-131.5 1395,-131.5 1395,-112.5 1248,-112.5"/>
<text text-anchor="middle" x="1321.5" y="-119.5" font-family="Helvetica,sans-Serif" font-size="10.00">i2c_extension_adapter.hpp</text>
</a>
</g>
</g>
<!-- Node7&#45;&gt;Node20 -->
<g id="edge10" class="edge">
<title>Node7&#45;&gt;Node20</title>
<path fill="none" stroke="midnightblue" d="M950.69,-168.72C1032.42,-158.64 1169.69,-141.72 1252.31,-131.53"/>
<polygon fill="midnightblue" stroke="midnightblue" points="950.26,-165.24 940.76,-169.94 951.11,-172.19 950.26,-165.24"/>
</g>
<!-- Node21 -->
<g id="node12" class="node">
<title>Node21</title>
<g id="a_node12"><a xlink:href="imu__extension__base_8hpp.html" target="_top" xlink:title="Base IMU Extension.">
<polygon fill="none" stroke="black" points="863.5,-112.5 863.5,-131.5 1001.5,-131.5 1001.5,-112.5 863.5,-112.5"/>
<text text-anchor="middle" x="932.5" y="-119.5" font-family="Helvetica,sans-Serif" font-size="10.00">imu_extension_base.hpp</text>
</a>
</g>
</g>
<!-- Node7&#45;&gt;Node21 -->
<g id="edge11" class="edge">
<title>Node7&#45;&gt;Node21</title>
<path fill="none" stroke="midnightblue" d="M898.53,-160.43C907.12,-150.97 917.54,-139.48 924.56,-131.75"/>
<polygon fill="midnightblue" stroke="midnightblue" points="895.72,-158.33 891.59,-168.08 900.9,-163.03 895.72,-158.33"/>
</g>
<!-- Node22 -->
<g id="node13" class="node">
<title>Node22</title>
<g id="a_node13"><a xlink:href="pi__camera_8hpp.html" target="_top" xlink:title="Raspberry Pi Camera Extension.">
<polygon fill="none" stroke="red" points="1413,-112.5 1413,-131.5 1502,-131.5 1502,-112.5 1413,-112.5"/>
<text text-anchor="middle" x="1457.5" y="-119.5" font-family="Helvetica,sans-Serif" font-size="10.00">pi_camera.hpp</text>
</a>
</g>
</g>
<!-- Node7&#45;&gt;Node22 -->
<g id="edge13" class="edge">
<title>Node7&#45;&gt;Node22</title>
<path fill="none" stroke="midnightblue" d="M950.92,-172.95C1050.41,-166.57 1242.29,-152.74 1404.5,-132 1407.18,-131.66 1409.94,-131.28 1412.72,-130.87"/>
<polygon fill="midnightblue" stroke="midnightblue" points="950.47,-169.47 940.71,-173.6 950.91,-176.46 950.47,-169.47"/>
</g>
<!-- Node24 -->
<g id="node14" class="node">
<title>Node24</title>
<g id="a_node14"><a xlink:href="rgb__status__led_8hpp.html" target="_top" xlink:title=" ">
<polygon fill="none" stroke="red" points="0,-112.5 0,-131.5 109,-131.5 109,-112.5 0,-112.5"/>
<text text-anchor="middle" x="54.5" y="-119.5" font-family="Helvetica,sans-Serif" font-size="10.00">rgb_status_led.hpp</text>
</a>
</g>
</g>
<!-- Node7&#45;&gt;Node24 -->
<g id="edge14" class="edge">
<title>Node7&#45;&gt;Node24</title>
<path fill="none" stroke="midnightblue" d="M816.21,-174.87C682.83,-170.25 375.58,-157.6 118.5,-132 115.49,-131.7 112.39,-131.36 109.28,-131"/>
<polygon fill="midnightblue" stroke="midnightblue" points="816.16,-178.37 826.28,-175.22 816.4,-171.38 816.16,-178.37"/>
</g>
<!-- Node26 -->
<g id="node15" class="node">
<title>Node26</title>
<g id="a_node15"><a xlink:href="samm8q_8hpp.html" target="_top" xlink:title="SAM&#45;M8Q GPS extension (I2C).">
<polygon fill="none" stroke="red" points="127.5,-112.5 127.5,-131.5 207.5,-131.5 207.5,-112.5 127.5,-112.5"/>
<text text-anchor="middle" x="167.5" y="-119.5" font-family="Helvetica,sans-Serif" font-size="10.00">samm8q.hpp</text>
</a>
</g>
</g>
<!-- Node7&#45;&gt;Node26 -->
<g id="edge15" class="edge">
<title>Node7&#45;&gt;Node26</title>
<path fill="none" stroke="midnightblue" d="M815.99,-175C695.3,-170.84 434.71,-159.31 216.5,-132 213.58,-131.63 210.57,-131.21 207.55,-130.74"/>
<polygon fill="midnightblue" stroke="midnightblue" points="816.07,-178.5 826.19,-175.34 816.31,-171.5 816.07,-178.5"/>
</g>
<!-- Node28 -->
<g id="node16" class="node">
<title>Node28</title>
<g id="a_node16"><a xlink:href="extension__module_8hpp.html" target="_top" xlink:title="This is the header file for the new extension module.">
<polygon fill="none" stroke="red" points="1520.5,-112.5 1520.5,-131.5 1648.5,-131.5 1648.5,-112.5 1520.5,-112.5"/>
<text text-anchor="middle" x="1584.5" y="-119.5" font-family="Helvetica,sans-Serif" font-size="10.00">extension_module.hpp</text>
</a>
</g>
</g>
<!-- Node7&#45;&gt;Node28 -->
<g id="edge16" class="edge">
<title>Node7&#45;&gt;Node28</title>
<path fill="none" stroke="midnightblue" d="M950.8,-173.31C1065.85,-166.75 1307.68,-151.85 1511.5,-132 1514.42,-131.72 1517.41,-131.41 1520.43,-131.09"/>
<polygon fill="midnightblue" stroke="midnightblue" points="950.52,-169.82 940.73,-173.88 950.91,-176.81 950.52,-169.82"/>
</g>
<!-- Node35 -->
<g id="node21" class="node">
<title>Node35</title>
<g id="a_node21"><a xlink:href="extension__test__framework_8hpp.html" target="_top" xlink:title="Basic helpers for unit testing extensions on the host.">
<polygon fill="none" stroke="red" points="225.5,-112.5 225.5,-131.5 393.5,-131.5 393.5,-112.5 225.5,-112.5"/>
<text text-anchor="middle" x="309.5" y="-119.5" font-family="Helvetica,sans-Serif" font-size="10.00">extension_test_framework.hpp</text>
</a>
</g>
</g>
<!-- Node7&#45;&gt;Node35 -->
<g id="edge21" class="edge">
<title>Node7&#45;&gt;Node35</title>
<path fill="none" stroke="midnightblue" d="M816.37,-170.79C723.39,-162.17 550.18,-146.05 402.5,-132 399.59,-131.72 396.64,-131.44 393.65,-131.16"/>
<polygon fill="midnightblue" stroke="midnightblue" points="816.2,-174.29 826.48,-171.72 816.85,-167.32 816.2,-174.29"/>
</g>
<!-- Node37 -->
<g id="node22" class="node">
<title>Node37</title>
<g id="a_node22"><a xlink:href="simulated__extensions_8hpp.html" target="_top" xlink:title="This contains the simulated extensions for testing the flight system.">
<polygon fill="none" stroke="black" points="412,-112.5 412,-131.5 557,-131.5 557,-112.5 412,-112.5"/>
<text text-anchor="middle" x="484.5" y="-119.5" font-family="Helvetica,sans-Serif" font-size="10.00">simulated_extensions.hpp</text>
</a>
</g>
</g>
<!-- Node7&#45;&gt;Node37 -->
<g id="edge22" class="edge">
<title>Node7&#45;&gt;Node37</title>
<path fill="none" stroke="midnightblue" d="M816.05,-167.87C741,-157.71 620.68,-141.43 547.49,-131.52"/>
<polygon fill="midnightblue" stroke="midnightblue" points="815.95,-171.39 826.33,-169.26 816.89,-164.45 815.95,-171.39"/>
</g>
<!-- Node21&#45;&gt;Node15 -->
<g id="edge12" class="edge">
<title>Node21&#45;&gt;Node15</title>
<path fill="none" stroke="midnightblue" d="M917.77,-104.43C909.36,-94.97 899.15,-83.48 892.28,-75.75"/>
<polygon fill="midnightblue" stroke="midnightblue" points="915.31,-106.93 924.57,-112.08 920.55,-102.28 915.31,-106.93"/>
</g>
<!-- Node28&#45;&gt;Node29 -->
<g id="edge17" class="edge">
<title>Node28&#45;&gt;Node29</title>
<path fill="none" stroke="midnightblue" d="M1614.59,-108.5C1638.96,-98.38 1672.64,-84.39 1694,-75.52"/>
<polygon fill="midnightblue" stroke="midnightblue" points="1612.99,-105.38 1605.1,-112.44 1615.68,-111.84 1612.99,-105.38"/>
</g>
<!-- Node30 -->
<g id="node18" class="node">
<title>Node30</title>
<g id="a_node18"><a xlink:href="flight__logic_8cpp.html" target="_top" xlink:title="The implementation of the flight logic within the flight runner.">
<polygon fill="none" stroke="black" points="1557.5,-0.5 1557.5,-19.5 1647.5,-19.5 1647.5,-0.5 1557.5,-0.5"/>
<text text-anchor="middle" x="1602.5" y="-7.5" font-family="Helvetica,sans-Serif" font-size="10.00">flight_logic.cpp</text>
</a>
</g>
</g>
<!-- Node29&#45;&gt;Node30 -->
<g id="edge18" class="edge">
<title>Node29&#45;&gt;Node30</title>
<path fill="none" stroke="midnightblue" d="M1687.25,-51.86C1666.48,-41.85 1638.48,-28.35 1620.45,-19.65"/>
<polygon fill="midnightblue" stroke="midnightblue" points="1685.98,-55.13 1696.51,-56.32 1689.02,-48.83 1685.98,-55.13"/>
</g>
<!-- Node31 -->
<g id="node19" class="node">
<title>Node31</title>
<g id="a_node19"><a xlink:href="flight__runner_8cpp.html" target="_top" xlink:title="The implementation of the flight runner, where everything comes together.">
<polygon fill="none" stroke="black" points="1665.5,-0.5 1665.5,-19.5 1763.5,-19.5 1763.5,-0.5 1665.5,-0.5"/>
<text text-anchor="middle" x="1714.5" y="-7.5" font-family="Helvetica,sans-Serif" font-size="10.00">flight_runner.cpp</text>
</a>
</g>
</g>
<!-- Node29&#45;&gt;Node31 -->
<g id="edge19" class="edge">
<title>Node29&#45;&gt;Node31</title>
<path fill="none" stroke="midnightblue" d="M1714.5,-45.8C1714.5,-36.91 1714.5,-26.78 1714.5,-19.75"/>
<polygon fill="midnightblue" stroke="midnightblue" points="1711,-46.08 1714.5,-56.08 1718,-46.08 1711,-46.08"/>
</g>
<!-- Node32 -->
<g id="node20" class="node">
<title>Node32</title>
<g id="a_node20"><a xlink:href="src_2flight__system_2main_8cpp.html" target="_top" xlink:title="Defines the entry point/main function of the Flight Computer software.">
<polygon fill="none" stroke="black" points="1781.5,-0.5 1781.5,-19.5 1843.5,-19.5 1843.5,-0.5 1781.5,-0.5"/>
<text text-anchor="middle" x="1812.5" y="-7.5" font-family="Helvetica,sans-Serif" font-size="10.00">main.cpp</text>
</a>
</g>
</g>
<!-- Node29&#45;&gt;Node32 -->
<g id="edge20" class="edge">
<title>Node29&#45;&gt;Node32</title>
<path fill="none" stroke="midnightblue" d="M1739.09,-51.45C1757.18,-41.48 1781.23,-28.23 1796.79,-19.65"/>
<polygon fill="midnightblue" stroke="midnightblue" points="1737.31,-48.43 1730.25,-56.32 1740.69,-54.56 1737.31,-48.43"/>
</g>
<!-- Node38&#45;&gt;Node29 -->
<g id="edge25" class="edge">
<title>Node38&#45;&gt;Node29</title>
<path fill="none" stroke="midnightblue" d="M2481.36,-111.95C2203.4,-88.82 1883.83,-74.12 1763.53,-69.01"/>
<polygon fill="midnightblue" stroke="midnightblue" points="2481.38,-115.46 2491.64,-112.81 2481.97,-108.49 2481.38,-115.46"/>
</g>
<!-- Node39 -->
<g id="node24" class="node">
<title>Node39</title>
<g id="a_node24"><a xlink:href="test__flight__phase__manager_8cpp.html" target="_top" xlink:title=" ">
<polygon fill="none" stroke="black" points="2530.5,-56.5 2530.5,-75.5 2698.5,-75.5 2698.5,-56.5 2530.5,-56.5"/>
<text text-anchor="middle" x="2614.5" y="-63.5" font-family="Helvetica,sans-Serif" font-size="10.00">test_flight_phase_manager.cpp</text>
</a>
</g>
</g>
<!-- Node38&#45;&gt;Node39 -->
<g id="edge26" class="edge">
<title>Node38&#45;&gt;Node39</title>
<path fill="none" stroke="midnightblue" d="M2579.58,-104.72C2588.39,-95.2 2599.17,-83.56 2606.4,-75.75"/>
<polygon fill="midnightblue" stroke="midnightblue" points="2576.98,-102.37 2572.76,-112.08 2582.12,-107.12 2576.98,-102.37"/>
</g>
<!-- Node40&#45;&gt;Node38 -->
<g id="edge28" class="edge">
<title>Node40&#45;&gt;Node38</title>
<path fill="none" stroke="midnightblue" d="M2331.16,-166.6C2385.77,-156.4 2468.07,-141.02 2518.92,-131.52"/>
<polygon fill="midnightblue" stroke="midnightblue" points="2330.48,-163.17 2321.29,-168.44 2331.77,-170.05 2330.48,-163.17"/>
</g>
<!-- Node41 -->
<g id="node26" class="node">
<title>Node41</title>
<g id="a_node26"><a xlink:href="flight__phase__predictor_8cpp.html" target="_top" xlink:title=" ">
<polygon fill="none" stroke="black" points="2143.5,-112.5 2143.5,-131.5 2287.5,-131.5 2287.5,-112.5 2143.5,-112.5"/>
<text text-anchor="middle" x="2215.5" y="-119.5" font-family="Helvetica,sans-Serif" font-size="10.00">flight_phase_predictor.cpp</text>
</a>
</g>
</g>
<!-- Node40&#45;&gt;Node41 -->
<g id="edge29" class="edge">
<title>Node40&#45;&gt;Node41</title>
<path fill="none" stroke="midnightblue" d="M2258.32,-161.54C2247.62,-151.91 2234.24,-139.87 2225.32,-131.83"/>
<polygon fill="midnightblue" stroke="midnightblue" points="2256.09,-164.24 2265.86,-168.32 2260.77,-159.03 2256.09,-164.24"/>
</g>
<!-- Node42 -->
<g id="node27" class="node">
<title>Node42</title>
<g id="a_node27"><a xlink:href="test__flight__phase__predictor_8cpp.html" target="_top" xlink:title=" ">
<polygon fill="none" stroke="black" points="2305.5,-112.5 2305.5,-131.5 2473.5,-131.5 2473.5,-112.5 2305.5,-112.5"/>
<text text-anchor="middle" x="2389.5" y="-119.5" font-family="Helvetica,sans-Serif" font-size="10.00">test_flight_phase_predictor.cpp</text>
</a>
</g>
</g>
<!-- Node40&#45;&gt;Node42 -->
<g id="edge30" class="edge">
<title>Node40&#45;&gt;Node42</title>
<path fill="none" stroke="midnightblue" d="M2302.74,-164.1C2324.04,-154.01 2353.04,-140.27 2371.52,-131.52"/>
<polygon fill="midnightblue" stroke="midnightblue" points="2301.1,-161 2293.56,-168.44 2304.1,-167.33 2301.1,-161"/>
</g>
<!-- Node43&#45;&gt;Node40 -->
<g id="edge32" class="edge">
<title>Node43&#45;&gt;Node40</title>
<path fill="none" stroke="midnightblue" d="M2362.28,-271.01C2355.48,-257.26 2344.94,-238.31 2332.5,-224 2319.76,-209.35 2301.72,-196.04 2289.37,-187.76"/>
<polygon fill="midnightblue" stroke="midnightblue" points="2359.27,-272.82 2366.72,-280.35 2365.59,-269.81 2359.27,-272.82"/>
</g>
<!-- Node43&#45;&gt;Node42 -->
<g id="edge36" class="edge">
<title>Node43&#45;&gt;Node42</title>
<path fill="none" stroke="midnightblue" d="M2372.68,-269.93C2376.8,-233.92 2385.58,-157.23 2388.52,-131.57"/>
<polygon fill="midnightblue" stroke="midnightblue" points="2369.18,-269.74 2371.52,-280.08 2376.14,-270.54 2369.18,-269.74"/>
</g>
<!-- Node44 -->
<g id="node29" class="node">
<title>Node44</title>
<g id="a_node29"><a xlink:href="prediction__model_8hpp.html" target="_top" xlink:title=" ">
<polygon fill="none" stroke="red" points="2201.5,-224.5 2201.5,-243.5 2323.5,-243.5 2323.5,-224.5 2201.5,-224.5"/>
<text text-anchor="middle" x="2262.5" y="-231.5" font-family="Helvetica,sans-Serif" font-size="10.00">prediction_model.hpp</text>
</a>
</g>
</g>
<!-- Node43&#45;&gt;Node44 -->
<g id="edge33" class="edge">
<title>Node43&#45;&gt;Node44</title>
<path fill="none" stroke="midnightblue" d="M2343.95,-275.73C2323.95,-265.73 2297.11,-252.31 2279.81,-243.65"/>
<polygon fill="midnightblue" stroke="midnightblue" points="2342.64,-278.98 2353.15,-280.32 2345.77,-272.72 2342.64,-278.98"/>
</g>
<!-- Node47 -->
<g id="node30" class="node">
<title>Node47</title>
<g id="a_node30"><a xlink:href="prediction__parameters_8cpp.html" target="_top" xlink:title=" ">
<polygon fill="none" stroke="black" points="2418,-224.5 2418,-243.5 2565,-243.5 2565,-224.5 2418,-224.5"/>
<text text-anchor="middle" x="2491.5" y="-231.5" font-family="Helvetica,sans-Serif" font-size="10.00">prediction_parameters.cpp</text>
</a>
</g>
</g>
<!-- Node43&#45;&gt;Node47 -->
<g id="edge35" class="edge">
<title>Node43&#45;&gt;Node47</title>
<path fill="none" stroke="midnightblue" d="M2398.81,-276.37C2421.47,-266.26 2452.63,-252.35 2472.42,-243.52"/>
<polygon fill="midnightblue" stroke="midnightblue" points="2397.38,-273.17 2389.67,-280.44 2400.23,-279.56 2397.38,-273.17"/>
</g>
<!-- Node48 -->
<g id="node31" class="node">
<title>Node48</title>
<g id="a_node31"><a xlink:href="test__prediction__parameters_8cpp.html" target="_top" xlink:title=" ">
<polygon fill="none" stroke="black" points="2583,-224.5 2583,-243.5 2754,-243.5 2754,-224.5 2583,-224.5"/>
<text text-anchor="middle" x="2668.5" y="-231.5" font-family="Helvetica,sans-Serif" font-size="10.00">test_prediction_parameters.cpp</text>
</a>
</g>
</g>
<!-- Node43&#45;&gt;Node48 -->
<g id="edge37" class="edge">
<title>Node43&#45;&gt;Node48</title>
<path fill="none" stroke="midnightblue" d="M2427.89,-278.6C2484.21,-268.4 2569.06,-253.02 2621.5,-243.52"/>
<polygon fill="midnightblue" stroke="midnightblue" points="2426.93,-275.22 2417.72,-280.44 2428.18,-282.1 2426.93,-275.22"/>
</g>
<!-- Node44&#45;&gt;Node40 -->
<g id="edge34" class="edge">
<title>Node44&#45;&gt;Node40</title>
<path fill="none" stroke="midnightblue" d="M2267.05,-214.1C2269.21,-205.14 2271.68,-194.86 2273.39,-187.75"/>
<polygon fill="midnightblue" stroke="midnightblue" points="2263.58,-213.54 2264.65,-224.08 2270.39,-215.18 2263.58,-213.54"/>
</g>
<!-- Node50 -->
<g id="node33" class="node">
<title>Node50</title>
<g id="a_node33"><a xlink:href="console__module_8hpp.html" target="_top" xlink:title=" ">
<polygon fill="none" stroke="red" points="1174,-168.5 1174,-187.5 1291,-187.5 1291,-168.5 1174,-168.5"/>
<text text-anchor="middle" x="1232.5" y="-175.5" font-family="Helvetica,sans-Serif" font-size="10.00">console_module.hpp</text>
</a>
</g>
</g>
<!-- Node49&#45;&gt;Node50 -->
<g id="edge40" class="edge">
<title>Node49&#45;&gt;Node50</title>
<path fill="none" stroke="midnightblue" d="M1163.47,-271.7C1154.95,-258.11 1146.87,-239.04 1155.5,-224 1165.9,-205.87 1186.75,-194.35 1204.13,-187.51"/>
<polygon fill="midnightblue" stroke="midnightblue" points="1160.7,-273.84 1169.24,-280.11 1166.47,-269.88 1160.7,-273.84"/>
</g>
<!-- Node52 -->
<g id="node34" class="node">
<title>Node52</title>
<g id="a_node34"><a xlink:href="console__pages_8cpp.html" target="_top" xlink:title=" ">
<polygon fill="none" stroke="black" points="1164,-224.5 1164,-243.5 1273,-243.5 1273,-224.5 1164,-224.5"/>
<text text-anchor="middle" x="1218.5" y="-231.5" font-family="Helvetica,sans-Serif" font-size="10.00">console_pages.cpp</text>
</a>
</g>
</g>
<!-- Node49&#45;&gt;Node52 -->
<g id="edge42" class="edge">
<title>Node49&#45;&gt;Node52</title>
<path fill="none" stroke="midnightblue" d="M1189.61,-272.14C1196.93,-262.74 1205.74,-251.4 1211.69,-243.75"/>
<polygon fill="midnightblue" stroke="midnightblue" points="1186.81,-270.04 1183.44,-280.08 1192.34,-274.34 1186.81,-270.04"/>
</g>
<!-- Node53 -->
<g id="node35" class="node">
<title>Node53</title>
<g id="a_node35"><a xlink:href="curses__utilities_8hpp.html" target="_top" xlink:title=" ">
<polygon fill="none" stroke="red" points="996,-224.5 996,-243.5 1107,-243.5 1107,-224.5 996,-224.5"/>
<text text-anchor="middle" x="1051.5" y="-231.5" font-family="Helvetica,sans-Serif" font-size="10.00">curses_utilities.hpp</text>
</a>
</g>
</g>
<!-- Node49&#45;&gt;Node53 -->
<g id="edge43" class="edge">
<title>Node49&#45;&gt;Node53</title>
<path fill="none" stroke="midnightblue" d="M1147.26,-276.37C1123.85,-266.26 1091.66,-252.35 1071.21,-243.52"/>
<polygon fill="midnightblue" stroke="midnightblue" points="1146.13,-279.69 1156.69,-280.44 1148.9,-273.26 1146.13,-279.69"/>
</g>
<!-- Node50&#45;&gt;Node29 -->
<g id="edge41" class="edge">
<title>Node50&#45;&gt;Node29</title>
<path fill="none" stroke="midnightblue" d="M1301.09,-175.75C1405.13,-172.85 1597.1,-163.31 1657.5,-132 1682.55,-119.02 1701.55,-90.05 1709.87,-75.57"/>
<polygon fill="midnightblue" stroke="midnightblue" points="1300.9,-172.25 1291,-176.02 1301.09,-179.25 1300.9,-172.25"/>
</g>
<!-- Node53&#45;&gt;Node50 -->
<g id="edge44" class="edge">
<title>Node53&#45;&gt;Node50</title>
<path fill="none" stroke="midnightblue" d="M1089.82,-221.57C1123.96,-211.38 1173.16,-196.7 1203.95,-187.52"/>
<polygon fill="midnightblue" stroke="midnightblue" points="1088.76,-218.23 1080.18,-224.44 1090.76,-224.94 1088.76,-218.23"/>
</g>
<!-- Node56 -->
<g id="node37" class="node">
<title>Node56</title>
<g id="a_node37"><a xlink:href="adc__interpolation_8cpp.html" target="_top" xlink:title="ADC Interpolation Utility.">
<polygon fill="none" stroke="black" points="1889.5,-168.5 1889.5,-187.5 2011.5,-187.5 2011.5,-168.5 1889.5,-168.5"/>
<text text-anchor="middle" x="1950.5" y="-175.5" font-family="Helvetica,sans-Serif" font-size="10.00">adc_interpolation.cpp</text>
</a>
</g>
</g>
<!-- Node55&#45;&gt;Node56 -->
<g id="edge46" class="edge">
<title>Node55&#45;&gt;Node56</title>
<path fill="none" stroke="midnightblue" d="M1950.5,-213.8C1950.5,-204.91 1950.5,-194.78 1950.5,-187.75"/>
<polygon fill="midnightblue" stroke="midnightblue" points="1947,-214.08 1950.5,-224.08 1954,-214.08 1947,-214.08"/>
</g>
<!-- Node57 -->
<g id="node38" class="node">
<title>Node57</title>
<g id="a_node38"><a xlink:href="data__module_8hpp.html" target="_top" xlink:title="The data module header file.">
<polygon fill="none" stroke="red" points="1527,-168.5 1527,-187.5 1628,-187.5 1628,-168.5 1527,-168.5"/>
<text text-anchor="middle" x="1577.5" y="-175.5" font-family="Helvetica,sans-Serif" font-size="10.00">data_module.hpp</text>
</a>
</g>
</g>
<!-- Node55&#45;&gt;Node57 -->
<g id="edge47" class="edge">
<title>Node55&#45;&gt;Node57</title>
<path fill="none" stroke="midnightblue" d="M1881.32,-222.98C1807.93,-212.36 1693.72,-195.83 1628.24,-186.35"/>
<polygon fill="midnightblue" stroke="midnightblue" points="1881,-226.47 1891.4,-224.44 1882,-219.55 1881,-226.47"/>
</g>
<!-- Node57&#45;&gt;Node29 -->
<g id="edge48" class="edge">
<title>Node57&#45;&gt;Node29</title>
<path fill="none" stroke="midnightblue" d="M1631.47,-165.54C1652.2,-158.79 1674.66,-148.25 1690.5,-132 1705.95,-116.15 1711.59,-89.51 1713.54,-75.77"/>
<polygon fill="midnightblue" stroke="midnightblue" points="1630.34,-162.23 1621.79,-168.48 1632.37,-168.93 1630.34,-162.23"/>
</g>
<!-- Node60&#45;&gt;Node57 -->
<g id="edge50" class="edge">
<title>Node60&#45;&gt;Node57</title>
<path fill="none" stroke="midnightblue" d="M1577.5,-213.8C1577.5,-204.91 1577.5,-194.78 1577.5,-187.75"/>
<polygon fill="midnightblue" stroke="midnightblue" points="1574,-214.08 1577.5,-224.08 1581,-214.08 1574,-214.08"/>
</g>
<!-- Node62&#45;&gt;Node64 -->
<g id="edge52" class="edge">
<title>Node62&#45;&gt;Node64</title>
<path fill="none" stroke="midnightblue" d="M1608.91,-277.57C1573.63,-267.38 1522.81,-252.7 1490.99,-243.52"/>
<polygon fill="midnightblue" stroke="midnightblue" points="1608.29,-281.03 1618.87,-280.44 1610.23,-274.31 1608.29,-281.03"/>
</g>
<!-- Node64&#45;&gt;Node57 -->
<g id="edge53" class="edge">
<title>Node64&#45;&gt;Node57</title>
<path fill="none" stroke="midnightblue" d="M1489.22,-220.1C1510.89,-210.01 1540.4,-196.27 1559.21,-187.52"/>
<polygon fill="midnightblue" stroke="midnightblue" points="1487.47,-217.05 1479.88,-224.44 1490.42,-223.4 1487.47,-217.05"/>
</g>
<!-- Node66&#45;&gt;Node57 -->
<g id="edge56" class="edge">
<title>Node66&#45;&gt;Node57</title>
<path fill="none" stroke="midnightblue" d="M1691.58,-220.91C1663.94,-210.75 1625.16,-196.51 1600.68,-187.52"/>
<polygon fill="midnightblue" stroke="midnightblue" points="1690.61,-224.28 1701.21,-224.44 1693.03,-217.71 1690.61,-224.28"/>
</g>
<!-- Node67&#45;&gt;Node57 -->
<g id="edge58" class="edge">
<title>Node67&#45;&gt;Node57</title>
<path fill="none" stroke="midnightblue" d="M1433.26,-274.08C1417.43,-260.57 1400.02,-240.34 1412.5,-224 1426.42,-205.77 1483.64,-193.16 1526.82,-186.02"/>
<polygon fill="midnightblue" stroke="midnightblue" points="1431.24,-276.94 1441.23,-280.47 1435.62,-271.48 1431.24,-276.94"/>
</g>
<!-- Node69&#45;&gt;Node28 -->
<g id="edge62" class="edge">
<title>Node69&#45;&gt;Node28</title>
<path fill="none" stroke="midnightblue" d="M1358.04,-220.3C1410.75,-197.66 1519.64,-150.87 1564.51,-131.59"/>
<polygon fill="midnightblue" stroke="midnightblue" points="1356.39,-217.2 1348.59,-224.37 1359.16,-223.64 1356.39,-217.2"/>
</g>
<!-- Node69&#45;&gt;Node50 -->
<g id="edge60" class="edge">
<title>Node69&#45;&gt;Node50</title>
<path fill="none" stroke="midnightblue" d="M1303.93,-219.18C1286.26,-209.24 1262.99,-196.15 1247.89,-187.65"/>
<polygon fill="midnightblue" stroke="midnightblue" points="1302.64,-222.47 1313.08,-224.32 1306.08,-216.37 1302.64,-222.47"/>
</g>
<!-- Node69&#45;&gt;Node57 -->
<g id="edge61" class="edge">
<title>Node69&#45;&gt;Node57</title>
<path fill="none" stroke="midnightblue" d="M1375.45,-222.82C1422.5,-212.61 1494.1,-197.09 1538.23,-187.52"/>
<polygon fill="midnightblue" stroke="midnightblue" points="1374.54,-219.43 1365.51,-224.97 1376.02,-226.27 1374.54,-219.43"/>
</g>
<!-- Node82&#45;&gt;Node38 -->
<g id="edge65" class="edge">
<title>Node82&#45;&gt;Node38</title>
<path fill="none" stroke="midnightblue" d="M2838.49,-167.03C2775.07,-156.84 2677.56,-141.17 2617.59,-131.53"/>
<polygon fill="midnightblue" stroke="midnightblue" points="2837.94,-170.49 2848.37,-168.62 2839.05,-163.58 2837.94,-170.49"/>
</g>
<!-- Node83&#45;&gt;Node38 -->
<g id="edge67" class="edge">
<title>Node83&#45;&gt;Node38</title>
<path fill="none" stroke="midnightblue" d="M1877.61,-270.7C1867.59,-244.27 1854.53,-195.57 1880.5,-168 1926.45,-119.22 2415.73,-137.66 2482.5,-132 2485.5,-131.75 2488.55,-131.47 2491.64,-131.19"/>
<polygon fill="midnightblue" stroke="midnightblue" points="1874.47,-272.28 1881.46,-280.24 1880.96,-269.66 1874.47,-272.28"/>
</g>
<!-- Node83&#45;&gt;Node55 -->
<g id="edge68" class="edge">
<title>Node83&#45;&gt;Node55</title>
<path fill="none" stroke="midnightblue" d="M1903.77,-273.82C1915.42,-264.15 1930.1,-251.95 1939.87,-243.83"/>
<polygon fill="midnightblue" stroke="midnightblue" points="1901.4,-271.24 1895.94,-280.32 1905.87,-276.63 1901.4,-271.24"/>
</g>
<!-- Node83&#45;&gt;Node60 -->
<g id="edge69" class="edge">
<title>Node83&#45;&gt;Node60</title>
<path fill="none" stroke="midnightblue" d="M1841.21,-281.24C1784.16,-271.23 1685.32,-253.9 1626.21,-243.54"/>
<polygon fill="midnightblue" stroke="midnightblue" points="1840.91,-284.74 1851.36,-283.01 1842.12,-277.84 1840.91,-284.74"/>
</g>
<!-- Node83&#45;&gt;Node66 -->
<g id="edge70" class="edge">
<title>Node83&#45;&gt;Node66</title>
<path fill="none" stroke="midnightblue" d="M1850.24,-277.17C1819.92,-267 1776.93,-252.59 1749.89,-243.52"/>
<polygon fill="midnightblue" stroke="midnightblue" points="1849.4,-280.58 1859.99,-280.44 1851.62,-273.95 1849.4,-280.58"/>
</g>
<!-- Node83&#45;&gt;Node77 -->
<g id="edge71" class="edge">
<title>Node83&#45;&gt;Node77</title>
<path fill="none" stroke="midnightblue" d="M1927.29,-277.83C1965.43,-267.63 2020.98,-252.78 2055.64,-243.52"/>
<polygon fill="midnightblue" stroke="midnightblue" points="1926.26,-274.48 1917.51,-280.44 1928.07,-281.24 1926.26,-274.48"/>
</g>
<!-- Node85&#45;&gt;Node39 -->
<g id="edge74" class="edge">
<title>Node85&#45;&gt;Node39</title>
<path fill="none" stroke="midnightblue" d="M2661.79,-158.36C2658.73,-145.02 2653.71,-126.88 2646.5,-112 2639.89,-98.37 2629.25,-84.42 2622.07,-75.74"/>
<polygon fill="midnightblue" stroke="midnightblue" points="2658.4,-159.2 2663.91,-168.25 2665.24,-157.74 2658.4,-159.2"/>
</g>
<!-- Node85&#45;&gt;Node42 -->
<g id="edge75" class="edge">
<title>Node85&#45;&gt;Node42</title>
<path fill="none" stroke="midnightblue" d="M2611.7,-166.47C2559.54,-156.27 2481.39,-140.98 2433.03,-131.52"/>
<polygon fill="midnightblue" stroke="midnightblue" points="2611.28,-169.96 2621.77,-168.44 2612.63,-163.09 2611.28,-169.96"/>
</g>
</g>
</svg>
