<?xml version="1.0" encoding="UTF-8" standalone="no"?>
<!DOCTYPE svg PUBLIC "-//W3C//DTD SVG 1.1//EN"
 "http://www.w3.org/Graphics/SVG/1.1/DTD/svg11.dtd">
<!-- Generated by graphviz version 2.43.0 (0)
 -->
<!-- Title: shared_data.hpp Pages: 1 -->
<svg width="2230pt" height="364pt"
 viewBox="0.00 0.00 2229.50 364.00" xmlns="http://www.w3.org/2000/svg" xmlns:xlink="http://www.w3.org/1999/xlink">
<g id="graph0" class="graph" transform="scale(1 1) rotate(0) translate(4 360)">
<title>shared_data.hpp</title>
<!-- Node1 -->
<g id="node1" class="node">
<title>Node1</title>
<g id="a_node1"><a xlink:title="Contains the SharedData struct, used across all modules and extensions.">
<polygon fill="#bfbfbf" stroke="black" points="1628,-336.5 1628,-355.5 1726,-355.5 1726,-336.5 1628,-336.5"/>
<text text-anchor="middle" x="1677" y="-343.5" font-family="Helvetica,sans-Serif" font-size="10.00">shared_data.hpp</text>
</a>
</g>
</g>
<!-- Node2 -->
<g id="node2" class="node">
<title>Node2</title>
<g id="a_node2"><a xlink:href="cfg__section_8hpp.html" target="_top" xlink:title="This file contains the base class for all configuration sections.">
<polygon fill="none" stroke="black" points="763.5,-280.5 763.5,-299.5 856.5,-299.5 856.5,-280.5 763.5,-280.5"/>
<text text-anchor="middle" x="810" y="-287.5" font-family="Helvetica,sans-Serif" font-size="10.00">cfg_section.hpp</text>
</a>
</g>
</g>
<!-- Node1&#45;&gt;Node2 -->
<g id="edge1" class="edge">
<title>Node1&#45;&gt;Node2</title>
<path fill="none" stroke="midnightblue" d="M1617.6,-341.3C1454.71,-331.15 1003.38,-303.04 856.7,-293.91"/>
<polygon fill="midnightblue" stroke="midnightblue" points="1617.7,-344.81 1627.9,-341.94 1618.14,-337.83 1617.7,-344.81"/>
</g>
<!-- Node5 -->
<g id="node5" class="node">
<title>Node5</title>
<g id="a_node5"><a xlink:href="extension__base_8hpp.html" target="_top" xlink:title="The new implementation of the extension system.">
<polygon fill="none" stroke="black" points="634,-168.5 634,-187.5 748,-187.5 748,-168.5 634,-168.5"/>
<text text-anchor="middle" x="691" y="-175.5" font-family="Helvetica,sans-Serif" font-size="10.00">extension_base.hpp</text>
</a>
</g>
</g>
<!-- Node1&#45;&gt;Node5 -->
<g id="edge43" class="edge">
<title>Node1&#45;&gt;Node5</title>
<path fill="none" stroke="midnightblue" d="M1617.89,-336.55C1557.53,-327.81 1461.13,-313.58 1378,-300 1136.26,-260.53 847.69,-207.9 737.17,-187.54"/>
<polygon fill="midnightblue" stroke="midnightblue" points="1617.6,-340.04 1628,-338.01 1618.6,-333.11 1617.6,-340.04"/>
</g>
<!-- Node26 -->
<g id="node23" class="node">
<title>Node26</title>
<g id="a_node23"><a xlink:href="flight__runner_8hpp.html" target="_top" xlink:title="The main class for the flight system.">
<polygon fill="none" stroke="black" points="1506,-56.5 1506,-75.5 1604,-75.5 1604,-56.5 1506,-56.5"/>
<text text-anchor="middle" x="1555" y="-63.5" font-family="Helvetica,sans-Serif" font-size="10.00">flight_runner.hpp</text>
</a>
</g>
</g>
<!-- Node1&#45;&gt;Node26 -->
<g id="edge44" class="edge">
<title>Node1&#45;&gt;Node26</title>
<path fill="none" stroke="midnightblue" d="M1736.24,-339.85C1780.94,-334.29 1842.91,-322.92 1893,-300 1936.25,-280.21 1978,-282.56 1978,-235 1978,-235 1978,-235 1978,-177 1978,-100.55 1715.93,-76.3 1604.35,-69.44"/>
<polygon fill="midnightblue" stroke="midnightblue" points="1735.64,-336.4 1726.12,-341.05 1736.47,-343.35 1735.64,-336.4"/>
</g>
<!-- Node34 -->
<g id="node30" class="node">
<title>Node34</title>
<g id="a_node30"><a xlink:href="console__pages_8hpp.html" target="_top" xlink:title=" ">
<polygon fill="none" stroke="black" points="1265,-224.5 1265,-243.5 1375,-243.5 1375,-224.5 1265,-224.5"/>
<text text-anchor="middle" x="1320" y="-231.5" font-family="Helvetica,sans-Serif" font-size="10.00">console_pages.hpp</text>
</a>
</g>
</g>
<!-- Node1&#45;&gt;Node34 -->
<g id="edge45" class="edge">
<title>Node1&#45;&gt;Node34</title>
<path fill="none" stroke="midnightblue" d="M1617.54,-341.25C1564.47,-336.36 1485.42,-325.2 1421,-300 1384.69,-285.79 1347.53,-257.66 1330.14,-243.52"/>
<polygon fill="midnightblue" stroke="midnightblue" points="1617.53,-344.76 1627.8,-342.15 1618.14,-337.79 1617.53,-344.76"/>
</g>
<!-- Node40 -->
<g id="node34" class="node">
<title>Node40</title>
<g id="a_node34"><a xlink:href="data__formatting_8hpp.html" target="_top" xlink:title="This file contains the DataFormatter class, which is used to format data for the data and log files.">
<polygon fill="none" stroke="black" points="1662,-280.5 1662,-299.5 1778,-299.5 1778,-280.5 1662,-280.5"/>
<text text-anchor="middle" x="1720" y="-287.5" font-family="Helvetica,sans-Serif" font-size="10.00">data_formatting.hpp</text>
</a>
</g>
</g>
<!-- Node1&#45;&gt;Node40 -->
<g id="edge51" class="edge">
<title>Node1&#45;&gt;Node40</title>
<path fill="none" stroke="midnightblue" d="M1690.42,-328.14C1697.91,-318.74 1706.94,-307.4 1713.03,-299.75"/>
<polygon fill="midnightblue" stroke="midnightblue" points="1687.59,-326.08 1684.1,-336.08 1693.07,-330.44 1687.59,-326.08"/>
</g>
<!-- Node42 -->
<g id="node36" class="node">
<title>Node42</title>
<g id="a_node36"><a xlink:href="data__log_8hpp.html" target="_top" xlink:title="The data log is responsible for writing data to files and managing the file system.">
<polygon fill="none" stroke="black" points="1602,-224.5 1602,-243.5 1682,-243.5 1682,-224.5 1602,-224.5"/>
<text text-anchor="middle" x="1642" y="-231.5" font-family="Helvetica,sans-Serif" font-size="10.00">data_log.hpp</text>
</a>
</g>
</g>
<!-- Node1&#45;&gt;Node42 -->
<g id="edge57" class="edge">
<title>Node1&#45;&gt;Node42</title>
<path fill="none" stroke="midnightblue" d="M1666.17,-327.85C1661.47,-319.7 1656.29,-309.64 1653,-300 1646.35,-280.5 1643.61,-256.29 1642.57,-243.63"/>
<polygon fill="midnightblue" stroke="midnightblue" points="1663.17,-329.66 1671.34,-336.42 1669.17,-326.05 1663.17,-329.66"/>
</g>
<!-- Node47 -->
<g id="node39" class="node">
<title>Node47</title>
<g id="a_node39"><a xlink:href="influxdb_8hpp.html" target="_top" xlink:title=" ">
<polygon fill="none" stroke="black" points="1507.5,-280.5 1507.5,-299.5 1584.5,-299.5 1584.5,-280.5 1507.5,-280.5"/>
<text text-anchor="middle" x="1546" y="-287.5" font-family="Helvetica,sans-Serif" font-size="10.00">influxdb.hpp</text>
</a>
</g>
</g>
<!-- Node1&#45;&gt;Node47 -->
<g id="edge58" class="edge">
<title>Node1&#45;&gt;Node47</title>
<path fill="none" stroke="midnightblue" d="M1646.68,-332.5C1622.12,-322.38 1588.18,-308.39 1566.66,-299.52"/>
<polygon fill="midnightblue" stroke="midnightblue" points="1645.66,-335.87 1656.24,-336.44 1648.33,-329.4 1645.66,-335.87"/>
</g>
<!-- Node49 -->
<g id="node41" class="node">
<title>Node49</title>
<g id="a_node41"><a xlink:href="module_8hpp.html" target="_top" xlink:title="The header file for the base module class.">
<polygon fill="none" stroke="black" points="1392,-168.5 1392,-187.5 1466,-187.5 1466,-168.5 1392,-168.5"/>
<text text-anchor="middle" x="1429" y="-175.5" font-family="Helvetica,sans-Serif" font-size="10.00">module.hpp</text>
</a>
</g>
</g>
<!-- Node1&#45;&gt;Node49 -->
<g id="edge61" class="edge">
<title>Node1&#45;&gt;Node49</title>
<path fill="none" stroke="midnightblue" d="M1617.4,-341.61C1580.19,-336.85 1533.06,-325.73 1499,-300 1459.11,-269.86 1438.09,-209.88 1431.4,-187.6"/>
<polygon fill="midnightblue" stroke="midnightblue" points="1617.28,-345.12 1627.61,-342.79 1618.08,-338.17 1617.28,-345.12"/>
</g>
<!-- Node57 -->
<g id="node46" class="node">
<title>Node57</title>
<g id="a_node46"><a xlink:href="request__handler_8hpp.html" target="_top" xlink:title="The request handler class header.">
<polygon fill="none" stroke="black" points="1834,-224.5 1834,-243.5 1950,-243.5 1950,-224.5 1834,-224.5"/>
<text text-anchor="middle" x="1892" y="-231.5" font-family="Helvetica,sans-Serif" font-size="10.00">request_handler.hpp</text>
</a>
</g>
</g>
<!-- Node1&#45;&gt;Node57 -->
<g id="edge72" class="edge">
<title>Node1&#45;&gt;Node57</title>
<path fill="none" stroke="midnightblue" d="M1736.34,-338.03C1786.58,-330.96 1853.45,-318.43 1873,-300 1888.91,-285 1891.73,-257.48 1892.08,-243.56"/>
<polygon fill="midnightblue" stroke="midnightblue" points="1735.65,-334.59 1726.21,-339.41 1736.59,-341.53 1735.65,-334.59"/>
</g>
<!-- Node59 -->
<g id="node48" class="node">
<title>Node59</title>
<g id="a_node48"><a xlink:href="logger_8hpp.html" target="_top" xlink:title="A simple logger class so difference classes have access to the same logger.">
<polygon fill="none" stroke="black" points="1796,-280.5 1796,-299.5 1864,-299.5 1864,-280.5 1796,-280.5"/>
<text text-anchor="middle" x="1830" y="-287.5" font-family="Helvetica,sans-Serif" font-size="10.00">logger.hpp</text>
</a>
</g>
</g>
<!-- Node1&#45;&gt;Node59 -->
<g id="edge75" class="edge">
<title>Node1&#45;&gt;Node59</title>
<path fill="none" stroke="midnightblue" d="M1710.89,-333.04C1739.68,-322.88 1780.29,-308.55 1805.87,-299.52"/>
<polygon fill="midnightblue" stroke="midnightblue" points="1709.51,-329.81 1701.24,-336.44 1711.84,-336.42 1709.51,-329.81"/>
</g>
<!-- Node60 -->
<g id="node49" class="node">
<title>Node60</title>
<g id="a_node49"><a xlink:href="to__json_8cpp.html" target="_top" xlink:title=" ">
<polygon fill="none" stroke="black" points="2006,-280.5 2006,-299.5 2078,-299.5 2078,-280.5 2006,-280.5"/>
<text text-anchor="middle" x="2042" y="-287.5" font-family="Helvetica,sans-Serif" font-size="10.00">to_json.cpp</text>
</a>
</g>
</g>
<!-- Node1&#45;&gt;Node60 -->
<g id="edge77" class="edge">
<title>Node1&#45;&gt;Node60</title>
<path fill="none" stroke="midnightblue" d="M1736.4,-337.17C1799.8,-328.65 1903.14,-314.34 1992,-300 1996.53,-299.27 2001.28,-298.46 2005.98,-297.64"/>
<polygon fill="midnightblue" stroke="midnightblue" points="1735.64,-333.74 1726.19,-338.53 1736.57,-340.68 1735.64,-333.74"/>
</g>
<!-- Node61 -->
<g id="node50" class="node">
<title>Node61</title>
<g id="a_node50"><a xlink:href="test__configuration_8cpp.html" target="_top" xlink:title=" ">
<polygon fill="none" stroke="black" points="2096.5,-280.5 2096.5,-299.5 2221.5,-299.5 2221.5,-280.5 2096.5,-280.5"/>
<text text-anchor="middle" x="2159" y="-287.5" font-family="Helvetica,sans-Serif" font-size="10.00">test_configuration.cpp</text>
</a>
</g>
</g>
<!-- Node1&#45;&gt;Node61 -->
<g id="edge78" class="edge">
<title>Node1&#45;&gt;Node61</title>
<path fill="none" stroke="midnightblue" d="M1736.6,-338.74C1816.42,-330.3 1962.44,-314.62 2087,-300 2090,-299.65 2093.08,-299.28 2096.18,-298.91"/>
<polygon fill="midnightblue" stroke="midnightblue" points="1735.83,-335.3 1726.25,-339.84 1736.57,-342.27 1735.83,-335.3"/>
</g>
<!-- Node3 -->
<g id="node3" class="node">
<title>Node3</title>
<g id="a_node3"><a xlink:href="cfg__extensions_8hpp.html" target="_top" xlink:title="The header file for the extensions section of the configuration.">
<polygon fill="none" stroke="black" points="557.5,-224.5 557.5,-243.5 668.5,-243.5 668.5,-224.5 557.5,-224.5"/>
<text text-anchor="middle" x="613" y="-231.5" font-family="Helvetica,sans-Serif" font-size="10.00">cfg_extensions.hpp</text>
</a>
</g>
</g>
<!-- Node2&#45;&gt;Node3 -->
<g id="edge2" class="edge">
<title>Node2&#45;&gt;Node3</title>
<path fill="none" stroke="midnightblue" d="M768.77,-277.7C731.59,-267.51 677.73,-252.74 644.07,-243.52"/>
<polygon fill="midnightblue" stroke="midnightblue" points="768.22,-281.18 778.78,-280.44 770.07,-274.42 768.22,-281.18"/>
</g>
<!-- Node4 -->
<g id="node4" class="node">
<title>Node4</title>
<g id="a_node4"><a xlink:href="cfg__extensions_8cpp.html" target="_top" xlink:title="Implements the extensions section of the configuration.">
<polygon fill="none" stroke="black" points="324,-168.5 324,-187.5 434,-187.5 434,-168.5 324,-168.5"/>
<text text-anchor="middle" x="379" y="-175.5" font-family="Helvetica,sans-Serif" font-size="10.00">cfg_extensions.cpp</text>
</a>
</g>
</g>
<!-- Node3&#45;&gt;Node4 -->
<g id="edge3" class="edge">
<title>Node3&#45;&gt;Node4</title>
<path fill="none" stroke="midnightblue" d="M566,-222.15C521.78,-211.95 456.48,-196.88 415.9,-187.52"/>
<polygon fill="midnightblue" stroke="midnightblue" points="565.39,-225.61 575.92,-224.44 566.97,-218.78 565.39,-225.61"/>
</g>
<!-- Node3&#45;&gt;Node5 -->
<g id="edge4" class="edge">
<title>Node3&#45;&gt;Node5</title>
<path fill="none" stroke="midnightblue" d="M633.77,-218.62C648.02,-208.76 666.46,-195.99 678.5,-187.65"/>
<polygon fill="midnightblue" stroke="midnightblue" points="631.76,-215.75 625.53,-224.32 635.75,-221.51 631.76,-215.75"/>
</g>
<!-- Node33 -->
<g id="node29" class="node">
<title>Node33</title>
<g id="a_node29"><a xlink:href="preconfigured__extensions_8hpp.html" target="_top" xlink:title="This file contains preconfigured extension metadata.">
<polygon fill="none" stroke="black" points="452.5,-168.5 452.5,-187.5 615.5,-187.5 615.5,-168.5 452.5,-168.5"/>
<text text-anchor="middle" x="534" y="-175.5" font-family="Helvetica,sans-Serif" font-size="10.00">preconfigured_extensions.hpp</text>
</a>
</g>
</g>
<!-- Node3&#45;&gt;Node33 -->
<g id="edge42" class="edge">
<title>Node3&#45;&gt;Node33</title>
<path fill="none" stroke="midnightblue" d="M591.97,-218.62C577.53,-208.76 558.86,-195.99 546.66,-187.65"/>
<polygon fill="midnightblue" stroke="midnightblue" points="590.08,-221.57 600.31,-224.32 594.03,-215.79 590.08,-221.57"/>
</g>
<!-- Node6 -->
<g id="node6" class="node">
<title>Node6</title>
<g id="a_node6"><a xlink:href="adc__extension__base_8hpp.html" target="_top" xlink:title="Generic ADC Extension Wrapper.">
<polygon fill="none" stroke="black" points="542.5,-112.5 542.5,-131.5 679.5,-131.5 679.5,-112.5 542.5,-112.5"/>
<text text-anchor="middle" x="611" y="-119.5" font-family="Helvetica,sans-Serif" font-size="10.00">adc_extension_base.hpp</text>
</a>
</g>
</g>
<!-- Node5&#45;&gt;Node6 -->
<g id="edge5" class="edge">
<title>Node5&#45;&gt;Node6</title>
<path fill="none" stroke="midnightblue" d="M669.7,-162.62C655.08,-152.76 636.17,-139.99 623.82,-131.65"/>
<polygon fill="midnightblue" stroke="midnightblue" points="667.9,-165.63 678.15,-168.32 671.82,-159.83 667.9,-165.63"/>
</g>
<!-- Node11 -->
<g id="node10" class="node">
<title>Node11</title>
<g id="a_node10"><a xlink:href="bme280_8hpp.html" target="_top" xlink:title="The BME280 sensor extension.">
<polygon fill="none" stroke="black" points="329.5,-56.5 329.5,-75.5 406.5,-75.5 406.5,-56.5 329.5,-56.5"/>
<text text-anchor="middle" x="368" y="-63.5" font-family="Helvetica,sans-Serif" font-size="10.00">bme280.hpp</text>
</a>
</g>
</g>
<!-- Node5&#45;&gt;Node11 -->
<g id="edge9" class="edge">
<title>Node5&#45;&gt;Node11</title>
<path fill="none" stroke="midnightblue" d="M623.57,-168.28C535.76,-163.1 167.71,-170.42 132,-132 125.95,-125.49 126.33,-118.85 132,-112 132.4,-111.52 262.54,-86.9 329.37,-74.29"/>
<polygon fill="midnightblue" stroke="midnightblue" points="623.4,-171.78 633.65,-169.06 623.94,-164.8 623.4,-171.78"/>
</g>
<!-- Node13 -->
<g id="node12" class="node">
<title>Node13</title>
<g id="a_node12"><a xlink:href="bmi088_8hpp.html" target="_top" xlink:title="Extension for the Bosch BMI088 IMU.">
<polygon fill="none" stroke="black" points="896,-56.5 896,-75.5 970,-75.5 970,-56.5 896,-56.5"/>
<text text-anchor="middle" x="933" y="-63.5" font-family="Helvetica,sans-Serif" font-size="10.00">bmi088.hpp</text>
</a>
</g>
</g>
<!-- Node5&#45;&gt;Node13 -->
<g id="edge13" class="edge">
<title>Node5&#45;&gt;Node13</title>
<path fill="none" stroke="midnightblue" d="M758.04,-173.54C798.29,-168.71 848.9,-157.53 887,-132 908.36,-117.69 922.97,-89.86 929.35,-75.71"/>
<polygon fill="midnightblue" stroke="midnightblue" points="757.6,-170.07 748.05,-174.64 758.37,-177.03 757.6,-170.07"/>
</g>
<!-- Node15 -->
<g id="node14" class="node">
<title>Node15</title>
<g id="a_node14"><a xlink:href="ds18b20_8hpp.html" target="_top" xlink:title="DS18B20 extension header file.">
<polygon fill="none" stroke="black" points="232.5,-56.5 232.5,-75.5 311.5,-75.5 311.5,-56.5 232.5,-56.5"/>
<text text-anchor="middle" x="272" y="-63.5" font-family="Helvetica,sans-Serif" font-size="10.00">ds18b20.hpp</text>
</a>
</g>
</g>
<!-- Node5&#45;&gt;Node15 -->
<g id="edge17" class="edge">
<title>Node5&#45;&gt;Node15</title>
<path fill="none" stroke="midnightblue" d="M623.42,-168.28C534.33,-163.1 160.31,-171.02 124,-132 89.4,-94.82 177.71,-77.72 232.42,-70.89"/>
<polygon fill="midnightblue" stroke="midnightblue" points="623.41,-171.79 633.65,-169.06 623.94,-164.81 623.41,-171.79"/>
</g>
<!-- Node17 -->
<g id="node16" class="node">
<title>Node17</title>
<g id="a_node16"><a xlink:href="extension__base_8cpp.html" target="_top" xlink:title="The new implementation of the extension system.">
<polygon fill="none" stroke="black" points="248.5,-112.5 248.5,-131.5 361.5,-131.5 361.5,-112.5 248.5,-112.5"/>
<text text-anchor="middle" x="305" y="-119.5" font-family="Helvetica,sans-Serif" font-size="10.00">extension_base.cpp</text>
</a>
</g>
</g>
<!-- Node5&#45;&gt;Node17 -->
<g id="edge21" class="edge">
<title>Node5&#45;&gt;Node17</title>
<path fill="none" stroke="midnightblue" d="M623.46,-167.55C549.24,-157.17 431.36,-140.68 361.74,-130.94"/>
<polygon fill="midnightblue" stroke="midnightblue" points="623.24,-171.05 633.63,-168.97 624.21,-164.12 623.24,-171.05"/>
</g>
<!-- Node18 -->
<g id="node17" class="node">
<title>Node18</title>
<g id="a_node17"><a xlink:href="i2c__extension__adapter_8hpp.html" target="_top" xlink:title="Adapter for I2C Extensions.">
<polygon fill="none" stroke="black" points="697.5,-112.5 697.5,-131.5 844.5,-131.5 844.5,-112.5 697.5,-112.5"/>
<text text-anchor="middle" x="771" y="-119.5" font-family="Helvetica,sans-Serif" font-size="10.00">i2c_extension_adapter.hpp</text>
</a>
</g>
</g>
<!-- Node5&#45;&gt;Node18 -->
<g id="edge22" class="edge">
<title>Node5&#45;&gt;Node18</title>
<path fill="none" stroke="midnightblue" d="M712.3,-162.62C726.92,-152.76 745.83,-139.99 758.18,-131.65"/>
<polygon fill="midnightblue" stroke="midnightblue" points="710.18,-159.83 703.85,-168.32 714.1,-165.63 710.18,-159.83"/>
</g>
<!-- Node19 -->
<g id="node18" class="node">
<title>Node19</title>
<g id="a_node18"><a xlink:href="pi__camera_8hpp.html" target="_top" xlink:title="Raspberry Pi Camera Extension.">
<polygon fill="none" stroke="black" points="141.5,-112.5 141.5,-131.5 230.5,-131.5 230.5,-112.5 141.5,-112.5"/>
<text text-anchor="middle" x="186" y="-119.5" font-family="Helvetica,sans-Serif" font-size="10.00">pi_camera.hpp</text>
</a>
</g>
</g>
<!-- Node5&#45;&gt;Node19 -->
<g id="edge24" class="edge">
<title>Node5&#45;&gt;Node19</title>
<path fill="none" stroke="midnightblue" d="M624.31,-168.03C624.2,-168.02 624.1,-168.01 624,-168 453.25,-148.56 409.39,-154.4 239,-132 236.32,-131.65 233.56,-131.26 230.78,-130.85"/>
<polygon fill="midnightblue" stroke="midnightblue" points="623.66,-171.48 634,-169.18 624.48,-164.53 623.66,-171.48"/>
</g>
<!-- Node21 -->
<g id="node20" class="node">
<title>Node21</title>
<g id="a_node20"><a xlink:href="rgb__status__led_8hpp.html" target="_top" xlink:title=" ">
<polygon fill="none" stroke="red" points="670.5,-56.5 670.5,-75.5 779.5,-75.5 779.5,-56.5 670.5,-56.5"/>
<text text-anchor="middle" x="725" y="-63.5" font-family="Helvetica,sans-Serif" font-size="10.00">rgb_status_led.hpp</text>
</a>
</g>
</g>
<!-- Node5&#45;&gt;Node21 -->
<g id="edge27" class="edge">
<title>Node5&#45;&gt;Node21</title>
<path fill="none" stroke="midnightblue" d="M758.63,-166.62C797.62,-159.09 841.2,-147.52 853,-132 876.45,-101.15 824.19,-83.79 779.54,-74.92"/>
<polygon fill="midnightblue" stroke="midnightblue" points="757.5,-163.27 748.31,-168.54 758.78,-170.15 757.5,-163.27"/>
</g>
<!-- Node23 -->
<g id="node21" class="node">
<title>Node23</title>
<g id="a_node21"><a xlink:href="samm8q_8hpp.html" target="_top" xlink:title="SAM&#45;M8Q GPS extension (I2C).">
<polygon fill="none" stroke="red" points="798,-56.5 798,-75.5 878,-75.5 878,-56.5 798,-56.5"/>
<text text-anchor="middle" x="838" y="-63.5" font-family="Helvetica,sans-Serif" font-size="10.00">samm8q.hpp</text>
</a>
</g>
</g>
<!-- Node5&#45;&gt;Node23 -->
<g id="edge30" class="edge">
<title>Node5&#45;&gt;Node23</title>
<path fill="none" stroke="midnightblue" d="M758.21,-168.75C802.98,-161.71 856.08,-149.85 870,-132 884.08,-113.95 861.96,-88.71 848,-75.63"/>
<polygon fill="midnightblue" stroke="midnightblue" points="757.57,-165.3 748.21,-170.26 758.62,-172.22 757.57,-165.3"/>
</g>
<!-- Node25 -->
<g id="node22" class="node">
<title>Node25</title>
<g id="a_node22"><a xlink:href="extension__module_8hpp.html" target="_top" xlink:title="This is the header file for the new extension module.">
<polygon fill="none" stroke="black" points="977,-112.5 977,-131.5 1105,-131.5 1105,-112.5 977,-112.5"/>
<text text-anchor="middle" x="1041" y="-119.5" font-family="Helvetica,sans-Serif" font-size="10.00">extension_module.hpp</text>
</a>
</g>
</g>
<!-- Node5&#45;&gt;Node25 -->
<g id="edge33" class="edge">
<title>Node5&#45;&gt;Node25</title>
<path fill="none" stroke="midnightblue" d="M756.36,-166.92C822.48,-156.71 923.57,-141.12 985.8,-131.52"/>
<polygon fill="midnightblue" stroke="midnightblue" points="755.81,-163.46 746.46,-168.44 756.88,-170.38 755.81,-163.46"/>
</g>
<!-- Node30 -->
<g id="node27" class="node">
<title>Node30</title>
<g id="a_node27"><a xlink:href="extension__test__framework_8hpp.html" target="_top" xlink:title="Basic helpers for unit testing extensions on the host.">
<polygon fill="none" stroke="red" points="0,-56.5 0,-75.5 168,-75.5 168,-56.5 0,-56.5"/>
<text text-anchor="middle" x="84" y="-63.5" font-family="Helvetica,sans-Serif" font-size="10.00">extension_test_framework.hpp</text>
</a>
</g>
</g>
<!-- Node5&#45;&gt;Node30 -->
<g id="edge39" class="edge">
<title>Node5&#45;&gt;Node30</title>
<path fill="none" stroke="midnightblue" d="M623.54,-168.24C533.77,-162.35 157.67,-163.27 113,-132 93.97,-118.68 87.25,-89.87 85.02,-75.5"/>
<polygon fill="midnightblue" stroke="midnightblue" points="623.4,-171.74 633.65,-169.05 623.96,-164.76 623.4,-171.74"/>
</g>
<!-- Node32 -->
<g id="node28" class="node">
<title>Node32</title>
<g id="a_node28"><a xlink:href="simulated__extensions_8hpp.html" target="_top" xlink:title="This contains the simulated extensions for testing the flight system.">
<polygon fill="none" stroke="black" points="379.5,-112.5 379.5,-131.5 524.5,-131.5 524.5,-112.5 379.5,-112.5"/>
<text text-anchor="middle" x="452" y="-119.5" font-family="Helvetica,sans-Serif" font-size="10.00">simulated_extensions.hpp</text>
</a>
</g>
</g>
<!-- Node5&#45;&gt;Node32 -->
<g id="edge41" class="edge">
<title>Node5&#45;&gt;Node32</title>
<path fill="none" stroke="midnightblue" d="M643.28,-166.22C598.11,-156.01 531.23,-140.9 489.69,-131.52"/>
<polygon fill="midnightblue" stroke="midnightblue" points="642.6,-169.65 653.13,-168.44 644.15,-162.83 642.6,-169.65"/>
</g>
<!-- Node7 -->
<g id="node7" class="node">
<title>Node7</title>
<g id="a_node7"><a xlink:href="mcp3021_8hpp.html" target="_top" xlink:title="MCP3021 I2C ADC Driver.">
<polygon fill="none" stroke="red" points="569.5,-56.5 569.5,-75.5 652.5,-75.5 652.5,-56.5 569.5,-56.5"/>
<text text-anchor="middle" x="611" y="-63.5" font-family="Helvetica,sans-Serif" font-size="10.00">mcp3021.hpp</text>
</a>
</g>
</g>
<!-- Node6&#45;&gt;Node7 -->
<g id="edge6" class="edge">
<title>Node6&#45;&gt;Node7</title>
<path fill="none" stroke="midnightblue" d="M611,-101.8C611,-92.91 611,-82.78 611,-75.75"/>
<polygon fill="midnightblue" stroke="midnightblue" points="607.5,-102.08 611,-112.08 614.5,-102.08 607.5,-102.08"/>
</g>
<!-- Node9 -->
<g id="node8" class="node">
<title>Node9</title>
<g id="a_node8"><a xlink:href="extension__module_8cpp.html" target="_top" xlink:title="The implementation of the new extension module.">
<polygon fill="none" stroke="black" points="661.5,-0.5 661.5,-19.5 788.5,-19.5 788.5,-0.5 661.5,-0.5"/>
<text text-anchor="middle" x="725" y="-7.5" font-family="Helvetica,sans-Serif" font-size="10.00">extension_module.cpp</text>
</a>
</g>
</g>
<!-- Node7&#45;&gt;Node9 -->
<g id="edge7" class="edge">
<title>Node7&#45;&gt;Node9</title>
<path fill="none" stroke="midnightblue" d="M638.24,-52.1C659.54,-42.01 688.54,-28.27 707.02,-19.52"/>
<polygon fill="midnightblue" stroke="midnightblue" points="636.6,-49 629.06,-56.44 639.6,-55.33 636.6,-49"/>
</g>
<!-- Node10 -->
<g id="node9" class="node">
<title>Node10</title>
<g id="a_node9"><a xlink:href="test__extensions_8cpp.html" target="_top" xlink:title=" ">
<polygon fill="none" stroke="black" points="477,-0.5 477,-19.5 591,-19.5 591,-0.5 477,-0.5"/>
<text text-anchor="middle" x="534" y="-7.5" font-family="Helvetica,sans-Serif" font-size="10.00">test_extensions.cpp</text>
</a>
</g>
</g>
<!-- Node7&#45;&gt;Node10 -->
<g id="edge8" class="edge">
<title>Node7&#45;&gt;Node10</title>
<path fill="none" stroke="midnightblue" d="M590.1,-50.34C576.09,-40.52 558.12,-27.91 546.34,-19.65"/>
<polygon fill="midnightblue" stroke="midnightblue" points="588.43,-53.45 598.63,-56.32 592.45,-47.72 588.43,-53.45"/>
</g>
<!-- Node11&#45;&gt;Node9 -->
<g id="edge11" class="edge">
<title>Node11&#45;&gt;Node9</title>
<path fill="none" stroke="midnightblue" d="M416.64,-57.64C482.39,-47.7 599.37,-30 668.8,-19.5"/>
<polygon fill="midnightblue" stroke="midnightblue" points="415.91,-54.21 406.54,-59.17 416.96,-61.13 415.91,-54.21"/>
</g>
<!-- Node11&#45;&gt;Node10 -->
<g id="edge12" class="edge">
<title>Node11&#45;&gt;Node10</title>
<path fill="none" stroke="midnightblue" d="M403.95,-53.3C435.23,-43.13 479.82,-28.62 507.82,-19.52"/>
<polygon fill="midnightblue" stroke="midnightblue" points="402.73,-50.02 394.3,-56.44 404.9,-56.68 402.73,-50.02"/>
</g>
<!-- Node12 -->
<g id="node11" class="node">
<title>Node12</title>
<g id="a_node11"><a xlink:href="bme280_8cpp.html" target="_top" xlink:title="BME280 sensor extension.">
<polygon fill="none" stroke="black" points="329.5,-0.5 329.5,-19.5 406.5,-19.5 406.5,-0.5 329.5,-0.5"/>
<text text-anchor="middle" x="368" y="-7.5" font-family="Helvetica,sans-Serif" font-size="10.00">bme280.cpp</text>
</a>
</g>
</g>
<!-- Node11&#45;&gt;Node12 -->
<g id="edge10" class="edge">
<title>Node11&#45;&gt;Node12</title>
<path fill="none" stroke="midnightblue" d="M368,-45.8C368,-36.91 368,-26.78 368,-19.75"/>
<polygon fill="midnightblue" stroke="midnightblue" points="364.5,-46.08 368,-56.08 371.5,-46.08 364.5,-46.08"/>
</g>
<!-- Node13&#45;&gt;Node9 -->
<g id="edge15" class="edge">
<title>Node13&#45;&gt;Node9</title>
<path fill="none" stroke="midnightblue" d="M890.22,-53.89C850.94,-43.7 793.57,-28.8 757.8,-19.52"/>
<polygon fill="midnightblue" stroke="midnightblue" points="889.48,-57.32 900.04,-56.44 891.24,-50.54 889.48,-57.32"/>
</g>
<!-- Node13&#45;&gt;Node10 -->
<g id="edge16" class="edge">
<title>Node13&#45;&gt;Node10</title>
<path fill="none" stroke="midnightblue" d="M885.94,-55.92C775.9,-38.38 658.91,-24.6 591.03,-17.09"/>
<polygon fill="midnightblue" stroke="midnightblue" points="885.45,-59.39 895.88,-57.52 886.56,-52.48 885.45,-59.39"/>
</g>
<!-- Node14 -->
<g id="node13" class="node">
<title>Node14</title>
<g id="a_node13"><a xlink:href="bmi088_8cpp.html" target="_top" xlink:title="Implementation of the BMI088 extension.">
<polygon fill="none" stroke="black" points="896,-0.5 896,-19.5 970,-19.5 970,-0.5 896,-0.5"/>
<text text-anchor="middle" x="933" y="-7.5" font-family="Helvetica,sans-Serif" font-size="10.00">bmi088.cpp</text>
</a>
</g>
</g>
<!-- Node13&#45;&gt;Node14 -->
<g id="edge14" class="edge">
<title>Node13&#45;&gt;Node14</title>
<path fill="none" stroke="midnightblue" d="M933,-45.8C933,-36.91 933,-26.78 933,-19.75"/>
<polygon fill="midnightblue" stroke="midnightblue" points="929.5,-46.08 933,-56.08 936.5,-46.08 929.5,-46.08"/>
</g>
<!-- Node15&#45;&gt;Node9 -->
<g id="edge19" class="edge">
<title>Node15&#45;&gt;Node9</title>
<path fill="none" stroke="midnightblue" d="M321.72,-55.84C447.58,-37.34 583.5,-23.76 661.33,-16.59"/>
<polygon fill="midnightblue" stroke="midnightblue" points="320.89,-52.42 311.51,-57.35 321.92,-59.34 320.89,-52.42"/>
</g>
<!-- Node15&#45;&gt;Node10 -->
<g id="edge20" class="edge">
<title>Node15&#45;&gt;Node10</title>
<path fill="none" stroke="midnightblue" d="M321.34,-54.83C370.75,-44.65 445.96,-29.14 492.44,-19.57"/>
<polygon fill="midnightblue" stroke="midnightblue" points="320.6,-51.41 311.51,-56.86 322.01,-58.27 320.6,-51.41"/>
</g>
<!-- Node16 -->
<g id="node15" class="node">
<title>Node16</title>
<g id="a_node15"><a xlink:href="ds18b20_8cpp.html" target="_top" xlink:title="DS18B20 extension.">
<polygon fill="none" stroke="black" points="233,-0.5 233,-19.5 311,-19.5 311,-0.5 233,-0.5"/>
<text text-anchor="middle" x="272" y="-7.5" font-family="Helvetica,sans-Serif" font-size="10.00">ds18b20.cpp</text>
</a>
</g>
</g>
<!-- Node15&#45;&gt;Node16 -->
<g id="edge18" class="edge">
<title>Node15&#45;&gt;Node16</title>
<path fill="none" stroke="midnightblue" d="M272,-45.8C272,-36.91 272,-26.78 272,-19.75"/>
<polygon fill="midnightblue" stroke="midnightblue" points="268.5,-46.08 272,-56.08 275.5,-46.08 268.5,-46.08"/>
</g>
<!-- Node18&#45;&gt;Node7 -->
<g id="edge23" class="edge">
<title>Node18&#45;&gt;Node7</title>
<path fill="none" stroke="midnightblue" d="M735.95,-109.17C705.83,-99 663.1,-84.59 636.23,-75.52"/>
<polygon fill="midnightblue" stroke="midnightblue" points="735.05,-112.56 745.65,-112.44 737.29,-105.93 735.05,-112.56"/>
</g>
<!-- Node19&#45;&gt;Node10 -->
<g id="edge26" class="edge">
<title>Node19&#45;&gt;Node10</title>
<path fill="none" stroke="midnightblue" d="M240.65,-111.17C303.1,-99.79 398.8,-81.86 415,-76 425.79,-72.1 489.19,-36.43 518.79,-19.65"/>
<polygon fill="midnightblue" stroke="midnightblue" points="239.76,-107.77 230.55,-113 241.01,-114.66 239.76,-107.77"/>
</g>
<!-- Node20 -->
<g id="node19" class="node">
<title>Node20</title>
<g id="a_node19"><a xlink:href="pi__camera_8cpp.html" target="_top" xlink:title="Raspberry Pi Camera Extension.">
<polygon fill="none" stroke="black" points="463,-56.5 463,-75.5 551,-75.5 551,-56.5 463,-56.5"/>
<text text-anchor="middle" x="507" y="-63.5" font-family="Helvetica,sans-Serif" font-size="10.00">pi_camera.cpp</text>
</a>
</g>
</g>
<!-- Node19&#45;&gt;Node20 -->
<g id="edge25" class="edge">
<title>Node19&#45;&gt;Node20</title>
<path fill="none" stroke="midnightblue" d="M240.53,-111.74C324.8,-97.52 411.8,-82.94 462.89,-74.38"/>
<polygon fill="midnightblue" stroke="midnightblue" points="239.81,-108.32 230.53,-113.43 240.98,-115.22 239.81,-108.32"/>
</g>
<!-- Node21&#45;&gt;Node9 -->
<g id="edge28" class="edge">
<title>Node21&#45;&gt;Node9</title>
<path fill="none" stroke="midnightblue" d="M725,-45.8C725,-36.91 725,-26.78 725,-19.75"/>
<polygon fill="midnightblue" stroke="midnightblue" points="721.5,-46.08 725,-56.08 728.5,-46.08 721.5,-46.08"/>
</g>
<!-- Node21&#45;&gt;Node10 -->
<g id="edge29" class="edge">
<title>Node21&#45;&gt;Node10</title>
<path fill="none" stroke="midnightblue" d="M685.03,-53.7C648.98,-43.51 596.76,-28.74 564.12,-19.52"/>
<polygon fill="midnightblue" stroke="midnightblue" points="684.16,-57.09 694.74,-56.44 686.06,-50.35 684.16,-57.09"/>
</g>
<!-- Node23&#45;&gt;Node9 -->
<g id="edge31" class="edge">
<title>Node23&#45;&gt;Node9</title>
<path fill="none" stroke="midnightblue" d="M811,-52.1C789.89,-42.01 761.14,-28.27 742.82,-19.52"/>
<polygon fill="midnightblue" stroke="midnightblue" points="809.56,-55.29 820.09,-56.44 812.58,-48.97 809.56,-55.29"/>
</g>
<!-- Node23&#45;&gt;Node10 -->
<g id="edge32" class="edge">
<title>Node23&#45;&gt;Node10</title>
<path fill="none" stroke="midnightblue" d="M788.3,-56.05C788.2,-56.04 788.1,-56.02 788,-56 716.36,-43.21 633.33,-28.52 582.23,-19.5"/>
<polygon fill="midnightblue" stroke="midnightblue" points="787.42,-59.45 797.88,-57.77 788.66,-52.56 787.42,-59.45"/>
</g>
<!-- Node25&#45;&gt;Node9 -->
<g id="edge38" class="edge">
<title>Node25&#45;&gt;Node9</title>
<path fill="none" stroke="midnightblue" d="M1029.4,-103.68C1018.31,-88.57 1000.17,-67.35 979,-56 919.6,-24.15 842.26,-14.2 788.59,-11.4"/>
<polygon fill="midnightblue" stroke="midnightblue" points="1026.75,-105.99 1035.36,-112.15 1032.47,-101.96 1026.75,-105.99"/>
</g>
<!-- Node25&#45;&gt;Node26 -->
<g id="edge34" class="edge">
<title>Node25&#45;&gt;Node26</title>
<path fill="none" stroke="midnightblue" d="M1115.4,-111.98C1264.24,-95.39 1426.27,-79.42 1505.81,-71.72"/>
<polygon fill="midnightblue" stroke="midnightblue" points="1114.72,-108.53 1105.17,-113.12 1115.49,-115.49 1114.72,-108.53"/>
</g>
<!-- Node27 -->
<g id="node24" class="node">
<title>Node27</title>
<g id="a_node24"><a xlink:href="flight__logic_8cpp.html" target="_top" xlink:title="The implementation of the flight logic within the flight runner.">
<polygon fill="none" stroke="black" points="1604,-0.5 1604,-19.5 1694,-19.5 1694,-0.5 1604,-0.5"/>
<text text-anchor="middle" x="1649" y="-7.5" font-family="Helvetica,sans-Serif" font-size="10.00">flight_logic.cpp</text>
</a>
</g>
</g>
<!-- Node26&#45;&gt;Node27 -->
<g id="edge35" class="edge">
<title>Node26&#45;&gt;Node27</title>
<path fill="none" stroke="midnightblue" d="M1579.06,-51.18C1596.36,-41.24 1619.15,-28.15 1633.93,-19.65"/>
<polygon fill="midnightblue" stroke="midnightblue" points="1577.03,-48.31 1570.1,-56.32 1580.52,-54.38 1577.03,-48.31"/>
</g>
<!-- Node28 -->
<g id="node25" class="node">
<title>Node28</title>
<g id="a_node25"><a xlink:href="flight__runner_8cpp.html" target="_top" xlink:title="The implementation of the flight runner, where everything comes together.">
<polygon fill="none" stroke="black" points="1408,-0.5 1408,-19.5 1506,-19.5 1506,-0.5 1408,-0.5"/>
<text text-anchor="middle" x="1457" y="-7.5" font-family="Helvetica,sans-Serif" font-size="10.00">flight_runner.cpp</text>
</a>
</g>
</g>
<!-- Node26&#45;&gt;Node28 -->
<g id="edge36" class="edge">
<title>Node26&#45;&gt;Node28</title>
<path fill="none" stroke="midnightblue" d="M1530.41,-51.45C1512.32,-41.48 1488.27,-28.23 1472.71,-19.65"/>
<polygon fill="midnightblue" stroke="midnightblue" points="1528.81,-54.56 1539.25,-56.32 1532.19,-48.43 1528.81,-54.56"/>
</g>
<!-- Node29 -->
<g id="node26" class="node">
<title>Node29</title>
<g id="a_node26"><a xlink:href="src_2flight__system_2main_8cpp.html" target="_top" xlink:title="Defines the entry point/main function of the Flight Computer software.">
<polygon fill="none" stroke="black" points="1524,-0.5 1524,-19.5 1586,-19.5 1586,-0.5 1524,-0.5"/>
<text text-anchor="middle" x="1555" y="-7.5" font-family="Helvetica,sans-Serif" font-size="10.00">main.cpp</text>
</a>
</g>
</g>
<!-- Node26&#45;&gt;Node29 -->
<g id="edge37" class="edge">
<title>Node26&#45;&gt;Node29</title>
<path fill="none" stroke="midnightblue" d="M1555,-45.8C1555,-36.91 1555,-26.78 1555,-19.75"/>
<polygon fill="midnightblue" stroke="midnightblue" points="1551.5,-46.08 1555,-56.08 1558.5,-46.08 1551.5,-46.08"/>
</g>
<!-- Node30&#45;&gt;Node10 -->
<g id="edge40" class="edge">
<title>Node30&#45;&gt;Node10</title>
<path fill="none" stroke="midnightblue" d="M165.47,-55.22C255.49,-44.42 398.12,-27.31 476.94,-17.85"/>
<polygon fill="midnightblue" stroke="midnightblue" points="164.82,-51.78 155.3,-56.44 165.65,-58.73 164.82,-51.78"/>
</g>
<!-- Node35 -->
<g id="node31" class="node">
<title>Node35</title>
<g id="a_node31"><a xlink:href="console__module_8hpp.html" target="_top" xlink:title=" ">
<polygon fill="none" stroke="red" points="1123.5,-112.5 1123.5,-131.5 1240.5,-131.5 1240.5,-112.5 1123.5,-112.5"/>
<text text-anchor="middle" x="1182" y="-119.5" font-family="Helvetica,sans-Serif" font-size="10.00">console_module.hpp</text>
</a>
</g>
</g>
<!-- Node34&#45;&gt;Node35 -->
<g id="edge46" class="edge">
<title>Node34&#45;&gt;Node35</title>
<path fill="none" stroke="midnightblue" d="M1334.81,-216.42C1345.41,-202.46 1356.04,-182.5 1345,-168 1332.15,-151.12 1281.87,-138.96 1240.52,-131.57"/>
<polygon fill="midnightblue" stroke="midnightblue" points="1332.03,-214.28 1328.4,-224.24 1337.45,-218.72 1332.03,-214.28"/>
</g>
<!-- Node37 -->
<g id="node32" class="node">
<title>Node37</title>
<g id="a_node32"><a xlink:href="console__pages_8cpp.html" target="_top" xlink:title=" ">
<polygon fill="none" stroke="black" points="1226.5,-168.5 1226.5,-187.5 1335.5,-187.5 1335.5,-168.5 1226.5,-168.5"/>
<text text-anchor="middle" x="1281" y="-175.5" font-family="Helvetica,sans-Serif" font-size="10.00">console_pages.cpp</text>
</a>
</g>
</g>
<!-- Node34&#45;&gt;Node37 -->
<g id="edge48" class="edge">
<title>Node34&#45;&gt;Node37</title>
<path fill="none" stroke="midnightblue" d="M1307.62,-215.86C1300.86,-206.5 1292.79,-195.33 1287.32,-187.75"/>
<polygon fill="midnightblue" stroke="midnightblue" points="1304.87,-218.03 1313.56,-224.08 1310.54,-213.93 1304.87,-218.03"/>
</g>
<!-- Node38 -->
<g id="node33" class="node">
<title>Node38</title>
<g id="a_node33"><a xlink:href="curses__utilities_8hpp.html" target="_top" xlink:title=" ">
<polygon fill="none" stroke="red" points="1097.5,-168.5 1097.5,-187.5 1208.5,-187.5 1208.5,-168.5 1097.5,-168.5"/>
<text text-anchor="middle" x="1153" y="-175.5" font-family="Helvetica,sans-Serif" font-size="10.00">curses_utilities.hpp</text>
</a>
</g>
</g>
<!-- Node34&#45;&gt;Node38 -->
<g id="edge49" class="edge">
<title>Node34&#45;&gt;Node38</title>
<path fill="none" stroke="midnightblue" d="M1283.83,-221.3C1252.36,-211.13 1207.51,-196.62 1179.34,-187.52"/>
<polygon fill="midnightblue" stroke="midnightblue" points="1282.95,-224.7 1293.54,-224.44 1285.1,-218.04 1282.95,-224.7"/>
</g>
<!-- Node35&#45;&gt;Node26 -->
<g id="edge47" class="edge">
<title>Node35&#45;&gt;Node26</title>
<path fill="none" stroke="midnightblue" d="M1250.84,-111.03C1324.83,-100.32 1440.57,-83.57 1505.87,-74.11"/>
<polygon fill="midnightblue" stroke="midnightblue" points="1250.09,-107.61 1240.69,-112.5 1251.09,-114.53 1250.09,-107.61"/>
</g>
<!-- Node38&#45;&gt;Node35 -->
<g id="edge50" class="edge">
<title>Node38&#45;&gt;Node35</title>
<path fill="none" stroke="midnightblue" d="M1162.68,-158.98C1167.6,-149.82 1173.36,-139.09 1177.3,-131.75"/>
<polygon fill="midnightblue" stroke="midnightblue" points="1159.44,-157.62 1157.79,-168.08 1165.6,-160.93 1159.44,-157.62"/>
</g>
<!-- Node41 -->
<g id="node35" class="node">
<title>Node41</title>
<g id="a_node35"><a xlink:href="data__formatting_8cpp.html" target="_top" xlink:title="Implementation of the DataFormatter class.">
<polygon fill="none" stroke="black" points="1700,-224.5 1700,-243.5 1816,-243.5 1816,-224.5 1700,-224.5"/>
<text text-anchor="middle" x="1758" y="-231.5" font-family="Helvetica,sans-Serif" font-size="10.00">data_formatting.cpp</text>
</a>
</g>
</g>
<!-- Node40&#45;&gt;Node41 -->
<g id="edge52" class="edge">
<title>Node40&#45;&gt;Node41</title>
<path fill="none" stroke="midnightblue" d="M1732.06,-271.86C1738.64,-262.5 1746.51,-251.33 1751.84,-243.75"/>
<polygon fill="midnightblue" stroke="midnightblue" points="1729.17,-269.89 1726.27,-280.08 1734.89,-273.92 1729.17,-269.89"/>
</g>
<!-- Node40&#45;&gt;Node42 -->
<g id="edge53" class="edge">
<title>Node40&#45;&gt;Node42</title>
<path fill="none" stroke="midnightblue" d="M1699.23,-274.62C1684.98,-264.76 1666.54,-251.99 1654.5,-243.65"/>
<polygon fill="midnightblue" stroke="midnightblue" points="1697.25,-277.51 1707.47,-280.32 1701.24,-271.75 1697.25,-277.51"/>
</g>
<!-- Node43 -->
<g id="node37" class="node">
<title>Node43</title>
<g id="a_node37"><a xlink:href="data__log_8cpp.html" target="_top" xlink:title="The implementation of the data log class.">
<polygon fill="none" stroke="black" points="1670.5,-168.5 1670.5,-187.5 1749.5,-187.5 1749.5,-168.5 1670.5,-168.5"/>
<text text-anchor="middle" x="1710" y="-175.5" font-family="Helvetica,sans-Serif" font-size="10.00">data_log.cpp</text>
</a>
</g>
</g>
<!-- Node42&#45;&gt;Node43 -->
<g id="edge54" class="edge">
<title>Node42&#45;&gt;Node43</title>
<path fill="none" stroke="midnightblue" d="M1660.76,-218.1C1673,-208.38 1688.56,-196.03 1698.88,-187.83"/>
<polygon fill="midnightblue" stroke="midnightblue" points="1658.58,-215.36 1652.93,-224.32 1662.93,-220.85 1658.58,-215.36"/>
</g>
<!-- Node44 -->
<g id="node38" class="node">
<title>Node44</title>
<g id="a_node38"><a xlink:href="data__module_8hpp.html" target="_top" xlink:title="The data module header file.">
<polygon fill="none" stroke="red" points="1631.5,-112.5 1631.5,-131.5 1732.5,-131.5 1732.5,-112.5 1631.5,-112.5"/>
<text text-anchor="middle" x="1682" y="-119.5" font-family="Helvetica,sans-Serif" font-size="10.00">data_module.hpp</text>
</a>
</g>
</g>
<!-- Node42&#45;&gt;Node44 -->
<g id="edge55" class="edge">
<title>Node42&#45;&gt;Node44</title>
<path fill="none" stroke="midnightblue" d="M1646.98,-214.77C1650.72,-201.63 1656.18,-183.55 1662,-168 1666.8,-155.19 1673.41,-140.81 1677.7,-131.83"/>
<polygon fill="midnightblue" stroke="midnightblue" points="1643.58,-213.9 1644.27,-224.48 1650.33,-215.78 1643.58,-213.9"/>
</g>
<!-- Node44&#45;&gt;Node26 -->
<g id="edge56" class="edge">
<title>Node44&#45;&gt;Node26</title>
<path fill="none" stroke="midnightblue" d="M1652.61,-108.5C1628.8,-98.38 1595.89,-84.39 1575.03,-75.52"/>
<polygon fill="midnightblue" stroke="midnightblue" points="1651.3,-111.75 1661.88,-112.44 1654.04,-105.31 1651.3,-111.75"/>
</g>
<!-- Node47&#45;&gt;Node44 -->
<g id="edge59" class="edge">
<title>Node47&#45;&gt;Node44</title>
<path fill="none" stroke="midnightblue" d="M1523.28,-274.23C1506.52,-261.4 1488.33,-242.08 1499,-224 1530.36,-170.87 1600.77,-143.77 1644.54,-131.55"/>
<polygon fill="midnightblue" stroke="midnightblue" points="1521.59,-277.33 1531.76,-280.31 1525.67,-271.64 1521.59,-277.33"/>
</g>
<!-- Node48 -->
<g id="node40" class="node">
<title>Node48</title>
<g id="a_node40"><a xlink:href="influxdb_8cpp.html" target="_top" xlink:title=" ">
<polygon fill="none" stroke="black" points="1508,-224.5 1508,-243.5 1584,-243.5 1584,-224.5 1508,-224.5"/>
<text text-anchor="middle" x="1546" y="-231.5" font-family="Helvetica,sans-Serif" font-size="10.00">influxdb.cpp</text>
</a>
</g>
</g>
<!-- Node47&#45;&gt;Node48 -->
<g id="edge60" class="edge">
<title>Node47&#45;&gt;Node48</title>
<path fill="none" stroke="midnightblue" d="M1546,-269.8C1546,-260.91 1546,-250.78 1546,-243.75"/>
<polygon fill="midnightblue" stroke="midnightblue" points="1542.5,-270.08 1546,-280.08 1549.5,-270.08 1542.5,-270.08"/>
</g>
<!-- Node49&#45;&gt;Node25 -->
<g id="edge64" class="edge">
<title>Node49&#45;&gt;Node25</title>
<path fill="none" stroke="midnightblue" d="M1381.47,-170.39C1311.18,-160.6 1179.49,-142.27 1102.11,-131.5"/>
<polygon fill="midnightblue" stroke="midnightblue" points="1381.41,-173.91 1391.8,-171.82 1382.37,-166.98 1381.41,-173.91"/>
</g>
<!-- Node49&#45;&gt;Node35 -->
<g id="edge62" class="edge">
<title>Node49&#45;&gt;Node35</title>
<path fill="none" stroke="midnightblue" d="M1381.9,-166.7C1335.31,-156.52 1264.81,-141.1 1221.18,-131.57"/>
<polygon fill="midnightblue" stroke="midnightblue" points="1381.24,-170.14 1391.75,-168.86 1382.73,-163.3 1381.24,-170.14"/>
</g>
<!-- Node49&#45;&gt;Node44 -->
<g id="edge63" class="edge">
<title>Node49&#45;&gt;Node44</title>
<path fill="none" stroke="midnightblue" d="M1476.14,-166.94C1523.87,-156.75 1596.88,-141.17 1641.91,-131.56"/>
<polygon fill="midnightblue" stroke="midnightblue" points="1475.11,-163.58 1466.06,-169.09 1476.57,-170.43 1475.11,-163.58"/>
</g>
<!-- Node50 -->
<g id="node42" class="node">
<title>Node50</title>
<g id="a_node42"><a xlink:href="module_8cpp.html" target="_top" xlink:title="Implementation of the module base class.">
<polygon fill="none" stroke="black" points="1405,-112.5 1405,-131.5 1479,-131.5 1479,-112.5 1405,-112.5"/>
<text text-anchor="middle" x="1442" y="-119.5" font-family="Helvetica,sans-Serif" font-size="10.00">module.cpp</text>
</a>
</g>
</g>
<!-- Node49&#45;&gt;Node50 -->
<g id="edge65" class="edge">
<title>Node49&#45;&gt;Node50</title>
<path fill="none" stroke="midnightblue" d="M1433.55,-158.1C1435.71,-149.14 1438.18,-138.86 1439.89,-131.75"/>
<polygon fill="midnightblue" stroke="midnightblue" points="1430.08,-157.54 1431.15,-168.08 1436.89,-159.18 1430.08,-157.54"/>
</g>
<!-- Node51 -->
<g id="node43" class="node">
<title>Node51</title>
<g id="a_node43"><a xlink:href="server__module_8hpp.html" target="_top" xlink:title="Header file for the server module.">
<polygon fill="none" stroke="red" points="1751,-112.5 1751,-131.5 1861,-131.5 1861,-112.5 1751,-112.5"/>
<text text-anchor="middle" x="1806" y="-119.5" font-family="Helvetica,sans-Serif" font-size="10.00">server_module.hpp</text>
</a>
</g>
</g>
<!-- Node49&#45;&gt;Node51 -->
<g id="edge66" class="edge">
<title>Node49&#45;&gt;Node51</title>
<path fill="none" stroke="midnightblue" d="M1476.46,-170.2C1546.42,-160.18 1676.91,-141.49 1750.97,-130.88"/>
<polygon fill="midnightblue" stroke="midnightblue" points="1475.58,-166.79 1466.18,-171.67 1476.58,-173.72 1475.58,-166.79"/>
</g>
<!-- Node53 -->
<g id="node44" class="node">
<title>Node53</title>
<g id="a_node44"><a xlink:href="system__module_8hpp.html" target="_top" xlink:title=" ">
<polygon fill="none" stroke="red" points="1497,-112.5 1497,-131.5 1613,-131.5 1613,-112.5 1497,-112.5"/>
<text text-anchor="middle" x="1555" y="-119.5" font-family="Helvetica,sans-Serif" font-size="10.00">system_module.hpp</text>
</a>
</g>
</g>
<!-- Node49&#45;&gt;Node53 -->
<g id="edge68" class="edge">
<title>Node49&#45;&gt;Node53</title>
<path fill="none" stroke="midnightblue" d="M1458.16,-164.5C1481.78,-154.38 1514.43,-140.39 1535.13,-131.52"/>
<polygon fill="midnightblue" stroke="midnightblue" points="1456.78,-161.29 1448.97,-168.44 1459.54,-167.72 1456.78,-161.29"/>
</g>
<!-- Node55 -->
<g id="node45" class="node">
<title>Node55</title>
<g id="a_node45"><a xlink:href="telemetry__module_8hpp.html" target="_top" xlink:title="The telemetry module.">
<polygon fill="none" stroke="red" points="1259,-112.5 1259,-131.5 1387,-131.5 1387,-112.5 1259,-112.5"/>
<text text-anchor="middle" x="1323" y="-119.5" font-family="Helvetica,sans-Serif" font-size="10.00">telemetry_module.hpp</text>
</a>
</g>
</g>
<!-- Node49&#45;&gt;Node55 -->
<g id="edge70" class="edge">
<title>Node49&#45;&gt;Node55</title>
<path fill="none" stroke="midnightblue" d="M1402.94,-163.73C1383.32,-153.73 1356.97,-140.31 1339.99,-131.65"/>
<polygon fill="midnightblue" stroke="midnightblue" points="1401.47,-166.9 1411.97,-168.32 1404.65,-160.67 1401.47,-166.9"/>
</g>
<!-- Node51&#45;&gt;Node26 -->
<g id="edge67" class="edge">
<title>Node51&#45;&gt;Node26</title>
<path fill="none" stroke="midnightblue" d="M1756.18,-110.28C1708.75,-100.08 1638.3,-84.92 1594.59,-75.52"/>
<polygon fill="midnightblue" stroke="midnightblue" points="1755.72,-113.76 1766.23,-112.44 1757.19,-106.92 1755.72,-113.76"/>
</g>
<!-- Node53&#45;&gt;Node26 -->
<g id="edge69" class="edge">
<title>Node53&#45;&gt;Node26</title>
<path fill="none" stroke="midnightblue" d="M1555,-101.8C1555,-92.91 1555,-82.78 1555,-75.75"/>
<polygon fill="midnightblue" stroke="midnightblue" points="1551.5,-102.08 1555,-112.08 1558.5,-102.08 1551.5,-102.08"/>
</g>
<!-- Node55&#45;&gt;Node26 -->
<g id="edge71" class="edge">
<title>Node55&#45;&gt;Node26</title>
<path fill="none" stroke="midnightblue" d="M1369.6,-110.15C1413.44,-99.95 1478.18,-84.88 1518.41,-75.52"/>
<polygon fill="midnightblue" stroke="midnightblue" points="1368.71,-106.77 1359.76,-112.44 1370.29,-113.59 1368.71,-106.77"/>
</g>
<!-- Node57&#45;&gt;Node51 -->
<g id="edge74" class="edge">
<title>Node57&#45;&gt;Node51</title>
<path fill="none" stroke="midnightblue" d="M1863.7,-219.41C1850.57,-211.81 1835.74,-201.2 1826,-188 1813.25,-170.71 1808.52,-145.15 1806.85,-131.82"/>
<polygon fill="midnightblue" stroke="midnightblue" points="1862.42,-222.69 1872.87,-224.4 1865.76,-216.54 1862.42,-222.69"/>
</g>
<!-- Node58 -->
<g id="node47" class="node">
<title>Node58</title>
<g id="a_node47"><a xlink:href="request__handler_8cpp.html" target="_top" xlink:title="The request handler class implementation.">
<polygon fill="none" stroke="black" points="1834.5,-168.5 1834.5,-187.5 1949.5,-187.5 1949.5,-168.5 1834.5,-168.5"/>
<text text-anchor="middle" x="1892" y="-175.5" font-family="Helvetica,sans-Serif" font-size="10.00">request_handler.cpp</text>
</a>
</g>
</g>
<!-- Node57&#45;&gt;Node58 -->
<g id="edge73" class="edge">
<title>Node57&#45;&gt;Node58</title>
<path fill="none" stroke="midnightblue" d="M1892,-213.8C1892,-204.91 1892,-194.78 1892,-187.75"/>
<polygon fill="midnightblue" stroke="midnightblue" points="1888.5,-214.08 1892,-224.08 1895.5,-214.08 1888.5,-214.08"/>
</g>
<!-- Node59&#45;&gt;Node57 -->
<g id="edge76" class="edge">
<title>Node59&#45;&gt;Node57</title>
<path fill="none" stroke="midnightblue" d="M1847.75,-273.54C1858.81,-263.91 1872.63,-251.87 1881.86,-243.83"/>
<polygon fill="midnightblue" stroke="midnightblue" points="1845.2,-271.12 1839.96,-280.32 1849.8,-276.4 1845.2,-271.12"/>
</g>
</g>
</svg>
