<?xml version="1.0" encoding="UTF-8" standalone="no"?>
<!DOCTYPE svg PUBLIC "-//W3C//DTD SVG 1.1//EN"
 "http://www.w3.org/Graphics/SVG/1.1/DTD/svg11.dtd">
<!-- Generated by graphviz version 2.43.0 (0)
 -->
<!-- Title: setCalculatedDataLaunch Pages: 1 -->
<svg width="321pt" height="78pt"
 viewBox="0.00 0.00 321.00 77.50" xmlns="http://www.w3.org/2000/svg" xmlns:xlink="http://www.w3.org/1999/xlink">
<g id="graph0" class="graph" transform="scale(1 1) rotate(0) translate(4 73.5)">
<title>setCalculatedDataLaunch</title>
<!-- Node1 -->
<g id="node1" class="node">
<title>Node1</title>
<g id="a_node1"><a xlink:title=" ">
<polygon fill="#bfbfbf" stroke="black" points="172,-22.5 172,-41.5 313,-41.5 313,-22.5 172,-22.5"/>
<text text-anchor="middle" x="242.5" y="-29.5" font-family="Helvetica,sans-Serif" font-size="10.00">setCalculatedDataLaunch</text>
</a>
</g>
</g>
<!-- Node2 -->
<g id="node2" class="node">
<title>Node2</title>
<g id="a_node2"><a xlink:href="classFlightPhaseManagerTest.html#a79547ae421088b0835c663c2f8da988c" target="_top" xlink:title=" ">
<polygon fill="none" stroke="black" points="0,-39 0,-69 136,-69 136,-39 0,-39"/>
<text text-anchor="start" x="8" y="-57" font-family="Helvetica,sans-Serif" font-size="10.00">FlightPhaseManagerTest</text>
<text text-anchor="middle" x="68" y="-46" font-family="Helvetica,sans-Serif" font-size="10.00">::setParamsLaunch</text>
</a>
</g>
</g>
<!-- Node1&#45;&gt;Node2 -->
<g id="edge1" class="edge">
<title>Node1&#45;&gt;Node2</title>
<path fill="none" stroke="midnightblue" d="M161.81,-42.16C153.22,-43.26 144.55,-44.36 136.13,-45.44"/>
<polygon fill="midnightblue" stroke="midnightblue" points="162.36,-45.62 171.83,-40.88 161.47,-38.68 162.36,-45.62"/>
</g>
<!-- Node3 -->
<g id="node3" class="node">
<title>Node3</title>
<g id="a_node3"><a xlink:href="test__flight__phase__predictor_8cpp.html#a575be07e306fb9e52c6a9a92e0c19f96" target="_top" xlink:title=" ">
<polygon fill="none" stroke="black" points="42,-0.5 42,-19.5 94,-19.5 94,-0.5 42,-0.5"/>
<text text-anchor="middle" x="68" y="-7.5" font-family="Helvetica,sans-Serif" font-size="10.00">TEST_F</text>
</a>
</g>
</g>
<!-- Node1&#45;&gt;Node3 -->
<g id="edge2" class="edge">
<title>Node1&#45;&gt;Node3</title>
<path fill="none" stroke="midnightblue" d="M161.77,-21.83C137.26,-18.71 112.05,-15.49 94.1,-13.2"/>
<polygon fill="midnightblue" stroke="midnightblue" points="161.47,-25.32 171.83,-23.12 162.36,-18.38 161.47,-25.32"/>
</g>
</g>
</svg>
