<?xml version="1.0" encoding="UTF-8" standalone="no"?>
<!DOCTYPE svg PUBLIC "-//W3C//DTD SVG 1.1//EN"
 "http://www.w3.org/Graphics/SVG/1.1/DTD/svg11.dtd">
<!-- Generated by graphviz version 2.43.0 (0)
 -->
<!-- Title: simplex_physical_layer.hpp Pages: 1 -->
<svg width="316pt" height="84pt"
 viewBox="0.00 0.00 316.00 84.00" xmlns="http://www.w3.org/2000/svg" xmlns:xlink="http://www.w3.org/1999/xlink">
<g id="graph0" class="graph" transform="scale(1 1) rotate(0) translate(4 80)">
<title>simplex_physical_layer.hpp</title>
<!-- Node1 -->
<g id="node1" class="node">
<title>Node1</title>
<g id="a_node1"><a xlink:title="AX.25 Simplex Physical Layer State Machine.">
<polygon fill="#bfbfbf" stroke="black" points="74.5,-56.5 74.5,-75.5 226.5,-75.5 226.5,-56.5 74.5,-56.5"/>
<text text-anchor="middle" x="150.5" y="-63.5" font-family="Helvetica,sans-Serif" font-size="10.00">simplex_physical_layer.hpp</text>
</a>
</g>
</g>
<!-- Node2 -->
<g id="node2" class="node">
<title>Node2</title>
<g id="a_node2"><a xlink:href="ax25__state__machine_8hpp.html" target="_top" xlink:title="Defines the AX.25 state machine.">
<polygon fill="none" stroke="black" points="0,-0.5 0,-19.5 139,-19.5 139,-0.5 0,-0.5"/>
<text text-anchor="middle" x="69.5" y="-7.5" font-family="Helvetica,sans-Serif" font-size="10.00">ax25_state_machine.hpp</text>
</a>
</g>
</g>
<!-- Node1&#45;&gt;Node2 -->
<g id="edge1" class="edge">
<title>Node1&#45;&gt;Node2</title>
<path fill="none" stroke="midnightblue" d="M128.93,-50.62C114.14,-40.76 94.99,-27.99 82.48,-19.65"/>
<polygon fill="midnightblue" stroke="midnightblue" points="127.22,-53.69 137.49,-56.32 131.11,-47.86 127.22,-53.69"/>
</g>
<!-- Node3 -->
<g id="node3" class="node">
<title>Node3</title>
<g id="a_node3"><a xlink:href="simplex__physical__layer_8cpp.html" target="_top" xlink:title="AX.25 Simplex Physical Layer State Machine.">
<polygon fill="none" stroke="black" points="157,-0.5 157,-19.5 308,-19.5 308,-0.5 157,-0.5"/>
<text text-anchor="middle" x="232.5" y="-7.5" font-family="Helvetica,sans-Serif" font-size="10.00">simplex_physical_layer.cpp</text>
</a>
</g>
</g>
<!-- Node1&#45;&gt;Node3 -->
<g id="edge2" class="edge">
<title>Node1&#45;&gt;Node3</title>
<path fill="none" stroke="midnightblue" d="M172.33,-50.62C187.31,-40.76 206.7,-27.99 219.36,-19.65"/>
<polygon fill="midnightblue" stroke="midnightblue" points="170.1,-47.9 163.67,-56.32 173.95,-53.75 170.1,-47.9"/>
</g>
</g>
</svg>
