<?xml version="1.0" encoding="UTF-8" standalone="no"?>
<!DOCTYPE svg PUBLIC "-//W3C//DTD SVG 1.1//EN"
 "http://www.w3.org/Graphics/SVG/1.1/DTD/svg11.dtd">
<!-- Generated by graphviz version 2.43.0 (0)
 -->
<!-- Title: socket.cpp Pages: 1 -->
<svg width="729pt" height="151pt"
 viewBox="0.00 0.00 729.00 151.00" xmlns="http://www.w3.org/2000/svg" xmlns:xlink="http://www.w3.org/1999/xlink">
<g id="graph0" class="graph" transform="scale(1 1) rotate(0) translate(4 147)">
<title>socket.cpp</title>
<!-- Node1 -->
<g id="node1" class="node">
<title>Node1</title>
<g id="a_node1"><a xlink:title="Implements the socket class.">
<polygon fill="#bfbfbf" stroke="black" points="377,-123.5 377,-142.5 445,-142.5 445,-123.5 377,-123.5"/>
<text text-anchor="middle" x="411" y="-130.5" font-family="Helvetica,sans-Serif" font-size="10.00">socket.cpp</text>
</a>
</g>
</g>
<!-- Node2 -->
<g id="node2" class="node">
<title>Node2</title>
<g id="a_node2"><a xlink:href="socket_8hpp.html" target="_top" xlink:title="The socket class header.">
<polygon fill="none" stroke="black" points="110.5,-67.5 110.5,-86.5 179.5,-86.5 179.5,-67.5 110.5,-67.5"/>
<text text-anchor="middle" x="145" y="-74.5" font-family="Helvetica,sans-Serif" font-size="10.00">socket.hpp</text>
</a>
</g>
</g>
<!-- Node1&#45;&gt;Node2 -->
<g id="edge1" class="edge">
<title>Node1&#45;&gt;Node2</title>
<path fill="none" stroke="midnightblue" d="M376.77,-125.08C335.12,-116.66 262.38,-101.93 189.82,-87.16"/>
<polygon fill="midnightblue" stroke="midnightblue" points="190.08,-83.65 179.59,-85.08 188.69,-90.51 190.08,-83.65"/>
</g>
<!-- Node6 -->
<g id="node6" class="node">
<title>Node6</title>
<g id="a_node6"><a xlink:title=" ">
<polygon fill="none" stroke="#bfbfbf" points="197.5,-67.5 197.5,-86.5 266.5,-86.5 266.5,-67.5 197.5,-67.5"/>
<text text-anchor="middle" x="232" y="-74.5" font-family="Helvetica,sans-Serif" font-size="10.00">arpa/inet.h</text>
</a>
</g>
</g>
<!-- Node1&#45;&gt;Node6 -->
<g id="edge5" class="edge">
<title>Node1&#45;&gt;Node6</title>
<path fill="none" stroke="midnightblue" d="M382.64,-123.44C352.26,-114.28 303.89,-99.69 270.18,-89.52"/>
<polygon fill="midnightblue" stroke="midnightblue" points="270.82,-86.05 260.23,-86.52 268.79,-92.76 270.82,-86.05"/>
</g>
<!-- Node7 -->
<g id="node7" class="node">
<title>Node7</title>
<g id="a_node7"><a xlink:title=" ">
<polygon fill="none" stroke="#bfbfbf" points="284.5,-67.5 284.5,-86.5 331.5,-86.5 331.5,-67.5 284.5,-67.5"/>
<text text-anchor="middle" x="308" y="-74.5" font-family="Helvetica,sans-Serif" font-size="10.00">fcntl.h</text>
</a>
</g>
</g>
<!-- Node1&#45;&gt;Node7 -->
<g id="edge6" class="edge">
<title>Node1&#45;&gt;Node7</title>
<path fill="none" stroke="midnightblue" d="M394.45,-123.32C378.01,-114.7 352.57,-101.36 333.53,-91.39"/>
<polygon fill="midnightblue" stroke="midnightblue" points="334.99,-88.2 324.51,-86.65 331.74,-94.4 334.99,-88.2"/>
</g>
<!-- Node8 -->
<g id="node8" class="node">
<title>Node8</title>
<g id="a_node8"><a xlink:title=" ">
<polygon fill="none" stroke="#bfbfbf" points="349.5,-67.5 349.5,-86.5 402.5,-86.5 402.5,-67.5 349.5,-67.5"/>
<text text-anchor="middle" x="376" y="-74.5" font-family="Helvetica,sans-Serif" font-size="10.00">netdb.h</text>
</a>
</g>
</g>
<!-- Node1&#45;&gt;Node8 -->
<g id="edge7" class="edge">
<title>Node1&#45;&gt;Node8</title>
<path fill="none" stroke="midnightblue" d="M405.22,-123.08C400.33,-115.53 393.17,-104.49 387.17,-95.23"/>
<polygon fill="midnightblue" stroke="midnightblue" points="390.05,-93.24 381.67,-86.75 384.17,-97.05 390.05,-93.24"/>
</g>
<!-- Node9 -->
<g id="node9" class="node">
<title>Node9</title>
<g id="a_node9"><a xlink:title=" ">
<polygon fill="none" stroke="#bfbfbf" points="420.5,-67.5 420.5,-86.5 473.5,-86.5 473.5,-67.5 420.5,-67.5"/>
<text text-anchor="middle" x="447" y="-74.5" font-family="Helvetica,sans-Serif" font-size="10.00">string.h</text>
</a>
</g>
</g>
<!-- Node1&#45;&gt;Node9 -->
<g id="edge8" class="edge">
<title>Node1&#45;&gt;Node9</title>
<path fill="none" stroke="midnightblue" d="M416.94,-123.08C421.98,-115.53 429.34,-104.49 435.51,-95.23"/>
<polygon fill="midnightblue" stroke="midnightblue" points="438.53,-97.01 441.17,-86.75 432.71,-93.13 438.53,-97.01"/>
</g>
<!-- Node10 -->
<g id="node10" class="node">
<title>Node10</title>
<g id="a_node10"><a xlink:title=" ">
<polygon fill="none" stroke="#bfbfbf" points="491.5,-67.5 491.5,-86.5 568.5,-86.5 568.5,-67.5 491.5,-67.5"/>
<text text-anchor="middle" x="530" y="-74.5" font-family="Helvetica,sans-Serif" font-size="10.00">sys/socket.h</text>
</a>
</g>
</g>
<!-- Node1&#45;&gt;Node10 -->
<g id="edge9" class="edge">
<title>Node1&#45;&gt;Node10</title>
<path fill="none" stroke="midnightblue" d="M429.86,-123.44C449.27,-114.64 479.73,-100.81 501.96,-90.72"/>
<polygon fill="midnightblue" stroke="midnightblue" points="503.57,-93.84 511.23,-86.52 500.68,-87.46 503.57,-93.84"/>
</g>
<!-- Node11 -->
<g id="node11" class="node">
<title>Node11</title>
<g id="a_node11"><a xlink:title=" ">
<polygon fill="none" stroke="#bfbfbf" points="587,-67.5 587,-86.5 643,-86.5 643,-67.5 587,-67.5"/>
<text text-anchor="middle" x="615" y="-74.5" font-family="Helvetica,sans-Serif" font-size="10.00">unistd.h</text>
</a>
</g>
</g>
<!-- Node1&#45;&gt;Node11 -->
<g id="edge10" class="edge">
<title>Node1&#45;&gt;Node11</title>
<path fill="none" stroke="midnightblue" d="M443.32,-123.44C479.63,-113.83 538.49,-98.25 576.97,-88.07"/>
<polygon fill="midnightblue" stroke="midnightblue" points="578,-91.42 586.77,-85.47 576.21,-84.65 578,-91.42"/>
</g>
<!-- Node12 -->
<g id="node12" class="node">
<title>Node12</title>
<g id="a_node12"><a xlink:title=" ">
<polygon fill="none" stroke="#bfbfbf" points="661,-67.5 661,-86.5 721,-86.5 721,-67.5 661,-67.5"/>
<text text-anchor="middle" x="691" y="-74.5" font-family="Helvetica,sans-Serif" font-size="10.00">iostream</text>
</a>
</g>
</g>
<!-- Node1&#45;&gt;Node12 -->
<g id="edge11" class="edge">
<title>Node1&#45;&gt;Node12</title>
<path fill="none" stroke="midnightblue" d="M445.01,-126.12C489.85,-118.26 571.41,-103.61 650.64,-87.22"/>
<polygon fill="midnightblue" stroke="midnightblue" points="651.72,-90.57 660.79,-85.1 650.29,-83.71 651.72,-90.57"/>
</g>
<!-- Node3 -->
<g id="node3" class="node">
<title>Node3</title>
<g id="a_node3"><a xlink:title=" ">
<polygon fill="none" stroke="#bfbfbf" points="0,-6 0,-25 72,-25 72,-6 0,-6"/>
<text text-anchor="middle" x="36" y="-13" font-family="Helvetica,sans-Serif" font-size="10.00">netinet/in.h</text>
</a>
</g>
</g>
<!-- Node2&#45;&gt;Node3 -->
<g id="edge2" class="edge">
<title>Node2&#45;&gt;Node3</title>
<path fill="none" stroke="midnightblue" d="M129.38,-67.48C111.41,-57.67 81.68,-41.43 60.59,-29.92"/>
<polygon fill="midnightblue" stroke="midnightblue" points="62.04,-26.73 51.59,-25.01 58.69,-32.87 62.04,-26.73"/>
</g>
<!-- Node4 -->
<g id="node4" class="node">
<title>Node4</title>
<g id="a_node4"><a xlink:title=" ">
<polygon fill="none" stroke="#bfbfbf" points="90,-0.5 90,-30.5 200,-30.5 200,-0.5 90,-0.5"/>
<text text-anchor="start" x="98" y="-18.5" font-family="Helvetica,sans-Serif" font-size="10.00">BoosterSeat/rolling</text>
<text text-anchor="middle" x="145" y="-7.5" font-family="Helvetica,sans-Serif" font-size="10.00">_average.hpp</text>
</a>
</g>
</g>
<!-- Node2&#45;&gt;Node4 -->
<g id="edge3" class="edge">
<title>Node2&#45;&gt;Node4</title>
<path fill="none" stroke="midnightblue" d="M145,-67.48C145,-60.47 145,-50.19 145,-40.7"/>
<polygon fill="midnightblue" stroke="midnightblue" points="148.5,-40.52 145,-30.52 141.5,-40.52 148.5,-40.52"/>
</g>
<!-- Node5 -->
<g id="node5" class="node">
<title>Node5</title>
<g id="a_node5"><a xlink:title=" ">
<polygon fill="none" stroke="#bfbfbf" points="218,-6 218,-25 262,-25 262,-6 218,-6"/>
<text text-anchor="middle" x="240" y="-13" font-family="Helvetica,sans-Serif" font-size="10.00">string</text>
</a>
</g>
</g>
<!-- Node2&#45;&gt;Node5 -->
<g id="edge4" class="edge">
<title>Node2&#45;&gt;Node5</title>
<path fill="none" stroke="midnightblue" d="M158.61,-67.48C174.06,-57.8 199.49,-41.87 217.82,-30.39"/>
<polygon fill="midnightblue" stroke="midnightblue" points="219.8,-33.28 226.41,-25.01 216.08,-27.35 219.8,-33.28"/>
</g>
</g>
</svg>
