<?xml version="1.0" encoding="UTF-8" standalone="no"?>
<!DOCTYPE svg PUBLIC "-//W3C//DTD SVG 1.1//EN"
 "http://www.w3.org/Graphics/SVG/1.1/DTD/svg11.dtd">
<!-- Generated by graphviz version 2.43.0 (0)
 -->
<!-- Title: streams.hpp Pages: 1 -->
<svg width="2387pt" height="476pt"
 viewBox="0.00 0.00 2387.21 476.00" xmlns="http://www.w3.org/2000/svg" xmlns:xlink="http://www.w3.org/1999/xlink">
<g id="graph0" class="graph" transform="scale(1 1) rotate(0) translate(4 472)">
<title>streams.hpp</title>
<!-- Node1 -->
<g id="node1" class="node">
<title>Node1</title>
<g id="a_node1"><a xlink:title="The header file for the data streams.">
<polygon fill="#bfbfbf" stroke="black" points="1536.5,-448.5 1536.5,-467.5 1613.5,-467.5 1613.5,-448.5 1536.5,-448.5"/>
<text text-anchor="middle" x="1575" y="-455.5" font-family="Helvetica,sans-Serif" font-size="10.00">streams.hpp</text>
</a>
</g>
</g>
<!-- Node2 -->
<g id="node2" class="node">
<title>Node2</title>
<g id="a_node2"><a xlink:href="validation_8hpp.html" target="_top" xlink:title=" ">
<polygon fill="none" stroke="black" points="1606,-224.5 1606,-243.5 1692,-243.5 1692,-224.5 1606,-224.5"/>
<text text-anchor="middle" x="1649" y="-231.5" font-family="Helvetica,sans-Serif" font-size="10.00">validation.hpp</text>
</a>
</g>
</g>
<!-- Node1&#45;&gt;Node2 -->
<g id="edge1" class="edge">
<title>Node1&#45;&gt;Node2</title>
<path fill="none" stroke="midnightblue" d="M1582.55,-438.65C1594.33,-409.57 1617.36,-350.99 1633,-300 1639.07,-280.22 1644.43,-256.52 1647.14,-243.92"/>
<polygon fill="midnightblue" stroke="midnightblue" points="1579.16,-437.69 1578.62,-448.27 1585.64,-440.33 1579.16,-437.69"/>
</g>
<!-- Node5 -->
<g id="node5" class="node">
<title>Node5</title>
<g id="a_node5"><a xlink:href="error__frame_8hpp.html" target="_top" xlink:title="The error frame.">
<polygon fill="none" stroke="black" points="1724.5,-392.5 1724.5,-411.5 1819.5,-411.5 1819.5,-392.5 1724.5,-392.5"/>
<text text-anchor="middle" x="1772" y="-399.5" font-family="Helvetica,sans-Serif" font-size="10.00">error_frame.hpp</text>
</a>
</g>
</g>
<!-- Node1&#45;&gt;Node5 -->
<g id="edge4" class="edge">
<title>Node1&#45;&gt;Node5</title>
<path fill="none" stroke="midnightblue" d="M1616.23,-445.7C1653.41,-435.51 1707.27,-420.74 1740.93,-411.52"/>
<polygon fill="midnightblue" stroke="midnightblue" points="1614.93,-442.42 1606.22,-448.44 1616.78,-449.18 1614.93,-442.42"/>
</g>
<!-- Node7 -->
<g id="node7" class="node">
<title>Node7</title>
<g id="a_node7"><a xlink:href="shared__data_8hpp.html" target="_top" xlink:title="Contains the SharedData struct, used across all modules and extensions.">
<polygon fill="none" stroke="black" points="1181,-336.5 1181,-355.5 1279,-355.5 1279,-336.5 1181,-336.5"/>
<text text-anchor="middle" x="1230" y="-343.5" font-family="Helvetica,sans-Serif" font-size="10.00">shared_data.hpp</text>
</a>
</g>
</g>
<!-- Node1&#45;&gt;Node7 -->
<g id="edge59" class="edge">
<title>Node1&#45;&gt;Node7</title>
<path fill="none" stroke="midnightblue" d="M1538.55,-445.38C1468.93,-423.18 1318.48,-375.21 1257.01,-355.61"/>
<polygon fill="midnightblue" stroke="midnightblue" points="1537.62,-448.76 1548.22,-448.46 1539.75,-442.09 1537.62,-448.76"/>
</g>
<!-- Node79 -->
<g id="node47" class="node">
<title>Node79</title>
<g id="a_node47"><a xlink:href="to__string_8hpp.html" target="_top" xlink:title="Generic to_string functions for a variety of types.">
<polygon fill="none" stroke="black" points="207,-280.5 207,-299.5 287,-299.5 287,-280.5 207,-280.5"/>
<text text-anchor="middle" x="247" y="-287.5" font-family="Helvetica,sans-Serif" font-size="10.00">to_string.hpp</text>
</a>
</g>
</g>
<!-- Node1&#45;&gt;Node79 -->
<g id="edge60" class="edge">
<title>Node1&#45;&gt;Node79</title>
<path fill="none" stroke="midnightblue" d="M1526.16,-450.9C1314.71,-424.46 480.15,-320.14 287.04,-296"/>
<polygon fill="midnightblue" stroke="midnightblue" points="1525.98,-454.4 1536.33,-452.17 1526.84,-447.45 1525.98,-454.4"/>
</g>
<!-- Node3 -->
<g id="node3" class="node">
<title>Node3</title>
<g id="a_node3"><a xlink:href="cfg__adcmappings_8cpp.html" target="_top" xlink:title="ADC Mapping configuration section.">
<polygon fill="none" stroke="black" points="1454,-168.5 1454,-187.5 1576,-187.5 1576,-168.5 1454,-168.5"/>
<text text-anchor="middle" x="1515" y="-175.5" font-family="Helvetica,sans-Serif" font-size="10.00">cfg_adcmappings.cpp</text>
</a>
</g>
</g>
<!-- Node2&#45;&gt;Node3 -->
<g id="edge2" class="edge">
<title>Node2&#45;&gt;Node3</title>
<path fill="none" stroke="midnightblue" d="M1618.32,-220.64C1593.18,-210.5 1558.25,-196.43 1536.13,-187.52"/>
<polygon fill="midnightblue" stroke="midnightblue" points="1617.18,-223.95 1627.77,-224.44 1619.8,-217.46 1617.18,-223.95"/>
</g>
<!-- Node4 -->
<g id="node4" class="node">
<title>Node4</title>
<g id="a_node4"><a xlink:href="cfg__extensions_8cpp.html" target="_top" xlink:title="Implements the extensions section of the configuration.">
<polygon fill="none" stroke="black" points="1594,-168.5 1594,-187.5 1704,-187.5 1704,-168.5 1594,-168.5"/>
<text text-anchor="middle" x="1649" y="-175.5" font-family="Helvetica,sans-Serif" font-size="10.00">cfg_extensions.cpp</text>
</a>
</g>
</g>
<!-- Node2&#45;&gt;Node4 -->
<g id="edge3" class="edge">
<title>Node2&#45;&gt;Node4</title>
<path fill="none" stroke="midnightblue" d="M1649,-213.8C1649,-204.91 1649,-194.78 1649,-187.75"/>
<polygon fill="midnightblue" stroke="midnightblue" points="1645.5,-214.08 1649,-224.08 1652.5,-214.08 1645.5,-214.08"/>
</g>
<!-- Node6 -->
<g id="node6" class="node">
<title>Node6</title>
<g id="a_node6"><a xlink:href="error__frame_8cpp.html" target="_top" xlink:title="The implementation of the error frame.">
<polygon fill="none" stroke="black" points="1855.5,-336.5 1855.5,-355.5 1950.5,-355.5 1950.5,-336.5 1855.5,-336.5"/>
<text text-anchor="middle" x="1903" y="-343.5" font-family="Helvetica,sans-Serif" font-size="10.00">error_frame.cpp</text>
</a>
</g>
</g>
<!-- Node5&#45;&gt;Node6 -->
<g id="edge5" class="edge">
<title>Node5&#45;&gt;Node6</title>
<path fill="none" stroke="midnightblue" d="M1802.32,-388.5C1826.88,-378.38 1860.82,-364.39 1882.34,-355.52"/>
<polygon fill="midnightblue" stroke="midnightblue" points="1800.67,-385.4 1792.76,-392.44 1803.34,-391.87 1800.67,-385.4"/>
</g>
<!-- Node5&#45;&gt;Node7 -->
<g id="edge6" class="edge">
<title>Node5&#45;&gt;Node7</title>
<path fill="none" stroke="midnightblue" d="M1714.4,-395.26C1607.39,-384.6 1379.65,-361.91 1279.27,-351.91"/>
<polygon fill="midnightblue" stroke="midnightblue" points="1714.08,-398.75 1724.38,-396.26 1714.77,-391.78 1714.08,-398.75"/>
</g>
<!-- Node78 -->
<g id="node46" class="node">
<title>Node78</title>
<g id="a_node46"><a xlink:href="test__error__frame_8cpp.html" target="_top" xlink:title="Test of the error frame.">
<polygon fill="none" stroke="black" points="1718.5,-336.5 1718.5,-355.5 1837.5,-355.5 1837.5,-336.5 1718.5,-336.5"/>
<text text-anchor="middle" x="1778" y="-343.5" font-family="Helvetica,sans-Serif" font-size="10.00">test_error_frame.cpp</text>
</a>
</g>
</g>
<!-- Node5&#45;&gt;Node78 -->
<g id="edge58" class="edge">
<title>Node5&#45;&gt;Node78</title>
<path fill="none" stroke="midnightblue" d="M1774.1,-382.1C1775.1,-373.14 1776.24,-362.86 1777.03,-355.75"/>
<polygon fill="midnightblue" stroke="midnightblue" points="1770.62,-381.76 1772.99,-392.08 1777.57,-382.53 1770.62,-381.76"/>
</g>
<!-- Node8 -->
<g id="node8" class="node">
<title>Node8</title>
<g id="a_node8"><a xlink:href="cfg__section_8hpp.html" target="_top" xlink:title="This file contains the base class for all configuration sections.">
<polygon fill="none" stroke="black" points="1296.5,-280.5 1296.5,-299.5 1389.5,-299.5 1389.5,-280.5 1296.5,-280.5"/>
<text text-anchor="middle" x="1343" y="-287.5" font-family="Helvetica,sans-Serif" font-size="10.00">cfg_section.hpp</text>
</a>
</g>
</g>
<!-- Node7&#45;&gt;Node8 -->
<g id="edge7" class="edge">
<title>Node7&#45;&gt;Node8</title>
<path fill="none" stroke="midnightblue" d="M1257,-332.1C1278.11,-322.01 1306.86,-308.27 1325.18,-299.52"/>
<polygon fill="midnightblue" stroke="midnightblue" points="1255.42,-328.97 1247.91,-336.44 1258.44,-335.29 1255.42,-328.97"/>
</g>
<!-- Node11 -->
<g id="node11" class="node">
<title>Node11</title>
<g id="a_node11"><a xlink:href="extension__base_8hpp.html" target="_top" xlink:title="The new implementation of the extension system.">
<polygon fill="none" stroke="black" points="1722,-168.5 1722,-187.5 1836,-187.5 1836,-168.5 1722,-168.5"/>
<text text-anchor="middle" x="1779" y="-175.5" font-family="Helvetica,sans-Serif" font-size="10.00">extension_base.hpp</text>
</a>
</g>
</g>
<!-- Node7&#45;&gt;Node11 -->
<g id="edge33" class="edge">
<title>Node7&#45;&gt;Node11</title>
<path fill="none" stroke="midnightblue" d="M1289.44,-344.8C1428.16,-342.9 1766.4,-329.41 1831,-244 1846.61,-223.37 1814.96,-199.81 1794.52,-187.5"/>
<polygon fill="midnightblue" stroke="midnightblue" points="1289.37,-341.3 1279.41,-344.93 1289.45,-348.3 1289.37,-341.3"/>
</g>
<!-- Node33 -->
<g id="node23" class="node">
<title>Node33</title>
<g id="a_node23"><a xlink:href="flight__runner_8hpp.html" target="_top" xlink:title="The main class for the flight system.">
<polygon fill="none" stroke="black" points="724,-56.5 724,-75.5 822,-75.5 822,-56.5 724,-56.5"/>
<text text-anchor="middle" x="773" y="-63.5" font-family="Helvetica,sans-Serif" font-size="10.00">flight_runner.hpp</text>
</a>
</g>
</g>
<!-- Node7&#45;&gt;Node33 -->
<g id="edge34" class="edge">
<title>Node7&#45;&gt;Node33</title>
<path fill="none" stroke="midnightblue" d="M1289.4,-342.46C1524.62,-332 2378,-290.24 2378,-235 2378,-235 2378,-235 2378,-177 2378,-146.9 2382.83,-130.39 2359,-112 2296.75,-63.95 1083.39,-65.82 822.24,-66.78"/>
<polygon fill="midnightblue" stroke="midnightblue" points="1289.16,-338.96 1279.33,-342.9 1289.47,-345.96 1289.16,-338.96"/>
</g>
<!-- Node42 -->
<g id="node31" class="node">
<title>Node42</title>
<g id="a_node31"><a xlink:href="console__pages_8hpp.html" target="_top" xlink:title=" ">
<polygon fill="none" stroke="red" points="891,-280.5 891,-299.5 1001,-299.5 1001,-280.5 891,-280.5"/>
<text text-anchor="middle" x="946" y="-287.5" font-family="Helvetica,sans-Serif" font-size="10.00">console_pages.hpp</text>
</a>
</g>
</g>
<!-- Node7&#45;&gt;Node42 -->
<g id="edge35" class="edge">
<title>Node7&#45;&gt;Node42</title>
<path fill="none" stroke="midnightblue" d="M1174.97,-334.54C1121.3,-324.33 1040.66,-309 990.79,-299.52"/>
<polygon fill="midnightblue" stroke="midnightblue" points="1174.52,-338.01 1185,-336.44 1175.83,-331.14 1174.52,-338.01"/>
</g>
<!-- Node48 -->
<g id="node33" class="node">
<title>Node48</title>
<g id="a_node33"><a xlink:href="adc__interpolation_8hpp.html" target="_top" xlink:title="ADC Interpolation Utility.">
<polygon fill="none" stroke="red" points="896,-224.5 896,-243.5 1018,-243.5 1018,-224.5 896,-224.5"/>
<text text-anchor="middle" x="957" y="-231.5" font-family="Helvetica,sans-Serif" font-size="10.00">adc_interpolation.hpp</text>
</a>
</g>
</g>
<!-- Node7&#45;&gt;Node48 -->
<g id="edge38" class="edge">
<title>Node7&#45;&gt;Node48</title>
<path fill="none" stroke="midnightblue" d="M1195.37,-333.09C1170.38,-324.34 1135.91,-311.94 1106,-300 1058.56,-281.06 1003.72,-256.41 975.66,-243.59"/>
<polygon fill="midnightblue" stroke="midnightblue" points="1194.53,-336.51 1205.12,-336.49 1196.83,-329.9 1194.53,-336.51"/>
</g>
<!-- Node53 -->
<g id="node34" class="node">
<title>Node53</title>
<g id="a_node34"><a xlink:href="calculated__data_8hpp.html" target="_top" xlink:title="Calculates new data from the existing data.">
<polygon fill="none" stroke="red" points="1036.5,-224.5 1036.5,-243.5 1151.5,-243.5 1151.5,-224.5 1036.5,-224.5"/>
<text text-anchor="middle" x="1094" y="-231.5" font-family="Helvetica,sans-Serif" font-size="10.00">calculated_data.hpp</text>
</a>
</g>
</g>
<!-- Node7&#45;&gt;Node53 -->
<g id="edge39" class="edge">
<title>Node7&#45;&gt;Node53</title>
<path fill="none" stroke="midnightblue" d="M1184.13,-333.34C1164.03,-326.36 1141.35,-315.7 1125,-300 1108.41,-284.06 1099.65,-257.46 1096.04,-243.75"/>
<polygon fill="midnightblue" stroke="midnightblue" points="1183.16,-336.7 1193.75,-336.47 1185.33,-330.05 1183.16,-336.7"/>
</g>
<!-- Node55 -->
<g id="node35" class="node">
<title>Node55</title>
<g id="a_node35"><a xlink:href="data__formatting_8hpp.html" target="_top" xlink:title="This file contains the DataFormatter class, which is used to format data for the data and log files.">
<polygon fill="none" stroke="black" points="519,-280.5 519,-299.5 635,-299.5 635,-280.5 519,-280.5"/>
<text text-anchor="middle" x="577" y="-287.5" font-family="Helvetica,sans-Serif" font-size="10.00">data_formatting.hpp</text>
</a>
</g>
</g>
<!-- Node7&#45;&gt;Node55 -->
<g id="edge40" class="edge">
<title>Node7&#45;&gt;Node55</title>
<path fill="none" stroke="midnightblue" d="M1170.87,-341.34C1065.74,-334.63 839.44,-319.27 649,-300 644.49,-299.54 639.82,-299.04 635.13,-298.5"/>
<polygon fill="midnightblue" stroke="midnightblue" points="1170.76,-344.84 1180.96,-341.98 1171.2,-337.86 1170.76,-344.84"/>
</g>
<!-- Node57 -->
<g id="node37" class="node">
<title>Node57</title>
<g id="a_node37"><a xlink:href="data__log_8hpp.html" target="_top" xlink:title="The data log is responsible for writing data to files and managing the file system.">
<polygon fill="none" stroke="red" points="586,-224.5 586,-243.5 666,-243.5 666,-224.5 586,-224.5"/>
<text text-anchor="middle" x="626" y="-231.5" font-family="Helvetica,sans-Serif" font-size="10.00">data_log.hpp</text>
</a>
</g>
</g>
<!-- Node7&#45;&gt;Node57 -->
<g id="edge43" class="edge">
<title>Node7&#45;&gt;Node57</title>
<path fill="none" stroke="midnightblue" d="M1170.75,-345.72C1047.11,-346.33 766.09,-342.8 682,-300 657.04,-287.3 638.54,-258.2 630.47,-243.63"/>
<polygon fill="midnightblue" stroke="midnightblue" points="1170.82,-349.22 1180.8,-345.66 1170.78,-342.22 1170.82,-349.22"/>
</g>
<!-- Node59 -->
<g id="node38" class="node">
<title>Node59</title>
<g id="a_node38"><a xlink:href="file__system__manager_8hpp.html" target="_top" xlink:title=" ">
<polygon fill="none" stroke="red" points="1170,-224.5 1170,-243.5 1312,-243.5 1312,-224.5 1170,-224.5"/>
<text text-anchor="middle" x="1241" y="-231.5" font-family="Helvetica,sans-Serif" font-size="10.00">file_system_manager.hpp</text>
</a>
</g>
</g>
<!-- Node7&#45;&gt;Node59 -->
<g id="edge44" class="edge">
<title>Node7&#45;&gt;Node59</title>
<path fill="none" stroke="midnightblue" d="M1231.87,-326.35C1234.27,-302.25 1238.37,-261.31 1240.14,-243.59"/>
<polygon fill="midnightblue" stroke="midnightblue" points="1228.38,-326.07 1230.86,-336.37 1235.34,-326.77 1228.38,-326.07"/>
</g>
<!-- Node60 -->
<g id="node39" class="node">
<title>Node60</title>
<g id="a_node39"><a xlink:href="influxdb_8hpp.html" target="_top" xlink:title=" ">
<polygon fill="none" stroke="red" points="691.5,-280.5 691.5,-299.5 768.5,-299.5 768.5,-280.5 691.5,-280.5"/>
<text text-anchor="middle" x="730" y="-287.5" font-family="Helvetica,sans-Serif" font-size="10.00">influxdb.hpp</text>
</a>
</g>
</g>
<!-- Node7&#45;&gt;Node60 -->
<g id="edge45" class="edge">
<title>Node7&#45;&gt;Node60</title>
<path fill="none" stroke="midnightblue" d="M1170.51,-340.72C1083.88,-334.11 918.09,-320.07 778,-300 774.98,-299.57 771.86,-299.08 768.73,-298.56"/>
<polygon fill="midnightblue" stroke="midnightblue" points="1170.44,-344.22 1180.67,-341.49 1170.96,-337.24 1170.44,-344.22"/>
</g>
<!-- Node62 -->
<g id="node41" class="node">
<title>Node62</title>
<g id="a_node41"><a xlink:href="module_8hpp.html" target="_top" xlink:title="The header file for the base module class.">
<polygon fill="none" stroke="red" points="787,-280.5 787,-299.5 861,-299.5 861,-280.5 787,-280.5"/>
<text text-anchor="middle" x="824" y="-287.5" font-family="Helvetica,sans-Serif" font-size="10.00">module.hpp</text>
</a>
</g>
</g>
<!-- Node7&#45;&gt;Node62 -->
<g id="edge47" class="edge">
<title>Node7&#45;&gt;Node62</title>
<path fill="none" stroke="midnightblue" d="M1170.68,-337.79C1101.37,-329.27 983.25,-314.4 882,-300 875.24,-299.04 868.05,-297.96 861.11,-296.9"/>
<polygon fill="midnightblue" stroke="midnightblue" points="1170.61,-341.31 1180.96,-339.06 1171.46,-334.36 1170.61,-341.31"/>
</g>
<!-- Node70 -->
<g id="node42" class="node">
<title>Node70</title>
<g id="a_node42"><a xlink:href="request__handler_8hpp.html" target="_top" xlink:title="The request handler class header.">
<polygon fill="none" stroke="red" points="1330,-224.5 1330,-243.5 1446,-243.5 1446,-224.5 1330,-224.5"/>
<text text-anchor="middle" x="1388" y="-231.5" font-family="Helvetica,sans-Serif" font-size="10.00">request_handler.hpp</text>
</a>
</g>
</g>
<!-- Node7&#45;&gt;Node70 -->
<g id="edge50" class="edge">
<title>Node7&#45;&gt;Node70</title>
<path fill="none" stroke="midnightblue" d="M1241.99,-327.96C1252.73,-313.67 1269.59,-293.5 1288,-280 1310.57,-263.45 1340.19,-251.07 1361.33,-243.53"/>
<polygon fill="midnightblue" stroke="midnightblue" points="1238.92,-326.23 1235.86,-336.37 1244.57,-330.35 1238.92,-326.23"/>
</g>
<!-- Node75 -->
<g id="node43" class="node">
<title>Node75</title>
<g id="a_node43"><a xlink:href="logger_8hpp.html" target="_top" xlink:title="A simple logger class so difference classes have access to the same logger.">
<polygon fill="none" stroke="black" points="1134,-280.5 1134,-299.5 1202,-299.5 1202,-280.5 1134,-280.5"/>
<text text-anchor="middle" x="1168" y="-287.5" font-family="Helvetica,sans-Serif" font-size="10.00">logger.hpp</text>
</a>
</g>
</g>
<!-- Node7&#45;&gt;Node75 -->
<g id="edge51" class="edge">
<title>Node7&#45;&gt;Node75</title>
<path fill="none" stroke="midnightblue" d="M1212.25,-329.54C1201.19,-319.91 1187.37,-307.87 1178.14,-299.83"/>
<polygon fill="midnightblue" stroke="midnightblue" points="1210.2,-332.4 1220.04,-336.32 1214.8,-327.12 1210.2,-332.4"/>
</g>
<!-- Node76 -->
<g id="node44" class="node">
<title>Node76</title>
<g id="a_node44"><a xlink:href="to__json_8cpp.html" target="_top" xlink:title=" ">
<polygon fill="none" stroke="black" points="1408,-280.5 1408,-299.5 1480,-299.5 1480,-280.5 1408,-280.5"/>
<text text-anchor="middle" x="1444" y="-287.5" font-family="Helvetica,sans-Serif" font-size="10.00">to_json.cpp</text>
</a>
</g>
</g>
<!-- Node7&#45;&gt;Node76 -->
<g id="edge56" class="edge">
<title>Node7&#45;&gt;Node76</title>
<path fill="none" stroke="midnightblue" d="M1273.76,-333.96C1314.17,-323.76 1373.37,-308.82 1410.25,-299.52"/>
<polygon fill="midnightblue" stroke="midnightblue" points="1272.75,-330.6 1263.91,-336.44 1274.46,-337.39 1272.75,-330.6"/>
</g>
<!-- Node77 -->
<g id="node45" class="node">
<title>Node77</title>
<g id="a_node45"><a xlink:href="test__configuration_8cpp.html" target="_top" xlink:title=" ">
<polygon fill="none" stroke="black" points="1498.5,-280.5 1498.5,-299.5 1623.5,-299.5 1623.5,-280.5 1498.5,-280.5"/>
<text text-anchor="middle" x="1561" y="-287.5" font-family="Helvetica,sans-Serif" font-size="10.00">test_configuration.cpp</text>
</a>
</g>
</g>
<!-- Node7&#45;&gt;Node77 -->
<g id="edge57" class="edge">
<title>Node7&#45;&gt;Node77</title>
<path fill="none" stroke="midnightblue" d="M1289.29,-335.33C1351.75,-325.14 1449.15,-309.25 1508.8,-299.52"/>
<polygon fill="midnightblue" stroke="midnightblue" points="1288.5,-331.91 1279.2,-336.97 1289.63,-338.82 1288.5,-331.91"/>
</g>
<!-- Node9 -->
<g id="node9" class="node">
<title>Node9</title>
<g id="a_node9"><a xlink:href="cfg__adcmappings_8hpp.html" target="_top" xlink:title=" ">
<polygon fill="none" stroke="black" points="1464.5,-224.5 1464.5,-243.5 1587.5,-243.5 1587.5,-224.5 1464.5,-224.5"/>
<text text-anchor="middle" x="1526" y="-231.5" font-family="Helvetica,sans-Serif" font-size="10.00">cfg_adcmappings.hpp</text>
</a>
</g>
</g>
<!-- Node8&#45;&gt;Node9 -->
<g id="edge8" class="edge">
<title>Node8&#45;&gt;Node9</title>
<path fill="none" stroke="midnightblue" d="M1381.74,-277.57C1416.26,-267.38 1466.01,-252.7 1497.14,-243.52"/>
<polygon fill="midnightblue" stroke="midnightblue" points="1380.6,-274.26 1372,-280.44 1382.58,-280.97 1380.6,-274.26"/>
</g>
<!-- Node10 -->
<g id="node10" class="node">
<title>Node10</title>
<g id="a_node10"><a xlink:href="cfg__extensions_8hpp.html" target="_top" xlink:title="The header file for the extensions section of the configuration.">
<polygon fill="none" stroke="black" points="1710.5,-224.5 1710.5,-243.5 1821.5,-243.5 1821.5,-224.5 1710.5,-224.5"/>
<text text-anchor="middle" x="1766" y="-231.5" font-family="Helvetica,sans-Serif" font-size="10.00">cfg_extensions.hpp</text>
</a>
</g>
</g>
<!-- Node8&#45;&gt;Node10 -->
<g id="edge10" class="edge">
<title>Node8&#45;&gt;Node10</title>
<path fill="none" stroke="midnightblue" d="M1400.02,-279.91C1534.59,-261.26 1570.21,-260.85 1701,-244 1704.05,-243.61 1707.18,-243.2 1710.34,-242.78"/>
<polygon fill="midnightblue" stroke="midnightblue" points="1399.15,-276.5 1389.73,-281.34 1400.12,-283.43 1399.15,-276.5"/>
</g>
<!-- Node9&#45;&gt;Node3 -->
<g id="edge9" class="edge">
<title>Node9&#45;&gt;Node3</title>
<path fill="none" stroke="midnightblue" d="M1522.15,-214.1C1520.32,-205.14 1518.23,-194.86 1516.78,-187.75"/>
<polygon fill="midnightblue" stroke="midnightblue" points="1518.76,-214.98 1524.18,-224.08 1525.62,-213.59 1518.76,-214.98"/>
</g>
<!-- Node10&#45;&gt;Node4 -->
<g id="edge11" class="edge">
<title>Node10&#45;&gt;Node4</title>
<path fill="none" stroke="midnightblue" d="M1738.34,-220.23C1716.45,-210.13 1686.5,-196.31 1667.45,-187.52"/>
<polygon fill="midnightblue" stroke="midnightblue" points="1736.91,-223.43 1747.46,-224.44 1739.85,-217.08 1736.91,-223.43"/>
</g>
<!-- Node10&#45;&gt;Node11 -->
<g id="edge12" class="edge">
<title>Node10&#45;&gt;Node11</title>
<path fill="none" stroke="midnightblue" d="M1770.55,-214.1C1772.71,-205.14 1775.18,-194.86 1776.89,-187.75"/>
<polygon fill="midnightblue" stroke="midnightblue" points="1767.08,-213.54 1768.15,-224.08 1773.89,-215.18 1767.08,-213.54"/>
</g>
<!-- Node12 -->
<g id="node12" class="node">
<title>Node12</title>
<g id="a_node12"><a xlink:href="adc__extension__base_8hpp.html" target="_top" xlink:title="Generic ADC Extension Wrapper.">
<polygon fill="none" stroke="red" points="1694.5,-112.5 1694.5,-131.5 1831.5,-131.5 1831.5,-112.5 1694.5,-112.5"/>
<text text-anchor="middle" x="1763" y="-119.5" font-family="Helvetica,sans-Serif" font-size="10.00">adc_extension_base.hpp</text>
</a>
</g>
</g>
<!-- Node11&#45;&gt;Node12 -->
<g id="edge13" class="edge">
<title>Node11&#45;&gt;Node12</title>
<path fill="none" stroke="midnightblue" d="M1773.49,-158.4C1770.81,-149.36 1767.72,-138.94 1765.59,-131.75"/>
<polygon fill="midnightblue" stroke="midnightblue" points="1770.16,-159.49 1776.36,-168.08 1776.87,-157.5 1770.16,-159.49"/>
</g>
<!-- Node17 -->
<g id="node13" class="node">
<title>Node17</title>
<g id="a_node13"><a xlink:href="bme280_8hpp.html" target="_top" xlink:title="The BME280 sensor extension.">
<polygon fill="none" stroke="red" points="1849.5,-112.5 1849.5,-131.5 1926.5,-131.5 1926.5,-112.5 1849.5,-112.5"/>
<text text-anchor="middle" x="1888" y="-119.5" font-family="Helvetica,sans-Serif" font-size="10.00">bme280.hpp</text>
</a>
</g>
</g>
<!-- Node11&#45;&gt;Node17 -->
<g id="edge14" class="edge">
<title>Node11&#45;&gt;Node17</title>
<path fill="none" stroke="midnightblue" d="M1805.52,-163.86C1825.73,-153.85 1852.99,-140.35 1870.53,-131.65"/>
<polygon fill="midnightblue" stroke="midnightblue" points="1803.92,-160.75 1796.51,-168.32 1807.03,-167.02 1803.92,-160.75"/>
</g>
<!-- Node19 -->
<g id="node14" class="node">
<title>Node19</title>
<g id="a_node14"><a xlink:href="bmi088_8hpp.html" target="_top" xlink:title="Extension for the Bosch BMI088 IMU.">
<polygon fill="none" stroke="red" points="2081,-56.5 2081,-75.5 2155,-75.5 2155,-56.5 2081,-56.5"/>
<text text-anchor="middle" x="2118" y="-63.5" font-family="Helvetica,sans-Serif" font-size="10.00">bmi088.hpp</text>
</a>
</g>
</g>
<!-- Node11&#45;&gt;Node19 -->
<g id="edge15" class="edge">
<title>Node11&#45;&gt;Node19</title>
<path fill="none" stroke="midnightblue" d="M1826.33,-166C1857.91,-158.04 1900.07,-146.2 1936,-132 1954.12,-124.84 1956.98,-119.39 1975,-112 2011.96,-96.83 2056.01,-83.68 2085.36,-75.57"/>
<polygon fill="midnightblue" stroke="midnightblue" points="1825.34,-162.64 1816.47,-168.44 1827.02,-169.43 1825.34,-162.64"/>
</g>
<!-- Node21 -->
<g id="node15" class="node">
<title>Node21</title>
<g id="a_node15"><a xlink:href="ds18b20_8hpp.html" target="_top" xlink:title="DS18B20 extension header file.">
<polygon fill="none" stroke="red" points="1983.5,-112.5 1983.5,-131.5 2062.5,-131.5 2062.5,-112.5 1983.5,-112.5"/>
<text text-anchor="middle" x="2023" y="-119.5" font-family="Helvetica,sans-Serif" font-size="10.00">ds18b20.hpp</text>
</a>
</g>
</g>
<!-- Node11&#45;&gt;Node21 -->
<g id="edge16" class="edge">
<title>Node11&#45;&gt;Node21</title>
<path fill="none" stroke="midnightblue" d="M1827.43,-166.28C1873.54,-156.08 1942.03,-140.92 1984.52,-131.52"/>
<polygon fill="midnightblue" stroke="midnightblue" points="1826.67,-162.87 1817.66,-168.44 1828.18,-169.7 1826.67,-162.87"/>
</g>
<!-- Node23 -->
<g id="node16" class="node">
<title>Node23</title>
<g id="a_node16"><a xlink:href="extension__base_8cpp.html" target="_top" xlink:title="The new implementation of the extension system.">
<polygon fill="none" stroke="black" points="2080.5,-112.5 2080.5,-131.5 2193.5,-131.5 2193.5,-112.5 2080.5,-112.5"/>
<text text-anchor="middle" x="2137" y="-119.5" font-family="Helvetica,sans-Serif" font-size="10.00">extension_base.cpp</text>
</a>
</g>
</g>
<!-- Node11&#45;&gt;Node23 -->
<g id="edge17" class="edge">
<title>Node11&#45;&gt;Node23</title>
<path fill="none" stroke="midnightblue" d="M1845.85,-166.92C1913.48,-156.71 2016.89,-141.12 2080.54,-131.52"/>
<polygon fill="midnightblue" stroke="midnightblue" points="1845.09,-163.49 1835.73,-168.44 1846.14,-170.41 1845.09,-163.49"/>
</g>
<!-- Node24 -->
<g id="node17" class="node">
<title>Node24</title>
<g id="a_node17"><a xlink:href="i2c__extension__adapter_8hpp.html" target="_top" xlink:title="Adapter for I2C Extensions.">
<polygon fill="none" stroke="red" points="1033.5,-112.5 1033.5,-131.5 1180.5,-131.5 1180.5,-112.5 1033.5,-112.5"/>
<text text-anchor="middle" x="1107" y="-119.5" font-family="Helvetica,sans-Serif" font-size="10.00">i2c_extension_adapter.hpp</text>
</a>
</g>
</g>
<!-- Node11&#45;&gt;Node24 -->
<g id="edge18" class="edge">
<title>Node11&#45;&gt;Node24</title>
<path fill="none" stroke="midnightblue" d="M1711.68,-167.93C1479.51,-144.48 1418.8,-152.27 1190,-132 1186.97,-131.73 1183.88,-131.45 1180.75,-131.15"/>
<polygon fill="midnightblue" stroke="midnightblue" points="1711.49,-171.43 1721.79,-168.96 1712.2,-164.47 1711.49,-171.43"/>
</g>
<!-- Node25 -->
<g id="node18" class="node">
<title>Node25</title>
<g id="a_node18"><a xlink:href="imu__extension__base_8hpp.html" target="_top" xlink:title="Base IMU Extension.">
<polygon fill="none" stroke="black" points="2212,-112.5 2212,-131.5 2350,-131.5 2350,-112.5 2212,-112.5"/>
<text text-anchor="middle" x="2281" y="-119.5" font-family="Helvetica,sans-Serif" font-size="10.00">imu_extension_base.hpp</text>
</a>
</g>
</g>
<!-- Node11&#45;&gt;Node25 -->
<g id="edge19" class="edge">
<title>Node11&#45;&gt;Node25</title>
<path fill="none" stroke="midnightblue" d="M1846.41,-170.04C1930.08,-161.35 2077.1,-145.94 2203,-132 2205.85,-131.68 2208.75,-131.36 2211.68,-131.03"/>
<polygon fill="midnightblue" stroke="midnightblue" points="1845.87,-166.58 1836.28,-171.09 1846.59,-173.54 1845.87,-166.58"/>
</g>
<!-- Node26 -->
<g id="node19" class="node">
<title>Node26</title>
<g id="a_node19"><a xlink:href="pi__camera_8hpp.html" target="_top" xlink:title="Raspberry Pi Camera Extension.">
<polygon fill="none" stroke="red" points="1198.5,-112.5 1198.5,-131.5 1287.5,-131.5 1287.5,-112.5 1198.5,-112.5"/>
<text text-anchor="middle" x="1243" y="-119.5" font-family="Helvetica,sans-Serif" font-size="10.00">pi_camera.hpp</text>
</a>
</g>
</g>
<!-- Node11&#45;&gt;Node26 -->
<g id="edge21" class="edge">
<title>Node11&#45;&gt;Node26</title>
<path fill="none" stroke="midnightblue" d="M1711.73,-167.91C1526.85,-147.72 1477.88,-154.86 1297,-132 1293.98,-131.62 1290.88,-131.19 1287.75,-130.74"/>
<polygon fill="midnightblue" stroke="midnightblue" points="1711.46,-171.4 1721.78,-169.02 1712.23,-164.45 1711.46,-171.4"/>
</g>
<!-- Node28 -->
<g id="node20" class="node">
<title>Node28</title>
<g id="a_node20"><a xlink:href="rgb__status__led_8hpp.html" target="_top" xlink:title=" ">
<polygon fill="none" stroke="red" points="1305.5,-112.5 1305.5,-131.5 1414.5,-131.5 1414.5,-112.5 1305.5,-112.5"/>
<text text-anchor="middle" x="1360" y="-119.5" font-family="Helvetica,sans-Serif" font-size="10.00">rgb_status_led.hpp</text>
</a>
</g>
</g>
<!-- Node11&#45;&gt;Node28 -->
<g id="edge22" class="edge">
<title>Node11&#45;&gt;Node28</title>
<path fill="none" stroke="midnightblue" d="M1711.52,-167.82C1582.95,-151.13 1549.06,-148.58 1424,-132 1421,-131.6 1417.92,-131.19 1414.8,-130.76"/>
<polygon fill="midnightblue" stroke="midnightblue" points="1711.4,-171.33 1721.77,-169.15 1712.3,-164.39 1711.4,-171.33"/>
</g>
<!-- Node30 -->
<g id="node21" class="node">
<title>Node30</title>
<g id="a_node21"><a xlink:href="samm8q_8hpp.html" target="_top" xlink:title="SAM&#45;M8Q GPS extension (I2C).">
<polygon fill="none" stroke="red" points="1433,-112.5 1433,-131.5 1513,-131.5 1513,-112.5 1433,-112.5"/>
<text text-anchor="middle" x="1473" y="-119.5" font-family="Helvetica,sans-Serif" font-size="10.00">samm8q.hpp</text>
</a>
</g>
</g>
<!-- Node11&#45;&gt;Node30 -->
<g id="edge23" class="edge">
<title>Node11&#45;&gt;Node30</title>
<path fill="none" stroke="midnightblue" d="M1719.89,-166.68C1667.99,-157.6 1590.48,-144 1523,-132 1519.79,-131.43 1516.46,-130.83 1513.11,-130.24"/>
<polygon fill="midnightblue" stroke="midnightblue" points="1719.46,-170.16 1729.91,-168.43 1720.66,-163.26 1719.46,-170.16"/>
</g>
<!-- Node32 -->
<g id="node22" class="node">
<title>Node32</title>
<g id="a_node22"><a xlink:href="extension__module_8hpp.html" target="_top" xlink:title="This is the header file for the new extension module.">
<polygon fill="none" stroke="red" points="663,-112.5 663,-131.5 791,-131.5 791,-112.5 663,-112.5"/>
<text text-anchor="middle" x="727" y="-119.5" font-family="Helvetica,sans-Serif" font-size="10.00">extension_module.hpp</text>
</a>
</g>
</g>
<!-- Node11&#45;&gt;Node32 -->
<g id="edge24" class="edge">
<title>Node11&#45;&gt;Node32</title>
<path fill="none" stroke="midnightblue" d="M1711.7,-167.97C1323.59,-134.04 1223.17,-155.53 838,-132 822.85,-131.07 806.56,-129.87 791.24,-128.65"/>
<polygon fill="midnightblue" stroke="midnightblue" points="1711.53,-171.47 1721.8,-168.86 1712.15,-164.5 1711.53,-171.47"/>
</g>
<!-- Node39 -->
<g id="node28" class="node">
<title>Node39</title>
<g id="a_node28"><a xlink:href="extension__test__framework_8hpp.html" target="_top" xlink:title="Basic helpers for unit testing extensions on the host.">
<polygon fill="none" stroke="red" points="847,-112.5 847,-131.5 1015,-131.5 1015,-112.5 847,-112.5"/>
<text text-anchor="middle" x="931" y="-119.5" font-family="Helvetica,sans-Serif" font-size="10.00">extension_test_framework.hpp</text>
</a>
</g>
</g>
<!-- Node11&#45;&gt;Node39 -->
<g id="edge30" class="edge">
<title>Node11&#45;&gt;Node39</title>
<path fill="none" stroke="midnightblue" d="M1711.77,-167.96C1406.46,-139.61 1327.08,-154.35 1025,-132 1021.73,-131.76 1018.4,-131.5 1015.03,-131.23"/>
<polygon fill="midnightblue" stroke="midnightblue" points="1711.51,-171.46 1721.8,-168.9 1712.17,-164.49 1711.51,-171.46"/>
</g>
<!-- Node41 -->
<g id="node30" class="node">
<title>Node41</title>
<g id="a_node30"><a xlink:href="simulated__extensions_8hpp.html" target="_top" xlink:title="This contains the simulated extensions for testing the flight system.">
<polygon fill="none" stroke="black" points="1531.5,-112.5 1531.5,-131.5 1676.5,-131.5 1676.5,-112.5 1531.5,-112.5"/>
<text text-anchor="middle" x="1604" y="-119.5" font-family="Helvetica,sans-Serif" font-size="10.00">simulated_extensions.hpp</text>
</a>
</g>
</g>
<!-- Node11&#45;&gt;Node41 -->
<g id="edge32" class="edge">
<title>Node11&#45;&gt;Node41</title>
<path fill="none" stroke="midnightblue" d="M1741.53,-165.44C1708.53,-155.26 1661.24,-140.66 1631.6,-131.52"/>
<polygon fill="midnightblue" stroke="midnightblue" points="1740.68,-168.84 1751.27,-168.44 1742.75,-162.15 1740.68,-168.84"/>
</g>
<!-- Node25&#45;&gt;Node19 -->
<g id="edge20" class="edge">
<title>Node25&#45;&gt;Node19</title>
<path fill="none" stroke="midnightblue" d="M2245.3,-109.17C2214.6,-99 2171.08,-84.59 2143.71,-75.52"/>
<polygon fill="midnightblue" stroke="midnightblue" points="2244.58,-112.62 2255.17,-112.44 2246.78,-105.98 2244.58,-112.62"/>
</g>
<!-- Node32&#45;&gt;Node33 -->
<g id="edge25" class="edge">
<title>Node32&#45;&gt;Node33</title>
<path fill="none" stroke="midnightblue" d="M741.11,-104.43C749.18,-94.97 758.96,-83.48 765.55,-75.75"/>
<polygon fill="midnightblue" stroke="midnightblue" points="738.42,-102.2 734.6,-112.08 743.75,-106.74 738.42,-102.2"/>
</g>
<!-- Node38 -->
<g id="node27" class="node">
<title>Node38</title>
<g id="a_node27"><a xlink:href="test__extension__module_8cpp.html" target="_top" xlink:title="Extension module unit tests.">
<polygon fill="none" stroke="black" points="148.5,-56.5 148.5,-75.5 299.5,-75.5 299.5,-56.5 148.5,-56.5"/>
<text text-anchor="middle" x="224" y="-63.5" font-family="Helvetica,sans-Serif" font-size="10.00">test_extension_module.cpp</text>
</a>
</g>
</g>
<!-- Node32&#45;&gt;Node38 -->
<g id="edge29" class="edge">
<title>Node32&#45;&gt;Node38</title>
<path fill="none" stroke="midnightblue" d="M652.71,-113.02C557.99,-102.86 395.12,-85.37 299.72,-75.13"/>
<polygon fill="midnightblue" stroke="midnightblue" points="652.47,-116.52 662.78,-114.11 653.21,-109.56 652.47,-116.52"/>
</g>
<!-- Node34 -->
<g id="node24" class="node">
<title>Node34</title>
<g id="a_node24"><a xlink:href="flight__logic_8cpp.html" target="_top" xlink:title="The implementation of the flight logic within the flight runner.">
<polygon fill="none" stroke="black" points="318,-0.5 318,-19.5 408,-19.5 408,-0.5 318,-0.5"/>
<text text-anchor="middle" x="363" y="-7.5" font-family="Helvetica,sans-Serif" font-size="10.00">flight_logic.cpp</text>
</a>
</g>
</g>
<!-- Node33&#45;&gt;Node34 -->
<g id="edge26" class="edge">
<title>Node33&#45;&gt;Node34</title>
<path fill="none" stroke="midnightblue" d="M713.95,-57.22C631.18,-46.32 482.47,-26.74 408.03,-16.93"/>
<polygon fill="midnightblue" stroke="midnightblue" points="713.58,-60.7 723.95,-58.54 714.49,-53.76 713.58,-60.7"/>
</g>
<!-- Node35 -->
<g id="node25" class="node">
<title>Node35</title>
<g id="a_node25"><a xlink:href="flight__runner_8cpp.html" target="_top" xlink:title="The implementation of the flight runner, where everything comes together.">
<polygon fill="none" stroke="black" points="773,-0.5 773,-19.5 871,-19.5 871,-0.5 773,-0.5"/>
<text text-anchor="middle" x="822" y="-7.5" font-family="Helvetica,sans-Serif" font-size="10.00">flight_runner.cpp</text>
</a>
</g>
</g>
<!-- Node33&#45;&gt;Node35 -->
<g id="edge27" class="edge">
<title>Node33&#45;&gt;Node35</title>
<path fill="none" stroke="midnightblue" d="M788.03,-48.43C796.62,-38.97 807.04,-27.48 814.06,-19.75"/>
<polygon fill="midnightblue" stroke="midnightblue" points="785.22,-46.33 781.09,-56.08 790.4,-51.03 785.22,-46.33"/>
</g>
<!-- Node36 -->
<g id="node26" class="node">
<title>Node36</title>
<g id="a_node26"><a xlink:href="src_2flight__system_2main_8cpp.html" target="_top" xlink:title="Defines the entry point/main function of the Flight Computer software.">
<polygon fill="none" stroke="black" points="693,-0.5 693,-19.5 755,-19.5 755,-0.5 693,-0.5"/>
<text text-anchor="middle" x="724" y="-7.5" font-family="Helvetica,sans-Serif" font-size="10.00">main.cpp</text>
</a>
</g>
</g>
<!-- Node33&#45;&gt;Node36 -->
<g id="edge28" class="edge">
<title>Node33&#45;&gt;Node36</title>
<path fill="none" stroke="midnightblue" d="M757.97,-48.43C749.38,-38.97 738.96,-27.48 731.94,-19.75"/>
<polygon fill="midnightblue" stroke="midnightblue" points="755.6,-51.03 764.91,-56.08 760.78,-46.33 755.6,-51.03"/>
</g>
<!-- Node40 -->
<g id="node29" class="node">
<title>Node40</title>
<g id="a_node29"><a xlink:href="extension__test__framework_8cpp.html" target="_top" xlink:title="Test framework for testing extensions on the host.">
<polygon fill="none" stroke="black" points="465.5,-56.5 465.5,-75.5 632.5,-75.5 632.5,-56.5 465.5,-56.5"/>
<text text-anchor="middle" x="549" y="-63.5" font-family="Helvetica,sans-Serif" font-size="10.00">extension_test_framework.cpp</text>
</a>
</g>
</g>
<!-- Node39&#45;&gt;Node40 -->
<g id="edge31" class="edge">
<title>Node39&#45;&gt;Node40</title>
<path fill="none" stroke="midnightblue" d="M860.56,-111.04C788.41,-100.84 677.44,-85.16 609.25,-75.52"/>
<polygon fill="midnightblue" stroke="midnightblue" points="860.08,-114.51 870.47,-112.44 861.06,-107.58 860.08,-114.51"/>
</g>
<!-- Node43 -->
<g id="node32" class="node">
<title>Node43</title>
<g id="a_node32"><a xlink:href="console__module_8hpp.html" target="_top" xlink:title=" ">
<polygon fill="none" stroke="red" points="760.5,-224.5 760.5,-243.5 877.5,-243.5 877.5,-224.5 760.5,-224.5"/>
<text text-anchor="middle" x="819" y="-231.5" font-family="Helvetica,sans-Serif" font-size="10.00">console_module.hpp</text>
</a>
</g>
</g>
<!-- Node42&#45;&gt;Node43 -->
<g id="edge36" class="edge">
<title>Node42&#45;&gt;Node43</title>
<path fill="none" stroke="midnightblue" d="M916.61,-276.5C892.8,-266.38 859.89,-252.39 839.03,-243.52"/>
<polygon fill="midnightblue" stroke="midnightblue" points="915.3,-279.75 925.88,-280.44 918.04,-273.31 915.3,-279.75"/>
</g>
<!-- Node43&#45;&gt;Node33 -->
<g id="edge37" class="edge">
<title>Node43&#45;&gt;Node33</title>
<path fill="none" stroke="midnightblue" d="M818.27,-214.21C816.84,-189.94 812.59,-146.68 800,-112 795.09,-98.47 785.96,-84.5 779.68,-75.79"/>
<polygon fill="midnightblue" stroke="midnightblue" points="814.78,-214.39 818.76,-224.21 821.77,-214.05 814.78,-214.39"/>
</g>
<!-- Node56 -->
<g id="node36" class="node">
<title>Node56</title>
<g id="a_node36"><a xlink:href="data__formatting_8cpp.html" target="_top" xlink:title="Implementation of the DataFormatter class.">
<polygon fill="none" stroke="black" points="452,-224.5 452,-243.5 568,-243.5 568,-224.5 452,-224.5"/>
<text text-anchor="middle" x="510" y="-231.5" font-family="Helvetica,sans-Serif" font-size="10.00">data_formatting.cpp</text>
</a>
</g>
</g>
<!-- Node55&#45;&gt;Node56 -->
<g id="edge41" class="edge">
<title>Node55&#45;&gt;Node56</title>
<path fill="none" stroke="midnightblue" d="M558.17,-273.82C546.16,-264.15 531.03,-251.95 520.96,-243.83"/>
<polygon fill="midnightblue" stroke="midnightblue" points="556.25,-276.77 566.24,-280.32 560.65,-271.32 556.25,-276.77"/>
</g>
<!-- Node55&#45;&gt;Node57 -->
<g id="edge42" class="edge">
<title>Node55&#45;&gt;Node57</title>
<path fill="none" stroke="midnightblue" d="M592.03,-272.43C600.62,-262.97 611.04,-251.48 618.06,-243.75"/>
<polygon fill="midnightblue" stroke="midnightblue" points="589.22,-270.33 585.09,-280.08 594.4,-275.03 589.22,-270.33"/>
</g>
<!-- Node61 -->
<g id="node40" class="node">
<title>Node61</title>
<g id="a_node40"><a xlink:href="influxdb_8cpp.html" target="_top" xlink:title=" ">
<polygon fill="none" stroke="black" points="130,-168.5 130,-187.5 206,-187.5 206,-168.5 130,-168.5"/>
<text text-anchor="middle" x="168" y="-175.5" font-family="Helvetica,sans-Serif" font-size="10.00">influxdb.cpp</text>
</a>
</g>
</g>
<!-- Node60&#45;&gt;Node61 -->
<g id="edge46" class="edge">
<title>Node60&#45;&gt;Node61</title>
<path fill="none" stroke="midnightblue" d="M720.43,-271.32C711.05,-255.94 695.24,-234.5 675,-224 593.42,-181.68 309.71,-178.42 206.18,-178.69"/>
<polygon fill="midnightblue" stroke="midnightblue" points="717.62,-273.46 725.64,-280.39 723.69,-269.97 717.62,-273.46"/>
</g>
<!-- Node62&#45;&gt;Node32 -->
<g id="edge49" class="edge">
<title>Node62&#45;&gt;Node32</title>
<path fill="none" stroke="midnightblue" d="M791.1,-276.01C776.67,-268.69 760.82,-258.14 751,-244 726.08,-208.12 725.63,-152.59 726.48,-131.51"/>
<polygon fill="midnightblue" stroke="midnightblue" points="789.75,-279.24 800.29,-280.35 792.75,-272.92 789.75,-279.24"/>
</g>
<!-- Node62&#45;&gt;Node43 -->
<g id="edge48" class="edge">
<title>Node62&#45;&gt;Node43</title>
<path fill="none" stroke="midnightblue" d="M822.25,-270.1C821.42,-261.14 820.47,-250.86 819.81,-243.75"/>
<polygon fill="midnightblue" stroke="midnightblue" points="818.77,-270.45 823.17,-280.08 825.74,-269.8 818.77,-270.45"/>
</g>
<!-- Node75&#45;&gt;Node48 -->
<g id="edge52" class="edge">
<title>Node75&#45;&gt;Node48</title>
<path fill="none" stroke="midnightblue" d="M1124.86,-277.96C1085.01,-267.76 1026.64,-252.82 990.28,-243.52"/>
<polygon fill="midnightblue" stroke="midnightblue" points="1124.01,-281.35 1134.57,-280.44 1125.75,-274.57 1124.01,-281.35"/>
</g>
<!-- Node75&#45;&gt;Node53 -->
<g id="edge53" class="edge">
<title>Node75&#45;&gt;Node53</title>
<path fill="none" stroke="midnightblue" d="M1147.97,-274.38C1134.59,-264.62 1117.44,-252.11 1106.11,-243.83"/>
<polygon fill="midnightblue" stroke="midnightblue" points="1145.97,-277.26 1156.11,-280.32 1150.1,-271.6 1145.97,-277.26"/>
</g>
<!-- Node75&#45;&gt;Node59 -->
<g id="edge54" class="edge">
<title>Node75&#45;&gt;Node59</title>
<path fill="none" stroke="midnightblue" d="M1188.14,-274.1C1201.28,-264.38 1217.98,-252.03 1229.06,-243.83"/>
<polygon fill="midnightblue" stroke="midnightblue" points="1185.69,-271.56 1179.73,-280.32 1189.85,-277.19 1185.69,-271.56"/>
</g>
<!-- Node75&#45;&gt;Node70 -->
<g id="edge55" class="edge">
<title>Node75&#45;&gt;Node70</title>
<path fill="none" stroke="midnightblue" d="M1212.22,-278.15C1253.72,-267.96 1314.98,-252.92 1353.14,-243.56"/>
<polygon fill="midnightblue" stroke="midnightblue" points="1211.25,-274.78 1202.38,-280.56 1212.92,-281.58 1211.25,-274.78"/>
</g>
<!-- Node79&#45;&gt;Node34 -->
<g id="edge61" class="edge">
<title>Node79&#45;&gt;Node34</title>
<path fill="none" stroke="midnightblue" d="M196.5,-288.13C124.25,-283.9 0,-264.23 0,-179 0,-179 0,-179 0,-121 0,-55.31 220.45,-25.2 317.76,-15.11"/>
<polygon fill="midnightblue" stroke="midnightblue" points="196.6,-291.64 206.77,-288.64 196.95,-284.64 196.6,-291.64"/>
</g>
<!-- Node79&#45;&gt;Node38 -->
<g id="edge69" class="edge">
<title>Node79&#45;&gt;Node38</title>
<path fill="none" stroke="midnightblue" d="M196.58,-284.05C146.29,-277.96 74.11,-265.64 57,-244 2.1,-174.58 148.9,-100.24 204.04,-75.53"/>
<polygon fill="midnightblue" stroke="midnightblue" points="196.3,-287.54 206.64,-285.23 197.11,-280.59 196.3,-287.54"/>
</g>
<!-- Node79&#45;&gt;Node40 -->
<g id="edge68" class="edge">
<title>Node79&#45;&gt;Node40</title>
<path fill="none" stroke="midnightblue" d="M297.4,-282.65C330.17,-276.68 372.66,-265.31 405,-244 476.12,-197.14 529.35,-104.14 544.57,-75.56"/>
<polygon fill="midnightblue" stroke="midnightblue" points="296.39,-279.27 287.12,-284.41 297.57,-286.17 296.39,-279.27"/>
</g>
<!-- Node79&#45;&gt;Node56 -->
<g id="edge62" class="edge">
<title>Node79&#45;&gt;Node56</title>
<path fill="none" stroke="midnightblue" d="M297.12,-278.71C346.8,-268.51 422.02,-253.06 468.47,-243.53"/>
<polygon fill="midnightblue" stroke="midnightblue" points="296.32,-275.3 287.23,-280.74 297.73,-282.16 296.32,-275.3"/>
</g>
<!-- Node79&#45;&gt;Node61 -->
<g id="edge64" class="edge">
<title>Node79&#45;&gt;Node61</title>
<path fill="none" stroke="midnightblue" d="M221.34,-275.02C209.35,-267.31 195.8,-256.71 187,-244 174.82,-226.41 170.35,-200.98 168.79,-187.74"/>
<polygon fill="midnightblue" stroke="midnightblue" points="219.74,-278.15 230.11,-280.35 223.38,-272.16 219.74,-278.15"/>
</g>
<!-- Node51 -->
<g id="node48" class="node">
<title>Node51</title>
<g id="a_node48"><a xlink:href="data__module_8cpp.html" target="_top" xlink:title=" ">
<polygon fill="none" stroke="black" points="196.5,-224.5 196.5,-243.5 297.5,-243.5 297.5,-224.5 196.5,-224.5"/>
<text text-anchor="middle" x="247" y="-231.5" font-family="Helvetica,sans-Serif" font-size="10.00">data_module.cpp</text>
</a>
</g>
</g>
<!-- Node79&#45;&gt;Node51 -->
<g id="edge63" class="edge">
<title>Node79&#45;&gt;Node51</title>
<path fill="none" stroke="midnightblue" d="M247,-269.8C247,-260.91 247,-250.78 247,-243.75"/>
<polygon fill="midnightblue" stroke="midnightblue" points="243.5,-270.08 247,-280.08 250.5,-270.08 243.5,-270.08"/>
</g>
<!-- Node80 -->
<g id="node49" class="node">
<title>Node80</title>
<g id="a_node49"><a xlink:href="to__json_8hpp.html" target="_top" xlink:title="Utility functions for converting data to JSON.">
<polygon fill="none" stroke="black" points="66.5,-224.5 66.5,-243.5 139.5,-243.5 139.5,-224.5 66.5,-224.5"/>
<text text-anchor="middle" x="103" y="-231.5" font-family="Helvetica,sans-Serif" font-size="10.00">to_json.hpp</text>
</a>
</g>
</g>
<!-- Node79&#45;&gt;Node80 -->
<g id="edge65" class="edge">
<title>Node79&#45;&gt;Node80</title>
<path fill="none" stroke="midnightblue" d="M214.75,-276.91C187.68,-266.75 149.68,-252.51 125.71,-243.52"/>
<polygon fill="midnightblue" stroke="midnightblue" points="213.59,-280.21 224.18,-280.44 216.05,-273.66 213.59,-280.21"/>
</g>
<!-- Node81 -->
<g id="node50" class="node">
<title>Node81</title>
<g id="a_node50"><a xlink:href="to__string_8cpp.html" target="_top" xlink:title="Generic to_string functions for a variety of types.">
<polygon fill="none" stroke="black" points="316,-224.5 316,-243.5 396,-243.5 396,-224.5 316,-224.5"/>
<text text-anchor="middle" x="356" y="-231.5" font-family="Helvetica,sans-Serif" font-size="10.00">to_string.cpp</text>
</a>
</g>
</g>
<!-- Node79&#45;&gt;Node81 -->
<g id="edge67" class="edge">
<title>Node79&#45;&gt;Node81</title>
<path fill="none" stroke="midnightblue" d="M273.52,-275.86C293.73,-265.85 320.99,-252.35 338.53,-243.65"/>
<polygon fill="midnightblue" stroke="midnightblue" points="271.92,-272.75 264.51,-280.32 275.03,-279.02 271.92,-272.75"/>
</g>
<!-- Node80&#45;&gt;Node61 -->
<g id="edge66" class="edge">
<title>Node80&#45;&gt;Node61</title>
<path fill="none" stroke="midnightblue" d="M121.27,-217.82C132.92,-208.15 147.6,-195.95 157.37,-187.83"/>
<polygon fill="midnightblue" stroke="midnightblue" points="118.9,-215.24 113.44,-224.32 123.37,-220.63 118.9,-215.24"/>
</g>
</g>
</svg>
