<?xml version="1.0" encoding="UTF-8" standalone="no"?>
<!DOCTYPE svg PUBLIC "-//W3C//DTD SVG 1.1//EN"
 "http://www.w3.org/Graphics/SVG/1.1/DTD/svg11.dtd">
<!-- Generated by graphviz version 2.43.0 (0)
 -->
<!-- Title: streams.hpp Pages: 1 -->
<svg width="1863pt" height="476pt"
 viewBox="0.00 0.00 1862.53 476.00" xmlns="http://www.w3.org/2000/svg" xmlns:xlink="http://www.w3.org/1999/xlink">
<g id="graph0" class="graph" transform="scale(1 1) rotate(0) translate(4 472)">
<title>streams.hpp</title>
<!-- Node1 -->
<g id="node1" class="node">
<title>Node1</title>
<g id="a_node1"><a xlink:title="The header file for the data streams.">
<polygon fill="#bfbfbf" stroke="black" points="772.03,-448.5 772.03,-467.5 849.03,-467.5 849.03,-448.5 772.03,-448.5"/>
<text text-anchor="middle" x="810.53" y="-455.5" font-family="Helvetica,sans-Serif" font-size="10.00">streams.hpp</text>
</a>
</g>
</g>
<!-- Node2 -->
<g id="node2" class="node">
<title>Node2</title>
<g id="a_node2"><a xlink:href="validation_8hpp.html" target="_top" xlink:title=" ">
<polygon fill="none" stroke="black" points="353.53,-392.5 353.53,-411.5 439.53,-411.5 439.53,-392.5 353.53,-392.5"/>
<text text-anchor="middle" x="396.53" y="-399.5" font-family="Helvetica,sans-Serif" font-size="10.00">validation.hpp</text>
</a>
</g>
</g>
<!-- Node1&#45;&gt;Node2 -->
<g id="edge1" class="edge">
<title>Node1&#45;&gt;Node2</title>
<path fill="none" stroke="midnightblue" d="M761.96,-450.66C680.48,-440.04 517.56,-418.79 439.79,-408.64"/>
<polygon fill="midnightblue" stroke="midnightblue" points="761.59,-454.15 771.96,-451.97 762.49,-447.2 761.59,-454.15"/>
</g>
<!-- Node4 -->
<g id="node4" class="node">
<title>Node4</title>
<g id="a_node4"><a xlink:href="error__frame_8hpp.html" target="_top" xlink:title="The error frame.">
<polygon fill="none" stroke="black" points="725.03,-392.5 725.03,-411.5 820.03,-411.5 820.03,-392.5 725.03,-392.5"/>
<text text-anchor="middle" x="772.53" y="-399.5" font-family="Helvetica,sans-Serif" font-size="10.00">error_frame.hpp</text>
</a>
</g>
</g>
<!-- Node1&#45;&gt;Node4 -->
<g id="edge3" class="edge">
<title>Node1&#45;&gt;Node4</title>
<path fill="none" stroke="midnightblue" d="M798.47,-439.86C791.89,-430.5 784.02,-419.33 778.69,-411.75"/>
<polygon fill="midnightblue" stroke="midnightblue" points="795.64,-441.92 804.26,-448.08 801.36,-437.89 795.64,-441.92"/>
</g>
<!-- Node6 -->
<g id="node6" class="node">
<title>Node6</title>
<g id="a_node6"><a xlink:href="shared__data_8hpp.html" target="_top" xlink:title="Contains the SharedData struct, used across all modules and extensions.">
<polygon fill="none" stroke="black" points="828.53,-336.5 828.53,-355.5 926.53,-355.5 926.53,-336.5 828.53,-336.5"/>
<text text-anchor="middle" x="877.53" y="-343.5" font-family="Helvetica,sans-Serif" font-size="10.00">shared_data.hpp</text>
</a>
</g>
</g>
<!-- Node1&#45;&gt;Node6 -->
<g id="edge63" class="edge">
<title>Node1&#45;&gt;Node6</title>
<path fill="none" stroke="midnightblue" d="M821.11,-439.64C835.66,-415.74 861.31,-373.63 872.3,-355.59"/>
<polygon fill="midnightblue" stroke="midnightblue" points="818,-438.01 815.79,-448.37 823.98,-441.65 818,-438.01"/>
</g>
<!-- Node68 -->
<g id="node48" class="node">
<title>Node68</title>
<g id="a_node48"><a xlink:href="to__string_8hpp.html" target="_top" xlink:title="Generic to_string functions for a variety of types.">
<polygon fill="none" stroke="black" points="1616.53,-280.5 1616.53,-299.5 1696.53,-299.5 1696.53,-280.5 1616.53,-280.5"/>
<text text-anchor="middle" x="1656.53" y="-287.5" font-family="Helvetica,sans-Serif" font-size="10.00">to_string.hpp</text>
</a>
</g>
</g>
<!-- Node1&#45;&gt;Node68 -->
<g id="edge64" class="edge">
<title>Node1&#45;&gt;Node68</title>
<path fill="none" stroke="midnightblue" d="M859.06,-447.48C1011.08,-417.65 1476.32,-326.36 1616.29,-298.9"/>
<polygon fill="midnightblue" stroke="midnightblue" points="858.22,-444.08 849.08,-449.44 859.57,-450.94 858.22,-444.08"/>
</g>
<!-- Node3 -->
<g id="node3" class="node">
<title>Node3</title>
<g id="a_node3"><a xlink:href="cfg__extensions_8cpp.html" target="_top" xlink:title="Implements the extensions section of the configuration.">
<polygon fill="none" stroke="black" points="96.53,-168.5 96.53,-187.5 206.53,-187.5 206.53,-168.5 96.53,-168.5"/>
<text text-anchor="middle" x="151.53" y="-175.5" font-family="Helvetica,sans-Serif" font-size="10.00">cfg_extensions.cpp</text>
</a>
</g>
</g>
<!-- Node2&#45;&gt;Node3 -->
<g id="edge2" class="edge">
<title>Node2&#45;&gt;Node3</title>
<path fill="none" stroke="midnightblue" d="M376.8,-386.36C341.38,-359.71 265.33,-300.76 207.53,-244 188.4,-225.21 168.49,-200.71 158.35,-187.82"/>
<polygon fill="midnightblue" stroke="midnightblue" points="374.79,-389.23 384.89,-392.42 378.99,-383.62 374.79,-389.23"/>
</g>
<!-- Node5 -->
<g id="node5" class="node">
<title>Node5</title>
<g id="a_node5"><a xlink:href="error__frame_8cpp.html" target="_top" xlink:title="The implementation of the error frame.">
<polygon fill="none" stroke="black" points="715.03,-336.5 715.03,-355.5 810.03,-355.5 810.03,-336.5 715.03,-336.5"/>
<text text-anchor="middle" x="762.53" y="-343.5" font-family="Helvetica,sans-Serif" font-size="10.00">error_frame.cpp</text>
</a>
</g>
</g>
<!-- Node4&#45;&gt;Node5 -->
<g id="edge4" class="edge">
<title>Node4&#45;&gt;Node5</title>
<path fill="none" stroke="midnightblue" d="M769.03,-382.1C767.37,-373.14 765.47,-362.86 764.15,-355.75"/>
<polygon fill="midnightblue" stroke="midnightblue" points="765.62,-382.89 770.88,-392.08 772.5,-381.61 765.62,-382.89"/>
</g>
<!-- Node4&#45;&gt;Node6 -->
<g id="edge5" class="edge">
<title>Node4&#45;&gt;Node6</title>
<path fill="none" stroke="midnightblue" d="M798.34,-387.73C817.78,-377.73 843.88,-364.31 860.7,-355.65"/>
<polygon fill="midnightblue" stroke="midnightblue" points="796.69,-384.64 789.4,-392.32 799.9,-390.86 796.69,-384.64"/>
</g>
<!-- Node67 -->
<g id="node47" class="node">
<title>Node67</title>
<g id="a_node47"><a xlink:href="test__error__frame_8cpp.html" target="_top" xlink:title="Test of the error frame.">
<polygon fill="none" stroke="black" points="578.03,-336.5 578.03,-355.5 697.03,-355.5 697.03,-336.5 578.03,-336.5"/>
<text text-anchor="middle" x="637.53" y="-343.5" font-family="Helvetica,sans-Serif" font-size="10.00">test_error_frame.cpp</text>
</a>
</g>
</g>
<!-- Node4&#45;&gt;Node67 -->
<g id="edge62" class="edge">
<title>Node4&#45;&gt;Node67</title>
<path fill="none" stroke="midnightblue" d="M741.63,-388.64C716.29,-378.5 681.1,-364.43 658.82,-355.52"/>
<polygon fill="midnightblue" stroke="midnightblue" points="740.56,-391.98 751.14,-392.44 743.16,-385.48 740.56,-391.98"/>
</g>
<!-- Node7 -->
<g id="node7" class="node">
<title>Node7</title>
<g id="a_node7"><a xlink:href="cfg__section_8hpp.html" target="_top" xlink:title="This file contains the base class for all configuration sections.">
<polygon fill="none" stroke="black" points="494.03,-280.5 494.03,-299.5 587.03,-299.5 587.03,-280.5 494.03,-280.5"/>
<text text-anchor="middle" x="540.53" y="-287.5" font-family="Helvetica,sans-Serif" font-size="10.00">cfg_section.hpp</text>
</a>
</g>
</g>
<!-- Node6&#45;&gt;Node7 -->
<g id="edge6" class="edge">
<title>Node6&#45;&gt;Node7</title>
<path fill="none" stroke="midnightblue" d="M818.31,-335.51C752.45,-324.96 647.43,-308.13 587.15,-298.47"/>
<polygon fill="midnightblue" stroke="midnightblue" points="818.1,-339.02 828.53,-337.15 819.21,-332.11 818.1,-339.02"/>
</g>
<!-- Node9 -->
<g id="node9" class="node">
<title>Node9</title>
<g id="a_node9"><a xlink:href="extension__base_8hpp.html" target="_top" xlink:title="The new implementation of the extension system.">
<polygon fill="none" stroke="black" points="589.53,-168.5 589.53,-187.5 703.53,-187.5 703.53,-168.5 589.53,-168.5"/>
<text text-anchor="middle" x="646.53" y="-175.5" font-family="Helvetica,sans-Serif" font-size="10.00">extension_base.hpp</text>
</a>
</g>
</g>
<!-- Node6&#45;&gt;Node9 -->
<g id="edge27" class="edge">
<title>Node6&#45;&gt;Node9</title>
<path fill="none" stroke="midnightblue" d="M818.19,-334.79C775.93,-326.53 723.71,-314.01 706.53,-300 669.09,-269.48 653.06,-209.73 648.22,-187.55"/>
<polygon fill="midnightblue" stroke="midnightblue" points="817.66,-338.25 828.14,-336.69 818.97,-331.37 817.66,-338.25"/>
</g>
<!-- Node30 -->
<g id="node20" class="node">
<title>Node30</title>
<g id="a_node20"><a xlink:href="flight__runner_8hpp.html" target="_top" xlink:title="The main class for the flight system.">
<polygon fill="none" stroke="black" points="1339.53,-56.5 1339.53,-75.5 1437.53,-75.5 1437.53,-56.5 1339.53,-56.5"/>
<text text-anchor="middle" x="1388.53" y="-63.5" font-family="Helvetica,sans-Serif" font-size="10.00">flight_runner.hpp</text>
</a>
</g>
</g>
<!-- Node6&#45;&gt;Node30 -->
<g id="edge28" class="edge">
<title>Node6&#45;&gt;Node30</title>
<path fill="none" stroke="midnightblue" d="M818.93,-334.57C771.34,-325.49 708.5,-311.95 685.53,-300 640.58,-276.6 645.6,-247.17 600.53,-224 499.27,-171.93 462.8,-186.98 350.53,-168 280.86,-156.22 -11.59,-162.79 37.53,-112 83.65,-64.32 1102.37,-65.76 1339.51,-66.75"/>
<polygon fill="midnightblue" stroke="midnightblue" points="818.36,-338.02 828.83,-336.43 819.65,-331.14 818.36,-338.02"/>
</g>
<!-- Node38 -->
<g id="node27" class="node">
<title>Node38</title>
<g id="a_node27"><a xlink:href="console__pages_8hpp.html" target="_top" xlink:title=" ">
<polygon fill="none" stroke="black" points="289.53,-280.5 289.53,-299.5 399.53,-299.5 399.53,-280.5 289.53,-280.5"/>
<text text-anchor="middle" x="344.53" y="-287.5" font-family="Helvetica,sans-Serif" font-size="10.00">console_pages.hpp</text>
</a>
</g>
</g>
<!-- Node6&#45;&gt;Node38 -->
<g id="edge29" class="edge">
<title>Node6&#45;&gt;Node38</title>
<path fill="none" stroke="midnightblue" d="M817.91,-336C659.72,-316.67 486.37,-302.06 399.74,-295.22"/>
<polygon fill="midnightblue" stroke="midnightblue" points="817.95,-339.53 828.31,-337.28 818.81,-332.58 817.95,-339.53"/>
</g>
<!-- Node44 -->
<g id="node31" class="node">
<title>Node44</title>
<g id="a_node31"><a xlink:href="data__formatting_8hpp.html" target="_top" xlink:title="This file contains the DataFormatter class, which is used to format data for the data and log files.">
<polygon fill="none" stroke="black" points="1196.53,-280.5 1196.53,-299.5 1312.53,-299.5 1312.53,-280.5 1196.53,-280.5"/>
<text text-anchor="middle" x="1254.53" y="-287.5" font-family="Helvetica,sans-Serif" font-size="10.00">data_formatting.hpp</text>
</a>
</g>
</g>
<!-- Node6&#45;&gt;Node44 -->
<g id="edge35" class="edge">
<title>Node6&#45;&gt;Node44</title>
<path fill="none" stroke="midnightblue" d="M936.93,-336.49C1007.89,-326.33 1125.81,-309.44 1196.26,-299.35"/>
<polygon fill="midnightblue" stroke="midnightblue" points="936.22,-333.06 926.82,-337.94 937.21,-339.99 936.22,-333.06"/>
</g>
<!-- Node46 -->
<g id="node33" class="node">
<title>Node46</title>
<g id="a_node33"><a xlink:href="data__log_8hpp.html" target="_top" xlink:title="The data log is responsible for writing data to files and managing the file system.">
<polygon fill="none" stroke="black" points="1192.53,-224.5 1192.53,-243.5 1272.53,-243.5 1272.53,-224.5 1192.53,-224.5"/>
<text text-anchor="middle" x="1232.53" y="-231.5" font-family="Helvetica,sans-Serif" font-size="10.00">data_log.hpp</text>
</a>
</g>
</g>
<!-- Node6&#45;&gt;Node46 -->
<g id="edge42" class="edge">
<title>Node6&#45;&gt;Node46</title>
<path fill="none" stroke="midnightblue" d="M936.95,-336.68C981.36,-329.52 1043.18,-317.54 1095.53,-300 1141.71,-284.53 1192.69,-257.47 1217.42,-243.66"/>
<polygon fill="midnightblue" stroke="midnightblue" points="936.23,-333.25 926.9,-338.27 937.33,-340.16 936.23,-333.25"/>
</g>
<!-- Node51 -->
<g id="node37" class="node">
<title>Node51</title>
<g id="a_node37"><a xlink:href="file__system__manager_8hpp.html" target="_top" xlink:title=" ">
<polygon fill="none" stroke="black" points="1032.53,-224.5 1032.53,-243.5 1174.53,-243.5 1174.53,-224.5 1032.53,-224.5"/>
<text text-anchor="middle" x="1103.53" y="-231.5" font-family="Helvetica,sans-Serif" font-size="10.00">file_system_manager.hpp</text>
</a>
</g>
</g>
<!-- Node6&#45;&gt;Node51 -->
<g id="edge43" class="edge">
<title>Node6&#45;&gt;Node51</title>
<path fill="none" stroke="midnightblue" d="M936.79,-344.76C979.1,-341.65 1035.1,-331.21 1073.53,-300 1091.48,-285.43 1099.18,-257.72 1102.05,-243.65"/>
<polygon fill="midnightblue" stroke="midnightblue" points="936.39,-341.27 926.63,-345.38 936.82,-348.26 936.39,-341.27"/>
</g>
<!-- Node52 -->
<g id="node38" class="node">
<title>Node52</title>
<g id="a_node38"><a xlink:href="influxdb_8hpp.html" target="_top" xlink:title=" ">
<polygon fill="none" stroke="black" points="1291.03,-224.5 1291.03,-243.5 1368.03,-243.5 1368.03,-224.5 1291.03,-224.5"/>
<text text-anchor="middle" x="1329.53" y="-231.5" font-family="Helvetica,sans-Serif" font-size="10.00">influxdb.hpp</text>
</a>
</g>
</g>
<!-- Node6&#45;&gt;Node52 -->
<g id="edge45" class="edge">
<title>Node6&#45;&gt;Node52</title>
<path fill="none" stroke="midnightblue" d="M936.82,-337.68C989.14,-330.48 1067.17,-317.96 1133.53,-300 1158.24,-293.31 1163.33,-288.31 1187.53,-280 1226.67,-266.56 1272.35,-252.34 1301.11,-243.57"/>
<polygon fill="midnightblue" stroke="midnightblue" points="936.15,-334.23 926.71,-339.04 937.09,-341.17 936.15,-334.23"/>
</g>
<!-- Node54 -->
<g id="node40" class="node">
<title>Node54</title>
<g id="a_node40"><a xlink:href="module_8hpp.html" target="_top" xlink:title="The header file for the base module class.">
<polygon fill="none" stroke="red" points="789.53,-224.5 789.53,-243.5 863.53,-243.5 863.53,-224.5 789.53,-224.5"/>
<text text-anchor="middle" x="826.53" y="-231.5" font-family="Helvetica,sans-Serif" font-size="10.00">module.hpp</text>
</a>
</g>
</g>
<!-- Node6&#45;&gt;Node54 -->
<g id="edge48" class="edge">
<title>Node6&#45;&gt;Node54</title>
<path fill="none" stroke="midnightblue" d="M827.2,-334.22C782.27,-324.09 722.49,-309.16 715.53,-300 692.63,-269.86 748.71,-251.14 789.23,-241.93"/>
<polygon fill="midnightblue" stroke="midnightblue" points="826.59,-337.67 837.11,-336.43 828.11,-330.84 826.59,-337.67"/>
</g>
<!-- Node62 -->
<g id="node43" class="node">
<title>Node62</title>
<g id="a_node43"><a xlink:href="request__handler_8hpp.html" target="_top" xlink:title="The request handler class header.">
<polygon fill="none" stroke="red" points="898.53,-224.5 898.53,-243.5 1014.53,-243.5 1014.53,-224.5 898.53,-224.5"/>
<text text-anchor="middle" x="956.53" y="-231.5" font-family="Helvetica,sans-Serif" font-size="10.00">request_handler.hpp</text>
</a>
</g>
</g>
<!-- Node6&#45;&gt;Node62 -->
<g id="edge55" class="edge">
<title>Node6&#45;&gt;Node62</title>
<path fill="none" stroke="midnightblue" d="M910.01,-332.12C924.14,-324.82 939.51,-314.26 948.53,-300 959.6,-282.51 958.97,-257.04 957.69,-243.77"/>
<polygon fill="midnightblue" stroke="midnightblue" points="908.49,-328.97 900.98,-336.44 911.51,-335.28 908.49,-328.97"/>
</g>
<!-- Node64 -->
<g id="node44" class="node">
<title>Node64</title>
<g id="a_node44"><a xlink:href="logger_8hpp.html" target="_top" xlink:title="A simple logger class so difference classes have access to the same logger.">
<polygon fill="none" stroke="black" points="996.53,-280.5 996.53,-299.5 1064.53,-299.5 1064.53,-280.5 996.53,-280.5"/>
<text text-anchor="middle" x="1030.53" y="-287.5" font-family="Helvetica,sans-Serif" font-size="10.00">logger.hpp</text>
</a>
</g>
</g>
<!-- Node6&#45;&gt;Node64 -->
<g id="edge57" class="edge">
<title>Node6&#45;&gt;Node64</title>
<path fill="none" stroke="midnightblue" d="M911.42,-333.04C940.21,-322.88 980.82,-308.55 1006.4,-299.52"/>
<polygon fill="midnightblue" stroke="midnightblue" points="910.04,-329.81 901.78,-336.44 912.37,-336.42 910.04,-329.81"/>
</g>
<!-- Node65 -->
<g id="node45" class="node">
<title>Node65</title>
<g id="a_node45"><a xlink:href="to__json_8cpp.html" target="_top" xlink:title=" ">
<polygon fill="none" stroke="black" points="724.53,-280.5 724.53,-299.5 796.53,-299.5 796.53,-280.5 724.53,-280.5"/>
<text text-anchor="middle" x="760.53" y="-287.5" font-family="Helvetica,sans-Serif" font-size="10.00">to_json.cpp</text>
</a>
</g>
</g>
<!-- Node6&#45;&gt;Node65 -->
<g id="edge60" class="edge">
<title>Node6&#45;&gt;Node65</title>
<path fill="none" stroke="midnightblue" d="M849.87,-332.23C827.98,-322.13 798.04,-308.31 778.98,-299.52"/>
<polygon fill="midnightblue" stroke="midnightblue" points="848.45,-335.43 858.99,-336.44 851.38,-329.08 848.45,-335.43"/>
</g>
<!-- Node66 -->
<g id="node46" class="node">
<title>Node66</title>
<g id="a_node46"><a xlink:href="test__configuration_8cpp.html" target="_top" xlink:title=" ">
<polygon fill="none" stroke="black" points="815.03,-280.5 815.03,-299.5 940.03,-299.5 940.03,-280.5 815.03,-280.5"/>
<text text-anchor="middle" x="877.53" y="-287.5" font-family="Helvetica,sans-Serif" font-size="10.00">test_configuration.cpp</text>
</a>
</g>
</g>
<!-- Node6&#45;&gt;Node66 -->
<g id="edge61" class="edge">
<title>Node6&#45;&gt;Node66</title>
<path fill="none" stroke="midnightblue" d="M877.53,-325.8C877.53,-316.91 877.53,-306.78 877.53,-299.75"/>
<polygon fill="midnightblue" stroke="midnightblue" points="874.03,-326.08 877.53,-336.08 881.03,-326.08 874.03,-326.08"/>
</g>
<!-- Node8 -->
<g id="node8" class="node">
<title>Node8</title>
<g id="a_node8"><a xlink:href="cfg__extensions_8hpp.html" target="_top" xlink:title="The header file for the extensions section of the configuration.">
<polygon fill="none" stroke="red" points="481.03,-224.5 481.03,-243.5 592.03,-243.5 592.03,-224.5 481.03,-224.5"/>
<text text-anchor="middle" x="536.53" y="-231.5" font-family="Helvetica,sans-Serif" font-size="10.00">cfg_extensions.hpp</text>
</a>
</g>
</g>
<!-- Node7&#45;&gt;Node8 -->
<g id="edge7" class="edge">
<title>Node7&#45;&gt;Node8</title>
<path fill="none" stroke="midnightblue" d="M539.13,-270.1C538.47,-261.14 537.71,-250.86 537.18,-243.75"/>
<polygon fill="midnightblue" stroke="midnightblue" points="535.64,-270.37 539.87,-280.08 542.62,-269.85 535.64,-270.37"/>
</g>
<!-- Node8&#45;&gt;Node3 -->
<g id="edge8" class="edge">
<title>Node8&#45;&gt;Node3</title>
<path fill="none" stroke="midnightblue" d="M470.77,-223.79C405.89,-214.7 303.87,-200.4 215.53,-188 212.64,-187.59 209.68,-187.18 206.69,-186.76"/>
<polygon fill="midnightblue" stroke="midnightblue" points="470.47,-227.28 480.86,-225.2 471.44,-220.35 470.47,-227.28"/>
</g>
<!-- Node8&#45;&gt;Node9 -->
<g id="edge9" class="edge">
<title>Node8&#45;&gt;Node9</title>
<path fill="none" stroke="midnightblue" d="M563.29,-219.86C583.69,-209.85 611.2,-196.35 628.9,-187.65"/>
<polygon fill="midnightblue" stroke="midnightblue" points="561.64,-216.78 554.21,-224.32 564.72,-223.06 561.64,-216.78"/>
</g>
<!-- Node10 -->
<g id="node10" class="node">
<title>Node10</title>
<g id="a_node10"><a xlink:href="adc__extension__base_8hpp.html" target="_top" xlink:title="Generic ADC Extension Wrapper.">
<polygon fill="none" stroke="red" points="1123.03,-112.5 1123.03,-131.5 1260.03,-131.5 1260.03,-112.5 1123.03,-112.5"/>
<text text-anchor="middle" x="1191.53" y="-119.5" font-family="Helvetica,sans-Serif" font-size="10.00">adc_extension_base.hpp</text>
</a>
</g>
</g>
<!-- Node9&#45;&gt;Node10 -->
<g id="edge10" class="edge">
<title>Node9&#45;&gt;Node10</title>
<path fill="none" stroke="midnightblue" d="M713.87,-170.91C804.68,-162.61 971.39,-147.05 1113.53,-132 1116.51,-131.68 1119.56,-131.36 1122.64,-131.02"/>
<polygon fill="midnightblue" stroke="midnightblue" points="713.36,-167.44 703.72,-171.84 714,-174.42 713.36,-167.44"/>
</g>
<!-- Node15 -->
<g id="node11" class="node">
<title>Node15</title>
<g id="a_node11"><a xlink:href="bme280_8hpp.html" target="_top" xlink:title="The BME280 sensor extension.">
<polygon fill="none" stroke="red" points="47.03,-112.5 47.03,-131.5 124.03,-131.5 124.03,-112.5 47.03,-112.5"/>
<text text-anchor="middle" x="85.53" y="-119.5" font-family="Helvetica,sans-Serif" font-size="10.00">bme280.hpp</text>
</a>
</g>
</g>
<!-- Node9&#45;&gt;Node15 -->
<g id="edge11" class="edge">
<title>Node9&#45;&gt;Node15</title>
<path fill="none" stroke="midnightblue" d="M579.31,-173.21C481.06,-167.19 292.65,-153.84 133.53,-132 130.51,-131.58 127.39,-131.11 124.25,-130.6"/>
<polygon fill="midnightblue" stroke="midnightblue" points="579.2,-176.71 589.39,-173.82 579.62,-169.72 579.2,-176.71"/>
</g>
<!-- Node17 -->
<g id="node12" class="node">
<title>Node17</title>
<g id="a_node12"><a xlink:href="bmi088_8hpp.html" target="_top" xlink:title="Extension for the Bosch BMI088 IMU.">
<polygon fill="none" stroke="red" points="142.53,-112.5 142.53,-131.5 216.53,-131.5 216.53,-112.5 142.53,-112.5"/>
<text text-anchor="middle" x="179.53" y="-119.5" font-family="Helvetica,sans-Serif" font-size="10.00">bmi088.hpp</text>
</a>
</g>
</g>
<!-- Node9&#45;&gt;Node17 -->
<g id="edge12" class="edge">
<title>Node9&#45;&gt;Node17</title>
<path fill="none" stroke="midnightblue" d="M579.39,-171.63C496.1,-164.56 349.9,-150.78 225.53,-132 222.64,-131.56 219.64,-131.07 216.64,-130.55"/>
<polygon fill="midnightblue" stroke="midnightblue" points="579.21,-175.13 589.47,-172.48 579.8,-168.15 579.21,-175.13"/>
</g>
<!-- Node19 -->
<g id="node13" class="node">
<title>Node19</title>
<g id="a_node13"><a xlink:href="ds18b20_8hpp.html" target="_top" xlink:title="DS18B20 extension header file.">
<polygon fill="none" stroke="red" points="333.03,-112.5 333.03,-131.5 412.03,-131.5 412.03,-112.5 333.03,-112.5"/>
<text text-anchor="middle" x="372.53" y="-119.5" font-family="Helvetica,sans-Serif" font-size="10.00">ds18b20.hpp</text>
</a>
</g>
</g>
<!-- Node9&#45;&gt;Node19 -->
<g id="edge13" class="edge">
<title>Node9&#45;&gt;Node19</title>
<path fill="none" stroke="midnightblue" d="M593.21,-166.49C540.12,-156.03 459.88,-140.21 412.19,-130.82"/>
<polygon fill="midnightblue" stroke="midnightblue" points="592.63,-169.94 603.12,-168.44 593.98,-163.08 592.63,-169.94"/>
</g>
<!-- Node21 -->
<g id="node14" class="node">
<title>Node21</title>
<g id="a_node14"><a xlink:href="extension__base_8cpp.html" target="_top" xlink:title="The new implementation of the extension system.">
<polygon fill="none" stroke="black" points="430.03,-112.5 430.03,-131.5 543.03,-131.5 543.03,-112.5 430.03,-112.5"/>
<text text-anchor="middle" x="486.53" y="-119.5" font-family="Helvetica,sans-Serif" font-size="10.00">extension_base.cpp</text>
</a>
</g>
</g>
<!-- Node9&#45;&gt;Node21 -->
<g id="edge14" class="edge">
<title>Node9&#45;&gt;Node21</title>
<path fill="none" stroke="midnightblue" d="M611.49,-165.17C581.36,-155 538.64,-140.59 511.77,-131.52"/>
<polygon fill="midnightblue" stroke="midnightblue" points="610.59,-168.56 621.18,-168.44 612.82,-161.93 610.59,-168.56"/>
</g>
<!-- Node22 -->
<g id="node15" class="node">
<title>Node22</title>
<g id="a_node15"><a xlink:href="i2c__extension__adapter_8hpp.html" target="_top" xlink:title="Adapter for I2C Extensions.">
<polygon fill="none" stroke="red" points="561.03,-112.5 561.03,-131.5 708.03,-131.5 708.03,-112.5 561.03,-112.5"/>
<text text-anchor="middle" x="634.53" y="-119.5" font-family="Helvetica,sans-Serif" font-size="10.00">i2c_extension_adapter.hpp</text>
</a>
</g>
</g>
<!-- Node9&#45;&gt;Node22 -->
<g id="edge15" class="edge">
<title>Node9&#45;&gt;Node22</title>
<path fill="none" stroke="midnightblue" d="M642.33,-158.1C640.34,-149.14 638.06,-138.86 636.48,-131.75"/>
<polygon fill="midnightblue" stroke="midnightblue" points="638.96,-159.08 644.55,-168.08 645.8,-157.56 638.96,-159.08"/>
</g>
<!-- Node23 -->
<g id="node16" class="node">
<title>Node23</title>
<g id="a_node16"><a xlink:href="pi__camera_8hpp.html" target="_top" xlink:title="Raspberry Pi Camera Extension.">
<polygon fill="none" stroke="red" points="726.03,-112.5 726.03,-131.5 815.03,-131.5 815.03,-112.5 726.03,-112.5"/>
<text text-anchor="middle" x="770.53" y="-119.5" font-family="Helvetica,sans-Serif" font-size="10.00">pi_camera.hpp</text>
</a>
</g>
</g>
<!-- Node9&#45;&gt;Node23 -->
<g id="edge16" class="edge">
<title>Node9&#45;&gt;Node23</title>
<path fill="none" stroke="midnightblue" d="M675.54,-164.37C698.76,-154.26 730.69,-140.35 750.98,-131.52"/>
<polygon fill="midnightblue" stroke="midnightblue" points="673.95,-161.24 666.18,-168.44 676.75,-167.66 673.95,-161.24"/>
</g>
<!-- Node25 -->
<g id="node17" class="node">
<title>Node25</title>
<g id="a_node17"><a xlink:href="rgb__status__led_8hpp.html" target="_top" xlink:title=" ">
<polygon fill="none" stroke="red" points="833.03,-112.5 833.03,-131.5 942.03,-131.5 942.03,-112.5 833.03,-112.5"/>
<text text-anchor="middle" x="887.53" y="-119.5" font-family="Helvetica,sans-Serif" font-size="10.00">rgb_status_led.hpp</text>
</a>
</g>
</g>
<!-- Node9&#45;&gt;Node25 -->
<g id="edge17" class="edge">
<title>Node9&#45;&gt;Node25</title>
<path fill="none" stroke="midnightblue" d="M694.66,-166.22C740.19,-156.01 807.64,-140.9 849.52,-131.52"/>
<polygon fill="midnightblue" stroke="midnightblue" points="693.71,-162.84 684.72,-168.44 695.24,-169.67 693.71,-162.84"/>
</g>
<!-- Node27 -->
<g id="node18" class="node">
<title>Node27</title>
<g id="a_node18"><a xlink:href="samm8q_8hpp.html" target="_top" xlink:title="SAM&#45;M8Q GPS extension (I2C).">
<polygon fill="none" stroke="red" points="234.53,-112.5 234.53,-131.5 314.53,-131.5 314.53,-112.5 234.53,-112.5"/>
<text text-anchor="middle" x="274.53" y="-119.5" font-family="Helvetica,sans-Serif" font-size="10.00">samm8q.hpp</text>
</a>
</g>
</g>
<!-- Node9&#45;&gt;Node27 -->
<g id="edge18" class="edge">
<title>Node9&#45;&gt;Node27</title>
<path fill="none" stroke="midnightblue" d="M579.06,-168.46C513.63,-159.98 411.61,-146.22 323.53,-132 320.63,-131.53 317.63,-131.03 314.62,-130.51"/>
<polygon fill="midnightblue" stroke="midnightblue" points="578.87,-171.97 589.24,-169.78 579.77,-165.03 578.87,-171.97"/>
</g>
<!-- Node29 -->
<g id="node19" class="node">
<title>Node29</title>
<g id="a_node19"><a xlink:href="extension__module_8hpp.html" target="_top" xlink:title="This is the header file for the new extension module.">
<polygon fill="none" stroke="red" points="1278.53,-112.5 1278.53,-131.5 1406.53,-131.5 1406.53,-112.5 1278.53,-112.5"/>
<text text-anchor="middle" x="1342.53" y="-119.5" font-family="Helvetica,sans-Serif" font-size="10.00">extension_module.hpp</text>
</a>
</g>
</g>
<!-- Node9&#45;&gt;Node29 -->
<g id="edge19" class="edge">
<title>Node9&#45;&gt;Node29</title>
<path fill="none" stroke="midnightblue" d="M713.92,-172.15C873.49,-160.65 1261.69,-132.66 1268.53,-132 1271.75,-131.69 1275.05,-131.35 1278.38,-131"/>
<polygon fill="midnightblue" stroke="midnightblue" points="713.47,-168.67 703.74,-172.88 713.97,-175.65 713.47,-168.67"/>
</g>
<!-- Node34 -->
<g id="node24" class="node">
<title>Node34</title>
<g id="a_node24"><a xlink:href="extension__test__framework_8hpp.html" target="_top" xlink:title="Basic helpers for unit testing extensions on the host.">
<polygon fill="none" stroke="red" points="1462.53,-112.5 1462.53,-131.5 1630.53,-131.5 1630.53,-112.5 1462.53,-112.5"/>
<text text-anchor="middle" x="1546.53" y="-119.5" font-family="Helvetica,sans-Serif" font-size="10.00">extension_test_framework.hpp</text>
</a>
</g>
</g>
<!-- Node9&#45;&gt;Node34 -->
<g id="edge24" class="edge">
<title>Node9&#45;&gt;Node34</title>
<path fill="none" stroke="midnightblue" d="M713.95,-171.95C732.6,-170.6 752.85,-169.19 771.53,-168 1057.62,-149.71 1129.42,-149.82 1415.53,-132 1430.66,-131.06 1446.77,-130 1462.33,-128.94"/>
<polygon fill="midnightblue" stroke="midnightblue" points="713.49,-168.47 703.77,-172.69 714,-175.45 713.49,-168.47"/>
</g>
<!-- Node36 -->
<g id="node26" class="node">
<title>Node36</title>
<g id="a_node26"><a xlink:href="simulated__extensions_8hpp.html" target="_top" xlink:title="This contains the simulated extensions for testing the flight system.">
<polygon fill="none" stroke="black" points="960.03,-112.5 960.03,-131.5 1105.03,-131.5 1105.03,-112.5 960.03,-112.5"/>
<text text-anchor="middle" x="1032.53" y="-119.5" font-family="Helvetica,sans-Serif" font-size="10.00">simulated_extensions.hpp</text>
</a>
</g>
</g>
<!-- Node9&#45;&gt;Node36 -->
<g id="edge26" class="edge">
<title>Node9&#45;&gt;Node36</title>
<path fill="none" stroke="midnightblue" d="M713.88,-167.58C786.64,-157.4 901.53,-141.33 971.66,-131.52"/>
<polygon fill="midnightblue" stroke="midnightblue" points="713.32,-164.12 703.9,-168.97 714.29,-171.05 713.32,-164.12"/>
</g>
<!-- Node29&#45;&gt;Node30 -->
<g id="edge20" class="edge">
<title>Node29&#45;&gt;Node30</title>
<path fill="none" stroke="midnightblue" d="M1356.65,-104.43C1364.71,-94.97 1374.49,-83.48 1381.08,-75.75"/>
<polygon fill="midnightblue" stroke="midnightblue" points="1353.95,-102.2 1350.13,-112.08 1359.28,-106.74 1353.95,-102.2"/>
</g>
<!-- Node31 -->
<g id="node21" class="node">
<title>Node31</title>
<g id="a_node21"><a xlink:href="flight__logic_8cpp.html" target="_top" xlink:title="The implementation of the flight logic within the flight runner.">
<polygon fill="none" stroke="black" points="1633.53,-0.5 1633.53,-19.5 1723.53,-19.5 1723.53,-0.5 1633.53,-0.5"/>
<text text-anchor="middle" x="1678.53" y="-7.5" font-family="Helvetica,sans-Serif" font-size="10.00">flight_logic.cpp</text>
</a>
</g>
</g>
<!-- Node30&#45;&gt;Node31 -->
<g id="edge21" class="edge">
<title>Node30&#45;&gt;Node31</title>
<path fill="none" stroke="midnightblue" d="M1444.41,-54.6C1499.39,-44.36 1582.29,-28.92 1633.27,-19.43"/>
<polygon fill="midnightblue" stroke="midnightblue" points="1443.67,-51.17 1434.48,-56.44 1444.96,-58.05 1443.67,-51.17"/>
</g>
<!-- Node32 -->
<g id="node22" class="node">
<title>Node32</title>
<g id="a_node22"><a xlink:href="flight__runner_8cpp.html" target="_top" xlink:title="The implementation of the flight runner, where everything comes together.">
<polygon fill="none" stroke="black" points="1388.53,-0.5 1388.53,-19.5 1486.53,-19.5 1486.53,-0.5 1388.53,-0.5"/>
<text text-anchor="middle" x="1437.53" y="-7.5" font-family="Helvetica,sans-Serif" font-size="10.00">flight_runner.cpp</text>
</a>
</g>
</g>
<!-- Node30&#45;&gt;Node32 -->
<g id="edge22" class="edge">
<title>Node30&#45;&gt;Node32</title>
<path fill="none" stroke="midnightblue" d="M1403.57,-48.43C1412.15,-38.97 1422.58,-27.48 1429.59,-19.75"/>
<polygon fill="midnightblue" stroke="midnightblue" points="1400.75,-46.33 1396.62,-56.08 1405.94,-51.03 1400.75,-46.33"/>
</g>
<!-- Node33 -->
<g id="node23" class="node">
<title>Node33</title>
<g id="a_node23"><a xlink:href="src_2flight__system_2main_8cpp.html" target="_top" xlink:title="Defines the entry point/main function of the Flight Computer software.">
<polygon fill="none" stroke="black" points="1308.53,-0.5 1308.53,-19.5 1370.53,-19.5 1370.53,-0.5 1308.53,-0.5"/>
<text text-anchor="middle" x="1339.53" y="-7.5" font-family="Helvetica,sans-Serif" font-size="10.00">main.cpp</text>
</a>
</g>
</g>
<!-- Node30&#45;&gt;Node33 -->
<g id="edge23" class="edge">
<title>Node30&#45;&gt;Node33</title>
<path fill="none" stroke="midnightblue" d="M1373.5,-48.43C1364.91,-38.97 1354.49,-27.48 1347.47,-19.75"/>
<polygon fill="midnightblue" stroke="midnightblue" points="1371.13,-51.03 1380.44,-56.08 1376.31,-46.33 1371.13,-51.03"/>
</g>
<!-- Node35 -->
<g id="node25" class="node">
<title>Node35</title>
<g id="a_node25"><a xlink:href="extension__test__framework_8cpp.html" target="_top" xlink:title="Test framework for testing extensions on the host.">
<polygon fill="none" stroke="black" points="1581.03,-56.5 1581.03,-75.5 1748.03,-75.5 1748.03,-56.5 1581.03,-56.5"/>
<text text-anchor="middle" x="1664.53" y="-63.5" font-family="Helvetica,sans-Serif" font-size="10.00">extension_test_framework.cpp</text>
</a>
</g>
</g>
<!-- Node34&#45;&gt;Node35 -->
<g id="edge25" class="edge">
<title>Node34&#45;&gt;Node35</title>
<path fill="none" stroke="midnightblue" d="M1574.43,-108.23C1596.5,-98.13 1626.71,-84.31 1645.92,-75.52"/>
<polygon fill="midnightblue" stroke="midnightblue" points="1572.87,-105.1 1565.23,-112.44 1575.78,-111.46 1572.87,-105.1"/>
</g>
<!-- Node39 -->
<g id="node28" class="node">
<title>Node39</title>
<g id="a_node28"><a xlink:href="console__module_8hpp.html" target="_top" xlink:title=" ">
<polygon fill="none" stroke="red" points="225.03,-168.5 225.03,-187.5 342.03,-187.5 342.03,-168.5 225.03,-168.5"/>
<text text-anchor="middle" x="283.53" y="-175.5" font-family="Helvetica,sans-Serif" font-size="10.00">console_module.hpp</text>
</a>
</g>
</g>
<!-- Node38&#45;&gt;Node39 -->
<g id="edge30" class="edge">
<title>Node38&#45;&gt;Node39</title>
<path fill="none" stroke="midnightblue" d="M279.39,-282.08C255.28,-276 230.26,-264.74 215.53,-244 199.08,-220.83 236.4,-199.13 262.01,-187.6"/>
<polygon fill="midnightblue" stroke="midnightblue" points="278.75,-285.52 289.27,-284.31 280.29,-278.69 278.75,-285.52"/>
</g>
<!-- Node41 -->
<g id="node29" class="node">
<title>Node41</title>
<g id="a_node29"><a xlink:href="console__pages_8cpp.html" target="_top" xlink:title=" ">
<polygon fill="none" stroke="black" points="354.03,-224.5 354.03,-243.5 463.03,-243.5 463.03,-224.5 354.03,-224.5"/>
<text text-anchor="middle" x="408.53" y="-231.5" font-family="Helvetica,sans-Serif" font-size="10.00">console_pages.cpp</text>
</a>
</g>
</g>
<!-- Node38&#45;&gt;Node41 -->
<g id="edge32" class="edge">
<title>Node38&#45;&gt;Node41</title>
<path fill="none" stroke="midnightblue" d="M362.52,-273.82C373.99,-264.15 388.45,-251.95 398.06,-243.83"/>
<polygon fill="midnightblue" stroke="midnightblue" points="360.2,-271.2 354.81,-280.32 364.71,-276.55 360.2,-271.2"/>
</g>
<!-- Node42 -->
<g id="node30" class="node">
<title>Node42</title>
<g id="a_node30"><a xlink:href="curses__utilities_8hpp.html" target="_top" xlink:title=" ">
<polygon fill="none" stroke="red" points="225.03,-224.5 225.03,-243.5 336.03,-243.5 336.03,-224.5 225.03,-224.5"/>
<text text-anchor="middle" x="280.53" y="-231.5" font-family="Helvetica,sans-Serif" font-size="10.00">curses_utilities.hpp</text>
</a>
</g>
</g>
<!-- Node38&#45;&gt;Node42 -->
<g id="edge33" class="edge">
<title>Node38&#45;&gt;Node42</title>
<path fill="none" stroke="midnightblue" d="M326.54,-273.82C315.07,-264.15 300.62,-251.95 291,-243.83"/>
<polygon fill="midnightblue" stroke="midnightblue" points="324.35,-276.55 334.25,-280.32 328.86,-271.2 324.35,-276.55"/>
</g>
<!-- Node39&#45;&gt;Node30 -->
<g id="edge31" class="edge">
<title>Node39&#45;&gt;Node30</title>
<path fill="none" stroke="midnightblue" d="M214.77,-167.02C133.27,-155.03 7.96,-136.02 4.53,-132 -1.23,-125.23 -1.65,-118.39 4.53,-112 51.87,-63.1 1098.85,-65.5 1339.52,-66.71"/>
<polygon fill="midnightblue" stroke="midnightblue" points="214.57,-170.53 224.97,-168.52 215.59,-163.6 214.57,-170.53"/>
</g>
<!-- Node42&#45;&gt;Node39 -->
<g id="edge34" class="edge">
<title>Node42&#45;&gt;Node39</title>
<path fill="none" stroke="midnightblue" d="M281.6,-213.8C282.09,-204.91 282.66,-194.78 283.05,-187.75"/>
<polygon fill="midnightblue" stroke="midnightblue" points="278.09,-213.9 281.03,-224.08 285.08,-214.29 278.09,-213.9"/>
</g>
<!-- Node45 -->
<g id="node32" class="node">
<title>Node45</title>
<g id="a_node32"><a xlink:href="data__formatting_8cpp.html" target="_top" xlink:title="Implementation of the DataFormatter class.">
<polygon fill="none" stroke="black" points="1386.53,-224.5 1386.53,-243.5 1502.53,-243.5 1502.53,-224.5 1386.53,-224.5"/>
<text text-anchor="middle" x="1444.53" y="-231.5" font-family="Helvetica,sans-Serif" font-size="10.00">data_formatting.cpp</text>
</a>
</g>
</g>
<!-- Node44&#45;&gt;Node45 -->
<g id="edge36" class="edge">
<title>Node44&#45;&gt;Node45</title>
<path fill="none" stroke="midnightblue" d="M1294.3,-277.7C1330.16,-267.51 1382.1,-252.74 1414.57,-243.52"/>
<polygon fill="midnightblue" stroke="midnightblue" points="1293.3,-274.34 1284.64,-280.44 1295.21,-281.08 1293.3,-274.34"/>
</g>
<!-- Node44&#45;&gt;Node46 -->
<g id="edge37" class="edge">
<title>Node44&#45;&gt;Node46</title>
<path fill="none" stroke="midnightblue" d="M1247.07,-270.69C1243.36,-261.59 1239.06,-251.01 1236.1,-243.75"/>
<polygon fill="midnightblue" stroke="midnightblue" points="1243.88,-272.14 1250.9,-280.08 1250.37,-269.5 1243.88,-272.14"/>
</g>
<!-- Node47 -->
<g id="node34" class="node">
<title>Node47</title>
<g id="a_node34"><a xlink:href="data__log_8cpp.html" target="_top" xlink:title="The implementation of the data log class.">
<polygon fill="none" stroke="black" points="1301.03,-168.5 1301.03,-187.5 1380.03,-187.5 1380.03,-168.5 1301.03,-168.5"/>
<text text-anchor="middle" x="1340.53" y="-175.5" font-family="Helvetica,sans-Serif" font-size="10.00">data_log.cpp</text>
</a>
</g>
</g>
<!-- Node46&#45;&gt;Node47 -->
<g id="edge38" class="edge">
<title>Node46&#45;&gt;Node47</title>
<path fill="none" stroke="midnightblue" d="M1259.08,-219.73C1279.08,-209.73 1305.92,-196.31 1323.22,-187.65"/>
<polygon fill="midnightblue" stroke="midnightblue" points="1257.26,-216.72 1249.88,-224.32 1260.39,-222.98 1257.26,-216.72"/>
</g>
<!-- Node48 -->
<g id="node35" class="node">
<title>Node48</title>
<g id="a_node35"><a xlink:href="data__module_8hpp.html" target="_top" xlink:title="The data module header file.">
<polygon fill="none" stroke="red" points="1182.03,-168.5 1182.03,-187.5 1283.03,-187.5 1283.03,-168.5 1182.03,-168.5"/>
<text text-anchor="middle" x="1232.53" y="-175.5" font-family="Helvetica,sans-Serif" font-size="10.00">data_module.hpp</text>
</a>
</g>
</g>
<!-- Node46&#45;&gt;Node48 -->
<g id="edge39" class="edge">
<title>Node46&#45;&gt;Node48</title>
<path fill="none" stroke="midnightblue" d="M1232.53,-213.8C1232.53,-204.91 1232.53,-194.78 1232.53,-187.75"/>
<polygon fill="midnightblue" stroke="midnightblue" points="1229.03,-214.08 1232.53,-224.08 1236.03,-214.08 1229.03,-214.08"/>
</g>
<!-- Node48&#45;&gt;Node30 -->
<g id="edge40" class="edge">
<title>Node48&#45;&gt;Node30</title>
<path fill="none" stroke="midnightblue" d="M1293.11,-168.08C1384.66,-160.36 1589.39,-187.59 1639.53,-132 1645.49,-125.4 1645.24,-118.82 1639.53,-112 1614.32,-81.87 1503.4,-71.89 1437.75,-68.6"/>
<polygon fill="midnightblue" stroke="midnightblue" points="1292.62,-164.61 1283.04,-169.13 1293.35,-171.57 1292.62,-164.61"/>
</g>
<!-- Node49 -->
<g id="node36" class="node">
<title>Node49</title>
<g id="a_node36"><a xlink:href="data__module_8cpp.html" target="_top" xlink:title=" ">
<polygon fill="none" stroke="black" points="1687.03,-112.5 1687.03,-131.5 1788.03,-131.5 1788.03,-112.5 1687.03,-112.5"/>
<text text-anchor="middle" x="1737.53" y="-119.5" font-family="Helvetica,sans-Serif" font-size="10.00">data_module.cpp</text>
</a>
</g>
</g>
<!-- Node48&#45;&gt;Node49 -->
<g id="edge41" class="edge">
<title>Node48&#45;&gt;Node49</title>
<path fill="none" stroke="midnightblue" d="M1293.02,-167.88C1462.03,-147.33 1506.8,-151.29 1672.53,-132 1677.17,-131.46 1681.99,-130.86 1686.82,-130.24"/>
<polygon fill="midnightblue" stroke="midnightblue" points="1292.54,-164.41 1283.04,-169.1 1293.39,-171.36 1292.54,-164.41"/>
</g>
<!-- Node51&#45;&gt;Node48 -->
<g id="edge44" class="edge">
<title>Node51&#45;&gt;Node48</title>
<path fill="none" stroke="midnightblue" d="M1133.39,-220.5C1157.57,-210.38 1190.99,-196.39 1212.19,-187.52"/>
<polygon fill="midnightblue" stroke="midnightblue" points="1131.85,-217.35 1123.97,-224.44 1134.55,-223.81 1131.85,-217.35"/>
</g>
<!-- Node52&#45;&gt;Node48 -->
<g id="edge46" class="edge">
<title>Node52&#45;&gt;Node48</title>
<path fill="none" stroke="midnightblue" d="M1305.2,-219.45C1287.29,-209.48 1263.48,-196.23 1248.08,-187.65"/>
<polygon fill="midnightblue" stroke="midnightblue" points="1303.51,-222.52 1313.95,-224.32 1306.91,-216.4 1303.51,-222.52"/>
</g>
<!-- Node53 -->
<g id="node39" class="node">
<title>Node53</title>
<g id="a_node39"><a xlink:href="influxdb_8cpp.html" target="_top" xlink:title=" ">
<polygon fill="none" stroke="black" points="1519.53,-168.5 1519.53,-187.5 1595.53,-187.5 1595.53,-168.5 1519.53,-168.5"/>
<text text-anchor="middle" x="1557.53" y="-175.5" font-family="Helvetica,sans-Serif" font-size="10.00">influxdb.cpp</text>
</a>
</g>
</g>
<!-- Node52&#45;&gt;Node53 -->
<g id="edge47" class="edge">
<title>Node52&#45;&gt;Node53</title>
<path fill="none" stroke="midnightblue" d="M1375.6,-222.09C1418.68,-211.89 1482.12,-196.86 1521.57,-187.52"/>
<polygon fill="midnightblue" stroke="midnightblue" points="1374.58,-218.73 1365.66,-224.44 1376.2,-225.54 1374.58,-218.73"/>
</g>
<!-- Node54&#45;&gt;Node29 -->
<g id="edge51" class="edge">
<title>Node54&#45;&gt;Node29</title>
<path fill="none" stroke="midnightblue" d="M839.93,-216.63C853.63,-201.17 876.42,-178.79 901.53,-168 1052.11,-103.28 1105.62,-149.89 1268.53,-132 1271.75,-131.65 1275.04,-131.28 1278.37,-130.9"/>
<polygon fill="midnightblue" stroke="midnightblue" points="837.14,-214.51 833.3,-224.39 842.46,-219.06 837.14,-214.51"/>
</g>
<!-- Node54&#45;&gt;Node39 -->
<g id="edge49" class="edge">
<title>Node54&#45;&gt;Node39</title>
<path fill="none" stroke="midnightblue" d="M779.18,-228.29C679.97,-218.43 450.57,-195.61 342.22,-184.84"/>
<polygon fill="midnightblue" stroke="midnightblue" points="778.91,-231.78 789.21,-229.29 779.6,-224.82 778.91,-231.78"/>
</g>
<!-- Node54&#45;&gt;Node48 -->
<g id="edge50" class="edge">
<title>Node54&#45;&gt;Node48</title>
<path fill="none" stroke="midnightblue" d="M873.89,-226.18C879.17,-225.43 884.46,-224.69 889.53,-224 993.36,-209.77 1115.01,-194.03 1181.95,-185.45"/>
<polygon fill="midnightblue" stroke="midnightblue" points="873.24,-222.73 863.83,-227.6 874.22,-229.66 873.24,-222.73"/>
</g>
<!-- Node55 -->
<g id="node41" class="node">
<title>Node55</title>
<g id="a_node41"><a xlink:href="module_8cpp.html" target="_top" xlink:title="Implementation of the module base class.">
<polygon fill="none" stroke="black" points="780.53,-168.5 780.53,-187.5 854.53,-187.5 854.53,-168.5 780.53,-168.5"/>
<text text-anchor="middle" x="817.53" y="-175.5" font-family="Helvetica,sans-Serif" font-size="10.00">module.cpp</text>
</a>
</g>
</g>
<!-- Node54&#45;&gt;Node55 -->
<g id="edge52" class="edge">
<title>Node54&#45;&gt;Node55</title>
<path fill="none" stroke="midnightblue" d="M823.38,-214.1C821.89,-205.14 820.18,-194.86 818.99,-187.75"/>
<polygon fill="midnightblue" stroke="midnightblue" points="819.95,-214.79 825.05,-224.08 826.85,-213.64 819.95,-214.79"/>
</g>
<!-- Node56 -->
<g id="node42" class="node">
<title>Node56</title>
<g id="a_node42"><a xlink:href="server__module_8hpp.html" target="_top" xlink:title="Header file for the server module.">
<polygon fill="none" stroke="red" points="910.53,-168.5 910.53,-187.5 1020.53,-187.5 1020.53,-168.5 910.53,-168.5"/>
<text text-anchor="middle" x="965.53" y="-175.5" font-family="Helvetica,sans-Serif" font-size="10.00">server_module.hpp</text>
</a>
</g>
</g>
<!-- Node54&#45;&gt;Node56 -->
<g id="edge53" class="edge">
<title>Node54&#45;&gt;Node56</title>
<path fill="none" stroke="midnightblue" d="M858.01,-220.77C884.12,-210.63 920.57,-196.47 943.61,-187.52"/>
<polygon fill="midnightblue" stroke="midnightblue" points="856.61,-217.56 848.56,-224.44 859.15,-224.08 856.61,-217.56"/>
</g>
<!-- Node56&#45;&gt;Node30 -->
<g id="edge54" class="edge">
<title>Node56&#45;&gt;Node30</title>
<path fill="none" stroke="midnightblue" d="M1030.88,-172.76C1152.57,-164.56 1402.8,-146.07 1415.53,-132 1430.62,-115.33 1410.07,-89.04 1397.32,-75.58"/>
<polygon fill="midnightblue" stroke="midnightblue" points="1030.32,-169.29 1020.58,-173.45 1030.79,-176.28 1030.32,-169.29"/>
</g>
<!-- Node62&#45;&gt;Node56 -->
<g id="edge56" class="edge">
<title>Node62&#45;&gt;Node56</title>
<path fill="none" stroke="midnightblue" d="M959.68,-214.1C961.18,-205.14 962.89,-194.86 964.07,-187.75"/>
<polygon fill="midnightblue" stroke="midnightblue" points="956.21,-213.64 958.02,-224.08 963.11,-214.79 956.21,-213.64"/>
</g>
<!-- Node64&#45;&gt;Node51 -->
<g id="edge58" class="edge">
<title>Node64&#45;&gt;Node51</title>
<path fill="none" stroke="midnightblue" d="M1050.67,-274.1C1063.81,-264.38 1080.51,-252.03 1091.59,-243.83"/>
<polygon fill="midnightblue" stroke="midnightblue" points="1048.22,-271.56 1042.26,-280.32 1052.38,-277.19 1048.22,-271.56"/>
</g>
<!-- Node64&#45;&gt;Node62 -->
<g id="edge59" class="edge">
<title>Node64&#45;&gt;Node62</title>
<path fill="none" stroke="midnightblue" d="M1010.5,-274.38C997.12,-264.62 979.97,-252.11 968.64,-243.83"/>
<polygon fill="midnightblue" stroke="midnightblue" points="1008.5,-277.26 1018.64,-280.32 1012.63,-271.6 1008.5,-277.26"/>
</g>
<!-- Node68&#45;&gt;Node31 -->
<g id="edge65" class="edge">
<title>Node68&#45;&gt;Node31</title>
<path fill="none" stroke="midnightblue" d="M1706.81,-283.03C1765.47,-272.95 1854.53,-246.52 1854.53,-179 1854.53,-179 1854.53,-179 1854.53,-121 1854.53,-59.38 1776,-31 1723.86,-18.95"/>
<polygon fill="midnightblue" stroke="midnightblue" points="1705.92,-279.63 1696.6,-284.68 1707.03,-286.54 1705.92,-279.63"/>
</g>
<!-- Node68&#45;&gt;Node35 -->
<g id="edge72" class="edge">
<title>Node68&#45;&gt;Node35</title>
<path fill="none" stroke="midnightblue" d="M1702.3,-277.04C1721.22,-270.09 1742.06,-259.55 1756.53,-244 1792.64,-205.19 1788.28,-184.19 1797.53,-132 1799.08,-123.25 1802.71,-119.22 1797.53,-112 1783.96,-93.08 1762.01,-82.02 1739.81,-75.58"/>
<polygon fill="midnightblue" stroke="midnightblue" points="1700.95,-273.8 1692.62,-280.35 1703.22,-280.42 1700.95,-273.8"/>
</g>
<!-- Node68&#45;&gt;Node45 -->
<g id="edge66" class="edge">
<title>Node68&#45;&gt;Node45</title>
<path fill="none" stroke="midnightblue" d="M1613.19,-277.96C1573.14,-267.76 1514.5,-252.82 1477.97,-243.52"/>
<polygon fill="midnightblue" stroke="midnightblue" points="1612.39,-281.37 1622.94,-280.44 1614.11,-274.58 1612.39,-281.37"/>
</g>
<!-- Node68&#45;&gt;Node49 -->
<g id="edge67" class="edge">
<title>Node68&#45;&gt;Node49</title>
<path fill="none" stroke="midnightblue" d="M1698.39,-276.61C1714.14,-269.69 1730.44,-259.28 1739.53,-244 1761.35,-207.35 1747.31,-152.74 1740.56,-131.7"/>
<polygon fill="midnightblue" stroke="midnightblue" points="1696.7,-273.52 1688.72,-280.49 1699.3,-280.02 1696.7,-273.52"/>
</g>
<!-- Node68&#45;&gt;Node53 -->
<g id="edge68" class="edge">
<title>Node68&#45;&gt;Node53</title>
<path fill="none" stroke="midnightblue" d="M1643.58,-272.07C1633.14,-258.69 1617.89,-239.72 1603.53,-224 1591.48,-210.8 1576.52,-196.52 1567,-187.67"/>
<polygon fill="midnightblue" stroke="midnightblue" points="1641.08,-274.56 1649.97,-280.33 1646.62,-270.28 1641.08,-274.56"/>
</g>
<!-- Node69 -->
<g id="node49" class="node">
<title>Node69</title>
<g id="a_node49"><a xlink:href="to__json_8hpp.html" target="_top" xlink:title="Utility functions for converting data to JSON.">
<polygon fill="none" stroke="black" points="1521.03,-224.5 1521.03,-243.5 1594.03,-243.5 1594.03,-224.5 1521.03,-224.5"/>
<text text-anchor="middle" x="1557.53" y="-231.5" font-family="Helvetica,sans-Serif" font-size="10.00">to_json.hpp</text>
</a>
</g>
</g>
<!-- Node68&#45;&gt;Node69 -->
<g id="edge69" class="edge">
<title>Node68&#45;&gt;Node69</title>
<path fill="none" stroke="midnightblue" d="M1631.7,-275.45C1613.42,-265.48 1589.12,-252.23 1573.4,-243.65"/>
<polygon fill="midnightblue" stroke="midnightblue" points="1630.17,-278.61 1640.63,-280.32 1633.52,-272.46 1630.17,-278.61"/>
</g>
<!-- Node70 -->
<g id="node50" class="node">
<title>Node70</title>
<g id="a_node50"><a xlink:href="to__string_8cpp.html" target="_top" xlink:title="Generic to_string functions for a variety of types.">
<polygon fill="none" stroke="black" points="1650.53,-224.5 1650.53,-243.5 1730.53,-243.5 1730.53,-224.5 1650.53,-224.5"/>
<text text-anchor="middle" x="1690.53" y="-231.5" font-family="Helvetica,sans-Serif" font-size="10.00">to_string.cpp</text>
</a>
</g>
</g>
<!-- Node68&#45;&gt;Node70 -->
<g id="edge71" class="edge">
<title>Node68&#45;&gt;Node70</title>
<path fill="none" stroke="midnightblue" d="M1667.51,-271.57C1673.36,-262.27 1680.3,-251.25 1685.02,-243.75"/>
<polygon fill="midnightblue" stroke="midnightblue" points="1664.51,-269.76 1662.15,-280.08 1670.44,-273.49 1664.51,-269.76"/>
</g>
<!-- Node69&#45;&gt;Node53 -->
<g id="edge70" class="edge">
<title>Node69&#45;&gt;Node53</title>
<path fill="none" stroke="midnightblue" d="M1557.53,-213.8C1557.53,-204.91 1557.53,-194.78 1557.53,-187.75"/>
<polygon fill="midnightblue" stroke="midnightblue" points="1554.03,-214.08 1557.53,-224.08 1561.03,-214.08 1554.03,-214.08"/>
</g>
</g>
</svg>
