<?xml version="1.0" encoding="UTF-8" standalone="no"?>
<!DOCTYPE svg PUBLIC "-//W3C//DTD SVG 1.1//EN"
 "http://www.w3.org/Graphics/SVG/1.1/DTD/svg11.dtd">
<!-- Generated by graphviz version 2.43.0 (0)
 -->
<!-- Title: data::blocks::FileSystemData Pages: 1 -->
<svg width="501pt" height="164pt"
 viewBox="0.00 0.00 501.00 164.00" xmlns="http://www.w3.org/2000/svg" xmlns:xlink="http://www.w3.org/1999/xlink">
<g id="graph0" class="graph" transform="scale(1 1) rotate(0) translate(4 160)">
<title>data::blocks::FileSystemData</title>
<!-- Node1 -->
<g id="Node000001" class="node">
<title>Node1</title>
<g id="a_Node000001"><a xlink:title=" ">
<polygon fill="#999999" stroke="transparent" points="302.5,-49 149.5,-49 149.5,0 302.5,0 302.5,-49"/>
<text text-anchor="start" x="155" y="-36.5" font-family="Helvetica,sans-Serif" font-size="10.00">data::blocks::FileSystemData</text>
<text text-anchor="start" x="224.5" y="-21.5" font-family="Helvetica,sans-Serif" font-size="10.00"> </text>
<text text-anchor="start" x="177.5" y="-6.5" font-family="Helvetica,sans-Serif" font-size="10.00">+</text>
<text text-anchor="start" x="214" y="-6.5" font-family="Helvetica,sans-Serif" font-size="10.00">toJson()</text>
<polygon fill="#666666" stroke="#666666" points="150,-31.5 150,-31.5 303,-31.5 303,-31.5 150,-31.5"/>
<polygon fill="#666666" stroke="#666666" points="150,-16.5 150,-16.5 303,-16.5 303,-16.5 150,-16.5"/>
<polygon fill="none" stroke="#666666" points="149.5,0 149.5,-49 302.5,-49 302.5,0 149.5,0"/>
</a>
</g>
</g>
<!-- Node2 -->
<g id="Node000002" class="node">
<title>Node2</title>
<g id="a_Node000002"><a xlink:title=" ">
<polygon fill="white" stroke="transparent" points="32,-156 0,-156 0,-107 32,-107 32,-156"/>
<text text-anchor="start" x="5" y="-143.5" font-family="Helvetica,sans-Serif" font-size="10.00">bool</text>
<text text-anchor="start" x="14" y="-128.5" font-family="Helvetica,sans-Serif" font-size="10.00"> </text>
<text text-anchor="start" x="14" y="-113.5" font-family="Helvetica,sans-Serif" font-size="10.00"> </text>
<polygon fill="#666666" stroke="#666666" points="0,-138.5 0,-138.5 32,-138.5 32,-138.5 0,-138.5"/>
<polygon fill="#666666" stroke="#666666" points="0,-123.5 0,-123.5 32,-123.5 32,-123.5 0,-123.5"/>
<polygon fill="none" stroke="#666666" points="0,-107 0,-156 32,-156 32,-107 0,-107"/>
</a>
</g>
</g>
<!-- Node2&#45;&gt;Node1 -->
<g id="edge1_Node000001_Node000002" class="edge">
<title>Node2&#45;&gt;Node1</title>
<g id="a_edge1_Node000001_Node000002"><a xlink:title=" ">
<path fill="none" stroke="#63b8ff" d="M15.28,-106.69C16.19,-93.3 19.66,-77.25 30,-67 45.5,-51.63 92.9,-41.36 137.2,-34.88"/>
<polygon fill="none" stroke="#63b8ff" points="137.4,-34.85 142.79,-30.06 149.29,-33.19 143.9,-37.98 137.4,-34.85"/>
</a>
</g>
<text text-anchor="middle" x="89" y="-81" font-family="Helvetica,sans-Serif" font-size="10.00" fill="grey"> +gfs_image_dir_valid</text>
<text text-anchor="middle" x="89" y="-70" font-family="Helvetica,sans-Serif" font-size="10.00" fill="grey">+giraffe_directory_valid</text>
</g>
<!-- Node3 -->
<g id="Node000003" class="node">
<title>Node3</title>
<g id="a_Node000003"><a xlink:title=" ">
<polygon fill="white" stroke="transparent" points="176,-156 138,-156 138,-107 176,-107 176,-156"/>
<text text-anchor="start" x="143" y="-143.5" font-family="Helvetica,sans-Serif" font-size="10.00">string</text>
<text text-anchor="start" x="155" y="-128.5" font-family="Helvetica,sans-Serif" font-size="10.00"> </text>
<text text-anchor="start" x="155" y="-113.5" font-family="Helvetica,sans-Serif" font-size="10.00"> </text>
<polygon fill="#666666" stroke="#666666" points="138,-138.5 138,-138.5 176,-138.5 176,-138.5 138,-138.5"/>
<polygon fill="#666666" stroke="#666666" points="138,-123.5 138,-123.5 176,-123.5 176,-123.5 138,-123.5"/>
<polygon fill="none" stroke="#666666" points="138,-107 138,-156 176,-156 176,-107 138,-107"/>
</a>
</g>
</g>
<!-- Node3&#45;&gt;Node1 -->
<g id="edge2_Node000001_Node000003" class="edge">
<title>Node3&#45;&gt;Node1</title>
<g id="a_edge2_Node000001_Node000003"><a xlink:title=" ">
<path fill="none" stroke="#63b8ff" d="M152.11,-106.73C150.77,-94.14 151.22,-78.87 158,-67 159.99,-63.52 162.4,-60.29 165.12,-57.31"/>
<polygon fill="none" stroke="#63b8ff" points="165.22,-57.22 166.91,-50.21 174.03,-49.08 172.34,-56.09 165.22,-57.22"/>
</a>
</g>
<text text-anchor="middle" x="216" y="-81" font-family="Helvetica,sans-Serif" font-size="10.00" fill="grey"> +gfs_image_dir_path</text>
<text text-anchor="middle" x="216" y="-70" font-family="Helvetica,sans-Serif" font-size="10.00" fill="grey">+giraffe_directory_path</text>
</g>
<!-- Node4 -->
<g id="Node000004" class="node">
<title>Node4</title>
<g id="a_Node000004"><a xlink:title=" ">
<polygon fill="white" stroke="transparent" points="321,-156 271,-156 271,-107 321,-107 321,-156"/>
<text text-anchor="start" x="276" y="-143.5" font-family="Helvetica,sans-Serif" font-size="10.00">uint32_t</text>
<text text-anchor="start" x="294" y="-128.5" font-family="Helvetica,sans-Serif" font-size="10.00"> </text>
<text text-anchor="start" x="294" y="-113.5" font-family="Helvetica,sans-Serif" font-size="10.00"> </text>
<polygon fill="#666666" stroke="#666666" points="271,-138.5 271,-138.5 321,-138.5 321,-138.5 271,-138.5"/>
<polygon fill="#666666" stroke="#666666" points="271,-123.5 271,-123.5 321,-123.5 321,-123.5 271,-123.5"/>
<polygon fill="none" stroke="#666666" points="271,-107 271,-156 321,-156 321,-107 271,-107"/>
</a>
</g>
</g>
<!-- Node4&#45;&gt;Node1 -->
<g id="edge3_Node000001_Node000004" class="edge">
<title>Node4&#45;&gt;Node1</title>
<g id="a_edge3_Node000001_Node000004"><a xlink:title=" ">
<path fill="none" stroke="#63b8ff" d="M290.96,-106.81C287.53,-94.25 282.12,-78.98 274,-67 271.9,-63.91 269.52,-60.91 266.96,-58.03"/>
<polygon fill="none" stroke="#63b8ff" points="266.77,-57.83 259.71,-56.36 258.34,-49.28 265.4,-50.75 266.77,-57.83"/>
</a>
</g>
<text text-anchor="start" x="284" y="-81" font-family="Helvetica,sans-Serif" font-size="10.00" fill="grey"> +gfs_image_dir_file</text>
<text text-anchor="middle" x="334.5" y="-70" font-family="Helvetica,sans-Serif" font-size="10.00" fill="grey">_count</text>
</g>
<!-- Node5 -->
<g id="Node000005" class="node">
<title>Node5</title>
<g id="a_Node000005"><a xlink:title=" ">
<polygon fill="white" stroke="transparent" points="476.5,-156 363.5,-156 363.5,-107 476.5,-107 476.5,-156"/>
<text text-anchor="start" x="369" y="-143.5" font-family="Helvetica,sans-Serif" font-size="10.00">vector&lt; std::string &gt;</text>
<text text-anchor="start" x="418.5" y="-128.5" font-family="Helvetica,sans-Serif" font-size="10.00"> </text>
<text text-anchor="start" x="418.5" y="-113.5" font-family="Helvetica,sans-Serif" font-size="10.00"> </text>
<polygon fill="#666666" stroke="#666666" points="364,-138.5 364,-138.5 477,-138.5 477,-138.5 364,-138.5"/>
<polygon fill="#666666" stroke="#666666" points="364,-123.5 364,-123.5 477,-123.5 477,-123.5 364,-123.5"/>
<polygon fill="none" stroke="#666666" points="363.5,-107 363.5,-156 476.5,-156 476.5,-107 363.5,-107"/>
</a>
</g>
</g>
<!-- Node5&#45;&gt;Node1 -->
<g id="edge4_Node000001_Node000005" class="edge">
<title>Node5&#45;&gt;Node1</title>
<g id="a_edge4_Node000001_Node000005"><a xlink:title=" ">
<path fill="none" stroke="#63b8ff" d="M413.85,-106.81C409.17,-93.28 401.37,-77.06 389,-67 367.98,-49.9 340.79,-39.74 314.65,-33.74"/>
<polygon fill="none" stroke="#63b8ff" points="314.49,-33.71 307.81,-36.41 302.74,-31.27 309.43,-28.57 314.49,-33.71"/>
</a>
</g>
<text text-anchor="middle" x="449" y="-75.5" font-family="Helvetica,sans-Serif" font-size="10.00" fill="grey"> +gfs_image_files</text>
</g>
</g>
</svg>
