<?xml version="1.0" encoding="UTF-8" standalone="no"?>
<!DOCTYPE svg PUBLIC "-//W3C//DTD SVG 1.1//EN"
 "http://www.w3.org/Graphics/SVG/1.1/DTD/svg11.dtd">
<!-- Generated by graphviz version 2.43.0 (0)
 -->
<!-- Title: giraffe::Gpio::Pin Pages: 1 -->
<svg width="258pt" height="182pt"
 viewBox="0.00 0.00 257.50 182.00" xmlns="http://www.w3.org/2000/svg" xmlns:xlink="http://www.w3.org/1999/xlink">
<g id="graph0" class="graph" transform="scale(1 1) rotate(0) translate(4 178)">
<title>giraffe::Gpio::Pin</title>
<!-- Node1 -->
<g id="node1" class="node">
<title>Node1</title>
<g id="a_node1"><a xlink:title="A pin struct that contains the pin number, mode, and default.">
<polygon fill="#bfbfbf" stroke="black" points="47.5,-0.5 47.5,-68.5 145.5,-68.5 145.5,-0.5 47.5,-0.5"/>
<text text-anchor="middle" x="96.5" y="-56.5" font-family="Helvetica,sans-Serif" font-size="10.00">giraffe::Gpio::Pin</text>
<polyline fill="none" stroke="black" points="47.5,-49.5 145.5,-49.5 "/>
<text text-anchor="middle" x="96.5" y="-37.5" font-family="Helvetica,sans-Serif" font-size="10.00"> </text>
<polyline fill="none" stroke="black" points="47.5,-30.5 145.5,-30.5 "/>
<text text-anchor="start" x="55.5" y="-18.5" font-family="Helvetica,sans-Serif" font-size="10.00">+ Pin()</text>
<text text-anchor="start" x="55.5" y="-7.5" font-family="Helvetica,sans-Serif" font-size="10.00">+ Pin()</text>
</a>
</g>
</g>
<!-- Node2 -->
<g id="node2" class="node">
<title>Node2</title>
<g id="a_node2"><a xlink:title=" ">
<polygon fill="none" stroke="#bfbfbf" points="0,-116.5 0,-173.5 59,-173.5 59,-116.5 0,-116.5"/>
<text text-anchor="middle" x="29.5" y="-161.5" font-family="Helvetica,sans-Serif" font-size="10.00">PinMode</text>
<polyline fill="none" stroke="#bfbfbf" points="0,-154.5 59,-154.5 "/>
<text text-anchor="middle" x="29.5" y="-142.5" font-family="Helvetica,sans-Serif" font-size="10.00"> </text>
<polyline fill="none" stroke="#bfbfbf" points="0,-135.5 59,-135.5 "/>
<text text-anchor="middle" x="29.5" y="-123.5" font-family="Helvetica,sans-Serif" font-size="10.00"> </text>
</a>
</g>
</g>
<!-- Node2&#45;&gt;Node1 -->
<g id="edge1" class="edge">
<title>Node2&#45;&gt;Node1</title>
<path fill="none" stroke="#404040" d="M38.55,-116.46C42.25,-106.82 46.97,-96.12 52.5,-87 54.27,-84.08 56.21,-81.16 58.25,-78.27"/>
<polygon fill="none" stroke="#404040" points="58.28,-78.24 58.7,-71.04 65.51,-68.66 65.08,-75.86 58.28,-78.24"/>
<text text-anchor="middle" x="72.5" y="-90" font-family="Helvetica,sans-Serif" font-size="10.00"> +mode</text>
</g>
<!-- Node3 -->
<g id="node3" class="node">
<title>Node3</title>
<g id="a_node3"><a xlink:title=" ">
<polygon fill="none" stroke="#bfbfbf" points="77.5,-116.5 77.5,-173.5 115.5,-173.5 115.5,-116.5 77.5,-116.5"/>
<text text-anchor="middle" x="96.5" y="-161.5" font-family="Helvetica,sans-Serif" font-size="10.00">bool</text>
<polyline fill="none" stroke="#bfbfbf" points="77.5,-154.5 115.5,-154.5 "/>
<text text-anchor="middle" x="96.5" y="-142.5" font-family="Helvetica,sans-Serif" font-size="10.00"> </text>
<polyline fill="none" stroke="#bfbfbf" points="77.5,-135.5 115.5,-135.5 "/>
<text text-anchor="middle" x="96.5" y="-123.5" font-family="Helvetica,sans-Serif" font-size="10.00"> </text>
</a>
</g>
</g>
<!-- Node3&#45;&gt;Node1 -->
<g id="edge2" class="edge">
<title>Node3&#45;&gt;Node1</title>
<path fill="none" stroke="#404040" d="M96.5,-116.34C96.5,-105.53 96.5,-92.85 96.5,-80.77"/>
<polygon fill="none" stroke="#404040" points="96.5,-80.52 92.5,-74.52 96.5,-68.52 100.5,-74.52 96.5,-80.52"/>
<text text-anchor="middle" x="134.5" y="-90" font-family="Helvetica,sans-Serif" font-size="10.00"> +default_state</text>
</g>
<!-- Node4 -->
<g id="node4" class="node">
<title>Node4</title>
<g id="a_node4"><a xlink:title=" ">
<polygon fill="none" stroke="#bfbfbf" points="170.5,-116.5 170.5,-173.5 220.5,-173.5 220.5,-116.5 170.5,-116.5"/>
<text text-anchor="middle" x="195.5" y="-161.5" font-family="Helvetica,sans-Serif" font-size="10.00">uint8_t</text>
<polyline fill="none" stroke="#bfbfbf" points="170.5,-154.5 220.5,-154.5 "/>
<text text-anchor="middle" x="195.5" y="-142.5" font-family="Helvetica,sans-Serif" font-size="10.00"> </text>
<polyline fill="none" stroke="#bfbfbf" points="170.5,-135.5 220.5,-135.5 "/>
<text text-anchor="middle" x="195.5" y="-123.5" font-family="Helvetica,sans-Serif" font-size="10.00"> </text>
</a>
</g>
</g>
<!-- Node4&#45;&gt;Node1 -->
<g id="edge3" class="edge">
<title>Node4&#45;&gt;Node1</title>
<path fill="none" stroke="#404040" d="M188.63,-116.4C185.22,-106.42 180.33,-95.53 173.5,-87 168.37,-80.59 162.22,-74.68 155.67,-69.34"/>
<polygon fill="none" stroke="#404040" points="155.42,-69.16 148.22,-68.73 145.84,-61.92 153.04,-62.35 155.42,-69.16"/>
<text text-anchor="middle" x="214.5" y="-90" font-family="Helvetica,sans-Serif" font-size="10.00"> +pin_number</text>
</g>
</g>
</svg>
