<?xml version="1.0" encoding="UTF-8" standalone="no"?>
<!DOCTYPE svg PUBLIC "-//W3C//DTD SVG 1.1//EN"
 "http://www.w3.org/Graphics/SVG/1.1/DTD/svg11.dtd">
<!-- Generated by graphviz version 2.43.0 (0)
 -->
<!-- Title: giraffe::gdl::Message::AprsTelemetry Pages: 1 -->
<svg width="204pt" height="164pt"
 viewBox="0.00 0.00 203.50 164.00" xmlns="http://www.w3.org/2000/svg" xmlns:xlink="http://www.w3.org/1999/xlink">
<g id="graph0" class="graph" transform="scale(1 1) rotate(0) translate(4 160)">
<title>giraffe::gdl::Message::AprsTelemetry</title>
<!-- Node1 -->
<g id="Node000001" class="node">
<title>Node1</title>
<g id="a_Node000001"><a xlink:title=" ">
<polygon fill="#999999" stroke="transparent" points="128,-60 15,-60 15,0 128,0 128,-60"/>
<text text-anchor="start" x="20.5" y="-48" font-family="Helvetica,sans-Serif" font-size="10.00">giraffe::gdl::Message</text>
<text text-anchor="start" x="33.5" y="-37" font-family="Helvetica,sans-Serif" font-size="10.00">::AprsTelemetry</text>
<text text-anchor="start" x="70" y="-22" font-family="Helvetica,sans-Serif" font-size="10.00"> </text>
<text text-anchor="start" x="70" y="-7" font-family="Helvetica,sans-Serif" font-size="10.00"> </text>
<polygon fill="#666666" stroke="#666666" points="15.5,-32 15.5,-32 128.5,-32 128.5,-32 15.5,-32"/>
<polygon fill="#666666" stroke="#666666" points="15.5,-17 15.5,-17 128.5,-17 128.5,-17 15.5,-17"/>
<polygon fill="none" stroke="#666666" points="15,0 15,-60 128,-60 128,0 15,0"/>
</a>
</g>
</g>
<!-- Node2 -->
<g id="Node000002" class="node">
<title>Node2</title>
<g id="a_Node000002"><a xlink:title=" ">
<polygon fill="white" stroke="transparent" points="33,-156 0,-156 0,-107 33,-107 33,-156"/>
<text text-anchor="start" x="5.5" y="-143.5" font-family="Helvetica,sans-Serif" font-size="10.00">Type</text>
<text text-anchor="start" x="15" y="-128.5" font-family="Helvetica,sans-Serif" font-size="10.00"> </text>
<text text-anchor="start" x="15" y="-113.5" font-family="Helvetica,sans-Serif" font-size="10.00"> </text>
<polygon fill="#666666" stroke="#666666" points="0.5,-138.5 0.5,-138.5 33.5,-138.5 33.5,-138.5 0.5,-138.5"/>
<polygon fill="#666666" stroke="#666666" points="0.5,-123.5 0.5,-123.5 33.5,-123.5 33.5,-123.5 0.5,-123.5"/>
<polygon fill="none" stroke="#666666" points="0,-107 0,-156 33,-156 33,-107 0,-107"/>
</a>
</g>
</g>
<!-- Node2&#45;&gt;Node1 -->
<g id="edge1_Node000001_Node000002" class="edge">
<title>Node2&#45;&gt;Node1</title>
<g id="a_edge1_Node000001_Node000002"><a xlink:title=" ">
<path fill="none" stroke="#63b8ff" d="M12.93,-106.83C12.52,-97.46 13.37,-86.84 17.5,-78 18.88,-75.04 20.55,-72.19 22.43,-69.47"/>
<polygon fill="none" stroke="#63b8ff" points="22.45,-69.44 23.14,-62.26 30.03,-60.13 29.34,-67.31 22.45,-69.44"/>
</a>
</g>
<text text-anchor="middle" x="61" y="-81" font-family="Helvetica,sans-Serif" font-size="10.00" fill="grey"> +telemetry_type</text>
</g>
<!-- Node3 -->
<g id="Node000003" class="node">
<title>Node3</title>
<g id="a_Node000003"><a xlink:title=" ">
<polygon fill="white" stroke="transparent" points="168,-156 85,-156 85,-107 168,-107 168,-156"/>
<text text-anchor="start" x="90.5" y="-143.5" font-family="Helvetica,sans-Serif" font-size="10.00">TelemetryData</text>
<text text-anchor="start" x="125" y="-128.5" font-family="Helvetica,sans-Serif" font-size="10.00"> </text>
<text text-anchor="start" x="125" y="-113.5" font-family="Helvetica,sans-Serif" font-size="10.00"> </text>
<polygon fill="#666666" stroke="#666666" points="85.5,-138.5 85.5,-138.5 168.5,-138.5 168.5,-138.5 85.5,-138.5"/>
<polygon fill="#666666" stroke="#666666" points="85.5,-123.5 85.5,-123.5 168.5,-123.5 168.5,-123.5 85.5,-123.5"/>
<polygon fill="none" stroke="#666666" points="85,-107 85,-156 168,-156 168,-107 85,-107"/>
</a>
</g>
</g>
<!-- Node3&#45;&gt;Node1 -->
<g id="edge2_Node000001_Node000003" class="edge">
<title>Node3&#45;&gt;Node1</title>
<g id="a_edge2_Node000001_Node000003"><a xlink:title=" ">
<path fill="none" stroke="#63b8ff" d="M117.91,-106.99C114.21,-97.75 109.56,-87.17 104.5,-78 103.12,-75.5 101.63,-72.96 100.08,-70.44"/>
<polygon fill="none" stroke="#63b8ff" points="99.98,-70.28 93.36,-67.42 93.45,-60.21 100.07,-63.07 99.98,-70.28"/>
</a>
</g>
<text text-anchor="middle" x="152" y="-81" font-family="Helvetica,sans-Serif" font-size="10.00" fill="grey"> +telemetry_data</text>
</g>
</g>
</svg>
