<?xml version="1.0" encoding="UTF-8" standalone="no"?>
<!DOCTYPE svg PUBLIC "-//W3C//DTD SVG 1.1//EN"
 "http://www.w3.org/Graphics/SVG/1.1/DTD/svg11.dtd">
<!-- Generated by graphviz version 2.43.0 (0)
 -->
<!-- Title: protocol::Message::getBodyJson Pages: 1 -->
<svg width="753pt" height="127pt"
 viewBox="0.00 0.00 753.00 127.00" xmlns="http://www.w3.org/2000/svg" xmlns:xlink="http://www.w3.org/1999/xlink">
<g id="graph0" class="graph" transform="scale(1 1) rotate(0) translate(4 123)">
<title>protocol::Message::getBodyJson</title>
<!-- Node1 -->
<g id="node1" class="node">
<title>Node1</title>
<g id="a_node1"><a xlink:title="Get the message body as a JSON object.">
<polygon fill="#bfbfbf" stroke="black" points="633,-44.5 633,-74.5 745,-74.5 745,-44.5 633,-44.5"/>
<text text-anchor="start" x="641" y="-62.5" font-family="Helvetica,sans-Serif" font-size="10.00">protocol::Message::</text>
<text text-anchor="middle" x="689" y="-51.5" font-family="Helvetica,sans-Serif" font-size="10.00">getBodyJson</text>
</a>
</g>
</g>
<!-- Node2 -->
<g id="node2" class="node">
<title>Node2</title>
<g id="a_node2"><a xlink:href="group__ServerModule.html#a493ddf0161bba462a169e510c5215990" target="_top" xlink:title="A special handler for updating ADC mapping settings.">
<polygon fill="none" stroke="black" points="436,-88.5 436,-118.5 582,-118.5 582,-88.5 436,-88.5"/>
<text text-anchor="start" x="444" y="-106.5" font-family="Helvetica,sans-Serif" font-size="10.00">RequestRouter::handleAdc</text>
<text text-anchor="middle" x="509" y="-95.5" font-family="Helvetica,sans-Serif" font-size="10.00">MappingSettingUpdate</text>
</a>
</g>
</g>
<!-- Node1&#45;&gt;Node2 -->
<g id="edge1" class="edge">
<title>Node1&#45;&gt;Node2</title>
<path fill="none" stroke="midnightblue" d="M622.83,-75.61C605.85,-79.81 587.63,-84.31 570.88,-88.45"/>
<polygon fill="midnightblue" stroke="midnightblue" points="623.79,-78.98 632.66,-73.18 622.11,-72.18 623.79,-78.98"/>
</g>
<!-- Node3 -->
<g id="node3" class="node">
<title>Node3</title>
<g id="a_node3"><a xlink:href="group__ServerModule.html#a1d58bc2e5fc57191959bc60a89b61ec5" target="_top" xlink:title="This function handles a setting SET request. It will attempt to set the configuration with the value ...">
<polygon fill="none" stroke="black" points="207,-50 207,-69 385,-69 385,-50 207,-50"/>
<text text-anchor="middle" x="296" y="-57" font-family="Helvetica,sans-Serif" font-size="10.00">RequestRouter::handleSettingSet</text>
</a>
</g>
</g>
<!-- Node1&#45;&gt;Node3 -->
<g id="edge6" class="edge">
<title>Node1&#45;&gt;Node3</title>
<path fill="none" stroke="midnightblue" d="M622.67,-59.5C557.57,-59.5 457.17,-59.5 385.06,-59.5"/>
<polygon fill="midnightblue" stroke="midnightblue" points="622.81,-63 632.81,-59.5 622.81,-56 622.81,-63"/>
</g>
<!-- Node5 -->
<g id="node5" class="node">
<title>Node5</title>
<g id="a_node5"><a xlink:href="group__ServerModule.html#af41f65e7470ab4490dfa655ead0a7f88" target="_top" xlink:title="A special handler for updating extension settings.">
<polygon fill="none" stroke="black" points="421,-0.5 421,-30.5 597,-30.5 597,-0.5 421,-0.5"/>
<text text-anchor="start" x="429" y="-18.5" font-family="Helvetica,sans-Serif" font-size="10.00">RequestRouter::handleExtension</text>
<text text-anchor="middle" x="509" y="-7.5" font-family="Helvetica,sans-Serif" font-size="10.00">SettingUpdate</text>
</a>
</g>
</g>
<!-- Node1&#45;&gt;Node5 -->
<g id="edge4" class="edge">
<title>Node1&#45;&gt;Node5</title>
<path fill="none" stroke="midnightblue" d="M622.83,-43.39C605.85,-39.19 587.63,-34.69 570.88,-30.55"/>
<polygon fill="midnightblue" stroke="midnightblue" points="622.11,-46.82 632.66,-45.82 623.79,-40.02 622.11,-46.82"/>
</g>
<!-- Node2&#45;&gt;Node3 -->
<g id="edge2" class="edge">
<title>Node2&#45;&gt;Node3</title>
<path fill="none" stroke="midnightblue" d="M426.06,-86.41C397.72,-80.5 366.98,-74.09 342.62,-69.01"/>
<polygon fill="midnightblue" stroke="midnightblue" points="425.47,-89.87 435.98,-88.48 426.9,-83.01 425.47,-89.87"/>
</g>
<!-- Node4 -->
<g id="node4" class="node">
<title>Node4</title>
<g id="a_node4"><a xlink:href="group__ServerModule.html#ad77e0ae3d2cd0daba1388e7d7ffa1393" target="_top" xlink:title="This function is responsible for parsing a request and routing it to the right place.">
<polygon fill="none" stroke="black" points="0,-50 0,-69 171,-69 171,-50 0,-50"/>
<text text-anchor="middle" x="85.5" y="-57" font-family="Helvetica,sans-Serif" font-size="10.00">RequestRouter::handleMessage</text>
</a>
</g>
</g>
<!-- Node3&#45;&gt;Node4 -->
<g id="edge3" class="edge">
<title>Node3&#45;&gt;Node4</title>
<path fill="none" stroke="midnightblue" d="M196.61,-59.5C188.15,-59.5 179.65,-59.5 171.31,-59.5"/>
<polygon fill="midnightblue" stroke="midnightblue" points="196.88,-63 206.88,-59.5 196.88,-56 196.88,-63"/>
</g>
<!-- Node5&#45;&gt;Node3 -->
<g id="edge5" class="edge">
<title>Node5&#45;&gt;Node3</title>
<path fill="none" stroke="midnightblue" d="M426.06,-32.59C397.72,-38.5 366.98,-44.91 342.62,-49.99"/>
<polygon fill="midnightblue" stroke="midnightblue" points="426.9,-35.99 435.98,-30.52 425.47,-29.13 426.9,-35.99"/>
</g>
</g>
</svg>
