<?xml version="1.0" encoding="UTF-8" standalone="no"?>
<!DOCTYPE svg PUBLIC "-//W3C//DTD SVG 1.1//EN"
 "http://www.w3.org/Graphics/SVG/1.1/DTD/svg11.dtd">
<!-- Generated by graphviz version 2.43.0 (0)
 -->
<!-- Title: data_middleware::InfluxLine Pages: 1 -->
<svg width="254pt" height="175pt"
 viewBox="0.00 0.00 254.00 175.00" xmlns="http://www.w3.org/2000/svg" xmlns:xlink="http://www.w3.org/1999/xlink">
<g id="graph0" class="graph" transform="scale(1 1) rotate(0) translate(4 171)">
<title>data_middleware::InfluxLine</title>
<!-- Node1 -->
<g id="Node000001" class="node">
<title>Node1</title>
<g id="a_Node000001"><a xlink:title=" ">
<polygon fill="#999999" stroke="transparent" points="196.5,-49 47.5,-49 47.5,0 196.5,0 196.5,-49"/>
<text text-anchor="start" x="53" y="-36.5" font-family="Helvetica,sans-Serif" font-size="10.00">data_middleware::InfluxLine</text>
<text text-anchor="start" x="120.5" y="-21.5" font-family="Helvetica,sans-Serif" font-size="10.00"> </text>
<text text-anchor="start" x="71" y="-6.5" font-family="Helvetica,sans-Serif" font-size="10.00">+</text>
<text text-anchor="start" x="103" y="-6.5" font-family="Helvetica,sans-Serif" font-size="10.00">getString()</text>
<polygon fill="#666666" stroke="#666666" points="48,-31.5 48,-31.5 197,-31.5 197,-31.5 48,-31.5"/>
<polygon fill="#666666" stroke="#666666" points="48,-16.5 48,-16.5 197,-16.5 197,-16.5 48,-16.5"/>
<polygon fill="none" stroke="#666666" points="47.5,0 47.5,-49 196.5,-49 196.5,0 47.5,0"/>
</a>
</g>
</g>
<!-- Node2 -->
<g id="Node000002" class="node">
<title>Node2</title>
<g id="a_Node000002"><a xlink:title=" ">
<polygon fill="white" stroke="transparent" points="38,-161.5 0,-161.5 0,-112.5 38,-112.5 38,-161.5"/>
<text text-anchor="start" x="5" y="-149" font-family="Helvetica,sans-Serif" font-size="10.00">string</text>
<text text-anchor="start" x="17" y="-134" font-family="Helvetica,sans-Serif" font-size="10.00"> </text>
<text text-anchor="start" x="17" y="-119" font-family="Helvetica,sans-Serif" font-size="10.00"> </text>
<polygon fill="#666666" stroke="#666666" points="0,-144 0,-144 38,-144 38,-144 0,-144"/>
<polygon fill="#666666" stroke="#666666" points="0,-129 0,-129 38,-129 38,-129 0,-129"/>
<polygon fill="none" stroke="#666666" points="0,-112.5 0,-161.5 38,-161.5 38,-112.5 0,-112.5"/>
</a>
</g>
</g>
<!-- Node2&#45;&gt;Node1 -->
<g id="edge1_Node000001_Node000002" class="edge">
<title>Node2&#45;&gt;Node1</title>
<g id="a_edge1_Node000001_Node000002"><a xlink:title=" ">
<path fill="none" stroke="#63b8ff" d="M20.66,-112.34C22.76,-97.87 27.48,-79.74 38,-67 41.26,-63.05 44.99,-59.44 49.03,-56.15"/>
<polygon fill="none" stroke="#63b8ff" points="49.17,-56.05 51.71,-49.3 58.92,-49.05 56.38,-55.8 49.17,-56.05"/>
</a>
</g>
<text text-anchor="middle" x="78" y="-75.5" font-family="Helvetica,sans-Serif" font-size="10.00" fill="grey"> +measurement</text>
</g>
<!-- Node3 -->
<g id="Node000003" class="node">
<title>Node3</title>
<g id="a_Node000003"><a xlink:title=" ">
<polygon fill="white" stroke="transparent" points="178.5,-167 65.5,-167 65.5,-107 178.5,-107 178.5,-167"/>
<text text-anchor="start" x="71" y="-155" font-family="Helvetica,sans-Serif" font-size="10.00">map&lt; std::string, std</text>
<text text-anchor="start" x="99.5" y="-144" font-family="Helvetica,sans-Serif" font-size="10.00">::string &gt;</text>
<text text-anchor="start" x="120.5" y="-129" font-family="Helvetica,sans-Serif" font-size="10.00"> </text>
<text text-anchor="start" x="120.5" y="-114" font-family="Helvetica,sans-Serif" font-size="10.00"> </text>
<polygon fill="#666666" stroke="#666666" points="66,-139 66,-139 179,-139 179,-139 66,-139"/>
<polygon fill="#666666" stroke="#666666" points="66,-124 66,-124 179,-124 179,-124 66,-124"/>
<polygon fill="none" stroke="#666666" points="65.5,-107 65.5,-167 178.5,-167 178.5,-107 65.5,-107"/>
</a>
</g>
</g>
<!-- Node3&#45;&gt;Node1 -->
<g id="edge2_Node000001_Node000003" class="edge">
<title>Node3&#45;&gt;Node1</title>
<g id="a_edge2_Node000001_Node000003"><a xlink:title=" ">
<path fill="none" stroke="#63b8ff" d="M122,-106.97C122,-93.02 122,-76.17 122,-61.43"/>
<polygon fill="none" stroke="#63b8ff" points="122,-61.13 118,-55.13 122,-49.13 126,-55.13 122,-61.13"/>
</a>
</g>
<text text-anchor="middle" x="141" y="-81" font-family="Helvetica,sans-Serif" font-size="10.00" fill="grey"> +fields</text>
<text text-anchor="middle" x="141" y="-70" font-family="Helvetica,sans-Serif" font-size="10.00" fill="grey">+tags</text>
</g>
<!-- Node4 -->
<g id="Node000004" class="node">
<title>Node4</title>
<g id="a_Node000004"><a xlink:title=" ">
<polygon fill="white" stroke="transparent" points="239,-161.5 197,-161.5 197,-112.5 239,-112.5 239,-161.5"/>
<text text-anchor="start" x="202" y="-149" font-family="Helvetica,sans-Serif" font-size="10.00">time_t</text>
<text text-anchor="start" x="216" y="-134" font-family="Helvetica,sans-Serif" font-size="10.00"> </text>
<text text-anchor="start" x="216" y="-119" font-family="Helvetica,sans-Serif" font-size="10.00"> </text>
<polygon fill="#666666" stroke="#666666" points="197,-144 197,-144 239,-144 239,-144 197,-144"/>
<polygon fill="#666666" stroke="#666666" points="197,-129 197,-129 239,-129 239,-129 197,-129"/>
<polygon fill="none" stroke="#666666" points="197,-112.5 197,-161.5 239,-161.5 239,-112.5 197,-112.5"/>
</a>
</g>
</g>
<!-- Node4&#45;&gt;Node1 -->
<g id="edge3_Node000001_Node000004" class="edge">
<title>Node4&#45;&gt;Node1</title>
<g id="a_edge3_Node000001_Node000004"><a xlink:title=" ">
<path fill="none" stroke="#63b8ff" d="M200.71,-112.4C190.45,-98.79 176.95,-81.54 164,-67 161.34,-64.01 158.52,-60.98 155.64,-57.97"/>
<polygon fill="none" stroke="#63b8ff" points="155.37,-57.69 148.31,-56.21 146.97,-49.13 154.02,-50.61 155.37,-57.69"/>
</a>
</g>
<text text-anchor="middle" x="213.5" y="-75.5" font-family="Helvetica,sans-Serif" font-size="10.00" fill="grey"> +timestamp</text>
</g>
</g>
</svg>
