<?xml version="1.0" encoding="UTF-8" standalone="no"?>
<!DOCTYPE svg PUBLIC "-//W3C//DTD SVG 1.1//EN"
 "http://www.w3.org/Graphics/SVG/1.1/DTD/svg11.dtd">
<!-- Generated by graphviz version 2.43.0 (0)
 -->
<!-- Title: data::BaseStreamPacket Pages: 1 -->
<svg width="650pt" height="226pt"
 viewBox="0.00 0.00 649.50 226.00" xmlns="http://www.w3.org/2000/svg" xmlns:xlink="http://www.w3.org/1999/xlink">
<g id="graph0" class="graph" transform="scale(1 1) rotate(0) translate(4 222)">
<title>data::BaseStreamPacket</title>
<!-- Node1 -->
<g id="node1" class="node">
<title>Node1</title>
<g id="a_node1"><a xlink:title=" ">
<polygon fill="#bfbfbf" stroke="black" points="257.5,-138.5 257.5,-217.5 392.5,-217.5 392.5,-138.5 257.5,-138.5"/>
<text text-anchor="middle" x="325" y="-205.5" font-family="Helvetica,sans-Serif" font-size="10.00">data::BaseStreamPacket</text>
<polyline fill="none" stroke="black" points="257.5,-198.5 392.5,-198.5 "/>
<text text-anchor="start" x="265.5" y="-186.5" font-family="Helvetica,sans-Serif" font-size="10.00">+ created_time</text>
<text text-anchor="start" x="265.5" y="-175.5" font-family="Helvetica,sans-Serif" font-size="10.00">+ secondary_identifier</text>
<text text-anchor="start" x="265.5" y="-164.5" font-family="Helvetica,sans-Serif" font-size="10.00">+ source</text>
<polyline fill="none" stroke="black" points="257.5,-157.5 392.5,-157.5 "/>
<text text-anchor="start" x="265.5" y="-145.5" font-family="Helvetica,sans-Serif" font-size="10.00">+ resetTime()</text>
</a>
</g>
</g>
<!-- Node2 -->
<g id="node2" class="node">
<title>Node2</title>
<g id="a_node2"><a xlink:href="structdata_1_1CommandPacket.html" target="_top" xlink:title="The packet for the command stream.">
<polygon fill="none" stroke="black" points="0,-22.5 0,-79.5 126,-79.5 126,-22.5 0,-22.5"/>
<text text-anchor="middle" x="63" y="-67.5" font-family="Helvetica,sans-Serif" font-size="10.00">data::CommandPacket</text>
<polyline fill="none" stroke="black" points="0,-60.5 126,-60.5 "/>
<text text-anchor="start" x="8" y="-48.5" font-family="Helvetica,sans-Serif" font-size="10.00">+ command</text>
<polyline fill="none" stroke="black" points="0,-41.5 126,-41.5 "/>
<text text-anchor="middle" x="63" y="-29.5" font-family="Helvetica,sans-Serif" font-size="10.00"> </text>
</a>
</g>
</g>
<!-- Node1&#45;&gt;Node2 -->
<g id="edge1" class="edge">
<title>Node1&#45;&gt;Node2</title>
<path fill="none" stroke="midnightblue" d="M247.61,-151.07C212.41,-138.12 170.72,-121.12 135,-102 122.92,-95.54 110.44,-87.44 99.33,-79.65"/>
<polygon fill="none" stroke="midnightblue" points="246.77,-154.49 257.36,-154.62 249.16,-147.91 246.77,-154.49"/>
</g>
<!-- Node3 -->
<g id="node3" class="node">
<title>Node3</title>
<g id="a_node3"><a xlink:href="structdata_1_1DataPacket.html" target="_top" xlink:title=" ">
<polygon fill="none" stroke="black" points="144,-0.5 144,-101.5 244,-101.5 244,-0.5 144,-0.5"/>
<text text-anchor="middle" x="194" y="-89.5" font-family="Helvetica,sans-Serif" font-size="10.00">data::DataPacket</text>
<polyline fill="none" stroke="black" points="144,-82.5 244,-82.5 "/>
<text text-anchor="start" x="152" y="-70.5" font-family="Helvetica,sans-Serif" font-size="10.00">+ identifier</text>
<text text-anchor="start" x="152" y="-59.5" font-family="Helvetica,sans-Serif" font-size="10.00">+ node_status</text>
<text text-anchor="start" x="152" y="-48.5" font-family="Helvetica,sans-Serif" font-size="10.00">+ numeric_value</text>
<text text-anchor="start" x="152" y="-37.5" font-family="Helvetica,sans-Serif" font-size="10.00">+ type</text>
<text text-anchor="start" x="152" y="-26.5" font-family="Helvetica,sans-Serif" font-size="10.00">+ value</text>
<polyline fill="none" stroke="black" points="144,-19.5 244,-19.5 "/>
<text text-anchor="middle" x="194" y="-7.5" font-family="Helvetica,sans-Serif" font-size="10.00"> </text>
</a>
</g>
</g>
<!-- Node1&#45;&gt;Node3 -->
<g id="edge2" class="edge">
<title>Node1&#45;&gt;Node3</title>
<path fill="none" stroke="midnightblue" d="M277.3,-131.48C266.52,-121.2 255.05,-110.26 244.18,-99.88"/>
<polygon fill="none" stroke="midnightblue" points="274.98,-134.1 284.63,-138.48 279.81,-129.04 274.98,-134.1"/>
</g>
<!-- Node4 -->
<g id="node4" class="node">
<title>Node4</title>
<g id="a_node4"><a xlink:href="structdata_1_1GpsFramePacket.html" target="_top" xlink:title=" ">
<polygon fill="none" stroke="black" points="262.5,-22.5 262.5,-79.5 387.5,-79.5 387.5,-22.5 262.5,-22.5"/>
<text text-anchor="middle" x="325" y="-67.5" font-family="Helvetica,sans-Serif" font-size="10.00">data::GpsFramePacket</text>
<polyline fill="none" stroke="black" points="262.5,-60.5 387.5,-60.5 "/>
<text text-anchor="start" x="270.5" y="-48.5" font-family="Helvetica,sans-Serif" font-size="10.00">+ frame</text>
<polyline fill="none" stroke="black" points="262.5,-41.5 387.5,-41.5 "/>
<text text-anchor="middle" x="325" y="-29.5" font-family="Helvetica,sans-Serif" font-size="10.00"> </text>
</a>
</g>
</g>
<!-- Node1&#45;&gt;Node4 -->
<g id="edge3" class="edge">
<title>Node1&#45;&gt;Node4</title>
<path fill="none" stroke="midnightblue" d="M325,-128.45C325,-111.99 325,-94.17 325,-79.88"/>
<polygon fill="none" stroke="midnightblue" points="321.5,-128.48 325,-138.48 328.5,-128.48 321.5,-128.48"/>
</g>
<!-- Node5 -->
<g id="node5" class="node">
<title>Node5</title>
<g id="a_node5"><a xlink:href="structdata_1_1ImuFramePacket.html" target="_top" xlink:title=" ">
<polygon fill="none" stroke="black" points="405.5,-22.5 405.5,-79.5 530.5,-79.5 530.5,-22.5 405.5,-22.5"/>
<text text-anchor="middle" x="468" y="-67.5" font-family="Helvetica,sans-Serif" font-size="10.00">data::ImuFramePacket</text>
<polyline fill="none" stroke="black" points="405.5,-60.5 530.5,-60.5 "/>
<text text-anchor="start" x="413.5" y="-48.5" font-family="Helvetica,sans-Serif" font-size="10.00">+ frame</text>
<polyline fill="none" stroke="black" points="405.5,-41.5 530.5,-41.5 "/>
<text text-anchor="middle" x="468" y="-29.5" font-family="Helvetica,sans-Serif" font-size="10.00"> </text>
</a>
</g>
</g>
<!-- Node1&#45;&gt;Node5 -->
<g id="edge4" class="edge">
<title>Node1&#45;&gt;Node5</title>
<path fill="none" stroke="midnightblue" d="M376.84,-131.69C396.66,-114.36 418.67,-95.12 436.1,-79.88"/>
<polygon fill="none" stroke="midnightblue" points="374.3,-129.26 369.07,-138.48 378.9,-134.53 374.3,-129.26"/>
</g>
<!-- Node6 -->
<g id="node6" class="node">
<title>Node6</title>
<g id="a_node6"><a xlink:href="structdata_1_1LogPacket.html" target="_top" xlink:title=" ">
<polygon fill="none" stroke="black" points="548.5,-11.5 548.5,-90.5 641.5,-90.5 641.5,-11.5 548.5,-11.5"/>
<text text-anchor="middle" x="595" y="-78.5" font-family="Helvetica,sans-Serif" font-size="10.00">data::LogPacket</text>
<polyline fill="none" stroke="black" points="548.5,-71.5 641.5,-71.5 "/>
<text text-anchor="start" x="556.5" y="-59.5" font-family="Helvetica,sans-Serif" font-size="10.00">+ id</text>
<text text-anchor="start" x="556.5" y="-48.5" font-family="Helvetica,sans-Serif" font-size="10.00">+ info</text>
<text text-anchor="start" x="556.5" y="-37.5" font-family="Helvetica,sans-Serif" font-size="10.00">+ level</text>
<polyline fill="none" stroke="black" points="548.5,-30.5 641.5,-30.5 "/>
<text text-anchor="middle" x="595" y="-18.5" font-family="Helvetica,sans-Serif" font-size="10.00"> </text>
</a>
</g>
</g>
<!-- Node1&#45;&gt;Node6 -->
<g id="edge5" class="edge">
<title>Node1&#45;&gt;Node6</title>
<path fill="none" stroke="midnightblue" d="M402.67,-158.1C445.07,-145.81 497.45,-127.32 540,-102 545.55,-98.7 551.02,-94.78 556.25,-90.61"/>
<polygon fill="none" stroke="midnightblue" points="401.62,-154.76 392.95,-160.86 403.53,-161.5 401.62,-154.76"/>
</g>
</g>
</svg>
