<?xml version="1.0" encoding="UTF-8" standalone="no"?>
<!DOCTYPE svg PUBLIC "-//W3C//DTD SVG 1.1//EN"
 "http://www.w3.org/Graphics/SVG/1.1/DTD/svg11.dtd">
<!-- Generated by graphviz version 2.43.0 (0)
 -->
<!-- Title: ax25::StateMachineData Pages: 1 -->
<svg width="145pt" height="408pt"
 viewBox="0.00 0.00 145.00 408.00" xmlns="http://www.w3.org/2000/svg" xmlns:xlink="http://www.w3.org/1999/xlink">
<g id="graph0" class="graph" transform="scale(1 1) rotate(0) translate(4 404)">
<title>ax25::StateMachineData</title>
<!-- Node1 -->
<g id="node1" class="node">
<title>Node1</title>
<g id="a_node1"><a xlink:title="Data that is shared between the state machines.">
<polygon fill="#bfbfbf" stroke="black" points="0,-0.5 0,-57.5 137,-57.5 137,-0.5 0,-0.5"/>
<text text-anchor="middle" x="68.5" y="-45.5" font-family="Helvetica,sans-Serif" font-size="10.00">ax25::StateMachineData</text>
<polyline fill="none" stroke="black" points="0,-38.5 137,-38.5 "/>
<text text-anchor="middle" x="68.5" y="-26.5" font-family="Helvetica,sans-Serif" font-size="10.00"> </text>
<polyline fill="none" stroke="black" points="0,-19.5 137,-19.5 "/>
<text text-anchor="middle" x="68.5" y="-7.5" font-family="Helvetica,sans-Serif" font-size="10.00"> </text>
</a>
</g>
</g>
<!-- Node2 -->
<g id="node2" class="node">
<title>Node2</title>
<g id="a_node2"><a xlink:href="namespaceax25.html#structax25_1_1Timers" target="_top" xlink:title="Timers for the state machines. See 6.7 of the AX.25 2.2 specification.">
<polygon fill="none" stroke="black" points="28.5,-105.5 28.5,-184.5 108.5,-184.5 108.5,-105.5 28.5,-105.5"/>
<text text-anchor="middle" x="68.5" y="-172.5" font-family="Helvetica,sans-Serif" font-size="10.00">ax25::Timers</text>
<polyline fill="none" stroke="black" points="28.5,-165.5 108.5,-165.5 "/>
<text text-anchor="start" x="36.5" y="-153.5" font-family="Helvetica,sans-Serif" font-size="10.00">+ t2</text>
<text text-anchor="start" x="36.5" y="-142.5" font-family="Helvetica,sans-Serif" font-size="10.00">+ t3</text>
<text text-anchor="start" x="36.5" y="-131.5" font-family="Helvetica,sans-Serif" font-size="10.00">+ tr210</text>
<polyline fill="none" stroke="black" points="28.5,-124.5 108.5,-124.5 "/>
<text text-anchor="middle" x="68.5" y="-112.5" font-family="Helvetica,sans-Serif" font-size="10.00"> </text>
</a>
</g>
</g>
<!-- Node2&#45;&gt;Node1 -->
<g id="edge1" class="edge">
<title>Node2&#45;&gt;Node1</title>
<path fill="none" stroke="#404040" d="M68.5,-105.4C68.5,-93.93 68.5,-81.33 68.5,-69.78"/>
<polygon fill="none" stroke="#404040" points="68.5,-69.75 64.5,-63.75 68.5,-57.75 72.5,-63.75 68.5,-69.75"/>
<text text-anchor="middle" x="90" y="-79" font-family="Helvetica,sans-Serif" font-size="10.00"> +timers</text>
</g>
<!-- Node3 -->
<g id="node3" class="node">
<title>Node3</title>
<g id="a_node3"><a xlink:title=" ">
<polygon fill="none" stroke="#bfbfbf" points="46,-342.5 46,-399.5 91,-399.5 91,-342.5 46,-342.5"/>
<text text-anchor="middle" x="68.5" y="-387.5" font-family="Helvetica,sans-Serif" font-size="10.00">Timer</text>
<polyline fill="none" stroke="#bfbfbf" points="46,-380.5 91,-380.5 "/>
<text text-anchor="middle" x="68.5" y="-368.5" font-family="Helvetica,sans-Serif" font-size="10.00"> </text>
<polyline fill="none" stroke="#bfbfbf" points="46,-361.5 91,-361.5 "/>
<text text-anchor="middle" x="68.5" y="-349.5" font-family="Helvetica,sans-Serif" font-size="10.00"> </text>
</a>
</g>
</g>
<!-- Node3&#45;&gt;Node2 -->
<g id="edge2" class="edge">
<title>Node3&#45;&gt;Node2</title>
<path fill="none" stroke="#404040" d="M68.5,-342.08C68.5,-305.85 68.5,-241.95 68.5,-196.96"/>
<polygon fill="none" stroke="#404040" points="68.5,-196.81 64.5,-190.81 68.5,-184.81 72.5,-190.81 68.5,-196.81"/>
<text text-anchor="middle" x="84" y="-316" font-family="Helvetica,sans-Serif" font-size="10.00"> +t1</text>
<text text-anchor="middle" x="84" y="-305" font-family="Helvetica,sans-Serif" font-size="10.00">+t100</text>
<text text-anchor="middle" x="84" y="-294" font-family="Helvetica,sans-Serif" font-size="10.00">+t101</text>
<text text-anchor="middle" x="84" y="-283" font-family="Helvetica,sans-Serif" font-size="10.00">+t102</text>
<text text-anchor="middle" x="84" y="-272" font-family="Helvetica,sans-Serif" font-size="10.00">+t103</text>
<text text-anchor="middle" x="84" y="-261" font-family="Helvetica,sans-Serif" font-size="10.00">+t104</text>
<text text-anchor="middle" x="84" y="-250" font-family="Helvetica,sans-Serif" font-size="10.00">+t105</text>
<text text-anchor="middle" x="84" y="-239" font-family="Helvetica,sans-Serif" font-size="10.00">+t106</text>
<text text-anchor="middle" x="84" y="-228" font-family="Helvetica,sans-Serif" font-size="10.00">+t107</text>
<text text-anchor="middle" x="84" y="-217" font-family="Helvetica,sans-Serif" font-size="10.00">+t108</text>
<text text-anchor="middle" x="84" y="-206" font-family="Helvetica,sans-Serif" font-size="10.00">...</text>
</g>
</g>
</svg>
