<?xml version="1.0" encoding="UTF-8" standalone="no"?>
<!DOCTYPE svg PUBLIC "-//W3C//DTD SVG 1.1//EN"
 "http://www.w3.org/Graphics/SVG/1.1/DTD/svg11.dtd">
<!-- Generated by graphviz version 2.43.0 (0)
 -->
<!-- Title: bit::TestResult Pages: 1 -->
<svg width="303pt" height="153pt"
 viewBox="0.00 0.00 302.50 153.00" xmlns="http://www.w3.org/2000/svg" xmlns:xlink="http://www.w3.org/1999/xlink">
<g id="graph0" class="graph" transform="scale(1 1) rotate(0) translate(4 149)">
<title>bit::TestResult</title>
<!-- Node1 -->
<g id="Node000001" class="node">
<title>Node1</title>
<g id="a_Node000001"><a xlink:title="This structure contains the data generated by each test case.">
<polygon fill="#999999" stroke="transparent" points="172.5,-49 92.5,-49 92.5,0 172.5,0 172.5,-49"/>
<text text-anchor="start" x="97.5" y="-36.5" font-family="Helvetica,sans-Serif" font-size="10.00">bit::TestResult</text>
<text text-anchor="start" x="130.5" y="-21.5" font-family="Helvetica,sans-Serif" font-size="10.00"> </text>
<text text-anchor="start" x="130.5" y="-6.5" font-family="Helvetica,sans-Serif" font-size="10.00"> </text>
<polygon fill="#666666" stroke="#666666" points="92.5,-31.5 92.5,-31.5 172.5,-31.5 172.5,-31.5 92.5,-31.5"/>
<polygon fill="#666666" stroke="#666666" points="92.5,-16.5 92.5,-16.5 172.5,-16.5 172.5,-16.5 92.5,-16.5"/>
<polygon fill="none" stroke="#666666" points="92.5,0 92.5,-49 172.5,-49 172.5,0 92.5,0"/>
</a>
</g>
</g>
<!-- Node2 -->
<g id="Node000002" class="node">
<title>Node2</title>
<g id="a_Node000002"><a xlink:title=" ">
<polygon fill="white" stroke="transparent" points="39,-145 0,-145 0,-96 39,-96 39,-145"/>
<text text-anchor="start" x="5.5" y="-132.5" font-family="Helvetica,sans-Serif" font-size="10.00">TestId</text>
<text text-anchor="start" x="18" y="-117.5" font-family="Helvetica,sans-Serif" font-size="10.00"> </text>
<text text-anchor="start" x="18" y="-102.5" font-family="Helvetica,sans-Serif" font-size="10.00"> </text>
<polygon fill="#666666" stroke="#666666" points="0.5,-127.5 0.5,-127.5 39.5,-127.5 39.5,-127.5 0.5,-127.5"/>
<polygon fill="#666666" stroke="#666666" points="0.5,-112.5 0.5,-112.5 39.5,-112.5 39.5,-112.5 0.5,-112.5"/>
<polygon fill="none" stroke="#666666" points="0,-96 0,-145 39,-145 39,-96 0,-96"/>
</a>
</g>
</g>
<!-- Node2&#45;&gt;Node1 -->
<g id="edge1_Node000001_Node000002" class="edge">
<title>Node2&#45;&gt;Node1</title>
<g id="a_edge1_Node000001_Node000002"><a xlink:title=" ">
<path fill="none" stroke="#63b8ff" d="M27.22,-95.94C31.39,-86.04 37.39,-75 45.5,-67 55.55,-57.1 68.41,-49.22 81.15,-43.1"/>
<polygon fill="none" stroke="#63b8ff" points="81.27,-43.05 85.13,-36.95 92.24,-38.17 88.38,-44.26 81.27,-43.05"/>
</a>
</g>
<text text-anchor="middle" x="68" y="-70" font-family="Helvetica,sans-Serif" font-size="10.00" fill="grey"> +test_id</text>
</g>
<!-- Node3 -->
<g id="Node000003" class="node">
<title>Node3</title>
<g id="a_Node000003"><a xlink:title=" ">
<polygon fill="white" stroke="transparent" points="125.5,-145 57.5,-145 57.5,-96 125.5,-96 125.5,-145"/>
<text text-anchor="start" x="62.5" y="-132.5" font-family="Helvetica,sans-Serif" font-size="10.00">TestGroupId</text>
<text text-anchor="start" x="89.5" y="-117.5" font-family="Helvetica,sans-Serif" font-size="10.00"> </text>
<text text-anchor="start" x="89.5" y="-102.5" font-family="Helvetica,sans-Serif" font-size="10.00"> </text>
<polygon fill="#666666" stroke="#666666" points="57.5,-127.5 57.5,-127.5 125.5,-127.5 125.5,-127.5 57.5,-127.5"/>
<polygon fill="#666666" stroke="#666666" points="57.5,-112.5 57.5,-112.5 125.5,-112.5 125.5,-112.5 57.5,-112.5"/>
<polygon fill="none" stroke="#666666" points="57.5,-96 57.5,-145 125.5,-145 125.5,-96 57.5,-96"/>
</a>
</g>
</g>
<!-- Node3&#45;&gt;Node1 -->
<g id="edge2_Node000001_Node000003" class="edge">
<title>Node3&#45;&gt;Node1</title>
<g id="a_edge2_Node000001_Node000003"><a xlink:title=" ">
<path fill="none" stroke="#63b8ff" d="M91.9,-95.76C92.75,-86.48 94.62,-75.94 98.5,-67 99.66,-64.33 101.04,-61.7 102.57,-59.13"/>
<polygon fill="none" stroke="#63b8ff" points="102.73,-58.9 102.84,-51.69 109.54,-49.01 109.43,-56.23 102.73,-58.9"/>
</a>
</g>
<text text-anchor="middle" x="125.5" y="-70" font-family="Helvetica,sans-Serif" font-size="10.00" fill="grey"> +group_id</text>
</g>
<!-- Node4 -->
<g id="Node000004" class="node">
<title>Node4</title>
<g id="a_Node000004"><a xlink:title=" ">
<polygon fill="white" stroke="transparent" points="205,-145 144,-145 144,-96 205,-96 205,-145"/>
<text text-anchor="start" x="149.5" y="-132.5" font-family="Helvetica,sans-Serif" font-size="10.00">TestStatus</text>
<text text-anchor="start" x="173" y="-117.5" font-family="Helvetica,sans-Serif" font-size="10.00"> </text>
<text text-anchor="start" x="173" y="-102.5" font-family="Helvetica,sans-Serif" font-size="10.00"> </text>
<polygon fill="#666666" stroke="#666666" points="144.5,-127.5 144.5,-127.5 205.5,-127.5 205.5,-127.5 144.5,-127.5"/>
<polygon fill="#666666" stroke="#666666" points="144.5,-112.5 144.5,-112.5 205.5,-112.5 205.5,-112.5 144.5,-112.5"/>
<polygon fill="none" stroke="#666666" points="144,-96 144,-145 205,-145 205,-96 144,-96"/>
</a>
</g>
</g>
<!-- Node4&#45;&gt;Node1 -->
<g id="edge3_Node000001_Node000004" class="edge">
<title>Node4&#45;&gt;Node1</title>
<g id="a_edge3_Node000001_Node000004"><a xlink:title=" ">
<path fill="none" stroke="#63b8ff" d="M164.9,-95.87C161.14,-86.79 156.72,-76.37 152.5,-67 151.47,-64.72 150.4,-62.38 149.31,-60.03"/>
<polygon fill="none" stroke="#63b8ff" points="149.27,-59.95 143.09,-56.24 144.14,-49.1 150.32,-52.81 149.27,-59.95"/>
</a>
</g>
<text text-anchor="middle" x="177.5" y="-70" font-family="Helvetica,sans-Serif" font-size="10.00" fill="grey"> +status</text>
</g>
<!-- Node5 -->
<g id="Node000005" class="node">
<title>Node5</title>
<g id="a_Node000005"><a xlink:title=" ">
<polygon fill="white" stroke="transparent" points="261.5,-145 223.5,-145 223.5,-96 261.5,-96 261.5,-145"/>
<text text-anchor="start" x="228.5" y="-132.5" font-family="Helvetica,sans-Serif" font-size="10.00">string</text>
<text text-anchor="start" x="240.5" y="-117.5" font-family="Helvetica,sans-Serif" font-size="10.00"> </text>
<text text-anchor="start" x="240.5" y="-102.5" font-family="Helvetica,sans-Serif" font-size="10.00"> </text>
<polygon fill="#666666" stroke="#666666" points="223.5,-127.5 223.5,-127.5 261.5,-127.5 261.5,-127.5 223.5,-127.5"/>
<polygon fill="#666666" stroke="#666666" points="223.5,-112.5 223.5,-112.5 261.5,-112.5 261.5,-112.5 223.5,-112.5"/>
<polygon fill="none" stroke="#666666" points="223.5,-96 223.5,-145 261.5,-145 261.5,-96 223.5,-96"/>
</a>
</g>
</g>
<!-- Node5&#45;&gt;Node1 -->
<g id="edge4_Node000001_Node000005" class="edge">
<title>Node5&#45;&gt;Node1</title>
<g id="a_edge4_Node000001_Node000005"><a xlink:title=" ">
<path fill="none" stroke="#63b8ff" d="M227.5,-95.93C220.62,-86.25 211.91,-75.38 202.5,-67 196.68,-61.82 190.13,-56.95 183.42,-52.49"/>
<polygon fill="none" stroke="#63b8ff" points="182.99,-52.22 175.79,-52.42 172.83,-45.84 180.04,-45.65 182.99,-52.22"/>
</a>
</g>
<text text-anchor="middle" x="253.5" y="-70" font-family="Helvetica,sans-Serif" font-size="10.00" fill="grey"> +failure_reason</text>
</g>
</g>
</svg>
