<?xml version="1.0" encoding="UTF-8" standalone="no"?>
<!DOCTYPE svg PUBLIC "-//W3C//DTD SVG 1.1//EN"
 "http://www.w3.org/Graphics/SVG/1.1/DTD/svg11.dtd">
<!-- Generated by graphviz version 2.43.0 (0)
 -->
<!-- Title: data::ErrorFrameItem Pages: 1 -->
<svg width="388pt" height="392pt"
 viewBox="0.00 0.00 388.00 392.00" xmlns="http://www.w3.org/2000/svg" xmlns:xlink="http://www.w3.org/1999/xlink">
<g id="graph0" class="graph" transform="scale(1 1) rotate(0) translate(4 388)">
<title>data::ErrorFrameItem</title>
<!-- Node1 -->
<g id="node1" class="node">
<title>Node1</title>
<g id="a_node1"><a xlink:title="A struct to store information about an error in the error frame.">
<polygon fill="#bfbfbf" stroke="black" points="175.5,-0.5 175.5,-57.5 296.5,-57.5 296.5,-0.5 175.5,-0.5"/>
<text text-anchor="middle" x="236" y="-45.5" font-family="Helvetica,sans-Serif" font-size="10.00">data::ErrorFrameItem</text>
<polyline fill="none" stroke="black" points="175.5,-38.5 296.5,-38.5 "/>
<text text-anchor="middle" x="236" y="-26.5" font-family="Helvetica,sans-Serif" font-size="10.00"> </text>
<polyline fill="none" stroke="black" points="175.5,-19.5 296.5,-19.5 "/>
<text text-anchor="middle" x="236" y="-7.5" font-family="Helvetica,sans-Serif" font-size="10.00"> </text>
</a>
</g>
</g>
<!-- Node2 -->
<g id="node2" class="node">
<title>Node2</title>
<g id="a_node2"><a xlink:title=" ">
<polygon fill="none" stroke="#bfbfbf" points="0,-326.5 0,-383.5 66,-383.5 66,-326.5 0,-326.5"/>
<text text-anchor="middle" x="33" y="-371.5" font-family="Helvetica,sans-Serif" font-size="10.00">TimePoint</text>
<polyline fill="none" stroke="#bfbfbf" points="0,-364.5 66,-364.5 "/>
<text text-anchor="middle" x="33" y="-352.5" font-family="Helvetica,sans-Serif" font-size="10.00"> </text>
<polyline fill="none" stroke="#bfbfbf" points="0,-345.5 66,-345.5 "/>
<text text-anchor="middle" x="33" y="-333.5" font-family="Helvetica,sans-Serif" font-size="10.00"> </text>
</a>
</g>
</g>
<!-- Node2&#45;&gt;Node1 -->
<g id="edge1" class="edge">
<title>Node2&#45;&gt;Node1</title>
<path fill="none" stroke="#404040" d="M27.42,-326.46C23.12,-298.61 20.13,-254.95 35,-221 64.76,-153.08 131.48,-97.74 179.91,-64.44"/>
<polygon fill="none" stroke="#404040" points="180,-64.38 182.74,-57.71 189.95,-57.67 187.21,-64.34 180,-64.38"/>
<text text-anchor="middle" x="94.5" y="-195" font-family="Helvetica,sans-Serif" font-size="10.00"> +first_reported</text>
<text text-anchor="middle" x="94.5" y="-184" font-family="Helvetica,sans-Serif" font-size="10.00">+last_reported</text>
</g>
<!-- Node4 -->
<g id="node4" class="node">
<title>Node4</title>
<g id="a_node4"><a xlink:href="structdata_1_1BaseStreamPacket.html" target="_top" xlink:title=" ">
<polygon fill="none" stroke="black" points="44.5,-221.5 44.5,-278.5 179.5,-278.5 179.5,-221.5 44.5,-221.5"/>
<text text-anchor="middle" x="112" y="-266.5" font-family="Helvetica,sans-Serif" font-size="10.00">data::BaseStreamPacket</text>
<polyline fill="none" stroke="black" points="44.5,-259.5 179.5,-259.5 "/>
<text text-anchor="middle" x="112" y="-247.5" font-family="Helvetica,sans-Serif" font-size="10.00"> </text>
<polyline fill="none" stroke="black" points="44.5,-240.5 179.5,-240.5 "/>
<text text-anchor="start" x="52.5" y="-228.5" font-family="Helvetica,sans-Serif" font-size="10.00">+ resetTime()</text>
</a>
</g>
</g>
<!-- Node2&#45;&gt;Node4 -->
<g id="edge4" class="edge">
<title>Node2&#45;&gt;Node4</title>
<path fill="none" stroke="#404040" d="M36.91,-326.29C39.27,-316.41 43.02,-305.61 49,-297 51.43,-293.5 54.21,-290.17 57.23,-287.01"/>
<polygon fill="none" stroke="#404040" points="57.46,-286.79 59.11,-279.77 66.23,-278.6 64.58,-285.62 57.46,-286.79"/>
<text text-anchor="middle" x="87" y="-300" font-family="Helvetica,sans-Serif" font-size="10.00"> +created_time</text>
</g>
<!-- Node3 -->
<g id="node3" class="node">
<title>Node3</title>
<g id="a_node3"><a xlink:href="structdata_1_1LogPacket.html" target="_top" xlink:title=" ">
<polygon fill="none" stroke="black" points="189.5,-105.5 189.5,-162.5 282.5,-162.5 282.5,-105.5 189.5,-105.5"/>
<text text-anchor="middle" x="236" y="-150.5" font-family="Helvetica,sans-Serif" font-size="10.00">data::LogPacket</text>
<polyline fill="none" stroke="black" points="189.5,-143.5 282.5,-143.5 "/>
<text text-anchor="middle" x="236" y="-131.5" font-family="Helvetica,sans-Serif" font-size="10.00"> </text>
<polyline fill="none" stroke="black" points="189.5,-124.5 282.5,-124.5 "/>
<text text-anchor="middle" x="236" y="-112.5" font-family="Helvetica,sans-Serif" font-size="10.00"> </text>
</a>
</g>
</g>
<!-- Node3&#45;&gt;Node1 -->
<g id="edge2" class="edge">
<title>Node3&#45;&gt;Node1</title>
<path fill="none" stroke="#404040" d="M236,-105.4C236,-94.55 236,-81.87 236,-70.05"/>
<polygon fill="none" stroke="#404040" points="236,-69.68 232,-63.68 236,-57.68 240,-63.68 236,-69.68"/>
<text text-anchor="middle" x="258" y="-79" font-family="Helvetica,sans-Serif" font-size="10.00"> +packet</text>
</g>
<!-- Node4&#45;&gt;Node3 -->
<g id="edge3" class="edge">
<title>Node4&#45;&gt;Node3</title>
<path fill="none" stroke="midnightblue" d="M149.52,-214.51C167.55,-197.93 188.87,-178.33 205.83,-162.74"/>
<polygon fill="none" stroke="midnightblue" points="147.01,-212.06 142.02,-221.4 151.75,-217.21 147.01,-212.06"/>
</g>
<!-- Node5 -->
<g id="node5" class="node">
<title>Node5</title>
<g id="a_node5"><a xlink:title=" ">
<polygon fill="none" stroke="#bfbfbf" points="108,-326.5 108,-383.5 188,-383.5 188,-326.5 108,-326.5"/>
<text text-anchor="middle" x="148" y="-371.5" font-family="Helvetica,sans-Serif" font-size="10.00">Identification</text>
<polyline fill="none" stroke="#bfbfbf" points="108,-364.5 188,-364.5 "/>
<text text-anchor="middle" x="148" y="-352.5" font-family="Helvetica,sans-Serif" font-size="10.00"> </text>
<polyline fill="none" stroke="#bfbfbf" points="108,-345.5 188,-345.5 "/>
<text text-anchor="middle" x="148" y="-333.5" font-family="Helvetica,sans-Serif" font-size="10.00"> </text>
</a>
</g>
</g>
<!-- Node5&#45;&gt;Node4 -->
<g id="edge5" class="edge">
<title>Node5&#45;&gt;Node4</title>
<path fill="none" stroke="#404040" d="M138.35,-326.4C134.48,-315.31 129.94,-302.33 125.73,-290.3"/>
<polygon fill="none" stroke="#404040" points="125.63,-290.01 119.88,-285.66 121.67,-278.68 127.43,-283.02 125.63,-290.01"/>
<text text-anchor="middle" x="154" y="-300" font-family="Helvetica,sans-Serif" font-size="10.00"> +source</text>
</g>
<!-- Node6 -->
<g id="node6" class="node">
<title>Node6</title>
<g id="a_node6"><a xlink:title=" ">
<polygon fill="none" stroke="#bfbfbf" points="282,-326.5 282,-383.5 326,-383.5 326,-326.5 282,-326.5"/>
<text text-anchor="middle" x="304" y="-371.5" font-family="Helvetica,sans-Serif" font-size="10.00">string</text>
<polyline fill="none" stroke="#bfbfbf" points="282,-364.5 326,-364.5 "/>
<text text-anchor="middle" x="304" y="-352.5" font-family="Helvetica,sans-Serif" font-size="10.00"> </text>
<polyline fill="none" stroke="#bfbfbf" points="282,-345.5 326,-345.5 "/>
<text text-anchor="middle" x="304" y="-333.5" font-family="Helvetica,sans-Serif" font-size="10.00"> </text>
</a>
</g>
</g>
<!-- Node6&#45;&gt;Node3 -->
<g id="edge8" class="edge">
<title>Node6&#45;&gt;Node3</title>
<path fill="none" stroke="#404040" d="M323.55,-326.21C331.92,-312.64 340.74,-295.68 345,-279 351.38,-254.02 351.88,-245.84 345,-221 339.47,-201.02 335.98,-195.33 321,-181 318.27,-178.39 306.94,-171.92 293.41,-164.64"/>
<polygon fill="none" stroke="#404040" points="293.32,-164.59 286.15,-165.31 282.73,-158.96 289.91,-158.24 293.32,-164.59"/>
<text text-anchor="middle" x="364.5" y="-247.5" font-family="Helvetica,sans-Serif" font-size="10.00"> +info</text>
</g>
<!-- Node6&#45;&gt;Node4 -->
<g id="edge6" class="edge">
<title>Node6&#45;&gt;Node4</title>
<path fill="none" stroke="#404040" d="M281.98,-342.18C255.89,-328.19 211.3,-304.27 174.34,-284.44"/>
<polygon fill="none" stroke="#404040" points="174.22,-284.38 167.04,-285.07 163.65,-278.71 170.82,-278.02 174.22,-284.38"/>
<text text-anchor="middle" x="269.5" y="-300" font-family="Helvetica,sans-Serif" font-size="10.00"> +secondary_identifier</text>
</g>
<!-- Node7 -->
<g id="node7" class="node">
<title>Node7</title>
<g id="a_node7"><a xlink:title=" ">
<polygon fill="none" stroke="#bfbfbf" points="197.5,-221.5 197.5,-278.5 274.5,-278.5 274.5,-221.5 197.5,-221.5"/>
<text text-anchor="middle" x="236" y="-266.5" font-family="Helvetica,sans-Serif" font-size="10.00">DiagnosticId</text>
<polyline fill="none" stroke="#bfbfbf" points="197.5,-259.5 274.5,-259.5 "/>
<text text-anchor="middle" x="236" y="-247.5" font-family="Helvetica,sans-Serif" font-size="10.00"> </text>
<polyline fill="none" stroke="#bfbfbf" points="197.5,-240.5 274.5,-240.5 "/>
<text text-anchor="middle" x="236" y="-228.5" font-family="Helvetica,sans-Serif" font-size="10.00"> </text>
</a>
</g>
</g>
<!-- Node7&#45;&gt;Node3 -->
<g id="edge7" class="edge">
<title>Node7&#45;&gt;Node3</title>
<path fill="none" stroke="#404040" d="M236,-221.4C236,-207.5 236,-190.39 236,-175.07"/>
<polygon fill="none" stroke="#404040" points="236,-174.74 232,-168.74 236,-162.74 240,-168.74 236,-174.74"/>
<text text-anchor="middle" x="246.5" y="-189.5" font-family="Helvetica,sans-Serif" font-size="10.00"> +id</text>
</g>
<!-- Node8 -->
<g id="node8" class="node">
<title>Node8</title>
<g id="a_node8"><a xlink:title=" ">
<polygon fill="none" stroke="#bfbfbf" points="292.5,-221.5 292.5,-278.5 335.5,-278.5 335.5,-221.5 292.5,-221.5"/>
<text text-anchor="middle" x="314" y="-266.5" font-family="Helvetica,sans-Serif" font-size="10.00">Level</text>
<polyline fill="none" stroke="#bfbfbf" points="292.5,-259.5 335.5,-259.5 "/>
<text text-anchor="middle" x="314" y="-247.5" font-family="Helvetica,sans-Serif" font-size="10.00"> </text>
<polyline fill="none" stroke="#bfbfbf" points="292.5,-240.5 335.5,-240.5 "/>
<text text-anchor="middle" x="314" y="-228.5" font-family="Helvetica,sans-Serif" font-size="10.00"> </text>
</a>
</g>
</g>
<!-- Node8&#45;&gt;Node3 -->
<g id="edge9" class="edge">
<title>Node8&#45;&gt;Node3</title>
<path fill="none" stroke="#404040" d="M295.12,-221.4C285.13,-206.81 272.72,-188.67 261.86,-172.79"/>
<polygon fill="none" stroke="#404040" points="261.75,-172.64 255.06,-169.95 254.98,-162.74 261.67,-165.43 261.75,-172.64"/>
<text text-anchor="middle" x="299" y="-189.5" font-family="Helvetica,sans-Serif" font-size="10.00"> +level</text>
</g>
<!-- Node9 -->
<g id="node9" class="node">
<title>Node9</title>
<g id="a_node9"><a xlink:title=" ">
<polygon fill="none" stroke="#bfbfbf" points="300.5,-105.5 300.5,-162.5 329.5,-162.5 329.5,-105.5 300.5,-105.5"/>
<text text-anchor="middle" x="315" y="-150.5" font-family="Helvetica,sans-Serif" font-size="10.00">int</text>
<polyline fill="none" stroke="#bfbfbf" points="300.5,-143.5 329.5,-143.5 "/>
<text text-anchor="middle" x="315" y="-131.5" font-family="Helvetica,sans-Serif" font-size="10.00"> </text>
<polyline fill="none" stroke="#bfbfbf" points="300.5,-124.5 329.5,-124.5 "/>
<text text-anchor="middle" x="315" y="-112.5" font-family="Helvetica,sans-Serif" font-size="10.00"> </text>
</a>
</g>
</g>
<!-- Node9&#45;&gt;Node1 -->
<g id="edge10" class="edge">
<title>Node9&#45;&gt;Node1</title>
<path fill="none" stroke="#404040" d="M302.11,-105.27C297.06,-95.61 290.84,-84.95 284,-76 281.58,-72.84 278.94,-69.69 276.19,-66.61"/>
<polygon fill="none" stroke="#404040" points="275.94,-66.35 268.91,-64.75 267.68,-57.65 274.71,-59.24 275.94,-66.35"/>
<text text-anchor="middle" x="326" y="-79" font-family="Helvetica,sans-Serif" font-size="10.00"> +occurrences</text>
</g>
</g>
</svg>
