<?xml version="1.0" encoding="UTF-8" standalone="no"?>
<!DOCTYPE svg PUBLIC "-//W3C//DTD SVG 1.1//EN"
 "http://www.w3.org/Graphics/SVG/1.1/DTD/svg11.dtd">
<!-- Generated by graphviz version 2.43.0 (0)
 -->
<!-- Title: cfg::AdcConfig::fromJson Pages: 1 -->
<svg width="770pt" height="78pt"
 viewBox="0.00 0.00 770.00 77.50" xmlns="http://www.w3.org/2000/svg" xmlns:xlink="http://www.w3.org/1999/xlink">
<g id="graph0" class="graph" transform="scale(1 1) rotate(0) translate(4 73.5)">
<title>cfg::AdcConfig::fromJson</title>
<!-- Node1 -->
<g id="node1" class="node">
<title>Node1</title>
<g id="a_node1"><a xlink:title=" ">
<polygon fill="#bfbfbf" stroke="black" points="626,-22.5 626,-41.5 762,-41.5 762,-22.5 626,-22.5"/>
<text text-anchor="middle" x="694" y="-29.5" font-family="Helvetica,sans-Serif" font-size="10.00">cfg::AdcConfig::fromJson</text>
</a>
</g>
</g>
<!-- Node2 -->
<g id="node2" class="node">
<title>Node2</title>
<g id="a_node2"><a xlink:href="group__ServerModule.html#a493ddf0161bba462a169e510c5215990" target="_top" xlink:title="A special handler for updating ADC mapping settings.">
<polygon fill="none" stroke="black" points="432.5,-39 432.5,-69 578.5,-69 578.5,-39 432.5,-39"/>
<text text-anchor="start" x="440.5" y="-57" font-family="Helvetica,sans-Serif" font-size="10.00">RequestRouter::handleAdc</text>
<text text-anchor="middle" x="505.5" y="-46" font-family="Helvetica,sans-Serif" font-size="10.00">MappingSettingUpdate</text>
</a>
</g>
</g>
<!-- Node1&#45;&gt;Node2 -->
<g id="edge1" class="edge">
<title>Node1&#45;&gt;Node2</title>
<path fill="none" stroke="midnightblue" d="M615.73,-41.11C603.45,-42.56 590.8,-44.06 578.65,-45.49"/>
<polygon fill="midnightblue" stroke="midnightblue" points="616.41,-44.56 625.93,-39.91 615.59,-37.61 616.41,-44.56"/>
</g>
<!-- Node5 -->
<g id="node5" class="node">
<title>Node5</title>
<g id="a_node5"><a xlink:href="classcfg_1_1AdcMappings.html#a45d9c766a012ea127e8612d262e720ac" target="_top" xlink:title=" ">
<polygon fill="none" stroke="black" points="421,-0.5 421,-19.5 590,-19.5 590,-0.5 421,-0.5"/>
<text text-anchor="middle" x="505.5" y="-7.5" font-family="Helvetica,sans-Serif" font-size="10.00">cfg::AdcMappings::setFromJson</text>
</a>
</g>
</g>
<!-- Node1&#45;&gt;Node5 -->
<g id="edge4" class="edge">
<title>Node1&#45;&gt;Node5</title>
<path fill="none" stroke="midnightblue" d="M615.82,-22.9C606.4,-21.78 596.76,-20.65 587.29,-19.53"/>
<polygon fill="midnightblue" stroke="midnightblue" points="615.59,-26.39 625.93,-24.09 616.41,-19.44 615.59,-26.39"/>
</g>
<!-- Node3 -->
<g id="node3" class="node">
<title>Node3</title>
<g id="a_node3"><a xlink:href="group__ServerModule.html#a1d58bc2e5fc57191959bc60a89b61ec5" target="_top" xlink:title="This function handles a setting SET request. It will attempt to set the configuration with the value ...">
<polygon fill="none" stroke="black" points="207,-44.5 207,-63.5 385,-63.5 385,-44.5 207,-44.5"/>
<text text-anchor="middle" x="296" y="-51.5" font-family="Helvetica,sans-Serif" font-size="10.00">RequestRouter::handleSettingSet</text>
</a>
</g>
</g>
<!-- Node2&#45;&gt;Node3 -->
<g id="edge2" class="edge">
<title>Node2&#45;&gt;Node3</title>
<path fill="none" stroke="midnightblue" d="M422.11,-54C409.95,-54 397.38,-54 385.1,-54"/>
<polygon fill="midnightblue" stroke="midnightblue" points="422.22,-57.5 432.22,-54 422.22,-50.5 422.22,-57.5"/>
</g>
<!-- Node4 -->
<g id="node4" class="node">
<title>Node4</title>
<g id="a_node4"><a xlink:href="group__ServerModule.html#ad77e0ae3d2cd0daba1388e7d7ffa1393" target="_top" xlink:title="This function is responsible for parsing a request and routing it to the right place.">
<polygon fill="none" stroke="black" points="0,-44.5 0,-63.5 171,-63.5 171,-44.5 0,-44.5"/>
<text text-anchor="middle" x="85.5" y="-51.5" font-family="Helvetica,sans-Serif" font-size="10.00">RequestRouter::handleMessage</text>
</a>
</g>
</g>
<!-- Node3&#45;&gt;Node4 -->
<g id="edge3" class="edge">
<title>Node3&#45;&gt;Node4</title>
<path fill="none" stroke="midnightblue" d="M196.61,-54C188.15,-54 179.65,-54 171.31,-54"/>
<polygon fill="midnightblue" stroke="midnightblue" points="196.88,-57.5 206.88,-54 196.88,-50.5 196.88,-57.5"/>
</g>
</g>
</svg>
