<?xml version="1.0" encoding="UTF-8" standalone="no"?>
<!DOCTYPE svg PUBLIC "-//W3C//DTD SVG 1.1//EN"
 "http://www.w3.org/Graphics/SVG/1.1/DTD/svg11.dtd">
<!-- Generated by graphviz version 2.43.0 (0)
 -->
<!-- Title: to_string.cpp Pages: 1 -->
<svg width="971pt" height="330pt"
 viewBox="0.00 0.00 970.90 330.00" xmlns="http://www.w3.org/2000/svg" xmlns:xlink="http://www.w3.org/1999/xlink">
<g id="graph0" class="graph" transform="scale(1 1) rotate(0) translate(4 326)">
<title>to_string.cpp</title>
<!-- Node1 -->
<g id="node1" class="node">
<title>Node1</title>
<g id="a_node1"><a xlink:title="Generic to_string functions for a variety of types.">
<polygon fill="#bfbfbf" stroke="black" points="254,-302.5 254,-321.5 334,-321.5 334,-302.5 254,-302.5"/>
<text text-anchor="middle" x="294" y="-309.5" font-family="Helvetica,sans-Serif" font-size="10.00">to_string.cpp</text>
</a>
</g>
</g>
<!-- Node2 -->
<g id="node2" class="node">
<title>Node2</title>
<g id="a_node2"><a xlink:href="to__string_8hpp.html" target="_top" xlink:title="Generic to_string functions for a variety of types.">
<polygon fill="none" stroke="black" points="198,-241 198,-260 278,-260 278,-241 198,-241"/>
<text text-anchor="middle" x="238" y="-248" font-family="Helvetica,sans-Serif" font-size="10.00">to_string.hpp</text>
</a>
</g>
</g>
<!-- Node1&#45;&gt;Node2 -->
<g id="edge1" class="edge">
<title>Node1&#45;&gt;Node2</title>
<path fill="none" stroke="midnightblue" d="M285.98,-302.48C277.41,-293.37 263.64,-278.74 253.04,-267.48"/>
<polygon fill="midnightblue" stroke="midnightblue" points="255.41,-264.89 246.01,-260.01 250.31,-269.69 255.41,-264.89"/>
</g>
<!-- Node13 -->
<g id="node13" class="node">
<title>Node13</title>
<g id="a_node13"><a xlink:href="node_8hpp.html" target="_top" xlink:title="Contains structures that are used to identify components of the flight system.">
<polygon fill="none" stroke="black" points="0,-56.5 0,-75.5 62,-75.5 62,-56.5 0,-56.5"/>
<text text-anchor="middle" x="31" y="-63.5" font-family="Helvetica,sans-Serif" font-size="10.00">node.hpp</text>
</a>
</g>
</g>
<!-- Node1&#45;&gt;Node13 -->
<g id="edge25" class="edge">
<title>Node1&#45;&gt;Node13</title>
<path fill="none" stroke="midnightblue" d="M266.22,-302.39C244.15,-294.8 213.11,-282.39 189,-266 125.33,-222.7 111.23,-206.03 67,-143 54.33,-124.94 44.07,-101.72 37.79,-85.72"/>
<polygon fill="midnightblue" stroke="midnightblue" points="40.91,-84.07 34.1,-75.95 34.36,-86.55 40.91,-84.07"/>
</g>
<!-- Node19 -->
<g id="node19" class="node">
<title>Node19</title>
<g id="a_node19"><a xlink:title=" ">
<polygon fill="none" stroke="#bfbfbf" points="296.5,-235.5 296.5,-265.5 403.5,-265.5 403.5,-235.5 296.5,-235.5"/>
<text text-anchor="start" x="304.5" y="-253.5" font-family="Helvetica,sans-Serif" font-size="10.00">BoosterSeat/string</text>
<text text-anchor="middle" x="350" y="-242.5" font-family="Helvetica,sans-Serif" font-size="10.00">_formatting.hpp</text>
</a>
</g>
</g>
<!-- Node1&#45;&gt;Node19 -->
<g id="edge26" class="edge">
<title>Node1&#45;&gt;Node19</title>
<path fill="none" stroke="midnightblue" d="M302.02,-302.48C309.25,-294.79 320.19,-283.17 329.8,-272.96"/>
<polygon fill="midnightblue" stroke="midnightblue" points="332.5,-275.2 336.8,-265.52 327.4,-270.41 332.5,-275.2"/>
</g>
<!-- Node20 -->
<g id="node20" class="node">
<title>Node20</title>
<g id="a_node20"><a xlink:title=" ">
<polygon fill="none" stroke="#bfbfbf" points="422,-241 422,-260 544,-260 544,-241 422,-241"/>
<text text-anchor="middle" x="483" y="-248" font-family="Helvetica,sans-Serif" font-size="10.00">BoosterSeat/time.hpp</text>
</a>
</g>
</g>
<!-- Node1&#45;&gt;Node20 -->
<g id="edge27" class="edge">
<title>Node1&#45;&gt;Node20</title>
<path fill="none" stroke="midnightblue" d="M321.08,-302.48C353.92,-292.14 409.43,-274.66 446.15,-263.1"/>
<polygon fill="midnightblue" stroke="midnightblue" points="447.48,-266.35 455.97,-260.01 445.38,-259.67 447.48,-266.35"/>
</g>
<!-- Node3 -->
<g id="node3" class="node">
<title>Node3</title>
<g id="a_node3"><a xlink:href="streams_8hpp.html" target="_top" xlink:title="The header file for the data streams.">
<polygon fill="none" stroke="black" points="329.5,-179.5 329.5,-198.5 406.5,-198.5 406.5,-179.5 329.5,-179.5"/>
<text text-anchor="middle" x="368" y="-186.5" font-family="Helvetica,sans-Serif" font-size="10.00">streams.hpp</text>
</a>
</g>
</g>
<!-- Node2&#45;&gt;Node3 -->
<g id="edge2" class="edge">
<title>Node2&#45;&gt;Node3</title>
<path fill="none" stroke="midnightblue" d="M256.63,-240.98C278.44,-230.99 314.8,-214.35 340.02,-202.81"/>
<polygon fill="midnightblue" stroke="midnightblue" points="341.77,-205.85 349.41,-198.51 338.86,-199.49 341.77,-205.85"/>
</g>
<!-- Node4 -->
<g id="node4" class="node">
<title>Node4</title>
<g id="a_node4"><a xlink:title=" ">
<polygon fill="none" stroke="#bfbfbf" points="815,-118 815,-137 865,-137 865,-118 815,-118"/>
<text text-anchor="middle" x="840" y="-125" font-family="Helvetica,sans-Serif" font-size="10.00">atomic</text>
</a>
</g>
</g>
<!-- Node3&#45;&gt;Node4 -->
<g id="edge3" class="edge">
<title>Node3&#45;&gt;Node4</title>
<path fill="none" stroke="midnightblue" d="M406.76,-187.89C484,-186.84 662.04,-180.18 806,-143 808.36,-142.39 810.77,-141.64 813.16,-140.81"/>
<polygon fill="midnightblue" stroke="midnightblue" points="814.68,-143.97 822.71,-137.06 812.12,-137.46 814.68,-143.97"/>
</g>
<!-- Node5 -->
<g id="node5" class="node">
<title>Node5</title>
<g id="a_node5"><a xlink:title=" ">
<polygon fill="none" stroke="#bfbfbf" points="883,-118 883,-137 943,-137 943,-118 883,-118"/>
<text text-anchor="middle" x="913" y="-125" font-family="Helvetica,sans-Serif" font-size="10.00">iostream</text>
</a>
</g>
</g>
<!-- Node3&#45;&gt;Node5 -->
<g id="edge4" class="edge">
<title>Node3&#45;&gt;Node5</title>
<path fill="none" stroke="midnightblue" d="M406.63,-188.06C492.01,-187.43 702.81,-181.7 874,-143 877.07,-142.31 880.23,-141.43 883.35,-140.45"/>
<polygon fill="midnightblue" stroke="midnightblue" points="884.77,-143.66 893.07,-137.08 882.48,-137.05 884.77,-143.66"/>
</g>
<!-- Node6 -->
<g id="node6" class="node">
<title>Node6</title>
<g id="a_node6"><a xlink:title=" ">
<polygon fill="none" stroke="#bfbfbf" points="270,-56.5 270,-75.5 318,-75.5 318,-56.5 270,-56.5"/>
<text text-anchor="middle" x="294" y="-63.5" font-family="Helvetica,sans-Serif" font-size="10.00">mutex</text>
</a>
</g>
</g>
<!-- Node3&#45;&gt;Node6 -->
<g id="edge5" class="edge">
<title>Node3&#45;&gt;Node6</title>
<path fill="none" stroke="midnightblue" d="M350.39,-179.48C336.62,-171.86 318.15,-159.38 308,-143 297.31,-125.75 294.36,-102.34 293.74,-86.09"/>
<polygon fill="midnightblue" stroke="midnightblue" points="297.24,-85.66 293.63,-75.7 290.24,-85.74 297.24,-85.66"/>
</g>
<!-- Node7 -->
<g id="node7" class="node">
<title>Node7</title>
<g id="a_node7"><a xlink:title=" ">
<polygon fill="none" stroke="#bfbfbf" points="80.5,-56.5 80.5,-75.5 127.5,-75.5 127.5,-56.5 80.5,-56.5"/>
<text text-anchor="middle" x="104" y="-63.5" font-family="Helvetica,sans-Serif" font-size="10.00">queue</text>
</a>
</g>
</g>
<!-- Node3&#45;&gt;Node7 -->
<g id="edge6" class="edge">
<title>Node3&#45;&gt;Node7</title>
<path fill="none" stroke="midnightblue" d="M329.27,-184.88C271.17,-179.49 165.15,-166.66 136,-143 118.49,-128.79 110.42,-103.3 106.79,-85.78"/>
<polygon fill="midnightblue" stroke="midnightblue" points="110.18,-84.87 105,-75.63 103.29,-86.08 110.18,-84.87"/>
</g>
<!-- Node8 -->
<g id="node8" class="node">
<title>Node8</title>
<g id="a_node8"><a xlink:title=" ">
<polygon fill="none" stroke="#bfbfbf" points="336,-56.5 336,-75.5 380,-75.5 380,-56.5 336,-56.5"/>
<text text-anchor="middle" x="358" y="-63.5" font-family="Helvetica,sans-Serif" font-size="10.00">string</text>
</a>
</g>
</g>
<!-- Node3&#45;&gt;Node8 -->
<g id="edge7" class="edge">
<title>Node3&#45;&gt;Node8</title>
<path fill="none" stroke="midnightblue" d="M352.22,-179.47C339.8,-171.77 323.39,-159.18 316,-143 310.27,-130.47 310.95,-124.82 316,-112 320.51,-100.55 329.47,-90.29 337.95,-82.47"/>
<polygon fill="midnightblue" stroke="midnightblue" points="340.47,-84.93 345.79,-75.76 335.91,-79.61 340.47,-84.93"/>
</g>
<!-- Node9 -->
<g id="node9" class="node">
<title>Node9</title>
<g id="a_node9"><a xlink:title=" ">
<polygon fill="none" stroke="#bfbfbf" points="686.5,-56.5 686.5,-75.5 811.5,-75.5 811.5,-56.5 686.5,-56.5"/>
<text text-anchor="middle" x="749" y="-63.5" font-family="Helvetica,sans-Serif" font-size="10.00">BoosterSeat/clock.hpp</text>
</a>
</g>
</g>
<!-- Node3&#45;&gt;Node9 -->
<g id="edge8" class="edge">
<title>Node3&#45;&gt;Node9</title>
<path fill="none" stroke="midnightblue" d="M406.58,-187.99C530.88,-187.56 914.99,-182.97 952,-143 994.55,-97.05 895.99,-78.72 821.8,-71.52"/>
<polygon fill="midnightblue" stroke="midnightblue" points="821.79,-68.01 811.51,-70.58 821.15,-74.98 821.79,-68.01"/>
</g>
<!-- Node10 -->
<g id="node10" class="node">
<title>Node10</title>
<g id="a_node10"><a xlink:title=" ">
<polygon fill="none" stroke="#bfbfbf" points="429,-118 429,-137 577,-137 577,-118 429,-118"/>
<text text-anchor="middle" x="503" y="-125" font-family="Helvetica,sans-Serif" font-size="10.00">BoosterSeat/exception.hpp</text>
</a>
</g>
</g>
<!-- Node3&#45;&gt;Node10 -->
<g id="edge9" class="edge">
<title>Node3&#45;&gt;Node10</title>
<path fill="none" stroke="midnightblue" d="M387.34,-179.48C410.1,-169.45 448.09,-152.7 474.29,-141.15"/>
<polygon fill="midnightblue" stroke="midnightblue" points="475.95,-144.24 483.69,-137.01 473.13,-137.84 475.95,-144.24"/>
</g>
<!-- Node11 -->
<g id="node11" class="node">
<title>Node11</title>
<g id="a_node11"><a xlink:href="command_8hpp.html" target="_top" xlink:title="The command/queue system for the flight system.">
<polygon fill="none" stroke="black" points="145,-118 145,-137 231,-137 231,-118 145,-118"/>
<text text-anchor="middle" x="188" y="-125" font-family="Helvetica,sans-Serif" font-size="10.00">command.hpp</text>
</a>
</g>
</g>
<!-- Node3&#45;&gt;Node11 -->
<g id="edge10" class="edge">
<title>Node3&#45;&gt;Node11</title>
<path fill="none" stroke="midnightblue" d="M342.21,-179.48C311.07,-169.18 258.52,-151.81 223.55,-140.25"/>
<polygon fill="midnightblue" stroke="midnightblue" points="224.34,-136.82 213.74,-137.01 222.14,-143.47 224.34,-136.82"/>
</g>
<!-- Node3&#45;&gt;Node13 -->
<g id="edge19" class="edge">
<title>Node3&#45;&gt;Node13</title>
<path fill="none" stroke="midnightblue" d="M329.25,-188.07C276.97,-186.68 182.2,-178.86 111,-143 83.03,-128.91 58.15,-101.82 43.83,-84.08"/>
<polygon fill="midnightblue" stroke="midnightblue" points="46.26,-81.5 37.34,-75.77 40.74,-85.81 46.26,-81.5"/>
</g>
<!-- Node16 -->
<g id="node16" class="node">
<title>Node16</title>
<g id="a_node16"><a xlink:href="data__ids_8hpp.html" target="_top" xlink:title=" ">
<polygon fill="none" stroke="black" points="595.5,-118 595.5,-137 674.5,-137 674.5,-118 595.5,-118"/>
<text text-anchor="middle" x="635" y="-125" font-family="Helvetica,sans-Serif" font-size="10.00">data_ids.hpp</text>
</a>
</g>
</g>
<!-- Node3&#45;&gt;Node16 -->
<g id="edge17" class="edge">
<title>Node3&#45;&gt;Node16</title>
<path fill="none" stroke="midnightblue" d="M406.81,-181.01C450.59,-172.89 523.77,-158.6 586,-143 589.86,-142.03 593.87,-140.96 597.86,-139.85"/>
<polygon fill="midnightblue" stroke="midnightblue" points="599,-143.16 607.64,-137.04 597.06,-136.43 599,-143.16"/>
</g>
<!-- Node17 -->
<g id="node17" class="node">
<title>Node17</title>
<g id="a_node17"><a xlink:href="giraffe__diagnostic__ids_8hpp.html" target="_top" xlink:title=" ">
<polygon fill="none" stroke="black" points="693,-112.5 693,-142.5 797,-142.5 797,-112.5 693,-112.5"/>
<text text-anchor="start" x="701" y="-130.5" font-family="Helvetica,sans-Serif" font-size="10.00">giraffe_diagnostic</text>
<text text-anchor="middle" x="745" y="-119.5" font-family="Helvetica,sans-Serif" font-size="10.00">_ids.hpp</text>
</a>
</g>
</g>
<!-- Node3&#45;&gt;Node17 -->
<g id="edge18" class="edge">
<title>Node3&#45;&gt;Node17</title>
<path fill="none" stroke="midnightblue" d="M406.62,-183.66C464.54,-176.9 577.53,-162.73 682.97,-143.09"/>
<polygon fill="midnightblue" stroke="midnightblue" points="683.65,-146.53 692.82,-141.24 682.35,-139.65 683.65,-146.53"/>
</g>
<!-- Node18 -->
<g id="node18" class="node">
<title>Node18</title>
<g id="a_node18"><a xlink:href="positional_8hpp.html" target="_top" xlink:title="Positional data for the flight system (gps/imu data)">
<polygon fill="none" stroke="black" points="325,-118 325,-137 411,-137 411,-118 325,-118"/>
<text text-anchor="middle" x="368" y="-125" font-family="Helvetica,sans-Serif" font-size="10.00">positional.hpp</text>
</a>
</g>
</g>
<!-- Node3&#45;&gt;Node18 -->
<g id="edge20" class="edge">
<title>Node3&#45;&gt;Node18</title>
<path fill="none" stroke="midnightblue" d="M368,-179.48C368,-171.08 368,-157.98 368,-147.16"/>
<polygon fill="midnightblue" stroke="midnightblue" points="371.5,-147.01 368,-137.01 364.5,-147.01 371.5,-147.01"/>
</g>
<!-- Node11&#45;&gt;Node6 -->
<g id="edge11" class="edge">
<title>Node11&#45;&gt;Node6</title>
<path fill="none" stroke="midnightblue" d="M203.19,-117.98C220.66,-108.17 249.58,-91.93 270.08,-80.42"/>
<polygon fill="midnightblue" stroke="midnightblue" points="271.83,-83.46 278.84,-75.51 268.41,-77.35 271.83,-83.46"/>
</g>
<!-- Node11&#45;&gt;Node7 -->
<g id="edge12" class="edge">
<title>Node11&#45;&gt;Node7</title>
<path fill="none" stroke="midnightblue" d="M175.96,-117.98C162.49,-108.43 140.43,-92.81 124.28,-81.37"/>
<polygon fill="midnightblue" stroke="midnightblue" points="126.2,-78.43 116.01,-75.51 122.15,-84.15 126.2,-78.43"/>
</g>
<!-- Node12 -->
<g id="node12" class="node">
<title>Node12</title>
<g id="a_node12"><a xlink:href="command__ids_8hpp.html" target="_top" xlink:title=" ">
<polygon fill="none" stroke="black" points="146,-56.5 146,-75.5 252,-75.5 252,-56.5 146,-56.5"/>
<text text-anchor="middle" x="199" y="-63.5" font-family="Helvetica,sans-Serif" font-size="10.00">command_ids.hpp</text>
</a>
</g>
</g>
<!-- Node11&#45;&gt;Node12 -->
<g id="edge13" class="edge">
<title>Node11&#45;&gt;Node12</title>
<path fill="none" stroke="midnightblue" d="M189.58,-117.98C191.13,-109.58 193.55,-96.48 195.55,-85.66"/>
<polygon fill="midnightblue" stroke="midnightblue" points="199.05,-85.98 197.43,-75.51 192.17,-84.71 199.05,-85.98"/>
</g>
<!-- Node11&#45;&gt;Node13 -->
<g id="edge14" class="edge">
<title>Node11&#45;&gt;Node13</title>
<path fill="none" stroke="midnightblue" d="M165.51,-117.98C138.69,-107.81 93.68,-90.76 63.19,-79.2"/>
<polygon fill="midnightblue" stroke="midnightblue" points="64.04,-75.78 53.45,-75.51 61.56,-82.33 64.04,-75.78"/>
</g>
<!-- Node14 -->
<g id="node14" class="node">
<title>Node14</title>
<g id="a_node14"><a xlink:title=" ">
<polygon fill="none" stroke="#bfbfbf" points="332,-0.5 332,-19.5 382,-19.5 382,-0.5 332,-0.5"/>
<text text-anchor="middle" x="357" y="-7.5" font-family="Helvetica,sans-Serif" font-size="10.00">cstdint</text>
</a>
</g>
</g>
<!-- Node13&#45;&gt;Node14 -->
<g id="edge15" class="edge">
<title>Node13&#45;&gt;Node14</title>
<path fill="none" stroke="midnightblue" d="M62.4,-57.73C65.3,-57.12 68.2,-56.53 71,-56 160.79,-38.85 267.36,-23.36 321.54,-15.82"/>
<polygon fill="midnightblue" stroke="midnightblue" points="322.23,-19.26 331.65,-14.42 321.27,-12.32 322.23,-19.26"/>
</g>
<!-- Node15 -->
<g id="node15" class="node">
<title>Node15</title>
<g id="a_node15"><a xlink:title=" ">
<polygon fill="none" stroke="#bfbfbf" points="188,-0.5 188,-19.5 226,-19.5 226,-0.5 188,-0.5"/>
<text text-anchor="middle" x="207" y="-7.5" font-family="Helvetica,sans-Serif" font-size="10.00">map</text>
</a>
</g>
</g>
<!-- Node13&#45;&gt;Node15 -->
<g id="edge16" class="edge">
<title>Node13&#45;&gt;Node15</title>
<path fill="none" stroke="midnightblue" d="M58.89,-56.44C91.42,-46.46 144.96,-30.03 177.98,-19.91"/>
<polygon fill="midnightblue" stroke="midnightblue" points="179.39,-23.13 187.92,-16.85 177.33,-16.44 179.39,-23.13"/>
</g>
<!-- Node18&#45;&gt;Node8 -->
<g id="edge23" class="edge">
<title>Node18&#45;&gt;Node8</title>
<path fill="none" stroke="midnightblue" d="M366.57,-117.98C365.16,-109.58 362.95,-96.48 361.14,-85.66"/>
<polygon fill="midnightblue" stroke="midnightblue" points="364.54,-84.79 359.43,-75.51 357.64,-85.95 364.54,-84.79"/>
</g>
<!-- Node18&#45;&gt;Node9 -->
<g id="edge24" class="edge">
<title>Node18&#45;&gt;Node9</title>
<path fill="none" stroke="midnightblue" d="M395.9,-117.97C403.65,-115.8 412.11,-113.63 420,-112 507.39,-93.93 609.4,-81.26 676.38,-74.06"/>
<polygon fill="midnightblue" stroke="midnightblue" points="676.84,-77.53 686.42,-73 676.1,-70.57 676.84,-77.53"/>
</g>
<!-- Node18&#45;&gt;Node14 -->
<g id="edge21" class="edge">
<title>Node18&#45;&gt;Node14</title>
<path fill="none" stroke="midnightblue" d="M383.19,-117.84C403.3,-105.17 434.81,-80.45 422,-56 414.72,-42.11 400.99,-31.65 388.02,-24.33"/>
<polygon fill="midnightblue" stroke="midnightblue" points="389.3,-21.05 378.81,-19.55 386.07,-27.27 389.3,-21.05"/>
</g>
<!-- Node18&#45;&gt;Node15 -->
<g id="edge22" class="edge">
<title>Node18&#45;&gt;Node15</title>
<path fill="none" stroke="midnightblue" d="M375.14,-117.76C385.92,-103.45 403.64,-74.7 389,-56 370.34,-32.16 282.71,-19.21 236.19,-13.91"/>
<polygon fill="midnightblue" stroke="midnightblue" points="236.44,-10.41 226.12,-12.81 235.68,-17.37 236.44,-10.41"/>
</g>
</g>
</svg>
