<?xml version="1.0" encoding="UTF-8" standalone="no"?>
<!DOCTYPE svg PUBLIC "-//W3C//DTD SVG 1.1//EN"
 "http://www.w3.org/Graphics/SVG/1.1/DTD/svg11.dtd">
<!-- Generated by graphviz version 2.43.0 (0)
 -->
<!-- Title: to_json.hpp Pages: 1 -->
<svg width="1064pt" height="319pt"
 viewBox="0.00 0.00 1063.65 319.00" xmlns="http://www.w3.org/2000/svg" xmlns:xlink="http://www.w3.org/1999/xlink">
<g id="graph0" class="graph" transform="scale(1 1) rotate(0) translate(4 315)">
<title>to_json.hpp</title>
<!-- Node1 -->
<g id="node1" class="node">
<title>Node1</title>
<g id="a_node1"><a xlink:title="Utility functions for converting data to JSON.">
<polygon fill="#bfbfbf" stroke="black" points="772.15,-291.5 772.15,-310.5 845.15,-310.5 845.15,-291.5 772.15,-291.5"/>
<text text-anchor="middle" x="808.65" y="-298.5" font-family="Helvetica,sans-Serif" font-size="10.00">to_json.hpp</text>
</a>
</g>
</g>
<!-- Node2 -->
<g id="node2" class="node">
<title>Node2</title>
<g id="a_node2"><a xlink:href="positional_8hpp.html" target="_top" xlink:title="Positional data for the flight system (gps/imu data)">
<polygon fill="none" stroke="black" points="765.65,-118 765.65,-137 851.65,-137 851.65,-118 765.65,-118"/>
<text text-anchor="middle" x="808.65" y="-125" font-family="Helvetica,sans-Serif" font-size="10.00">positional.hpp</text>
</a>
</g>
</g>
<!-- Node1&#45;&gt;Node2 -->
<g id="edge1" class="edge">
<title>Node1&#45;&gt;Node2</title>
<path fill="none" stroke="midnightblue" d="M808.65,-291.26C808.65,-264.65 808.65,-184.21 808.65,-147.34"/>
<polygon fill="midnightblue" stroke="midnightblue" points="812.15,-147.02 808.65,-137.02 805.15,-147.02 812.15,-147.02"/>
</g>
<!-- Node7 -->
<g id="node7" class="node">
<title>Node7</title>
<g id="a_node7"><a xlink:href="to__string_8hpp.html" target="_top" xlink:title="Generic to_string functions for a variety of types.">
<polygon fill="none" stroke="black" points="570.65,-235.5 570.65,-254.5 650.65,-254.5 650.65,-235.5 570.65,-235.5"/>
<text text-anchor="middle" x="610.65" y="-242.5" font-family="Helvetica,sans-Serif" font-size="10.00">to_string.hpp</text>
</a>
</g>
</g>
<!-- Node1&#45;&gt;Node7 -->
<g id="edge6" class="edge">
<title>Node1&#45;&gt;Node7</title>
<path fill="none" stroke="midnightblue" d="M777.27,-291.44C743.39,-282.2 689.25,-267.44 651.93,-257.26"/>
<polygon fill="midnightblue" stroke="midnightblue" points="652.44,-253.77 641.88,-254.52 650.6,-260.52 652.44,-253.77"/>
</g>
<!-- Node19 -->
<g id="node19" class="node">
<title>Node19</title>
<g id="a_node19"><a xlink:href="json_8hpp.html" target="_top" xlink:title="Simple wrapper around nlohmann/json.hpp to provide a common interface.">
<polygon fill="none" stroke="black" points="888.65,-235.5 888.65,-254.5 946.65,-254.5 946.65,-235.5 888.65,-235.5"/>
<text text-anchor="middle" x="917.65" y="-242.5" font-family="Helvetica,sans-Serif" font-size="10.00">json.hpp</text>
</a>
</g>
</g>
<!-- Node1&#45;&gt;Node19 -->
<g id="edge26" class="edge">
<title>Node1&#45;&gt;Node19</title>
<path fill="none" stroke="midnightblue" d="M826.16,-291.32C843.72,-282.62 870.98,-269.12 891.18,-259.11"/>
<polygon fill="midnightblue" stroke="midnightblue" points="892.77,-262.23 900.18,-254.65 889.66,-255.96 892.77,-262.23"/>
</g>
<!-- Node3 -->
<g id="node3" class="node">
<title>Node3</title>
<g id="a_node3"><a xlink:title=" ">
<polygon fill="none" stroke="#bfbfbf" points="592.65,-0.5 592.65,-19.5 642.65,-19.5 642.65,-0.5 592.65,-0.5"/>
<text text-anchor="middle" x="617.65" y="-7.5" font-family="Helvetica,sans-Serif" font-size="10.00">cstdint</text>
</a>
</g>
</g>
<!-- Node2&#45;&gt;Node3 -->
<g id="edge2" class="edge">
<title>Node2&#45;&gt;Node3</title>
<path fill="none" stroke="midnightblue" d="M794.29,-117.82C761.44,-97.95 680.57,-49.05 640.67,-24.92"/>
<polygon fill="midnightblue" stroke="midnightblue" points="642.28,-21.8 631.91,-19.62 638.66,-27.79 642.28,-21.8"/>
</g>
<!-- Node4 -->
<g id="node4" class="node">
<title>Node4</title>
<g id="a_node4"><a xlink:title=" ">
<polygon fill="none" stroke="#bfbfbf" points="727.65,-0.5 727.65,-19.5 765.65,-19.5 765.65,-0.5 727.65,-0.5"/>
<text text-anchor="middle" x="746.65" y="-7.5" font-family="Helvetica,sans-Serif" font-size="10.00">map</text>
</a>
</g>
</g>
<!-- Node2&#45;&gt;Node4 -->
<g id="edge3" class="edge">
<title>Node2&#45;&gt;Node4</title>
<path fill="none" stroke="midnightblue" d="M803.99,-117.82C793.85,-98.92 769.6,-53.75 756.11,-28.62"/>
<polygon fill="midnightblue" stroke="midnightblue" points="759.18,-26.94 751.36,-19.78 753.01,-30.25 759.18,-26.94"/>
</g>
<!-- Node5 -->
<g id="node5" class="node">
<title>Node5</title>
<g id="a_node5"><a xlink:title=" ">
<polygon fill="none" stroke="#bfbfbf" points="857.65,-56.5 857.65,-75.5 901.65,-75.5 901.65,-56.5 857.65,-56.5"/>
<text text-anchor="middle" x="879.65" y="-63.5" font-family="Helvetica,sans-Serif" font-size="10.00">string</text>
</a>
</g>
</g>
<!-- Node2&#45;&gt;Node5 -->
<g id="edge4" class="edge">
<title>Node2&#45;&gt;Node5</title>
<path fill="none" stroke="midnightblue" d="M818.82,-117.98C830,-108.61 848.17,-93.38 861.74,-82.01"/>
<polygon fill="midnightblue" stroke="midnightblue" points="864.08,-84.61 869.49,-75.51 859.58,-79.25 864.08,-84.61"/>
</g>
<!-- Node6 -->
<g id="node6" class="node">
<title>Node6</title>
<g id="a_node6"><a xlink:title=" ">
<polygon fill="none" stroke="#bfbfbf" points="540.15,-56.5 540.15,-75.5 665.15,-75.5 665.15,-56.5 540.15,-56.5"/>
<text text-anchor="middle" x="602.65" y="-63.5" font-family="Helvetica,sans-Serif" font-size="10.00">BoosterSeat/clock.hpp</text>
</a>
</g>
</g>
<!-- Node2&#45;&gt;Node6 -->
<g id="edge5" class="edge">
<title>Node2&#45;&gt;Node6</title>
<path fill="none" stroke="midnightblue" d="M779.13,-117.98C743.03,-107.55 681.8,-89.86 641.79,-78.31"/>
<polygon fill="midnightblue" stroke="midnightblue" points="642.69,-74.92 632.11,-75.51 640.74,-81.65 642.69,-74.92"/>
</g>
<!-- Node8 -->
<g id="node8" class="node">
<title>Node8</title>
<g id="a_node8"><a xlink:href="streams_8hpp.html" target="_top" xlink:title="The header file for the data streams.">
<polygon fill="none" stroke="black" points="441.15,-179.5 441.15,-198.5 518.15,-198.5 518.15,-179.5 441.15,-179.5"/>
<text text-anchor="middle" x="479.65" y="-186.5" font-family="Helvetica,sans-Serif" font-size="10.00">streams.hpp</text>
</a>
</g>
</g>
<!-- Node7&#45;&gt;Node8 -->
<g id="edge7" class="edge">
<title>Node7&#45;&gt;Node8</title>
<path fill="none" stroke="midnightblue" d="M589.89,-235.44C568.33,-226.56 534.39,-212.56 509.85,-202.45"/>
<polygon fill="midnightblue" stroke="midnightblue" points="510.89,-199.09 500.31,-198.52 508.22,-205.56 510.89,-199.09"/>
</g>
<!-- Node8&#45;&gt;Node2 -->
<g id="edge25" class="edge">
<title>Node8&#45;&gt;Node2</title>
<path fill="none" stroke="midnightblue" d="M518.44,-183.08C572.25,-175.94 672.43,-161.52 756.65,-143 761.09,-142.02 765.72,-140.89 770.31,-139.71"/>
<polygon fill="midnightblue" stroke="midnightblue" points="771.44,-143.03 780.18,-137.05 769.62,-136.27 771.44,-143.03"/>
</g>
<!-- Node8&#45;&gt;Node5 -->
<g id="edge12" class="edge">
<title>Node8&#45;&gt;Node5</title>
<path fill="none" stroke="midnightblue" d="M518.21,-188.79C604.69,-189.74 810.46,-187.17 860.65,-143 876.73,-128.85 880.21,-103.34 880.52,-85.81"/>
<polygon fill="midnightblue" stroke="midnightblue" points="884.01,-85.58 880.36,-75.64 877.01,-85.69 884.01,-85.58"/>
</g>
<!-- Node8&#45;&gt;Node6 -->
<g id="edge13" class="edge">
<title>Node8&#45;&gt;Node6</title>
<path fill="none" stroke="midnightblue" d="M484.83,-179.3C494,-164.37 514.23,-133.43 536.65,-112 549.15,-100.05 565.14,-89.06 578.25,-80.93"/>
<polygon fill="midnightblue" stroke="midnightblue" points="580.43,-83.71 587.19,-75.55 576.82,-77.71 580.43,-83.71"/>
</g>
<!-- Node9 -->
<g id="node9" class="node">
<title>Node9</title>
<g id="a_node9"><a xlink:title=" ">
<polygon fill="none" stroke="#bfbfbf" points="15.65,-118 15.65,-137 65.65,-137 65.65,-118 15.65,-118"/>
<text text-anchor="middle" x="40.65" y="-125" font-family="Helvetica,sans-Serif" font-size="10.00">atomic</text>
</a>
</g>
</g>
<!-- Node8&#45;&gt;Node9 -->
<g id="edge8" class="edge">
<title>Node8&#45;&gt;Node9</title>
<path fill="none" stroke="midnightblue" d="M441,-187.44C368.15,-185.57 206.02,-177.51 74.65,-143 72.29,-142.38 69.89,-141.63 67.5,-140.79"/>
<polygon fill="midnightblue" stroke="midnightblue" points="68.54,-137.44 57.95,-137.03 65.97,-143.95 68.54,-137.44"/>
</g>
<!-- Node10 -->
<g id="node10" class="node">
<title>Node10</title>
<g id="a_node10"><a xlink:title=" ">
<polygon fill="none" stroke="#bfbfbf" points="83.65,-118 83.65,-137 143.65,-137 143.65,-118 83.65,-118"/>
<text text-anchor="middle" x="113.65" y="-125" font-family="Helvetica,sans-Serif" font-size="10.00">iostream</text>
</a>
</g>
</g>
<!-- Node8&#45;&gt;Node10 -->
<g id="edge9" class="edge">
<title>Node8&#45;&gt;Node10</title>
<path fill="none" stroke="midnightblue" d="M440.87,-185.43C379.1,-180.71 254.91,-168.71 152.65,-143 149.66,-142.25 146.59,-141.35 143.54,-140.36"/>
<polygon fill="midnightblue" stroke="midnightblue" points="144.62,-137.03 134.03,-137.03 142.31,-143.64 144.62,-137.03"/>
</g>
<!-- Node11 -->
<g id="node11" class="node">
<title>Node11</title>
<g id="a_node11"><a xlink:title=" ">
<polygon fill="none" stroke="#bfbfbf" points="12.65,-56.5 12.65,-75.5 60.65,-75.5 60.65,-56.5 12.65,-56.5"/>
<text text-anchor="middle" x="36.65" y="-63.5" font-family="Helvetica,sans-Serif" font-size="10.00">mutex</text>
</a>
</g>
</g>
<!-- Node8&#45;&gt;Node11 -->
<g id="edge10" class="edge">
<title>Node8&#45;&gt;Node11</title>
<path fill="none" stroke="midnightblue" d="M440.99,-187.24C333.27,-184.73 35.68,-174.93 6.65,-143 -8.79,-126.02 7.27,-100.15 21.18,-83.4"/>
<polygon fill="midnightblue" stroke="midnightblue" points="24.09,-85.39 28.08,-75.57 18.84,-80.76 24.09,-85.39"/>
</g>
<!-- Node12 -->
<g id="node12" class="node">
<title>Node12</title>
<g id="a_node12"><a xlink:title=" ">
<polygon fill="none" stroke="#bfbfbf" points="252.15,-56.5 252.15,-75.5 299.15,-75.5 299.15,-56.5 252.15,-56.5"/>
<text text-anchor="middle" x="275.65" y="-63.5" font-family="Helvetica,sans-Serif" font-size="10.00">queue</text>
</a>
</g>
</g>
<!-- Node8&#45;&gt;Node12 -->
<g id="edge11" class="edge">
<title>Node8&#45;&gt;Node12</title>
<path fill="none" stroke="midnightblue" d="M441.14,-183.35C393.18,-176.77 315.05,-163.27 294.65,-143 279.68,-128.12 275.87,-103.35 275.2,-86.15"/>
<polygon fill="midnightblue" stroke="midnightblue" points="278.7,-85.65 275.14,-75.67 271.7,-85.69 278.7,-85.65"/>
</g>
<!-- Node13 -->
<g id="node13" class="node">
<title>Node13</title>
<g id="a_node13"><a xlink:title=" ">
<polygon fill="none" stroke="#bfbfbf" points="303.65,-118 303.65,-137 451.65,-137 451.65,-118 303.65,-118"/>
<text text-anchor="middle" x="377.65" y="-125" font-family="Helvetica,sans-Serif" font-size="10.00">BoosterSeat/exception.hpp</text>
</a>
</g>
</g>
<!-- Node8&#45;&gt;Node13 -->
<g id="edge14" class="edge">
<title>Node8&#45;&gt;Node13</title>
<path fill="none" stroke="midnightblue" d="M465.03,-179.48C448.3,-169.71 420.64,-153.58 400.93,-142.08"/>
<polygon fill="midnightblue" stroke="midnightblue" points="402.64,-139.02 392.24,-137.01 399.11,-145.07 402.64,-139.02"/>
</g>
<!-- Node14 -->
<g id="node14" class="node">
<title>Node14</title>
<g id="a_node14"><a xlink:href="command_8hpp.html" target="_top" xlink:title="The command/queue system for the flight system.">
<polygon fill="none" stroke="black" points="161.65,-118 161.65,-137 247.65,-137 247.65,-118 161.65,-118"/>
<text text-anchor="middle" x="204.65" y="-125" font-family="Helvetica,sans-Serif" font-size="10.00">command.hpp</text>
</a>
</g>
</g>
<!-- Node8&#45;&gt;Node14 -->
<g id="edge15" class="edge">
<title>Node8&#45;&gt;Node14</title>
<path fill="none" stroke="midnightblue" d="M440.94,-180.56C397.27,-172.04 324.16,-157.4 261.65,-143 256.92,-141.91 251.99,-140.73 247.08,-139.52"/>
<polygon fill="midnightblue" stroke="midnightblue" points="247.69,-136.07 237.14,-137.04 245.99,-142.86 247.69,-136.07"/>
</g>
<!-- Node16 -->
<g id="node16" class="node">
<title>Node16</title>
<g id="a_node16"><a xlink:href="node_8hpp.html" target="_top" xlink:title="Contains structures that are used to identify components of the flight system.">
<polygon fill="none" stroke="black" points="453.65,-56.5 453.65,-75.5 515.65,-75.5 515.65,-56.5 453.65,-56.5"/>
<text text-anchor="middle" x="484.65" y="-63.5" font-family="Helvetica,sans-Serif" font-size="10.00">node.hpp</text>
</a>
</g>
</g>
<!-- Node8&#45;&gt;Node16 -->
<g id="edge24" class="edge">
<title>Node8&#45;&gt;Node16</title>
<path fill="none" stroke="midnightblue" d="M480.01,-179.3C480.81,-159.85 482.77,-112.49 483.87,-85.9"/>
<polygon fill="midnightblue" stroke="midnightblue" points="487.38,-85.76 484.29,-75.62 480.38,-85.47 487.38,-85.76"/>
</g>
<!-- Node17 -->
<g id="node17" class="node">
<title>Node17</title>
<g id="a_node17"><a xlink:href="data__ids_8hpp.html" target="_top" xlink:title=" ">
<polygon fill="none" stroke="black" points="546.15,-118 546.15,-137 625.15,-137 625.15,-118 546.15,-118"/>
<text text-anchor="middle" x="585.65" y="-125" font-family="Helvetica,sans-Serif" font-size="10.00">data_ids.hpp</text>
</a>
</g>
</g>
<!-- Node8&#45;&gt;Node17 -->
<g id="edge22" class="edge">
<title>Node8&#45;&gt;Node17</title>
<path fill="none" stroke="midnightblue" d="M494.84,-179.48C512.31,-169.67 541.23,-153.43 561.73,-141.92"/>
<polygon fill="midnightblue" stroke="midnightblue" points="563.48,-144.96 570.49,-137.01 560.06,-138.85 563.48,-144.96"/>
</g>
<!-- Node18 -->
<g id="node18" class="node">
<title>Node18</title>
<g id="a_node18"><a xlink:href="giraffe__diagnostic__ids_8hpp.html" target="_top" xlink:title=" ">
<polygon fill="none" stroke="black" points="643.65,-112.5 643.65,-142.5 747.65,-142.5 747.65,-112.5 643.65,-112.5"/>
<text text-anchor="start" x="651.65" y="-130.5" font-family="Helvetica,sans-Serif" font-size="10.00">giraffe_diagnostic</text>
<text text-anchor="middle" x="695.65" y="-119.5" font-family="Helvetica,sans-Serif" font-size="10.00">_ids.hpp</text>
</a>
</g>
</g>
<!-- Node8&#45;&gt;Node18 -->
<g id="edge23" class="edge">
<title>Node8&#45;&gt;Node18</title>
<path fill="none" stroke="midnightblue" d="M510.6,-179.48C542.93,-170.57 594.48,-156.37 634.97,-145.22"/>
<polygon fill="midnightblue" stroke="midnightblue" points="636.03,-148.55 644.74,-142.52 634.17,-141.8 636.03,-148.55"/>
</g>
<!-- Node14&#45;&gt;Node11 -->
<g id="edge16" class="edge">
<title>Node14&#45;&gt;Node11</title>
<path fill="none" stroke="midnightblue" d="M180.58,-117.98C151.64,-107.72 102.89,-90.46 70.25,-78.9"/>
<polygon fill="midnightblue" stroke="midnightblue" points="71.27,-75.55 60.67,-75.51 68.93,-82.15 71.27,-75.55"/>
</g>
<!-- Node14&#45;&gt;Node12 -->
<g id="edge17" class="edge">
<title>Node14&#45;&gt;Node12</title>
<path fill="none" stroke="midnightblue" d="M214.82,-117.98C226,-108.61 244.17,-93.38 257.74,-82.01"/>
<polygon fill="midnightblue" stroke="midnightblue" points="260.08,-84.61 265.49,-75.51 255.58,-79.25 260.08,-84.61"/>
</g>
<!-- Node15 -->
<g id="node15" class="node">
<title>Node15</title>
<g id="a_node15"><a xlink:href="command__ids_8hpp.html" target="_top" xlink:title=" ">
<polygon fill="none" stroke="black" points="127.65,-56.5 127.65,-75.5 233.65,-75.5 233.65,-56.5 127.65,-56.5"/>
<text text-anchor="middle" x="180.65" y="-63.5" font-family="Helvetica,sans-Serif" font-size="10.00">command_ids.hpp</text>
</a>
</g>
</g>
<!-- Node14&#45;&gt;Node15 -->
<g id="edge18" class="edge">
<title>Node14&#45;&gt;Node15</title>
<path fill="none" stroke="midnightblue" d="M201.21,-117.98C197.75,-109.4 192.32,-95.93 187.9,-84.98"/>
<polygon fill="midnightblue" stroke="midnightblue" points="191.07,-83.47 184.08,-75.51 184.58,-86.09 191.07,-83.47"/>
</g>
<!-- Node14&#45;&gt;Node16 -->
<g id="edge19" class="edge">
<title>Node14&#45;&gt;Node16</title>
<path fill="none" stroke="midnightblue" d="M244.77,-117.98C297.61,-106.75 390.08,-87.1 443.46,-75.75"/>
<polygon fill="midnightblue" stroke="midnightblue" points="444.21,-79.17 453.27,-73.67 442.76,-72.32 444.21,-79.17"/>
</g>
<!-- Node16&#45;&gt;Node3 -->
<g id="edge20" class="edge">
<title>Node16&#45;&gt;Node3</title>
<path fill="none" stroke="midnightblue" d="M505.72,-56.44C527.71,-47.52 562.38,-33.44 587.31,-23.32"/>
<polygon fill="midnightblue" stroke="midnightblue" points="588.72,-26.52 596.67,-19.52 586.09,-20.04 588.72,-26.52"/>
</g>
<!-- Node16&#45;&gt;Node4 -->
<g id="edge21" class="edge">
<title>Node16&#45;&gt;Node4</title>
<path fill="none" stroke="midnightblue" d="M515.73,-58.59C566.75,-48.08 667.55,-27.3 717.37,-17.04"/>
<polygon fill="midnightblue" stroke="midnightblue" points="718.38,-20.4 727.47,-14.95 716.97,-13.54 718.38,-20.4"/>
</g>
<!-- Node19&#45;&gt;Node5 -->
<g id="edge28" class="edge">
<title>Node19&#45;&gt;Node5</title>
<path fill="none" stroke="midnightblue" d="M915.82,-235.46C910.01,-208.43 891.94,-124.24 883.75,-86.11"/>
<polygon fill="midnightblue" stroke="midnightblue" points="887.07,-84.91 881.55,-75.87 880.23,-86.38 887.07,-84.91"/>
</g>
<!-- Node20 -->
<g id="node20" class="node">
<title>Node20</title>
<g id="a_node20"><a xlink:title=" ">
<polygon fill="none" stroke="#bfbfbf" points="945.65,-179.5 945.65,-198.5 1055.65,-198.5 1055.65,-179.5 945.65,-179.5"/>
<text text-anchor="middle" x="1000.65" y="-186.5" font-family="Helvetica,sans-Serif" font-size="10.00">nlohmann/json.hpp</text>
</a>
</g>
</g>
<!-- Node19&#45;&gt;Node20 -->
<g id="edge27" class="edge">
<title>Node19&#45;&gt;Node20</title>
<path fill="none" stroke="midnightblue" d="M930.98,-235.32C943.81,-226.98 963.43,-214.21 978.59,-204.35"/>
<polygon fill="midnightblue" stroke="midnightblue" points="980.87,-207.04 987.35,-198.65 977.06,-201.17 980.87,-207.04"/>
</g>
</g>
</svg>
