<?xml version="1.0" encoding="UTF-8" standalone="no"?>
<!DOCTYPE svg PUBLIC "-//W3C//DTD SVG 1.1//EN"
 "http://www.w3.org/Graphics/SVG/1.1/DTD/svg11.dtd">
<!-- Generated by graphviz version 2.43.0 (0)
 -->
<!-- Title: to_string.hpp Pages: 1 -->
<svg width="342pt" height="84pt"
 viewBox="0.00 0.00 342.00 84.00" xmlns="http://www.w3.org/2000/svg" xmlns:xlink="http://www.w3.org/1999/xlink">
<g id="graph0" class="graph" transform="scale(1 1) rotate(0) translate(4 80)">
<title>to_string.hpp</title>
<!-- Node1 -->
<g id="node1" class="node">
<title>Node1</title>
<g id="a_node1"><a xlink:title="Generic to_string functions for a variety of types.">
<polygon fill="#bfbfbf" stroke="black" points="145,-56.5 145,-75.5 225,-75.5 225,-56.5 145,-56.5"/>
<text text-anchor="middle" x="185" y="-63.5" font-family="Helvetica,sans-Serif" font-size="10.00">to_string.hpp</text>
</a>
</g>
</g>
<!-- Node2 -->
<g id="node2" class="node">
<title>Node2</title>
<g id="a_node2"><a xlink:href="data__formatting_8cpp.html" target="_top" xlink:title="Implementation of the DataFormatter class.">
<polygon fill="none" stroke="black" points="0,-0.5 0,-19.5 116,-19.5 116,-0.5 0,-0.5"/>
<text text-anchor="middle" x="58" y="-7.5" font-family="Helvetica,sans-Serif" font-size="10.00">data_formatting.cpp</text>
</a>
</g>
</g>
<!-- Node1&#45;&gt;Node2 -->
<g id="edge1" class="edge">
<title>Node1&#45;&gt;Node2</title>
<path fill="none" stroke="midnightblue" d="M155.61,-52.5C131.8,-42.38 98.89,-28.39 78.03,-19.52"/>
<polygon fill="midnightblue" stroke="midnightblue" points="154.3,-55.75 164.88,-56.44 157.04,-49.31 154.3,-55.75"/>
</g>
<!-- Node3 -->
<g id="node3" class="node">
<title>Node3</title>
<g id="a_node3"><a xlink:href="data__module_8cpp.html" target="_top" xlink:title=" ">
<polygon fill="none" stroke="black" points="134.5,-0.5 134.5,-19.5 235.5,-19.5 235.5,-0.5 134.5,-0.5"/>
<text text-anchor="middle" x="185" y="-7.5" font-family="Helvetica,sans-Serif" font-size="10.00">data_module.cpp</text>
</a>
</g>
</g>
<!-- Node1&#45;&gt;Node3 -->
<g id="edge2" class="edge">
<title>Node1&#45;&gt;Node3</title>
<path fill="none" stroke="midnightblue" d="M185,-45.8C185,-36.91 185,-26.78 185,-19.75"/>
<polygon fill="midnightblue" stroke="midnightblue" points="181.5,-46.08 185,-56.08 188.5,-46.08 181.5,-46.08"/>
</g>
<!-- Node4 -->
<g id="node4" class="node">
<title>Node4</title>
<g id="a_node4"><a xlink:href="to__string_8cpp.html" target="_top" xlink:title="Generic to_string functions for a variety of types.">
<polygon fill="none" stroke="black" points="254,-0.5 254,-19.5 334,-19.5 334,-0.5 254,-0.5"/>
<text text-anchor="middle" x="294" y="-7.5" font-family="Helvetica,sans-Serif" font-size="10.00">to_string.cpp</text>
</a>
</g>
</g>
<!-- Node1&#45;&gt;Node4 -->
<g id="edge3" class="edge">
<title>Node1&#45;&gt;Node4</title>
<path fill="none" stroke="midnightblue" d="M211.52,-51.86C231.73,-41.85 258.99,-28.35 276.53,-19.65"/>
<polygon fill="midnightblue" stroke="midnightblue" points="209.92,-48.75 202.51,-56.32 213.03,-55.02 209.92,-48.75"/>
</g>
</g>
</svg>
