<?xml version="1.0" encoding="UTF-8" standalone="no"?>
<!DOCTYPE svg PUBLIC "-//W3C//DTD SVG 1.1//EN"
 "http://www.w3.org/Graphics/SVG/1.1/DTD/svg11.dtd">
<!-- Generated by graphviz version 2.43.0 (0)
 -->
<!-- Title: transport_layer.cpp Pages: 1 -->
<svg width="1236pt" height="357pt"
 viewBox="0.00 0.00 1235.50 357.00" xmlns="http://www.w3.org/2000/svg" xmlns:xlink="http://www.w3.org/1999/xlink">
<g id="graph0" class="graph" transform="scale(1 1) rotate(0) translate(4 353)">
<title>transport_layer.cpp</title>
<!-- Node1 -->
<g id="Node000001" class="node">
<title>Node1</title>
<g id="a_Node000001"><a xlink:title="GDL Transport Layer Implementation.">
<polygon fill="#999999" stroke="#666666" points="504.5,-349 394.5,-349 394.5,-330 504.5,-330 504.5,-349"/>
<text text-anchor="middle" x="449.5" y="-337" font-family="Helvetica,sans-Serif" font-size="10.00">transport_layer.cpp</text>
</a>
</g>
</g>
<!-- Node2 -->
<g id="Node000002" class="node">
<title>Node2</title>
<g id="a_Node000002"><a xlink:href="gdl__constants_8hpp.html" target="_top" xlink:title="Constants for Giraffe Data Link.">
<polygon fill="white" stroke="#666666" points="105,-74 0,-74 0,-55 105,-55 105,-74"/>
<text text-anchor="middle" x="52.5" y="-62" font-family="Helvetica,sans-Serif" font-size="10.00">gdl_constants.hpp</text>
</a>
</g>
</g>
<!-- Node1&#45;&gt;Node2 -->
<g id="edge1_Node000001_Node000002" class="edge">
<title>Node1&#45;&gt;Node2</title>
<g id="a_edge1_Node000001_Node000002"><a xlink:title=" ">
<path fill="none" stroke="#63b8ff" d="M394.24,-334.8C329.36,-327.1 230.5,-303.42 230.5,-230.5 230.5,-230.5 230.5,-230.5 230.5,-173.5 230.5,-117.3 164.84,-89.53 113.28,-76.38"/>
<polygon fill="#63b8ff" stroke="#63b8ff" points="114.05,-72.97 103.51,-74.02 112.4,-79.77 114.05,-72.97"/>
</a>
</g>
</g>
<!-- Node5 -->
<g id="Node000005" class="node">
<title>Node5</title>
<g id="a_Node000005"><a xlink:href="gdl__message_8hpp.html" target="_top" xlink:title="Message and Message Queue for Giraffe Data Link.">
<polygon fill="white" stroke="#666666" points="538.5,-129 436.5,-129 436.5,-110 538.5,-110 538.5,-129"/>
<text text-anchor="middle" x="487.5" y="-117" font-family="Helvetica,sans-Serif" font-size="10.00">gdl_message.hpp</text>
</a>
</g>
</g>
<!-- Node1&#45;&gt;Node5 -->
<g id="edge4_Node000001_Node000005" class="edge">
<title>Node1&#45;&gt;Node5</title>
<g id="a_edge4_Node000001_Node000005"><a xlink:title=" ">
<path fill="none" stroke="#63b8ff" d="M450.99,-329.95C456.58,-297.88 476.4,-184.2 484.26,-139.12"/>
<polygon fill="#63b8ff" stroke="#63b8ff" points="487.71,-139.68 485.98,-129.22 480.81,-138.47 487.71,-139.68"/>
</a>
</g>
</g>
<!-- Node18 -->
<g id="Node000018" class="node">
<title>Node18</title>
<g id="a_Node000018"><a xlink:href="transport__layer_8hpp.html" target="_top" xlink:title=" ">
<polygon fill="white" stroke="#666666" points="777.5,-294 633.5,-294 633.5,-275 777.5,-275 777.5,-294"/>
<text text-anchor="middle" x="705.5" y="-282" font-family="Helvetica,sans-Serif" font-size="10.00">layers/transport_layer.hpp</text>
</a>
</g>
</g>
<!-- Node1&#45;&gt;Node18 -->
<g id="edge19_Node000001_Node000018" class="edge">
<title>Node1&#45;&gt;Node18</title>
<g id="a_edge19_Node000001_Node000018"><a xlink:title=" ">
<path fill="none" stroke="#63b8ff" d="M490.63,-329.98C535.1,-320.78 606.05,-306.09 654.15,-296.13"/>
<polygon fill="#63b8ff" stroke="#63b8ff" points="654.96,-299.54 664.05,-294.08 653.54,-292.68 654.96,-299.54"/>
</a>
</g>
</g>
<!-- Node3 -->
<g id="Node000003" class="node">
<title>Node3</title>
<g id="a_Node000003"><a xlink:title=" ">
<polygon fill="#e0e0e0" stroke="#999999" points="289.5,-19 239.5,-19 239.5,0 289.5,0 289.5,-19"/>
<text text-anchor="middle" x="264.5" y="-7" font-family="Helvetica,sans-Serif" font-size="10.00">cstdint</text>
</a>
</g>
</g>
<!-- Node2&#45;&gt;Node3 -->
<g id="edge2_Node000002_Node000003" class="edge">
<title>Node2&#45;&gt;Node3</title>
<g id="a_edge2_Node000002_Node000003"><a xlink:title=" ">
<path fill="none" stroke="#63b8ff" d="M86.56,-54.98C125.86,-45.16 190.14,-29.09 229.74,-19.19"/>
<polygon fill="#63b8ff" stroke="#63b8ff" points="230.63,-22.57 239.48,-16.75 228.93,-15.78 230.63,-22.57"/>
</a>
</g>
</g>
<!-- Node4 -->
<g id="Node000004" class="node">
<title>Node4</title>
<g id="a_Node000004"><a xlink:title=" ">
<polygon fill="#e0e0e0" stroke="#999999" points="69,-19 20,-19 20,0 69,0 69,-19"/>
<text text-anchor="middle" x="44.5" y="-7" font-family="Helvetica,sans-Serif" font-size="10.00">cstdlib</text>
</a>
</g>
</g>
<!-- Node2&#45;&gt;Node4 -->
<g id="edge3_Node000002_Node000004" class="edge">
<title>Node2&#45;&gt;Node4</title>
<g id="a_edge3_Node000002_Node000004"><a xlink:title=" ">
<path fill="none" stroke="#63b8ff" d="M51.18,-54.75C50.13,-47.8 48.63,-37.85 47.31,-29.13"/>
<polygon fill="#63b8ff" stroke="#63b8ff" points="50.75,-28.45 45.8,-19.09 43.83,-29.5 50.75,-28.45"/>
</a>
</g>
</g>
<!-- Node5&#45;&gt;Node2 -->
<g id="edge18_Node000005_Node000002" class="edge">
<title>Node5&#45;&gt;Node2</title>
<g id="a_edge18_Node000005_Node000002"><a xlink:title=" ">
<path fill="none" stroke="#63b8ff" d="M436.48,-112.7C366.58,-104.69 236.82,-89.59 115.47,-74.1"/>
<polygon fill="#63b8ff" stroke="#63b8ff" points="115.62,-70.59 105.26,-72.8 114.73,-77.54 115.62,-70.59"/>
</a>
</g>
</g>
<!-- Node5&#45;&gt;Node3 -->
<g id="edge5_Node000005_Node000003" class="edge">
<title>Node5&#45;&gt;Node3</title>
<g id="a_edge5_Node000005_Node000003"><a xlink:title=" ">
<path fill="none" stroke="#63b8ff" d="M436.3,-114.42C380.51,-108.86 296.28,-96.89 274.5,-74 263.33,-62.26 261.61,-43.41 262.22,-29.29"/>
<polygon fill="#63b8ff" stroke="#63b8ff" points="265.72,-29.47 263.07,-19.21 258.74,-28.88 265.72,-29.47"/>
</a>
</g>
</g>
<!-- Node6 -->
<g id="Node000006" class="node">
<title>Node6</title>
<g id="a_Node000006"><a xlink:title=" ">
<polygon fill="#e0e0e0" stroke="#999999" points="339.5,-74 283.5,-74 283.5,-55 339.5,-55 339.5,-74"/>
<text text-anchor="middle" x="311.5" y="-62" font-family="Helvetica,sans-Serif" font-size="10.00">iomanip</text>
</a>
</g>
</g>
<!-- Node5&#45;&gt;Node6 -->
<g id="edge6_Node000005_Node000006" class="edge">
<title>Node5&#45;&gt;Node6</title>
<g id="a_edge6_Node000005_Node000006"><a xlink:title=" ">
<path fill="none" stroke="#63b8ff" d="M459.22,-109.98C429.46,-101.02 382.43,-86.86 349.46,-76.93"/>
<polygon fill="#63b8ff" stroke="#63b8ff" points="350.29,-73.53 339.71,-73.99 348.27,-80.23 350.29,-73.53"/>
</a>
</g>
</g>
<!-- Node7 -->
<g id="Node000007" class="node">
<title>Node7</title>
<g id="a_Node000007"><a xlink:title=" ">
<polygon fill="#e0e0e0" stroke="#999999" points="919.5,-74 871.5,-74 871.5,-55 919.5,-55 919.5,-74"/>
<text text-anchor="middle" x="895.5" y="-62" font-family="Helvetica,sans-Serif" font-size="10.00">mutex</text>
</a>
</g>
</g>
<!-- Node5&#45;&gt;Node7 -->
<g id="edge7_Node000005_Node000007" class="edge">
<title>Node5&#45;&gt;Node7</title>
<g id="a_edge7_Node000005_Node000007"><a xlink:title=" ">
<path fill="none" stroke="#63b8ff" d="M538.78,-114.61C609.32,-108.77 740.38,-96.19 861.26,-73.99"/>
<polygon fill="#63b8ff" stroke="#63b8ff" points="862.24,-77.37 871.43,-72.1 860.96,-70.49 862.24,-77.37"/>
</a>
</g>
</g>
<!-- Node8 -->
<g id="Node000008" class="node">
<title>Node8</title>
<g id="a_Node000008"><a xlink:title=" ">
<polygon fill="#e0e0e0" stroke="#999999" points="405,-74 358,-74 358,-55 405,-55 405,-74"/>
<text text-anchor="middle" x="381.5" y="-62" font-family="Helvetica,sans-Serif" font-size="10.00">queue</text>
</a>
</g>
</g>
<!-- Node5&#45;&gt;Node8 -->
<g id="edge8_Node000005_Node000008" class="edge">
<title>Node5&#45;&gt;Node8</title>
<g id="a_edge8_Node000005_Node000008"><a xlink:title=" ">
<path fill="none" stroke="#63b8ff" d="M470.47,-109.98C453.57,-101.54 427.44,-88.47 407.86,-78.68"/>
<polygon fill="#63b8ff" stroke="#63b8ff" points="409.35,-75.51 398.84,-74.17 406.22,-81.77 409.35,-75.51"/>
</a>
</g>
</g>
<!-- Node9 -->
<g id="Node000009" class="node">
<title>Node9</title>
<g id="a_Node000009"><a xlink:title=" ">
<polygon fill="#e0e0e0" stroke="#999999" points="479.5,-74 423.5,-74 423.5,-55 479.5,-55 479.5,-74"/>
<text text-anchor="middle" x="451.5" y="-62" font-family="Helvetica,sans-Serif" font-size="10.00">sstream</text>
</a>
</g>
</g>
<!-- Node5&#45;&gt;Node9 -->
<g id="edge9_Node000005_Node000009" class="edge">
<title>Node5&#45;&gt;Node9</title>
<g id="a_edge9_Node000005_Node000009"><a xlink:title=" ">
<path fill="none" stroke="#63b8ff" d="M481.56,-109.75C476.52,-102.34 469.16,-91.5 462.99,-82.41"/>
<polygon fill="#63b8ff" stroke="#63b8ff" points="465.85,-80.39 457.33,-74.09 460.06,-84.33 465.85,-80.39"/>
</a>
</g>
</g>
<!-- Node10 -->
<g id="Node000010" class="node">
<title>Node10</title>
<g id="a_Node000010"><a xlink:title=" ">
<polygon fill="#e0e0e0" stroke="#999999" points="981.5,-74 937.5,-74 937.5,-55 981.5,-55 981.5,-74"/>
<text text-anchor="middle" x="959.5" y="-62" font-family="Helvetica,sans-Serif" font-size="10.00">string</text>
</a>
</g>
</g>
<!-- Node5&#45;&gt;Node10 -->
<g id="edge10_Node000005_Node000010" class="edge">
<title>Node5&#45;&gt;Node10</title>
<g id="a_edge10_Node000005_Node000010"><a xlink:title=" ">
<path fill="none" stroke="#63b8ff" d="M538.82,-116.11C619.62,-111.73 781.44,-100.51 927.23,-73.93"/>
<polygon fill="#63b8ff" stroke="#63b8ff" points="928.06,-77.34 937.25,-72.08 926.78,-70.46 928.06,-77.34"/>
</a>
</g>
</g>
<!-- Node11 -->
<g id="Node000011" class="node">
<title>Node11</title>
<g id="a_Node000011"><a xlink:title=" ">
<polygon fill="#e0e0e0" stroke="#999999" points="549,-74 498,-74 498,-55 549,-55 549,-74"/>
<text text-anchor="middle" x="523.5" y="-62" font-family="Helvetica,sans-Serif" font-size="10.00">variant</text>
</a>
</g>
</g>
<!-- Node5&#45;&gt;Node11 -->
<g id="edge11_Node000005_Node000011" class="edge">
<title>Node5&#45;&gt;Node11</title>
<g id="a_edge11_Node000005_Node000011"><a xlink:title=" ">
<path fill="none" stroke="#63b8ff" d="M493.44,-109.75C498.48,-102.34 505.84,-91.5 512.01,-82.41"/>
<polygon fill="#63b8ff" stroke="#63b8ff" points="514.94,-84.33 517.67,-74.09 509.15,-80.39 514.94,-84.33"/>
</a>
</g>
</g>
<!-- Node12 -->
<g id="Node000012" class="node">
<title>Node12</title>
<g id="a_Node000012"><a xlink:title=" ">
<polygon fill="#e0e0e0" stroke="#999999" points="677.5,-74 567.5,-74 567.5,-55 677.5,-55 677.5,-74"/>
<text text-anchor="middle" x="622.5" y="-62" font-family="Helvetica,sans-Serif" font-size="10.00">nlohmann/json.hpp</text>
</a>
</g>
</g>
<!-- Node5&#45;&gt;Node12 -->
<g id="edge12_Node000005_Node000012" class="edge">
<title>Node5&#45;&gt;Node12</title>
<g id="a_edge12_Node000005_Node000012"><a xlink:title=" ">
<path fill="none" stroke="#63b8ff" d="M509.19,-109.98C531.3,-101.3 565.82,-87.75 590.95,-77.88"/>
<polygon fill="#63b8ff" stroke="#63b8ff" points="592.39,-81.08 600.42,-74.17 589.83,-74.57 592.39,-81.08"/>
</a>
</g>
</g>
<!-- Node13 -->
<g id="Node000013" class="node">
<title>Node13</title>
<g id="a_Node000013"><a xlink:title=" ">
<polygon fill="#e0e0e0" stroke="#999999" points="1121.5,-74 999.5,-74 999.5,-55 1121.5,-55 1121.5,-74"/>
<text text-anchor="middle" x="1060.5" y="-62" font-family="Helvetica,sans-Serif" font-size="10.00">BoosterSeat/time.hpp</text>
</a>
</g>
</g>
<!-- Node5&#45;&gt;Node13 -->
<g id="edge13_Node000005_Node000013" class="edge">
<title>Node5&#45;&gt;Node13</title>
<g id="a_edge13_Node000005_Node000013"><a xlink:title=" ">
<path fill="none" stroke="#63b8ff" d="M538.6,-114.53C627.83,-107.48 818.07,-91.92 989.47,-74.08"/>
<polygon fill="#63b8ff" stroke="#63b8ff" points="989.85,-77.56 999.43,-73.03 989.12,-70.59 989.85,-77.56"/>
</a>
</g>
</g>
<!-- Node14 -->
<g id="Node000014" class="node">
<title>Node14</title>
<g id="a_Node000014"><a xlink:title=" ">
<polygon fill="#e0e0e0" stroke="#999999" points="853.5,-74 695.5,-74 695.5,-55 853.5,-55 853.5,-74"/>
<text text-anchor="middle" x="774.5" y="-62" font-family="Helvetica,sans-Serif" font-size="10.00">SignalEasel/aprs/packets.hpp</text>
</a>
</g>
</g>
<!-- Node5&#45;&gt;Node14 -->
<g id="edge14_Node000005_Node000014" class="edge">
<title>Node5&#45;&gt;Node14</title>
<g id="a_edge14_Node000005_Node000014"><a xlink:title=" ">
<path fill="none" stroke="#63b8ff" d="M533.61,-109.98C583.78,-100.72 664.01,-85.9 717.94,-75.94"/>
<polygon fill="#63b8ff" stroke="#63b8ff" points="718.83,-79.34 728.03,-74.08 717.56,-72.46 718.83,-79.34"/>
</a>
</g>
</g>
<!-- Node15 -->
<g id="Node000015" class="node">
<title>Node15</title>
<g id="a_Node000015"><a xlink:href="giraffe__assert_8hpp.html" target="_top" xlink:title="For absolute failures in the code.">
<polygon fill="white" stroke="#666666" points="227.5,-74 123.5,-74 123.5,-55 227.5,-55 227.5,-74"/>
<text text-anchor="middle" x="175.5" y="-62" font-family="Helvetica,sans-Serif" font-size="10.00">giraffe_assert.hpp</text>
</a>
</g>
</g>
<!-- Node5&#45;&gt;Node15 -->
<g id="edge15_Node000005_Node000015" class="edge">
<title>Node5&#45;&gt;Node15</title>
<g id="a_edge15_Node000005_Node000015"><a xlink:title=" ">
<path fill="none" stroke="#63b8ff" d="M437.37,-109.98C382.41,-100.65 294.27,-85.67 235.63,-75.71"/>
<polygon fill="#63b8ff" stroke="#63b8ff" points="236.21,-72.26 225.76,-74.04 235.03,-79.16 236.21,-72.26"/>
</a>
</g>
</g>
<!-- Node16 -->
<g id="Node000016" class="node">
<title>Node16</title>
<g id="a_Node000016"><a xlink:title=" ">
<polygon fill="#e0e0e0" stroke="#999999" points="221,-19 156,-19 156,0 221,0 221,-19"/>
<text text-anchor="middle" x="188.5" y="-7" font-family="Helvetica,sans-Serif" font-size="10.00">exception</text>
</a>
</g>
</g>
<!-- Node15&#45;&gt;Node16 -->
<g id="edge16_Node000015_Node000016" class="edge">
<title>Node15&#45;&gt;Node16</title>
<g id="a_edge16_Node000015_Node000016"><a xlink:title=" ">
<path fill="none" stroke="#63b8ff" d="M177.65,-54.75C179.37,-47.72 181.85,-37.62 184,-28.84"/>
<polygon fill="#63b8ff" stroke="#63b8ff" points="187.41,-29.63 186.39,-19.09 180.61,-27.97 187.41,-29.63"/>
</a>
</g>
</g>
<!-- Node17 -->
<g id="Node000017" class="node">
<title>Node17</title>
<g id="a_Node000017"><a xlink:title=" ">
<polygon fill="#e0e0e0" stroke="#999999" points="137.5,-19 87.5,-19 87.5,0 137.5,0 137.5,-19"/>
<text text-anchor="middle" x="112.5" y="-7" font-family="Helvetica,sans-Serif" font-size="10.00">stdio.h</text>
</a>
</g>
</g>
<!-- Node15&#45;&gt;Node17 -->
<g id="edge17_Node000015_Node000017" class="edge">
<title>Node15&#45;&gt;Node17</title>
<g id="a_edge17_Node000015_Node000017"><a xlink:title=" ">
<path fill="none" stroke="#63b8ff" d="M165.38,-54.98C156.06,-47.15 142.03,-35.34 130.76,-25.86"/>
<polygon fill="#63b8ff" stroke="#63b8ff" points="132.71,-22.93 122.81,-19.17 128.21,-28.29 132.71,-22.93"/>
</a>
</g>
</g>
<!-- Node18&#45;&gt;Node5 -->
<g id="edge27_Node000018_Node000005" class="edge">
<title>Node18&#45;&gt;Node5</title>
<g id="a_edge27_Node000018_Node000005"><a xlink:title=" ">
<path fill="none" stroke="#63b8ff" d="M669.48,-274.93C624.82,-262.45 549.37,-235.01 506.5,-184 495.97,-171.47 491.28,-153.27 489.18,-139.57"/>
<polygon fill="#63b8ff" stroke="#63b8ff" points="492.62,-138.85 487.97,-129.33 485.67,-139.67 492.62,-138.85"/>
</a>
</g>
</g>
<!-- Node19 -->
<g id="Node000019" class="node">
<title>Node19</title>
<g id="a_Node000019"><a xlink:title=" ">
<polygon fill="#e0e0e0" stroke="#999999" points="1157,-239 1032,-239 1032,-220 1157,-220 1157,-239"/>
<text text-anchor="middle" x="1094.5" y="-227" font-family="Helvetica,sans-Serif" font-size="10.00">BoosterSeat/timer.hpp</text>
</a>
</g>
</g>
<!-- Node18&#45;&gt;Node19 -->
<g id="edge20_Node000018_Node000019" class="edge">
<title>Node18&#45;&gt;Node19</title>
<g id="a_edge20_Node000018_Node000019"><a xlink:title=" ">
<path fill="none" stroke="#63b8ff" d="M768,-274.98C837.23,-265.55 948.7,-250.36 1021.78,-240.41"/>
<polygon fill="#63b8ff" stroke="#63b8ff" points="1022.4,-243.86 1031.83,-239.04 1021.45,-236.92 1022.4,-243.86"/>
</a>
</g>
</g>
<!-- Node20 -->
<g id="Node000020" class="node">
<title>Node20</title>
<g id="a_Node000020"><a xlink:href="gdl__config__and__stats_8hpp.html" target="_top" xlink:title=" ">
<polygon fill="white" stroke="#666666" points="1073.5,-129 933.5,-129 933.5,-110 1073.5,-110 1073.5,-129"/>
<text text-anchor="middle" x="1003.5" y="-117" font-family="Helvetica,sans-Serif" font-size="10.00">gdl_config_and_stats.hpp</text>
</a>
</g>
</g>
<!-- Node18&#45;&gt;Node20 -->
<g id="edge21_Node000018_Node000020" class="edge">
<title>Node18&#45;&gt;Node20</title>
<g id="a_edge21_Node000018_Node000020"><a xlink:title=" ">
<path fill="none" stroke="#63b8ff" d="M777.72,-275.95C840.67,-265.61 930.15,-241.25 984.5,-184 996,-171.88 1000.57,-153.09 1002.37,-139.08"/>
<polygon fill="#63b8ff" stroke="#63b8ff" points="1005.86,-139.38 1003.3,-129.1 998.89,-138.73 1005.86,-139.38"/>
</a>
</g>
</g>
<!-- Node22 -->
<g id="Node000022" class="node">
<title>Node22</title>
<g id="a_Node000022"><a xlink:href="network__layer_8hpp.html" target="_top" xlink:title=" ">
<polygon fill="white" stroke="#666666" points="759,-239 652,-239 652,-220 759,-220 759,-239"/>
<text text-anchor="middle" x="705.5" y="-227" font-family="Helvetica,sans-Serif" font-size="10.00">network_layer.hpp</text>
</a>
</g>
</g>
<!-- Node18&#45;&gt;Node22 -->
<g id="edge28_Node000018_Node000022" class="edge">
<title>Node18&#45;&gt;Node22</title>
<g id="a_edge28_Node000018_Node000022"><a xlink:title=" ">
<path fill="none" stroke="#63b8ff" d="M705.5,-274.75C705.5,-267.8 705.5,-257.85 705.5,-249.13"/>
<polygon fill="#63b8ff" stroke="#63b8ff" points="709,-249.09 705.5,-239.09 702,-249.09 709,-249.09"/>
</a>
</g>
</g>
<!-- Node20&#45;&gt;Node3 -->
<g id="edge24_Node000020_Node000003" class="edge">
<title>Node20&#45;&gt;Node3</title>
<g id="a_edge24_Node000020_Node000003"><a xlink:title=" ">
<path fill="none" stroke="#63b8ff" d="M1057.75,-109.94C1103.35,-100.59 1157.16,-83.06 1130.5,-55 1101.46,-24.42 459.63,-13.28 300.13,-10.98"/>
<polygon fill="#63b8ff" stroke="#63b8ff" points="299.97,-7.47 289.92,-10.83 299.87,-14.47 299.97,-7.47"/>
</a>
</g>
</g>
<!-- Node20&#45;&gt;Node7 -->
<g id="edge25_Node000020_Node000007" class="edge">
<title>Node20&#45;&gt;Node7</title>
<g id="a_edge25_Node000020_Node000007"><a xlink:title=" ">
<path fill="none" stroke="#63b8ff" d="M986.15,-109.98C968.93,-101.54 942.3,-88.47 922.35,-78.68"/>
<polygon fill="#63b8ff" stroke="#63b8ff" points="923.69,-75.43 913.17,-74.17 920.6,-81.72 923.69,-75.43"/>
</a>
</g>
</g>
<!-- Node20&#45;&gt;Node10 -->
<g id="edge26_Node000020_Node000010" class="edge">
<title>Node20&#45;&gt;Node10</title>
<g id="a_edge26_Node000020_Node000010"><a xlink:title=" ">
<path fill="none" stroke="#63b8ff" d="M996.23,-109.75C989.96,-102.18 980.71,-91.05 973.07,-81.84"/>
<polygon fill="#63b8ff" stroke="#63b8ff" points="975.71,-79.55 966.63,-74.09 970.33,-84.02 975.71,-79.55"/>
</a>
</g>
</g>
<!-- Node20&#45;&gt;Node13 -->
<g id="edge22_Node000020_Node000013" class="edge">
<title>Node20&#45;&gt;Node13</title>
<g id="a_edge22_Node000020_Node000013"><a xlink:title=" ">
<path fill="none" stroke="#63b8ff" d="M1012.66,-109.98C1021,-102.23 1033.53,-90.58 1043.68,-81.14"/>
<polygon fill="#63b8ff" stroke="#63b8ff" points="1046.24,-83.54 1051.18,-74.17 1041.47,-78.42 1046.24,-83.54"/>
</a>
</g>
</g>
<!-- Node21 -->
<g id="Node000021" class="node">
<title>Node21</title>
<g id="a_Node000021"><a xlink:title=" ">
<polygon fill="#e0e0e0" stroke="#999999" points="1227.5,-74 1177.5,-74 1177.5,-55 1227.5,-55 1227.5,-74"/>
<text text-anchor="middle" x="1202.5" y="-62" font-family="Helvetica,sans-Serif" font-size="10.00">atomic</text>
</a>
</g>
</g>
<!-- Node20&#45;&gt;Node21 -->
<g id="edge23_Node000020_Node000021" class="edge">
<title>Node20&#45;&gt;Node21</title>
<g id="a_edge23_Node000020_Node000021"><a xlink:title=" ">
<path fill="none" stroke="#63b8ff" d="M1035.47,-109.98C1071.53,-100.38 1129.98,-84.82 1167.3,-74.87"/>
<polygon fill="#63b8ff" stroke="#63b8ff" points="1168.47,-78.18 1177.23,-72.23 1166.67,-71.42 1168.47,-78.18"/>
</a>
</g>
</g>
<!-- Node23 -->
<g id="Node000023" class="node">
<title>Node23</title>
<g id="a_Node000023"><a xlink:title=" ">
<polygon fill="#e0e0e0" stroke="#999999" points="681.5,-184 623.5,-184 623.5,-165 681.5,-165 681.5,-184"/>
<text text-anchor="middle" x="652.5" y="-172" font-family="Helvetica,sans-Serif" font-size="10.00">memory</text>
</a>
</g>
</g>
<!-- Node22&#45;&gt;Node23 -->
<g id="edge29_Node000022_Node000023" class="edge">
<title>Node22&#45;&gt;Node23</title>
<g id="a_edge29_Node000022_Node000023"><a xlink:title=" ">
<path fill="none" stroke="#63b8ff" d="M696.75,-219.75C689.03,-212.03 677.6,-200.6 668.28,-191.28"/>
<polygon fill="#63b8ff" stroke="#63b8ff" points="670.64,-188.69 661.09,-184.09 665.69,-193.64 670.64,-188.69"/>
</a>
</g>
</g>
<!-- Node24 -->
<g id="Node000024" class="node">
<title>Node24</title>
<g id="a_Node000024"><a xlink:title=" ">
<polygon fill="#e0e0e0" stroke="#999999" points="817.5,-184 699.5,-184 699.5,-165 817.5,-165 817.5,-184"/>
<text text-anchor="middle" x="758.5" y="-172" font-family="Helvetica,sans-Serif" font-size="10.00">SignalEasel/aprs.hpp</text>
</a>
</g>
</g>
<!-- Node22&#45;&gt;Node24 -->
<g id="edge30_Node000022_Node000024" class="edge">
<title>Node22&#45;&gt;Node24</title>
<g id="a_edge30_Node000022_Node000024"><a xlink:title=" ">
<path fill="none" stroke="#63b8ff" d="M714.25,-219.75C721.97,-212.03 733.4,-200.6 742.72,-191.28"/>
<polygon fill="#63b8ff" stroke="#63b8ff" points="745.31,-193.64 749.91,-184.09 740.36,-188.69 745.31,-193.64"/>
</a>
</g>
</g>
<!-- Node25 -->
<g id="Node000025" class="node">
<title>Node25</title>
<g id="a_Node000025"><a xlink:href="gdl__packet_8hpp.html" target="_top" xlink:title="Data Link Packet &#45; Used in the transport and network layers.">
<polygon fill="white" stroke="#666666" points="605.5,-184 515.5,-184 515.5,-165 605.5,-165 605.5,-184"/>
<text text-anchor="middle" x="560.5" y="-172" font-family="Helvetica,sans-Serif" font-size="10.00">gdl_packet.hpp</text>
</a>
</g>
</g>
<!-- Node22&#45;&gt;Node25 -->
<g id="edge31_Node000022_Node000025" class="edge">
<title>Node22&#45;&gt;Node25</title>
<g id="a_edge31_Node000022_Node000025"><a xlink:title=" ">
<path fill="none" stroke="#63b8ff" d="M682.2,-219.98C658.25,-211.23 620.72,-197.51 593.67,-187.62"/>
<polygon fill="#63b8ff" stroke="#63b8ff" points="594.81,-184.32 584.22,-184.17 592.41,-190.89 594.81,-184.32"/>
</a>
</g>
</g>
<!-- Node26 -->
<g id="Node000026" class="node">
<title>Node26</title>
<g id="a_Node000026"><a xlink:href="physical__layer_8hpp.html" target="_top" xlink:title=" ">
<polygon fill="white" stroke="#666666" points="975.5,-184 835.5,-184 835.5,-165 975.5,-165 975.5,-184"/>
<text text-anchor="middle" x="905.5" y="-172" font-family="Helvetica,sans-Serif" font-size="10.00">layers/physical_layer.hpp</text>
</a>
</g>
</g>
<!-- Node22&#45;&gt;Node26 -->
<g id="edge33_Node000022_Node000026" class="edge">
<title>Node22&#45;&gt;Node26</title>
<g id="a_edge33_Node000022_Node000026"><a xlink:title=" ">
<path fill="none" stroke="#63b8ff" d="M737.63,-219.98C771.65,-210.97 825.5,-196.7 863,-186.76"/>
<polygon fill="#63b8ff" stroke="#63b8ff" points="864.34,-190.03 873.11,-184.08 862.55,-183.26 864.34,-190.03"/>
</a>
</g>
</g>
<!-- Node25&#45;&gt;Node5 -->
<g id="edge32_Node000025_Node000005" class="edge">
<title>Node25&#45;&gt;Node5</title>
<g id="a_edge32_Node000025_Node000005"><a xlink:title=" ">
<path fill="none" stroke="#63b8ff" d="M548.77,-164.98C537.77,-157 521.08,-144.88 507.9,-135.31"/>
<polygon fill="#63b8ff" stroke="#63b8ff" points="509.59,-132.21 499.44,-129.17 505.48,-137.88 509.59,-132.21"/>
</a>
</g>
</g>
<!-- Node26&#45;&gt;Node20 -->
<g id="edge34_Node000026_Node000020" class="edge">
<title>Node26&#45;&gt;Node20</title>
<g id="a_edge34_Node000026_Node000020"><a xlink:title=" ">
<path fill="none" stroke="#63b8ff" d="M921.25,-164.98C936.73,-156.61 960.59,-143.7 978.64,-133.95"/>
<polygon fill="#63b8ff" stroke="#63b8ff" points="980.34,-137.01 987.47,-129.17 977.01,-130.85 980.34,-137.01"/>
</a>
</g>
</g>
</g>
</svg>
