<?xml version="1.0" encoding="UTF-8" standalone="no"?>
<!DOCTYPE svg PUBLIC "-//W3C//DTD SVG 1.1//EN"
 "http://www.w3.org/Graphics/SVG/1.1/DTD/svg11.dtd">
<!-- Generated by graphviz version 2.43.0 (0)
 -->
<!-- Title: ubx_protocol.hpp Pages: 1 -->
<svg width="206pt" height="84pt"
 viewBox="0.00 0.00 206.00 84.00" xmlns="http://www.w3.org/2000/svg" xmlns:xlink="http://www.w3.org/1999/xlink">
<g id="graph0" class="graph" transform="scale(1 1) rotate(0) translate(4 80)">
<title>ubx_protocol.hpp</title>
<!-- Node1 -->
<g id="node1" class="node">
<title>Node1</title>
<g id="a_node1"><a xlink:title="UBX Protocol implementation header.">
<polygon fill="#bfbfbf" stroke="black" points="43.5,-56.5 43.5,-75.5 144.5,-75.5 144.5,-56.5 43.5,-56.5"/>
<text text-anchor="middle" x="94" y="-63.5" font-family="Helvetica,sans-Serif" font-size="10.00">ubx_protocol.hpp</text>
</a>
</g>
</g>
<!-- Node2 -->
<g id="node2" class="node">
<title>Node2</title>
<g id="a_node2"><a xlink:href="samm8q_8cpp.html" target="_top" xlink:title="The SAM&#45;M8Q GPS extension (I2C).">
<polygon fill="none" stroke="black" points="0,-0.5 0,-19.5 80,-19.5 80,-0.5 0,-0.5"/>
<text text-anchor="middle" x="40" y="-7.5" font-family="Helvetica,sans-Serif" font-size="10.00">samm8q.cpp</text>
</a>
</g>
</g>
<!-- Node1&#45;&gt;Node2 -->
<g id="edge1" class="edge">
<title>Node1&#45;&gt;Node2</title>
<path fill="none" stroke="midnightblue" d="M78,-49C68.43,-39.43 56.64,-27.64 48.75,-19.75"/>
<polygon fill="midnightblue" stroke="midnightblue" points="75.54,-51.49 85.08,-56.08 80.49,-46.54 75.54,-51.49"/>
</g>
<!-- Node3 -->
<g id="node3" class="node">
<title>Node3</title>
<g id="a_node3"><a xlink:href="ubx__protocol_8cpp.html" target="_top" xlink:title="The UBX Protocol implementation.">
<polygon fill="none" stroke="black" points="98,-0.5 98,-19.5 198,-19.5 198,-0.5 98,-0.5"/>
<text text-anchor="middle" x="148" y="-7.5" font-family="Helvetica,sans-Serif" font-size="10.00">ubx_protocol.cpp</text>
</a>
</g>
</g>
<!-- Node1&#45;&gt;Node3 -->
<g id="edge2" class="edge">
<title>Node1&#45;&gt;Node3</title>
<path fill="none" stroke="midnightblue" d="M110,-49C119.57,-39.43 131.36,-27.64 139.25,-19.75"/>
<polygon fill="midnightblue" stroke="midnightblue" points="107.51,-46.54 102.92,-56.08 112.46,-51.49 107.51,-46.54"/>
</g>
</g>
</svg>
