<?xml version="1.0" encoding="UTF-8" standalone="no"?>
<!DOCTYPE svg PUBLIC "-//W3C//DTD SVG 1.1//EN"
 "http://www.w3.org/Graphics/SVG/1.1/DTD/svg11.dtd">
<!-- Generated by graphviz version 2.43.0 (0)
 -->
<!-- Title: ubx_protocol.hpp Pages: 1 -->
<svg width="660pt" height="263pt"
 viewBox="0.00 0.00 659.50 263.00" xmlns="http://www.w3.org/2000/svg" xmlns:xlink="http://www.w3.org/1999/xlink">
<g id="graph0" class="graph" transform="scale(1 1) rotate(0) translate(4 259)">
<title>ubx_protocol.hpp</title>
<!-- Node1 -->
<g id="node1" class="node">
<title>Node1</title>
<g id="a_node1"><a xlink:title="UBX Protocol implementation header.">
<polygon fill="#bfbfbf" stroke="black" points="153.5,-235.5 153.5,-254.5 254.5,-254.5 254.5,-235.5 153.5,-235.5"/>
<text text-anchor="middle" x="204" y="-242.5" font-family="Helvetica,sans-Serif" font-size="10.00">ubx_protocol.hpp</text>
</a>
</g>
</g>
<!-- Node2 -->
<g id="node2" class="node">
<title>Node2</title>
<g id="a_node2"><a xlink:href="i2c__interface_8hpp.html" target="_top" xlink:title="A wrapper around I2C communication.">
<polygon fill="none" stroke="black" points="153.5,-179.5 153.5,-198.5 254.5,-198.5 254.5,-179.5 153.5,-179.5"/>
<text text-anchor="middle" x="204" y="-186.5" font-family="Helvetica,sans-Serif" font-size="10.00">i2c_interface.hpp</text>
</a>
</g>
</g>
<!-- Node1&#45;&gt;Node2 -->
<g id="edge1" class="edge">
<title>Node1&#45;&gt;Node2</title>
<path fill="none" stroke="midnightblue" d="M204,-235.08C204,-228.01 204,-217.86 204,-208.99"/>
<polygon fill="midnightblue" stroke="midnightblue" points="207.5,-208.75 204,-198.75 200.5,-208.75 207.5,-208.75"/>
</g>
<!-- Node3 -->
<g id="node3" class="node">
<title>Node3</title>
<g id="a_node3"><a xlink:title=" ">
<polygon fill="none" stroke="#bfbfbf" points="0,-123.5 0,-142.5 50,-142.5 50,-123.5 0,-123.5"/>
<text text-anchor="middle" x="25" y="-130.5" font-family="Helvetica,sans-Serif" font-size="10.00">cstdint</text>
</a>
</g>
</g>
<!-- Node1&#45;&gt;Node3 -->
<g id="edge17" class="edge">
<title>Node1&#45;&gt;Node3</title>
<path fill="none" stroke="midnightblue" d="M189.95,-235.37C159.11,-216.41 85.21,-171 47.69,-147.94"/>
<polygon fill="midnightblue" stroke="midnightblue" points="49.33,-144.85 38.98,-142.59 45.67,-150.81 49.33,-144.85"/>
</g>
<!-- Node5 -->
<g id="node5" class="node">
<title>Node5</title>
<g id="a_node5"><a xlink:title=" ">
<polygon fill="none" stroke="#bfbfbf" points="440.5,-123.5 440.5,-142.5 487.5,-142.5 487.5,-123.5 440.5,-123.5"/>
<text text-anchor="middle" x="464" y="-130.5" font-family="Helvetica,sans-Serif" font-size="10.00">vector</text>
</a>
</g>
</g>
<!-- Node1&#45;&gt;Node5 -->
<g id="edge18" class="edge">
<title>Node1&#45;&gt;Node5</title>
<path fill="none" stroke="midnightblue" d="M224.4,-235.37C270.16,-216.01 381.12,-169.06 434.44,-146.51"/>
<polygon fill="midnightblue" stroke="midnightblue" points="435.85,-149.71 443.69,-142.59 433.12,-143.26 435.85,-149.71"/>
</g>
<!-- Node2&#45;&gt;Node3 -->
<g id="edge2" class="edge">
<title>Node2&#45;&gt;Node3</title>
<path fill="none" stroke="midnightblue" d="M175.64,-179.44C144.28,-169.98 93.74,-154.74 59.96,-144.55"/>
<polygon fill="midnightblue" stroke="midnightblue" points="60.64,-141.1 50.05,-141.56 58.62,-147.8 60.64,-141.1"/>
</g>
<!-- Node4 -->
<g id="node4" class="node">
<title>Node4</title>
<g id="a_node4"><a xlink:title=" ">
<polygon fill="none" stroke="#bfbfbf" points="68,-123.5 68,-142.5 116,-142.5 116,-123.5 68,-123.5"/>
<text text-anchor="middle" x="92" y="-130.5" font-family="Helvetica,sans-Serif" font-size="10.00">mutex</text>
</a>
</g>
</g>
<!-- Node2&#45;&gt;Node4 -->
<g id="edge3" class="edge">
<title>Node2&#45;&gt;Node4</title>
<path fill="none" stroke="midnightblue" d="M186.01,-179.32C167.96,-170.62 139.95,-157.12 119.2,-147.11"/>
<polygon fill="midnightblue" stroke="midnightblue" points="120.48,-143.84 109.95,-142.65 117.44,-150.15 120.48,-143.84"/>
</g>
<!-- Node2&#45;&gt;Node5 -->
<g id="edge4" class="edge">
<title>Node2&#45;&gt;Node5</title>
<path fill="none" stroke="midnightblue" d="M252.04,-179.49C295.97,-171.49 362.95,-158.71 430.32,-143.02"/>
<polygon fill="midnightblue" stroke="midnightblue" points="431.32,-146.38 440.26,-140.69 429.72,-139.57 431.32,-146.38"/>
</g>
<!-- Node6 -->
<g id="node6" class="node">
<title>Node6</title>
<g id="a_node6"><a xlink:href="configuration__enums_8hpp.html" target="_top" xlink:title=" ">
<polygon fill="none" stroke="black" points="134,-123.5 134,-142.5 274,-142.5 274,-123.5 134,-123.5"/>
<text text-anchor="middle" x="204" y="-130.5" font-family="Helvetica,sans-Serif" font-size="10.00">configuration_enums.hpp</text>
</a>
</g>
</g>
<!-- Node2&#45;&gt;Node6 -->
<g id="edge5" class="edge">
<title>Node2&#45;&gt;Node6</title>
<path fill="none" stroke="midnightblue" d="M204,-179.08C204,-172.01 204,-161.86 204,-152.99"/>
<polygon fill="midnightblue" stroke="midnightblue" points="207.5,-152.75 204,-142.75 200.5,-152.75 207.5,-152.75"/>
</g>
<!-- Node7 -->
<g id="node7" class="node">
<title>Node7</title>
<g id="a_node7"><a xlink:href="giraffe__diagnostics_8hpp.html" target="_top" xlink:title="Giraffe&#39;s diagnostic system.">
<polygon fill="none" stroke="black" points="292,-123.5 292,-142.5 422,-142.5 422,-123.5 292,-123.5"/>
<text text-anchor="middle" x="357" y="-130.5" font-family="Helvetica,sans-Serif" font-size="10.00">giraffe_diagnostics.hpp</text>
</a>
</g>
</g>
<!-- Node2&#45;&gt;Node7 -->
<g id="edge6" class="edge">
<title>Node2&#45;&gt;Node7</title>
<path fill="none" stroke="midnightblue" d="M228.24,-179.44C253.87,-170.4 294.49,-156.06 323.24,-145.92"/>
<polygon fill="midnightblue" stroke="midnightblue" points="324.61,-149.15 332.87,-142.52 322.28,-142.54 324.61,-149.15"/>
</g>
<!-- Node8 -->
<g id="node8" class="node">
<title>Node8</title>
<g id="a_node8"><a xlink:title=" ">
<polygon fill="none" stroke="#bfbfbf" points="208,-6 208,-25 252,-25 252,-6 208,-6"/>
<text text-anchor="middle" x="230" y="-13" font-family="Helvetica,sans-Serif" font-size="10.00">string</text>
</a>
</g>
</g>
<!-- Node7&#45;&gt;Node8 -->
<g id="edge7" class="edge">
<title>Node7&#45;&gt;Node8</title>
<path fill="none" stroke="midnightblue" d="M337.47,-123.47C320.93,-115.61 297.24,-102.79 280,-87 263.11,-71.54 248.6,-49.46 239.62,-34.15"/>
<polygon fill="midnightblue" stroke="midnightblue" points="242.53,-32.18 234.55,-25.2 236.43,-35.63 242.53,-32.18"/>
</g>
<!-- Node9 -->
<g id="node9" class="node">
<title>Node9</title>
<g id="a_node9"><a xlink:title=" ">
<polygon fill="none" stroke="#bfbfbf" points="558.5,-67.5 558.5,-86.5 651.5,-86.5 651.5,-67.5 558.5,-67.5"/>
<text text-anchor="middle" x="605" y="-74.5" font-family="Helvetica,sans-Serif" font-size="10.00">unordered_map</text>
</a>
</g>
</g>
<!-- Node7&#45;&gt;Node9 -->
<g id="edge8" class="edge">
<title>Node7&#45;&gt;Node9</title>
<path fill="none" stroke="midnightblue" d="M396.3,-123.44C439.56,-114.02 509.17,-98.87 555.97,-88.68"/>
<polygon fill="midnightblue" stroke="midnightblue" points="556.86,-92.06 565.89,-86.52 555.37,-85.22 556.86,-92.06"/>
</g>
<!-- Node10 -->
<g id="node10" class="node">
<title>Node10</title>
<g id="a_node10"><a xlink:href="giraffe__assert_8hpp.html" target="_top" xlink:title="For absolute failures in the code.">
<polygon fill="none" stroke="black" points="436,-67.5 436,-86.5 540,-86.5 540,-67.5 436,-67.5"/>
<text text-anchor="middle" x="488" y="-74.5" font-family="Helvetica,sans-Serif" font-size="10.00">giraffe_assert.hpp</text>
</a>
</g>
</g>
<!-- Node7&#45;&gt;Node10 -->
<g id="edge9" class="edge">
<title>Node7&#45;&gt;Node10</title>
<path fill="none" stroke="midnightblue" d="M377.76,-123.44C399.32,-114.56 433.26,-100.56 457.79,-90.45"/>
<polygon fill="midnightblue" stroke="midnightblue" points="459.43,-93.56 467.34,-86.52 456.76,-87.09 459.43,-93.56"/>
</g>
<!-- Node13 -->
<g id="node13" class="node">
<title>Node13</title>
<g id="a_node13"><a xlink:href="giraffe__diagnostic__ids_8hpp.html" target="_top" xlink:title=" ">
<polygon fill="none" stroke="black" points="270,-0.5 270,-30.5 374,-30.5 374,-0.5 270,-0.5"/>
<text text-anchor="start" x="278" y="-18.5" font-family="Helvetica,sans-Serif" font-size="10.00">giraffe_diagnostic</text>
<text text-anchor="middle" x="322" y="-7.5" font-family="Helvetica,sans-Serif" font-size="10.00">_ids.hpp</text>
</a>
</g>
</g>
<!-- Node7&#45;&gt;Node13 -->
<g id="edge12" class="edge">
<title>Node7&#45;&gt;Node13</title>
<path fill="none" stroke="midnightblue" d="M332.53,-123.44C316.43,-116.38 296.62,-104.63 287,-87 278.24,-70.96 288.19,-52.43 299.69,-38.4"/>
<polygon fill="midnightblue" stroke="midnightblue" points="302.49,-40.52 306.51,-30.71 297.25,-35.87 302.49,-40.52"/>
</g>
<!-- Node14 -->
<g id="node14" class="node">
<title>Node14</title>
<g id="a_node14"><a xlink:href="giraffe__exception_8hpp.html" target="_top" xlink:title="Common exception for Giraffe.">
<polygon fill="none" stroke="black" points="296,-67.5 296,-86.5 418,-86.5 418,-67.5 296,-67.5"/>
<text text-anchor="middle" x="357" y="-74.5" font-family="Helvetica,sans-Serif" font-size="10.00">giraffe_exception.hpp</text>
</a>
</g>
</g>
<!-- Node7&#45;&gt;Node14 -->
<g id="edge13" class="edge">
<title>Node7&#45;&gt;Node14</title>
<path fill="none" stroke="midnightblue" d="M357,-123.08C357,-116.01 357,-105.86 357,-96.99"/>
<polygon fill="midnightblue" stroke="midnightblue" points="360.5,-96.75 357,-86.75 353.5,-96.75 360.5,-96.75"/>
</g>
<!-- Node11 -->
<g id="node11" class="node">
<title>Node11</title>
<g id="a_node11"><a xlink:title=" ">
<polygon fill="none" stroke="#bfbfbf" points="392.5,-6 392.5,-25 457.5,-25 457.5,-6 392.5,-6"/>
<text text-anchor="middle" x="425" y="-13" font-family="Helvetica,sans-Serif" font-size="10.00">exception</text>
</a>
</g>
</g>
<!-- Node10&#45;&gt;Node11 -->
<g id="edge10" class="edge">
<title>Node10&#45;&gt;Node11</title>
<path fill="none" stroke="midnightblue" d="M478.97,-67.48C469.24,-58.28 453.54,-43.46 441.58,-32.16"/>
<polygon fill="midnightblue" stroke="midnightblue" points="443.68,-29.33 434.01,-25.01 438.88,-34.42 443.68,-29.33"/>
</g>
<!-- Node12 -->
<g id="node12" class="node">
<title>Node12</title>
<g id="a_node12"><a xlink:title=" ">
<polygon fill="none" stroke="#bfbfbf" points="476,-6 476,-25 526,-25 526,-6 476,-6"/>
<text text-anchor="middle" x="501" y="-13" font-family="Helvetica,sans-Serif" font-size="10.00">stdio.h</text>
</a>
</g>
</g>
<!-- Node10&#45;&gt;Node12 -->
<g id="edge11" class="edge">
<title>Node10&#45;&gt;Node12</title>
<path fill="none" stroke="midnightblue" d="M489.86,-67.48C491.72,-58.99 494.62,-45.7 497,-34.82"/>
<polygon fill="midnightblue" stroke="midnightblue" points="500.43,-35.53 499.14,-25.01 493.59,-34.03 500.43,-35.53"/>
</g>
<!-- Node14&#45;&gt;Node8 -->
<g id="edge15" class="edge">
<title>Node14&#45;&gt;Node8</title>
<path fill="none" stroke="midnightblue" d="M338.8,-67.48C317.49,-57.49 281.97,-40.85 257.34,-29.31"/>
<polygon fill="midnightblue" stroke="midnightblue" points="258.7,-26.08 248.16,-25.01 255.73,-32.42 258.7,-26.08"/>
</g>
<!-- Node14&#45;&gt;Node11 -->
<g id="edge14" class="edge">
<title>Node14&#45;&gt;Node11</title>
<path fill="none" stroke="midnightblue" d="M366.74,-67.48C377.35,-58.2 394.52,-43.17 407.48,-31.83"/>
<polygon fill="midnightblue" stroke="midnightblue" points="410.05,-34.23 415.28,-25.01 405.44,-28.96 410.05,-34.23"/>
</g>
<!-- Node14&#45;&gt;Node13 -->
<g id="edge16" class="edge">
<title>Node14&#45;&gt;Node13</title>
<path fill="none" stroke="midnightblue" d="M351.99,-67.48C347.64,-60.09 341.16,-49.08 335.34,-39.17"/>
<polygon fill="midnightblue" stroke="midnightblue" points="338.34,-37.37 330.25,-30.52 332.3,-40.92 338.34,-37.37"/>
</g>
</g>
</svg>
